<?xml version="1.0" encoding="utf-8" standalone="no"?>
<!DOCTYPE svg PUBLIC "-//W3C//DTD SVG 1.1//EN"
  "http://www.w3.org/Graphics/SVG/1.1/DTD/svg11.dtd">
<svg xmlns:xlink="http://www.w3.org/1999/xlink" width="460.8pt" height="345.6pt" viewBox="0 0 460.8 345.6" xmlns="http://www.w3.org/2000/svg" version="1.1">
 <metadata>
  <rdf:RDF xmlns:dc="http://purl.org/dc/elements/1.1/" xmlns:cc="http://creativecommons.org/ns#" xmlns:rdf="http://www.w3.org/1999/02/22-rdf-syntax-ns#">
   <cc:Work>
    <dc:type rdf:resource="http://purl.org/dc/dcmitype/StillImage"/>
    <dc:date>2024-07-05T11:00:48.784532</dc:date>
    <dc:format>image/svg+xml</dc:format>
    <dc:creator>
     <cc:Agent>
      <dc:title>Matplotlib v3.7.1, https://matplotlib.org/</dc:title>
     </cc:Agent>
    </dc:creator>
   </cc:Work>
  </rdf:RDF>
 </metadata>
 <defs>
  <style type="text/css">*{stroke-linejoin: round; stroke-linecap: butt}</style>
 </defs>
 <g id="figure_1">
  <g id="patch_1">
   <path d="M 0 345.6 
L 460.8 345.6 
L 460.8 0 
L 0 0 
z
" style="fill: #ffffff"/>
  </g>
  <g id="axes_1">
   <g id="patch_2">
    <path d="M 57.6 307.584 
L 414.72 307.584 
L 414.72 41.472 
L 57.6 41.472 
z
" style="fill: #ffffff"/>
   </g>
   <g id="matplotlib.axis_1">
    <g id="xtick_1">
     <g id="line2d_1">
      <defs>
       <path id="mc7a0cb1c39" d="M 0 0 
L 0 3.5 
" style="stroke: #000000; stroke-width: 0.8"/>
      </defs>
      <g>
       <use xlink:href="#mc7a0cb1c39" x="73.832727" y="307.584" style="stroke: #000000; stroke-width: 0.8"/>
      </g>
     </g>
     <g id="text_1">
      <!-- 0 -->
      <g transform="translate(70.651477 322.182437) scale(0.1 -0.1)">
       <defs>
        <path id="DejaVuSans-30" d="M 2034 4250 
Q 1547 4250 1301 3770 
Q 1056 3291 1056 2328 
Q 1056 1369 1301 889 
Q 1547 409 2034 409 
Q 2525 409 2770 889 
Q 3016 1369 3016 2328 
Q 3016 3291 2770 3770 
Q 2525 4250 2034 4250 
z
M 2034 4750 
Q 2819 4750 3233 4129 
Q 3647 3509 3647 2328 
Q 3647 1150 3233 529 
Q 2819 -91 2034 -91 
Q 1250 -91 836 529 
Q 422 1150 422 2328 
Q 422 3509 836 4129 
Q 1250 4750 2034 4750 
z
" transform="scale(0.015625)"/>
       </defs>
       <use xlink:href="#DejaVuSans-30"/>
      </g>
     </g>
    </g>
    <g id="xtick_2">
     <g id="line2d_2">
      <g>
       <use xlink:href="#mc7a0cb1c39" x="137.303802" y="307.584" style="stroke: #000000; stroke-width: 0.8"/>
      </g>
     </g>
     <g id="text_2">
      <!-- 200 -->
      <g transform="translate(127.760052 322.182437) scale(0.1 -0.1)">
       <defs>
        <path id="DejaVuSans-32" d="M 1228 531 
L 3431 531 
L 3431 0 
L 469 0 
L 469 531 
Q 828 903 1448 1529 
Q 2069 2156 2228 2338 
Q 2531 2678 2651 2914 
Q 2772 3150 2772 3378 
Q 2772 3750 2511 3984 
Q 2250 4219 1831 4219 
Q 1534 4219 1204 4116 
Q 875 4013 500 3803 
L 500 4441 
Q 881 4594 1212 4672 
Q 1544 4750 1819 4750 
Q 2544 4750 2975 4387 
Q 3406 4025 3406 3419 
Q 3406 3131 3298 2873 
Q 3191 2616 2906 2266 
Q 2828 2175 2409 1742 
Q 1991 1309 1228 531 
z
" transform="scale(0.015625)"/>
       </defs>
       <use xlink:href="#DejaVuSans-32"/>
       <use xlink:href="#DejaVuSans-30" x="63.623047"/>
       <use xlink:href="#DejaVuSans-30" x="127.246094"/>
      </g>
     </g>
    </g>
    <g id="xtick_3">
     <g id="line2d_3">
      <g>
       <use xlink:href="#mc7a0cb1c39" x="200.774876" y="307.584" style="stroke: #000000; stroke-width: 0.8"/>
      </g>
     </g>
     <g id="text_3">
      <!-- 400 -->
      <g transform="translate(191.231126 322.182437) scale(0.1 -0.1)">
       <defs>
        <path id="DejaVuSans-34" d="M 2419 4116 
L 825 1625 
L 2419 1625 
L 2419 4116 
z
M 2253 4666 
L 3047 4666 
L 3047 1625 
L 3713 1625 
L 3713 1100 
L 3047 1100 
L 3047 0 
L 2419 0 
L 2419 1100 
L 313 1100 
L 313 1709 
L 2253 4666 
z
" transform="scale(0.015625)"/>
       </defs>
       <use xlink:href="#DejaVuSans-34"/>
       <use xlink:href="#DejaVuSans-30" x="63.623047"/>
       <use xlink:href="#DejaVuSans-30" x="127.246094"/>
      </g>
     </g>
    </g>
    <g id="xtick_4">
     <g id="line2d_4">
      <g>
       <use xlink:href="#mc7a0cb1c39" x="264.24595" y="307.584" style="stroke: #000000; stroke-width: 0.8"/>
      </g>
     </g>
     <g id="text_4">
      <!-- 600 -->
      <g transform="translate(254.7022 322.182437) scale(0.1 -0.1)">
       <defs>
        <path id="DejaVuSans-36" d="M 2113 2584 
Q 1688 2584 1439 2293 
Q 1191 2003 1191 1497 
Q 1191 994 1439 701 
Q 1688 409 2113 409 
Q 2538 409 2786 701 
Q 3034 994 3034 1497 
Q 3034 2003 2786 2293 
Q 2538 2584 2113 2584 
z
M 3366 4563 
L 3366 3988 
Q 3128 4100 2886 4159 
Q 2644 4219 2406 4219 
Q 1781 4219 1451 3797 
Q 1122 3375 1075 2522 
Q 1259 2794 1537 2939 
Q 1816 3084 2150 3084 
Q 2853 3084 3261 2657 
Q 3669 2231 3669 1497 
Q 3669 778 3244 343 
Q 2819 -91 2113 -91 
Q 1303 -91 875 529 
Q 447 1150 447 2328 
Q 447 3434 972 4092 
Q 1497 4750 2381 4750 
Q 2619 4750 2861 4703 
Q 3103 4656 3366 4563 
z
" transform="scale(0.015625)"/>
       </defs>
       <use xlink:href="#DejaVuSans-36"/>
       <use xlink:href="#DejaVuSans-30" x="63.623047"/>
       <use xlink:href="#DejaVuSans-30" x="127.246094"/>
      </g>
     </g>
    </g>
    <g id="xtick_5">
     <g id="line2d_5">
      <g>
       <use xlink:href="#mc7a0cb1c39" x="327.717025" y="307.584" style="stroke: #000000; stroke-width: 0.8"/>
      </g>
     </g>
     <g id="text_5">
      <!-- 800 -->
      <g transform="translate(318.173275 322.182437) scale(0.1 -0.1)">
       <defs>
        <path id="DejaVuSans-38" d="M 2034 2216 
Q 1584 2216 1326 1975 
Q 1069 1734 1069 1313 
Q 1069 891 1326 650 
Q 1584 409 2034 409 
Q 2484 409 2743 651 
Q 3003 894 3003 1313 
Q 3003 1734 2745 1975 
Q 2488 2216 2034 2216 
z
M 1403 2484 
Q 997 2584 770 2862 
Q 544 3141 544 3541 
Q 544 4100 942 4425 
Q 1341 4750 2034 4750 
Q 2731 4750 3128 4425 
Q 3525 4100 3525 3541 
Q 3525 3141 3298 2862 
Q 3072 2584 2669 2484 
Q 3125 2378 3379 2068 
Q 3634 1759 3634 1313 
Q 3634 634 3220 271 
Q 2806 -91 2034 -91 
Q 1263 -91 848 271 
Q 434 634 434 1313 
Q 434 1759 690 2068 
Q 947 2378 1403 2484 
z
M 1172 3481 
Q 1172 3119 1398 2916 
Q 1625 2713 2034 2713 
Q 2441 2713 2670 2916 
Q 2900 3119 2900 3481 
Q 2900 3844 2670 4047 
Q 2441 4250 2034 4250 
Q 1625 4250 1398 4047 
Q 1172 3844 1172 3481 
z
" transform="scale(0.015625)"/>
       </defs>
       <use xlink:href="#DejaVuSans-38"/>
       <use xlink:href="#DejaVuSans-30" x="63.623047"/>
       <use xlink:href="#DejaVuSans-30" x="127.246094"/>
      </g>
     </g>
    </g>
    <g id="xtick_6">
     <g id="line2d_6">
      <g>
       <use xlink:href="#mc7a0cb1c39" x="391.188099" y="307.584" style="stroke: #000000; stroke-width: 0.8"/>
      </g>
     </g>
     <g id="text_6">
      <!-- 1000 -->
      <g transform="translate(378.463099 322.182437) scale(0.1 -0.1)">
       <defs>
        <path id="DejaVuSans-31" d="M 794 531 
L 1825 531 
L 1825 4091 
L 703 3866 
L 703 4441 
L 1819 4666 
L 2450 4666 
L 2450 531 
L 3481 531 
L 3481 0 
L 794 0 
L 794 531 
z
" transform="scale(0.015625)"/>
       </defs>
       <use xlink:href="#DejaVuSans-31"/>
       <use xlink:href="#DejaVuSans-30" x="63.623047"/>
       <use xlink:href="#DejaVuSans-30" x="127.246094"/>
       <use xlink:href="#DejaVuSans-30" x="190.869141"/>
      </g>
     </g>
    </g>
    <g id="text_7">
     <!-- n -->
     <g transform="translate(232.99125 335.860562) scale(0.1 -0.1)">
      <defs>
       <path id="DejaVuSans-6e" d="M 3513 2113 
L 3513 0 
L 2938 0 
L 2938 2094 
Q 2938 2591 2744 2837 
Q 2550 3084 2163 3084 
Q 1697 3084 1428 2787 
Q 1159 2491 1159 1978 
L 1159 0 
L 581 0 
L 581 3500 
L 1159 3500 
L 1159 2956 
Q 1366 3272 1645 3428 
Q 1925 3584 2291 3584 
Q 2894 3584 3203 3211 
Q 3513 2838 3513 2113 
z
" transform="scale(0.015625)"/>
      </defs>
      <use xlink:href="#DejaVuSans-6e"/>
     </g>
    </g>
   </g>
   <g id="matplotlib.axis_2">
    <g id="ytick_1">
     <g id="line2d_7">
      <defs>
       <path id="mc57d46f728" d="M 0 0 
L -3.5 0 
" style="stroke: #000000; stroke-width: 0.8"/>
      </defs>
      <g>
       <use xlink:href="#mc57d46f728" x="57.6" y="277.042176" style="stroke: #000000; stroke-width: 0.8"/>
      </g>
     </g>
     <g id="text_8">
      <!-- −1.0 -->
      <g transform="translate(26.317187 280.841395) scale(0.1 -0.1)">
       <defs>
        <path id="DejaVuSans-2212" d="M 678 2272 
L 4684 2272 
L 4684 1741 
L 678 1741 
L 678 2272 
z
" transform="scale(0.015625)"/>
        <path id="DejaVuSans-2e" d="M 684 794 
L 1344 794 
L 1344 0 
L 684 0 
L 684 794 
z
" transform="scale(0.015625)"/>
       </defs>
       <use xlink:href="#DejaVuSans-2212"/>
       <use xlink:href="#DejaVuSans-31" x="83.789062"/>
       <use xlink:href="#DejaVuSans-2e" x="147.412109"/>
       <use xlink:href="#DejaVuSans-30" x="179.199219"/>
      </g>
     </g>
    </g>
    <g id="ytick_2">
     <g id="line2d_8">
      <g>
       <use xlink:href="#mc57d46f728" x="57.6" y="235.541459" style="stroke: #000000; stroke-width: 0.8"/>
      </g>
     </g>
     <g id="text_9">
      <!-- −0.5 -->
      <g transform="translate(26.317187 239.340678) scale(0.1 -0.1)">
       <defs>
        <path id="DejaVuSans-35" d="M 691 4666 
L 3169 4666 
L 3169 4134 
L 1269 4134 
L 1269 2991 
Q 1406 3038 1543 3061 
Q 1681 3084 1819 3084 
Q 2600 3084 3056 2656 
Q 3513 2228 3513 1497 
Q 3513 744 3044 326 
Q 2575 -91 1722 -91 
Q 1428 -91 1123 -41 
Q 819 9 494 109 
L 494 744 
Q 775 591 1075 516 
Q 1375 441 1709 441 
Q 2250 441 2565 725 
Q 2881 1009 2881 1497 
Q 2881 1984 2565 2268 
Q 2250 2553 1709 2553 
Q 1456 2553 1204 2497 
Q 953 2441 691 2322 
L 691 4666 
z
" transform="scale(0.015625)"/>
       </defs>
       <use xlink:href="#DejaVuSans-2212"/>
       <use xlink:href="#DejaVuSans-30" x="83.789062"/>
       <use xlink:href="#DejaVuSans-2e" x="147.412109"/>
       <use xlink:href="#DejaVuSans-35" x="179.199219"/>
      </g>
     </g>
    </g>
    <g id="ytick_3">
     <g id="line2d_9">
      <g>
       <use xlink:href="#mc57d46f728" x="57.6" y="194.040742" style="stroke: #000000; stroke-width: 0.8"/>
      </g>
     </g>
     <g id="text_10">
      <!-- 0.0 -->
      <g transform="translate(34.696875 197.839961) scale(0.1 -0.1)">
       <use xlink:href="#DejaVuSans-30"/>
       <use xlink:href="#DejaVuSans-2e" x="63.623047"/>
       <use xlink:href="#DejaVuSans-30" x="95.410156"/>
      </g>
     </g>
    </g>
    <g id="ytick_4">
     <g id="line2d_10">
      <g>
       <use xlink:href="#mc57d46f728" x="57.6" y="152.540025" style="stroke: #000000; stroke-width: 0.8"/>
      </g>
     </g>
     <g id="text_11">
      <!-- 0.5 -->
      <g transform="translate(34.696875 156.339243) scale(0.1 -0.1)">
       <use xlink:href="#DejaVuSans-30"/>
       <use xlink:href="#DejaVuSans-2e" x="63.623047"/>
       <use xlink:href="#DejaVuSans-35" x="95.410156"/>
      </g>
     </g>
    </g>
    <g id="ytick_5">
     <g id="line2d_11">
      <g>
       <use xlink:href="#mc57d46f728" x="57.6" y="111.039307" style="stroke: #000000; stroke-width: 0.8"/>
      </g>
     </g>
     <g id="text_12">
      <!-- 1.0 -->
      <g transform="translate(34.696875 114.838526) scale(0.1 -0.1)">
       <use xlink:href="#DejaVuSans-31"/>
       <use xlink:href="#DejaVuSans-2e" x="63.623047"/>
       <use xlink:href="#DejaVuSans-30" x="95.410156"/>
      </g>
     </g>
    </g>
    <g id="ytick_6">
     <g id="line2d_12">
      <g>
       <use xlink:href="#mc57d46f728" x="57.6" y="69.53859" style="stroke: #000000; stroke-width: 0.8"/>
      </g>
     </g>
     <g id="text_13">
      <!-- 1.5 -->
      <g transform="translate(34.696875 73.337809) scale(0.1 -0.1)">
       <use xlink:href="#DejaVuSans-31"/>
       <use xlink:href="#DejaVuSans-2e" x="63.623047"/>
       <use xlink:href="#DejaVuSans-35" x="95.410156"/>
      </g>
     </g>
    </g>
    <g id="text_14">
     <!-- E*t -->
     <g transform="translate(20.2375 182.147531) rotate(-90) scale(0.1 -0.1)">
      <defs>
       <path id="DejaVuSans-45" d="M 628 4666 
L 3578 4666 
L 3578 4134 
L 1259 4134 
L 1259 2753 
L 3481 2753 
L 3481 2222 
L 1259 2222 
L 1259 531 
L 3634 531 
L 3634 0 
L 628 0 
L 628 4666 
z
" transform="scale(0.015625)"/>
       <path id="DejaVuSans-2a" d="M 3009 3897 
L 1888 3291 
L 3009 2681 
L 2828 2375 
L 1778 3009 
L 1778 1831 
L 1422 1831 
L 1422 3009 
L 372 2375 
L 191 2681 
L 1313 3291 
L 191 3897 
L 372 4206 
L 1422 3572 
L 1422 4750 
L 1778 4750 
L 1778 3572 
L 2828 4206 
L 3009 3897 
z
" transform="scale(0.015625)"/>
       <path id="DejaVuSans-74" d="M 1172 4494 
L 1172 3500 
L 2356 3500 
L 2356 3053 
L 1172 3053 
L 1172 1153 
Q 1172 725 1289 603 
Q 1406 481 1766 481 
L 2356 481 
L 2356 0 
L 1766 0 
Q 1100 0 847 248 
Q 594 497 594 1153 
L 594 3053 
L 172 3053 
L 172 3500 
L 594 3500 
L 594 4494 
L 1172 4494 
z
" transform="scale(0.015625)"/>
      </defs>
      <use xlink:href="#DejaVuSans-45"/>
      <use xlink:href="#DejaVuSans-2a" x="63.183594"/>
      <use xlink:href="#DejaVuSans-74" x="113.183594"/>
     </g>
    </g>
   </g>
   <g id="line2d_13">
    <path d="M 73.832727 295.488 
L 74.784793 291.601292 
L 75.102149 289.213255 
L 75.73686 287.639527 
L 76.054215 287.123406 
L 76.37157 284.05649 
L 76.688926 283.123197 
L 77.006281 281.841781 
L 77.323636 281.71278 
L 77.958347 280.186068 
L 78.275702 278.997247 
L 78.593058 278.66924 
L 78.910413 277.438759 
L 79.227769 276.835119 
L 79.545124 276.709024 
L 79.862479 275.925592 
L 80.49719 273.819882 
L 81.449256 272.676622 
L 81.766612 271.773178 
L 82.401322 271.397085 
L 83.036033 269.701286 
L 83.353388 269.584663 
L 84.62281 267.679103 
L 87.161653 264.090867 
L 87.796364 263.627764 
L 88.431074 263.017458 
L 88.74843 262.783027 
L 89.065785 262.160345 
L 89.38314 262.000653 
L 91.921983 259.270089 
L 92.239339 259.12893 
L 93.191405 258.299738 
L 94.143471 257.458468 
L 94.460826 257.108876 
L 95.095537 256.814593 
L 95.412893 256.373915 
L 95.730248 256.138948 
L 96.047603 255.73968 
L 96.364959 255.587041 
L 96.682314 255.244315 
L 96.999669 255.086178 
L 97.63438 254.440662 
L 98.586446 253.951699 
L 99.221157 253.474234 
L 99.538512 253.339961 
L 99.855868 253.001902 
L 100.173223 252.904521 
L 100.490579 252.494061 
L 100.807934 252.304427 
L 101.125289 251.933992 
L 101.76 251.688922 
L 102.394711 251.139769 
L 103.029421 250.831812 
L 103.346777 250.593074 
L 103.664132 250.11022 
L 104.933554 249.451745 
L 105.568264 248.961592 
L 105.88562 248.859095 
L 106.520331 248.242176 
L 108.741818 247.018869 
L 109.059174 246.697478 
L 110.01124 246.182382 
L 111.598017 245.274954 
L 112.232727 244.754102 
L 113.184793 244.15858 
L 114.13686 243.595259 
L 114.77157 243.319799 
L 115.406281 242.955603 
L 116.040992 242.703878 
L 118.262479 241.379098 
L 118.89719 241.151365 
L 119.214545 240.802611 
L 120.166612 240.358219 
L 120.483967 240.299952 
L 121.753388 239.552947 
L 123.02281 238.920355 
L 123.974876 238.383161 
L 124.609587 237.923686 
L 125.561653 237.540761 
L 126.196364 237.039721 
L 126.831074 236.852162 
L 130.004628 235.167255 
L 130.639339 234.991492 
L 132.226116 234.282374 
L 132.860826 234.086046 
L 133.812893 233.576475 
L 134.130248 233.27645 
L 135.082314 233.036818 
L 136.351736 232.401419 
L 139.207934 231.185051 
L 139.525289 230.886205 
L 139.842645 230.813001 
L 140.16 230.570406 
L 140.794711 230.326945 
L 142.698843 229.557208 
L 145.237686 228.503704 
L 146.189752 228.06912 
L 146.507107 227.999766 
L 147.141818 227.689477 
L 147.776529 227.478581 
L 149.680661 226.799563 
L 149.998017 226.554605 
L 150.950083 226.311263 
L 152.219504 225.745339 
L 152.854215 225.472815 
L 154.758347 224.614242 
L 155.393058 224.522842 
L 156.662479 223.881072 
L 157.29719 223.671135 
L 157.931901 223.466119 
L 158.566612 223.153845 
L 160.153388 222.601783 
L 161.42281 222.203329 
L 170.30876 218.791491 
L 170.943471 218.609966 
L 172.212893 217.979632 
L 173.799669 217.405158 
L 174.751736 216.926656 
L 176.021157 216.501247 
L 176.655868 216.195933 
L 177.607934 215.904505 
L 178.56 215.483625 
L 180.464132 214.836725 
L 181.098843 214.670487 
L 181.733554 214.388534 
L 183.002975 213.92888 
L 183.955041 213.552274 
L 184.589752 213.270363 
L 185.224463 213.094703 
L 185.859174 212.950054 
L 186.493884 212.629823 
L 189.350083 211.625584 
L 190.302149 211.265354 
L 190.619504 211.229847 
L 191.254215 210.903343 
L 192.206281 210.642471 
L 193.158347 210.235033 
L 194.110413 209.949785 
L 195.062479 209.643731 
L 196.014545 209.21814 
L 196.649256 208.986622 
L 197.283967 208.841262 
L 198.236033 208.384677 
L 198.553388 208.333758 
L 199.505455 207.873894 
L 201.726942 207.304489 
L 202.996364 206.760888 
L 203.94843 206.46429 
L 206.169917 205.599197 
L 206.487273 205.587644 
L 207.121983 205.353035 
L 208.07405 205.037577 
L 209.343471 204.543117 
L 209.978182 204.380929 
L 210.295537 204.152917 
L 210.612893 204.148833 
L 211.247603 203.820326 
L 211.882314 203.656036 
L 212.517025 203.395116 
L 213.151736 203.258339 
L 213.469091 203.080193 
L 214.103802 202.9175 
L 215.055868 202.491951 
L 216.325289 202.07722 
L 217.594711 201.665602 
L 225.84595 198.970941 
L 227.432727 198.355815 
L 229.019504 197.867613 
L 231.558347 197.005743 
L 232.510413 196.637311 
L 236.318678 195.333793 
L 236.636033 195.293654 
L 237.270744 195.078266 
L 242.031074 193.533303 
L 242.665785 193.347244 
L 244.252562 192.732947 
L 244.887273 192.594495 
L 246.791405 191.838469 
L 247.426116 191.710306 
L 249.647603 190.887996 
L 250.282314 190.652639 
L 250.599669 190.438296 
L 252.821157 189.872194 
L 253.773223 189.525419 
L 254.407934 189.335328 
L 254.725289 189.166407 
L 255.36 189.008641 
L 258.850909 187.756998 
L 261.072397 187.032557 
L 261.389752 186.851307 
L 261.707107 186.805615 
L 262.659174 186.384175 
L 265.198017 185.571993 
L 265.515372 185.505203 
L 266.150083 185.164214 
L 269.006281 184.254013 
L 271.227769 183.455801 
L 271.545124 183.401911 
L 272.179835 183.055188 
L 274.401322 182.389924 
L 274.718678 182.188927 
L 275.036033 182.165593 
L 277.892231 180.960169 
L 278.209587 180.903504 
L 279.161653 180.500359 
L 279.796364 180.371983 
L 281.065785 179.865668 
L 288.364959 177.204959 
L 288.682314 176.942723 
L 289.317025 176.819756 
L 291.221157 176.063612 
L 292.490579 175.581478 
L 293.125289 175.253838 
L 294.077355 174.968021 
L 295.346777 174.534733 
L 296.298843 174.119721 
L 299.155041 172.957462 
L 299.789752 172.761695 
L 303.280661 171.270421 
L 303.598017 171.197184 
L 304.232727 170.823435 
L 304.867438 170.628524 
L 305.184793 170.447703 
L 305.502149 170.396932 
L 306.13686 170.019482 
L 307.088926 169.729381 
L 312.166612 167.656434 
L 312.483967 167.453267 
L 313.436033 167.174201 
L 318.831074 164.978642 
L 319.14843 164.719154 
L 320.735207 164.107372 
L 321.052562 163.796713 
L 325.178182 162.034472 
L 326.764959 161.222311 
L 327.082314 161.186721 
L 327.717025 160.768819 
L 328.03438 160.554859 
L 328.669091 160.365791 
L 332.16 158.598593 
L 332.794711 158.370182 
L 333.112066 158.110516 
L 333.429421 158.032705 
L 334.698843 157.340204 
L 335.333554 157.113582 
L 335.968264 156.765767 
L 336.602975 156.478097 
L 336.920331 156.225619 
L 337.237686 156.12567 
L 338.824463 155.136248 
L 339.459174 154.951399 
L 341.998017 153.591132 
L 342.950083 153.213432 
L 343.267438 152.798859 
L 344.53686 152.277678 
L 344.854215 152.021564 
L 345.488926 151.686099 
L 346.440992 151.175688 
L 347.710413 150.460549 
L 348.345124 150.108691 
L 348.979835 149.746216 
L 349.931901 149.327986 
L 350.566612 148.748343 
L 350.883967 148.658865 
L 352.153388 147.648131 
L 353.42281 146.909871 
L 353.740165 146.56374 
L 354.057521 146.483693 
L 356.279008 145.035848 
L 357.54843 144.430133 
L 358.18314 144.100876 
L 358.500496 143.705205 
L 361.356694 141.897923 
L 361.67405 141.580354 
L 361.991405 141.483467 
L 362.943471 140.808394 
L 364.530248 139.825422 
L 365.482314 139.102791 
L 366.43438 138.128559 
L 366.751736 137.696052 
L 367.069091 137.559509 
L 368.021157 136.613333 
L 368.973223 136.179711 
L 369.925289 135.358916 
L 370.56 135.016376 
L 370.877355 134.688496 
L 371.194711 134.549245 
L 371.512066 134.152853 
L 371.829421 133.984423 
L 374.68562 131.30891 
L 375.320331 130.849677 
L 375.955041 129.771177 
L 377.541818 128.470803 
L 377.859174 128.124518 
L 378.176529 127.969932 
L 378.493884 127.261509 
L 379.763306 126.108094 
L 381.350083 123.575777 
L 384.206281 120.499178 
L 387.379835 115.842738 
L 387.69719 114.647401 
L 388.014545 114.214642 
L 388.649256 112.801559 
L 388.966612 112.674409 
L 389.283967 111.726175 
L 390.553388 109.811393 
L 391.505455 107.679008 
L 391.82281 106.763945 
L 392.140165 105.393076 
L 392.457521 105.271556 
L 393.092231 103.486965 
L 393.409587 103.070086 
L 393.726942 101.132072 
L 394.044298 100.277198 
L 394.361653 98.985477 
L 394.679008 98.607356 
L 394.996364 96.433174 
L 395.313719 95.539336 
L 395.631074 94.268122 
L 395.94843 92.438238 
L 396.265785 92.128721 
L 396.900496 87.340596 
L 397.217851 85.863638 
L 397.535207 81.19373 
L 397.852562 79.351878 
L 398.169917 70.796938 
L 398.487273 67.157693 
L 398.487273 67.157693 
" clip-path="url(#p6c9e60d814)" style="fill: none; stroke: #1f77b4; stroke-width: 1.5; stroke-linecap: square"/>
   </g>
   <g id="line2d_14">
    <path d="M 73.832727 269.025041 
L 75.73686 268.937999 
L 76.054215 268.729166 
L 76.37157 268.729166 
L 76.688926 267.704515 
L 77.006281 267.704515 
L 77.323636 267.060147 
L 78.275702 267.05636 
L 78.593058 266.907663 
L 79.227769 266.848726 
L 79.545124 266.323092 
L 79.862479 266.323092 
L 80.179835 265.068367 
L 80.49719 265.068367 
L 80.814545 264.932619 
L 81.131901 264.932619 
L 82.083967 264.688578 
L 82.401322 262.935141 
L 83.670744 262.830425 
L 83.988099 262.494691 
L 84.940165 262.463713 
L 85.257521 262.339559 
L 85.892231 262.246372 
L 86.209587 261.894552 
L 86.526942 261.894552 
L 86.844298 260.862267 
L 88.431074 260.705741 
L 88.74843 260.521595 
L 89.065785 260.521595 
L 89.38314 260.036872 
L 89.700496 260.036872 
L 90.017851 259.230395 
L 90.335207 259.041581 
L 90.652562 259.041581 
L 90.969917 258.599785 
L 91.287273 258.599785 
L 91.604628 258.335588 
L 91.921983 257.375666 
L 92.239339 257.202189 
L 92.556694 257.202189 
L 92.87405 256.235735 
L 93.826116 256.218515 
L 94.143471 256.099246 
L 94.460826 255.768599 
L 94.778182 255.768599 
L 95.412893 255.184639 
L 95.730248 255.184639 
L 96.047603 254.918195 
L 97.317025 254.875182 
L 97.63438 254.694889 
L 97.951736 254.694889 
L 98.269091 254.499934 
L 98.586446 254.499934 
L 98.903802 254.340558 
L 99.538512 254.306311 
L 99.855868 253.772739 
L 100.173223 253.772739 
L 100.490579 253.125847 
L 100.807934 253.125847 
L 101.125289 252.959123 
L 102.077355 252.948771 
L 102.394711 252.846774 
L 102.712066 251.341452 
L 105.250909 250.911454 
L 105.568264 250.911454 
L 105.88562 250.515788 
L 106.202975 250.370504 
L 106.520331 250.370504 
L 106.837686 249.983505 
L 107.155041 249.983505 
L 107.472397 249.768796 
L 107.789752 249.768796 
L 108.107107 249.045418 
L 108.741818 249.044051 
L 109.059174 248.308387 
L 109.376529 248.043082 
L 109.693884 248.043082 
L 110.01124 247.299577 
L 110.963306 247.248449 
L 111.598017 247.095731 
L 111.915372 247.095731 
L 112.550083 246.059158 
L 113.819504 245.903489 
L 114.13686 245.634831 
L 114.77157 245.565422 
L 115.406281 245.456632 
L 115.723636 245.060902 
L 116.358347 244.971335 
L 117.627769 244.631499 
L 117.945124 244.270625 
L 118.262479 244.270625 
L 118.579835 243.824018 
L 119.531901 243.758289 
L 120.483967 243.642021 
L 120.801322 242.304743 
L 121.118678 242.304743 
L 121.753388 241.82222 
L 122.070744 241.82222 
L 122.388099 241.603745 
L 122.705455 241.603745 
L 123.02281 241.443136 
L 123.657521 241.418623 
L 123.974876 241.167549 
L 124.609587 241.165864 
L 124.926942 240.239958 
L 126.196364 239.875054 
L 126.513719 239.462648 
L 127.465785 239.402757 
L 127.78314 239.275366 
L 128.100496 238.045414 
L 129.369917 237.977707 
L 129.687273 237.767166 
L 130.639339 237.730383 
L 130.956694 237.57914 
L 131.27405 237.109354 
L 131.90876 236.885579 
L 132.543471 236.776014 
L 134.447603 236.505436 
L 134.764959 236.177594 
L 136.03438 236.079223 
L 136.351736 235.915323 
L 138.255868 235.638531 
L 138.573223 235.475348 
L 139.525289 235.405919 
L 140.16 235.342452 
L 140.477355 234.914645 
L 140.794711 234.914645 
L 141.112066 233.540663 
L 141.429421 233.540663 
L 142.064132 233.428396 
L 143.016198 233.383909 
L 143.333554 232.623517 
L 145.237686 232.533825 
L 145.555041 232.503742 
L 146.189752 232.195007 
L 146.507107 232.195007 
L 148.093884 231.720178 
L 148.41124 231.27882 
L 148.728595 231.27882 
L 149.04595 231.104054 
L 149.363306 231.104054 
L 149.680661 230.955268 
L 149.998017 228.774323 
L 150.315372 228.774323 
L 150.632727 228.586627 
L 150.950083 228.247195 
L 151.267438 228.247195 
L 151.902149 227.716305 
L 152.53686 227.607639 
L 154.123636 227.487228 
L 154.440992 227.466598 
L 154.758347 227.283992 
L 155.710413 227.257023 
L 156.027769 226.21773 
L 156.345124 225.982854 
L 156.979835 225.878475 
L 157.29719 225.649823 
L 159.201322 225.575771 
L 159.518678 225.391881 
L 159.836033 225.391881 
L 160.153388 224.773516 
L 160.788099 224.716256 
L 161.105455 224.555853 
L 161.42281 224.555853 
L 162.057521 224.302105 
L 162.374876 224.302105 
L 163.009587 223.829511 
L 163.326942 223.829511 
L 163.644298 223.398379 
L 163.961653 223.398379 
L 164.279008 223.187527 
L 165.231074 223.091591 
L 166.500496 222.773925 
L 166.817851 221.035481 
L 169.039339 220.616741 
L 169.356694 220.600077 
L 169.67405 220.466799 
L 170.943471 220.450989 
L 171.260826 220.011356 
L 171.578182 220.011356 
L 171.895537 218.825985 
L 173.164959 218.490832 
L 173.482314 218.109324 
L 174.43438 218.037794 
L 174.751736 217.8782 
L 175.069091 217.117657 
L 176.338512 217.060682 
L 176.655868 216.816677 
L 176.973223 216.816677 
L 177.290579 216.381906 
L 179.512066 216.225595 
L 180.146777 216.11431 
L 181.416198 216.006846 
L 182.050909 215.695487 
L 182.368264 215.695487 
L 182.68562 215.529519 
L 183.002975 215.529519 
L 183.637686 215.189551 
L 183.955041 215.189551 
L 184.589752 214.815193 
L 184.907107 214.815193 
L 185.224463 214.136475 
L 185.859174 214.088787 
L 186.176529 213.799452 
L 187.128595 213.698427 
L 188.080661 213.587322 
L 188.715372 213.225448 
L 189.032727 213.225448 
L 189.350083 212.978473 
L 189.667438 212.926675 
L 189.984793 212.576311 
L 190.93686 212.540712 
L 191.254215 212.035377 
L 191.57157 211.850999 
L 191.888926 211.850999 
L 192.206281 211.157073 
L 193.158347 211.06855 
L 194.427769 210.613814 
L 194.745124 209.690682 
L 195.379835 209.671086 
L 196.014545 209.271868 
L 196.331901 209.271868 
L 196.649256 208.984944 
L 198.553388 208.943692 
L 198.870744 208.77057 
L 199.188099 208.77057 
L 199.505455 208.288052 
L 200.140165 208.225823 
L 200.457521 208.09292 
L 201.726942 208.043875 
L 202.044298 207.799522 
L 202.361653 207.799522 
L 202.679008 207.496814 
L 204.58314 207.444211 
L 204.900496 207.181302 
L 205.217851 207.181302 
L 205.535207 207.042036 
L 205.852562 207.042036 
L 206.487273 206.288427 
L 206.804628 206.288427 
L 207.121983 206.156631 
L 208.391405 206.08557 
L 208.70876 205.590538 
L 209.026116 205.466613 
L 209.978182 205.412017 
L 210.295537 205.173073 
L 210.930248 205.102189 
L 211.564959 204.988391 
L 211.882314 204.897388 
L 212.199669 204.198051 
L 213.786446 204.045471 
L 214.421157 204.015117 
L 214.738512 203.774405 
L 215.690579 203.682894 
L 216.007934 203.554258 
L 216.325289 203.554258 
L 216.642645 203.402748 
L 217.277355 203.338998 
L 218.229421 203.154665 
L 218.546777 202.847715 
L 219.181488 202.805705 
L 219.816198 202.73119 
L 220.450909 201.250626 
L 221.402975 201.164829 
L 221.720331 201.104377 
L 222.037686 200.843868 
L 222.672397 200.750283 
L 222.989752 200.552531 
L 223.307107 200.552531 
L 223.624463 200.342737 
L 224.576529 200.210387 
L 224.893884 199.816962 
L 226.163306 199.765792 
L 228.067438 199.450758 
L 228.384793 199.450758 
L 228.702149 199.112734 
L 229.33686 199.031564 
L 229.654215 198.611766 
L 229.97157 198.611766 
L 230.288926 198.407928 
L 232.510413 198.313953 
L 233.145124 198.21694 
L 234.09719 197.986359 
L 234.414545 197.741361 
L 235.049256 197.736741 
L 235.366612 197.536902 
L 236.636033 197.472406 
L 236.953388 197.279807 
L 237.270744 197.279807 
L 237.588099 197.148902 
L 237.905455 197.148902 
L 238.540165 196.871925 
L 238.857521 196.871925 
L 239.174876 195.473131 
L 239.492231 195.473131 
L 239.809587 195.350208 
L 240.444298 195.340233 
L 240.761653 195.213545 
L 241.396364 195.135548 
L 242.34843 195.024036 
L 242.665785 194.668242 
L 243.935207 194.628116 
L 245.521983 194.338333 
L 246.156694 194.278351 
L 246.791405 194.166622 
L 247.10876 194.166622 
L 247.426116 193.36794 
L 248.060826 193.323135 
L 248.378182 192.98085 
L 248.695537 192.98085 
L 249.012893 192.577005 
L 249.964959 192.526025 
L 250.282314 192.273107 
L 250.599669 192.273107 
L 250.917025 191.767136 
L 251.23438 191.767136 
L 251.869091 191.51363 
L 252.503802 191.403613 
L 253.455868 191.275816 
L 253.773223 191.0044 
L 254.090579 191.0044 
L 254.725289 190.47624 
L 255.36 190.469617 
L 255.677355 190.163918 
L 256.629421 190.142045 
L 256.946777 189.935944 
L 257.898843 189.816457 
L 258.216198 189.689778 
L 258.533554 189.689778 
L 258.850909 188.972552 
L 259.48562 188.884633 
L 260.120331 188.311567 
L 260.437686 188.311567 
L 260.755041 187.847741 
L 261.389752 187.649509 
L 261.707107 187.649509 
L 262.024463 187.529885 
L 263.61124 187.423731 
L 265.198017 187.029435 
L 265.515372 187.029435 
L 265.832727 186.485961 
L 268.054215 186.01836 
L 269.006281 185.892321 
L 269.323636 185.610231 
L 269.958347 185.501236 
L 270.275702 185.241076 
L 270.593058 185.241076 
L 271.227769 184.869173 
L 272.49719 184.800149 
L 272.814545 184.540479 
L 274.401322 184.449883 
L 275.353388 184.296573 
L 276.940165 184.195626 
L 277.257521 183.181361 
L 277.574876 182.661619 
L 278.526942 182.575493 
L 279.796364 181.870181 
L 280.113719 181.870181 
L 280.431074 181.725768 
L 280.74843 181.259893 
L 281.065785 181.12711 
L 281.38314 181.12711 
L 281.700496 180.901462 
L 282.017851 179.810115 
L 282.969917 179.777582 
L 283.287273 179.60138 
L 284.239339 179.516839 
L 284.556694 179.245687 
L 285.191405 179.233308 
L 285.50876 179.07269 
L 286.460826 179.022981 
L 286.778182 178.794146 
L 288.999669 178.63359 
L 289.63438 176.642187 
L 290.903802 176.510561 
L 292.490579 176.191203 
L 293.442645 176.076552 
L 294.077355 176.008435 
L 294.394711 175.829595 
L 294.712066 175.829595 
L 295.346777 175.342609 
L 295.981488 174.916559 
L 296.298843 174.916559 
L 296.616198 174.572588 
L 297.250909 174.475703 
L 297.568264 174.140576 
L 297.88562 174.140576 
L 298.202975 173.750632 
L 300.424463 173.169377 
L 301.376529 173.083941 
L 303.280661 172.850569 
L 304.232727 172.799177 
L 304.550083 172.507907 
L 304.867438 171.078139 
L 305.184793 170.919998 
L 305.502149 170.919998 
L 305.819504 170.756487 
L 306.454215 170.670578 
L 307.088926 170.582042 
L 307.406281 169.531881 
L 307.723636 169.531881 
L 308.040992 169.380661 
L 308.675702 168.647406 
L 309.945124 168.467885 
L 310.262479 168.092188 
L 310.579835 168.092188 
L 311.214545 167.811624 
L 311.531901 167.811624 
L 311.849256 167.547214 
L 312.166612 167.547214 
L 312.483967 167.255532 
L 312.801322 167.255532 
L 313.436033 166.903986 
L 313.753388 166.903986 
L 314.070744 166.662734 
L 314.388099 166.270481 
L 314.705455 166.133899 
L 315.02281 166.133899 
L 315.340165 165.537983 
L 315.657521 165.479407 
L 315.974876 165.102973 
L 316.292231 165.102973 
L 316.609587 164.908789 
L 317.244298 164.885714 
L 317.561653 164.707927 
L 318.196364 164.651307 
L 318.513719 164.455385 
L 318.831074 164.455385 
L 319.14843 163.449236 
L 320.735207 163.068896 
L 321.052562 162.637752 
L 321.369917 162.447704 
L 322.321983 162.440832 
L 322.956694 162.256743 
L 323.27405 162.256743 
L 323.591405 161.897489 
L 323.90876 161.897489 
L 324.543471 161.177512 
L 324.860826 161.177512 
L 325.178182 160.893791 
L 325.812893 160.884467 
L 326.447603 160.279537 
L 326.764959 160.279537 
L 327.082314 159.492905 
L 328.03438 159.405247 
L 328.351736 159.370892 
L 328.669091 159.080922 
L 328.986446 158.474774 
L 330.255868 158.348447 
L 330.573223 157.994894 
L 330.890579 157.994894 
L 331.525289 157.370772 
L 331.842645 157.370772 
L 332.16 156.718593 
L 332.477355 156.361846 
L 333.112066 156.308917 
L 333.429421 156.062963 
L 333.746777 156.062963 
L 334.064132 155.494849 
L 334.698843 155.433852 
L 335.333554 154.684906 
L 335.650909 154.684906 
L 335.968264 154.562152 
L 336.920331 154.515575 
L 337.237686 154.430485 
L 337.555041 153.89198 
L 338.189752 153.644507 
L 339.141818 153.607271 
L 339.459174 153.343668 
L 339.776529 153.343668 
L 340.41124 153.137749 
L 340.728595 153.137749 
L 341.04595 152.916672 
L 341.363306 152.916672 
L 341.680661 152.291726 
L 341.998017 152.291726 
L 342.315372 151.044802 
L 342.632727 150.713097 
L 343.267438 150.633514 
L 343.584793 150.475019 
L 343.902149 150.475019 
L 344.219504 150.348772 
L 344.854215 150.263796 
L 345.17157 149.041323 
L 347.075702 148.946041 
L 347.393058 148.831491 
L 347.710413 148.11909 
L 348.345124 147.733214 
L 348.662479 147.733214 
L 349.29719 147.619856 
L 349.614545 147.137476 
L 349.931901 145.754997 
L 351.518678 145.480224 
L 351.836033 145.187648 
L 352.470744 145.091845 
L 353.42281 144.99061 
L 353.740165 144.781947 
L 355.326942 144.709195 
L 355.644298 144.56877 
L 355.961653 144.070549 
L 356.279008 144.070549 
L 356.596364 142.689002 
L 356.913719 142.469264 
L 357.231074 142.469264 
L 357.54843 141.635777 
L 357.865785 141.284373 
L 358.18314 141.284373 
L 358.500496 140.727545 
L 359.452562 140.62629 
L 359.769917 140.605746 
L 360.087273 140.153519 
L 360.721983 140.141823 
L 362.30876 139.669707 
L 362.626116 139.669707 
L 363.260826 139.418268 
L 363.578182 139.418268 
L 363.895537 138.894044 
L 364.212893 138.894044 
L 364.530248 137.232613 
L 365.164959 136.512476 
L 365.482314 136.512476 
L 365.799669 136.154482 
L 366.117025 136.154482 
L 366.43438 135.957128 
L 367.069091 135.36074 
L 367.386446 135.36074 
L 367.703802 134.385664 
L 368.338512 134.286584 
L 368.973223 134.243379 
L 369.290579 134.025693 
L 369.925289 133.994388 
L 370.242645 131.695054 
L 370.56 131.481499 
L 370.877355 131.481499 
L 371.194711 131.102047 
L 371.512066 131.102047 
L 371.829421 130.729554 
L 372.146777 130.618147 
L 372.464132 129.324505 
L 372.781488 129.047938 
L 373.733554 128.965785 
L 374.050909 128.786113 
L 374.368264 128.734299 
L 374.68562 128.53715 
L 375.002975 128.53715 
L 375.320331 128.088257 
L 375.637686 128.088257 
L 375.955041 127.886332 
L 376.272397 127.491574 
L 376.589752 127.491574 
L 376.907107 124.668577 
L 377.224463 123.0594 
L 377.541818 123.0594 
L 377.859174 122.829487 
L 378.176529 122.33217 
L 379.44595 122.182885 
L 379.763306 120.047677 
L 380.080661 119.867546 
L 380.398017 119.867546 
L 381.032727 119.309519 
L 381.984793 119.216998 
L 382.302149 118.227882 
L 382.619504 116.710541 
L 383.254215 116.631666 
L 383.888926 116.452066 
L 384.206281 116.452066 
L 384.523636 116.143892 
L 384.840992 116.143892 
L 385.158347 114.038804 
L 385.475702 114.038804 
L 385.793058 113.753002 
L 386.110413 110.587421 
L 386.745124 110.483469 
L 387.062479 110.301515 
L 387.379835 108.432806 
L 387.69719 107.772121 
L 388.331901 107.679789 
L 388.649256 107.240236 
L 388.966612 107.240236 
L 389.283967 105.053598 
L 389.601322 104.926849 
L 389.918678 104.926849 
L 390.236033 103.87141 
L 390.553388 101.435409 
L 390.870744 101.435409 
L 391.188099 101.290525 
L 391.505455 99.012931 
L 391.82281 98.650832 
L 392.140165 98.650832 
L 392.457521 96.579046 
L 393.092231 96.461587 
L 393.409587 96.085202 
L 393.726942 96.085202 
L 394.044298 94.090729 
L 394.361653 89.838607 
L 394.996364 89.822667 
L 395.631074 89.192463 
L 395.94843 89.192463 
L 396.265785 81.705216 
L 396.58314 77.729287 
L 396.900496 77.354027 
L 397.217851 77.354027 
L 397.535207 64.304838 
L 398.169917 64.216095 
L 398.487273 53.568 
L 398.487273 53.568 
" clip-path="url(#p6c9e60d814)" style="fill: none; stroke: #ff7f0e; stroke-width: 1.5; stroke-linecap: square"/>
   </g>
   <g id="patch_3">
    <path d="M 57.6 307.584 
L 57.6 41.472 
" style="fill: none; stroke: #000000; stroke-width: 0.8; stroke-linejoin: miter; stroke-linecap: square"/>
   </g>
   <g id="patch_4">
    <path d="M 414.72 307.584 
L 414.72 41.472 
" style="fill: none; stroke: #000000; stroke-width: 0.8; stroke-linejoin: miter; stroke-linecap: square"/>
   </g>
   <g id="patch_5">
    <path d="M 57.6 307.584 
L 414.72 307.584 
" style="fill: none; stroke: #000000; stroke-width: 0.8; stroke-linejoin: miter; stroke-linecap: square"/>
   </g>
   <g id="patch_6">
    <path d="M 57.6 41.472 
L 414.72 41.472 
" style="fill: none; stroke: #000000; stroke-width: 0.8; stroke-linejoin: miter; stroke-linecap: square"/>
   </g>
   <g id="legend_1">
    <g id="patch_7">
     <path d="M 64.6 78.82825 
L 129.342187 78.82825 
Q 131.342187 78.82825 131.342187 76.82825 
L 131.342187 48.472 
Q 131.342187 46.472 129.342187 46.472 
L 64.6 46.472 
Q 62.6 46.472 62.6 48.472 
L 62.6 76.82825 
Q 62.6 78.82825 64.6 78.82825 
z
" style="fill: #ffffff; opacity: 0.8; stroke: #cccccc; stroke-linejoin: miter"/>
    </g>
    <g id="line2d_15">
     <path d="M 66.6 54.570437 
L 76.6 54.570437 
L 86.6 54.570437 
" style="fill: none; stroke: #1f77b4; stroke-width: 1.5; stroke-linecap: square"/>
    </g>
    <g id="text_15">
     <!-- qc -->
     <g transform="translate(94.6 58.070437) scale(0.1 -0.1)">
      <defs>
       <path id="DejaVuSans-71" d="M 947 1747 
Q 947 1113 1208 752 
Q 1469 391 1925 391 
Q 2381 391 2643 752 
Q 2906 1113 2906 1747 
Q 2906 2381 2643 2742 
Q 2381 3103 1925 3103 
Q 1469 3103 1208 2742 
Q 947 2381 947 1747 
z
M 2906 525 
Q 2725 213 2448 61 
Q 2172 -91 1784 -91 
Q 1150 -91 751 415 
Q 353 922 353 1747 
Q 353 2572 751 3078 
Q 1150 3584 1784 3584 
Q 2172 3584 2448 3432 
Q 2725 3281 2906 2969 
L 2906 3500 
L 3481 3500 
L 3481 -1331 
L 2906 -1331 
L 2906 525 
z
" transform="scale(0.015625)"/>
       <path id="DejaVuSans-63" d="M 3122 3366 
L 3122 2828 
Q 2878 2963 2633 3030 
Q 2388 3097 2138 3097 
Q 1578 3097 1268 2742 
Q 959 2388 959 1747 
Q 959 1106 1268 751 
Q 1578 397 2138 397 
Q 2388 397 2633 464 
Q 2878 531 3122 666 
L 3122 134 
Q 2881 22 2623 -34 
Q 2366 -91 2075 -91 
Q 1284 -91 818 406 
Q 353 903 353 1747 
Q 353 2603 823 3093 
Q 1294 3584 2113 3584 
Q 2378 3584 2631 3529 
Q 2884 3475 3122 3366 
z
" transform="scale(0.015625)"/>
      </defs>
      <use xlink:href="#DejaVuSans-71"/>
      <use xlink:href="#DejaVuSans-63" x="63.476562"/>
     </g>
    </g>
    <g id="line2d_16">
     <path d="M 66.6 69.248562 
L 76.6 69.248562 
L 86.6 69.248562 
" style="fill: none; stroke: #ff7f0e; stroke-width: 1.5; stroke-linecap: square"/>
    </g>
    <g id="text_16">
     <!-- Trotter -->
     <g transform="translate(94.6 72.748562) scale(0.1 -0.1)">
      <defs>
       <path id="DejaVuSans-54" d="M -19 4666 
L 3928 4666 
L 3928 4134 
L 2272 4134 
L 2272 0 
L 1638 0 
L 1638 4134 
L -19 4134 
L -19 4666 
z
" transform="scale(0.015625)"/>
       <path id="DejaVuSans-72" d="M 2631 2963 
Q 2534 3019 2420 3045 
Q 2306 3072 2169 3072 
Q 1681 3072 1420 2755 
Q 1159 2438 1159 1844 
L 1159 0 
L 581 0 
L 581 3500 
L 1159 3500 
L 1159 2956 
Q 1341 3275 1631 3429 
Q 1922 3584 2338 3584 
Q 2397 3584 2469 3576 
Q 2541 3569 2628 3553 
L 2631 2963 
z
" transform="scale(0.015625)"/>
       <path id="DejaVuSans-6f" d="M 1959 3097 
Q 1497 3097 1228 2736 
Q 959 2375 959 1747 
Q 959 1119 1226 758 
Q 1494 397 1959 397 
Q 2419 397 2687 759 
Q 2956 1122 2956 1747 
Q 2956 2369 2687 2733 
Q 2419 3097 1959 3097 
z
M 1959 3584 
Q 2709 3584 3137 3096 
Q 3566 2609 3566 1747 
Q 3566 888 3137 398 
Q 2709 -91 1959 -91 
Q 1206 -91 779 398 
Q 353 888 353 1747 
Q 353 2609 779 3096 
Q 1206 3584 1959 3584 
z
" transform="scale(0.015625)"/>
       <path id="DejaVuSans-65" d="M 3597 1894 
L 3597 1613 
L 953 1613 
Q 991 1019 1311 708 
Q 1631 397 2203 397 
Q 2534 397 2845 478 
Q 3156 559 3463 722 
L 3463 178 
Q 3153 47 2828 -22 
Q 2503 -91 2169 -91 
Q 1331 -91 842 396 
Q 353 884 353 1716 
Q 353 2575 817 3079 
Q 1281 3584 2069 3584 
Q 2775 3584 3186 3129 
Q 3597 2675 3597 1894 
z
M 3022 2063 
Q 3016 2534 2758 2815 
Q 2500 3097 2075 3097 
Q 1594 3097 1305 2825 
Q 1016 2553 972 2059 
L 3022 2063 
z
" transform="scale(0.015625)"/>
      </defs>
      <use xlink:href="#DejaVuSans-54"/>
      <use xlink:href="#DejaVuSans-72" x="46.333984"/>
      <use xlink:href="#DejaVuSans-6f" x="85.197266"/>
      <use xlink:href="#DejaVuSans-74" x="146.378906"/>
      <use xlink:href="#DejaVuSans-74" x="185.587891"/>
      <use xlink:href="#DejaVuSans-65" x="224.796875"/>
      <use xlink:href="#DejaVuSans-72" x="286.320312"/>
     </g>
    </g>
   </g>
  </g>
 </g>
 <defs>
  <clipPath id="p6c9e60d814">
   <rect x="57.6" y="41.472" width="357.12" height="266.112"/>
  </clipPath>
 </defs>
</svg>
