<?xml version="1.0" encoding="utf-8" standalone="no"?>
<!DOCTYPE svg PUBLIC "-//W3C//DTD SVG 1.1//EN"
  "http://www.w3.org/Graphics/SVG/1.1/DTD/svg11.dtd">
<svg xmlns:xlink="http://www.w3.org/1999/xlink" width="460.8pt" height="345.6pt" viewBox="0 0 460.8 345.6" xmlns="http://www.w3.org/2000/svg" version="1.1">
 <metadata>
  <rdf:RDF xmlns:dc="http://purl.org/dc/elements/1.1/" xmlns:cc="http://creativecommons.org/ns#" xmlns:rdf="http://www.w3.org/1999/02/22-rdf-syntax-ns#">
   <cc:Work>
    <dc:type rdf:resource="http://purl.org/dc/dcmitype/StillImage"/>
    <dc:date>2024-08-25T11:49:00.822679</dc:date>
    <dc:format>image/svg+xml</dc:format>
    <dc:creator>
     <cc:Agent>
      <dc:title>Matplotlib v3.7.1, https://matplotlib.org/</dc:title>
     </cc:Agent>
    </dc:creator>
   </cc:Work>
  </rdf:RDF>
 </metadata>
 <defs>
  <style type="text/css">*{stroke-linejoin: round; stroke-linecap: butt}</style>
 </defs>
 <g id="figure_1">
  <g id="patch_1">
   <path d="M 0 345.6 
L 460.8 345.6 
L 460.8 0 
L 0 0 
z
" style="fill: #ffffff"/>
  </g>
  <g id="axes_1">
   <g id="patch_2">
    <path d="M 57.6 307.584 
L 414.72 307.584 
L 414.72 41.472 
L 57.6 41.472 
z
" style="fill: #ffffff"/>
   </g>
   <g id="matplotlib.axis_1">
    <g id="xtick_1">
     <g id="line2d_1">
      <defs>
       <path id="m921b175cda" d="M 0 0 
L 0 3.5 
" style="stroke: #000000; stroke-width: 0.8"/>
      </defs>
      <g>
       <use xlink:href="#m921b175cda" x="73.832727" y="307.584" style="stroke: #000000; stroke-width: 0.8"/>
      </g>
     </g>
     <g id="text_1">
      <!-- 0 -->
      <g transform="translate(70.651477 322.182437) scale(0.1 -0.1)">
       <defs>
        <path id="DejaVuSans-30" d="M 2034 4250 
Q 1547 4250 1301 3770 
Q 1056 3291 1056 2328 
Q 1056 1369 1301 889 
Q 1547 409 2034 409 
Q 2525 409 2770 889 
Q 3016 1369 3016 2328 
Q 3016 3291 2770 3770 
Q 2525 4250 2034 4250 
z
M 2034 4750 
Q 2819 4750 3233 4129 
Q 3647 3509 3647 2328 
Q 3647 1150 3233 529 
Q 2819 -91 2034 -91 
Q 1250 -91 836 529 
Q 422 1150 422 2328 
Q 422 3509 836 4129 
Q 1250 4750 2034 4750 
z
" transform="scale(0.015625)"/>
       </defs>
       <use xlink:href="#DejaVuSans-30"/>
      </g>
     </g>
    </g>
    <g id="xtick_2">
     <g id="line2d_2">
      <g>
       <use xlink:href="#m921b175cda" x="137.303802" y="307.584" style="stroke: #000000; stroke-width: 0.8"/>
      </g>
     </g>
     <g id="text_2">
      <!-- 200 -->
      <g transform="translate(127.760052 322.182437) scale(0.1 -0.1)">
       <defs>
        <path id="DejaVuSans-32" d="M 1228 531 
L 3431 531 
L 3431 0 
L 469 0 
L 469 531 
Q 828 903 1448 1529 
Q 2069 2156 2228 2338 
Q 2531 2678 2651 2914 
Q 2772 3150 2772 3378 
Q 2772 3750 2511 3984 
Q 2250 4219 1831 4219 
Q 1534 4219 1204 4116 
Q 875 4013 500 3803 
L 500 4441 
Q 881 4594 1212 4672 
Q 1544 4750 1819 4750 
Q 2544 4750 2975 4387 
Q 3406 4025 3406 3419 
Q 3406 3131 3298 2873 
Q 3191 2616 2906 2266 
Q 2828 2175 2409 1742 
Q 1991 1309 1228 531 
z
" transform="scale(0.015625)"/>
       </defs>
       <use xlink:href="#DejaVuSans-32"/>
       <use xlink:href="#DejaVuSans-30" x="63.623047"/>
       <use xlink:href="#DejaVuSans-30" x="127.246094"/>
      </g>
     </g>
    </g>
    <g id="xtick_3">
     <g id="line2d_3">
      <g>
       <use xlink:href="#m921b175cda" x="200.774876" y="307.584" style="stroke: #000000; stroke-width: 0.8"/>
      </g>
     </g>
     <g id="text_3">
      <!-- 400 -->
      <g transform="translate(191.231126 322.182437) scale(0.1 -0.1)">
       <defs>
        <path id="DejaVuSans-34" d="M 2419 4116 
L 825 1625 
L 2419 1625 
L 2419 4116 
z
M 2253 4666 
L 3047 4666 
L 3047 1625 
L 3713 1625 
L 3713 1100 
L 3047 1100 
L 3047 0 
L 2419 0 
L 2419 1100 
L 313 1100 
L 313 1709 
L 2253 4666 
z
" transform="scale(0.015625)"/>
       </defs>
       <use xlink:href="#DejaVuSans-34"/>
       <use xlink:href="#DejaVuSans-30" x="63.623047"/>
       <use xlink:href="#DejaVuSans-30" x="127.246094"/>
      </g>
     </g>
    </g>
    <g id="xtick_4">
     <g id="line2d_4">
      <g>
       <use xlink:href="#m921b175cda" x="264.24595" y="307.584" style="stroke: #000000; stroke-width: 0.8"/>
      </g>
     </g>
     <g id="text_4">
      <!-- 600 -->
      <g transform="translate(254.7022 322.182437) scale(0.1 -0.1)">
       <defs>
        <path id="DejaVuSans-36" d="M 2113 2584 
Q 1688 2584 1439 2293 
Q 1191 2003 1191 1497 
Q 1191 994 1439 701 
Q 1688 409 2113 409 
Q 2538 409 2786 701 
Q 3034 994 3034 1497 
Q 3034 2003 2786 2293 
Q 2538 2584 2113 2584 
z
M 3366 4563 
L 3366 3988 
Q 3128 4100 2886 4159 
Q 2644 4219 2406 4219 
Q 1781 4219 1451 3797 
Q 1122 3375 1075 2522 
Q 1259 2794 1537 2939 
Q 1816 3084 2150 3084 
Q 2853 3084 3261 2657 
Q 3669 2231 3669 1497 
Q 3669 778 3244 343 
Q 2819 -91 2113 -91 
Q 1303 -91 875 529 
Q 447 1150 447 2328 
Q 447 3434 972 4092 
Q 1497 4750 2381 4750 
Q 2619 4750 2861 4703 
Q 3103 4656 3366 4563 
z
" transform="scale(0.015625)"/>
       </defs>
       <use xlink:href="#DejaVuSans-36"/>
       <use xlink:href="#DejaVuSans-30" x="63.623047"/>
       <use xlink:href="#DejaVuSans-30" x="127.246094"/>
      </g>
     </g>
    </g>
    <g id="xtick_5">
     <g id="line2d_5">
      <g>
       <use xlink:href="#m921b175cda" x="327.717025" y="307.584" style="stroke: #000000; stroke-width: 0.8"/>
      </g>
     </g>
     <g id="text_5">
      <!-- 800 -->
      <g transform="translate(318.173275 322.182437) scale(0.1 -0.1)">
       <defs>
        <path id="DejaVuSans-38" d="M 2034 2216 
Q 1584 2216 1326 1975 
Q 1069 1734 1069 1313 
Q 1069 891 1326 650 
Q 1584 409 2034 409 
Q 2484 409 2743 651 
Q 3003 894 3003 1313 
Q 3003 1734 2745 1975 
Q 2488 2216 2034 2216 
z
M 1403 2484 
Q 997 2584 770 2862 
Q 544 3141 544 3541 
Q 544 4100 942 4425 
Q 1341 4750 2034 4750 
Q 2731 4750 3128 4425 
Q 3525 4100 3525 3541 
Q 3525 3141 3298 2862 
Q 3072 2584 2669 2484 
Q 3125 2378 3379 2068 
Q 3634 1759 3634 1313 
Q 3634 634 3220 271 
Q 2806 -91 2034 -91 
Q 1263 -91 848 271 
Q 434 634 434 1313 
Q 434 1759 690 2068 
Q 947 2378 1403 2484 
z
M 1172 3481 
Q 1172 3119 1398 2916 
Q 1625 2713 2034 2713 
Q 2441 2713 2670 2916 
Q 2900 3119 2900 3481 
Q 2900 3844 2670 4047 
Q 2441 4250 2034 4250 
Q 1625 4250 1398 4047 
Q 1172 3844 1172 3481 
z
" transform="scale(0.015625)"/>
       </defs>
       <use xlink:href="#DejaVuSans-38"/>
       <use xlink:href="#DejaVuSans-30" x="63.623047"/>
       <use xlink:href="#DejaVuSans-30" x="127.246094"/>
      </g>
     </g>
    </g>
    <g id="xtick_6">
     <g id="line2d_6">
      <g>
       <use xlink:href="#m921b175cda" x="391.188099" y="307.584" style="stroke: #000000; stroke-width: 0.8"/>
      </g>
     </g>
     <g id="text_6">
      <!-- 1000 -->
      <g transform="translate(378.463099 322.182437) scale(0.1 -0.1)">
       <defs>
        <path id="DejaVuSans-31" d="M 794 531 
L 1825 531 
L 1825 4091 
L 703 3866 
L 703 4441 
L 1819 4666 
L 2450 4666 
L 2450 531 
L 3481 531 
L 3481 0 
L 794 0 
L 794 531 
z
" transform="scale(0.015625)"/>
       </defs>
       <use xlink:href="#DejaVuSans-31"/>
       <use xlink:href="#DejaVuSans-30" x="63.623047"/>
       <use xlink:href="#DejaVuSans-30" x="127.246094"/>
       <use xlink:href="#DejaVuSans-30" x="190.869141"/>
      </g>
     </g>
    </g>
    <g id="text_7">
     <!-- n -->
     <g transform="translate(232.99125 335.860562) scale(0.1 -0.1)">
      <defs>
       <path id="DejaVuSans-6e" d="M 3513 2113 
L 3513 0 
L 2938 0 
L 2938 2094 
Q 2938 2591 2744 2837 
Q 2550 3084 2163 3084 
Q 1697 3084 1428 2787 
Q 1159 2491 1159 1978 
L 1159 0 
L 581 0 
L 581 3500 
L 1159 3500 
L 1159 2956 
Q 1366 3272 1645 3428 
Q 1925 3584 2291 3584 
Q 2894 3584 3203 3211 
Q 3513 2838 3513 2113 
z
" transform="scale(0.015625)"/>
      </defs>
      <use xlink:href="#DejaVuSans-6e"/>
     </g>
    </g>
   </g>
   <g id="matplotlib.axis_2">
    <g id="ytick_1">
     <g id="line2d_7">
      <defs>
       <path id="mfb6deac742" d="M 0 0 
L -3.5 0 
" style="stroke: #000000; stroke-width: 0.8"/>
      </defs>
      <g>
       <use xlink:href="#mfb6deac742" x="57.6" y="294.722185" style="stroke: #000000; stroke-width: 0.8"/>
      </g>
     </g>
     <g id="text_8">
      <!-- −6 -->
      <g transform="translate(35.857813 298.521404) scale(0.1 -0.1)">
       <defs>
        <path id="DejaVuSans-2212" d="M 678 2272 
L 4684 2272 
L 4684 1741 
L 678 1741 
L 678 2272 
z
" transform="scale(0.015625)"/>
       </defs>
       <use xlink:href="#DejaVuSans-2212"/>
       <use xlink:href="#DejaVuSans-36" x="83.789062"/>
      </g>
     </g>
    </g>
    <g id="ytick_2">
     <g id="line2d_8">
      <g>
       <use xlink:href="#mfb6deac742" x="57.6" y="254.563526" style="stroke: #000000; stroke-width: 0.8"/>
      </g>
     </g>
     <g id="text_9">
      <!-- −4 -->
      <g transform="translate(35.857813 258.362744) scale(0.1 -0.1)">
       <use xlink:href="#DejaVuSans-2212"/>
       <use xlink:href="#DejaVuSans-34" x="83.789062"/>
      </g>
     </g>
    </g>
    <g id="ytick_3">
     <g id="line2d_9">
      <g>
       <use xlink:href="#mfb6deac742" x="57.6" y="214.404867" style="stroke: #000000; stroke-width: 0.8"/>
      </g>
     </g>
     <g id="text_10">
      <!-- −2 -->
      <g transform="translate(35.857813 218.204085) scale(0.1 -0.1)">
       <use xlink:href="#DejaVuSans-2212"/>
       <use xlink:href="#DejaVuSans-32" x="83.789062"/>
      </g>
     </g>
    </g>
    <g id="ytick_4">
     <g id="line2d_10">
      <g>
       <use xlink:href="#mfb6deac742" x="57.6" y="174.246207" style="stroke: #000000; stroke-width: 0.8"/>
      </g>
     </g>
     <g id="text_11">
      <!-- 0 -->
      <g transform="translate(44.2375 178.045426) scale(0.1 -0.1)">
       <use xlink:href="#DejaVuSans-30"/>
      </g>
     </g>
    </g>
    <g id="ytick_5">
     <g id="line2d_11">
      <g>
       <use xlink:href="#mfb6deac742" x="57.6" y="134.087548" style="stroke: #000000; stroke-width: 0.8"/>
      </g>
     </g>
     <g id="text_12">
      <!-- 2 -->
      <g transform="translate(44.2375 137.886767) scale(0.1 -0.1)">
       <use xlink:href="#DejaVuSans-32"/>
      </g>
     </g>
    </g>
    <g id="ytick_6">
     <g id="line2d_12">
      <g>
       <use xlink:href="#mfb6deac742" x="57.6" y="93.928889" style="stroke: #000000; stroke-width: 0.8"/>
      </g>
     </g>
     <g id="text_13">
      <!-- 4 -->
      <g transform="translate(44.2375 97.728108) scale(0.1 -0.1)">
       <use xlink:href="#DejaVuSans-34"/>
      </g>
     </g>
    </g>
    <g id="ytick_7">
     <g id="line2d_13">
      <g>
       <use xlink:href="#mfb6deac742" x="57.6" y="53.77023" style="stroke: #000000; stroke-width: 0.8"/>
      </g>
     </g>
     <g id="text_14">
      <!-- 6 -->
      <g transform="translate(44.2375 57.569449) scale(0.1 -0.1)">
       <use xlink:href="#DejaVuSans-36"/>
      </g>
     </g>
    </g>
    <g id="text_15">
     <!-- E*t -->
     <g transform="translate(29.778125 182.147531) rotate(-90) scale(0.1 -0.1)">
      <defs>
       <path id="DejaVuSans-45" d="M 628 4666 
L 3578 4666 
L 3578 4134 
L 1259 4134 
L 1259 2753 
L 3481 2753 
L 3481 2222 
L 1259 2222 
L 1259 531 
L 3634 531 
L 3634 0 
L 628 0 
L 628 4666 
z
" transform="scale(0.015625)"/>
       <path id="DejaVuSans-2a" d="M 3009 3897 
L 1888 3291 
L 3009 2681 
L 2828 2375 
L 1778 3009 
L 1778 1831 
L 1422 1831 
L 1422 3009 
L 372 2375 
L 191 2681 
L 1313 3291 
L 191 3897 
L 372 4206 
L 1422 3572 
L 1422 4750 
L 1778 4750 
L 1778 3572 
L 2828 4206 
L 3009 3897 
z
" transform="scale(0.015625)"/>
       <path id="DejaVuSans-74" d="M 1172 4494 
L 1172 3500 
L 2356 3500 
L 2356 3053 
L 1172 3053 
L 1172 1153 
Q 1172 725 1289 603 
Q 1406 481 1766 481 
L 2356 481 
L 2356 0 
L 1766 0 
Q 1100 0 847 248 
Q 594 497 594 1153 
L 594 3053 
L 172 3053 
L 172 3500 
L 594 3500 
L 594 4494 
L 1172 4494 
z
" transform="scale(0.015625)"/>
      </defs>
      <use xlink:href="#DejaVuSans-45"/>
      <use xlink:href="#DejaVuSans-2a" x="63.183594"/>
      <use xlink:href="#DejaVuSans-74" x="113.183594"/>
     </g>
    </g>
   </g>
   <g id="line2d_14">
    <path d="M 73.832727 295.488 
L 74.150083 295.182358 
L 74.467438 295.120686 
L 74.784793 294.406419 
L 75.102149 294.287734 
L 75.419504 293.657228 
L 76.37157 292.938418 
L 76.688926 292.177179 
L 77.006281 292.020647 
L 77.323636 292.01173 
L 78.275702 291.253893 
L 78.593058 290.969317 
L 79.227769 290.75881 
L 79.545124 290.337688 
L 79.862479 290.274082 
L 80.179835 289.864931 
L 81.131901 289.434575 
L 82.083967 287.120858 
L 82.401322 287.085713 
L 82.718678 286.603722 
L 83.036033 286.56992 
L 83.353388 286.026972 
L 83.988099 285.735536 
L 84.305455 285.143226 
L 84.62281 285.109088 
L 85.257521 284.044588 
L 85.892231 283.736759 
L 86.209587 282.600115 
L 86.844298 282.47342 
L 87.161653 281.821542 
L 87.479008 281.703752 
L 88.113719 281.180352 
L 88.431074 280.739426 
L 89.065785 280.42769 
L 89.38314 280.318429 
L 90.017851 279.313045 
L 90.652562 279.169459 
L 90.969917 278.732957 
L 91.287273 278.107444 
L 91.604628 277.847117 
L 91.921983 277.82359 
L 93.191405 276.369838 
L 93.50876 276.354943 
L 93.826116 275.965953 
L 94.143471 275.394798 
L 95.095537 275.117333 
L 95.730248 274.258021 
L 97.951736 273.064844 
L 98.269091 272.115932 
L 98.586446 271.925582 
L 99.538512 268.877824 
L 100.173223 268.462145 
L 100.490579 267.976736 
L 100.807934 267.916725 
L 101.125289 267.620774 
L 102.077355 267.128463 
L 103.029421 266.474135 
L 103.981488 265.932807 
L 104.298843 265.551224 
L 104.616198 265.456266 
L 104.933554 264.906017 
L 105.568264 264.295271 
L 105.88562 263.677332 
L 106.202975 263.656624 
L 107.155041 263.189001 
L 108.424463 261.871253 
L 108.741818 261.830023 
L 109.693884 261.208915 
L 110.01124 260.44806 
L 110.64595 259.757065 
L 110.963306 258.540859 
L 111.598017 258.115427 
L 111.915372 258.107496 
L 112.232727 257.918975 
L 112.867438 257.823984 
L 113.184793 257.200722 
L 114.13686 256.896388 
L 114.454215 256.651324 
L 114.77157 256.651288 
L 115.088926 256.471122 
L 116.040992 256.435426 
L 116.358347 256.088401 
L 116.675702 256.083601 
L 117.310413 255.680744 
L 117.627769 255.654258 
L 117.945124 254.942185 
L 118.579835 254.840328 
L 118.89719 254.597533 
L 119.214545 254.597191 
L 119.531901 253.69738 
L 119.849256 253.253191 
L 120.166612 252.408849 
L 120.483967 252.057989 
L 120.801322 252.010179 
L 121.436033 251.317413 
L 121.753388 250.871708 
L 122.070744 250.755726 
L 122.705455 249.860801 
L 123.02281 249.696795 
L 123.657521 248.33534 
L 123.974876 248.311473 
L 124.609587 247.45285 
L 124.926942 247.192732 
L 125.244298 247.109396 
L 125.561653 246.751275 
L 126.513719 246.403121 
L 127.14843 245.804311 
L 128.100496 245.503841 
L 129.052562 244.865969 
L 130.004628 243.980006 
L 130.321983 243.882596 
L 130.956694 242.735029 
L 131.27405 242.679119 
L 131.90876 241.014475 
L 133.178182 240.063933 
L 133.812893 239.80576 
L 135.399669 239.409755 
L 135.717025 239.014708 
L 136.03438 238.812985 
L 136.351736 238.784188 
L 136.986446 238.476008 
L 137.621157 238.298883 
L 138.255868 238.222245 
L 138.573223 237.980299 
L 138.890579 237.970404 
L 139.207934 237.746034 
L 139.842645 237.58607 
L 140.16 237.395658 
L 140.794711 236.50108 
L 141.746777 236.179188 
L 142.064132 234.968768 
L 142.381488 234.95057 
L 143.016198 233.803585 
L 143.333554 233.457126 
L 143.650909 233.419899 
L 144.28562 232.943248 
L 144.920331 232.768347 
L 145.555041 232.339734 
L 146.189752 232.083407 
L 146.507107 231.987781 
L 146.824463 231.720481 
L 147.776529 231.410649 
L 148.41124 230.606306 
L 148.728595 229.927053 
L 149.363306 229.897973 
L 149.680661 229.591388 
L 149.998017 229.530353 
L 150.315372 228.651631 
L 150.950083 228.305162 
L 151.584793 228.254254 
L 151.902149 226.848722 
L 152.219504 226.171807 
L 152.53686 226.04348 
L 152.854215 225.197439 
L 153.17157 224.976984 
L 153.806281 224.799106 
L 154.123636 224.661531 
L 154.758347 223.938474 
L 155.075702 223.82968 
L 155.710413 223.206549 
L 156.345124 223.194143 
L 156.979835 222.790583 
L 157.614545 222.284177 
L 157.931901 221.937443 
L 158.566612 221.888623 
L 158.883967 221.617439 
L 159.201322 221.593994 
L 160.470744 220.71619 
L 160.788099 220.684274 
L 163.326942 219.467836 
L 163.961653 219.381196 
L 164.596364 218.866894 
L 165.231074 218.653276 
L 166.500496 218.247497 
L 167.769917 217.640743 
L 168.404628 217.554614 
L 169.039339 217.440384 
L 169.356694 217.411342 
L 169.67405 217.239099 
L 169.991405 216.802873 
L 170.943471 216.229442 
L 171.578182 216.207006 
L 171.895537 215.950215 
L 172.212893 215.493581 
L 173.164959 215.244509 
L 173.799669 214.118251 
L 174.117025 214.045297 
L 174.43438 213.671336 
L 174.751736 213.652712 
L 175.386446 212.674492 
L 176.021157 211.801681 
L 176.338512 211.774171 
L 177.925289 210.001836 
L 178.242645 209.909444 
L 179.194711 209.077381 
L 179.512066 208.556132 
L 180.146777 208.411892 
L 180.781488 208.257453 
L 182.050909 207.530457 
L 182.368264 207.523543 
L 182.68562 207.188288 
L 183.637686 206.92504 
L 183.955041 206.894005 
L 184.272397 206.476823 
L 185.859174 206.073921 
L 186.493884 205.637715 
L 186.81124 205.61277 
L 187.763306 205.00125 
L 188.715372 204.818039 
L 189.032727 204.659812 
L 189.667438 204.587727 
L 189.984793 204.247436 
L 190.619504 204.096555 
L 191.57157 203.464783 
L 192.523636 203.262111 
L 192.840992 203.092757 
L 193.158347 203.078174 
L 193.475702 202.847816 
L 193.793058 202.796063 
L 195.062479 201.762855 
L 195.379835 201.651454 
L 195.69719 201.327934 
L 196.331901 201.191013 
L 197.283967 200.608526 
L 197.601322 199.972086 
L 198.236033 199.900319 
L 199.505455 199.259482 
L 199.82281 199.185792 
L 200.140165 198.542541 
L 200.457521 198.514787 
L 200.774876 198.31487 
L 201.092231 197.883514 
L 202.044298 197.783918 
L 202.361653 197.315504 
L 202.679008 197.121184 
L 202.996364 196.622945 
L 203.94843 196.400028 
L 204.265785 196.107975 
L 204.58314 196.050796 
L 205.217851 195.672895 
L 205.535207 195.290652 
L 205.852562 195.083956 
L 206.169917 194.593242 
L 207.121983 194.176406 
L 207.439339 193.678231 
L 207.756694 193.519094 
L 208.07405 193.201214 
L 208.70876 193.049223 
L 209.026116 192.95495 
L 209.978182 192.257619 
L 210.295537 192.185511 
L 211.564959 191.33122 
L 212.517025 191.127033 
L 212.83438 190.534328 
L 213.786446 190.174621 
L 214.103802 189.663755 
L 214.738512 189.331836 
L 215.055868 189.200565 
L 215.373223 188.872673 
L 215.690579 188.842365 
L 216.007934 188.688251 
L 216.325289 188.037723 
L 216.642645 187.843133 
L 217.277355 187.795363 
L 217.912066 187.440359 
L 218.229421 186.960099 
L 218.546777 186.905615 
L 218.864132 186.56198 
L 219.498843 186.424636 
L 219.816198 186.380408 
L 220.133554 186.125221 
L 221.08562 185.846878 
L 222.989752 184.916631 
L 224.893884 184.353345 
L 225.21124 184.120522 
L 225.528595 184.039064 
L 225.84595 183.783051 
L 226.480661 183.727061 
L 226.798017 183.408782 
L 227.750083 183.261126 
L 228.067438 183.042425 
L 229.33686 182.817642 
L 229.654215 182.585932 
L 230.288926 182.526273 
L 230.923636 182.287714 
L 231.558347 181.921258 
L 232.193058 181.575639 
L 232.827769 181.518884 
L 233.462479 181.346246 
L 233.779835 180.973532 
L 234.731901 180.68799 
L 235.049256 180.178284 
L 235.366612 180.133131 
L 235.683967 179.748294 
L 236.636033 179.353771 
L 237.905455 178.425291 
L 238.22281 178.364852 
L 238.540165 178.104898 
L 239.174876 177.812704 
L 241.079008 177.003845 
L 241.713719 176.615244 
L 242.34843 176.461009 
L 242.665785 176.037204 
L 243.300496 175.855515 
L 243.935207 175.579771 
L 245.521983 175.138442 
L 245.839339 174.601411 
L 248.695537 173.375869 
L 249.012893 173.148026 
L 249.647603 172.373273 
L 250.599669 172.025846 
L 250.917025 171.699632 
L 251.23438 171.604993 
L 251.551736 171.206273 
L 252.503802 170.81511 
L 253.138512 170.308776 
L 253.455868 170.285807 
L 253.773223 169.795474 
L 255.677355 169.337516 
L 255.994711 169.075433 
L 256.312066 168.989631 
L 256.629421 168.436691 
L 257.264132 168.352639 
L 257.898843 168.081983 
L 258.216198 168.05966 
L 258.533554 167.863694 
L 258.850909 167.849541 
L 259.168264 167.213637 
L 259.48562 167.157468 
L 259.802975 166.662477 
L 260.120331 166.608832 
L 260.437686 165.91878 
L 261.389752 165.241844 
L 261.707107 164.994527 
L 262.024463 164.452753 
L 262.659174 164.173514 
L 263.293884 164.043206 
L 263.61124 163.858137 
L 264.563306 163.619106 
L 264.880661 163.431121 
L 265.832727 163.31119 
L 266.150083 163.028306 
L 266.467438 163.001609 
L 266.784793 162.850684 
L 267.102149 162.526634 
L 268.054215 162.326294 
L 268.688926 162.179923 
L 269.006281 162.157095 
L 269.640992 161.848222 
L 269.958347 161.793394 
L 270.275702 161.572919 
L 270.910413 161.480963 
L 272.179835 160.540617 
L 272.49719 160.389236 
L 272.814545 160.113507 
L 273.449256 159.921055 
L 273.766612 159.575972 
L 274.401322 159.431724 
L 275.036033 158.465294 
L 275.353388 158.349302 
L 275.988099 157.911256 
L 277.257521 157.685946 
L 278.209587 157.062712 
L 278.844298 156.720667 
L 279.161653 156.691929 
L 280.74843 155.991929 
L 281.065785 155.533124 
L 281.38314 155.470935 
L 282.017851 155.007503 
L 282.335207 154.956212 
L 282.969917 154.579074 
L 283.604628 153.556709 
L 283.921983 153.529756 
L 284.556694 152.839918 
L 285.191405 152.621296 
L 285.826116 152.425892 
L 286.143471 151.926871 
L 286.460826 151.896016 
L 287.095537 151.466366 
L 288.364959 151.041297 
L 289.63438 150.414369 
L 290.903802 150.221683 
L 291.538512 149.425289 
L 291.855868 149.1391 
L 292.490579 149.072353 
L 292.807934 148.814375 
L 293.125289 148.347306 
L 294.394711 147.929458 
L 295.029421 146.994165 
L 295.981488 146.821978 
L 296.616198 146.562739 
L 296.933554 146.333537 
L 297.250909 145.747512 
L 297.568264 145.659349 
L 298.202975 145.326254 
L 298.520331 145.312399 
L 298.837686 144.739014 
L 299.155041 144.401423 
L 300.107107 143.86945 
L 300.424463 143.327662 
L 301.059174 143.212601 
L 301.693884 142.93838 
L 302.01124 142.207746 
L 302.963306 141.829379 
L 303.280661 140.803252 
L 303.598017 140.766247 
L 303.915372 140.286941 
L 304.232727 140.156775 
L 304.550083 139.384631 
L 305.184793 138.751303 
L 305.502149 138.679646 
L 306.13686 137.943562 
L 306.454215 137.909053 
L 307.088926 137.007564 
L 307.723636 136.950093 
L 308.040992 136.698028 
L 308.675702 136.594397 
L 308.993058 136.286078 
L 309.627769 136.191427 
L 309.945124 135.725782 
L 311.849256 135.127356 
L 313.753388 134.586167 
L 314.070744 134.165508 
L 314.388099 134.147422 
L 314.705455 134.016206 
L 315.02281 133.73242 
L 315.657521 133.626328 
L 315.974876 133.378955 
L 317.244298 133.203129 
L 317.561653 132.56258 
L 317.879008 132.561719 
L 318.196364 132.251701 
L 319.465785 131.905947 
L 320.735207 131.216953 
L 321.052562 130.707155 
L 322.321983 130.261625 
L 323.27405 129.286969 
L 324.543471 129.061129 
L 324.860826 128.574559 
L 325.812893 128.174583 
L 326.764959 127.966893 
L 327.399669 127.652609 
L 327.717025 127.596786 
L 328.03438 127.339766 
L 328.351736 127.311381 
L 328.669091 127.041071 
L 330.255868 126.674596 
L 330.890579 126.293834 
L 331.207934 126.110531 
L 331.525289 125.603126 
L 331.842645 125.559357 
L 332.477355 124.933284 
L 333.429421 122.884231 
L 333.746777 122.823665 
L 334.381488 121.811695 
L 335.016198 121.557823 
L 335.333554 121.457179 
L 335.968264 121.072366 
L 336.28562 120.325414 
L 336.602975 120.279465 
L 336.920331 119.978288 
L 337.237686 119.923306 
L 337.555041 119.007442 
L 337.872397 118.562385 
L 338.189752 118.327082 
L 338.507107 117.840615 
L 339.141818 117.487912 
L 339.459174 117.089099 
L 340.41124 116.411588 
L 340.728595 115.726045 
L 341.04595 115.528834 
L 341.363306 114.868337 
L 341.680661 114.516448 
L 341.998017 113.625512 
L 342.315372 113.273541 
L 342.632727 112.086836 
L 343.267438 111.392468 
L 343.902149 111.093547 
L 344.219504 110.763584 
L 344.854215 110.580421 
L 345.17157 110.082102 
L 345.806281 109.920116 
L 346.123636 109.74666 
L 347.393058 109.493798 
L 347.710413 109.189733 
L 348.345124 109.031745 
L 348.662479 108.852492 
L 348.979835 108.824237 
L 349.614545 108.323335 
L 350.566612 108.014396 
L 350.883967 107.741135 
L 351.836033 107.271514 
L 353.740165 106.036245 
L 354.057521 105.545981 
L 354.374876 104.713662 
L 354.692231 103.489961 
L 355.009587 103.133485 
L 355.326942 103.104342 
L 356.279008 101.976197 
L 356.596364 101.969054 
L 357.54843 101.115945 
L 358.18314 100.756748 
L 358.500496 100.508393 
L 358.817851 99.842845 
L 359.452562 99.68538 
L 359.769917 99.29569 
L 360.087273 99.21661 
L 360.721983 98.439341 
L 361.039339 97.970375 
L 361.356694 97.711089 
L 361.67405 97.625846 
L 362.626116 94.427621 
L 362.943471 92.400146 
L 364.212893 89.95072 
L 365.164959 88.718256 
L 365.482314 88.333232 
L 365.799669 88.230598 
L 366.117025 87.976409 
L 366.43438 87.881643 
L 367.069091 87.511283 
L 367.703802 86.396589 
L 368.021157 86.198297 
L 368.338512 85.161586 
L 368.655868 84.923995 
L 369.290579 82.814354 
L 369.607934 82.039658 
L 369.925289 81.678254 
L 370.56 81.565165 
L 370.877355 80.69852 
L 371.194711 80.576443 
L 371.512066 80.312815 
L 373.098843 79.970781 
L 373.733554 78.859787 
L 374.368264 78.759774 
L 375.002975 78.328827 
L 375.320331 77.760553 
L 375.637686 76.855763 
L 375.955041 76.50766 
L 376.272397 75.527683 
L 376.589752 75.248936 
L 377.224463 74.011565 
L 377.541818 74.003841 
L 378.176529 73.765402 
L 379.44595 72.517907 
L 379.763306 72.475129 
L 380.080661 72.204096 
L 381.032727 72.13766 
L 381.350083 71.872286 
L 381.667438 71.164308 
L 382.302149 70.679241 
L 382.93686 70.629303 
L 383.254215 70.339662 
L 383.57157 68.884161 
L 383.888926 68.748259 
L 384.206281 67.286461 
L 384.523636 67.213576 
L 384.840992 66.997552 
L 385.475702 66.161246 
L 385.793058 65.74706 
L 386.110413 65.705935 
L 386.427769 65.542053 
L 387.062479 64.729505 
L 387.379835 64.699436 
L 387.69719 64.54397 
L 388.014545 63.6923 
L 388.331901 63.477529 
L 388.649256 63.118893 
L 388.966612 62.420384 
L 389.283967 62.302441 
L 389.601322 61.956935 
L 389.918678 61.375761 
L 390.236033 61.105294 
L 390.553388 61.053051 
L 392.140165 59.833379 
L 392.774876 59.436659 
L 394.044298 58.810334 
L 394.361653 57.830598 
L 394.679008 57.787634 
L 395.313719 56.881716 
L 395.631074 55.837945 
L 396.265785 55.295159 
L 397.217851 54.587365 
L 397.535207 54.157146 
L 398.487273 53.568 
L 398.487273 53.568 
" clip-path="url(#p13fa8c62bd)" style="fill: none; stroke: #1f77b4; stroke-width: 1.5; stroke-linecap: square"/>
   </g>
   <g id="line2d_15">
    <path d="M 73.832727 276.899876 
L 74.150083 264.921297 
L 74.467438 264.921297 
L 74.784793 254.682053 
L 75.102149 252.555217 
L 75.73686 252.555217 
L 76.054215 248.724104 
L 76.37157 242.256655 
L 76.688926 241.859858 
L 77.006281 241.859858 
L 77.323636 240.859133 
L 78.910413 240.859133 
L 79.227769 237.210465 
L 79.545124 237.210465 
L 79.862479 235.889659 
L 80.179835 235.073646 
L 80.49719 235.073646 
L 80.814545 231.03901 
L 81.131901 229.139874 
L 82.083967 229.107219 
L 82.401322 227.983226 
L 86.844298 227.91941 
L 87.161653 227.30397 
L 87.479008 224.380362 
L 87.796364 223.734059 
L 88.113719 222.721938 
L 89.700496 222.721938 
L 90.017851 221.428747 
L 90.652562 221.428747 
L 90.969917 219.926512 
L 91.287273 219.926512 
L 91.604628 219.143966 
L 91.921983 217.131135 
L 99.221157 217.131135 
L 99.538512 215.931758 
L 99.855868 215.931758 
L 100.173223 215.648054 
L 101.76 215.648054 
L 102.077355 214.404867 
L 103.664132 214.404867 
L 103.981488 214.124449 
L 104.298843 213.639713 
L 104.933554 213.639713 
L 105.250909 211.93485 
L 106.202975 211.848928 
L 106.520331 208.001331 
L 107.155041 207.621161 
L 107.472397 207.621161 
L 107.789752 206.73517 
L 109.376529 206.73517 
L 109.693884 204.790713 
L 110.01124 204.790713 
L 110.328595 202.642697 
L 129.369917 202.642608 
L 129.687273 201.421965 
L 130.321983 200.273938 
L 131.27405 200.200744 
L 131.591405 199.202202 
L 131.90876 199.202202 
L 132.226116 198.974068 
L 132.860826 198.974068 
L 133.178182 197.051806 
L 133.495537 197.051806 
L 133.812893 196.649286 
L 135.399669 196.649286 
L 135.717025 195.010017 
L 136.03438 194.788971 
L 136.351736 194.418854 
L 136.986446 194.325537 
L 163.009587 194.325537 
L 163.326942 192.624187 
L 167.135207 192.624187 
L 167.452562 192.313257 
L 167.769917 192.313257 
L 168.087273 190.207615 
L 168.404628 190.207615 
L 168.721983 189.64558 
L 169.356694 189.64558 
L 169.67405 189.28289 
L 169.991405 188.414183 
L 171.578182 188.414183 
L 172.212893 187.801683 
L 172.530248 187.801683 
L 172.847603 187.541832 
L 180.146777 187.541832 
L 180.464132 187.094562 
L 180.781488 187.094562 
L 181.098843 186.655841 
L 182.68562 186.655841 
L 183.320331 182.563279 
L 185.541818 182.526874 
L 185.859174 182.289096 
L 186.493884 182.289096 
L 186.81124 181.929938 
L 187.128595 181.029913 
L 187.44595 181.029913 
L 187.763306 180.420335 
L 188.080661 180.420335 
L 188.398017 177.875509 
L 188.715372 174.246207 
L 283.604628 174.246207 
L 284.239339 168.072079 
L 284.556694 168.072079 
L 284.87405 167.462502 
L 285.191405 167.462502 
L 285.50876 166.562477 
L 285.826116 166.203319 
L 286.460826 166.203319 
L 286.778182 165.965541 
L 288.999669 165.929136 
L 289.63438 161.836574 
L 291.221157 161.836574 
L 291.538512 161.397853 
L 291.855868 161.397853 
L 292.173223 160.950583 
L 299.472397 160.950583 
L 299.789752 160.690732 
L 300.107107 160.690732 
L 300.741818 160.078232 
L 302.328595 160.078232 
L 302.64595 159.209525 
L 302.963306 158.846835 
L 303.598017 158.846835 
L 303.915372 158.2848 
L 304.232727 158.2848 
L 304.550083 156.179158 
L 304.867438 156.179158 
L 305.184793 155.868228 
L 308.993058 155.868228 
L 309.310413 154.166878 
L 335.968264 154.073561 
L 336.602975 153.482398 
L 336.920331 151.843129 
L 338.507107 151.843129 
L 338.824463 151.440609 
L 339.141818 151.440609 
L 339.459174 149.518347 
L 340.093884 149.518347 
L 340.41124 149.290213 
L 340.728595 149.290213 
L 341.04595 148.291671 
L 341.680661 148.218477 
L 341.998017 148.218477 
L 342.315372 147.774136 
L 342.632727 147.07045 
L 342.950083 145.849806 
L 361.991405 145.849718 
L 362.30876 143.701702 
L 362.626116 143.701702 
L 362.943471 141.757245 
L 364.530248 141.757245 
L 364.847603 140.871254 
L 365.164959 140.871254 
L 365.799669 140.491084 
L 366.117025 136.643487 
L 367.069091 136.557565 
L 367.386446 134.852702 
L 368.021157 134.852702 
L 368.338512 134.367966 
L 368.655868 134.087548 
L 370.242645 134.087548 
L 370.56 132.844361 
L 372.146777 132.844361 
L 372.464132 132.560656 
L 372.781488 132.560656 
L 373.098843 131.36128 
L 380.398017 131.36128 
L 380.715372 129.348449 
L 381.032727 128.565903 
L 381.350083 128.565903 
L 381.667438 127.063668 
L 382.302149 127.063668 
L 382.619504 125.770477 
L 384.206281 125.770477 
L 384.840992 124.112053 
L 385.158347 121.188445 
L 385.475702 120.573005 
L 389.918678 120.509189 
L 390.236033 119.385196 
L 391.188099 119.352541 
L 391.505455 117.453405 
L 391.82281 113.418769 
L 392.140165 113.418769 
L 392.457521 112.602756 
L 392.774876 111.28195 
L 393.092231 111.28195 
L 393.409587 107.633282 
L 394.996364 107.633282 
L 395.313719 106.632557 
L 395.631074 106.632557 
L 395.94843 106.23576 
L 396.265785 99.768311 
L 396.58314 95.937198 
L 397.217851 95.937198 
L 397.535207 93.810362 
L 397.852562 83.571118 
L 398.169917 83.571118 
L 398.487273 71.592539 
L 398.487273 71.592539 
" clip-path="url(#p13fa8c62bd)" style="fill: none; stroke: #ff7f0e; stroke-width: 1.5; stroke-linecap: square"/>
   </g>
   <g id="patch_3">
    <path d="M 57.6 307.584 
L 57.6 41.472 
" style="fill: none; stroke: #000000; stroke-width: 0.8; stroke-linejoin: miter; stroke-linecap: square"/>
   </g>
   <g id="patch_4">
    <path d="M 414.72 307.584 
L 414.72 41.472 
" style="fill: none; stroke: #000000; stroke-width: 0.8; stroke-linejoin: miter; stroke-linecap: square"/>
   </g>
   <g id="patch_5">
    <path d="M 57.6 307.584 
L 414.72 307.584 
" style="fill: none; stroke: #000000; stroke-width: 0.8; stroke-linejoin: miter; stroke-linecap: square"/>
   </g>
   <g id="patch_6">
    <path d="M 57.6 41.472 
L 414.72 41.472 
" style="fill: none; stroke: #000000; stroke-width: 0.8; stroke-linejoin: miter; stroke-linecap: square"/>
   </g>
   <g id="legend_1">
    <g id="patch_7">
     <path d="M 64.6 78.82825 
L 129.342187 78.82825 
Q 131.342187 78.82825 131.342187 76.82825 
L 131.342187 48.472 
Q 131.342187 46.472 129.342187 46.472 
L 64.6 46.472 
Q 62.6 46.472 62.6 48.472 
L 62.6 76.82825 
Q 62.6 78.82825 64.6 78.82825 
z
" style="fill: #ffffff; opacity: 0.8; stroke: #cccccc; stroke-linejoin: miter"/>
    </g>
    <g id="line2d_16">
     <path d="M 66.6 54.570437 
L 76.6 54.570437 
L 86.6 54.570437 
" style="fill: none; stroke: #1f77b4; stroke-width: 1.5; stroke-linecap: square"/>
    </g>
    <g id="text_16">
     <!-- qc -->
     <g transform="translate(94.6 58.070437) scale(0.1 -0.1)">
      <defs>
       <path id="DejaVuSans-71" d="M 947 1747 
Q 947 1113 1208 752 
Q 1469 391 1925 391 
Q 2381 391 2643 752 
Q 2906 1113 2906 1747 
Q 2906 2381 2643 2742 
Q 2381 3103 1925 3103 
Q 1469 3103 1208 2742 
Q 947 2381 947 1747 
z
M 2906 525 
Q 2725 213 2448 61 
Q 2172 -91 1784 -91 
Q 1150 -91 751 415 
Q 353 922 353 1747 
Q 353 2572 751 3078 
Q 1150 3584 1784 3584 
Q 2172 3584 2448 3432 
Q 2725 3281 2906 2969 
L 2906 3500 
L 3481 3500 
L 3481 -1331 
L 2906 -1331 
L 2906 525 
z
" transform="scale(0.015625)"/>
       <path id="DejaVuSans-63" d="M 3122 3366 
L 3122 2828 
Q 2878 2963 2633 3030 
Q 2388 3097 2138 3097 
Q 1578 3097 1268 2742 
Q 959 2388 959 1747 
Q 959 1106 1268 751 
Q 1578 397 2138 397 
Q 2388 397 2633 464 
Q 2878 531 3122 666 
L 3122 134 
Q 2881 22 2623 -34 
Q 2366 -91 2075 -91 
Q 1284 -91 818 406 
Q 353 903 353 1747 
Q 353 2603 823 3093 
Q 1294 3584 2113 3584 
Q 2378 3584 2631 3529 
Q 2884 3475 3122 3366 
z
" transform="scale(0.015625)"/>
      </defs>
      <use xlink:href="#DejaVuSans-71"/>
      <use xlink:href="#DejaVuSans-63" x="63.476562"/>
     </g>
    </g>
    <g id="line2d_17">
     <path d="M 66.6 69.248562 
L 76.6 69.248562 
L 86.6 69.248562 
" style="fill: none; stroke: #ff7f0e; stroke-width: 1.5; stroke-linecap: square"/>
    </g>
    <g id="text_17">
     <!-- Trotter -->
     <g transform="translate(94.6 72.748562) scale(0.1 -0.1)">
      <defs>
       <path id="DejaVuSans-54" d="M -19 4666 
L 3928 4666 
L 3928 4134 
L 2272 4134 
L 2272 0 
L 1638 0 
L 1638 4134 
L -19 4134 
L -19 4666 
z
" transform="scale(0.015625)"/>
       <path id="DejaVuSans-72" d="M 2631 2963 
Q 2534 3019 2420 3045 
Q 2306 3072 2169 3072 
Q 1681 3072 1420 2755 
Q 1159 2438 1159 1844 
L 1159 0 
L 581 0 
L 581 3500 
L 1159 3500 
L 1159 2956 
Q 1341 3275 1631 3429 
Q 1922 3584 2338 3584 
Q 2397 3584 2469 3576 
Q 2541 3569 2628 3553 
L 2631 2963 
z
" transform="scale(0.015625)"/>
       <path id="DejaVuSans-6f" d="M 1959 3097 
Q 1497 3097 1228 2736 
Q 959 2375 959 1747 
Q 959 1119 1226 758 
Q 1494 397 1959 397 
Q 2419 397 2687 759 
Q 2956 1122 2956 1747 
Q 2956 2369 2687 2733 
Q 2419 3097 1959 3097 
z
M 1959 3584 
Q 2709 3584 3137 3096 
Q 3566 2609 3566 1747 
Q 3566 888 3137 398 
Q 2709 -91 1959 -91 
Q 1206 -91 779 398 
Q 353 888 353 1747 
Q 353 2609 779 3096 
Q 1206 3584 1959 3584 
z
" transform="scale(0.015625)"/>
       <path id="DejaVuSans-65" d="M 3597 1894 
L 3597 1613 
L 953 1613 
Q 991 1019 1311 708 
Q 1631 397 2203 397 
Q 2534 397 2845 478 
Q 3156 559 3463 722 
L 3463 178 
Q 3153 47 2828 -22 
Q 2503 -91 2169 -91 
Q 1331 -91 842 396 
Q 353 884 353 1716 
Q 353 2575 817 3079 
Q 1281 3584 2069 3584 
Q 2775 3584 3186 3129 
Q 3597 2675 3597 1894 
z
M 3022 2063 
Q 3016 2534 2758 2815 
Q 2500 3097 2075 3097 
Q 1594 3097 1305 2825 
Q 1016 2553 972 2059 
L 3022 2063 
z
" transform="scale(0.015625)"/>
      </defs>
      <use xlink:href="#DejaVuSans-54"/>
      <use xlink:href="#DejaVuSans-72" x="46.333984"/>
      <use xlink:href="#DejaVuSans-6f" x="85.197266"/>
      <use xlink:href="#DejaVuSans-74" x="146.378906"/>
      <use xlink:href="#DejaVuSans-74" x="185.587891"/>
      <use xlink:href="#DejaVuSans-65" x="224.796875"/>
      <use xlink:href="#DejaVuSans-72" x="286.320312"/>
     </g>
    </g>
   </g>
  </g>
 </g>
 <defs>
  <clipPath id="p13fa8c62bd">
   <rect x="57.6" y="41.472" width="357.12" height="266.112"/>
  </clipPath>
 </defs>
</svg>
