<?xml version="1.0" encoding="utf-8" standalone="no"?>
<!DOCTYPE svg PUBLIC "-//W3C//DTD SVG 1.1//EN"
  "http://www.w3.org/Graphics/SVG/1.1/DTD/svg11.dtd">
<svg xmlns:xlink="http://www.w3.org/1999/xlink" width="460.8pt" height="345.6pt" viewBox="0 0 460.8 345.6" xmlns="http://www.w3.org/2000/svg" version="1.1">
 <metadata>
  <rdf:RDF xmlns:dc="http://purl.org/dc/elements/1.1/" xmlns:cc="http://creativecommons.org/ns#" xmlns:rdf="http://www.w3.org/1999/02/22-rdf-syntax-ns#">
   <cc:Work>
    <dc:type rdf:resource="http://purl.org/dc/dcmitype/StillImage"/>
    <dc:date>2024-08-31T17:01:00.860332</dc:date>
    <dc:format>image/svg+xml</dc:format>
    <dc:creator>
     <cc:Agent>
      <dc:title>Matplotlib v3.7.1, https://matplotlib.org/</dc:title>
     </cc:Agent>
    </dc:creator>
   </cc:Work>
  </rdf:RDF>
 </metadata>
 <defs>
  <style type="text/css">*{stroke-linejoin: round; stroke-linecap: butt}</style>
 </defs>
 <g id="figure_1">
  <g id="patch_1">
   <path d="M 0 345.6 
L 460.8 345.6 
L 460.8 0 
L 0 0 
z
" style="fill: #ffffff"/>
  </g>
  <g id="axes_1">
   <g id="patch_2">
    <path d="M 57.6 307.584 
L 414.72 307.584 
L 414.72 41.472 
L 57.6 41.472 
z
" style="fill: #ffffff"/>
   </g>
   <g id="matplotlib.axis_1">
    <g id="xtick_1">
     <g id="line2d_1">
      <defs>
       <path id="m9df1620165" d="M 0 0 
L 0 3.5 
" style="stroke: #000000; stroke-width: 0.8"/>
      </defs>
      <g>
       <use xlink:href="#m9df1620165" x="73.832727" y="307.584" style="stroke: #000000; stroke-width: 0.8"/>
      </g>
     </g>
     <g id="text_1">
      <!-- 0 -->
      <g transform="translate(70.651477 322.182437) scale(0.1 -0.1)">
       <defs>
        <path id="DejaVuSans-30" d="M 2034 4250 
Q 1547 4250 1301 3770 
Q 1056 3291 1056 2328 
Q 1056 1369 1301 889 
Q 1547 409 2034 409 
Q 2525 409 2770 889 
Q 3016 1369 3016 2328 
Q 3016 3291 2770 3770 
Q 2525 4250 2034 4250 
z
M 2034 4750 
Q 2819 4750 3233 4129 
Q 3647 3509 3647 2328 
Q 3647 1150 3233 529 
Q 2819 -91 2034 -91 
Q 1250 -91 836 529 
Q 422 1150 422 2328 
Q 422 3509 836 4129 
Q 1250 4750 2034 4750 
z
" transform="scale(0.015625)"/>
       </defs>
       <use xlink:href="#DejaVuSans-30"/>
      </g>
     </g>
    </g>
    <g id="xtick_2">
     <g id="line2d_2">
      <g>
       <use xlink:href="#m9df1620165" x="137.303802" y="307.584" style="stroke: #000000; stroke-width: 0.8"/>
      </g>
     </g>
     <g id="text_2">
      <!-- 200 -->
      <g transform="translate(127.760052 322.182437) scale(0.1 -0.1)">
       <defs>
        <path id="DejaVuSans-32" d="M 1228 531 
L 3431 531 
L 3431 0 
L 469 0 
L 469 531 
Q 828 903 1448 1529 
Q 2069 2156 2228 2338 
Q 2531 2678 2651 2914 
Q 2772 3150 2772 3378 
Q 2772 3750 2511 3984 
Q 2250 4219 1831 4219 
Q 1534 4219 1204 4116 
Q 875 4013 500 3803 
L 500 4441 
Q 881 4594 1212 4672 
Q 1544 4750 1819 4750 
Q 2544 4750 2975 4387 
Q 3406 4025 3406 3419 
Q 3406 3131 3298 2873 
Q 3191 2616 2906 2266 
Q 2828 2175 2409 1742 
Q 1991 1309 1228 531 
z
" transform="scale(0.015625)"/>
       </defs>
       <use xlink:href="#DejaVuSans-32"/>
       <use xlink:href="#DejaVuSans-30" x="63.623047"/>
       <use xlink:href="#DejaVuSans-30" x="127.246094"/>
      </g>
     </g>
    </g>
    <g id="xtick_3">
     <g id="line2d_3">
      <g>
       <use xlink:href="#m9df1620165" x="200.774876" y="307.584" style="stroke: #000000; stroke-width: 0.8"/>
      </g>
     </g>
     <g id="text_3">
      <!-- 400 -->
      <g transform="translate(191.231126 322.182437) scale(0.1 -0.1)">
       <defs>
        <path id="DejaVuSans-34" d="M 2419 4116 
L 825 1625 
L 2419 1625 
L 2419 4116 
z
M 2253 4666 
L 3047 4666 
L 3047 1625 
L 3713 1625 
L 3713 1100 
L 3047 1100 
L 3047 0 
L 2419 0 
L 2419 1100 
L 313 1100 
L 313 1709 
L 2253 4666 
z
" transform="scale(0.015625)"/>
       </defs>
       <use xlink:href="#DejaVuSans-34"/>
       <use xlink:href="#DejaVuSans-30" x="63.623047"/>
       <use xlink:href="#DejaVuSans-30" x="127.246094"/>
      </g>
     </g>
    </g>
    <g id="xtick_4">
     <g id="line2d_4">
      <g>
       <use xlink:href="#m9df1620165" x="264.24595" y="307.584" style="stroke: #000000; stroke-width: 0.8"/>
      </g>
     </g>
     <g id="text_4">
      <!-- 600 -->
      <g transform="translate(254.7022 322.182437) scale(0.1 -0.1)">
       <defs>
        <path id="DejaVuSans-36" d="M 2113 2584 
Q 1688 2584 1439 2293 
Q 1191 2003 1191 1497 
Q 1191 994 1439 701 
Q 1688 409 2113 409 
Q 2538 409 2786 701 
Q 3034 994 3034 1497 
Q 3034 2003 2786 2293 
Q 2538 2584 2113 2584 
z
M 3366 4563 
L 3366 3988 
Q 3128 4100 2886 4159 
Q 2644 4219 2406 4219 
Q 1781 4219 1451 3797 
Q 1122 3375 1075 2522 
Q 1259 2794 1537 2939 
Q 1816 3084 2150 3084 
Q 2853 3084 3261 2657 
Q 3669 2231 3669 1497 
Q 3669 778 3244 343 
Q 2819 -91 2113 -91 
Q 1303 -91 875 529 
Q 447 1150 447 2328 
Q 447 3434 972 4092 
Q 1497 4750 2381 4750 
Q 2619 4750 2861 4703 
Q 3103 4656 3366 4563 
z
" transform="scale(0.015625)"/>
       </defs>
       <use xlink:href="#DejaVuSans-36"/>
       <use xlink:href="#DejaVuSans-30" x="63.623047"/>
       <use xlink:href="#DejaVuSans-30" x="127.246094"/>
      </g>
     </g>
    </g>
    <g id="xtick_5">
     <g id="line2d_5">
      <g>
       <use xlink:href="#m9df1620165" x="327.717025" y="307.584" style="stroke: #000000; stroke-width: 0.8"/>
      </g>
     </g>
     <g id="text_5">
      <!-- 800 -->
      <g transform="translate(318.173275 322.182437) scale(0.1 -0.1)">
       <defs>
        <path id="DejaVuSans-38" d="M 2034 2216 
Q 1584 2216 1326 1975 
Q 1069 1734 1069 1313 
Q 1069 891 1326 650 
Q 1584 409 2034 409 
Q 2484 409 2743 651 
Q 3003 894 3003 1313 
Q 3003 1734 2745 1975 
Q 2488 2216 2034 2216 
z
M 1403 2484 
Q 997 2584 770 2862 
Q 544 3141 544 3541 
Q 544 4100 942 4425 
Q 1341 4750 2034 4750 
Q 2731 4750 3128 4425 
Q 3525 4100 3525 3541 
Q 3525 3141 3298 2862 
Q 3072 2584 2669 2484 
Q 3125 2378 3379 2068 
Q 3634 1759 3634 1313 
Q 3634 634 3220 271 
Q 2806 -91 2034 -91 
Q 1263 -91 848 271 
Q 434 634 434 1313 
Q 434 1759 690 2068 
Q 947 2378 1403 2484 
z
M 1172 3481 
Q 1172 3119 1398 2916 
Q 1625 2713 2034 2713 
Q 2441 2713 2670 2916 
Q 2900 3119 2900 3481 
Q 2900 3844 2670 4047 
Q 2441 4250 2034 4250 
Q 1625 4250 1398 4047 
Q 1172 3844 1172 3481 
z
" transform="scale(0.015625)"/>
       </defs>
       <use xlink:href="#DejaVuSans-38"/>
       <use xlink:href="#DejaVuSans-30" x="63.623047"/>
       <use xlink:href="#DejaVuSans-30" x="127.246094"/>
      </g>
     </g>
    </g>
    <g id="xtick_6">
     <g id="line2d_6">
      <g>
       <use xlink:href="#m9df1620165" x="391.188099" y="307.584" style="stroke: #000000; stroke-width: 0.8"/>
      </g>
     </g>
     <g id="text_6">
      <!-- 1000 -->
      <g transform="translate(378.463099 322.182437) scale(0.1 -0.1)">
       <defs>
        <path id="DejaVuSans-31" d="M 794 531 
L 1825 531 
L 1825 4091 
L 703 3866 
L 703 4441 
L 1819 4666 
L 2450 4666 
L 2450 531 
L 3481 531 
L 3481 0 
L 794 0 
L 794 531 
z
" transform="scale(0.015625)"/>
       </defs>
       <use xlink:href="#DejaVuSans-31"/>
       <use xlink:href="#DejaVuSans-30" x="63.623047"/>
       <use xlink:href="#DejaVuSans-30" x="127.246094"/>
       <use xlink:href="#DejaVuSans-30" x="190.869141"/>
      </g>
     </g>
    </g>
    <g id="text_7">
     <!-- n -->
     <g transform="translate(232.99125 335.860562) scale(0.1 -0.1)">
      <defs>
       <path id="DejaVuSans-6e" d="M 3513 2113 
L 3513 0 
L 2938 0 
L 2938 2094 
Q 2938 2591 2744 2837 
Q 2550 3084 2163 3084 
Q 1697 3084 1428 2787 
Q 1159 2491 1159 1978 
L 1159 0 
L 581 0 
L 581 3500 
L 1159 3500 
L 1159 2956 
Q 1366 3272 1645 3428 
Q 1925 3584 2291 3584 
Q 2894 3584 3203 3211 
Q 3513 2838 3513 2113 
z
" transform="scale(0.015625)"/>
      </defs>
      <use xlink:href="#DejaVuSans-6e"/>
     </g>
    </g>
   </g>
   <g id="matplotlib.axis_2">
    <g id="ytick_1">
     <g id="line2d_7">
      <defs>
       <path id="m3eb08e0cac" d="M 0 0 
L -3.5 0 
" style="stroke: #000000; stroke-width: 0.8"/>
      </defs>
      <g>
       <use xlink:href="#m3eb08e0cac" x="57.6" y="287.054305" style="stroke: #000000; stroke-width: 0.8"/>
      </g>
     </g>
     <g id="text_8">
      <!-- −6 -->
      <g transform="translate(35.857813 290.853524) scale(0.1 -0.1)">
       <defs>
        <path id="DejaVuSans-2212" d="M 678 2272 
L 4684 2272 
L 4684 1741 
L 678 1741 
L 678 2272 
z
" transform="scale(0.015625)"/>
       </defs>
       <use xlink:href="#DejaVuSans-2212"/>
       <use xlink:href="#DejaVuSans-36" x="83.789062"/>
      </g>
     </g>
    </g>
    <g id="ytick_2">
     <g id="line2d_8">
      <g>
       <use xlink:href="#m3eb08e0cac" x="57.6" y="256.410626" style="stroke: #000000; stroke-width: 0.8"/>
      </g>
     </g>
     <g id="text_9">
      <!-- −4 -->
      <g transform="translate(35.857813 260.209844) scale(0.1 -0.1)">
       <use xlink:href="#DejaVuSans-2212"/>
       <use xlink:href="#DejaVuSans-34" x="83.789062"/>
      </g>
     </g>
    </g>
    <g id="ytick_3">
     <g id="line2d_9">
      <g>
       <use xlink:href="#m3eb08e0cac" x="57.6" y="225.766946" style="stroke: #000000; stroke-width: 0.8"/>
      </g>
     </g>
     <g id="text_10">
      <!-- −2 -->
      <g transform="translate(35.857813 229.566165) scale(0.1 -0.1)">
       <use xlink:href="#DejaVuSans-2212"/>
       <use xlink:href="#DejaVuSans-32" x="83.789062"/>
      </g>
     </g>
    </g>
    <g id="ytick_4">
     <g id="line2d_10">
      <g>
       <use xlink:href="#m3eb08e0cac" x="57.6" y="195.123267" style="stroke: #000000; stroke-width: 0.8"/>
      </g>
     </g>
     <g id="text_11">
      <!-- 0 -->
      <g transform="translate(44.2375 198.922486) scale(0.1 -0.1)">
       <use xlink:href="#DejaVuSans-30"/>
      </g>
     </g>
    </g>
    <g id="ytick_5">
     <g id="line2d_11">
      <g>
       <use xlink:href="#m3eb08e0cac" x="57.6" y="164.479588" style="stroke: #000000; stroke-width: 0.8"/>
      </g>
     </g>
     <g id="text_12">
      <!-- 2 -->
      <g transform="translate(44.2375 168.278807) scale(0.1 -0.1)">
       <use xlink:href="#DejaVuSans-32"/>
      </g>
     </g>
    </g>
    <g id="ytick_6">
     <g id="line2d_12">
      <g>
       <use xlink:href="#m3eb08e0cac" x="57.6" y="133.835909" style="stroke: #000000; stroke-width: 0.8"/>
      </g>
     </g>
     <g id="text_13">
      <!-- 4 -->
      <g transform="translate(44.2375 137.635128) scale(0.1 -0.1)">
       <use xlink:href="#DejaVuSans-34"/>
      </g>
     </g>
    </g>
    <g id="ytick_7">
     <g id="line2d_13">
      <g>
       <use xlink:href="#m3eb08e0cac" x="57.6" y="103.19223" style="stroke: #000000; stroke-width: 0.8"/>
      </g>
     </g>
     <g id="text_14">
      <!-- 6 -->
      <g transform="translate(44.2375 106.991448) scale(0.1 -0.1)">
       <use xlink:href="#DejaVuSans-36"/>
      </g>
     </g>
    </g>
    <g id="ytick_8">
     <g id="line2d_14">
      <g>
       <use xlink:href="#m3eb08e0cac" x="57.6" y="72.54855" style="stroke: #000000; stroke-width: 0.8"/>
      </g>
     </g>
     <g id="text_15">
      <!-- 8 -->
      <g transform="translate(44.2375 76.347769) scale(0.1 -0.1)">
       <use xlink:href="#DejaVuSans-38"/>
      </g>
     </g>
    </g>
    <g id="ytick_9">
     <g id="line2d_15">
      <g>
       <use xlink:href="#m3eb08e0cac" x="57.6" y="41.904871" style="stroke: #000000; stroke-width: 0.8"/>
      </g>
     </g>
     <g id="text_16">
      <!-- 10 -->
      <g transform="translate(37.875 45.70409) scale(0.1 -0.1)">
       <use xlink:href="#DejaVuSans-31"/>
       <use xlink:href="#DejaVuSans-30" x="63.623047"/>
      </g>
     </g>
    </g>
    <g id="text_17">
     <!-- E*t -->
     <g transform="translate(29.778125 182.147531) rotate(-90) scale(0.1 -0.1)">
      <defs>
       <path id="DejaVuSans-45" d="M 628 4666 
L 3578 4666 
L 3578 4134 
L 1259 4134 
L 1259 2753 
L 3481 2753 
L 3481 2222 
L 1259 2222 
L 1259 531 
L 3634 531 
L 3634 0 
L 628 0 
L 628 4666 
z
" transform="scale(0.015625)"/>
       <path id="DejaVuSans-2a" d="M 3009 3897 
L 1888 3291 
L 3009 2681 
L 2828 2375 
L 1778 3009 
L 1778 1831 
L 1422 1831 
L 1422 3009 
L 372 2375 
L 191 2681 
L 1313 3291 
L 191 3897 
L 372 4206 
L 1422 3572 
L 1422 4750 
L 1778 4750 
L 1778 3572 
L 2828 4206 
L 3009 3897 
z
" transform="scale(0.015625)"/>
       <path id="DejaVuSans-74" d="M 1172 4494 
L 1172 3500 
L 2356 3500 
L 2356 3053 
L 1172 3053 
L 1172 1153 
Q 1172 725 1289 603 
Q 1406 481 1766 481 
L 2356 481 
L 2356 0 
L 1766 0 
Q 1100 0 847 248 
Q 594 497 594 1153 
L 594 3053 
L 172 3053 
L 172 3500 
L 594 3500 
L 594 4494 
L 1172 4494 
z
" transform="scale(0.015625)"/>
      </defs>
      <use xlink:href="#DejaVuSans-45"/>
      <use xlink:href="#DejaVuSans-2a" x="63.183594"/>
      <use xlink:href="#DejaVuSans-74" x="113.183594"/>
     </g>
    </g>
   </g>
   <g id="line2d_16">
    <path d="M 73.832727 295.488 
L 74.150083 286.028981 
L 74.784793 277.211378 
L 75.102149 277.068255 
L 75.419504 274.773884 
L 76.054215 268.331309 
L 76.37157 267.589666 
L 76.688926 266.517904 
L 77.006281 264.112379 
L 77.323636 263.180677 
L 78.275702 258.903068 
L 78.593058 258.812505 
L 78.910413 257.34258 
L 79.227769 256.40635 
L 80.179835 252.902596 
L 80.814545 252.778016 
L 81.766612 250.871341 
L 82.083967 250.657854 
L 82.401322 249.851845 
L 82.718678 249.545643 
L 83.353388 248.171523 
L 83.670744 248.040272 
L 83.988099 247.695248 
L 84.62281 245.574831 
L 85.257521 244.723921 
L 85.574876 243.880055 
L 85.892231 243.774944 
L 86.209587 243.423729 
L 86.844298 241.902284 
L 87.161653 241.620878 
L 87.796364 240.669072 
L 88.431074 240.106203 
L 89.38314 239.14572 
L 89.700496 238.970567 
L 90.017851 238.545521 
L 90.652562 237.246645 
L 91.604628 236.212708 
L 91.921983 235.715553 
L 92.556694 235.457771 
L 92.87405 234.971075 
L 93.50876 234.525699 
L 94.460826 234.146748 
L 94.778182 233.833979 
L 95.095537 233.051844 
L 95.412893 232.742112 
L 96.047603 232.48655 
L 96.682314 231.967379 
L 96.999669 231.036189 
L 97.63438 230.772681 
L 98.586446 230.112498 
L 98.903802 229.892511 
L 100.173223 228.192647 
L 100.807934 227.810472 
L 101.442645 227.417282 
L 101.76 226.982927 
L 103.981488 225.451119 
L 104.298843 225.323849 
L 104.616198 224.948411 
L 104.933554 224.823488 
L 106.520331 223.610793 
L 109.376529 221.798997 
L 110.328595 221.135863 
L 110.963306 220.938928 
L 111.280661 220.581507 
L 111.915372 220.376697 
L 112.232727 220.063517 
L 112.550083 219.980553 
L 112.867438 219.664239 
L 113.184793 219.571156 
L 113.819504 218.753009 
L 114.454215 218.402761 
L 115.088926 217.735671 
L 115.723636 217.150794 
L 117.310413 216.38835 
L 117.627769 216.109925 
L 118.579835 215.773407 
L 119.214545 215.35553 
L 121.118678 214.299293 
L 122.705455 213.410322 
L 123.02281 213.343133 
L 123.340165 213.053094 
L 123.657521 213.011531 
L 123.974876 212.731429 
L 124.292231 212.668954 
L 124.926942 212.283869 
L 125.244298 212.193084 
L 125.879008 211.831051 
L 130.004628 209.814473 
L 130.321983 209.491451 
L 132.860826 208.539296 
L 133.178182 208.472665 
L 134.130248 207.981556 
L 134.764959 207.675867 
L 135.082314 207.401645 
L 135.399669 207.337126 
L 135.717025 207.113094 
L 136.03438 207.032992 
L 136.669091 206.752112 
L 137.621157 206.348238 
L 139.207934 205.590366 
L 139.842645 205.294378 
L 141.429421 204.492018 
L 141.746777 204.450344 
L 142.381488 204.150587 
L 142.698843 204.033726 
L 143.333554 203.658083 
L 144.28562 203.125068 
L 148.728595 201.340933 
L 152.219504 200.160386 
L 153.488926 199.507975 
L 154.123636 199.292882 
L 154.758347 198.840421 
L 157.614545 197.799544 
L 158.249256 197.597158 
L 158.883967 197.392412 
L 160.153388 196.902546 
L 161.105455 196.594499 
L 161.740165 196.414083 
L 163.961653 195.691579 
L 164.279008 195.524927 
L 164.913719 195.397562 
L 165.54843 194.903833 
L 167.452562 194.104358 
L 169.039339 193.664946 
L 170.30876 193.14434 
L 171.578182 192.540507 
L 175.703802 190.873711 
L 176.655868 190.456989 
L 178.56 189.734944 
L 179.194711 189.533049 
L 179.829421 189.324437 
L 180.146777 189.234743 
L 180.781488 188.928057 
L 182.368264 188.483274 
L 182.68562 188.265578 
L 183.955041 187.853699 
L 184.589752 187.569559 
L 186.81124 186.821327 
L 189.350083 186.010303 
L 190.619504 185.543477 
L 193.158347 184.819378 
L 194.427769 184.297997 
L 195.379835 184.046558 
L 202.361653 181.46843 
L 204.900496 180.66646 
L 205.535207 180.551759 
L 209.026116 179.237002 
L 211.247603 178.600247 
L 212.199669 178.245087 
L 212.83438 177.927768 
L 213.469091 177.781102 
L 214.103802 177.520469 
L 215.373223 177.193753 
L 217.277355 176.528759 
L 218.546777 176.181865 
L 219.816198 175.579863 
L 222.672397 174.447397 
L 225.528595 173.602043 
L 226.163306 173.5202 
L 226.480661 173.263068 
L 228.384793 172.774415 
L 230.923636 171.958127 
L 231.875702 171.766421 
L 232.827769 171.532084 
L 233.462479 171.282131 
L 234.09719 171.102041 
L 234.731901 170.930995 
L 235.049256 170.669557 
L 236.953388 170.09125 
L 241.396364 168.447988 
L 243.617851 167.905845 
L 244.252562 167.651869 
L 245.521983 167.198151 
L 247.10876 166.657347 
L 248.060826 166.408023 
L 248.378182 166.181363 
L 249.330248 165.963765 
L 250.282314 165.591985 
L 251.869091 165.148133 
L 253.455868 164.389808 
L 254.407934 164.145647 
L 255.36 163.778986 
L 256.629421 163.390833 
L 257.264132 163.236977 
L 259.168264 162.621074 
L 261.707107 161.727626 
L 262.976529 161.460038 
L 264.563306 160.75299 
L 264.880661 160.657989 
L 265.515372 160.196621 
L 266.150083 160.067543 
L 266.784793 159.841854 
L 268.37157 159.266855 
L 268.688926 159.061191 
L 269.640992 158.778866 
L 270.275702 158.532499 
L 271.227769 158.297594 
L 272.814545 157.746221 
L 274.083967 157.488129 
L 275.036033 157.119431 
L 276.305455 156.73192 
L 276.62281 156.702661 
L 276.940165 156.541134 
L 277.574876 156.445691 
L 278.526942 155.925261 
L 279.161653 155.757516 
L 281.38314 154.772009 
L 281.700496 154.736927 
L 282.335207 154.360266 
L 282.969917 154.203033 
L 283.287273 154.096453 
L 283.604628 153.826397 
L 284.87405 153.430584 
L 292.490579 150.775099 
L 292.807934 150.542057 
L 294.394711 150.043272 
L 295.664132 149.523813 
L 296.616198 149.300324 
L 297.568264 148.918308 
L 298.202975 148.753007 
L 299.155041 148.231742 
L 302.64595 146.842647 
L 303.280661 146.660098 
L 304.867438 145.882799 
L 307.088926 144.951378 
L 308.358347 144.572433 
L 308.993058 144.249784 
L 309.945124 143.868902 
L 310.579835 143.713069 
L 311.214545 143.459639 
L 312.801322 142.913586 
L 313.753388 142.447935 
L 314.705455 142.2097 
L 315.02281 142.021828 
L 315.657521 141.921925 
L 317.879008 140.896166 
L 318.831074 140.458866 
L 321.052562 139.729276 
L 321.369917 139.464755 
L 322.321983 139.027567 
L 322.639339 138.878297 
L 322.956694 138.600385 
L 323.90876 138.339649 
L 324.860826 137.803255 
L 325.178182 137.735797 
L 325.495537 137.48109 
L 326.764959 137.02557 
L 327.399669 136.402134 
L 328.03438 136.315824 
L 328.669091 135.959087 
L 328.986446 135.743031 
L 329.303802 135.716848 
L 330.573223 135.009207 
L 331.842645 134.539405 
L 332.477355 134.143761 
L 333.429421 133.658282 
L 333.746777 133.625394 
L 334.698843 133.083608 
L 335.650909 132.853188 
L 336.920331 132.319167 
L 337.237686 132.004497 
L 337.872397 131.77558 
L 338.507107 131.511744 
L 338.824463 131.13636 
L 339.459174 130.837203 
L 340.093884 130.674296 
L 340.41124 130.386686 
L 341.363306 130.014415 
L 341.680661 129.813054 
L 341.998017 129.775557 
L 342.315372 129.487816 
L 343.267438 129.088937 
L 343.902149 128.829842 
L 344.219504 128.72905 
L 345.488926 127.853839 
L 346.123636 127.645559 
L 346.440992 127.278345 
L 346.758347 127.148609 
L 347.075702 126.826522 
L 347.710413 126.708324 
L 348.662479 126.117097 
L 350.566612 125.036615 
L 351.201322 124.539152 
L 351.836033 124.365313 
L 352.470744 124.011173 
L 352.788099 123.926167 
L 353.42281 123.456669 
L 354.057521 123.220325 
L 354.692231 122.775886 
L 355.326942 122.631116 
L 355.961653 122.067263 
L 356.279008 121.770297 
L 357.231074 121.314087 
L 358.18314 120.583304 
L 359.452562 119.932284 
L 360.087273 119.320004 
L 361.039339 118.785301 
L 361.356694 118.664285 
L 361.991405 118.252239 
L 362.626116 118.036184 
L 363.895537 116.819413 
L 364.530248 116.484214 
L 364.847603 116.149324 
L 365.482314 115.927435 
L 365.799669 115.672114 
L 366.117025 115.215705 
L 367.069091 114.749676 
L 367.386446 114.697591 
L 368.021157 114.202278 
L 368.338512 114.069667 
L 368.655868 113.716507 
L 369.290579 113.301834 
L 370.242645 112.432863 
L 370.56 112.216388 
L 370.877355 111.831434 
L 372.464132 110.896991 
L 372.781488 110.353545 
L 373.098843 110.159318 
L 373.416198 109.801578 
L 373.733554 109.670314 
L 375.320331 108.310493 
L 375.637686 107.687655 
L 377.224463 106.189816 
L 377.541818 106.034455 
L 378.493884 105.006072 
L 379.128595 104.696004 
L 380.398017 103.007452 
L 380.715372 102.937643 
L 381.032727 102.72918 
L 381.350083 102.340736 
L 381.667438 102.193131 
L 383.57157 99.985565 
L 383.888926 99.801677 
L 384.523636 98.822057 
L 385.475702 97.53766 
L 386.110413 96.806434 
L 386.745124 95.890175 
L 387.062479 95.34551 
L 387.379835 95.17187 
L 387.69719 94.782625 
L 388.331901 93.409074 
L 388.649256 93.111857 
L 389.601322 91.426246 
L 389.918678 90.5568 
L 390.236033 90.386901 
L 390.553388 89.560986 
L 390.870744 89.233367 
L 391.505455 87.461933 
L 391.82281 86.907681 
L 392.140165 86.113142 
L 393.409587 84.323246 
L 394.044298 81.640587 
L 394.361653 81.326437 
L 394.996364 79.084924 
L 395.313719 78.580108 
L 395.94843 76.725249 
L 396.265785 75.865601 
L 396.58314 75.538008 
L 397.217851 70.876063 
L 397.535207 67.917902 
L 397.852562 66.211561 
L 398.169917 63.150585 
L 398.487273 53.568 
L 398.487273 53.568 
" clip-path="url(#pc676e765bc)" style="fill: none; stroke: #1f77b4; stroke-width: 1.5; stroke-linecap: square"/>
   </g>
   <g id="line2d_17">
    <path d="M 73.832727 273.454719 
L 74.150083 264.314282 
L 74.467438 264.314282 
L 74.784793 256.50107 
L 75.102149 254.878155 
L 75.73686 254.878155 
L 76.054215 251.954765 
L 76.37157 247.01968 
L 76.688926 246.716898 
L 77.006281 246.716898 
L 77.323636 245.953279 
L 78.910413 245.953279 
L 79.227769 243.169107 
L 79.545124 243.169107 
L 79.862479 242.161246 
L 80.179835 241.538575 
L 80.49719 241.538575 
L 80.814545 238.459884 
L 81.131901 237.010719 
L 82.083967 236.985802 
L 82.401322 236.128122 
L 86.844298 236.079425 
L 87.161653 235.609804 
L 87.479008 233.378901 
L 87.796364 232.88573 
L 88.113719 232.113415 
L 89.700496 232.113415 
L 90.017851 231.126625 
L 90.652562 231.126625 
L 90.969917 229.980322 
L 91.287273 229.980322 
L 91.604628 229.383188 
L 91.921983 227.847267 
L 99.221157 227.847267 
L 99.538512 226.932065 
L 99.855868 226.932065 
L 100.173223 226.71558 
L 101.76 226.71558 
L 102.077355 225.766946 
L 103.664132 225.766946 
L 103.981488 225.55297 
L 104.298843 225.183085 
L 104.933554 225.183085 
L 105.250909 223.882162 
L 106.202975 223.816599 
L 106.520331 220.88063 
L 107.155041 220.590536 
L 107.472397 220.590536 
L 107.789752 219.914467 
L 109.376529 219.914467 
L 109.693884 218.430719 
L 110.01124 218.430719 
L 110.328595 216.791643 
L 129.369917 216.791575 
L 129.687273 215.860145 
L 130.321983 214.984125 
L 131.27405 214.928274 
L 131.591405 214.16632 
L 131.90876 214.16632 
L 132.226116 213.99224 
L 132.860826 213.99224 
L 133.178182 212.525428 
L 133.495537 212.525428 
L 133.812893 212.218279 
L 135.399669 212.218279 
L 135.717025 210.96741 
L 136.669091 210.445107 
L 163.009587 210.445107 
L 163.326942 209.146865 
L 167.135207 209.146865 
L 167.452562 208.909605 
L 167.769917 208.909605 
L 168.087273 207.302863 
L 168.404628 207.302863 
L 168.721983 206.873994 
L 169.356694 206.873994 
L 169.67405 206.597238 
L 169.991405 205.934358 
L 171.578182 205.934358 
L 172.212893 205.46698 
L 172.530248 205.46698 
L 172.847603 205.268697 
L 180.146777 205.268697 
L 180.464132 204.9274 
L 180.781488 204.9274 
L 181.098843 204.592628 
L 182.68562 204.592628 
L 183.320331 201.469736 
L 185.541818 201.441956 
L 185.859174 201.260516 
L 186.493884 201.260516 
L 186.81124 200.986455 
L 187.128595 200.299677 
L 187.44595 200.299677 
L 187.763306 199.83453 
L 188.080661 199.83453 
L 188.398017 197.892662 
L 188.715372 195.123267 
L 283.604628 195.123267 
L 284.239339 190.412004 
L 284.556694 190.412004 
L 284.87405 189.946857 
L 285.191405 189.946857 
L 285.50876 189.260079 
L 285.826116 188.986018 
L 286.460826 188.986018 
L 286.778182 188.804578 
L 288.999669 188.776799 
L 289.63438 185.653907 
L 291.221157 185.653907 
L 291.538512 185.319134 
L 291.855868 185.319134 
L 292.173223 184.977838 
L 299.472397 184.977838 
L 299.789752 184.779554 
L 300.107107 184.779554 
L 300.741818 184.312177 
L 302.328595 184.312177 
L 302.64595 183.649297 
L 302.963306 183.37254 
L 303.598017 183.37254 
L 303.915372 182.943671 
L 304.232727 182.943671 
L 304.550083 181.336929 
L 304.867438 181.336929 
L 305.184793 181.099669 
L 308.993058 181.099669 
L 309.310413 179.801428 
L 335.968264 179.73022 
L 336.602975 179.279125 
L 336.920331 178.028256 
L 338.507107 178.028256 
L 338.824463 177.721107 
L 339.141818 177.721107 
L 339.459174 176.254295 
L 340.093884 176.254295 
L 340.41124 176.080214 
L 340.728595 176.080214 
L 341.04595 175.318261 
L 341.998017 175.262409 
L 342.315372 174.923348 
L 342.632727 174.38639 
L 342.950083 173.454959 
L 361.991405 173.454891 
L 362.30876 171.815815 
L 362.626116 171.815815 
L 362.943471 170.332067 
L 364.530248 170.332067 
L 364.847603 169.655998 
L 365.164959 169.655998 
L 365.799669 169.365904 
L 366.117025 166.429936 
L 367.069091 166.364372 
L 367.386446 165.06345 
L 368.021157 165.06345 
L 368.655868 164.479588 
L 370.242645 164.479588 
L 370.56 163.530955 
L 372.146777 163.530955 
L 372.464132 163.31447 
L 372.781488 163.31447 
L 373.098843 162.399267 
L 380.398017 162.399267 
L 380.715372 160.863346 
L 381.032727 160.266212 
L 381.350083 160.266212 
L 381.667438 159.119909 
L 382.302149 159.119909 
L 382.619504 158.133119 
L 384.206281 158.133119 
L 384.840992 156.867634 
L 385.158347 154.63673 
L 385.475702 154.167109 
L 389.918678 154.118413 
L 390.236033 153.260733 
L 391.188099 153.235815 
L 391.505455 151.786651 
L 391.82281 148.70796 
L 392.140165 148.70796 
L 392.457521 148.085288 
L 392.774876 147.077427 
L 393.092231 147.077427 
L 393.409587 144.293255 
L 394.996364 144.293255 
L 395.313719 143.529636 
L 395.631074 143.529636 
L 395.94843 143.226855 
L 396.265785 138.291769 
L 396.58314 135.36838 
L 397.217851 135.36838 
L 397.535207 133.745465 
L 397.852562 125.932253 
L 398.169917 125.932253 
L 398.487273 116.791815 
L 398.487273 116.791815 
" clip-path="url(#pc676e765bc)" style="fill: none; stroke: #ff7f0e; stroke-width: 1.5; stroke-linecap: square"/>
   </g>
   <g id="patch_3">
    <path d="M 57.6 307.584 
L 57.6 41.472 
" style="fill: none; stroke: #000000; stroke-width: 0.8; stroke-linejoin: miter; stroke-linecap: square"/>
   </g>
   <g id="patch_4">
    <path d="M 414.72 307.584 
L 414.72 41.472 
" style="fill: none; stroke: #000000; stroke-width: 0.8; stroke-linejoin: miter; stroke-linecap: square"/>
   </g>
   <g id="patch_5">
    <path d="M 57.6 307.584 
L 414.72 307.584 
" style="fill: none; stroke: #000000; stroke-width: 0.8; stroke-linejoin: miter; stroke-linecap: square"/>
   </g>
   <g id="patch_6">
    <path d="M 57.6 41.472 
L 414.72 41.472 
" style="fill: none; stroke: #000000; stroke-width: 0.8; stroke-linejoin: miter; stroke-linecap: square"/>
   </g>
   <g id="legend_1">
    <g id="patch_7">
     <path d="M 64.6 78.82825 
L 129.342187 78.82825 
Q 131.342187 78.82825 131.342187 76.82825 
L 131.342187 48.472 
Q 131.342187 46.472 129.342187 46.472 
L 64.6 46.472 
Q 62.6 46.472 62.6 48.472 
L 62.6 76.82825 
Q 62.6 78.82825 64.6 78.82825 
z
" style="fill: #ffffff; opacity: 0.8; stroke: #cccccc; stroke-linejoin: miter"/>
    </g>
    <g id="line2d_18">
     <path d="M 66.6 54.570437 
L 76.6 54.570437 
L 86.6 54.570437 
" style="fill: none; stroke: #1f77b4; stroke-width: 1.5; stroke-linecap: square"/>
    </g>
    <g id="text_18">
     <!-- qc -->
     <g transform="translate(94.6 58.070437) scale(0.1 -0.1)">
      <defs>
       <path id="DejaVuSans-71" d="M 947 1747 
Q 947 1113 1208 752 
Q 1469 391 1925 391 
Q 2381 391 2643 752 
Q 2906 1113 2906 1747 
Q 2906 2381 2643 2742 
Q 2381 3103 1925 3103 
Q 1469 3103 1208 2742 
Q 947 2381 947 1747 
z
M 2906 525 
Q 2725 213 2448 61 
Q 2172 -91 1784 -91 
Q 1150 -91 751 415 
Q 353 922 353 1747 
Q 353 2572 751 3078 
Q 1150 3584 1784 3584 
Q 2172 3584 2448 3432 
Q 2725 3281 2906 2969 
L 2906 3500 
L 3481 3500 
L 3481 -1331 
L 2906 -1331 
L 2906 525 
z
" transform="scale(0.015625)"/>
       <path id="DejaVuSans-63" d="M 3122 3366 
L 3122 2828 
Q 2878 2963 2633 3030 
Q 2388 3097 2138 3097 
Q 1578 3097 1268 2742 
Q 959 2388 959 1747 
Q 959 1106 1268 751 
Q 1578 397 2138 397 
Q 2388 397 2633 464 
Q 2878 531 3122 666 
L 3122 134 
Q 2881 22 2623 -34 
Q 2366 -91 2075 -91 
Q 1284 -91 818 406 
Q 353 903 353 1747 
Q 353 2603 823 3093 
Q 1294 3584 2113 3584 
Q 2378 3584 2631 3529 
Q 2884 3475 3122 3366 
z
" transform="scale(0.015625)"/>
      </defs>
      <use xlink:href="#DejaVuSans-71"/>
      <use xlink:href="#DejaVuSans-63" x="63.476562"/>
     </g>
    </g>
    <g id="line2d_19">
     <path d="M 66.6 69.248562 
L 76.6 69.248562 
L 86.6 69.248562 
" style="fill: none; stroke: #ff7f0e; stroke-width: 1.5; stroke-linecap: square"/>
    </g>
    <g id="text_19">
     <!-- Trotter -->
     <g transform="translate(94.6 72.748562) scale(0.1 -0.1)">
      <defs>
       <path id="DejaVuSans-54" d="M -19 4666 
L 3928 4666 
L 3928 4134 
L 2272 4134 
L 2272 0 
L 1638 0 
L 1638 4134 
L -19 4134 
L -19 4666 
z
" transform="scale(0.015625)"/>
       <path id="DejaVuSans-72" d="M 2631 2963 
Q 2534 3019 2420 3045 
Q 2306 3072 2169 3072 
Q 1681 3072 1420 2755 
Q 1159 2438 1159 1844 
L 1159 0 
L 581 0 
L 581 3500 
L 1159 3500 
L 1159 2956 
Q 1341 3275 1631 3429 
Q 1922 3584 2338 3584 
Q 2397 3584 2469 3576 
Q 2541 3569 2628 3553 
L 2631 2963 
z
" transform="scale(0.015625)"/>
       <path id="DejaVuSans-6f" d="M 1959 3097 
Q 1497 3097 1228 2736 
Q 959 2375 959 1747 
Q 959 1119 1226 758 
Q 1494 397 1959 397 
Q 2419 397 2687 759 
Q 2956 1122 2956 1747 
Q 2956 2369 2687 2733 
Q 2419 3097 1959 3097 
z
M 1959 3584 
Q 2709 3584 3137 3096 
Q 3566 2609 3566 1747 
Q 3566 888 3137 398 
Q 2709 -91 1959 -91 
Q 1206 -91 779 398 
Q 353 888 353 1747 
Q 353 2609 779 3096 
Q 1206 3584 1959 3584 
z
" transform="scale(0.015625)"/>
       <path id="DejaVuSans-65" d="M 3597 1894 
L 3597 1613 
L 953 1613 
Q 991 1019 1311 708 
Q 1631 397 2203 397 
Q 2534 397 2845 478 
Q 3156 559 3463 722 
L 3463 178 
Q 3153 47 2828 -22 
Q 2503 -91 2169 -91 
Q 1331 -91 842 396 
Q 353 884 353 1716 
Q 353 2575 817 3079 
Q 1281 3584 2069 3584 
Q 2775 3584 3186 3129 
Q 3597 2675 3597 1894 
z
M 3022 2063 
Q 3016 2534 2758 2815 
Q 2500 3097 2075 3097 
Q 1594 3097 1305 2825 
Q 1016 2553 972 2059 
L 3022 2063 
z
" transform="scale(0.015625)"/>
      </defs>
      <use xlink:href="#DejaVuSans-54"/>
      <use xlink:href="#DejaVuSans-72" x="46.333984"/>
      <use xlink:href="#DejaVuSans-6f" x="85.197266"/>
      <use xlink:href="#DejaVuSans-74" x="146.378906"/>
      <use xlink:href="#DejaVuSans-74" x="185.587891"/>
      <use xlink:href="#DejaVuSans-65" x="224.796875"/>
      <use xlink:href="#DejaVuSans-72" x="286.320312"/>
     </g>
    </g>
   </g>
  </g>
 </g>
 <defs>
  <clipPath id="pc676e765bc">
   <rect x="57.6" y="41.472" width="357.12" height="266.112"/>
  </clipPath>
 </defs>
</svg>
