<?xml version="1.0" encoding="utf-8" standalone="no"?>
<!DOCTYPE svg PUBLIC "-//W3C//DTD SVG 1.1//EN"
  "http://www.w3.org/Graphics/SVG/1.1/DTD/svg11.dtd">
<svg xmlns:xlink="http://www.w3.org/1999/xlink" width="460.8pt" height="345.6pt" viewBox="0 0 460.8 345.6" xmlns="http://www.w3.org/2000/svg" version="1.1">
 <metadata>
  <rdf:RDF xmlns:dc="http://purl.org/dc/elements/1.1/" xmlns:cc="http://creativecommons.org/ns#" xmlns:rdf="http://www.w3.org/1999/02/22-rdf-syntax-ns#">
   <cc:Work>
    <dc:type rdf:resource="http://purl.org/dc/dcmitype/StillImage"/>
    <dc:date>2024-08-23T11:38:12.315370</dc:date>
    <dc:format>image/svg+xml</dc:format>
    <dc:creator>
     <cc:Agent>
      <dc:title>Matplotlib v3.7.1, https://matplotlib.org/</dc:title>
     </cc:Agent>
    </dc:creator>
   </cc:Work>
  </rdf:RDF>
 </metadata>
 <defs>
  <style type="text/css">*{stroke-linejoin: round; stroke-linecap: butt}</style>
 </defs>
 <g id="figure_1">
  <g id="patch_1">
   <path d="M 0 345.6 
L 460.8 345.6 
L 460.8 0 
L 0 0 
z
" style="fill: #ffffff"/>
  </g>
  <g id="axes_1">
   <g id="patch_2">
    <path d="M 57.6 307.584 
L 414.72 307.584 
L 414.72 41.472 
L 57.6 41.472 
z
" style="fill: #ffffff"/>
   </g>
   <g id="matplotlib.axis_1">
    <g id="xtick_1">
     <g id="line2d_1">
      <defs>
       <path id="m6ba3050c5f" d="M 0 0 
L 0 3.5 
" style="stroke: #000000; stroke-width: 0.8"/>
      </defs>
      <g>
       <use xlink:href="#m6ba3050c5f" x="73.832727" y="307.584" style="stroke: #000000; stroke-width: 0.8"/>
      </g>
     </g>
     <g id="text_1">
      <!-- 0 -->
      <g transform="translate(70.651477 322.182437) scale(0.1 -0.1)">
       <defs>
        <path id="DejaVuSans-30" d="M 2034 4250 
Q 1547 4250 1301 3770 
Q 1056 3291 1056 2328 
Q 1056 1369 1301 889 
Q 1547 409 2034 409 
Q 2525 409 2770 889 
Q 3016 1369 3016 2328 
Q 3016 3291 2770 3770 
Q 2525 4250 2034 4250 
z
M 2034 4750 
Q 2819 4750 3233 4129 
Q 3647 3509 3647 2328 
Q 3647 1150 3233 529 
Q 2819 -91 2034 -91 
Q 1250 -91 836 529 
Q 422 1150 422 2328 
Q 422 3509 836 4129 
Q 1250 4750 2034 4750 
z
" transform="scale(0.015625)"/>
       </defs>
       <use xlink:href="#DejaVuSans-30"/>
      </g>
     </g>
    </g>
    <g id="xtick_2">
     <g id="line2d_2">
      <g>
       <use xlink:href="#m6ba3050c5f" x="137.303802" y="307.584" style="stroke: #000000; stroke-width: 0.8"/>
      </g>
     </g>
     <g id="text_2">
      <!-- 200 -->
      <g transform="translate(127.760052 322.182437) scale(0.1 -0.1)">
       <defs>
        <path id="DejaVuSans-32" d="M 1228 531 
L 3431 531 
L 3431 0 
L 469 0 
L 469 531 
Q 828 903 1448 1529 
Q 2069 2156 2228 2338 
Q 2531 2678 2651 2914 
Q 2772 3150 2772 3378 
Q 2772 3750 2511 3984 
Q 2250 4219 1831 4219 
Q 1534 4219 1204 4116 
Q 875 4013 500 3803 
L 500 4441 
Q 881 4594 1212 4672 
Q 1544 4750 1819 4750 
Q 2544 4750 2975 4387 
Q 3406 4025 3406 3419 
Q 3406 3131 3298 2873 
Q 3191 2616 2906 2266 
Q 2828 2175 2409 1742 
Q 1991 1309 1228 531 
z
" transform="scale(0.015625)"/>
       </defs>
       <use xlink:href="#DejaVuSans-32"/>
       <use xlink:href="#DejaVuSans-30" x="63.623047"/>
       <use xlink:href="#DejaVuSans-30" x="127.246094"/>
      </g>
     </g>
    </g>
    <g id="xtick_3">
     <g id="line2d_3">
      <g>
       <use xlink:href="#m6ba3050c5f" x="200.774876" y="307.584" style="stroke: #000000; stroke-width: 0.8"/>
      </g>
     </g>
     <g id="text_3">
      <!-- 400 -->
      <g transform="translate(191.231126 322.182437) scale(0.1 -0.1)">
       <defs>
        <path id="DejaVuSans-34" d="M 2419 4116 
L 825 1625 
L 2419 1625 
L 2419 4116 
z
M 2253 4666 
L 3047 4666 
L 3047 1625 
L 3713 1625 
L 3713 1100 
L 3047 1100 
L 3047 0 
L 2419 0 
L 2419 1100 
L 313 1100 
L 313 1709 
L 2253 4666 
z
" transform="scale(0.015625)"/>
       </defs>
       <use xlink:href="#DejaVuSans-34"/>
       <use xlink:href="#DejaVuSans-30" x="63.623047"/>
       <use xlink:href="#DejaVuSans-30" x="127.246094"/>
      </g>
     </g>
    </g>
    <g id="xtick_4">
     <g id="line2d_4">
      <g>
       <use xlink:href="#m6ba3050c5f" x="264.24595" y="307.584" style="stroke: #000000; stroke-width: 0.8"/>
      </g>
     </g>
     <g id="text_4">
      <!-- 600 -->
      <g transform="translate(254.7022 322.182437) scale(0.1 -0.1)">
       <defs>
        <path id="DejaVuSans-36" d="M 2113 2584 
Q 1688 2584 1439 2293 
Q 1191 2003 1191 1497 
Q 1191 994 1439 701 
Q 1688 409 2113 409 
Q 2538 409 2786 701 
Q 3034 994 3034 1497 
Q 3034 2003 2786 2293 
Q 2538 2584 2113 2584 
z
M 3366 4563 
L 3366 3988 
Q 3128 4100 2886 4159 
Q 2644 4219 2406 4219 
Q 1781 4219 1451 3797 
Q 1122 3375 1075 2522 
Q 1259 2794 1537 2939 
Q 1816 3084 2150 3084 
Q 2853 3084 3261 2657 
Q 3669 2231 3669 1497 
Q 3669 778 3244 343 
Q 2819 -91 2113 -91 
Q 1303 -91 875 529 
Q 447 1150 447 2328 
Q 447 3434 972 4092 
Q 1497 4750 2381 4750 
Q 2619 4750 2861 4703 
Q 3103 4656 3366 4563 
z
" transform="scale(0.015625)"/>
       </defs>
       <use xlink:href="#DejaVuSans-36"/>
       <use xlink:href="#DejaVuSans-30" x="63.623047"/>
       <use xlink:href="#DejaVuSans-30" x="127.246094"/>
      </g>
     </g>
    </g>
    <g id="xtick_5">
     <g id="line2d_5">
      <g>
       <use xlink:href="#m6ba3050c5f" x="327.717025" y="307.584" style="stroke: #000000; stroke-width: 0.8"/>
      </g>
     </g>
     <g id="text_5">
      <!-- 800 -->
      <g transform="translate(318.173275 322.182437) scale(0.1 -0.1)">
       <defs>
        <path id="DejaVuSans-38" d="M 2034 2216 
Q 1584 2216 1326 1975 
Q 1069 1734 1069 1313 
Q 1069 891 1326 650 
Q 1584 409 2034 409 
Q 2484 409 2743 651 
Q 3003 894 3003 1313 
Q 3003 1734 2745 1975 
Q 2488 2216 2034 2216 
z
M 1403 2484 
Q 997 2584 770 2862 
Q 544 3141 544 3541 
Q 544 4100 942 4425 
Q 1341 4750 2034 4750 
Q 2731 4750 3128 4425 
Q 3525 4100 3525 3541 
Q 3525 3141 3298 2862 
Q 3072 2584 2669 2484 
Q 3125 2378 3379 2068 
Q 3634 1759 3634 1313 
Q 3634 634 3220 271 
Q 2806 -91 2034 -91 
Q 1263 -91 848 271 
Q 434 634 434 1313 
Q 434 1759 690 2068 
Q 947 2378 1403 2484 
z
M 1172 3481 
Q 1172 3119 1398 2916 
Q 1625 2713 2034 2713 
Q 2441 2713 2670 2916 
Q 2900 3119 2900 3481 
Q 2900 3844 2670 4047 
Q 2441 4250 2034 4250 
Q 1625 4250 1398 4047 
Q 1172 3844 1172 3481 
z
" transform="scale(0.015625)"/>
       </defs>
       <use xlink:href="#DejaVuSans-38"/>
       <use xlink:href="#DejaVuSans-30" x="63.623047"/>
       <use xlink:href="#DejaVuSans-30" x="127.246094"/>
      </g>
     </g>
    </g>
    <g id="xtick_6">
     <g id="line2d_6">
      <g>
       <use xlink:href="#m6ba3050c5f" x="391.188099" y="307.584" style="stroke: #000000; stroke-width: 0.8"/>
      </g>
     </g>
     <g id="text_6">
      <!-- 1000 -->
      <g transform="translate(378.463099 322.182437) scale(0.1 -0.1)">
       <defs>
        <path id="DejaVuSans-31" d="M 794 531 
L 1825 531 
L 1825 4091 
L 703 3866 
L 703 4441 
L 1819 4666 
L 2450 4666 
L 2450 531 
L 3481 531 
L 3481 0 
L 794 0 
L 794 531 
z
" transform="scale(0.015625)"/>
       </defs>
       <use xlink:href="#DejaVuSans-31"/>
       <use xlink:href="#DejaVuSans-30" x="63.623047"/>
       <use xlink:href="#DejaVuSans-30" x="127.246094"/>
       <use xlink:href="#DejaVuSans-30" x="190.869141"/>
      </g>
     </g>
    </g>
    <g id="text_7">
     <!-- n -->
     <g transform="translate(232.99125 335.860562) scale(0.1 -0.1)">
      <defs>
       <path id="DejaVuSans-6e" d="M 3513 2113 
L 3513 0 
L 2938 0 
L 2938 2094 
Q 2938 2591 2744 2837 
Q 2550 3084 2163 3084 
Q 1697 3084 1428 2787 
Q 1159 2491 1159 1978 
L 1159 0 
L 581 0 
L 581 3500 
L 1159 3500 
L 1159 2956 
Q 1366 3272 1645 3428 
Q 1925 3584 2291 3584 
Q 2894 3584 3203 3211 
Q 3513 2838 3513 2113 
z
" transform="scale(0.015625)"/>
      </defs>
      <use xlink:href="#DejaVuSans-6e"/>
     </g>
    </g>
   </g>
   <g id="matplotlib.axis_2">
    <g id="ytick_1">
     <g id="line2d_7">
      <defs>
       <path id="mee0f4d3857" d="M 0 0 
L -3.5 0 
" style="stroke: #000000; stroke-width: 0.8"/>
      </defs>
      <g>
       <use xlink:href="#mee0f4d3857" x="57.6" y="285.883336" style="stroke: #000000; stroke-width: 0.8"/>
      </g>
     </g>
     <g id="text_8">
      <!-- −6 -->
      <g transform="translate(35.857813 289.682555) scale(0.1 -0.1)">
       <defs>
        <path id="DejaVuSans-2212" d="M 678 2272 
L 4684 2272 
L 4684 1741 
L 678 1741 
L 678 2272 
z
" transform="scale(0.015625)"/>
       </defs>
       <use xlink:href="#DejaVuSans-2212"/>
       <use xlink:href="#DejaVuSans-36" x="83.789062"/>
      </g>
     </g>
    </g>
    <g id="ytick_2">
     <g id="line2d_8">
      <g>
       <use xlink:href="#mee0f4d3857" x="57.6" y="252.888732" style="stroke: #000000; stroke-width: 0.8"/>
      </g>
     </g>
     <g id="text_9">
      <!-- −4 -->
      <g transform="translate(35.857813 256.68795) scale(0.1 -0.1)">
       <use xlink:href="#DejaVuSans-2212"/>
       <use xlink:href="#DejaVuSans-34" x="83.789062"/>
      </g>
     </g>
    </g>
    <g id="ytick_3">
     <g id="line2d_9">
      <g>
       <use xlink:href="#mee0f4d3857" x="57.6" y="219.894127" style="stroke: #000000; stroke-width: 0.8"/>
      </g>
     </g>
     <g id="text_10">
      <!-- −2 -->
      <g transform="translate(35.857813 223.693346) scale(0.1 -0.1)">
       <use xlink:href="#DejaVuSans-2212"/>
       <use xlink:href="#DejaVuSans-32" x="83.789062"/>
      </g>
     </g>
    </g>
    <g id="ytick_4">
     <g id="line2d_10">
      <g>
       <use xlink:href="#mee0f4d3857" x="57.6" y="186.899522" style="stroke: #000000; stroke-width: 0.8"/>
      </g>
     </g>
     <g id="text_11">
      <!-- 0 -->
      <g transform="translate(44.2375 190.698741) scale(0.1 -0.1)">
       <use xlink:href="#DejaVuSans-30"/>
      </g>
     </g>
    </g>
    <g id="ytick_5">
     <g id="line2d_11">
      <g>
       <use xlink:href="#mee0f4d3857" x="57.6" y="153.904918" style="stroke: #000000; stroke-width: 0.8"/>
      </g>
     </g>
     <g id="text_12">
      <!-- 2 -->
      <g transform="translate(44.2375 157.704137) scale(0.1 -0.1)">
       <use xlink:href="#DejaVuSans-32"/>
      </g>
     </g>
    </g>
    <g id="ytick_6">
     <g id="line2d_12">
      <g>
       <use xlink:href="#mee0f4d3857" x="57.6" y="120.910313" style="stroke: #000000; stroke-width: 0.8"/>
      </g>
     </g>
     <g id="text_13">
      <!-- 4 -->
      <g transform="translate(44.2375 124.709532) scale(0.1 -0.1)">
       <use xlink:href="#DejaVuSans-34"/>
      </g>
     </g>
    </g>
    <g id="ytick_7">
     <g id="line2d_13">
      <g>
       <use xlink:href="#mee0f4d3857" x="57.6" y="87.915709" style="stroke: #000000; stroke-width: 0.8"/>
      </g>
     </g>
     <g id="text_14">
      <!-- 6 -->
      <g transform="translate(44.2375 91.714928) scale(0.1 -0.1)">
       <use xlink:href="#DejaVuSans-36"/>
      </g>
     </g>
    </g>
    <g id="ytick_8">
     <g id="line2d_14">
      <g>
       <use xlink:href="#mee0f4d3857" x="57.6" y="54.921104" style="stroke: #000000; stroke-width: 0.8"/>
      </g>
     </g>
     <g id="text_15">
      <!-- 8 -->
      <g transform="translate(44.2375 58.720323) scale(0.1 -0.1)">
       <use xlink:href="#DejaVuSans-38"/>
      </g>
     </g>
    </g>
    <g id="text_16">
     <!-- E*t -->
     <g transform="translate(29.778125 182.147531) rotate(-90) scale(0.1 -0.1)">
      <defs>
       <path id="DejaVuSans-45" d="M 628 4666 
L 3578 4666 
L 3578 4134 
L 1259 4134 
L 1259 2753 
L 3481 2753 
L 3481 2222 
L 1259 2222 
L 1259 531 
L 3634 531 
L 3634 0 
L 628 0 
L 628 4666 
z
" transform="scale(0.015625)"/>
       <path id="DejaVuSans-2a" d="M 3009 3897 
L 1888 3291 
L 3009 2681 
L 2828 2375 
L 1778 3009 
L 1778 1831 
L 1422 1831 
L 1422 3009 
L 372 2375 
L 191 2681 
L 1313 3291 
L 191 3897 
L 372 4206 
L 1422 3572 
L 1422 4750 
L 1778 4750 
L 1778 3572 
L 2828 4206 
L 3009 3897 
z
" transform="scale(0.015625)"/>
       <path id="DejaVuSans-74" d="M 1172 4494 
L 1172 3500 
L 2356 3500 
L 2356 3053 
L 1172 3053 
L 1172 1153 
Q 1172 725 1289 603 
Q 1406 481 1766 481 
L 2356 481 
L 2356 0 
L 1766 0 
Q 1100 0 847 248 
Q 594 497 594 1153 
L 594 3053 
L 172 3053 
L 172 3500 
L 594 3500 
L 594 4494 
L 1172 4494 
z
" transform="scale(0.015625)"/>
      </defs>
      <use xlink:href="#DejaVuSans-45"/>
      <use xlink:href="#DejaVuSans-2a" x="63.183594"/>
      <use xlink:href="#DejaVuSans-74" x="113.183594"/>
     </g>
    </g>
   </g>
   <g id="line2d_15">
    <path d="M 73.832727 295.488 
L 74.784793 291.015638 
L 75.102149 288.594495 
L 75.73686 287.27657 
L 76.054215 285.893677 
L 76.688926 284.197669 
L 77.006281 282.66227 
L 77.958347 280.682091 
L 78.275702 279.570045 
L 78.593058 279.375033 
L 79.862479 275.869786 
L 80.179835 274.231295 
L 80.49719 273.590769 
L 80.814545 273.219007 
L 81.131901 273.05849 
L 81.449256 272.304181 
L 82.083967 271.636301 
L 83.036033 270.175645 
L 83.670744 269.563159 
L 84.305455 268.622405 
L 84.940165 266.924619 
L 85.257521 266.630104 
L 85.574876 266.091332 
L 85.892231 265.902138 
L 86.209587 265.258246 
L 86.526942 265.035258 
L 87.479008 263.529488 
L 87.796364 263.419916 
L 89.065785 261.997943 
L 89.38314 261.287443 
L 90.017851 260.507727 
L 90.652562 259.729334 
L 90.969917 259.542876 
L 91.287273 259.148968 
L 91.921983 258.781505 
L 93.50876 257.086848 
L 93.826116 256.303944 
L 94.460826 255.825911 
L 94.778182 255.39088 
L 95.095537 255.276991 
L 96.047603 254.351 
L 97.951736 252.738272 
L 98.586446 252.361121 
L 98.903802 251.804456 
L 99.221157 251.644106 
L 100.173223 250.816685 
L 100.490579 250.591432 
L 100.807934 250.531653 
L 101.76 249.582135 
L 102.077355 249.1669 
L 103.664132 248.085207 
L 104.298843 247.650255 
L 106.202975 246.411461 
L 106.520331 246.268864 
L 108.424463 244.727931 
L 109.059174 244.382503 
L 110.64595 243.461082 
L 110.963306 243.39003 
L 111.598017 243.041379 
L 111.915372 242.583553 
L 113.502149 241.523775 
L 114.13686 241.019167 
L 115.088926 240.679893 
L 116.040992 240.092303 
L 116.675702 239.817225 
L 116.993058 239.49401 
L 117.945124 238.946638 
L 118.262479 238.584593 
L 119.849256 237.806628 
L 120.166612 237.516503 
L 120.801322 237.262527 
L 121.436033 236.783411 
L 125.879008 234.416502 
L 127.14843 233.671947 
L 128.735207 232.811575 
L 131.27405 231.501771 
L 131.90876 231.305504 
L 133.812893 230.411941 
L 134.447603 229.979564 
L 135.082314 229.808152 
L 136.669091 229.007827 
L 136.986446 228.59179 
L 137.621157 228.448016 
L 138.890579 227.753507 
L 140.477355 227.134158 
L 141.746777 226.437633 
L 142.381488 226.32333 
L 143.016198 225.9468 
L 147.141818 224.217946 
L 147.776529 223.886098 
L 151.267438 222.27743 
L 152.219504 221.802329 
L 152.854215 221.554563 
L 154.123636 220.970643 
L 154.440992 220.915378 
L 155.075702 220.482435 
L 156.345124 219.895951 
L 158.883967 218.829576 
L 159.201322 218.59825 
L 160.153388 218.360194 
L 160.788099 217.922443 
L 162.057521 217.305726 
L 162.692231 217.093081 
L 163.644298 216.730572 
L 166.18314 215.609829 
L 167.135207 215.183969 
L 167.769917 215.038587 
L 168.087273 214.79598 
L 168.721983 214.566227 
L 169.991405 213.919371 
L 170.30876 213.88116 
L 172.847603 212.755459 
L 173.799669 212.340004 
L 174.117025 212.010445 
L 177.925289 210.540489 
L 178.242645 210.168428 
L 178.56 210.134642 
L 179.512066 209.694235 
L 180.146777 209.524864 
L 180.464132 209.262636 
L 181.098843 208.988172 
L 182.050909 208.607466 
L 184.272397 207.797382 
L 184.907107 207.430681 
L 186.176529 207.103455 
L 186.493884 206.863617 
L 187.128595 206.727165 
L 188.398017 206.261985 
L 189.032727 206.101142 
L 189.667438 205.818597 
L 190.302149 205.6734 
L 190.619504 205.592976 
L 190.93686 205.365186 
L 191.888926 205.085998 
L 192.523636 204.831082 
L 194.427769 204.078906 
L 196.014545 203.586121 
L 196.331901 203.508837 
L 197.283967 202.986298 
L 197.918678 202.75329 
L 200.140165 201.922703 
L 200.774876 201.714115 
L 203.313719 200.558952 
L 203.94843 200.451375 
L 204.58314 200.134738 
L 206.169917 199.414842 
L 207.121983 199.093946 
L 220.133554 194.482796 
L 222.355041 193.587313 
L 224.893884 192.750249 
L 225.528595 192.469683 
L 226.798017 191.942595 
L 228.067438 191.303611 
L 228.702149 191.051764 
L 229.654215 190.737199 
L 230.288926 190.569443 
L 231.875702 189.952482 
L 234.09719 189.213304 
L 234.414545 188.961305 
L 235.683967 188.565059 
L 236.953388 188.009713 
L 237.588099 187.76294 
L 240.761653 186.619863 
L 241.396364 186.335851 
L 242.031074 186.182546 
L 243.300496 185.602914 
L 243.935207 185.459537 
L 244.569917 185.111358 
L 245.839339 184.842271 
L 246.47405 184.581202 
L 248.060826 184.081348 
L 248.695537 183.762989 
L 252.186446 182.451385 
L 253.138512 182.17255 
L 254.090579 181.653925 
L 254.725289 181.5151 
L 256.946777 180.470273 
L 257.264132 180.467163 
L 259.802975 179.431796 
L 260.437686 179.220216 
L 261.072397 178.841859 
L 263.293884 178.109855 
L 263.61124 177.877494 
L 264.24595 177.642466 
L 264.880661 177.370305 
L 265.832727 177.013852 
L 268.688926 175.922638 
L 269.323636 175.655964 
L 269.958347 175.451512 
L 271.545124 174.760074 
L 273.766612 173.983014 
L 274.083967 173.72579 
L 275.988099 173.179816 
L 277.257521 172.660249 
L 277.892231 172.447163 
L 278.209587 172.177134 
L 278.844298 172.03528 
L 279.161653 171.960496 
L 279.796364 171.570536 
L 280.113719 171.547069 
L 281.38314 170.983684 
L 283.604628 170.301953 
L 285.826116 169.217704 
L 286.143471 168.977959 
L 286.778182 168.833238 
L 287.412893 168.663709 
L 288.682314 168.170641 
L 289.317025 167.992795 
L 289.951736 167.576073 
L 290.586446 167.414785 
L 292.490579 166.648403 
L 294.712066 165.857151 
L 300.741818 163.493688 
L 301.059174 163.386198 
L 301.376529 163.041029 
L 301.693884 162.948554 
L 302.64595 162.327417 
L 302.963306 162.250278 
L 303.915372 161.757801 
L 304.867438 161.30455 
L 305.502149 161.0216 
L 306.77157 160.471033 
L 307.088926 160.405401 
L 307.406281 160.145296 
L 308.993058 159.665838 
L 310.579835 158.948717 
L 311.849256 158.678551 
L 313.436033 157.690138 
L 315.657521 156.875503 
L 315.974876 156.523334 
L 316.609587 156.292896 
L 317.244298 155.934034 
L 317.561653 155.670314 
L 317.879008 155.604088 
L 318.196364 155.291265 
L 318.831074 155.137238 
L 319.465785 154.752721 
L 320.100496 154.445983 
L 320.417851 154.129972 
L 322.956694 152.947637 
L 323.591405 152.554444 
L 330.573223 149.469703 
L 330.890579 149.207869 
L 331.842645 148.904183 
L 335.650909 146.860083 
L 336.602975 146.448997 
L 338.507107 145.488695 
L 339.776529 144.742764 
L 341.680661 143.895495 
L 341.998017 143.44927 
L 342.315372 143.351564 
L 342.632727 143.080775 
L 343.902149 142.537157 
L 344.53686 142.119013 
L 346.123636 141.057557 
L 346.440992 140.950631 
L 348.345124 139.695384 
L 348.662479 139.640868 
L 348.979835 139.432949 
L 349.29719 139.36539 
L 350.249256 138.687245 
L 350.883967 138.404316 
L 351.518678 137.807939 
L 352.153388 137.647696 
L 352.470744 137.210127 
L 353.105455 136.857557 
L 353.740165 136.345095 
L 354.374876 135.970505 
L 354.692231 135.562784 
L 356.596364 134.476007 
L 357.231074 133.785333 
L 357.865785 133.256974 
L 358.18314 132.883208 
L 359.452562 132.071424 
L 360.087273 131.303561 
L 360.404628 131.13469 
L 360.721983 130.813973 
L 362.30876 130.0858 
L 362.626116 129.629462 
L 363.260826 129.250263 
L 363.578182 129.210702 
L 363.895537 128.912592 
L 364.212893 128.798828 
L 364.847603 128.290744 
L 366.117025 127.603008 
L 366.751736 127.365008 
L 367.069091 126.957716 
L 367.386446 126.82577 
L 368.021157 126.163517 
L 368.655868 125.579339 
L 368.973223 125.517537 
L 369.290579 125.102049 
L 369.925289 124.618143 
L 370.242645 124.241316 
L 370.56 124.063909 
L 370.877355 123.655322 
L 371.194711 123.480558 
L 371.829421 122.831962 
L 372.146777 122.797091 
L 373.098843 121.748119 
L 374.368264 120.830856 
L 375.637686 119.11732 
L 375.955041 118.778324 
L 376.272397 118.730984 
L 376.907107 118.273048 
L 377.541818 117.538712 
L 377.859174 116.72076 
L 378.493884 116.390091 
L 378.81124 115.782101 
L 379.44595 115.458666 
L 380.080661 114.454949 
L 380.398017 114.25834 
L 380.715372 113.608897 
L 381.032727 113.332024 
L 381.350083 112.879727 
L 381.667438 112.830657 
L 381.984793 111.734819 
L 382.302149 111.37374 
L 382.619504 110.448225 
L 382.93686 110.091635 
L 383.888926 109.647627 
L 384.206281 109.125846 
L 384.523636 108.996287 
L 384.840992 108.603012 
L 385.158347 107.789832 
L 386.110413 106.551727 
L 386.745124 105.225702 
L 387.062479 104.199808 
L 387.69719 103.47881 
L 388.014545 103.301694 
L 388.331901 102.849983 
L 388.966612 102.408757 
L 389.283967 101.291601 
L 389.601322 101.208584 
L 389.918678 100.78714 
L 390.553388 98.680701 
L 391.188099 97.563039 
L 391.505455 97.137972 
L 391.82281 95.928709 
L 392.140165 95.313742 
L 392.774876 92.573523 
L 393.092231 92.424516 
L 393.409587 91.836064 
L 393.726942 91.553104 
L 394.044298 89.040563 
L 394.361653 88.721259 
L 394.679008 86.232652 
L 394.996364 85.746889 
L 395.313719 85.468827 
L 395.631074 83.927253 
L 396.265785 78.797752 
L 396.900496 77.181049 
L 397.217851 75.130964 
L 397.535207 71.355795 
L 397.852562 70.940895 
L 398.169917 59.954869 
L 398.487273 53.568 
L 398.487273 53.568 
" clip-path="url(#p5906a626e2)" style="fill: none; stroke: #1f77b4; stroke-width: 1.5; stroke-linecap: square"/>
   </g>
   <g id="line2d_16">
    <path d="M 73.832727 271.240416 
L 74.150083 261.398741 
L 74.467438 261.398741 
L 74.784793 252.986114 
L 75.102149 251.238692 
L 75.73686 251.238692 
L 76.054215 248.091026 
L 76.37157 242.77733 
L 76.688926 242.451319 
L 77.006281 242.451319 
L 77.323636 241.629117 
L 78.910413 241.629117 
L 79.227769 238.631349 
L 79.545124 238.631349 
L 79.862479 237.546166 
L 80.179835 236.875725 
L 80.49719 236.875725 
L 80.814545 233.560842 
L 81.131901 232.000501 
L 82.083967 231.973672 
L 82.401322 231.050192 
L 86.844298 230.99776 
L 87.161653 230.492111 
L 87.479008 228.090056 
L 87.796364 227.55905 
L 88.113719 226.727485 
L 89.700496 226.727485 
L 90.017851 225.664991 
L 90.652562 225.664991 
L 90.969917 224.430745 
L 91.287273 224.430745 
L 91.604628 223.7878 
L 91.921983 222.134046 
L 99.221157 222.134046 
L 99.538512 221.148631 
L 99.855868 221.148631 
L 100.173223 220.915538 
L 101.76 220.915538 
L 102.077355 219.894127 
L 103.664132 219.894127 
L 103.981488 219.663735 
L 104.298843 219.265472 
L 104.933554 219.265472 
L 105.250909 217.864746 
L 106.202975 217.794152 
L 106.520331 214.632942 
L 107.155041 214.320592 
L 107.472397 214.320592 
L 107.789752 213.592657 
L 109.376529 213.592657 
L 109.693884 211.995078 
L 110.01124 211.995078 
L 110.328595 210.230255 
L 129.369917 210.230182 
L 129.687273 209.227294 
L 130.321983 208.284068 
L 131.27405 208.223932 
L 131.591405 207.403523 
L 131.90876 207.403523 
L 132.226116 207.216087 
L 132.860826 207.216087 
L 133.178182 205.636744 
L 133.495537 205.636744 
L 133.812893 205.306031 
L 135.399669 205.306031 
L 135.717025 203.959198 
L 136.669091 203.396825 
L 163.009587 203.396825 
L 163.326942 201.998985 
L 167.135207 201.998985 
L 167.452562 201.743523 
L 167.769917 201.743523 
L 168.087273 200.013514 
L 168.404628 200.013514 
L 168.721983 199.551743 
L 169.356694 199.551743 
L 169.67405 199.253754 
L 169.991405 198.540019 
L 171.578182 198.540019 
L 172.212893 198.036785 
L 172.530248 198.036785 
L 172.847603 197.82329 
L 180.146777 197.82329 
L 180.464132 197.45581 
L 180.781488 197.45581 
L 181.098843 197.095355 
L 182.68562 197.095355 
L 183.320331 193.73288 
L 185.541818 193.70297 
L 185.859174 193.50761 
L 186.493884 193.50761 
L 186.81124 193.212524 
L 187.128595 192.473057 
L 187.44595 192.473057 
L 187.763306 191.972225 
L 188.080661 191.972225 
L 188.398017 189.88138 
L 188.715372 186.899522 
L 283.604628 186.899522 
L 284.239339 181.82682 
L 284.556694 181.82682 
L 284.87405 181.325988 
L 285.191405 181.325988 
L 285.50876 180.586521 
L 285.826116 180.291435 
L 286.460826 180.291435 
L 286.778182 180.096075 
L 288.999669 180.066165 
L 289.63438 176.70369 
L 291.221157 176.70369 
L 291.538512 176.343235 
L 291.855868 176.343235 
L 292.173223 175.975755 
L 299.472397 175.975755 
L 299.789752 175.76226 
L 300.107107 175.76226 
L 300.741818 175.259026 
L 302.328595 175.259026 
L 302.64595 174.545291 
L 302.963306 174.247302 
L 303.598017 174.247302 
L 303.915372 173.785531 
L 304.232727 173.785531 
L 304.550083 172.055522 
L 304.867438 172.055522 
L 305.184793 171.80006 
L 308.993058 171.80006 
L 309.310413 170.40222 
L 335.968264 170.32555 
L 336.602975 169.839847 
L 336.920331 168.493014 
L 338.507107 168.493014 
L 338.824463 168.162301 
L 339.141818 168.162301 
L 339.459174 166.582958 
L 340.093884 166.582958 
L 340.41124 166.395522 
L 340.728595 166.395522 
L 341.04595 165.575113 
L 341.680661 165.514977 
L 341.998017 165.514977 
L 342.315372 165.149904 
L 342.632727 164.571751 
L 342.950083 163.568863 
L 361.991405 163.56879 
L 362.30876 161.803967 
L 362.626116 161.803967 
L 362.943471 160.206388 
L 364.530248 160.206388 
L 364.847603 159.478453 
L 365.164959 159.478453 
L 365.799669 159.166103 
L 366.117025 156.004893 
L 367.069091 155.934299 
L 367.386446 154.533573 
L 368.021157 154.533573 
L 368.655868 153.904918 
L 370.242645 153.904918 
L 370.56 152.883507 
L 372.146777 152.883507 
L 372.464132 152.650414 
L 372.781488 152.650414 
L 373.098843 151.664999 
L 380.398017 151.664999 
L 380.715372 150.011245 
L 381.032727 149.3683 
L 381.350083 149.3683 
L 381.667438 148.134054 
L 382.302149 148.134054 
L 382.619504 147.07156 
L 384.206281 147.07156 
L 384.840992 145.708989 
L 385.158347 143.306934 
L 385.475702 142.801285 
L 389.918678 142.748853 
L 390.236033 141.825373 
L 391.188099 141.798544 
L 391.505455 140.238203 
L 391.82281 136.92332 
L 392.140165 136.92332 
L 392.457521 136.252879 
L 392.774876 135.167696 
L 393.092231 135.167696 
L 393.409587 132.169928 
L 394.996364 132.169928 
L 395.313719 131.347726 
L 395.631074 131.347726 
L 395.94843 131.021715 
L 396.265785 125.708019 
L 396.58314 122.560353 
L 397.217851 122.560353 
L 397.535207 120.812931 
L 397.852562 112.400304 
L 398.169917 112.400304 
L 398.487273 102.558629 
L 398.487273 102.558629 
" clip-path="url(#p5906a626e2)" style="fill: none; stroke: #ff7f0e; stroke-width: 1.5; stroke-linecap: square"/>
   </g>
   <g id="patch_3">
    <path d="M 57.6 307.584 
L 57.6 41.472 
" style="fill: none; stroke: #000000; stroke-width: 0.8; stroke-linejoin: miter; stroke-linecap: square"/>
   </g>
   <g id="patch_4">
    <path d="M 414.72 307.584 
L 414.72 41.472 
" style="fill: none; stroke: #000000; stroke-width: 0.8; stroke-linejoin: miter; stroke-linecap: square"/>
   </g>
   <g id="patch_5">
    <path d="M 57.6 307.584 
L 414.72 307.584 
" style="fill: none; stroke: #000000; stroke-width: 0.8; stroke-linejoin: miter; stroke-linecap: square"/>
   </g>
   <g id="patch_6">
    <path d="M 57.6 41.472 
L 414.72 41.472 
" style="fill: none; stroke: #000000; stroke-width: 0.8; stroke-linejoin: miter; stroke-linecap: square"/>
   </g>
   <g id="legend_1">
    <g id="patch_7">
     <path d="M 64.6 78.82825 
L 129.342187 78.82825 
Q 131.342187 78.82825 131.342187 76.82825 
L 131.342187 48.472 
Q 131.342187 46.472 129.342187 46.472 
L 64.6 46.472 
Q 62.6 46.472 62.6 48.472 
L 62.6 76.82825 
Q 62.6 78.82825 64.6 78.82825 
z
" style="fill: #ffffff; opacity: 0.8; stroke: #cccccc; stroke-linejoin: miter"/>
    </g>
    <g id="line2d_17">
     <path d="M 66.6 54.570437 
L 76.6 54.570437 
L 86.6 54.570437 
" style="fill: none; stroke: #1f77b4; stroke-width: 1.5; stroke-linecap: square"/>
    </g>
    <g id="text_17">
     <!-- qc -->
     <g transform="translate(94.6 58.070437) scale(0.1 -0.1)">
      <defs>
       <path id="DejaVuSans-71" d="M 947 1747 
Q 947 1113 1208 752 
Q 1469 391 1925 391 
Q 2381 391 2643 752 
Q 2906 1113 2906 1747 
Q 2906 2381 2643 2742 
Q 2381 3103 1925 3103 
Q 1469 3103 1208 2742 
Q 947 2381 947 1747 
z
M 2906 525 
Q 2725 213 2448 61 
Q 2172 -91 1784 -91 
Q 1150 -91 751 415 
Q 353 922 353 1747 
Q 353 2572 751 3078 
Q 1150 3584 1784 3584 
Q 2172 3584 2448 3432 
Q 2725 3281 2906 2969 
L 2906 3500 
L 3481 3500 
L 3481 -1331 
L 2906 -1331 
L 2906 525 
z
" transform="scale(0.015625)"/>
       <path id="DejaVuSans-63" d="M 3122 3366 
L 3122 2828 
Q 2878 2963 2633 3030 
Q 2388 3097 2138 3097 
Q 1578 3097 1268 2742 
Q 959 2388 959 1747 
Q 959 1106 1268 751 
Q 1578 397 2138 397 
Q 2388 397 2633 464 
Q 2878 531 3122 666 
L 3122 134 
Q 2881 22 2623 -34 
Q 2366 -91 2075 -91 
Q 1284 -91 818 406 
Q 353 903 353 1747 
Q 353 2603 823 3093 
Q 1294 3584 2113 3584 
Q 2378 3584 2631 3529 
Q 2884 3475 3122 3366 
z
" transform="scale(0.015625)"/>
      </defs>
      <use xlink:href="#DejaVuSans-71"/>
      <use xlink:href="#DejaVuSans-63" x="63.476562"/>
     </g>
    </g>
    <g id="line2d_18">
     <path d="M 66.6 69.248562 
L 76.6 69.248562 
L 86.6 69.248562 
" style="fill: none; stroke: #ff7f0e; stroke-width: 1.5; stroke-linecap: square"/>
    </g>
    <g id="text_18">
     <!-- Trotter -->
     <g transform="translate(94.6 72.748562) scale(0.1 -0.1)">
      <defs>
       <path id="DejaVuSans-54" d="M -19 4666 
L 3928 4666 
L 3928 4134 
L 2272 4134 
L 2272 0 
L 1638 0 
L 1638 4134 
L -19 4134 
L -19 4666 
z
" transform="scale(0.015625)"/>
       <path id="DejaVuSans-72" d="M 2631 2963 
Q 2534 3019 2420 3045 
Q 2306 3072 2169 3072 
Q 1681 3072 1420 2755 
Q 1159 2438 1159 1844 
L 1159 0 
L 581 0 
L 581 3500 
L 1159 3500 
L 1159 2956 
Q 1341 3275 1631 3429 
Q 1922 3584 2338 3584 
Q 2397 3584 2469 3576 
Q 2541 3569 2628 3553 
L 2631 2963 
z
" transform="scale(0.015625)"/>
       <path id="DejaVuSans-6f" d="M 1959 3097 
Q 1497 3097 1228 2736 
Q 959 2375 959 1747 
Q 959 1119 1226 758 
Q 1494 397 1959 397 
Q 2419 397 2687 759 
Q 2956 1122 2956 1747 
Q 2956 2369 2687 2733 
Q 2419 3097 1959 3097 
z
M 1959 3584 
Q 2709 3584 3137 3096 
Q 3566 2609 3566 1747 
Q 3566 888 3137 398 
Q 2709 -91 1959 -91 
Q 1206 -91 779 398 
Q 353 888 353 1747 
Q 353 2609 779 3096 
Q 1206 3584 1959 3584 
z
" transform="scale(0.015625)"/>
       <path id="DejaVuSans-65" d="M 3597 1894 
L 3597 1613 
L 953 1613 
Q 991 1019 1311 708 
Q 1631 397 2203 397 
Q 2534 397 2845 478 
Q 3156 559 3463 722 
L 3463 178 
Q 3153 47 2828 -22 
Q 2503 -91 2169 -91 
Q 1331 -91 842 396 
Q 353 884 353 1716 
Q 353 2575 817 3079 
Q 1281 3584 2069 3584 
Q 2775 3584 3186 3129 
Q 3597 2675 3597 1894 
z
M 3022 2063 
Q 3016 2534 2758 2815 
Q 2500 3097 2075 3097 
Q 1594 3097 1305 2825 
Q 1016 2553 972 2059 
L 3022 2063 
z
" transform="scale(0.015625)"/>
      </defs>
      <use xlink:href="#DejaVuSans-54"/>
      <use xlink:href="#DejaVuSans-72" x="46.333984"/>
      <use xlink:href="#DejaVuSans-6f" x="85.197266"/>
      <use xlink:href="#DejaVuSans-74" x="146.378906"/>
      <use xlink:href="#DejaVuSans-74" x="185.587891"/>
      <use xlink:href="#DejaVuSans-65" x="224.796875"/>
      <use xlink:href="#DejaVuSans-72" x="286.320312"/>
     </g>
    </g>
   </g>
  </g>
 </g>
 <defs>
  <clipPath id="p5906a626e2">
   <rect x="57.6" y="41.472" width="357.12" height="266.112"/>
  </clipPath>
 </defs>
</svg>
