<?xml version="1.0" encoding="utf-8" standalone="no"?>
<!DOCTYPE svg PUBLIC "-//W3C//DTD SVG 1.1//EN"
  "http://www.w3.org/Graphics/SVG/1.1/DTD/svg11.dtd">
<svg xmlns:xlink="http://www.w3.org/1999/xlink" width="460.8pt" height="345.6pt" viewBox="0 0 460.8 345.6" xmlns="http://www.w3.org/2000/svg" version="1.1">
 <metadata>
  <rdf:RDF xmlns:dc="http://purl.org/dc/elements/1.1/" xmlns:cc="http://creativecommons.org/ns#" xmlns:rdf="http://www.w3.org/1999/02/22-rdf-syntax-ns#">
   <cc:Work>
    <dc:type rdf:resource="http://purl.org/dc/dcmitype/StillImage"/>
    <dc:date>2024-07-12T15:03:04.115542</dc:date>
    <dc:format>image/svg+xml</dc:format>
    <dc:creator>
     <cc:Agent>
      <dc:title>Matplotlib v3.7.1, https://matplotlib.org/</dc:title>
     </cc:Agent>
    </dc:creator>
   </cc:Work>
  </rdf:RDF>
 </metadata>
 <defs>
  <style type="text/css">*{stroke-linejoin: round; stroke-linecap: butt}</style>
 </defs>
 <g id="figure_1">
  <g id="patch_1">
   <path d="M 0 345.6 
L 460.8 345.6 
L 460.8 0 
L 0 0 
z
" style="fill: #ffffff"/>
  </g>
  <g id="axes_1">
   <g id="patch_2">
    <path d="M 57.6 307.584 
L 414.72 307.584 
L 414.72 41.472 
L 57.6 41.472 
z
" style="fill: #ffffff"/>
   </g>
   <g id="matplotlib.axis_1">
    <g id="xtick_1">
     <g id="line2d_1">
      <defs>
       <path id="m12bbeecef6" d="M 0 0 
L 0 3.5 
" style="stroke: #000000; stroke-width: 0.8"/>
      </defs>
      <g>
       <use xlink:href="#m12bbeecef6" x="73.832727" y="307.584" style="stroke: #000000; stroke-width: 0.8"/>
      </g>
     </g>
     <g id="text_1">
      <!-- 0 -->
      <g transform="translate(70.651477 322.182437) scale(0.1 -0.1)">
       <defs>
        <path id="DejaVuSans-30" d="M 2034 4250 
Q 1547 4250 1301 3770 
Q 1056 3291 1056 2328 
Q 1056 1369 1301 889 
Q 1547 409 2034 409 
Q 2525 409 2770 889 
Q 3016 1369 3016 2328 
Q 3016 3291 2770 3770 
Q 2525 4250 2034 4250 
z
M 2034 4750 
Q 2819 4750 3233 4129 
Q 3647 3509 3647 2328 
Q 3647 1150 3233 529 
Q 2819 -91 2034 -91 
Q 1250 -91 836 529 
Q 422 1150 422 2328 
Q 422 3509 836 4129 
Q 1250 4750 2034 4750 
z
" transform="scale(0.015625)"/>
       </defs>
       <use xlink:href="#DejaVuSans-30"/>
      </g>
     </g>
    </g>
    <g id="xtick_2">
     <g id="line2d_2">
      <g>
       <use xlink:href="#m12bbeecef6" x="137.303802" y="307.584" style="stroke: #000000; stroke-width: 0.8"/>
      </g>
     </g>
     <g id="text_2">
      <!-- 200 -->
      <g transform="translate(127.760052 322.182437) scale(0.1 -0.1)">
       <defs>
        <path id="DejaVuSans-32" d="M 1228 531 
L 3431 531 
L 3431 0 
L 469 0 
L 469 531 
Q 828 903 1448 1529 
Q 2069 2156 2228 2338 
Q 2531 2678 2651 2914 
Q 2772 3150 2772 3378 
Q 2772 3750 2511 3984 
Q 2250 4219 1831 4219 
Q 1534 4219 1204 4116 
Q 875 4013 500 3803 
L 500 4441 
Q 881 4594 1212 4672 
Q 1544 4750 1819 4750 
Q 2544 4750 2975 4387 
Q 3406 4025 3406 3419 
Q 3406 3131 3298 2873 
Q 3191 2616 2906 2266 
Q 2828 2175 2409 1742 
Q 1991 1309 1228 531 
z
" transform="scale(0.015625)"/>
       </defs>
       <use xlink:href="#DejaVuSans-32"/>
       <use xlink:href="#DejaVuSans-30" x="63.623047"/>
       <use xlink:href="#DejaVuSans-30" x="127.246094"/>
      </g>
     </g>
    </g>
    <g id="xtick_3">
     <g id="line2d_3">
      <g>
       <use xlink:href="#m12bbeecef6" x="200.774876" y="307.584" style="stroke: #000000; stroke-width: 0.8"/>
      </g>
     </g>
     <g id="text_3">
      <!-- 400 -->
      <g transform="translate(191.231126 322.182437) scale(0.1 -0.1)">
       <defs>
        <path id="DejaVuSans-34" d="M 2419 4116 
L 825 1625 
L 2419 1625 
L 2419 4116 
z
M 2253 4666 
L 3047 4666 
L 3047 1625 
L 3713 1625 
L 3713 1100 
L 3047 1100 
L 3047 0 
L 2419 0 
L 2419 1100 
L 313 1100 
L 313 1709 
L 2253 4666 
z
" transform="scale(0.015625)"/>
       </defs>
       <use xlink:href="#DejaVuSans-34"/>
       <use xlink:href="#DejaVuSans-30" x="63.623047"/>
       <use xlink:href="#DejaVuSans-30" x="127.246094"/>
      </g>
     </g>
    </g>
    <g id="xtick_4">
     <g id="line2d_4">
      <g>
       <use xlink:href="#m12bbeecef6" x="264.24595" y="307.584" style="stroke: #000000; stroke-width: 0.8"/>
      </g>
     </g>
     <g id="text_4">
      <!-- 600 -->
      <g transform="translate(254.7022 322.182437) scale(0.1 -0.1)">
       <defs>
        <path id="DejaVuSans-36" d="M 2113 2584 
Q 1688 2584 1439 2293 
Q 1191 2003 1191 1497 
Q 1191 994 1439 701 
Q 1688 409 2113 409 
Q 2538 409 2786 701 
Q 3034 994 3034 1497 
Q 3034 2003 2786 2293 
Q 2538 2584 2113 2584 
z
M 3366 4563 
L 3366 3988 
Q 3128 4100 2886 4159 
Q 2644 4219 2406 4219 
Q 1781 4219 1451 3797 
Q 1122 3375 1075 2522 
Q 1259 2794 1537 2939 
Q 1816 3084 2150 3084 
Q 2853 3084 3261 2657 
Q 3669 2231 3669 1497 
Q 3669 778 3244 343 
Q 2819 -91 2113 -91 
Q 1303 -91 875 529 
Q 447 1150 447 2328 
Q 447 3434 972 4092 
Q 1497 4750 2381 4750 
Q 2619 4750 2861 4703 
Q 3103 4656 3366 4563 
z
" transform="scale(0.015625)"/>
       </defs>
       <use xlink:href="#DejaVuSans-36"/>
       <use xlink:href="#DejaVuSans-30" x="63.623047"/>
       <use xlink:href="#DejaVuSans-30" x="127.246094"/>
      </g>
     </g>
    </g>
    <g id="xtick_5">
     <g id="line2d_5">
      <g>
       <use xlink:href="#m12bbeecef6" x="327.717025" y="307.584" style="stroke: #000000; stroke-width: 0.8"/>
      </g>
     </g>
     <g id="text_5">
      <!-- 800 -->
      <g transform="translate(318.173275 322.182437) scale(0.1 -0.1)">
       <defs>
        <path id="DejaVuSans-38" d="M 2034 2216 
Q 1584 2216 1326 1975 
Q 1069 1734 1069 1313 
Q 1069 891 1326 650 
Q 1584 409 2034 409 
Q 2484 409 2743 651 
Q 3003 894 3003 1313 
Q 3003 1734 2745 1975 
Q 2488 2216 2034 2216 
z
M 1403 2484 
Q 997 2584 770 2862 
Q 544 3141 544 3541 
Q 544 4100 942 4425 
Q 1341 4750 2034 4750 
Q 2731 4750 3128 4425 
Q 3525 4100 3525 3541 
Q 3525 3141 3298 2862 
Q 3072 2584 2669 2484 
Q 3125 2378 3379 2068 
Q 3634 1759 3634 1313 
Q 3634 634 3220 271 
Q 2806 -91 2034 -91 
Q 1263 -91 848 271 
Q 434 634 434 1313 
Q 434 1759 690 2068 
Q 947 2378 1403 2484 
z
M 1172 3481 
Q 1172 3119 1398 2916 
Q 1625 2713 2034 2713 
Q 2441 2713 2670 2916 
Q 2900 3119 2900 3481 
Q 2900 3844 2670 4047 
Q 2441 4250 2034 4250 
Q 1625 4250 1398 4047 
Q 1172 3844 1172 3481 
z
" transform="scale(0.015625)"/>
       </defs>
       <use xlink:href="#DejaVuSans-38"/>
       <use xlink:href="#DejaVuSans-30" x="63.623047"/>
       <use xlink:href="#DejaVuSans-30" x="127.246094"/>
      </g>
     </g>
    </g>
    <g id="xtick_6">
     <g id="line2d_6">
      <g>
       <use xlink:href="#m12bbeecef6" x="391.188099" y="307.584" style="stroke: #000000; stroke-width: 0.8"/>
      </g>
     </g>
     <g id="text_6">
      <!-- 1000 -->
      <g transform="translate(378.463099 322.182437) scale(0.1 -0.1)">
       <defs>
        <path id="DejaVuSans-31" d="M 794 531 
L 1825 531 
L 1825 4091 
L 703 3866 
L 703 4441 
L 1819 4666 
L 2450 4666 
L 2450 531 
L 3481 531 
L 3481 0 
L 794 0 
L 794 531 
z
" transform="scale(0.015625)"/>
       </defs>
       <use xlink:href="#DejaVuSans-31"/>
       <use xlink:href="#DejaVuSans-30" x="63.623047"/>
       <use xlink:href="#DejaVuSans-30" x="127.246094"/>
       <use xlink:href="#DejaVuSans-30" x="190.869141"/>
      </g>
     </g>
    </g>
    <g id="text_7">
     <!-- n -->
     <g transform="translate(232.99125 335.860562) scale(0.1 -0.1)">
      <defs>
       <path id="DejaVuSans-6e" d="M 3513 2113 
L 3513 0 
L 2938 0 
L 2938 2094 
Q 2938 2591 2744 2837 
Q 2550 3084 2163 3084 
Q 1697 3084 1428 2787 
Q 1159 2491 1159 1978 
L 1159 0 
L 581 0 
L 581 3500 
L 1159 3500 
L 1159 2956 
Q 1366 3272 1645 3428 
Q 1925 3584 2291 3584 
Q 2894 3584 3203 3211 
Q 3513 2838 3513 2113 
z
" transform="scale(0.015625)"/>
      </defs>
      <use xlink:href="#DejaVuSans-6e"/>
     </g>
    </g>
   </g>
   <g id="matplotlib.axis_2">
    <g id="ytick_1">
     <g id="line2d_7">
      <defs>
       <path id="mfd7cd84034" d="M 0 0 
L -3.5 0 
" style="stroke: #000000; stroke-width: 0.8"/>
      </defs>
      <g>
       <use xlink:href="#mfd7cd84034" x="57.6" y="291.517193" style="stroke: #000000; stroke-width: 0.8"/>
      </g>
     </g>
     <g id="text_8">
      <!-- −0.6 -->
      <g transform="translate(26.317187 295.316411) scale(0.1 -0.1)">
       <defs>
        <path id="DejaVuSans-2212" d="M 678 2272 
L 4684 2272 
L 4684 1741 
L 678 1741 
L 678 2272 
z
" transform="scale(0.015625)"/>
        <path id="DejaVuSans-2e" d="M 684 794 
L 1344 794 
L 1344 0 
L 684 0 
L 684 794 
z
" transform="scale(0.015625)"/>
       </defs>
       <use xlink:href="#DejaVuSans-2212"/>
       <use xlink:href="#DejaVuSans-30" x="83.789062"/>
       <use xlink:href="#DejaVuSans-2e" x="147.412109"/>
       <use xlink:href="#DejaVuSans-36" x="179.199219"/>
      </g>
     </g>
    </g>
    <g id="ytick_2">
     <g id="line2d_8">
      <g>
       <use xlink:href="#mfd7cd84034" x="57.6" y="255.462964" style="stroke: #000000; stroke-width: 0.8"/>
      </g>
     </g>
     <g id="text_9">
      <!-- −0.4 -->
      <g transform="translate(26.317187 259.262183) scale(0.1 -0.1)">
       <use xlink:href="#DejaVuSans-2212"/>
       <use xlink:href="#DejaVuSans-30" x="83.789062"/>
       <use xlink:href="#DejaVuSans-2e" x="147.412109"/>
       <use xlink:href="#DejaVuSans-34" x="179.199219"/>
      </g>
     </g>
    </g>
    <g id="ytick_3">
     <g id="line2d_9">
      <g>
       <use xlink:href="#mfd7cd84034" x="57.6" y="219.408736" style="stroke: #000000; stroke-width: 0.8"/>
      </g>
     </g>
     <g id="text_10">
      <!-- −0.2 -->
      <g transform="translate(26.317187 223.207955) scale(0.1 -0.1)">
       <use xlink:href="#DejaVuSans-2212"/>
       <use xlink:href="#DejaVuSans-30" x="83.789062"/>
       <use xlink:href="#DejaVuSans-2e" x="147.412109"/>
       <use xlink:href="#DejaVuSans-32" x="179.199219"/>
      </g>
     </g>
    </g>
    <g id="ytick_4">
     <g id="line2d_10">
      <g>
       <use xlink:href="#mfd7cd84034" x="57.6" y="183.354508" style="stroke: #000000; stroke-width: 0.8"/>
      </g>
     </g>
     <g id="text_11">
      <!-- 0.0 -->
      <g transform="translate(34.696875 187.153727) scale(0.1 -0.1)">
       <use xlink:href="#DejaVuSans-30"/>
       <use xlink:href="#DejaVuSans-2e" x="63.623047"/>
       <use xlink:href="#DejaVuSans-30" x="95.410156"/>
      </g>
     </g>
    </g>
    <g id="ytick_5">
     <g id="line2d_11">
      <g>
       <use xlink:href="#mfd7cd84034" x="57.6" y="147.300279" style="stroke: #000000; stroke-width: 0.8"/>
      </g>
     </g>
     <g id="text_12">
      <!-- 0.2 -->
      <g transform="translate(34.696875 151.099498) scale(0.1 -0.1)">
       <use xlink:href="#DejaVuSans-30"/>
       <use xlink:href="#DejaVuSans-2e" x="63.623047"/>
       <use xlink:href="#DejaVuSans-32" x="95.410156"/>
      </g>
     </g>
    </g>
    <g id="ytick_6">
     <g id="line2d_12">
      <g>
       <use xlink:href="#mfd7cd84034" x="57.6" y="111.246051" style="stroke: #000000; stroke-width: 0.8"/>
      </g>
     </g>
     <g id="text_13">
      <!-- 0.4 -->
      <g transform="translate(34.696875 115.04527) scale(0.1 -0.1)">
       <use xlink:href="#DejaVuSans-30"/>
       <use xlink:href="#DejaVuSans-2e" x="63.623047"/>
       <use xlink:href="#DejaVuSans-34" x="95.410156"/>
      </g>
     </g>
    </g>
    <g id="ytick_7">
     <g id="line2d_13">
      <g>
       <use xlink:href="#mfd7cd84034" x="57.6" y="75.191823" style="stroke: #000000; stroke-width: 0.8"/>
      </g>
     </g>
     <g id="text_14">
      <!-- 0.6 -->
      <g transform="translate(34.696875 78.991042) scale(0.1 -0.1)">
       <use xlink:href="#DejaVuSans-30"/>
       <use xlink:href="#DejaVuSans-2e" x="63.623047"/>
       <use xlink:href="#DejaVuSans-36" x="95.410156"/>
      </g>
     </g>
    </g>
    <g id="text_15">
     <!-- E*t -->
     <g transform="translate(20.2375 182.147531) rotate(-90) scale(0.1 -0.1)">
      <defs>
       <path id="DejaVuSans-45" d="M 628 4666 
L 3578 4666 
L 3578 4134 
L 1259 4134 
L 1259 2753 
L 3481 2753 
L 3481 2222 
L 1259 2222 
L 1259 531 
L 3634 531 
L 3634 0 
L 628 0 
L 628 4666 
z
" transform="scale(0.015625)"/>
       <path id="DejaVuSans-2a" d="M 3009 3897 
L 1888 3291 
L 3009 2681 
L 2828 2375 
L 1778 3009 
L 1778 1831 
L 1422 1831 
L 1422 3009 
L 372 2375 
L 191 2681 
L 1313 3291 
L 191 3897 
L 372 4206 
L 1422 3572 
L 1422 4750 
L 1778 4750 
L 1778 3572 
L 2828 4206 
L 3009 3897 
z
" transform="scale(0.015625)"/>
       <path id="DejaVuSans-74" d="M 1172 4494 
L 1172 3500 
L 2356 3500 
L 2356 3053 
L 1172 3053 
L 1172 1153 
Q 1172 725 1289 603 
Q 1406 481 1766 481 
L 2356 481 
L 2356 0 
L 1766 0 
Q 1100 0 847 248 
Q 594 497 594 1153 
L 594 3053 
L 172 3053 
L 172 3500 
L 594 3500 
L 594 4494 
L 1172 4494 
z
" transform="scale(0.015625)"/>
      </defs>
      <use xlink:href="#DejaVuSans-45"/>
      <use xlink:href="#DejaVuSans-2a" x="63.183594"/>
      <use xlink:href="#DejaVuSans-74" x="113.183594"/>
     </g>
    </g>
   </g>
   <g id="line2d_14">
    <path d="M 73.832727 295.488 
L 74.150083 287.902364 
L 74.467438 286.141853 
L 74.784793 279.447887 
L 75.419504 277.570999 
L 75.73686 276.938775 
L 76.688926 270.70236 
L 78.275702 267.538898 
L 78.593058 265.039005 
L 79.862479 261.405448 
L 80.179835 261.145961 
L 80.49719 260.740245 
L 80.814545 259.526377 
L 81.449256 258.870894 
L 81.766612 258.181155 
L 82.083967 257.798703 
L 82.401322 256.988782 
L 82.718678 256.709711 
L 83.036033 256.062888 
L 83.670744 255.561004 
L 83.988099 254.774808 
L 84.62281 253.969668 
L 85.257521 252.600195 
L 85.892231 251.914684 
L 86.526942 250.889385 
L 87.479008 250.099178 
L 88.431074 249.114116 
L 89.065785 247.936621 
L 89.38314 247.837246 
L 89.700496 247.167179 
L 90.335207 246.593138 
L 90.652562 245.951701 
L 90.969917 245.855671 
L 91.287273 245.609872 
L 91.921983 244.783214 
L 92.556694 244.48169 
L 93.191405 243.483504 
L 93.826116 242.85195 
L 94.460826 242.056285 
L 95.412893 241.361076 
L 95.730248 240.936797 
L 97.63438 239.488994 
L 97.951736 239.108279 
L 98.269091 239.07486 
L 98.586446 238.605054 
L 98.903802 238.528234 
L 99.221157 238.0787 
L 99.538512 237.911305 
L 100.173223 237.40776 
L 100.490579 237.198825 
L 100.807934 236.803746 
L 101.125289 236.62763 
L 102.077355 235.744338 
L 102.712066 235.271345 
L 103.029421 235.194956 
L 103.664132 234.663242 
L 103.981488 234.310508 
L 104.298843 234.218457 
L 104.616198 233.972563 
L 104.933554 233.884995 
L 105.568264 233.112889 
L 105.88562 233.083015 
L 107.155041 232.42242 
L 107.789752 231.872152 
L 108.424463 231.597057 
L 109.059174 231.109433 
L 109.693884 230.52922 
L 110.963306 229.845754 
L 111.280661 229.814568 
L 112.232727 228.966088 
L 112.867438 228.545732 
L 113.819504 227.900662 
L 116.675702 226.369314 
L 117.310413 225.78557 
L 118.262479 225.466017 
L 118.89719 225.009699 
L 122.070744 223.124397 
L 122.388099 223.045989 
L 123.657521 222.388267 
L 124.292231 222.094022 
L 125.244298 221.703685 
L 125.879008 221.331204 
L 127.14843 220.587899 
L 127.78314 220.386491 
L 128.417851 219.922903 
L 128.735207 219.873805 
L 129.369917 219.498356 
L 130.321983 219.02199 
L 132.543471 217.917131 
L 133.178182 217.675955 
L 133.495537 217.49614 
L 133.812893 217.097154 
L 135.399669 216.479058 
L 136.03438 216.094514 
L 137.621157 215.527494 
L 138.573223 215.129249 
L 140.16 214.255211 
L 141.429421 213.813398 
L 142.381488 213.299204 
L 143.333554 213.070629 
L 145.555041 211.920571 
L 146.507107 211.502812 
L 146.824463 211.175116 
L 148.728595 210.502751 
L 150.315372 209.817662 
L 153.806281 208.46886 
L 154.440992 208.31129 
L 155.710413 207.720417 
L 157.931901 206.849126 
L 158.566612 206.583418 
L 159.518678 206.219759 
L 160.788099 205.621137 
L 161.105455 205.563291 
L 162.374876 204.933682 
L 163.009587 204.708015 
L 165.231074 203.896837 
L 167.135207 203.163621 
L 168.087273 202.794775 
L 171.260826 201.704584 
L 171.578182 201.460905 
L 172.530248 201.166429 
L 173.164959 200.804845 
L 174.117025 200.496065 
L 176.338512 199.770475 
L 176.973223 199.414016 
L 178.56 198.904925 
L 180.464132 198.212953 
L 183.002975 197.355091 
L 183.637686 197.118008 
L 186.493884 196.013141 
L 186.81124 195.81391 
L 187.44595 195.688455 
L 188.080661 195.319744 
L 189.350083 194.889366 
L 190.93686 194.204142 
L 191.254215 194.166212 
L 191.888926 193.927529 
L 192.840992 193.70371 
L 194.745124 192.870684 
L 196.014545 192.487857 
L 197.601322 191.974269 
L 197.918678 191.764092 
L 198.236033 191.721075 
L 198.870744 191.457147 
L 200.140165 190.974731 
L 201.409587 190.650056 
L 202.361653 190.289148 
L 202.996364 190.063039 
L 203.631074 189.747993 
L 204.265785 189.49946 
L 205.535207 189.160003 
L 205.852562 188.98325 
L 206.487273 188.835291 
L 206.804628 188.77237 
L 207.439339 188.487087 
L 218.229421 184.939082 
L 218.864132 184.639162 
L 220.133554 184.269594 
L 221.08562 183.894572 
L 222.355041 183.440457 
L 223.307107 183.128122 
L 225.21124 182.386477 
L 230.606281 180.593478 
L 230.923636 180.423611 
L 231.240992 180.394088 
L 231.558347 180.194075 
L 231.875702 180.14038 
L 232.193058 179.933573 
L 233.462479 179.719056 
L 234.09719 179.475597 
L 236.318678 178.662773 
L 236.953388 178.390405 
L 238.22281 178.006355 
L 239.174876 177.639636 
L 240.444298 177.173308 
L 241.396364 176.952361 
L 242.031074 176.677723 
L 243.617851 176.11156 
L 243.935207 176.094832 
L 244.569917 175.917557 
L 245.204628 175.691376 
L 245.839339 175.513069 
L 247.743471 174.877162 
L 248.060826 174.863845 
L 249.012893 174.507494 
L 250.282314 174.180866 
L 250.917025 173.9106 
L 252.186446 173.608971 
L 252.503802 173.428068 
L 252.821157 173.404059 
L 257.581488 171.409487 
L 259.48562 170.823329 
L 259.802975 170.742162 
L 260.437686 170.468545 
L 264.24595 169.271652 
L 264.880661 169.104638 
L 265.515372 168.638892 
L 266.467438 168.265239 
L 269.640992 167.339144 
L 270.275702 167.068333 
L 275.353388 165.288459 
L 276.305455 164.877589 
L 277.574876 164.522267 
L 284.556694 162.017906 
L 288.999669 160.415734 
L 289.951736 159.933823 
L 290.586446 159.811235 
L 291.221157 159.600993 
L 292.490579 159.26105 
L 293.125289 159.041669 
L 294.712066 158.63007 
L 297.568264 157.367627 
L 299.155041 156.807254 
L 302.64595 155.453634 
L 303.598017 155.182806 
L 304.550083 154.776578 
L 305.819504 154.23141 
L 307.723636 153.425171 
L 308.358347 153.206694 
L 310.579835 152.146386 
L 310.89719 151.905822 
L 311.849256 151.608104 
L 313.436033 151.011841 
L 314.705455 150.51545 
L 315.657521 150.022114 
L 316.609587 149.681269 
L 317.244298 149.515839 
L 322.956694 147.048391 
L 323.591405 146.844677 
L 324.226116 146.607263 
L 325.495537 146.039944 
L 326.130248 145.827673 
L 326.764959 145.428247 
L 327.399669 145.177954 
L 328.986446 144.436176 
L 330.573223 143.864742 
L 331.207934 143.662548 
L 331.842645 143.230924 
L 333.429421 142.538151 
L 333.746777 142.19955 
L 335.016198 141.737294 
L 336.602975 141.109105 
L 338.507107 140.245595 
L 339.141818 139.801226 
L 341.680661 138.507426 
L 342.315372 137.880271 
L 343.902149 137.131755 
L 344.53686 136.633899 
L 345.806281 136.046832 
L 346.440992 135.759481 
L 346.758347 135.684305 
L 347.075702 135.337494 
L 348.027769 134.951631 
L 348.979835 134.42597 
L 350.566612 133.717286 
L 352.153388 132.641381 
L 352.788099 132.297587 
L 353.42281 131.75598 
L 354.692231 131.233478 
L 355.009587 130.848059 
L 356.596364 130.115031 
L 358.500496 129.307588 
L 358.817851 128.934483 
L 359.135207 128.85154 
L 360.087273 128.162877 
L 360.404628 128.046625 
L 360.721983 127.732146 
L 361.039339 127.632266 
L 361.356694 127.237717 
L 361.67405 127.125308 
L 362.943471 125.966873 
L 363.260826 125.856968 
L 363.895537 125.371571 
L 364.847603 124.786622 
L 365.164959 124.521603 
L 365.482314 123.967708 
L 366.117025 123.651304 
L 367.069091 122.632016 
L 367.703802 122.217088 
L 368.021157 121.846651 
L 369.607934 120.978327 
L 369.925289 120.593166 
L 370.242645 120.521753 
L 371.512066 119.685984 
L 372.464132 118.732187 
L 372.781488 118.581928 
L 373.098843 118.086188 
L 375.002975 116.769267 
L 375.637686 116.135546 
L 376.272397 115.429278 
L 377.224463 114.753553 
L 379.44595 113.009392 
L 379.763306 112.522164 
L 380.080661 112.351876 
L 381.032727 110.870226 
L 381.350083 110.64359 
L 382.619504 109.154835 
L 382.93686 108.846386 
L 383.254215 108.192988 
L 383.888926 107.525305 
L 384.206281 106.954974 
L 384.840992 106.551339 
L 385.475702 105.689032 
L 386.427769 104.594351 
L 387.062479 102.398944 
L 387.379835 102.313961 
L 387.69719 101.62487 
L 388.331901 101.165426 
L 390.236033 98.006205 
L 390.553388 97.876396 
L 390.870744 97.463879 
L 392.140165 94.971208 
L 392.457521 93.296002 
L 393.092231 91.971631 
L 393.409587 91.580963 
L 393.726942 90.947607 
L 394.044298 90.771926 
L 394.361653 86.656258 
L 394.679008 85.917071 
L 394.996364 85.461503 
L 395.313719 84.584155 
L 395.631074 84.053087 
L 395.94843 82.35728 
L 396.265785 82.067709 
L 396.58314 80.624175 
L 396.900496 75.408422 
L 397.535207 71.821762 
L 398.169917 66.677004 
L 398.487273 53.568 
L 398.487273 53.568 
" clip-path="url(#p4a91aaa189)" style="fill: none; stroke: #1f77b4; stroke-width: 1.5; stroke-linecap: square"/>
   </g>
   <g id="line2d_15">
    <path d="M 73.832727 275.516419 
L 74.150083 264.762116 
L 74.467438 264.762116 
L 74.784793 255.569377 
L 75.102149 253.659915 
L 75.73686 253.659915 
L 76.054215 250.220363 
L 76.37157 244.413922 
L 76.688926 244.05768 
L 77.006281 244.05768 
L 77.323636 243.159234 
L 78.910413 243.159234 
L 79.227769 239.88348 
L 79.545124 239.88348 
L 79.862479 238.697667 
L 80.179835 237.965055 
L 80.49719 237.965055 
L 80.814545 234.34278 
L 81.131901 232.637746 
L 82.083967 232.608429 
L 82.401322 231.599315 
L 86.844298 231.54202 
L 87.161653 230.989482 
L 87.479008 228.364682 
L 87.796364 227.784435 
L 88.113719 226.875758 
L 89.700496 226.875758 
L 90.017851 225.714738 
L 90.652562 225.714738 
L 90.969917 224.36604 
L 91.287273 224.36604 
L 91.604628 223.663474 
L 91.921983 221.856365 
L 99.221157 221.856365 
L 99.538512 220.779571 
L 99.855868 220.779571 
L 100.173223 220.524863 
L 101.76 220.524863 
L 102.077355 219.408736 
L 103.664132 219.408736 
L 103.981488 219.156979 
L 104.298843 218.721786 
L 104.933554 218.721786 
L 105.250909 217.191168 
L 106.202975 217.114029 
L 106.520331 213.659676 
L 107.155041 213.318362 
L 107.472397 213.318362 
L 107.789752 212.522924 
L 109.376529 212.522924 
L 109.693884 210.7772 
L 110.01124 210.7772 
L 110.328595 208.848724 
L 129.369917 208.848644 
L 129.687273 207.752757 
L 130.321983 206.722064 
L 131.27405 206.656351 
L 131.591405 205.759865 
L 131.90876 205.759865 
L 132.226116 205.555048 
L 132.860826 205.555048 
L 133.178182 203.829251 
L 133.495537 203.829251 
L 133.812893 203.467871 
L 135.399669 203.467871 
L 135.717025 201.996145 
L 136.03438 201.79769 
L 136.351736 201.465402 
L 136.986446 201.381622 
L 163.009587 201.381622 
L 163.326942 199.854159 
L 167.135207 199.854159 
L 167.452562 199.575007 
L 167.769917 199.575007 
L 168.087273 197.684573 
L 168.404628 197.684573 
L 168.721983 197.179982 
L 169.356694 197.179982 
L 169.67405 196.85436 
L 169.991405 196.07444 
L 171.578182 196.07444 
L 172.212893 195.524541 
L 172.530248 195.524541 
L 172.847603 195.291248 
L 180.146777 195.291248 
L 180.464132 194.889691 
L 180.781488 194.889691 
L 181.098843 194.49581 
L 182.68562 194.49581 
L 183.320331 190.82153 
L 185.541818 190.788846 
L 185.859174 190.57537 
L 186.493884 190.57537 
L 186.81124 190.25292 
L 187.128595 189.444882 
L 187.44595 189.444882 
L 187.763306 188.897607 
L 188.080661 188.897607 
L 188.398017 186.612876 
L 188.715372 183.354508 
L 283.604628 183.354508 
L 284.239339 177.811409 
L 284.556694 177.811409 
L 284.87405 177.264134 
L 285.191405 177.264134 
L 285.50876 176.456096 
L 285.826116 176.133646 
L 286.460826 176.133646 
L 286.778182 175.92017 
L 288.999669 175.887486 
L 289.63438 172.213206 
L 291.221157 172.213206 
L 291.538512 171.819324 
L 291.855868 171.819324 
L 292.173223 171.417768 
L 299.472397 171.417768 
L 299.789752 171.184475 
L 300.107107 171.184475 
L 300.741818 170.634576 
L 302.328595 170.634576 
L 302.64595 169.854655 
L 302.963306 169.529034 
L 303.598017 169.529034 
L 303.915372 169.024442 
L 304.232727 169.024442 
L 304.550083 167.134008 
L 304.867438 167.134008 
L 305.184793 166.854857 
L 308.993058 166.854857 
L 309.310413 165.327394 
L 335.968264 165.243614 
L 336.602975 164.712871 
L 336.920331 163.241145 
L 338.507107 163.241145 
L 338.824463 162.879764 
L 339.141818 162.879764 
L 339.459174 161.153967 
L 340.093884 161.153967 
L 340.41124 160.94915 
L 340.728595 160.94915 
L 341.04595 160.052664 
L 341.680661 159.986951 
L 341.998017 159.986951 
L 342.315372 159.588024 
L 342.632727 158.956259 
L 342.950083 157.860372 
L 361.991405 157.860292 
L 362.30876 155.931815 
L 362.626116 155.931815 
L 362.943471 154.186092 
L 364.530248 154.186092 
L 364.847603 153.390654 
L 365.164959 153.390654 
L 365.799669 153.049339 
L 366.117025 149.594987 
L 367.069091 149.517847 
L 367.386446 147.98723 
L 368.021157 147.98723 
L 368.655868 147.300279 
L 370.242645 147.300279 
L 370.56 146.184152 
L 372.146777 146.184152 
L 372.464132 145.929444 
L 372.781488 145.929444 
L 373.098843 144.85265 
L 380.398017 144.85265 
L 380.715372 143.045542 
L 381.032727 142.342976 
L 381.350083 142.342976 
L 381.667438 140.994278 
L 382.302149 140.994278 
L 382.619504 139.833257 
L 384.206281 139.833257 
L 384.840992 138.344333 
L 385.158347 135.719534 
L 385.475702 135.166995 
L 389.918678 135.109701 
L 390.236033 134.100586 
L 391.188099 134.071269 
L 391.505455 132.366235 
L 391.82281 128.74396 
L 392.140165 128.74396 
L 392.457521 128.011348 
L 392.774876 126.825536 
L 393.092231 126.825536 
L 393.409587 123.549781 
L 394.996364 123.549781 
L 395.313719 122.651335 
L 395.631074 122.651335 
L 395.94843 122.295093 
L 396.265785 116.488653 
L 396.58314 113.0491 
L 397.217851 113.0491 
L 397.535207 111.139638 
L 397.852562 101.946899 
L 398.169917 101.946899 
L 398.487273 91.192596 
L 398.487273 91.192596 
" clip-path="url(#p4a91aaa189)" style="fill: none; stroke: #ff7f0e; stroke-width: 1.5; stroke-linecap: square"/>
   </g>
   <g id="patch_3">
    <path d="M 57.6 307.584 
L 57.6 41.472 
" style="fill: none; stroke: #000000; stroke-width: 0.8; stroke-linejoin: miter; stroke-linecap: square"/>
   </g>
   <g id="patch_4">
    <path d="M 414.72 307.584 
L 414.72 41.472 
" style="fill: none; stroke: #000000; stroke-width: 0.8; stroke-linejoin: miter; stroke-linecap: square"/>
   </g>
   <g id="patch_5">
    <path d="M 57.6 307.584 
L 414.72 307.584 
" style="fill: none; stroke: #000000; stroke-width: 0.8; stroke-linejoin: miter; stroke-linecap: square"/>
   </g>
   <g id="patch_6">
    <path d="M 57.6 41.472 
L 414.72 41.472 
" style="fill: none; stroke: #000000; stroke-width: 0.8; stroke-linejoin: miter; stroke-linecap: square"/>
   </g>
   <g id="legend_1">
    <g id="patch_7">
     <path d="M 64.6 78.82825 
L 129.342187 78.82825 
Q 131.342187 78.82825 131.342187 76.82825 
L 131.342187 48.472 
Q 131.342187 46.472 129.342187 46.472 
L 64.6 46.472 
Q 62.6 46.472 62.6 48.472 
L 62.6 76.82825 
Q 62.6 78.82825 64.6 78.82825 
z
" style="fill: #ffffff; opacity: 0.8; stroke: #cccccc; stroke-linejoin: miter"/>
    </g>
    <g id="line2d_16">
     <path d="M 66.6 54.570437 
L 76.6 54.570437 
L 86.6 54.570437 
" style="fill: none; stroke: #1f77b4; stroke-width: 1.5; stroke-linecap: square"/>
    </g>
    <g id="text_16">
     <!-- qc -->
     <g transform="translate(94.6 58.070437) scale(0.1 -0.1)">
      <defs>
       <path id="DejaVuSans-71" d="M 947 1747 
Q 947 1113 1208 752 
Q 1469 391 1925 391 
Q 2381 391 2643 752 
Q 2906 1113 2906 1747 
Q 2906 2381 2643 2742 
Q 2381 3103 1925 3103 
Q 1469 3103 1208 2742 
Q 947 2381 947 1747 
z
M 2906 525 
Q 2725 213 2448 61 
Q 2172 -91 1784 -91 
Q 1150 -91 751 415 
Q 353 922 353 1747 
Q 353 2572 751 3078 
Q 1150 3584 1784 3584 
Q 2172 3584 2448 3432 
Q 2725 3281 2906 2969 
L 2906 3500 
L 3481 3500 
L 3481 -1331 
L 2906 -1331 
L 2906 525 
z
" transform="scale(0.015625)"/>
       <path id="DejaVuSans-63" d="M 3122 3366 
L 3122 2828 
Q 2878 2963 2633 3030 
Q 2388 3097 2138 3097 
Q 1578 3097 1268 2742 
Q 959 2388 959 1747 
Q 959 1106 1268 751 
Q 1578 397 2138 397 
Q 2388 397 2633 464 
Q 2878 531 3122 666 
L 3122 134 
Q 2881 22 2623 -34 
Q 2366 -91 2075 -91 
Q 1284 -91 818 406 
Q 353 903 353 1747 
Q 353 2603 823 3093 
Q 1294 3584 2113 3584 
Q 2378 3584 2631 3529 
Q 2884 3475 3122 3366 
z
" transform="scale(0.015625)"/>
      </defs>
      <use xlink:href="#DejaVuSans-71"/>
      <use xlink:href="#DejaVuSans-63" x="63.476562"/>
     </g>
    </g>
    <g id="line2d_17">
     <path d="M 66.6 69.248562 
L 76.6 69.248562 
L 86.6 69.248562 
" style="fill: none; stroke: #ff7f0e; stroke-width: 1.5; stroke-linecap: square"/>
    </g>
    <g id="text_17">
     <!-- Trotter -->
     <g transform="translate(94.6 72.748562) scale(0.1 -0.1)">
      <defs>
       <path id="DejaVuSans-54" d="M -19 4666 
L 3928 4666 
L 3928 4134 
L 2272 4134 
L 2272 0 
L 1638 0 
L 1638 4134 
L -19 4134 
L -19 4666 
z
" transform="scale(0.015625)"/>
       <path id="DejaVuSans-72" d="M 2631 2963 
Q 2534 3019 2420 3045 
Q 2306 3072 2169 3072 
Q 1681 3072 1420 2755 
Q 1159 2438 1159 1844 
L 1159 0 
L 581 0 
L 581 3500 
L 1159 3500 
L 1159 2956 
Q 1341 3275 1631 3429 
Q 1922 3584 2338 3584 
Q 2397 3584 2469 3576 
Q 2541 3569 2628 3553 
L 2631 2963 
z
" transform="scale(0.015625)"/>
       <path id="DejaVuSans-6f" d="M 1959 3097 
Q 1497 3097 1228 2736 
Q 959 2375 959 1747 
Q 959 1119 1226 758 
Q 1494 397 1959 397 
Q 2419 397 2687 759 
Q 2956 1122 2956 1747 
Q 2956 2369 2687 2733 
Q 2419 3097 1959 3097 
z
M 1959 3584 
Q 2709 3584 3137 3096 
Q 3566 2609 3566 1747 
Q 3566 888 3137 398 
Q 2709 -91 1959 -91 
Q 1206 -91 779 398 
Q 353 888 353 1747 
Q 353 2609 779 3096 
Q 1206 3584 1959 3584 
z
" transform="scale(0.015625)"/>
       <path id="DejaVuSans-65" d="M 3597 1894 
L 3597 1613 
L 953 1613 
Q 991 1019 1311 708 
Q 1631 397 2203 397 
Q 2534 397 2845 478 
Q 3156 559 3463 722 
L 3463 178 
Q 3153 47 2828 -22 
Q 2503 -91 2169 -91 
Q 1331 -91 842 396 
Q 353 884 353 1716 
Q 353 2575 817 3079 
Q 1281 3584 2069 3584 
Q 2775 3584 3186 3129 
Q 3597 2675 3597 1894 
z
M 3022 2063 
Q 3016 2534 2758 2815 
Q 2500 3097 2075 3097 
Q 1594 3097 1305 2825 
Q 1016 2553 972 2059 
L 3022 2063 
z
" transform="scale(0.015625)"/>
      </defs>
      <use xlink:href="#DejaVuSans-54"/>
      <use xlink:href="#DejaVuSans-72" x="46.333984"/>
      <use xlink:href="#DejaVuSans-6f" x="85.197266"/>
      <use xlink:href="#DejaVuSans-74" x="146.378906"/>
      <use xlink:href="#DejaVuSans-74" x="185.587891"/>
      <use xlink:href="#DejaVuSans-65" x="224.796875"/>
      <use xlink:href="#DejaVuSans-72" x="286.320312"/>
     </g>
    </g>
   </g>
  </g>
 </g>
 <defs>
  <clipPath id="p4a91aaa189">
   <rect x="57.6" y="41.472" width="357.12" height="266.112"/>
  </clipPath>
 </defs>
</svg>
