<?xml version="1.0" encoding="utf-8" standalone="no"?>
<!DOCTYPE svg PUBLIC "-//W3C//DTD SVG 1.1//EN"
  "http://www.w3.org/Graphics/SVG/1.1/DTD/svg11.dtd">
<svg xmlns:xlink="http://www.w3.org/1999/xlink" width="460.8pt" height="345.6pt" viewBox="0 0 460.8 345.6" xmlns="http://www.w3.org/2000/svg" version="1.1">
 <metadata>
  <rdf:RDF xmlns:dc="http://purl.org/dc/elements/1.1/" xmlns:cc="http://creativecommons.org/ns#" xmlns:rdf="http://www.w3.org/1999/02/22-rdf-syntax-ns#">
   <cc:Work>
    <dc:type rdf:resource="http://purl.org/dc/dcmitype/StillImage"/>
    <dc:date>2024-08-23T11:50:00.164753</dc:date>
    <dc:format>image/svg+xml</dc:format>
    <dc:creator>
     <cc:Agent>
      <dc:title>Matplotlib v3.7.1, https://matplotlib.org/</dc:title>
     </cc:Agent>
    </dc:creator>
   </cc:Work>
  </rdf:RDF>
 </metadata>
 <defs>
  <style type="text/css">*{stroke-linejoin: round; stroke-linecap: butt}</style>
 </defs>
 <g id="figure_1">
  <g id="patch_1">
   <path d="M 0 345.6 
L 460.8 345.6 
L 460.8 0 
L 0 0 
z
" style="fill: #ffffff"/>
  </g>
  <g id="axes_1">
   <g id="patch_2">
    <path d="M 57.6 307.584 
L 414.72 307.584 
L 414.72 41.472 
L 57.6 41.472 
z
" style="fill: #ffffff"/>
   </g>
   <g id="matplotlib.axis_1">
    <g id="xtick_1">
     <g id="line2d_1">
      <defs>
       <path id="m16f80e4bfd" d="M 0 0 
L 0 3.5 
" style="stroke: #000000; stroke-width: 0.8"/>
      </defs>
      <g>
       <use xlink:href="#m16f80e4bfd" x="73.832727" y="307.584" style="stroke: #000000; stroke-width: 0.8"/>
      </g>
     </g>
     <g id="text_1">
      <!-- 0 -->
      <g transform="translate(70.651477 322.182437) scale(0.1 -0.1)">
       <defs>
        <path id="DejaVuSans-30" d="M 2034 4250 
Q 1547 4250 1301 3770 
Q 1056 3291 1056 2328 
Q 1056 1369 1301 889 
Q 1547 409 2034 409 
Q 2525 409 2770 889 
Q 3016 1369 3016 2328 
Q 3016 3291 2770 3770 
Q 2525 4250 2034 4250 
z
M 2034 4750 
Q 2819 4750 3233 4129 
Q 3647 3509 3647 2328 
Q 3647 1150 3233 529 
Q 2819 -91 2034 -91 
Q 1250 -91 836 529 
Q 422 1150 422 2328 
Q 422 3509 836 4129 
Q 1250 4750 2034 4750 
z
" transform="scale(0.015625)"/>
       </defs>
       <use xlink:href="#DejaVuSans-30"/>
      </g>
     </g>
    </g>
    <g id="xtick_2">
     <g id="line2d_2">
      <g>
       <use xlink:href="#m16f80e4bfd" x="137.303802" y="307.584" style="stroke: #000000; stroke-width: 0.8"/>
      </g>
     </g>
     <g id="text_2">
      <!-- 200 -->
      <g transform="translate(127.760052 322.182437) scale(0.1 -0.1)">
       <defs>
        <path id="DejaVuSans-32" d="M 1228 531 
L 3431 531 
L 3431 0 
L 469 0 
L 469 531 
Q 828 903 1448 1529 
Q 2069 2156 2228 2338 
Q 2531 2678 2651 2914 
Q 2772 3150 2772 3378 
Q 2772 3750 2511 3984 
Q 2250 4219 1831 4219 
Q 1534 4219 1204 4116 
Q 875 4013 500 3803 
L 500 4441 
Q 881 4594 1212 4672 
Q 1544 4750 1819 4750 
Q 2544 4750 2975 4387 
Q 3406 4025 3406 3419 
Q 3406 3131 3298 2873 
Q 3191 2616 2906 2266 
Q 2828 2175 2409 1742 
Q 1991 1309 1228 531 
z
" transform="scale(0.015625)"/>
       </defs>
       <use xlink:href="#DejaVuSans-32"/>
       <use xlink:href="#DejaVuSans-30" x="63.623047"/>
       <use xlink:href="#DejaVuSans-30" x="127.246094"/>
      </g>
     </g>
    </g>
    <g id="xtick_3">
     <g id="line2d_3">
      <g>
       <use xlink:href="#m16f80e4bfd" x="200.774876" y="307.584" style="stroke: #000000; stroke-width: 0.8"/>
      </g>
     </g>
     <g id="text_3">
      <!-- 400 -->
      <g transform="translate(191.231126 322.182437) scale(0.1 -0.1)">
       <defs>
        <path id="DejaVuSans-34" d="M 2419 4116 
L 825 1625 
L 2419 1625 
L 2419 4116 
z
M 2253 4666 
L 3047 4666 
L 3047 1625 
L 3713 1625 
L 3713 1100 
L 3047 1100 
L 3047 0 
L 2419 0 
L 2419 1100 
L 313 1100 
L 313 1709 
L 2253 4666 
z
" transform="scale(0.015625)"/>
       </defs>
       <use xlink:href="#DejaVuSans-34"/>
       <use xlink:href="#DejaVuSans-30" x="63.623047"/>
       <use xlink:href="#DejaVuSans-30" x="127.246094"/>
      </g>
     </g>
    </g>
    <g id="xtick_4">
     <g id="line2d_4">
      <g>
       <use xlink:href="#m16f80e4bfd" x="264.24595" y="307.584" style="stroke: #000000; stroke-width: 0.8"/>
      </g>
     </g>
     <g id="text_4">
      <!-- 600 -->
      <g transform="translate(254.7022 322.182437) scale(0.1 -0.1)">
       <defs>
        <path id="DejaVuSans-36" d="M 2113 2584 
Q 1688 2584 1439 2293 
Q 1191 2003 1191 1497 
Q 1191 994 1439 701 
Q 1688 409 2113 409 
Q 2538 409 2786 701 
Q 3034 994 3034 1497 
Q 3034 2003 2786 2293 
Q 2538 2584 2113 2584 
z
M 3366 4563 
L 3366 3988 
Q 3128 4100 2886 4159 
Q 2644 4219 2406 4219 
Q 1781 4219 1451 3797 
Q 1122 3375 1075 2522 
Q 1259 2794 1537 2939 
Q 1816 3084 2150 3084 
Q 2853 3084 3261 2657 
Q 3669 2231 3669 1497 
Q 3669 778 3244 343 
Q 2819 -91 2113 -91 
Q 1303 -91 875 529 
Q 447 1150 447 2328 
Q 447 3434 972 4092 
Q 1497 4750 2381 4750 
Q 2619 4750 2861 4703 
Q 3103 4656 3366 4563 
z
" transform="scale(0.015625)"/>
       </defs>
       <use xlink:href="#DejaVuSans-36"/>
       <use xlink:href="#DejaVuSans-30" x="63.623047"/>
       <use xlink:href="#DejaVuSans-30" x="127.246094"/>
      </g>
     </g>
    </g>
    <g id="xtick_5">
     <g id="line2d_5">
      <g>
       <use xlink:href="#m16f80e4bfd" x="327.717025" y="307.584" style="stroke: #000000; stroke-width: 0.8"/>
      </g>
     </g>
     <g id="text_5">
      <!-- 800 -->
      <g transform="translate(318.173275 322.182437) scale(0.1 -0.1)">
       <defs>
        <path id="DejaVuSans-38" d="M 2034 2216 
Q 1584 2216 1326 1975 
Q 1069 1734 1069 1313 
Q 1069 891 1326 650 
Q 1584 409 2034 409 
Q 2484 409 2743 651 
Q 3003 894 3003 1313 
Q 3003 1734 2745 1975 
Q 2488 2216 2034 2216 
z
M 1403 2484 
Q 997 2584 770 2862 
Q 544 3141 544 3541 
Q 544 4100 942 4425 
Q 1341 4750 2034 4750 
Q 2731 4750 3128 4425 
Q 3525 4100 3525 3541 
Q 3525 3141 3298 2862 
Q 3072 2584 2669 2484 
Q 3125 2378 3379 2068 
Q 3634 1759 3634 1313 
Q 3634 634 3220 271 
Q 2806 -91 2034 -91 
Q 1263 -91 848 271 
Q 434 634 434 1313 
Q 434 1759 690 2068 
Q 947 2378 1403 2484 
z
M 1172 3481 
Q 1172 3119 1398 2916 
Q 1625 2713 2034 2713 
Q 2441 2713 2670 2916 
Q 2900 3119 2900 3481 
Q 2900 3844 2670 4047 
Q 2441 4250 2034 4250 
Q 1625 4250 1398 4047 
Q 1172 3844 1172 3481 
z
" transform="scale(0.015625)"/>
       </defs>
       <use xlink:href="#DejaVuSans-38"/>
       <use xlink:href="#DejaVuSans-30" x="63.623047"/>
       <use xlink:href="#DejaVuSans-30" x="127.246094"/>
      </g>
     </g>
    </g>
    <g id="xtick_6">
     <g id="line2d_6">
      <g>
       <use xlink:href="#m16f80e4bfd" x="391.188099" y="307.584" style="stroke: #000000; stroke-width: 0.8"/>
      </g>
     </g>
     <g id="text_6">
      <!-- 1000 -->
      <g transform="translate(378.463099 322.182437) scale(0.1 -0.1)">
       <defs>
        <path id="DejaVuSans-31" d="M 794 531 
L 1825 531 
L 1825 4091 
L 703 3866 
L 703 4441 
L 1819 4666 
L 2450 4666 
L 2450 531 
L 3481 531 
L 3481 0 
L 794 0 
L 794 531 
z
" transform="scale(0.015625)"/>
       </defs>
       <use xlink:href="#DejaVuSans-31"/>
       <use xlink:href="#DejaVuSans-30" x="63.623047"/>
       <use xlink:href="#DejaVuSans-30" x="127.246094"/>
       <use xlink:href="#DejaVuSans-30" x="190.869141"/>
      </g>
     </g>
    </g>
    <g id="text_7">
     <!-- n -->
     <g transform="translate(232.99125 335.860562) scale(0.1 -0.1)">
      <defs>
       <path id="DejaVuSans-6e" d="M 3513 2113 
L 3513 0 
L 2938 0 
L 2938 2094 
Q 2938 2591 2744 2837 
Q 2550 3084 2163 3084 
Q 1697 3084 1428 2787 
Q 1159 2491 1159 1978 
L 1159 0 
L 581 0 
L 581 3500 
L 1159 3500 
L 1159 2956 
Q 1366 3272 1645 3428 
Q 1925 3584 2291 3584 
Q 2894 3584 3203 3211 
Q 3513 2838 3513 2113 
z
" transform="scale(0.015625)"/>
      </defs>
      <use xlink:href="#DejaVuSans-6e"/>
     </g>
    </g>
   </g>
   <g id="matplotlib.axis_2">
    <g id="ytick_1">
     <g id="line2d_7">
      <defs>
       <path id="m30cd7e5d6c" d="M 0 0 
L -3.5 0 
" style="stroke: #000000; stroke-width: 0.8"/>
      </defs>
      <g>
       <use xlink:href="#m30cd7e5d6c" x="57.6" y="307.335692" style="stroke: #000000; stroke-width: 0.8"/>
      </g>
     </g>
     <g id="text_8">
      <!-- −6 -->
      <g transform="translate(35.857813 311.134911) scale(0.1 -0.1)">
       <defs>
        <path id="DejaVuSans-2212" d="M 678 2272 
L 4684 2272 
L 4684 1741 
L 678 1741 
L 678 2272 
z
" transform="scale(0.015625)"/>
       </defs>
       <use xlink:href="#DejaVuSans-2212"/>
       <use xlink:href="#DejaVuSans-36" x="83.789062"/>
      </g>
     </g>
    </g>
    <g id="ytick_2">
     <g id="line2d_8">
      <g>
       <use xlink:href="#m30cd7e5d6c" x="57.6" y="261.662827" style="stroke: #000000; stroke-width: 0.8"/>
      </g>
     </g>
     <g id="text_9">
      <!-- −4 -->
      <g transform="translate(35.857813 265.462046) scale(0.1 -0.1)">
       <use xlink:href="#DejaVuSans-2212"/>
       <use xlink:href="#DejaVuSans-34" x="83.789062"/>
      </g>
     </g>
    </g>
    <g id="ytick_3">
     <g id="line2d_9">
      <g>
       <use xlink:href="#m30cd7e5d6c" x="57.6" y="215.989962" style="stroke: #000000; stroke-width: 0.8"/>
      </g>
     </g>
     <g id="text_10">
      <!-- −2 -->
      <g transform="translate(35.857813 219.78918) scale(0.1 -0.1)">
       <use xlink:href="#DejaVuSans-2212"/>
       <use xlink:href="#DejaVuSans-32" x="83.789062"/>
      </g>
     </g>
    </g>
    <g id="ytick_4">
     <g id="line2d_10">
      <g>
       <use xlink:href="#m30cd7e5d6c" x="57.6" y="170.317096" style="stroke: #000000; stroke-width: 0.8"/>
      </g>
     </g>
     <g id="text_11">
      <!-- 0 -->
      <g transform="translate(44.2375 174.116315) scale(0.1 -0.1)">
       <use xlink:href="#DejaVuSans-30"/>
      </g>
     </g>
    </g>
    <g id="ytick_5">
     <g id="line2d_11">
      <g>
       <use xlink:href="#m30cd7e5d6c" x="57.6" y="124.644231" style="stroke: #000000; stroke-width: 0.8"/>
      </g>
     </g>
     <g id="text_12">
      <!-- 2 -->
      <g transform="translate(44.2375 128.44345) scale(0.1 -0.1)">
       <use xlink:href="#DejaVuSans-32"/>
      </g>
     </g>
    </g>
    <g id="ytick_6">
     <g id="line2d_12">
      <g>
       <use xlink:href="#m30cd7e5d6c" x="57.6" y="78.971366" style="stroke: #000000; stroke-width: 0.8"/>
      </g>
     </g>
     <g id="text_13">
      <!-- 4 -->
      <g transform="translate(44.2375 82.770585) scale(0.1 -0.1)">
       <use xlink:href="#DejaVuSans-34"/>
      </g>
     </g>
    </g>
    <g id="text_14">
     <!-- E*t -->
     <g transform="translate(29.778125 182.147531) rotate(-90) scale(0.1 -0.1)">
      <defs>
       <path id="DejaVuSans-45" d="M 628 4666 
L 3578 4666 
L 3578 4134 
L 1259 4134 
L 1259 2753 
L 3481 2753 
L 3481 2222 
L 1259 2222 
L 1259 531 
L 3634 531 
L 3634 0 
L 628 0 
L 628 4666 
z
" transform="scale(0.015625)"/>
       <path id="DejaVuSans-2a" d="M 3009 3897 
L 1888 3291 
L 3009 2681 
L 2828 2375 
L 1778 3009 
L 1778 1831 
L 1422 1831 
L 1422 3009 
L 372 2375 
L 191 2681 
L 1313 3291 
L 191 3897 
L 372 4206 
L 1422 3572 
L 1422 4750 
L 1778 4750 
L 1778 3572 
L 2828 4206 
L 3009 3897 
z
" transform="scale(0.015625)"/>
       <path id="DejaVuSans-74" d="M 1172 4494 
L 1172 3500 
L 2356 3500 
L 2356 3053 
L 1172 3053 
L 1172 1153 
Q 1172 725 1289 603 
Q 1406 481 1766 481 
L 2356 481 
L 2356 0 
L 1766 0 
Q 1100 0 847 248 
Q 594 497 594 1153 
L 594 3053 
L 172 3053 
L 172 3500 
L 594 3500 
L 594 4494 
L 1172 4494 
z
" transform="scale(0.015625)"/>
      </defs>
      <use xlink:href="#DejaVuSans-45"/>
      <use xlink:href="#DejaVuSans-2a" x="63.183594"/>
      <use xlink:href="#DejaVuSans-74" x="113.183594"/>
     </g>
    </g>
   </g>
   <g id="line2d_13">
    <path d="M 73.832727 295.488 
L 74.150083 281.842799 
L 74.467438 281.082831 
L 74.784793 269.280242 
L 75.102149 267.504881 
L 75.419504 267.145807 
L 75.73686 267.101926 
L 76.054215 264.083201 
L 76.37157 256.757344 
L 76.688926 255.194728 
L 77.006281 254.75495 
L 77.640992 254.467045 
L 77.958347 253.652092 
L 78.910413 253.182223 
L 79.545124 250.256827 
L 80.179835 248.507929 
L 80.49719 248.361615 
L 80.814545 247.515885 
L 81.449256 243.404967 
L 82.083967 241.529416 
L 82.401322 240.819391 
L 82.718678 240.701779 
L 83.036033 240.22324 
L 84.940165 239.32928 
L 85.257521 238.714037 
L 85.892231 238.508777 
L 86.209587 237.814295 
L 86.526942 237.798477 
L 86.844298 237.479227 
L 87.161653 236.679427 
L 87.479008 236.45199 
L 88.113719 234.792398 
L 89.065785 233.77694 
L 89.38314 233.711798 
L 89.700496 233.225169 
L 90.969917 232.642183 
L 91.287273 232.009152 
L 91.604628 231.997742 
L 91.921983 231.726458 
L 92.239339 231.184473 
L 93.191405 230.372039 
L 93.50876 230.327402 
L 93.826116 230.091583 
L 94.143471 228.921142 
L 94.778182 228.441434 
L 95.095537 227.772173 
L 95.412893 227.683566 
L 96.047603 226.876472 
L 96.364959 226.697407 
L 96.682314 226.274124 
L 97.63438 225.907225 
L 98.586446 225.284108 
L 98.903802 225.164019 
L 99.221157 224.839461 
L 99.855868 224.686585 
L 100.490579 224.179618 
L 101.125289 224.033718 
L 102.712066 222.978593 
L 103.029421 222.715287 
L 103.664132 222.585142 
L 104.298843 221.982082 
L 104.616198 221.950493 
L 104.933554 221.521773 
L 105.250909 221.449098 
L 105.568264 220.761641 
L 105.88562 220.340576 
L 106.202975 220.238217 
L 106.520331 219.500482 
L 106.837686 219.259708 
L 107.155041 218.724261 
L 107.789752 218.404991 
L 108.107107 217.553663 
L 109.376529 216.473129 
L 109.693884 216.407608 
L 110.328595 215.820795 
L 110.963306 215.504973 
L 111.598017 214.616808 
L 112.232727 214.457359 
L 112.867438 214.190834 
L 114.77157 213.548033 
L 115.088926 213.255978 
L 115.406281 213.223393 
L 117.627769 212.068813 
L 119.531901 211.277796 
L 121.436033 210.492873 
L 122.070744 210.356982 
L 122.388099 210.137435 
L 122.705455 210.100264 
L 123.657521 209.698331 
L 127.14843 208.609787 
L 127.465785 208.348551 
L 128.100496 208.255124 
L 128.735207 208.044462 
L 130.956694 207.271794 
L 131.90876 207.066424 
L 132.226116 206.841318 
L 134.130248 206.299806 
L 134.447603 206.075835 
L 136.986446 205.427955 
L 137.621157 205.122666 
L 138.255868 205.016943 
L 138.890579 204.679564 
L 139.525289 204.498028 
L 140.16 204.212302 
L 140.477355 204.147351 
L 141.112066 203.853701 
L 143.016198 203.411783 
L 147.141818 202.400413 
L 147.459174 202.11691 
L 148.093884 201.964994 
L 152.219504 200.752807 
L 152.53686 200.385889 
L 153.488926 200.20832 
L 155.710413 199.419696 
L 159.518678 198.428747 
L 159.836033 198.232267 
L 160.788099 197.997056 
L 162.692231 197.481995 
L 163.326942 197.345201 
L 165.231074 196.660144 
L 167.452562 196.106834 
L 168.721983 195.580328 
L 170.943471 194.972168 
L 172.212893 194.43328 
L 172.530248 194.1178 
L 177.607934 192.537697 
L 177.925289 192.479637 
L 178.56 192.167036 
L 179.829421 191.685703 
L 180.464132 191.275442 
L 182.050909 190.849769 
L 187.44595 188.977779 
L 188.080661 188.796491 
L 188.715372 188.352107 
L 189.032727 188.135393 
L 189.984793 187.860616 
L 190.302149 187.778424 
L 190.619504 187.534615 
L 191.888926 187.250374 
L 195.69719 185.957075 
L 196.649256 185.761398 
L 197.918678 185.322952 
L 199.188099 185.095973 
L 203.313719 184.060866 
L 203.94843 183.92657 
L 206.169917 183.55934 
L 206.804628 183.394629 
L 208.391405 182.999708 
L 209.026116 182.770176 
L 213.469091 181.899222 
L 215.055868 181.589621 
L 215.690579 181.510908 
L 216.325289 181.330701 
L 219.816198 180.709253 
L 220.450909 180.636108 
L 221.08562 180.420152 
L 223.624463 180.121688 
L 225.21124 179.789321 
L 229.019504 179.078889 
L 232.827769 178.501906 
L 233.779835 178.348701 
L 235.366612 178.141338 
L 238.857521 177.692226 
L 261.072397 174.076525 
L 264.24595 173.382438 
L 265.198017 173.241574 
L 266.467438 172.939072 
L 267.419504 172.825805 
L 268.688926 172.600558 
L 269.323636 172.434257 
L 269.958347 172.343079 
L 275.670744 170.867466 
L 276.305455 170.660135 
L 277.892231 170.221194 
L 278.526942 170.005782 
L 278.844298 169.967115 
L 279.161653 169.743201 
L 279.796364 169.559545 
L 280.113719 169.373743 
L 280.74843 169.257567 
L 284.87405 167.868942 
L 285.191405 167.649395 
L 286.460826 167.365174 
L 287.095537 167.149893 
L 288.999669 166.671747 
L 289.317025 166.431171 
L 289.63438 166.330979 
L 290.586446 165.608577 
L 290.903802 165.567066 
L 291.221157 165.353373 
L 291.538512 165.291684 
L 292.173223 164.715105 
L 293.125289 164.485324 
L 298.520331 162.428325 
L 298.837686 162.416647 
L 299.472397 162.10651 
L 300.107107 161.849742 
L 300.424463 161.802333 
L 301.059174 161.56058 
L 301.693884 161.355906 
L 302.328595 161.10433 
L 302.64595 161.050722 
L 302.963306 160.86127 
L 303.598017 160.702889 
L 304.867438 160.293193 
L 305.502149 160.141066 
L 305.819504 159.920827 
L 306.77157 159.622956 
L 311.214545 158.022725 
L 311.531901 157.992119 
L 311.849256 157.808097 
L 313.118678 157.594335 
L 314.388099 157.113408 
L 315.657521 156.732337 
L 315.974876 156.458753 
L 316.609587 156.352338 
L 317.561653 156.095363 
L 323.27405 154.622743 
L 323.90876 154.252688 
L 324.860826 154.019603 
L 325.495537 153.849515 
L 326.130248 153.65069 
L 326.447603 153.461718 
L 327.082314 153.374644 
L 328.03438 153.014411 
L 332.794711 151.548432 
L 337.237686 150.337977 
L 337.555041 150.077534 
L 338.507107 149.758251 
L 338.824463 149.547272 
L 339.459174 149.393068 
L 340.093884 149.075719 
L 341.680661 148.173279 
L 342.950083 147.993088 
L 345.488926 147.082948 
L 348.027769 146.066722 
L 348.345124 146.027486 
L 349.614545 145.277765 
L 349.931901 145.238502 
L 350.566612 144.933342 
L 354.057521 143.46096 
L 354.692231 143.267474 
L 356.279008 142.562084 
L 356.596364 142.121097 
L 356.913719 142.109461 
L 357.54843 141.75242 
L 357.865785 141.687107 
L 359.452562 140.668502 
L 360.721983 140.124646 
L 361.039339 140.09385 
L 361.67405 139.538652 
L 362.30876 139.352686 
L 363.260826 138.791985 
L 363.578182 138.394748 
L 364.212893 138.154659 
L 364.847603 137.272693 
L 365.164959 136.961508 
L 365.482314 136.85372 
L 365.799669 136.327248 
L 366.117025 136.110961 
L 366.43438 136.047438 
L 366.751736 135.730238 
L 367.069091 135.710079 
L 367.386446 135.370035 
L 368.021157 135.020643 
L 368.973223 133.68109 
L 369.290579 133.620281 
L 369.607934 132.770174 
L 369.925289 132.699677 
L 370.56 132.039144 
L 371.194711 131.784727 
L 371.512066 131.762476 
L 371.829421 131.384279 
L 372.146777 131.257859 
L 372.464132 130.898843 
L 373.098843 130.676084 
L 375.320331 129.178297 
L 375.955041 129.113954 
L 376.272397 128.90238 
L 376.589752 128.422696 
L 377.224463 128.263258 
L 377.541818 128.015374 
L 378.493884 126.941942 
L 380.398017 125.615321 
L 381.032727 124.703335 
L 381.350083 124.46724 
L 381.984793 123.63048 
L 382.619504 122.974827 
L 382.93686 122.915765 
L 383.57157 121.460789 
L 383.888926 120.937753 
L 384.206281 120.797704 
L 384.523636 120.207713 
L 384.840992 120.088794 
L 385.158347 119.634735 
L 385.475702 119.608178 
L 385.793058 119.193311 
L 386.110413 118.477669 
L 386.427769 118.109588 
L 386.745124 117.999784 
L 388.014545 115.635215 
L 388.331901 115.410181 
L 388.966612 114.459329 
L 389.601322 114.17285 
L 389.918678 113.267117 
L 390.236033 112.900583 
L 390.553388 112.29874 
L 390.870744 112.128294 
L 391.188099 111.301545 
L 391.505455 108.801866 
L 391.82281 108.323229 
L 392.140165 108.183158 
L 392.774876 105.759611 
L 393.092231 105.241629 
L 393.726942 103.44764 
L 394.679008 102.516137 
L 394.996364 100.303782 
L 395.313719 99.736308 
L 395.631074 98.214253 
L 395.94843 97.560436 
L 396.265785 92.27514 
L 397.217851 89.188937 
L 397.535207 83.526585 
L 397.852562 75.45884 
L 398.169917 75.454169 
L 398.487273 61.377359 
L 398.487273 61.377359 
" clip-path="url(#pfc5911f007)" style="fill: none; stroke: #1f77b4; stroke-width: 1.5; stroke-linecap: square"/>
   </g>
   <g id="line2d_14">
    <path d="M 73.832727 287.066193 
L 74.150083 273.44283 
L 74.467438 273.44283 
L 74.784793 261.797629 
L 75.102149 259.378756 
L 75.73686 259.378756 
L 76.054215 255.021591 
L 76.37157 247.666094 
L 76.688926 247.214813 
L 77.006281 247.214813 
L 77.323636 246.076677 
L 78.910413 246.076677 
L 79.227769 241.927008 
L 79.545124 241.927008 
L 79.862479 240.424842 
L 80.179835 239.496782 
L 80.49719 239.496782 
L 80.814545 234.908147 
L 81.131901 232.74824 
L 82.083967 232.711102 
L 82.401322 231.432773 
L 86.844298 231.360194 
L 87.161653 230.660247 
L 87.479008 227.335197 
L 87.796364 226.600151 
L 88.113719 225.449054 
L 89.700496 225.449054 
L 90.017851 223.978294 
L 90.652562 223.978294 
L 90.969917 222.269787 
L 91.287273 222.269787 
L 91.604628 221.379789 
L 91.921983 219.090576 
L 99.221157 219.090576 
L 99.538512 217.726512 
L 99.855868 217.726512 
L 100.173223 217.403852 
L 101.76 217.403852 
L 102.077355 215.989962 
L 103.664132 215.989962 
L 103.981488 215.67104 
L 104.298843 215.119745 
L 104.933554 215.119745 
L 105.250909 213.180786 
L 106.202975 213.083066 
L 106.520331 208.707153 
L 107.155041 208.274782 
L 107.472397 208.274782 
L 107.789752 207.267135 
L 109.376529 207.267135 
L 109.693884 205.055683 
L 110.01124 205.055683 
L 110.328595 202.612723 
L 129.369917 202.612622 
L 129.687273 201.224371 
L 130.321983 199.918708 
L 131.27405 199.835464 
L 131.591405 198.699811 
L 131.90876 198.699811 
L 132.226116 198.440352 
L 132.860826 198.440352 
L 133.178182 196.254143 
L 133.495537 196.254143 
L 133.812893 195.796353 
L 135.399669 195.796353 
L 135.717025 193.931996 
L 136.03438 193.680597 
L 136.351736 193.25966 
L 136.986446 193.153529 
L 163.009587 193.153529 
L 163.326942 191.218565 
L 167.135207 191.218565 
L 167.452562 190.864941 
L 167.769917 190.864941 
L 168.087273 188.470173 
L 168.404628 188.470173 
L 168.721983 187.830965 
L 169.356694 187.830965 
L 169.67405 187.418473 
L 169.991405 186.430484 
L 171.578182 186.430484 
L 172.212893 185.733881 
L 172.530248 185.733881 
L 172.847603 185.43835 
L 180.146777 185.43835 
L 180.464132 184.929665 
L 180.781488 184.929665 
L 181.098843 184.430703 
L 182.68562 184.430703 
L 183.320331 179.776189 
L 185.541818 179.734785 
L 185.859174 179.464358 
L 186.493884 179.464358 
L 186.81124 179.055884 
L 187.128595 178.032276 
L 187.44595 178.032276 
L 187.763306 177.338997 
L 188.080661 177.338997 
L 188.398017 174.44474 
L 188.715372 170.317096 
L 283.604628 170.317096 
L 284.239339 163.295196 
L 284.556694 163.295196 
L 284.87405 162.601917 
L 285.191405 162.601917 
L 285.50876 161.578309 
L 285.826116 161.169835 
L 286.460826 161.169835 
L 286.778182 160.899407 
L 288.999669 160.858004 
L 289.63438 156.20349 
L 291.221157 156.20349 
L 291.538512 155.704528 
L 291.855868 155.704528 
L 292.173223 155.195843 
L 299.472397 155.195843 
L 299.789752 154.900312 
L 300.107107 154.900312 
L 300.741818 154.203709 
L 302.328595 154.203709 
L 302.64595 153.21572 
L 302.963306 152.803228 
L 303.598017 152.803228 
L 303.915372 152.16402 
L 304.232727 152.16402 
L 304.550083 149.769252 
L 304.867438 149.769252 
L 305.184793 149.415627 
L 308.993058 149.415627 
L 309.310413 147.480664 
L 335.968264 147.374533 
L 336.602975 146.702197 
L 336.920331 144.83784 
L 338.507107 144.83784 
L 338.824463 144.38005 
L 339.141818 144.38005 
L 339.459174 142.193841 
L 340.093884 142.193841 
L 340.41124 141.934382 
L 340.728595 141.934382 
L 341.04595 140.798729 
L 341.680661 140.715485 
L 341.998017 140.715485 
L 342.315372 140.210131 
L 342.632727 139.409822 
L 342.950083 138.021571 
L 361.991405 138.02147 
L 362.30876 135.578509 
L 362.626116 135.578509 
L 362.943471 133.367057 
L 364.530248 133.367057 
L 364.847603 132.359411 
L 365.164959 132.359411 
L 365.799669 131.92704 
L 366.117025 127.551126 
L 367.069091 127.453407 
L 367.386446 125.514448 
L 368.021157 125.514448 
L 368.338512 124.963153 
L 368.655868 124.644231 
L 370.242645 124.644231 
L 370.56 123.230341 
L 372.146777 123.230341 
L 372.464132 122.907681 
L 372.781488 122.907681 
L 373.098843 121.543617 
L 380.398017 121.543617 
L 380.715372 119.254404 
L 381.032727 118.364406 
L 381.350083 118.364406 
L 381.667438 116.655899 
L 382.302149 116.655899 
L 382.619504 115.185138 
L 384.206281 115.185138 
L 384.840992 113.298995 
L 385.158347 109.973945 
L 385.475702 109.273999 
L 389.918678 109.20142 
L 390.236033 107.923091 
L 391.188099 107.885953 
L 391.505455 105.726046 
L 391.82281 101.137411 
L 392.140165 101.137411 
L 392.457521 100.209351 
L 392.774876 98.707184 
L 393.092231 98.707184 
L 393.409587 94.557516 
L 394.996364 94.557516 
L 395.313719 93.41938 
L 395.631074 93.41938 
L 395.94843 92.968099 
L 396.265785 85.612602 
L 396.58314 81.255437 
L 397.217851 81.255437 
L 397.535207 78.836564 
L 397.852562 67.191363 
L 398.169917 67.191363 
L 398.487273 53.568 
L 398.487273 53.568 
" clip-path="url(#pfc5911f007)" style="fill: none; stroke: #ff7f0e; stroke-width: 1.5; stroke-linecap: square"/>
   </g>
   <g id="patch_3">
    <path d="M 57.6 307.584 
L 57.6 41.472 
" style="fill: none; stroke: #000000; stroke-width: 0.8; stroke-linejoin: miter; stroke-linecap: square"/>
   </g>
   <g id="patch_4">
    <path d="M 414.72 307.584 
L 414.72 41.472 
" style="fill: none; stroke: #000000; stroke-width: 0.8; stroke-linejoin: miter; stroke-linecap: square"/>
   </g>
   <g id="patch_5">
    <path d="M 57.6 307.584 
L 414.72 307.584 
" style="fill: none; stroke: #000000; stroke-width: 0.8; stroke-linejoin: miter; stroke-linecap: square"/>
   </g>
   <g id="patch_6">
    <path d="M 57.6 41.472 
L 414.72 41.472 
" style="fill: none; stroke: #000000; stroke-width: 0.8; stroke-linejoin: miter; stroke-linecap: square"/>
   </g>
   <g id="legend_1">
    <g id="patch_7">
     <path d="M 64.6 78.82825 
L 129.342187 78.82825 
Q 131.342187 78.82825 131.342187 76.82825 
L 131.342187 48.472 
Q 131.342187 46.472 129.342187 46.472 
L 64.6 46.472 
Q 62.6 46.472 62.6 48.472 
L 62.6 76.82825 
Q 62.6 78.82825 64.6 78.82825 
z
" style="fill: #ffffff; opacity: 0.8; stroke: #cccccc; stroke-linejoin: miter"/>
    </g>
    <g id="line2d_15">
     <path d="M 66.6 54.570437 
L 76.6 54.570437 
L 86.6 54.570437 
" style="fill: none; stroke: #1f77b4; stroke-width: 1.5; stroke-linecap: square"/>
    </g>
    <g id="text_15">
     <!-- qc -->
     <g transform="translate(94.6 58.070437) scale(0.1 -0.1)">
      <defs>
       <path id="DejaVuSans-71" d="M 947 1747 
Q 947 1113 1208 752 
Q 1469 391 1925 391 
Q 2381 391 2643 752 
Q 2906 1113 2906 1747 
Q 2906 2381 2643 2742 
Q 2381 3103 1925 3103 
Q 1469 3103 1208 2742 
Q 947 2381 947 1747 
z
M 2906 525 
Q 2725 213 2448 61 
Q 2172 -91 1784 -91 
Q 1150 -91 751 415 
Q 353 922 353 1747 
Q 353 2572 751 3078 
Q 1150 3584 1784 3584 
Q 2172 3584 2448 3432 
Q 2725 3281 2906 2969 
L 2906 3500 
L 3481 3500 
L 3481 -1331 
L 2906 -1331 
L 2906 525 
z
" transform="scale(0.015625)"/>
       <path id="DejaVuSans-63" d="M 3122 3366 
L 3122 2828 
Q 2878 2963 2633 3030 
Q 2388 3097 2138 3097 
Q 1578 3097 1268 2742 
Q 959 2388 959 1747 
Q 959 1106 1268 751 
Q 1578 397 2138 397 
Q 2388 397 2633 464 
Q 2878 531 3122 666 
L 3122 134 
Q 2881 22 2623 -34 
Q 2366 -91 2075 -91 
Q 1284 -91 818 406 
Q 353 903 353 1747 
Q 353 2603 823 3093 
Q 1294 3584 2113 3584 
Q 2378 3584 2631 3529 
Q 2884 3475 3122 3366 
z
" transform="scale(0.015625)"/>
      </defs>
      <use xlink:href="#DejaVuSans-71"/>
      <use xlink:href="#DejaVuSans-63" x="63.476562"/>
     </g>
    </g>
    <g id="line2d_16">
     <path d="M 66.6 69.248562 
L 76.6 69.248562 
L 86.6 69.248562 
" style="fill: none; stroke: #ff7f0e; stroke-width: 1.5; stroke-linecap: square"/>
    </g>
    <g id="text_16">
     <!-- Trotter -->
     <g transform="translate(94.6 72.748562) scale(0.1 -0.1)">
      <defs>
       <path id="DejaVuSans-54" d="M -19 4666 
L 3928 4666 
L 3928 4134 
L 2272 4134 
L 2272 0 
L 1638 0 
L 1638 4134 
L -19 4134 
L -19 4666 
z
" transform="scale(0.015625)"/>
       <path id="DejaVuSans-72" d="M 2631 2963 
Q 2534 3019 2420 3045 
Q 2306 3072 2169 3072 
Q 1681 3072 1420 2755 
Q 1159 2438 1159 1844 
L 1159 0 
L 581 0 
L 581 3500 
L 1159 3500 
L 1159 2956 
Q 1341 3275 1631 3429 
Q 1922 3584 2338 3584 
Q 2397 3584 2469 3576 
Q 2541 3569 2628 3553 
L 2631 2963 
z
" transform="scale(0.015625)"/>
       <path id="DejaVuSans-6f" d="M 1959 3097 
Q 1497 3097 1228 2736 
Q 959 2375 959 1747 
Q 959 1119 1226 758 
Q 1494 397 1959 397 
Q 2419 397 2687 759 
Q 2956 1122 2956 1747 
Q 2956 2369 2687 2733 
Q 2419 3097 1959 3097 
z
M 1959 3584 
Q 2709 3584 3137 3096 
Q 3566 2609 3566 1747 
Q 3566 888 3137 398 
Q 2709 -91 1959 -91 
Q 1206 -91 779 398 
Q 353 888 353 1747 
Q 353 2609 779 3096 
Q 1206 3584 1959 3584 
z
" transform="scale(0.015625)"/>
       <path id="DejaVuSans-65" d="M 3597 1894 
L 3597 1613 
L 953 1613 
Q 991 1019 1311 708 
Q 1631 397 2203 397 
Q 2534 397 2845 478 
Q 3156 559 3463 722 
L 3463 178 
Q 3153 47 2828 -22 
Q 2503 -91 2169 -91 
Q 1331 -91 842 396 
Q 353 884 353 1716 
Q 353 2575 817 3079 
Q 1281 3584 2069 3584 
Q 2775 3584 3186 3129 
Q 3597 2675 3597 1894 
z
M 3022 2063 
Q 3016 2534 2758 2815 
Q 2500 3097 2075 3097 
Q 1594 3097 1305 2825 
Q 1016 2553 972 2059 
L 3022 2063 
z
" transform="scale(0.015625)"/>
      </defs>
      <use xlink:href="#DejaVuSans-54"/>
      <use xlink:href="#DejaVuSans-72" x="46.333984"/>
      <use xlink:href="#DejaVuSans-6f" x="85.197266"/>
      <use xlink:href="#DejaVuSans-74" x="146.378906"/>
      <use xlink:href="#DejaVuSans-74" x="185.587891"/>
      <use xlink:href="#DejaVuSans-65" x="224.796875"/>
      <use xlink:href="#DejaVuSans-72" x="286.320312"/>
     </g>
    </g>
   </g>
  </g>
 </g>
 <defs>
  <clipPath id="pfc5911f007">
   <rect x="57.6" y="41.472" width="357.12" height="266.112"/>
  </clipPath>
 </defs>
</svg>
