<?xml version="1.0" encoding="utf-8" standalone="no"?>
<!DOCTYPE svg PUBLIC "-//W3C//DTD SVG 1.1//EN"
  "http://www.w3.org/Graphics/SVG/1.1/DTD/svg11.dtd">
<svg xmlns:xlink="http://www.w3.org/1999/xlink" width="460.8pt" height="345.6pt" viewBox="0 0 460.8 345.6" xmlns="http://www.w3.org/2000/svg" version="1.1">
 <metadata>
  <rdf:RDF xmlns:dc="http://purl.org/dc/elements/1.1/" xmlns:cc="http://creativecommons.org/ns#" xmlns:rdf="http://www.w3.org/1999/02/22-rdf-syntax-ns#">
   <cc:Work>
    <dc:type rdf:resource="http://purl.org/dc/dcmitype/StillImage"/>
    <dc:date>2024-08-25T12:20:51.858812</dc:date>
    <dc:format>image/svg+xml</dc:format>
    <dc:creator>
     <cc:Agent>
      <dc:title>Matplotlib v3.7.1, https://matplotlib.org/</dc:title>
     </cc:Agent>
    </dc:creator>
   </cc:Work>
  </rdf:RDF>
 </metadata>
 <defs>
  <style type="text/css">*{stroke-linejoin: round; stroke-linecap: butt}</style>
 </defs>
 <g id="figure_1">
  <g id="patch_1">
   <path d="M 0 345.6 
L 460.8 345.6 
L 460.8 0 
L 0 0 
z
" style="fill: #ffffff"/>
  </g>
  <g id="axes_1">
   <g id="patch_2">
    <path d="M 57.6 307.584 
L 414.72 307.584 
L 414.72 41.472 
L 57.6 41.472 
z
" style="fill: #ffffff"/>
   </g>
   <g id="matplotlib.axis_1">
    <g id="xtick_1">
     <g id="line2d_1">
      <defs>
       <path id="m6d4a6a092b" d="M 0 0 
L 0 3.5 
" style="stroke: #000000; stroke-width: 0.8"/>
      </defs>
      <g>
       <use xlink:href="#m6d4a6a092b" x="73.832727" y="307.584" style="stroke: #000000; stroke-width: 0.8"/>
      </g>
     </g>
     <g id="text_1">
      <!-- 0 -->
      <g transform="translate(70.651477 322.182437) scale(0.1 -0.1)">
       <defs>
        <path id="DejaVuSans-30" d="M 2034 4250 
Q 1547 4250 1301 3770 
Q 1056 3291 1056 2328 
Q 1056 1369 1301 889 
Q 1547 409 2034 409 
Q 2525 409 2770 889 
Q 3016 1369 3016 2328 
Q 3016 3291 2770 3770 
Q 2525 4250 2034 4250 
z
M 2034 4750 
Q 2819 4750 3233 4129 
Q 3647 3509 3647 2328 
Q 3647 1150 3233 529 
Q 2819 -91 2034 -91 
Q 1250 -91 836 529 
Q 422 1150 422 2328 
Q 422 3509 836 4129 
Q 1250 4750 2034 4750 
z
" transform="scale(0.015625)"/>
       </defs>
       <use xlink:href="#DejaVuSans-30"/>
      </g>
     </g>
    </g>
    <g id="xtick_2">
     <g id="line2d_2">
      <g>
       <use xlink:href="#m6d4a6a092b" x="137.303802" y="307.584" style="stroke: #000000; stroke-width: 0.8"/>
      </g>
     </g>
     <g id="text_2">
      <!-- 200 -->
      <g transform="translate(127.760052 322.182437) scale(0.1 -0.1)">
       <defs>
        <path id="DejaVuSans-32" d="M 1228 531 
L 3431 531 
L 3431 0 
L 469 0 
L 469 531 
Q 828 903 1448 1529 
Q 2069 2156 2228 2338 
Q 2531 2678 2651 2914 
Q 2772 3150 2772 3378 
Q 2772 3750 2511 3984 
Q 2250 4219 1831 4219 
Q 1534 4219 1204 4116 
Q 875 4013 500 3803 
L 500 4441 
Q 881 4594 1212 4672 
Q 1544 4750 1819 4750 
Q 2544 4750 2975 4387 
Q 3406 4025 3406 3419 
Q 3406 3131 3298 2873 
Q 3191 2616 2906 2266 
Q 2828 2175 2409 1742 
Q 1991 1309 1228 531 
z
" transform="scale(0.015625)"/>
       </defs>
       <use xlink:href="#DejaVuSans-32"/>
       <use xlink:href="#DejaVuSans-30" x="63.623047"/>
       <use xlink:href="#DejaVuSans-30" x="127.246094"/>
      </g>
     </g>
    </g>
    <g id="xtick_3">
     <g id="line2d_3">
      <g>
       <use xlink:href="#m6d4a6a092b" x="200.774876" y="307.584" style="stroke: #000000; stroke-width: 0.8"/>
      </g>
     </g>
     <g id="text_3">
      <!-- 400 -->
      <g transform="translate(191.231126 322.182437) scale(0.1 -0.1)">
       <defs>
        <path id="DejaVuSans-34" d="M 2419 4116 
L 825 1625 
L 2419 1625 
L 2419 4116 
z
M 2253 4666 
L 3047 4666 
L 3047 1625 
L 3713 1625 
L 3713 1100 
L 3047 1100 
L 3047 0 
L 2419 0 
L 2419 1100 
L 313 1100 
L 313 1709 
L 2253 4666 
z
" transform="scale(0.015625)"/>
       </defs>
       <use xlink:href="#DejaVuSans-34"/>
       <use xlink:href="#DejaVuSans-30" x="63.623047"/>
       <use xlink:href="#DejaVuSans-30" x="127.246094"/>
      </g>
     </g>
    </g>
    <g id="xtick_4">
     <g id="line2d_4">
      <g>
       <use xlink:href="#m6d4a6a092b" x="264.24595" y="307.584" style="stroke: #000000; stroke-width: 0.8"/>
      </g>
     </g>
     <g id="text_4">
      <!-- 600 -->
      <g transform="translate(254.7022 322.182437) scale(0.1 -0.1)">
       <defs>
        <path id="DejaVuSans-36" d="M 2113 2584 
Q 1688 2584 1439 2293 
Q 1191 2003 1191 1497 
Q 1191 994 1439 701 
Q 1688 409 2113 409 
Q 2538 409 2786 701 
Q 3034 994 3034 1497 
Q 3034 2003 2786 2293 
Q 2538 2584 2113 2584 
z
M 3366 4563 
L 3366 3988 
Q 3128 4100 2886 4159 
Q 2644 4219 2406 4219 
Q 1781 4219 1451 3797 
Q 1122 3375 1075 2522 
Q 1259 2794 1537 2939 
Q 1816 3084 2150 3084 
Q 2853 3084 3261 2657 
Q 3669 2231 3669 1497 
Q 3669 778 3244 343 
Q 2819 -91 2113 -91 
Q 1303 -91 875 529 
Q 447 1150 447 2328 
Q 447 3434 972 4092 
Q 1497 4750 2381 4750 
Q 2619 4750 2861 4703 
Q 3103 4656 3366 4563 
z
" transform="scale(0.015625)"/>
       </defs>
       <use xlink:href="#DejaVuSans-36"/>
       <use xlink:href="#DejaVuSans-30" x="63.623047"/>
       <use xlink:href="#DejaVuSans-30" x="127.246094"/>
      </g>
     </g>
    </g>
    <g id="xtick_5">
     <g id="line2d_5">
      <g>
       <use xlink:href="#m6d4a6a092b" x="327.717025" y="307.584" style="stroke: #000000; stroke-width: 0.8"/>
      </g>
     </g>
     <g id="text_5">
      <!-- 800 -->
      <g transform="translate(318.173275 322.182437) scale(0.1 -0.1)">
       <defs>
        <path id="DejaVuSans-38" d="M 2034 2216 
Q 1584 2216 1326 1975 
Q 1069 1734 1069 1313 
Q 1069 891 1326 650 
Q 1584 409 2034 409 
Q 2484 409 2743 651 
Q 3003 894 3003 1313 
Q 3003 1734 2745 1975 
Q 2488 2216 2034 2216 
z
M 1403 2484 
Q 997 2584 770 2862 
Q 544 3141 544 3541 
Q 544 4100 942 4425 
Q 1341 4750 2034 4750 
Q 2731 4750 3128 4425 
Q 3525 4100 3525 3541 
Q 3525 3141 3298 2862 
Q 3072 2584 2669 2484 
Q 3125 2378 3379 2068 
Q 3634 1759 3634 1313 
Q 3634 634 3220 271 
Q 2806 -91 2034 -91 
Q 1263 -91 848 271 
Q 434 634 434 1313 
Q 434 1759 690 2068 
Q 947 2378 1403 2484 
z
M 1172 3481 
Q 1172 3119 1398 2916 
Q 1625 2713 2034 2713 
Q 2441 2713 2670 2916 
Q 2900 3119 2900 3481 
Q 2900 3844 2670 4047 
Q 2441 4250 2034 4250 
Q 1625 4250 1398 4047 
Q 1172 3844 1172 3481 
z
" transform="scale(0.015625)"/>
       </defs>
       <use xlink:href="#DejaVuSans-38"/>
       <use xlink:href="#DejaVuSans-30" x="63.623047"/>
       <use xlink:href="#DejaVuSans-30" x="127.246094"/>
      </g>
     </g>
    </g>
    <g id="xtick_6">
     <g id="line2d_6">
      <g>
       <use xlink:href="#m6d4a6a092b" x="391.188099" y="307.584" style="stroke: #000000; stroke-width: 0.8"/>
      </g>
     </g>
     <g id="text_6">
      <!-- 1000 -->
      <g transform="translate(378.463099 322.182437) scale(0.1 -0.1)">
       <defs>
        <path id="DejaVuSans-31" d="M 794 531 
L 1825 531 
L 1825 4091 
L 703 3866 
L 703 4441 
L 1819 4666 
L 2450 4666 
L 2450 531 
L 3481 531 
L 3481 0 
L 794 0 
L 794 531 
z
" transform="scale(0.015625)"/>
       </defs>
       <use xlink:href="#DejaVuSans-31"/>
       <use xlink:href="#DejaVuSans-30" x="63.623047"/>
       <use xlink:href="#DejaVuSans-30" x="127.246094"/>
       <use xlink:href="#DejaVuSans-30" x="190.869141"/>
      </g>
     </g>
    </g>
    <g id="text_7">
     <!-- n -->
     <g transform="translate(232.99125 335.860562) scale(0.1 -0.1)">
      <defs>
       <path id="DejaVuSans-6e" d="M 3513 2113 
L 3513 0 
L 2938 0 
L 2938 2094 
Q 2938 2591 2744 2837 
Q 2550 3084 2163 3084 
Q 1697 3084 1428 2787 
Q 1159 2491 1159 1978 
L 1159 0 
L 581 0 
L 581 3500 
L 1159 3500 
L 1159 2956 
Q 1366 3272 1645 3428 
Q 1925 3584 2291 3584 
Q 2894 3584 3203 3211 
Q 3513 2838 3513 2113 
z
" transform="scale(0.015625)"/>
      </defs>
      <use xlink:href="#DejaVuSans-6e"/>
     </g>
    </g>
   </g>
   <g id="matplotlib.axis_2">
    <g id="ytick_1">
     <g id="line2d_7">
      <defs>
       <path id="mde8f86d515" d="M 0 0 
L -3.5 0 
" style="stroke: #000000; stroke-width: 0.8"/>
      </defs>
      <g>
       <use xlink:href="#mde8f86d515" x="57.6" y="270.380371" style="stroke: #000000; stroke-width: 0.8"/>
      </g>
     </g>
     <g id="text_8">
      <!-- −4 -->
      <g transform="translate(35.857813 274.17959) scale(0.1 -0.1)">
       <defs>
        <path id="DejaVuSans-2212" d="M 678 2272 
L 4684 2272 
L 4684 1741 
L 678 1741 
L 678 2272 
z
" transform="scale(0.015625)"/>
       </defs>
       <use xlink:href="#DejaVuSans-2212"/>
       <use xlink:href="#DejaVuSans-34" x="83.789062"/>
      </g>
     </g>
    </g>
    <g id="ytick_2">
     <g id="line2d_8">
      <g>
       <use xlink:href="#mde8f86d515" x="57.6" y="222.461992" style="stroke: #000000; stroke-width: 0.8"/>
      </g>
     </g>
     <g id="text_9">
      <!-- −2 -->
      <g transform="translate(35.857813 226.261211) scale(0.1 -0.1)">
       <use xlink:href="#DejaVuSans-2212"/>
       <use xlink:href="#DejaVuSans-32" x="83.789062"/>
      </g>
     </g>
    </g>
    <g id="ytick_3">
     <g id="line2d_9">
      <g>
       <use xlink:href="#mde8f86d515" x="57.6" y="174.543613" style="stroke: #000000; stroke-width: 0.8"/>
      </g>
     </g>
     <g id="text_10">
      <!-- 0 -->
      <g transform="translate(44.2375 178.342832) scale(0.1 -0.1)">
       <use xlink:href="#DejaVuSans-30"/>
      </g>
     </g>
    </g>
    <g id="ytick_4">
     <g id="line2d_10">
      <g>
       <use xlink:href="#mde8f86d515" x="57.6" y="126.625234" style="stroke: #000000; stroke-width: 0.8"/>
      </g>
     </g>
     <g id="text_11">
      <!-- 2 -->
      <g transform="translate(44.2375 130.424452) scale(0.1 -0.1)">
       <use xlink:href="#DejaVuSans-32"/>
      </g>
     </g>
    </g>
    <g id="ytick_5">
     <g id="line2d_11">
      <g>
       <use xlink:href="#mde8f86d515" x="57.6" y="78.706854" style="stroke: #000000; stroke-width: 0.8"/>
      </g>
     </g>
     <g id="text_12">
      <!-- 4 -->
      <g transform="translate(44.2375 82.506073) scale(0.1 -0.1)">
       <use xlink:href="#DejaVuSans-34"/>
      </g>
     </g>
    </g>
    <g id="text_13">
     <!-- E*t -->
     <g transform="translate(29.778125 182.147531) rotate(-90) scale(0.1 -0.1)">
      <defs>
       <path id="DejaVuSans-45" d="M 628 4666 
L 3578 4666 
L 3578 4134 
L 1259 4134 
L 1259 2753 
L 3481 2753 
L 3481 2222 
L 1259 2222 
L 1259 531 
L 3634 531 
L 3634 0 
L 628 0 
L 628 4666 
z
" transform="scale(0.015625)"/>
       <path id="DejaVuSans-2a" d="M 3009 3897 
L 1888 3291 
L 3009 2681 
L 2828 2375 
L 1778 3009 
L 1778 1831 
L 1422 1831 
L 1422 3009 
L 372 2375 
L 191 2681 
L 1313 3291 
L 191 3897 
L 372 4206 
L 1422 3572 
L 1422 4750 
L 1778 4750 
L 1778 3572 
L 2828 4206 
L 3009 3897 
z
" transform="scale(0.015625)"/>
       <path id="DejaVuSans-74" d="M 1172 4494 
L 1172 3500 
L 2356 3500 
L 2356 3053 
L 1172 3053 
L 1172 1153 
Q 1172 725 1289 603 
Q 1406 481 1766 481 
L 2356 481 
L 2356 0 
L 1766 0 
Q 1100 0 847 248 
Q 594 497 594 1153 
L 594 3053 
L 172 3053 
L 172 3500 
L 594 3500 
L 594 4494 
L 1172 4494 
z
" transform="scale(0.015625)"/>
      </defs>
      <use xlink:href="#DejaVuSans-45"/>
      <use xlink:href="#DejaVuSans-2a" x="63.183594"/>
      <use xlink:href="#DejaVuSans-74" x="113.183594"/>
     </g>
    </g>
   </g>
   <g id="line2d_12">
    <path d="M 73.832727 295.488 
L 74.150083 295.208328 
L 74.467438 295.155046 
L 74.784793 294.57558 
L 75.419504 294.390475 
L 75.73686 294.385212 
L 76.37157 293.762704 
L 76.688926 293.61629 
L 77.323636 292.760294 
L 77.958347 292.178547 
L 78.275702 291.552667 
L 78.910413 291.236048 
L 79.545124 289.922182 
L 79.862479 289.676277 
L 80.179835 289.63661 
L 80.49719 289.324888 
L 81.131901 289.11829 
L 81.766612 288.837845 
L 82.083967 288.367862 
L 82.718678 287.92756 
L 83.036033 286.085079 
L 83.353388 286.0003 
L 83.670744 285.747339 
L 83.988099 285.706608 
L 84.305455 285.227154 
L 84.62281 285.186867 
L 84.940165 284.905094 
L 85.574876 284.006142 
L 85.892231 283.862577 
L 86.209587 282.935334 
L 86.526942 282.53605 
L 86.844298 281.695677 
L 87.479008 281.308554 
L 87.796364 280.972067 
L 88.113719 280.472177 
L 88.431074 280.333733 
L 88.74843 279.941078 
L 90.017851 279.378942 
L 90.335207 278.380982 
L 90.652562 278.297206 
L 90.969917 277.957273 
L 91.287273 277.946547 
L 91.604628 277.765107 
L 91.921983 277.312444 
L 92.556694 277.175494 
L 92.87405 276.426468 
L 93.50876 276.303873 
L 93.826116 275.851889 
L 94.143471 275.147244 
L 94.460826 275.065161 
L 94.778182 274.802911 
L 95.095537 274.353455 
L 95.412893 274.286832 
L 95.730248 274.030359 
L 96.047603 273.973102 
L 96.364959 273.771815 
L 96.682314 273.319964 
L 96.999669 273.070687 
L 97.63438 271.998537 
L 98.586446 271.712181 
L 98.903802 271.204842 
L 99.221157 271.130674 
L 99.538512 270.763095 
L 100.490579 270.308639 
L 100.807934 270.052882 
L 101.125289 269.144931 
L 101.442645 268.84807 
L 101.76 267.936331 
L 102.712066 267.61856 
L 103.346777 267.440681 
L 103.664132 266.37777 
L 104.298843 265.514814 
L 104.616198 265.475502 
L 104.933554 264.503471 
L 105.250909 264.443153 
L 105.568264 263.892367 
L 106.837686 263.550242 
L 107.155041 262.802648 
L 107.472397 262.731571 
L 107.789752 261.749221 
L 108.424463 261.5461 
L 108.741818 260.693 
L 109.059174 260.524263 
L 109.376529 260.512118 
L 109.693884 259.888898 
L 110.328595 259.659209 
L 110.963306 259.571297 
L 111.280661 259.298525 
L 111.598017 258.798583 
L 112.550083 258.601231 
L 112.867438 257.35478 
L 113.184793 256.578611 
L 113.502149 256.495702 
L 113.819504 256.261515 
L 116.358347 255.57127 
L 116.675702 254.994042 
L 117.310413 254.693653 
L 117.627769 254.650708 
L 117.945124 254.175112 
L 118.262479 253.424537 
L 118.579835 253.346009 
L 118.89719 253.110395 
L 119.531901 252.959558 
L 119.849256 252.685411 
L 120.166612 252.647972 
L 120.483967 252.400813 
L 120.801322 251.764611 
L 121.118678 251.507142 
L 121.436033 251.098547 
L 122.070744 251.062032 
L 122.705455 250.570452 
L 123.02281 250.468868 
L 123.340165 250.245949 
L 124.292231 249.041777 
L 125.561653 248.796025 
L 126.196364 248.315659 
L 126.513719 247.938104 
L 126.831074 247.908281 
L 127.14843 247.541955 
L 127.465785 247.407835 
L 127.78314 246.859037 
L 128.735207 246.538303 
L 129.052562 245.833306 
L 129.369917 245.80294 
L 130.004628 245.173364 
L 130.639339 245.0482 
L 130.956694 244.890239 
L 131.591405 244.846259 
L 132.226116 244.394707 
L 132.860826 243.682453 
L 133.178182 243.621098 
L 134.130248 241.71691 
L 134.447603 241.660585 
L 134.764959 241.429799 
L 135.082314 241.396836 
L 135.399669 241.247499 
L 135.717025 240.925123 
L 136.03438 240.878525 
L 136.669091 240.233257 
L 136.986446 240.183665 
L 137.621157 239.309411 
L 137.938512 238.178373 
L 138.255868 238.106714 
L 138.890579 237.529884 
L 139.525289 237.477512 
L 140.16 237.077152 
L 140.477355 236.536333 
L 140.794711 236.25312 
L 141.429421 236.03951 
L 141.746777 235.358472 
L 142.064132 235.099558 
L 142.698843 234.953716 
L 143.016198 234.247618 
L 144.28562 233.306145 
L 144.602975 232.400775 
L 144.920331 232.114361 
L 145.237686 232.106334 
L 145.555041 231.426955 
L 145.872397 231.168474 
L 146.189752 231.12219 
L 147.141818 230.297141 
L 147.776529 229.523948 
L 148.093884 229.275844 
L 148.41124 229.251728 
L 149.04595 228.774586 
L 149.680661 228.551059 
L 149.998017 228.182473 
L 150.315372 228.10989 
L 150.632727 227.169613 
L 150.950083 227.028063 
L 151.267438 226.736131 
L 151.902149 226.547475 
L 152.219504 226.51985 
L 152.854215 225.830674 
L 153.17157 225.59264 
L 153.488926 225.557254 
L 153.806281 225.054405 
L 155.710413 224.419827 
L 156.027769 223.5315 
L 156.662479 223.288268 
L 156.979835 223.102422 
L 157.29719 222.651052 
L 157.614545 222.582539 
L 158.249256 222.00788 
L 158.566612 221.880272 
L 158.883967 221.275278 
L 159.518678 220.825921 
L 159.836033 220.190439 
L 160.470744 219.594585 
L 160.788099 219.501481 
L 161.42281 219.085903 
L 161.740165 218.294088 
L 162.692231 218.051365 
L 163.009587 217.31751 
L 163.326942 217.040724 
L 163.961653 215.935234 
L 164.596364 215.832928 
L 164.913719 215.66089 
L 165.231074 215.320547 
L 166.500496 214.917765 
L 166.817851 214.894567 
L 167.135207 214.381115 
L 168.087273 213.802213 
L 168.721983 213.625591 
L 169.356694 213.315891 
L 169.67405 212.67479 
L 169.991405 212.674139 
L 170.626116 212.06461 
L 171.260826 211.900547 
L 172.212893 211.397637 
L 172.847603 210.645568 
L 173.799669 210.381033 
L 174.117025 210.077824 
L 174.43438 210.045331 
L 174.751736 209.537445 
L 175.386446 209.498798 
L 175.703802 208.558677 
L 176.021157 208.459518 
L 176.338512 208.03634 
L 176.973223 207.974322 
L 178.242645 207.222641 
L 178.56 206.89295 
L 179.194711 206.801232 
L 179.829421 206.023442 
L 180.146777 205.858997 
L 180.464132 205.526779 
L 180.781488 204.885572 
L 181.098843 204.654079 
L 181.733554 204.495684 
L 182.368264 203.687998 
L 183.637686 203.257808 
L 183.955041 202.876312 
L 184.272397 202.864224 
L 184.907107 202.421933 
L 185.224463 202.367959 
L 185.541818 202.065033 
L 185.859174 201.944757 
L 186.176529 201.497297 
L 186.493884 201.453415 
L 186.81124 201.190146 
L 187.128595 201.099974 
L 187.44595 200.569593 
L 188.398017 200.003255 
L 188.715372 199.549169 
L 189.350083 199.349274 
L 189.667438 198.715747 
L 190.302149 198.321593 
L 190.93686 198.168914 
L 192.523636 197.431295 
L 193.158347 196.965999 
L 193.793058 196.85867 
L 194.110413 196.538569 
L 195.062479 196.074593 
L 195.379835 195.559461 
L 196.014545 195.112683 
L 197.283967 194.785564 
L 197.601322 194.479468 
L 197.918678 193.882172 
L 198.236033 193.875788 
L 198.870744 193.517097 
L 199.188099 193.084866 
L 199.505455 192.974413 
L 199.82281 192.565782 
L 201.092231 191.764518 
L 201.409587 191.762924 
L 202.044298 191.333691 
L 202.361653 191.005157 
L 202.996364 190.73224 
L 203.313719 190.127386 
L 204.265785 189.197144 
L 204.58314 189.155357 
L 204.900496 188.998146 
L 205.217851 188.434291 
L 205.852562 188.345462 
L 206.169917 187.862423 
L 206.487273 187.831352 
L 207.439339 187.299396 
L 207.756694 186.51356 
L 208.70876 186.200396 
L 209.026116 185.882754 
L 209.660826 185.737247 
L 210.612893 185.099489 
L 210.930248 184.453307 
L 211.564959 184.120041 
L 211.882314 183.774862 
L 212.199669 183.656914 
L 212.83438 183.266351 
L 213.469091 182.934725 
L 214.103802 182.355179 
L 214.421157 182.27387 
L 214.738512 181.946589 
L 215.373223 181.815737 
L 215.690579 181.788264 
L 216.007934 181.068258 
L 216.96 180.504297 
L 217.594711 179.968426 
L 217.912066 179.934689 
L 218.229421 179.776121 
L 218.546777 179.755649 
L 219.498843 178.565917 
L 220.450909 177.946681 
L 221.402975 177.867874 
L 221.720331 177.751394 
L 222.037686 177.212654 
L 222.672397 176.674359 
L 222.989752 176.532427 
L 223.307107 176.009803 
L 223.624463 175.968222 
L 224.576529 175.41502 
L 225.21124 175.195816 
L 225.528595 175.027286 
L 225.84595 174.016782 
L 226.163306 173.842634 
L 226.480661 173.441548 
L 228.384793 172.152556 
L 228.702149 171.59819 
L 229.33686 171.273124 
L 229.654215 171.187455 
L 229.97157 170.633204 
L 230.288926 170.561037 
L 230.606281 169.941558 
L 230.923636 169.925607 
L 231.240992 169.635256 
L 232.827769 169.016134 
L 233.145124 168.300221 
L 233.779835 168.057936 
L 234.09719 167.713791 
L 234.414545 167.674483 
L 235.049256 167.441034 
L 236.001322 167.198234 
L 236.636033 166.630506 
L 237.270744 166.382907 
L 238.22281 165.977841 
L 238.857521 165.287801 
L 239.174876 165.232338 
L 240.126942 164.357388 
L 240.761653 164.265657 
L 242.031074 163.847925 
L 242.34843 163.52556 
L 243.617851 163.260796 
L 244.252562 162.925927 
L 244.569917 162.535833 
L 244.887273 162.506202 
L 245.204628 162.248416 
L 246.47405 161.835313 
L 247.10876 161.129577 
L 247.743471 161.006693 
L 248.060826 160.494138 
L 249.012893 160.141444 
L 249.964959 159.905493 
L 250.282314 159.607258 
L 250.599669 159.556102 
L 251.23438 159.234623 
L 251.551736 159.053039 
L 252.186446 158.360448 
L 252.821157 158.242664 
L 253.455868 158.21592 
L 254.725289 157.358325 
L 255.042645 157.304269 
L 255.36 156.952378 
L 255.677355 156.432608 
L 255.994711 156.428875 
L 257.581488 155.806536 
L 258.216198 155.610245 
L 258.533554 155.311931 
L 258.850909 155.180064 
L 259.48562 154.482048 
L 260.120331 154.355255 
L 261.389752 153.795861 
L 261.707107 153.395729 
L 262.659174 153.135396 
L 262.976529 153.121522 
L 264.24595 152.40944 
L 264.880661 151.911506 
L 265.515372 151.86019 
L 265.832727 151.684792 
L 266.150083 151.667751 
L 266.467438 151.457734 
L 266.784793 151.028253 
L 268.054215 150.520123 
L 269.006281 150.438205 
L 269.323636 150.008403 
L 270.593058 149.706433 
L 270.910413 149.282498 
L 271.227769 149.15412 
L 271.545124 149.151285 
L 272.179835 148.994346 
L 272.49719 148.571508 
L 273.131901 148.306172 
L 273.449256 147.953233 
L 274.083967 147.810413 
L 274.401322 147.348223 
L 274.718678 147.295243 
L 275.036033 146.938181 
L 275.670744 146.608433 
L 276.62281 146.559421 
L 277.257521 146.047349 
L 278.526942 145.720705 
L 278.844298 145.438236 
L 279.479008 145.263466 
L 279.796364 144.831206 
L 280.113719 144.798662 
L 280.431074 144.640767 
L 280.74843 144.026747 
L 281.065785 143.884445 
L 281.700496 143.060108 
L 282.017851 143.009783 
L 282.335207 142.747211 
L 282.969917 142.640818 
L 284.239339 142.112391 
L 284.87405 141.992622 
L 285.50876 141.806399 
L 286.143471 141.305026 
L 286.460826 140.89958 
L 286.778182 140.862923 
L 287.412893 140.056254 
L 288.047603 139.326075 
L 289.63438 138.452689 
L 290.586446 138.173661 
L 291.855868 137.661702 
L 292.173223 137.382845 
L 292.490579 137.348362 
L 292.807934 137.083908 
L 293.125289 136.437344 
L 293.442645 136.131018 
L 293.76 136.123779 
L 294.712066 135.608973 
L 295.346777 134.948714 
L 295.664132 134.795417 
L 296.298843 134.051858 
L 297.568264 133.715279 
L 298.202975 132.876495 
L 298.837686 132.810196 
L 299.155041 132.560834 
L 300.107107 132.276541 
L 300.424463 132.199914 
L 300.741818 131.801191 
L 301.376529 131.768086 
L 301.693884 131.617909 
L 302.01124 131.059772 
L 302.64595 130.556087 
L 302.963306 130.196077 
L 303.280661 130.049705 
L 303.915372 129.331606 
L 304.232727 129.255246 
L 305.184793 128.421693 
L 305.819504 128.368147 
L 306.13686 128.009188 
L 307.088926 127.590987 
L 307.406281 127.579258 
L 308.358347 125.505852 
L 309.310413 125.272277 
L 309.945124 125.196324 
L 310.262479 124.727 
L 311.214545 124.321657 
L 311.531901 123.660744 
L 311.849256 123.422061 
L 312.166612 123.375244 
L 312.483967 123.118355 
L 312.801322 123.03151 
L 313.436033 122.222874 
L 313.753388 122.067933 
L 314.070744 121.574614 
L 315.340165 121.212688 
L 315.974876 120.392486 
L 317.879008 119.491725 
L 318.196364 119.401625 
L 318.513719 118.80744 
L 319.14843 118.640478 
L 319.465785 118.296188 
L 319.78314 118.269575 
L 320.417851 117.91723 
L 320.735207 117.494599 
L 322.004628 117.010051 
L 322.639339 116.368851 
L 322.956694 116.26988 
L 323.27405 115.691655 
L 323.591405 115.652393 
L 323.90876 115.497329 
L 324.226116 115.472258 
L 324.543471 115.329585 
L 324.860826 115.317361 
L 325.178182 114.769539 
L 325.495537 114.708468 
L 325.812893 114.195422 
L 326.130248 114.013085 
L 326.447603 113.568322 
L 326.764959 113.567089 
L 328.03438 113.138594 
L 328.351736 113.121093 
L 328.669091 112.932107 
L 328.986446 112.177872 
L 329.621157 111.564987 
L 330.255868 111.388669 
L 330.573223 111.022689 
L 332.794711 109.780218 
L 333.112066 108.674953 
L 333.429421 108.490463 
L 333.746777 107.828262 
L 335.333554 107.085285 
L 335.650909 106.326061 
L 335.968264 106.133361 
L 336.28562 106.124764 
L 336.602975 105.879533 
L 337.237686 105.762695 
L 337.555041 105.333864 
L 338.189752 105.153723 
L 338.507107 104.748193 
L 339.141818 104.536652 
L 339.459174 104.069094 
L 339.776529 103.250366 
L 340.093884 103.151229 
L 340.41124 102.915554 
L 340.728595 102.873382 
L 341.04595 102.631585 
L 341.363306 102.112869 
L 341.998017 102.000625 
L 342.632727 101.855595 
L 343.902149 101.284626 
L 344.219504 100.773287 
L 345.488926 100.239629 
L 345.806281 99.722956 
L 346.123636 99.591969 
L 346.758347 98.941517 
L 347.075702 98.932464 
L 347.393058 98.463939 
L 347.710413 98.43875 
L 348.979835 97.308093 
L 349.931901 97.094332 
L 350.249256 96.979746 
L 350.566612 96.558124 
L 351.201322 96.490723 
L 351.518678 96.345292 
L 351.836033 95.402692 
L 352.470744 94.991994 
L 353.105455 94.133605 
L 353.740165 94.024538 
L 354.057521 93.4101 
L 354.374876 93.364931 
L 355.961653 91.88589 
L 356.279008 91.801068 
L 356.596364 91.376359 
L 356.913719 91.233744 
L 357.54843 90.547499 
L 357.865785 89.826522 
L 358.817851 89.297877 
L 359.135207 88.984653 
L 359.452562 88.967429 
L 359.769917 88.65295 
L 360.087273 88.498436 
L 361.039339 87.003362 
L 361.991405 86.027364 
L 362.30876 85.947908 
L 363.260826 85.367024 
L 364.212893 85.200138 
L 364.530248 83.806901 
L 364.847603 83.074299 
L 365.799669 82.194381 
L 366.751736 82.04906 
L 367.069091 81.650594 
L 367.386446 81.626598 
L 367.703802 80.699431 
L 368.338512 80.231276 
L 368.655868 79.87578 
L 368.973223 79.182286 
L 369.290579 79.032464 
L 369.607934 78.551647 
L 369.925289 78.478591 
L 370.242645 77.825421 
L 370.877355 77.539156 
L 371.194711 77.295228 
L 371.512066 77.277849 
L 372.146777 77.085251 
L 372.464132 76.593178 
L 372.781488 75.842684 
L 373.416198 75.640694 
L 374.050909 75.268092 
L 374.368264 75.252351 
L 375.002975 74.945329 
L 375.320331 74.279967 
L 375.637686 73.976846 
L 375.955041 73.893851 
L 376.272397 73.36858 
L 376.589752 73.347557 
L 376.907107 72.694219 
L 377.541818 72.351684 
L 379.44595 71.717416 
L 380.080661 70.493126 
L 380.398017 70.351955 
L 380.715372 69.329954 
L 381.350083 69.202879 
L 381.667438 68.31254 
L 381.984793 68.020264 
L 382.302149 67.970644 
L 383.254215 67.290287 
L 384.523636 65.754339 
L 385.158347 65.402068 
L 385.475702 64.605794 
L 385.793058 64.149888 
L 386.427769 64.066257 
L 386.745124 63.719726 
L 387.379835 63.630334 
L 388.014545 63.015455 
L 388.331901 62.605413 
L 388.649256 61.63778 
L 388.966612 61.610067 
L 389.283967 60.980615 
L 389.918678 60.505145 
L 391.505455 59.701818 
L 392.457521 58.526433 
L 393.092231 58.460818 
L 393.409587 57.574724 
L 394.044298 57.365264 
L 394.361653 56.758421 
L 394.679008 56.455368 
L 394.996364 55.55051 
L 395.94843 55.327394 
L 396.265785 54.927136 
L 396.900496 54.879204 
L 397.217851 54.733 
L 397.535207 54.71396 
L 398.169917 54.328437 
L 398.487273 53.568 
L 398.487273 53.568 
" clip-path="url(#pa668b92b36)" style="fill: none; stroke: #1f77b4; stroke-width: 1.5; stroke-linecap: square"/>
   </g>
   <g id="line2d_13">
    <path d="M 73.832727 295.057068 
L 74.150083 280.994444 
L 74.467438 280.994444 
L 74.784793 268.973766 
L 75.102149 266.4769 
L 75.73686 266.4769 
L 76.054215 261.979247 
L 76.37157 254.386585 
L 76.688926 253.920753 
L 77.006281 253.920753 
L 77.323636 252.745921 
L 78.910413 252.745921 
L 79.227769 248.462454 
L 79.545124 248.462454 
L 79.862479 246.911853 
L 80.179835 245.953869 
L 80.49719 245.953869 
L 80.814545 241.217283 
L 81.131901 238.987733 
L 82.083967 238.949398 
L 82.401322 237.629851 
L 86.844298 237.554932 
L 87.161653 236.832417 
L 87.479008 233.400157 
L 87.796364 232.64141 
L 88.113719 231.453199 
L 89.700496 231.453199 
L 90.017851 229.935017 
L 90.652562 229.935017 
L 90.969917 228.171422 
L 91.287273 228.171422 
L 91.604628 227.252727 
L 91.921983 224.889703 
L 99.221157 224.889703 
L 99.538512 223.481657 
L 99.855868 223.481657 
L 100.173223 223.148594 
L 101.76 223.148594 
L 102.077355 221.689115 
L 103.664132 221.689115 
L 103.981488 221.359911 
L 104.298843 220.79084 
L 104.933554 220.79084 
L 105.250909 218.789362 
L 106.202975 218.688492 
L 106.520331 214.171486 
L 107.155041 213.725174 
L 107.472397 213.725174 
L 107.789752 212.685037 
L 109.376529 212.685037 
L 109.693884 210.402281 
L 110.01124 210.402281 
L 110.328595 207.880552 
L 129.369917 207.880448 
L 129.687273 206.447435 
L 130.321983 205.099673 
L 131.27405 205.013745 
L 131.591405 203.841475 
L 131.90876 203.841475 
L 132.226116 203.573651 
L 132.860826 203.573651 
L 133.178182 201.316952 
L 133.495537 201.316952 
L 133.812893 200.844401 
L 135.399669 200.844401 
L 135.717025 198.919931 
L 136.03438 198.660426 
L 136.351736 198.225917 
L 136.986446 198.116364 
L 163.009587 198.116364 
L 163.326942 196.119011 
L 167.135207 196.119011 
L 167.452562 195.753985 
L 167.769917 195.753985 
L 168.087273 193.282002 
L 168.404628 193.282002 
L 168.721983 192.622183 
L 169.356694 192.622183 
L 169.67405 192.196392 
L 169.991405 191.176547 
L 171.578182 191.176547 
L 172.212893 190.457483 
L 172.530248 190.457483 
L 172.847603 190.152423 
L 180.146777 190.152423 
L 180.464132 189.627336 
L 180.781488 189.627336 
L 181.098843 189.112286 
L 182.68562 189.112286 
L 183.320331 184.307697 
L 185.541818 184.264958 
L 185.859174 183.985811 
L 186.493884 183.985811 
L 186.81124 183.564167 
L 187.128595 182.507554 
L 187.44595 182.507554 
L 187.763306 181.791922 
L 188.080661 181.791922 
L 188.398017 178.804344 
L 188.715372 174.543613 
L 283.604628 174.543613 
L 284.239339 167.295304 
L 284.556694 167.295304 
L 284.87405 166.579672 
L 285.191405 166.579672 
L 285.50876 165.523059 
L 285.826116 165.101415 
L 286.460826 165.101415 
L 286.778182 164.822268 
L 288.999669 164.779529 
L 289.63438 159.974939 
L 291.221157 159.974939 
L 291.538512 159.459889 
L 291.855868 159.459889 
L 292.173223 158.934803 
L 299.472397 158.934803 
L 299.789752 158.629743 
L 300.107107 158.629743 
L 300.741818 157.910679 
L 302.328595 157.910679 
L 302.64595 156.890834 
L 302.963306 156.465042 
L 303.598017 156.465042 
L 303.915372 155.805224 
L 304.232727 155.805224 
L 304.550083 153.333241 
L 304.867438 153.333241 
L 305.184793 152.968215 
L 308.993058 152.968215 
L 309.310413 150.970862 
L 335.968264 150.861309 
L 336.602975 150.167295 
L 336.920331 148.242825 
L 338.507107 148.242825 
L 338.824463 147.770274 
L 339.141818 147.770274 
L 339.459174 145.513575 
L 340.093884 145.513575 
L 340.41124 145.24575 
L 340.728595 145.24575 
L 341.04595 144.07348 
L 341.680661 143.987552 
L 341.998017 143.987552 
L 342.315372 143.465904 
L 342.632727 142.639791 
L 342.950083 141.206778 
L 361.991405 141.206674 
L 362.30876 138.684944 
L 362.626116 138.684944 
L 362.943471 136.402188 
L 364.530248 136.402188 
L 364.847603 135.362052 
L 365.164959 135.362052 
L 365.799669 134.91574 
L 366.117025 130.398733 
L 367.069091 130.297863 
L 367.386446 128.296386 
L 368.021157 128.296386 
L 368.338512 127.727315 
L 368.655868 127.398111 
L 370.242645 127.398111 
L 370.56 125.938632 
L 372.146777 125.938632 
L 372.464132 125.605569 
L 372.781488 125.605569 
L 373.098843 124.197523 
L 380.398017 124.197523 
L 380.715372 121.834498 
L 381.032727 120.915804 
L 381.350083 120.915804 
L 381.667438 119.152209 
L 382.302149 119.152209 
L 382.619504 117.634027 
L 384.206281 117.634027 
L 384.840992 115.687069 
L 385.158347 112.254809 
L 385.475702 111.532294 
L 389.918678 111.457374 
L 390.236033 110.137828 
L 391.188099 110.099492 
L 391.505455 107.869943 
L 391.82281 103.133357 
L 392.140165 103.133357 
L 392.457521 102.175373 
L 392.774876 100.624772 
L 393.092231 100.624772 
L 393.409587 96.341305 
L 394.996364 96.341305 
L 395.313719 95.166472 
L 395.631074 95.166472 
L 395.94843 94.70064 
L 396.265785 87.107979 
L 396.58314 82.610325 
L 397.217851 82.610325 
L 397.535207 80.11346 
L 397.852562 68.092781 
L 398.169917 68.092781 
L 398.487273 54.030158 
L 398.487273 54.030158 
" clip-path="url(#pa668b92b36)" style="fill: none; stroke: #ff7f0e; stroke-width: 1.5; stroke-linecap: square"/>
   </g>
   <g id="patch_3">
    <path d="M 57.6 307.584 
L 57.6 41.472 
" style="fill: none; stroke: #000000; stroke-width: 0.8; stroke-linejoin: miter; stroke-linecap: square"/>
   </g>
   <g id="patch_4">
    <path d="M 414.72 307.584 
L 414.72 41.472 
" style="fill: none; stroke: #000000; stroke-width: 0.8; stroke-linejoin: miter; stroke-linecap: square"/>
   </g>
   <g id="patch_5">
    <path d="M 57.6 307.584 
L 414.72 307.584 
" style="fill: none; stroke: #000000; stroke-width: 0.8; stroke-linejoin: miter; stroke-linecap: square"/>
   </g>
   <g id="patch_6">
    <path d="M 57.6 41.472 
L 414.72 41.472 
" style="fill: none; stroke: #000000; stroke-width: 0.8; stroke-linejoin: miter; stroke-linecap: square"/>
   </g>
   <g id="legend_1">
    <g id="patch_7">
     <path d="M 64.6 78.82825 
L 129.342187 78.82825 
Q 131.342187 78.82825 131.342187 76.82825 
L 131.342187 48.472 
Q 131.342187 46.472 129.342187 46.472 
L 64.6 46.472 
Q 62.6 46.472 62.6 48.472 
L 62.6 76.82825 
Q 62.6 78.82825 64.6 78.82825 
z
" style="fill: #ffffff; opacity: 0.8; stroke: #cccccc; stroke-linejoin: miter"/>
    </g>
    <g id="line2d_14">
     <path d="M 66.6 54.570437 
L 76.6 54.570437 
L 86.6 54.570437 
" style="fill: none; stroke: #1f77b4; stroke-width: 1.5; stroke-linecap: square"/>
    </g>
    <g id="text_14">
     <!-- qc -->
     <g transform="translate(94.6 58.070437) scale(0.1 -0.1)">
      <defs>
       <path id="DejaVuSans-71" d="M 947 1747 
Q 947 1113 1208 752 
Q 1469 391 1925 391 
Q 2381 391 2643 752 
Q 2906 1113 2906 1747 
Q 2906 2381 2643 2742 
Q 2381 3103 1925 3103 
Q 1469 3103 1208 2742 
Q 947 2381 947 1747 
z
M 2906 525 
Q 2725 213 2448 61 
Q 2172 -91 1784 -91 
Q 1150 -91 751 415 
Q 353 922 353 1747 
Q 353 2572 751 3078 
Q 1150 3584 1784 3584 
Q 2172 3584 2448 3432 
Q 2725 3281 2906 2969 
L 2906 3500 
L 3481 3500 
L 3481 -1331 
L 2906 -1331 
L 2906 525 
z
" transform="scale(0.015625)"/>
       <path id="DejaVuSans-63" d="M 3122 3366 
L 3122 2828 
Q 2878 2963 2633 3030 
Q 2388 3097 2138 3097 
Q 1578 3097 1268 2742 
Q 959 2388 959 1747 
Q 959 1106 1268 751 
Q 1578 397 2138 397 
Q 2388 397 2633 464 
Q 2878 531 3122 666 
L 3122 134 
Q 2881 22 2623 -34 
Q 2366 -91 2075 -91 
Q 1284 -91 818 406 
Q 353 903 353 1747 
Q 353 2603 823 3093 
Q 1294 3584 2113 3584 
Q 2378 3584 2631 3529 
Q 2884 3475 3122 3366 
z
" transform="scale(0.015625)"/>
      </defs>
      <use xlink:href="#DejaVuSans-71"/>
      <use xlink:href="#DejaVuSans-63" x="63.476562"/>
     </g>
    </g>
    <g id="line2d_15">
     <path d="M 66.6 69.248562 
L 76.6 69.248562 
L 86.6 69.248562 
" style="fill: none; stroke: #ff7f0e; stroke-width: 1.5; stroke-linecap: square"/>
    </g>
    <g id="text_15">
     <!-- Trotter -->
     <g transform="translate(94.6 72.748562) scale(0.1 -0.1)">
      <defs>
       <path id="DejaVuSans-54" d="M -19 4666 
L 3928 4666 
L 3928 4134 
L 2272 4134 
L 2272 0 
L 1638 0 
L 1638 4134 
L -19 4134 
L -19 4666 
z
" transform="scale(0.015625)"/>
       <path id="DejaVuSans-72" d="M 2631 2963 
Q 2534 3019 2420 3045 
Q 2306 3072 2169 3072 
Q 1681 3072 1420 2755 
Q 1159 2438 1159 1844 
L 1159 0 
L 581 0 
L 581 3500 
L 1159 3500 
L 1159 2956 
Q 1341 3275 1631 3429 
Q 1922 3584 2338 3584 
Q 2397 3584 2469 3576 
Q 2541 3569 2628 3553 
L 2631 2963 
z
" transform="scale(0.015625)"/>
       <path id="DejaVuSans-6f" d="M 1959 3097 
Q 1497 3097 1228 2736 
Q 959 2375 959 1747 
Q 959 1119 1226 758 
Q 1494 397 1959 397 
Q 2419 397 2687 759 
Q 2956 1122 2956 1747 
Q 2956 2369 2687 2733 
Q 2419 3097 1959 3097 
z
M 1959 3584 
Q 2709 3584 3137 3096 
Q 3566 2609 3566 1747 
Q 3566 888 3137 398 
Q 2709 -91 1959 -91 
Q 1206 -91 779 398 
Q 353 888 353 1747 
Q 353 2609 779 3096 
Q 1206 3584 1959 3584 
z
" transform="scale(0.015625)"/>
       <path id="DejaVuSans-65" d="M 3597 1894 
L 3597 1613 
L 953 1613 
Q 991 1019 1311 708 
Q 1631 397 2203 397 
Q 2534 397 2845 478 
Q 3156 559 3463 722 
L 3463 178 
Q 3153 47 2828 -22 
Q 2503 -91 2169 -91 
Q 1331 -91 842 396 
Q 353 884 353 1716 
Q 353 2575 817 3079 
Q 1281 3584 2069 3584 
Q 2775 3584 3186 3129 
Q 3597 2675 3597 1894 
z
M 3022 2063 
Q 3016 2534 2758 2815 
Q 2500 3097 2075 3097 
Q 1594 3097 1305 2825 
Q 1016 2553 972 2059 
L 3022 2063 
z
" transform="scale(0.015625)"/>
      </defs>
      <use xlink:href="#DejaVuSans-54"/>
      <use xlink:href="#DejaVuSans-72" x="46.333984"/>
      <use xlink:href="#DejaVuSans-6f" x="85.197266"/>
      <use xlink:href="#DejaVuSans-74" x="146.378906"/>
      <use xlink:href="#DejaVuSans-74" x="185.587891"/>
      <use xlink:href="#DejaVuSans-65" x="224.796875"/>
      <use xlink:href="#DejaVuSans-72" x="286.320312"/>
     </g>
    </g>
   </g>
  </g>
 </g>
 <defs>
  <clipPath id="pa668b92b36">
   <rect x="57.6" y="41.472" width="357.12" height="266.112"/>
  </clipPath>
 </defs>
</svg>
