<?xml version="1.0" encoding="utf-8" standalone="no"?>
<!DOCTYPE svg PUBLIC "-//W3C//DTD SVG 1.1//EN"
  "http://www.w3.org/Graphics/SVG/1.1/DTD/svg11.dtd">
<svg xmlns:xlink="http://www.w3.org/1999/xlink" width="460.8pt" height="345.6pt" viewBox="0 0 460.8 345.6" xmlns="http://www.w3.org/2000/svg" version="1.1">
 <metadata>
  <rdf:RDF xmlns:dc="http://purl.org/dc/elements/1.1/" xmlns:cc="http://creativecommons.org/ns#" xmlns:rdf="http://www.w3.org/1999/02/22-rdf-syntax-ns#">
   <cc:Work>
    <dc:type rdf:resource="http://purl.org/dc/dcmitype/StillImage"/>
    <dc:date>2024-04-18T11:41:29.214282</dc:date>
    <dc:format>image/svg+xml</dc:format>
    <dc:creator>
     <cc:Agent>
      <dc:title>Matplotlib v3.7.1, https://matplotlib.org/</dc:title>
     </cc:Agent>
    </dc:creator>
   </cc:Work>
  </rdf:RDF>
 </metadata>
 <defs>
  <style type="text/css">*{stroke-linejoin: round; stroke-linecap: butt}</style>
 </defs>
 <g id="figure_1">
  <g id="patch_1">
   <path d="M 0 345.6 
L 460.8 345.6 
L 460.8 0 
L 0 0 
z
" style="fill: #ffffff"/>
  </g>
  <g id="axes_1">
   <g id="patch_2">
    <path d="M 57.6 307.584 
L 414.72 307.584 
L 414.72 41.472 
L 57.6 41.472 
z
" style="fill: #ffffff"/>
   </g>
   <g id="matplotlib.axis_1">
    <g id="xtick_1">
     <g id="line2d_1">
      <defs>
       <path id="m2c4c534bc3" d="M 0 0 
L 0 3.5 
" style="stroke: #000000; stroke-width: 0.8"/>
      </defs>
      <g>
       <use xlink:href="#m2c4c534bc3" x="73.832727" y="307.584" style="stroke: #000000; stroke-width: 0.8"/>
      </g>
     </g>
     <g id="text_1">
      <!-- $\mathdefault{10^{0}}$ -->
      <g transform="translate(65.032727 322.182437) scale(0.1 -0.1)">
       <defs>
        <path id="DejaVuSans-31" d="M 794 531 
L 1825 531 
L 1825 4091 
L 703 3866 
L 703 4441 
L 1819 4666 
L 2450 4666 
L 2450 531 
L 3481 531 
L 3481 0 
L 794 0 
L 794 531 
z
" transform="scale(0.015625)"/>
        <path id="DejaVuSans-30" d="M 2034 4250 
Q 1547 4250 1301 3770 
Q 1056 3291 1056 2328 
Q 1056 1369 1301 889 
Q 1547 409 2034 409 
Q 2525 409 2770 889 
Q 3016 1369 3016 2328 
Q 3016 3291 2770 3770 
Q 2525 4250 2034 4250 
z
M 2034 4750 
Q 2819 4750 3233 4129 
Q 3647 3509 3647 2328 
Q 3647 1150 3233 529 
Q 2819 -91 2034 -91 
Q 1250 -91 836 529 
Q 422 1150 422 2328 
Q 422 3509 836 4129 
Q 1250 4750 2034 4750 
z
" transform="scale(0.015625)"/>
       </defs>
       <use xlink:href="#DejaVuSans-31" transform="translate(0 0.765625)"/>
       <use xlink:href="#DejaVuSans-30" transform="translate(63.623047 0.765625)"/>
       <use xlink:href="#DejaVuSans-30" transform="translate(128.203125 39.046875) scale(0.7)"/>
      </g>
     </g>
    </g>
    <g id="xtick_2">
     <g id="line2d_2">
      <g>
       <use xlink:href="#m2c4c534bc3" x="181.695837" y="307.584" style="stroke: #000000; stroke-width: 0.8"/>
      </g>
     </g>
     <g id="text_2">
      <!-- $\mathdefault{10^{1}}$ -->
      <g transform="translate(172.895837 322.182437) scale(0.1 -0.1)">
       <use xlink:href="#DejaVuSans-31" transform="translate(0 0.684375)"/>
       <use xlink:href="#DejaVuSans-30" transform="translate(63.623047 0.684375)"/>
       <use xlink:href="#DejaVuSans-31" transform="translate(128.203125 38.965625) scale(0.7)"/>
      </g>
     </g>
    </g>
    <g id="xtick_3">
     <g id="line2d_3">
      <g>
       <use xlink:href="#m2c4c534bc3" x="289.558947" y="307.584" style="stroke: #000000; stroke-width: 0.8"/>
      </g>
     </g>
     <g id="text_3">
      <!-- $\mathdefault{10^{2}}$ -->
      <g transform="translate(280.758947 322.182437) scale(0.1 -0.1)">
       <defs>
        <path id="DejaVuSans-32" d="M 1228 531 
L 3431 531 
L 3431 0 
L 469 0 
L 469 531 
Q 828 903 1448 1529 
Q 2069 2156 2228 2338 
Q 2531 2678 2651 2914 
Q 2772 3150 2772 3378 
Q 2772 3750 2511 3984 
Q 2250 4219 1831 4219 
Q 1534 4219 1204 4116 
Q 875 4013 500 3803 
L 500 4441 
Q 881 4594 1212 4672 
Q 1544 4750 1819 4750 
Q 2544 4750 2975 4387 
Q 3406 4025 3406 3419 
Q 3406 3131 3298 2873 
Q 3191 2616 2906 2266 
Q 2828 2175 2409 1742 
Q 1991 1309 1228 531 
z
" transform="scale(0.015625)"/>
       </defs>
       <use xlink:href="#DejaVuSans-31" transform="translate(0 0.765625)"/>
       <use xlink:href="#DejaVuSans-30" transform="translate(63.623047 0.765625)"/>
       <use xlink:href="#DejaVuSans-32" transform="translate(128.203125 39.046875) scale(0.7)"/>
      </g>
     </g>
    </g>
    <g id="xtick_4">
     <g id="line2d_4">
      <g>
       <use xlink:href="#m2c4c534bc3" x="397.422056" y="307.584" style="stroke: #000000; stroke-width: 0.8"/>
      </g>
     </g>
     <g id="text_4">
      <!-- $\mathdefault{10^{3}}$ -->
      <g transform="translate(388.622056 322.182437) scale(0.1 -0.1)">
       <defs>
        <path id="DejaVuSans-33" d="M 2597 2516 
Q 3050 2419 3304 2112 
Q 3559 1806 3559 1356 
Q 3559 666 3084 287 
Q 2609 -91 1734 -91 
Q 1441 -91 1130 -33 
Q 819 25 488 141 
L 488 750 
Q 750 597 1062 519 
Q 1375 441 1716 441 
Q 2309 441 2620 675 
Q 2931 909 2931 1356 
Q 2931 1769 2642 2001 
Q 2353 2234 1838 2234 
L 1294 2234 
L 1294 2753 
L 1863 2753 
Q 2328 2753 2575 2939 
Q 2822 3125 2822 3475 
Q 2822 3834 2567 4026 
Q 2313 4219 1838 4219 
Q 1578 4219 1281 4162 
Q 984 4106 628 3988 
L 628 4550 
Q 988 4650 1302 4700 
Q 1616 4750 1894 4750 
Q 2613 4750 3031 4423 
Q 3450 4097 3450 3541 
Q 3450 3153 3228 2886 
Q 3006 2619 2597 2516 
z
" transform="scale(0.015625)"/>
       </defs>
       <use xlink:href="#DejaVuSans-31" transform="translate(0 0.765625)"/>
       <use xlink:href="#DejaVuSans-30" transform="translate(63.623047 0.765625)"/>
       <use xlink:href="#DejaVuSans-33" transform="translate(128.203125 39.046875) scale(0.7)"/>
      </g>
     </g>
    </g>
    <g id="xtick_5">
     <g id="line2d_5">
      <defs>
       <path id="m2a38ae8e5c" d="M 0 0 
L 0 2 
" style="stroke: #000000; stroke-width: 0.6"/>
      </defs>
      <g>
       <use xlink:href="#m2a38ae8e5c" x="63.379712" y="307.584" style="stroke: #000000; stroke-width: 0.6"/>
      </g>
     </g>
    </g>
    <g id="xtick_6">
     <g id="line2d_6">
      <g>
       <use xlink:href="#m2a38ae8e5c" x="68.897182" y="307.584" style="stroke: #000000; stroke-width: 0.6"/>
      </g>
     </g>
    </g>
    <g id="xtick_7">
     <g id="line2d_7">
      <g>
       <use xlink:href="#m2a38ae8e5c" x="106.302759" y="307.584" style="stroke: #000000; stroke-width: 0.6"/>
      </g>
     </g>
    </g>
    <g id="xtick_8">
     <g id="line2d_8">
      <g>
       <use xlink:href="#m2a38ae8e5c" x="125.296509" y="307.584" style="stroke: #000000; stroke-width: 0.6"/>
      </g>
     </g>
    </g>
    <g id="xtick_9">
     <g id="line2d_9">
      <g>
       <use xlink:href="#m2a38ae8e5c" x="138.77279" y="307.584" style="stroke: #000000; stroke-width: 0.6"/>
      </g>
     </g>
    </g>
    <g id="xtick_10">
     <g id="line2d_10">
      <g>
       <use xlink:href="#m2a38ae8e5c" x="149.225805" y="307.584" style="stroke: #000000; stroke-width: 0.6"/>
      </g>
     </g>
    </g>
    <g id="xtick_11">
     <g id="line2d_11">
      <g>
       <use xlink:href="#m2a38ae8e5c" x="157.766541" y="307.584" style="stroke: #000000; stroke-width: 0.6"/>
      </g>
     </g>
    </g>
    <g id="xtick_12">
     <g id="line2d_12">
      <g>
       <use xlink:href="#m2a38ae8e5c" x="164.98763" y="307.584" style="stroke: #000000; stroke-width: 0.6"/>
      </g>
     </g>
    </g>
    <g id="xtick_13">
     <g id="line2d_13">
      <g>
       <use xlink:href="#m2a38ae8e5c" x="171.242822" y="307.584" style="stroke: #000000; stroke-width: 0.6"/>
      </g>
     </g>
    </g>
    <g id="xtick_14">
     <g id="line2d_14">
      <g>
       <use xlink:href="#m2a38ae8e5c" x="176.760292" y="307.584" style="stroke: #000000; stroke-width: 0.6"/>
      </g>
     </g>
    </g>
    <g id="xtick_15">
     <g id="line2d_15">
      <g>
       <use xlink:href="#m2a38ae8e5c" x="214.165868" y="307.584" style="stroke: #000000; stroke-width: 0.6"/>
      </g>
     </g>
    </g>
    <g id="xtick_16">
     <g id="line2d_16">
      <g>
       <use xlink:href="#m2a38ae8e5c" x="233.159619" y="307.584" style="stroke: #000000; stroke-width: 0.6"/>
      </g>
     </g>
    </g>
    <g id="xtick_17">
     <g id="line2d_17">
      <g>
       <use xlink:href="#m2a38ae8e5c" x="246.6359" y="307.584" style="stroke: #000000; stroke-width: 0.6"/>
      </g>
     </g>
    </g>
    <g id="xtick_18">
     <g id="line2d_18">
      <g>
       <use xlink:href="#m2a38ae8e5c" x="257.088915" y="307.584" style="stroke: #000000; stroke-width: 0.6"/>
      </g>
     </g>
    </g>
    <g id="xtick_19">
     <g id="line2d_19">
      <g>
       <use xlink:href="#m2a38ae8e5c" x="265.629651" y="307.584" style="stroke: #000000; stroke-width: 0.6"/>
      </g>
     </g>
    </g>
    <g id="xtick_20">
     <g id="line2d_20">
      <g>
       <use xlink:href="#m2a38ae8e5c" x="272.850739" y="307.584" style="stroke: #000000; stroke-width: 0.6"/>
      </g>
     </g>
    </g>
    <g id="xtick_21">
     <g id="line2d_21">
      <g>
       <use xlink:href="#m2a38ae8e5c" x="279.105931" y="307.584" style="stroke: #000000; stroke-width: 0.6"/>
      </g>
     </g>
    </g>
    <g id="xtick_22">
     <g id="line2d_22">
      <g>
       <use xlink:href="#m2a38ae8e5c" x="284.623401" y="307.584" style="stroke: #000000; stroke-width: 0.6"/>
      </g>
     </g>
    </g>
    <g id="xtick_23">
     <g id="line2d_23">
      <g>
       <use xlink:href="#m2a38ae8e5c" x="322.028978" y="307.584" style="stroke: #000000; stroke-width: 0.6"/>
      </g>
     </g>
    </g>
    <g id="xtick_24">
     <g id="line2d_24">
      <g>
       <use xlink:href="#m2a38ae8e5c" x="341.022729" y="307.584" style="stroke: #000000; stroke-width: 0.6"/>
      </g>
     </g>
    </g>
    <g id="xtick_25">
     <g id="line2d_25">
      <g>
       <use xlink:href="#m2a38ae8e5c" x="354.499009" y="307.584" style="stroke: #000000; stroke-width: 0.6"/>
      </g>
     </g>
    </g>
    <g id="xtick_26">
     <g id="line2d_26">
      <g>
       <use xlink:href="#m2a38ae8e5c" x="364.952025" y="307.584" style="stroke: #000000; stroke-width: 0.6"/>
      </g>
     </g>
    </g>
    <g id="xtick_27">
     <g id="line2d_27">
      <g>
       <use xlink:href="#m2a38ae8e5c" x="373.49276" y="307.584" style="stroke: #000000; stroke-width: 0.6"/>
      </g>
     </g>
    </g>
    <g id="xtick_28">
     <g id="line2d_28">
      <g>
       <use xlink:href="#m2a38ae8e5c" x="380.713849" y="307.584" style="stroke: #000000; stroke-width: 0.6"/>
      </g>
     </g>
    </g>
    <g id="xtick_29">
     <g id="line2d_29">
      <g>
       <use xlink:href="#m2a38ae8e5c" x="386.969041" y="307.584" style="stroke: #000000; stroke-width: 0.6"/>
      </g>
     </g>
    </g>
    <g id="xtick_30">
     <g id="line2d_30">
      <g>
       <use xlink:href="#m2a38ae8e5c" x="392.486511" y="307.584" style="stroke: #000000; stroke-width: 0.6"/>
      </g>
     </g>
    </g>
   </g>
   <g id="matplotlib.axis_2">
    <g id="ytick_1">
     <g id="line2d_31">
      <defs>
       <path id="m78dc03fdfe" d="M 0 0 
L -3.5 0 
" style="stroke: #000000; stroke-width: 0.8"/>
      </defs>
      <g>
       <use xlink:href="#m78dc03fdfe" x="57.6" y="273.762965" style="stroke: #000000; stroke-width: 0.8"/>
      </g>
     </g>
     <g id="text_5">
      <!-- $\mathdefault{10^{-28}}$ -->
      <g transform="translate(22.7 277.562184) scale(0.1 -0.1)">
       <defs>
        <path id="DejaVuSans-2212" d="M 678 2272 
L 4684 2272 
L 4684 1741 
L 678 1741 
L 678 2272 
z
" transform="scale(0.015625)"/>
        <path id="DejaVuSans-38" d="M 2034 2216 
Q 1584 2216 1326 1975 
Q 1069 1734 1069 1313 
Q 1069 891 1326 650 
Q 1584 409 2034 409 
Q 2484 409 2743 651 
Q 3003 894 3003 1313 
Q 3003 1734 2745 1975 
Q 2488 2216 2034 2216 
z
M 1403 2484 
Q 997 2584 770 2862 
Q 544 3141 544 3541 
Q 544 4100 942 4425 
Q 1341 4750 2034 4750 
Q 2731 4750 3128 4425 
Q 3525 4100 3525 3541 
Q 3525 3141 3298 2862 
Q 3072 2584 2669 2484 
Q 3125 2378 3379 2068 
Q 3634 1759 3634 1313 
Q 3634 634 3220 271 
Q 2806 -91 2034 -91 
Q 1263 -91 848 271 
Q 434 634 434 1313 
Q 434 1759 690 2068 
Q 947 2378 1403 2484 
z
M 1172 3481 
Q 1172 3119 1398 2916 
Q 1625 2713 2034 2713 
Q 2441 2713 2670 2916 
Q 2900 3119 2900 3481 
Q 2900 3844 2670 4047 
Q 2441 4250 2034 4250 
Q 1625 4250 1398 4047 
Q 1172 3844 1172 3481 
z
" transform="scale(0.015625)"/>
       </defs>
       <use xlink:href="#DejaVuSans-31" transform="translate(0 0.765625)"/>
       <use xlink:href="#DejaVuSans-30" transform="translate(63.623047 0.765625)"/>
       <use xlink:href="#DejaVuSans-2212" transform="translate(128.203125 39.046875) scale(0.7)"/>
       <use xlink:href="#DejaVuSans-32" transform="translate(186.855469 39.046875) scale(0.7)"/>
       <use xlink:href="#DejaVuSans-38" transform="translate(231.391602 39.046875) scale(0.7)"/>
      </g>
     </g>
    </g>
    <g id="ytick_2">
     <g id="line2d_32">
      <g>
       <use xlink:href="#m78dc03fdfe" x="57.6" y="236.448298" style="stroke: #000000; stroke-width: 0.8"/>
      </g>
     </g>
     <g id="text_6">
      <!-- $\mathdefault{10^{-23}}$ -->
      <g transform="translate(22.7 240.247516) scale(0.1 -0.1)">
       <use xlink:href="#DejaVuSans-31" transform="translate(0 0.765625)"/>
       <use xlink:href="#DejaVuSans-30" transform="translate(63.623047 0.765625)"/>
       <use xlink:href="#DejaVuSans-2212" transform="translate(128.203125 39.046875) scale(0.7)"/>
       <use xlink:href="#DejaVuSans-32" transform="translate(186.855469 39.046875) scale(0.7)"/>
       <use xlink:href="#DejaVuSans-33" transform="translate(231.391602 39.046875) scale(0.7)"/>
      </g>
     </g>
    </g>
    <g id="ytick_3">
     <g id="line2d_33">
      <g>
       <use xlink:href="#m78dc03fdfe" x="57.6" y="199.13363" style="stroke: #000000; stroke-width: 0.8"/>
      </g>
     </g>
     <g id="text_7">
      <!-- $\mathdefault{10^{-18}}$ -->
      <g transform="translate(22.7 202.932849) scale(0.1 -0.1)">
       <use xlink:href="#DejaVuSans-31" transform="translate(0 0.765625)"/>
       <use xlink:href="#DejaVuSans-30" transform="translate(63.623047 0.765625)"/>
       <use xlink:href="#DejaVuSans-2212" transform="translate(128.203125 39.046875) scale(0.7)"/>
       <use xlink:href="#DejaVuSans-31" transform="translate(186.855469 39.046875) scale(0.7)"/>
       <use xlink:href="#DejaVuSans-38" transform="translate(231.391602 39.046875) scale(0.7)"/>
      </g>
     </g>
    </g>
    <g id="ytick_4">
     <g id="line2d_34">
      <g>
       <use xlink:href="#m78dc03fdfe" x="57.6" y="161.818963" style="stroke: #000000; stroke-width: 0.8"/>
      </g>
     </g>
     <g id="text_8">
      <!-- $\mathdefault{10^{-13}}$ -->
      <g transform="translate(22.7 165.618182) scale(0.1 -0.1)">
       <use xlink:href="#DejaVuSans-31" transform="translate(0 0.765625)"/>
       <use xlink:href="#DejaVuSans-30" transform="translate(63.623047 0.765625)"/>
       <use xlink:href="#DejaVuSans-2212" transform="translate(128.203125 39.046875) scale(0.7)"/>
       <use xlink:href="#DejaVuSans-31" transform="translate(186.855469 39.046875) scale(0.7)"/>
       <use xlink:href="#DejaVuSans-33" transform="translate(231.391602 39.046875) scale(0.7)"/>
      </g>
     </g>
    </g>
    <g id="ytick_5">
     <g id="line2d_35">
      <g>
       <use xlink:href="#m78dc03fdfe" x="57.6" y="124.504296" style="stroke: #000000; stroke-width: 0.8"/>
      </g>
     </g>
     <g id="text_9">
      <!-- $\mathdefault{10^{-8}}$ -->
      <g transform="translate(27.1 128.303514) scale(0.1 -0.1)">
       <use xlink:href="#DejaVuSans-31" transform="translate(0 0.765625)"/>
       <use xlink:href="#DejaVuSans-30" transform="translate(63.623047 0.765625)"/>
       <use xlink:href="#DejaVuSans-2212" transform="translate(128.203125 39.046875) scale(0.7)"/>
       <use xlink:href="#DejaVuSans-38" transform="translate(186.855469 39.046875) scale(0.7)"/>
      </g>
     </g>
    </g>
    <g id="ytick_6">
     <g id="line2d_36">
      <g>
       <use xlink:href="#m78dc03fdfe" x="57.6" y="87.189628" style="stroke: #000000; stroke-width: 0.8"/>
      </g>
     </g>
     <g id="text_10">
      <!-- $\mathdefault{10^{-3}}$ -->
      <g transform="translate(27.1 90.988847) scale(0.1 -0.1)">
       <use xlink:href="#DejaVuSans-31" transform="translate(0 0.765625)"/>
       <use xlink:href="#DejaVuSans-30" transform="translate(63.623047 0.765625)"/>
       <use xlink:href="#DejaVuSans-2212" transform="translate(128.203125 39.046875) scale(0.7)"/>
       <use xlink:href="#DejaVuSans-33" transform="translate(186.855469 39.046875) scale(0.7)"/>
      </g>
     </g>
    </g>
    <g id="ytick_7">
     <g id="line2d_37">
      <g>
       <use xlink:href="#m78dc03fdfe" x="57.6" y="49.874961" style="stroke: #000000; stroke-width: 0.8"/>
      </g>
     </g>
     <g id="text_11">
      <!-- $\mathdefault{10^{2}}$ -->
      <g transform="translate(33 53.67418) scale(0.1 -0.1)">
       <use xlink:href="#DejaVuSans-31" transform="translate(0 0.765625)"/>
       <use xlink:href="#DejaVuSans-30" transform="translate(63.623047 0.765625)"/>
       <use xlink:href="#DejaVuSans-32" transform="translate(128.203125 39.046875) scale(0.7)"/>
      </g>
     </g>
    </g>
   </g>
   <g id="line2d_38">
    <path d="M -1 74.526685 
L 73.832727 74.541236 
L 106.302759 75.524218 
L 125.296509 78.761665 
L 138.77279 116.346536 
L 149.225805 119.063803 
L 157.766541 125.954098 
L 164.98763 138.726561 
L 171.242822 139.698446 
L 176.760292 143.937105 
L 186.160581 147.46999 
L 190.236572 153.329161 
L 193.986121 153.632015 
L 197.457661 155.247727 
L 200.689588 156.006559 
L 203.712853 167.023576 
L 206.552774 169.348229 
L 209.230323 171.29525 
L 211.763067 172.961411 
L 214.165868 173.548934 
L 216.451412 173.607912 
L 218.630612 173.799244 
L 220.712926 174.256582 
L 222.706604 174.308043 
L 226.456153 174.858949 
L 233.159619 175.37268 
L 239.022806 176.32023 
L 240.380708 176.724216 
L 242.983842 176.914504 
L 244.233099 177.25008 
L 246.6359 178.755764 
L 248.921443 179.113319 
L 250.023714 179.545393 
L 251.100643 180.181512 
L 252.15337 181.396454 
L 253.182958 183.217594 
L 254.190402 183.764955 
L 255.176635 186.534429 
L 256.142532 188.392381 
L 257.088915 191.189269 
L 258.016556 195.453101 
L 259.818484 196.104612 
L 261.553659 196.332212 
L 263.226849 196.762043 
L 267.915194 197.753513 
L 268.652916 198.170427 
L 271.492837 199.143135 
L 275.453873 201.485936 
L 276.082666 202.073312 
L 276.70313 202.892204 
L 277.315483 203.03894 
L 278.516686 203.745658 
L 279.105931 204.808232 
L 280.262641 205.622575 
L 280.830458 205.77472 
L 281.945852 206.491206 
L 283.035305 207.210108 
L 284.099995 207.732953 
L 284.623401 207.80269 
L 286.660433 208.609144 
L 287.156145 208.685961 
L 287.646667 208.89923 
L 288.132105 208.922769 
L 294.447624 210.606747 
L 297.312363 211.121831 
L 302.564426 211.962643 
L 306.313975 212.47395 
L 310.986718 213.136816 
L 314.963777 213.681165 
L 315.505336 213.823023 
L 317.867737 214.119408 
L 326.065916 215.563662 
L 326.706168 215.674068 
L 328.981617 216.191116 
L 333.04078 217.305758 
L 334.499087 217.808745 
L 334.678225 217.818934 
L 335.034457 217.974965 
L 337.623202 219.159417 
L 338.290036 219.532535 
L 338.784006 219.863542 
L 339.110449 220.090972 
L 340.393936 221.000045 
L 341.797033 222.465825 
L 341.95037 222.621975 
L 342.407392 223.365465 
L 343.0099 224.536618 
L 343.308272 225.241265 
L 343.456749 225.309119 
L 343.899376 226.861685 
L 344.916193 229.81778 
L 345.202703 230.156807 
L 345.487472 230.995224 
L 345.770521 231.374002 
L 345.911406 231.515374 
L 346.191912 231.946027 
L 346.609547 232.60936 
L 347.297435 233.096034 
L 348.64363 234.067917 
L 349.040058 234.226623 
L 349.302492 234.416207 
L 350.973387 235.313516 
L 351.600496 235.593144 
L 352.830077 236.137042 
L 354.028208 236.631316 
L 354.615974 236.90741 
L 359.282063 239.151721 
L 359.703138 239.394407 
L 360.944121 240.156652 
L 362.64774 241.416399 
L 365.695602 244.53679 
L 366.154414 245.095561 
L 366.427559 245.370034 
L 367.593125 246.669314 
L 367.769896 246.846974 
L 368.988963 248.040022 
L 370.427837 249.267936 
L 370.677231 249.456481 
L 373.648648 251.339132 
L 375.852601 252.534582 
L 376.295926 252.765501 
L 379.69913 254.420201 
L 380.980769 255.092593 
L 382.999393 256.150128 
L 383.443418 256.435425 
L 384.070528 256.77037 
L 384.934611 257.294295 
L 385.903004 257.95988 
L 386.201567 258.188575 
L 387.144379 258.901347 
L 387.377146 259.134202 
L 388.80631 260.54901 
L 389.142917 260.941215 
L 389.587998 261.519503 
L 389.808962 261.837437 
L 390.247788 262.507669 
L 390.790603 263.622775 
L 391.005979 264.064758 
L 391.540128 265.852084 
L 392.015709 267.815291 
L 392.068255 267.914694 
L 392.538531 270.463646 
L 392.746037 271.052692 
L 393.004133 272.182577 
L 393.465153 273.718418 
L 393.668603 274.306872 
L 394.373801 275.977729 
L 394.423768 275.994573 
L 394.920531 277.060734 
L 396.761601 280.970311 
L 397.888173 285.19318 
L 398.257756 288.344634 
L 398.395601 290.564996 
L 398.487273 295.488 
L 398.487273 295.488 
" clip-path="url(#pa907554234)" style="fill: none; stroke: #1f77b4; stroke-width: 1.5; stroke-linecap: square"/>
   </g>
   <g id="line2d_39">
    <path d="M -1 74.526685 
L 73.832727 74.541236 
L 106.302759 75.524218 
L 125.296509 78.761665 
L 138.77279 116.346536 
L 149.225805 119.063803 
L 157.766541 125.954098 
L 164.98763 138.726561 
L 171.242822 139.698446 
L 176.760292 143.937105 
L 186.160581 147.46999 
L 190.236572 153.329161 
L 193.986121 153.632015 
L 197.457661 155.247727 
L 200.689588 156.006559 
L 203.712853 167.023576 
L 206.552774 169.348229 
L 209.230323 171.29525 
L 211.763067 172.961411 
L 214.165868 173.548934 
L 216.451412 173.607912 
L 218.630612 173.799244 
L 220.712926 174.256582 
L 222.706604 174.308043 
L 226.456153 174.858949 
L 233.159619 175.37268 
L 239.022806 176.32023 
L 240.380708 176.724216 
L 242.983842 176.914504 
L 244.233099 177.25008 
L 246.6359 178.755764 
L 248.921443 179.113319 
L 250.023714 179.545393 
L 251.100643 180.181512 
L 252.15337 181.396454 
L 253.182958 183.217594 
L 254.190402 183.764955 
L 255.176635 186.534429 
L 256.142532 188.392381 
L 257.088915 191.189269 
L 258.016556 195.453101 
L 259.818484 196.104612 
L 261.553659 196.332212 
L 263.226849 196.762043 
L 267.915194 197.753513 
L 268.652916 198.170427 
L 271.492837 199.143135 
L 275.453873 201.485936 
L 276.082666 202.073312 
L 276.70313 202.892204 
L 277.315483 203.03894 
L 278.516686 203.745658 
L 279.105931 204.808232 
L 280.262641 205.622575 
L 280.830458 205.77472 
L 281.945852 206.491206 
L 283.035305 207.210108 
L 284.099995 207.732953 
L 284.623401 207.80269 
L 286.660433 208.609144 
L 287.156145 208.685961 
L 287.646667 208.89923 
L 288.132105 208.922769 
L 294.447624 210.606747 
L 297.312363 211.121831 
L 302.564426 211.962643 
L 306.313975 212.47395 
L 310.986718 213.136816 
L 314.963777 213.681165 
L 315.505336 213.823023 
L 317.867737 214.119408 
L 326.065916 215.563662 
L 326.706168 215.674068 
L 328.981617 216.191116 
L 333.04078 217.305758 
L 334.499087 217.808745 
L 334.678225 217.818934 
L 335.034457 217.974965 
L 337.623202 219.159417 
L 338.290036 219.532535 
L 338.784006 219.863542 
L 339.110449 220.090972 
L 340.393936 221.000045 
L 341.797033 222.465825 
L 341.95037 222.621975 
L 342.407392 223.365465 
L 343.0099 224.536618 
L 343.308272 225.241265 
L 343.456749 225.309119 
L 343.899376 226.861685 
L 344.916193 229.81778 
L 345.202703 230.156807 
L 345.487472 230.995224 
L 345.770521 231.374002 
L 345.911406 231.515374 
L 346.191912 231.946027 
L 346.609547 232.60936 
L 347.297435 233.096034 
L 348.64363 234.067917 
L 349.040058 234.226623 
L 349.302492 234.416207 
L 350.973387 235.313516 
L 351.600496 235.593144 
L 352.830077 236.137042 
L 354.028208 236.631316 
L 354.615974 236.90741 
L 359.282063 239.151721 
L 359.703138 239.394407 
L 360.944121 240.156652 
L 362.64774 241.416399 
L 365.695602 244.53679 
L 366.154414 245.095561 
L 366.427559 245.370034 
L 367.593125 246.669314 
L 367.769896 246.846974 
L 368.988963 248.040022 
L 370.427837 249.267936 
L 370.677231 249.456481 
L 373.648648 251.339132 
L 375.852601 252.534582 
L 376.295926 252.765501 
L 379.69913 254.420201 
L 380.980769 255.092593 
L 382.999393 256.150128 
L 383.443418 256.435425 
L 384.070528 256.77037 
L 384.934611 257.294295 
L 385.903004 257.95988 
L 386.201567 258.188575 
L 387.144379 258.901347 
L 387.377146 259.134202 
L 388.80631 260.54901 
L 389.142917 260.941215 
L 389.587998 261.519503 
L 389.808962 261.837437 
L 390.247788 262.507669 
L 390.790603 263.622775 
L 391.005979 264.064758 
L 391.540128 265.852084 
L 392.015709 267.815291 
L 392.068255 267.914694 
L 392.538531 270.463646 
L 392.746037 271.052692 
L 393.004133 272.182577 
L 393.465153 273.718418 
L 393.668603 274.306872 
L 394.373801 275.977729 
L 394.423768 275.994573 
L 394.920531 277.060734 
L 396.761601 280.970311 
L 397.888173 285.19318 
L 398.257756 288.344634 
L 398.395601 290.564996 
L 398.487273 295.488 
L 398.487273 295.488 
" clip-path="url(#pa907554234)" style="fill: none; stroke: #ff7f0e; stroke-width: 1.5; stroke-linecap: square"/>
   </g>
   <g id="line2d_40">
    <path d="M -1 67.660122 
L 73.832727 67.669905 
L 106.302759 70.765158 
L 125.296509 72.365177 
L 138.77279 89.920851 
L 149.225805 91.638602 
L 157.766541 99.024073 
L 164.98763 106.863598 
L 171.242822 107.490463 
L 176.760292 109.370159 
L 181.695837 111.320514 
L 186.160581 112.749859 
L 190.236572 123.584052 
L 193.986121 126.784463 
L 197.457661 128.106897 
L 200.689588 128.805347 
L 203.712853 166.510549 
L 206.552774 169.337649 
L 214.165868 172.222881 
L 216.451412 173.591262 
L 218.630612 174.068605 
L 222.706604 174.5538 
L 229.927693 175.341603 
L 231.571523 175.522199 
L 233.159619 175.841024 
L 234.695637 175.93002 
L 237.624363 176.360987 
L 239.022806 176.427598 
L 240.380708 176.759957 
L 241.700355 176.87139 
L 242.983842 177.397698 
L 244.233099 177.685823 
L 245.449903 178.205921 
L 247.792609 178.723206 
L 248.921443 179.325491 
L 250.023714 179.609487 
L 252.15337 180.608691 
L 253.182958 182.027107 
L 254.190402 182.408798 
L 255.176635 182.96501 
L 256.142532 184.724629 
L 257.088915 185.28306 
L 258.016556 186.169632 
L 259.818484 186.586621 
L 269.379199 188.558577 
L 270.798834 189.038157 
L 271.492837 189.236166 
L 272.850739 189.476086 
L 274.816525 190.081183 
L 275.453873 190.428005 
L 276.082666 190.611845 
L 276.70313 190.668854 
L 277.919935 191.10792 
L 278.516686 191.192504 
L 279.687856 191.713802 
L 282.493746 192.708081 
L 283.570675 193.104622 
L 284.099995 193.158156 
L 285.652989 193.795357 
L 286.660433 194.058749 
L 287.156145 194.312062 
L 289.088145 194.679134 
L 290.025063 194.963231 
L 293.164137 195.566885 
L 293.595885 195.612313 
L 294.447624 195.820869 
L 296.106004 196.171871 
L 302.564426 197.126541 
L 303.268865 197.283727 
L 309.480339 198.285954 
L 310.389966 198.423362 
L 311.867829 198.693438 
L 329.183099 201.869724 
L 330.374121 202.132104 
L 331.535611 202.398709 
L 332.668997 202.715234 
L 333.22557 202.864619 
L 337.116771 204.171917 
L 338.455272 204.704513 
L 338.784006 204.845402 
L 339.110449 205.049025 
L 339.595887 205.349005 
L 340.393936 205.780248 
L 341.643193 206.561883 
L 342.407392 207.056761 
L 342.859998 207.490528 
L 343.0099 207.525841 
L 343.456749 207.902211 
L 345.059667 209.24165 
L 345.345304 209.378305 
L 345.62921 209.65555 
L 346.470748 210.176221 
L 347.160663 210.688701 
L 347.840564 211.006703 
L 348.377468 211.275086 
L 351.475744 212.72825 
L 352.219321 213.010312 
L 352.951279 213.408837 
L 354.381752 213.959032 
L 355.080934 214.27474 
L 356.560952 214.783328 
L 357.007092 215.003924 
L 357.777757 215.270582 
L 358.428383 215.531441 
L 359.070097 215.762825 
L 364.764272 218.284923 
L 365.232251 218.535045 
L 365.510811 218.689781 
L 366.245639 219.086027 
L 366.608776 219.24496 
L 367.148256 219.591914 
L 367.326711 219.656758 
L 367.681594 219.889607 
L 369.160554 220.670441 
L 370.34441 221.298051 
L 370.677231 221.424526 
L 370.925304 221.560783 
L 372.625977 222.421634 
L 372.94303 222.563088 
L 373.414621 222.798277 
L 374.036114 223.075986 
L 374.64947 223.371368 
L 375.254898 223.645751 
L 375.852601 223.91974 
L 376.369408 224.144465 
L 376.807892 224.325862 
L 377.886474 224.830403 
L 378.731808 225.175625 
L 379.079578 225.353752 
L 380.512656 226.010126 
L 381.113661 226.261419 
L 381.575836 226.476712 
L 382.228275 226.824098 
L 382.8078 227.1179 
L 383.69527 227.573188 
L 384.689352 228.108635 
L 387.086006 229.693675 
L 387.724143 230.173657 
L 388.80631 231.094241 
L 389.030983 231.354981 
L 389.587998 231.893451 
L 389.974004 232.345612 
L 390.193159 232.59 
L 390.411294 232.926198 
L 391.699192 234.969011 
L 392.068255 235.711752 
L 393.617824 238.815691 
L 393.972132 239.529839 
L 394.373801 240.341593 
L 394.523543 240.564614 
L 395.068539 241.534956 
L 397.140143 245.98163 
L 397.841769 248.707364 
L 398.257756 252.38359 
L 398.349697 253.935968 
L 398.487273 259.072063 
L 398.487273 259.072063 
" clip-path="url(#pa907554234)" style="fill: none; stroke: #2ca02c; stroke-width: 1.5; stroke-linecap: square"/>
   </g>
   <g id="line2d_41">
    <path d="M -1 67.660122 
L 73.832727 67.669905 
L 106.302759 70.765158 
L 125.296509 72.365177 
L 138.77279 89.920851 
L 149.225805 91.638602 
L 157.766541 99.024073 
L 164.98763 106.863598 
L 171.242822 107.490463 
L 176.760292 109.370159 
L 181.695837 111.320514 
L 186.160581 112.749859 
L 190.236572 123.584052 
L 193.986121 126.784463 
L 197.457661 128.106897 
L 200.689588 128.805347 
L 203.712853 166.510549 
L 206.552774 169.337649 
L 214.165868 172.222881 
L 216.451412 173.591262 
L 218.630612 174.068605 
L 222.706604 174.5538 
L 229.927693 175.341603 
L 231.571523 175.522199 
L 233.159619 175.841024 
L 234.695637 175.93002 
L 237.624363 176.360987 
L 239.022806 176.427598 
L 240.380708 176.759957 
L 241.700355 176.87139 
L 242.983842 177.397698 
L 244.233099 177.685823 
L 245.449903 178.205921 
L 247.792609 178.723206 
L 248.921443 179.325491 
L 250.023714 179.609487 
L 252.15337 180.608691 
L 253.182958 182.027107 
L 254.190402 182.408798 
L 255.176635 182.96501 
L 256.142532 184.724629 
L 257.088915 185.28306 
L 258.016556 186.169632 
L 259.818484 186.586621 
L 269.379199 188.558577 
L 270.798834 189.038157 
L 271.492837 189.236166 
L 272.850739 189.476086 
L 274.816525 190.081183 
L 275.453873 190.428005 
L 276.082666 190.611845 
L 276.70313 190.668854 
L 277.919935 191.10792 
L 278.516686 191.192504 
L 279.687856 191.713802 
L 282.493746 192.708081 
L 283.570675 193.104622 
L 284.099995 193.158156 
L 285.652989 193.795357 
L 286.660433 194.058749 
L 287.156145 194.312062 
L 289.088145 194.679134 
L 290.025063 194.963231 
L 293.164137 195.566885 
L 293.595885 195.612313 
L 294.447624 195.820869 
L 296.106004 196.171871 
L 302.564426 197.126541 
L 303.268865 197.283727 
L 309.480339 198.285954 
L 310.389966 198.423362 
L 311.867829 198.693438 
L 329.183099 201.869724 
L 330.374121 202.132104 
L 331.535611 202.398709 
L 332.668997 202.715234 
L 333.22557 202.864619 
L 337.116771 204.171917 
L 338.455272 204.704513 
L 338.784006 204.845402 
L 339.110449 205.049025 
L 339.595887 205.349005 
L 340.393936 205.780248 
L 341.643193 206.561883 
L 342.407392 207.056761 
L 342.859998 207.490528 
L 343.0099 207.525841 
L 343.456749 207.902211 
L 345.059667 209.24165 
L 345.345304 209.378305 
L 345.62921 209.65555 
L 346.470748 210.176221 
L 347.160663 210.688701 
L 347.840564 211.006703 
L 348.377468 211.275086 
L 351.475744 212.72825 
L 352.219321 213.010312 
L 352.951279 213.408837 
L 354.381752 213.959032 
L 355.080934 214.27474 
L 356.560952 214.783328 
L 357.007092 215.003924 
L 357.777757 215.270582 
L 358.428383 215.531441 
L 359.070097 215.762825 
L 364.764272 218.284923 
L 365.232251 218.535045 
L 365.510811 218.689781 
L 366.245639 219.086027 
L 366.608776 219.24496 
L 367.148256 219.591914 
L 367.326711 219.656758 
L 367.681594 219.889607 
L 369.160554 220.670441 
L 370.34441 221.298051 
L 370.677231 221.424526 
L 370.925304 221.560783 
L 372.625977 222.421634 
L 372.94303 222.563088 
L 373.414621 222.798277 
L 374.036114 223.075986 
L 374.64947 223.371368 
L 375.254898 223.645751 
L 375.852601 223.91974 
L 376.369408 224.144465 
L 376.807892 224.325862 
L 377.886474 224.830403 
L 378.731808 225.175625 
L 379.079578 225.353752 
L 380.512656 226.010126 
L 381.113661 226.261419 
L 381.575836 226.476712 
L 382.228275 226.824098 
L 382.8078 227.1179 
L 383.69527 227.573188 
L 384.689352 228.108635 
L 387.086006 229.693675 
L 387.724143 230.173657 
L 388.80631 231.094241 
L 389.030983 231.354981 
L 389.587998 231.893451 
L 389.974004 232.345612 
L 390.193159 232.59 
L 390.411294 232.926198 
L 391.699192 234.969011 
L 392.068255 235.711752 
L 393.617824 238.815691 
L 393.972132 239.529839 
L 394.373801 240.341593 
L 394.523543 240.564614 
L 395.068539 241.534956 
L 397.140143 245.98163 
L 397.841769 248.707364 
L 398.257756 252.38359 
L 398.349697 253.935968 
L 398.487273 259.072063 
L 398.487273 259.072063 
" clip-path="url(#pa907554234)" style="fill: none; stroke: #d62728; stroke-width: 1.5; stroke-linecap: square"/>
   </g>
   <g id="line2d_42">
    <path d="M -1 59.933051 
L 73.832727 59.937438 
L 106.302759 61.338451 
L 125.296509 65.984146 
L 138.77279 70.283038 
L 149.225805 76.537796 
L 157.766541 77.853684 
L 164.98763 79.160873 
L 171.242822 80.764818 
L 176.760292 81.876685 
L 181.695837 82.262718 
L 186.160581 86.707747 
L 190.236572 93.982655 
L 193.986121 96.339497 
L 197.457661 98.344132 
L 200.689588 102.47842 
L 203.712853 167.509211 
L 209.230323 170.854794 
L 211.763067 171.288825 
L 214.165868 173.320786 
L 218.630612 173.544397 
L 220.712926 173.848424 
L 224.618884 174.10251 
L 233.159619 174.597593 
L 236.182884 175.01944 
L 237.624363 175.088664 
L 240.380708 175.392789 
L 241.700355 175.444122 
L 244.233099 175.73117 
L 248.921443 176.209844 
L 251.100643 176.601855 
L 252.15337 176.625092 
L 259.818484 177.837359 
L 260.694105 177.851447 
L 269.379199 179.117249 
L 270.798834 179.262097 
L 275.453873 179.871875 
L 276.70313 179.931455 
L 277.919935 180.081806 
L 281.391475 180.398925 
L 320.602136 184.383495 
L 327.337787 185.303381 
L 329.58348 185.594818 
L 332.481993 186.022099 
L 333.592979 186.203159 
L 342.407392 187.600186 
L 362.351568 191.181767 
L 363.909944 191.527141 
L 369.246115 192.717933 
L 370.009207 192.907331 
L 370.760068 193.08894 
L 373.021959 193.657477 
L 374.64947 194.091709 
L 376.807892 194.71165 
L 377.601271 194.944225 
L 378.451722 195.195814 
L 379.01023 195.389389 
L 380.445399 195.834835 
L 380.980769 196.014784 
L 387.550966 198.666123 
L 388.011356 198.881435 
L 391.22037 200.731236 
L 391.486987 200.910518 
L 393.566989 202.474162 
L 393.820613 202.713887 
L 396.18799 205.498055 
L 396.903913 206.86264 
L 397.980842 210.473155 
L 398.441459 216.678757 
L 398.487273 219.693101 
L 398.487273 219.693101 
" clip-path="url(#pa907554234)" style="fill: none; stroke: #9467bd; stroke-width: 1.5; stroke-linecap: square"/>
   </g>
   <g id="line2d_43">
    <path d="M -1 59.933051 
L 73.832727 59.937438 
L 106.302759 61.338451 
L 125.296509 65.984146 
L 138.77279 70.283038 
L 149.225805 76.537796 
L 157.766541 77.853684 
L 164.98763 79.160873 
L 171.242822 80.764818 
L 176.760292 81.876685 
L 181.695837 82.262718 
L 186.160581 86.707747 
L 190.236572 93.982655 
L 193.986121 96.339497 
L 197.457661 98.344132 
L 200.689588 102.47842 
L 203.712853 167.509211 
L 209.230323 170.854794 
L 211.763067 171.288825 
L 214.165868 173.320786 
L 218.630612 173.544397 
L 220.712926 173.848424 
L 224.618884 174.10251 
L 233.159619 174.597593 
L 236.182884 175.01944 
L 237.624363 175.088664 
L 240.380708 175.392789 
L 241.700355 175.444122 
L 244.233099 175.73117 
L 248.921443 176.209844 
L 251.100643 176.601855 
L 252.15337 176.625092 
L 259.818484 177.837359 
L 260.694105 177.851447 
L 269.379199 179.117249 
L 270.798834 179.262097 
L 275.453873 179.871875 
L 276.70313 179.931455 
L 277.919935 180.081806 
L 281.391475 180.398925 
L 320.602136 184.383495 
L 327.337787 185.303381 
L 329.58348 185.594818 
L 332.481993 186.022099 
L 333.592979 186.203159 
L 342.407392 187.600186 
L 362.351568 191.181767 
L 363.909944 191.527141 
L 369.246115 192.717933 
L 370.009207 192.907331 
L 370.760068 193.08894 
L 373.021959 193.657477 
L 374.64947 194.091709 
L 376.807892 194.71165 
L 377.601271 194.944225 
L 378.451722 195.195814 
L 379.01023 195.389389 
L 380.445399 195.834835 
L 380.980769 196.014784 
L 387.550966 198.666123 
L 388.011356 198.881435 
L 391.22037 200.731236 
L 391.486987 200.910518 
L 393.566989 202.474162 
L 393.820613 202.713887 
L 396.18799 205.498055 
L 396.903913 206.86264 
L 397.980842 210.473155 
L 398.441459 216.678757 
L 398.487273 219.693101 
L 398.487273 219.693101 
" clip-path="url(#pa907554234)" style="fill: none; stroke: #8c564b; stroke-width: 1.5; stroke-linecap: square"/>
   </g>
   <g id="line2d_44">
    <path d="M -1 55.871713 
L 73.832727 55.872211 
L 125.296509 57.473738 
L 138.77279 57.761369 
L 149.225805 58.741812 
L 157.766541 59.803371 
L 164.98763 60.319419 
L 171.242822 62.05183 
L 176.760292 63.23091 
L 181.695837 64.422276 
L 186.160581 64.703713 
L 193.986121 66.014499 
L 197.457661 66.877896 
L 200.689588 67.186383 
L 203.712853 168.909076 
L 206.552774 169.79085 
L 209.230323 169.952971 
L 211.763067 170.956495 
L 214.165868 171.452777 
L 218.630612 171.980258 
L 220.712926 172.687407 
L 222.706604 174.071026 
L 226.456153 175.028072 
L 228.224074 175.278001 
L 229.927693 175.691638 
L 236.182884 176.337174 
L 241.700355 177.117388 
L 250.023714 177.366369 
L 262.397724 177.618179 
L 277.315483 177.916644 
L 325.85054 179.198841 
L 333.22557 179.489429 
L 339.272821 179.756203 
L 365.879666 181.414684 
L 369.756222 181.779019 
L 371.499083 181.96031 
L 376.295926 182.530855 
L 381.378319 183.309868 
L 383.569514 183.709992 
L 384.56624 183.918567 
L 387.377146 184.605362 
L 388.068588 184.812889 
L 391.857718 186.197225 
L 392.382297 186.443492 
L 393.004133 186.762402 
L 393.668603 187.173675 
L 394.022529 187.407641 
L 394.273706 187.6109 
L 394.722458 187.933431 
L 396.571177 190.066754 
L 396.809087 190.513064 
L 396.951255 190.810414 
L 397.702282 192.971482 
L 398.257756 196.335952 
L 398.441459 200.034006 
L 398.487273 204.130641 
L 398.487273 204.130641 
" clip-path="url(#pa907554234)" style="fill: none; stroke: #e377c2; stroke-width: 1.5; stroke-linecap: square"/>
   </g>
   <g id="line2d_45">
    <path d="M -1 55.871713 
L 73.832727 55.872211 
L 125.296509 57.473738 
L 138.77279 57.761369 
L 149.225805 58.741812 
L 157.766541 59.803371 
L 164.98763 60.319419 
L 171.242822 62.05183 
L 176.760292 63.23091 
L 181.695837 64.422276 
L 186.160581 64.703713 
L 193.986121 66.014499 
L 197.457661 66.877896 
L 200.689588 67.186383 
L 203.712853 168.909076 
L 206.552774 169.79085 
L 209.230323 169.952971 
L 211.763067 170.956495 
L 214.165868 171.452777 
L 218.630612 171.980258 
L 220.712926 172.687407 
L 222.706604 174.071026 
L 226.456153 175.028072 
L 228.224074 175.278001 
L 229.927693 175.691638 
L 236.182884 176.337174 
L 241.700355 177.117388 
L 250.023714 177.366369 
L 262.397724 177.618179 
L 277.315483 177.916644 
L 325.85054 179.198841 
L 333.22557 179.489429 
L 339.272821 179.756203 
L 365.879666 181.414684 
L 369.756222 181.779019 
L 371.499083 181.96031 
L 376.295926 182.530855 
L 381.378319 183.309868 
L 383.569514 183.709992 
L 384.56624 183.918567 
L 387.377146 184.605362 
L 388.068588 184.812889 
L 391.857718 186.197225 
L 392.382297 186.443492 
L 393.004133 186.762402 
L 393.668603 187.173675 
L 394.022529 187.407641 
L 394.273706 187.6109 
L 394.722458 187.933431 
L 396.571177 190.066754 
L 396.809087 190.513064 
L 396.951255 190.810414 
L 397.702282 192.971482 
L 398.257756 196.335952 
L 398.441459 200.034006 
L 398.487273 204.130641 
L 398.487273 204.130641 
" clip-path="url(#pa907554234)" style="fill: none; stroke: #7f7f7f; stroke-width: 1.5; stroke-linecap: square"/>
   </g>
   <g id="line2d_46">
    <path d="M -1 55.817796 
L 73.832727 55.818266 
L 106.302759 57.217172 
L 125.296509 57.61408 
L 138.77279 58.249205 
L 149.225805 58.542291 
L 157.766541 59.511236 
L 164.98763 59.975295 
L 176.760292 61.276693 
L 181.695837 62.132817 
L 186.160581 62.51648 
L 190.236572 63.133863 
L 193.986121 63.249816 
L 197.457661 64.717467 
L 200.689588 65.384429 
L 203.712853 169.288084 
L 206.552774 170.104659 
L 209.230323 171.112616 
L 214.165868 171.699405 
L 216.451412 172.092819 
L 218.630612 172.894075 
L 220.712926 173.294575 
L 222.706604 174.305793 
L 226.456153 174.76157 
L 228.224074 174.854077 
L 231.571523 175.157041 
L 234.695637 175.428322 
L 236.182884 175.523911 
L 237.624363 175.862455 
L 240.380708 176.109739 
L 245.449903 176.909525 
L 255.176635 177.231727 
L 261.553659 177.399168 
L 289.558947 178.057001 
L 298.099682 178.278964 
L 312.446161 178.713735 
L 319.130465 178.938661 
L 324.758547 179.151112 
L 327.961003 179.27941 
L 343.456749 180.021873 
L 346.331538 180.192083 
L 349.040058 180.355207 
L 352.830077 180.590806 
L 355.883672 180.811529 
L 360.841952 181.1989 
L 377.458016 183.029042 
L 378.311048 183.175977 
L 387.493097 185.10221 
L 389.864041 185.882406 
L 392.17317 186.868032 
L 394.423768 188.202419 
L 394.722458 188.471854 
L 395.753124 189.53596 
L 396.427849 190.400338 
L 396.903913 191.217978 
L 397.328274 192.286264 
L 397.515651 192.689861 
L 398.119504 195.58106 
L 398.349697 198.083317 
L 398.441459 202.049954 
L 398.487273 209.920515 
L 398.487273 209.920515 
" clip-path="url(#pa907554234)" style="fill: none; stroke: #bcbd22; stroke-width: 1.5; stroke-linecap: square"/>
   </g>
   <g id="line2d_47">
    <path d="M -1 55.817796 
L 73.832727 55.818266 
L 106.302759 57.217172 
L 125.296509 57.61408 
L 138.77279 58.249205 
L 149.225805 58.542291 
L 157.766541 59.511236 
L 164.98763 59.975295 
L 176.760292 61.276693 
L 181.695837 62.132817 
L 186.160581 62.51648 
L 190.236572 63.133863 
L 193.986121 63.249816 
L 197.457661 64.717467 
L 200.689588 65.384429 
L 203.712853 169.288084 
L 206.552774 170.104659 
L 209.230323 171.112616 
L 214.165868 171.699405 
L 216.451412 172.092819 
L 218.630612 172.894075 
L 220.712926 173.294575 
L 222.706604 174.305793 
L 226.456153 174.76157 
L 228.224074 174.854077 
L 231.571523 175.157041 
L 234.695637 175.428322 
L 236.182884 175.523911 
L 237.624363 175.862455 
L 240.380708 176.109739 
L 245.449903 176.909525 
L 255.176635 177.231727 
L 261.553659 177.399168 
L 289.558947 178.057001 
L 298.099682 178.278964 
L 312.446161 178.713735 
L 319.130465 178.938661 
L 324.758547 179.151112 
L 327.961003 179.27941 
L 343.456749 180.021873 
L 346.331538 180.192083 
L 349.040058 180.355207 
L 352.830077 180.590806 
L 355.883672 180.811529 
L 360.841952 181.1989 
L 377.458016 183.029042 
L 378.311048 183.175977 
L 387.493097 185.10221 
L 389.864041 185.882406 
L 392.17317 186.868032 
L 394.423768 188.202419 
L 394.722458 188.471854 
L 395.753124 189.53596 
L 396.427849 190.400338 
L 396.903913 191.217978 
L 397.328274 192.286264 
L 397.515651 192.689861 
L 398.119504 195.58106 
L 398.349697 198.083317 
L 398.441459 202.049954 
L 398.487273 209.920515 
L 398.487273 209.920515 
" clip-path="url(#pa907554234)" style="fill: none; stroke: #17becf; stroke-width: 1.5; stroke-linecap: square"/>
   </g>
   <g id="patch_3">
    <path d="M 57.6 307.584 
L 57.6 41.472 
" style="fill: none; stroke: #000000; stroke-width: 0.8; stroke-linejoin: miter; stroke-linecap: square"/>
   </g>
   <g id="patch_4">
    <path d="M 414.72 307.584 
L 414.72 41.472 
" style="fill: none; stroke: #000000; stroke-width: 0.8; stroke-linejoin: miter; stroke-linecap: square"/>
   </g>
   <g id="patch_5">
    <path d="M 57.6 307.584 
L 414.72 307.584 
" style="fill: none; stroke: #000000; stroke-width: 0.8; stroke-linejoin: miter; stroke-linecap: square"/>
   </g>
   <g id="patch_6">
    <path d="M 57.6 41.472 
L 414.72 41.472 
" style="fill: none; stroke: #000000; stroke-width: 0.8; stroke-linejoin: miter; stroke-linecap: square"/>
   </g>
   <g id="text_12">
    <!-- 2body unitary gates -->
    <g transform="translate(175.71375 35.472) scale(0.12 -0.12)">
     <defs>
      <path id="DejaVuSans-62" d="M 3116 1747 
Q 3116 2381 2855 2742 
Q 2594 3103 2138 3103 
Q 1681 3103 1420 2742 
Q 1159 2381 1159 1747 
Q 1159 1113 1420 752 
Q 1681 391 2138 391 
Q 2594 391 2855 752 
Q 3116 1113 3116 1747 
z
M 1159 2969 
Q 1341 3281 1617 3432 
Q 1894 3584 2278 3584 
Q 2916 3584 3314 3078 
Q 3713 2572 3713 1747 
Q 3713 922 3314 415 
Q 2916 -91 2278 -91 
Q 1894 -91 1617 61 
Q 1341 213 1159 525 
L 1159 0 
L 581 0 
L 581 4863 
L 1159 4863 
L 1159 2969 
z
" transform="scale(0.015625)"/>
      <path id="DejaVuSans-6f" d="M 1959 3097 
Q 1497 3097 1228 2736 
Q 959 2375 959 1747 
Q 959 1119 1226 758 
Q 1494 397 1959 397 
Q 2419 397 2687 759 
Q 2956 1122 2956 1747 
Q 2956 2369 2687 2733 
Q 2419 3097 1959 3097 
z
M 1959 3584 
Q 2709 3584 3137 3096 
Q 3566 2609 3566 1747 
Q 3566 888 3137 398 
Q 2709 -91 1959 -91 
Q 1206 -91 779 398 
Q 353 888 353 1747 
Q 353 2609 779 3096 
Q 1206 3584 1959 3584 
z
" transform="scale(0.015625)"/>
      <path id="DejaVuSans-64" d="M 2906 2969 
L 2906 4863 
L 3481 4863 
L 3481 0 
L 2906 0 
L 2906 525 
Q 2725 213 2448 61 
Q 2172 -91 1784 -91 
Q 1150 -91 751 415 
Q 353 922 353 1747 
Q 353 2572 751 3078 
Q 1150 3584 1784 3584 
Q 2172 3584 2448 3432 
Q 2725 3281 2906 2969 
z
M 947 1747 
Q 947 1113 1208 752 
Q 1469 391 1925 391 
Q 2381 391 2643 752 
Q 2906 1113 2906 1747 
Q 2906 2381 2643 2742 
Q 2381 3103 1925 3103 
Q 1469 3103 1208 2742 
Q 947 2381 947 1747 
z
" transform="scale(0.015625)"/>
      <path id="DejaVuSans-79" d="M 2059 -325 
Q 1816 -950 1584 -1140 
Q 1353 -1331 966 -1331 
L 506 -1331 
L 506 -850 
L 844 -850 
Q 1081 -850 1212 -737 
Q 1344 -625 1503 -206 
L 1606 56 
L 191 3500 
L 800 3500 
L 1894 763 
L 2988 3500 
L 3597 3500 
L 2059 -325 
z
" transform="scale(0.015625)"/>
      <path id="DejaVuSans-20" transform="scale(0.015625)"/>
      <path id="DejaVuSans-75" d="M 544 1381 
L 544 3500 
L 1119 3500 
L 1119 1403 
Q 1119 906 1312 657 
Q 1506 409 1894 409 
Q 2359 409 2629 706 
Q 2900 1003 2900 1516 
L 2900 3500 
L 3475 3500 
L 3475 0 
L 2900 0 
L 2900 538 
Q 2691 219 2414 64 
Q 2138 -91 1772 -91 
Q 1169 -91 856 284 
Q 544 659 544 1381 
z
M 1991 3584 
L 1991 3584 
z
" transform="scale(0.015625)"/>
      <path id="DejaVuSans-6e" d="M 3513 2113 
L 3513 0 
L 2938 0 
L 2938 2094 
Q 2938 2591 2744 2837 
Q 2550 3084 2163 3084 
Q 1697 3084 1428 2787 
Q 1159 2491 1159 1978 
L 1159 0 
L 581 0 
L 581 3500 
L 1159 3500 
L 1159 2956 
Q 1366 3272 1645 3428 
Q 1925 3584 2291 3584 
Q 2894 3584 3203 3211 
Q 3513 2838 3513 2113 
z
" transform="scale(0.015625)"/>
      <path id="DejaVuSans-69" d="M 603 3500 
L 1178 3500 
L 1178 0 
L 603 0 
L 603 3500 
z
M 603 4863 
L 1178 4863 
L 1178 4134 
L 603 4134 
L 603 4863 
z
" transform="scale(0.015625)"/>
      <path id="DejaVuSans-74" d="M 1172 4494 
L 1172 3500 
L 2356 3500 
L 2356 3053 
L 1172 3053 
L 1172 1153 
Q 1172 725 1289 603 
Q 1406 481 1766 481 
L 2356 481 
L 2356 0 
L 1766 0 
Q 1100 0 847 248 
Q 594 497 594 1153 
L 594 3053 
L 172 3053 
L 172 3500 
L 594 3500 
L 594 4494 
L 1172 4494 
z
" transform="scale(0.015625)"/>
      <path id="DejaVuSans-61" d="M 2194 1759 
Q 1497 1759 1228 1600 
Q 959 1441 959 1056 
Q 959 750 1161 570 
Q 1363 391 1709 391 
Q 2188 391 2477 730 
Q 2766 1069 2766 1631 
L 2766 1759 
L 2194 1759 
z
M 3341 1997 
L 3341 0 
L 2766 0 
L 2766 531 
Q 2569 213 2275 61 
Q 1981 -91 1556 -91 
Q 1019 -91 701 211 
Q 384 513 384 1019 
Q 384 1609 779 1909 
Q 1175 2209 1959 2209 
L 2766 2209 
L 2766 2266 
Q 2766 2663 2505 2880 
Q 2244 3097 1772 3097 
Q 1472 3097 1187 3025 
Q 903 2953 641 2809 
L 641 3341 
Q 956 3463 1253 3523 
Q 1550 3584 1831 3584 
Q 2591 3584 2966 3190 
Q 3341 2797 3341 1997 
z
" transform="scale(0.015625)"/>
      <path id="DejaVuSans-72" d="M 2631 2963 
Q 2534 3019 2420 3045 
Q 2306 3072 2169 3072 
Q 1681 3072 1420 2755 
Q 1159 2438 1159 1844 
L 1159 0 
L 581 0 
L 581 3500 
L 1159 3500 
L 1159 2956 
Q 1341 3275 1631 3429 
Q 1922 3584 2338 3584 
Q 2397 3584 2469 3576 
Q 2541 3569 2628 3553 
L 2631 2963 
z
" transform="scale(0.015625)"/>
      <path id="DejaVuSans-67" d="M 2906 1791 
Q 2906 2416 2648 2759 
Q 2391 3103 1925 3103 
Q 1463 3103 1205 2759 
Q 947 2416 947 1791 
Q 947 1169 1205 825 
Q 1463 481 1925 481 
Q 2391 481 2648 825 
Q 2906 1169 2906 1791 
z
M 3481 434 
Q 3481 -459 3084 -895 
Q 2688 -1331 1869 -1331 
Q 1566 -1331 1297 -1286 
Q 1028 -1241 775 -1147 
L 775 -588 
Q 1028 -725 1275 -790 
Q 1522 -856 1778 -856 
Q 2344 -856 2625 -561 
Q 2906 -266 2906 331 
L 2906 616 
Q 2728 306 2450 153 
Q 2172 0 1784 0 
Q 1141 0 747 490 
Q 353 981 353 1791 
Q 353 2603 747 3093 
Q 1141 3584 1784 3584 
Q 2172 3584 2450 3431 
Q 2728 3278 2906 2969 
L 2906 3500 
L 3481 3500 
L 3481 434 
z
" transform="scale(0.015625)"/>
      <path id="DejaVuSans-65" d="M 3597 1894 
L 3597 1613 
L 953 1613 
Q 991 1019 1311 708 
Q 1631 397 2203 397 
Q 2534 397 2845 478 
Q 3156 559 3463 722 
L 3463 178 
Q 3153 47 2828 -22 
Q 2503 -91 2169 -91 
Q 1331 -91 842 396 
Q 353 884 353 1716 
Q 353 2575 817 3079 
Q 1281 3584 2069 3584 
Q 2775 3584 3186 3129 
Q 3597 2675 3597 1894 
z
M 3022 2063 
Q 3016 2534 2758 2815 
Q 2500 3097 2075 3097 
Q 1594 3097 1305 2825 
Q 1016 2553 972 2059 
L 3022 2063 
z
" transform="scale(0.015625)"/>
      <path id="DejaVuSans-73" d="M 2834 3397 
L 2834 2853 
Q 2591 2978 2328 3040 
Q 2066 3103 1784 3103 
Q 1356 3103 1142 2972 
Q 928 2841 928 2578 
Q 928 2378 1081 2264 
Q 1234 2150 1697 2047 
L 1894 2003 
Q 2506 1872 2764 1633 
Q 3022 1394 3022 966 
Q 3022 478 2636 193 
Q 2250 -91 1575 -91 
Q 1294 -91 989 -36 
Q 684 19 347 128 
L 347 722 
Q 666 556 975 473 
Q 1284 391 1588 391 
Q 1994 391 2212 530 
Q 2431 669 2431 922 
Q 2431 1156 2273 1281 
Q 2116 1406 1581 1522 
L 1381 1569 
Q 847 1681 609 1914 
Q 372 2147 372 2553 
Q 372 3047 722 3315 
Q 1072 3584 1716 3584 
Q 2034 3584 2315 3537 
Q 2597 3491 2834 3397 
z
" transform="scale(0.015625)"/>
     </defs>
     <use xlink:href="#DejaVuSans-32"/>
     <use xlink:href="#DejaVuSans-62" x="63.623047"/>
     <use xlink:href="#DejaVuSans-6f" x="127.099609"/>
     <use xlink:href="#DejaVuSans-64" x="188.28125"/>
     <use xlink:href="#DejaVuSans-79" x="251.757812"/>
     <use xlink:href="#DejaVuSans-20" x="310.9375"/>
     <use xlink:href="#DejaVuSans-75" x="342.724609"/>
     <use xlink:href="#DejaVuSans-6e" x="406.103516"/>
     <use xlink:href="#DejaVuSans-69" x="469.482422"/>
     <use xlink:href="#DejaVuSans-74" x="497.265625"/>
     <use xlink:href="#DejaVuSans-61" x="536.474609"/>
     <use xlink:href="#DejaVuSans-72" x="597.753906"/>
     <use xlink:href="#DejaVuSans-79" x="638.867188"/>
     <use xlink:href="#DejaVuSans-20" x="698.046875"/>
     <use xlink:href="#DejaVuSans-67" x="729.833984"/>
     <use xlink:href="#DejaVuSans-61" x="793.310547"/>
     <use xlink:href="#DejaVuSans-74" x="854.589844"/>
     <use xlink:href="#DejaVuSans-65" x="893.798828"/>
     <use xlink:href="#DejaVuSans-73" x="955.322266"/>
    </g>
   </g>
   <g id="legend_1">
    <g id="patch_7">
     <path d="M 318.2575 122.862625 
L 407.72 122.862625 
Q 409.72 122.862625 409.72 120.862625 
L 409.72 48.472 
Q 409.72 46.472 407.72 46.472 
L 318.2575 46.472 
Q 316.2575 46.472 316.2575 48.472 
L 316.2575 120.862625 
Q 316.2575 122.862625 318.2575 122.862625 
z
" style="fill: #ffffff; opacity: 0.8; stroke: #cccccc; stroke-linejoin: miter"/>
    </g>
    <g id="line2d_48">
     <path d="M 320.2575 54.570438 
L 330.2575 54.570438 
L 340.2575 54.570438 
" style="fill: none; stroke: #ff7f0e; stroke-width: 1.5; stroke-linecap: square"/>
    </g>
    <g id="text_13">
     <!-- noise=1e-3 -->
     <g transform="translate(348.2575 58.070438) scale(0.1 -0.1)">
      <defs>
       <path id="DejaVuSans-3d" d="M 678 2906 
L 4684 2906 
L 4684 2381 
L 678 2381 
L 678 2906 
z
M 678 1631 
L 4684 1631 
L 4684 1100 
L 678 1100 
L 678 1631 
z
" transform="scale(0.015625)"/>
       <path id="DejaVuSans-2d" d="M 313 2009 
L 1997 2009 
L 1997 1497 
L 313 1497 
L 313 2009 
z
" transform="scale(0.015625)"/>
      </defs>
      <use xlink:href="#DejaVuSans-6e"/>
      <use xlink:href="#DejaVuSans-6f" x="63.378906"/>
      <use xlink:href="#DejaVuSans-69" x="124.560547"/>
      <use xlink:href="#DejaVuSans-73" x="152.34375"/>
      <use xlink:href="#DejaVuSans-65" x="204.443359"/>
      <use xlink:href="#DejaVuSans-3d" x="265.966797"/>
      <use xlink:href="#DejaVuSans-31" x="349.755859"/>
      <use xlink:href="#DejaVuSans-65" x="413.378906"/>
      <use xlink:href="#DejaVuSans-2d" x="474.902344"/>
      <use xlink:href="#DejaVuSans-33" x="510.986328"/>
     </g>
    </g>
    <g id="line2d_49">
     <path d="M 320.2575 69.248563 
L 330.2575 69.248563 
L 340.2575 69.248563 
" style="fill: none; stroke: #d62728; stroke-width: 1.5; stroke-linecap: square"/>
    </g>
    <g id="text_14">
     <!-- noise=1e-2 -->
     <g transform="translate(348.2575 72.748563) scale(0.1 -0.1)">
      <use xlink:href="#DejaVuSans-6e"/>
      <use xlink:href="#DejaVuSans-6f" x="63.378906"/>
      <use xlink:href="#DejaVuSans-69" x="124.560547"/>
      <use xlink:href="#DejaVuSans-73" x="152.34375"/>
      <use xlink:href="#DejaVuSans-65" x="204.443359"/>
      <use xlink:href="#DejaVuSans-3d" x="265.966797"/>
      <use xlink:href="#DejaVuSans-31" x="349.755859"/>
      <use xlink:href="#DejaVuSans-65" x="413.378906"/>
      <use xlink:href="#DejaVuSans-2d" x="474.902344"/>
      <use xlink:href="#DejaVuSans-32" x="510.986328"/>
     </g>
    </g>
    <g id="line2d_50">
     <path d="M 320.2575 83.926688 
L 330.2575 83.926688 
L 340.2575 83.926688 
" style="fill: none; stroke: #8c564b; stroke-width: 1.5; stroke-linecap: square"/>
    </g>
    <g id="text_15">
     <!-- noise=1e-1 -->
     <g transform="translate(348.2575 87.426688) scale(0.1 -0.1)">
      <use xlink:href="#DejaVuSans-6e"/>
      <use xlink:href="#DejaVuSans-6f" x="63.378906"/>
      <use xlink:href="#DejaVuSans-69" x="124.560547"/>
      <use xlink:href="#DejaVuSans-73" x="152.34375"/>
      <use xlink:href="#DejaVuSans-65" x="204.443359"/>
      <use xlink:href="#DejaVuSans-3d" x="265.966797"/>
      <use xlink:href="#DejaVuSans-31" x="349.755859"/>
      <use xlink:href="#DejaVuSans-65" x="413.378906"/>
      <use xlink:href="#DejaVuSans-2d" x="474.902344"/>
      <use xlink:href="#DejaVuSans-31" x="510.986328"/>
     </g>
    </g>
    <g id="line2d_51">
     <path d="M 320.2575 98.604813 
L 330.2575 98.604813 
L 340.2575 98.604813 
" style="fill: none; stroke: #7f7f7f; stroke-width: 1.5; stroke-linecap: square"/>
    </g>
    <g id="text_16">
     <!-- noise=1e0 -->
     <g transform="translate(348.2575 102.104813) scale(0.1 -0.1)">
      <use xlink:href="#DejaVuSans-6e"/>
      <use xlink:href="#DejaVuSans-6f" x="63.378906"/>
      <use xlink:href="#DejaVuSans-69" x="124.560547"/>
      <use xlink:href="#DejaVuSans-73" x="152.34375"/>
      <use xlink:href="#DejaVuSans-65" x="204.443359"/>
      <use xlink:href="#DejaVuSans-3d" x="265.966797"/>
      <use xlink:href="#DejaVuSans-31" x="349.755859"/>
      <use xlink:href="#DejaVuSans-65" x="413.378906"/>
      <use xlink:href="#DejaVuSans-30" x="474.902344"/>
     </g>
    </g>
    <g id="line2d_52">
     <path d="M 320.2575 113.282938 
L 330.2575 113.282938 
L 340.2575 113.282938 
" style="fill: none; stroke: #17becf; stroke-width: 1.5; stroke-linecap: square"/>
    </g>
    <g id="text_17">
     <!-- noise=1e1 -->
     <g transform="translate(348.2575 116.782938) scale(0.1 -0.1)">
      <use xlink:href="#DejaVuSans-6e"/>
      <use xlink:href="#DejaVuSans-6f" x="63.378906"/>
      <use xlink:href="#DejaVuSans-69" x="124.560547"/>
      <use xlink:href="#DejaVuSans-73" x="152.34375"/>
      <use xlink:href="#DejaVuSans-65" x="204.443359"/>
      <use xlink:href="#DejaVuSans-3d" x="265.966797"/>
      <use xlink:href="#DejaVuSans-31" x="349.755859"/>
      <use xlink:href="#DejaVuSans-65" x="413.378906"/>
      <use xlink:href="#DejaVuSans-31" x="474.902344"/>
     </g>
    </g>
   </g>
  </g>
 </g>
 <defs>
  <clipPath id="pa907554234">
   <rect x="57.6" y="41.472" width="357.12" height="266.112"/>
  </clipPath>
 </defs>
</svg>
