<?xml version="1.0" encoding="utf-8" standalone="no"?>
<!DOCTYPE svg PUBLIC "-//W3C//DTD SVG 1.1//EN"
  "http://www.w3.org/Graphics/SVG/1.1/DTD/svg11.dtd">
<svg xmlns:xlink="http://www.w3.org/1999/xlink" width="460.8pt" height="345.6pt" viewBox="0 0 460.8 345.6" xmlns="http://www.w3.org/2000/svg" version="1.1">
 <metadata>
  <rdf:RDF xmlns:dc="http://purl.org/dc/elements/1.1/" xmlns:cc="http://creativecommons.org/ns#" xmlns:rdf="http://www.w3.org/1999/02/22-rdf-syntax-ns#">
   <cc:Work>
    <dc:type rdf:resource="http://purl.org/dc/dcmitype/StillImage"/>
    <dc:date>2024-05-31T10:40:14.106432</dc:date>
    <dc:format>image/svg+xml</dc:format>
    <dc:creator>
     <cc:Agent>
      <dc:title>Matplotlib v3.7.1, https://matplotlib.org/</dc:title>
     </cc:Agent>
    </dc:creator>
   </cc:Work>
  </rdf:RDF>
 </metadata>
 <defs>
  <style type="text/css">*{stroke-linejoin: round; stroke-linecap: butt}</style>
 </defs>
 <g id="figure_1">
  <g id="patch_1">
   <path d="M 0 345.6 
L 460.8 345.6 
L 460.8 0 
L 0 0 
z
" style="fill: #ffffff"/>
  </g>
  <g id="axes_1">
   <g id="patch_2">
    <path d="M 57.6 307.584 
L 414.72 307.584 
L 414.72 41.472 
L 57.6 41.472 
z
" style="fill: #ffffff"/>
   </g>
   <g id="matplotlib.axis_1">
    <g id="xtick_1">
     <g id="line2d_1">
      <defs>
       <path id="mc7f77ba9fc" d="M 0 0 
L 0 3.5 
" style="stroke: #000000; stroke-width: 0.8"/>
      </defs>
      <g>
       <use xlink:href="#mc7f77ba9fc" x="73.832727" y="307.584" style="stroke: #000000; stroke-width: 0.8"/>
      </g>
     </g>
     <g id="text_1">
      <!-- 0 -->
      <g transform="translate(70.651477 322.182437) scale(0.1 -0.1)">
       <defs>
        <path id="DejaVuSans-30" d="M 2034 4250 
Q 1547 4250 1301 3770 
Q 1056 3291 1056 2328 
Q 1056 1369 1301 889 
Q 1547 409 2034 409 
Q 2525 409 2770 889 
Q 3016 1369 3016 2328 
Q 3016 3291 2770 3770 
Q 2525 4250 2034 4250 
z
M 2034 4750 
Q 2819 4750 3233 4129 
Q 3647 3509 3647 2328 
Q 3647 1150 3233 529 
Q 2819 -91 2034 -91 
Q 1250 -91 836 529 
Q 422 1150 422 2328 
Q 422 3509 836 4129 
Q 1250 4750 2034 4750 
z
" transform="scale(0.015625)"/>
       </defs>
       <use xlink:href="#DejaVuSans-30"/>
      </g>
     </g>
    </g>
    <g id="xtick_2">
     <g id="line2d_2">
      <g>
       <use xlink:href="#mc7f77ba9fc" x="137.303802" y="307.584" style="stroke: #000000; stroke-width: 0.8"/>
      </g>
     </g>
     <g id="text_2">
      <!-- 200 -->
      <g transform="translate(127.760052 322.182437) scale(0.1 -0.1)">
       <defs>
        <path id="DejaVuSans-32" d="M 1228 531 
L 3431 531 
L 3431 0 
L 469 0 
L 469 531 
Q 828 903 1448 1529 
Q 2069 2156 2228 2338 
Q 2531 2678 2651 2914 
Q 2772 3150 2772 3378 
Q 2772 3750 2511 3984 
Q 2250 4219 1831 4219 
Q 1534 4219 1204 4116 
Q 875 4013 500 3803 
L 500 4441 
Q 881 4594 1212 4672 
Q 1544 4750 1819 4750 
Q 2544 4750 2975 4387 
Q 3406 4025 3406 3419 
Q 3406 3131 3298 2873 
Q 3191 2616 2906 2266 
Q 2828 2175 2409 1742 
Q 1991 1309 1228 531 
z
" transform="scale(0.015625)"/>
       </defs>
       <use xlink:href="#DejaVuSans-32"/>
       <use xlink:href="#DejaVuSans-30" x="63.623047"/>
       <use xlink:href="#DejaVuSans-30" x="127.246094"/>
      </g>
     </g>
    </g>
    <g id="xtick_3">
     <g id="line2d_3">
      <g>
       <use xlink:href="#mc7f77ba9fc" x="200.774876" y="307.584" style="stroke: #000000; stroke-width: 0.8"/>
      </g>
     </g>
     <g id="text_3">
      <!-- 400 -->
      <g transform="translate(191.231126 322.182437) scale(0.1 -0.1)">
       <defs>
        <path id="DejaVuSans-34" d="M 2419 4116 
L 825 1625 
L 2419 1625 
L 2419 4116 
z
M 2253 4666 
L 3047 4666 
L 3047 1625 
L 3713 1625 
L 3713 1100 
L 3047 1100 
L 3047 0 
L 2419 0 
L 2419 1100 
L 313 1100 
L 313 1709 
L 2253 4666 
z
" transform="scale(0.015625)"/>
       </defs>
       <use xlink:href="#DejaVuSans-34"/>
       <use xlink:href="#DejaVuSans-30" x="63.623047"/>
       <use xlink:href="#DejaVuSans-30" x="127.246094"/>
      </g>
     </g>
    </g>
    <g id="xtick_4">
     <g id="line2d_4">
      <g>
       <use xlink:href="#mc7f77ba9fc" x="264.24595" y="307.584" style="stroke: #000000; stroke-width: 0.8"/>
      </g>
     </g>
     <g id="text_4">
      <!-- 600 -->
      <g transform="translate(254.7022 322.182437) scale(0.1 -0.1)">
       <defs>
        <path id="DejaVuSans-36" d="M 2113 2584 
Q 1688 2584 1439 2293 
Q 1191 2003 1191 1497 
Q 1191 994 1439 701 
Q 1688 409 2113 409 
Q 2538 409 2786 701 
Q 3034 994 3034 1497 
Q 3034 2003 2786 2293 
Q 2538 2584 2113 2584 
z
M 3366 4563 
L 3366 3988 
Q 3128 4100 2886 4159 
Q 2644 4219 2406 4219 
Q 1781 4219 1451 3797 
Q 1122 3375 1075 2522 
Q 1259 2794 1537 2939 
Q 1816 3084 2150 3084 
Q 2853 3084 3261 2657 
Q 3669 2231 3669 1497 
Q 3669 778 3244 343 
Q 2819 -91 2113 -91 
Q 1303 -91 875 529 
Q 447 1150 447 2328 
Q 447 3434 972 4092 
Q 1497 4750 2381 4750 
Q 2619 4750 2861 4703 
Q 3103 4656 3366 4563 
z
" transform="scale(0.015625)"/>
       </defs>
       <use xlink:href="#DejaVuSans-36"/>
       <use xlink:href="#DejaVuSans-30" x="63.623047"/>
       <use xlink:href="#DejaVuSans-30" x="127.246094"/>
      </g>
     </g>
    </g>
    <g id="xtick_5">
     <g id="line2d_5">
      <g>
       <use xlink:href="#mc7f77ba9fc" x="327.717025" y="307.584" style="stroke: #000000; stroke-width: 0.8"/>
      </g>
     </g>
     <g id="text_5">
      <!-- 800 -->
      <g transform="translate(318.173275 322.182437) scale(0.1 -0.1)">
       <defs>
        <path id="DejaVuSans-38" d="M 2034 2216 
Q 1584 2216 1326 1975 
Q 1069 1734 1069 1313 
Q 1069 891 1326 650 
Q 1584 409 2034 409 
Q 2484 409 2743 651 
Q 3003 894 3003 1313 
Q 3003 1734 2745 1975 
Q 2488 2216 2034 2216 
z
M 1403 2484 
Q 997 2584 770 2862 
Q 544 3141 544 3541 
Q 544 4100 942 4425 
Q 1341 4750 2034 4750 
Q 2731 4750 3128 4425 
Q 3525 4100 3525 3541 
Q 3525 3141 3298 2862 
Q 3072 2584 2669 2484 
Q 3125 2378 3379 2068 
Q 3634 1759 3634 1313 
Q 3634 634 3220 271 
Q 2806 -91 2034 -91 
Q 1263 -91 848 271 
Q 434 634 434 1313 
Q 434 1759 690 2068 
Q 947 2378 1403 2484 
z
M 1172 3481 
Q 1172 3119 1398 2916 
Q 1625 2713 2034 2713 
Q 2441 2713 2670 2916 
Q 2900 3119 2900 3481 
Q 2900 3844 2670 4047 
Q 2441 4250 2034 4250 
Q 1625 4250 1398 4047 
Q 1172 3844 1172 3481 
z
" transform="scale(0.015625)"/>
       </defs>
       <use xlink:href="#DejaVuSans-38"/>
       <use xlink:href="#DejaVuSans-30" x="63.623047"/>
       <use xlink:href="#DejaVuSans-30" x="127.246094"/>
      </g>
     </g>
    </g>
    <g id="xtick_6">
     <g id="line2d_6">
      <g>
       <use xlink:href="#mc7f77ba9fc" x="391.188099" y="307.584" style="stroke: #000000; stroke-width: 0.8"/>
      </g>
     </g>
     <g id="text_6">
      <!-- 1000 -->
      <g transform="translate(378.463099 322.182437) scale(0.1 -0.1)">
       <defs>
        <path id="DejaVuSans-31" d="M 794 531 
L 1825 531 
L 1825 4091 
L 703 3866 
L 703 4441 
L 1819 4666 
L 2450 4666 
L 2450 531 
L 3481 531 
L 3481 0 
L 794 0 
L 794 531 
z
" transform="scale(0.015625)"/>
       </defs>
       <use xlink:href="#DejaVuSans-31"/>
       <use xlink:href="#DejaVuSans-30" x="63.623047"/>
       <use xlink:href="#DejaVuSans-30" x="127.246094"/>
       <use xlink:href="#DejaVuSans-30" x="190.869141"/>
      </g>
     </g>
    </g>
    <g id="text_7">
     <!-- n -->
     <g transform="translate(232.99125 335.860562) scale(0.1 -0.1)">
      <defs>
       <path id="DejaVuSans-6e" d="M 3513 2113 
L 3513 0 
L 2938 0 
L 2938 2094 
Q 2938 2591 2744 2837 
Q 2550 3084 2163 3084 
Q 1697 3084 1428 2787 
Q 1159 2491 1159 1978 
L 1159 0 
L 581 0 
L 581 3500 
L 1159 3500 
L 1159 2956 
Q 1366 3272 1645 3428 
Q 1925 3584 2291 3584 
Q 2894 3584 3203 3211 
Q 3513 2838 3513 2113 
z
" transform="scale(0.015625)"/>
      </defs>
      <use xlink:href="#DejaVuSans-6e"/>
     </g>
    </g>
   </g>
   <g id="matplotlib.axis_2">
    <g id="ytick_1">
     <g id="line2d_7">
      <defs>
       <path id="mb76183191d" d="M 0 0 
L -3.5 0 
" style="stroke: #000000; stroke-width: 0.8"/>
      </defs>
      <g>
       <use xlink:href="#mb76183191d" x="57.6" y="305.489063" style="stroke: #000000; stroke-width: 0.8"/>
      </g>
     </g>
     <g id="text_8">
      <!-- −2.0 -->
      <g transform="translate(26.317187 309.288281) scale(0.1 -0.1)">
       <defs>
        <path id="DejaVuSans-2212" d="M 678 2272 
L 4684 2272 
L 4684 1741 
L 678 1741 
L 678 2272 
z
" transform="scale(0.015625)"/>
        <path id="DejaVuSans-2e" d="M 684 794 
L 1344 794 
L 1344 0 
L 684 0 
L 684 794 
z
" transform="scale(0.015625)"/>
       </defs>
       <use xlink:href="#DejaVuSans-2212"/>
       <use xlink:href="#DejaVuSans-32" x="83.789062"/>
       <use xlink:href="#DejaVuSans-2e" x="147.412109"/>
       <use xlink:href="#DejaVuSans-30" x="179.199219"/>
      </g>
     </g>
    </g>
    <g id="ytick_2">
     <g id="line2d_8">
      <g>
       <use xlink:href="#mb76183191d" x="57.6" y="273.996408" style="stroke: #000000; stroke-width: 0.8"/>
      </g>
     </g>
     <g id="text_9">
      <!-- −1.5 -->
      <g transform="translate(26.317187 277.795627) scale(0.1 -0.1)">
       <defs>
        <path id="DejaVuSans-35" d="M 691 4666 
L 3169 4666 
L 3169 4134 
L 1269 4134 
L 1269 2991 
Q 1406 3038 1543 3061 
Q 1681 3084 1819 3084 
Q 2600 3084 3056 2656 
Q 3513 2228 3513 1497 
Q 3513 744 3044 326 
Q 2575 -91 1722 -91 
Q 1428 -91 1123 -41 
Q 819 9 494 109 
L 494 744 
Q 775 591 1075 516 
Q 1375 441 1709 441 
Q 2250 441 2565 725 
Q 2881 1009 2881 1497 
Q 2881 1984 2565 2268 
Q 2250 2553 1709 2553 
Q 1456 2553 1204 2497 
Q 953 2441 691 2322 
L 691 4666 
z
" transform="scale(0.015625)"/>
       </defs>
       <use xlink:href="#DejaVuSans-2212"/>
       <use xlink:href="#DejaVuSans-31" x="83.789062"/>
       <use xlink:href="#DejaVuSans-2e" x="147.412109"/>
       <use xlink:href="#DejaVuSans-35" x="179.199219"/>
      </g>
     </g>
    </g>
    <g id="ytick_3">
     <g id="line2d_9">
      <g>
       <use xlink:href="#mb76183191d" x="57.6" y="242.503753" style="stroke: #000000; stroke-width: 0.8"/>
      </g>
     </g>
     <g id="text_10">
      <!-- −1.0 -->
      <g transform="translate(26.317187 246.302972) scale(0.1 -0.1)">
       <use xlink:href="#DejaVuSans-2212"/>
       <use xlink:href="#DejaVuSans-31" x="83.789062"/>
       <use xlink:href="#DejaVuSans-2e" x="147.412109"/>
       <use xlink:href="#DejaVuSans-30" x="179.199219"/>
      </g>
     </g>
    </g>
    <g id="ytick_4">
     <g id="line2d_10">
      <g>
       <use xlink:href="#mb76183191d" x="57.6" y="211.011099" style="stroke: #000000; stroke-width: 0.8"/>
      </g>
     </g>
     <g id="text_11">
      <!-- −0.5 -->
      <g transform="translate(26.317187 214.810317) scale(0.1 -0.1)">
       <use xlink:href="#DejaVuSans-2212"/>
       <use xlink:href="#DejaVuSans-30" x="83.789062"/>
       <use xlink:href="#DejaVuSans-2e" x="147.412109"/>
       <use xlink:href="#DejaVuSans-35" x="179.199219"/>
      </g>
     </g>
    </g>
    <g id="ytick_5">
     <g id="line2d_11">
      <g>
       <use xlink:href="#mb76183191d" x="57.6" y="179.518444" style="stroke: #000000; stroke-width: 0.8"/>
      </g>
     </g>
     <g id="text_12">
      <!-- 0.0 -->
      <g transform="translate(34.696875 183.317663) scale(0.1 -0.1)">
       <use xlink:href="#DejaVuSans-30"/>
       <use xlink:href="#DejaVuSans-2e" x="63.623047"/>
       <use xlink:href="#DejaVuSans-30" x="95.410156"/>
      </g>
     </g>
    </g>
    <g id="ytick_6">
     <g id="line2d_12">
      <g>
       <use xlink:href="#mb76183191d" x="57.6" y="148.025789" style="stroke: #000000; stroke-width: 0.8"/>
      </g>
     </g>
     <g id="text_13">
      <!-- 0.5 -->
      <g transform="translate(34.696875 151.825008) scale(0.1 -0.1)">
       <use xlink:href="#DejaVuSans-30"/>
       <use xlink:href="#DejaVuSans-2e" x="63.623047"/>
       <use xlink:href="#DejaVuSans-35" x="95.410156"/>
      </g>
     </g>
    </g>
    <g id="ytick_7">
     <g id="line2d_13">
      <g>
       <use xlink:href="#mb76183191d" x="57.6" y="116.533134" style="stroke: #000000; stroke-width: 0.8"/>
      </g>
     </g>
     <g id="text_14">
      <!-- 1.0 -->
      <g transform="translate(34.696875 120.332353) scale(0.1 -0.1)">
       <use xlink:href="#DejaVuSans-31"/>
       <use xlink:href="#DejaVuSans-2e" x="63.623047"/>
       <use xlink:href="#DejaVuSans-30" x="95.410156"/>
      </g>
     </g>
    </g>
    <g id="ytick_8">
     <g id="line2d_14">
      <g>
       <use xlink:href="#mb76183191d" x="57.6" y="85.04048" style="stroke: #000000; stroke-width: 0.8"/>
      </g>
     </g>
     <g id="text_15">
      <!-- 1.5 -->
      <g transform="translate(34.696875 88.839698) scale(0.1 -0.1)">
       <use xlink:href="#DejaVuSans-31"/>
       <use xlink:href="#DejaVuSans-2e" x="63.623047"/>
       <use xlink:href="#DejaVuSans-35" x="95.410156"/>
      </g>
     </g>
    </g>
    <g id="ytick_9">
     <g id="line2d_15">
      <g>
       <use xlink:href="#mb76183191d" x="57.6" y="53.547825" style="stroke: #000000; stroke-width: 0.8"/>
      </g>
     </g>
     <g id="text_16">
      <!-- 2.0 -->
      <g transform="translate(34.696875 57.347044) scale(0.1 -0.1)">
       <use xlink:href="#DejaVuSans-32"/>
       <use xlink:href="#DejaVuSans-2e" x="63.623047"/>
       <use xlink:href="#DejaVuSans-30" x="95.410156"/>
      </g>
     </g>
    </g>
    <g id="text_17">
     <!-- E*t -->
     <g transform="translate(20.2375 182.147531) rotate(-90) scale(0.1 -0.1)">
      <defs>
       <path id="DejaVuSans-45" d="M 628 4666 
L 3578 4666 
L 3578 4134 
L 1259 4134 
L 1259 2753 
L 3481 2753 
L 3481 2222 
L 1259 2222 
L 1259 531 
L 3634 531 
L 3634 0 
L 628 0 
L 628 4666 
z
" transform="scale(0.015625)"/>
       <path id="DejaVuSans-2a" d="M 3009 3897 
L 1888 3291 
L 3009 2681 
L 2828 2375 
L 1778 3009 
L 1778 1831 
L 1422 1831 
L 1422 3009 
L 372 2375 
L 191 2681 
L 1313 3291 
L 191 3897 
L 372 4206 
L 1422 3572 
L 1422 4750 
L 1778 4750 
L 1778 3572 
L 2828 4206 
L 3009 3897 
z
" transform="scale(0.015625)"/>
       <path id="DejaVuSans-74" d="M 1172 4494 
L 1172 3500 
L 2356 3500 
L 2356 3053 
L 1172 3053 
L 1172 1153 
Q 1172 725 1289 603 
Q 1406 481 1766 481 
L 2356 481 
L 2356 0 
L 1766 0 
Q 1100 0 847 248 
Q 594 497 594 1153 
L 594 3053 
L 172 3053 
L 172 3500 
L 594 3500 
L 594 4494 
L 1172 4494 
z
" transform="scale(0.015625)"/>
      </defs>
      <use xlink:href="#DejaVuSans-45"/>
      <use xlink:href="#DejaVuSans-2a" x="63.183594"/>
      <use xlink:href="#DejaVuSans-74" x="113.183594"/>
     </g>
    </g>
   </g>
   <g id="line2d_16">
    <path d="M 73.832727 295.488 
L 74.150083 288.460761 
L 74.467438 285.739493 
L 74.784793 281.81641 
L 75.102149 279.412227 
L 75.419504 278.547279 
L 75.73686 277.341696 
L 76.37157 271.570332 
L 76.688926 271.541472 
L 77.006281 270.488238 
L 77.958347 266.356851 
L 78.275702 265.109505 
L 78.593058 265.03906 
L 78.910413 263.593902 
L 79.227769 262.960834 
L 79.545124 262.848994 
L 79.862479 262.566627 
L 80.179835 262.005172 
L 80.49719 260.748312 
L 80.814545 260.666614 
L 81.131901 259.584411 
L 81.449256 258.955662 
L 81.766612 257.382128 
L 82.083967 257.095644 
L 82.718678 255.865847 
L 83.036033 255.458376 
L 83.353388 254.31866 
L 84.305455 253.286391 
L 84.62281 252.343614 
L 85.257521 251.353548 
L 85.574876 251.091415 
L 85.892231 250.643653 
L 86.209587 250.460053 
L 86.844298 249.813117 
L 87.161653 249.672522 
L 87.479008 248.787155 
L 89.38314 246.799694 
L 90.335207 246.219056 
L 90.652562 245.493928 
L 91.287273 244.93783 
L 93.191405 243.084289 
L 93.50876 242.862909 
L 93.826116 242.164188 
L 94.143471 242.052287 
L 94.460826 241.663543 
L 95.095537 240.289212 
L 96.047603 239.906813 
L 96.364959 239.458096 
L 97.317025 238.790366 
L 97.951736 238.489671 
L 98.269091 237.946498 
L 98.586446 237.769045 
L 98.903802 237.368237 
L 99.538512 237.125342 
L 100.173223 236.423416 
L 101.125289 235.599437 
L 101.442645 235.269526 
L 101.76 235.165232 
L 102.712066 234.233011 
L 103.029421 234.130904 
L 103.664132 233.718037 
L 103.981488 233.048831 
L 104.298843 232.976962 
L 105.568264 231.715367 
L 105.88562 231.432821 
L 106.202975 231.335524 
L 106.837686 230.889218 
L 107.155041 230.777752 
L 107.789752 230.384166 
L 108.107107 230.327828 
L 108.424463 229.9424 
L 109.059174 229.557574 
L 110.328595 228.547613 
L 110.963306 228.275287 
L 111.598017 227.915282 
L 111.915372 227.850266 
L 112.867438 227.035563 
L 114.77157 226.065611 
L 115.406281 225.534185 
L 116.040992 225.388085 
L 117.627769 224.591473 
L 117.945124 224.469987 
L 120.166612 222.866875 
L 120.801322 222.541584 
L 121.436033 222.055092 
L 122.070744 221.871663 
L 122.388099 221.613824 
L 123.02281 221.413858 
L 123.974876 220.677886 
L 125.561653 219.726875 
L 125.879008 219.658267 
L 126.513719 219.149247 
L 128.417851 218.332734 
L 129.052562 218.089307 
L 129.369917 217.809624 
L 129.687273 217.735698 
L 130.004628 217.424075 
L 130.639339 217.215257 
L 131.27405 216.839619 
L 131.591405 216.75716 
L 132.543471 216.187958 
L 133.178182 215.833669 
L 133.812893 215.568797 
L 134.447603 215.322662 
L 134.764959 215.002183 
L 135.082314 214.96245 
L 136.03438 214.422703 
L 138.890579 213.303301 
L 139.525289 212.949236 
L 140.16 212.712964 
L 141.112066 212.296154 
L 142.064132 211.92242 
L 142.698843 211.606034 
L 143.650909 211.274983 
L 144.602975 210.854253 
L 145.872397 210.203577 
L 146.507107 209.807739 
L 147.459174 209.534551 
L 150.315372 208.08035 
L 150.950083 207.690819 
L 151.584793 207.457349 
L 152.219504 207.088114 
L 152.854215 206.81675 
L 153.806281 206.345021 
L 157.29719 205.275422 
L 157.931901 204.902165 
L 158.249256 204.864701 
L 158.883967 204.530925 
L 159.836033 204.195875 
L 160.153388 204.035742 
L 160.470744 204.003899 
L 161.42281 203.601332 
L 162.692231 203.107638 
L 163.644298 202.837628 
L 164.596364 202.421314 
L 164.913719 202.326257 
L 165.231074 202.101991 
L 166.500496 201.742704 
L 167.769917 201.127542 
L 168.087273 201.110492 
L 168.404628 200.910352 
L 169.039339 200.763951 
L 169.67405 200.42677 
L 170.30876 200.232494 
L 170.943471 199.924879 
L 174.751736 198.370571 
L 175.069091 198.12153 
L 175.703802 197.851769 
L 181.733554 195.58717 
L 183.002975 195.226268 
L 186.176529 194.145854 
L 186.493884 194.109205 
L 187.128595 193.760784 
L 187.763306 193.61709 
L 188.398017 193.387573 
L 189.032727 193.147922 
L 194.427769 191.262013 
L 195.379835 190.962407 
L 198.553388 189.738011 
L 199.188099 189.613766 
L 200.140165 189.23484 
L 202.044298 188.702363 
L 204.58314 187.68891 
L 204.900496 187.664597 
L 205.535207 187.374651 
L 206.487273 187.103274 
L 209.978182 185.942947 
L 210.295537 185.909828 
L 210.930248 185.610275 
L 211.564959 185.456086 
L 212.199669 185.1465 
L 214.103802 184.519182 
L 221.720331 182.0883 
L 236.953388 176.938001 
L 237.270744 176.911816 
L 238.22281 176.485857 
L 239.492231 176.081476 
L 239.809587 175.853382 
L 241.396364 175.323642 
L 242.665785 174.839114 
L 243.617851 174.542687 
L 244.569917 174.196182 
L 245.521983 173.890177 
L 247.10876 173.248886 
L 248.060826 172.939941 
L 248.695537 172.689773 
L 249.647603 172.306924 
L 250.599669 172.056974 
L 261.072397 168.482634 
L 264.563306 167.298261 
L 265.198017 167.081191 
L 265.832727 166.955404 
L 266.467438 166.617435 
L 266.784793 166.441157 
L 267.102149 166.403024 
L 267.73686 166.122354 
L 270.275702 165.255207 
L 272.814545 164.373293 
L 273.449256 164.192897 
L 274.401322 163.865288 
L 275.036033 163.632993 
L 276.305455 163.177529 
L 276.940165 162.879837 
L 277.257521 162.834329 
L 277.892231 162.38559 
L 279.479008 161.968764 
L 280.113719 161.683237 
L 286.143471 159.625057 
L 287.095537 159.331511 
L 288.364959 158.818054 
L 293.442645 157.009951 
L 294.077355 156.745116 
L 295.346777 156.27202 
L 297.568264 155.351434 
L 298.202975 155.0762 
L 299.155041 154.788248 
L 301.693884 153.662234 
L 302.963306 153.259592 
L 303.915372 152.881182 
L 306.13686 151.920564 
L 309.945124 150.251816 
L 311.849256 149.677175 
L 312.801322 149.261179 
L 314.388099 148.677103 
L 316.292231 147.864729 
L 316.609587 147.639747 
L 317.244298 147.51323 
L 317.561653 147.230335 
L 318.831074 146.708263 
L 320.417851 145.918989 
L 320.735207 145.865911 
L 321.369917 145.481327 
L 322.321983 145.179489 
L 322.956694 144.804091 
L 323.27405 144.602445 
L 323.90876 144.446865 
L 324.226116 144.365424 
L 324.860826 143.980898 
L 325.495537 143.760791 
L 326.130248 143.475237 
L 327.399669 142.965719 
L 328.03438 142.464626 
L 328.669091 142.209786 
L 329.938512 141.537519 
L 330.890579 141.112445 
L 331.525289 140.851742 
L 332.16 140.491272 
L 335.333554 139.189104 
L 336.28562 138.862302 
L 337.555041 138.01266 
L 337.872397 137.960725 
L 338.507107 137.504364 
L 340.41124 136.443418 
L 341.04595 136.140417 
L 341.363306 135.848534 
L 342.632727 135.412672 
L 342.950083 135.143057 
L 344.219504 134.573529 
L 347.393058 132.85685 
L 347.710413 132.595249 
L 348.027769 132.577276 
L 348.345124 132.359883 
L 348.979835 132.128363 
L 349.614545 131.731243 
L 351.836033 130.424286 
L 352.470744 130.07084 
L 352.788099 129.730254 
L 353.42281 129.48833 
L 354.692231 128.696326 
L 355.961653 127.948187 
L 356.279008 127.804928 
L 356.913719 127.271787 
L 358.817851 126.244345 
L 359.135207 126.164659 
L 359.452562 125.878444 
L 360.087273 125.685029 
L 360.404628 125.348983 
L 360.721983 125.198722 
L 361.039339 124.817756 
L 361.67405 124.569087 
L 362.626116 123.893902 
L 363.578182 123.513072 
L 364.212893 122.807846 
L 364.530248 122.502335 
L 364.847603 121.95469 
L 365.164959 121.696962 
L 365.482314 121.583537 
L 366.43438 120.838701 
L 366.751736 120.735183 
L 367.703802 120.024445 
L 368.021157 119.886248 
L 368.655868 119.11401 
L 368.973223 118.950148 
L 369.290579 118.911385 
L 370.56 117.752953 
L 371.512066 116.833224 
L 371.829421 116.386225 
L 372.464132 115.877262 
L 372.781488 115.574712 
L 373.098843 115.538959 
L 373.733554 115.002716 
L 374.368264 114.338075 
L 374.68562 113.975316 
L 375.320331 113.575807 
L 375.955041 112.957129 
L 377.541818 111.81624 
L 377.859174 111.297276 
L 378.493884 110.711513 
L 378.81124 109.92714 
L 379.44595 109.554755 
L 380.080661 109.202458 
L 380.398017 108.404039 
L 380.715372 108.187109 
L 381.032727 107.592685 
L 381.984793 106.971929 
L 382.93686 105.239033 
L 383.254215 104.866747 
L 383.57157 104.122477 
L 385.475702 102.483156 
L 386.110413 101.529032 
L 386.427769 101.412707 
L 387.062479 100.507638 
L 387.69719 99.847293 
L 388.014545 99.302497 
L 388.649256 97.305497 
L 388.966612 96.055318 
L 389.283967 95.507735 
L 389.601322 95.182527 
L 389.918678 95.088451 
L 390.870744 91.779704 
L 391.188099 91.316347 
L 391.82281 90.902958 
L 392.774876 87.874845 
L 393.409587 84.750817 
L 393.726942 84.443421 
L 394.679008 81.29468 
L 394.996364 80.604207 
L 395.313719 80.493604 
L 395.94843 78.165172 
L 396.58314 75.084888 
L 396.900496 74.60269 
L 397.535207 68.745972 
L 397.852562 62.721079 
L 398.169917 59.614987 
L 398.487273 53.568 
L 398.487273 53.568 
" clip-path="url(#p21361739c9)" style="fill: none; stroke: #1f77b4; stroke-width: 1.5; stroke-linecap: square"/>
   </g>
   <g id="line2d_17">
    <path d="M 73.832727 203.452861 
L 74.150083 200.933449 
L 74.467438 200.686829 
L 74.784793 199.971112 
L 75.102149 198.856361 
L 75.419504 198.414036 
L 76.054215 197.898274 
L 76.37157 197.4517 
L 76.688926 197.4517 
L 77.006281 197.229959 
L 77.323636 196.500042 
L 80.814545 194.802039 
L 82.083967 194.337549 
L 82.401322 194.074765 
L 85.257521 193.266849 
L 85.574876 193.253595 
L 86.209587 193.119934 
L 87.161653 192.85945 
L 89.700496 192.191135 
L 90.335207 192.122532 
L 90.969917 191.818137 
L 91.921983 191.776244 
L 94.143471 191.234986 
L 104.933554 189.603121 
L 105.250909 189.429853 
L 109.059174 189.035939 
L 110.01124 188.941806 
L 110.328595 188.934313 
L 110.963306 188.778713 
L 112.232727 188.608246 
L 114.13686 188.485241 
L 114.454215 188.344384 
L 116.358347 188.209251 
L 116.993058 188.081109 
L 118.262479 187.934459 
L 121.436033 187.724631 
L 126.831074 187.156541 
L 128.100496 187.083709 
L 128.417851 186.910441 
L 134.447603 186.414901 
L 135.082314 186.272859 
L 140.794711 185.965829 
L 141.429421 185.824971 
L 143.968264 185.674241 
L 144.602975 185.561696 
L 145.872397 185.420126 
L 149.363306 185.273026 
L 154.123636 184.854639 
L 158.883967 184.564297 
L 159.201322 184.416293 
L 161.42281 184.338581 
L 163.644298 184.195578 
L 164.279008 184.122576 
L 167.135207 183.928439 
L 170.30876 183.671478 
L 170.943471 183.569421 
L 174.751736 183.432087 
L 175.386446 183.340443 
L 177.290579 183.22235 
L 179.829421 183.045291 
L 181.416198 182.958866 
L 182.368264 182.860993 
L 186.81124 182.683988 
L 190.619504 182.335227 
L 193.475702 182.225274 
L 196.966612 182.044885 
L 197.601322 181.847522 
L 200.774876 181.732378 
L 202.996364 181.601052 
L 206.487273 181.409027 
L 213.151736 180.97063 
L 214.738512 180.842856 
L 230.288926 179.915435 
L 231.558347 179.815815 
L 234.414545 179.705861 
L 237.905455 179.525473 
L 238.540165 179.32811 
L 242.031074 179.206234 
L 243.617851 179.081642 
L 247.10876 178.889614 
L 251.23438 178.637929 
L 251.869091 178.531252 
L 255.36 178.447193 
L 256.629421 178.306598 
L 259.48562 178.166523 
L 262.341818 177.954972 
L 264.24595 177.82217 
L 268.054215 177.645166 
L 269.640992 177.509053 
L 270.593058 177.446198 
L 271.227769 177.317638 
L 277.257521 177.016696 
L 278.526942 176.938392 
L 279.479008 176.792305 
L 282.017851 176.70166 
L 284.87405 176.476603 
L 293.442645 175.944888 
L 295.346777 175.778175 
L 296.933554 175.665539 
L 298.520331 175.574141 
L 300.424463 175.431769 
L 302.328595 175.296998 
L 304.232727 175.201537 
L 306.13686 175.062568 
L 312.483967 174.59575 
L 316.609587 174.260932 
L 318.196364 174.172454 
L 318.831074 174.050137 
L 321.687273 173.899352 
L 322.639339 173.817839 
L 324.860826 173.687767 
L 332.477355 173.054728 
L 333.112066 172.967643 
L 335.968264 172.777585 
L 342.632727 172.114873 
L 344.854215 171.995204 
L 346.123636 171.899566 
L 346.440992 171.753479 
L 348.027769 171.65304 
L 348.662479 171.513444 
L 351.518678 171.253576 
L 353.105455 171.140516 
L 354.057521 170.973015 
L 355.009587 170.911553 
L 355.644298 170.82226 
L 358.500496 170.548577 
L 359.135207 170.392945 
L 360.087273 170.336631 
L 360.721983 170.177173 
L 361.039339 170.17443 
L 361.67405 170.023744 
L 364.212893 169.773404 
L 366.117025 169.553217 
L 368.021157 169.301948 
L 370.242645 168.918366 
L 371.194711 168.775479 
L 379.128595 167.485967 
L 379.763306 167.253992 
L 380.715372 167.076048 
L 382.93686 166.696004 
L 383.254215 166.491897 
L 383.888926 166.398954 
L 386.110413 166.009545 
L 386.745124 165.763235 
L 387.69719 165.663351 
L 388.014545 165.40536 
L 389.918678 164.814514 
L 390.553388 164.484897 
L 390.870744 164.479468 
L 391.188099 164.293188 
L 391.82281 164.263125 
L 392.140165 163.830115 
L 392.774876 163.554727 
L 393.409587 163.348279 
L 394.044298 162.885948 
L 394.679008 162.449477 
L 394.996364 162.40563 
L 395.631074 162.128331 
L 396.58314 161.124136 
L 396.900496 161.035315 
L 397.217851 159.712528 
L 397.535207 159.608917 
L 397.852562 159.226921 
L 398.487273 157.193112 
L 398.487273 157.193112 
" clip-path="url(#p21361739c9)" style="fill: none; stroke: #ff7f0e; stroke-width: 1.5; stroke-linecap: square"/>
   </g>
   <g id="patch_3">
    <path d="M 57.6 307.584 
L 57.6 41.472 
" style="fill: none; stroke: #000000; stroke-width: 0.8; stroke-linejoin: miter; stroke-linecap: square"/>
   </g>
   <g id="patch_4">
    <path d="M 414.72 307.584 
L 414.72 41.472 
" style="fill: none; stroke: #000000; stroke-width: 0.8; stroke-linejoin: miter; stroke-linecap: square"/>
   </g>
   <g id="patch_5">
    <path d="M 57.6 307.584 
L 414.72 307.584 
" style="fill: none; stroke: #000000; stroke-width: 0.8; stroke-linejoin: miter; stroke-linecap: square"/>
   </g>
   <g id="patch_6">
    <path d="M 57.6 41.472 
L 414.72 41.472 
" style="fill: none; stroke: #000000; stroke-width: 0.8; stroke-linejoin: miter; stroke-linecap: square"/>
   </g>
   <g id="legend_1">
    <g id="patch_7">
     <path d="M 64.6 78.82825 
L 129.342187 78.82825 
Q 131.342187 78.82825 131.342187 76.82825 
L 131.342187 48.472 
Q 131.342187 46.472 129.342187 46.472 
L 64.6 46.472 
Q 62.6 46.472 62.6 48.472 
L 62.6 76.82825 
Q 62.6 78.82825 64.6 78.82825 
z
" style="fill: #ffffff; opacity: 0.8; stroke: #cccccc; stroke-linejoin: miter"/>
    </g>
    <g id="line2d_18">
     <path d="M 66.6 54.570437 
L 76.6 54.570437 
L 86.6 54.570437 
" style="fill: none; stroke: #1f77b4; stroke-width: 1.5; stroke-linecap: square"/>
    </g>
    <g id="text_18">
     <!-- qc -->
     <g transform="translate(94.6 58.070437) scale(0.1 -0.1)">
      <defs>
       <path id="DejaVuSans-71" d="M 947 1747 
Q 947 1113 1208 752 
Q 1469 391 1925 391 
Q 2381 391 2643 752 
Q 2906 1113 2906 1747 
Q 2906 2381 2643 2742 
Q 2381 3103 1925 3103 
Q 1469 3103 1208 2742 
Q 947 2381 947 1747 
z
M 2906 525 
Q 2725 213 2448 61 
Q 2172 -91 1784 -91 
Q 1150 -91 751 415 
Q 353 922 353 1747 
Q 353 2572 751 3078 
Q 1150 3584 1784 3584 
Q 2172 3584 2448 3432 
Q 2725 3281 2906 2969 
L 2906 3500 
L 3481 3500 
L 3481 -1331 
L 2906 -1331 
L 2906 525 
z
" transform="scale(0.015625)"/>
       <path id="DejaVuSans-63" d="M 3122 3366 
L 3122 2828 
Q 2878 2963 2633 3030 
Q 2388 3097 2138 3097 
Q 1578 3097 1268 2742 
Q 959 2388 959 1747 
Q 959 1106 1268 751 
Q 1578 397 2138 397 
Q 2388 397 2633 464 
Q 2878 531 3122 666 
L 3122 134 
Q 2881 22 2623 -34 
Q 2366 -91 2075 -91 
Q 1284 -91 818 406 
Q 353 903 353 1747 
Q 353 2603 823 3093 
Q 1294 3584 2113 3584 
Q 2378 3584 2631 3529 
Q 2884 3475 3122 3366 
z
" transform="scale(0.015625)"/>
      </defs>
      <use xlink:href="#DejaVuSans-71"/>
      <use xlink:href="#DejaVuSans-63" x="63.476562"/>
     </g>
    </g>
    <g id="line2d_19">
     <path d="M 66.6 69.248562 
L 76.6 69.248562 
L 86.6 69.248562 
" style="fill: none; stroke: #ff7f0e; stroke-width: 1.5; stroke-linecap: square"/>
    </g>
    <g id="text_19">
     <!-- Trotter -->
     <g transform="translate(94.6 72.748562) scale(0.1 -0.1)">
      <defs>
       <path id="DejaVuSans-54" d="M -19 4666 
L 3928 4666 
L 3928 4134 
L 2272 4134 
L 2272 0 
L 1638 0 
L 1638 4134 
L -19 4134 
L -19 4666 
z
" transform="scale(0.015625)"/>
       <path id="DejaVuSans-72" d="M 2631 2963 
Q 2534 3019 2420 3045 
Q 2306 3072 2169 3072 
Q 1681 3072 1420 2755 
Q 1159 2438 1159 1844 
L 1159 0 
L 581 0 
L 581 3500 
L 1159 3500 
L 1159 2956 
Q 1341 3275 1631 3429 
Q 1922 3584 2338 3584 
Q 2397 3584 2469 3576 
Q 2541 3569 2628 3553 
L 2631 2963 
z
" transform="scale(0.015625)"/>
       <path id="DejaVuSans-6f" d="M 1959 3097 
Q 1497 3097 1228 2736 
Q 959 2375 959 1747 
Q 959 1119 1226 758 
Q 1494 397 1959 397 
Q 2419 397 2687 759 
Q 2956 1122 2956 1747 
Q 2956 2369 2687 2733 
Q 2419 3097 1959 3097 
z
M 1959 3584 
Q 2709 3584 3137 3096 
Q 3566 2609 3566 1747 
Q 3566 888 3137 398 
Q 2709 -91 1959 -91 
Q 1206 -91 779 398 
Q 353 888 353 1747 
Q 353 2609 779 3096 
Q 1206 3584 1959 3584 
z
" transform="scale(0.015625)"/>
       <path id="DejaVuSans-65" d="M 3597 1894 
L 3597 1613 
L 953 1613 
Q 991 1019 1311 708 
Q 1631 397 2203 397 
Q 2534 397 2845 478 
Q 3156 559 3463 722 
L 3463 178 
Q 3153 47 2828 -22 
Q 2503 -91 2169 -91 
Q 1331 -91 842 396 
Q 353 884 353 1716 
Q 353 2575 817 3079 
Q 1281 3584 2069 3584 
Q 2775 3584 3186 3129 
Q 3597 2675 3597 1894 
z
M 3022 2063 
Q 3016 2534 2758 2815 
Q 2500 3097 2075 3097 
Q 1594 3097 1305 2825 
Q 1016 2553 972 2059 
L 3022 2063 
z
" transform="scale(0.015625)"/>
      </defs>
      <use xlink:href="#DejaVuSans-54"/>
      <use xlink:href="#DejaVuSans-72" x="46.333984"/>
      <use xlink:href="#DejaVuSans-6f" x="85.197266"/>
      <use xlink:href="#DejaVuSans-74" x="146.378906"/>
      <use xlink:href="#DejaVuSans-74" x="185.587891"/>
      <use xlink:href="#DejaVuSans-65" x="224.796875"/>
      <use xlink:href="#DejaVuSans-72" x="286.320312"/>
     </g>
    </g>
   </g>
  </g>
 </g>
 <defs>
  <clipPath id="p21361739c9">
   <rect x="57.6" y="41.472" width="357.12" height="266.112"/>
  </clipPath>
 </defs>
</svg>
