<?xml version="1.0" encoding="utf-8" standalone="no"?>
<!DOCTYPE svg PUBLIC "-//W3C//DTD SVG 1.1//EN"
  "http://www.w3.org/Graphics/SVG/1.1/DTD/svg11.dtd">
<svg xmlns:xlink="http://www.w3.org/1999/xlink" width="460.8pt" height="345.6pt" viewBox="0 0 460.8 345.6" xmlns="http://www.w3.org/2000/svg" version="1.1">
 <metadata>
  <rdf:RDF xmlns:dc="http://purl.org/dc/elements/1.1/" xmlns:cc="http://creativecommons.org/ns#" xmlns:rdf="http://www.w3.org/1999/02/22-rdf-syntax-ns#">
   <cc:Work>
    <dc:type rdf:resource="http://purl.org/dc/dcmitype/StillImage"/>
    <dc:date>2024-05-31T10:46:18.919969</dc:date>
    <dc:format>image/svg+xml</dc:format>
    <dc:creator>
     <cc:Agent>
      <dc:title>Matplotlib v3.7.1, https://matplotlib.org/</dc:title>
     </cc:Agent>
    </dc:creator>
   </cc:Work>
  </rdf:RDF>
 </metadata>
 <defs>
  <style type="text/css">*{stroke-linejoin: round; stroke-linecap: butt}</style>
 </defs>
 <g id="figure_1">
  <g id="patch_1">
   <path d="M 0 345.6 
L 460.8 345.6 
L 460.8 0 
L 0 0 
z
" style="fill: #ffffff"/>
  </g>
  <g id="axes_1">
   <g id="patch_2">
    <path d="M 57.6 307.584 
L 414.72 307.584 
L 414.72 41.472 
L 57.6 41.472 
z
" style="fill: #ffffff"/>
   </g>
   <g id="matplotlib.axis_1">
    <g id="xtick_1">
     <g id="line2d_1">
      <defs>
       <path id="m138e8eec23" d="M 0 0 
L 0 3.5 
" style="stroke: #000000; stroke-width: 0.8"/>
      </defs>
      <g>
       <use xlink:href="#m138e8eec23" x="73.832727" y="307.584" style="stroke: #000000; stroke-width: 0.8"/>
      </g>
     </g>
     <g id="text_1">
      <!-- 0 -->
      <g transform="translate(70.651477 322.182437) scale(0.1 -0.1)">
       <defs>
        <path id="DejaVuSans-30" d="M 2034 4250 
Q 1547 4250 1301 3770 
Q 1056 3291 1056 2328 
Q 1056 1369 1301 889 
Q 1547 409 2034 409 
Q 2525 409 2770 889 
Q 3016 1369 3016 2328 
Q 3016 3291 2770 3770 
Q 2525 4250 2034 4250 
z
M 2034 4750 
Q 2819 4750 3233 4129 
Q 3647 3509 3647 2328 
Q 3647 1150 3233 529 
Q 2819 -91 2034 -91 
Q 1250 -91 836 529 
Q 422 1150 422 2328 
Q 422 3509 836 4129 
Q 1250 4750 2034 4750 
z
" transform="scale(0.015625)"/>
       </defs>
       <use xlink:href="#DejaVuSans-30"/>
      </g>
     </g>
    </g>
    <g id="xtick_2">
     <g id="line2d_2">
      <g>
       <use xlink:href="#m138e8eec23" x="137.303802" y="307.584" style="stroke: #000000; stroke-width: 0.8"/>
      </g>
     </g>
     <g id="text_2">
      <!-- 200 -->
      <g transform="translate(127.760052 322.182437) scale(0.1 -0.1)">
       <defs>
        <path id="DejaVuSans-32" d="M 1228 531 
L 3431 531 
L 3431 0 
L 469 0 
L 469 531 
Q 828 903 1448 1529 
Q 2069 2156 2228 2338 
Q 2531 2678 2651 2914 
Q 2772 3150 2772 3378 
Q 2772 3750 2511 3984 
Q 2250 4219 1831 4219 
Q 1534 4219 1204 4116 
Q 875 4013 500 3803 
L 500 4441 
Q 881 4594 1212 4672 
Q 1544 4750 1819 4750 
Q 2544 4750 2975 4387 
Q 3406 4025 3406 3419 
Q 3406 3131 3298 2873 
Q 3191 2616 2906 2266 
Q 2828 2175 2409 1742 
Q 1991 1309 1228 531 
z
" transform="scale(0.015625)"/>
       </defs>
       <use xlink:href="#DejaVuSans-32"/>
       <use xlink:href="#DejaVuSans-30" x="63.623047"/>
       <use xlink:href="#DejaVuSans-30" x="127.246094"/>
      </g>
     </g>
    </g>
    <g id="xtick_3">
     <g id="line2d_3">
      <g>
       <use xlink:href="#m138e8eec23" x="200.774876" y="307.584" style="stroke: #000000; stroke-width: 0.8"/>
      </g>
     </g>
     <g id="text_3">
      <!-- 400 -->
      <g transform="translate(191.231126 322.182437) scale(0.1 -0.1)">
       <defs>
        <path id="DejaVuSans-34" d="M 2419 4116 
L 825 1625 
L 2419 1625 
L 2419 4116 
z
M 2253 4666 
L 3047 4666 
L 3047 1625 
L 3713 1625 
L 3713 1100 
L 3047 1100 
L 3047 0 
L 2419 0 
L 2419 1100 
L 313 1100 
L 313 1709 
L 2253 4666 
z
" transform="scale(0.015625)"/>
       </defs>
       <use xlink:href="#DejaVuSans-34"/>
       <use xlink:href="#DejaVuSans-30" x="63.623047"/>
       <use xlink:href="#DejaVuSans-30" x="127.246094"/>
      </g>
     </g>
    </g>
    <g id="xtick_4">
     <g id="line2d_4">
      <g>
       <use xlink:href="#m138e8eec23" x="264.24595" y="307.584" style="stroke: #000000; stroke-width: 0.8"/>
      </g>
     </g>
     <g id="text_4">
      <!-- 600 -->
      <g transform="translate(254.7022 322.182437) scale(0.1 -0.1)">
       <defs>
        <path id="DejaVuSans-36" d="M 2113 2584 
Q 1688 2584 1439 2293 
Q 1191 2003 1191 1497 
Q 1191 994 1439 701 
Q 1688 409 2113 409 
Q 2538 409 2786 701 
Q 3034 994 3034 1497 
Q 3034 2003 2786 2293 
Q 2538 2584 2113 2584 
z
M 3366 4563 
L 3366 3988 
Q 3128 4100 2886 4159 
Q 2644 4219 2406 4219 
Q 1781 4219 1451 3797 
Q 1122 3375 1075 2522 
Q 1259 2794 1537 2939 
Q 1816 3084 2150 3084 
Q 2853 3084 3261 2657 
Q 3669 2231 3669 1497 
Q 3669 778 3244 343 
Q 2819 -91 2113 -91 
Q 1303 -91 875 529 
Q 447 1150 447 2328 
Q 447 3434 972 4092 
Q 1497 4750 2381 4750 
Q 2619 4750 2861 4703 
Q 3103 4656 3366 4563 
z
" transform="scale(0.015625)"/>
       </defs>
       <use xlink:href="#DejaVuSans-36"/>
       <use xlink:href="#DejaVuSans-30" x="63.623047"/>
       <use xlink:href="#DejaVuSans-30" x="127.246094"/>
      </g>
     </g>
    </g>
    <g id="xtick_5">
     <g id="line2d_5">
      <g>
       <use xlink:href="#m138e8eec23" x="327.717025" y="307.584" style="stroke: #000000; stroke-width: 0.8"/>
      </g>
     </g>
     <g id="text_5">
      <!-- 800 -->
      <g transform="translate(318.173275 322.182437) scale(0.1 -0.1)">
       <defs>
        <path id="DejaVuSans-38" d="M 2034 2216 
Q 1584 2216 1326 1975 
Q 1069 1734 1069 1313 
Q 1069 891 1326 650 
Q 1584 409 2034 409 
Q 2484 409 2743 651 
Q 3003 894 3003 1313 
Q 3003 1734 2745 1975 
Q 2488 2216 2034 2216 
z
M 1403 2484 
Q 997 2584 770 2862 
Q 544 3141 544 3541 
Q 544 4100 942 4425 
Q 1341 4750 2034 4750 
Q 2731 4750 3128 4425 
Q 3525 4100 3525 3541 
Q 3525 3141 3298 2862 
Q 3072 2584 2669 2484 
Q 3125 2378 3379 2068 
Q 3634 1759 3634 1313 
Q 3634 634 3220 271 
Q 2806 -91 2034 -91 
Q 1263 -91 848 271 
Q 434 634 434 1313 
Q 434 1759 690 2068 
Q 947 2378 1403 2484 
z
M 1172 3481 
Q 1172 3119 1398 2916 
Q 1625 2713 2034 2713 
Q 2441 2713 2670 2916 
Q 2900 3119 2900 3481 
Q 2900 3844 2670 4047 
Q 2441 4250 2034 4250 
Q 1625 4250 1398 4047 
Q 1172 3844 1172 3481 
z
" transform="scale(0.015625)"/>
       </defs>
       <use xlink:href="#DejaVuSans-38"/>
       <use xlink:href="#DejaVuSans-30" x="63.623047"/>
       <use xlink:href="#DejaVuSans-30" x="127.246094"/>
      </g>
     </g>
    </g>
    <g id="xtick_6">
     <g id="line2d_6">
      <g>
       <use xlink:href="#m138e8eec23" x="391.188099" y="307.584" style="stroke: #000000; stroke-width: 0.8"/>
      </g>
     </g>
     <g id="text_6">
      <!-- 1000 -->
      <g transform="translate(378.463099 322.182437) scale(0.1 -0.1)">
       <defs>
        <path id="DejaVuSans-31" d="M 794 531 
L 1825 531 
L 1825 4091 
L 703 3866 
L 703 4441 
L 1819 4666 
L 2450 4666 
L 2450 531 
L 3481 531 
L 3481 0 
L 794 0 
L 794 531 
z
" transform="scale(0.015625)"/>
       </defs>
       <use xlink:href="#DejaVuSans-31"/>
       <use xlink:href="#DejaVuSans-30" x="63.623047"/>
       <use xlink:href="#DejaVuSans-30" x="127.246094"/>
       <use xlink:href="#DejaVuSans-30" x="190.869141"/>
      </g>
     </g>
    </g>
    <g id="text_7">
     <!-- n -->
     <g transform="translate(232.99125 335.860562) scale(0.1 -0.1)">
      <defs>
       <path id="DejaVuSans-6e" d="M 3513 2113 
L 3513 0 
L 2938 0 
L 2938 2094 
Q 2938 2591 2744 2837 
Q 2550 3084 2163 3084 
Q 1697 3084 1428 2787 
Q 1159 2491 1159 1978 
L 1159 0 
L 581 0 
L 581 3500 
L 1159 3500 
L 1159 2956 
Q 1366 3272 1645 3428 
Q 1925 3584 2291 3584 
Q 2894 3584 3203 3211 
Q 3513 2838 3513 2113 
z
" transform="scale(0.015625)"/>
      </defs>
      <use xlink:href="#DejaVuSans-6e"/>
     </g>
    </g>
   </g>
   <g id="matplotlib.axis_2">
    <g id="ytick_1">
     <g id="line2d_7">
      <defs>
       <path id="mea0d6e0caa" d="M 0 0 
L -3.5 0 
" style="stroke: #000000; stroke-width: 0.8"/>
      </defs>
      <g>
       <use xlink:href="#mea0d6e0caa" x="57.6" y="284.590174" style="stroke: #000000; stroke-width: 0.8"/>
      </g>
     </g>
     <g id="text_8">
      <!-- −1.5 -->
      <g transform="translate(26.317187 288.389393) scale(0.1 -0.1)">
       <defs>
        <path id="DejaVuSans-2212" d="M 678 2272 
L 4684 2272 
L 4684 1741 
L 678 1741 
L 678 2272 
z
" transform="scale(0.015625)"/>
        <path id="DejaVuSans-2e" d="M 684 794 
L 1344 794 
L 1344 0 
L 684 0 
L 684 794 
z
" transform="scale(0.015625)"/>
        <path id="DejaVuSans-35" d="M 691 4666 
L 3169 4666 
L 3169 4134 
L 1269 4134 
L 1269 2991 
Q 1406 3038 1543 3061 
Q 1681 3084 1819 3084 
Q 2600 3084 3056 2656 
Q 3513 2228 3513 1497 
Q 3513 744 3044 326 
Q 2575 -91 1722 -91 
Q 1428 -91 1123 -41 
Q 819 9 494 109 
L 494 744 
Q 775 591 1075 516 
Q 1375 441 1709 441 
Q 2250 441 2565 725 
Q 2881 1009 2881 1497 
Q 2881 1984 2565 2268 
Q 2250 2553 1709 2553 
Q 1456 2553 1204 2497 
Q 953 2441 691 2322 
L 691 4666 
z
" transform="scale(0.015625)"/>
       </defs>
       <use xlink:href="#DejaVuSans-2212"/>
       <use xlink:href="#DejaVuSans-31" x="83.789062"/>
       <use xlink:href="#DejaVuSans-2e" x="147.412109"/>
       <use xlink:href="#DejaVuSans-35" x="179.199219"/>
      </g>
     </g>
    </g>
    <g id="ytick_2">
     <g id="line2d_8">
      <g>
       <use xlink:href="#mea0d6e0caa" x="57.6" y="253.270854" style="stroke: #000000; stroke-width: 0.8"/>
      </g>
     </g>
     <g id="text_9">
      <!-- −1.0 -->
      <g transform="translate(26.317187 257.070073) scale(0.1 -0.1)">
       <use xlink:href="#DejaVuSans-2212"/>
       <use xlink:href="#DejaVuSans-31" x="83.789062"/>
       <use xlink:href="#DejaVuSans-2e" x="147.412109"/>
       <use xlink:href="#DejaVuSans-30" x="179.199219"/>
      </g>
     </g>
    </g>
    <g id="ytick_3">
     <g id="line2d_9">
      <g>
       <use xlink:href="#mea0d6e0caa" x="57.6" y="221.951535" style="stroke: #000000; stroke-width: 0.8"/>
      </g>
     </g>
     <g id="text_10">
      <!-- −0.5 -->
      <g transform="translate(26.317187 225.750753) scale(0.1 -0.1)">
       <use xlink:href="#DejaVuSans-2212"/>
       <use xlink:href="#DejaVuSans-30" x="83.789062"/>
       <use xlink:href="#DejaVuSans-2e" x="147.412109"/>
       <use xlink:href="#DejaVuSans-35" x="179.199219"/>
      </g>
     </g>
    </g>
    <g id="ytick_4">
     <g id="line2d_10">
      <g>
       <use xlink:href="#mea0d6e0caa" x="57.6" y="190.632215" style="stroke: #000000; stroke-width: 0.8"/>
      </g>
     </g>
     <g id="text_11">
      <!-- 0.0 -->
      <g transform="translate(34.696875 194.431434) scale(0.1 -0.1)">
       <use xlink:href="#DejaVuSans-30"/>
       <use xlink:href="#DejaVuSans-2e" x="63.623047"/>
       <use xlink:href="#DejaVuSans-30" x="95.410156"/>
      </g>
     </g>
    </g>
    <g id="ytick_5">
     <g id="line2d_11">
      <g>
       <use xlink:href="#mea0d6e0caa" x="57.6" y="159.312895" style="stroke: #000000; stroke-width: 0.8"/>
      </g>
     </g>
     <g id="text_12">
      <!-- 0.5 -->
      <g transform="translate(34.696875 163.112114) scale(0.1 -0.1)">
       <use xlink:href="#DejaVuSans-30"/>
       <use xlink:href="#DejaVuSans-2e" x="63.623047"/>
       <use xlink:href="#DejaVuSans-35" x="95.410156"/>
      </g>
     </g>
    </g>
    <g id="ytick_6">
     <g id="line2d_12">
      <g>
       <use xlink:href="#mea0d6e0caa" x="57.6" y="127.993576" style="stroke: #000000; stroke-width: 0.8"/>
      </g>
     </g>
     <g id="text_13">
      <!-- 1.0 -->
      <g transform="translate(34.696875 131.792794) scale(0.1 -0.1)">
       <use xlink:href="#DejaVuSans-31"/>
       <use xlink:href="#DejaVuSans-2e" x="63.623047"/>
       <use xlink:href="#DejaVuSans-30" x="95.410156"/>
      </g>
     </g>
    </g>
    <g id="ytick_7">
     <g id="line2d_13">
      <g>
       <use xlink:href="#mea0d6e0caa" x="57.6" y="96.674256" style="stroke: #000000; stroke-width: 0.8"/>
      </g>
     </g>
     <g id="text_14">
      <!-- 1.5 -->
      <g transform="translate(34.696875 100.473475) scale(0.1 -0.1)">
       <use xlink:href="#DejaVuSans-31"/>
       <use xlink:href="#DejaVuSans-2e" x="63.623047"/>
       <use xlink:href="#DejaVuSans-35" x="95.410156"/>
      </g>
     </g>
    </g>
    <g id="ytick_8">
     <g id="line2d_14">
      <g>
       <use xlink:href="#mea0d6e0caa" x="57.6" y="65.354936" style="stroke: #000000; stroke-width: 0.8"/>
      </g>
     </g>
     <g id="text_15">
      <!-- 2.0 -->
      <g transform="translate(34.696875 69.154155) scale(0.1 -0.1)">
       <use xlink:href="#DejaVuSans-32"/>
       <use xlink:href="#DejaVuSans-2e" x="63.623047"/>
       <use xlink:href="#DejaVuSans-30" x="95.410156"/>
      </g>
     </g>
    </g>
    <g id="text_16">
     <!-- E*t -->
     <g transform="translate(20.2375 182.147531) rotate(-90) scale(0.1 -0.1)">
      <defs>
       <path id="DejaVuSans-45" d="M 628 4666 
L 3578 4666 
L 3578 4134 
L 1259 4134 
L 1259 2753 
L 3481 2753 
L 3481 2222 
L 1259 2222 
L 1259 531 
L 3634 531 
L 3634 0 
L 628 0 
L 628 4666 
z
" transform="scale(0.015625)"/>
       <path id="DejaVuSans-2a" d="M 3009 3897 
L 1888 3291 
L 3009 2681 
L 2828 2375 
L 1778 3009 
L 1778 1831 
L 1422 1831 
L 1422 3009 
L 372 2375 
L 191 2681 
L 1313 3291 
L 191 3897 
L 372 4206 
L 1422 3572 
L 1422 4750 
L 1778 4750 
L 1778 3572 
L 2828 4206 
L 3009 3897 
z
" transform="scale(0.015625)"/>
       <path id="DejaVuSans-74" d="M 1172 4494 
L 1172 3500 
L 2356 3500 
L 2356 3053 
L 1172 3053 
L 1172 1153 
Q 1172 725 1289 603 
Q 1406 481 1766 481 
L 2356 481 
L 2356 0 
L 1766 0 
Q 1100 0 847 248 
Q 594 497 594 1153 
L 594 3053 
L 172 3053 
L 172 3500 
L 594 3500 
L 594 4494 
L 1172 4494 
z
" transform="scale(0.015625)"/>
      </defs>
      <use xlink:href="#DejaVuSans-45"/>
      <use xlink:href="#DejaVuSans-2a" x="63.183594"/>
      <use xlink:href="#DejaVuSans-74" x="113.183594"/>
     </g>
    </g>
   </g>
   <g id="line2d_15">
    <path d="M 73.832727 295.488 
L 74.150083 289.293794 
L 74.784793 284.057531 
L 75.102149 283.98612 
L 75.419504 282.202217 
L 75.73686 279.200626 
L 76.37157 276.97454 
L 76.688926 274.285403 
L 77.323636 272.984348 
L 78.593058 271.785438 
L 79.227769 270.688908 
L 79.545124 268.787306 
L 79.862479 267.692255 
L 80.179835 265.74315 
L 80.49719 265.481277 
L 80.814545 264.998572 
L 81.449256 264.4202 
L 81.766612 264.04661 
L 82.083967 263.47377 
L 82.401322 261.996004 
L 82.718678 261.845712 
L 83.036033 261.306868 
L 83.988099 260.549355 
L 84.305455 260.163893 
L 84.62281 260.035308 
L 84.940165 259.616827 
L 85.257521 258.600545 
L 85.892231 258.258277 
L 86.526942 257.611089 
L 87.161653 255.94093 
L 87.479008 255.906793 
L 87.796364 255.368137 
L 88.431074 254.889977 
L 89.065785 254.209045 
L 89.38314 253.733222 
L 89.700496 252.973446 
L 90.335207 252.430672 
L 90.652562 252.28953 
L 91.604628 251.341699 
L 91.921983 250.358023 
L 92.556694 250.161424 
L 92.87405 249.7667 
L 94.143471 249.115434 
L 94.778182 248.501344 
L 95.412893 248.239597 
L 95.730248 247.732857 
L 96.047603 247.64209 
L 96.999669 247.031649 
L 97.317025 246.4774 
L 97.63438 246.17263 
L 97.951736 245.625119 
L 100.490579 243.498358 
L 101.125289 243.148363 
L 101.442645 243.070043 
L 101.76 242.691043 
L 102.712066 242.212863 
L 103.346777 241.440635 
L 103.981488 240.966056 
L 104.298843 240.545694 
L 104.616198 240.471501 
L 104.933554 240.061913 
L 105.88562 239.647456 
L 106.837686 239.028808 
L 108.424463 238.392922 
L 108.741818 237.819416 
L 109.059174 237.742584 
L 109.376529 237.483122 
L 109.693884 237.06903 
L 110.01124 237.041827 
L 110.963306 236.401256 
L 111.280661 236.252178 
L 111.598017 235.85787 
L 112.232727 235.525578 
L 113.184793 235.0118 
L 113.502149 234.910337 
L 114.13686 234.474759 
L 117.310413 232.592381 
L 119.214545 231.358607 
L 119.531901 231.122631 
L 120.166612 230.93518 
L 121.118678 230.462851 
L 121.436033 230.217227 
L 121.753388 230.14939 
L 122.388099 229.756362 
L 125.244298 228.331385 
L 126.513719 227.660089 
L 127.465785 227.388942 
L 128.417851 226.914801 
L 128.735207 226.848576 
L 129.052562 226.570411 
L 129.687273 226.3231 
L 130.004628 226.075919 
L 130.639339 225.821619 
L 131.90876 225.159811 
L 133.178182 224.600696 
L 133.495537 224.353583 
L 134.130248 224.115527 
L 139.207934 221.470141 
L 140.16 221.011308 
L 140.477355 220.944749 
L 140.794711 220.750714 
L 141.429421 220.586018 
L 142.381488 220.341055 
L 143.016198 219.924999 
L 143.333554 219.907316 
L 144.28562 219.413356 
L 145.237686 218.827766 
L 148.41124 217.430592 
L 149.363306 216.930337 
L 151.267438 216.191753 
L 151.584793 216.13654 
L 152.53686 215.749554 
L 152.854215 215.657374 
L 153.17157 215.406095 
L 154.123636 215.260078 
L 154.440992 215.042418 
L 155.393058 214.767675 
L 157.614545 214.045198 
L 157.931901 213.734204 
L 160.153388 212.92745 
L 161.105455 212.524111 
L 162.057521 212.283475 
L 162.374876 211.960221 
L 163.009587 211.824332 
L 163.644298 211.53569 
L 164.279008 211.370719 
L 164.913719 211.053479 
L 167.135207 210.177959 
L 167.452562 209.931978 
L 168.087273 209.755588 
L 168.721983 209.531518 
L 171.895537 208.328169 
L 173.164959 207.925285 
L 173.799669 207.595241 
L 174.43438 207.400058 
L 175.703802 207.056294 
L 176.655868 206.619061 
L 177.925289 206.061757 
L 178.242645 205.734709 
L 179.512066 205.272965 
L 180.146777 205.015056 
L 180.781488 204.781392 
L 182.368264 204.178912 
L 190.302149 201.307325 
L 191.254215 201.044783 
L 194.427769 199.980526 
L 196.014545 199.405115 
L 196.966612 199.08251 
L 198.236033 198.670938 
L 200.457521 198.012246 
L 201.409587 197.578355 
L 204.265785 196.668662 
L 204.58314 196.636479 
L 205.217851 196.281836 
L 207.121983 195.756852 
L 207.439339 195.682538 
L 208.07405 195.353445 
L 208.391405 195.279414 
L 209.026116 194.945869 
L 211.247603 194.267618 
L 212.83438 193.560028 
L 214.103802 193.137508 
L 215.055868 192.856745 
L 216.325289 192.418744 
L 217.594711 191.987322 
L 220.133554 190.985114 
L 221.402975 190.519218 
L 222.672397 189.943895 
L 223.624463 189.601885 
L 224.259174 189.327562 
L 225.21124 189.050815 
L 227.750083 188.222115 
L 228.702149 188.050876 
L 231.875702 187.024115 
L 233.145124 186.710898 
L 234.731901 186.129789 
L 236.636033 185.480886 
L 236.953388 185.28919 
L 237.905455 185.025314 
L 240.444298 184.125426 
L 241.079008 183.730402 
L 241.713719 183.485158 
L 242.665785 183.29214 
L 245.204628 182.384755 
L 246.156694 182.111201 
L 254.090579 179.488658 
L 254.725289 179.3653 
L 255.36 179.061111 
L 255.994711 178.802663 
L 256.946777 178.454355 
L 259.168264 177.59814 
L 259.48562 177.573972 
L 259.802975 177.370171 
L 260.120331 177.329203 
L 260.755041 177.082458 
L 264.24595 175.739569 
L 264.880661 175.487836 
L 266.150083 174.981044 
L 267.102149 174.782485 
L 268.054215 174.269829 
L 269.006281 174.099096 
L 269.323636 173.872026 
L 269.958347 173.659549 
L 270.910413 173.36069 
L 271.545124 173.211019 
L 273.449256 172.602298 
L 274.083967 172.321763 
L 274.401322 172.126731 
L 275.353388 171.827444 
L 280.74843 170.012867 
L 281.38314 169.736048 
L 282.969917 169.134823 
L 283.604628 168.628417 
L 284.556694 168.419677 
L 286.778182 167.564794 
L 287.095537 167.535849 
L 287.412893 167.29347 
L 289.951736 166.493952 
L 291.221157 165.767758 
L 291.855868 165.605681 
L 292.490579 165.420743 
L 295.346777 164.258866 
L 295.981488 164.046323 
L 302.01124 161.683288 
L 302.963306 161.331411 
L 304.232727 160.620839 
L 304.550083 160.520278 
L 305.184793 160.096693 
L 306.13686 159.805969 
L 307.088926 159.507428 
L 311.214545 158.032694 
L 311.531901 157.984032 
L 312.166612 157.602255 
L 314.388099 156.971717 
L 315.02281 156.585604 
L 316.292231 156.060659 
L 316.609587 155.697652 
L 317.244298 155.479791 
L 317.879008 155.173141 
L 319.465785 154.57822 
L 320.417851 153.891043 
L 322.956694 152.990314 
L 323.591405 152.572267 
L 323.90876 152.456553 
L 324.543471 152.083417 
L 325.495537 151.621748 
L 326.447603 151.301152 
L 328.351736 150.414346 
L 328.986446 150.152205 
L 329.938512 149.76117 
L 330.573223 149.245761 
L 331.525289 148.934277 
L 332.477355 148.207249 
L 333.112066 147.929617 
L 333.746777 147.43336 
L 334.698843 147.117333 
L 335.650909 146.634236 
L 335.968264 146.61003 
L 337.237686 145.967737 
L 337.555041 145.853381 
L 337.872397 145.5872 
L 339.141818 145.179399 
L 339.776529 144.825565 
L 341.04595 143.98991 
L 342.632727 143.216164 
L 343.902149 142.355377 
L 344.219504 141.990007 
L 346.440992 140.83779 
L 347.075702 140.632629 
L 347.393058 140.43701 
L 347.710413 140.387027 
L 348.662479 139.702279 
L 348.979835 139.585187 
L 349.29719 139.296733 
L 351.201322 138.436253 
L 353.105455 137.307087 
L 353.42281 136.831661 
L 354.374876 136.376203 
L 354.692231 136.010128 
L 355.326942 135.80943 
L 355.644298 135.469277 
L 356.279008 135.231587 
L 356.913719 134.709642 
L 357.865785 133.846449 
L 358.18314 133.750792 
L 358.500496 133.275074 
L 359.135207 132.989892 
L 361.356694 131.399416 
L 361.67405 131.351143 
L 362.626116 130.767833 
L 363.260826 130.501639 
L 363.895537 129.518872 
L 364.212893 129.392089 
L 364.530248 128.987725 
L 365.164959 128.596852 
L 365.482314 128.222918 
L 367.069091 127.278972 
L 367.703802 126.48148 
L 368.655868 125.674653 
L 369.290579 125.376327 
L 369.607934 124.961934 
L 370.242645 124.735267 
L 370.56 124.581631 
L 371.194711 123.986772 
L 371.512066 123.683774 
L 372.146777 123.445322 
L 372.464132 123.108069 
L 372.781488 122.986075 
L 373.098843 122.56089 
L 373.733554 122.129132 
L 374.050909 121.760066 
L 374.368264 121.568193 
L 375.637686 120.17642 
L 376.272397 119.789793 
L 376.907107 118.573765 
L 377.224463 118.322573 
L 377.541818 117.868026 
L 377.859174 117.08492 
L 378.493884 116.817486 
L 378.81124 116.36566 
L 379.128595 116.21657 
L 380.398017 114.339969 
L 381.350083 113.518847 
L 381.667438 112.862781 
L 382.93686 111.796627 
L 383.254215 111.126674 
L 383.57157 110.914607 
L 384.840992 109.272888 
L 385.158347 109.126803 
L 385.475702 108.010807 
L 385.793058 107.756575 
L 386.110413 106.957618 
L 386.427769 106.679031 
L 386.745124 105.937288 
L 387.062479 105.708351 
L 391.188099 97.288836 
L 391.505455 96.745193 
L 391.82281 95.718077 
L 392.774876 94.517222 
L 393.092231 92.523592 
L 393.409587 92.324215 
L 394.679008 85.937906 
L 394.996364 85.19627 
L 395.313719 84.080725 
L 395.631074 83.378794 
L 396.265785 82.460537 
L 396.58314 80.381749 
L 397.217851 72.442519 
L 397.852562 66.234127 
L 398.169917 56.47416 
L 398.487273 53.568 
L 398.487273 53.568 
" clip-path="url(#p89fbb6956d)" style="fill: none; stroke: #1f77b4; stroke-width: 1.5; stroke-linecap: square"/>
   </g>
   <g id="line2d_16">
    <path d="M 73.832727 214.434898 
L 74.150083 211.929352 
L 74.467438 211.684089 
L 74.784793 210.972312 
L 75.102149 209.863697 
L 75.419504 209.423806 
L 76.054215 208.910883 
L 76.37157 208.466767 
L 76.688926 208.466766 
L 77.006281 208.246247 
L 77.323636 207.520347 
L 80.814545 205.831689 
L 82.083967 205.369756 
L 82.401322 205.108418 
L 85.257521 204.304949 
L 86.209587 204.158843 
L 87.161653 203.899793 
L 89.700496 203.235156 
L 90.335207 203.166931 
L 90.969917 202.86421 
L 91.921983 202.822548 
L 94.143471 202.284269 
L 104.933554 200.661386 
L 105.250909 200.489072 
L 109.059174 200.097326 
L 110.01124 200.003711 
L 110.328595 199.99626 
L 110.963306 199.841516 
L 112.232727 199.671987 
L 114.13686 199.549659 
L 114.454215 199.409577 
L 116.358347 199.275189 
L 116.993058 199.147751 
L 118.262479 199.001908 
L 121.436033 198.793236 
L 126.831074 198.228272 
L 128.100496 198.155841 
L 128.417851 197.983526 
L 134.447603 197.490714 
L 135.082314 197.349454 
L 140.794711 197.044113 
L 141.429421 196.904031 
L 143.968264 196.754131 
L 144.602975 196.642206 
L 145.872397 196.501414 
L 149.363306 196.355124 
L 154.123636 195.93904 
L 158.883967 195.650296 
L 159.518678 195.477981 
L 163.326942 195.287965 
L 165.231074 195.152179 
L 168.087273 194.985169 
L 168.721983 194.843908 
L 174.751736 194.524317 
L 175.703802 194.429166 
L 178.56 194.248586 
L 181.098843 194.079914 
L 185.224463 193.849579 
L 187.44595 193.731894 
L 188.080661 193.670162 
L 189.032727 193.582466 
L 190.619504 193.433495 
L 193.475702 193.324147 
L 196.966612 193.144751 
L 197.601322 192.948474 
L 200.774876 192.833964 
L 202.996364 192.703361 
L 206.487273 192.512392 
L 213.151736 192.076408 
L 214.738512 191.949338 
L 230.288926 191.027021 
L 231.558347 190.92795 
L 234.414545 190.8186 
L 237.905455 190.639205 
L 238.540165 190.442929 
L 242.031074 190.321724 
L 243.617851 190.197817 
L 247.10876 190.006847 
L 251.23438 189.756546 
L 251.869091 189.650457 
L 255.36 189.56686 
L 256.629421 189.427039 
L 259.48562 189.287735 
L 262.341818 189.077348 
L 264.24595 188.945278 
L 268.054215 188.769248 
L 269.640992 188.633884 
L 270.593058 188.571374 
L 271.227769 188.443523 
L 277.257521 188.144237 
L 278.526942 188.066364 
L 279.479008 187.921081 
L 282.017851 187.830935 
L 284.87405 187.607116 
L 293.442645 187.078328 
L 295.346777 186.912532 
L 296.933554 186.800516 
L 298.520331 186.709622 
L 300.424463 186.568033 
L 302.328595 186.434004 
L 304.232727 186.339068 
L 306.13686 186.200865 
L 312.483967 185.736616 
L 316.609587 185.40364 
L 318.196364 185.315649 
L 318.831074 185.194006 
L 321.687273 185.044051 
L 322.639339 184.962986 
L 324.860826 184.83363 
L 332.477355 184.204075 
L 333.112066 184.117469 
L 335.968264 183.928458 
L 342.632727 183.269393 
L 344.854215 183.150383 
L 346.123636 183.055271 
L 346.440992 182.909988 
L 348.027769 182.810102 
L 348.662479 182.671274 
L 351.518678 182.412837 
L 353.105455 182.3004 
L 354.057521 182.13382 
L 355.009587 182.072697 
L 355.644298 181.983895 
L 358.500496 181.711718 
L 359.135207 181.556943 
L 360.087273 181.500939 
L 360.721983 181.342358 
L 361.039339 181.339631 
L 361.67405 181.189773 
L 364.212893 180.940812 
L 366.117025 180.721837 
L 368.021157 180.471951 
L 370.242645 180.09048 
L 371.194711 179.948379 
L 379.128595 178.665965 
L 379.763306 178.435266 
L 380.715372 178.258302 
L 382.93686 177.88035 
L 383.254215 177.677366 
L 383.888926 177.584934 
L 386.110413 177.197669 
L 386.745124 176.952715 
L 387.69719 176.85338 
L 388.014545 176.596809 
L 389.918678 176.009216 
L 390.553388 175.681413 
L 390.870744 175.676013 
L 391.188099 175.490758 
L 391.82281 175.460861 
L 392.140165 175.030235 
L 392.774876 174.756363 
L 393.409587 174.55105 
L 394.044298 174.091265 
L 394.679008 173.657195 
L 394.996364 173.61359 
L 395.631074 173.337817 
L 396.58314 172.339149 
L 396.900496 172.250817 
L 397.217851 170.935311 
L 397.535207 170.83227 
L 397.852562 170.452376 
L 398.487273 168.429761 
L 398.487273 168.429761 
" clip-path="url(#p89fbb6956d)" style="fill: none; stroke: #ff7f0e; stroke-width: 1.5; stroke-linecap: square"/>
   </g>
   <g id="patch_3">
    <path d="M 57.6 307.584 
L 57.6 41.472 
" style="fill: none; stroke: #000000; stroke-width: 0.8; stroke-linejoin: miter; stroke-linecap: square"/>
   </g>
   <g id="patch_4">
    <path d="M 414.72 307.584 
L 414.72 41.472 
" style="fill: none; stroke: #000000; stroke-width: 0.8; stroke-linejoin: miter; stroke-linecap: square"/>
   </g>
   <g id="patch_5">
    <path d="M 57.6 307.584 
L 414.72 307.584 
" style="fill: none; stroke: #000000; stroke-width: 0.8; stroke-linejoin: miter; stroke-linecap: square"/>
   </g>
   <g id="patch_6">
    <path d="M 57.6 41.472 
L 414.72 41.472 
" style="fill: none; stroke: #000000; stroke-width: 0.8; stroke-linejoin: miter; stroke-linecap: square"/>
   </g>
   <g id="legend_1">
    <g id="patch_7">
     <path d="M 64.6 78.82825 
L 129.342187 78.82825 
Q 131.342187 78.82825 131.342187 76.82825 
L 131.342187 48.472 
Q 131.342187 46.472 129.342187 46.472 
L 64.6 46.472 
Q 62.6 46.472 62.6 48.472 
L 62.6 76.82825 
Q 62.6 78.82825 64.6 78.82825 
z
" style="fill: #ffffff; opacity: 0.8; stroke: #cccccc; stroke-linejoin: miter"/>
    </g>
    <g id="line2d_17">
     <path d="M 66.6 54.570437 
L 76.6 54.570437 
L 86.6 54.570437 
" style="fill: none; stroke: #1f77b4; stroke-width: 1.5; stroke-linecap: square"/>
    </g>
    <g id="text_17">
     <!-- qc -->
     <g transform="translate(94.6 58.070437) scale(0.1 -0.1)">
      <defs>
       <path id="DejaVuSans-71" d="M 947 1747 
Q 947 1113 1208 752 
Q 1469 391 1925 391 
Q 2381 391 2643 752 
Q 2906 1113 2906 1747 
Q 2906 2381 2643 2742 
Q 2381 3103 1925 3103 
Q 1469 3103 1208 2742 
Q 947 2381 947 1747 
z
M 2906 525 
Q 2725 213 2448 61 
Q 2172 -91 1784 -91 
Q 1150 -91 751 415 
Q 353 922 353 1747 
Q 353 2572 751 3078 
Q 1150 3584 1784 3584 
Q 2172 3584 2448 3432 
Q 2725 3281 2906 2969 
L 2906 3500 
L 3481 3500 
L 3481 -1331 
L 2906 -1331 
L 2906 525 
z
" transform="scale(0.015625)"/>
       <path id="DejaVuSans-63" d="M 3122 3366 
L 3122 2828 
Q 2878 2963 2633 3030 
Q 2388 3097 2138 3097 
Q 1578 3097 1268 2742 
Q 959 2388 959 1747 
Q 959 1106 1268 751 
Q 1578 397 2138 397 
Q 2388 397 2633 464 
Q 2878 531 3122 666 
L 3122 134 
Q 2881 22 2623 -34 
Q 2366 -91 2075 -91 
Q 1284 -91 818 406 
Q 353 903 353 1747 
Q 353 2603 823 3093 
Q 1294 3584 2113 3584 
Q 2378 3584 2631 3529 
Q 2884 3475 3122 3366 
z
" transform="scale(0.015625)"/>
      </defs>
      <use xlink:href="#DejaVuSans-71"/>
      <use xlink:href="#DejaVuSans-63" x="63.476562"/>
     </g>
    </g>
    <g id="line2d_18">
     <path d="M 66.6 69.248562 
L 76.6 69.248562 
L 86.6 69.248562 
" style="fill: none; stroke: #ff7f0e; stroke-width: 1.5; stroke-linecap: square"/>
    </g>
    <g id="text_18">
     <!-- Trotter -->
     <g transform="translate(94.6 72.748562) scale(0.1 -0.1)">
      <defs>
       <path id="DejaVuSans-54" d="M -19 4666 
L 3928 4666 
L 3928 4134 
L 2272 4134 
L 2272 0 
L 1638 0 
L 1638 4134 
L -19 4134 
L -19 4666 
z
" transform="scale(0.015625)"/>
       <path id="DejaVuSans-72" d="M 2631 2963 
Q 2534 3019 2420 3045 
Q 2306 3072 2169 3072 
Q 1681 3072 1420 2755 
Q 1159 2438 1159 1844 
L 1159 0 
L 581 0 
L 581 3500 
L 1159 3500 
L 1159 2956 
Q 1341 3275 1631 3429 
Q 1922 3584 2338 3584 
Q 2397 3584 2469 3576 
Q 2541 3569 2628 3553 
L 2631 2963 
z
" transform="scale(0.015625)"/>
       <path id="DejaVuSans-6f" d="M 1959 3097 
Q 1497 3097 1228 2736 
Q 959 2375 959 1747 
Q 959 1119 1226 758 
Q 1494 397 1959 397 
Q 2419 397 2687 759 
Q 2956 1122 2956 1747 
Q 2956 2369 2687 2733 
Q 2419 3097 1959 3097 
z
M 1959 3584 
Q 2709 3584 3137 3096 
Q 3566 2609 3566 1747 
Q 3566 888 3137 398 
Q 2709 -91 1959 -91 
Q 1206 -91 779 398 
Q 353 888 353 1747 
Q 353 2609 779 3096 
Q 1206 3584 1959 3584 
z
" transform="scale(0.015625)"/>
       <path id="DejaVuSans-65" d="M 3597 1894 
L 3597 1613 
L 953 1613 
Q 991 1019 1311 708 
Q 1631 397 2203 397 
Q 2534 397 2845 478 
Q 3156 559 3463 722 
L 3463 178 
Q 3153 47 2828 -22 
Q 2503 -91 2169 -91 
Q 1331 -91 842 396 
Q 353 884 353 1716 
Q 353 2575 817 3079 
Q 1281 3584 2069 3584 
Q 2775 3584 3186 3129 
Q 3597 2675 3597 1894 
z
M 3022 2063 
Q 3016 2534 2758 2815 
Q 2500 3097 2075 3097 
Q 1594 3097 1305 2825 
Q 1016 2553 972 2059 
L 3022 2063 
z
" transform="scale(0.015625)"/>
      </defs>
      <use xlink:href="#DejaVuSans-54"/>
      <use xlink:href="#DejaVuSans-72" x="46.333984"/>
      <use xlink:href="#DejaVuSans-6f" x="85.197266"/>
      <use xlink:href="#DejaVuSans-74" x="146.378906"/>
      <use xlink:href="#DejaVuSans-74" x="185.587891"/>
      <use xlink:href="#DejaVuSans-65" x="224.796875"/>
      <use xlink:href="#DejaVuSans-72" x="286.320312"/>
     </g>
    </g>
   </g>
  </g>
 </g>
 <defs>
  <clipPath id="p89fbb6956d">
   <rect x="57.6" y="41.472" width="357.12" height="266.112"/>
  </clipPath>
 </defs>
</svg>
