<?xml version="1.0" encoding="utf-8" standalone="no"?>
<!DOCTYPE svg PUBLIC "-//W3C//DTD SVG 1.1//EN"
  "http://www.w3.org/Graphics/SVG/1.1/DTD/svg11.dtd">
<svg xmlns:xlink="http://www.w3.org/1999/xlink" width="460.8pt" height="345.6pt" viewBox="0 0 460.8 345.6" xmlns="http://www.w3.org/2000/svg" version="1.1">
 <metadata>
  <rdf:RDF xmlns:dc="http://purl.org/dc/elements/1.1/" xmlns:cc="http://creativecommons.org/ns#" xmlns:rdf="http://www.w3.org/1999/02/22-rdf-syntax-ns#">
   <cc:Work>
    <dc:type rdf:resource="http://purl.org/dc/dcmitype/StillImage"/>
    <dc:date>2024-08-31T17:26:57.142099</dc:date>
    <dc:format>image/svg+xml</dc:format>
    <dc:creator>
     <cc:Agent>
      <dc:title>Matplotlib v3.7.1, https://matplotlib.org/</dc:title>
     </cc:Agent>
    </dc:creator>
   </cc:Work>
  </rdf:RDF>
 </metadata>
 <defs>
  <style type="text/css">*{stroke-linejoin: round; stroke-linecap: butt}</style>
 </defs>
 <g id="figure_1">
  <g id="patch_1">
   <path d="M 0 345.6 
L 460.8 345.6 
L 460.8 0 
L 0 0 
z
" style="fill: #ffffff"/>
  </g>
  <g id="axes_1">
   <g id="patch_2">
    <path d="M 57.6 307.584 
L 414.72 307.584 
L 414.72 41.472 
L 57.6 41.472 
z
" style="fill: #ffffff"/>
   </g>
   <g id="matplotlib.axis_1">
    <g id="xtick_1">
     <g id="line2d_1">
      <defs>
       <path id="m7942b22813" d="M 0 0 
L 0 3.5 
" style="stroke: #000000; stroke-width: 0.8"/>
      </defs>
      <g>
       <use xlink:href="#m7942b22813" x="73.832727" y="307.584" style="stroke: #000000; stroke-width: 0.8"/>
      </g>
     </g>
     <g id="text_1">
      <!-- 0 -->
      <g transform="translate(70.651477 322.182437) scale(0.1 -0.1)">
       <defs>
        <path id="DejaVuSans-30" d="M 2034 4250 
Q 1547 4250 1301 3770 
Q 1056 3291 1056 2328 
Q 1056 1369 1301 889 
Q 1547 409 2034 409 
Q 2525 409 2770 889 
Q 3016 1369 3016 2328 
Q 3016 3291 2770 3770 
Q 2525 4250 2034 4250 
z
M 2034 4750 
Q 2819 4750 3233 4129 
Q 3647 3509 3647 2328 
Q 3647 1150 3233 529 
Q 2819 -91 2034 -91 
Q 1250 -91 836 529 
Q 422 1150 422 2328 
Q 422 3509 836 4129 
Q 1250 4750 2034 4750 
z
" transform="scale(0.015625)"/>
       </defs>
       <use xlink:href="#DejaVuSans-30"/>
      </g>
     </g>
    </g>
    <g id="xtick_2">
     <g id="line2d_2">
      <g>
       <use xlink:href="#m7942b22813" x="137.303802" y="307.584" style="stroke: #000000; stroke-width: 0.8"/>
      </g>
     </g>
     <g id="text_2">
      <!-- 200 -->
      <g transform="translate(127.760052 322.182437) scale(0.1 -0.1)">
       <defs>
        <path id="DejaVuSans-32" d="M 1228 531 
L 3431 531 
L 3431 0 
L 469 0 
L 469 531 
Q 828 903 1448 1529 
Q 2069 2156 2228 2338 
Q 2531 2678 2651 2914 
Q 2772 3150 2772 3378 
Q 2772 3750 2511 3984 
Q 2250 4219 1831 4219 
Q 1534 4219 1204 4116 
Q 875 4013 500 3803 
L 500 4441 
Q 881 4594 1212 4672 
Q 1544 4750 1819 4750 
Q 2544 4750 2975 4387 
Q 3406 4025 3406 3419 
Q 3406 3131 3298 2873 
Q 3191 2616 2906 2266 
Q 2828 2175 2409 1742 
Q 1991 1309 1228 531 
z
" transform="scale(0.015625)"/>
       </defs>
       <use xlink:href="#DejaVuSans-32"/>
       <use xlink:href="#DejaVuSans-30" x="63.623047"/>
       <use xlink:href="#DejaVuSans-30" x="127.246094"/>
      </g>
     </g>
    </g>
    <g id="xtick_3">
     <g id="line2d_3">
      <g>
       <use xlink:href="#m7942b22813" x="200.774876" y="307.584" style="stroke: #000000; stroke-width: 0.8"/>
      </g>
     </g>
     <g id="text_3">
      <!-- 400 -->
      <g transform="translate(191.231126 322.182437) scale(0.1 -0.1)">
       <defs>
        <path id="DejaVuSans-34" d="M 2419 4116 
L 825 1625 
L 2419 1625 
L 2419 4116 
z
M 2253 4666 
L 3047 4666 
L 3047 1625 
L 3713 1625 
L 3713 1100 
L 3047 1100 
L 3047 0 
L 2419 0 
L 2419 1100 
L 313 1100 
L 313 1709 
L 2253 4666 
z
" transform="scale(0.015625)"/>
       </defs>
       <use xlink:href="#DejaVuSans-34"/>
       <use xlink:href="#DejaVuSans-30" x="63.623047"/>
       <use xlink:href="#DejaVuSans-30" x="127.246094"/>
      </g>
     </g>
    </g>
    <g id="xtick_4">
     <g id="line2d_4">
      <g>
       <use xlink:href="#m7942b22813" x="264.24595" y="307.584" style="stroke: #000000; stroke-width: 0.8"/>
      </g>
     </g>
     <g id="text_4">
      <!-- 600 -->
      <g transform="translate(254.7022 322.182437) scale(0.1 -0.1)">
       <defs>
        <path id="DejaVuSans-36" d="M 2113 2584 
Q 1688 2584 1439 2293 
Q 1191 2003 1191 1497 
Q 1191 994 1439 701 
Q 1688 409 2113 409 
Q 2538 409 2786 701 
Q 3034 994 3034 1497 
Q 3034 2003 2786 2293 
Q 2538 2584 2113 2584 
z
M 3366 4563 
L 3366 3988 
Q 3128 4100 2886 4159 
Q 2644 4219 2406 4219 
Q 1781 4219 1451 3797 
Q 1122 3375 1075 2522 
Q 1259 2794 1537 2939 
Q 1816 3084 2150 3084 
Q 2853 3084 3261 2657 
Q 3669 2231 3669 1497 
Q 3669 778 3244 343 
Q 2819 -91 2113 -91 
Q 1303 -91 875 529 
Q 447 1150 447 2328 
Q 447 3434 972 4092 
Q 1497 4750 2381 4750 
Q 2619 4750 2861 4703 
Q 3103 4656 3366 4563 
z
" transform="scale(0.015625)"/>
       </defs>
       <use xlink:href="#DejaVuSans-36"/>
       <use xlink:href="#DejaVuSans-30" x="63.623047"/>
       <use xlink:href="#DejaVuSans-30" x="127.246094"/>
      </g>
     </g>
    </g>
    <g id="xtick_5">
     <g id="line2d_5">
      <g>
       <use xlink:href="#m7942b22813" x="327.717025" y="307.584" style="stroke: #000000; stroke-width: 0.8"/>
      </g>
     </g>
     <g id="text_5">
      <!-- 800 -->
      <g transform="translate(318.173275 322.182437) scale(0.1 -0.1)">
       <defs>
        <path id="DejaVuSans-38" d="M 2034 2216 
Q 1584 2216 1326 1975 
Q 1069 1734 1069 1313 
Q 1069 891 1326 650 
Q 1584 409 2034 409 
Q 2484 409 2743 651 
Q 3003 894 3003 1313 
Q 3003 1734 2745 1975 
Q 2488 2216 2034 2216 
z
M 1403 2484 
Q 997 2584 770 2862 
Q 544 3141 544 3541 
Q 544 4100 942 4425 
Q 1341 4750 2034 4750 
Q 2731 4750 3128 4425 
Q 3525 4100 3525 3541 
Q 3525 3141 3298 2862 
Q 3072 2584 2669 2484 
Q 3125 2378 3379 2068 
Q 3634 1759 3634 1313 
Q 3634 634 3220 271 
Q 2806 -91 2034 -91 
Q 1263 -91 848 271 
Q 434 634 434 1313 
Q 434 1759 690 2068 
Q 947 2378 1403 2484 
z
M 1172 3481 
Q 1172 3119 1398 2916 
Q 1625 2713 2034 2713 
Q 2441 2713 2670 2916 
Q 2900 3119 2900 3481 
Q 2900 3844 2670 4047 
Q 2441 4250 2034 4250 
Q 1625 4250 1398 4047 
Q 1172 3844 1172 3481 
z
" transform="scale(0.015625)"/>
       </defs>
       <use xlink:href="#DejaVuSans-38"/>
       <use xlink:href="#DejaVuSans-30" x="63.623047"/>
       <use xlink:href="#DejaVuSans-30" x="127.246094"/>
      </g>
     </g>
    </g>
    <g id="xtick_6">
     <g id="line2d_6">
      <g>
       <use xlink:href="#m7942b22813" x="391.188099" y="307.584" style="stroke: #000000; stroke-width: 0.8"/>
      </g>
     </g>
     <g id="text_6">
      <!-- 1000 -->
      <g transform="translate(378.463099 322.182437) scale(0.1 -0.1)">
       <defs>
        <path id="DejaVuSans-31" d="M 794 531 
L 1825 531 
L 1825 4091 
L 703 3866 
L 703 4441 
L 1819 4666 
L 2450 4666 
L 2450 531 
L 3481 531 
L 3481 0 
L 794 0 
L 794 531 
z
" transform="scale(0.015625)"/>
       </defs>
       <use xlink:href="#DejaVuSans-31"/>
       <use xlink:href="#DejaVuSans-30" x="63.623047"/>
       <use xlink:href="#DejaVuSans-30" x="127.246094"/>
       <use xlink:href="#DejaVuSans-30" x="190.869141"/>
      </g>
     </g>
    </g>
    <g id="text_7">
     <!-- n -->
     <g transform="translate(232.99125 335.860562) scale(0.1 -0.1)">
      <defs>
       <path id="DejaVuSans-6e" d="M 3513 2113 
L 3513 0 
L 2938 0 
L 2938 2094 
Q 2938 2591 2744 2837 
Q 2550 3084 2163 3084 
Q 1697 3084 1428 2787 
Q 1159 2491 1159 1978 
L 1159 0 
L 581 0 
L 581 3500 
L 1159 3500 
L 1159 2956 
Q 1366 3272 1645 3428 
Q 1925 3584 2291 3584 
Q 2894 3584 3203 3211 
Q 3513 2838 3513 2113 
z
" transform="scale(0.015625)"/>
      </defs>
      <use xlink:href="#DejaVuSans-6e"/>
     </g>
    </g>
   </g>
   <g id="matplotlib.axis_2">
    <g id="ytick_1">
     <g id="line2d_7">
      <defs>
       <path id="m6389cf72e7" d="M 0 0 
L -3.5 0 
" style="stroke: #000000; stroke-width: 0.8"/>
      </defs>
      <g>
       <use xlink:href="#m6389cf72e7" x="57.6" y="289.709659" style="stroke: #000000; stroke-width: 0.8"/>
      </g>
     </g>
     <g id="text_8">
      <!-- −8 -->
      <g transform="translate(35.857813 293.508878) scale(0.1 -0.1)">
       <defs>
        <path id="DejaVuSans-2212" d="M 678 2272 
L 4684 2272 
L 4684 1741 
L 678 1741 
L 678 2272 
z
" transform="scale(0.015625)"/>
       </defs>
       <use xlink:href="#DejaVuSans-2212"/>
       <use xlink:href="#DejaVuSans-38" x="83.789062"/>
      </g>
     </g>
    </g>
    <g id="ytick_2">
     <g id="line2d_8">
      <g>
       <use xlink:href="#m6389cf72e7" x="57.6" y="259.938719" style="stroke: #000000; stroke-width: 0.8"/>
      </g>
     </g>
     <g id="text_9">
      <!-- −6 -->
      <g transform="translate(35.857813 263.737937) scale(0.1 -0.1)">
       <use xlink:href="#DejaVuSans-2212"/>
       <use xlink:href="#DejaVuSans-36" x="83.789062"/>
      </g>
     </g>
    </g>
    <g id="ytick_3">
     <g id="line2d_9">
      <g>
       <use xlink:href="#m6389cf72e7" x="57.6" y="230.167778" style="stroke: #000000; stroke-width: 0.8"/>
      </g>
     </g>
     <g id="text_10">
      <!-- −4 -->
      <g transform="translate(35.857813 233.966997) scale(0.1 -0.1)">
       <use xlink:href="#DejaVuSans-2212"/>
       <use xlink:href="#DejaVuSans-34" x="83.789062"/>
      </g>
     </g>
    </g>
    <g id="ytick_4">
     <g id="line2d_10">
      <g>
       <use xlink:href="#m6389cf72e7" x="57.6" y="200.396837" style="stroke: #000000; stroke-width: 0.8"/>
      </g>
     </g>
     <g id="text_11">
      <!-- −2 -->
      <g transform="translate(35.857813 204.196056) scale(0.1 -0.1)">
       <use xlink:href="#DejaVuSans-2212"/>
       <use xlink:href="#DejaVuSans-32" x="83.789062"/>
      </g>
     </g>
    </g>
    <g id="ytick_5">
     <g id="line2d_11">
      <g>
       <use xlink:href="#m6389cf72e7" x="57.6" y="170.625896" style="stroke: #000000; stroke-width: 0.8"/>
      </g>
     </g>
     <g id="text_12">
      <!-- 0 -->
      <g transform="translate(44.2375 174.425115) scale(0.1 -0.1)">
       <use xlink:href="#DejaVuSans-30"/>
      </g>
     </g>
    </g>
    <g id="ytick_6">
     <g id="line2d_12">
      <g>
       <use xlink:href="#m6389cf72e7" x="57.6" y="140.854956" style="stroke: #000000; stroke-width: 0.8"/>
      </g>
     </g>
     <g id="text_13">
      <!-- 2 -->
      <g transform="translate(44.2375 144.654174) scale(0.1 -0.1)">
       <use xlink:href="#DejaVuSans-32"/>
      </g>
     </g>
    </g>
    <g id="ytick_7">
     <g id="line2d_13">
      <g>
       <use xlink:href="#m6389cf72e7" x="57.6" y="111.084015" style="stroke: #000000; stroke-width: 0.8"/>
      </g>
     </g>
     <g id="text_14">
      <!-- 4 -->
      <g transform="translate(44.2375 114.883234) scale(0.1 -0.1)">
       <use xlink:href="#DejaVuSans-34"/>
      </g>
     </g>
    </g>
    <g id="ytick_8">
     <g id="line2d_14">
      <g>
       <use xlink:href="#m6389cf72e7" x="57.6" y="81.313074" style="stroke: #000000; stroke-width: 0.8"/>
      </g>
     </g>
     <g id="text_15">
      <!-- 6 -->
      <g transform="translate(44.2375 85.112293) scale(0.1 -0.1)">
       <use xlink:href="#DejaVuSans-36"/>
      </g>
     </g>
    </g>
    <g id="ytick_9">
     <g id="line2d_15">
      <g>
       <use xlink:href="#m6389cf72e7" x="57.6" y="51.542134" style="stroke: #000000; stroke-width: 0.8"/>
      </g>
     </g>
     <g id="text_16">
      <!-- 8 -->
      <g transform="translate(44.2375 55.341352) scale(0.1 -0.1)">
       <use xlink:href="#DejaVuSans-38"/>
      </g>
     </g>
    </g>
    <g id="text_17">
     <!-- E*t -->
     <g transform="translate(29.778125 182.147531) rotate(-90) scale(0.1 -0.1)">
      <defs>
       <path id="DejaVuSans-45" d="M 628 4666 
L 3578 4666 
L 3578 4134 
L 1259 4134 
L 1259 2753 
L 3481 2753 
L 3481 2222 
L 1259 2222 
L 1259 531 
L 3634 531 
L 3634 0 
L 628 0 
L 628 4666 
z
" transform="scale(0.015625)"/>
       <path id="DejaVuSans-2a" d="M 3009 3897 
L 1888 3291 
L 3009 2681 
L 2828 2375 
L 1778 3009 
L 1778 1831 
L 1422 1831 
L 1422 3009 
L 372 2375 
L 191 2681 
L 1313 3291 
L 191 3897 
L 372 4206 
L 1422 3572 
L 1422 4750 
L 1778 4750 
L 1778 3572 
L 2828 4206 
L 3009 3897 
z
" transform="scale(0.015625)"/>
       <path id="DejaVuSans-74" d="M 1172 4494 
L 1172 3500 
L 2356 3500 
L 2356 3053 
L 1172 3053 
L 1172 1153 
Q 1172 725 1289 603 
Q 1406 481 1766 481 
L 2356 481 
L 2356 0 
L 1766 0 
Q 1100 0 847 248 
Q 594 497 594 1153 
L 594 3053 
L 172 3053 
L 172 3500 
L 594 3500 
L 594 4494 
L 1172 4494 
z
" transform="scale(0.015625)"/>
      </defs>
      <use xlink:href="#DejaVuSans-45"/>
      <use xlink:href="#DejaVuSans-2a" x="63.183594"/>
      <use xlink:href="#DejaVuSans-74" x="113.183594"/>
     </g>
    </g>
   </g>
   <g id="line2d_16">
    <path d="M 73.832727 295.488 
L 74.150083 293.572224 
L 74.467438 281.680359 
L 75.102149 279.597706 
L 75.73686 278.346153 
L 76.054215 274.260542 
L 76.37157 272.052312 
L 76.688926 271.414463 
L 77.006281 270.278324 
L 77.323636 268.022945 
L 77.640992 267.423292 
L 77.958347 265.625501 
L 78.275702 265.085166 
L 78.593058 264.208666 
L 78.910413 263.776576 
L 79.227769 262.307568 
L 79.862479 261.400701 
L 80.49719 259.419873 
L 80.814545 259.127776 
L 81.131901 257.987246 
L 81.766612 257.34721 
L 82.401322 257.124664 
L 83.036033 255.455277 
L 83.670744 255.106061 
L 83.988099 254.402482 
L 84.305455 254.261801 
L 84.940165 253.233478 
L 85.574876 250.961298 
L 85.892231 250.367006 
L 86.209587 250.112188 
L 86.526942 249.415161 
L 87.161653 248.739061 
L 87.479008 248.385104 
L 87.796364 248.298872 
L 88.431074 246.971559 
L 90.017851 245.597816 
L 90.335207 244.99048 
L 90.652562 244.818918 
L 92.556694 242.975242 
L 93.826116 241.639518 
L 95.095537 240.489757 
L 95.730248 240.127332 
L 96.999669 238.997027 
L 97.317025 238.781413 
L 97.951736 238.200466 
L 99.855868 236.460222 
L 100.807934 235.950215 
L 101.442645 235.40019 
L 101.76 234.799296 
L 102.712066 234.089055 
L 103.346777 233.891844 
L 103.664132 233.388695 
L 103.981488 233.120546 
L 104.298843 232.462371 
L 105.250909 231.761945 
L 106.520331 230.630454 
L 106.837686 230.457792 
L 107.472397 229.997213 
L 108.107107 229.465129 
L 108.424463 229.007141 
L 109.059174 228.763045 
L 110.963306 227.296539 
L 112.550083 226.552999 
L 113.184793 226.187126 
L 113.819504 225.827816 
L 115.406281 224.893661 
L 120.483967 222.566304 
L 121.118678 222.23569 
L 123.340165 221.132384 
L 123.657521 220.767202 
L 124.609587 220.312371 
L 124.926942 220.250921 
L 125.561653 219.860794 
L 128.417851 218.315342 
L 129.687273 217.547531 
L 130.004628 217.428759 
L 130.321983 217.120303 
L 130.639339 217.03373 
L 130.956694 216.736281 
L 131.591405 216.475521 
L 132.226116 216.107333 
L 132.860826 215.978614 
L 134.447603 215.282544 
L 135.082314 214.925895 
L 135.399669 214.833252 
L 135.717025 214.578467 
L 136.03438 214.550016 
L 136.669091 214.162534 
L 137.621157 213.831307 
L 139.207934 213.022696 
L 140.477355 212.367554 
L 141.429421 211.989594 
L 141.746777 211.926642 
L 143.016198 211.168853 
L 143.650909 210.978616 
L 143.968264 210.741556 
L 144.920331 210.367655 
L 145.872397 209.838305 
L 146.824463 209.393737 
L 147.459174 209.250622 
L 149.04595 208.486874 
L 149.998017 208.1347 
L 151.267438 207.504629 
L 151.902149 207.316326 
L 153.806281 206.371694 
L 155.710413 205.738108 
L 156.979835 205.375944 
L 157.29719 205.283021 
L 157.614545 205.060431 
L 158.249256 204.89431 
L 162.057521 203.274466 
L 162.374876 203.206138 
L 163.009587 202.887647 
L 163.644298 202.711221 
L 165.231074 202.177577 
L 166.18314 201.684001 
L 166.500496 201.624127 
L 167.135207 201.321001 
L 168.087273 200.920293 
L 168.721983 200.692383 
L 169.039339 200.591308 
L 169.356694 200.351205 
L 170.30876 200.0669 
L 172.212893 199.3484 
L 174.751736 198.363626 
L 175.386446 198.067013 
L 176.021157 197.875375 
L 176.655868 197.653222 
L 177.607934 197.361066 
L 179.194711 196.734375 
L 179.829421 196.423011 
L 181.098843 195.969216 
L 181.733554 195.674937 
L 182.368264 195.528965 
L 183.320331 195.168555 
L 183.637686 195.068394 
L 183.955041 194.784185 
L 187.763306 193.4318 
L 189.032727 192.949296 
L 190.93686 192.296598 
L 191.57157 191.938604 
L 192.523636 191.713564 
L 192.840992 191.511826 
L 193.158347 191.443267 
L 193.793058 191.168282 
L 194.110413 191.12717 
L 195.379835 190.609553 
L 195.69719 190.555102 
L 196.331901 190.194249 
L 196.966612 190.110302 
L 200.457521 188.779068 
L 201.092231 188.63718 
L 201.409587 188.448416 
L 202.679008 188.125029 
L 207.439339 186.587209 
L 207.756694 186.480911 
L 208.07405 186.233644 
L 209.026116 185.975974 
L 209.978182 185.660029 
L 210.612893 185.465867 
L 211.564959 185.166001 
L 212.83438 184.678753 
L 214.103802 184.24877 
L 215.373223 183.934132 
L 217.912066 183.007375 
L 219.181488 182.738502 
L 220.768264 182.097091 
L 225.21124 180.686826 
L 226.480661 180.341762 
L 227.115372 180.080039 
L 227.432727 180.021335 
L 228.067438 179.658764 
L 228.702149 179.534661 
L 229.33686 179.263966 
L 230.923636 178.654857 
L 231.875702 178.340205 
L 232.827769 178.00002 
L 234.414545 177.470402 
L 235.366612 177.252795 
L 237.270744 176.624837 
L 239.174876 175.842569 
L 240.126942 175.611953 
L 242.031074 174.90548 
L 243.300496 174.533762 
L 243.935207 174.218094 
L 244.569917 174.092328 
L 245.204628 173.787795 
L 245.839339 173.630342 
L 246.47405 173.314726 
L 246.791405 173.276374 
L 248.060826 172.759171 
L 249.647603 172.339272 
L 250.282314 172.061222 
L 251.23438 171.711992 
L 254.090579 170.756838 
L 254.407934 170.486716 
L 255.36 170.192123 
L 255.994711 169.934501 
L 257.264132 169.598481 
L 258.216198 169.339852 
L 258.533554 169.127348 
L 259.48562 168.914276 
L 259.802975 168.675474 
L 262.024463 168.009851 
L 262.659174 167.716822 
L 262.976529 167.684664 
L 263.61124 167.4396 
L 264.880661 167.132385 
L 265.198017 166.9157 
L 266.150083 166.715445 
L 266.784793 166.464274 
L 269.958347 165.469537 
L 270.593058 165.259525 
L 270.910413 165.226749 
L 271.862479 164.778421 
L 272.179835 164.74548 
L 273.449256 164.238954 
L 274.401322 164.013941 
L 275.353388 163.578609 
L 276.940165 163.121302 
L 277.257521 162.91071 
L 277.892231 162.816247 
L 278.209587 162.632173 
L 278.526942 162.587604 
L 279.161653 162.27478 
L 281.38314 161.296479 
L 281.700496 161.25787 
L 282.017851 161.028717 
L 282.652562 160.78391 
L 285.191405 159.975396 
L 285.50876 159.710781 
L 286.778182 159.326676 
L 291.221157 157.626679 
L 295.029421 155.991673 
L 297.568264 155.125641 
L 299.472397 154.360562 
L 299.789752 154.299421 
L 300.424463 153.971339 
L 302.01124 153.455124 
L 302.64595 153.236752 
L 303.280661 152.98849 
L 303.915372 152.831437 
L 304.550083 152.557924 
L 305.184793 152.413638 
L 306.77157 151.781907 
L 311.531901 149.775754 
L 311.849256 149.739724 
L 313.118678 149.186394 
L 314.388099 148.811017 
L 315.340165 148.412787 
L 315.974876 148.21736 
L 317.244298 147.701462 
L 317.879008 147.494165 
L 318.196364 147.304533 
L 318.513719 147.252058 
L 320.100496 146.448182 
L 320.735207 146.242535 
L 321.687273 145.82487 
L 322.004628 145.733756 
L 322.321983 145.522968 
L 322.639339 145.473142 
L 323.591405 144.991978 
L 324.226116 144.753932 
L 324.543471 144.551788 
L 325.178182 144.375694 
L 325.812893 144.052808 
L 327.082314 143.529339 
L 329.621157 142.146273 
L 330.255868 141.90861 
L 330.890579 141.60794 
L 331.525289 141.316532 
L 332.16 140.998806 
L 332.794711 140.800697 
L 333.746777 140.283132 
L 335.650909 139.318153 
L 335.968264 139.277479 
L 336.920331 138.866722 
L 337.555041 138.657026 
L 338.507107 138.027559 
L 339.459174 137.481231 
L 340.728595 136.881583 
L 342.315372 135.926752 
L 342.950083 135.659843 
L 343.902149 135.37585 
L 344.53686 134.926366 
L 345.488926 134.337301 
L 345.806281 134.095085 
L 346.440992 133.902747 
L 348.027769 133.190527 
L 348.345124 133.115064 
L 348.662479 132.915058 
L 348.979835 132.846745 
L 353.740165 129.983799 
L 356.596364 128.650381 
L 358.18314 127.352996 
L 358.500496 127.22508 
L 358.817851 126.86356 
L 359.135207 126.771958 
L 361.356694 125.129336 
L 361.67405 124.877698 
L 361.991405 124.80932 
L 363.260826 123.746157 
L 363.578182 123.650721 
L 363.895537 123.297558 
L 364.847603 122.909964 
L 365.164959 122.454888 
L 366.751736 121.347002 
L 367.069091 121.248604 
L 368.655868 119.835126 
L 368.973223 119.327868 
L 369.290579 119.279411 
L 370.56 118.537979 
L 370.877355 118.357124 
L 371.194711 117.845881 
L 371.512066 117.763633 
L 372.146777 117.250114 
L 372.781488 116.779799 
L 374.68562 114.936156 
L 375.320331 114.521845 
L 375.637686 114.209627 
L 375.955041 114.090047 
L 376.272397 113.842728 
L 376.589752 113.375857 
L 378.176529 112.150542 
L 378.493884 111.715029 
L 378.81124 111.586053 
L 379.44595 110.902702 
L 380.080661 110.600184 
L 380.398017 110.256194 
L 380.715372 109.609894 
L 381.032727 109.46331 
L 381.350083 108.938998 
L 381.667438 107.846651 
L 382.93686 106.480286 
L 383.57157 105.681781 
L 384.206281 105.026227 
L 384.523636 104.985031 
L 384.840992 104.707273 
L 385.158347 103.83623 
L 385.793058 103.154031 
L 386.110413 102.182732 
L 386.427769 101.658009 
L 387.062479 101.127489 
L 387.69719 100.245247 
L 388.966612 99.002334 
L 389.283967 98.246397 
L 389.601322 96.817538 
L 389.918678 96.606727 
L 390.236033 96.234406 
L 390.553388 94.655313 
L 390.870744 94.481576 
L 391.505455 93.604126 
L 391.82281 92.958401 
L 392.140165 90.904026 
L 392.774876 89.316642 
L 393.092231 89.054421 
L 393.726942 87.672692 
L 394.044298 86.688328 
L 394.679008 85.462209 
L 395.313719 82.76331 
L 395.631074 81.871312 
L 395.94843 80.054629 
L 396.58314 78.074527 
L 398.169917 65.466044 
L 398.487273 53.568 
L 398.487273 53.568 
" clip-path="url(#p366b70f347)" style="fill: none; stroke: #1f77b4; stroke-width: 1.5; stroke-linecap: square"/>
   </g>
   <g id="line2d_17">
    <path d="M 73.832727 242.498644 
L 74.150083 234.111867 
L 74.467438 234.111867 
L 74.784793 226.942882 
L 75.102149 225.453782 
L 75.73686 225.453782 
L 76.054215 222.771437 
L 76.37157 218.243266 
L 76.688926 217.96545 
L 77.006281 217.96545 
L 77.323636 217.264794 
L 78.910413 217.264794 
L 79.227769 214.710187 
L 79.545124 214.710187 
L 79.862479 213.785428 
L 80.179835 213.214098 
L 80.49719 213.214098 
L 80.814545 210.389256 
L 81.131901 209.05958 
L 82.083967 209.036717 
L 82.401322 208.249756 
L 86.844298 208.205075 
L 87.161653 207.774176 
L 87.479008 205.727218 
L 87.796364 205.27471 
L 88.113719 204.566076 
L 89.700496 204.566076 
L 90.017851 203.660651 
L 90.652562 203.660651 
L 90.969917 202.608864 
L 91.287273 202.608864 
L 91.604628 202.060966 
L 91.921983 200.651687 
L 99.221157 200.651687 
L 99.538512 199.811946 
L 99.855868 199.811946 
L 100.173223 199.613311 
L 101.76 199.613311 
L 102.077355 198.742896 
L 103.664132 198.742896 
L 103.981488 198.546563 
L 104.298843 198.207176 
L 104.933554 198.207176 
L 105.250909 197.013519 
L 106.202975 196.953361 
L 106.520331 194.259474 
L 107.155041 193.993299 
L 107.472397 193.993299 
L 107.789752 193.372975 
L 109.376529 193.372975 
L 109.693884 192.011567 
L 110.01124 192.011567 
L 110.328595 190.507638 
L 129.369917 190.507576 
L 129.687273 189.652945 
L 130.321983 188.849156 
L 131.27405 188.79791 
L 131.591405 188.098782 
L 131.90876 188.098782 
L 132.226116 187.939055 
L 132.860826 187.939055 
L 133.178182 186.593187 
L 133.495537 186.593187 
L 133.812893 186.311364 
L 135.399669 186.311364 
L 135.717025 185.163634 
L 136.669091 184.684396 
L 163.009587 184.684396 
L 163.326942 183.493199 
L 167.135207 183.493199 
L 167.452562 183.275502 
L 167.769917 183.275502 
L 168.087273 181.801242 
L 168.404628 181.801242 
L 168.721983 181.407734 
L 169.356694 181.407734 
L 169.67405 181.153797 
L 169.991405 180.545574 
L 171.578182 180.545574 
L 172.847603 179.934799 
L 180.146777 179.934799 
L 180.464132 179.621644 
L 180.781488 179.621644 
L 181.098843 179.314475 
L 182.68562 179.314475 
L 183.320331 176.449076 
L 185.541818 176.423587 
L 185.859174 176.257108 
L 186.493884 176.257108 
L 186.81124 176.005644 
L 187.128595 175.375493 
L 187.44595 175.375493 
L 187.763306 174.948699 
L 188.080661 174.948699 
L 188.398017 173.166944 
L 188.715372 170.625896 
L 283.604628 170.625896 
L 284.239339 166.303094 
L 284.556694 166.303094 
L 284.87405 165.8763 
L 285.191405 165.8763 
L 285.50876 165.246149 
L 285.826116 164.994685 
L 286.460826 164.994685 
L 286.778182 164.828206 
L 288.999669 164.802717 
L 289.63438 161.937318 
L 291.221157 161.937318 
L 291.538512 161.630149 
L 291.855868 161.630149 
L 292.173223 161.316994 
L 299.472397 161.316994 
L 299.789752 161.135059 
L 300.107107 161.135059 
L 300.741818 160.706219 
L 302.328595 160.706219 
L 302.64595 160.097995 
L 302.963306 159.844058 
L 303.598017 159.844058 
L 303.915372 159.450551 
L 304.232727 159.450551 
L 304.550083 157.976291 
L 304.867438 157.976291 
L 305.184793 157.758593 
L 308.993058 157.758593 
L 309.310413 156.567397 
L 335.968264 156.502061 
L 336.602975 156.088159 
L 336.920331 154.940429 
L 338.507107 154.940429 
L 338.824463 154.658605 
L 339.141818 154.658605 
L 339.459174 153.312737 
L 340.093884 153.312737 
L 340.41124 153.15301 
L 340.728595 153.15301 
L 341.04595 152.453883 
L 341.998017 152.402636 
L 342.315372 152.091532 
L 342.632727 151.598848 
L 342.950083 150.744217 
L 361.991405 150.744155 
L 362.30876 149.240226 
L 362.626116 149.240226 
L 362.943471 147.878818 
L 364.530248 147.878818 
L 364.847603 147.258494 
L 365.482314 147.151522 
L 365.799669 146.992319 
L 366.117025 144.298431 
L 367.069091 144.238274 
L 367.386446 143.044617 
L 368.021157 143.044617 
L 368.655868 142.508897 
L 370.242645 142.508897 
L 370.56 141.638482 
L 372.146777 141.638482 
L 372.464132 141.439847 
L 372.781488 141.439847 
L 373.098843 140.600106 
L 380.398017 140.600106 
L 380.715372 139.190827 
L 381.032727 138.642929 
L 381.350083 138.642929 
L 381.667438 137.591142 
L 382.302149 137.591142 
L 382.619504 136.685717 
L 384.206281 136.685717 
L 384.840992 135.524575 
L 385.158347 133.477617 
L 385.475702 133.046718 
L 389.918678 133.002037 
L 390.236033 132.215076 
L 391.188099 132.192213 
L 391.505455 130.862537 
L 391.82281 128.037695 
L 392.140165 128.037695 
L 392.457521 127.466365 
L 392.774876 126.541606 
L 393.092231 126.541606 
L 393.409587 123.986999 
L 394.996364 123.986999 
L 395.313719 123.286343 
L 395.631074 123.286343 
L 395.94843 123.008526 
L 396.265785 118.480356 
L 396.58314 115.798011 
L 397.217851 115.798011 
L 397.535207 114.308911 
L 397.852562 107.139925 
L 398.169917 107.139925 
L 398.487273 98.753149 
L 398.487273 98.753149 
" clip-path="url(#p366b70f347)" style="fill: none; stroke: #ff7f0e; stroke-width: 1.5; stroke-linecap: square"/>
   </g>
   <g id="patch_3">
    <path d="M 57.6 307.584 
L 57.6 41.472 
" style="fill: none; stroke: #000000; stroke-width: 0.8; stroke-linejoin: miter; stroke-linecap: square"/>
   </g>
   <g id="patch_4">
    <path d="M 414.72 307.584 
L 414.72 41.472 
" style="fill: none; stroke: #000000; stroke-width: 0.8; stroke-linejoin: miter; stroke-linecap: square"/>
   </g>
   <g id="patch_5">
    <path d="M 57.6 307.584 
L 414.72 307.584 
" style="fill: none; stroke: #000000; stroke-width: 0.8; stroke-linejoin: miter; stroke-linecap: square"/>
   </g>
   <g id="patch_6">
    <path d="M 57.6 41.472 
L 414.72 41.472 
" style="fill: none; stroke: #000000; stroke-width: 0.8; stroke-linejoin: miter; stroke-linecap: square"/>
   </g>
   <g id="legend_1">
    <g id="patch_7">
     <path d="M 64.6 78.82825 
L 129.342187 78.82825 
Q 131.342187 78.82825 131.342187 76.82825 
L 131.342187 48.472 
Q 131.342187 46.472 129.342187 46.472 
L 64.6 46.472 
Q 62.6 46.472 62.6 48.472 
L 62.6 76.82825 
Q 62.6 78.82825 64.6 78.82825 
z
" style="fill: #ffffff; opacity: 0.8; stroke: #cccccc; stroke-linejoin: miter"/>
    </g>
    <g id="line2d_18">
     <path d="M 66.6 54.570437 
L 76.6 54.570437 
L 86.6 54.570437 
" style="fill: none; stroke: #1f77b4; stroke-width: 1.5; stroke-linecap: square"/>
    </g>
    <g id="text_18">
     <!-- qc -->
     <g transform="translate(94.6 58.070437) scale(0.1 -0.1)">
      <defs>
       <path id="DejaVuSans-71" d="M 947 1747 
Q 947 1113 1208 752 
Q 1469 391 1925 391 
Q 2381 391 2643 752 
Q 2906 1113 2906 1747 
Q 2906 2381 2643 2742 
Q 2381 3103 1925 3103 
Q 1469 3103 1208 2742 
Q 947 2381 947 1747 
z
M 2906 525 
Q 2725 213 2448 61 
Q 2172 -91 1784 -91 
Q 1150 -91 751 415 
Q 353 922 353 1747 
Q 353 2572 751 3078 
Q 1150 3584 1784 3584 
Q 2172 3584 2448 3432 
Q 2725 3281 2906 2969 
L 2906 3500 
L 3481 3500 
L 3481 -1331 
L 2906 -1331 
L 2906 525 
z
" transform="scale(0.015625)"/>
       <path id="DejaVuSans-63" d="M 3122 3366 
L 3122 2828 
Q 2878 2963 2633 3030 
Q 2388 3097 2138 3097 
Q 1578 3097 1268 2742 
Q 959 2388 959 1747 
Q 959 1106 1268 751 
Q 1578 397 2138 397 
Q 2388 397 2633 464 
Q 2878 531 3122 666 
L 3122 134 
Q 2881 22 2623 -34 
Q 2366 -91 2075 -91 
Q 1284 -91 818 406 
Q 353 903 353 1747 
Q 353 2603 823 3093 
Q 1294 3584 2113 3584 
Q 2378 3584 2631 3529 
Q 2884 3475 3122 3366 
z
" transform="scale(0.015625)"/>
      </defs>
      <use xlink:href="#DejaVuSans-71"/>
      <use xlink:href="#DejaVuSans-63" x="63.476562"/>
     </g>
    </g>
    <g id="line2d_19">
     <path d="M 66.6 69.248562 
L 76.6 69.248562 
L 86.6 69.248562 
" style="fill: none; stroke: #ff7f0e; stroke-width: 1.5; stroke-linecap: square"/>
    </g>
    <g id="text_19">
     <!-- Trotter -->
     <g transform="translate(94.6 72.748562) scale(0.1 -0.1)">
      <defs>
       <path id="DejaVuSans-54" d="M -19 4666 
L 3928 4666 
L 3928 4134 
L 2272 4134 
L 2272 0 
L 1638 0 
L 1638 4134 
L -19 4134 
L -19 4666 
z
" transform="scale(0.015625)"/>
       <path id="DejaVuSans-72" d="M 2631 2963 
Q 2534 3019 2420 3045 
Q 2306 3072 2169 3072 
Q 1681 3072 1420 2755 
Q 1159 2438 1159 1844 
L 1159 0 
L 581 0 
L 581 3500 
L 1159 3500 
L 1159 2956 
Q 1341 3275 1631 3429 
Q 1922 3584 2338 3584 
Q 2397 3584 2469 3576 
Q 2541 3569 2628 3553 
L 2631 2963 
z
" transform="scale(0.015625)"/>
       <path id="DejaVuSans-6f" d="M 1959 3097 
Q 1497 3097 1228 2736 
Q 959 2375 959 1747 
Q 959 1119 1226 758 
Q 1494 397 1959 397 
Q 2419 397 2687 759 
Q 2956 1122 2956 1747 
Q 2956 2369 2687 2733 
Q 2419 3097 1959 3097 
z
M 1959 3584 
Q 2709 3584 3137 3096 
Q 3566 2609 3566 1747 
Q 3566 888 3137 398 
Q 2709 -91 1959 -91 
Q 1206 -91 779 398 
Q 353 888 353 1747 
Q 353 2609 779 3096 
Q 1206 3584 1959 3584 
z
" transform="scale(0.015625)"/>
       <path id="DejaVuSans-65" d="M 3597 1894 
L 3597 1613 
L 953 1613 
Q 991 1019 1311 708 
Q 1631 397 2203 397 
Q 2534 397 2845 478 
Q 3156 559 3463 722 
L 3463 178 
Q 3153 47 2828 -22 
Q 2503 -91 2169 -91 
Q 1331 -91 842 396 
Q 353 884 353 1716 
Q 353 2575 817 3079 
Q 1281 3584 2069 3584 
Q 2775 3584 3186 3129 
Q 3597 2675 3597 1894 
z
M 3022 2063 
Q 3016 2534 2758 2815 
Q 2500 3097 2075 3097 
Q 1594 3097 1305 2825 
Q 1016 2553 972 2059 
L 3022 2063 
z
" transform="scale(0.015625)"/>
      </defs>
      <use xlink:href="#DejaVuSans-54"/>
      <use xlink:href="#DejaVuSans-72" x="46.333984"/>
      <use xlink:href="#DejaVuSans-6f" x="85.197266"/>
      <use xlink:href="#DejaVuSans-74" x="146.378906"/>
      <use xlink:href="#DejaVuSans-74" x="185.587891"/>
      <use xlink:href="#DejaVuSans-65" x="224.796875"/>
      <use xlink:href="#DejaVuSans-72" x="286.320312"/>
     </g>
    </g>
   </g>
  </g>
 </g>
 <defs>
  <clipPath id="p366b70f347">
   <rect x="57.6" y="41.472" width="357.12" height="266.112"/>
  </clipPath>
 </defs>
</svg>
