<?xml version="1.0" encoding="utf-8" standalone="no"?>
<!DOCTYPE svg PUBLIC "-//W3C//DTD SVG 1.1//EN"
  "http://www.w3.org/Graphics/SVG/1.1/DTD/svg11.dtd">
<svg xmlns:xlink="http://www.w3.org/1999/xlink" width="460.8pt" height="345.6pt" viewBox="0 0 460.8 345.6" xmlns="http://www.w3.org/2000/svg" version="1.1">
 <metadata>
  <rdf:RDF xmlns:dc="http://purl.org/dc/elements/1.1/" xmlns:cc="http://creativecommons.org/ns#" xmlns:rdf="http://www.w3.org/1999/02/22-rdf-syntax-ns#">
   <cc:Work>
    <dc:type rdf:resource="http://purl.org/dc/dcmitype/StillImage"/>
    <dc:date>2024-08-25T10:19:54.332733</dc:date>
    <dc:format>image/svg+xml</dc:format>
    <dc:creator>
     <cc:Agent>
      <dc:title>Matplotlib v3.7.1, https://matplotlib.org/</dc:title>
     </cc:Agent>
    </dc:creator>
   </cc:Work>
  </rdf:RDF>
 </metadata>
 <defs>
  <style type="text/css">*{stroke-linejoin: round; stroke-linecap: butt}</style>
 </defs>
 <g id="figure_1">
  <g id="patch_1">
   <path d="M 0 345.6 
L 460.8 345.6 
L 460.8 0 
L 0 0 
z
" style="fill: #ffffff"/>
  </g>
  <g id="axes_1">
   <g id="patch_2">
    <path d="M 57.6 307.584 
L 414.72 307.584 
L 414.72 41.472 
L 57.6 41.472 
z
" style="fill: #ffffff"/>
   </g>
   <g id="matplotlib.axis_1">
    <g id="xtick_1">
     <g id="line2d_1">
      <defs>
       <path id="mee5c32d0cc" d="M 0 0 
L 0 3.5 
" style="stroke: #000000; stroke-width: 0.8"/>
      </defs>
      <g>
       <use xlink:href="#mee5c32d0cc" x="73.832727" y="307.584" style="stroke: #000000; stroke-width: 0.8"/>
      </g>
     </g>
     <g id="text_1">
      <!-- 0 -->
      <g transform="translate(70.651477 322.182437) scale(0.1 -0.1)">
       <defs>
        <path id="DejaVuSans-30" d="M 2034 4250 
Q 1547 4250 1301 3770 
Q 1056 3291 1056 2328 
Q 1056 1369 1301 889 
Q 1547 409 2034 409 
Q 2525 409 2770 889 
Q 3016 1369 3016 2328 
Q 3016 3291 2770 3770 
Q 2525 4250 2034 4250 
z
M 2034 4750 
Q 2819 4750 3233 4129 
Q 3647 3509 3647 2328 
Q 3647 1150 3233 529 
Q 2819 -91 2034 -91 
Q 1250 -91 836 529 
Q 422 1150 422 2328 
Q 422 3509 836 4129 
Q 1250 4750 2034 4750 
z
" transform="scale(0.015625)"/>
       </defs>
       <use xlink:href="#DejaVuSans-30"/>
      </g>
     </g>
    </g>
    <g id="xtick_2">
     <g id="line2d_2">
      <g>
       <use xlink:href="#mee5c32d0cc" x="137.303802" y="307.584" style="stroke: #000000; stroke-width: 0.8"/>
      </g>
     </g>
     <g id="text_2">
      <!-- 200 -->
      <g transform="translate(127.760052 322.182437) scale(0.1 -0.1)">
       <defs>
        <path id="DejaVuSans-32" d="M 1228 531 
L 3431 531 
L 3431 0 
L 469 0 
L 469 531 
Q 828 903 1448 1529 
Q 2069 2156 2228 2338 
Q 2531 2678 2651 2914 
Q 2772 3150 2772 3378 
Q 2772 3750 2511 3984 
Q 2250 4219 1831 4219 
Q 1534 4219 1204 4116 
Q 875 4013 500 3803 
L 500 4441 
Q 881 4594 1212 4672 
Q 1544 4750 1819 4750 
Q 2544 4750 2975 4387 
Q 3406 4025 3406 3419 
Q 3406 3131 3298 2873 
Q 3191 2616 2906 2266 
Q 2828 2175 2409 1742 
Q 1991 1309 1228 531 
z
" transform="scale(0.015625)"/>
       </defs>
       <use xlink:href="#DejaVuSans-32"/>
       <use xlink:href="#DejaVuSans-30" x="63.623047"/>
       <use xlink:href="#DejaVuSans-30" x="127.246094"/>
      </g>
     </g>
    </g>
    <g id="xtick_3">
     <g id="line2d_3">
      <g>
       <use xlink:href="#mee5c32d0cc" x="200.774876" y="307.584" style="stroke: #000000; stroke-width: 0.8"/>
      </g>
     </g>
     <g id="text_3">
      <!-- 400 -->
      <g transform="translate(191.231126 322.182437) scale(0.1 -0.1)">
       <defs>
        <path id="DejaVuSans-34" d="M 2419 4116 
L 825 1625 
L 2419 1625 
L 2419 4116 
z
M 2253 4666 
L 3047 4666 
L 3047 1625 
L 3713 1625 
L 3713 1100 
L 3047 1100 
L 3047 0 
L 2419 0 
L 2419 1100 
L 313 1100 
L 313 1709 
L 2253 4666 
z
" transform="scale(0.015625)"/>
       </defs>
       <use xlink:href="#DejaVuSans-34"/>
       <use xlink:href="#DejaVuSans-30" x="63.623047"/>
       <use xlink:href="#DejaVuSans-30" x="127.246094"/>
      </g>
     </g>
    </g>
    <g id="xtick_4">
     <g id="line2d_4">
      <g>
       <use xlink:href="#mee5c32d0cc" x="264.24595" y="307.584" style="stroke: #000000; stroke-width: 0.8"/>
      </g>
     </g>
     <g id="text_4">
      <!-- 600 -->
      <g transform="translate(254.7022 322.182437) scale(0.1 -0.1)">
       <defs>
        <path id="DejaVuSans-36" d="M 2113 2584 
Q 1688 2584 1439 2293 
Q 1191 2003 1191 1497 
Q 1191 994 1439 701 
Q 1688 409 2113 409 
Q 2538 409 2786 701 
Q 3034 994 3034 1497 
Q 3034 2003 2786 2293 
Q 2538 2584 2113 2584 
z
M 3366 4563 
L 3366 3988 
Q 3128 4100 2886 4159 
Q 2644 4219 2406 4219 
Q 1781 4219 1451 3797 
Q 1122 3375 1075 2522 
Q 1259 2794 1537 2939 
Q 1816 3084 2150 3084 
Q 2853 3084 3261 2657 
Q 3669 2231 3669 1497 
Q 3669 778 3244 343 
Q 2819 -91 2113 -91 
Q 1303 -91 875 529 
Q 447 1150 447 2328 
Q 447 3434 972 4092 
Q 1497 4750 2381 4750 
Q 2619 4750 2861 4703 
Q 3103 4656 3366 4563 
z
" transform="scale(0.015625)"/>
       </defs>
       <use xlink:href="#DejaVuSans-36"/>
       <use xlink:href="#DejaVuSans-30" x="63.623047"/>
       <use xlink:href="#DejaVuSans-30" x="127.246094"/>
      </g>
     </g>
    </g>
    <g id="xtick_5">
     <g id="line2d_5">
      <g>
       <use xlink:href="#mee5c32d0cc" x="327.717025" y="307.584" style="stroke: #000000; stroke-width: 0.8"/>
      </g>
     </g>
     <g id="text_5">
      <!-- 800 -->
      <g transform="translate(318.173275 322.182437) scale(0.1 -0.1)">
       <defs>
        <path id="DejaVuSans-38" d="M 2034 2216 
Q 1584 2216 1326 1975 
Q 1069 1734 1069 1313 
Q 1069 891 1326 650 
Q 1584 409 2034 409 
Q 2484 409 2743 651 
Q 3003 894 3003 1313 
Q 3003 1734 2745 1975 
Q 2488 2216 2034 2216 
z
M 1403 2484 
Q 997 2584 770 2862 
Q 544 3141 544 3541 
Q 544 4100 942 4425 
Q 1341 4750 2034 4750 
Q 2731 4750 3128 4425 
Q 3525 4100 3525 3541 
Q 3525 3141 3298 2862 
Q 3072 2584 2669 2484 
Q 3125 2378 3379 2068 
Q 3634 1759 3634 1313 
Q 3634 634 3220 271 
Q 2806 -91 2034 -91 
Q 1263 -91 848 271 
Q 434 634 434 1313 
Q 434 1759 690 2068 
Q 947 2378 1403 2484 
z
M 1172 3481 
Q 1172 3119 1398 2916 
Q 1625 2713 2034 2713 
Q 2441 2713 2670 2916 
Q 2900 3119 2900 3481 
Q 2900 3844 2670 4047 
Q 2441 4250 2034 4250 
Q 1625 4250 1398 4047 
Q 1172 3844 1172 3481 
z
" transform="scale(0.015625)"/>
       </defs>
       <use xlink:href="#DejaVuSans-38"/>
       <use xlink:href="#DejaVuSans-30" x="63.623047"/>
       <use xlink:href="#DejaVuSans-30" x="127.246094"/>
      </g>
     </g>
    </g>
    <g id="xtick_6">
     <g id="line2d_6">
      <g>
       <use xlink:href="#mee5c32d0cc" x="391.188099" y="307.584" style="stroke: #000000; stroke-width: 0.8"/>
      </g>
     </g>
     <g id="text_6">
      <!-- 1000 -->
      <g transform="translate(378.463099 322.182437) scale(0.1 -0.1)">
       <defs>
        <path id="DejaVuSans-31" d="M 794 531 
L 1825 531 
L 1825 4091 
L 703 3866 
L 703 4441 
L 1819 4666 
L 2450 4666 
L 2450 531 
L 3481 531 
L 3481 0 
L 794 0 
L 794 531 
z
" transform="scale(0.015625)"/>
       </defs>
       <use xlink:href="#DejaVuSans-31"/>
       <use xlink:href="#DejaVuSans-30" x="63.623047"/>
       <use xlink:href="#DejaVuSans-30" x="127.246094"/>
       <use xlink:href="#DejaVuSans-30" x="190.869141"/>
      </g>
     </g>
    </g>
    <g id="text_7">
     <!-- n -->
     <g transform="translate(232.99125 335.860562) scale(0.1 -0.1)">
      <defs>
       <path id="DejaVuSans-6e" d="M 3513 2113 
L 3513 0 
L 2938 0 
L 2938 2094 
Q 2938 2591 2744 2837 
Q 2550 3084 2163 3084 
Q 1697 3084 1428 2787 
Q 1159 2491 1159 1978 
L 1159 0 
L 581 0 
L 581 3500 
L 1159 3500 
L 1159 2956 
Q 1366 3272 1645 3428 
Q 1925 3584 2291 3584 
Q 2894 3584 3203 3211 
Q 3513 2838 3513 2113 
z
" transform="scale(0.015625)"/>
      </defs>
      <use xlink:href="#DejaVuSans-6e"/>
     </g>
    </g>
   </g>
   <g id="matplotlib.axis_2">
    <g id="ytick_1">
     <g id="line2d_7">
      <defs>
       <path id="m2f24c56893" d="M 0 0 
L -3.5 0 
" style="stroke: #000000; stroke-width: 0.8"/>
      </defs>
      <g>
       <use xlink:href="#m2f24c56893" x="57.6" y="299.028597" style="stroke: #000000; stroke-width: 0.8"/>
      </g>
     </g>
     <g id="text_8">
      <!-- −6 -->
      <g transform="translate(35.857813 302.827815) scale(0.1 -0.1)">
       <defs>
        <path id="DejaVuSans-2212" d="M 678 2272 
L 4684 2272 
L 4684 1741 
L 678 1741 
L 678 2272 
z
" transform="scale(0.015625)"/>
       </defs>
       <use xlink:href="#DejaVuSans-2212"/>
       <use xlink:href="#DejaVuSans-36" x="83.789062"/>
      </g>
     </g>
    </g>
    <g id="ytick_2">
     <g id="line2d_8">
      <g>
       <use xlink:href="#m2f24c56893" x="57.6" y="264.560543" style="stroke: #000000; stroke-width: 0.8"/>
      </g>
     </g>
     <g id="text_9">
      <!-- −4 -->
      <g transform="translate(35.857813 268.359762) scale(0.1 -0.1)">
       <use xlink:href="#DejaVuSans-2212"/>
       <use xlink:href="#DejaVuSans-34" x="83.789062"/>
      </g>
     </g>
    </g>
    <g id="ytick_3">
     <g id="line2d_9">
      <g>
       <use xlink:href="#m2f24c56893" x="57.6" y="230.09249" style="stroke: #000000; stroke-width: 0.8"/>
      </g>
     </g>
     <g id="text_10">
      <!-- −2 -->
      <g transform="translate(35.857813 233.891709) scale(0.1 -0.1)">
       <use xlink:href="#DejaVuSans-2212"/>
       <use xlink:href="#DejaVuSans-32" x="83.789062"/>
      </g>
     </g>
    </g>
    <g id="ytick_4">
     <g id="line2d_10">
      <g>
       <use xlink:href="#m2f24c56893" x="57.6" y="195.624436" style="stroke: #000000; stroke-width: 0.8"/>
      </g>
     </g>
     <g id="text_11">
      <!-- 0 -->
      <g transform="translate(44.2375 199.423655) scale(0.1 -0.1)">
       <use xlink:href="#DejaVuSans-30"/>
      </g>
     </g>
    </g>
    <g id="ytick_5">
     <g id="line2d_11">
      <g>
       <use xlink:href="#m2f24c56893" x="57.6" y="161.156383" style="stroke: #000000; stroke-width: 0.8"/>
      </g>
     </g>
     <g id="text_12">
      <!-- 2 -->
      <g transform="translate(44.2375 164.955602) scale(0.1 -0.1)">
       <use xlink:href="#DejaVuSans-32"/>
      </g>
     </g>
    </g>
    <g id="ytick_6">
     <g id="line2d_12">
      <g>
       <use xlink:href="#m2f24c56893" x="57.6" y="126.68833" style="stroke: #000000; stroke-width: 0.8"/>
      </g>
     </g>
     <g id="text_13">
      <!-- 4 -->
      <g transform="translate(44.2375 130.487548) scale(0.1 -0.1)">
       <use xlink:href="#DejaVuSans-34"/>
      </g>
     </g>
    </g>
    <g id="ytick_7">
     <g id="line2d_13">
      <g>
       <use xlink:href="#m2f24c56893" x="57.6" y="92.220276" style="stroke: #000000; stroke-width: 0.8"/>
      </g>
     </g>
     <g id="text_14">
      <!-- 6 -->
      <g transform="translate(44.2375 96.019495) scale(0.1 -0.1)">
       <use xlink:href="#DejaVuSans-36"/>
      </g>
     </g>
    </g>
    <g id="ytick_8">
     <g id="line2d_14">
      <g>
       <use xlink:href="#m2f24c56893" x="57.6" y="57.752223" style="stroke: #000000; stroke-width: 0.8"/>
      </g>
     </g>
     <g id="text_15">
      <!-- 8 -->
      <g transform="translate(44.2375 61.551442) scale(0.1 -0.1)">
       <use xlink:href="#DejaVuSans-38"/>
      </g>
     </g>
    </g>
    <g id="text_16">
     <!-- E*t -->
     <g transform="translate(29.778125 182.147531) rotate(-90) scale(0.1 -0.1)">
      <defs>
       <path id="DejaVuSans-45" d="M 628 4666 
L 3578 4666 
L 3578 4134 
L 1259 4134 
L 1259 2753 
L 3481 2753 
L 3481 2222 
L 1259 2222 
L 1259 531 
L 3634 531 
L 3634 0 
L 628 0 
L 628 4666 
z
" transform="scale(0.015625)"/>
       <path id="DejaVuSans-2a" d="M 3009 3897 
L 1888 3291 
L 3009 2681 
L 2828 2375 
L 1778 3009 
L 1778 1831 
L 1422 1831 
L 1422 3009 
L 372 2375 
L 191 2681 
L 1313 3291 
L 191 3897 
L 372 4206 
L 1422 3572 
L 1422 4750 
L 1778 4750 
L 1778 3572 
L 2828 4206 
L 3009 3897 
z
" transform="scale(0.015625)"/>
       <path id="DejaVuSans-74" d="M 1172 4494 
L 1172 3500 
L 2356 3500 
L 2356 3053 
L 1172 3053 
L 1172 1153 
Q 1172 725 1289 603 
Q 1406 481 1766 481 
L 2356 481 
L 2356 0 
L 1766 0 
Q 1100 0 847 248 
Q 594 497 594 1153 
L 594 3053 
L 172 3053 
L 172 3500 
L 594 3500 
L 594 4494 
L 1172 4494 
z
" transform="scale(0.015625)"/>
      </defs>
      <use xlink:href="#DejaVuSans-45"/>
      <use xlink:href="#DejaVuSans-2a" x="63.183594"/>
      <use xlink:href="#DejaVuSans-74" x="113.183594"/>
     </g>
    </g>
   </g>
   <g id="line2d_15">
    <path d="M 73.832727 295.488 
L 74.150083 292.812858 
L 74.467438 287.099801 
L 74.784793 284.738204 
L 75.102149 284.51324 
L 76.054215 281.101393 
L 76.37157 278.02515 
L 76.688926 276.692779 
L 77.006281 276.21997 
L 77.323636 275.188929 
L 77.640992 275.010756 
L 77.958347 274.458876 
L 78.593058 272.93501 
L 78.910413 272.271679 
L 79.545124 270.256897 
L 79.862479 269.886186 
L 80.179835 268.980949 
L 80.49719 268.699378 
L 81.449256 266.692474 
L 81.766612 266.209251 
L 82.083967 266.121008 
L 82.401322 265.842496 
L 82.718678 265.155596 
L 83.036033 265.060674 
L 83.353388 264.310445 
L 83.988099 263.639309 
L 84.62281 262.186672 
L 84.940165 261.42806 
L 85.574876 260.973282 
L 86.209587 260.003152 
L 86.844298 259.103631 
L 87.161653 258.992133 
L 88.113719 257.915304 
L 88.74843 257.382143 
L 89.700496 256.339401 
L 90.335207 255.990476 
L 90.652562 255.342899 
L 90.969917 255.089494 
L 92.556694 253.011192 
L 92.87405 252.671631 
L 94.143471 251.919937 
L 95.412893 250.952785 
L 96.364959 250.362179 
L 96.999669 249.612114 
L 99.221157 247.485801 
L 99.855868 247.151144 
L 100.173223 246.650581 
L 100.490579 246.426849 
L 101.125289 246.181548 
L 101.76 245.932687 
L 102.394711 245.394484 
L 102.712066 245.257947 
L 103.029421 244.731169 
L 106.837686 242.355646 
L 107.155041 242.209169 
L 108.424463 241.061451 
L 109.059174 240.895061 
L 109.693884 240.529794 
L 110.01124 240.458149 
L 110.963306 239.945316 
L 112.232727 239.35057 
L 112.550083 239.023861 
L 112.867438 238.890703 
L 113.819504 238.061369 
L 115.406281 237.302858 
L 116.993058 236.431818 
L 117.310413 236.33589 
L 117.627769 236.069053 
L 117.945124 235.986122 
L 118.579835 235.398922 
L 118.89719 235.335712 
L 119.214545 234.96658 
L 119.531901 234.823387 
L 121.118678 233.523929 
L 121.753388 233.26516 
L 123.02281 232.67772 
L 123.974876 231.978421 
L 124.926942 231.60645 
L 128.100496 230.449538 
L 128.417851 230.262104 
L 128.735207 230.237798 
L 130.956694 229.016758 
L 131.90876 228.688553 
L 132.226116 228.393445 
L 132.860826 228.26392 
L 133.812893 227.846822 
L 134.130248 227.437197 
L 134.447603 227.348724 
L 135.717025 226.421816 
L 136.351736 226.261697 
L 136.986446 225.962417 
L 138.255868 225.440194 
L 139.842645 224.511869 
L 141.429421 223.991438 
L 141.746777 223.733554 
L 142.698843 223.279638 
L 143.333554 223.052404 
L 144.602975 222.652755 
L 145.872397 222.040072 
L 146.824463 221.672201 
L 147.141818 221.369542 
L 148.093884 221.06334 
L 150.950083 219.968462 
L 152.854215 219.281847 
L 153.17157 218.912864 
L 154.758347 218.379524 
L 155.075702 217.996818 
L 159.836033 216.019941 
L 160.788099 215.646736 
L 163.009587 214.709875 
L 163.644298 214.427723 
L 164.279008 214.214954 
L 164.913719 213.917934 
L 165.231074 213.872362 
L 166.18314 213.477559 
L 166.500496 213.395906 
L 166.817851 213.118838 
L 167.769917 212.901987 
L 168.721983 212.680821 
L 169.356694 212.372857 
L 171.260826 211.712891 
L 171.578182 211.693341 
L 172.212893 211.428982 
L 172.847603 211.207243 
L 173.799669 210.803181 
L 174.117025 210.756627 
L 174.43438 210.595066 
L 175.069091 210.472491 
L 175.703802 210.205367 
L 178.242645 209.426112 
L 178.56 209.368669 
L 178.877355 209.034695 
L 180.146777 208.561944 
L 180.464132 208.044175 
L 181.098843 207.729247 
L 182.050909 207.455533 
L 183.320331 206.752059 
L 184.272397 206.483691 
L 187.128595 205.554885 
L 187.44595 205.411611 
L 188.080661 204.926119 
L 189.667438 204.455478 
L 190.619504 204.212795 
L 192.206281 203.715243 
L 192.523636 203.491787 
L 193.158347 203.323834 
L 195.379835 202.479849 
L 197.918678 201.655747 
L 198.870744 201.448052 
L 201.409587 200.344518 
L 201.726942 199.855427 
L 202.679008 199.64487 
L 203.313719 199.328461 
L 204.900496 198.812349 
L 205.535207 198.593027 
L 209.660826 197.237278 
L 209.978182 196.929329 
L 210.612893 196.749866 
L 213.469091 196.054619 
L 214.738512 195.539815 
L 215.373223 195.367009 
L 216.325289 195.045738 
L 217.277355 194.788793 
L 217.912066 194.570645 
L 218.546777 194.277833 
L 219.181488 194.142791 
L 219.498843 193.923839 
L 219.816198 193.87376 
L 220.450909 193.543118 
L 222.037686 193.138006 
L 222.355041 192.922256 
L 222.672397 192.892388 
L 223.624463 192.568608 
L 224.576529 192.308323 
L 224.893884 192.039805 
L 227.115372 191.381208 
L 227.432727 191.350321 
L 228.067438 190.924863 
L 229.019504 190.524756 
L 230.288926 190.209504 
L 230.923636 189.826624 
L 231.875702 189.41013 
L 234.731901 188.154611 
L 235.366612 187.968736 
L 236.318678 187.594764 
L 236.636033 187.574465 
L 237.905455 187.055016 
L 239.174876 186.770801 
L 241.396364 185.96646 
L 243.300496 185.196341 
L 243.935207 184.986785 
L 245.204628 184.631636 
L 245.839339 184.452065 
L 247.10876 183.966328 
L 248.060826 183.637311 
L 249.647603 183.056052 
L 251.23438 182.519629 
L 251.869091 182.272733 
L 252.503802 182.131701 
L 253.138512 181.907421 
L 256.946777 180.760052 
L 257.898843 180.020752 
L 261.389752 178.872065 
L 261.707107 178.679487 
L 262.341818 178.547536 
L 263.61124 178.115247 
L 264.24595 177.999603 
L 264.563306 177.709315 
L 265.515372 177.391401 
L 265.832727 177.153213 
L 266.150083 177.131264 
L 266.784793 176.846684 
L 272.179835 174.493763 
L 272.49719 174.468965 
L 274.718678 173.456806 
L 275.988099 173.154297 
L 280.431074 171.800213 
L 281.065785 171.466505 
L 281.700496 171.090004 
L 282.017851 170.785322 
L 282.652562 170.656819 
L 283.604628 170.034941 
L 284.556694 169.683806 
L 284.87405 169.657841 
L 286.778182 168.639965 
L 288.047603 168.269822 
L 288.364959 168.020059 
L 288.999669 167.732532 
L 289.951736 167.370488 
L 290.269091 167.340776 
L 290.903802 166.985743 
L 292.490579 166.31624 
L 292.807934 166.276329 
L 293.125289 166.091894 
L 294.077355 165.985125 
L 294.394711 165.819192 
L 294.712066 165.798701 
L 295.029421 165.528056 
L 296.616198 165.149068 
L 297.568264 164.57641 
L 300.424463 163.391797 
L 301.376529 162.944199 
L 302.01124 162.763743 
L 302.64595 162.416725 
L 303.280661 162.235006 
L 303.915372 161.65498 
L 304.232727 161.584587 
L 304.550083 161.390434 
L 305.184793 161.26208 
L 306.13686 160.792544 
L 306.77157 160.610973 
L 308.040992 160.140265 
L 308.993058 159.839888 
L 310.579835 159.012339 
L 312.801322 158.279454 
L 313.753388 157.762585 
L 314.705455 157.397651 
L 315.340165 157.285732 
L 316.292231 156.908989 
L 316.926942 156.505375 
L 317.879008 156.017835 
L 318.196364 155.614555 
L 318.831074 155.328213 
L 319.465785 155.0959 
L 319.78314 154.899509 
L 320.417851 154.716629 
L 322.004628 154.239226 
L 322.321983 154.097118 
L 322.956694 153.699946 
L 323.90876 153.214211 
L 324.226116 152.831311 
L 324.543471 152.775336 
L 324.860826 152.414001 
L 325.178182 152.270928 
L 325.495537 151.994339 
L 326.130248 151.722092 
L 326.447603 151.323558 
L 326.764959 151.28192 
L 327.399669 150.636756 
L 328.351736 150.366138 
L 329.303802 150.043593 
L 330.573223 149.216705 
L 331.207934 149.103781 
L 331.525289 148.900012 
L 331.842645 148.847648 
L 332.477355 148.467472 
L 333.112066 148.194144 
L 333.746777 147.938725 
L 334.064132 147.642035 
L 334.698843 147.376819 
L 336.602975 146.609454 
L 337.555041 146.165063 
L 338.189752 145.858271 
L 339.459174 145.630087 
L 339.776529 145.11363 
L 340.093884 144.889595 
L 340.41124 144.374876 
L 340.728595 144.298999 
L 342.315372 143.056211 
L 342.632727 142.934325 
L 342.950083 142.600878 
L 343.267438 142.473941 
L 343.902149 141.991209 
L 344.53686 141.759433 
L 345.806281 141.166712 
L 346.123636 140.631604 
L 347.710413 140.040076 
L 348.345124 139.953147 
L 348.662479 139.620467 
L 349.29719 139.375111 
L 349.931901 138.727623 
L 352.153388 137.346973 
L 352.788099 136.997726 
L 353.105455 136.681429 
L 353.740165 136.303173 
L 354.374876 135.205409 
L 354.692231 134.961459 
L 355.009587 134.898325 
L 355.326942 134.64243 
L 356.913719 134.119185 
L 358.500496 133.325672 
L 358.817851 133.243642 
L 359.452562 132.314612 
L 359.769917 131.793502 
L 360.721983 131.289587 
L 361.039339 130.504855 
L 362.30876 129.844711 
L 364.530248 128.839436 
L 365.164959 128.631368 
L 365.482314 128.258143 
L 365.799669 127.351532 
L 366.117025 126.957026 
L 366.751736 126.003499 
L 367.069091 125.909101 
L 367.386446 125.511742 
L 368.021157 125.193681 
L 368.338512 124.701824 
L 368.655868 124.580323 
L 368.973223 124.225204 
L 369.290579 124.135209 
L 369.607934 123.315191 
L 370.242645 123.156218 
L 371.194711 122.156957 
L 371.829421 121.989839 
L 372.464132 121.806509 
L 372.781488 121.615934 
L 373.098843 121.271842 
L 373.416198 120.508564 
L 373.733554 120.205479 
L 374.368264 119.88294 
L 375.637686 119.007329 
L 375.955041 117.988236 
L 376.272397 117.790674 
L 376.589752 117.7473 
L 378.176529 116.021145 
L 378.493884 115.981261 
L 378.81124 115.730548 
L 379.128595 114.750287 
L 379.44595 114.509832 
L 381.032727 112.33236 
L 381.350083 112.010742 
L 382.302149 111.514922 
L 383.254215 109.725074 
L 383.57157 109.596768 
L 383.888926 109.305979 
L 384.523636 107.752738 
L 384.840992 107.628107 
L 385.793058 105.915908 
L 386.110413 105.7896 
L 386.427769 104.953641 
L 386.745124 104.650952 
L 387.062479 103.990928 
L 387.379835 102.908921 
L 387.69719 102.428216 
L 388.014545 101.711154 
L 388.331901 101.51947 
L 388.649256 100.48107 
L 389.918678 98.594413 
L 390.236033 98.464963 
L 390.553388 98.163778 
L 392.457521 92.516682 
L 393.092231 90.31389 
L 393.409587 89.919293 
L 393.726942 89.725951 
L 394.044298 87.982073 
L 394.361653 87.702127 
L 394.679008 85.622153 
L 394.996364 84.809726 
L 395.313719 81.837142 
L 395.631074 81.643078 
L 395.94843 78.724966 
L 396.265785 77.475238 
L 396.58314 76.743788 
L 396.900496 73.382209 
L 397.217851 72.819098 
L 397.535207 70.516328 
L 397.852562 64.944086 
L 398.169917 61.77537 
L 398.487273 53.568 
L 398.487273 53.568 
" clip-path="url(#pdb4f598bbf)" style="fill: none; stroke: #1f77b4; stroke-width: 1.5; stroke-linecap: square"/>
   </g>
   <g id="line2d_16">
    <path d="M 73.832727 278.836912 
L 74.150083 269.126912 
L 74.467438 269.126912 
L 74.784793 260.826839 
L 75.102149 259.102796 
L 75.73686 259.102796 
L 76.054215 255.997244 
L 76.37157 250.754641 
L 76.688926 250.432992 
L 77.006281 250.432992 
L 77.323636 249.62179 
L 78.910413 249.62179 
L 79.227769 246.66413 
L 79.545124 246.66413 
L 79.862479 245.593466 
L 80.179835 244.931995 
L 80.49719 244.931995 
L 80.814545 241.661463 
L 81.131901 240.121997 
L 82.083967 240.095527 
L 82.401322 239.184403 
L 86.844298 239.132673 
L 87.161653 238.633788 
L 87.479008 236.263872 
L 87.796364 235.73997 
L 88.113719 234.91953 
L 89.700496 234.91953 
L 90.017851 233.871252 
L 90.652562 233.871252 
L 90.969917 232.65352 
L 91.287273 232.65352 
L 91.604628 232.019177 
L 91.921983 230.387549 
L 99.221157 230.387549 
L 99.538512 229.415318 
L 99.855868 229.415318 
L 100.173223 229.185343 
L 101.76 229.185343 
L 102.077355 228.177598 
L 103.664132 228.177598 
L 103.981488 227.950288 
L 104.298843 227.557354 
L 104.933554 227.557354 
L 105.250909 226.175368 
L 106.202975 226.105719 
L 106.520331 222.986804 
L 107.155041 222.678633 
L 107.472397 222.678633 
L 107.789752 221.960437 
L 109.376529 221.960437 
L 109.693884 220.384233 
L 110.01124 220.384233 
L 110.328595 218.643022 
L 129.369917 218.64295 
L 129.687273 217.653479 
L 130.321983 216.722873 
L 131.27405 216.663541 
L 131.591405 215.854109 
L 131.90876 215.854109 
L 132.226116 215.66918 
L 132.860826 215.66918 
L 133.178182 214.110968 
L 133.495537 214.110968 
L 133.812893 213.78468 
L 135.399669 213.78468 
L 135.717025 212.455866 
L 136.669091 211.901017 
L 163.009587 211.901017 
L 163.326942 210.521879 
L 167.135207 210.521879 
L 167.452562 210.269835 
L 167.769917 210.269835 
L 168.087273 208.562973 
L 168.404628 208.562973 
L 168.721983 208.10738 
L 169.356694 208.10738 
L 169.67405 207.813378 
L 169.991405 207.109192 
L 171.578182 207.109192 
L 172.212893 206.612691 
L 172.530248 206.612691 
L 172.847603 206.402052 
L 180.146777 206.402052 
L 180.464132 206.039489 
L 180.781488 206.039489 
L 181.098843 205.683856 
L 182.68562 205.683856 
L 183.320331 202.366369 
L 185.541818 202.336859 
L 185.859174 202.144112 
L 186.493884 202.144112 
L 186.81124 201.852974 
L 187.128595 201.123401 
L 187.44595 201.123401 
L 187.763306 200.62927 
L 188.080661 200.62927 
L 188.398017 198.566399 
L 188.715372 195.624436 
L 283.604628 195.624436 
L 284.239339 190.619603 
L 284.556694 190.619603 
L 284.87405 190.125472 
L 285.191405 190.125472 
L 285.50876 189.395899 
L 285.826116 189.10476 
L 286.460826 189.10476 
L 286.778182 188.912014 
L 288.999669 188.882504 
L 289.63438 185.565017 
L 291.221157 185.565017 
L 291.538512 185.209384 
L 291.855868 185.209384 
L 292.173223 184.846821 
L 299.472397 184.846821 
L 299.789752 184.636182 
L 300.107107 184.636182 
L 300.741818 184.139681 
L 302.328595 184.139681 
L 302.64595 183.435495 
L 302.963306 183.141493 
L 303.598017 183.141493 
L 303.915372 182.6859 
L 304.232727 182.6859 
L 304.550083 180.979038 
L 304.867438 180.979038 
L 305.184793 180.726994 
L 308.993058 180.726994 
L 309.310413 179.347856 
L 335.968264 179.272211 
L 336.602975 178.793007 
L 336.920331 177.464193 
L 338.507107 177.464193 
L 338.824463 177.137905 
L 339.141818 177.137905 
L 339.459174 175.579692 
L 340.093884 175.579692 
L 340.41124 175.394764 
L 340.728595 175.394764 
L 341.04595 174.585332 
L 341.680661 174.526 
L 341.998017 174.526 
L 342.315372 174.165811 
L 342.632727 173.595394 
L 342.950083 172.605923 
L 361.991405 172.605851 
L 362.30876 170.86464 
L 362.626116 170.86464 
L 362.943471 169.288436 
L 364.530248 169.288436 
L 364.847603 168.57024 
L 365.164959 168.57024 
L 365.799669 168.262069 
L 366.117025 165.143154 
L 367.069091 165.073505 
L 367.386446 163.691519 
L 368.021157 163.691519 
L 368.655868 163.071275 
L 370.242645 163.071275 
L 370.56 162.06353 
L 372.146777 162.06353 
L 372.464132 161.833555 
L 372.781488 161.833555 
L 373.098843 160.861324 
L 380.398017 160.861324 
L 380.715372 159.229696 
L 381.032727 158.595353 
L 381.350083 158.595353 
L 381.667438 157.377621 
L 382.302149 157.377621 
L 382.619504 156.329342 
L 384.206281 156.329342 
L 384.840992 154.985001 
L 385.158347 152.615084 
L 385.475702 152.1162 
L 389.918678 152.06447 
L 390.236033 151.153345 
L 391.188099 151.126875 
L 391.505455 149.58741 
L 391.82281 146.316878 
L 392.140165 146.316878 
L 392.457521 145.655407 
L 392.774876 144.584743 
L 393.092231 144.584743 
L 393.409587 141.627083 
L 394.996364 141.627083 
L 395.313719 140.815881 
L 395.631074 140.815881 
L 395.94843 140.494232 
L 396.265785 135.251629 
L 396.58314 132.146076 
L 397.217851 132.146076 
L 397.535207 130.422034 
L 397.852562 122.121961 
L 398.169917 122.121961 
L 398.487273 112.411961 
L 398.487273 112.411961 
" clip-path="url(#pdb4f598bbf)" style="fill: none; stroke: #ff7f0e; stroke-width: 1.5; stroke-linecap: square"/>
   </g>
   <g id="patch_3">
    <path d="M 57.6 307.584 
L 57.6 41.472 
" style="fill: none; stroke: #000000; stroke-width: 0.8; stroke-linejoin: miter; stroke-linecap: square"/>
   </g>
   <g id="patch_4">
    <path d="M 414.72 307.584 
L 414.72 41.472 
" style="fill: none; stroke: #000000; stroke-width: 0.8; stroke-linejoin: miter; stroke-linecap: square"/>
   </g>
   <g id="patch_5">
    <path d="M 57.6 307.584 
L 414.72 307.584 
" style="fill: none; stroke: #000000; stroke-width: 0.8; stroke-linejoin: miter; stroke-linecap: square"/>
   </g>
   <g id="patch_6">
    <path d="M 57.6 41.472 
L 414.72 41.472 
" style="fill: none; stroke: #000000; stroke-width: 0.8; stroke-linejoin: miter; stroke-linecap: square"/>
   </g>
   <g id="legend_1">
    <g id="patch_7">
     <path d="M 64.6 78.82825 
L 129.342187 78.82825 
Q 131.342187 78.82825 131.342187 76.82825 
L 131.342187 48.472 
Q 131.342187 46.472 129.342187 46.472 
L 64.6 46.472 
Q 62.6 46.472 62.6 48.472 
L 62.6 76.82825 
Q 62.6 78.82825 64.6 78.82825 
z
" style="fill: #ffffff; opacity: 0.8; stroke: #cccccc; stroke-linejoin: miter"/>
    </g>
    <g id="line2d_17">
     <path d="M 66.6 54.570437 
L 76.6 54.570437 
L 86.6 54.570437 
" style="fill: none; stroke: #1f77b4; stroke-width: 1.5; stroke-linecap: square"/>
    </g>
    <g id="text_17">
     <!-- qc -->
     <g transform="translate(94.6 58.070437) scale(0.1 -0.1)">
      <defs>
       <path id="DejaVuSans-71" d="M 947 1747 
Q 947 1113 1208 752 
Q 1469 391 1925 391 
Q 2381 391 2643 752 
Q 2906 1113 2906 1747 
Q 2906 2381 2643 2742 
Q 2381 3103 1925 3103 
Q 1469 3103 1208 2742 
Q 947 2381 947 1747 
z
M 2906 525 
Q 2725 213 2448 61 
Q 2172 -91 1784 -91 
Q 1150 -91 751 415 
Q 353 922 353 1747 
Q 353 2572 751 3078 
Q 1150 3584 1784 3584 
Q 2172 3584 2448 3432 
Q 2725 3281 2906 2969 
L 2906 3500 
L 3481 3500 
L 3481 -1331 
L 2906 -1331 
L 2906 525 
z
" transform="scale(0.015625)"/>
       <path id="DejaVuSans-63" d="M 3122 3366 
L 3122 2828 
Q 2878 2963 2633 3030 
Q 2388 3097 2138 3097 
Q 1578 3097 1268 2742 
Q 959 2388 959 1747 
Q 959 1106 1268 751 
Q 1578 397 2138 397 
Q 2388 397 2633 464 
Q 2878 531 3122 666 
L 3122 134 
Q 2881 22 2623 -34 
Q 2366 -91 2075 -91 
Q 1284 -91 818 406 
Q 353 903 353 1747 
Q 353 2603 823 3093 
Q 1294 3584 2113 3584 
Q 2378 3584 2631 3529 
Q 2884 3475 3122 3366 
z
" transform="scale(0.015625)"/>
      </defs>
      <use xlink:href="#DejaVuSans-71"/>
      <use xlink:href="#DejaVuSans-63" x="63.476562"/>
     </g>
    </g>
    <g id="line2d_18">
     <path d="M 66.6 69.248562 
L 76.6 69.248562 
L 86.6 69.248562 
" style="fill: none; stroke: #ff7f0e; stroke-width: 1.5; stroke-linecap: square"/>
    </g>
    <g id="text_18">
     <!-- Trotter -->
     <g transform="translate(94.6 72.748562) scale(0.1 -0.1)">
      <defs>
       <path id="DejaVuSans-54" d="M -19 4666 
L 3928 4666 
L 3928 4134 
L 2272 4134 
L 2272 0 
L 1638 0 
L 1638 4134 
L -19 4134 
L -19 4666 
z
" transform="scale(0.015625)"/>
       <path id="DejaVuSans-72" d="M 2631 2963 
Q 2534 3019 2420 3045 
Q 2306 3072 2169 3072 
Q 1681 3072 1420 2755 
Q 1159 2438 1159 1844 
L 1159 0 
L 581 0 
L 581 3500 
L 1159 3500 
L 1159 2956 
Q 1341 3275 1631 3429 
Q 1922 3584 2338 3584 
Q 2397 3584 2469 3576 
Q 2541 3569 2628 3553 
L 2631 2963 
z
" transform="scale(0.015625)"/>
       <path id="DejaVuSans-6f" d="M 1959 3097 
Q 1497 3097 1228 2736 
Q 959 2375 959 1747 
Q 959 1119 1226 758 
Q 1494 397 1959 397 
Q 2419 397 2687 759 
Q 2956 1122 2956 1747 
Q 2956 2369 2687 2733 
Q 2419 3097 1959 3097 
z
M 1959 3584 
Q 2709 3584 3137 3096 
Q 3566 2609 3566 1747 
Q 3566 888 3137 398 
Q 2709 -91 1959 -91 
Q 1206 -91 779 398 
Q 353 888 353 1747 
Q 353 2609 779 3096 
Q 1206 3584 1959 3584 
z
" transform="scale(0.015625)"/>
       <path id="DejaVuSans-65" d="M 3597 1894 
L 3597 1613 
L 953 1613 
Q 991 1019 1311 708 
Q 1631 397 2203 397 
Q 2534 397 2845 478 
Q 3156 559 3463 722 
L 3463 178 
Q 3153 47 2828 -22 
Q 2503 -91 2169 -91 
Q 1331 -91 842 396 
Q 353 884 353 1716 
Q 353 2575 817 3079 
Q 1281 3584 2069 3584 
Q 2775 3584 3186 3129 
Q 3597 2675 3597 1894 
z
M 3022 2063 
Q 3016 2534 2758 2815 
Q 2500 3097 2075 3097 
Q 1594 3097 1305 2825 
Q 1016 2553 972 2059 
L 3022 2063 
z
" transform="scale(0.015625)"/>
      </defs>
      <use xlink:href="#DejaVuSans-54"/>
      <use xlink:href="#DejaVuSans-72" x="46.333984"/>
      <use xlink:href="#DejaVuSans-6f" x="85.197266"/>
      <use xlink:href="#DejaVuSans-74" x="146.378906"/>
      <use xlink:href="#DejaVuSans-74" x="185.587891"/>
      <use xlink:href="#DejaVuSans-65" x="224.796875"/>
      <use xlink:href="#DejaVuSans-72" x="286.320312"/>
     </g>
    </g>
   </g>
  </g>
 </g>
 <defs>
  <clipPath id="pdb4f598bbf">
   <rect x="57.6" y="41.472" width="357.12" height="266.112"/>
  </clipPath>
 </defs>
</svg>
