<?xml version="1.0" encoding="utf-8" standalone="no"?>
<!DOCTYPE svg PUBLIC "-//W3C//DTD SVG 1.1//EN"
  "http://www.w3.org/Graphics/SVG/1.1/DTD/svg11.dtd">
<svg xmlns:xlink="http://www.w3.org/1999/xlink" width="460.8pt" height="345.6pt" viewBox="0 0 460.8 345.6" xmlns="http://www.w3.org/2000/svg" version="1.1">
 <metadata>
  <rdf:RDF xmlns:dc="http://purl.org/dc/elements/1.1/" xmlns:cc="http://creativecommons.org/ns#" xmlns:rdf="http://www.w3.org/1999/02/22-rdf-syntax-ns#">
   <cc:Work>
    <dc:type rdf:resource="http://purl.org/dc/dcmitype/StillImage"/>
    <dc:date>2024-08-25T10:16:12.861260</dc:date>
    <dc:format>image/svg+xml</dc:format>
    <dc:creator>
     <cc:Agent>
      <dc:title>Matplotlib v3.7.1, https://matplotlib.org/</dc:title>
     </cc:Agent>
    </dc:creator>
   </cc:Work>
  </rdf:RDF>
 </metadata>
 <defs>
  <style type="text/css">*{stroke-linejoin: round; stroke-linecap: butt}</style>
 </defs>
 <g id="figure_1">
  <g id="patch_1">
   <path d="M 0 345.6 
L 460.8 345.6 
L 460.8 0 
L 0 0 
z
" style="fill: #ffffff"/>
  </g>
  <g id="axes_1">
   <g id="patch_2">
    <path d="M 57.6 307.584 
L 414.72 307.584 
L 414.72 41.472 
L 57.6 41.472 
z
" style="fill: #ffffff"/>
   </g>
   <g id="matplotlib.axis_1">
    <g id="xtick_1">
     <g id="line2d_1">
      <defs>
       <path id="m194b6c0a59" d="M 0 0 
L 0 3.5 
" style="stroke: #000000; stroke-width: 0.8"/>
      </defs>
      <g>
       <use xlink:href="#m194b6c0a59" x="73.832727" y="307.584" style="stroke: #000000; stroke-width: 0.8"/>
      </g>
     </g>
     <g id="text_1">
      <!-- 0 -->
      <g transform="translate(70.651477 322.182437) scale(0.1 -0.1)">
       <defs>
        <path id="DejaVuSans-30" d="M 2034 4250 
Q 1547 4250 1301 3770 
Q 1056 3291 1056 2328 
Q 1056 1369 1301 889 
Q 1547 409 2034 409 
Q 2525 409 2770 889 
Q 3016 1369 3016 2328 
Q 3016 3291 2770 3770 
Q 2525 4250 2034 4250 
z
M 2034 4750 
Q 2819 4750 3233 4129 
Q 3647 3509 3647 2328 
Q 3647 1150 3233 529 
Q 2819 -91 2034 -91 
Q 1250 -91 836 529 
Q 422 1150 422 2328 
Q 422 3509 836 4129 
Q 1250 4750 2034 4750 
z
" transform="scale(0.015625)"/>
       </defs>
       <use xlink:href="#DejaVuSans-30"/>
      </g>
     </g>
    </g>
    <g id="xtick_2">
     <g id="line2d_2">
      <g>
       <use xlink:href="#m194b6c0a59" x="137.303802" y="307.584" style="stroke: #000000; stroke-width: 0.8"/>
      </g>
     </g>
     <g id="text_2">
      <!-- 200 -->
      <g transform="translate(127.760052 322.182437) scale(0.1 -0.1)">
       <defs>
        <path id="DejaVuSans-32" d="M 1228 531 
L 3431 531 
L 3431 0 
L 469 0 
L 469 531 
Q 828 903 1448 1529 
Q 2069 2156 2228 2338 
Q 2531 2678 2651 2914 
Q 2772 3150 2772 3378 
Q 2772 3750 2511 3984 
Q 2250 4219 1831 4219 
Q 1534 4219 1204 4116 
Q 875 4013 500 3803 
L 500 4441 
Q 881 4594 1212 4672 
Q 1544 4750 1819 4750 
Q 2544 4750 2975 4387 
Q 3406 4025 3406 3419 
Q 3406 3131 3298 2873 
Q 3191 2616 2906 2266 
Q 2828 2175 2409 1742 
Q 1991 1309 1228 531 
z
" transform="scale(0.015625)"/>
       </defs>
       <use xlink:href="#DejaVuSans-32"/>
       <use xlink:href="#DejaVuSans-30" x="63.623047"/>
       <use xlink:href="#DejaVuSans-30" x="127.246094"/>
      </g>
     </g>
    </g>
    <g id="xtick_3">
     <g id="line2d_3">
      <g>
       <use xlink:href="#m194b6c0a59" x="200.774876" y="307.584" style="stroke: #000000; stroke-width: 0.8"/>
      </g>
     </g>
     <g id="text_3">
      <!-- 400 -->
      <g transform="translate(191.231126 322.182437) scale(0.1 -0.1)">
       <defs>
        <path id="DejaVuSans-34" d="M 2419 4116 
L 825 1625 
L 2419 1625 
L 2419 4116 
z
M 2253 4666 
L 3047 4666 
L 3047 1625 
L 3713 1625 
L 3713 1100 
L 3047 1100 
L 3047 0 
L 2419 0 
L 2419 1100 
L 313 1100 
L 313 1709 
L 2253 4666 
z
" transform="scale(0.015625)"/>
       </defs>
       <use xlink:href="#DejaVuSans-34"/>
       <use xlink:href="#DejaVuSans-30" x="63.623047"/>
       <use xlink:href="#DejaVuSans-30" x="127.246094"/>
      </g>
     </g>
    </g>
    <g id="xtick_4">
     <g id="line2d_4">
      <g>
       <use xlink:href="#m194b6c0a59" x="264.24595" y="307.584" style="stroke: #000000; stroke-width: 0.8"/>
      </g>
     </g>
     <g id="text_4">
      <!-- 600 -->
      <g transform="translate(254.7022 322.182437) scale(0.1 -0.1)">
       <defs>
        <path id="DejaVuSans-36" d="M 2113 2584 
Q 1688 2584 1439 2293 
Q 1191 2003 1191 1497 
Q 1191 994 1439 701 
Q 1688 409 2113 409 
Q 2538 409 2786 701 
Q 3034 994 3034 1497 
Q 3034 2003 2786 2293 
Q 2538 2584 2113 2584 
z
M 3366 4563 
L 3366 3988 
Q 3128 4100 2886 4159 
Q 2644 4219 2406 4219 
Q 1781 4219 1451 3797 
Q 1122 3375 1075 2522 
Q 1259 2794 1537 2939 
Q 1816 3084 2150 3084 
Q 2853 3084 3261 2657 
Q 3669 2231 3669 1497 
Q 3669 778 3244 343 
Q 2819 -91 2113 -91 
Q 1303 -91 875 529 
Q 447 1150 447 2328 
Q 447 3434 972 4092 
Q 1497 4750 2381 4750 
Q 2619 4750 2861 4703 
Q 3103 4656 3366 4563 
z
" transform="scale(0.015625)"/>
       </defs>
       <use xlink:href="#DejaVuSans-36"/>
       <use xlink:href="#DejaVuSans-30" x="63.623047"/>
       <use xlink:href="#DejaVuSans-30" x="127.246094"/>
      </g>
     </g>
    </g>
    <g id="xtick_5">
     <g id="line2d_5">
      <g>
       <use xlink:href="#m194b6c0a59" x="327.717025" y="307.584" style="stroke: #000000; stroke-width: 0.8"/>
      </g>
     </g>
     <g id="text_5">
      <!-- 800 -->
      <g transform="translate(318.173275 322.182437) scale(0.1 -0.1)">
       <defs>
        <path id="DejaVuSans-38" d="M 2034 2216 
Q 1584 2216 1326 1975 
Q 1069 1734 1069 1313 
Q 1069 891 1326 650 
Q 1584 409 2034 409 
Q 2484 409 2743 651 
Q 3003 894 3003 1313 
Q 3003 1734 2745 1975 
Q 2488 2216 2034 2216 
z
M 1403 2484 
Q 997 2584 770 2862 
Q 544 3141 544 3541 
Q 544 4100 942 4425 
Q 1341 4750 2034 4750 
Q 2731 4750 3128 4425 
Q 3525 4100 3525 3541 
Q 3525 3141 3298 2862 
Q 3072 2584 2669 2484 
Q 3125 2378 3379 2068 
Q 3634 1759 3634 1313 
Q 3634 634 3220 271 
Q 2806 -91 2034 -91 
Q 1263 -91 848 271 
Q 434 634 434 1313 
Q 434 1759 690 2068 
Q 947 2378 1403 2484 
z
M 1172 3481 
Q 1172 3119 1398 2916 
Q 1625 2713 2034 2713 
Q 2441 2713 2670 2916 
Q 2900 3119 2900 3481 
Q 2900 3844 2670 4047 
Q 2441 4250 2034 4250 
Q 1625 4250 1398 4047 
Q 1172 3844 1172 3481 
z
" transform="scale(0.015625)"/>
       </defs>
       <use xlink:href="#DejaVuSans-38"/>
       <use xlink:href="#DejaVuSans-30" x="63.623047"/>
       <use xlink:href="#DejaVuSans-30" x="127.246094"/>
      </g>
     </g>
    </g>
    <g id="xtick_6">
     <g id="line2d_6">
      <g>
       <use xlink:href="#m194b6c0a59" x="391.188099" y="307.584" style="stroke: #000000; stroke-width: 0.8"/>
      </g>
     </g>
     <g id="text_6">
      <!-- 1000 -->
      <g transform="translate(378.463099 322.182437) scale(0.1 -0.1)">
       <defs>
        <path id="DejaVuSans-31" d="M 794 531 
L 1825 531 
L 1825 4091 
L 703 3866 
L 703 4441 
L 1819 4666 
L 2450 4666 
L 2450 531 
L 3481 531 
L 3481 0 
L 794 0 
L 794 531 
z
" transform="scale(0.015625)"/>
       </defs>
       <use xlink:href="#DejaVuSans-31"/>
       <use xlink:href="#DejaVuSans-30" x="63.623047"/>
       <use xlink:href="#DejaVuSans-30" x="127.246094"/>
       <use xlink:href="#DejaVuSans-30" x="190.869141"/>
      </g>
     </g>
    </g>
    <g id="text_7">
     <!-- n -->
     <g transform="translate(232.99125 335.860562) scale(0.1 -0.1)">
      <defs>
       <path id="DejaVuSans-6e" d="M 3513 2113 
L 3513 0 
L 2938 0 
L 2938 2094 
Q 2938 2591 2744 2837 
Q 2550 3084 2163 3084 
Q 1697 3084 1428 2787 
Q 1159 2491 1159 1978 
L 1159 0 
L 581 0 
L 581 3500 
L 1159 3500 
L 1159 2956 
Q 1366 3272 1645 3428 
Q 1925 3584 2291 3584 
Q 2894 3584 3203 3211 
Q 3513 2838 3513 2113 
z
" transform="scale(0.015625)"/>
      </defs>
      <use xlink:href="#DejaVuSans-6e"/>
     </g>
    </g>
   </g>
   <g id="matplotlib.axis_2">
    <g id="ytick_1">
     <g id="line2d_7">
      <defs>
       <path id="m0037c091c3" d="M 0 0 
L -3.5 0 
" style="stroke: #000000; stroke-width: 0.8"/>
      </defs>
      <g>
       <use xlink:href="#m0037c091c3" x="57.6" y="272.489052" style="stroke: #000000; stroke-width: 0.8"/>
      </g>
     </g>
     <g id="text_8">
      <!-- −6 -->
      <g transform="translate(35.857813 276.288271) scale(0.1 -0.1)">
       <defs>
        <path id="DejaVuSans-2212" d="M 678 2272 
L 4684 2272 
L 4684 1741 
L 678 1741 
L 678 2272 
z
" transform="scale(0.015625)"/>
       </defs>
       <use xlink:href="#DejaVuSans-2212"/>
       <use xlink:href="#DejaVuSans-36" x="83.789062"/>
      </g>
     </g>
    </g>
    <g id="ytick_2">
     <g id="line2d_8">
      <g>
       <use xlink:href="#m0037c091c3" x="57.6" y="237.356367" style="stroke: #000000; stroke-width: 0.8"/>
      </g>
     </g>
     <g id="text_9">
      <!-- −4 -->
      <g transform="translate(35.857813 241.155586) scale(0.1 -0.1)">
       <use xlink:href="#DejaVuSans-2212"/>
       <use xlink:href="#DejaVuSans-34" x="83.789062"/>
      </g>
     </g>
    </g>
    <g id="ytick_3">
     <g id="line2d_9">
      <g>
       <use xlink:href="#m0037c091c3" x="57.6" y="202.223682" style="stroke: #000000; stroke-width: 0.8"/>
      </g>
     </g>
     <g id="text_10">
      <!-- −2 -->
      <g transform="translate(35.857813 206.022901) scale(0.1 -0.1)">
       <use xlink:href="#DejaVuSans-2212"/>
       <use xlink:href="#DejaVuSans-32" x="83.789062"/>
      </g>
     </g>
    </g>
    <g id="ytick_4">
     <g id="line2d_10">
      <g>
       <use xlink:href="#m0037c091c3" x="57.6" y="167.090997" style="stroke: #000000; stroke-width: 0.8"/>
      </g>
     </g>
     <g id="text_11">
      <!-- 0 -->
      <g transform="translate(44.2375 170.890216) scale(0.1 -0.1)">
       <use xlink:href="#DejaVuSans-30"/>
      </g>
     </g>
    </g>
    <g id="ytick_5">
     <g id="line2d_11">
      <g>
       <use xlink:href="#m0037c091c3" x="57.6" y="131.958312" style="stroke: #000000; stroke-width: 0.8"/>
      </g>
     </g>
     <g id="text_12">
      <!-- 2 -->
      <g transform="translate(44.2375 135.757531) scale(0.1 -0.1)">
       <use xlink:href="#DejaVuSans-32"/>
      </g>
     </g>
    </g>
    <g id="ytick_6">
     <g id="line2d_12">
      <g>
       <use xlink:href="#m0037c091c3" x="57.6" y="96.825627" style="stroke: #000000; stroke-width: 0.8"/>
      </g>
     </g>
     <g id="text_13">
      <!-- 4 -->
      <g transform="translate(44.2375 100.624845) scale(0.1 -0.1)">
       <use xlink:href="#DejaVuSans-34"/>
      </g>
     </g>
    </g>
    <g id="ytick_7">
     <g id="line2d_13">
      <g>
       <use xlink:href="#m0037c091c3" x="57.6" y="61.692942" style="stroke: #000000; stroke-width: 0.8"/>
      </g>
     </g>
     <g id="text_14">
      <!-- 6 -->
      <g transform="translate(44.2375 65.49216) scale(0.1 -0.1)">
       <use xlink:href="#DejaVuSans-36"/>
      </g>
     </g>
    </g>
    <g id="text_15">
     <!-- E*t -->
     <g transform="translate(29.778125 182.147531) rotate(-90) scale(0.1 -0.1)">
      <defs>
       <path id="DejaVuSans-45" d="M 628 4666 
L 3578 4666 
L 3578 4134 
L 1259 4134 
L 1259 2753 
L 3481 2753 
L 3481 2222 
L 1259 2222 
L 1259 531 
L 3634 531 
L 3634 0 
L 628 0 
L 628 4666 
z
" transform="scale(0.015625)"/>
       <path id="DejaVuSans-2a" d="M 3009 3897 
L 1888 3291 
L 3009 2681 
L 2828 2375 
L 1778 3009 
L 1778 1831 
L 1422 1831 
L 1422 3009 
L 372 2375 
L 191 2681 
L 1313 3291 
L 191 3897 
L 372 4206 
L 1422 3572 
L 1422 4750 
L 1778 4750 
L 1778 3572 
L 2828 4206 
L 3009 3897 
z
" transform="scale(0.015625)"/>
       <path id="DejaVuSans-74" d="M 1172 4494 
L 1172 3500 
L 2356 3500 
L 2356 3053 
L 1172 3053 
L 1172 1153 
Q 1172 725 1289 603 
Q 1406 481 1766 481 
L 2356 481 
L 2356 0 
L 1766 0 
Q 1100 0 847 248 
Q 594 497 594 1153 
L 594 3053 
L 172 3053 
L 172 3500 
L 594 3500 
L 594 4494 
L 1172 4494 
z
" transform="scale(0.015625)"/>
      </defs>
      <use xlink:href="#DejaVuSans-45"/>
      <use xlink:href="#DejaVuSans-2a" x="63.183594"/>
      <use xlink:href="#DejaVuSans-74" x="113.183594"/>
     </g>
    </g>
   </g>
   <g id="line2d_14">
    <path d="M 73.832727 295.488 
L 74.150083 293.964152 
L 74.467438 287.93839 
L 74.784793 286.414543 
L 75.102149 278.099517 
L 75.419504 273.388762 
L 75.73686 271.236745 
L 76.054215 270.549942 
L 76.37157 269.447739 
L 76.688926 267.926547 
L 77.323636 264.370856 
L 77.958347 262.932336 
L 78.275702 262.782793 
L 78.593058 261.710789 
L 79.545124 257.767035 
L 79.862479 257.314408 
L 80.49719 255.330541 
L 81.131901 252.922488 
L 81.449256 252.730574 
L 81.766612 252.067656 
L 82.083967 251.699143 
L 83.036033 249.78761 
L 83.353388 248.363158 
L 83.670744 248.036992 
L 84.305455 246.986226 
L 84.62281 246.846487 
L 84.940165 246.432285 
L 85.257521 245.368807 
L 85.574876 245.309976 
L 86.526942 244.216982 
L 86.844298 244.172929 
L 87.161653 242.952353 
L 88.74843 240.999219 
L 89.38314 240.723032 
L 89.700496 240.147016 
L 90.017851 240.094197 
L 90.335207 239.535825 
L 90.969917 237.619563 
L 91.921983 236.854751 
L 92.239339 236.719798 
L 92.87405 236.266468 
L 93.191405 235.606692 
L 94.143471 234.793863 
L 94.460826 234.220913 
L 96.047603 232.870772 
L 96.364959 232.265418 
L 96.682314 232.057977 
L 96.999669 231.498257 
L 97.63438 230.971496 
L 98.269091 230.372559 
L 98.586446 229.955084 
L 98.903802 229.892945 
L 99.855868 229.120786 
L 100.173223 229.033351 
L 102.077355 227.401321 
L 102.712066 227.050496 
L 104.933554 225.649171 
L 105.250909 225.226455 
L 105.568264 225.151565 
L 110.64595 221.637888 
L 110.963306 221.557348 
L 111.915372 220.606 
L 112.550083 220.165765 
L 113.184793 219.573311 
L 113.502149 219.125452 
L 114.454215 218.713481 
L 115.088926 218.295687 
L 116.040992 217.743851 
L 116.675702 217.158886 
L 116.993058 216.877873 
L 117.310413 216.753173 
L 117.627769 216.366754 
L 117.945124 216.311071 
L 118.262479 215.975037 
L 120.166612 215.030104 
L 120.483967 214.677465 
L 121.118678 214.3053 
L 121.436033 214.038787 
L 122.070744 213.85908 
L 122.388099 213.609139 
L 122.705455 213.152662 
L 123.657521 212.678346 
L 125.244298 211.701918 
L 125.879008 211.468978 
L 126.831074 210.929469 
L 127.465785 210.711662 
L 128.417851 210.224139 
L 130.321983 209.533081 
L 131.90876 208.508297 
L 132.543471 208.434956 
L 132.860826 208.132282 
L 133.178182 208.059007 
L 133.495537 207.746072 
L 134.130248 207.541606 
L 134.764959 207.254035 
L 136.03438 206.416065 
L 136.669091 206.09109 
L 137.938512 205.363964 
L 138.890579 205.104957 
L 140.794711 204.174992 
L 142.381488 203.639306 
L 142.698843 203.443772 
L 143.650909 203.163772 
L 144.920331 202.677077 
L 145.555041 202.299385 
L 147.141818 201.793025 
L 148.41124 201.245635 
L 149.363306 200.9559 
L 149.680661 200.829964 
L 150.315372 200.309883 
L 150.950083 200.14072 
L 152.53686 199.565496 
L 154.440992 198.5518 
L 154.758347 198.449827 
L 155.075702 198.108805 
L 156.662479 197.49801 
L 158.566612 196.719962 
L 158.883967 196.436518 
L 159.518678 196.189539 
L 160.153388 195.932292 
L 163.961653 194.572268 
L 164.596364 194.31616 
L 165.231074 194.07215 
L 166.18314 193.62848 
L 167.769917 193.079524 
L 168.721983 192.462638 
L 172.847603 191.060235 
L 173.164959 190.861008 
L 173.799669 190.688565 
L 174.751736 190.312356 
L 175.386446 190.109632 
L 176.021157 189.965612 
L 178.56 188.664346 
L 179.194711 188.508097 
L 180.146777 188.083927 
L 182.368264 187.220878 
L 182.68562 187.186418 
L 183.320331 186.977177 
L 186.493884 185.991639 
L 187.128595 185.813055 
L 187.763306 185.606834 
L 188.398017 185.53098 
L 188.715372 185.234037 
L 190.619504 184.546618 
L 190.93686 184.345093 
L 192.523636 183.963503 
L 193.158347 183.695644 
L 193.793058 183.533088 
L 197.283967 182.23868 
L 200.457521 181.307988 
L 201.726942 180.993951 
L 202.679008 180.56635 
L 203.313719 180.450798 
L 205.535207 179.520481 
L 206.487273 179.258742 
L 207.439339 178.88485 
L 209.660826 178.122748 
L 210.295537 177.782001 
L 211.882314 177.325707 
L 212.517025 177.195852 
L 216.325289 175.872604 
L 217.277355 175.452204 
L 217.912066 175.192576 
L 219.181488 174.810968 
L 219.816198 174.453154 
L 220.133554 174.412383 
L 220.768264 174.167663 
L 221.402975 173.927003 
L 221.720331 173.762969 
L 222.037686 173.725897 
L 222.989752 173.327414 
L 224.576529 172.814253 
L 225.21124 172.501905 
L 233.779835 169.895968 
L 234.414545 169.686173 
L 234.731901 169.448583 
L 237.588099 168.718635 
L 238.22281 168.488079 
L 241.713719 167.409548 
L 242.34843 167.116725 
L 242.665785 167.077723 
L 243.300496 166.831037 
L 243.617851 166.746559 
L 243.935207 166.464072 
L 244.887273 166.158159 
L 245.204628 165.972613 
L 245.839339 165.84064 
L 246.47405 165.608446 
L 254.407934 163.118377 
L 254.725289 163.069942 
L 255.36 162.7995 
L 258.216198 162.050805 
L 260.120331 161.311424 
L 261.389752 161.075397 
L 264.563306 160.115354 
L 264.880661 160.088675 
L 266.150083 159.574786 
L 266.467438 159.546491 
L 267.102149 159.259503 
L 270.910413 158.002968 
L 271.862479 157.463599 
L 272.814545 157.258714 
L 273.449256 156.902277 
L 274.083967 156.759083 
L 274.401322 156.500979 
L 275.036033 156.307185 
L 276.305455 155.923885 
L 279.161653 154.733393 
L 279.479008 154.695079 
L 280.113719 154.433897 
L 280.431074 154.37819 
L 281.065785 154.037646 
L 282.652562 153.692833 
L 284.556694 152.951556 
L 285.191405 152.483182 
L 286.143471 152.187769 
L 288.047603 151.579698 
L 288.364959 151.412347 
L 288.999669 151.238752 
L 289.63438 151.031382 
L 296.616198 148.772958 
L 296.933554 148.437972 
L 297.568264 148.313233 
L 298.520331 148.019988 
L 299.155041 147.762218 
L 301.693884 146.927242 
L 302.963306 146.660259 
L 303.598017 146.219263 
L 306.454215 145.180244 
L 307.406281 144.899388 
L 308.358347 144.568824 
L 308.993058 144.253136 
L 310.579835 143.414533 
L 310.89719 143.36693 
L 311.214545 143.077104 
L 311.531901 143.018135 
L 312.483967 142.475339 
L 313.118678 142.339019 
L 313.753388 142.137649 
L 315.657521 141.398565 
L 316.292231 141.312601 
L 317.879008 140.651882 
L 318.196364 140.606534 
L 318.513719 140.407194 
L 319.14843 140.238287 
L 319.465785 139.933188 
L 321.687273 139.123364 
L 322.004628 138.923593 
L 322.639339 138.746388 
L 323.591405 138.377343 
L 324.226116 137.946246 
L 325.178182 137.675946 
L 325.812893 137.25759 
L 326.130248 137.179973 
L 326.447603 136.923417 
L 326.764959 136.877418 
L 327.082314 136.654356 
L 327.717025 136.539771 
L 329.303802 135.860167 
L 329.938512 135.562726 
L 332.794711 134.332905 
L 333.112066 133.937264 
L 333.429421 133.916163 
L 334.381488 133.491982 
L 335.016198 133.203774 
L 335.333554 133.150019 
L 335.968264 132.735348 
L 336.28562 132.706052 
L 336.920331 132.441708 
L 337.555041 132.292878 
L 337.872397 132.005671 
L 338.824463 131.650278 
L 339.141818 131.604569 
L 340.093884 131.008926 
L 340.728595 130.752423 
L 341.04595 130.46376 
L 342.315372 130.096503 
L 344.219504 128.931304 
L 345.488926 128.366704 
L 345.806281 128.054737 
L 346.123636 127.98445 
L 348.345124 126.620285 
L 349.29719 126.2792 
L 349.614545 126.159366 
L 350.249256 125.761115 
L 350.566612 125.673461 
L 351.518678 125.123957 
L 351.836033 124.964596 
L 352.153388 124.66604 
L 353.42281 124.070065 
L 354.057521 123.69704 
L 354.374876 123.651869 
L 355.326942 123.147661 
L 355.644298 123.106687 
L 357.54843 121.890219 
L 358.18314 121.422155 
L 359.135207 121.052921 
L 359.769917 120.547178 
L 360.404628 120.163332 
L 360.721983 120.108338 
L 361.039339 119.64764 
L 361.356694 119.409762 
L 361.991405 119.132293 
L 362.30876 118.999198 
L 362.626116 118.730094 
L 362.943471 118.223668 
L 364.212893 117.808067 
L 364.530248 117.451251 
L 364.847603 117.372392 
L 365.164959 117.083651 
L 366.117025 116.748236 
L 367.069091 115.967899 
L 367.386446 115.883946 
L 367.703802 115.382509 
L 368.021157 115.285369 
L 369.607934 113.796216 
L 371.512066 112.789003 
L 372.146777 112.148672 
L 374.368264 110.76728 
L 375.320331 109.93198 
L 375.637686 109.682779 
L 375.955041 109.188306 
L 376.272397 108.936628 
L 376.907107 108.656462 
L 377.224463 107.97604 
L 378.176529 107.529042 
L 378.493884 107.102796 
L 379.763306 106.256268 
L 380.080661 105.198261 
L 380.398017 105.128139 
L 380.715372 104.694012 
L 381.350083 104.399641 
L 382.302149 103.520294 
L 382.93686 102.941303 
L 383.254215 101.965549 
L 384.206281 100.989232 
L 384.523636 100.558814 
L 384.840992 99.443448 
L 385.158347 99.201716 
L 385.793058 98.070785 
L 386.427769 97.072171 
L 387.379835 96.559197 
L 387.69719 95.78435 
L 388.331901 94.893427 
L 388.649256 94.186324 
L 388.966612 93.95036 
L 389.283967 93.325199 
L 390.236033 92.306437 
L 390.553388 91.685577 
L 390.870744 91.506411 
L 391.188099 90.615837 
L 391.505455 90.147766 
L 391.82281 89.978613 
L 392.140165 88.307104 
L 392.774876 87.883756 
L 393.409587 85.313319 
L 393.726942 85.061289 
L 394.996364 82.185563 
L 395.313719 78.498596 
L 395.631074 77.718936 
L 396.265785 75.054867 
L 396.58314 74.116871 
L 396.900496 73.827244 
L 397.217851 72.067069 
L 397.535207 68.835643 
L 397.852562 67.330356 
L 398.487273 53.568 
L 398.487273 53.568 
" clip-path="url(#pbe725d69ff)" style="fill: none; stroke: #1f77b4; stroke-width: 1.5; stroke-linecap: square"/>
   </g>
   <g id="line2d_15">
    <path d="M 73.832727 251.908021 
L 74.150083 242.010787 
L 74.467438 242.010787 
L 74.784793 233.550668 
L 75.102149 231.793381 
L 75.73686 231.793381 
L 76.054215 228.627946 
L 76.37157 223.284252 
L 76.688926 222.956401 
L 77.006281 222.956401 
L 77.323636 222.129557 
L 78.910413 222.129557 
L 79.227769 219.114865 
L 79.545124 219.114865 
L 79.862479 218.023557 
L 80.179835 217.349331 
L 80.49719 217.349331 
L 80.814545 214.015735 
L 81.131901 212.446584 
L 82.083967 212.419604 
L 82.401322 211.490911 
L 86.844298 211.438183 
L 87.161653 210.929679 
L 87.479008 208.514064 
L 87.796364 207.98006 
L 88.113719 207.1438 
L 89.700496 207.1438 
L 90.017851 206.075308 
L 90.652562 206.075308 
L 90.969917 204.834095 
L 91.287273 204.834095 
L 91.604628 204.187521 
L 91.921983 202.524431 
L 99.221157 202.524431 
L 99.538512 201.533452 
L 99.855868 201.533452 
L 100.173223 201.299043 
L 101.76 201.299043 
L 102.077355 200.271866 
L 103.664132 200.271866 
L 103.981488 200.040173 
L 104.298843 199.639663 
L 104.933554 199.639663 
L 105.250909 198.231029 
L 106.202975 198.160037 
L 106.520331 194.98098 
L 107.155041 194.666867 
L 107.472397 194.666867 
L 107.789752 193.934822 
L 109.376529 193.934822 
L 109.693884 192.328225 
L 110.01124 192.328225 
L 110.328595 190.553439 
L 129.369917 190.553366 
L 129.687273 189.544816 
L 130.321983 188.596265 
L 131.27405 188.535789 
L 131.591405 187.710749 
L 131.90876 187.710749 
L 132.226116 187.522255 
L 132.860826 187.522255 
L 133.178182 185.933996 
L 133.495537 185.933996 
L 133.812893 185.601416 
L 135.399669 185.601416 
L 135.717025 184.24698 
L 136.669091 183.681432 
L 163.009587 183.681432 
L 163.326942 182.2757 
L 167.135207 182.2757 
L 167.452562 182.018796 
L 167.769917 182.018796 
L 168.087273 180.279021 
L 168.404628 180.279021 
L 168.721983 179.814643 
L 169.356694 179.814643 
L 169.67405 179.514972 
L 169.991405 178.797208 
L 171.578182 178.797208 
L 172.212893 178.291133 
L 172.530248 178.291133 
L 172.847603 178.076433 
L 180.146777 178.076433 
L 180.464132 177.706878 
L 180.781488 177.706878 
L 181.098843 177.344388 
L 182.68562 177.344388 
L 183.320331 173.962931 
L 185.541818 173.932852 
L 185.859174 173.736389 
L 186.493884 173.736389 
L 186.81124 173.439637 
L 187.128595 172.695996 
L 187.44595 172.695996 
L 187.763306 172.192336 
L 188.080661 172.192336 
L 188.398017 170.089688 
L 188.715372 167.090997 
L 283.604628 167.090997 
L 284.239339 161.989658 
L 284.556694 161.989658 
L 284.87405 161.485998 
L 285.191405 161.485998 
L 285.50876 160.742357 
L 285.826116 160.445605 
L 286.460826 160.445605 
L 286.778182 160.249142 
L 288.999669 160.219063 
L 289.63438 156.837606 
L 291.221157 156.837606 
L 291.538512 156.475116 
L 291.855868 156.475116 
L 292.173223 156.105561 
L 299.472397 156.105561 
L 299.789752 155.890861 
L 300.107107 155.890861 
L 300.741818 155.384786 
L 302.328595 155.384786 
L 302.64595 154.667022 
L 302.963306 154.367351 
L 303.598017 154.367351 
L 303.915372 153.902973 
L 304.232727 153.902973 
L 304.550083 152.163198 
L 304.867438 152.163198 
L 305.184793 151.906294 
L 308.993058 151.906294 
L 309.310413 150.500562 
L 335.968264 150.423459 
L 336.602975 149.935014 
L 336.920331 148.580578 
L 338.507107 148.580578 
L 338.824463 148.247998 
L 339.141818 148.247998 
L 339.459174 146.659739 
L 340.093884 146.659739 
L 340.41124 146.471245 
L 340.728595 146.471245 
L 341.04595 145.646205 
L 341.680661 145.585729 
L 341.998017 145.585729 
L 342.315372 145.218595 
L 342.632727 144.637178 
L 342.950083 143.628628 
L 361.991405 143.628555 
L 362.30876 141.853769 
L 362.626116 141.853769 
L 362.943471 140.247172 
L 364.530248 140.247172 
L 364.847603 139.515127 
L 365.164959 139.515127 
L 365.799669 139.201014 
L 366.117025 136.021957 
L 367.069091 135.950965 
L 367.386446 134.542331 
L 368.021157 134.542331 
L 368.655868 133.910128 
L 370.242645 133.910128 
L 370.56 132.882951 
L 372.146777 132.882951 
L 372.464132 132.648542 
L 372.781488 132.648542 
L 373.098843 131.657563 
L 380.398017 131.657563 
L 380.715372 129.994473 
L 381.032727 129.347899 
L 381.350083 129.347899 
L 381.667438 128.106686 
L 382.302149 128.106686 
L 382.619504 127.038194 
L 384.206281 127.038194 
L 384.840992 125.66793 
L 385.158347 123.252315 
L 385.475702 122.743811 
L 389.918678 122.691083 
L 390.236033 121.76239 
L 391.188099 121.73541 
L 391.505455 120.166259 
L 391.82281 116.832663 
L 392.140165 116.832663 
L 392.457521 116.158437 
L 392.774876 115.067129 
L 393.092231 115.067129 
L 393.409587 112.052437 
L 394.996364 112.052437 
L 395.313719 111.225593 
L 395.631074 111.225593 
L 395.94843 110.897742 
L 396.265785 105.554048 
L 396.58314 102.388613 
L 397.217851 102.388613 
L 397.535207 100.631326 
L 397.852562 92.171207 
L 398.169917 92.171207 
L 398.487273 82.273973 
L 398.487273 82.273973 
" clip-path="url(#pbe725d69ff)" style="fill: none; stroke: #ff7f0e; stroke-width: 1.5; stroke-linecap: square"/>
   </g>
   <g id="patch_3">
    <path d="M 57.6 307.584 
L 57.6 41.472 
" style="fill: none; stroke: #000000; stroke-width: 0.8; stroke-linejoin: miter; stroke-linecap: square"/>
   </g>
   <g id="patch_4">
    <path d="M 414.72 307.584 
L 414.72 41.472 
" style="fill: none; stroke: #000000; stroke-width: 0.8; stroke-linejoin: miter; stroke-linecap: square"/>
   </g>
   <g id="patch_5">
    <path d="M 57.6 307.584 
L 414.72 307.584 
" style="fill: none; stroke: #000000; stroke-width: 0.8; stroke-linejoin: miter; stroke-linecap: square"/>
   </g>
   <g id="patch_6">
    <path d="M 57.6 41.472 
L 414.72 41.472 
" style="fill: none; stroke: #000000; stroke-width: 0.8; stroke-linejoin: miter; stroke-linecap: square"/>
   </g>
   <g id="legend_1">
    <g id="patch_7">
     <path d="M 64.6 78.82825 
L 129.342187 78.82825 
Q 131.342187 78.82825 131.342187 76.82825 
L 131.342187 48.472 
Q 131.342187 46.472 129.342187 46.472 
L 64.6 46.472 
Q 62.6 46.472 62.6 48.472 
L 62.6 76.82825 
Q 62.6 78.82825 64.6 78.82825 
z
" style="fill: #ffffff; opacity: 0.8; stroke: #cccccc; stroke-linejoin: miter"/>
    </g>
    <g id="line2d_16">
     <path d="M 66.6 54.570437 
L 76.6 54.570437 
L 86.6 54.570437 
" style="fill: none; stroke: #1f77b4; stroke-width: 1.5; stroke-linecap: square"/>
    </g>
    <g id="text_16">
     <!-- qc -->
     <g transform="translate(94.6 58.070437) scale(0.1 -0.1)">
      <defs>
       <path id="DejaVuSans-71" d="M 947 1747 
Q 947 1113 1208 752 
Q 1469 391 1925 391 
Q 2381 391 2643 752 
Q 2906 1113 2906 1747 
Q 2906 2381 2643 2742 
Q 2381 3103 1925 3103 
Q 1469 3103 1208 2742 
Q 947 2381 947 1747 
z
M 2906 525 
Q 2725 213 2448 61 
Q 2172 -91 1784 -91 
Q 1150 -91 751 415 
Q 353 922 353 1747 
Q 353 2572 751 3078 
Q 1150 3584 1784 3584 
Q 2172 3584 2448 3432 
Q 2725 3281 2906 2969 
L 2906 3500 
L 3481 3500 
L 3481 -1331 
L 2906 -1331 
L 2906 525 
z
" transform="scale(0.015625)"/>
       <path id="DejaVuSans-63" d="M 3122 3366 
L 3122 2828 
Q 2878 2963 2633 3030 
Q 2388 3097 2138 3097 
Q 1578 3097 1268 2742 
Q 959 2388 959 1747 
Q 959 1106 1268 751 
Q 1578 397 2138 397 
Q 2388 397 2633 464 
Q 2878 531 3122 666 
L 3122 134 
Q 2881 22 2623 -34 
Q 2366 -91 2075 -91 
Q 1284 -91 818 406 
Q 353 903 353 1747 
Q 353 2603 823 3093 
Q 1294 3584 2113 3584 
Q 2378 3584 2631 3529 
Q 2884 3475 3122 3366 
z
" transform="scale(0.015625)"/>
      </defs>
      <use xlink:href="#DejaVuSans-71"/>
      <use xlink:href="#DejaVuSans-63" x="63.476562"/>
     </g>
    </g>
    <g id="line2d_17">
     <path d="M 66.6 69.248562 
L 76.6 69.248562 
L 86.6 69.248562 
" style="fill: none; stroke: #ff7f0e; stroke-width: 1.5; stroke-linecap: square"/>
    </g>
    <g id="text_17">
     <!-- Trotter -->
     <g transform="translate(94.6 72.748562) scale(0.1 -0.1)">
      <defs>
       <path id="DejaVuSans-54" d="M -19 4666 
L 3928 4666 
L 3928 4134 
L 2272 4134 
L 2272 0 
L 1638 0 
L 1638 4134 
L -19 4134 
L -19 4666 
z
" transform="scale(0.015625)"/>
       <path id="DejaVuSans-72" d="M 2631 2963 
Q 2534 3019 2420 3045 
Q 2306 3072 2169 3072 
Q 1681 3072 1420 2755 
Q 1159 2438 1159 1844 
L 1159 0 
L 581 0 
L 581 3500 
L 1159 3500 
L 1159 2956 
Q 1341 3275 1631 3429 
Q 1922 3584 2338 3584 
Q 2397 3584 2469 3576 
Q 2541 3569 2628 3553 
L 2631 2963 
z
" transform="scale(0.015625)"/>
       <path id="DejaVuSans-6f" d="M 1959 3097 
Q 1497 3097 1228 2736 
Q 959 2375 959 1747 
Q 959 1119 1226 758 
Q 1494 397 1959 397 
Q 2419 397 2687 759 
Q 2956 1122 2956 1747 
Q 2956 2369 2687 2733 
Q 2419 3097 1959 3097 
z
M 1959 3584 
Q 2709 3584 3137 3096 
Q 3566 2609 3566 1747 
Q 3566 888 3137 398 
Q 2709 -91 1959 -91 
Q 1206 -91 779 398 
Q 353 888 353 1747 
Q 353 2609 779 3096 
Q 1206 3584 1959 3584 
z
" transform="scale(0.015625)"/>
       <path id="DejaVuSans-65" d="M 3597 1894 
L 3597 1613 
L 953 1613 
Q 991 1019 1311 708 
Q 1631 397 2203 397 
Q 2534 397 2845 478 
Q 3156 559 3463 722 
L 3463 178 
Q 3153 47 2828 -22 
Q 2503 -91 2169 -91 
Q 1331 -91 842 396 
Q 353 884 353 1716 
Q 353 2575 817 3079 
Q 1281 3584 2069 3584 
Q 2775 3584 3186 3129 
Q 3597 2675 3597 1894 
z
M 3022 2063 
Q 3016 2534 2758 2815 
Q 2500 3097 2075 3097 
Q 1594 3097 1305 2825 
Q 1016 2553 972 2059 
L 3022 2063 
z
" transform="scale(0.015625)"/>
      </defs>
      <use xlink:href="#DejaVuSans-54"/>
      <use xlink:href="#DejaVuSans-72" x="46.333984"/>
      <use xlink:href="#DejaVuSans-6f" x="85.197266"/>
      <use xlink:href="#DejaVuSans-74" x="146.378906"/>
      <use xlink:href="#DejaVuSans-74" x="185.587891"/>
      <use xlink:href="#DejaVuSans-65" x="224.796875"/>
      <use xlink:href="#DejaVuSans-72" x="286.320312"/>
     </g>
    </g>
   </g>
  </g>
 </g>
 <defs>
  <clipPath id="pbe725d69ff">
   <rect x="57.6" y="41.472" width="357.12" height="266.112"/>
  </clipPath>
 </defs>
</svg>
