<?xml version="1.0" encoding="utf-8" standalone="no"?>
<!DOCTYPE svg PUBLIC "-//W3C//DTD SVG 1.1//EN"
  "http://www.w3.org/Graphics/SVG/1.1/DTD/svg11.dtd">
<svg xmlns:xlink="http://www.w3.org/1999/xlink" width="460.8pt" height="345.6pt" viewBox="0 0 460.8 345.6" xmlns="http://www.w3.org/2000/svg" version="1.1">
 <metadata>
  <rdf:RDF xmlns:dc="http://purl.org/dc/elements/1.1/" xmlns:cc="http://creativecommons.org/ns#" xmlns:rdf="http://www.w3.org/1999/02/22-rdf-syntax-ns#">
   <cc:Work>
    <dc:type rdf:resource="http://purl.org/dc/dcmitype/StillImage"/>
    <dc:date>2024-07-05T11:24:14.141967</dc:date>
    <dc:format>image/svg+xml</dc:format>
    <dc:creator>
     <cc:Agent>
      <dc:title>Matplotlib v3.7.1, https://matplotlib.org/</dc:title>
     </cc:Agent>
    </dc:creator>
   </cc:Work>
  </rdf:RDF>
 </metadata>
 <defs>
  <style type="text/css">*{stroke-linejoin: round; stroke-linecap: butt}</style>
 </defs>
 <g id="figure_1">
  <g id="patch_1">
   <path d="M 0 345.6 
L 460.8 345.6 
L 460.8 0 
L 0 0 
z
" style="fill: #ffffff"/>
  </g>
  <g id="axes_1">
   <g id="patch_2">
    <path d="M 57.6 307.584 
L 414.72 307.584 
L 414.72 41.472 
L 57.6 41.472 
z
" style="fill: #ffffff"/>
   </g>
   <g id="matplotlib.axis_1">
    <g id="xtick_1">
     <g id="line2d_1">
      <defs>
       <path id="m2240a1194c" d="M 0 0 
L 0 3.5 
" style="stroke: #000000; stroke-width: 0.8"/>
      </defs>
      <g>
       <use xlink:href="#m2240a1194c" x="73.832727" y="307.584" style="stroke: #000000; stroke-width: 0.8"/>
      </g>
     </g>
     <g id="text_1">
      <!-- 0 -->
      <g transform="translate(70.651477 322.182437) scale(0.1 -0.1)">
       <defs>
        <path id="DejaVuSans-30" d="M 2034 4250 
Q 1547 4250 1301 3770 
Q 1056 3291 1056 2328 
Q 1056 1369 1301 889 
Q 1547 409 2034 409 
Q 2525 409 2770 889 
Q 3016 1369 3016 2328 
Q 3016 3291 2770 3770 
Q 2525 4250 2034 4250 
z
M 2034 4750 
Q 2819 4750 3233 4129 
Q 3647 3509 3647 2328 
Q 3647 1150 3233 529 
Q 2819 -91 2034 -91 
Q 1250 -91 836 529 
Q 422 1150 422 2328 
Q 422 3509 836 4129 
Q 1250 4750 2034 4750 
z
" transform="scale(0.015625)"/>
       </defs>
       <use xlink:href="#DejaVuSans-30"/>
      </g>
     </g>
    </g>
    <g id="xtick_2">
     <g id="line2d_2">
      <g>
       <use xlink:href="#m2240a1194c" x="137.303802" y="307.584" style="stroke: #000000; stroke-width: 0.8"/>
      </g>
     </g>
     <g id="text_2">
      <!-- 200 -->
      <g transform="translate(127.760052 322.182437) scale(0.1 -0.1)">
       <defs>
        <path id="DejaVuSans-32" d="M 1228 531 
L 3431 531 
L 3431 0 
L 469 0 
L 469 531 
Q 828 903 1448 1529 
Q 2069 2156 2228 2338 
Q 2531 2678 2651 2914 
Q 2772 3150 2772 3378 
Q 2772 3750 2511 3984 
Q 2250 4219 1831 4219 
Q 1534 4219 1204 4116 
Q 875 4013 500 3803 
L 500 4441 
Q 881 4594 1212 4672 
Q 1544 4750 1819 4750 
Q 2544 4750 2975 4387 
Q 3406 4025 3406 3419 
Q 3406 3131 3298 2873 
Q 3191 2616 2906 2266 
Q 2828 2175 2409 1742 
Q 1991 1309 1228 531 
z
" transform="scale(0.015625)"/>
       </defs>
       <use xlink:href="#DejaVuSans-32"/>
       <use xlink:href="#DejaVuSans-30" x="63.623047"/>
       <use xlink:href="#DejaVuSans-30" x="127.246094"/>
      </g>
     </g>
    </g>
    <g id="xtick_3">
     <g id="line2d_3">
      <g>
       <use xlink:href="#m2240a1194c" x="200.774876" y="307.584" style="stroke: #000000; stroke-width: 0.8"/>
      </g>
     </g>
     <g id="text_3">
      <!-- 400 -->
      <g transform="translate(191.231126 322.182437) scale(0.1 -0.1)">
       <defs>
        <path id="DejaVuSans-34" d="M 2419 4116 
L 825 1625 
L 2419 1625 
L 2419 4116 
z
M 2253 4666 
L 3047 4666 
L 3047 1625 
L 3713 1625 
L 3713 1100 
L 3047 1100 
L 3047 0 
L 2419 0 
L 2419 1100 
L 313 1100 
L 313 1709 
L 2253 4666 
z
" transform="scale(0.015625)"/>
       </defs>
       <use xlink:href="#DejaVuSans-34"/>
       <use xlink:href="#DejaVuSans-30" x="63.623047"/>
       <use xlink:href="#DejaVuSans-30" x="127.246094"/>
      </g>
     </g>
    </g>
    <g id="xtick_4">
     <g id="line2d_4">
      <g>
       <use xlink:href="#m2240a1194c" x="264.24595" y="307.584" style="stroke: #000000; stroke-width: 0.8"/>
      </g>
     </g>
     <g id="text_4">
      <!-- 600 -->
      <g transform="translate(254.7022 322.182437) scale(0.1 -0.1)">
       <defs>
        <path id="DejaVuSans-36" d="M 2113 2584 
Q 1688 2584 1439 2293 
Q 1191 2003 1191 1497 
Q 1191 994 1439 701 
Q 1688 409 2113 409 
Q 2538 409 2786 701 
Q 3034 994 3034 1497 
Q 3034 2003 2786 2293 
Q 2538 2584 2113 2584 
z
M 3366 4563 
L 3366 3988 
Q 3128 4100 2886 4159 
Q 2644 4219 2406 4219 
Q 1781 4219 1451 3797 
Q 1122 3375 1075 2522 
Q 1259 2794 1537 2939 
Q 1816 3084 2150 3084 
Q 2853 3084 3261 2657 
Q 3669 2231 3669 1497 
Q 3669 778 3244 343 
Q 2819 -91 2113 -91 
Q 1303 -91 875 529 
Q 447 1150 447 2328 
Q 447 3434 972 4092 
Q 1497 4750 2381 4750 
Q 2619 4750 2861 4703 
Q 3103 4656 3366 4563 
z
" transform="scale(0.015625)"/>
       </defs>
       <use xlink:href="#DejaVuSans-36"/>
       <use xlink:href="#DejaVuSans-30" x="63.623047"/>
       <use xlink:href="#DejaVuSans-30" x="127.246094"/>
      </g>
     </g>
    </g>
    <g id="xtick_5">
     <g id="line2d_5">
      <g>
       <use xlink:href="#m2240a1194c" x="327.717025" y="307.584" style="stroke: #000000; stroke-width: 0.8"/>
      </g>
     </g>
     <g id="text_5">
      <!-- 800 -->
      <g transform="translate(318.173275 322.182437) scale(0.1 -0.1)">
       <defs>
        <path id="DejaVuSans-38" d="M 2034 2216 
Q 1584 2216 1326 1975 
Q 1069 1734 1069 1313 
Q 1069 891 1326 650 
Q 1584 409 2034 409 
Q 2484 409 2743 651 
Q 3003 894 3003 1313 
Q 3003 1734 2745 1975 
Q 2488 2216 2034 2216 
z
M 1403 2484 
Q 997 2584 770 2862 
Q 544 3141 544 3541 
Q 544 4100 942 4425 
Q 1341 4750 2034 4750 
Q 2731 4750 3128 4425 
Q 3525 4100 3525 3541 
Q 3525 3141 3298 2862 
Q 3072 2584 2669 2484 
Q 3125 2378 3379 2068 
Q 3634 1759 3634 1313 
Q 3634 634 3220 271 
Q 2806 -91 2034 -91 
Q 1263 -91 848 271 
Q 434 634 434 1313 
Q 434 1759 690 2068 
Q 947 2378 1403 2484 
z
M 1172 3481 
Q 1172 3119 1398 2916 
Q 1625 2713 2034 2713 
Q 2441 2713 2670 2916 
Q 2900 3119 2900 3481 
Q 2900 3844 2670 4047 
Q 2441 4250 2034 4250 
Q 1625 4250 1398 4047 
Q 1172 3844 1172 3481 
z
" transform="scale(0.015625)"/>
       </defs>
       <use xlink:href="#DejaVuSans-38"/>
       <use xlink:href="#DejaVuSans-30" x="63.623047"/>
       <use xlink:href="#DejaVuSans-30" x="127.246094"/>
      </g>
     </g>
    </g>
    <g id="xtick_6">
     <g id="line2d_6">
      <g>
       <use xlink:href="#m2240a1194c" x="391.188099" y="307.584" style="stroke: #000000; stroke-width: 0.8"/>
      </g>
     </g>
     <g id="text_6">
      <!-- 1000 -->
      <g transform="translate(378.463099 322.182437) scale(0.1 -0.1)">
       <defs>
        <path id="DejaVuSans-31" d="M 794 531 
L 1825 531 
L 1825 4091 
L 703 3866 
L 703 4441 
L 1819 4666 
L 2450 4666 
L 2450 531 
L 3481 531 
L 3481 0 
L 794 0 
L 794 531 
z
" transform="scale(0.015625)"/>
       </defs>
       <use xlink:href="#DejaVuSans-31"/>
       <use xlink:href="#DejaVuSans-30" x="63.623047"/>
       <use xlink:href="#DejaVuSans-30" x="127.246094"/>
       <use xlink:href="#DejaVuSans-30" x="190.869141"/>
      </g>
     </g>
    </g>
    <g id="text_7">
     <!-- n -->
     <g transform="translate(232.99125 335.860562) scale(0.1 -0.1)">
      <defs>
       <path id="DejaVuSans-6e" d="M 3513 2113 
L 3513 0 
L 2938 0 
L 2938 2094 
Q 2938 2591 2744 2837 
Q 2550 3084 2163 3084 
Q 1697 3084 1428 2787 
Q 1159 2491 1159 1978 
L 1159 0 
L 581 0 
L 581 3500 
L 1159 3500 
L 1159 2956 
Q 1366 3272 1645 3428 
Q 1925 3584 2291 3584 
Q 2894 3584 3203 3211 
Q 3513 2838 3513 2113 
z
" transform="scale(0.015625)"/>
      </defs>
      <use xlink:href="#DejaVuSans-6e"/>
     </g>
    </g>
   </g>
   <g id="matplotlib.axis_2">
    <g id="ytick_1">
     <g id="line2d_7">
      <defs>
       <path id="m312ed0162e" d="M 0 0 
L -3.5 0 
" style="stroke: #000000; stroke-width: 0.8"/>
      </defs>
      <g>
       <use xlink:href="#m312ed0162e" x="57.6" y="303.53664" style="stroke: #000000; stroke-width: 0.8"/>
      </g>
     </g>
     <g id="text_8">
      <!-- −0.8 -->
      <g transform="translate(26.317187 307.335859) scale(0.1 -0.1)">
       <defs>
        <path id="DejaVuSans-2212" d="M 678 2272 
L 4684 2272 
L 4684 1741 
L 678 1741 
L 678 2272 
z
" transform="scale(0.015625)"/>
        <path id="DejaVuSans-2e" d="M 684 794 
L 1344 794 
L 1344 0 
L 684 0 
L 684 794 
z
" transform="scale(0.015625)"/>
       </defs>
       <use xlink:href="#DejaVuSans-2212"/>
       <use xlink:href="#DejaVuSans-30" x="83.789062"/>
       <use xlink:href="#DejaVuSans-2e" x="147.412109"/>
       <use xlink:href="#DejaVuSans-38" x="179.199219"/>
      </g>
     </g>
    </g>
    <g id="ytick_2">
     <g id="line2d_8">
      <g>
       <use xlink:href="#m312ed0162e" x="57.6" y="272.796979" style="stroke: #000000; stroke-width: 0.8"/>
      </g>
     </g>
     <g id="text_9">
      <!-- −0.6 -->
      <g transform="translate(26.317187 276.596197) scale(0.1 -0.1)">
       <use xlink:href="#DejaVuSans-2212"/>
       <use xlink:href="#DejaVuSans-30" x="83.789062"/>
       <use xlink:href="#DejaVuSans-2e" x="147.412109"/>
       <use xlink:href="#DejaVuSans-36" x="179.199219"/>
      </g>
     </g>
    </g>
    <g id="ytick_3">
     <g id="line2d_9">
      <g>
       <use xlink:href="#m312ed0162e" x="57.6" y="242.057317" style="stroke: #000000; stroke-width: 0.8"/>
      </g>
     </g>
     <g id="text_10">
      <!-- −0.4 -->
      <g transform="translate(26.317187 245.856536) scale(0.1 -0.1)">
       <use xlink:href="#DejaVuSans-2212"/>
       <use xlink:href="#DejaVuSans-30" x="83.789062"/>
       <use xlink:href="#DejaVuSans-2e" x="147.412109"/>
       <use xlink:href="#DejaVuSans-34" x="179.199219"/>
      </g>
     </g>
    </g>
    <g id="ytick_4">
     <g id="line2d_10">
      <g>
       <use xlink:href="#m312ed0162e" x="57.6" y="211.317656" style="stroke: #000000; stroke-width: 0.8"/>
      </g>
     </g>
     <g id="text_11">
      <!-- −0.2 -->
      <g transform="translate(26.317187 215.116875) scale(0.1 -0.1)">
       <use xlink:href="#DejaVuSans-2212"/>
       <use xlink:href="#DejaVuSans-30" x="83.789062"/>
       <use xlink:href="#DejaVuSans-2e" x="147.412109"/>
       <use xlink:href="#DejaVuSans-32" x="179.199219"/>
      </g>
     </g>
    </g>
    <g id="ytick_5">
     <g id="line2d_11">
      <g>
       <use xlink:href="#m312ed0162e" x="57.6" y="180.577995" style="stroke: #000000; stroke-width: 0.8"/>
      </g>
     </g>
     <g id="text_12">
      <!-- 0.0 -->
      <g transform="translate(34.696875 184.377214) scale(0.1 -0.1)">
       <use xlink:href="#DejaVuSans-30"/>
       <use xlink:href="#DejaVuSans-2e" x="63.623047"/>
       <use xlink:href="#DejaVuSans-30" x="95.410156"/>
      </g>
     </g>
    </g>
    <g id="ytick_6">
     <g id="line2d_12">
      <g>
       <use xlink:href="#m312ed0162e" x="57.6" y="149.838334" style="stroke: #000000; stroke-width: 0.8"/>
      </g>
     </g>
     <g id="text_13">
      <!-- 0.2 -->
      <g transform="translate(34.696875 153.637553) scale(0.1 -0.1)">
       <use xlink:href="#DejaVuSans-30"/>
       <use xlink:href="#DejaVuSans-2e" x="63.623047"/>
       <use xlink:href="#DejaVuSans-32" x="95.410156"/>
      </g>
     </g>
    </g>
    <g id="ytick_7">
     <g id="line2d_13">
      <g>
       <use xlink:href="#m312ed0162e" x="57.6" y="119.098673" style="stroke: #000000; stroke-width: 0.8"/>
      </g>
     </g>
     <g id="text_14">
      <!-- 0.4 -->
      <g transform="translate(34.696875 122.897892) scale(0.1 -0.1)">
       <use xlink:href="#DejaVuSans-30"/>
       <use xlink:href="#DejaVuSans-2e" x="63.623047"/>
       <use xlink:href="#DejaVuSans-34" x="95.410156"/>
      </g>
     </g>
    </g>
    <g id="ytick_8">
     <g id="line2d_14">
      <g>
       <use xlink:href="#m312ed0162e" x="57.6" y="88.359012" style="stroke: #000000; stroke-width: 0.8"/>
      </g>
     </g>
     <g id="text_15">
      <!-- 0.6 -->
      <g transform="translate(34.696875 92.15823) scale(0.1 -0.1)">
       <use xlink:href="#DejaVuSans-30"/>
       <use xlink:href="#DejaVuSans-2e" x="63.623047"/>
       <use xlink:href="#DejaVuSans-36" x="95.410156"/>
      </g>
     </g>
    </g>
    <g id="ytick_9">
     <g id="line2d_15">
      <g>
       <use xlink:href="#m312ed0162e" x="57.6" y="57.619351" style="stroke: #000000; stroke-width: 0.8"/>
      </g>
     </g>
     <g id="text_16">
      <!-- 0.8 -->
      <g transform="translate(34.696875 61.418569) scale(0.1 -0.1)">
       <use xlink:href="#DejaVuSans-30"/>
       <use xlink:href="#DejaVuSans-2e" x="63.623047"/>
       <use xlink:href="#DejaVuSans-38" x="95.410156"/>
      </g>
     </g>
    </g>
    <g id="text_17">
     <!-- E*t -->
     <g transform="translate(20.2375 182.147531) rotate(-90) scale(0.1 -0.1)">
      <defs>
       <path id="DejaVuSans-45" d="M 628 4666 
L 3578 4666 
L 3578 4134 
L 1259 4134 
L 1259 2753 
L 3481 2753 
L 3481 2222 
L 1259 2222 
L 1259 531 
L 3634 531 
L 3634 0 
L 628 0 
L 628 4666 
z
" transform="scale(0.015625)"/>
       <path id="DejaVuSans-2a" d="M 3009 3897 
L 1888 3291 
L 3009 2681 
L 2828 2375 
L 1778 3009 
L 1778 1831 
L 1422 1831 
L 1422 3009 
L 372 2375 
L 191 2681 
L 1313 3291 
L 191 3897 
L 372 4206 
L 1422 3572 
L 1422 4750 
L 1778 4750 
L 1778 3572 
L 2828 4206 
L 3009 3897 
z
" transform="scale(0.015625)"/>
       <path id="DejaVuSans-74" d="M 1172 4494 
L 1172 3500 
L 2356 3500 
L 2356 3053 
L 1172 3053 
L 1172 1153 
Q 1172 725 1289 603 
Q 1406 481 1766 481 
L 2356 481 
L 2356 0 
L 1766 0 
Q 1100 0 847 248 
Q 594 497 594 1153 
L 594 3053 
L 172 3053 
L 172 3500 
L 594 3500 
L 594 4494 
L 1172 4494 
z
" transform="scale(0.015625)"/>
      </defs>
      <use xlink:href="#DejaVuSans-45"/>
      <use xlink:href="#DejaVuSans-2a" x="63.183594"/>
      <use xlink:href="#DejaVuSans-74" x="113.183594"/>
     </g>
    </g>
   </g>
   <g id="line2d_16">
    <path d="M 73.832727 295.488 
L 74.150083 287.078968 
L 74.784793 282.34419 
L 75.102149 276.416509 
L 75.419504 275.956391 
L 75.73686 274.685574 
L 76.37157 272.981394 
L 76.688926 272.045551 
L 77.006281 271.562367 
L 77.323636 268.348577 
L 77.640992 267.567587 
L 78.593058 263.757437 
L 79.227769 263.280719 
L 79.545124 262.592272 
L 80.49719 261.386486 
L 80.814545 261.145478 
L 81.131901 260.156917 
L 81.449256 259.835934 
L 81.766612 259.684961 
L 82.401322 256.573921 
L 82.718678 256.211594 
L 83.036033 255.485586 
L 83.670744 254.961929 
L 84.305455 254.375021 
L 85.574876 252.53542 
L 85.892231 252.448893 
L 86.209587 251.80017 
L 86.844298 251.215627 
L 87.479008 250.483304 
L 87.796364 250.121201 
L 88.113719 249.988685 
L 90.017851 248.22221 
L 90.335207 247.726177 
L 90.969917 247.202605 
L 91.604628 246.439605 
L 92.239339 245.186821 
L 92.556694 244.907505 
L 93.191405 244.678444 
L 93.826116 243.51958 
L 94.460826 243.100784 
L 94.778182 242.953518 
L 95.095537 242.582631 
L 95.412893 242.489397 
L 96.047603 241.976442 
L 96.364959 241.46597 
L 97.63438 240.70941 
L 97.951736 240.169392 
L 98.903802 239.532619 
L 99.855868 239.186417 
L 101.76 237.975059 
L 103.029421 237.247379 
L 103.664132 236.735046 
L 103.981488 236.670222 
L 105.250909 235.561857 
L 105.88562 235.261719 
L 106.837686 234.551468 
L 108.424463 233.734604 
L 109.059174 233.083357 
L 110.01124 232.783986 
L 111.280661 231.787574 
L 111.598017 231.724273 
L 111.915372 231.300249 
L 112.232727 231.222612 
L 112.550083 230.708777 
L 112.867438 230.614021 
L 114.454215 229.6474 
L 115.088926 229.524321 
L 115.406281 229.248485 
L 117.310413 228.605239 
L 119.849256 227.501883 
L 121.118678 227.017381 
L 122.070744 226.452472 
L 123.02281 226.07828 
L 125.561653 224.697906 
L 126.196364 224.554454 
L 126.831074 224.192693 
L 127.14843 224.11552 
L 127.465785 223.895826 
L 127.78314 223.834289 
L 128.100496 223.539292 
L 130.004628 222.662931 
L 130.956694 222.003731 
L 131.27405 221.954516 
L 131.591405 221.648172 
L 132.543471 221.303409 
L 132.860826 221.23806 
L 133.495537 220.909927 
L 135.717025 219.940137 
L 136.986446 219.540465 
L 137.303802 219.354214 
L 137.938512 219.180103 
L 139.207934 218.577859 
L 139.842645 218.321724 
L 140.477355 218.060964 
L 141.429421 217.572557 
L 142.064132 217.472967 
L 144.28562 216.693425 
L 145.872397 216.244664 
L 147.141818 215.78606 
L 147.459174 215.714996 
L 147.776529 215.507387 
L 148.41124 215.378022 
L 149.363306 215.010564 
L 151.584793 214.216924 
L 151.902149 213.989131 
L 152.854215 213.710263 
L 153.17157 213.506403 
L 153.806281 213.379394 
L 154.440992 213.061518 
L 155.710413 212.662852 
L 156.662479 212.333347 
L 156.979835 212.190164 
L 157.29719 212.169195 
L 157.931901 211.940994 
L 158.883967 211.680987 
L 160.153388 211.107483 
L 160.470744 211.0844 
L 161.105455 210.841013 
L 162.057521 210.579281 
L 164.279008 209.770748 
L 165.231074 209.303621 
L 166.18314 209.05102 
L 168.721983 208.113123 
L 169.356694 207.997042 
L 169.991405 207.672233 
L 171.578182 207.171981 
L 172.847603 206.754215 
L 174.43438 206.256685 
L 175.703802 205.93104 
L 176.973223 205.430352 
L 177.607934 205.265079 
L 180.146777 204.428869 
L 180.781488 204.306329 
L 181.098843 204.074161 
L 181.733554 203.910892 
L 187.763306 202.07611 
L 188.715372 201.835314 
L 189.350083 201.581047 
L 189.667438 201.534564 
L 190.302149 201.202252 
L 191.254215 201.003809 
L 198.236033 198.933041 
L 198.553388 198.873 
L 198.870744 198.669727 
L 200.774876 198.22354 
L 201.409587 197.97644 
L 202.044298 197.807653 
L 203.631074 197.341276 
L 205.217851 196.716358 
L 206.804628 196.355361 
L 210.612893 195.281196 
L 211.564959 194.84883 
L 212.517025 194.685058 
L 213.151736 194.495732 
L 215.055868 193.928362 
L 216.007934 193.740657 
L 225.528595 191.000481 
L 226.480661 190.868887 
L 227.432727 190.570655 
L 228.384793 190.420839 
L 229.019504 190.165424 
L 229.654215 190.017652 
L 231.875702 189.408221 
L 233.145124 189.076715 
L 244.569917 185.749597 
L 245.521983 185.495979 
L 250.599669 184.223163 
L 251.23438 183.99606 
L 261.072397 181.097984 
L 262.341818 180.824922 
L 262.659174 180.656961 
L 263.293884 180.516598 
L 264.563306 180.116956 
L 265.198017 179.980837 
L 267.102149 179.400255 
L 279.479008 176.02752 
L 285.50876 174.278145 
L 287.730248 173.649764 
L 288.682314 173.337884 
L 289.951736 173.014117 
L 294.077355 171.591431 
L 294.394711 171.571532 
L 295.346777 171.209838 
L 296.933554 170.778951 
L 297.88562 170.34796 
L 298.520331 170.22285 
L 299.472397 169.888329 
L 307.088926 167.586852 
L 307.723636 167.329662 
L 308.993058 166.96986 
L 310.262479 166.586407 
L 310.89719 166.239685 
L 311.531901 166.060627 
L 314.388099 165.241037 
L 315.02281 164.992869 
L 315.340165 164.907942 
L 315.657521 164.701982 
L 316.926942 164.330895 
L 319.78314 163.359539 
L 321.052562 163.086038 
L 322.321983 162.6607 
L 324.543471 161.994753 
L 326.447603 161.240231 
L 327.082314 160.99904 
L 328.669091 160.393091 
L 329.303802 160.187649 
L 330.573223 159.628203 
L 331.207934 159.497137 
L 331.842645 159.27714 
L 333.112066 158.907271 
L 333.746777 158.631989 
L 335.016198 158.208465 
L 341.04595 155.779133 
L 341.998017 155.430868 
L 342.632727 155.143088 
L 343.902149 154.622932 
L 344.219504 154.586113 
L 344.854215 154.273702 
L 345.488926 154.034317 
L 347.710413 153.176934 
L 350.249256 152.291043 
L 350.566612 152.027545 
L 351.836033 151.595028 
L 352.470744 151.195196 
L 353.105455 151.037079 
L 354.374876 150.363598 
L 355.009587 150.068195 
L 355.644298 149.767372 
L 356.596364 149.439461 
L 360.404628 147.72457 
L 360.721983 147.690875 
L 361.991405 147.02815 
L 362.30876 146.669288 
L 362.626116 146.591101 
L 363.260826 146.241452 
L 364.847603 145.664646 
L 368.338512 143.516012 
L 369.925289 142.158191 
L 371.829421 141.32206 
L 372.781488 140.711744 
L 373.098843 140.328124 
L 374.050909 139.855687 
L 380.080661 135.580059 
L 381.032727 135.200266 
L 381.984793 134.727349 
L 382.302149 134.174646 
L 382.93686 133.581691 
L 383.254215 133.009964 
L 383.888926 132.601696 
L 384.840992 131.356394 
L 385.793058 130.800788 
L 386.427769 130.137279 
L 387.062479 129.455503 
L 387.379835 128.830007 
L 387.69719 128.452527 
L 388.014545 127.611366 
L 388.331901 127.288877 
L 388.649256 127.146608 
L 389.601322 126.20583 
L 390.236033 125.28874 
L 390.553388 124.739633 
L 391.188099 124.221667 
L 391.82281 123.095602 
L 392.140165 122.675207 
L 392.457521 122.051189 
L 393.092231 121.644319 
L 393.726942 119.995498 
L 394.361653 119.39867 
L 394.679008 118.544573 
L 394.996364 118.34545 
L 395.313719 117.846774 
L 395.631074 116.059919 
L 395.94843 114.999362 
L 396.265785 113.060189 
L 396.58314 112.441657 
L 396.900496 111.480431 
L 397.535207 107.920667 
L 398.169917 102.383396 
L 398.487273 97.964368 
L 398.487273 97.964368 
" clip-path="url(#p15f0b8b1c0)" style="fill: none; stroke: #1f77b4; stroke-width: 1.5; stroke-linecap: square"/>
   </g>
   <g id="line2d_17">
    <path d="M 73.832727 254.262838 
L 74.150083 254.262838 
L 74.467438 253.599069 
L 74.784793 253.599069 
L 75.102149 252.65451 
L 75.419504 252.65451 
L 75.73686 252.282152 
L 76.054215 252.282152 
L 76.37157 252.125192 
L 76.688926 252.125192 
L 77.006281 251.799989 
L 77.323636 250.876257 
L 77.640992 250.876257 
L 77.958347 249.266802 
L 78.275702 249.266802 
L 78.593058 248.809889 
L 78.910413 247.967035 
L 79.227769 247.967035 
L 79.545124 247.073849 
L 79.862479 247.073849 
L 80.179835 246.113099 
L 81.131901 246.039052 
L 81.449256 245.648067 
L 81.766612 244.939161 
L 82.718678 244.849663 
L 83.353388 243.950078 
L 83.670744 243.950078 
L 83.988099 243.752364 
L 84.305455 243.752364 
L 84.940165 243.204798 
L 85.257521 242.459486 
L 86.209587 242.418613 
L 86.526942 242.156892 
L 86.844298 242.156892 
L 87.161653 241.926188 
L 87.479008 241.926188 
L 87.796364 240.877754 
L 88.113719 240.738005 
L 88.431074 240.352564 
L 88.74843 240.352564 
L 89.065785 240.092137 
L 89.38314 240.092137 
L 89.700496 239.855389 
L 90.017851 239.855389 
L 90.335207 239.665516 
L 90.652562 239.665516 
L 90.969917 239.469741 
L 91.287273 239.469741 
L 91.921983 239.045057 
L 92.239339 238.931831 
L 92.556694 238.551682 
L 93.191405 238.499719 
L 93.50876 237.570166 
L 94.460826 237.557246 
L 94.778182 237.271282 
L 95.730248 237.252968 
L 96.364959 236.671684 
L 97.63438 236.57179 
L 97.951736 235.797963 
L 98.269091 235.797963 
L 98.586446 235.627584 
L 98.903802 235.627584 
L 99.221157 235.251906 
L 99.538512 235.251906 
L 99.855868 235.025613 
L 100.490579 234.944282 
L 100.807934 234.375264 
L 101.125289 234.375264 
L 101.442645 234.11759 
L 101.76 234.11759 
L 102.394711 233.527693 
L 103.029421 233.461237 
L 103.346777 232.881166 
L 103.664132 232.881166 
L 103.981488 232.554497 
L 104.298843 232.554497 
L 104.616198 232.040308 
L 104.933554 232.040308 
L 105.568264 231.612702 
L 105.88562 231.612702 
L 106.202975 230.992673 
L 106.837686 230.92153 
L 107.155041 230.604889 
L 108.107107 230.542097 
L 108.424463 230.224428 
L 109.059174 230.213479 
L 109.376529 230.070995 
L 109.693884 230.070995 
L 110.01124 229.956839 
L 110.328595 229.650581 
L 111.280661 229.54191 
L 111.598017 229.332539 
L 111.915372 229.332539 
L 112.232727 228.906343 
L 112.867438 228.896993 
L 113.184793 228.750016 
L 113.502149 228.750016 
L 113.819504 228.541487 
L 114.13686 228.541487 
L 115.088926 227.970553 
L 115.406281 227.970553 
L 115.723636 227.678502 
L 116.040992 227.678502 
L 116.675702 227.036848 
L 117.310413 226.955963 
L 117.627769 226.382675 
L 117.945124 226.382675 
L 118.262479 225.671543 
L 118.579835 225.671543 
L 118.89719 225.409425 
L 119.214545 225.409425 
L 119.531901 225.175176 
L 119.849256 225.175176 
L 120.166612 224.849872 
L 121.753388 224.748255 
L 122.070744 223.966624 
L 123.02281 223.812486 
L 123.340165 223.6013 
L 123.974876 223.546261 
L 124.609587 222.534745 
L 124.926942 222.534745 
L 125.244298 222.352322 
L 125.561653 222.352322 
L 125.879008 222.146574 
L 126.196364 222.146574 
L 126.513719 221.947313 
L 127.14843 221.90713 
L 127.465785 221.77907 
L 127.78314 221.77907 
L 128.417851 221.350665 
L 132.543471 220.370841 
L 132.860826 220.187805 
L 133.178182 219.859347 
L 133.495537 219.859347 
L 133.812893 219.434199 
L 134.130248 219.434199 
L 134.447603 219.298675 
L 134.764959 219.298675 
L 135.082314 219.160926 
L 135.717025 219.066388 
L 136.351736 218.945272 
L 136.669091 218.945272 
L 136.986446 218.630876 
L 138.255868 218.560218 
L 138.890579 217.675838 
L 139.842645 217.451068 
L 140.16 217.116558 
L 140.477355 217.116558 
L 140.794711 216.674804 
L 141.112066 216.674804 
L 141.429421 216.33745 
L 142.381488 216.281373 
L 142.698843 216.118719 
L 143.968264 216.008148 
L 144.28562 215.785289 
L 144.602975 215.785289 
L 145.237686 215.139395 
L 146.507107 214.775215 
L 146.824463 214.134206 
L 147.141818 214.046569 
L 147.459174 213.71038 
L 147.776529 213.71038 
L 148.093884 213.540714 
L 148.41124 213.540714 
L 148.728595 212.979703 
L 149.04595 212.979703 
L 149.363306 212.710502 
L 149.680661 212.710502 
L 149.998017 212.26463 
L 151.267438 212.213332 
L 152.53686 212.024248 
L 153.488926 211.939898 
L 153.806281 211.909763 
L 154.123636 211.680558 
L 154.440992 211.680558 
L 154.758347 211.369409 
L 155.075702 210.856821 
L 155.710413 210.80375 
L 156.027769 210.548388 
L 156.979835 210.468278 
L 157.29719 210.008081 
L 158.249256 209.975936 
L 158.566612 209.722605 
L 159.836033 209.676645 
L 160.470744 208.686522 
L 161.105455 208.620971 
L 161.42281 208.604741 
L 161.740165 208.011596 
L 162.692231 207.739062 
L 163.009587 207.739062 
L 163.326942 207.432052 
L 163.644298 207.432052 
L 164.279008 207.317075 
L 165.231074 207.242025 
L 165.54843 206.781643 
L 165.865785 206.537027 
L 166.817851 206.48661 
L 167.135207 206.275213 
L 167.452562 206.275213 
L 167.769917 205.409239 
L 168.404628 205.359029 
L 168.721983 205.035208 
L 169.356694 204.982368 
L 169.67405 204.593723 
L 170.30876 204.566959 
L 170.626116 204.395304 
L 171.578182 204.324313 
L 173.482314 203.908874 
L 173.799669 203.908874 
L 174.117025 203.347775 
L 175.069091 203.190208 
L 175.386446 202.865235 
L 175.703802 202.865235 
L 176.021157 202.583866 
L 176.338512 202.583866 
L 176.655868 202.240606 
L 177.290579 202.144833 
L 177.925289 202.039311 
L 179.829421 201.624752 
L 180.146777 201.347159 
L 181.098843 201.302849 
L 181.416198 201.060625 
L 181.733554 201.060625 
L 182.050909 200.932335 
L 182.368264 200.932335 
L 182.68562 200.476377 
L 183.320331 200.359132 
L 183.637686 199.934853 
L 183.955041 199.934853 
L 184.272397 199.719304 
L 184.907107 199.715544 
L 186.81124 198.962196 
L 187.128595 198.962196 
L 187.44595 198.341068 
L 187.763306 198.132999 
L 188.080661 198.132999 
L 188.398017 197.980426 
L 189.984793 197.888951 
L 190.93686 197.822004 
L 191.254215 197.507448 
L 191.57157 197.507448 
L 191.888926 197.322209 
L 192.206281 197.322209 
L 192.523636 197.181789 
L 192.840992 197.181789 
L 193.158347 196.85584 
L 193.793058 196.78422 
L 194.110413 196.730404 
L 194.745124 196.218715 
L 195.062479 196.218715 
L 195.69719 195.970091 
L 196.331901 195.883075 
L 196.649256 195.428453 
L 196.966612 195.428453 
L 197.601322 195.191827 
L 197.918678 195.191827 
L 198.553388 194.779977 
L 200.140165 194.671054 
L 200.774876 194.253028 
L 201.092231 194.253028 
L 201.409587 193.951707 
L 201.726942 193.951707 
L 202.044298 193.635918 
L 202.361653 193.635918 
L 202.679008 193.333511 
L 202.996364 193.333511 
L 203.313719 193.18914 
L 205.217851 193.086105 
L 205.535207 192.992861 
L 205.852562 192.346908 
L 206.487273 192.270457 
L 206.804628 191.997046 
L 207.756694 191.96134 
L 208.07405 191.723837 
L 208.391405 191.723837 
L 208.70876 191.415349 
L 209.660826 191.313098 
L 211.247603 190.83114 
L 211.564959 190.632578 
L 212.83438 190.514966 
L 213.469091 190.063233 
L 214.103802 190.029448 
L 214.421157 189.614663 
L 215.373223 189.504874 
L 215.690579 189.121057 
L 216.007934 189.121057 
L 216.642645 188.679717 
L 217.277355 188.607346 
L 218.864132 188.520452 
L 219.181488 188.17995 
L 219.498843 188.17995 
L 219.816198 187.932457 
L 220.450909 187.902723 
L 220.768264 187.511934 
L 221.08562 187.511934 
L 221.402975 187.232984 
L 222.355041 187.142868 
L 222.672397 186.928287 
L 223.941818 186.84338 
L 224.259174 186.533163 
L 226.163306 186.036668 
L 227.750083 185.631103 
L 228.067438 185.436413 
L 229.33686 185.390939 
L 229.654215 185.125965 
L 230.606281 185.04269 
L 230.923636 184.981462 
L 231.240992 184.540158 
L 231.875702 184.513551 
L 232.193058 184.274175 
L 232.510413 184.274175 
L 232.827769 183.853827 
L 233.145124 183.853827 
L 233.462479 183.614048 
L 234.414545 183.596779 
L 234.731901 183.225314 
L 235.366612 183.155098 
L 236.953388 182.695761 
L 237.270744 182.277109 
L 238.22281 182.221646 
L 239.174876 182.030809 
L 239.809587 181.453425 
L 240.444298 181.340836 
L 242.34843 180.999098 
L 242.665785 180.851906 
L 242.98314 180.841852 
L 243.300496 180.582199 
L 243.617851 180.582199 
L 243.935207 180.457996 
L 245.204628 180.372458 
L 245.839339 180.27447 
L 246.156694 179.900199 
L 246.791405 179.804968 
L 248.378182 179.704674 
L 248.695537 179.329718 
L 249.012893 179.16823 
L 249.330248 179.16823 
L 249.647603 179.029695 
L 249.964959 179.029695 
L 250.282314 178.757719 
L 250.599669 178.757719 
L 250.917025 178.572697 
L 251.23438 178.539595 
L 251.551736 178.317326 
L 251.869091 178.317326 
L 252.186446 178.007457 
L 252.821157 177.963494 
L 253.138512 177.596125 
L 253.455868 177.596125 
L 253.773223 177.230975 
L 254.407934 177.188805 
L 254.725289 176.765195 
L 257.264132 176.421579 
L 257.581488 176.179484 
L 258.216198 176.174243 
L 258.533554 176.020964 
L 258.850909 176.020964 
L 259.168264 175.516056 
L 259.48562 175.516056 
L 260.120331 175.249747 
L 260.755041 175.186575 
L 262.024463 174.911062 
L 262.659174 174.849227 
L 262.976529 174.600446 
L 263.61124 174.588869 
L 263.928595 174.301721 
L 264.880661 174.129424 
L 265.198017 174.129424 
L 265.832727 173.689871 
L 266.150083 173.689871 
L 266.467438 173.51059 
L 266.784793 173.51059 
L 267.102149 173.139573 
L 268.37157 173.095813 
L 270.593058 172.587703 
L 270.910413 172.375341 
L 271.227769 172.375341 
L 272.179835 171.988077 
L 272.49719 171.457737 
L 272.814545 171.457737 
L 273.449256 171.232901 
L 273.766612 171.232901 
L 274.083967 171.0157 
L 274.401322 171.0157 
L 274.718678 170.788908 
L 275.036033 170.788908 
L 275.353388 170.484824 
L 275.988099 170.442538 
L 276.62281 170.269304 
L 276.940165 170.269304 
L 277.892231 169.997906 
L 278.209587 169.533356 
L 278.526942 169.40766 
L 278.844298 169.40766 
L 279.161653 168.636954 
L 280.113719 168.591029 
L 280.431074 168.446259 
L 281.065785 168.403599 
L 281.700496 168.300931 
L 282.335207 167.7586 
L 282.652562 167.7586 
L 282.969917 167.290485 
L 283.287273 167.082985 
L 285.191405 166.829287 
L 285.50876 166.707725 
L 286.460826 166.623511 
L 286.778182 166.401397 
L 287.095537 166.401397 
L 287.412893 166.102962 
L 287.730248 166.102962 
L 288.364959 165.642795 
L 288.682314 165.642795 
L 289.63438 165.413672 
L 290.269091 165.319913 
L 290.586446 164.9915 
L 290.903802 164.9915 
L 291.538512 164.871936 
L 291.855868 164.871936 
L 292.173223 164.451757 
L 292.807934 164.423111 
L 293.125289 164.085377 
L 294.077355 164.012885 
L 294.394711 163.88844 
L 295.029421 163.152084 
L 295.981488 163.130389 
L 296.616198 162.977023 
L 296.933554 162.977023 
L 297.250909 162.809916 
L 297.568264 162.809916 
L 297.88562 162.518611 
L 298.202975 162.518611 
L 298.837686 162.035424 
L 299.155041 161.911026 
L 299.472397 161.911026 
L 300.107107 161.272072 
L 300.741818 161.18403 
L 301.059174 160.684905 
L 301.376529 160.684905 
L 301.693884 160.416117 
L 302.01124 160.416117 
L 302.328595 160.161127 
L 303.280661 160.039264 
L 303.598017 159.680317 
L 304.232727 159.593352 
L 304.867438 159.557239 
L 305.502149 159.082344 
L 305.819504 159.082344 
L 306.13686 158.827523 
L 307.088926 158.613113 
L 307.406281 157.749792 
L 307.723636 157.749792 
L 308.040992 157.294662 
L 309.627769 157.179825 
L 309.945124 156.892877 
L 310.262479 156.892877 
L 310.579835 156.668426 
L 311.214545 156.586059 
L 312.166612 156.292184 
L 312.483967 155.985274 
L 313.436033 155.913464 
L 313.753388 155.682193 
L 314.070744 155.682193 
L 315.02281 155.343372 
L 315.340165 154.721284 
L 315.657521 154.721284 
L 316.292231 154.351716 
L 317.244298 154.29075 
L 317.561653 154.29075 
L 317.879008 154.118769 
L 318.513719 153.156667 
L 318.831074 153.156667 
L 319.14843 153.032021 
L 319.78314 153.029102 
L 320.417851 152.295672 
L 320.735207 152.295672 
L 321.369917 151.690143 
L 322.639339 151.618783 
L 322.956694 150.743745 
L 323.27405 150.743745 
L 323.90876 150.347278 
L 324.226116 150.347278 
L 324.543471 149.939343 
L 325.178182 149.936867 
L 325.495537 149.584639 
L 325.812893 149.584639 
L 326.130248 149.355108 
L 326.447603 149.304126 
L 327.082314 148.68736 
L 327.717025 148.602958 
L 328.03438 148.253559 
L 328.351736 148.253559 
L 328.669091 147.939651 
L 328.986446 147.939651 
L 329.303802 147.808045 
L 329.621157 147.808045 
L 329.938512 147.387026 
L 331.842645 147.232784 
L 332.16 147.12028 
L 332.477355 146.601861 
L 332.794711 146.601861 
L 333.112066 146.463556 
L 333.429421 146.140477 
L 334.381488 146.036119 
L 335.333554 146.01242 
L 335.650909 145.747575 
L 335.968264 145.286513 
L 336.28562 145.286513 
L 336.602975 145.00233 
L 336.920331 144.523356 
L 337.555041 144.492662 
L 337.872397 144.310649 
L 338.189752 144.310649 
L 338.507107 143.753734 
L 338.824463 143.753734 
L 339.141818 143.464262 
L 339.459174 143.328532 
L 339.776529 143.328532 
L 340.093884 142.804013 
L 340.728595 142.781515 
L 341.04595 141.834199 
L 341.363306 141.834199 
L 341.680661 141.713647 
L 342.315372 141.628277 
L 342.950083 141.539189 
L 343.267438 141.204935 
L 343.902149 139.9851 
L 344.53686 139.958001 
L 344.854215 139.468085 
L 345.17157 139.303244 
L 345.806281 139.281391 
L 346.123636 138.736267 
L 346.440992 138.553677 
L 347.393058 138.500612 
L 347.710413 138.29378 
L 348.345124 138.210366 
L 348.979835 138.043249 
L 349.29719 138.043249 
L 349.614545 137.612293 
L 350.883967 137.508587 
L 351.201322 136.919066 
L 351.518678 136.603438 
L 351.836033 136.603438 
L 352.153388 136.222087 
L 352.788099 136.208565 
L 353.105455 135.936147 
L 353.42281 135.936147 
L 353.740165 135.634103 
L 354.057521 135.634103 
L 354.374876 135.371067 
L 354.692231 135.371067 
L 355.009587 135.245068 
L 355.326942 134.128241 
L 355.644298 134.128241 
L 355.961653 133.683823 
L 356.279008 133.683823 
L 356.596364 133.48555 
L 356.913719 132.972362 
L 357.231074 132.972362 
L 357.54843 132.589262 
L 357.865785 131.744184 
L 358.817851 131.643072 
L 359.135207 131.444211 
L 359.452562 130.627098 
L 359.769917 130.627098 
L 360.087273 130.178157 
L 360.404628 130.178157 
L 361.039339 130.01101 
L 361.356694 130.01101 
L 361.67405 129.821051 
L 362.30876 129.817038 
L 362.626116 129.322725 
L 363.260826 129.290777 
L 363.578182 129.063134 
L 363.895537 128.316057 
L 364.530248 128.282248 
L 364.847603 127.911565 
L 365.164959 127.911565 
L 365.482314 127.495063 
L 365.799669 127.30343 
L 366.751736 127.207898 
L 367.069091 126.610982 
L 367.386446 126.610982 
L 367.703802 126.035273 
L 368.021157 126.035273 
L 368.338512 125.368952 
L 368.655868 125.368952 
L 368.973223 125.253941 
L 369.290579 124.519812 
L 369.607934 124.519812 
L 369.925289 124.405998 
L 370.242645 124.034956 
L 370.56 123.473105 
L 370.877355 123.473105 
L 371.194711 122.505934 
L 371.512066 122.505934 
L 372.464132 121.505049 
L 372.781488 120.743034 
L 374.050909 120.460968 
L 374.368264 120.118977 
L 374.68562 119.150719 
L 375.637686 119.005204 
L 375.955041 117.949517 
L 376.272397 117.949517 
L 376.589752 117.220515 
L 376.907107 117.220515 
L 377.224463 116.993478 
L 378.493884 116.89242 
L 378.81124 115.127096 
L 379.128595 115.127096 
L 380.080661 112.657955 
L 380.398017 112.657955 
L 380.715372 112.483837 
L 381.032727 112.483837 
L 381.667438 111.159353 
L 381.984793 111.136833 
L 382.302149 110.200262 
L 382.619504 110.200262 
L 382.93686 109.793435 
L 383.57157 109.723985 
L 383.888926 109.384441 
L 384.206281 109.384441 
L 384.523636 107.703711 
L 384.840992 107.703711 
L 385.158347 106.743171 
L 385.475702 106.743171 
L 386.110413 105.762891 
L 386.427769 104.23779 
L 386.745124 104.23779 
L 387.062479 104.050147 
L 387.379835 102.646163 
L 387.69719 102.404382 
L 388.014545 101.851555 
L 388.331901 101.851555 
L 388.649256 101.340093 
L 388.966612 101.340093 
L 389.283967 101.01211 
L 389.601322 99.05439 
L 389.918678 99.05439 
L 390.236033 97.828201 
L 390.553388 95.696471 
L 390.870744 95.530552 
L 391.188099 95.530552 
L 391.82281 93.127106 
L 392.140165 93.127106 
L 392.457521 92.072661 
L 392.774876 91.493375 
L 393.092231 91.493375 
L 393.409587 89.112387 
L 393.726942 89.112387 
L 394.044298 88.634896 
L 394.679008 84.92405 
L 394.996364 84.92405 
L 395.313719 84.107997 
L 395.631074 83.864251 
L 395.94843 83.864251 
L 396.265785 77.610782 
L 396.900496 73.621758 
L 397.217851 73.621758 
L 397.535207 62.873206 
L 397.852562 62.440184 
L 398.169917 62.440184 
L 398.487273 53.568 
L 398.487273 53.568 
" clip-path="url(#p15f0b8b1c0)" style="fill: none; stroke: #ff7f0e; stroke-width: 1.5; stroke-linecap: square"/>
   </g>
   <g id="patch_3">
    <path d="M 57.6 307.584 
L 57.6 41.472 
" style="fill: none; stroke: #000000; stroke-width: 0.8; stroke-linejoin: miter; stroke-linecap: square"/>
   </g>
   <g id="patch_4">
    <path d="M 414.72 307.584 
L 414.72 41.472 
" style="fill: none; stroke: #000000; stroke-width: 0.8; stroke-linejoin: miter; stroke-linecap: square"/>
   </g>
   <g id="patch_5">
    <path d="M 57.6 307.584 
L 414.72 307.584 
" style="fill: none; stroke: #000000; stroke-width: 0.8; stroke-linejoin: miter; stroke-linecap: square"/>
   </g>
   <g id="patch_6">
    <path d="M 57.6 41.472 
L 414.72 41.472 
" style="fill: none; stroke: #000000; stroke-width: 0.8; stroke-linejoin: miter; stroke-linecap: square"/>
   </g>
   <g id="legend_1">
    <g id="patch_7">
     <path d="M 64.6 78.82825 
L 129.342187 78.82825 
Q 131.342187 78.82825 131.342187 76.82825 
L 131.342187 48.472 
Q 131.342187 46.472 129.342187 46.472 
L 64.6 46.472 
Q 62.6 46.472 62.6 48.472 
L 62.6 76.82825 
Q 62.6 78.82825 64.6 78.82825 
z
" style="fill: #ffffff; opacity: 0.8; stroke: #cccccc; stroke-linejoin: miter"/>
    </g>
    <g id="line2d_18">
     <path d="M 66.6 54.570437 
L 76.6 54.570437 
L 86.6 54.570437 
" style="fill: none; stroke: #1f77b4; stroke-width: 1.5; stroke-linecap: square"/>
    </g>
    <g id="text_18">
     <!-- qc -->
     <g transform="translate(94.6 58.070437) scale(0.1 -0.1)">
      <defs>
       <path id="DejaVuSans-71" d="M 947 1747 
Q 947 1113 1208 752 
Q 1469 391 1925 391 
Q 2381 391 2643 752 
Q 2906 1113 2906 1747 
Q 2906 2381 2643 2742 
Q 2381 3103 1925 3103 
Q 1469 3103 1208 2742 
Q 947 2381 947 1747 
z
M 2906 525 
Q 2725 213 2448 61 
Q 2172 -91 1784 -91 
Q 1150 -91 751 415 
Q 353 922 353 1747 
Q 353 2572 751 3078 
Q 1150 3584 1784 3584 
Q 2172 3584 2448 3432 
Q 2725 3281 2906 2969 
L 2906 3500 
L 3481 3500 
L 3481 -1331 
L 2906 -1331 
L 2906 525 
z
" transform="scale(0.015625)"/>
       <path id="DejaVuSans-63" d="M 3122 3366 
L 3122 2828 
Q 2878 2963 2633 3030 
Q 2388 3097 2138 3097 
Q 1578 3097 1268 2742 
Q 959 2388 959 1747 
Q 959 1106 1268 751 
Q 1578 397 2138 397 
Q 2388 397 2633 464 
Q 2878 531 3122 666 
L 3122 134 
Q 2881 22 2623 -34 
Q 2366 -91 2075 -91 
Q 1284 -91 818 406 
Q 353 903 353 1747 
Q 353 2603 823 3093 
Q 1294 3584 2113 3584 
Q 2378 3584 2631 3529 
Q 2884 3475 3122 3366 
z
" transform="scale(0.015625)"/>
      </defs>
      <use xlink:href="#DejaVuSans-71"/>
      <use xlink:href="#DejaVuSans-63" x="63.476562"/>
     </g>
    </g>
    <g id="line2d_19">
     <path d="M 66.6 69.248562 
L 76.6 69.248562 
L 86.6 69.248562 
" style="fill: none; stroke: #ff7f0e; stroke-width: 1.5; stroke-linecap: square"/>
    </g>
    <g id="text_19">
     <!-- Trotter -->
     <g transform="translate(94.6 72.748562) scale(0.1 -0.1)">
      <defs>
       <path id="DejaVuSans-54" d="M -19 4666 
L 3928 4666 
L 3928 4134 
L 2272 4134 
L 2272 0 
L 1638 0 
L 1638 4134 
L -19 4134 
L -19 4666 
z
" transform="scale(0.015625)"/>
       <path id="DejaVuSans-72" d="M 2631 2963 
Q 2534 3019 2420 3045 
Q 2306 3072 2169 3072 
Q 1681 3072 1420 2755 
Q 1159 2438 1159 1844 
L 1159 0 
L 581 0 
L 581 3500 
L 1159 3500 
L 1159 2956 
Q 1341 3275 1631 3429 
Q 1922 3584 2338 3584 
Q 2397 3584 2469 3576 
Q 2541 3569 2628 3553 
L 2631 2963 
z
" transform="scale(0.015625)"/>
       <path id="DejaVuSans-6f" d="M 1959 3097 
Q 1497 3097 1228 2736 
Q 959 2375 959 1747 
Q 959 1119 1226 758 
Q 1494 397 1959 397 
Q 2419 397 2687 759 
Q 2956 1122 2956 1747 
Q 2956 2369 2687 2733 
Q 2419 3097 1959 3097 
z
M 1959 3584 
Q 2709 3584 3137 3096 
Q 3566 2609 3566 1747 
Q 3566 888 3137 398 
Q 2709 -91 1959 -91 
Q 1206 -91 779 398 
Q 353 888 353 1747 
Q 353 2609 779 3096 
Q 1206 3584 1959 3584 
z
" transform="scale(0.015625)"/>
       <path id="DejaVuSans-65" d="M 3597 1894 
L 3597 1613 
L 953 1613 
Q 991 1019 1311 708 
Q 1631 397 2203 397 
Q 2534 397 2845 478 
Q 3156 559 3463 722 
L 3463 178 
Q 3153 47 2828 -22 
Q 2503 -91 2169 -91 
Q 1331 -91 842 396 
Q 353 884 353 1716 
Q 353 2575 817 3079 
Q 1281 3584 2069 3584 
Q 2775 3584 3186 3129 
Q 3597 2675 3597 1894 
z
M 3022 2063 
Q 3016 2534 2758 2815 
Q 2500 3097 2075 3097 
Q 1594 3097 1305 2825 
Q 1016 2553 972 2059 
L 3022 2063 
z
" transform="scale(0.015625)"/>
      </defs>
      <use xlink:href="#DejaVuSans-54"/>
      <use xlink:href="#DejaVuSans-72" x="46.333984"/>
      <use xlink:href="#DejaVuSans-6f" x="85.197266"/>
      <use xlink:href="#DejaVuSans-74" x="146.378906"/>
      <use xlink:href="#DejaVuSans-74" x="185.587891"/>
      <use xlink:href="#DejaVuSans-65" x="224.796875"/>
      <use xlink:href="#DejaVuSans-72" x="286.320312"/>
     </g>
    </g>
   </g>
  </g>
 </g>
 <defs>
  <clipPath id="p15f0b8b1c0">
   <rect x="57.6" y="41.472" width="357.12" height="266.112"/>
  </clipPath>
 </defs>
</svg>
