<?xml version="1.0" encoding="utf-8" standalone="no"?>
<!DOCTYPE svg PUBLIC "-//W3C//DTD SVG 1.1//EN"
  "http://www.w3.org/Graphics/SVG/1.1/DTD/svg11.dtd">
<svg xmlns:xlink="http://www.w3.org/1999/xlink" width="460.8pt" height="345.6pt" viewBox="0 0 460.8 345.6" xmlns="http://www.w3.org/2000/svg" version="1.1">
 <metadata>
  <rdf:RDF xmlns:dc="http://purl.org/dc/elements/1.1/" xmlns:cc="http://creativecommons.org/ns#" xmlns:rdf="http://www.w3.org/1999/02/22-rdf-syntax-ns#">
   <cc:Work>
    <dc:type rdf:resource="http://purl.org/dc/dcmitype/StillImage"/>
    <dc:date>2024-07-05T11:37:58.601119</dc:date>
    <dc:format>image/svg+xml</dc:format>
    <dc:creator>
     <cc:Agent>
      <dc:title>Matplotlib v3.7.1, https://matplotlib.org/</dc:title>
     </cc:Agent>
    </dc:creator>
   </cc:Work>
  </rdf:RDF>
 </metadata>
 <defs>
  <style type="text/css">*{stroke-linejoin: round; stroke-linecap: butt}</style>
 </defs>
 <g id="figure_1">
  <g id="patch_1">
   <path d="M 0 345.6 
L 460.8 345.6 
L 460.8 0 
L 0 0 
z
" style="fill: #ffffff"/>
  </g>
  <g id="axes_1">
   <g id="patch_2">
    <path d="M 57.6 307.584 
L 414.72 307.584 
L 414.72 41.472 
L 57.6 41.472 
z
" style="fill: #ffffff"/>
   </g>
   <g id="matplotlib.axis_1">
    <g id="xtick_1">
     <g id="line2d_1">
      <defs>
       <path id="m24523974fa" d="M 0 0 
L 0 3.5 
" style="stroke: #000000; stroke-width: 0.8"/>
      </defs>
      <g>
       <use xlink:href="#m24523974fa" x="73.832727" y="307.584" style="stroke: #000000; stroke-width: 0.8"/>
      </g>
     </g>
     <g id="text_1">
      <!-- 0 -->
      <g transform="translate(70.651477 322.182437) scale(0.1 -0.1)">
       <defs>
        <path id="DejaVuSans-30" d="M 2034 4250 
Q 1547 4250 1301 3770 
Q 1056 3291 1056 2328 
Q 1056 1369 1301 889 
Q 1547 409 2034 409 
Q 2525 409 2770 889 
Q 3016 1369 3016 2328 
Q 3016 3291 2770 3770 
Q 2525 4250 2034 4250 
z
M 2034 4750 
Q 2819 4750 3233 4129 
Q 3647 3509 3647 2328 
Q 3647 1150 3233 529 
Q 2819 -91 2034 -91 
Q 1250 -91 836 529 
Q 422 1150 422 2328 
Q 422 3509 836 4129 
Q 1250 4750 2034 4750 
z
" transform="scale(0.015625)"/>
       </defs>
       <use xlink:href="#DejaVuSans-30"/>
      </g>
     </g>
    </g>
    <g id="xtick_2">
     <g id="line2d_2">
      <g>
       <use xlink:href="#m24523974fa" x="137.303802" y="307.584" style="stroke: #000000; stroke-width: 0.8"/>
      </g>
     </g>
     <g id="text_2">
      <!-- 200 -->
      <g transform="translate(127.760052 322.182437) scale(0.1 -0.1)">
       <defs>
        <path id="DejaVuSans-32" d="M 1228 531 
L 3431 531 
L 3431 0 
L 469 0 
L 469 531 
Q 828 903 1448 1529 
Q 2069 2156 2228 2338 
Q 2531 2678 2651 2914 
Q 2772 3150 2772 3378 
Q 2772 3750 2511 3984 
Q 2250 4219 1831 4219 
Q 1534 4219 1204 4116 
Q 875 4013 500 3803 
L 500 4441 
Q 881 4594 1212 4672 
Q 1544 4750 1819 4750 
Q 2544 4750 2975 4387 
Q 3406 4025 3406 3419 
Q 3406 3131 3298 2873 
Q 3191 2616 2906 2266 
Q 2828 2175 2409 1742 
Q 1991 1309 1228 531 
z
" transform="scale(0.015625)"/>
       </defs>
       <use xlink:href="#DejaVuSans-32"/>
       <use xlink:href="#DejaVuSans-30" x="63.623047"/>
       <use xlink:href="#DejaVuSans-30" x="127.246094"/>
      </g>
     </g>
    </g>
    <g id="xtick_3">
     <g id="line2d_3">
      <g>
       <use xlink:href="#m24523974fa" x="200.774876" y="307.584" style="stroke: #000000; stroke-width: 0.8"/>
      </g>
     </g>
     <g id="text_3">
      <!-- 400 -->
      <g transform="translate(191.231126 322.182437) scale(0.1 -0.1)">
       <defs>
        <path id="DejaVuSans-34" d="M 2419 4116 
L 825 1625 
L 2419 1625 
L 2419 4116 
z
M 2253 4666 
L 3047 4666 
L 3047 1625 
L 3713 1625 
L 3713 1100 
L 3047 1100 
L 3047 0 
L 2419 0 
L 2419 1100 
L 313 1100 
L 313 1709 
L 2253 4666 
z
" transform="scale(0.015625)"/>
       </defs>
       <use xlink:href="#DejaVuSans-34"/>
       <use xlink:href="#DejaVuSans-30" x="63.623047"/>
       <use xlink:href="#DejaVuSans-30" x="127.246094"/>
      </g>
     </g>
    </g>
    <g id="xtick_4">
     <g id="line2d_4">
      <g>
       <use xlink:href="#m24523974fa" x="264.24595" y="307.584" style="stroke: #000000; stroke-width: 0.8"/>
      </g>
     </g>
     <g id="text_4">
      <!-- 600 -->
      <g transform="translate(254.7022 322.182437) scale(0.1 -0.1)">
       <defs>
        <path id="DejaVuSans-36" d="M 2113 2584 
Q 1688 2584 1439 2293 
Q 1191 2003 1191 1497 
Q 1191 994 1439 701 
Q 1688 409 2113 409 
Q 2538 409 2786 701 
Q 3034 994 3034 1497 
Q 3034 2003 2786 2293 
Q 2538 2584 2113 2584 
z
M 3366 4563 
L 3366 3988 
Q 3128 4100 2886 4159 
Q 2644 4219 2406 4219 
Q 1781 4219 1451 3797 
Q 1122 3375 1075 2522 
Q 1259 2794 1537 2939 
Q 1816 3084 2150 3084 
Q 2853 3084 3261 2657 
Q 3669 2231 3669 1497 
Q 3669 778 3244 343 
Q 2819 -91 2113 -91 
Q 1303 -91 875 529 
Q 447 1150 447 2328 
Q 447 3434 972 4092 
Q 1497 4750 2381 4750 
Q 2619 4750 2861 4703 
Q 3103 4656 3366 4563 
z
" transform="scale(0.015625)"/>
       </defs>
       <use xlink:href="#DejaVuSans-36"/>
       <use xlink:href="#DejaVuSans-30" x="63.623047"/>
       <use xlink:href="#DejaVuSans-30" x="127.246094"/>
      </g>
     </g>
    </g>
    <g id="xtick_5">
     <g id="line2d_5">
      <g>
       <use xlink:href="#m24523974fa" x="327.717025" y="307.584" style="stroke: #000000; stroke-width: 0.8"/>
      </g>
     </g>
     <g id="text_5">
      <!-- 800 -->
      <g transform="translate(318.173275 322.182437) scale(0.1 -0.1)">
       <defs>
        <path id="DejaVuSans-38" d="M 2034 2216 
Q 1584 2216 1326 1975 
Q 1069 1734 1069 1313 
Q 1069 891 1326 650 
Q 1584 409 2034 409 
Q 2484 409 2743 651 
Q 3003 894 3003 1313 
Q 3003 1734 2745 1975 
Q 2488 2216 2034 2216 
z
M 1403 2484 
Q 997 2584 770 2862 
Q 544 3141 544 3541 
Q 544 4100 942 4425 
Q 1341 4750 2034 4750 
Q 2731 4750 3128 4425 
Q 3525 4100 3525 3541 
Q 3525 3141 3298 2862 
Q 3072 2584 2669 2484 
Q 3125 2378 3379 2068 
Q 3634 1759 3634 1313 
Q 3634 634 3220 271 
Q 2806 -91 2034 -91 
Q 1263 -91 848 271 
Q 434 634 434 1313 
Q 434 1759 690 2068 
Q 947 2378 1403 2484 
z
M 1172 3481 
Q 1172 3119 1398 2916 
Q 1625 2713 2034 2713 
Q 2441 2713 2670 2916 
Q 2900 3119 2900 3481 
Q 2900 3844 2670 4047 
Q 2441 4250 2034 4250 
Q 1625 4250 1398 4047 
Q 1172 3844 1172 3481 
z
" transform="scale(0.015625)"/>
       </defs>
       <use xlink:href="#DejaVuSans-38"/>
       <use xlink:href="#DejaVuSans-30" x="63.623047"/>
       <use xlink:href="#DejaVuSans-30" x="127.246094"/>
      </g>
     </g>
    </g>
    <g id="xtick_6">
     <g id="line2d_6">
      <g>
       <use xlink:href="#m24523974fa" x="391.188099" y="307.584" style="stroke: #000000; stroke-width: 0.8"/>
      </g>
     </g>
     <g id="text_6">
      <!-- 1000 -->
      <g transform="translate(378.463099 322.182437) scale(0.1 -0.1)">
       <defs>
        <path id="DejaVuSans-31" d="M 794 531 
L 1825 531 
L 1825 4091 
L 703 3866 
L 703 4441 
L 1819 4666 
L 2450 4666 
L 2450 531 
L 3481 531 
L 3481 0 
L 794 0 
L 794 531 
z
" transform="scale(0.015625)"/>
       </defs>
       <use xlink:href="#DejaVuSans-31"/>
       <use xlink:href="#DejaVuSans-30" x="63.623047"/>
       <use xlink:href="#DejaVuSans-30" x="127.246094"/>
       <use xlink:href="#DejaVuSans-30" x="190.869141"/>
      </g>
     </g>
    </g>
    <g id="text_7">
     <!-- n -->
     <g transform="translate(232.99125 335.860562) scale(0.1 -0.1)">
      <defs>
       <path id="DejaVuSans-6e" d="M 3513 2113 
L 3513 0 
L 2938 0 
L 2938 2094 
Q 2938 2591 2744 2837 
Q 2550 3084 2163 3084 
Q 1697 3084 1428 2787 
Q 1159 2491 1159 1978 
L 1159 0 
L 581 0 
L 581 3500 
L 1159 3500 
L 1159 2956 
Q 1366 3272 1645 3428 
Q 1925 3584 2291 3584 
Q 2894 3584 3203 3211 
Q 3513 2838 3513 2113 
z
" transform="scale(0.015625)"/>
      </defs>
      <use xlink:href="#DejaVuSans-6e"/>
     </g>
    </g>
   </g>
   <g id="matplotlib.axis_2">
    <g id="ytick_1">
     <g id="line2d_7">
      <defs>
       <path id="m1fd53a0890" d="M 0 0 
L -3.5 0 
" style="stroke: #000000; stroke-width: 0.8"/>
      </defs>
      <g>
       <use xlink:href="#m1fd53a0890" x="57.6" y="287.221065" style="stroke: #000000; stroke-width: 0.8"/>
      </g>
     </g>
     <g id="text_8">
      <!-- −0.6 -->
      <g transform="translate(26.317187 291.020283) scale(0.1 -0.1)">
       <defs>
        <path id="DejaVuSans-2212" d="M 678 2272 
L 4684 2272 
L 4684 1741 
L 678 1741 
L 678 2272 
z
" transform="scale(0.015625)"/>
        <path id="DejaVuSans-2e" d="M 684 794 
L 1344 794 
L 1344 0 
L 684 0 
L 684 794 
z
" transform="scale(0.015625)"/>
       </defs>
       <use xlink:href="#DejaVuSans-2212"/>
       <use xlink:href="#DejaVuSans-30" x="83.789062"/>
       <use xlink:href="#DejaVuSans-2e" x="147.412109"/>
       <use xlink:href="#DejaVuSans-36" x="179.199219"/>
      </g>
     </g>
    </g>
    <g id="ytick_2">
     <g id="line2d_8">
      <g>
       <use xlink:href="#m1fd53a0890" x="57.6" y="254.458899" style="stroke: #000000; stroke-width: 0.8"/>
      </g>
     </g>
     <g id="text_9">
      <!-- −0.4 -->
      <g transform="translate(26.317187 258.258118) scale(0.1 -0.1)">
       <use xlink:href="#DejaVuSans-2212"/>
       <use xlink:href="#DejaVuSans-30" x="83.789062"/>
       <use xlink:href="#DejaVuSans-2e" x="147.412109"/>
       <use xlink:href="#DejaVuSans-34" x="179.199219"/>
      </g>
     </g>
    </g>
    <g id="ytick_3">
     <g id="line2d_9">
      <g>
       <use xlink:href="#m1fd53a0890" x="57.6" y="221.696734" style="stroke: #000000; stroke-width: 0.8"/>
      </g>
     </g>
     <g id="text_10">
      <!-- −0.2 -->
      <g transform="translate(26.317187 225.495953) scale(0.1 -0.1)">
       <use xlink:href="#DejaVuSans-2212"/>
       <use xlink:href="#DejaVuSans-30" x="83.789062"/>
       <use xlink:href="#DejaVuSans-2e" x="147.412109"/>
       <use xlink:href="#DejaVuSans-32" x="179.199219"/>
      </g>
     </g>
    </g>
    <g id="ytick_4">
     <g id="line2d_10">
      <g>
       <use xlink:href="#m1fd53a0890" x="57.6" y="188.934569" style="stroke: #000000; stroke-width: 0.8"/>
      </g>
     </g>
     <g id="text_11">
      <!-- 0.0 -->
      <g transform="translate(34.696875 192.733788) scale(0.1 -0.1)">
       <use xlink:href="#DejaVuSans-30"/>
       <use xlink:href="#DejaVuSans-2e" x="63.623047"/>
       <use xlink:href="#DejaVuSans-30" x="95.410156"/>
      </g>
     </g>
    </g>
    <g id="ytick_5">
     <g id="line2d_11">
      <g>
       <use xlink:href="#m1fd53a0890" x="57.6" y="156.172403" style="stroke: #000000; stroke-width: 0.8"/>
      </g>
     </g>
     <g id="text_12">
      <!-- 0.2 -->
      <g transform="translate(34.696875 159.971622) scale(0.1 -0.1)">
       <use xlink:href="#DejaVuSans-30"/>
       <use xlink:href="#DejaVuSans-2e" x="63.623047"/>
       <use xlink:href="#DejaVuSans-32" x="95.410156"/>
      </g>
     </g>
    </g>
    <g id="ytick_6">
     <g id="line2d_12">
      <g>
       <use xlink:href="#m1fd53a0890" x="57.6" y="123.410238" style="stroke: #000000; stroke-width: 0.8"/>
      </g>
     </g>
     <g id="text_13">
      <!-- 0.4 -->
      <g transform="translate(34.696875 127.209457) scale(0.1 -0.1)">
       <use xlink:href="#DejaVuSans-30"/>
       <use xlink:href="#DejaVuSans-2e" x="63.623047"/>
       <use xlink:href="#DejaVuSans-34" x="95.410156"/>
      </g>
     </g>
    </g>
    <g id="ytick_7">
     <g id="line2d_13">
      <g>
       <use xlink:href="#m1fd53a0890" x="57.6" y="90.648073" style="stroke: #000000; stroke-width: 0.8"/>
      </g>
     </g>
     <g id="text_14">
      <!-- 0.6 -->
      <g transform="translate(34.696875 94.447292) scale(0.1 -0.1)">
       <use xlink:href="#DejaVuSans-30"/>
       <use xlink:href="#DejaVuSans-2e" x="63.623047"/>
       <use xlink:href="#DejaVuSans-36" x="95.410156"/>
      </g>
     </g>
    </g>
    <g id="ytick_8">
     <g id="line2d_14">
      <g>
       <use xlink:href="#m1fd53a0890" x="57.6" y="57.885908" style="stroke: #000000; stroke-width: 0.8"/>
      </g>
     </g>
     <g id="text_15">
      <!-- 0.8 -->
      <g transform="translate(34.696875 61.685126) scale(0.1 -0.1)">
       <use xlink:href="#DejaVuSans-30"/>
       <use xlink:href="#DejaVuSans-2e" x="63.623047"/>
       <use xlink:href="#DejaVuSans-38" x="95.410156"/>
      </g>
     </g>
    </g>
    <g id="text_16">
     <!-- E*t -->
     <g transform="translate(20.2375 182.147531) rotate(-90) scale(0.1 -0.1)">
      <defs>
       <path id="DejaVuSans-45" d="M 628 4666 
L 3578 4666 
L 3578 4134 
L 1259 4134 
L 1259 2753 
L 3481 2753 
L 3481 2222 
L 1259 2222 
L 1259 531 
L 3634 531 
L 3634 0 
L 628 0 
L 628 4666 
z
" transform="scale(0.015625)"/>
       <path id="DejaVuSans-2a" d="M 3009 3897 
L 1888 3291 
L 3009 2681 
L 2828 2375 
L 1778 3009 
L 1778 1831 
L 1422 1831 
L 1422 3009 
L 372 2375 
L 191 2681 
L 1313 3291 
L 191 3897 
L 372 4206 
L 1422 3572 
L 1422 4750 
L 1778 4750 
L 1778 3572 
L 2828 4206 
L 3009 3897 
z
" transform="scale(0.015625)"/>
       <path id="DejaVuSans-74" d="M 1172 4494 
L 1172 3500 
L 2356 3500 
L 2356 3053 
L 1172 3053 
L 1172 1153 
Q 1172 725 1289 603 
Q 1406 481 1766 481 
L 2356 481 
L 2356 0 
L 1766 0 
Q 1100 0 847 248 
Q 594 497 594 1153 
L 594 3053 
L 172 3053 
L 172 3500 
L 594 3500 
L 594 4494 
L 1172 4494 
z
" transform="scale(0.015625)"/>
      </defs>
      <use xlink:href="#DejaVuSans-45"/>
      <use xlink:href="#DejaVuSans-2a" x="63.183594"/>
      <use xlink:href="#DejaVuSans-74" x="113.183594"/>
     </g>
    </g>
   </g>
   <g id="line2d_15">
    <path d="M 73.832727 295.488 
L 74.150083 294.364256 
L 75.419504 288.321804 
L 76.688926 283.766839 
L 77.006281 283.466932 
L 77.323636 282.589971 
L 77.640992 282.148385 
L 78.275702 279.693774 
L 78.593058 278.965452 
L 78.910413 277.670344 
L 79.227769 277.41929 
L 79.545124 277.026095 
L 80.49719 274.790779 
L 80.814545 274.710788 
L 81.131901 273.4909 
L 81.449256 272.717573 
L 82.083967 271.882485 
L 82.401322 270.818808 
L 82.718678 270.741807 
L 83.036033 270.361919 
L 83.670744 269.086422 
L 84.62281 267.684109 
L 85.574876 266.625957 
L 85.892231 265.823089 
L 86.526942 265.534151 
L 86.844298 264.842619 
L 87.161653 264.433914 
L 87.479008 264.297999 
L 87.796364 263.631055 
L 88.431074 262.898001 
L 88.74843 262.777305 
L 89.065785 262.27465 
L 89.38314 262.10753 
L 89.700496 261.764646 
L 90.335207 260.772654 
L 90.652562 260.613543 
L 91.287273 259.926246 
L 91.921983 259.18641 
L 92.87405 258.063553 
L 93.191405 257.899954 
L 93.826116 257.098428 
L 96.047603 255.321113 
L 96.364959 254.781558 
L 97.317025 253.96371 
L 97.63438 253.654559 
L 97.951736 253.161178 
L 98.269091 252.887596 
L 98.903802 252.662675 
L 100.490579 251.100699 
L 101.125289 250.658753 
L 101.442645 250.455102 
L 101.76 250.047246 
L 102.077355 249.883277 
L 103.346777 248.777303 
L 103.981488 248.325209 
L 104.298843 247.86774 
L 105.568264 247.05602 
L 105.88562 246.6828 
L 106.520331 246.430654 
L 106.837686 246.303908 
L 108.107107 245.176033 
L 110.963306 243.278551 
L 111.280661 242.915761 
L 111.598017 242.808895 
L 112.550083 242.159768 
L 113.184793 241.79891 
L 116.358347 239.68094 
L 116.993058 239.336173 
L 117.627769 238.804585 
L 118.89719 238.190913 
L 119.849256 237.45143 
L 120.166612 237.334633 
L 120.801322 236.985206 
L 123.974876 235.325987 
L 124.292231 235.057399 
L 124.609587 234.965182 
L 125.244298 234.48679 
L 125.561653 234.3192 
L 125.879008 234.305338 
L 127.78314 233.272798 
L 128.100496 232.93442 
L 130.004628 232.087851 
L 130.321983 231.748574 
L 130.956694 231.60667 
L 131.27405 231.27716 
L 131.591405 231.216441 
L 132.226116 230.707237 
L 133.495537 230.280393 
L 134.764959 229.670481 
L 136.03438 229.129597 
L 136.669091 228.732553 
L 136.986446 228.654588 
L 138.255868 227.843846 
L 138.573223 227.80963 
L 139.525289 227.291855 
L 142.064132 226.058119 
L 142.381488 225.990807 
L 143.016198 225.626987 
L 145.237686 224.672169 
L 145.872397 224.375965 
L 146.507107 224.187994 
L 147.141818 223.754956 
L 148.093884 223.244977 
L 148.41124 223.179938 
L 149.04595 222.867355 
L 150.315372 222.356221 
L 150.950083 222.128474 
L 151.902149 221.736278 
L 152.53686 221.349119 
L 153.488926 221.046301 
L 154.123636 220.700641 
L 155.075702 220.324931 
L 155.393058 220.047631 
L 156.345124 219.752755 
L 156.662479 219.496069 
L 157.931901 219.144608 
L 158.883967 218.56175 
L 159.518678 218.384308 
L 160.470744 217.996669 
L 162.057521 217.307062 
L 162.374876 217.12425 
L 163.009587 216.973576 
L 163.326942 216.709234 
L 163.961653 216.521603 
L 164.596364 216.174451 
L 166.18314 215.427106 
L 166.500496 215.186757 
L 167.135207 215.050804 
L 169.356694 214.183638 
L 180.464132 209.893641 
L 181.098843 209.530104 
L 182.368264 209.082825 
L 183.637686 208.59731 
L 184.272397 208.363502 
L 185.541818 207.835079 
L 185.859174 207.785671 
L 186.176529 207.593009 
L 186.493884 207.54607 
L 187.44595 207.162499 
L 189.032727 206.498689 
L 190.619504 205.986531 
L 191.888926 205.436107 
L 194.745124 204.336313 
L 195.69719 203.90724 
L 196.014545 203.825589 
L 196.649256 203.492071 
L 199.188099 202.626359 
L 200.774876 202.005193 
L 201.726942 201.609497 
L 208.07405 199.268921 
L 209.026116 198.858015 
L 209.660826 198.711554 
L 210.930248 198.182524 
L 211.882314 197.819976 
L 212.199669 197.789715 
L 212.83438 197.518014 
L 214.738512 196.830154 
L 215.373223 196.610522 
L 219.498843 195.1254 
L 220.133554 194.978336 
L 220.450909 194.714957 
L 222.355041 194.174992 
L 222.989752 193.843454 
L 223.624463 193.690418 
L 224.576529 193.219711 
L 230.606281 191.03585 
L 231.558347 190.670996 
L 232.827769 190.239198 
L 233.779835 189.858834 
L 234.414545 189.691808 
L 235.366612 189.342627 
L 236.001322 189.040572 
L 236.636033 188.767478 
L 236.953388 188.731799 
L 238.22281 188.229364 
L 238.540165 188.184081 
L 238.857521 187.938502 
L 239.492231 187.832645 
L 240.444298 187.430304 
L 242.665785 186.667101 
L 243.300496 186.350369 
L 251.551736 183.186741 
L 254.725289 182.041026 
L 255.042645 181.965389 
L 255.677355 181.648721 
L 255.994711 181.613353 
L 256.629421 181.224833 
L 257.581488 180.955715 
L 258.216198 180.667912 
L 263.928595 178.670723 
L 265.198017 178.19925 
L 272.179835 175.502857 
L 273.131901 175.022882 
L 273.766612 174.829469 
L 274.083967 174.629111 
L 274.718678 174.433659 
L 276.305455 173.891324 
L 277.257521 173.501333 
L 277.892231 173.290452 
L 278.844298 172.888886 
L 279.796364 172.524468 
L 280.74843 172.271081 
L 284.239339 170.853261 
L 284.556694 170.619871 
L 285.191405 170.45474 
L 285.826116 170.206909 
L 288.682314 169.046971 
L 289.951736 168.615432 
L 290.269091 168.348579 
L 292.173223 167.66859 
L 293.125289 167.211965 
L 294.077355 166.99182 
L 296.298843 165.960371 
L 296.933554 165.726003 
L 299.472397 164.651018 
L 299.789752 164.596589 
L 300.424463 164.281285 
L 301.376529 163.93909 
L 302.963306 163.099646 
L 303.915372 162.764619 
L 304.232727 162.614507 
L 304.550083 162.598306 
L 305.819504 162.004213 
L 306.13686 161.763609 
L 307.088926 161.529185 
L 307.723636 161.06855 
L 308.358347 160.80986 
L 315.340165 157.560864 
L 315.974876 157.291519 
L 317.879008 156.401171 
L 318.196364 156.174882 
L 319.465785 155.788411 
L 319.78314 155.573269 
L 320.417851 155.377253 
L 321.052562 155.000794 
L 321.687273 154.795514 
L 323.90876 153.548417 
L 324.543471 153.216654 
L 325.495537 152.70751 
L 328.03438 151.41773 
L 328.669091 151.142923 
L 329.621157 150.752333 
L 330.255868 150.364387 
L 330.573223 150.301412 
L 331.207934 149.818306 
L 332.794711 149.14212 
L 334.698843 148.215031 
L 335.333554 147.987081 
L 335.650909 147.841528 
L 336.28562 147.442814 
L 337.555041 146.644961 
L 339.459174 145.69345 
L 340.093884 145.35415 
L 340.41124 145.054712 
L 341.04595 144.898791 
L 341.998017 144.275603 
L 342.632727 143.948142 
L 343.267438 143.658381 
L 343.584793 143.568596 
L 345.806281 141.984533 
L 346.123636 141.710484 
L 347.075702 141.281334 
L 347.710413 140.784278 
L 348.345124 140.385434 
L 349.614545 139.825512 
L 350.249256 139.290618 
L 350.566612 139.043371 
L 351.201322 138.807769 
L 352.153388 138.087279 
L 352.470744 137.73312 
L 352.788099 137.684882 
L 353.42281 137.285725 
L 353.740165 136.887022 
L 354.057521 136.6901 
L 354.374876 136.353768 
L 354.692231 136.243972 
L 355.009587 135.929023 
L 355.326942 135.859907 
L 357.231074 134.579002 
L 357.54843 134.332231 
L 357.865785 134.23945 
L 360.404628 132.335088 
L 360.721983 132.167467 
L 361.039339 131.867159 
L 361.356694 131.730033 
L 362.30876 130.970177 
L 362.626116 130.851063 
L 363.260826 130.265443 
L 363.895537 129.738636 
L 364.212893 129.641972 
L 367.069091 127.381344 
L 367.386446 127.200682 
L 367.703802 126.726794 
L 368.338512 126.288323 
L 368.655868 126.138908 
L 370.877355 123.688565 
L 371.512066 123.087422 
L 373.098843 121.648178 
L 373.733554 120.926132 
L 374.050909 120.832596 
L 374.368264 120.60583 
L 374.68562 119.923985 
L 375.637686 119.12805 
L 375.955041 118.609275 
L 376.272397 118.507727 
L 377.224463 117.657898 
L 377.541818 117.038596 
L 378.176529 116.626502 
L 378.493884 116.049869 
L 379.128595 115.397445 
L 379.44595 115.015171 
L 380.080661 114.600218 
L 380.398017 113.969128 
L 380.715372 113.73791 
L 381.032727 112.990358 
L 381.984793 112.048431 
L 382.302149 111.709422 
L 382.93686 110.529782 
L 383.254215 110.458442 
L 384.840992 108.211198 
L 385.475702 107.467346 
L 385.793058 106.451763 
L 386.427769 105.216834 
L 386.745124 104.382605 
L 387.379835 103.523171 
L 387.69719 102.889182 
L 388.014545 102.738621 
L 388.649256 101.098117 
L 388.966612 100.951805 
L 389.283967 100.509734 
L 390.236033 98.46666 
L 391.505455 95.777702 
L 391.82281 95.426779 
L 392.140165 94.227863 
L 392.774876 93.165495 
L 393.409587 91.281793 
L 394.044298 87.845019 
L 394.361653 87.176885 
L 394.679008 84.565113 
L 395.313719 82.554219 
L 395.631074 80.446443 
L 396.58314 77.069384 
L 397.535207 69.178244 
L 398.169917 59.33793 
L 398.487273 54.938057 
L 398.487273 54.938057 
" clip-path="url(#pe534e308fe)" style="fill: none; stroke: #1f77b4; stroke-width: 1.5; stroke-linecap: square"/>
   </g>
   <g id="line2d_16">
    <path d="M 73.832727 267.467477 
L 74.150083 267.467477 
L 74.467438 266.760036 
L 74.784793 266.760036 
L 75.102149 265.75333 
L 75.419504 265.75333 
L 75.73686 265.356473 
L 76.054215 265.356473 
L 76.37157 265.189185 
L 76.688926 265.189185 
L 77.006281 264.842587 
L 77.323636 263.858078 
L 77.640992 263.858078 
L 77.958347 262.142729 
L 78.275702 262.142729 
L 78.593058 261.655754 
L 78.910413 260.757445 
L 79.227769 260.757445 
L 79.545124 259.805492 
L 79.862479 259.805492 
L 80.179835 258.781529 
L 81.131901 258.70261 
L 81.449256 258.285901 
L 81.766612 257.530352 
L 82.718678 257.434966 
L 83.353388 256.476193 
L 83.670744 256.476193 
L 83.988099 256.26547 
L 84.305455 256.26547 
L 84.940165 255.681878 
L 85.257521 254.887528 
L 86.209587 254.843967 
L 86.526942 254.565026 
L 86.844298 254.565026 
L 87.161653 254.319142 
L 87.479008 254.319142 
L 87.796364 253.201727 
L 88.113719 253.052783 
L 88.431074 252.641982 
L 88.74843 252.641982 
L 89.065785 252.364421 
L 89.38314 252.364421 
L 89.700496 252.112096 
L 90.017851 252.112096 
L 90.335207 251.90973 
L 90.652562 251.90973 
L 90.969917 251.701075 
L 91.287273 251.701075 
L 91.921983 251.248449 
L 92.239339 251.127773 
L 92.556694 250.722612 
L 93.191405 250.66723 
L 93.50876 249.676518 
L 94.460826 249.662747 
L 94.778182 249.357968 
L 95.730248 249.33845 
L 96.364959 248.71892 
L 97.63438 248.612454 
L 97.951736 247.787713 
L 98.269091 247.787713 
L 98.586446 247.606124 
L 98.903802 247.606124 
L 99.221157 247.205728 
L 99.538512 247.205728 
L 99.855868 246.964546 
L 100.490579 246.877864 
L 100.807934 246.271408 
L 101.125289 246.271408 
L 101.442645 245.996781 
L 101.76 245.996781 
L 102.394711 245.368072 
L 103.029421 245.297243 
L 103.346777 244.679007 
L 103.664132 244.679007 
L 103.981488 244.330844 
L 104.298843 244.330844 
L 104.616198 243.782825 
L 104.933554 243.782825 
L 105.568264 243.327085 
L 105.88562 243.327085 
L 106.202975 242.666261 
L 106.837686 242.590437 
L 107.155041 242.252963 
L 108.107107 242.18604 
L 108.424463 241.84747 
L 109.059174 241.8358 
L 109.376529 241.683942 
L 109.693884 241.683942 
L 110.01124 241.562274 
L 110.328595 241.235867 
L 110.64595 241.235867 
L 111.598017 240.896899 
L 111.915372 240.896899 
L 112.232727 240.442662 
L 112.867438 240.432697 
L 113.184793 240.276049 
L 113.502149 240.276049 
L 113.819504 240.0538 
L 114.13686 240.0538 
L 115.088926 239.445302 
L 115.406281 239.445302 
L 115.723636 239.134036 
L 116.040992 239.134036 
L 116.675702 238.450164 
L 117.310413 238.363957 
L 117.627769 237.75295 
L 117.945124 237.75295 
L 118.262479 236.995029 
L 118.579835 236.995029 
L 118.89719 236.715665 
L 119.214545 236.715665 
L 119.531901 236.466004 
L 119.849256 236.466004 
L 120.166612 236.119297 
L 121.753388 236.010994 
L 122.070744 235.177936 
L 123.02281 235.013657 
L 123.340165 234.788575 
L 123.974876 234.729915 
L 124.609587 233.651847 
L 124.926942 233.651847 
L 125.244298 233.457422 
L 125.561653 233.457422 
L 125.879008 233.238136 
L 126.196364 233.238136 
L 126.513719 233.025765 
L 127.14843 232.982938 
L 127.465785 232.846452 
L 127.78314 232.846452 
L 128.417851 232.389861 
L 131.90876 231.637565 
L 132.226116 231.345569 
L 132.543471 231.345569 
L 132.860826 231.150491 
L 133.178182 230.800422 
L 133.495537 230.800422 
L 133.812893 230.347301 
L 134.130248 230.347301 
L 134.447603 230.20286 
L 134.764959 230.20286 
L 135.082314 230.056048 
L 135.717025 229.955291 
L 136.351736 229.826206 
L 136.669091 229.826206 
L 136.986446 229.491124 
L 138.255868 229.415818 
L 138.890579 228.47325 
L 139.842645 228.233691 
L 140.16 227.877173 
L 140.477355 227.877173 
L 140.794711 227.406353 
L 141.112066 227.406353 
L 141.429421 227.046803 
L 142.381488 226.987037 
L 142.698843 226.81368 
L 143.968264 226.695834 
L 144.28562 226.458313 
L 144.602975 226.458313 
L 145.237686 225.769923 
L 146.507107 225.381782 
L 146.824463 224.698598 
L 147.141818 224.605195 
L 147.459174 224.246886 
L 147.776529 224.246886 
L 148.093884 224.066057 
L 148.41124 224.066057 
L 148.728595 223.468134 
L 149.04595 223.468134 
L 149.363306 223.181222 
L 149.680661 223.181222 
L 149.998017 222.706014 
L 151.267438 222.65134 
L 151.902149 222.552857 
L 152.854215 222.449816 
L 153.488926 222.359916 
L 153.806281 222.327798 
L 154.123636 222.083512 
L 154.440992 222.083512 
L 154.758347 221.751891 
L 155.075702 221.205579 
L 155.710413 221.149015 
L 156.027769 220.876852 
L 156.979835 220.791472 
L 157.29719 220.300995 
L 158.249256 220.266735 
L 158.566612 219.996737 
L 159.836033 219.947753 
L 160.470744 218.892485 
L 161.105455 218.822621 
L 161.42281 218.805323 
L 161.740165 218.173153 
L 162.692231 217.882688 
L 163.009587 217.882688 
L 163.326942 217.555477 
L 163.644298 217.555477 
L 163.961653 217.432936 
L 165.231074 217.352948 
L 165.54843 216.862275 
L 165.865785 216.601565 
L 166.817851 216.547831 
L 167.135207 216.322526 
L 167.452562 216.322526 
L 167.769917 215.399575 
L 168.404628 215.346061 
L 168.721983 215.000934 
L 169.356694 214.944618 
L 169.67405 214.530402 
L 170.30876 214.501877 
L 170.626116 214.318928 
L 171.578182 214.243266 
L 173.482314 213.800494 
L 173.799669 213.800494 
L 174.117025 213.202478 
L 175.069091 213.034543 
L 175.386446 212.688189 
L 175.703802 212.688189 
L 176.021157 212.388307 
L 176.338512 212.388307 
L 176.655868 212.022463 
L 177.290579 211.920388 
L 177.925289 211.807924 
L 179.829421 211.366089 
L 180.146777 211.070231 
L 181.098843 211.023006 
L 181.416198 210.764845 
L 181.733554 210.764845 
L 182.050909 210.628115 
L 182.368264 210.628115 
L 182.68562 210.142157 
L 183.002975 210.017198 
L 183.320331 210.017198 
L 183.637686 209.565004 
L 183.955041 209.565004 
L 184.272397 209.335273 
L 184.907107 209.331265 
L 186.81124 208.528351 
L 187.128595 208.528351 
L 187.44595 207.866356 
L 187.763306 207.644597 
L 188.080661 207.644597 
L 188.398017 207.481985 
L 189.984793 207.384493 
L 190.93686 207.313141 
L 191.254215 206.977888 
L 191.57157 206.977888 
L 191.888926 206.780461 
L 192.206281 206.780461 
L 192.523636 206.630803 
L 192.840992 206.630803 
L 193.158347 206.283408 
L 193.793058 206.207076 
L 194.110413 206.14972 
L 194.745124 205.604364 
L 195.062479 205.604364 
L 195.69719 205.339382 
L 196.331901 205.24664 
L 196.649256 204.762107 
L 196.966612 204.762107 
L 197.601322 204.509912 
L 197.918678 204.509912 
L 198.553388 204.070965 
L 199.505455 203.991518 
L 200.140165 203.954875 
L 200.774876 203.509345 
L 201.092231 203.509345 
L 201.409587 203.188199 
L 201.726942 203.188199 
L 202.044298 202.851632 
L 202.361653 202.851632 
L 202.679008 202.529329 
L 202.996364 202.529329 
L 203.313719 202.375459 
L 205.217851 202.265644 
L 205.535207 202.166266 
L 205.852562 201.477813 
L 206.487273 201.396332 
L 206.804628 201.104932 
L 207.756694 201.066876 
L 208.07405 200.813747 
L 208.391405 200.813747 
L 208.70876 200.484962 
L 209.660826 200.375983 
L 211.247603 199.862315 
L 211.564959 199.650689 
L 212.83438 199.525339 
L 213.469091 199.043884 
L 214.103802 199.007876 
L 214.421157 198.5658 
L 214.738512 198.5658 
L 215.373223 198.448788 
L 215.690579 198.039718 
L 216.007934 198.039718 
L 216.642645 197.56934 
L 217.277355 197.492208 
L 218.864132 197.399596 
L 219.181488 197.036691 
L 219.498843 197.036691 
L 219.816198 196.772915 
L 220.450909 196.741224 
L 220.768264 196.324723 
L 221.08562 196.324723 
L 221.402975 196.02742 
L 222.355041 195.931375 
L 222.672397 195.702675 
L 223.941818 195.612182 
L 224.259174 195.281555 
L 225.21124 195.059088 
L 225.528595 194.890705 
L 225.84595 194.890705 
L 226.480661 194.672684 
L 226.798017 194.672684 
L 227.115372 194.496456 
L 227.432727 194.496456 
L 228.067438 194.112644 
L 229.33686 194.064179 
L 229.654215 193.781771 
L 230.606281 193.693017 
L 230.923636 193.627761 
L 231.240992 193.157421 
L 231.875702 193.129063 
L 232.193058 192.873937 
L 232.510413 192.873937 
L 232.827769 192.425933 
L 233.145124 192.425933 
L 233.462479 192.170377 
L 234.414545 192.151972 
L 234.731901 191.756067 
L 235.366612 191.681231 
L 236.953388 191.191672 
L 237.270744 190.745475 
L 238.22281 190.686363 
L 238.857521 190.579025 
L 239.174876 190.48297 
L 239.809587 189.867597 
L 240.126942 189.747601 
L 241.079008 189.693277 
L 242.665785 189.226501 
L 242.98314 189.215785 
L 243.300496 188.939049 
L 243.617851 188.939049 
L 243.935207 188.806674 
L 245.204628 188.715508 
L 245.839339 188.611073 
L 246.156694 188.212177 
L 246.791405 188.11068 
L 248.378182 188.003788 
L 248.695537 187.604161 
L 249.012893 187.432048 
L 249.330248 187.432048 
L 249.647603 187.284399 
L 249.964959 187.284399 
L 250.282314 186.994528 
L 250.599669 186.994528 
L 250.917025 186.797332 
L 251.23438 186.762052 
L 251.551736 186.52516 
L 251.869091 186.52516 
L 252.186446 186.194903 
L 252.821157 186.148047 
L 253.138512 185.756507 
L 253.455868 185.756507 
L 253.773223 185.367333 
L 254.407934 185.322388 
L 254.725289 184.870906 
L 257.264132 184.504683 
L 257.581488 184.246659 
L 258.216198 184.241073 
L 258.533554 184.07771 
L 258.850909 184.07771 
L 259.168264 183.539581 
L 259.48562 183.539581 
L 260.120331 183.255751 
L 260.755041 183.188423 
L 261.707107 182.936584 
L 262.659174 182.828879 
L 262.976529 182.563729 
L 263.61124 182.551391 
L 263.928595 182.24535 
L 264.880661 182.061716 
L 265.198017 182.061716 
L 265.832727 181.593243 
L 266.150083 181.593243 
L 266.467438 181.402167 
L 266.784793 181.402167 
L 267.102149 181.006739 
L 268.37157 180.960099 
L 270.593058 180.418559 
L 270.910413 180.192224 
L 271.227769 180.192224 
L 272.179835 179.77948 
L 272.49719 179.214247 
L 272.814545 179.214247 
L 273.449256 178.974618 
L 273.766612 178.974618 
L 274.083967 178.743126 
L 274.401322 178.743126 
L 274.718678 178.501412 
L 275.036033 178.501412 
L 275.353388 178.177321 
L 275.988099 178.132253 
L 276.62281 177.947621 
L 276.940165 177.947621 
L 277.892231 177.658367 
L 278.209587 177.163252 
L 278.526942 177.029286 
L 278.844298 177.029286 
L 279.161653 176.207872 
L 280.113719 176.158925 
L 280.431074 176.004629 
L 281.065785 175.959163 
L 281.700496 175.84974 
L 282.335207 175.271726 
L 282.652562 175.271726 
L 282.969917 174.772812 
L 283.287273 174.551659 
L 285.191405 174.28127 
L 285.50876 174.151709 
L 286.460826 174.061955 
L 286.778182 173.825227 
L 287.095537 173.825227 
L 287.412893 173.507157 
L 287.730248 173.507157 
L 288.364959 173.016713 
L 288.682314 173.016713 
L 289.63438 172.772515 
L 290.269091 172.672587 
L 290.586446 172.322566 
L 290.903802 172.322566 
L 291.538512 172.195136 
L 291.855868 172.195136 
L 292.173223 171.747311 
L 292.807934 171.71678 
L 293.125289 171.356825 
L 294.077355 171.279563 
L 294.394711 171.14693 
L 295.029421 170.362126 
L 295.981488 170.339004 
L 296.616198 170.175548 
L 296.933554 170.175548 
L 297.250909 169.997446 
L 297.568264 169.997446 
L 297.88562 169.686974 
L 298.202975 169.686974 
L 298.837686 169.171997 
L 299.155041 169.039414 
L 299.472397 169.039414 
L 300.107107 168.35842 
L 300.741818 168.264585 
L 301.059174 167.73262 
L 301.376529 167.73262 
L 301.693884 167.446148 
L 302.01124 167.446148 
L 302.328595 167.174381 
L 303.280661 167.0445 
L 303.598017 166.661936 
L 304.232727 166.569249 
L 304.867438 166.530761 
L 305.502149 166.02462 
L 305.819504 166.02462 
L 306.13686 165.753033 
L 307.088926 165.524516 
L 307.406281 164.604393 
L 307.723636 164.604393 
L 308.040992 164.119318 
L 309.627769 163.996925 
L 309.945124 163.691097 
L 310.262479 163.691097 
L 310.579835 163.451879 
L 311.214545 163.364092 
L 312.166612 163.050883 
L 312.483967 162.723779 
L 313.436033 162.647244 
L 313.753388 162.400757 
L 314.070744 162.400757 
L 314.388099 162.281662 
L 314.705455 162.281662 
L 315.02281 162.039644 
L 315.340165 161.376626 
L 315.657521 161.376626 
L 316.292231 160.982742 
L 317.244298 160.917765 
L 317.561653 160.917765 
L 317.879008 160.734468 
L 318.513719 159.709065 
L 318.831074 159.709065 
L 319.14843 159.576218 
L 319.78314 159.573107 
L 320.417851 158.791421 
L 320.735207 158.791421 
L 321.369917 158.146052 
L 322.639339 158.069996 
L 322.956694 157.137386 
L 323.27405 157.137386 
L 323.90876 156.714834 
L 324.226116 156.714834 
L 324.543471 156.280058 
L 325.178182 156.277419 
L 325.495537 155.902017 
L 325.812893 155.902017 
L 326.130248 155.657384 
L 326.447603 155.603047 
L 327.082314 154.945702 
L 327.717025 154.855747 
L 328.03438 154.483359 
L 328.351736 154.483359 
L 328.669091 154.148797 
L 328.986446 154.148797 
L 329.303802 154.008533 
L 329.621157 154.008533 
L 329.938512 153.559812 
L 331.842645 153.395422 
L 332.16 153.275517 
L 332.477355 152.722988 
L 332.794711 152.722988 
L 333.112066 152.575583 
L 333.429421 152.231248 
L 333.746777 152.231248 
L 334.381488 152.120023 
L 335.333554 152.094765 
L 335.650909 151.812495 
L 335.968264 151.321097 
L 336.28562 151.321097 
L 336.602975 151.018217 
L 336.920331 150.507728 
L 337.555041 150.475016 
L 337.872397 150.281026 
L 338.189752 150.281026 
L 338.507107 149.68747 
L 338.824463 149.68747 
L 339.141818 149.378952 
L 339.459174 149.234292 
L 339.776529 149.234292 
L 340.093884 148.675262 
L 340.728595 148.651284 
L 341.04595 147.641639 
L 341.363306 147.641639 
L 341.680661 147.513156 
L 342.315372 147.422169 
L 342.950083 147.32722 
L 343.267438 146.970973 
L 343.902149 145.67088 
L 344.53686 145.641998 
L 344.854215 145.119848 
L 345.17157 144.944162 
L 345.806281 144.920871 
L 346.123636 144.33988 
L 346.440992 144.145277 
L 347.393058 144.088721 
L 347.710413 143.86828 
L 348.345124 143.779377 
L 348.979835 143.601266 
L 349.29719 143.601266 
L 349.614545 143.141955 
L 350.883967 143.031425 
L 351.201322 142.403118 
L 351.518678 142.066722 
L 351.836033 142.066722 
L 352.153388 141.660281 
L 352.788099 141.645869 
L 353.105455 141.355527 
L 353.42281 141.355527 
L 353.740165 141.03361 
L 354.057521 141.03361 
L 354.374876 140.753268 
L 354.692231 140.753268 
L 355.009587 140.618979 
L 355.326942 139.428671 
L 355.644298 139.428671 
L 355.961653 138.955012 
L 356.279008 138.955012 
L 356.596364 138.743694 
L 356.913719 138.196741 
L 357.231074 138.196741 
L 357.54843 137.788436 
L 357.865785 136.887756 
L 358.817851 136.779992 
L 359.135207 136.568046 
L 359.452562 135.697171 
L 359.769917 135.697171 
L 360.087273 135.218693 
L 360.404628 135.218693 
L 361.039339 135.040548 
L 361.356694 135.040548 
L 361.67405 134.838091 
L 362.30876 134.833814 
L 362.626116 134.306978 
L 363.260826 134.272928 
L 363.578182 134.030307 
L 363.895537 133.234077 
L 364.530248 133.198043 
L 364.847603 132.802971 
L 365.164959 132.802971 
L 365.482314 132.359065 
L 365.799669 132.154824 
L 366.751736 132.053006 
L 367.069091 131.416817 
L 367.386446 131.416817 
L 367.703802 130.803229 
L 368.021157 130.803229 
L 368.338512 130.093068 
L 368.655868 130.093068 
L 368.973223 129.97049 
L 369.290579 129.188059 
L 369.607934 129.188059 
L 369.925289 129.066757 
L 370.242645 128.671302 
L 370.56 128.072484 
L 370.877355 128.072484 
L 371.194711 127.041678 
L 371.512066 127.041678 
L 372.464132 125.974941 
L 372.781488 125.162789 
L 373.733554 124.862165 
L 374.050909 124.862165 
L 374.368264 124.497672 
L 374.68562 123.465709 
L 375.637686 123.310619 
L 375.955041 122.185474 
L 376.272397 122.185474 
L 376.589752 121.408507 
L 376.907107 121.408507 
L 377.224463 121.166533 
L 378.493884 121.058825 
L 378.81124 119.177353 
L 379.128595 119.177353 
L 380.080661 116.545756 
L 380.398017 116.545756 
L 380.715372 116.360182 
L 381.032727 116.360182 
L 381.667438 114.948554 
L 381.984793 114.924552 
L 382.302149 113.926359 
L 382.619504 113.926359 
L 382.93686 113.492766 
L 383.57157 113.418747 
L 383.888926 113.056862 
L 384.206281 113.056862 
L 384.523636 111.265549 
L 384.840992 111.265549 
L 385.158347 110.241811 
L 385.475702 110.241811 
L 386.110413 109.197034 
L 386.427769 107.571589 
L 386.745124 107.571589 
L 387.062479 107.3716 
L 387.379835 105.875242 
L 387.69719 105.617552 
L 388.014545 105.028353 
L 388.331901 105.028353 
L 388.649256 104.483239 
L 388.966612 104.483239 
L 389.283967 104.133677 
L 389.601322 102.04715 
L 389.918678 102.04715 
L 390.236033 100.740284 
L 390.553388 98.468297 
L 390.870744 98.291462 
L 391.188099 98.291462 
L 391.82281 95.729882 
L 392.140165 95.729882 
L 392.457521 94.606061 
L 392.774876 93.988661 
L 393.092231 93.988661 
L 393.409587 91.451016 
L 393.726942 91.451016 
L 394.044298 90.942109 
L 394.679008 86.987109 
L 394.996364 86.987109 
L 395.313719 86.117364 
L 395.631074 85.857581 
L 395.94843 85.857581 
L 396.265785 79.192667 
L 396.900496 74.941187 
L 397.217851 74.941187 
L 397.535207 63.485439 
L 397.852562 63.023926 
L 398.169917 63.023926 
L 398.487273 53.568 
L 398.487273 53.568 
" clip-path="url(#pe534e308fe)" style="fill: none; stroke: #ff7f0e; stroke-width: 1.5; stroke-linecap: square"/>
   </g>
   <g id="patch_3">
    <path d="M 57.6 307.584 
L 57.6 41.472 
" style="fill: none; stroke: #000000; stroke-width: 0.8; stroke-linejoin: miter; stroke-linecap: square"/>
   </g>
   <g id="patch_4">
    <path d="M 414.72 307.584 
L 414.72 41.472 
" style="fill: none; stroke: #000000; stroke-width: 0.8; stroke-linejoin: miter; stroke-linecap: square"/>
   </g>
   <g id="patch_5">
    <path d="M 57.6 307.584 
L 414.72 307.584 
" style="fill: none; stroke: #000000; stroke-width: 0.8; stroke-linejoin: miter; stroke-linecap: square"/>
   </g>
   <g id="patch_6">
    <path d="M 57.6 41.472 
L 414.72 41.472 
" style="fill: none; stroke: #000000; stroke-width: 0.8; stroke-linejoin: miter; stroke-linecap: square"/>
   </g>
   <g id="legend_1">
    <g id="patch_7">
     <path d="M 64.6 78.82825 
L 129.342187 78.82825 
Q 131.342187 78.82825 131.342187 76.82825 
L 131.342187 48.472 
Q 131.342187 46.472 129.342187 46.472 
L 64.6 46.472 
Q 62.6 46.472 62.6 48.472 
L 62.6 76.82825 
Q 62.6 78.82825 64.6 78.82825 
z
" style="fill: #ffffff; opacity: 0.8; stroke: #cccccc; stroke-linejoin: miter"/>
    </g>
    <g id="line2d_17">
     <path d="M 66.6 54.570437 
L 76.6 54.570437 
L 86.6 54.570437 
" style="fill: none; stroke: #1f77b4; stroke-width: 1.5; stroke-linecap: square"/>
    </g>
    <g id="text_17">
     <!-- qc -->
     <g transform="translate(94.6 58.070437) scale(0.1 -0.1)">
      <defs>
       <path id="DejaVuSans-71" d="M 947 1747 
Q 947 1113 1208 752 
Q 1469 391 1925 391 
Q 2381 391 2643 752 
Q 2906 1113 2906 1747 
Q 2906 2381 2643 2742 
Q 2381 3103 1925 3103 
Q 1469 3103 1208 2742 
Q 947 2381 947 1747 
z
M 2906 525 
Q 2725 213 2448 61 
Q 2172 -91 1784 -91 
Q 1150 -91 751 415 
Q 353 922 353 1747 
Q 353 2572 751 3078 
Q 1150 3584 1784 3584 
Q 2172 3584 2448 3432 
Q 2725 3281 2906 2969 
L 2906 3500 
L 3481 3500 
L 3481 -1331 
L 2906 -1331 
L 2906 525 
z
" transform="scale(0.015625)"/>
       <path id="DejaVuSans-63" d="M 3122 3366 
L 3122 2828 
Q 2878 2963 2633 3030 
Q 2388 3097 2138 3097 
Q 1578 3097 1268 2742 
Q 959 2388 959 1747 
Q 959 1106 1268 751 
Q 1578 397 2138 397 
Q 2388 397 2633 464 
Q 2878 531 3122 666 
L 3122 134 
Q 2881 22 2623 -34 
Q 2366 -91 2075 -91 
Q 1284 -91 818 406 
Q 353 903 353 1747 
Q 353 2603 823 3093 
Q 1294 3584 2113 3584 
Q 2378 3584 2631 3529 
Q 2884 3475 3122 3366 
z
" transform="scale(0.015625)"/>
      </defs>
      <use xlink:href="#DejaVuSans-71"/>
      <use xlink:href="#DejaVuSans-63" x="63.476562"/>
     </g>
    </g>
    <g id="line2d_18">
     <path d="M 66.6 69.248562 
L 76.6 69.248562 
L 86.6 69.248562 
" style="fill: none; stroke: #ff7f0e; stroke-width: 1.5; stroke-linecap: square"/>
    </g>
    <g id="text_18">
     <!-- Trotter -->
     <g transform="translate(94.6 72.748562) scale(0.1 -0.1)">
      <defs>
       <path id="DejaVuSans-54" d="M -19 4666 
L 3928 4666 
L 3928 4134 
L 2272 4134 
L 2272 0 
L 1638 0 
L 1638 4134 
L -19 4134 
L -19 4666 
z
" transform="scale(0.015625)"/>
       <path id="DejaVuSans-72" d="M 2631 2963 
Q 2534 3019 2420 3045 
Q 2306 3072 2169 3072 
Q 1681 3072 1420 2755 
Q 1159 2438 1159 1844 
L 1159 0 
L 581 0 
L 581 3500 
L 1159 3500 
L 1159 2956 
Q 1341 3275 1631 3429 
Q 1922 3584 2338 3584 
Q 2397 3584 2469 3576 
Q 2541 3569 2628 3553 
L 2631 2963 
z
" transform="scale(0.015625)"/>
       <path id="DejaVuSans-6f" d="M 1959 3097 
Q 1497 3097 1228 2736 
Q 959 2375 959 1747 
Q 959 1119 1226 758 
Q 1494 397 1959 397 
Q 2419 397 2687 759 
Q 2956 1122 2956 1747 
Q 2956 2369 2687 2733 
Q 2419 3097 1959 3097 
z
M 1959 3584 
Q 2709 3584 3137 3096 
Q 3566 2609 3566 1747 
Q 3566 888 3137 398 
Q 2709 -91 1959 -91 
Q 1206 -91 779 398 
Q 353 888 353 1747 
Q 353 2609 779 3096 
Q 1206 3584 1959 3584 
z
" transform="scale(0.015625)"/>
       <path id="DejaVuSans-65" d="M 3597 1894 
L 3597 1613 
L 953 1613 
Q 991 1019 1311 708 
Q 1631 397 2203 397 
Q 2534 397 2845 478 
Q 3156 559 3463 722 
L 3463 178 
Q 3153 47 2828 -22 
Q 2503 -91 2169 -91 
Q 1331 -91 842 396 
Q 353 884 353 1716 
Q 353 2575 817 3079 
Q 1281 3584 2069 3584 
Q 2775 3584 3186 3129 
Q 3597 2675 3597 1894 
z
M 3022 2063 
Q 3016 2534 2758 2815 
Q 2500 3097 2075 3097 
Q 1594 3097 1305 2825 
Q 1016 2553 972 2059 
L 3022 2063 
z
" transform="scale(0.015625)"/>
      </defs>
      <use xlink:href="#DejaVuSans-54"/>
      <use xlink:href="#DejaVuSans-72" x="46.333984"/>
      <use xlink:href="#DejaVuSans-6f" x="85.197266"/>
      <use xlink:href="#DejaVuSans-74" x="146.378906"/>
      <use xlink:href="#DejaVuSans-74" x="185.587891"/>
      <use xlink:href="#DejaVuSans-65" x="224.796875"/>
      <use xlink:href="#DejaVuSans-72" x="286.320312"/>
     </g>
    </g>
   </g>
  </g>
 </g>
 <defs>
  <clipPath id="pe534e308fe">
   <rect x="57.6" y="41.472" width="357.12" height="266.112"/>
  </clipPath>
 </defs>
</svg>
