<?xml version="1.0" encoding="utf-8" standalone="no"?>
<!DOCTYPE svg PUBLIC "-//W3C//DTD SVG 1.1//EN"
  "http://www.w3.org/Graphics/SVG/1.1/DTD/svg11.dtd">
<svg xmlns:xlink="http://www.w3.org/1999/xlink" width="460.8pt" height="345.6pt" viewBox="0 0 460.8 345.6" xmlns="http://www.w3.org/2000/svg" version="1.1">
 <metadata>
  <rdf:RDF xmlns:dc="http://purl.org/dc/elements/1.1/" xmlns:cc="http://creativecommons.org/ns#" xmlns:rdf="http://www.w3.org/1999/02/22-rdf-syntax-ns#">
   <cc:Work>
    <dc:type rdf:resource="http://purl.org/dc/dcmitype/StillImage"/>
    <dc:date>2024-07-14T11:20:10.431466</dc:date>
    <dc:format>image/svg+xml</dc:format>
    <dc:creator>
     <cc:Agent>
      <dc:title>Matplotlib v3.7.1, https://matplotlib.org/</dc:title>
     </cc:Agent>
    </dc:creator>
   </cc:Work>
  </rdf:RDF>
 </metadata>
 <defs>
  <style type="text/css">*{stroke-linejoin: round; stroke-linecap: butt}</style>
 </defs>
 <g id="figure_1">
  <g id="patch_1">
   <path d="M 0 345.6 
L 460.8 345.6 
L 460.8 0 
L 0 0 
z
" style="fill: #ffffff"/>
  </g>
  <g id="axes_1">
   <g id="patch_2">
    <path d="M 57.6 307.584 
L 414.72 307.584 
L 414.72 41.472 
L 57.6 41.472 
z
" style="fill: #ffffff"/>
   </g>
   <g id="matplotlib.axis_1">
    <g id="xtick_1">
     <g id="line2d_1">
      <defs>
       <path id="mb64fd205e9" d="M 0 0 
L 0 3.5 
" style="stroke: #000000; stroke-width: 0.8"/>
      </defs>
      <g>
       <use xlink:href="#mb64fd205e9" x="73.832727" y="307.584" style="stroke: #000000; stroke-width: 0.8"/>
      </g>
     </g>
     <g id="text_1">
      <!-- 0 -->
      <g transform="translate(70.651477 322.182437) scale(0.1 -0.1)">
       <defs>
        <path id="DejaVuSans-30" d="M 2034 4250 
Q 1547 4250 1301 3770 
Q 1056 3291 1056 2328 
Q 1056 1369 1301 889 
Q 1547 409 2034 409 
Q 2525 409 2770 889 
Q 3016 1369 3016 2328 
Q 3016 3291 2770 3770 
Q 2525 4250 2034 4250 
z
M 2034 4750 
Q 2819 4750 3233 4129 
Q 3647 3509 3647 2328 
Q 3647 1150 3233 529 
Q 2819 -91 2034 -91 
Q 1250 -91 836 529 
Q 422 1150 422 2328 
Q 422 3509 836 4129 
Q 1250 4750 2034 4750 
z
" transform="scale(0.015625)"/>
       </defs>
       <use xlink:href="#DejaVuSans-30"/>
      </g>
     </g>
    </g>
    <g id="xtick_2">
     <g id="line2d_2">
      <g>
       <use xlink:href="#mb64fd205e9" x="137.303802" y="307.584" style="stroke: #000000; stroke-width: 0.8"/>
      </g>
     </g>
     <g id="text_2">
      <!-- 200 -->
      <g transform="translate(127.760052 322.182437) scale(0.1 -0.1)">
       <defs>
        <path id="DejaVuSans-32" d="M 1228 531 
L 3431 531 
L 3431 0 
L 469 0 
L 469 531 
Q 828 903 1448 1529 
Q 2069 2156 2228 2338 
Q 2531 2678 2651 2914 
Q 2772 3150 2772 3378 
Q 2772 3750 2511 3984 
Q 2250 4219 1831 4219 
Q 1534 4219 1204 4116 
Q 875 4013 500 3803 
L 500 4441 
Q 881 4594 1212 4672 
Q 1544 4750 1819 4750 
Q 2544 4750 2975 4387 
Q 3406 4025 3406 3419 
Q 3406 3131 3298 2873 
Q 3191 2616 2906 2266 
Q 2828 2175 2409 1742 
Q 1991 1309 1228 531 
z
" transform="scale(0.015625)"/>
       </defs>
       <use xlink:href="#DejaVuSans-32"/>
       <use xlink:href="#DejaVuSans-30" x="63.623047"/>
       <use xlink:href="#DejaVuSans-30" x="127.246094"/>
      </g>
     </g>
    </g>
    <g id="xtick_3">
     <g id="line2d_3">
      <g>
       <use xlink:href="#mb64fd205e9" x="200.774876" y="307.584" style="stroke: #000000; stroke-width: 0.8"/>
      </g>
     </g>
     <g id="text_3">
      <!-- 400 -->
      <g transform="translate(191.231126 322.182437) scale(0.1 -0.1)">
       <defs>
        <path id="DejaVuSans-34" d="M 2419 4116 
L 825 1625 
L 2419 1625 
L 2419 4116 
z
M 2253 4666 
L 3047 4666 
L 3047 1625 
L 3713 1625 
L 3713 1100 
L 3047 1100 
L 3047 0 
L 2419 0 
L 2419 1100 
L 313 1100 
L 313 1709 
L 2253 4666 
z
" transform="scale(0.015625)"/>
       </defs>
       <use xlink:href="#DejaVuSans-34"/>
       <use xlink:href="#DejaVuSans-30" x="63.623047"/>
       <use xlink:href="#DejaVuSans-30" x="127.246094"/>
      </g>
     </g>
    </g>
    <g id="xtick_4">
     <g id="line2d_4">
      <g>
       <use xlink:href="#mb64fd205e9" x="264.24595" y="307.584" style="stroke: #000000; stroke-width: 0.8"/>
      </g>
     </g>
     <g id="text_4">
      <!-- 600 -->
      <g transform="translate(254.7022 322.182437) scale(0.1 -0.1)">
       <defs>
        <path id="DejaVuSans-36" d="M 2113 2584 
Q 1688 2584 1439 2293 
Q 1191 2003 1191 1497 
Q 1191 994 1439 701 
Q 1688 409 2113 409 
Q 2538 409 2786 701 
Q 3034 994 3034 1497 
Q 3034 2003 2786 2293 
Q 2538 2584 2113 2584 
z
M 3366 4563 
L 3366 3988 
Q 3128 4100 2886 4159 
Q 2644 4219 2406 4219 
Q 1781 4219 1451 3797 
Q 1122 3375 1075 2522 
Q 1259 2794 1537 2939 
Q 1816 3084 2150 3084 
Q 2853 3084 3261 2657 
Q 3669 2231 3669 1497 
Q 3669 778 3244 343 
Q 2819 -91 2113 -91 
Q 1303 -91 875 529 
Q 447 1150 447 2328 
Q 447 3434 972 4092 
Q 1497 4750 2381 4750 
Q 2619 4750 2861 4703 
Q 3103 4656 3366 4563 
z
" transform="scale(0.015625)"/>
       </defs>
       <use xlink:href="#DejaVuSans-36"/>
       <use xlink:href="#DejaVuSans-30" x="63.623047"/>
       <use xlink:href="#DejaVuSans-30" x="127.246094"/>
      </g>
     </g>
    </g>
    <g id="xtick_5">
     <g id="line2d_5">
      <g>
       <use xlink:href="#mb64fd205e9" x="327.717025" y="307.584" style="stroke: #000000; stroke-width: 0.8"/>
      </g>
     </g>
     <g id="text_5">
      <!-- 800 -->
      <g transform="translate(318.173275 322.182437) scale(0.1 -0.1)">
       <defs>
        <path id="DejaVuSans-38" d="M 2034 2216 
Q 1584 2216 1326 1975 
Q 1069 1734 1069 1313 
Q 1069 891 1326 650 
Q 1584 409 2034 409 
Q 2484 409 2743 651 
Q 3003 894 3003 1313 
Q 3003 1734 2745 1975 
Q 2488 2216 2034 2216 
z
M 1403 2484 
Q 997 2584 770 2862 
Q 544 3141 544 3541 
Q 544 4100 942 4425 
Q 1341 4750 2034 4750 
Q 2731 4750 3128 4425 
Q 3525 4100 3525 3541 
Q 3525 3141 3298 2862 
Q 3072 2584 2669 2484 
Q 3125 2378 3379 2068 
Q 3634 1759 3634 1313 
Q 3634 634 3220 271 
Q 2806 -91 2034 -91 
Q 1263 -91 848 271 
Q 434 634 434 1313 
Q 434 1759 690 2068 
Q 947 2378 1403 2484 
z
M 1172 3481 
Q 1172 3119 1398 2916 
Q 1625 2713 2034 2713 
Q 2441 2713 2670 2916 
Q 2900 3119 2900 3481 
Q 2900 3844 2670 4047 
Q 2441 4250 2034 4250 
Q 1625 4250 1398 4047 
Q 1172 3844 1172 3481 
z
" transform="scale(0.015625)"/>
       </defs>
       <use xlink:href="#DejaVuSans-38"/>
       <use xlink:href="#DejaVuSans-30" x="63.623047"/>
       <use xlink:href="#DejaVuSans-30" x="127.246094"/>
      </g>
     </g>
    </g>
    <g id="xtick_6">
     <g id="line2d_6">
      <g>
       <use xlink:href="#mb64fd205e9" x="391.188099" y="307.584" style="stroke: #000000; stroke-width: 0.8"/>
      </g>
     </g>
     <g id="text_6">
      <!-- 1000 -->
      <g transform="translate(378.463099 322.182437) scale(0.1 -0.1)">
       <defs>
        <path id="DejaVuSans-31" d="M 794 531 
L 1825 531 
L 1825 4091 
L 703 3866 
L 703 4441 
L 1819 4666 
L 2450 4666 
L 2450 531 
L 3481 531 
L 3481 0 
L 794 0 
L 794 531 
z
" transform="scale(0.015625)"/>
       </defs>
       <use xlink:href="#DejaVuSans-31"/>
       <use xlink:href="#DejaVuSans-30" x="63.623047"/>
       <use xlink:href="#DejaVuSans-30" x="127.246094"/>
       <use xlink:href="#DejaVuSans-30" x="190.869141"/>
      </g>
     </g>
    </g>
    <g id="text_7">
     <!-- n -->
     <g transform="translate(232.99125 335.860562) scale(0.1 -0.1)">
      <defs>
       <path id="DejaVuSans-6e" d="M 3513 2113 
L 3513 0 
L 2938 0 
L 2938 2094 
Q 2938 2591 2744 2837 
Q 2550 3084 2163 3084 
Q 1697 3084 1428 2787 
Q 1159 2491 1159 1978 
L 1159 0 
L 581 0 
L 581 3500 
L 1159 3500 
L 1159 2956 
Q 1366 3272 1645 3428 
Q 1925 3584 2291 3584 
Q 2894 3584 3203 3211 
Q 3513 2838 3513 2113 
z
" transform="scale(0.015625)"/>
      </defs>
      <use xlink:href="#DejaVuSans-6e"/>
     </g>
    </g>
   </g>
   <g id="matplotlib.axis_2">
    <g id="ytick_1">
     <g id="line2d_7">
      <defs>
       <path id="mf4d3ca7436" d="M 0 0 
L -3.5 0 
" style="stroke: #000000; stroke-width: 0.8"/>
      </defs>
      <g>
       <use xlink:href="#mf4d3ca7436" x="57.6" y="290.098836" style="stroke: #000000; stroke-width: 0.8"/>
      </g>
     </g>
     <g id="text_8">
      <!-- −3 -->
      <g transform="translate(35.857813 293.898055) scale(0.1 -0.1)">
       <defs>
        <path id="DejaVuSans-2212" d="M 678 2272 
L 4684 2272 
L 4684 1741 
L 678 1741 
L 678 2272 
z
" transform="scale(0.015625)"/>
        <path id="DejaVuSans-33" d="M 2597 2516 
Q 3050 2419 3304 2112 
Q 3559 1806 3559 1356 
Q 3559 666 3084 287 
Q 2609 -91 1734 -91 
Q 1441 -91 1130 -33 
Q 819 25 488 141 
L 488 750 
Q 750 597 1062 519 
Q 1375 441 1716 441 
Q 2309 441 2620 675 
Q 2931 909 2931 1356 
Q 2931 1769 2642 2001 
Q 2353 2234 1838 2234 
L 1294 2234 
L 1294 2753 
L 1863 2753 
Q 2328 2753 2575 2939 
Q 2822 3125 2822 3475 
Q 2822 3834 2567 4026 
Q 2313 4219 1838 4219 
Q 1578 4219 1281 4162 
Q 984 4106 628 3988 
L 628 4550 
Q 988 4650 1302 4700 
Q 1616 4750 1894 4750 
Q 2613 4750 3031 4423 
Q 3450 4097 3450 3541 
Q 3450 3153 3228 2886 
Q 3006 2619 2597 2516 
z
" transform="scale(0.015625)"/>
       </defs>
       <use xlink:href="#DejaVuSans-2212"/>
       <use xlink:href="#DejaVuSans-33" x="83.789062"/>
      </g>
     </g>
    </g>
    <g id="ytick_2">
     <g id="line2d_8">
      <g>
       <use xlink:href="#mf4d3ca7436" x="57.6" y="251.547972" style="stroke: #000000; stroke-width: 0.8"/>
      </g>
     </g>
     <g id="text_9">
      <!-- −2 -->
      <g transform="translate(35.857813 255.347191) scale(0.1 -0.1)">
       <use xlink:href="#DejaVuSans-2212"/>
       <use xlink:href="#DejaVuSans-32" x="83.789062"/>
      </g>
     </g>
    </g>
    <g id="ytick_3">
     <g id="line2d_9">
      <g>
       <use xlink:href="#mf4d3ca7436" x="57.6" y="212.997109" style="stroke: #000000; stroke-width: 0.8"/>
      </g>
     </g>
     <g id="text_10">
      <!-- −1 -->
      <g transform="translate(35.857813 216.796328) scale(0.1 -0.1)">
       <use xlink:href="#DejaVuSans-2212"/>
       <use xlink:href="#DejaVuSans-31" x="83.789062"/>
      </g>
     </g>
    </g>
    <g id="ytick_4">
     <g id="line2d_10">
      <g>
       <use xlink:href="#mf4d3ca7436" x="57.6" y="174.446245" style="stroke: #000000; stroke-width: 0.8"/>
      </g>
     </g>
     <g id="text_11">
      <!-- 0 -->
      <g transform="translate(44.2375 178.245464) scale(0.1 -0.1)">
       <use xlink:href="#DejaVuSans-30"/>
      </g>
     </g>
    </g>
    <g id="ytick_5">
     <g id="line2d_11">
      <g>
       <use xlink:href="#mf4d3ca7436" x="57.6" y="135.895382" style="stroke: #000000; stroke-width: 0.8"/>
      </g>
     </g>
     <g id="text_12">
      <!-- 1 -->
      <g transform="translate(44.2375 139.694601) scale(0.1 -0.1)">
       <use xlink:href="#DejaVuSans-31"/>
      </g>
     </g>
    </g>
    <g id="ytick_6">
     <g id="line2d_12">
      <g>
       <use xlink:href="#mf4d3ca7436" x="57.6" y="97.344518" style="stroke: #000000; stroke-width: 0.8"/>
      </g>
     </g>
     <g id="text_13">
      <!-- 2 -->
      <g transform="translate(44.2375 101.143737) scale(0.1 -0.1)">
       <use xlink:href="#DejaVuSans-32"/>
      </g>
     </g>
    </g>
    <g id="ytick_7">
     <g id="line2d_13">
      <g>
       <use xlink:href="#mf4d3ca7436" x="57.6" y="58.793655" style="stroke: #000000; stroke-width: 0.8"/>
      </g>
     </g>
     <g id="text_14">
      <!-- 3 -->
      <g transform="translate(44.2375 62.592873) scale(0.1 -0.1)">
       <use xlink:href="#DejaVuSans-33"/>
      </g>
     </g>
    </g>
    <g id="text_15">
     <!-- E*t -->
     <g transform="translate(29.778125 182.147531) rotate(-90) scale(0.1 -0.1)">
      <defs>
       <path id="DejaVuSans-45" d="M 628 4666 
L 3578 4666 
L 3578 4134 
L 1259 4134 
L 1259 2753 
L 3481 2753 
L 3481 2222 
L 1259 2222 
L 1259 531 
L 3634 531 
L 3634 0 
L 628 0 
L 628 4666 
z
" transform="scale(0.015625)"/>
       <path id="DejaVuSans-2a" d="M 3009 3897 
L 1888 3291 
L 3009 2681 
L 2828 2375 
L 1778 3009 
L 1778 1831 
L 1422 1831 
L 1422 3009 
L 372 2375 
L 191 2681 
L 1313 3291 
L 191 3897 
L 372 4206 
L 1422 3572 
L 1422 4750 
L 1778 4750 
L 1778 3572 
L 2828 4206 
L 3009 3897 
z
" transform="scale(0.015625)"/>
       <path id="DejaVuSans-74" d="M 1172 4494 
L 1172 3500 
L 2356 3500 
L 2356 3053 
L 1172 3053 
L 1172 1153 
Q 1172 725 1289 603 
Q 1406 481 1766 481 
L 2356 481 
L 2356 0 
L 1766 0 
Q 1100 0 847 248 
Q 594 497 594 1153 
L 594 3053 
L 172 3053 
L 172 3500 
L 594 3500 
L 594 4494 
L 1172 4494 
z
" transform="scale(0.015625)"/>
      </defs>
      <use xlink:href="#DejaVuSans-45"/>
      <use xlink:href="#DejaVuSans-2a" x="63.183594"/>
      <use xlink:href="#DejaVuSans-74" x="113.183594"/>
     </g>
    </g>
   </g>
   <g id="line2d_14">
    <path d="M 73.832727 295.488 
L 74.150083 295.307621 
L 74.467438 286.115384 
L 74.784793 244.417328 
L 76.37157 243.323296 
L 76.688926 243.266976 
L 77.323636 242.618892 
L 77.958347 241.834356 
L 78.593058 241.44021 
L 78.910413 240.754924 
L 79.227769 240.606552 
L 79.545124 240.113203 
L 79.862479 239.253225 
L 80.179835 239.023604 
L 80.49719 238.993595 
L 81.131901 238.770807 
L 81.449256 238.672945 
L 81.766612 237.830346 
L 82.718678 237.421006 
L 83.036033 237.145517 
L 83.353388 237.137784 
L 83.988099 236.703177 
L 84.305455 236.543895 
L 84.62281 236.158709 
L 84.940165 236.084915 
L 85.257521 235.864858 
L 85.892231 235.738343 
L 86.526942 234.9864 
L 86.844298 234.975298 
L 87.479008 234.422464 
L 88.113719 234.285481 
L 88.74843 234.100592 
L 89.065785 233.956935 
L 89.38314 233.486319 
L 90.335207 232.955226 
L 90.652562 232.383145 
L 90.969917 232.315279 
L 91.604628 231.846496 
L 91.921983 231.743173 
L 92.556694 231.371957 
L 93.191405 231.241095 
L 93.50876 231.009332 
L 93.826116 230.531226 
L 94.460826 230.448164 
L 95.095537 230.196936 
L 95.412893 230.159775 
L 96.047603 229.881503 
L 96.364959 229.357468 
L 98.586446 228.752683 
L 99.221157 228.460426 
L 99.538512 227.898866 
L 99.855868 227.771129 
L 100.173223 227.262238 
L 100.807934 227.181397 
L 101.442645 227.018957 
L 101.76 226.99038 
L 102.077355 226.694102 
L 102.394711 226.642481 
L 102.712066 226.413147 
L 103.664132 226.115911 
L 103.981488 225.772951 
L 105.250909 225.346578 
L 105.568264 224.991043 
L 105.88562 224.874503 
L 106.520331 224.392182 
L 107.472397 224.156867 
L 107.789752 223.45107 
L 110.01124 222.671153 
L 110.328595 222.431842 
L 110.64595 222.364405 
L 111.280661 221.948125 
L 113.502149 221.256615 
L 115.406281 220.264311 
L 115.723636 220.195536 
L 116.675702 219.694958 
L 116.993058 219.658779 
L 117.627769 219.378107 
L 117.945124 219.226682 
L 118.262479 218.73258 
L 119.849256 218.384077 
L 120.483967 218.288464 
L 120.801322 218.085623 
L 121.118678 217.7385 
L 121.436033 217.634743 
L 121.753388 217.277232 
L 123.340165 216.719846 
L 124.292231 215.773566 
L 125.879008 215.468025 
L 126.196364 215.056759 
L 126.513719 214.993657 
L 127.14843 214.603425 
L 127.465785 214.176864 
L 128.100496 214.025198 
L 128.417851 213.533186 
L 130.004628 213.165056 
L 130.956694 212.941311 
L 131.591405 212.818472 
L 135.717025 211.785163 
L 136.351736 211.564335 
L 138.573223 210.886218 
L 138.890579 210.570905 
L 139.842645 210.400134 
L 140.16 210.163387 
L 140.794711 210.038332 
L 141.112066 209.975715 
L 141.429421 209.548696 
L 142.064132 209.462301 
L 142.381488 209.345428 
L 142.698843 209.072446 
L 143.016198 208.991325 
L 143.333554 208.776392 
L 143.650909 208.409918 
L 144.28562 208.224824 
L 144.920331 208.038627 
L 145.555041 207.718675 
L 147.776529 207.314828 
L 148.093884 207.231556 
L 148.41124 206.718074 
L 149.04595 206.44872 
L 150.632727 206.291148 
L 150.950083 204.688402 
L 151.267438 204.664413 
L 151.902149 204.385993 
L 152.854215 204.000053 
L 154.123636 203.530355 
L 155.393058 203.209697 
L 156.027769 203.073931 
L 156.662479 202.84246 
L 158.883967 202.447691 
L 159.836033 201.991268 
L 160.153388 201.861004 
L 160.470744 201.146909 
L 161.105455 201.003604 
L 161.42281 200.695724 
L 164.913719 199.97396 
L 165.231074 199.658476 
L 165.865785 199.474286 
L 166.18314 198.988108 
L 166.500496 198.872382 
L 166.817851 198.49593 
L 168.404628 197.975784 
L 169.356694 197.575747 
L 169.67405 197.1663 
L 169.991405 197.115384 
L 170.626116 196.755198 
L 171.895537 196.573517 
L 172.530248 196.136773 
L 172.847603 196.047529 
L 173.164959 195.428379 
L 173.482314 195.40193 
L 174.117025 195.164612 
L 175.386446 194.86231 
L 177.290579 194.353669 
L 178.56 194.151275 
L 179.512066 193.778344 
L 180.781488 193.570589 
L 181.733554 193.164464 
L 182.68562 192.80184 
L 183.002975 192.440181 
L 184.589752 192.102909 
L 185.541818 191.903399 
L 185.859174 191.800974 
L 186.176529 191.405197 
L 186.493884 191.312901 
L 186.81124 191.056178 
L 189.032727 190.668379 
L 189.350083 190.34452 
L 190.619504 189.960271 
L 190.93686 189.743328 
L 191.254215 189.678597 
L 191.57157 188.924217 
L 192.206281 188.777842 
L 192.840992 188.69261 
L 193.158347 188.187652 
L 194.110413 188.031047 
L 195.379835 187.809052 
L 198.553388 187.439824 
L 198.870744 187.058353 
L 199.505455 186.838371 
L 200.457521 186.101695 
L 201.726942 185.926829 
L 202.361653 185.689627 
L 203.313719 185.467036 
L 203.94843 185.30192 
L 204.265785 185.105676 
L 206.169917 184.727987 
L 206.487273 184.568433 
L 207.121983 184.467013 
L 212.199669 182.704556 
L 214.103802 182.220737 
L 214.421157 182.174407 
L 214.738512 181.992907 
L 215.373223 181.847066 
L 215.690579 181.651331 
L 217.277355 181.357011 
L 217.912066 180.861157 
L 220.133554 180.488731 
L 220.450909 180.061342 
L 220.768264 179.336574 
L 221.402975 179.185862 
L 222.355041 178.968247 
L 223.307107 178.775055 
L 223.941818 178.646391 
L 224.576529 178.386827 
L 228.067438 177.625225 
L 228.384793 177.436601 
L 230.606281 177.099079 
L 231.240992 176.945803 
L 234.731901 176.081839 
L 235.366612 175.984427 
L 236.001322 175.699044 
L 236.636033 175.572131 
L 237.588099 175.243984 
L 238.540165 174.93652 
L 238.857521 174.92679 
L 239.174876 174.805433 
L 239.492231 174.197788 
L 241.713719 173.825658 
L 242.98314 173.420596 
L 243.300496 173.244358 
L 245.521983 172.814342 
L 247.426116 172.327007 
L 248.060826 171.623947 
L 251.551736 170.848339 
L 252.503802 170.740103 
L 253.455868 170.169043 
L 253.773223 170.126005 
L 254.090579 169.804794 
L 255.36 169.587555 
L 255.677355 169.411922 
L 255.994711 168.860301 
L 256.629421 168.620797 
L 259.48562 168.012825 
L 259.802975 167.99388 
L 260.437686 167.811069 
L 261.072397 167.593027 
L 262.024463 167.100736 
L 262.659174 166.919676 
L 268.054215 165.651785 
L 268.37157 165.478931 
L 269.006281 165.388916 
L 269.640992 165.065337 
L 270.910413 164.569969 
L 273.131901 164.040752 
L 273.449256 163.733405 
L 274.401322 163.611788 
L 275.353388 163.275205 
L 275.988099 163.188965 
L 276.305455 163.048589 
L 276.62281 162.305846 
L 279.161653 161.738668 
L 279.479008 161.440444 
L 280.74843 161.232717 
L 281.065785 160.688234 
L 282.017851 160.474387 
L 282.652562 160.314251 
L 283.287273 160.257848 
L 283.604628 159.92868 
L 283.921983 159.896153 
L 284.239339 159.726286 
L 284.87405 159.605552 
L 285.191405 159.477379 
L 285.50876 158.644668 
L 286.460826 158.445503 
L 288.047603 158.033583 
L 290.269091 157.254696 
L 290.586446 157.215597 
L 291.221157 157.024725 
L 292.173223 156.867206 
L 292.490579 156.672765 
L 294.712066 156.250479 
L 295.346777 155.929135 
L 295.981488 155.827398 
L 296.298843 155.366719 
L 296.933554 155.289645 
L 297.568264 154.783903 
L 297.88562 154.738206 
L 298.202975 154.576869 
L 298.520331 154.113529 
L 298.837686 154.071543 
L 299.472397 153.788538 
L 301.059174 153.471599 
L 301.376529 153.232596 
L 302.963306 152.857718 
L 303.280661 152.406809 
L 303.915372 152.104493 
L 304.232727 152.004382 
L 305.502149 151.164116 
L 305.819504 151.044348 
L 306.13686 150.715016 
L 308.040992 150.369997 
L 308.993058 150.225961 
L 309.945124 150.035813 
L 310.89719 149.706607 
L 311.214545 148.955399 
L 311.849256 148.748579 
L 312.483967 148.603196 
L 313.436033 147.679712 
L 313.753388 147.228785 
L 314.705455 147.082692 
L 315.02281 147.071022 
L 315.340165 146.773234 
L 317.561653 146.288693 
L 318.196364 146.020115 
L 318.513719 145.965366 
L 318.831074 145.683052 
L 319.78314 145.543396 
L 320.417851 144.721568 
L 320.735207 144.556963 
L 321.369917 143.897937 
L 322.639339 143.643222 
L 322.956694 143.484249 
L 323.27405 142.953495 
L 324.543471 142.424065 
L 324.860826 141.964957 
L 325.495537 141.71797 
L 325.812893 141.696479 
L 326.447603 141.432212 
L 326.764959 141.395886 
L 327.399669 140.99369 
L 328.986446 140.661352 
L 329.621157 140.166143 
L 330.255868 139.88429 
L 330.573223 139.846025 
L 330.890579 139.678153 
L 331.525289 139.562421 
L 332.477355 139.158672 
L 333.112066 138.944834 
L 333.429421 138.490121 
L 334.064132 138.318532 
L 334.381488 137.968635 
L 334.698843 137.823744 
L 335.016198 136.920058 
L 335.650909 136.80835 
L 337.555041 136.412982 
L 337.872397 136.208259 
L 338.189752 136.148466 
L 339.141818 135.666514 
L 340.093884 135.536402 
L 341.04595 135.058439 
L 341.363306 134.791726 
L 342.315372 134.438226 
L 342.632727 133.148056 
L 343.267438 132.895716 
L 343.584793 132.510116 
L 344.854215 132.114278 
L 345.488926 131.99312 
L 346.123636 131.812942 
L 346.440992 131.35633 
L 346.758347 131.263115 
L 347.075702 130.886716 
L 347.710413 130.718959 
L 348.027769 130.35612 
L 348.662479 130.074785 
L 349.931901 129.841183 
L 350.249256 129.04217 
L 350.883967 128.936397 
L 351.518678 128.618071 
L 352.788099 128.213475 
L 353.42281 127.920456 
L 354.057521 127.642795 
L 355.009587 127.357318 
L 355.644298 126.873007 
L 355.961653 126.290755 
L 356.913719 125.95764 
L 357.231074 125.292357 
L 357.54843 125.213336 
L 357.865785 124.379074 
L 358.18314 124.191659 
L 358.500496 124.18183 
L 359.135207 123.841319 
L 359.452562 123.472678 
L 360.087273 123.24886 
L 360.404628 123.184727 
L 361.039339 122.712834 
L 362.30876 122.312771 
L 363.578182 122.108793 
L 364.212893 121.142307 
L 364.847603 120.835781 
L 365.482314 120.49259 
L 366.117025 119.317229 
L 366.43438 119.052881 
L 366.751736 118.97292 
L 367.069091 118.695411 
L 368.338512 118.361869 
L 368.655868 117.96281 
L 369.925289 117.660567 
L 370.242645 117.326715 
L 370.56 117.207519 
L 370.877355 116.689997 
L 371.194711 115.334775 
L 371.512066 114.677977 
L 371.829421 114.46748 
L 372.146777 113.792025 
L 373.416198 113.328338 
L 374.050909 113.162671 
L 374.368264 112.615715 
L 375.002975 112.443256 
L 375.320331 112.270215 
L 375.637686 111.643365 
L 375.955041 111.571221 
L 376.589752 110.788661 
L 376.907107 110.679344 
L 377.224463 109.969723 
L 377.541818 109.881359 
L 377.859174 109.453534 
L 378.176529 107.67095 
L 378.493884 107.61494 
L 379.128595 107.225457 
L 380.080661 106.925334 
L 380.398017 106.463935 
L 380.715372 104.734597 
L 381.032727 104.233223 
L 381.350083 104.090389 
L 381.667438 103.644163 
L 381.984793 102.657134 
L 383.888926 102.337132 
L 384.523636 101.527783 
L 385.158347 101.07968 
L 385.475702 100.040865 
L 385.793058 99.993208 
L 386.110413 98.659104 
L 386.427769 98.447791 
L 386.745124 97.848798 
L 387.062479 96.440823 
L 387.379835 95.771862 
L 388.014545 95.461514 
L 388.331901 93.792178 
L 388.649256 93.017677 
L 388.966612 92.954947 
L 389.283967 92.76064 
L 389.601322 92.082918 
L 389.918678 91.794737 
L 390.870744 91.499527 
L 391.505455 87.143851 
L 392.140165 86.936508 
L 392.774876 84.719017 
L 393.092231 84.617815 
L 393.409587 83.092462 
L 394.044298 82.592749 
L 394.361653 81.482074 
L 394.679008 81.373075 
L 394.996364 80.173881 
L 395.313719 77.270201 
L 395.631074 76.392256 
L 395.94843 76.291343 
L 396.265785 75.809351 
L 396.900496 75.557949 
L 397.217851 68.894566 
L 397.535207 66.089559 
L 397.852562 65.003041 
L 398.169917 64.880055 
L 398.487273 53.568 
L 398.487273 53.568 
" clip-path="url(#pf68ceb3439)" style="fill: none; stroke: #1f77b4; stroke-width: 1.5; stroke-linecap: square"/>
   </g>
   <g id="line2d_15">
    <path d="M 73.832727 287.764712 
L 74.150083 245.97725 
L 74.467438 245.97725 
L 74.784793 245.591084 
L 75.102149 245.591084 
L 75.419504 245.062801 
L 76.37157 244.963195 
L 76.688926 244.756689 
L 77.006281 243.729253 
L 77.323636 243.729253 
L 77.640992 243.303177 
L 77.958347 243.303177 
L 78.275702 242.449488 
L 78.593058 242.449488 
L 78.910413 242.143077 
L 79.227769 240.946485 
L 79.545124 240.946485 
L 79.862479 240.646911 
L 80.814545 240.5825 
L 81.131901 239.649721 
L 81.766612 239.534618 
L 82.083967 238.981309 
L 83.036033 238.96746 
L 83.353388 238.449371 
L 83.670744 238.449371 
L 83.988099 237.999837 
L 84.305455 237.81848 
L 84.62281 237.81848 
L 84.940165 237.617461 
L 85.257521 237.617461 
L 85.574876 237.383619 
L 85.892231 236.768657 
L 86.526942 236.700501 
L 86.844298 236.189094 
L 87.796364 236.124101 
L 88.113719 235.934074 
L 88.431074 235.934074 
L 88.74843 235.436001 
L 89.065785 235.150129 
L 89.38314 235.150129 
L 89.700496 234.880535 
L 90.017851 234.261963 
L 90.335207 234.261963 
L 90.652562 233.769741 
L 91.287273 233.692218 
L 91.604628 233.194506 
L 92.87405 233.116521 
L 93.191405 232.319736 
L 94.143471 232.218816 
L 94.460826 232.098025 
L 94.778182 232.098025 
L 95.095537 231.906856 
L 95.412893 231.906856 
L 95.730248 231.0936 
L 96.047603 231.0936 
L 96.364959 230.900835 
L 97.317025 230.864237 
L 98.269091 230.655896 
L 98.586446 230.436051 
L 98.903802 229.694869 
L 99.221157 229.694869 
L 99.538512 229.126846 
L 100.490579 229.034099 
L 100.807934 228.862513 
L 101.125289 228.862513 
L 101.442645 228.688289 
L 101.76 228.688289 
L 102.394711 228.088291 
L 103.029421 228.078325 
L 103.346777 227.592064 
L 103.664132 227.592064 
L 103.981488 227.470202 
L 104.298843 227.470202 
L 104.933554 226.806707 
L 105.250909 226.806707 
L 105.88562 226.257065 
L 106.202975 226.257065 
L 106.520331 226.086785 
L 106.837686 226.086785 
L 107.155041 225.140493 
L 108.107107 225.078727 
L 108.424463 225.078727 
L 108.741818 224.74315 
L 109.376529 224.699592 
L 109.693884 224.353069 
L 110.01124 224.353069 
L 110.328595 223.90446 
L 110.64595 223.90446 
L 110.963306 223.610166 
L 111.598017 223.522479 
L 111.915372 223.397911 
L 112.550083 223.315702 
L 112.867438 223.169196 
L 113.184793 223.169196 
L 113.502149 222.552626 
L 114.454215 222.503931 
L 114.77157 222.172906 
L 115.723636 221.73126 
L 116.040992 221.73126 
L 116.358347 221.448284 
L 116.675702 221.448284 
L 116.993058 221.301369 
L 117.310413 221.301369 
L 117.627769 220.474326 
L 119.531901 220.374994 
L 119.849256 220.247827 
L 120.166612 220.247827 
L 120.483967 219.658038 
L 120.801322 219.658038 
L 121.118678 219.107559 
L 121.436033 219.107559 
L 121.753388 218.828974 
L 122.705455 218.72372 
L 123.657521 217.622717 
L 125.244298 217.482965 
L 125.561653 217.052321 
L 125.879008 217.052321 
L 126.196364 216.663546 
L 126.513719 216.663546 
L 126.831074 216.049537 
L 127.465785 216.011223 
L 127.78314 215.282345 
L 129.369917 215.270224 
L 130.004628 214.833876 
L 131.591405 214.656066 
L 131.90876 214.347506 
L 132.543471 214.271711 
L 134.130248 214.032292 
L 134.447603 213.763149 
L 134.764959 213.763149 
L 135.082314 213.611857 
L 135.717025 213.590895 
L 136.03438 213.381457 
L 136.986446 213.378001 
L 137.303802 213.065934 
L 137.621157 213.065934 
L 137.938512 212.882479 
L 138.255868 212.445465 
L 138.890579 212.310316 
L 139.207934 212.310316 
L 139.525289 212.124476 
L 139.842645 212.124476 
L 140.16 211.894113 
L 140.477355 211.894113 
L 140.794711 211.2748 
L 141.746777 211.223873 
L 142.064132 211.100935 
L 142.381488 210.774153 
L 142.698843 210.774153 
L 143.016198 210.245044 
L 143.650909 210.244412 
L 143.968264 210.11327 
L 144.28562 210.11327 
L 144.920331 209.651766 
L 145.872397 209.578105 
L 146.507107 209.366399 
L 146.824463 209.366399 
L 147.141818 209.130411 
L 147.459174 209.130411 
L 148.093884 208.401775 
L 149.680661 208.313834 
L 149.998017 208.253564 
L 150.315372 206.52504 
L 150.632727 206.52504 
L 151.267438 206.175052 
L 151.584793 206.175052 
L 151.902149 205.868624 
L 152.53686 205.830354 
L 153.17157 205.52555 
L 153.488926 205.52555 
L 153.806281 205.196902 
L 154.758347 205.002183 
L 155.075702 205.002183 
L 155.710413 204.864139 
L 156.027769 204.864139 
L 156.345124 204.586855 
L 158.566612 204.4471 
L 158.883967 203.857395 
L 159.518678 203.849272 
L 159.836033 202.920225 
L 160.470744 202.894158 
L 160.788099 202.619712 
L 161.105455 202.615795 
L 161.42281 202.400673 
L 162.374876 202.358975 
L 162.692231 202.123733 
L 163.644298 202.078223 
L 163.961653 201.83147 
L 164.279008 201.83147 
L 164.596364 201.637349 
L 164.913719 201.637349 
L 165.231074 201.512174 
L 165.54843 200.779141 
L 165.865785 200.779141 
L 166.18314 200.370774 
L 167.135207 200.281531 
L 167.452562 199.897619 
L 168.087273 199.811414 
L 168.404628 199.474951 
L 168.721983 199.474951 
L 169.356694 198.893335 
L 169.67405 198.893335 
L 169.991405 198.586574 
L 171.260826 198.561124 
L 171.578182 198.122413 
L 171.895537 197.996453 
L 172.212893 197.996453 
L 172.530248 197.425543 
L 172.847603 197.425543 
L 173.164959 196.987437 
L 174.117025 196.904859 
L 174.43438 196.778355 
L 174.751736 196.778355 
L 175.703802 196.435852 
L 176.338512 196.388616 
L 176.655868 196.119158 
L 177.607934 196.069477 
L 178.242645 195.963272 
L 178.877355 195.907211 
L 179.194711 195.56913 
L 179.829421 195.517935 
L 180.146777 195.38264 
L 180.464132 195.38264 
L 180.781488 195.13464 
L 181.098843 195.13464 
L 181.416198 194.840544 
L 182.050909 194.818828 
L 182.368264 194.297843 
L 183.320331 194.065585 
L 183.637686 194.065585 
L 184.272397 193.883276 
L 184.589752 193.883276 
L 184.907107 193.748508 
L 185.224463 193.748508 
L 185.541818 193.154502 
L 185.859174 193.154502 
L 186.493884 192.844498 
L 187.763306 192.784432 
L 188.398017 192.602864 
L 188.715372 192.240812 
L 189.032727 192.240812 
L 189.350083 192.014009 
L 189.984793 192.005283 
L 190.302149 191.642862 
L 190.619504 191.642862 
L 190.93686 190.784984 
L 191.57157 190.681349 
L 192.206281 190.639051 
L 192.523636 189.933437 
L 193.793058 189.89337 
L 194.110413 189.737372 
L 195.69719 189.632686 
L 196.966612 189.541919 
L 197.283967 189.387091 
L 197.918678 189.36456 
L 198.236033 189.176034 
L 198.553388 188.831411 
L 198.870744 188.831411 
L 199.505455 188.074711 
L 199.82281 188.074711 
L 200.140165 187.951647 
L 200.457521 187.951647 
L 200.774876 187.725313 
L 202.044298 187.620811 
L 202.361653 187.281573 
L 203.313719 187.243364 
L 204.265785 186.851512 
L 205.535207 186.586665 
L 206.169917 186.562167 
L 206.487273 186.317862 
L 206.804628 186.317862 
L 207.121983 186.116041 
L 207.439339 186.116041 
L 208.391405 185.629064 
L 208.70876 185.629064 
L 209.343471 185.281795 
L 209.660826 185.281795 
L 209.978182 184.932212 
L 210.612893 184.856396 
L 210.930248 184.710571 
L 211.247603 184.710571 
L 211.564959 184.47278 
L 214.738512 183.811041 
L 215.055868 183.436284 
L 216.325289 183.350211 
L 216.642645 183.0898 
L 216.96 183.0898 
L 217.277355 182.743299 
L 217.594711 182.743299 
L 217.912066 182.587236 
L 219.498843 182.426024 
L 219.816198 181.981767 
L 220.133554 181.259844 
L 220.450909 181.043602 
L 220.768264 181.043602 
L 221.08562 180.915281 
L 221.402975 180.915281 
L 221.720331 180.745613 
L 223.624463 180.512096 
L 223.941818 180.199797 
L 224.893884 180.147932 
L 227.750083 179.450982 
L 228.067438 179.173706 
L 229.33686 179.097838 
L 229.97157 178.990253 
L 230.288926 178.979775 
L 230.606281 178.784806 
L 230.923636 178.784806 
L 231.240992 178.514077 
L 231.875702 178.451932 
L 232.193058 178.316632 
L 232.827769 178.273634 
L 233.145124 178.066792 
L 234.731901 177.959383 
L 235.049256 177.555785 
L 236.001322 177.527521 
L 236.318678 177.241015 
L 236.953388 177.222041 
L 237.270744 176.919776 
L 237.905455 176.801394 
L 238.540165 176.752631 
L 238.857521 176.088738 
L 239.492231 175.98839 
L 240.444298 175.851654 
L 240.761653 175.851654 
L 241.079008 175.621565 
L 241.396364 175.621565 
L 241.713719 175.364342 
L 243.300496 175.016397 
L 243.617851 174.864718 
L 245.521983 174.6956 
L 245.839339 174.441556 
L 246.47405 174.342026 
L 246.791405 174.322228 
L 247.10876 173.792494 
L 247.426116 173.530041 
L 247.743471 173.530041 
L 248.060826 173.396373 
L 248.378182 173.396373 
L 249.012893 173.069337 
L 249.330248 173.069337 
L 249.647603 172.939493 
L 249.964959 172.939493 
L 250.282314 172.758515 
L 251.551736 172.705511 
L 253.138512 172.04943 
L 253.455868 171.679289 
L 253.773223 171.679289 
L 254.407934 171.503537 
L 254.725289 171.503537 
L 255.042645 171.322631 
L 255.677355 170.512135 
L 256.629421 170.451857 
L 256.946777 170.197176 
L 257.898843 170.165029 
L 258.850909 169.91167 
L 259.168264 169.91167 
L 260.120331 169.508658 
L 260.437686 169.508658 
L 260.755041 169.145869 
L 261.072397 169.145869 
L 262.341818 168.715908 
L 263.293884 168.6807 
L 263.61124 168.326282 
L 264.24595 168.324494 
L 264.563306 168.11168 
L 265.198017 168.106586 
L 265.515372 167.953187 
L 266.784793 167.870867 
L 267.102149 167.730785 
L 267.419504 167.41414 
L 268.37157 167.319114 
L 268.688926 166.970225 
L 269.006281 166.970225 
L 269.640992 166.607166 
L 269.958347 166.444023 
L 270.910413 166.370715 
L 271.227769 166.32883 
L 271.545124 166.039382 
L 272.49719 165.955396 
L 272.814545 165.599209 
L 273.766612 165.583679 
L 274.401322 165.244727 
L 275.353388 165.143893 
L 275.670744 165.076284 
L 275.988099 164.158029 
L 276.940165 164.064811 
L 277.892231 163.848894 
L 278.209587 163.848894 
L 279.161653 163.265377 
L 279.479008 163.265377 
L 279.796364 163.105662 
L 280.113719 163.105662 
L 280.431074 162.466637 
L 281.065785 162.418663 
L 281.700496 162.302085 
L 282.335207 162.192157 
L 282.652562 162.192157 
L 283.287273 161.683925 
L 283.604628 161.683925 
L 283.921983 161.545871 
L 284.556694 161.492696 
L 284.87405 160.47054 
L 286.143471 160.363891 
L 286.460826 160.291246 
L 286.778182 160.045221 
L 287.412893 159.93594 
L 287.730248 159.520228 
L 288.999669 159.459794 
L 289.317025 159.303398 
L 289.63438 159.303398 
L 290.269091 158.847168 
L 291.538512 158.800094 
L 291.855868 158.597505 
L 292.173223 158.597505 
L 292.490579 158.418998 
L 292.807934 158.418998 
L 293.125289 158.278839 
L 293.442645 158.278839 
L 293.76 158.117182 
L 294.077355 158.117182 
L 294.394711 157.860983 
L 295.346777 157.725142 
L 295.664132 157.230092 
L 296.298843 157.207562 
L 296.616198 156.770049 
L 297.568264 156.51473 
L 297.88562 155.903621 
L 298.202975 155.903621 
L 298.520331 155.687523 
L 299.472397 155.58491 
L 299.789752 155.433635 
L 300.424463 155.411756 
L 300.741818 155.087822 
L 301.693884 154.988927 
L 302.328595 154.887188 
L 302.64595 154.30335 
L 303.280661 154.014172 
L 303.598017 154.014172 
L 303.915372 153.743105 
L 304.232727 153.233445 
L 304.550083 153.233445 
L 304.867438 152.958637 
L 305.184793 152.958637 
L 305.502149 152.5304 
L 306.454215 152.420433 
L 307.406281 152.230277 
L 308.358347 152.177152 
L 308.675702 151.968228 
L 308.993058 151.968228 
L 309.310413 151.848352 
L 309.945124 151.832103 
L 310.262479 151.689272 
L 310.579835 150.779402 
L 310.89719 150.613643 
L 311.849256 150.537911 
L 312.166612 150.083219 
L 312.483967 150.083219 
L 313.118678 149.021585 
L 314.388099 148.969479 
L 314.705455 148.558157 
L 315.340165 148.549954 
L 315.657521 148.37374 
L 316.926942 148.274779 
L 317.244298 148.004423 
L 318.831074 147.515973 
L 319.14843 147.515973 
L 319.78314 146.465646 
L 320.100496 146.465646 
L 320.735207 145.776068 
L 321.052562 145.634628 
L 322.004628 145.621846 
L 322.321983 145.416979 
L 322.639339 144.744662 
L 322.956694 144.744662 
L 323.27405 144.407325 
L 323.90876 144.350072 
L 324.543471 143.651311 
L 324.860826 143.651311 
L 325.178182 143.494842 
L 325.495537 143.494842 
L 325.812893 143.27762 
L 326.130248 143.27762 
L 326.447603 143.086833 
L 326.764959 142.665015 
L 327.717025 142.587889 
L 328.669091 142.47976 
L 328.986446 142.010157 
L 329.303802 141.796969 
L 329.938512 141.778412 
L 330.255868 141.535509 
L 330.573223 141.535509 
L 330.890579 141.337575 
L 331.207934 141.337575 
L 331.525289 141.077679 
L 332.477355 140.852913 
L 332.794711 140.283774 
L 333.429421 140.203146 
L 333.746777 139.787336 
L 334.064132 139.787336 
L 334.381488 138.805224 
L 334.698843 138.570893 
L 336.602975 138.430435 
L 338.507107 137.469447 
L 339.459174 137.458408 
L 339.776529 137.105722 
L 340.093884 137.105722 
L 340.41124 136.961555 
L 340.728595 136.610241 
L 341.04595 136.610241 
L 341.363306 136.433185 
L 341.680661 136.433185 
L 341.998017 135.015645 
L 342.315372 134.778439 
L 342.632727 134.778439 
L 342.950083 134.280216 
L 343.267438 134.280216 
L 343.584793 134.068321 
L 345.488926 133.647 
L 345.806281 133.188571 
L 346.123636 133.188571 
L 346.440992 132.740117 
L 346.758347 132.583905 
L 347.075702 132.583905 
L 347.710413 131.934325 
L 348.662479 131.863205 
L 348.979835 131.741551 
L 349.29719 131.741551 
L 349.614545 130.860659 
L 349.931901 130.860659 
L 352.788099 129.936788 
L 353.105455 129.457151 
L 353.740165 129.446 
L 354.057521 129.306694 
L 354.374876 129.306694 
L 354.692231 128.89329 
L 355.009587 128.89329 
L 355.326942 128.038044 
L 355.961653 127.949296 
L 356.279008 127.847659 
L 356.596364 127.131792 
L 356.913719 127.131792 
L 357.231074 126.162086 
L 357.865785 126.092222 
L 358.18314 125.761789 
L 358.500496 125.761789 
L 358.817851 125.31485 
L 359.135207 125.31485 
L 360.087273 124.677454 
L 360.404628 124.545089 
L 360.721983 124.545089 
L 361.039339 124.270649 
L 361.356694 124.270649 
L 361.67405 124.104429 
L 362.943471 124.023493 
L 363.578182 122.96613 
L 363.895537 122.96613 
L 364.530248 122.380268 
L 364.847603 122.380268 
L 365.482314 121.160316 
L 365.799669 120.801318 
L 366.117025 120.801318 
L 366.43438 120.510701 
L 367.386446 120.25466 
L 367.703802 120.25466 
L 368.021157 119.775581 
L 369.290579 119.60145 
L 369.607934 119.086126 
L 369.925289 119.086126 
L 370.242645 118.520415 
L 370.56 117.197 
L 370.877355 116.468501 
L 371.194711 116.468501 
L 371.512066 115.565697 
L 372.146777 115.508513 
L 372.464132 115.231338 
L 373.098843 115.171422 
L 373.416198 115.023899 
L 373.733554 114.383349 
L 374.050909 114.350375 
L 374.368264 114.157441 
L 374.68562 114.157441 
L 375.002975 113.477345 
L 375.320331 113.477345 
L 375.955041 112.5442 
L 376.272397 112.5442 
L 376.589752 111.859517 
L 376.907107 111.859517 
L 377.224463 111.245068 
L 377.541818 109.299529 
L 378.176529 109.195327 
L 378.493884 109.056132 
L 378.81124 109.056132 
L 379.128595 108.799524 
L 379.44595 108.799524 
L 379.763306 108.286955 
L 380.080661 106.556265 
L 380.398017 105.990471 
L 380.715372 105.990471 
L 381.032727 105.564394 
L 381.350083 104.493584 
L 381.984793 104.397318 
L 382.619504 104.304655 
L 383.254215 104.261885 
L 383.57157 103.594447 
L 384.206281 103.020077 
L 384.523636 103.020077 
L 384.840992 101.832378 
L 385.158347 101.832378 
L 385.475702 100.40605 
L 385.793058 100.40605 
L 386.110413 99.700394 
L 386.427769 98.218981 
L 386.745124 97.482224 
L 387.062479 97.482224 
L 387.379835 97.305393 
L 387.69719 95.620869 
L 388.014545 94.822862 
L 388.331901 94.822862 
L 388.649256 94.665491 
L 388.966612 93.83769 
L 389.283967 93.444906 
L 390.236033 93.38633 
L 390.870744 88.922962 
L 391.188099 88.922962 
L 391.505455 88.733412 
L 392.140165 86.409553 
L 392.457521 86.409553 
L 392.774876 84.836971 
L 393.092231 84.494656 
L 393.409587 84.494656 
L 393.726942 83.240226 
L 394.044298 83.240226 
L 394.361653 82.038791 
L 394.679008 79.019324 
L 394.996364 78.153667 
L 395.313719 78.153667 
L 395.631074 77.632254 
L 395.94843 77.415982 
L 396.265785 77.415982 
L 396.58314 70.722683 
L 396.900496 67.796282 
L 397.217851 66.684869 
L 397.535207 66.684869 
L 397.852562 55.225264 
L 398.169917 54.971354 
L 398.487273 54.971354 
L 398.487273 54.971354 
" clip-path="url(#pf68ceb3439)" style="fill: none; stroke: #ff7f0e; stroke-width: 1.5; stroke-linecap: square"/>
   </g>
   <g id="patch_3">
    <path d="M 57.6 307.584 
L 57.6 41.472 
" style="fill: none; stroke: #000000; stroke-width: 0.8; stroke-linejoin: miter; stroke-linecap: square"/>
   </g>
   <g id="patch_4">
    <path d="M 414.72 307.584 
L 414.72 41.472 
" style="fill: none; stroke: #000000; stroke-width: 0.8; stroke-linejoin: miter; stroke-linecap: square"/>
   </g>
   <g id="patch_5">
    <path d="M 57.6 307.584 
L 414.72 307.584 
" style="fill: none; stroke: #000000; stroke-width: 0.8; stroke-linejoin: miter; stroke-linecap: square"/>
   </g>
   <g id="patch_6">
    <path d="M 57.6 41.472 
L 414.72 41.472 
" style="fill: none; stroke: #000000; stroke-width: 0.8; stroke-linejoin: miter; stroke-linecap: square"/>
   </g>
   <g id="legend_1">
    <g id="patch_7">
     <path d="M 64.6 78.82825 
L 129.342187 78.82825 
Q 131.342187 78.82825 131.342187 76.82825 
L 131.342187 48.472 
Q 131.342187 46.472 129.342187 46.472 
L 64.6 46.472 
Q 62.6 46.472 62.6 48.472 
L 62.6 76.82825 
Q 62.6 78.82825 64.6 78.82825 
z
" style="fill: #ffffff; opacity: 0.8; stroke: #cccccc; stroke-linejoin: miter"/>
    </g>
    <g id="line2d_16">
     <path d="M 66.6 54.570437 
L 76.6 54.570437 
L 86.6 54.570437 
" style="fill: none; stroke: #1f77b4; stroke-width: 1.5; stroke-linecap: square"/>
    </g>
    <g id="text_16">
     <!-- qc -->
     <g transform="translate(94.6 58.070437) scale(0.1 -0.1)">
      <defs>
       <path id="DejaVuSans-71" d="M 947 1747 
Q 947 1113 1208 752 
Q 1469 391 1925 391 
Q 2381 391 2643 752 
Q 2906 1113 2906 1747 
Q 2906 2381 2643 2742 
Q 2381 3103 1925 3103 
Q 1469 3103 1208 2742 
Q 947 2381 947 1747 
z
M 2906 525 
Q 2725 213 2448 61 
Q 2172 -91 1784 -91 
Q 1150 -91 751 415 
Q 353 922 353 1747 
Q 353 2572 751 3078 
Q 1150 3584 1784 3584 
Q 2172 3584 2448 3432 
Q 2725 3281 2906 2969 
L 2906 3500 
L 3481 3500 
L 3481 -1331 
L 2906 -1331 
L 2906 525 
z
" transform="scale(0.015625)"/>
       <path id="DejaVuSans-63" d="M 3122 3366 
L 3122 2828 
Q 2878 2963 2633 3030 
Q 2388 3097 2138 3097 
Q 1578 3097 1268 2742 
Q 959 2388 959 1747 
Q 959 1106 1268 751 
Q 1578 397 2138 397 
Q 2388 397 2633 464 
Q 2878 531 3122 666 
L 3122 134 
Q 2881 22 2623 -34 
Q 2366 -91 2075 -91 
Q 1284 -91 818 406 
Q 353 903 353 1747 
Q 353 2603 823 3093 
Q 1294 3584 2113 3584 
Q 2378 3584 2631 3529 
Q 2884 3475 3122 3366 
z
" transform="scale(0.015625)"/>
      </defs>
      <use xlink:href="#DejaVuSans-71"/>
      <use xlink:href="#DejaVuSans-63" x="63.476562"/>
     </g>
    </g>
    <g id="line2d_17">
     <path d="M 66.6 69.248562 
L 76.6 69.248562 
L 86.6 69.248562 
" style="fill: none; stroke: #ff7f0e; stroke-width: 1.5; stroke-linecap: square"/>
    </g>
    <g id="text_17">
     <!-- Trotter -->
     <g transform="translate(94.6 72.748562) scale(0.1 -0.1)">
      <defs>
       <path id="DejaVuSans-54" d="M -19 4666 
L 3928 4666 
L 3928 4134 
L 2272 4134 
L 2272 0 
L 1638 0 
L 1638 4134 
L -19 4134 
L -19 4666 
z
" transform="scale(0.015625)"/>
       <path id="DejaVuSans-72" d="M 2631 2963 
Q 2534 3019 2420 3045 
Q 2306 3072 2169 3072 
Q 1681 3072 1420 2755 
Q 1159 2438 1159 1844 
L 1159 0 
L 581 0 
L 581 3500 
L 1159 3500 
L 1159 2956 
Q 1341 3275 1631 3429 
Q 1922 3584 2338 3584 
Q 2397 3584 2469 3576 
Q 2541 3569 2628 3553 
L 2631 2963 
z
" transform="scale(0.015625)"/>
       <path id="DejaVuSans-6f" d="M 1959 3097 
Q 1497 3097 1228 2736 
Q 959 2375 959 1747 
Q 959 1119 1226 758 
Q 1494 397 1959 397 
Q 2419 397 2687 759 
Q 2956 1122 2956 1747 
Q 2956 2369 2687 2733 
Q 2419 3097 1959 3097 
z
M 1959 3584 
Q 2709 3584 3137 3096 
Q 3566 2609 3566 1747 
Q 3566 888 3137 398 
Q 2709 -91 1959 -91 
Q 1206 -91 779 398 
Q 353 888 353 1747 
Q 353 2609 779 3096 
Q 1206 3584 1959 3584 
z
" transform="scale(0.015625)"/>
       <path id="DejaVuSans-65" d="M 3597 1894 
L 3597 1613 
L 953 1613 
Q 991 1019 1311 708 
Q 1631 397 2203 397 
Q 2534 397 2845 478 
Q 3156 559 3463 722 
L 3463 178 
Q 3153 47 2828 -22 
Q 2503 -91 2169 -91 
Q 1331 -91 842 396 
Q 353 884 353 1716 
Q 353 2575 817 3079 
Q 1281 3584 2069 3584 
Q 2775 3584 3186 3129 
Q 3597 2675 3597 1894 
z
M 3022 2063 
Q 3016 2534 2758 2815 
Q 2500 3097 2075 3097 
Q 1594 3097 1305 2825 
Q 1016 2553 972 2059 
L 3022 2063 
z
" transform="scale(0.015625)"/>
      </defs>
      <use xlink:href="#DejaVuSans-54"/>
      <use xlink:href="#DejaVuSans-72" x="46.333984"/>
      <use xlink:href="#DejaVuSans-6f" x="85.197266"/>
      <use xlink:href="#DejaVuSans-74" x="146.378906"/>
      <use xlink:href="#DejaVuSans-74" x="185.587891"/>
      <use xlink:href="#DejaVuSans-65" x="224.796875"/>
      <use xlink:href="#DejaVuSans-72" x="286.320312"/>
     </g>
    </g>
   </g>
  </g>
 </g>
 <defs>
  <clipPath id="pf68ceb3439">
   <rect x="57.6" y="41.472" width="357.12" height="266.112"/>
  </clipPath>
 </defs>
</svg>
