<?xml version="1.0" encoding="utf-8" standalone="no"?>
<!DOCTYPE svg PUBLIC "-//W3C//DTD SVG 1.1//EN"
  "http://www.w3.org/Graphics/SVG/1.1/DTD/svg11.dtd">
<svg xmlns:xlink="http://www.w3.org/1999/xlink" width="460.8pt" height="345.6pt" viewBox="0 0 460.8 345.6" xmlns="http://www.w3.org/2000/svg" version="1.1">
 <metadata>
  <rdf:RDF xmlns:dc="http://purl.org/dc/elements/1.1/" xmlns:cc="http://creativecommons.org/ns#" xmlns:rdf="http://www.w3.org/1999/02/22-rdf-syntax-ns#">
   <cc:Work>
    <dc:type rdf:resource="http://purl.org/dc/dcmitype/StillImage"/>
    <dc:date>2024-05-31T10:43:53.098939</dc:date>
    <dc:format>image/svg+xml</dc:format>
    <dc:creator>
     <cc:Agent>
      <dc:title>Matplotlib v3.7.1, https://matplotlib.org/</dc:title>
     </cc:Agent>
    </dc:creator>
   </cc:Work>
  </rdf:RDF>
 </metadata>
 <defs>
  <style type="text/css">*{stroke-linejoin: round; stroke-linecap: butt}</style>
 </defs>
 <g id="figure_1">
  <g id="patch_1">
   <path d="M 0 345.6 
L 460.8 345.6 
L 460.8 0 
L 0 0 
z
" style="fill: #ffffff"/>
  </g>
  <g id="axes_1">
   <g id="patch_2">
    <path d="M 57.6 307.584 
L 414.72 307.584 
L 414.72 41.472 
L 57.6 41.472 
z
" style="fill: #ffffff"/>
   </g>
   <g id="matplotlib.axis_1">
    <g id="xtick_1">
     <g id="line2d_1">
      <defs>
       <path id="md812fa70b6" d="M 0 0 
L 0 3.5 
" style="stroke: #000000; stroke-width: 0.8"/>
      </defs>
      <g>
       <use xlink:href="#md812fa70b6" x="73.832727" y="307.584" style="stroke: #000000; stroke-width: 0.8"/>
      </g>
     </g>
     <g id="text_1">
      <!-- 0 -->
      <g transform="translate(70.651477 322.182437) scale(0.1 -0.1)">
       <defs>
        <path id="DejaVuSans-30" d="M 2034 4250 
Q 1547 4250 1301 3770 
Q 1056 3291 1056 2328 
Q 1056 1369 1301 889 
Q 1547 409 2034 409 
Q 2525 409 2770 889 
Q 3016 1369 3016 2328 
Q 3016 3291 2770 3770 
Q 2525 4250 2034 4250 
z
M 2034 4750 
Q 2819 4750 3233 4129 
Q 3647 3509 3647 2328 
Q 3647 1150 3233 529 
Q 2819 -91 2034 -91 
Q 1250 -91 836 529 
Q 422 1150 422 2328 
Q 422 3509 836 4129 
Q 1250 4750 2034 4750 
z
" transform="scale(0.015625)"/>
       </defs>
       <use xlink:href="#DejaVuSans-30"/>
      </g>
     </g>
    </g>
    <g id="xtick_2">
     <g id="line2d_2">
      <g>
       <use xlink:href="#md812fa70b6" x="137.303802" y="307.584" style="stroke: #000000; stroke-width: 0.8"/>
      </g>
     </g>
     <g id="text_2">
      <!-- 200 -->
      <g transform="translate(127.760052 322.182437) scale(0.1 -0.1)">
       <defs>
        <path id="DejaVuSans-32" d="M 1228 531 
L 3431 531 
L 3431 0 
L 469 0 
L 469 531 
Q 828 903 1448 1529 
Q 2069 2156 2228 2338 
Q 2531 2678 2651 2914 
Q 2772 3150 2772 3378 
Q 2772 3750 2511 3984 
Q 2250 4219 1831 4219 
Q 1534 4219 1204 4116 
Q 875 4013 500 3803 
L 500 4441 
Q 881 4594 1212 4672 
Q 1544 4750 1819 4750 
Q 2544 4750 2975 4387 
Q 3406 4025 3406 3419 
Q 3406 3131 3298 2873 
Q 3191 2616 2906 2266 
Q 2828 2175 2409 1742 
Q 1991 1309 1228 531 
z
" transform="scale(0.015625)"/>
       </defs>
       <use xlink:href="#DejaVuSans-32"/>
       <use xlink:href="#DejaVuSans-30" x="63.623047"/>
       <use xlink:href="#DejaVuSans-30" x="127.246094"/>
      </g>
     </g>
    </g>
    <g id="xtick_3">
     <g id="line2d_3">
      <g>
       <use xlink:href="#md812fa70b6" x="200.774876" y="307.584" style="stroke: #000000; stroke-width: 0.8"/>
      </g>
     </g>
     <g id="text_3">
      <!-- 400 -->
      <g transform="translate(191.231126 322.182437) scale(0.1 -0.1)">
       <defs>
        <path id="DejaVuSans-34" d="M 2419 4116 
L 825 1625 
L 2419 1625 
L 2419 4116 
z
M 2253 4666 
L 3047 4666 
L 3047 1625 
L 3713 1625 
L 3713 1100 
L 3047 1100 
L 3047 0 
L 2419 0 
L 2419 1100 
L 313 1100 
L 313 1709 
L 2253 4666 
z
" transform="scale(0.015625)"/>
       </defs>
       <use xlink:href="#DejaVuSans-34"/>
       <use xlink:href="#DejaVuSans-30" x="63.623047"/>
       <use xlink:href="#DejaVuSans-30" x="127.246094"/>
      </g>
     </g>
    </g>
    <g id="xtick_4">
     <g id="line2d_4">
      <g>
       <use xlink:href="#md812fa70b6" x="264.24595" y="307.584" style="stroke: #000000; stroke-width: 0.8"/>
      </g>
     </g>
     <g id="text_4">
      <!-- 600 -->
      <g transform="translate(254.7022 322.182437) scale(0.1 -0.1)">
       <defs>
        <path id="DejaVuSans-36" d="M 2113 2584 
Q 1688 2584 1439 2293 
Q 1191 2003 1191 1497 
Q 1191 994 1439 701 
Q 1688 409 2113 409 
Q 2538 409 2786 701 
Q 3034 994 3034 1497 
Q 3034 2003 2786 2293 
Q 2538 2584 2113 2584 
z
M 3366 4563 
L 3366 3988 
Q 3128 4100 2886 4159 
Q 2644 4219 2406 4219 
Q 1781 4219 1451 3797 
Q 1122 3375 1075 2522 
Q 1259 2794 1537 2939 
Q 1816 3084 2150 3084 
Q 2853 3084 3261 2657 
Q 3669 2231 3669 1497 
Q 3669 778 3244 343 
Q 2819 -91 2113 -91 
Q 1303 -91 875 529 
Q 447 1150 447 2328 
Q 447 3434 972 4092 
Q 1497 4750 2381 4750 
Q 2619 4750 2861 4703 
Q 3103 4656 3366 4563 
z
" transform="scale(0.015625)"/>
       </defs>
       <use xlink:href="#DejaVuSans-36"/>
       <use xlink:href="#DejaVuSans-30" x="63.623047"/>
       <use xlink:href="#DejaVuSans-30" x="127.246094"/>
      </g>
     </g>
    </g>
    <g id="xtick_5">
     <g id="line2d_5">
      <g>
       <use xlink:href="#md812fa70b6" x="327.717025" y="307.584" style="stroke: #000000; stroke-width: 0.8"/>
      </g>
     </g>
     <g id="text_5">
      <!-- 800 -->
      <g transform="translate(318.173275 322.182437) scale(0.1 -0.1)">
       <defs>
        <path id="DejaVuSans-38" d="M 2034 2216 
Q 1584 2216 1326 1975 
Q 1069 1734 1069 1313 
Q 1069 891 1326 650 
Q 1584 409 2034 409 
Q 2484 409 2743 651 
Q 3003 894 3003 1313 
Q 3003 1734 2745 1975 
Q 2488 2216 2034 2216 
z
M 1403 2484 
Q 997 2584 770 2862 
Q 544 3141 544 3541 
Q 544 4100 942 4425 
Q 1341 4750 2034 4750 
Q 2731 4750 3128 4425 
Q 3525 4100 3525 3541 
Q 3525 3141 3298 2862 
Q 3072 2584 2669 2484 
Q 3125 2378 3379 2068 
Q 3634 1759 3634 1313 
Q 3634 634 3220 271 
Q 2806 -91 2034 -91 
Q 1263 -91 848 271 
Q 434 634 434 1313 
Q 434 1759 690 2068 
Q 947 2378 1403 2484 
z
M 1172 3481 
Q 1172 3119 1398 2916 
Q 1625 2713 2034 2713 
Q 2441 2713 2670 2916 
Q 2900 3119 2900 3481 
Q 2900 3844 2670 4047 
Q 2441 4250 2034 4250 
Q 1625 4250 1398 4047 
Q 1172 3844 1172 3481 
z
" transform="scale(0.015625)"/>
       </defs>
       <use xlink:href="#DejaVuSans-38"/>
       <use xlink:href="#DejaVuSans-30" x="63.623047"/>
       <use xlink:href="#DejaVuSans-30" x="127.246094"/>
      </g>
     </g>
    </g>
    <g id="xtick_6">
     <g id="line2d_6">
      <g>
       <use xlink:href="#md812fa70b6" x="391.188099" y="307.584" style="stroke: #000000; stroke-width: 0.8"/>
      </g>
     </g>
     <g id="text_6">
      <!-- 1000 -->
      <g transform="translate(378.463099 322.182437) scale(0.1 -0.1)">
       <defs>
        <path id="DejaVuSans-31" d="M 794 531 
L 1825 531 
L 1825 4091 
L 703 3866 
L 703 4441 
L 1819 4666 
L 2450 4666 
L 2450 531 
L 3481 531 
L 3481 0 
L 794 0 
L 794 531 
z
" transform="scale(0.015625)"/>
       </defs>
       <use xlink:href="#DejaVuSans-31"/>
       <use xlink:href="#DejaVuSans-30" x="63.623047"/>
       <use xlink:href="#DejaVuSans-30" x="127.246094"/>
       <use xlink:href="#DejaVuSans-30" x="190.869141"/>
      </g>
     </g>
    </g>
    <g id="text_7">
     <!-- n -->
     <g transform="translate(232.99125 335.860562) scale(0.1 -0.1)">
      <defs>
       <path id="DejaVuSans-6e" d="M 3513 2113 
L 3513 0 
L 2938 0 
L 2938 2094 
Q 2938 2591 2744 2837 
Q 2550 3084 2163 3084 
Q 1697 3084 1428 2787 
Q 1159 2491 1159 1978 
L 1159 0 
L 581 0 
L 581 3500 
L 1159 3500 
L 1159 2956 
Q 1366 3272 1645 3428 
Q 1925 3584 2291 3584 
Q 2894 3584 3203 3211 
Q 3513 2838 3513 2113 
z
" transform="scale(0.015625)"/>
      </defs>
      <use xlink:href="#DejaVuSans-6e"/>
     </g>
    </g>
   </g>
   <g id="matplotlib.axis_2">
    <g id="ytick_1">
     <g id="line2d_7">
      <defs>
       <path id="m21df842e57" d="M 0 0 
L -3.5 0 
" style="stroke: #000000; stroke-width: 0.8"/>
      </defs>
      <g>
       <use xlink:href="#m21df842e57" x="57.6" y="297.96483" style="stroke: #000000; stroke-width: 0.8"/>
      </g>
     </g>
     <g id="text_8">
      <!-- −2.0 -->
      <g transform="translate(26.317187 301.764049) scale(0.1 -0.1)">
       <defs>
        <path id="DejaVuSans-2212" d="M 678 2272 
L 4684 2272 
L 4684 1741 
L 678 1741 
L 678 2272 
z
" transform="scale(0.015625)"/>
        <path id="DejaVuSans-2e" d="M 684 794 
L 1344 794 
L 1344 0 
L 684 0 
L 684 794 
z
" transform="scale(0.015625)"/>
       </defs>
       <use xlink:href="#DejaVuSans-2212"/>
       <use xlink:href="#DejaVuSans-32" x="83.789062"/>
       <use xlink:href="#DejaVuSans-2e" x="147.412109"/>
       <use xlink:href="#DejaVuSans-30" x="179.199219"/>
      </g>
     </g>
    </g>
    <g id="ytick_2">
     <g id="line2d_8">
      <g>
       <use xlink:href="#m21df842e57" x="57.6" y="266.055481" style="stroke: #000000; stroke-width: 0.8"/>
      </g>
     </g>
     <g id="text_9">
      <!-- −1.5 -->
      <g transform="translate(26.317187 269.854699) scale(0.1 -0.1)">
       <defs>
        <path id="DejaVuSans-35" d="M 691 4666 
L 3169 4666 
L 3169 4134 
L 1269 4134 
L 1269 2991 
Q 1406 3038 1543 3061 
Q 1681 3084 1819 3084 
Q 2600 3084 3056 2656 
Q 3513 2228 3513 1497 
Q 3513 744 3044 326 
Q 2575 -91 1722 -91 
Q 1428 -91 1123 -41 
Q 819 9 494 109 
L 494 744 
Q 775 591 1075 516 
Q 1375 441 1709 441 
Q 2250 441 2565 725 
Q 2881 1009 2881 1497 
Q 2881 1984 2565 2268 
Q 2250 2553 1709 2553 
Q 1456 2553 1204 2497 
Q 953 2441 691 2322 
L 691 4666 
z
" transform="scale(0.015625)"/>
       </defs>
       <use xlink:href="#DejaVuSans-2212"/>
       <use xlink:href="#DejaVuSans-31" x="83.789062"/>
       <use xlink:href="#DejaVuSans-2e" x="147.412109"/>
       <use xlink:href="#DejaVuSans-35" x="179.199219"/>
      </g>
     </g>
    </g>
    <g id="ytick_3">
     <g id="line2d_9">
      <g>
       <use xlink:href="#m21df842e57" x="57.6" y="234.146131" style="stroke: #000000; stroke-width: 0.8"/>
      </g>
     </g>
     <g id="text_10">
      <!-- −1.0 -->
      <g transform="translate(26.317187 237.94535) scale(0.1 -0.1)">
       <use xlink:href="#DejaVuSans-2212"/>
       <use xlink:href="#DejaVuSans-31" x="83.789062"/>
       <use xlink:href="#DejaVuSans-2e" x="147.412109"/>
       <use xlink:href="#DejaVuSans-30" x="179.199219"/>
      </g>
     </g>
    </g>
    <g id="ytick_4">
     <g id="line2d_10">
      <g>
       <use xlink:href="#m21df842e57" x="57.6" y="202.236781" style="stroke: #000000; stroke-width: 0.8"/>
      </g>
     </g>
     <g id="text_11">
      <!-- −0.5 -->
      <g transform="translate(26.317187 206.036) scale(0.1 -0.1)">
       <use xlink:href="#DejaVuSans-2212"/>
       <use xlink:href="#DejaVuSans-30" x="83.789062"/>
       <use xlink:href="#DejaVuSans-2e" x="147.412109"/>
       <use xlink:href="#DejaVuSans-35" x="179.199219"/>
      </g>
     </g>
    </g>
    <g id="ytick_5">
     <g id="line2d_11">
      <g>
       <use xlink:href="#m21df842e57" x="57.6" y="170.327432" style="stroke: #000000; stroke-width: 0.8"/>
      </g>
     </g>
     <g id="text_12">
      <!-- 0.0 -->
      <g transform="translate(34.696875 174.12665) scale(0.1 -0.1)">
       <use xlink:href="#DejaVuSans-30"/>
       <use xlink:href="#DejaVuSans-2e" x="63.623047"/>
       <use xlink:href="#DejaVuSans-30" x="95.410156"/>
      </g>
     </g>
    </g>
    <g id="ytick_6">
     <g id="line2d_12">
      <g>
       <use xlink:href="#m21df842e57" x="57.6" y="138.418082" style="stroke: #000000; stroke-width: 0.8"/>
      </g>
     </g>
     <g id="text_13">
      <!-- 0.5 -->
      <g transform="translate(34.696875 142.217301) scale(0.1 -0.1)">
       <use xlink:href="#DejaVuSans-30"/>
       <use xlink:href="#DejaVuSans-2e" x="63.623047"/>
       <use xlink:href="#DejaVuSans-35" x="95.410156"/>
      </g>
     </g>
    </g>
    <g id="ytick_7">
     <g id="line2d_13">
      <g>
       <use xlink:href="#m21df842e57" x="57.6" y="106.508732" style="stroke: #000000; stroke-width: 0.8"/>
      </g>
     </g>
     <g id="text_14">
      <!-- 1.0 -->
      <g transform="translate(34.696875 110.307951) scale(0.1 -0.1)">
       <use xlink:href="#DejaVuSans-31"/>
       <use xlink:href="#DejaVuSans-2e" x="63.623047"/>
       <use xlink:href="#DejaVuSans-30" x="95.410156"/>
      </g>
     </g>
    </g>
    <g id="ytick_8">
     <g id="line2d_14">
      <g>
       <use xlink:href="#m21df842e57" x="57.6" y="74.599383" style="stroke: #000000; stroke-width: 0.8"/>
      </g>
     </g>
     <g id="text_15">
      <!-- 1.5 -->
      <g transform="translate(34.696875 78.398602) scale(0.1 -0.1)">
       <use xlink:href="#DejaVuSans-31"/>
       <use xlink:href="#DejaVuSans-2e" x="63.623047"/>
       <use xlink:href="#DejaVuSans-35" x="95.410156"/>
      </g>
     </g>
    </g>
    <g id="ytick_9">
     <g id="line2d_15">
      <g>
       <use xlink:href="#m21df842e57" x="57.6" y="42.690033" style="stroke: #000000; stroke-width: 0.8"/>
      </g>
     </g>
     <g id="text_16">
      <!-- 2.0 -->
      <g transform="translate(34.696875 46.489252) scale(0.1 -0.1)">
       <use xlink:href="#DejaVuSans-32"/>
       <use xlink:href="#DejaVuSans-2e" x="63.623047"/>
       <use xlink:href="#DejaVuSans-30" x="95.410156"/>
      </g>
     </g>
    </g>
    <g id="text_17">
     <!-- E*t -->
     <g transform="translate(20.2375 182.147531) rotate(-90) scale(0.1 -0.1)">
      <defs>
       <path id="DejaVuSans-45" d="M 628 4666 
L 3578 4666 
L 3578 4134 
L 1259 4134 
L 1259 2753 
L 3481 2753 
L 3481 2222 
L 1259 2222 
L 1259 531 
L 3634 531 
L 3634 0 
L 628 0 
L 628 4666 
z
" transform="scale(0.015625)"/>
       <path id="DejaVuSans-2a" d="M 3009 3897 
L 1888 3291 
L 3009 2681 
L 2828 2375 
L 1778 3009 
L 1778 1831 
L 1422 1831 
L 1422 3009 
L 372 2375 
L 191 2681 
L 1313 3291 
L 191 3897 
L 372 4206 
L 1422 3572 
L 1422 4750 
L 1778 4750 
L 1778 3572 
L 2828 4206 
L 3009 3897 
z
" transform="scale(0.015625)"/>
       <path id="DejaVuSans-74" d="M 1172 4494 
L 1172 3500 
L 2356 3500 
L 2356 3053 
L 1172 3053 
L 1172 1153 
Q 1172 725 1289 603 
Q 1406 481 1766 481 
L 2356 481 
L 2356 0 
L 1766 0 
Q 1100 0 847 248 
Q 594 497 594 1153 
L 594 3053 
L 172 3053 
L 172 3500 
L 594 3500 
L 594 4494 
L 1172 4494 
z
" transform="scale(0.015625)"/>
      </defs>
      <use xlink:href="#DejaVuSans-45"/>
      <use xlink:href="#DejaVuSans-2a" x="63.183594"/>
      <use xlink:href="#DejaVuSans-74" x="113.183594"/>
     </g>
    </g>
   </g>
   <g id="line2d_16">
    <path d="M 73.832727 295.488 
L 74.150083 282.534157 
L 74.467438 278.422699 
L 74.784793 276.12518 
L 75.419504 268.84611 
L 75.73686 266.94721 
L 76.37157 264.875535 
L 76.688926 262.354072 
L 77.006281 262.207141 
L 77.323636 259.532332 
L 77.958347 257.363149 
L 78.275702 256.557291 
L 78.593058 256.168309 
L 78.910413 254.922428 
L 79.227769 254.398798 
L 79.545124 252.979429 
L 79.862479 252.572642 
L 80.179835 251.588211 
L 80.49719 251.032744 
L 81.131901 249.531502 
L 81.449256 248.811766 
L 81.766612 247.730188 
L 82.083967 247.604858 
L 82.401322 247.181616 
L 83.353388 245.312981 
L 83.670744 245.073665 
L 83.988099 244.601876 
L 84.305455 243.568206 
L 85.574876 241.577293 
L 86.526942 240.782391 
L 88.74843 237.5531 
L 89.38314 237.144113 
L 91.287273 234.406995 
L 91.604628 234.264631 
L 91.921983 233.992807 
L 92.556694 232.974493 
L 93.191405 232.702739 
L 93.50876 232.164907 
L 94.778182 231.170694 
L 95.095537 230.609705 
L 95.412893 230.546708 
L 95.730248 230.173073 
L 96.047603 229.997481 
L 96.364959 229.60954 
L 97.317025 228.974533 
L 97.63438 228.460633 
L 97.951736 228.312798 
L 98.269091 227.825889 
L 98.586446 227.728533 
L 98.903802 227.306222 
L 99.221157 227.253957 
L 100.490579 226.323527 
L 101.125289 225.527856 
L 101.442645 225.409228 
L 103.029421 224.25781 
L 103.346777 224.151761 
L 103.664132 223.531554 
L 103.981488 223.346507 
L 104.616198 222.673644 
L 105.568264 222.171847 
L 105.88562 221.831072 
L 106.202975 221.725531 
L 107.472397 220.616939 
L 107.789752 220.246653 
L 109.059174 219.63346 
L 109.376529 219.304581 
L 110.01124 219.002176 
L 111.280661 218.146451 
L 111.598017 218.070646 
L 112.232727 217.650377 
L 113.502149 216.956589 
L 113.819504 216.648274 
L 114.77157 216.25287 
L 115.088926 216.049254 
L 115.406281 215.992597 
L 115.723636 215.794934 
L 116.040992 215.463894 
L 116.358347 215.338305 
L 116.993058 214.873149 
L 117.310413 214.799851 
L 117.627769 214.562111 
L 117.945124 214.499681 
L 118.262479 214.264595 
L 118.579835 214.199347 
L 119.849256 213.341774 
L 121.118678 212.850256 
L 123.02281 211.599379 
L 123.974876 211.206825 
L 125.561653 210.259188 
L 126.196364 210.026034 
L 127.14843 209.535092 
L 128.100496 208.976597 
L 132.226116 207.031347 
L 132.860826 206.828301 
L 133.178182 206.530002 
L 134.130248 206.180497 
L 135.717025 205.317965 
L 136.351736 205.086032 
L 137.303802 204.63729 
L 137.938512 204.461127 
L 138.255868 204.424727 
L 138.573223 204.144893 
L 140.794711 203.251582 
L 141.429421 202.875553 
L 144.920331 201.404335 
L 145.555041 201.069474 
L 146.189752 200.873254 
L 146.507107 200.812056 
L 147.141818 200.477216 
L 147.459174 200.40202 
L 148.093884 200.094095 
L 148.41124 200.057196 
L 149.04595 199.676789 
L 149.680661 199.518817 
L 151.267438 198.90776 
L 151.584793 198.588572 
L 168.721983 191.988386 
L 169.039339 191.96501 
L 169.356694 191.683547 
L 169.991405 191.500536 
L 181.098843 187.751818 
L 181.416198 187.509969 
L 182.368264 187.216273 
L 183.002975 186.958883 
L 185.541818 186.08918 
L 186.176529 185.928229 
L 187.128595 185.52421 
L 187.44595 185.474552 
L 188.080661 185.196641 
L 191.57157 184.060948 
L 192.206281 183.790573 
L 194.110413 183.273168 
L 194.745124 182.988721 
L 198.870744 181.6056 
L 199.188099 181.559661 
L 200.140165 181.054167 
L 201.092231 180.803988 
L 202.996364 180.187897 
L 205.217851 179.464449 
L 205.852562 179.29235 
L 208.70876 178.375791 
L 209.978182 177.95302 
L 212.517025 177.131329 
L 212.83438 176.941043 
L 213.151736 176.913061 
L 213.786446 176.69357 
L 214.103802 176.619559 
L 214.738512 176.270607 
L 215.373223 176.221476 
L 224.259174 173.16603 
L 224.576529 173.115536 
L 225.21124 172.885978 
L 228.702149 171.887153 
L 229.019504 171.665963 
L 230.288926 171.32612 
L 231.558347 170.820927 
L 233.145124 170.344488 
L 239.174876 168.388434 
L 239.809587 168.209919 
L 242.98314 167.190053 
L 243.300496 167.029061 
L 243.617851 167.02341 
L 244.569917 166.681763 
L 246.47405 166.111393 
L 247.426116 165.76019 
L 249.012893 165.266103 
L 249.647603 164.935768 
L 250.917025 164.67795 
L 251.23438 164.472715 
L 252.186446 164.306643 
L 253.138512 163.966224 
L 253.455868 163.884939 
L 254.090579 163.551638 
L 260.755041 161.471182 
L 262.024463 161.079448 
L 263.61124 160.565563 
L 264.563306 160.349931 
L 265.198017 159.989836 
L 268.37157 158.961983 
L 269.958347 158.4982 
L 271.545124 157.990557 
L 273.449256 157.280376 
L 276.305455 156.355392 
L 291.538512 151.14828 
L 292.490579 150.767435 
L 294.394711 150.173459 
L 295.029421 149.908415 
L 297.568264 148.890405 
L 297.88562 148.843422 
L 298.520331 148.590389 
L 299.472397 148.229363 
L 299.789752 148.187305 
L 300.424463 147.879753 
L 300.741818 147.829257 
L 301.693884 147.384534 
L 303.598017 146.724002 
L 304.232727 146.413888 
L 305.184793 146.128421 
L 306.13686 145.733082 
L 308.358347 144.836216 
L 311.214545 143.747379 
L 311.849256 143.600619 
L 312.801322 143.341121 
L 313.436033 143.024157 
L 316.292231 141.922863 
L 318.196364 141.104375 
L 318.831074 140.9381 
L 319.465785 140.579515 
L 319.78314 140.514907 
L 320.100496 140.323756 
L 321.052562 140.057431 
L 321.369917 139.991296 
L 322.321983 139.501455 
L 324.860826 138.610625 
L 325.495537 138.329854 
L 326.447603 137.936293 
L 327.082314 137.568866 
L 327.717025 137.381521 
L 328.03438 137.095574 
L 328.669091 136.965187 
L 329.303802 136.644354 
L 330.573223 135.975625 
L 332.16 135.320944 
L 332.794711 135.008434 
L 333.429421 134.870262 
L 333.746777 134.658637 
L 334.064132 134.609296 
L 334.698843 134.248517 
L 335.016198 134.181416 
L 335.650909 133.884872 
L 336.602975 133.483405 
L 336.920331 133.237407 
L 337.237686 133.167016 
L 337.872397 132.887352 
L 338.824463 132.44774 
L 339.141818 132.325841 
L 340.093884 131.680752 
L 340.728595 131.499819 
L 341.998017 130.75112 
L 342.315372 130.668292 
L 343.267438 130.073898 
L 346.440992 128.442316 
L 346.758347 128.337481 
L 347.393058 127.936225 
L 348.027769 127.730478 
L 348.662479 127.220376 
L 349.29719 127.033548 
L 351.836033 125.636806 
L 352.153388 125.590831 
L 353.105455 125.0321 
L 353.740165 124.741425 
L 354.057521 124.492391 
L 354.374876 124.397004 
L 355.326942 123.799117 
L 355.644298 123.586629 
L 355.961653 123.519812 
L 356.279008 123.263566 
L 357.231074 122.897367 
L 357.865785 122.407093 
L 358.18314 122.25522 
L 358.500496 121.954693 
L 358.817851 121.828886 
L 359.135207 121.531874 
L 359.769917 121.233209 
L 360.087273 120.890424 
L 361.039339 120.458793 
L 361.356694 120.140298 
L 361.67405 120.016155 
L 361.991405 119.765563 
L 362.30876 119.675545 
L 362.943471 119.036755 
L 363.578182 118.746167 
L 368.655868 115.37173 
L 369.290579 114.647212 
L 369.925289 114.156354 
L 371.512066 112.831605 
L 372.464132 112.419834 
L 372.781488 111.988923 
L 373.098843 111.860555 
L 374.368264 110.748444 
L 375.320331 110.038008 
L 375.637686 109.42068 
L 375.955041 109.167657 
L 376.272397 108.691824 
L 376.589752 108.543373 
L 376.907107 108.129083 
L 377.224463 107.985926 
L 377.541818 107.424565 
L 378.176529 107.102456 
L 378.493884 106.754586 
L 378.81124 106.576289 
L 379.128595 106.156236 
L 379.44595 106.027834 
L 381.032727 104.553844 
L 381.350083 104.034874 
L 381.984793 103.543387 
L 382.302149 102.988626 
L 382.619504 102.830981 
L 382.93686 102.315103 
L 383.57157 101.776561 
L 384.523636 100.225461 
L 386.110413 98.335489 
L 386.745124 97.318171 
L 387.062479 97.05099 
L 387.379835 96.599873 
L 387.69719 95.835926 
L 388.014545 95.401869 
L 388.331901 94.615717 
L 388.966612 93.938993 
L 389.283967 93.750672 
L 391.505455 90.028474 
L 393.726942 83.850922 
L 394.044298 83.15928 
L 395.631074 78.023407 
L 396.265785 74.475711 
L 396.900496 71.611508 
L 397.852562 62.721611 
L 398.169917 59.333432 
L 398.487273 53.568 
L 398.487273 53.568 
" clip-path="url(#pd8e53cc783)" style="fill: none; stroke: #1f77b4; stroke-width: 1.5; stroke-linecap: square"/>
   </g>
   <g id="line2d_17">
    <path d="M 73.832727 291.58296 
L 74.150083 278.819219 
L 74.467438 277.569803 
L 74.784793 273.943869 
L 75.102149 268.296367 
L 75.419504 266.055478 
L 76.054215 263.442547 
L 76.37157 261.180131 
L 76.688926 261.18013 
L 77.006281 260.056758 
L 77.323636 256.358885 
L 77.640992 255.532629 
L 77.958347 254.159979 
L 78.275702 253.291742 
L 78.593058 253.291738 
L 78.910413 252.042324 
L 79.227769 251.998464 
L 80.179835 248.416391 
L 80.49719 248.416391 
L 81.131901 247.293019 
L 81.449256 246.945467 
L 82.718678 243.595145 
L 83.036033 242.925184 
L 83.353388 242.76889 
L 83.670744 242.449014 
L 83.988099 241.48275 
L 84.305455 241.396242 
L 84.62281 240.528001 
L 84.940165 240.527997 
L 85.257521 239.979016 
L 85.574876 239.91187 
L 85.892231 239.278585 
L 86.209587 239.234723 
L 86.526942 238.952398 
L 86.844298 238.287115 
L 87.479008 237.428754 
L 88.431074 235.652652 
L 88.74843 235.652652 
L 89.065785 234.992788 
L 89.700496 234.529279 
L 90.335207 234.18173 
L 90.969917 232.639612 
L 91.604628 232.598519 
L 91.921983 232.427378 
L 92.87405 230.960382 
L 93.191405 230.831406 
L 93.50876 230.161442 
L 93.826116 230.005152 
L 95.095537 228.810275 
L 96.047603 228.518374 
L 96.364959 227.76426 
L 96.682314 227.764257 
L 96.999669 227.383214 
L 97.63438 227.148128 
L 97.951736 226.514846 
L 98.269091 226.470982 
L 98.586446 226.18866 
L 98.903802 226.181902 
L 99.221157 225.753756 
L 100.173223 225.409488 
L 100.490579 225.151332 
L 100.807934 224.665011 
L 101.125289 224.468308 
L 101.76 223.751006 
L 102.077355 223.644809 
L 102.394711 222.901735 
L 103.029421 222.888913 
L 103.346777 222.229046 
L 103.981488 221.76554 
L 104.616198 221.571897 
L 104.933554 221.417993 
L 105.250909 220.540192 
L 105.88562 220.325179 
L 106.202975 220.008975 
L 106.520331 219.87587 
L 107.155041 219.834783 
L 107.472397 219.663641 
L 107.789752 219.191264 
L 108.107107 219.13103 
L 108.424463 218.880484 
L 108.741818 218.814712 
L 109.693884 218.109706 
L 110.328595 218.029709 
L 110.64595 217.3977 
L 110.963306 217.241414 
L 111.280661 216.921543 
L 111.598017 216.894827 
L 112.550083 216.34699 
L 114.13686 215.754636 
L 114.454215 215.041035 
L 115.088926 215.000518 
L 115.406281 214.619476 
L 116.040992 214.384385 
L 116.358347 214.356432 
L 116.675702 213.751106 
L 116.993058 213.707241 
L 117.310413 213.424922 
L 117.627769 213.418163 
L 117.945124 212.99002 
L 118.579835 212.904127 
L 119.214545 212.759629 
L 120.483967 212.525144 
L 120.801322 212.387593 
L 121.436033 211.901269 
L 121.753388 211.704572 
L 122.070744 211.645286 
L 122.705455 211.140184 
L 123.340165 210.884071 
L 123.657521 210.88107 
L 123.974876 210.137999 
L 124.926942 210.015493 
L 126.196364 209.206978 
L 126.513719 209.189038 
L 126.831074 209.023235 
L 127.465785 208.950072 
L 128.100496 208.654255 
L 128.417851 207.776452 
L 129.052562 207.640765 
L 129.369917 207.561446 
L 129.687273 207.112127 
L 130.321983 207.071046 
L 131.591405 206.427522 
L 131.90876 206.36729 
L 132.226116 206.116747 
L 132.543471 206.050973 
L 132.860826 205.78082 
L 133.178182 205.690423 
L 133.495537 205.432903 
L 134.447603 205.26597 
L 134.764959 204.633959 
L 135.717025 204.361697 
L 136.03438 204.157808 
L 136.351736 204.131094 
L 137.303802 203.614058 
L 138.890579 203.411435 
L 139.842645 203.211911 
L 140.477355 203.105031 
L 140.794711 202.990898 
L 141.112066 202.384204 
L 141.746777 202.23678 
L 142.064132 202.236778 
L 142.381488 201.862962 
L 142.698843 201.855739 
L 143.333554 201.620644 
L 143.968264 201.51367 
L 144.28562 200.987367 
L 144.602975 200.943501 
L 144.920331 200.661183 
L 145.237686 200.654424 
L 145.555041 200.520898 
L 145.872397 200.226282 
L 146.507107 200.140387 
L 147.141818 199.995887 
L 148.728595 199.761406 
L 149.998017 199.137528 
L 150.315372 198.940835 
L 150.632727 198.881545 
L 150.950083 198.578209 
L 151.584793 198.55848 
L 151.902149 198.223526 
L 152.854215 197.866139 
L 153.488926 197.374263 
L 154.758347 197.251753 
L 155.710413 196.724105 
L 156.027769 196.701563 
L 156.662479 196.287368 
L 157.614545 196.186334 
L 158.249256 195.956106 
L 158.883967 195.890518 
L 159.201322 195.140706 
L 159.836033 194.890649 
L 161.105455 194.797711 
L 161.740165 194.716562 
L 162.057521 194.348385 
L 162.692231 194.307309 
L 163.326942 194.044732 
L 163.644298 194.02253 
L 163.961653 193.670237 
L 164.596364 193.603551 
L 164.913719 193.38747 
L 165.54843 193.287233 
L 166.18314 193.017079 
L 168.087273 192.50223 
L 168.404628 191.87022 
L 170.30876 191.367359 
L 170.626116 190.860576 
L 171.578182 190.722452 
L 174.117025 190.341294 
L 174.751736 190.154563 
L 175.069091 189.80085 
L 176.338512 189.47304 
L 176.655868 189.473039 
L 176.973223 189.099223 
L 177.290579 189.092002 
L 177.925289 188.856904 
L 179.194711 188.636209 
L 179.512066 188.223627 
L 180.464132 188.119596 
L 180.781488 187.897444 
L 181.098843 187.890686 
L 181.416198 187.757153 
L 181.733554 187.462545 
L 182.050909 187.436811 
L 182.368264 187.26131 
L 184.272397 186.997672 
L 184.907107 186.748502 
L 185.541818 186.689035 
L 186.176529 186.382764 
L 186.81124 186.364578 
L 187.763306 185.814468 
L 188.398017 185.794743 
L 188.715372 185.459786 
L 189.032727 185.356588 
L 189.667438 184.887072 
L 190.619504 184.5977 
L 191.57157 184.488014 
L 191.888926 184.479661 
L 192.206281 184.316079 
L 192.840992 184.273084 
L 193.158347 184.043308 
L 194.110413 183.937823 
L 194.745124 183.49576 
L 195.379835 183.422598 
L 195.69719 183.280687 
L 196.966612 183.12678 
L 197.283967 182.376959 
L 197.601322 182.126911 
L 199.188099 181.952814 
L 199.505455 181.919297 
L 200.140165 181.584644 
L 200.774876 181.543571 
L 201.409587 181.280996 
L 201.726942 181.258784 
L 202.044298 180.915365 
L 203.313719 180.839812 
L 203.631074 180.623728 
L 204.265785 180.523494 
L 204.58314 180.329381 
L 205.535207 180.212492 
L 206.169917 180.117073 
L 206.804628 179.776452 
L 207.121983 179.73849 
L 207.439339 179.511271 
L 207.756694 179.01888 
L 209.343471 178.630339 
L 209.660826 178.096836 
L 210.930248 177.958712 
L 213.469091 177.664046 
L 214.421157 177.390817 
L 214.738512 177.037113 
L 215.373223 176.926539 
L 215.690579 176.90611 
L 216.007934 176.709301 
L 216.642645 176.651617 
L 216.96 176.581602 
L 217.277355 176.335484 
L 217.912066 176.242135 
L 218.546777 175.986198 
L 219.181488 175.872463 
L 219.816198 175.459888 
L 221.08562 175.355861 
L 221.402975 175.169063 
L 222.355041 174.99341 
L 222.672397 174.698806 
L 222.989752 174.673072 
L 223.307107 174.497577 
L 224.893884 174.279037 
L 225.21124 174.194557 
L 225.528595 173.984768 
L 226.163306 173.925284 
L 228.067438 173.050727 
L 229.019504 172.892296 
L 229.33686 172.696045 
L 229.97157 172.592847 
L 230.606281 172.123325 
L 231.558347 171.833962 
L 232.510413 171.724276 
L 233.145124 171.652797 
L 234.731901 171.196635 
L 235.049256 171.174083 
L 235.683967 170.732021 
L 236.318678 170.658862 
L 236.636033 170.51695 
L 237.905455 170.363042 
L 238.22281 169.613214 
L 238.540165 169.363173 
L 240.444298 169.189067 
L 240.761653 169.15556 
L 241.396364 168.820903 
L 242.031074 168.745729 
L 242.98314 168.151619 
L 243.935207 168.076073 
L 244.252562 167.859988 
L 244.887273 167.759755 
L 245.204628 167.565655 
L 246.156694 167.448747 
L 246.791405 167.353329 
L 247.10876 167.141683 
L 248.695537 166.747531 
L 249.647603 166.255139 
L 250.599669 166.070493 
L 250.917025 165.887721 
L 251.23438 165.866605 
L 251.551736 165.477113 
L 251.869091 165.326164 
L 252.821157 165.292038 
L 253.455868 165.167871 
L 255.36 164.900307 
L 255.994711 164.273377 
L 257.264132 164.142375 
L 257.581488 163.945562 
L 258.533554 163.88787 
L 258.850909 163.571746 
L 259.48562 163.478388 
L 260.120331 163.175902 
L 260.437686 163.108718 
L 261.072397 162.674002 
L 261.707107 162.592124 
L 262.659174 162.387433 
L 263.61124 162.229668 
L 264.24595 161.733842 
L 265.832727 161.515299 
L 268.054215 160.837112 
L 268.37157 160.590326 
L 269.323636 160.286987 
L 270.593058 159.829106 
L 270.910413 159.248752 
L 275.353388 158.152027 
L 275.670744 157.968281 
L 275.988099 157.956323 
L 276.305455 157.753214 
L 277.574876 157.63896 
L 278.526942 157.256485 
L 279.161653 156.585798 
L 279.796364 156.509261 
L 280.431074 156.455787 
L 281.38314 156.224463 
L 281.700496 156.057162 
L 282.017851 156.057162 
L 282.335207 155.872303 
L 282.652562 155.423933 
L 283.921983 155.312335 
L 284.556694 154.996016 
L 288.364959 153.983791 
L 289.317025 153.552048 
L 290.586446 153.306758 
L 291.221157 152.562424 
L 291.855868 152.431232 
L 293.442645 152.223236 
L 293.76 152.156958 
L 294.394711 151.480226 
L 296.298843 151.124124 
L 296.933554 150.808009 
L 297.568264 150.714644 
L 298.202975 150.412158 
L 298.520331 150.344973 
L 299.155041 149.910266 
L 299.472397 149.90378 
L 300.107107 149.642904 
L 300.741818 149.599471 
L 301.376529 149.452392 
L 302.01124 149.145595 
L 302.64595 148.776637 
L 303.598017 148.667084 
L 304.232727 148.4573 
L 304.867438 148.390076 
L 305.502149 147.888512 
L 307.088926 147.523248 
L 307.723636 147.364815 
L 308.675702 147.065366 
L 308.993058 146.671111 
L 309.945124 146.214828 
L 310.579835 146.125324 
L 310.89719 145.847463 
L 312.166612 145.583518 
L 312.801322 145.220088 
L 313.436033 145.179401 
L 314.070744 144.889441 
L 314.705455 144.766739 
L 315.340165 144.085724 
L 315.657521 143.752639 
L 316.926942 143.644516 
L 317.561653 143.293422 
L 318.196364 143.243804 
L 318.513719 142.660187 
L 319.78314 142.536593 
L 320.417851 142.232277 
L 320.735207 142.153247 
L 321.052562 141.921261 
L 321.687273 141.860228 
L 322.004628 141.553164 
L 322.639339 141.44727 
L 323.27405 141.378354 
L 323.90876 141.174034 
L 325.495537 140.647267 
L 325.812893 140.219944 
L 326.130248 140.180471 
L 326.447603 139.798683 
L 327.082314 139.667493 
L 328.03438 139.459496 
L 328.351736 139.075486 
L 329.303802 138.660543 
L 330.573223 138.56604 
L 330.890579 138.410834 
L 331.525289 137.773997 
L 332.16 137.648415 
L 332.477355 137.58123 
L 332.794711 137.146531 
L 333.429421 137.085356 
L 334.381488 136.859957 
L 334.698843 136.850584 
L 336.920331 135.752928 
L 337.237686 135.693564 
L 337.555041 135.124783 
L 338.824463 134.77326 
L 339.776529 134.301626 
L 340.093884 133.804995 
L 341.363306 133.424687 
L 341.680661 133.083729 
L 342.315372 133.018789 
L 342.632727 132.819776 
L 342.950083 132.812836 
L 343.267438 132.624553 
L 343.584793 132.605756 
L 344.219504 132.428836 
L 344.53686 132.415667 
L 345.17157 132.125702 
L 345.806281 132.003003 
L 346.123636 131.728995 
L 346.440992 130.988895 
L 347.075702 130.980771 
L 347.710413 130.529681 
L 348.027769 130.480055 
L 348.345124 129.860383 
L 348.662479 129.772842 
L 349.614545 129.15752 
L 350.566612 129.096475 
L 350.883967 128.66562 
L 351.201322 128.479305 
L 351.836033 128.410306 
L 352.153388 128.236466 
L 352.470744 128.209808 
L 353.105455 127.883532 
L 353.42281 127.456208 
L 353.740165 127.416721 
L 354.057521 127.034942 
L 354.692231 126.903754 
L 355.009587 126.723568 
L 355.326942 126.31174 
L 355.961653 126.141469 
L 356.279008 125.952739 
L 357.54843 125.662855 
L 358.18314 124.999271 
L 358.500496 124.884672 
L 358.817851 124.382796 
L 359.135207 124.09622 
L 359.452562 124.086859 
L 360.087273 123.810925 
L 360.404628 123.124493 
L 361.039339 122.989188 
L 361.356694 122.361053 
L 363.895537 121.362466 
L 364.530248 120.687347 
L 366.43438 119.692601 
L 367.069091 119.651931 
L 367.703802 119.307297 
L 368.021157 118.569056 
L 368.338512 118.225152 
L 368.655868 118.218045 
L 369.290579 117.096639 
L 369.607934 117.009092 
L 370.242645 116.625769 
L 370.56 116.568492 
L 370.877355 116.375383 
L 371.194711 115.901881 
L 371.829421 115.472737 
L 372.146777 115.44607 
L 372.464132 115.260825 
L 373.098843 114.2712 
L 373.416198 113.934326 
L 373.733554 113.377723 
L 374.050909 113.188996 
L 375.320331 112.8991 
L 375.637686 112.235515 
L 375.955041 112.120929 
L 376.907107 111.332484 
L 377.224463 111.323133 
L 377.541818 111.161157 
L 377.859174 110.360745 
L 378.493884 110.225447 
L 378.81124 109.380844 
L 379.128595 109.369008 
L 379.44595 108.598738 
L 380.398017 107.536721 
L 381.350083 106.928858 
L 381.667438 106.901351 
L 382.302149 106.543552 
L 382.619504 105.80532 
L 382.93686 105.366933 
L 383.254215 104.332895 
L 383.57157 104.318413 
L 383.888926 103.862028 
L 384.206281 103.611636 
L 384.840992 102.709007 
L 385.158347 102.666452 
L 385.793058 102.216474 
L 386.110413 101.889221 
L 386.745124 100.641378 
L 387.062479 100.369315 
L 387.69719 100.135348 
L 388.014545 98.828327 
L 388.331901 98.397413 
L 388.649256 97.596998 
L 388.966612 97.475603 
L 389.283967 96.6171 
L 389.601322 96.605271 
L 390.553388 94.165117 
L 390.870744 94.13761 
L 391.188099 93.193886 
L 391.505455 93.054878 
L 391.82281 93.041583 
L 392.140165 90.84789 
L 392.457521 89.902712 
L 393.409587 88.40683 
L 393.726942 87.511073 
L 394.361653 84.833252 
L 394.679008 83.853358 
L 394.996364 83.631224 
L 395.313719 82.751306 
L 395.631074 82.226384 
L 396.265785 78.084144 
L 396.58314 77.138972 
L 396.900496 76.68899 
L 397.217851 69.987545 
L 397.535207 69.462636 
L 397.852562 67.527381 
L 398.487273 57.223784 
L 398.487273 57.223784 
" clip-path="url(#pd8e53cc783)" style="fill: none; stroke: #ff7f0e; stroke-width: 1.5; stroke-linecap: square"/>
   </g>
   <g id="patch_3">
    <path d="M 57.6 307.584 
L 57.6 41.472 
" style="fill: none; stroke: #000000; stroke-width: 0.8; stroke-linejoin: miter; stroke-linecap: square"/>
   </g>
   <g id="patch_4">
    <path d="M 414.72 307.584 
L 414.72 41.472 
" style="fill: none; stroke: #000000; stroke-width: 0.8; stroke-linejoin: miter; stroke-linecap: square"/>
   </g>
   <g id="patch_5">
    <path d="M 57.6 307.584 
L 414.72 307.584 
" style="fill: none; stroke: #000000; stroke-width: 0.8; stroke-linejoin: miter; stroke-linecap: square"/>
   </g>
   <g id="patch_6">
    <path d="M 57.6 41.472 
L 414.72 41.472 
" style="fill: none; stroke: #000000; stroke-width: 0.8; stroke-linejoin: miter; stroke-linecap: square"/>
   </g>
   <g id="legend_1">
    <g id="patch_7">
     <path d="M 64.6 78.82825 
L 129.342187 78.82825 
Q 131.342187 78.82825 131.342187 76.82825 
L 131.342187 48.472 
Q 131.342187 46.472 129.342187 46.472 
L 64.6 46.472 
Q 62.6 46.472 62.6 48.472 
L 62.6 76.82825 
Q 62.6 78.82825 64.6 78.82825 
z
" style="fill: #ffffff; opacity: 0.8; stroke: #cccccc; stroke-linejoin: miter"/>
    </g>
    <g id="line2d_18">
     <path d="M 66.6 54.570437 
L 76.6 54.570437 
L 86.6 54.570437 
" style="fill: none; stroke: #1f77b4; stroke-width: 1.5; stroke-linecap: square"/>
    </g>
    <g id="text_18">
     <!-- qc -->
     <g transform="translate(94.6 58.070437) scale(0.1 -0.1)">
      <defs>
       <path id="DejaVuSans-71" d="M 947 1747 
Q 947 1113 1208 752 
Q 1469 391 1925 391 
Q 2381 391 2643 752 
Q 2906 1113 2906 1747 
Q 2906 2381 2643 2742 
Q 2381 3103 1925 3103 
Q 1469 3103 1208 2742 
Q 947 2381 947 1747 
z
M 2906 525 
Q 2725 213 2448 61 
Q 2172 -91 1784 -91 
Q 1150 -91 751 415 
Q 353 922 353 1747 
Q 353 2572 751 3078 
Q 1150 3584 1784 3584 
Q 2172 3584 2448 3432 
Q 2725 3281 2906 2969 
L 2906 3500 
L 3481 3500 
L 3481 -1331 
L 2906 -1331 
L 2906 525 
z
" transform="scale(0.015625)"/>
       <path id="DejaVuSans-63" d="M 3122 3366 
L 3122 2828 
Q 2878 2963 2633 3030 
Q 2388 3097 2138 3097 
Q 1578 3097 1268 2742 
Q 959 2388 959 1747 
Q 959 1106 1268 751 
Q 1578 397 2138 397 
Q 2388 397 2633 464 
Q 2878 531 3122 666 
L 3122 134 
Q 2881 22 2623 -34 
Q 2366 -91 2075 -91 
Q 1284 -91 818 406 
Q 353 903 353 1747 
Q 353 2603 823 3093 
Q 1294 3584 2113 3584 
Q 2378 3584 2631 3529 
Q 2884 3475 3122 3366 
z
" transform="scale(0.015625)"/>
      </defs>
      <use xlink:href="#DejaVuSans-71"/>
      <use xlink:href="#DejaVuSans-63" x="63.476562"/>
     </g>
    </g>
    <g id="line2d_19">
     <path d="M 66.6 69.248562 
L 76.6 69.248562 
L 86.6 69.248562 
" style="fill: none; stroke: #ff7f0e; stroke-width: 1.5; stroke-linecap: square"/>
    </g>
    <g id="text_19">
     <!-- Trotter -->
     <g transform="translate(94.6 72.748562) scale(0.1 -0.1)">
      <defs>
       <path id="DejaVuSans-54" d="M -19 4666 
L 3928 4666 
L 3928 4134 
L 2272 4134 
L 2272 0 
L 1638 0 
L 1638 4134 
L -19 4134 
L -19 4666 
z
" transform="scale(0.015625)"/>
       <path id="DejaVuSans-72" d="M 2631 2963 
Q 2534 3019 2420 3045 
Q 2306 3072 2169 3072 
Q 1681 3072 1420 2755 
Q 1159 2438 1159 1844 
L 1159 0 
L 581 0 
L 581 3500 
L 1159 3500 
L 1159 2956 
Q 1341 3275 1631 3429 
Q 1922 3584 2338 3584 
Q 2397 3584 2469 3576 
Q 2541 3569 2628 3553 
L 2631 2963 
z
" transform="scale(0.015625)"/>
       <path id="DejaVuSans-6f" d="M 1959 3097 
Q 1497 3097 1228 2736 
Q 959 2375 959 1747 
Q 959 1119 1226 758 
Q 1494 397 1959 397 
Q 2419 397 2687 759 
Q 2956 1122 2956 1747 
Q 2956 2369 2687 2733 
Q 2419 3097 1959 3097 
z
M 1959 3584 
Q 2709 3584 3137 3096 
Q 3566 2609 3566 1747 
Q 3566 888 3137 398 
Q 2709 -91 1959 -91 
Q 1206 -91 779 398 
Q 353 888 353 1747 
Q 353 2609 779 3096 
Q 1206 3584 1959 3584 
z
" transform="scale(0.015625)"/>
       <path id="DejaVuSans-65" d="M 3597 1894 
L 3597 1613 
L 953 1613 
Q 991 1019 1311 708 
Q 1631 397 2203 397 
Q 2534 397 2845 478 
Q 3156 559 3463 722 
L 3463 178 
Q 3153 47 2828 -22 
Q 2503 -91 2169 -91 
Q 1331 -91 842 396 
Q 353 884 353 1716 
Q 353 2575 817 3079 
Q 1281 3584 2069 3584 
Q 2775 3584 3186 3129 
Q 3597 2675 3597 1894 
z
M 3022 2063 
Q 3016 2534 2758 2815 
Q 2500 3097 2075 3097 
Q 1594 3097 1305 2825 
Q 1016 2553 972 2059 
L 3022 2063 
z
" transform="scale(0.015625)"/>
      </defs>
      <use xlink:href="#DejaVuSans-54"/>
      <use xlink:href="#DejaVuSans-72" x="46.333984"/>
      <use xlink:href="#DejaVuSans-6f" x="85.197266"/>
      <use xlink:href="#DejaVuSans-74" x="146.378906"/>
      <use xlink:href="#DejaVuSans-74" x="185.587891"/>
      <use xlink:href="#DejaVuSans-65" x="224.796875"/>
      <use xlink:href="#DejaVuSans-72" x="286.320312"/>
     </g>
    </g>
   </g>
  </g>
 </g>
 <defs>
  <clipPath id="pd8e53cc783">
   <rect x="57.6" y="41.472" width="357.12" height="266.112"/>
  </clipPath>
 </defs>
</svg>
