<?xml version="1.0" encoding="utf-8" standalone="no"?>
<!DOCTYPE svg PUBLIC "-//W3C//DTD SVG 1.1//EN"
  "http://www.w3.org/Graphics/SVG/1.1/DTD/svg11.dtd">
<svg xmlns:xlink="http://www.w3.org/1999/xlink" width="460.8pt" height="345.6pt" viewBox="0 0 460.8 345.6" xmlns="http://www.w3.org/2000/svg" version="1.1">
 <metadata>
  <rdf:RDF xmlns:dc="http://purl.org/dc/elements/1.1/" xmlns:cc="http://creativecommons.org/ns#" xmlns:rdf="http://www.w3.org/1999/02/22-rdf-syntax-ns#">
   <cc:Work>
    <dc:type rdf:resource="http://purl.org/dc/dcmitype/StillImage"/>
    <dc:date>2024-08-23T15:04:45.433937</dc:date>
    <dc:format>image/svg+xml</dc:format>
    <dc:creator>
     <cc:Agent>
      <dc:title>Matplotlib v3.7.1, https://matplotlib.org/</dc:title>
     </cc:Agent>
    </dc:creator>
   </cc:Work>
  </rdf:RDF>
 </metadata>
 <defs>
  <style type="text/css">*{stroke-linejoin: round; stroke-linecap: butt}</style>
 </defs>
 <g id="figure_1">
  <g id="patch_1">
   <path d="M 0 345.6 
L 460.8 345.6 
L 460.8 0 
L 0 0 
z
" style="fill: #ffffff"/>
  </g>
  <g id="axes_1">
   <g id="patch_2">
    <path d="M 57.6 307.584 
L 414.72 307.584 
L 414.72 41.472 
L 57.6 41.472 
z
" style="fill: #ffffff"/>
   </g>
   <g id="matplotlib.axis_1">
    <g id="xtick_1">
     <g id="line2d_1">
      <defs>
       <path id="m8a95ad4c5d" d="M 0 0 
L 0 3.5 
" style="stroke: #000000; stroke-width: 0.8"/>
      </defs>
      <g>
       <use xlink:href="#m8a95ad4c5d" x="73.832727" y="307.584" style="stroke: #000000; stroke-width: 0.8"/>
      </g>
     </g>
     <g id="text_1">
      <!-- 0 -->
      <g transform="translate(70.651477 322.182437) scale(0.1 -0.1)">
       <defs>
        <path id="DejaVuSans-30" d="M 2034 4250 
Q 1547 4250 1301 3770 
Q 1056 3291 1056 2328 
Q 1056 1369 1301 889 
Q 1547 409 2034 409 
Q 2525 409 2770 889 
Q 3016 1369 3016 2328 
Q 3016 3291 2770 3770 
Q 2525 4250 2034 4250 
z
M 2034 4750 
Q 2819 4750 3233 4129 
Q 3647 3509 3647 2328 
Q 3647 1150 3233 529 
Q 2819 -91 2034 -91 
Q 1250 -91 836 529 
Q 422 1150 422 2328 
Q 422 3509 836 4129 
Q 1250 4750 2034 4750 
z
" transform="scale(0.015625)"/>
       </defs>
       <use xlink:href="#DejaVuSans-30"/>
      </g>
     </g>
    </g>
    <g id="xtick_2">
     <g id="line2d_2">
      <g>
       <use xlink:href="#m8a95ad4c5d" x="137.303802" y="307.584" style="stroke: #000000; stroke-width: 0.8"/>
      </g>
     </g>
     <g id="text_2">
      <!-- 200 -->
      <g transform="translate(127.760052 322.182437) scale(0.1 -0.1)">
       <defs>
        <path id="DejaVuSans-32" d="M 1228 531 
L 3431 531 
L 3431 0 
L 469 0 
L 469 531 
Q 828 903 1448 1529 
Q 2069 2156 2228 2338 
Q 2531 2678 2651 2914 
Q 2772 3150 2772 3378 
Q 2772 3750 2511 3984 
Q 2250 4219 1831 4219 
Q 1534 4219 1204 4116 
Q 875 4013 500 3803 
L 500 4441 
Q 881 4594 1212 4672 
Q 1544 4750 1819 4750 
Q 2544 4750 2975 4387 
Q 3406 4025 3406 3419 
Q 3406 3131 3298 2873 
Q 3191 2616 2906 2266 
Q 2828 2175 2409 1742 
Q 1991 1309 1228 531 
z
" transform="scale(0.015625)"/>
       </defs>
       <use xlink:href="#DejaVuSans-32"/>
       <use xlink:href="#DejaVuSans-30" x="63.623047"/>
       <use xlink:href="#DejaVuSans-30" x="127.246094"/>
      </g>
     </g>
    </g>
    <g id="xtick_3">
     <g id="line2d_3">
      <g>
       <use xlink:href="#m8a95ad4c5d" x="200.774876" y="307.584" style="stroke: #000000; stroke-width: 0.8"/>
      </g>
     </g>
     <g id="text_3">
      <!-- 400 -->
      <g transform="translate(191.231126 322.182437) scale(0.1 -0.1)">
       <defs>
        <path id="DejaVuSans-34" d="M 2419 4116 
L 825 1625 
L 2419 1625 
L 2419 4116 
z
M 2253 4666 
L 3047 4666 
L 3047 1625 
L 3713 1625 
L 3713 1100 
L 3047 1100 
L 3047 0 
L 2419 0 
L 2419 1100 
L 313 1100 
L 313 1709 
L 2253 4666 
z
" transform="scale(0.015625)"/>
       </defs>
       <use xlink:href="#DejaVuSans-34"/>
       <use xlink:href="#DejaVuSans-30" x="63.623047"/>
       <use xlink:href="#DejaVuSans-30" x="127.246094"/>
      </g>
     </g>
    </g>
    <g id="xtick_4">
     <g id="line2d_4">
      <g>
       <use xlink:href="#m8a95ad4c5d" x="264.24595" y="307.584" style="stroke: #000000; stroke-width: 0.8"/>
      </g>
     </g>
     <g id="text_4">
      <!-- 600 -->
      <g transform="translate(254.7022 322.182437) scale(0.1 -0.1)">
       <defs>
        <path id="DejaVuSans-36" d="M 2113 2584 
Q 1688 2584 1439 2293 
Q 1191 2003 1191 1497 
Q 1191 994 1439 701 
Q 1688 409 2113 409 
Q 2538 409 2786 701 
Q 3034 994 3034 1497 
Q 3034 2003 2786 2293 
Q 2538 2584 2113 2584 
z
M 3366 4563 
L 3366 3988 
Q 3128 4100 2886 4159 
Q 2644 4219 2406 4219 
Q 1781 4219 1451 3797 
Q 1122 3375 1075 2522 
Q 1259 2794 1537 2939 
Q 1816 3084 2150 3084 
Q 2853 3084 3261 2657 
Q 3669 2231 3669 1497 
Q 3669 778 3244 343 
Q 2819 -91 2113 -91 
Q 1303 -91 875 529 
Q 447 1150 447 2328 
Q 447 3434 972 4092 
Q 1497 4750 2381 4750 
Q 2619 4750 2861 4703 
Q 3103 4656 3366 4563 
z
" transform="scale(0.015625)"/>
       </defs>
       <use xlink:href="#DejaVuSans-36"/>
       <use xlink:href="#DejaVuSans-30" x="63.623047"/>
       <use xlink:href="#DejaVuSans-30" x="127.246094"/>
      </g>
     </g>
    </g>
    <g id="xtick_5">
     <g id="line2d_5">
      <g>
       <use xlink:href="#m8a95ad4c5d" x="327.717025" y="307.584" style="stroke: #000000; stroke-width: 0.8"/>
      </g>
     </g>
     <g id="text_5">
      <!-- 800 -->
      <g transform="translate(318.173275 322.182437) scale(0.1 -0.1)">
       <defs>
        <path id="DejaVuSans-38" d="M 2034 2216 
Q 1584 2216 1326 1975 
Q 1069 1734 1069 1313 
Q 1069 891 1326 650 
Q 1584 409 2034 409 
Q 2484 409 2743 651 
Q 3003 894 3003 1313 
Q 3003 1734 2745 1975 
Q 2488 2216 2034 2216 
z
M 1403 2484 
Q 997 2584 770 2862 
Q 544 3141 544 3541 
Q 544 4100 942 4425 
Q 1341 4750 2034 4750 
Q 2731 4750 3128 4425 
Q 3525 4100 3525 3541 
Q 3525 3141 3298 2862 
Q 3072 2584 2669 2484 
Q 3125 2378 3379 2068 
Q 3634 1759 3634 1313 
Q 3634 634 3220 271 
Q 2806 -91 2034 -91 
Q 1263 -91 848 271 
Q 434 634 434 1313 
Q 434 1759 690 2068 
Q 947 2378 1403 2484 
z
M 1172 3481 
Q 1172 3119 1398 2916 
Q 1625 2713 2034 2713 
Q 2441 2713 2670 2916 
Q 2900 3119 2900 3481 
Q 2900 3844 2670 4047 
Q 2441 4250 2034 4250 
Q 1625 4250 1398 4047 
Q 1172 3844 1172 3481 
z
" transform="scale(0.015625)"/>
       </defs>
       <use xlink:href="#DejaVuSans-38"/>
       <use xlink:href="#DejaVuSans-30" x="63.623047"/>
       <use xlink:href="#DejaVuSans-30" x="127.246094"/>
      </g>
     </g>
    </g>
    <g id="xtick_6">
     <g id="line2d_6">
      <g>
       <use xlink:href="#m8a95ad4c5d" x="391.188099" y="307.584" style="stroke: #000000; stroke-width: 0.8"/>
      </g>
     </g>
     <g id="text_6">
      <!-- 1000 -->
      <g transform="translate(378.463099 322.182437) scale(0.1 -0.1)">
       <defs>
        <path id="DejaVuSans-31" d="M 794 531 
L 1825 531 
L 1825 4091 
L 703 3866 
L 703 4441 
L 1819 4666 
L 2450 4666 
L 2450 531 
L 3481 531 
L 3481 0 
L 794 0 
L 794 531 
z
" transform="scale(0.015625)"/>
       </defs>
       <use xlink:href="#DejaVuSans-31"/>
       <use xlink:href="#DejaVuSans-30" x="63.623047"/>
       <use xlink:href="#DejaVuSans-30" x="127.246094"/>
       <use xlink:href="#DejaVuSans-30" x="190.869141"/>
      </g>
     </g>
    </g>
    <g id="text_7">
     <!-- n -->
     <g transform="translate(232.99125 335.860562) scale(0.1 -0.1)">
      <defs>
       <path id="DejaVuSans-6e" d="M 3513 2113 
L 3513 0 
L 2938 0 
L 2938 2094 
Q 2938 2591 2744 2837 
Q 2550 3084 2163 3084 
Q 1697 3084 1428 2787 
Q 1159 2491 1159 1978 
L 1159 0 
L 581 0 
L 581 3500 
L 1159 3500 
L 1159 2956 
Q 1366 3272 1645 3428 
Q 1925 3584 2291 3584 
Q 2894 3584 3203 3211 
Q 3513 2838 3513 2113 
z
" transform="scale(0.015625)"/>
      </defs>
      <use xlink:href="#DejaVuSans-6e"/>
     </g>
    </g>
   </g>
   <g id="matplotlib.axis_2">
    <g id="ytick_1">
     <g id="line2d_7">
      <defs>
       <path id="m70c3b1b181" d="M 0 0 
L -3.5 0 
" style="stroke: #000000; stroke-width: 0.8"/>
      </defs>
      <g>
       <use xlink:href="#m70c3b1b181" x="57.6" y="290.40757" style="stroke: #000000; stroke-width: 0.8"/>
      </g>
     </g>
     <g id="text_8">
      <!-- −10 -->
      <g transform="translate(29.495313 294.206789) scale(0.1 -0.1)">
       <defs>
        <path id="DejaVuSans-2212" d="M 678 2272 
L 4684 2272 
L 4684 1741 
L 678 1741 
L 678 2272 
z
" transform="scale(0.015625)"/>
       </defs>
       <use xlink:href="#DejaVuSans-2212"/>
       <use xlink:href="#DejaVuSans-31" x="83.789062"/>
       <use xlink:href="#DejaVuSans-30" x="147.412109"/>
      </g>
     </g>
    </g>
    <g id="ytick_2">
     <g id="line2d_8">
      <g>
       <use xlink:href="#m70c3b1b181" x="57.6" y="232.546817" style="stroke: #000000; stroke-width: 0.8"/>
      </g>
     </g>
     <g id="text_9">
      <!-- −5 -->
      <g transform="translate(35.857813 236.346035) scale(0.1 -0.1)">
       <defs>
        <path id="DejaVuSans-35" d="M 691 4666 
L 3169 4666 
L 3169 4134 
L 1269 4134 
L 1269 2991 
Q 1406 3038 1543 3061 
Q 1681 3084 1819 3084 
Q 2600 3084 3056 2656 
Q 3513 2228 3513 1497 
Q 3513 744 3044 326 
Q 2575 -91 1722 -91 
Q 1428 -91 1123 -41 
Q 819 9 494 109 
L 494 744 
Q 775 591 1075 516 
Q 1375 441 1709 441 
Q 2250 441 2565 725 
Q 2881 1009 2881 1497 
Q 2881 1984 2565 2268 
Q 2250 2553 1709 2553 
Q 1456 2553 1204 2497 
Q 953 2441 691 2322 
L 691 4666 
z
" transform="scale(0.015625)"/>
       </defs>
       <use xlink:href="#DejaVuSans-2212"/>
       <use xlink:href="#DejaVuSans-35" x="83.789062"/>
      </g>
     </g>
    </g>
    <g id="ytick_3">
     <g id="line2d_9">
      <g>
       <use xlink:href="#m70c3b1b181" x="57.6" y="174.686063" style="stroke: #000000; stroke-width: 0.8"/>
      </g>
     </g>
     <g id="text_10">
      <!-- 0 -->
      <g transform="translate(44.2375 178.485282) scale(0.1 -0.1)">
       <use xlink:href="#DejaVuSans-30"/>
      </g>
     </g>
    </g>
    <g id="ytick_4">
     <g id="line2d_10">
      <g>
       <use xlink:href="#m70c3b1b181" x="57.6" y="116.82531" style="stroke: #000000; stroke-width: 0.8"/>
      </g>
     </g>
     <g id="text_11">
      <!-- 5 -->
      <g transform="translate(44.2375 120.624528) scale(0.1 -0.1)">
       <use xlink:href="#DejaVuSans-35"/>
      </g>
     </g>
    </g>
    <g id="ytick_5">
     <g id="line2d_11">
      <g>
       <use xlink:href="#m70c3b1b181" x="57.6" y="58.964556" style="stroke: #000000; stroke-width: 0.8"/>
      </g>
     </g>
     <g id="text_12">
      <!-- 10 -->
      <g transform="translate(37.875 62.763775) scale(0.1 -0.1)">
       <use xlink:href="#DejaVuSans-31"/>
       <use xlink:href="#DejaVuSans-30" x="63.623047"/>
      </g>
     </g>
    </g>
    <g id="text_13">
     <!-- E*t -->
     <g transform="translate(23.415625 182.147531) rotate(-90) scale(0.1 -0.1)">
      <defs>
       <path id="DejaVuSans-45" d="M 628 4666 
L 3578 4666 
L 3578 4134 
L 1259 4134 
L 1259 2753 
L 3481 2753 
L 3481 2222 
L 1259 2222 
L 1259 531 
L 3634 531 
L 3634 0 
L 628 0 
L 628 4666 
z
" transform="scale(0.015625)"/>
       <path id="DejaVuSans-2a" d="M 3009 3897 
L 1888 3291 
L 3009 2681 
L 2828 2375 
L 1778 3009 
L 1778 1831 
L 1422 1831 
L 1422 3009 
L 372 2375 
L 191 2681 
L 1313 3291 
L 191 3897 
L 372 4206 
L 1422 3572 
L 1422 4750 
L 1778 4750 
L 1778 3572 
L 2828 4206 
L 3009 3897 
z
" transform="scale(0.015625)"/>
       <path id="DejaVuSans-74" d="M 1172 4494 
L 1172 3500 
L 2356 3500 
L 2356 3053 
L 1172 3053 
L 1172 1153 
Q 1172 725 1289 603 
Q 1406 481 1766 481 
L 2356 481 
L 2356 0 
L 1766 0 
Q 1100 0 847 248 
Q 594 497 594 1153 
L 594 3053 
L 172 3053 
L 172 3500 
L 594 3500 
L 594 4494 
L 1172 4494 
z
" transform="scale(0.015625)"/>
      </defs>
      <use xlink:href="#DejaVuSans-45"/>
      <use xlink:href="#DejaVuSans-2a" x="63.183594"/>
      <use xlink:href="#DejaVuSans-74" x="113.183594"/>
     </g>
    </g>
   </g>
   <g id="line2d_12">
    <path d="M 73.832727 295.488 
L 74.467438 295.250097 
L 75.102149 294.800925 
L 76.688926 294.136607 
L 77.323636 293.420812 
L 78.593058 293.017433 
L 78.910413 292.527698 
L 79.227769 292.243463 
L 79.545124 292.234745 
L 80.179835 291.496829 
L 80.814545 290.021626 
L 81.131901 289.975782 
L 81.449256 289.805743 
L 81.766612 289.476505 
L 82.083967 289.423998 
L 83.036033 288.83685 
L 83.353388 288.793857 
L 83.670744 288.306392 
L 84.62281 287.551135 
L 84.940165 287.523229 
L 85.257521 286.429976 
L 85.892231 286.239923 
L 86.209587 285.594799 
L 86.526942 285.328316 
L 86.844298 285.257339 
L 87.161653 284.713266 
L 87.479008 283.592744 
L 87.796364 283.086952 
L 88.113719 283.019535 
L 88.74843 281.998784 
L 89.38314 281.560327 
L 89.700496 281.443848 
L 90.017851 281.117674 
L 90.652562 281.085778 
L 91.287273 280.754452 
L 91.921983 280.025426 
L 93.191405 279.464054 
L 93.826116 279.04789 
L 94.143471 278.978187 
L 94.460826 278.451272 
L 95.095537 278.266291 
L 95.412893 278.022115 
L 96.047603 277.773611 
L 96.364959 277.532226 
L 97.317025 277.388942 
L 97.63438 277.079072 
L 97.951736 277.039115 
L 98.586446 276.119814 
L 99.855868 275.154309 
L 100.173223 275.095655 
L 100.490579 274.830382 
L 100.807934 274.267981 
L 101.442645 273.855049 
L 101.76 273.351317 
L 102.394711 273.138032 
L 102.712066 272.904439 
L 103.346777 272.222601 
L 103.664132 272.125418 
L 104.298843 271.430584 
L 104.933554 270.33503 
L 105.250909 270.203244 
L 105.568264 269.569331 
L 105.88562 269.508555 
L 106.202975 268.846372 
L 106.520331 268.586804 
L 106.837686 267.616764 
L 107.155041 267.004141 
L 107.472397 266.920988 
L 107.789752 265.814869 
L 108.424463 265.449644 
L 109.376529 264.83237 
L 110.01124 264.062866 
L 110.328595 263.964968 
L 110.64595 263.584385 
L 110.963306 263.387133 
L 111.280661 263.335569 
L 111.598017 262.996476 
L 111.915372 262.982508 
L 112.232727 262.576694 
L 112.867438 262.517472 
L 113.502149 261.905016 
L 113.819504 261.796966 
L 114.13686 261.517054 
L 114.454215 261.513677 
L 114.77157 261.364795 
L 115.088926 261.362268 
L 116.040992 260.602672 
L 116.358347 260.592383 
L 116.993058 260.213816 
L 117.310413 260.007363 
L 117.945124 259.978641 
L 118.579835 259.440395 
L 118.89719 259.432427 
L 119.531901 258.993324 
L 120.166612 258.898526 
L 120.483967 258.180118 
L 121.118678 258.065412 
L 122.388099 257.191621 
L 123.02281 256.988982 
L 123.340165 256.787629 
L 123.657521 256.298485 
L 124.292231 256.09782 
L 124.609587 256.057846 
L 124.926942 255.115237 
L 125.244298 254.781176 
L 125.879008 254.589054 
L 126.513719 253.798484 
L 127.14843 253.606455 
L 127.465785 251.748231 
L 127.78314 251.738979 
L 128.417851 251.196966 
L 128.735207 250.545187 
L 129.052562 250.272603 
L 129.369917 250.268603 
L 129.687273 249.842043 
L 130.004628 249.818544 
L 130.321983 249.453943 
L 131.27405 248.855495 
L 131.591405 248.343549 
L 132.860826 247.684847 
L 133.178182 247.000531 
L 133.495537 246.9165 
L 134.130248 246.364945 
L 134.447603 246.059303 
L 134.764959 245.373285 
L 135.082314 245.01504 
L 135.399669 244.99229 
L 135.717025 244.439298 
L 136.03438 244.187063 
L 136.351736 243.755281 
L 136.669091 243.700153 
L 137.303802 243.142923 
L 137.938512 242.563149 
L 138.255868 242.39319 
L 138.573223 242.373351 
L 138.890579 242.009462 
L 139.525289 240.637779 
L 140.794711 239.970527 
L 141.112066 239.247346 
L 141.429421 239.15522 
L 141.746777 238.776019 
L 142.381488 238.359061 
L 142.698843 238.098166 
L 143.016198 237.522689 
L 143.333554 237.225392 
L 143.650909 237.191583 
L 143.968264 236.903941 
L 144.28562 236.880528 
L 144.920331 236.495015 
L 145.237686 236.14514 
L 146.189752 235.877234 
L 146.507107 235.561772 
L 146.824463 235.512248 
L 147.141818 235.162702 
L 147.776529 234.916032 
L 148.41124 234.003609 
L 148.728595 233.992132 
L 149.363306 233.495162 
L 149.998017 233.282551 
L 150.632727 232.513018 
L 150.950083 232.12703 
L 151.902149 231.927296 
L 153.488926 231.601419 
L 154.123636 231.357907 
L 154.440992 230.618928 
L 154.758347 230.577458 
L 155.710413 230.220689 
L 156.027769 230.201857 
L 156.345124 230.057162 
L 156.979835 229.957891 
L 157.931901 229.769414 
L 158.566612 229.475853 
L 158.883967 229.418008 
L 159.201322 228.749021 
L 159.518678 228.745665 
L 159.836033 228.430513 
L 160.470744 228.295091 
L 160.788099 227.600077 
L 161.105455 226.272693 
L 161.42281 225.848399 
L 161.740165 224.911202 
L 162.057521 224.433988 
L 162.374876 224.265146 
L 162.692231 222.875058 
L 163.009587 222.533481 
L 163.326942 222.508387 
L 163.644298 222.297478 
L 164.596364 221.956651 
L 164.913719 221.382028 
L 165.231074 221.237289 
L 166.18314 220.14336 
L 166.500496 220.00043 
L 166.817851 219.721342 
L 167.452562 219.544473 
L 167.769917 218.971465 
L 168.087273 218.658748 
L 168.404628 218.59413 
L 169.991405 217.66131 
L 170.30876 217.611259 
L 170.626116 217.35302 
L 170.943471 216.776109 
L 171.260826 216.459258 
L 172.212893 216.341178 
L 172.530248 215.904317 
L 172.847603 215.832738 
L 173.164959 215.379079 
L 173.482314 215.324824 
L 174.751736 214.500664 
L 175.069091 214.10065 
L 176.021157 213.968482 
L 176.338512 213.315275 
L 176.655868 213.253068 
L 176.973223 212.798351 
L 177.290579 212.77501 
L 178.56 212.218018 
L 179.512066 212.11792 
L 180.146777 211.567727 
L 180.464132 211.389732 
L 181.098843 211.312085 
L 181.416198 211.163039 
L 181.733554 210.786688 
L 182.368264 210.50932 
L 184.272397 210.169859 
L 184.589752 209.697875 
L 184.907107 209.465848 
L 185.224463 209.424477 
L 185.541818 208.868199 
L 186.176529 208.450681 
L 187.128595 208.03363 
L 187.44595 207.800006 
L 187.763306 207.302267 
L 188.080661 207.26996 
L 188.398017 206.645316 
L 189.032727 206.44977 
L 189.667438 205.990609 
L 189.984793 205.804273 
L 190.302149 205.764598 
L 190.619504 205.208749 
L 190.93686 204.95381 
L 192.523636 204.755296 
L 192.840992 204.677855 
L 193.158347 204.363289 
L 193.475702 204.281956 
L 193.793058 203.776606 
L 194.110413 203.742 
L 194.427769 203.245369 
L 194.745124 203.050658 
L 195.062479 202.647839 
L 195.69719 202.194363 
L 196.014545 201.978373 
L 196.331901 201.536225 
L 196.649256 201.504295 
L 197.601322 201.144989 
L 197.918678 201.019053 
L 198.553388 200.652184 
L 201.726942 200.133234 
L 202.361653 200.00532 
L 202.679008 199.480991 
L 203.631074 199.354066 
L 204.265785 198.57103 
L 204.58314 198.520604 
L 206.169917 197.319932 
L 206.487273 197.300825 
L 206.804628 196.976751 
L 207.121983 196.823328 
L 207.439339 196.19688 
L 207.756694 196.185255 
L 208.07405 195.768327 
L 208.391405 195.740274 
L 208.70876 195.554608 
L 209.026116 194.940439 
L 209.343471 194.865913 
L 209.660826 194.107184 
L 209.978182 194.014494 
L 210.295537 193.667349 
L 211.247603 193.622989 
L 211.564959 193.319605 
L 211.882314 192.65508 
L 212.517025 192.518692 
L 212.83438 192.442909 
L 213.469091 192.130122 
L 213.786446 192.005955 
L 214.103802 191.744534 
L 215.373223 191.54845 
L 216.325289 191.243971 
L 216.642645 190.802063 
L 216.96 190.62446 
L 217.277355 190.305322 
L 217.594711 190.292303 
L 217.912066 189.855067 
L 218.229421 189.734985 
L 218.546777 189.230109 
L 221.720331 188.004441 
L 222.672397 187.797898 
L 223.307107 187.694138 
L 223.941818 187.203412 
L 224.893884 187.009534 
L 225.21124 186.712919 
L 226.480661 186.426402 
L 226.798017 186.132615 
L 227.432727 186.021878 
L 228.702149 185.361133 
L 231.240992 184.228212 
L 231.558347 183.824427 
L 231.875702 183.798049 
L 232.193058 183.197095 
L 233.145124 182.86502 
L 234.09719 181.583366 
L 234.414545 181.315422 
L 235.049256 181.11235 
L 236.318678 180.29497 
L 236.953388 180.183423 
L 237.270744 179.766668 
L 238.22281 179.658795 
L 238.540165 179.2471 
L 238.857521 179.197684 
L 239.492231 178.711831 
L 240.126942 178.650735 
L 241.079008 177.912178 
L 241.396364 177.896 
L 242.031074 176.76867 
L 242.34843 176.337478 
L 242.98314 176.132092 
L 243.300496 175.67022 
L 243.935207 175.255713 
L 244.887273 175.130787 
L 245.521983 174.66151 
L 246.47405 174.168247 
L 247.10876 174.064842 
L 248.060826 173.540286 
L 248.695537 173.234946 
L 249.012893 172.975362 
L 249.330248 172.499985 
L 249.647603 172.476379 
L 249.964959 172.176293 
L 250.599669 171.963222 
L 250.917025 171.913275 
L 251.869091 171.368972 
L 252.821157 171.193826 
L 253.773223 170.719257 
L 254.407934 170.601409 
L 254.725289 170.23948 
L 255.36 170.156197 
L 256.312066 169.72287 
L 257.264132 168.975904 
L 257.581488 168.936585 
L 257.898843 168.360675 
L 258.216198 168.329793 
L 259.168264 167.860311 
L 260.120331 167.694704 
L 261.072397 166.645494 
L 261.389752 164.496934 
L 262.659174 164.099591 
L 262.976529 163.635656 
L 263.61124 163.477968 
L 264.880661 162.623832 
L 265.198017 162.25556 
L 265.515372 162.123647 
L 265.832727 162.115276 
L 266.784793 161.684511 
L 268.688926 160.398347 
L 269.958347 160.053908 
L 270.275702 159.785234 
L 270.593058 159.74637 
L 271.227769 159.258944 
L 271.545124 159.240414 
L 272.49719 158.726932 
L 273.131901 158.600505 
L 273.766612 158.486796 
L 274.083967 158.110971 
L 274.401322 158.080685 
L 274.718678 157.758039 
L 275.988099 157.197512 
L 276.305455 156.872464 
L 276.940165 156.804172 
L 278.209587 155.923766 
L 280.113719 155.001635 
L 280.431074 154.785054 
L 281.700496 154.590881 
L 282.017851 154.25288 
L 282.335207 153.55494 
L 282.969917 153.268706 
L 283.287273 153.249581 
L 283.604628 152.969389 
L 283.921983 152.933595 
L 285.191405 151.949955 
L 285.50876 151.441333 
L 285.826116 151.176291 
L 286.778182 150.974289 
L 287.095537 150.873526 
L 287.412893 149.933884 
L 287.730248 149.392253 
L 288.682314 148.914464 
L 288.999669 148.409791 
L 289.63438 148.060985 
L 290.269091 147.604283 
L 290.586446 147.525138 
L 290.903802 147.059046 
L 291.221157 146.885172 
L 291.538512 146.365975 
L 292.807934 145.39814 
L 293.442645 145.311005 
L 294.394711 145.078447 
L 295.029421 144.501707 
L 295.981488 144.395475 
L 296.933554 144.233832 
L 298.202975 143.788856 
L 298.837686 142.576111 
L 299.789752 142.469746 
L 300.107107 142.443946 
L 300.424463 141.760532 
L 301.376529 141.273557 
L 302.01124 141.047041 
L 302.963306 140.317783 
L 303.280661 140.252057 
L 303.598017 140.000543 
L 303.915372 139.3938 
L 304.232727 139.373932 
L 304.867438 138.932096 
L 305.184793 138.878604 
L 305.502149 138.238974 
L 305.819504 138.114546 
L 306.13686 137.494194 
L 306.77157 136.917441 
L 307.723636 136.031334 
L 308.675702 135.833434 
L 308.993058 135.330996 
L 309.627769 134.910506 
L 310.262479 134.420295 
L 310.579835 134.330653 
L 311.214545 133.442489 
L 311.531901 132.520032 
L 312.166612 132.355582 
L 312.483967 131.72948 
L 313.436033 131.528201 
L 313.753388 130.84655 
L 314.070744 130.83792 
L 314.705455 130.683757 
L 315.340165 130.546452 
L 315.657521 130.183361 
L 315.974876 129.623143 
L 316.609587 129.203756 
L 317.561653 128.8802 
L 317.879008 128.684401 
L 318.513719 128.560095 
L 318.831074 127.944802 
L 319.14843 127.815858 
L 319.78314 127.79123 
L 320.100496 127.658074 
L 320.417851 127.655103 
L 321.052562 126.960491 
L 322.004628 126.441719 
L 322.321983 125.942471 
L 322.639339 125.885909 
L 322.956694 124.713693 
L 323.27405 124.539861 
L 323.591405 124.016705 
L 323.90876 123.099944 
L 324.543471 123.033426 
L 324.860826 122.779135 
L 325.495537 121.734687 
L 325.812893 121.730224 
L 326.130248 121.319439 
L 326.764959 121.005746 
L 327.717025 120.751249 
L 328.03438 120.150914 
L 328.351736 120.019588 
L 328.986446 119.054393 
L 329.938512 118.911443 
L 330.255868 118.573364 
L 330.573223 118.476297 
L 330.890579 118.223907 
L 331.207934 117.65831 
L 331.525289 117.602221 
L 332.16 116.671505 
L 333.429421 116.322049 
L 334.064132 115.710627 
L 335.333554 114.74475 
L 335.650909 114.60281 
L 335.968264 112.905277 
L 336.28562 112.028566 
L 336.602975 111.707099 
L 336.920331 111.020336 
L 337.237686 110.824193 
L 337.555041 110.098154 
L 337.872397 110.036943 
L 338.189752 109.776542 
L 338.824463 109.680899 
L 339.141818 107.868365 
L 339.459174 107.09705 
L 339.776529 107.004631 
L 340.093884 106.113649 
L 340.728595 105.824171 
L 341.363306 105.465513 
L 341.680661 104.888793 
L 342.315372 104.783078 
L 342.950083 104.165768 
L 343.584793 104.114166 
L 345.17157 102.264036 
L 345.488926 102.229721 
L 346.123636 99.969223 
L 347.075702 99.094295 
L 347.393058 98.044997 
L 347.710413 97.948194 
L 348.027769 97.216814 
L 348.345124 97.159485 
L 349.931901 96.024009 
L 350.249256 95.057415 
L 350.883967 94.941848 
L 351.518678 94.776784 
L 352.470744 94.42735 
L 352.788099 94.397866 
L 353.42281 94.147235 
L 353.740165 94.015138 
L 354.057521 93.123694 
L 354.692231 92.893452 
L 355.009587 92.291631 
L 355.326942 92.231866 
L 355.961653 90.154723 
L 356.279008 90.041619 
L 356.913719 88.617292 
L 357.231074 88.224522 
L 358.18314 87.886674 
L 358.817851 86.686946 
L 359.135207 86.006193 
L 359.452562 85.984816 
L 359.769917 84.90659 
L 360.087273 84.865656 
L 360.404628 84.120716 
L 361.356694 83.710841 
L 361.67405 83.333721 
L 361.991405 83.242326 
L 362.30876 82.578324 
L 362.943471 82.447381 
L 363.260826 82.117759 
L 363.578182 82.054454 
L 363.895537 81.791425 
L 364.212893 80.630947 
L 365.482314 80.399164 
L 366.117025 78.649902 
L 366.43438 78.533983 
L 366.751736 78.225373 
L 367.703802 77.907577 
L 368.021157 77.092857 
L 368.655868 76.756339 
L 369.290579 76.624069 
L 369.607934 76.351932 
L 370.242645 76.153871 
L 370.877355 75.842677 
L 371.829421 74.850926 
L 372.146777 74.843222 
L 372.781488 74.639743 
L 373.098843 74.626424 
L 373.733554 74.360725 
L 374.050909 73.868276 
L 374.368264 73.696326 
L 374.68562 73.280432 
L 375.320331 73.023915 
L 375.637686 72.724732 
L 375.955041 72.690414 
L 376.272397 72.501696 
L 376.907107 71.794547 
L 377.224463 71.179984 
L 377.541818 71.01495 
L 377.859174 70.396295 
L 378.176529 70.227829 
L 378.493884 69.412992 
L 379.128595 68.921785 
L 379.44595 68.197437 
L 379.763306 68.134513 
L 380.080661 67.896008 
L 380.715372 67.075235 
L 381.032727 66.92195 
L 381.350083 66.338905 
L 381.667438 66.226698 
L 382.619504 65.433558 
L 383.254215 65.347052 
L 383.57157 64.08948 
L 383.888926 63.787607 
L 384.523636 63.663067 
L 384.840992 63.336692 
L 385.158347 63.332008 
L 386.110413 62.421199 
L 386.745124 62.203914 
L 387.062479 61.857035 
L 387.69719 61.806746 
L 388.014545 61.471317 
L 388.331901 60.929058 
L 390.236033 60.385024 
L 391.188099 60.159134 
L 391.505455 58.896284 
L 393.092231 58.458656 
L 393.726942 57.71835 
L 394.044298 57.555323 
L 394.361653 56.893405 
L 395.313719 56.59469 
L 395.94843 56.159207 
L 396.900496 55.305114 
L 397.217851 54.412807 
L 397.535207 53.874827 
L 398.169917 53.767163 
L 398.487273 53.568 
L 398.487273 53.568 
" clip-path="url(#p12ed940a8c)" style="fill: none; stroke: #1f77b4; stroke-width: 1.5; stroke-linecap: square"/>
   </g>
   <g id="line2d_13">
    <path d="M 73.832727 231.875536 
L 74.150083 225.20214 
L 74.467438 225.20214 
L 74.784793 219.497745 
L 75.102149 218.312862 
L 75.73686 218.312862 
L 76.054215 216.178507 
L 76.37157 212.575421 
L 76.688926 212.354362 
L 77.006281 212.354362 
L 77.323636 211.796847 
L 78.910413 211.796847 
L 79.227769 209.764134 
L 79.545124 209.764134 
L 79.862479 209.028299 
L 80.179835 208.573689 
L 80.49719 208.573689 
L 80.814545 206.325949 
L 81.131901 205.26792 
L 82.083967 205.249728 
L 82.401322 204.623539 
L 86.844298 204.587987 
L 87.161653 204.245118 
L 87.479008 202.616345 
L 87.796364 202.256282 
L 88.113719 201.692419 
L 89.700496 201.692419 
L 90.017851 200.971968 
L 90.652562 200.971968 
L 90.969917 200.135056 
L 91.287273 200.135056 
L 91.604628 199.699091 
L 91.921983 198.577722 
L 99.221157 198.577722 
L 99.538512 197.909536 
L 99.855868 197.909536 
L 100.173223 197.751481 
L 101.76 197.751481 
L 102.077355 197.058888 
L 103.664132 197.058888 
L 104.616198 196.632613 
L 104.933554 196.632613 
L 105.250909 195.682815 
L 106.202975 195.634947 
L 106.520331 193.491409 
L 107.155041 193.279612 
L 107.472397 193.279612 
L 107.789752 192.786017 
L 109.376529 192.786017 
L 109.693884 191.702738 
L 110.01124 191.702738 
L 110.328595 190.506056 
L 129.369917 190.506006 
L 129.687273 189.825972 
L 130.321983 189.186394 
L 131.27405 189.145617 
L 131.591405 188.589318 
L 131.90876 188.589318 
L 132.226116 188.462223 
L 132.860826 188.462223 
L 133.178182 187.391309 
L 133.495537 187.391309 
L 133.812893 187.167061 
L 135.399669 187.167061 
L 135.717025 186.253807 
L 136.986446 185.872476 
L 163.009587 185.872476 
L 163.326942 184.924635 
L 167.135207 184.924635 
L 167.452562 184.751412 
L 167.769917 184.751412 
L 168.087273 183.578336 
L 168.404628 183.578336 
L 168.721983 183.265221 
L 169.356694 183.265221 
L 169.67405 183.063162 
L 169.991405 182.579196 
L 171.578182 182.579196 
L 172.847603 182.0932 
L 180.146777 182.0932 
L 180.464132 181.844021 
L 180.781488 181.844021 
L 181.098843 181.599605 
L 182.68562 181.599605 
L 183.320331 179.319594 
L 185.541818 179.299312 
L 185.859174 179.166844 
L 186.493884 179.166844 
L 186.81124 178.966753 
L 187.128595 178.465339 
L 187.44595 178.465339 
L 187.763306 178.125737 
L 188.080661 178.125737 
L 188.398017 176.707987 
L 188.715372 174.686063 
L 283.604628 174.686063 
L 284.239339 171.246389 
L 284.556694 171.246389 
L 284.87405 170.906787 
L 285.191405 170.906787 
L 285.50876 170.405373 
L 285.826116 170.205283 
L 286.460826 170.205283 
L 286.778182 170.072814 
L 288.999669 170.052532 
L 289.63438 167.772522 
L 291.221157 167.772522 
L 291.538512 167.528106 
L 291.855868 167.528106 
L 292.173223 167.278927 
L 299.472397 167.278927 
L 299.789752 167.134161 
L 300.107107 167.134161 
L 300.741818 166.79293 
L 302.328595 166.79293 
L 302.64595 166.308964 
L 302.963306 166.106906 
L 303.598017 166.106906 
L 303.915372 165.79379 
L 304.232727 165.79379 
L 304.550083 164.620714 
L 304.867438 164.620714 
L 305.184793 164.447492 
L 308.993058 164.447492 
L 309.310413 163.499651 
L 335.968264 163.447663 
L 336.602975 163.11832 
L 336.920331 162.205065 
L 338.507107 162.205065 
L 338.824463 161.980817 
L 339.141818 161.980817 
L 339.459174 160.909904 
L 340.093884 160.909904 
L 340.41124 160.782808 
L 340.728595 160.782808 
L 341.04595 160.226509 
L 341.998017 160.185732 
L 342.315372 159.938185 
L 342.632727 159.546154 
L 342.950083 158.86612 
L 361.991405 158.866071 
L 362.30876 157.669388 
L 362.626116 157.669388 
L 362.943471 156.58611 
L 364.530248 156.58611 
L 364.847603 156.092514 
L 365.482314 156.007396 
L 365.799669 155.880718 
L 366.117025 153.737179 
L 367.069091 153.689312 
L 367.386446 152.739514 
L 368.021157 152.739514 
L 368.655868 152.313239 
L 370.242645 152.313239 
L 370.56 151.620645 
L 372.146777 151.620645 
L 372.464132 151.46259 
L 372.781488 151.46259 
L 373.098843 150.794405 
L 380.398017 150.794405 
L 380.715372 149.673035 
L 381.032727 149.23707 
L 381.350083 149.23707 
L 381.667438 148.400159 
L 382.302149 148.400159 
L 382.619504 147.679708 
L 384.206281 147.679708 
L 384.840992 146.755782 
L 385.158347 145.127008 
L 385.475702 144.78414 
L 389.918678 144.748587 
L 390.236033 144.122398 
L 391.188099 144.104206 
L 391.505455 143.046177 
L 391.82281 140.798437 
L 392.140165 140.798437 
L 392.457521 140.343827 
L 392.774876 139.607992 
L 393.092231 139.607992 
L 393.409587 137.57528 
L 394.996364 137.57528 
L 395.313719 137.017765 
L 395.631074 137.017765 
L 395.94843 136.796705 
L 396.265785 133.193619 
L 396.58314 131.059265 
L 397.217851 131.059265 
L 397.535207 129.874381 
L 397.852562 124.169987 
L 398.169917 124.169987 
L 398.487273 117.496591 
L 398.487273 117.496591 
" clip-path="url(#p12ed940a8c)" style="fill: none; stroke: #ff7f0e; stroke-width: 1.5; stroke-linecap: square"/>
   </g>
   <g id="patch_3">
    <path d="M 57.6 307.584 
L 57.6 41.472 
" style="fill: none; stroke: #000000; stroke-width: 0.8; stroke-linejoin: miter; stroke-linecap: square"/>
   </g>
   <g id="patch_4">
    <path d="M 414.72 307.584 
L 414.72 41.472 
" style="fill: none; stroke: #000000; stroke-width: 0.8; stroke-linejoin: miter; stroke-linecap: square"/>
   </g>
   <g id="patch_5">
    <path d="M 57.6 307.584 
L 414.72 307.584 
" style="fill: none; stroke: #000000; stroke-width: 0.8; stroke-linejoin: miter; stroke-linecap: square"/>
   </g>
   <g id="patch_6">
    <path d="M 57.6 41.472 
L 414.72 41.472 
" style="fill: none; stroke: #000000; stroke-width: 0.8; stroke-linejoin: miter; stroke-linecap: square"/>
   </g>
   <g id="legend_1">
    <g id="patch_7">
     <path d="M 64.6 78.82825 
L 129.342187 78.82825 
Q 131.342187 78.82825 131.342187 76.82825 
L 131.342187 48.472 
Q 131.342187 46.472 129.342187 46.472 
L 64.6 46.472 
Q 62.6 46.472 62.6 48.472 
L 62.6 76.82825 
Q 62.6 78.82825 64.6 78.82825 
z
" style="fill: #ffffff; opacity: 0.8; stroke: #cccccc; stroke-linejoin: miter"/>
    </g>
    <g id="line2d_14">
     <path d="M 66.6 54.570437 
L 76.6 54.570437 
L 86.6 54.570437 
" style="fill: none; stroke: #1f77b4; stroke-width: 1.5; stroke-linecap: square"/>
    </g>
    <g id="text_14">
     <!-- qc -->
     <g transform="translate(94.6 58.070437) scale(0.1 -0.1)">
      <defs>
       <path id="DejaVuSans-71" d="M 947 1747 
Q 947 1113 1208 752 
Q 1469 391 1925 391 
Q 2381 391 2643 752 
Q 2906 1113 2906 1747 
Q 2906 2381 2643 2742 
Q 2381 3103 1925 3103 
Q 1469 3103 1208 2742 
Q 947 2381 947 1747 
z
M 2906 525 
Q 2725 213 2448 61 
Q 2172 -91 1784 -91 
Q 1150 -91 751 415 
Q 353 922 353 1747 
Q 353 2572 751 3078 
Q 1150 3584 1784 3584 
Q 2172 3584 2448 3432 
Q 2725 3281 2906 2969 
L 2906 3500 
L 3481 3500 
L 3481 -1331 
L 2906 -1331 
L 2906 525 
z
" transform="scale(0.015625)"/>
       <path id="DejaVuSans-63" d="M 3122 3366 
L 3122 2828 
Q 2878 2963 2633 3030 
Q 2388 3097 2138 3097 
Q 1578 3097 1268 2742 
Q 959 2388 959 1747 
Q 959 1106 1268 751 
Q 1578 397 2138 397 
Q 2388 397 2633 464 
Q 2878 531 3122 666 
L 3122 134 
Q 2881 22 2623 -34 
Q 2366 -91 2075 -91 
Q 1284 -91 818 406 
Q 353 903 353 1747 
Q 353 2603 823 3093 
Q 1294 3584 2113 3584 
Q 2378 3584 2631 3529 
Q 2884 3475 3122 3366 
z
" transform="scale(0.015625)"/>
      </defs>
      <use xlink:href="#DejaVuSans-71"/>
      <use xlink:href="#DejaVuSans-63" x="63.476562"/>
     </g>
    </g>
    <g id="line2d_15">
     <path d="M 66.6 69.248562 
L 76.6 69.248562 
L 86.6 69.248562 
" style="fill: none; stroke: #ff7f0e; stroke-width: 1.5; stroke-linecap: square"/>
    </g>
    <g id="text_15">
     <!-- Trotter -->
     <g transform="translate(94.6 72.748562) scale(0.1 -0.1)">
      <defs>
       <path id="DejaVuSans-54" d="M -19 4666 
L 3928 4666 
L 3928 4134 
L 2272 4134 
L 2272 0 
L 1638 0 
L 1638 4134 
L -19 4134 
L -19 4666 
z
" transform="scale(0.015625)"/>
       <path id="DejaVuSans-72" d="M 2631 2963 
Q 2534 3019 2420 3045 
Q 2306 3072 2169 3072 
Q 1681 3072 1420 2755 
Q 1159 2438 1159 1844 
L 1159 0 
L 581 0 
L 581 3500 
L 1159 3500 
L 1159 2956 
Q 1341 3275 1631 3429 
Q 1922 3584 2338 3584 
Q 2397 3584 2469 3576 
Q 2541 3569 2628 3553 
L 2631 2963 
z
" transform="scale(0.015625)"/>
       <path id="DejaVuSans-6f" d="M 1959 3097 
Q 1497 3097 1228 2736 
Q 959 2375 959 1747 
Q 959 1119 1226 758 
Q 1494 397 1959 397 
Q 2419 397 2687 759 
Q 2956 1122 2956 1747 
Q 2956 2369 2687 2733 
Q 2419 3097 1959 3097 
z
M 1959 3584 
Q 2709 3584 3137 3096 
Q 3566 2609 3566 1747 
Q 3566 888 3137 398 
Q 2709 -91 1959 -91 
Q 1206 -91 779 398 
Q 353 888 353 1747 
Q 353 2609 779 3096 
Q 1206 3584 1959 3584 
z
" transform="scale(0.015625)"/>
       <path id="DejaVuSans-65" d="M 3597 1894 
L 3597 1613 
L 953 1613 
Q 991 1019 1311 708 
Q 1631 397 2203 397 
Q 2534 397 2845 478 
Q 3156 559 3463 722 
L 3463 178 
Q 3153 47 2828 -22 
Q 2503 -91 2169 -91 
Q 1331 -91 842 396 
Q 353 884 353 1716 
Q 353 2575 817 3079 
Q 1281 3584 2069 3584 
Q 2775 3584 3186 3129 
Q 3597 2675 3597 1894 
z
M 3022 2063 
Q 3016 2534 2758 2815 
Q 2500 3097 2075 3097 
Q 1594 3097 1305 2825 
Q 1016 2553 972 2059 
L 3022 2063 
z
" transform="scale(0.015625)"/>
      </defs>
      <use xlink:href="#DejaVuSans-54"/>
      <use xlink:href="#DejaVuSans-72" x="46.333984"/>
      <use xlink:href="#DejaVuSans-6f" x="85.197266"/>
      <use xlink:href="#DejaVuSans-74" x="146.378906"/>
      <use xlink:href="#DejaVuSans-74" x="185.587891"/>
      <use xlink:href="#DejaVuSans-65" x="224.796875"/>
      <use xlink:href="#DejaVuSans-72" x="286.320312"/>
     </g>
    </g>
   </g>
  </g>
 </g>
 <defs>
  <clipPath id="p12ed940a8c">
   <rect x="57.6" y="41.472" width="357.12" height="266.112"/>
  </clipPath>
 </defs>
</svg>
