<?xml version="1.0" encoding="utf-8" standalone="no"?>
<!DOCTYPE svg PUBLIC "-//W3C//DTD SVG 1.1//EN"
  "http://www.w3.org/Graphics/SVG/1.1/DTD/svg11.dtd">
<svg xmlns:xlink="http://www.w3.org/1999/xlink" width="460.8pt" height="345.6pt" viewBox="0 0 460.8 345.6" xmlns="http://www.w3.org/2000/svg" version="1.1">
 <metadata>
  <rdf:RDF xmlns:dc="http://purl.org/dc/elements/1.1/" xmlns:cc="http://creativecommons.org/ns#" xmlns:rdf="http://www.w3.org/1999/02/22-rdf-syntax-ns#">
   <cc:Work>
    <dc:type rdf:resource="http://purl.org/dc/dcmitype/StillImage"/>
    <dc:date>2024-07-12T13:13:11.205585</dc:date>
    <dc:format>image/svg+xml</dc:format>
    <dc:creator>
     <cc:Agent>
      <dc:title>Matplotlib v3.7.1, https://matplotlib.org/</dc:title>
     </cc:Agent>
    </dc:creator>
   </cc:Work>
  </rdf:RDF>
 </metadata>
 <defs>
  <style type="text/css">*{stroke-linejoin: round; stroke-linecap: butt}</style>
 </defs>
 <g id="figure_1">
  <g id="patch_1">
   <path d="M 0 345.6 
L 460.8 345.6 
L 460.8 0 
L 0 0 
z
" style="fill: #ffffff"/>
  </g>
  <g id="axes_1">
   <g id="patch_2">
    <path d="M 57.6 307.584 
L 414.72 307.584 
L 414.72 41.472 
L 57.6 41.472 
z
" style="fill: #ffffff"/>
   </g>
   <g id="matplotlib.axis_1">
    <g id="xtick_1">
     <g id="line2d_1">
      <defs>
       <path id="m59560404ef" d="M 0 0 
L 0 3.5 
" style="stroke: #000000; stroke-width: 0.8"/>
      </defs>
      <g>
       <use xlink:href="#m59560404ef" x="73.832727" y="307.584" style="stroke: #000000; stroke-width: 0.8"/>
      </g>
     </g>
     <g id="text_1">
      <!-- 0 -->
      <g transform="translate(70.651477 322.182437) scale(0.1 -0.1)">
       <defs>
        <path id="DejaVuSans-30" d="M 2034 4250 
Q 1547 4250 1301 3770 
Q 1056 3291 1056 2328 
Q 1056 1369 1301 889 
Q 1547 409 2034 409 
Q 2525 409 2770 889 
Q 3016 1369 3016 2328 
Q 3016 3291 2770 3770 
Q 2525 4250 2034 4250 
z
M 2034 4750 
Q 2819 4750 3233 4129 
Q 3647 3509 3647 2328 
Q 3647 1150 3233 529 
Q 2819 -91 2034 -91 
Q 1250 -91 836 529 
Q 422 1150 422 2328 
Q 422 3509 836 4129 
Q 1250 4750 2034 4750 
z
" transform="scale(0.015625)"/>
       </defs>
       <use xlink:href="#DejaVuSans-30"/>
      </g>
     </g>
    </g>
    <g id="xtick_2">
     <g id="line2d_2">
      <g>
       <use xlink:href="#m59560404ef" x="137.303802" y="307.584" style="stroke: #000000; stroke-width: 0.8"/>
      </g>
     </g>
     <g id="text_2">
      <!-- 200 -->
      <g transform="translate(127.760052 322.182437) scale(0.1 -0.1)">
       <defs>
        <path id="DejaVuSans-32" d="M 1228 531 
L 3431 531 
L 3431 0 
L 469 0 
L 469 531 
Q 828 903 1448 1529 
Q 2069 2156 2228 2338 
Q 2531 2678 2651 2914 
Q 2772 3150 2772 3378 
Q 2772 3750 2511 3984 
Q 2250 4219 1831 4219 
Q 1534 4219 1204 4116 
Q 875 4013 500 3803 
L 500 4441 
Q 881 4594 1212 4672 
Q 1544 4750 1819 4750 
Q 2544 4750 2975 4387 
Q 3406 4025 3406 3419 
Q 3406 3131 3298 2873 
Q 3191 2616 2906 2266 
Q 2828 2175 2409 1742 
Q 1991 1309 1228 531 
z
" transform="scale(0.015625)"/>
       </defs>
       <use xlink:href="#DejaVuSans-32"/>
       <use xlink:href="#DejaVuSans-30" x="63.623047"/>
       <use xlink:href="#DejaVuSans-30" x="127.246094"/>
      </g>
     </g>
    </g>
    <g id="xtick_3">
     <g id="line2d_3">
      <g>
       <use xlink:href="#m59560404ef" x="200.774876" y="307.584" style="stroke: #000000; stroke-width: 0.8"/>
      </g>
     </g>
     <g id="text_3">
      <!-- 400 -->
      <g transform="translate(191.231126 322.182437) scale(0.1 -0.1)">
       <defs>
        <path id="DejaVuSans-34" d="M 2419 4116 
L 825 1625 
L 2419 1625 
L 2419 4116 
z
M 2253 4666 
L 3047 4666 
L 3047 1625 
L 3713 1625 
L 3713 1100 
L 3047 1100 
L 3047 0 
L 2419 0 
L 2419 1100 
L 313 1100 
L 313 1709 
L 2253 4666 
z
" transform="scale(0.015625)"/>
       </defs>
       <use xlink:href="#DejaVuSans-34"/>
       <use xlink:href="#DejaVuSans-30" x="63.623047"/>
       <use xlink:href="#DejaVuSans-30" x="127.246094"/>
      </g>
     </g>
    </g>
    <g id="xtick_4">
     <g id="line2d_4">
      <g>
       <use xlink:href="#m59560404ef" x="264.24595" y="307.584" style="stroke: #000000; stroke-width: 0.8"/>
      </g>
     </g>
     <g id="text_4">
      <!-- 600 -->
      <g transform="translate(254.7022 322.182437) scale(0.1 -0.1)">
       <defs>
        <path id="DejaVuSans-36" d="M 2113 2584 
Q 1688 2584 1439 2293 
Q 1191 2003 1191 1497 
Q 1191 994 1439 701 
Q 1688 409 2113 409 
Q 2538 409 2786 701 
Q 3034 994 3034 1497 
Q 3034 2003 2786 2293 
Q 2538 2584 2113 2584 
z
M 3366 4563 
L 3366 3988 
Q 3128 4100 2886 4159 
Q 2644 4219 2406 4219 
Q 1781 4219 1451 3797 
Q 1122 3375 1075 2522 
Q 1259 2794 1537 2939 
Q 1816 3084 2150 3084 
Q 2853 3084 3261 2657 
Q 3669 2231 3669 1497 
Q 3669 778 3244 343 
Q 2819 -91 2113 -91 
Q 1303 -91 875 529 
Q 447 1150 447 2328 
Q 447 3434 972 4092 
Q 1497 4750 2381 4750 
Q 2619 4750 2861 4703 
Q 3103 4656 3366 4563 
z
" transform="scale(0.015625)"/>
       </defs>
       <use xlink:href="#DejaVuSans-36"/>
       <use xlink:href="#DejaVuSans-30" x="63.623047"/>
       <use xlink:href="#DejaVuSans-30" x="127.246094"/>
      </g>
     </g>
    </g>
    <g id="xtick_5">
     <g id="line2d_5">
      <g>
       <use xlink:href="#m59560404ef" x="327.717025" y="307.584" style="stroke: #000000; stroke-width: 0.8"/>
      </g>
     </g>
     <g id="text_5">
      <!-- 800 -->
      <g transform="translate(318.173275 322.182437) scale(0.1 -0.1)">
       <defs>
        <path id="DejaVuSans-38" d="M 2034 2216 
Q 1584 2216 1326 1975 
Q 1069 1734 1069 1313 
Q 1069 891 1326 650 
Q 1584 409 2034 409 
Q 2484 409 2743 651 
Q 3003 894 3003 1313 
Q 3003 1734 2745 1975 
Q 2488 2216 2034 2216 
z
M 1403 2484 
Q 997 2584 770 2862 
Q 544 3141 544 3541 
Q 544 4100 942 4425 
Q 1341 4750 2034 4750 
Q 2731 4750 3128 4425 
Q 3525 4100 3525 3541 
Q 3525 3141 3298 2862 
Q 3072 2584 2669 2484 
Q 3125 2378 3379 2068 
Q 3634 1759 3634 1313 
Q 3634 634 3220 271 
Q 2806 -91 2034 -91 
Q 1263 -91 848 271 
Q 434 634 434 1313 
Q 434 1759 690 2068 
Q 947 2378 1403 2484 
z
M 1172 3481 
Q 1172 3119 1398 2916 
Q 1625 2713 2034 2713 
Q 2441 2713 2670 2916 
Q 2900 3119 2900 3481 
Q 2900 3844 2670 4047 
Q 2441 4250 2034 4250 
Q 1625 4250 1398 4047 
Q 1172 3844 1172 3481 
z
" transform="scale(0.015625)"/>
       </defs>
       <use xlink:href="#DejaVuSans-38"/>
       <use xlink:href="#DejaVuSans-30" x="63.623047"/>
       <use xlink:href="#DejaVuSans-30" x="127.246094"/>
      </g>
     </g>
    </g>
    <g id="xtick_6">
     <g id="line2d_6">
      <g>
       <use xlink:href="#m59560404ef" x="391.188099" y="307.584" style="stroke: #000000; stroke-width: 0.8"/>
      </g>
     </g>
     <g id="text_6">
      <!-- 1000 -->
      <g transform="translate(378.463099 322.182437) scale(0.1 -0.1)">
       <defs>
        <path id="DejaVuSans-31" d="M 794 531 
L 1825 531 
L 1825 4091 
L 703 3866 
L 703 4441 
L 1819 4666 
L 2450 4666 
L 2450 531 
L 3481 531 
L 3481 0 
L 794 0 
L 794 531 
z
" transform="scale(0.015625)"/>
       </defs>
       <use xlink:href="#DejaVuSans-31"/>
       <use xlink:href="#DejaVuSans-30" x="63.623047"/>
       <use xlink:href="#DejaVuSans-30" x="127.246094"/>
       <use xlink:href="#DejaVuSans-30" x="190.869141"/>
      </g>
     </g>
    </g>
    <g id="text_7">
     <!-- n -->
     <g transform="translate(232.99125 335.860562) scale(0.1 -0.1)">
      <defs>
       <path id="DejaVuSans-6e" d="M 3513 2113 
L 3513 0 
L 2938 0 
L 2938 2094 
Q 2938 2591 2744 2837 
Q 2550 3084 2163 3084 
Q 1697 3084 1428 2787 
Q 1159 2491 1159 1978 
L 1159 0 
L 581 0 
L 581 3500 
L 1159 3500 
L 1159 2956 
Q 1366 3272 1645 3428 
Q 1925 3584 2291 3584 
Q 2894 3584 3203 3211 
Q 3513 2838 3513 2113 
z
" transform="scale(0.015625)"/>
      </defs>
      <use xlink:href="#DejaVuSans-6e"/>
     </g>
    </g>
   </g>
   <g id="matplotlib.axis_2">
    <g id="ytick_1">
     <g id="line2d_7">
      <defs>
       <path id="mb5815a3fa5" d="M 0 0 
L -3.5 0 
" style="stroke: #000000; stroke-width: 0.8"/>
      </defs>
      <g>
       <use xlink:href="#mb5815a3fa5" x="57.6" y="290.466997" style="stroke: #000000; stroke-width: 0.8"/>
      </g>
     </g>
     <g id="text_8">
      <!-- −3 -->
      <g transform="translate(35.857813 294.266215) scale(0.1 -0.1)">
       <defs>
        <path id="DejaVuSans-2212" d="M 678 2272 
L 4684 2272 
L 4684 1741 
L 678 1741 
L 678 2272 
z
" transform="scale(0.015625)"/>
        <path id="DejaVuSans-33" d="M 2597 2516 
Q 3050 2419 3304 2112 
Q 3559 1806 3559 1356 
Q 3559 666 3084 287 
Q 2609 -91 1734 -91 
Q 1441 -91 1130 -33 
Q 819 25 488 141 
L 488 750 
Q 750 597 1062 519 
Q 1375 441 1716 441 
Q 2309 441 2620 675 
Q 2931 909 2931 1356 
Q 2931 1769 2642 2001 
Q 2353 2234 1838 2234 
L 1294 2234 
L 1294 2753 
L 1863 2753 
Q 2328 2753 2575 2939 
Q 2822 3125 2822 3475 
Q 2822 3834 2567 4026 
Q 2313 4219 1838 4219 
Q 1578 4219 1281 4162 
Q 984 4106 628 3988 
L 628 4550 
Q 988 4650 1302 4700 
Q 1616 4750 1894 4750 
Q 2613 4750 3031 4423 
Q 3450 4097 3450 3541 
Q 3450 3153 3228 2886 
Q 3006 2619 2597 2516 
z
" transform="scale(0.015625)"/>
       </defs>
       <use xlink:href="#DejaVuSans-2212"/>
       <use xlink:href="#DejaVuSans-33" x="83.789062"/>
      </g>
     </g>
    </g>
    <g id="ytick_2">
     <g id="line2d_8">
      <g>
       <use xlink:href="#mb5815a3fa5" x="57.6" y="251.884476" style="stroke: #000000; stroke-width: 0.8"/>
      </g>
     </g>
     <g id="text_9">
      <!-- −2 -->
      <g transform="translate(35.857813 255.683695) scale(0.1 -0.1)">
       <use xlink:href="#DejaVuSans-2212"/>
       <use xlink:href="#DejaVuSans-32" x="83.789062"/>
      </g>
     </g>
    </g>
    <g id="ytick_3">
     <g id="line2d_9">
      <g>
       <use xlink:href="#mb5815a3fa5" x="57.6" y="213.301956" style="stroke: #000000; stroke-width: 0.8"/>
      </g>
     </g>
     <g id="text_10">
      <!-- −1 -->
      <g transform="translate(35.857813 217.101175) scale(0.1 -0.1)">
       <use xlink:href="#DejaVuSans-2212"/>
       <use xlink:href="#DejaVuSans-31" x="83.789062"/>
      </g>
     </g>
    </g>
    <g id="ytick_4">
     <g id="line2d_10">
      <g>
       <use xlink:href="#mb5815a3fa5" x="57.6" y="174.719436" style="stroke: #000000; stroke-width: 0.8"/>
      </g>
     </g>
     <g id="text_11">
      <!-- 0 -->
      <g transform="translate(44.2375 178.518655) scale(0.1 -0.1)">
       <use xlink:href="#DejaVuSans-30"/>
      </g>
     </g>
    </g>
    <g id="ytick_5">
     <g id="line2d_11">
      <g>
       <use xlink:href="#mb5815a3fa5" x="57.6" y="136.136916" style="stroke: #000000; stroke-width: 0.8"/>
      </g>
     </g>
     <g id="text_12">
      <!-- 1 -->
      <g transform="translate(44.2375 139.936134) scale(0.1 -0.1)">
       <use xlink:href="#DejaVuSans-31"/>
      </g>
     </g>
    </g>
    <g id="ytick_6">
     <g id="line2d_12">
      <g>
       <use xlink:href="#mb5815a3fa5" x="57.6" y="97.554395" style="stroke: #000000; stroke-width: 0.8"/>
      </g>
     </g>
     <g id="text_13">
      <!-- 2 -->
      <g transform="translate(44.2375 101.353614) scale(0.1 -0.1)">
       <use xlink:href="#DejaVuSans-32"/>
      </g>
     </g>
    </g>
    <g id="ytick_7">
     <g id="line2d_13">
      <g>
       <use xlink:href="#mb5815a3fa5" x="57.6" y="58.971875" style="stroke: #000000; stroke-width: 0.8"/>
      </g>
     </g>
     <g id="text_14">
      <!-- 3 -->
      <g transform="translate(44.2375 62.771094) scale(0.1 -0.1)">
       <use xlink:href="#DejaVuSans-33"/>
      </g>
     </g>
    </g>
    <g id="text_15">
     <!-- E*t -->
     <g transform="translate(29.778125 182.147531) rotate(-90) scale(0.1 -0.1)">
      <defs>
       <path id="DejaVuSans-45" d="M 628 4666 
L 3578 4666 
L 3578 4134 
L 1259 4134 
L 1259 2753 
L 3481 2753 
L 3481 2222 
L 1259 2222 
L 1259 531 
L 3634 531 
L 3634 0 
L 628 0 
L 628 4666 
z
" transform="scale(0.015625)"/>
       <path id="DejaVuSans-2a" d="M 3009 3897 
L 1888 3291 
L 3009 2681 
L 2828 2375 
L 1778 3009 
L 1778 1831 
L 1422 1831 
L 1422 3009 
L 372 2375 
L 191 2681 
L 1313 3291 
L 191 3897 
L 372 4206 
L 1422 3572 
L 1422 4750 
L 1778 4750 
L 1778 3572 
L 2828 4206 
L 3009 3897 
z
" transform="scale(0.015625)"/>
       <path id="DejaVuSans-74" d="M 1172 4494 
L 1172 3500 
L 2356 3500 
L 2356 3053 
L 1172 3053 
L 1172 1153 
Q 1172 725 1289 603 
Q 1406 481 1766 481 
L 2356 481 
L 2356 0 
L 1766 0 
Q 1100 0 847 248 
Q 594 497 594 1153 
L 594 3053 
L 172 3053 
L 172 3500 
L 594 3500 
L 594 4494 
L 1172 4494 
z
" transform="scale(0.015625)"/>
      </defs>
      <use xlink:href="#DejaVuSans-45"/>
      <use xlink:href="#DejaVuSans-2a" x="63.183594"/>
      <use xlink:href="#DejaVuSans-74" x="113.183594"/>
     </g>
    </g>
   </g>
   <g id="line2d_14">
    <path d="M 73.832727 295.488 
L 74.150083 295.411547 
L 74.467438 294.999971 
L 74.784793 294.962638 
L 75.73686 293.342897 
L 76.054215 293.328816 
L 76.37157 292.986104 
L 77.323636 292.861492 
L 78.275702 291.939276 
L 78.910413 291.872338 
L 80.49719 290.246403 
L 80.814545 290.226888 
L 81.131901 289.88961 
L 81.449256 289.7668 
L 81.766612 289.315384 
L 82.083967 288.606358 
L 82.718678 288.292588 
L 84.62281 286.982967 
L 85.257521 286.241956 
L 85.892231 286.026099 
L 86.209587 285.857279 
L 86.526942 285.402053 
L 87.479008 285.04526 
L 88.431074 284.868125 
L 88.74843 284.865657 
L 89.38314 284.180474 
L 89.700496 283.976836 
L 90.652562 283.734588 
L 90.969917 283.591176 
L 91.287273 283.285263 
L 92.239339 283.187816 
L 92.556694 282.987683 
L 93.826116 282.815066 
L 94.143471 282.602023 
L 94.778182 281.825913 
L 95.412893 281.653029 
L 95.730248 280.818564 
L 96.047603 280.494819 
L 96.682314 280.129435 
L 97.63438 278.737006 
L 98.269091 278.6666 
L 99.221157 278.085255 
L 99.538512 277.990606 
L 99.855868 277.688174 
L 100.807934 277.578795 
L 101.442645 277.009772 
L 102.077355 276.924813 
L 102.712066 276.453582 
L 103.029421 276.390022 
L 103.346777 276.020618 
L 103.981488 275.940697 
L 104.298843 275.849036 
L 104.616198 275.606616 
L 104.933554 274.859882 
L 105.250909 274.448405 
L 105.88562 274.308463 
L 106.202975 273.213812 
L 106.520331 273.150253 
L 106.837686 271.632615 
L 107.155041 271.192578 
L 107.472397 271.183291 
L 109.693884 268.122235 
L 110.01124 267.953046 
L 110.328595 266.964025 
L 110.64595 259.451945 
L 110.963306 258.462791 
L 111.280661 258.428506 
L 111.598017 257.439352 
L 111.915372 252.524865 
L 112.232727 252.124696 
L 112.867438 251.135541 
L 113.184793 249.442452 
L 113.502149 249.085659 
L 113.819504 248.453298 
L 114.13686 248.096505 
L 114.454215 245.441708 
L 114.77157 244.453152 
L 115.088926 244.418913 
L 115.406281 243.742916 
L 115.723636 243.437425 
L 116.040992 243.430356 
L 116.358347 242.754359 
L 116.993058 242.125654 
L 117.310413 241.1365 
L 117.627769 240.965212 
L 117.945124 239.976058 
L 118.262479 236.944892 
L 119.214545 235.50701 
L 119.531901 234.863567 
L 119.849256 233.87501 
L 120.166612 233.705356 
L 121.436033 229.877967 
L 121.753388 229.572473 
L 122.070744 229.483205 
L 122.705455 227.784143 
L 123.02281 227.47865 
L 123.340165 223.080209 
L 123.657521 222.630884 
L 123.974876 220.998616 
L 124.292231 220.986385 
L 124.609587 220.537061 
L 124.926942 219.863716 
L 125.244298 219.840405 
L 125.561653 218.904793 
L 125.879008 218.839156 
L 126.196364 218.607575 
L 126.513719 217.769731 
L 126.831074 217.746582 
L 127.14843 217.582812 
L 127.465785 216.745172 
L 128.417851 215.986498 
L 128.735207 215.489849 
L 129.052562 215.488828 
L 129.369917 214.467512 
L 130.004628 213.892516 
L 130.321983 213.395866 
L 130.639339 212.658486 
L 130.956694 212.373529 
L 131.27405 212.255215 
L 131.591405 210.702772 
L 132.860826 210.161229 
L 133.178182 209.549914 
L 133.812893 209.502264 
L 134.447603 208.826034 
L 135.399669 208.52054 
L 135.717025 208.5127 
L 136.669091 207.83647 
L 136.986446 207.530976 
L 137.621157 207.394923 
L 137.938512 207.086281 
L 138.573223 206.237508 
L 138.890579 206.222997 
L 139.842645 205.300941 
L 140.16 204.143526 
L 140.794711 203.47001 
L 141.112066 202.656231 
L 141.429421 202.224271 
L 141.746777 202.02824 
L 142.064132 201.633435 
L 142.381488 201.578916 
L 142.698843 201.06379 
L 143.333554 200.957167 
L 143.650909 200.651673 
L 143.968264 200.589351 
L 144.28562 200.130285 
L 144.602975 199.946682 
L 144.920331 199.095246 
L 145.555041 198.957117 
L 146.189752 198.788471 
L 146.507107 197.934583 
L 147.141818 197.798907 
L 147.459174 197.216467 
L 148.093884 196.910973 
L 148.41124 195.8406 
L 148.728595 195.819036 
L 149.04595 194.79624 
L 149.363306 194.159412 
L 149.680661 194.119973 
L 149.998017 193.814479 
L 150.315372 193.710087 
L 150.632727 192.707822 
L 151.267438 191.682448 
L 151.584793 191.578128 
L 151.902149 190.974687 
L 152.53686 190.796518 
L 153.806281 189.951891 
L 155.075702 189.275622 
L 156.027769 188.970128 
L 156.662479 188.447645 
L 157.614545 188.171458 
L 157.931901 187.838241 
L 158.249256 187.815444 
L 158.883967 187.515102 
L 160.470744 187.178885 
L 160.788099 186.872892 
L 161.105455 186.807237 
L 161.42281 186.409867 
L 161.740165 186.375841 
L 162.374876 186.170856 
L 163.009587 185.918688 
L 163.961653 185.351124 
L 164.596364 185.240618 
L 164.913719 185.072512 
L 165.865785 184.907022 
L 167.769917 184.497335 
L 168.087273 184.476639 
L 168.404628 184.194998 
L 169.356694 183.889495 
L 170.30876 183.793383 
L 170.626116 183.738417 
L 170.943471 183.529592 
L 171.578182 183.461914 
L 171.895537 183.024862 
L 174.751736 182.477867 
L 175.386446 182.244514 
L 176.338512 182.028543 
L 178.242645 181.848566 
L 179.829421 181.617627 
L 181.416198 181.326922 
L 182.368264 180.966207 
L 183.320331 180.787211 
L 184.272397 180.729146 
L 185.224463 180.481698 
L 186.493884 180.396268 
L 186.81124 180.313494 
L 187.44595 179.87363 
L 188.398017 179.702263 
L 189.984793 179.471477 
L 190.619504 179.238059 
L 191.57157 179.191329 
L 192.206281 179.064035 
L 193.475702 178.880089 
L 194.110413 178.641431 
L 194.745124 178.51582 
L 202.996364 177.090848 
L 203.94843 176.988423 
L 204.58314 176.643847 
L 205.852562 176.4539 
L 208.70876 175.918758 
L 209.343471 175.867286 
L 209.660826 175.667543 
L 211.564959 175.528203 
L 211.882314 175.269826 
L 212.83438 175.237542 
L 213.151736 175.060338 
L 213.786446 175.023717 
L 214.421157 174.851466 
L 215.055868 174.834731 
L 215.373223 174.678017 
L 216.007934 174.625489 
L 216.325289 174.495576 
L 217.277355 174.383255 
L 217.912066 174.218526 
L 218.546777 174.092444 
L 219.498843 174.000954 
L 219.816198 173.766931 
L 225.21124 172.742068 
L 225.528595 172.707049 
L 225.84595 172.478049 
L 227.115372 172.373333 
L 228.067438 172.081552 
L 233.779835 171.110468 
L 234.09719 170.89404 
L 234.731901 170.857798 
L 235.683967 170.616861 
L 236.318678 170.490906 
L 236.953388 170.355028 
L 237.905455 170.005393 
L 238.540165 169.850865 
L 239.174876 169.618032 
L 240.126942 169.607935 
L 242.34843 168.693508 
L 242.665785 168.690253 
L 242.98314 168.510021 
L 243.617851 168.464842 
L 243.935207 168.304038 
L 244.252562 168.269996 
L 244.569917 167.913588 
L 248.695537 167.021312 
L 249.012893 166.763915 
L 249.330248 166.753081 
L 249.647603 166.431161 
L 250.282314 166.363148 
L 250.599669 166.069237 
L 250.917025 166.028177 
L 251.23438 165.86484 
L 251.551736 165.84029 
L 251.869091 165.671725 
L 252.503802 165.611475 
L 252.821157 165.307383 
L 253.455868 165.202549 
L 253.773223 164.679686 
L 254.725289 164.505963 
L 255.042645 164.146758 
L 255.36 164.114483 
L 255.994711 163.463133 
L 256.312066 163.345395 
L 256.629421 162.996346 
L 257.581488 162.868282 
L 257.898843 162.611689 
L 258.216198 162.594055 
L 258.533554 161.971555 
L 259.168264 161.707582 
L 259.48562 161.075991 
L 259.802975 160.849095 
L 260.120331 160.810848 
L 260.437686 159.915299 
L 261.072397 159.688443 
L 261.389752 158.886965 
L 261.707107 158.596115 
L 262.024463 157.726392 
L 262.659174 155.064884 
L 262.976529 155.015065 
L 263.293884 154.249499 
L 263.61124 154.025911 
L 263.928595 153.992269 
L 264.24595 153.316004 
L 264.563306 153.226059 
L 264.880661 153.01051 
L 265.198017 153.003115 
L 265.515372 152.32685 
L 265.832727 152.021356 
L 266.150083 151.333478 
L 266.467438 150.310038 
L 266.784793 148.203089 
L 267.102149 147.322427 
L 268.054215 146.922258 
L 268.37157 146.904939 
L 269.006281 146.068921 
L 269.640992 145.8815 
L 270.275702 145.079767 
L 270.593058 144.436653 
L 270.910413 144.406406 
L 271.862479 143.883219 
L 272.179835 143.447499 
L 272.49719 143.296934 
L 272.814545 143.278442 
L 273.131901 142.307851 
L 274.083967 142.147568 
L 274.401322 142.040683 
L 274.718678 141.323992 
L 276.305455 141.015921 
L 276.940165 140.875848 
L 277.257521 140.041422 
L 277.892231 139.977868 
L 278.209587 139.723683 
L 279.161653 139.419698 
L 279.479008 138.92305 
L 280.113719 138.430625 
L 280.74843 137.933978 
L 281.38314 137.83681 
L 281.700496 136.959007 
L 282.652562 136.895453 
L 282.969917 136.602214 
L 283.287273 136.53866 
L 283.921983 135.762782 
L 284.239339 135.688448 
L 284.556694 135.220389 
L 284.87405 135.102627 
L 285.191405 134.820219 
L 285.50876 134.699356 
L 285.826116 134.135973 
L 286.143471 134.007203 
L 286.460826 133.706894 
L 286.778182 133.146903 
L 288.047603 132.613494 
L 288.364959 132.138874 
L 288.682314 132.131606 
L 289.951736 131.624406 
L 290.269091 131.143435 
L 290.586446 130.876814 
L 291.221157 130.761114 
L 291.538512 130.129954 
L 291.855868 129.839051 
L 292.490579 129.670708 
L 293.125289 129.578664 
L 295.029421 128.418222 
L 295.346777 128.387466 
L 295.664132 128.036131 
L 295.981488 128.008123 
L 296.298843 127.069259 
L 296.933554 127.002322 
L 297.250909 126.699574 
L 297.568264 126.030569 
L 297.88562 125.657508 
L 298.202975 124.975436 
L 299.472397 124.605751 
L 299.789752 124.497026 
L 300.107107 123.936746 
L 300.741818 123.507932 
L 301.059174 122.528447 
L 301.693884 121.681401 
L 302.328595 121.367785 
L 302.64595 120.382786 
L 302.963306 120.378715 
L 303.280661 120.019128 
L 303.598017 119.998109 
L 303.915372 119.587578 
L 304.232727 118.288963 
L 305.184793 117.732006 
L 305.819504 116.955896 
L 306.13686 116.023844 
L 307.088926 114.862073 
L 308.040992 112.136311 
L 308.358347 111.83082 
L 308.675702 111.741113 
L 309.310413 110.718318 
L 309.627769 110.464587 
L 309.945124 110.042323 
L 310.262479 109.989866 
L 310.89719 109.47568 
L 311.214545 109.438398 
L 312.801322 107.583547 
L 313.118678 107.552218 
L 313.436033 107.282006 
L 313.753388 107.261033 
L 314.705455 106.515267 
L 315.02281 106.292978 
L 315.657521 106.238624 
L 315.974876 105.982342 
L 316.292231 105.526192 
L 316.609587 105.491841 
L 317.244298 105.249379 
L 318.513719 103.869064 
L 318.831074 103.770657 
L 319.14843 103.256962 
L 319.78314 103.1702 
L 320.100496 102.879743 
L 320.735207 102.781427 
L 321.369917 102.66741 
L 321.687273 102.248596 
L 322.004628 102.098751 
L 322.321983 101.771839 
L 322.639339 101.67861 
L 322.956694 101.315655 
L 323.90876 101.162974 
L 324.226116 100.902968 
L 324.543471 100.326817 
L 325.178182 100.183758 
L 325.812893 99.914125 
L 326.130248 99.88275 
L 326.764959 98.893694 
L 327.399669 98.83214 
L 327.717025 98.485554 
L 328.986446 98.082618 
L 329.303802 97.873563 
L 329.938512 97.77987 
L 330.255868 97.496844 
L 331.525289 97.351756 
L 332.794711 96.907726 
L 333.112066 96.52541 
L 334.064132 96.241246 
L 334.381488 95.984854 
L 334.698843 95.918643 
L 335.333554 95.261695 
L 335.650909 94.409061 
L 336.920331 94.272347 
L 337.555041 94.039378 
L 337.872397 93.953189 
L 338.507107 93.370371 
L 339.141818 93.346836 
L 340.728595 92.569343 
L 341.363306 91.49896 
L 341.680661 91.463074 
L 342.632727 91.078396 
L 343.584793 90.853199 
L 343.902149 90.47552 
L 344.854215 89.864485 
L 345.17157 89.529007 
L 345.488926 89.45275 
L 345.806281 89.197962 
L 346.758347 88.989231 
L 347.075702 88.812288 
L 347.393058 88.502521 
L 347.710413 88.425086 
L 348.027769 88.036191 
L 348.345124 88.000175 
L 348.662479 87.722587 
L 348.979835 87.622204 
L 349.29719 87.33791 
L 349.614545 86.665703 
L 349.931901 86.633103 
L 350.249256 86.468315 
L 351.518678 86.339416 
L 352.153388 86.09863 
L 352.470744 85.924768 
L 352.788099 85.472396 
L 353.740165 85.316621 
L 354.057521 85.071807 
L 354.374876 84.684604 
L 355.326942 84.571879 
L 355.644298 84.335137 
L 356.596364 84.17171 
L 356.913719 83.58329 
L 357.865785 82.791079 
L 358.18314 82.361038 
L 358.817851 82.230879 
L 359.452562 81.768283 
L 360.404628 81.512003 
L 360.721983 81.489466 
L 361.67405 81.132673 
L 362.626116 81.070143 
L 362.943471 80.786799 
L 363.260826 80.668717 
L 363.578182 79.78184 
L 364.530248 79.397163 
L 365.164959 78.664433 
L 367.703802 77.393274 
L 368.338512 77.329665 
L 368.655868 77.131062 
L 368.973223 77.113931 
L 369.607934 76.437935 
L 371.194711 76.132444 
L 371.512066 75.761279 
L 371.829421 75.666072 
L 372.146777 75.393969 
L 372.464132 75.360581 
L 372.781488 75.165848 
L 373.098843 75.10605 
L 373.733554 74.603068 
L 375.637686 74.184358 
L 375.955041 74.172668 
L 376.589752 73.496634 
L 376.907107 73.012226 
L 377.224463 72.820641 
L 377.541818 72.771786 
L 377.859174 72.543158 
L 378.176529 72.51515 
L 378.493884 72.212941 
L 378.81124 72.171899 
L 379.128595 71.722574 
L 379.763306 71.553594 
L 380.080661 71.519718 
L 381.032727 70.925384 
L 381.350083 70.549654 
L 381.984793 70.476059 
L 382.619504 70.090575 
L 382.93686 69.639911 
L 383.254215 69.636706 
L 383.57157 69.388919 
L 384.206281 69.190586 
L 384.523636 68.932364 
L 385.158347 68.844064 
L 385.475702 68.418723 
L 385.793058 67.691826 
L 386.110413 67.685853 
L 386.427769 67.558586 
L 387.062479 66.786723 
L 388.014545 65.628513 
L 388.966612 65.573287 
L 389.283967 65.215916 
L 389.601322 64.671967 
L 389.918678 64.626522 
L 390.553388 64.226353 
L 391.188099 63.648527 
L 391.505455 62.838683 
L 391.82281 62.783082 
L 392.457521 62.389358 
L 392.774876 62.176878 
L 393.092231 61.544107 
L 393.726942 60.931266 
L 394.044298 60.757358 
L 394.361653 59.907827 
L 394.679008 59.599147 
L 394.996364 57.834772 
L 395.313719 57.744887 
L 395.94843 56.811332 
L 396.265785 55.216882 
L 396.900496 54.305681 
L 397.852562 54.004186 
L 398.169917 53.604016 
L 398.487273 53.568 
L 398.487273 53.568 
" clip-path="url(#p7b86dca259)" style="fill: none; stroke: #1f77b4; stroke-width: 1.5; stroke-linecap: square"/>
   </g>
   <g id="line2d_15">
    <path d="M 73.832727 182.609415 
L 74.150083 181.688739 
L 74.467438 181.688739 
L 74.784793 180.901749 
L 75.102149 180.73828 
L 75.73686 180.73828 
L 76.054215 180.44382 
L 76.37157 179.946731 
L 78.593058 179.839317 
L 78.910413 179.839317 
L 79.227769 179.55888 
L 79.862479 179.457362 
L 80.49719 179.394643 
L 80.814545 179.084541 
L 81.131901 178.938573 
L 86.844298 178.844768 
L 87.161653 178.797465 
L 87.479008 178.572756 
L 88.74843 178.445289 
L 90.652562 178.345894 
L 91.287273 178.230432 
L 92.87405 178.015579 
L 99.855868 177.923395 
L 103.029421 177.806037 
L 104.933554 177.747228 
L 105.250909 177.616191 
L 106.202975 177.609588 
L 106.520331 177.31386 
L 110.01124 177.067092 
L 110.328595 176.901995 
L 129.687273 176.808169 
L 130.639339 176.719932 
L 132.860826 176.620023 
L 133.178182 176.472278 
L 135.399669 176.44134 
L 136.03438 176.298356 
L 137.621157 176.262737 
L 163.009587 176.262737 
L 163.326942 176.13197 
L 167.769917 176.108072 
L 168.087273 175.946232 
L 169.67405 175.875158 
L 170.30876 175.808389 
L 180.781488 175.706963 
L 182.050909 175.673242 
L 182.68562 175.673242 
L 183.320331 175.358687 
L 186.81124 175.310009 
L 187.763306 175.19398 
L 188.080661 175.19398 
L 189.032727 174.719436 
L 283.604628 174.719436 
L 284.239339 174.244891 
L 285.191405 174.198039 
L 286.143471 174.101258 
L 288.999669 174.080184 
L 289.63438 173.765629 
L 300.107107 173.67756 
L 301.693884 173.630483 
L 303.598017 173.535837 
L 305.819504 173.306901 
L 308.993058 173.306901 
L 309.310413 173.176135 
L 336.602975 173.123526 
L 336.920331 172.997531 
L 339.141818 172.966593 
L 339.459174 172.818848 
L 341.998017 172.71894 
L 344.53686 172.536883 
L 361.991405 172.536877 
L 362.30876 172.37178 
L 362.626116 172.37178 
L 362.943471 172.222328 
L 365.799669 172.125011 
L 366.117025 171.829284 
L 367.069091 171.82268 
L 367.386446 171.691644 
L 370.242645 171.632834 
L 370.877355 171.537283 
L 372.781488 171.515477 
L 373.416198 171.423293 
L 380.398017 171.423293 
L 381.032727 171.20844 
L 381.350083 171.20844 
L 381.984793 171.092977 
L 384.206281 170.993583 
L 384.840992 170.866116 
L 385.158347 170.641407 
L 386.110413 170.589199 
L 391.188099 170.500299 
L 391.505455 170.354331 
L 391.82281 170.044228 
L 392.457521 169.981509 
L 393.726942 169.599555 
L 395.94843 169.492141 
L 396.58314 168.700592 
L 397.217851 168.700592 
L 397.535207 168.537122 
L 397.852562 167.750132 
L 398.169917 167.750132 
L 398.487273 166.829457 
L 398.487273 166.829457 
" clip-path="url(#p7b86dca259)" style="fill: none; stroke: #ff7f0e; stroke-width: 1.5; stroke-linecap: square"/>
   </g>
   <g id="patch_3">
    <path d="M 57.6 307.584 
L 57.6 41.472 
" style="fill: none; stroke: #000000; stroke-width: 0.8; stroke-linejoin: miter; stroke-linecap: square"/>
   </g>
   <g id="patch_4">
    <path d="M 414.72 307.584 
L 414.72 41.472 
" style="fill: none; stroke: #000000; stroke-width: 0.8; stroke-linejoin: miter; stroke-linecap: square"/>
   </g>
   <g id="patch_5">
    <path d="M 57.6 307.584 
L 414.72 307.584 
" style="fill: none; stroke: #000000; stroke-width: 0.8; stroke-linejoin: miter; stroke-linecap: square"/>
   </g>
   <g id="patch_6">
    <path d="M 57.6 41.472 
L 414.72 41.472 
" style="fill: none; stroke: #000000; stroke-width: 0.8; stroke-linejoin: miter; stroke-linecap: square"/>
   </g>
   <g id="legend_1">
    <g id="patch_7">
     <path d="M 64.6 78.82825 
L 129.342187 78.82825 
Q 131.342187 78.82825 131.342187 76.82825 
L 131.342187 48.472 
Q 131.342187 46.472 129.342187 46.472 
L 64.6 46.472 
Q 62.6 46.472 62.6 48.472 
L 62.6 76.82825 
Q 62.6 78.82825 64.6 78.82825 
z
" style="fill: #ffffff; opacity: 0.8; stroke: #cccccc; stroke-linejoin: miter"/>
    </g>
    <g id="line2d_16">
     <path d="M 66.6 54.570437 
L 76.6 54.570437 
L 86.6 54.570437 
" style="fill: none; stroke: #1f77b4; stroke-width: 1.5; stroke-linecap: square"/>
    </g>
    <g id="text_16">
     <!-- qc -->
     <g transform="translate(94.6 58.070437) scale(0.1 -0.1)">
      <defs>
       <path id="DejaVuSans-71" d="M 947 1747 
Q 947 1113 1208 752 
Q 1469 391 1925 391 
Q 2381 391 2643 752 
Q 2906 1113 2906 1747 
Q 2906 2381 2643 2742 
Q 2381 3103 1925 3103 
Q 1469 3103 1208 2742 
Q 947 2381 947 1747 
z
M 2906 525 
Q 2725 213 2448 61 
Q 2172 -91 1784 -91 
Q 1150 -91 751 415 
Q 353 922 353 1747 
Q 353 2572 751 3078 
Q 1150 3584 1784 3584 
Q 2172 3584 2448 3432 
Q 2725 3281 2906 2969 
L 2906 3500 
L 3481 3500 
L 3481 -1331 
L 2906 -1331 
L 2906 525 
z
" transform="scale(0.015625)"/>
       <path id="DejaVuSans-63" d="M 3122 3366 
L 3122 2828 
Q 2878 2963 2633 3030 
Q 2388 3097 2138 3097 
Q 1578 3097 1268 2742 
Q 959 2388 959 1747 
Q 959 1106 1268 751 
Q 1578 397 2138 397 
Q 2388 397 2633 464 
Q 2878 531 3122 666 
L 3122 134 
Q 2881 22 2623 -34 
Q 2366 -91 2075 -91 
Q 1284 -91 818 406 
Q 353 903 353 1747 
Q 353 2603 823 3093 
Q 1294 3584 2113 3584 
Q 2378 3584 2631 3529 
Q 2884 3475 3122 3366 
z
" transform="scale(0.015625)"/>
      </defs>
      <use xlink:href="#DejaVuSans-71"/>
      <use xlink:href="#DejaVuSans-63" x="63.476562"/>
     </g>
    </g>
    <g id="line2d_17">
     <path d="M 66.6 69.248562 
L 76.6 69.248562 
L 86.6 69.248562 
" style="fill: none; stroke: #ff7f0e; stroke-width: 1.5; stroke-linecap: square"/>
    </g>
    <g id="text_17">
     <!-- Trotter -->
     <g transform="translate(94.6 72.748562) scale(0.1 -0.1)">
      <defs>
       <path id="DejaVuSans-54" d="M -19 4666 
L 3928 4666 
L 3928 4134 
L 2272 4134 
L 2272 0 
L 1638 0 
L 1638 4134 
L -19 4134 
L -19 4666 
z
" transform="scale(0.015625)"/>
       <path id="DejaVuSans-72" d="M 2631 2963 
Q 2534 3019 2420 3045 
Q 2306 3072 2169 3072 
Q 1681 3072 1420 2755 
Q 1159 2438 1159 1844 
L 1159 0 
L 581 0 
L 581 3500 
L 1159 3500 
L 1159 2956 
Q 1341 3275 1631 3429 
Q 1922 3584 2338 3584 
Q 2397 3584 2469 3576 
Q 2541 3569 2628 3553 
L 2631 2963 
z
" transform="scale(0.015625)"/>
       <path id="DejaVuSans-6f" d="M 1959 3097 
Q 1497 3097 1228 2736 
Q 959 2375 959 1747 
Q 959 1119 1226 758 
Q 1494 397 1959 397 
Q 2419 397 2687 759 
Q 2956 1122 2956 1747 
Q 2956 2369 2687 2733 
Q 2419 3097 1959 3097 
z
M 1959 3584 
Q 2709 3584 3137 3096 
Q 3566 2609 3566 1747 
Q 3566 888 3137 398 
Q 2709 -91 1959 -91 
Q 1206 -91 779 398 
Q 353 888 353 1747 
Q 353 2609 779 3096 
Q 1206 3584 1959 3584 
z
" transform="scale(0.015625)"/>
       <path id="DejaVuSans-65" d="M 3597 1894 
L 3597 1613 
L 953 1613 
Q 991 1019 1311 708 
Q 1631 397 2203 397 
Q 2534 397 2845 478 
Q 3156 559 3463 722 
L 3463 178 
Q 3153 47 2828 -22 
Q 2503 -91 2169 -91 
Q 1331 -91 842 396 
Q 353 884 353 1716 
Q 353 2575 817 3079 
Q 1281 3584 2069 3584 
Q 2775 3584 3186 3129 
Q 3597 2675 3597 1894 
z
M 3022 2063 
Q 3016 2534 2758 2815 
Q 2500 3097 2075 3097 
Q 1594 3097 1305 2825 
Q 1016 2553 972 2059 
L 3022 2063 
z
" transform="scale(0.015625)"/>
      </defs>
      <use xlink:href="#DejaVuSans-54"/>
      <use xlink:href="#DejaVuSans-72" x="46.333984"/>
      <use xlink:href="#DejaVuSans-6f" x="85.197266"/>
      <use xlink:href="#DejaVuSans-74" x="146.378906"/>
      <use xlink:href="#DejaVuSans-74" x="185.587891"/>
      <use xlink:href="#DejaVuSans-65" x="224.796875"/>
      <use xlink:href="#DejaVuSans-72" x="286.320312"/>
     </g>
    </g>
   </g>
  </g>
 </g>
 <defs>
  <clipPath id="p7b86dca259">
   <rect x="57.6" y="41.472" width="357.12" height="266.112"/>
  </clipPath>
 </defs>
</svg>
