<?xml version="1.0" encoding="utf-8" standalone="no"?>
<!DOCTYPE svg PUBLIC "-//W3C//DTD SVG 1.1//EN"
  "http://www.w3.org/Graphics/SVG/1.1/DTD/svg11.dtd">
<svg xmlns:xlink="http://www.w3.org/1999/xlink" width="460.8pt" height="345.6pt" viewBox="0 0 460.8 345.6" xmlns="http://www.w3.org/2000/svg" version="1.1">
 <metadata>
  <rdf:RDF xmlns:dc="http://purl.org/dc/elements/1.1/" xmlns:cc="http://creativecommons.org/ns#" xmlns:rdf="http://www.w3.org/1999/02/22-rdf-syntax-ns#">
   <cc:Work>
    <dc:type rdf:resource="http://purl.org/dc/dcmitype/StillImage"/>
    <dc:date>2024-08-25T12:14:00.559871</dc:date>
    <dc:format>image/svg+xml</dc:format>
    <dc:creator>
     <cc:Agent>
      <dc:title>Matplotlib v3.7.1, https://matplotlib.org/</dc:title>
     </cc:Agent>
    </dc:creator>
   </cc:Work>
  </rdf:RDF>
 </metadata>
 <defs>
  <style type="text/css">*{stroke-linejoin: round; stroke-linecap: butt}</style>
 </defs>
 <g id="figure_1">
  <g id="patch_1">
   <path d="M 0 345.6 
L 460.8 345.6 
L 460.8 0 
L 0 0 
z
" style="fill: #ffffff"/>
  </g>
  <g id="axes_1">
   <g id="patch_2">
    <path d="M 57.6 307.584 
L 414.72 307.584 
L 414.72 41.472 
L 57.6 41.472 
z
" style="fill: #ffffff"/>
   </g>
   <g id="matplotlib.axis_1">
    <g id="xtick_1">
     <g id="line2d_1">
      <defs>
       <path id="mc595e09bdc" d="M 0 0 
L 0 3.5 
" style="stroke: #000000; stroke-width: 0.8"/>
      </defs>
      <g>
       <use xlink:href="#mc595e09bdc" x="73.832727" y="307.584" style="stroke: #000000; stroke-width: 0.8"/>
      </g>
     </g>
     <g id="text_1">
      <!-- 0 -->
      <g transform="translate(70.651477 322.182437) scale(0.1 -0.1)">
       <defs>
        <path id="DejaVuSans-30" d="M 2034 4250 
Q 1547 4250 1301 3770 
Q 1056 3291 1056 2328 
Q 1056 1369 1301 889 
Q 1547 409 2034 409 
Q 2525 409 2770 889 
Q 3016 1369 3016 2328 
Q 3016 3291 2770 3770 
Q 2525 4250 2034 4250 
z
M 2034 4750 
Q 2819 4750 3233 4129 
Q 3647 3509 3647 2328 
Q 3647 1150 3233 529 
Q 2819 -91 2034 -91 
Q 1250 -91 836 529 
Q 422 1150 422 2328 
Q 422 3509 836 4129 
Q 1250 4750 2034 4750 
z
" transform="scale(0.015625)"/>
       </defs>
       <use xlink:href="#DejaVuSans-30"/>
      </g>
     </g>
    </g>
    <g id="xtick_2">
     <g id="line2d_2">
      <g>
       <use xlink:href="#mc595e09bdc" x="137.303802" y="307.584" style="stroke: #000000; stroke-width: 0.8"/>
      </g>
     </g>
     <g id="text_2">
      <!-- 200 -->
      <g transform="translate(127.760052 322.182437) scale(0.1 -0.1)">
       <defs>
        <path id="DejaVuSans-32" d="M 1228 531 
L 3431 531 
L 3431 0 
L 469 0 
L 469 531 
Q 828 903 1448 1529 
Q 2069 2156 2228 2338 
Q 2531 2678 2651 2914 
Q 2772 3150 2772 3378 
Q 2772 3750 2511 3984 
Q 2250 4219 1831 4219 
Q 1534 4219 1204 4116 
Q 875 4013 500 3803 
L 500 4441 
Q 881 4594 1212 4672 
Q 1544 4750 1819 4750 
Q 2544 4750 2975 4387 
Q 3406 4025 3406 3419 
Q 3406 3131 3298 2873 
Q 3191 2616 2906 2266 
Q 2828 2175 2409 1742 
Q 1991 1309 1228 531 
z
" transform="scale(0.015625)"/>
       </defs>
       <use xlink:href="#DejaVuSans-32"/>
       <use xlink:href="#DejaVuSans-30" x="63.623047"/>
       <use xlink:href="#DejaVuSans-30" x="127.246094"/>
      </g>
     </g>
    </g>
    <g id="xtick_3">
     <g id="line2d_3">
      <g>
       <use xlink:href="#mc595e09bdc" x="200.774876" y="307.584" style="stroke: #000000; stroke-width: 0.8"/>
      </g>
     </g>
     <g id="text_3">
      <!-- 400 -->
      <g transform="translate(191.231126 322.182437) scale(0.1 -0.1)">
       <defs>
        <path id="DejaVuSans-34" d="M 2419 4116 
L 825 1625 
L 2419 1625 
L 2419 4116 
z
M 2253 4666 
L 3047 4666 
L 3047 1625 
L 3713 1625 
L 3713 1100 
L 3047 1100 
L 3047 0 
L 2419 0 
L 2419 1100 
L 313 1100 
L 313 1709 
L 2253 4666 
z
" transform="scale(0.015625)"/>
       </defs>
       <use xlink:href="#DejaVuSans-34"/>
       <use xlink:href="#DejaVuSans-30" x="63.623047"/>
       <use xlink:href="#DejaVuSans-30" x="127.246094"/>
      </g>
     </g>
    </g>
    <g id="xtick_4">
     <g id="line2d_4">
      <g>
       <use xlink:href="#mc595e09bdc" x="264.24595" y="307.584" style="stroke: #000000; stroke-width: 0.8"/>
      </g>
     </g>
     <g id="text_4">
      <!-- 600 -->
      <g transform="translate(254.7022 322.182437) scale(0.1 -0.1)">
       <defs>
        <path id="DejaVuSans-36" d="M 2113 2584 
Q 1688 2584 1439 2293 
Q 1191 2003 1191 1497 
Q 1191 994 1439 701 
Q 1688 409 2113 409 
Q 2538 409 2786 701 
Q 3034 994 3034 1497 
Q 3034 2003 2786 2293 
Q 2538 2584 2113 2584 
z
M 3366 4563 
L 3366 3988 
Q 3128 4100 2886 4159 
Q 2644 4219 2406 4219 
Q 1781 4219 1451 3797 
Q 1122 3375 1075 2522 
Q 1259 2794 1537 2939 
Q 1816 3084 2150 3084 
Q 2853 3084 3261 2657 
Q 3669 2231 3669 1497 
Q 3669 778 3244 343 
Q 2819 -91 2113 -91 
Q 1303 -91 875 529 
Q 447 1150 447 2328 
Q 447 3434 972 4092 
Q 1497 4750 2381 4750 
Q 2619 4750 2861 4703 
Q 3103 4656 3366 4563 
z
" transform="scale(0.015625)"/>
       </defs>
       <use xlink:href="#DejaVuSans-36"/>
       <use xlink:href="#DejaVuSans-30" x="63.623047"/>
       <use xlink:href="#DejaVuSans-30" x="127.246094"/>
      </g>
     </g>
    </g>
    <g id="xtick_5">
     <g id="line2d_5">
      <g>
       <use xlink:href="#mc595e09bdc" x="327.717025" y="307.584" style="stroke: #000000; stroke-width: 0.8"/>
      </g>
     </g>
     <g id="text_5">
      <!-- 800 -->
      <g transform="translate(318.173275 322.182437) scale(0.1 -0.1)">
       <defs>
        <path id="DejaVuSans-38" d="M 2034 2216 
Q 1584 2216 1326 1975 
Q 1069 1734 1069 1313 
Q 1069 891 1326 650 
Q 1584 409 2034 409 
Q 2484 409 2743 651 
Q 3003 894 3003 1313 
Q 3003 1734 2745 1975 
Q 2488 2216 2034 2216 
z
M 1403 2484 
Q 997 2584 770 2862 
Q 544 3141 544 3541 
Q 544 4100 942 4425 
Q 1341 4750 2034 4750 
Q 2731 4750 3128 4425 
Q 3525 4100 3525 3541 
Q 3525 3141 3298 2862 
Q 3072 2584 2669 2484 
Q 3125 2378 3379 2068 
Q 3634 1759 3634 1313 
Q 3634 634 3220 271 
Q 2806 -91 2034 -91 
Q 1263 -91 848 271 
Q 434 634 434 1313 
Q 434 1759 690 2068 
Q 947 2378 1403 2484 
z
M 1172 3481 
Q 1172 3119 1398 2916 
Q 1625 2713 2034 2713 
Q 2441 2713 2670 2916 
Q 2900 3119 2900 3481 
Q 2900 3844 2670 4047 
Q 2441 4250 2034 4250 
Q 1625 4250 1398 4047 
Q 1172 3844 1172 3481 
z
" transform="scale(0.015625)"/>
       </defs>
       <use xlink:href="#DejaVuSans-38"/>
       <use xlink:href="#DejaVuSans-30" x="63.623047"/>
       <use xlink:href="#DejaVuSans-30" x="127.246094"/>
      </g>
     </g>
    </g>
    <g id="xtick_6">
     <g id="line2d_6">
      <g>
       <use xlink:href="#mc595e09bdc" x="391.188099" y="307.584" style="stroke: #000000; stroke-width: 0.8"/>
      </g>
     </g>
     <g id="text_6">
      <!-- 1000 -->
      <g transform="translate(378.463099 322.182437) scale(0.1 -0.1)">
       <defs>
        <path id="DejaVuSans-31" d="M 794 531 
L 1825 531 
L 1825 4091 
L 703 3866 
L 703 4441 
L 1819 4666 
L 2450 4666 
L 2450 531 
L 3481 531 
L 3481 0 
L 794 0 
L 794 531 
z
" transform="scale(0.015625)"/>
       </defs>
       <use xlink:href="#DejaVuSans-31"/>
       <use xlink:href="#DejaVuSans-30" x="63.623047"/>
       <use xlink:href="#DejaVuSans-30" x="127.246094"/>
       <use xlink:href="#DejaVuSans-30" x="190.869141"/>
      </g>
     </g>
    </g>
    <g id="text_7">
     <!-- n -->
     <g transform="translate(232.99125 335.860562) scale(0.1 -0.1)">
      <defs>
       <path id="DejaVuSans-6e" d="M 3513 2113 
L 3513 0 
L 2938 0 
L 2938 2094 
Q 2938 2591 2744 2837 
Q 2550 3084 2163 3084 
Q 1697 3084 1428 2787 
Q 1159 2491 1159 1978 
L 1159 0 
L 581 0 
L 581 3500 
L 1159 3500 
L 1159 2956 
Q 1366 3272 1645 3428 
Q 1925 3584 2291 3584 
Q 2894 3584 3203 3211 
Q 3513 2838 3513 2113 
z
" transform="scale(0.015625)"/>
      </defs>
      <use xlink:href="#DejaVuSans-6e"/>
     </g>
    </g>
   </g>
   <g id="matplotlib.axis_2">
    <g id="ytick_1">
     <g id="line2d_7">
      <defs>
       <path id="m2924647527" d="M 0 0 
L -3.5 0 
" style="stroke: #000000; stroke-width: 0.8"/>
      </defs>
      <g>
       <use xlink:href="#m2924647527" x="57.6" y="299.577424" style="stroke: #000000; stroke-width: 0.8"/>
      </g>
     </g>
     <g id="text_8">
      <!-- −6 -->
      <g transform="translate(35.857813 303.376643) scale(0.1 -0.1)">
       <defs>
        <path id="DejaVuSans-2212" d="M 678 2272 
L 4684 2272 
L 4684 1741 
L 678 1741 
L 678 2272 
z
" transform="scale(0.015625)"/>
       </defs>
       <use xlink:href="#DejaVuSans-2212"/>
       <use xlink:href="#DejaVuSans-36" x="83.789062"/>
      </g>
     </g>
    </g>
    <g id="ytick_2">
     <g id="line2d_8">
      <g>
       <use xlink:href="#m2924647527" x="57.6" y="257.880786" style="stroke: #000000; stroke-width: 0.8"/>
      </g>
     </g>
     <g id="text_9">
      <!-- −4 -->
      <g transform="translate(35.857813 261.680005) scale(0.1 -0.1)">
       <use xlink:href="#DejaVuSans-2212"/>
       <use xlink:href="#DejaVuSans-34" x="83.789062"/>
      </g>
     </g>
    </g>
    <g id="ytick_3">
     <g id="line2d_9">
      <g>
       <use xlink:href="#m2924647527" x="57.6" y="216.184148" style="stroke: #000000; stroke-width: 0.8"/>
      </g>
     </g>
     <g id="text_10">
      <!-- −2 -->
      <g transform="translate(35.857813 219.983366) scale(0.1 -0.1)">
       <use xlink:href="#DejaVuSans-2212"/>
       <use xlink:href="#DejaVuSans-32" x="83.789062"/>
      </g>
     </g>
    </g>
    <g id="ytick_4">
     <g id="line2d_10">
      <g>
       <use xlink:href="#m2924647527" x="57.6" y="174.487509" style="stroke: #000000; stroke-width: 0.8"/>
      </g>
     </g>
     <g id="text_11">
      <!-- 0 -->
      <g transform="translate(44.2375 178.286728) scale(0.1 -0.1)">
       <use xlink:href="#DejaVuSans-30"/>
      </g>
     </g>
    </g>
    <g id="ytick_5">
     <g id="line2d_11">
      <g>
       <use xlink:href="#m2924647527" x="57.6" y="132.790871" style="stroke: #000000; stroke-width: 0.8"/>
      </g>
     </g>
     <g id="text_12">
      <!-- 2 -->
      <g transform="translate(44.2375 136.59009) scale(0.1 -0.1)">
       <use xlink:href="#DejaVuSans-32"/>
      </g>
     </g>
    </g>
    <g id="ytick_6">
     <g id="line2d_12">
      <g>
       <use xlink:href="#m2924647527" x="57.6" y="91.094233" style="stroke: #000000; stroke-width: 0.8"/>
      </g>
     </g>
     <g id="text_13">
      <!-- 4 -->
      <g transform="translate(44.2375 94.893451) scale(0.1 -0.1)">
       <use xlink:href="#DejaVuSans-34"/>
      </g>
     </g>
    </g>
    <g id="ytick_7">
     <g id="line2d_13">
      <g>
       <use xlink:href="#m2924647527" x="57.6" y="49.397594" style="stroke: #000000; stroke-width: 0.8"/>
      </g>
     </g>
     <g id="text_14">
      <!-- 6 -->
      <g transform="translate(44.2375 53.196813) scale(0.1 -0.1)">
       <use xlink:href="#DejaVuSans-36"/>
      </g>
     </g>
    </g>
    <g id="text_15">
     <!-- E*t -->
     <g transform="translate(29.778125 182.147531) rotate(-90) scale(0.1 -0.1)">
      <defs>
       <path id="DejaVuSans-45" d="M 628 4666 
L 3578 4666 
L 3578 4134 
L 1259 4134 
L 1259 2753 
L 3481 2753 
L 3481 2222 
L 1259 2222 
L 1259 531 
L 3634 531 
L 3634 0 
L 628 0 
L 628 4666 
z
" transform="scale(0.015625)"/>
       <path id="DejaVuSans-2a" d="M 3009 3897 
L 1888 3291 
L 3009 2681 
L 2828 2375 
L 1778 3009 
L 1778 1831 
L 1422 1831 
L 1422 3009 
L 372 2375 
L 191 2681 
L 1313 3291 
L 191 3897 
L 372 4206 
L 1422 3572 
L 1422 4750 
L 1778 4750 
L 1778 3572 
L 2828 4206 
L 3009 3897 
z
" transform="scale(0.015625)"/>
       <path id="DejaVuSans-74" d="M 1172 4494 
L 1172 3500 
L 2356 3500 
L 2356 3053 
L 1172 3053 
L 1172 1153 
Q 1172 725 1289 603 
Q 1406 481 1766 481 
L 2356 481 
L 2356 0 
L 1766 0 
Q 1100 0 847 248 
Q 594 497 594 1153 
L 594 3053 
L 172 3053 
L 172 3500 
L 594 3500 
L 594 4494 
L 1172 4494 
z
" transform="scale(0.015625)"/>
      </defs>
      <use xlink:href="#DejaVuSans-45"/>
      <use xlink:href="#DejaVuSans-2a" x="63.183594"/>
      <use xlink:href="#DejaVuSans-74" x="113.183594"/>
     </g>
    </g>
   </g>
   <g id="line2d_14">
    <path d="M 73.832727 295.488 
L 74.150083 295.121521 
L 74.784793 293.629883 
L 75.419504 293.128537 
L 75.73686 293.070153 
L 76.37157 291.561176 
L 76.688926 291.294676 
L 77.006281 290.369573 
L 77.323636 290.321746 
L 77.640992 289.673074 
L 77.958347 289.602037 
L 78.275702 287.95321 
L 79.862479 286.563075 
L 80.179835 286.416086 
L 81.449256 284.798031 
L 81.766612 283.436863 
L 82.718678 282.491008 
L 83.036033 281.59833 
L 83.670744 280.993442 
L 84.305455 280.828561 
L 85.257521 279.012864 
L 85.574876 279.001241 
L 85.892231 278.189644 
L 86.209587 277.905086 
L 87.161653 276.48739 
L 87.479008 276.162786 
L 88.113719 274.568636 
L 88.431074 274.228338 
L 89.065785 272.024742 
L 89.38314 272.007105 
L 89.700496 271.080068 
L 90.017851 270.817479 
L 90.335207 270.16923 
L 90.652562 270.142321 
L 90.969917 269.079582 
L 91.921983 268.801875 
L 92.239339 267.828874 
L 92.556694 267.72134 
L 92.87405 267.025589 
L 93.191405 266.705517 
L 93.50876 266.544412 
L 93.826116 265.981298 
L 94.143471 265.942888 
L 94.778182 264.229179 
L 95.095537 264.097865 
L 95.412893 263.269029 
L 97.317025 262.871568 
L 97.951736 262.490375 
L 98.269091 261.417434 
L 98.586446 260.748069 
L 99.221157 260.264872 
L 99.538512 259.629191 
L 100.173223 259.463024 
L 100.490579 258.844763 
L 100.807934 258.832931 
L 101.442645 257.577261 
L 102.394711 256.942855 
L 103.029421 256.257281 
L 103.664132 256.135137 
L 103.981488 255.416105 
L 104.616198 255.377694 
L 104.933554 255.272501 
L 105.250909 254.558904 
L 105.568264 254.217543 
L 105.88562 253.274523 
L 106.202975 253.229337 
L 106.837686 252.405318 
L 107.789752 251.68023 
L 108.107107 251.196085 
L 108.741818 251.142934 
L 109.059174 250.020904 
L 109.376529 249.410492 
L 110.01124 249.209621 
L 110.328595 248.487461 
L 110.64595 248.433614 
L 111.280661 247.964174 
L 111.915372 246.518442 
L 112.232727 246.143196 
L 112.550083 246.08248 
L 112.867438 245.233404 
L 113.184793 245.207523 
L 113.502149 244.788694 
L 113.819504 244.066778 
L 114.77157 243.789005 
L 115.406281 243.69381 
L 115.723636 243.219655 
L 116.358347 242.691591 
L 116.993058 241.677363 
L 117.310413 241.438092 
L 117.945124 241.306603 
L 118.579835 240.651228 
L 118.89719 239.671537 
L 119.849256 239.335777 
L 120.801322 238.160107 
L 121.753388 238.028041 
L 122.070744 237.613262 
L 122.388099 237.432358 
L 123.02281 236.885362 
L 123.340165 236.875065 
L 123.974876 236.203651 
L 124.292231 235.862429 
L 124.926942 235.430712 
L 125.244298 235.07424 
L 125.561653 235.044997 
L 125.879008 233.731591 
L 126.831074 233.286673 
L 127.14843 233.194755 
L 127.465785 232.476208 
L 127.78314 232.412686 
L 128.100496 232.16397 
L 128.417851 231.721316 
L 128.735207 231.483125 
L 130.004628 231.218087 
L 130.321983 230.925676 
L 130.639339 230.255663 
L 133.178182 228.551252 
L 133.495537 228.110311 
L 133.812893 227.379989 
L 134.447603 227.097206 
L 135.082314 226.994347 
L 135.399669 226.330746 
L 136.03438 226.059046 
L 136.351736 225.51614 
L 137.303802 225.244282 
L 137.621157 224.678111 
L 138.255868 224.571224 
L 138.573223 224.361126 
L 139.525289 224.142621 
L 140.16 223.916369 
L 141.429421 222.776627 
L 141.746777 222.547742 
L 142.064132 222.523381 
L 142.698843 222.028193 
L 143.016198 221.988257 
L 143.333554 221.571393 
L 143.650909 221.471495 
L 145.237686 220.285839 
L 145.555041 220.283654 
L 146.507107 219.400746 
L 146.824463 219.372554 
L 147.776529 218.790034 
L 148.093884 218.768322 
L 148.41124 218.588746 
L 149.04595 217.920879 
L 149.680661 217.691117 
L 149.998017 217.449179 
L 150.315372 216.919207 
L 150.632727 216.726933 
L 150.950083 216.339979 
L 151.267438 216.309406 
L 151.584793 216.043335 
L 151.902149 216.033968 
L 152.53686 215.267897 
L 152.854215 215.002511 
L 153.488926 214.952837 
L 154.123636 214.84406 
L 154.440992 213.949251 
L 155.075702 213.693172 
L 155.393058 213.663625 
L 156.027769 213.329409 
L 156.345124 213.220733 
L 156.662479 212.643293 
L 157.614545 212.387024 
L 158.249256 212.188688 
L 158.566612 211.672546 
L 158.883967 211.584587 
L 159.201322 211.256686 
L 159.518678 211.097539 
L 159.836033 210.72226 
L 160.153388 210.670067 
L 161.105455 210.032066 
L 161.42281 210.015983 
L 161.740165 209.63185 
L 162.374876 209.352031 
L 163.326942 208.886287 
L 163.644298 208.561451 
L 163.961653 208.468398 
L 164.279008 208.225952 
L 164.596364 208.212388 
L 164.913719 207.713185 
L 166.500496 206.77744 
L 166.817851 206.348472 
L 167.769917 205.942628 
L 169.356694 205.006398 
L 169.67405 204.93841 
L 169.991405 204.584892 
L 170.30876 204.483547 
L 170.626116 203.976383 
L 171.578182 203.702281 
L 171.895537 203.645489 
L 173.164959 202.420575 
L 173.799669 202.191567 
L 174.117025 201.906895 
L 174.43438 201.871537 
L 176.973223 200.496287 
L 177.290579 200.19988 
L 179.194711 199.605738 
L 179.512066 198.911851 
L 180.781488 198.442607 
L 181.098843 198.14358 
L 181.416198 197.626476 
L 182.050909 197.541697 
L 182.368264 197.368225 
L 182.68562 197.346997 
L 184.589752 196.226791 
L 185.224463 195.932681 
L 185.541818 195.695574 
L 185.859174 195.61627 
L 186.176529 195.278862 
L 187.128595 194.983274 
L 187.44595 194.60974 
L 189.032727 193.720106 
L 189.667438 193.566756 
L 189.984793 193.406373 
L 190.302149 193.383705 
L 190.619504 192.785631 
L 192.523636 191.852593 
L 192.840992 191.377948 
L 193.475702 191.233586 
L 193.793058 191.217223 
L 194.110413 190.567368 
L 194.427769 190.471323 
L 194.745124 190.251913 
L 196.014545 190.029075 
L 196.331901 189.729143 
L 196.649256 188.982972 
L 196.966612 188.816938 
L 197.918678 188.678398 
L 198.553388 188.372135 
L 198.870744 188.068185 
L 199.82281 187.65655 
L 200.140165 187.295515 
L 200.457521 187.250623 
L 200.774876 187.018056 
L 201.092231 186.605577 
L 201.409587 186.543321 
L 202.044298 186.137128 
L 202.679008 185.937705 
L 203.313719 185.866349 
L 203.631074 185.722759 
L 203.94843 185.432799 
L 204.265785 185.355882 
L 204.900496 185.008545 
L 205.535207 184.902311 
L 205.852562 184.521832 
L 206.169917 184.490341 
L 206.487273 184.085782 
L 207.756694 183.627783 
L 208.07405 183.428544 
L 208.391405 182.893386 
L 209.026116 182.756417 
L 209.978182 182.36066 
L 210.612893 182.232177 
L 210.930248 181.892009 
L 211.882314 181.56463 
L 213.469091 180.776868 
L 214.103802 180.273179 
L 215.055868 179.976619 
L 215.690579 179.51989 
L 216.325289 179.305168 
L 216.642645 178.992968 
L 217.277355 178.738379 
L 218.546777 177.786882 
L 219.181488 177.615194 
L 219.498843 177.035418 
L 219.816198 177.011886 
L 220.768264 176.324411 
L 221.08562 175.945132 
L 221.402975 175.880918 
L 221.720331 175.671494 
L 222.355041 175.540371 
L 223.307107 174.97419 
L 224.259174 174.776821 
L 224.576529 174.6238 
L 225.528595 173.786308 
L 226.163306 173.754996 
L 227.432727 173.108422 
L 227.750083 172.706127 
L 228.067438 172.651151 
L 229.97157 171.268791 
L 232.510413 170.531784 
L 232.827769 170.393494 
L 233.462479 169.933355 
L 234.09719 169.730855 
L 234.731901 169.527078 
L 235.049256 169.291666 
L 236.001322 169.006259 
L 236.318678 168.781355 
L 236.953388 168.512713 
L 237.270744 168.335115 
L 237.588099 167.977644 
L 238.540165 167.678341 
L 240.444298 167.069193 
L 240.761653 166.489096 
L 241.079008 166.194393 
L 242.031074 165.965115 
L 242.665785 165.643071 
L 242.98314 165.478132 
L 243.300496 165.443051 
L 243.617851 165.195832 
L 244.252562 165.071892 
L 244.887273 164.638769 
L 245.839339 164.155206 
L 246.47405 163.287625 
L 247.743471 162.8037 
L 248.060826 162.523113 
L 249.330248 162.01755 
L 249.647603 161.48757 
L 251.869091 160.610893 
L 252.186446 160.189707 
L 252.503802 160.13875 
L 252.821157 159.885076 
L 253.773223 159.616244 
L 255.042645 158.898082 
L 255.994711 158.758339 
L 256.629421 157.879874 
L 256.946777 157.850563 
L 257.581488 157.449735 
L 258.216198 157.302542 
L 259.168264 156.445089 
L 259.48562 156.260897 
L 261.389752 155.931455 
L 262.024463 155.741489 
L 262.341818 155.373211 
L 263.293884 154.968864 
L 263.928595 154.641864 
L 264.563306 154.358377 
L 265.198017 154.097741 
L 265.515372 153.906967 
L 265.832727 153.566314 
L 266.150083 153.528185 
L 267.102149 152.727708 
L 269.006281 152.213862 
L 269.323636 152.012116 
L 269.640992 151.451543 
L 270.593058 151.149197 
L 270.910413 150.620393 
L 271.227769 150.36803 
L 271.545124 150.362623 
L 271.862479 150.020901 
L 272.179835 149.967014 
L 273.131901 149.419389 
L 273.449256 149.352273 
L 273.766612 149.102765 
L 274.401322 148.909206 
L 274.718678 148.461453 
L 275.036033 148.432068 
L 275.353388 148.060474 
L 275.988099 147.89168 
L 276.305455 147.605112 
L 277.257521 147.323524 
L 278.209587 146.395501 
L 279.796364 145.788046 
L 280.113719 145.346308 
L 280.431074 145.282547 
L 281.065785 144.857532 
L 282.969917 144.175394 
L 283.604628 143.801043 
L 283.921983 143.766821 
L 284.556694 143.173674 
L 284.87405 143.12945 
L 285.826116 142.651522 
L 286.460826 142.494405 
L 286.778182 142.195957 
L 287.412893 141.999065 
L 287.730248 141.930834 
L 288.047603 141.672313 
L 288.682314 141.579045 
L 288.999669 141.184576 
L 289.951736 141.131298 
L 290.269091 140.872788 
L 290.586446 140.86883 
L 290.903802 140.729681 
L 291.221157 140.016271 
L 291.538512 139.806657 
L 292.490579 139.512221 
L 293.125289 139.209806 
L 293.76 139.061271 
L 294.712066 138.541058 
L 295.029421 138.4969 
L 295.981488 137.892021 
L 297.250909 137.176336 
L 298.837686 135.941309 
L 299.472397 135.791098 
L 299.789752 135.658472 
L 300.107107 135.390468 
L 300.424463 135.359912 
L 301.059174 134.725356 
L 301.693884 134.613352 
L 302.328595 134.288013 
L 302.64595 133.839685 
L 304.550083 132.699872 
L 305.184793 132.471693 
L 305.819504 131.910074 
L 306.454215 131.784531 
L 307.088926 131.001883 
L 307.723636 130.588896 
L 308.040992 130.422381 
L 308.358347 129.928946 
L 308.675702 129.686336 
L 310.579835 129.316312 
L 310.89719 128.94529 
L 311.531901 128.555039 
L 311.849256 128.274513 
L 314.070744 127.331195 
L 314.388099 127.008774 
L 315.02281 126.809003 
L 315.340165 126.515888 
L 315.974876 126.298369 
L 316.292231 125.954376 
L 316.926942 125.901717 
L 317.561653 125.297911 
L 317.879008 125.220067 
L 319.14843 124.34227 
L 319.465785 124.301894 
L 319.78314 123.803186 
L 320.100496 123.687174 
L 320.417851 123.442767 
L 321.369917 123.267245 
L 321.687273 123.053586 
L 322.639339 122.040647 
L 323.90876 121.212717 
L 324.226116 120.624902 
L 324.543471 120.271308 
L 324.860826 120.130014 
L 326.130248 119.186699 
L 326.764959 118.977515 
L 327.717025 118.470461 
L 328.03438 118.10321 
L 328.351736 118.061686 
L 329.621157 116.892243 
L 329.938512 116.715608 
L 330.573223 116.632551 
L 331.207934 116.024964 
L 331.842645 115.923643 
L 332.16 115.806215 
L 332.477355 115.493883 
L 332.794711 114.960189 
L 333.112066 114.930138 
L 333.429421 114.457658 
L 333.746777 114.451298 
L 334.381488 113.51381 
L 335.650909 112.923888 
L 335.968264 112.687339 
L 336.28562 112.599126 
L 336.602975 112.237645 
L 337.237686 112.126062 
L 337.555041 111.851584 
L 338.189752 111.751071 
L 338.507107 111.615107 
L 339.141818 111.538518 
L 339.459174 111.129761 
L 339.776529 110.509642 
L 341.363306 109.994585 
L 342.315372 109.433558 
L 342.632727 109.404688 
L 342.950083 108.894188 
L 343.902149 108.574006 
L 344.219504 108.228736 
L 344.53686 107.450221 
L 345.17157 107.003251 
L 345.488926 106.458667 
L 345.806281 106.401059 
L 346.123636 105.996253 
L 347.075702 105.504219 
L 347.710413 105.247942 
L 348.662479 104.174068 
L 349.29719 104.102754 
L 349.614545 103.529222 
L 350.883967 103.081616 
L 351.518678 102.410058 
L 351.836033 101.880933 
L 352.470744 101.730154 
L 352.788099 101.709255 
L 353.105455 101.109419 
L 353.42281 101.061483 
L 353.740165 100.118266 
L 354.057521 99.662705 
L 354.692231 99.449216 
L 355.326942 98.648207 
L 357.231074 97.893604 
L 357.865785 97.246784 
L 358.18314 96.960156 
L 358.817851 96.715633 
L 359.452562 96.194074 
L 360.087273 95.521364 
L 360.404628 95.497219 
L 361.039339 95.11656 
L 361.67405 94.019168 
L 362.30876 93.753 
L 362.943471 92.897882 
L 363.260826 92.840514 
L 363.578182 92.322304 
L 363.895537 92.309437 
L 364.212893 92.125415 
L 364.847603 91.51472 
L 365.164959 91.304666 
L 365.482314 90.931694 
L 365.799669 90.892858 
L 366.751736 90.232427 
L 367.069091 90.099694 
L 367.386446 89.541619 
L 368.338512 89.236933 
L 368.973223 87.902891 
L 369.290579 87.839547 
L 369.607934 86.813331 
L 370.242645 86.39792 
L 372.781488 83.874167 
L 373.733554 83.391968 
L 374.368264 83.251928 
L 374.68562 83.231438 
L 375.002975 82.996361 
L 375.320331 81.854778 
L 375.637686 81.66382 
L 375.955041 80.426855 
L 376.272397 79.886406 
L 377.224463 79.674233 
L 377.541818 79.081764 
L 377.859174 78.974162 
L 378.493884 77.437224 
L 379.128595 76.878715 
L 379.44595 76.857351 
L 381.350083 75.636871 
L 381.984793 73.697887 
L 382.619504 73.479179 
L 382.93686 73.323005 
L 383.254215 72.835112 
L 383.57157 72.691942 
L 383.888926 70.679363 
L 384.206281 70.281319 
L 384.523636 70.248274 
L 385.158347 69.475841 
L 385.475702 69.201818 
L 385.793058 68.735139 
L 386.427769 68.36059 
L 387.062479 67.42758 
L 388.014545 67.0875 
L 388.331901 66.949484 
L 388.649256 65.645541 
L 389.283967 65.434366 
L 389.918678 64.307587 
L 390.236033 64.148462 
L 390.553388 63.678083 
L 390.870744 63.513468 
L 391.188099 62.514316 
L 391.505455 61.977625 
L 391.82281 61.92217 
L 394.361653 60.263867 
L 394.679008 58.809583 
L 395.313719 58.035072 
L 395.94843 57.919385 
L 396.265785 57.316854 
L 396.58314 55.214206 
L 396.900496 54.685178 
L 397.852562 53.968287 
L 398.169917 53.959083 
L 398.487273 53.568 
L 398.487273 53.568 
" clip-path="url(#paf528bc126)" style="fill: none; stroke: #1f77b4; stroke-width: 1.5; stroke-linecap: square"/>
   </g>
   <g id="line2d_15">
    <path d="M 73.832727 281.072564 
L 74.150083 268.635235 
L 74.467438 268.635235 
L 74.784793 258.003852 
L 75.102149 255.795564 
L 75.73686 255.795564 
L 76.054215 251.817729 
L 76.37157 245.102592 
L 76.688926 244.690599 
L 77.006281 244.690599 
L 77.323636 243.651548 
L 78.910413 243.651548 
L 79.227769 239.863145 
L 79.545124 239.863145 
L 79.862479 238.491756 
L 80.179835 237.644491 
L 80.49719 237.644491 
L 80.814545 233.455338 
L 81.131901 231.48347 
L 82.083967 231.449565 
L 82.401322 230.282526 
L 86.844298 230.216265 
L 87.161653 229.577255 
L 87.479008 226.54168 
L 87.796364 225.870626 
L 88.113719 224.819743 
L 89.700496 224.819743 
L 90.017851 223.477025 
L 90.652562 223.477025 
L 90.969917 221.917259 
L 91.287273 221.917259 
L 91.604628 221.104743 
L 91.921983 219.014826 
L 99.221157 219.014826 
L 99.538512 217.769516 
L 99.855868 217.769516 
L 100.173223 217.474946 
L 101.76 217.474946 
L 102.077355 216.184148 
L 103.664132 216.184148 
L 103.981488 215.892991 
L 104.298843 215.389691 
L 104.933554 215.389691 
L 105.250909 213.619535 
L 106.202975 213.530323 
L 106.520331 209.535372 
L 107.155041 209.140643 
L 107.472397 209.140643 
L 107.789752 208.220721 
L 109.376529 208.220721 
L 109.693884 206.201795 
L 110.01124 206.201795 
L 110.328595 203.971516 
L 129.369917 203.971424 
L 129.687273 202.704032 
L 130.321983 201.512039 
L 131.27405 201.436042 
L 131.591405 200.399257 
L 131.90876 200.399257 
L 132.226116 200.162387 
L 132.860826 200.162387 
L 133.178182 198.166507 
L 133.495537 198.166507 
L 133.812893 197.748571 
L 135.399669 197.748571 
L 135.717025 196.046523 
L 136.03438 195.817011 
L 136.351736 195.43272 
L 136.986446 195.335828 
L 163.009587 195.335828 
L 163.326942 193.569321 
L 167.135207 193.569321 
L 167.452562 193.246483 
L 167.769917 193.246483 
L 168.087273 191.0602 
L 168.404628 191.0602 
L 168.721983 190.476641 
L 169.356694 190.476641 
L 169.67405 190.10006 
L 169.991405 189.198084 
L 171.578182 189.198084 
L 172.212893 188.562126 
L 172.530248 188.562126 
L 172.847603 188.292324 
L 180.146777 188.292324 
L 180.464132 187.827924 
L 180.781488 187.827924 
L 181.098843 187.372401 
L 182.68562 187.372401 
L 183.320331 183.123104 
L 185.541818 183.085305 
L 185.859174 182.838421 
L 186.493884 182.838421 
L 186.81124 182.465508 
L 187.128595 181.531014 
L 187.44595 181.531014 
L 187.763306 180.898091 
L 188.080661 180.898091 
L 188.398017 178.255805 
L 188.715372 174.487509 
L 283.604628 174.487509 
L 284.239339 168.076927 
L 284.556694 168.076927 
L 284.87405 167.444004 
L 285.191405 167.444004 
L 285.50876 166.50951 
L 285.826116 166.136598 
L 286.460826 166.136598 
L 286.778182 165.889713 
L 288.999669 165.851914 
L 289.63438 161.602617 
L 291.221157 161.602617 
L 291.538512 161.147094 
L 291.855868 161.147094 
L 292.173223 160.682695 
L 299.472397 160.682695 
L 299.789752 160.412892 
L 300.107107 160.412892 
L 300.741818 159.776935 
L 302.328595 159.776935 
L 302.64595 158.874959 
L 302.963306 158.498378 
L 303.598017 158.498378 
L 303.915372 157.914819 
L 304.232727 157.914819 
L 304.550083 155.728536 
L 304.867438 155.728536 
L 305.184793 155.405698 
L 308.993058 155.405698 
L 309.310413 153.63919 
L 335.968264 153.542299 
L 336.602975 152.928496 
L 336.920331 151.226448 
L 338.507107 151.226448 
L 338.824463 150.808512 
L 339.141818 150.808512 
L 339.459174 148.812632 
L 340.093884 148.812632 
L 340.41124 148.575761 
L 340.728595 148.575761 
L 341.04595 147.538977 
L 341.680661 147.46298 
L 341.998017 147.46298 
L 342.315372 147.001622 
L 342.632727 146.270986 
L 342.950083 145.003595 
L 361.991405 145.003503 
L 362.30876 142.773224 
L 362.626116 142.773224 
L 362.943471 140.754298 
L 364.530248 140.754298 
L 364.847603 139.834376 
L 365.164959 139.834376 
L 365.799669 139.439647 
L 366.117025 135.444695 
L 367.069091 135.355483 
L 367.386446 133.585328 
L 368.021157 133.585328 
L 368.338512 133.082027 
L 368.655868 132.790871 
L 370.242645 132.790871 
L 370.56 131.500072 
L 372.146777 131.500072 
L 372.464132 131.205503 
L 372.781488 131.205503 
L 373.098843 129.960193 
L 380.398017 129.960193 
L 380.715372 127.870276 
L 381.032727 127.05776 
L 381.350083 127.05776 
L 381.667438 125.497993 
L 382.302149 125.497993 
L 382.619504 124.155276 
L 384.206281 124.155276 
L 384.840992 122.433338 
L 385.158347 119.397763 
L 385.475702 118.758753 
L 389.918678 118.692493 
L 390.236033 117.525454 
L 391.188099 117.491549 
L 391.505455 115.519681 
L 391.82281 111.330527 
L 392.140165 111.330527 
L 392.457521 110.483263 
L 392.774876 109.111874 
L 393.092231 109.111874 
L 393.409587 105.32347 
L 394.996364 105.32347 
L 395.313719 104.28442 
L 395.631074 104.28442 
L 395.94843 103.872426 
L 396.265785 97.15729 
L 396.58314 93.179455 
L 397.217851 93.179455 
L 397.535207 90.971166 
L 397.852562 80.339783 
L 398.169917 80.339783 
L 398.487273 67.902454 
L 398.487273 67.902454 
" clip-path="url(#paf528bc126)" style="fill: none; stroke: #ff7f0e; stroke-width: 1.5; stroke-linecap: square"/>
   </g>
   <g id="patch_3">
    <path d="M 57.6 307.584 
L 57.6 41.472 
" style="fill: none; stroke: #000000; stroke-width: 0.8; stroke-linejoin: miter; stroke-linecap: square"/>
   </g>
   <g id="patch_4">
    <path d="M 414.72 307.584 
L 414.72 41.472 
" style="fill: none; stroke: #000000; stroke-width: 0.8; stroke-linejoin: miter; stroke-linecap: square"/>
   </g>
   <g id="patch_5">
    <path d="M 57.6 307.584 
L 414.72 307.584 
" style="fill: none; stroke: #000000; stroke-width: 0.8; stroke-linejoin: miter; stroke-linecap: square"/>
   </g>
   <g id="patch_6">
    <path d="M 57.6 41.472 
L 414.72 41.472 
" style="fill: none; stroke: #000000; stroke-width: 0.8; stroke-linejoin: miter; stroke-linecap: square"/>
   </g>
   <g id="legend_1">
    <g id="patch_7">
     <path d="M 64.6 78.82825 
L 129.342187 78.82825 
Q 131.342187 78.82825 131.342187 76.82825 
L 131.342187 48.472 
Q 131.342187 46.472 129.342187 46.472 
L 64.6 46.472 
Q 62.6 46.472 62.6 48.472 
L 62.6 76.82825 
Q 62.6 78.82825 64.6 78.82825 
z
" style="fill: #ffffff; opacity: 0.8; stroke: #cccccc; stroke-linejoin: miter"/>
    </g>
    <g id="line2d_16">
     <path d="M 66.6 54.570437 
L 76.6 54.570437 
L 86.6 54.570437 
" style="fill: none; stroke: #1f77b4; stroke-width: 1.5; stroke-linecap: square"/>
    </g>
    <g id="text_16">
     <!-- qc -->
     <g transform="translate(94.6 58.070437) scale(0.1 -0.1)">
      <defs>
       <path id="DejaVuSans-71" d="M 947 1747 
Q 947 1113 1208 752 
Q 1469 391 1925 391 
Q 2381 391 2643 752 
Q 2906 1113 2906 1747 
Q 2906 2381 2643 2742 
Q 2381 3103 1925 3103 
Q 1469 3103 1208 2742 
Q 947 2381 947 1747 
z
M 2906 525 
Q 2725 213 2448 61 
Q 2172 -91 1784 -91 
Q 1150 -91 751 415 
Q 353 922 353 1747 
Q 353 2572 751 3078 
Q 1150 3584 1784 3584 
Q 2172 3584 2448 3432 
Q 2725 3281 2906 2969 
L 2906 3500 
L 3481 3500 
L 3481 -1331 
L 2906 -1331 
L 2906 525 
z
" transform="scale(0.015625)"/>
       <path id="DejaVuSans-63" d="M 3122 3366 
L 3122 2828 
Q 2878 2963 2633 3030 
Q 2388 3097 2138 3097 
Q 1578 3097 1268 2742 
Q 959 2388 959 1747 
Q 959 1106 1268 751 
Q 1578 397 2138 397 
Q 2388 397 2633 464 
Q 2878 531 3122 666 
L 3122 134 
Q 2881 22 2623 -34 
Q 2366 -91 2075 -91 
Q 1284 -91 818 406 
Q 353 903 353 1747 
Q 353 2603 823 3093 
Q 1294 3584 2113 3584 
Q 2378 3584 2631 3529 
Q 2884 3475 3122 3366 
z
" transform="scale(0.015625)"/>
      </defs>
      <use xlink:href="#DejaVuSans-71"/>
      <use xlink:href="#DejaVuSans-63" x="63.476562"/>
     </g>
    </g>
    <g id="line2d_17">
     <path d="M 66.6 69.248562 
L 76.6 69.248562 
L 86.6 69.248562 
" style="fill: none; stroke: #ff7f0e; stroke-width: 1.5; stroke-linecap: square"/>
    </g>
    <g id="text_17">
     <!-- Trotter -->
     <g transform="translate(94.6 72.748562) scale(0.1 -0.1)">
      <defs>
       <path id="DejaVuSans-54" d="M -19 4666 
L 3928 4666 
L 3928 4134 
L 2272 4134 
L 2272 0 
L 1638 0 
L 1638 4134 
L -19 4134 
L -19 4666 
z
" transform="scale(0.015625)"/>
       <path id="DejaVuSans-72" d="M 2631 2963 
Q 2534 3019 2420 3045 
Q 2306 3072 2169 3072 
Q 1681 3072 1420 2755 
Q 1159 2438 1159 1844 
L 1159 0 
L 581 0 
L 581 3500 
L 1159 3500 
L 1159 2956 
Q 1341 3275 1631 3429 
Q 1922 3584 2338 3584 
Q 2397 3584 2469 3576 
Q 2541 3569 2628 3553 
L 2631 2963 
z
" transform="scale(0.015625)"/>
       <path id="DejaVuSans-6f" d="M 1959 3097 
Q 1497 3097 1228 2736 
Q 959 2375 959 1747 
Q 959 1119 1226 758 
Q 1494 397 1959 397 
Q 2419 397 2687 759 
Q 2956 1122 2956 1747 
Q 2956 2369 2687 2733 
Q 2419 3097 1959 3097 
z
M 1959 3584 
Q 2709 3584 3137 3096 
Q 3566 2609 3566 1747 
Q 3566 888 3137 398 
Q 2709 -91 1959 -91 
Q 1206 -91 779 398 
Q 353 888 353 1747 
Q 353 2609 779 3096 
Q 1206 3584 1959 3584 
z
" transform="scale(0.015625)"/>
       <path id="DejaVuSans-65" d="M 3597 1894 
L 3597 1613 
L 953 1613 
Q 991 1019 1311 708 
Q 1631 397 2203 397 
Q 2534 397 2845 478 
Q 3156 559 3463 722 
L 3463 178 
Q 3153 47 2828 -22 
Q 2503 -91 2169 -91 
Q 1331 -91 842 396 
Q 353 884 353 1716 
Q 353 2575 817 3079 
Q 1281 3584 2069 3584 
Q 2775 3584 3186 3129 
Q 3597 2675 3597 1894 
z
M 3022 2063 
Q 3016 2534 2758 2815 
Q 2500 3097 2075 3097 
Q 1594 3097 1305 2825 
Q 1016 2553 972 2059 
L 3022 2063 
z
" transform="scale(0.015625)"/>
      </defs>
      <use xlink:href="#DejaVuSans-54"/>
      <use xlink:href="#DejaVuSans-72" x="46.333984"/>
      <use xlink:href="#DejaVuSans-6f" x="85.197266"/>
      <use xlink:href="#DejaVuSans-74" x="146.378906"/>
      <use xlink:href="#DejaVuSans-74" x="185.587891"/>
      <use xlink:href="#DejaVuSans-65" x="224.796875"/>
      <use xlink:href="#DejaVuSans-72" x="286.320312"/>
     </g>
    </g>
   </g>
  </g>
 </g>
 <defs>
  <clipPath id="paf528bc126">
   <rect x="57.6" y="41.472" width="357.12" height="266.112"/>
  </clipPath>
 </defs>
</svg>
