<?xml version="1.0" encoding="utf-8" standalone="no"?>
<!DOCTYPE svg PUBLIC "-//W3C//DTD SVG 1.1//EN"
  "http://www.w3.org/Graphics/SVG/1.1/DTD/svg11.dtd">
<svg xmlns:xlink="http://www.w3.org/1999/xlink" width="460.8pt" height="345.6pt" viewBox="0 0 460.8 345.6" xmlns="http://www.w3.org/2000/svg" version="1.1">
 <metadata>
  <rdf:RDF xmlns:dc="http://purl.org/dc/elements/1.1/" xmlns:cc="http://creativecommons.org/ns#" xmlns:rdf="http://www.w3.org/1999/02/22-rdf-syntax-ns#">
   <cc:Work>
    <dc:type rdf:resource="http://purl.org/dc/dcmitype/StillImage"/>
    <dc:date>2024-06-07T01:49:08.570156</dc:date>
    <dc:format>image/svg+xml</dc:format>
    <dc:creator>
     <cc:Agent>
      <dc:title>Matplotlib v3.7.1, https://matplotlib.org/</dc:title>
     </cc:Agent>
    </dc:creator>
   </cc:Work>
  </rdf:RDF>
 </metadata>
 <defs>
  <style type="text/css">*{stroke-linejoin: round; stroke-linecap: butt}</style>
 </defs>
 <g id="figure_1">
  <g id="patch_1">
   <path d="M 0 345.6 
L 460.8 345.6 
L 460.8 0 
L 0 0 
z
" style="fill: #ffffff"/>
  </g>
  <g id="axes_1">
   <g id="patch_2">
    <path d="M 57.6 307.584 
L 414.72 307.584 
L 414.72 41.472 
L 57.6 41.472 
z
" style="fill: #ffffff"/>
   </g>
   <g id="matplotlib.axis_1">
    <g id="xtick_1">
     <g id="line2d_1">
      <defs>
       <path id="m7ad38cc1c5" d="M 0 0 
L 0 3.5 
" style="stroke: #000000; stroke-width: 0.8"/>
      </defs>
      <g>
       <use xlink:href="#m7ad38cc1c5" x="73.832727" y="307.584" style="stroke: #000000; stroke-width: 0.8"/>
      </g>
     </g>
     <g id="text_1">
      <!-- 0 -->
      <g transform="translate(70.651477 322.182437) scale(0.1 -0.1)">
       <defs>
        <path id="DejaVuSans-30" d="M 2034 4250 
Q 1547 4250 1301 3770 
Q 1056 3291 1056 2328 
Q 1056 1369 1301 889 
Q 1547 409 2034 409 
Q 2525 409 2770 889 
Q 3016 1369 3016 2328 
Q 3016 3291 2770 3770 
Q 2525 4250 2034 4250 
z
M 2034 4750 
Q 2819 4750 3233 4129 
Q 3647 3509 3647 2328 
Q 3647 1150 3233 529 
Q 2819 -91 2034 -91 
Q 1250 -91 836 529 
Q 422 1150 422 2328 
Q 422 3509 836 4129 
Q 1250 4750 2034 4750 
z
" transform="scale(0.015625)"/>
       </defs>
       <use xlink:href="#DejaVuSans-30"/>
      </g>
     </g>
    </g>
    <g id="xtick_2">
     <g id="line2d_2">
      <g>
       <use xlink:href="#m7ad38cc1c5" x="137.303802" y="307.584" style="stroke: #000000; stroke-width: 0.8"/>
      </g>
     </g>
     <g id="text_2">
      <!-- 200 -->
      <g transform="translate(127.760052 322.182437) scale(0.1 -0.1)">
       <defs>
        <path id="DejaVuSans-32" d="M 1228 531 
L 3431 531 
L 3431 0 
L 469 0 
L 469 531 
Q 828 903 1448 1529 
Q 2069 2156 2228 2338 
Q 2531 2678 2651 2914 
Q 2772 3150 2772 3378 
Q 2772 3750 2511 3984 
Q 2250 4219 1831 4219 
Q 1534 4219 1204 4116 
Q 875 4013 500 3803 
L 500 4441 
Q 881 4594 1212 4672 
Q 1544 4750 1819 4750 
Q 2544 4750 2975 4387 
Q 3406 4025 3406 3419 
Q 3406 3131 3298 2873 
Q 3191 2616 2906 2266 
Q 2828 2175 2409 1742 
Q 1991 1309 1228 531 
z
" transform="scale(0.015625)"/>
       </defs>
       <use xlink:href="#DejaVuSans-32"/>
       <use xlink:href="#DejaVuSans-30" x="63.623047"/>
       <use xlink:href="#DejaVuSans-30" x="127.246094"/>
      </g>
     </g>
    </g>
    <g id="xtick_3">
     <g id="line2d_3">
      <g>
       <use xlink:href="#m7ad38cc1c5" x="200.774876" y="307.584" style="stroke: #000000; stroke-width: 0.8"/>
      </g>
     </g>
     <g id="text_3">
      <!-- 400 -->
      <g transform="translate(191.231126 322.182437) scale(0.1 -0.1)">
       <defs>
        <path id="DejaVuSans-34" d="M 2419 4116 
L 825 1625 
L 2419 1625 
L 2419 4116 
z
M 2253 4666 
L 3047 4666 
L 3047 1625 
L 3713 1625 
L 3713 1100 
L 3047 1100 
L 3047 0 
L 2419 0 
L 2419 1100 
L 313 1100 
L 313 1709 
L 2253 4666 
z
" transform="scale(0.015625)"/>
       </defs>
       <use xlink:href="#DejaVuSans-34"/>
       <use xlink:href="#DejaVuSans-30" x="63.623047"/>
       <use xlink:href="#DejaVuSans-30" x="127.246094"/>
      </g>
     </g>
    </g>
    <g id="xtick_4">
     <g id="line2d_4">
      <g>
       <use xlink:href="#m7ad38cc1c5" x="264.24595" y="307.584" style="stroke: #000000; stroke-width: 0.8"/>
      </g>
     </g>
     <g id="text_4">
      <!-- 600 -->
      <g transform="translate(254.7022 322.182437) scale(0.1 -0.1)">
       <defs>
        <path id="DejaVuSans-36" d="M 2113 2584 
Q 1688 2584 1439 2293 
Q 1191 2003 1191 1497 
Q 1191 994 1439 701 
Q 1688 409 2113 409 
Q 2538 409 2786 701 
Q 3034 994 3034 1497 
Q 3034 2003 2786 2293 
Q 2538 2584 2113 2584 
z
M 3366 4563 
L 3366 3988 
Q 3128 4100 2886 4159 
Q 2644 4219 2406 4219 
Q 1781 4219 1451 3797 
Q 1122 3375 1075 2522 
Q 1259 2794 1537 2939 
Q 1816 3084 2150 3084 
Q 2853 3084 3261 2657 
Q 3669 2231 3669 1497 
Q 3669 778 3244 343 
Q 2819 -91 2113 -91 
Q 1303 -91 875 529 
Q 447 1150 447 2328 
Q 447 3434 972 4092 
Q 1497 4750 2381 4750 
Q 2619 4750 2861 4703 
Q 3103 4656 3366 4563 
z
" transform="scale(0.015625)"/>
       </defs>
       <use xlink:href="#DejaVuSans-36"/>
       <use xlink:href="#DejaVuSans-30" x="63.623047"/>
       <use xlink:href="#DejaVuSans-30" x="127.246094"/>
      </g>
     </g>
    </g>
    <g id="xtick_5">
     <g id="line2d_5">
      <g>
       <use xlink:href="#m7ad38cc1c5" x="327.717025" y="307.584" style="stroke: #000000; stroke-width: 0.8"/>
      </g>
     </g>
     <g id="text_5">
      <!-- 800 -->
      <g transform="translate(318.173275 322.182437) scale(0.1 -0.1)">
       <defs>
        <path id="DejaVuSans-38" d="M 2034 2216 
Q 1584 2216 1326 1975 
Q 1069 1734 1069 1313 
Q 1069 891 1326 650 
Q 1584 409 2034 409 
Q 2484 409 2743 651 
Q 3003 894 3003 1313 
Q 3003 1734 2745 1975 
Q 2488 2216 2034 2216 
z
M 1403 2484 
Q 997 2584 770 2862 
Q 544 3141 544 3541 
Q 544 4100 942 4425 
Q 1341 4750 2034 4750 
Q 2731 4750 3128 4425 
Q 3525 4100 3525 3541 
Q 3525 3141 3298 2862 
Q 3072 2584 2669 2484 
Q 3125 2378 3379 2068 
Q 3634 1759 3634 1313 
Q 3634 634 3220 271 
Q 2806 -91 2034 -91 
Q 1263 -91 848 271 
Q 434 634 434 1313 
Q 434 1759 690 2068 
Q 947 2378 1403 2484 
z
M 1172 3481 
Q 1172 3119 1398 2916 
Q 1625 2713 2034 2713 
Q 2441 2713 2670 2916 
Q 2900 3119 2900 3481 
Q 2900 3844 2670 4047 
Q 2441 4250 2034 4250 
Q 1625 4250 1398 4047 
Q 1172 3844 1172 3481 
z
" transform="scale(0.015625)"/>
       </defs>
       <use xlink:href="#DejaVuSans-38"/>
       <use xlink:href="#DejaVuSans-30" x="63.623047"/>
       <use xlink:href="#DejaVuSans-30" x="127.246094"/>
      </g>
     </g>
    </g>
    <g id="xtick_6">
     <g id="line2d_6">
      <g>
       <use xlink:href="#m7ad38cc1c5" x="391.188099" y="307.584" style="stroke: #000000; stroke-width: 0.8"/>
      </g>
     </g>
     <g id="text_6">
      <!-- 1000 -->
      <g transform="translate(378.463099 322.182437) scale(0.1 -0.1)">
       <defs>
        <path id="DejaVuSans-31" d="M 794 531 
L 1825 531 
L 1825 4091 
L 703 3866 
L 703 4441 
L 1819 4666 
L 2450 4666 
L 2450 531 
L 3481 531 
L 3481 0 
L 794 0 
L 794 531 
z
" transform="scale(0.015625)"/>
       </defs>
       <use xlink:href="#DejaVuSans-31"/>
       <use xlink:href="#DejaVuSans-30" x="63.623047"/>
       <use xlink:href="#DejaVuSans-30" x="127.246094"/>
       <use xlink:href="#DejaVuSans-30" x="190.869141"/>
      </g>
     </g>
    </g>
    <g id="text_7">
     <!-- n -->
     <g transform="translate(232.99125 335.860562) scale(0.1 -0.1)">
      <defs>
       <path id="DejaVuSans-6e" d="M 3513 2113 
L 3513 0 
L 2938 0 
L 2938 2094 
Q 2938 2591 2744 2837 
Q 2550 3084 2163 3084 
Q 1697 3084 1428 2787 
Q 1159 2491 1159 1978 
L 1159 0 
L 581 0 
L 581 3500 
L 1159 3500 
L 1159 2956 
Q 1366 3272 1645 3428 
Q 1925 3584 2291 3584 
Q 2894 3584 3203 3211 
Q 3513 2838 3513 2113 
z
" transform="scale(0.015625)"/>
      </defs>
      <use xlink:href="#DejaVuSans-6e"/>
     </g>
    </g>
   </g>
   <g id="matplotlib.axis_2">
    <g id="ytick_1">
     <g id="line2d_7">
      <defs>
       <path id="m3c17abd49c" d="M 0 0 
L -3.5 0 
" style="stroke: #000000; stroke-width: 0.8"/>
      </defs>
      <g>
       <use xlink:href="#m3c17abd49c" x="57.6" y="284.324614" style="stroke: #000000; stroke-width: 0.8"/>
      </g>
     </g>
     <g id="text_8">
      <!-- −0.3 -->
      <g transform="translate(26.317187 288.123832) scale(0.1 -0.1)">
       <defs>
        <path id="DejaVuSans-2212" d="M 678 2272 
L 4684 2272 
L 4684 1741 
L 678 1741 
L 678 2272 
z
" transform="scale(0.015625)"/>
        <path id="DejaVuSans-2e" d="M 684 794 
L 1344 794 
L 1344 0 
L 684 0 
L 684 794 
z
" transform="scale(0.015625)"/>
        <path id="DejaVuSans-33" d="M 2597 2516 
Q 3050 2419 3304 2112 
Q 3559 1806 3559 1356 
Q 3559 666 3084 287 
Q 2609 -91 1734 -91 
Q 1441 -91 1130 -33 
Q 819 25 488 141 
L 488 750 
Q 750 597 1062 519 
Q 1375 441 1716 441 
Q 2309 441 2620 675 
Q 2931 909 2931 1356 
Q 2931 1769 2642 2001 
Q 2353 2234 1838 2234 
L 1294 2234 
L 1294 2753 
L 1863 2753 
Q 2328 2753 2575 2939 
Q 2822 3125 2822 3475 
Q 2822 3834 2567 4026 
Q 2313 4219 1838 4219 
Q 1578 4219 1281 4162 
Q 984 4106 628 3988 
L 628 4550 
Q 988 4650 1302 4700 
Q 1616 4750 1894 4750 
Q 2613 4750 3031 4423 
Q 3450 4097 3450 3541 
Q 3450 3153 3228 2886 
Q 3006 2619 2597 2516 
z
" transform="scale(0.015625)"/>
       </defs>
       <use xlink:href="#DejaVuSans-2212"/>
       <use xlink:href="#DejaVuSans-30" x="83.789062"/>
       <use xlink:href="#DejaVuSans-2e" x="147.412109"/>
       <use xlink:href="#DejaVuSans-33" x="179.199219"/>
      </g>
     </g>
    </g>
    <g id="ytick_2">
     <g id="line2d_8">
      <g>
       <use xlink:href="#m3c17abd49c" x="57.6" y="246.56284" style="stroke: #000000; stroke-width: 0.8"/>
      </g>
     </g>
     <g id="text_9">
      <!-- −0.2 -->
      <g transform="translate(26.317187 250.362058) scale(0.1 -0.1)">
       <use xlink:href="#DejaVuSans-2212"/>
       <use xlink:href="#DejaVuSans-30" x="83.789062"/>
       <use xlink:href="#DejaVuSans-2e" x="147.412109"/>
       <use xlink:href="#DejaVuSans-32" x="179.199219"/>
      </g>
     </g>
    </g>
    <g id="ytick_3">
     <g id="line2d_9">
      <g>
       <use xlink:href="#m3c17abd49c" x="57.6" y="208.801066" style="stroke: #000000; stroke-width: 0.8"/>
      </g>
     </g>
     <g id="text_10">
      <!-- −0.1 -->
      <g transform="translate(26.317187 212.600284) scale(0.1 -0.1)">
       <use xlink:href="#DejaVuSans-2212"/>
       <use xlink:href="#DejaVuSans-30" x="83.789062"/>
       <use xlink:href="#DejaVuSans-2e" x="147.412109"/>
       <use xlink:href="#DejaVuSans-31" x="179.199219"/>
      </g>
     </g>
    </g>
    <g id="ytick_4">
     <g id="line2d_10">
      <g>
       <use xlink:href="#m3c17abd49c" x="57.6" y="171.039291" style="stroke: #000000; stroke-width: 0.8"/>
      </g>
     </g>
     <g id="text_11">
      <!-- 0.0 -->
      <g transform="translate(34.696875 174.83851) scale(0.1 -0.1)">
       <use xlink:href="#DejaVuSans-30"/>
       <use xlink:href="#DejaVuSans-2e" x="63.623047"/>
       <use xlink:href="#DejaVuSans-30" x="95.410156"/>
      </g>
     </g>
    </g>
    <g id="ytick_5">
     <g id="line2d_11">
      <g>
       <use xlink:href="#m3c17abd49c" x="57.6" y="133.277517" style="stroke: #000000; stroke-width: 0.8"/>
      </g>
     </g>
     <g id="text_12">
      <!-- 0.1 -->
      <g transform="translate(34.696875 137.076736) scale(0.1 -0.1)">
       <use xlink:href="#DejaVuSans-30"/>
       <use xlink:href="#DejaVuSans-2e" x="63.623047"/>
       <use xlink:href="#DejaVuSans-31" x="95.410156"/>
      </g>
     </g>
    </g>
    <g id="ytick_6">
     <g id="line2d_12">
      <g>
       <use xlink:href="#m3c17abd49c" x="57.6" y="95.515743" style="stroke: #000000; stroke-width: 0.8"/>
      </g>
     </g>
     <g id="text_13">
      <!-- 0.2 -->
      <g transform="translate(34.696875 99.314962) scale(0.1 -0.1)">
       <use xlink:href="#DejaVuSans-30"/>
       <use xlink:href="#DejaVuSans-2e" x="63.623047"/>
       <use xlink:href="#DejaVuSans-32" x="95.410156"/>
      </g>
     </g>
    </g>
    <g id="ytick_7">
     <g id="line2d_13">
      <g>
       <use xlink:href="#m3c17abd49c" x="57.6" y="57.753969" style="stroke: #000000; stroke-width: 0.8"/>
      </g>
     </g>
     <g id="text_14">
      <!-- 0.3 -->
      <g transform="translate(34.696875 61.553188) scale(0.1 -0.1)">
       <use xlink:href="#DejaVuSans-30"/>
       <use xlink:href="#DejaVuSans-2e" x="63.623047"/>
       <use xlink:href="#DejaVuSans-33" x="95.410156"/>
      </g>
     </g>
    </g>
    <g id="text_15">
     <!-- E*t -->
     <g transform="translate(20.2375 182.147531) rotate(-90) scale(0.1 -0.1)">
      <defs>
       <path id="DejaVuSans-45" d="M 628 4666 
L 3578 4666 
L 3578 4134 
L 1259 4134 
L 1259 2753 
L 3481 2753 
L 3481 2222 
L 1259 2222 
L 1259 531 
L 3634 531 
L 3634 0 
L 628 0 
L 628 4666 
z
" transform="scale(0.015625)"/>
       <path id="DejaVuSans-2a" d="M 3009 3897 
L 1888 3291 
L 3009 2681 
L 2828 2375 
L 1778 3009 
L 1778 1831 
L 1422 1831 
L 1422 3009 
L 372 2375 
L 191 2681 
L 1313 3291 
L 191 3897 
L 372 4206 
L 1422 3572 
L 1422 4750 
L 1778 4750 
L 1778 3572 
L 2828 4206 
L 3009 3897 
z
" transform="scale(0.015625)"/>
       <path id="DejaVuSans-74" d="M 1172 4494 
L 1172 3500 
L 2356 3500 
L 2356 3053 
L 1172 3053 
L 1172 1153 
Q 1172 725 1289 603 
Q 1406 481 1766 481 
L 2356 481 
L 2356 0 
L 1766 0 
Q 1100 0 847 248 
Q 594 497 594 1153 
L 594 3053 
L 172 3053 
L 172 3500 
L 594 3500 
L 594 4494 
L 1172 4494 
z
" transform="scale(0.015625)"/>
      </defs>
      <use xlink:href="#DejaVuSans-45"/>
      <use xlink:href="#DejaVuSans-2a" x="63.183594"/>
      <use xlink:href="#DejaVuSans-74" x="113.183594"/>
     </g>
    </g>
   </g>
   <g id="line2d_14">
    <path d="M 73.832727 295.488 
L 74.467438 286.003056 
L 74.784793 282.929328 
L 75.102149 281.588003 
L 75.419504 277.051266 
L 75.73686 276.692602 
L 76.054215 275.557971 
L 76.37157 273.796589 
L 76.688926 272.769825 
L 77.006281 270.746279 
L 77.640992 268.541077 
L 77.958347 268.236704 
L 78.275702 267.127907 
L 78.910413 264.152449 
L 79.545124 263.436489 
L 80.179835 261.989061 
L 83.036033 256.458134 
L 83.353388 255.490695 
L 83.670744 255.157031 
L 83.988099 254.659102 
L 84.305455 254.382119 
L 84.62281 253.734253 
L 84.940165 252.775436 
L 85.574876 252.19966 
L 85.892231 251.739642 
L 86.844298 250.964162 
L 88.74843 248.591977 
L 89.700496 247.814509 
L 90.017851 247.536567 
L 90.652562 246.62384 
L 90.969917 246.430046 
L 91.287273 245.785385 
L 92.556694 244.657148 
L 93.826116 243.116292 
L 94.143471 242.934123 
L 94.460826 242.322791 
L 95.730248 241.151497 
L 96.047603 241.07975 
L 97.63438 239.590497 
L 97.951736 239.280983 
L 98.269091 239.14969 
L 98.903802 238.26697 
L 99.538512 237.949034 
L 99.855868 237.82683 
L 100.173223 237.422453 
L 100.807934 236.998729 
L 101.442645 236.237961 
L 102.077355 235.748729 
L 102.712066 235.323949 
L 103.029421 235.255157 
L 106.202975 232.623684 
L 106.837686 232.213225 
L 107.155041 231.881818 
L 107.472397 231.725196 
L 108.107107 231.248918 
L 109.693884 230.431836 
L 110.328595 229.886051 
L 111.915372 228.89419 
L 112.232727 228.487836 
L 113.502149 227.701467 
L 114.13686 227.4532 
L 116.675702 225.804886 
L 117.310413 225.551014 
L 118.262479 224.852731 
L 118.89719 224.631762 
L 119.849256 223.834218 
L 120.483967 223.651089 
L 121.118678 223.181548 
L 121.753388 222.531713 
L 122.388099 222.307038 
L 123.340165 221.986548 
L 124.609587 221.092781 
L 124.926942 221.019572 
L 125.561653 220.616425 
L 126.831074 219.974261 
L 127.465785 219.558511 
L 129.369917 218.543123 
L 130.004628 218.031177 
L 131.27405 217.453225 
L 132.860826 216.673367 
L 133.178182 216.620714 
L 133.812893 216.140669 
L 135.082314 215.834944 
L 136.351736 215.004476 
L 136.669091 214.88243 
L 137.303802 214.425654 
L 137.621157 214.314906 
L 137.938512 214.04449 
L 138.573223 213.904707 
L 139.207934 213.482173 
L 139.525289 213.399142 
L 140.477355 212.74855 
L 141.112066 212.620551 
L 142.381488 211.873 
L 142.698843 211.816438 
L 143.016198 211.527295 
L 143.650909 211.407318 
L 145.237686 210.659654 
L 145.872397 210.541433 
L 147.459174 209.62396 
L 148.093884 209.384524 
L 148.728595 209.105099 
L 149.363306 208.691825 
L 150.315372 208.23418 
L 150.950083 207.843905 
L 152.854215 206.782727 
L 155.075702 205.923621 
L 155.393058 205.593778 
L 156.345124 205.369132 
L 156.979835 204.990495 
L 159.518678 203.933333 
L 160.153388 203.754142 
L 160.470744 203.558927 
L 161.105455 203.438642 
L 162.374876 202.756421 
L 163.009587 202.510646 
L 163.644298 202.210379 
L 164.279008 201.915002 
L 164.596364 201.815109 
L 164.913719 201.526624 
L 166.18314 201.232268 
L 167.135207 200.624329 
L 167.452562 200.579683 
L 168.404628 200.090226 
L 168.721983 200.0549 
L 169.039339 199.783964 
L 169.67405 199.599822 
L 170.626116 199.25727 
L 171.260826 199.047535 
L 171.578182 198.974961 
L 171.895537 198.66167 
L 172.847603 198.323102 
L 173.164959 198.030845 
L 174.43438 197.610093 
L 174.751736 197.351666 
L 175.386446 197.141761 
L 176.338512 196.733988 
L 176.973223 196.509113 
L 177.290579 196.245245 
L 177.925289 196.15932 
L 178.242645 195.888861 
L 178.877355 195.774932 
L 179.829421 195.164967 
L 181.098843 194.84236 
L 181.733554 194.580888 
L 183.955041 193.682302 
L 184.907107 193.334169 
L 185.224463 193.080154 
L 185.541818 193.044158 
L 186.81124 192.35193 
L 187.763306 192.042735 
L 188.398017 191.875524 
L 189.032727 191.537041 
L 190.93686 190.773543 
L 191.57157 190.422563 
L 192.206281 190.118437 
L 193.158347 189.819919 
L 193.475702 189.596422 
L 194.427769 189.364554 
L 195.379835 188.921396 
L 196.014545 188.718349 
L 196.966612 188.449964 
L 197.918678 188.221217 
L 200.140165 187.073953 
L 200.774876 186.861955 
L 201.409587 186.497974 
L 202.361653 186.175898 
L 202.996364 186.017308 
L 203.631074 185.757261 
L 204.265785 185.516011 
L 204.58314 185.213546 
L 205.852562 184.946823 
L 206.804628 184.441141 
L 207.439339 184.172517 
L 209.343471 183.446999 
L 210.930248 182.999344 
L 211.882314 182.476288 
L 213.469091 181.977624 
L 214.103802 181.625147 
L 214.421157 181.591828 
L 214.738512 181.400773 
L 215.373223 181.322647 
L 215.690579 181.058378 
L 216.325289 180.969752 
L 217.277355 180.546294 
L 217.912066 180.316443 
L 218.546777 179.957951 
L 218.864132 179.91716 
L 220.450909 179.165835 
L 220.768264 179.151464 
L 222.037686 178.684261 
L 223.307107 178.321752 
L 224.576529 177.726242 
L 224.893884 177.486792 
L 225.21124 177.462264 
L 226.163306 177.044843 
L 227.115372 176.724695 
L 227.750083 176.544748 
L 228.702149 176.294599 
L 230.288926 175.455216 
L 231.875702 175.049755 
L 232.193058 174.785619 
L 233.145124 174.565491 
L 238.540165 172.685112 
L 239.174876 172.483192 
L 239.809587 172.101165 
L 240.126942 172.013049 
L 240.444298 171.806313 
L 241.396364 171.576559 
L 241.713719 171.524667 
L 242.665785 171.135794 
L 242.98314 171.08835 
L 243.300496 170.792427 
L 244.569917 170.49435 
L 244.887273 170.272172 
L 246.47405 169.80597 
L 247.10876 169.401469 
L 247.743471 169.19505 
L 248.695537 168.801374 
L 249.012893 168.762345 
L 249.330248 168.506243 
L 249.647603 168.46835 
L 250.917025 167.841453 
L 252.186446 167.40141 
L 252.503802 167.184429 
L 253.138512 167.040167 
L 254.407934 166.569942 
L 255.042645 166.248166 
L 255.677355 165.941687 
L 257.264132 165.506133 
L 258.216198 165.15543 
L 259.168264 164.6597 
L 271.227769 160.408114 
L 271.545124 160.229594 
L 271.862479 160.187455 
L 272.49719 159.888245 
L 274.083967 159.189676 
L 274.401322 158.987847 
L 275.353388 158.71386 
L 277.257521 158.096214 
L 277.574876 158.058555 
L 278.209587 157.774704 
L 278.526942 157.722344 
L 279.161653 157.34765 
L 279.796364 157.21603 
L 280.431074 156.925984 
L 281.065785 156.805808 
L 281.38314 156.58133 
L 281.700496 156.564324 
L 282.652562 155.945328 
L 283.287273 155.864273 
L 283.604628 155.59509 
L 284.87405 155.159885 
L 286.143471 154.6801 
L 289.63438 153.245318 
L 292.173223 152.220473 
L 292.490579 151.988408 
L 293.76 151.606222 
L 294.077355 151.360148 
L 294.394711 151.306564 
L 294.712066 151.116641 
L 295.664132 150.881675 
L 296.298843 150.626439 
L 296.933554 150.228957 
L 297.568264 150.104226 
L 301.059174 148.641545 
L 302.01124 148.251127 
L 303.280661 147.701328 
L 305.502149 146.969069 
L 305.819504 146.723659 
L 306.454215 146.537717 
L 307.723636 145.956259 
L 308.040992 145.895585 
L 309.310413 145.246381 
L 309.945124 145.040994 
L 310.89719 144.477724 
L 311.531901 144.283296 
L 312.801322 143.757349 
L 313.436033 143.42046 
L 313.753388 143.382084 
L 314.705455 142.880611 
L 315.657521 142.445739 
L 316.292231 142.13684 
L 317.561653 141.764742 
L 317.879008 141.687316 
L 318.831074 141.083331 
L 319.465785 140.966324 
L 321.369917 139.939453 
L 321.687273 139.890074 
L 322.321983 139.551847 
L 322.956694 139.348497 
L 324.860826 138.261681 
L 325.812893 138.049466 
L 326.130248 137.607772 
L 328.351736 136.62741 
L 329.303802 136.143874 
L 330.573223 135.779994 
L 331.525289 135.222854 
L 332.16 135.120416 
L 332.794711 134.747664 
L 333.429421 134.506163 
L 334.381488 133.991457 
L 334.698843 133.875099 
L 335.016198 133.634283 
L 335.650909 133.484266 
L 336.920331 132.817753 
L 338.189752 132.20536 
L 338.824463 131.899263 
L 339.141818 131.524338 
L 340.728595 130.813281 
L 341.04595 130.661285 
L 341.363306 130.352514 
L 342.315372 130.004549 
L 343.584793 129.400477 
L 344.219504 129.091526 
L 344.854215 128.898938 
L 345.488926 128.424392 
L 345.806281 128.194152 
L 346.123636 128.118922 
L 347.710413 127.130628 
L 348.027769 126.989192 
L 348.345124 126.719824 
L 349.29719 126.441792 
L 351.201322 125.25354 
L 351.836033 124.99693 
L 352.153388 124.679333 
L 352.470744 124.629874 
L 353.105455 123.971625 
L 354.057521 123.523886 
L 355.326942 122.696147 
L 356.913719 121.969935 
L 357.54843 121.488869 
L 360.721983 119.368355 
L 361.039339 119.240509 
L 361.67405 118.882899 
L 361.991405 118.734161 
L 362.626116 118.179645 
L 363.260826 117.85489 
L 363.895537 117.395874 
L 364.212893 117.115553 
L 365.164959 116.761619 
L 366.117025 116.217815 
L 368.338512 114.474073 
L 368.973223 113.971747 
L 369.607934 113.421862 
L 369.925289 113.126648 
L 370.242645 112.498501 
L 370.877355 112.219476 
L 371.194711 111.859991 
L 371.829421 111.491046 
L 372.464132 110.847818 
L 373.098843 110.481552 
L 373.733554 110.182495 
L 374.050909 109.773373 
L 375.002975 109.1481 
L 375.320331 108.631459 
L 376.589752 107.534862 
L 377.224463 107.086817 
L 377.541818 106.657558 
L 378.176529 106.135435 
L 378.493884 105.839161 
L 378.81124 105.199595 
L 379.128595 105.049374 
L 379.44595 104.588613 
L 379.763306 104.361752 
L 380.398017 103.546481 
L 381.350083 102.790128 
L 382.302149 101.400502 
L 382.93686 100.945141 
L 383.57157 100.351776 
L 384.206281 99.286246 
L 384.523636 98.817798 
L 385.158347 98.359402 
L 385.793058 97.46864 
L 386.110413 97.104526 
L 387.379835 95.005549 
L 387.69719 94.875373 
L 388.331901 93.930465 
L 388.649256 93.608027 
L 388.966612 93.019458 
L 389.283967 92.049597 
L 389.601322 91.532051 
L 389.918678 91.40403 
L 390.236033 90.874868 
L 390.553388 89.978903 
L 390.870744 89.530259 
L 391.82281 87.253431 
L 392.457521 86.184331 
L 392.774876 85.394755 
L 393.092231 85.18212 
L 394.996364 79.216172 
L 395.313719 78.746506 
L 395.631074 76.660888 
L 395.94843 76.144182 
L 396.58314 72.630145 
L 396.900496 71.374563 
L 397.217851 70.609948 
L 397.852562 62.253774 
L 398.169917 60.176823 
L 398.487273 53.568 
L 398.487273 53.568 
" clip-path="url(#pd16fe0d357)" style="fill: none; stroke: #1f77b4; stroke-width: 1.5; stroke-linecap: square"/>
   </g>
   <g id="line2d_15">
    <path d="M 73.832727 278.660348 
L 74.150083 267.331814 
L 74.467438 266.222887 
L 74.784793 263.004668 
L 75.102149 257.992195 
L 75.419504 256.003281 
L 76.054215 253.684158 
L 76.37157 251.676138 
L 76.688926 251.676137 
L 77.006281 250.679082 
L 77.323636 247.397012 
L 77.640992 246.663664 
L 77.958347 245.445361 
L 78.275702 244.674752 
L 78.593058 244.674748 
L 78.910413 243.565824 
L 79.227769 243.526896 
L 80.179835 240.347606 
L 80.49719 240.347606 
L 81.131901 239.35055 
L 81.449256 239.042078 
L 82.718678 236.06848 
L 83.036033 235.473852 
L 83.353388 235.335133 
L 83.670744 235.051225 
L 83.988099 234.193612 
L 84.305455 234.116831 
L 84.62281 233.346219 
L 84.940165 233.346216 
L 85.257521 232.858964 
L 85.574876 232.799368 
L 85.892231 232.237292 
L 86.209587 232.198362 
L 86.526942 231.947783 
L 86.844298 231.357307 
L 87.479008 230.595464 
L 88.431074 229.019075 
L 88.74843 229.019074 
L 89.065785 228.433408 
L 89.700496 228.022018 
L 90.335207 227.713548 
L 90.969917 226.344833 
L 91.604628 226.30836 
L 91.921983 226.156463 
L 92.87405 224.854422 
L 93.191405 224.739948 
L 93.50876 224.145318 
L 93.826116 224.006602 
L 95.095537 222.946082 
L 96.047603 222.687004 
L 96.364959 222.017686 
L 96.682314 222.017683 
L 96.999669 221.679486 
L 97.63438 221.470833 
L 97.951736 220.90876 
L 98.269091 220.869829 
L 98.586446 220.619252 
L 98.903802 220.613254 
L 99.221157 220.233251 
L 100.173223 219.927693 
L 100.490579 219.698566 
L 100.807934 219.266928 
L 101.125289 219.092344 
L 101.76 218.455699 
L 102.077355 218.361442 
L 102.394711 217.701923 
L 103.029421 217.690543 
L 103.346777 217.104874 
L 103.981488 216.693486 
L 104.616198 216.521617 
L 104.933554 216.385019 
L 105.250909 215.605921 
L 105.88562 215.415085 
L 106.202975 215.134437 
L 106.837686 215.016297 
L 107.155041 214.979832 
L 107.472397 214.827933 
L 107.789752 214.408672 
L 108.107107 214.355212 
L 108.424463 214.132838 
L 108.741818 214.074462 
L 109.693884 213.44873 
L 110.328595 213.377728 
L 110.64595 212.816784 
L 110.963306 212.678072 
L 111.280661 212.394169 
L 111.598017 212.370457 
L 112.550083 211.884221 
L 114.13686 211.358473 
L 114.454215 210.725112 
L 115.088926 210.689151 
L 115.406281 210.350956 
L 116.040992 210.142299 
L 116.358347 210.117489 
L 116.675702 209.580229 
L 116.993058 209.541296 
L 117.310413 209.290722 
L 117.627769 209.284723 
L 117.945124 208.904722 
L 118.89719 208.726105 
L 120.483967 208.492119 
L 120.801322 208.370034 
L 121.436033 207.938395 
L 123.02281 207.127166 
L 123.657521 207.032911 
L 123.974876 206.373394 
L 124.926942 206.264663 
L 126.196364 205.547061 
L 126.513719 205.531138 
L 126.831074 205.383979 
L 127.465785 205.319042 
L 128.100496 205.056489 
L 128.417851 204.277389 
L 129.052562 204.156959 
L 129.369917 204.086559 
L 129.687273 203.687764 
L 130.321983 203.651302 
L 131.591405 203.080139 
L 131.90876 203.026679 
L 132.226116 202.804308 
L 132.543471 202.74593 
L 132.860826 202.506154 
L 133.178182 202.425922 
L 133.495537 202.197358 
L 134.447603 202.049196 
L 134.764959 201.488251 
L 136.351736 201.04193 
L 137.303802 200.583032 
L 139.525289 200.289019 
L 140.794711 200.029943 
L 141.112066 199.491467 
L 141.746777 199.36062 
L 142.064132 199.360619 
L 142.381488 199.028836 
L 142.698843 199.022426 
L 143.333554 198.813766 
L 143.968264 198.71882 
L 144.28562 198.251697 
L 144.602975 198.212763 
L 144.920331 197.962191 
L 145.237686 197.956192 
L 145.555041 197.83768 
L 145.872397 197.576192 
L 146.824463 197.39758 
L 148.728595 197.163588 
L 150.632727 196.382662 
L 150.950083 196.113435 
L 151.584793 196.095924 
L 151.902149 195.798634 
L 152.854215 195.481433 
L 153.806281 195.033482 
L 154.758347 194.93613 
L 155.710413 194.467814 
L 156.027769 194.447807 
L 156.662479 194.080185 
L 157.614545 193.990512 
L 158.249256 193.786172 
L 158.883967 193.727959 
L 159.201322 193.062458 
L 160.153388 192.836343 
L 161.740165 192.686007 
L 162.057521 192.35923 
L 162.692231 192.322772 
L 163.326942 192.08972 
L 163.644298 192.070015 
L 163.961653 191.757335 
L 164.596364 191.698148 
L 164.913719 191.506364 
L 165.54843 191.417398 
L 166.18314 191.177621 
L 168.087273 190.720664 
L 168.404628 190.159719 
L 170.30876 189.713403 
L 170.626116 189.263605 
L 171.578182 189.141012 
L 174.117025 188.802712 
L 174.751736 188.636978 
L 175.069091 188.323038 
L 176.338512 188.032088 
L 176.655868 188.032088 
L 176.973223 187.700305 
L 177.290579 187.693896 
L 177.925289 187.485233 
L 179.194711 187.289354 
L 179.512066 186.923165 
L 180.464132 186.830831 
L 180.781488 186.633659 
L 181.098843 186.62766 
L 181.416198 186.509143 
L 181.733554 186.247661 
L 182.050909 186.224821 
L 182.368264 186.069054 
L 184.272397 185.835061 
L 185.224463 185.586227 
L 185.859174 185.430648 
L 186.176529 185.289296 
L 186.81124 185.273155 
L 187.763306 184.784901 
L 188.398017 184.767394 
L 188.715372 184.470101 
L 189.032727 184.378507 
L 189.667438 183.961786 
L 190.619504 183.704951 
L 191.888926 183.600186 
L 192.523636 183.431331 
L 192.840992 183.416837 
L 193.158347 183.212898 
L 194.110413 183.119274 
L 194.745124 182.726918 
L 195.379835 182.661983 
L 196.014545 182.524918 
L 196.966612 182.399428 
L 197.283967 181.73392 
L 197.601322 181.511988 
L 199.188099 181.357467 
L 199.505455 181.327719 
L 200.140165 181.030696 
L 200.774876 180.994242 
L 201.409587 180.761192 
L 201.726942 180.741477 
L 202.044298 180.436674 
L 203.313719 180.369616 
L 203.631074 180.17783 
L 204.265785 180.088866 
L 204.58314 179.91658 
L 205.535207 179.812835 
L 206.169917 179.728145 
L 206.804628 179.425825 
L 207.121983 179.392132 
L 207.439339 179.190462 
L 207.756694 178.753437 
L 209.343471 178.408585 
L 209.660826 177.935072 
L 211.564959 177.781274 
L 213.469091 177.550946 
L 214.421157 177.308441 
L 214.738512 176.994509 
L 216.642645 176.652359 
L 216.96 176.590217 
L 217.277355 176.371774 
L 217.912066 176.288921 
L 218.546777 176.061763 
L 219.181488 175.960816 
L 219.816198 175.594633 
L 221.08562 175.502303 
L 221.402975 175.33651 
L 222.355041 175.180608 
L 222.672397 174.919131 
L 222.989752 174.89629 
L 223.307107 174.740528 
L 224.893884 174.546562 
L 226.480661 174.102116 
L 227.432727 173.725598 
L 227.750083 173.660521 
L 228.067438 173.456368 
L 229.019504 173.315752 
L 229.33686 173.141568 
L 229.97157 173.049974 
L 230.606281 172.633247 
L 231.558347 172.376421 
L 232.827769 172.271649 
L 233.462479 172.126469 
L 234.09719 171.913347 
L 235.049256 171.790742 
L 235.683967 171.398387 
L 236.318678 171.333454 
L 236.953388 171.196393 
L 237.905455 171.070898 
L 238.22281 170.405383 
L 238.540165 170.183458 
L 240.761653 169.99919 
L 241.396364 169.702163 
L 242.031074 169.635442 
L 242.98314 169.108136 
L 243.935207 169.041085 
L 244.252562 168.849297 
L 244.887273 168.760335 
L 245.204628 168.58806 
L 246.156694 168.484298 
L 246.791405 168.399609 
L 247.10876 168.211762 
L 248.695537 167.86193 
L 249.964959 167.369882 
L 250.599669 167.261021 
L 250.917025 167.0988 
L 251.23438 167.080058 
L 251.551736 166.734362 
L 251.869091 166.600387 
L 253.138512 166.483946 
L 255.36 166.222415 
L 255.994711 165.665979 
L 257.264132 165.549708 
L 257.581488 165.375025 
L 258.533554 165.323821 
L 258.850909 165.043243 
L 259.48562 164.960382 
L 260.120331 164.691909 
L 260.437686 164.632279 
L 261.072397 164.246445 
L 261.707107 164.173773 
L 262.976529 163.976596 
L 263.293884 163.970599 
L 263.61124 163.852073 
L 264.24595 163.412001 
L 265.832727 163.218031 
L 268.054215 162.616102 
L 268.37157 162.397066 
L 269.323636 162.127836 
L 270.593058 161.721441 
L 270.910413 161.206345 
L 275.353388 160.232939 
L 275.670744 160.069855 
L 275.988099 160.059241 
L 276.305455 159.878971 
L 277.574876 159.777564 
L 278.526942 159.438096 
L 279.161653 158.842824 
L 279.796364 158.774893 
L 280.74843 158.67066 
L 281.700496 158.37363 
L 282.017851 158.37363 
L 282.335207 158.209557 
L 282.652562 157.811604 
L 283.921983 157.712554 
L 284.556694 157.431803 
L 288.364959 156.533397 
L 289.317025 156.150201 
L 290.586446 155.932492 
L 291.221157 155.271854 
L 292.173223 155.131365 
L 293.76 154.911981 
L 294.394711 154.311343 
L 296.298843 153.995283 
L 296.933554 153.714713 
L 297.568264 153.631846 
L 298.202975 153.363373 
L 298.520331 153.303743 
L 299.155041 152.917916 
L 299.472397 152.912159 
L 300.107107 152.680617 
L 301.376529 152.511528 
L 302.01124 152.239228 
L 302.64595 151.911757 
L 303.598017 151.814523 
L 304.232727 151.628328 
L 304.867438 151.568663 
L 305.502149 151.123496 
L 307.088926 150.799304 
L 308.040992 150.541208 
L 308.675702 150.392908 
L 308.993058 150.042985 
L 309.945124 149.638008 
L 310.579835 149.558569 
L 310.89719 149.311951 
L 312.166612 149.077685 
L 312.801322 148.755121 
L 313.436033 148.71901 
L 314.070744 148.461654 
L 314.705455 148.352748 
L 315.340165 147.74831 
L 315.657521 147.452678 
L 316.926942 147.356713 
L 317.561653 147.045098 
L 318.196364 147.001059 
L 318.513719 146.483066 
L 319.78314 146.373369 
L 320.417851 146.103272 
L 320.735207 146.033128 
L 321.052562 145.827228 
L 321.687273 145.773058 
L 322.004628 145.500521 
L 322.956694 145.390637 
L 323.90876 145.164022 
L 325.495537 144.696487 
L 325.812893 144.317214 
L 326.130248 144.28218 
L 326.447603 143.943321 
L 327.082314 143.826883 
L 328.03438 143.642274 
L 328.351736 143.301444 
L 329.303802 142.933158 
L 330.890579 142.711528 
L 331.525289 142.146299 
L 332.16 142.034838 
L 332.477355 141.975207 
L 332.794711 141.589388 
L 333.429421 141.535092 
L 334.381488 141.335038 
L 334.698843 141.326719 
L 336.920331 140.352487 
L 337.237686 140.299799 
L 337.555041 139.794974 
L 338.824463 139.482978 
L 339.776529 139.064376 
L 340.093884 138.623589 
L 341.363306 138.286044 
L 341.680661 137.983425 
L 342.315372 137.925786 
L 342.632727 137.749152 
L 342.950083 137.742992 
L 343.267438 137.57588 
L 343.584793 137.559197 
L 344.219504 137.40217 
L 344.53686 137.390482 
L 345.17157 137.133122 
L 345.806281 137.02422 
L 346.123636 136.781023 
L 346.440992 136.124143 
L 347.075702 136.116932 
L 347.710413 135.716565 
L 348.027769 135.672518 
L 348.345124 135.122525 
L 348.979835 134.863701 
L 349.931901 134.482373 
L 350.566612 134.444514 
L 350.883967 134.062106 
L 351.201322 133.896741 
L 351.836033 133.835501 
L 352.153388 133.681207 
L 352.470744 133.657547 
L 353.105455 133.367959 
L 353.42281 132.988685 
L 353.740165 132.953638 
L 354.057521 132.614788 
L 354.692231 132.498351 
L 355.009587 132.338427 
L 355.326942 131.972906 
L 355.961653 131.821781 
L 356.596364 131.604623 
L 357.231074 131.520746 
L 357.54843 131.396984 
L 358.18314 130.808016 
L 358.500496 130.706303 
L 359.135207 130.006508 
L 359.452562 129.9982 
L 360.087273 129.753292 
L 360.404628 129.144046 
L 361.039339 129.023955 
L 361.356694 128.466451 
L 363.895537 127.580148 
L 364.530248 126.980943 
L 366.43438 126.09805 
L 367.069091 126.061954 
L 367.703802 125.756071 
L 368.021157 125.100841 
L 368.338512 124.795607 
L 368.655868 124.789299 
L 369.290579 123.793989 
L 369.925289 123.535171 
L 370.877355 123.153834 
L 371.194711 122.733574 
L 371.829421 122.352685 
L 372.146777 122.329016 
L 372.464132 122.164602 
L 373.098843 121.286254 
L 373.416198 120.987259 
L 373.733554 120.493243 
L 374.368264 120.276088 
L 375.002975 120.192212 
L 375.320331 120.068439 
L 375.637686 119.47947 
L 375.955041 119.377768 
L 376.907107 118.677979 
L 377.224463 118.669679 
L 377.541818 118.525917 
L 377.859174 117.815507 
L 378.493884 117.695422 
L 378.81124 116.94579 
L 379.128595 116.935285 
L 379.44595 116.251627 
L 380.398017 115.309027 
L 381.350083 114.769516 
L 381.667438 114.745101 
L 382.302149 114.427534 
L 382.619504 113.772312 
L 382.93686 113.383219 
L 383.254215 112.465453 
L 383.57157 112.4526 
L 383.888926 112.047533 
L 384.206281 111.825295 
L 384.840992 111.024162 
L 385.158347 110.986392 
L 385.793058 110.587011 
L 386.110413 110.296556 
L 386.745124 109.189025 
L 387.062479 108.947554 
L 387.69719 108.739896 
L 388.014545 107.579841 
L 388.331901 107.197381 
L 388.649256 106.486968 
L 388.966612 106.379223 
L 389.283967 105.617254 
L 389.601322 105.606755 
L 390.553388 103.440982 
L 390.870744 103.416568 
L 391.188099 102.57896 
L 391.82281 102.443783 
L 392.140165 100.496757 
L 392.457521 99.65786 
L 393.409587 98.330181 
L 393.726942 97.535146 
L 394.361653 95.15843 
L 394.679008 94.288719 
L 394.996364 94.091563 
L 395.313719 93.310587 
L 395.631074 92.844689 
L 396.265785 89.16822 
L 396.58314 88.329327 
L 396.900496 87.929943 
L 397.217851 81.982036 
L 397.535207 81.51615 
L 397.852562 79.798503 
L 398.487273 70.653485 
L 398.487273 70.653485 
" clip-path="url(#pd16fe0d357)" style="fill: none; stroke: #ff7f0e; stroke-width: 1.5; stroke-linecap: square"/>
   </g>
   <g id="patch_3">
    <path d="M 57.6 307.584 
L 57.6 41.472 
" style="fill: none; stroke: #000000; stroke-width: 0.8; stroke-linejoin: miter; stroke-linecap: square"/>
   </g>
   <g id="patch_4">
    <path d="M 414.72 307.584 
L 414.72 41.472 
" style="fill: none; stroke: #000000; stroke-width: 0.8; stroke-linejoin: miter; stroke-linecap: square"/>
   </g>
   <g id="patch_5">
    <path d="M 57.6 307.584 
L 414.72 307.584 
" style="fill: none; stroke: #000000; stroke-width: 0.8; stroke-linejoin: miter; stroke-linecap: square"/>
   </g>
   <g id="patch_6">
    <path d="M 57.6 41.472 
L 414.72 41.472 
" style="fill: none; stroke: #000000; stroke-width: 0.8; stroke-linejoin: miter; stroke-linecap: square"/>
   </g>
   <g id="legend_1">
    <g id="patch_7">
     <path d="M 64.6 78.82825 
L 129.342187 78.82825 
Q 131.342187 78.82825 131.342187 76.82825 
L 131.342187 48.472 
Q 131.342187 46.472 129.342187 46.472 
L 64.6 46.472 
Q 62.6 46.472 62.6 48.472 
L 62.6 76.82825 
Q 62.6 78.82825 64.6 78.82825 
z
" style="fill: #ffffff; opacity: 0.8; stroke: #cccccc; stroke-linejoin: miter"/>
    </g>
    <g id="line2d_16">
     <path d="M 66.6 54.570437 
L 76.6 54.570437 
L 86.6 54.570437 
" style="fill: none; stroke: #1f77b4; stroke-width: 1.5; stroke-linecap: square"/>
    </g>
    <g id="text_16">
     <!-- qc -->
     <g transform="translate(94.6 58.070437) scale(0.1 -0.1)">
      <defs>
       <path id="DejaVuSans-71" d="M 947 1747 
Q 947 1113 1208 752 
Q 1469 391 1925 391 
Q 2381 391 2643 752 
Q 2906 1113 2906 1747 
Q 2906 2381 2643 2742 
Q 2381 3103 1925 3103 
Q 1469 3103 1208 2742 
Q 947 2381 947 1747 
z
M 2906 525 
Q 2725 213 2448 61 
Q 2172 -91 1784 -91 
Q 1150 -91 751 415 
Q 353 922 353 1747 
Q 353 2572 751 3078 
Q 1150 3584 1784 3584 
Q 2172 3584 2448 3432 
Q 2725 3281 2906 2969 
L 2906 3500 
L 3481 3500 
L 3481 -1331 
L 2906 -1331 
L 2906 525 
z
" transform="scale(0.015625)"/>
       <path id="DejaVuSans-63" d="M 3122 3366 
L 3122 2828 
Q 2878 2963 2633 3030 
Q 2388 3097 2138 3097 
Q 1578 3097 1268 2742 
Q 959 2388 959 1747 
Q 959 1106 1268 751 
Q 1578 397 2138 397 
Q 2388 397 2633 464 
Q 2878 531 3122 666 
L 3122 134 
Q 2881 22 2623 -34 
Q 2366 -91 2075 -91 
Q 1284 -91 818 406 
Q 353 903 353 1747 
Q 353 2603 823 3093 
Q 1294 3584 2113 3584 
Q 2378 3584 2631 3529 
Q 2884 3475 3122 3366 
z
" transform="scale(0.015625)"/>
      </defs>
      <use xlink:href="#DejaVuSans-71"/>
      <use xlink:href="#DejaVuSans-63" x="63.476562"/>
     </g>
    </g>
    <g id="line2d_17">
     <path d="M 66.6 69.248562 
L 76.6 69.248562 
L 86.6 69.248562 
" style="fill: none; stroke: #ff7f0e; stroke-width: 1.5; stroke-linecap: square"/>
    </g>
    <g id="text_17">
     <!-- Trotter -->
     <g transform="translate(94.6 72.748562) scale(0.1 -0.1)">
      <defs>
       <path id="DejaVuSans-54" d="M -19 4666 
L 3928 4666 
L 3928 4134 
L 2272 4134 
L 2272 0 
L 1638 0 
L 1638 4134 
L -19 4134 
L -19 4666 
z
" transform="scale(0.015625)"/>
       <path id="DejaVuSans-72" d="M 2631 2963 
Q 2534 3019 2420 3045 
Q 2306 3072 2169 3072 
Q 1681 3072 1420 2755 
Q 1159 2438 1159 1844 
L 1159 0 
L 581 0 
L 581 3500 
L 1159 3500 
L 1159 2956 
Q 1341 3275 1631 3429 
Q 1922 3584 2338 3584 
Q 2397 3584 2469 3576 
Q 2541 3569 2628 3553 
L 2631 2963 
z
" transform="scale(0.015625)"/>
       <path id="DejaVuSans-6f" d="M 1959 3097 
Q 1497 3097 1228 2736 
Q 959 2375 959 1747 
Q 959 1119 1226 758 
Q 1494 397 1959 397 
Q 2419 397 2687 759 
Q 2956 1122 2956 1747 
Q 2956 2369 2687 2733 
Q 2419 3097 1959 3097 
z
M 1959 3584 
Q 2709 3584 3137 3096 
Q 3566 2609 3566 1747 
Q 3566 888 3137 398 
Q 2709 -91 1959 -91 
Q 1206 -91 779 398 
Q 353 888 353 1747 
Q 353 2609 779 3096 
Q 1206 3584 1959 3584 
z
" transform="scale(0.015625)"/>
       <path id="DejaVuSans-65" d="M 3597 1894 
L 3597 1613 
L 953 1613 
Q 991 1019 1311 708 
Q 1631 397 2203 397 
Q 2534 397 2845 478 
Q 3156 559 3463 722 
L 3463 178 
Q 3153 47 2828 -22 
Q 2503 -91 2169 -91 
Q 1331 -91 842 396 
Q 353 884 353 1716 
Q 353 2575 817 3079 
Q 1281 3584 2069 3584 
Q 2775 3584 3186 3129 
Q 3597 2675 3597 1894 
z
M 3022 2063 
Q 3016 2534 2758 2815 
Q 2500 3097 2075 3097 
Q 1594 3097 1305 2825 
Q 1016 2553 972 2059 
L 3022 2063 
z
" transform="scale(0.015625)"/>
      </defs>
      <use xlink:href="#DejaVuSans-54"/>
      <use xlink:href="#DejaVuSans-72" x="46.333984"/>
      <use xlink:href="#DejaVuSans-6f" x="85.197266"/>
      <use xlink:href="#DejaVuSans-74" x="146.378906"/>
      <use xlink:href="#DejaVuSans-74" x="185.587891"/>
      <use xlink:href="#DejaVuSans-65" x="224.796875"/>
      <use xlink:href="#DejaVuSans-72" x="286.320312"/>
     </g>
    </g>
   </g>
  </g>
 </g>
 <defs>
  <clipPath id="pd16fe0d357">
   <rect x="57.6" y="41.472" width="357.12" height="266.112"/>
  </clipPath>
 </defs>
</svg>
