<?xml version="1.0" encoding="utf-8" standalone="no"?>
<!DOCTYPE svg PUBLIC "-//W3C//DTD SVG 1.1//EN"
  "http://www.w3.org/Graphics/SVG/1.1/DTD/svg11.dtd">
<svg xmlns:xlink="http://www.w3.org/1999/xlink" width="460.8pt" height="345.6pt" viewBox="0 0 460.8 345.6" xmlns="http://www.w3.org/2000/svg" version="1.1">
 <metadata>
  <rdf:RDF xmlns:dc="http://purl.org/dc/elements/1.1/" xmlns:cc="http://creativecommons.org/ns#" xmlns:rdf="http://www.w3.org/1999/02/22-rdf-syntax-ns#">
   <cc:Work>
    <dc:type rdf:resource="http://purl.org/dc/dcmitype/StillImage"/>
    <dc:date>2024-07-14T11:27:10.153224</dc:date>
    <dc:format>image/svg+xml</dc:format>
    <dc:creator>
     <cc:Agent>
      <dc:title>Matplotlib v3.7.1, https://matplotlib.org/</dc:title>
     </cc:Agent>
    </dc:creator>
   </cc:Work>
  </rdf:RDF>
 </metadata>
 <defs>
  <style type="text/css">*{stroke-linejoin: round; stroke-linecap: butt}</style>
 </defs>
 <g id="figure_1">
  <g id="patch_1">
   <path d="M 0 345.6 
L 460.8 345.6 
L 460.8 0 
L 0 0 
z
" style="fill: #ffffff"/>
  </g>
  <g id="axes_1">
   <g id="patch_2">
    <path d="M 57.6 307.584 
L 414.72 307.584 
L 414.72 41.472 
L 57.6 41.472 
z
" style="fill: #ffffff"/>
   </g>
   <g id="matplotlib.axis_1">
    <g id="xtick_1">
     <g id="line2d_1">
      <defs>
       <path id="mddc1ab3bb1" d="M 0 0 
L 0 3.5 
" style="stroke: #000000; stroke-width: 0.8"/>
      </defs>
      <g>
       <use xlink:href="#mddc1ab3bb1" x="73.832727" y="307.584" style="stroke: #000000; stroke-width: 0.8"/>
      </g>
     </g>
     <g id="text_1">
      <!-- 0 -->
      <g transform="translate(70.651477 322.182437) scale(0.1 -0.1)">
       <defs>
        <path id="DejaVuSans-30" d="M 2034 4250 
Q 1547 4250 1301 3770 
Q 1056 3291 1056 2328 
Q 1056 1369 1301 889 
Q 1547 409 2034 409 
Q 2525 409 2770 889 
Q 3016 1369 3016 2328 
Q 3016 3291 2770 3770 
Q 2525 4250 2034 4250 
z
M 2034 4750 
Q 2819 4750 3233 4129 
Q 3647 3509 3647 2328 
Q 3647 1150 3233 529 
Q 2819 -91 2034 -91 
Q 1250 -91 836 529 
Q 422 1150 422 2328 
Q 422 3509 836 4129 
Q 1250 4750 2034 4750 
z
" transform="scale(0.015625)"/>
       </defs>
       <use xlink:href="#DejaVuSans-30"/>
      </g>
     </g>
    </g>
    <g id="xtick_2">
     <g id="line2d_2">
      <g>
       <use xlink:href="#mddc1ab3bb1" x="137.303802" y="307.584" style="stroke: #000000; stroke-width: 0.8"/>
      </g>
     </g>
     <g id="text_2">
      <!-- 200 -->
      <g transform="translate(127.760052 322.182437) scale(0.1 -0.1)">
       <defs>
        <path id="DejaVuSans-32" d="M 1228 531 
L 3431 531 
L 3431 0 
L 469 0 
L 469 531 
Q 828 903 1448 1529 
Q 2069 2156 2228 2338 
Q 2531 2678 2651 2914 
Q 2772 3150 2772 3378 
Q 2772 3750 2511 3984 
Q 2250 4219 1831 4219 
Q 1534 4219 1204 4116 
Q 875 4013 500 3803 
L 500 4441 
Q 881 4594 1212 4672 
Q 1544 4750 1819 4750 
Q 2544 4750 2975 4387 
Q 3406 4025 3406 3419 
Q 3406 3131 3298 2873 
Q 3191 2616 2906 2266 
Q 2828 2175 2409 1742 
Q 1991 1309 1228 531 
z
" transform="scale(0.015625)"/>
       </defs>
       <use xlink:href="#DejaVuSans-32"/>
       <use xlink:href="#DejaVuSans-30" x="63.623047"/>
       <use xlink:href="#DejaVuSans-30" x="127.246094"/>
      </g>
     </g>
    </g>
    <g id="xtick_3">
     <g id="line2d_3">
      <g>
       <use xlink:href="#mddc1ab3bb1" x="200.774876" y="307.584" style="stroke: #000000; stroke-width: 0.8"/>
      </g>
     </g>
     <g id="text_3">
      <!-- 400 -->
      <g transform="translate(191.231126 322.182437) scale(0.1 -0.1)">
       <defs>
        <path id="DejaVuSans-34" d="M 2419 4116 
L 825 1625 
L 2419 1625 
L 2419 4116 
z
M 2253 4666 
L 3047 4666 
L 3047 1625 
L 3713 1625 
L 3713 1100 
L 3047 1100 
L 3047 0 
L 2419 0 
L 2419 1100 
L 313 1100 
L 313 1709 
L 2253 4666 
z
" transform="scale(0.015625)"/>
       </defs>
       <use xlink:href="#DejaVuSans-34"/>
       <use xlink:href="#DejaVuSans-30" x="63.623047"/>
       <use xlink:href="#DejaVuSans-30" x="127.246094"/>
      </g>
     </g>
    </g>
    <g id="xtick_4">
     <g id="line2d_4">
      <g>
       <use xlink:href="#mddc1ab3bb1" x="264.24595" y="307.584" style="stroke: #000000; stroke-width: 0.8"/>
      </g>
     </g>
     <g id="text_4">
      <!-- 600 -->
      <g transform="translate(254.7022 322.182437) scale(0.1 -0.1)">
       <defs>
        <path id="DejaVuSans-36" d="M 2113 2584 
Q 1688 2584 1439 2293 
Q 1191 2003 1191 1497 
Q 1191 994 1439 701 
Q 1688 409 2113 409 
Q 2538 409 2786 701 
Q 3034 994 3034 1497 
Q 3034 2003 2786 2293 
Q 2538 2584 2113 2584 
z
M 3366 4563 
L 3366 3988 
Q 3128 4100 2886 4159 
Q 2644 4219 2406 4219 
Q 1781 4219 1451 3797 
Q 1122 3375 1075 2522 
Q 1259 2794 1537 2939 
Q 1816 3084 2150 3084 
Q 2853 3084 3261 2657 
Q 3669 2231 3669 1497 
Q 3669 778 3244 343 
Q 2819 -91 2113 -91 
Q 1303 -91 875 529 
Q 447 1150 447 2328 
Q 447 3434 972 4092 
Q 1497 4750 2381 4750 
Q 2619 4750 2861 4703 
Q 3103 4656 3366 4563 
z
" transform="scale(0.015625)"/>
       </defs>
       <use xlink:href="#DejaVuSans-36"/>
       <use xlink:href="#DejaVuSans-30" x="63.623047"/>
       <use xlink:href="#DejaVuSans-30" x="127.246094"/>
      </g>
     </g>
    </g>
    <g id="xtick_5">
     <g id="line2d_5">
      <g>
       <use xlink:href="#mddc1ab3bb1" x="327.717025" y="307.584" style="stroke: #000000; stroke-width: 0.8"/>
      </g>
     </g>
     <g id="text_5">
      <!-- 800 -->
      <g transform="translate(318.173275 322.182437) scale(0.1 -0.1)">
       <defs>
        <path id="DejaVuSans-38" d="M 2034 2216 
Q 1584 2216 1326 1975 
Q 1069 1734 1069 1313 
Q 1069 891 1326 650 
Q 1584 409 2034 409 
Q 2484 409 2743 651 
Q 3003 894 3003 1313 
Q 3003 1734 2745 1975 
Q 2488 2216 2034 2216 
z
M 1403 2484 
Q 997 2584 770 2862 
Q 544 3141 544 3541 
Q 544 4100 942 4425 
Q 1341 4750 2034 4750 
Q 2731 4750 3128 4425 
Q 3525 4100 3525 3541 
Q 3525 3141 3298 2862 
Q 3072 2584 2669 2484 
Q 3125 2378 3379 2068 
Q 3634 1759 3634 1313 
Q 3634 634 3220 271 
Q 2806 -91 2034 -91 
Q 1263 -91 848 271 
Q 434 634 434 1313 
Q 434 1759 690 2068 
Q 947 2378 1403 2484 
z
M 1172 3481 
Q 1172 3119 1398 2916 
Q 1625 2713 2034 2713 
Q 2441 2713 2670 2916 
Q 2900 3119 2900 3481 
Q 2900 3844 2670 4047 
Q 2441 4250 2034 4250 
Q 1625 4250 1398 4047 
Q 1172 3844 1172 3481 
z
" transform="scale(0.015625)"/>
       </defs>
       <use xlink:href="#DejaVuSans-38"/>
       <use xlink:href="#DejaVuSans-30" x="63.623047"/>
       <use xlink:href="#DejaVuSans-30" x="127.246094"/>
      </g>
     </g>
    </g>
    <g id="xtick_6">
     <g id="line2d_6">
      <g>
       <use xlink:href="#mddc1ab3bb1" x="391.188099" y="307.584" style="stroke: #000000; stroke-width: 0.8"/>
      </g>
     </g>
     <g id="text_6">
      <!-- 1000 -->
      <g transform="translate(378.463099 322.182437) scale(0.1 -0.1)">
       <defs>
        <path id="DejaVuSans-31" d="M 794 531 
L 1825 531 
L 1825 4091 
L 703 3866 
L 703 4441 
L 1819 4666 
L 2450 4666 
L 2450 531 
L 3481 531 
L 3481 0 
L 794 0 
L 794 531 
z
" transform="scale(0.015625)"/>
       </defs>
       <use xlink:href="#DejaVuSans-31"/>
       <use xlink:href="#DejaVuSans-30" x="63.623047"/>
       <use xlink:href="#DejaVuSans-30" x="127.246094"/>
       <use xlink:href="#DejaVuSans-30" x="190.869141"/>
      </g>
     </g>
    </g>
    <g id="text_7">
     <!-- n -->
     <g transform="translate(232.99125 335.860562) scale(0.1 -0.1)">
      <defs>
       <path id="DejaVuSans-6e" d="M 3513 2113 
L 3513 0 
L 2938 0 
L 2938 2094 
Q 2938 2591 2744 2837 
Q 2550 3084 2163 3084 
Q 1697 3084 1428 2787 
Q 1159 2491 1159 1978 
L 1159 0 
L 581 0 
L 581 3500 
L 1159 3500 
L 1159 2956 
Q 1366 3272 1645 3428 
Q 1925 3584 2291 3584 
Q 2894 3584 3203 3211 
Q 3513 2838 3513 2113 
z
" transform="scale(0.015625)"/>
      </defs>
      <use xlink:href="#DejaVuSans-6e"/>
     </g>
    </g>
   </g>
   <g id="matplotlib.axis_2">
    <g id="ytick_1">
     <g id="line2d_7">
      <defs>
       <path id="m593212c09b" d="M 0 0 
L -3.5 0 
" style="stroke: #000000; stroke-width: 0.8"/>
      </defs>
      <g>
       <use xlink:href="#m593212c09b" x="57.6" y="306.495135" style="stroke: #000000; stroke-width: 0.8"/>
      </g>
     </g>
     <g id="text_8">
      <!-- −0.6 -->
      <g transform="translate(26.317187 310.294353) scale(0.1 -0.1)">
       <defs>
        <path id="DejaVuSans-2212" d="M 678 2272 
L 4684 2272 
L 4684 1741 
L 678 1741 
L 678 2272 
z
" transform="scale(0.015625)"/>
        <path id="DejaVuSans-2e" d="M 684 794 
L 1344 794 
L 1344 0 
L 684 0 
L 684 794 
z
" transform="scale(0.015625)"/>
       </defs>
       <use xlink:href="#DejaVuSans-2212"/>
       <use xlink:href="#DejaVuSans-30" x="83.789062"/>
       <use xlink:href="#DejaVuSans-2e" x="147.412109"/>
       <use xlink:href="#DejaVuSans-36" x="179.199219"/>
      </g>
     </g>
    </g>
    <g id="ytick_2">
     <g id="line2d_8">
      <g>
       <use xlink:href="#m593212c09b" x="57.6" y="272.263279" style="stroke: #000000; stroke-width: 0.8"/>
      </g>
     </g>
     <g id="text_9">
      <!-- −0.4 -->
      <g transform="translate(26.317187 276.062498) scale(0.1 -0.1)">
       <use xlink:href="#DejaVuSans-2212"/>
       <use xlink:href="#DejaVuSans-30" x="83.789062"/>
       <use xlink:href="#DejaVuSans-2e" x="147.412109"/>
       <use xlink:href="#DejaVuSans-34" x="179.199219"/>
      </g>
     </g>
    </g>
    <g id="ytick_3">
     <g id="line2d_9">
      <g>
       <use xlink:href="#m593212c09b" x="57.6" y="238.031424" style="stroke: #000000; stroke-width: 0.8"/>
      </g>
     </g>
     <g id="text_10">
      <!-- −0.2 -->
      <g transform="translate(26.317187 241.830643) scale(0.1 -0.1)">
       <use xlink:href="#DejaVuSans-2212"/>
       <use xlink:href="#DejaVuSans-30" x="83.789062"/>
       <use xlink:href="#DejaVuSans-2e" x="147.412109"/>
       <use xlink:href="#DejaVuSans-32" x="179.199219"/>
      </g>
     </g>
    </g>
    <g id="ytick_4">
     <g id="line2d_10">
      <g>
       <use xlink:href="#m593212c09b" x="57.6" y="203.799569" style="stroke: #000000; stroke-width: 0.8"/>
      </g>
     </g>
     <g id="text_11">
      <!-- 0.0 -->
      <g transform="translate(34.696875 207.598787) scale(0.1 -0.1)">
       <use xlink:href="#DejaVuSans-30"/>
       <use xlink:href="#DejaVuSans-2e" x="63.623047"/>
       <use xlink:href="#DejaVuSans-30" x="95.410156"/>
      </g>
     </g>
    </g>
    <g id="ytick_5">
     <g id="line2d_11">
      <g>
       <use xlink:href="#m593212c09b" x="57.6" y="169.567713" style="stroke: #000000; stroke-width: 0.8"/>
      </g>
     </g>
     <g id="text_12">
      <!-- 0.2 -->
      <g transform="translate(34.696875 173.366932) scale(0.1 -0.1)">
       <use xlink:href="#DejaVuSans-30"/>
       <use xlink:href="#DejaVuSans-2e" x="63.623047"/>
       <use xlink:href="#DejaVuSans-32" x="95.410156"/>
      </g>
     </g>
    </g>
    <g id="ytick_6">
     <g id="line2d_12">
      <g>
       <use xlink:href="#m593212c09b" x="57.6" y="135.335858" style="stroke: #000000; stroke-width: 0.8"/>
      </g>
     </g>
     <g id="text_13">
      <!-- 0.4 -->
      <g transform="translate(34.696875 139.135077) scale(0.1 -0.1)">
       <use xlink:href="#DejaVuSans-30"/>
       <use xlink:href="#DejaVuSans-2e" x="63.623047"/>
       <use xlink:href="#DejaVuSans-34" x="95.410156"/>
      </g>
     </g>
    </g>
    <g id="ytick_7">
     <g id="line2d_13">
      <g>
       <use xlink:href="#m593212c09b" x="57.6" y="101.104003" style="stroke: #000000; stroke-width: 0.8"/>
      </g>
     </g>
     <g id="text_14">
      <!-- 0.6 -->
      <g transform="translate(34.696875 104.903221) scale(0.1 -0.1)">
       <use xlink:href="#DejaVuSans-30"/>
       <use xlink:href="#DejaVuSans-2e" x="63.623047"/>
       <use xlink:href="#DejaVuSans-36" x="95.410156"/>
      </g>
     </g>
    </g>
    <g id="ytick_8">
     <g id="line2d_14">
      <g>
       <use xlink:href="#m593212c09b" x="57.6" y="66.872147" style="stroke: #000000; stroke-width: 0.8"/>
      </g>
     </g>
     <g id="text_15">
      <!-- 0.8 -->
      <g transform="translate(34.696875 70.671366) scale(0.1 -0.1)">
       <use xlink:href="#DejaVuSans-30"/>
       <use xlink:href="#DejaVuSans-2e" x="63.623047"/>
       <use xlink:href="#DejaVuSans-38" x="95.410156"/>
      </g>
     </g>
    </g>
    <g id="text_16">
     <!-- E*t -->
     <g transform="translate(20.2375 182.147531) rotate(-90) scale(0.1 -0.1)">
      <defs>
       <path id="DejaVuSans-45" d="M 628 4666 
L 3578 4666 
L 3578 4134 
L 1259 4134 
L 1259 2753 
L 3481 2753 
L 3481 2222 
L 1259 2222 
L 1259 531 
L 3634 531 
L 3634 0 
L 628 0 
L 628 4666 
z
" transform="scale(0.015625)"/>
       <path id="DejaVuSans-2a" d="M 3009 3897 
L 1888 3291 
L 3009 2681 
L 2828 2375 
L 1778 3009 
L 1778 1831 
L 1422 1831 
L 1422 3009 
L 372 2375 
L 191 2681 
L 1313 3291 
L 191 3897 
L 372 4206 
L 1422 3572 
L 1422 4750 
L 1778 4750 
L 1778 3572 
L 2828 4206 
L 3009 3897 
z
" transform="scale(0.015625)"/>
       <path id="DejaVuSans-74" d="M 1172 4494 
L 1172 3500 
L 2356 3500 
L 2356 3053 
L 1172 3053 
L 1172 1153 
Q 1172 725 1289 603 
Q 1406 481 1766 481 
L 2356 481 
L 2356 0 
L 1766 0 
Q 1100 0 847 248 
Q 594 497 594 1153 
L 594 3053 
L 172 3053 
L 172 3500 
L 594 3500 
L 594 4494 
L 1172 4494 
z
" transform="scale(0.015625)"/>
      </defs>
      <use xlink:href="#DejaVuSans-45"/>
      <use xlink:href="#DejaVuSans-2a" x="63.183594"/>
      <use xlink:href="#DejaVuSans-74" x="113.183594"/>
     </g>
    </g>
   </g>
   <g id="line2d_15">
    <path d="M 73.832727 295.488 
L 74.150083 294.277348 
L 75.102149 293.385287 
L 75.73686 292.606518 
L 76.054215 292.324235 
L 76.37157 291.670388 
L 77.323636 291.118171 
L 77.640992 290.51947 
L 77.958347 290.283926 
L 78.275702 289.806173 
L 78.910413 289.253981 
L 79.227769 288.489652 
L 80.179835 287.597815 
L 80.49719 287.025036 
L 80.814545 286.915419 
L 81.449256 286.259497 
L 81.766612 285.889379 
L 82.083967 285.776701 
L 82.718678 285.079383 
L 83.670744 284.560444 
L 84.305455 284.088847 
L 84.940165 283.683285 
L 87.161653 281.963273 
L 87.479008 281.757501 
L 87.796364 281.400262 
L 88.113719 281.326916 
L 89.38314 280.21012 
L 90.017851 279.881028 
L 90.652562 279.536395 
L 90.969917 279.135565 
L 91.604628 278.721472 
L 92.239339 278.186017 
L 92.87405 277.794345 
L 93.50876 277.492514 
L 94.460826 276.718958 
L 95.095537 276.451699 
L 97.63438 274.73336 
L 97.951736 274.710797 
L 98.586446 274.324435 
L 98.903802 274.244851 
L 99.538512 273.856785 
L 100.490579 273.325764 
L 101.76 272.564373 
L 102.077355 272.162186 
L 104.298843 271.270047 
L 104.933554 270.610393 
L 105.568264 270.303939 
L 105.88562 269.949146 
L 106.837686 269.513427 
L 107.155041 269.14305 
L 111.598017 266.870743 
L 111.915372 266.794471 
L 112.550083 266.379603 
L 112.867438 266.270267 
L 113.502149 265.872683 
L 116.040992 264.707673 
L 116.675702 264.382946 
L 116.993058 264.254988 
L 117.310413 263.998994 
L 117.627769 263.967165 
L 118.262479 263.635725 
L 118.89719 263.272355 
L 119.849256 262.498759 
L 124.292231 260.021465 
L 124.609587 259.76294 
L 124.926942 259.657705 
L 125.561653 259.160936 
L 126.196364 258.750711 
L 126.831074 258.630114 
L 127.14843 258.304413 
L 128.100496 257.907455 
L 128.417851 257.617976 
L 131.27405 256.731912 
L 132.226116 256.360593 
L 133.495537 255.978552 
L 134.447603 255.458016 
L 135.082314 255.299131 
L 136.351736 254.874356 
L 139.207934 253.719759 
L 140.477355 253.062162 
L 140.794711 252.997413 
L 141.429421 252.514164 
L 141.746777 252.430595 
L 143.333554 251.3955 
L 147.141818 249.682321 
L 148.41124 248.907813 
L 149.04595 248.544505 
L 149.363306 248.202954 
L 149.680661 248.141746 
L 150.632727 247.467158 
L 150.950083 247.373042 
L 151.902149 246.778687 
L 152.53686 246.550733 
L 155.075702 245.432044 
L 158.249256 244.225128 
L 158.566612 244.007486 
L 158.883967 243.950506 
L 159.836033 243.452438 
L 160.788099 242.913285 
L 161.42281 242.562227 
L 162.057521 242.33751 
L 162.374876 242.065118 
L 163.326942 241.704255 
L 165.231074 240.585764 
L 165.54843 240.542852 
L 165.865785 240.217009 
L 166.500496 239.940684 
L 167.452562 239.421808 
L 168.087273 239.217117 
L 168.721983 238.792486 
L 169.67405 238.284378 
L 170.943471 237.540023 
L 171.578182 237.172836 
L 172.530248 236.879858 
L 173.164959 236.663779 
L 173.799669 236.410032 
L 174.117025 236.325883 
L 174.751736 236.001134 
L 175.703802 235.613033 
L 176.338512 235.487365 
L 177.607934 234.873155 
L 181.098843 233.558838 
L 182.050909 233.294711 
L 183.002975 232.848891 
L 183.320331 232.645692 
L 183.637686 232.602235 
L 185.541818 231.629276 
L 186.493884 231.21125 
L 188.715372 230.219855 
L 189.667438 229.705967 
L 190.302149 229.366141 
L 190.619504 229.093774 
L 194.745124 227.710993 
L 195.379835 227.472654 
L 196.331901 227.180659 
L 196.966612 226.826216 
L 197.918678 226.548443 
L 198.553388 226.265703 
L 198.870744 226.238792 
L 199.188099 225.980289 
L 203.313719 224.63819 
L 203.631074 224.361577 
L 204.265785 224.17022 
L 205.852562 223.6249 
L 207.439339 223.07089 
L 207.756694 222.8862 
L 208.70876 222.640807 
L 211.564959 221.689071 
L 211.882314 221.643756 
L 212.517025 221.431962 
L 213.151736 221.273734 
L 214.421157 220.795711 
L 215.373223 220.320786 
L 216.007934 219.980594 
L 216.642645 219.784444 
L 217.912066 219.270204 
L 218.864132 218.655827 
L 222.355041 217.424862 
L 223.307107 217.123055 
L 224.259174 216.715259 
L 226.163306 216.163405 
L 227.115372 215.850597 
L 228.384793 215.507005 
L 229.33686 215.170915 
L 229.97157 214.89629 
L 231.240992 214.594982 
L 231.875702 214.422107 
L 232.510413 214.21873 
L 234.414545 213.759672 
L 242.98314 210.509766 
L 248.378182 208.638627 
L 249.012893 208.298755 
L 249.647603 208.17755 
L 249.964959 207.979172 
L 250.282314 207.918197 
L 250.599669 207.622194 
L 254.725289 205.996553 
L 255.36 205.609148 
L 255.677355 205.588447 
L 256.629421 205.133637 
L 260.120331 203.988604 
L 261.389752 203.629152 
L 261.707107 203.425613 
L 262.341818 203.240913 
L 262.976529 202.914634 
L 263.928595 202.691826 
L 264.563306 202.389515 
L 265.198017 202.271894 
L 268.688926 201.021749 
L 269.006281 200.991529 
L 269.640992 200.754604 
L 270.910413 200.244571 
L 272.179835 199.789198 
L 272.49719 199.578559 
L 273.449256 199.345016 
L 274.083967 198.953124 
L 275.036033 198.733081 
L 275.353388 198.599493 
L 275.670744 198.251704 
L 276.62281 198.065602 
L 277.574876 197.352829 
L 278.209587 197.102288 
L 281.700496 195.492629 
L 282.017851 195.465615 
L 282.969917 194.870361 
L 284.556694 194.197022 
L 285.191405 193.77568 
L 286.143471 193.398262 
L 286.460826 193.21069 
L 287.412893 192.968617 
L 287.730248 192.886961 
L 288.364959 192.547265 
L 288.999669 192.391688 
L 289.951736 191.9363 
L 290.903802 191.654346 
L 295.029421 189.805243 
L 295.664132 189.58583 
L 297.250909 189.012077 
L 297.568264 188.895359 
L 298.202975 188.489909 
L 299.789752 187.678678 
L 300.424463 187.490713 
L 301.059174 187.179243 
L 301.693884 186.942986 
L 302.01124 186.703643 
L 302.328595 186.679043 
L 302.64595 186.472724 
L 302.963306 186.099194 
L 303.915372 185.718965 
L 307.723636 183.807715 
L 309.627769 183.058096 
L 310.89719 182.26043 
L 311.214545 181.868887 
L 311.849256 181.48122 
L 313.118678 180.646836 
L 313.753388 180.329093 
L 314.388099 180.083028 
L 315.02281 179.75116 
L 315.340165 179.707286 
L 316.926942 178.865553 
L 317.561653 178.705252 
L 318.513719 178.184927 
L 320.417851 177.099592 
L 321.687273 176.216058 
L 322.004628 176.137353 
L 322.956694 175.55859 
L 323.27405 175.396634 
L 323.591405 174.922 
L 324.226116 174.577936 
L 326.130248 173.408941 
L 327.399669 172.808393 
L 327.717025 172.748954 
L 328.986446 172.061218 
L 330.255868 171.352123 
L 330.890579 170.957124 
L 331.207934 170.897569 
L 331.842645 170.457371 
L 332.794711 170.037694 
L 333.429421 169.398288 
L 333.746777 169.239261 
L 334.064132 168.857592 
L 334.698843 168.618262 
L 335.333554 168.391507 
L 335.650909 168.034042 
L 335.968264 167.953972 
L 336.602975 167.552618 
L 337.555041 167.164923 
L 338.824463 166.569638 
L 339.141818 166.539111 
L 340.728595 165.448883 
L 341.04595 165.370195 
L 341.680661 164.833463 
L 342.315372 163.852341 
L 343.267438 163.437403 
L 343.584793 163.053725 
L 343.902149 162.998814 
L 344.219504 162.534573 
L 344.53686 162.325897 
L 344.854215 162.26562 
L 345.17157 162.055845 
L 345.488926 161.707594 
L 346.440992 161.316634 
L 346.758347 160.981065 
L 347.393058 160.728306 
L 347.710413 160.653916 
L 348.345124 160.204714 
L 348.662479 160.089436 
L 349.614545 159.248662 
L 349.931901 159.197702 
L 351.518678 158.306128 
L 352.153388 157.992226 
L 352.788099 157.595406 
L 353.42281 157.436813 
L 354.057521 156.815003 
L 354.692231 156.514554 
L 355.961653 155.409461 
L 356.596364 154.444026 
L 356.913719 154.318272 
L 358.18314 153.386565 
L 359.452562 152.691652 
L 360.087273 152.415576 
L 360.721983 152.088305 
L 363.260826 150.203484 
L 363.895537 149.624149 
L 364.212893 148.894608 
L 365.164959 147.976097 
L 365.482314 147.668197 
L 366.43438 147.187073 
L 366.751736 146.816155 
L 368.021157 146.207782 
L 369.925289 144.50006 
L 370.877355 142.368378 
L 372.146777 141.117353 
L 372.464132 140.725499 
L 373.098843 140.540247 
L 373.733554 139.900091 
L 374.050909 139.627748 
L 374.368264 139.589796 
L 374.68562 138.980912 
L 375.002975 138.904325 
L 375.320331 138.528509 
L 375.955041 137.434226 
L 376.272397 137.025933 
L 376.589752 136.345244 
L 376.907107 135.985061 
L 377.224463 134.702144 
L 378.176529 133.824415 
L 378.493884 133.203482 
L 378.81124 133.055411 
L 380.080661 131.232866 
L 380.398017 130.212058 
L 381.032727 129.651134 
L 381.350083 128.942686 
L 383.254215 127.284769 
L 384.523636 126.267794 
L 384.840992 124.588646 
L 385.158347 124.350148 
L 386.427769 121.009673 
L 387.062479 119.537731 
L 387.69719 117.993099 
L 388.014545 117.263888 
L 388.966612 116.506527 
L 389.601322 115.271851 
L 389.918678 114.597863 
L 390.553388 111.557259 
L 390.870744 110.584557 
L 391.188099 109.991734 
L 391.505455 109.063711 
L 391.82281 108.616813 
L 392.140165 106.713413 
L 392.457521 105.899558 
L 392.774876 105.463988 
L 393.409587 103.960365 
L 394.044298 102.104751 
L 394.361653 99.433207 
L 394.679008 98.349928 
L 394.996364 98.123185 
L 395.313719 97.179767 
L 395.94843 96.246561 
L 396.265785 89.01541 
L 396.58314 85.988881 
L 397.217851 83.874794 
L 397.535207 71.640183 
L 397.852562 71.251345 
L 398.169917 70.453602 
L 398.487273 60.247427 
L 398.487273 60.247427 
" clip-path="url(#p1335396bae)" style="fill: none; stroke: #1f77b4; stroke-width: 1.5; stroke-linecap: square"/>
   </g>
   <g id="line2d_16">
    <path d="M 73.832727 287.165761 
L 74.150083 287.165761 
L 74.467438 286.715701 
L 74.784793 286.715701 
L 75.102149 286.100011 
L 75.419504 286.100011 
L 76.37157 285.743251 
L 76.688926 284.545821 
L 77.006281 284.545821 
L 77.323636 284.049248 
L 77.640992 284.049248 
L 77.958347 283.054311 
L 78.275702 283.054311 
L 78.593058 282.697204 
L 78.910413 281.302629 
L 79.227769 281.302629 
L 79.545124 280.953489 
L 80.49719 280.87842 
L 80.814545 279.791308 
L 81.131901 279.657161 
L 81.449256 279.657161 
L 81.766612 279.012304 
L 82.718678 278.996163 
L 83.036033 278.392354 
L 83.353388 278.392354 
L 83.670744 277.868442 
L 83.988099 277.657079 
L 84.305455 277.657079 
L 84.62281 277.422799 
L 84.940165 277.422799 
L 85.257521 277.150268 
L 85.574876 276.433556 
L 86.209587 276.354124 
L 86.526942 275.758102 
L 87.479008 275.682356 
L 87.796364 275.460888 
L 88.113719 275.460888 
L 88.431074 274.880405 
L 88.74843 274.547234 
L 89.065785 274.547234 
L 89.38314 274.233035 
L 89.700496 273.512117 
L 90.017851 273.512117 
L 90.335207 272.938454 
L 90.969917 272.848104 
L 91.287273 272.268043 
L 92.556694 272.177155 
L 92.87405 271.248538 
L 93.826116 271.13092 
L 94.143471 270.990144 
L 94.460826 270.990144 
L 94.778182 270.767345 
L 95.095537 270.767345 
L 95.412893 269.819531 
L 95.730248 269.819531 
L 96.047603 269.594872 
L 96.999669 269.552219 
L 97.951736 269.309407 
L 98.269091 269.053187 
L 98.586446 268.189372 
L 98.903802 268.189372 
L 99.221157 267.527367 
L 100.173223 267.419274 
L 100.490579 267.219299 
L 100.807934 267.219299 
L 101.125289 267.016248 
L 101.442645 267.016248 
L 102.077355 266.316978 
L 102.712066 266.305363 
L 103.029421 265.738647 
L 103.346777 265.738647 
L 103.664132 265.596622 
L 103.981488 265.596622 
L 104.616198 264.823349 
L 104.933554 264.823349 
L 105.568264 264.182766 
L 105.88562 264.182766 
L 106.202975 263.984312 
L 106.520331 263.984312 
L 106.837686 262.881451 
L 107.789752 262.809466 
L 108.107107 262.809466 
L 108.424463 262.418365 
L 109.059174 262.367601 
L 109.376529 261.963743 
L 109.693884 261.963743 
L 110.01124 261.44091 
L 110.328595 261.44091 
L 110.64595 261.097923 
L 111.280661 260.995728 
L 111.598017 260.85055 
L 112.232727 260.754738 
L 112.550083 260.583992 
L 112.867438 260.583992 
L 113.184793 259.865408 
L 114.13686 259.808656 
L 114.454215 259.422861 
L 115.406281 258.908142 
L 115.723636 258.908142 
L 116.040992 258.578345 
L 116.358347 258.578345 
L 116.675702 258.407124 
L 116.993058 258.407124 
L 117.310413 257.443242 
L 118.579835 257.404367 
L 119.849256 257.179267 
L 120.166612 256.491894 
L 120.483967 256.491894 
L 120.801322 255.850336 
L 121.118678 255.850336 
L 121.436033 255.525657 
L 121.753388 255.525657 
L 122.070744 255.402989 
L 122.388099 255.402989 
L 123.340165 254.119819 
L 123.974876 254.106406 
L 124.292231 253.963623 
L 124.926942 253.956944 
L 125.244298 253.455048 
L 125.561653 253.455048 
L 125.879008 253.001948 
L 126.196364 253.001948 
L 126.513719 252.286347 
L 127.14843 252.241695 
L 127.465785 251.392219 
L 129.052562 251.378093 
L 129.687273 250.869549 
L 131.27405 250.662319 
L 131.591405 250.302707 
L 132.226116 250.214371 
L 133.178182 250.125735 
L 133.495537 250.125735 
L 134.764959 249.44534 
L 135.399669 249.420909 
L 135.717025 249.17682 
L 136.669091 249.172792 
L 136.986446 248.809091 
L 137.303802 248.809091 
L 137.621157 248.595283 
L 137.938512 248.085963 
L 138.573223 247.928452 
L 138.890579 247.928452 
L 139.207934 247.711864 
L 139.525289 247.711864 
L 139.842645 247.443387 
L 140.16 247.443387 
L 140.477355 246.721605 
L 141.429421 246.662252 
L 141.746777 246.518973 
L 142.064132 246.138123 
L 142.381488 246.138123 
L 142.698843 245.52147 
L 143.333554 245.520733 
L 143.650909 245.367894 
L 143.968264 245.367894 
L 144.28562 245.013831 
L 144.602975 244.830031 
L 145.555041 244.744182 
L 146.189752 244.497448 
L 146.507107 244.497448 
L 146.824463 244.222415 
L 147.141818 244.222415 
L 147.776529 243.373222 
L 149.363306 243.270731 
L 149.680661 243.20049 
L 149.998017 241.185972 
L 150.315372 241.185972 
L 150.950083 240.778076 
L 151.267438 240.778076 
L 151.584793 240.420948 
L 152.219504 240.376346 
L 152.854215 240.02111 
L 153.17157 240.02111 
L 153.488926 239.638086 
L 154.440992 239.41115 
L 154.758347 239.41115 
L 155.393058 239.250266 
L 155.710413 239.250266 
L 156.027769 238.927104 
L 158.249256 238.764225 
L 158.566612 238.076951 
L 159.201322 238.067483 
L 159.518678 236.984721 
L 160.153388 236.954341 
L 160.470744 236.634486 
L 160.788099 236.629921 
L 161.105455 236.379206 
L 162.057521 236.330608 
L 162.374876 236.056444 
L 163.326942 236.003405 
L 163.644298 235.715825 
L 163.961653 235.715825 
L 164.279008 235.489586 
L 164.596364 235.489586 
L 164.913719 235.3437 
L 165.231074 234.489383 
L 165.54843 234.489383 
L 165.865785 234.01345 
L 166.500496 233.936594 
L 166.817851 233.909441 
L 167.135207 233.462008 
L 167.769917 233.36154 
L 168.087273 232.969408 
L 168.404628 232.969408 
L 169.039339 232.29156 
L 169.356694 232.29156 
L 169.67405 231.934043 
L 170.943471 231.904383 
L 171.260826 231.393085 
L 171.578182 231.246284 
L 171.895537 231.246284 
L 172.212893 230.580914 
L 172.530248 230.580914 
L 172.847603 230.070321 
L 173.799669 229.97408 
L 174.117025 229.826645 
L 174.43438 229.826645 
L 175.386446 229.427473 
L 176.021157 229.372421 
L 176.338512 229.058381 
L 177.290579 229.000479 
L 177.607934 229.000479 
L 178.242645 228.811366 
L 178.56 228.811366 
L 178.877355 228.417347 
L 179.512066 228.357682 
L 179.829421 228.200002 
L 180.146777 228.200002 
L 180.464132 227.910969 
L 180.781488 227.910969 
L 181.098843 227.568213 
L 181.733554 227.542905 
L 182.050909 226.93572 
L 182.368264 226.816702 
L 182.68562 226.816702 
L 183.002975 226.665033 
L 183.320331 226.665033 
L 183.955041 226.45256 
L 184.272397 226.45256 
L 184.589752 226.295494 
L 184.907107 226.295494 
L 185.224463 225.603206 
L 185.541818 225.603206 
L 186.176529 225.24191 
L 187.44595 225.171907 
L 188.080661 224.960297 
L 188.398017 224.538341 
L 188.715372 224.538341 
L 189.032727 224.274013 
L 189.667438 224.263843 
L 189.984793 223.841457 
L 190.302149 223.841457 
L 190.619504 222.841639 
L 190.93686 222.841639 
L 191.57157 222.67156 
L 191.888926 222.67156 
L 192.206281 221.849199 
L 193.475702 221.802503 
L 193.793058 221.620694 
L 194.110413 221.620694 
L 194.745124 221.499687 
L 196.649256 221.392902 
L 196.966612 221.212457 
L 197.601322 221.186198 
L 197.918678 220.966479 
L 198.236033 220.564837 
L 198.553388 220.564837 
L 199.188099 219.682937 
L 199.505455 219.682937 
L 199.82281 219.539512 
L 200.140165 219.539512 
L 200.457521 219.275729 
L 201.092231 219.24176 
L 201.726942 219.153936 
L 202.044298 218.758571 
L 202.996364 218.714039 
L 203.94843 218.257353 
L 205.217851 217.948686 
L 205.852562 217.920134 
L 206.169917 217.635408 
L 206.487273 217.635408 
L 206.804628 217.400195 
L 207.121983 217.400195 
L 208.07405 216.832644 
L 208.391405 216.832644 
L 209.026116 216.427918 
L 209.343471 216.427918 
L 209.660826 216.020495 
L 210.295537 215.932135 
L 210.612893 215.762182 
L 210.930248 215.762182 
L 211.247603 215.485047 
L 211.882314 215.361527 
L 212.199669 215.361527 
L 212.517025 215.065966 
L 213.469091 214.976963 
L 214.421157 214.71382 
L 214.738512 214.277057 
L 216.007934 214.176743 
L 216.325289 213.873245 
L 216.642645 213.873245 
L 216.96 213.469414 
L 217.277355 213.469414 
L 217.594711 213.28753 
L 219.181488 213.099644 
L 219.498843 212.581883 
L 219.816198 211.740513 
L 220.133554 211.488493 
L 220.450909 211.488493 
L 220.768264 211.338941 
L 221.08562 211.338941 
L 221.402975 211.141201 
L 222.672397 211.009349 
L 222.989752 210.869047 
L 223.307107 210.869047 
L 223.624463 210.505076 
L 224.576529 210.44463 
L 225.528595 210.190776 
L 225.84595 210.190776 
L 226.480661 209.840998 
L 226.798017 209.840998 
L 227.115372 209.632365 
L 227.432727 209.632365 
L 227.750083 209.309212 
L 229.019504 209.220793 
L 229.33686 209.095407 
L 229.97157 209.083196 
L 230.288926 208.855968 
L 230.606281 208.855968 
L 230.923636 208.540445 
L 231.558347 208.468018 
L 231.875702 208.310331 
L 232.510413 208.260219 
L 232.827769 208.019154 
L 233.145124 208.019154 
L 233.779835 207.905732 
L 234.414545 207.893974 
L 234.731901 207.423598 
L 235.683967 207.390658 
L 236.001322 207.056748 
L 236.636033 207.034634 
L 236.953388 206.682358 
L 237.270744 206.544389 
L 238.22281 206.487558 
L 238.540165 205.71382 
L 239.174876 205.59687 
L 239.809587 205.50288 
L 240.444298 205.43751 
L 240.761653 205.169351 
L 241.079008 205.169351 
L 241.396364 204.869569 
L 242.665785 204.651549 
L 243.300496 204.28728 
L 245.204628 204.09018 
L 245.521983 203.794103 
L 246.156694 203.678105 
L 246.47405 203.655033 
L 246.791405 203.037651 
L 247.10876 202.731773 
L 247.426116 202.731773 
L 247.743471 202.57599 
L 248.060826 202.57599 
L 248.378182 202.308913 
L 249.330248 202.043516 
L 249.647603 202.043516 
L 249.964959 201.832594 
L 251.23438 201.77082 
L 252.821157 201.006188 
L 253.138512 200.574805 
L 253.455868 200.574805 
L 254.090579 200.369974 
L 254.407934 200.369974 
L 254.725289 200.159136 
L 255.36 199.214538 
L 256.312066 199.144287 
L 256.629421 198.847468 
L 257.581488 198.810002 
L 258.533554 198.514723 
L 258.850909 198.514723 
L 259.48562 198.171765 
L 259.802975 198.045031 
L 260.120331 198.045031 
L 260.437686 197.622217 
L 260.755041 197.622217 
L 262.024463 197.121116 
L 262.976529 197.080083 
L 263.293884 196.667025 
L 263.928595 196.664941 
L 264.24595 196.416916 
L 264.880661 196.410978 
L 265.198017 196.232199 
L 266.467438 196.136258 
L 266.784793 195.973 
L 267.102149 195.603964 
L 268.054215 195.493215 
L 268.37157 195.086601 
L 268.688926 195.086601 
L 269.323636 194.663472 
L 269.640992 194.473335 
L 270.593058 194.387899 
L 270.910413 194.339084 
L 271.227769 194.001744 
L 272.179835 193.903863 
L 272.49719 193.488743 
L 273.449256 193.470643 
L 273.766612 193.192967 
L 274.718678 192.958093 
L 275.353388 192.879298 
L 275.670744 191.809112 
L 276.62281 191.700471 
L 277.574876 191.448828 
L 277.892231 191.448828 
L 278.844298 190.768766 
L 279.161653 190.768766 
L 279.479008 190.582625 
L 279.796364 190.582625 
L 280.113719 189.83787 
L 280.74843 189.781959 
L 281.065785 189.646092 
L 281.700496 189.53864 
L 282.335207 189.517976 
L 282.969917 188.925654 
L 283.287273 188.925654 
L 283.604628 188.764758 
L 284.239339 188.702786 
L 284.556694 187.511508 
L 285.191405 187.406701 
L 286.143471 187.302549 
L 286.460826 187.015817 
L 286.778182 187.015817 
L 287.095537 186.888456 
L 287.412893 186.403962 
L 288.682314 186.333529 
L 288.999669 186.151256 
L 289.317025 186.151256 
L 289.951736 185.619541 
L 291.221157 185.564678 
L 291.538512 185.32857 
L 291.855868 185.32857 
L 292.173223 185.120528 
L 292.490579 185.120528 
L 292.807934 184.957178 
L 293.125289 184.957178 
L 293.442645 184.768775 
L 293.76 184.768775 
L 294.077355 184.470186 
L 295.029421 184.311869 
L 295.346777 183.73491 
L 295.981488 183.708654 
L 296.298843 183.198751 
L 297.250909 182.901188 
L 297.568264 182.188968 
L 297.88562 182.188968 
L 298.202975 181.937115 
L 298.520331 181.937115 
L 298.837686 181.817525 
L 299.155041 181.817525 
L 299.472397 181.64122 
L 300.107107 181.615721 
L 300.424463 181.238191 
L 301.059174 181.152722 
L 302.01124 181.004361 
L 302.328595 180.323924 
L 302.963306 179.9869 
L 303.280661 179.9869 
L 303.598017 179.670983 
L 303.915372 179.076997 
L 304.232727 179.076997 
L 304.550083 178.756721 
L 304.867438 178.756721 
L 305.184793 178.257629 
L 305.502149 178.257629 
L 305.819504 178.129467 
L 306.454215 178.021603 
L 307.088926 177.90785 
L 308.040992 177.845935 
L 308.358347 177.602443 
L 308.675702 177.602443 
L 308.993058 177.462733 
L 309.627769 177.443796 
L 309.945124 177.277333 
L 310.262479 176.216919 
L 310.579835 176.023735 
L 311.531901 175.935472 
L 311.849256 175.40555 
L 312.166612 175.40555 
L 312.801322 174.168262 
L 314.070744 174.107535 
L 314.388099 173.628158 
L 315.02281 173.618597 
L 315.340165 173.413228 
L 316.609587 173.297893 
L 316.926942 172.982805 
L 317.561653 172.864733 
L 317.879008 172.501764 
L 318.831074 172.413539 
L 319.465785 171.189429 
L 319.78314 171.189429 
L 320.417851 170.385757 
L 320.735207 170.220915 
L 321.687273 170.206018 
L 322.004628 169.967255 
L 322.321983 169.1837 
L 322.639339 169.1837 
L 322.956694 168.790548 
L 323.591405 168.723823 
L 324.226116 167.909448 
L 324.543471 167.909448 
L 324.860826 167.72709 
L 325.178182 167.72709 
L 325.495537 167.473928 
L 325.812893 167.473928 
L 326.130248 167.251573 
L 326.447603 166.759964 
L 327.399669 166.670077 
L 328.351736 166.544057 
L 328.669091 165.996756 
L 328.986446 165.748295 
L 329.621157 165.726667 
L 329.938512 165.443575 
L 330.255868 165.443575 
L 330.573223 165.212892 
L 330.890579 165.212892 
L 331.207934 164.909995 
L 332.16 164.64804 
L 332.477355 163.984733 
L 333.112066 163.890765 
L 333.429421 163.406158 
L 333.746777 163.406158 
L 334.064132 162.261549 
L 334.381488 161.988448 
L 336.28562 161.82475 
L 336.602975 161.641769 
L 336.920331 161.319022 
L 337.237686 161.319022 
L 337.555041 161.173058 
L 337.872397 160.774518 
L 338.507107 160.704761 
L 339.141818 160.691896 
L 339.459174 160.280856 
L 339.776529 160.280856 
L 340.093884 160.112835 
L 340.41124 159.703395 
L 340.728595 159.703395 
L 341.04595 159.497045 
L 341.363306 159.497045 
L 341.680661 157.844965 
L 341.998017 157.568511 
L 342.315372 157.568511 
L 342.632727 156.987855 
L 342.950083 156.987855 
L 343.267438 156.740901 
L 345.17157 156.249871 
L 345.488926 155.715591 
L 345.806281 155.715591 
L 346.123636 155.192938 
L 346.440992 155.010881 
L 346.758347 155.010881 
L 347.393058 154.253823 
L 348.345124 154.170937 
L 348.662479 154.029155 
L 348.979835 154.029155 
L 349.29719 153.002514 
L 349.614545 153.002514 
L 352.470744 151.925784 
L 352.788099 151.366788 
L 353.42281 151.353792 
L 353.740165 151.191438 
L 354.057521 151.191438 
L 354.374876 150.709634 
L 354.692231 150.709634 
L 355.009587 149.712882 
L 355.644298 149.60945 
L 355.961653 149.490998 
L 356.279008 148.656686 
L 356.596364 148.656686 
L 356.913719 147.526537 
L 357.54843 147.445114 
L 357.865785 147.060009 
L 358.18314 147.060009 
L 358.500496 146.539122 
L 358.817851 146.539122 
L 359.135207 146.248604 
L 359.452562 146.110603 
L 359.769917 145.796265 
L 360.087273 145.642 
L 360.404628 145.642 
L 360.721983 145.322152 
L 361.039339 145.322152 
L 361.356694 145.12843 
L 362.626116 145.034102 
L 363.260826 143.801793 
L 363.578182 143.801793 
L 364.212893 143.118997 
L 364.530248 143.118997 
L 365.164959 141.697197 
L 365.482314 141.278801 
L 365.799669 141.278801 
L 366.117025 140.9401 
L 366.43438 140.805294 
L 366.751736 140.805294 
L 367.069091 140.641695 
L 367.386446 140.641695 
L 367.703802 140.083351 
L 368.973223 139.880409 
L 369.290579 139.279822 
L 369.607934 139.279822 
L 369.925289 138.62051 
L 370.242645 137.078129 
L 370.56 136.229096 
L 370.877355 136.229096 
L 371.194711 135.176919 
L 371.829421 135.110273 
L 372.146777 134.787238 
L 372.781488 134.717408 
L 373.098843 134.545478 
L 373.416198 133.798945 
L 373.733554 133.760516 
L 374.050909 133.53566 
L 374.368264 133.53566 
L 374.68562 132.743037 
L 375.002975 132.743037 
L 375.637686 131.655499 
L 375.955041 131.655499 
L 376.272397 130.857531 
L 376.589752 130.857531 
L 376.907107 130.141418 
L 377.224463 127.873979 
L 377.541818 127.873979 
L 379.128595 127.291246 
L 379.44595 126.69387 
L 379.763306 124.676828 
L 380.080661 124.01742 
L 380.398017 124.01742 
L 380.715372 123.520847 
L 381.032727 122.272865 
L 381.350083 122.272865 
L 382.302149 122.052677 
L 382.93686 122.00283 
L 383.254215 121.224962 
L 383.888926 120.555559 
L 384.206281 120.555559 
L 384.523636 119.171348 
L 384.840992 119.171348 
L 385.158347 117.509027 
L 385.475702 117.509027 
L 385.793058 116.686616 
L 386.110413 114.960095 
L 386.427769 114.101438 
L 386.745124 114.101438 
L 387.062479 113.895349 
L 387.379835 111.932113 
L 387.69719 111.002071 
L 388.014545 111.002071 
L 388.331901 110.818662 
L 388.649256 109.853897 
L 388.966612 109.396125 
L 389.918678 109.327857 
L 390.553388 104.126 
L 390.870744 104.126 
L 391.188099 103.905089 
L 391.82281 101.196735 
L 392.140165 101.196735 
L 392.457521 99.36396 
L 392.774876 98.965008 
L 393.092231 98.965008 
L 393.409587 97.503026 
L 393.726942 97.503026 
L 394.044298 96.102806 
L 394.361653 92.583753 
L 394.679008 91.574868 
L 394.996364 91.574868 
L 395.313719 90.967185 
L 395.631074 90.71513 
L 395.94843 90.71513 
L 396.265785 82.914389 
L 396.58314 79.503799 
L 396.900496 78.208496 
L 397.217851 78.208496 
L 397.535207 64.852839 
L 397.852562 64.556918 
L 398.169917 64.556918 
L 398.487273 53.568 
L 398.487273 53.568 
" clip-path="url(#p1335396bae)" style="fill: none; stroke: #ff7f0e; stroke-width: 1.5; stroke-linecap: square"/>
   </g>
   <g id="patch_3">
    <path d="M 57.6 307.584 
L 57.6 41.472 
" style="fill: none; stroke: #000000; stroke-width: 0.8; stroke-linejoin: miter; stroke-linecap: square"/>
   </g>
   <g id="patch_4">
    <path d="M 414.72 307.584 
L 414.72 41.472 
" style="fill: none; stroke: #000000; stroke-width: 0.8; stroke-linejoin: miter; stroke-linecap: square"/>
   </g>
   <g id="patch_5">
    <path d="M 57.6 307.584 
L 414.72 307.584 
" style="fill: none; stroke: #000000; stroke-width: 0.8; stroke-linejoin: miter; stroke-linecap: square"/>
   </g>
   <g id="patch_6">
    <path d="M 57.6 41.472 
L 414.72 41.472 
" style="fill: none; stroke: #000000; stroke-width: 0.8; stroke-linejoin: miter; stroke-linecap: square"/>
   </g>
   <g id="legend_1">
    <g id="patch_7">
     <path d="M 64.6 78.82825 
L 129.342187 78.82825 
Q 131.342187 78.82825 131.342187 76.82825 
L 131.342187 48.472 
Q 131.342187 46.472 129.342187 46.472 
L 64.6 46.472 
Q 62.6 46.472 62.6 48.472 
L 62.6 76.82825 
Q 62.6 78.82825 64.6 78.82825 
z
" style="fill: #ffffff; opacity: 0.8; stroke: #cccccc; stroke-linejoin: miter"/>
    </g>
    <g id="line2d_17">
     <path d="M 66.6 54.570437 
L 76.6 54.570437 
L 86.6 54.570437 
" style="fill: none; stroke: #1f77b4; stroke-width: 1.5; stroke-linecap: square"/>
    </g>
    <g id="text_17">
     <!-- qc -->
     <g transform="translate(94.6 58.070437) scale(0.1 -0.1)">
      <defs>
       <path id="DejaVuSans-71" d="M 947 1747 
Q 947 1113 1208 752 
Q 1469 391 1925 391 
Q 2381 391 2643 752 
Q 2906 1113 2906 1747 
Q 2906 2381 2643 2742 
Q 2381 3103 1925 3103 
Q 1469 3103 1208 2742 
Q 947 2381 947 1747 
z
M 2906 525 
Q 2725 213 2448 61 
Q 2172 -91 1784 -91 
Q 1150 -91 751 415 
Q 353 922 353 1747 
Q 353 2572 751 3078 
Q 1150 3584 1784 3584 
Q 2172 3584 2448 3432 
Q 2725 3281 2906 2969 
L 2906 3500 
L 3481 3500 
L 3481 -1331 
L 2906 -1331 
L 2906 525 
z
" transform="scale(0.015625)"/>
       <path id="DejaVuSans-63" d="M 3122 3366 
L 3122 2828 
Q 2878 2963 2633 3030 
Q 2388 3097 2138 3097 
Q 1578 3097 1268 2742 
Q 959 2388 959 1747 
Q 959 1106 1268 751 
Q 1578 397 2138 397 
Q 2388 397 2633 464 
Q 2878 531 3122 666 
L 3122 134 
Q 2881 22 2623 -34 
Q 2366 -91 2075 -91 
Q 1284 -91 818 406 
Q 353 903 353 1747 
Q 353 2603 823 3093 
Q 1294 3584 2113 3584 
Q 2378 3584 2631 3529 
Q 2884 3475 3122 3366 
z
" transform="scale(0.015625)"/>
      </defs>
      <use xlink:href="#DejaVuSans-71"/>
      <use xlink:href="#DejaVuSans-63" x="63.476562"/>
     </g>
    </g>
    <g id="line2d_18">
     <path d="M 66.6 69.248562 
L 76.6 69.248562 
L 86.6 69.248562 
" style="fill: none; stroke: #ff7f0e; stroke-width: 1.5; stroke-linecap: square"/>
    </g>
    <g id="text_18">
     <!-- Trotter -->
     <g transform="translate(94.6 72.748562) scale(0.1 -0.1)">
      <defs>
       <path id="DejaVuSans-54" d="M -19 4666 
L 3928 4666 
L 3928 4134 
L 2272 4134 
L 2272 0 
L 1638 0 
L 1638 4134 
L -19 4134 
L -19 4666 
z
" transform="scale(0.015625)"/>
       <path id="DejaVuSans-72" d="M 2631 2963 
Q 2534 3019 2420 3045 
Q 2306 3072 2169 3072 
Q 1681 3072 1420 2755 
Q 1159 2438 1159 1844 
L 1159 0 
L 581 0 
L 581 3500 
L 1159 3500 
L 1159 2956 
Q 1341 3275 1631 3429 
Q 1922 3584 2338 3584 
Q 2397 3584 2469 3576 
Q 2541 3569 2628 3553 
L 2631 2963 
z
" transform="scale(0.015625)"/>
       <path id="DejaVuSans-6f" d="M 1959 3097 
Q 1497 3097 1228 2736 
Q 959 2375 959 1747 
Q 959 1119 1226 758 
Q 1494 397 1959 397 
Q 2419 397 2687 759 
Q 2956 1122 2956 1747 
Q 2956 2369 2687 2733 
Q 2419 3097 1959 3097 
z
M 1959 3584 
Q 2709 3584 3137 3096 
Q 3566 2609 3566 1747 
Q 3566 888 3137 398 
Q 2709 -91 1959 -91 
Q 1206 -91 779 398 
Q 353 888 353 1747 
Q 353 2609 779 3096 
Q 1206 3584 1959 3584 
z
" transform="scale(0.015625)"/>
       <path id="DejaVuSans-65" d="M 3597 1894 
L 3597 1613 
L 953 1613 
Q 991 1019 1311 708 
Q 1631 397 2203 397 
Q 2534 397 2845 478 
Q 3156 559 3463 722 
L 3463 178 
Q 3153 47 2828 -22 
Q 2503 -91 2169 -91 
Q 1331 -91 842 396 
Q 353 884 353 1716 
Q 353 2575 817 3079 
Q 1281 3584 2069 3584 
Q 2775 3584 3186 3129 
Q 3597 2675 3597 1894 
z
M 3022 2063 
Q 3016 2534 2758 2815 
Q 2500 3097 2075 3097 
Q 1594 3097 1305 2825 
Q 1016 2553 972 2059 
L 3022 2063 
z
" transform="scale(0.015625)"/>
      </defs>
      <use xlink:href="#DejaVuSans-54"/>
      <use xlink:href="#DejaVuSans-72" x="46.333984"/>
      <use xlink:href="#DejaVuSans-6f" x="85.197266"/>
      <use xlink:href="#DejaVuSans-74" x="146.378906"/>
      <use xlink:href="#DejaVuSans-74" x="185.587891"/>
      <use xlink:href="#DejaVuSans-65" x="224.796875"/>
      <use xlink:href="#DejaVuSans-72" x="286.320312"/>
     </g>
    </g>
   </g>
  </g>
 </g>
 <defs>
  <clipPath id="p1335396bae">
   <rect x="57.6" y="41.472" width="357.12" height="266.112"/>
  </clipPath>
 </defs>
</svg>
