<?xml version="1.0" encoding="utf-8" standalone="no"?>
<!DOCTYPE svg PUBLIC "-//W3C//DTD SVG 1.1//EN"
  "http://www.w3.org/Graphics/SVG/1.1/DTD/svg11.dtd">
<svg xmlns:xlink="http://www.w3.org/1999/xlink" width="460.8pt" height="345.6pt" viewBox="0 0 460.8 345.6" xmlns="http://www.w3.org/2000/svg" version="1.1">
 <metadata>
  <rdf:RDF xmlns:dc="http://purl.org/dc/elements/1.1/" xmlns:cc="http://creativecommons.org/ns#" xmlns:rdf="http://www.w3.org/1999/02/22-rdf-syntax-ns#">
   <cc:Work>
    <dc:type rdf:resource="http://purl.org/dc/dcmitype/StillImage"/>
    <dc:date>2024-07-14T11:04:18.649855</dc:date>
    <dc:format>image/svg+xml</dc:format>
    <dc:creator>
     <cc:Agent>
      <dc:title>Matplotlib v3.7.1, https://matplotlib.org/</dc:title>
     </cc:Agent>
    </dc:creator>
   </cc:Work>
  </rdf:RDF>
 </metadata>
 <defs>
  <style type="text/css">*{stroke-linejoin: round; stroke-linecap: butt}</style>
 </defs>
 <g id="figure_1">
  <g id="patch_1">
   <path d="M 0 345.6 
L 460.8 345.6 
L 460.8 0 
L 0 0 
z
" style="fill: #ffffff"/>
  </g>
  <g id="axes_1">
   <g id="patch_2">
    <path d="M 57.6 307.584 
L 414.72 307.584 
L 414.72 41.472 
L 57.6 41.472 
z
" style="fill: #ffffff"/>
   </g>
   <g id="matplotlib.axis_1">
    <g id="xtick_1">
     <g id="line2d_1">
      <defs>
       <path id="m12cf9f763d" d="M 0 0 
L 0 3.5 
" style="stroke: #000000; stroke-width: 0.8"/>
      </defs>
      <g>
       <use xlink:href="#m12cf9f763d" x="73.832727" y="307.584" style="stroke: #000000; stroke-width: 0.8"/>
      </g>
     </g>
     <g id="text_1">
      <!-- 0 -->
      <g transform="translate(70.651477 322.182437) scale(0.1 -0.1)">
       <defs>
        <path id="DejaVuSans-30" d="M 2034 4250 
Q 1547 4250 1301 3770 
Q 1056 3291 1056 2328 
Q 1056 1369 1301 889 
Q 1547 409 2034 409 
Q 2525 409 2770 889 
Q 3016 1369 3016 2328 
Q 3016 3291 2770 3770 
Q 2525 4250 2034 4250 
z
M 2034 4750 
Q 2819 4750 3233 4129 
Q 3647 3509 3647 2328 
Q 3647 1150 3233 529 
Q 2819 -91 2034 -91 
Q 1250 -91 836 529 
Q 422 1150 422 2328 
Q 422 3509 836 4129 
Q 1250 4750 2034 4750 
z
" transform="scale(0.015625)"/>
       </defs>
       <use xlink:href="#DejaVuSans-30"/>
      </g>
     </g>
    </g>
    <g id="xtick_2">
     <g id="line2d_2">
      <g>
       <use xlink:href="#m12cf9f763d" x="137.303802" y="307.584" style="stroke: #000000; stroke-width: 0.8"/>
      </g>
     </g>
     <g id="text_2">
      <!-- 200 -->
      <g transform="translate(127.760052 322.182437) scale(0.1 -0.1)">
       <defs>
        <path id="DejaVuSans-32" d="M 1228 531 
L 3431 531 
L 3431 0 
L 469 0 
L 469 531 
Q 828 903 1448 1529 
Q 2069 2156 2228 2338 
Q 2531 2678 2651 2914 
Q 2772 3150 2772 3378 
Q 2772 3750 2511 3984 
Q 2250 4219 1831 4219 
Q 1534 4219 1204 4116 
Q 875 4013 500 3803 
L 500 4441 
Q 881 4594 1212 4672 
Q 1544 4750 1819 4750 
Q 2544 4750 2975 4387 
Q 3406 4025 3406 3419 
Q 3406 3131 3298 2873 
Q 3191 2616 2906 2266 
Q 2828 2175 2409 1742 
Q 1991 1309 1228 531 
z
" transform="scale(0.015625)"/>
       </defs>
       <use xlink:href="#DejaVuSans-32"/>
       <use xlink:href="#DejaVuSans-30" x="63.623047"/>
       <use xlink:href="#DejaVuSans-30" x="127.246094"/>
      </g>
     </g>
    </g>
    <g id="xtick_3">
     <g id="line2d_3">
      <g>
       <use xlink:href="#m12cf9f763d" x="200.774876" y="307.584" style="stroke: #000000; stroke-width: 0.8"/>
      </g>
     </g>
     <g id="text_3">
      <!-- 400 -->
      <g transform="translate(191.231126 322.182437) scale(0.1 -0.1)">
       <defs>
        <path id="DejaVuSans-34" d="M 2419 4116 
L 825 1625 
L 2419 1625 
L 2419 4116 
z
M 2253 4666 
L 3047 4666 
L 3047 1625 
L 3713 1625 
L 3713 1100 
L 3047 1100 
L 3047 0 
L 2419 0 
L 2419 1100 
L 313 1100 
L 313 1709 
L 2253 4666 
z
" transform="scale(0.015625)"/>
       </defs>
       <use xlink:href="#DejaVuSans-34"/>
       <use xlink:href="#DejaVuSans-30" x="63.623047"/>
       <use xlink:href="#DejaVuSans-30" x="127.246094"/>
      </g>
     </g>
    </g>
    <g id="xtick_4">
     <g id="line2d_4">
      <g>
       <use xlink:href="#m12cf9f763d" x="264.24595" y="307.584" style="stroke: #000000; stroke-width: 0.8"/>
      </g>
     </g>
     <g id="text_4">
      <!-- 600 -->
      <g transform="translate(254.7022 322.182437) scale(0.1 -0.1)">
       <defs>
        <path id="DejaVuSans-36" d="M 2113 2584 
Q 1688 2584 1439 2293 
Q 1191 2003 1191 1497 
Q 1191 994 1439 701 
Q 1688 409 2113 409 
Q 2538 409 2786 701 
Q 3034 994 3034 1497 
Q 3034 2003 2786 2293 
Q 2538 2584 2113 2584 
z
M 3366 4563 
L 3366 3988 
Q 3128 4100 2886 4159 
Q 2644 4219 2406 4219 
Q 1781 4219 1451 3797 
Q 1122 3375 1075 2522 
Q 1259 2794 1537 2939 
Q 1816 3084 2150 3084 
Q 2853 3084 3261 2657 
Q 3669 2231 3669 1497 
Q 3669 778 3244 343 
Q 2819 -91 2113 -91 
Q 1303 -91 875 529 
Q 447 1150 447 2328 
Q 447 3434 972 4092 
Q 1497 4750 2381 4750 
Q 2619 4750 2861 4703 
Q 3103 4656 3366 4563 
z
" transform="scale(0.015625)"/>
       </defs>
       <use xlink:href="#DejaVuSans-36"/>
       <use xlink:href="#DejaVuSans-30" x="63.623047"/>
       <use xlink:href="#DejaVuSans-30" x="127.246094"/>
      </g>
     </g>
    </g>
    <g id="xtick_5">
     <g id="line2d_5">
      <g>
       <use xlink:href="#m12cf9f763d" x="327.717025" y="307.584" style="stroke: #000000; stroke-width: 0.8"/>
      </g>
     </g>
     <g id="text_5">
      <!-- 800 -->
      <g transform="translate(318.173275 322.182437) scale(0.1 -0.1)">
       <defs>
        <path id="DejaVuSans-38" d="M 2034 2216 
Q 1584 2216 1326 1975 
Q 1069 1734 1069 1313 
Q 1069 891 1326 650 
Q 1584 409 2034 409 
Q 2484 409 2743 651 
Q 3003 894 3003 1313 
Q 3003 1734 2745 1975 
Q 2488 2216 2034 2216 
z
M 1403 2484 
Q 997 2584 770 2862 
Q 544 3141 544 3541 
Q 544 4100 942 4425 
Q 1341 4750 2034 4750 
Q 2731 4750 3128 4425 
Q 3525 4100 3525 3541 
Q 3525 3141 3298 2862 
Q 3072 2584 2669 2484 
Q 3125 2378 3379 2068 
Q 3634 1759 3634 1313 
Q 3634 634 3220 271 
Q 2806 -91 2034 -91 
Q 1263 -91 848 271 
Q 434 634 434 1313 
Q 434 1759 690 2068 
Q 947 2378 1403 2484 
z
M 1172 3481 
Q 1172 3119 1398 2916 
Q 1625 2713 2034 2713 
Q 2441 2713 2670 2916 
Q 2900 3119 2900 3481 
Q 2900 3844 2670 4047 
Q 2441 4250 2034 4250 
Q 1625 4250 1398 4047 
Q 1172 3844 1172 3481 
z
" transform="scale(0.015625)"/>
       </defs>
       <use xlink:href="#DejaVuSans-38"/>
       <use xlink:href="#DejaVuSans-30" x="63.623047"/>
       <use xlink:href="#DejaVuSans-30" x="127.246094"/>
      </g>
     </g>
    </g>
    <g id="xtick_6">
     <g id="line2d_6">
      <g>
       <use xlink:href="#m12cf9f763d" x="391.188099" y="307.584" style="stroke: #000000; stroke-width: 0.8"/>
      </g>
     </g>
     <g id="text_6">
      <!-- 1000 -->
      <g transform="translate(378.463099 322.182437) scale(0.1 -0.1)">
       <defs>
        <path id="DejaVuSans-31" d="M 794 531 
L 1825 531 
L 1825 4091 
L 703 3866 
L 703 4441 
L 1819 4666 
L 2450 4666 
L 2450 531 
L 3481 531 
L 3481 0 
L 794 0 
L 794 531 
z
" transform="scale(0.015625)"/>
       </defs>
       <use xlink:href="#DejaVuSans-31"/>
       <use xlink:href="#DejaVuSans-30" x="63.623047"/>
       <use xlink:href="#DejaVuSans-30" x="127.246094"/>
       <use xlink:href="#DejaVuSans-30" x="190.869141"/>
      </g>
     </g>
    </g>
    <g id="text_7">
     <!-- n -->
     <g transform="translate(232.99125 335.860562) scale(0.1 -0.1)">
      <defs>
       <path id="DejaVuSans-6e" d="M 3513 2113 
L 3513 0 
L 2938 0 
L 2938 2094 
Q 2938 2591 2744 2837 
Q 2550 3084 2163 3084 
Q 1697 3084 1428 2787 
Q 1159 2491 1159 1978 
L 1159 0 
L 581 0 
L 581 3500 
L 1159 3500 
L 1159 2956 
Q 1366 3272 1645 3428 
Q 1925 3584 2291 3584 
Q 2894 3584 3203 3211 
Q 3513 2838 3513 2113 
z
" transform="scale(0.015625)"/>
      </defs>
      <use xlink:href="#DejaVuSans-6e"/>
     </g>
    </g>
   </g>
   <g id="matplotlib.axis_2">
    <g id="ytick_1">
     <g id="line2d_7">
      <defs>
       <path id="m71d511e7f3" d="M 0 0 
L -3.5 0 
" style="stroke: #000000; stroke-width: 0.8"/>
      </defs>
      <g>
       <use xlink:href="#m71d511e7f3" x="57.6" y="307.529514" style="stroke: #000000; stroke-width: 0.8"/>
      </g>
     </g>
     <g id="text_8">
      <!-- −0.8 -->
      <g transform="translate(26.317187 311.328733) scale(0.1 -0.1)">
       <defs>
        <path id="DejaVuSans-2212" d="M 678 2272 
L 4684 2272 
L 4684 1741 
L 678 1741 
L 678 2272 
z
" transform="scale(0.015625)"/>
        <path id="DejaVuSans-2e" d="M 684 794 
L 1344 794 
L 1344 0 
L 684 0 
L 684 794 
z
" transform="scale(0.015625)"/>
       </defs>
       <use xlink:href="#DejaVuSans-2212"/>
       <use xlink:href="#DejaVuSans-30" x="83.789062"/>
       <use xlink:href="#DejaVuSans-2e" x="147.412109"/>
       <use xlink:href="#DejaVuSans-38" x="179.199219"/>
      </g>
     </g>
    </g>
    <g id="ytick_2">
     <g id="line2d_8">
      <g>
       <use xlink:href="#m71d511e7f3" x="57.6" y="273.90432" style="stroke: #000000; stroke-width: 0.8"/>
      </g>
     </g>
     <g id="text_9">
      <!-- −0.6 -->
      <g transform="translate(26.317187 277.703539) scale(0.1 -0.1)">
       <use xlink:href="#DejaVuSans-2212"/>
       <use xlink:href="#DejaVuSans-30" x="83.789062"/>
       <use xlink:href="#DejaVuSans-2e" x="147.412109"/>
       <use xlink:href="#DejaVuSans-36" x="179.199219"/>
      </g>
     </g>
    </g>
    <g id="ytick_3">
     <g id="line2d_9">
      <g>
       <use xlink:href="#m71d511e7f3" x="57.6" y="240.279126" style="stroke: #000000; stroke-width: 0.8"/>
      </g>
     </g>
     <g id="text_10">
      <!-- −0.4 -->
      <g transform="translate(26.317187 244.078345) scale(0.1 -0.1)">
       <use xlink:href="#DejaVuSans-2212"/>
       <use xlink:href="#DejaVuSans-30" x="83.789062"/>
       <use xlink:href="#DejaVuSans-2e" x="147.412109"/>
       <use xlink:href="#DejaVuSans-34" x="179.199219"/>
      </g>
     </g>
    </g>
    <g id="ytick_4">
     <g id="line2d_10">
      <g>
       <use xlink:href="#m71d511e7f3" x="57.6" y="206.653932" style="stroke: #000000; stroke-width: 0.8"/>
      </g>
     </g>
     <g id="text_11">
      <!-- −0.2 -->
      <g transform="translate(26.317187 210.453151) scale(0.1 -0.1)">
       <use xlink:href="#DejaVuSans-2212"/>
       <use xlink:href="#DejaVuSans-30" x="83.789062"/>
       <use xlink:href="#DejaVuSans-2e" x="147.412109"/>
       <use xlink:href="#DejaVuSans-32" x="179.199219"/>
      </g>
     </g>
    </g>
    <g id="ytick_5">
     <g id="line2d_11">
      <g>
       <use xlink:href="#m71d511e7f3" x="57.6" y="173.028738" style="stroke: #000000; stroke-width: 0.8"/>
      </g>
     </g>
     <g id="text_12">
      <!-- 0.0 -->
      <g transform="translate(34.696875 176.827956) scale(0.1 -0.1)">
       <use xlink:href="#DejaVuSans-30"/>
       <use xlink:href="#DejaVuSans-2e" x="63.623047"/>
       <use xlink:href="#DejaVuSans-30" x="95.410156"/>
      </g>
     </g>
    </g>
    <g id="ytick_6">
     <g id="line2d_12">
      <g>
       <use xlink:href="#m71d511e7f3" x="57.6" y="139.403543" style="stroke: #000000; stroke-width: 0.8"/>
      </g>
     </g>
     <g id="text_13">
      <!-- 0.2 -->
      <g transform="translate(34.696875 143.202762) scale(0.1 -0.1)">
       <use xlink:href="#DejaVuSans-30"/>
       <use xlink:href="#DejaVuSans-2e" x="63.623047"/>
       <use xlink:href="#DejaVuSans-32" x="95.410156"/>
      </g>
     </g>
    </g>
    <g id="ytick_7">
     <g id="line2d_13">
      <g>
       <use xlink:href="#m71d511e7f3" x="57.6" y="105.778349" style="stroke: #000000; stroke-width: 0.8"/>
      </g>
     </g>
     <g id="text_14">
      <!-- 0.4 -->
      <g transform="translate(34.696875 109.577568) scale(0.1 -0.1)">
       <use xlink:href="#DejaVuSans-30"/>
       <use xlink:href="#DejaVuSans-2e" x="63.623047"/>
       <use xlink:href="#DejaVuSans-34" x="95.410156"/>
      </g>
     </g>
    </g>
    <g id="ytick_8">
     <g id="line2d_14">
      <g>
       <use xlink:href="#m71d511e7f3" x="57.6" y="72.153155" style="stroke: #000000; stroke-width: 0.8"/>
      </g>
     </g>
     <g id="text_15">
      <!-- 0.6 -->
      <g transform="translate(34.696875 75.952374) scale(0.1 -0.1)">
       <use xlink:href="#DejaVuSans-30"/>
       <use xlink:href="#DejaVuSans-2e" x="63.623047"/>
       <use xlink:href="#DejaVuSans-36" x="95.410156"/>
      </g>
     </g>
    </g>
    <g id="text_16">
     <!-- E*t -->
     <g transform="translate(20.2375 182.147531) rotate(-90) scale(0.1 -0.1)">
      <defs>
       <path id="DejaVuSans-45" d="M 628 4666 
L 3578 4666 
L 3578 4134 
L 1259 4134 
L 1259 2753 
L 3481 2753 
L 3481 2222 
L 1259 2222 
L 1259 531 
L 3634 531 
L 3634 0 
L 628 0 
L 628 4666 
z
" transform="scale(0.015625)"/>
       <path id="DejaVuSans-2a" d="M 3009 3897 
L 1888 3291 
L 3009 2681 
L 2828 2375 
L 1778 3009 
L 1778 1831 
L 1422 1831 
L 1422 3009 
L 372 2375 
L 191 2681 
L 1313 3291 
L 191 3897 
L 372 4206 
L 1422 3572 
L 1422 4750 
L 1778 4750 
L 1778 3572 
L 2828 4206 
L 3009 3897 
z
" transform="scale(0.015625)"/>
       <path id="DejaVuSans-74" d="M 1172 4494 
L 1172 3500 
L 2356 3500 
L 2356 3053 
L 1172 3053 
L 1172 1153 
Q 1172 725 1289 603 
Q 1406 481 1766 481 
L 2356 481 
L 2356 0 
L 1766 0 
Q 1100 0 847 248 
Q 594 497 594 1153 
L 594 3053 
L 172 3053 
L 172 3500 
L 594 3500 
L 594 4494 
L 1172 4494 
z
" transform="scale(0.015625)"/>
      </defs>
      <use xlink:href="#DejaVuSans-45"/>
      <use xlink:href="#DejaVuSans-2a" x="63.183594"/>
      <use xlink:href="#DejaVuSans-74" x="113.183594"/>
     </g>
    </g>
   </g>
   <g id="line2d_15">
    <path d="M 73.832727 295.488 
L 74.150083 286.518544 
L 74.467438 285.721127 
L 74.784793 283.976859 
L 75.419504 276.740514 
L 75.73686 275.909663 
L 76.054215 274.020889 
L 76.37157 273.084221 
L 76.688926 271.766467 
L 77.323636 270.828889 
L 77.640992 269.360171 
L 78.275702 267.474826 
L 79.227769 263.622477 
L 80.179835 261.860747 
L 80.49719 261.30327 
L 80.814545 260.989366 
L 81.131901 259.930758 
L 81.449256 259.582021 
L 81.766612 258.877718 
L 82.083967 258.712772 
L 82.718678 257.936747 
L 83.670744 255.959765 
L 83.988099 255.800315 
L 84.62281 254.72071 
L 84.940165 254.124749 
L 85.257521 253.884758 
L 85.892231 251.907246 
L 86.209587 251.587522 
L 86.844298 250.473641 
L 87.161653 250.353421 
L 87.479008 249.810255 
L 87.796364 249.630253 
L 88.113719 249.061201 
L 88.431074 249.003448 
L 88.74843 248.725631 
L 89.065785 248.293486 
L 89.38314 248.169984 
L 89.700496 247.547722 
L 90.017851 247.358775 
L 91.287273 246.075384 
L 91.604628 245.940659 
L 91.921983 245.3704 
L 94.460826 243.188827 
L 94.778182 242.874065 
L 95.412893 242.000739 
L 95.730248 241.840895 
L 96.047603 241.531607 
L 96.364959 240.740966 
L 97.317025 239.630676 
L 98.269091 238.705019 
L 99.221157 238.178065 
L 99.855868 237.826411 
L 100.173223 237.632224 
L 100.490579 237.248826 
L 100.807934 237.117519 
L 102.077355 236.068522 
L 102.394711 235.960556 
L 102.712066 235.698042 
L 103.346777 235.403134 
L 105.568264 233.68864 
L 105.88562 233.351357 
L 106.202975 233.315454 
L 107.155041 232.463116 
L 108.424463 231.468069 
L 109.376529 231.016222 
L 109.693884 230.676793 
L 110.01124 230.622484 
L 110.64595 229.957781 
L 110.963306 229.843315 
L 111.598017 229.345876 
L 111.915372 229.224056 
L 112.867438 228.325656 
L 113.502149 228.207492 
L 113.819504 227.949479 
L 114.13686 227.90944 
L 114.77157 227.382108 
L 115.088926 227.242556 
L 115.406281 226.920548 
L 115.723636 226.851685 
L 116.675702 226.204624 
L 117.310413 226.02318 
L 117.627769 225.676079 
L 118.262479 225.461044 
L 118.89719 224.810938 
L 120.166612 223.971278 
L 120.801322 223.703753 
L 121.118678 223.505158 
L 121.753388 223.33443 
L 123.02281 222.655025 
L 125.244298 221.549505 
L 125.879008 221.196235 
L 126.513719 220.8803 
L 127.14843 220.608461 
L 127.465785 220.347321 
L 128.100496 220.062894 
L 130.639339 218.843755 
L 130.956694 218.759154 
L 131.591405 218.265613 
L 132.226116 217.961414 
L 136.669091 215.88429 
L 137.938512 215.209399 
L 138.573223 214.859216 
L 140.477355 213.870148 
L 141.112066 213.669264 
L 142.698843 212.849254 
L 143.333554 212.57223 
L 143.650909 212.251957 
L 143.968264 212.211234 
L 144.920331 211.75901 
L 145.872397 211.419318 
L 146.507107 211.158147 
L 147.459174 210.833896 
L 149.363306 209.961382 
L 150.315372 209.408135 
L 152.854215 208.397543 
L 153.17157 208.20235 
L 153.488926 208.176585 
L 154.123636 207.895913 
L 155.075702 207.635471 
L 156.345124 207.003877 
L 160.153388 205.235386 
L 161.740165 204.815505 
L 162.057521 204.530261 
L 164.596364 203.575912 
L 165.865785 203.166117 
L 166.500496 202.957842 
L 167.769917 202.303019 
L 172.847603 200.3506 
L 173.799669 199.883187 
L 174.43438 199.644584 
L 175.069091 199.309576 
L 176.021157 199.014649 
L 176.973223 198.58158 
L 181.098843 197.264428 
L 181.733554 197.032773 
L 183.637686 196.374348 
L 186.176529 195.450917 
L 187.128595 195.138408 
L 187.763306 194.877203 
L 189.350083 194.382755 
L 189.667438 194.152695 
L 190.619504 193.803121 
L 190.93686 193.597654 
L 192.523636 193.235122 
L 193.475702 192.737142 
L 194.745124 192.33589 
L 195.379835 192.032025 
L 196.331901 191.793373 
L 196.649256 191.619585 
L 196.966612 191.597539 
L 198.236033 191.052828 
L 199.505455 190.59889 
L 201.092231 190.040281 
L 201.409587 189.806942 
L 202.044298 189.635957 
L 202.679008 189.409435 
L 204.900496 188.682117 
L 205.852562 188.314332 
L 209.978182 186.947162 
L 210.295537 186.696332 
L 212.517025 186.055969 
L 212.83438 185.868424 
L 213.469091 185.751686 
L 216.007934 184.731049 
L 219.181488 183.719605 
L 221.08562 182.944965 
L 221.720331 182.806311 
L 223.624463 181.974384 
L 225.528595 181.314298 
L 226.163306 181.047694 
L 227.750083 180.553623 
L 228.702149 180.231893 
L 229.654215 179.817981 
L 230.288926 179.732549 
L 230.606281 179.48823 
L 231.875702 179.090819 
L 232.193058 178.880828 
L 232.510413 178.856106 
L 233.462479 178.409261 
L 234.09719 178.209653 
L 238.540165 176.816069 
L 239.174876 176.474106 
L 242.031074 175.589383 
L 245.521983 174.215387 
L 246.156694 174.058799 
L 246.791405 173.852092 
L 248.060826 173.432977 
L 249.012893 173.005506 
L 249.330248 172.9733 
L 250.599669 172.474164 
L 252.186446 171.881198 
L 252.503802 171.814893 
L 253.138512 171.467139 
L 254.090579 171.214218 
L 254.725289 170.933421 
L 256.629421 170.346929 
L 257.581488 169.92901 
L 258.216198 169.743104 
L 260.120331 169.012329 
L 261.072397 168.573177 
L 261.389752 168.54121 
L 262.024463 168.289191 
L 262.976529 168.040228 
L 263.928595 167.659671 
L 264.880661 167.408282 
L 265.515372 167.20307 
L 268.688926 166.020481 
L 269.006281 165.826768 
L 269.958347 165.617762 
L 270.593058 165.266127 
L 270.910413 165.254288 
L 271.227769 165.021844 
L 272.179835 164.747567 
L 275.988099 163.374836 
L 277.257521 162.949271 
L 277.574876 162.69088 
L 278.526942 162.448757 
L 279.479008 162.151079 
L 280.113719 161.928207 
L 281.065785 161.602311 
L 281.700496 161.37027 
L 282.017851 161.310457 
L 282.652562 160.931038 
L 283.921983 160.546373 
L 285.191405 160.039862 
L 285.50876 159.823331 
L 286.460826 159.487228 
L 287.095537 159.227251 
L 287.730248 159.036546 
L 288.364959 158.715795 
L 288.682314 158.525228 
L 289.317025 158.350384 
L 289.951736 158.102313 
L 290.903802 157.621472 
L 291.221157 157.53412 
L 291.855868 157.234341 
L 292.490579 157.119126 
L 293.125289 156.831519 
L 294.394711 156.410976 
L 295.029421 156.126316 
L 295.981488 155.801347 
L 297.568264 155.132605 
L 297.88562 155.10918 
L 303.915372 152.534935 
L 304.550083 152.336488 
L 305.184793 152.028573 
L 307.088926 151.325298 
L 308.993058 150.456385 
L 310.579835 149.844743 
L 310.89719 149.636414 
L 311.531901 149.466439 
L 321.687273 145.073952 
L 322.004628 145.038417 
L 322.321983 144.782246 
L 322.639339 144.671037 
L 323.27405 144.248092 
L 328.03438 142.189894 
L 328.669091 141.836857 
L 329.621157 141.482708 
L 332.16 140.102782 
L 332.794711 139.862512 
L 333.112066 139.785102 
L 334.064132 139.229845 
L 334.698843 138.951434 
L 335.333554 138.676766 
L 336.602975 138.029302 
L 337.237686 137.566845 
L 339.776529 136.3511 
L 341.680661 135.516018 
L 342.632727 134.743801 
L 345.806281 133.053367 
L 346.440992 132.610412 
L 347.075702 132.260742 
L 348.027769 131.653675 
L 348.345124 131.589596 
L 348.662479 131.327455 
L 349.614545 131.02418 
L 350.566612 130.235364 
L 351.201322 129.939855 
L 351.518678 129.675227 
L 352.153388 129.425287 
L 352.470744 129.287647 
L 352.788099 128.988264 
L 353.740165 128.59109 
L 354.374876 128.146874 
L 354.692231 127.999391 
L 355.326942 127.325402 
L 355.644298 127.263313 
L 356.596364 126.558972 
L 359.135207 124.866608 
L 359.769917 124.579036 
L 360.087273 124.200905 
L 361.67405 123.265972 
L 362.30876 122.620062 
L 363.578182 121.860876 
L 363.895537 121.763592 
L 364.530248 121.232966 
L 364.847603 121.1328 
L 365.482314 120.443034 
L 365.799669 120.315316 
L 367.069091 119.346372 
L 367.703802 118.879145 
L 369.290579 117.53807 
L 370.242645 116.925215 
L 370.56 116.694284 
L 370.877355 116.139294 
L 371.194711 116.045207 
L 371.829421 115.633443 
L 372.464132 114.729558 
L 373.098843 114.306036 
L 374.050909 113.289397 
L 375.320331 112.092671 
L 378.493884 109.002878 
L 379.128595 108.103672 
L 379.763306 107.504763 
L 380.080661 106.932776 
L 380.398017 106.861725 
L 380.715372 106.291019 
L 381.032727 106.147302 
L 381.984793 104.922835 
L 382.302149 104.749343 
L 383.254215 103.556774 
L 383.57157 103.008849 
L 384.206281 102.336657 
L 384.523636 101.641344 
L 384.840992 101.255109 
L 385.158347 101.194361 
L 385.793058 100.375354 
L 386.427769 99.26647 
L 387.062479 98.773116 
L 387.379835 98.140222 
L 387.69719 97.840599 
L 388.331901 96.471635 
L 388.649256 96.184643 
L 389.283967 95.377928 
L 389.918678 93.596238 
L 390.236033 93.416244 
L 390.553388 92.145312 
L 391.188099 91.160622 
L 391.505455 89.809698 
L 391.82281 89.493703 
L 392.457521 88.011047 
L 392.774876 87.785658 
L 393.409587 85.629812 
L 393.726942 84.984879 
L 394.044298 84.672731 
L 394.361653 84.156153 
L 394.679008 82.809338 
L 394.996364 80.345718 
L 395.313719 79.158918 
L 395.631074 78.969349 
L 395.94843 77.388865 
L 396.265785 74.565816 
L 397.217851 69.598169 
L 398.169917 60.396422 
L 398.487273 54.027924 
L 398.487273 54.027924 
" clip-path="url(#p407e8e7241)" style="fill: none; stroke: #1f77b4; stroke-width: 1.5; stroke-linecap: square"/>
   </g>
   <g id="line2d_16">
    <path d="M 73.832727 239.319644 
L 74.150083 239.319644 
L 74.467438 238.961766 
L 74.784793 238.961766 
L 75.102149 238.472184 
L 76.054215 238.379874 
L 76.37157 238.188496 
L 76.688926 237.236327 
L 77.006281 237.236327 
L 77.323636 236.841463 
L 77.640992 236.841463 
L 77.958347 236.050312 
L 78.275702 236.050312 
L 78.593058 235.766348 
L 78.910413 234.657414 
L 79.227769 234.657414 
L 79.545124 234.379786 
L 80.49719 234.320093 
L 80.814545 233.455646 
L 81.449256 233.348975 
L 81.766612 232.8362 
L 82.718678 232.823365 
L 83.036033 232.34323 
L 83.353388 232.34323 
L 83.670744 231.926627 
L 83.988099 231.758555 
L 84.305455 231.758555 
L 84.62281 231.572262 
L 84.940165 231.572262 
L 85.257521 231.355551 
L 85.574876 230.785638 
L 86.209587 230.722475 
L 86.526942 230.248532 
L 87.479008 230.1883 
L 87.796364 230.012194 
L 88.113719 230.012194 
L 88.431074 229.550607 
L 88.74843 229.285677 
L 89.065785 229.285677 
L 89.38314 229.035833 
L 89.700496 228.462576 
L 90.017851 228.462576 
L 90.335207 228.006412 
L 90.969917 227.934568 
L 91.287273 227.473316 
L 92.556694 227.401044 
L 92.87405 226.662629 
L 93.826116 226.569102 
L 94.778182 226.279995 
L 95.095537 226.279995 
L 95.412893 225.526315 
L 95.730248 225.526315 
L 96.047603 225.347671 
L 97.317025 225.241901 
L 97.63438 225.120676 
L 97.951736 225.120676 
L 98.269091 224.916936 
L 98.586446 224.23005 
L 98.903802 224.23005 
L 99.221157 223.703638 
L 100.173223 223.617685 
L 100.490579 223.458669 
L 100.807934 223.458669 
L 101.125289 223.297208 
L 101.442645 223.297208 
L 102.077355 222.741164 
L 102.712066 222.731928 
L 103.029421 222.281289 
L 103.346777 222.281289 
L 104.298843 221.878929 
L 104.616198 221.553464 
L 104.933554 221.553464 
L 105.568264 221.044087 
L 105.88562 221.044087 
L 106.202975 220.886281 
L 106.520331 220.886281 
L 106.837686 220.009311 
L 108.107107 219.95207 
L 108.424463 219.641076 
L 109.059174 219.600709 
L 109.376529 219.27957 
L 109.693884 219.27957 
L 110.01124 218.863825 
L 110.328595 218.863825 
L 110.64595 218.59109 
L 111.280661 218.509827 
L 111.915372 218.394384 
L 112.867438 218.182424 
L 113.184793 217.611022 
L 114.13686 217.565894 
L 114.454215 217.259118 
L 115.406281 216.849826 
L 115.723636 216.849826 
L 116.040992 216.587579 
L 116.358347 216.587579 
L 116.675702 216.451427 
L 116.993058 216.451427 
L 117.310413 215.68497 
L 119.214545 215.592915 
L 119.849256 215.475063 
L 120.166612 214.92848 
L 120.483967 214.92848 
L 120.801322 214.418328 
L 121.118678 214.418328 
L 121.436033 214.160151 
L 122.388099 214.062607 
L 123.340165 213.04226 
L 124.926942 212.912745 
L 125.244298 212.513649 
L 125.561653 212.513649 
L 125.879008 212.153354 
L 126.196364 212.153354 
L 126.513719 211.584325 
L 127.14843 211.548818 
L 127.465785 210.873335 
L 129.052562 210.862102 
L 129.687273 210.457719 
L 131.27405 210.292934 
L 131.591405 210.006979 
L 132.226116 209.936736 
L 133.812893 209.714856 
L 134.130248 209.465429 
L 134.447603 209.465429 
L 134.764959 209.32522 
L 135.399669 209.305794 
L 135.717025 209.111699 
L 136.669091 209.108496 
L 136.986446 208.819289 
L 137.303802 208.819289 
L 137.621157 208.649274 
L 137.938512 208.244274 
L 138.573223 208.119025 
L 138.890579 208.119025 
L 139.207934 207.946799 
L 139.525289 207.946799 
L 139.842645 207.733312 
L 140.16 207.733312 
L 140.477355 207.159368 
L 141.429421 207.112172 
L 141.746777 206.99824 
L 142.064132 206.695396 
L 142.381488 206.695396 
L 142.698843 206.205048 
L 143.333554 206.204462 
L 143.650909 206.082927 
L 143.968264 206.082927 
L 144.602975 205.655231 
L 145.555041 205.586966 
L 146.189752 205.390769 
L 146.507107 205.390769 
L 146.824463 205.172069 
L 147.141818 205.172069 
L 147.776529 204.49681 
L 149.363306 204.415311 
L 149.680661 204.359457 
L 149.998017 202.757558 
L 150.315372 202.757558 
L 150.950083 202.433208 
L 151.267438 202.433208 
L 151.584793 202.149228 
L 152.219504 202.113762 
L 152.854215 201.831286 
L 153.17157 201.831286 
L 153.488926 201.526714 
L 154.440992 201.346259 
L 154.758347 201.346259 
L 155.393058 201.218328 
L 155.710413 201.218328 
L 156.027769 200.961357 
L 158.249256 200.83184 
L 158.566612 200.285335 
L 159.201322 200.277807 
L 159.518678 199.416818 
L 160.153388 199.392661 
L 160.470744 199.138319 
L 160.788099 199.134689 
L 161.105455 198.935327 
L 162.057521 198.896683 
L 162.374876 198.678674 
L 163.326942 198.636498 
L 163.644298 198.407821 
L 163.961653 198.407821 
L 164.279008 198.227921 
L 164.596364 198.227921 
L 164.913719 198.111916 
L 165.231074 197.432582 
L 165.54843 197.432582 
L 165.865785 197.054131 
L 166.817851 196.971425 
L 167.135207 196.615637 
L 167.769917 196.535747 
L 168.087273 196.223933 
L 168.404628 196.223933 
L 169.039339 195.684923 
L 169.356694 195.684923 
L 169.67405 195.400634 
L 170.943471 195.377048 
L 171.260826 194.970476 
L 171.895537 194.853744 
L 172.212893 194.324657 
L 172.530248 194.324657 
L 172.847603 193.918644 
L 173.799669 193.842115 
L 175.069091 193.407466 
L 176.021157 193.36369 
L 176.338512 193.113972 
L 177.290579 193.06793 
L 177.925289 192.969506 
L 178.56 192.917551 
L 178.877355 192.604237 
L 179.512066 192.556793 
L 179.829421 192.431409 
L 180.146777 192.431409 
L 180.464132 192.201577 
L 180.781488 192.201577 
L 181.098843 191.929024 
L 181.733554 191.9089 
L 182.050909 191.42608 
L 183.002975 191.210837 
L 183.320331 191.210837 
L 183.955041 191.041882 
L 184.272397 191.041882 
L 184.589752 190.916988 
L 184.907107 190.916988 
L 185.224463 190.366496 
L 185.541818 190.366496 
L 186.176529 190.079202 
L 187.763306 189.972029 
L 188.080661 189.855269 
L 188.398017 189.519739 
L 188.715372 189.519739 
L 189.032727 189.309552 
L 189.667438 189.301465 
L 189.984793 188.965593 
L 190.302149 188.965593 
L 190.619504 188.17056 
L 191.254215 188.074517 
L 191.888926 188.035318 
L 192.206281 187.381394 
L 193.475702 187.344263 
L 193.793058 187.199692 
L 195.379835 187.102676 
L 196.649256 187.018557 
L 196.966612 186.875072 
L 197.601322 186.854191 
L 197.918678 186.679476 
L 198.236033 186.360099 
L 198.553388 186.360099 
L 199.188099 185.658832 
L 199.505455 185.658832 
L 200.457521 185.335029 
L 201.726942 185.238183 
L 202.044298 184.923797 
L 202.996364 184.888386 
L 203.94843 184.52524 
L 205.535207 184.257091 
L 205.852562 184.257091 
L 206.169917 184.030683 
L 206.487273 184.030683 
L 206.804628 183.843647 
L 207.121983 183.843647 
L 208.07405 183.392344 
L 208.391405 183.392344 
L 209.026116 183.070515 
L 209.343471 183.070515 
L 209.660826 182.746541 
L 210.295537 182.676279 
L 210.612893 182.541137 
L 210.930248 182.541137 
L 211.247603 182.320765 
L 214.421157 181.707503 
L 214.738512 181.360199 
L 216.007934 181.280432 
L 216.325289 181.039097 
L 216.642645 181.039097 
L 216.96 180.717979 
L 217.277355 180.717979 
L 217.912066 180.545368 
L 219.181488 180.423947 
L 219.498843 180.012235 
L 219.816198 179.343197 
L 220.133554 179.142796 
L 220.450909 179.142796 
L 220.768264 179.023876 
L 221.08562 179.023876 
L 221.402975 178.866637 
L 223.307107 178.650227 
L 223.624463 178.360805 
L 224.576529 178.312739 
L 227.432727 177.666845 
L 227.750083 177.409881 
L 229.019504 177.339572 
L 229.654215 177.239868 
L 229.97157 177.230158 
L 230.288926 177.049472 
L 230.606281 177.049472 
L 230.923636 176.798575 
L 231.558347 176.740983 
L 231.875702 176.615594 
L 232.510413 176.575746 
L 232.827769 176.384057 
L 234.414545 176.284516 
L 234.731901 175.910484 
L 235.683967 175.884291 
L 236.001322 175.618773 
L 236.636033 175.601188 
L 236.953388 175.321066 
L 237.588099 175.211357 
L 238.22281 175.166166 
L 238.540165 174.550907 
L 239.492231 174.383173 
L 240.444298 174.331191 
L 240.761653 174.117958 
L 241.079008 174.117958 
L 241.396364 173.879577 
L 242.98314 173.557122 
L 243.617851 173.392341 
L 243.935207 173.392341 
L 244.569917 173.274804 
L 245.204628 173.259825 
L 245.521983 173.024392 
L 246.156694 172.932153 
L 246.47405 172.913806 
L 246.791405 172.422878 
L 247.10876 172.179651 
L 247.426116 172.179651 
L 247.743471 172.055775 
L 248.060826 172.055775 
L 248.695537 171.752696 
L 249.012893 171.752696 
L 249.330248 171.632364 
L 249.647603 171.632364 
L 249.964959 171.464644 
L 251.23438 171.415523 
L 252.821157 170.807504 
L 253.138512 170.464479 
L 253.455868 170.464479 
L 254.090579 170.301602 
L 254.407934 170.301602 
L 254.725289 170.133948 
L 255.36 169.382825 
L 256.312066 169.326963 
L 256.629421 169.090939 
L 257.581488 169.061148 
L 258.533554 168.826348 
L 258.850909 168.826348 
L 259.802975 168.452859 
L 260.120331 168.452859 
L 260.437686 168.116647 
L 260.755041 168.116647 
L 262.024463 167.718183 
L 262.976529 167.685555 
L 263.293884 167.3571 
L 263.928595 167.355443 
L 264.24595 167.158219 
L 264.880661 167.153498 
L 265.198017 167.011336 
L 266.467438 166.935047 
L 266.784793 166.805227 
L 267.102149 166.511778 
L 268.054215 166.423714 
L 268.37157 166.100383 
L 268.688926 166.100383 
L 269.323636 165.763921 
L 269.640992 165.612728 
L 270.910413 165.505975 
L 271.227769 165.23773 
L 272.179835 165.159897 
L 272.49719 164.829802 
L 273.449256 164.81541 
L 274.083967 164.501289 
L 275.036033 164.407842 
L 275.353388 164.345186 
L 275.670744 163.494198 
L 276.62281 163.407809 
L 277.574876 163.207709 
L 277.892231 163.207709 
L 278.844298 162.666939 
L 279.161653 162.666939 
L 279.479008 162.518924 
L 279.796364 162.518924 
L 280.113719 161.926712 
L 280.74843 161.882252 
L 281.38314 161.774214 
L 282.017851 161.672339 
L 282.335207 161.672339 
L 282.969917 161.201338 
L 283.287273 161.201338 
L 283.604628 161.073397 
L 284.239339 161.024118 
L 284.556694 160.076841 
L 285.826116 159.978005 
L 286.143471 159.910681 
L 286.460826 159.682679 
L 287.095537 159.581404 
L 287.412893 159.196145 
L 288.682314 159.140139 
L 288.999669 158.9952 
L 289.317025 158.9952 
L 289.951736 158.572392 
L 291.221157 158.528766 
L 291.538512 158.341018 
L 291.855868 158.341018 
L 292.173223 158.175588 
L 292.490579 158.175588 
L 292.807934 158.045696 
L 293.125289 158.045696 
L 293.442645 157.895882 
L 293.76 157.895882 
L 294.077355 157.658451 
L 295.029421 157.53256 
L 295.346777 157.073776 
L 295.981488 157.052897 
L 296.298843 156.647435 
L 297.250909 156.410819 
L 297.568264 155.844478 
L 297.88562 155.844478 
L 298.202975 155.64421 
L 299.155041 155.549115 
L 299.789752 155.388645 
L 300.107107 155.388645 
L 300.424463 155.088441 
L 301.376529 154.996791 
L 302.01124 154.902505 
L 302.328595 154.361437 
L 302.963306 154.093443 
L 303.280661 154.093443 
L 303.598017 153.842233 
L 303.915372 153.369909 
L 304.232727 153.369909 
L 304.550083 153.115233 
L 304.867438 153.115233 
L 305.184793 152.718366 
L 306.13686 152.616455 
L 307.088926 152.44023 
L 308.040992 152.390996 
L 308.358347 152.197377 
L 309.310413 152.086283 
L 309.627769 152.071225 
L 309.945124 151.938857 
L 310.262479 151.09564 
L 310.579835 150.942024 
L 311.531901 150.87184 
L 311.849256 150.450457 
L 312.166612 150.450457 
L 312.801322 149.466594 
L 314.070744 149.418306 
L 314.388099 149.037116 
L 315.02281 149.029514 
L 315.340165 148.866209 
L 316.609587 148.774497 
L 316.926942 148.523946 
L 318.831074 148.071279 
L 319.465785 147.097894 
L 319.78314 147.097894 
L 320.417851 146.458832 
L 320.735207 146.327754 
L 321.687273 146.315908 
L 322.004628 146.126049 
L 322.321983 145.502983 
L 322.639339 145.502983 
L 322.956694 145.190358 
L 323.591405 145.1373 
L 324.226116 144.489727 
L 324.543471 144.489727 
L 324.860826 144.34472 
L 325.178182 144.34472 
L 325.495537 144.143412 
L 325.812893 144.143412 
L 326.130248 143.9666 
L 326.447603 143.575684 
L 327.399669 143.504207 
L 328.351736 143.403999 
L 328.669091 142.968798 
L 328.986446 142.771227 
L 329.621157 142.75403 
L 329.938512 142.528921 
L 330.255868 142.528921 
L 330.573223 142.345487 
L 330.890579 142.345487 
L 331.207934 142.10463 
L 332.16 141.89633 
L 332.477355 141.368883 
L 333.112066 141.294162 
L 333.429421 140.908813 
L 333.746777 140.908813 
L 334.064132 139.998646 
L 334.381488 139.781482 
L 336.28562 139.651314 
L 338.189752 138.760724 
L 339.141818 138.750494 
L 339.459174 138.423644 
L 339.776529 138.423644 
L 340.093884 138.290038 
L 340.41124 137.96446 
L 340.728595 137.96446 
L 341.04595 137.800375 
L 341.363306 137.800375 
L 341.680661 136.486678 
L 341.998017 136.266849 
L 342.315372 136.266849 
L 342.632727 135.805124 
L 342.950083 135.805124 
L 343.267438 135.608752 
L 345.17157 135.218296 
L 345.488926 134.793449 
L 345.806281 134.793449 
L 346.123636 134.377847 
L 346.440992 134.233079 
L 346.758347 134.233079 
L 347.393058 133.631084 
L 348.345124 133.565175 
L 348.979835 133.452433 
L 349.29719 132.636071 
L 349.931901 132.532312 
L 350.566612 132.256383 
L 350.883967 132.256383 
L 351.201322 132.046354 
L 351.518678 132.046354 
L 352.470744 131.77988 
L 352.788099 131.335379 
L 353.42281 131.325045 
L 353.740165 131.195944 
L 354.057521 131.195944 
L 354.374876 130.812825 
L 354.692231 130.812825 
L 355.009587 130.02023 
L 355.644298 129.937984 
L 355.961653 129.843793 
L 356.279008 129.180368 
L 356.596364 129.180368 
L 356.913719 128.281699 
L 357.54843 128.216953 
L 357.865785 127.910726 
L 358.18314 127.910726 
L 358.500496 127.496528 
L 358.817851 127.496528 
L 359.769917 126.905825 
L 360.087273 126.783157 
L 360.404628 126.783157 
L 360.721983 126.528821 
L 361.039339 126.528821 
L 361.356694 126.374778 
L 362.626116 126.299771 
L 363.260826 125.319866 
L 363.578182 125.319866 
L 364.212893 124.776922 
L 364.530248 124.776922 
L 365.164959 123.646339 
L 365.482314 123.31364 
L 365.799669 123.31364 
L 366.117025 123.044313 
L 367.069091 122.807029 
L 367.386446 122.807029 
L 367.703802 122.363045 
L 368.973223 122.201671 
L 369.290579 121.724097 
L 369.607934 121.724097 
L 369.925289 121.199828 
L 370.242645 119.973362 
L 370.56 119.29823 
L 370.877355 119.29823 
L 371.194711 118.461562 
L 371.829421 118.408567 
L 372.146777 118.151697 
L 372.781488 118.09617 
L 373.098843 117.959454 
L 373.416198 117.365828 
L 373.733554 117.33527 
L 374.050909 117.15647 
L 374.368264 117.15647 
L 374.68562 116.526195 
L 375.002975 116.526195 
L 375.637686 115.661409 
L 375.955041 115.661409 
L 376.272397 115.026883 
L 376.589752 115.026883 
L 376.907107 114.457446 
L 377.224463 112.65443 
L 377.859174 112.557862 
L 378.176529 112.428864 
L 378.493884 112.428864 
L 378.81124 112.191054 
L 379.128595 112.191054 
L 379.44595 111.716034 
L 379.763306 110.112128 
L 380.080661 109.587782 
L 380.398017 109.587782 
L 380.715372 109.192918 
L 381.032727 108.200551 
L 381.667438 108.111337 
L 382.302149 108.025463 
L 382.93686 107.985825 
L 383.254215 107.367282 
L 383.888926 106.834988 
L 384.206281 106.834988 
L 384.523636 105.734295 
L 384.840992 105.734295 
L 385.158347 104.412455 
L 385.475702 104.412455 
L 385.793058 103.758493 
L 386.110413 102.385602 
L 386.427769 101.702817 
L 386.745124 101.702817 
L 387.062479 101.538941 
L 387.379835 99.977819 
L 387.69719 99.238271 
L 388.014545 99.238271 
L 388.331901 99.092428 
L 388.649256 98.325269 
L 388.966612 97.961259 
L 389.918678 97.906974 
L 390.553388 93.770576 
L 390.870744 93.770576 
L 391.188099 93.594912 
L 391.82281 91.44129 
L 392.140165 91.44129 
L 392.457521 89.983909 
L 392.774876 89.666671 
L 393.092231 89.666671 
L 393.409587 88.504137 
L 393.726942 88.504137 
L 394.044298 87.390714 
L 394.361653 84.592443 
L 394.679008 83.7902 
L 394.996364 83.7902 
L 395.313719 83.306984 
L 395.631074 83.106555 
L 395.94843 83.106555 
L 396.265785 76.903583 
L 396.58314 74.191559 
L 396.900496 73.161564 
L 397.217851 73.161564 
L 397.535207 62.541448 
L 397.852562 62.306138 
L 398.169917 62.306138 
L 398.487273 53.568 
L 398.487273 53.568 
" clip-path="url(#p407e8e7241)" style="fill: none; stroke: #ff7f0e; stroke-width: 1.5; stroke-linecap: square"/>
   </g>
   <g id="patch_3">
    <path d="M 57.6 307.584 
L 57.6 41.472 
" style="fill: none; stroke: #000000; stroke-width: 0.8; stroke-linejoin: miter; stroke-linecap: square"/>
   </g>
   <g id="patch_4">
    <path d="M 414.72 307.584 
L 414.72 41.472 
" style="fill: none; stroke: #000000; stroke-width: 0.8; stroke-linejoin: miter; stroke-linecap: square"/>
   </g>
   <g id="patch_5">
    <path d="M 57.6 307.584 
L 414.72 307.584 
" style="fill: none; stroke: #000000; stroke-width: 0.8; stroke-linejoin: miter; stroke-linecap: square"/>
   </g>
   <g id="patch_6">
    <path d="M 57.6 41.472 
L 414.72 41.472 
" style="fill: none; stroke: #000000; stroke-width: 0.8; stroke-linejoin: miter; stroke-linecap: square"/>
   </g>
   <g id="legend_1">
    <g id="patch_7">
     <path d="M 64.6 78.82825 
L 129.342187 78.82825 
Q 131.342187 78.82825 131.342187 76.82825 
L 131.342187 48.472 
Q 131.342187 46.472 129.342187 46.472 
L 64.6 46.472 
Q 62.6 46.472 62.6 48.472 
L 62.6 76.82825 
Q 62.6 78.82825 64.6 78.82825 
z
" style="fill: #ffffff; opacity: 0.8; stroke: #cccccc; stroke-linejoin: miter"/>
    </g>
    <g id="line2d_17">
     <path d="M 66.6 54.570437 
L 76.6 54.570437 
L 86.6 54.570437 
" style="fill: none; stroke: #1f77b4; stroke-width: 1.5; stroke-linecap: square"/>
    </g>
    <g id="text_17">
     <!-- qc -->
     <g transform="translate(94.6 58.070437) scale(0.1 -0.1)">
      <defs>
       <path id="DejaVuSans-71" d="M 947 1747 
Q 947 1113 1208 752 
Q 1469 391 1925 391 
Q 2381 391 2643 752 
Q 2906 1113 2906 1747 
Q 2906 2381 2643 2742 
Q 2381 3103 1925 3103 
Q 1469 3103 1208 2742 
Q 947 2381 947 1747 
z
M 2906 525 
Q 2725 213 2448 61 
Q 2172 -91 1784 -91 
Q 1150 -91 751 415 
Q 353 922 353 1747 
Q 353 2572 751 3078 
Q 1150 3584 1784 3584 
Q 2172 3584 2448 3432 
Q 2725 3281 2906 2969 
L 2906 3500 
L 3481 3500 
L 3481 -1331 
L 2906 -1331 
L 2906 525 
z
" transform="scale(0.015625)"/>
       <path id="DejaVuSans-63" d="M 3122 3366 
L 3122 2828 
Q 2878 2963 2633 3030 
Q 2388 3097 2138 3097 
Q 1578 3097 1268 2742 
Q 959 2388 959 1747 
Q 959 1106 1268 751 
Q 1578 397 2138 397 
Q 2388 397 2633 464 
Q 2878 531 3122 666 
L 3122 134 
Q 2881 22 2623 -34 
Q 2366 -91 2075 -91 
Q 1284 -91 818 406 
Q 353 903 353 1747 
Q 353 2603 823 3093 
Q 1294 3584 2113 3584 
Q 2378 3584 2631 3529 
Q 2884 3475 3122 3366 
z
" transform="scale(0.015625)"/>
      </defs>
      <use xlink:href="#DejaVuSans-71"/>
      <use xlink:href="#DejaVuSans-63" x="63.476562"/>
     </g>
    </g>
    <g id="line2d_18">
     <path d="M 66.6 69.248562 
L 76.6 69.248562 
L 86.6 69.248562 
" style="fill: none; stroke: #ff7f0e; stroke-width: 1.5; stroke-linecap: square"/>
    </g>
    <g id="text_18">
     <!-- Trotter -->
     <g transform="translate(94.6 72.748562) scale(0.1 -0.1)">
      <defs>
       <path id="DejaVuSans-54" d="M -19 4666 
L 3928 4666 
L 3928 4134 
L 2272 4134 
L 2272 0 
L 1638 0 
L 1638 4134 
L -19 4134 
L -19 4666 
z
" transform="scale(0.015625)"/>
       <path id="DejaVuSans-72" d="M 2631 2963 
Q 2534 3019 2420 3045 
Q 2306 3072 2169 3072 
Q 1681 3072 1420 2755 
Q 1159 2438 1159 1844 
L 1159 0 
L 581 0 
L 581 3500 
L 1159 3500 
L 1159 2956 
Q 1341 3275 1631 3429 
Q 1922 3584 2338 3584 
Q 2397 3584 2469 3576 
Q 2541 3569 2628 3553 
L 2631 2963 
z
" transform="scale(0.015625)"/>
       <path id="DejaVuSans-6f" d="M 1959 3097 
Q 1497 3097 1228 2736 
Q 959 2375 959 1747 
Q 959 1119 1226 758 
Q 1494 397 1959 397 
Q 2419 397 2687 759 
Q 2956 1122 2956 1747 
Q 2956 2369 2687 2733 
Q 2419 3097 1959 3097 
z
M 1959 3584 
Q 2709 3584 3137 3096 
Q 3566 2609 3566 1747 
Q 3566 888 3137 398 
Q 2709 -91 1959 -91 
Q 1206 -91 779 398 
Q 353 888 353 1747 
Q 353 2609 779 3096 
Q 1206 3584 1959 3584 
z
" transform="scale(0.015625)"/>
       <path id="DejaVuSans-65" d="M 3597 1894 
L 3597 1613 
L 953 1613 
Q 991 1019 1311 708 
Q 1631 397 2203 397 
Q 2534 397 2845 478 
Q 3156 559 3463 722 
L 3463 178 
Q 3153 47 2828 -22 
Q 2503 -91 2169 -91 
Q 1331 -91 842 396 
Q 353 884 353 1716 
Q 353 2575 817 3079 
Q 1281 3584 2069 3584 
Q 2775 3584 3186 3129 
Q 3597 2675 3597 1894 
z
M 3022 2063 
Q 3016 2534 2758 2815 
Q 2500 3097 2075 3097 
Q 1594 3097 1305 2825 
Q 1016 2553 972 2059 
L 3022 2063 
z
" transform="scale(0.015625)"/>
      </defs>
      <use xlink:href="#DejaVuSans-54"/>
      <use xlink:href="#DejaVuSans-72" x="46.333984"/>
      <use xlink:href="#DejaVuSans-6f" x="85.197266"/>
      <use xlink:href="#DejaVuSans-74" x="146.378906"/>
      <use xlink:href="#DejaVuSans-74" x="185.587891"/>
      <use xlink:href="#DejaVuSans-65" x="224.796875"/>
      <use xlink:href="#DejaVuSans-72" x="286.320312"/>
     </g>
    </g>
   </g>
  </g>
 </g>
 <defs>
  <clipPath id="p407e8e7241">
   <rect x="57.6" y="41.472" width="357.12" height="266.112"/>
  </clipPath>
 </defs>
</svg>
