<?xml version="1.0" encoding="utf-8" standalone="no"?>
<!DOCTYPE svg PUBLIC "-//W3C//DTD SVG 1.1//EN"
  "http://www.w3.org/Graphics/SVG/1.1/DTD/svg11.dtd">
<svg xmlns:xlink="http://www.w3.org/1999/xlink" width="720pt" height="504pt" viewBox="0 0 720 504" xmlns="http://www.w3.org/2000/svg" version="1.1">
 <metadata>
  <rdf:RDF xmlns:dc="http://purl.org/dc/elements/1.1/" xmlns:cc="http://creativecommons.org/ns#" xmlns:rdf="http://www.w3.org/1999/02/22-rdf-syntax-ns#">
   <cc:Work>
    <dc:type rdf:resource="http://purl.org/dc/dcmitype/StillImage"/>
    <dc:date>2024-07-12T09:50:11.032399</dc:date>
    <dc:format>image/svg+xml</dc:format>
    <dc:creator>
     <cc:Agent>
      <dc:title>Matplotlib v3.7.1, https://matplotlib.org/</dc:title>
     </cc:Agent>
    </dc:creator>
   </cc:Work>
  </rdf:RDF>
 </metadata>
 <defs>
  <style type="text/css">*{stroke-linejoin: round; stroke-linecap: butt}</style>
 </defs>
 <g id="figure_1">
  <g id="patch_1">
   <path d="M 0 504 
L 720 504 
L 720 0 
L 0 0 
z
" style="fill: #ffffff"/>
  </g>
  <g id="patch_2">
   <path d="M 174.96 448.56 
L 563.04 448.56 
L 563.04 60.48 
L 174.96 60.48 
z
" style="fill: #ffffff"/>
  </g>
  <g id="pane3d_1">
   <g id="patch_3">
    <path d="M 204.262716 352.871909 
L 332.419406 245.44843 
L 330.637906 90.52457 
L 196.348257 188.523039 
" style="fill: #f2f2f2; opacity: 0.5; stroke: #f2f2f2; stroke-linejoin: miter"/>
   </g>
  </g>
  <g id="pane3d_2">
   <g id="patch_4">
    <path d="M 332.419406 245.44843 
L 538.065167 305.221534 
L 545.40394 144.961499 
L 330.637906 90.52457 
" style="fill: #e6e6e6; opacity: 0.5; stroke: #e6e6e6; stroke-linejoin: miter"/>
   </g>
  </g>
  <g id="pane3d_3">
   <g id="patch_5">
    <path d="M 204.262716 352.871909 
L 422.257267 424.068929 
L 538.065167 305.221534 
L 332.419406 245.44843 
" style="fill: #ececec; opacity: 0.5; stroke: #ececec; stroke-linejoin: miter"/>
   </g>
  </g>
  <g id="axis3d_1">
   <g id="line2d_1">
    <path d="M 204.262716 352.871909 
L 422.257267 424.068929 
" style="fill: none; stroke: #000000; stroke-width: 0.8; stroke-linecap: square"/>
   </g>
   <g id="text_1">
    <!-- Sx -->
    <g transform="translate(287.31167 425.471519) scale(0.1 -0.1)">
     <defs>
      <path id="DejaVuSans-Bold-53" d="M 3834 4519 
L 3834 3531 
Q 3450 3703 3084 3790 
Q 2719 3878 2394 3878 
Q 1963 3878 1756 3759 
Q 1550 3641 1550 3391 
Q 1550 3203 1689 3098 
Q 1828 2994 2194 2919 
L 2706 2816 
Q 3484 2659 3812 2340 
Q 4141 2022 4141 1434 
Q 4141 663 3683 286 
Q 3225 -91 2284 -91 
Q 1841 -91 1394 -6 
Q 947 78 500 244 
L 500 1259 
Q 947 1022 1364 901 
Q 1781 781 2169 781 
Q 2563 781 2772 912 
Q 2981 1044 2981 1288 
Q 2981 1506 2839 1625 
Q 2697 1744 2272 1838 
L 1806 1941 
Q 1106 2091 782 2419 
Q 459 2747 459 3303 
Q 459 4000 909 4375 
Q 1359 4750 2203 4750 
Q 2588 4750 2994 4692 
Q 3400 4634 3834 4519 
z
" transform="scale(0.015625)"/>
      <path id="DejaVuSans-Bold-78" d="M 1422 1791 
L 159 3500 
L 1344 3500 
L 2059 2463 
L 2784 3500 
L 3969 3500 
L 2706 1797 
L 4031 0 
L 2847 0 
L 2059 1106 
L 1281 0 
L 97 0 
L 1422 1791 
z
" transform="scale(0.015625)"/>
     </defs>
     <use xlink:href="#DejaVuSans-Bold-53"/>
     <use xlink:href="#DejaVuSans-Bold-78" x="72.021484"/>
    </g>
   </g>
   <g id="Line3DCollection_1">
    <path d="M 231.487867 361.763643 
L 358.201722 252.942331 
L 357.513976 97.33687 
" style="fill: none; stroke: #b0b0b0; stroke-width: 0.8"/>
    <path d="M 260.103642 371.109555 
L 385.270282 260.810093 
L 385.746158 104.492906 
" style="fill: none; stroke: #b0b0b0; stroke-width: 0.8"/>
    <path d="M 289.126397 380.588387 
L 412.691755 268.780433 
L 414.362418 111.746293 
" style="fill: none; stroke: #b0b0b0; stroke-width: 0.8"/>
    <path d="M 318.564877 390.202994 
L 440.473086 276.855369 
L 443.370646 119.099034 
" style="fill: none; stroke: #b0b0b0; stroke-width: 0.8"/>
    <path d="M 348.428079 399.956316 
L 468.621407 285.036975 
L 472.778952 126.553182 
" style="fill: none; stroke: #b0b0b0; stroke-width: 0.8"/>
    <path d="M 378.72526 409.851376 
L 497.144039 293.327377 
L 502.59567 134.110851 
" style="fill: none; stroke: #b0b0b0; stroke-width: 0.8"/>
    <path d="M 409.465952 419.891285 
L 526.048496 301.728762 
L 532.829367 141.774212 
" style="fill: none; stroke: #b0b0b0; stroke-width: 0.8"/>
   </g>
   <g id="xtick_1">
    <g id="line2d_2">
     <path d="M 232.591595 360.815766 
L 229.275658 363.663479 
" style="fill: none; stroke: #000000; stroke-width: 0.8; stroke-linecap: square"/>
    </g>
    <g id="text_2">
     <!-- 0.20 -->
     <g transform="translate(212.844439 385.120782) scale(0.1 -0.1)">
      <defs>
       <path id="DejaVuSans-30" d="M 2034 4250 
Q 1547 4250 1301 3770 
Q 1056 3291 1056 2328 
Q 1056 1369 1301 889 
Q 1547 409 2034 409 
Q 2525 409 2770 889 
Q 3016 1369 3016 2328 
Q 3016 3291 2770 3770 
Q 2525 4250 2034 4250 
z
M 2034 4750 
Q 2819 4750 3233 4129 
Q 3647 3509 3647 2328 
Q 3647 1150 3233 529 
Q 2819 -91 2034 -91 
Q 1250 -91 836 529 
Q 422 1150 422 2328 
Q 422 3509 836 4129 
Q 1250 4750 2034 4750 
z
" transform="scale(0.015625)"/>
       <path id="DejaVuSans-2e" d="M 684 794 
L 1344 794 
L 1344 0 
L 684 0 
L 684 794 
z
" transform="scale(0.015625)"/>
       <path id="DejaVuSans-32" d="M 1228 531 
L 3431 531 
L 3431 0 
L 469 0 
L 469 531 
Q 828 903 1448 1529 
Q 2069 2156 2228 2338 
Q 2531 2678 2651 2914 
Q 2772 3150 2772 3378 
Q 2772 3750 2511 3984 
Q 2250 4219 1831 4219 
Q 1534 4219 1204 4116 
Q 875 4013 500 3803 
L 500 4441 
Q 881 4594 1212 4672 
Q 1544 4750 1819 4750 
Q 2544 4750 2975 4387 
Q 3406 4025 3406 3419 
Q 3406 3131 3298 2873 
Q 3191 2616 2906 2266 
Q 2828 2175 2409 1742 
Q 1991 1309 1228 531 
z
" transform="scale(0.015625)"/>
      </defs>
      <use xlink:href="#DejaVuSans-30"/>
      <use xlink:href="#DejaVuSans-2e" x="63.623047"/>
      <use xlink:href="#DejaVuSans-32" x="95.410156"/>
      <use xlink:href="#DejaVuSans-30" x="159.033203"/>
     </g>
    </g>
   </g>
   <g id="xtick_2">
    <g id="line2d_3">
     <path d="M 261.19452 370.14825 
L 257.917153 373.036334 
" style="fill: none; stroke: #000000; stroke-width: 0.8; stroke-linecap: square"/>
    </g>
    <g id="text_3">
     <!-- 0.25 -->
     <g transform="translate(241.480672 394.602298) scale(0.1 -0.1)">
      <defs>
       <path id="DejaVuSans-35" d="M 691 4666 
L 3169 4666 
L 3169 4134 
L 1269 4134 
L 1269 2991 
Q 1406 3038 1543 3061 
Q 1681 3084 1819 3084 
Q 2600 3084 3056 2656 
Q 3513 2228 3513 1497 
Q 3513 744 3044 326 
Q 2575 -91 1722 -91 
Q 1428 -91 1123 -41 
Q 819 9 494 109 
L 494 744 
Q 775 591 1075 516 
Q 1375 441 1709 441 
Q 2250 441 2565 725 
Q 2881 1009 2881 1497 
Q 2881 1984 2565 2268 
Q 2250 2553 1709 2553 
Q 1456 2553 1204 2497 
Q 953 2441 691 2322 
L 691 4666 
z
" transform="scale(0.015625)"/>
      </defs>
      <use xlink:href="#DejaVuSans-30"/>
      <use xlink:href="#DejaVuSans-2e" x="63.623047"/>
      <use xlink:href="#DejaVuSans-32" x="95.410156"/>
      <use xlink:href="#DejaVuSans-35" x="159.033203"/>
     </g>
    </g>
   </g>
   <g id="xtick_3">
    <g id="line2d_4">
     <path d="M 290.203948 379.613366 
L 286.966588 382.542687 
" style="fill: none; stroke: #000000; stroke-width: 0.8; stroke-linecap: square"/>
    </g>
    <g id="text_4">
     <!-- 0.30 -->
     <g transform="translate(270.525232 404.219012) scale(0.1 -0.1)">
      <defs>
       <path id="DejaVuSans-33" d="M 2597 2516 
Q 3050 2419 3304 2112 
Q 3559 1806 3559 1356 
Q 3559 666 3084 287 
Q 2609 -91 1734 -91 
Q 1441 -91 1130 -33 
Q 819 25 488 141 
L 488 750 
Q 750 597 1062 519 
Q 1375 441 1716 441 
Q 2309 441 2620 675 
Q 2931 909 2931 1356 
Q 2931 1769 2642 2001 
Q 2353 2234 1838 2234 
L 1294 2234 
L 1294 2753 
L 1863 2753 
Q 2328 2753 2575 2939 
Q 2822 3125 2822 3475 
Q 2822 3834 2567 4026 
Q 2313 4219 1838 4219 
Q 1578 4219 1281 4162 
Q 984 4106 628 3988 
L 628 4550 
Q 988 4650 1302 4700 
Q 1616 4750 1894 4750 
Q 2613 4750 3031 4423 
Q 3450 4097 3450 3541 
Q 3450 3153 3228 2886 
Q 3006 2619 2597 2516 
z
" transform="scale(0.015625)"/>
      </defs>
      <use xlink:href="#DejaVuSans-30"/>
      <use xlink:href="#DejaVuSans-2e" x="63.623047"/>
      <use xlink:href="#DejaVuSans-33" x="95.410156"/>
      <use xlink:href="#DejaVuSans-30" x="159.033203"/>
     </g>
    </g>
   </g>
   <g id="xtick_4">
    <g id="line2d_5">
     <path d="M 319.628605 389.213962 
L 316.43274 392.185409 
" style="fill: none; stroke: #000000; stroke-width: 0.8; stroke-linecap: square"/>
    </g>
    <g id="text_5">
     <!-- 0.35 -->
     <g transform="translate(299.986916 413.973835) scale(0.1 -0.1)">
      <use xlink:href="#DejaVuSans-30"/>
      <use xlink:href="#DejaVuSans-2e" x="63.623047"/>
      <use xlink:href="#DejaVuSans-33" x="95.410156"/>
      <use xlink:href="#DejaVuSans-35" x="159.033203"/>
     </g>
    </g>
   </g>
   <g id="xtick_5">
    <g id="line2d_6">
     <path d="M 349.477473 398.952969 
L 346.324642 401.967456 
" style="fill: none; stroke: #000000; stroke-width: 0.8; stroke-linecap: square"/>
    </g>
    <g id="text_6">
     <!-- 0.40 -->
     <g transform="translate(329.874773 423.869766) scale(0.1 -0.1)">
      <defs>
       <path id="DejaVuSans-34" d="M 2419 4116 
L 825 1625 
L 2419 1625 
L 2419 4116 
z
M 2253 4666 
L 3047 4666 
L 3047 1625 
L 3713 1625 
L 3713 1100 
L 3047 1100 
L 3047 0 
L 2419 0 
L 2419 1100 
L 313 1100 
L 313 1709 
L 2253 4666 
z
" transform="scale(0.015625)"/>
      </defs>
      <use xlink:href="#DejaVuSans-30"/>
      <use xlink:href="#DejaVuSans-2e" x="63.623047"/>
      <use xlink:href="#DejaVuSans-34" x="95.410156"/>
      <use xlink:href="#DejaVuSans-30" x="159.033203"/>
     </g>
    </g>
   </g>
   <g id="xtick_6">
    <g id="line2d_7">
     <path d="M 379.759789 408.8334 
L 376.651586 411.89187 
" style="fill: none; stroke: #000000; stroke-width: 0.8; stroke-linecap: square"/>
    </g>
    <g id="text_7">
     <!-- 0.45 -->
     <g transform="translate(360.198119 433.909888) scale(0.1 -0.1)">
      <use xlink:href="#DejaVuSans-30"/>
      <use xlink:href="#DejaVuSans-2e" x="63.623047"/>
      <use xlink:href="#DejaVuSans-34" x="95.410156"/>
      <use xlink:href="#DejaVuSans-35" x="159.033203"/>
     </g>
    </g>
   </g>
   <g id="xtick_7">
    <g id="line2d_8">
     <path d="M 410.485066 418.858359 
L 407.42314 421.961782 
" style="fill: none; stroke: #000000; stroke-width: 0.8; stroke-linecap: square"/>
    </g>
    <g id="text_8">
     <!-- 0.50 -->
     <g transform="translate(390.966541 444.097376) scale(0.1 -0.1)">
      <use xlink:href="#DejaVuSans-30"/>
      <use xlink:href="#DejaVuSans-2e" x="63.623047"/>
      <use xlink:href="#DejaVuSans-35" x="95.410156"/>
      <use xlink:href="#DejaVuSans-30" x="159.033203"/>
     </g>
    </g>
   </g>
  </g>
  <g id="axis3d_2">
   <g id="line2d_9">
    <path d="M 538.065167 305.221534 
L 422.257267 424.068929 
" style="fill: none; stroke: #000000; stroke-width: 0.8; stroke-linecap: square"/>
   </g>
   <g id="text_9">
    <!-- Sy -->
    <g transform="translate(502.853647 392.665705) scale(0.1 -0.1)">
     <defs>
      <path id="DejaVuSans-Bold-79" d="M 78 3500 
L 1197 3500 
L 2138 1125 
L 2938 3500 
L 4056 3500 
L 2584 -331 
Q 2363 -916 2067 -1148 
Q 1772 -1381 1288 -1381 
L 641 -1381 
L 641 -647 
L 991 -647 
Q 1275 -647 1404 -556 
Q 1534 -466 1606 -231 
L 1638 -134 
L 78 3500 
z
" transform="scale(0.015625)"/>
     </defs>
     <use xlink:href="#DejaVuSans-Bold-53"/>
     <use xlink:href="#DejaVuSans-Bold-79" x="72.021484"/>
    </g>
   </g>
   <g id="Line3DCollection_2">
    <path d="M 201.276049 184.926961 
L 208.948286 348.944371 
L 426.509397 419.705198 
" style="fill: none; stroke: #b0b0b0; stroke-width: 0.8"/>
    <path d="M 219.477196 171.644593 
L 226.266073 334.428259 
L 442.213266 403.589165 
" style="fill: none; stroke: #b0b0b0; stroke-width: 0.8"/>
    <path d="M 237.261546 158.666385 
L 243.204496 320.230137 
L 457.554983 387.844789 
" style="fill: none; stroke: #b0b0b0; stroke-width: 0.8"/>
    <path d="M 254.643253 145.982006 
L 259.775887 306.339669 
L 472.546934 372.459359 
" style="fill: none; stroke: #b0b0b0; stroke-width: 0.8"/>
    <path d="M 271.635839 133.581591 
L 275.992046 292.746963 
L 487.200945 357.420739 
" style="fill: none; stroke: #b0b0b0; stroke-width: 0.8"/>
    <path d="M 288.252226 121.455708 
L 291.864275 279.442545 
L 501.528314 342.717334 
" style="fill: none; stroke: #b0b0b0; stroke-width: 0.8"/>
    <path d="M 304.50477 109.595342 
L 307.403402 266.417341 
L 515.539844 328.338057 
" style="fill: none; stroke: #b0b0b0; stroke-width: 0.8"/>
    <path d="M 320.405292 97.991865 
L 322.619802 253.662653 
L 529.245863 314.27231 
" style="fill: none; stroke: #b0b0b0; stroke-width: 0.8"/>
   </g>
   <g id="xtick_8">
    <g id="line2d_10">
     <path d="M 424.675743 419.108809 
L 430.181461 420.899521 
" style="fill: none; stroke: #000000; stroke-width: 0.8; stroke-linecap: square"/>
    </g>
    <g id="text_10">
     <!-- −0.4 -->
     <g transform="translate(427.280746 440.763604) scale(0.1 -0.1)">
      <defs>
       <path id="DejaVuSans-2212" d="M 678 2272 
L 4684 2272 
L 4684 1741 
L 678 1741 
L 678 2272 
z
" transform="scale(0.015625)"/>
      </defs>
      <use xlink:href="#DejaVuSans-2212"/>
      <use xlink:href="#DejaVuSans-30" x="83.789062"/>
      <use xlink:href="#DejaVuSans-2e" x="147.412109"/>
      <use xlink:href="#DejaVuSans-34" x="179.199219"/>
     </g>
    </g>
   </g>
   <g id="xtick_9">
    <g id="line2d_11">
     <path d="M 440.394292 403.006607 
L 445.855875 404.755775 
" style="fill: none; stroke: #000000; stroke-width: 0.8; stroke-linecap: square"/>
    </g>
    <g id="text_11">
     <!-- −0.3 -->
     <g transform="translate(442.840314 424.483939) scale(0.1 -0.1)">
      <use xlink:href="#DejaVuSans-2212"/>
      <use xlink:href="#DejaVuSans-30" x="83.789062"/>
      <use xlink:href="#DejaVuSans-2e" x="147.412109"/>
      <use xlink:href="#DejaVuSans-33" x="179.199219"/>
     </g>
    </g>
   </g>
   <g id="xtick_10">
    <g id="line2d_12">
     <path d="M 455.750505 387.275585 
L 461.168512 388.984639 
" style="fill: none; stroke: #000000; stroke-width: 0.8; stroke-linecap: square"/>
    </g>
    <g id="text_12">
     <!-- −0.2 -->
     <g transform="translate(458.040913 408.579854) scale(0.1 -0.1)">
      <use xlink:href="#DejaVuSans-2212"/>
      <use xlink:href="#DejaVuSans-30" x="83.789062"/>
      <use xlink:href="#DejaVuSans-2e" x="147.412109"/>
      <use xlink:href="#DejaVuSans-32" x="179.199219"/>
     </g>
    </g>
   </g>
   <g id="xtick_11">
    <g id="line2d_13">
     <path d="M 470.756766 371.903055 
L 476.131753 373.57336 
" style="fill: none; stroke: #000000; stroke-width: 0.8; stroke-linecap: square"/>
    </g>
    <g id="text_13">
     <!-- −0.1 -->
     <g transform="translate(472.894826 393.038501) scale(0.1 -0.1)">
      <defs>
       <path id="DejaVuSans-31" d="M 794 531 
L 1825 531 
L 1825 4091 
L 703 3866 
L 703 4441 
L 1819 4666 
L 2450 4666 
L 2450 531 
L 3481 531 
L 3481 0 
L 794 0 
L 794 531 
z
" transform="scale(0.015625)"/>
      </defs>
      <use xlink:href="#DejaVuSans-2212"/>
      <use xlink:href="#DejaVuSans-30" x="83.789062"/>
      <use xlink:href="#DejaVuSans-2e" x="147.412109"/>
      <use xlink:href="#DejaVuSans-31" x="179.199219"/>
     </g>
    </g>
   </g>
   <g id="xtick_12">
    <g id="line2d_14">
     <path d="M 485.424904 356.876902 
L 490.757424 358.50976 
" style="fill: none; stroke: #000000; stroke-width: 0.8; stroke-linecap: square"/>
    </g>
    <g id="text_14">
     <!-- 0.0 -->
     <g transform="translate(491.603622 377.84761) scale(0.1 -0.1)">
      <use xlink:href="#DejaVuSans-30"/>
      <use xlink:href="#DejaVuSans-2e" x="63.623047"/>
      <use xlink:href="#DejaVuSans-30" x="95.410156"/>
     </g>
    </g>
   </g>
   <g id="xtick_13">
    <g id="line2d_15">
     <path d="M 499.76622 342.185549 
L 505.056819 343.782206 
" style="fill: none; stroke: #000000; stroke-width: 0.8; stroke-linecap: square"/>
    </g>
    <g id="text_15">
     <!-- 0.1 -->
     <g transform="translate(505.798818 362.995459) scale(0.1 -0.1)">
      <use xlink:href="#DejaVuSans-30"/>
      <use xlink:href="#DejaVuSans-2e" x="63.623047"/>
      <use xlink:href="#DejaVuSans-31" x="95.410156"/>
     </g>
    </g>
   </g>
   <g id="xtick_14">
    <g id="line2d_16">
     <path d="M 513.791515 327.817929 
L 519.040736 329.379575 
" style="fill: none; stroke: #000000; stroke-width: 0.8; stroke-linecap: square"/>
    </g>
    <g id="text_16">
     <!-- 0.2 -->
     <g transform="translate(519.680967 348.470842) scale(0.1 -0.1)">
      <use xlink:href="#DejaVuSans-30"/>
      <use xlink:href="#DejaVuSans-2e" x="63.623047"/>
      <use xlink:href="#DejaVuSans-32" x="95.410156"/>
     </g>
    </g>
   </g>
   <g id="xtick_15">
    <g id="line2d_17">
     <path d="M 527.511122 313.763458 
L 532.719501 315.291233 
" style="fill: none; stroke: #000000; stroke-width: 0.8; stroke-linecap: square"/>
    </g>
    <g id="text_17">
     <!-- 0.3 -->
     <g transform="translate(533.260312 334.263044) scale(0.1 -0.1)">
      <use xlink:href="#DejaVuSans-30"/>
      <use xlink:href="#DejaVuSans-2e" x="63.623047"/>
      <use xlink:href="#DejaVuSans-33" x="95.410156"/>
     </g>
    </g>
   </g>
  </g>
  <g id="axis3d_3">
   <g id="line2d_18">
    <path d="M 538.065167 305.221534 
L 545.40394 144.961499 
" style="fill: none; stroke: #000000; stroke-width: 0.8; stroke-linecap: square"/>
   </g>
   <g id="text_18">
    <!-- Sz -->
    <g transform="translate(575.603418 224.185747) scale(0.1 -0.1)">
     <defs>
      <path id="DejaVuSans-Bold-7a" d="M 366 3500 
L 3419 3500 
L 3419 2719 
L 1575 800 
L 3419 800 
L 3419 0 
L 288 0 
L 288 781 
L 2131 2700 
L 366 2700 
L 366 3500 
z
" transform="scale(0.015625)"/>
     </defs>
     <use xlink:href="#DejaVuSans-Bold-53"/>
     <use xlink:href="#DejaVuSans-Bold-7a" x="72.021484"/>
    </g>
   </g>
   <g id="Line3DCollection_3">
    <path d="M 538.871302 287.617621 
L 332.223348 228.398668 
L 203.394649 334.845932 
" style="fill: none; stroke: #b0b0b0; stroke-width: 0.8"/>
    <path d="M 540.378697 254.699972 
L 331.856981 196.538456 
L 201.770583 301.121152 
" style="fill: none; stroke: #b0b0b0; stroke-width: 0.8"/>
    <path d="M 541.913951 221.173936 
L 331.484169 164.117799 
L 200.115345 266.749056 
" style="fill: none; stroke: #b0b0b0; stroke-width: 0.8"/>
    <path d="M 543.477845 187.02249 
L 331.104741 131.121781 
L 198.428028 231.710826 
" style="fill: none; stroke: #b0b0b0; stroke-width: 0.8"/>
    <path d="M 545.071187 152.227969 
L 330.718519 97.534945 
L 196.707691 195.986908 
" style="fill: none; stroke: #b0b0b0; stroke-width: 0.8"/>
   </g>
   <g id="xtick_16">
    <g id="line2d_19">
     <path d="M 537.136557 287.120496 
L 542.344937 288.613058 
" style="fill: none; stroke: #000000; stroke-width: 0.8; stroke-linecap: square"/>
    </g>
    <g id="text_19">
     <!-- −0.4 -->
     <g transform="translate(545.083777 292.632204) scale(0.1 -0.1)">
      <use xlink:href="#DejaVuSans-2212"/>
      <use xlink:href="#DejaVuSans-30" x="83.789062"/>
      <use xlink:href="#DejaVuSans-2e" x="147.412109"/>
      <use xlink:href="#DejaVuSans-34" x="179.199219"/>
     </g>
    </g>
   </g>
   <g id="xtick_17">
    <g id="line2d_20">
     <path d="M 538.627469 254.211514 
L 543.885376 255.678065 
" style="fill: none; stroke: #000000; stroke-width: 0.8; stroke-linecap: square"/>
    </g>
    <g id="text_20">
     <!-- −0.2 -->
     <g transform="translate(546.755731 259.75964) scale(0.1 -0.1)">
      <use xlink:href="#DejaVuSans-2212"/>
      <use xlink:href="#DejaVuSans-30" x="83.789062"/>
      <use xlink:href="#DejaVuSans-2e" x="147.412109"/>
      <use xlink:href="#DejaVuSans-32" x="179.199219"/>
     </g>
    </g>
   </g>
   <g id="xtick_18">
    <g id="line2d_21">
     <path d="M 540.145925 220.694552 
L 545.454308 222.133872 
" style="fill: none; stroke: #000000; stroke-width: 0.8; stroke-linecap: square"/>
    </g>
    <g id="text_21">
     <!-- 0.0 -->
     <g transform="translate(552.648365 226.280802) scale(0.1 -0.1)">
      <use xlink:href="#DejaVuSans-30"/>
      <use xlink:href="#DejaVuSans-2e" x="63.623047"/>
      <use xlink:href="#DejaVuSans-30" x="95.410156"/>
     </g>
    </g>
   </g>
   <g id="xtick_19">
    <g id="line2d_22">
     <path d="M 541.692695 186.552604 
L 547.052531 187.963417 
" style="fill: none; stroke: #000000; stroke-width: 0.8; stroke-linecap: square"/>
    </g>
    <g id="text_22">
     <!-- 0.2 -->
     <g transform="translate(554.382853 192.178762) scale(0.1 -0.1)">
      <use xlink:href="#DejaVuSans-30"/>
      <use xlink:href="#DejaVuSans-2e" x="63.623047"/>
      <use xlink:href="#DejaVuSans-32" x="95.410156"/>
     </g>
    </g>
   </g>
   <g id="xtick_20">
    <g id="line2d_23">
     <path d="M 543.268579 151.768026 
L 548.680874 153.148997 
" style="fill: none; stroke: #000000; stroke-width: 0.8; stroke-linecap: square"/>
    </g>
    <g id="text_23">
     <!-- 0.4 -->
     <g transform="translate(556.149931 157.435955) scale(0.1 -0.1)">
      <use xlink:href="#DejaVuSans-30"/>
      <use xlink:href="#DejaVuSans-2e" x="63.623047"/>
      <use xlink:href="#DejaVuSans-34" x="95.410156"/>
     </g>
    </g>
   </g>
  </g>
  <g id="axes_1">
   <g id="Path3DCollection_1">
    <defs>
     <path id="C0_0_b55aa92e65" d="M 0 2.236068 
C 0.593012 2.236068 1.161816 2.000462 1.581139 1.581139 
C 2.000462 1.161816 2.236068 0.593012 2.236068 -0 
C 2.236068 -0.593012 2.000462 -1.161816 1.581139 -1.581139 
C 1.161816 -2.000462 0.593012 -2.236068 0 -2.236068 
C -0.593012 -2.236068 -1.161816 -2.000462 -1.581139 -1.581139 
C -2.000462 -1.161816 -2.236068 -0.593012 -2.236068 0 
C -2.236068 0.593012 -2.000462 1.161816 -1.581139 1.581139 
C -1.161816 2.000462 -0.593012 2.236068 0 2.236068 
z
"/>
    </defs>
    <g clip-path="url(#pb92ad0836b)">
     <use xlink:href="#C0_0_b55aa92e65" x="415.917749" y="252.666041" style="fill: #3100ff; fill-opacity: 0.3; stroke: #3100ff; stroke-opacity: 0.3"/>
    </g>
    <g clip-path="url(#pb92ad0836b)">
     <use xlink:href="#C0_0_b55aa92e65" x="450.09531" y="220.25695" style="fill: #ff00c9; fill-opacity: 0.339448; stroke: #ff00c9; stroke-opacity: 0.339448"/>
    </g>
    <g clip-path="url(#pb92ad0836b)">
     <use xlink:href="#C0_0_b55aa92e65" x="382.694535" y="279.508324" style="fill: #00c7ff; fill-opacity: 0.487833; stroke: #00c7ff; stroke-opacity: 0.487833"/>
    </g>
    <g clip-path="url(#pb92ad0836b)">
     <use xlink:href="#C0_0_b55aa92e65" x="339.391306" y="285.09622" style="fill: #6cff00; fill-opacity: 0.656611; stroke: #6cff00; stroke-opacity: 0.656611"/>
    </g>
    <g clip-path="url(#pb92ad0836b)">
     <use xlink:href="#C0_0_b55aa92e65" x="477.679007" y="219.402831" style="fill: #ff0018; fill-opacity: 0.688923; stroke: #ff0018; stroke-opacity: 0.688923"/>
    </g>
    <g clip-path="url(#pb92ad0836b)">
     <use xlink:href="#C0_0_b55aa92e65" x="307.371825" y="276.53695" style="fill: #ff5300; fill-opacity: 0.843558; stroke: #ff5300; stroke-opacity: 0.843558"/>
    </g>
    <g clip-path="url(#pb92ad0836b)">
     <use xlink:href="#C0_0_b55aa92e65" x="321.947695" y="255.964627" style="fill: #ff0000; stroke: #ff0000"/>
    </g>
   </g>
   <g id="text_24">
    <!-- Average magnetic moment -->
    <g transform="translate(287.1975 54.48) scale(0.12 -0.12)">
     <defs>
      <path id="DejaVuSans-41" d="M 2188 4044 
L 1331 1722 
L 3047 1722 
L 2188 4044 
z
M 1831 4666 
L 2547 4666 
L 4325 0 
L 3669 0 
L 3244 1197 
L 1141 1197 
L 716 0 
L 50 0 
L 1831 4666 
z
" transform="scale(0.015625)"/>
      <path id="DejaVuSans-76" d="M 191 3500 
L 800 3500 
L 1894 563 
L 2988 3500 
L 3597 3500 
L 2284 0 
L 1503 0 
L 191 3500 
z
" transform="scale(0.015625)"/>
      <path id="DejaVuSans-65" d="M 3597 1894 
L 3597 1613 
L 953 1613 
Q 991 1019 1311 708 
Q 1631 397 2203 397 
Q 2534 397 2845 478 
Q 3156 559 3463 722 
L 3463 178 
Q 3153 47 2828 -22 
Q 2503 -91 2169 -91 
Q 1331 -91 842 396 
Q 353 884 353 1716 
Q 353 2575 817 3079 
Q 1281 3584 2069 3584 
Q 2775 3584 3186 3129 
Q 3597 2675 3597 1894 
z
M 3022 2063 
Q 3016 2534 2758 2815 
Q 2500 3097 2075 3097 
Q 1594 3097 1305 2825 
Q 1016 2553 972 2059 
L 3022 2063 
z
" transform="scale(0.015625)"/>
      <path id="DejaVuSans-72" d="M 2631 2963 
Q 2534 3019 2420 3045 
Q 2306 3072 2169 3072 
Q 1681 3072 1420 2755 
Q 1159 2438 1159 1844 
L 1159 0 
L 581 0 
L 581 3500 
L 1159 3500 
L 1159 2956 
Q 1341 3275 1631 3429 
Q 1922 3584 2338 3584 
Q 2397 3584 2469 3576 
Q 2541 3569 2628 3553 
L 2631 2963 
z
" transform="scale(0.015625)"/>
      <path id="DejaVuSans-61" d="M 2194 1759 
Q 1497 1759 1228 1600 
Q 959 1441 959 1056 
Q 959 750 1161 570 
Q 1363 391 1709 391 
Q 2188 391 2477 730 
Q 2766 1069 2766 1631 
L 2766 1759 
L 2194 1759 
z
M 3341 1997 
L 3341 0 
L 2766 0 
L 2766 531 
Q 2569 213 2275 61 
Q 1981 -91 1556 -91 
Q 1019 -91 701 211 
Q 384 513 384 1019 
Q 384 1609 779 1909 
Q 1175 2209 1959 2209 
L 2766 2209 
L 2766 2266 
Q 2766 2663 2505 2880 
Q 2244 3097 1772 3097 
Q 1472 3097 1187 3025 
Q 903 2953 641 2809 
L 641 3341 
Q 956 3463 1253 3523 
Q 1550 3584 1831 3584 
Q 2591 3584 2966 3190 
Q 3341 2797 3341 1997 
z
" transform="scale(0.015625)"/>
      <path id="DejaVuSans-67" d="M 2906 1791 
Q 2906 2416 2648 2759 
Q 2391 3103 1925 3103 
Q 1463 3103 1205 2759 
Q 947 2416 947 1791 
Q 947 1169 1205 825 
Q 1463 481 1925 481 
Q 2391 481 2648 825 
Q 2906 1169 2906 1791 
z
M 3481 434 
Q 3481 -459 3084 -895 
Q 2688 -1331 1869 -1331 
Q 1566 -1331 1297 -1286 
Q 1028 -1241 775 -1147 
L 775 -588 
Q 1028 -725 1275 -790 
Q 1522 -856 1778 -856 
Q 2344 -856 2625 -561 
Q 2906 -266 2906 331 
L 2906 616 
Q 2728 306 2450 153 
Q 2172 0 1784 0 
Q 1141 0 747 490 
Q 353 981 353 1791 
Q 353 2603 747 3093 
Q 1141 3584 1784 3584 
Q 2172 3584 2450 3431 
Q 2728 3278 2906 2969 
L 2906 3500 
L 3481 3500 
L 3481 434 
z
" transform="scale(0.015625)"/>
      <path id="DejaVuSans-20" transform="scale(0.015625)"/>
      <path id="DejaVuSans-6d" d="M 3328 2828 
Q 3544 3216 3844 3400 
Q 4144 3584 4550 3584 
Q 5097 3584 5394 3201 
Q 5691 2819 5691 2113 
L 5691 0 
L 5113 0 
L 5113 2094 
Q 5113 2597 4934 2840 
Q 4756 3084 4391 3084 
Q 3944 3084 3684 2787 
Q 3425 2491 3425 1978 
L 3425 0 
L 2847 0 
L 2847 2094 
Q 2847 2600 2669 2842 
Q 2491 3084 2119 3084 
Q 1678 3084 1418 2786 
Q 1159 2488 1159 1978 
L 1159 0 
L 581 0 
L 581 3500 
L 1159 3500 
L 1159 2956 
Q 1356 3278 1631 3431 
Q 1906 3584 2284 3584 
Q 2666 3584 2933 3390 
Q 3200 3197 3328 2828 
z
" transform="scale(0.015625)"/>
      <path id="DejaVuSans-6e" d="M 3513 2113 
L 3513 0 
L 2938 0 
L 2938 2094 
Q 2938 2591 2744 2837 
Q 2550 3084 2163 3084 
Q 1697 3084 1428 2787 
Q 1159 2491 1159 1978 
L 1159 0 
L 581 0 
L 581 3500 
L 1159 3500 
L 1159 2956 
Q 1366 3272 1645 3428 
Q 1925 3584 2291 3584 
Q 2894 3584 3203 3211 
Q 3513 2838 3513 2113 
z
" transform="scale(0.015625)"/>
      <path id="DejaVuSans-74" d="M 1172 4494 
L 1172 3500 
L 2356 3500 
L 2356 3053 
L 1172 3053 
L 1172 1153 
Q 1172 725 1289 603 
Q 1406 481 1766 481 
L 2356 481 
L 2356 0 
L 1766 0 
Q 1100 0 847 248 
Q 594 497 594 1153 
L 594 3053 
L 172 3053 
L 172 3500 
L 594 3500 
L 594 4494 
L 1172 4494 
z
" transform="scale(0.015625)"/>
      <path id="DejaVuSans-69" d="M 603 3500 
L 1178 3500 
L 1178 0 
L 603 0 
L 603 3500 
z
M 603 4863 
L 1178 4863 
L 1178 4134 
L 603 4134 
L 603 4863 
z
" transform="scale(0.015625)"/>
      <path id="DejaVuSans-63" d="M 3122 3366 
L 3122 2828 
Q 2878 2963 2633 3030 
Q 2388 3097 2138 3097 
Q 1578 3097 1268 2742 
Q 959 2388 959 1747 
Q 959 1106 1268 751 
Q 1578 397 2138 397 
Q 2388 397 2633 464 
Q 2878 531 3122 666 
L 3122 134 
Q 2881 22 2623 -34 
Q 2366 -91 2075 -91 
Q 1284 -91 818 406 
Q 353 903 353 1747 
Q 353 2603 823 3093 
Q 1294 3584 2113 3584 
Q 2378 3584 2631 3529 
Q 2884 3475 3122 3366 
z
" transform="scale(0.015625)"/>
      <path id="DejaVuSans-6f" d="M 1959 3097 
Q 1497 3097 1228 2736 
Q 959 2375 959 1747 
Q 959 1119 1226 758 
Q 1494 397 1959 397 
Q 2419 397 2687 759 
Q 2956 1122 2956 1747 
Q 2956 2369 2687 2733 
Q 2419 3097 1959 3097 
z
M 1959 3584 
Q 2709 3584 3137 3096 
Q 3566 2609 3566 1747 
Q 3566 888 3137 398 
Q 2709 -91 1959 -91 
Q 1206 -91 779 398 
Q 353 888 353 1747 
Q 353 2609 779 3096 
Q 1206 3584 1959 3584 
z
" transform="scale(0.015625)"/>
     </defs>
     <use xlink:href="#DejaVuSans-41"/>
     <use xlink:href="#DejaVuSans-76" x="62.533203"/>
     <use xlink:href="#DejaVuSans-65" x="121.712891"/>
     <use xlink:href="#DejaVuSans-72" x="183.236328"/>
     <use xlink:href="#DejaVuSans-61" x="224.349609"/>
     <use xlink:href="#DejaVuSans-67" x="285.628906"/>
     <use xlink:href="#DejaVuSans-65" x="349.105469"/>
     <use xlink:href="#DejaVuSans-20" x="410.628906"/>
     <use xlink:href="#DejaVuSans-6d" x="442.416016"/>
     <use xlink:href="#DejaVuSans-61" x="539.828125"/>
     <use xlink:href="#DejaVuSans-67" x="601.107422"/>
     <use xlink:href="#DejaVuSans-6e" x="664.583984"/>
     <use xlink:href="#DejaVuSans-65" x="727.962891"/>
     <use xlink:href="#DejaVuSans-74" x="789.486328"/>
     <use xlink:href="#DejaVuSans-69" x="828.695312"/>
     <use xlink:href="#DejaVuSans-63" x="856.478516"/>
     <use xlink:href="#DejaVuSans-20" x="911.458984"/>
     <use xlink:href="#DejaVuSans-6d" x="943.246094"/>
     <use xlink:href="#DejaVuSans-6f" x="1040.658203"/>
     <use xlink:href="#DejaVuSans-6d" x="1101.839844"/>
     <use xlink:href="#DejaVuSans-65" x="1199.251953"/>
     <use xlink:href="#DejaVuSans-6e" x="1260.775391"/>
     <use xlink:href="#DejaVuSans-74" x="1324.154297"/>
    </g>
   </g>
   <g id="Path3DCollection_2">
    <defs>
     <path id="C1_0_88a41a99a6" d="M 0 2.236068 
C 0.593012 2.236068 1.161816 2.000462 1.581139 1.581139 
C 2.000462 1.161816 2.236068 0.593012 2.236068 -0 
C 2.236068 -0.593012 2.000462 -1.161816 1.581139 -1.581139 
C 1.161816 -2.000462 0.593012 -2.236068 0 -2.236068 
C -0.593012 -2.236068 -1.161816 -2.000462 -1.581139 -1.581139 
C -2.000462 -1.161816 -2.236068 -0.593012 -2.236068 0 
C -2.236068 0.593012 -2.000462 1.161816 -1.581139 1.581139 
C -1.161816 2.000462 -0.593012 2.236068 0 2.236068 
z
"/>
    </defs>
    <g clip-path="url(#pb92ad0836b)">
     <use xlink:href="#C1_0_88a41a99a6" x="466.554698" y="239.48536" style="fill: #0074ff; fill-opacity: 0.3; stroke: #0074ff; stroke-opacity: 0.3"/>
    </g>
    <g clip-path="url(#pb92ad0836b)">
     <use xlink:href="#C1_0_88a41a99a6" x="437.656122" y="265.205951" style="fill: #a7ff00; fill-opacity: 0.33796; stroke: #a7ff00; stroke-opacity: 0.33796"/>
    </g>
    <g clip-path="url(#pb92ad0836b)">
     <use xlink:href="#C1_0_88a41a99a6" x="422.063463" y="278.587686" style="fill: #d1ff00; fill-opacity: 0.695757; stroke: #d1ff00; stroke-opacity: 0.695757"/>
    </g>
    <g clip-path="url(#pb92ad0836b)">
     <use xlink:href="#C1_0_88a41a99a6" x="467.868924" y="212.186655" style="fill: #ff0018; fill-opacity: 0.729144; stroke: #ff0018; stroke-opacity: 0.729144"/>
    </g>
    <g clip-path="url(#pb92ad0836b)">
     <use xlink:href="#C1_0_88a41a99a6" x="423.01074" y="263.014075" style="fill: #ff0000; fill-opacity: 0.794432; stroke: #ff0000; stroke-opacity: 0.794432"/>
    </g>
    <g clip-path="url(#pb92ad0836b)">
     <use xlink:href="#C1_0_88a41a99a6" x="416.347382" y="267.573238" style="fill: #ff1200; fill-opacity: 0.973041; stroke: #ff1200; stroke-opacity: 0.973041"/>
    </g>
    <g clip-path="url(#pb92ad0836b)">
     <use xlink:href="#C1_0_88a41a99a6" x="417.783978" y="277.991815" style="fill: #f4ff00; stroke: #f4ff00"/>
    </g>
   </g>
   <g id="Path3DCollection_3">
    <defs>
     <path id="C2_0_c9f2286128" d="M 0 2.236068 
C 0.593012 2.236068 1.161816 2.000462 1.581139 1.581139 
C 2.000462 1.161816 2.236068 0.593012 2.236068 -0 
C 2.236068 -0.593012 2.000462 -1.161816 1.581139 -1.581139 
C 1.161816 -2.000462 0.593012 -2.236068 0 -2.236068 
C -0.593012 -2.236068 -1.161816 -2.000462 -1.581139 -1.581139 
C -2.000462 -1.161816 -2.236068 -0.593012 -2.236068 0 
C -2.236068 0.593012 -2.000462 1.161816 -1.581139 1.581139 
C -1.161816 2.000462 -0.593012 2.236068 0 2.236068 
z
"/>
    </defs>
    <g clip-path="url(#pb92ad0836b)">
     <use xlink:href="#C2_0_c9f2286128" x="424.096177" y="217.328428" style="fill: #9b00ff; fill-opacity: 0.3; stroke: #9b00ff; stroke-opacity: 0.3"/>
    </g>
    <g clip-path="url(#pb92ad0836b)">
     <use xlink:href="#C2_0_c9f2286128" x="385.788023" y="227.402865" style="fill: #ff0000; fill-opacity: 0.449372; stroke: #ff0000; stroke-opacity: 0.449372"/>
    </g>
    <g clip-path="url(#pb92ad0836b)">
     <use xlink:href="#C2_0_c9f2286128" x="380.370461" y="261.710345" style="fill: #78ff00; fill-opacity: 0.492536; stroke: #78ff00; stroke-opacity: 0.492536"/>
    </g>
    <g clip-path="url(#pb92ad0836b)">
     <use xlink:href="#C2_0_c9f2286128" x="449.775078" y="187.129282" style="fill: #ff0018; fill-opacity: 0.499535; stroke: #ff0018; stroke-opacity: 0.499535"/>
    </g>
    <g clip-path="url(#pb92ad0836b)">
     <use xlink:href="#C2_0_c9f2286128" x="413.631389" y="210.990438" style="fill: #cbff00; fill-opacity: 0.703322; stroke: #cbff00; stroke-opacity: 0.703322"/>
    </g>
    <g clip-path="url(#pb92ad0836b)">
     <use xlink:href="#C2_0_c9f2286128" x="363.548825" y="272.191583" style="fill: #ff4d00; fill-opacity: 0.880666; stroke: #ff4d00; stroke-opacity: 0.880666"/>
    </g>
    <g clip-path="url(#pb92ad0836b)">
     <use xlink:href="#C2_0_c9f2286128" x="394.770499" y="238.603751" style="fill: #d7ff00; stroke: #d7ff00"/>
    </g>
   </g>
   <g id="legend_1">
    <g id="patch_6">
     <path d="M 499.616562 215.26125 
L 556.04 215.26125 
Q 558.04 215.26125 558.04 213.26125 
L 558.04 67.48 
Q 558.04 65.48 556.04 65.48 
L 499.616562 65.48 
Q 497.616562 65.48 497.616562 67.48 
L 497.616562 213.26125 
Q 497.616562 215.26125 499.616562 215.26125 
z
" style="fill: #ffffff; opacity: 0.8; stroke: #cccccc; stroke-linejoin: miter"/>
    </g>
    <g id="Path3DCollection_4">
     <path d="M 511.616562 76.689505 
C 512.209575 76.689505 512.778378 76.453899 513.197701 76.034576 
C 513.617024 75.615253 513.85263 75.04645 513.85263 74.453438 
C 513.85263 73.860425 513.617024 73.291622 513.197701 72.872299 
C 512.778378 72.452976 512.209575 72.21737 511.616562 72.21737 
C 511.02355 72.21737 510.454747 72.452976 510.035424 72.872299 
C 509.616101 73.291622 509.380495 73.860425 509.380495 74.453438 
C 509.380495 75.04645 509.616101 75.615253 510.035424 76.034576 
C 510.454747 76.453899 511.02355 76.689505 511.616562 76.689505 
z
" style="fill: #ff0018; stroke: #ff0018"/>
    </g>
    <g id="text_25">
     <!-- site0 -->
     <g transform="translate(529.616562 77.078438) scale(0.1 -0.1)">
      <defs>
       <path id="DejaVuSans-73" d="M 2834 3397 
L 2834 2853 
Q 2591 2978 2328 3040 
Q 2066 3103 1784 3103 
Q 1356 3103 1142 2972 
Q 928 2841 928 2578 
Q 928 2378 1081 2264 
Q 1234 2150 1697 2047 
L 1894 2003 
Q 2506 1872 2764 1633 
Q 3022 1394 3022 966 
Q 3022 478 2636 193 
Q 2250 -91 1575 -91 
Q 1294 -91 989 -36 
Q 684 19 347 128 
L 347 722 
Q 666 556 975 473 
Q 1284 391 1588 391 
Q 1994 391 2212 530 
Q 2431 669 2431 922 
Q 2431 1156 2273 1281 
Q 2116 1406 1581 1522 
L 1381 1569 
Q 847 1681 609 1914 
Q 372 2147 372 2553 
Q 372 3047 722 3315 
Q 1072 3584 1716 3584 
Q 2034 3584 2315 3537 
Q 2597 3491 2834 3397 
z
" transform="scale(0.015625)"/>
      </defs>
      <use xlink:href="#DejaVuSans-73"/>
      <use xlink:href="#DejaVuSans-69" x="52.099609"/>
      <use xlink:href="#DejaVuSans-74" x="79.882812"/>
      <use xlink:href="#DejaVuSans-65" x="119.091797"/>
      <use xlink:href="#DejaVuSans-30" x="180.615234"/>
     </g>
    </g>
    <g id="Path3DCollection_5">
     <path d="M 511.616562 91.36763 
C 512.209575 91.36763 512.778378 91.132024 513.197701 90.712701 
C 513.617024 90.293378 513.85263 89.724575 513.85263 89.131563 
C 513.85263 88.53855 513.617024 87.969747 513.197701 87.550424 
C 512.778378 87.131101 512.209575 86.895495 511.616562 86.895495 
C 511.02355 86.895495 510.454747 87.131101 510.035424 87.550424 
C 509.616101 87.969747 509.380495 88.53855 509.380495 89.131563 
C 509.380495 89.724575 509.616101 90.293378 510.035424 90.712701 
C 510.454747 91.132024 511.02355 91.36763 511.616562 91.36763 
z
" style="fill: #ff0018; stroke: #ff0018"/>
    </g>
    <g id="text_26">
     <!-- site1 -->
     <g transform="translate(529.616562 91.756563) scale(0.1 -0.1)">
      <use xlink:href="#DejaVuSans-73"/>
      <use xlink:href="#DejaVuSans-69" x="52.099609"/>
      <use xlink:href="#DejaVuSans-74" x="79.882812"/>
      <use xlink:href="#DejaVuSans-65" x="119.091797"/>
      <use xlink:href="#DejaVuSans-31" x="180.615234"/>
     </g>
    </g>
    <g id="Path3DCollection_6">
     <path d="M 511.616562 106.045755 
C 512.209575 106.045755 512.778378 105.810149 513.197701 105.390826 
C 513.617024 104.971503 513.85263 104.4027 513.85263 103.809688 
C 513.85263 103.216675 513.617024 102.647872 513.197701 102.228549 
C 512.778378 101.809226 512.209575 101.57362 511.616562 101.57362 
C 511.02355 101.57362 510.454747 101.809226 510.035424 102.228549 
C 509.616101 102.647872 509.380495 103.216675 509.380495 103.809688 
C 509.380495 104.4027 509.616101 104.971503 510.035424 105.390826 
C 510.454747 105.810149 511.02355 106.045755 511.616562 106.045755 
z
" style="fill: #ff0018; stroke: #ff0018"/>
    </g>
    <g id="text_27">
     <!-- site2 -->
     <g transform="translate(529.616562 106.434688) scale(0.1 -0.1)">
      <use xlink:href="#DejaVuSans-73"/>
      <use xlink:href="#DejaVuSans-69" x="52.099609"/>
      <use xlink:href="#DejaVuSans-74" x="79.882812"/>
      <use xlink:href="#DejaVuSans-65" x="119.091797"/>
      <use xlink:href="#DejaVuSans-32" x="180.615234"/>
     </g>
    </g>
    <g id="Path3DCollection_7">
     <path d="M 511.616562 120.72388 
C 512.209575 120.72388 512.778378 120.488274 513.197701 120.068951 
C 513.617024 119.649628 513.85263 119.080825 513.85263 118.487813 
C 513.85263 117.8948 513.617024 117.325997 513.197701 116.906674 
C 512.778378 116.487351 512.209575 116.251745 511.616562 116.251745 
C 511.02355 116.251745 510.454747 116.487351 510.035424 116.906674 
C 509.616101 117.325997 509.380495 117.8948 509.380495 118.487813 
C 509.380495 119.080825 509.616101 119.649628 510.035424 120.068951 
C 510.454747 120.488274 511.02355 120.72388 511.616562 120.72388 
z
" style="fill: #ff0018; stroke: #ff0018"/>
    </g>
    <g id="text_28">
     <!-- site3 -->
     <g transform="translate(529.616562 121.112813) scale(0.1 -0.1)">
      <use xlink:href="#DejaVuSans-73"/>
      <use xlink:href="#DejaVuSans-69" x="52.099609"/>
      <use xlink:href="#DejaVuSans-74" x="79.882812"/>
      <use xlink:href="#DejaVuSans-65" x="119.091797"/>
      <use xlink:href="#DejaVuSans-33" x="180.615234"/>
     </g>
    </g>
    <g id="Path3DCollection_8">
     <path d="M 511.616562 135.402005 
C 512.209575 135.402005 512.778378 135.166399 513.197701 134.747076 
C 513.617024 134.327753 513.85263 133.75895 513.85263 133.165938 
C 513.85263 132.572925 513.617024 132.004122 513.197701 131.584799 
C 512.778378 131.165476 512.209575 130.92987 511.616562 130.92987 
C 511.02355 130.92987 510.454747 131.165476 510.035424 131.584799 
C 509.616101 132.004122 509.380495 132.572925 509.380495 133.165938 
C 509.380495 133.75895 509.616101 134.327753 510.035424 134.747076 
C 510.454747 135.166399 511.02355 135.402005 511.616562 135.402005 
z
" style="fill: #ff0018; stroke: #ff0018"/>
    </g>
    <g id="text_29">
     <!-- site4 -->
     <g transform="translate(529.616562 135.790938) scale(0.1 -0.1)">
      <use xlink:href="#DejaVuSans-73"/>
      <use xlink:href="#DejaVuSans-69" x="52.099609"/>
      <use xlink:href="#DejaVuSans-74" x="79.882812"/>
      <use xlink:href="#DejaVuSans-65" x="119.091797"/>
      <use xlink:href="#DejaVuSans-34" x="180.615234"/>
     </g>
    </g>
    <g id="Path3DCollection_9">
     <path d="M 511.616562 150.08013 
C 512.209575 150.08013 512.778378 149.844524 513.197701 149.425201 
C 513.617024 149.005878 513.85263 148.437075 513.85263 147.844063 
C 513.85263 147.25105 513.617024 146.682247 513.197701 146.262924 
C 512.778378 145.843601 512.209575 145.607995 511.616562 145.607995 
C 511.02355 145.607995 510.454747 145.843601 510.035424 146.262924 
C 509.616101 146.682247 509.380495 147.25105 509.380495 147.844063 
C 509.380495 148.437075 509.616101 149.005878 510.035424 149.425201 
C 510.454747 149.844524 511.02355 150.08013 511.616562 150.08013 
z
" style="fill: #ff0018; stroke: #ff0018"/>
    </g>
    <g id="text_30">
     <!-- site5 -->
     <g transform="translate(529.616562 150.469063) scale(0.1 -0.1)">
      <use xlink:href="#DejaVuSans-73"/>
      <use xlink:href="#DejaVuSans-69" x="52.099609"/>
      <use xlink:href="#DejaVuSans-74" x="79.882812"/>
      <use xlink:href="#DejaVuSans-65" x="119.091797"/>
      <use xlink:href="#DejaVuSans-35" x="180.615234"/>
     </g>
    </g>
    <g id="Path3DCollection_10">
     <path d="M 511.616562 164.758255 
C 512.209575 164.758255 512.778378 164.522649 513.197701 164.103326 
C 513.617024 163.684003 513.85263 163.1152 513.85263 162.522188 
C 513.85263 161.929175 513.617024 161.360372 513.197701 160.941049 
C 512.778378 160.521726 512.209575 160.28612 511.616562 160.28612 
C 511.02355 160.28612 510.454747 160.521726 510.035424 160.941049 
C 509.616101 161.360372 509.380495 161.929175 509.380495 162.522188 
C 509.380495 163.1152 509.616101 163.684003 510.035424 164.103326 
C 510.454747 164.522649 511.02355 164.758255 511.616562 164.758255 
z
" style="fill: #ff0018; stroke: #ff0018"/>
    </g>
    <g id="text_31">
     <!-- site6 -->
     <g transform="translate(529.616562 165.147188) scale(0.1 -0.1)">
      <defs>
       <path id="DejaVuSans-36" d="M 2113 2584 
Q 1688 2584 1439 2293 
Q 1191 2003 1191 1497 
Q 1191 994 1439 701 
Q 1688 409 2113 409 
Q 2538 409 2786 701 
Q 3034 994 3034 1497 
Q 3034 2003 2786 2293 
Q 2538 2584 2113 2584 
z
M 3366 4563 
L 3366 3988 
Q 3128 4100 2886 4159 
Q 2644 4219 2406 4219 
Q 1781 4219 1451 3797 
Q 1122 3375 1075 2522 
Q 1259 2794 1537 2939 
Q 1816 3084 2150 3084 
Q 2853 3084 3261 2657 
Q 3669 2231 3669 1497 
Q 3669 778 3244 343 
Q 2819 -91 2113 -91 
Q 1303 -91 875 529 
Q 447 1150 447 2328 
Q 447 3434 972 4092 
Q 1497 4750 2381 4750 
Q 2619 4750 2861 4703 
Q 3103 4656 3366 4563 
z
" transform="scale(0.015625)"/>
      </defs>
      <use xlink:href="#DejaVuSans-73"/>
      <use xlink:href="#DejaVuSans-69" x="52.099609"/>
      <use xlink:href="#DejaVuSans-74" x="79.882812"/>
      <use xlink:href="#DejaVuSans-65" x="119.091797"/>
      <use xlink:href="#DejaVuSans-36" x="180.615234"/>
     </g>
    </g>
    <g id="Path3DCollection_11">
     <path d="M 511.616562 179.43638 
C 512.209575 179.43638 512.778378 179.200774 513.197701 178.781451 
C 513.617024 178.362128 513.85263 177.793325 513.85263 177.200313 
C 513.85263 176.6073 513.617024 176.038497 513.197701 175.619174 
C 512.778378 175.199851 512.209575 174.964245 511.616562 174.964245 
C 511.02355 174.964245 510.454747 175.199851 510.035424 175.619174 
C 509.616101 176.038497 509.380495 176.6073 509.380495 177.200313 
C 509.380495 177.793325 509.616101 178.362128 510.035424 178.781451 
C 510.454747 179.200774 511.02355 179.43638 511.616562 179.43638 
z
" style="fill: #ff0018; stroke: #ff0018"/>
    </g>
    <g id="text_32">
     <!-- site7 -->
     <g transform="translate(529.616562 179.825313) scale(0.1 -0.1)">
      <defs>
       <path id="DejaVuSans-37" d="M 525 4666 
L 3525 4666 
L 3525 4397 
L 1831 0 
L 1172 0 
L 2766 4134 
L 525 4134 
L 525 4666 
z
" transform="scale(0.015625)"/>
      </defs>
      <use xlink:href="#DejaVuSans-73"/>
      <use xlink:href="#DejaVuSans-69" x="52.099609"/>
      <use xlink:href="#DejaVuSans-74" x="79.882812"/>
      <use xlink:href="#DejaVuSans-65" x="119.091797"/>
      <use xlink:href="#DejaVuSans-37" x="180.615234"/>
     </g>
    </g>
    <g id="Path3DCollection_12">
     <path d="M 511.616562 194.114505 
C 512.209575 194.114505 512.778378 193.878899 513.197701 193.459576 
C 513.617024 193.040253 513.85263 192.47145 513.85263 191.878438 
C 513.85263 191.285425 513.617024 190.716622 513.197701 190.297299 
C 512.778378 189.877976 512.209575 189.64237 511.616562 189.64237 
C 511.02355 189.64237 510.454747 189.877976 510.035424 190.297299 
C 509.616101 190.716622 509.380495 191.285425 509.380495 191.878438 
C 509.380495 192.47145 509.616101 193.040253 510.035424 193.459576 
C 510.454747 193.878899 511.02355 194.114505 511.616562 194.114505 
z
" style="fill: #ff0018; stroke: #ff0018"/>
    </g>
    <g id="text_33">
     <!-- site8 -->
     <g transform="translate(529.616562 194.503438) scale(0.1 -0.1)">
      <defs>
       <path id="DejaVuSans-38" d="M 2034 2216 
Q 1584 2216 1326 1975 
Q 1069 1734 1069 1313 
Q 1069 891 1326 650 
Q 1584 409 2034 409 
Q 2484 409 2743 651 
Q 3003 894 3003 1313 
Q 3003 1734 2745 1975 
Q 2488 2216 2034 2216 
z
M 1403 2484 
Q 997 2584 770 2862 
Q 544 3141 544 3541 
Q 544 4100 942 4425 
Q 1341 4750 2034 4750 
Q 2731 4750 3128 4425 
Q 3525 4100 3525 3541 
Q 3525 3141 3298 2862 
Q 3072 2584 2669 2484 
Q 3125 2378 3379 2068 
Q 3634 1759 3634 1313 
Q 3634 634 3220 271 
Q 2806 -91 2034 -91 
Q 1263 -91 848 271 
Q 434 634 434 1313 
Q 434 1759 690 2068 
Q 947 2378 1403 2484 
z
M 1172 3481 
Q 1172 3119 1398 2916 
Q 1625 2713 2034 2713 
Q 2441 2713 2670 2916 
Q 2900 3119 2900 3481 
Q 2900 3844 2670 4047 
Q 2441 4250 2034 4250 
Q 1625 4250 1398 4047 
Q 1172 3844 1172 3481 
z
" transform="scale(0.015625)"/>
      </defs>
      <use xlink:href="#DejaVuSans-73"/>
      <use xlink:href="#DejaVuSans-69" x="52.099609"/>
      <use xlink:href="#DejaVuSans-74" x="79.882812"/>
      <use xlink:href="#DejaVuSans-65" x="119.091797"/>
      <use xlink:href="#DejaVuSans-38" x="180.615234"/>
     </g>
    </g>
    <g id="Path3DCollection_13">
     <path d="M 511.616562 208.79263 
C 512.209575 208.79263 512.778378 208.557024 513.197701 208.137701 
C 513.617024 207.718378 513.85263 207.149575 513.85263 206.556563 
C 513.85263 205.96355 513.617024 205.394747 513.197701 204.975424 
C 512.778378 204.556101 512.209575 204.320495 511.616562 204.320495 
C 511.02355 204.320495 510.454747 204.556101 510.035424 204.975424 
C 509.616101 205.394747 509.380495 205.96355 509.380495 206.556563 
C 509.380495 207.149575 509.616101 207.718378 510.035424 208.137701 
C 510.454747 208.557024 511.02355 208.79263 511.616562 208.79263 
z
" style="fill: #ff0018; stroke: #ff0018"/>
    </g>
    <g id="text_34">
     <!-- site9 -->
     <g transform="translate(529.616562 209.181563) scale(0.1 -0.1)">
      <defs>
       <path id="DejaVuSans-39" d="M 703 97 
L 703 672 
Q 941 559 1184 500 
Q 1428 441 1663 441 
Q 2288 441 2617 861 
Q 2947 1281 2994 2138 
Q 2813 1869 2534 1725 
Q 2256 1581 1919 1581 
Q 1219 1581 811 2004 
Q 403 2428 403 3163 
Q 403 3881 828 4315 
Q 1253 4750 1959 4750 
Q 2769 4750 3195 4129 
Q 3622 3509 3622 2328 
Q 3622 1225 3098 567 
Q 2575 -91 1691 -91 
Q 1453 -91 1209 -44 
Q 966 3 703 97 
z
M 1959 2075 
Q 2384 2075 2632 2365 
Q 2881 2656 2881 3163 
Q 2881 3666 2632 3958 
Q 2384 4250 1959 4250 
Q 1534 4250 1286 3958 
Q 1038 3666 1038 3163 
Q 1038 2656 1286 2365 
Q 1534 2075 1959 2075 
z
" transform="scale(0.015625)"/>
      </defs>
      <use xlink:href="#DejaVuSans-73"/>
      <use xlink:href="#DejaVuSans-69" x="52.099609"/>
      <use xlink:href="#DejaVuSans-74" x="79.882812"/>
      <use xlink:href="#DejaVuSans-65" x="119.091797"/>
      <use xlink:href="#DejaVuSans-39" x="180.615234"/>
     </g>
    </g>
   </g>
   <g id="Path3DCollection_14">
    <defs>
     <path id="C3_0_9399a6fee9" d="M 0 2.236068 
C 0.593012 2.236068 1.161816 2.000462 1.581139 1.581139 
C 2.000462 1.161816 2.236068 0.593012 2.236068 -0 
C 2.236068 -0.593012 2.000462 -1.161816 1.581139 -1.581139 
C 1.161816 -2.000462 0.593012 -2.236068 0 -2.236068 
C -0.593012 -2.236068 -1.161816 -2.000462 -1.581139 -1.581139 
C -2.000462 -1.161816 -2.236068 -0.593012 -2.236068 0 
C -2.236068 0.593012 -2.000462 1.161816 -1.581139 1.581139 
C -1.161816 2.000462 -0.593012 2.236068 0 2.236068 
z
"/>
    </defs>
    <g clip-path="url(#pb92ad0836b)">
     <use xlink:href="#C3_0_9399a6fee9" x="276.650491" y="298.884598" style="fill: #002dff; fill-opacity: 0.3; stroke: #002dff; stroke-opacity: 0.3"/>
    </g>
    <g clip-path="url(#pb92ad0836b)">
     <use xlink:href="#C3_0_9399a6fee9" x="421.152741" y="278.62284" style="fill: #ff0094; fill-opacity: 0.311557; stroke: #ff0094; stroke-opacity: 0.311557"/>
    </g>
    <g clip-path="url(#pb92ad0836b)">
     <use xlink:href="#C3_0_9399a6fee9" x="371.414466" y="264.775984" style="fill: #d1ff00; fill-opacity: 0.332037; stroke: #d1ff00; stroke-opacity: 0.332037"/>
    </g>
    <g clip-path="url(#pb92ad0836b)">
     <use xlink:href="#C3_0_9399a6fee9" x="389.482538" y="221.229645" style="fill: #ff0000; fill-opacity: 0.537442; stroke: #ff0000; stroke-opacity: 0.537442"/>
    </g>
    <g clip-path="url(#pb92ad0836b)">
     <use xlink:href="#C3_0_9399a6fee9" x="226.716471" y="273.76517" style="fill: #06ff04; fill-opacity: 0.883423; stroke: #06ff04; stroke-opacity: 0.883423"/>
    </g>
    <g clip-path="url(#pb92ad0836b)">
     <use xlink:href="#C3_0_9399a6fee9" x="474.248423" y="277.145393" style="fill: #ff0018; fill-opacity: 0.995791; stroke: #ff0018; stroke-opacity: 0.995791"/>
    </g>
    <g clip-path="url(#pb92ad0836b)">
     <use xlink:href="#C3_0_9399a6fee9" x="313.912666" y="221.208084" style="fill: #d7ff00; stroke: #d7ff00"/>
    </g>
   </g>
   <g id="Path3DCollection_15">
    <defs>
     <path id="C4_0_a6c88031dc" d="M 0 2.236068 
C 0.593012 2.236068 1.161816 2.000462 1.581139 1.581139 
C 2.000462 1.161816 2.236068 0.593012 2.236068 -0 
C 2.236068 -0.593012 2.000462 -1.161816 1.581139 -1.581139 
C 1.161816 -2.000462 0.593012 -2.236068 0 -2.236068 
C -0.593012 -2.236068 -1.161816 -2.000462 -1.581139 -1.581139 
C -2.000462 -1.161816 -2.236068 -0.593012 -2.236068 0 
C -2.236068 0.593012 -2.000462 1.161816 -1.581139 1.581139 
C -1.161816 2.000462 -0.593012 2.236068 0 2.236068 
z
"/>
    </defs>
    <g clip-path="url(#pb92ad0836b)">
     <use xlink:href="#C4_0_a6c88031dc" x="318.262899" y="289.859547" style="fill: #ff0018; fill-opacity: 0.3; stroke: #ff0018; stroke-opacity: 0.3"/>
    </g>
    <g clip-path="url(#pb92ad0836b)">
     <use xlink:href="#C4_0_a6c88031dc" x="325.286691" y="309.56386" style="fill: #9000ff; fill-opacity: 0.59061; stroke: #9000ff; stroke-opacity: 0.59061"/>
    </g>
    <g clip-path="url(#pb92ad0836b)">
     <use xlink:href="#C4_0_a6c88031dc" x="343.013113" y="307.601864" style="fill: #00c7ff; fill-opacity: 0.835757; stroke: #00c7ff; stroke-opacity: 0.835757"/>
    </g>
    <g clip-path="url(#pb92ad0836b)">
     <use xlink:href="#C4_0_a6c88031dc" x="378.163719" y="247.343331" style="fill: #ff0000; fill-opacity: 0.92865; stroke: #ff0000; stroke-opacity: 0.92865"/>
    </g>
    <g clip-path="url(#pb92ad0836b)">
     <use xlink:href="#C4_0_a6c88031dc" x="359.553435" y="295.165054" style="fill: #00ffbb; fill-opacity: 0.965657; stroke: #00ffbb; stroke-opacity: 0.965657"/>
    </g>
    <g clip-path="url(#pb92ad0836b)">
     <use xlink:href="#C4_0_a6c88031dc" x="377.870867" y="266.513067" style="fill: #bfff00; fill-opacity: 0.981853; stroke: #bfff00; stroke-opacity: 0.981853"/>
    </g>
    <g clip-path="url(#pb92ad0836b)">
     <use xlink:href="#C4_0_a6c88031dc" x="371.546029" y="281.204081" style="fill: #00ff33; stroke: #00ff33"/>
    </g>
   </g>
   <g id="Path3DCollection_16">
    <defs>
     <path id="C5_0_1d592ab9b0" d="M 0 2.236068 
C 0.593012 2.236068 1.161816 2.000462 1.581139 1.581139 
C 2.000462 1.161816 2.236068 0.593012 2.236068 -0 
C 2.236068 -0.593012 2.000462 -1.161816 1.581139 -1.581139 
C 1.161816 -2.000462 0.593012 -2.236068 0 -2.236068 
C -0.593012 -2.236068 -1.161816 -2.000462 -1.581139 -1.581139 
C -2.000462 -1.161816 -2.236068 -0.593012 -2.236068 0 
C -2.236068 0.593012 -2.000462 1.161816 -1.581139 1.581139 
C -1.161816 2.000462 -0.593012 2.236068 0 2.236068 
z
"/>
    </defs>
    <g clip-path="url(#pb92ad0836b)">
     <use xlink:href="#C5_0_1d592ab9b0" x="316.42363" y="265.417386" style="fill: #ff1200; fill-opacity: 0.3; stroke: #ff1200; stroke-opacity: 0.3"/>
    </g>
    <g clip-path="url(#pb92ad0836b)">
     <use xlink:href="#C5_0_1d592ab9b0" x="416.652399" y="235.638283" style="fill: #06ff04; fill-opacity: 0.386434; stroke: #06ff04; stroke-opacity: 0.386434"/>
    </g>
    <g clip-path="url(#pb92ad0836b)">
     <use xlink:href="#C5_0_1d592ab9b0" x="336.414484" y="312.582597" style="fill: #ff0018; fill-opacity: 0.50225; stroke: #ff0018; stroke-opacity: 0.50225"/>
    </g>
    <g clip-path="url(#pb92ad0836b)">
     <use xlink:href="#C5_0_1d592ab9b0" x="262.368098" y="278.888202" style="fill: #ff0000; fill-opacity: 0.618012; stroke: #ff0000; stroke-opacity: 0.618012"/>
    </g>
    <g clip-path="url(#pb92ad0836b)">
     <use xlink:href="#C5_0_1d592ab9b0" x="295.849362" y="262.561698" style="fill: #ff4d00; fill-opacity: 0.854286; stroke: #ff4d00; stroke-opacity: 0.854286"/>
    </g>
    <g clip-path="url(#pb92ad0836b)">
     <use xlink:href="#C5_0_1d592ab9b0" x="449.914844" y="250.371745" style="fill: #0e00ff; fill-opacity: 0.877407; stroke: #0e00ff; stroke-opacity: 0.877407"/>
    </g>
    <g clip-path="url(#pb92ad0836b)">
     <use xlink:href="#C5_0_1d592ab9b0" x="379.304666" y="306.030713" style="fill: #ff00e1; stroke: #ff00e1"/>
    </g>
   </g>
   <g id="Path3DCollection_17">
    <defs>
     <path id="C6_0_cf43f5df61" d="M 0 2.236068 
C 0.593012 2.236068 1.161816 2.000462 1.581139 1.581139 
C 2.000462 1.161816 2.236068 0.593012 2.236068 -0 
C 2.236068 -0.593012 2.000462 -1.161816 1.581139 -1.581139 
C 1.161816 -2.000462 0.593012 -2.236068 0 -2.236068 
C -0.593012 -2.236068 -1.161816 -2.000462 -1.581139 -1.581139 
C -2.000462 -1.161816 -2.236068 -0.593012 -2.236068 0 
C -2.236068 0.593012 -2.000462 1.161816 -1.581139 1.581139 
C -1.161816 2.000462 -0.593012 2.236068 0 2.236068 
z
"/>
    </defs>
    <g clip-path="url(#pb92ad0836b)">
     <use xlink:href="#C6_0_cf43f5df61" x="399.726367" y="200.1705" style="fill: #9cff00; fill-opacity: 0.3; stroke: #9cff00; stroke-opacity: 0.3"/>
    </g>
    <g clip-path="url(#pb92ad0836b)">
     <use xlink:href="#C6_0_cf43f5df61" x="417.106236" y="240.966068" style="fill: #00ff80; fill-opacity: 0.377931; stroke: #00ff80; stroke-opacity: 0.377931"/>
    </g>
    <g clip-path="url(#pb92ad0836b)">
     <use xlink:href="#C6_0_cf43f5df61" x="412.551107" y="255.124192" style="fill: #08ff00; fill-opacity: 0.466574; stroke: #08ff00; stroke-opacity: 0.466574"/>
    </g>
    <g clip-path="url(#pb92ad0836b)">
     <use xlink:href="#C6_0_cf43f5df61" x="360.057949" y="172.866823" style="fill: #ff0000; fill-opacity: 0.474443; stroke: #ff0000; stroke-opacity: 0.474443"/>
    </g>
    <g clip-path="url(#pb92ad0836b)">
     <use xlink:href="#C6_0_cf43f5df61" x="396.352598" y="315.434745" style="fill: #ff0018; fill-opacity: 0.818907; stroke: #ff0018; stroke-opacity: 0.818907"/>
    </g>
    <g clip-path="url(#pb92ad0836b)">
     <use xlink:href="#C6_0_cf43f5df61" x="315.532653" y="210.113896" style="fill: #ff7c00; fill-opacity: 0.835191; stroke: #ff7c00; stroke-opacity: 0.835191"/>
    </g>
    <g clip-path="url(#pb92ad0836b)">
     <use xlink:href="#C6_0_cf43f5df61" x="326.038297" y="288.300744" style="fill: #0028ff; stroke: #0028ff"/>
    </g>
   </g>
   <g id="Path3DCollection_18">
    <defs>
     <path id="C7_0_5c83502641" d="M 0 2.236068 
C 0.593012 2.236068 1.161816 2.000462 1.581139 1.581139 
C 2.000462 1.161816 2.236068 0.593012 2.236068 -0 
C 2.236068 -0.593012 2.000462 -1.161816 1.581139 -1.581139 
C 1.161816 -2.000462 0.593012 -2.236068 0 -2.236068 
C -0.593012 -2.236068 -1.161816 -2.000462 -1.581139 -1.581139 
C -2.000462 -1.161816 -2.236068 -0.593012 -2.236068 0 
C -2.236068 0.593012 -2.000462 1.161816 -1.581139 1.581139 
C -1.161816 2.000462 -0.593012 2.236068 0 2.236068 
z
"/>
    </defs>
    <g clip-path="url(#pb92ad0836b)">
     <use xlink:href="#C7_0_5c83502641" x="408.142788" y="234.83136" style="fill: #ff0000; fill-opacity: 0.3; stroke: #ff0000; stroke-opacity: 0.3"/>
    </g>
    <g clip-path="url(#pb92ad0836b)">
     <use xlink:href="#C7_0_5c83502641" x="400.84959" y="249.290994" style="fill: #ff0000; fill-opacity: 0.325131; stroke: #ff0000; stroke-opacity: 0.325131"/>
    </g>
    <g clip-path="url(#pb92ad0836b)">
     <use xlink:href="#C7_0_5c83502641" x="426.028673" y="217.722067" style="fill: #bfff00; fill-opacity: 0.343081; stroke: #bfff00; stroke-opacity: 0.343081"/>
    </g>
    <g clip-path="url(#pb92ad0836b)">
     <use xlink:href="#C7_0_5c83502641" x="405.910493" y="265.023515" style="fill: #ffe000; fill-opacity: 0.433753; stroke: #ffe000; stroke-opacity: 0.433753"/>
    </g>
    <g clip-path="url(#pb92ad0836b)">
     <use xlink:href="#C7_0_5c83502641" x="415.037423" y="186.83092" style="fill: #00ffa3; fill-opacity: 0.465478; stroke: #00ffa3; stroke-opacity: 0.465478"/>
    </g>
    <g clip-path="url(#pb92ad0836b)">
     <use xlink:href="#C7_0_5c83502641" x="339.340213" y="168.908902" style="fill: #7200ff; fill-opacity: 0.725413; stroke: #7200ff; stroke-opacity: 0.725413"/>
    </g>
    <g clip-path="url(#pb92ad0836b)">
     <use xlink:href="#C7_0_5c83502641" x="251.812856" y="206.739432" style="fill: #ff0018; stroke: #ff0018"/>
    </g>
   </g>
   <g id="Path3DCollection_19">
    <defs>
     <path id="C8_0_d3f030ae2c" d="M 0 2.236068 
C 0.593012 2.236068 1.161816 2.000462 1.581139 1.581139 
C 2.000462 1.161816 2.236068 0.593012 2.236068 -0 
C 2.236068 -0.593012 2.000462 -1.161816 1.581139 -1.581139 
C 1.161816 -2.000462 0.593012 -2.236068 0 -2.236068 
C -0.593012 -2.236068 -1.161816 -2.000462 -1.581139 -1.581139 
C -2.000462 -1.161816 -2.236068 -0.593012 -2.236068 0 
C -2.236068 0.593012 -2.000462 1.161816 -1.581139 1.581139 
C -1.161816 2.000462 -0.593012 2.236068 0 2.236068 
z
"/>
    </defs>
    <g clip-path="url(#pb92ad0836b)">
     <use xlink:href="#C8_0_d3f030ae2c" x="288.256913" y="311.274473" style="fill: #ff0018; fill-opacity: 0.3; stroke: #ff0018; stroke-opacity: 0.3"/>
    </g>
    <g clip-path="url(#pb92ad0836b)">
     <use xlink:href="#C8_0_d3f030ae2c" x="402.203528" y="244.225624" style="fill: #ff0000; fill-opacity: 0.690418; stroke: #ff0000; stroke-opacity: 0.690418"/>
    </g>
    <g clip-path="url(#pb92ad0836b)">
     <use xlink:href="#C8_0_d3f030ae2c" x="418.385973" y="279.912183" style="fill: #00ff6e; fill-opacity: 0.732098; stroke: #00ff6e; stroke-opacity: 0.732098"/>
    </g>
    <g clip-path="url(#pb92ad0836b)">
     <use xlink:href="#C8_0_d3f030ae2c" x="248.181397" y="300.476213" style="fill: #0604ff; fill-opacity: 0.765348; stroke: #0604ff; stroke-opacity: 0.765348"/>
    </g>
    <g clip-path="url(#pb92ad0836b)">
     <use xlink:href="#C8_0_d3f030ae2c" x="394.94392" y="273.653322" style="fill: #cbff00; fill-opacity: 0.775377; stroke: #cbff00; stroke-opacity: 0.775377"/>
    </g>
    <g clip-path="url(#pb92ad0836b)">
     <use xlink:href="#C8_0_d3f030ae2c" x="415.916481" y="258.100067" style="fill: #00ff33; fill-opacity: 0.84525; stroke: #00ff33; stroke-opacity: 0.84525"/>
    </g>
    <g clip-path="url(#pb92ad0836b)">
     <use xlink:href="#C8_0_d3f030ae2c" x="332.860033" y="261.348772" style="fill: #00ffd3; stroke: #00ffd3"/>
    </g>
   </g>
   <g id="Path3DCollection_20">
    <defs>
     <path id="C9_0_34a29a4b0e" d="M 0 2.236068 
C 0.593012 2.236068 1.161816 2.000462 1.581139 1.581139 
C 2.000462 1.161816 2.236068 0.593012 2.236068 -0 
C 2.236068 -0.593012 2.000462 -1.161816 1.581139 -1.581139 
C 1.161816 -2.000462 0.593012 -2.236068 0 -2.236068 
C -0.593012 -2.236068 -1.161816 -2.000462 -1.581139 -1.581139 
C -2.000462 -1.161816 -2.236068 -0.593012 -2.236068 0 
C -2.236068 0.593012 -2.000462 1.161816 -1.581139 1.581139 
C -1.161816 2.000462 -0.593012 2.236068 0 2.236068 
z
"/>
    </defs>
    <g clip-path="url(#pb92ad0836b)">
     <use xlink:href="#C9_0_34a29a4b0e" x="450.241905" y="274.284868" style="fill: #00ff7a; fill-opacity: 0.3; stroke: #00ff7a; stroke-opacity: 0.3"/>
    </g>
    <g clip-path="url(#pb92ad0836b)">
     <use xlink:href="#C9_0_34a29a4b0e" x="439.497685" y="293.128513" style="fill: #020cff; fill-opacity: 0.331594; stroke: #020cff; stroke-opacity: 0.331594"/>
    </g>
    <g clip-path="url(#pb92ad0836b)">
     <use xlink:href="#C9_0_34a29a4b0e" x="426.804469" y="289.098325" style="fill: #00ff27; fill-opacity: 0.365401; stroke: #00ff27; stroke-opacity: 0.365401"/>
    </g>
    <g clip-path="url(#pb92ad0836b)">
     <use xlink:href="#C9_0_34a29a4b0e" x="404.103496" y="286.137705" style="fill: #ff0000; fill-opacity: 0.391487; stroke: #ff0000; stroke-opacity: 0.391487"/>
    </g>
    <g clip-path="url(#pb92ad0836b)">
     <use xlink:href="#C9_0_34a29a4b0e" x="434.528329" y="292.148435" style="fill: #0080ff; fill-opacity: 0.402472; stroke: #0080ff; stroke-opacity: 0.402472"/>
    </g>
    <g clip-path="url(#pb92ad0836b)">
     <use xlink:href="#C9_0_34a29a4b0e" x="437.253787" y="239.688641" style="fill: #00fffc; fill-opacity: 0.596744; stroke: #00fffc; stroke-opacity: 0.596744"/>
    </g>
    <g clip-path="url(#pb92ad0836b)">
     <use xlink:href="#C9_0_34a29a4b0e" x="373.040589" y="224.071068" style="fill: #ff0018; stroke: #ff0018"/>
    </g>
   </g>
  </g>
 </g>
 <defs>
  <clipPath id="pb92ad0836b">
   <rect x="174.96" y="60.48" width="388.08" height="388.08"/>
  </clipPath>
 </defs>
</svg>
