<?xml version="1.0" encoding="utf-8" standalone="no"?>
<!DOCTYPE svg PUBLIC "-//W3C//DTD SVG 1.1//EN"
  "http://www.w3.org/Graphics/SVG/1.1/DTD/svg11.dtd">
<svg xmlns:xlink="http://www.w3.org/1999/xlink" width="720pt" height="504pt" viewBox="0 0 720 504" xmlns="http://www.w3.org/2000/svg" version="1.1">
 <metadata>
  <rdf:RDF xmlns:dc="http://purl.org/dc/elements/1.1/" xmlns:cc="http://creativecommons.org/ns#" xmlns:rdf="http://www.w3.org/1999/02/22-rdf-syntax-ns#">
   <cc:Work>
    <dc:type rdf:resource="http://purl.org/dc/dcmitype/StillImage"/>
    <dc:date>2024-07-12T09:23:30.254656</dc:date>
    <dc:format>image/svg+xml</dc:format>
    <dc:creator>
     <cc:Agent>
      <dc:title>Matplotlib v3.7.1, https://matplotlib.org/</dc:title>
     </cc:Agent>
    </dc:creator>
   </cc:Work>
  </rdf:RDF>
 </metadata>
 <defs>
  <style type="text/css">*{stroke-linejoin: round; stroke-linecap: butt}</style>
 </defs>
 <g id="figure_1">
  <g id="patch_1">
   <path d="M 0 504 
L 720 504 
L 720 0 
L 0 0 
z
" style="fill: #ffffff"/>
  </g>
  <g id="patch_2">
   <path d="M 174.96 448.56 
L 563.04 448.56 
L 563.04 60.48 
L 174.96 60.48 
z
" style="fill: #ffffff"/>
  </g>
  <g id="pane3d_1">
   <g id="patch_3">
    <path d="M 204.262716 352.871909 
L 332.419406 245.44843 
L 330.637906 90.52457 
L 196.348257 188.523039 
" style="fill: #f2f2f2; opacity: 0.5; stroke: #f2f2f2; stroke-linejoin: miter"/>
   </g>
  </g>
  <g id="pane3d_2">
   <g id="patch_4">
    <path d="M 332.419406 245.44843 
L 538.065167 305.221534 
L 545.40394 144.961499 
L 330.637906 90.52457 
" style="fill: #e6e6e6; opacity: 0.5; stroke: #e6e6e6; stroke-linejoin: miter"/>
   </g>
  </g>
  <g id="pane3d_3">
   <g id="patch_5">
    <path d="M 204.262716 352.871909 
L 422.257267 424.068929 
L 538.065167 305.221534 
L 332.419406 245.44843 
" style="fill: #ececec; opacity: 0.5; stroke: #ececec; stroke-linejoin: miter"/>
   </g>
  </g>
  <g id="axis3d_1">
   <g id="line2d_1">
    <path d="M 204.262716 352.871909 
L 422.257267 424.068929 
" style="fill: none; stroke: #000000; stroke-width: 0.8; stroke-linecap: square"/>
   </g>
   <g id="text_1">
    <!-- t -->
    <g transform="translate(292.177295 425.471519) scale(0.1 -0.1)">
     <defs>
      <path id="DejaVuSans-74" d="M 1172 4494 
L 1172 3500 
L 2356 3500 
L 2356 3053 
L 1172 3053 
L 1172 1153 
Q 1172 725 1289 603 
Q 1406 481 1766 481 
L 2356 481 
L 2356 0 
L 1766 0 
Q 1100 0 847 248 
Q 594 497 594 1153 
L 594 3053 
L 172 3053 
L 172 3500 
L 594 3500 
L 594 4494 
L 1172 4494 
z
" transform="scale(0.015625)"/>
     </defs>
     <use xlink:href="#DejaVuSans-74"/>
    </g>
   </g>
   <g id="Line3DCollection_1">
    <path d="M 210.574059 354.933194 
L 338.398808 247.186406 
L 336.869704 92.104149 
" style="fill: none; stroke: #b0b0b0; stroke-width: 0.8"/>
    <path d="M 244.918357 366.150041 
L 370.909957 256.636113 
L 370.766559 100.696014 
" style="fill: none; stroke: #b0b0b0; stroke-width: 0.8"/>
    <path d="M 279.852796 377.559629 
L 403.933317 266.234701 
L 405.220614 109.429112 
" style="fill: none; stroke: #b0b0b0; stroke-width: 0.8"/>
    <path d="M 315.392721 389.166968 
L 437.48109 275.985714 
L 440.24572 118.306956 
" style="fill: none; stroke: #b0b0b0; stroke-width: 0.8"/>
    <path d="M 351.55401 400.977245 
L 471.565866 285.892813 
L 475.856194 127.333173 
" style="fill: none; stroke: #b0b0b0; stroke-width: 0.8"/>
    <path d="M 388.353101 412.995828 
L 506.200645 295.959775 
L 512.066834 136.511515 
" style="fill: none; stroke: #b0b0b0; stroke-width: 0.8"/>
   </g>
   <g id="xtick_1">
    <g id="line2d_2">
     <path d="M 211.686996 353.995071 
L 208.343419 356.813458 
" style="fill: none; stroke: #000000; stroke-width: 0.8; stroke-linecap: square"/>
    </g>
    <g id="text_2">
     <!-- 0.02 -->
     <g transform="translate(191.916332 378.191444) scale(0.1 -0.1)">
      <defs>
       <path id="DejaVuSans-30" d="M 2034 4250 
Q 1547 4250 1301 3770 
Q 1056 3291 1056 2328 
Q 1056 1369 1301 889 
Q 1547 409 2034 409 
Q 2525 409 2770 889 
Q 3016 1369 3016 2328 
Q 3016 3291 2770 3770 
Q 2525 4250 2034 4250 
z
M 2034 4750 
Q 2819 4750 3233 4129 
Q 3647 3509 3647 2328 
Q 3647 1150 3233 529 
Q 2819 -91 2034 -91 
Q 1250 -91 836 529 
Q 422 1150 422 2328 
Q 422 3509 836 4129 
Q 1250 4750 2034 4750 
z
" transform="scale(0.015625)"/>
       <path id="DejaVuSans-2e" d="M 684 794 
L 1344 794 
L 1344 0 
L 684 0 
L 684 794 
z
" transform="scale(0.015625)"/>
       <path id="DejaVuSans-32" d="M 1228 531 
L 3431 531 
L 3431 0 
L 469 0 
L 469 531 
Q 828 903 1448 1529 
Q 2069 2156 2228 2338 
Q 2531 2678 2651 2914 
Q 2772 3150 2772 3378 
Q 2772 3750 2511 3984 
Q 2250 4219 1831 4219 
Q 1534 4219 1204 4116 
Q 875 4013 500 3803 
L 500 4441 
Q 881 4594 1212 4672 
Q 1544 4750 1819 4750 
Q 2544 4750 2975 4387 
Q 3406 4025 3406 3419 
Q 3406 3131 3298 2873 
Q 3191 2616 2906 2266 
Q 2828 2175 2409 1742 
Q 1991 1309 1228 531 
z
" transform="scale(0.015625)"/>
      </defs>
      <use xlink:href="#DejaVuSans-30"/>
      <use xlink:href="#DejaVuSans-2e" x="63.623047"/>
      <use xlink:href="#DejaVuSans-30" x="95.410156"/>
      <use xlink:href="#DejaVuSans-32" x="159.033203"/>
     </g>
    </g>
   </g>
   <g id="xtick_2">
    <g id="line2d_3">
     <path d="M 246.01609 365.195873 
L 242.718147 368.062499 
" style="fill: none; stroke: #000000; stroke-width: 0.8; stroke-linecap: square"/>
    </g>
    <g id="text_3">
     <!-- 0.03 -->
     <g transform="translate(226.284402 389.570782) scale(0.1 -0.1)">
      <defs>
       <path id="DejaVuSans-33" d="M 2597 2516 
Q 3050 2419 3304 2112 
Q 3559 1806 3559 1356 
Q 3559 666 3084 287 
Q 2609 -91 1734 -91 
Q 1441 -91 1130 -33 
Q 819 25 488 141 
L 488 750 
Q 750 597 1062 519 
Q 1375 441 1716 441 
Q 2309 441 2620 675 
Q 2931 909 2931 1356 
Q 2931 1769 2642 2001 
Q 2353 2234 1838 2234 
L 1294 2234 
L 1294 2753 
L 1863 2753 
Q 2328 2753 2575 2939 
Q 2822 3125 2822 3475 
Q 2822 3834 2567 4026 
Q 2313 4219 1838 4219 
Q 1578 4219 1281 4162 
Q 984 4106 628 3988 
L 628 4550 
Q 988 4650 1302 4700 
Q 1616 4750 1894 4750 
Q 2613 4750 3031 4423 
Q 3450 4097 3450 3541 
Q 3450 3153 3228 2886 
Q 3006 2619 2597 2516 
z
" transform="scale(0.015625)"/>
      </defs>
      <use xlink:href="#DejaVuSans-30"/>
      <use xlink:href="#DejaVuSans-2e" x="63.623047"/>
      <use xlink:href="#DejaVuSans-30" x="95.410156"/>
      <use xlink:href="#DejaVuSans-33" x="159.033203"/>
     </g>
    </g>
   </g>
   <g id="xtick_3">
    <g id="line2d_4">
     <path d="M 280.934639 376.589001 
L 277.684398 379.505114 
" style="fill: none; stroke: #000000; stroke-width: 0.8; stroke-linecap: square"/>
    </g>
    <g id="text_4">
     <!-- 0.04 -->
     <g transform="translate(261.244549 401.146158) scale(0.1 -0.1)">
      <defs>
       <path id="DejaVuSans-34" d="M 2419 4116 
L 825 1625 
L 2419 1625 
L 2419 4116 
z
M 2253 4666 
L 3047 4666 
L 3047 1625 
L 3713 1625 
L 3713 1100 
L 3047 1100 
L 3047 0 
L 2419 0 
L 2419 1100 
L 313 1100 
L 313 1709 
L 2253 4666 
z
" transform="scale(0.015625)"/>
      </defs>
      <use xlink:href="#DejaVuSans-30"/>
      <use xlink:href="#DejaVuSans-2e" x="63.623047"/>
      <use xlink:href="#DejaVuSans-30" x="95.410156"/>
      <use xlink:href="#DejaVuSans-34" x="159.033203"/>
     </g>
    </g>
   </g>
   <g id="xtick_4">
    <g id="line2d_5">
     <path d="M 316.457954 388.179451 
L 313.257573 391.146344 
" style="fill: none; stroke: #000000; stroke-width: 0.8; stroke-linecap: square"/>
    </g>
    <g id="text_5">
     <!-- 0.05 -->
     <g transform="translate(296.812207 412.922683) scale(0.1 -0.1)">
      <defs>
       <path id="DejaVuSans-35" d="M 691 4666 
L 3169 4666 
L 3169 4134 
L 1269 4134 
L 1269 2991 
Q 1406 3038 1543 3061 
Q 1681 3084 1819 3084 
Q 2600 3084 3056 2656 
Q 3513 2228 3513 1497 
Q 3513 744 3044 326 
Q 2575 -91 1722 -91 
Q 1428 -91 1123 -41 
Q 819 9 494 109 
L 494 744 
Q 775 591 1075 516 
Q 1375 441 1709 441 
Q 2250 441 2565 725 
Q 2881 1009 2881 1497 
Q 2881 1984 2565 2268 
Q 2250 2553 1709 2553 
Q 1456 2553 1204 2497 
Q 953 2441 691 2322 
L 691 4666 
z
" transform="scale(0.015625)"/>
      </defs>
      <use xlink:href="#DejaVuSans-30"/>
      <use xlink:href="#DejaVuSans-2e" x="63.623047"/>
      <use xlink:href="#DejaVuSans-30" x="95.410156"/>
      <use xlink:href="#DejaVuSans-35" x="159.033203"/>
     </g>
    </g>
   </g>
   <g id="xtick_5">
    <g id="line2d_6">
     <path d="M 352.601885 399.972393 
L 349.453613 402.991404 
" style="fill: none; stroke: #000000; stroke-width: 0.8; stroke-linecap: square"/>
    </g>
    <g id="text_6">
     <!-- 0.06 -->
     <g transform="translate(333.00335 424.905644) scale(0.1 -0.1)">
      <defs>
       <path id="DejaVuSans-36" d="M 2113 2584 
Q 1688 2584 1439 2293 
Q 1191 2003 1191 1497 
Q 1191 994 1439 701 
Q 1688 409 2113 409 
Q 2538 409 2786 701 
Q 3034 994 3034 1497 
Q 3034 2003 2786 2293 
Q 2538 2584 2113 2584 
z
M 3366 4563 
L 3366 3988 
Q 3128 4100 2886 4159 
Q 2644 4219 2406 4219 
Q 1781 4219 1451 3797 
Q 1122 3375 1075 2522 
Q 1259 2794 1537 2939 
Q 1816 3084 2150 3084 
Q 2853 3084 3261 2657 
Q 3669 2231 3669 1497 
Q 3669 778 3244 343 
Q 2819 -91 2113 -91 
Q 1303 -91 875 529 
Q 447 1150 447 2328 
Q 447 3434 972 4092 
Q 1497 4750 2381 4750 
Q 2619 4750 2861 4703 
Q 3103 4656 3366 4563 
z
" transform="scale(0.015625)"/>
      </defs>
      <use xlink:href="#DejaVuSans-30"/>
      <use xlink:href="#DejaVuSans-2e" x="63.623047"/>
      <use xlink:href="#DejaVuSans-30" x="95.410156"/>
      <use xlink:href="#DejaVuSans-36" x="159.033203"/>
     </g>
    </g>
   </g>
   <g id="xtick_6">
    <g id="line2d_7">
     <path d="M 389.382839 411.973182 
L 386.289021 415.045696 
" style="fill: none; stroke: #000000; stroke-width: 0.8; stroke-linecap: square"/>
    </g>
    <g id="text_7">
     <!-- 0.07 -->
     <g transform="translate(369.834516 437.100519) scale(0.1 -0.1)">
      <defs>
       <path id="DejaVuSans-37" d="M 525 4666 
L 3525 4666 
L 3525 4397 
L 1831 0 
L 1172 0 
L 2766 4134 
L 525 4134 
L 525 4666 
z
" transform="scale(0.015625)"/>
      </defs>
      <use xlink:href="#DejaVuSans-30"/>
      <use xlink:href="#DejaVuSans-2e" x="63.623047"/>
      <use xlink:href="#DejaVuSans-30" x="95.410156"/>
      <use xlink:href="#DejaVuSans-37" x="159.033203"/>
     </g>
    </g>
   </g>
  </g>
  <g id="axis3d_2">
   <g id="line2d_8">
    <path d="M 538.065167 305.221534 
L 422.257267 424.068929 
" style="fill: none; stroke: #000000; stroke-width: 0.8; stroke-linecap: square"/>
   </g>
   <g id="text_8">
    <!-- si -->
    <g transform="translate(505.720053 392.74383) scale(0.1 -0.1)">
     <defs>
      <path id="DejaVuSans-73" d="M 2834 3397 
L 2834 2853 
Q 2591 2978 2328 3040 
Q 2066 3103 1784 3103 
Q 1356 3103 1142 2972 
Q 928 2841 928 2578 
Q 928 2378 1081 2264 
Q 1234 2150 1697 2047 
L 1894 2003 
Q 2506 1872 2764 1633 
Q 3022 1394 3022 966 
Q 3022 478 2636 193 
Q 2250 -91 1575 -91 
Q 1294 -91 989 -36 
Q 684 19 347 128 
L 347 722 
Q 666 556 975 473 
Q 1284 391 1588 391 
Q 1994 391 2212 530 
Q 2431 669 2431 922 
Q 2431 1156 2273 1281 
Q 2116 1406 1581 1522 
L 1381 1569 
Q 847 1681 609 1914 
Q 372 2147 372 2553 
Q 372 3047 722 3315 
Q 1072 3584 1716 3584 
Q 2034 3584 2315 3537 
Q 2597 3491 2834 3397 
z
" transform="scale(0.015625)"/>
      <path id="DejaVuSans-69" d="M 603 3500 
L 1178 3500 
L 1178 0 
L 603 0 
L 603 3500 
z
M 603 4863 
L 1178 4863 
L 1178 4134 
L 603 4134 
L 603 4863 
z
" transform="scale(0.015625)"/>
     </defs>
     <use xlink:href="#DejaVuSans-73"/>
     <use xlink:href="#DejaVuSans-69" x="52.099609"/>
    </g>
   </g>
   <g id="Line3DCollection_2">
    <path d="M 200.461647 185.521274 
L 208.173825 349.59354 
L 425.806673 420.426366 
" style="fill: none; stroke: #b0b0b0; stroke-width: 0.8"/>
    <path d="M 219.90691 171.331008 
L 226.675146 334.085366 
L 442.583989 403.208712 
" style="fill: none; stroke: #b0b0b0; stroke-width: 0.8"/>
    <path d="M 238.877064 157.487453 
L 244.744015 318.939682 
L 458.94849 386.414708 
" style="fill: none; stroke: #b0b0b0; stroke-width: 0.8"/>
    <path d="M 257.389313 143.978057 
L 262.395418 304.143926 
L 474.915227 370.028908 
" style="fill: none; stroke: #b0b0b0; stroke-width: 0.8"/>
    <path d="M 275.460038 130.790865 
L 279.643658 289.686109 
L 490.498528 354.036607 
" style="fill: none; stroke: #b0b0b0; stroke-width: 0.8"/>
    <path d="M 293.104848 117.914486 
L 296.502391 275.554785 
L 505.712042 338.4238 
" style="fill: none; stroke: #b0b0b0; stroke-width: 0.8"/>
    <path d="M 310.338627 105.338059 
L 312.984665 261.739016 
L 520.568776 323.177135 
" style="fill: none; stroke: #b0b0b0; stroke-width: 0.8"/>
    <path d="M 327.17557 93.051225 
L 329.102949 248.22835 
L 535.081136 308.283884 
" style="fill: none; stroke: #b0b0b0; stroke-width: 0.8"/>
   </g>
   <g id="xtick_7">
    <g id="line2d_9">
     <path d="M 423.972365 419.829355 
L 429.480047 421.621936 
" style="fill: none; stroke: #000000; stroke-width: 0.8; stroke-linecap: square"/>
    </g>
    <g id="text_9">
     <!-- −0.30 -->
     <g transform="translate(423.403226 441.492098) scale(0.1 -0.1)">
      <defs>
       <path id="DejaVuSans-2212" d="M 678 2272 
L 4684 2272 
L 4684 1741 
L 678 1741 
L 678 2272 
z
" transform="scale(0.015625)"/>
      </defs>
      <use xlink:href="#DejaVuSans-2212"/>
      <use xlink:href="#DejaVuSans-30" x="83.789062"/>
      <use xlink:href="#DejaVuSans-2e" x="147.412109"/>
      <use xlink:href="#DejaVuSans-33" x="179.199219"/>
      <use xlink:href="#DejaVuSans-30" x="242.822266"/>
     </g>
    </g>
   </g>
   <g id="xtick_8">
    <g id="line2d_10">
     <path d="M 440.765364 402.626478 
L 446.225899 404.374671 
" style="fill: none; stroke: #000000; stroke-width: 0.8; stroke-linecap: square"/>
    </g>
    <g id="text_10">
     <!-- −0.25 -->
     <g transform="translate(440.026379 424.099624) scale(0.1 -0.1)">
      <use xlink:href="#DejaVuSans-2212"/>
      <use xlink:href="#DejaVuSans-30" x="83.789062"/>
      <use xlink:href="#DejaVuSans-2e" x="147.412109"/>
      <use xlink:href="#DejaVuSans-32" x="179.199219"/>
      <use xlink:href="#DejaVuSans-35" x="242.822266"/>
     </g>
    </g>
   </g>
   <g id="xtick_9">
    <g id="line2d_11">
     <path d="M 457.145336 385.846709 
L 462.559362 387.552143 
" style="fill: none; stroke: #000000; stroke-width: 0.8; stroke-linecap: square"/>
    </g>
    <g id="text_11">
     <!-- −0.20 -->
     <g transform="translate(456.240345 407.135274) scale(0.1 -0.1)">
      <use xlink:href="#DejaVuSans-2212"/>
      <use xlink:href="#DejaVuSans-30" x="83.789062"/>
      <use xlink:href="#DejaVuSans-2e" x="147.412109"/>
      <use xlink:href="#DejaVuSans-32" x="179.199219"/>
      <use xlink:href="#DejaVuSans-30" x="242.822266"/>
     </g>
    </g>
   </g>
   <g id="xtick_10">
    <g id="line2d_12">
     <path d="M 473.127333 369.474628 
L 478.495485 371.138853 
" style="fill: none; stroke: #000000; stroke-width: 0.8; stroke-linecap: square"/>
    </g>
    <g id="text_12">
     <!-- −0.15 -->
     <g transform="translate(472.06005 390.583431) scale(0.1 -0.1)">
      <defs>
       <path id="DejaVuSans-31" d="M 794 531 
L 1825 531 
L 1825 4091 
L 703 3866 
L 703 4441 
L 1819 4666 
L 2450 4666 
L 2450 531 
L 3481 531 
L 3481 0 
L 794 0 
L 794 531 
z
" transform="scale(0.015625)"/>
      </defs>
      <use xlink:href="#DejaVuSans-2212"/>
      <use xlink:href="#DejaVuSans-30" x="83.789062"/>
      <use xlink:href="#DejaVuSans-2e" x="147.412109"/>
      <use xlink:href="#DejaVuSans-31" x="179.199219"/>
      <use xlink:href="#DejaVuSans-35" x="242.822266"/>
     </g>
    </g>
   </g>
   <g id="xtick_11">
    <g id="line2d_13">
     <path d="M 488.725686 353.495556 
L 494.048592 355.120046 
" style="fill: none; stroke: #000000; stroke-width: 0.8; stroke-linecap: square"/>
    </g>
    <g id="text_13">
     <!-- −0.10 -->
     <g transform="translate(487.499702 374.429231) scale(0.1 -0.1)">
      <use xlink:href="#DejaVuSans-2212"/>
      <use xlink:href="#DejaVuSans-30" x="83.789062"/>
      <use xlink:href="#DejaVuSans-2e" x="147.412109"/>
      <use xlink:href="#DejaVuSans-31" x="179.199219"/>
      <use xlink:href="#DejaVuSans-30" x="242.822266"/>
     </g>
    </g>
   </g>
   <g id="xtick_12">
    <g id="line2d_14">
     <path d="M 503.954045 337.895509 
L 509.232328 339.481671 
" style="fill: none; stroke: #000000; stroke-width: 0.8; stroke-linecap: square"/>
    </g>
    <g id="text_14">
     <!-- −0.05 -->
     <g transform="translate(502.572832 358.658514) scale(0.1 -0.1)">
      <use xlink:href="#DejaVuSans-2212"/>
      <use xlink:href="#DejaVuSans-30" x="83.789062"/>
      <use xlink:href="#DejaVuSans-2e" x="147.412109"/>
      <use xlink:href="#DejaVuSans-30" x="179.199219"/>
      <use xlink:href="#DejaVuSans-35" x="242.822266"/>
     </g>
    </g>
   </g>
   <g id="xtick_13">
    <g id="line2d_15">
     <path d="M 518.825419 322.661159 
L 524.059696 324.210334 
" style="fill: none; stroke: #000000; stroke-width: 0.8; stroke-linecap: square"/>
    </g>
    <g id="text_15">
     <!-- 0.00 -->
     <g transform="translate(521.482184 343.257786) scale(0.1 -0.1)">
      <use xlink:href="#DejaVuSans-30"/>
      <use xlink:href="#DejaVuSans-2e" x="63.623047"/>
      <use xlink:href="#DejaVuSans-30" x="95.410156"/>
      <use xlink:href="#DejaVuSans-30" x="159.033203"/>
     </g>
    </g>
   </g>
   <g id="xtick_14">
    <g id="line2d_16">
     <path d="M 533.352216 307.779796 
L 538.543098 309.293263 
" style="fill: none; stroke: #000000; stroke-width: 0.8; stroke-linecap: square"/>
    </g>
    <g id="text_16">
     <!-- 0.05 -->
     <g transform="translate(535.86037 328.214177) scale(0.1 -0.1)">
      <use xlink:href="#DejaVuSans-30"/>
      <use xlink:href="#DejaVuSans-2e" x="63.623047"/>
      <use xlink:href="#DejaVuSans-30" x="95.410156"/>
      <use xlink:href="#DejaVuSans-35" x="159.033203"/>
     </g>
    </g>
   </g>
  </g>
  <g id="axis3d_3">
   <g id="line2d_17">
    <path d="M 538.065167 305.221534 
L 545.40394 144.961499 
" style="fill: none; stroke: #000000; stroke-width: 0.8; stroke-linecap: square"/>
   </g>
   <g id="Line3DCollection_3">
    <path d="M 538.366938 298.631626 
L 332.346003 239.065038 
L 203.937799 346.124785 
" style="fill: none; stroke: #b0b0b0; stroke-width: 0.8"/>
    <path d="M 539.270475 278.900696 
L 332.126299 219.959071 
L 202.96469 325.917543 
" style="fill: none; stroke: #b0b0b0; stroke-width: 0.8"/>
    <path d="M 540.184015 258.951315 
L 331.90428 200.651676 
L 201.980396 305.47805 
" style="fill: none; stroke: #b0b0b0; stroke-width: 0.8"/>
    <path d="M 541.107726 238.779836 
L 331.679907 181.139648 
L 200.984724 284.80228 
" style="fill: none; stroke: #b0b0b0; stroke-width: 0.8"/>
    <path d="M 542.041778 218.382529 
L 331.453143 161.419719 
L 199.977476 263.886112 
" style="fill: none; stroke: #b0b0b0; stroke-width: 0.8"/>
    <path d="M 542.986345 197.755581 
L 331.223951 141.488547 
L 198.958447 242.725329 
" style="fill: none; stroke: #b0b0b0; stroke-width: 0.8"/>
    <path d="M 543.941608 176.895091 
L 330.99229 121.342719 
L 197.927431 221.315613 
" style="fill: none; stroke: #b0b0b0; stroke-width: 0.8"/>
    <path d="M 544.907748 155.79707 
L 330.75812 100.97875 
L 196.884215 199.652548 
" style="fill: none; stroke: #b0b0b0; stroke-width: 0.8"/>
   </g>
   <g id="xtick_15">
    <g id="line2d_18">
     <path d="M 536.637706 298.131655 
L 541.829523 299.632759 
" style="fill: none; stroke: #000000; stroke-width: 0.8; stroke-linecap: square"/>
    </g>
    <g id="text_17">
     <!-- −0.50 -->
     <g transform="translate(541.343089 303.631402) scale(0.1 -0.1)">
      <use xlink:href="#DejaVuSans-2212"/>
      <use xlink:href="#DejaVuSans-30" x="83.789062"/>
      <use xlink:href="#DejaVuSans-2e" x="147.412109"/>
      <use xlink:href="#DejaVuSans-35" x="179.199219"/>
      <use xlink:href="#DejaVuSans-30" x="242.822266"/>
     </g>
    </g>
   </g>
   <g id="xtick_16">
    <g id="line2d_19">
     <path d="M 537.531367 278.405843 
L 542.752859 279.891587 
" style="fill: none; stroke: #000000; stroke-width: 0.8; stroke-linecap: square"/>
    </g>
    <g id="text_18">
     <!-- −0.48 -->
     <g transform="translate(542.345283 283.927096) scale(0.1 -0.1)">
      <defs>
       <path id="DejaVuSans-38" d="M 2034 2216 
Q 1584 2216 1326 1975 
Q 1069 1734 1069 1313 
Q 1069 891 1326 650 
Q 1584 409 2034 409 
Q 2484 409 2743 651 
Q 3003 894 3003 1313 
Q 3003 1734 2745 1975 
Q 2488 2216 2034 2216 
z
M 1403 2484 
Q 997 2584 770 2862 
Q 544 3141 544 3541 
Q 544 4100 942 4425 
Q 1341 4750 2034 4750 
Q 2731 4750 3128 4425 
Q 3525 4100 3525 3541 
Q 3525 3141 3298 2862 
Q 3072 2584 2669 2484 
Q 3125 2378 3379 2068 
Q 3634 1759 3634 1313 
Q 3634 634 3220 271 
Q 2806 -91 2034 -91 
Q 1263 -91 848 271 
Q 434 634 434 1313 
Q 434 1759 690 2068 
Q 947 2378 1403 2484 
z
M 1172 3481 
Q 1172 3119 1398 2916 
Q 1625 2713 2034 2713 
Q 2441 2713 2670 2916 
Q 2900 3119 2900 3481 
Q 2900 3844 2670 4047 
Q 2441 4250 2034 4250 
Q 1625 4250 1398 4047 
Q 1172 3844 1172 3481 
z
" transform="scale(0.015625)"/>
      </defs>
      <use xlink:href="#DejaVuSans-2212"/>
      <use xlink:href="#DejaVuSans-30" x="83.789062"/>
      <use xlink:href="#DejaVuSans-2e" x="147.412109"/>
      <use xlink:href="#DejaVuSans-34" x="179.199219"/>
      <use xlink:href="#DejaVuSans-38" x="242.822266"/>
     </g>
    </g>
   </g>
   <g id="xtick_17">
    <g id="line2d_20">
     <path d="M 538.434917 258.461724 
L 543.686426 259.931676 
" style="fill: none; stroke: #000000; stroke-width: 0.8; stroke-linecap: square"/>
    </g>
    <g id="text_19">
     <!-- −0.46 -->
     <g transform="translate(543.35855 264.00509) scale(0.1 -0.1)">
      <use xlink:href="#DejaVuSans-2212"/>
      <use xlink:href="#DejaVuSans-30" x="83.789062"/>
      <use xlink:href="#DejaVuSans-2e" x="147.412109"/>
      <use xlink:href="#DejaVuSans-34" x="179.199219"/>
      <use xlink:href="#DejaVuSans-36" x="242.822266"/>
     </g>
    </g>
   </g>
   <g id="xtick_18">
    <g id="line2d_21">
     <path d="M 539.348522 238.295656 
L 544.630394 239.74937 
" style="fill: none; stroke: #000000; stroke-width: 0.8; stroke-linecap: square"/>
    </g>
    <g id="text_20">
     <!-- −0.44 -->
     <g transform="translate(544.383074 243.861756) scale(0.1 -0.1)">
      <use xlink:href="#DejaVuSans-2212"/>
      <use xlink:href="#DejaVuSans-30" x="83.789062"/>
      <use xlink:href="#DejaVuSans-2e" x="147.412109"/>
      <use xlink:href="#DejaVuSans-34" x="179.199219"/>
      <use xlink:href="#DejaVuSans-34" x="242.822266"/>
     </g>
    </g>
   </g>
   <g id="xtick_19">
    <g id="line2d_22">
     <path d="M 540.272352 217.903912 
L 545.584939 219.340931 
" style="fill: none; stroke: #000000; stroke-width: 0.8; stroke-linecap: square"/>
    </g>
    <g id="text_21">
     <!-- −0.42 -->
     <g transform="translate(545.419044 223.493383) scale(0.1 -0.1)">
      <use xlink:href="#DejaVuSans-2212"/>
      <use xlink:href="#DejaVuSans-30" x="83.789062"/>
      <use xlink:href="#DejaVuSans-2e" x="147.412109"/>
      <use xlink:href="#DejaVuSans-34" x="179.199219"/>
      <use xlink:href="#DejaVuSans-32" x="242.822266"/>
     </g>
    </g>
   </g>
   <g id="xtick_20">
    <g id="line2d_23">
     <path d="M 541.206578 197.282682 
L 546.55024 198.702537 
" style="fill: none; stroke: #000000; stroke-width: 0.8; stroke-linecap: square"/>
    </g>
    <g id="text_22">
     <!-- −0.40 -->
     <g transform="translate(546.466653 202.896181) scale(0.1 -0.1)">
      <use xlink:href="#DejaVuSans-2212"/>
      <use xlink:href="#DejaVuSans-30" x="83.789062"/>
      <use xlink:href="#DejaVuSans-2e" x="147.412109"/>
      <use xlink:href="#DejaVuSans-34" x="179.199219"/>
      <use xlink:href="#DejaVuSans-30" x="242.822266"/>
     </g>
    </g>
   </g>
   <g id="xtick_21">
    <g id="line2d_24">
     <path d="M 542.151378 176.428071 
L 547.526479 177.830281 
" style="fill: none; stroke: #000000; stroke-width: 0.8; stroke-linecap: square"/>
    </g>
    <g id="text_23">
     <!-- −0.38 -->
     <g transform="translate(547.526097 182.066272) scale(0.1 -0.1)">
      <use xlink:href="#DejaVuSans-2212"/>
      <use xlink:href="#DejaVuSans-30" x="83.789062"/>
      <use xlink:href="#DejaVuSans-2e" x="147.412109"/>
      <use xlink:href="#DejaVuSans-33" x="179.199219"/>
      <use xlink:href="#DejaVuSans-38" x="242.822266"/>
     </g>
    </g>
   </g>
   <g id="xtick_22">
    <g id="line2d_25">
     <path d="M 543.106931 155.336095 
L 548.513843 156.720164 
" style="fill: none; stroke: #000000; stroke-width: 0.8; stroke-linecap: square"/>
    </g>
    <g id="text_24">
     <!-- −0.36 -->
     <g transform="translate(548.597579 160.999688) scale(0.1 -0.1)">
      <use xlink:href="#DejaVuSans-2212"/>
      <use xlink:href="#DejaVuSans-30" x="83.789062"/>
      <use xlink:href="#DejaVuSans-2e" x="147.412109"/>
      <use xlink:href="#DejaVuSans-33" x="179.199219"/>
      <use xlink:href="#DejaVuSans-36" x="242.822266"/>
     </g>
    </g>
   </g>
  </g>
  <g id="axes_1">
   <g id="Path3DCollection_1">
    <defs>
     <path id="C0_0_bb85ba4f6b" d="M 0 2.236068 
C 0.593012 2.236068 1.161816 2.000462 1.581139 1.581139 
C 2.000462 1.161816 2.236068 0.593012 2.236068 -0 
C 2.236068 -0.593012 2.000462 -1.161816 1.581139 -1.581139 
C 1.161816 -2.000462 0.593012 -2.236068 0 -2.236068 
C -0.593012 -2.236068 -1.161816 -2.000462 -1.581139 -1.581139 
C -2.000462 -1.161816 -2.236068 -0.593012 -2.236068 0 
C -2.236068 0.593012 -2.000462 1.161816 -1.581139 1.581139 
C -1.161816 2.000462 -0.593012 2.236068 0 2.236068 
z
"/>
    </defs>
    <g clip-path="url(#pb61996bb0f)">
     <use xlink:href="#C0_0_bb85ba4f6b" x="363.087243" y="279.024355" style="fill: #008000; fill-opacity: 0.3; stroke: #008000; stroke-opacity: 0.3"/>
    </g>
    <g clip-path="url(#pb61996bb0f)">
     <use xlink:href="#C0_0_bb85ba4f6b" x="373.269441" y="280.041909" style="fill: #008000; fill-opacity: 0.300294; stroke: #008000; stroke-opacity: 0.300294"/>
    </g>
    <g clip-path="url(#pb61996bb0f)">
     <use xlink:href="#C0_0_bb85ba4f6b" x="353.435051" y="278.020252" style="fill: #008000; fill-opacity: 0.300633; stroke: #008000; stroke-opacity: 0.300633"/>
    </g>
    <g clip-path="url(#pb61996bb0f)">
     <use xlink:href="#C0_0_bb85ba4f6b" x="383.977283" y="281.072689" style="fill: #008000; fill-opacity: 0.301513; stroke: #008000; stroke-opacity: 0.301513"/>
    </g>
    <g clip-path="url(#pb61996bb0f)">
     <use xlink:href="#C0_0_bb85ba4f6b" x="344.317282" y="277.029657" style="fill: #008000; fill-opacity: 0.302193; stroke: #008000; stroke-opacity: 0.302193"/>
    </g>
    <g clip-path="url(#pb61996bb0f)">
     <use xlink:href="#C0_0_bb85ba4f6b" x="395.206513" y="282.116734" style="fill: #008000; fill-opacity: 0.303654; stroke: #008000; stroke-opacity: 0.303654"/>
    </g>
    <g clip-path="url(#pb61996bb0f)">
     <use xlink:href="#C0_0_bb85ba4f6b" x="335.738444" y="276.052706" style="fill: #008000; fill-opacity: 0.304685; stroke: #008000; stroke-opacity: 0.304685"/>
    </g>
    <g clip-path="url(#pb61996bb0f)">
     <use xlink:href="#C0_0_bb85ba4f6b" x="406.952881" y="283.173847" style="fill: #008000; fill-opacity: 0.306718; stroke: #008000; stroke-opacity: 0.306718"/>
    </g>
    <g clip-path="url(#pb61996bb0f)">
     <use xlink:href="#C0_0_bb85ba4f6b" x="327.70315" y="275.089555" style="fill: #008000; fill-opacity: 0.308108; stroke: #008000; stroke-opacity: 0.308108"/>
    </g>
    <g clip-path="url(#pb61996bb0f)">
     <use xlink:href="#C0_0_bb85ba4f6b" x="419.21226" y="284.244043" style="fill: #008000; fill-opacity: 0.310701; stroke: #008000; stroke-opacity: 0.310701"/>
    </g>
    <g clip-path="url(#pb61996bb0f)">
     <use xlink:href="#C0_0_bb85ba4f6b" x="320.216103" y="274.140437" style="fill: #008000; fill-opacity: 0.312467; stroke: #008000; stroke-opacity: 0.312467"/>
    </g>
    <g clip-path="url(#pb61996bb0f)">
     <use xlink:href="#C0_0_bb85ba4f6b" x="431.980494" y="285.327218" style="fill: #008000; fill-opacity: 0.315604; stroke: #008000; stroke-opacity: 0.315604"/>
    </g>
    <g clip-path="url(#pb61996bb0f)">
     <use xlink:href="#C0_0_bb85ba4f6b" x="313.282107" y="273.20555" style="fill: #008000; fill-opacity: 0.317762; stroke: #008000; stroke-opacity: 0.317762"/>
    </g>
    <g clip-path="url(#pb61996bb0f)">
     <use xlink:href="#C0_0_bb85ba4f6b" x="445.25352" y="286.423416" style="fill: #008000; fill-opacity: 0.321425; stroke: #008000; stroke-opacity: 0.321425"/>
    </g>
    <g clip-path="url(#pb61996bb0f)">
     <use xlink:href="#C0_0_bb85ba4f6b" x="306.906078" y="272.285051" style="fill: #008000; fill-opacity: 0.323998; stroke: #008000; stroke-opacity: 0.323998"/>
    </g>
    <g clip-path="url(#pb61996bb0f)">
     <use xlink:href="#C0_0_bb85ba4f6b" x="459.027269" y="287.532516" style="fill: #008000; fill-opacity: 0.328162; stroke: #008000; stroke-opacity: 0.328162"/>
    </g>
    <g clip-path="url(#pb61996bb0f)">
     <use xlink:href="#C0_0_bb85ba4f6b" x="301.093046" y="271.379184" style="fill: #008000; fill-opacity: 0.331175; stroke: #008000; stroke-opacity: 0.331175"/>
    </g>
    <g clip-path="url(#pb61996bb0f)">
     <use xlink:href="#C0_0_bb85ba4f6b" x="473.297646" y="288.65464" style="fill: #008000; fill-opacity: 0.335815; stroke: #008000; stroke-opacity: 0.335815"/>
    </g>
    <g clip-path="url(#pb61996bb0f)">
     <use xlink:href="#C0_0_bb85ba4f6b" x="295.848136" y="270.488274" style="fill: #008000; fill-opacity: 0.339298; stroke: #008000; stroke-opacity: 0.339298"/>
    </g>
    <g clip-path="url(#pb61996bb0f)">
     <use xlink:href="#C0_0_bb85ba4f6b" x="488.060632" y="289.789716" style="fill: #008000; fill-opacity: 0.344383; stroke: #008000; stroke-opacity: 0.344383"/>
    </g>
    <g clip-path="url(#pb61996bb0f)">
     <use xlink:href="#C0_0_bb85ba4f6b" x="291.176629" y="269.612618" style="fill: #008000; fill-opacity: 0.348368; stroke: #008000; stroke-opacity: 0.348368"/>
    </g>
    <g clip-path="url(#pb61996bb0f)">
     <use xlink:href="#C0_0_bb85ba4f6b" x="503.312117" y="290.937728" style="fill: #008000; fill-opacity: 0.353865; stroke: #008000; stroke-opacity: 0.353865"/>
    </g>
    <g clip-path="url(#pb61996bb0f)">
     <use xlink:href="#C0_0_bb85ba4f6b" x="287.083887" y="268.752423" style="fill: #008000; fill-opacity: 0.35839; stroke: #008000; stroke-opacity: 0.35839"/>
    </g>
    <g clip-path="url(#pb61996bb0f)">
     <use xlink:href="#C0_0_bb85ba4f6b" x="283.575414" y="267.908055" style="fill: #008000; fill-opacity: 0.369366; stroke: #008000; stroke-opacity: 0.369366"/>
    </g>
    <g clip-path="url(#pb61996bb0f)">
     <use xlink:href="#C0_0_bb85ba4f6b" x="280.656821" y="267.079899" style="fill: #008000; fill-opacity: 0.381299; stroke: #008000; stroke-opacity: 0.381299"/>
    </g>
    <g clip-path="url(#pb61996bb0f)">
     <use xlink:href="#C0_0_bb85ba4f6b" x="278.333839" y="266.268281" style="fill: #008000; fill-opacity: 0.394193; stroke: #008000; stroke-opacity: 0.394193"/>
    </g>
    <g clip-path="url(#pb61996bb0f)">
     <use xlink:href="#C0_0_bb85ba4f6b" x="276.61233" y="265.473728" style="fill: #008000; fill-opacity: 0.408051; stroke: #008000; stroke-opacity: 0.408051"/>
    </g>
    <g clip-path="url(#pb61996bb0f)">
     <use xlink:href="#C0_0_bb85ba4f6b" x="275.498243" y="264.696528" style="fill: #008000; fill-opacity: 0.422877; stroke: #008000; stroke-opacity: 0.422877"/>
    </g>
    <g clip-path="url(#pb61996bb0f)">
     <use xlink:href="#C0_0_bb85ba4f6b" x="274.997659" y="263.937184" style="fill: #008000; fill-opacity: 0.438674; stroke: #008000; stroke-opacity: 0.438674"/>
    </g>
    <g clip-path="url(#pb61996bb0f)">
     <use xlink:href="#C0_0_bb85ba4f6b" x="275.116758" y="263.196205" style="fill: #008000; fill-opacity: 0.455445; stroke: #008000; stroke-opacity: 0.455445"/>
    </g>
    <g clip-path="url(#pb61996bb0f)">
     <use xlink:href="#C0_0_bb85ba4f6b" x="275.86181" y="262.474087" style="fill: #008000; fill-opacity: 0.473194; stroke: #008000; stroke-opacity: 0.473194"/>
    </g>
    <g clip-path="url(#pb61996bb0f)">
     <use xlink:href="#C0_0_bb85ba4f6b" x="277.239187" y="261.771392" style="fill: #008000; fill-opacity: 0.491924; stroke: #008000; stroke-opacity: 0.491924"/>
    </g>
    <g clip-path="url(#pb61996bb0f)">
     <use xlink:href="#C0_0_bb85ba4f6b" x="279.255339" y="261.088679" style="fill: #008000; fill-opacity: 0.51164; stroke: #008000; stroke-opacity: 0.51164"/>
    </g>
    <g clip-path="url(#pb61996bb0f)">
     <use xlink:href="#C0_0_bb85ba4f6b" x="281.916786" y="260.426522" style="fill: #008000; fill-opacity: 0.532344; stroke: #008000; stroke-opacity: 0.532344"/>
    </g>
    <g clip-path="url(#pb61996bb0f)">
     <use xlink:href="#C0_0_bb85ba4f6b" x="285.230116" y="259.785572" style="fill: #008000; fill-opacity: 0.554039; stroke: #008000; stroke-opacity: 0.554039"/>
    </g>
    <g clip-path="url(#pb61996bb0f)">
     <use xlink:href="#C0_0_bb85ba4f6b" x="289.201965" y="259.166486" style="fill: #008000; fill-opacity: 0.576729; stroke: #008000; stroke-opacity: 0.576729"/>
    </g>
    <g clip-path="url(#pb61996bb0f)">
     <use xlink:href="#C0_0_bb85ba4f6b" x="293.839023" y="258.570018" style="fill: #008000; fill-opacity: 0.600417; stroke: #008000; stroke-opacity: 0.600417"/>
    </g>
    <g clip-path="url(#pb61996bb0f)">
     <use xlink:href="#C0_0_bb85ba4f6b" x="299.14796" y="257.996811" style="fill: #008000; fill-opacity: 0.625105; stroke: #008000; stroke-opacity: 0.625105"/>
    </g>
    <g clip-path="url(#pb61996bb0f)">
     <use xlink:href="#C0_0_bb85ba4f6b" x="305.135508" y="257.447694" style="fill: #008000; fill-opacity: 0.650797; stroke: #008000; stroke-opacity: 0.650797"/>
    </g>
    <g clip-path="url(#pb61996bb0f)">
     <use xlink:href="#C0_0_bb85ba4f6b" x="311.808323" y="256.923428" style="fill: #008000; fill-opacity: 0.677494; stroke: #008000; stroke-opacity: 0.677494"/>
    </g>
    <g clip-path="url(#pb61996bb0f)">
     <use xlink:href="#C0_0_bb85ba4f6b" x="319.173094" y="256.424865" style="fill: #008000; fill-opacity: 0.705198; stroke: #008000; stroke-opacity: 0.705198"/>
    </g>
    <g clip-path="url(#pb61996bb0f)">
     <use xlink:href="#C0_0_bb85ba4f6b" x="327.236391" y="255.952808" style="fill: #008000; fill-opacity: 0.733912; stroke: #008000; stroke-opacity: 0.733912"/>
    </g>
    <g clip-path="url(#pb61996bb0f)">
     <use xlink:href="#C0_0_bb85ba4f6b" x="336.004756" y="255.508205" style="fill: #008000; fill-opacity: 0.763636; stroke: #008000; stroke-opacity: 0.763636"/>
    </g>
    <g clip-path="url(#pb61996bb0f)">
     <use xlink:href="#C0_0_bb85ba4f6b" x="345.484601" y="255.091975" style="fill: #008000; fill-opacity: 0.794371; stroke: #008000; stroke-opacity: 0.794371"/>
    </g>
    <g clip-path="url(#pb61996bb0f)">
     <use xlink:href="#C0_0_bb85ba4f6b" x="355.682206" y="254.705134" style="fill: #008000; fill-opacity: 0.826118; stroke: #008000; stroke-opacity: 0.826118"/>
    </g>
    <g clip-path="url(#pb61996bb0f)">
     <use xlink:href="#C0_0_bb85ba4f6b" x="366.603722" y="254.348552" style="fill: #008000; fill-opacity: 0.858877; stroke: #008000; stroke-opacity: 0.858877"/>
    </g>
    <g clip-path="url(#pb61996bb0f)">
     <use xlink:href="#C0_0_bb85ba4f6b" x="378.255062" y="254.023397" style="fill: #008000; fill-opacity: 0.892646; stroke: #008000; stroke-opacity: 0.892646"/>
    </g>
    <g clip-path="url(#pb61996bb0f)">
     <use xlink:href="#C0_0_bb85ba4f6b" x="390.641937" y="253.730696" style="fill: #008000; fill-opacity: 0.927424; stroke: #008000; stroke-opacity: 0.927424"/>
    </g>
    <g clip-path="url(#pb61996bb0f)">
     <use xlink:href="#C0_0_bb85ba4f6b" x="403.769761" y="253.471486" style="fill: #008000; fill-opacity: 0.96321; stroke: #008000; stroke-opacity: 0.96321"/>
    </g>
    <g clip-path="url(#pb61996bb0f)">
     <use xlink:href="#C0_0_bb85ba4f6b" x="417.643766" y="253.247" style="fill: #008000; stroke: #008000"/>
    </g>
   </g>
   <g id="text_25">
    <!-- Average magnetic moment on site 6 -->
    <g transform="translate(259.349063 54.48) scale(0.12 -0.12)">
     <defs>
      <path id="DejaVuSans-41" d="M 2188 4044 
L 1331 1722 
L 3047 1722 
L 2188 4044 
z
M 1831 4666 
L 2547 4666 
L 4325 0 
L 3669 0 
L 3244 1197 
L 1141 1197 
L 716 0 
L 50 0 
L 1831 4666 
z
" transform="scale(0.015625)"/>
      <path id="DejaVuSans-76" d="M 191 3500 
L 800 3500 
L 1894 563 
L 2988 3500 
L 3597 3500 
L 2284 0 
L 1503 0 
L 191 3500 
z
" transform="scale(0.015625)"/>
      <path id="DejaVuSans-65" d="M 3597 1894 
L 3597 1613 
L 953 1613 
Q 991 1019 1311 708 
Q 1631 397 2203 397 
Q 2534 397 2845 478 
Q 3156 559 3463 722 
L 3463 178 
Q 3153 47 2828 -22 
Q 2503 -91 2169 -91 
Q 1331 -91 842 396 
Q 353 884 353 1716 
Q 353 2575 817 3079 
Q 1281 3584 2069 3584 
Q 2775 3584 3186 3129 
Q 3597 2675 3597 1894 
z
M 3022 2063 
Q 3016 2534 2758 2815 
Q 2500 3097 2075 3097 
Q 1594 3097 1305 2825 
Q 1016 2553 972 2059 
L 3022 2063 
z
" transform="scale(0.015625)"/>
      <path id="DejaVuSans-72" d="M 2631 2963 
Q 2534 3019 2420 3045 
Q 2306 3072 2169 3072 
Q 1681 3072 1420 2755 
Q 1159 2438 1159 1844 
L 1159 0 
L 581 0 
L 581 3500 
L 1159 3500 
L 1159 2956 
Q 1341 3275 1631 3429 
Q 1922 3584 2338 3584 
Q 2397 3584 2469 3576 
Q 2541 3569 2628 3553 
L 2631 2963 
z
" transform="scale(0.015625)"/>
      <path id="DejaVuSans-61" d="M 2194 1759 
Q 1497 1759 1228 1600 
Q 959 1441 959 1056 
Q 959 750 1161 570 
Q 1363 391 1709 391 
Q 2188 391 2477 730 
Q 2766 1069 2766 1631 
L 2766 1759 
L 2194 1759 
z
M 3341 1997 
L 3341 0 
L 2766 0 
L 2766 531 
Q 2569 213 2275 61 
Q 1981 -91 1556 -91 
Q 1019 -91 701 211 
Q 384 513 384 1019 
Q 384 1609 779 1909 
Q 1175 2209 1959 2209 
L 2766 2209 
L 2766 2266 
Q 2766 2663 2505 2880 
Q 2244 3097 1772 3097 
Q 1472 3097 1187 3025 
Q 903 2953 641 2809 
L 641 3341 
Q 956 3463 1253 3523 
Q 1550 3584 1831 3584 
Q 2591 3584 2966 3190 
Q 3341 2797 3341 1997 
z
" transform="scale(0.015625)"/>
      <path id="DejaVuSans-67" d="M 2906 1791 
Q 2906 2416 2648 2759 
Q 2391 3103 1925 3103 
Q 1463 3103 1205 2759 
Q 947 2416 947 1791 
Q 947 1169 1205 825 
Q 1463 481 1925 481 
Q 2391 481 2648 825 
Q 2906 1169 2906 1791 
z
M 3481 434 
Q 3481 -459 3084 -895 
Q 2688 -1331 1869 -1331 
Q 1566 -1331 1297 -1286 
Q 1028 -1241 775 -1147 
L 775 -588 
Q 1028 -725 1275 -790 
Q 1522 -856 1778 -856 
Q 2344 -856 2625 -561 
Q 2906 -266 2906 331 
L 2906 616 
Q 2728 306 2450 153 
Q 2172 0 1784 0 
Q 1141 0 747 490 
Q 353 981 353 1791 
Q 353 2603 747 3093 
Q 1141 3584 1784 3584 
Q 2172 3584 2450 3431 
Q 2728 3278 2906 2969 
L 2906 3500 
L 3481 3500 
L 3481 434 
z
" transform="scale(0.015625)"/>
      <path id="DejaVuSans-20" transform="scale(0.015625)"/>
      <path id="DejaVuSans-6d" d="M 3328 2828 
Q 3544 3216 3844 3400 
Q 4144 3584 4550 3584 
Q 5097 3584 5394 3201 
Q 5691 2819 5691 2113 
L 5691 0 
L 5113 0 
L 5113 2094 
Q 5113 2597 4934 2840 
Q 4756 3084 4391 3084 
Q 3944 3084 3684 2787 
Q 3425 2491 3425 1978 
L 3425 0 
L 2847 0 
L 2847 2094 
Q 2847 2600 2669 2842 
Q 2491 3084 2119 3084 
Q 1678 3084 1418 2786 
Q 1159 2488 1159 1978 
L 1159 0 
L 581 0 
L 581 3500 
L 1159 3500 
L 1159 2956 
Q 1356 3278 1631 3431 
Q 1906 3584 2284 3584 
Q 2666 3584 2933 3390 
Q 3200 3197 3328 2828 
z
" transform="scale(0.015625)"/>
      <path id="DejaVuSans-6e" d="M 3513 2113 
L 3513 0 
L 2938 0 
L 2938 2094 
Q 2938 2591 2744 2837 
Q 2550 3084 2163 3084 
Q 1697 3084 1428 2787 
Q 1159 2491 1159 1978 
L 1159 0 
L 581 0 
L 581 3500 
L 1159 3500 
L 1159 2956 
Q 1366 3272 1645 3428 
Q 1925 3584 2291 3584 
Q 2894 3584 3203 3211 
Q 3513 2838 3513 2113 
z
" transform="scale(0.015625)"/>
      <path id="DejaVuSans-63" d="M 3122 3366 
L 3122 2828 
Q 2878 2963 2633 3030 
Q 2388 3097 2138 3097 
Q 1578 3097 1268 2742 
Q 959 2388 959 1747 
Q 959 1106 1268 751 
Q 1578 397 2138 397 
Q 2388 397 2633 464 
Q 2878 531 3122 666 
L 3122 134 
Q 2881 22 2623 -34 
Q 2366 -91 2075 -91 
Q 1284 -91 818 406 
Q 353 903 353 1747 
Q 353 2603 823 3093 
Q 1294 3584 2113 3584 
Q 2378 3584 2631 3529 
Q 2884 3475 3122 3366 
z
" transform="scale(0.015625)"/>
      <path id="DejaVuSans-6f" d="M 1959 3097 
Q 1497 3097 1228 2736 
Q 959 2375 959 1747 
Q 959 1119 1226 758 
Q 1494 397 1959 397 
Q 2419 397 2687 759 
Q 2956 1122 2956 1747 
Q 2956 2369 2687 2733 
Q 2419 3097 1959 3097 
z
M 1959 3584 
Q 2709 3584 3137 3096 
Q 3566 2609 3566 1747 
Q 3566 888 3137 398 
Q 2709 -91 1959 -91 
Q 1206 -91 779 398 
Q 353 888 353 1747 
Q 353 2609 779 3096 
Q 1206 3584 1959 3584 
z
" transform="scale(0.015625)"/>
     </defs>
     <use xlink:href="#DejaVuSans-41"/>
     <use xlink:href="#DejaVuSans-76" x="62.533203"/>
     <use xlink:href="#DejaVuSans-65" x="121.712891"/>
     <use xlink:href="#DejaVuSans-72" x="183.236328"/>
     <use xlink:href="#DejaVuSans-61" x="224.349609"/>
     <use xlink:href="#DejaVuSans-67" x="285.628906"/>
     <use xlink:href="#DejaVuSans-65" x="349.105469"/>
     <use xlink:href="#DejaVuSans-20" x="410.628906"/>
     <use xlink:href="#DejaVuSans-6d" x="442.416016"/>
     <use xlink:href="#DejaVuSans-61" x="539.828125"/>
     <use xlink:href="#DejaVuSans-67" x="601.107422"/>
     <use xlink:href="#DejaVuSans-6e" x="664.583984"/>
     <use xlink:href="#DejaVuSans-65" x="727.962891"/>
     <use xlink:href="#DejaVuSans-74" x="789.486328"/>
     <use xlink:href="#DejaVuSans-69" x="828.695312"/>
     <use xlink:href="#DejaVuSans-63" x="856.478516"/>
     <use xlink:href="#DejaVuSans-20" x="911.458984"/>
     <use xlink:href="#DejaVuSans-6d" x="943.246094"/>
     <use xlink:href="#DejaVuSans-6f" x="1040.658203"/>
     <use xlink:href="#DejaVuSans-6d" x="1101.839844"/>
     <use xlink:href="#DejaVuSans-65" x="1199.251953"/>
     <use xlink:href="#DejaVuSans-6e" x="1260.775391"/>
     <use xlink:href="#DejaVuSans-74" x="1324.154297"/>
     <use xlink:href="#DejaVuSans-20" x="1363.363281"/>
     <use xlink:href="#DejaVuSans-6f" x="1395.150391"/>
     <use xlink:href="#DejaVuSans-6e" x="1456.332031"/>
     <use xlink:href="#DejaVuSans-20" x="1519.710938"/>
     <use xlink:href="#DejaVuSans-73" x="1551.498047"/>
     <use xlink:href="#DejaVuSans-69" x="1603.597656"/>
     <use xlink:href="#DejaVuSans-74" x="1631.380859"/>
     <use xlink:href="#DejaVuSans-65" x="1670.589844"/>
     <use xlink:href="#DejaVuSans-20" x="1732.113281"/>
     <use xlink:href="#DejaVuSans-36" x="1763.900391"/>
    </g>
   </g>
   <g id="legend_1">
    <g id="patch_6">
     <path d="M 552.04 73.48 
L 556.04 73.48 
Q 558.04 73.48 558.04 71.48 
L 558.04 67.48 
Q 558.04 65.48 556.04 65.48 
L 552.04 65.48 
Q 550.04 65.48 550.04 67.48 
L 550.04 71.48 
Q 550.04 73.48 552.04 73.48 
z
" style="fill: #ffffff; opacity: 0.8; stroke: #cccccc; stroke-linejoin: miter"/>
    </g>
   </g>
  </g>
 </g>
 <defs>
  <clipPath id="pb61996bb0f">
   <rect x="174.96" y="60.48" width="388.08" height="388.08"/>
  </clipPath>
 </defs>
</svg>
