<?xml version="1.0" encoding="utf-8" standalone="no"?>
<!DOCTYPE svg PUBLIC "-//W3C//DTD SVG 1.1//EN"
  "http://www.w3.org/Graphics/SVG/1.1/DTD/svg11.dtd">
<svg xmlns:xlink="http://www.w3.org/1999/xlink" width="460.8pt" height="345.6pt" viewBox="0 0 460.8 345.6" xmlns="http://www.w3.org/2000/svg" version="1.1">
 <metadata>
  <rdf:RDF xmlns:dc="http://purl.org/dc/elements/1.1/" xmlns:cc="http://creativecommons.org/ns#" xmlns:rdf="http://www.w3.org/1999/02/22-rdf-syntax-ns#">
   <cc:Work>
    <dc:type rdf:resource="http://purl.org/dc/dcmitype/StillImage"/>
    <dc:date>2024-06-07T10:10:46.481777</dc:date>
    <dc:format>image/svg+xml</dc:format>
    <dc:creator>
     <cc:Agent>
      <dc:title>Matplotlib v3.7.1, https://matplotlib.org/</dc:title>
     </cc:Agent>
    </dc:creator>
   </cc:Work>
  </rdf:RDF>
 </metadata>
 <defs>
  <style type="text/css">*{stroke-linejoin: round; stroke-linecap: butt}</style>
 </defs>
 <g id="figure_1">
  <g id="patch_1">
   <path d="M 0 345.6 
L 460.8 345.6 
L 460.8 0 
L 0 0 
z
" style="fill: #ffffff"/>
  </g>
  <g id="axes_1">
   <g id="patch_2">
    <path d="M 57.6 307.584 
L 414.72 307.584 
L 414.72 41.472 
L 57.6 41.472 
z
" style="fill: #ffffff"/>
   </g>
   <g id="matplotlib.axis_1">
    <g id="xtick_1">
     <g id="line2d_1">
      <defs>
       <path id="m9feefcb9f8" d="M 0 0 
L 0 3.5 
" style="stroke: #000000; stroke-width: 0.8"/>
      </defs>
      <g>
       <use xlink:href="#m9feefcb9f8" x="73.832727" y="307.584" style="stroke: #000000; stroke-width: 0.8"/>
      </g>
     </g>
     <g id="text_1">
      <!-- 0 -->
      <g transform="translate(70.651477 322.182437) scale(0.1 -0.1)">
       <defs>
        <path id="DejaVuSans-30" d="M 2034 4250 
Q 1547 4250 1301 3770 
Q 1056 3291 1056 2328 
Q 1056 1369 1301 889 
Q 1547 409 2034 409 
Q 2525 409 2770 889 
Q 3016 1369 3016 2328 
Q 3016 3291 2770 3770 
Q 2525 4250 2034 4250 
z
M 2034 4750 
Q 2819 4750 3233 4129 
Q 3647 3509 3647 2328 
Q 3647 1150 3233 529 
Q 2819 -91 2034 -91 
Q 1250 -91 836 529 
Q 422 1150 422 2328 
Q 422 3509 836 4129 
Q 1250 4750 2034 4750 
z
" transform="scale(0.015625)"/>
       </defs>
       <use xlink:href="#DejaVuSans-30"/>
      </g>
     </g>
    </g>
    <g id="xtick_2">
     <g id="line2d_2">
      <g>
       <use xlink:href="#m9feefcb9f8" x="137.303802" y="307.584" style="stroke: #000000; stroke-width: 0.8"/>
      </g>
     </g>
     <g id="text_2">
      <!-- 200 -->
      <g transform="translate(127.760052 322.182437) scale(0.1 -0.1)">
       <defs>
        <path id="DejaVuSans-32" d="M 1228 531 
L 3431 531 
L 3431 0 
L 469 0 
L 469 531 
Q 828 903 1448 1529 
Q 2069 2156 2228 2338 
Q 2531 2678 2651 2914 
Q 2772 3150 2772 3378 
Q 2772 3750 2511 3984 
Q 2250 4219 1831 4219 
Q 1534 4219 1204 4116 
Q 875 4013 500 3803 
L 500 4441 
Q 881 4594 1212 4672 
Q 1544 4750 1819 4750 
Q 2544 4750 2975 4387 
Q 3406 4025 3406 3419 
Q 3406 3131 3298 2873 
Q 3191 2616 2906 2266 
Q 2828 2175 2409 1742 
Q 1991 1309 1228 531 
z
" transform="scale(0.015625)"/>
       </defs>
       <use xlink:href="#DejaVuSans-32"/>
       <use xlink:href="#DejaVuSans-30" x="63.623047"/>
       <use xlink:href="#DejaVuSans-30" x="127.246094"/>
      </g>
     </g>
    </g>
    <g id="xtick_3">
     <g id="line2d_3">
      <g>
       <use xlink:href="#m9feefcb9f8" x="200.774876" y="307.584" style="stroke: #000000; stroke-width: 0.8"/>
      </g>
     </g>
     <g id="text_3">
      <!-- 400 -->
      <g transform="translate(191.231126 322.182437) scale(0.1 -0.1)">
       <defs>
        <path id="DejaVuSans-34" d="M 2419 4116 
L 825 1625 
L 2419 1625 
L 2419 4116 
z
M 2253 4666 
L 3047 4666 
L 3047 1625 
L 3713 1625 
L 3713 1100 
L 3047 1100 
L 3047 0 
L 2419 0 
L 2419 1100 
L 313 1100 
L 313 1709 
L 2253 4666 
z
" transform="scale(0.015625)"/>
       </defs>
       <use xlink:href="#DejaVuSans-34"/>
       <use xlink:href="#DejaVuSans-30" x="63.623047"/>
       <use xlink:href="#DejaVuSans-30" x="127.246094"/>
      </g>
     </g>
    </g>
    <g id="xtick_4">
     <g id="line2d_4">
      <g>
       <use xlink:href="#m9feefcb9f8" x="264.24595" y="307.584" style="stroke: #000000; stroke-width: 0.8"/>
      </g>
     </g>
     <g id="text_4">
      <!-- 600 -->
      <g transform="translate(254.7022 322.182437) scale(0.1 -0.1)">
       <defs>
        <path id="DejaVuSans-36" d="M 2113 2584 
Q 1688 2584 1439 2293 
Q 1191 2003 1191 1497 
Q 1191 994 1439 701 
Q 1688 409 2113 409 
Q 2538 409 2786 701 
Q 3034 994 3034 1497 
Q 3034 2003 2786 2293 
Q 2538 2584 2113 2584 
z
M 3366 4563 
L 3366 3988 
Q 3128 4100 2886 4159 
Q 2644 4219 2406 4219 
Q 1781 4219 1451 3797 
Q 1122 3375 1075 2522 
Q 1259 2794 1537 2939 
Q 1816 3084 2150 3084 
Q 2853 3084 3261 2657 
Q 3669 2231 3669 1497 
Q 3669 778 3244 343 
Q 2819 -91 2113 -91 
Q 1303 -91 875 529 
Q 447 1150 447 2328 
Q 447 3434 972 4092 
Q 1497 4750 2381 4750 
Q 2619 4750 2861 4703 
Q 3103 4656 3366 4563 
z
" transform="scale(0.015625)"/>
       </defs>
       <use xlink:href="#DejaVuSans-36"/>
       <use xlink:href="#DejaVuSans-30" x="63.623047"/>
       <use xlink:href="#DejaVuSans-30" x="127.246094"/>
      </g>
     </g>
    </g>
    <g id="xtick_5">
     <g id="line2d_5">
      <g>
       <use xlink:href="#m9feefcb9f8" x="327.717025" y="307.584" style="stroke: #000000; stroke-width: 0.8"/>
      </g>
     </g>
     <g id="text_5">
      <!-- 800 -->
      <g transform="translate(318.173275 322.182437) scale(0.1 -0.1)">
       <defs>
        <path id="DejaVuSans-38" d="M 2034 2216 
Q 1584 2216 1326 1975 
Q 1069 1734 1069 1313 
Q 1069 891 1326 650 
Q 1584 409 2034 409 
Q 2484 409 2743 651 
Q 3003 894 3003 1313 
Q 3003 1734 2745 1975 
Q 2488 2216 2034 2216 
z
M 1403 2484 
Q 997 2584 770 2862 
Q 544 3141 544 3541 
Q 544 4100 942 4425 
Q 1341 4750 2034 4750 
Q 2731 4750 3128 4425 
Q 3525 4100 3525 3541 
Q 3525 3141 3298 2862 
Q 3072 2584 2669 2484 
Q 3125 2378 3379 2068 
Q 3634 1759 3634 1313 
Q 3634 634 3220 271 
Q 2806 -91 2034 -91 
Q 1263 -91 848 271 
Q 434 634 434 1313 
Q 434 1759 690 2068 
Q 947 2378 1403 2484 
z
M 1172 3481 
Q 1172 3119 1398 2916 
Q 1625 2713 2034 2713 
Q 2441 2713 2670 2916 
Q 2900 3119 2900 3481 
Q 2900 3844 2670 4047 
Q 2441 4250 2034 4250 
Q 1625 4250 1398 4047 
Q 1172 3844 1172 3481 
z
" transform="scale(0.015625)"/>
       </defs>
       <use xlink:href="#DejaVuSans-38"/>
       <use xlink:href="#DejaVuSans-30" x="63.623047"/>
       <use xlink:href="#DejaVuSans-30" x="127.246094"/>
      </g>
     </g>
    </g>
    <g id="xtick_6">
     <g id="line2d_6">
      <g>
       <use xlink:href="#m9feefcb9f8" x="391.188099" y="307.584" style="stroke: #000000; stroke-width: 0.8"/>
      </g>
     </g>
     <g id="text_6">
      <!-- 1000 -->
      <g transform="translate(378.463099 322.182437) scale(0.1 -0.1)">
       <defs>
        <path id="DejaVuSans-31" d="M 794 531 
L 1825 531 
L 1825 4091 
L 703 3866 
L 703 4441 
L 1819 4666 
L 2450 4666 
L 2450 531 
L 3481 531 
L 3481 0 
L 794 0 
L 794 531 
z
" transform="scale(0.015625)"/>
       </defs>
       <use xlink:href="#DejaVuSans-31"/>
       <use xlink:href="#DejaVuSans-30" x="63.623047"/>
       <use xlink:href="#DejaVuSans-30" x="127.246094"/>
       <use xlink:href="#DejaVuSans-30" x="190.869141"/>
      </g>
     </g>
    </g>
    <g id="text_7">
     <!-- n -->
     <g transform="translate(232.99125 335.860562) scale(0.1 -0.1)">
      <defs>
       <path id="DejaVuSans-6e" d="M 3513 2113 
L 3513 0 
L 2938 0 
L 2938 2094 
Q 2938 2591 2744 2837 
Q 2550 3084 2163 3084 
Q 1697 3084 1428 2787 
Q 1159 2491 1159 1978 
L 1159 0 
L 581 0 
L 581 3500 
L 1159 3500 
L 1159 2956 
Q 1366 3272 1645 3428 
Q 1925 3584 2291 3584 
Q 2894 3584 3203 3211 
Q 3513 2838 3513 2113 
z
" transform="scale(0.015625)"/>
      </defs>
      <use xlink:href="#DejaVuSans-6e"/>
     </g>
    </g>
   </g>
   <g id="matplotlib.axis_2">
    <g id="ytick_1">
     <g id="line2d_7">
      <defs>
       <path id="m4d2efc48e0" d="M 0 0 
L -3.5 0 
" style="stroke: #000000; stroke-width: 0.8"/>
      </defs>
      <g>
       <use xlink:href="#m4d2efc48e0" x="57.6" y="255.866501" style="stroke: #000000; stroke-width: 0.8"/>
      </g>
     </g>
     <g id="text_8">
      <!-- −0.4 -->
      <g transform="translate(26.317187 259.66572) scale(0.1 -0.1)">
       <defs>
        <path id="DejaVuSans-2212" d="M 678 2272 
L 4684 2272 
L 4684 1741 
L 678 1741 
L 678 2272 
z
" transform="scale(0.015625)"/>
        <path id="DejaVuSans-2e" d="M 684 794 
L 1344 794 
L 1344 0 
L 684 0 
L 684 794 
z
" transform="scale(0.015625)"/>
       </defs>
       <use xlink:href="#DejaVuSans-2212"/>
       <use xlink:href="#DejaVuSans-30" x="83.789062"/>
       <use xlink:href="#DejaVuSans-2e" x="147.412109"/>
       <use xlink:href="#DejaVuSans-34" x="179.199219"/>
      </g>
     </g>
    </g>
    <g id="ytick_2">
     <g id="line2d_8">
      <g>
       <use xlink:href="#m4d2efc48e0" x="57.6" y="203.967188" style="stroke: #000000; stroke-width: 0.8"/>
      </g>
     </g>
     <g id="text_9">
      <!-- −0.2 -->
      <g transform="translate(26.317187 207.766407) scale(0.1 -0.1)">
       <use xlink:href="#DejaVuSans-2212"/>
       <use xlink:href="#DejaVuSans-30" x="83.789062"/>
       <use xlink:href="#DejaVuSans-2e" x="147.412109"/>
       <use xlink:href="#DejaVuSans-32" x="179.199219"/>
      </g>
     </g>
    </g>
    <g id="ytick_3">
     <g id="line2d_9">
      <g>
       <use xlink:href="#m4d2efc48e0" x="57.6" y="152.067875" style="stroke: #000000; stroke-width: 0.8"/>
      </g>
     </g>
     <g id="text_10">
      <!-- 0.0 -->
      <g transform="translate(34.696875 155.867094) scale(0.1 -0.1)">
       <use xlink:href="#DejaVuSans-30"/>
       <use xlink:href="#DejaVuSans-2e" x="63.623047"/>
       <use xlink:href="#DejaVuSans-30" x="95.410156"/>
      </g>
     </g>
    </g>
    <g id="ytick_4">
     <g id="line2d_10">
      <g>
       <use xlink:href="#m4d2efc48e0" x="57.6" y="100.168562" style="stroke: #000000; stroke-width: 0.8"/>
      </g>
     </g>
     <g id="text_11">
      <!-- 0.2 -->
      <g transform="translate(34.696875 103.967781) scale(0.1 -0.1)">
       <use xlink:href="#DejaVuSans-30"/>
       <use xlink:href="#DejaVuSans-2e" x="63.623047"/>
       <use xlink:href="#DejaVuSans-32" x="95.410156"/>
      </g>
     </g>
    </g>
    <g id="ytick_5">
     <g id="line2d_11">
      <g>
       <use xlink:href="#m4d2efc48e0" x="57.6" y="48.269249" style="stroke: #000000; stroke-width: 0.8"/>
      </g>
     </g>
     <g id="text_12">
      <!-- 0.4 -->
      <g transform="translate(34.696875 52.068468) scale(0.1 -0.1)">
       <use xlink:href="#DejaVuSans-30"/>
       <use xlink:href="#DejaVuSans-2e" x="63.623047"/>
       <use xlink:href="#DejaVuSans-34" x="95.410156"/>
      </g>
     </g>
    </g>
    <g id="text_13">
     <!-- E*t -->
     <g transform="translate(20.2375 182.147531) rotate(-90) scale(0.1 -0.1)">
      <defs>
       <path id="DejaVuSans-45" d="M 628 4666 
L 3578 4666 
L 3578 4134 
L 1259 4134 
L 1259 2753 
L 3481 2753 
L 3481 2222 
L 1259 2222 
L 1259 531 
L 3634 531 
L 3634 0 
L 628 0 
L 628 4666 
z
" transform="scale(0.015625)"/>
       <path id="DejaVuSans-2a" d="M 3009 3897 
L 1888 3291 
L 3009 2681 
L 2828 2375 
L 1778 3009 
L 1778 1831 
L 1422 1831 
L 1422 3009 
L 372 2375 
L 191 2681 
L 1313 3291 
L 191 3897 
L 372 4206 
L 1422 3572 
L 1422 4750 
L 1778 4750 
L 1778 3572 
L 2828 4206 
L 3009 3897 
z
" transform="scale(0.015625)"/>
       <path id="DejaVuSans-74" d="M 1172 4494 
L 1172 3500 
L 2356 3500 
L 2356 3053 
L 1172 3053 
L 1172 1153 
Q 1172 725 1289 603 
Q 1406 481 1766 481 
L 2356 481 
L 2356 0 
L 1766 0 
Q 1100 0 847 248 
Q 594 497 594 1153 
L 594 3053 
L 172 3053 
L 172 3500 
L 594 3500 
L 594 4494 
L 1172 4494 
z
" transform="scale(0.015625)"/>
      </defs>
      <use xlink:href="#DejaVuSans-45"/>
      <use xlink:href="#DejaVuSans-2a" x="63.183594"/>
      <use xlink:href="#DejaVuSans-74" x="113.183594"/>
     </g>
    </g>
   </g>
   <g id="line2d_12">
    <path d="M 73.832727 295.488 
L 74.150083 286.290297 
L 74.467438 283.716582 
L 74.784793 282.692272 
L 75.102149 280.688255 
L 75.73686 274.506011 
L 76.688926 269.030563 
L 77.006281 268.506643 
L 77.640992 264.318675 
L 78.593058 260.732959 
L 78.910413 260.670734 
L 79.227769 259.420163 
L 79.545124 258.798371 
L 80.179835 258.352881 
L 80.814545 256.12359 
L 81.131901 255.843318 
L 81.449256 255.282078 
L 81.766612 254.230305 
L 82.083967 253.84501 
L 82.401322 252.803772 
L 82.718678 250.759297 
L 83.036033 250.38275 
L 83.353388 249.595008 
L 83.670744 249.15791 
L 83.988099 248.018855 
L 84.305455 247.385618 
L 84.62281 247.210702 
L 85.574876 246.158371 
L 86.209587 245.735485 
L 86.526942 245.113966 
L 86.844298 244.838333 
L 87.161653 244.102302 
L 88.431074 242.841977 
L 89.065785 241.827709 
L 90.335207 240.192254 
L 90.652562 240.050366 
L 91.604628 237.391082 
L 92.556694 236.593926 
L 93.191405 235.819201 
L 93.50876 234.495298 
L 93.826116 234.199381 
L 94.778182 233.751953 
L 95.095537 233.122771 
L 95.730248 232.849719 
L 96.047603 232.366226 
L 96.364959 232.272491 
L 96.682314 231.546765 
L 97.317025 231.384732 
L 97.63438 230.847085 
L 97.951736 230.5949 
L 98.586446 230.316284 
L 98.903802 229.895416 
L 99.221157 229.686338 
L 99.538512 229.262162 
L 99.855868 229.099286 
L 100.807934 228.005113 
L 101.442645 227.077795 
L 102.077355 226.803073 
L 103.346777 224.880005 
L 103.664132 224.804432 
L 104.298843 224.193848 
L 104.933554 223.947688 
L 105.88562 223.139384 
L 106.837686 222.76168 
L 107.155041 222.242191 
L 107.472397 221.978859 
L 108.107107 221.78818 
L 109.059174 221.280152 
L 109.376529 220.57846 
L 110.01124 220.219819 
L 110.328595 219.509689 
L 111.598017 218.814126 
L 111.915372 218.745457 
L 113.502149 217.680611 
L 114.454215 217.1988 
L 115.406281 216.149207 
L 116.675702 215.244557 
L 116.993058 215.146599 
L 117.310413 214.82689 
L 117.627769 214.232424 
L 118.579835 213.529434 
L 118.89719 213.146783 
L 119.214545 213.022207 
L 119.531901 212.651771 
L 119.849256 212.521139 
L 120.483967 212.003195 
L 121.118678 211.682473 
L 123.974876 210.083866 
L 124.292231 210.000616 
L 126.513719 208.619928 
L 129.687273 207.386944 
L 130.956694 206.618819 
L 132.226116 206.114524 
L 132.860826 206.0177 
L 134.130248 205.315568 
L 134.764959 205.124684 
L 136.351736 204.386883 
L 136.669091 204.073221 
L 137.621157 203.650697 
L 137.938512 203.623057 
L 138.890579 202.988666 
L 139.525289 202.781405 
L 140.16 202.505822 
L 140.477355 202.477547 
L 141.112066 202.031746 
L 141.746777 201.910905 
L 142.064132 201.48441 
L 142.698843 201.140701 
L 143.016198 200.725762 
L 145.555041 199.728367 
L 146.507107 199.468433 
L 147.459174 198.980262 
L 148.093884 198.861097 
L 148.728595 198.540517 
L 149.04595 198.108316 
L 149.680661 197.887031 
L 150.315372 197.673535 
L 150.950083 197.257511 
L 151.267438 197.189725 
L 151.584793 196.859613 
L 152.219504 196.68988 
L 159.518678 193.53185 
L 159.836033 193.425682 
L 160.153388 193.187053 
L 160.788099 192.987636 
L 163.009587 192.300874 
L 163.644298 191.931888 
L 164.596364 191.516431 
L 166.500496 190.824636 
L 168.721983 189.931389 
L 169.039339 189.883277 
L 169.356694 189.681847 
L 170.30876 189.436786 
L 170.943471 189.121451 
L 171.578182 188.949972 
L 172.530248 188.598914 
L 173.482314 188.282982 
L 174.117025 188.023741 
L 174.751736 187.702695 
L 176.021157 187.281524 
L 176.338512 187.241907 
L 178.56 186.220615 
L 178.877355 186.165466 
L 179.512066 185.918227 
L 182.050909 185.141971 
L 182.368264 184.894982 
L 184.272397 184.338045 
L 185.541818 183.78916 
L 185.859174 183.769246 
L 186.176529 183.453312 
L 188.080661 182.868863 
L 188.398017 182.629922 
L 189.350083 182.357243 
L 193.793058 180.855276 
L 196.014545 180.209583 
L 196.649256 179.907494 
L 198.553388 179.220261 
L 199.505455 179.0073 
L 200.140165 178.697825 
L 200.457521 178.633261 
L 201.092231 178.332938 
L 206.169917 176.384012 
L 207.756694 175.912446 
L 208.391405 175.710571 
L 208.70876 175.440155 
L 211.882314 174.570101 
L 212.517025 174.360876 
L 212.83438 174.301124 
L 214.421157 173.54921 
L 215.690579 173.068206 
L 216.007934 172.856533 
L 216.325289 172.828736 
L 216.96 172.531594 
L 217.594711 172.401271 
L 223.307107 170.668016 
L 224.893884 170.071225 
L 227.115372 169.354469 
L 227.750083 169.148464 
L 231.558347 168.086907 
L 232.193058 167.715254 
L 241.396364 164.889379 
L 242.031074 164.556515 
L 242.665785 164.369976 
L 243.300496 164.132324 
L 244.252562 163.767904 
L 244.887273 163.554017 
L 247.10876 162.916792 
L 247.743471 162.546577 
L 249.647603 162.014309 
L 250.599669 161.753983 
L 253.138512 160.894212 
L 254.090579 160.57219 
L 258.850909 158.873079 
L 259.48562 158.611443 
L 262.024463 157.648223 
L 262.341818 157.424687 
L 262.976529 157.353184 
L 263.293884 157.084505 
L 264.880661 156.582241 
L 265.515372 156.473514 
L 266.784793 156.02289 
L 267.419504 155.786891 
L 268.054215 155.524854 
L 269.958347 154.946226 
L 270.593058 154.733864 
L 271.545124 154.539505 
L 272.179835 154.232925 
L 273.131901 153.884285 
L 274.718678 153.254956 
L 275.036033 152.963826 
L 275.988099 152.646174 
L 277.892231 152.013391 
L 279.161653 151.695009 
L 282.652562 150.517123 
L 283.287273 150.362712 
L 284.556694 149.906449 
L 285.50876 149.710393 
L 286.460826 149.284166 
L 287.412893 148.945999 
L 290.269091 147.939437 
L 291.221157 147.603015 
L 291.538512 147.414221 
L 292.173223 147.233629 
L 293.125289 146.851583 
L 293.442645 146.802705 
L 294.077355 146.584841 
L 295.981488 145.780345 
L 296.933554 145.454333 
L 297.568264 145.105341 
L 298.202975 144.827824 
L 298.837686 144.546407 
L 300.741818 143.936712 
L 302.963306 143.074848 
L 303.598017 142.820981 
L 303.915372 142.752288 
L 304.550083 142.447137 
L 306.77157 141.523785 
L 307.088926 141.189636 
L 312.166612 139.416357 
L 313.118678 139.178603 
L 314.070744 138.695461 
L 314.388099 138.466929 
L 314.705455 138.381589 
L 315.02281 138.128313 
L 315.657521 137.876879 
L 317.561653 136.929929 
L 318.196364 136.780289 
L 319.14843 136.371482 
L 319.465785 136.323911 
L 319.78314 136.110292 
L 320.100496 136.043793 
L 320.735207 135.747746 
L 321.052562 135.658753 
L 321.687273 135.279569 
L 322.321983 134.915081 
L 323.591405 134.383562 
L 331.525289 131.024036 
L 332.16 130.885166 
L 333.112066 130.420268 
L 334.064132 130.043356 
L 334.698843 129.776041 
L 335.333554 129.503906 
L 336.602975 128.714203 
L 339.141818 127.62882 
L 340.093884 127.08846 
L 340.41124 127.046583 
L 340.728595 126.686552 
L 341.04595 126.525106 
L 341.680661 126.027661 
L 342.315372 125.757887 
L 342.950083 125.437669 
L 343.584793 125.185286 
L 344.219504 124.942474 
L 344.53686 124.62649 
L 344.854215 124.549169 
L 345.488926 124.146861 
L 345.806281 124.058545 
L 346.123636 123.835188 
L 346.440992 123.770283 
L 347.075702 123.220186 
L 348.027769 122.680573 
L 348.979835 122.263377 
L 349.614545 121.909705 
L 350.566612 121.346047 
L 351.201322 120.804104 
L 352.470744 120.074716 
L 352.788099 119.688162 
L 353.105455 119.617982 
L 354.692231 118.66649 
L 355.009587 118.59048 
L 355.644298 118.041181 
L 355.961653 117.873946 
L 356.596364 117.006711 
L 357.54843 116.698721 
L 359.135207 115.613517 
L 359.452562 115.139151 
L 359.769917 114.974829 
L 360.087273 114.948728 
L 361.356694 113.988319 
L 361.67405 113.94553 
L 361.991405 113.472227 
L 363.895537 112.660714 
L 365.164959 111.558753 
L 365.482314 111.462163 
L 365.799669 111.025906 
L 366.43438 110.80337 
L 367.703802 109.922805 
L 368.021157 109.433088 
L 368.338512 109.335459 
L 368.655868 108.796471 
L 369.607934 108.468486 
L 369.925289 108.082235 
L 370.56 107.765348 
L 370.877355 107.673256 
L 371.829421 107.093522 
L 372.464132 106.767214 
L 373.098843 106.317262 
L 373.416198 106.282736 
L 373.733554 106.077186 
L 374.050909 105.558891 
L 374.68562 105.228111 
L 375.002975 104.350541 
L 376.272397 102.999103 
L 376.907107 101.778714 
L 377.541818 101.466369 
L 378.493884 100.666233 
L 378.81124 100.582746 
L 379.44595 98.883404 
L 380.080661 98.613312 
L 380.398017 98.046022 
L 381.032727 97.646175 
L 382.302149 96.115377 
L 382.619504 96.053209 
L 382.93686 95.711094 
L 383.57157 95.393673 
L 383.888926 94.774947 
L 384.206281 94.497464 
L 384.840992 93.552676 
L 385.158347 93.324789 
L 385.475702 92.930039 
L 385.793058 92.057965 
L 386.110413 91.674954 
L 386.427769 91.476793 
L 387.062479 90.6943 
L 387.379835 89.98186 
L 387.69719 89.912307 
L 388.014545 89.303153 
L 388.649256 88.67683 
L 388.966612 88.093394 
L 389.283967 87.951936 
L 389.918678 86.20476 
L 390.553388 85.699856 
L 391.188099 83.897237 
L 391.82281 83.233681 
L 392.140165 81.750925 
L 392.457521 81.580854 
L 392.774876 80.669268 
L 393.092231 78.98264 
L 393.409587 78.503563 
L 393.726942 77.475823 
L 394.361653 76.354672 
L 394.679008 76.278741 
L 395.313719 73.992334 
L 395.631074 72.896451 
L 395.94843 72.723256 
L 396.58314 70.673105 
L 396.900496 69.083818 
L 397.217851 66.218733 
L 397.535207 64.485764 
L 398.169917 55.627859 
L 398.487273 53.568 
L 398.487273 53.568 
" clip-path="url(#p2dc5041a9f)" style="fill: none; stroke: #1f77b4; stroke-width: 1.5; stroke-linecap: square"/>
   </g>
   <g id="line2d_13">
    <path d="M 73.832727 176.720049 
L 74.150083 174.125083 
L 74.467438 173.871067 
L 74.784793 173.133887 
L 75.102149 171.985707 
L 75.419504 171.530117 
L 76.054215 170.998888 
L 76.37157 170.538922 
L 76.688926 170.538922 
L 77.006281 170.310532 
L 77.323636 169.558726 
L 80.814545 167.809802 
L 82.083967 167.331383 
L 82.401322 167.060718 
L 85.257521 166.228574 
L 85.574876 166.214922 
L 86.209587 166.077253 
L 87.161653 165.808958 
L 89.700496 165.120601 
L 90.335207 165.049941 
L 90.969917 164.736417 
L 91.921983 164.693268 
L 94.143471 164.135778 
L 102.077355 162.907705 
L 102.394711 162.756632 
L 103.029421 162.754025 
L 103.664132 162.563702 
L 121.753388 160.480164 
L 123.657521 160.312739 
L 123.974876 160.161667 
L 125.561653 160.046347 
L 128.100496 159.860011 
L 128.417851 159.681547 
L 134.447603 159.171147 
L 135.082314 159.024845 
L 140.794711 158.708607 
L 141.429421 158.563526 
L 143.968264 158.408275 
L 144.602975 158.292356 
L 145.872397 158.14654 
L 149.363306 157.995028 
L 154.123636 157.564095 
L 158.883967 157.265046 
L 159.201322 157.112603 
L 161.42281 157.032561 
L 163.644298 156.88527 
L 164.279008 156.810078 
L 167.135207 156.61012 
L 170.30876 156.345453 
L 170.943471 156.240335 
L 174.751736 156.098882 
L 175.386446 156.00449 
L 177.290579 155.882856 
L 178.877355 155.803848 
L 181.416198 155.611471 
L 182.368264 155.510662 
L 186.81124 155.32835 
L 190.619504 154.96913 
L 192.840992 154.903133 
L 193.793058 154.839556 
L 196.014545 154.698826 
L 196.966612 154.670081 
L 197.601322 154.466799 
L 200.774876 154.348202 
L 202.996364 154.212938 
L 206.169917 154.058184 
L 209.026116 153.774531 
L 237.905455 152.075115 
L 238.540165 151.871834 
L 242.031074 151.746303 
L 243.617851 151.617974 
L 246.791405 151.463218 
L 248.060826 151.38625 
L 249.330248 151.289938 
L 250.599669 151.202407 
L 252.821157 151.044141 
L 278.844298 149.327703 
L 279.796364 149.258536 
L 282.017851 149.166621 
L 284.87405 148.934814 
L 293.442645 148.387154 
L 295.346777 148.215442 
L 296.933554 148.099428 
L 298.520331 148.005289 
L 300.424463 147.858648 
L 302.328595 147.719835 
L 304.232727 147.621511 
L 306.13686 147.478375 
L 312.483967 146.997558 
L 314.388099 146.893247 
L 315.340165 146.732736 
L 315.974876 146.663571 
L 318.196364 146.561567 
L 318.831074 146.435583 
L 321.687273 146.280276 
L 322.639339 146.196318 
L 324.860826 146.062346 
L 332.477355 145.410323 
L 333.112066 145.320626 
L 335.968264 145.124869 
L 342.632727 144.442283 
L 344.53686 144.360125 
L 351.518678 143.555157 
L 353.105455 143.438707 
L 354.057521 143.266182 
L 355.009587 143.202877 
L 355.644298 143.110906 
L 358.500496 142.829016 
L 359.135207 142.668718 
L 360.087273 142.610715 
L 360.721983 142.446474 
L 361.039339 142.443649 
L 361.67405 142.288444 
L 364.212893 142.030597 
L 366.117025 141.803807 
L 368.021157 141.545003 
L 370.242645 141.149918 
L 370.877355 141.099012 
L 371.829421 140.915498 
L 372.464132 140.872414 
L 373.733554 140.489565 
L 377.541818 140.038921 
L 377.859174 139.876191 
L 378.493884 139.848684 
L 378.81124 139.676969 
L 379.128595 139.674563 
L 379.763306 139.435631 
L 380.715372 139.252351 
L 382.93686 138.860911 
L 383.254215 138.650683 
L 383.888926 138.554952 
L 386.110413 138.153865 
L 386.745124 137.900169 
L 387.69719 137.79729 
L 388.014545 137.531562 
L 389.918678 136.922998 
L 390.553388 136.583496 
L 390.870744 136.577904 
L 391.188099 136.386037 
L 391.82281 136.355073 
L 392.140165 135.909078 
L 392.774876 135.625432 
L 393.409587 135.412792 
L 394.044298 134.936597 
L 394.679008 134.487037 
L 394.996364 134.441875 
L 395.631074 134.156261 
L 396.58314 133.121951 
L 396.900496 133.030466 
L 397.217851 131.668011 
L 397.535207 131.561293 
L 397.852562 131.167841 
L 398.487273 129.073041 
L 398.487273 129.073041 
" clip-path="url(#p2dc5041a9f)" style="fill: none; stroke: #ff7f0e; stroke-width: 1.5; stroke-linecap: square"/>
   </g>
   <g id="patch_3">
    <path d="M 57.6 307.584 
L 57.6 41.472 
" style="fill: none; stroke: #000000; stroke-width: 0.8; stroke-linejoin: miter; stroke-linecap: square"/>
   </g>
   <g id="patch_4">
    <path d="M 414.72 307.584 
L 414.72 41.472 
" style="fill: none; stroke: #000000; stroke-width: 0.8; stroke-linejoin: miter; stroke-linecap: square"/>
   </g>
   <g id="patch_5">
    <path d="M 57.6 307.584 
L 414.72 307.584 
" style="fill: none; stroke: #000000; stroke-width: 0.8; stroke-linejoin: miter; stroke-linecap: square"/>
   </g>
   <g id="patch_6">
    <path d="M 57.6 41.472 
L 414.72 41.472 
" style="fill: none; stroke: #000000; stroke-width: 0.8; stroke-linejoin: miter; stroke-linecap: square"/>
   </g>
   <g id="legend_1">
    <g id="patch_7">
     <path d="M 64.6 78.82825 
L 129.342187 78.82825 
Q 131.342187 78.82825 131.342187 76.82825 
L 131.342187 48.472 
Q 131.342187 46.472 129.342187 46.472 
L 64.6 46.472 
Q 62.6 46.472 62.6 48.472 
L 62.6 76.82825 
Q 62.6 78.82825 64.6 78.82825 
z
" style="fill: #ffffff; opacity: 0.8; stroke: #cccccc; stroke-linejoin: miter"/>
    </g>
    <g id="line2d_14">
     <path d="M 66.6 54.570437 
L 76.6 54.570437 
L 86.6 54.570437 
" style="fill: none; stroke: #1f77b4; stroke-width: 1.5; stroke-linecap: square"/>
    </g>
    <g id="text_14">
     <!-- qc -->
     <g transform="translate(94.6 58.070437) scale(0.1 -0.1)">
      <defs>
       <path id="DejaVuSans-71" d="M 947 1747 
Q 947 1113 1208 752 
Q 1469 391 1925 391 
Q 2381 391 2643 752 
Q 2906 1113 2906 1747 
Q 2906 2381 2643 2742 
Q 2381 3103 1925 3103 
Q 1469 3103 1208 2742 
Q 947 2381 947 1747 
z
M 2906 525 
Q 2725 213 2448 61 
Q 2172 -91 1784 -91 
Q 1150 -91 751 415 
Q 353 922 353 1747 
Q 353 2572 751 3078 
Q 1150 3584 1784 3584 
Q 2172 3584 2448 3432 
Q 2725 3281 2906 2969 
L 2906 3500 
L 3481 3500 
L 3481 -1331 
L 2906 -1331 
L 2906 525 
z
" transform="scale(0.015625)"/>
       <path id="DejaVuSans-63" d="M 3122 3366 
L 3122 2828 
Q 2878 2963 2633 3030 
Q 2388 3097 2138 3097 
Q 1578 3097 1268 2742 
Q 959 2388 959 1747 
Q 959 1106 1268 751 
Q 1578 397 2138 397 
Q 2388 397 2633 464 
Q 2878 531 3122 666 
L 3122 134 
Q 2881 22 2623 -34 
Q 2366 -91 2075 -91 
Q 1284 -91 818 406 
Q 353 903 353 1747 
Q 353 2603 823 3093 
Q 1294 3584 2113 3584 
Q 2378 3584 2631 3529 
Q 2884 3475 3122 3366 
z
" transform="scale(0.015625)"/>
      </defs>
      <use xlink:href="#DejaVuSans-71"/>
      <use xlink:href="#DejaVuSans-63" x="63.476562"/>
     </g>
    </g>
    <g id="line2d_15">
     <path d="M 66.6 69.248562 
L 76.6 69.248562 
L 86.6 69.248562 
" style="fill: none; stroke: #ff7f0e; stroke-width: 1.5; stroke-linecap: square"/>
    </g>
    <g id="text_15">
     <!-- Trotter -->
     <g transform="translate(94.6 72.748562) scale(0.1 -0.1)">
      <defs>
       <path id="DejaVuSans-54" d="M -19 4666 
L 3928 4666 
L 3928 4134 
L 2272 4134 
L 2272 0 
L 1638 0 
L 1638 4134 
L -19 4134 
L -19 4666 
z
" transform="scale(0.015625)"/>
       <path id="DejaVuSans-72" d="M 2631 2963 
Q 2534 3019 2420 3045 
Q 2306 3072 2169 3072 
Q 1681 3072 1420 2755 
Q 1159 2438 1159 1844 
L 1159 0 
L 581 0 
L 581 3500 
L 1159 3500 
L 1159 2956 
Q 1341 3275 1631 3429 
Q 1922 3584 2338 3584 
Q 2397 3584 2469 3576 
Q 2541 3569 2628 3553 
L 2631 2963 
z
" transform="scale(0.015625)"/>
       <path id="DejaVuSans-6f" d="M 1959 3097 
Q 1497 3097 1228 2736 
Q 959 2375 959 1747 
Q 959 1119 1226 758 
Q 1494 397 1959 397 
Q 2419 397 2687 759 
Q 2956 1122 2956 1747 
Q 2956 2369 2687 2733 
Q 2419 3097 1959 3097 
z
M 1959 3584 
Q 2709 3584 3137 3096 
Q 3566 2609 3566 1747 
Q 3566 888 3137 398 
Q 2709 -91 1959 -91 
Q 1206 -91 779 398 
Q 353 888 353 1747 
Q 353 2609 779 3096 
Q 1206 3584 1959 3584 
z
" transform="scale(0.015625)"/>
       <path id="DejaVuSans-65" d="M 3597 1894 
L 3597 1613 
L 953 1613 
Q 991 1019 1311 708 
Q 1631 397 2203 397 
Q 2534 397 2845 478 
Q 3156 559 3463 722 
L 3463 178 
Q 3153 47 2828 -22 
Q 2503 -91 2169 -91 
Q 1331 -91 842 396 
Q 353 884 353 1716 
Q 353 2575 817 3079 
Q 1281 3584 2069 3584 
Q 2775 3584 3186 3129 
Q 3597 2675 3597 1894 
z
M 3022 2063 
Q 3016 2534 2758 2815 
Q 2500 3097 2075 3097 
Q 1594 3097 1305 2825 
Q 1016 2553 972 2059 
L 3022 2063 
z
" transform="scale(0.015625)"/>
      </defs>
      <use xlink:href="#DejaVuSans-54"/>
      <use xlink:href="#DejaVuSans-72" x="46.333984"/>
      <use xlink:href="#DejaVuSans-6f" x="85.197266"/>
      <use xlink:href="#DejaVuSans-74" x="146.378906"/>
      <use xlink:href="#DejaVuSans-74" x="185.587891"/>
      <use xlink:href="#DejaVuSans-65" x="224.796875"/>
      <use xlink:href="#DejaVuSans-72" x="286.320312"/>
     </g>
    </g>
   </g>
  </g>
 </g>
 <defs>
  <clipPath id="p2dc5041a9f">
   <rect x="57.6" y="41.472" width="357.12" height="266.112"/>
  </clipPath>
 </defs>
</svg>
