<?xml version="1.0" encoding="utf-8" standalone="no"?>
<!DOCTYPE svg PUBLIC "-//W3C//DTD SVG 1.1//EN"
  "http://www.w3.org/Graphics/SVG/1.1/DTD/svg11.dtd">
<svg xmlns:xlink="http://www.w3.org/1999/xlink" width="460.8pt" height="345.6pt" viewBox="0 0 460.8 345.6" xmlns="http://www.w3.org/2000/svg" version="1.1">
 <metadata>
  <rdf:RDF xmlns:dc="http://purl.org/dc/elements/1.1/" xmlns:cc="http://creativecommons.org/ns#" xmlns:rdf="http://www.w3.org/1999/02/22-rdf-syntax-ns#">
   <cc:Work>
    <dc:type rdf:resource="http://purl.org/dc/dcmitype/StillImage"/>
    <dc:date>2024-07-12T13:07:06.604143</dc:date>
    <dc:format>image/svg+xml</dc:format>
    <dc:creator>
     <cc:Agent>
      <dc:title>Matplotlib v3.7.1, https://matplotlib.org/</dc:title>
     </cc:Agent>
    </dc:creator>
   </cc:Work>
  </rdf:RDF>
 </metadata>
 <defs>
  <style type="text/css">*{stroke-linejoin: round; stroke-linecap: butt}</style>
 </defs>
 <g id="figure_1">
  <g id="patch_1">
   <path d="M 0 345.6 
L 460.8 345.6 
L 460.8 0 
L 0 0 
z
" style="fill: #ffffff"/>
  </g>
  <g id="axes_1">
   <g id="patch_2">
    <path d="M 57.6 307.584 
L 414.72 307.584 
L 414.72 41.472 
L 57.6 41.472 
z
" style="fill: #ffffff"/>
   </g>
   <g id="matplotlib.axis_1">
    <g id="xtick_1">
     <g id="line2d_1">
      <defs>
       <path id="m3cf5fc25fc" d="M 0 0 
L 0 3.5 
" style="stroke: #000000; stroke-width: 0.8"/>
      </defs>
      <g>
       <use xlink:href="#m3cf5fc25fc" x="73.832727" y="307.584" style="stroke: #000000; stroke-width: 0.8"/>
      </g>
     </g>
     <g id="text_1">
      <!-- 0 -->
      <g transform="translate(70.651477 322.182437) scale(0.1 -0.1)">
       <defs>
        <path id="DejaVuSans-30" d="M 2034 4250 
Q 1547 4250 1301 3770 
Q 1056 3291 1056 2328 
Q 1056 1369 1301 889 
Q 1547 409 2034 409 
Q 2525 409 2770 889 
Q 3016 1369 3016 2328 
Q 3016 3291 2770 3770 
Q 2525 4250 2034 4250 
z
M 2034 4750 
Q 2819 4750 3233 4129 
Q 3647 3509 3647 2328 
Q 3647 1150 3233 529 
Q 2819 -91 2034 -91 
Q 1250 -91 836 529 
Q 422 1150 422 2328 
Q 422 3509 836 4129 
Q 1250 4750 2034 4750 
z
" transform="scale(0.015625)"/>
       </defs>
       <use xlink:href="#DejaVuSans-30"/>
      </g>
     </g>
    </g>
    <g id="xtick_2">
     <g id="line2d_2">
      <g>
       <use xlink:href="#m3cf5fc25fc" x="137.303802" y="307.584" style="stroke: #000000; stroke-width: 0.8"/>
      </g>
     </g>
     <g id="text_2">
      <!-- 200 -->
      <g transform="translate(127.760052 322.182437) scale(0.1 -0.1)">
       <defs>
        <path id="DejaVuSans-32" d="M 1228 531 
L 3431 531 
L 3431 0 
L 469 0 
L 469 531 
Q 828 903 1448 1529 
Q 2069 2156 2228 2338 
Q 2531 2678 2651 2914 
Q 2772 3150 2772 3378 
Q 2772 3750 2511 3984 
Q 2250 4219 1831 4219 
Q 1534 4219 1204 4116 
Q 875 4013 500 3803 
L 500 4441 
Q 881 4594 1212 4672 
Q 1544 4750 1819 4750 
Q 2544 4750 2975 4387 
Q 3406 4025 3406 3419 
Q 3406 3131 3298 2873 
Q 3191 2616 2906 2266 
Q 2828 2175 2409 1742 
Q 1991 1309 1228 531 
z
" transform="scale(0.015625)"/>
       </defs>
       <use xlink:href="#DejaVuSans-32"/>
       <use xlink:href="#DejaVuSans-30" x="63.623047"/>
       <use xlink:href="#DejaVuSans-30" x="127.246094"/>
      </g>
     </g>
    </g>
    <g id="xtick_3">
     <g id="line2d_3">
      <g>
       <use xlink:href="#m3cf5fc25fc" x="200.774876" y="307.584" style="stroke: #000000; stroke-width: 0.8"/>
      </g>
     </g>
     <g id="text_3">
      <!-- 400 -->
      <g transform="translate(191.231126 322.182437) scale(0.1 -0.1)">
       <defs>
        <path id="DejaVuSans-34" d="M 2419 4116 
L 825 1625 
L 2419 1625 
L 2419 4116 
z
M 2253 4666 
L 3047 4666 
L 3047 1625 
L 3713 1625 
L 3713 1100 
L 3047 1100 
L 3047 0 
L 2419 0 
L 2419 1100 
L 313 1100 
L 313 1709 
L 2253 4666 
z
" transform="scale(0.015625)"/>
       </defs>
       <use xlink:href="#DejaVuSans-34"/>
       <use xlink:href="#DejaVuSans-30" x="63.623047"/>
       <use xlink:href="#DejaVuSans-30" x="127.246094"/>
      </g>
     </g>
    </g>
    <g id="xtick_4">
     <g id="line2d_4">
      <g>
       <use xlink:href="#m3cf5fc25fc" x="264.24595" y="307.584" style="stroke: #000000; stroke-width: 0.8"/>
      </g>
     </g>
     <g id="text_4">
      <!-- 600 -->
      <g transform="translate(254.7022 322.182437) scale(0.1 -0.1)">
       <defs>
        <path id="DejaVuSans-36" d="M 2113 2584 
Q 1688 2584 1439 2293 
Q 1191 2003 1191 1497 
Q 1191 994 1439 701 
Q 1688 409 2113 409 
Q 2538 409 2786 701 
Q 3034 994 3034 1497 
Q 3034 2003 2786 2293 
Q 2538 2584 2113 2584 
z
M 3366 4563 
L 3366 3988 
Q 3128 4100 2886 4159 
Q 2644 4219 2406 4219 
Q 1781 4219 1451 3797 
Q 1122 3375 1075 2522 
Q 1259 2794 1537 2939 
Q 1816 3084 2150 3084 
Q 2853 3084 3261 2657 
Q 3669 2231 3669 1497 
Q 3669 778 3244 343 
Q 2819 -91 2113 -91 
Q 1303 -91 875 529 
Q 447 1150 447 2328 
Q 447 3434 972 4092 
Q 1497 4750 2381 4750 
Q 2619 4750 2861 4703 
Q 3103 4656 3366 4563 
z
" transform="scale(0.015625)"/>
       </defs>
       <use xlink:href="#DejaVuSans-36"/>
       <use xlink:href="#DejaVuSans-30" x="63.623047"/>
       <use xlink:href="#DejaVuSans-30" x="127.246094"/>
      </g>
     </g>
    </g>
    <g id="xtick_5">
     <g id="line2d_5">
      <g>
       <use xlink:href="#m3cf5fc25fc" x="327.717025" y="307.584" style="stroke: #000000; stroke-width: 0.8"/>
      </g>
     </g>
     <g id="text_5">
      <!-- 800 -->
      <g transform="translate(318.173275 322.182437) scale(0.1 -0.1)">
       <defs>
        <path id="DejaVuSans-38" d="M 2034 2216 
Q 1584 2216 1326 1975 
Q 1069 1734 1069 1313 
Q 1069 891 1326 650 
Q 1584 409 2034 409 
Q 2484 409 2743 651 
Q 3003 894 3003 1313 
Q 3003 1734 2745 1975 
Q 2488 2216 2034 2216 
z
M 1403 2484 
Q 997 2584 770 2862 
Q 544 3141 544 3541 
Q 544 4100 942 4425 
Q 1341 4750 2034 4750 
Q 2731 4750 3128 4425 
Q 3525 4100 3525 3541 
Q 3525 3141 3298 2862 
Q 3072 2584 2669 2484 
Q 3125 2378 3379 2068 
Q 3634 1759 3634 1313 
Q 3634 634 3220 271 
Q 2806 -91 2034 -91 
Q 1263 -91 848 271 
Q 434 634 434 1313 
Q 434 1759 690 2068 
Q 947 2378 1403 2484 
z
M 1172 3481 
Q 1172 3119 1398 2916 
Q 1625 2713 2034 2713 
Q 2441 2713 2670 2916 
Q 2900 3119 2900 3481 
Q 2900 3844 2670 4047 
Q 2441 4250 2034 4250 
Q 1625 4250 1398 4047 
Q 1172 3844 1172 3481 
z
" transform="scale(0.015625)"/>
       </defs>
       <use xlink:href="#DejaVuSans-38"/>
       <use xlink:href="#DejaVuSans-30" x="63.623047"/>
       <use xlink:href="#DejaVuSans-30" x="127.246094"/>
      </g>
     </g>
    </g>
    <g id="xtick_6">
     <g id="line2d_6">
      <g>
       <use xlink:href="#m3cf5fc25fc" x="391.188099" y="307.584" style="stroke: #000000; stroke-width: 0.8"/>
      </g>
     </g>
     <g id="text_6">
      <!-- 1000 -->
      <g transform="translate(378.463099 322.182437) scale(0.1 -0.1)">
       <defs>
        <path id="DejaVuSans-31" d="M 794 531 
L 1825 531 
L 1825 4091 
L 703 3866 
L 703 4441 
L 1819 4666 
L 2450 4666 
L 2450 531 
L 3481 531 
L 3481 0 
L 794 0 
L 794 531 
z
" transform="scale(0.015625)"/>
       </defs>
       <use xlink:href="#DejaVuSans-31"/>
       <use xlink:href="#DejaVuSans-30" x="63.623047"/>
       <use xlink:href="#DejaVuSans-30" x="127.246094"/>
       <use xlink:href="#DejaVuSans-30" x="190.869141"/>
      </g>
     </g>
    </g>
    <g id="text_7">
     <!-- n -->
     <g transform="translate(232.99125 335.860562) scale(0.1 -0.1)">
      <defs>
       <path id="DejaVuSans-6e" d="M 3513 2113 
L 3513 0 
L 2938 0 
L 2938 2094 
Q 2938 2591 2744 2837 
Q 2550 3084 2163 3084 
Q 1697 3084 1428 2787 
Q 1159 2491 1159 1978 
L 1159 0 
L 581 0 
L 581 3500 
L 1159 3500 
L 1159 2956 
Q 1366 3272 1645 3428 
Q 1925 3584 2291 3584 
Q 2894 3584 3203 3211 
Q 3513 2838 3513 2113 
z
" transform="scale(0.015625)"/>
      </defs>
      <use xlink:href="#DejaVuSans-6e"/>
     </g>
    </g>
   </g>
   <g id="matplotlib.axis_2">
    <g id="ytick_1">
     <g id="line2d_7">
      <defs>
       <path id="m1c59614a42" d="M 0 0 
L -3.5 0 
" style="stroke: #000000; stroke-width: 0.8"/>
      </defs>
      <g>
       <use xlink:href="#m1c59614a42" x="57.6" y="290.711882" style="stroke: #000000; stroke-width: 0.8"/>
      </g>
     </g>
     <g id="text_8">
      <!-- −3 -->
      <g transform="translate(35.857813 294.511101) scale(0.1 -0.1)">
       <defs>
        <path id="DejaVuSans-2212" d="M 678 2272 
L 4684 2272 
L 4684 1741 
L 678 1741 
L 678 2272 
z
" transform="scale(0.015625)"/>
        <path id="DejaVuSans-33" d="M 2597 2516 
Q 3050 2419 3304 2112 
Q 3559 1806 3559 1356 
Q 3559 666 3084 287 
Q 2609 -91 1734 -91 
Q 1441 -91 1130 -33 
Q 819 25 488 141 
L 488 750 
Q 750 597 1062 519 
Q 1375 441 1716 441 
Q 2309 441 2620 675 
Q 2931 909 2931 1356 
Q 2931 1769 2642 2001 
Q 2353 2234 1838 2234 
L 1294 2234 
L 1294 2753 
L 1863 2753 
Q 2328 2753 2575 2939 
Q 2822 3125 2822 3475 
Q 2822 3834 2567 4026 
Q 2313 4219 1838 4219 
Q 1578 4219 1281 4162 
Q 984 4106 628 3988 
L 628 4550 
Q 988 4650 1302 4700 
Q 1616 4750 1894 4750 
Q 2613 4750 3031 4423 
Q 3450 4097 3450 3541 
Q 3450 3153 3228 2886 
Q 3006 2619 2597 2516 
z
" transform="scale(0.015625)"/>
       </defs>
       <use xlink:href="#DejaVuSans-2212"/>
       <use xlink:href="#DejaVuSans-33" x="83.789062"/>
      </g>
     </g>
    </g>
    <g id="ytick_2">
     <g id="line2d_8">
      <g>
       <use xlink:href="#m1c59614a42" x="57.6" y="252.088375" style="stroke: #000000; stroke-width: 0.8"/>
      </g>
     </g>
     <g id="text_9">
      <!-- −2 -->
      <g transform="translate(35.857813 255.887594) scale(0.1 -0.1)">
       <use xlink:href="#DejaVuSans-2212"/>
       <use xlink:href="#DejaVuSans-32" x="83.789062"/>
      </g>
     </g>
    </g>
    <g id="ytick_3">
     <g id="line2d_9">
      <g>
       <use xlink:href="#m1c59614a42" x="57.6" y="213.464868" style="stroke: #000000; stroke-width: 0.8"/>
      </g>
     </g>
     <g id="text_10">
      <!-- −1 -->
      <g transform="translate(35.857813 217.264087) scale(0.1 -0.1)">
       <use xlink:href="#DejaVuSans-2212"/>
       <use xlink:href="#DejaVuSans-31" x="83.789062"/>
      </g>
     </g>
    </g>
    <g id="ytick_4">
     <g id="line2d_10">
      <g>
       <use xlink:href="#m1c59614a42" x="57.6" y="174.841361" style="stroke: #000000; stroke-width: 0.8"/>
      </g>
     </g>
     <g id="text_11">
      <!-- 0 -->
      <g transform="translate(44.2375 178.64058) scale(0.1 -0.1)">
       <use xlink:href="#DejaVuSans-30"/>
      </g>
     </g>
    </g>
    <g id="ytick_5">
     <g id="line2d_11">
      <g>
       <use xlink:href="#m1c59614a42" x="57.6" y="136.217854" style="stroke: #000000; stroke-width: 0.8"/>
      </g>
     </g>
     <g id="text_12">
      <!-- 1 -->
      <g transform="translate(44.2375 140.017073) scale(0.1 -0.1)">
       <use xlink:href="#DejaVuSans-31"/>
      </g>
     </g>
    </g>
    <g id="ytick_6">
     <g id="line2d_12">
      <g>
       <use xlink:href="#m1c59614a42" x="57.6" y="97.594347" style="stroke: #000000; stroke-width: 0.8"/>
      </g>
     </g>
     <g id="text_13">
      <!-- 2 -->
      <g transform="translate(44.2375 101.393566) scale(0.1 -0.1)">
       <use xlink:href="#DejaVuSans-32"/>
      </g>
     </g>
    </g>
    <g id="ytick_7">
     <g id="line2d_13">
      <g>
       <use xlink:href="#m1c59614a42" x="57.6" y="58.97084" style="stroke: #000000; stroke-width: 0.8"/>
      </g>
     </g>
     <g id="text_14">
      <!-- 3 -->
      <g transform="translate(44.2375 62.770059) scale(0.1 -0.1)">
       <use xlink:href="#DejaVuSans-33"/>
      </g>
     </g>
    </g>
    <g id="text_15">
     <!-- E*t -->
     <g transform="translate(29.778125 182.147531) rotate(-90) scale(0.1 -0.1)">
      <defs>
       <path id="DejaVuSans-45" d="M 628 4666 
L 3578 4666 
L 3578 4134 
L 1259 4134 
L 1259 2753 
L 3481 2753 
L 3481 2222 
L 1259 2222 
L 1259 531 
L 3634 531 
L 3634 0 
L 628 0 
L 628 4666 
z
" transform="scale(0.015625)"/>
       <path id="DejaVuSans-2a" d="M 3009 3897 
L 1888 3291 
L 3009 2681 
L 2828 2375 
L 1778 3009 
L 1778 1831 
L 1422 1831 
L 1422 3009 
L 372 2375 
L 191 2681 
L 1313 3291 
L 191 3897 
L 372 4206 
L 1422 3572 
L 1422 4750 
L 1778 4750 
L 1778 3572 
L 2828 4206 
L 3009 3897 
z
" transform="scale(0.015625)"/>
       <path id="DejaVuSans-74" d="M 1172 4494 
L 1172 3500 
L 2356 3500 
L 2356 3053 
L 1172 3053 
L 1172 1153 
Q 1172 725 1289 603 
Q 1406 481 1766 481 
L 2356 481 
L 2356 0 
L 1766 0 
Q 1100 0 847 248 
Q 594 497 594 1153 
L 594 3053 
L 172 3053 
L 172 3500 
L 594 3500 
L 594 4494 
L 1172 4494 
z
" transform="scale(0.015625)"/>
      </defs>
      <use xlink:href="#DejaVuSans-45"/>
      <use xlink:href="#DejaVuSans-2a" x="63.183594"/>
      <use xlink:href="#DejaVuSans-74" x="113.183594"/>
     </g>
    </g>
   </g>
   <g id="line2d_14">
    <path d="M 73.832727 295.488 
L 75.102149 294.820841 
L 75.419504 294.706893 
L 75.73686 294.248971 
L 76.37157 292.729757 
L 77.006281 292.505694 
L 77.323636 291.944676 
L 77.640992 291.843226 
L 78.275702 291.429105 
L 78.910413 291.364575 
L 79.227769 290.866392 
L 80.49719 290.429011 
L 80.814545 289.877775 
L 82.401322 289.330089 
L 82.718678 289.29015 
L 83.670744 288.435328 
L 83.988099 287.728382 
L 84.62281 287.510244 
L 84.940165 287.341074 
L 85.574876 287.27987 
L 85.892231 287.045477 
L 86.209587 286.391806 
L 87.161653 285.411198 
L 87.479008 285.242033 
L 87.796364 283.268083 
L 88.113719 282.314183 
L 88.431074 281.998164 
L 88.74843 281.343672 
L 89.065785 281.318248 
L 89.38314 280.35559 
L 90.017851 280.048329 
L 90.335207 279.349635 
L 90.652562 279.25688 
L 91.287273 277.262844 
L 92.556694 275.594594 
L 93.191405 275.180586 
L 93.50876 274.761983 
L 93.826116 274.130103 
L 94.460826 273.489423 
L 95.730248 271.82688 
L 96.047603 271.815116 
L 96.364959 271.519219 
L 96.999669 271.25718 
L 97.317025 271.095661 
L 97.63438 271.062225 
L 98.586446 269.647728 
L 99.221157 269.4338 
L 99.538512 268.547883 
L 99.855868 268.454474 
L 100.173223 267.692935 
L 101.76 267.054802 
L 102.077355 266.74865 
L 103.029421 266.382069 
L 103.664132 265.784886 
L 104.298843 265.476867 
L 104.933554 265.47493 
L 105.250909 265.352483 
L 105.568264 265.352037 
L 105.88562 264.78058 
L 106.202975 264.769431 
L 106.520331 264.620237 
L 106.837686 264.283024 
L 107.789752 264.080263 
L 108.107107 263.568238 
L 109.059174 263.49892 
L 109.376529 263.347896 
L 109.693884 262.916256 
L 110.64595 262.312263 
L 110.963306 262.251809 
L 111.280661 262.051649 
L 111.598017 261.669638 
L 111.915372 261.505084 
L 112.232727 261.480912 
L 112.550083 261.291345 
L 113.184793 261.205731 
L 115.723636 260.020071 
L 116.358347 259.485339 
L 117.310413 259.203059 
L 118.89719 258.738891 
L 119.531901 258.215426 
L 119.849256 258.15726 
L 120.166612 257.213406 
L 120.483967 257.0208 
L 120.801322 256.462656 
L 121.118678 255.5492 
L 121.436033 255.218594 
L 121.753388 254.469492 
L 122.070744 254.462088 
L 122.705455 254.223077 
L 123.02281 253.661471 
L 123.657521 253.581207 
L 123.974876 253.225429 
L 124.609587 253.100881 
L 124.926942 252.977227 
L 125.244298 252.59797 
L 125.561653 252.569422 
L 125.879008 252.321286 
L 126.513719 252.156385 
L 126.831074 251.739339 
L 127.78314 251.371109 
L 128.417851 251.328 
L 128.735207 251.037728 
L 129.369917 250.910005 
L 129.687273 250.236235 
L 130.321983 250.132043 
L 131.591405 248.966323 
L 131.90876 248.912116 
L 132.226116 248.564072 
L 132.543471 247.706999 
L 132.860826 247.179849 
L 133.178182 247.081348 
L 133.495537 246.771091 
L 133.812893 246.19592 
L 134.130248 245.867237 
L 134.447603 245.847308 
L 135.082314 245.698569 
L 136.351736 245.466042 
L 136.669091 245.145724 
L 137.621157 244.956689 
L 137.938512 244.628095 
L 138.573223 244.428763 
L 139.207934 244.194091 
L 139.842645 243.68408 
L 140.16 243.620574 
L 140.477355 242.997354 
L 140.794711 242.85869 
L 141.112066 242.47768 
L 141.429421 241.724744 
L 141.746777 241.464273 
L 142.064132 240.989513 
L 142.381488 240.795489 
L 142.698843 240.414475 
L 143.016198 239.837288 
L 143.333554 239.503016 
L 144.28562 239.153235 
L 144.920331 238.91289 
L 145.555041 238.799521 
L 146.507107 237.752902 
L 148.41124 236.921451 
L 149.04595 236.487034 
L 149.680661 236.373917 
L 149.998017 235.890515 
L 150.315372 234.561901 
L 150.950083 234.346673 
L 151.584793 234.214044 
L 151.902149 233.768309 
L 152.219504 233.100276 
L 152.53686 232.970234 
L 152.854215 231.818119 
L 153.17157 231.688995 
L 153.488926 231.351288 
L 154.123636 231.252331 
L 154.440992 230.779829 
L 155.075702 230.620454 
L 155.393058 230.081332 
L 155.710413 230.033243 
L 156.027769 229.832647 
L 156.662479 229.738779 
L 156.979835 229.508451 
L 157.29719 229.426237 
L 157.614545 229.189179 
L 158.249256 229.08478 
L 158.566612 228.590745 
L 158.883967 228.557303 
L 159.201322 227.934158 
L 159.836033 227.710592 
L 160.153388 227.014651 
L 160.788099 226.897844 
L 161.740165 225.847368 
L 162.374876 224.959369 
L 163.644298 224.73233 
L 163.961653 224.196767 
L 164.596364 224.089253 
L 165.54843 223.460562 
L 166.18314 223.305558 
L 166.500496 222.94104 
L 166.817851 222.937159 
L 167.452562 222.813117 
L 167.769917 222.811641 
L 168.087273 222.562567 
L 168.404628 222.480901 
L 169.039339 222.062679 
L 169.356694 222.035123 
L 169.67405 221.696422 
L 169.991405 221.539653 
L 170.30876 221.515867 
L 170.943471 220.417689 
L 172.847603 219.64858 
L 173.482314 219.515642 
L 173.799669 219.272593 
L 174.43438 219.018402 
L 174.751736 218.644986 
L 175.069091 218.594877 
L 175.703802 218.33459 
L 176.338512 218.196908 
L 177.925289 217.783328 
L 178.56 217.553895 
L 178.877355 217.439566 
L 179.194711 217.141187 
L 180.146777 216.924328 
L 180.464132 216.549851 
L 181.098843 216.510724 
L 183.320331 214.686742 
L 183.637686 213.499097 
L 184.272397 213.417306 
L 185.224463 212.623364 
L 185.541818 212.226907 
L 185.859174 212.168994 
L 186.493884 211.346401 
L 187.128595 211.11008 
L 187.44595 210.904377 
L 187.763306 210.900727 
L 188.398017 210.028374 
L 188.715372 209.750143 
L 189.350083 209.654796 
L 189.667438 208.946179 
L 189.984793 208.840583 
L 190.619504 207.896697 
L 191.254215 207.809909 
L 191.57157 207.686636 
L 192.206281 206.149035 
L 192.523636 205.829435 
L 193.475702 205.732575 
L 193.793058 205.416797 
L 195.69719 204.746283 
L 196.014545 204.473651 
L 196.331901 204.405211 
L 196.649256 204.042209 
L 196.966612 203.974979 
L 197.601322 203.474179 
L 198.553388 203.147965 
L 199.505455 203.083132 
L 200.457521 202.702998 
L 200.774876 202.004543 
L 201.726942 201.60728 
L 202.996364 201.402074 
L 203.631074 201.041888 
L 204.265785 200.874332 
L 204.900496 200.608374 
L 205.217851 200.360421 
L 206.169917 200.254378 
L 206.487273 199.940462 
L 209.343471 198.74353 
L 209.660826 198.708354 
L 210.295537 198.296648 
L 210.930248 198.190145 
L 211.247603 197.774542 
L 212.517025 197.334672 
L 212.83438 197.053232 
L 213.151736 197.019949 
L 213.469091 196.795 
L 213.786446 196.767586 
L 214.738512 196.216052 
L 216.325289 196.040052 
L 216.96 195.833894 
L 218.864132 195.516719 
L 219.181488 195.29572 
L 219.498843 195.272891 
L 220.450909 194.285761 
L 221.08562 194.067357 
L 222.355041 193.686028 
L 222.989752 193.20142 
L 223.307107 192.476996 
L 223.624463 192.193254 
L 223.941818 192.078113 
L 224.259174 191.170632 
L 224.576529 190.646149 
L 224.893884 190.401598 
L 225.21124 190.305678 
L 225.528595 190.002648 
L 226.480661 189.830756 
L 227.115372 189.062907 
L 227.432727 188.962345 
L 228.067438 188.352062 
L 228.384793 187.883052 
L 230.288926 187.082959 
L 230.606281 186.534308 
L 230.923636 186.484549 
L 231.875702 185.406944 
L 232.193058 185.32861 
L 232.510413 184.470757 
L 232.827769 184.420928 
L 233.145124 183.326074 
L 233.462479 183.247584 
L 233.779835 182.825929 
L 234.09719 181.927903 
L 234.414545 181.554553 
L 234.731901 181.416806 
L 235.049256 180.837451 
L 235.683967 180.585192 
L 236.636033 180.145733 
L 236.953388 179.79915 
L 237.588099 179.747965 
L 239.174876 178.970237 
L 240.444298 178.556532 
L 241.396364 178.373765 
L 242.34843 178.192834 
L 242.665785 177.836155 
L 243.617851 177.696702 
L 244.252562 177.566801 
L 244.887273 177.319097 
L 245.839339 176.99569 
L 246.156694 176.739568 
L 247.10876 176.593484 
L 248.060826 176.26138 
L 248.695537 176.188088 
L 249.330248 176.118144 
L 249.647603 175.688684 
L 250.599669 175.182424 
L 251.23438 175.131301 
L 251.551736 174.78373 
L 252.186446 174.655617 
L 254.725289 173.902777 
L 255.042645 173.513252 
L 255.994711 173.28029 
L 256.312066 173.26296 
L 257.264132 172.720548 
L 257.581488 172.630426 
L 258.216198 172.205575 
L 258.850909 172.00504 
L 259.168264 171.480023 
L 260.120331 171.211025 
L 261.072397 170.633307 
L 261.389752 170.56136 
L 261.707107 169.320013 
L 262.976529 168.54668 
L 263.293884 168.136647 
L 263.61124 167.525327 
L 263.928595 167.160706 
L 265.832727 166.241561 
L 266.150083 165.904958 
L 266.467438 165.744932 
L 266.784793 164.616884 
L 267.102149 164.339301 
L 267.419504 164.317569 
L 267.73686 164.15762 
L 268.37157 162.401076 
L 268.688926 162.311091 
L 269.006281 161.984525 
L 269.323636 161.86582 
L 269.640992 161.445809 
L 269.958347 161.433704 
L 270.275702 161.158717 
L 271.227769 161.015769 
L 271.545124 160.494503 
L 271.862479 160.234342 
L 273.449256 159.811236 
L 273.766612 159.466861 
L 275.670744 158.878562 
L 276.305455 158.428339 
L 278.844298 157.372417 
L 279.479008 157.264143 
L 280.113719 157.079901 
L 281.065785 156.852055 
L 281.38314 156.365189 
L 282.969917 156.117656 
L 283.604628 155.837506 
L 284.556694 155.375179 
L 285.191405 155.127251 
L 286.778182 154.687604 
L 287.412893 154.141123 
L 288.364959 154.050003 
L 288.682314 153.629991 
L 289.317025 152.30541 
L 289.63438 152.262674 
L 289.951736 152.028527 
L 290.269091 150.216335 
L 290.586446 150.173652 
L 290.903802 149.012274 
L 291.855868 148.779815 
L 292.490579 148.201382 
L 292.807934 147.64989 
L 293.125289 147.537559 
L 293.442645 147.237687 
L 293.76 147.173139 
L 294.077355 146.991249 
L 295.346777 146.83492 
L 295.981488 146.244648 
L 297.568264 145.085301 
L 298.520331 144.801294 
L 299.155041 143.661194 
L 299.472397 143.13079 
L 300.107107 142.918842 
L 300.741818 142.752347 
L 301.059174 141.676867 
L 301.376529 141.51075 
L 301.693884 141.040105 
L 302.64595 140.229233 
L 302.963306 138.481462 
L 303.598017 138.142254 
L 303.915372 137.500622 
L 304.232727 137.464122 
L 304.550083 137.189856 
L 306.454215 136.61538 
L 306.77157 136.348456 
L 309.627769 135.387633 
L 309.945124 135.37325 
L 310.262479 135.109832 
L 310.579835 135.109421 
L 310.89719 134.895377 
L 311.214545 134.881131 
L 311.531901 134.218202 
L 311.849256 134.057059 
L 312.801322 133.900822 
L 313.118678 132.793166 
L 313.436033 132.761454 
L 313.753388 132.130296 
L 314.705455 131.67281 
L 315.02281 131.097006 
L 316.926942 130.452607 
L 317.244298 129.81943 
L 317.561653 129.763623 
L 318.513719 129.286165 
L 319.465785 128.985591 
L 320.100496 128.547812 
L 321.052562 128.016271 
L 321.369917 127.422775 
L 322.004628 127.082515 
L 322.321983 127.056229 
L 322.639339 126.648898 
L 323.591405 126.268012 
L 324.226116 126.152882 
L 324.543471 126.059786 
L 324.860826 125.84038 
L 325.178182 125.317416 
L 325.495537 125.315165 
L 326.130248 125.057008 
L 327.399669 124.889211 
L 327.717025 124.815831 
L 328.03438 124.594936 
L 328.351736 124.553533 
L 328.669091 124.291432 
L 328.986446 123.8193 
L 329.303802 123.694096 
L 329.938512 122.911723 
L 330.573223 122.633345 
L 330.890579 120.687552 
L 331.207934 120.538189 
L 331.842645 119.606469 
L 332.477355 118.30177 
L 333.429421 117.85103 
L 333.746777 117.709867 
L 334.698843 117.604564 
L 335.016198 117.515615 
L 335.333554 117.084714 
L 336.28562 116.915788 
L 336.602975 116.4662 
L 337.555041 116.345535 
L 338.189752 115.842067 
L 338.824463 115.748878 
L 339.776529 115.645895 
L 340.093884 115.10302 
L 340.728595 114.922781 
L 341.04595 114.499679 
L 341.363306 114.44151 
L 341.998017 113.757947 
L 342.632727 112.017696 
L 342.950083 111.833826 
L 343.267438 111.419888 
L 343.584793 110.56217 
L 343.902149 110.148232 
L 344.219504 107.503411 
L 345.488926 106.802133 
L 345.806281 106.231825 
L 347.393058 105.273318 
L 348.345124 101.711435 
L 348.979835 101.49688 
L 349.29719 100.997525 
L 349.614545 100.771673 
L 349.931901 100.696236 
L 350.566612 99.752916 
L 350.883967 99.615348 
L 351.518678 99.504633 
L 352.153388 99.451673 
L 352.470744 99.003826 
L 353.105455 98.87071 
L 353.42281 98.554862 
L 354.057521 98.412955 
L 354.374876 98.236867 
L 354.692231 97.887627 
L 355.326942 97.65791 
L 356.596364 97.40637 
L 356.913719 97.247455 
L 357.54843 96.487964 
L 358.500496 96.310129 
L 358.817851 95.984555 
L 359.452562 95.820728 
L 359.769917 95.64916 
L 360.404628 95.481708 
L 361.039339 95.176454 
L 361.356694 94.748069 
L 361.991405 94.691209 
L 362.30876 94.405962 
L 363.578182 94.214137 
L 363.895537 93.936137 
L 364.212893 93.833039 
L 364.530248 93.508253 
L 364.847603 93.502781 
L 365.164959 93.125034 
L 365.482314 92.978742 
L 365.799669 87.567476 
L 366.117025 86.372973 
L 366.43438 86.295821 
L 366.751736 85.101318 
L 367.069091 84.506446 
L 367.703802 82.643044 
L 368.021157 82.475304 
L 368.338512 82.44329 
L 368.655868 82.164214 
L 368.973223 81.44528 
L 369.290579 81.236277 
L 369.607934 81.197723 
L 370.242645 80.61084 
L 370.56 80.579888 
L 371.194711 79.926076 
L 371.512066 79.902931 
L 371.829421 79.596319 
L 372.464132 79.371811 
L 372.781488 77.836033 
L 373.098843 77.73926 
L 373.416198 77.422029 
L 374.368264 75.979103 
L 374.68562 75.66223 
L 375.955041 75.399975 
L 376.272397 74.70921 
L 376.589752 74.654863 
L 376.907107 74.320383 
L 377.541818 74.095048 
L 377.859174 73.66812 
L 378.493884 73.445072 
L 379.44595 73.333077 
L 379.763306 72.979656 
L 380.080661 72.421583 
L 380.398017 72.199161 
L 381.350083 72.031896 
L 381.984793 71.652158 
L 382.302149 71.546259 
L 382.619504 70.985555 
L 382.93686 70.915983 
L 383.254215 70.509625 
L 383.57157 70.405548 
L 383.888926 70.161629 
L 384.206281 70.073226 
L 384.840992 69.552467 
L 385.158347 69.477235 
L 385.475702 68.921882 
L 385.793058 68.890363 
L 386.427769 68.262824 
L 386.745124 68.166057 
L 388.331901 67.016644 
L 388.966612 66.684895 
L 389.601322 65.719117 
L 390.236033 65.644856 
L 390.553388 65.051892 
L 390.870744 64.892764 
L 391.188099 64.399179 
L 391.82281 64.299121 
L 392.140165 63.300243 
L 392.457521 63.029206 
L 393.409587 61.310451 
L 393.726942 60.451469 
L 394.044298 60.381494 
L 394.361653 60.040492 
L 394.679008 58.38829 
L 394.996364 55.776855 
L 395.631074 55.634897 
L 395.94843 55.201772 
L 396.265785 54.506951 
L 397.217851 54.224295 
L 398.169917 53.882484 
L 398.487273 53.568 
L 398.487273 53.568 
" clip-path="url(#p1e9b2de16c)" style="fill: none; stroke: #1f77b4; stroke-width: 1.5; stroke-linecap: square"/>
   </g>
   <g id="line2d_15">
    <path d="M 73.832727 253.824968 
L 74.150083 244.608431 
L 74.467438 244.608431 
L 74.784793 236.730169 
L 75.102149 235.093743 
L 75.73686 235.093743 
L 76.054215 232.146015 
L 76.37157 227.169841 
L 76.688926 226.864539 
L 77.006281 226.864539 
L 77.323636 226.094562 
L 78.910413 226.094562 
L 79.227769 223.28721 
L 79.545124 223.28721 
L 79.862479 222.270958 
L 80.179835 221.643103 
L 80.49719 221.643103 
L 80.814545 218.53878 
L 81.131901 217.07755 
L 82.083967 217.052425 
L 82.401322 216.187605 
L 86.844298 216.138503 
L 87.161653 215.664972 
L 87.479008 213.415495 
L 87.796364 212.918218 
L 88.113719 212.139473 
L 89.700496 212.139473 
L 90.017851 211.144468 
L 90.652562 211.144468 
L 90.969917 209.988621 
L 91.287273 209.988621 
L 91.604628 209.386516 
L 91.921983 207.837808 
L 99.221157 207.837808 
L 99.538512 206.914985 
L 99.855868 206.914985 
L 100.173223 206.696698 
L 101.76 206.696698 
L 102.077355 205.740167 
L 103.664132 205.740167 
L 103.981488 205.524409 
L 104.298843 205.151444 
L 104.933554 205.151444 
L 105.250909 203.839691 
L 106.202975 203.773581 
L 106.520331 200.813169 
L 107.155041 200.52066 
L 107.472397 200.52066 
L 107.789752 199.838962 
L 109.376529 199.838962 
L 109.693884 198.342861 
L 110.01124 198.342861 
L 110.328595 196.690139 
L 129.369917 196.690071 
L 129.687273 195.750885 
L 130.321983 194.867572 
L 131.27405 194.811256 
L 131.591405 194.042959 
L 131.90876 194.042959 
L 132.226116 193.867429 
L 132.860826 193.867429 
L 133.178182 192.388405 
L 133.495537 192.388405 
L 133.812893 192.078698 
L 135.399669 192.078698 
L 135.717025 190.817415 
L 136.669091 190.290764 
L 163.009587 190.290764 
L 163.326942 188.981714 
L 167.135207 188.981714 
L 167.452562 188.742479 
L 167.769917 188.742479 
L 168.087273 187.122359 
L 168.404628 187.122359 
L 168.721983 186.68992 
L 169.356694 186.68992 
L 169.67405 186.410859 
L 169.991405 185.74246 
L 171.578182 185.74246 
L 172.212893 185.271191 
L 172.530248 185.271191 
L 172.847603 185.071257 
L 180.146777 185.071257 
L 180.464132 184.727119 
L 180.781488 184.727119 
L 181.098843 184.38956 
L 182.68562 184.38956 
L 183.320331 181.240668 
L 185.541818 181.212657 
L 185.859174 181.029706 
L 186.493884 181.029706 
L 186.81124 180.753364 
L 187.128595 180.060868 
L 187.44595 180.060868 
L 187.763306 179.591848 
L 188.080661 179.591848 
L 188.398017 177.633812 
L 188.715372 174.841361 
L 283.604628 174.841361 
L 284.239339 170.090874 
L 284.556694 170.090874 
L 284.87405 169.621854 
L 285.191405 169.621854 
L 285.50876 168.929358 
L 285.826116 168.653016 
L 286.460826 168.653016 
L 286.778182 168.470065 
L 288.999669 168.442055 
L 289.63438 165.293163 
L 291.221157 165.293163 
L 291.538512 164.955603 
L 291.855868 164.955603 
L 292.173223 164.611465 
L 299.472397 164.611465 
L 299.789752 164.411531 
L 300.107107 164.411531 
L 300.741818 163.940262 
L 302.328595 163.940262 
L 302.64595 163.271863 
L 302.963306 162.992803 
L 303.598017 162.992803 
L 303.915372 162.560363 
L 304.232727 162.560363 
L 304.550083 160.940244 
L 304.867438 160.940244 
L 305.184793 160.701008 
L 308.993058 160.701008 
L 309.310413 159.391958 
L 335.968264 159.320158 
L 336.602975 158.865307 
L 336.920331 157.604024 
L 338.507107 157.604024 
L 338.824463 157.294317 
L 339.141818 157.294317 
L 339.459174 155.815294 
L 340.093884 155.815294 
L 340.41124 155.639764 
L 340.728595 155.639764 
L 341.04595 154.871467 
L 341.998017 154.81515 
L 342.315372 154.473266 
L 342.632727 153.931837 
L 342.950083 152.992652 
L 361.991405 152.992583 
L 362.30876 151.339861 
L 362.626116 151.339861 
L 362.943471 149.84376 
L 364.530248 149.84376 
L 364.847603 149.162062 
L 365.164959 149.162062 
L 365.799669 148.869553 
L 366.117025 145.909141 
L 367.069091 145.843032 
L 367.386446 144.531278 
L 368.021157 144.531278 
L 368.655868 143.942556 
L 370.242645 143.942556 
L 370.56 142.986024 
L 372.146777 142.986024 
L 372.464132 142.767737 
L 372.781488 142.767737 
L 373.098843 141.844915 
L 380.398017 141.844915 
L 380.715372 140.296206 
L 381.032727 139.694101 
L 381.350083 139.694101 
L 381.667438 138.538254 
L 382.302149 138.538254 
L 382.619504 137.543249 
L 384.206281 137.543249 
L 384.840992 136.267227 
L 385.158347 134.01775 
L 385.475702 133.544219 
L 389.918678 133.495118 
L 390.236033 132.630297 
L 391.188099 132.605172 
L 391.505455 131.143942 
L 391.82281 128.039619 
L 392.140165 128.039619 
L 392.457521 127.411764 
L 392.774876 126.395512 
L 393.092231 126.395512 
L 393.409587 123.58816 
L 394.996364 123.58816 
L 395.313719 122.818184 
L 395.631074 122.818184 
L 395.94843 122.512881 
L 396.265785 117.536708 
L 396.58314 114.58898 
L 397.217851 114.58898 
L 397.535207 112.952553 
L 397.852562 105.074291 
L 398.169917 105.074291 
L 398.487273 95.857754 
L 398.487273 95.857754 
" clip-path="url(#p1e9b2de16c)" style="fill: none; stroke: #ff7f0e; stroke-width: 1.5; stroke-linecap: square"/>
   </g>
   <g id="patch_3">
    <path d="M 57.6 307.584 
L 57.6 41.472 
" style="fill: none; stroke: #000000; stroke-width: 0.8; stroke-linejoin: miter; stroke-linecap: square"/>
   </g>
   <g id="patch_4">
    <path d="M 414.72 307.584 
L 414.72 41.472 
" style="fill: none; stroke: #000000; stroke-width: 0.8; stroke-linejoin: miter; stroke-linecap: square"/>
   </g>
   <g id="patch_5">
    <path d="M 57.6 307.584 
L 414.72 307.584 
" style="fill: none; stroke: #000000; stroke-width: 0.8; stroke-linejoin: miter; stroke-linecap: square"/>
   </g>
   <g id="patch_6">
    <path d="M 57.6 41.472 
L 414.72 41.472 
" style="fill: none; stroke: #000000; stroke-width: 0.8; stroke-linejoin: miter; stroke-linecap: square"/>
   </g>
   <g id="legend_1">
    <g id="patch_7">
     <path d="M 64.6 78.82825 
L 129.342187 78.82825 
Q 131.342187 78.82825 131.342187 76.82825 
L 131.342187 48.472 
Q 131.342187 46.472 129.342187 46.472 
L 64.6 46.472 
Q 62.6 46.472 62.6 48.472 
L 62.6 76.82825 
Q 62.6 78.82825 64.6 78.82825 
z
" style="fill: #ffffff; opacity: 0.8; stroke: #cccccc; stroke-linejoin: miter"/>
    </g>
    <g id="line2d_16">
     <path d="M 66.6 54.570437 
L 76.6 54.570437 
L 86.6 54.570437 
" style="fill: none; stroke: #1f77b4; stroke-width: 1.5; stroke-linecap: square"/>
    </g>
    <g id="text_16">
     <!-- qc -->
     <g transform="translate(94.6 58.070437) scale(0.1 -0.1)">
      <defs>
       <path id="DejaVuSans-71" d="M 947 1747 
Q 947 1113 1208 752 
Q 1469 391 1925 391 
Q 2381 391 2643 752 
Q 2906 1113 2906 1747 
Q 2906 2381 2643 2742 
Q 2381 3103 1925 3103 
Q 1469 3103 1208 2742 
Q 947 2381 947 1747 
z
M 2906 525 
Q 2725 213 2448 61 
Q 2172 -91 1784 -91 
Q 1150 -91 751 415 
Q 353 922 353 1747 
Q 353 2572 751 3078 
Q 1150 3584 1784 3584 
Q 2172 3584 2448 3432 
Q 2725 3281 2906 2969 
L 2906 3500 
L 3481 3500 
L 3481 -1331 
L 2906 -1331 
L 2906 525 
z
" transform="scale(0.015625)"/>
       <path id="DejaVuSans-63" d="M 3122 3366 
L 3122 2828 
Q 2878 2963 2633 3030 
Q 2388 3097 2138 3097 
Q 1578 3097 1268 2742 
Q 959 2388 959 1747 
Q 959 1106 1268 751 
Q 1578 397 2138 397 
Q 2388 397 2633 464 
Q 2878 531 3122 666 
L 3122 134 
Q 2881 22 2623 -34 
Q 2366 -91 2075 -91 
Q 1284 -91 818 406 
Q 353 903 353 1747 
Q 353 2603 823 3093 
Q 1294 3584 2113 3584 
Q 2378 3584 2631 3529 
Q 2884 3475 3122 3366 
z
" transform="scale(0.015625)"/>
      </defs>
      <use xlink:href="#DejaVuSans-71"/>
      <use xlink:href="#DejaVuSans-63" x="63.476562"/>
     </g>
    </g>
    <g id="line2d_17">
     <path d="M 66.6 69.248562 
L 76.6 69.248562 
L 86.6 69.248562 
" style="fill: none; stroke: #ff7f0e; stroke-width: 1.5; stroke-linecap: square"/>
    </g>
    <g id="text_17">
     <!-- Trotter -->
     <g transform="translate(94.6 72.748562) scale(0.1 -0.1)">
      <defs>
       <path id="DejaVuSans-54" d="M -19 4666 
L 3928 4666 
L 3928 4134 
L 2272 4134 
L 2272 0 
L 1638 0 
L 1638 4134 
L -19 4134 
L -19 4666 
z
" transform="scale(0.015625)"/>
       <path id="DejaVuSans-72" d="M 2631 2963 
Q 2534 3019 2420 3045 
Q 2306 3072 2169 3072 
Q 1681 3072 1420 2755 
Q 1159 2438 1159 1844 
L 1159 0 
L 581 0 
L 581 3500 
L 1159 3500 
L 1159 2956 
Q 1341 3275 1631 3429 
Q 1922 3584 2338 3584 
Q 2397 3584 2469 3576 
Q 2541 3569 2628 3553 
L 2631 2963 
z
" transform="scale(0.015625)"/>
       <path id="DejaVuSans-6f" d="M 1959 3097 
Q 1497 3097 1228 2736 
Q 959 2375 959 1747 
Q 959 1119 1226 758 
Q 1494 397 1959 397 
Q 2419 397 2687 759 
Q 2956 1122 2956 1747 
Q 2956 2369 2687 2733 
Q 2419 3097 1959 3097 
z
M 1959 3584 
Q 2709 3584 3137 3096 
Q 3566 2609 3566 1747 
Q 3566 888 3137 398 
Q 2709 -91 1959 -91 
Q 1206 -91 779 398 
Q 353 888 353 1747 
Q 353 2609 779 3096 
Q 1206 3584 1959 3584 
z
" transform="scale(0.015625)"/>
       <path id="DejaVuSans-65" d="M 3597 1894 
L 3597 1613 
L 953 1613 
Q 991 1019 1311 708 
Q 1631 397 2203 397 
Q 2534 397 2845 478 
Q 3156 559 3463 722 
L 3463 178 
Q 3153 47 2828 -22 
Q 2503 -91 2169 -91 
Q 1331 -91 842 396 
Q 353 884 353 1716 
Q 353 2575 817 3079 
Q 1281 3584 2069 3584 
Q 2775 3584 3186 3129 
Q 3597 2675 3597 1894 
z
M 3022 2063 
Q 3016 2534 2758 2815 
Q 2500 3097 2075 3097 
Q 1594 3097 1305 2825 
Q 1016 2553 972 2059 
L 3022 2063 
z
" transform="scale(0.015625)"/>
      </defs>
      <use xlink:href="#DejaVuSans-54"/>
      <use xlink:href="#DejaVuSans-72" x="46.333984"/>
      <use xlink:href="#DejaVuSans-6f" x="85.197266"/>
      <use xlink:href="#DejaVuSans-74" x="146.378906"/>
      <use xlink:href="#DejaVuSans-74" x="185.587891"/>
      <use xlink:href="#DejaVuSans-65" x="224.796875"/>
      <use xlink:href="#DejaVuSans-72" x="286.320312"/>
     </g>
    </g>
   </g>
  </g>
 </g>
 <defs>
  <clipPath id="p1e9b2de16c">
   <rect x="57.6" y="41.472" width="357.12" height="266.112"/>
  </clipPath>
 </defs>
</svg>
