<?xml version="1.0" encoding="utf-8" standalone="no"?>
<!DOCTYPE svg PUBLIC "-//W3C//DTD SVG 1.1//EN"
  "http://www.w3.org/Graphics/SVG/1.1/DTD/svg11.dtd">
<svg xmlns:xlink="http://www.w3.org/1999/xlink" width="460.8pt" height="345.6pt" viewBox="0 0 460.8 345.6" xmlns="http://www.w3.org/2000/svg" version="1.1">
 <metadata>
  <rdf:RDF xmlns:dc="http://purl.org/dc/elements/1.1/" xmlns:cc="http://creativecommons.org/ns#" xmlns:rdf="http://www.w3.org/1999/02/22-rdf-syntax-ns#">
   <cc:Work>
    <dc:type rdf:resource="http://purl.org/dc/dcmitype/StillImage"/>
    <dc:date>2024-08-23T14:53:59.353757</dc:date>
    <dc:format>image/svg+xml</dc:format>
    <dc:creator>
     <cc:Agent>
      <dc:title>Matplotlib v3.7.1, https://matplotlib.org/</dc:title>
     </cc:Agent>
    </dc:creator>
   </cc:Work>
  </rdf:RDF>
 </metadata>
 <defs>
  <style type="text/css">*{stroke-linejoin: round; stroke-linecap: butt}</style>
 </defs>
 <g id="figure_1">
  <g id="patch_1">
   <path d="M 0 345.6 
L 460.8 345.6 
L 460.8 0 
L 0 0 
z
" style="fill: #ffffff"/>
  </g>
  <g id="axes_1">
   <g id="patch_2">
    <path d="M 57.6 307.584 
L 414.72 307.584 
L 414.72 41.472 
L 57.6 41.472 
z
" style="fill: #ffffff"/>
   </g>
   <g id="matplotlib.axis_1">
    <g id="xtick_1">
     <g id="line2d_1">
      <defs>
       <path id="mc00aa40b45" d="M 0 0 
L 0 3.5 
" style="stroke: #000000; stroke-width: 0.8"/>
      </defs>
      <g>
       <use xlink:href="#mc00aa40b45" x="73.832727" y="307.584" style="stroke: #000000; stroke-width: 0.8"/>
      </g>
     </g>
     <g id="text_1">
      <!-- 0 -->
      <g transform="translate(70.651477 322.182437) scale(0.1 -0.1)">
       <defs>
        <path id="DejaVuSans-30" d="M 2034 4250 
Q 1547 4250 1301 3770 
Q 1056 3291 1056 2328 
Q 1056 1369 1301 889 
Q 1547 409 2034 409 
Q 2525 409 2770 889 
Q 3016 1369 3016 2328 
Q 3016 3291 2770 3770 
Q 2525 4250 2034 4250 
z
M 2034 4750 
Q 2819 4750 3233 4129 
Q 3647 3509 3647 2328 
Q 3647 1150 3233 529 
Q 2819 -91 2034 -91 
Q 1250 -91 836 529 
Q 422 1150 422 2328 
Q 422 3509 836 4129 
Q 1250 4750 2034 4750 
z
" transform="scale(0.015625)"/>
       </defs>
       <use xlink:href="#DejaVuSans-30"/>
      </g>
     </g>
    </g>
    <g id="xtick_2">
     <g id="line2d_2">
      <g>
       <use xlink:href="#mc00aa40b45" x="137.303802" y="307.584" style="stroke: #000000; stroke-width: 0.8"/>
      </g>
     </g>
     <g id="text_2">
      <!-- 200 -->
      <g transform="translate(127.760052 322.182437) scale(0.1 -0.1)">
       <defs>
        <path id="DejaVuSans-32" d="M 1228 531 
L 3431 531 
L 3431 0 
L 469 0 
L 469 531 
Q 828 903 1448 1529 
Q 2069 2156 2228 2338 
Q 2531 2678 2651 2914 
Q 2772 3150 2772 3378 
Q 2772 3750 2511 3984 
Q 2250 4219 1831 4219 
Q 1534 4219 1204 4116 
Q 875 4013 500 3803 
L 500 4441 
Q 881 4594 1212 4672 
Q 1544 4750 1819 4750 
Q 2544 4750 2975 4387 
Q 3406 4025 3406 3419 
Q 3406 3131 3298 2873 
Q 3191 2616 2906 2266 
Q 2828 2175 2409 1742 
Q 1991 1309 1228 531 
z
" transform="scale(0.015625)"/>
       </defs>
       <use xlink:href="#DejaVuSans-32"/>
       <use xlink:href="#DejaVuSans-30" x="63.623047"/>
       <use xlink:href="#DejaVuSans-30" x="127.246094"/>
      </g>
     </g>
    </g>
    <g id="xtick_3">
     <g id="line2d_3">
      <g>
       <use xlink:href="#mc00aa40b45" x="200.774876" y="307.584" style="stroke: #000000; stroke-width: 0.8"/>
      </g>
     </g>
     <g id="text_3">
      <!-- 400 -->
      <g transform="translate(191.231126 322.182437) scale(0.1 -0.1)">
       <defs>
        <path id="DejaVuSans-34" d="M 2419 4116 
L 825 1625 
L 2419 1625 
L 2419 4116 
z
M 2253 4666 
L 3047 4666 
L 3047 1625 
L 3713 1625 
L 3713 1100 
L 3047 1100 
L 3047 0 
L 2419 0 
L 2419 1100 
L 313 1100 
L 313 1709 
L 2253 4666 
z
" transform="scale(0.015625)"/>
       </defs>
       <use xlink:href="#DejaVuSans-34"/>
       <use xlink:href="#DejaVuSans-30" x="63.623047"/>
       <use xlink:href="#DejaVuSans-30" x="127.246094"/>
      </g>
     </g>
    </g>
    <g id="xtick_4">
     <g id="line2d_4">
      <g>
       <use xlink:href="#mc00aa40b45" x="264.24595" y="307.584" style="stroke: #000000; stroke-width: 0.8"/>
      </g>
     </g>
     <g id="text_4">
      <!-- 600 -->
      <g transform="translate(254.7022 322.182437) scale(0.1 -0.1)">
       <defs>
        <path id="DejaVuSans-36" d="M 2113 2584 
Q 1688 2584 1439 2293 
Q 1191 2003 1191 1497 
Q 1191 994 1439 701 
Q 1688 409 2113 409 
Q 2538 409 2786 701 
Q 3034 994 3034 1497 
Q 3034 2003 2786 2293 
Q 2538 2584 2113 2584 
z
M 3366 4563 
L 3366 3988 
Q 3128 4100 2886 4159 
Q 2644 4219 2406 4219 
Q 1781 4219 1451 3797 
Q 1122 3375 1075 2522 
Q 1259 2794 1537 2939 
Q 1816 3084 2150 3084 
Q 2853 3084 3261 2657 
Q 3669 2231 3669 1497 
Q 3669 778 3244 343 
Q 2819 -91 2113 -91 
Q 1303 -91 875 529 
Q 447 1150 447 2328 
Q 447 3434 972 4092 
Q 1497 4750 2381 4750 
Q 2619 4750 2861 4703 
Q 3103 4656 3366 4563 
z
" transform="scale(0.015625)"/>
       </defs>
       <use xlink:href="#DejaVuSans-36"/>
       <use xlink:href="#DejaVuSans-30" x="63.623047"/>
       <use xlink:href="#DejaVuSans-30" x="127.246094"/>
      </g>
     </g>
    </g>
    <g id="xtick_5">
     <g id="line2d_5">
      <g>
       <use xlink:href="#mc00aa40b45" x="327.717025" y="307.584" style="stroke: #000000; stroke-width: 0.8"/>
      </g>
     </g>
     <g id="text_5">
      <!-- 800 -->
      <g transform="translate(318.173275 322.182437) scale(0.1 -0.1)">
       <defs>
        <path id="DejaVuSans-38" d="M 2034 2216 
Q 1584 2216 1326 1975 
Q 1069 1734 1069 1313 
Q 1069 891 1326 650 
Q 1584 409 2034 409 
Q 2484 409 2743 651 
Q 3003 894 3003 1313 
Q 3003 1734 2745 1975 
Q 2488 2216 2034 2216 
z
M 1403 2484 
Q 997 2584 770 2862 
Q 544 3141 544 3541 
Q 544 4100 942 4425 
Q 1341 4750 2034 4750 
Q 2731 4750 3128 4425 
Q 3525 4100 3525 3541 
Q 3525 3141 3298 2862 
Q 3072 2584 2669 2484 
Q 3125 2378 3379 2068 
Q 3634 1759 3634 1313 
Q 3634 634 3220 271 
Q 2806 -91 2034 -91 
Q 1263 -91 848 271 
Q 434 634 434 1313 
Q 434 1759 690 2068 
Q 947 2378 1403 2484 
z
M 1172 3481 
Q 1172 3119 1398 2916 
Q 1625 2713 2034 2713 
Q 2441 2713 2670 2916 
Q 2900 3119 2900 3481 
Q 2900 3844 2670 4047 
Q 2441 4250 2034 4250 
Q 1625 4250 1398 4047 
Q 1172 3844 1172 3481 
z
" transform="scale(0.015625)"/>
       </defs>
       <use xlink:href="#DejaVuSans-38"/>
       <use xlink:href="#DejaVuSans-30" x="63.623047"/>
       <use xlink:href="#DejaVuSans-30" x="127.246094"/>
      </g>
     </g>
    </g>
    <g id="xtick_6">
     <g id="line2d_6">
      <g>
       <use xlink:href="#mc00aa40b45" x="391.188099" y="307.584" style="stroke: #000000; stroke-width: 0.8"/>
      </g>
     </g>
     <g id="text_6">
      <!-- 1000 -->
      <g transform="translate(378.463099 322.182437) scale(0.1 -0.1)">
       <defs>
        <path id="DejaVuSans-31" d="M 794 531 
L 1825 531 
L 1825 4091 
L 703 3866 
L 703 4441 
L 1819 4666 
L 2450 4666 
L 2450 531 
L 3481 531 
L 3481 0 
L 794 0 
L 794 531 
z
" transform="scale(0.015625)"/>
       </defs>
       <use xlink:href="#DejaVuSans-31"/>
       <use xlink:href="#DejaVuSans-30" x="63.623047"/>
       <use xlink:href="#DejaVuSans-30" x="127.246094"/>
       <use xlink:href="#DejaVuSans-30" x="190.869141"/>
      </g>
     </g>
    </g>
    <g id="text_7">
     <!-- n -->
     <g transform="translate(232.99125 335.860562) scale(0.1 -0.1)">
      <defs>
       <path id="DejaVuSans-6e" d="M 3513 2113 
L 3513 0 
L 2938 0 
L 2938 2094 
Q 2938 2591 2744 2837 
Q 2550 3084 2163 3084 
Q 1697 3084 1428 2787 
Q 1159 2491 1159 1978 
L 1159 0 
L 581 0 
L 581 3500 
L 1159 3500 
L 1159 2956 
Q 1366 3272 1645 3428 
Q 1925 3584 2291 3584 
Q 2894 3584 3203 3211 
Q 3513 2838 3513 2113 
z
" transform="scale(0.015625)"/>
      </defs>
      <use xlink:href="#DejaVuSans-6e"/>
     </g>
    </g>
   </g>
   <g id="matplotlib.axis_2">
    <g id="ytick_1">
     <g id="line2d_7">
      <defs>
       <path id="mcc17eaaf16" d="M 0 0 
L -3.5 0 
" style="stroke: #000000; stroke-width: 0.8"/>
      </defs>
      <g>
       <use xlink:href="#mcc17eaaf16" x="57.6" y="264.097875" style="stroke: #000000; stroke-width: 0.8"/>
      </g>
     </g>
     <g id="text_8">
      <!-- −4 -->
      <g transform="translate(35.857813 267.897094) scale(0.1 -0.1)">
       <defs>
        <path id="DejaVuSans-2212" d="M 678 2272 
L 4684 2272 
L 4684 1741 
L 678 1741 
L 678 2272 
z
" transform="scale(0.015625)"/>
       </defs>
       <use xlink:href="#DejaVuSans-2212"/>
       <use xlink:href="#DejaVuSans-34" x="83.789062"/>
      </g>
     </g>
    </g>
    <g id="ytick_2">
     <g id="line2d_8">
      <g>
       <use xlink:href="#mcc17eaaf16" x="57.6" y="218.144916" style="stroke: #000000; stroke-width: 0.8"/>
      </g>
     </g>
     <g id="text_9">
      <!-- −2 -->
      <g transform="translate(35.857813 221.944135) scale(0.1 -0.1)">
       <use xlink:href="#DejaVuSans-2212"/>
       <use xlink:href="#DejaVuSans-32" x="83.789062"/>
      </g>
     </g>
    </g>
    <g id="ytick_3">
     <g id="line2d_9">
      <g>
       <use xlink:href="#mcc17eaaf16" x="57.6" y="172.191957" style="stroke: #000000; stroke-width: 0.8"/>
      </g>
     </g>
     <g id="text_10">
      <!-- 0 -->
      <g transform="translate(44.2375 175.991176) scale(0.1 -0.1)">
       <use xlink:href="#DejaVuSans-30"/>
      </g>
     </g>
    </g>
    <g id="ytick_4">
     <g id="line2d_10">
      <g>
       <use xlink:href="#mcc17eaaf16" x="57.6" y="126.238998" style="stroke: #000000; stroke-width: 0.8"/>
      </g>
     </g>
     <g id="text_11">
      <!-- 2 -->
      <g transform="translate(44.2375 130.038217) scale(0.1 -0.1)">
       <use xlink:href="#DejaVuSans-32"/>
      </g>
     </g>
    </g>
    <g id="ytick_5">
     <g id="line2d_11">
      <g>
       <use xlink:href="#mcc17eaaf16" x="57.6" y="80.286039" style="stroke: #000000; stroke-width: 0.8"/>
      </g>
     </g>
     <g id="text_12">
      <!-- 4 -->
      <g transform="translate(44.2375 84.085258) scale(0.1 -0.1)">
       <use xlink:href="#DejaVuSans-34"/>
      </g>
     </g>
    </g>
    <g id="text_13">
     <!-- E*t -->
     <g transform="translate(29.778125 182.147531) rotate(-90) scale(0.1 -0.1)">
      <defs>
       <path id="DejaVuSans-45" d="M 628 4666 
L 3578 4666 
L 3578 4134 
L 1259 4134 
L 1259 2753 
L 3481 2753 
L 3481 2222 
L 1259 2222 
L 1259 531 
L 3634 531 
L 3634 0 
L 628 0 
L 628 4666 
z
" transform="scale(0.015625)"/>
       <path id="DejaVuSans-2a" d="M 3009 3897 
L 1888 3291 
L 3009 2681 
L 2828 2375 
L 1778 3009 
L 1778 1831 
L 1422 1831 
L 1422 3009 
L 372 2375 
L 191 2681 
L 1313 3291 
L 191 3897 
L 372 4206 
L 1422 3572 
L 1422 4750 
L 1778 4750 
L 1778 3572 
L 2828 4206 
L 3009 3897 
z
" transform="scale(0.015625)"/>
       <path id="DejaVuSans-74" d="M 1172 4494 
L 1172 3500 
L 2356 3500 
L 2356 3053 
L 1172 3053 
L 1172 1153 
Q 1172 725 1289 603 
Q 1406 481 1766 481 
L 2356 481 
L 2356 0 
L 1766 0 
Q 1100 0 847 248 
Q 594 497 594 1153 
L 594 3053 
L 172 3053 
L 172 3500 
L 594 3500 
L 594 4494 
L 1172 4494 
z
" transform="scale(0.015625)"/>
      </defs>
      <use xlink:href="#DejaVuSans-45"/>
      <use xlink:href="#DejaVuSans-2a" x="63.183594"/>
      <use xlink:href="#DejaVuSans-74" x="113.183594"/>
     </g>
    </g>
   </g>
   <g id="line2d_12">
    <path d="M 73.832727 295.488 
L 74.150083 288.906891 
L 74.784793 287.990206 
L 75.419504 282.177795 
L 76.054215 281.403648 
L 76.37157 281.278152 
L 76.688926 281.028743 
L 77.006281 278.094798 
L 77.323636 278.049994 
L 77.958347 277.178924 
L 78.275702 275.603846 
L 78.593058 275.05214 
L 80.179835 273.782713 
L 80.49719 271.47234 
L 80.814545 270.923592 
L 81.131901 270.891974 
L 81.449256 270.591652 
L 81.766612 270.5523 
L 82.083967 270.26239 
L 82.401322 270.217202 
L 82.718678 268.401019 
L 84.305455 267.29932 
L 84.62281 266.844032 
L 84.940165 264.348895 
L 85.257521 264.269749 
L 85.892231 263.806627 
L 86.209587 263.591841 
L 86.526942 263.55457 
L 87.161653 262.767193 
L 87.796364 261.079377 
L 88.113719 261.063411 
L 88.74843 260.273713 
L 89.065785 257.894367 
L 89.38314 257.236975 
L 89.700496 256.932364 
L 90.017851 256.853638 
L 90.652562 256.294126 
L 90.969917 255.830429 
L 91.287273 254.536287 
L 91.921983 253.759235 
L 92.239339 252.981897 
L 92.556694 250.693974 
L 93.50876 249.796514 
L 93.826116 249.268945 
L 94.143471 247.423819 
L 94.460826 247.199331 
L 94.778182 246.337345 
L 95.412893 245.490822 
L 95.730248 244.710225 
L 96.047603 243.35692 
L 96.364959 242.56572 
L 96.682314 242.114416 
L 96.999669 241.966401 
L 97.63438 241.066395 
L 97.951736 240.778568 
L 98.269091 240.082857 
L 98.586446 239.762754 
L 98.903802 239.631806 
L 99.538512 239.211176 
L 100.807934 238.259263 
L 101.125289 237.590096 
L 101.442645 237.215405 
L 101.76 236.612456 
L 102.394711 236.431982 
L 102.712066 235.619765 
L 103.029421 235.458858 
L 103.664132 234.726907 
L 103.981488 234.617756 
L 104.616198 234.114519 
L 105.250909 233.866084 
L 105.568264 233.762379 
L 106.202975 233.39973 
L 106.837686 233.22222 
L 107.155041 232.650052 
L 107.789752 232.523917 
L 108.424463 232.265515 
L 110.01124 231.754354 
L 110.64595 231.156645 
L 110.963306 231.151675 
L 111.598017 230.45403 
L 111.915372 230.284096 
L 112.232727 230.25264 
L 112.867438 229.986321 
L 113.184793 229.966351 
L 113.502149 229.807911 
L 113.819504 229.307768 
L 114.454215 229.247474 
L 115.088926 228.69161 
L 115.406281 228.552222 
L 116.040992 228.534228 
L 116.358347 228.235088 
L 116.993058 228.128976 
L 117.310413 228.003454 
L 117.627769 227.75041 
L 117.945124 227.719903 
L 118.262479 227.474281 
L 118.579835 227.401633 
L 119.214545 226.784091 
L 120.166612 226.650476 
L 120.483967 226.373863 
L 121.436033 226.053376 
L 121.753388 225.900912 
L 122.070744 225.881493 
L 122.388099 225.280472 
L 123.657521 225.123745 
L 123.974876 224.764436 
L 124.292231 224.762222 
L 124.926942 224.441922 
L 125.244298 224.429604 
L 125.561653 224.257891 
L 125.879008 224.249532 
L 126.196364 223.90964 
L 126.831074 223.82531 
L 127.78314 223.34679 
L 128.100496 223.343648 
L 128.417851 223.009183 
L 129.052562 222.925513 
L 129.687273 222.645285 
L 130.639339 222.543375 
L 133.178182 221.837795 
L 133.812893 221.470876 
L 134.130248 221.420253 
L 134.764959 221.135588 
L 135.399669 221.063799 
L 135.717025 220.779234 
L 136.03438 220.734287 
L 136.669091 220.291606 
L 137.621157 220.136017 
L 138.255868 219.907465 
L 138.573223 219.560169 
L 139.525289 219.347492 
L 139.842645 219.321803 
L 140.477355 218.636751 
L 141.112066 218.518502 
L 141.746777 217.737661 
L 144.602975 216.79446 
L 144.920331 216.333664 
L 146.189752 216.239805 
L 146.824463 216.067381 
L 147.776529 215.758365 
L 149.363306 215.299763 
L 150.315372 215.13537 
L 150.950083 214.97668 
L 151.584793 214.866846 
L 152.219504 214.533651 
L 152.854215 214.427002 
L 153.17157 214.155612 
L 153.806281 214.127563 
L 154.440992 213.689248 
L 154.758347 213.569393 
L 155.075702 213.174295 
L 155.710413 212.888481 
L 156.345124 212.775265 
L 156.662479 212.235046 
L 157.29719 211.937005 
L 157.614545 211.291894 
L 158.883967 210.652587 
L 159.518678 209.896319 
L 160.470744 209.779135 
L 160.788099 209.72487 
L 161.105455 209.234052 
L 164.279008 208.22508 
L 164.596364 208.074407 
L 165.231074 208.027091 
L 165.54843 207.805133 
L 166.817851 207.560049 
L 168.087273 206.346651 
L 168.404628 206.250169 
L 169.039339 205.490003 
L 169.356694 204.910629 
L 169.67405 204.689314 
L 169.991405 204.651042 
L 170.30876 203.862408 
L 170.626116 203.622631 
L 170.943471 202.694258 
L 171.260826 202.65437 
L 171.895537 202.407958 
L 172.530248 202.378548 
L 172.847603 201.929385 
L 173.482314 201.647828 
L 174.117025 200.938653 
L 175.386446 200.530508 
L 175.703802 200.150702 
L 176.021157 200.126756 
L 176.338512 199.752025 
L 176.655868 199.177532 
L 176.973223 198.268549 
L 177.290579 198.265705 
L 177.607934 198.080631 
L 177.925289 197.61089 
L 178.242645 197.46383 
L 179.512066 195.356074 
L 179.829421 195.335663 
L 180.146777 195.008064 
L 180.464132 194.479382 
L 180.781488 194.238499 
L 181.416198 194.20876 
L 181.733554 194.037292 
L 182.050909 193.738368 
L 182.368264 193.637134 
L 184.907107 191.920481 
L 185.224463 191.891922 
L 185.541818 191.681849 
L 187.128595 191.441478 
L 188.080661 190.774683 
L 188.398017 190.581568 
L 188.715372 190.256754 
L 189.350083 189.989194 
L 189.984793 189.257297 
L 190.619504 189.071402 
L 190.93686 188.686384 
L 191.57157 188.362815 
L 191.888926 188.041555 
L 192.206281 187.998845 
L 192.523636 187.549818 
L 192.840992 187.403299 
L 193.158347 187.102095 
L 193.793058 187.016369 
L 194.110413 186.770594 
L 195.379835 186.526255 
L 196.014545 186.05533 
L 196.331901 185.988693 
L 196.649256 185.787609 
L 196.966612 185.728224 
L 197.601322 185.422508 
L 200.140165 184.633801 
L 200.457521 184.471822 
L 203.313719 184.138039 
L 203.94843 183.868223 
L 204.265785 183.855208 
L 204.58314 183.665159 
L 207.121983 183.148953 
L 207.439339 182.891392 
L 208.391405 182.775993 
L 209.026116 182.496862 
L 210.295537 182.030569 
L 210.612893 182.013781 
L 211.247603 181.690158 
L 211.564959 181.683421 
L 211.882314 181.191504 
L 212.83438 181.01141 
L 213.151736 180.815723 
L 214.738512 180.514947 
L 215.055868 180.3065 
L 216.007934 180.128168 
L 216.642645 179.571097 
L 217.594711 179.456031 
L 218.229421 179.164264 
L 218.864132 179.037032 
L 219.181488 178.776825 
L 219.816198 178.637198 
L 220.133554 178.363227 
L 221.720331 178.145273 
L 222.989752 177.65027 
L 225.21124 177.150831 
L 226.798017 177.008441 
L 227.432727 176.766644 
L 229.97157 176.216033 
L 231.558347 176.052601 
L 232.510413 175.732172 
L 233.462479 175.609454 
L 234.414545 175.423837 
L 234.731901 175.39171 
L 235.366612 175.031733 
L 236.001322 174.940046 
L 236.636033 174.716106 
L 237.588099 174.577727 
L 237.905455 174.546483 
L 238.22281 174.394704 
L 239.174876 174.231353 
L 239.809587 174.068432 
L 241.713719 173.557975 
L 242.031074 173.543183 
L 242.665785 173.178062 
L 243.300496 173.130728 
L 243.617851 172.883746 
L 243.935207 172.808963 
L 244.252562 172.452641 
L 245.204628 172.219057 
L 245.839339 172.154049 
L 247.10876 171.866271 
L 247.426116 171.845693 
L 247.743471 171.397977 
L 250.599669 170.656322 
L 250.917025 170.373842 
L 251.869091 170.192425 
L 252.186446 170.031564 
L 253.773223 169.838794 
L 257.264132 169.175178 
L 257.581488 168.887094 
L 257.898843 168.854849 
L 258.216198 168.638845 
L 261.389752 168.151206 
L 262.341818 167.824663 
L 262.659174 167.574453 
L 263.293884 167.472071 
L 269.640992 165.971693 
L 270.275702 165.508632 
L 270.593058 165.060414 
L 271.227769 164.958278 
L 271.545124 164.944674 
L 271.862479 164.616201 
L 272.179835 164.56691 
L 272.49719 164.1965 
L 274.718678 163.631967 
L 275.036033 163.61367 
L 275.353388 163.287641 
L 278.526942 162.167615 
L 278.844298 162.00491 
L 279.479008 161.905402 
L 280.113719 161.5297 
L 280.431074 161.323216 
L 281.065785 161.223811 
L 281.700496 161.012473 
L 282.652562 160.655566 
L 282.969917 160.298647 
L 283.604628 160.092723 
L 284.556694 160.03599 
L 285.50876 159.797523 
L 285.826116 159.782357 
L 286.143471 159.604016 
L 286.460826 159.147155 
L 287.730248 158.961528 
L 288.364959 158.567274 
L 289.317025 157.312809 
L 289.63438 157.003652 
L 290.269091 156.808045 
L 290.586446 156.623131 
L 290.903802 156.616641 
L 292.173223 155.135728 
L 292.490579 155.093447 
L 293.442645 154.496025 
L 294.077355 154.252241 
L 294.712066 153.254444 
L 295.981488 152.789862 
L 297.250909 152.603381 
L 297.568264 151.977525 
L 297.88562 151.656874 
L 298.520331 151.621831 
L 298.837686 151.263019 
L 299.155041 150.282844 
L 299.472397 150.180068 
L 300.107107 149.705568 
L 300.424463 149.58232 
L 300.741818 147.642226 
L 301.059174 147.411892 
L 301.376529 146.860852 
L 301.693884 146.713646 
L 302.01124 146.443736 
L 303.280661 146.131609 
L 303.915372 145.740577 
L 304.867438 145.116263 
L 305.184793 144.692802 
L 305.502149 144.610528 
L 306.13686 144.060339 
L 307.088926 143.807291 
L 307.406281 143.587153 
L 307.723636 143.186348 
L 308.040992 143.081006 
L 308.358347 142.842242 
L 308.675702 142.390994 
L 308.993058 142.216066 
L 309.310413 142.199578 
L 309.627769 141.860035 
L 309.945124 141.765241 
L 310.262479 141.509771 
L 311.531901 139.496776 
L 311.849256 139.479247 
L 312.801322 138.980904 
L 313.118678 138.963766 
L 313.436033 138.802811 
L 313.753388 138.779831 
L 314.070744 138.518075 
L 314.705455 138.340204 
L 315.657521 137.924804 
L 316.292231 137.754658 
L 316.926942 137.036333 
L 317.561653 136.678903 
L 318.196364 136.672752 
L 318.831074 136.246563 
L 319.14843 136.190152 
L 319.465785 135.872406 
L 320.735207 135.717422 
L 321.052562 135.481704 
L 321.687273 135.318819 
L 322.004628 135.09815 
L 323.591405 134.807458 
L 323.90876 134.492909 
L 324.543471 134.246134 
L 324.860826 133.940698 
L 326.130248 133.431835 
L 326.447603 133.123887 
L 326.764959 133.098692 
L 327.082314 132.645046 
L 327.399669 132.596198 
L 328.351736 131.685144 
L 329.621157 131.151341 
L 330.255868 130.996575 
L 330.573223 130.666427 
L 335.333554 129.398476 
L 335.650909 129.087603 
L 336.28562 128.917123 
L 336.602975 128.86663 
L 336.920331 128.499776 
L 338.189752 128.339284 
L 339.141818 128.091081 
L 340.728595 127.834556 
L 341.04595 127.549682 
L 341.998017 127.320261 
L 342.315372 127.23937 
L 342.632727 126.569889 
L 343.584793 126.188786 
L 343.902149 126.142219 
L 344.53686 125.320782 
L 345.806281 124.863414 
L 346.440992 124.59091 
L 346.758347 124.303553 
L 348.662479 123.743128 
L 349.29719 123.125242 
L 349.614545 123.064249 
L 349.931901 122.813166 
L 350.883967 122.732519 
L 351.836033 122.647515 
L 353.105455 122.093947 
L 353.42281 122.057796 
L 353.740165 121.722681 
L 354.692231 121.49943 
L 355.009587 121.224429 
L 355.961653 121.055803 
L 356.279008 120.845586 
L 357.54843 120.619748 
L 357.865785 120.218866 
L 358.500496 119.940701 
L 358.817851 119.870709 
L 359.135207 119.130547 
L 359.452562 118.832911 
L 360.404628 118.574967 
L 360.721983 117.810953 
L 362.626116 117.353966 
L 362.943471 116.981212 
L 363.895537 116.697485 
L 364.530248 116.181988 
L 365.164959 115.839204 
L 366.117025 115.674552 
L 366.43438 115.440892 
L 366.751736 115.42395 
L 367.069091 115.274876 
L 367.703802 114.225313 
L 368.021157 113.92854 
L 368.655868 113.675187 
L 368.973223 113.418783 
L 369.607934 113.279071 
L 369.925289 112.945337 
L 370.56 112.658811 
L 370.877355 111.997729 
L 371.829421 111.339604 
L 372.146777 111.205476 
L 372.464132 110.55966 
L 373.416198 109.983234 
L 373.733554 109.542525 
L 374.050909 108.837442 
L 374.368264 108.543326 
L 375.002975 108.443308 
L 375.320331 108.293652 
L 375.637686 107.947247 
L 375.955041 107.391518 
L 376.272397 105.938562 
L 376.589752 105.909191 
L 377.224463 105.277254 
L 377.541818 105.181586 
L 377.859174 104.626616 
L 378.176529 103.190931 
L 378.493884 103.122157 
L 378.81124 102.905833 
L 379.44595 100.548054 
L 380.080661 99.338114 
L 380.398017 97.812857 
L 380.715372 97.622571 
L 381.667438 95.524276 
L 381.984793 94.307565 
L 382.302149 93.5368 
L 382.619504 91.956507 
L 382.93686 91.927036 
L 383.254215 91.286767 
L 383.57157 91.139365 
L 384.206281 89.614194 
L 384.523636 89.436283 
L 384.840992 89.111541 
L 385.158347 88.348015 
L 385.793058 86.157308 
L 386.110413 85.938358 
L 386.427769 85.514956 
L 387.062479 83.907201 
L 387.69719 83.656634 
L 388.649256 82.054677 
L 388.966612 80.975383 
L 389.283967 80.875653 
L 389.601322 80.161757 
L 389.918678 79.845233 
L 390.236033 78.558812 
L 390.553388 78.446498 
L 390.870744 78.142384 
L 391.188099 77.215669 
L 392.140165 75.766434 
L 392.774876 75.219695 
L 393.092231 73.508458 
L 393.409587 73.253707 
L 393.726942 72.789181 
L 394.044298 71.610894 
L 394.679008 71.073876 
L 394.996364 69.834061 
L 395.313719 69.348782 
L 395.631074 68.160744 
L 395.94843 66.325615 
L 396.265785 66.224996 
L 396.58314 65.886581 
L 396.900496 64.238257 
L 397.217851 63.958505 
L 397.852562 58.958481 
L 398.169917 58.852369 
L 398.487273 53.568 
L 398.487273 53.568 
" clip-path="url(#p95a123b05e)" style="fill: none; stroke: #1f77b4; stroke-width: 1.5; stroke-linecap: square"/>
   </g>
   <g id="line2d_13">
    <path d="M 73.832727 289.65703 
L 74.150083 275.95012 
L 74.467438 275.95012 
L 74.784793 264.233504 
L 75.102149 261.799797 
L 75.73686 261.799797 
L 76.054215 257.415911 
L 76.37157 250.015305 
L 76.688926 249.561256 
L 77.006281 249.561256 
L 77.323636 248.416141 
L 78.910413 248.416141 
L 79.227769 244.241024 
L 79.545124 244.241024 
L 79.862479 242.729646 
L 80.179835 241.795894 
L 80.49719 241.795894 
L 80.814545 237.179119 
L 81.131901 235.005966 
L 82.083967 234.968601 
L 82.401322 233.682432 
L 86.844298 233.609408 
L 87.161653 232.905169 
L 87.479008 229.559727 
L 87.796364 228.820173 
L 88.113719 227.662018 
L 89.700496 227.662018 
L 90.017851 226.182238 
L 90.652562 226.182238 
L 90.969917 224.463253 
L 91.287273 224.463253 
L 91.604628 223.567797 
L 91.921983 221.264545 
L 99.221157 221.264545 
L 99.538512 219.892116 
L 99.855868 219.892116 
L 100.173223 219.567477 
L 101.76 219.567477 
L 102.077355 218.144916 
L 103.664132 218.144916 
L 103.981488 217.824039 
L 104.298843 217.269362 
L 104.933554 217.269362 
L 105.250909 215.318512 
L 106.202975 215.220194 
L 106.520331 210.817445 
L 107.155041 210.382422 
L 107.472397 210.382422 
L 107.789752 209.368596 
L 109.376529 209.368596 
L 109.693884 207.143582 
L 110.01124 207.143582 
L 110.328595 204.68564 
L 129.369917 204.685538 
L 129.687273 203.288774 
L 130.321983 201.975103 
L 131.27405 201.891349 
L 131.591405 200.748731 
L 131.90876 200.748731 
L 132.226116 200.487682 
L 132.860826 200.487682 
L 133.178182 198.288065 
L 133.495537 198.288065 
L 133.812893 197.827467 
L 135.399669 197.827467 
L 135.717025 195.951677 
L 136.03438 195.698737 
L 136.351736 195.275218 
L 136.986446 195.168436 
L 163.009587 195.168436 
L 163.326942 193.221606 
L 167.135207 193.221606 
L 167.452562 192.865814 
L 167.769917 192.865814 
L 168.087273 190.456359 
L 168.404628 190.456359 
L 168.721983 189.813231 
L 169.356694 189.813231 
L 169.67405 189.39821 
L 169.991405 188.404161 
L 171.578182 188.404161 
L 172.212893 187.703287 
L 172.530248 187.703287 
L 172.847603 187.405943 
L 180.146777 187.405943 
L 180.464132 186.894138 
L 180.781488 186.894138 
L 181.098843 186.392117 
L 182.68562 186.392117 
L 183.320331 181.709059 
L 185.541818 181.667401 
L 185.859174 181.395315 
L 186.493884 181.395315 
L 186.81124 180.984336 
L 187.128595 179.954451 
L 187.44595 179.954451 
L 187.763306 179.25692 
L 188.080661 179.25692 
L 188.398017 176.344913 
L 188.715372 172.191957 
L 283.604628 172.191957 
L 284.239339 165.126994 
L 284.556694 165.126994 
L 284.87405 164.429463 
L 285.191405 164.429463 
L 285.50876 163.399578 
L 285.826116 162.988599 
L 286.460826 162.988599 
L 286.778182 162.716513 
L 288.999669 162.674855 
L 289.63438 157.991797 
L 291.221157 157.991797 
L 291.538512 157.489776 
L 291.855868 157.489776 
L 292.173223 156.977971 
L 299.472397 156.977971 
L 299.789752 156.680627 
L 300.107107 156.680627 
L 300.741818 155.979752 
L 302.328595 155.979752 
L 302.64595 154.985704 
L 302.963306 154.570683 
L 303.598017 154.570683 
L 303.915372 153.927555 
L 304.232727 153.927555 
L 304.550083 151.5181 
L 304.867438 151.5181 
L 305.184793 151.162307 
L 308.993058 151.162307 
L 309.310413 149.215477 
L 335.968264 149.108696 
L 336.602975 148.432237 
L 336.920331 146.556446 
L 338.507107 146.556446 
L 338.824463 146.095849 
L 339.141818 146.095849 
L 339.459174 143.896232 
L 340.093884 143.896232 
L 340.41124 143.635182 
L 340.728595 143.635182 
L 341.04595 142.492565 
L 341.680661 142.40881 
L 341.998017 142.40881 
L 342.315372 141.900358 
L 342.632727 141.09514 
L 342.950083 139.698376 
L 361.991405 139.698274 
L 362.30876 137.240332 
L 362.626116 137.240332 
L 362.943471 135.015318 
L 364.530248 135.015318 
L 364.847603 134.001492 
L 365.164959 134.001492 
L 365.799669 133.566469 
L 366.117025 129.16372 
L 367.069091 129.065402 
L 367.386446 127.114551 
L 368.021157 127.114551 
L 368.338512 126.559875 
L 368.655868 126.238998 
L 370.242645 126.238998 
L 370.56 124.816437 
L 372.146777 124.816437 
L 372.464132 124.491798 
L 372.781488 124.491798 
L 373.098843 123.119369 
L 380.398017 123.119369 
L 380.715372 120.816117 
L 381.032727 119.920661 
L 381.350083 119.920661 
L 381.667438 118.201676 
L 382.302149 118.201676 
L 382.619504 116.721896 
L 384.206281 116.721896 
L 384.840992 114.824186 
L 385.158347 111.478745 
L 385.475702 110.774506 
L 389.918678 110.701482 
L 390.236033 109.415313 
L 391.188099 109.377947 
L 391.505455 107.204795 
L 391.82281 102.58802 
L 392.140165 102.58802 
L 392.457521 101.654268 
L 392.774876 100.14289 
L 393.092231 100.14289 
L 393.409587 95.967773 
L 394.996364 95.967773 
L 395.313719 94.822657 
L 395.631074 94.822657 
L 395.94843 94.368609 
L 396.265785 86.968003 
L 396.58314 82.584117 
L 397.217851 82.584117 
L 397.535207 80.15041 
L 397.852562 68.433794 
L 398.169917 68.433794 
L 398.487273 54.726884 
L 398.487273 54.726884 
" clip-path="url(#p95a123b05e)" style="fill: none; stroke: #ff7f0e; stroke-width: 1.5; stroke-linecap: square"/>
   </g>
   <g id="patch_3">
    <path d="M 57.6 307.584 
L 57.6 41.472 
" style="fill: none; stroke: #000000; stroke-width: 0.8; stroke-linejoin: miter; stroke-linecap: square"/>
   </g>
   <g id="patch_4">
    <path d="M 414.72 307.584 
L 414.72 41.472 
" style="fill: none; stroke: #000000; stroke-width: 0.8; stroke-linejoin: miter; stroke-linecap: square"/>
   </g>
   <g id="patch_5">
    <path d="M 57.6 307.584 
L 414.72 307.584 
" style="fill: none; stroke: #000000; stroke-width: 0.8; stroke-linejoin: miter; stroke-linecap: square"/>
   </g>
   <g id="patch_6">
    <path d="M 57.6 41.472 
L 414.72 41.472 
" style="fill: none; stroke: #000000; stroke-width: 0.8; stroke-linejoin: miter; stroke-linecap: square"/>
   </g>
   <g id="legend_1">
    <g id="patch_7">
     <path d="M 64.6 78.82825 
L 129.342187 78.82825 
Q 131.342187 78.82825 131.342187 76.82825 
L 131.342187 48.472 
Q 131.342187 46.472 129.342187 46.472 
L 64.6 46.472 
Q 62.6 46.472 62.6 48.472 
L 62.6 76.82825 
Q 62.6 78.82825 64.6 78.82825 
z
" style="fill: #ffffff; opacity: 0.8; stroke: #cccccc; stroke-linejoin: miter"/>
    </g>
    <g id="line2d_14">
     <path d="M 66.6 54.570437 
L 76.6 54.570437 
L 86.6 54.570437 
" style="fill: none; stroke: #1f77b4; stroke-width: 1.5; stroke-linecap: square"/>
    </g>
    <g id="text_14">
     <!-- qc -->
     <g transform="translate(94.6 58.070437) scale(0.1 -0.1)">
      <defs>
       <path id="DejaVuSans-71" d="M 947 1747 
Q 947 1113 1208 752 
Q 1469 391 1925 391 
Q 2381 391 2643 752 
Q 2906 1113 2906 1747 
Q 2906 2381 2643 2742 
Q 2381 3103 1925 3103 
Q 1469 3103 1208 2742 
Q 947 2381 947 1747 
z
M 2906 525 
Q 2725 213 2448 61 
Q 2172 -91 1784 -91 
Q 1150 -91 751 415 
Q 353 922 353 1747 
Q 353 2572 751 3078 
Q 1150 3584 1784 3584 
Q 2172 3584 2448 3432 
Q 2725 3281 2906 2969 
L 2906 3500 
L 3481 3500 
L 3481 -1331 
L 2906 -1331 
L 2906 525 
z
" transform="scale(0.015625)"/>
       <path id="DejaVuSans-63" d="M 3122 3366 
L 3122 2828 
Q 2878 2963 2633 3030 
Q 2388 3097 2138 3097 
Q 1578 3097 1268 2742 
Q 959 2388 959 1747 
Q 959 1106 1268 751 
Q 1578 397 2138 397 
Q 2388 397 2633 464 
Q 2878 531 3122 666 
L 3122 134 
Q 2881 22 2623 -34 
Q 2366 -91 2075 -91 
Q 1284 -91 818 406 
Q 353 903 353 1747 
Q 353 2603 823 3093 
Q 1294 3584 2113 3584 
Q 2378 3584 2631 3529 
Q 2884 3475 3122 3366 
z
" transform="scale(0.015625)"/>
      </defs>
      <use xlink:href="#DejaVuSans-71"/>
      <use xlink:href="#DejaVuSans-63" x="63.476562"/>
     </g>
    </g>
    <g id="line2d_15">
     <path d="M 66.6 69.248562 
L 76.6 69.248562 
L 86.6 69.248562 
" style="fill: none; stroke: #ff7f0e; stroke-width: 1.5; stroke-linecap: square"/>
    </g>
    <g id="text_15">
     <!-- Trotter -->
     <g transform="translate(94.6 72.748562) scale(0.1 -0.1)">
      <defs>
       <path id="DejaVuSans-54" d="M -19 4666 
L 3928 4666 
L 3928 4134 
L 2272 4134 
L 2272 0 
L 1638 0 
L 1638 4134 
L -19 4134 
L -19 4666 
z
" transform="scale(0.015625)"/>
       <path id="DejaVuSans-72" d="M 2631 2963 
Q 2534 3019 2420 3045 
Q 2306 3072 2169 3072 
Q 1681 3072 1420 2755 
Q 1159 2438 1159 1844 
L 1159 0 
L 581 0 
L 581 3500 
L 1159 3500 
L 1159 2956 
Q 1341 3275 1631 3429 
Q 1922 3584 2338 3584 
Q 2397 3584 2469 3576 
Q 2541 3569 2628 3553 
L 2631 2963 
z
" transform="scale(0.015625)"/>
       <path id="DejaVuSans-6f" d="M 1959 3097 
Q 1497 3097 1228 2736 
Q 959 2375 959 1747 
Q 959 1119 1226 758 
Q 1494 397 1959 397 
Q 2419 397 2687 759 
Q 2956 1122 2956 1747 
Q 2956 2369 2687 2733 
Q 2419 3097 1959 3097 
z
M 1959 3584 
Q 2709 3584 3137 3096 
Q 3566 2609 3566 1747 
Q 3566 888 3137 398 
Q 2709 -91 1959 -91 
Q 1206 -91 779 398 
Q 353 888 353 1747 
Q 353 2609 779 3096 
Q 1206 3584 1959 3584 
z
" transform="scale(0.015625)"/>
       <path id="DejaVuSans-65" d="M 3597 1894 
L 3597 1613 
L 953 1613 
Q 991 1019 1311 708 
Q 1631 397 2203 397 
Q 2534 397 2845 478 
Q 3156 559 3463 722 
L 3463 178 
Q 3153 47 2828 -22 
Q 2503 -91 2169 -91 
Q 1331 -91 842 396 
Q 353 884 353 1716 
Q 353 2575 817 3079 
Q 1281 3584 2069 3584 
Q 2775 3584 3186 3129 
Q 3597 2675 3597 1894 
z
M 3022 2063 
Q 3016 2534 2758 2815 
Q 2500 3097 2075 3097 
Q 1594 3097 1305 2825 
Q 1016 2553 972 2059 
L 3022 2063 
z
" transform="scale(0.015625)"/>
      </defs>
      <use xlink:href="#DejaVuSans-54"/>
      <use xlink:href="#DejaVuSans-72" x="46.333984"/>
      <use xlink:href="#DejaVuSans-6f" x="85.197266"/>
      <use xlink:href="#DejaVuSans-74" x="146.378906"/>
      <use xlink:href="#DejaVuSans-74" x="185.587891"/>
      <use xlink:href="#DejaVuSans-65" x="224.796875"/>
      <use xlink:href="#DejaVuSans-72" x="286.320312"/>
     </g>
    </g>
   </g>
  </g>
 </g>
 <defs>
  <clipPath id="p95a123b05e">
   <rect x="57.6" y="41.472" width="357.12" height="266.112"/>
  </clipPath>
 </defs>
</svg>
