<?xml version="1.0" encoding="utf-8" standalone="no"?>
<!DOCTYPE svg PUBLIC "-//W3C//DTD SVG 1.1//EN"
  "http://www.w3.org/Graphics/SVG/1.1/DTD/svg11.dtd">
<svg xmlns:xlink="http://www.w3.org/1999/xlink" width="460.8pt" height="345.6pt" viewBox="0 0 460.8 345.6" xmlns="http://www.w3.org/2000/svg" version="1.1">
 <metadata>
  <rdf:RDF xmlns:dc="http://purl.org/dc/elements/1.1/" xmlns:cc="http://creativecommons.org/ns#" xmlns:rdf="http://www.w3.org/1999/02/22-rdf-syntax-ns#">
   <cc:Work>
    <dc:type rdf:resource="http://purl.org/dc/dcmitype/StillImage"/>
    <dc:date>2024-07-12T13:11:26.539083</dc:date>
    <dc:format>image/svg+xml</dc:format>
    <dc:creator>
     <cc:Agent>
      <dc:title>Matplotlib v3.7.1, https://matplotlib.org/</dc:title>
     </cc:Agent>
    </dc:creator>
   </cc:Work>
  </rdf:RDF>
 </metadata>
 <defs>
  <style type="text/css">*{stroke-linejoin: round; stroke-linecap: butt}</style>
 </defs>
 <g id="figure_1">
  <g id="patch_1">
   <path d="M 0 345.6 
L 460.8 345.6 
L 460.8 0 
L 0 0 
z
" style="fill: #ffffff"/>
  </g>
  <g id="axes_1">
   <g id="patch_2">
    <path d="M 57.6 307.584 
L 414.72 307.584 
L 414.72 41.472 
L 57.6 41.472 
z
" style="fill: #ffffff"/>
   </g>
   <g id="matplotlib.axis_1">
    <g id="xtick_1">
     <g id="line2d_1">
      <defs>
       <path id="m44fbbe704e" d="M 0 0 
L 0 3.5 
" style="stroke: #000000; stroke-width: 0.8"/>
      </defs>
      <g>
       <use xlink:href="#m44fbbe704e" x="73.832727" y="307.584" style="stroke: #000000; stroke-width: 0.8"/>
      </g>
     </g>
     <g id="text_1">
      <!-- 0 -->
      <g transform="translate(70.651477 322.182437) scale(0.1 -0.1)">
       <defs>
        <path id="DejaVuSans-30" d="M 2034 4250 
Q 1547 4250 1301 3770 
Q 1056 3291 1056 2328 
Q 1056 1369 1301 889 
Q 1547 409 2034 409 
Q 2525 409 2770 889 
Q 3016 1369 3016 2328 
Q 3016 3291 2770 3770 
Q 2525 4250 2034 4250 
z
M 2034 4750 
Q 2819 4750 3233 4129 
Q 3647 3509 3647 2328 
Q 3647 1150 3233 529 
Q 2819 -91 2034 -91 
Q 1250 -91 836 529 
Q 422 1150 422 2328 
Q 422 3509 836 4129 
Q 1250 4750 2034 4750 
z
" transform="scale(0.015625)"/>
       </defs>
       <use xlink:href="#DejaVuSans-30"/>
      </g>
     </g>
    </g>
    <g id="xtick_2">
     <g id="line2d_2">
      <g>
       <use xlink:href="#m44fbbe704e" x="137.303802" y="307.584" style="stroke: #000000; stroke-width: 0.8"/>
      </g>
     </g>
     <g id="text_2">
      <!-- 200 -->
      <g transform="translate(127.760052 322.182437) scale(0.1 -0.1)">
       <defs>
        <path id="DejaVuSans-32" d="M 1228 531 
L 3431 531 
L 3431 0 
L 469 0 
L 469 531 
Q 828 903 1448 1529 
Q 2069 2156 2228 2338 
Q 2531 2678 2651 2914 
Q 2772 3150 2772 3378 
Q 2772 3750 2511 3984 
Q 2250 4219 1831 4219 
Q 1534 4219 1204 4116 
Q 875 4013 500 3803 
L 500 4441 
Q 881 4594 1212 4672 
Q 1544 4750 1819 4750 
Q 2544 4750 2975 4387 
Q 3406 4025 3406 3419 
Q 3406 3131 3298 2873 
Q 3191 2616 2906 2266 
Q 2828 2175 2409 1742 
Q 1991 1309 1228 531 
z
" transform="scale(0.015625)"/>
       </defs>
       <use xlink:href="#DejaVuSans-32"/>
       <use xlink:href="#DejaVuSans-30" x="63.623047"/>
       <use xlink:href="#DejaVuSans-30" x="127.246094"/>
      </g>
     </g>
    </g>
    <g id="xtick_3">
     <g id="line2d_3">
      <g>
       <use xlink:href="#m44fbbe704e" x="200.774876" y="307.584" style="stroke: #000000; stroke-width: 0.8"/>
      </g>
     </g>
     <g id="text_3">
      <!-- 400 -->
      <g transform="translate(191.231126 322.182437) scale(0.1 -0.1)">
       <defs>
        <path id="DejaVuSans-34" d="M 2419 4116 
L 825 1625 
L 2419 1625 
L 2419 4116 
z
M 2253 4666 
L 3047 4666 
L 3047 1625 
L 3713 1625 
L 3713 1100 
L 3047 1100 
L 3047 0 
L 2419 0 
L 2419 1100 
L 313 1100 
L 313 1709 
L 2253 4666 
z
" transform="scale(0.015625)"/>
       </defs>
       <use xlink:href="#DejaVuSans-34"/>
       <use xlink:href="#DejaVuSans-30" x="63.623047"/>
       <use xlink:href="#DejaVuSans-30" x="127.246094"/>
      </g>
     </g>
    </g>
    <g id="xtick_4">
     <g id="line2d_4">
      <g>
       <use xlink:href="#m44fbbe704e" x="264.24595" y="307.584" style="stroke: #000000; stroke-width: 0.8"/>
      </g>
     </g>
     <g id="text_4">
      <!-- 600 -->
      <g transform="translate(254.7022 322.182437) scale(0.1 -0.1)">
       <defs>
        <path id="DejaVuSans-36" d="M 2113 2584 
Q 1688 2584 1439 2293 
Q 1191 2003 1191 1497 
Q 1191 994 1439 701 
Q 1688 409 2113 409 
Q 2538 409 2786 701 
Q 3034 994 3034 1497 
Q 3034 2003 2786 2293 
Q 2538 2584 2113 2584 
z
M 3366 4563 
L 3366 3988 
Q 3128 4100 2886 4159 
Q 2644 4219 2406 4219 
Q 1781 4219 1451 3797 
Q 1122 3375 1075 2522 
Q 1259 2794 1537 2939 
Q 1816 3084 2150 3084 
Q 2853 3084 3261 2657 
Q 3669 2231 3669 1497 
Q 3669 778 3244 343 
Q 2819 -91 2113 -91 
Q 1303 -91 875 529 
Q 447 1150 447 2328 
Q 447 3434 972 4092 
Q 1497 4750 2381 4750 
Q 2619 4750 2861 4703 
Q 3103 4656 3366 4563 
z
" transform="scale(0.015625)"/>
       </defs>
       <use xlink:href="#DejaVuSans-36"/>
       <use xlink:href="#DejaVuSans-30" x="63.623047"/>
       <use xlink:href="#DejaVuSans-30" x="127.246094"/>
      </g>
     </g>
    </g>
    <g id="xtick_5">
     <g id="line2d_5">
      <g>
       <use xlink:href="#m44fbbe704e" x="327.717025" y="307.584" style="stroke: #000000; stroke-width: 0.8"/>
      </g>
     </g>
     <g id="text_5">
      <!-- 800 -->
      <g transform="translate(318.173275 322.182437) scale(0.1 -0.1)">
       <defs>
        <path id="DejaVuSans-38" d="M 2034 2216 
Q 1584 2216 1326 1975 
Q 1069 1734 1069 1313 
Q 1069 891 1326 650 
Q 1584 409 2034 409 
Q 2484 409 2743 651 
Q 3003 894 3003 1313 
Q 3003 1734 2745 1975 
Q 2488 2216 2034 2216 
z
M 1403 2484 
Q 997 2584 770 2862 
Q 544 3141 544 3541 
Q 544 4100 942 4425 
Q 1341 4750 2034 4750 
Q 2731 4750 3128 4425 
Q 3525 4100 3525 3541 
Q 3525 3141 3298 2862 
Q 3072 2584 2669 2484 
Q 3125 2378 3379 2068 
Q 3634 1759 3634 1313 
Q 3634 634 3220 271 
Q 2806 -91 2034 -91 
Q 1263 -91 848 271 
Q 434 634 434 1313 
Q 434 1759 690 2068 
Q 947 2378 1403 2484 
z
M 1172 3481 
Q 1172 3119 1398 2916 
Q 1625 2713 2034 2713 
Q 2441 2713 2670 2916 
Q 2900 3119 2900 3481 
Q 2900 3844 2670 4047 
Q 2441 4250 2034 4250 
Q 1625 4250 1398 4047 
Q 1172 3844 1172 3481 
z
" transform="scale(0.015625)"/>
       </defs>
       <use xlink:href="#DejaVuSans-38"/>
       <use xlink:href="#DejaVuSans-30" x="63.623047"/>
       <use xlink:href="#DejaVuSans-30" x="127.246094"/>
      </g>
     </g>
    </g>
    <g id="xtick_6">
     <g id="line2d_6">
      <g>
       <use xlink:href="#m44fbbe704e" x="391.188099" y="307.584" style="stroke: #000000; stroke-width: 0.8"/>
      </g>
     </g>
     <g id="text_6">
      <!-- 1000 -->
      <g transform="translate(378.463099 322.182437) scale(0.1 -0.1)">
       <defs>
        <path id="DejaVuSans-31" d="M 794 531 
L 1825 531 
L 1825 4091 
L 703 3866 
L 703 4441 
L 1819 4666 
L 2450 4666 
L 2450 531 
L 3481 531 
L 3481 0 
L 794 0 
L 794 531 
z
" transform="scale(0.015625)"/>
       </defs>
       <use xlink:href="#DejaVuSans-31"/>
       <use xlink:href="#DejaVuSans-30" x="63.623047"/>
       <use xlink:href="#DejaVuSans-30" x="127.246094"/>
       <use xlink:href="#DejaVuSans-30" x="190.869141"/>
      </g>
     </g>
    </g>
    <g id="text_7">
     <!-- n -->
     <g transform="translate(232.99125 335.860562) scale(0.1 -0.1)">
      <defs>
       <path id="DejaVuSans-6e" d="M 3513 2113 
L 3513 0 
L 2938 0 
L 2938 2094 
Q 2938 2591 2744 2837 
Q 2550 3084 2163 3084 
Q 1697 3084 1428 2787 
Q 1159 2491 1159 1978 
L 1159 0 
L 581 0 
L 581 3500 
L 1159 3500 
L 1159 2956 
Q 1366 3272 1645 3428 
Q 1925 3584 2291 3584 
Q 2894 3584 3203 3211 
Q 3513 2838 3513 2113 
z
" transform="scale(0.015625)"/>
      </defs>
      <use xlink:href="#DejaVuSans-6e"/>
     </g>
    </g>
   </g>
   <g id="matplotlib.axis_2">
    <g id="ytick_1">
     <g id="line2d_7">
      <defs>
       <path id="m296adee2cb" d="M 0 0 
L -3.5 0 
" style="stroke: #000000; stroke-width: 0.8"/>
      </defs>
      <g>
       <use xlink:href="#m296adee2cb" x="57.6" y="290.140442" style="stroke: #000000; stroke-width: 0.8"/>
      </g>
     </g>
     <g id="text_8">
      <!-- −3 -->
      <g transform="translate(35.857813 293.939661) scale(0.1 -0.1)">
       <defs>
        <path id="DejaVuSans-2212" d="M 678 2272 
L 4684 2272 
L 4684 1741 
L 678 1741 
L 678 2272 
z
" transform="scale(0.015625)"/>
        <path id="DejaVuSans-33" d="M 2597 2516 
Q 3050 2419 3304 2112 
Q 3559 1806 3559 1356 
Q 3559 666 3084 287 
Q 2609 -91 1734 -91 
Q 1441 -91 1130 -33 
Q 819 25 488 141 
L 488 750 
Q 750 597 1062 519 
Q 1375 441 1716 441 
Q 2309 441 2620 675 
Q 2931 909 2931 1356 
Q 2931 1769 2642 2001 
Q 2353 2234 1838 2234 
L 1294 2234 
L 1294 2753 
L 1863 2753 
Q 2328 2753 2575 2939 
Q 2822 3125 2822 3475 
Q 2822 3834 2567 4026 
Q 2313 4219 1838 4219 
Q 1578 4219 1281 4162 
Q 984 4106 628 3988 
L 628 4550 
Q 988 4650 1302 4700 
Q 1616 4750 1894 4750 
Q 2613 4750 3031 4423 
Q 3450 4097 3450 3541 
Q 3450 3153 3228 2886 
Q 3006 2619 2597 2516 
z
" transform="scale(0.015625)"/>
       </defs>
       <use xlink:href="#DejaVuSans-2212"/>
       <use xlink:href="#DejaVuSans-33" x="83.789062"/>
      </g>
     </g>
    </g>
    <g id="ytick_2">
     <g id="line2d_8">
      <g>
       <use xlink:href="#m296adee2cb" x="57.6" y="251.609785" style="stroke: #000000; stroke-width: 0.8"/>
      </g>
     </g>
     <g id="text_9">
      <!-- −2 -->
      <g transform="translate(35.857813 255.409004) scale(0.1 -0.1)">
       <use xlink:href="#DejaVuSans-2212"/>
       <use xlink:href="#DejaVuSans-32" x="83.789062"/>
      </g>
     </g>
    </g>
    <g id="ytick_3">
     <g id="line2d_9">
      <g>
       <use xlink:href="#m296adee2cb" x="57.6" y="213.079127" style="stroke: #000000; stroke-width: 0.8"/>
      </g>
     </g>
     <g id="text_10">
      <!-- −1 -->
      <g transform="translate(35.857813 216.878346) scale(0.1 -0.1)">
       <use xlink:href="#DejaVuSans-2212"/>
       <use xlink:href="#DejaVuSans-31" x="83.789062"/>
      </g>
     </g>
    </g>
    <g id="ytick_4">
     <g id="line2d_10">
      <g>
       <use xlink:href="#m296adee2cb" x="57.6" y="174.54847" style="stroke: #000000; stroke-width: 0.8"/>
      </g>
     </g>
     <g id="text_11">
      <!-- 0 -->
      <g transform="translate(44.2375 178.347688) scale(0.1 -0.1)">
       <use xlink:href="#DejaVuSans-30"/>
      </g>
     </g>
    </g>
    <g id="ytick_5">
     <g id="line2d_11">
      <g>
       <use xlink:href="#m296adee2cb" x="57.6" y="136.017812" style="stroke: #000000; stroke-width: 0.8"/>
      </g>
     </g>
     <g id="text_12">
      <!-- 1 -->
      <g transform="translate(44.2375 139.817031) scale(0.1 -0.1)">
       <use xlink:href="#DejaVuSans-31"/>
      </g>
     </g>
    </g>
    <g id="ytick_6">
     <g id="line2d_12">
      <g>
       <use xlink:href="#m296adee2cb" x="57.6" y="97.487154" style="stroke: #000000; stroke-width: 0.8"/>
      </g>
     </g>
     <g id="text_13">
      <!-- 2 -->
      <g transform="translate(44.2375 101.286373) scale(0.1 -0.1)">
       <use xlink:href="#DejaVuSans-32"/>
      </g>
     </g>
    </g>
    <g id="ytick_7">
     <g id="line2d_13">
      <g>
       <use xlink:href="#m296adee2cb" x="57.6" y="58.956497" style="stroke: #000000; stroke-width: 0.8"/>
      </g>
     </g>
     <g id="text_14">
      <!-- 3 -->
      <g transform="translate(44.2375 62.755716) scale(0.1 -0.1)">
       <use xlink:href="#DejaVuSans-33"/>
      </g>
     </g>
    </g>
    <g id="text_15">
     <!-- E*t -->
     <g transform="translate(29.778125 182.147531) rotate(-90) scale(0.1 -0.1)">
      <defs>
       <path id="DejaVuSans-45" d="M 628 4666 
L 3578 4666 
L 3578 4134 
L 1259 4134 
L 1259 2753 
L 3481 2753 
L 3481 2222 
L 1259 2222 
L 1259 531 
L 3634 531 
L 3634 0 
L 628 0 
L 628 4666 
z
" transform="scale(0.015625)"/>
       <path id="DejaVuSans-2a" d="M 3009 3897 
L 1888 3291 
L 3009 2681 
L 2828 2375 
L 1778 3009 
L 1778 1831 
L 1422 1831 
L 1422 3009 
L 372 2375 
L 191 2681 
L 1313 3291 
L 191 3897 
L 372 4206 
L 1422 3572 
L 1422 4750 
L 1778 4750 
L 1778 3572 
L 2828 4206 
L 3009 3897 
z
" transform="scale(0.015625)"/>
       <path id="DejaVuSans-74" d="M 1172 4494 
L 1172 3500 
L 2356 3500 
L 2356 3053 
L 1172 3053 
L 1172 1153 
Q 1172 725 1289 603 
Q 1406 481 1766 481 
L 2356 481 
L 2356 0 
L 1766 0 
Q 1100 0 847 248 
Q 594 497 594 1153 
L 594 3053 
L 172 3053 
L 172 3500 
L 594 3500 
L 594 4494 
L 1172 4494 
z
" transform="scale(0.015625)"/>
      </defs>
      <use xlink:href="#DejaVuSans-45"/>
      <use xlink:href="#DejaVuSans-2a" x="63.183594"/>
      <use xlink:href="#DejaVuSans-74" x="113.183594"/>
     </g>
    </g>
   </g>
   <g id="line2d_14">
    <path d="M 73.832727 295.488 
L 74.150083 295.267281 
L 74.784793 294.627771 
L 75.419504 294.443227 
L 75.73686 293.716094 
L 76.054215 293.446035 
L 76.688926 293.385691 
L 77.006281 291.541681 
L 77.640992 291.378063 
L 78.275702 290.358905 
L 79.545124 290.210303 
L 79.862479 289.21864 
L 80.179835 289.117808 
L 80.49719 288.173728 
L 81.131901 288.072818 
L 81.449256 287.695059 
L 82.718678 287.570501 
L 83.036033 287.154283 
L 83.988099 287.026819 
L 84.305455 286.538766 
L 84.62281 285.493833 
L 84.940165 285.379493 
L 85.257521 284.583865 
L 86.526942 284.33322 
L 86.844298 283.96925 
L 87.161653 283.419166 
L 87.479008 283.400149 
L 87.796364 282.419649 
L 88.113719 282.293732 
L 88.431074 281.247628 
L 88.74843 281.215857 
L 89.065785 280.823594 
L 89.38314 280.673383 
L 89.700496 280.337565 
L 90.017851 280.314296 
L 90.652562 279.334143 
L 91.287273 279.245274 
L 91.921983 278.238405 
L 93.50876 278.102435 
L 93.826116 277.743711 
L 94.143471 277.58624 
L 94.778182 276.850788 
L 95.095537 276.602291 
L 95.730248 275.862897 
L 96.047603 275.806723 
L 96.364959 275.553206 
L 96.999669 275.325368 
L 97.63438 275.041576 
L 97.951736 275.020972 
L 98.586446 274.731825 
L 99.221157 274.449243 
L 100.807934 273.586851 
L 101.442645 272.976771 
L 102.712066 272.861214 
L 103.029421 272.414162 
L 103.346777 272.224393 
L 103.664132 271.815145 
L 104.616198 271.363145 
L 104.933554 270.724929 
L 105.568264 270.349247 
L 105.88562 270.284091 
L 106.202975 269.885766 
L 107.472397 269.792702 
L 108.107107 269.160932 
L 108.424463 269.1101 
L 108.741818 268.790053 
L 109.059174 268.755707 
L 109.376529 268.444837 
L 109.693884 268.335233 
L 110.963306 267.358386 
L 111.915372 267.193056 
L 112.232727 266.745708 
L 112.550083 266.709091 
L 112.867438 266.358187 
L 114.13686 265.896997 
L 114.454215 265.429866 
L 115.088926 265.248249 
L 115.406281 264.853685 
L 115.723636 264.704506 
L 116.040992 264.417417 
L 116.993058 264.272428 
L 117.310413 263.790032 
L 117.945124 263.660415 
L 118.89719 262.348288 
L 119.214545 262.175328 
L 119.849256 261.434266 
L 120.801322 261.207185 
L 121.118678 260.69597 
L 121.436033 260.67094 
L 121.753388 260.417677 
L 122.388099 258.68971 
L 122.705455 258.348289 
L 123.02281 257.753465 
L 123.657521 257.337132 
L 123.974876 256.680315 
L 124.292231 256.531919 
L 124.609587 255.639225 
L 124.926942 255.602564 
L 125.244298 255.20524 
L 127.78314 254.014776 
L 128.100496 253.534028 
L 128.417851 253.35442 
L 128.735207 252.359114 
L 129.369917 252.262084 
L 129.687273 252.00603 
L 130.004628 251.904661 
L 130.639339 251.215758 
L 130.956694 251.196587 
L 131.27405 250.447958 
L 131.591405 250.250083 
L 131.90876 249.27301 
L 132.226116 248.968023 
L 132.543471 248.919944 
L 132.860826 247.925474 
L 133.178182 247.689462 
L 133.495537 247.162985 
L 133.812893 247.06411 
L 134.130248 246.020453 
L 134.447603 245.958363 
L 135.399669 245.240748 
L 135.717025 244.980408 
L 136.351736 244.914646 
L 136.986446 244.602343 
L 137.303802 244.578301 
L 137.938512 243.352163 
L 138.890579 242.33899 
L 139.207934 242.305061 
L 141.429421 241.183323 
L 141.746777 240.046023 
L 142.064132 239.600454 
L 142.698843 239.491156 
L 143.016198 239.186075 
L 143.650909 238.997609 
L 143.968264 238.718632 
L 144.28562 238.685908 
L 144.602975 238.477186 
L 145.237686 238.448588 
L 145.555041 238.138973 
L 145.872397 238.101388 
L 146.189752 237.389132 
L 146.507107 237.368644 
L 147.459174 236.006076 
L 148.093884 235.600465 
L 148.728595 234.530692 
L 149.680661 233.841164 
L 149.998017 233.143685 
L 150.632727 233.075772 
L 151.267438 232.816016 
L 151.584793 232.40136 
L 152.219504 232.098237 
L 152.53686 232.077923 
L 152.854215 231.774423 
L 153.17157 231.742474 
L 153.806281 231.235599 
L 154.440992 231.010993 
L 154.758347 230.759206 
L 155.075702 230.178095 
L 157.931901 228.5027 
L 158.249256 228.148453 
L 158.883967 227.96725 
L 159.518678 227.89706 
L 159.836033 227.501706 
L 160.470744 227.333918 
L 161.740165 226.401358 
L 162.374876 225.326258 
L 162.692231 225.193428 
L 163.009587 224.933868 
L 163.644298 224.851341 
L 164.596364 224.372852 
L 167.135207 223.350351 
L 167.452562 223.013039 
L 167.769917 222.313046 
L 168.721983 222.106818 
L 169.356694 221.804261 
L 169.991405 221.285748 
L 170.30876 221.227326 
L 170.626116 221.002454 
L 171.260826 220.897098 
L 171.895537 220.484162 
L 172.212893 220.479263 
L 172.530248 220.073945 
L 172.847603 220.037429 
L 173.164959 219.173024 
L 173.799669 219.029612 
L 174.43438 218.85174 
L 175.386446 218.533973 
L 176.021157 218.415131 
L 176.338512 218.131723 
L 177.290579 217.883361 
L 177.925289 217.805252 
L 178.242645 217.479372 
L 178.877355 217.382974 
L 179.512066 216.466322 
L 179.829421 215.48902 
L 180.464132 215.419997 
L 180.781488 214.35985 
L 181.098843 214.297003 
L 181.733554 213.097665 
L 182.050909 212.701166 
L 182.368264 212.567603 
L 182.68562 212.15883 
L 183.002975 212.053427 
L 183.320331 211.660035 
L 183.637686 211.622035 
L 183.955041 211.273997 
L 185.224463 210.577966 
L 185.541818 209.73995 
L 185.859174 209.251623 
L 186.81124 209.066115 
L 187.128595 208.787189 
L 188.080661 208.651519 
L 188.398017 208.206143 
L 188.715372 208.033269 
L 189.350083 207.961945 
L 189.984793 207.609154 
L 190.302149 206.532415 
L 190.93686 206.340998 
L 191.254215 206.139502 
L 191.57157 205.780091 
L 194.110413 205.193272 
L 194.427769 204.735457 
L 194.745124 204.706901 
L 195.379835 204.325452 
L 195.69719 204.300921 
L 196.331901 204.075004 
L 196.649256 203.385979 
L 196.966612 203.119062 
L 197.283967 203.03123 
L 197.601322 202.427356 
L 197.918678 202.331612 
L 199.505455 201.215202 
L 199.82281 200.83936 
L 200.457521 200.707843 
L 200.774876 200.430566 
L 202.679008 199.7713 
L 202.996364 199.341312 
L 204.58314 199.250965 
L 205.535207 198.878363 
L 205.852562 198.174667 
L 207.439339 196.798909 
L 208.07405 196.35792 
L 209.660826 196.170185 
L 210.295537 195.814872 
L 210.612893 195.79724 
L 210.930248 195.275042 
L 211.247603 195.121393 
L 211.564959 195.094013 
L 212.199669 194.798625 
L 212.517025 193.584239 
L 212.83438 193.502886 
L 213.151736 193.218362 
L 213.469091 192.53966 
L 213.786446 192.188944 
L 214.421157 191.003569 
L 214.738512 190.810905 
L 216.007934 189.13425 
L 216.642645 189.037478 
L 216.96 188.90252 
L 217.594711 188.083446 
L 218.864132 187.856898 
L 219.498843 187.707371 
L 219.816198 187.321461 
L 220.133554 187.231333 
L 220.768264 186.659907 
L 221.08562 186.564467 
L 222.672397 184.696022 
L 222.989752 184.661573 
L 223.307107 184.412102 
L 223.624463 183.731091 
L 223.941818 183.723791 
L 224.576529 183.126569 
L 225.84595 182.683919 
L 226.163306 182.622628 
L 226.480661 182.324305 
L 228.702149 181.576895 
L 229.33686 181.538246 
L 229.654215 180.73845 
L 230.288926 180.499119 
L 230.606281 179.938214 
L 230.923636 179.861316 
L 231.875702 179.164056 
L 232.510413 179.062923 
L 233.145124 178.651141 
L 233.462479 178.462558 
L 233.779835 178.452798 
L 234.09719 178.182605 
L 234.414545 178.122723 
L 234.731901 177.417003 
L 235.049256 177.41566 
L 235.683967 176.857365 
L 236.001322 176.830337 
L 236.636033 176.492703 
L 236.953388 175.977478 
L 237.270744 175.784498 
L 237.588099 175.782623 
L 237.905455 175.60575 
L 238.22281 175.564032 
L 238.540165 174.33098 
L 238.857521 174.317597 
L 239.174876 173.539466 
L 239.809587 173.406683 
L 240.444298 173.190733 
L 240.761653 173.120028 
L 241.079008 172.701773 
L 241.396364 172.494004 
L 242.031074 172.410111 
L 242.34843 172.145002 
L 242.98314 172.035289 
L 243.300496 171.425157 
L 243.935207 170.988999 
L 244.252562 170.672734 
L 244.569917 170.642536 
L 245.204628 170.255378 
L 245.521983 170.198988 
L 245.839339 170.014523 
L 246.156694 170.00368 
L 246.791405 169.649723 
L 247.10876 169.599536 
L 247.426116 169.361231 
L 248.060826 169.210085 
L 248.378182 168.972134 
L 248.695537 168.96114 
L 249.012893 168.343705 
L 249.330248 168.174836 
L 249.964959 167.188838 
L 250.282314 166.946825 
L 251.551736 166.564281 
L 252.821157 165.900237 
L 253.455868 165.81356 
L 253.773223 165.549968 
L 254.725289 165.303298 
L 255.994711 164.504978 
L 256.629421 164.42695 
L 256.946777 164.107302 
L 257.264132 163.623118 
L 259.168264 162.981421 
L 260.120331 162.348416 
L 262.976529 161.109621 
L 263.61124 160.018828 
L 264.24595 159.694685 
L 264.563306 159.553218 
L 265.198017 158.912364 
L 266.150083 158.50667 
L 266.467438 158.472044 
L 267.102149 158.087027 
L 267.73686 157.870689 
L 268.37157 157.216865 
L 268.688926 156.931116 
L 269.640992 156.674561 
L 269.958347 156.114625 
L 270.275702 156.09492 
L 272.49719 154.890349 
L 272.814545 154.629713 
L 273.449256 154.497033 
L 274.083967 153.996312 
L 274.718678 153.582268 
L 275.353388 153.387422 
L 275.670744 153.292476 
L 275.988099 153.030927 
L 276.62281 152.77542 
L 276.940165 152.341226 
L 277.257521 152.251329 
L 277.892231 151.780681 
L 278.209587 151.742667 
L 278.526942 150.738142 
L 278.844298 150.691392 
L 279.161653 149.16174 
L 279.479008 148.828519 
L 279.796364 148.65666 
L 280.113719 148.176799 
L 280.431074 148.119136 
L 281.065785 147.784423 
L 281.38314 147.725608 
L 283.604628 145.829392 
L 284.556694 144.488571 
L 285.50876 143.776494 
L 286.143471 143.2164 
L 287.095537 142.748869 
L 287.412893 142.673429 
L 288.047603 141.525671 
L 288.364959 141.408318 
L 288.999669 140.721021 
L 289.317025 140.714228 
L 289.951736 140.477645 
L 290.586446 140.388508 
L 290.903802 139.969867 
L 291.855868 139.592794 
L 292.173223 139.435757 
L 292.490579 138.964321 
L 292.807934 138.921323 
L 293.442645 137.919074 
L 294.394711 137.480206 
L 295.029421 137.390691 
L 295.981488 135.819243 
L 296.616198 135.510748 
L 296.933554 135.483841 
L 297.250909 135.287021 
L 297.568264 134.655331 
L 298.202975 134.439815 
L 298.520331 134.328959 
L 299.472397 131.492852 
L 300.107107 131.180045 
L 301.059174 130.773853 
L 301.693884 130.248417 
L 302.01124 130.209299 
L 302.328595 130.038767 
L 302.64595 130.030186 
L 302.963306 129.81196 
L 303.280661 129.731473 
L 303.598017 129.532703 
L 304.232727 128.487456 
L 305.184793 128.066584 
L 305.819504 127.828145 
L 306.13686 127.155636 
L 306.77157 126.840798 
L 307.088926 126.785005 
L 307.406281 126.544706 
L 307.723636 125.881793 
L 308.040992 125.798231 
L 308.358347 125.223656 
L 309.310413 124.839089 
L 309.945124 124.738498 
L 310.579835 124.367711 
L 310.89719 124.31804 
L 311.214545 124.068566 
L 311.849256 123.934384 
L 312.166612 123.690065 
L 312.801322 123.465138 
L 313.118678 122.060162 
L 313.436033 121.767098 
L 313.753388 121.754841 
L 314.388099 121.403108 
L 315.974876 120.853883 
L 316.292231 120.512707 
L 316.609587 120.503335 
L 316.926942 120.381539 
L 318.196364 119.088469 
L 318.831074 118.678713 
L 319.14843 118.634242 
L 319.78314 118.391471 
L 320.100496 117.825344 
L 320.417851 117.782732 
L 320.735207 117.425178 
L 321.369917 117.262547 
L 321.687273 117.250305 
L 322.321983 116.625057 
L 322.639339 116.229267 
L 322.956694 116.215717 
L 323.27405 116.000079 
L 323.591405 115.956126 
L 325.495537 113.611081 
L 327.082314 112.832615 
L 328.03438 112.071349 
L 328.669091 111.790516 
L 328.986446 111.026437 
L 329.303802 110.890706 
L 329.621157 110.388503 
L 329.938512 110.278879 
L 330.255868 110.006021 
L 330.573223 110.000326 
L 330.890579 109.346167 
L 331.207934 108.959115 
L 331.525289 108.879121 
L 331.842645 107.831404 
L 332.16 107.809865 
L 332.794711 107.402114 
L 333.112066 107.311555 
L 333.429421 106.837538 
L 333.746777 106.78458 
L 334.381488 106.262478 
L 334.698843 105.788464 
L 335.650909 105.222708 
L 336.28562 105.092844 
L 336.602975 104.315816 
L 336.920331 104.038514 
L 337.237686 103.992158 
L 337.555041 103.470992 
L 337.872397 103.259504 
L 338.189752 102.914222 
L 339.776529 102.21353 
L 341.04595 102.011927 
L 341.363306 101.057069 
L 342.950083 100.911815 
L 343.267438 100.390556 
L 343.584793 100.363254 
L 343.902149 100.036843 
L 346.123636 99.582669 
L 346.440992 99.408557 
L 346.758347 98.991734 
L 347.393058 98.567735 
L 347.710413 97.970883 
L 348.345124 97.892688 
L 348.662479 97.275551 
L 349.29719 96.898206 
L 349.614545 96.86177 
L 350.249256 96.181496 
L 350.883967 96.137519 
L 351.201322 95.824226 
L 351.836033 95.756068 
L 352.470744 95.554644 
L 353.105455 95.089123 
L 354.057521 94.507519 
L 354.374876 94.416857 
L 355.644298 93.590749 
L 356.279008 93.372773 
L 356.596364 93.09443 
L 356.913719 93.059028 
L 357.231074 92.846436 
L 358.500496 92.611205 
L 358.817851 91.821557 
L 359.135207 91.802939 
L 359.452562 91.56984 
L 359.769917 90.914546 
L 360.721983 90.589649 
L 361.67405 90.451683 
L 362.30876 90.153283 
L 362.626116 89.544616 
L 363.260826 89.423458 
L 363.578182 89.213128 
L 364.212893 88.380925 
L 365.482314 87.704304 
L 366.117025 87.573421 
L 366.43438 87.073179 
L 366.751736 86.919926 
L 367.069091 86.122749 
L 367.703802 85.095464 
L 368.021157 85.075627 
L 368.338512 84.676334 
L 368.973223 84.493363 
L 369.290579 83.101043 
L 369.925289 82.145987 
L 370.877355 81.476268 
L 371.194711 80.013913 
L 371.512066 79.991144 
L 372.146777 79.091061 
L 372.781488 78.948611 
L 373.098843 78.838424 
L 373.416198 78.389129 
L 373.733554 78.239565 
L 374.050909 77.479193 
L 374.368264 77.194242 
L 374.68562 76.433318 
L 375.002975 76.413267 
L 375.955041 75.989291 
L 376.272397 75.214873 
L 376.589752 75.155647 
L 377.224463 74.652374 
L 377.541818 74.110546 
L 378.176529 72.767107 
L 378.493884 72.183354 
L 379.763306 71.57182 
L 380.080661 71.003152 
L 380.398017 70.845178 
L 380.715372 69.545727 
L 381.350083 68.609399 
L 381.667438 68.503528 
L 382.93686 66.559178 
L 383.254215 66.529671 
L 383.57157 65.510072 
L 383.888926 65.487105 
L 384.523636 64.940552 
L 384.840992 64.306345 
L 385.793058 63.90256 
L 386.110413 63.819895 
L 386.427769 62.371948 
L 387.062479 61.804422 
L 387.379835 61.329398 
L 388.331901 60.979544 
L 388.649256 60.740084 
L 389.283967 59.724685 
L 390.236033 59.072104 
L 390.553388 58.762778 
L 391.82281 58.703453 
L 392.140165 57.671654 
L 392.774876 57.59343 
L 393.092231 56.648544 
L 393.726942 56.57206 
L 394.996364 56.036407 
L 395.313719 55.675674 
L 395.94843 55.527148 
L 396.265785 55.162842 
L 396.58314 54.995032 
L 397.217851 54.507389 
L 397.852562 54.218329 
L 398.487273 53.568 
L 398.487273 53.568 
" clip-path="url(#p5bf16fa08d)" style="fill: none; stroke: #1f77b4; stroke-width: 1.5; stroke-linecap: square"/>
   </g>
   <g id="line2d_15">
    <path d="M 73.832727 253.342203 
L 74.150083 244.147822 
L 74.467438 244.147822 
L 74.784793 236.2885 
L 75.102149 234.656007 
L 75.73686 234.656007 
L 76.054215 231.715365 
L 76.37157 226.751154 
L 76.688926 226.446586 
L 77.006281 226.446586 
L 77.323636 225.67846 
L 78.910413 225.67846 
L 79.227769 222.877857 
L 79.545124 222.877857 
L 79.862479 221.864048 
L 80.179835 221.237702 
L 80.49719 221.237702 
L 80.814545 218.140842 
L 81.131901 216.683125 
L 82.083967 216.65806 
L 82.401322 215.795318 
L 86.844298 215.746335 
L 87.161653 215.273942 
L 87.479008 213.029873 
L 87.796364 212.533791 
L 88.113719 211.756919 
L 89.700496 211.756919 
L 90.017851 210.764305 
L 90.652562 210.764305 
L 90.969917 209.611237 
L 91.287273 209.611237 
L 91.604628 209.010579 
L 91.921983 207.465594 
L 99.221157 207.465594 
L 99.538512 206.54499 
L 99.855868 206.54499 
L 100.173223 206.327227 
L 101.76 206.327227 
L 102.077355 205.372996 
L 103.664132 205.372996 
L 103.981488 205.157756 
L 104.298843 204.785688 
L 104.933554 204.785688 
L 105.250909 203.477088 
L 106.202975 203.411138 
L 106.520331 200.457843 
L 107.155041 200.166036 
L 107.472397 200.166036 
L 107.789752 199.485978 
L 109.376529 199.485978 
L 109.693884 197.993473 
L 110.01124 197.993473 
L 110.328595 196.344724 
L 129.369917 196.344656 
L 129.687273 195.407728 
L 130.321983 194.526538 
L 131.27405 194.470357 
L 131.591405 193.703907 
L 131.90876 193.703907 
L 132.226116 193.528799 
L 132.860826 193.528799 
L 133.178182 192.053331 
L 133.495537 192.053331 
L 133.812893 191.744369 
L 135.399669 191.744369 
L 135.717025 190.486118 
L 136.669091 189.960733 
L 163.009587 189.960733 
L 163.326942 188.65483 
L 167.135207 188.65483 
L 167.452562 188.416169 
L 167.769917 188.416169 
L 168.087273 186.799945 
L 168.404628 186.799945 
L 168.721983 186.368545 
L 169.356694 186.368545 
L 169.67405 186.090155 
L 169.991405 185.423363 
L 171.578182 185.423363 
L 172.212893 184.953227 
L 172.530248 184.953227 
L 172.847603 184.753773 
L 180.146777 184.753773 
L 180.464132 184.410463 
L 180.781488 184.410463 
L 181.098843 184.073715 
L 182.68562 184.073715 
L 183.320331 180.932393 
L 185.541818 180.904449 
L 185.859174 180.721938 
L 186.493884 180.721938 
L 186.81124 180.44626 
L 187.128595 179.755429 
L 187.44595 179.755429 
L 187.763306 179.287536 
L 188.080661 179.287536 
L 188.398017 177.334208 
L 188.715372 174.54847 
L 283.604628 174.54847 
L 284.239339 169.809403 
L 284.556694 169.809403 
L 284.87405 169.34151 
L 285.191405 169.34151 
L 285.50876 168.650679 
L 285.826116 168.375001 
L 286.460826 168.375001 
L 286.778182 168.19249 
L 288.999669 168.164547 
L 289.63438 165.023225 
L 291.221157 165.023225 
L 291.538512 164.686476 
L 291.855868 164.686476 
L 292.173223 164.343166 
L 299.472397 164.343166 
L 299.789752 164.143712 
L 300.107107 164.143712 
L 300.741818 163.673576 
L 302.328595 163.673576 
L 302.64595 163.006784 
L 302.963306 162.728395 
L 303.598017 162.728395 
L 303.915372 162.296994 
L 304.232727 162.296994 
L 304.550083 160.68077 
L 304.867438 160.68077 
L 305.184793 160.44211 
L 308.993058 160.44211 
L 309.310413 159.136207 
L 335.968264 159.064579 
L 336.602975 158.610821 
L 336.920331 157.35257 
L 338.507107 157.35257 
L 338.824463 157.043608 
L 339.141818 157.043608 
L 339.459174 155.56814 
L 340.093884 155.56814 
L 340.41124 155.393032 
L 340.728595 155.393032 
L 341.04595 154.626582 
L 341.998017 154.570401 
L 342.315372 154.229339 
L 342.632727 153.689211 
L 342.950083 152.752284 
L 361.991405 152.752216 
L 362.30876 151.103466 
L 362.626116 151.103466 
L 362.943471 149.610962 
L 364.530248 149.610962 
L 364.847603 148.930903 
L 365.164959 148.930903 
L 365.799669 148.639097 
L 366.117025 145.685801 
L 367.069091 145.619851 
L 367.386446 144.311251 
L 368.021157 144.311251 
L 368.655868 143.723944 
L 370.242645 143.723944 
L 370.56 142.769712 
L 372.146777 142.769712 
L 372.464132 142.551949 
L 372.781488 142.551949 
L 373.098843 141.631345 
L 380.398017 141.631345 
L 380.715372 140.08636 
L 381.032727 139.485702 
L 381.350083 139.485702 
L 381.667438 138.332634 
L 382.302149 138.332634 
L 382.619504 137.340021 
L 384.206281 137.340021 
L 384.840992 136.067067 
L 385.158347 133.822997 
L 385.475702 133.350604 
L 389.918678 133.301621 
L 390.236033 132.438879 
L 391.188099 132.413815 
L 391.505455 130.956098 
L 391.82281 127.859237 
L 392.140165 127.859237 
L 392.457521 127.232891 
L 392.774876 126.219082 
L 393.092231 126.219082 
L 393.409587 123.418479 
L 394.996364 123.418479 
L 395.313719 122.650354 
L 395.631074 122.650354 
L 395.94843 122.345785 
L 396.265785 117.381574 
L 396.58314 114.440933 
L 397.217851 114.440933 
L 397.535207 112.80844 
L 397.852562 104.949117 
L 398.169917 104.949117 
L 398.487273 95.754736 
L 398.487273 95.754736 
" clip-path="url(#p5bf16fa08d)" style="fill: none; stroke: #ff7f0e; stroke-width: 1.5; stroke-linecap: square"/>
   </g>
   <g id="patch_3">
    <path d="M 57.6 307.584 
L 57.6 41.472 
" style="fill: none; stroke: #000000; stroke-width: 0.8; stroke-linejoin: miter; stroke-linecap: square"/>
   </g>
   <g id="patch_4">
    <path d="M 414.72 307.584 
L 414.72 41.472 
" style="fill: none; stroke: #000000; stroke-width: 0.8; stroke-linejoin: miter; stroke-linecap: square"/>
   </g>
   <g id="patch_5">
    <path d="M 57.6 307.584 
L 414.72 307.584 
" style="fill: none; stroke: #000000; stroke-width: 0.8; stroke-linejoin: miter; stroke-linecap: square"/>
   </g>
   <g id="patch_6">
    <path d="M 57.6 41.472 
L 414.72 41.472 
" style="fill: none; stroke: #000000; stroke-width: 0.8; stroke-linejoin: miter; stroke-linecap: square"/>
   </g>
   <g id="legend_1">
    <g id="patch_7">
     <path d="M 64.6 78.82825 
L 129.342187 78.82825 
Q 131.342187 78.82825 131.342187 76.82825 
L 131.342187 48.472 
Q 131.342187 46.472 129.342187 46.472 
L 64.6 46.472 
Q 62.6 46.472 62.6 48.472 
L 62.6 76.82825 
Q 62.6 78.82825 64.6 78.82825 
z
" style="fill: #ffffff; opacity: 0.8; stroke: #cccccc; stroke-linejoin: miter"/>
    </g>
    <g id="line2d_16">
     <path d="M 66.6 54.570437 
L 76.6 54.570437 
L 86.6 54.570437 
" style="fill: none; stroke: #1f77b4; stroke-width: 1.5; stroke-linecap: square"/>
    </g>
    <g id="text_16">
     <!-- qc -->
     <g transform="translate(94.6 58.070437) scale(0.1 -0.1)">
      <defs>
       <path id="DejaVuSans-71" d="M 947 1747 
Q 947 1113 1208 752 
Q 1469 391 1925 391 
Q 2381 391 2643 752 
Q 2906 1113 2906 1747 
Q 2906 2381 2643 2742 
Q 2381 3103 1925 3103 
Q 1469 3103 1208 2742 
Q 947 2381 947 1747 
z
M 2906 525 
Q 2725 213 2448 61 
Q 2172 -91 1784 -91 
Q 1150 -91 751 415 
Q 353 922 353 1747 
Q 353 2572 751 3078 
Q 1150 3584 1784 3584 
Q 2172 3584 2448 3432 
Q 2725 3281 2906 2969 
L 2906 3500 
L 3481 3500 
L 3481 -1331 
L 2906 -1331 
L 2906 525 
z
" transform="scale(0.015625)"/>
       <path id="DejaVuSans-63" d="M 3122 3366 
L 3122 2828 
Q 2878 2963 2633 3030 
Q 2388 3097 2138 3097 
Q 1578 3097 1268 2742 
Q 959 2388 959 1747 
Q 959 1106 1268 751 
Q 1578 397 2138 397 
Q 2388 397 2633 464 
Q 2878 531 3122 666 
L 3122 134 
Q 2881 22 2623 -34 
Q 2366 -91 2075 -91 
Q 1284 -91 818 406 
Q 353 903 353 1747 
Q 353 2603 823 3093 
Q 1294 3584 2113 3584 
Q 2378 3584 2631 3529 
Q 2884 3475 3122 3366 
z
" transform="scale(0.015625)"/>
      </defs>
      <use xlink:href="#DejaVuSans-71"/>
      <use xlink:href="#DejaVuSans-63" x="63.476562"/>
     </g>
    </g>
    <g id="line2d_17">
     <path d="M 66.6 69.248562 
L 76.6 69.248562 
L 86.6 69.248562 
" style="fill: none; stroke: #ff7f0e; stroke-width: 1.5; stroke-linecap: square"/>
    </g>
    <g id="text_17">
     <!-- Trotter -->
     <g transform="translate(94.6 72.748562) scale(0.1 -0.1)">
      <defs>
       <path id="DejaVuSans-54" d="M -19 4666 
L 3928 4666 
L 3928 4134 
L 2272 4134 
L 2272 0 
L 1638 0 
L 1638 4134 
L -19 4134 
L -19 4666 
z
" transform="scale(0.015625)"/>
       <path id="DejaVuSans-72" d="M 2631 2963 
Q 2534 3019 2420 3045 
Q 2306 3072 2169 3072 
Q 1681 3072 1420 2755 
Q 1159 2438 1159 1844 
L 1159 0 
L 581 0 
L 581 3500 
L 1159 3500 
L 1159 2956 
Q 1341 3275 1631 3429 
Q 1922 3584 2338 3584 
Q 2397 3584 2469 3576 
Q 2541 3569 2628 3553 
L 2631 2963 
z
" transform="scale(0.015625)"/>
       <path id="DejaVuSans-6f" d="M 1959 3097 
Q 1497 3097 1228 2736 
Q 959 2375 959 1747 
Q 959 1119 1226 758 
Q 1494 397 1959 397 
Q 2419 397 2687 759 
Q 2956 1122 2956 1747 
Q 2956 2369 2687 2733 
Q 2419 3097 1959 3097 
z
M 1959 3584 
Q 2709 3584 3137 3096 
Q 3566 2609 3566 1747 
Q 3566 888 3137 398 
Q 2709 -91 1959 -91 
Q 1206 -91 779 398 
Q 353 888 353 1747 
Q 353 2609 779 3096 
Q 1206 3584 1959 3584 
z
" transform="scale(0.015625)"/>
       <path id="DejaVuSans-65" d="M 3597 1894 
L 3597 1613 
L 953 1613 
Q 991 1019 1311 708 
Q 1631 397 2203 397 
Q 2534 397 2845 478 
Q 3156 559 3463 722 
L 3463 178 
Q 3153 47 2828 -22 
Q 2503 -91 2169 -91 
Q 1331 -91 842 396 
Q 353 884 353 1716 
Q 353 2575 817 3079 
Q 1281 3584 2069 3584 
Q 2775 3584 3186 3129 
Q 3597 2675 3597 1894 
z
M 3022 2063 
Q 3016 2534 2758 2815 
Q 2500 3097 2075 3097 
Q 1594 3097 1305 2825 
Q 1016 2553 972 2059 
L 3022 2063 
z
" transform="scale(0.015625)"/>
      </defs>
      <use xlink:href="#DejaVuSans-54"/>
      <use xlink:href="#DejaVuSans-72" x="46.333984"/>
      <use xlink:href="#DejaVuSans-6f" x="85.197266"/>
      <use xlink:href="#DejaVuSans-74" x="146.378906"/>
      <use xlink:href="#DejaVuSans-74" x="185.587891"/>
      <use xlink:href="#DejaVuSans-65" x="224.796875"/>
      <use xlink:href="#DejaVuSans-72" x="286.320312"/>
     </g>
    </g>
   </g>
  </g>
 </g>
 <defs>
  <clipPath id="p5bf16fa08d">
   <rect x="57.6" y="41.472" width="357.12" height="266.112"/>
  </clipPath>
 </defs>
</svg>
