<?xml version="1.0" encoding="utf-8" standalone="no"?>
<!DOCTYPE svg PUBLIC "-//W3C//DTD SVG 1.1//EN"
  "http://www.w3.org/Graphics/SVG/1.1/DTD/svg11.dtd">
<svg xmlns:xlink="http://www.w3.org/1999/xlink" width="460.8pt" height="345.6pt" viewBox="0 0 460.8 345.6" xmlns="http://www.w3.org/2000/svg" version="1.1">
 <metadata>
  <rdf:RDF xmlns:dc="http://purl.org/dc/elements/1.1/" xmlns:cc="http://creativecommons.org/ns#" xmlns:rdf="http://www.w3.org/1999/02/22-rdf-syntax-ns#">
   <cc:Work>
    <dc:type rdf:resource="http://purl.org/dc/dcmitype/StillImage"/>
    <dc:date>2024-08-23T15:01:26.785026</dc:date>
    <dc:format>image/svg+xml</dc:format>
    <dc:creator>
     <cc:Agent>
      <dc:title>Matplotlib v3.7.1, https://matplotlib.org/</dc:title>
     </cc:Agent>
    </dc:creator>
   </cc:Work>
  </rdf:RDF>
 </metadata>
 <defs>
  <style type="text/css">*{stroke-linejoin: round; stroke-linecap: butt}</style>
 </defs>
 <g id="figure_1">
  <g id="patch_1">
   <path d="M 0 345.6 
L 460.8 345.6 
L 460.8 0 
L 0 0 
z
" style="fill: #ffffff"/>
  </g>
  <g id="axes_1">
   <g id="patch_2">
    <path d="M 57.6 307.584 
L 414.72 307.584 
L 414.72 41.472 
L 57.6 41.472 
z
" style="fill: #ffffff"/>
   </g>
   <g id="matplotlib.axis_1">
    <g id="xtick_1">
     <g id="line2d_1">
      <defs>
       <path id="m0c88197006" d="M 0 0 
L 0 3.5 
" style="stroke: #000000; stroke-width: 0.8"/>
      </defs>
      <g>
       <use xlink:href="#m0c88197006" x="73.832727" y="307.584" style="stroke: #000000; stroke-width: 0.8"/>
      </g>
     </g>
     <g id="text_1">
      <!-- 0 -->
      <g transform="translate(70.651477 322.182437) scale(0.1 -0.1)">
       <defs>
        <path id="DejaVuSans-30" d="M 2034 4250 
Q 1547 4250 1301 3770 
Q 1056 3291 1056 2328 
Q 1056 1369 1301 889 
Q 1547 409 2034 409 
Q 2525 409 2770 889 
Q 3016 1369 3016 2328 
Q 3016 3291 2770 3770 
Q 2525 4250 2034 4250 
z
M 2034 4750 
Q 2819 4750 3233 4129 
Q 3647 3509 3647 2328 
Q 3647 1150 3233 529 
Q 2819 -91 2034 -91 
Q 1250 -91 836 529 
Q 422 1150 422 2328 
Q 422 3509 836 4129 
Q 1250 4750 2034 4750 
z
" transform="scale(0.015625)"/>
       </defs>
       <use xlink:href="#DejaVuSans-30"/>
      </g>
     </g>
    </g>
    <g id="xtick_2">
     <g id="line2d_2">
      <g>
       <use xlink:href="#m0c88197006" x="137.303802" y="307.584" style="stroke: #000000; stroke-width: 0.8"/>
      </g>
     </g>
     <g id="text_2">
      <!-- 200 -->
      <g transform="translate(127.760052 322.182437) scale(0.1 -0.1)">
       <defs>
        <path id="DejaVuSans-32" d="M 1228 531 
L 3431 531 
L 3431 0 
L 469 0 
L 469 531 
Q 828 903 1448 1529 
Q 2069 2156 2228 2338 
Q 2531 2678 2651 2914 
Q 2772 3150 2772 3378 
Q 2772 3750 2511 3984 
Q 2250 4219 1831 4219 
Q 1534 4219 1204 4116 
Q 875 4013 500 3803 
L 500 4441 
Q 881 4594 1212 4672 
Q 1544 4750 1819 4750 
Q 2544 4750 2975 4387 
Q 3406 4025 3406 3419 
Q 3406 3131 3298 2873 
Q 3191 2616 2906 2266 
Q 2828 2175 2409 1742 
Q 1991 1309 1228 531 
z
" transform="scale(0.015625)"/>
       </defs>
       <use xlink:href="#DejaVuSans-32"/>
       <use xlink:href="#DejaVuSans-30" x="63.623047"/>
       <use xlink:href="#DejaVuSans-30" x="127.246094"/>
      </g>
     </g>
    </g>
    <g id="xtick_3">
     <g id="line2d_3">
      <g>
       <use xlink:href="#m0c88197006" x="200.774876" y="307.584" style="stroke: #000000; stroke-width: 0.8"/>
      </g>
     </g>
     <g id="text_3">
      <!-- 400 -->
      <g transform="translate(191.231126 322.182437) scale(0.1 -0.1)">
       <defs>
        <path id="DejaVuSans-34" d="M 2419 4116 
L 825 1625 
L 2419 1625 
L 2419 4116 
z
M 2253 4666 
L 3047 4666 
L 3047 1625 
L 3713 1625 
L 3713 1100 
L 3047 1100 
L 3047 0 
L 2419 0 
L 2419 1100 
L 313 1100 
L 313 1709 
L 2253 4666 
z
" transform="scale(0.015625)"/>
       </defs>
       <use xlink:href="#DejaVuSans-34"/>
       <use xlink:href="#DejaVuSans-30" x="63.623047"/>
       <use xlink:href="#DejaVuSans-30" x="127.246094"/>
      </g>
     </g>
    </g>
    <g id="xtick_4">
     <g id="line2d_4">
      <g>
       <use xlink:href="#m0c88197006" x="264.24595" y="307.584" style="stroke: #000000; stroke-width: 0.8"/>
      </g>
     </g>
     <g id="text_4">
      <!-- 600 -->
      <g transform="translate(254.7022 322.182437) scale(0.1 -0.1)">
       <defs>
        <path id="DejaVuSans-36" d="M 2113 2584 
Q 1688 2584 1439 2293 
Q 1191 2003 1191 1497 
Q 1191 994 1439 701 
Q 1688 409 2113 409 
Q 2538 409 2786 701 
Q 3034 994 3034 1497 
Q 3034 2003 2786 2293 
Q 2538 2584 2113 2584 
z
M 3366 4563 
L 3366 3988 
Q 3128 4100 2886 4159 
Q 2644 4219 2406 4219 
Q 1781 4219 1451 3797 
Q 1122 3375 1075 2522 
Q 1259 2794 1537 2939 
Q 1816 3084 2150 3084 
Q 2853 3084 3261 2657 
Q 3669 2231 3669 1497 
Q 3669 778 3244 343 
Q 2819 -91 2113 -91 
Q 1303 -91 875 529 
Q 447 1150 447 2328 
Q 447 3434 972 4092 
Q 1497 4750 2381 4750 
Q 2619 4750 2861 4703 
Q 3103 4656 3366 4563 
z
" transform="scale(0.015625)"/>
       </defs>
       <use xlink:href="#DejaVuSans-36"/>
       <use xlink:href="#DejaVuSans-30" x="63.623047"/>
       <use xlink:href="#DejaVuSans-30" x="127.246094"/>
      </g>
     </g>
    </g>
    <g id="xtick_5">
     <g id="line2d_5">
      <g>
       <use xlink:href="#m0c88197006" x="327.717025" y="307.584" style="stroke: #000000; stroke-width: 0.8"/>
      </g>
     </g>
     <g id="text_5">
      <!-- 800 -->
      <g transform="translate(318.173275 322.182437) scale(0.1 -0.1)">
       <defs>
        <path id="DejaVuSans-38" d="M 2034 2216 
Q 1584 2216 1326 1975 
Q 1069 1734 1069 1313 
Q 1069 891 1326 650 
Q 1584 409 2034 409 
Q 2484 409 2743 651 
Q 3003 894 3003 1313 
Q 3003 1734 2745 1975 
Q 2488 2216 2034 2216 
z
M 1403 2484 
Q 997 2584 770 2862 
Q 544 3141 544 3541 
Q 544 4100 942 4425 
Q 1341 4750 2034 4750 
Q 2731 4750 3128 4425 
Q 3525 4100 3525 3541 
Q 3525 3141 3298 2862 
Q 3072 2584 2669 2484 
Q 3125 2378 3379 2068 
Q 3634 1759 3634 1313 
Q 3634 634 3220 271 
Q 2806 -91 2034 -91 
Q 1263 -91 848 271 
Q 434 634 434 1313 
Q 434 1759 690 2068 
Q 947 2378 1403 2484 
z
M 1172 3481 
Q 1172 3119 1398 2916 
Q 1625 2713 2034 2713 
Q 2441 2713 2670 2916 
Q 2900 3119 2900 3481 
Q 2900 3844 2670 4047 
Q 2441 4250 2034 4250 
Q 1625 4250 1398 4047 
Q 1172 3844 1172 3481 
z
" transform="scale(0.015625)"/>
       </defs>
       <use xlink:href="#DejaVuSans-38"/>
       <use xlink:href="#DejaVuSans-30" x="63.623047"/>
       <use xlink:href="#DejaVuSans-30" x="127.246094"/>
      </g>
     </g>
    </g>
    <g id="xtick_6">
     <g id="line2d_6">
      <g>
       <use xlink:href="#m0c88197006" x="391.188099" y="307.584" style="stroke: #000000; stroke-width: 0.8"/>
      </g>
     </g>
     <g id="text_6">
      <!-- 1000 -->
      <g transform="translate(378.463099 322.182437) scale(0.1 -0.1)">
       <defs>
        <path id="DejaVuSans-31" d="M 794 531 
L 1825 531 
L 1825 4091 
L 703 3866 
L 703 4441 
L 1819 4666 
L 2450 4666 
L 2450 531 
L 3481 531 
L 3481 0 
L 794 0 
L 794 531 
z
" transform="scale(0.015625)"/>
       </defs>
       <use xlink:href="#DejaVuSans-31"/>
       <use xlink:href="#DejaVuSans-30" x="63.623047"/>
       <use xlink:href="#DejaVuSans-30" x="127.246094"/>
       <use xlink:href="#DejaVuSans-30" x="190.869141"/>
      </g>
     </g>
    </g>
    <g id="text_7">
     <!-- n -->
     <g transform="translate(232.99125 335.860562) scale(0.1 -0.1)">
      <defs>
       <path id="DejaVuSans-6e" d="M 3513 2113 
L 3513 0 
L 2938 0 
L 2938 2094 
Q 2938 2591 2744 2837 
Q 2550 3084 2163 3084 
Q 1697 3084 1428 2787 
Q 1159 2491 1159 1978 
L 1159 0 
L 581 0 
L 581 3500 
L 1159 3500 
L 1159 2956 
Q 1366 3272 1645 3428 
Q 1925 3584 2291 3584 
Q 2894 3584 3203 3211 
Q 3513 2838 3513 2113 
z
" transform="scale(0.015625)"/>
      </defs>
      <use xlink:href="#DejaVuSans-6e"/>
     </g>
    </g>
   </g>
   <g id="matplotlib.axis_2">
    <g id="ytick_1">
     <g id="line2d_7">
      <defs>
       <path id="ma71928d727" d="M 0 0 
L -3.5 0 
" style="stroke: #000000; stroke-width: 0.8"/>
      </defs>
      <g>
       <use xlink:href="#ma71928d727" x="57.6" y="298.651397" style="stroke: #000000; stroke-width: 0.8"/>
      </g>
     </g>
     <g id="text_8">
      <!-- −8 -->
      <g transform="translate(35.857813 302.450615) scale(0.1 -0.1)">
       <defs>
        <path id="DejaVuSans-2212" d="M 678 2272 
L 4684 2272 
L 4684 1741 
L 678 1741 
L 678 2272 
z
" transform="scale(0.015625)"/>
       </defs>
       <use xlink:href="#DejaVuSans-2212"/>
       <use xlink:href="#DejaVuSans-38" x="83.789062"/>
      </g>
     </g>
    </g>
    <g id="ytick_2">
     <g id="line2d_8">
      <g>
       <use xlink:href="#ma71928d727" x="57.6" y="267.721773" style="stroke: #000000; stroke-width: 0.8"/>
      </g>
     </g>
     <g id="text_9">
      <!-- −6 -->
      <g transform="translate(35.857813 271.520992) scale(0.1 -0.1)">
       <use xlink:href="#DejaVuSans-2212"/>
       <use xlink:href="#DejaVuSans-36" x="83.789062"/>
      </g>
     </g>
    </g>
    <g id="ytick_3">
     <g id="line2d_9">
      <g>
       <use xlink:href="#ma71928d727" x="57.6" y="236.792149" style="stroke: #000000; stroke-width: 0.8"/>
      </g>
     </g>
     <g id="text_10">
      <!-- −4 -->
      <g transform="translate(35.857813 240.591368) scale(0.1 -0.1)">
       <use xlink:href="#DejaVuSans-2212"/>
       <use xlink:href="#DejaVuSans-34" x="83.789062"/>
      </g>
     </g>
    </g>
    <g id="ytick_4">
     <g id="line2d_10">
      <g>
       <use xlink:href="#ma71928d727" x="57.6" y="205.862525" style="stroke: #000000; stroke-width: 0.8"/>
      </g>
     </g>
     <g id="text_11">
      <!-- −2 -->
      <g transform="translate(35.857813 209.661744) scale(0.1 -0.1)">
       <use xlink:href="#DejaVuSans-2212"/>
       <use xlink:href="#DejaVuSans-32" x="83.789062"/>
      </g>
     </g>
    </g>
    <g id="ytick_5">
     <g id="line2d_11">
      <g>
       <use xlink:href="#ma71928d727" x="57.6" y="174.932901" style="stroke: #000000; stroke-width: 0.8"/>
      </g>
     </g>
     <g id="text_12">
      <!-- 0 -->
      <g transform="translate(44.2375 178.73212) scale(0.1 -0.1)">
       <use xlink:href="#DejaVuSans-30"/>
      </g>
     </g>
    </g>
    <g id="ytick_6">
     <g id="line2d_12">
      <g>
       <use xlink:href="#ma71928d727" x="57.6" y="144.003278" style="stroke: #000000; stroke-width: 0.8"/>
      </g>
     </g>
     <g id="text_13">
      <!-- 2 -->
      <g transform="translate(44.2375 147.802496) scale(0.1 -0.1)">
       <use xlink:href="#DejaVuSans-32"/>
      </g>
     </g>
    </g>
    <g id="ytick_7">
     <g id="line2d_13">
      <g>
       <use xlink:href="#ma71928d727" x="57.6" y="113.073654" style="stroke: #000000; stroke-width: 0.8"/>
      </g>
     </g>
     <g id="text_14">
      <!-- 4 -->
      <g transform="translate(44.2375 116.872873) scale(0.1 -0.1)">
       <use xlink:href="#DejaVuSans-34"/>
      </g>
     </g>
    </g>
    <g id="ytick_8">
     <g id="line2d_14">
      <g>
       <use xlink:href="#ma71928d727" x="57.6" y="82.14403" style="stroke: #000000; stroke-width: 0.8"/>
      </g>
     </g>
     <g id="text_15">
      <!-- 6 -->
      <g transform="translate(44.2375 85.943249) scale(0.1 -0.1)">
       <use xlink:href="#DejaVuSans-36"/>
      </g>
     </g>
    </g>
    <g id="ytick_9">
     <g id="line2d_15">
      <g>
       <use xlink:href="#ma71928d727" x="57.6" y="51.214406" style="stroke: #000000; stroke-width: 0.8"/>
      </g>
     </g>
     <g id="text_16">
      <!-- 8 -->
      <g transform="translate(44.2375 55.013625) scale(0.1 -0.1)">
       <use xlink:href="#DejaVuSans-38"/>
      </g>
     </g>
    </g>
    <g id="text_17">
     <!-- E*t -->
     <g transform="translate(29.778125 182.147531) rotate(-90) scale(0.1 -0.1)">
      <defs>
       <path id="DejaVuSans-45" d="M 628 4666 
L 3578 4666 
L 3578 4134 
L 1259 4134 
L 1259 2753 
L 3481 2753 
L 3481 2222 
L 1259 2222 
L 1259 531 
L 3634 531 
L 3634 0 
L 628 0 
L 628 4666 
z
" transform="scale(0.015625)"/>
       <path id="DejaVuSans-2a" d="M 3009 3897 
L 1888 3291 
L 3009 2681 
L 2828 2375 
L 1778 3009 
L 1778 1831 
L 1422 1831 
L 1422 3009 
L 372 2375 
L 191 2681 
L 1313 3291 
L 191 3897 
L 372 4206 
L 1422 3572 
L 1422 4750 
L 1778 4750 
L 1778 3572 
L 2828 4206 
L 3009 3897 
z
" transform="scale(0.015625)"/>
       <path id="DejaVuSans-74" d="M 1172 4494 
L 1172 3500 
L 2356 3500 
L 2356 3053 
L 1172 3053 
L 1172 1153 
Q 1172 725 1289 603 
Q 1406 481 1766 481 
L 2356 481 
L 2356 0 
L 1766 0 
Q 1100 0 847 248 
Q 594 497 594 1153 
L 594 3053 
L 172 3053 
L 172 3500 
L 594 3500 
L 594 4494 
L 1172 4494 
z
" transform="scale(0.015625)"/>
      </defs>
      <use xlink:href="#DejaVuSans-45"/>
      <use xlink:href="#DejaVuSans-2a" x="63.183594"/>
      <use xlink:href="#DejaVuSans-74" x="113.183594"/>
     </g>
    </g>
   </g>
   <g id="line2d_16">
    <path d="M 73.832727 295.488 
L 74.467438 295.43099 
L 75.419504 294.756304 
L 75.73686 294.331808 
L 76.054215 293.682688 
L 76.37157 293.659609 
L 76.688926 293.502399 
L 77.006281 292.854369 
L 77.323636 292.808194 
L 78.275702 291.076025 
L 78.593058 291.014444 
L 78.910413 290.745519 
L 79.227769 290.273466 
L 79.545124 290.063285 
L 79.862479 289.502564 
L 80.179835 288.541367 
L 80.49719 288.365377 
L 80.814545 288.010284 
L 81.449256 286.560565 
L 82.083967 286.207357 
L 83.353388 284.91283 
L 83.670744 284.08123 
L 83.988099 284.069869 
L 84.305455 283.82102 
L 84.62281 283.764051 
L 84.940165 283.478989 
L 85.257521 282.555211 
L 85.574876 282.349022 
L 86.209587 282.240766 
L 86.526942 281.704982 
L 86.844298 281.41756 
L 87.161653 281.403411 
L 87.479008 280.435715 
L 87.796364 280.089144 
L 89.065785 279.671427 
L 89.38314 278.575547 
L 89.700496 278.208439 
L 90.017851 277.204514 
L 90.969917 276.681489 
L 91.921983 275.197372 
L 92.556694 275.106279 
L 93.191405 274.736538 
L 93.50876 273.910048 
L 94.143471 273.374387 
L 94.460826 272.422766 
L 94.778182 272.394749 
L 95.095537 272.185773 
L 95.730248 271.02388 
L 96.364959 270.81 
L 96.682314 270.598516 
L 96.999669 270.585613 
L 97.63438 269.253289 
L 97.951736 269.083104 
L 98.269091 269.077914 
L 98.586446 268.804595 
L 98.903802 268.780614 
L 100.173223 266.7273 
L 100.490579 266.584383 
L 100.807934 265.980713 
L 101.125289 265.830052 
L 101.442645 265.423362 
L 101.76 265.359895 
L 102.077355 265.10459 
L 102.712066 263.93194 
L 103.346777 263.699571 
L 103.664132 262.629826 
L 103.981488 262.092415 
L 104.298843 261.967581 
L 104.933554 261.210921 
L 105.250909 261.151178 
L 105.568264 260.481428 
L 106.520331 259.990937 
L 106.837686 259.978875 
L 107.472397 259.720598 
L 108.107107 258.913821 
L 108.424463 258.741687 
L 108.741818 258.340821 
L 109.376529 258.17402 
L 110.64595 256.546872 
L 110.963306 256.490129 
L 111.598017 255.643459 
L 112.232727 255.053048 
L 112.550083 255.012828 
L 112.867438 254.606783 
L 113.184793 254.450741 
L 113.502149 253.524646 
L 113.819504 253.210404 
L 114.13686 253.167032 
L 114.77157 252.32958 
L 115.088926 252.31044 
L 115.406281 251.735919 
L 115.723636 251.689215 
L 116.040992 251.008239 
L 116.675702 250.845745 
L 117.310413 250.505438 
L 117.945124 249.60531 
L 118.262479 249.233443 
L 119.214545 249.156393 
L 119.531901 248.484341 
L 120.483967 247.860811 
L 121.118678 246.988786 
L 121.436033 246.968937 
L 122.070744 246.030667 
L 122.388099 245.924917 
L 122.705455 245.503922 
L 123.340165 245.295049 
L 123.657521 244.334649 
L 124.292231 244.119831 
L 124.609587 243.857796 
L 125.244298 243.807444 
L 125.561653 243.66902 
L 125.879008 242.888084 
L 126.196364 242.622796 
L 127.465785 242.153754 
L 128.100496 241.155672 
L 128.417851 241.058243 
L 128.735207 240.710292 
L 129.687273 240.653047 
L 130.639339 239.137772 
L 131.27405 238.944108 
L 131.591405 238.86455 
L 132.860826 238.128123 
L 133.495537 238.085756 
L 133.812893 237.248378 
L 134.130248 237.179616 
L 134.447603 236.99514 
L 135.082314 236.361266 
L 135.399669 236.323103 
L 135.717025 235.640687 
L 136.03438 235.593454 
L 136.351736 235.067838 
L 136.986446 234.669177 
L 137.621157 233.860661 
L 137.938512 233.835653 
L 138.573223 233.586655 
L 139.207934 233.4771 
L 139.842645 233.308168 
L 140.794711 232.772557 
L 141.112066 232.6665 
L 141.429421 232.281695 
L 142.064132 232.031604 
L 142.698843 231.942323 
L 143.016198 231.504363 
L 143.333554 231.434055 
L 143.650909 231.021969 
L 144.28562 230.869556 
L 144.602975 230.476594 
L 144.920331 230.312605 
L 145.237686 230.274314 
L 145.555041 229.688584 
L 146.507107 229.510124 
L 147.141818 229.153384 
L 147.459174 228.821985 
L 147.776529 228.079386 
L 148.093884 227.906128 
L 148.41124 227.895414 
L 149.680661 227.277383 
L 150.632727 226.599047 
L 151.267438 226.242761 
L 151.584793 225.802074 
L 151.902149 225.778658 
L 152.219504 225.283217 
L 153.488926 224.765007 
L 153.806281 224.716144 
L 154.440992 224.291913 
L 154.758347 224.278342 
L 155.075702 223.969497 
L 155.393058 223.483832 
L 155.710413 223.290955 
L 156.345124 223.082946 
L 156.979835 223.004379 
L 157.29719 222.986277 
L 158.566612 222.403321 
L 158.883967 222.326825 
L 159.518678 221.817437 
L 160.788099 221.513601 
L 161.105455 221.031445 
L 162.057521 220.629144 
L 162.374876 220.195024 
L 162.692231 220.191269 
L 163.009587 220.060713 
L 163.326942 219.545186 
L 163.961653 219.113596 
L 164.596364 217.839584 
L 164.913719 217.789421 
L 165.231074 217.526173 
L 165.865785 217.421743 
L 166.500496 216.7882 
L 166.817851 216.721569 
L 167.135207 216.299294 
L 167.452562 216.102532 
L 167.769917 216.086602 
L 168.721983 215.61712 
L 169.039339 215.614758 
L 169.67405 214.973866 
L 170.626116 214.740866 
L 171.260826 214.365267 
L 171.895537 214.173374 
L 172.530248 213.521361 
L 173.164959 213.338695 
L 175.386446 212.701138 
L 175.703802 212.477084 
L 176.021157 212.049475 
L 176.655868 211.807925 
L 177.290579 211.744118 
L 177.607934 211.64218 
L 177.925289 211.167408 
L 178.242645 211.029872 
L 178.56 210.71516 
L 179.194711 210.600648 
L 179.512066 210.325305 
L 180.146777 210.289806 
L 180.464132 209.883656 
L 181.098843 209.725704 
L 181.416198 209.236197 
L 182.68562 209.05434 
L 183.002975 208.935686 
L 183.320331 208.499155 
L 183.637686 208.404759 
L 183.955041 207.973087 
L 184.589752 207.721081 
L 186.176529 207.325059 
L 186.81124 206.322681 
L 187.763306 205.944068 
L 188.398017 205.840378 
L 189.032727 205.344021 
L 189.350083 205.330556 
L 189.984793 204.67563 
L 191.254215 204.549294 
L 192.206281 203.941082 
L 192.523636 203.842828 
L 192.840992 203.626658 
L 193.158347 203.222374 
L 194.745124 203.0753 
L 195.69719 202.605599 
L 196.649256 202.025761 
L 196.966612 201.801177 
L 198.236033 201.645475 
L 198.553388 200.888799 
L 198.870744 200.87266 
L 199.505455 200.586008 
L 199.82281 200.456187 
L 200.457521 199.622087 
L 201.409587 199.284982 
L 201.726942 198.738012 
L 202.679008 198.606055 
L 203.313719 197.88538 
L 204.58314 197.519087 
L 204.900496 197.12085 
L 205.217851 197.112832 
L 206.169917 196.7388 
L 207.121983 195.767964 
L 207.756694 195.628535 
L 208.07405 195.106143 
L 209.343471 194.658704 
L 209.978182 193.877536 
L 210.612893 193.63851 
L 211.564959 193.510441 
L 211.882314 193.460127 
L 212.199669 193.258206 
L 213.469091 193.079249 
L 213.786446 192.895107 
L 214.103802 192.876423 
L 214.738512 192.226778 
L 215.373223 192.096028 
L 216.325289 191.939372 
L 217.277355 191.62792 
L 218.546777 191.378974 
L 219.498843 191.050271 
L 219.816198 190.654106 
L 220.450909 190.363968 
L 220.768264 190.348331 
L 221.08562 190.085816 
L 222.037686 189.949213 
L 222.672397 189.483676 
L 222.989752 189.367457 
L 223.624463 188.62029 
L 224.576529 188.4898 
L 225.21124 188.059991 
L 225.84595 187.86351 
L 226.798017 187.598791 
L 227.115372 187.204959 
L 227.432727 187.151485 
L 227.750083 186.903874 
L 228.384793 186.725669 
L 229.019504 186.425451 
L 230.288926 185.973319 
L 230.923636 185.508427 
L 231.875702 185.257667 
L 232.510413 184.89044 
L 232.827769 184.647034 
L 233.145124 184.585043 
L 234.09719 183.995301 
L 234.731901 183.715417 
L 236.001322 183.399094 
L 236.318678 182.979239 
L 236.953388 182.870324 
L 237.270744 182.689576 
L 237.588099 182.665888 
L 238.22281 182.20793 
L 238.857521 182.113566 
L 239.174876 181.880923 
L 240.126942 181.788062 
L 240.444298 181.549265 
L 240.761653 181.509618 
L 241.079008 181.256902 
L 241.713719 181.18662 
L 242.031074 180.862844 
L 243.617851 180.153345 
L 245.204628 179.86383 
L 245.521983 179.398445 
L 245.839339 179.140038 
L 246.47405 178.271896 
L 246.791405 178.101907 
L 247.10876 177.757988 
L 247.426116 177.66161 
L 248.378182 176.668882 
L 248.695537 175.974892 
L 249.647603 175.766178 
L 250.282314 175.422084 
L 251.23438 175.236838 
L 252.503802 174.034243 
L 254.090579 173.673119 
L 254.407934 172.85472 
L 254.725289 172.39276 
L 255.042645 172.203835 
L 255.36 172.196817 
L 255.994711 171.974184 
L 256.629421 171.103852 
L 257.581488 170.795268 
L 257.898843 170.495471 
L 258.533554 170.460356 
L 259.802975 169.803734 
L 260.120331 169.428785 
L 260.755041 169.083922 
L 261.389752 169.050258 
L 263.293884 168.296207 
L 263.928595 167.960174 
L 264.24595 167.887624 
L 264.563306 167.575302 
L 265.515372 167.378591 
L 265.832727 167.272348 
L 266.150083 166.945693 
L 267.419504 166.456752 
L 267.73686 166.323035 
L 268.054215 166.045314 
L 268.37157 166.0421 
L 269.323636 165.48864 
L 269.640992 165.362173 
L 270.275702 164.995402 
L 270.910413 164.782828 
L 271.862479 163.867698 
L 273.449256 163.410187 
L 274.718678 163.176199 
L 275.036033 162.276359 
L 275.988099 162.224501 
L 276.305455 161.954156 
L 277.574876 161.629056 
L 279.796364 160.68527 
L 280.74843 160.336111 
L 281.065785 159.972276 
L 281.38314 159.868895 
L 281.700496 159.580442 
L 282.017851 159.556405 
L 282.969917 159.192102 
L 283.604628 159.07392 
L 284.556694 158.781415 
L 284.87405 157.928297 
L 285.191405 157.810126 
L 285.50876 157.545026 
L 286.143471 157.317858 
L 286.778182 156.682189 
L 287.095537 156.20407 
L 287.730248 156.105798 
L 288.047603 155.712769 
L 288.364959 155.523692 
L 288.682314 155.113396 
L 289.951736 154.420217 
L 290.269091 154.379804 
L 290.586446 154.219242 
L 290.903802 153.596908 
L 292.173223 153.237183 
L 293.125289 152.649544 
L 293.442645 152.061448 
L 293.76 151.945383 
L 294.077355 151.623779 
L 294.394711 151.6102 
L 295.346777 151.341767 
L 295.664132 151.309567 
L 295.981488 150.948455 
L 296.616198 150.84648 
L 298.837686 149.185136 
L 299.155041 149.160359 
L 299.472397 149.019324 
L 300.107107 148.2808 
L 301.693884 147.403126 
L 302.01124 147.093631 
L 302.328595 146.543419 
L 302.963306 146.21493 
L 303.598017 146.184519 
L 305.184793 145.213949 
L 305.502149 145.188314 
L 305.819504 144.773071 
L 306.13686 144.686471 
L 306.454215 144.0795 
L 307.723636 143.59244 
L 308.040992 143.381502 
L 308.358347 143.371803 
L 308.675702 143.118472 
L 309.310413 142.146978 
L 309.627769 142.10199 
L 311.214545 140.942724 
L 311.849256 140.790764 
L 312.166612 139.986161 
L 312.801322 139.729297 
L 313.118678 139.425249 
L 314.070744 139.209133 
L 314.388099 138.41913 
L 315.02281 138.235049 
L 315.340165 137.814978 
L 315.657521 136.744112 
L 315.974876 136.456042 
L 316.609587 135.530483 
L 317.561653 135.15367 
L 318.196364 134.712619 
L 318.513719 134.166127 
L 318.831074 133.941051 
L 319.14843 133.932121 
L 320.417851 133.462549 
L 320.735207 133.141079 
L 321.369917 133.073792 
L 321.687273 132.448989 
L 322.956694 131.994421 
L 323.27405 131.675522 
L 323.591405 131.658123 
L 324.226116 131.082065 
L 324.543471 130.95072 
L 324.860826 130.646263 
L 325.495537 130.335422 
L 325.812893 129.923334 
L 326.130248 129.265407 
L 327.082314 129.132937 
L 327.399669 128.866584 
L 328.03438 127.859544 
L 328.986446 127.487231 
L 329.621157 127.41504 
L 330.890579 126.274237 
L 331.525289 125.78311 
L 331.842645 125.778932 
L 332.16 125.307596 
L 332.794711 125.11851 
L 333.746777 123.478151 
L 334.698843 123.167335 
L 335.016198 122.771192 
L 335.968264 122.370385 
L 336.602975 121.377432 
L 338.824463 120.594598 
L 339.141818 120.126257 
L 339.459174 119.908619 
L 339.776529 119.89275 
L 340.093884 119.29421 
L 341.04595 118.993738 
L 341.363306 118.531009 
L 341.998017 118.337884 
L 342.632727 118.193578 
L 343.267438 116.96436 
L 343.902149 116.464207 
L 344.219504 115.811653 
L 344.53686 115.767228 
L 344.854215 115.574243 
L 345.17157 115.050598 
L 345.488926 114.306332 
L 346.123636 114.215383 
L 346.440992 113.723229 
L 346.758347 112.835395 
L 347.075702 112.825597 
L 347.393058 111.597294 
L 347.710413 111.15369 
L 348.345124 111.014414 
L 348.662479 109.954719 
L 348.979835 109.898621 
L 349.931901 109.311127 
L 350.249256 109.268286 
L 350.566612 108.261739 
L 350.883967 108.189723 
L 351.201322 107.799984 
L 351.518678 107.640751 
L 351.836033 106.775647 
L 352.470744 106.321256 
L 353.105455 105.224585 
L 353.42281 105.040249 
L 354.057521 104.516199 
L 354.374876 104.229276 
L 354.692231 103.735372 
L 355.009587 103.67056 
L 355.326942 103.235205 
L 355.644298 103.091079 
L 356.279008 102.29366 
L 356.913719 101.394055 
L 357.54843 101.254385 
L 357.865785 100.819817 
L 358.18314 100.814977 
L 358.500496 100.596875 
L 358.817851 100.103675 
L 360.404628 99.283161 
L 360.721983 99.255462 
L 361.67405 98.298616 
L 361.991405 98.156991 
L 362.30876 97.781912 
L 362.943471 97.716333 
L 363.260826 97.108388 
L 363.578182 97.005694 
L 363.895537 96.498167 
L 364.212893 96.349108 
L 364.530248 96.323533 
L 364.847603 95.610955 
L 365.799669 94.665481 
L 366.117025 94.605039 
L 367.069091 93.523887 
L 367.703802 93.149968 
L 368.021157 92.941837 
L 368.655868 92.076246 
L 368.973223 91.873684 
L 369.290579 91.806071 
L 369.607934 91.550731 
L 369.925289 91.53857 
L 370.242645 91.22537 
L 370.56 91.16593 
L 370.877355 90.957925 
L 371.194711 90.254754 
L 372.781488 89.420344 
L 373.098843 88.819849 
L 373.416198 88.728299 
L 374.050909 88.187645 
L 374.368264 88.127901 
L 375.002975 87.091853 
L 375.637686 86.65182 
L 376.589752 84.904072 
L 376.907107 83.679658 
L 377.224463 83.099066 
L 378.176529 80.712422 
L 378.493884 80.66268 
L 378.81124 79.561021 
L 379.128595 79.522357 
L 379.763306 78.132935 
L 380.080661 78.045594 
L 380.398017 77.174325 
L 380.715372 76.661717 
L 381.032727 75.915478 
L 381.667438 75.475805 
L 381.984793 74.437747 
L 382.619504 73.77865 
L 382.93686 73.530108 
L 383.254215 73.498815 
L 383.57157 73.250589 
L 383.888926 72.298185 
L 385.158347 71.453235 
L 385.793058 70.957509 
L 386.745124 69.661743 
L 387.062479 69.6482 
L 387.379835 69.50094 
L 387.69719 69.479829 
L 388.014545 69.007969 
L 388.331901 69.000365 
L 388.649256 68.261421 
L 388.966612 68.146311 
L 389.601322 67.484924 
L 389.918678 67.400595 
L 390.236033 66.049255 
L 390.553388 65.900681 
L 390.870744 64.851445 
L 391.82281 64.511039 
L 392.140165 63.29653 
L 392.774876 63.048868 
L 393.092231 62.806009 
L 393.409587 62.112707 
L 393.726942 61.841718 
L 394.044298 61.808496 
L 394.361653 60.635023 
L 394.996364 60.103949 
L 395.313719 59.876462 
L 395.631074 59.789265 
L 395.94843 58.381984 
L 396.58314 58.071384 
L 397.535207 54.367429 
L 397.852562 54.323034 
L 398.487273 53.568 
L 398.487273 53.568 
" clip-path="url(#p832e8f92d2)" style="fill: none; stroke: #1f77b4; stroke-width: 1.5; stroke-linecap: square"/>
   </g>
   <g id="line2d_17">
    <path d="M 73.832727 253.995286 
L 74.150083 244.769556 
L 74.467438 244.769556 
L 74.784793 236.883437 
L 75.102149 235.245378 
L 75.73686 235.245378 
L 76.054215 232.29471 
L 76.37157 227.313574 
L 76.688926 227.007966 
L 77.006281 227.007966 
L 77.323636 226.237222 
L 78.910413 226.237222 
L 79.227769 223.42707 
L 79.545124 223.42707 
L 79.862479 222.409805 
L 80.179835 221.781323 
L 80.49719 221.781323 
L 80.814545 218.673904 
L 81.131901 217.211217 
L 82.083967 217.186067 
L 82.401322 216.320383 
L 86.844298 216.271233 
L 87.161653 215.79723 
L 87.479008 213.545509 
L 87.796364 213.047736 
L 88.113719 212.268214 
L 89.700496 212.268214 
L 90.017851 211.272217 
L 90.652562 211.272217 
L 90.969917 210.115217 
L 91.287273 210.115217 
L 91.604628 209.512511 
L 91.921983 207.962258 
L 99.221157 207.962258 
L 99.538512 207.038515 
L 99.855868 207.038515 
L 100.173223 206.82001 
L 101.76 206.82001 
L 102.077355 205.862525 
L 103.664132 205.862525 
L 103.981488 205.646552 
L 104.298843 205.273215 
L 104.933554 205.273215 
L 105.250909 203.960154 
L 106.202975 203.893978 
L 106.520331 200.930614 
L 107.155041 200.637812 
L 107.472397 200.637812 
L 107.789752 199.955435 
L 109.376529 199.955435 
L 109.693884 198.457842 
L 110.01124 198.457842 
L 110.328595 196.803471 
L 129.369917 196.803403 
L 129.687273 195.86328 
L 130.321983 194.979086 
L 131.27405 194.922714 
L 131.591405 194.15365 
L 131.90876 194.15365 
L 132.226116 193.977945 
L 132.860826 193.977945 
L 133.178182 192.497446 
L 133.495537 192.497446 
L 133.812893 192.187431 
L 135.399669 192.187431 
L 135.717025 190.92489 
L 136.669091 190.397713 
L 163.009587 190.397713 
L 163.326942 189.087358 
L 167.135207 189.087358 
L 167.452562 188.847884 
L 167.769917 188.847884 
L 168.087273 187.226149 
L 168.404628 187.226149 
L 168.721983 186.793278 
L 169.356694 186.793278 
L 169.67405 186.513939 
L 169.991405 185.844873 
L 171.578182 185.844873 
L 172.212893 185.373134 
L 172.530248 185.373134 
L 172.847603 185.173001 
L 180.146777 185.173001 
L 180.464132 184.82852 
L 180.781488 184.82852 
L 181.098843 184.490623 
L 182.68562 184.490623 
L 183.320331 181.338591 
L 185.541818 181.310552 
L 185.859174 181.127419 
L 186.493884 181.127419 
L 186.81124 180.850801 
L 187.128595 180.157614 
L 187.44595 180.157614 
L 187.763306 179.688126 
L 188.080661 179.688126 
L 188.398017 177.728138 
L 188.715372 174.932901 
L 283.604628 174.932901 
L 284.239339 170.177676 
L 284.556694 170.177676 
L 284.87405 169.708189 
L 285.191405 169.708189 
L 285.50876 169.015002 
L 285.826116 168.738384 
L 286.460826 168.738384 
L 286.778182 168.555251 
L 288.999669 168.527212 
L 289.63438 165.37518 
L 291.221157 165.37518 
L 291.538512 165.037283 
L 291.855868 165.037283 
L 292.173223 164.692802 
L 299.472397 164.692802 
L 299.789752 164.492669 
L 300.107107 164.492669 
L 300.741818 164.02093 
L 302.328595 164.02093 
L 302.64595 163.351864 
L 302.963306 163.072525 
L 303.598017 163.072525 
L 303.915372 162.639654 
L 304.232727 162.639654 
L 304.550083 161.017919 
L 304.867438 161.017919 
L 305.184793 160.778445 
L 308.993058 160.778445 
L 309.310413 159.46809 
L 335.968264 159.396218 
L 336.602975 158.940913 
L 336.920331 157.678372 
L 338.507107 157.678372 
L 338.824463 157.368356 
L 339.141818 157.368356 
L 339.459174 155.887857 
L 340.093884 155.887857 
L 340.41124 155.712152 
L 340.728595 155.712152 
L 341.04595 154.943089 
L 341.998017 154.886716 
L 342.315372 154.544491 
L 342.632727 154.002523 
L 342.950083 153.0624 
L 361.991405 153.062332 
L 362.30876 151.407961 
L 362.626116 151.407961 
L 362.943471 149.910368 
L 364.530248 149.910368 
L 364.847603 149.22799 
L 365.164959 149.22799 
L 365.799669 148.935189 
L 366.117025 145.971825 
L 367.069091 145.905649 
L 367.386446 144.592588 
L 368.021157 144.592588 
L 368.655868 144.003278 
L 370.242645 144.003278 
L 370.56 143.045792 
L 372.146777 143.045792 
L 372.464132 142.827287 
L 372.781488 142.827287 
L 373.098843 141.903545 
L 380.398017 141.903545 
L 380.715372 140.353291 
L 381.032727 139.750585 
L 381.350083 139.750585 
L 381.667438 138.593586 
L 382.302149 138.593586 
L 382.619504 137.597588 
L 384.206281 137.597588 
L 384.840992 136.320294 
L 385.158347 134.068573 
L 385.475702 133.59457 
L 389.918678 133.545419 
L 390.236033 132.679736 
L 391.188099 132.654586 
L 391.505455 131.191899 
L 391.82281 128.08448 
L 392.140165 128.08448 
L 392.457521 127.455998 
L 392.774876 126.438733 
L 393.092231 126.438733 
L 393.409587 123.628581 
L 394.996364 123.628581 
L 395.313719 122.857836 
L 395.631074 122.857836 
L 395.94843 122.552229 
L 396.265785 117.571093 
L 396.58314 114.620425 
L 397.217851 114.620425 
L 397.535207 112.982366 
L 397.852562 105.096246 
L 398.169917 105.096246 
L 398.487273 95.870517 
L 398.487273 95.870517 
" clip-path="url(#p832e8f92d2)" style="fill: none; stroke: #ff7f0e; stroke-width: 1.5; stroke-linecap: square"/>
   </g>
   <g id="patch_3">
    <path d="M 57.6 307.584 
L 57.6 41.472 
" style="fill: none; stroke: #000000; stroke-width: 0.8; stroke-linejoin: miter; stroke-linecap: square"/>
   </g>
   <g id="patch_4">
    <path d="M 414.72 307.584 
L 414.72 41.472 
" style="fill: none; stroke: #000000; stroke-width: 0.8; stroke-linejoin: miter; stroke-linecap: square"/>
   </g>
   <g id="patch_5">
    <path d="M 57.6 307.584 
L 414.72 307.584 
" style="fill: none; stroke: #000000; stroke-width: 0.8; stroke-linejoin: miter; stroke-linecap: square"/>
   </g>
   <g id="patch_6">
    <path d="M 57.6 41.472 
L 414.72 41.472 
" style="fill: none; stroke: #000000; stroke-width: 0.8; stroke-linejoin: miter; stroke-linecap: square"/>
   </g>
   <g id="legend_1">
    <g id="patch_7">
     <path d="M 64.6 78.82825 
L 129.342187 78.82825 
Q 131.342187 78.82825 131.342187 76.82825 
L 131.342187 48.472 
Q 131.342187 46.472 129.342187 46.472 
L 64.6 46.472 
Q 62.6 46.472 62.6 48.472 
L 62.6 76.82825 
Q 62.6 78.82825 64.6 78.82825 
z
" style="fill: #ffffff; opacity: 0.8; stroke: #cccccc; stroke-linejoin: miter"/>
    </g>
    <g id="line2d_18">
     <path d="M 66.6 54.570437 
L 76.6 54.570437 
L 86.6 54.570437 
" style="fill: none; stroke: #1f77b4; stroke-width: 1.5; stroke-linecap: square"/>
    </g>
    <g id="text_18">
     <!-- qc -->
     <g transform="translate(94.6 58.070437) scale(0.1 -0.1)">
      <defs>
       <path id="DejaVuSans-71" d="M 947 1747 
Q 947 1113 1208 752 
Q 1469 391 1925 391 
Q 2381 391 2643 752 
Q 2906 1113 2906 1747 
Q 2906 2381 2643 2742 
Q 2381 3103 1925 3103 
Q 1469 3103 1208 2742 
Q 947 2381 947 1747 
z
M 2906 525 
Q 2725 213 2448 61 
Q 2172 -91 1784 -91 
Q 1150 -91 751 415 
Q 353 922 353 1747 
Q 353 2572 751 3078 
Q 1150 3584 1784 3584 
Q 2172 3584 2448 3432 
Q 2725 3281 2906 2969 
L 2906 3500 
L 3481 3500 
L 3481 -1331 
L 2906 -1331 
L 2906 525 
z
" transform="scale(0.015625)"/>
       <path id="DejaVuSans-63" d="M 3122 3366 
L 3122 2828 
Q 2878 2963 2633 3030 
Q 2388 3097 2138 3097 
Q 1578 3097 1268 2742 
Q 959 2388 959 1747 
Q 959 1106 1268 751 
Q 1578 397 2138 397 
Q 2388 397 2633 464 
Q 2878 531 3122 666 
L 3122 134 
Q 2881 22 2623 -34 
Q 2366 -91 2075 -91 
Q 1284 -91 818 406 
Q 353 903 353 1747 
Q 353 2603 823 3093 
Q 1294 3584 2113 3584 
Q 2378 3584 2631 3529 
Q 2884 3475 3122 3366 
z
" transform="scale(0.015625)"/>
      </defs>
      <use xlink:href="#DejaVuSans-71"/>
      <use xlink:href="#DejaVuSans-63" x="63.476562"/>
     </g>
    </g>
    <g id="line2d_19">
     <path d="M 66.6 69.248562 
L 76.6 69.248562 
L 86.6 69.248562 
" style="fill: none; stroke: #ff7f0e; stroke-width: 1.5; stroke-linecap: square"/>
    </g>
    <g id="text_19">
     <!-- Trotter -->
     <g transform="translate(94.6 72.748562) scale(0.1 -0.1)">
      <defs>
       <path id="DejaVuSans-54" d="M -19 4666 
L 3928 4666 
L 3928 4134 
L 2272 4134 
L 2272 0 
L 1638 0 
L 1638 4134 
L -19 4134 
L -19 4666 
z
" transform="scale(0.015625)"/>
       <path id="DejaVuSans-72" d="M 2631 2963 
Q 2534 3019 2420 3045 
Q 2306 3072 2169 3072 
Q 1681 3072 1420 2755 
Q 1159 2438 1159 1844 
L 1159 0 
L 581 0 
L 581 3500 
L 1159 3500 
L 1159 2956 
Q 1341 3275 1631 3429 
Q 1922 3584 2338 3584 
Q 2397 3584 2469 3576 
Q 2541 3569 2628 3553 
L 2631 2963 
z
" transform="scale(0.015625)"/>
       <path id="DejaVuSans-6f" d="M 1959 3097 
Q 1497 3097 1228 2736 
Q 959 2375 959 1747 
Q 959 1119 1226 758 
Q 1494 397 1959 397 
Q 2419 397 2687 759 
Q 2956 1122 2956 1747 
Q 2956 2369 2687 2733 
Q 2419 3097 1959 3097 
z
M 1959 3584 
Q 2709 3584 3137 3096 
Q 3566 2609 3566 1747 
Q 3566 888 3137 398 
Q 2709 -91 1959 -91 
Q 1206 -91 779 398 
Q 353 888 353 1747 
Q 353 2609 779 3096 
Q 1206 3584 1959 3584 
z
" transform="scale(0.015625)"/>
       <path id="DejaVuSans-65" d="M 3597 1894 
L 3597 1613 
L 953 1613 
Q 991 1019 1311 708 
Q 1631 397 2203 397 
Q 2534 397 2845 478 
Q 3156 559 3463 722 
L 3463 178 
Q 3153 47 2828 -22 
Q 2503 -91 2169 -91 
Q 1331 -91 842 396 
Q 353 884 353 1716 
Q 353 2575 817 3079 
Q 1281 3584 2069 3584 
Q 2775 3584 3186 3129 
Q 3597 2675 3597 1894 
z
M 3022 2063 
Q 3016 2534 2758 2815 
Q 2500 3097 2075 3097 
Q 1594 3097 1305 2825 
Q 1016 2553 972 2059 
L 3022 2063 
z
" transform="scale(0.015625)"/>
      </defs>
      <use xlink:href="#DejaVuSans-54"/>
      <use xlink:href="#DejaVuSans-72" x="46.333984"/>
      <use xlink:href="#DejaVuSans-6f" x="85.197266"/>
      <use xlink:href="#DejaVuSans-74" x="146.378906"/>
      <use xlink:href="#DejaVuSans-74" x="185.587891"/>
      <use xlink:href="#DejaVuSans-65" x="224.796875"/>
      <use xlink:href="#DejaVuSans-72" x="286.320312"/>
     </g>
    </g>
   </g>
  </g>
 </g>
 <defs>
  <clipPath id="p832e8f92d2">
   <rect x="57.6" y="41.472" width="357.12" height="266.112"/>
  </clipPath>
 </defs>
</svg>
