<?xml version="1.0" encoding="utf-8" standalone="no"?>
<!DOCTYPE svg PUBLIC "-//W3C//DTD SVG 1.1//EN"
  "http://www.w3.org/Graphics/SVG/1.1/DTD/svg11.dtd">
<svg xmlns:xlink="http://www.w3.org/1999/xlink" width="460.8pt" height="345.6pt" viewBox="0 0 460.8 345.6" xmlns="http://www.w3.org/2000/svg" version="1.1">
 <metadata>
  <rdf:RDF xmlns:dc="http://purl.org/dc/elements/1.1/" xmlns:cc="http://creativecommons.org/ns#" xmlns:rdf="http://www.w3.org/1999/02/22-rdf-syntax-ns#">
   <cc:Work>
    <dc:type rdf:resource="http://purl.org/dc/dcmitype/StillImage"/>
    <dc:date>2024-06-07T10:07:21.596200</dc:date>
    <dc:format>image/svg+xml</dc:format>
    <dc:creator>
     <cc:Agent>
      <dc:title>Matplotlib v3.7.1, https://matplotlib.org/</dc:title>
     </cc:Agent>
    </dc:creator>
   </cc:Work>
  </rdf:RDF>
 </metadata>
 <defs>
  <style type="text/css">*{stroke-linejoin: round; stroke-linecap: butt}</style>
 </defs>
 <g id="figure_1">
  <g id="patch_1">
   <path d="M 0 345.6 
L 460.8 345.6 
L 460.8 0 
L 0 0 
z
" style="fill: #ffffff"/>
  </g>
  <g id="axes_1">
   <g id="patch_2">
    <path d="M 57.6 307.584 
L 414.72 307.584 
L 414.72 41.472 
L 57.6 41.472 
z
" style="fill: #ffffff"/>
   </g>
   <g id="matplotlib.axis_1">
    <g id="xtick_1">
     <g id="line2d_1">
      <defs>
       <path id="m8bb70cf6b8" d="M 0 0 
L 0 3.5 
" style="stroke: #000000; stroke-width: 0.8"/>
      </defs>
      <g>
       <use xlink:href="#m8bb70cf6b8" x="73.832727" y="307.584" style="stroke: #000000; stroke-width: 0.8"/>
      </g>
     </g>
     <g id="text_1">
      <!-- 0 -->
      <g transform="translate(70.651477 322.182437) scale(0.1 -0.1)">
       <defs>
        <path id="DejaVuSans-30" d="M 2034 4250 
Q 1547 4250 1301 3770 
Q 1056 3291 1056 2328 
Q 1056 1369 1301 889 
Q 1547 409 2034 409 
Q 2525 409 2770 889 
Q 3016 1369 3016 2328 
Q 3016 3291 2770 3770 
Q 2525 4250 2034 4250 
z
M 2034 4750 
Q 2819 4750 3233 4129 
Q 3647 3509 3647 2328 
Q 3647 1150 3233 529 
Q 2819 -91 2034 -91 
Q 1250 -91 836 529 
Q 422 1150 422 2328 
Q 422 3509 836 4129 
Q 1250 4750 2034 4750 
z
" transform="scale(0.015625)"/>
       </defs>
       <use xlink:href="#DejaVuSans-30"/>
      </g>
     </g>
    </g>
    <g id="xtick_2">
     <g id="line2d_2">
      <g>
       <use xlink:href="#m8bb70cf6b8" x="137.303802" y="307.584" style="stroke: #000000; stroke-width: 0.8"/>
      </g>
     </g>
     <g id="text_2">
      <!-- 200 -->
      <g transform="translate(127.760052 322.182437) scale(0.1 -0.1)">
       <defs>
        <path id="DejaVuSans-32" d="M 1228 531 
L 3431 531 
L 3431 0 
L 469 0 
L 469 531 
Q 828 903 1448 1529 
Q 2069 2156 2228 2338 
Q 2531 2678 2651 2914 
Q 2772 3150 2772 3378 
Q 2772 3750 2511 3984 
Q 2250 4219 1831 4219 
Q 1534 4219 1204 4116 
Q 875 4013 500 3803 
L 500 4441 
Q 881 4594 1212 4672 
Q 1544 4750 1819 4750 
Q 2544 4750 2975 4387 
Q 3406 4025 3406 3419 
Q 3406 3131 3298 2873 
Q 3191 2616 2906 2266 
Q 2828 2175 2409 1742 
Q 1991 1309 1228 531 
z
" transform="scale(0.015625)"/>
       </defs>
       <use xlink:href="#DejaVuSans-32"/>
       <use xlink:href="#DejaVuSans-30" x="63.623047"/>
       <use xlink:href="#DejaVuSans-30" x="127.246094"/>
      </g>
     </g>
    </g>
    <g id="xtick_3">
     <g id="line2d_3">
      <g>
       <use xlink:href="#m8bb70cf6b8" x="200.774876" y="307.584" style="stroke: #000000; stroke-width: 0.8"/>
      </g>
     </g>
     <g id="text_3">
      <!-- 400 -->
      <g transform="translate(191.231126 322.182437) scale(0.1 -0.1)">
       <defs>
        <path id="DejaVuSans-34" d="M 2419 4116 
L 825 1625 
L 2419 1625 
L 2419 4116 
z
M 2253 4666 
L 3047 4666 
L 3047 1625 
L 3713 1625 
L 3713 1100 
L 3047 1100 
L 3047 0 
L 2419 0 
L 2419 1100 
L 313 1100 
L 313 1709 
L 2253 4666 
z
" transform="scale(0.015625)"/>
       </defs>
       <use xlink:href="#DejaVuSans-34"/>
       <use xlink:href="#DejaVuSans-30" x="63.623047"/>
       <use xlink:href="#DejaVuSans-30" x="127.246094"/>
      </g>
     </g>
    </g>
    <g id="xtick_4">
     <g id="line2d_4">
      <g>
       <use xlink:href="#m8bb70cf6b8" x="264.24595" y="307.584" style="stroke: #000000; stroke-width: 0.8"/>
      </g>
     </g>
     <g id="text_4">
      <!-- 600 -->
      <g transform="translate(254.7022 322.182437) scale(0.1 -0.1)">
       <defs>
        <path id="DejaVuSans-36" d="M 2113 2584 
Q 1688 2584 1439 2293 
Q 1191 2003 1191 1497 
Q 1191 994 1439 701 
Q 1688 409 2113 409 
Q 2538 409 2786 701 
Q 3034 994 3034 1497 
Q 3034 2003 2786 2293 
Q 2538 2584 2113 2584 
z
M 3366 4563 
L 3366 3988 
Q 3128 4100 2886 4159 
Q 2644 4219 2406 4219 
Q 1781 4219 1451 3797 
Q 1122 3375 1075 2522 
Q 1259 2794 1537 2939 
Q 1816 3084 2150 3084 
Q 2853 3084 3261 2657 
Q 3669 2231 3669 1497 
Q 3669 778 3244 343 
Q 2819 -91 2113 -91 
Q 1303 -91 875 529 
Q 447 1150 447 2328 
Q 447 3434 972 4092 
Q 1497 4750 2381 4750 
Q 2619 4750 2861 4703 
Q 3103 4656 3366 4563 
z
" transform="scale(0.015625)"/>
       </defs>
       <use xlink:href="#DejaVuSans-36"/>
       <use xlink:href="#DejaVuSans-30" x="63.623047"/>
       <use xlink:href="#DejaVuSans-30" x="127.246094"/>
      </g>
     </g>
    </g>
    <g id="xtick_5">
     <g id="line2d_5">
      <g>
       <use xlink:href="#m8bb70cf6b8" x="327.717025" y="307.584" style="stroke: #000000; stroke-width: 0.8"/>
      </g>
     </g>
     <g id="text_5">
      <!-- 800 -->
      <g transform="translate(318.173275 322.182437) scale(0.1 -0.1)">
       <defs>
        <path id="DejaVuSans-38" d="M 2034 2216 
Q 1584 2216 1326 1975 
Q 1069 1734 1069 1313 
Q 1069 891 1326 650 
Q 1584 409 2034 409 
Q 2484 409 2743 651 
Q 3003 894 3003 1313 
Q 3003 1734 2745 1975 
Q 2488 2216 2034 2216 
z
M 1403 2484 
Q 997 2584 770 2862 
Q 544 3141 544 3541 
Q 544 4100 942 4425 
Q 1341 4750 2034 4750 
Q 2731 4750 3128 4425 
Q 3525 4100 3525 3541 
Q 3525 3141 3298 2862 
Q 3072 2584 2669 2484 
Q 3125 2378 3379 2068 
Q 3634 1759 3634 1313 
Q 3634 634 3220 271 
Q 2806 -91 2034 -91 
Q 1263 -91 848 271 
Q 434 634 434 1313 
Q 434 1759 690 2068 
Q 947 2378 1403 2484 
z
M 1172 3481 
Q 1172 3119 1398 2916 
Q 1625 2713 2034 2713 
Q 2441 2713 2670 2916 
Q 2900 3119 2900 3481 
Q 2900 3844 2670 4047 
Q 2441 4250 2034 4250 
Q 1625 4250 1398 4047 
Q 1172 3844 1172 3481 
z
" transform="scale(0.015625)"/>
       </defs>
       <use xlink:href="#DejaVuSans-38"/>
       <use xlink:href="#DejaVuSans-30" x="63.623047"/>
       <use xlink:href="#DejaVuSans-30" x="127.246094"/>
      </g>
     </g>
    </g>
    <g id="xtick_6">
     <g id="line2d_6">
      <g>
       <use xlink:href="#m8bb70cf6b8" x="391.188099" y="307.584" style="stroke: #000000; stroke-width: 0.8"/>
      </g>
     </g>
     <g id="text_6">
      <!-- 1000 -->
      <g transform="translate(378.463099 322.182437) scale(0.1 -0.1)">
       <defs>
        <path id="DejaVuSans-31" d="M 794 531 
L 1825 531 
L 1825 4091 
L 703 3866 
L 703 4441 
L 1819 4666 
L 2450 4666 
L 2450 531 
L 3481 531 
L 3481 0 
L 794 0 
L 794 531 
z
" transform="scale(0.015625)"/>
       </defs>
       <use xlink:href="#DejaVuSans-31"/>
       <use xlink:href="#DejaVuSans-30" x="63.623047"/>
       <use xlink:href="#DejaVuSans-30" x="127.246094"/>
       <use xlink:href="#DejaVuSans-30" x="190.869141"/>
      </g>
     </g>
    </g>
    <g id="text_7">
     <!-- n -->
     <g transform="translate(232.99125 335.860562) scale(0.1 -0.1)">
      <defs>
       <path id="DejaVuSans-6e" d="M 3513 2113 
L 3513 0 
L 2938 0 
L 2938 2094 
Q 2938 2591 2744 2837 
Q 2550 3084 2163 3084 
Q 1697 3084 1428 2787 
Q 1159 2491 1159 1978 
L 1159 0 
L 581 0 
L 581 3500 
L 1159 3500 
L 1159 2956 
Q 1366 3272 1645 3428 
Q 1925 3584 2291 3584 
Q 2894 3584 3203 3211 
Q 3513 2838 3513 2113 
z
" transform="scale(0.015625)"/>
      </defs>
      <use xlink:href="#DejaVuSans-6e"/>
     </g>
    </g>
   </g>
   <g id="matplotlib.axis_2">
    <g id="ytick_1">
     <g id="line2d_7">
      <defs>
       <path id="me5a42dcb37" d="M 0 0 
L -3.5 0 
" style="stroke: #000000; stroke-width: 0.8"/>
      </defs>
      <g>
       <use xlink:href="#me5a42dcb37" x="57.6" y="301.98685" style="stroke: #000000; stroke-width: 0.8"/>
      </g>
     </g>
     <g id="text_8">
      <!-- −1.00 -->
      <g transform="translate(19.954687 305.786069) scale(0.1 -0.1)">
       <defs>
        <path id="DejaVuSans-2212" d="M 678 2272 
L 4684 2272 
L 4684 1741 
L 678 1741 
L 678 2272 
z
" transform="scale(0.015625)"/>
        <path id="DejaVuSans-2e" d="M 684 794 
L 1344 794 
L 1344 0 
L 684 0 
L 684 794 
z
" transform="scale(0.015625)"/>
       </defs>
       <use xlink:href="#DejaVuSans-2212"/>
       <use xlink:href="#DejaVuSans-31" x="83.789062"/>
       <use xlink:href="#DejaVuSans-2e" x="147.412109"/>
       <use xlink:href="#DejaVuSans-30" x="179.199219"/>
       <use xlink:href="#DejaVuSans-30" x="242.822266"/>
      </g>
     </g>
    </g>
    <g id="ytick_2">
     <g id="line2d_8">
      <g>
       <use xlink:href="#me5a42dcb37" x="57.6" y="269.492598" style="stroke: #000000; stroke-width: 0.8"/>
      </g>
     </g>
     <g id="text_9">
      <!-- −0.75 -->
      <g transform="translate(19.954687 273.291817) scale(0.1 -0.1)">
       <defs>
        <path id="DejaVuSans-37" d="M 525 4666 
L 3525 4666 
L 3525 4397 
L 1831 0 
L 1172 0 
L 2766 4134 
L 525 4134 
L 525 4666 
z
" transform="scale(0.015625)"/>
        <path id="DejaVuSans-35" d="M 691 4666 
L 3169 4666 
L 3169 4134 
L 1269 4134 
L 1269 2991 
Q 1406 3038 1543 3061 
Q 1681 3084 1819 3084 
Q 2600 3084 3056 2656 
Q 3513 2228 3513 1497 
Q 3513 744 3044 326 
Q 2575 -91 1722 -91 
Q 1428 -91 1123 -41 
Q 819 9 494 109 
L 494 744 
Q 775 591 1075 516 
Q 1375 441 1709 441 
Q 2250 441 2565 725 
Q 2881 1009 2881 1497 
Q 2881 1984 2565 2268 
Q 2250 2553 1709 2553 
Q 1456 2553 1204 2497 
Q 953 2441 691 2322 
L 691 4666 
z
" transform="scale(0.015625)"/>
       </defs>
       <use xlink:href="#DejaVuSans-2212"/>
       <use xlink:href="#DejaVuSans-30" x="83.789062"/>
       <use xlink:href="#DejaVuSans-2e" x="147.412109"/>
       <use xlink:href="#DejaVuSans-37" x="179.199219"/>
       <use xlink:href="#DejaVuSans-35" x="242.822266"/>
      </g>
     </g>
    </g>
    <g id="ytick_3">
     <g id="line2d_9">
      <g>
       <use xlink:href="#me5a42dcb37" x="57.6" y="236.998346" style="stroke: #000000; stroke-width: 0.8"/>
      </g>
     </g>
     <g id="text_10">
      <!-- −0.50 -->
      <g transform="translate(19.954687 240.797565) scale(0.1 -0.1)">
       <use xlink:href="#DejaVuSans-2212"/>
       <use xlink:href="#DejaVuSans-30" x="83.789062"/>
       <use xlink:href="#DejaVuSans-2e" x="147.412109"/>
       <use xlink:href="#DejaVuSans-35" x="179.199219"/>
       <use xlink:href="#DejaVuSans-30" x="242.822266"/>
      </g>
     </g>
    </g>
    <g id="ytick_4">
     <g id="line2d_10">
      <g>
       <use xlink:href="#me5a42dcb37" x="57.6" y="204.504094" style="stroke: #000000; stroke-width: 0.8"/>
      </g>
     </g>
     <g id="text_11">
      <!-- −0.25 -->
      <g transform="translate(19.954687 208.303312) scale(0.1 -0.1)">
       <use xlink:href="#DejaVuSans-2212"/>
       <use xlink:href="#DejaVuSans-30" x="83.789062"/>
       <use xlink:href="#DejaVuSans-2e" x="147.412109"/>
       <use xlink:href="#DejaVuSans-32" x="179.199219"/>
       <use xlink:href="#DejaVuSans-35" x="242.822266"/>
      </g>
     </g>
    </g>
    <g id="ytick_5">
     <g id="line2d_11">
      <g>
       <use xlink:href="#me5a42dcb37" x="57.6" y="172.009841" style="stroke: #000000; stroke-width: 0.8"/>
      </g>
     </g>
     <g id="text_12">
      <!-- 0.00 -->
      <g transform="translate(28.334375 175.80906) scale(0.1 -0.1)">
       <use xlink:href="#DejaVuSans-30"/>
       <use xlink:href="#DejaVuSans-2e" x="63.623047"/>
       <use xlink:href="#DejaVuSans-30" x="95.410156"/>
       <use xlink:href="#DejaVuSans-30" x="159.033203"/>
      </g>
     </g>
    </g>
    <g id="ytick_6">
     <g id="line2d_12">
      <g>
       <use xlink:href="#me5a42dcb37" x="57.6" y="139.515589" style="stroke: #000000; stroke-width: 0.8"/>
      </g>
     </g>
     <g id="text_13">
      <!-- 0.25 -->
      <g transform="translate(28.334375 143.314808) scale(0.1 -0.1)">
       <use xlink:href="#DejaVuSans-30"/>
       <use xlink:href="#DejaVuSans-2e" x="63.623047"/>
       <use xlink:href="#DejaVuSans-32" x="95.410156"/>
       <use xlink:href="#DejaVuSans-35" x="159.033203"/>
      </g>
     </g>
    </g>
    <g id="ytick_7">
     <g id="line2d_13">
      <g>
       <use xlink:href="#me5a42dcb37" x="57.6" y="107.021337" style="stroke: #000000; stroke-width: 0.8"/>
      </g>
     </g>
     <g id="text_14">
      <!-- 0.50 -->
      <g transform="translate(28.334375 110.820555) scale(0.1 -0.1)">
       <use xlink:href="#DejaVuSans-30"/>
       <use xlink:href="#DejaVuSans-2e" x="63.623047"/>
       <use xlink:href="#DejaVuSans-35" x="95.410156"/>
       <use xlink:href="#DejaVuSans-30" x="159.033203"/>
      </g>
     </g>
    </g>
    <g id="ytick_8">
     <g id="line2d_14">
      <g>
       <use xlink:href="#me5a42dcb37" x="57.6" y="74.527084" style="stroke: #000000; stroke-width: 0.8"/>
      </g>
     </g>
     <g id="text_15">
      <!-- 0.75 -->
      <g transform="translate(28.334375 78.326303) scale(0.1 -0.1)">
       <use xlink:href="#DejaVuSans-30"/>
       <use xlink:href="#DejaVuSans-2e" x="63.623047"/>
       <use xlink:href="#DejaVuSans-37" x="95.410156"/>
       <use xlink:href="#DejaVuSans-35" x="159.033203"/>
      </g>
     </g>
    </g>
    <g id="ytick_9">
     <g id="line2d_15">
      <g>
       <use xlink:href="#me5a42dcb37" x="57.6" y="42.032832" style="stroke: #000000; stroke-width: 0.8"/>
      </g>
     </g>
     <g id="text_16">
      <!-- 1.00 -->
      <g transform="translate(28.334375 45.832051) scale(0.1 -0.1)">
       <use xlink:href="#DejaVuSans-31"/>
       <use xlink:href="#DejaVuSans-2e" x="63.623047"/>
       <use xlink:href="#DejaVuSans-30" x="95.410156"/>
       <use xlink:href="#DejaVuSans-30" x="159.033203"/>
      </g>
     </g>
    </g>
    <g id="text_17">
     <!-- E*t -->
     <g transform="translate(13.875 182.147531) rotate(-90) scale(0.1 -0.1)">
      <defs>
       <path id="DejaVuSans-45" d="M 628 4666 
L 3578 4666 
L 3578 4134 
L 1259 4134 
L 1259 2753 
L 3481 2753 
L 3481 2222 
L 1259 2222 
L 1259 531 
L 3634 531 
L 3634 0 
L 628 0 
L 628 4666 
z
" transform="scale(0.015625)"/>
       <path id="DejaVuSans-2a" d="M 3009 3897 
L 1888 3291 
L 3009 2681 
L 2828 2375 
L 1778 3009 
L 1778 1831 
L 1422 1831 
L 1422 3009 
L 372 2375 
L 191 2681 
L 1313 3291 
L 191 3897 
L 372 4206 
L 1422 3572 
L 1422 4750 
L 1778 4750 
L 1778 3572 
L 2828 4206 
L 3009 3897 
z
" transform="scale(0.015625)"/>
       <path id="DejaVuSans-74" d="M 1172 4494 
L 1172 3500 
L 2356 3500 
L 2356 3053 
L 1172 3053 
L 1172 1153 
Q 1172 725 1289 603 
Q 1406 481 1766 481 
L 2356 481 
L 2356 0 
L 1766 0 
Q 1100 0 847 248 
Q 594 497 594 1153 
L 594 3053 
L 172 3053 
L 172 3500 
L 594 3500 
L 594 4494 
L 1172 4494 
z
" transform="scale(0.015625)"/>
      </defs>
      <use xlink:href="#DejaVuSans-45"/>
      <use xlink:href="#DejaVuSans-2a" x="63.183594"/>
      <use xlink:href="#DejaVuSans-74" x="113.183594"/>
     </g>
    </g>
   </g>
   <g id="line2d_16">
    <path d="M 73.832727 265.671165 
L 74.150083 262.022073 
L 74.467438 260.046774 
L 74.784793 257.225789 
L 75.102149 256.172656 
L 75.419504 254.394961 
L 75.73686 251.864742 
L 76.054215 250.736016 
L 76.37157 249.094554 
L 76.688926 248.072933 
L 77.006281 247.703773 
L 77.323636 247.095517 
L 77.640992 245.598077 
L 80.179835 239.527932 
L 80.49719 239.211332 
L 80.814545 238.614767 
L 81.131901 238.332131 
L 81.449256 237.313309 
L 81.766612 236.959746 
L 82.083967 236.230779 
L 83.036033 235.348277 
L 83.353388 234.730066 
L 83.670744 234.497381 
L 85.892231 231.124308 
L 86.526942 230.323044 
L 86.844298 229.998933 
L 88.113719 228.262478 
L 88.431074 227.875842 
L 89.065785 227.439811 
L 90.335207 226.496982 
L 91.604628 225.352077 
L 92.239339 224.648542 
L 92.87405 224.155475 
L 93.191405 224.001878 
L 93.826116 223.441351 
L 94.778182 223.031238 
L 95.412893 222.740893 
L 96.047603 221.906395 
L 96.682314 221.646137 
L 97.317025 221.158963 
L 97.63438 220.713062 
L 98.586446 220.000695 
L 98.903802 219.862568 
L 100.490579 218.322203 
L 101.442645 217.897185 
L 101.76 217.502112 
L 102.077355 217.39157 
L 102.394711 217.060975 
L 103.346777 216.615773 
L 103.664132 216.463309 
L 103.981488 216.443096 
L 104.616198 215.845187 
L 106.837686 214.713173 
L 108.424463 213.949026 
L 109.059174 213.466686 
L 109.693884 213.161509 
L 110.64595 212.371892 
L 111.598017 211.980473 
L 112.232727 211.717765 
L 112.550083 211.399686 
L 113.819504 210.833194 
L 114.13686 210.594003 
L 114.77157 210.445373 
L 115.723636 210.026626 
L 116.040992 209.954359 
L 116.358347 209.542659 
L 116.675702 209.461693 
L 116.993058 209.102573 
L 117.627769 208.909382 
L 118.262479 208.593345 
L 118.579835 208.442913 
L 119.214545 207.966303 
L 119.531901 207.935706 
L 121.436033 207.081738 
L 121.753388 206.798473 
L 122.388099 206.532008 
L 122.705455 206.362081 
L 123.02281 206.318841 
L 123.340165 206.11207 
L 123.657521 206.048013 
L 123.974876 205.744711 
L 124.609587 205.531003 
L 125.244298 205.061408 
L 127.14843 204.290144 
L 128.100496 204.045223 
L 128.735207 203.724786 
L 131.27405 202.708365 
L 131.90876 202.350451 
L 132.226116 202.287866 
L 132.860826 201.826322 
L 133.812893 201.420017 
L 134.764959 200.953492 
L 135.082314 200.86957 
L 135.399669 200.627261 
L 136.03438 200.466719 
L 136.986446 200.001614 
L 137.938512 199.740895 
L 138.573223 199.475308 
L 139.525289 199.187729 
L 139.842645 198.955255 
L 140.16 198.913673 
L 140.794711 198.649666 
L 141.112066 198.613686 
L 141.746777 198.285398 
L 143.016198 197.857865 
L 143.650909 197.529518 
L 144.602975 197.047868 
L 146.189752 196.398092 
L 146.507107 196.191086 
L 147.459174 195.966094 
L 148.41124 195.488619 
L 153.17157 193.695525 
L 153.488926 193.529478 
L 153.806281 193.4972 
L 154.758347 193.171953 
L 155.710413 192.831649 
L 156.662479 192.380357 
L 162.374876 190.432711 
L 163.009587 190.20415 
L 163.326942 190.13 
L 163.644298 189.858792 
L 164.596364 189.731466 
L 165.231074 189.352008 
L 169.356694 187.955948 
L 175.386446 185.888326 
L 175.703802 185.577102 
L 176.021157 185.568658 
L 176.973223 185.219701 
L 177.290579 185.200644 
L 178.242645 184.826469 
L 178.877355 184.67917 
L 179.829421 184.309885 
L 182.050909 183.64893 
L 182.68562 183.377645 
L 183.955041 183.022074 
L 184.272397 182.870101 
L 184.589752 182.843257 
L 185.224463 182.591419 
L 186.176529 182.396925 
L 188.080661 181.817368 
L 188.715372 181.671005 
L 189.667438 181.332702 
L 191.254215 180.898627 
L 191.888926 180.622157 
L 192.206281 180.578575 
L 192.523636 180.305516 
L 193.793058 180.054891 
L 194.427769 179.846517 
L 195.69719 179.479698 
L 196.649256 179.154061 
L 198.553388 178.514714 
L 198.870744 178.341907 
L 199.82281 178.184353 
L 200.457521 177.94699 
L 203.631074 176.937639 
L 204.58314 176.696277 
L 205.852562 176.207547 
L 206.804628 176.029758 
L 210.612893 174.958246 
L 215.055868 173.673065 
L 216.642645 173.097842 
L 217.277355 172.971756 
L 218.229421 172.638706 
L 218.864132 172.503989 
L 219.816198 172.160453 
L 220.450909 172.025473 
L 222.989752 171.152679 
L 225.528595 170.517253 
L 226.480661 170.213917 
L 227.115372 170.097346 
L 228.384793 169.592871 
L 231.558347 168.639284 
L 232.193058 168.489462 
L 232.827769 168.245041 
L 239.174876 166.389277 
L 239.809587 166.292819 
L 242.665785 165.281636 
L 243.300496 165.077342 
L 246.791405 164.085303 
L 248.695537 163.506622 
L 250.917025 162.911237 
L 251.23438 162.732283 
L 251.869091 162.539768 
L 252.503802 162.369786 
L 253.455868 162.168367 
L 254.090579 161.957664 
L 255.042645 161.633427 
L 256.946777 161.076191 
L 259.802975 160.235873 
L 261.072397 159.911135 
L 262.024463 159.579667 
L 262.976529 159.331193 
L 266.150083 158.271494 
L 266.784793 158.104309 
L 268.054215 157.565029 
L 268.688926 157.391935 
L 269.323636 157.185734 
L 269.640992 157.124126 
L 270.275702 156.832324 
L 270.910413 156.669078 
L 275.353388 155.217355 
L 280.74843 153.356008 
L 282.969917 152.651574 
L 284.556694 152.219893 
L 285.826116 151.811127 
L 287.412893 151.285505 
L 288.999669 150.706885 
L 290.586446 150.188831 
L 292.173223 149.580583 
L 300.741818 146.773714 
L 301.376529 146.669089 
L 302.328595 146.195385 
L 302.963306 146.073953 
L 303.598017 145.701737 
L 304.232727 145.528418 
L 305.819504 144.88918 
L 306.13686 144.828324 
L 306.77157 144.538049 
L 308.675702 143.861151 
L 308.993058 143.60516 
L 310.262479 143.182082 
L 313.118678 141.988318 
L 313.436033 141.807615 
L 314.070744 141.657913 
L 315.657521 141.239273 
L 316.292231 140.953738 
L 319.465785 139.749896 
L 319.78314 139.508381 
L 320.417851 139.340645 
L 321.052562 138.993216 
L 322.321983 138.636046 
L 322.956694 138.235174 
L 324.543471 137.75853 
L 326.764959 136.711783 
L 328.351736 136.191202 
L 329.303802 135.702983 
L 330.255868 135.439071 
L 331.207934 134.977488 
L 331.525289 134.761121 
L 332.477355 134.571157 
L 333.429421 134.180259 
L 334.064132 133.970526 
L 335.333554 133.428343 
L 338.507107 132.019622 
L 338.824463 131.979922 
L 342.315372 130.140664 
L 342.950083 129.930145 
L 343.902149 129.440955 
L 344.219504 129.190417 
L 345.17157 128.808347 
L 350.883967 126.174964 
L 351.518678 125.603826 
L 351.836033 125.545589 
L 352.788099 124.864043 
L 353.105455 124.786904 
L 354.692231 123.873147 
L 355.009587 123.816771 
L 355.644298 123.393221 
L 356.596364 122.86998 
L 357.231074 122.473476 
L 357.54843 122.447793 
L 357.865785 122.192956 
L 358.18314 122.112561 
L 358.817851 121.675105 
L 360.087273 121.236465 
L 361.356694 120.267834 
L 361.991405 119.864523 
L 362.30876 119.741412 
L 363.260826 119.047225 
L 363.895537 118.80304 
L 364.212893 118.422578 
L 364.847603 118.101495 
L 366.117025 117.298135 
L 366.43438 116.73212 
L 366.751736 116.665957 
L 367.386446 116.142195 
L 368.338512 115.487389 
L 368.973223 114.95706 
L 369.290579 114.869514 
L 369.925289 114.261619 
L 370.242645 114.117292 
L 370.56 113.762378 
L 371.512066 113.180244 
L 371.829421 112.810107 
L 372.146777 112.67883 
L 373.733554 111.476399 
L 374.050909 110.944731 
L 374.68562 110.609988 
L 375.955041 109.437305 
L 376.272397 109.30284 
L 378.176529 107.290739 
L 378.493884 107.132595 
L 381.350083 104.061956 
L 381.667438 103.890691 
L 382.93686 102.293878 
L 383.254215 101.708784 
L 383.888926 101.212772 
L 384.206281 100.742177 
L 384.523636 100.48984 
L 384.840992 100.381155 
L 385.158347 100.058784 
L 385.475702 99.275529 
L 385.793058 99.138853 
L 386.110413 98.385422 
L 387.379835 96.617886 
L 388.014545 95.92223 
L 388.331901 95.140657 
L 388.966612 94.448956 
L 389.283967 93.676234 
L 389.601322 93.35028 
L 389.918678 93.262721 
L 390.870744 91.015389 
L 391.188099 90.789853 
L 391.82281 89.634789 
L 392.774876 86.737896 
L 393.726942 85.283304 
L 394.044298 83.526483 
L 394.361653 82.519555 
L 394.679008 82.226157 
L 395.631074 78.839488 
L 395.94843 76.18552 
L 396.265785 75.436288 
L 396.900496 72.49861 
L 397.217851 68.058367 
L 397.852562 64.003074 
L 398.487273 53.568 
L 398.487273 53.568 
" clip-path="url(#pcce68c0564)" style="fill: none; stroke: #1f77b4; stroke-width: 1.5; stroke-linecap: square"/>
   </g>
   <g id="line2d_17">
    <path d="M 73.832727 295.488 
L 74.150083 282.490298 
L 74.467438 281.217979 
L 74.784793 277.525581 
L 75.102149 271.774561 
L 75.419504 269.492596 
L 76.054215 266.831769 
L 76.37157 264.527883 
L 76.688926 264.527881 
L 77.006281 263.383918 
L 77.323636 259.618262 
L 77.640992 258.776861 
L 77.958347 257.37905 
L 78.275702 256.494899 
L 78.593058 256.494894 
L 78.910413 255.222579 
L 79.227769 255.177915 
L 80.179835 251.530182 
L 80.49719 251.530182 
L 81.131901 250.386218 
L 81.449256 250.032295 
L 82.718678 246.620561 
L 83.036033 245.93832 
L 83.353388 245.779161 
L 83.670744 245.453422 
L 83.988099 244.469446 
L 84.305455 244.381353 
L 84.62281 243.497196 
L 84.940165 243.497193 
L 85.257521 242.938148 
L 85.574876 242.869772 
L 85.892231 242.224878 
L 86.209587 242.180212 
L 86.526942 241.892713 
L 86.844298 241.215235 
L 87.479008 240.341139 
L 88.431074 238.532482 
L 88.74843 238.532481 
L 89.065785 237.860522 
L 89.700496 237.388517 
L 90.335207 237.034597 
L 90.969917 235.464212 
L 91.604628 235.422366 
L 91.921983 235.248088 
L 92.87405 233.754202 
L 93.191405 233.622861 
L 93.50876 232.940616 
L 93.826116 232.781462 
L 95.095537 231.564683 
L 96.047603 231.267431 
L 96.364959 230.499494 
L 96.682314 230.499492 
L 96.999669 230.111464 
L 97.63438 229.872068 
L 97.951736 229.227178 
L 98.269091 229.18251 
L 98.586446 228.895013 
L 98.903802 228.888131 
L 99.221157 228.452138 
L 100.173223 228.101559 
L 100.490579 227.838671 
L 100.807934 227.343435 
L 101.125289 227.143127 
L 101.76 226.412677 
L 102.077355 226.304533 
L 102.394711 225.547839 
L 103.029421 225.534781 
L 103.346777 224.862819 
L 103.981488 224.390817 
L 104.616198 224.193625 
L 104.933554 224.036899 
L 105.250909 223.143008 
L 105.88562 222.924054 
L 106.202975 222.602054 
L 106.520331 222.466509 
L 107.155041 222.424669 
L 107.472397 222.25039 
L 107.789752 221.769354 
L 108.107107 221.708016 
L 108.424463 221.452878 
L 108.741818 221.3859 
L 109.693884 220.667971 
L 110.328595 220.586508 
L 110.64595 219.942914 
L 110.963306 219.783763 
L 111.280661 219.458029 
L 111.598017 219.430824 
L 112.550083 218.872944 
L 114.13686 218.269733 
L 114.454215 217.543051 
L 115.088926 217.501791 
L 115.406281 217.113765 
L 116.040992 216.874365 
L 116.358347 216.845898 
L 116.675702 216.229477 
L 116.993058 216.184808 
L 117.310413 215.897314 
L 117.627769 215.890431 
L 117.945124 215.45444 
L 118.579835 215.366973 
L 119.214545 215.219827 
L 120.483967 214.981043 
L 120.801322 214.840971 
L 121.436033 214.345732 
L 121.753388 214.14543 
L 122.070744 214.085057 
L 122.705455 213.570696 
L 123.340165 213.30989 
L 123.657521 213.306833 
L 123.974876 212.550142 
L 124.926942 212.42539 
L 126.196364 211.602055 
L 126.513719 211.583786 
L 126.831074 211.414944 
L 127.465785 211.340439 
L 128.100496 211.039201 
L 128.417851 210.145307 
L 129.052562 210.007133 
L 129.369917 209.92636 
L 129.687273 209.468805 
L 130.321983 209.426971 
L 131.591405 208.771651 
L 131.90876 208.710315 
L 132.226116 208.45518 
L 132.543471 208.3882 
L 132.860826 208.113095 
L 133.178182 208.021041 
L 133.495537 207.7588 
L 134.447603 207.588808 
L 134.764959 206.945212 
L 135.717025 206.66796 
L 136.03438 206.460333 
L 136.351736 206.433129 
L 137.303802 205.906616 
L 138.890579 205.700279 
L 139.525289 205.569282 
L 140.794711 205.272034 
L 141.112066 204.654218 
L 141.746777 204.504092 
L 142.064132 204.50409 
L 142.381488 204.123422 
L 142.698843 204.116067 
L 143.333554 203.876663 
L 143.968264 203.767727 
L 144.28562 203.231777 
L 144.602975 203.187107 
L 144.920331 202.899614 
L 145.237686 202.892732 
L 145.555041 202.756758 
L 145.872397 202.456742 
L 146.507107 202.369272 
L 147.141818 202.222123 
L 148.728595 201.983345 
L 149.998017 201.348031 
L 150.315372 201.147732 
L 150.632727 201.087355 
L 150.950083 200.778459 
L 151.584793 200.758368 
L 151.902149 200.417275 
L 152.854215 200.053337 
L 153.488926 199.552445 
L 154.758347 199.427688 
L 155.710413 198.890369 
L 156.027769 198.867414 
L 156.662479 198.445626 
L 157.614545 198.342741 
L 158.249256 198.108292 
L 158.883967 198.041502 
L 159.201322 197.277946 
L 159.836033 197.023306 
L 161.105455 196.928664 
L 161.740165 196.846028 
L 162.057521 196.471102 
L 162.692231 196.429273 
L 163.326942 196.161883 
L 163.644298 196.139274 
L 163.961653 195.780523 
L 164.596364 195.712615 
L 164.913719 195.492573 
L 165.54843 195.390499 
L 166.18314 195.115393 
L 168.087273 194.591107 
L 168.404628 193.947511 
L 170.30876 193.435433 
L 170.626116 192.919361 
L 171.578182 192.778705 
L 174.117025 192.39056 
L 174.751736 192.200406 
L 175.069091 191.840209 
L 176.338512 191.506391 
L 176.655868 191.50639 
L 176.973223 191.125722 
L 177.290579 191.118369 
L 177.925289 190.878961 
L 179.194711 190.654221 
L 179.512066 190.234076 
L 180.464132 190.128138 
L 180.781488 189.901915 
L 181.098843 189.895032 
L 181.416198 189.759052 
L 181.733554 189.459043 
L 182.050909 189.432838 
L 182.368264 189.25412 
L 184.272397 188.98565 
L 184.907107 188.731911 
L 185.541818 188.671354 
L 186.176529 188.35947 
L 186.81124 188.340951 
L 187.128595 188.150033 
L 187.44595 188.089654 
L 187.763306 187.780757 
L 188.398017 187.76067 
L 188.715372 187.419573 
L 189.032727 187.314484 
L 189.667438 186.836362 
L 190.619504 186.541685 
L 191.254215 186.448358 
L 191.888926 186.421483 
L 192.206281 186.254902 
L 192.840992 186.211119 
L 193.158347 185.977131 
L 194.110413 185.869713 
L 194.745124 185.419546 
L 195.379835 185.345043 
L 195.69719 185.200531 
L 196.966612 185.043803 
L 197.283967 184.280238 
L 197.601322 184.025606 
L 199.188099 183.848318 
L 199.505455 183.814187 
L 200.140165 183.4734 
L 200.774876 183.431574 
L 201.409587 183.164186 
L 201.726942 183.141566 
L 202.044298 182.791853 
L 203.313719 182.714915 
L 203.631074 182.49487 
L 204.265785 182.392799 
L 204.58314 182.195128 
L 205.535207 182.076096 
L 206.169917 181.978928 
L 206.804628 181.632063 
L 207.121983 181.593406 
L 207.439339 181.362022 
L 207.756694 180.860605 
L 209.343471 180.464942 
L 209.660826 179.92166 
L 210.930248 179.781004 
L 213.469091 179.480936 
L 214.421157 179.2027 
L 214.738512 178.842512 
L 215.373223 178.729911 
L 215.690579 178.709108 
L 216.007934 178.508691 
L 216.642645 178.449949 
L 216.96 178.378651 
L 217.277355 178.128022 
L 217.912066 178.032962 
L 218.546777 177.772333 
L 219.181488 177.656513 
L 219.816198 177.236376 
L 221.08562 177.130442 
L 221.402975 176.940221 
L 222.355041 176.761347 
L 222.672397 176.461344 
L 222.989752 176.435138 
L 223.307107 176.256425 
L 224.893884 176.03388 
L 225.21124 175.947851 
L 225.528595 175.734217 
L 226.163306 175.673642 
L 228.067438 174.783055 
L 229.019504 174.62172 
L 229.33686 174.421872 
L 229.97157 174.316782 
L 230.606281 173.838653 
L 231.558347 173.543986 
L 232.193058 173.450654 
L 233.145124 173.3595 
L 234.731901 172.894977 
L 235.049256 172.872012 
L 235.683967 172.421846 
L 236.318678 172.347346 
L 236.636033 172.202834 
L 237.905455 172.046104 
L 238.22281 171.282531 
L 238.540165 171.027907 
L 240.444298 170.850611 
L 240.761653 170.816489 
L 241.396364 170.475697 
L 242.031074 170.399146 
L 242.98314 169.794145 
L 243.935207 169.717215 
L 244.252562 169.497169 
L 244.887273 169.395098 
L 245.204628 169.19744 
L 246.156694 169.07839 
L 246.791405 168.981223 
L 247.10876 168.765697 
L 248.695537 168.364321 
L 249.647603 167.862903 
L 250.599669 167.674873 
L 250.917025 167.48875 
L 251.23438 167.467246 
L 251.551736 167.070615 
L 251.869091 166.9169 
L 252.821157 166.882148 
L 253.455868 166.755705 
L 255.36 166.483237 
L 255.994711 165.844815 
L 257.264132 165.711412 
L 257.581488 165.510991 
L 258.533554 165.452242 
L 258.850909 165.130323 
L 259.48562 165.035253 
L 260.120331 164.727223 
L 260.437686 164.658807 
L 261.072397 164.216123 
L 261.707107 164.132744 
L 262.659174 163.924301 
L 263.61124 163.763644 
L 264.24595 163.25873 
L 265.832727 163.036181 
L 268.054215 162.345563 
L 268.37157 162.094253 
L 269.323636 161.785354 
L 269.640992 161.643354 
L 269.958347 161.624018 
L 270.593058 161.31908 
L 270.910413 160.728088 
L 275.353388 159.611259 
L 275.670744 159.424146 
L 275.988099 159.411968 
L 276.305455 159.205137 
L 277.574876 159.088788 
L 278.526942 158.699303 
L 279.161653 158.016322 
L 279.796364 157.938382 
L 280.431074 157.883928 
L 281.38314 157.648363 
L 281.700496 157.477996 
L 282.017851 157.477995 
L 282.335207 157.289748 
L 282.652562 156.83316 
L 283.921983 156.719516 
L 284.556694 156.397398 
L 288.364959 155.36662 
L 289.317025 154.926962 
L 290.586446 154.677176 
L 291.221157 153.919198 
L 291.855868 153.785602 
L 293.442645 153.573793 
L 293.76 153.5063 
L 294.394711 152.817163 
L 296.298843 152.454535 
L 296.933554 152.132625 
L 297.568264 152.037548 
L 298.202975 151.729518 
L 298.520331 151.661102 
L 299.155041 151.218426 
L 299.472397 151.211821 
L 300.107107 150.946163 
L 300.741818 150.901934 
L 301.059174 150.765942 
L 301.693884 150.636074 
L 302.64595 150.064018 
L 303.598017 149.952457 
L 304.232727 149.738827 
L 304.867438 149.670371 
L 305.502149 149.159613 
L 307.088926 148.787653 
L 307.406281 148.645659 
L 307.723636 148.626317 
L 308.675702 148.321379 
L 308.993058 147.919897 
L 309.945124 147.45525 
L 310.579835 147.364106 
L 310.89719 147.081151 
L 312.166612 146.812368 
L 312.801322 146.442276 
L 313.436033 146.400844 
L 314.070744 146.105569 
L 314.705455 145.980617 
L 315.340165 145.28712 
L 315.657521 144.947929 
L 316.926942 144.837825 
L 317.561653 144.480295 
L 318.196364 144.429767 
L 318.513719 143.835452 
L 319.78314 143.709593 
L 320.417851 143.399699 
L 320.735207 143.31922 
L 321.052562 143.082982 
L 321.687273 143.02083 
L 322.004628 142.708137 
L 322.639339 142.600302 
L 323.27405 142.530123 
L 323.90876 142.322058 
L 325.495537 141.785635 
L 325.812893 141.350479 
L 326.130248 141.310283 
L 326.447603 140.921496 
L 327.082314 140.787901 
L 328.03438 140.576092 
L 328.351736 140.185043 
L 329.303802 139.762494 
L 330.573223 139.666258 
L 330.890579 139.508208 
L 331.525289 138.859698 
L 332.16 138.731813 
L 332.477355 138.663397 
L 332.794711 138.22073 
L 333.429421 138.158433 
L 334.381488 137.928903 
L 334.698843 137.919358 
L 336.920331 136.801582 
L 337.237686 136.741131 
L 337.555041 136.161923 
L 338.824463 135.803957 
L 339.776529 135.323678 
L 340.093884 134.817944 
L 341.363306 134.430665 
L 341.680661 134.083457 
L 342.315372 134.017326 
L 342.632727 133.814666 
L 342.950083 133.807598 
L 343.267438 133.615863 
L 343.584793 133.596723 
L 343.902149 133.444571 
L 344.53686 133.403149 
L 345.17157 133.107869 
L 345.806281 132.982921 
L 346.123636 132.703891 
L 346.440992 131.950224 
L 347.075702 131.941951 
L 347.710413 131.482593 
L 348.027769 131.432057 
L 348.345124 130.801027 
L 348.662479 130.71188 
L 349.614545 130.08528 
L 350.566612 130.023116 
L 350.883967 129.584363 
L 351.201322 129.394633 
L 351.836033 129.324369 
L 352.153388 129.147342 
L 352.470744 129.120196 
L 353.105455 128.787939 
L 353.42281 128.352782 
L 353.740165 128.312571 
L 354.057521 127.923794 
L 354.692231 127.790202 
L 355.009587 127.606713 
L 355.326942 127.187336 
L 355.961653 127.013944 
L 356.279008 126.821754 
L 357.54843 126.526557 
L 358.18314 125.850809 
L 358.500496 125.734109 
L 358.817851 125.223034 
L 359.135207 124.931205 
L 359.452562 124.921673 
L 360.087273 124.64068 
L 360.404628 123.941666 
L 361.039339 123.803881 
L 361.356694 123.164232 
L 363.895537 122.147341 
L 364.530248 121.459848 
L 366.43438 120.446867 
L 367.069091 120.405452 
L 367.703802 120.054501 
L 368.021157 119.302727 
L 368.338512 118.95252 
L 368.655868 118.945283 
L 369.290579 117.803321 
L 369.607934 117.71417 
L 370.242645 117.323819 
L 370.56 117.265493 
L 370.877355 117.068844 
L 371.194711 116.586663 
L 371.829421 116.149653 
L 372.146777 116.122496 
L 372.464132 115.933856 
L 373.098843 114.926091 
L 373.416198 114.583042 
L 373.733554 114.016237 
L 374.050909 113.82405 
L 375.320331 113.528841 
L 375.637686 112.853092 
L 375.955041 112.736405 
L 376.907107 111.933508 
L 377.224463 111.923985 
L 377.541818 111.759041 
L 377.859174 110.943957 
L 378.493884 110.806179 
L 378.81124 109.946095 
L 379.128595 109.934042 
L 379.44595 109.149653 
L 380.398017 108.068168 
L 381.350083 107.449164 
L 381.667438 107.421152 
L 382.302149 107.056794 
L 382.619504 106.30503 
L 382.93686 105.858607 
L 383.254215 104.805616 
L 383.57157 104.790869 
L 383.888926 104.326118 
L 384.206281 104.071136 
L 384.840992 103.151962 
L 385.158347 103.108627 
L 385.793058 102.650401 
L 386.110413 102.317149 
L 386.745124 101.046432 
L 387.062479 100.769383 
L 387.69719 100.531127 
L 388.014545 99.200148 
L 388.331901 98.761336 
L 388.649256 97.946249 
L 388.966612 97.822629 
L 389.283967 96.948389 
L 389.601322 96.936343 
L 390.553388 94.451461 
L 390.870744 94.42345 
L 391.188099 93.462427 
L 391.505455 93.320871 
L 391.82281 93.307332 
L 392.140165 91.073428 
L 392.457521 90.110926 
L 393.409587 88.587624 
L 393.726942 87.675447 
L 394.361653 84.948542 
L 394.679008 83.950686 
L 394.996364 83.72448 
L 395.313719 82.828433 
L 395.631074 82.293889 
L 396.265785 78.075722 
L 396.58314 77.113224 
L 396.900496 76.654994 
L 397.217851 69.83071 
L 397.535207 69.29618 
L 397.852562 67.325452 
L 398.487273 56.832988 
L 398.487273 56.832988 
" clip-path="url(#pcce68c0564)" style="fill: none; stroke: #ff7f0e; stroke-width: 1.5; stroke-linecap: square"/>
   </g>
   <g id="patch_3">
    <path d="M 57.6 307.584 
L 57.6 41.472 
" style="fill: none; stroke: #000000; stroke-width: 0.8; stroke-linejoin: miter; stroke-linecap: square"/>
   </g>
   <g id="patch_4">
    <path d="M 414.72 307.584 
L 414.72 41.472 
" style="fill: none; stroke: #000000; stroke-width: 0.8; stroke-linejoin: miter; stroke-linecap: square"/>
   </g>
   <g id="patch_5">
    <path d="M 57.6 307.584 
L 414.72 307.584 
" style="fill: none; stroke: #000000; stroke-width: 0.8; stroke-linejoin: miter; stroke-linecap: square"/>
   </g>
   <g id="patch_6">
    <path d="M 57.6 41.472 
L 414.72 41.472 
" style="fill: none; stroke: #000000; stroke-width: 0.8; stroke-linejoin: miter; stroke-linecap: square"/>
   </g>
   <g id="legend_1">
    <g id="patch_7">
     <path d="M 64.6 78.82825 
L 129.342187 78.82825 
Q 131.342187 78.82825 131.342187 76.82825 
L 131.342187 48.472 
Q 131.342187 46.472 129.342187 46.472 
L 64.6 46.472 
Q 62.6 46.472 62.6 48.472 
L 62.6 76.82825 
Q 62.6 78.82825 64.6 78.82825 
z
" style="fill: #ffffff; opacity: 0.8; stroke: #cccccc; stroke-linejoin: miter"/>
    </g>
    <g id="line2d_18">
     <path d="M 66.6 54.570437 
L 76.6 54.570437 
L 86.6 54.570437 
" style="fill: none; stroke: #1f77b4; stroke-width: 1.5; stroke-linecap: square"/>
    </g>
    <g id="text_18">
     <!-- qc -->
     <g transform="translate(94.6 58.070437) scale(0.1 -0.1)">
      <defs>
       <path id="DejaVuSans-71" d="M 947 1747 
Q 947 1113 1208 752 
Q 1469 391 1925 391 
Q 2381 391 2643 752 
Q 2906 1113 2906 1747 
Q 2906 2381 2643 2742 
Q 2381 3103 1925 3103 
Q 1469 3103 1208 2742 
Q 947 2381 947 1747 
z
M 2906 525 
Q 2725 213 2448 61 
Q 2172 -91 1784 -91 
Q 1150 -91 751 415 
Q 353 922 353 1747 
Q 353 2572 751 3078 
Q 1150 3584 1784 3584 
Q 2172 3584 2448 3432 
Q 2725 3281 2906 2969 
L 2906 3500 
L 3481 3500 
L 3481 -1331 
L 2906 -1331 
L 2906 525 
z
" transform="scale(0.015625)"/>
       <path id="DejaVuSans-63" d="M 3122 3366 
L 3122 2828 
Q 2878 2963 2633 3030 
Q 2388 3097 2138 3097 
Q 1578 3097 1268 2742 
Q 959 2388 959 1747 
Q 959 1106 1268 751 
Q 1578 397 2138 397 
Q 2388 397 2633 464 
Q 2878 531 3122 666 
L 3122 134 
Q 2881 22 2623 -34 
Q 2366 -91 2075 -91 
Q 1284 -91 818 406 
Q 353 903 353 1747 
Q 353 2603 823 3093 
Q 1294 3584 2113 3584 
Q 2378 3584 2631 3529 
Q 2884 3475 3122 3366 
z
" transform="scale(0.015625)"/>
      </defs>
      <use xlink:href="#DejaVuSans-71"/>
      <use xlink:href="#DejaVuSans-63" x="63.476562"/>
     </g>
    </g>
    <g id="line2d_19">
     <path d="M 66.6 69.248562 
L 76.6 69.248562 
L 86.6 69.248562 
" style="fill: none; stroke: #ff7f0e; stroke-width: 1.5; stroke-linecap: square"/>
    </g>
    <g id="text_19">
     <!-- Trotter -->
     <g transform="translate(94.6 72.748562) scale(0.1 -0.1)">
      <defs>
       <path id="DejaVuSans-54" d="M -19 4666 
L 3928 4666 
L 3928 4134 
L 2272 4134 
L 2272 0 
L 1638 0 
L 1638 4134 
L -19 4134 
L -19 4666 
z
" transform="scale(0.015625)"/>
       <path id="DejaVuSans-72" d="M 2631 2963 
Q 2534 3019 2420 3045 
Q 2306 3072 2169 3072 
Q 1681 3072 1420 2755 
Q 1159 2438 1159 1844 
L 1159 0 
L 581 0 
L 581 3500 
L 1159 3500 
L 1159 2956 
Q 1341 3275 1631 3429 
Q 1922 3584 2338 3584 
Q 2397 3584 2469 3576 
Q 2541 3569 2628 3553 
L 2631 2963 
z
" transform="scale(0.015625)"/>
       <path id="DejaVuSans-6f" d="M 1959 3097 
Q 1497 3097 1228 2736 
Q 959 2375 959 1747 
Q 959 1119 1226 758 
Q 1494 397 1959 397 
Q 2419 397 2687 759 
Q 2956 1122 2956 1747 
Q 2956 2369 2687 2733 
Q 2419 3097 1959 3097 
z
M 1959 3584 
Q 2709 3584 3137 3096 
Q 3566 2609 3566 1747 
Q 3566 888 3137 398 
Q 2709 -91 1959 -91 
Q 1206 -91 779 398 
Q 353 888 353 1747 
Q 353 2609 779 3096 
Q 1206 3584 1959 3584 
z
" transform="scale(0.015625)"/>
       <path id="DejaVuSans-65" d="M 3597 1894 
L 3597 1613 
L 953 1613 
Q 991 1019 1311 708 
Q 1631 397 2203 397 
Q 2534 397 2845 478 
Q 3156 559 3463 722 
L 3463 178 
Q 3153 47 2828 -22 
Q 2503 -91 2169 -91 
Q 1331 -91 842 396 
Q 353 884 353 1716 
Q 353 2575 817 3079 
Q 1281 3584 2069 3584 
Q 2775 3584 3186 3129 
Q 3597 2675 3597 1894 
z
M 3022 2063 
Q 3016 2534 2758 2815 
Q 2500 3097 2075 3097 
Q 1594 3097 1305 2825 
Q 1016 2553 972 2059 
L 3022 2063 
z
" transform="scale(0.015625)"/>
      </defs>
      <use xlink:href="#DejaVuSans-54"/>
      <use xlink:href="#DejaVuSans-72" x="46.333984"/>
      <use xlink:href="#DejaVuSans-6f" x="85.197266"/>
      <use xlink:href="#DejaVuSans-74" x="146.378906"/>
      <use xlink:href="#DejaVuSans-74" x="185.587891"/>
      <use xlink:href="#DejaVuSans-65" x="224.796875"/>
      <use xlink:href="#DejaVuSans-72" x="286.320312"/>
     </g>
    </g>
   </g>
  </g>
 </g>
 <defs>
  <clipPath id="pcce68c0564">
   <rect x="57.6" y="41.472" width="357.12" height="266.112"/>
  </clipPath>
 </defs>
</svg>
