<?xml version="1.0" encoding="utf-8" standalone="no"?>
<!DOCTYPE svg PUBLIC "-//W3C//DTD SVG 1.1//EN"
  "http://www.w3.org/Graphics/SVG/1.1/DTD/svg11.dtd">
<svg xmlns:xlink="http://www.w3.org/1999/xlink" width="460.8pt" height="345.6pt" viewBox="0 0 460.8 345.6" xmlns="http://www.w3.org/2000/svg" version="1.1">
 <metadata>
  <rdf:RDF xmlns:dc="http://purl.org/dc/elements/1.1/" xmlns:cc="http://creativecommons.org/ns#" xmlns:rdf="http://www.w3.org/1999/02/22-rdf-syntax-ns#">
   <cc:Work>
    <dc:type rdf:resource="http://purl.org/dc/dcmitype/StillImage"/>
    <dc:date>2024-08-25T12:22:13.328747</dc:date>
    <dc:format>image/svg+xml</dc:format>
    <dc:creator>
     <cc:Agent>
      <dc:title>Matplotlib v3.7.1, https://matplotlib.org/</dc:title>
     </cc:Agent>
    </dc:creator>
   </cc:Work>
  </rdf:RDF>
 </metadata>
 <defs>
  <style type="text/css">*{stroke-linejoin: round; stroke-linecap: butt}</style>
 </defs>
 <g id="figure_1">
  <g id="patch_1">
   <path d="M 0 345.6 
L 460.8 345.6 
L 460.8 0 
L 0 0 
z
" style="fill: #ffffff"/>
  </g>
  <g id="axes_1">
   <g id="patch_2">
    <path d="M 57.6 307.584 
L 414.72 307.584 
L 414.72 41.472 
L 57.6 41.472 
z
" style="fill: #ffffff"/>
   </g>
   <g id="matplotlib.axis_1">
    <g id="xtick_1">
     <g id="line2d_1">
      <defs>
       <path id="m04aa6cfedc" d="M 0 0 
L 0 3.5 
" style="stroke: #000000; stroke-width: 0.8"/>
      </defs>
      <g>
       <use xlink:href="#m04aa6cfedc" x="73.832727" y="307.584" style="stroke: #000000; stroke-width: 0.8"/>
      </g>
     </g>
     <g id="text_1">
      <!-- 0 -->
      <g transform="translate(70.651477 322.182437) scale(0.1 -0.1)">
       <defs>
        <path id="DejaVuSans-30" d="M 2034 4250 
Q 1547 4250 1301 3770 
Q 1056 3291 1056 2328 
Q 1056 1369 1301 889 
Q 1547 409 2034 409 
Q 2525 409 2770 889 
Q 3016 1369 3016 2328 
Q 3016 3291 2770 3770 
Q 2525 4250 2034 4250 
z
M 2034 4750 
Q 2819 4750 3233 4129 
Q 3647 3509 3647 2328 
Q 3647 1150 3233 529 
Q 2819 -91 2034 -91 
Q 1250 -91 836 529 
Q 422 1150 422 2328 
Q 422 3509 836 4129 
Q 1250 4750 2034 4750 
z
" transform="scale(0.015625)"/>
       </defs>
       <use xlink:href="#DejaVuSans-30"/>
      </g>
     </g>
    </g>
    <g id="xtick_2">
     <g id="line2d_2">
      <g>
       <use xlink:href="#m04aa6cfedc" x="137.303802" y="307.584" style="stroke: #000000; stroke-width: 0.8"/>
      </g>
     </g>
     <g id="text_2">
      <!-- 200 -->
      <g transform="translate(127.760052 322.182437) scale(0.1 -0.1)">
       <defs>
        <path id="DejaVuSans-32" d="M 1228 531 
L 3431 531 
L 3431 0 
L 469 0 
L 469 531 
Q 828 903 1448 1529 
Q 2069 2156 2228 2338 
Q 2531 2678 2651 2914 
Q 2772 3150 2772 3378 
Q 2772 3750 2511 3984 
Q 2250 4219 1831 4219 
Q 1534 4219 1204 4116 
Q 875 4013 500 3803 
L 500 4441 
Q 881 4594 1212 4672 
Q 1544 4750 1819 4750 
Q 2544 4750 2975 4387 
Q 3406 4025 3406 3419 
Q 3406 3131 3298 2873 
Q 3191 2616 2906 2266 
Q 2828 2175 2409 1742 
Q 1991 1309 1228 531 
z
" transform="scale(0.015625)"/>
       </defs>
       <use xlink:href="#DejaVuSans-32"/>
       <use xlink:href="#DejaVuSans-30" x="63.623047"/>
       <use xlink:href="#DejaVuSans-30" x="127.246094"/>
      </g>
     </g>
    </g>
    <g id="xtick_3">
     <g id="line2d_3">
      <g>
       <use xlink:href="#m04aa6cfedc" x="200.774876" y="307.584" style="stroke: #000000; stroke-width: 0.8"/>
      </g>
     </g>
     <g id="text_3">
      <!-- 400 -->
      <g transform="translate(191.231126 322.182437) scale(0.1 -0.1)">
       <defs>
        <path id="DejaVuSans-34" d="M 2419 4116 
L 825 1625 
L 2419 1625 
L 2419 4116 
z
M 2253 4666 
L 3047 4666 
L 3047 1625 
L 3713 1625 
L 3713 1100 
L 3047 1100 
L 3047 0 
L 2419 0 
L 2419 1100 
L 313 1100 
L 313 1709 
L 2253 4666 
z
" transform="scale(0.015625)"/>
       </defs>
       <use xlink:href="#DejaVuSans-34"/>
       <use xlink:href="#DejaVuSans-30" x="63.623047"/>
       <use xlink:href="#DejaVuSans-30" x="127.246094"/>
      </g>
     </g>
    </g>
    <g id="xtick_4">
     <g id="line2d_4">
      <g>
       <use xlink:href="#m04aa6cfedc" x="264.24595" y="307.584" style="stroke: #000000; stroke-width: 0.8"/>
      </g>
     </g>
     <g id="text_4">
      <!-- 600 -->
      <g transform="translate(254.7022 322.182437) scale(0.1 -0.1)">
       <defs>
        <path id="DejaVuSans-36" d="M 2113 2584 
Q 1688 2584 1439 2293 
Q 1191 2003 1191 1497 
Q 1191 994 1439 701 
Q 1688 409 2113 409 
Q 2538 409 2786 701 
Q 3034 994 3034 1497 
Q 3034 2003 2786 2293 
Q 2538 2584 2113 2584 
z
M 3366 4563 
L 3366 3988 
Q 3128 4100 2886 4159 
Q 2644 4219 2406 4219 
Q 1781 4219 1451 3797 
Q 1122 3375 1075 2522 
Q 1259 2794 1537 2939 
Q 1816 3084 2150 3084 
Q 2853 3084 3261 2657 
Q 3669 2231 3669 1497 
Q 3669 778 3244 343 
Q 2819 -91 2113 -91 
Q 1303 -91 875 529 
Q 447 1150 447 2328 
Q 447 3434 972 4092 
Q 1497 4750 2381 4750 
Q 2619 4750 2861 4703 
Q 3103 4656 3366 4563 
z
" transform="scale(0.015625)"/>
       </defs>
       <use xlink:href="#DejaVuSans-36"/>
       <use xlink:href="#DejaVuSans-30" x="63.623047"/>
       <use xlink:href="#DejaVuSans-30" x="127.246094"/>
      </g>
     </g>
    </g>
    <g id="xtick_5">
     <g id="line2d_5">
      <g>
       <use xlink:href="#m04aa6cfedc" x="327.717025" y="307.584" style="stroke: #000000; stroke-width: 0.8"/>
      </g>
     </g>
     <g id="text_5">
      <!-- 800 -->
      <g transform="translate(318.173275 322.182437) scale(0.1 -0.1)">
       <defs>
        <path id="DejaVuSans-38" d="M 2034 2216 
Q 1584 2216 1326 1975 
Q 1069 1734 1069 1313 
Q 1069 891 1326 650 
Q 1584 409 2034 409 
Q 2484 409 2743 651 
Q 3003 894 3003 1313 
Q 3003 1734 2745 1975 
Q 2488 2216 2034 2216 
z
M 1403 2484 
Q 997 2584 770 2862 
Q 544 3141 544 3541 
Q 544 4100 942 4425 
Q 1341 4750 2034 4750 
Q 2731 4750 3128 4425 
Q 3525 4100 3525 3541 
Q 3525 3141 3298 2862 
Q 3072 2584 2669 2484 
Q 3125 2378 3379 2068 
Q 3634 1759 3634 1313 
Q 3634 634 3220 271 
Q 2806 -91 2034 -91 
Q 1263 -91 848 271 
Q 434 634 434 1313 
Q 434 1759 690 2068 
Q 947 2378 1403 2484 
z
M 1172 3481 
Q 1172 3119 1398 2916 
Q 1625 2713 2034 2713 
Q 2441 2713 2670 2916 
Q 2900 3119 2900 3481 
Q 2900 3844 2670 4047 
Q 2441 4250 2034 4250 
Q 1625 4250 1398 4047 
Q 1172 3844 1172 3481 
z
" transform="scale(0.015625)"/>
       </defs>
       <use xlink:href="#DejaVuSans-38"/>
       <use xlink:href="#DejaVuSans-30" x="63.623047"/>
       <use xlink:href="#DejaVuSans-30" x="127.246094"/>
      </g>
     </g>
    </g>
    <g id="xtick_6">
     <g id="line2d_6">
      <g>
       <use xlink:href="#m04aa6cfedc" x="391.188099" y="307.584" style="stroke: #000000; stroke-width: 0.8"/>
      </g>
     </g>
     <g id="text_6">
      <!-- 1000 -->
      <g transform="translate(378.463099 322.182437) scale(0.1 -0.1)">
       <defs>
        <path id="DejaVuSans-31" d="M 794 531 
L 1825 531 
L 1825 4091 
L 703 3866 
L 703 4441 
L 1819 4666 
L 2450 4666 
L 2450 531 
L 3481 531 
L 3481 0 
L 794 0 
L 794 531 
z
" transform="scale(0.015625)"/>
       </defs>
       <use xlink:href="#DejaVuSans-31"/>
       <use xlink:href="#DejaVuSans-30" x="63.623047"/>
       <use xlink:href="#DejaVuSans-30" x="127.246094"/>
       <use xlink:href="#DejaVuSans-30" x="190.869141"/>
      </g>
     </g>
    </g>
    <g id="text_7">
     <!-- n -->
     <g transform="translate(232.99125 335.860562) scale(0.1 -0.1)">
      <defs>
       <path id="DejaVuSans-6e" d="M 3513 2113 
L 3513 0 
L 2938 0 
L 2938 2094 
Q 2938 2591 2744 2837 
Q 2550 3084 2163 3084 
Q 1697 3084 1428 2787 
Q 1159 2491 1159 1978 
L 1159 0 
L 581 0 
L 581 3500 
L 1159 3500 
L 1159 2956 
Q 1366 3272 1645 3428 
Q 1925 3584 2291 3584 
Q 2894 3584 3203 3211 
Q 3513 2838 3513 2113 
z
" transform="scale(0.015625)"/>
      </defs>
      <use xlink:href="#DejaVuSans-6e"/>
     </g>
    </g>
   </g>
   <g id="matplotlib.axis_2">
    <g id="ytick_1">
     <g id="line2d_7">
      <defs>
       <path id="mf75474fa9b" d="M 0 0 
L -3.5 0 
" style="stroke: #000000; stroke-width: 0.8"/>
      </defs>
      <g>
       <use xlink:href="#mf75474fa9b" x="57.6" y="276.520049" style="stroke: #000000; stroke-width: 0.8"/>
      </g>
     </g>
     <g id="text_8">
      <!-- −4 -->
      <g transform="translate(35.857813 280.319268) scale(0.1 -0.1)">
       <defs>
        <path id="DejaVuSans-2212" d="M 678 2272 
L 4684 2272 
L 4684 1741 
L 678 1741 
L 678 2272 
z
" transform="scale(0.015625)"/>
       </defs>
       <use xlink:href="#DejaVuSans-2212"/>
       <use xlink:href="#DejaVuSans-34" x="83.789062"/>
      </g>
     </g>
    </g>
    <g id="ytick_2">
     <g id="line2d_8">
      <g>
       <use xlink:href="#mf75474fa9b" x="57.6" y="225.581623" style="stroke: #000000; stroke-width: 0.8"/>
      </g>
     </g>
     <g id="text_9">
      <!-- −2 -->
      <g transform="translate(35.857813 229.380842) scale(0.1 -0.1)">
       <use xlink:href="#DejaVuSans-2212"/>
       <use xlink:href="#DejaVuSans-32" x="83.789062"/>
      </g>
     </g>
    </g>
    <g id="ytick_3">
     <g id="line2d_9">
      <g>
       <use xlink:href="#mf75474fa9b" x="57.6" y="174.643196" style="stroke: #000000; stroke-width: 0.8"/>
      </g>
     </g>
     <g id="text_10">
      <!-- 0 -->
      <g transform="translate(44.2375 178.442415) scale(0.1 -0.1)">
       <use xlink:href="#DejaVuSans-30"/>
      </g>
     </g>
    </g>
    <g id="ytick_4">
     <g id="line2d_10">
      <g>
       <use xlink:href="#mf75474fa9b" x="57.6" y="123.70477" style="stroke: #000000; stroke-width: 0.8"/>
      </g>
     </g>
     <g id="text_11">
      <!-- 2 -->
      <g transform="translate(44.2375 127.503989) scale(0.1 -0.1)">
       <use xlink:href="#DejaVuSans-32"/>
      </g>
     </g>
    </g>
    <g id="ytick_5">
     <g id="line2d_11">
      <g>
       <use xlink:href="#mf75474fa9b" x="57.6" y="72.766343" style="stroke: #000000; stroke-width: 0.8"/>
      </g>
     </g>
     <g id="text_12">
      <!-- 4 -->
      <g transform="translate(44.2375 76.565562) scale(0.1 -0.1)">
       <use xlink:href="#DejaVuSans-34"/>
      </g>
     </g>
    </g>
    <g id="text_13">
     <!-- E*t -->
     <g transform="translate(29.778125 182.147531) rotate(-90) scale(0.1 -0.1)">
      <defs>
       <path id="DejaVuSans-45" d="M 628 4666 
L 3578 4666 
L 3578 4134 
L 1259 4134 
L 1259 2753 
L 3481 2753 
L 3481 2222 
L 1259 2222 
L 1259 531 
L 3634 531 
L 3634 0 
L 628 0 
L 628 4666 
z
" transform="scale(0.015625)"/>
       <path id="DejaVuSans-2a" d="M 3009 3897 
L 1888 3291 
L 3009 2681 
L 2828 2375 
L 1778 3009 
L 1778 1831 
L 1422 1831 
L 1422 3009 
L 372 2375 
L 191 2681 
L 1313 3291 
L 191 3897 
L 372 4206 
L 1422 3572 
L 1422 4750 
L 1778 4750 
L 1778 3572 
L 2828 4206 
L 3009 3897 
z
" transform="scale(0.015625)"/>
       <path id="DejaVuSans-74" d="M 1172 4494 
L 1172 3500 
L 2356 3500 
L 2356 3053 
L 1172 3053 
L 1172 1153 
Q 1172 725 1289 603 
Q 1406 481 1766 481 
L 2356 481 
L 2356 0 
L 1766 0 
Q 1100 0 847 248 
Q 594 497 594 1153 
L 594 3053 
L 172 3053 
L 172 3500 
L 594 3500 
L 594 4494 
L 1172 4494 
z
" transform="scale(0.015625)"/>
      </defs>
      <use xlink:href="#DejaVuSans-45"/>
      <use xlink:href="#DejaVuSans-2a" x="63.183594"/>
      <use xlink:href="#DejaVuSans-74" x="113.183594"/>
     </g>
    </g>
   </g>
   <g id="line2d_12">
    <path d="M 73.832727 295.488 
L 74.150083 295.454047 
L 74.467438 294.73071 
L 75.102149 294.44309 
L 75.419504 294.33286 
L 75.73686 294.101143 
L 76.054215 293.704817 
L 76.37157 293.605628 
L 77.006281 292.899793 
L 77.323636 292.781883 
L 77.640992 292.040449 
L 77.958347 290.727264 
L 78.275702 290.550711 
L 78.593058 290.010254 
L 78.910413 289.776108 
L 79.862479 289.595874 
L 80.179835 288.902113 
L 80.49719 288.838532 
L 81.449256 288.0638 
L 82.083967 286.495668 
L 83.036033 286.278185 
L 83.353388 285.787298 
L 83.670744 285.701811 
L 83.988099 285.115074 
L 84.305455 284.961601 
L 85.257521 284.831717 
L 86.209587 284.265849 
L 86.526942 282.93172 
L 87.796364 282.33749 
L 88.113719 281.892195 
L 89.065785 281.462063 
L 89.38314 280.951119 
L 89.700496 280.944492 
L 90.017851 280.439456 
L 90.969917 280.32595 
L 91.921983 280.047744 
L 92.239339 279.608813 
L 92.87405 279.450106 
L 93.191405 279.157092 
L 93.50876 278.257964 
L 94.143471 277.88147 
L 95.730248 277.570924 
L 96.047603 277.307258 
L 96.364959 276.729872 
L 96.682314 276.728671 
L 96.999669 276.514813 
L 97.63438 275.769577 
L 97.951736 275.742815 
L 98.903802 275.166662 
L 99.221157 274.706753 
L 99.538512 274.490416 
L 99.855868 273.547789 
L 101.125289 273.426004 
L 101.76 273.118112 
L 102.712066 272.77442 
L 103.029421 272.232453 
L 103.346777 271.974791 
L 103.664132 271.483163 
L 104.616198 271.256584 
L 104.933554 270.53713 
L 105.250909 270.396328 
L 105.88562 269.065714 
L 106.202975 269.020971 
L 106.520331 268.683056 
L 106.837686 268.663429 
L 107.155041 268.134109 
L 107.472397 267.982298 
L 108.107107 266.710289 
L 108.424463 266.672172 
L 108.741818 266.419682 
L 109.376529 266.353025 
L 109.693884 265.325502 
L 110.328595 264.532209 
L 110.64595 264.258188 
L 110.963306 264.175896 
L 111.280661 263.901546 
L 111.598017 263.881392 
L 111.915372 262.494806 
L 112.550083 262.393093 
L 113.184793 262.101361 
L 113.502149 261.595783 
L 113.819504 260.79755 
L 114.77157 260.563979 
L 115.088926 259.236233 
L 116.358347 258.175092 
L 117.310413 256.877088 
L 117.627769 256.644326 
L 117.945124 256.604629 
L 118.262479 256.362379 
L 118.579835 256.283332 
L 118.89719 255.93907 
L 119.849256 254.141797 
L 120.166612 253.776169 
L 121.118678 253.246714 
L 121.436033 252.781002 
L 122.070744 252.542359 
L 123.02281 252.384133 
L 123.340165 252.245158 
L 123.657521 251.87721 
L 123.974876 251.834927 
L 124.292231 251.679566 
L 124.926942 250.569673 
L 125.244298 249.470906 
L 126.196364 249.272351 
L 126.513719 248.842933 
L 127.465785 248.479594 
L 127.78314 248.204263 
L 128.100496 248.173079 
L 128.417851 248.000758 
L 128.735207 247.986718 
L 129.369917 247.419719 
L 129.687273 247.197241 
L 130.004628 246.569216 
L 130.956694 246.024593 
L 131.27405 245.000583 
L 131.90876 244.485454 
L 132.226116 244.458841 
L 132.543471 243.841443 
L 133.178182 243.376592 
L 133.812893 243.238215 
L 134.130248 242.879284 
L 134.447603 242.713878 
L 134.764959 242.364437 
L 135.082314 242.297417 
L 135.399669 241.446516 
L 136.669091 240.764375 
L 136.986446 240.112697 
L 137.303802 239.992089 
L 137.621157 239.635334 
L 138.255868 239.492915 
L 138.573223 239.071633 
L 138.890579 238.434048 
L 139.525289 238.355621 
L 139.842645 238.184901 
L 140.794711 238.033204 
L 141.112066 237.950824 
L 141.429421 237.644345 
L 141.746777 236.890322 
L 142.381488 236.685249 
L 142.698843 236.275369 
L 143.333554 236.081102 
L 143.650909 235.706725 
L 143.968264 235.557806 
L 144.28562 235.177349 
L 144.602975 235.042786 
L 145.237686 234.933235 
L 145.555041 234.622402 
L 145.872397 234.111282 
L 146.507107 233.684827 
L 146.824463 233.592677 
L 147.141818 233.216954 
L 148.093884 232.939955 
L 149.04595 232.645803 
L 149.363306 232.504241 
L 149.680661 232.499627 
L 150.315372 231.8263 
L 150.632727 230.784914 
L 150.950083 230.761933 
L 151.267438 230.26397 
L 151.902149 229.823983 
L 152.53686 229.724963 
L 152.854215 229.079291 
L 153.17157 228.852328 
L 153.806281 228.658749 
L 154.123636 228.47657 
L 154.440992 228.45367 
L 154.758347 228.183713 
L 155.393058 228.109754 
L 155.710413 227.946366 
L 156.027769 227.919162 
L 156.345124 227.736529 
L 156.662479 227.321358 
L 156.979835 226.622437 
L 157.614545 226.046623 
L 157.931901 225.987762 
L 158.249256 225.260603 
L 159.201322 224.977469 
L 159.836033 224.77208 
L 160.153388 224.253551 
L 161.740165 223.725077 
L 162.057521 223.363744 
L 162.374876 223.187669 
L 162.692231 223.154053 
L 163.009587 222.607115 
L 163.326942 222.594838 
L 164.279008 222.177469 
L 165.865785 220.410751 
L 166.500496 220.369338 
L 167.135207 219.652275 
L 168.087273 219.487141 
L 169.039339 219.071372 
L 169.356694 218.599823 
L 169.67405 218.560158 
L 169.991405 217.902597 
L 170.943471 217.752911 
L 171.260826 217.445956 
L 171.578182 216.702749 
L 172.212893 216.101827 
L 172.530248 216.019118 
L 172.847603 215.641302 
L 173.164959 215.573022 
L 173.482314 215.165944 
L 173.799669 215.111358 
L 174.117025 214.891173 
L 174.43438 214.836751 
L 174.751736 214.402377 
L 175.386446 214.103312 
L 175.703802 213.797216 
L 176.021157 213.713295 
L 176.338512 212.922728 
L 177.607934 212.574813 
L 177.925289 212.215716 
L 178.242645 211.643902 
L 178.56 211.333281 
L 178.877355 210.557541 
L 179.194711 210.403669 
L 180.146777 209.539967 
L 180.464132 209.441197 
L 180.781488 209.096255 
L 181.733554 208.917562 
L 182.368264 208.581255 
L 183.002975 208.459823 
L 183.637686 207.791751 
L 183.955041 207.766704 
L 184.272397 206.570743 
L 184.589752 206.314101 
L 184.907107 205.761109 
L 185.859174 205.688886 
L 186.176529 205.402643 
L 186.493884 205.357063 
L 187.128595 205.067867 
L 187.44595 204.718372 
L 187.763306 204.678649 
L 188.080661 204.327403 
L 188.398017 204.1562 
L 188.715372 203.647244 
L 189.350083 203.496779 
L 189.667438 203.251968 
L 190.302149 202.549626 
L 190.619504 202.49784 
L 191.254215 201.990119 
L 191.57157 201.924067 
L 191.888926 201.359138 
L 192.523636 200.995194 
L 193.158347 200.641279 
L 193.475702 200.613386 
L 193.793058 200.29793 
L 194.110413 199.662932 
L 194.427769 198.722515 
L 194.745124 198.324115 
L 195.062479 198.25647 
L 195.379835 197.768315 
L 196.014545 197.631405 
L 196.331901 197.153571 
L 196.966612 195.886863 
L 197.283967 195.775337 
L 197.601322 195.429429 
L 198.236033 195.27032 
L 199.188099 194.211015 
L 199.82281 194.08609 
L 200.457521 193.692309 
L 200.774876 193.488972 
L 201.409587 192.393686 
L 202.361653 191.659087 
L 202.679008 191.202138 
L 203.631074 190.702737 
L 204.265785 190.526325 
L 204.900496 189.754216 
L 205.535207 189.638016 
L 206.169917 189.301174 
L 206.804628 189.237204 
L 207.121983 188.73198 
L 208.07405 188.098508 
L 208.391405 188.073913 
L 208.70876 187.643386 
L 209.026116 187.406077 
L 209.343471 186.966365 
L 209.660826 186.895144 
L 209.978182 186.457633 
L 210.295537 186.437789 
L 210.930248 185.677655 
L 212.199669 185.008754 
L 213.151736 184.533584 
L 214.103802 184.49875 
L 214.421157 183.949201 
L 214.738512 183.73379 
L 215.055868 183.653275 
L 216.007934 182.947484 
L 216.96 182.880076 
L 217.277355 182.251295 
L 217.594711 182.202319 
L 217.912066 181.629502 
L 219.498843 181.145899 
L 220.450909 180.247107 
L 221.720331 179.587435 
L 222.355041 179.249849 
L 222.672397 178.898437 
L 223.307107 178.745567 
L 223.941818 178.486653 
L 224.259174 178.474942 
L 225.21124 178.182359 
L 225.528595 178.12884 
L 225.84595 177.338421 
L 226.480661 177.152652 
L 226.798017 176.935541 
L 227.115372 176.904442 
L 227.432727 176.567772 
L 227.750083 176.543164 
L 228.067438 175.696816 
L 228.384793 175.639321 
L 229.33686 174.870585 
L 229.654215 174.217731 
L 229.97157 174.184075 
L 230.288926 173.79233 
L 231.240992 173.515578 
L 231.558347 173.450287 
L 231.875702 173.170165 
L 232.193058 172.576585 
L 232.510413 172.325034 
L 233.145124 172.163381 
L 233.779835 171.811457 
L 234.09719 171.25297 
L 234.414545 171.218081 
L 235.683967 170.562235 
L 236.001322 170.531116 
L 236.636033 170.234142 
L 236.953388 170.128208 
L 237.588099 169.669499 
L 240.444298 168.777682 
L 241.079008 168.636711 
L 241.396364 168.539965 
L 242.665785 166.639508 
L 244.252562 165.755382 
L 244.887273 165.688371 
L 245.204628 165.316647 
L 245.521983 165.232136 
L 246.156694 164.674409 
L 246.47405 164.611753 
L 246.791405 164.412325 
L 247.426116 164.335696 
L 248.695537 164.028166 
L 249.012893 163.60193 
L 249.330248 163.556148 
L 249.647603 163.224184 
L 249.964959 163.136957 
L 250.282314 162.758077 
L 250.599669 162.73256 
L 250.917025 162.391299 
L 251.23438 161.717445 
L 252.186446 161.144515 
L 252.503802 160.873664 
L 253.455868 160.695227 
L 253.773223 160.603893 
L 254.090579 160.032083 
L 255.042645 159.569288 
L 255.36 159.265598 
L 255.677355 159.16969 
L 255.994711 158.829268 
L 256.312066 158.79989 
L 256.629421 158.247273 
L 256.946777 158.069299 
L 257.581488 157.997603 
L 257.898843 157.480236 
L 258.216198 157.469225 
L 258.533554 157.213066 
L 258.850909 157.178714 
L 259.802975 156.562783 
L 260.120331 156.105536 
L 261.072397 155.842961 
L 261.707107 155.121912 
L 262.024463 155.062703 
L 262.341818 154.784245 
L 262.659174 154.686577 
L 262.976529 154.428826 
L 263.293884 154.40695 
L 263.61124 154.006642 
L 263.928595 153.94164 
L 264.24595 153.484647 
L 264.563306 153.47427 
L 268.054215 151.27363 
L 268.688926 151.179109 
L 269.006281 150.651145 
L 269.323636 150.364916 
L 269.640992 150.299191 
L 270.275702 149.815609 
L 271.227769 149.178358 
L 272.179835 149.059202 
L 272.49719 148.435002 
L 273.131901 148.259188 
L 273.449256 147.910745 
L 273.766612 147.854821 
L 274.401322 147.510256 
L 274.718678 147.499394 
L 275.036033 147.165576 
L 275.670744 147.020091 
L 275.988099 146.984744 
L 276.62281 145.889849 
L 276.940165 145.820962 
L 277.574876 145.139037 
L 278.209587 144.982597 
L 278.526942 144.487427 
L 279.161653 144.317351 
L 279.796364 144.218416 
L 280.431074 143.677616 
L 280.74843 143.670018 
L 281.38314 143.280423 
L 281.700496 142.298855 
L 282.017851 142.295017 
L 282.335207 142.169284 
L 282.652562 141.790424 
L 282.969917 141.737138 
L 283.604628 140.670401 
L 284.239339 140.321004 
L 285.191405 139.645458 
L 285.50876 139.602179 
L 285.826116 139.160855 
L 286.143471 139.074688 
L 286.460826 138.719879 
L 287.095537 138.662774 
L 287.730248 138.28673 
L 288.047603 138.227244 
L 288.364959 137.792601 
L 289.63438 137.126674 
L 289.951736 136.782327 
L 291.221157 136.329303 
L 292.173223 135.662719 
L 292.490579 135.638932 
L 292.807934 135.207713 
L 293.125289 135.176679 
L 293.442645 134.680722 
L 293.76 134.596654 
L 294.394711 133.980718 
L 294.712066 133.954313 
L 295.029421 133.728428 
L 296.298843 133.396635 
L 296.616198 133.031853 
L 296.933554 132.991993 
L 297.568264 132.504007 
L 298.202975 132.355166 
L 298.837686 131.568953 
L 299.472397 131.137782 
L 299.789752 130.662007 
L 300.107107 130.627043 
L 300.424463 130.194894 
L 300.741818 130.023161 
L 301.059174 129.55941 
L 301.376529 129.411295 
L 301.693884 128.724463 
L 302.328595 128.583387 
L 302.64595 128.233405 
L 302.963306 128.19559 
L 304.232727 127.487375 
L 304.867438 127.318374 
L 305.184793 126.973212 
L 305.502149 126.334912 
L 305.819504 126.259144 
L 306.77157 125.635094 
L 307.406281 124.278319 
L 307.723636 124.268586 
L 308.358347 123.801 
L 308.675702 123.711433 
L 308.993058 123.455707 
L 309.627769 123.433385 
L 309.945124 122.955055 
L 310.579835 122.935487 
L 310.89719 122.720021 
L 311.214545 122.714995 
L 311.531901 122.553603 
L 311.849256 121.773775 
L 312.166612 121.336694 
L 312.801322 121.00345 
L 313.118678 120.805778 
L 313.436033 120.327916 
L 314.388099 120.148483 
L 314.705455 119.613005 
L 315.02281 119.48732 
L 315.974876 118.69058 
L 316.292231 118.579901 
L 316.609587 118.173366 
L 317.244298 117.72873 
L 317.879008 117.005994 
L 318.513719 116.188747 
L 318.831074 116.040273 
L 319.14843 116.021387 
L 319.465785 115.667193 
L 320.100496 115.448782 
L 320.417851 114.747691 
L 321.369917 114.677677 
L 322.004628 114.166339 
L 322.321983 113.330442 
L 322.956694 113.05841 
L 323.90876 112.51537 
L 324.226116 112.352524 
L 324.860826 110.907214 
L 325.178182 110.641028 
L 325.495537 110.18435 
L 325.812893 109.969065 
L 326.447603 109.904116 
L 326.764959 109.674764 
L 327.717025 108.656481 
L 328.03438 108.633146 
L 328.669091 108.390087 
L 328.986446 108.373287 
L 329.303802 107.813405 
L 329.621157 107.78807 
L 329.938512 107.312732 
L 330.890579 107.120961 
L 333.746777 104.418913 
L 334.381488 103.62317 
L 334.698843 103.546946 
L 335.333554 102.51512 
L 338.189752 102.013795 
L 338.507107 101.273452 
L 338.824463 101.216256 
L 339.776529 100.606249 
L 340.093884 100.484558 
L 340.41124 99.939201 
L 341.04595 99.654221 
L 341.363306 99.181168 
L 342.315372 98.646911 
L 342.632727 98.131583 
L 342.950083 98.021091 
L 343.267438 97.746741 
L 344.219504 97.624708 
L 344.53686 97.288686 
L 344.854215 97.255715 
L 345.488926 97.035213 
L 345.806281 96.962828 
L 346.123636 96.745333 
L 346.758347 96.49389 
L 347.075702 96.208742 
L 347.710413 96.142856 
L 348.027769 95.06804 
L 348.345124 94.771435 
L 349.29719 94.507389 
L 349.931901 94.010419 
L 350.249256 93.921518 
L 350.566612 93.269043 
L 350.883967 93.257023 
L 351.201322 92.991521 
L 351.518678 92.940604 
L 352.153388 92.33156 
L 352.788099 92.007527 
L 353.105455 91.346503 
L 353.740165 90.787039 
L 354.692231 90.340961 
L 355.326942 90.194708 
L 356.279008 89.199926 
L 356.596364 89.158368 
L 357.231074 88.533584 
L 357.865785 87.200464 
L 358.500496 86.582084 
L 358.817851 86.380663 
L 359.135207 85.702883 
L 360.087273 85.384459 
L 360.721983 85.1188 
L 361.356694 84.852792 
L 361.67405 84.512113 
L 361.991405 84.44032 
L 362.626116 84.003613 
L 362.943471 83.273677 
L 363.578182 83.180581 
L 363.895537 82.795444 
L 364.212893 82.649409 
L 364.530248 82.085302 
L 364.847603 81.844179 
L 365.482314 81.579759 
L 367.386446 80.265711 
L 367.703802 79.750301 
L 368.655868 79.554669 
L 368.973223 79.24263 
L 369.290579 78.558506 
L 369.607934 78.269105 
L 369.925289 77.214766 
L 370.56 76.995659 
L 371.512066 76.428727 
L 371.829421 76.040777 
L 372.146777 75.978203 
L 372.464132 75.767526 
L 372.781488 75.121478 
L 373.098843 74.917793 
L 373.733554 74.866804 
L 375.320331 72.87383 
L 375.637686 72.868253 
L 376.272397 72.452462 
L 377.224463 71.605129 
L 377.541818 71.002519 
L 378.176529 70.647505 
L 378.493884 70.526132 
L 378.81124 70.038206 
L 379.128595 69.837383 
L 379.763306 68.922112 
L 380.080661 68.852346 
L 380.398017 68.540358 
L 380.715372 68.447191 
L 381.350083 67.864711 
L 381.667438 67.704416 
L 381.984793 67.304926 
L 382.302149 67.208809 
L 382.93686 66.702974 
L 383.254215 66.665725 
L 383.888926 66.172337 
L 384.206281 66.035113 
L 384.840992 65.404295 
L 385.475702 65.047754 
L 385.793058 64.537114 
L 386.110413 64.460004 
L 388.014545 63.021036 
L 388.331901 62.95208 
L 389.283967 61.921052 
L 389.601322 61.768858 
L 390.236033 61.120072 
L 390.870744 60.783716 
L 391.188099 60.24207 
L 391.505455 60.122254 
L 392.140165 59.451193 
L 392.774876 59.376762 
L 393.092231 58.904915 
L 394.044298 58.334017 
L 394.361653 57.752005 
L 394.679008 57.649023 
L 395.313719 57.097379 
L 396.265785 55.693143 
L 397.535207 55.066558 
L 398.169917 54.415135 
L 398.487273 53.568 
L 398.487273 53.568 
" clip-path="url(#p9ca5792eaf)" style="fill: none; stroke: #1f77b4; stroke-width: 1.5; stroke-linecap: square"/>
   </g>
   <g id="line2d_13">
    <path d="M 73.832727 289.658152 
L 74.150083 289.658152 
L 74.467438 286.900602 
L 74.784793 276.670393 
L 75.102149 273.972651 
L 75.73686 273.972651 
L 76.054215 269.113155 
L 76.37157 260.909652 
L 76.688926 260.406344 
L 77.006281 260.406344 
L 77.323636 259.136994 
L 78.910413 259.136994 
L 79.227769 254.508916 
L 79.545124 254.508916 
L 79.862479 252.833567 
L 80.179835 251.798512 
L 80.49719 251.798512 
L 80.814545 246.68086 
L 81.131901 244.27194 
L 82.083967 244.230521 
L 82.401322 242.804815 
L 86.844298 242.723868 
L 87.161653 241.943226 
L 87.479008 238.234835 
L 87.796364 237.415046 
L 88.113719 236.131241 
L 89.700496 236.131241 
L 90.017851 234.490919 
L 90.652562 234.490919 
L 90.969917 232.585441 
L 91.287273 232.585441 
L 91.604628 231.592836 
L 91.921983 229.039703 
L 99.221157 229.039703 
L 99.538512 227.518378 
L 99.855868 227.518378 
L 100.173223 227.158519 
L 101.76 227.158519 
L 102.077355 225.581623 
L 103.664132 225.581623 
L 103.981488 225.225934 
L 104.298843 224.61108 
L 104.933554 224.61108 
L 105.250909 222.448581 
L 106.202975 222.339596 
L 106.520331 217.45919 
L 107.155041 216.976971 
L 107.472397 216.976971 
L 107.789752 215.853154 
L 109.376529 215.853154 
L 109.693884 213.386747 
L 110.01124 213.386747 
L 110.328595 210.662141 
L 129.369917 210.662028 
L 129.687273 209.113728 
L 130.321983 207.657537 
L 131.27405 207.564696 
L 131.591405 206.298115 
L 131.90876 206.298115 
L 132.226116 206.008744 
L 132.860826 206.008744 
L 133.178182 203.570489 
L 133.495537 203.570489 
L 133.812893 203.059921 
L 135.399669 203.059921 
L 135.717025 200.980625 
L 136.03438 200.700243 
L 136.351736 200.230776 
L 136.986446 200.11241 
L 163.009587 200.11241 
L 163.326942 197.954367 
L 167.135207 197.954367 
L 167.452562 197.559974 
L 167.769917 197.559974 
L 168.087273 194.889116 
L 168.404628 194.889116 
L 168.721983 194.176214 
L 169.356694 194.176214 
L 169.67405 193.716167 
L 169.991405 192.614274 
L 171.578182 192.614274 
L 172.212893 191.837361 
L 172.530248 191.837361 
L 172.847603 191.507758 
L 180.146777 191.507758 
L 180.464132 190.940427 
L 180.781488 190.940427 
L 181.098843 190.383941 
L 182.68562 190.383941 
L 183.320331 185.192815 
L 185.541818 185.146638 
L 185.859174 184.845033 
L 186.493884 184.845033 
L 186.81124 184.389467 
L 187.128595 183.247848 
L 187.44595 183.247848 
L 187.763306 182.474642 
L 188.080661 182.474642 
L 188.398017 179.24671 
L 188.715372 174.643196 
L 283.604628 174.643196 
L 284.239339 166.811751 
L 284.556694 166.811751 
L 284.87405 166.038545 
L 285.191405 166.038545 
L 285.50876 164.896926 
L 285.826116 164.44136 
L 286.460826 164.44136 
L 286.778182 164.139755 
L 288.999669 164.093578 
L 289.63438 158.902452 
L 291.221157 158.902452 
L 291.538512 158.345965 
L 291.855868 158.345965 
L 292.173223 157.778635 
L 299.472397 157.778635 
L 299.789752 157.449032 
L 300.107107 157.449032 
L 300.741818 156.672119 
L 302.328595 156.672119 
L 302.64595 155.570226 
L 302.963306 155.110178 
L 303.598017 155.110178 
L 303.915372 154.397277 
L 304.232727 154.397277 
L 304.550083 151.726419 
L 304.867438 151.726419 
L 305.184793 151.332026 
L 308.993058 151.332026 
L 309.310413 149.173983 
L 335.650909 149.173983 
L 335.968264 149.055617 
L 336.602975 148.305768 
L 336.920331 146.226472 
L 338.507107 146.226472 
L 338.824463 145.715904 
L 339.141818 145.715904 
L 339.459174 143.277649 
L 340.093884 143.277649 
L 340.41124 142.988278 
L 340.728595 142.988278 
L 341.04595 141.721697 
L 341.680661 141.628856 
L 341.998017 141.628856 
L 342.315372 141.065241 
L 342.632727 140.172665 
L 342.950083 138.624365 
L 361.991405 138.624252 
L 362.30876 135.899646 
L 362.626116 135.899646 
L 362.943471 133.433239 
L 364.530248 133.433239 
L 364.847603 132.309422 
L 365.164959 132.309422 
L 365.799669 131.827203 
L 366.117025 126.946797 
L 367.069091 126.837812 
L 367.386446 124.675313 
L 368.021157 124.675313 
L 368.338512 124.060459 
L 368.655868 123.70477 
L 370.242645 123.70477 
L 370.56 122.127874 
L 372.146777 122.127874 
L 372.464132 121.768015 
L 372.781488 121.768015 
L 373.098843 120.24669 
L 380.398017 120.24669 
L 380.715372 117.693557 
L 381.032727 116.700952 
L 381.350083 116.700952 
L 381.667438 114.795474 
L 382.302149 114.795474 
L 382.619504 113.155151 
L 384.206281 113.155151 
L 384.523636 111.871347 
L 384.840992 111.051558 
L 385.158347 107.343167 
L 385.475702 106.562525 
L 389.918678 106.481578 
L 390.236033 105.055872 
L 391.188099 105.014453 
L 391.505455 102.605533 
L 391.82281 97.487881 
L 392.140165 97.487881 
L 392.457521 96.452826 
L 392.774876 94.777477 
L 393.092231 94.777477 
L 393.409587 90.149399 
L 394.996364 90.149399 
L 395.313719 88.880049 
L 395.631074 88.880049 
L 395.94843 88.376741 
L 396.265785 80.173238 
L 396.58314 75.313742 
L 397.217851 75.313742 
L 397.535207 72.616 
L 397.852562 62.385791 
L 398.169917 59.628241 
L 398.487273 59.628241 
L 398.487273 59.628241 
" clip-path="url(#p9ca5792eaf)" style="fill: none; stroke: #ff7f0e; stroke-width: 1.5; stroke-linecap: square"/>
   </g>
   <g id="patch_3">
    <path d="M 57.6 307.584 
L 57.6 41.472 
" style="fill: none; stroke: #000000; stroke-width: 0.8; stroke-linejoin: miter; stroke-linecap: square"/>
   </g>
   <g id="patch_4">
    <path d="M 414.72 307.584 
L 414.72 41.472 
" style="fill: none; stroke: #000000; stroke-width: 0.8; stroke-linejoin: miter; stroke-linecap: square"/>
   </g>
   <g id="patch_5">
    <path d="M 57.6 307.584 
L 414.72 307.584 
" style="fill: none; stroke: #000000; stroke-width: 0.8; stroke-linejoin: miter; stroke-linecap: square"/>
   </g>
   <g id="patch_6">
    <path d="M 57.6 41.472 
L 414.72 41.472 
" style="fill: none; stroke: #000000; stroke-width: 0.8; stroke-linejoin: miter; stroke-linecap: square"/>
   </g>
   <g id="legend_1">
    <g id="patch_7">
     <path d="M 64.6 78.82825 
L 129.342187 78.82825 
Q 131.342187 78.82825 131.342187 76.82825 
L 131.342187 48.472 
Q 131.342187 46.472 129.342187 46.472 
L 64.6 46.472 
Q 62.6 46.472 62.6 48.472 
L 62.6 76.82825 
Q 62.6 78.82825 64.6 78.82825 
z
" style="fill: #ffffff; opacity: 0.8; stroke: #cccccc; stroke-linejoin: miter"/>
    </g>
    <g id="line2d_14">
     <path d="M 66.6 54.570437 
L 76.6 54.570437 
L 86.6 54.570437 
" style="fill: none; stroke: #1f77b4; stroke-width: 1.5; stroke-linecap: square"/>
    </g>
    <g id="text_14">
     <!-- qc -->
     <g transform="translate(94.6 58.070437) scale(0.1 -0.1)">
      <defs>
       <path id="DejaVuSans-71" d="M 947 1747 
Q 947 1113 1208 752 
Q 1469 391 1925 391 
Q 2381 391 2643 752 
Q 2906 1113 2906 1747 
Q 2906 2381 2643 2742 
Q 2381 3103 1925 3103 
Q 1469 3103 1208 2742 
Q 947 2381 947 1747 
z
M 2906 525 
Q 2725 213 2448 61 
Q 2172 -91 1784 -91 
Q 1150 -91 751 415 
Q 353 922 353 1747 
Q 353 2572 751 3078 
Q 1150 3584 1784 3584 
Q 2172 3584 2448 3432 
Q 2725 3281 2906 2969 
L 2906 3500 
L 3481 3500 
L 3481 -1331 
L 2906 -1331 
L 2906 525 
z
" transform="scale(0.015625)"/>
       <path id="DejaVuSans-63" d="M 3122 3366 
L 3122 2828 
Q 2878 2963 2633 3030 
Q 2388 3097 2138 3097 
Q 1578 3097 1268 2742 
Q 959 2388 959 1747 
Q 959 1106 1268 751 
Q 1578 397 2138 397 
Q 2388 397 2633 464 
Q 2878 531 3122 666 
L 3122 134 
Q 2881 22 2623 -34 
Q 2366 -91 2075 -91 
Q 1284 -91 818 406 
Q 353 903 353 1747 
Q 353 2603 823 3093 
Q 1294 3584 2113 3584 
Q 2378 3584 2631 3529 
Q 2884 3475 3122 3366 
z
" transform="scale(0.015625)"/>
      </defs>
      <use xlink:href="#DejaVuSans-71"/>
      <use xlink:href="#DejaVuSans-63" x="63.476562"/>
     </g>
    </g>
    <g id="line2d_15">
     <path d="M 66.6 69.248562 
L 76.6 69.248562 
L 86.6 69.248562 
" style="fill: none; stroke: #ff7f0e; stroke-width: 1.5; stroke-linecap: square"/>
    </g>
    <g id="text_15">
     <!-- Trotter -->
     <g transform="translate(94.6 72.748562) scale(0.1 -0.1)">
      <defs>
       <path id="DejaVuSans-54" d="M -19 4666 
L 3928 4666 
L 3928 4134 
L 2272 4134 
L 2272 0 
L 1638 0 
L 1638 4134 
L -19 4134 
L -19 4666 
z
" transform="scale(0.015625)"/>
       <path id="DejaVuSans-72" d="M 2631 2963 
Q 2534 3019 2420 3045 
Q 2306 3072 2169 3072 
Q 1681 3072 1420 2755 
Q 1159 2438 1159 1844 
L 1159 0 
L 581 0 
L 581 3500 
L 1159 3500 
L 1159 2956 
Q 1341 3275 1631 3429 
Q 1922 3584 2338 3584 
Q 2397 3584 2469 3576 
Q 2541 3569 2628 3553 
L 2631 2963 
z
" transform="scale(0.015625)"/>
       <path id="DejaVuSans-6f" d="M 1959 3097 
Q 1497 3097 1228 2736 
Q 959 2375 959 1747 
Q 959 1119 1226 758 
Q 1494 397 1959 397 
Q 2419 397 2687 759 
Q 2956 1122 2956 1747 
Q 2956 2369 2687 2733 
Q 2419 3097 1959 3097 
z
M 1959 3584 
Q 2709 3584 3137 3096 
Q 3566 2609 3566 1747 
Q 3566 888 3137 398 
Q 2709 -91 1959 -91 
Q 1206 -91 779 398 
Q 353 888 353 1747 
Q 353 2609 779 3096 
Q 1206 3584 1959 3584 
z
" transform="scale(0.015625)"/>
       <path id="DejaVuSans-65" d="M 3597 1894 
L 3597 1613 
L 953 1613 
Q 991 1019 1311 708 
Q 1631 397 2203 397 
Q 2534 397 2845 478 
Q 3156 559 3463 722 
L 3463 178 
Q 3153 47 2828 -22 
Q 2503 -91 2169 -91 
Q 1331 -91 842 396 
Q 353 884 353 1716 
Q 353 2575 817 3079 
Q 1281 3584 2069 3584 
Q 2775 3584 3186 3129 
Q 3597 2675 3597 1894 
z
M 3022 2063 
Q 3016 2534 2758 2815 
Q 2500 3097 2075 3097 
Q 1594 3097 1305 2825 
Q 1016 2553 972 2059 
L 3022 2063 
z
" transform="scale(0.015625)"/>
      </defs>
      <use xlink:href="#DejaVuSans-54"/>
      <use xlink:href="#DejaVuSans-72" x="46.333984"/>
      <use xlink:href="#DejaVuSans-6f" x="85.197266"/>
      <use xlink:href="#DejaVuSans-74" x="146.378906"/>
      <use xlink:href="#DejaVuSans-74" x="185.587891"/>
      <use xlink:href="#DejaVuSans-65" x="224.796875"/>
      <use xlink:href="#DejaVuSans-72" x="286.320312"/>
     </g>
    </g>
   </g>
  </g>
 </g>
 <defs>
  <clipPath id="p9ca5792eaf">
   <rect x="57.6" y="41.472" width="357.12" height="266.112"/>
  </clipPath>
 </defs>
</svg>
