<?xml version="1.0" encoding="utf-8" standalone="no"?>
<!DOCTYPE svg PUBLIC "-//W3C//DTD SVG 1.1//EN"
  "http://www.w3.org/Graphics/SVG/1.1/DTD/svg11.dtd">
<svg xmlns:xlink="http://www.w3.org/1999/xlink" width="460.8pt" height="345.6pt" viewBox="0 0 460.8 345.6" xmlns="http://www.w3.org/2000/svg" version="1.1">
 <metadata>
  <rdf:RDF xmlns:dc="http://purl.org/dc/elements/1.1/" xmlns:cc="http://creativecommons.org/ns#" xmlns:rdf="http://www.w3.org/1999/02/22-rdf-syntax-ns#">
   <cc:Work>
    <dc:type rdf:resource="http://purl.org/dc/dcmitype/StillImage"/>
    <dc:date>2024-08-25T10:10:41.403082</dc:date>
    <dc:format>image/svg+xml</dc:format>
    <dc:creator>
     <cc:Agent>
      <dc:title>Matplotlib v3.7.1, https://matplotlib.org/</dc:title>
     </cc:Agent>
    </dc:creator>
   </cc:Work>
  </rdf:RDF>
 </metadata>
 <defs>
  <style type="text/css">*{stroke-linejoin: round; stroke-linecap: butt}</style>
 </defs>
 <g id="figure_1">
  <g id="patch_1">
   <path d="M 0 345.6 
L 460.8 345.6 
L 460.8 0 
L 0 0 
z
" style="fill: #ffffff"/>
  </g>
  <g id="axes_1">
   <g id="patch_2">
    <path d="M 57.6 307.584 
L 414.72 307.584 
L 414.72 41.472 
L 57.6 41.472 
z
" style="fill: #ffffff"/>
   </g>
   <g id="matplotlib.axis_1">
    <g id="xtick_1">
     <g id="line2d_1">
      <defs>
       <path id="mbfee1e7cb2" d="M 0 0 
L 0 3.5 
" style="stroke: #000000; stroke-width: 0.8"/>
      </defs>
      <g>
       <use xlink:href="#mbfee1e7cb2" x="73.832727" y="307.584" style="stroke: #000000; stroke-width: 0.8"/>
      </g>
     </g>
     <g id="text_1">
      <!-- 0 -->
      <g transform="translate(70.651477 322.182437) scale(0.1 -0.1)">
       <defs>
        <path id="DejaVuSans-30" d="M 2034 4250 
Q 1547 4250 1301 3770 
Q 1056 3291 1056 2328 
Q 1056 1369 1301 889 
Q 1547 409 2034 409 
Q 2525 409 2770 889 
Q 3016 1369 3016 2328 
Q 3016 3291 2770 3770 
Q 2525 4250 2034 4250 
z
M 2034 4750 
Q 2819 4750 3233 4129 
Q 3647 3509 3647 2328 
Q 3647 1150 3233 529 
Q 2819 -91 2034 -91 
Q 1250 -91 836 529 
Q 422 1150 422 2328 
Q 422 3509 836 4129 
Q 1250 4750 2034 4750 
z
" transform="scale(0.015625)"/>
       </defs>
       <use xlink:href="#DejaVuSans-30"/>
      </g>
     </g>
    </g>
    <g id="xtick_2">
     <g id="line2d_2">
      <g>
       <use xlink:href="#mbfee1e7cb2" x="137.303802" y="307.584" style="stroke: #000000; stroke-width: 0.8"/>
      </g>
     </g>
     <g id="text_2">
      <!-- 200 -->
      <g transform="translate(127.760052 322.182437) scale(0.1 -0.1)">
       <defs>
        <path id="DejaVuSans-32" d="M 1228 531 
L 3431 531 
L 3431 0 
L 469 0 
L 469 531 
Q 828 903 1448 1529 
Q 2069 2156 2228 2338 
Q 2531 2678 2651 2914 
Q 2772 3150 2772 3378 
Q 2772 3750 2511 3984 
Q 2250 4219 1831 4219 
Q 1534 4219 1204 4116 
Q 875 4013 500 3803 
L 500 4441 
Q 881 4594 1212 4672 
Q 1544 4750 1819 4750 
Q 2544 4750 2975 4387 
Q 3406 4025 3406 3419 
Q 3406 3131 3298 2873 
Q 3191 2616 2906 2266 
Q 2828 2175 2409 1742 
Q 1991 1309 1228 531 
z
" transform="scale(0.015625)"/>
       </defs>
       <use xlink:href="#DejaVuSans-32"/>
       <use xlink:href="#DejaVuSans-30" x="63.623047"/>
       <use xlink:href="#DejaVuSans-30" x="127.246094"/>
      </g>
     </g>
    </g>
    <g id="xtick_3">
     <g id="line2d_3">
      <g>
       <use xlink:href="#mbfee1e7cb2" x="200.774876" y="307.584" style="stroke: #000000; stroke-width: 0.8"/>
      </g>
     </g>
     <g id="text_3">
      <!-- 400 -->
      <g transform="translate(191.231126 322.182437) scale(0.1 -0.1)">
       <defs>
        <path id="DejaVuSans-34" d="M 2419 4116 
L 825 1625 
L 2419 1625 
L 2419 4116 
z
M 2253 4666 
L 3047 4666 
L 3047 1625 
L 3713 1625 
L 3713 1100 
L 3047 1100 
L 3047 0 
L 2419 0 
L 2419 1100 
L 313 1100 
L 313 1709 
L 2253 4666 
z
" transform="scale(0.015625)"/>
       </defs>
       <use xlink:href="#DejaVuSans-34"/>
       <use xlink:href="#DejaVuSans-30" x="63.623047"/>
       <use xlink:href="#DejaVuSans-30" x="127.246094"/>
      </g>
     </g>
    </g>
    <g id="xtick_4">
     <g id="line2d_4">
      <g>
       <use xlink:href="#mbfee1e7cb2" x="264.24595" y="307.584" style="stroke: #000000; stroke-width: 0.8"/>
      </g>
     </g>
     <g id="text_4">
      <!-- 600 -->
      <g transform="translate(254.7022 322.182437) scale(0.1 -0.1)">
       <defs>
        <path id="DejaVuSans-36" d="M 2113 2584 
Q 1688 2584 1439 2293 
Q 1191 2003 1191 1497 
Q 1191 994 1439 701 
Q 1688 409 2113 409 
Q 2538 409 2786 701 
Q 3034 994 3034 1497 
Q 3034 2003 2786 2293 
Q 2538 2584 2113 2584 
z
M 3366 4563 
L 3366 3988 
Q 3128 4100 2886 4159 
Q 2644 4219 2406 4219 
Q 1781 4219 1451 3797 
Q 1122 3375 1075 2522 
Q 1259 2794 1537 2939 
Q 1816 3084 2150 3084 
Q 2853 3084 3261 2657 
Q 3669 2231 3669 1497 
Q 3669 778 3244 343 
Q 2819 -91 2113 -91 
Q 1303 -91 875 529 
Q 447 1150 447 2328 
Q 447 3434 972 4092 
Q 1497 4750 2381 4750 
Q 2619 4750 2861 4703 
Q 3103 4656 3366 4563 
z
" transform="scale(0.015625)"/>
       </defs>
       <use xlink:href="#DejaVuSans-36"/>
       <use xlink:href="#DejaVuSans-30" x="63.623047"/>
       <use xlink:href="#DejaVuSans-30" x="127.246094"/>
      </g>
     </g>
    </g>
    <g id="xtick_5">
     <g id="line2d_5">
      <g>
       <use xlink:href="#mbfee1e7cb2" x="327.717025" y="307.584" style="stroke: #000000; stroke-width: 0.8"/>
      </g>
     </g>
     <g id="text_5">
      <!-- 800 -->
      <g transform="translate(318.173275 322.182437) scale(0.1 -0.1)">
       <defs>
        <path id="DejaVuSans-38" d="M 2034 2216 
Q 1584 2216 1326 1975 
Q 1069 1734 1069 1313 
Q 1069 891 1326 650 
Q 1584 409 2034 409 
Q 2484 409 2743 651 
Q 3003 894 3003 1313 
Q 3003 1734 2745 1975 
Q 2488 2216 2034 2216 
z
M 1403 2484 
Q 997 2584 770 2862 
Q 544 3141 544 3541 
Q 544 4100 942 4425 
Q 1341 4750 2034 4750 
Q 2731 4750 3128 4425 
Q 3525 4100 3525 3541 
Q 3525 3141 3298 2862 
Q 3072 2584 2669 2484 
Q 3125 2378 3379 2068 
Q 3634 1759 3634 1313 
Q 3634 634 3220 271 
Q 2806 -91 2034 -91 
Q 1263 -91 848 271 
Q 434 634 434 1313 
Q 434 1759 690 2068 
Q 947 2378 1403 2484 
z
M 1172 3481 
Q 1172 3119 1398 2916 
Q 1625 2713 2034 2713 
Q 2441 2713 2670 2916 
Q 2900 3119 2900 3481 
Q 2900 3844 2670 4047 
Q 2441 4250 2034 4250 
Q 1625 4250 1398 4047 
Q 1172 3844 1172 3481 
z
" transform="scale(0.015625)"/>
       </defs>
       <use xlink:href="#DejaVuSans-38"/>
       <use xlink:href="#DejaVuSans-30" x="63.623047"/>
       <use xlink:href="#DejaVuSans-30" x="127.246094"/>
      </g>
     </g>
    </g>
    <g id="xtick_6">
     <g id="line2d_6">
      <g>
       <use xlink:href="#mbfee1e7cb2" x="391.188099" y="307.584" style="stroke: #000000; stroke-width: 0.8"/>
      </g>
     </g>
     <g id="text_6">
      <!-- 1000 -->
      <g transform="translate(378.463099 322.182437) scale(0.1 -0.1)">
       <defs>
        <path id="DejaVuSans-31" d="M 794 531 
L 1825 531 
L 1825 4091 
L 703 3866 
L 703 4441 
L 1819 4666 
L 2450 4666 
L 2450 531 
L 3481 531 
L 3481 0 
L 794 0 
L 794 531 
z
" transform="scale(0.015625)"/>
       </defs>
       <use xlink:href="#DejaVuSans-31"/>
       <use xlink:href="#DejaVuSans-30" x="63.623047"/>
       <use xlink:href="#DejaVuSans-30" x="127.246094"/>
       <use xlink:href="#DejaVuSans-30" x="190.869141"/>
      </g>
     </g>
    </g>
    <g id="text_7">
     <!-- n -->
     <g transform="translate(232.99125 335.860562) scale(0.1 -0.1)">
      <defs>
       <path id="DejaVuSans-6e" d="M 3513 2113 
L 3513 0 
L 2938 0 
L 2938 2094 
Q 2938 2591 2744 2837 
Q 2550 3084 2163 3084 
Q 1697 3084 1428 2787 
Q 1159 2491 1159 1978 
L 1159 0 
L 581 0 
L 581 3500 
L 1159 3500 
L 1159 2956 
Q 1366 3272 1645 3428 
Q 1925 3584 2291 3584 
Q 2894 3584 3203 3211 
Q 3513 2838 3513 2113 
z
" transform="scale(0.015625)"/>
      </defs>
      <use xlink:href="#DejaVuSans-6e"/>
     </g>
    </g>
   </g>
   <g id="matplotlib.axis_2">
    <g id="ytick_1">
     <g id="line2d_7">
      <defs>
       <path id="m07f75c57f7" d="M 0 0 
L -3.5 0 
" style="stroke: #000000; stroke-width: 0.8"/>
      </defs>
      <g>
       <use xlink:href="#m07f75c57f7" x="57.6" y="274.557522" style="stroke: #000000; stroke-width: 0.8"/>
      </g>
     </g>
     <g id="text_8">
      <!-- −4 -->
      <g transform="translate(35.857813 278.356741) scale(0.1 -0.1)">
       <defs>
        <path id="DejaVuSans-2212" d="M 678 2272 
L 4684 2272 
L 4684 1741 
L 678 1741 
L 678 2272 
z
" transform="scale(0.015625)"/>
       </defs>
       <use xlink:href="#DejaVuSans-2212"/>
       <use xlink:href="#DejaVuSans-34" x="83.789062"/>
      </g>
     </g>
    </g>
    <g id="ytick_2">
     <g id="line2d_8">
      <g>
       <use xlink:href="#m07f75c57f7" x="57.6" y="226.989505" style="stroke: #000000; stroke-width: 0.8"/>
      </g>
     </g>
     <g id="text_9">
      <!-- −2 -->
      <g transform="translate(35.857813 230.788724) scale(0.1 -0.1)">
       <use xlink:href="#DejaVuSans-2212"/>
       <use xlink:href="#DejaVuSans-32" x="83.789062"/>
      </g>
     </g>
    </g>
    <g id="ytick_3">
     <g id="line2d_9">
      <g>
       <use xlink:href="#m07f75c57f7" x="57.6" y="179.421488" style="stroke: #000000; stroke-width: 0.8"/>
      </g>
     </g>
     <g id="text_10">
      <!-- 0 -->
      <g transform="translate(44.2375 183.220707) scale(0.1 -0.1)">
       <use xlink:href="#DejaVuSans-30"/>
      </g>
     </g>
    </g>
    <g id="ytick_4">
     <g id="line2d_10">
      <g>
       <use xlink:href="#m07f75c57f7" x="57.6" y="131.853471" style="stroke: #000000; stroke-width: 0.8"/>
      </g>
     </g>
     <g id="text_11">
      <!-- 2 -->
      <g transform="translate(44.2375 135.65269) scale(0.1 -0.1)">
       <use xlink:href="#DejaVuSans-32"/>
      </g>
     </g>
    </g>
    <g id="ytick_5">
     <g id="line2d_11">
      <g>
       <use xlink:href="#m07f75c57f7" x="57.6" y="84.285454" style="stroke: #000000; stroke-width: 0.8"/>
      </g>
     </g>
     <g id="text_12">
      <!-- 4 -->
      <g transform="translate(44.2375 88.084673) scale(0.1 -0.1)">
       <use xlink:href="#DejaVuSans-34"/>
      </g>
     </g>
    </g>
    <g id="text_13">
     <!-- E*t -->
     <g transform="translate(29.778125 182.147531) rotate(-90) scale(0.1 -0.1)">
      <defs>
       <path id="DejaVuSans-45" d="M 628 4666 
L 3578 4666 
L 3578 4134 
L 1259 4134 
L 1259 2753 
L 3481 2753 
L 3481 2222 
L 1259 2222 
L 1259 531 
L 3634 531 
L 3634 0 
L 628 0 
L 628 4666 
z
" transform="scale(0.015625)"/>
       <path id="DejaVuSans-2a" d="M 3009 3897 
L 1888 3291 
L 3009 2681 
L 2828 2375 
L 1778 3009 
L 1778 1831 
L 1422 1831 
L 1422 3009 
L 372 2375 
L 191 2681 
L 1313 3291 
L 191 3897 
L 372 4206 
L 1422 3572 
L 1422 4750 
L 1778 4750 
L 1778 3572 
L 2828 4206 
L 3009 3897 
z
" transform="scale(0.015625)"/>
       <path id="DejaVuSans-74" d="M 1172 4494 
L 1172 3500 
L 2356 3500 
L 2356 3053 
L 1172 3053 
L 1172 1153 
Q 1172 725 1289 603 
Q 1406 481 1766 481 
L 2356 481 
L 2356 0 
L 1766 0 
Q 1100 0 847 248 
Q 594 497 594 1153 
L 594 3053 
L 172 3053 
L 172 3500 
L 594 3500 
L 594 4494 
L 1172 4494 
z
" transform="scale(0.015625)"/>
      </defs>
      <use xlink:href="#DejaVuSans-45"/>
      <use xlink:href="#DejaVuSans-2a" x="63.183594"/>
      <use xlink:href="#DejaVuSans-74" x="113.183594"/>
     </g>
    </g>
   </g>
   <g id="line2d_12">
    <path d="M 73.832727 288.286291 
L 74.784793 281.397676 
L 75.102149 280.262416 
L 75.73686 276.511952 
L 77.958347 270.405954 
L 78.275702 270.058799 
L 79.227769 266.800027 
L 79.545124 265.463641 
L 80.179835 264.026406 
L 81.766612 262.195332 
L 82.083967 261.824327 
L 82.401322 260.986541 
L 82.718678 260.598594 
L 84.305455 257.871851 
L 84.62281 257.592443 
L 85.257521 256.258759 
L 85.574876 256.009239 
L 86.526942 254.201867 
L 87.161653 253.267403 
L 87.479008 252.849429 
L 87.796364 251.900178 
L 88.113719 251.364011 
L 88.431074 251.082474 
L 88.74843 250.497843 
L 89.065785 250.339493 
L 90.017851 249.509364 
L 90.335207 248.905908 
L 90.652562 248.794417 
L 91.921983 247.571123 
L 92.239339 247.490702 
L 92.87405 246.063228 
L 93.191405 246.00942 
L 93.50876 245.532826 
L 94.460826 244.852992 
L 94.778182 244.740392 
L 95.095537 244.471095 
L 95.730248 243.801417 
L 96.047603 243.480206 
L 96.364959 243.365492 
L 96.682314 242.932984 
L 96.999669 242.723452 
L 97.951736 241.814504 
L 99.855868 240.017957 
L 100.173223 239.976141 
L 101.442645 239.081967 
L 101.76 238.659499 
L 102.394711 238.198657 
L 102.712066 237.876471 
L 103.346777 237.573711 
L 103.981488 237.029297 
L 104.616198 236.515127 
L 105.568264 235.937075 
L 105.88562 235.861248 
L 106.202975 235.539391 
L 106.520331 235.405327 
L 106.837686 234.87947 
L 107.155041 234.85301 
L 107.789752 234.526266 
L 108.107107 234.169342 
L 109.376529 233.50774 
L 110.01124 232.843785 
L 110.64595 232.567763 
L 112.867438 231.274145 
L 113.184793 231.110239 
L 113.819504 230.583009 
L 114.77157 229.99426 
L 115.088926 229.639605 
L 116.040992 229.242529 
L 118.89719 227.535479 
L 119.214545 227.282985 
L 119.531901 227.226033 
L 120.483967 226.303603 
L 121.436033 225.965873 
L 122.070744 225.444282 
L 124.926942 223.845052 
L 125.244298 223.788882 
L 125.561653 223.564968 
L 125.879008 223.515105 
L 126.513719 222.942895 
L 126.831074 222.643427 
L 127.465785 222.511802 
L 127.78314 222.255918 
L 128.100496 222.212338 
L 129.687273 221.317199 
L 130.004628 221.082073 
L 130.321983 221.020403 
L 131.591405 220.267052 
L 132.543471 219.911651 
L 133.178182 219.359884 
L 133.495537 219.2841 
L 134.130248 218.958695 
L 136.351736 218.0476 
L 136.669091 217.795171 
L 137.303802 217.657937 
L 138.573223 216.97866 
L 139.207934 216.748426 
L 139.842645 216.177254 
L 140.477355 215.925193 
L 140.794711 215.871161 
L 141.746777 215.326363 
L 142.381488 215.102718 
L 142.698843 214.704737 
L 145.872397 213.215744 
L 146.824463 212.766735 
L 156.027769 208.561719 
L 156.979835 207.960812 
L 159.518678 206.888158 
L 160.153388 206.539846 
L 161.42281 206.110479 
L 161.740165 206.016876 
L 162.374876 205.692491 
L 171.260826 202.096583 
L 171.578182 202.077701 
L 172.847603 201.425038 
L 173.164959 201.381895 
L 174.751736 200.50521 
L 175.069091 200.488613 
L 176.021157 200.102883 
L 176.338512 200.05734 
L 177.290579 199.591529 
L 178.242645 199.370829 
L 178.56 199.04809 
L 178.877355 198.995972 
L 179.512066 198.614417 
L 180.146777 198.478618 
L 181.416198 197.983056 
L 182.050909 197.733058 
L 182.68562 197.457704 
L 183.002975 197.33977 
L 183.320331 197.093843 
L 183.955041 197.002448 
L 184.907107 196.551528 
L 185.541818 196.434232 
L 186.176529 196.090807 
L 190.302149 194.580149 
L 191.888926 194.146255 
L 192.206281 193.92328 
L 193.475702 193.555588 
L 194.110413 193.285573 
L 194.745124 192.9802 
L 195.379835 192.708323 
L 196.966612 192.005165 
L 197.601322 191.752263 
L 198.236033 191.567735 
L 198.870744 191.22829 
L 202.044298 190.232506 
L 202.996364 189.87011 
L 204.265785 189.517601 
L 204.58314 189.382046 
L 204.900496 189.112879 
L 205.852562 188.827782 
L 207.439339 188.287096 
L 208.07405 187.941802 
L 210.295537 187.190878 
L 212.199669 186.633395 
L 213.469091 185.984478 
L 214.103802 185.863022 
L 215.373223 185.319937 
L 216.325289 185.013777 
L 216.96 184.808421 
L 219.816198 183.892697 
L 220.450909 183.58477 
L 220.768264 183.564344 
L 222.355041 183.015458 
L 223.941818 182.461362 
L 226.798017 181.325508 
L 227.432727 181.168782 
L 228.384793 180.636174 
L 229.019504 180.381645 
L 229.33686 180.367784 
L 230.606281 179.852879 
L 232.193058 179.318018 
L 233.145124 178.911863 
L 233.779835 178.711957 
L 234.414545 178.547869 
L 234.731901 178.47059 
L 235.366612 178.034829 
L 236.636033 177.745782 
L 237.270744 177.551646 
L 238.857521 177.002484 
L 239.492231 176.666614 
L 244.252562 174.983333 
L 244.887273 174.785354 
L 245.839339 174.4679 
L 246.47405 174.120489 
L 247.10876 173.923958 
L 247.426116 173.717078 
L 248.378182 173.531442 
L 252.503802 172.18103 
L 253.138512 171.954534 
L 253.773223 171.584549 
L 254.090579 171.53293 
L 254.407934 171.302748 
L 255.677355 170.973204 
L 259.48562 169.274043 
L 263.928595 167.407182 
L 265.198017 166.978639 
L 278.844298 162.250463 
L 279.161653 162.041154 
L 279.479008 161.984516 
L 280.113719 161.740046 
L 280.431074 161.701891 
L 280.74843 161.48355 
L 281.065785 161.411734 
L 281.38314 161.199516 
L 281.700496 161.1378 
L 282.652562 160.607942 
L 282.969917 160.557583 
L 283.287273 160.349275 
L 283.921983 160.135927 
L 284.239339 159.933503 
L 285.50876 159.589436 
L 286.143471 159.338678 
L 286.460826 159.069112 
L 287.095537 158.845339 
L 289.63438 157.478057 
L 290.586446 157.204751 
L 291.538512 156.80946 
L 291.855868 156.586124 
L 292.490579 156.437177 
L 296.298843 155.068418 
L 296.616198 155.035971 
L 297.250909 154.727384 
L 297.568264 154.659786 
L 298.202975 154.409247 
L 304.550083 151.768473 
L 306.454215 150.856278 
L 306.77157 150.79235 
L 307.406281 150.430781 
L 307.723636 150.397593 
L 308.675702 149.764631 
L 311.214545 148.919188 
L 312.801322 148.154195 
L 313.436033 147.966317 
L 313.753388 147.664852 
L 315.657521 146.907325 
L 317.244298 146.273604 
L 317.561653 146.215054 
L 318.196364 145.915066 
L 319.14843 145.496417 
L 319.78314 145.267154 
L 321.052562 144.720239 
L 322.956694 143.915787 
L 323.27405 143.669633 
L 324.543471 143.274731 
L 324.860826 142.955873 
L 325.495537 142.770855 
L 327.399669 141.662935 
L 328.351736 141.211338 
L 328.986446 140.954209 
L 329.621157 140.595887 
L 332.794711 139.075585 
L 333.429421 138.69716 
L 335.016198 138.027127 
L 335.650909 137.391586 
L 336.28562 137.171007 
L 338.507107 135.909411 
L 338.824463 135.764828 
L 339.141818 135.467704 
L 339.459174 135.416313 
L 341.04595 134.486961 
L 341.998017 134.09091 
L 342.315372 133.800623 
L 342.950083 133.514756 
L 343.584793 133.104567 
L 343.902149 133.018522 
L 344.53686 132.723628 
L 345.806281 132.029797 
L 346.123636 131.940004 
L 346.758347 131.593762 
L 348.979835 130.325385 
L 349.29719 129.964508 
L 350.566612 129.461098 
L 351.518678 128.669601 
L 353.42281 127.398386 
L 353.740165 127.282804 
L 354.057521 126.995568 
L 355.326942 126.360685 
L 355.961653 125.987412 
L 356.596364 125.712484 
L 356.913719 125.538499 
L 357.54843 124.757633 
L 359.769917 123.522623 
L 360.404628 122.921086 
L 361.039339 122.549895 
L 361.356694 122.255379 
L 362.30876 121.845985 
L 362.626116 121.607539 
L 362.943471 121.208952 
L 364.212893 120.259983 
L 364.530248 119.715728 
L 366.751736 118.347322 
L 367.069091 118.001352 
L 367.386446 117.88865 
L 367.703802 117.623792 
L 368.338512 116.695287 
L 368.655868 116.578517 
L 368.973223 116.292964 
L 369.925289 115.914358 
L 370.242645 115.670206 
L 370.56 115.170518 
L 370.877355 115.092627 
L 372.146777 113.94878 
L 372.464132 113.296439 
L 372.781488 113.048219 
L 373.416198 112.283499 
L 373.733554 111.944119 
L 374.050909 111.357399 
L 374.368264 111.288001 
L 375.955041 109.865479 
L 376.272397 109.818431 
L 376.907107 109.227481 
L 377.224463 109.002827 
L 378.493884 107.473163 
L 379.128595 107.098912 
L 379.44595 106.602922 
L 379.763306 106.553086 
L 380.080661 106.24223 
L 380.398017 105.68822 
L 380.715372 105.509848 
L 381.350083 104.648192 
L 381.667438 104.551528 
L 382.93686 103.147838 
L 383.57157 102.3554 
L 383.888926 101.40563 
L 384.206281 101.166623 
L 384.840992 100.383729 
L 385.793058 99.456778 
L 386.110413 99.115833 
L 387.062479 97.200724 
L 387.379835 96.742053 
L 387.69719 95.787296 
L 388.014545 95.726007 
L 388.331901 94.888295 
L 388.649256 94.724652 
L 388.966612 93.969987 
L 390.236033 92.793808 
L 390.870744 91.119312 
L 391.188099 88.457523 
L 391.505455 87.772001 
L 391.82281 86.811264 
L 392.140165 86.442997 
L 393.092231 84.782267 
L 393.409587 84.508862 
L 393.726942 83.710124 
L 394.361653 81.064885 
L 394.996364 79.587077 
L 395.313719 77.02887 
L 395.631074 76.754812 
L 395.94843 76.128199 
L 397.217851 69.773906 
L 397.535207 67.323161 
L 397.852562 63.170317 
L 398.169917 62.71093 
L 398.487273 53.568 
L 398.487273 53.568 
" clip-path="url(#p759244b50f)" style="fill: none; stroke: #1f77b4; stroke-width: 1.5; stroke-linecap: square"/>
   </g>
   <g id="line2d_13">
    <path d="M 73.832727 295.488 
L 74.150083 281.944287 
L 74.467438 281.944287 
L 74.784793 270.367171 
L 75.102149 267.96244 
L 75.73686 267.96244 
L 76.054215 263.63075 
L 76.37157 256.318257 
L 76.688926 255.869614 
L 77.006281 255.869614 
L 77.323636 254.738133 
L 78.910413 254.738133 
L 79.227769 250.612726 
L 79.545124 250.612726 
L 79.862479 249.119342 
L 80.179835 248.196708 
L 80.49719 248.196708 
L 80.814545 243.634901 
L 81.131901 241.487622 
L 82.083967 241.450701 
L 82.401322 240.179846 
L 86.844298 240.107691 
L 87.161653 239.411837 
L 87.479008 236.106227 
L 87.796364 235.375478 
L 88.113719 234.231112 
L 89.700496 234.231112 
L 90.017851 232.768951 
L 90.652562 232.768951 
L 90.969917 231.070432 
L 91.287273 231.070432 
L 91.604628 230.185638 
L 91.921983 227.909809 
L 99.221157 227.909809 
L 99.538512 226.55372 
L 99.855868 226.55372 
L 100.173223 226.232946 
L 101.76 226.232946 
L 102.077355 224.827323 
L 103.664132 224.827323 
L 103.981488 224.510266 
L 104.298843 223.962194 
L 104.933554 223.962194 
L 105.250909 222.034571 
L 106.202975 221.937423 
L 106.520331 217.587094 
L 107.155041 217.157251 
L 107.472397 217.157251 
L 107.789752 216.155495 
L 109.376529 216.155495 
L 109.693884 213.956973 
L 110.01124 213.956973 
L 110.328595 211.528295 
L 129.369917 211.528195 
L 129.687273 210.14806 
L 130.321983 208.850031 
L 131.27405 208.767274 
L 131.591405 207.63826 
L 131.90876 207.63826 
L 132.226116 207.380319 
L 132.860826 207.380319 
L 133.178182 205.206891 
L 133.495537 205.206891 
L 133.812893 204.751777 
L 135.399669 204.751777 
L 135.717025 202.89832 
L 136.03438 202.648392 
L 136.351736 202.229916 
L 136.986446 202.124405 
L 163.009587 202.124405 
L 163.326942 200.200755 
L 167.135207 200.200755 
L 167.452562 199.849198 
L 167.769917 199.849198 
L 168.087273 197.468431 
L 168.404628 197.468431 
L 168.721983 196.83296 
L 169.356694 196.83296 
L 169.67405 196.42288 
L 169.991405 195.440667 
L 171.578182 195.440667 
L 172.212893 194.748137 
L 172.530248 194.748137 
L 172.847603 194.454333 
L 180.146777 194.454333 
L 180.464132 193.948623 
L 180.781488 193.948623 
L 181.098843 193.452578 
L 182.68562 193.452578 
L 183.320331 188.825277 
L 185.541818 188.784116 
L 185.859174 188.515269 
L 186.493884 188.515269 
L 186.81124 188.109184 
L 187.128595 187.09156 
L 187.44595 187.09156 
L 187.763306 186.402335 
L 188.080661 186.402335 
L 188.398017 183.524999 
L 188.715372 179.421488 
L 283.604628 179.421488 
L 284.239339 172.440642 
L 284.556694 172.440642 
L 284.87405 171.751416 
L 285.191405 171.751416 
L 285.50876 170.733792 
L 285.826116 170.327707 
L 286.460826 170.327707 
L 286.778182 170.058861 
L 288.999669 170.017699 
L 289.63438 165.390398 
L 291.221157 165.390398 
L 291.538512 164.894354 
L 291.855868 164.894354 
L 292.173223 164.388643 
L 299.472397 164.388643 
L 299.789752 164.094839 
L 300.107107 164.094839 
L 300.741818 163.402309 
L 302.328595 163.402309 
L 302.64595 162.420096 
L 302.963306 162.010016 
L 303.598017 162.010016 
L 303.915372 161.374545 
L 304.232727 161.374545 
L 304.550083 158.993778 
L 304.867438 158.993778 
L 305.184793 158.642222 
L 308.993058 158.642222 
L 309.310413 156.718571 
L 335.968264 156.613061 
L 336.602975 155.944656 
L 336.920331 154.091199 
L 338.507107 154.091199 
L 338.824463 153.636085 
L 339.141818 153.636085 
L 339.459174 151.462657 
L 340.093884 151.462657 
L 340.41124 151.204716 
L 340.728595 151.204716 
L 341.04595 150.075703 
L 341.680661 149.992945 
L 341.998017 149.992945 
L 342.315372 149.490546 
L 342.632727 148.694916 
L 342.950083 147.314782 
L 361.991405 147.314681 
L 362.30876 144.886003 
L 362.626116 144.886003 
L 362.943471 142.687481 
L 364.530248 142.687481 
L 364.847603 141.685726 
L 365.164959 141.685726 
L 365.799669 141.255882 
L 366.117025 136.905553 
L 367.069091 136.808406 
L 367.386446 134.880782 
L 368.021157 134.880782 
L 368.338512 134.33271 
L 368.655868 134.015654 
L 370.242645 134.015654 
L 370.56 132.61003 
L 372.146777 132.61003 
L 372.464132 132.289256 
L 372.781488 132.289256 
L 373.098843 130.933168 
L 380.398017 130.933168 
L 380.715372 128.657338 
L 381.032727 127.772544 
L 381.350083 127.772544 
L 381.667438 126.074026 
L 382.302149 126.074026 
L 382.619504 124.611864 
L 384.206281 124.611864 
L 384.840992 122.736749 
L 385.158347 119.431139 
L 385.475702 118.735285 
L 389.918678 118.66313 
L 390.236033 117.392275 
L 391.188099 117.355354 
L 391.505455 115.208075 
L 391.82281 110.646268 
L 392.140165 110.646268 
L 392.457521 109.723634 
L 392.774876 108.23025 
L 393.092231 108.23025 
L 393.409587 104.104843 
L 394.996364 104.104843 
L 395.313719 102.973362 
L 395.631074 102.973362 
L 395.94843 102.524719 
L 396.265785 95.212226 
L 396.58314 90.880536 
L 397.217851 90.880536 
L 397.535207 88.475805 
L 397.852562 76.898689 
L 398.169917 76.898689 
L 398.487273 63.354976 
L 398.487273 63.354976 
" clip-path="url(#p759244b50f)" style="fill: none; stroke: #ff7f0e; stroke-width: 1.5; stroke-linecap: square"/>
   </g>
   <g id="patch_3">
    <path d="M 57.6 307.584 
L 57.6 41.472 
" style="fill: none; stroke: #000000; stroke-width: 0.8; stroke-linejoin: miter; stroke-linecap: square"/>
   </g>
   <g id="patch_4">
    <path d="M 414.72 307.584 
L 414.72 41.472 
" style="fill: none; stroke: #000000; stroke-width: 0.8; stroke-linejoin: miter; stroke-linecap: square"/>
   </g>
   <g id="patch_5">
    <path d="M 57.6 307.584 
L 414.72 307.584 
" style="fill: none; stroke: #000000; stroke-width: 0.8; stroke-linejoin: miter; stroke-linecap: square"/>
   </g>
   <g id="patch_6">
    <path d="M 57.6 41.472 
L 414.72 41.472 
" style="fill: none; stroke: #000000; stroke-width: 0.8; stroke-linejoin: miter; stroke-linecap: square"/>
   </g>
   <g id="legend_1">
    <g id="patch_7">
     <path d="M 64.6 78.82825 
L 129.342187 78.82825 
Q 131.342187 78.82825 131.342187 76.82825 
L 131.342187 48.472 
Q 131.342187 46.472 129.342187 46.472 
L 64.6 46.472 
Q 62.6 46.472 62.6 48.472 
L 62.6 76.82825 
Q 62.6 78.82825 64.6 78.82825 
z
" style="fill: #ffffff; opacity: 0.8; stroke: #cccccc; stroke-linejoin: miter"/>
    </g>
    <g id="line2d_14">
     <path d="M 66.6 54.570437 
L 76.6 54.570437 
L 86.6 54.570437 
" style="fill: none; stroke: #1f77b4; stroke-width: 1.5; stroke-linecap: square"/>
    </g>
    <g id="text_14">
     <!-- qc -->
     <g transform="translate(94.6 58.070437) scale(0.1 -0.1)">
      <defs>
       <path id="DejaVuSans-71" d="M 947 1747 
Q 947 1113 1208 752 
Q 1469 391 1925 391 
Q 2381 391 2643 752 
Q 2906 1113 2906 1747 
Q 2906 2381 2643 2742 
Q 2381 3103 1925 3103 
Q 1469 3103 1208 2742 
Q 947 2381 947 1747 
z
M 2906 525 
Q 2725 213 2448 61 
Q 2172 -91 1784 -91 
Q 1150 -91 751 415 
Q 353 922 353 1747 
Q 353 2572 751 3078 
Q 1150 3584 1784 3584 
Q 2172 3584 2448 3432 
Q 2725 3281 2906 2969 
L 2906 3500 
L 3481 3500 
L 3481 -1331 
L 2906 -1331 
L 2906 525 
z
" transform="scale(0.015625)"/>
       <path id="DejaVuSans-63" d="M 3122 3366 
L 3122 2828 
Q 2878 2963 2633 3030 
Q 2388 3097 2138 3097 
Q 1578 3097 1268 2742 
Q 959 2388 959 1747 
Q 959 1106 1268 751 
Q 1578 397 2138 397 
Q 2388 397 2633 464 
Q 2878 531 3122 666 
L 3122 134 
Q 2881 22 2623 -34 
Q 2366 -91 2075 -91 
Q 1284 -91 818 406 
Q 353 903 353 1747 
Q 353 2603 823 3093 
Q 1294 3584 2113 3584 
Q 2378 3584 2631 3529 
Q 2884 3475 3122 3366 
z
" transform="scale(0.015625)"/>
      </defs>
      <use xlink:href="#DejaVuSans-71"/>
      <use xlink:href="#DejaVuSans-63" x="63.476562"/>
     </g>
    </g>
    <g id="line2d_15">
     <path d="M 66.6 69.248562 
L 76.6 69.248562 
L 86.6 69.248562 
" style="fill: none; stroke: #ff7f0e; stroke-width: 1.5; stroke-linecap: square"/>
    </g>
    <g id="text_15">
     <!-- Trotter -->
     <g transform="translate(94.6 72.748562) scale(0.1 -0.1)">
      <defs>
       <path id="DejaVuSans-54" d="M -19 4666 
L 3928 4666 
L 3928 4134 
L 2272 4134 
L 2272 0 
L 1638 0 
L 1638 4134 
L -19 4134 
L -19 4666 
z
" transform="scale(0.015625)"/>
       <path id="DejaVuSans-72" d="M 2631 2963 
Q 2534 3019 2420 3045 
Q 2306 3072 2169 3072 
Q 1681 3072 1420 2755 
Q 1159 2438 1159 1844 
L 1159 0 
L 581 0 
L 581 3500 
L 1159 3500 
L 1159 2956 
Q 1341 3275 1631 3429 
Q 1922 3584 2338 3584 
Q 2397 3584 2469 3576 
Q 2541 3569 2628 3553 
L 2631 2963 
z
" transform="scale(0.015625)"/>
       <path id="DejaVuSans-6f" d="M 1959 3097 
Q 1497 3097 1228 2736 
Q 959 2375 959 1747 
Q 959 1119 1226 758 
Q 1494 397 1959 397 
Q 2419 397 2687 759 
Q 2956 1122 2956 1747 
Q 2956 2369 2687 2733 
Q 2419 3097 1959 3097 
z
M 1959 3584 
Q 2709 3584 3137 3096 
Q 3566 2609 3566 1747 
Q 3566 888 3137 398 
Q 2709 -91 1959 -91 
Q 1206 -91 779 398 
Q 353 888 353 1747 
Q 353 2609 779 3096 
Q 1206 3584 1959 3584 
z
" transform="scale(0.015625)"/>
       <path id="DejaVuSans-65" d="M 3597 1894 
L 3597 1613 
L 953 1613 
Q 991 1019 1311 708 
Q 1631 397 2203 397 
Q 2534 397 2845 478 
Q 3156 559 3463 722 
L 3463 178 
Q 3153 47 2828 -22 
Q 2503 -91 2169 -91 
Q 1331 -91 842 396 
Q 353 884 353 1716 
Q 353 2575 817 3079 
Q 1281 3584 2069 3584 
Q 2775 3584 3186 3129 
Q 3597 2675 3597 1894 
z
M 3022 2063 
Q 3016 2534 2758 2815 
Q 2500 3097 2075 3097 
Q 1594 3097 1305 2825 
Q 1016 2553 972 2059 
L 3022 2063 
z
" transform="scale(0.015625)"/>
      </defs>
      <use xlink:href="#DejaVuSans-54"/>
      <use xlink:href="#DejaVuSans-72" x="46.333984"/>
      <use xlink:href="#DejaVuSans-6f" x="85.197266"/>
      <use xlink:href="#DejaVuSans-74" x="146.378906"/>
      <use xlink:href="#DejaVuSans-74" x="185.587891"/>
      <use xlink:href="#DejaVuSans-65" x="224.796875"/>
      <use xlink:href="#DejaVuSans-72" x="286.320312"/>
     </g>
    </g>
   </g>
  </g>
 </g>
 <defs>
  <clipPath id="p759244b50f">
   <rect x="57.6" y="41.472" width="357.12" height="266.112"/>
  </clipPath>
 </defs>
</svg>
