<?xml version="1.0" encoding="utf-8" standalone="no"?>
<!DOCTYPE svg PUBLIC "-//W3C//DTD SVG 1.1//EN"
  "http://www.w3.org/Graphics/SVG/1.1/DTD/svg11.dtd">
<svg xmlns:xlink="http://www.w3.org/1999/xlink" width="460.8pt" height="345.6pt" viewBox="0 0 460.8 345.6" xmlns="http://www.w3.org/2000/svg" version="1.1">
 <metadata>
  <rdf:RDF xmlns:dc="http://purl.org/dc/elements/1.1/" xmlns:cc="http://creativecommons.org/ns#" xmlns:rdf="http://www.w3.org/1999/02/22-rdf-syntax-ns#">
   <cc:Work>
    <dc:type rdf:resource="http://purl.org/dc/dcmitype/StillImage"/>
    <dc:date>2024-07-05T01:31:33.002011</dc:date>
    <dc:format>image/svg+xml</dc:format>
    <dc:creator>
     <cc:Agent>
      <dc:title>Matplotlib v3.7.1, https://matplotlib.org/</dc:title>
     </cc:Agent>
    </dc:creator>
   </cc:Work>
  </rdf:RDF>
 </metadata>
 <defs>
  <style type="text/css">*{stroke-linejoin: round; stroke-linecap: butt}</style>
 </defs>
 <g id="figure_1">
  <g id="patch_1">
   <path d="M 0 345.6 
L 460.8 345.6 
L 460.8 0 
L 0 0 
z
" style="fill: #ffffff"/>
  </g>
  <g id="axes_1">
   <g id="patch_2">
    <path d="M 57.6 307.584 
L 414.72 307.584 
L 414.72 41.472 
L 57.6 41.472 
z
" style="fill: #ffffff"/>
   </g>
   <g id="matplotlib.axis_1">
    <g id="xtick_1">
     <g id="line2d_1">
      <defs>
       <path id="mf0d99a99b8" d="M 0 0 
L 0 3.5 
" style="stroke: #000000; stroke-width: 0.8"/>
      </defs>
      <g>
       <use xlink:href="#mf0d99a99b8" x="73.832727" y="307.584" style="stroke: #000000; stroke-width: 0.8"/>
      </g>
     </g>
     <g id="text_1">
      <!-- 0 -->
      <g transform="translate(70.651477 322.182437) scale(0.1 -0.1)">
       <defs>
        <path id="DejaVuSans-30" d="M 2034 4250 
Q 1547 4250 1301 3770 
Q 1056 3291 1056 2328 
Q 1056 1369 1301 889 
Q 1547 409 2034 409 
Q 2525 409 2770 889 
Q 3016 1369 3016 2328 
Q 3016 3291 2770 3770 
Q 2525 4250 2034 4250 
z
M 2034 4750 
Q 2819 4750 3233 4129 
Q 3647 3509 3647 2328 
Q 3647 1150 3233 529 
Q 2819 -91 2034 -91 
Q 1250 -91 836 529 
Q 422 1150 422 2328 
Q 422 3509 836 4129 
Q 1250 4750 2034 4750 
z
" transform="scale(0.015625)"/>
       </defs>
       <use xlink:href="#DejaVuSans-30"/>
      </g>
     </g>
    </g>
    <g id="xtick_2">
     <g id="line2d_2">
      <g>
       <use xlink:href="#mf0d99a99b8" x="137.303802" y="307.584" style="stroke: #000000; stroke-width: 0.8"/>
      </g>
     </g>
     <g id="text_2">
      <!-- 200 -->
      <g transform="translate(127.760052 322.182437) scale(0.1 -0.1)">
       <defs>
        <path id="DejaVuSans-32" d="M 1228 531 
L 3431 531 
L 3431 0 
L 469 0 
L 469 531 
Q 828 903 1448 1529 
Q 2069 2156 2228 2338 
Q 2531 2678 2651 2914 
Q 2772 3150 2772 3378 
Q 2772 3750 2511 3984 
Q 2250 4219 1831 4219 
Q 1534 4219 1204 4116 
Q 875 4013 500 3803 
L 500 4441 
Q 881 4594 1212 4672 
Q 1544 4750 1819 4750 
Q 2544 4750 2975 4387 
Q 3406 4025 3406 3419 
Q 3406 3131 3298 2873 
Q 3191 2616 2906 2266 
Q 2828 2175 2409 1742 
Q 1991 1309 1228 531 
z
" transform="scale(0.015625)"/>
       </defs>
       <use xlink:href="#DejaVuSans-32"/>
       <use xlink:href="#DejaVuSans-30" x="63.623047"/>
       <use xlink:href="#DejaVuSans-30" x="127.246094"/>
      </g>
     </g>
    </g>
    <g id="xtick_3">
     <g id="line2d_3">
      <g>
       <use xlink:href="#mf0d99a99b8" x="200.774876" y="307.584" style="stroke: #000000; stroke-width: 0.8"/>
      </g>
     </g>
     <g id="text_3">
      <!-- 400 -->
      <g transform="translate(191.231126 322.182437) scale(0.1 -0.1)">
       <defs>
        <path id="DejaVuSans-34" d="M 2419 4116 
L 825 1625 
L 2419 1625 
L 2419 4116 
z
M 2253 4666 
L 3047 4666 
L 3047 1625 
L 3713 1625 
L 3713 1100 
L 3047 1100 
L 3047 0 
L 2419 0 
L 2419 1100 
L 313 1100 
L 313 1709 
L 2253 4666 
z
" transform="scale(0.015625)"/>
       </defs>
       <use xlink:href="#DejaVuSans-34"/>
       <use xlink:href="#DejaVuSans-30" x="63.623047"/>
       <use xlink:href="#DejaVuSans-30" x="127.246094"/>
      </g>
     </g>
    </g>
    <g id="xtick_4">
     <g id="line2d_4">
      <g>
       <use xlink:href="#mf0d99a99b8" x="264.24595" y="307.584" style="stroke: #000000; stroke-width: 0.8"/>
      </g>
     </g>
     <g id="text_4">
      <!-- 600 -->
      <g transform="translate(254.7022 322.182437) scale(0.1 -0.1)">
       <defs>
        <path id="DejaVuSans-36" d="M 2113 2584 
Q 1688 2584 1439 2293 
Q 1191 2003 1191 1497 
Q 1191 994 1439 701 
Q 1688 409 2113 409 
Q 2538 409 2786 701 
Q 3034 994 3034 1497 
Q 3034 2003 2786 2293 
Q 2538 2584 2113 2584 
z
M 3366 4563 
L 3366 3988 
Q 3128 4100 2886 4159 
Q 2644 4219 2406 4219 
Q 1781 4219 1451 3797 
Q 1122 3375 1075 2522 
Q 1259 2794 1537 2939 
Q 1816 3084 2150 3084 
Q 2853 3084 3261 2657 
Q 3669 2231 3669 1497 
Q 3669 778 3244 343 
Q 2819 -91 2113 -91 
Q 1303 -91 875 529 
Q 447 1150 447 2328 
Q 447 3434 972 4092 
Q 1497 4750 2381 4750 
Q 2619 4750 2861 4703 
Q 3103 4656 3366 4563 
z
" transform="scale(0.015625)"/>
       </defs>
       <use xlink:href="#DejaVuSans-36"/>
       <use xlink:href="#DejaVuSans-30" x="63.623047"/>
       <use xlink:href="#DejaVuSans-30" x="127.246094"/>
      </g>
     </g>
    </g>
    <g id="xtick_5">
     <g id="line2d_5">
      <g>
       <use xlink:href="#mf0d99a99b8" x="327.717025" y="307.584" style="stroke: #000000; stroke-width: 0.8"/>
      </g>
     </g>
     <g id="text_5">
      <!-- 800 -->
      <g transform="translate(318.173275 322.182437) scale(0.1 -0.1)">
       <defs>
        <path id="DejaVuSans-38" d="M 2034 2216 
Q 1584 2216 1326 1975 
Q 1069 1734 1069 1313 
Q 1069 891 1326 650 
Q 1584 409 2034 409 
Q 2484 409 2743 651 
Q 3003 894 3003 1313 
Q 3003 1734 2745 1975 
Q 2488 2216 2034 2216 
z
M 1403 2484 
Q 997 2584 770 2862 
Q 544 3141 544 3541 
Q 544 4100 942 4425 
Q 1341 4750 2034 4750 
Q 2731 4750 3128 4425 
Q 3525 4100 3525 3541 
Q 3525 3141 3298 2862 
Q 3072 2584 2669 2484 
Q 3125 2378 3379 2068 
Q 3634 1759 3634 1313 
Q 3634 634 3220 271 
Q 2806 -91 2034 -91 
Q 1263 -91 848 271 
Q 434 634 434 1313 
Q 434 1759 690 2068 
Q 947 2378 1403 2484 
z
M 1172 3481 
Q 1172 3119 1398 2916 
Q 1625 2713 2034 2713 
Q 2441 2713 2670 2916 
Q 2900 3119 2900 3481 
Q 2900 3844 2670 4047 
Q 2441 4250 2034 4250 
Q 1625 4250 1398 4047 
Q 1172 3844 1172 3481 
z
" transform="scale(0.015625)"/>
       </defs>
       <use xlink:href="#DejaVuSans-38"/>
       <use xlink:href="#DejaVuSans-30" x="63.623047"/>
       <use xlink:href="#DejaVuSans-30" x="127.246094"/>
      </g>
     </g>
    </g>
    <g id="xtick_6">
     <g id="line2d_6">
      <g>
       <use xlink:href="#mf0d99a99b8" x="391.188099" y="307.584" style="stroke: #000000; stroke-width: 0.8"/>
      </g>
     </g>
     <g id="text_6">
      <!-- 1000 -->
      <g transform="translate(378.463099 322.182437) scale(0.1 -0.1)">
       <defs>
        <path id="DejaVuSans-31" d="M 794 531 
L 1825 531 
L 1825 4091 
L 703 3866 
L 703 4441 
L 1819 4666 
L 2450 4666 
L 2450 531 
L 3481 531 
L 3481 0 
L 794 0 
L 794 531 
z
" transform="scale(0.015625)"/>
       </defs>
       <use xlink:href="#DejaVuSans-31"/>
       <use xlink:href="#DejaVuSans-30" x="63.623047"/>
       <use xlink:href="#DejaVuSans-30" x="127.246094"/>
       <use xlink:href="#DejaVuSans-30" x="190.869141"/>
      </g>
     </g>
    </g>
    <g id="text_7">
     <!-- n -->
     <g transform="translate(232.99125 335.860562) scale(0.1 -0.1)">
      <defs>
       <path id="DejaVuSans-6e" d="M 3513 2113 
L 3513 0 
L 2938 0 
L 2938 2094 
Q 2938 2591 2744 2837 
Q 2550 3084 2163 3084 
Q 1697 3084 1428 2787 
Q 1159 2491 1159 1978 
L 1159 0 
L 581 0 
L 581 3500 
L 1159 3500 
L 1159 2956 
Q 1366 3272 1645 3428 
Q 1925 3584 2291 3584 
Q 2894 3584 3203 3211 
Q 3513 2838 3513 2113 
z
" transform="scale(0.015625)"/>
      </defs>
      <use xlink:href="#DejaVuSans-6e"/>
     </g>
    </g>
   </g>
   <g id="matplotlib.axis_2">
    <g id="ytick_1">
     <g id="line2d_7">
      <defs>
       <path id="m36ed3c9691" d="M 0 0 
L -3.5 0 
" style="stroke: #000000; stroke-width: 0.8"/>
      </defs>
      <g>
       <use xlink:href="#m36ed3c9691" x="57.6" y="283.536842" style="stroke: #000000; stroke-width: 0.8"/>
      </g>
     </g>
     <g id="text_8">
      <!-- −0.6 -->
      <g transform="translate(26.317187 287.33606) scale(0.1 -0.1)">
       <defs>
        <path id="DejaVuSans-2212" d="M 678 2272 
L 4684 2272 
L 4684 1741 
L 678 1741 
L 678 2272 
z
" transform="scale(0.015625)"/>
        <path id="DejaVuSans-2e" d="M 684 794 
L 1344 794 
L 1344 0 
L 684 0 
L 684 794 
z
" transform="scale(0.015625)"/>
       </defs>
       <use xlink:href="#DejaVuSans-2212"/>
       <use xlink:href="#DejaVuSans-30" x="83.789062"/>
       <use xlink:href="#DejaVuSans-2e" x="147.412109"/>
       <use xlink:href="#DejaVuSans-36" x="179.199219"/>
      </g>
     </g>
    </g>
    <g id="ytick_2">
     <g id="line2d_8">
      <g>
       <use xlink:href="#m36ed3c9691" x="57.6" y="251.852057" style="stroke: #000000; stroke-width: 0.8"/>
      </g>
     </g>
     <g id="text_9">
      <!-- −0.4 -->
      <g transform="translate(26.317187 255.651275) scale(0.1 -0.1)">
       <use xlink:href="#DejaVuSans-2212"/>
       <use xlink:href="#DejaVuSans-30" x="83.789062"/>
       <use xlink:href="#DejaVuSans-2e" x="147.412109"/>
       <use xlink:href="#DejaVuSans-34" x="179.199219"/>
      </g>
     </g>
    </g>
    <g id="ytick_3">
     <g id="line2d_9">
      <g>
       <use xlink:href="#m36ed3c9691" x="57.6" y="220.167271" style="stroke: #000000; stroke-width: 0.8"/>
      </g>
     </g>
     <g id="text_10">
      <!-- −0.2 -->
      <g transform="translate(26.317187 223.96649) scale(0.1 -0.1)">
       <use xlink:href="#DejaVuSans-2212"/>
       <use xlink:href="#DejaVuSans-30" x="83.789062"/>
       <use xlink:href="#DejaVuSans-2e" x="147.412109"/>
       <use xlink:href="#DejaVuSans-32" x="179.199219"/>
      </g>
     </g>
    </g>
    <g id="ytick_4">
     <g id="line2d_10">
      <g>
       <use xlink:href="#m36ed3c9691" x="57.6" y="188.482486" style="stroke: #000000; stroke-width: 0.8"/>
      </g>
     </g>
     <g id="text_11">
      <!-- 0.0 -->
      <g transform="translate(34.696875 192.281705) scale(0.1 -0.1)">
       <use xlink:href="#DejaVuSans-30"/>
       <use xlink:href="#DejaVuSans-2e" x="63.623047"/>
       <use xlink:href="#DejaVuSans-30" x="95.410156"/>
      </g>
     </g>
    </g>
    <g id="ytick_5">
     <g id="line2d_11">
      <g>
       <use xlink:href="#m36ed3c9691" x="57.6" y="156.797701" style="stroke: #000000; stroke-width: 0.8"/>
      </g>
     </g>
     <g id="text_12">
      <!-- 0.2 -->
      <g transform="translate(34.696875 160.59692) scale(0.1 -0.1)">
       <use xlink:href="#DejaVuSans-30"/>
       <use xlink:href="#DejaVuSans-2e" x="63.623047"/>
       <use xlink:href="#DejaVuSans-32" x="95.410156"/>
      </g>
     </g>
    </g>
    <g id="ytick_6">
     <g id="line2d_12">
      <g>
       <use xlink:href="#m36ed3c9691" x="57.6" y="125.112916" style="stroke: #000000; stroke-width: 0.8"/>
      </g>
     </g>
     <g id="text_13">
      <!-- 0.4 -->
      <g transform="translate(34.696875 128.912135) scale(0.1 -0.1)">
       <use xlink:href="#DejaVuSans-30"/>
       <use xlink:href="#DejaVuSans-2e" x="63.623047"/>
       <use xlink:href="#DejaVuSans-34" x="95.410156"/>
      </g>
     </g>
    </g>
    <g id="ytick_7">
     <g id="line2d_13">
      <g>
       <use xlink:href="#m36ed3c9691" x="57.6" y="93.428131" style="stroke: #000000; stroke-width: 0.8"/>
      </g>
     </g>
     <g id="text_14">
      <!-- 0.6 -->
      <g transform="translate(34.696875 97.22735) scale(0.1 -0.1)">
       <use xlink:href="#DejaVuSans-30"/>
       <use xlink:href="#DejaVuSans-2e" x="63.623047"/>
       <use xlink:href="#DejaVuSans-36" x="95.410156"/>
      </g>
     </g>
    </g>
    <g id="ytick_8">
     <g id="line2d_14">
      <g>
       <use xlink:href="#m36ed3c9691" x="57.6" y="61.743346" style="stroke: #000000; stroke-width: 0.8"/>
      </g>
     </g>
     <g id="text_15">
      <!-- 0.8 -->
      <g transform="translate(34.696875 65.542565) scale(0.1 -0.1)">
       <use xlink:href="#DejaVuSans-30"/>
       <use xlink:href="#DejaVuSans-2e" x="63.623047"/>
       <use xlink:href="#DejaVuSans-38" x="95.410156"/>
      </g>
     </g>
    </g>
    <g id="text_16">
     <!-- E*t -->
     <g transform="translate(20.2375 182.147531) rotate(-90) scale(0.1 -0.1)">
      <defs>
       <path id="DejaVuSans-45" d="M 628 4666 
L 3578 4666 
L 3578 4134 
L 1259 4134 
L 1259 2753 
L 3481 2753 
L 3481 2222 
L 1259 2222 
L 1259 531 
L 3634 531 
L 3634 0 
L 628 0 
L 628 4666 
z
" transform="scale(0.015625)"/>
       <path id="DejaVuSans-2a" d="M 3009 3897 
L 1888 3291 
L 3009 2681 
L 2828 2375 
L 1778 3009 
L 1778 1831 
L 1422 1831 
L 1422 3009 
L 372 2375 
L 191 2681 
L 1313 3291 
L 191 3897 
L 372 4206 
L 1422 3572 
L 1422 4750 
L 1778 4750 
L 1778 3572 
L 2828 4206 
L 3009 3897 
z
" transform="scale(0.015625)"/>
       <path id="DejaVuSans-74" d="M 1172 4494 
L 1172 3500 
L 2356 3500 
L 2356 3053 
L 1172 3053 
L 1172 1153 
Q 1172 725 1289 603 
Q 1406 481 1766 481 
L 2356 481 
L 2356 0 
L 1766 0 
Q 1100 0 847 248 
Q 594 497 594 1153 
L 594 3053 
L 172 3053 
L 172 3500 
L 594 3500 
L 594 4494 
L 1172 4494 
z
" transform="scale(0.015625)"/>
      </defs>
      <use xlink:href="#DejaVuSans-45"/>
      <use xlink:href="#DejaVuSans-2a" x="63.183594"/>
      <use xlink:href="#DejaVuSans-74" x="113.183594"/>
     </g>
    </g>
   </g>
   <g id="line2d_15">
    <path d="M 73.832727 295.488 
L 74.150083 292.852698 
L 74.467438 291.321303 
L 75.102149 286.751361 
L 75.419504 286.358532 
L 75.73686 284.18853 
L 76.054215 283.299303 
L 76.37157 282.886908 
L 76.688926 281.329041 
L 77.006281 280.992044 
L 77.323636 278.920689 
L 77.958347 276.877127 
L 78.275702 276.668233 
L 78.593058 276.262538 
L 78.910413 274.608537 
L 79.227769 273.817564 
L 79.545124 273.460309 
L 81.449256 270.21923 
L 82.083967 269.517779 
L 82.401322 268.446394 
L 82.718678 268.170815 
L 83.036033 267.472109 
L 83.988099 266.288454 
L 84.305455 265.753359 
L 84.62281 264.708412 
L 84.940165 264.61187 
L 86.844298 261.845716 
L 87.161653 261.638911 
L 88.431074 260.151328 
L 88.74843 259.864633 
L 89.065785 259.276042 
L 89.38314 259.016434 
L 89.700496 258.439503 
L 90.017851 258.375592 
L 90.335207 258.181279 
L 92.239339 255.519333 
L 92.556694 255.358627 
L 96.047603 252.078397 
L 96.682314 251.778882 
L 97.317025 251.119574 
L 97.63438 251.012752 
L 98.269091 250.498855 
L 99.221157 249.9303 
L 99.855868 249.438891 
L 100.173223 249.056993 
L 102.077355 247.958948 
L 102.394711 247.423509 
L 103.029421 246.981265 
L 103.664132 246.678034 
L 104.298843 246.030634 
L 105.250909 245.479532 
L 105.568264 245.147714 
L 106.202975 244.797885 
L 107.472397 244.028065 
L 107.789752 243.496577 
L 108.107107 243.338477 
L 109.376529 242.177612 
L 110.01124 241.93832 
L 111.598017 240.877893 
L 112.232727 240.689956 
L 112.550083 240.286641 
L 113.819504 239.648725 
L 115.088926 239.014991 
L 115.406281 238.629915 
L 115.723636 238.497353 
L 116.040992 238.219635 
L 116.993058 237.905257 
L 118.579835 236.837294 
L 118.89719 236.775609 
L 119.214545 236.49712 
L 119.531901 236.3839 
L 119.849256 236.063066 
L 120.483967 235.867018 
L 120.801322 235.46016 
L 121.436033 235.213566 
L 122.070744 234.742834 
L 122.705455 234.469823 
L 123.02281 234.151144 
L 123.657521 233.883262 
L 124.609587 233.227052 
L 125.244298 232.942207 
L 127.78314 231.700314 
L 128.100496 231.645828 
L 128.735207 231.249219 
L 130.639339 230.110307 
L 130.956694 229.890562 
L 131.90876 229.553959 
L 132.226116 229.302422 
L 132.543471 229.252585 
L 133.495537 228.688912 
L 133.812893 228.618566 
L 134.447603 228.250469 
L 135.082314 228.092437 
L 136.351736 227.409116 
L 136.986446 227.267562 
L 137.621157 226.855993 
L 137.938512 226.837928 
L 138.573223 226.376021 
L 138.890579 226.313891 
L 139.525289 226.043441 
L 143.016198 224.499114 
L 143.968264 224.148099 
L 144.28562 224.100387 
L 144.602975 223.842067 
L 145.237686 223.625419 
L 146.507107 223.02257 
L 148.728595 221.844894 
L 149.363306 221.624598 
L 149.680661 221.378443 
L 149.998017 221.323324 
L 150.950083 220.88177 
L 151.902149 220.602599 
L 152.53686 220.123036 
L 152.854215 219.977189 
L 153.17157 219.956661 
L 154.758347 219.133455 
L 157.931901 217.828429 
L 158.249256 217.541339 
L 160.788099 216.637035 
L 161.740165 216.1084 
L 162.692231 215.852462 
L 163.326942 215.499652 
L 163.644298 215.496147 
L 164.913719 214.816155 
L 165.231074 214.76153 
L 165.54843 214.589116 
L 165.865785 214.555622 
L 166.18314 214.294917 
L 166.817851 214.083013 
L 168.721983 213.398795 
L 169.356694 213.198802 
L 170.30876 212.857581 
L 170.626116 212.663899 
L 170.943471 212.621312 
L 171.578182 212.320867 
L 180.781488 208.679554 
L 181.416198 208.234784 
L 182.050909 208.082258 
L 183.637686 207.56557 
L 183.955041 207.394594 
L 184.589752 207.243463 
L 187.763306 206.018587 
L 188.080661 205.749791 
L 192.206281 204.399984 
L 192.523636 204.138604 
L 193.475702 203.890286 
L 195.379835 203.109122 
L 196.014545 203.000795 
L 196.649256 202.668801 
L 196.966612 202.570267 
L 197.283967 202.334951 
L 197.918678 202.202952 
L 198.236033 201.947526 
L 200.140165 201.325972 
L 201.726942 200.790386 
L 202.361653 200.458508 
L 202.996364 200.241954 
L 207.439339 198.48073 
L 208.07405 198.352063 
L 208.70876 198.15 
L 218.229421 194.628162 
L 218.546777 194.410746 
L 219.181488 194.209049 
L 219.816198 193.984115 
L 220.133554 193.929733 
L 220.450909 193.716171 
L 220.768264 193.690712 
L 221.402975 193.401571 
L 222.037686 193.235396 
L 222.672397 192.875407 
L 223.307107 192.712215 
L 223.624463 192.679284 
L 224.259174 192.299194 
L 226.798017 191.392888 
L 227.115372 191.371753 
L 228.384793 190.857943 
L 229.019504 190.679234 
L 233.462479 189.18302 
L 233.779835 188.94703 
L 235.049256 188.54247 
L 236.636033 187.941712 
L 237.905455 187.557356 
L 243.617851 185.476795 
L 244.887273 185.043284 
L 246.791405 184.473921 
L 247.426116 184.181348 
L 248.378182 183.84308 
L 249.012893 183.600941 
L 249.964959 183.371843 
L 250.917025 182.877669 
L 251.551736 182.773036 
L 254.090579 181.747295 
L 255.042645 181.441785 
L 259.168264 179.863372 
L 259.802975 179.621279 
L 261.389752 179.023059 
L 269.006281 176.278865 
L 269.640992 175.99432 
L 273.131901 174.593077 
L 273.766612 174.367124 
L 274.401322 174.160226 
L 275.670744 173.794256 
L 277.892231 172.787585 
L 278.209587 172.722185 
L 278.526942 172.504849 
L 278.844298 172.458652 
L 279.479008 172.173785 
L 282.652562 170.736239 
L 283.287273 170.528637 
L 283.921983 170.227232 
L 284.87405 169.820252 
L 285.50876 169.631843 
L 286.143471 169.386933 
L 286.778182 169.137476 
L 287.412893 168.79659 
L 292.173223 167.056167 
L 292.807934 166.707008 
L 294.394711 166.21717 
L 296.298843 165.366364 
L 296.933554 165.111756 
L 297.568264 164.898701 
L 298.202975 164.668535 
L 301.693884 163.202562 
L 302.328595 162.988979 
L 305.819504 161.486823 
L 306.454215 161.289213 
L 306.77157 161.071942 
L 307.406281 160.905351 
L 307.723636 160.696472 
L 308.358347 160.471611 
L 308.993058 160.187233 
L 309.310413 160.085466 
L 309.627769 159.814564 
L 309.945124 159.753027 
L 310.89719 159.330017 
L 311.849256 159.000911 
L 312.166612 158.776247 
L 313.436033 158.317571 
L 315.02281 157.722311 
L 315.340165 157.45322 
L 316.609587 156.945189 
L 316.926942 156.694057 
L 318.196364 156.275245 
L 321.369917 154.862939 
L 322.004628 154.440815 
L 324.860826 153.225119 
L 325.178182 152.949741 
L 325.812893 152.770332 
L 329.621157 150.976015 
L 330.255868 150.71094 
L 330.890579 150.436033 
L 335.016198 148.336959 
L 336.602975 147.519132 
L 337.237686 147.11684 
L 338.824463 146.387293 
L 339.141818 146.041749 
L 339.776529 145.703874 
L 341.363306 144.91927 
L 341.998017 144.663744 
L 342.950083 144.073393 
L 343.584793 143.785282 
L 345.488926 142.622799 
L 346.123636 142.185236 
L 346.758347 141.865368 
L 347.393058 141.415169 
L 348.027769 141.216253 
L 348.345124 140.903138 
L 348.662479 140.871917 
L 348.979835 140.495593 
L 349.29719 140.369208 
L 349.614545 140.119583 
L 350.249256 139.908601 
L 351.201322 139.200448 
L 351.836033 138.934886 
L 352.470744 138.429346 
L 355.644298 136.617147 
L 356.913719 136.001319 
L 357.865785 135.185566 
L 358.500496 134.824141 
L 359.135207 134.226947 
L 359.452562 134.097054 
L 361.039339 132.858551 
L 361.991405 132.295118 
L 362.30876 131.930956 
L 362.943471 131.632128 
L 363.578182 131.101834 
L 364.530248 130.530816 
L 364.847603 130.167819 
L 365.164959 130.068252 
L 366.117025 129.415221 
L 366.751736 129.187809 
L 367.069091 128.548101 
L 367.386446 128.368662 
L 367.703802 127.93163 
L 368.338512 127.574386 
L 368.973223 127.107371 
L 370.56 125.559026 
L 371.512066 124.958918 
L 371.829421 124.799177 
L 372.781488 123.901161 
L 373.416198 123.516149 
L 374.368264 122.375127 
L 374.68562 122.170784 
L 375.002975 121.806876 
L 375.320331 121.613022 
L 376.272397 120.669516 
L 376.907107 120.233623 
L 377.859174 119.492601 
L 378.176529 119.006525 
L 378.81124 118.477138 
L 379.763306 117.544556 
L 380.080661 117.059891 
L 380.398017 116.850984 
L 380.715372 116.477828 
L 381.032727 115.649624 
L 381.350083 115.480566 
L 382.302149 114.452023 
L 382.619504 113.708332 
L 382.93686 113.642956 
L 383.57157 112.817625 
L 383.888926 112.572584 
L 384.523636 111.679191 
L 385.475702 110.373944 
L 386.110413 109.331689 
L 386.427769 109.064511 
L 386.745124 108.989076 
L 387.69719 107.304393 
L 388.331901 106.458975 
L 388.649256 105.200967 
L 388.966612 104.79833 
L 389.283967 103.935577 
L 389.601322 103.769673 
L 390.236033 102.789432 
L 393.092231 96.866677 
L 393.409587 95.443233 
L 393.726942 94.74529 
L 394.679008 91.886833 
L 395.631074 89.701015 
L 395.94843 87.349046 
L 396.58314 85.061681 
L 397.217851 78.276925 
L 397.535207 77.44081 
L 397.852562 75.07743 
L 398.169917 70.781609 
L 398.487273 68.248059 
L 398.487273 68.248059 
" clip-path="url(#pf71bb47391)" style="fill: none; stroke: #1f77b4; stroke-width: 1.5; stroke-linecap: square"/>
   </g>
   <g id="line2d_16">
    <path d="M 73.832727 259.773253 
L 77.006281 259.773253 
L 77.323636 258.222477 
L 79.862479 258.222477 
L 80.179835 256.530079 
L 82.083967 256.530079 
L 82.401322 254.660178 
L 83.670744 254.660178 
L 83.988099 253.72196 
L 86.526942 253.72196 
L 86.844298 252.560023 
L 87.479008 252.560023 
L 87.796364 252.327626 
L 89.700496 252.327626 
L 90.017851 250.806719 
L 91.287273 250.806719 
L 91.604628 250.147371 
L 91.921983 249.132425 
L 92.556694 249.132425 
L 92.87405 247.737814 
L 94.778182 247.737814 
L 95.095537 246.906249 
L 96.364959 246.906249 
L 96.682314 246.712266 
L 99.221157 246.712266 
L 99.538512 246.018004 
L 100.173223 246.018004 
L 100.490579 245.008533 
L 102.394711 245.008533 
L 102.712066 243.249467 
L 105.568264 243.166114 
L 105.88562 242.325641 
L 107.789752 242.325641 
L 108.107107 241.328811 
L 108.741818 241.328811 
L 109.059174 240.084063 
L 110.328595 240.084063 
L 110.64595 239.375997 
L 111.915372 239.375997 
L 112.232727 239.1394 
L 112.550083 237.895486 
L 116.040992 237.879568 
L 116.358347 237.060536 
L 118.262479 237.060536 
L 118.579835 236.053857 
L 120.483967 236.053857 
L 120.801322 234.697459 
L 121.436033 234.697459 
L 121.753388 234.088773 
L 123.02281 234.088773 
L 123.340165 233.87635 
L 124.609587 233.87635 
L 124.926942 232.487343 
L 126.831074 232.487343 
L 127.14843 231.947602 
L 127.78314 231.947602 
L 128.100496 230.472854 
L 130.956694 230.439696 
L 131.27405 229.546453 
L 131.591405 229.386787 
L 132.860826 229.386787 
L 133.495537 229.273503 
L 135.082314 229.273503 
L 135.399669 229.024482 
L 136.669091 229.024482 
L 136.986446 228.271451 
L 137.303802 228.138752 
L 140.794711 228.088468 
L 141.112066 226.132831 
L 143.016198 226.132831 
L 143.333554 225.593032 
L 144.602975 225.593032 
L 144.920331 225.165722 
L 147.141818 225.115335 
L 147.776529 225.016028 
L 148.093884 225.016028 
L 148.41124 223.997529 
L 149.680661 223.997529 
L 149.998017 221.634261 
L 150.632727 221.634261 
L 150.950083 221.349062 
L 151.584793 221.349062 
L 151.902149 220.70404 
L 152.219504 220.578637 
L 153.488926 220.578637 
L 153.806281 220.402495 
L 155.710413 220.402495 
L 156.027769 218.970428 
L 157.614545 218.964587 
L 157.931901 218.297368 
L 160.470744 218.297368 
L 160.788099 217.892916 
L 161.42281 217.892916 
L 161.740165 217.455647 
L 162.374876 217.455647 
L 162.692231 217.061908 
L 163.961653 217.061908 
L 164.279008 216.281316 
L 164.913719 216.213111 
L 166.500496 216.213111 
L 166.817851 213.96829 
L 170.626116 213.917322 
L 170.943471 213.753215 
L 171.578182 213.753215 
L 171.895537 211.773129 
L 173.799669 211.773129 
L 174.117025 211.348552 
L 174.751736 211.348552 
L 175.069091 210.282051 
L 176.973223 210.282051 
L 177.290579 209.500866 
L 183.002975 209.425633 
L 183.320331 208.608088 
L 184.589752 208.608088 
L 184.907107 208.410414 
L 185.224463 207.680559 
L 185.859174 207.680559 
L 186.176529 207.26481 
L 188.080661 207.26481 
L 188.398017 206.821215 
L 189.032727 206.821215 
L 189.350083 206.553959 
L 189.984793 206.553959 
L 190.302149 206.058646 
L 191.57157 206.058646 
L 191.888926 205.812142 
L 192.206281 204.827054 
L 193.475702 204.827054 
L 193.793058 204.450496 
L 194.427769 204.450496 
L 194.745124 203.111118 
L 196.014545 203.111118 
L 196.331901 202.911946 
L 196.966612 202.911946 
L 197.283967 202.454975 
L 199.82281 202.454975 
L 200.140165 202.078084 
L 200.774876 202.078084 
L 201.092231 201.530485 
L 202.996364 201.530485 
L 203.313719 201.13787 
L 205.217851 201.13787 
L 205.535207 200.896936 
L 206.169917 200.896936 
L 206.487273 200.163522 
L 208.391405 200.163522 
L 208.70876 199.270339 
L 209.978182 199.270339 
L 210.295537 199.041147 
L 211.564959 199.041147 
L 211.882314 198.901704 
L 212.199669 197.954458 
L 216.325289 197.872659 
L 216.642645 197.614023 
L 217.912066 197.614023 
L 218.229421 197.249583 
L 218.864132 197.249583 
L 219.181488 196.810562 
L 219.816198 196.810562 
L 220.450909 195.604242 
L 222.355041 195.604242 
L 222.672397 194.723788 
L 223.307107 194.723788 
L 223.941818 194.273914 
L 225.21124 194.273914 
L 225.528595 193.87631 
L 227.432727 193.87631 
L 227.750083 193.418366 
L 229.019504 193.418366 
L 229.33686 192.983269 
L 231.558347 192.948152 
L 231.875702 192.545456 
L 232.510413 192.545456 
L 232.827769 192.239153 
L 234.731901 192.239153 
L 235.049256 191.862651 
L 236.318678 191.862651 
L 236.636033 191.360004 
L 237.270744 191.294325 
L 238.857521 191.294325 
L 239.174876 190.002852 
L 239.809587 190.002852 
L 240.126942 189.660989 
L 242.34843 189.561342 
L 242.665785 189.212729 
L 244.569917 189.212729 
L 244.887273 188.702184 
L 245.521983 188.702184 
L 245.839339 188.575903 
L 247.10876 188.575903 
L 247.426116 187.595997 
L 248.695537 187.595997 
L 249.012893 187.107354 
L 251.23438 187.027955 
L 251.551736 186.519275 
L 251.869091 185.749075 
L 254.090579 185.735815 
L 254.407934 185.049597 
L 255.042645 185.049597 
L 255.36 184.847963 
L 258.216198 184.791024 
L 258.533554 184.289155 
L 258.850909 183.351 
L 260.120331 183.351 
L 261.072397 182.078423 
L 263.293884 182.023492 
L 263.61124 181.888421 
L 265.515372 181.888421 
L 265.832727 180.830927 
L 268.688926 180.805573 
L 269.006281 180.489681 
L 269.640992 180.489681 
L 269.958347 180.097312 
L 271.862479 180.097312 
L 272.49719 179.981436 
L 272.814545 179.981436 
L 273.131901 179.522598 
L 274.401322 179.522598 
L 274.718678 179.267374 
L 275.353388 179.267374 
L 275.670744 178.974976 
L 276.940165 178.974976 
L 277.257521 177.54484 
L 278.844298 177.439985 
L 279.161653 177.179599 
L 280.431074 177.179599 
L 280.74843 176.206288 
L 281.065785 175.847175 
L 281.700496 175.847175 
L 282.017851 174.643538 
L 283.287273 174.643538 
L 283.604628 174.396244 
L 288.047603 174.285147 
L 288.364959 173.862426 
L 288.999669 173.862426 
L 289.63438 171.34017 
L 293.125289 171.330071 
L 293.442645 171.021069 
L 294.394711 170.977837 
L 295.029421 170.977837 
L 295.664132 169.984217 
L 296.298843 169.984217 
L 296.616198 169.577496 
L 298.520331 169.577496 
L 298.837686 169.067061 
L 300.107107 169.067061 
L 300.424463 168.610163 
L 302.01124 168.5099 
L 302.328595 168.196707 
L 303.598017 168.196707 
L 303.915372 167.984792 
L 304.550083 167.984792 
L 304.867438 166.41397 
L 306.13686 166.41397 
L 306.454215 166.011503 
L 307.088926 166.011503 
L 307.406281 164.709893 
L 308.040992 164.709893 
L 308.358347 164.389957 
L 308.675702 163.763588 
L 310.579835 163.763588 
L 310.89719 163.140638 
L 312.166612 163.140638 
L 312.483967 162.932063 
L 313.118678 162.932063 
L 313.436033 162.808789 
L 314.070744 162.808789 
L 314.388099 161.713349 
L 315.02281 161.713349 
L 315.974876 160.463361 
L 317.244298 160.463361 
L 317.561653 159.981214 
L 318.831074 159.981214 
L 319.14843 159.120189 
L 319.465785 158.889201 
L 321.369917 158.889201 
L 321.687273 158.097875 
L 323.90876 158.017284 
L 324.226116 156.908776 
L 324.860826 156.908776 
L 325.178182 156.756475 
L 325.812893 156.756475 
L 326.130248 156.416389 
L 326.764959 156.416389 
L 327.082314 155.48894 
L 328.351736 155.48894 
L 328.669091 155.363573 
L 328.986446 154.097062 
L 330.890579 154.097062 
L 331.207934 153.148904 
L 331.842645 153.148904 
L 332.477355 152.048354 
L 333.746777 152.048354 
L 334.064132 151.643375 
L 334.698843 151.643375 
L 335.016198 151.112983 
L 335.650909 151.112983 
L 335.968264 150.590109 
L 337.237686 150.590109 
L 337.555041 149.692475 
L 338.189752 149.692475 
L 338.507107 149.246876 
L 341.998017 149.177449 
L 342.315372 147.22232 
L 342.632727 146.942555 
L 343.902149 146.942555 
L 344.219504 146.588443 
L 344.854215 146.588443 
L 345.17157 145.568506 
L 346.440992 145.568506 
L 346.758347 144.788847 
L 347.393058 144.788847 
L 347.710413 144.352541 
L 348.345124 144.352541 
L 348.662479 143.974519 
L 349.29719 143.974519 
L 349.614545 143.150723 
L 349.931901 141.927869 
L 351.518678 141.919254 
L 351.836033 141.442637 
L 354.692231 141.426288 
L 355.009587 141.175377 
L 356.279008 141.175377 
L 356.596364 139.0238 
L 357.231074 139.0238 
L 357.54843 138.146006 
L 358.18314 138.146006 
L 358.500496 137.670212 
L 359.769917 137.670212 
L 360.087273 136.771719 
L 361.356694 136.771719 
L 361.67405 136.540464 
L 362.30876 136.454819 
L 362.626116 136.454819 
L 362.943471 135.976039 
L 364.212893 135.976039 
L 364.530248 133.799747 
L 364.847603 133.638735 
L 365.482314 133.638735 
L 365.799669 133.301507 
L 366.43438 133.301507 
L 366.751736 132.221034 
L 367.386446 132.221034 
L 367.703802 131.088544 
L 368.338512 131.088544 
L 368.655868 130.887523 
L 369.925289 130.887523 
L 370.242645 128.663098 
L 371.512066 128.663098 
L 371.829421 128.066579 
L 372.146777 127.8852 
L 372.464132 126.388875 
L 373.098843 126.388875 
L 373.416198 125.819842 
L 374.050909 125.819842 
L 374.368264 125.63438 
L 375.637686 125.63438 
L 375.955041 125.156142 
L 376.589752 125.156142 
L 376.907107 121.756724 
L 377.224463 120.39667 
L 377.859174 120.39667 
L 378.176529 119.379173 
L 379.44595 119.379173 
L 379.763306 117.375358 
L 381.032727 117.375358 
L 381.350083 117.202268 
L 381.984793 117.202268 
L 382.619504 114.051651 
L 383.888926 114.051651 
L 384.206281 113.900963 
L 384.840992 113.900963 
L 385.158347 111.864643 
L 385.793058 111.864643 
L 386.110413 108.397442 
L 386.745124 108.397442 
L 387.062479 107.853313 
L 387.69719 105.674637 
L 388.966612 105.674637 
L 389.283967 102.644784 
L 389.918678 102.644784 
L 390.236033 101.987941 
L 390.553388 99.737578 
L 391.188099 99.737578 
L 391.505455 96.992995 
L 392.140165 96.992995 
L 392.457521 94.973602 
L 393.726942 94.973602 
L 394.044298 92.744093 
L 394.361653 88.659078 
L 394.996364 88.659078 
L 395.313719 88.10056 
L 395.94843 88.10056 
L 396.265785 80.874888 
L 396.58314 76.729151 
L 397.217851 76.729151 
L 397.535207 63.940309 
L 398.169917 63.940309 
L 398.487273 53.568 
L 398.487273 53.568 
" clip-path="url(#pf71bb47391)" style="fill: none; stroke: #ff7f0e; stroke-width: 1.5; stroke-linecap: square"/>
   </g>
   <g id="patch_3">
    <path d="M 57.6 307.584 
L 57.6 41.472 
" style="fill: none; stroke: #000000; stroke-width: 0.8; stroke-linejoin: miter; stroke-linecap: square"/>
   </g>
   <g id="patch_4">
    <path d="M 414.72 307.584 
L 414.72 41.472 
" style="fill: none; stroke: #000000; stroke-width: 0.8; stroke-linejoin: miter; stroke-linecap: square"/>
   </g>
   <g id="patch_5">
    <path d="M 57.6 307.584 
L 414.72 307.584 
" style="fill: none; stroke: #000000; stroke-width: 0.8; stroke-linejoin: miter; stroke-linecap: square"/>
   </g>
   <g id="patch_6">
    <path d="M 57.6 41.472 
L 414.72 41.472 
" style="fill: none; stroke: #000000; stroke-width: 0.8; stroke-linejoin: miter; stroke-linecap: square"/>
   </g>
   <g id="legend_1">
    <g id="patch_7">
     <path d="M 64.6 78.82825 
L 129.342187 78.82825 
Q 131.342187 78.82825 131.342187 76.82825 
L 131.342187 48.472 
Q 131.342187 46.472 129.342187 46.472 
L 64.6 46.472 
Q 62.6 46.472 62.6 48.472 
L 62.6 76.82825 
Q 62.6 78.82825 64.6 78.82825 
z
" style="fill: #ffffff; opacity: 0.8; stroke: #cccccc; stroke-linejoin: miter"/>
    </g>
    <g id="line2d_17">
     <path d="M 66.6 54.570437 
L 76.6 54.570437 
L 86.6 54.570437 
" style="fill: none; stroke: #1f77b4; stroke-width: 1.5; stroke-linecap: square"/>
    </g>
    <g id="text_17">
     <!-- qc -->
     <g transform="translate(94.6 58.070437) scale(0.1 -0.1)">
      <defs>
       <path id="DejaVuSans-71" d="M 947 1747 
Q 947 1113 1208 752 
Q 1469 391 1925 391 
Q 2381 391 2643 752 
Q 2906 1113 2906 1747 
Q 2906 2381 2643 2742 
Q 2381 3103 1925 3103 
Q 1469 3103 1208 2742 
Q 947 2381 947 1747 
z
M 2906 525 
Q 2725 213 2448 61 
Q 2172 -91 1784 -91 
Q 1150 -91 751 415 
Q 353 922 353 1747 
Q 353 2572 751 3078 
Q 1150 3584 1784 3584 
Q 2172 3584 2448 3432 
Q 2725 3281 2906 2969 
L 2906 3500 
L 3481 3500 
L 3481 -1331 
L 2906 -1331 
L 2906 525 
z
" transform="scale(0.015625)"/>
       <path id="DejaVuSans-63" d="M 3122 3366 
L 3122 2828 
Q 2878 2963 2633 3030 
Q 2388 3097 2138 3097 
Q 1578 3097 1268 2742 
Q 959 2388 959 1747 
Q 959 1106 1268 751 
Q 1578 397 2138 397 
Q 2388 397 2633 464 
Q 2878 531 3122 666 
L 3122 134 
Q 2881 22 2623 -34 
Q 2366 -91 2075 -91 
Q 1284 -91 818 406 
Q 353 903 353 1747 
Q 353 2603 823 3093 
Q 1294 3584 2113 3584 
Q 2378 3584 2631 3529 
Q 2884 3475 3122 3366 
z
" transform="scale(0.015625)"/>
      </defs>
      <use xlink:href="#DejaVuSans-71"/>
      <use xlink:href="#DejaVuSans-63" x="63.476562"/>
     </g>
    </g>
    <g id="line2d_18">
     <path d="M 66.6 69.248562 
L 76.6 69.248562 
L 86.6 69.248562 
" style="fill: none; stroke: #ff7f0e; stroke-width: 1.5; stroke-linecap: square"/>
    </g>
    <g id="text_18">
     <!-- Trotter -->
     <g transform="translate(94.6 72.748562) scale(0.1 -0.1)">
      <defs>
       <path id="DejaVuSans-54" d="M -19 4666 
L 3928 4666 
L 3928 4134 
L 2272 4134 
L 2272 0 
L 1638 0 
L 1638 4134 
L -19 4134 
L -19 4666 
z
" transform="scale(0.015625)"/>
       <path id="DejaVuSans-72" d="M 2631 2963 
Q 2534 3019 2420 3045 
Q 2306 3072 2169 3072 
Q 1681 3072 1420 2755 
Q 1159 2438 1159 1844 
L 1159 0 
L 581 0 
L 581 3500 
L 1159 3500 
L 1159 2956 
Q 1341 3275 1631 3429 
Q 1922 3584 2338 3584 
Q 2397 3584 2469 3576 
Q 2541 3569 2628 3553 
L 2631 2963 
z
" transform="scale(0.015625)"/>
       <path id="DejaVuSans-6f" d="M 1959 3097 
Q 1497 3097 1228 2736 
Q 959 2375 959 1747 
Q 959 1119 1226 758 
Q 1494 397 1959 397 
Q 2419 397 2687 759 
Q 2956 1122 2956 1747 
Q 2956 2369 2687 2733 
Q 2419 3097 1959 3097 
z
M 1959 3584 
Q 2709 3584 3137 3096 
Q 3566 2609 3566 1747 
Q 3566 888 3137 398 
Q 2709 -91 1959 -91 
Q 1206 -91 779 398 
Q 353 888 353 1747 
Q 353 2609 779 3096 
Q 1206 3584 1959 3584 
z
" transform="scale(0.015625)"/>
       <path id="DejaVuSans-65" d="M 3597 1894 
L 3597 1613 
L 953 1613 
Q 991 1019 1311 708 
Q 1631 397 2203 397 
Q 2534 397 2845 478 
Q 3156 559 3463 722 
L 3463 178 
Q 3153 47 2828 -22 
Q 2503 -91 2169 -91 
Q 1331 -91 842 396 
Q 353 884 353 1716 
Q 353 2575 817 3079 
Q 1281 3584 2069 3584 
Q 2775 3584 3186 3129 
Q 3597 2675 3597 1894 
z
M 3022 2063 
Q 3016 2534 2758 2815 
Q 2500 3097 2075 3097 
Q 1594 3097 1305 2825 
Q 1016 2553 972 2059 
L 3022 2063 
z
" transform="scale(0.015625)"/>
      </defs>
      <use xlink:href="#DejaVuSans-54"/>
      <use xlink:href="#DejaVuSans-72" x="46.333984"/>
      <use xlink:href="#DejaVuSans-6f" x="85.197266"/>
      <use xlink:href="#DejaVuSans-74" x="146.378906"/>
      <use xlink:href="#DejaVuSans-74" x="185.587891"/>
      <use xlink:href="#DejaVuSans-65" x="224.796875"/>
      <use xlink:href="#DejaVuSans-72" x="286.320312"/>
     </g>
    </g>
   </g>
  </g>
 </g>
 <defs>
  <clipPath id="pf71bb47391">
   <rect x="57.6" y="41.472" width="357.12" height="266.112"/>
  </clipPath>
 </defs>
</svg>
