<?xml version="1.0" encoding="utf-8" standalone="no"?>
<!DOCTYPE svg PUBLIC "-//W3C//DTD SVG 1.1//EN"
  "http://www.w3.org/Graphics/SVG/1.1/DTD/svg11.dtd">
<svg xmlns:xlink="http://www.w3.org/1999/xlink" width="460.8pt" height="345.6pt" viewBox="0 0 460.8 345.6" xmlns="http://www.w3.org/2000/svg" version="1.1">
 <metadata>
  <rdf:RDF xmlns:dc="http://purl.org/dc/elements/1.1/" xmlns:cc="http://creativecommons.org/ns#" xmlns:rdf="http://www.w3.org/1999/02/22-rdf-syntax-ns#">
   <cc:Work>
    <dc:type rdf:resource="http://purl.org/dc/dcmitype/StillImage"/>
    <dc:date>2024-07-14T11:00:46.658527</dc:date>
    <dc:format>image/svg+xml</dc:format>
    <dc:creator>
     <cc:Agent>
      <dc:title>Matplotlib v3.7.1, https://matplotlib.org/</dc:title>
     </cc:Agent>
    </dc:creator>
   </cc:Work>
  </rdf:RDF>
 </metadata>
 <defs>
  <style type="text/css">*{stroke-linejoin: round; stroke-linecap: butt}</style>
 </defs>
 <g id="figure_1">
  <g id="patch_1">
   <path d="M 0 345.6 
L 460.8 345.6 
L 460.8 0 
L 0 0 
z
" style="fill: #ffffff"/>
  </g>
  <g id="axes_1">
   <g id="patch_2">
    <path d="M 57.6 307.584 
L 414.72 307.584 
L 414.72 41.472 
L 57.6 41.472 
z
" style="fill: #ffffff"/>
   </g>
   <g id="matplotlib.axis_1">
    <g id="xtick_1">
     <g id="line2d_1">
      <defs>
       <path id="m8c7447c04c" d="M 0 0 
L 0 3.5 
" style="stroke: #000000; stroke-width: 0.8"/>
      </defs>
      <g>
       <use xlink:href="#m8c7447c04c" x="73.832727" y="307.584" style="stroke: #000000; stroke-width: 0.8"/>
      </g>
     </g>
     <g id="text_1">
      <!-- 0 -->
      <g transform="translate(70.651477 322.182437) scale(0.1 -0.1)">
       <defs>
        <path id="DejaVuSans-30" d="M 2034 4250 
Q 1547 4250 1301 3770 
Q 1056 3291 1056 2328 
Q 1056 1369 1301 889 
Q 1547 409 2034 409 
Q 2525 409 2770 889 
Q 3016 1369 3016 2328 
Q 3016 3291 2770 3770 
Q 2525 4250 2034 4250 
z
M 2034 4750 
Q 2819 4750 3233 4129 
Q 3647 3509 3647 2328 
Q 3647 1150 3233 529 
Q 2819 -91 2034 -91 
Q 1250 -91 836 529 
Q 422 1150 422 2328 
Q 422 3509 836 4129 
Q 1250 4750 2034 4750 
z
" transform="scale(0.015625)"/>
       </defs>
       <use xlink:href="#DejaVuSans-30"/>
      </g>
     </g>
    </g>
    <g id="xtick_2">
     <g id="line2d_2">
      <g>
       <use xlink:href="#m8c7447c04c" x="137.303802" y="307.584" style="stroke: #000000; stroke-width: 0.8"/>
      </g>
     </g>
     <g id="text_2">
      <!-- 200 -->
      <g transform="translate(127.760052 322.182437) scale(0.1 -0.1)">
       <defs>
        <path id="DejaVuSans-32" d="M 1228 531 
L 3431 531 
L 3431 0 
L 469 0 
L 469 531 
Q 828 903 1448 1529 
Q 2069 2156 2228 2338 
Q 2531 2678 2651 2914 
Q 2772 3150 2772 3378 
Q 2772 3750 2511 3984 
Q 2250 4219 1831 4219 
Q 1534 4219 1204 4116 
Q 875 4013 500 3803 
L 500 4441 
Q 881 4594 1212 4672 
Q 1544 4750 1819 4750 
Q 2544 4750 2975 4387 
Q 3406 4025 3406 3419 
Q 3406 3131 3298 2873 
Q 3191 2616 2906 2266 
Q 2828 2175 2409 1742 
Q 1991 1309 1228 531 
z
" transform="scale(0.015625)"/>
       </defs>
       <use xlink:href="#DejaVuSans-32"/>
       <use xlink:href="#DejaVuSans-30" x="63.623047"/>
       <use xlink:href="#DejaVuSans-30" x="127.246094"/>
      </g>
     </g>
    </g>
    <g id="xtick_3">
     <g id="line2d_3">
      <g>
       <use xlink:href="#m8c7447c04c" x="200.774876" y="307.584" style="stroke: #000000; stroke-width: 0.8"/>
      </g>
     </g>
     <g id="text_3">
      <!-- 400 -->
      <g transform="translate(191.231126 322.182437) scale(0.1 -0.1)">
       <defs>
        <path id="DejaVuSans-34" d="M 2419 4116 
L 825 1625 
L 2419 1625 
L 2419 4116 
z
M 2253 4666 
L 3047 4666 
L 3047 1625 
L 3713 1625 
L 3713 1100 
L 3047 1100 
L 3047 0 
L 2419 0 
L 2419 1100 
L 313 1100 
L 313 1709 
L 2253 4666 
z
" transform="scale(0.015625)"/>
       </defs>
       <use xlink:href="#DejaVuSans-34"/>
       <use xlink:href="#DejaVuSans-30" x="63.623047"/>
       <use xlink:href="#DejaVuSans-30" x="127.246094"/>
      </g>
     </g>
    </g>
    <g id="xtick_4">
     <g id="line2d_4">
      <g>
       <use xlink:href="#m8c7447c04c" x="264.24595" y="307.584" style="stroke: #000000; stroke-width: 0.8"/>
      </g>
     </g>
     <g id="text_4">
      <!-- 600 -->
      <g transform="translate(254.7022 322.182437) scale(0.1 -0.1)">
       <defs>
        <path id="DejaVuSans-36" d="M 2113 2584 
Q 1688 2584 1439 2293 
Q 1191 2003 1191 1497 
Q 1191 994 1439 701 
Q 1688 409 2113 409 
Q 2538 409 2786 701 
Q 3034 994 3034 1497 
Q 3034 2003 2786 2293 
Q 2538 2584 2113 2584 
z
M 3366 4563 
L 3366 3988 
Q 3128 4100 2886 4159 
Q 2644 4219 2406 4219 
Q 1781 4219 1451 3797 
Q 1122 3375 1075 2522 
Q 1259 2794 1537 2939 
Q 1816 3084 2150 3084 
Q 2853 3084 3261 2657 
Q 3669 2231 3669 1497 
Q 3669 778 3244 343 
Q 2819 -91 2113 -91 
Q 1303 -91 875 529 
Q 447 1150 447 2328 
Q 447 3434 972 4092 
Q 1497 4750 2381 4750 
Q 2619 4750 2861 4703 
Q 3103 4656 3366 4563 
z
" transform="scale(0.015625)"/>
       </defs>
       <use xlink:href="#DejaVuSans-36"/>
       <use xlink:href="#DejaVuSans-30" x="63.623047"/>
       <use xlink:href="#DejaVuSans-30" x="127.246094"/>
      </g>
     </g>
    </g>
    <g id="xtick_5">
     <g id="line2d_5">
      <g>
       <use xlink:href="#m8c7447c04c" x="327.717025" y="307.584" style="stroke: #000000; stroke-width: 0.8"/>
      </g>
     </g>
     <g id="text_5">
      <!-- 800 -->
      <g transform="translate(318.173275 322.182437) scale(0.1 -0.1)">
       <defs>
        <path id="DejaVuSans-38" d="M 2034 2216 
Q 1584 2216 1326 1975 
Q 1069 1734 1069 1313 
Q 1069 891 1326 650 
Q 1584 409 2034 409 
Q 2484 409 2743 651 
Q 3003 894 3003 1313 
Q 3003 1734 2745 1975 
Q 2488 2216 2034 2216 
z
M 1403 2484 
Q 997 2584 770 2862 
Q 544 3141 544 3541 
Q 544 4100 942 4425 
Q 1341 4750 2034 4750 
Q 2731 4750 3128 4425 
Q 3525 4100 3525 3541 
Q 3525 3141 3298 2862 
Q 3072 2584 2669 2484 
Q 3125 2378 3379 2068 
Q 3634 1759 3634 1313 
Q 3634 634 3220 271 
Q 2806 -91 2034 -91 
Q 1263 -91 848 271 
Q 434 634 434 1313 
Q 434 1759 690 2068 
Q 947 2378 1403 2484 
z
M 1172 3481 
Q 1172 3119 1398 2916 
Q 1625 2713 2034 2713 
Q 2441 2713 2670 2916 
Q 2900 3119 2900 3481 
Q 2900 3844 2670 4047 
Q 2441 4250 2034 4250 
Q 1625 4250 1398 4047 
Q 1172 3844 1172 3481 
z
" transform="scale(0.015625)"/>
       </defs>
       <use xlink:href="#DejaVuSans-38"/>
       <use xlink:href="#DejaVuSans-30" x="63.623047"/>
       <use xlink:href="#DejaVuSans-30" x="127.246094"/>
      </g>
     </g>
    </g>
    <g id="xtick_6">
     <g id="line2d_6">
      <g>
       <use xlink:href="#m8c7447c04c" x="391.188099" y="307.584" style="stroke: #000000; stroke-width: 0.8"/>
      </g>
     </g>
     <g id="text_6">
      <!-- 1000 -->
      <g transform="translate(378.463099 322.182437) scale(0.1 -0.1)">
       <defs>
        <path id="DejaVuSans-31" d="M 794 531 
L 1825 531 
L 1825 4091 
L 703 3866 
L 703 4441 
L 1819 4666 
L 2450 4666 
L 2450 531 
L 3481 531 
L 3481 0 
L 794 0 
L 794 531 
z
" transform="scale(0.015625)"/>
       </defs>
       <use xlink:href="#DejaVuSans-31"/>
       <use xlink:href="#DejaVuSans-30" x="63.623047"/>
       <use xlink:href="#DejaVuSans-30" x="127.246094"/>
       <use xlink:href="#DejaVuSans-30" x="190.869141"/>
      </g>
     </g>
    </g>
    <g id="text_7">
     <!-- n -->
     <g transform="translate(232.99125 335.860562) scale(0.1 -0.1)">
      <defs>
       <path id="DejaVuSans-6e" d="M 3513 2113 
L 3513 0 
L 2938 0 
L 2938 2094 
Q 2938 2591 2744 2837 
Q 2550 3084 2163 3084 
Q 1697 3084 1428 2787 
Q 1159 2491 1159 1978 
L 1159 0 
L 581 0 
L 581 3500 
L 1159 3500 
L 1159 2956 
Q 1366 3272 1645 3428 
Q 1925 3584 2291 3584 
Q 2894 3584 3203 3211 
Q 3513 2838 3513 2113 
z
" transform="scale(0.015625)"/>
      </defs>
      <use xlink:href="#DejaVuSans-6e"/>
     </g>
    </g>
   </g>
   <g id="matplotlib.axis_2">
    <g id="ytick_1">
     <g id="line2d_7">
      <defs>
       <path id="m824d6d2168" d="M 0 0 
L -3.5 0 
" style="stroke: #000000; stroke-width: 0.8"/>
      </defs>
      <g>
       <use xlink:href="#m824d6d2168" x="57.6" y="267.889672" style="stroke: #000000; stroke-width: 0.8"/>
      </g>
     </g>
     <g id="text_8">
      <!-- −1.0 -->
      <g transform="translate(26.317187 271.68889) scale(0.1 -0.1)">
       <defs>
        <path id="DejaVuSans-2212" d="M 678 2272 
L 4684 2272 
L 4684 1741 
L 678 1741 
L 678 2272 
z
" transform="scale(0.015625)"/>
        <path id="DejaVuSans-2e" d="M 684 794 
L 1344 794 
L 1344 0 
L 684 0 
L 684 794 
z
" transform="scale(0.015625)"/>
       </defs>
       <use xlink:href="#DejaVuSans-2212"/>
       <use xlink:href="#DejaVuSans-31" x="83.789062"/>
       <use xlink:href="#DejaVuSans-2e" x="147.412109"/>
       <use xlink:href="#DejaVuSans-30" x="179.199219"/>
      </g>
     </g>
    </g>
    <g id="ytick_2">
     <g id="line2d_8">
      <g>
       <use xlink:href="#m824d6d2168" x="57.6" y="227.782556" style="stroke: #000000; stroke-width: 0.8"/>
      </g>
     </g>
     <g id="text_9">
      <!-- −0.5 -->
      <g transform="translate(26.317187 231.581775) scale(0.1 -0.1)">
       <defs>
        <path id="DejaVuSans-35" d="M 691 4666 
L 3169 4666 
L 3169 4134 
L 1269 4134 
L 1269 2991 
Q 1406 3038 1543 3061 
Q 1681 3084 1819 3084 
Q 2600 3084 3056 2656 
Q 3513 2228 3513 1497 
Q 3513 744 3044 326 
Q 2575 -91 1722 -91 
Q 1428 -91 1123 -41 
Q 819 9 494 109 
L 494 744 
Q 775 591 1075 516 
Q 1375 441 1709 441 
Q 2250 441 2565 725 
Q 2881 1009 2881 1497 
Q 2881 1984 2565 2268 
Q 2250 2553 1709 2553 
Q 1456 2553 1204 2497 
Q 953 2441 691 2322 
L 691 4666 
z
" transform="scale(0.015625)"/>
       </defs>
       <use xlink:href="#DejaVuSans-2212"/>
       <use xlink:href="#DejaVuSans-30" x="83.789062"/>
       <use xlink:href="#DejaVuSans-2e" x="147.412109"/>
       <use xlink:href="#DejaVuSans-35" x="179.199219"/>
      </g>
     </g>
    </g>
    <g id="ytick_3">
     <g id="line2d_9">
      <g>
       <use xlink:href="#m824d6d2168" x="57.6" y="187.675441" style="stroke: #000000; stroke-width: 0.8"/>
      </g>
     </g>
     <g id="text_10">
      <!-- 0.0 -->
      <g transform="translate(34.696875 191.47466) scale(0.1 -0.1)">
       <use xlink:href="#DejaVuSans-30"/>
       <use xlink:href="#DejaVuSans-2e" x="63.623047"/>
       <use xlink:href="#DejaVuSans-30" x="95.410156"/>
      </g>
     </g>
    </g>
    <g id="ytick_4">
     <g id="line2d_10">
      <g>
       <use xlink:href="#m824d6d2168" x="57.6" y="147.568326" style="stroke: #000000; stroke-width: 0.8"/>
      </g>
     </g>
     <g id="text_11">
      <!-- 0.5 -->
      <g transform="translate(34.696875 151.367545) scale(0.1 -0.1)">
       <use xlink:href="#DejaVuSans-30"/>
       <use xlink:href="#DejaVuSans-2e" x="63.623047"/>
       <use xlink:href="#DejaVuSans-35" x="95.410156"/>
      </g>
     </g>
    </g>
    <g id="ytick_5">
     <g id="line2d_11">
      <g>
       <use xlink:href="#m824d6d2168" x="57.6" y="107.461211" style="stroke: #000000; stroke-width: 0.8"/>
      </g>
     </g>
     <g id="text_12">
      <!-- 1.0 -->
      <g transform="translate(34.696875 111.26043) scale(0.1 -0.1)">
       <use xlink:href="#DejaVuSans-31"/>
       <use xlink:href="#DejaVuSans-2e" x="63.623047"/>
       <use xlink:href="#DejaVuSans-30" x="95.410156"/>
      </g>
     </g>
    </g>
    <g id="ytick_6">
     <g id="line2d_12">
      <g>
       <use xlink:href="#m824d6d2168" x="57.6" y="67.354096" style="stroke: #000000; stroke-width: 0.8"/>
      </g>
     </g>
     <g id="text_13">
      <!-- 1.5 -->
      <g transform="translate(34.696875 71.153315) scale(0.1 -0.1)">
       <use xlink:href="#DejaVuSans-31"/>
       <use xlink:href="#DejaVuSans-2e" x="63.623047"/>
       <use xlink:href="#DejaVuSans-35" x="95.410156"/>
      </g>
     </g>
    </g>
    <g id="text_14">
     <!-- E*t -->
     <g transform="translate(20.2375 182.147531) rotate(-90) scale(0.1 -0.1)">
      <defs>
       <path id="DejaVuSans-45" d="M 628 4666 
L 3578 4666 
L 3578 4134 
L 1259 4134 
L 1259 2753 
L 3481 2753 
L 3481 2222 
L 1259 2222 
L 1259 531 
L 3634 531 
L 3634 0 
L 628 0 
L 628 4666 
z
" transform="scale(0.015625)"/>
       <path id="DejaVuSans-2a" d="M 3009 3897 
L 1888 3291 
L 3009 2681 
L 2828 2375 
L 1778 3009 
L 1778 1831 
L 1422 1831 
L 1422 3009 
L 372 2375 
L 191 2681 
L 1313 3291 
L 191 3897 
L 372 4206 
L 1422 3572 
L 1422 4750 
L 1778 4750 
L 1778 3572 
L 2828 4206 
L 3009 3897 
z
" transform="scale(0.015625)"/>
       <path id="DejaVuSans-74" d="M 1172 4494 
L 1172 3500 
L 2356 3500 
L 2356 3053 
L 1172 3053 
L 1172 1153 
Q 1172 725 1289 603 
Q 1406 481 1766 481 
L 2356 481 
L 2356 0 
L 1766 0 
Q 1100 0 847 248 
Q 594 497 594 1153 
L 594 3053 
L 172 3053 
L 172 3500 
L 594 3500 
L 594 4494 
L 1172 4494 
z
" transform="scale(0.015625)"/>
      </defs>
      <use xlink:href="#DejaVuSans-45"/>
      <use xlink:href="#DejaVuSans-2a" x="63.183594"/>
      <use xlink:href="#DejaVuSans-74" x="113.183594"/>
     </g>
    </g>
   </g>
   <g id="line2d_13">
    <path d="M 73.832727 295.488 
L 74.150083 284.450478 
L 74.467438 283.956884 
L 75.102149 280.655925 
L 75.419504 275.109001 
L 75.73686 274.73084 
L 76.37157 270.981927 
L 76.688926 270.77384 
L 77.006281 269.618731 
L 77.323636 269.369653 
L 77.958347 266.409714 
L 78.275702 266.173412 
L 78.593058 264.351758 
L 78.910413 263.694046 
L 79.227769 263.576859 
L 80.179835 260.972199 
L 80.49719 260.513325 
L 80.814545 260.274905 
L 81.131901 259.244671 
L 81.449256 259.189264 
L 81.766612 257.829447 
L 82.083967 255.950191 
L 82.718678 254.677899 
L 83.353388 254.535827 
L 83.988099 254.135032 
L 84.305455 253.806905 
L 84.940165 252.757728 
L 85.257521 252.706174 
L 85.574876 252.239637 
L 85.892231 252.055209 
L 87.161653 250.074991 
L 87.796364 249.939184 
L 88.113719 249.557406 
L 88.431074 248.610481 
L 89.38314 247.697731 
L 90.335207 247.317253 
L 90.969917 246.733719 
L 91.287273 245.906178 
L 91.921983 245.30808 
L 92.239339 244.759798 
L 92.556694 244.555039 
L 92.87405 244.164543 
L 93.191405 244.035418 
L 93.50876 243.543848 
L 93.826116 243.509231 
L 94.143471 243.04101 
L 95.095537 242.53332 
L 95.412893 241.947329 
L 95.730248 241.664711 
L 96.682314 241.445143 
L 97.63438 240.475231 
L 97.951736 240.41429 
L 98.269091 240.142694 
L 99.221157 239.738363 
L 99.855868 239.243224 
L 100.490579 238.913649 
L 101.125289 238.323358 
L 101.442645 237.970952 
L 101.76 237.830538 
L 102.712066 236.481965 
L 103.346777 236.262883 
L 103.664132 236.198276 
L 104.298843 235.882911 
L 105.250909 235.398347 
L 106.837686 234.488639 
L 107.789752 234.105555 
L 108.107107 233.637848 
L 108.741818 233.476683 
L 109.059174 233.381854 
L 109.693884 233.069093 
L 110.01124 232.958823 
L 110.64595 232.480101 
L 111.280661 232.300752 
L 112.232727 231.860276 
L 112.550083 231.793418 
L 112.867438 231.607291 
L 113.819504 231.405197 
L 114.454215 231.083863 
L 114.77157 230.948715 
L 115.406281 230.431931 
L 116.040992 229.998712 
L 116.675702 229.669434 
L 117.310413 229.469323 
L 120.483967 227.900476 
L 121.118678 227.676191 
L 121.436033 227.390794 
L 122.705455 226.851287 
L 123.02281 226.568182 
L 123.974876 226.420839 
L 125.561653 225.332201 
L 127.465785 224.702684 
L 128.100496 224.331751 
L 130.004628 223.413889 
L 130.639339 223.270715 
L 131.27405 222.986412 
L 132.226116 222.742318 
L 133.495537 222.182598 
L 134.447603 221.976588 
L 135.082314 221.534049 
L 135.717025 221.362278 
L 136.669091 220.910728 
L 136.986446 220.842429 
L 137.303802 220.623299 
L 138.573223 220.348444 
L 138.890579 220.046331 
L 139.842645 219.837945 
L 141.746777 219.175389 
L 143.650909 218.235843 
L 143.968264 218.175166 
L 144.28562 217.956963 
L 144.602975 217.928385 
L 145.555041 217.478215 
L 147.776529 216.893733 
L 148.41124 216.689282 
L 149.680661 216.444914 
L 149.998017 216.172476 
L 150.632727 216.04065 
L 151.902149 215.533405 
L 152.219504 215.239269 
L 152.53686 215.214967 
L 153.806281 214.636274 
L 156.345124 214.125154 
L 156.662479 213.899055 
L 157.931901 213.612425 
L 159.836033 212.997804 
L 161.740165 212.360548 
L 163.009587 211.919056 
L 163.326942 211.641479 
L 163.961653 211.534772 
L 167.769917 210.404543 
L 168.721983 210.164922 
L 171.578182 209.21457 
L 172.847603 208.722449 
L 173.482314 208.639892 
L 174.117025 208.409756 
L 174.43438 208.391906 
L 174.751736 208.244823 
L 175.386446 208.173887 
L 176.655868 207.69852 
L 177.290579 207.53151 
L 178.877355 207.11763 
L 179.512066 206.919751 
L 180.464132 206.635478 
L 184.589752 205.373334 
L 184.907107 205.355908 
L 185.541818 205.098288 
L 189.667438 203.997829 
L 190.302149 203.715665 
L 191.888926 203.267939 
L 192.206281 203.091625 
L 193.158347 202.900236 
L 193.475702 202.684835 
L 195.062479 202.348964 
L 198.553388 201.47202 
L 200.140165 201.037742 
L 201.092231 200.820853 
L 202.996364 200.192909 
L 204.58314 199.848143 
L 209.343471 198.602322 
L 209.978182 198.470949 
L 210.612893 198.144148 
L 211.882314 197.905248 
L 212.83438 197.447534 
L 213.151736 197.430635 
L 213.469091 197.250041 
L 214.738512 196.976065 
L 216.007934 196.643218 
L 218.864132 196.056413 
L 221.08562 195.634198 
L 221.720331 195.502685 
L 222.672397 195.239737 
L 223.624463 195.047353 
L 224.576529 194.82606 
L 225.21124 194.559675 
L 227.750083 193.895819 
L 228.702149 193.687751 
L 229.33686 193.514448 
L 233.462479 192.320227 
L 234.414545 192.026126 
L 237.905455 191.250707 
L 241.079008 190.136071 
L 243.300496 189.605358 
L 243.935207 189.412956 
L 245.204628 189.041672 
L 247.10876 188.561201 
L 248.378182 188.160825 
L 249.964959 187.795521 
L 250.917025 187.404934 
L 252.503802 187.037779 
L 256.946777 185.552712 
L 257.581488 185.449181 
L 258.533554 185.187345 
L 259.168264 184.975781 
L 260.120331 184.726356 
L 260.755041 184.605798 
L 262.659174 184.224947 
L 263.293884 183.96256 
L 264.880661 183.602411 
L 267.419504 182.967975 
L 268.37157 182.682207 
L 269.640992 182.412143 
L 270.593058 182.207911 
L 273.131901 181.502164 
L 273.449256 181.366036 
L 274.401322 181.221565 
L 277.574876 180.347541 
L 278.844298 179.983631 
L 280.74843 179.518853 
L 282.017851 179.214434 
L 283.287273 178.877385 
L 284.239339 178.601109 
L 284.87405 178.411728 
L 287.412893 177.721554 
L 288.047603 177.542178 
L 289.317025 177.182478 
L 289.951736 176.979019 
L 290.586446 176.771141 
L 291.538512 176.522701 
L 293.76 175.904693 
L 295.029421 175.482192 
L 295.981488 175.236848 
L 296.616198 174.919345 
L 297.250909 174.708617 
L 298.202975 174.399139 
L 307.088926 171.681687 
L 307.406281 171.623111 
L 308.040992 171.314916 
L 308.675702 171.134516 
L 309.310413 170.902473 
L 309.945124 170.757654 
L 310.579835 170.446641 
L 321.369917 167.013413 
L 322.004628 166.853573 
L 322.639339 166.507151 
L 323.591405 166.242052 
L 324.860826 165.905083 
L 326.130248 165.623187 
L 326.447603 165.390794 
L 327.717025 165.045087 
L 330.890579 163.855136 
L 331.207934 163.561869 
L 332.794711 163.038885 
L 334.381488 162.457658 
L 335.333554 162.067188 
L 335.650909 161.826391 
L 336.28562 161.654918 
L 339.459174 160.63237 
L 340.093884 160.286373 
L 347.075702 157.422531 
L 347.393058 157.15649 
L 348.027769 157.043103 
L 348.979835 156.545645 
L 349.29719 156.202859 
L 349.931901 156.046272 
L 350.883967 155.573497 
L 351.201322 155.509959 
L 351.836033 155.121418 
L 352.153388 154.998421 
L 352.788099 154.504941 
L 354.057521 154.118032 
L 355.644298 153.209537 
L 356.596364 152.82671 
L 359.452562 151.247764 
L 360.404628 150.996043 
L 360.721983 150.748864 
L 361.039339 150.677519 
L 362.626116 149.760875 
L 362.943471 149.686849 
L 363.260826 149.380843 
L 363.578182 149.249427 
L 364.212893 148.779665 
L 365.799669 148.003134 
L 366.43438 147.809251 
L 367.386446 147.439531 
L 369.925289 145.968006 
L 370.242645 145.919323 
L 371.194711 145.244005 
L 371.512066 145.098388 
L 372.464132 144.23553 
L 373.098843 144.020673 
L 373.733554 143.175491 
L 374.368264 142.611939 
L 374.68562 142.465121 
L 375.320331 142.036133 
L 375.637686 141.793212 
L 375.955041 141.706202 
L 376.272397 141.317745 
L 376.589752 141.126567 
L 377.224463 140.516163 
L 377.859174 140.008456 
L 378.81124 139.024554 
L 379.128595 138.839907 
L 379.763306 138.196623 
L 381.032727 137.69684 
L 381.350083 137.535338 
L 381.984793 136.822104 
L 382.302149 135.983398 
L 383.254215 135.022301 
L 385.158347 133.535804 
L 385.475702 133.510427 
L 386.110413 132.86869 
L 386.427769 132.183887 
L 386.745124 132.019949 
L 388.649256 129.329508 
L 388.966612 129.005701 
L 389.601322 127.490333 
L 390.553388 126.354179 
L 390.870744 126.188726 
L 391.505455 124.584512 
L 391.82281 124.111151 
L 392.774876 121.757851 
L 393.092231 121.55174 
L 393.726942 120.41375 
L 394.044298 118.550586 
L 394.679008 118.015165 
L 394.996364 115.584479 
L 395.313719 115.205269 
L 395.631074 115.063278 
L 396.265785 113.262864 
L 396.58314 110.632172 
L 396.900496 109.522783 
L 397.217851 105.206795 
L 397.535207 103.881418 
L 397.852562 101.865822 
L 398.169917 97.438818 
L 398.487273 90.670269 
L 398.487273 90.670269 
" clip-path="url(#p96f20674ad)" style="fill: none; stroke: #1f77b4; stroke-width: 1.5; stroke-linecap: square"/>
   </g>
   <g id="line2d_14">
    <path d="M 73.832727 262.094066 
L 74.150083 262.094066 
L 74.467438 261.69231 
L 74.784793 261.69231 
L 75.102149 261.142702 
L 76.054215 261.039074 
L 76.37157 260.824232 
L 76.688926 259.75532 
L 77.006281 259.75532 
L 77.323636 259.312044 
L 77.640992 259.312044 
L 77.958347 258.423892 
L 78.275702 258.423892 
L 78.593058 258.105112 
L 78.910413 256.860215 
L 79.227769 256.860215 
L 79.545124 256.548548 
L 80.49719 256.481536 
L 80.814545 255.511102 
L 81.131901 255.391353 
L 81.449256 255.391353 
L 81.766612 254.815707 
L 82.718678 254.801299 
L 83.036033 254.262296 
L 83.353388 254.262296 
L 83.670744 253.794615 
L 83.988099 253.605936 
L 84.305455 253.605936 
L 84.62281 253.396802 
L 84.940165 253.396802 
L 85.257521 253.153521 
L 85.574876 252.513733 
L 86.209587 252.442825 
L 86.526942 251.910774 
L 87.479008 251.843158 
L 87.796364 251.645459 
L 88.113719 251.645459 
L 88.431074 251.127279 
L 88.74843 250.829867 
L 89.065785 250.829867 
L 89.38314 250.54939 
L 89.700496 249.905847 
L 90.017851 249.905847 
L 90.335207 249.393754 
L 90.969917 249.313102 
L 91.287273 248.795298 
L 92.556694 248.714165 
L 92.87405 247.885214 
L 93.826116 247.78022 
L 94.143471 247.654553 
L 94.460826 247.654553 
L 94.778182 247.455667 
L 95.095537 247.455667 
L 95.412893 246.609581 
L 95.730248 246.609581 
L 96.047603 246.409034 
L 96.999669 246.370959 
L 97.951736 246.154208 
L 98.269091 245.925488 
L 98.586446 245.154384 
L 98.903802 245.154384 
L 99.221157 244.563432 
L 100.173223 244.46694 
L 100.490579 244.288428 
L 100.807934 244.288428 
L 101.125289 244.10717 
L 101.442645 244.10717 
L 102.077355 243.482952 
L 102.712066 243.472583 
L 103.029421 242.966692 
L 103.346777 242.966692 
L 103.664132 242.83991 
L 103.981488 242.83991 
L 104.616198 242.149631 
L 104.933554 242.149631 
L 105.568264 241.577801 
L 105.88562 241.577801 
L 106.202975 241.400647 
L 106.520331 241.400647 
L 106.837686 240.416154 
L 107.789752 240.351895 
L 108.107107 240.351895 
L 108.424463 240.002771 
L 109.059174 239.957455 
L 109.376529 239.596942 
L 109.693884 239.596942 
L 110.01124 239.130224 
L 110.328595 239.130224 
L 110.64595 238.824049 
L 111.280661 238.732823 
L 111.598017 238.603227 
L 112.232727 238.517698 
L 112.550083 238.365278 
L 112.867438 238.365278 
L 113.184793 237.723819 
L 114.13686 237.673158 
L 114.454215 237.328769 
L 115.406281 236.869295 
L 115.723636 236.869295 
L 116.040992 236.574895 
L 116.358347 236.574895 
L 116.675702 236.42205 
L 116.993058 236.42205 
L 117.310413 235.56162 
L 119.214545 235.458278 
L 119.531901 235.325977 
L 119.849256 235.325977 
L 120.166612 234.712379 
L 120.483967 234.712379 
L 120.801322 234.139678 
L 121.118678 234.139678 
L 121.436033 233.849847 
L 122.388099 233.740344 
L 123.340165 232.594895 
L 124.926942 232.449501 
L 125.244298 232.001473 
L 125.561653 232.001473 
L 125.879008 231.597003 
L 126.196364 231.597003 
L 126.513719 230.958207 
L 127.14843 230.918347 
L 127.465785 230.160045 
L 129.052562 230.147435 
L 129.687273 229.693472 
L 131.27405 229.508483 
L 131.591405 229.187468 
L 132.226116 229.108613 
L 133.812893 228.859529 
L 134.130248 228.579521 
L 134.447603 228.579521 
L 134.764959 228.422121 
L 135.399669 228.400313 
L 135.717025 228.182421 
L 136.669091 228.178825 
L 136.986446 227.85416 
L 137.303802 227.85416 
L 137.621157 227.663299 
L 137.938512 227.208644 
L 138.573223 227.068038 
L 138.890579 227.068038 
L 139.207934 226.874696 
L 139.525289 226.874696 
L 139.842645 226.635034 
L 140.16 226.635034 
L 140.477355 225.99072 
L 141.429421 225.937738 
L 141.746777 225.809837 
L 142.064132 225.469862 
L 142.381488 225.469862 
L 142.698843 224.919394 
L 143.333554 224.918736 
L 143.650909 224.782301 
L 143.968264 224.782301 
L 144.602975 224.302166 
L 145.555041 224.225531 
L 146.189752 224.005279 
L 146.507107 224.005279 
L 146.824463 223.759765 
L 147.141818 223.759765 
L 147.776529 223.001715 
L 149.363306 222.910223 
L 149.680661 222.847521 
L 149.998017 221.049218 
L 150.315372 221.049218 
L 150.950083 220.685101 
L 151.267438 220.685101 
L 151.584793 220.366304 
L 152.219504 220.326488 
L 152.854215 220.009379 
L 153.17157 220.009379 
L 153.488926 219.667464 
L 154.440992 219.464885 
L 154.758347 219.464885 
L 155.393058 219.321269 
L 155.710413 219.321269 
L 156.027769 219.032791 
L 158.249256 218.887394 
L 158.566612 218.273884 
L 159.201322 218.265433 
L 159.518678 217.298881 
L 160.153388 217.271762 
L 160.470744 216.986236 
L 160.788099 216.982161 
L 161.105455 216.758356 
L 162.057521 216.714974 
L 162.374876 216.470235 
L 163.326942 216.422889 
L 163.644298 216.166174 
L 163.961653 216.166174 
L 164.279008 215.964217 
L 164.596364 215.964217 
L 164.913719 215.833989 
L 165.231074 215.071364 
L 165.54843 215.071364 
L 165.865785 214.646512 
L 166.817851 214.553666 
L 167.135207 214.154256 
L 167.769917 214.064571 
L 168.087273 213.714526 
L 168.404628 213.714526 
L 169.039339 213.10943 
L 169.356694 213.10943 
L 169.67405 212.790285 
L 170.943471 212.763808 
L 171.260826 212.307387 
L 171.578182 212.176342 
L 171.895537 212.176342 
L 172.212893 211.582386 
L 172.530248 211.582386 
L 172.847603 211.126593 
L 173.799669 211.040682 
L 174.117025 210.909071 
L 174.43438 210.909071 
L 175.386446 210.552741 
L 176.021157 210.503598 
L 176.338512 210.223263 
L 177.290579 210.171576 
L 177.925289 210.061084 
L 178.56 210.00276 
L 178.877355 209.651031 
L 179.512066 209.59777 
L 179.829421 209.457013 
L 180.146777 209.457013 
L 180.464132 209.199002 
L 180.781488 209.199002 
L 181.098843 208.893033 
L 181.733554 208.870441 
L 182.050909 208.328424 
L 183.002975 208.08679 
L 183.320331 208.08679 
L 183.955041 207.897121 
L 184.272397 207.897121 
L 184.589752 207.756913 
L 184.907107 207.756913 
L 185.224463 207.138927 
L 185.541818 207.138927 
L 186.176529 206.816409 
L 187.44595 206.753918 
L 188.080661 206.56502 
L 188.398017 206.188353 
L 188.715372 206.188353 
L 189.032727 205.952395 
L 189.667438 205.943316 
L 189.984793 205.566264 
L 190.302149 205.566264 
L 190.619504 204.673755 
L 191.254215 204.565936 
L 191.888926 204.521931 
L 192.206281 203.787832 
L 193.475702 203.746148 
L 193.793058 203.583852 
L 195.379835 203.47494 
L 196.649256 203.380509 
L 196.966612 203.219431 
L 197.601322 203.19599 
L 197.918678 202.999853 
L 198.236033 202.641319 
L 198.553388 202.641319 
L 199.188099 201.854072 
L 199.505455 201.854072 
L 199.82281 201.72604 
L 200.140165 201.72604 
L 200.457521 201.490569 
L 201.726942 201.381848 
L 202.044298 201.028916 
L 202.996364 200.989164 
L 203.94843 200.581493 
L 205.217851 200.305955 
L 205.852562 200.280468 
L 206.169917 200.026301 
L 206.487273 200.026301 
L 206.804628 199.816333 
L 207.121983 199.816333 
L 208.07405 199.309696 
L 208.391405 199.309696 
L 209.026116 198.948409 
L 209.343471 198.948409 
L 209.660826 198.584714 
L 210.295537 198.505837 
L 210.612893 198.354126 
L 210.930248 198.354126 
L 211.247603 198.106735 
L 214.421157 197.418283 
L 214.738512 197.028397 
L 216.007934 196.93885 
L 216.325289 196.667925 
L 216.642645 196.667925 
L 216.96 196.307436 
L 217.277355 196.307436 
L 217.594711 196.145074 
L 219.181488 195.977354 
L 219.498843 195.515163 
L 219.816198 194.764096 
L 220.133554 194.539125 
L 220.450909 194.539125 
L 220.768264 194.405625 
L 221.08562 194.405625 
L 221.402975 194.229107 
L 222.672397 194.111407 
L 222.989752 193.986163 
L 223.307107 193.986163 
L 223.624463 193.661257 
L 224.576529 193.607298 
L 227.432727 192.882213 
L 227.750083 192.593743 
L 229.019504 192.514813 
L 229.654215 192.402885 
L 229.97157 192.391984 
L 230.288926 192.189145 
L 230.606281 192.189145 
L 230.923636 191.907486 
L 231.558347 191.842833 
L 231.875702 191.70207 
L 232.510413 191.657337 
L 232.827769 191.442145 
L 233.779835 191.340897 
L 234.414545 191.3304 
L 234.731901 190.910509 
L 235.683967 190.881105 
L 236.001322 190.583032 
L 236.636033 190.563292 
L 236.953388 190.248825 
L 237.270744 190.125665 
L 238.22281 190.074933 
L 238.540165 189.384239 
L 239.174876 189.279841 
L 240.126942 189.137585 
L 240.444298 189.137585 
L 240.761653 188.898207 
L 241.079008 188.898207 
L 241.396364 188.6306 
L 242.665785 188.43598 
L 243.300496 188.110808 
L 245.204628 187.934862 
L 245.521983 187.670562 
L 246.156694 187.567014 
L 246.47405 187.546418 
L 246.791405 186.995299 
L 247.10876 186.722251 
L 247.426116 186.722251 
L 247.743471 186.583187 
L 248.060826 186.583187 
L 248.695537 186.242948 
L 249.012893 186.242948 
L 249.330248 186.107863 
L 249.647603 186.107863 
L 249.964959 185.919579 
L 251.23438 185.864435 
L 252.821157 185.18187 
L 253.138512 184.796787 
L 253.455868 184.796787 
L 254.090579 184.61394 
L 254.407934 184.61394 
L 254.725289 184.425731 
L 255.36 183.582515 
L 256.312066 183.519804 
L 256.629421 183.254842 
L 257.581488 183.221398 
L 258.533554 182.95781 
L 258.850909 182.95781 
L 259.802975 182.538529 
L 260.120331 182.538529 
L 260.437686 182.161095 
L 260.755041 182.161095 
L 262.024463 181.713777 
L 262.976529 181.677148 
L 263.293884 181.308422 
L 263.928595 181.306562 
L 264.24595 181.085158 
L 264.880661 181.079857 
L 265.198017 180.920266 
L 266.467438 180.834623 
L 266.784793 180.688886 
L 267.102149 180.359458 
L 268.054215 180.260596 
L 268.37157 179.897623 
L 268.688926 179.897623 
L 269.323636 179.519908 
L 269.640992 179.350179 
L 270.593058 179.273912 
L 270.910413 179.230336 
L 271.227769 178.929203 
L 272.179835 178.841826 
L 272.49719 178.471261 
L 273.449256 178.455104 
L 273.766612 178.20723 
L 274.718678 177.997565 
L 275.353388 177.927226 
L 275.670744 176.971902 
L 276.62281 176.874921 
L 277.574876 176.650287 
L 277.892231 176.650287 
L 278.844298 176.043215 
L 279.161653 176.043215 
L 279.479008 175.877052 
L 279.796364 175.877052 
L 280.113719 175.212231 
L 280.74843 175.16232 
L 281.065785 175.041036 
L 281.700496 174.945117 
L 282.335207 174.92667 
L 282.969917 174.397921 
L 283.287273 174.397921 
L 283.604628 174.254294 
L 284.239339 174.198973 
L 284.556694 173.135554 
L 285.826116 173.0246 
L 286.143471 172.949021 
L 286.460826 172.693065 
L 286.778182 172.693065 
L 287.095537 172.579373 
L 287.412893 172.146879 
L 288.682314 172.084006 
L 288.999669 171.921296 
L 289.317025 171.921296 
L 289.951736 171.446648 
L 291.221157 171.397674 
L 291.538512 171.186907 
L 291.855868 171.186907 
L 292.173223 171.001194 
L 292.490579 171.001194 
L 292.807934 170.855376 
L 293.125289 170.855376 
L 293.442645 170.687194 
L 293.76 170.687194 
L 294.077355 170.420652 
L 295.029421 170.279327 
L 295.346777 169.764292 
L 295.981488 169.740854 
L 296.298843 169.285678 
L 297.250909 169.020053 
L 297.568264 168.384274 
L 297.88562 168.384274 
L 298.202975 168.159452 
L 299.155041 168.052697 
L 299.472397 167.895315 
L 300.107107 167.872553 
L 300.424463 167.535542 
L 301.376529 167.432655 
L 302.01124 167.326809 
L 302.328595 166.719402 
L 302.963306 166.41855 
L 303.280661 166.41855 
L 303.598017 166.13654 
L 303.915372 165.606306 
L 304.232727 165.606306 
L 304.550083 165.320404 
L 304.867438 165.320404 
L 305.184793 164.87488 
L 305.502149 164.87488 
L 306.13686 164.760473 
L 307.088926 164.562642 
L 308.040992 164.507372 
L 308.358347 164.290014 
L 308.675702 164.290014 
L 308.993058 164.165299 
L 309.627769 164.148394 
L 309.945124 163.999797 
L 310.262479 163.053196 
L 310.579835 162.880746 
L 311.531901 162.801956 
L 311.849256 162.328909 
L 312.166612 162.328909 
L 312.801322 161.224418 
L 314.070744 161.170209 
L 314.388099 160.742282 
L 315.02281 160.733748 
L 315.340165 160.550421 
L 316.609587 160.447464 
L 316.926942 160.166194 
L 318.513719 159.658027 
L 318.831074 159.658027 
L 319.465785 158.565299 
L 319.78314 158.565299 
L 320.417851 157.847883 
L 320.735207 157.700734 
L 321.687273 157.687436 
L 322.004628 157.474299 
L 322.321983 156.774841 
L 322.639339 156.774841 
L 322.956694 156.423886 
L 323.591405 156.364322 
L 324.226116 155.637353 
L 324.543471 155.637353 
L 324.860826 155.474567 
L 325.178182 155.474567 
L 325.495537 155.248577 
L 325.812893 155.248577 
L 326.130248 155.050087 
L 326.447603 154.611241 
L 327.399669 154.531002 
L 328.351736 154.418508 
L 328.669091 153.929947 
L 328.986446 153.708153 
L 329.621157 153.688847 
L 329.938512 153.436138 
L 330.255868 153.436138 
L 330.573223 153.230214 
L 330.890579 153.230214 
L 331.207934 152.959827 
L 332.16 152.725987 
L 332.477355 152.133872 
L 333.112066 152.049989 
L 333.429421 151.617394 
L 333.746777 151.617394 
L 334.064132 150.595635 
L 334.381488 150.351845 
L 336.28562 150.205717 
L 338.189752 149.205935 
L 339.141818 149.19445 
L 339.459174 148.827527 
L 339.776529 148.827527 
L 340.093884 148.677539 
L 340.41124 148.312043 
L 340.728595 148.312043 
L 341.04595 148.12784 
L 341.363306 148.12784 
L 341.680661 146.653076 
L 341.998017 146.406293 
L 342.315372 146.406293 
L 342.632727 145.887958 
L 342.950083 145.887958 
L 343.267438 145.66751 
L 345.17157 145.22918 
L 345.488926 144.752245 
L 345.806281 144.752245 
L 346.123636 144.285687 
L 346.440992 144.12317 
L 346.758347 144.12317 
L 347.393058 143.447366 
L 348.345124 143.373376 
L 348.662479 143.246811 
L 348.979835 143.246811 
L 349.29719 142.330358 
L 349.614545 142.330358 
L 352.470744 141.369191 
L 352.788099 140.870192 
L 353.42281 140.858591 
L 353.740165 140.713661 
L 354.057521 140.713661 
L 354.374876 140.283569 
L 354.692231 140.283569 
L 355.009587 139.393797 
L 355.644298 139.301466 
L 355.961653 139.195727 
L 356.279008 138.450961 
L 356.596364 138.450961 
L 356.913719 137.442109 
L 357.54843 137.369425 
L 357.865785 137.025653 
L 358.18314 137.025653 
L 358.500496 136.560672 
L 358.817851 136.560672 
L 359.769917 135.897545 
L 360.087273 135.759836 
L 360.404628 135.759836 
L 360.721983 135.474317 
L 361.039339 135.474317 
L 361.356694 135.301387 
L 362.626116 135.217183 
L 363.260826 134.117136 
L 363.578182 134.117136 
L 364.212893 133.507623 
L 364.530248 133.507623 
L 365.164959 132.238423 
L 365.482314 131.864933 
L 365.799669 131.864933 
L 366.117025 131.562585 
L 366.43438 131.442247 
L 366.751736 131.442247 
L 367.069091 131.296207 
L 367.386446 131.296207 
L 367.703802 130.797789 
L 368.973223 130.616628 
L 369.290579 130.080501 
L 369.607934 130.080501 
L 369.925289 129.491953 
L 370.242645 128.115113 
L 370.56 127.357206 
L 370.877355 127.357206 
L 371.194711 126.417957 
L 371.829421 126.358464 
L 372.146777 126.0701 
L 372.781488 126.007765 
L 373.098843 125.854287 
L 373.416198 125.187879 
L 373.733554 125.153574 
L 374.050909 124.952852 
L 374.368264 124.952852 
L 374.68562 124.2453 
L 375.002975 124.2453 
L 375.637686 123.274486 
L 375.955041 123.274486 
L 376.272397 122.562163 
L 376.589752 122.562163 
L 376.907107 121.922909 
L 377.224463 119.898831 
L 377.859174 119.790422 
L 378.176529 119.645608 
L 378.493884 119.645608 
L 378.81124 119.378641 
L 379.128595 119.378641 
L 379.44595 118.845381 
L 379.763306 117.044825 
L 380.080661 116.45619 
L 380.398017 116.45619 
L 380.715372 116.012913 
L 381.032727 114.898876 
L 381.667438 114.798724 
L 382.302149 114.70232 
L 382.93686 114.657823 
L 383.254215 113.963442 
L 383.888926 113.365885 
L 384.206281 113.365885 
L 384.523636 112.13024 
L 384.840992 112.13024 
L 385.158347 110.646333 
L 385.475702 110.646333 
L 385.793058 109.912191 
L 386.110413 108.370974 
L 386.427769 107.604475 
L 386.745124 107.604475 
L 387.062479 107.420506 
L 387.379835 105.667981 
L 387.69719 104.837759 
L 388.014545 104.837759 
L 388.331901 104.674035 
L 388.649256 103.812816 
L 388.966612 103.404177 
L 389.918678 103.343236 
L 390.553388 98.699687 
L 390.870744 98.699687 
L 391.188099 98.502485 
L 391.82281 96.084815 
L 392.140165 96.084815 
L 392.457521 94.448749 
L 392.774876 94.092615 
L 393.092231 94.092615 
L 393.409587 92.787546 
L 393.726942 92.787546 
L 394.044298 91.53761 
L 394.361653 88.396251 
L 394.679008 87.495649 
L 394.996364 87.495649 
L 395.313719 86.953187 
L 395.631074 86.728184 
L 395.94843 86.728184 
L 396.265785 79.764685 
L 396.58314 76.720148 
L 396.900496 75.563869 
L 397.217851 75.563869 
L 397.535207 63.641654 
L 397.852562 63.377494 
L 398.169917 63.377494 
L 398.487273 53.568 
L 398.487273 53.568 
" clip-path="url(#p96f20674ad)" style="fill: none; stroke: #ff7f0e; stroke-width: 1.5; stroke-linecap: square"/>
   </g>
   <g id="patch_3">
    <path d="M 57.6 307.584 
L 57.6 41.472 
" style="fill: none; stroke: #000000; stroke-width: 0.8; stroke-linejoin: miter; stroke-linecap: square"/>
   </g>
   <g id="patch_4">
    <path d="M 414.72 307.584 
L 414.72 41.472 
" style="fill: none; stroke: #000000; stroke-width: 0.8; stroke-linejoin: miter; stroke-linecap: square"/>
   </g>
   <g id="patch_5">
    <path d="M 57.6 307.584 
L 414.72 307.584 
" style="fill: none; stroke: #000000; stroke-width: 0.8; stroke-linejoin: miter; stroke-linecap: square"/>
   </g>
   <g id="patch_6">
    <path d="M 57.6 41.472 
L 414.72 41.472 
" style="fill: none; stroke: #000000; stroke-width: 0.8; stroke-linejoin: miter; stroke-linecap: square"/>
   </g>
   <g id="legend_1">
    <g id="patch_7">
     <path d="M 64.6 78.82825 
L 129.342187 78.82825 
Q 131.342187 78.82825 131.342187 76.82825 
L 131.342187 48.472 
Q 131.342187 46.472 129.342187 46.472 
L 64.6 46.472 
Q 62.6 46.472 62.6 48.472 
L 62.6 76.82825 
Q 62.6 78.82825 64.6 78.82825 
z
" style="fill: #ffffff; opacity: 0.8; stroke: #cccccc; stroke-linejoin: miter"/>
    </g>
    <g id="line2d_15">
     <path d="M 66.6 54.570437 
L 76.6 54.570437 
L 86.6 54.570437 
" style="fill: none; stroke: #1f77b4; stroke-width: 1.5; stroke-linecap: square"/>
    </g>
    <g id="text_15">
     <!-- qc -->
     <g transform="translate(94.6 58.070437) scale(0.1 -0.1)">
      <defs>
       <path id="DejaVuSans-71" d="M 947 1747 
Q 947 1113 1208 752 
Q 1469 391 1925 391 
Q 2381 391 2643 752 
Q 2906 1113 2906 1747 
Q 2906 2381 2643 2742 
Q 2381 3103 1925 3103 
Q 1469 3103 1208 2742 
Q 947 2381 947 1747 
z
M 2906 525 
Q 2725 213 2448 61 
Q 2172 -91 1784 -91 
Q 1150 -91 751 415 
Q 353 922 353 1747 
Q 353 2572 751 3078 
Q 1150 3584 1784 3584 
Q 2172 3584 2448 3432 
Q 2725 3281 2906 2969 
L 2906 3500 
L 3481 3500 
L 3481 -1331 
L 2906 -1331 
L 2906 525 
z
" transform="scale(0.015625)"/>
       <path id="DejaVuSans-63" d="M 3122 3366 
L 3122 2828 
Q 2878 2963 2633 3030 
Q 2388 3097 2138 3097 
Q 1578 3097 1268 2742 
Q 959 2388 959 1747 
Q 959 1106 1268 751 
Q 1578 397 2138 397 
Q 2388 397 2633 464 
Q 2878 531 3122 666 
L 3122 134 
Q 2881 22 2623 -34 
Q 2366 -91 2075 -91 
Q 1284 -91 818 406 
Q 353 903 353 1747 
Q 353 2603 823 3093 
Q 1294 3584 2113 3584 
Q 2378 3584 2631 3529 
Q 2884 3475 3122 3366 
z
" transform="scale(0.015625)"/>
      </defs>
      <use xlink:href="#DejaVuSans-71"/>
      <use xlink:href="#DejaVuSans-63" x="63.476562"/>
     </g>
    </g>
    <g id="line2d_16">
     <path d="M 66.6 69.248562 
L 76.6 69.248562 
L 86.6 69.248562 
" style="fill: none; stroke: #ff7f0e; stroke-width: 1.5; stroke-linecap: square"/>
    </g>
    <g id="text_16">
     <!-- Trotter -->
     <g transform="translate(94.6 72.748562) scale(0.1 -0.1)">
      <defs>
       <path id="DejaVuSans-54" d="M -19 4666 
L 3928 4666 
L 3928 4134 
L 2272 4134 
L 2272 0 
L 1638 0 
L 1638 4134 
L -19 4134 
L -19 4666 
z
" transform="scale(0.015625)"/>
       <path id="DejaVuSans-72" d="M 2631 2963 
Q 2534 3019 2420 3045 
Q 2306 3072 2169 3072 
Q 1681 3072 1420 2755 
Q 1159 2438 1159 1844 
L 1159 0 
L 581 0 
L 581 3500 
L 1159 3500 
L 1159 2956 
Q 1341 3275 1631 3429 
Q 1922 3584 2338 3584 
Q 2397 3584 2469 3576 
Q 2541 3569 2628 3553 
L 2631 2963 
z
" transform="scale(0.015625)"/>
       <path id="DejaVuSans-6f" d="M 1959 3097 
Q 1497 3097 1228 2736 
Q 959 2375 959 1747 
Q 959 1119 1226 758 
Q 1494 397 1959 397 
Q 2419 397 2687 759 
Q 2956 1122 2956 1747 
Q 2956 2369 2687 2733 
Q 2419 3097 1959 3097 
z
M 1959 3584 
Q 2709 3584 3137 3096 
Q 3566 2609 3566 1747 
Q 3566 888 3137 398 
Q 2709 -91 1959 -91 
Q 1206 -91 779 398 
Q 353 888 353 1747 
Q 353 2609 779 3096 
Q 1206 3584 1959 3584 
z
" transform="scale(0.015625)"/>
       <path id="DejaVuSans-65" d="M 3597 1894 
L 3597 1613 
L 953 1613 
Q 991 1019 1311 708 
Q 1631 397 2203 397 
Q 2534 397 2845 478 
Q 3156 559 3463 722 
L 3463 178 
Q 3153 47 2828 -22 
Q 2503 -91 2169 -91 
Q 1331 -91 842 396 
Q 353 884 353 1716 
Q 353 2575 817 3079 
Q 1281 3584 2069 3584 
Q 2775 3584 3186 3129 
Q 3597 2675 3597 1894 
z
M 3022 2063 
Q 3016 2534 2758 2815 
Q 2500 3097 2075 3097 
Q 1594 3097 1305 2825 
Q 1016 2553 972 2059 
L 3022 2063 
z
" transform="scale(0.015625)"/>
      </defs>
      <use xlink:href="#DejaVuSans-54"/>
      <use xlink:href="#DejaVuSans-72" x="46.333984"/>
      <use xlink:href="#DejaVuSans-6f" x="85.197266"/>
      <use xlink:href="#DejaVuSans-74" x="146.378906"/>
      <use xlink:href="#DejaVuSans-74" x="185.587891"/>
      <use xlink:href="#DejaVuSans-65" x="224.796875"/>
      <use xlink:href="#DejaVuSans-72" x="286.320312"/>
     </g>
    </g>
   </g>
  </g>
 </g>
 <defs>
  <clipPath id="p96f20674ad">
   <rect x="57.6" y="41.472" width="357.12" height="266.112"/>
  </clipPath>
 </defs>
</svg>
