<?xml version="1.0" encoding="utf-8" standalone="no"?>
<!DOCTYPE svg PUBLIC "-//W3C//DTD SVG 1.1//EN"
  "http://www.w3.org/Graphics/SVG/1.1/DTD/svg11.dtd">
<svg xmlns:xlink="http://www.w3.org/1999/xlink" width="460.8pt" height="345.6pt" viewBox="0 0 460.8 345.6" xmlns="http://www.w3.org/2000/svg" version="1.1">
 <metadata>
  <rdf:RDF xmlns:dc="http://purl.org/dc/elements/1.1/" xmlns:cc="http://creativecommons.org/ns#" xmlns:rdf="http://www.w3.org/1999/02/22-rdf-syntax-ns#">
   <cc:Work>
    <dc:type rdf:resource="http://purl.org/dc/dcmitype/StillImage"/>
    <dc:date>2024-08-24T17:09:37.059400</dc:date>
    <dc:format>image/svg+xml</dc:format>
    <dc:creator>
     <cc:Agent>
      <dc:title>Matplotlib v3.7.1, https://matplotlib.org/</dc:title>
     </cc:Agent>
    </dc:creator>
   </cc:Work>
  </rdf:RDF>
 </metadata>
 <defs>
  <style type="text/css">*{stroke-linejoin: round; stroke-linecap: butt}</style>
 </defs>
 <g id="figure_1">
  <g id="patch_1">
   <path d="M 0 345.6 
L 460.8 345.6 
L 460.8 0 
L 0 0 
z
" style="fill: #ffffff"/>
  </g>
  <g id="axes_1">
   <g id="patch_2">
    <path d="M 57.6 307.584 
L 414.72 307.584 
L 414.72 41.472 
L 57.6 41.472 
z
" style="fill: #ffffff"/>
   </g>
   <g id="matplotlib.axis_1">
    <g id="xtick_1">
     <g id="line2d_1">
      <defs>
       <path id="m9316a1618d" d="M 0 0 
L 0 3.5 
" style="stroke: #000000; stroke-width: 0.8"/>
      </defs>
      <g>
       <use xlink:href="#m9316a1618d" x="73.832727" y="307.584" style="stroke: #000000; stroke-width: 0.8"/>
      </g>
     </g>
     <g id="text_1">
      <!-- 0 -->
      <g transform="translate(70.651477 322.182437) scale(0.1 -0.1)">
       <defs>
        <path id="DejaVuSans-30" d="M 2034 4250 
Q 1547 4250 1301 3770 
Q 1056 3291 1056 2328 
Q 1056 1369 1301 889 
Q 1547 409 2034 409 
Q 2525 409 2770 889 
Q 3016 1369 3016 2328 
Q 3016 3291 2770 3770 
Q 2525 4250 2034 4250 
z
M 2034 4750 
Q 2819 4750 3233 4129 
Q 3647 3509 3647 2328 
Q 3647 1150 3233 529 
Q 2819 -91 2034 -91 
Q 1250 -91 836 529 
Q 422 1150 422 2328 
Q 422 3509 836 4129 
Q 1250 4750 2034 4750 
z
" transform="scale(0.015625)"/>
       </defs>
       <use xlink:href="#DejaVuSans-30"/>
      </g>
     </g>
    </g>
    <g id="xtick_2">
     <g id="line2d_2">
      <g>
       <use xlink:href="#m9316a1618d" x="137.303802" y="307.584" style="stroke: #000000; stroke-width: 0.8"/>
      </g>
     </g>
     <g id="text_2">
      <!-- 200 -->
      <g transform="translate(127.760052 322.182437) scale(0.1 -0.1)">
       <defs>
        <path id="DejaVuSans-32" d="M 1228 531 
L 3431 531 
L 3431 0 
L 469 0 
L 469 531 
Q 828 903 1448 1529 
Q 2069 2156 2228 2338 
Q 2531 2678 2651 2914 
Q 2772 3150 2772 3378 
Q 2772 3750 2511 3984 
Q 2250 4219 1831 4219 
Q 1534 4219 1204 4116 
Q 875 4013 500 3803 
L 500 4441 
Q 881 4594 1212 4672 
Q 1544 4750 1819 4750 
Q 2544 4750 2975 4387 
Q 3406 4025 3406 3419 
Q 3406 3131 3298 2873 
Q 3191 2616 2906 2266 
Q 2828 2175 2409 1742 
Q 1991 1309 1228 531 
z
" transform="scale(0.015625)"/>
       </defs>
       <use xlink:href="#DejaVuSans-32"/>
       <use xlink:href="#DejaVuSans-30" x="63.623047"/>
       <use xlink:href="#DejaVuSans-30" x="127.246094"/>
      </g>
     </g>
    </g>
    <g id="xtick_3">
     <g id="line2d_3">
      <g>
       <use xlink:href="#m9316a1618d" x="200.774876" y="307.584" style="stroke: #000000; stroke-width: 0.8"/>
      </g>
     </g>
     <g id="text_3">
      <!-- 400 -->
      <g transform="translate(191.231126 322.182437) scale(0.1 -0.1)">
       <defs>
        <path id="DejaVuSans-34" d="M 2419 4116 
L 825 1625 
L 2419 1625 
L 2419 4116 
z
M 2253 4666 
L 3047 4666 
L 3047 1625 
L 3713 1625 
L 3713 1100 
L 3047 1100 
L 3047 0 
L 2419 0 
L 2419 1100 
L 313 1100 
L 313 1709 
L 2253 4666 
z
" transform="scale(0.015625)"/>
       </defs>
       <use xlink:href="#DejaVuSans-34"/>
       <use xlink:href="#DejaVuSans-30" x="63.623047"/>
       <use xlink:href="#DejaVuSans-30" x="127.246094"/>
      </g>
     </g>
    </g>
    <g id="xtick_4">
     <g id="line2d_4">
      <g>
       <use xlink:href="#m9316a1618d" x="264.24595" y="307.584" style="stroke: #000000; stroke-width: 0.8"/>
      </g>
     </g>
     <g id="text_4">
      <!-- 600 -->
      <g transform="translate(254.7022 322.182437) scale(0.1 -0.1)">
       <defs>
        <path id="DejaVuSans-36" d="M 2113 2584 
Q 1688 2584 1439 2293 
Q 1191 2003 1191 1497 
Q 1191 994 1439 701 
Q 1688 409 2113 409 
Q 2538 409 2786 701 
Q 3034 994 3034 1497 
Q 3034 2003 2786 2293 
Q 2538 2584 2113 2584 
z
M 3366 4563 
L 3366 3988 
Q 3128 4100 2886 4159 
Q 2644 4219 2406 4219 
Q 1781 4219 1451 3797 
Q 1122 3375 1075 2522 
Q 1259 2794 1537 2939 
Q 1816 3084 2150 3084 
Q 2853 3084 3261 2657 
Q 3669 2231 3669 1497 
Q 3669 778 3244 343 
Q 2819 -91 2113 -91 
Q 1303 -91 875 529 
Q 447 1150 447 2328 
Q 447 3434 972 4092 
Q 1497 4750 2381 4750 
Q 2619 4750 2861 4703 
Q 3103 4656 3366 4563 
z
" transform="scale(0.015625)"/>
       </defs>
       <use xlink:href="#DejaVuSans-36"/>
       <use xlink:href="#DejaVuSans-30" x="63.623047"/>
       <use xlink:href="#DejaVuSans-30" x="127.246094"/>
      </g>
     </g>
    </g>
    <g id="xtick_5">
     <g id="line2d_5">
      <g>
       <use xlink:href="#m9316a1618d" x="327.717025" y="307.584" style="stroke: #000000; stroke-width: 0.8"/>
      </g>
     </g>
     <g id="text_5">
      <!-- 800 -->
      <g transform="translate(318.173275 322.182437) scale(0.1 -0.1)">
       <defs>
        <path id="DejaVuSans-38" d="M 2034 2216 
Q 1584 2216 1326 1975 
Q 1069 1734 1069 1313 
Q 1069 891 1326 650 
Q 1584 409 2034 409 
Q 2484 409 2743 651 
Q 3003 894 3003 1313 
Q 3003 1734 2745 1975 
Q 2488 2216 2034 2216 
z
M 1403 2484 
Q 997 2584 770 2862 
Q 544 3141 544 3541 
Q 544 4100 942 4425 
Q 1341 4750 2034 4750 
Q 2731 4750 3128 4425 
Q 3525 4100 3525 3541 
Q 3525 3141 3298 2862 
Q 3072 2584 2669 2484 
Q 3125 2378 3379 2068 
Q 3634 1759 3634 1313 
Q 3634 634 3220 271 
Q 2806 -91 2034 -91 
Q 1263 -91 848 271 
Q 434 634 434 1313 
Q 434 1759 690 2068 
Q 947 2378 1403 2484 
z
M 1172 3481 
Q 1172 3119 1398 2916 
Q 1625 2713 2034 2713 
Q 2441 2713 2670 2916 
Q 2900 3119 2900 3481 
Q 2900 3844 2670 4047 
Q 2441 4250 2034 4250 
Q 1625 4250 1398 4047 
Q 1172 3844 1172 3481 
z
" transform="scale(0.015625)"/>
       </defs>
       <use xlink:href="#DejaVuSans-38"/>
       <use xlink:href="#DejaVuSans-30" x="63.623047"/>
       <use xlink:href="#DejaVuSans-30" x="127.246094"/>
      </g>
     </g>
    </g>
    <g id="xtick_6">
     <g id="line2d_6">
      <g>
       <use xlink:href="#m9316a1618d" x="391.188099" y="307.584" style="stroke: #000000; stroke-width: 0.8"/>
      </g>
     </g>
     <g id="text_6">
      <!-- 1000 -->
      <g transform="translate(378.463099 322.182437) scale(0.1 -0.1)">
       <defs>
        <path id="DejaVuSans-31" d="M 794 531 
L 1825 531 
L 1825 4091 
L 703 3866 
L 703 4441 
L 1819 4666 
L 2450 4666 
L 2450 531 
L 3481 531 
L 3481 0 
L 794 0 
L 794 531 
z
" transform="scale(0.015625)"/>
       </defs>
       <use xlink:href="#DejaVuSans-31"/>
       <use xlink:href="#DejaVuSans-30" x="63.623047"/>
       <use xlink:href="#DejaVuSans-30" x="127.246094"/>
       <use xlink:href="#DejaVuSans-30" x="190.869141"/>
      </g>
     </g>
    </g>
    <g id="text_7">
     <!-- n -->
     <g transform="translate(232.99125 335.860562) scale(0.1 -0.1)">
      <defs>
       <path id="DejaVuSans-6e" d="M 3513 2113 
L 3513 0 
L 2938 0 
L 2938 2094 
Q 2938 2591 2744 2837 
Q 2550 3084 2163 3084 
Q 1697 3084 1428 2787 
Q 1159 2491 1159 1978 
L 1159 0 
L 581 0 
L 581 3500 
L 1159 3500 
L 1159 2956 
Q 1366 3272 1645 3428 
Q 1925 3584 2291 3584 
Q 2894 3584 3203 3211 
Q 3513 2838 3513 2113 
z
" transform="scale(0.015625)"/>
      </defs>
      <use xlink:href="#DejaVuSans-6e"/>
     </g>
    </g>
   </g>
   <g id="matplotlib.axis_2">
    <g id="ytick_1">
     <g id="line2d_7">
      <defs>
       <path id="m481624cea5" d="M 0 0 
L -3.5 0 
" style="stroke: #000000; stroke-width: 0.8"/>
      </defs>
      <g>
       <use xlink:href="#m481624cea5" x="57.6" y="298.724862" style="stroke: #000000; stroke-width: 0.8"/>
      </g>
     </g>
     <g id="text_8">
      <!-- −20 -->
      <g transform="translate(29.495313 302.524081) scale(0.1 -0.1)">
       <defs>
        <path id="DejaVuSans-2212" d="M 678 2272 
L 4684 2272 
L 4684 1741 
L 678 1741 
L 678 2272 
z
" transform="scale(0.015625)"/>
       </defs>
       <use xlink:href="#DejaVuSans-2212"/>
       <use xlink:href="#DejaVuSans-32" x="83.789062"/>
       <use xlink:href="#DejaVuSans-30" x="147.412109"/>
      </g>
     </g>
    </g>
    <g id="ytick_2">
     <g id="line2d_8">
      <g>
       <use xlink:href="#m481624cea5" x="57.6" y="267.751378" style="stroke: #000000; stroke-width: 0.8"/>
      </g>
     </g>
     <g id="text_9">
      <!-- −15 -->
      <g transform="translate(29.495313 271.550597) scale(0.1 -0.1)">
       <defs>
        <path id="DejaVuSans-35" d="M 691 4666 
L 3169 4666 
L 3169 4134 
L 1269 4134 
L 1269 2991 
Q 1406 3038 1543 3061 
Q 1681 3084 1819 3084 
Q 2600 3084 3056 2656 
Q 3513 2228 3513 1497 
Q 3513 744 3044 326 
Q 2575 -91 1722 -91 
Q 1428 -91 1123 -41 
Q 819 9 494 109 
L 494 744 
Q 775 591 1075 516 
Q 1375 441 1709 441 
Q 2250 441 2565 725 
Q 2881 1009 2881 1497 
Q 2881 1984 2565 2268 
Q 2250 2553 1709 2553 
Q 1456 2553 1204 2497 
Q 953 2441 691 2322 
L 691 4666 
z
" transform="scale(0.015625)"/>
       </defs>
       <use xlink:href="#DejaVuSans-2212"/>
       <use xlink:href="#DejaVuSans-31" x="83.789062"/>
       <use xlink:href="#DejaVuSans-35" x="147.412109"/>
      </g>
     </g>
    </g>
    <g id="ytick_3">
     <g id="line2d_9">
      <g>
       <use xlink:href="#m481624cea5" x="57.6" y="236.777894" style="stroke: #000000; stroke-width: 0.8"/>
      </g>
     </g>
     <g id="text_10">
      <!-- −10 -->
      <g transform="translate(29.495313 240.577112) scale(0.1 -0.1)">
       <use xlink:href="#DejaVuSans-2212"/>
       <use xlink:href="#DejaVuSans-31" x="83.789062"/>
       <use xlink:href="#DejaVuSans-30" x="147.412109"/>
      </g>
     </g>
    </g>
    <g id="ytick_4">
     <g id="line2d_10">
      <g>
       <use xlink:href="#m481624cea5" x="57.6" y="205.80441" style="stroke: #000000; stroke-width: 0.8"/>
      </g>
     </g>
     <g id="text_11">
      <!-- −5 -->
      <g transform="translate(35.857813 209.603628) scale(0.1 -0.1)">
       <use xlink:href="#DejaVuSans-2212"/>
       <use xlink:href="#DejaVuSans-35" x="83.789062"/>
      </g>
     </g>
    </g>
    <g id="ytick_5">
     <g id="line2d_11">
      <g>
       <use xlink:href="#m481624cea5" x="57.6" y="174.830925" style="stroke: #000000; stroke-width: 0.8"/>
      </g>
     </g>
     <g id="text_12">
      <!-- 0 -->
      <g transform="translate(44.2375 178.630144) scale(0.1 -0.1)">
       <use xlink:href="#DejaVuSans-30"/>
      </g>
     </g>
    </g>
    <g id="ytick_6">
     <g id="line2d_12">
      <g>
       <use xlink:href="#m481624cea5" x="57.6" y="143.857441" style="stroke: #000000; stroke-width: 0.8"/>
      </g>
     </g>
     <g id="text_13">
      <!-- 5 -->
      <g transform="translate(44.2375 147.65666) scale(0.1 -0.1)">
       <use xlink:href="#DejaVuSans-35"/>
      </g>
     </g>
    </g>
    <g id="ytick_7">
     <g id="line2d_13">
      <g>
       <use xlink:href="#m481624cea5" x="57.6" y="112.883957" style="stroke: #000000; stroke-width: 0.8"/>
      </g>
     </g>
     <g id="text_14">
      <!-- 10 -->
      <g transform="translate(37.875 116.683176) scale(0.1 -0.1)">
       <use xlink:href="#DejaVuSans-31"/>
       <use xlink:href="#DejaVuSans-30" x="63.623047"/>
      </g>
     </g>
    </g>
    <g id="ytick_8">
     <g id="line2d_14">
      <g>
       <use xlink:href="#m481624cea5" x="57.6" y="81.910473" style="stroke: #000000; stroke-width: 0.8"/>
      </g>
     </g>
     <g id="text_15">
      <!-- 15 -->
      <g transform="translate(37.875 85.709692) scale(0.1 -0.1)">
       <use xlink:href="#DejaVuSans-31"/>
       <use xlink:href="#DejaVuSans-35" x="63.623047"/>
      </g>
     </g>
    </g>
    <g id="ytick_9">
     <g id="line2d_15">
      <g>
       <use xlink:href="#m481624cea5" x="57.6" y="50.936989" style="stroke: #000000; stroke-width: 0.8"/>
      </g>
     </g>
     <g id="text_16">
      <!-- 20 -->
      <g transform="translate(37.875 54.736208) scale(0.1 -0.1)">
       <use xlink:href="#DejaVuSans-32"/>
       <use xlink:href="#DejaVuSans-30" x="63.623047"/>
      </g>
     </g>
    </g>
    <g id="text_17">
     <!-- E*t -->
     <g transform="translate(23.415625 182.147531) rotate(-90) scale(0.1 -0.1)">
      <defs>
       <path id="DejaVuSans-45" d="M 628 4666 
L 3578 4666 
L 3578 4134 
L 1259 4134 
L 1259 2753 
L 3481 2753 
L 3481 2222 
L 1259 2222 
L 1259 531 
L 3634 531 
L 3634 0 
L 628 0 
L 628 4666 
z
" transform="scale(0.015625)"/>
       <path id="DejaVuSans-2a" d="M 3009 3897 
L 1888 3291 
L 3009 2681 
L 2828 2375 
L 1778 3009 
L 1778 1831 
L 1422 1831 
L 1422 3009 
L 372 2375 
L 191 2681 
L 1313 3291 
L 191 3897 
L 372 4206 
L 1422 3572 
L 1422 4750 
L 1778 4750 
L 1778 3572 
L 2828 4206 
L 3009 3897 
z
" transform="scale(0.015625)"/>
       <path id="DejaVuSans-74" d="M 1172 4494 
L 1172 3500 
L 2356 3500 
L 2356 3053 
L 1172 3053 
L 1172 1153 
Q 1172 725 1289 603 
Q 1406 481 1766 481 
L 2356 481 
L 2356 0 
L 1766 0 
Q 1100 0 847 248 
Q 594 497 594 1153 
L 594 3053 
L 172 3053 
L 172 3500 
L 594 3500 
L 594 4494 
L 1172 4494 
z
" transform="scale(0.015625)"/>
      </defs>
      <use xlink:href="#DejaVuSans-45"/>
      <use xlink:href="#DejaVuSans-2a" x="63.183594"/>
      <use xlink:href="#DejaVuSans-74" x="113.183594"/>
     </g>
    </g>
   </g>
   <g id="line2d_16">
    <path d="M 73.832727 295.488 
L 74.150083 294.646499 
L 74.467438 294.378511 
L 74.784793 294.313743 
L 75.419504 292.840948 
L 75.73686 292.650378 
L 76.054215 292.625287 
L 76.37157 292.337531 
L 76.688926 291.841691 
L 77.006281 291.76087 
L 77.323636 291.052765 
L 77.958347 290.987345 
L 78.275702 290.699592 
L 78.593058 290.582143 
L 78.910413 289.70759 
L 79.227769 289.579616 
L 82.083967 286.774416 
L 82.401322 286.642869 
L 82.718678 286.639577 
L 83.036033 285.345842 
L 83.670744 285.136849 
L 84.305455 284.348617 
L 85.257521 284.114909 
L 85.574876 283.780163 
L 85.892231 283.716058 
L 86.844298 282.769486 
L 87.796364 282.540821 
L 88.113719 282.434741 
L 88.74843 281.840682 
L 89.38314 281.541964 
L 89.700496 281.249945 
L 90.017851 280.643685 
L 90.335207 280.461555 
L 90.652562 279.951594 
L 90.969917 279.904022 
L 91.604628 279.005827 
L 92.239339 278.85543 
L 92.556694 277.850242 
L 92.87405 277.329768 
L 93.50876 277.015749 
L 93.826116 276.529441 
L 94.143471 276.406553 
L 94.460826 275.700564 
L 94.778182 275.37781 
L 95.412893 274.171183 
L 95.730248 274.002197 
L 96.047603 272.878396 
L 96.364959 272.372944 
L 96.999669 272.039192 
L 97.317025 271.730546 
L 97.63438 271.704447 
L 98.269091 270.963757 
L 98.586446 270.628742 
L 99.221157 270.588054 
L 99.538512 270.202139 
L 99.855868 269.618586 
L 100.173223 269.283571 
L 100.490579 269.251904 
L 101.125289 268.572957 
L 101.442645 267.788169 
L 101.76 267.778649 
L 103.029421 267.240876 
L 103.664132 267.226027 
L 103.981488 266.906129 
L 104.298843 266.154976 
L 104.616198 266.144535 
L 105.250909 265.64145 
L 106.202975 265.588626 
L 106.520331 265.213577 
L 107.155041 264.086801 
L 107.789752 263.96384 
L 108.107107 263.584289 
L 108.424463 263.43502 
L 109.059174 262.448809 
L 109.376529 262.360188 
L 109.693884 261.796909 
L 110.328595 261.309224 
L 110.64595 261.182326 
L 110.963306 259.882948 
L 111.280661 259.836892 
L 111.598017 259.671163 
L 111.915372 259.025301 
L 113.502149 258.422047 
L 114.13686 257.217278 
L 115.088926 256.792775 
L 115.723636 255.712867 
L 116.358347 255.530261 
L 116.675702 254.739389 
L 116.993058 254.683989 
L 117.310413 254.168041 
L 118.579835 253.900994 
L 119.214545 253.569618 
L 119.849256 252.768724 
L 120.166612 252.485838 
L 120.801322 252.31887 
L 121.436033 251.514806 
L 121.753388 251.485135 
L 122.070744 250.972984 
L 122.388099 250.948384 
L 122.705455 250.608814 
L 123.02281 250.455312 
L 123.657521 249.982823 
L 124.926942 249.464956 
L 125.244298 249.099749 
L 125.879008 248.826028 
L 126.196364 248.353525 
L 126.831074 248.22702 
L 127.465785 248.127649 
L 127.78314 247.959926 
L 128.100496 247.591912 
L 128.417851 246.940317 
L 128.735207 246.887609 
L 129.052562 246.601029 
L 129.369917 246.489974 
L 130.321983 245.428014 
L 130.956694 244.987252 
L 131.27405 244.747576 
L 131.591405 244.337571 
L 131.90876 244.303282 
L 132.226116 244.105539 
L 132.543471 244.082592 
L 133.178182 243.641324 
L 133.495537 242.8582 
L 133.812893 242.760224 
L 134.130248 242.459028 
L 134.447603 242.37122 
L 135.082314 242.052477 
L 136.03438 241.759162 
L 136.351736 241.667801 
L 136.669091 241.190665 
L 137.303802 240.830931 
L 137.621157 240.426228 
L 138.255868 240.326236 
L 138.890579 240.243582 
L 139.207934 240.093505 
L 139.525289 240.087935 
L 139.842645 239.706206 
L 140.794711 239.376071 
L 141.112066 239.344589 
L 141.429421 238.740209 
L 142.064132 238.657789 
L 142.698843 237.843327 
L 143.016198 237.806223 
L 143.650909 237.274971 
L 143.968264 237.077558 
L 144.28562 237.028456 
L 144.602975 236.67779 
L 144.920331 236.610578 
L 145.555041 236.176927 
L 145.872397 236.156604 
L 146.189752 235.459407 
L 148.41124 234.626506 
L 149.363306 233.616157 
L 149.680661 233.615002 
L 150.950083 232.689451 
L 151.267438 232.487564 
L 151.584793 232.149976 
L 153.806281 231.586689 
L 154.123636 230.949985 
L 156.027769 230.022804 
L 156.345124 229.683487 
L 156.662479 229.585253 
L 156.979835 229.335347 
L 157.29719 228.913212 
L 158.566612 228.541443 
L 158.883967 228.228006 
L 159.518678 227.984728 
L 159.836033 227.974329 
L 160.153388 227.654618 
L 160.470744 227.638411 
L 160.788099 227.22881 
L 161.740165 226.840765 
L 162.057521 226.438471 
L 163.326942 225.877082 
L 163.644298 225.488499 
L 163.961653 225.385923 
L 164.279008 224.884882 
L 165.54843 224.613888 
L 165.865785 224.360118 
L 167.452562 223.989835 
L 167.769917 223.9877 
L 168.087273 223.496175 
L 168.404628 223.260035 
L 168.721983 223.196852 
L 169.356694 222.603752 
L 169.67405 222.001266 
L 170.943471 221.579002 
L 171.895537 220.392922 
L 172.530248 220.363078 
L 173.164959 220.067476 
L 173.482314 219.824411 
L 174.43438 219.448694 
L 174.751736 219.279233 
L 175.069091 218.766852 
L 175.703802 218.754735 
L 176.021157 218.605336 
L 176.338512 218.603255 
L 177.607934 218.120155 
L 178.242645 217.412071 
L 178.877355 217.079175 
L 179.512066 216.148947 
L 179.829421 215.767764 
L 180.464132 215.572732 
L 180.781488 215.564513 
L 181.098843 215.276898 
L 181.733554 215.229842 
L 182.050909 214.954199 
L 182.68562 214.841108 
L 183.320331 214.505772 
L 183.637686 214.076962 
L 183.955041 214.003431 
L 184.589752 213.6687 
L 184.907107 212.50531 
L 185.224463 212.470678 
L 186.176529 211.348415 
L 186.493884 210.774108 
L 187.128595 210.369744 
L 187.763306 210.029736 
L 188.080661 209.644886 
L 188.715372 209.364208 
L 189.032727 209.278121 
L 189.984793 207.683621 
L 190.619504 207.556007 
L 190.93686 207.297169 
L 191.254215 206.67473 
L 192.840992 206.045433 
L 193.158347 205.169529 
L 194.110413 204.2488 
L 195.062479 203.824352 
L 196.014545 203.051426 
L 196.331901 202.220709 
L 196.649256 202.203434 
L 196.966612 201.875888 
L 198.236033 201.505838 
L 198.553388 200.582521 
L 199.188099 200.034575 
L 199.82281 199.795021 
L 200.140165 199.427711 
L 200.457521 199.334789 
L 200.774876 198.761135 
L 201.092231 198.577063 
L 201.726942 197.789523 
L 202.044298 197.776417 
L 202.679008 197.284046 
L 203.631074 197.203866 
L 204.265785 196.969265 
L 204.900496 196.925055 
L 205.217851 196.634236 
L 205.535207 195.691428 
L 205.852562 195.642813 
L 206.487273 194.92095 
L 206.804628 194.881224 
L 207.121983 194.336125 
L 208.07405 193.553765 
L 208.391405 193.228881 
L 209.343471 192.815374 
L 209.660826 192.802435 
L 209.978182 192.482662 
L 210.295537 192.33647 
L 211.247603 191.353974 
L 211.882314 191.266502 
L 212.199669 190.826313 
L 212.83438 190.686878 
L 213.151736 190.503909 
L 213.469091 189.789156 
L 213.786446 189.715786 
L 214.103802 189.523422 
L 214.421157 188.940955 
L 215.055868 188.81374 
L 215.373223 188.801096 
L 215.690579 188.544086 
L 216.642645 188.479056 
L 218.229421 187.839525 
L 219.816198 187.162909 
L 220.133554 187.147154 
L 220.450909 187.003156 
L 220.768264 186.515285 
L 221.08562 186.454167 
L 221.402975 186.231232 
L 221.720331 186.176943 
L 222.037686 185.971677 
L 222.989752 185.82499 
L 223.307107 185.281086 
L 223.624463 185.001579 
L 224.576529 184.814419 
L 225.528595 184.452212 
L 226.163306 183.928522 
L 229.97157 182.237325 
L 230.288926 181.934655 
L 230.606281 181.899016 
L 231.240992 181.335735 
L 231.875702 181.256187 
L 232.827769 180.967105 
L 233.145124 180.677113 
L 233.462479 180.59074 
L 234.414545 179.94519 
L 235.049256 179.766528 
L 235.683967 179.124629 
L 236.636033 178.784286 
L 238.22281 177.645831 
L 238.540165 177.249785 
L 238.857521 177.096866 
L 239.492231 176.957656 
L 240.761653 176.705142 
L 241.079008 176.48651 
L 241.713719 176.380953 
L 242.34843 176.127655 
L 242.665785 175.844339 
L 243.300496 175.712026 
L 243.617851 175.542167 
L 244.252562 174.922556 
L 244.887273 174.874054 
L 245.204628 174.524746 
L 246.791405 174.192368 
L 247.10876 173.918239 
L 248.060826 173.778798 
L 248.378182 173.758703 
L 248.695537 173.62448 
L 249.012893 173.201488 
L 249.647603 172.909566 
L 249.964959 172.59752 
L 250.599669 172.398361 
L 250.917025 172.395343 
L 251.23438 172.249402 
L 251.869091 172.201127 
L 252.186446 171.931773 
L 252.821157 171.839924 
L 253.773223 171.613503 
L 255.042645 171.401827 
L 255.36 171.368202 
L 256.312066 170.824943 
L 256.629421 170.254009 
L 257.264132 170.235475 
L 257.581488 170.007925 
L 257.898843 169.997088 
L 258.533554 169.202562 
L 261.072397 168.822024 
L 261.389752 168.646036 
L 261.707107 168.6435 
L 262.024463 168.441806 
L 262.976529 168.361294 
L 263.293884 168.043853 
L 265.198017 167.469976 
L 265.832727 167.378634 
L 266.150083 167.298494 
L 266.467438 166.712511 
L 267.102149 166.633177 
L 267.419504 166.374342 
L 268.37157 166.183024 
L 268.688926 166.176729 
L 269.323636 165.876456 
L 271.227769 165.413219 
L 271.545124 165.143885 
L 271.862479 164.698199 
L 272.814545 164.37356 
L 273.131901 164.281355 
L 273.449256 163.925658 
L 274.401322 163.619608 
L 275.036033 163.531041 
L 275.353388 163.382716 
L 276.305455 163.238544 
L 277.257521 162.783674 
L 277.574876 162.748163 
L 278.526942 162.184644 
L 280.113719 161.600494 
L 280.431074 161.328374 
L 281.065785 161.207262 
L 281.38314 160.61518 
L 282.017851 160.39089 
L 282.335207 160.158021 
L 282.652562 160.15407 
L 284.239339 159.489173 
L 285.191405 158.897405 
L 286.460826 158.6917 
L 287.095537 158.651241 
L 287.412893 158.550016 
L 287.730248 158.304419 
L 288.047603 158.296206 
L 288.682314 158.094492 
L 290.903802 157.067731 
L 291.221157 156.823376 
L 291.538512 156.40485 
L 291.855868 156.39431 
L 292.490579 156.211958 
L 293.125289 156.07551 
L 295.981488 155.110971 
L 297.568264 154.849684 
L 299.472397 153.733814 
L 299.789752 153.697959 
L 300.107107 153.382193 
L 300.741818 153.279268 
L 301.059174 153.195348 
L 301.376529 152.639397 
L 301.693884 152.63915 
L 302.64595 152.341778 
L 303.280661 152.301238 
L 304.232727 151.81339 
L 304.550083 151.209912 
L 305.819504 150.715057 
L 306.454215 150.70915 
L 306.77157 150.393851 
L 307.723636 150.295918 
L 308.040992 149.821609 
L 308.358347 149.782149 
L 308.675702 149.626483 
L 308.993058 149.345394 
L 310.262479 148.991844 
L 311.531901 148.444558 
L 311.849256 148.126255 
L 312.166612 148.074529 
L 312.801322 147.716458 
L 314.070744 147.362793 
L 314.388099 147.008266 
L 315.340165 146.6268 
L 315.657521 146.59965 
L 315.974876 146.345226 
L 316.292231 146.323652 
L 316.609587 145.968504 
L 317.244298 145.88679 
L 317.561653 145.46812 
L 317.879008 145.296613 
L 318.196364 145.265137 
L 318.513719 145.112336 
L 318.831074 144.761971 
L 319.14843 144.742585 
L 319.465785 144.247334 
L 321.369917 143.086894 
L 321.687273 143.065353 
L 322.321983 142.582436 
L 322.956694 142.527363 
L 323.591405 141.750689 
L 324.226116 141.171235 
L 324.543471 140.953022 
L 324.860826 140.311943 
L 325.495537 140.052679 
L 326.447603 139.214948 
L 326.764959 139.040345 
L 327.082314 138.567946 
L 328.03438 138.254333 
L 328.351736 136.816439 
L 328.669091 136.633793 
L 329.303802 136.518664 
L 330.890579 135.020269 
L 331.207934 134.869027 
L 331.842645 134.805687 
L 332.16 134.576511 
L 332.477355 134.036468 
L 333.746777 133.231088 
L 334.064132 133.095075 
L 334.381488 132.369506 
L 334.698843 132.323978 
L 335.016198 131.920041 
L 335.968264 131.826387 
L 336.28562 131.204449 
L 336.602975 131.195855 
L 336.920331 130.303394 
L 337.237686 130.209346 
L 338.189752 129.072281 
L 338.507107 127.417693 
L 339.141818 126.887536 
L 339.459174 126.602366 
L 339.776529 126.593207 
L 340.41124 125.948632 
L 340.728595 124.984863 
L 341.680661 124.502398 
L 341.998017 124.191044 
L 342.315372 124.138732 
L 342.632727 123.825136 
L 342.950083 123.716631 
L 343.267438 123.066895 
L 343.584793 123.062922 
L 344.219504 122.560434 
L 344.854215 122.405397 
L 345.17157 121.721724 
L 345.488926 121.428956 
L 345.806281 120.939401 
L 346.123636 120.086878 
L 346.440992 120.083785 
L 347.393058 117.702477 
L 347.710413 115.892192 
L 348.027769 114.961686 
L 348.345124 114.62862 
L 348.662479 113.118524 
L 348.979835 112.275564 
L 349.29719 111.942499 
L 349.614545 110.984372 
L 350.249256 110.232814 
L 350.883967 108.433564 
L 351.518678 107.759258 
L 351.836033 106.812651 
L 352.470744 106.264705 
L 352.788099 106.185526 
L 353.105455 105.931639 
L 353.42281 104.547587 
L 354.057521 103.686587 
L 354.374876 103.575132 
L 354.692231 102.229497 
L 355.009587 101.946019 
L 355.326942 101.07692 
L 355.644298 100.600384 
L 355.961653 99.571384 
L 356.279008 99.447863 
L 356.913719 96.363227 
L 357.54843 95.612852 
L 358.18314 94.148175 
L 358.500496 94.023255 
L 358.817851 93.601716 
L 359.452562 93.059974 
L 360.404628 92.414913 
L 360.721983 92.265483 
L 361.039339 91.97266 
L 361.356694 91.484005 
L 361.991405 91.164866 
L 362.30876 90.168473 
L 362.943471 89.854892 
L 363.260826 89.828612 
L 363.578182 89.67022 
L 363.895537 88.326441 
L 364.530248 88.07084 
L 364.847603 86.688105 
L 365.799669 84.581642 
L 366.117025 84.348269 
L 366.751736 83.003104 
L 367.069091 82.973301 
L 367.703802 82.718897 
L 368.338512 82.065535 
L 368.973223 81.696016 
L 369.290579 81.37373 
L 369.607934 80.726851 
L 370.56 80.087677 
L 370.877355 80.077053 
L 371.512066 79.705488 
L 372.146777 78.881759 
L 372.464132 78.541215 
L 372.781488 78.439149 
L 374.68562 77.001931 
L 375.002975 76.903312 
L 375.320331 76.4587 
L 375.637686 76.363975 
L 375.955041 75.863544 
L 376.272397 75.863045 
L 376.907107 75.510845 
L 377.224463 75.372875 
L 377.541818 74.820781 
L 377.859174 74.734919 
L 378.493884 74.242636 
L 378.81124 74.192291 
L 379.128595 74.015939 
L 379.44595 73.694688 
L 379.763306 72.949997 
L 380.080661 72.83115 
L 380.715372 72.378018 
L 381.032727 72.265732 
L 381.350083 71.668901 
L 381.667438 71.449655 
L 381.984793 70.636367 
L 382.302149 70.263862 
L 382.619504 70.064354 
L 382.93686 70.047991 
L 383.254215 69.500046 
L 383.57157 67.665058 
L 384.206281 67.378175 
L 384.523636 67.255012 
L 384.840992 66.942421 
L 385.475702 66.10391 
L 386.110413 65.837527 
L 386.745124 64.801015 
L 387.379835 64.465967 
L 387.69719 64.253066 
L 388.014545 63.536934 
L 388.331901 63.533066 
L 388.966612 63.196022 
L 389.601322 62.610896 
L 389.918678 62.008034 
L 390.553388 61.904655 
L 390.870744 61.850847 
L 391.505455 61.367434 
L 391.82281 61.060179 
L 392.457521 60.822942 
L 393.409587 59.431122 
L 393.726942 59.181181 
L 394.044298 59.122357 
L 394.361653 58.659605 
L 394.679008 58.550405 
L 394.996364 58.096202 
L 395.313719 57.021671 
L 395.631074 56.912476 
L 395.94843 56.628305 
L 396.265785 56.534544 
L 396.58314 55.625531 
L 396.900496 55.457088 
L 397.852562 53.987603 
L 398.169917 53.9342 
L 398.487273 53.568 
L 398.487273 53.568 
" clip-path="url(#pcd4e8e19b4)" style="fill: none; stroke: #1f77b4; stroke-width: 1.5; stroke-linecap: square"/>
   </g>
   <g id="line2d_17">
    <path d="M 73.832727 206.500726 
L 74.150083 202.805201 
L 74.467438 202.805201 
L 74.784793 199.64628 
L 75.102149 198.990127 
L 75.73686 198.990127 
L 76.054215 197.808186 
L 76.37157 195.812906 
L 76.688926 195.69049 
L 77.006281 195.69049 
L 77.323636 195.381755 
L 78.910413 195.381755 
L 79.227769 194.2561 
L 79.545124 194.2561 
L 80.179835 193.596868 
L 80.49719 193.596868 
L 80.814545 192.352137 
L 81.131901 191.766233 
L 82.083967 191.756159 
L 82.401322 191.409394 
L 86.844298 191.389706 
L 87.161653 191.199836 
L 87.479008 190.297871 
L 88.431074 189.786228 
L 89.700496 189.786228 
L 90.017851 189.387264 
L 90.652562 189.387264 
L 90.969917 188.923808 
L 91.287273 188.923808 
L 91.604628 188.682384 
L 91.921983 188.061403 
L 99.221157 188.061403 
L 99.538512 187.691382 
L 101.76 187.603856 
L 102.077355 187.220319 
L 103.981488 187.133807 
L 104.298843 186.984261 
L 104.933554 186.984261 
L 105.250909 186.458291 
L 106.202975 186.431784 
L 106.520331 185.244757 
L 108.741818 184.854132 
L 109.376529 184.854132 
L 109.693884 184.254246 
L 110.01124 184.254246 
L 110.328595 183.591559 
L 129.369917 183.591531 
L 130.004628 182.997854 
L 130.321983 182.86077 
L 131.27405 182.838189 
L 131.591405 182.530128 
L 132.860826 182.459746 
L 133.178182 181.866707 
L 133.495537 181.866707 
L 133.812893 181.742525 
L 135.399669 181.742525 
L 135.717025 181.236792 
L 136.986446 181.025622 
L 163.009587 181.025622 
L 163.326942 180.500737 
L 167.769917 180.404811 
L 168.087273 179.755197 
L 168.404628 179.755197 
L 168.721983 179.581803 
L 169.356694 179.581803 
L 169.67405 179.469909 
L 169.991405 179.201904 
L 171.895537 179.120739 
L 172.530248 179.012941 
L 173.164959 178.932774 
L 180.146777 178.932774 
L 180.464132 178.794786 
L 180.781488 178.794786 
L 181.098843 178.659436 
L 182.68562 178.659436 
L 183.320331 177.396835 
L 186.493884 177.312246 
L 186.81124 177.201442 
L 187.128595 176.923774 
L 187.44595 176.923774 
L 187.763306 176.735713 
L 188.080661 176.735713 
L 188.398017 175.950606 
L 188.715372 174.830925 
L 283.604628 174.830925 
L 284.239339 172.926138 
L 284.556694 172.926138 
L 284.87405 172.738077 
L 285.191405 172.738077 
L 285.50876 172.460409 
L 286.143471 172.349605 
L 288.999669 172.265016 
L 289.63438 171.002415 
L 291.221157 171.002415 
L 291.538512 170.867065 
L 291.855868 170.867065 
L 292.173223 170.729077 
L 300.107107 170.64891 
L 300.741818 170.459947 
L 302.328595 170.459947 
L 302.64595 170.191942 
L 303.280661 170.080047 
L 303.598017 170.080047 
L 303.915372 169.906654 
L 304.232727 169.906654 
L 304.550083 169.25704 
L 308.993058 169.161114 
L 309.310413 168.636229 
L 335.968264 168.607439 
L 336.602975 168.425059 
L 336.920331 167.919326 
L 338.507107 167.919326 
L 338.824463 167.795144 
L 339.141818 167.795144 
L 339.459174 167.202105 
L 340.728595 167.131723 
L 341.04595 166.823662 
L 342.315372 166.663997 
L 342.632727 166.446902 
L 342.950083 166.070319 
L 361.991405 166.070292 
L 362.30876 165.407605 
L 362.626116 165.407605 
L 362.943471 164.807719 
L 364.530248 164.807719 
L 364.847603 164.534381 
L 365.482314 164.487245 
L 365.799669 164.417094 
L 366.117025 163.230067 
L 367.069091 163.20356 
L 367.386446 162.67759 
L 368.021157 162.67759 
L 368.655868 162.441532 
L 370.242645 162.441532 
L 370.56 162.057995 
L 372.781488 161.970469 
L 373.098843 161.600448 
L 380.398017 161.600448 
L 380.715372 160.979467 
L 381.032727 160.738043 
L 381.350083 160.738043 
L 381.667438 160.274587 
L 382.302149 160.274587 
L 382.619504 159.875623 
L 384.206281 159.875623 
L 384.840992 159.36398 
L 385.158347 158.462015 
L 385.475702 158.272145 
L 389.918678 158.252457 
L 390.236033 157.905692 
L 391.188099 157.895618 
L 391.505455 157.309713 
L 391.82281 156.064983 
L 392.140165 156.064983 
L 392.457521 155.813234 
L 392.774876 155.405751 
L 393.092231 155.405751 
L 393.409587 154.280096 
L 394.996364 154.280096 
L 395.313719 153.971361 
L 395.631074 153.971361 
L 395.94843 153.848945 
L 396.265785 151.853665 
L 396.58314 150.671724 
L 397.217851 150.671724 
L 397.535207 150.015571 
L 397.852562 146.85665 
L 398.169917 146.85665 
L 398.487273 143.161125 
L 398.487273 143.161125 
" clip-path="url(#pcd4e8e19b4)" style="fill: none; stroke: #ff7f0e; stroke-width: 1.5; stroke-linecap: square"/>
   </g>
   <g id="patch_3">
    <path d="M 57.6 307.584 
L 57.6 41.472 
" style="fill: none; stroke: #000000; stroke-width: 0.8; stroke-linejoin: miter; stroke-linecap: square"/>
   </g>
   <g id="patch_4">
    <path d="M 414.72 307.584 
L 414.72 41.472 
" style="fill: none; stroke: #000000; stroke-width: 0.8; stroke-linejoin: miter; stroke-linecap: square"/>
   </g>
   <g id="patch_5">
    <path d="M 57.6 307.584 
L 414.72 307.584 
" style="fill: none; stroke: #000000; stroke-width: 0.8; stroke-linejoin: miter; stroke-linecap: square"/>
   </g>
   <g id="patch_6">
    <path d="M 57.6 41.472 
L 414.72 41.472 
" style="fill: none; stroke: #000000; stroke-width: 0.8; stroke-linejoin: miter; stroke-linecap: square"/>
   </g>
   <g id="legend_1">
    <g id="patch_7">
     <path d="M 64.6 78.82825 
L 129.342187 78.82825 
Q 131.342187 78.82825 131.342187 76.82825 
L 131.342187 48.472 
Q 131.342187 46.472 129.342187 46.472 
L 64.6 46.472 
Q 62.6 46.472 62.6 48.472 
L 62.6 76.82825 
Q 62.6 78.82825 64.6 78.82825 
z
" style="fill: #ffffff; opacity: 0.8; stroke: #cccccc; stroke-linejoin: miter"/>
    </g>
    <g id="line2d_18">
     <path d="M 66.6 54.570437 
L 76.6 54.570437 
L 86.6 54.570437 
" style="fill: none; stroke: #1f77b4; stroke-width: 1.5; stroke-linecap: square"/>
    </g>
    <g id="text_18">
     <!-- qc -->
     <g transform="translate(94.6 58.070437) scale(0.1 -0.1)">
      <defs>
       <path id="DejaVuSans-71" d="M 947 1747 
Q 947 1113 1208 752 
Q 1469 391 1925 391 
Q 2381 391 2643 752 
Q 2906 1113 2906 1747 
Q 2906 2381 2643 2742 
Q 2381 3103 1925 3103 
Q 1469 3103 1208 2742 
Q 947 2381 947 1747 
z
M 2906 525 
Q 2725 213 2448 61 
Q 2172 -91 1784 -91 
Q 1150 -91 751 415 
Q 353 922 353 1747 
Q 353 2572 751 3078 
Q 1150 3584 1784 3584 
Q 2172 3584 2448 3432 
Q 2725 3281 2906 2969 
L 2906 3500 
L 3481 3500 
L 3481 -1331 
L 2906 -1331 
L 2906 525 
z
" transform="scale(0.015625)"/>
       <path id="DejaVuSans-63" d="M 3122 3366 
L 3122 2828 
Q 2878 2963 2633 3030 
Q 2388 3097 2138 3097 
Q 1578 3097 1268 2742 
Q 959 2388 959 1747 
Q 959 1106 1268 751 
Q 1578 397 2138 397 
Q 2388 397 2633 464 
Q 2878 531 3122 666 
L 3122 134 
Q 2881 22 2623 -34 
Q 2366 -91 2075 -91 
Q 1284 -91 818 406 
Q 353 903 353 1747 
Q 353 2603 823 3093 
Q 1294 3584 2113 3584 
Q 2378 3584 2631 3529 
Q 2884 3475 3122 3366 
z
" transform="scale(0.015625)"/>
      </defs>
      <use xlink:href="#DejaVuSans-71"/>
      <use xlink:href="#DejaVuSans-63" x="63.476562"/>
     </g>
    </g>
    <g id="line2d_19">
     <path d="M 66.6 69.248562 
L 76.6 69.248562 
L 86.6 69.248562 
" style="fill: none; stroke: #ff7f0e; stroke-width: 1.5; stroke-linecap: square"/>
    </g>
    <g id="text_19">
     <!-- Trotter -->
     <g transform="translate(94.6 72.748562) scale(0.1 -0.1)">
      <defs>
       <path id="DejaVuSans-54" d="M -19 4666 
L 3928 4666 
L 3928 4134 
L 2272 4134 
L 2272 0 
L 1638 0 
L 1638 4134 
L -19 4134 
L -19 4666 
z
" transform="scale(0.015625)"/>
       <path id="DejaVuSans-72" d="M 2631 2963 
Q 2534 3019 2420 3045 
Q 2306 3072 2169 3072 
Q 1681 3072 1420 2755 
Q 1159 2438 1159 1844 
L 1159 0 
L 581 0 
L 581 3500 
L 1159 3500 
L 1159 2956 
Q 1341 3275 1631 3429 
Q 1922 3584 2338 3584 
Q 2397 3584 2469 3576 
Q 2541 3569 2628 3553 
L 2631 2963 
z
" transform="scale(0.015625)"/>
       <path id="DejaVuSans-6f" d="M 1959 3097 
Q 1497 3097 1228 2736 
Q 959 2375 959 1747 
Q 959 1119 1226 758 
Q 1494 397 1959 397 
Q 2419 397 2687 759 
Q 2956 1122 2956 1747 
Q 2956 2369 2687 2733 
Q 2419 3097 1959 3097 
z
M 1959 3584 
Q 2709 3584 3137 3096 
Q 3566 2609 3566 1747 
Q 3566 888 3137 398 
Q 2709 -91 1959 -91 
Q 1206 -91 779 398 
Q 353 888 353 1747 
Q 353 2609 779 3096 
Q 1206 3584 1959 3584 
z
" transform="scale(0.015625)"/>
       <path id="DejaVuSans-65" d="M 3597 1894 
L 3597 1613 
L 953 1613 
Q 991 1019 1311 708 
Q 1631 397 2203 397 
Q 2534 397 2845 478 
Q 3156 559 3463 722 
L 3463 178 
Q 3153 47 2828 -22 
Q 2503 -91 2169 -91 
Q 1331 -91 842 396 
Q 353 884 353 1716 
Q 353 2575 817 3079 
Q 1281 3584 2069 3584 
Q 2775 3584 3186 3129 
Q 3597 2675 3597 1894 
z
M 3022 2063 
Q 3016 2534 2758 2815 
Q 2500 3097 2075 3097 
Q 1594 3097 1305 2825 
Q 1016 2553 972 2059 
L 3022 2063 
z
" transform="scale(0.015625)"/>
      </defs>
      <use xlink:href="#DejaVuSans-54"/>
      <use xlink:href="#DejaVuSans-72" x="46.333984"/>
      <use xlink:href="#DejaVuSans-6f" x="85.197266"/>
      <use xlink:href="#DejaVuSans-74" x="146.378906"/>
      <use xlink:href="#DejaVuSans-74" x="185.587891"/>
      <use xlink:href="#DejaVuSans-65" x="224.796875"/>
      <use xlink:href="#DejaVuSans-72" x="286.320312"/>
     </g>
    </g>
   </g>
  </g>
 </g>
 <defs>
  <clipPath id="pcd4e8e19b4">
   <rect x="57.6" y="41.472" width="357.12" height="266.112"/>
  </clipPath>
 </defs>
</svg>
