<?xml version="1.0" encoding="utf-8" standalone="no"?>
<!DOCTYPE svg PUBLIC "-//W3C//DTD SVG 1.1//EN"
  "http://www.w3.org/Graphics/SVG/1.1/DTD/svg11.dtd">
<svg xmlns:xlink="http://www.w3.org/1999/xlink" width="460.8pt" height="345.6pt" viewBox="0 0 460.8 345.6" xmlns="http://www.w3.org/2000/svg" version="1.1">
 <metadata>
  <rdf:RDF xmlns:dc="http://purl.org/dc/elements/1.1/" xmlns:cc="http://creativecommons.org/ns#" xmlns:rdf="http://www.w3.org/1999/02/22-rdf-syntax-ns#">
   <cc:Work>
    <dc:type rdf:resource="http://purl.org/dc/dcmitype/StillImage"/>
    <dc:date>2024-08-24T17:11:36.544139</dc:date>
    <dc:format>image/svg+xml</dc:format>
    <dc:creator>
     <cc:Agent>
      <dc:title>Matplotlib v3.7.1, https://matplotlib.org/</dc:title>
     </cc:Agent>
    </dc:creator>
   </cc:Work>
  </rdf:RDF>
 </metadata>
 <defs>
  <style type="text/css">*{stroke-linejoin: round; stroke-linecap: butt}</style>
 </defs>
 <g id="figure_1">
  <g id="patch_1">
   <path d="M 0 345.6 
L 460.8 345.6 
L 460.8 0 
L 0 0 
z
" style="fill: #ffffff"/>
  </g>
  <g id="axes_1">
   <g id="patch_2">
    <path d="M 57.6 307.584 
L 414.72 307.584 
L 414.72 41.472 
L 57.6 41.472 
z
" style="fill: #ffffff"/>
   </g>
   <g id="matplotlib.axis_1">
    <g id="xtick_1">
     <g id="line2d_1">
      <defs>
       <path id="m9156467477" d="M 0 0 
L 0 3.5 
" style="stroke: #000000; stroke-width: 0.8"/>
      </defs>
      <g>
       <use xlink:href="#m9156467477" x="73.832727" y="307.584" style="stroke: #000000; stroke-width: 0.8"/>
      </g>
     </g>
     <g id="text_1">
      <!-- 0 -->
      <g transform="translate(70.651477 322.182437) scale(0.1 -0.1)">
       <defs>
        <path id="DejaVuSans-30" d="M 2034 4250 
Q 1547 4250 1301 3770 
Q 1056 3291 1056 2328 
Q 1056 1369 1301 889 
Q 1547 409 2034 409 
Q 2525 409 2770 889 
Q 3016 1369 3016 2328 
Q 3016 3291 2770 3770 
Q 2525 4250 2034 4250 
z
M 2034 4750 
Q 2819 4750 3233 4129 
Q 3647 3509 3647 2328 
Q 3647 1150 3233 529 
Q 2819 -91 2034 -91 
Q 1250 -91 836 529 
Q 422 1150 422 2328 
Q 422 3509 836 4129 
Q 1250 4750 2034 4750 
z
" transform="scale(0.015625)"/>
       </defs>
       <use xlink:href="#DejaVuSans-30"/>
      </g>
     </g>
    </g>
    <g id="xtick_2">
     <g id="line2d_2">
      <g>
       <use xlink:href="#m9156467477" x="137.303802" y="307.584" style="stroke: #000000; stroke-width: 0.8"/>
      </g>
     </g>
     <g id="text_2">
      <!-- 200 -->
      <g transform="translate(127.760052 322.182437) scale(0.1 -0.1)">
       <defs>
        <path id="DejaVuSans-32" d="M 1228 531 
L 3431 531 
L 3431 0 
L 469 0 
L 469 531 
Q 828 903 1448 1529 
Q 2069 2156 2228 2338 
Q 2531 2678 2651 2914 
Q 2772 3150 2772 3378 
Q 2772 3750 2511 3984 
Q 2250 4219 1831 4219 
Q 1534 4219 1204 4116 
Q 875 4013 500 3803 
L 500 4441 
Q 881 4594 1212 4672 
Q 1544 4750 1819 4750 
Q 2544 4750 2975 4387 
Q 3406 4025 3406 3419 
Q 3406 3131 3298 2873 
Q 3191 2616 2906 2266 
Q 2828 2175 2409 1742 
Q 1991 1309 1228 531 
z
" transform="scale(0.015625)"/>
       </defs>
       <use xlink:href="#DejaVuSans-32"/>
       <use xlink:href="#DejaVuSans-30" x="63.623047"/>
       <use xlink:href="#DejaVuSans-30" x="127.246094"/>
      </g>
     </g>
    </g>
    <g id="xtick_3">
     <g id="line2d_3">
      <g>
       <use xlink:href="#m9156467477" x="200.774876" y="307.584" style="stroke: #000000; stroke-width: 0.8"/>
      </g>
     </g>
     <g id="text_3">
      <!-- 400 -->
      <g transform="translate(191.231126 322.182437) scale(0.1 -0.1)">
       <defs>
        <path id="DejaVuSans-34" d="M 2419 4116 
L 825 1625 
L 2419 1625 
L 2419 4116 
z
M 2253 4666 
L 3047 4666 
L 3047 1625 
L 3713 1625 
L 3713 1100 
L 3047 1100 
L 3047 0 
L 2419 0 
L 2419 1100 
L 313 1100 
L 313 1709 
L 2253 4666 
z
" transform="scale(0.015625)"/>
       </defs>
       <use xlink:href="#DejaVuSans-34"/>
       <use xlink:href="#DejaVuSans-30" x="63.623047"/>
       <use xlink:href="#DejaVuSans-30" x="127.246094"/>
      </g>
     </g>
    </g>
    <g id="xtick_4">
     <g id="line2d_4">
      <g>
       <use xlink:href="#m9156467477" x="264.24595" y="307.584" style="stroke: #000000; stroke-width: 0.8"/>
      </g>
     </g>
     <g id="text_4">
      <!-- 600 -->
      <g transform="translate(254.7022 322.182437) scale(0.1 -0.1)">
       <defs>
        <path id="DejaVuSans-36" d="M 2113 2584 
Q 1688 2584 1439 2293 
Q 1191 2003 1191 1497 
Q 1191 994 1439 701 
Q 1688 409 2113 409 
Q 2538 409 2786 701 
Q 3034 994 3034 1497 
Q 3034 2003 2786 2293 
Q 2538 2584 2113 2584 
z
M 3366 4563 
L 3366 3988 
Q 3128 4100 2886 4159 
Q 2644 4219 2406 4219 
Q 1781 4219 1451 3797 
Q 1122 3375 1075 2522 
Q 1259 2794 1537 2939 
Q 1816 3084 2150 3084 
Q 2853 3084 3261 2657 
Q 3669 2231 3669 1497 
Q 3669 778 3244 343 
Q 2819 -91 2113 -91 
Q 1303 -91 875 529 
Q 447 1150 447 2328 
Q 447 3434 972 4092 
Q 1497 4750 2381 4750 
Q 2619 4750 2861 4703 
Q 3103 4656 3366 4563 
z
" transform="scale(0.015625)"/>
       </defs>
       <use xlink:href="#DejaVuSans-36"/>
       <use xlink:href="#DejaVuSans-30" x="63.623047"/>
       <use xlink:href="#DejaVuSans-30" x="127.246094"/>
      </g>
     </g>
    </g>
    <g id="xtick_5">
     <g id="line2d_5">
      <g>
       <use xlink:href="#m9156467477" x="327.717025" y="307.584" style="stroke: #000000; stroke-width: 0.8"/>
      </g>
     </g>
     <g id="text_5">
      <!-- 800 -->
      <g transform="translate(318.173275 322.182437) scale(0.1 -0.1)">
       <defs>
        <path id="DejaVuSans-38" d="M 2034 2216 
Q 1584 2216 1326 1975 
Q 1069 1734 1069 1313 
Q 1069 891 1326 650 
Q 1584 409 2034 409 
Q 2484 409 2743 651 
Q 3003 894 3003 1313 
Q 3003 1734 2745 1975 
Q 2488 2216 2034 2216 
z
M 1403 2484 
Q 997 2584 770 2862 
Q 544 3141 544 3541 
Q 544 4100 942 4425 
Q 1341 4750 2034 4750 
Q 2731 4750 3128 4425 
Q 3525 4100 3525 3541 
Q 3525 3141 3298 2862 
Q 3072 2584 2669 2484 
Q 3125 2378 3379 2068 
Q 3634 1759 3634 1313 
Q 3634 634 3220 271 
Q 2806 -91 2034 -91 
Q 1263 -91 848 271 
Q 434 634 434 1313 
Q 434 1759 690 2068 
Q 947 2378 1403 2484 
z
M 1172 3481 
Q 1172 3119 1398 2916 
Q 1625 2713 2034 2713 
Q 2441 2713 2670 2916 
Q 2900 3119 2900 3481 
Q 2900 3844 2670 4047 
Q 2441 4250 2034 4250 
Q 1625 4250 1398 4047 
Q 1172 3844 1172 3481 
z
" transform="scale(0.015625)"/>
       </defs>
       <use xlink:href="#DejaVuSans-38"/>
       <use xlink:href="#DejaVuSans-30" x="63.623047"/>
       <use xlink:href="#DejaVuSans-30" x="127.246094"/>
      </g>
     </g>
    </g>
    <g id="xtick_6">
     <g id="line2d_6">
      <g>
       <use xlink:href="#m9156467477" x="391.188099" y="307.584" style="stroke: #000000; stroke-width: 0.8"/>
      </g>
     </g>
     <g id="text_6">
      <!-- 1000 -->
      <g transform="translate(378.463099 322.182437) scale(0.1 -0.1)">
       <defs>
        <path id="DejaVuSans-31" d="M 794 531 
L 1825 531 
L 1825 4091 
L 703 3866 
L 703 4441 
L 1819 4666 
L 2450 4666 
L 2450 531 
L 3481 531 
L 3481 0 
L 794 0 
L 794 531 
z
" transform="scale(0.015625)"/>
       </defs>
       <use xlink:href="#DejaVuSans-31"/>
       <use xlink:href="#DejaVuSans-30" x="63.623047"/>
       <use xlink:href="#DejaVuSans-30" x="127.246094"/>
       <use xlink:href="#DejaVuSans-30" x="190.869141"/>
      </g>
     </g>
    </g>
    <g id="text_7">
     <!-- n -->
     <g transform="translate(232.99125 335.860562) scale(0.1 -0.1)">
      <defs>
       <path id="DejaVuSans-6e" d="M 3513 2113 
L 3513 0 
L 2938 0 
L 2938 2094 
Q 2938 2591 2744 2837 
Q 2550 3084 2163 3084 
Q 1697 3084 1428 2787 
Q 1159 2491 1159 1978 
L 1159 0 
L 581 0 
L 581 3500 
L 1159 3500 
L 1159 2956 
Q 1366 3272 1645 3428 
Q 1925 3584 2291 3584 
Q 2894 3584 3203 3211 
Q 3513 2838 3513 2113 
z
" transform="scale(0.015625)"/>
      </defs>
      <use xlink:href="#DejaVuSans-6e"/>
     </g>
    </g>
   </g>
   <g id="matplotlib.axis_2">
    <g id="ytick_1">
     <g id="line2d_7">
      <defs>
       <path id="m9872bbcfa1" d="M 0 0 
L -3.5 0 
" style="stroke: #000000; stroke-width: 0.8"/>
      </defs>
      <g>
       <use xlink:href="#m9872bbcfa1" x="57.6" y="297.791635" style="stroke: #000000; stroke-width: 0.8"/>
      </g>
     </g>
     <g id="text_8">
      <!-- −20 -->
      <g transform="translate(29.495313 301.590854) scale(0.1 -0.1)">
       <defs>
        <path id="DejaVuSans-2212" d="M 678 2272 
L 4684 2272 
L 4684 1741 
L 678 1741 
L 678 2272 
z
" transform="scale(0.015625)"/>
       </defs>
       <use xlink:href="#DejaVuSans-2212"/>
       <use xlink:href="#DejaVuSans-32" x="83.789062"/>
       <use xlink:href="#DejaVuSans-30" x="147.412109"/>
      </g>
     </g>
    </g>
    <g id="ytick_2">
     <g id="line2d_8">
      <g>
       <use xlink:href="#m9872bbcfa1" x="57.6" y="266.976791" style="stroke: #000000; stroke-width: 0.8"/>
      </g>
     </g>
     <g id="text_9">
      <!-- −15 -->
      <g transform="translate(29.495313 270.776009) scale(0.1 -0.1)">
       <defs>
        <path id="DejaVuSans-35" d="M 691 4666 
L 3169 4666 
L 3169 4134 
L 1269 4134 
L 1269 2991 
Q 1406 3038 1543 3061 
Q 1681 3084 1819 3084 
Q 2600 3084 3056 2656 
Q 3513 2228 3513 1497 
Q 3513 744 3044 326 
Q 2575 -91 1722 -91 
Q 1428 -91 1123 -41 
Q 819 9 494 109 
L 494 744 
Q 775 591 1075 516 
Q 1375 441 1709 441 
Q 2250 441 2565 725 
Q 2881 1009 2881 1497 
Q 2881 1984 2565 2268 
Q 2250 2553 1709 2553 
Q 1456 2553 1204 2497 
Q 953 2441 691 2322 
L 691 4666 
z
" transform="scale(0.015625)"/>
       </defs>
       <use xlink:href="#DejaVuSans-2212"/>
       <use xlink:href="#DejaVuSans-31" x="83.789062"/>
       <use xlink:href="#DejaVuSans-35" x="147.412109"/>
      </g>
     </g>
    </g>
    <g id="ytick_3">
     <g id="line2d_9">
      <g>
       <use xlink:href="#m9872bbcfa1" x="57.6" y="236.161946" style="stroke: #000000; stroke-width: 0.8"/>
      </g>
     </g>
     <g id="text_10">
      <!-- −10 -->
      <g transform="translate(29.495313 239.961165) scale(0.1 -0.1)">
       <use xlink:href="#DejaVuSans-2212"/>
       <use xlink:href="#DejaVuSans-31" x="83.789062"/>
       <use xlink:href="#DejaVuSans-30" x="147.412109"/>
      </g>
     </g>
    </g>
    <g id="ytick_4">
     <g id="line2d_10">
      <g>
       <use xlink:href="#m9872bbcfa1" x="57.6" y="205.347101" style="stroke: #000000; stroke-width: 0.8"/>
      </g>
     </g>
     <g id="text_11">
      <!-- −5 -->
      <g transform="translate(35.857813 209.14632) scale(0.1 -0.1)">
       <use xlink:href="#DejaVuSans-2212"/>
       <use xlink:href="#DejaVuSans-35" x="83.789062"/>
      </g>
     </g>
    </g>
    <g id="ytick_5">
     <g id="line2d_11">
      <g>
       <use xlink:href="#m9872bbcfa1" x="57.6" y="174.532256" style="stroke: #000000; stroke-width: 0.8"/>
      </g>
     </g>
     <g id="text_12">
      <!-- 0 -->
      <g transform="translate(44.2375 178.331475) scale(0.1 -0.1)">
       <use xlink:href="#DejaVuSans-30"/>
      </g>
     </g>
    </g>
    <g id="ytick_6">
     <g id="line2d_12">
      <g>
       <use xlink:href="#m9872bbcfa1" x="57.6" y="143.717412" style="stroke: #000000; stroke-width: 0.8"/>
      </g>
     </g>
     <g id="text_13">
      <!-- 5 -->
      <g transform="translate(44.2375 147.51663) scale(0.1 -0.1)">
       <use xlink:href="#DejaVuSans-35"/>
      </g>
     </g>
    </g>
    <g id="ytick_7">
     <g id="line2d_13">
      <g>
       <use xlink:href="#m9872bbcfa1" x="57.6" y="112.902567" style="stroke: #000000; stroke-width: 0.8"/>
      </g>
     </g>
     <g id="text_14">
      <!-- 10 -->
      <g transform="translate(37.875 116.701786) scale(0.1 -0.1)">
       <use xlink:href="#DejaVuSans-31"/>
       <use xlink:href="#DejaVuSans-30" x="63.623047"/>
      </g>
     </g>
    </g>
    <g id="ytick_8">
     <g id="line2d_14">
      <g>
       <use xlink:href="#m9872bbcfa1" x="57.6" y="82.087722" style="stroke: #000000; stroke-width: 0.8"/>
      </g>
     </g>
     <g id="text_15">
      <!-- 15 -->
      <g transform="translate(37.875 85.886941) scale(0.1 -0.1)">
       <use xlink:href="#DejaVuSans-31"/>
       <use xlink:href="#DejaVuSans-35" x="63.623047"/>
      </g>
     </g>
    </g>
    <g id="ytick_9">
     <g id="line2d_15">
      <g>
       <use xlink:href="#m9872bbcfa1" x="57.6" y="51.272877" style="stroke: #000000; stroke-width: 0.8"/>
      </g>
     </g>
     <g id="text_16">
      <!-- 20 -->
      <g transform="translate(37.875 55.072096) scale(0.1 -0.1)">
       <use xlink:href="#DejaVuSans-32"/>
       <use xlink:href="#DejaVuSans-30" x="63.623047"/>
      </g>
     </g>
    </g>
    <g id="text_17">
     <!-- E*t -->
     <g transform="translate(23.415625 182.147531) rotate(-90) scale(0.1 -0.1)">
      <defs>
       <path id="DejaVuSans-45" d="M 628 4666 
L 3578 4666 
L 3578 4134 
L 1259 4134 
L 1259 2753 
L 3481 2753 
L 3481 2222 
L 1259 2222 
L 1259 531 
L 3634 531 
L 3634 0 
L 628 0 
L 628 4666 
z
" transform="scale(0.015625)"/>
       <path id="DejaVuSans-2a" d="M 3009 3897 
L 1888 3291 
L 3009 2681 
L 2828 2375 
L 1778 3009 
L 1778 1831 
L 1422 1831 
L 1422 3009 
L 372 2375 
L 191 2681 
L 1313 3291 
L 191 3897 
L 372 4206 
L 1422 3572 
L 1422 4750 
L 1778 4750 
L 1778 3572 
L 2828 4206 
L 3009 3897 
z
" transform="scale(0.015625)"/>
       <path id="DejaVuSans-74" d="M 1172 4494 
L 1172 3500 
L 2356 3500 
L 2356 3053 
L 1172 3053 
L 1172 1153 
Q 1172 725 1289 603 
Q 1406 481 1766 481 
L 2356 481 
L 2356 0 
L 1766 0 
Q 1100 0 847 248 
Q 594 497 594 1153 
L 594 3053 
L 172 3053 
L 172 3500 
L 594 3500 
L 594 4494 
L 1172 4494 
z
" transform="scale(0.015625)"/>
      </defs>
      <use xlink:href="#DejaVuSans-45"/>
      <use xlink:href="#DejaVuSans-2a" x="63.183594"/>
      <use xlink:href="#DejaVuSans-74" x="113.183594"/>
     </g>
    </g>
   </g>
   <g id="line2d_16">
    <path d="M 73.832727 295.488 
L 74.467438 295.45882 
L 75.102149 294.905468 
L 75.419504 294.809425 
L 76.054215 293.983797 
L 77.006281 292.741518 
L 77.323636 291.795385 
L 77.640992 291.709865 
L 77.958347 291.421241 
L 78.275702 290.791629 
L 78.593058 290.738808 
L 79.862479 289.609226 
L 80.179835 288.463708 
L 80.49719 288.203018 
L 80.814545 288.15025 
L 81.131901 287.852588 
L 81.449256 287.1425 
L 81.766612 287.11305 
L 82.401322 285.186001 
L 82.718678 284.563723 
L 83.353388 284.362803 
L 83.988099 284.034039 
L 84.62281 283.655917 
L 84.940165 283.562635 
L 85.574876 283.118747 
L 85.892231 282.521784 
L 86.844298 281.838966 
L 87.479008 281.552127 
L 87.796364 281.530586 
L 88.113719 280.847084 
L 88.74843 280.701873 
L 89.065785 280.46617 
L 89.700496 279.609638 
L 90.017851 279.56497 
L 90.335207 279.277974 
L 90.652562 279.266322 
L 91.604628 277.700599 
L 91.921983 277.609667 
L 92.239339 276.949643 
L 92.556694 276.928662 
L 92.87405 276.343449 
L 93.191405 276.107747 
L 93.50876 275.426654 
L 94.460826 275.218617 
L 94.778182 274.721384 
L 95.095537 274.690524 
L 95.412893 274.040226 
L 95.730248 273.067015 
L 96.047603 273.029618 
L 96.682314 272.526419 
L 97.63438 272.056795 
L 97.951736 271.522551 
L 98.269091 271.321181 
L 98.586446 270.791136 
L 98.903802 270.74527 
L 99.221157 270.282989 
L 99.538512 270.271045 
L 100.173223 270.036937 
L 100.807934 269.933315 
L 101.125289 269.581871 
L 101.76 269.517784 
L 102.077355 269.300967 
L 102.712066 269.082791 
L 103.029421 268.850952 
L 103.664132 267.988067 
L 103.981488 266.897956 
L 104.616198 266.782237 
L 105.250909 266.635541 
L 106.202975 265.912371 
L 106.520331 265.869579 
L 107.155041 265.574808 
L 107.472397 265.552955 
L 108.107107 265.331358 
L 108.741818 264.505252 
L 109.059174 263.659478 
L 109.376529 263.158917 
L 109.693884 263.057411 
L 110.01124 262.497362 
L 110.328595 262.49243 
L 110.64595 262.291121 
L 111.598017 260.152626 
L 111.915372 259.898685 
L 112.550083 259.216928 
L 113.819504 258.797966 
L 114.77157 258.385419 
L 115.088926 257.932632 
L 116.040992 257.406236 
L 116.358347 256.900815 
L 117.627769 256.585978 
L 117.945124 256.133749 
L 118.262479 255.890652 
L 118.579835 255.299813 
L 119.214545 254.626616 
L 119.531901 254.60167 
L 119.849256 254.439492 
L 121.118678 254.293892 
L 121.436033 254.125155 
L 121.753388 253.740598 
L 122.070744 253.084511 
L 122.705455 253.0101 
L 123.657521 251.625486 
L 124.292231 251.51451 
L 124.609587 251.227343 
L 124.926942 251.107695 
L 125.244298 250.468604 
L 125.561653 250.219026 
L 126.196364 250.039118 
L 126.513719 249.799138 
L 126.831074 249.173217 
L 127.14843 249.117386 
L 127.465785 248.896307 
L 128.100496 247.703483 
L 129.052562 246.705766 
L 129.369917 246.15695 
L 130.639339 245.252505 
L 131.27405 245.214081 
L 131.591405 245.088521 
L 132.226116 244.579793 
L 132.860826 244.446392 
L 133.178182 244.433415 
L 134.130248 243.532477 
L 134.447603 242.829593 
L 135.717025 242.347238 
L 136.03438 241.853741 
L 136.351736 241.699633 
L 136.986446 241.074046 
L 138.255868 240.34705 
L 139.207934 240.12312 
L 139.842645 240.002744 
L 140.477355 239.441366 
L 140.794711 239.173805 
L 141.112066 237.610743 
L 141.746777 236.95425 
L 142.381488 236.912597 
L 143.333554 236.230843 
L 143.968264 235.644067 
L 144.28562 235.619531 
L 144.602975 235.223722 
L 144.920331 235.007006 
L 145.237686 234.348396 
L 145.555041 234.005915 
L 145.872397 233.944952 
L 146.507107 233.27892 
L 146.824463 233.252259 
L 147.141818 232.625987 
L 147.459174 232.390961 
L 148.093884 231.347845 
L 148.41124 231.266841 
L 149.04595 230.66609 
L 149.363306 229.989723 
L 149.680661 229.698293 
L 150.632727 229.430186 
L 151.267438 229.319181 
L 151.584793 229.174613 
L 152.219504 228.190266 
L 152.854215 227.938888 
L 153.17157 227.497107 
L 154.123636 226.762388 
L 155.710413 226.356345 
L 156.345124 225.604753 
L 156.662479 225.423769 
L 156.979835 225.071737 
L 157.29719 224.539572 
L 157.931901 223.857816 
L 158.249256 223.831594 
L 158.883967 223.346022 
L 159.201322 223.32367 
L 159.518678 222.168338 
L 160.788099 221.246302 
L 161.42281 220.769019 
L 162.057521 220.606742 
L 164.913719 220.078931 
L 165.231074 219.910948 
L 165.54843 219.890254 
L 166.817851 218.217555 
L 167.135207 217.47174 
L 168.087273 216.986323 
L 168.721983 216.789984 
L 169.039339 216.357491 
L 171.578182 215.365078 
L 173.164959 214.726645 
L 173.799669 214.572827 
L 174.117025 213.588896 
L 174.751736 213.139322 
L 175.069091 213.119958 
L 175.386446 212.694129 
L 175.703802 212.627894 
L 176.021157 212.017852 
L 176.338512 211.782599 
L 176.655868 211.362386 
L 177.290579 211.155178 
L 177.607934 210.969664 
L 177.925289 210.355185 
L 178.877355 209.864712 
L 179.194711 209.47034 
L 179.512066 209.400823 
L 180.464132 208.716604 
L 181.098843 208.658023 
L 181.416198 208.475369 
L 182.368264 208.352541 
L 182.68562 208.143751 
L 183.320331 207.034836 
L 183.637686 207.00371 
L 183.955041 206.62697 
L 184.272397 206.572508 
L 185.541818 205.745612 
L 186.176529 205.626218 
L 186.493884 205.282042 
L 186.81124 205.239123 
L 187.44595 204.604201 
L 190.302149 204.021956 
L 190.619504 203.660434 
L 192.206281 203.102039 
L 192.523636 202.651016 
L 193.158347 202.467945 
L 193.475702 202.072837 
L 194.110413 201.716968 
L 195.062479 201.430814 
L 195.379835 201.406688 
L 196.014545 201.141885 
L 196.331901 201.119129 
L 196.966612 200.310636 
L 197.283967 200.301654 
L 197.601322 199.774792 
L 197.918678 199.56138 
L 198.553388 199.432319 
L 198.870744 198.989273 
L 199.505455 198.718551 
L 199.82281 198.645879 
L 200.140165 198.280208 
L 200.457521 198.267069 
L 201.092231 197.78932 
L 201.409587 197.762951 
L 202.361653 197.354129 
L 203.94843 196.717298 
L 204.58314 196.08605 
L 205.217851 195.795391 
L 205.535207 195.77425 
L 205.852562 195.561075 
L 206.169917 195.555217 
L 206.487273 195.320454 
L 206.804628 195.264825 
L 208.07405 194.437081 
L 209.026116 194.199879 
L 209.660826 193.597957 
L 209.978182 193.578962 
L 210.295537 193.426742 
L 210.930248 193.387072 
L 212.199669 192.698523 
L 212.517025 192.332197 
L 213.151736 192.167131 
L 214.738512 191.921441 
L 215.055868 191.750181 
L 215.373223 191.727616 
L 216.642645 191.089159 
L 218.229421 190.801575 
L 218.546777 190.254897 
L 219.181488 190.199176 
L 221.402975 189.683007 
L 221.720331 189.487322 
L 222.355041 189.38904 
L 223.624463 188.869584 
L 223.941818 188.610285 
L 224.259174 187.981015 
L 224.576529 187.763857 
L 225.528595 187.562768 
L 225.84595 187.41888 
L 226.480661 187.306538 
L 226.798017 186.915317 
L 228.384793 186.426962 
L 229.33686 186.193253 
L 229.654215 185.943004 
L 230.606281 185.585236 
L 230.923636 185.308284 
L 231.875702 185.072885 
L 232.827769 184.884546 
L 233.145124 184.566551 
L 233.462479 184.409964 
L 233.779835 184.394472 
L 234.09719 184.234725 
L 235.049256 184.180536 
L 235.366612 184.072012 
L 236.001322 183.484903 
L 236.318678 183.455193 
L 236.636033 183.067609 
L 238.22281 182.596257 
L 238.540165 182.419097 
L 239.174876 182.317835 
L 239.492231 181.97164 
L 240.761653 181.506621 
L 241.079008 181.237813 
L 241.713719 181.110549 
L 242.34843 181.028672 
L 242.98314 180.744292 
L 243.300496 180.693186 
L 243.935207 180.244341 
L 244.252562 180.110132 
L 244.569917 179.73498 
L 244.887273 179.658631 
L 245.521983 179.331126 
L 247.10876 179.077234 
L 248.060826 178.720864 
L 249.964959 178.225253 
L 251.23438 177.664732 
L 251.551736 177.664227 
L 251.869091 177.430081 
L 252.821157 177.358065 
L 254.725289 176.605467 
L 255.042645 176.211227 
L 255.36 176.207722 
L 255.677355 176.074093 
L 256.312066 175.615544 
L 256.946777 175.551488 
L 257.264132 175.294786 
L 257.581488 175.191856 
L 258.216198 174.862393 
L 258.533554 174.342896 
L 259.168264 174.228567 
L 260.120331 174.161536 
L 261.389752 173.830687 
L 262.024463 173.813463 
L 262.659174 173.472693 
L 263.293884 173.39327 
L 264.24595 173.24136 
L 264.563306 173.208419 
L 264.880661 172.954072 
L 265.515372 172.760792 
L 266.467438 172.281163 
L 267.102149 172.155517 
L 267.419504 171.86756 
L 267.73686 171.359556 
L 268.054215 171.133557 
L 268.37157 171.071249 
L 269.323636 170.597131 
L 269.958347 170.505171 
L 270.275702 170.273514 
L 273.449256 169.579659 
L 274.083967 169.328823 
L 275.036033 169.104918 
L 275.353388 168.601702 
L 276.62281 168.198177 
L 278.209587 167.854354 
L 278.844298 167.332358 
L 279.161653 166.826175 
L 279.479008 166.744838 
L 280.113719 166.228515 
L 282.335207 165.963166 
L 282.652562 165.72188 
L 283.287273 165.643048 
L 283.921983 165.401176 
L 285.191405 165.252126 
L 286.778182 164.773996 
L 287.730248 164.235045 
L 288.364959 164.211655 
L 288.682314 164.025471 
L 288.999669 163.249477 
L 289.63438 162.99304 
L 290.269091 162.867857 
L 290.586446 162.31879 
L 292.173223 161.870027 
L 292.807934 161.702159 
L 293.76 161.660373 
L 294.077355 161.430401 
L 295.981488 160.973443 
L 296.298843 160.752544 
L 297.250909 160.665116 
L 298.202975 159.922555 
L 298.837686 159.806137 
L 299.155041 159.468772 
L 299.789752 159.416131 
L 301.376529 158.184168 
L 301.693884 158.138119 
L 302.01124 157.970663 
L 302.328595 157.937603 
L 302.963306 157.6204 
L 303.598017 157.552784 
L 303.915372 157.330475 
L 304.550083 157.19959 
L 304.867438 156.949347 
L 305.502149 156.796558 
L 306.77157 156.668642 
L 307.088926 156.44974 
L 307.723636 156.30223 
L 308.358347 155.845541 
L 308.675702 155.791506 
L 308.993058 155.540084 
L 309.310413 155.498747 
L 309.945124 154.825995 
L 310.262479 154.814004 
L 310.579835 154.522074 
L 310.89719 154.481699 
L 311.214545 154.15111 
L 312.166612 154.060107 
L 314.070744 153.380718 
L 314.388099 153.128959 
L 315.340165 153.012897 
L 315.657521 152.897209 
L 315.974876 152.367942 
L 316.292231 152.347672 
L 316.609587 152.07003 
L 316.926942 151.964657 
L 317.561653 151.2227 
L 317.879008 151.165784 
L 318.196364 150.86865 
L 318.513719 150.824085 
L 319.465785 149.964471 
L 319.78314 149.729 
L 322.321983 149.153436 
L 322.639339 148.989725 
L 322.956694 148.985763 
L 323.591405 148.852326 
L 324.226116 148.767565 
L 324.543471 148.099298 
L 325.495537 147.546015 
L 325.812893 147.327088 
L 326.447603 146.672991 
L 327.082314 146.328049 
L 327.717025 146.203773 
L 329.938512 145.329734 
L 330.573223 144.91566 
L 331.842645 144.66751 
L 332.16 144.451116 
L 332.477355 144.430199 
L 332.794711 144.008275 
L 333.112066 143.904444 
L 333.429421 143.373092 
L 333.746777 143.260973 
L 334.064132 142.602106 
L 335.016198 142.320923 
L 335.333554 141.917952 
L 335.650909 141.776677 
L 335.968264 141.211204 
L 336.28562 140.911939 
L 338.824463 140.081149 
L 339.141818 139.324032 
L 339.459174 139.270635 
L 340.093884 138.858368 
L 340.728595 138.711012 
L 341.04595 138.380086 
L 341.363306 138.328753 
L 341.998017 137.637193 
L 342.632727 136.735682 
L 342.950083 136.51192 
L 343.267438 136.494548 
L 344.53686 135.426482 
L 344.854215 134.776722 
L 345.17157 134.696515 
L 345.488926 133.536074 
L 345.806281 133.472847 
L 346.123636 133.17603 
L 346.440992 132.50261 
L 346.758347 132.494276 
L 348.979835 131.512552 
L 349.29719 130.918691 
L 349.614545 130.881895 
L 349.931901 130.68462 
L 351.201322 128.694624 
L 351.518678 128.527895 
L 351.836033 128.153324 
L 352.788099 127.449511 
L 353.105455 126.510712 
L 353.42281 126.466304 
L 354.057521 124.763185 
L 354.692231 124.1125 
L 355.009587 123.794818 
L 355.961653 123.506493 
L 356.279008 122.042209 
L 356.596364 121.626358 
L 356.913719 121.560241 
L 357.231074 120.082863 
L 358.18314 119.14855 
L 358.500496 117.695355 
L 358.817851 117.437249 
L 359.135207 116.070701 
L 359.769917 114.790068 
L 360.087273 114.706883 
L 360.404628 114.491975 
L 360.721983 113.520074 
L 361.039339 113.114692 
L 361.356694 113.014974 
L 361.67405 112.432939 
L 361.991405 112.412254 
L 362.30876 112.202175 
L 362.626116 111.653016 
L 362.943471 110.716823 
L 363.578182 110.506745 
L 363.895537 109.161592 
L 364.212893 109.002459 
L 364.847603 106.668359 
L 365.482314 106.204373 
L 365.799669 106.147516 
L 366.117025 105.937439 
L 366.43438 105.331687 
L 366.751736 105.220122 
L 367.069091 104.584774 
L 367.386446 103.267145 
L 367.703802 103.067387 
L 368.021157 102.484071 
L 368.655868 102.273992 
L 368.973223 101.273615 
L 369.290579 100.973011 
L 369.925289 99.503646 
L 370.242645 99.310554 
L 370.56 97.801733 
L 370.877355 97.615111 
L 371.194711 97.591654 
L 371.512066 93.91581 
L 371.829421 93.312752 
L 372.781488 93.000384 
L 373.098843 92.220368 
L 373.416198 89.838429 
L 373.733554 89.382361 
L 374.050909 89.296678 
L 374.368264 87.918008 
L 374.68562 87.651047 
L 375.002975 87.564484 
L 375.320331 85.907293 
L 375.637686 85.697215 
L 376.272397 85.479752 
L 376.589752 85.350172 
L 377.541818 84.382534 
L 377.859174 83.987617 
L 378.176529 83.205808 
L 378.493884 82.009883 
L 379.128595 81.694761 
L 379.44595 80.108757 
L 379.763306 79.305289 
L 380.080661 77.996169 
L 380.398017 77.992364 
L 380.715372 77.586658 
L 381.667438 77.314416 
L 381.984793 76.637127 
L 382.302149 76.296934 
L 382.619504 74.714014 
L 382.93686 74.635191 
L 383.254215 74.336953 
L 383.57157 73.158502 
L 383.888926 72.805591 
L 384.523636 72.641522 
L 384.840992 71.99456 
L 385.158347 71.727633 
L 386.745124 68.339149 
L 387.062479 68.072219 
L 387.379835 68.064182 
L 387.69719 67.457805 
L 388.014545 67.410848 
L 388.331901 67.062154 
L 389.283967 64.484924 
L 389.918678 64.232551 
L 390.236033 63.996855 
L 390.553388 63.951028 
L 390.870744 63.637376 
L 392.140165 63.315086 
L 392.457521 59.726427 
L 392.774876 59.704352 
L 394.361653 58.790577 
L 394.679008 58.008911 
L 394.996364 57.652924 
L 395.313719 57.60764 
L 395.631074 57.322543 
L 395.94843 55.404626 
L 397.217851 55.135163 
L 397.535207 55.027592 
L 397.852562 53.802108 
L 398.487273 53.568 
L 398.487273 53.568 
" clip-path="url(#pb86483adc5)" style="fill: none; stroke: #1f77b4; stroke-width: 1.5; stroke-linecap: square"/>
   </g>
   <g id="line2d_17">
    <path d="M 73.832727 206.039851 
L 74.150083 202.363253 
L 74.467438 202.363253 
L 74.784793 199.220512 
L 75.102149 198.56772 
L 75.73686 198.56772 
L 76.054215 197.391832 
L 76.37157 195.406772 
L 76.688926 195.284983 
L 77.006281 195.284983 
L 77.323636 194.977829 
L 78.910413 194.977829 
L 79.227769 193.85794 
L 79.545124 193.85794 
L 80.179835 193.202084 
L 80.49719 193.202084 
L 80.814545 191.963729 
L 81.131901 191.380825 
L 82.083967 191.370802 
L 82.401322 191.025814 
L 86.844298 191.006227 
L 87.161653 190.817329 
L 87.479008 189.919983 
L 88.431074 189.410961 
L 89.700496 189.410961 
L 90.017851 189.014041 
L 90.652562 189.014041 
L 90.969917 188.552958 
L 91.287273 188.552958 
L 91.604628 188.312771 
L 91.921983 187.694971 
L 99.221157 187.694971 
L 99.538512 187.326845 
L 101.76 187.239767 
L 102.077355 186.858194 
L 103.981488 186.772125 
L 104.298843 186.623345 
L 104.933554 186.623345 
L 105.250909 186.100069 
L 106.202975 186.073698 
L 106.520331 184.89275 
L 108.741818 184.504127 
L 109.376529 184.504127 
L 109.693884 183.907312 
L 110.01124 183.907312 
L 110.328595 183.24802 
L 129.369917 183.247992 
L 130.004628 182.657356 
L 130.321983 182.520974 
L 131.27405 182.498509 
L 131.591405 182.192025 
L 132.860826 182.122004 
L 133.178182 181.532002 
L 133.495537 181.532002 
L 133.812893 181.408456 
L 135.399669 181.408456 
L 135.717025 180.905313 
L 136.986446 180.695225 
L 163.009587 180.695225 
L 163.326942 180.173028 
L 167.769917 180.077594 
L 168.087273 179.431307 
L 168.404628 179.431307 
L 168.721983 179.258801 
L 169.356694 179.258801 
L 169.67405 179.14748 
L 169.991405 178.880847 
L 171.895537 178.800098 
L 172.530248 178.692852 
L 173.164959 178.613096 
L 180.146777 178.613096 
L 180.464132 178.475815 
L 180.781488 178.475815 
L 181.098843 178.341158 
L 182.68562 178.341158 
L 183.320331 177.085023 
L 186.493884 177.000868 
L 186.81124 176.890632 
L 187.128595 176.614386 
L 187.44595 176.614386 
L 187.763306 176.427288 
L 188.080661 176.427288 
L 188.398017 175.646202 
L 188.715372 174.532256 
L 283.604628 174.532256 
L 284.239339 172.637225 
L 284.556694 172.637225 
L 284.87405 172.450127 
L 285.191405 172.450127 
L 285.50876 172.173881 
L 286.143471 172.063644 
L 288.999669 171.979489 
L 289.63438 170.723355 
L 291.221157 170.723355 
L 291.538512 170.588698 
L 291.855868 170.588698 
L 292.173223 170.451417 
L 300.107107 170.371661 
L 300.741818 170.183665 
L 302.328595 170.183665 
L 302.64595 169.917032 
L 303.280661 169.805711 
L 303.598017 169.805711 
L 303.915372 169.633205 
L 304.232727 169.633205 
L 304.550083 168.986919 
L 308.993058 168.891485 
L 309.310413 168.369287 
L 335.968264 168.340645 
L 336.602975 168.159199 
L 336.920331 167.656057 
L 338.507107 167.656057 
L 338.824463 167.532511 
L 339.141818 167.532511 
L 339.459174 166.942509 
L 340.728595 166.872488 
L 341.04595 166.566004 
L 342.315372 166.407157 
L 342.632727 166.191174 
L 342.950083 165.81652 
L 361.991405 165.816493 
L 362.30876 165.1572 
L 362.626116 165.1572 
L 362.943471 164.560386 
L 364.530248 164.560386 
L 364.847603 164.288448 
L 365.482314 164.241554 
L 365.799669 164.171762 
L 366.117025 162.990815 
L 367.069091 162.964443 
L 367.386446 162.441168 
L 368.021157 162.441168 
L 368.655868 162.206318 
L 370.242645 162.206318 
L 370.56 161.824746 
L 372.781488 161.737668 
L 373.098843 161.369542 
L 380.398017 161.369542 
L 380.715372 160.751742 
L 381.032727 160.511554 
L 381.350083 160.511554 
L 381.667438 160.050472 
L 382.302149 160.050472 
L 382.619504 159.653551 
L 384.206281 159.653551 
L 384.840992 159.14453 
L 385.158347 158.247184 
L 385.475702 158.058286 
L 389.918678 158.038699 
L 390.236033 157.69371 
L 391.188099 157.683688 
L 391.505455 157.100784 
L 391.82281 155.862429 
L 392.140165 155.862429 
L 392.457521 155.611969 
L 392.774876 155.206573 
L 393.092231 155.206573 
L 393.409587 154.086684 
L 394.996364 154.086684 
L 395.313719 153.77953 
L 395.631074 153.77953 
L 395.94843 153.657741 
L 396.265785 151.67268 
L 396.58314 150.496793 
L 397.217851 150.496793 
L 397.535207 149.844001 
L 397.852562 146.701259 
L 398.169917 146.701259 
L 398.487273 143.024662 
L 398.487273 143.024662 
" clip-path="url(#pb86483adc5)" style="fill: none; stroke: #ff7f0e; stroke-width: 1.5; stroke-linecap: square"/>
   </g>
   <g id="patch_3">
    <path d="M 57.6 307.584 
L 57.6 41.472 
" style="fill: none; stroke: #000000; stroke-width: 0.8; stroke-linejoin: miter; stroke-linecap: square"/>
   </g>
   <g id="patch_4">
    <path d="M 414.72 307.584 
L 414.72 41.472 
" style="fill: none; stroke: #000000; stroke-width: 0.8; stroke-linejoin: miter; stroke-linecap: square"/>
   </g>
   <g id="patch_5">
    <path d="M 57.6 307.584 
L 414.72 307.584 
" style="fill: none; stroke: #000000; stroke-width: 0.8; stroke-linejoin: miter; stroke-linecap: square"/>
   </g>
   <g id="patch_6">
    <path d="M 57.6 41.472 
L 414.72 41.472 
" style="fill: none; stroke: #000000; stroke-width: 0.8; stroke-linejoin: miter; stroke-linecap: square"/>
   </g>
   <g id="legend_1">
    <g id="patch_7">
     <path d="M 64.6 78.82825 
L 129.342187 78.82825 
Q 131.342187 78.82825 131.342187 76.82825 
L 131.342187 48.472 
Q 131.342187 46.472 129.342187 46.472 
L 64.6 46.472 
Q 62.6 46.472 62.6 48.472 
L 62.6 76.82825 
Q 62.6 78.82825 64.6 78.82825 
z
" style="fill: #ffffff; opacity: 0.8; stroke: #cccccc; stroke-linejoin: miter"/>
    </g>
    <g id="line2d_18">
     <path d="M 66.6 54.570437 
L 76.6 54.570437 
L 86.6 54.570437 
" style="fill: none; stroke: #1f77b4; stroke-width: 1.5; stroke-linecap: square"/>
    </g>
    <g id="text_18">
     <!-- qc -->
     <g transform="translate(94.6 58.070437) scale(0.1 -0.1)">
      <defs>
       <path id="DejaVuSans-71" d="M 947 1747 
Q 947 1113 1208 752 
Q 1469 391 1925 391 
Q 2381 391 2643 752 
Q 2906 1113 2906 1747 
Q 2906 2381 2643 2742 
Q 2381 3103 1925 3103 
Q 1469 3103 1208 2742 
Q 947 2381 947 1747 
z
M 2906 525 
Q 2725 213 2448 61 
Q 2172 -91 1784 -91 
Q 1150 -91 751 415 
Q 353 922 353 1747 
Q 353 2572 751 3078 
Q 1150 3584 1784 3584 
Q 2172 3584 2448 3432 
Q 2725 3281 2906 2969 
L 2906 3500 
L 3481 3500 
L 3481 -1331 
L 2906 -1331 
L 2906 525 
z
" transform="scale(0.015625)"/>
       <path id="DejaVuSans-63" d="M 3122 3366 
L 3122 2828 
Q 2878 2963 2633 3030 
Q 2388 3097 2138 3097 
Q 1578 3097 1268 2742 
Q 959 2388 959 1747 
Q 959 1106 1268 751 
Q 1578 397 2138 397 
Q 2388 397 2633 464 
Q 2878 531 3122 666 
L 3122 134 
Q 2881 22 2623 -34 
Q 2366 -91 2075 -91 
Q 1284 -91 818 406 
Q 353 903 353 1747 
Q 353 2603 823 3093 
Q 1294 3584 2113 3584 
Q 2378 3584 2631 3529 
Q 2884 3475 3122 3366 
z
" transform="scale(0.015625)"/>
      </defs>
      <use xlink:href="#DejaVuSans-71"/>
      <use xlink:href="#DejaVuSans-63" x="63.476562"/>
     </g>
    </g>
    <g id="line2d_19">
     <path d="M 66.6 69.248562 
L 76.6 69.248562 
L 86.6 69.248562 
" style="fill: none; stroke: #ff7f0e; stroke-width: 1.5; stroke-linecap: square"/>
    </g>
    <g id="text_19">
     <!-- Trotter -->
     <g transform="translate(94.6 72.748562) scale(0.1 -0.1)">
      <defs>
       <path id="DejaVuSans-54" d="M -19 4666 
L 3928 4666 
L 3928 4134 
L 2272 4134 
L 2272 0 
L 1638 0 
L 1638 4134 
L -19 4134 
L -19 4666 
z
" transform="scale(0.015625)"/>
       <path id="DejaVuSans-72" d="M 2631 2963 
Q 2534 3019 2420 3045 
Q 2306 3072 2169 3072 
Q 1681 3072 1420 2755 
Q 1159 2438 1159 1844 
L 1159 0 
L 581 0 
L 581 3500 
L 1159 3500 
L 1159 2956 
Q 1341 3275 1631 3429 
Q 1922 3584 2338 3584 
Q 2397 3584 2469 3576 
Q 2541 3569 2628 3553 
L 2631 2963 
z
" transform="scale(0.015625)"/>
       <path id="DejaVuSans-6f" d="M 1959 3097 
Q 1497 3097 1228 2736 
Q 959 2375 959 1747 
Q 959 1119 1226 758 
Q 1494 397 1959 397 
Q 2419 397 2687 759 
Q 2956 1122 2956 1747 
Q 2956 2369 2687 2733 
Q 2419 3097 1959 3097 
z
M 1959 3584 
Q 2709 3584 3137 3096 
Q 3566 2609 3566 1747 
Q 3566 888 3137 398 
Q 2709 -91 1959 -91 
Q 1206 -91 779 398 
Q 353 888 353 1747 
Q 353 2609 779 3096 
Q 1206 3584 1959 3584 
z
" transform="scale(0.015625)"/>
       <path id="DejaVuSans-65" d="M 3597 1894 
L 3597 1613 
L 953 1613 
Q 991 1019 1311 708 
Q 1631 397 2203 397 
Q 2534 397 2845 478 
Q 3156 559 3463 722 
L 3463 178 
Q 3153 47 2828 -22 
Q 2503 -91 2169 -91 
Q 1331 -91 842 396 
Q 353 884 353 1716 
Q 353 2575 817 3079 
Q 1281 3584 2069 3584 
Q 2775 3584 3186 3129 
Q 3597 2675 3597 1894 
z
M 3022 2063 
Q 3016 2534 2758 2815 
Q 2500 3097 2075 3097 
Q 1594 3097 1305 2825 
Q 1016 2553 972 2059 
L 3022 2063 
z
" transform="scale(0.015625)"/>
      </defs>
      <use xlink:href="#DejaVuSans-54"/>
      <use xlink:href="#DejaVuSans-72" x="46.333984"/>
      <use xlink:href="#DejaVuSans-6f" x="85.197266"/>
      <use xlink:href="#DejaVuSans-74" x="146.378906"/>
      <use xlink:href="#DejaVuSans-74" x="185.587891"/>
      <use xlink:href="#DejaVuSans-65" x="224.796875"/>
      <use xlink:href="#DejaVuSans-72" x="286.320312"/>
     </g>
    </g>
   </g>
  </g>
 </g>
 <defs>
  <clipPath id="pb86483adc5">
   <rect x="57.6" y="41.472" width="357.12" height="266.112"/>
  </clipPath>
 </defs>
</svg>
