<?xml version="1.0" encoding="utf-8" standalone="no"?>
<!DOCTYPE svg PUBLIC "-//W3C//DTD SVG 1.1//EN"
  "http://www.w3.org/Graphics/SVG/1.1/DTD/svg11.dtd">
<svg xmlns:xlink="http://www.w3.org/1999/xlink" width="460.8pt" height="345.6pt" viewBox="0 0 460.8 345.6" xmlns="http://www.w3.org/2000/svg" version="1.1">
 <metadata>
  <rdf:RDF xmlns:dc="http://purl.org/dc/elements/1.1/" xmlns:cc="http://creativecommons.org/ns#" xmlns:rdf="http://www.w3.org/1999/02/22-rdf-syntax-ns#">
   <cc:Work>
    <dc:type rdf:resource="http://purl.org/dc/dcmitype/StillImage"/>
    <dc:date>2024-08-15T23:57:07.809151</dc:date>
    <dc:format>image/svg+xml</dc:format>
    <dc:creator>
     <cc:Agent>
      <dc:title>Matplotlib v3.7.1, https://matplotlib.org/</dc:title>
     </cc:Agent>
    </dc:creator>
   </cc:Work>
  </rdf:RDF>
 </metadata>
 <defs>
  <style type="text/css">*{stroke-linejoin: round; stroke-linecap: butt}</style>
 </defs>
 <g id="figure_1">
  <g id="patch_1">
   <path d="M 0 345.6 
L 460.8 345.6 
L 460.8 0 
L 0 0 
z
" style="fill: #ffffff"/>
  </g>
  <g id="axes_1">
   <g id="patch_2">
    <path d="M 57.6 307.584 
L 414.72 307.584 
L 414.72 41.472 
L 57.6 41.472 
z
" style="fill: #ffffff"/>
   </g>
   <g id="matplotlib.axis_1">
    <g id="xtick_1">
     <g id="line2d_1">
      <defs>
       <path id="ma92351e8c3" d="M 0 0 
L 0 3.5 
" style="stroke: #000000; stroke-width: 0.8"/>
      </defs>
      <g>
       <use xlink:href="#ma92351e8c3" x="73.832727" y="307.584" style="stroke: #000000; stroke-width: 0.8"/>
      </g>
     </g>
     <g id="text_1">
      <!-- 0 -->
      <g transform="translate(70.651477 322.182437) scale(0.1 -0.1)">
       <defs>
        <path id="DejaVuSans-30" d="M 2034 4250 
Q 1547 4250 1301 3770 
Q 1056 3291 1056 2328 
Q 1056 1369 1301 889 
Q 1547 409 2034 409 
Q 2525 409 2770 889 
Q 3016 1369 3016 2328 
Q 3016 3291 2770 3770 
Q 2525 4250 2034 4250 
z
M 2034 4750 
Q 2819 4750 3233 4129 
Q 3647 3509 3647 2328 
Q 3647 1150 3233 529 
Q 2819 -91 2034 -91 
Q 1250 -91 836 529 
Q 422 1150 422 2328 
Q 422 3509 836 4129 
Q 1250 4750 2034 4750 
z
" transform="scale(0.015625)"/>
       </defs>
       <use xlink:href="#DejaVuSans-30"/>
      </g>
     </g>
    </g>
    <g id="xtick_2">
     <g id="line2d_2">
      <g>
       <use xlink:href="#ma92351e8c3" x="137.303802" y="307.584" style="stroke: #000000; stroke-width: 0.8"/>
      </g>
     </g>
     <g id="text_2">
      <!-- 200 -->
      <g transform="translate(127.760052 322.182437) scale(0.1 -0.1)">
       <defs>
        <path id="DejaVuSans-32" d="M 1228 531 
L 3431 531 
L 3431 0 
L 469 0 
L 469 531 
Q 828 903 1448 1529 
Q 2069 2156 2228 2338 
Q 2531 2678 2651 2914 
Q 2772 3150 2772 3378 
Q 2772 3750 2511 3984 
Q 2250 4219 1831 4219 
Q 1534 4219 1204 4116 
Q 875 4013 500 3803 
L 500 4441 
Q 881 4594 1212 4672 
Q 1544 4750 1819 4750 
Q 2544 4750 2975 4387 
Q 3406 4025 3406 3419 
Q 3406 3131 3298 2873 
Q 3191 2616 2906 2266 
Q 2828 2175 2409 1742 
Q 1991 1309 1228 531 
z
" transform="scale(0.015625)"/>
       </defs>
       <use xlink:href="#DejaVuSans-32"/>
       <use xlink:href="#DejaVuSans-30" x="63.623047"/>
       <use xlink:href="#DejaVuSans-30" x="127.246094"/>
      </g>
     </g>
    </g>
    <g id="xtick_3">
     <g id="line2d_3">
      <g>
       <use xlink:href="#ma92351e8c3" x="200.774876" y="307.584" style="stroke: #000000; stroke-width: 0.8"/>
      </g>
     </g>
     <g id="text_3">
      <!-- 400 -->
      <g transform="translate(191.231126 322.182437) scale(0.1 -0.1)">
       <defs>
        <path id="DejaVuSans-34" d="M 2419 4116 
L 825 1625 
L 2419 1625 
L 2419 4116 
z
M 2253 4666 
L 3047 4666 
L 3047 1625 
L 3713 1625 
L 3713 1100 
L 3047 1100 
L 3047 0 
L 2419 0 
L 2419 1100 
L 313 1100 
L 313 1709 
L 2253 4666 
z
" transform="scale(0.015625)"/>
       </defs>
       <use xlink:href="#DejaVuSans-34"/>
       <use xlink:href="#DejaVuSans-30" x="63.623047"/>
       <use xlink:href="#DejaVuSans-30" x="127.246094"/>
      </g>
     </g>
    </g>
    <g id="xtick_4">
     <g id="line2d_4">
      <g>
       <use xlink:href="#ma92351e8c3" x="264.24595" y="307.584" style="stroke: #000000; stroke-width: 0.8"/>
      </g>
     </g>
     <g id="text_4">
      <!-- 600 -->
      <g transform="translate(254.7022 322.182437) scale(0.1 -0.1)">
       <defs>
        <path id="DejaVuSans-36" d="M 2113 2584 
Q 1688 2584 1439 2293 
Q 1191 2003 1191 1497 
Q 1191 994 1439 701 
Q 1688 409 2113 409 
Q 2538 409 2786 701 
Q 3034 994 3034 1497 
Q 3034 2003 2786 2293 
Q 2538 2584 2113 2584 
z
M 3366 4563 
L 3366 3988 
Q 3128 4100 2886 4159 
Q 2644 4219 2406 4219 
Q 1781 4219 1451 3797 
Q 1122 3375 1075 2522 
Q 1259 2794 1537 2939 
Q 1816 3084 2150 3084 
Q 2853 3084 3261 2657 
Q 3669 2231 3669 1497 
Q 3669 778 3244 343 
Q 2819 -91 2113 -91 
Q 1303 -91 875 529 
Q 447 1150 447 2328 
Q 447 3434 972 4092 
Q 1497 4750 2381 4750 
Q 2619 4750 2861 4703 
Q 3103 4656 3366 4563 
z
" transform="scale(0.015625)"/>
       </defs>
       <use xlink:href="#DejaVuSans-36"/>
       <use xlink:href="#DejaVuSans-30" x="63.623047"/>
       <use xlink:href="#DejaVuSans-30" x="127.246094"/>
      </g>
     </g>
    </g>
    <g id="xtick_5">
     <g id="line2d_5">
      <g>
       <use xlink:href="#ma92351e8c3" x="327.717025" y="307.584" style="stroke: #000000; stroke-width: 0.8"/>
      </g>
     </g>
     <g id="text_5">
      <!-- 800 -->
      <g transform="translate(318.173275 322.182437) scale(0.1 -0.1)">
       <defs>
        <path id="DejaVuSans-38" d="M 2034 2216 
Q 1584 2216 1326 1975 
Q 1069 1734 1069 1313 
Q 1069 891 1326 650 
Q 1584 409 2034 409 
Q 2484 409 2743 651 
Q 3003 894 3003 1313 
Q 3003 1734 2745 1975 
Q 2488 2216 2034 2216 
z
M 1403 2484 
Q 997 2584 770 2862 
Q 544 3141 544 3541 
Q 544 4100 942 4425 
Q 1341 4750 2034 4750 
Q 2731 4750 3128 4425 
Q 3525 4100 3525 3541 
Q 3525 3141 3298 2862 
Q 3072 2584 2669 2484 
Q 3125 2378 3379 2068 
Q 3634 1759 3634 1313 
Q 3634 634 3220 271 
Q 2806 -91 2034 -91 
Q 1263 -91 848 271 
Q 434 634 434 1313 
Q 434 1759 690 2068 
Q 947 2378 1403 2484 
z
M 1172 3481 
Q 1172 3119 1398 2916 
Q 1625 2713 2034 2713 
Q 2441 2713 2670 2916 
Q 2900 3119 2900 3481 
Q 2900 3844 2670 4047 
Q 2441 4250 2034 4250 
Q 1625 4250 1398 4047 
Q 1172 3844 1172 3481 
z
" transform="scale(0.015625)"/>
       </defs>
       <use xlink:href="#DejaVuSans-38"/>
       <use xlink:href="#DejaVuSans-30" x="63.623047"/>
       <use xlink:href="#DejaVuSans-30" x="127.246094"/>
      </g>
     </g>
    </g>
    <g id="xtick_6">
     <g id="line2d_6">
      <g>
       <use xlink:href="#ma92351e8c3" x="391.188099" y="307.584" style="stroke: #000000; stroke-width: 0.8"/>
      </g>
     </g>
     <g id="text_6">
      <!-- 1000 -->
      <g transform="translate(378.463099 322.182437) scale(0.1 -0.1)">
       <defs>
        <path id="DejaVuSans-31" d="M 794 531 
L 1825 531 
L 1825 4091 
L 703 3866 
L 703 4441 
L 1819 4666 
L 2450 4666 
L 2450 531 
L 3481 531 
L 3481 0 
L 794 0 
L 794 531 
z
" transform="scale(0.015625)"/>
       </defs>
       <use xlink:href="#DejaVuSans-31"/>
       <use xlink:href="#DejaVuSans-30" x="63.623047"/>
       <use xlink:href="#DejaVuSans-30" x="127.246094"/>
       <use xlink:href="#DejaVuSans-30" x="190.869141"/>
      </g>
     </g>
    </g>
    <g id="text_7">
     <!-- n -->
     <g transform="translate(232.99125 335.860562) scale(0.1 -0.1)">
      <defs>
       <path id="DejaVuSans-6e" d="M 3513 2113 
L 3513 0 
L 2938 0 
L 2938 2094 
Q 2938 2591 2744 2837 
Q 2550 3084 2163 3084 
Q 1697 3084 1428 2787 
Q 1159 2491 1159 1978 
L 1159 0 
L 581 0 
L 581 3500 
L 1159 3500 
L 1159 2956 
Q 1366 3272 1645 3428 
Q 1925 3584 2291 3584 
Q 2894 3584 3203 3211 
Q 3513 2838 3513 2113 
z
" transform="scale(0.015625)"/>
      </defs>
      <use xlink:href="#DejaVuSans-6e"/>
     </g>
    </g>
   </g>
   <g id="matplotlib.axis_2">
    <g id="ytick_1">
     <g id="line2d_7">
      <defs>
       <path id="m84e92bf083" d="M 0 0 
L -3.5 0 
" style="stroke: #000000; stroke-width: 0.8"/>
      </defs>
      <g>
       <use xlink:href="#m84e92bf083" x="57.6" y="303.911913" style="stroke: #000000; stroke-width: 0.8"/>
      </g>
     </g>
     <g id="text_8">
      <!-- −3 -->
      <g transform="translate(35.857813 307.711132) scale(0.1 -0.1)">
       <defs>
        <path id="DejaVuSans-2212" d="M 678 2272 
L 4684 2272 
L 4684 1741 
L 678 1741 
L 678 2272 
z
" transform="scale(0.015625)"/>
        <path id="DejaVuSans-33" d="M 2597 2516 
Q 3050 2419 3304 2112 
Q 3559 1806 3559 1356 
Q 3559 666 3084 287 
Q 2609 -91 1734 -91 
Q 1441 -91 1130 -33 
Q 819 25 488 141 
L 488 750 
Q 750 597 1062 519 
Q 1375 441 1716 441 
Q 2309 441 2620 675 
Q 2931 909 2931 1356 
Q 2931 1769 2642 2001 
Q 2353 2234 1838 2234 
L 1294 2234 
L 1294 2753 
L 1863 2753 
Q 2328 2753 2575 2939 
Q 2822 3125 2822 3475 
Q 2822 3834 2567 4026 
Q 2313 4219 1838 4219 
Q 1578 4219 1281 4162 
Q 984 4106 628 3988 
L 628 4550 
Q 988 4650 1302 4700 
Q 1616 4750 1894 4750 
Q 2613 4750 3031 4423 
Q 3450 4097 3450 3541 
Q 3450 3153 3228 2886 
Q 3006 2619 2597 2516 
z
" transform="scale(0.015625)"/>
       </defs>
       <use xlink:href="#DejaVuSans-2212"/>
       <use xlink:href="#DejaVuSans-33" x="83.789062"/>
      </g>
     </g>
    </g>
    <g id="ytick_2">
     <g id="line2d_8">
      <g>
       <use xlink:href="#m84e92bf083" x="57.6" y="259.319847" style="stroke: #000000; stroke-width: 0.8"/>
      </g>
     </g>
     <g id="text_9">
      <!-- −2 -->
      <g transform="translate(35.857813 263.119066) scale(0.1 -0.1)">
       <use xlink:href="#DejaVuSans-2212"/>
       <use xlink:href="#DejaVuSans-32" x="83.789062"/>
      </g>
     </g>
    </g>
    <g id="ytick_3">
     <g id="line2d_9">
      <g>
       <use xlink:href="#m84e92bf083" x="57.6" y="214.727781" style="stroke: #000000; stroke-width: 0.8"/>
      </g>
     </g>
     <g id="text_10">
      <!-- −1 -->
      <g transform="translate(35.857813 218.526999) scale(0.1 -0.1)">
       <use xlink:href="#DejaVuSans-2212"/>
       <use xlink:href="#DejaVuSans-31" x="83.789062"/>
      </g>
     </g>
    </g>
    <g id="ytick_4">
     <g id="line2d_10">
      <g>
       <use xlink:href="#m84e92bf083" x="57.6" y="170.135714" style="stroke: #000000; stroke-width: 0.8"/>
      </g>
     </g>
     <g id="text_11">
      <!-- 0 -->
      <g transform="translate(44.2375 173.934933) scale(0.1 -0.1)">
       <use xlink:href="#DejaVuSans-30"/>
      </g>
     </g>
    </g>
    <g id="ytick_5">
     <g id="line2d_11">
      <g>
       <use xlink:href="#m84e92bf083" x="57.6" y="125.543648" style="stroke: #000000; stroke-width: 0.8"/>
      </g>
     </g>
     <g id="text_12">
      <!-- 1 -->
      <g transform="translate(44.2375 129.342867) scale(0.1 -0.1)">
       <use xlink:href="#DejaVuSans-31"/>
      </g>
     </g>
    </g>
    <g id="ytick_6">
     <g id="line2d_12">
      <g>
       <use xlink:href="#m84e92bf083" x="57.6" y="80.951582" style="stroke: #000000; stroke-width: 0.8"/>
      </g>
     </g>
     <g id="text_13">
      <!-- 2 -->
      <g transform="translate(44.2375 84.750801) scale(0.1 -0.1)">
       <use xlink:href="#DejaVuSans-32"/>
      </g>
     </g>
    </g>
    <g id="text_14">
     <!-- E*t -->
     <g transform="translate(29.778125 182.147531) rotate(-90) scale(0.1 -0.1)">
      <defs>
       <path id="DejaVuSans-45" d="M 628 4666 
L 3578 4666 
L 3578 4134 
L 1259 4134 
L 1259 2753 
L 3481 2753 
L 3481 2222 
L 1259 2222 
L 1259 531 
L 3634 531 
L 3634 0 
L 628 0 
L 628 4666 
z
" transform="scale(0.015625)"/>
       <path id="DejaVuSans-2a" d="M 3009 3897 
L 1888 3291 
L 3009 2681 
L 2828 2375 
L 1778 3009 
L 1778 1831 
L 1422 1831 
L 1422 3009 
L 372 2375 
L 191 2681 
L 1313 3291 
L 191 3897 
L 372 4206 
L 1422 3572 
L 1422 4750 
L 1778 4750 
L 1778 3572 
L 2828 4206 
L 3009 3897 
z
" transform="scale(0.015625)"/>
       <path id="DejaVuSans-74" d="M 1172 4494 
L 1172 3500 
L 2356 3500 
L 2356 3053 
L 1172 3053 
L 1172 1153 
Q 1172 725 1289 603 
Q 1406 481 1766 481 
L 2356 481 
L 2356 0 
L 1766 0 
Q 1100 0 847 248 
Q 594 497 594 1153 
L 594 3053 
L 172 3053 
L 172 3500 
L 594 3500 
L 594 4494 
L 1172 4494 
z
" transform="scale(0.015625)"/>
      </defs>
      <use xlink:href="#DejaVuSans-45"/>
      <use xlink:href="#DejaVuSans-2a" x="63.183594"/>
      <use xlink:href="#DejaVuSans-74" x="113.183594"/>
     </g>
    </g>
   </g>
   <g id="line2d_13">
    <path d="M 73.832727 295.488 
L 74.150083 282.46706 
L 74.467438 281.130424 
L 74.784793 277.445383 
L 75.102149 271.590407 
L 75.419504 269.392528 
L 76.054215 266.631401 
L 76.37157 264.337546 
L 76.688926 264.297181 
L 77.006281 263.169797 
L 77.323636 259.379324 
L 77.640992 258.460318 
L 77.958347 257.044942 
L 78.275702 256.267426 
L 78.593058 256.17187 
L 78.910413 254.946685 
L 79.227769 254.783358 
L 80.179835 251.210667 
L 80.49719 251.161624 
L 80.814545 250.427904 
L 81.449256 249.637548 
L 82.083967 248.03386 
L 82.401322 246.445068 
L 82.718678 246.168913 
L 83.036033 245.43765 
L 83.353388 245.303826 
L 83.670744 245.021602 
L 83.988099 243.905192 
L 84.305455 243.790348 
L 84.62281 243.096479 
L 84.940165 243.080808 
L 85.257521 242.437191 
L 85.574876 242.212138 
L 85.892231 241.771896 
L 86.526942 241.443453 
L 86.844298 240.728573 
L 87.161653 240.306498 
L 87.479008 239.574868 
L 88.113719 238.721242 
L 88.431074 238.065037 
L 88.74843 237.958747 
L 89.065785 237.263347 
L 89.38314 237.062759 
L 89.700496 236.716569 
L 90.017851 236.687915 
L 90.335207 236.49205 
L 90.652562 235.48502 
L 90.969917 234.994082 
L 91.604628 234.834832 
L 91.921983 234.536237 
L 92.556694 233.387247 
L 93.191405 232.924276 
L 93.50876 232.30185 
L 93.826116 232.121613 
L 94.143471 231.80622 
L 94.460826 231.193429 
L 94.778182 231.186717 
L 95.412893 230.789827 
L 96.047603 230.486942 
L 96.364959 229.945357 
L 96.682314 229.870511 
L 97.317025 229.223552 
L 97.63438 229.099121 
L 97.951736 228.532449 
L 98.586446 228.319581 
L 98.903802 228.291753 
L 99.221157 227.710278 
L 99.855868 227.58984 
L 100.173223 227.413446 
L 100.807934 226.545235 
L 101.125289 226.508568 
L 101.442645 225.991066 
L 101.76 225.806583 
L 102.712066 224.722926 
L 103.029421 224.715281 
L 103.346777 224.049371 
L 103.981488 223.529755 
L 104.933554 223.291854 
L 105.250909 222.349294 
L 105.568264 222.293022 
L 106.202975 221.880465 
L 107.155041 221.541159 
L 107.789752 221.06676 
L 108.107107 220.774725 
L 108.424463 220.757783 
L 109.693884 219.915365 
L 110.01124 219.858168 
L 110.328595 219.667705 
L 110.64595 218.982872 
L 110.963306 218.90248 
L 111.280661 218.618979 
L 111.598017 218.565212 
L 111.915372 218.187957 
L 112.867438 218.097583 
L 113.184793 217.711925 
L 113.502149 217.653163 
L 114.13686 217.334684 
L 114.454215 216.75707 
L 114.77157 216.607283 
L 115.088926 216.597818 
L 116.040992 215.975968 
L 116.358347 215.906097 
L 116.675702 215.241825 
L 117.627769 215.086907 
L 117.945124 214.701133 
L 118.579835 214.558643 
L 119.214545 214.373189 
L 119.849256 214.252216 
L 120.801322 213.728136 
L 121.118678 213.712056 
L 121.436033 213.382966 
L 122.070744 213.327644 
L 122.388099 212.729697 
L 123.340165 212.449819 
L 124.292231 211.509381 
L 125.244298 211.378081 
L 125.561653 210.988512 
L 128.100496 210.019119 
L 128.417851 209.15323 
L 129.052562 208.921238 
L 130.004628 208.644892 
L 130.639339 208.195329 
L 131.90876 207.58151 
L 132.226116 207.556448 
L 134.447603 206.401912 
L 135.082314 205.84184 
L 136.986446 205.055107 
L 137.621157 204.996323 
L 137.938512 204.806102 
L 139.525289 204.5827 
L 140.16 204.321522 
L 140.794711 204.047842 
L 141.112066 203.523756 
L 143.016198 203.071814 
L 143.650909 202.727544 
L 143.968264 202.594479 
L 144.28562 201.979889 
L 145.555041 201.72111 
L 146.189752 201.377869 
L 146.824463 201.307247 
L 147.459174 201.079822 
L 148.728595 200.795772 
L 150.315372 200.15471 
L 151.267438 199.773099 
L 151.584793 199.481381 
L 152.219504 199.36153 
L 152.854215 198.686486 
L 153.17157 198.665944 
L 154.440992 198.195193 
L 156.027769 197.722079 
L 156.979835 197.214005 
L 157.931901 197.066183 
L 158.883967 196.706409 
L 159.201322 196.257384 
L 159.518678 196.035402 
L 160.470744 195.93041 
L 161.105455 195.630226 
L 162.374876 195.427668 
L 163.009587 195.036063 
L 163.961653 194.701002 
L 164.913719 194.524465 
L 165.865785 194.054687 
L 166.18314 194.026376 
L 168.404628 192.803721 
L 168.721983 192.622232 
L 169.039339 192.595201 
L 170.30876 191.903798 
L 173.482314 191.255833 
L 173.799669 191.091306 
L 174.117025 191.080959 
L 175.069091 190.733947 
L 175.703802 190.631753 
L 176.021157 190.248699 
L 179.512066 189.207697 
L 180.781488 188.606525 
L 181.416198 188.42715 
L 181.733554 188.362981 
L 182.050909 188.110563 
L 183.320331 187.858642 
L 183.955041 187.734775 
L 184.589752 187.635185 
L 184.907107 187.357301 
L 185.859174 187.171014 
L 186.493884 186.971744 
L 187.44595 186.72551 
L 188.080661 186.411468 
L 189.032727 185.934431 
L 189.350083 185.741019 
L 189.984793 185.662946 
L 190.302149 185.460021 
L 191.254215 185.186859 
L 191.888926 185.005213 
L 196.649256 183.478212 
L 197.918678 182.880101 
L 200.140165 182.379857 
L 201.092231 181.711837 
L 202.361653 181.556094 
L 203.631074 181.234377 
L 204.265785 181.038314 
L 204.900496 180.88112 
L 205.852562 180.685181 
L 207.121983 180.295127 
L 207.439339 179.677372 
L 208.391405 179.355858 
L 208.70876 179.130924 
L 209.026116 179.062025 
L 209.660826 178.725049 
L 210.612893 178.579928 
L 211.247603 178.429804 
L 212.199669 178.351685 
L 213.786446 177.76541 
L 216.007934 177.242402 
L 216.325289 176.981181 
L 216.96 176.893633 
L 217.277355 176.69028 
L 218.229421 176.616141 
L 218.864132 176.3314 
L 219.498843 176.140173 
L 220.450909 175.764157 
L 220.768264 175.551114 
L 221.402975 175.408558 
L 222.037686 175.211268 
L 222.672397 174.985029 
L 222.989752 174.804369 
L 223.941818 174.677006 
L 225.528595 174.449263 
L 225.84595 174.259689 
L 226.163306 174.243063 
L 226.480661 173.980573 
L 228.067438 173.428386 
L 228.702149 173.342076 
L 229.019504 173.084267 
L 229.97157 172.89006 
L 230.606281 172.509314 
L 231.240992 172.354211 
L 231.875702 172.22842 
L 232.193058 172.158652 
L 232.510413 171.932091 
L 232.827769 171.898992 
L 233.462479 171.679811 
L 234.414545 171.473405 
L 234.731901 171.269456 
L 235.366612 171.183085 
L 235.683967 170.869433 
L 236.953388 170.615932 
L 237.588099 170.443468 
L 237.905455 169.890136 
L 238.857521 169.757462 
L 240.761653 169.281262 
L 241.713719 168.930073 
L 242.665785 168.591815 
L 242.98314 168.401687 
L 244.252562 168.179117 
L 244.569917 167.806452 
L 245.521983 167.696348 
L 247.743471 167.097163 
L 248.695537 166.993843 
L 249.330248 166.88021 
L 249.647603 166.388541 
L 250.282314 166.076128 
L 250.599669 166.013637 
L 250.917025 165.715393 
L 251.869091 165.602136 
L 252.503802 165.365261 
L 253.138512 165.238955 
L 255.677355 164.609971 
L 259.802975 163.261039 
L 260.755041 162.895462 
L 262.024463 162.692905 
L 262.341818 162.422146 
L 262.976529 162.275334 
L 263.293884 162.151333 
L 263.61124 161.887697 
L 264.24595 161.715324 
L 264.563306 161.57176 
L 265.832727 161.413828 
L 267.419504 161.057583 
L 267.73686 160.688279 
L 268.37157 160.585238 
L 269.640992 160.125453 
L 269.958347 160.075837 
L 270.593058 159.514994 
L 270.910413 159.493282 
L 271.545124 159.020821 
L 272.179835 158.896428 
L 272.814545 158.621738 
L 273.449256 158.543023 
L 275.988099 157.96134 
L 276.305455 157.628843 
L 278.526942 157.137365 
L 278.844298 156.627423 
L 279.479008 156.550602 
L 284.239339 154.955386 
L 284.556694 154.861547 
L 284.87405 154.608435 
L 287.412893 154.016723 
L 288.047603 153.726022 
L 289.317025 153.585679 
L 290.269091 152.870739 
L 290.903802 152.680646 
L 292.490579 151.980828 
L 293.125289 151.854421 
L 294.077355 151.479731 
L 294.712066 151.436456 
L 295.029421 151.041984 
L 295.664132 150.900448 
L 296.298843 150.589425 
L 296.933554 150.458534 
L 297.250909 150.255173 
L 297.568264 150.235862 
L 298.202975 149.867064 
L 299.155041 149.63441 
L 299.789752 149.493019 
L 300.741818 149.353897 
L 301.059174 149.100431 
L 301.693884 148.804001 
L 302.01124 148.560189 
L 304.867438 147.843493 
L 305.184793 147.603573 
L 306.13686 147.438138 
L 308.040992 146.719668 
L 308.358347 146.437026 
L 309.627769 145.928632 
L 309.945124 145.760679 
L 310.262479 145.73652 
L 310.579835 145.521292 
L 312.801322 144.883422 
L 313.118678 144.757492 
L 313.753388 144.694575 
L 314.070744 144.408899 
L 315.02281 144.052485 
L 315.340165 143.408736 
L 316.292231 143.119181 
L 316.609587 143.097642 
L 316.926942 142.887089 
L 317.561653 142.776979 
L 317.879008 142.369976 
L 319.14843 141.936314 
L 320.100496 141.723214 
L 320.417851 141.479618 
L 321.052562 141.356546 
L 321.369917 141.100102 
L 322.321983 141.007215 
L 322.956694 140.733978 
L 325.178182 140.132798 
L 325.495537 139.814695 
L 326.130248 139.661307 
L 326.447603 139.271778 
L 326.764959 139.124627 
L 327.082314 138.772949 
L 327.717025 138.633998 
L 328.03438 138.502218 
L 328.669091 138.453085 
L 329.303802 138.233529 
L 329.621157 138.198308 
L 330.890579 137.555753 
L 331.207934 137.223634 
L 331.525289 137.179599 
L 331.842645 136.985582 
L 332.16 136.616398 
L 335.016198 136.002741 
L 335.333554 135.837932 
L 335.968264 135.185728 
L 336.602975 135.098843 
L 336.920331 134.590189 
L 337.555041 134.446382 
L 337.872397 134.367544 
L 338.824463 133.808467 
L 339.459174 133.665488 
L 339.776529 133.101008 
L 340.41124 133.043357 
L 340.728595 132.573611 
L 341.363306 132.397266 
L 342.315372 132.226146 
L 345.806281 131.020495 
L 346.123636 130.727531 
L 346.440992 130.122125 
L 347.710413 129.44376 
L 348.027769 129.012204 
L 348.662479 128.861075 
L 349.29719 128.538083 
L 349.614545 128.455583 
L 349.931901 128.150084 
L 352.788099 127.130703 
L 353.105455 126.81314 
L 353.740165 126.505662 
L 354.057521 125.935676 
L 354.374876 125.72969 
L 354.692231 125.348169 
L 355.326942 125.220806 
L 356.279008 125.086616 
L 356.913719 124.905786 
L 357.231074 124.887957 
L 357.54843 124.74018 
L 357.865785 124.000973 
L 358.500496 123.646691 
L 358.817851 123.191889 
L 359.769917 122.923831 
L 360.404628 122.325483 
L 360.721983 122.153419 
L 361.039339 121.846362 
L 361.356694 121.174167 
L 361.67405 121.137329 
L 362.30876 120.787622 
L 363.895537 120.255476 
L 364.212893 119.728 
L 364.530248 119.626142 
L 364.847603 119.262735 
L 365.799669 118.82471 
L 367.703802 118.107078 
L 368.021157 117.626396 
L 368.338512 116.756962 
L 368.655868 116.45775 
L 368.973223 116.330754 
L 369.290579 115.792788 
L 369.925289 115.365604 
L 370.56 115.324347 
L 370.877355 115.106276 
L 371.194711 114.557234 
L 371.512066 114.287365 
L 371.829421 114.262496 
L 372.146777 113.975453 
L 372.464132 113.849378 
L 372.781488 113.481481 
L 373.098843 112.857877 
L 373.416198 112.544263 
L 373.733554 111.973439 
L 375.320331 111.529497 
L 375.637686 110.707681 
L 376.589752 110.224584 
L 376.907107 109.860732 
L 377.541818 109.624084 
L 377.859174 109.119111 
L 378.176529 108.862079 
L 378.493884 108.415234 
L 378.81124 108.22006 
L 379.128595 107.858174 
L 379.763306 106.522313 
L 380.398017 106.02211 
L 380.715372 105.512166 
L 382.302149 104.884557 
L 382.93686 103.850815 
L 383.254215 102.809632 
L 383.57157 102.178385 
L 384.206281 101.949581 
L 384.523636 101.27103 
L 384.840992 101.242899 
L 386.110413 100.179739 
L 387.062479 98.633209 
L 387.379835 98.261543 
L 387.69719 98.109446 
L 388.331901 96.307397 
L 389.918678 93.912736 
L 390.236033 93.316352 
L 390.553388 92.048861 
L 391.188099 91.51694 
L 391.82281 91.038874 
L 392.140165 88.9302 
L 392.457521 88.001425 
L 392.774876 87.589218 
L 393.726942 85.26899 
L 394.679008 81.668217 
L 394.996364 81.541544 
L 395.631074 79.989354 
L 395.94843 78.159642 
L 396.265785 75.610777 
L 396.58314 74.581047 
L 396.900496 74.390403 
L 397.217851 67.627683 
L 397.535207 66.555853 
L 397.852562 64.839901 
L 398.487273 54.285218 
L 398.487273 54.285218 
" clip-path="url(#pb2087ef0a8)" style="fill: none; stroke: #1f77b4; stroke-width: 1.5; stroke-linecap: square"/>
   </g>
   <g id="line2d_14">
    <path d="M 73.832727 295.10498 
L 74.150083 281.950319 
L 74.467438 280.662637 
L 74.784793 276.925649 
L 75.102149 271.10518 
L 75.419504 268.795659 
L 76.054215 266.1027 
L 76.37157 263.770992 
L 76.688926 263.770991 
L 77.006281 262.613214 
L 77.323636 258.802084 
L 77.640992 257.950522 
L 77.958347 256.535831 
L 78.275702 255.641003 
L 78.593058 255.640998 
L 78.910413 254.353319 
L 79.227769 254.308115 
L 80.179835 250.616333 
L 80.49719 250.616333 
L 81.131901 249.458554 
L 81.449256 249.100358 
L 82.718678 245.647424 
L 83.036033 244.956944 
L 83.353388 244.795864 
L 83.670744 244.466191 
L 83.988099 243.470332 
L 84.305455 243.381175 
L 84.62281 242.486342 
L 84.940165 242.486338 
L 85.257521 241.920543 
L 85.574876 241.851341 
L 85.892231 241.19866 
L 86.209587 241.153454 
L 86.526942 240.862483 
L 86.844298 240.176824 
L 87.479008 239.292173 
L 88.431074 237.461674 
L 88.74843 237.461674 
L 89.065785 236.7816 
L 89.700496 236.303895 
L 90.335207 235.945701 
L 90.969917 234.356353 
L 91.604628 234.314001 
L 91.921983 234.137618 
L 92.87405 232.625692 
L 93.191405 232.492765 
L 93.50876 231.802282 
L 93.826116 231.641206 
L 95.095537 230.409733 
L 96.047603 230.108892 
L 96.364959 229.331681 
L 96.682314 229.331679 
L 96.999669 228.938965 
L 97.63438 228.696678 
L 97.951736 228.044001 
L 98.269091 227.998793 
L 98.586446 227.707825 
L 98.903802 227.70086 
L 99.221157 227.259601 
L 100.173223 226.904788 
L 100.490579 226.638726 
L 100.807934 226.13751 
L 101.125289 225.934783 
L 101.76 225.195512 
L 102.077355 225.086062 
L 102.394711 224.32023 
L 103.029421 224.307015 
L 103.346777 223.626938 
L 103.981488 223.149236 
L 104.616198 222.949663 
L 104.933554 222.791045 
L 105.250909 221.886359 
L 105.88562 221.664761 
L 106.202975 221.338872 
L 106.520331 221.20169 
L 107.155041 221.159345 
L 107.472397 220.982961 
L 107.789752 220.496117 
L 108.107107 220.434038 
L 108.424463 220.175819 
L 108.741818 220.108033 
L 109.693884 219.381434 
L 110.328595 219.298987 
L 110.64595 218.647621 
L 110.963306 218.486548 
L 111.280661 218.156881 
L 111.598017 218.129347 
L 112.550083 217.564731 
L 114.13686 216.954234 
L 114.454215 216.218777 
L 115.088926 216.177019 
L 115.406281 215.784308 
L 116.040992 215.542016 
L 116.358347 215.513206 
L 116.675702 214.889341 
L 116.993058 214.844133 
L 117.310413 214.553167 
L 117.627769 214.546201 
L 117.945124 214.104945 
L 118.579835 214.016421 
L 119.214545 213.867498 
L 120.166612 213.708289 
L 120.801322 213.484067 
L 121.436033 212.982848 
L 121.753388 212.780127 
L 122.070744 212.719026 
L 122.705455 212.198453 
L 123.340165 211.934497 
L 123.657521 211.931403 
L 123.974876 211.165575 
L 124.926942 211.039316 
L 126.196364 210.206039 
L 126.513719 210.187549 
L 126.831074 210.016669 
L 127.465785 209.941264 
L 128.100496 209.636388 
L 128.417851 208.731699 
L 129.052562 208.591857 
L 129.369917 208.510108 
L 129.687273 208.047028 
L 130.321983 208.004689 
L 130.956694 207.711198 
L 131.27405 207.348111 
L 131.90876 207.279379 
L 132.226116 207.021162 
L 132.543471 206.953373 
L 132.860826 206.674947 
L 133.178182 206.581781 
L 133.495537 206.316374 
L 134.447603 206.144328 
L 134.764959 205.492961 
L 135.717025 205.21236 
L 136.03438 205.002226 
L 136.351736 204.974694 
L 137.303802 204.441823 
L 138.890579 204.232994 
L 139.525289 204.100415 
L 140.794711 203.799577 
L 141.112066 203.174301 
L 141.746777 203.022362 
L 142.064132 203.02236 
L 142.381488 202.637095 
L 142.698843 202.629651 
L 143.333554 202.387356 
L 143.968264 202.277105 
L 144.28562 201.734682 
L 144.602975 201.689473 
L 144.920331 201.398509 
L 145.237686 201.391543 
L 145.555041 201.253927 
L 145.872397 200.950288 
L 146.507107 200.861762 
L 147.141818 200.712836 
L 148.728595 200.471174 
L 149.998017 199.828188 
L 150.315372 199.625471 
L 150.632727 199.564365 
L 150.950083 199.251739 
L 151.584793 199.231405 
L 151.902149 198.886193 
L 152.854215 198.51786 
L 153.488926 198.010919 
L 154.758347 197.884656 
L 155.710413 197.340849 
L 156.027769 197.317616 
L 156.662479 196.890735 
L 157.614545 196.786607 
L 158.249256 196.549327 
L 158.883967 196.481731 
L 159.201322 195.708953 
L 159.836033 195.451239 
L 161.105455 195.355454 
L 161.740165 195.27182 
L 162.057521 194.892367 
L 162.692231 194.850032 
L 163.326942 194.579413 
L 163.644298 194.556531 
L 163.961653 194.193448 
L 164.596364 194.12472 
L 164.913719 193.902021 
L 165.54843 193.798714 
L 166.18314 193.520286 
L 168.087273 192.989668 
L 168.404628 192.338301 
L 170.30876 191.820039 
L 170.626116 191.297735 
L 171.578182 191.155381 
L 174.117025 190.762548 
L 174.751736 190.570098 
L 175.069091 190.205552 
L 176.338512 189.867702 
L 176.655868 189.867701 
L 176.973223 189.482436 
L 177.290579 189.474994 
L 177.925289 189.232695 
L 178.877355 189.074481 
L 179.194711 189.005241 
L 179.512066 188.580023 
L 180.464132 188.472806 
L 180.781488 188.24385 
L 181.098843 188.236884 
L 181.416198 188.099262 
L 181.733554 187.795631 
L 182.050909 187.769109 
L 182.368264 187.588233 
L 184.272397 187.316521 
L 184.907107 187.059718 
L 185.541818 186.99843 
L 186.176529 186.68278 
L 186.81124 186.664036 
L 187.128595 186.470813 
L 187.44595 186.409705 
L 187.763306 186.097077 
L 188.398017 186.076748 
L 188.715372 185.731533 
L 189.032727 185.625174 
L 189.667438 185.141278 
L 190.619504 184.843043 
L 191.254215 184.748588 
L 191.888926 184.721389 
L 192.206281 184.552797 
L 192.840992 184.508485 
L 193.158347 184.271672 
L 194.110413 184.162956 
L 194.745124 183.707353 
L 195.379835 183.631951 
L 195.69719 183.485693 
L 196.966612 183.327073 
L 197.283967 182.554287 
L 197.601322 182.29658 
L 199.188099 182.117151 
L 199.505455 182.082608 
L 200.140165 181.737705 
L 200.774876 181.695375 
L 201.409587 181.424758 
L 201.726942 181.401865 
L 202.044298 181.047928 
L 203.313719 180.970061 
L 203.631074 180.74736 
L 204.265785 180.644055 
L 204.58314 180.443997 
L 205.535207 180.323528 
L 206.169917 180.225187 
L 206.804628 179.874133 
L 207.121983 179.835009 
L 207.439339 179.600831 
L 207.756694 179.093359 
L 209.343471 178.692918 
L 209.660826 178.143075 
L 210.930248 178.00072 
L 213.469091 177.69703 
L 214.421157 177.415433 
L 214.738512 177.050896 
L 215.373223 176.936935 
L 215.690579 176.91588 
L 216.007934 176.713043 
L 216.642645 176.653593 
L 216.96 176.581433 
L 217.277355 176.327778 
L 217.912066 176.23157 
L 218.546777 175.967794 
L 219.181488 175.850575 
L 219.816198 175.425364 
L 221.08562 175.318151 
L 221.402975 175.125633 
L 222.355041 174.944599 
L 222.672397 174.640973 
L 222.989752 174.61445 
L 223.307107 174.43358 
L 224.893884 174.208347 
L 225.21124 174.121279 
L 225.528595 173.905066 
L 226.163306 173.843759 
L 228.067438 172.942417 
L 229.019504 172.779133 
L 229.33686 172.576872 
L 229.97157 172.470513 
L 230.606281 171.986611 
L 231.558347 171.688385 
L 232.193058 171.593927 
L 233.145124 171.501672 
L 234.731901 171.031539 
L 235.049256 171.008296 
L 235.683967 170.552695 
L 236.318678 170.477295 
L 236.636033 170.331038 
L 237.905455 170.172416 
L 238.22281 169.399622 
L 238.540165 169.141923 
L 240.444298 168.962485 
L 240.761653 168.927952 
L 241.396364 168.583044 
L 242.031074 168.505569 
L 242.98314 167.893262 
L 243.935207 167.815403 
L 244.252562 167.592699 
L 244.887273 167.489396 
L 245.204628 167.289351 
L 246.156694 167.168863 
L 246.791405 167.070523 
L 247.10876 166.852395 
L 248.695537 166.446171 
L 249.647603 165.938699 
L 250.599669 165.748397 
L 250.917025 165.560027 
L 251.23438 165.538264 
L 251.551736 165.136843 
L 251.869091 164.981271 
L 252.821157 164.946099 
L 253.455868 164.81813 
L 255.36 164.542372 
L 255.994711 163.89624 
L 257.264132 163.761226 
L 257.581488 163.558385 
L 258.533554 163.498926 
L 258.850909 163.17312 
L 259.48562 163.076902 
L 260.120331 162.765152 
L 260.437686 162.69591 
L 261.072397 162.24788 
L 261.707107 162.163494 
L 262.659174 161.952534 
L 263.61124 161.789937 
L 264.24595 161.278926 
L 265.832727 161.053689 
L 268.054215 160.354731 
L 268.37157 160.100386 
L 269.323636 159.787757 
L 269.640992 159.644043 
L 269.958347 159.624473 
L 270.593058 159.315853 
L 270.910413 158.717724 
L 275.353388 157.587409 
L 275.670744 157.398036 
L 275.988099 157.385711 
L 276.305455 157.176382 
L 277.574876 157.058628 
L 278.526942 156.66444 
L 279.161653 155.973211 
L 279.796364 155.89433 
L 280.431074 155.839218 
L 281.38314 155.600809 
L 281.700496 155.428384 
L 282.017851 155.428384 
L 282.335207 155.237863 
L 282.652562 154.775761 
L 283.921983 154.660745 
L 284.556694 154.334738 
L 288.364959 153.291511 
L 289.317025 152.846545 
L 290.586446 152.593742 
L 291.221157 151.826611 
L 291.855868 151.691401 
L 293.442645 151.477035 
L 293.76 151.408727 
L 294.394711 150.711268 
L 296.298843 150.344261 
L 296.933554 150.018463 
L 297.568264 149.922238 
L 298.202975 149.610488 
L 298.520331 149.541246 
L 299.155041 149.093225 
L 299.472397 149.08654 
L 300.107107 148.817674 
L 300.741818 148.772911 
L 301.059174 148.635276 
L 301.693884 148.50384 
L 302.64595 147.924876 
L 303.598017 147.811968 
L 304.232727 147.595758 
L 304.867438 147.526476 
L 305.502149 147.00955 
L 307.088926 146.633098 
L 307.406281 146.489389 
L 307.723636 146.469813 
L 308.675702 146.161193 
L 308.993058 145.754863 
L 309.945124 145.284605 
L 310.579835 145.19236 
L 310.89719 144.905988 
L 312.166612 144.63396 
L 312.801322 144.259399 
L 313.436033 144.217466 
L 314.070744 143.918625 
L 314.705455 143.792165 
L 315.340165 143.090293 
L 315.657521 142.747006 
L 316.926942 142.635572 
L 317.561653 142.273724 
L 318.196364 142.222587 
L 318.513719 141.621095 
L 319.78314 141.493716 
L 320.417851 141.180079 
L 320.735207 141.098629 
L 321.052562 140.859538 
L 321.687273 140.796635 
L 322.004628 140.480166 
L 322.639339 140.371029 
L 323.27405 140.300003 
L 323.90876 140.089425 
L 325.495537 139.546525 
L 325.812893 139.106114 
L 326.130248 139.065432 
L 326.447603 138.67195 
L 327.082314 138.536742 
L 328.03438 138.322375 
L 328.351736 137.926604 
L 329.303802 137.498952 
L 330.573223 137.401555 
L 330.890579 137.241596 
L 331.525289 136.585254 
L 332.16 136.455825 
L 332.477355 136.386582 
L 332.794711 135.93857 
L 333.429421 135.875521 
L 334.381488 135.643219 
L 334.698843 135.633559 
L 336.920331 134.502285 
L 337.237686 134.441103 
L 337.555041 133.854901 
L 338.824463 133.492612 
L 339.776529 133.006533 
L 340.093884 132.494692 
L 341.363306 132.102736 
L 341.680661 131.751336 
L 342.315372 131.684406 
L 342.632727 131.479299 
L 342.950083 131.472145 
L 343.267438 131.278096 
L 343.584793 131.258724 
L 343.902149 131.104735 
L 344.53686 131.062813 
L 345.17157 130.763966 
L 345.806281 130.63751 
L 346.123636 130.35511 
L 346.440992 129.592342 
L 347.075702 129.583969 
L 347.710413 129.119064 
L 348.027769 129.067918 
L 348.345124 128.429267 
L 348.662479 128.339044 
L 349.614545 127.704877 
L 350.566612 127.641962 
L 350.883967 127.197911 
L 351.201322 127.00589 
L 351.836033 126.934778 
L 352.153388 126.755613 
L 352.470744 126.728139 
L 353.105455 126.39187 
L 353.42281 125.951458 
L 353.740165 125.910762 
L 354.057521 125.517289 
L 354.692231 125.382084 
L 355.009587 125.19638 
L 355.326942 124.771938 
L 355.961653 124.596452 
L 356.279008 124.401942 
L 357.54843 124.103179 
L 358.18314 123.419271 
L 358.500496 123.301162 
L 358.817851 122.783916 
L 359.135207 122.488563 
L 359.452562 122.478915 
L 360.087273 122.194529 
L 360.404628 121.487074 
L 361.039339 121.347625 
L 361.356694 120.700252 
L 363.895537 119.671081 
L 364.530248 118.975285 
L 366.43438 117.950072 
L 367.069091 117.908157 
L 367.703802 117.552968 
L 368.021157 116.792116 
L 368.338512 116.437679 
L 368.655868 116.430355 
L 369.290579 115.274603 
L 369.607934 115.184375 
L 370.242645 114.789311 
L 370.56 114.730281 
L 370.877355 114.531256 
L 371.194711 114.043252 
L 371.829421 113.600965 
L 372.146777 113.573481 
L 372.464132 113.382563 
L 373.098843 112.362628 
L 373.416198 112.015437 
L 373.733554 111.441786 
L 374.050909 111.247279 
L 375.320331 110.948505 
L 375.637686 110.264595 
L 375.955041 110.1465 
L 376.907107 109.333907 
L 377.224463 109.324269 
L 377.541818 109.157333 
L 377.859174 108.332407 
L 378.493884 108.192965 
L 378.81124 107.322494 
L 379.128595 107.310295 
L 379.44595 106.516434 
L 380.398017 105.42189 
L 381.350083 104.79541 
L 381.667438 104.76706 
L 382.302149 104.398302 
L 382.619504 103.63746 
L 382.93686 103.185647 
L 383.254215 102.119939 
L 383.57157 102.105014 
L 383.888926 101.634651 
L 384.206281 101.376589 
L 384.840992 100.446316 
L 385.158347 100.402457 
L 385.793058 99.938698 
L 386.110413 99.601422 
L 386.745124 98.31536 
L 387.062479 98.034965 
L 387.69719 97.793832 
L 388.014545 96.446781 
L 388.331901 96.002669 
L 388.649256 95.17774 
L 388.966612 95.052626 
L 389.283967 94.167829 
L 389.601322 94.155638 
L 390.553388 91.640749 
L 390.870744 91.612399 
L 391.188099 90.639771 
L 391.505455 90.496506 
L 391.82281 90.482804 
L 392.140165 88.221923 
L 392.457521 87.247798 
L 393.409587 85.706101 
L 393.726942 84.782909 
L 394.361653 82.023073 
L 394.679008 81.013168 
L 394.996364 80.784231 
L 395.313719 79.877363 
L 395.631074 79.336364 
L 396.265785 75.067258 
L 396.58314 74.093138 
L 396.900496 73.629374 
L 397.217851 66.722681 
L 397.535207 66.181696 
L 397.852562 64.18717 
L 398.487273 53.568 
L 398.487273 53.568 
" clip-path="url(#pb2087ef0a8)" style="fill: none; stroke: #ff7f0e; stroke-width: 1.5; stroke-linecap: square"/>
   </g>
   <g id="patch_3">
    <path d="M 57.6 307.584 
L 57.6 41.472 
" style="fill: none; stroke: #000000; stroke-width: 0.8; stroke-linejoin: miter; stroke-linecap: square"/>
   </g>
   <g id="patch_4">
    <path d="M 414.72 307.584 
L 414.72 41.472 
" style="fill: none; stroke: #000000; stroke-width: 0.8; stroke-linejoin: miter; stroke-linecap: square"/>
   </g>
   <g id="patch_5">
    <path d="M 57.6 307.584 
L 414.72 307.584 
" style="fill: none; stroke: #000000; stroke-width: 0.8; stroke-linejoin: miter; stroke-linecap: square"/>
   </g>
   <g id="patch_6">
    <path d="M 57.6 41.472 
L 414.72 41.472 
" style="fill: none; stroke: #000000; stroke-width: 0.8; stroke-linejoin: miter; stroke-linecap: square"/>
   </g>
   <g id="legend_1">
    <g id="patch_7">
     <path d="M 64.6 78.82825 
L 129.342187 78.82825 
Q 131.342187 78.82825 131.342187 76.82825 
L 131.342187 48.472 
Q 131.342187 46.472 129.342187 46.472 
L 64.6 46.472 
Q 62.6 46.472 62.6 48.472 
L 62.6 76.82825 
Q 62.6 78.82825 64.6 78.82825 
z
" style="fill: #ffffff; opacity: 0.8; stroke: #cccccc; stroke-linejoin: miter"/>
    </g>
    <g id="line2d_15">
     <path d="M 66.6 54.570437 
L 76.6 54.570437 
L 86.6 54.570437 
" style="fill: none; stroke: #1f77b4; stroke-width: 1.5; stroke-linecap: square"/>
    </g>
    <g id="text_15">
     <!-- qc -->
     <g transform="translate(94.6 58.070437) scale(0.1 -0.1)">
      <defs>
       <path id="DejaVuSans-71" d="M 947 1747 
Q 947 1113 1208 752 
Q 1469 391 1925 391 
Q 2381 391 2643 752 
Q 2906 1113 2906 1747 
Q 2906 2381 2643 2742 
Q 2381 3103 1925 3103 
Q 1469 3103 1208 2742 
Q 947 2381 947 1747 
z
M 2906 525 
Q 2725 213 2448 61 
Q 2172 -91 1784 -91 
Q 1150 -91 751 415 
Q 353 922 353 1747 
Q 353 2572 751 3078 
Q 1150 3584 1784 3584 
Q 2172 3584 2448 3432 
Q 2725 3281 2906 2969 
L 2906 3500 
L 3481 3500 
L 3481 -1331 
L 2906 -1331 
L 2906 525 
z
" transform="scale(0.015625)"/>
       <path id="DejaVuSans-63" d="M 3122 3366 
L 3122 2828 
Q 2878 2963 2633 3030 
Q 2388 3097 2138 3097 
Q 1578 3097 1268 2742 
Q 959 2388 959 1747 
Q 959 1106 1268 751 
Q 1578 397 2138 397 
Q 2388 397 2633 464 
Q 2878 531 3122 666 
L 3122 134 
Q 2881 22 2623 -34 
Q 2366 -91 2075 -91 
Q 1284 -91 818 406 
Q 353 903 353 1747 
Q 353 2603 823 3093 
Q 1294 3584 2113 3584 
Q 2378 3584 2631 3529 
Q 2884 3475 3122 3366 
z
" transform="scale(0.015625)"/>
      </defs>
      <use xlink:href="#DejaVuSans-71"/>
      <use xlink:href="#DejaVuSans-63" x="63.476562"/>
     </g>
    </g>
    <g id="line2d_16">
     <path d="M 66.6 69.248562 
L 76.6 69.248562 
L 86.6 69.248562 
" style="fill: none; stroke: #ff7f0e; stroke-width: 1.5; stroke-linecap: square"/>
    </g>
    <g id="text_16">
     <!-- Trotter -->
     <g transform="translate(94.6 72.748562) scale(0.1 -0.1)">
      <defs>
       <path id="DejaVuSans-54" d="M -19 4666 
L 3928 4666 
L 3928 4134 
L 2272 4134 
L 2272 0 
L 1638 0 
L 1638 4134 
L -19 4134 
L -19 4666 
z
" transform="scale(0.015625)"/>
       <path id="DejaVuSans-72" d="M 2631 2963 
Q 2534 3019 2420 3045 
Q 2306 3072 2169 3072 
Q 1681 3072 1420 2755 
Q 1159 2438 1159 1844 
L 1159 0 
L 581 0 
L 581 3500 
L 1159 3500 
L 1159 2956 
Q 1341 3275 1631 3429 
Q 1922 3584 2338 3584 
Q 2397 3584 2469 3576 
Q 2541 3569 2628 3553 
L 2631 2963 
z
" transform="scale(0.015625)"/>
       <path id="DejaVuSans-6f" d="M 1959 3097 
Q 1497 3097 1228 2736 
Q 959 2375 959 1747 
Q 959 1119 1226 758 
Q 1494 397 1959 397 
Q 2419 397 2687 759 
Q 2956 1122 2956 1747 
Q 2956 2369 2687 2733 
Q 2419 3097 1959 3097 
z
M 1959 3584 
Q 2709 3584 3137 3096 
Q 3566 2609 3566 1747 
Q 3566 888 3137 398 
Q 2709 -91 1959 -91 
Q 1206 -91 779 398 
Q 353 888 353 1747 
Q 353 2609 779 3096 
Q 1206 3584 1959 3584 
z
" transform="scale(0.015625)"/>
       <path id="DejaVuSans-65" d="M 3597 1894 
L 3597 1613 
L 953 1613 
Q 991 1019 1311 708 
Q 1631 397 2203 397 
Q 2534 397 2845 478 
Q 3156 559 3463 722 
L 3463 178 
Q 3153 47 2828 -22 
Q 2503 -91 2169 -91 
Q 1331 -91 842 396 
Q 353 884 353 1716 
Q 353 2575 817 3079 
Q 1281 3584 2069 3584 
Q 2775 3584 3186 3129 
Q 3597 2675 3597 1894 
z
M 3022 2063 
Q 3016 2534 2758 2815 
Q 2500 3097 2075 3097 
Q 1594 3097 1305 2825 
Q 1016 2553 972 2059 
L 3022 2063 
z
" transform="scale(0.015625)"/>
      </defs>
      <use xlink:href="#DejaVuSans-54"/>
      <use xlink:href="#DejaVuSans-72" x="46.333984"/>
      <use xlink:href="#DejaVuSans-6f" x="85.197266"/>
      <use xlink:href="#DejaVuSans-74" x="146.378906"/>
      <use xlink:href="#DejaVuSans-74" x="185.587891"/>
      <use xlink:href="#DejaVuSans-65" x="224.796875"/>
      <use xlink:href="#DejaVuSans-72" x="286.320312"/>
     </g>
    </g>
   </g>
  </g>
 </g>
 <defs>
  <clipPath id="pb2087ef0a8">
   <rect x="57.6" y="41.472" width="357.12" height="266.112"/>
  </clipPath>
 </defs>
</svg>
