<?xml version="1.0" encoding="utf-8" standalone="no"?>
<!DOCTYPE svg PUBLIC "-//W3C//DTD SVG 1.1//EN"
  "http://www.w3.org/Graphics/SVG/1.1/DTD/svg11.dtd">
<svg xmlns:xlink="http://www.w3.org/1999/xlink" width="460.8pt" height="345.6pt" viewBox="0 0 460.8 345.6" xmlns="http://www.w3.org/2000/svg" version="1.1">
 <metadata>
  <rdf:RDF xmlns:dc="http://purl.org/dc/elements/1.1/" xmlns:cc="http://creativecommons.org/ns#" xmlns:rdf="http://www.w3.org/1999/02/22-rdf-syntax-ns#">
   <cc:Work>
    <dc:type rdf:resource="http://purl.org/dc/dcmitype/StillImage"/>
    <dc:date>2024-08-16T14:07:02.598501</dc:date>
    <dc:format>image/svg+xml</dc:format>
    <dc:creator>
     <cc:Agent>
      <dc:title>Matplotlib v3.7.1, https://matplotlib.org/</dc:title>
     </cc:Agent>
    </dc:creator>
   </cc:Work>
  </rdf:RDF>
 </metadata>
 <defs>
  <style type="text/css">*{stroke-linejoin: round; stroke-linecap: butt}</style>
 </defs>
 <g id="figure_1">
  <g id="patch_1">
   <path d="M 0 345.6 
L 460.8 345.6 
L 460.8 0 
L 0 0 
z
" style="fill: #ffffff"/>
  </g>
  <g id="axes_1">
   <g id="patch_2">
    <path d="M 57.6 307.584 
L 414.72 307.584 
L 414.72 41.472 
L 57.6 41.472 
z
" style="fill: #ffffff"/>
   </g>
   <g id="matplotlib.axis_1">
    <g id="xtick_1">
     <g id="line2d_1">
      <defs>
       <path id="m5a38217067" d="M 0 0 
L 0 3.5 
" style="stroke: #000000; stroke-width: 0.8"/>
      </defs>
      <g>
       <use xlink:href="#m5a38217067" x="73.832727" y="307.584" style="stroke: #000000; stroke-width: 0.8"/>
      </g>
     </g>
     <g id="text_1">
      <!-- 0 -->
      <g transform="translate(70.651477 322.182437) scale(0.1 -0.1)">
       <defs>
        <path id="DejaVuSans-30" d="M 2034 4250 
Q 1547 4250 1301 3770 
Q 1056 3291 1056 2328 
Q 1056 1369 1301 889 
Q 1547 409 2034 409 
Q 2525 409 2770 889 
Q 3016 1369 3016 2328 
Q 3016 3291 2770 3770 
Q 2525 4250 2034 4250 
z
M 2034 4750 
Q 2819 4750 3233 4129 
Q 3647 3509 3647 2328 
Q 3647 1150 3233 529 
Q 2819 -91 2034 -91 
Q 1250 -91 836 529 
Q 422 1150 422 2328 
Q 422 3509 836 4129 
Q 1250 4750 2034 4750 
z
" transform="scale(0.015625)"/>
       </defs>
       <use xlink:href="#DejaVuSans-30"/>
      </g>
     </g>
    </g>
    <g id="xtick_2">
     <g id="line2d_2">
      <g>
       <use xlink:href="#m5a38217067" x="137.303802" y="307.584" style="stroke: #000000; stroke-width: 0.8"/>
      </g>
     </g>
     <g id="text_2">
      <!-- 200 -->
      <g transform="translate(127.760052 322.182437) scale(0.1 -0.1)">
       <defs>
        <path id="DejaVuSans-32" d="M 1228 531 
L 3431 531 
L 3431 0 
L 469 0 
L 469 531 
Q 828 903 1448 1529 
Q 2069 2156 2228 2338 
Q 2531 2678 2651 2914 
Q 2772 3150 2772 3378 
Q 2772 3750 2511 3984 
Q 2250 4219 1831 4219 
Q 1534 4219 1204 4116 
Q 875 4013 500 3803 
L 500 4441 
Q 881 4594 1212 4672 
Q 1544 4750 1819 4750 
Q 2544 4750 2975 4387 
Q 3406 4025 3406 3419 
Q 3406 3131 3298 2873 
Q 3191 2616 2906 2266 
Q 2828 2175 2409 1742 
Q 1991 1309 1228 531 
z
" transform="scale(0.015625)"/>
       </defs>
       <use xlink:href="#DejaVuSans-32"/>
       <use xlink:href="#DejaVuSans-30" x="63.623047"/>
       <use xlink:href="#DejaVuSans-30" x="127.246094"/>
      </g>
     </g>
    </g>
    <g id="xtick_3">
     <g id="line2d_3">
      <g>
       <use xlink:href="#m5a38217067" x="200.774876" y="307.584" style="stroke: #000000; stroke-width: 0.8"/>
      </g>
     </g>
     <g id="text_3">
      <!-- 400 -->
      <g transform="translate(191.231126 322.182437) scale(0.1 -0.1)">
       <defs>
        <path id="DejaVuSans-34" d="M 2419 4116 
L 825 1625 
L 2419 1625 
L 2419 4116 
z
M 2253 4666 
L 3047 4666 
L 3047 1625 
L 3713 1625 
L 3713 1100 
L 3047 1100 
L 3047 0 
L 2419 0 
L 2419 1100 
L 313 1100 
L 313 1709 
L 2253 4666 
z
" transform="scale(0.015625)"/>
       </defs>
       <use xlink:href="#DejaVuSans-34"/>
       <use xlink:href="#DejaVuSans-30" x="63.623047"/>
       <use xlink:href="#DejaVuSans-30" x="127.246094"/>
      </g>
     </g>
    </g>
    <g id="xtick_4">
     <g id="line2d_4">
      <g>
       <use xlink:href="#m5a38217067" x="264.24595" y="307.584" style="stroke: #000000; stroke-width: 0.8"/>
      </g>
     </g>
     <g id="text_4">
      <!-- 600 -->
      <g transform="translate(254.7022 322.182437) scale(0.1 -0.1)">
       <defs>
        <path id="DejaVuSans-36" d="M 2113 2584 
Q 1688 2584 1439 2293 
Q 1191 2003 1191 1497 
Q 1191 994 1439 701 
Q 1688 409 2113 409 
Q 2538 409 2786 701 
Q 3034 994 3034 1497 
Q 3034 2003 2786 2293 
Q 2538 2584 2113 2584 
z
M 3366 4563 
L 3366 3988 
Q 3128 4100 2886 4159 
Q 2644 4219 2406 4219 
Q 1781 4219 1451 3797 
Q 1122 3375 1075 2522 
Q 1259 2794 1537 2939 
Q 1816 3084 2150 3084 
Q 2853 3084 3261 2657 
Q 3669 2231 3669 1497 
Q 3669 778 3244 343 
Q 2819 -91 2113 -91 
Q 1303 -91 875 529 
Q 447 1150 447 2328 
Q 447 3434 972 4092 
Q 1497 4750 2381 4750 
Q 2619 4750 2861 4703 
Q 3103 4656 3366 4563 
z
" transform="scale(0.015625)"/>
       </defs>
       <use xlink:href="#DejaVuSans-36"/>
       <use xlink:href="#DejaVuSans-30" x="63.623047"/>
       <use xlink:href="#DejaVuSans-30" x="127.246094"/>
      </g>
     </g>
    </g>
    <g id="xtick_5">
     <g id="line2d_5">
      <g>
       <use xlink:href="#m5a38217067" x="327.717025" y="307.584" style="stroke: #000000; stroke-width: 0.8"/>
      </g>
     </g>
     <g id="text_5">
      <!-- 800 -->
      <g transform="translate(318.173275 322.182437) scale(0.1 -0.1)">
       <defs>
        <path id="DejaVuSans-38" d="M 2034 2216 
Q 1584 2216 1326 1975 
Q 1069 1734 1069 1313 
Q 1069 891 1326 650 
Q 1584 409 2034 409 
Q 2484 409 2743 651 
Q 3003 894 3003 1313 
Q 3003 1734 2745 1975 
Q 2488 2216 2034 2216 
z
M 1403 2484 
Q 997 2584 770 2862 
Q 544 3141 544 3541 
Q 544 4100 942 4425 
Q 1341 4750 2034 4750 
Q 2731 4750 3128 4425 
Q 3525 4100 3525 3541 
Q 3525 3141 3298 2862 
Q 3072 2584 2669 2484 
Q 3125 2378 3379 2068 
Q 3634 1759 3634 1313 
Q 3634 634 3220 271 
Q 2806 -91 2034 -91 
Q 1263 -91 848 271 
Q 434 634 434 1313 
Q 434 1759 690 2068 
Q 947 2378 1403 2484 
z
M 1172 3481 
Q 1172 3119 1398 2916 
Q 1625 2713 2034 2713 
Q 2441 2713 2670 2916 
Q 2900 3119 2900 3481 
Q 2900 3844 2670 4047 
Q 2441 4250 2034 4250 
Q 1625 4250 1398 4047 
Q 1172 3844 1172 3481 
z
" transform="scale(0.015625)"/>
       </defs>
       <use xlink:href="#DejaVuSans-38"/>
       <use xlink:href="#DejaVuSans-30" x="63.623047"/>
       <use xlink:href="#DejaVuSans-30" x="127.246094"/>
      </g>
     </g>
    </g>
    <g id="xtick_6">
     <g id="line2d_6">
      <g>
       <use xlink:href="#m5a38217067" x="391.188099" y="307.584" style="stroke: #000000; stroke-width: 0.8"/>
      </g>
     </g>
     <g id="text_6">
      <!-- 1000 -->
      <g transform="translate(378.463099 322.182437) scale(0.1 -0.1)">
       <defs>
        <path id="DejaVuSans-31" d="M 794 531 
L 1825 531 
L 1825 4091 
L 703 3866 
L 703 4441 
L 1819 4666 
L 2450 4666 
L 2450 531 
L 3481 531 
L 3481 0 
L 794 0 
L 794 531 
z
" transform="scale(0.015625)"/>
       </defs>
       <use xlink:href="#DejaVuSans-31"/>
       <use xlink:href="#DejaVuSans-30" x="63.623047"/>
       <use xlink:href="#DejaVuSans-30" x="127.246094"/>
       <use xlink:href="#DejaVuSans-30" x="190.869141"/>
      </g>
     </g>
    </g>
    <g id="text_7">
     <!-- n -->
     <g transform="translate(232.99125 335.860562) scale(0.1 -0.1)">
      <defs>
       <path id="DejaVuSans-6e" d="M 3513 2113 
L 3513 0 
L 2938 0 
L 2938 2094 
Q 2938 2591 2744 2837 
Q 2550 3084 2163 3084 
Q 1697 3084 1428 2787 
Q 1159 2491 1159 1978 
L 1159 0 
L 581 0 
L 581 3500 
L 1159 3500 
L 1159 2956 
Q 1366 3272 1645 3428 
Q 1925 3584 2291 3584 
Q 2894 3584 3203 3211 
Q 3513 2838 3513 2113 
z
" transform="scale(0.015625)"/>
      </defs>
      <use xlink:href="#DejaVuSans-6e"/>
     </g>
    </g>
   </g>
   <g id="matplotlib.axis_2">
    <g id="ytick_1">
     <g id="line2d_7">
      <defs>
       <path id="m1dadcee088" d="M 0 0 
L -3.5 0 
" style="stroke: #000000; stroke-width: 0.8"/>
      </defs>
      <g>
       <use xlink:href="#m1dadcee088" x="57.6" y="304.14169" style="stroke: #000000; stroke-width: 0.8"/>
      </g>
     </g>
     <g id="text_8">
      <!-- −3 -->
      <g transform="translate(35.857813 307.940909) scale(0.1 -0.1)">
       <defs>
        <path id="DejaVuSans-2212" d="M 678 2272 
L 4684 2272 
L 4684 1741 
L 678 1741 
L 678 2272 
z
" transform="scale(0.015625)"/>
        <path id="DejaVuSans-33" d="M 2597 2516 
Q 3050 2419 3304 2112 
Q 3559 1806 3559 1356 
Q 3559 666 3084 287 
Q 2609 -91 1734 -91 
Q 1441 -91 1130 -33 
Q 819 25 488 141 
L 488 750 
Q 750 597 1062 519 
Q 1375 441 1716 441 
Q 2309 441 2620 675 
Q 2931 909 2931 1356 
Q 2931 1769 2642 2001 
Q 2353 2234 1838 2234 
L 1294 2234 
L 1294 2753 
L 1863 2753 
Q 2328 2753 2575 2939 
Q 2822 3125 2822 3475 
Q 2822 3834 2567 4026 
Q 2313 4219 1838 4219 
Q 1578 4219 1281 4162 
Q 984 4106 628 3988 
L 628 4550 
Q 988 4650 1302 4700 
Q 1616 4750 1894 4750 
Q 2613 4750 3031 4423 
Q 3450 4097 3450 3541 
Q 3450 3153 3228 2886 
Q 3006 2619 2597 2516 
z
" transform="scale(0.015625)"/>
       </defs>
       <use xlink:href="#DejaVuSans-2212"/>
       <use xlink:href="#DejaVuSans-33" x="83.789062"/>
      </g>
     </g>
    </g>
    <g id="ytick_2">
     <g id="line2d_8">
      <g>
       <use xlink:href="#m1dadcee088" x="57.6" y="260.325537" style="stroke: #000000; stroke-width: 0.8"/>
      </g>
     </g>
     <g id="text_9">
      <!-- −2 -->
      <g transform="translate(35.857813 264.124756) scale(0.1 -0.1)">
       <use xlink:href="#DejaVuSans-2212"/>
       <use xlink:href="#DejaVuSans-32" x="83.789062"/>
      </g>
     </g>
    </g>
    <g id="ytick_3">
     <g id="line2d_9">
      <g>
       <use xlink:href="#m1dadcee088" x="57.6" y="216.509384" style="stroke: #000000; stroke-width: 0.8"/>
      </g>
     </g>
     <g id="text_10">
      <!-- −1 -->
      <g transform="translate(35.857813 220.308602) scale(0.1 -0.1)">
       <use xlink:href="#DejaVuSans-2212"/>
       <use xlink:href="#DejaVuSans-31" x="83.789062"/>
      </g>
     </g>
    </g>
    <g id="ytick_4">
     <g id="line2d_10">
      <g>
       <use xlink:href="#m1dadcee088" x="57.6" y="172.69323" style="stroke: #000000; stroke-width: 0.8"/>
      </g>
     </g>
     <g id="text_11">
      <!-- 0 -->
      <g transform="translate(44.2375 176.492449) scale(0.1 -0.1)">
       <use xlink:href="#DejaVuSans-30"/>
      </g>
     </g>
    </g>
    <g id="ytick_5">
     <g id="line2d_11">
      <g>
       <use xlink:href="#m1dadcee088" x="57.6" y="128.877077" style="stroke: #000000; stroke-width: 0.8"/>
      </g>
     </g>
     <g id="text_12">
      <!-- 1 -->
      <g transform="translate(44.2375 132.676295) scale(0.1 -0.1)">
       <use xlink:href="#DejaVuSans-31"/>
      </g>
     </g>
    </g>
    <g id="ytick_6">
     <g id="line2d_12">
      <g>
       <use xlink:href="#m1dadcee088" x="57.6" y="85.060923" style="stroke: #000000; stroke-width: 0.8"/>
      </g>
     </g>
     <g id="text_13">
      <!-- 2 -->
      <g transform="translate(44.2375 88.860142) scale(0.1 -0.1)">
       <use xlink:href="#DejaVuSans-32"/>
      </g>
     </g>
    </g>
    <g id="text_14">
     <!-- E*t -->
     <g transform="translate(29.778125 182.147531) rotate(-90) scale(0.1 -0.1)">
      <defs>
       <path id="DejaVuSans-45" d="M 628 4666 
L 3578 4666 
L 3578 4134 
L 1259 4134 
L 1259 2753 
L 3481 2753 
L 3481 2222 
L 1259 2222 
L 1259 531 
L 3634 531 
L 3634 0 
L 628 0 
L 628 4666 
z
" transform="scale(0.015625)"/>
       <path id="DejaVuSans-2a" d="M 3009 3897 
L 1888 3291 
L 3009 2681 
L 2828 2375 
L 1778 3009 
L 1778 1831 
L 1422 1831 
L 1422 3009 
L 372 2375 
L 191 2681 
L 1313 3291 
L 191 3897 
L 372 4206 
L 1422 3572 
L 1422 4750 
L 1778 4750 
L 1778 3572 
L 2828 4206 
L 3009 3897 
z
" transform="scale(0.015625)"/>
       <path id="DejaVuSans-74" d="M 1172 4494 
L 1172 3500 
L 2356 3500 
L 2356 3053 
L 1172 3053 
L 1172 1153 
Q 1172 725 1289 603 
Q 1406 481 1766 481 
L 2356 481 
L 2356 0 
L 1766 0 
Q 1100 0 847 248 
Q 594 497 594 1153 
L 594 3053 
L 172 3053 
L 172 3500 
L 594 3500 
L 594 4494 
L 1172 4494 
z
" transform="scale(0.015625)"/>
      </defs>
      <use xlink:href="#DejaVuSans-45"/>
      <use xlink:href="#DejaVuSans-2a" x="63.183594"/>
      <use xlink:href="#DejaVuSans-74" x="113.183594"/>
     </g>
    </g>
   </g>
   <g id="line2d_13">
    <path d="M 73.832727 290.323117 
L 74.150083 277.672025 
L 74.467438 276.296914 
L 74.784793 272.692789 
L 75.102149 266.930133 
L 75.73686 263.548291 
L 76.054215 262.104038 
L 76.37157 259.982341 
L 76.688926 259.673332 
L 77.006281 258.678126 
L 77.323636 254.97761 
L 77.640992 254.234879 
L 77.958347 252.774165 
L 79.227769 250.529824 
L 80.179835 247.192308 
L 80.49719 246.926416 
L 80.814545 246.215144 
L 81.449256 245.435849 
L 82.083967 243.664402 
L 82.401322 242.519079 
L 82.718678 242.223675 
L 83.036033 241.476519 
L 83.353388 241.385609 
L 83.670744 240.888236 
L 83.988099 239.988041 
L 84.305455 239.933468 
L 84.940165 238.992667 
L 85.257521 238.502494 
L 85.574876 238.441614 
L 86.209587 237.70753 
L 86.526942 237.311572 
L 86.844298 236.482638 
L 87.161653 236.473456 
L 89.38314 233.159627 
L 89.700496 233.002478 
L 90.017851 232.71404 
L 90.335207 232.590461 
L 90.969917 231.012125 
L 91.604628 230.857291 
L 91.921983 230.738814 
L 92.239339 230.456611 
L 92.556694 229.752858 
L 93.50876 228.746823 
L 93.826116 228.668415 
L 94.143471 228.096565 
L 94.460826 228.011501 
L 94.778182 227.221857 
L 95.730248 227.062411 
L 96.047603 226.900315 
L 96.999669 225.65979 
L 97.63438 225.5971 
L 98.269091 224.877093 
L 98.903802 224.377043 
L 100.173223 223.693267 
L 100.490579 223.638303 
L 101.76 222.092745 
L 102.077355 221.91505 
L 102.394711 221.494212 
L 102.712066 221.304126 
L 103.029421 221.262548 
L 103.664132 220.436479 
L 104.298843 220.022072 
L 104.933554 219.753639 
L 105.250909 219.104755 
L 105.88562 218.645039 
L 106.520331 218.255124 
L 107.155041 218.045596 
L 107.472397 217.923787 
L 108.107107 217.308808 
L 108.424463 217.236725 
L 108.741818 216.971244 
L 109.059174 216.859515 
L 109.376529 216.546509 
L 110.328595 216.120153 
L 110.64595 215.874163 
L 110.963306 215.821471 
L 111.280661 215.287711 
L 111.598017 215.240753 
L 111.915372 215.068408 
L 112.232727 214.599721 
L 114.13686 213.998294 
L 114.454215 213.612934 
L 115.088926 213.26416 
L 115.406281 212.829693 
L 116.040992 212.777135 
L 117.945124 211.353458 
L 120.801322 210.632542 
L 121.118678 210.307279 
L 121.436033 210.179426 
L 122.070744 209.689651 
L 122.388099 209.657698 
L 123.340165 209.126769 
L 124.292231 208.423599 
L 124.609587 208.407561 
L 125.561653 207.897506 
L 126.196364 207.631794 
L 126.513719 207.340854 
L 126.831074 207.329841 
L 128.100496 206.887336 
L 128.417851 206.122071 
L 129.052562 205.80807 
L 129.369917 205.720267 
L 130.004628 205.304853 
L 130.639339 205.12903 
L 131.27405 204.743451 
L 131.90876 204.492182 
L 132.226116 204.430949 
L 132.543471 204.174031 
L 132.860826 204.084775 
L 133.178182 203.653159 
L 133.812893 203.587969 
L 134.447603 203.319037 
L 134.764959 202.971088 
L 135.082314 202.93322 
L 135.717025 202.427007 
L 136.351736 202.310015 
L 136.669091 202.021773 
L 137.938512 201.707404 
L 140.794711 201.108082 
L 141.112066 200.700785 
L 142.064132 200.477828 
L 142.381488 200.001031 
L 143.650909 199.688706 
L 144.602975 199.183746 
L 144.920331 198.907295 
L 145.237686 198.813839 
L 145.555041 198.576423 
L 145.872397 198.547952 
L 146.824463 198.21311 
L 149.363306 197.54248 
L 150.950083 196.778526 
L 151.267438 196.569481 
L 152.219504 196.31757 
L 153.17157 195.747054 
L 154.440992 195.405514 
L 154.758347 195.10433 
L 155.393058 195.025685 
L 156.979835 194.370206 
L 157.931901 194.19038 
L 158.249256 194.007603 
L 158.566612 193.965389 
L 158.883967 193.810042 
L 159.201322 193.327191 
L 162.057521 192.500634 
L 162.692231 192.417624 
L 163.644298 192.01398 
L 163.961653 191.742573 
L 164.596364 191.588725 
L 164.913719 191.555827 
L 165.54843 191.241775 
L 166.18314 191.166244 
L 166.500496 190.867321 
L 168.087273 190.51976 
L 168.404628 190.028695 
L 169.039339 189.840923 
L 169.67405 189.555741 
L 170.30876 189.466972 
L 170.626116 189.015674 
L 174.43438 188.244849 
L 174.751736 188.101012 
L 175.069091 187.76229 
L 176.338512 187.606809 
L 176.655868 187.467166 
L 176.973223 187.150661 
L 177.607934 187.070123 
L 177.925289 186.865019 
L 178.242645 186.83908 
L 178.56 186.653756 
L 178.877355 186.616168 
L 179.194711 186.357226 
L 181.098843 185.953902 
L 182.050909 185.487037 
L 183.637686 185.056546 
L 184.272397 185.00793 
L 185.224463 184.679188 
L 185.859174 184.563624 
L 186.493884 184.241953 
L 187.763306 183.87601 
L 188.715372 183.488814 
L 189.350083 183.072769 
L 190.302149 182.680069 
L 190.93686 182.525317 
L 191.888926 182.338857 
L 193.158347 182.092932 
L 193.793058 181.886691 
L 194.427769 181.729048 
L 195.062479 181.437764 
L 196.014545 181.241304 
L 196.966612 180.981386 
L 197.283967 180.366464 
L 197.918678 180.066598 
L 199.505455 179.761228 
L 200.457521 179.628773 
L 201.092231 179.43928 
L 201.409587 179.163312 
L 201.726942 179.051216 
L 202.044298 178.814961 
L 202.679008 178.757437 
L 203.313719 178.618667 
L 204.265785 178.48778 
L 204.58314 178.23071 
L 206.487273 177.882184 
L 206.804628 177.696997 
L 207.121983 177.68666 
L 207.439339 177.222955 
L 209.026116 176.541097 
L 209.343471 176.538488 
L 209.660826 176.115655 
L 212.83438 175.654146 
L 214.421157 175.265545 
L 214.738512 174.89901 
L 218.546777 173.951312 
L 220.133554 173.281788 
L 221.08562 173.119569 
L 222.355041 172.859939 
L 222.989752 172.518117 
L 223.624463 172.375905 
L 223.941818 172.329487 
L 224.576529 172.113067 
L 226.163306 171.74637 
L 227.432727 171.245362 
L 227.750083 170.967983 
L 228.384793 170.903963 
L 228.702149 170.644867 
L 229.97157 170.480082 
L 230.606281 169.919847 
L 233.145124 169.466231 
L 233.779835 169.182021 
L 234.414545 169.015945 
L 235.366612 168.837596 
L 236.001322 168.469915 
L 237.905455 168.06317 
L 238.22281 167.514772 
L 238.540165 167.21267 
L 242.34843 166.402201 
L 242.665785 165.981329 
L 244.887273 165.578167 
L 245.204628 165.368855 
L 247.10876 164.957279 
L 247.743471 164.815318 
L 248.378182 164.608655 
L 249.330248 164.126277 
L 250.282314 163.979183 
L 251.869091 163.226783 
L 255.042645 162.647517 
L 255.36 162.40784 
L 255.677355 162.342714 
L 255.994711 161.997646 
L 257.581488 161.773766 
L 257.898843 161.49362 
L 259.48562 161.315991 
L 261.072397 160.431926 
L 262.024463 160.216344 
L 262.976529 160.143642 
L 263.293884 159.944268 
L 263.928595 159.745874 
L 264.880661 159.328634 
L 266.150083 159.047324 
L 266.467438 159.033801 
L 266.784793 158.892129 
L 267.419504 158.81601 
L 268.054215 158.383959 
L 268.37157 158.355666 
L 268.688926 158.105092 
L 269.323636 158.022954 
L 269.640992 157.778408 
L 270.593058 157.595679 
L 270.910413 157.03407 
L 275.670744 155.75576 
L 276.305455 155.40481 
L 277.574876 155.159653 
L 277.892231 155.1162 
L 278.209587 154.867035 
L 278.526942 154.817618 
L 279.479008 154.211144 
L 280.74843 154.058626 
L 281.38314 153.858702 
L 282.017851 153.757264 
L 282.652562 153.118384 
L 283.921983 152.898573 
L 284.239339 152.880254 
L 284.87405 152.501365 
L 286.143471 152.198155 
L 286.778182 152.116515 
L 287.095537 151.92513 
L 288.047603 151.710134 
L 289.317025 151.137824 
L 289.951736 151.019472 
L 290.586446 150.820482 
L 291.221157 150.294248 
L 292.173223 150.069755 
L 293.76 149.745731 
L 294.077355 149.288733 
L 294.394711 149.0916 
L 295.346777 148.915226 
L 295.664132 148.741722 
L 296.298843 148.647589 
L 298.837686 147.774413 
L 299.472397 147.421164 
L 300.107107 147.222599 
L 300.741818 147.084698 
L 303.280661 146.230399 
L 304.232727 146.056356 
L 306.454215 145.146712 
L 306.77157 145.129457 
L 307.088926 144.945928 
L 307.723636 144.812166 
L 308.675702 144.62902 
L 308.993058 144.223204 
L 310.262479 143.821114 
L 311.531901 143.244208 
L 314.070744 142.384618 
L 314.388099 142.371682 
L 315.657521 141.337178 
L 316.926942 141.115616 
L 319.465785 139.984681 
L 320.100496 139.916028 
L 320.417851 139.626486 
L 321.052562 139.503137 
L 322.321983 138.981936 
L 323.27405 138.80835 
L 324.543471 138.346658 
L 324.860826 138.257257 
L 325.178182 138.021894 
L 325.495537 137.975921 
L 326.130248 137.357234 
L 327.082314 137.195091 
L 328.03438 136.813919 
L 328.351736 136.432945 
L 328.986446 136.242095 
L 330.255868 136.012335 
L 330.890579 135.718655 
L 331.207934 135.565025 
L 331.525289 135.247085 
L 332.477355 134.977432 
L 332.794711 134.658761 
L 333.746777 134.431266 
L 334.381488 134.198221 
L 335.650909 133.816798 
L 335.968264 133.485653 
L 337.237686 133.063551 
L 337.555041 132.462956 
L 338.507107 132.2835 
L 339.776529 131.607515 
L 340.093884 131.215073 
L 341.363306 130.797805 
L 341.680661 130.477042 
L 346.123636 129.093124 
L 346.440992 128.410294 
L 347.075702 128.303664 
L 347.710413 127.771621 
L 348.027769 127.741937 
L 348.345124 127.329516 
L 350.249256 126.271541 
L 351.518678 125.773453 
L 352.153388 125.47894 
L 352.788099 125.327436 
L 353.105455 125.125182 
L 353.42281 124.657803 
L 354.374876 124.324308 
L 355.009587 123.915894 
L 355.326942 123.543079 
L 356.913719 123.235169 
L 358.500496 122.180893 
L 358.817851 121.637715 
L 359.452562 121.25224 
L 360.087273 121.0625 
L 360.404628 120.338336 
L 361.039339 120.09122 
L 361.356694 119.672221 
L 361.67405 119.450557 
L 362.30876 119.260018 
L 362.626116 119.021401 
L 363.260826 118.853017 
L 364.847603 117.616478 
L 366.117025 117.131449 
L 367.703802 116.495708 
L 368.021157 115.684033 
L 368.973223 114.887699 
L 369.290579 114.39136 
L 369.925289 113.909034 
L 370.242645 113.846494 
L 370.877355 113.490743 
L 371.512066 112.817504 
L 372.464132 112.409335 
L 372.781488 111.771527 
L 373.098843 111.502647 
L 373.416198 110.921875 
L 373.733554 110.579407 
L 374.68562 110.300588 
L 375.002975 110.246557 
L 376.272397 108.894722 
L 376.907107 108.419833 
L 377.541818 108.234261 
L 377.859174 107.486186 
L 378.493884 107.14823 
L 378.81124 106.464705 
L 379.128595 106.428104 
L 379.44595 105.627715 
L 380.080661 104.77354 
L 380.398017 104.631168 
L 381.032727 104.1983 
L 381.350083 104.17324 
L 381.984793 103.658591 
L 382.302149 103.575574 
L 382.619504 102.763305 
L 382.93686 102.256998 
L 383.254215 101.380282 
L 383.57157 101.307325 
L 384.840992 99.725865 
L 385.793058 99.195155 
L 386.110413 98.897244 
L 386.745124 97.545275 
L 387.379835 97.295949 
L 387.69719 97.013607 
L 388.014545 95.669031 
L 388.331901 95.351458 
L 388.649256 94.541073 
L 388.966612 94.383366 
L 389.283967 93.576096 
L 389.601322 93.501779 
L 390.870744 90.822274 
L 391.505455 89.881488 
L 391.82281 89.588921 
L 392.140165 87.745859 
L 392.457521 86.692789 
L 393.092231 85.958635 
L 393.726942 84.302451 
L 394.361653 81.514896 
L 394.679008 80.62152 
L 394.996364 80.372279 
L 395.313719 79.307997 
L 395.631074 79.080108 
L 396.58314 73.811712 
L 396.900496 73.322987 
L 397.217851 66.56448 
L 397.535207 66.083864 
L 397.852562 64.117093 
L 398.487273 53.568 
L 398.487273 53.568 
" clip-path="url(#pb5849d8a72)" style="fill: none; stroke: #1f77b4; stroke-width: 1.5; stroke-linecap: square"/>
   </g>
   <g id="line2d_14">
    <path d="M 73.832727 295.488 
L 74.150083 282.562233 
L 74.467438 281.296957 
L 74.784793 277.624994 
L 75.102149 271.905803 
L 75.419504 269.636467 
L 76.054215 266.990366 
L 76.37157 264.699231 
L 76.688926 264.69923 
L 77.006281 263.561598 
L 77.323636 259.816783 
L 77.640992 258.980038 
L 77.958347 257.589964 
L 78.275702 256.710706 
L 78.593058 256.710701 
L 78.910413 255.445427 
L 79.227769 255.401011 
L 80.179835 251.773466 
L 80.49719 251.773466 
L 81.131901 250.635833 
L 81.449256 250.283869 
L 82.718678 246.891018 
L 83.036033 246.212552 
L 83.353388 246.054274 
L 83.670744 245.730338 
L 83.988099 244.751808 
L 84.305455 244.664202 
L 84.62281 243.784939 
L 84.940165 243.784935 
L 85.257521 243.228985 
L 85.574876 243.160987 
L 85.892231 242.519663 
L 86.209587 242.475244 
L 86.526942 242.189335 
L 86.844298 241.515607 
L 87.479008 240.646349 
L 88.431074 238.847702 
L 88.74843 238.847701 
L 89.065785 238.179461 
L 89.700496 237.710068 
L 90.335207 237.358107 
L 90.969917 235.796414 
L 91.604628 235.754798 
L 91.921983 235.581485 
L 92.87405 234.095867 
L 93.191405 233.965253 
L 93.50876 233.286784 
L 93.826116 233.128511 
L 95.095537 231.918466 
L 96.047603 231.622859 
L 96.364959 230.859173 
L 96.682314 230.85917 
L 96.999669 230.47329 
L 97.63438 230.235219 
L 97.951736 229.593898 
L 98.269091 229.549477 
L 98.586446 229.263572 
L 98.903802 229.256728 
L 99.221157 228.823147 
L 100.173223 228.474508 
L 100.490579 228.213075 
L 100.807934 227.720581 
L 101.125289 227.521381 
L 101.76 226.794974 
L 102.077355 226.687428 
L 102.394711 225.934922 
L 103.029421 225.921937 
L 103.346777 225.253693 
L 103.981488 224.784304 
L 104.616198 224.588203 
L 104.933554 224.432345 
L 105.250909 223.543401 
L 105.88562 223.325658 
L 106.202975 223.005441 
L 106.520331 222.870645 
L 107.155041 222.829037 
L 107.472397 222.655723 
L 107.789752 222.177349 
L 108.107107 222.116351 
L 108.424463 221.862624 
L 108.741818 221.796018 
L 109.693884 221.082062 
L 110.328595 221.00105 
L 110.64595 220.361018 
L 110.963306 220.202747 
L 111.280661 219.878816 
L 111.598017 219.851761 
L 112.550083 219.29697 
L 114.13686 218.697096 
L 114.454215 217.974436 
L 115.088926 217.933405 
L 115.406281 217.547527 
L 116.040992 217.309451 
L 116.358347 217.281143 
L 116.675702 216.668133 
L 116.993058 216.623711 
L 117.310413 216.337808 
L 117.627769 216.330963 
L 117.945124 215.897385 
L 118.579835 215.810402 
L 119.214545 215.66407 
L 120.483967 215.426608 
L 120.801322 215.287311 
L 121.436033 214.794814 
L 121.753388 214.59562 
L 122.070744 214.535581 
L 122.705455 214.024067 
L 123.340165 213.764704 
L 123.657521 213.761664 
L 123.974876 213.009161 
L 124.926942 212.885099 
L 126.196364 212.066321 
L 126.513719 212.048153 
L 126.831074 211.880246 
L 127.465785 211.806153 
L 128.100496 211.506582 
L 128.417851 210.617635 
L 129.052562 210.480226 
L 129.369917 210.3999 
L 129.687273 209.944878 
L 130.321983 209.903275 
L 131.591405 209.251582 
L 131.90876 209.190586 
L 132.226116 208.936862 
L 132.543471 208.870253 
L 132.860826 208.596671 
L 133.178182 208.505127 
L 133.495537 208.244337 
L 134.447603 208.075285 
L 134.764959 207.435252 
L 135.717025 207.159533 
L 136.03438 206.953056 
L 136.351736 206.926003 
L 137.303802 206.402404 
L 138.890579 206.197208 
L 139.525289 206.066937 
L 140.794711 205.771333 
L 141.112066 205.156937 
L 141.746777 205.007642 
L 142.064132 205.00764 
L 142.381488 204.629078 
L 142.698843 204.621764 
L 143.333554 204.383685 
L 143.968264 204.275352 
L 144.28562 203.742368 
L 144.602975 203.697946 
L 144.920331 203.412044 
L 145.237686 203.405199 
L 145.555041 203.269978 
L 145.872397 202.971623 
L 146.507107 202.884637 
L 147.141818 202.738302 
L 148.728595 202.500845 
L 149.998017 201.869048 
L 150.315372 201.669857 
L 150.632727 201.609815 
L 150.950083 201.302628 
L 151.584793 201.282648 
L 151.902149 200.943443 
L 152.854215 200.581519 
L 153.488926 200.083399 
L 154.758347 199.959333 
L 155.710413 199.424988 
L 156.027769 199.40216 
L 156.662479 198.982707 
L 157.614545 198.880391 
L 158.249256 198.64724 
L 158.883967 198.580819 
L 159.201322 197.821488 
L 159.836033 197.568258 
L 161.105455 197.47414 
L 161.740165 197.391961 
L 162.057521 197.01911 
L 162.692231 196.977513 
L 163.326942 196.711602 
L 163.644298 196.689118 
L 163.961653 196.332353 
L 164.596364 196.264821 
L 164.913719 196.045997 
L 165.54843 195.944488 
L 166.18314 195.670904 
L 168.087273 195.14952 
L 168.404628 194.509486 
L 170.30876 194.000243 
L 170.626116 193.487027 
L 171.578182 193.347149 
L 174.117025 192.961152 
L 174.751736 192.772051 
L 175.069091 192.413847 
L 176.338512 192.081876 
L 176.655868 192.081876 
L 176.973223 191.703314 
L 177.290579 191.696002 
L 177.925289 191.457919 
L 179.194711 191.234422 
L 179.512066 190.816603 
L 180.464132 190.711252 
L 180.781488 190.48628 
L 181.098843 190.479435 
L 181.416198 190.344208 
L 181.733554 190.045859 
L 182.050909 190.019799 
L 182.368264 189.84207 
L 184.272397 189.575086 
L 184.907107 189.322752 
L 185.541818 189.26253 
L 186.176529 188.952372 
L 186.81124 188.933955 
L 187.128595 188.744094 
L 187.44595 188.684049 
L 187.763306 188.376861 
L 188.398017 188.356886 
L 188.715372 188.017677 
L 189.032727 187.913169 
L 189.667438 187.437694 
L 190.619504 187.144647 
L 191.57157 187.033569 
L 191.888926 187.025111 
L 192.206281 186.859452 
L 192.840992 186.815911 
L 193.158347 186.583218 
L 194.110413 186.476394 
L 194.745124 186.028719 
L 195.379835 185.954629 
L 195.69719 185.810916 
L 196.966612 185.655056 
L 197.283967 184.895717 
L 197.601322 184.642494 
L 199.188099 184.466187 
L 199.505455 184.432245 
L 200.140165 184.093343 
L 200.774876 184.051749 
L 201.409587 183.785841 
L 201.726942 183.763347 
L 202.044298 183.415569 
L 203.313719 183.339056 
L 203.631074 183.12023 
L 204.265785 183.018723 
L 204.58314 182.822146 
L 205.535207 182.703773 
L 206.169917 182.607143 
L 206.804628 182.262198 
L 207.121983 182.223754 
L 207.439339 181.993651 
L 207.756694 181.495009 
L 209.343471 181.101536 
L 209.660826 180.56126 
L 210.930248 180.421383 
L 213.469091 180.122977 
L 214.421157 179.84628 
L 214.738512 179.488086 
L 215.373223 179.376107 
L 215.690579 179.355419 
L 216.007934 179.156112 
L 216.642645 179.097696 
L 216.96 179.026792 
L 217.277355 178.77755 
L 217.912066 178.683016 
L 218.546777 178.42383 
L 219.181488 178.308651 
L 219.816198 177.890839 
L 221.08562 177.785491 
L 221.402975 177.596322 
L 222.355041 177.418439 
L 222.672397 177.120096 
L 222.989752 177.094035 
L 223.307107 176.916312 
L 224.893884 176.694998 
L 225.21124 176.609445 
L 225.528595 176.396994 
L 226.163306 176.336754 
L 228.067438 175.451095 
L 229.019504 175.290653 
L 229.33686 175.091911 
L 229.97157 174.987403 
L 230.606281 174.51192 
L 231.558347 174.218884 
L 232.510413 174.107806 
L 233.145124 174.03542 
L 234.731901 173.573467 
L 235.049256 173.550629 
L 235.683967 173.102955 
L 236.318678 173.028867 
L 236.636033 172.885155 
L 237.905455 172.729293 
L 238.22281 171.969945 
L 238.540165 171.716731 
L 240.444298 171.540415 
L 240.761653 171.506483 
L 241.396364 171.167577 
L 242.031074 171.091449 
L 242.98314 170.489797 
L 243.935207 170.413293 
L 244.252562 170.194464 
L 244.887273 170.092959 
L 245.204628 169.896394 
L 246.156694 169.778003 
L 246.791405 169.681374 
L 247.10876 169.467041 
L 248.695537 169.067886 
L 249.647603 168.569243 
L 250.599669 168.382253 
L 250.917025 168.197161 
L 251.23438 168.175776 
L 251.551736 167.78134 
L 251.869091 167.628476 
L 252.821157 167.593916 
L 253.455868 167.468172 
L 255.36 167.197213 
L 255.994711 166.562324 
L 257.264132 166.429659 
L 257.581488 166.230347 
L 258.533554 166.171923 
L 258.850909 165.851786 
L 259.48562 165.757243 
L 260.120331 165.450918 
L 260.437686 165.38288 
L 261.072397 164.942646 
L 261.707107 164.859729 
L 262.659174 164.652439 
L 263.61124 164.492671 
L 264.24595 163.990552 
L 265.832727 163.769234 
L 268.054215 163.082438 
L 268.37157 162.832519 
L 269.323636 162.52533 
L 269.640992 162.384116 
L 269.958347 162.364887 
L 270.593058 162.061637 
L 270.910413 161.473916 
L 275.353388 160.363268 
L 275.670744 160.17719 
L 275.988099 160.16508 
L 276.305455 159.959393 
L 277.574876 159.843688 
L 278.526942 159.456359 
L 279.161653 158.777158 
L 279.796364 158.699649 
L 280.431074 158.645497 
L 281.38314 158.411235 
L 281.700496 158.241811 
L 282.017851 158.241811 
L 282.335207 158.054605 
L 282.652562 157.600544 
L 283.921983 157.487529 
L 284.556694 157.167194 
L 288.364959 156.14212 
L 289.317025 155.704896 
L 290.586446 155.456492 
L 291.221157 154.70271 
L 291.855868 154.569852 
L 293.442645 154.359216 
L 293.76 154.292097 
L 294.394711 153.606774 
L 296.298843 153.246152 
L 296.933554 152.926024 
L 297.568264 152.831473 
L 298.202975 152.525148 
L 298.520331 152.45711 
L 299.155041 152.016885 
L 299.472397 152.010316 
L 300.107107 151.746129 
L 300.741818 151.702145 
L 301.059174 151.566905 
L 301.693884 151.437756 
L 302.64595 150.868866 
L 303.598017 150.757922 
L 304.232727 150.545475 
L 304.867438 150.477398 
L 305.502149 149.969466 
L 307.088926 149.599565 
L 307.406281 149.458357 
L 307.723636 149.439121 
L 308.675702 149.135871 
L 308.993058 148.736611 
L 309.945124 148.274536 
L 310.579835 148.183896 
L 310.89719 147.902508 
L 312.166612 147.635212 
L 312.801322 147.267168 
L 313.436033 147.225966 
L 314.070744 146.932325 
L 314.705455 146.808065 
L 315.340165 146.118405 
L 315.657521 145.781092 
L 316.926942 145.671597 
L 317.561653 145.316046 
L 318.196364 145.265798 
L 318.513719 144.674772 
L 319.78314 144.549609 
L 320.417851 144.24143 
L 320.735207 144.161397 
L 321.052562 143.926466 
L 321.687273 143.864658 
L 322.004628 143.553696 
L 322.639339 143.446458 
L 323.27405 143.376667 
L 323.90876 143.169754 
L 325.495537 142.6363 
L 325.812893 142.203552 
L 326.130248 142.163578 
L 326.447603 141.776943 
L 327.082314 141.644088 
L 328.03438 141.433451 
L 328.351736 141.044566 
L 329.303802 140.624356 
L 330.573223 140.528653 
L 330.890579 140.371477 
L 331.525289 139.726556 
L 332.16 139.599379 
L 332.477355 139.531341 
L 332.794711 139.091124 
L 333.429421 139.029173 
L 334.381488 138.800913 
L 334.698843 138.791421 
L 336.920331 137.679831 
L 337.237686 137.619714 
L 337.555041 137.043712 
L 338.824463 136.687727 
L 339.776529 136.210106 
L 340.093884 135.707171 
L 341.363306 135.322035 
L 341.680661 134.976749 
L 342.315372 134.910984 
L 342.632727 134.709445 
L 342.950083 134.702417 
L 343.267438 134.511743 
L 343.584793 134.492709 
L 343.902149 134.341399 
L 344.53686 134.300206 
L 345.17157 134.00656 
L 345.806281 133.882304 
L 346.123636 133.604818 
L 346.440992 132.855323 
L 347.075702 132.847095 
L 347.710413 132.390279 
L 348.027769 132.340023 
L 348.345124 131.712485 
L 348.662479 131.623832 
L 349.614545 131.0007 
L 350.566612 130.93888 
L 350.883967 130.502555 
L 351.201322 130.313875 
L 351.836033 130.244001 
L 352.153388 130.067953 
L 352.470744 130.040957 
L 353.105455 129.71054 
L 353.42281 129.27779 
L 353.740165 129.237802 
L 354.057521 128.851177 
L 354.692231 128.718324 
L 355.009587 128.535851 
L 355.326942 128.118795 
L 355.961653 127.946362 
L 356.279008 127.755236 
L 357.54843 127.461672 
L 358.18314 126.789664 
L 358.500496 126.673611 
L 358.817851 126.165364 
L 359.135207 125.87515 
L 359.452562 125.865671 
L 360.087273 125.586233 
L 360.404628 124.891088 
L 361.039339 124.754065 
L 361.356694 124.117957 
L 363.895537 123.106693 
L 364.530248 122.423005 
L 366.43438 121.415631 
L 367.069091 121.374445 
L 367.703802 121.025436 
L 368.021157 120.277823 
L 368.338512 119.929554 
L 368.655868 119.922357 
L 369.290579 118.786716 
L 369.607934 118.698057 
L 370.242645 118.309868 
L 370.56 118.251864 
L 370.877355 118.056303 
L 371.194711 117.576791 
L 371.829421 117.142199 
L 372.146777 117.115193 
L 372.464132 116.927597 
L 373.098843 115.92541 
L 373.416198 115.584259 
L 373.733554 115.020591 
L 374.050909 114.829468 
L 375.320331 114.535892 
L 375.637686 113.863883 
L 375.955041 113.747843 
L 376.907107 112.949389 
L 377.224463 112.939919 
L 377.541818 112.775887 
L 377.859174 111.965315 
L 378.493884 111.828299 
L 378.81124 110.972975 
L 379.128595 110.960989 
L 379.44595 110.180941 
L 380.398017 109.105442 
L 381.350083 108.489863 
L 381.667438 108.462007 
L 382.302149 108.099665 
L 382.619504 107.352062 
L 382.93686 106.90811 
L 383.254215 105.860946 
L 383.57157 105.846281 
L 383.888926 105.384102 
L 384.206281 105.130531 
L 384.840992 104.216444 
L 385.158347 104.173349 
L 385.793058 103.717659 
L 386.110413 103.386252 
L 386.745124 102.122568 
L 387.062479 101.847051 
L 387.69719 101.610115 
L 388.014545 100.286502 
L 388.331901 99.850118 
L 388.649256 99.039542 
L 388.966612 98.916606 
L 389.283967 98.047205 
L 389.601322 98.035226 
L 390.553388 95.564096 
L 390.870744 95.53624 
L 391.188099 94.580536 
L 391.505455 94.439764 
L 391.82281 94.4263 
L 392.140165 92.204759 
L 392.457521 91.247584 
L 393.409587 89.732713 
L 393.726942 88.825584 
L 394.361653 86.113771 
L 394.679008 85.121437 
L 394.996364 84.896484 
L 395.313719 84.005396 
L 395.631074 83.47381 
L 396.265785 79.278988 
L 396.58314 78.321818 
L 396.900496 77.866124 
L 397.217851 71.079609 
L 397.535207 70.548037 
L 397.852562 68.588216 
L 398.487273 58.153822 
L 398.487273 58.153822 
" clip-path="url(#pb5849d8a72)" style="fill: none; stroke: #ff7f0e; stroke-width: 1.5; stroke-linecap: square"/>
   </g>
   <g id="patch_3">
    <path d="M 57.6 307.584 
L 57.6 41.472 
" style="fill: none; stroke: #000000; stroke-width: 0.8; stroke-linejoin: miter; stroke-linecap: square"/>
   </g>
   <g id="patch_4">
    <path d="M 414.72 307.584 
L 414.72 41.472 
" style="fill: none; stroke: #000000; stroke-width: 0.8; stroke-linejoin: miter; stroke-linecap: square"/>
   </g>
   <g id="patch_5">
    <path d="M 57.6 307.584 
L 414.72 307.584 
" style="fill: none; stroke: #000000; stroke-width: 0.8; stroke-linejoin: miter; stroke-linecap: square"/>
   </g>
   <g id="patch_6">
    <path d="M 57.6 41.472 
L 414.72 41.472 
" style="fill: none; stroke: #000000; stroke-width: 0.8; stroke-linejoin: miter; stroke-linecap: square"/>
   </g>
   <g id="legend_1">
    <g id="patch_7">
     <path d="M 64.6 78.82825 
L 129.342187 78.82825 
Q 131.342187 78.82825 131.342187 76.82825 
L 131.342187 48.472 
Q 131.342187 46.472 129.342187 46.472 
L 64.6 46.472 
Q 62.6 46.472 62.6 48.472 
L 62.6 76.82825 
Q 62.6 78.82825 64.6 78.82825 
z
" style="fill: #ffffff; opacity: 0.8; stroke: #cccccc; stroke-linejoin: miter"/>
    </g>
    <g id="line2d_15">
     <path d="M 66.6 54.570437 
L 76.6 54.570437 
L 86.6 54.570437 
" style="fill: none; stroke: #1f77b4; stroke-width: 1.5; stroke-linecap: square"/>
    </g>
    <g id="text_15">
     <!-- qc -->
     <g transform="translate(94.6 58.070437) scale(0.1 -0.1)">
      <defs>
       <path id="DejaVuSans-71" d="M 947 1747 
Q 947 1113 1208 752 
Q 1469 391 1925 391 
Q 2381 391 2643 752 
Q 2906 1113 2906 1747 
Q 2906 2381 2643 2742 
Q 2381 3103 1925 3103 
Q 1469 3103 1208 2742 
Q 947 2381 947 1747 
z
M 2906 525 
Q 2725 213 2448 61 
Q 2172 -91 1784 -91 
Q 1150 -91 751 415 
Q 353 922 353 1747 
Q 353 2572 751 3078 
Q 1150 3584 1784 3584 
Q 2172 3584 2448 3432 
Q 2725 3281 2906 2969 
L 2906 3500 
L 3481 3500 
L 3481 -1331 
L 2906 -1331 
L 2906 525 
z
" transform="scale(0.015625)"/>
       <path id="DejaVuSans-63" d="M 3122 3366 
L 3122 2828 
Q 2878 2963 2633 3030 
Q 2388 3097 2138 3097 
Q 1578 3097 1268 2742 
Q 959 2388 959 1747 
Q 959 1106 1268 751 
Q 1578 397 2138 397 
Q 2388 397 2633 464 
Q 2878 531 3122 666 
L 3122 134 
Q 2881 22 2623 -34 
Q 2366 -91 2075 -91 
Q 1284 -91 818 406 
Q 353 903 353 1747 
Q 353 2603 823 3093 
Q 1294 3584 2113 3584 
Q 2378 3584 2631 3529 
Q 2884 3475 3122 3366 
z
" transform="scale(0.015625)"/>
      </defs>
      <use xlink:href="#DejaVuSans-71"/>
      <use xlink:href="#DejaVuSans-63" x="63.476562"/>
     </g>
    </g>
    <g id="line2d_16">
     <path d="M 66.6 69.248562 
L 76.6 69.248562 
L 86.6 69.248562 
" style="fill: none; stroke: #ff7f0e; stroke-width: 1.5; stroke-linecap: square"/>
    </g>
    <g id="text_16">
     <!-- Trotter -->
     <g transform="translate(94.6 72.748562) scale(0.1 -0.1)">
      <defs>
       <path id="DejaVuSans-54" d="M -19 4666 
L 3928 4666 
L 3928 4134 
L 2272 4134 
L 2272 0 
L 1638 0 
L 1638 4134 
L -19 4134 
L -19 4666 
z
" transform="scale(0.015625)"/>
       <path id="DejaVuSans-72" d="M 2631 2963 
Q 2534 3019 2420 3045 
Q 2306 3072 2169 3072 
Q 1681 3072 1420 2755 
Q 1159 2438 1159 1844 
L 1159 0 
L 581 0 
L 581 3500 
L 1159 3500 
L 1159 2956 
Q 1341 3275 1631 3429 
Q 1922 3584 2338 3584 
Q 2397 3584 2469 3576 
Q 2541 3569 2628 3553 
L 2631 2963 
z
" transform="scale(0.015625)"/>
       <path id="DejaVuSans-6f" d="M 1959 3097 
Q 1497 3097 1228 2736 
Q 959 2375 959 1747 
Q 959 1119 1226 758 
Q 1494 397 1959 397 
Q 2419 397 2687 759 
Q 2956 1122 2956 1747 
Q 2956 2369 2687 2733 
Q 2419 3097 1959 3097 
z
M 1959 3584 
Q 2709 3584 3137 3096 
Q 3566 2609 3566 1747 
Q 3566 888 3137 398 
Q 2709 -91 1959 -91 
Q 1206 -91 779 398 
Q 353 888 353 1747 
Q 353 2609 779 3096 
Q 1206 3584 1959 3584 
z
" transform="scale(0.015625)"/>
       <path id="DejaVuSans-65" d="M 3597 1894 
L 3597 1613 
L 953 1613 
Q 991 1019 1311 708 
Q 1631 397 2203 397 
Q 2534 397 2845 478 
Q 3156 559 3463 722 
L 3463 178 
Q 3153 47 2828 -22 
Q 2503 -91 2169 -91 
Q 1331 -91 842 396 
Q 353 884 353 1716 
Q 353 2575 817 3079 
Q 1281 3584 2069 3584 
Q 2775 3584 3186 3129 
Q 3597 2675 3597 1894 
z
M 3022 2063 
Q 3016 2534 2758 2815 
Q 2500 3097 2075 3097 
Q 1594 3097 1305 2825 
Q 1016 2553 972 2059 
L 3022 2063 
z
" transform="scale(0.015625)"/>
      </defs>
      <use xlink:href="#DejaVuSans-54"/>
      <use xlink:href="#DejaVuSans-72" x="46.333984"/>
      <use xlink:href="#DejaVuSans-6f" x="85.197266"/>
      <use xlink:href="#DejaVuSans-74" x="146.378906"/>
      <use xlink:href="#DejaVuSans-74" x="185.587891"/>
      <use xlink:href="#DejaVuSans-65" x="224.796875"/>
      <use xlink:href="#DejaVuSans-72" x="286.320312"/>
     </g>
    </g>
   </g>
  </g>
 </g>
 <defs>
  <clipPath id="pb5849d8a72">
   <rect x="57.6" y="41.472" width="357.12" height="266.112"/>
  </clipPath>
 </defs>
</svg>
