<?xml version="1.0" encoding="utf-8" standalone="no"?>
<!DOCTYPE svg PUBLIC "-//W3C//DTD SVG 1.1//EN"
  "http://www.w3.org/Graphics/SVG/1.1/DTD/svg11.dtd">
<svg xmlns:xlink="http://www.w3.org/1999/xlink" width="460.8pt" height="345.6pt" viewBox="0 0 460.8 345.6" xmlns="http://www.w3.org/2000/svg" version="1.1">
 <metadata>
  <rdf:RDF xmlns:dc="http://purl.org/dc/elements/1.1/" xmlns:cc="http://creativecommons.org/ns#" xmlns:rdf="http://www.w3.org/1999/02/22-rdf-syntax-ns#">
   <cc:Work>
    <dc:type rdf:resource="http://purl.org/dc/dcmitype/StillImage"/>
    <dc:date>2024-08-16T14:12:13.059129</dc:date>
    <dc:format>image/svg+xml</dc:format>
    <dc:creator>
     <cc:Agent>
      <dc:title>Matplotlib v3.7.1, https://matplotlib.org/</dc:title>
     </cc:Agent>
    </dc:creator>
   </cc:Work>
  </rdf:RDF>
 </metadata>
 <defs>
  <style type="text/css">*{stroke-linejoin: round; stroke-linecap: butt}</style>
 </defs>
 <g id="figure_1">
  <g id="patch_1">
   <path d="M 0 345.6 
L 460.8 345.6 
L 460.8 0 
L 0 0 
z
" style="fill: #ffffff"/>
  </g>
  <g id="axes_1">
   <g id="patch_2">
    <path d="M 57.6 307.584 
L 414.72 307.584 
L 414.72 41.472 
L 57.6 41.472 
z
" style="fill: #ffffff"/>
   </g>
   <g id="matplotlib.axis_1">
    <g id="xtick_1">
     <g id="line2d_1">
      <defs>
       <path id="m9760d50271" d="M 0 0 
L 0 3.5 
" style="stroke: #000000; stroke-width: 0.8"/>
      </defs>
      <g>
       <use xlink:href="#m9760d50271" x="73.832727" y="307.584" style="stroke: #000000; stroke-width: 0.8"/>
      </g>
     </g>
     <g id="text_1">
      <!-- 0 -->
      <g transform="translate(70.651477 322.182437) scale(0.1 -0.1)">
       <defs>
        <path id="DejaVuSans-30" d="M 2034 4250 
Q 1547 4250 1301 3770 
Q 1056 3291 1056 2328 
Q 1056 1369 1301 889 
Q 1547 409 2034 409 
Q 2525 409 2770 889 
Q 3016 1369 3016 2328 
Q 3016 3291 2770 3770 
Q 2525 4250 2034 4250 
z
M 2034 4750 
Q 2819 4750 3233 4129 
Q 3647 3509 3647 2328 
Q 3647 1150 3233 529 
Q 2819 -91 2034 -91 
Q 1250 -91 836 529 
Q 422 1150 422 2328 
Q 422 3509 836 4129 
Q 1250 4750 2034 4750 
z
" transform="scale(0.015625)"/>
       </defs>
       <use xlink:href="#DejaVuSans-30"/>
      </g>
     </g>
    </g>
    <g id="xtick_2">
     <g id="line2d_2">
      <g>
       <use xlink:href="#m9760d50271" x="137.303802" y="307.584" style="stroke: #000000; stroke-width: 0.8"/>
      </g>
     </g>
     <g id="text_2">
      <!-- 200 -->
      <g transform="translate(127.760052 322.182437) scale(0.1 -0.1)">
       <defs>
        <path id="DejaVuSans-32" d="M 1228 531 
L 3431 531 
L 3431 0 
L 469 0 
L 469 531 
Q 828 903 1448 1529 
Q 2069 2156 2228 2338 
Q 2531 2678 2651 2914 
Q 2772 3150 2772 3378 
Q 2772 3750 2511 3984 
Q 2250 4219 1831 4219 
Q 1534 4219 1204 4116 
Q 875 4013 500 3803 
L 500 4441 
Q 881 4594 1212 4672 
Q 1544 4750 1819 4750 
Q 2544 4750 2975 4387 
Q 3406 4025 3406 3419 
Q 3406 3131 3298 2873 
Q 3191 2616 2906 2266 
Q 2828 2175 2409 1742 
Q 1991 1309 1228 531 
z
" transform="scale(0.015625)"/>
       </defs>
       <use xlink:href="#DejaVuSans-32"/>
       <use xlink:href="#DejaVuSans-30" x="63.623047"/>
       <use xlink:href="#DejaVuSans-30" x="127.246094"/>
      </g>
     </g>
    </g>
    <g id="xtick_3">
     <g id="line2d_3">
      <g>
       <use xlink:href="#m9760d50271" x="200.774876" y="307.584" style="stroke: #000000; stroke-width: 0.8"/>
      </g>
     </g>
     <g id="text_3">
      <!-- 400 -->
      <g transform="translate(191.231126 322.182437) scale(0.1 -0.1)">
       <defs>
        <path id="DejaVuSans-34" d="M 2419 4116 
L 825 1625 
L 2419 1625 
L 2419 4116 
z
M 2253 4666 
L 3047 4666 
L 3047 1625 
L 3713 1625 
L 3713 1100 
L 3047 1100 
L 3047 0 
L 2419 0 
L 2419 1100 
L 313 1100 
L 313 1709 
L 2253 4666 
z
" transform="scale(0.015625)"/>
       </defs>
       <use xlink:href="#DejaVuSans-34"/>
       <use xlink:href="#DejaVuSans-30" x="63.623047"/>
       <use xlink:href="#DejaVuSans-30" x="127.246094"/>
      </g>
     </g>
    </g>
    <g id="xtick_4">
     <g id="line2d_4">
      <g>
       <use xlink:href="#m9760d50271" x="264.24595" y="307.584" style="stroke: #000000; stroke-width: 0.8"/>
      </g>
     </g>
     <g id="text_4">
      <!-- 600 -->
      <g transform="translate(254.7022 322.182437) scale(0.1 -0.1)">
       <defs>
        <path id="DejaVuSans-36" d="M 2113 2584 
Q 1688 2584 1439 2293 
Q 1191 2003 1191 1497 
Q 1191 994 1439 701 
Q 1688 409 2113 409 
Q 2538 409 2786 701 
Q 3034 994 3034 1497 
Q 3034 2003 2786 2293 
Q 2538 2584 2113 2584 
z
M 3366 4563 
L 3366 3988 
Q 3128 4100 2886 4159 
Q 2644 4219 2406 4219 
Q 1781 4219 1451 3797 
Q 1122 3375 1075 2522 
Q 1259 2794 1537 2939 
Q 1816 3084 2150 3084 
Q 2853 3084 3261 2657 
Q 3669 2231 3669 1497 
Q 3669 778 3244 343 
Q 2819 -91 2113 -91 
Q 1303 -91 875 529 
Q 447 1150 447 2328 
Q 447 3434 972 4092 
Q 1497 4750 2381 4750 
Q 2619 4750 2861 4703 
Q 3103 4656 3366 4563 
z
" transform="scale(0.015625)"/>
       </defs>
       <use xlink:href="#DejaVuSans-36"/>
       <use xlink:href="#DejaVuSans-30" x="63.623047"/>
       <use xlink:href="#DejaVuSans-30" x="127.246094"/>
      </g>
     </g>
    </g>
    <g id="xtick_5">
     <g id="line2d_5">
      <g>
       <use xlink:href="#m9760d50271" x="327.717025" y="307.584" style="stroke: #000000; stroke-width: 0.8"/>
      </g>
     </g>
     <g id="text_5">
      <!-- 800 -->
      <g transform="translate(318.173275 322.182437) scale(0.1 -0.1)">
       <defs>
        <path id="DejaVuSans-38" d="M 2034 2216 
Q 1584 2216 1326 1975 
Q 1069 1734 1069 1313 
Q 1069 891 1326 650 
Q 1584 409 2034 409 
Q 2484 409 2743 651 
Q 3003 894 3003 1313 
Q 3003 1734 2745 1975 
Q 2488 2216 2034 2216 
z
M 1403 2484 
Q 997 2584 770 2862 
Q 544 3141 544 3541 
Q 544 4100 942 4425 
Q 1341 4750 2034 4750 
Q 2731 4750 3128 4425 
Q 3525 4100 3525 3541 
Q 3525 3141 3298 2862 
Q 3072 2584 2669 2484 
Q 3125 2378 3379 2068 
Q 3634 1759 3634 1313 
Q 3634 634 3220 271 
Q 2806 -91 2034 -91 
Q 1263 -91 848 271 
Q 434 634 434 1313 
Q 434 1759 690 2068 
Q 947 2378 1403 2484 
z
M 1172 3481 
Q 1172 3119 1398 2916 
Q 1625 2713 2034 2713 
Q 2441 2713 2670 2916 
Q 2900 3119 2900 3481 
Q 2900 3844 2670 4047 
Q 2441 4250 2034 4250 
Q 1625 4250 1398 4047 
Q 1172 3844 1172 3481 
z
" transform="scale(0.015625)"/>
       </defs>
       <use xlink:href="#DejaVuSans-38"/>
       <use xlink:href="#DejaVuSans-30" x="63.623047"/>
       <use xlink:href="#DejaVuSans-30" x="127.246094"/>
      </g>
     </g>
    </g>
    <g id="xtick_6">
     <g id="line2d_6">
      <g>
       <use xlink:href="#m9760d50271" x="391.188099" y="307.584" style="stroke: #000000; stroke-width: 0.8"/>
      </g>
     </g>
     <g id="text_6">
      <!-- 1000 -->
      <g transform="translate(378.463099 322.182437) scale(0.1 -0.1)">
       <defs>
        <path id="DejaVuSans-31" d="M 794 531 
L 1825 531 
L 1825 4091 
L 703 3866 
L 703 4441 
L 1819 4666 
L 2450 4666 
L 2450 531 
L 3481 531 
L 3481 0 
L 794 0 
L 794 531 
z
" transform="scale(0.015625)"/>
       </defs>
       <use xlink:href="#DejaVuSans-31"/>
       <use xlink:href="#DejaVuSans-30" x="63.623047"/>
       <use xlink:href="#DejaVuSans-30" x="127.246094"/>
       <use xlink:href="#DejaVuSans-30" x="190.869141"/>
      </g>
     </g>
    </g>
    <g id="text_7">
     <!-- n -->
     <g transform="translate(232.99125 335.860562) scale(0.1 -0.1)">
      <defs>
       <path id="DejaVuSans-6e" d="M 3513 2113 
L 3513 0 
L 2938 0 
L 2938 2094 
Q 2938 2591 2744 2837 
Q 2550 3084 2163 3084 
Q 1697 3084 1428 2787 
Q 1159 2491 1159 1978 
L 1159 0 
L 581 0 
L 581 3500 
L 1159 3500 
L 1159 2956 
Q 1366 3272 1645 3428 
Q 1925 3584 2291 3584 
Q 2894 3584 3203 3211 
Q 3513 2838 3513 2113 
z
" transform="scale(0.015625)"/>
      </defs>
      <use xlink:href="#DejaVuSans-6e"/>
     </g>
    </g>
   </g>
   <g id="matplotlib.axis_2">
    <g id="ytick_1">
     <g id="line2d_7">
      <defs>
       <path id="m855425a366" d="M 0 0 
L -3.5 0 
" style="stroke: #000000; stroke-width: 0.8"/>
      </defs>
      <g>
       <use xlink:href="#m855425a366" x="57.6" y="304.03105" style="stroke: #000000; stroke-width: 0.8"/>
      </g>
     </g>
     <g id="text_8">
      <!-- −3 -->
      <g transform="translate(35.857813 307.830269) scale(0.1 -0.1)">
       <defs>
        <path id="DejaVuSans-2212" d="M 678 2272 
L 4684 2272 
L 4684 1741 
L 678 1741 
L 678 2272 
z
" transform="scale(0.015625)"/>
        <path id="DejaVuSans-33" d="M 2597 2516 
Q 3050 2419 3304 2112 
Q 3559 1806 3559 1356 
Q 3559 666 3084 287 
Q 2609 -91 1734 -91 
Q 1441 -91 1130 -33 
Q 819 25 488 141 
L 488 750 
Q 750 597 1062 519 
Q 1375 441 1716 441 
Q 2309 441 2620 675 
Q 2931 909 2931 1356 
Q 2931 1769 2642 2001 
Q 2353 2234 1838 2234 
L 1294 2234 
L 1294 2753 
L 1863 2753 
Q 2328 2753 2575 2939 
Q 2822 3125 2822 3475 
Q 2822 3834 2567 4026 
Q 2313 4219 1838 4219 
Q 1578 4219 1281 4162 
Q 984 4106 628 3988 
L 628 4550 
Q 988 4650 1302 4700 
Q 1616 4750 1894 4750 
Q 2613 4750 3031 4423 
Q 3450 4097 3450 3541 
Q 3450 3153 3228 2886 
Q 3006 2619 2597 2516 
z
" transform="scale(0.015625)"/>
       </defs>
       <use xlink:href="#DejaVuSans-2212"/>
       <use xlink:href="#DejaVuSans-33" x="83.789062"/>
      </g>
     </g>
    </g>
    <g id="ytick_2">
     <g id="line2d_8">
      <g>
       <use xlink:href="#m855425a366" x="57.6" y="259.417763" style="stroke: #000000; stroke-width: 0.8"/>
      </g>
     </g>
     <g id="text_9">
      <!-- −2 -->
      <g transform="translate(35.857813 263.216982) scale(0.1 -0.1)">
       <use xlink:href="#DejaVuSans-2212"/>
       <use xlink:href="#DejaVuSans-32" x="83.789062"/>
      </g>
     </g>
    </g>
    <g id="ytick_3">
     <g id="line2d_9">
      <g>
       <use xlink:href="#m855425a366" x="57.6" y="214.804476" style="stroke: #000000; stroke-width: 0.8"/>
      </g>
     </g>
     <g id="text_10">
      <!-- −1 -->
      <g transform="translate(35.857813 218.603694) scale(0.1 -0.1)">
       <use xlink:href="#DejaVuSans-2212"/>
       <use xlink:href="#DejaVuSans-31" x="83.789062"/>
      </g>
     </g>
    </g>
    <g id="ytick_4">
     <g id="line2d_10">
      <g>
       <use xlink:href="#m855425a366" x="57.6" y="170.191188" style="stroke: #000000; stroke-width: 0.8"/>
      </g>
     </g>
     <g id="text_11">
      <!-- 0 -->
      <g transform="translate(44.2375 173.990407) scale(0.1 -0.1)">
       <use xlink:href="#DejaVuSans-30"/>
      </g>
     </g>
    </g>
    <g id="ytick_5">
     <g id="line2d_11">
      <g>
       <use xlink:href="#m855425a366" x="57.6" y="125.577901" style="stroke: #000000; stroke-width: 0.8"/>
      </g>
     </g>
     <g id="text_12">
      <!-- 1 -->
      <g transform="translate(44.2375 129.37712) scale(0.1 -0.1)">
       <use xlink:href="#DejaVuSans-31"/>
      </g>
     </g>
    </g>
    <g id="ytick_6">
     <g id="line2d_12">
      <g>
       <use xlink:href="#m855425a366" x="57.6" y="80.964614" style="stroke: #000000; stroke-width: 0.8"/>
      </g>
     </g>
     <g id="text_13">
      <!-- 2 -->
      <g transform="translate(44.2375 84.763832) scale(0.1 -0.1)">
       <use xlink:href="#DejaVuSans-32"/>
      </g>
     </g>
    </g>
    <g id="text_14">
     <!-- E*t -->
     <g transform="translate(29.778125 182.147531) rotate(-90) scale(0.1 -0.1)">
      <defs>
       <path id="DejaVuSans-45" d="M 628 4666 
L 3578 4666 
L 3578 4134 
L 1259 4134 
L 1259 2753 
L 3481 2753 
L 3481 2222 
L 1259 2222 
L 1259 531 
L 3634 531 
L 3634 0 
L 628 0 
L 628 4666 
z
" transform="scale(0.015625)"/>
       <path id="DejaVuSans-2a" d="M 3009 3897 
L 1888 3291 
L 3009 2681 
L 2828 2375 
L 1778 3009 
L 1778 1831 
L 1422 1831 
L 1422 3009 
L 372 2375 
L 191 2681 
L 1313 3291 
L 191 3897 
L 372 4206 
L 1422 3572 
L 1422 4750 
L 1778 4750 
L 1778 3572 
L 2828 4206 
L 3009 3897 
z
" transform="scale(0.015625)"/>
       <path id="DejaVuSans-74" d="M 1172 4494 
L 1172 3500 
L 2356 3500 
L 2356 3053 
L 1172 3053 
L 1172 1153 
Q 1172 725 1289 603 
Q 1406 481 1766 481 
L 2356 481 
L 2356 0 
L 1766 0 
Q 1100 0 847 248 
Q 594 497 594 1153 
L 594 3053 
L 172 3053 
L 172 3500 
L 594 3500 
L 594 4494 
L 1172 4494 
z
" transform="scale(0.015625)"/>
      </defs>
      <use xlink:href="#DejaVuSans-45"/>
      <use xlink:href="#DejaVuSans-2a" x="63.183594"/>
      <use xlink:href="#DejaVuSans-74" x="113.183594"/>
     </g>
    </g>
   </g>
   <g id="line2d_13">
    <path d="M 73.832727 295.488 
L 74.150083 282.257202 
L 74.467438 280.91496 
L 74.784793 277.225007 
L 75.102149 271.41741 
L 75.419504 269.053956 
L 76.054215 266.325599 
L 76.37157 264.141187 
L 76.688926 264.020142 
L 77.006281 262.921992 
L 77.323636 259.124772 
L 77.640992 258.218387 
L 77.958347 256.756854 
L 78.275702 255.940205 
L 78.593058 255.877995 
L 78.910413 254.749235 
L 79.227769 254.563795 
L 80.179835 250.96618 
L 80.49719 250.824082 
L 81.766612 248.491661 
L 82.083967 247.792125 
L 82.401322 246.489464 
L 83.036033 245.294771 
L 83.670744 244.711659 
L 83.988099 243.791286 
L 84.305455 243.682001 
L 84.62281 242.730995 
L 84.940165 242.714397 
L 85.257521 242.199669 
L 85.574876 242.159865 
L 85.892231 241.615036 
L 86.526942 241.043163 
L 86.844298 240.449646 
L 87.161653 240.158625 
L 89.065785 237.099389 
L 89.700496 236.561426 
L 90.335207 236.215986 
L 90.969917 234.675106 
L 91.921983 234.389759 
L 92.239339 233.965151 
L 92.556694 233.251765 
L 92.87405 232.816352 
L 93.191405 232.753461 
L 93.50876 232.114144 
L 93.826116 231.913325 
L 94.143471 231.569906 
L 94.460826 231.412506 
L 94.778182 230.937719 
L 95.412893 230.582137 
L 95.730248 230.522052 
L 96.047603 230.341788 
L 96.364959 229.600968 
L 96.682314 229.525325 
L 96.999669 229.208118 
L 97.63438 228.951388 
L 98.269091 228.183708 
L 98.586446 227.962017 
L 98.903802 227.900669 
L 99.221157 227.559115 
L 99.538512 227.460348 
L 100.173223 227.117275 
L 100.490579 227.032621 
L 100.807934 226.378911 
L 101.442645 225.860992 
L 101.76 225.480172 
L 102.077355 225.366245 
L 102.394711 224.707644 
L 103.029421 224.476152 
L 103.346777 223.930622 
L 104.616198 223.179484 
L 104.933554 223.093921 
L 105.250909 222.248231 
L 106.520331 221.502182 
L 107.472397 221.282284 
L 107.789752 220.82571 
L 108.424463 220.555224 
L 108.741818 220.192778 
L 109.059174 220.083392 
L 109.376529 219.737723 
L 110.328595 219.453611 
L 110.64595 218.986544 
L 110.963306 218.822212 
L 111.280661 218.474833 
L 111.915372 218.217662 
L 112.232727 217.864482 
L 114.13686 217.228661 
L 114.454215 216.569465 
L 115.088926 216.365319 
L 115.406281 216.021113 
L 115.723636 215.967161 
L 116.675702 215.324305 
L 117.310413 214.820414 
L 117.627769 214.77664 
L 117.945124 214.494729 
L 119.531901 214.069888 
L 120.483967 213.891268 
L 120.801322 213.724119 
L 121.436033 213.214791 
L 123.657521 212.168321 
L 123.974876 211.606467 
L 124.292231 211.544549 
L 124.609587 211.339089 
L 124.926942 211.271641 
L 125.561653 210.846045 
L 125.879008 210.772878 
L 126.196364 210.511129 
L 127.465785 210.168846 
L 128.100496 209.932596 
L 128.417851 209.121552 
L 129.052562 208.847222 
L 129.369917 208.808888 
L 129.687273 208.376279 
L 130.321983 208.295133 
L 133.495537 206.634153 
L 134.447603 206.332214 
L 134.764959 205.90498 
L 135.399669 205.678357 
L 135.717025 205.436189 
L 136.351736 205.298123 
L 136.669091 205.175843 
L 137.303802 204.748507 
L 138.890579 204.451084 
L 139.842645 204.215409 
L 140.794711 204.090884 
L 141.112066 203.469761 
L 141.746777 203.392455 
L 142.064132 203.236531 
L 142.381488 202.919596 
L 143.333554 202.692433 
L 143.968264 202.516933 
L 144.28562 202.164809 
L 146.507107 201.14069 
L 148.41124 200.770714 
L 149.04595 200.620403 
L 149.363306 200.362906 
L 150.315372 199.971976 
L 151.267438 199.518663 
L 151.584793 199.465079 
L 151.902149 199.125115 
L 152.219504 199.116578 
L 155.393058 197.72596 
L 156.027769 197.56143 
L 156.345124 197.260881 
L 156.979835 197.187864 
L 158.883967 196.656712 
L 159.201322 196.063883 
L 159.518678 196.052374 
L 159.836033 195.850401 
L 161.42281 195.539424 
L 162.057521 195.252359 
L 163.644298 194.749462 
L 163.961653 194.442433 
L 164.596364 194.345888 
L 165.54843 193.983648 
L 166.817851 193.512963 
L 167.769917 193.39802 
L 169.356694 192.38266 
L 169.67405 192.359293 
L 171.578182 191.418546 
L 174.43438 190.932159 
L 174.751736 190.825503 
L 175.069091 190.505074 
L 175.703802 190.349508 
L 176.655868 190.141272 
L 176.973223 189.732382 
L 177.925289 189.628282 
L 178.242645 189.451768 
L 178.877355 189.35833 
L 180.146777 188.730915 
L 181.098843 188.486218 
L 181.416198 188.252586 
L 187.44595 186.638128 
L 188.080661 186.346186 
L 188.398017 186.316679 
L 189.032727 185.800818 
L 189.667438 185.448881 
L 190.302149 185.286696 
L 192.523636 184.771098 
L 194.110413 184.484092 
L 194.745124 184.099648 
L 196.331901 183.645467 
L 196.966612 183.532358 
L 197.283967 182.864747 
L 198.553388 182.372149 
L 199.505455 182.240271 
L 201.726942 181.709586 
L 202.044298 181.294184 
L 203.631074 181.161896 
L 203.94843 180.910705 
L 204.265785 180.89369 
L 204.900496 180.7067 
L 206.804628 180.304386 
L 207.121983 180.052336 
L 207.756694 179.759102 
L 208.07405 179.373304 
L 209.343471 179.026442 
L 209.978182 178.484936 
L 212.517025 178.111206 
L 214.738512 177.438162 
L 215.055868 177.202954 
L 216.325289 177.078276 
L 217.277355 176.577453 
L 217.912066 176.486591 
L 218.229421 176.291745 
L 219.181488 176.065795 
L 220.450909 175.665502 
L 221.08562 175.552353 
L 221.720331 175.404079 
L 222.037686 175.364808 
L 222.672397 175.00643 
L 223.307107 174.835725 
L 224.893884 174.386229 
L 226.163306 174.04417 
L 227.115372 173.619434 
L 232.510413 171.846495 
L 233.145124 171.753295 
L 233.462479 171.737987 
L 234.414545 171.408036 
L 234.731901 171.377778 
L 236.001322 170.824981 
L 237.588099 170.497412 
L 237.905455 170.294336 
L 238.22281 169.750968 
L 239.174876 169.348945 
L 240.126942 169.192056 
L 241.079008 169.114586 
L 241.396364 168.884027 
L 242.031074 168.777432 
L 242.34843 168.501861 
L 243.617851 168.093325 
L 244.252562 168.026087 
L 244.569917 167.78585 
L 248.695537 166.783887 
L 249.647603 166.363539 
L 249.964959 166.202628 
L 250.282314 166.17551 
L 252.186446 165.288518 
L 253.773223 165.063991 
L 254.407934 164.990735 
L 254.725289 164.830732 
L 255.36 164.689592 
L 256.629421 164.056359 
L 257.898843 163.913353 
L 258.216198 163.695501 
L 259.168264 163.46092 
L 260.437686 162.901061 
L 260.755041 162.837888 
L 261.072397 162.530416 
L 263.61124 162.070627 
L 263.928595 161.773816 
L 266.150083 161.214782 
L 266.784793 161.08488 
L 268.688926 160.262105 
L 269.006281 160.220043 
L 269.958347 159.800773 
L 270.593058 159.558504 
L 270.910413 159.316192 
L 271.227769 158.909234 
L 273.131901 158.468522 
L 275.353388 157.849609 
L 275.988099 157.525479 
L 277.574876 157.299409 
L 278.844298 156.669282 
L 279.161653 156.340382 
L 280.74843 156.084468 
L 281.065785 156.060307 
L 281.38314 155.842477 
L 282.335207 155.49656 
L 282.652562 155.104288 
L 288.682314 153.426995 
L 289.317025 153.075072 
L 289.951736 153.032497 
L 290.586446 152.83051 
L 291.221157 152.166468 
L 292.807934 151.935462 
L 293.442645 151.662883 
L 293.76 151.569667 
L 294.394711 151.09317 
L 294.712066 150.916346 
L 295.664132 150.778169 
L 296.616198 150.458609 
L 297.568264 150.269057 
L 298.202975 149.897485 
L 300.424463 149.105161 
L 301.693884 148.766558 
L 302.963306 148.206225 
L 304.867438 147.743884 
L 305.502149 147.281282 
L 306.13686 147.142682 
L 306.77157 147.003719 
L 307.406281 146.735824 
L 308.675702 146.472316 
L 308.993058 146.031451 
L 309.310413 145.792579 
L 309.627769 145.757792 
L 309.945124 145.569133 
L 310.579835 145.478613 
L 311.214545 145.076904 
L 311.849256 144.914631 
L 313.436033 144.282415 
L 314.705455 143.961634 
L 315.02281 143.701804 
L 315.340165 143.61652 
L 315.657521 143.22406 
L 316.609587 143.002674 
L 317.561653 142.776473 
L 317.879008 142.671289 
L 319.14843 141.80402 
L 319.78314 141.648154 
L 320.100496 141.486406 
L 320.417851 141.46954 
L 321.369917 141.054787 
L 324.226116 140.178885 
L 324.860826 139.977066 
L 325.178182 139.914754 
L 325.495537 139.697129 
L 325.812893 139.210789 
L 326.447603 139.064587 
L 327.399669 138.795609 
L 328.03438 138.577079 
L 328.351736 138.134074 
L 329.621157 137.730498 
L 330.255868 137.606598 
L 331.207934 137.287935 
L 331.842645 136.825214 
L 332.477355 136.704411 
L 332.794711 136.320327 
L 334.698843 135.775309 
L 335.333554 135.708173 
L 335.650909 135.443663 
L 335.968264 135.42657 
L 336.602975 134.785701 
L 337.237686 134.724391 
L 337.555041 134.149025 
L 338.189752 134.028921 
L 338.824463 133.651021 
L 339.776529 133.359498 
L 340.093884 132.812902 
L 341.363306 132.443066 
L 341.680661 131.981064 
L 342.315372 131.939069 
L 342.950083 131.708949 
L 343.267438 131.636515 
L 343.584793 131.384083 
L 344.219504 131.238693 
L 344.854215 131.062407 
L 345.806281 130.841393 
L 346.123636 130.641553 
L 346.440992 130.001924 
L 347.710413 129.569073 
L 348.027769 129.278543 
L 348.345124 128.666713 
L 349.29719 128.192297 
L 349.931901 127.996404 
L 350.566612 127.832948 
L 350.883967 127.427679 
L 351.836033 127.206236 
L 352.153388 126.907131 
L 352.470744 126.87419 
L 353.105455 126.557791 
L 353.42281 126.201425 
L 355.009587 125.536013 
L 355.644298 124.886936 
L 356.596364 124.619156 
L 357.231074 124.343828 
L 357.54843 124.073605 
L 357.865785 124.067449 
L 358.18314 123.673278 
L 358.500496 123.541874 
L 358.817851 123.103231 
L 360.087273 122.345309 
L 360.404628 121.619317 
L 361.039339 121.510072 
L 361.356694 121.097444 
L 364.530248 119.410689 
L 364.847603 118.940762 
L 365.164959 118.91597 
L 365.799669 118.653033 
L 366.117025 118.241658 
L 367.069091 117.995157 
L 367.386446 117.905737 
L 367.703802 117.639034 
L 368.021157 117.001265 
L 368.338512 116.936133 
L 368.655868 116.731996 
L 369.290579 115.622113 
L 369.925289 115.36343 
L 370.242645 115.035448 
L 370.877355 114.625487 
L 371.194711 114.357513 
L 371.512066 114.281245 
L 371.829421 113.753864 
L 372.464132 113.573814 
L 372.781488 112.927924 
L 373.098843 112.741519 
L 373.416198 112.099371 
L 374.050909 111.611528 
L 374.68562 111.394644 
L 375.002975 111.122223 
L 375.320331 111.028132 
L 375.637686 110.653341 
L 375.955041 110.493448 
L 376.272397 110.111799 
L 376.907107 109.679309 
L 377.224463 109.360968 
L 377.541818 109.212937 
L 377.859174 108.489765 
L 378.493884 108.365557 
L 378.81124 107.613594 
L 379.128595 107.452206 
L 379.44595 106.747868 
L 379.763306 106.571434 
L 380.080661 105.822504 
L 380.715372 105.721654 
L 381.032727 105.157611 
L 381.984793 104.791325 
L 382.302149 104.547488 
L 383.254215 102.661944 
L 384.523636 101.431153 
L 384.840992 100.669994 
L 385.475702 100.363486 
L 386.110413 99.870733 
L 386.427769 99.003362 
L 386.745124 98.48009 
L 387.062479 98.452152 
L 387.379835 98.116317 
L 387.69719 98.078825 
L 388.014545 96.63681 
L 388.331901 96.323361 
L 388.649256 95.438621 
L 388.966612 95.245253 
L 389.918678 93.460987 
L 390.236033 92.599406 
L 390.553388 92.144033 
L 390.870744 91.908567 
L 391.188099 90.943886 
L 391.505455 90.639525 
L 391.82281 90.510625 
L 392.140165 88.47093 
L 392.457521 87.437977 
L 392.774876 86.897989 
L 393.092231 86.865104 
L 393.726942 85.108652 
L 394.361653 82.408418 
L 394.679008 81.258932 
L 394.996364 80.983849 
L 395.313719 79.918352 
L 395.631074 79.534552 
L 396.265785 75.50306 
L 396.58314 74.25257 
L 396.900496 73.822515 
L 397.217851 66.893368 
L 397.535207 66.564023 
L 397.852562 64.353354 
L 398.487273 53.823987 
L 398.487273 53.823987 
" clip-path="url(#pb0515a6d88)" style="fill: none; stroke: #1f77b4; stroke-width: 1.5; stroke-linecap: square"/>
   </g>
   <g id="line2d_14">
    <path d="M 73.832727 295.219926 
L 74.150083 282.059005 
L 74.467438 280.770709 
L 74.784793 277.031944 
L 75.102149 271.208705 
L 75.419504 268.898084 
L 76.054215 266.203844 
L 76.37157 263.871026 
L 76.688926 263.871025 
L 77.006281 262.712697 
L 77.323636 258.899753 
L 77.640992 258.047786 
L 77.958347 256.632422 
L 78.275702 255.737168 
L 78.593058 255.737163 
L 78.910413 254.448871 
L 79.227769 254.403646 
L 80.179835 250.710107 
L 80.49719 250.710107 
L 81.131901 249.551777 
L 81.449256 249.19341 
L 82.718678 245.738834 
L 83.036033 245.048025 
L 83.353388 244.886868 
L 83.670744 244.557038 
L 83.988099 243.560706 
L 84.305455 243.471506 
L 84.62281 242.576247 
L 84.940165 242.576243 
L 85.257521 242.010179 
L 85.574876 241.940944 
L 85.892231 241.287952 
L 86.209587 241.242725 
L 86.526942 240.951615 
L 86.844298 240.265629 
L 87.479008 239.380558 
L 88.431074 237.549188 
L 88.74843 237.549187 
L 89.065785 236.86879 
L 89.700496 236.390858 
L 90.335207 236.032494 
L 90.969917 234.442389 
L 91.604628 234.400016 
L 91.921983 234.22355 
L 92.87405 232.710905 
L 93.191405 232.577914 
L 93.50876 231.887103 
L 93.826116 231.725949 
L 95.095537 230.493891 
L 96.047603 230.192906 
L 96.364959 229.415326 
L 96.682314 229.415323 
L 96.999669 229.022423 
L 97.63438 228.780021 
L 97.951736 228.127032 
L 98.269091 228.081804 
L 98.586446 227.790697 
L 98.903802 227.783728 
L 99.221157 227.34226 
L 100.173223 226.987278 
L 100.490579 226.721089 
L 100.807934 226.219635 
L 101.125289 226.016811 
L 101.76 225.277189 
L 102.077355 225.167686 
L 102.394711 224.40149 
L 103.029421 224.388269 
L 103.346777 223.707868 
L 103.981488 223.229939 
L 104.616198 223.03027 
L 104.933554 222.871577 
L 105.250909 221.96646 
L 105.88562 221.744757 
L 106.202975 221.418713 
L 106.520331 221.281466 
L 107.155041 221.239101 
L 107.472397 221.062633 
L 107.789752 220.575557 
L 108.107107 220.513449 
L 108.424463 220.255106 
L 108.741818 220.187288 
L 109.693884 219.460343 
L 110.328595 219.377857 
L 110.64595 218.726181 
L 110.963306 218.565032 
L 111.280661 218.235208 
L 111.598017 218.20766 
L 112.550083 217.642776 
L 114.13686 217.031989 
L 114.454215 216.296182 
L 115.088926 216.254404 
L 115.406281 215.861505 
L 116.040992 215.619099 
L 116.358347 215.590275 
L 116.675702 214.966113 
L 116.993058 214.920883 
L 117.310413 214.629779 
L 117.627769 214.62281 
L 117.945124 214.181343 
L 118.579835 214.092777 
L 119.214545 213.943784 
L 120.166612 213.784498 
L 120.801322 213.56017 
L 121.436033 213.058713 
L 121.753388 212.855895 
L 122.070744 212.794764 
L 122.705455 212.273945 
L 123.340165 212.009863 
L 123.657521 212.006767 
L 123.974876 211.240574 
L 124.926942 211.114256 
L 126.196364 210.280582 
L 126.513719 210.262083 
L 126.831074 210.091121 
L 127.465785 210.015681 
L 128.100496 209.710659 
L 128.417851 208.805541 
L 129.052562 208.665631 
L 129.369917 208.583844 
L 129.687273 208.120544 
L 130.321983 208.078185 
L 130.956694 207.784554 
L 131.27405 207.421294 
L 131.90876 207.352529 
L 132.226116 207.09419 
L 132.543471 207.026368 
L 132.860826 206.747809 
L 133.178182 206.6546 
L 133.495537 206.389066 
L 134.447603 206.216938 
L 134.764959 205.565261 
L 135.717025 205.284526 
L 136.03438 205.074293 
L 136.351736 205.046747 
L 137.303802 204.513623 
L 138.890579 204.304694 
L 139.525289 204.172052 
L 140.794711 203.871071 
L 141.112066 203.245497 
L 141.746777 203.093486 
L 142.064132 203.093484 
L 142.381488 202.708036 
L 142.698843 202.700588 
L 143.333554 202.458178 
L 143.968264 202.347874 
L 144.28562 201.805194 
L 144.602975 201.759963 
L 144.920331 201.46886 
L 145.237686 201.461891 
L 145.555041 201.32421 
L 145.872397 201.020426 
L 146.507107 200.931858 
L 147.141818 200.782861 
L 148.728595 200.541084 
L 149.998017 199.897793 
L 150.315372 199.694978 
L 150.632727 199.633844 
L 150.950083 199.321068 
L 151.584793 199.300725 
L 151.902149 198.955349 
L 152.854215 198.586841 
L 153.488926 198.079659 
L 154.758347 197.953335 
L 155.710413 197.409269 
L 156.027769 197.386026 
L 156.662479 196.958941 
L 157.614545 196.854764 
L 158.249256 196.617371 
L 158.883967 196.549742 
L 159.201322 195.776597 
L 159.836033 195.51876 
L 161.105455 195.422929 
L 161.740165 195.339256 
L 162.057521 194.959622 
L 162.692231 194.917267 
L 163.326942 194.646519 
L 163.644298 194.623626 
L 163.961653 194.260371 
L 164.596364 194.19161 
L 164.913719 193.968805 
L 165.54843 193.865449 
L 166.18314 193.586888 
L 168.087273 193.056018 
L 168.404628 192.404341 
L 170.30876 191.885833 
L 170.626116 191.36328 
L 171.578182 191.220858 
L 174.117025 190.827838 
L 174.751736 190.635297 
L 175.069091 190.270577 
L 176.338512 189.932566 
L 176.655868 189.932565 
L 176.973223 189.547117 
L 177.290579 189.539671 
L 177.925289 189.297257 
L 178.877355 189.138968 
L 179.194711 189.069695 
L 179.512066 188.644275 
L 180.464132 188.537006 
L 180.781488 188.307942 
L 181.098843 188.300972 
L 181.416198 188.163285 
L 181.733554 187.859509 
L 182.050909 187.832974 
L 182.368264 187.652012 
L 184.272397 187.380171 
L 184.907107 187.123246 
L 185.541818 187.061929 
L 186.176529 186.746128 
L 186.81124 186.727376 
L 187.128595 186.534061 
L 187.44595 186.472924 
L 187.763306 186.160147 
L 188.398017 186.139808 
L 188.715372 185.794428 
L 189.032727 185.688019 
L 189.667438 185.203893 
L 190.619504 184.905516 
L 191.254215 184.811016 
L 191.888926 184.783804 
L 192.206281 184.615131 
L 192.840992 184.570799 
L 193.158347 184.333873 
L 194.110413 184.225105 
L 194.745124 183.769286 
L 195.379835 183.693847 
L 195.69719 183.54752 
L 196.966612 183.388825 
L 197.283967 182.615671 
L 197.601322 182.357841 
L 199.188099 182.178327 
L 199.505455 182.143767 
L 200.140165 181.7987 
L 200.774876 181.75635 
L 201.409587 181.485604 
L 201.726942 181.4627 
L 202.044298 181.108595 
L 203.313719 181.030691 
L 203.631074 180.807883 
L 204.265785 180.70453 
L 204.58314 180.504377 
L 205.535207 180.38385 
L 206.169917 180.285462 
L 206.804628 179.934241 
L 207.121983 179.895099 
L 207.439339 179.660809 
L 207.756694 179.153095 
L 209.343471 178.752464 
L 209.660826 178.202359 
L 210.930248 178.059937 
L 213.469091 177.756102 
L 214.421157 177.474371 
L 214.738512 177.109661 
L 215.373223 176.995645 
L 215.690579 176.974581 
L 216.007934 176.771647 
L 216.642645 176.712168 
L 216.96 176.639974 
L 217.277355 176.386198 
L 217.912066 176.289944 
L 218.546777 176.026043 
L 219.181488 175.908769 
L 219.816198 175.483355 
L 221.08562 175.376091 
L 221.402975 175.183481 
L 222.355041 175.002361 
L 222.672397 174.69859 
L 222.989752 174.672055 
L 223.307107 174.491099 
L 224.893884 174.265759 
L 225.21124 174.17865 
L 225.528595 173.962333 
L 226.163306 173.900998 
L 228.067438 172.999226 
L 229.019504 172.835865 
L 229.33686 172.633508 
L 229.97157 172.527098 
L 230.606281 172.042965 
L 231.558347 171.744598 
L 232.193058 171.650094 
L 233.145124 171.557796 
L 234.731901 171.087439 
L 235.049256 171.064185 
L 235.683967 170.608367 
L 236.318678 170.532931 
L 236.636033 170.386604 
L 237.905455 170.227907 
L 238.22281 169.454745 
L 238.540165 169.196924 
L 240.444298 169.0174 
L 240.761653 168.982851 
L 241.396364 168.637779 
L 242.031074 168.560267 
L 242.98314 167.947669 
L 243.935207 167.869772 
L 244.252562 167.646963 
L 244.887273 167.543611 
L 245.204628 167.34347 
L 246.156694 167.222925 
L 246.791405 167.124538 
L 247.10876 166.906306 
L 248.695537 166.499889 
L 249.647603 165.992175 
L 250.599669 165.801783 
L 250.917025 165.613323 
L 251.23438 165.59155 
L 251.551736 165.189938 
L 251.869091 165.034292 
L 252.821157 164.999103 
L 253.455868 164.871073 
L 255.36 164.595183 
L 255.994711 163.948744 
L 257.264132 163.813666 
L 257.581488 163.610728 
L 258.533554 163.551241 
L 258.850909 163.22528 
L 259.48562 163.129017 
L 260.120331 162.817118 
L 260.437686 162.747843 
L 261.072397 162.2996 
L 261.707107 162.215174 
L 262.659174 162.004114 
L 263.61124 161.841439 
L 264.24595 161.330185 
L 265.832727 161.104841 
L 268.054215 160.40555 
L 268.37157 160.151084 
L 269.323636 159.838306 
L 269.640992 159.694524 
L 269.958347 159.674945 
L 270.593058 159.366177 
L 270.910413 158.767764 
L 275.353388 157.636911 
L 275.670744 157.447448 
L 275.988099 157.435117 
L 276.305455 157.225688 
L 277.574876 157.107878 
L 278.526942 156.713502 
L 279.161653 156.021945 
L 279.796364 155.943026 
L 280.431074 155.887888 
L 281.38314 155.649366 
L 281.700496 155.476859 
L 282.017851 155.476859 
L 282.335207 155.286247 
L 282.652562 154.823925 
L 283.921983 154.708854 
L 284.556694 154.382692 
L 288.364959 153.338969 
L 289.317025 152.893791 
L 290.586446 152.640868 
L 291.221157 151.873372 
L 291.855868 151.738097 
L 293.442645 151.523629 
L 293.76 151.455288 
L 294.394711 150.757498 
L 296.298843 150.390316 
L 296.933554 150.064363 
L 297.568264 149.968093 
L 298.202975 149.656194 
L 298.520331 149.586919 
L 299.155041 149.138684 
L 299.472397 149.131997 
L 300.107107 148.863003 
L 300.741818 148.818218 
L 301.059174 148.680518 
L 301.693884 148.549019 
L 302.64595 147.96978 
L 303.598017 147.856818 
L 304.232727 147.640505 
L 304.867438 147.57119 
L 305.502149 147.054018 
L 307.088926 146.677387 
L 307.406281 146.53361 
L 307.723636 146.514024 
L 308.675702 146.205257 
L 308.993058 145.798734 
L 309.945124 145.328252 
L 310.579835 145.235964 
L 310.89719 144.949456 
L 312.166612 144.677297 
L 312.801322 144.302558 
L 313.436033 144.260606 
L 314.070744 143.961623 
L 314.705455 143.835102 
L 315.340165 143.132896 
L 315.657521 142.789446 
L 316.926942 142.677958 
L 317.561653 142.315939 
L 318.196364 142.264777 
L 318.513719 141.662999 
L 319.78314 141.535559 
L 320.417851 141.221773 
L 320.735207 141.140284 
L 321.052562 140.901079 
L 321.687273 140.838147 
L 322.004628 140.521527 
L 322.639339 140.412338 
L 323.27405 140.341278 
L 323.90876 140.1306 
L 325.495537 139.587441 
L 325.812893 139.146821 
L 326.130248 139.10612 
L 326.447603 138.712451 
L 327.082314 138.577178 
L 328.03438 138.362709 
L 328.351736 137.96675 
L 329.303802 137.538894 
L 330.573223 137.44145 
L 330.890579 137.281415 
L 331.525289 136.624761 
L 332.16 136.495271 
L 332.477355 136.425995 
L 332.794711 135.97777 
L 333.429421 135.914691 
L 334.381488 135.682278 
L 334.698843 135.672613 
L 336.920331 134.540801 
L 337.237686 134.47959 
L 337.555041 133.893109 
L 338.824463 133.530648 
L 339.776529 133.044338 
L 340.093884 132.532253 
L 341.363306 132.14011 
L 341.680661 131.788543 
L 342.315372 131.721581 
L 342.632727 131.516376 
L 342.950083 131.509219 
L 343.267438 131.315077 
L 343.584793 131.295696 
L 343.902149 131.141634 
L 344.53686 131.099692 
L 345.17157 130.800703 
L 345.806281 130.674187 
L 346.123636 130.391652 
L 346.440992 129.628522 
L 347.075702 129.620145 
L 347.710413 129.155018 
L 348.027769 129.103847 
L 348.345124 128.464893 
L 348.662479 128.374627 
L 349.614545 127.740159 
L 350.566612 127.677214 
L 350.883967 127.232951 
L 351.201322 127.040839 
L 351.836033 126.969693 
L 352.153388 126.790442 
L 352.470744 126.762955 
L 353.105455 126.426527 
L 353.42281 125.985905 
L 353.740165 125.945189 
L 354.057521 125.55153 
L 354.692231 125.41626 
L 355.009587 125.230467 
L 355.326942 124.805823 
L 355.961653 124.630254 
L 356.279008 124.435651 
L 357.54843 124.136747 
L 358.18314 123.452513 
L 358.500496 123.334348 
L 358.817851 122.816855 
L 359.135207 122.521361 
L 359.452562 122.511709 
L 360.087273 122.227188 
L 360.404628 121.519396 
L 361.039339 121.379881 
L 361.356694 120.7322 
L 363.895537 119.702539 
L 364.530248 119.006412 
L 366.43438 117.980711 
L 367.069091 117.938776 
L 367.703802 117.583418 
L 368.021157 116.822204 
L 368.338512 116.467598 
L 368.655868 116.46027 
L 369.290579 115.303969 
L 369.607934 115.213698 
L 370.242645 114.818446 
L 370.56 114.759387 
L 370.877355 114.560268 
L 371.194711 114.072032 
L 371.829421 113.629535 
L 372.146777 113.602037 
L 372.464132 113.411028 
L 373.098843 112.390608 
L 373.416198 112.043251 
L 373.733554 111.469328 
L 374.050909 111.274728 
L 375.320331 110.975812 
L 375.637686 110.291577 
L 375.955041 110.173425 
L 376.907107 109.360445 
L 377.224463 109.350803 
L 377.541818 109.183787 
L 377.859174 108.358469 
L 378.493884 108.21896 
L 378.81124 107.348075 
L 379.128595 107.335871 
L 379.44595 106.541632 
L 380.398017 105.446566 
L 381.350083 104.819789 
L 381.667438 104.791426 
L 382.302149 104.422492 
L 382.619504 103.661288 
L 382.93686 103.209259 
L 383.254215 102.143045 
L 383.57157 102.128112 
L 383.888926 101.657526 
L 384.206281 101.399341 
L 384.840992 100.468625 
L 385.158347 100.424745 
L 385.793058 99.960765 
L 386.110413 99.623329 
L 386.745124 98.336655 
L 387.062479 98.056126 
L 387.69719 97.814879 
L 388.014545 96.467187 
L 388.331901 96.022863 
L 388.649256 95.197541 
L 388.966612 95.072368 
L 389.283967 94.187151 
L 389.601322 94.174954 
L 390.553388 91.658868 
L 390.870744 91.630504 
L 391.188099 90.657414 
L 391.505455 90.51408 
L 391.82281 90.500371 
L 392.140165 88.238415 
L 392.457521 87.263826 
L 393.409587 85.721395 
L 393.726942 84.797764 
L 394.361653 82.036615 
L 394.679008 81.026229 
L 394.996364 80.797183 
L 395.313719 79.889883 
L 395.631074 79.348627 
L 396.265785 75.07749 
L 396.58314 74.102906 
L 396.900496 73.638921 
L 397.217851 66.728941 
L 397.535207 66.187698 
L 397.852562 64.192223 
L 398.487273 53.568 
L 398.487273 53.568 
" clip-path="url(#pb0515a6d88)" style="fill: none; stroke: #ff7f0e; stroke-width: 1.5; stroke-linecap: square"/>
   </g>
   <g id="patch_3">
    <path d="M 57.6 307.584 
L 57.6 41.472 
" style="fill: none; stroke: #000000; stroke-width: 0.8; stroke-linejoin: miter; stroke-linecap: square"/>
   </g>
   <g id="patch_4">
    <path d="M 414.72 307.584 
L 414.72 41.472 
" style="fill: none; stroke: #000000; stroke-width: 0.8; stroke-linejoin: miter; stroke-linecap: square"/>
   </g>
   <g id="patch_5">
    <path d="M 57.6 307.584 
L 414.72 307.584 
" style="fill: none; stroke: #000000; stroke-width: 0.8; stroke-linejoin: miter; stroke-linecap: square"/>
   </g>
   <g id="patch_6">
    <path d="M 57.6 41.472 
L 414.72 41.472 
" style="fill: none; stroke: #000000; stroke-width: 0.8; stroke-linejoin: miter; stroke-linecap: square"/>
   </g>
   <g id="legend_1">
    <g id="patch_7">
     <path d="M 64.6 78.82825 
L 129.342187 78.82825 
Q 131.342187 78.82825 131.342187 76.82825 
L 131.342187 48.472 
Q 131.342187 46.472 129.342187 46.472 
L 64.6 46.472 
Q 62.6 46.472 62.6 48.472 
L 62.6 76.82825 
Q 62.6 78.82825 64.6 78.82825 
z
" style="fill: #ffffff; opacity: 0.8; stroke: #cccccc; stroke-linejoin: miter"/>
    </g>
    <g id="line2d_15">
     <path d="M 66.6 54.570437 
L 76.6 54.570437 
L 86.6 54.570437 
" style="fill: none; stroke: #1f77b4; stroke-width: 1.5; stroke-linecap: square"/>
    </g>
    <g id="text_15">
     <!-- qc -->
     <g transform="translate(94.6 58.070437) scale(0.1 -0.1)">
      <defs>
       <path id="DejaVuSans-71" d="M 947 1747 
Q 947 1113 1208 752 
Q 1469 391 1925 391 
Q 2381 391 2643 752 
Q 2906 1113 2906 1747 
Q 2906 2381 2643 2742 
Q 2381 3103 1925 3103 
Q 1469 3103 1208 2742 
Q 947 2381 947 1747 
z
M 2906 525 
Q 2725 213 2448 61 
Q 2172 -91 1784 -91 
Q 1150 -91 751 415 
Q 353 922 353 1747 
Q 353 2572 751 3078 
Q 1150 3584 1784 3584 
Q 2172 3584 2448 3432 
Q 2725 3281 2906 2969 
L 2906 3500 
L 3481 3500 
L 3481 -1331 
L 2906 -1331 
L 2906 525 
z
" transform="scale(0.015625)"/>
       <path id="DejaVuSans-63" d="M 3122 3366 
L 3122 2828 
Q 2878 2963 2633 3030 
Q 2388 3097 2138 3097 
Q 1578 3097 1268 2742 
Q 959 2388 959 1747 
Q 959 1106 1268 751 
Q 1578 397 2138 397 
Q 2388 397 2633 464 
Q 2878 531 3122 666 
L 3122 134 
Q 2881 22 2623 -34 
Q 2366 -91 2075 -91 
Q 1284 -91 818 406 
Q 353 903 353 1747 
Q 353 2603 823 3093 
Q 1294 3584 2113 3584 
Q 2378 3584 2631 3529 
Q 2884 3475 3122 3366 
z
" transform="scale(0.015625)"/>
      </defs>
      <use xlink:href="#DejaVuSans-71"/>
      <use xlink:href="#DejaVuSans-63" x="63.476562"/>
     </g>
    </g>
    <g id="line2d_16">
     <path d="M 66.6 69.248562 
L 76.6 69.248562 
L 86.6 69.248562 
" style="fill: none; stroke: #ff7f0e; stroke-width: 1.5; stroke-linecap: square"/>
    </g>
    <g id="text_16">
     <!-- Trotter -->
     <g transform="translate(94.6 72.748562) scale(0.1 -0.1)">
      <defs>
       <path id="DejaVuSans-54" d="M -19 4666 
L 3928 4666 
L 3928 4134 
L 2272 4134 
L 2272 0 
L 1638 0 
L 1638 4134 
L -19 4134 
L -19 4666 
z
" transform="scale(0.015625)"/>
       <path id="DejaVuSans-72" d="M 2631 2963 
Q 2534 3019 2420 3045 
Q 2306 3072 2169 3072 
Q 1681 3072 1420 2755 
Q 1159 2438 1159 1844 
L 1159 0 
L 581 0 
L 581 3500 
L 1159 3500 
L 1159 2956 
Q 1341 3275 1631 3429 
Q 1922 3584 2338 3584 
Q 2397 3584 2469 3576 
Q 2541 3569 2628 3553 
L 2631 2963 
z
" transform="scale(0.015625)"/>
       <path id="DejaVuSans-6f" d="M 1959 3097 
Q 1497 3097 1228 2736 
Q 959 2375 959 1747 
Q 959 1119 1226 758 
Q 1494 397 1959 397 
Q 2419 397 2687 759 
Q 2956 1122 2956 1747 
Q 2956 2369 2687 2733 
Q 2419 3097 1959 3097 
z
M 1959 3584 
Q 2709 3584 3137 3096 
Q 3566 2609 3566 1747 
Q 3566 888 3137 398 
Q 2709 -91 1959 -91 
Q 1206 -91 779 398 
Q 353 888 353 1747 
Q 353 2609 779 3096 
Q 1206 3584 1959 3584 
z
" transform="scale(0.015625)"/>
       <path id="DejaVuSans-65" d="M 3597 1894 
L 3597 1613 
L 953 1613 
Q 991 1019 1311 708 
Q 1631 397 2203 397 
Q 2534 397 2845 478 
Q 3156 559 3463 722 
L 3463 178 
Q 3153 47 2828 -22 
Q 2503 -91 2169 -91 
Q 1331 -91 842 396 
Q 353 884 353 1716 
Q 353 2575 817 3079 
Q 1281 3584 2069 3584 
Q 2775 3584 3186 3129 
Q 3597 2675 3597 1894 
z
M 3022 2063 
Q 3016 2534 2758 2815 
Q 2500 3097 2075 3097 
Q 1594 3097 1305 2825 
Q 1016 2553 972 2059 
L 3022 2063 
z
" transform="scale(0.015625)"/>
      </defs>
      <use xlink:href="#DejaVuSans-54"/>
      <use xlink:href="#DejaVuSans-72" x="46.333984"/>
      <use xlink:href="#DejaVuSans-6f" x="85.197266"/>
      <use xlink:href="#DejaVuSans-74" x="146.378906"/>
      <use xlink:href="#DejaVuSans-74" x="185.587891"/>
      <use xlink:href="#DejaVuSans-65" x="224.796875"/>
      <use xlink:href="#DejaVuSans-72" x="286.320312"/>
     </g>
    </g>
   </g>
  </g>
 </g>
 <defs>
  <clipPath id="pb0515a6d88">
   <rect x="57.6" y="41.472" width="357.12" height="266.112"/>
  </clipPath>
 </defs>
</svg>
