<?xml version="1.0" encoding="utf-8" standalone="no"?>
<!DOCTYPE svg PUBLIC "-//W3C//DTD SVG 1.1//EN"
  "http://www.w3.org/Graphics/SVG/1.1/DTD/svg11.dtd">
<svg xmlns:xlink="http://www.w3.org/1999/xlink" width="460.8pt" height="345.6pt" viewBox="0 0 460.8 345.6" xmlns="http://www.w3.org/2000/svg" version="1.1">
 <metadata>
  <rdf:RDF xmlns:dc="http://purl.org/dc/elements/1.1/" xmlns:cc="http://creativecommons.org/ns#" xmlns:rdf="http://www.w3.org/1999/02/22-rdf-syntax-ns#">
   <cc:Work>
    <dc:type rdf:resource="http://purl.org/dc/dcmitype/StillImage"/>
    <dc:date>2024-08-16T14:08:52.485926</dc:date>
    <dc:format>image/svg+xml</dc:format>
    <dc:creator>
     <cc:Agent>
      <dc:title>Matplotlib v3.7.1, https://matplotlib.org/</dc:title>
     </cc:Agent>
    </dc:creator>
   </cc:Work>
  </rdf:RDF>
 </metadata>
 <defs>
  <style type="text/css">*{stroke-linejoin: round; stroke-linecap: butt}</style>
 </defs>
 <g id="figure_1">
  <g id="patch_1">
   <path d="M 0 345.6 
L 460.8 345.6 
L 460.8 0 
L 0 0 
z
" style="fill: #ffffff"/>
  </g>
  <g id="axes_1">
   <g id="patch_2">
    <path d="M 57.6 307.584 
L 414.72 307.584 
L 414.72 41.472 
L 57.6 41.472 
z
" style="fill: #ffffff"/>
   </g>
   <g id="matplotlib.axis_1">
    <g id="xtick_1">
     <g id="line2d_1">
      <defs>
       <path id="m098dfe18be" d="M 0 0 
L 0 3.5 
" style="stroke: #000000; stroke-width: 0.8"/>
      </defs>
      <g>
       <use xlink:href="#m098dfe18be" x="73.832727" y="307.584" style="stroke: #000000; stroke-width: 0.8"/>
      </g>
     </g>
     <g id="text_1">
      <!-- 0 -->
      <g transform="translate(70.651477 322.182437) scale(0.1 -0.1)">
       <defs>
        <path id="DejaVuSans-30" d="M 2034 4250 
Q 1547 4250 1301 3770 
Q 1056 3291 1056 2328 
Q 1056 1369 1301 889 
Q 1547 409 2034 409 
Q 2525 409 2770 889 
Q 3016 1369 3016 2328 
Q 3016 3291 2770 3770 
Q 2525 4250 2034 4250 
z
M 2034 4750 
Q 2819 4750 3233 4129 
Q 3647 3509 3647 2328 
Q 3647 1150 3233 529 
Q 2819 -91 2034 -91 
Q 1250 -91 836 529 
Q 422 1150 422 2328 
Q 422 3509 836 4129 
Q 1250 4750 2034 4750 
z
" transform="scale(0.015625)"/>
       </defs>
       <use xlink:href="#DejaVuSans-30"/>
      </g>
     </g>
    </g>
    <g id="xtick_2">
     <g id="line2d_2">
      <g>
       <use xlink:href="#m098dfe18be" x="137.303802" y="307.584" style="stroke: #000000; stroke-width: 0.8"/>
      </g>
     </g>
     <g id="text_2">
      <!-- 200 -->
      <g transform="translate(127.760052 322.182437) scale(0.1 -0.1)">
       <defs>
        <path id="DejaVuSans-32" d="M 1228 531 
L 3431 531 
L 3431 0 
L 469 0 
L 469 531 
Q 828 903 1448 1529 
Q 2069 2156 2228 2338 
Q 2531 2678 2651 2914 
Q 2772 3150 2772 3378 
Q 2772 3750 2511 3984 
Q 2250 4219 1831 4219 
Q 1534 4219 1204 4116 
Q 875 4013 500 3803 
L 500 4441 
Q 881 4594 1212 4672 
Q 1544 4750 1819 4750 
Q 2544 4750 2975 4387 
Q 3406 4025 3406 3419 
Q 3406 3131 3298 2873 
Q 3191 2616 2906 2266 
Q 2828 2175 2409 1742 
Q 1991 1309 1228 531 
z
" transform="scale(0.015625)"/>
       </defs>
       <use xlink:href="#DejaVuSans-32"/>
       <use xlink:href="#DejaVuSans-30" x="63.623047"/>
       <use xlink:href="#DejaVuSans-30" x="127.246094"/>
      </g>
     </g>
    </g>
    <g id="xtick_3">
     <g id="line2d_3">
      <g>
       <use xlink:href="#m098dfe18be" x="200.774876" y="307.584" style="stroke: #000000; stroke-width: 0.8"/>
      </g>
     </g>
     <g id="text_3">
      <!-- 400 -->
      <g transform="translate(191.231126 322.182437) scale(0.1 -0.1)">
       <defs>
        <path id="DejaVuSans-34" d="M 2419 4116 
L 825 1625 
L 2419 1625 
L 2419 4116 
z
M 2253 4666 
L 3047 4666 
L 3047 1625 
L 3713 1625 
L 3713 1100 
L 3047 1100 
L 3047 0 
L 2419 0 
L 2419 1100 
L 313 1100 
L 313 1709 
L 2253 4666 
z
" transform="scale(0.015625)"/>
       </defs>
       <use xlink:href="#DejaVuSans-34"/>
       <use xlink:href="#DejaVuSans-30" x="63.623047"/>
       <use xlink:href="#DejaVuSans-30" x="127.246094"/>
      </g>
     </g>
    </g>
    <g id="xtick_4">
     <g id="line2d_4">
      <g>
       <use xlink:href="#m098dfe18be" x="264.24595" y="307.584" style="stroke: #000000; stroke-width: 0.8"/>
      </g>
     </g>
     <g id="text_4">
      <!-- 600 -->
      <g transform="translate(254.7022 322.182437) scale(0.1 -0.1)">
       <defs>
        <path id="DejaVuSans-36" d="M 2113 2584 
Q 1688 2584 1439 2293 
Q 1191 2003 1191 1497 
Q 1191 994 1439 701 
Q 1688 409 2113 409 
Q 2538 409 2786 701 
Q 3034 994 3034 1497 
Q 3034 2003 2786 2293 
Q 2538 2584 2113 2584 
z
M 3366 4563 
L 3366 3988 
Q 3128 4100 2886 4159 
Q 2644 4219 2406 4219 
Q 1781 4219 1451 3797 
Q 1122 3375 1075 2522 
Q 1259 2794 1537 2939 
Q 1816 3084 2150 3084 
Q 2853 3084 3261 2657 
Q 3669 2231 3669 1497 
Q 3669 778 3244 343 
Q 2819 -91 2113 -91 
Q 1303 -91 875 529 
Q 447 1150 447 2328 
Q 447 3434 972 4092 
Q 1497 4750 2381 4750 
Q 2619 4750 2861 4703 
Q 3103 4656 3366 4563 
z
" transform="scale(0.015625)"/>
       </defs>
       <use xlink:href="#DejaVuSans-36"/>
       <use xlink:href="#DejaVuSans-30" x="63.623047"/>
       <use xlink:href="#DejaVuSans-30" x="127.246094"/>
      </g>
     </g>
    </g>
    <g id="xtick_5">
     <g id="line2d_5">
      <g>
       <use xlink:href="#m098dfe18be" x="327.717025" y="307.584" style="stroke: #000000; stroke-width: 0.8"/>
      </g>
     </g>
     <g id="text_5">
      <!-- 800 -->
      <g transform="translate(318.173275 322.182437) scale(0.1 -0.1)">
       <defs>
        <path id="DejaVuSans-38" d="M 2034 2216 
Q 1584 2216 1326 1975 
Q 1069 1734 1069 1313 
Q 1069 891 1326 650 
Q 1584 409 2034 409 
Q 2484 409 2743 651 
Q 3003 894 3003 1313 
Q 3003 1734 2745 1975 
Q 2488 2216 2034 2216 
z
M 1403 2484 
Q 997 2584 770 2862 
Q 544 3141 544 3541 
Q 544 4100 942 4425 
Q 1341 4750 2034 4750 
Q 2731 4750 3128 4425 
Q 3525 4100 3525 3541 
Q 3525 3141 3298 2862 
Q 3072 2584 2669 2484 
Q 3125 2378 3379 2068 
Q 3634 1759 3634 1313 
Q 3634 634 3220 271 
Q 2806 -91 2034 -91 
Q 1263 -91 848 271 
Q 434 634 434 1313 
Q 434 1759 690 2068 
Q 947 2378 1403 2484 
z
M 1172 3481 
Q 1172 3119 1398 2916 
Q 1625 2713 2034 2713 
Q 2441 2713 2670 2916 
Q 2900 3119 2900 3481 
Q 2900 3844 2670 4047 
Q 2441 4250 2034 4250 
Q 1625 4250 1398 4047 
Q 1172 3844 1172 3481 
z
" transform="scale(0.015625)"/>
       </defs>
       <use xlink:href="#DejaVuSans-38"/>
       <use xlink:href="#DejaVuSans-30" x="63.623047"/>
       <use xlink:href="#DejaVuSans-30" x="127.246094"/>
      </g>
     </g>
    </g>
    <g id="xtick_6">
     <g id="line2d_6">
      <g>
       <use xlink:href="#m098dfe18be" x="391.188099" y="307.584" style="stroke: #000000; stroke-width: 0.8"/>
      </g>
     </g>
     <g id="text_6">
      <!-- 1000 -->
      <g transform="translate(378.463099 322.182437) scale(0.1 -0.1)">
       <defs>
        <path id="DejaVuSans-31" d="M 794 531 
L 1825 531 
L 1825 4091 
L 703 3866 
L 703 4441 
L 1819 4666 
L 2450 4666 
L 2450 531 
L 3481 531 
L 3481 0 
L 794 0 
L 794 531 
z
" transform="scale(0.015625)"/>
       </defs>
       <use xlink:href="#DejaVuSans-31"/>
       <use xlink:href="#DejaVuSans-30" x="63.623047"/>
       <use xlink:href="#DejaVuSans-30" x="127.246094"/>
       <use xlink:href="#DejaVuSans-30" x="190.869141"/>
      </g>
     </g>
    </g>
    <g id="text_7">
     <!-- n -->
     <g transform="translate(232.99125 335.860562) scale(0.1 -0.1)">
      <defs>
       <path id="DejaVuSans-6e" d="M 3513 2113 
L 3513 0 
L 2938 0 
L 2938 2094 
Q 2938 2591 2744 2837 
Q 2550 3084 2163 3084 
Q 1697 3084 1428 2787 
Q 1159 2491 1159 1978 
L 1159 0 
L 581 0 
L 581 3500 
L 1159 3500 
L 1159 2956 
Q 1366 3272 1645 3428 
Q 1925 3584 2291 3584 
Q 2894 3584 3203 3211 
Q 3513 2838 3513 2113 
z
" transform="scale(0.015625)"/>
      </defs>
      <use xlink:href="#DejaVuSans-6e"/>
     </g>
    </g>
   </g>
   <g id="matplotlib.axis_2">
    <g id="ytick_1">
     <g id="line2d_7">
      <defs>
       <path id="m682b27b99b" d="M 0 0 
L -3.5 0 
" style="stroke: #000000; stroke-width: 0.8"/>
      </defs>
      <g>
       <use xlink:href="#m682b27b99b" x="57.6" y="302.991898" style="stroke: #000000; stroke-width: 0.8"/>
      </g>
     </g>
     <g id="text_8">
      <!-- −3 -->
      <g transform="translate(35.857813 306.791117) scale(0.1 -0.1)">
       <defs>
        <path id="DejaVuSans-2212" d="M 678 2272 
L 4684 2272 
L 4684 1741 
L 678 1741 
L 678 2272 
z
" transform="scale(0.015625)"/>
        <path id="DejaVuSans-33" d="M 2597 2516 
Q 3050 2419 3304 2112 
Q 3559 1806 3559 1356 
Q 3559 666 3084 287 
Q 2609 -91 1734 -91 
Q 1441 -91 1130 -33 
Q 819 25 488 141 
L 488 750 
Q 750 597 1062 519 
Q 1375 441 1716 441 
Q 2309 441 2620 675 
Q 2931 909 2931 1356 
Q 2931 1769 2642 2001 
Q 2353 2234 1838 2234 
L 1294 2234 
L 1294 2753 
L 1863 2753 
Q 2328 2753 2575 2939 
Q 2822 3125 2822 3475 
Q 2822 3834 2567 4026 
Q 2313 4219 1838 4219 
Q 1578 4219 1281 4162 
Q 984 4106 628 3988 
L 628 4550 
Q 988 4650 1302 4700 
Q 1616 4750 1894 4750 
Q 2613 4750 3031 4423 
Q 3450 4097 3450 3541 
Q 3450 3153 3228 2886 
Q 3006 2619 2597 2516 
z
" transform="scale(0.015625)"/>
       </defs>
       <use xlink:href="#DejaVuSans-2212"/>
       <use xlink:href="#DejaVuSans-33" x="83.789062"/>
      </g>
     </g>
    </g>
    <g id="ytick_2">
     <g id="line2d_8">
      <g>
       <use xlink:href="#m682b27b99b" x="57.6" y="258.563708" style="stroke: #000000; stroke-width: 0.8"/>
      </g>
     </g>
     <g id="text_9">
      <!-- −2 -->
      <g transform="translate(35.857813 262.362927) scale(0.1 -0.1)">
       <use xlink:href="#DejaVuSans-2212"/>
       <use xlink:href="#DejaVuSans-32" x="83.789062"/>
      </g>
     </g>
    </g>
    <g id="ytick_3">
     <g id="line2d_9">
      <g>
       <use xlink:href="#m682b27b99b" x="57.6" y="214.135518" style="stroke: #000000; stroke-width: 0.8"/>
      </g>
     </g>
     <g id="text_10">
      <!-- −1 -->
      <g transform="translate(35.857813 217.934736) scale(0.1 -0.1)">
       <use xlink:href="#DejaVuSans-2212"/>
       <use xlink:href="#DejaVuSans-31" x="83.789062"/>
      </g>
     </g>
    </g>
    <g id="ytick_4">
     <g id="line2d_10">
      <g>
       <use xlink:href="#m682b27b99b" x="57.6" y="169.707327" style="stroke: #000000; stroke-width: 0.8"/>
      </g>
     </g>
     <g id="text_11">
      <!-- 0 -->
      <g transform="translate(44.2375 173.506546) scale(0.1 -0.1)">
       <use xlink:href="#DejaVuSans-30"/>
      </g>
     </g>
    </g>
    <g id="ytick_5">
     <g id="line2d_11">
      <g>
       <use xlink:href="#m682b27b99b" x="57.6" y="125.279137" style="stroke: #000000; stroke-width: 0.8"/>
      </g>
     </g>
     <g id="text_12">
      <!-- 1 -->
      <g transform="translate(44.2375 129.078356) scale(0.1 -0.1)">
       <use xlink:href="#DejaVuSans-31"/>
      </g>
     </g>
    </g>
    <g id="ytick_6">
     <g id="line2d_12">
      <g>
       <use xlink:href="#m682b27b99b" x="57.6" y="80.850947" style="stroke: #000000; stroke-width: 0.8"/>
      </g>
     </g>
     <g id="text_13">
      <!-- 2 -->
      <g transform="translate(44.2375 84.650166) scale(0.1 -0.1)">
       <use xlink:href="#DejaVuSans-32"/>
      </g>
     </g>
    </g>
    <g id="text_14">
     <!-- E*t -->
     <g transform="translate(29.778125 182.147531) rotate(-90) scale(0.1 -0.1)">
      <defs>
       <path id="DejaVuSans-45" d="M 628 4666 
L 3578 4666 
L 3578 4134 
L 1259 4134 
L 1259 2753 
L 3481 2753 
L 3481 2222 
L 1259 2222 
L 1259 531 
L 3634 531 
L 3634 0 
L 628 0 
L 628 4666 
z
" transform="scale(0.015625)"/>
       <path id="DejaVuSans-2a" d="M 3009 3897 
L 1888 3291 
L 3009 2681 
L 2828 2375 
L 1778 3009 
L 1778 1831 
L 1422 1831 
L 1422 3009 
L 372 2375 
L 191 2681 
L 1313 3291 
L 191 3897 
L 372 4206 
L 1422 3572 
L 1422 4750 
L 1778 4750 
L 1778 3572 
L 2828 4206 
L 3009 3897 
z
" transform="scale(0.015625)"/>
       <path id="DejaVuSans-74" d="M 1172 4494 
L 1172 3500 
L 2356 3500 
L 2356 3053 
L 1172 3053 
L 1172 1153 
Q 1172 725 1289 603 
Q 1406 481 1766 481 
L 2356 481 
L 2356 0 
L 1766 0 
Q 1100 0 847 248 
Q 594 497 594 1153 
L 594 3053 
L 172 3053 
L 172 3500 
L 594 3500 
L 594 4494 
L 1172 4494 
z
" transform="scale(0.015625)"/>
      </defs>
      <use xlink:href="#DejaVuSans-45"/>
      <use xlink:href="#DejaVuSans-2a" x="63.183594"/>
      <use xlink:href="#DejaVuSans-74" x="113.183594"/>
     </g>
    </g>
   </g>
   <g id="line2d_13">
    <path d="M 73.832727 295.488 
L 74.150083 282.350717 
L 74.467438 281.083867 
L 74.784793 277.323225 
L 75.102149 271.521613 
L 75.419504 269.216009 
L 76.054215 266.557798 
L 76.37157 264.248817 
L 76.688926 264.188507 
L 77.006281 263.055062 
L 77.323636 259.214274 
L 77.640992 258.394966 
L 77.958347 256.987244 
L 78.275702 256.132853 
L 78.593058 256.083957 
L 78.910413 254.809612 
L 79.227769 254.764533 
L 80.179835 251.099018 
L 80.49719 251.070148 
L 81.131901 249.921512 
L 81.449256 249.595501 
L 82.718678 246.105499 
L 83.036033 245.414582 
L 83.353388 245.269919 
L 83.670744 244.951627 
L 83.988099 243.91412 
L 84.305455 243.84949 
L 84.62281 243.007899 
L 84.940165 242.954408 
L 85.257521 242.408284 
L 85.574876 242.309163 
L 85.892231 241.682598 
L 86.209587 241.610318 
L 86.526942 241.388259 
L 87.161653 240.271865 
L 88.431074 237.98561 
L 88.74843 237.919689 
L 89.065785 237.264659 
L 89.700496 236.788486 
L 90.335207 236.446215 
L 90.652562 235.52543 
L 90.969917 234.96761 
L 91.921983 234.620345 
L 92.87405 233.187503 
L 93.191405 232.989123 
L 93.50876 232.305766 
L 93.826116 232.147287 
L 95.095537 230.90727 
L 96.047603 230.605539 
L 96.364959 229.884399 
L 96.682314 229.826921 
L 97.317025 229.283579 
L 97.63438 229.182901 
L 97.951736 228.560431 
L 98.903802 228.251165 
L 99.221157 227.796907 
L 100.490579 227.136887 
L 100.807934 226.616988 
L 101.125289 226.498083 
L 101.76 225.786179 
L 102.077355 225.586468 
L 102.394711 224.890275 
L 103.029421 224.756166 
L 103.346777 224.146378 
L 103.981488 223.663977 
L 104.616198 223.508675 
L 104.933554 223.296177 
L 105.250909 222.398977 
L 105.88562 222.178055 
L 106.202975 221.845335 
L 107.155041 221.675922 
L 107.472397 221.500113 
L 107.789752 221.037502 
L 108.107107 221.006823 
L 109.693884 219.941266 
L 110.328595 219.867181 
L 110.64595 219.188349 
L 110.963306 219.032091 
L 111.280661 218.68667 
L 111.598017 218.647017 
L 112.550083 218.155184 
L 112.867438 218.047 
L 113.502149 217.676757 
L 114.13686 217.4584 
L 114.454215 216.763417 
L 115.088926 216.700786 
L 115.723636 216.153955 
L 116.358347 216.057637 
L 116.675702 215.443511 
L 117.627769 215.123476 
L 117.945124 214.701572 
L 119.849256 214.272559 
L 120.801322 214.004331 
L 121.436033 213.495606 
L 122.070744 213.355701 
L 122.388099 212.938937 
L 123.02281 212.646966 
L 123.657521 212.447666 
L 123.974876 211.797264 
L 125.244298 211.42613 
L 125.561653 211.094648 
L 125.879008 211.023951 
L 126.196364 210.78916 
L 128.100496 210.146644 
L 128.417851 209.292508 
L 129.369917 209.037392 
L 129.687273 208.724429 
L 131.591405 207.889382 
L 131.90876 207.882665 
L 132.860826 207.250441 
L 133.178182 207.236545 
L 133.812893 206.75781 
L 134.447603 206.731527 
L 134.764959 206.06254 
L 135.717025 205.839537 
L 136.03438 205.560685 
L 136.351736 205.542389 
L 137.303802 205.026122 
L 138.255868 204.886624 
L 139.525289 204.690259 
L 140.16 204.552886 
L 140.794711 204.311663 
L 141.112066 203.729336 
L 142.064132 203.575235 
L 142.381488 203.271399 
L 142.698843 203.22447 
L 143.016198 203.012331 
L 143.968264 202.899898 
L 144.28562 202.333535 
L 145.555041 201.854006 
L 145.872397 201.561934 
L 148.41124 201.09556 
L 149.680661 200.615094 
L 150.315372 200.239468 
L 150.632727 200.216156 
L 150.950083 199.891356 
L 151.584793 199.80475 
L 151.902149 199.512422 
L 152.53686 199.339852 
L 153.806281 198.595557 
L 154.758347 198.448084 
L 155.393058 198.013974 
L 156.027769 197.902985 
L 156.662479 197.487981 
L 158.249256 197.197244 
L 158.883967 197.006585 
L 159.201322 196.383241 
L 159.836033 196.141339 
L 161.740165 195.816645 
L 162.374876 195.433735 
L 163.326942 195.251145 
L 164.279008 194.801286 
L 164.596364 194.749078 
L 165.231074 194.515141 
L 167.452562 193.628694 
L 168.087273 193.605048 
L 168.404628 192.941754 
L 169.356694 192.798244 
L 169.67405 192.693124 
L 169.991405 192.419548 
L 170.30876 192.390207 
L 170.626116 191.9777 
L 171.578182 191.790181 
L 172.530248 191.6851 
L 174.751736 191.144321 
L 175.069091 190.839437 
L 176.655868 190.449688 
L 176.973223 190.136328 
L 177.290579 190.092399 
L 177.607934 189.882163 
L 179.194711 189.6192 
L 179.512066 189.265994 
L 180.464132 189.098349 
L 182.68562 188.201054 
L 184.272397 187.917201 
L 184.907107 187.725872 
L 185.859174 187.492578 
L 186.176529 187.327012 
L 187.44595 187.078378 
L 187.763306 186.785708 
L 188.398017 186.656183 
L 188.715372 186.380402 
L 189.032727 186.327111 
L 189.667438 185.80156 
L 189.984793 185.759679 
L 190.619504 185.54974 
L 191.888926 185.318854 
L 192.523636 185.216141 
L 193.158347 184.934389 
L 194.110413 184.78542 
L 194.745124 184.354371 
L 195.379835 184.24112 
L 196.966612 183.888669 
L 197.283967 183.256945 
L 197.601322 183.006908 
L 200.140165 182.490407 
L 200.457521 182.308754 
L 201.092231 182.240593 
L 202.044298 181.835388 
L 202.679008 181.693113 
L 203.313719 181.613621 
L 203.94843 181.410441 
L 205.535207 180.945482 
L 206.169917 180.835985 
L 207.121983 180.472288 
L 207.439339 180.340266 
L 207.756694 179.82762 
L 208.391405 179.680017 
L 209.343471 179.232147 
L 209.660826 178.858937 
L 212.83438 178.486242 
L 214.421157 177.939324 
L 214.738512 177.723833 
L 215.055868 177.720399 
L 216.007934 177.415112 
L 216.642645 177.323496 
L 218.229421 176.711289 
L 219.181488 176.529398 
L 219.816198 176.16098 
L 220.450909 176.113018 
L 221.402975 175.850552 
L 222.355041 175.620079 
L 222.672397 175.305545 
L 223.307107 175.122721 
L 225.21124 174.817715 
L 225.528595 174.597569 
L 226.163306 174.520146 
L 227.115372 173.992691 
L 227.750083 173.932865 
L 228.067438 173.663824 
L 228.702149 173.520663 
L 229.019504 173.487043 
L 229.33686 173.249224 
L 229.97157 173.205125 
L 230.606281 172.653694 
L 231.558347 172.437362 
L 232.510413 172.241048 
L 233.145124 172.194068 
L 233.779835 171.956136 
L 235.366612 171.430512 
L 236.636033 171.0333 
L 237.905455 170.782546 
L 238.22281 170.133821 
L 238.540165 169.866338 
L 241.396364 169.377811 
L 241.713719 169.190683 
L 242.031074 169.169002 
L 242.98314 168.680213 
L 245.521983 167.964867 
L 250.282314 166.554075 
L 250.917025 166.292028 
L 251.551736 165.810768 
L 252.503802 165.669731 
L 254.725289 165.320074 
L 255.36 165.178382 
L 256.312066 164.58016 
L 257.264132 164.460392 
L 257.581488 164.312932 
L 258.533554 164.172795 
L 258.850909 163.889947 
L 259.48562 163.773093 
L 260.120331 163.524109 
L 260.755041 163.251209 
L 261.072397 163.021999 
L 263.293884 162.600317 
L 263.61124 162.493234 
L 264.24595 161.993023 
L 267.419504 161.37899 
L 268.37157 160.824428 
L 269.006281 160.64959 
L 270.593058 160.080622 
L 270.910413 159.511208 
L 271.545124 159.253522 
L 273.131901 158.941931 
L 273.766612 158.808837 
L 275.036033 158.53717 
L 275.670744 158.172182 
L 278.209587 157.626707 
L 278.526942 157.423105 
L 279.161653 156.708722 
L 281.38314 156.316723 
L 281.700496 156.267673 
L 282.969917 155.52994 
L 283.604628 155.408311 
L 284.239339 155.204691 
L 284.87405 155.031429 
L 286.143471 154.648189 
L 288.999669 153.830962 
L 289.951736 153.4463 
L 290.586446 153.330182 
L 291.221157 152.662939 
L 292.807934 152.311689 
L 293.76 152.118028 
L 294.712066 151.444392 
L 297.568264 150.666388 
L 298.202975 150.380607 
L 298.837686 150.108176 
L 299.155041 149.895201 
L 299.789752 149.705752 
L 300.424463 149.537778 
L 301.059174 149.482761 
L 302.01124 149.114164 
L 302.328595 148.807777 
L 304.867438 148.211795 
L 305.819504 147.6974 
L 306.454215 147.642981 
L 306.77157 147.403899 
L 307.406281 147.295002 
L 308.040992 147.116337 
L 308.675702 146.951204 
L 308.993058 146.537309 
L 309.945124 146.080084 
L 310.579835 145.924043 
L 310.89719 145.69829 
L 311.531901 145.648272 
L 311.849256 145.436623 
L 312.166612 145.373244 
L 312.483967 145.183639 
L 313.436033 145.017391 
L 315.02281 144.263095 
L 315.657521 143.601074 
L 317.879008 143.065688 
L 318.196364 142.976412 
L 318.513719 142.479901 
L 319.78314 142.225231 
L 322.321983 141.196021 
L 323.27405 141.110389 
L 323.591405 140.935469 
L 323.90876 140.924811 
L 325.178182 140.322632 
L 325.495537 140.302142 
L 325.812893 139.980538 
L 326.130248 139.892673 
L 326.447603 139.527755 
L 328.03438 139.129851 
L 328.351736 138.740794 
L 329.303802 138.331337 
L 330.573223 138.247591 
L 330.890579 138.03351 
L 331.525289 137.413347 
L 332.477355 137.170046 
L 332.794711 136.781579 
L 333.429421 136.720976 
L 334.064132 136.469458 
L 335.016198 136.352943 
L 335.650909 136.04969 
L 335.968264 135.672166 
L 336.920331 135.331826 
L 337.237686 135.166221 
L 337.555041 134.716301 
L 338.189752 134.519194 
L 338.507107 134.48659 
L 339.141818 134.140109 
L 339.776529 133.831519 
L 340.093884 133.376405 
L 342.315372 132.531644 
L 343.902149 132.021285 
L 345.806281 131.408497 
L 346.123636 131.172995 
L 346.440992 130.486549 
L 347.075702 130.326001 
L 347.710413 129.939068 
L 348.027769 129.901283 
L 348.345124 129.279406 
L 350.566612 128.312837 
L 351.201322 127.923963 
L 352.788099 127.424439 
L 354.374876 126.311988 
L 355.009587 126.022618 
L 355.326942 125.663323 
L 357.54843 124.942699 
L 357.865785 124.514871 
L 358.500496 124.134372 
L 358.817851 123.628613 
L 359.135207 123.38724 
L 359.769917 123.212667 
L 360.087273 123.037836 
L 360.404628 122.402376 
L 361.039339 122.220962 
L 361.356694 121.627944 
L 361.991405 121.334824 
L 363.895537 120.568722 
L 364.530248 119.837607 
L 364.847603 119.767007 
L 365.164959 119.463651 
L 365.482314 119.433277 
L 366.117025 119.013797 
L 366.751736 118.769572 
L 367.069091 118.751863 
L 367.703802 118.394512 
L 368.021157 117.733259 
L 368.338512 117.367774 
L 368.655868 117.261262 
L 369.607934 116.038736 
L 370.242645 115.665518 
L 370.56 115.647785 
L 370.877355 115.473663 
L 371.194711 114.939948 
L 372.146777 114.420457 
L 372.464132 114.294547 
L 373.098843 113.291153 
L 373.416198 113.018668 
L 373.733554 112.356356 
L 374.368264 112.105402 
L 375.002975 112.01194 
L 375.320331 111.769792 
L 375.637686 111.153675 
L 376.272397 110.825459 
L 376.907107 110.296198 
L 377.541818 110.07759 
L 377.859174 109.27185 
L 378.493884 109.090661 
L 378.81124 108.319348 
L 379.128595 108.203116 
L 379.44595 107.4519 
L 380.080661 106.621868 
L 381.032727 105.880135 
L 382.302149 105.278738 
L 382.619504 104.576104 
L 382.93686 104.161496 
L 383.254215 103.091325 
L 383.57157 103.060264 
L 383.888926 102.513286 
L 384.206281 102.338839 
L 384.840992 101.415849 
L 385.158347 101.384543 
L 386.110413 100.55931 
L 386.745124 99.283752 
L 387.062479 98.965315 
L 387.379835 98.906014 
L 387.69719 98.704737 
L 388.014545 97.408567 
L 388.331901 96.976746 
L 388.649256 96.148162 
L 388.966612 96.042633 
L 389.283967 95.214277 
L 389.601322 95.11656 
L 390.553388 92.640284 
L 390.870744 92.513766 
L 391.188099 91.724679 
L 391.505455 91.501404 
L 391.82281 91.427044 
L 392.140165 89.210067 
L 392.457521 88.247987 
L 393.092231 87.462336 
L 393.726942 85.784242 
L 394.361653 83.027269 
L 394.679008 82.087358 
L 394.996364 81.79541 
L 395.631074 80.361424 
L 396.58314 75.127884 
L 396.900496 74.695962 
L 397.217851 67.854518 
L 397.535207 67.264179 
L 397.852562 65.283608 
L 398.487273 54.699174 
L 398.487273 54.699174 
" clip-path="url(#p3379fea824)" style="fill: none; stroke: #1f77b4; stroke-width: 1.5; stroke-linecap: square"/>
   </g>
   <g id="line2d_14">
    <path d="M 73.832727 294.217331 
L 74.150083 281.111013 
L 74.467438 279.828063 
L 74.784793 276.104809 
L 75.102149 270.30573 
L 75.419504 268.004696 
L 76.054215 265.321634 
L 76.37157 262.998495 
L 76.688926 262.998494 
L 77.006281 261.844971 
L 77.323636 258.047848 
L 77.640992 257.199415 
L 77.958347 255.789924 
L 78.275702 254.898384 
L 78.593058 254.898379 
L 78.910413 253.615432 
L 79.227769 253.570394 
L 80.179835 249.892179 
L 80.49719 249.892179 
L 81.131901 248.738656 
L 81.449256 248.381775 
L 82.718678 244.941532 
L 83.036033 244.253589 
L 83.353388 244.0931 
L 83.670744 243.764639 
L 83.988099 242.77244 
L 84.305455 242.683611 
L 84.62281 241.792066 
L 84.940165 241.792062 
L 85.257521 241.228347 
L 85.574876 241.159399 
L 85.892231 240.509116 
L 86.209587 240.464077 
L 86.526942 240.174174 
L 86.844298 239.491035 
L 87.479008 238.609636 
L 88.431074 236.785864 
L 88.74843 236.785864 
L 89.065785 236.108289 
L 89.700496 235.63234 
L 90.335207 235.275462 
L 90.969917 233.691955 
L 91.604628 233.649758 
L 91.921983 233.474024 
L 92.87405 231.967654 
L 93.191405 231.835216 
L 93.50876 231.14727 
L 93.826116 230.986786 
L 95.095537 229.759839 
L 96.047603 229.460103 
L 96.364959 228.685749 
L 96.682314 228.685746 
L 96.999669 228.294476 
L 97.63438 228.05308 
L 97.951736 227.4028 
L 98.269091 227.357759 
L 98.586446 227.06786 
L 98.903802 227.060921 
L 99.221157 226.621284 
L 100.173223 226.267775 
L 100.490579 226.00269 
L 100.807934 225.503316 
L 101.125289 225.301334 
L 101.76 224.56478 
L 102.077355 224.455732 
L 102.394711 223.692715 
L 103.029421 223.679548 
L 103.346777 223.001971 
L 103.981488 222.526025 
L 104.616198 222.327184 
L 104.933554 222.169149 
L 105.250909 221.267788 
L 105.88562 221.047004 
L 106.202975 220.722314 
L 106.520331 220.585636 
L 107.155041 220.543446 
L 107.472397 220.367711 
L 107.789752 219.882655 
L 108.107107 219.820805 
L 108.424463 219.563534 
L 108.741818 219.495997 
L 109.693884 218.772069 
L 110.328595 218.689925 
L 110.64595 218.040953 
L 110.963306 217.880472 
L 111.280661 217.552016 
L 111.598017 217.524583 
L 112.550083 216.962042 
L 114.13686 216.353789 
L 114.454215 215.621035 
L 115.088926 215.57943 
L 115.406281 215.188162 
L 116.040992 214.946761 
L 116.358347 214.918057 
L 116.675702 214.296485 
L 116.993058 214.251442 
L 117.310413 213.961545 
L 117.627769 213.954605 
L 117.945124 213.514971 
L 118.579835 213.426772 
L 119.214545 213.278397 
L 120.483967 213.037618 
L 120.801322 212.896375 
L 121.436033 212.396998 
L 121.753388 212.195022 
L 122.070744 212.134145 
L 122.705455 211.615486 
L 123.340165 211.352499 
L 123.657521 211.349417 
L 123.974876 210.586403 
L 124.926942 210.460608 
L 126.196364 209.630393 
L 126.513719 209.611972 
L 126.831074 209.441719 
L 127.465785 209.366591 
L 128.100496 209.062836 
L 128.417851 208.161472 
L 129.052562 208.022143 
L 129.369917 207.940695 
L 129.687273 207.479317 
L 130.321983 207.437134 
L 131.591405 206.776337 
L 131.90876 206.714489 
L 132.226116 206.457221 
L 132.543471 206.389681 
L 132.860826 206.112278 
L 133.178182 206.019455 
L 133.495537 205.755023 
L 134.447603 205.583609 
L 134.764959 204.934636 
L 135.717025 204.655066 
L 136.03438 204.445705 
L 136.351736 204.418273 
L 137.303802 203.887361 
L 138.890579 203.679299 
L 139.525289 203.547208 
L 140.794711 203.247475 
L 141.112066 202.624497 
L 141.746777 202.473116 
L 142.064132 202.473115 
L 142.381488 202.089265 
L 142.698843 202.081848 
L 143.333554 201.840444 
L 143.968264 201.730598 
L 144.28562 201.190169 
L 144.602975 201.145126 
L 144.920331 200.855231 
L 145.237686 200.84829 
L 145.555041 200.71118 
L 145.872397 200.408657 
L 146.507107 200.320456 
L 147.141818 200.172078 
L 148.728595 199.931304 
L 149.998017 199.290682 
L 150.315372 199.088709 
L 150.632727 199.027828 
L 150.950083 198.71635 
L 151.584793 198.696091 
L 151.902149 198.352148 
L 152.854215 197.985169 
L 153.488926 197.480091 
L 154.758347 197.354292 
L 155.710413 196.812483 
L 156.027769 196.789336 
L 156.662479 196.364023 
L 157.614545 196.260278 
L 158.249256 196.02387 
L 158.883967 195.956522 
L 159.201322 195.186585 
L 159.836033 194.929817 
L 161.105455 194.834384 
L 161.740165 194.751057 
L 162.057521 194.372999 
L 162.692231 194.33082 
L 163.326942 194.061195 
L 163.644298 194.038397 
L 163.961653 193.676649 
L 164.596364 193.608173 
L 164.913719 193.386292 
L 165.54843 193.283365 
L 166.18314 193.005961 
L 168.087273 192.477293 
L 168.404628 191.82832 
L 170.30876 191.311962 
L 170.626116 190.791578 
L 171.578182 190.649746 
L 174.117025 190.258358 
L 174.751736 190.066615 
L 175.069091 189.703408 
L 176.338512 189.3668 
L 176.655868 189.366799 
L 176.973223 188.98295 
L 177.290579 188.975535 
L 177.925289 188.734127 
L 178.877355 188.576494 
L 179.194711 188.507508 
L 179.512066 188.083853 
L 180.464132 187.97703 
L 180.781488 187.748916 
L 181.098843 187.741976 
L 181.416198 187.604859 
L 181.733554 187.302343 
L 182.050909 187.275919 
L 182.368264 187.095708 
L 184.272397 186.824994 
L 184.907107 186.569136 
L 185.541818 186.508073 
L 186.176529 186.193582 
L 186.81124 186.174908 
L 187.128595 185.982395 
L 187.44595 185.921511 
L 187.763306 185.610032 
L 188.398017 185.589778 
L 188.715372 185.245831 
L 189.032727 185.139863 
L 189.667438 184.657746 
L 190.619504 184.360606 
L 191.254215 184.266499 
L 191.888926 184.2394 
L 192.206281 184.071427 
L 192.840992 184.027278 
L 193.158347 183.791335 
L 194.110413 183.683019 
L 194.745124 183.229091 
L 195.379835 183.153965 
L 195.69719 183.008245 
L 196.966612 182.850208 
L 197.283967 182.080262 
L 197.601322 181.823502 
L 199.188099 181.644732 
L 199.505455 181.610316 
L 200.140165 181.266681 
L 200.774876 181.224506 
L 201.409587 180.954884 
L 201.726942 180.932075 
L 202.044298 180.579439 
L 203.313719 180.501858 
L 203.631074 180.279975 
L 204.265785 180.17705 
L 204.58314 179.977727 
L 205.535207 179.857701 
L 206.169917 179.759721 
L 206.804628 179.409957 
L 207.121983 179.370977 
L 207.439339 179.137659 
L 207.756694 178.632052 
L 209.343471 178.233083 
L 209.660826 177.685261 
L 210.930248 177.54343 
L 213.469091 177.240855 
L 214.421157 176.960293 
L 214.738512 176.597096 
L 215.373223 176.483553 
L 215.690579 176.462576 
L 216.007934 176.260485 
L 216.642645 176.201252 
L 216.96 176.129358 
L 217.277355 175.876635 
L 217.912066 175.78078 
L 218.546777 175.517974 
L 219.181488 175.401186 
L 219.816198 174.977538 
L 221.08562 174.870718 
L 221.402975 174.678908 
L 222.355041 174.49854 
L 222.672397 174.196029 
L 222.989752 174.169604 
L 223.307107 173.989398 
L 224.893884 173.764993 
L 225.21124 173.678245 
L 225.528595 173.462826 
L 226.163306 173.401745 
L 228.067438 172.503715 
L 229.019504 172.341032 
L 229.33686 172.139514 
L 229.97157 172.033546 
L 230.606281 171.551422 
L 231.558347 171.254292 
L 232.193058 171.160181 
L 233.145124 171.068265 
L 234.731901 170.59986 
L 235.049256 170.576703 
L 235.683967 170.122775 
L 236.318678 170.047653 
L 236.636033 169.901933 
L 237.905455 169.743894 
L 238.22281 168.97394 
L 238.540165 168.717188 
L 240.444298 168.53841 
L 240.761653 168.504003 
L 241.396364 168.160364 
L 242.031074 168.083172 
L 242.98314 167.473116 
L 243.935207 167.395543 
L 244.252562 167.173658 
L 244.887273 167.070735 
L 245.204628 166.871425 
L 246.156694 166.75138 
L 246.791405 166.653401 
L 247.10876 166.436074 
L 248.695537 166.031343 
L 249.647603 165.525736 
L 250.599669 165.336134 
L 250.917025 165.148456 
L 251.23438 165.126773 
L 251.551736 164.726827 
L 251.869091 164.571827 
L 252.821157 164.536784 
L 253.455868 164.409285 
L 255.36 164.13454 
L 255.994711 163.490783 
L 257.264132 163.356265 
L 257.581488 163.154169 
L 258.533554 163.094929 
L 258.850909 162.770321 
L 259.48562 162.674457 
L 260.120331 162.363852 
L 260.437686 162.294864 
L 261.072397 161.848481 
L 261.707107 161.764405 
L 262.659174 161.554221 
L 263.61124 161.392221 
L 264.24595 160.883088 
L 265.832727 160.658679 
L 268.054215 159.962289 
L 268.37157 159.708879 
L 269.323636 159.397399 
L 269.640992 159.254213 
L 269.958347 159.234715 
L 270.593058 158.927229 
L 270.910413 158.331299 
L 275.353388 157.205137 
L 275.670744 157.01646 
L 275.988099 157.00418 
L 276.305455 156.795621 
L 277.574876 156.678299 
L 278.526942 156.28556 
L 279.161653 155.596871 
L 279.796364 155.51828 
L 280.431074 155.463371 
L 281.38314 155.225838 
L 281.700496 155.054047 
L 282.017851 155.054046 
L 282.335207 154.864226 
L 282.652562 154.403822 
L 283.921983 154.289229 
L 284.556694 153.964419 
L 288.364959 152.925027 
L 289.317025 152.481696 
L 290.586446 152.229822 
L 291.221157 151.46551 
L 291.855868 151.330797 
L 293.442645 151.117219 
L 293.76 151.049162 
L 294.394711 150.354266 
L 296.298843 149.988607 
L 296.933554 149.664007 
L 297.568264 149.568136 
L 298.202975 149.257532 
L 298.520331 149.188544 
L 299.155041 148.742169 
L 299.472397 148.735509 
L 300.107107 148.467631 
L 300.741818 148.423033 
L 301.059174 148.285904 
L 301.693884 148.154951 
L 302.64595 147.578114 
L 303.598017 147.465621 
L 304.232727 147.250206 
L 304.867438 147.181178 
L 305.502149 146.666152 
L 307.088926 146.291083 
L 307.406281 146.147902 
L 307.723636 146.128399 
L 308.675702 145.820912 
L 308.993058 145.416076 
L 309.945124 144.947546 
L 310.579835 144.85564 
L 310.89719 144.570321 
L 312.166612 144.299292 
L 312.801322 143.926107 
L 313.436033 143.884329 
L 314.070744 143.586586 
L 314.705455 143.460591 
L 315.340165 142.761298 
L 315.657521 142.419273 
L 316.926942 142.308248 
L 317.561653 141.94773 
L 318.196364 141.896781 
L 318.513719 141.297499 
L 319.78314 141.170588 
L 320.417851 140.858105 
L 320.735207 140.776953 
L 321.052562 140.538741 
L 321.687273 140.47607 
L 322.004628 140.160764 
L 322.639339 140.052028 
L 323.27405 139.981262 
L 323.90876 139.771459 
L 325.495537 139.230553 
L 325.812893 138.791761 
L 326.130248 138.751228 
L 326.447603 138.359193 
L 327.082314 138.224482 
L 328.03438 138.010902 
L 328.351736 137.616586 
L 329.303802 137.190506 
L 330.573223 137.093466 
L 330.890579 136.934095 
L 331.525289 136.280165 
L 332.16 136.151212 
L 332.477355 136.082224 
L 332.794711 135.635858 
L 333.429421 135.573041 
L 334.381488 135.341592 
L 334.698843 135.331968 
L 336.920331 134.204851 
L 337.237686 134.143894 
L 337.555041 133.559847 
L 338.824463 133.198889 
L 339.776529 132.714596 
L 340.093884 132.204636 
L 341.363306 131.814121 
L 341.680661 131.464012 
L 342.315372 131.397328 
L 342.632727 131.192974 
L 342.950083 131.185847 
L 343.267438 130.992511 
L 343.584793 130.97321 
L 343.902149 130.819787 
L 344.53686 130.778019 
L 345.17157 130.480271 
L 345.806281 130.354279 
L 346.123636 130.072917 
L 346.440992 129.312953 
L 347.075702 129.30461 
L 347.710413 128.841414 
L 348.027769 128.790455 
L 348.345124 128.154152 
L 348.662479 128.06426 
L 349.614545 127.432424 
L 350.566612 127.36974 
L 350.883967 126.927321 
L 351.201322 126.736005 
L 351.836033 126.665155 
L 352.153388 126.486648 
L 352.470744 126.459275 
L 353.105455 126.124242 
L 353.42281 125.685448 
L 353.740165 125.644902 
L 354.057521 125.252875 
L 354.692231 125.118167 
L 355.009587 124.933145 
L 355.326942 124.510263 
L 355.961653 124.335422 
L 356.279008 124.141626 
L 357.54843 123.843962 
L 358.18314 123.162567 
L 358.500496 123.044893 
L 358.817851 122.529547 
L 359.135207 122.235279 
L 359.452562 122.225667 
L 360.087273 121.942326 
L 360.404628 121.237471 
L 361.039339 121.098534 
L 361.356694 120.453541 
L 363.895537 119.428151 
L 364.530248 118.734913 
L 366.43438 117.713467 
L 367.069091 117.671707 
L 367.703802 117.317822 
L 368.021157 116.559767 
L 368.338512 116.206633 
L 368.655868 116.199335 
L 369.290579 115.047831 
L 369.607934 114.957935 
L 370.242645 114.564322 
L 370.56 114.505509 
L 370.877355 114.307216 
L 371.194711 113.821006 
L 371.829421 113.380344 
L 372.146777 113.35296 
L 372.464132 113.162744 
L 373.098843 112.146558 
L 373.416198 111.800642 
L 373.733554 111.2291 
L 374.050909 111.035307 
L 375.320331 110.737631 
L 375.637686 110.056235 
L 375.955041 109.938574 
L 376.907107 109.128967 
L 377.224463 109.119365 
L 377.541818 108.953042 
L 377.859174 108.131147 
L 378.493884 107.992218 
L 378.81124 107.124946 
L 379.128595 107.112792 
L 379.44595 106.321848 
L 380.398017 105.231326 
L 381.350083 104.607149 
L 381.667438 104.578904 
L 382.302149 104.211501 
L 382.619504 103.453455 
L 382.93686 103.003301 
L 383.254215 101.941511 
L 383.57157 101.92664 
L 383.888926 101.458006 
L 384.206281 101.200893 
L 384.840992 100.274038 
L 385.158347 100.23034 
L 385.793058 99.768285 
L 386.110413 99.432249 
L 386.745124 98.150913 
L 387.062479 97.871549 
L 387.69719 97.631302 
L 388.014545 96.289201 
L 388.331901 95.846721 
L 388.649256 95.024824 
L 388.966612 94.90017 
L 389.283967 94.018625 
L 389.601322 94.006479 
L 390.553388 91.500832 
L 390.870744 91.472586 
L 391.188099 90.503532 
L 391.505455 90.360794 
L 391.82281 90.347142 
L 392.140165 88.09457 
L 392.457521 87.124025 
L 393.409587 85.587993 
L 393.726942 84.668194 
L 394.361653 81.918501 
L 394.679008 80.912306 
L 394.996364 80.684211 
L 395.313719 79.780676 
L 395.631074 79.241665 
L 396.265785 74.988248 
L 396.58314 74.017708 
L 396.900496 73.555648 
L 397.217851 66.674338 
L 397.535207 66.13534 
L 397.852562 64.148144 
L 398.487273 53.568 
L 398.487273 53.568 
" clip-path="url(#p3379fea824)" style="fill: none; stroke: #ff7f0e; stroke-width: 1.5; stroke-linecap: square"/>
   </g>
   <g id="patch_3">
    <path d="M 57.6 307.584 
L 57.6 41.472 
" style="fill: none; stroke: #000000; stroke-width: 0.8; stroke-linejoin: miter; stroke-linecap: square"/>
   </g>
   <g id="patch_4">
    <path d="M 414.72 307.584 
L 414.72 41.472 
" style="fill: none; stroke: #000000; stroke-width: 0.8; stroke-linejoin: miter; stroke-linecap: square"/>
   </g>
   <g id="patch_5">
    <path d="M 57.6 307.584 
L 414.72 307.584 
" style="fill: none; stroke: #000000; stroke-width: 0.8; stroke-linejoin: miter; stroke-linecap: square"/>
   </g>
   <g id="patch_6">
    <path d="M 57.6 41.472 
L 414.72 41.472 
" style="fill: none; stroke: #000000; stroke-width: 0.8; stroke-linejoin: miter; stroke-linecap: square"/>
   </g>
   <g id="legend_1">
    <g id="patch_7">
     <path d="M 64.6 78.82825 
L 129.342187 78.82825 
Q 131.342187 78.82825 131.342187 76.82825 
L 131.342187 48.472 
Q 131.342187 46.472 129.342187 46.472 
L 64.6 46.472 
Q 62.6 46.472 62.6 48.472 
L 62.6 76.82825 
Q 62.6 78.82825 64.6 78.82825 
z
" style="fill: #ffffff; opacity: 0.8; stroke: #cccccc; stroke-linejoin: miter"/>
    </g>
    <g id="line2d_15">
     <path d="M 66.6 54.570437 
L 76.6 54.570437 
L 86.6 54.570437 
" style="fill: none; stroke: #1f77b4; stroke-width: 1.5; stroke-linecap: square"/>
    </g>
    <g id="text_15">
     <!-- qc -->
     <g transform="translate(94.6 58.070437) scale(0.1 -0.1)">
      <defs>
       <path id="DejaVuSans-71" d="M 947 1747 
Q 947 1113 1208 752 
Q 1469 391 1925 391 
Q 2381 391 2643 752 
Q 2906 1113 2906 1747 
Q 2906 2381 2643 2742 
Q 2381 3103 1925 3103 
Q 1469 3103 1208 2742 
Q 947 2381 947 1747 
z
M 2906 525 
Q 2725 213 2448 61 
Q 2172 -91 1784 -91 
Q 1150 -91 751 415 
Q 353 922 353 1747 
Q 353 2572 751 3078 
Q 1150 3584 1784 3584 
Q 2172 3584 2448 3432 
Q 2725 3281 2906 2969 
L 2906 3500 
L 3481 3500 
L 3481 -1331 
L 2906 -1331 
L 2906 525 
z
" transform="scale(0.015625)"/>
       <path id="DejaVuSans-63" d="M 3122 3366 
L 3122 2828 
Q 2878 2963 2633 3030 
Q 2388 3097 2138 3097 
Q 1578 3097 1268 2742 
Q 959 2388 959 1747 
Q 959 1106 1268 751 
Q 1578 397 2138 397 
Q 2388 397 2633 464 
Q 2878 531 3122 666 
L 3122 134 
Q 2881 22 2623 -34 
Q 2366 -91 2075 -91 
Q 1284 -91 818 406 
Q 353 903 353 1747 
Q 353 2603 823 3093 
Q 1294 3584 2113 3584 
Q 2378 3584 2631 3529 
Q 2884 3475 3122 3366 
z
" transform="scale(0.015625)"/>
      </defs>
      <use xlink:href="#DejaVuSans-71"/>
      <use xlink:href="#DejaVuSans-63" x="63.476562"/>
     </g>
    </g>
    <g id="line2d_16">
     <path d="M 66.6 69.248562 
L 76.6 69.248562 
L 86.6 69.248562 
" style="fill: none; stroke: #ff7f0e; stroke-width: 1.5; stroke-linecap: square"/>
    </g>
    <g id="text_16">
     <!-- Trotter -->
     <g transform="translate(94.6 72.748562) scale(0.1 -0.1)">
      <defs>
       <path id="DejaVuSans-54" d="M -19 4666 
L 3928 4666 
L 3928 4134 
L 2272 4134 
L 2272 0 
L 1638 0 
L 1638 4134 
L -19 4134 
L -19 4666 
z
" transform="scale(0.015625)"/>
       <path id="DejaVuSans-72" d="M 2631 2963 
Q 2534 3019 2420 3045 
Q 2306 3072 2169 3072 
Q 1681 3072 1420 2755 
Q 1159 2438 1159 1844 
L 1159 0 
L 581 0 
L 581 3500 
L 1159 3500 
L 1159 2956 
Q 1341 3275 1631 3429 
Q 1922 3584 2338 3584 
Q 2397 3584 2469 3576 
Q 2541 3569 2628 3553 
L 2631 2963 
z
" transform="scale(0.015625)"/>
       <path id="DejaVuSans-6f" d="M 1959 3097 
Q 1497 3097 1228 2736 
Q 959 2375 959 1747 
Q 959 1119 1226 758 
Q 1494 397 1959 397 
Q 2419 397 2687 759 
Q 2956 1122 2956 1747 
Q 2956 2369 2687 2733 
Q 2419 3097 1959 3097 
z
M 1959 3584 
Q 2709 3584 3137 3096 
Q 3566 2609 3566 1747 
Q 3566 888 3137 398 
Q 2709 -91 1959 -91 
Q 1206 -91 779 398 
Q 353 888 353 1747 
Q 353 2609 779 3096 
Q 1206 3584 1959 3584 
z
" transform="scale(0.015625)"/>
       <path id="DejaVuSans-65" d="M 3597 1894 
L 3597 1613 
L 953 1613 
Q 991 1019 1311 708 
Q 1631 397 2203 397 
Q 2534 397 2845 478 
Q 3156 559 3463 722 
L 3463 178 
Q 3153 47 2828 -22 
Q 2503 -91 2169 -91 
Q 1331 -91 842 396 
Q 353 884 353 1716 
Q 353 2575 817 3079 
Q 1281 3584 2069 3584 
Q 2775 3584 3186 3129 
Q 3597 2675 3597 1894 
z
M 3022 2063 
Q 3016 2534 2758 2815 
Q 2500 3097 2075 3097 
Q 1594 3097 1305 2825 
Q 1016 2553 972 2059 
L 3022 2063 
z
" transform="scale(0.015625)"/>
      </defs>
      <use xlink:href="#DejaVuSans-54"/>
      <use xlink:href="#DejaVuSans-72" x="46.333984"/>
      <use xlink:href="#DejaVuSans-6f" x="85.197266"/>
      <use xlink:href="#DejaVuSans-74" x="146.378906"/>
      <use xlink:href="#DejaVuSans-74" x="185.587891"/>
      <use xlink:href="#DejaVuSans-65" x="224.796875"/>
      <use xlink:href="#DejaVuSans-72" x="286.320312"/>
     </g>
    </g>
   </g>
  </g>
 </g>
 <defs>
  <clipPath id="p3379fea824">
   <rect x="57.6" y="41.472" width="357.12" height="266.112"/>
  </clipPath>
 </defs>
</svg>
