<?xml version="1.0" encoding="utf-8" standalone="no"?>
<!DOCTYPE svg PUBLIC "-//W3C//DTD SVG 1.1//EN"
  "http://www.w3.org/Graphics/SVG/1.1/DTD/svg11.dtd">
<svg xmlns:xlink="http://www.w3.org/1999/xlink" width="460.8pt" height="345.6pt" viewBox="0 0 460.8 345.6" xmlns="http://www.w3.org/2000/svg" version="1.1">
 <metadata>
  <rdf:RDF xmlns:dc="http://purl.org/dc/elements/1.1/" xmlns:cc="http://creativecommons.org/ns#" xmlns:rdf="http://www.w3.org/1999/02/22-rdf-syntax-ns#">
   <cc:Work>
    <dc:type rdf:resource="http://purl.org/dc/dcmitype/StillImage"/>
    <dc:date>2024-08-25T10:16:31.048267</dc:date>
    <dc:format>image/svg+xml</dc:format>
    <dc:creator>
     <cc:Agent>
      <dc:title>Matplotlib v3.7.1, https://matplotlib.org/</dc:title>
     </cc:Agent>
    </dc:creator>
   </cc:Work>
  </rdf:RDF>
 </metadata>
 <defs>
  <style type="text/css">*{stroke-linejoin: round; stroke-linecap: butt}</style>
 </defs>
 <g id="figure_1">
  <g id="patch_1">
   <path d="M 0 345.6 
L 460.8 345.6 
L 460.8 0 
L 0 0 
z
" style="fill: #ffffff"/>
  </g>
  <g id="axes_1">
   <g id="patch_2">
    <path d="M 57.6 307.584 
L 414.72 307.584 
L 414.72 41.472 
L 57.6 41.472 
z
" style="fill: #ffffff"/>
   </g>
   <g id="matplotlib.axis_1">
    <g id="xtick_1">
     <g id="line2d_1">
      <defs>
       <path id="mfb4515d651" d="M 0 0 
L 0 3.5 
" style="stroke: #000000; stroke-width: 0.8"/>
      </defs>
      <g>
       <use xlink:href="#mfb4515d651" x="73.832727" y="307.584" style="stroke: #000000; stroke-width: 0.8"/>
      </g>
     </g>
     <g id="text_1">
      <!-- 0 -->
      <g transform="translate(70.651477 322.182437) scale(0.1 -0.1)">
       <defs>
        <path id="DejaVuSans-30" d="M 2034 4250 
Q 1547 4250 1301 3770 
Q 1056 3291 1056 2328 
Q 1056 1369 1301 889 
Q 1547 409 2034 409 
Q 2525 409 2770 889 
Q 3016 1369 3016 2328 
Q 3016 3291 2770 3770 
Q 2525 4250 2034 4250 
z
M 2034 4750 
Q 2819 4750 3233 4129 
Q 3647 3509 3647 2328 
Q 3647 1150 3233 529 
Q 2819 -91 2034 -91 
Q 1250 -91 836 529 
Q 422 1150 422 2328 
Q 422 3509 836 4129 
Q 1250 4750 2034 4750 
z
" transform="scale(0.015625)"/>
       </defs>
       <use xlink:href="#DejaVuSans-30"/>
      </g>
     </g>
    </g>
    <g id="xtick_2">
     <g id="line2d_2">
      <g>
       <use xlink:href="#mfb4515d651" x="137.303802" y="307.584" style="stroke: #000000; stroke-width: 0.8"/>
      </g>
     </g>
     <g id="text_2">
      <!-- 200 -->
      <g transform="translate(127.760052 322.182437) scale(0.1 -0.1)">
       <defs>
        <path id="DejaVuSans-32" d="M 1228 531 
L 3431 531 
L 3431 0 
L 469 0 
L 469 531 
Q 828 903 1448 1529 
Q 2069 2156 2228 2338 
Q 2531 2678 2651 2914 
Q 2772 3150 2772 3378 
Q 2772 3750 2511 3984 
Q 2250 4219 1831 4219 
Q 1534 4219 1204 4116 
Q 875 4013 500 3803 
L 500 4441 
Q 881 4594 1212 4672 
Q 1544 4750 1819 4750 
Q 2544 4750 2975 4387 
Q 3406 4025 3406 3419 
Q 3406 3131 3298 2873 
Q 3191 2616 2906 2266 
Q 2828 2175 2409 1742 
Q 1991 1309 1228 531 
z
" transform="scale(0.015625)"/>
       </defs>
       <use xlink:href="#DejaVuSans-32"/>
       <use xlink:href="#DejaVuSans-30" x="63.623047"/>
       <use xlink:href="#DejaVuSans-30" x="127.246094"/>
      </g>
     </g>
    </g>
    <g id="xtick_3">
     <g id="line2d_3">
      <g>
       <use xlink:href="#mfb4515d651" x="200.774876" y="307.584" style="stroke: #000000; stroke-width: 0.8"/>
      </g>
     </g>
     <g id="text_3">
      <!-- 400 -->
      <g transform="translate(191.231126 322.182437) scale(0.1 -0.1)">
       <defs>
        <path id="DejaVuSans-34" d="M 2419 4116 
L 825 1625 
L 2419 1625 
L 2419 4116 
z
M 2253 4666 
L 3047 4666 
L 3047 1625 
L 3713 1625 
L 3713 1100 
L 3047 1100 
L 3047 0 
L 2419 0 
L 2419 1100 
L 313 1100 
L 313 1709 
L 2253 4666 
z
" transform="scale(0.015625)"/>
       </defs>
       <use xlink:href="#DejaVuSans-34"/>
       <use xlink:href="#DejaVuSans-30" x="63.623047"/>
       <use xlink:href="#DejaVuSans-30" x="127.246094"/>
      </g>
     </g>
    </g>
    <g id="xtick_4">
     <g id="line2d_4">
      <g>
       <use xlink:href="#mfb4515d651" x="264.24595" y="307.584" style="stroke: #000000; stroke-width: 0.8"/>
      </g>
     </g>
     <g id="text_4">
      <!-- 600 -->
      <g transform="translate(254.7022 322.182437) scale(0.1 -0.1)">
       <defs>
        <path id="DejaVuSans-36" d="M 2113 2584 
Q 1688 2584 1439 2293 
Q 1191 2003 1191 1497 
Q 1191 994 1439 701 
Q 1688 409 2113 409 
Q 2538 409 2786 701 
Q 3034 994 3034 1497 
Q 3034 2003 2786 2293 
Q 2538 2584 2113 2584 
z
M 3366 4563 
L 3366 3988 
Q 3128 4100 2886 4159 
Q 2644 4219 2406 4219 
Q 1781 4219 1451 3797 
Q 1122 3375 1075 2522 
Q 1259 2794 1537 2939 
Q 1816 3084 2150 3084 
Q 2853 3084 3261 2657 
Q 3669 2231 3669 1497 
Q 3669 778 3244 343 
Q 2819 -91 2113 -91 
Q 1303 -91 875 529 
Q 447 1150 447 2328 
Q 447 3434 972 4092 
Q 1497 4750 2381 4750 
Q 2619 4750 2861 4703 
Q 3103 4656 3366 4563 
z
" transform="scale(0.015625)"/>
       </defs>
       <use xlink:href="#DejaVuSans-36"/>
       <use xlink:href="#DejaVuSans-30" x="63.623047"/>
       <use xlink:href="#DejaVuSans-30" x="127.246094"/>
      </g>
     </g>
    </g>
    <g id="xtick_5">
     <g id="line2d_5">
      <g>
       <use xlink:href="#mfb4515d651" x="327.717025" y="307.584" style="stroke: #000000; stroke-width: 0.8"/>
      </g>
     </g>
     <g id="text_5">
      <!-- 800 -->
      <g transform="translate(318.173275 322.182437) scale(0.1 -0.1)">
       <defs>
        <path id="DejaVuSans-38" d="M 2034 2216 
Q 1584 2216 1326 1975 
Q 1069 1734 1069 1313 
Q 1069 891 1326 650 
Q 1584 409 2034 409 
Q 2484 409 2743 651 
Q 3003 894 3003 1313 
Q 3003 1734 2745 1975 
Q 2488 2216 2034 2216 
z
M 1403 2484 
Q 997 2584 770 2862 
Q 544 3141 544 3541 
Q 544 4100 942 4425 
Q 1341 4750 2034 4750 
Q 2731 4750 3128 4425 
Q 3525 4100 3525 3541 
Q 3525 3141 3298 2862 
Q 3072 2584 2669 2484 
Q 3125 2378 3379 2068 
Q 3634 1759 3634 1313 
Q 3634 634 3220 271 
Q 2806 -91 2034 -91 
Q 1263 -91 848 271 
Q 434 634 434 1313 
Q 434 1759 690 2068 
Q 947 2378 1403 2484 
z
M 1172 3481 
Q 1172 3119 1398 2916 
Q 1625 2713 2034 2713 
Q 2441 2713 2670 2916 
Q 2900 3119 2900 3481 
Q 2900 3844 2670 4047 
Q 2441 4250 2034 4250 
Q 1625 4250 1398 4047 
Q 1172 3844 1172 3481 
z
" transform="scale(0.015625)"/>
       </defs>
       <use xlink:href="#DejaVuSans-38"/>
       <use xlink:href="#DejaVuSans-30" x="63.623047"/>
       <use xlink:href="#DejaVuSans-30" x="127.246094"/>
      </g>
     </g>
    </g>
    <g id="xtick_6">
     <g id="line2d_6">
      <g>
       <use xlink:href="#mfb4515d651" x="391.188099" y="307.584" style="stroke: #000000; stroke-width: 0.8"/>
      </g>
     </g>
     <g id="text_6">
      <!-- 1000 -->
      <g transform="translate(378.463099 322.182437) scale(0.1 -0.1)">
       <defs>
        <path id="DejaVuSans-31" d="M 794 531 
L 1825 531 
L 1825 4091 
L 703 3866 
L 703 4441 
L 1819 4666 
L 2450 4666 
L 2450 531 
L 3481 531 
L 3481 0 
L 794 0 
L 794 531 
z
" transform="scale(0.015625)"/>
       </defs>
       <use xlink:href="#DejaVuSans-31"/>
       <use xlink:href="#DejaVuSans-30" x="63.623047"/>
       <use xlink:href="#DejaVuSans-30" x="127.246094"/>
       <use xlink:href="#DejaVuSans-30" x="190.869141"/>
      </g>
     </g>
    </g>
    <g id="text_7">
     <!-- n -->
     <g transform="translate(232.99125 335.860562) scale(0.1 -0.1)">
      <defs>
       <path id="DejaVuSans-6e" d="M 3513 2113 
L 3513 0 
L 2938 0 
L 2938 2094 
Q 2938 2591 2744 2837 
Q 2550 3084 2163 3084 
Q 1697 3084 1428 2787 
Q 1159 2491 1159 1978 
L 1159 0 
L 581 0 
L 581 3500 
L 1159 3500 
L 1159 2956 
Q 1366 3272 1645 3428 
Q 1925 3584 2291 3584 
Q 2894 3584 3203 3211 
Q 3513 2838 3513 2113 
z
" transform="scale(0.015625)"/>
      </defs>
      <use xlink:href="#DejaVuSans-6e"/>
     </g>
    </g>
   </g>
   <g id="matplotlib.axis_2">
    <g id="ytick_1">
     <g id="line2d_7">
      <defs>
       <path id="m4bc04e72e8" d="M 0 0 
L -3.5 0 
" style="stroke: #000000; stroke-width: 0.8"/>
      </defs>
      <g>
       <use xlink:href="#m4bc04e72e8" x="57.6" y="292.191193" style="stroke: #000000; stroke-width: 0.8"/>
      </g>
     </g>
     <g id="text_8">
      <!-- −6 -->
      <g transform="translate(35.857813 295.990411) scale(0.1 -0.1)">
       <defs>
        <path id="DejaVuSans-2212" d="M 678 2272 
L 4684 2272 
L 4684 1741 
L 678 1741 
L 678 2272 
z
" transform="scale(0.015625)"/>
       </defs>
       <use xlink:href="#DejaVuSans-2212"/>
       <use xlink:href="#DejaVuSans-36" x="83.789062"/>
      </g>
     </g>
    </g>
    <g id="ytick_2">
     <g id="line2d_8">
      <g>
       <use xlink:href="#m4bc04e72e8" x="57.6" y="254.423697" style="stroke: #000000; stroke-width: 0.8"/>
      </g>
     </g>
     <g id="text_9">
      <!-- −4 -->
      <g transform="translate(35.857813 258.222916) scale(0.1 -0.1)">
       <use xlink:href="#DejaVuSans-2212"/>
       <use xlink:href="#DejaVuSans-34" x="83.789062"/>
      </g>
     </g>
    </g>
    <g id="ytick_3">
     <g id="line2d_9">
      <g>
       <use xlink:href="#m4bc04e72e8" x="57.6" y="216.656202" style="stroke: #000000; stroke-width: 0.8"/>
      </g>
     </g>
     <g id="text_10">
      <!-- −2 -->
      <g transform="translate(35.857813 220.455421) scale(0.1 -0.1)">
       <use xlink:href="#DejaVuSans-2212"/>
       <use xlink:href="#DejaVuSans-32" x="83.789062"/>
      </g>
     </g>
    </g>
    <g id="ytick_4">
     <g id="line2d_10">
      <g>
       <use xlink:href="#m4bc04e72e8" x="57.6" y="178.888707" style="stroke: #000000; stroke-width: 0.8"/>
      </g>
     </g>
     <g id="text_11">
      <!-- 0 -->
      <g transform="translate(44.2375 182.687925) scale(0.1 -0.1)">
       <use xlink:href="#DejaVuSans-30"/>
      </g>
     </g>
    </g>
    <g id="ytick_5">
     <g id="line2d_11">
      <g>
       <use xlink:href="#m4bc04e72e8" x="57.6" y="141.121211" style="stroke: #000000; stroke-width: 0.8"/>
      </g>
     </g>
     <g id="text_12">
      <!-- 2 -->
      <g transform="translate(44.2375 144.92043) scale(0.1 -0.1)">
       <use xlink:href="#DejaVuSans-32"/>
      </g>
     </g>
    </g>
    <g id="ytick_6">
     <g id="line2d_12">
      <g>
       <use xlink:href="#m4bc04e72e8" x="57.6" y="103.353716" style="stroke: #000000; stroke-width: 0.8"/>
      </g>
     </g>
     <g id="text_13">
      <!-- 4 -->
      <g transform="translate(44.2375 107.152935) scale(0.1 -0.1)">
       <use xlink:href="#DejaVuSans-34"/>
      </g>
     </g>
    </g>
    <g id="ytick_7">
     <g id="line2d_13">
      <g>
       <use xlink:href="#m4bc04e72e8" x="57.6" y="65.586221" style="stroke: #000000; stroke-width: 0.8"/>
      </g>
     </g>
     <g id="text_14">
      <!-- 6 -->
      <g transform="translate(44.2375 69.38544) scale(0.1 -0.1)">
       <use xlink:href="#DejaVuSans-36"/>
      </g>
     </g>
    </g>
    <g id="text_15">
     <!-- E*t -->
     <g transform="translate(29.778125 182.147531) rotate(-90) scale(0.1 -0.1)">
      <defs>
       <path id="DejaVuSans-45" d="M 628 4666 
L 3578 4666 
L 3578 4134 
L 1259 4134 
L 1259 2753 
L 3481 2753 
L 3481 2222 
L 1259 2222 
L 1259 531 
L 3634 531 
L 3634 0 
L 628 0 
L 628 4666 
z
" transform="scale(0.015625)"/>
       <path id="DejaVuSans-2a" d="M 3009 3897 
L 1888 3291 
L 3009 2681 
L 2828 2375 
L 1778 3009 
L 1778 1831 
L 1422 1831 
L 1422 3009 
L 372 2375 
L 191 2681 
L 1313 3291 
L 191 3897 
L 372 4206 
L 1422 3572 
L 1422 4750 
L 1778 4750 
L 1778 3572 
L 2828 4206 
L 3009 3897 
z
" transform="scale(0.015625)"/>
       <path id="DejaVuSans-74" d="M 1172 4494 
L 1172 3500 
L 2356 3500 
L 2356 3053 
L 1172 3053 
L 1172 1153 
Q 1172 725 1289 603 
Q 1406 481 1766 481 
L 2356 481 
L 2356 0 
L 1766 0 
Q 1100 0 847 248 
Q 594 497 594 1153 
L 594 3053 
L 172 3053 
L 172 3500 
L 594 3500 
L 594 4494 
L 1172 4494 
z
" transform="scale(0.015625)"/>
      </defs>
      <use xlink:href="#DejaVuSans-45"/>
      <use xlink:href="#DejaVuSans-2a" x="63.183594"/>
      <use xlink:href="#DejaVuSans-74" x="113.183594"/>
     </g>
    </g>
   </g>
   <g id="line2d_14">
    <path d="M 73.832727 295.488 
L 74.150083 290.875736 
L 74.467438 283.553087 
L 74.784793 281.986327 
L 75.102149 281.791687 
L 75.419504 278.76419 
L 75.73686 277.791444 
L 76.054215 277.521529 
L 76.37157 276.798479 
L 76.688926 273.751952 
L 77.006281 273.277259 
L 77.323636 272.453715 
L 77.958347 269.889948 
L 78.275702 269.262028 
L 78.910413 267.63962 
L 79.862479 265.880882 
L 80.179835 265.353942 
L 80.49719 264.363663 
L 81.449256 262.941523 
L 82.083967 260.691537 
L 82.718678 260.178521 
L 83.353388 258.941292 
L 83.670744 258.785268 
L 83.988099 258.090623 
L 84.940165 256.957539 
L 85.257521 256.470077 
L 85.574876 255.641898 
L 86.526942 254.963075 
L 87.161653 253.882785 
L 87.479008 253.635394 
L 87.796364 253.156663 
L 88.431074 252.694764 
L 88.74843 252.036782 
L 90.969917 249.990132 
L 91.604628 249.575028 
L 92.239339 248.915593 
L 92.556694 248.091742 
L 92.87405 247.779959 
L 93.191405 247.689465 
L 93.50876 247.321092 
L 93.826116 246.718334 
L 94.143471 246.690101 
L 94.460826 246.333205 
L 94.778182 246.167914 
L 95.412893 245.339148 
L 95.730248 245.159644 
L 96.047603 244.687265 
L 96.364959 243.90924 
L 96.682314 243.758506 
L 97.317025 243.048382 
L 98.269091 242.359518 
L 98.586446 241.847737 
L 98.903802 241.732754 
L 100.490579 240.185121 
L 100.807934 240.058484 
L 101.125289 239.632601 
L 102.712066 238.95369 
L 103.981488 237.863273 
L 104.616198 237.243074 
L 104.933554 237.138047 
L 105.88562 236.401039 
L 106.202975 236.338332 
L 106.520331 236.109657 
L 106.837686 235.717877 
L 107.472397 235.456668 
L 108.107107 235.157144 
L 108.741818 234.583646 
L 109.376529 234.219629 
L 110.01124 233.860201 
L 111.598017 232.747959 
L 112.550083 232.198633 
L 113.184793 231.878658 
L 114.13686 231.351872 
L 114.77157 230.752858 
L 115.406281 230.458912 
L 116.040992 229.950251 
L 117.945124 228.759978 
L 118.262479 228.466269 
L 118.89719 228.150118 
L 122.070744 226.452181 
L 123.02281 225.845861 
L 123.974876 225.426141 
L 124.292231 225.071797 
L 125.561653 224.405424 
L 126.196364 223.987341 
L 126.831074 223.766248 
L 127.465785 223.307674 
L 128.100496 223.036118 
L 128.735207 222.558973 
L 129.052562 222.39475 
L 129.369917 222.072105 
L 130.956694 221.483165 
L 131.90876 220.920224 
L 132.543471 220.697467 
L 140.16 216.979563 
L 140.477355 216.920453 
L 141.746777 216.25898 
L 143.968264 215.364172 
L 144.920331 214.989126 
L 146.189752 214.546729 
L 149.680661 212.892772 
L 149.998017 212.848268 
L 151.267438 212.255313 
L 152.854215 211.623792 
L 153.17157 211.564045 
L 154.123636 211.070445 
L 156.027769 210.317152 
L 156.662479 209.885245 
L 157.29719 209.688758 
L 157.931901 209.341845 
L 158.566612 209.153334 
L 159.201322 208.674691 
L 161.740165 207.71888 
L 163.009587 207.235169 
L 163.644298 207.043955 
L 166.18314 205.891018 
L 167.135207 205.5272 
L 167.769917 205.213715 
L 168.404628 205.00756 
L 171.578182 203.837853 
L 175.069091 202.343645 
L 175.386446 202.057306 
L 176.338512 201.918778 
L 176.655868 201.838532 
L 177.290579 201.488689 
L 178.242645 201.189618 
L 179.194711 200.84692 
L 182.68562 199.659753 
L 183.955041 199.209859 
L 185.224463 198.666829 
L 193.158347 195.501731 
L 194.110413 195.206514 
L 196.966612 194.235786 
L 197.601322 193.965981 
L 202.044298 192.295592 
L 202.679008 192.015636 
L 203.313719 191.838305 
L 212.83438 188.611379 
L 213.786446 188.348156 
L 214.738512 188.016238 
L 216.007934 187.507743 
L 217.277355 186.944341 
L 217.912066 186.835897 
L 221.402975 185.67513 
L 226.798017 183.78496 
L 228.067438 183.205578 
L 235.366612 180.614529 
L 243.617851 177.542479 
L 244.569917 177.30913 
L 246.156694 176.776621 
L 247.743471 176.328818 
L 248.060826 176.222262 
L 248.695537 175.846673 
L 250.282314 175.352485 
L 258.533554 172.344179 
L 258.850909 172.314094 
L 259.168264 172.107995 
L 259.48562 172.077905 
L 260.437686 171.742976 
L 261.707107 171.303564 
L 264.880661 170.119647 
L 265.515372 169.855668 
L 266.467438 169.504164 
L 269.640992 168.365092 
L 269.958347 168.310867 
L 270.593058 167.974426 
L 271.545124 167.693298 
L 273.766612 166.649834 
L 278.844298 164.912221 
L 282.017851 163.723991 
L 282.969917 163.517817 
L 283.604628 163.310724 
L 283.921983 163.234191 
L 284.556694 162.767906 
L 285.826116 162.303616 
L 290.586446 160.486351 
L 290.903802 160.312985 
L 291.538512 160.17999 
L 292.173223 159.9359 
L 292.807934 159.757463 
L 293.125289 159.573023 
L 293.442645 159.526056 
L 294.394711 159.104741 
L 294.712066 159.060294 
L 295.346777 158.672097 
L 295.664132 158.611108 
L 295.981488 158.374356 
L 297.250909 157.912001 
L 298.520331 157.320789 
L 302.01124 155.977149 
L 303.280661 155.695238 
L 304.232727 155.069119 
L 304.867438 154.898139 
L 305.502149 154.584858 
L 305.819504 154.533966 
L 306.454215 154.141496 
L 307.406281 153.793859 
L 308.358347 153.501121 
L 308.993058 153.055002 
L 309.627769 152.845545 
L 309.945124 152.587149 
L 310.579835 152.313758 
L 311.531901 151.974899 
L 312.483967 151.628438 
L 313.118678 151.228016 
L 315.340165 150.148793 
L 315.974876 149.762526 
L 316.926942 149.406173 
L 318.513719 148.655421 
L 318.831074 148.601594 
L 319.465785 148.280497 
L 320.100496 148.113436 
L 320.417851 147.851134 
L 321.687273 147.331853 
L 322.639339 146.99111 
L 323.591405 146.657477 
L 324.226116 146.243697 
L 324.860826 146.016631 
L 326.764959 144.929214 
L 328.03438 144.516568 
L 331.207934 143.151226 
L 331.525289 142.823483 
L 332.794711 142.213798 
L 336.920331 140.02934 
L 337.237686 139.774888 
L 337.555041 139.722442 
L 337.872397 139.422312 
L 338.507107 139.109581 
L 339.776529 138.489691 
L 340.093884 138.392263 
L 340.41124 138.040792 
L 341.04595 137.758425 
L 342.315372 137.12478 
L 343.267438 136.63531 
L 343.584793 136.607464 
L 343.902149 136.31147 
L 344.53686 136.032041 
L 345.17157 135.630452 
L 345.806281 135.444176 
L 346.123636 135.310333 
L 346.440992 134.882749 
L 346.758347 134.820509 
L 347.710413 134.220586 
L 348.345124 133.883932 
L 351.518678 132.20187 
L 351.836033 131.674419 
L 352.470744 131.418408 
L 355.961653 129.462303 
L 356.279008 129.057836 
L 356.596364 128.852503 
L 357.231074 128.724139 
L 357.54843 128.489243 
L 358.18314 128.22465 
L 361.039339 126.004978 
L 361.356694 125.930066 
L 361.991405 125.401819 
L 362.626116 124.975033 
L 363.895537 124.128148 
L 364.212893 123.612024 
L 364.847603 123.336847 
L 365.164959 122.96673 
L 365.482314 122.789847 
L 366.117025 122.213361 
L 367.386446 121.733273 
L 368.021157 121.215658 
L 368.338512 121.053419 
L 368.655868 120.756645 
L 368.973223 120.272781 
L 369.290579 120.018924 
L 369.925289 119.68681 
L 370.242645 119.168378 
L 370.56 118.913248 
L 370.877355 118.820844 
L 371.512066 118.364492 
L 371.829421 117.857277 
L 372.146777 117.653338 
L 372.464132 116.918413 
L 373.098843 116.562265 
L 373.416198 116.335 
L 373.733554 115.86984 
L 374.68562 115.242725 
L 375.002975 114.861447 
L 375.955041 114.342463 
L 376.272397 113.793486 
L 376.589752 113.500857 
L 377.224463 112.389091 
L 377.859174 112.000308 
L 378.176529 111.85489 
L 378.81124 111.006103 
L 379.44595 110.6353 
L 381.984793 108.098755 
L 382.302149 107.603314 
L 383.254215 106.956842 
L 383.888926 106.435785 
L 384.206281 105.855397 
L 384.840992 103.784804 
L 385.158347 103.477146 
L 386.427769 101.283456 
L 386.745124 101.087064 
L 387.062479 100.26759 
L 387.379835 99.854091 
L 388.649256 99.086733 
L 388.966612 98.463723 
L 389.283967 97.203621 
L 389.601322 97.153828 
L 390.870744 94.428971 
L 391.188099 93.147607 
L 391.505455 92.699769 
L 391.82281 92.485413 
L 392.140165 92.11325 
L 392.457521 91.056397 
L 392.774876 90.507828 
L 393.092231 89.6182 
L 393.409587 87.494219 
L 393.726942 86.428906 
L 394.044298 86.120009 
L 394.679008 83.613706 
L 394.996364 83.006505 
L 395.313719 81.623824 
L 395.631074 81.404396 
L 395.94843 79.515762 
L 396.58314 77.105164 
L 396.900496 74.594187 
L 397.217851 73.110755 
L 397.535207 70.324815 
L 397.852562 62.374681 
L 398.169917 60.111524 
L 398.487273 53.568 
L 398.487273 53.568 
" clip-path="url(#pfe9cdedc82)" style="fill: none; stroke: #1f77b4; stroke-width: 1.5; stroke-linecap: square"/>
   </g>
   <g id="line2d_15">
    <path d="M 73.832727 267.384962 
L 74.150083 257.058401 
L 74.467438 257.058401 
L 74.784793 248.231295 
L 75.102149 246.39778 
L 75.73686 246.39778 
L 76.054215 243.095033 
L 76.37157 237.519538 
L 76.688926 237.177465 
L 77.006281 237.177465 
L 77.323636 236.314755 
L 78.910413 236.314755 
L 79.227769 233.16929 
L 79.545124 233.16929 
L 79.862479 232.030642 
L 80.179835 231.327169 
L 80.49719 231.327169 
L 80.814545 227.848967 
L 81.131901 226.211749 
L 82.083967 226.183598 
L 82.401322 225.21462 
L 86.844298 225.159605 
L 87.161653 224.629043 
L 87.479008 222.108642 
L 87.796364 221.551474 
L 88.113719 220.678939 
L 89.700496 220.678939 
L 90.017851 219.564097 
L 90.652562 219.564097 
L 90.969917 218.269042 
L 91.287273 218.269042 
L 91.604628 217.59442 
L 91.921983 215.859188 
L 99.221157 215.859188 
L 99.538512 214.825222 
L 99.855868 214.825222 
L 100.173223 214.580645 
L 101.76 214.580645 
L 102.077355 213.508911 
L 103.664132 213.508911 
L 103.981488 213.267167 
L 104.298843 212.849283 
L 104.933554 212.849283 
L 105.250909 211.379545 
L 106.202975 211.305473 
L 106.520331 207.988514 
L 107.155041 207.660776 
L 107.472397 207.660776 
L 107.789752 206.896976 
L 109.376529 206.896976 
L 109.693884 205.220687 
L 110.01124 205.220687 
L 110.328595 203.368913 
L 129.369917 203.368837 
L 129.687273 202.316537 
L 130.321983 201.32684 
L 131.27405 201.263741 
L 131.591405 200.402911 
L 131.90876 200.402911 
L 132.226116 200.206241 
L 132.860826 200.206241 
L 133.178182 198.549086 
L 133.495537 198.549086 
L 133.812893 198.202079 
L 135.399669 198.202079 
L 135.717025 196.788889 
L 136.669091 196.198809 
L 163.009587 196.198809 
L 163.326942 194.732099 
L 167.135207 194.732099 
L 167.452562 194.464051 
L 167.769917 194.464051 
L 168.087273 192.648807 
L 168.404628 192.648807 
L 168.721983 192.164285 
L 169.356694 192.164285 
L 169.67405 191.851615 
L 169.991405 191.102715 
L 171.578182 191.102715 
L 172.212893 190.574688 
L 172.530248 190.574688 
L 172.847603 190.350674 
L 180.146777 190.350674 
L 180.464132 189.965089 
L 180.781488 189.965089 
L 181.098843 189.586874 
L 182.68562 189.586874 
L 183.320331 186.058735 
L 185.541818 186.02735 
L 185.859174 185.822366 
L 186.493884 185.822366 
L 186.81124 185.512741 
L 187.128595 184.736842 
L 187.44595 184.736842 
L 187.763306 184.211334 
L 188.080661 184.211334 
L 188.398017 182.017476 
L 188.715372 178.888707 
L 283.604628 178.888707 
L 284.239339 173.56608 
L 284.556694 173.56608 
L 284.87405 173.040572 
L 285.191405 173.040572 
L 285.50876 172.264673 
L 285.826116 171.955048 
L 286.460826 171.955048 
L 286.778182 171.750063 
L 288.999669 171.718679 
L 289.63438 168.19054 
L 291.221157 168.19054 
L 291.538512 167.812325 
L 291.855868 167.812325 
L 292.173223 167.42674 
L 299.472397 167.42674 
L 299.789752 167.202726 
L 300.107107 167.202726 
L 300.741818 166.674698 
L 302.328595 166.674698 
L 302.64595 165.925799 
L 302.963306 165.613128 
L 303.598017 165.613128 
L 303.915372 165.128606 
L 304.232727 165.128606 
L 304.550083 163.313363 
L 304.867438 163.313363 
L 305.184793 163.045314 
L 308.993058 163.045314 
L 309.310413 161.578605 
L 335.968264 161.498157 
L 336.602975 160.988524 
L 336.920331 159.575334 
L 338.507107 159.575334 
L 338.824463 159.228328 
L 339.141818 159.228328 
L 339.459174 157.571173 
L 340.093884 157.571173 
L 340.41124 157.374502 
L 340.728595 157.374502 
L 341.04595 156.513673 
L 341.680661 156.450574 
L 341.998017 156.450574 
L 342.315372 156.067514 
L 342.632727 155.460876 
L 342.950083 154.408577 
L 361.991405 154.4085 
L 362.30876 152.556727 
L 362.626116 152.556727 
L 362.943471 150.880438 
L 364.530248 150.880438 
L 364.847603 150.116638 
L 365.164959 150.116638 
L 365.799669 149.788899 
L 366.117025 146.47194 
L 367.069091 146.397869 
L 367.386446 144.92813 
L 368.021157 144.92813 
L 368.655868 144.268503 
L 370.242645 144.268503 
L 370.56 143.196769 
L 372.146777 143.196769 
L 372.464132 142.952191 
L 372.781488 142.952191 
L 373.098843 141.918226 
L 380.398017 141.918226 
L 380.715372 140.182993 
L 381.032727 139.508371 
L 381.350083 139.508371 
L 381.667438 138.213316 
L 382.302149 138.213316 
L 382.619504 137.098475 
L 384.206281 137.098475 
L 384.840992 135.668771 
L 385.158347 133.148371 
L 385.475702 132.617809 
L 389.918678 132.562793 
L 390.236033 131.593815 
L 391.188099 131.565664 
L 391.505455 129.928447 
L 391.82281 126.450244 
L 392.140165 126.450244 
L 392.457521 125.746771 
L 392.774876 124.608124 
L 393.092231 124.608124 
L 393.409587 121.462659 
L 394.996364 121.462659 
L 395.313719 120.599948 
L 395.631074 120.599948 
L 395.94843 120.257875 
L 396.265785 114.68238 
L 396.58314 111.379633 
L 397.217851 111.379633 
L 397.535207 109.546118 
L 397.852562 100.719012 
L 398.169917 100.719012 
L 398.487273 90.392452 
L 398.487273 90.392452 
" clip-path="url(#pfe9cdedc82)" style="fill: none; stroke: #ff7f0e; stroke-width: 1.5; stroke-linecap: square"/>
   </g>
   <g id="patch_3">
    <path d="M 57.6 307.584 
L 57.6 41.472 
" style="fill: none; stroke: #000000; stroke-width: 0.8; stroke-linejoin: miter; stroke-linecap: square"/>
   </g>
   <g id="patch_4">
    <path d="M 414.72 307.584 
L 414.72 41.472 
" style="fill: none; stroke: #000000; stroke-width: 0.8; stroke-linejoin: miter; stroke-linecap: square"/>
   </g>
   <g id="patch_5">
    <path d="M 57.6 307.584 
L 414.72 307.584 
" style="fill: none; stroke: #000000; stroke-width: 0.8; stroke-linejoin: miter; stroke-linecap: square"/>
   </g>
   <g id="patch_6">
    <path d="M 57.6 41.472 
L 414.72 41.472 
" style="fill: none; stroke: #000000; stroke-width: 0.8; stroke-linejoin: miter; stroke-linecap: square"/>
   </g>
   <g id="legend_1">
    <g id="patch_7">
     <path d="M 64.6 78.82825 
L 129.342187 78.82825 
Q 131.342187 78.82825 131.342187 76.82825 
L 131.342187 48.472 
Q 131.342187 46.472 129.342187 46.472 
L 64.6 46.472 
Q 62.6 46.472 62.6 48.472 
L 62.6 76.82825 
Q 62.6 78.82825 64.6 78.82825 
z
" style="fill: #ffffff; opacity: 0.8; stroke: #cccccc; stroke-linejoin: miter"/>
    </g>
    <g id="line2d_16">
     <path d="M 66.6 54.570437 
L 76.6 54.570437 
L 86.6 54.570437 
" style="fill: none; stroke: #1f77b4; stroke-width: 1.5; stroke-linecap: square"/>
    </g>
    <g id="text_16">
     <!-- qc -->
     <g transform="translate(94.6 58.070437) scale(0.1 -0.1)">
      <defs>
       <path id="DejaVuSans-71" d="M 947 1747 
Q 947 1113 1208 752 
Q 1469 391 1925 391 
Q 2381 391 2643 752 
Q 2906 1113 2906 1747 
Q 2906 2381 2643 2742 
Q 2381 3103 1925 3103 
Q 1469 3103 1208 2742 
Q 947 2381 947 1747 
z
M 2906 525 
Q 2725 213 2448 61 
Q 2172 -91 1784 -91 
Q 1150 -91 751 415 
Q 353 922 353 1747 
Q 353 2572 751 3078 
Q 1150 3584 1784 3584 
Q 2172 3584 2448 3432 
Q 2725 3281 2906 2969 
L 2906 3500 
L 3481 3500 
L 3481 -1331 
L 2906 -1331 
L 2906 525 
z
" transform="scale(0.015625)"/>
       <path id="DejaVuSans-63" d="M 3122 3366 
L 3122 2828 
Q 2878 2963 2633 3030 
Q 2388 3097 2138 3097 
Q 1578 3097 1268 2742 
Q 959 2388 959 1747 
Q 959 1106 1268 751 
Q 1578 397 2138 397 
Q 2388 397 2633 464 
Q 2878 531 3122 666 
L 3122 134 
Q 2881 22 2623 -34 
Q 2366 -91 2075 -91 
Q 1284 -91 818 406 
Q 353 903 353 1747 
Q 353 2603 823 3093 
Q 1294 3584 2113 3584 
Q 2378 3584 2631 3529 
Q 2884 3475 3122 3366 
z
" transform="scale(0.015625)"/>
      </defs>
      <use xlink:href="#DejaVuSans-71"/>
      <use xlink:href="#DejaVuSans-63" x="63.476562"/>
     </g>
    </g>
    <g id="line2d_17">
     <path d="M 66.6 69.248562 
L 76.6 69.248562 
L 86.6 69.248562 
" style="fill: none; stroke: #ff7f0e; stroke-width: 1.5; stroke-linecap: square"/>
    </g>
    <g id="text_17">
     <!-- Trotter -->
     <g transform="translate(94.6 72.748562) scale(0.1 -0.1)">
      <defs>
       <path id="DejaVuSans-54" d="M -19 4666 
L 3928 4666 
L 3928 4134 
L 2272 4134 
L 2272 0 
L 1638 0 
L 1638 4134 
L -19 4134 
L -19 4666 
z
" transform="scale(0.015625)"/>
       <path id="DejaVuSans-72" d="M 2631 2963 
Q 2534 3019 2420 3045 
Q 2306 3072 2169 3072 
Q 1681 3072 1420 2755 
Q 1159 2438 1159 1844 
L 1159 0 
L 581 0 
L 581 3500 
L 1159 3500 
L 1159 2956 
Q 1341 3275 1631 3429 
Q 1922 3584 2338 3584 
Q 2397 3584 2469 3576 
Q 2541 3569 2628 3553 
L 2631 2963 
z
" transform="scale(0.015625)"/>
       <path id="DejaVuSans-6f" d="M 1959 3097 
Q 1497 3097 1228 2736 
Q 959 2375 959 1747 
Q 959 1119 1226 758 
Q 1494 397 1959 397 
Q 2419 397 2687 759 
Q 2956 1122 2956 1747 
Q 2956 2369 2687 2733 
Q 2419 3097 1959 3097 
z
M 1959 3584 
Q 2709 3584 3137 3096 
Q 3566 2609 3566 1747 
Q 3566 888 3137 398 
Q 2709 -91 1959 -91 
Q 1206 -91 779 398 
Q 353 888 353 1747 
Q 353 2609 779 3096 
Q 1206 3584 1959 3584 
z
" transform="scale(0.015625)"/>
       <path id="DejaVuSans-65" d="M 3597 1894 
L 3597 1613 
L 953 1613 
Q 991 1019 1311 708 
Q 1631 397 2203 397 
Q 2534 397 2845 478 
Q 3156 559 3463 722 
L 3463 178 
Q 3153 47 2828 -22 
Q 2503 -91 2169 -91 
Q 1331 -91 842 396 
Q 353 884 353 1716 
Q 353 2575 817 3079 
Q 1281 3584 2069 3584 
Q 2775 3584 3186 3129 
Q 3597 2675 3597 1894 
z
M 3022 2063 
Q 3016 2534 2758 2815 
Q 2500 3097 2075 3097 
Q 1594 3097 1305 2825 
Q 1016 2553 972 2059 
L 3022 2063 
z
" transform="scale(0.015625)"/>
      </defs>
      <use xlink:href="#DejaVuSans-54"/>
      <use xlink:href="#DejaVuSans-72" x="46.333984"/>
      <use xlink:href="#DejaVuSans-6f" x="85.197266"/>
      <use xlink:href="#DejaVuSans-74" x="146.378906"/>
      <use xlink:href="#DejaVuSans-74" x="185.587891"/>
      <use xlink:href="#DejaVuSans-65" x="224.796875"/>
      <use xlink:href="#DejaVuSans-72" x="286.320312"/>
     </g>
    </g>
   </g>
  </g>
 </g>
 <defs>
  <clipPath id="pfe9cdedc82">
   <rect x="57.6" y="41.472" width="357.12" height="266.112"/>
  </clipPath>
 </defs>
</svg>
