<?xml version="1.0" encoding="utf-8" standalone="no"?>
<!DOCTYPE svg PUBLIC "-//W3C//DTD SVG 1.1//EN"
  "http://www.w3.org/Graphics/SVG/1.1/DTD/svg11.dtd">
<svg xmlns:xlink="http://www.w3.org/1999/xlink" width="460.8pt" height="345.6pt" viewBox="0 0 460.8 345.6" xmlns="http://www.w3.org/2000/svg" version="1.1">
 <metadata>
  <rdf:RDF xmlns:dc="http://purl.org/dc/elements/1.1/" xmlns:cc="http://creativecommons.org/ns#" xmlns:rdf="http://www.w3.org/1999/02/22-rdf-syntax-ns#">
   <cc:Work>
    <dc:type rdf:resource="http://purl.org/dc/dcmitype/StillImage"/>
    <dc:date>2024-08-24T17:31:38.032745</dc:date>
    <dc:format>image/svg+xml</dc:format>
    <dc:creator>
     <cc:Agent>
      <dc:title>Matplotlib v3.7.1, https://matplotlib.org/</dc:title>
     </cc:Agent>
    </dc:creator>
   </cc:Work>
  </rdf:RDF>
 </metadata>
 <defs>
  <style type="text/css">*{stroke-linejoin: round; stroke-linecap: butt}</style>
 </defs>
 <g id="figure_1">
  <g id="patch_1">
   <path d="M 0 345.6 
L 460.8 345.6 
L 460.8 0 
L 0 0 
z
" style="fill: #ffffff"/>
  </g>
  <g id="axes_1">
   <g id="patch_2">
    <path d="M 57.6 307.584 
L 414.72 307.584 
L 414.72 41.472 
L 57.6 41.472 
z
" style="fill: #ffffff"/>
   </g>
   <g id="matplotlib.axis_1">
    <g id="xtick_1">
     <g id="line2d_1">
      <defs>
       <path id="m7f6e9287dc" d="M 0 0 
L 0 3.5 
" style="stroke: #000000; stroke-width: 0.8"/>
      </defs>
      <g>
       <use xlink:href="#m7f6e9287dc" x="73.832727" y="307.584" style="stroke: #000000; stroke-width: 0.8"/>
      </g>
     </g>
     <g id="text_1">
      <!-- 0 -->
      <g transform="translate(70.651477 322.182437) scale(0.1 -0.1)">
       <defs>
        <path id="DejaVuSans-30" d="M 2034 4250 
Q 1547 4250 1301 3770 
Q 1056 3291 1056 2328 
Q 1056 1369 1301 889 
Q 1547 409 2034 409 
Q 2525 409 2770 889 
Q 3016 1369 3016 2328 
Q 3016 3291 2770 3770 
Q 2525 4250 2034 4250 
z
M 2034 4750 
Q 2819 4750 3233 4129 
Q 3647 3509 3647 2328 
Q 3647 1150 3233 529 
Q 2819 -91 2034 -91 
Q 1250 -91 836 529 
Q 422 1150 422 2328 
Q 422 3509 836 4129 
Q 1250 4750 2034 4750 
z
" transform="scale(0.015625)"/>
       </defs>
       <use xlink:href="#DejaVuSans-30"/>
      </g>
     </g>
    </g>
    <g id="xtick_2">
     <g id="line2d_2">
      <g>
       <use xlink:href="#m7f6e9287dc" x="137.303802" y="307.584" style="stroke: #000000; stroke-width: 0.8"/>
      </g>
     </g>
     <g id="text_2">
      <!-- 200 -->
      <g transform="translate(127.760052 322.182437) scale(0.1 -0.1)">
       <defs>
        <path id="DejaVuSans-32" d="M 1228 531 
L 3431 531 
L 3431 0 
L 469 0 
L 469 531 
Q 828 903 1448 1529 
Q 2069 2156 2228 2338 
Q 2531 2678 2651 2914 
Q 2772 3150 2772 3378 
Q 2772 3750 2511 3984 
Q 2250 4219 1831 4219 
Q 1534 4219 1204 4116 
Q 875 4013 500 3803 
L 500 4441 
Q 881 4594 1212 4672 
Q 1544 4750 1819 4750 
Q 2544 4750 2975 4387 
Q 3406 4025 3406 3419 
Q 3406 3131 3298 2873 
Q 3191 2616 2906 2266 
Q 2828 2175 2409 1742 
Q 1991 1309 1228 531 
z
" transform="scale(0.015625)"/>
       </defs>
       <use xlink:href="#DejaVuSans-32"/>
       <use xlink:href="#DejaVuSans-30" x="63.623047"/>
       <use xlink:href="#DejaVuSans-30" x="127.246094"/>
      </g>
     </g>
    </g>
    <g id="xtick_3">
     <g id="line2d_3">
      <g>
       <use xlink:href="#m7f6e9287dc" x="200.774876" y="307.584" style="stroke: #000000; stroke-width: 0.8"/>
      </g>
     </g>
     <g id="text_3">
      <!-- 400 -->
      <g transform="translate(191.231126 322.182437) scale(0.1 -0.1)">
       <defs>
        <path id="DejaVuSans-34" d="M 2419 4116 
L 825 1625 
L 2419 1625 
L 2419 4116 
z
M 2253 4666 
L 3047 4666 
L 3047 1625 
L 3713 1625 
L 3713 1100 
L 3047 1100 
L 3047 0 
L 2419 0 
L 2419 1100 
L 313 1100 
L 313 1709 
L 2253 4666 
z
" transform="scale(0.015625)"/>
       </defs>
       <use xlink:href="#DejaVuSans-34"/>
       <use xlink:href="#DejaVuSans-30" x="63.623047"/>
       <use xlink:href="#DejaVuSans-30" x="127.246094"/>
      </g>
     </g>
    </g>
    <g id="xtick_4">
     <g id="line2d_4">
      <g>
       <use xlink:href="#m7f6e9287dc" x="264.24595" y="307.584" style="stroke: #000000; stroke-width: 0.8"/>
      </g>
     </g>
     <g id="text_4">
      <!-- 600 -->
      <g transform="translate(254.7022 322.182437) scale(0.1 -0.1)">
       <defs>
        <path id="DejaVuSans-36" d="M 2113 2584 
Q 1688 2584 1439 2293 
Q 1191 2003 1191 1497 
Q 1191 994 1439 701 
Q 1688 409 2113 409 
Q 2538 409 2786 701 
Q 3034 994 3034 1497 
Q 3034 2003 2786 2293 
Q 2538 2584 2113 2584 
z
M 3366 4563 
L 3366 3988 
Q 3128 4100 2886 4159 
Q 2644 4219 2406 4219 
Q 1781 4219 1451 3797 
Q 1122 3375 1075 2522 
Q 1259 2794 1537 2939 
Q 1816 3084 2150 3084 
Q 2853 3084 3261 2657 
Q 3669 2231 3669 1497 
Q 3669 778 3244 343 
Q 2819 -91 2113 -91 
Q 1303 -91 875 529 
Q 447 1150 447 2328 
Q 447 3434 972 4092 
Q 1497 4750 2381 4750 
Q 2619 4750 2861 4703 
Q 3103 4656 3366 4563 
z
" transform="scale(0.015625)"/>
       </defs>
       <use xlink:href="#DejaVuSans-36"/>
       <use xlink:href="#DejaVuSans-30" x="63.623047"/>
       <use xlink:href="#DejaVuSans-30" x="127.246094"/>
      </g>
     </g>
    </g>
    <g id="xtick_5">
     <g id="line2d_5">
      <g>
       <use xlink:href="#m7f6e9287dc" x="327.717025" y="307.584" style="stroke: #000000; stroke-width: 0.8"/>
      </g>
     </g>
     <g id="text_5">
      <!-- 800 -->
      <g transform="translate(318.173275 322.182437) scale(0.1 -0.1)">
       <defs>
        <path id="DejaVuSans-38" d="M 2034 2216 
Q 1584 2216 1326 1975 
Q 1069 1734 1069 1313 
Q 1069 891 1326 650 
Q 1584 409 2034 409 
Q 2484 409 2743 651 
Q 3003 894 3003 1313 
Q 3003 1734 2745 1975 
Q 2488 2216 2034 2216 
z
M 1403 2484 
Q 997 2584 770 2862 
Q 544 3141 544 3541 
Q 544 4100 942 4425 
Q 1341 4750 2034 4750 
Q 2731 4750 3128 4425 
Q 3525 4100 3525 3541 
Q 3525 3141 3298 2862 
Q 3072 2584 2669 2484 
Q 3125 2378 3379 2068 
Q 3634 1759 3634 1313 
Q 3634 634 3220 271 
Q 2806 -91 2034 -91 
Q 1263 -91 848 271 
Q 434 634 434 1313 
Q 434 1759 690 2068 
Q 947 2378 1403 2484 
z
M 1172 3481 
Q 1172 3119 1398 2916 
Q 1625 2713 2034 2713 
Q 2441 2713 2670 2916 
Q 2900 3119 2900 3481 
Q 2900 3844 2670 4047 
Q 2441 4250 2034 4250 
Q 1625 4250 1398 4047 
Q 1172 3844 1172 3481 
z
" transform="scale(0.015625)"/>
       </defs>
       <use xlink:href="#DejaVuSans-38"/>
       <use xlink:href="#DejaVuSans-30" x="63.623047"/>
       <use xlink:href="#DejaVuSans-30" x="127.246094"/>
      </g>
     </g>
    </g>
    <g id="xtick_6">
     <g id="line2d_6">
      <g>
       <use xlink:href="#m7f6e9287dc" x="391.188099" y="307.584" style="stroke: #000000; stroke-width: 0.8"/>
      </g>
     </g>
     <g id="text_6">
      <!-- 1000 -->
      <g transform="translate(378.463099 322.182437) scale(0.1 -0.1)">
       <defs>
        <path id="DejaVuSans-31" d="M 794 531 
L 1825 531 
L 1825 4091 
L 703 3866 
L 703 4441 
L 1819 4666 
L 2450 4666 
L 2450 531 
L 3481 531 
L 3481 0 
L 794 0 
L 794 531 
z
" transform="scale(0.015625)"/>
       </defs>
       <use xlink:href="#DejaVuSans-31"/>
       <use xlink:href="#DejaVuSans-30" x="63.623047"/>
       <use xlink:href="#DejaVuSans-30" x="127.246094"/>
       <use xlink:href="#DejaVuSans-30" x="190.869141"/>
      </g>
     </g>
    </g>
    <g id="text_7">
     <!-- n -->
     <g transform="translate(232.99125 335.860562) scale(0.1 -0.1)">
      <defs>
       <path id="DejaVuSans-6e" d="M 3513 2113 
L 3513 0 
L 2938 0 
L 2938 2094 
Q 2938 2591 2744 2837 
Q 2550 3084 2163 3084 
Q 1697 3084 1428 2787 
Q 1159 2491 1159 1978 
L 1159 0 
L 581 0 
L 581 3500 
L 1159 3500 
L 1159 2956 
Q 1366 3272 1645 3428 
Q 1925 3584 2291 3584 
Q 2894 3584 3203 3211 
Q 3513 2838 3513 2113 
z
" transform="scale(0.015625)"/>
      </defs>
      <use xlink:href="#DejaVuSans-6e"/>
     </g>
    </g>
   </g>
   <g id="matplotlib.axis_2">
    <g id="ytick_1">
     <g id="line2d_7">
      <defs>
       <path id="mbfd26f9517" d="M 0 0 
L -3.5 0 
" style="stroke: #000000; stroke-width: 0.8"/>
      </defs>
      <g>
       <use xlink:href="#mbfd26f9517" x="57.6" y="278.698871" style="stroke: #000000; stroke-width: 0.8"/>
      </g>
     </g>
     <g id="text_8">
      <!-- −15 -->
      <g transform="translate(29.495313 282.49809) scale(0.1 -0.1)">
       <defs>
        <path id="DejaVuSans-2212" d="M 678 2272 
L 4684 2272 
L 4684 1741 
L 678 1741 
L 678 2272 
z
" transform="scale(0.015625)"/>
        <path id="DejaVuSans-35" d="M 691 4666 
L 3169 4666 
L 3169 4134 
L 1269 4134 
L 1269 2991 
Q 1406 3038 1543 3061 
Q 1681 3084 1819 3084 
Q 2600 3084 3056 2656 
Q 3513 2228 3513 1497 
Q 3513 744 3044 326 
Q 2575 -91 1722 -91 
Q 1428 -91 1123 -41 
Q 819 9 494 109 
L 494 744 
Q 775 591 1075 516 
Q 1375 441 1709 441 
Q 2250 441 2565 725 
Q 2881 1009 2881 1497 
Q 2881 1984 2565 2268 
Q 2250 2553 1709 2553 
Q 1456 2553 1204 2497 
Q 953 2441 691 2322 
L 691 4666 
z
" transform="scale(0.015625)"/>
       </defs>
       <use xlink:href="#DejaVuSans-2212"/>
       <use xlink:href="#DejaVuSans-31" x="83.789062"/>
       <use xlink:href="#DejaVuSans-35" x="147.412109"/>
      </g>
     </g>
    </g>
    <g id="ytick_2">
     <g id="line2d_8">
      <g>
       <use xlink:href="#mbfd26f9517" x="57.6" y="243.70873" style="stroke: #000000; stroke-width: 0.8"/>
      </g>
     </g>
     <g id="text_9">
      <!-- −10 -->
      <g transform="translate(29.495313 247.507949) scale(0.1 -0.1)">
       <use xlink:href="#DejaVuSans-2212"/>
       <use xlink:href="#DejaVuSans-31" x="83.789062"/>
       <use xlink:href="#DejaVuSans-30" x="147.412109"/>
      </g>
     </g>
    </g>
    <g id="ytick_3">
     <g id="line2d_9">
      <g>
       <use xlink:href="#mbfd26f9517" x="57.6" y="208.718589" style="stroke: #000000; stroke-width: 0.8"/>
      </g>
     </g>
     <g id="text_10">
      <!-- −5 -->
      <g transform="translate(35.857813 212.517808) scale(0.1 -0.1)">
       <use xlink:href="#DejaVuSans-2212"/>
       <use xlink:href="#DejaVuSans-35" x="83.789062"/>
      </g>
     </g>
    </g>
    <g id="ytick_4">
     <g id="line2d_10">
      <g>
       <use xlink:href="#mbfd26f9517" x="57.6" y="173.728449" style="stroke: #000000; stroke-width: 0.8"/>
      </g>
     </g>
     <g id="text_11">
      <!-- 0 -->
      <g transform="translate(44.2375 177.527667) scale(0.1 -0.1)">
       <use xlink:href="#DejaVuSans-30"/>
      </g>
     </g>
    </g>
    <g id="ytick_5">
     <g id="line2d_11">
      <g>
       <use xlink:href="#mbfd26f9517" x="57.6" y="138.738308" style="stroke: #000000; stroke-width: 0.8"/>
      </g>
     </g>
     <g id="text_12">
      <!-- 5 -->
      <g transform="translate(44.2375 142.537527) scale(0.1 -0.1)">
       <use xlink:href="#DejaVuSans-35"/>
      </g>
     </g>
    </g>
    <g id="ytick_6">
     <g id="line2d_12">
      <g>
       <use xlink:href="#mbfd26f9517" x="57.6" y="103.748167" style="stroke: #000000; stroke-width: 0.8"/>
      </g>
     </g>
     <g id="text_13">
      <!-- 10 -->
      <g transform="translate(37.875 107.547386) scale(0.1 -0.1)">
       <use xlink:href="#DejaVuSans-31"/>
       <use xlink:href="#DejaVuSans-30" x="63.623047"/>
      </g>
     </g>
    </g>
    <g id="ytick_7">
     <g id="line2d_13">
      <g>
       <use xlink:href="#mbfd26f9517" x="57.6" y="68.758026" style="stroke: #000000; stroke-width: 0.8"/>
      </g>
     </g>
     <g id="text_14">
      <!-- 15 -->
      <g transform="translate(37.875 72.557245) scale(0.1 -0.1)">
       <use xlink:href="#DejaVuSans-31"/>
       <use xlink:href="#DejaVuSans-35" x="63.623047"/>
      </g>
     </g>
    </g>
    <g id="text_15">
     <!-- E*t -->
     <g transform="translate(23.415625 182.147531) rotate(-90) scale(0.1 -0.1)">
      <defs>
       <path id="DejaVuSans-45" d="M 628 4666 
L 3578 4666 
L 3578 4134 
L 1259 4134 
L 1259 2753 
L 3481 2753 
L 3481 2222 
L 1259 2222 
L 1259 531 
L 3634 531 
L 3634 0 
L 628 0 
L 628 4666 
z
" transform="scale(0.015625)"/>
       <path id="DejaVuSans-2a" d="M 3009 3897 
L 1888 3291 
L 3009 2681 
L 2828 2375 
L 1778 3009 
L 1778 1831 
L 1422 1831 
L 1422 3009 
L 372 2375 
L 191 2681 
L 1313 3291 
L 191 3897 
L 372 4206 
L 1422 3572 
L 1422 4750 
L 1778 4750 
L 1778 3572 
L 2828 4206 
L 3009 3897 
z
" transform="scale(0.015625)"/>
       <path id="DejaVuSans-74" d="M 1172 4494 
L 1172 3500 
L 2356 3500 
L 2356 3053 
L 1172 3053 
L 1172 1153 
Q 1172 725 1289 603 
Q 1406 481 1766 481 
L 2356 481 
L 2356 0 
L 1766 0 
Q 1100 0 847 248 
Q 594 497 594 1153 
L 594 3053 
L 172 3053 
L 172 3500 
L 594 3500 
L 594 4494 
L 1172 4494 
z
" transform="scale(0.015625)"/>
      </defs>
      <use xlink:href="#DejaVuSans-45"/>
      <use xlink:href="#DejaVuSans-2a" x="63.183594"/>
      <use xlink:href="#DejaVuSans-74" x="113.183594"/>
     </g>
    </g>
   </g>
   <g id="line2d_14">
    <path d="M 73.832727 295.488 
L 74.150083 295.392761 
L 74.467438 295.009613 
L 74.784793 294.324197 
L 75.102149 294.232183 
L 75.419504 293.99938 
L 75.73686 293.907885 
L 76.054215 292.574196 
L 76.37157 292.181912 
L 76.688926 292.093133 
L 77.323636 291.48861 
L 78.593058 291.072298 
L 79.545124 289.898601 
L 79.862479 289.860609 
L 80.49719 289.380007 
L 80.814545 289.299174 
L 81.131901 288.783405 
L 81.766612 287.064687 
L 82.083967 286.713785 
L 82.401322 286.675425 
L 82.718678 285.466688 
L 83.036033 284.914373 
L 83.353388 284.76432 
L 83.670744 283.555584 
L 83.988099 283.450629 
L 84.305455 282.93486 
L 84.62281 282.737759 
L 84.940165 282.078721 
L 85.257521 282.071504 
L 85.574876 281.765026 
L 85.892231 280.939693 
L 86.209587 280.826632 
L 86.526942 280.1604 
L 86.844298 279.853922 
L 87.479008 277.934054 
L 87.796364 277.002542 
L 88.431074 276.749166 
L 89.065785 276.398264 
L 89.38314 275.869342 
L 89.700496 275.844985 
L 90.017851 275.5638 
L 90.335207 275.51844 
L 90.652562 275.13652 
L 91.604628 274.992458 
L 92.239339 274.609309 
L 92.556694 273.011071 
L 93.191405 272.907938 
L 93.826116 272.67514 
L 94.143471 272.586165 
L 94.460826 272.300868 
L 94.778182 272.182414 
L 95.095537 271.937933 
L 95.412893 271.091359 
L 95.730248 270.996831 
L 96.047603 270.764031 
L 96.364959 270.675043 
L 96.682314 269.346761 
L 96.999669 269.312118 
L 97.317025 267.401014 
L 97.63438 266.816995 
L 97.951736 266.466093 
L 98.269091 266.424711 
L 98.586446 266.073809 
L 98.903802 263.589445 
L 99.221157 262.935358 
L 99.855868 262.414365 
L 100.173223 261.815726 
L 100.807934 261.534541 
L 101.125289 260.101444 
L 101.442645 257.693428 
L 101.76 257.342526 
L 102.712066 256.826757 
L 103.029421 256.609127 
L 103.346777 254.698023 
L 103.664132 254.375379 
L 104.616198 252.763378 
L 104.933554 252.482194 
L 105.250909 252.371095 
L 106.202975 251.537554 
L 106.520331 250.857487 
L 106.837686 249.785923 
L 107.155041 249.212591 
L 107.472397 248.946383 
L 107.789752 248.906099 
L 108.424463 244.059858 
L 109.059174 243.363864 
L 109.376529 243.358627 
L 110.328595 242.842857 
L 110.64595 240.53004 
L 110.963306 240.036367 
L 111.280661 239.853752 
L 112.232727 238.618946 
L 112.550083 237.201961 
L 112.867438 234.187691 
L 113.184793 234.127687 
L 114.13686 233.113149 
L 114.454215 232.770256 
L 114.77157 231.353285 
L 115.088926 230.745112 
L 115.406281 230.730185 
L 115.723636 230.352023 
L 116.675702 230.214416 
L 116.993058 227.528607 
L 118.262479 227.298047 
L 118.579835 226.940577 
L 118.89719 225.00412 
L 119.214545 224.896401 
L 119.531901 224.510023 
L 120.483967 224.464956 
L 121.118678 224.057151 
L 121.753388 223.866295 
L 122.070744 221.679992 
L 123.974876 221.388352 
L 124.292231 221.144801 
L 124.926942 221.092025 
L 125.244298 220.668246 
L 125.879008 219.323023 
L 126.513719 218.990457 
L 126.831074 218.20847 
L 127.14843 218.017608 
L 127.465785 216.855424 
L 128.417851 216.489179 
L 130.004628 214.819611 
L 130.321983 214.136008 
L 130.639339 214.092265 
L 130.956694 213.883358 
L 131.27405 213.479621 
L 131.591405 213.269362 
L 131.90876 212.730662 
L 132.860826 212.00688 
L 133.178182 211.107138 
L 134.764959 210.653544 
L 135.082314 210.317889 
L 136.03438 209.954902 
L 136.351736 209.696797 
L 136.669091 209.143642 
L 137.621157 208.36826 
L 138.255868 208.243718 
L 138.890579 207.978564 
L 140.16 207.336655 
L 140.477355 207.018757 
L 140.794711 206.881939 
L 141.746777 206.1582 
L 142.381488 205.740612 
L 142.698843 205.502233 
L 143.333554 204.503057 
L 143.650909 204.499972 
L 143.968264 204.243825 
L 144.28562 204.185168 
L 145.237686 203.29504 
L 145.555041 203.222106 
L 146.507107 202.668319 
L 146.824463 201.270051 
L 148.093884 200.952214 
L 148.728595 200.90229 
L 149.363306 200.750258 
L 150.315372 200.556466 
L 150.950083 200.431926 
L 151.902149 199.89186 
L 152.219504 199.767284 
L 152.854215 198.65776 
L 153.488926 198.290445 
L 154.123636 198.122044 
L 154.440992 198.121807 
L 155.075702 197.91636 
L 155.710413 197.694674 
L 156.345124 197.089632 
L 156.662479 196.93337 
L 156.979835 196.47834 
L 157.931901 195.888635 
L 159.518678 195.565585 
L 161.740165 194.861994 
L 162.057521 194.60234 
L 162.692231 194.5435 
L 163.009587 194.369515 
L 163.326942 193.421265 
L 166.500496 192.209979 
L 167.452562 191.894195 
L 168.404628 191.7687 
L 168.721983 191.596348 
L 169.67405 191.473572 
L 170.30876 191.263347 
L 170.626116 191.114697 
L 170.943471 190.782046 
L 171.895537 190.627723 
L 172.212893 190.432405 
L 173.164959 190.245075 
L 173.482314 189.960288 
L 173.799669 189.87878 
L 174.117025 188.762639 
L 175.069091 188.474394 
L 175.386446 188.030719 
L 175.703802 187.984812 
L 176.021157 187.726333 
L 176.338512 187.680086 
L 176.655868 187.38976 
L 178.242645 186.891858 
L 178.56 186.61796 
L 178.877355 186.61193 
L 179.829421 186.088924 
L 180.464132 185.989573 
L 180.781488 185.738138 
L 181.098843 184.480716 
L 181.416198 184.048746 
L 181.733554 184.014336 
L 182.050909 183.733027 
L 182.68562 183.587721 
L 183.320331 183.275748 
L 184.272397 183.198694 
L 184.907107 182.884825 
L 185.224463 182.831965 
L 185.541818 182.641739 
L 187.44595 182.420827 
L 188.715372 182.108502 
L 189.350083 182.028612 
L 189.667438 181.86228 
L 190.93686 181.655103 
L 191.888926 181.389014 
L 192.523636 181.322192 
L 192.840992 181.30815 
L 193.158347 181.076485 
L 193.793058 181.037894 
L 194.110413 180.767115 
L 196.649256 180.149796 
L 197.918678 179.722591 
L 198.553388 179.658629 
L 199.188099 178.938177 
L 199.82281 178.751865 
L 200.457521 177.913153 
L 201.726942 177.728607 
L 202.361653 177.58272 
L 203.313719 177.499466 
L 203.631074 177.427911 
L 204.58314 176.798235 
L 205.217851 176.685745 
L 205.535207 176.422622 
L 206.169917 176.293575 
L 206.487273 176.04934 
L 207.439339 176.006791 
L 207.756694 175.735628 
L 208.07405 175.704478 
L 208.391405 175.267711 
L 209.660826 174.909207 
L 210.612893 174.028371 
L 211.564959 173.928273 
L 212.83438 173.709548 
L 213.151736 173.473579 
L 214.421157 173.206343 
L 217.912066 171.935861 
L 218.546777 171.75467 
L 219.498843 171.460431 
L 219.816198 171.442805 
L 220.450909 171.135385 
L 221.08562 171.027797 
L 221.402975 170.694079 
L 221.720331 169.683362 
L 222.672397 169.291661 
L 223.624463 169.039431 
L 224.259174 168.610199 
L 224.576529 168.437544 
L 225.21124 168.300055 
L 227.432727 167.669465 
L 228.384793 167.562997 
L 229.654215 167.339423 
L 230.288926 167.046913 
L 230.606281 167.03576 
L 233.462479 165.60781 
L 234.414545 165.45347 
L 235.049256 165.280903 
L 235.683967 165.145177 
L 236.001322 164.958571 
L 236.318678 164.954738 
L 236.636033 164.260914 
L 236.953388 164.040073 
L 237.270744 163.980233 
L 237.905455 163.548718 
L 238.857521 163.435418 
L 239.174876 163.240287 
L 240.761653 163.030484 
L 241.396364 162.711034 
L 242.34843 162.522616 
L 243.935207 161.941088 
L 244.887273 161.160295 
L 245.839339 161.017463 
L 246.791405 160.18004 
L 247.10876 159.890638 
L 247.426116 159.833322 
L 248.060826 159.382712 
L 249.330248 158.784523 
L 249.964959 158.618789 
L 250.282314 158.611717 
L 250.599669 158.433485 
L 251.551736 158.337419 
L 252.503802 157.733194 
L 253.138512 157.653725 
L 253.455868 157.418682 
L 253.773223 157.365881 
L 254.090579 156.476189 
L 254.407934 155.918359 
L 254.725289 155.847033 
L 255.042645 155.657726 
L 255.36 155.62769 
L 255.677355 155.471419 
L 257.898843 155.232582 
L 258.216198 155.168069 
L 258.533554 154.871425 
L 258.850909 154.860076 
L 259.168264 153.534054 
L 260.437686 152.930285 
L 260.755041 152.890602 
L 261.389752 152.610679 
L 262.024463 152.360308 
L 262.659174 151.606249 
L 262.976529 151.514642 
L 263.293884 150.648623 
L 263.61124 150.627643 
L 264.24595 150.179342 
L 265.198017 149.875738 
L 265.832727 149.744797 
L 266.150083 149.687451 
L 266.784793 149.427111 
L 268.37157 149.112231 
L 269.006281 148.990559 
L 269.323636 148.77068 
L 269.958347 148.680932 
L 270.275702 148.110608 
L 270.593058 147.80995 
L 272.814545 147.380402 
L 273.131901 146.098837 
L 273.449256 145.807794 
L 274.401322 145.672674 
L 274.718678 145.346892 
L 275.353388 145.264071 
L 275.670744 144.924096 
L 275.988099 144.903501 
L 277.574876 143.532329 
L 277.892231 143.297979 
L 278.526942 143.158994 
L 278.844298 142.974061 
L 279.796364 142.810975 
L 280.431074 142.587416 
L 281.065785 142.436295 
L 281.38314 142.284042 
L 282.652562 140.618342 
L 283.604628 140.214694 
L 284.239339 140.015361 
L 285.826116 139.723968 
L 286.143471 139.518393 
L 286.778182 139.450331 
L 287.412893 138.591565 
L 287.730248 138.516386 
L 288.047603 138.228075 
L 288.364959 137.399163 
L 288.682314 137.205008 
L 289.317025 137.089156 
L 289.63438 136.854167 
L 289.951736 136.81207 
L 290.269091 136.594332 
L 290.586446 134.870168 
L 290.903802 134.690144 
L 291.538512 134.065596 
L 291.855868 134.018597 
L 292.173223 133.78415 
L 292.490579 133.697652 
L 292.807934 133.479861 
L 293.125289 133.424015 
L 293.76 133.110136 
L 294.712066 132.749642 
L 296.298843 132.364837 
L 296.616198 131.854596 
L 296.933554 131.778195 
L 297.88562 131.229945 
L 298.202975 131.217514 
L 299.789752 129.822188 
L 300.424463 129.682065 
L 301.059174 129.408312 
L 301.376529 128.715643 
L 301.693884 128.374093 
L 302.01124 128.321219 
L 302.328595 127.830557 
L 302.64595 127.130134 
L 303.915372 126.839279 
L 304.550083 126.62485 
L 304.867438 126.435004 
L 306.13686 124.874762 
L 306.454215 124.777955 
L 307.406281 124.061778 
L 308.358347 123.81521 
L 308.993058 123.723108 
L 309.310413 123.44947 
L 309.627769 122.866799 
L 310.262479 122.479251 
L 310.579835 122.38657 
L 310.89719 121.988589 
L 311.214545 121.169359 
L 311.531901 121.154564 
L 311.849256 120.981499 
L 312.166612 120.031008 
L 312.801322 119.826705 
L 313.436033 119.550999 
L 314.705455 118.913847 
L 315.02281 118.874241 
L 315.657521 118.365341 
L 316.292231 118.318913 
L 316.609587 118.119893 
L 317.244298 118.056519 
L 317.879008 117.554997 
L 318.196364 117.002692 
L 319.14843 116.536953 
L 320.735207 115.916714 
L 321.369917 115.846605 
L 321.687273 115.549886 
L 322.321983 115.428516 
L 322.639339 115.249872 
L 322.956694 115.246287 
L 323.27405 114.976216 
L 323.90876 114.941402 
L 324.226116 114.737404 
L 324.860826 114.667758 
L 325.178182 114.233131 
L 325.812893 113.960874 
L 326.130248 113.935508 
L 326.447603 113.680892 
L 326.764959 113.622002 
L 327.082314 112.740807 
L 327.717025 112.459363 
L 328.351736 111.336843 
L 328.986446 111.231203 
L 329.621157 110.935609 
L 330.255868 110.829703 
L 330.573223 110.548259 
L 331.207934 109.725382 
L 331.842645 109.219984 
L 332.794711 108.992375 
L 333.429421 108.391162 
L 334.064132 108.217265 
L 334.381488 108.118906 
L 334.698843 106.69128 
L 335.016198 106.384781 
L 335.333554 106.33078 
L 335.968264 105.788239 
L 336.28562 105.576399 
L 336.602975 105.560367 
L 337.237686 105.381697 
L 337.872397 105.272595 
L 339.459174 104.986613 
L 339.776529 104.980626 
L 340.728595 104.602616 
L 341.04595 103.665243 
L 341.363306 103.479533 
L 341.998017 102.859281 
L 342.632727 102.551561 
L 342.950083 102.537883 
L 343.584793 101.524247 
L 344.219504 101.163758 
L 344.854215 101.065595 
L 346.123636 99.848411 
L 346.758347 99.715991 
L 347.710413 99.245415 
L 348.027769 99.15448 
L 348.345124 98.135318 
L 349.29719 97.918661 
L 349.614545 97.543116 
L 350.566612 97.182612 
L 350.883967 96.917523 
L 351.201322 96.853768 
L 351.836033 96.234033 
L 352.470744 96.199402 
L 352.788099 95.521902 
L 353.105455 95.299665 
L 353.740165 95.137905 
L 354.057521 94.887021 
L 354.374876 94.846112 
L 354.692231 94.396384 
L 355.009587 94.322973 
L 356.596364 93.152217 
L 357.54843 92.32852 
L 358.18314 92.192613 
L 359.135207 90.871451 
L 359.452562 90.773086 
L 359.769917 90.506984 
L 360.721983 90.380837 
L 361.356694 89.450872 
L 361.67405 88.595925 
L 361.991405 88.543265 
L 362.30876 88.292406 
L 362.626116 88.208454 
L 362.943471 87.909256 
L 363.260826 87.847883 
L 364.212893 87.302919 
L 364.530248 87.289041 
L 364.847603 86.937964 
L 365.482314 86.757608 
L 365.799669 86.534087 
L 366.751736 86.26183 
L 367.069091 86.064862 
L 367.386446 85.536995 
L 367.703802 85.391765 
L 368.021157 85.026836 
L 368.338512 84.985227 
L 369.925289 83.425223 
L 370.242645 82.701343 
L 370.877355 82.195718 
L 371.512066 81.230605 
L 371.829421 81.228626 
L 372.146777 80.868005 
L 372.781488 80.699052 
L 373.098843 80.526615 
L 374.050909 79.360066 
L 374.368264 79.319483 
L 374.68562 78.803017 
L 375.002975 78.524031 
L 375.637686 78.250393 
L 375.955041 78.070289 
L 376.272397 78.067981 
L 376.907107 77.227083 
L 377.224463 76.810391 
L 377.541818 76.783261 
L 377.859174 76.510992 
L 378.176529 76.399245 
L 378.493884 76.126975 
L 378.81124 75.688458 
L 379.128595 75.476985 
L 379.44595 75.41482 
L 379.763306 75.116364 
L 380.398017 74.899287 
L 380.715372 74.393169 
L 381.032727 74.355993 
L 381.350083 71.378538 
L 381.667438 70.961598 
L 382.302149 69.140796 
L 382.619504 69.050493 
L 384.206281 67.99639 
L 384.523636 67.375999 
L 384.840992 66.305143 
L 385.475702 65.983724 
L 386.110413 65.198675 
L 387.062479 64.248401 
L 388.014545 64.077648 
L 388.331901 63.723011 
L 389.283967 62.301039 
L 389.601322 62.24475 
L 390.236033 61.144619 
L 390.553388 60.887359 
L 390.870744 60.870866 
L 391.505455 59.781526 
L 391.82281 59.678699 
L 392.140165 59.233515 
L 393.092231 58.812688 
L 393.409587 58.406432 
L 394.044298 57.98728 
L 394.361653 57.349279 
L 395.313719 56.929362 
L 395.631074 56.283513 
L 395.94843 55.977035 
L 396.265785 55.291872 
L 396.900496 55.018234 
L 397.217851 54.145476 
L 398.169917 53.753193 
L 398.487273 53.568 
L 398.487273 53.568 
" clip-path="url(#p409dce63ef)" style="fill: none; stroke: #1f77b4; stroke-width: 1.5; stroke-linecap: square"/>
   </g>
   <g id="line2d_15">
    <path d="M 73.832727 207.517606 
L 74.150083 203.574775 
L 74.467438 203.574775 
L 74.784793 200.204458 
L 75.102149 199.504395 
L 75.73686 199.504395 
L 76.054215 198.243358 
L 76.37157 196.114553 
L 76.688926 195.983945 
L 77.006281 195.983945 
L 77.323636 195.654549 
L 78.910413 195.654549 
L 79.227769 194.453565 
L 79.545124 194.453565 
L 80.179835 193.750216 
L 80.49719 193.750216 
L 80.814545 192.422188 
L 81.131901 191.797075 
L 82.083967 191.786326 
L 82.401322 191.416356 
L 86.844298 191.395351 
L 87.161653 191.192774 
L 87.479008 190.230449 
L 88.431074 189.684567 
L 89.700496 189.684567 
L 90.017851 189.258904 
L 90.652562 189.258904 
L 90.969917 188.764434 
L 91.287273 188.764434 
L 91.604628 188.506853 
L 91.921983 187.844316 
L 99.221157 187.844316 
L 99.538512 187.449533 
L 101.76 187.35615 
L 102.077355 186.946946 
L 103.981488 186.854645 
L 104.298843 186.695091 
L 104.933554 186.695091 
L 105.250909 186.133923 
L 106.202975 186.105642 
L 106.520331 184.839179 
L 107.472397 184.714043 
L 107.789752 184.422413 
L 109.376529 184.422413 
L 109.693884 183.782382 
L 110.01124 183.782382 
L 110.328595 183.075348 
L 129.369917 183.075318 
L 130.004628 182.441912 
L 130.321983 182.295654 
L 131.27405 182.271562 
L 131.591405 181.942885 
L 132.860826 181.867793 
L 133.178182 181.235067 
L 133.495537 181.235067 
L 133.812893 181.102575 
L 135.399669 181.102575 
L 135.717025 180.562999 
L 136.986446 180.337697 
L 163.009587 180.337697 
L 163.326942 179.777686 
L 167.769917 179.675341 
L 168.087273 178.982255 
L 168.404628 178.982255 
L 168.721983 178.797258 
L 169.356694 178.797258 
L 169.67405 178.677875 
L 169.991405 178.391935 
L 171.895537 178.305338 
L 172.530248 178.190326 
L 173.164959 178.104794 
L 180.146777 178.104794 
L 180.464132 177.957572 
L 180.781488 177.957572 
L 181.098843 177.813164 
L 182.68562 177.813164 
L 183.320331 176.46607 
L 186.493884 176.37582 
L 186.81124 176.257601 
L 187.128595 175.961352 
L 187.44595 175.961352 
L 187.763306 175.760705 
L 188.080661 175.760705 
L 188.398017 174.923058 
L 188.715372 173.728449 
L 283.604628 173.728449 
L 284.239339 171.696192 
L 284.556694 171.696192 
L 284.87405 171.495545 
L 285.191405 171.495545 
L 285.50876 171.199296 
L 286.143471 171.081077 
L 288.999669 170.990828 
L 289.63438 169.643733 
L 291.221157 169.643733 
L 291.538512 169.499325 
L 291.855868 169.499325 
L 292.173223 169.352103 
L 300.107107 169.266571 
L 300.741818 169.064962 
L 302.328595 169.064962 
L 302.64595 168.779022 
L 302.963306 168.65964 
L 303.598017 168.65964 
L 303.915372 168.474642 
L 304.232727 168.474642 
L 304.550083 167.781556 
L 308.993058 167.679211 
L 309.310413 167.1192 
L 335.968264 167.088484 
L 336.602975 166.893898 
L 336.920331 166.354322 
L 338.507107 166.354322 
L 338.824463 166.22183 
L 339.141818 166.22183 
L 339.459174 165.589104 
L 340.728595 165.514012 
L 341.04595 165.185335 
L 342.315372 165.014985 
L 342.632727 164.783362 
L 342.950083 164.381579 
L 361.991405 164.38155 
L 362.30876 163.674516 
L 362.626116 163.674516 
L 362.943471 163.034484 
L 364.530248 163.034484 
L 364.847603 162.742854 
L 365.482314 162.692564 
L 365.799669 162.617719 
L 366.117025 161.351255 
L 367.069091 161.322974 
L 367.386446 160.761806 
L 368.021157 160.761806 
L 368.655868 160.509951 
L 370.242645 160.509951 
L 370.56 160.100747 
L 372.781488 160.007364 
L 373.098843 159.612581 
L 380.398017 159.612581 
L 380.715372 158.950044 
L 381.032727 158.692464 
L 381.350083 158.692464 
L 381.667438 158.197993 
L 382.302149 158.197993 
L 382.619504 157.77233 
L 384.206281 157.77233 
L 384.840992 157.226448 
L 385.158347 156.264123 
L 385.475702 156.061547 
L 389.918678 156.040541 
L 390.236033 155.670571 
L 391.188099 155.659822 
L 391.505455 155.034709 
L 391.82281 153.706681 
L 392.140165 153.706681 
L 392.457521 153.438084 
L 392.774876 153.003332 
L 393.092231 153.003332 
L 393.409587 151.802348 
L 394.996364 151.802348 
L 395.313719 151.472952 
L 395.631074 151.472952 
L 395.94843 151.342344 
L 396.265785 149.213539 
L 396.58314 147.952502 
L 397.217851 147.952502 
L 397.535207 147.252439 
L 397.852562 143.882122 
L 398.169917 143.882122 
L 398.487273 139.939291 
L 398.487273 139.939291 
" clip-path="url(#p409dce63ef)" style="fill: none; stroke: #ff7f0e; stroke-width: 1.5; stroke-linecap: square"/>
   </g>
   <g id="patch_3">
    <path d="M 57.6 307.584 
L 57.6 41.472 
" style="fill: none; stroke: #000000; stroke-width: 0.8; stroke-linejoin: miter; stroke-linecap: square"/>
   </g>
   <g id="patch_4">
    <path d="M 414.72 307.584 
L 414.72 41.472 
" style="fill: none; stroke: #000000; stroke-width: 0.8; stroke-linejoin: miter; stroke-linecap: square"/>
   </g>
   <g id="patch_5">
    <path d="M 57.6 307.584 
L 414.72 307.584 
" style="fill: none; stroke: #000000; stroke-width: 0.8; stroke-linejoin: miter; stroke-linecap: square"/>
   </g>
   <g id="patch_6">
    <path d="M 57.6 41.472 
L 414.72 41.472 
" style="fill: none; stroke: #000000; stroke-width: 0.8; stroke-linejoin: miter; stroke-linecap: square"/>
   </g>
   <g id="legend_1">
    <g id="patch_7">
     <path d="M 64.6 78.82825 
L 129.342187 78.82825 
Q 131.342187 78.82825 131.342187 76.82825 
L 131.342187 48.472 
Q 131.342187 46.472 129.342187 46.472 
L 64.6 46.472 
Q 62.6 46.472 62.6 48.472 
L 62.6 76.82825 
Q 62.6 78.82825 64.6 78.82825 
z
" style="fill: #ffffff; opacity: 0.8; stroke: #cccccc; stroke-linejoin: miter"/>
    </g>
    <g id="line2d_16">
     <path d="M 66.6 54.570437 
L 76.6 54.570437 
L 86.6 54.570437 
" style="fill: none; stroke: #1f77b4; stroke-width: 1.5; stroke-linecap: square"/>
    </g>
    <g id="text_16">
     <!-- qc -->
     <g transform="translate(94.6 58.070437) scale(0.1 -0.1)">
      <defs>
       <path id="DejaVuSans-71" d="M 947 1747 
Q 947 1113 1208 752 
Q 1469 391 1925 391 
Q 2381 391 2643 752 
Q 2906 1113 2906 1747 
Q 2906 2381 2643 2742 
Q 2381 3103 1925 3103 
Q 1469 3103 1208 2742 
Q 947 2381 947 1747 
z
M 2906 525 
Q 2725 213 2448 61 
Q 2172 -91 1784 -91 
Q 1150 -91 751 415 
Q 353 922 353 1747 
Q 353 2572 751 3078 
Q 1150 3584 1784 3584 
Q 2172 3584 2448 3432 
Q 2725 3281 2906 2969 
L 2906 3500 
L 3481 3500 
L 3481 -1331 
L 2906 -1331 
L 2906 525 
z
" transform="scale(0.015625)"/>
       <path id="DejaVuSans-63" d="M 3122 3366 
L 3122 2828 
Q 2878 2963 2633 3030 
Q 2388 3097 2138 3097 
Q 1578 3097 1268 2742 
Q 959 2388 959 1747 
Q 959 1106 1268 751 
Q 1578 397 2138 397 
Q 2388 397 2633 464 
Q 2878 531 3122 666 
L 3122 134 
Q 2881 22 2623 -34 
Q 2366 -91 2075 -91 
Q 1284 -91 818 406 
Q 353 903 353 1747 
Q 353 2603 823 3093 
Q 1294 3584 2113 3584 
Q 2378 3584 2631 3529 
Q 2884 3475 3122 3366 
z
" transform="scale(0.015625)"/>
      </defs>
      <use xlink:href="#DejaVuSans-71"/>
      <use xlink:href="#DejaVuSans-63" x="63.476562"/>
     </g>
    </g>
    <g id="line2d_17">
     <path d="M 66.6 69.248562 
L 76.6 69.248562 
L 86.6 69.248562 
" style="fill: none; stroke: #ff7f0e; stroke-width: 1.5; stroke-linecap: square"/>
    </g>
    <g id="text_17">
     <!-- Trotter -->
     <g transform="translate(94.6 72.748562) scale(0.1 -0.1)">
      <defs>
       <path id="DejaVuSans-54" d="M -19 4666 
L 3928 4666 
L 3928 4134 
L 2272 4134 
L 2272 0 
L 1638 0 
L 1638 4134 
L -19 4134 
L -19 4666 
z
" transform="scale(0.015625)"/>
       <path id="DejaVuSans-72" d="M 2631 2963 
Q 2534 3019 2420 3045 
Q 2306 3072 2169 3072 
Q 1681 3072 1420 2755 
Q 1159 2438 1159 1844 
L 1159 0 
L 581 0 
L 581 3500 
L 1159 3500 
L 1159 2956 
Q 1341 3275 1631 3429 
Q 1922 3584 2338 3584 
Q 2397 3584 2469 3576 
Q 2541 3569 2628 3553 
L 2631 2963 
z
" transform="scale(0.015625)"/>
       <path id="DejaVuSans-6f" d="M 1959 3097 
Q 1497 3097 1228 2736 
Q 959 2375 959 1747 
Q 959 1119 1226 758 
Q 1494 397 1959 397 
Q 2419 397 2687 759 
Q 2956 1122 2956 1747 
Q 2956 2369 2687 2733 
Q 2419 3097 1959 3097 
z
M 1959 3584 
Q 2709 3584 3137 3096 
Q 3566 2609 3566 1747 
Q 3566 888 3137 398 
Q 2709 -91 1959 -91 
Q 1206 -91 779 398 
Q 353 888 353 1747 
Q 353 2609 779 3096 
Q 1206 3584 1959 3584 
z
" transform="scale(0.015625)"/>
       <path id="DejaVuSans-65" d="M 3597 1894 
L 3597 1613 
L 953 1613 
Q 991 1019 1311 708 
Q 1631 397 2203 397 
Q 2534 397 2845 478 
Q 3156 559 3463 722 
L 3463 178 
Q 3153 47 2828 -22 
Q 2503 -91 2169 -91 
Q 1331 -91 842 396 
Q 353 884 353 1716 
Q 353 2575 817 3079 
Q 1281 3584 2069 3584 
Q 2775 3584 3186 3129 
Q 3597 2675 3597 1894 
z
M 3022 2063 
Q 3016 2534 2758 2815 
Q 2500 3097 2075 3097 
Q 1594 3097 1305 2825 
Q 1016 2553 972 2059 
L 3022 2063 
z
" transform="scale(0.015625)"/>
      </defs>
      <use xlink:href="#DejaVuSans-54"/>
      <use xlink:href="#DejaVuSans-72" x="46.333984"/>
      <use xlink:href="#DejaVuSans-6f" x="85.197266"/>
      <use xlink:href="#DejaVuSans-74" x="146.378906"/>
      <use xlink:href="#DejaVuSans-74" x="185.587891"/>
      <use xlink:href="#DejaVuSans-65" x="224.796875"/>
      <use xlink:href="#DejaVuSans-72" x="286.320312"/>
     </g>
    </g>
   </g>
  </g>
 </g>
 <defs>
  <clipPath id="p409dce63ef">
   <rect x="57.6" y="41.472" width="357.12" height="266.112"/>
  </clipPath>
 </defs>
</svg>
