<?xml version="1.0" encoding="utf-8" standalone="no"?>
<!DOCTYPE svg PUBLIC "-//W3C//DTD SVG 1.1//EN"
  "http://www.w3.org/Graphics/SVG/1.1/DTD/svg11.dtd">
<svg xmlns:xlink="http://www.w3.org/1999/xlink" width="460.8pt" height="345.6pt" viewBox="0 0 460.8 345.6" xmlns="http://www.w3.org/2000/svg" version="1.1">
 <metadata>
  <rdf:RDF xmlns:dc="http://purl.org/dc/elements/1.1/" xmlns:cc="http://creativecommons.org/ns#" xmlns:rdf="http://www.w3.org/1999/02/22-rdf-syntax-ns#">
   <cc:Work>
    <dc:type rdf:resource="http://purl.org/dc/dcmitype/StillImage"/>
    <dc:date>2024-08-23T11:51:24.753815</dc:date>
    <dc:format>image/svg+xml</dc:format>
    <dc:creator>
     <cc:Agent>
      <dc:title>Matplotlib v3.7.1, https://matplotlib.org/</dc:title>
     </cc:Agent>
    </dc:creator>
   </cc:Work>
  </rdf:RDF>
 </metadata>
 <defs>
  <style type="text/css">*{stroke-linejoin: round; stroke-linecap: butt}</style>
 </defs>
 <g id="figure_1">
  <g id="patch_1">
   <path d="M 0 345.6 
L 460.8 345.6 
L 460.8 0 
L 0 0 
z
" style="fill: #ffffff"/>
  </g>
  <g id="axes_1">
   <g id="patch_2">
    <path d="M 57.6 307.584 
L 414.72 307.584 
L 414.72 41.472 
L 57.6 41.472 
z
" style="fill: #ffffff"/>
   </g>
   <g id="matplotlib.axis_1">
    <g id="xtick_1">
     <g id="line2d_1">
      <defs>
       <path id="m3d67f5fc52" d="M 0 0 
L 0 3.5 
" style="stroke: #000000; stroke-width: 0.8"/>
      </defs>
      <g>
       <use xlink:href="#m3d67f5fc52" x="73.832727" y="307.584" style="stroke: #000000; stroke-width: 0.8"/>
      </g>
     </g>
     <g id="text_1">
      <!-- 0 -->
      <g transform="translate(70.651477 322.182437) scale(0.1 -0.1)">
       <defs>
        <path id="DejaVuSans-30" d="M 2034 4250 
Q 1547 4250 1301 3770 
Q 1056 3291 1056 2328 
Q 1056 1369 1301 889 
Q 1547 409 2034 409 
Q 2525 409 2770 889 
Q 3016 1369 3016 2328 
Q 3016 3291 2770 3770 
Q 2525 4250 2034 4250 
z
M 2034 4750 
Q 2819 4750 3233 4129 
Q 3647 3509 3647 2328 
Q 3647 1150 3233 529 
Q 2819 -91 2034 -91 
Q 1250 -91 836 529 
Q 422 1150 422 2328 
Q 422 3509 836 4129 
Q 1250 4750 2034 4750 
z
" transform="scale(0.015625)"/>
       </defs>
       <use xlink:href="#DejaVuSans-30"/>
      </g>
     </g>
    </g>
    <g id="xtick_2">
     <g id="line2d_2">
      <g>
       <use xlink:href="#m3d67f5fc52" x="137.303802" y="307.584" style="stroke: #000000; stroke-width: 0.8"/>
      </g>
     </g>
     <g id="text_2">
      <!-- 200 -->
      <g transform="translate(127.760052 322.182437) scale(0.1 -0.1)">
       <defs>
        <path id="DejaVuSans-32" d="M 1228 531 
L 3431 531 
L 3431 0 
L 469 0 
L 469 531 
Q 828 903 1448 1529 
Q 2069 2156 2228 2338 
Q 2531 2678 2651 2914 
Q 2772 3150 2772 3378 
Q 2772 3750 2511 3984 
Q 2250 4219 1831 4219 
Q 1534 4219 1204 4116 
Q 875 4013 500 3803 
L 500 4441 
Q 881 4594 1212 4672 
Q 1544 4750 1819 4750 
Q 2544 4750 2975 4387 
Q 3406 4025 3406 3419 
Q 3406 3131 3298 2873 
Q 3191 2616 2906 2266 
Q 2828 2175 2409 1742 
Q 1991 1309 1228 531 
z
" transform="scale(0.015625)"/>
       </defs>
       <use xlink:href="#DejaVuSans-32"/>
       <use xlink:href="#DejaVuSans-30" x="63.623047"/>
       <use xlink:href="#DejaVuSans-30" x="127.246094"/>
      </g>
     </g>
    </g>
    <g id="xtick_3">
     <g id="line2d_3">
      <g>
       <use xlink:href="#m3d67f5fc52" x="200.774876" y="307.584" style="stroke: #000000; stroke-width: 0.8"/>
      </g>
     </g>
     <g id="text_3">
      <!-- 400 -->
      <g transform="translate(191.231126 322.182437) scale(0.1 -0.1)">
       <defs>
        <path id="DejaVuSans-34" d="M 2419 4116 
L 825 1625 
L 2419 1625 
L 2419 4116 
z
M 2253 4666 
L 3047 4666 
L 3047 1625 
L 3713 1625 
L 3713 1100 
L 3047 1100 
L 3047 0 
L 2419 0 
L 2419 1100 
L 313 1100 
L 313 1709 
L 2253 4666 
z
" transform="scale(0.015625)"/>
       </defs>
       <use xlink:href="#DejaVuSans-34"/>
       <use xlink:href="#DejaVuSans-30" x="63.623047"/>
       <use xlink:href="#DejaVuSans-30" x="127.246094"/>
      </g>
     </g>
    </g>
    <g id="xtick_4">
     <g id="line2d_4">
      <g>
       <use xlink:href="#m3d67f5fc52" x="264.24595" y="307.584" style="stroke: #000000; stroke-width: 0.8"/>
      </g>
     </g>
     <g id="text_4">
      <!-- 600 -->
      <g transform="translate(254.7022 322.182437) scale(0.1 -0.1)">
       <defs>
        <path id="DejaVuSans-36" d="M 2113 2584 
Q 1688 2584 1439 2293 
Q 1191 2003 1191 1497 
Q 1191 994 1439 701 
Q 1688 409 2113 409 
Q 2538 409 2786 701 
Q 3034 994 3034 1497 
Q 3034 2003 2786 2293 
Q 2538 2584 2113 2584 
z
M 3366 4563 
L 3366 3988 
Q 3128 4100 2886 4159 
Q 2644 4219 2406 4219 
Q 1781 4219 1451 3797 
Q 1122 3375 1075 2522 
Q 1259 2794 1537 2939 
Q 1816 3084 2150 3084 
Q 2853 3084 3261 2657 
Q 3669 2231 3669 1497 
Q 3669 778 3244 343 
Q 2819 -91 2113 -91 
Q 1303 -91 875 529 
Q 447 1150 447 2328 
Q 447 3434 972 4092 
Q 1497 4750 2381 4750 
Q 2619 4750 2861 4703 
Q 3103 4656 3366 4563 
z
" transform="scale(0.015625)"/>
       </defs>
       <use xlink:href="#DejaVuSans-36"/>
       <use xlink:href="#DejaVuSans-30" x="63.623047"/>
       <use xlink:href="#DejaVuSans-30" x="127.246094"/>
      </g>
     </g>
    </g>
    <g id="xtick_5">
     <g id="line2d_5">
      <g>
       <use xlink:href="#m3d67f5fc52" x="327.717025" y="307.584" style="stroke: #000000; stroke-width: 0.8"/>
      </g>
     </g>
     <g id="text_5">
      <!-- 800 -->
      <g transform="translate(318.173275 322.182437) scale(0.1 -0.1)">
       <defs>
        <path id="DejaVuSans-38" d="M 2034 2216 
Q 1584 2216 1326 1975 
Q 1069 1734 1069 1313 
Q 1069 891 1326 650 
Q 1584 409 2034 409 
Q 2484 409 2743 651 
Q 3003 894 3003 1313 
Q 3003 1734 2745 1975 
Q 2488 2216 2034 2216 
z
M 1403 2484 
Q 997 2584 770 2862 
Q 544 3141 544 3541 
Q 544 4100 942 4425 
Q 1341 4750 2034 4750 
Q 2731 4750 3128 4425 
Q 3525 4100 3525 3541 
Q 3525 3141 3298 2862 
Q 3072 2584 2669 2484 
Q 3125 2378 3379 2068 
Q 3634 1759 3634 1313 
Q 3634 634 3220 271 
Q 2806 -91 2034 -91 
Q 1263 -91 848 271 
Q 434 634 434 1313 
Q 434 1759 690 2068 
Q 947 2378 1403 2484 
z
M 1172 3481 
Q 1172 3119 1398 2916 
Q 1625 2713 2034 2713 
Q 2441 2713 2670 2916 
Q 2900 3119 2900 3481 
Q 2900 3844 2670 4047 
Q 2441 4250 2034 4250 
Q 1625 4250 1398 4047 
Q 1172 3844 1172 3481 
z
" transform="scale(0.015625)"/>
       </defs>
       <use xlink:href="#DejaVuSans-38"/>
       <use xlink:href="#DejaVuSans-30" x="63.623047"/>
       <use xlink:href="#DejaVuSans-30" x="127.246094"/>
      </g>
     </g>
    </g>
    <g id="xtick_6">
     <g id="line2d_6">
      <g>
       <use xlink:href="#m3d67f5fc52" x="391.188099" y="307.584" style="stroke: #000000; stroke-width: 0.8"/>
      </g>
     </g>
     <g id="text_6">
      <!-- 1000 -->
      <g transform="translate(378.463099 322.182437) scale(0.1 -0.1)">
       <defs>
        <path id="DejaVuSans-31" d="M 794 531 
L 1825 531 
L 1825 4091 
L 703 3866 
L 703 4441 
L 1819 4666 
L 2450 4666 
L 2450 531 
L 3481 531 
L 3481 0 
L 794 0 
L 794 531 
z
" transform="scale(0.015625)"/>
       </defs>
       <use xlink:href="#DejaVuSans-31"/>
       <use xlink:href="#DejaVuSans-30" x="63.623047"/>
       <use xlink:href="#DejaVuSans-30" x="127.246094"/>
       <use xlink:href="#DejaVuSans-30" x="190.869141"/>
      </g>
     </g>
    </g>
    <g id="text_7">
     <!-- n -->
     <g transform="translate(232.99125 335.860562) scale(0.1 -0.1)">
      <defs>
       <path id="DejaVuSans-6e" d="M 3513 2113 
L 3513 0 
L 2938 0 
L 2938 2094 
Q 2938 2591 2744 2837 
Q 2550 3084 2163 3084 
Q 1697 3084 1428 2787 
Q 1159 2491 1159 1978 
L 1159 0 
L 581 0 
L 581 3500 
L 1159 3500 
L 1159 2956 
Q 1366 3272 1645 3428 
Q 1925 3584 2291 3584 
Q 2894 3584 3203 3211 
Q 3513 2838 3513 2113 
z
" transform="scale(0.015625)"/>
      </defs>
      <use xlink:href="#DejaVuSans-6e"/>
     </g>
    </g>
   </g>
   <g id="matplotlib.axis_2">
    <g id="ytick_1">
     <g id="line2d_7">
      <defs>
       <path id="m7d00f9c58d" d="M 0 0 
L -3.5 0 
" style="stroke: #000000; stroke-width: 0.8"/>
      </defs>
      <g>
       <use xlink:href="#m7d00f9c58d" x="57.6" y="267.376251" style="stroke: #000000; stroke-width: 0.8"/>
      </g>
     </g>
     <g id="text_8">
      <!-- −4 -->
      <g transform="translate(35.857813 271.17547) scale(0.1 -0.1)">
       <defs>
        <path id="DejaVuSans-2212" d="M 678 2272 
L 4684 2272 
L 4684 1741 
L 678 1741 
L 678 2272 
z
" transform="scale(0.015625)"/>
       </defs>
       <use xlink:href="#DejaVuSans-2212"/>
       <use xlink:href="#DejaVuSans-34" x="83.789062"/>
      </g>
     </g>
    </g>
    <g id="ytick_2">
     <g id="line2d_8">
      <g>
       <use xlink:href="#m7d00f9c58d" x="57.6" y="220.449398" style="stroke: #000000; stroke-width: 0.8"/>
      </g>
     </g>
     <g id="text_9">
      <!-- −2 -->
      <g transform="translate(35.857813 224.248617) scale(0.1 -0.1)">
       <use xlink:href="#DejaVuSans-2212"/>
       <use xlink:href="#DejaVuSans-32" x="83.789062"/>
      </g>
     </g>
    </g>
    <g id="ytick_3">
     <g id="line2d_9">
      <g>
       <use xlink:href="#m7d00f9c58d" x="57.6" y="173.522544" style="stroke: #000000; stroke-width: 0.8"/>
      </g>
     </g>
     <g id="text_10">
      <!-- 0 -->
      <g transform="translate(44.2375 177.321763) scale(0.1 -0.1)">
       <use xlink:href="#DejaVuSans-30"/>
      </g>
     </g>
    </g>
    <g id="ytick_4">
     <g id="line2d_10">
      <g>
       <use xlink:href="#m7d00f9c58d" x="57.6" y="126.595691" style="stroke: #000000; stroke-width: 0.8"/>
      </g>
     </g>
     <g id="text_11">
      <!-- 2 -->
      <g transform="translate(44.2375 130.39491) scale(0.1 -0.1)">
       <use xlink:href="#DejaVuSans-32"/>
      </g>
     </g>
    </g>
    <g id="ytick_5">
     <g id="line2d_11">
      <g>
       <use xlink:href="#m7d00f9c58d" x="57.6" y="79.668837" style="stroke: #000000; stroke-width: 0.8"/>
      </g>
     </g>
     <g id="text_12">
      <!-- 4 -->
      <g transform="translate(44.2375 83.468056) scale(0.1 -0.1)">
       <use xlink:href="#DejaVuSans-34"/>
      </g>
     </g>
    </g>
    <g id="text_13">
     <!-- E*t -->
     <g transform="translate(29.778125 182.147531) rotate(-90) scale(0.1 -0.1)">
      <defs>
       <path id="DejaVuSans-45" d="M 628 4666 
L 3578 4666 
L 3578 4134 
L 1259 4134 
L 1259 2753 
L 3481 2753 
L 3481 2222 
L 1259 2222 
L 1259 531 
L 3634 531 
L 3634 0 
L 628 0 
L 628 4666 
z
" transform="scale(0.015625)"/>
       <path id="DejaVuSans-2a" d="M 3009 3897 
L 1888 3291 
L 3009 2681 
L 2828 2375 
L 1778 3009 
L 1778 1831 
L 1422 1831 
L 1422 3009 
L 372 2375 
L 191 2681 
L 1313 3291 
L 191 3897 
L 372 4206 
L 1422 3572 
L 1422 4750 
L 1778 4750 
L 1778 3572 
L 2828 4206 
L 3009 3897 
z
" transform="scale(0.015625)"/>
       <path id="DejaVuSans-74" d="M 1172 4494 
L 1172 3500 
L 2356 3500 
L 2356 3053 
L 1172 3053 
L 1172 1153 
Q 1172 725 1289 603 
Q 1406 481 1766 481 
L 2356 481 
L 2356 0 
L 1766 0 
Q 1100 0 847 248 
Q 594 497 594 1153 
L 594 3053 
L 172 3053 
L 172 3500 
L 594 3500 
L 594 4494 
L 1172 4494 
z
" transform="scale(0.015625)"/>
      </defs>
      <use xlink:href="#DejaVuSans-45"/>
      <use xlink:href="#DejaVuSans-2a" x="63.183594"/>
      <use xlink:href="#DejaVuSans-74" x="113.183594"/>
     </g>
    </g>
   </g>
   <g id="line2d_12">
    <path d="M 73.832727 295.488 
L 74.150083 281.239017 
L 74.467438 280.596422 
L 74.784793 269.800017 
L 75.102149 267.406892 
L 75.419504 266.941088 
L 75.73686 265.935748 
L 76.37157 260.237786 
L 76.688926 255.354347 
L 77.323636 254.064323 
L 77.958347 253.473672 
L 78.593058 253.273747 
L 78.910413 252.320073 
L 79.227769 249.389272 
L 79.862479 248.307478 
L 80.179835 247.5899 
L 80.814545 245.486303 
L 81.131901 245.14663 
L 81.449256 242.122828 
L 81.766612 240.25206 
L 82.718678 239.71706 
L 83.036033 238.859376 
L 83.670744 238.620873 
L 83.988099 238.613948 
L 84.305455 238.386043 
L 84.62281 238.344386 
L 85.257521 237.979852 
L 85.574876 237.860818 
L 86.844298 236.876096 
L 87.161653 235.367273 
L 87.479008 235.284715 
L 88.113719 233.462614 
L 88.74843 232.309717 
L 90.335207 231.691346 
L 91.604628 230.391322 
L 91.921983 229.170498 
L 92.239339 228.914921 
L 92.87405 228.098211 
L 93.191405 226.819064 
L 93.826116 226.684666 
L 94.143471 226.653691 
L 94.460826 226.142021 
L 95.095537 225.936205 
L 95.730248 225.801074 
L 96.047603 225.598796 
L 96.364959 225.583342 
L 96.682314 225.250882 
L 99.538512 224.032741 
L 99.855868 223.731773 
L 100.173223 223.705437 
L 101.125289 223.077665 
L 101.442645 223.008729 
L 102.077355 222.455724 
L 102.394711 222.433268 
L 102.712066 222.115257 
L 103.029421 221.968169 
L 103.664132 221.47807 
L 103.981488 221.465441 
L 105.250909 219.103079 
L 105.88562 218.705706 
L 106.202975 218.617201 
L 106.837686 218.116583 
L 107.155041 218.059254 
L 107.472397 217.471188 
L 108.107107 216.827731 
L 108.741818 215.644068 
L 109.059174 215.369768 
L 109.376529 215.348521 
L 110.01124 214.589914 
L 110.64595 214.496405 
L 110.963306 214.444806 
L 111.280661 214.049117 
L 111.598017 213.919663 
L 111.915372 211.614814 
L 112.232727 211.48223 
L 112.867438 210.433586 
L 114.77157 209.929009 
L 115.088926 209.907095 
L 116.040992 209.612964 
L 122.388099 208.861742 
L 123.974876 208.648987 
L 124.926942 208.473292 
L 126.831074 208.099158 
L 127.14843 208.007943 
L 127.465785 207.783255 
L 128.735207 207.627858 
L 130.004628 207.082186 
L 130.321983 207.053088 
L 130.639339 206.722218 
L 130.956694 206.717402 
L 131.591405 206.375448 
L 132.543471 206.067731 
L 132.860826 205.499463 
L 133.178182 205.248089 
L 133.495537 205.242629 
L 135.717025 204.208152 
L 137.303802 202.194908 
L 138.890579 201.567696 
L 139.842645 201.300803 
L 140.16 201.078447 
L 143.968264 200.313912 
L 146.824463 199.79533 
L 149.363306 199.513392 
L 150.632727 199.29501 
L 153.17157 199.107521 
L 153.806281 198.99521 
L 155.710413 198.748029 
L 156.345124 198.677402 
L 156.979835 198.499123 
L 157.614545 198.386136 
L 158.566612 198.263273 
L 160.470744 197.959753 
L 160.788099 197.756636 
L 163.644298 197.061845 
L 165.231074 196.563446 
L 165.54843 196.162219 
L 165.865785 196.09306 
L 167.135207 194.861845 
L 167.452562 194.302297 
L 167.769917 194.095261 
L 168.404628 193.341049 
L 169.356694 192.974639 
L 169.67405 192.726397 
L 169.991405 192.710965 
L 170.626116 192.414067 
L 171.260826 192.314915 
L 171.578182 191.971889 
L 172.530248 191.816675 
L 173.482314 191.632797 
L 174.117025 191.477232 
L 174.43438 191.280176 
L 175.069091 191.141282 
L 175.703802 191.01418 
L 176.021157 190.995941 
L 176.338512 190.816596 
L 176.973223 190.683916 
L 178.877355 190.14658 
L 179.829421 189.923681 
L 180.146777 189.411358 
L 180.781488 189.306546 
L 181.098843 188.809789 
L 181.416198 188.656704 
L 181.733554 188.364496 
L 182.368264 188.176536 
L 182.68562 187.966941 
L 183.320331 187.077478 
L 184.589752 186.427654 
L 185.541818 186.189539 
L 186.176529 185.896997 
L 186.81124 185.772602 
L 187.44595 185.638767 
L 190.302149 185.103881 
L 191.254215 184.980613 
L 193.793058 184.366398 
L 194.110413 184.177655 
L 195.062479 183.907805 
L 196.014545 183.756785 
L 196.331901 183.702744 
L 196.966612 183.409079 
L 198.236033 183.08675 
L 199.188099 182.864954 
L 199.82281 182.705128 
L 200.457521 182.427696 
L 200.774876 182.351804 
L 201.092231 182.13641 
L 201.726942 182.035516 
L 202.361653 181.706966 
L 202.679008 181.457272 
L 203.631074 181.146892 
L 204.58314 180.480557 
L 204.900496 180.451021 
L 205.217851 180.110293 
L 205.535207 179.526017 
L 205.852562 179.3942 
L 206.169917 178.942826 
L 208.07405 178.247072 
L 209.343471 178.036246 
L 210.295537 177.852023 
L 212.83438 177.525845 
L 228.067438 176.40625 
L 230.288926 176.290564 
L 236.636033 175.924718 
L 257.581488 174.569189 
L 260.120331 174.334594 
L 263.61124 173.910844 
L 268.054215 173.170347 
L 269.323636 172.865024 
L 269.640992 172.856171 
L 270.275702 172.65141 
L 271.545124 172.234333 
L 272.49719 171.434096 
L 272.814545 171.392931 
L 273.449256 170.616215 
L 273.766612 170.504996 
L 274.401322 169.703573 
L 275.353388 169.531874 
L 276.305455 168.988456 
L 277.892231 168.566423 
L 279.161653 168.061216 
L 279.796364 167.867816 
L 280.431074 167.633731 
L 282.335207 167.312518 
L 282.969917 167.13615 
L 283.604628 166.860784 
L 284.87405 166.430171 
L 285.50876 166.288677 
L 286.143471 166.241871 
L 286.778182 166.019394 
L 288.682314 165.473256 
L 289.951736 164.59922 
L 290.903802 163.802587 
L 291.221157 163.651011 
L 291.538512 162.670315 
L 291.855868 162.310872 
L 294.077355 161.782803 
L 294.394711 161.513167 
L 296.616198 161.112838 
L 296.933554 160.886937 
L 297.568264 160.789436 
L 298.202975 160.414316 
L 298.837686 160.386146 
L 299.472397 160.160453 
L 301.059174 159.953677 
L 301.693884 159.690782 
L 302.328595 159.447497 
L 303.915372 158.749987 
L 304.232727 158.523098 
L 304.867438 157.934138 
L 305.502149 157.699799 
L 306.454215 156.782514 
L 306.77157 156.539646 
L 307.088926 155.671743 
L 307.723636 155.485336 
L 309.310413 154.789274 
L 309.627769 154.493828 
L 311.531901 154.118468 
L 312.166612 153.84967 
L 314.388099 153.462289 
L 315.02281 153.344655 
L 316.292231 153.183393 
L 316.926942 152.996178 
L 319.465785 152.663839 
L 325.812893 152.041595 
L 326.764959 151.819973 
L 328.351736 151.668262 
L 328.986446 151.498268 
L 330.573223 151.170408 
L 332.794711 150.099453 
L 333.746777 149.771684 
L 335.016198 149.408204 
L 335.650909 149.263352 
L 336.920331 149.031543 
L 339.776529 147.240801 
L 340.093884 147.215078 
L 340.41124 146.686798 
L 340.728595 146.643665 
L 341.363306 145.711897 
L 341.680661 145.647633 
L 341.998017 145.342738 
L 342.950083 145.092115 
L 343.584793 144.38368 
L 344.53686 144.250106 
L 344.854215 144.076626 
L 345.488926 143.962292 
L 347.075702 143.655657 
L 347.710413 143.550462 
L 348.027769 143.356598 
L 349.29719 143.192933 
L 352.470744 142.668516 
L 356.596364 141.851883 
L 357.231074 141.62587 
L 357.865785 141.280982 
L 358.18314 141.197517 
L 358.500496 140.913988 
L 358.817851 140.899538 
L 359.135207 140.435835 
L 359.452562 140.388104 
L 360.087273 140.049694 
L 360.404628 139.966462 
L 361.356694 139.009516 
L 361.67405 138.921374 
L 361.991405 138.463028 
L 362.626116 138.356561 
L 362.943471 137.682822 
L 363.895537 136.870785 
L 364.212893 136.395992 
L 364.530248 136.16475 
L 364.847603 135.640557 
L 365.164959 135.342835 
L 365.799669 135.054372 
L 366.117025 134.638063 
L 366.43438 134.540587 
L 366.751736 134.226107 
L 367.069091 132.138338 
L 367.386446 131.296739 
L 367.703802 131.159567 
L 368.338512 129.85656 
L 368.973223 129.752905 
L 369.607934 128.723437 
L 370.56 128.549217 
L 370.877355 128.153871 
L 371.512066 127.949348 
L 371.829421 127.440156 
L 372.146777 127.304289 
L 372.464132 127.001747 
L 372.781488 126.971343 
L 373.733554 126.504458 
L 374.368264 126.397765 
L 374.68562 125.98346 
L 375.320331 125.854042 
L 375.637686 125.843061 
L 377.224463 124.827809 
L 377.541818 124.810099 
L 377.859174 124.467967 
L 378.176529 124.339868 
L 378.493884 123.840853 
L 378.81124 123.805513 
L 379.44595 123.208456 
L 379.763306 123.049434 
L 380.398017 122.229942 
L 380.715372 122.174806 
L 381.032727 121.964375 
L 381.350083 121.513626 
L 381.667438 120.346549 
L 381.984793 120.24451 
L 382.302149 119.016418 
L 382.93686 118.931052 
L 383.254215 118.672653 
L 383.57157 118.253373 
L 383.888926 118.140363 
L 384.840992 117.136076 
L 385.158347 116.169329 
L 385.475702 115.899786 
L 385.793058 114.590799 
L 386.745124 113.671837 
L 387.69719 113.210994 
L 388.649256 112.061163 
L 390.236033 111.283765 
L 390.553388 111.043071 
L 390.870744 109.18432 
L 391.188099 109.03836 
L 391.505455 106.711838 
L 391.82281 105.438792 
L 392.140165 104.80362 
L 393.092231 101.598007 
L 393.409587 101.101235 
L 393.726942 98.968739 
L 394.044298 98.491178 
L 394.361653 98.439208 
L 394.679008 97.825455 
L 394.996364 96.721583 
L 395.313719 96.59576 
L 395.631074 96.233688 
L 395.94843 94.670847 
L 396.58314 84.978945 
L 396.900496 84.652433 
L 397.217851 82.513823 
L 397.535207 81.880266 
L 397.852562 70.006179 
L 398.169917 68.196254 
L 398.487273 56.227392 
L 398.487273 56.227392 
" clip-path="url(#p73f2f2476b)" style="fill: none; stroke: #1f77b4; stroke-width: 1.5; stroke-linecap: square"/>
   </g>
   <g id="line2d_13">
    <path d="M 73.832727 293.477089 
L 74.150083 279.479684 
L 74.467438 279.479684 
L 74.784793 267.514755 
L 75.102149 265.029469 
L 75.73686 265.029469 
L 76.054215 260.552675 
L 76.37157 252.995226 
L 76.688926 252.531554 
L 77.006281 252.531554 
L 77.323636 251.36217 
L 78.910413 251.36217 
L 79.227769 247.098569 
L 79.545124 247.098569 
L 79.862479 245.555159 
L 80.179835 244.601618 
L 80.49719 244.601618 
L 80.814545 239.886999 
L 81.131901 237.66779 
L 82.083967 237.629632 
L 82.401322 236.316205 
L 86.844298 236.241633 
L 87.161653 235.522469 
L 87.479008 232.106127 
L 87.796364 231.350899 
L 88.113719 230.168198 
L 89.700496 230.168198 
L 90.017851 228.657057 
L 90.652562 228.657057 
L 90.969917 226.901641 
L 91.287273 226.901641 
L 91.604628 225.987208 
L 91.921983 223.635142 
L 99.221157 223.635142 
L 99.538512 222.233627 
L 99.855868 222.233627 
L 100.173223 221.902108 
L 101.76 221.902108 
L 102.077355 220.449398 
L 103.664132 220.449398 
L 103.981488 220.12172 
L 104.298843 219.555289 
L 104.933554 219.555289 
L 105.250909 217.563093 
L 106.202975 217.462691 
L 106.520331 212.966634 
L 107.155041 212.522391 
L 107.472397 212.522391 
L 107.789752 211.487079 
L 109.376529 211.487079 
L 109.693884 209.21491 
L 110.01124 209.21491 
L 110.328595 206.704875 
L 129.369917 206.704772 
L 129.687273 205.278405 
L 130.321983 203.936894 
L 131.27405 203.851364 
L 131.591405 202.684531 
L 131.90876 202.684531 
L 132.226116 202.417949 
L 132.860826 202.417949 
L 133.178182 200.171715 
L 133.495537 200.171715 
L 133.812893 199.701356 
L 135.399669 199.701356 
L 135.717025 197.785811 
L 136.03438 197.52751 
L 136.351736 197.095016 
L 136.986446 196.985971 
L 163.009587 196.985971 
L 163.326942 194.997881 
L 167.135207 194.997881 
L 167.452562 194.634548 
L 167.769917 194.634548 
L 168.087273 192.174029 
L 168.404628 192.174029 
L 168.721983 191.517271 
L 169.356694 191.517271 
L 169.67405 191.093454 
L 169.991405 190.078339 
L 171.578182 190.078339 
L 172.212893 189.36261 
L 172.530248 189.36261 
L 172.847603 189.058965 
L 180.146777 189.058965 
L 180.464132 188.536313 
L 180.781488 188.536313 
L 181.098843 188.023652 
L 182.68562 188.023652 
L 183.320331 183.241345 
L 185.541818 183.198804 
L 185.859174 182.920952 
L 186.493884 182.920952 
L 186.81124 182.501263 
L 187.128595 181.449551 
L 187.44595 181.449551 
L 187.763306 180.737237 
L 188.080661 180.737237 
L 188.398017 177.763516 
L 188.715372 173.522544 
L 283.604628 173.522544 
L 284.239339 166.307851 
L 284.556694 166.307851 
L 284.87405 165.595538 
L 285.191405 165.595538 
L 285.50876 164.543826 
L 285.826116 164.124137 
L 286.460826 164.124137 
L 286.778182 163.846285 
L 288.999669 163.803744 
L 289.63438 159.021437 
L 291.221157 159.021437 
L 291.538512 158.508775 
L 291.855868 158.508775 
L 292.173223 157.986124 
L 299.472397 157.986124 
L 299.789752 157.682479 
L 300.107107 157.682479 
L 300.741818 156.96675 
L 302.328595 156.96675 
L 302.64595 155.951634 
L 302.963306 155.527818 
L 303.598017 155.527818 
L 303.915372 154.87106 
L 304.232727 154.87106 
L 304.550083 152.410541 
L 304.867438 152.410541 
L 305.184793 152.047207 
L 308.993058 152.047207 
L 309.310413 150.059118 
L 335.968264 149.950073 
L 336.602975 149.259278 
L 336.920331 147.343733 
L 338.507107 147.343733 
L 338.824463 146.873374 
L 339.141818 146.873374 
L 339.459174 144.62714 
L 340.093884 144.62714 
L 340.41124 144.360558 
L 340.728595 144.360558 
L 341.04595 143.193724 
L 341.680661 143.108195 
L 341.998017 143.108195 
L 342.315372 142.588966 
L 342.632727 141.766684 
L 342.950083 140.340317 
L 361.991405 140.340214 
L 362.30876 137.830179 
L 362.626116 137.830179 
L 362.943471 135.55801 
L 364.530248 135.55801 
L 364.847603 134.522697 
L 365.164959 134.522697 
L 365.799669 134.078455 
L 366.117025 129.582398 
L 367.069091 129.481995 
L 367.386446 127.4898 
L 368.021157 127.4898 
L 368.338512 126.923369 
L 368.655868 126.595691 
L 370.242645 126.595691 
L 370.56 125.142981 
L 372.146777 125.142981 
L 372.464132 124.811462 
L 372.781488 124.811462 
L 373.098843 123.409947 
L 380.398017 123.409947 
L 380.715372 121.057881 
L 381.032727 120.143448 
L 381.350083 120.143448 
L 381.667438 118.388032 
L 382.302149 118.388032 
L 382.619504 116.87689 
L 384.206281 116.87689 
L 384.840992 114.938962 
L 385.158347 111.52262 
L 385.475702 110.803456 
L 389.918678 110.728884 
L 390.236033 109.415457 
L 391.188099 109.377299 
L 391.505455 107.15809 
L 391.82281 102.44347 
L 392.140165 102.44347 
L 392.457521 101.48993 
L 392.774876 99.94652 
L 393.092231 99.94652 
L 393.409587 95.682919 
L 394.996364 95.682919 
L 395.313719 94.513535 
L 395.631074 94.513535 
L 395.94843 94.049863 
L 396.265785 86.492414 
L 396.58314 82.01562 
L 397.217851 82.01562 
L 397.535207 79.530334 
L 397.852562 67.565405 
L 398.169917 67.565405 
L 398.487273 53.568 
L 398.487273 53.568 
" clip-path="url(#p73f2f2476b)" style="fill: none; stroke: #ff7f0e; stroke-width: 1.5; stroke-linecap: square"/>
   </g>
   <g id="patch_3">
    <path d="M 57.6 307.584 
L 57.6 41.472 
" style="fill: none; stroke: #000000; stroke-width: 0.8; stroke-linejoin: miter; stroke-linecap: square"/>
   </g>
   <g id="patch_4">
    <path d="M 414.72 307.584 
L 414.72 41.472 
" style="fill: none; stroke: #000000; stroke-width: 0.8; stroke-linejoin: miter; stroke-linecap: square"/>
   </g>
   <g id="patch_5">
    <path d="M 57.6 307.584 
L 414.72 307.584 
" style="fill: none; stroke: #000000; stroke-width: 0.8; stroke-linejoin: miter; stroke-linecap: square"/>
   </g>
   <g id="patch_6">
    <path d="M 57.6 41.472 
L 414.72 41.472 
" style="fill: none; stroke: #000000; stroke-width: 0.8; stroke-linejoin: miter; stroke-linecap: square"/>
   </g>
   <g id="legend_1">
    <g id="patch_7">
     <path d="M 64.6 78.82825 
L 129.342187 78.82825 
Q 131.342187 78.82825 131.342187 76.82825 
L 131.342187 48.472 
Q 131.342187 46.472 129.342187 46.472 
L 64.6 46.472 
Q 62.6 46.472 62.6 48.472 
L 62.6 76.82825 
Q 62.6 78.82825 64.6 78.82825 
z
" style="fill: #ffffff; opacity: 0.8; stroke: #cccccc; stroke-linejoin: miter"/>
    </g>
    <g id="line2d_14">
     <path d="M 66.6 54.570437 
L 76.6 54.570437 
L 86.6 54.570437 
" style="fill: none; stroke: #1f77b4; stroke-width: 1.5; stroke-linecap: square"/>
    </g>
    <g id="text_14">
     <!-- qc -->
     <g transform="translate(94.6 58.070437) scale(0.1 -0.1)">
      <defs>
       <path id="DejaVuSans-71" d="M 947 1747 
Q 947 1113 1208 752 
Q 1469 391 1925 391 
Q 2381 391 2643 752 
Q 2906 1113 2906 1747 
Q 2906 2381 2643 2742 
Q 2381 3103 1925 3103 
Q 1469 3103 1208 2742 
Q 947 2381 947 1747 
z
M 2906 525 
Q 2725 213 2448 61 
Q 2172 -91 1784 -91 
Q 1150 -91 751 415 
Q 353 922 353 1747 
Q 353 2572 751 3078 
Q 1150 3584 1784 3584 
Q 2172 3584 2448 3432 
Q 2725 3281 2906 2969 
L 2906 3500 
L 3481 3500 
L 3481 -1331 
L 2906 -1331 
L 2906 525 
z
" transform="scale(0.015625)"/>
       <path id="DejaVuSans-63" d="M 3122 3366 
L 3122 2828 
Q 2878 2963 2633 3030 
Q 2388 3097 2138 3097 
Q 1578 3097 1268 2742 
Q 959 2388 959 1747 
Q 959 1106 1268 751 
Q 1578 397 2138 397 
Q 2388 397 2633 464 
Q 2878 531 3122 666 
L 3122 134 
Q 2881 22 2623 -34 
Q 2366 -91 2075 -91 
Q 1284 -91 818 406 
Q 353 903 353 1747 
Q 353 2603 823 3093 
Q 1294 3584 2113 3584 
Q 2378 3584 2631 3529 
Q 2884 3475 3122 3366 
z
" transform="scale(0.015625)"/>
      </defs>
      <use xlink:href="#DejaVuSans-71"/>
      <use xlink:href="#DejaVuSans-63" x="63.476562"/>
     </g>
    </g>
    <g id="line2d_15">
     <path d="M 66.6 69.248562 
L 76.6 69.248562 
L 86.6 69.248562 
" style="fill: none; stroke: #ff7f0e; stroke-width: 1.5; stroke-linecap: square"/>
    </g>
    <g id="text_15">
     <!-- Trotter -->
     <g transform="translate(94.6 72.748562) scale(0.1 -0.1)">
      <defs>
       <path id="DejaVuSans-54" d="M -19 4666 
L 3928 4666 
L 3928 4134 
L 2272 4134 
L 2272 0 
L 1638 0 
L 1638 4134 
L -19 4134 
L -19 4666 
z
" transform="scale(0.015625)"/>
       <path id="DejaVuSans-72" d="M 2631 2963 
Q 2534 3019 2420 3045 
Q 2306 3072 2169 3072 
Q 1681 3072 1420 2755 
Q 1159 2438 1159 1844 
L 1159 0 
L 581 0 
L 581 3500 
L 1159 3500 
L 1159 2956 
Q 1341 3275 1631 3429 
Q 1922 3584 2338 3584 
Q 2397 3584 2469 3576 
Q 2541 3569 2628 3553 
L 2631 2963 
z
" transform="scale(0.015625)"/>
       <path id="DejaVuSans-6f" d="M 1959 3097 
Q 1497 3097 1228 2736 
Q 959 2375 959 1747 
Q 959 1119 1226 758 
Q 1494 397 1959 397 
Q 2419 397 2687 759 
Q 2956 1122 2956 1747 
Q 2956 2369 2687 2733 
Q 2419 3097 1959 3097 
z
M 1959 3584 
Q 2709 3584 3137 3096 
Q 3566 2609 3566 1747 
Q 3566 888 3137 398 
Q 2709 -91 1959 -91 
Q 1206 -91 779 398 
Q 353 888 353 1747 
Q 353 2609 779 3096 
Q 1206 3584 1959 3584 
z
" transform="scale(0.015625)"/>
       <path id="DejaVuSans-65" d="M 3597 1894 
L 3597 1613 
L 953 1613 
Q 991 1019 1311 708 
Q 1631 397 2203 397 
Q 2534 397 2845 478 
Q 3156 559 3463 722 
L 3463 178 
Q 3153 47 2828 -22 
Q 2503 -91 2169 -91 
Q 1331 -91 842 396 
Q 353 884 353 1716 
Q 353 2575 817 3079 
Q 1281 3584 2069 3584 
Q 2775 3584 3186 3129 
Q 3597 2675 3597 1894 
z
M 3022 2063 
Q 3016 2534 2758 2815 
Q 2500 3097 2075 3097 
Q 1594 3097 1305 2825 
Q 1016 2553 972 2059 
L 3022 2063 
z
" transform="scale(0.015625)"/>
      </defs>
      <use xlink:href="#DejaVuSans-54"/>
      <use xlink:href="#DejaVuSans-72" x="46.333984"/>
      <use xlink:href="#DejaVuSans-6f" x="85.197266"/>
      <use xlink:href="#DejaVuSans-74" x="146.378906"/>
      <use xlink:href="#DejaVuSans-74" x="185.587891"/>
      <use xlink:href="#DejaVuSans-65" x="224.796875"/>
      <use xlink:href="#DejaVuSans-72" x="286.320312"/>
     </g>
    </g>
   </g>
  </g>
 </g>
 <defs>
  <clipPath id="p73f2f2476b">
   <rect x="57.6" y="41.472" width="357.12" height="266.112"/>
  </clipPath>
 </defs>
</svg>
