<?xml version="1.0" encoding="utf-8" standalone="no"?>
<!DOCTYPE svg PUBLIC "-//W3C//DTD SVG 1.1//EN"
  "http://www.w3.org/Graphics/SVG/1.1/DTD/svg11.dtd">
<svg xmlns:xlink="http://www.w3.org/1999/xlink" width="460.8pt" height="345.6pt" viewBox="0 0 460.8 345.6" xmlns="http://www.w3.org/2000/svg" version="1.1">
 <metadata>
  <rdf:RDF xmlns:dc="http://purl.org/dc/elements/1.1/" xmlns:cc="http://creativecommons.org/ns#" xmlns:rdf="http://www.w3.org/1999/02/22-rdf-syntax-ns#">
   <cc:Work>
    <dc:type rdf:resource="http://purl.org/dc/dcmitype/StillImage"/>
    <dc:date>2024-08-31T17:49:46.141306</dc:date>
    <dc:format>image/svg+xml</dc:format>
    <dc:creator>
     <cc:Agent>
      <dc:title>Matplotlib v3.7.1, https://matplotlib.org/</dc:title>
     </cc:Agent>
    </dc:creator>
   </cc:Work>
  </rdf:RDF>
 </metadata>
 <defs>
  <style type="text/css">*{stroke-linejoin: round; stroke-linecap: butt}</style>
 </defs>
 <g id="figure_1">
  <g id="patch_1">
   <path d="M 0 345.6 
L 460.8 345.6 
L 460.8 0 
L 0 0 
z
" style="fill: #ffffff"/>
  </g>
  <g id="axes_1">
   <g id="patch_2">
    <path d="M 57.6 307.584 
L 414.72 307.584 
L 414.72 41.472 
L 57.6 41.472 
z
" style="fill: #ffffff"/>
   </g>
   <g id="matplotlib.axis_1">
    <g id="xtick_1">
     <g id="line2d_1">
      <defs>
       <path id="m084de2c8fe" d="M 0 0 
L 0 3.5 
" style="stroke: #000000; stroke-width: 0.8"/>
      </defs>
      <g>
       <use xlink:href="#m084de2c8fe" x="73.832727" y="307.584" style="stroke: #000000; stroke-width: 0.8"/>
      </g>
     </g>
     <g id="text_1">
      <!-- 0 -->
      <g transform="translate(70.651477 322.182437) scale(0.1 -0.1)">
       <defs>
        <path id="DejaVuSans-30" d="M 2034 4250 
Q 1547 4250 1301 3770 
Q 1056 3291 1056 2328 
Q 1056 1369 1301 889 
Q 1547 409 2034 409 
Q 2525 409 2770 889 
Q 3016 1369 3016 2328 
Q 3016 3291 2770 3770 
Q 2525 4250 2034 4250 
z
M 2034 4750 
Q 2819 4750 3233 4129 
Q 3647 3509 3647 2328 
Q 3647 1150 3233 529 
Q 2819 -91 2034 -91 
Q 1250 -91 836 529 
Q 422 1150 422 2328 
Q 422 3509 836 4129 
Q 1250 4750 2034 4750 
z
" transform="scale(0.015625)"/>
       </defs>
       <use xlink:href="#DejaVuSans-30"/>
      </g>
     </g>
    </g>
    <g id="xtick_2">
     <g id="line2d_2">
      <g>
       <use xlink:href="#m084de2c8fe" x="137.303802" y="307.584" style="stroke: #000000; stroke-width: 0.8"/>
      </g>
     </g>
     <g id="text_2">
      <!-- 200 -->
      <g transform="translate(127.760052 322.182437) scale(0.1 -0.1)">
       <defs>
        <path id="DejaVuSans-32" d="M 1228 531 
L 3431 531 
L 3431 0 
L 469 0 
L 469 531 
Q 828 903 1448 1529 
Q 2069 2156 2228 2338 
Q 2531 2678 2651 2914 
Q 2772 3150 2772 3378 
Q 2772 3750 2511 3984 
Q 2250 4219 1831 4219 
Q 1534 4219 1204 4116 
Q 875 4013 500 3803 
L 500 4441 
Q 881 4594 1212 4672 
Q 1544 4750 1819 4750 
Q 2544 4750 2975 4387 
Q 3406 4025 3406 3419 
Q 3406 3131 3298 2873 
Q 3191 2616 2906 2266 
Q 2828 2175 2409 1742 
Q 1991 1309 1228 531 
z
" transform="scale(0.015625)"/>
       </defs>
       <use xlink:href="#DejaVuSans-32"/>
       <use xlink:href="#DejaVuSans-30" x="63.623047"/>
       <use xlink:href="#DejaVuSans-30" x="127.246094"/>
      </g>
     </g>
    </g>
    <g id="xtick_3">
     <g id="line2d_3">
      <g>
       <use xlink:href="#m084de2c8fe" x="200.774876" y="307.584" style="stroke: #000000; stroke-width: 0.8"/>
      </g>
     </g>
     <g id="text_3">
      <!-- 400 -->
      <g transform="translate(191.231126 322.182437) scale(0.1 -0.1)">
       <defs>
        <path id="DejaVuSans-34" d="M 2419 4116 
L 825 1625 
L 2419 1625 
L 2419 4116 
z
M 2253 4666 
L 3047 4666 
L 3047 1625 
L 3713 1625 
L 3713 1100 
L 3047 1100 
L 3047 0 
L 2419 0 
L 2419 1100 
L 313 1100 
L 313 1709 
L 2253 4666 
z
" transform="scale(0.015625)"/>
       </defs>
       <use xlink:href="#DejaVuSans-34"/>
       <use xlink:href="#DejaVuSans-30" x="63.623047"/>
       <use xlink:href="#DejaVuSans-30" x="127.246094"/>
      </g>
     </g>
    </g>
    <g id="xtick_4">
     <g id="line2d_4">
      <g>
       <use xlink:href="#m084de2c8fe" x="264.24595" y="307.584" style="stroke: #000000; stroke-width: 0.8"/>
      </g>
     </g>
     <g id="text_4">
      <!-- 600 -->
      <g transform="translate(254.7022 322.182437) scale(0.1 -0.1)">
       <defs>
        <path id="DejaVuSans-36" d="M 2113 2584 
Q 1688 2584 1439 2293 
Q 1191 2003 1191 1497 
Q 1191 994 1439 701 
Q 1688 409 2113 409 
Q 2538 409 2786 701 
Q 3034 994 3034 1497 
Q 3034 2003 2786 2293 
Q 2538 2584 2113 2584 
z
M 3366 4563 
L 3366 3988 
Q 3128 4100 2886 4159 
Q 2644 4219 2406 4219 
Q 1781 4219 1451 3797 
Q 1122 3375 1075 2522 
Q 1259 2794 1537 2939 
Q 1816 3084 2150 3084 
Q 2853 3084 3261 2657 
Q 3669 2231 3669 1497 
Q 3669 778 3244 343 
Q 2819 -91 2113 -91 
Q 1303 -91 875 529 
Q 447 1150 447 2328 
Q 447 3434 972 4092 
Q 1497 4750 2381 4750 
Q 2619 4750 2861 4703 
Q 3103 4656 3366 4563 
z
" transform="scale(0.015625)"/>
       </defs>
       <use xlink:href="#DejaVuSans-36"/>
       <use xlink:href="#DejaVuSans-30" x="63.623047"/>
       <use xlink:href="#DejaVuSans-30" x="127.246094"/>
      </g>
     </g>
    </g>
    <g id="xtick_5">
     <g id="line2d_5">
      <g>
       <use xlink:href="#m084de2c8fe" x="327.717025" y="307.584" style="stroke: #000000; stroke-width: 0.8"/>
      </g>
     </g>
     <g id="text_5">
      <!-- 800 -->
      <g transform="translate(318.173275 322.182437) scale(0.1 -0.1)">
       <defs>
        <path id="DejaVuSans-38" d="M 2034 2216 
Q 1584 2216 1326 1975 
Q 1069 1734 1069 1313 
Q 1069 891 1326 650 
Q 1584 409 2034 409 
Q 2484 409 2743 651 
Q 3003 894 3003 1313 
Q 3003 1734 2745 1975 
Q 2488 2216 2034 2216 
z
M 1403 2484 
Q 997 2584 770 2862 
Q 544 3141 544 3541 
Q 544 4100 942 4425 
Q 1341 4750 2034 4750 
Q 2731 4750 3128 4425 
Q 3525 4100 3525 3541 
Q 3525 3141 3298 2862 
Q 3072 2584 2669 2484 
Q 3125 2378 3379 2068 
Q 3634 1759 3634 1313 
Q 3634 634 3220 271 
Q 2806 -91 2034 -91 
Q 1263 -91 848 271 
Q 434 634 434 1313 
Q 434 1759 690 2068 
Q 947 2378 1403 2484 
z
M 1172 3481 
Q 1172 3119 1398 2916 
Q 1625 2713 2034 2713 
Q 2441 2713 2670 2916 
Q 2900 3119 2900 3481 
Q 2900 3844 2670 4047 
Q 2441 4250 2034 4250 
Q 1625 4250 1398 4047 
Q 1172 3844 1172 3481 
z
" transform="scale(0.015625)"/>
       </defs>
       <use xlink:href="#DejaVuSans-38"/>
       <use xlink:href="#DejaVuSans-30" x="63.623047"/>
       <use xlink:href="#DejaVuSans-30" x="127.246094"/>
      </g>
     </g>
    </g>
    <g id="xtick_6">
     <g id="line2d_6">
      <g>
       <use xlink:href="#m084de2c8fe" x="391.188099" y="307.584" style="stroke: #000000; stroke-width: 0.8"/>
      </g>
     </g>
     <g id="text_6">
      <!-- 1000 -->
      <g transform="translate(378.463099 322.182437) scale(0.1 -0.1)">
       <defs>
        <path id="DejaVuSans-31" d="M 794 531 
L 1825 531 
L 1825 4091 
L 703 3866 
L 703 4441 
L 1819 4666 
L 2450 4666 
L 2450 531 
L 3481 531 
L 3481 0 
L 794 0 
L 794 531 
z
" transform="scale(0.015625)"/>
       </defs>
       <use xlink:href="#DejaVuSans-31"/>
       <use xlink:href="#DejaVuSans-30" x="63.623047"/>
       <use xlink:href="#DejaVuSans-30" x="127.246094"/>
       <use xlink:href="#DejaVuSans-30" x="190.869141"/>
      </g>
     </g>
    </g>
    <g id="text_7">
     <!-- n -->
     <g transform="translate(232.99125 335.860562) scale(0.1 -0.1)">
      <defs>
       <path id="DejaVuSans-6e" d="M 3513 2113 
L 3513 0 
L 2938 0 
L 2938 2094 
Q 2938 2591 2744 2837 
Q 2550 3084 2163 3084 
Q 1697 3084 1428 2787 
Q 1159 2491 1159 1978 
L 1159 0 
L 581 0 
L 581 3500 
L 1159 3500 
L 1159 2956 
Q 1366 3272 1645 3428 
Q 1925 3584 2291 3584 
Q 2894 3584 3203 3211 
Q 3513 2838 3513 2113 
z
" transform="scale(0.015625)"/>
      </defs>
      <use xlink:href="#DejaVuSans-6e"/>
     </g>
    </g>
   </g>
   <g id="matplotlib.axis_2">
    <g id="ytick_1">
     <g id="line2d_7">
      <defs>
       <path id="mab228c1348" d="M 0 0 
L -3.5 0 
" style="stroke: #000000; stroke-width: 0.8"/>
      </defs>
      <g>
       <use xlink:href="#mab228c1348" x="57.6" y="294.859943" style="stroke: #000000; stroke-width: 0.8"/>
      </g>
     </g>
     <g id="text_8">
      <!-- −6 -->
      <g transform="translate(35.857813 298.659161) scale(0.1 -0.1)">
       <defs>
        <path id="DejaVuSans-2212" d="M 678 2272 
L 4684 2272 
L 4684 1741 
L 678 1741 
L 678 2272 
z
" transform="scale(0.015625)"/>
       </defs>
       <use xlink:href="#DejaVuSans-2212"/>
       <use xlink:href="#DejaVuSans-36" x="83.789062"/>
      </g>
     </g>
    </g>
    <g id="ytick_2">
     <g id="line2d_8">
      <g>
       <use xlink:href="#mab228c1348" x="57.6" y="251.432451" style="stroke: #000000; stroke-width: 0.8"/>
      </g>
     </g>
     <g id="text_9">
      <!-- −4 -->
      <g transform="translate(35.857813 255.23167) scale(0.1 -0.1)">
       <use xlink:href="#DejaVuSans-2212"/>
       <use xlink:href="#DejaVuSans-34" x="83.789062"/>
      </g>
     </g>
    </g>
    <g id="ytick_3">
     <g id="line2d_9">
      <g>
       <use xlink:href="#mab228c1348" x="57.6" y="208.004959" style="stroke: #000000; stroke-width: 0.8"/>
      </g>
     </g>
     <g id="text_10">
      <!-- −2 -->
      <g transform="translate(35.857813 211.804178) scale(0.1 -0.1)">
       <use xlink:href="#DejaVuSans-2212"/>
       <use xlink:href="#DejaVuSans-32" x="83.789062"/>
      </g>
     </g>
    </g>
    <g id="ytick_4">
     <g id="line2d_10">
      <g>
       <use xlink:href="#mab228c1348" x="57.6" y="164.577467" style="stroke: #000000; stroke-width: 0.8"/>
      </g>
     </g>
     <g id="text_11">
      <!-- 0 -->
      <g transform="translate(44.2375 168.376686) scale(0.1 -0.1)">
       <use xlink:href="#DejaVuSans-30"/>
      </g>
     </g>
    </g>
    <g id="ytick_5">
     <g id="line2d_11">
      <g>
       <use xlink:href="#mab228c1348" x="57.6" y="121.149975" style="stroke: #000000; stroke-width: 0.8"/>
      </g>
     </g>
     <g id="text_12">
      <!-- 2 -->
      <g transform="translate(44.2375 124.949194) scale(0.1 -0.1)">
       <use xlink:href="#DejaVuSans-32"/>
      </g>
     </g>
    </g>
    <g id="ytick_6">
     <g id="line2d_12">
      <g>
       <use xlink:href="#mab228c1348" x="57.6" y="77.722483" style="stroke: #000000; stroke-width: 0.8"/>
      </g>
     </g>
     <g id="text_13">
      <!-- 4 -->
      <g transform="translate(44.2375 81.521702) scale(0.1 -0.1)">
       <use xlink:href="#DejaVuSans-34"/>
      </g>
     </g>
    </g>
    <g id="text_14">
     <!-- E*t -->
     <g transform="translate(29.778125 182.147531) rotate(-90) scale(0.1 -0.1)">
      <defs>
       <path id="DejaVuSans-45" d="M 628 4666 
L 3578 4666 
L 3578 4134 
L 1259 4134 
L 1259 2753 
L 3481 2753 
L 3481 2222 
L 1259 2222 
L 1259 531 
L 3634 531 
L 3634 0 
L 628 0 
L 628 4666 
z
" transform="scale(0.015625)"/>
       <path id="DejaVuSans-2a" d="M 3009 3897 
L 1888 3291 
L 3009 2681 
L 2828 2375 
L 1778 3009 
L 1778 1831 
L 1422 1831 
L 1422 3009 
L 372 2375 
L 191 2681 
L 1313 3291 
L 191 3897 
L 372 4206 
L 1422 3572 
L 1422 4750 
L 1778 4750 
L 1778 3572 
L 2828 4206 
L 3009 3897 
z
" transform="scale(0.015625)"/>
       <path id="DejaVuSans-74" d="M 1172 4494 
L 1172 3500 
L 2356 3500 
L 2356 3053 
L 1172 3053 
L 1172 1153 
Q 1172 725 1289 603 
Q 1406 481 1766 481 
L 2356 481 
L 2356 0 
L 1766 0 
Q 1100 0 847 248 
Q 594 497 594 1153 
L 594 3053 
L 172 3053 
L 172 3500 
L 594 3500 
L 594 4494 
L 1172 4494 
z
" transform="scale(0.015625)"/>
      </defs>
      <use xlink:href="#DejaVuSans-45"/>
      <use xlink:href="#DejaVuSans-2a" x="63.183594"/>
      <use xlink:href="#DejaVuSans-74" x="113.183594"/>
     </g>
    </g>
   </g>
   <g id="line2d_13">
    <path d="M 73.832727 295.488 
L 74.150083 282.744574 
L 74.467438 282.432856 
L 74.784793 271.462011 
L 75.102149 269.517706 
L 75.73686 268.956285 
L 76.054215 264.923575 
L 76.37157 257.912325 
L 76.688926 257.820555 
L 77.006281 257.598646 
L 77.323636 256.763938 
L 78.275702 256.513465 
L 78.910413 255.95646 
L 79.227769 252.806801 
L 79.545124 252.555642 
L 79.862479 251.109364 
L 80.179835 250.537619 
L 80.49719 250.213243 
L 80.814545 246.207757 
L 81.131901 244.185866 
L 81.449256 244.169476 
L 81.766612 243.76777 
L 82.401322 243.476376 
L 82.718678 242.935827 
L 83.353388 242.788204 
L 85.574876 242.436762 
L 86.526942 241.928302 
L 86.844298 241.916968 
L 87.161653 241.432796 
L 87.479008 238.907759 
L 88.113719 237.296671 
L 89.700496 236.83868 
L 90.017851 235.930512 
L 90.335207 235.832551 
L 90.969917 234.174843 
L 91.287273 233.844033 
L 91.921983 232.131337 
L 92.556694 231.823002 
L 93.191405 231.386752 
L 94.460826 231.01503 
L 96.047603 230.892214 
L 96.682314 230.772288 
L 96.999669 230.750341 
L 98.269091 230.089059 
L 98.903802 229.916515 
L 99.538512 229.741427 
L 100.173223 229.402655 
L 100.490579 229.342601 
L 100.807934 229.161872 
L 101.125289 229.154116 
L 101.76 228.503325 
L 102.077355 228.419284 
L 102.394711 228.209887 
L 103.029421 228.092439 
L 104.616198 227.166449 
L 104.933554 226.733794 
L 105.250909 225.497012 
L 106.202975 225.372248 
L 106.520331 220.912116 
L 108.741818 219.438188 
L 109.059174 218.95721 
L 109.376529 218.836533 
L 109.693884 217.837696 
L 110.01124 217.518428 
L 110.328595 216.872633 
L 110.64595 216.485695 
L 112.232727 216.166686 
L 112.550083 216.160111 
L 112.867438 216.001437 
L 126.513719 214.518316 
L 127.14843 214.384115 
L 127.78314 214.343229 
L 128.417851 214.094864 
L 129.052562 213.968775 
L 129.369917 213.875349 
L 130.004628 213.239936 
L 130.321983 212.949211 
L 131.27405 212.606758 
L 131.591405 211.718101 
L 131.90876 211.529052 
L 132.543471 211.451895 
L 132.860826 211.183258 
L 133.178182 209.179446 
L 135.082314 208.420516 
L 135.399669 208.186169 
L 135.717025 207.790952 
L 136.351736 207.560543 
L 137.938512 207.244377 
L 151.267438 206.088277 
L 153.17157 205.945907 
L 159.201322 205.421976 
L 159.836033 205.329785 
L 162.057521 205.118961 
L 162.692231 204.97992 
L 163.326942 204.651967 
L 163.961653 204.52468 
L 164.596364 204.388791 
L 165.231074 204.356729 
L 165.865785 204.18401 
L 166.500496 204.137944 
L 166.817851 203.748866 
L 167.452562 203.518147 
L 167.769917 203.055676 
L 168.087273 201.974764 
L 168.404628 201.714749 
L 168.721983 201.687836 
L 169.039339 201.446142 
L 169.356694 200.670048 
L 169.67405 200.584437 
L 169.991405 200.383227 
L 170.30876 200.358955 
L 170.626116 200.013547 
L 173.482314 199.382681 
L 173.799669 199.19586 
L 175.386446 199.034019 
L 176.338512 198.780129 
L 179.194711 198.316914 
L 179.829421 198.147629 
L 180.146777 197.950783 
L 182.368264 197.5306 
L 182.68562 197.193769 
L 183.320331 194.243243 
L 183.637686 194.08565 
L 183.955041 193.636298 
L 185.224463 193.417473 
L 185.859174 193.137317 
L 186.81124 192.828944 
L 187.128595 192.05864 
L 187.763306 191.383967 
L 188.080661 191.312502 
L 188.398017 188.310772 
L 188.715372 187.332784 
L 189.032727 186.896025 
L 191.888926 186.300625 
L 192.840992 186.173178 
L 193.475702 186.052962 
L 197.601322 185.754535 
L 201.092231 185.580107 
L 216.007934 185.023938 
L 219.181488 184.917634 
L 227.750083 184.677381 
L 274.083967 183.249314 
L 280.74843 182.7496 
L 281.700496 182.58568 
L 283.287273 182.112829 
L 283.604628 181.802834 
L 283.921983 180.906882 
L 284.239339 178.014929 
L 284.556694 177.937886 
L 284.87405 176.72785 
L 285.50876 176.243757 
L 287.730248 175.842941 
L 288.999669 175.315362 
L 289.63438 171.537098 
L 289.951736 171.523239 
L 290.269091 171.288109 
L 291.221157 171.142381 
L 291.538512 171.103073 
L 292.173223 170.831964 
L 293.442645 170.584682 
L 293.76 170.573968 
L 294.394711 170.364754 
L 295.664132 170.257528 
L 297.250909 169.994717 
L 298.520331 169.870428 
L 298.837686 169.456862 
L 300.107107 169.180211 
L 301.693884 168.979418 
L 302.328595 168.330543 
L 302.963306 168.238538 
L 303.598017 167.846263 
L 303.915372 167.420109 
L 304.232727 167.355144 
L 304.550083 165.585547 
L 304.867438 165.274639 
L 305.184793 165.193851 
L 305.502149 164.976683 
L 307.406281 164.636044 
L 307.723636 164.46963 
L 308.040992 164.444257 
L 308.675702 164.226812 
L 308.993058 164.222688 
L 309.310413 164.084149 
L 310.262479 163.971474 
L 311.214545 163.793073 
L 313.118678 163.514672 
L 314.070744 163.451512 
L 315.974876 163.241892 
L 319.14843 162.992609 
L 319.78314 162.851505 
L 321.369917 162.734958 
L 328.986446 162.159504 
L 330.255868 162.054315 
L 330.890579 161.88617 
L 335.650909 161.257917 
L 336.28562 161.044644 
L 336.602975 160.598045 
L 336.920331 160.566009 
L 337.237686 160.189528 
L 337.555041 160.179262 
L 337.872397 159.995883 
L 338.189752 159.599937 
L 338.824463 159.480768 
L 339.141818 159.350741 
L 339.459174 158.274924 
L 340.093884 157.75161 
L 340.728595 157.607391 
L 341.04595 156.808714 
L 341.363306 156.570606 
L 341.998017 156.334959 
L 342.632727 155.578501 
L 343.584793 155.23361 
L 344.219504 155.064155 
L 344.854215 155.003896 
L 346.123636 154.626953 
L 360.087273 153.025564 
L 361.039339 152.633384 
L 361.991405 152.275165 
L 362.30876 151.762312 
L 362.626116 151.547015 
L 362.943471 149.987546 
L 363.260826 149.436867 
L 363.895537 149.083308 
L 364.212893 148.682715 
L 364.530248 148.624593 
L 364.847603 148.29966 
L 365.799669 147.736466 
L 366.117025 144.236626 
L 366.43438 144.14075 
L 366.751736 143.790106 
L 367.069091 143.712972 
L 367.386446 142.608168 
L 367.703802 142.089851 
L 368.021157 141.999985 
L 368.655868 141.534629 
L 369.290579 141.049649 
L 369.607934 140.501499 
L 370.56 140.391584 
L 371.512066 139.741049 
L 371.829421 139.704474 
L 372.146777 139.372046 
L 372.781488 139.274131 
L 374.050909 138.649817 
L 375.002975 138.547425 
L 375.637686 138.290422 
L 376.272397 138.122001 
L 378.176529 137.696877 
L 379.128595 137.379592 
L 380.080661 136.829962 
L 380.398017 136.726805 
L 380.715372 135.912775 
L 381.032727 135.411984 
L 381.350083 135.182684 
L 381.667438 133.998935 
L 381.984793 133.845303 
L 382.302149 133.252807 
L 382.93686 132.886036 
L 383.254215 132.435735 
L 383.888926 132.118303 
L 384.206281 131.254734 
L 384.523636 130.950915 
L 384.840992 130.245183 
L 385.158347 127.6578 
L 385.475702 127.450335 
L 385.793058 126.933451 
L 389.283967 126.084737 
L 389.601322 125.658198 
L 390.553388 125.394776 
L 390.870744 125.128466 
L 391.188099 125.111483 
L 391.505455 123.82385 
L 391.82281 119.007922 
L 392.140165 118.982441 
L 392.774876 115.998697 
L 393.092231 115.468965 
L 393.409587 113.177185 
L 393.726942 112.457583 
L 394.361653 112.212093 
L 394.996364 111.643278 
L 395.313719 111.634324 
L 395.631074 111.342686 
L 395.94843 110.805967 
L 396.265785 103.975021 
L 396.58314 100.350843 
L 396.900496 100.143453 
L 397.217851 99.659201 
L 397.535207 97.547739 
L 397.852562 86.899381 
L 398.169917 86.540916 
L 398.487273 73.555543 
L 398.487273 73.555543 
" clip-path="url(#pbe2448899e)" style="fill: none; stroke: #1f77b4; stroke-width: 1.5; stroke-linecap: square"/>
   </g>
   <g id="line2d_14">
    <path d="M 73.832727 275.586934 
L 74.150083 262.633324 
L 74.467438 262.633324 
L 74.784793 251.560626 
L 75.102149 249.260669 
L 75.73686 249.260669 
L 76.054215 245.117712 
L 76.37157 238.123826 
L 76.688926 237.694731 
L 77.006281 237.694731 
L 77.323636 236.612549 
L 78.910413 236.612549 
L 79.227769 232.666886 
L 79.545124 232.666886 
L 79.862479 231.23857 
L 80.179835 230.356135 
L 80.49719 230.356135 
L 80.814545 225.993087 
L 81.131901 223.939366 
L 82.083967 223.904053 
L 82.401322 222.68857 
L 86.844298 222.619558 
L 87.161653 221.954023 
L 87.479008 218.792439 
L 87.796364 218.093529 
L 88.113719 216.999023 
L 89.700496 216.999023 
L 90.017851 215.600568 
L 90.652562 215.600568 
L 90.969917 213.976055 
L 91.287273 213.976055 
L 91.604628 213.129811 
L 91.921983 210.95314 
L 99.221157 210.95314 
L 99.538512 209.656137 
L 99.855868 209.656137 
L 100.173223 209.349339 
L 101.76 209.349339 
L 102.077355 208.004959 
L 103.664132 208.004959 
L 103.981488 207.701716 
L 104.298843 207.177524 
L 104.933554 207.177524 
L 105.250909 205.333888 
L 106.202975 205.240973 
L 106.520331 201.080189 
L 107.155041 200.669074 
L 107.472397 200.669074 
L 107.789752 199.710965 
L 109.376529 199.710965 
L 109.693884 197.608233 
L 110.01124 197.608233 
L 110.328595 195.285373 
L 129.369917 195.285277 
L 129.687273 193.965276 
L 130.321983 192.723802 
L 131.27405 192.64465 
L 131.591405 191.564828 
L 131.90876 191.564828 
L 132.226116 191.318125 
L 132.860826 191.318125 
L 133.178182 189.239394 
L 133.495537 189.239394 
L 133.812893 188.80411 
L 135.399669 188.80411 
L 135.717025 187.031408 
L 136.03438 186.792369 
L 136.351736 186.392126 
L 136.986446 186.291213 
L 163.009587 186.291213 
L 163.326942 184.451376 
L 167.135207 184.451376 
L 167.452562 184.115137 
L 167.769917 184.115137 
L 168.087273 181.8381 
L 168.404628 181.8381 
L 168.721983 181.230317 
L 169.356694 181.230317 
L 169.67405 180.838105 
L 169.991405 179.898687 
L 171.578182 179.898687 
L 172.212893 179.23633 
L 172.530248 179.23633 
L 172.847603 178.955328 
L 180.146777 178.955328 
L 180.464132 178.471651 
L 180.781488 178.471651 
L 181.098843 177.997219 
L 182.68562 177.997219 
L 183.320331 173.571531 
L 185.541818 173.532163 
L 185.859174 173.27503 
L 186.493884 173.27503 
L 186.81124 172.886638 
L 187.128595 171.913352 
L 187.44595 171.913352 
L 187.763306 171.254157 
L 188.080661 171.254157 
L 188.398017 168.502187 
L 188.715372 164.577467 
L 283.604628 164.577467 
L 284.239339 157.900778 
L 284.556694 157.900778 
L 284.87405 157.241582 
L 285.191405 157.241582 
L 285.50876 156.268296 
L 285.826116 155.879904 
L 286.460826 155.879904 
L 286.778182 155.622771 
L 288.999669 155.583403 
L 289.63438 151.157715 
L 291.221157 151.157715 
L 291.538512 150.683283 
L 291.855868 150.683283 
L 292.173223 150.199606 
L 299.472397 150.199606 
L 299.789752 149.918604 
L 300.107107 149.918604 
L 300.741818 149.256247 
L 302.328595 149.256247 
L 302.64595 148.31683 
L 302.963306 147.924617 
L 303.598017 147.924617 
L 303.915372 147.316834 
L 304.232727 147.316834 
L 304.550083 145.039797 
L 304.867438 145.039797 
L 305.184793 144.703558 
L 308.993058 144.703558 
L 309.310413 142.863721 
L 335.968264 142.762808 
L 336.602975 142.123526 
L 336.920331 140.350824 
L 338.507107 140.350824 
L 338.824463 139.91554 
L 339.141818 139.91554 
L 339.459174 137.836809 
L 340.093884 137.836809 
L 340.41124 137.590106 
L 340.728595 137.590106 
L 341.04595 136.510284 
L 341.680661 136.431133 
L 341.998017 136.431133 
L 342.315372 135.950623 
L 342.632727 135.189659 
L 342.950083 133.869657 
L 361.991405 133.869561 
L 362.30876 131.546702 
L 362.626116 131.546702 
L 362.943471 129.443969 
L 364.530248 129.443969 
L 364.847603 128.48586 
L 365.164959 128.48586 
L 365.799669 128.074746 
L 366.117025 123.913962 
L 367.069091 123.821046 
L 367.386446 121.97741 
L 368.021157 121.97741 
L 368.338512 121.453218 
L 368.655868 121.149975 
L 370.242645 121.149975 
L 370.56 119.805595 
L 372.146777 119.805595 
L 372.464132 119.498798 
L 372.781488 119.498798 
L 373.098843 118.201794 
L 380.398017 118.201794 
L 380.715372 116.025123 
L 381.032727 115.178879 
L 381.350083 115.178879 
L 381.667438 113.554366 
L 382.302149 113.554366 
L 382.619504 112.155911 
L 384.206281 112.155911 
L 384.840992 110.362495 
L 385.158347 107.200911 
L 385.475702 106.535376 
L 389.918678 106.466365 
L 390.236033 105.250881 
L 391.188099 105.215569 
L 391.505455 103.161847 
L 391.82281 98.798799 
L 392.140165 98.798799 
L 392.457521 97.916365 
L 392.774876 96.488048 
L 393.092231 96.488048 
L 393.409587 92.542386 
L 394.996364 92.542386 
L 395.313719 91.460203 
L 395.631074 91.460203 
L 395.94843 91.031108 
L 396.265785 84.037222 
L 396.58314 79.894265 
L 397.217851 79.894265 
L 397.535207 77.594308 
L 397.852562 66.52161 
L 398.169917 66.52161 
L 398.487273 53.568 
L 398.487273 53.568 
" clip-path="url(#pbe2448899e)" style="fill: none; stroke: #ff7f0e; stroke-width: 1.5; stroke-linecap: square"/>
   </g>
   <g id="patch_3">
    <path d="M 57.6 307.584 
L 57.6 41.472 
" style="fill: none; stroke: #000000; stroke-width: 0.8; stroke-linejoin: miter; stroke-linecap: square"/>
   </g>
   <g id="patch_4">
    <path d="M 414.72 307.584 
L 414.72 41.472 
" style="fill: none; stroke: #000000; stroke-width: 0.8; stroke-linejoin: miter; stroke-linecap: square"/>
   </g>
   <g id="patch_5">
    <path d="M 57.6 307.584 
L 414.72 307.584 
" style="fill: none; stroke: #000000; stroke-width: 0.8; stroke-linejoin: miter; stroke-linecap: square"/>
   </g>
   <g id="patch_6">
    <path d="M 57.6 41.472 
L 414.72 41.472 
" style="fill: none; stroke: #000000; stroke-width: 0.8; stroke-linejoin: miter; stroke-linecap: square"/>
   </g>
   <g id="legend_1">
    <g id="patch_7">
     <path d="M 64.6 78.82825 
L 129.342187 78.82825 
Q 131.342187 78.82825 131.342187 76.82825 
L 131.342187 48.472 
Q 131.342187 46.472 129.342187 46.472 
L 64.6 46.472 
Q 62.6 46.472 62.6 48.472 
L 62.6 76.82825 
Q 62.6 78.82825 64.6 78.82825 
z
" style="fill: #ffffff; opacity: 0.8; stroke: #cccccc; stroke-linejoin: miter"/>
    </g>
    <g id="line2d_15">
     <path d="M 66.6 54.570437 
L 76.6 54.570437 
L 86.6 54.570437 
" style="fill: none; stroke: #1f77b4; stroke-width: 1.5; stroke-linecap: square"/>
    </g>
    <g id="text_15">
     <!-- qc -->
     <g transform="translate(94.6 58.070437) scale(0.1 -0.1)">
      <defs>
       <path id="DejaVuSans-71" d="M 947 1747 
Q 947 1113 1208 752 
Q 1469 391 1925 391 
Q 2381 391 2643 752 
Q 2906 1113 2906 1747 
Q 2906 2381 2643 2742 
Q 2381 3103 1925 3103 
Q 1469 3103 1208 2742 
Q 947 2381 947 1747 
z
M 2906 525 
Q 2725 213 2448 61 
Q 2172 -91 1784 -91 
Q 1150 -91 751 415 
Q 353 922 353 1747 
Q 353 2572 751 3078 
Q 1150 3584 1784 3584 
Q 2172 3584 2448 3432 
Q 2725 3281 2906 2969 
L 2906 3500 
L 3481 3500 
L 3481 -1331 
L 2906 -1331 
L 2906 525 
z
" transform="scale(0.015625)"/>
       <path id="DejaVuSans-63" d="M 3122 3366 
L 3122 2828 
Q 2878 2963 2633 3030 
Q 2388 3097 2138 3097 
Q 1578 3097 1268 2742 
Q 959 2388 959 1747 
Q 959 1106 1268 751 
Q 1578 397 2138 397 
Q 2388 397 2633 464 
Q 2878 531 3122 666 
L 3122 134 
Q 2881 22 2623 -34 
Q 2366 -91 2075 -91 
Q 1284 -91 818 406 
Q 353 903 353 1747 
Q 353 2603 823 3093 
Q 1294 3584 2113 3584 
Q 2378 3584 2631 3529 
Q 2884 3475 3122 3366 
z
" transform="scale(0.015625)"/>
      </defs>
      <use xlink:href="#DejaVuSans-71"/>
      <use xlink:href="#DejaVuSans-63" x="63.476562"/>
     </g>
    </g>
    <g id="line2d_16">
     <path d="M 66.6 69.248562 
L 76.6 69.248562 
L 86.6 69.248562 
" style="fill: none; stroke: #ff7f0e; stroke-width: 1.5; stroke-linecap: square"/>
    </g>
    <g id="text_16">
     <!-- Trotter -->
     <g transform="translate(94.6 72.748562) scale(0.1 -0.1)">
      <defs>
       <path id="DejaVuSans-54" d="M -19 4666 
L 3928 4666 
L 3928 4134 
L 2272 4134 
L 2272 0 
L 1638 0 
L 1638 4134 
L -19 4134 
L -19 4666 
z
" transform="scale(0.015625)"/>
       <path id="DejaVuSans-72" d="M 2631 2963 
Q 2534 3019 2420 3045 
Q 2306 3072 2169 3072 
Q 1681 3072 1420 2755 
Q 1159 2438 1159 1844 
L 1159 0 
L 581 0 
L 581 3500 
L 1159 3500 
L 1159 2956 
Q 1341 3275 1631 3429 
Q 1922 3584 2338 3584 
Q 2397 3584 2469 3576 
Q 2541 3569 2628 3553 
L 2631 2963 
z
" transform="scale(0.015625)"/>
       <path id="DejaVuSans-6f" d="M 1959 3097 
Q 1497 3097 1228 2736 
Q 959 2375 959 1747 
Q 959 1119 1226 758 
Q 1494 397 1959 397 
Q 2419 397 2687 759 
Q 2956 1122 2956 1747 
Q 2956 2369 2687 2733 
Q 2419 3097 1959 3097 
z
M 1959 3584 
Q 2709 3584 3137 3096 
Q 3566 2609 3566 1747 
Q 3566 888 3137 398 
Q 2709 -91 1959 -91 
Q 1206 -91 779 398 
Q 353 888 353 1747 
Q 353 2609 779 3096 
Q 1206 3584 1959 3584 
z
" transform="scale(0.015625)"/>
       <path id="DejaVuSans-65" d="M 3597 1894 
L 3597 1613 
L 953 1613 
Q 991 1019 1311 708 
Q 1631 397 2203 397 
Q 2534 397 2845 478 
Q 3156 559 3463 722 
L 3463 178 
Q 3153 47 2828 -22 
Q 2503 -91 2169 -91 
Q 1331 -91 842 396 
Q 353 884 353 1716 
Q 353 2575 817 3079 
Q 1281 3584 2069 3584 
Q 2775 3584 3186 3129 
Q 3597 2675 3597 1894 
z
M 3022 2063 
Q 3016 2534 2758 2815 
Q 2500 3097 2075 3097 
Q 1594 3097 1305 2825 
Q 1016 2553 972 2059 
L 3022 2063 
z
" transform="scale(0.015625)"/>
      </defs>
      <use xlink:href="#DejaVuSans-54"/>
      <use xlink:href="#DejaVuSans-72" x="46.333984"/>
      <use xlink:href="#DejaVuSans-6f" x="85.197266"/>
      <use xlink:href="#DejaVuSans-74" x="146.378906"/>
      <use xlink:href="#DejaVuSans-74" x="185.587891"/>
      <use xlink:href="#DejaVuSans-65" x="224.796875"/>
      <use xlink:href="#DejaVuSans-72" x="286.320312"/>
     </g>
    </g>
   </g>
  </g>
 </g>
 <defs>
  <clipPath id="pbe2448899e">
   <rect x="57.6" y="41.472" width="357.12" height="266.112"/>
  </clipPath>
 </defs>
</svg>
