<?xml version="1.0" encoding="utf-8" standalone="no"?>
<!DOCTYPE svg PUBLIC "-//W3C//DTD SVG 1.1//EN"
  "http://www.w3.org/Graphics/SVG/1.1/DTD/svg11.dtd">
<svg xmlns:xlink="http://www.w3.org/1999/xlink" width="460.8pt" height="345.6pt" viewBox="0 0 460.8 345.6" xmlns="http://www.w3.org/2000/svg" version="1.1">
 <metadata>
  <rdf:RDF xmlns:dc="http://purl.org/dc/elements/1.1/" xmlns:cc="http://creativecommons.org/ns#" xmlns:rdf="http://www.w3.org/1999/02/22-rdf-syntax-ns#">
   <cc:Work>
    <dc:type rdf:resource="http://purl.org/dc/dcmitype/StillImage"/>
    <dc:date>2024-08-23T11:20:47.166980</dc:date>
    <dc:format>image/svg+xml</dc:format>
    <dc:creator>
     <cc:Agent>
      <dc:title>Matplotlib v3.7.1, https://matplotlib.org/</dc:title>
     </cc:Agent>
    </dc:creator>
   </cc:Work>
  </rdf:RDF>
 </metadata>
 <defs>
  <style type="text/css">*{stroke-linejoin: round; stroke-linecap: butt}</style>
 </defs>
 <g id="figure_1">
  <g id="patch_1">
   <path d="M 0 345.6 
L 460.8 345.6 
L 460.8 0 
L 0 0 
z
" style="fill: #ffffff"/>
  </g>
  <g id="axes_1">
   <g id="patch_2">
    <path d="M 57.6 307.584 
L 414.72 307.584 
L 414.72 41.472 
L 57.6 41.472 
z
" style="fill: #ffffff"/>
   </g>
   <g id="matplotlib.axis_1">
    <g id="xtick_1">
     <g id="line2d_1">
      <defs>
       <path id="me487b93890" d="M 0 0 
L 0 3.5 
" style="stroke: #000000; stroke-width: 0.8"/>
      </defs>
      <g>
       <use xlink:href="#me487b93890" x="73.832727" y="307.584" style="stroke: #000000; stroke-width: 0.8"/>
      </g>
     </g>
     <g id="text_1">
      <!-- 0 -->
      <g transform="translate(70.651477 322.182437) scale(0.1 -0.1)">
       <defs>
        <path id="DejaVuSans-30" d="M 2034 4250 
Q 1547 4250 1301 3770 
Q 1056 3291 1056 2328 
Q 1056 1369 1301 889 
Q 1547 409 2034 409 
Q 2525 409 2770 889 
Q 3016 1369 3016 2328 
Q 3016 3291 2770 3770 
Q 2525 4250 2034 4250 
z
M 2034 4750 
Q 2819 4750 3233 4129 
Q 3647 3509 3647 2328 
Q 3647 1150 3233 529 
Q 2819 -91 2034 -91 
Q 1250 -91 836 529 
Q 422 1150 422 2328 
Q 422 3509 836 4129 
Q 1250 4750 2034 4750 
z
" transform="scale(0.015625)"/>
       </defs>
       <use xlink:href="#DejaVuSans-30"/>
      </g>
     </g>
    </g>
    <g id="xtick_2">
     <g id="line2d_2">
      <g>
       <use xlink:href="#me487b93890" x="137.303802" y="307.584" style="stroke: #000000; stroke-width: 0.8"/>
      </g>
     </g>
     <g id="text_2">
      <!-- 200 -->
      <g transform="translate(127.760052 322.182437) scale(0.1 -0.1)">
       <defs>
        <path id="DejaVuSans-32" d="M 1228 531 
L 3431 531 
L 3431 0 
L 469 0 
L 469 531 
Q 828 903 1448 1529 
Q 2069 2156 2228 2338 
Q 2531 2678 2651 2914 
Q 2772 3150 2772 3378 
Q 2772 3750 2511 3984 
Q 2250 4219 1831 4219 
Q 1534 4219 1204 4116 
Q 875 4013 500 3803 
L 500 4441 
Q 881 4594 1212 4672 
Q 1544 4750 1819 4750 
Q 2544 4750 2975 4387 
Q 3406 4025 3406 3419 
Q 3406 3131 3298 2873 
Q 3191 2616 2906 2266 
Q 2828 2175 2409 1742 
Q 1991 1309 1228 531 
z
" transform="scale(0.015625)"/>
       </defs>
       <use xlink:href="#DejaVuSans-32"/>
       <use xlink:href="#DejaVuSans-30" x="63.623047"/>
       <use xlink:href="#DejaVuSans-30" x="127.246094"/>
      </g>
     </g>
    </g>
    <g id="xtick_3">
     <g id="line2d_3">
      <g>
       <use xlink:href="#me487b93890" x="200.774876" y="307.584" style="stroke: #000000; stroke-width: 0.8"/>
      </g>
     </g>
     <g id="text_3">
      <!-- 400 -->
      <g transform="translate(191.231126 322.182437) scale(0.1 -0.1)">
       <defs>
        <path id="DejaVuSans-34" d="M 2419 4116 
L 825 1625 
L 2419 1625 
L 2419 4116 
z
M 2253 4666 
L 3047 4666 
L 3047 1625 
L 3713 1625 
L 3713 1100 
L 3047 1100 
L 3047 0 
L 2419 0 
L 2419 1100 
L 313 1100 
L 313 1709 
L 2253 4666 
z
" transform="scale(0.015625)"/>
       </defs>
       <use xlink:href="#DejaVuSans-34"/>
       <use xlink:href="#DejaVuSans-30" x="63.623047"/>
       <use xlink:href="#DejaVuSans-30" x="127.246094"/>
      </g>
     </g>
    </g>
    <g id="xtick_4">
     <g id="line2d_4">
      <g>
       <use xlink:href="#me487b93890" x="264.24595" y="307.584" style="stroke: #000000; stroke-width: 0.8"/>
      </g>
     </g>
     <g id="text_4">
      <!-- 600 -->
      <g transform="translate(254.7022 322.182437) scale(0.1 -0.1)">
       <defs>
        <path id="DejaVuSans-36" d="M 2113 2584 
Q 1688 2584 1439 2293 
Q 1191 2003 1191 1497 
Q 1191 994 1439 701 
Q 1688 409 2113 409 
Q 2538 409 2786 701 
Q 3034 994 3034 1497 
Q 3034 2003 2786 2293 
Q 2538 2584 2113 2584 
z
M 3366 4563 
L 3366 3988 
Q 3128 4100 2886 4159 
Q 2644 4219 2406 4219 
Q 1781 4219 1451 3797 
Q 1122 3375 1075 2522 
Q 1259 2794 1537 2939 
Q 1816 3084 2150 3084 
Q 2853 3084 3261 2657 
Q 3669 2231 3669 1497 
Q 3669 778 3244 343 
Q 2819 -91 2113 -91 
Q 1303 -91 875 529 
Q 447 1150 447 2328 
Q 447 3434 972 4092 
Q 1497 4750 2381 4750 
Q 2619 4750 2861 4703 
Q 3103 4656 3366 4563 
z
" transform="scale(0.015625)"/>
       </defs>
       <use xlink:href="#DejaVuSans-36"/>
       <use xlink:href="#DejaVuSans-30" x="63.623047"/>
       <use xlink:href="#DejaVuSans-30" x="127.246094"/>
      </g>
     </g>
    </g>
    <g id="xtick_5">
     <g id="line2d_5">
      <g>
       <use xlink:href="#me487b93890" x="327.717025" y="307.584" style="stroke: #000000; stroke-width: 0.8"/>
      </g>
     </g>
     <g id="text_5">
      <!-- 800 -->
      <g transform="translate(318.173275 322.182437) scale(0.1 -0.1)">
       <defs>
        <path id="DejaVuSans-38" d="M 2034 2216 
Q 1584 2216 1326 1975 
Q 1069 1734 1069 1313 
Q 1069 891 1326 650 
Q 1584 409 2034 409 
Q 2484 409 2743 651 
Q 3003 894 3003 1313 
Q 3003 1734 2745 1975 
Q 2488 2216 2034 2216 
z
M 1403 2484 
Q 997 2584 770 2862 
Q 544 3141 544 3541 
Q 544 4100 942 4425 
Q 1341 4750 2034 4750 
Q 2731 4750 3128 4425 
Q 3525 4100 3525 3541 
Q 3525 3141 3298 2862 
Q 3072 2584 2669 2484 
Q 3125 2378 3379 2068 
Q 3634 1759 3634 1313 
Q 3634 634 3220 271 
Q 2806 -91 2034 -91 
Q 1263 -91 848 271 
Q 434 634 434 1313 
Q 434 1759 690 2068 
Q 947 2378 1403 2484 
z
M 1172 3481 
Q 1172 3119 1398 2916 
Q 1625 2713 2034 2713 
Q 2441 2713 2670 2916 
Q 2900 3119 2900 3481 
Q 2900 3844 2670 4047 
Q 2441 4250 2034 4250 
Q 1625 4250 1398 4047 
Q 1172 3844 1172 3481 
z
" transform="scale(0.015625)"/>
       </defs>
       <use xlink:href="#DejaVuSans-38"/>
       <use xlink:href="#DejaVuSans-30" x="63.623047"/>
       <use xlink:href="#DejaVuSans-30" x="127.246094"/>
      </g>
     </g>
    </g>
    <g id="xtick_6">
     <g id="line2d_6">
      <g>
       <use xlink:href="#me487b93890" x="391.188099" y="307.584" style="stroke: #000000; stroke-width: 0.8"/>
      </g>
     </g>
     <g id="text_6">
      <!-- 1000 -->
      <g transform="translate(378.463099 322.182437) scale(0.1 -0.1)">
       <defs>
        <path id="DejaVuSans-31" d="M 794 531 
L 1825 531 
L 1825 4091 
L 703 3866 
L 703 4441 
L 1819 4666 
L 2450 4666 
L 2450 531 
L 3481 531 
L 3481 0 
L 794 0 
L 794 531 
z
" transform="scale(0.015625)"/>
       </defs>
       <use xlink:href="#DejaVuSans-31"/>
       <use xlink:href="#DejaVuSans-30" x="63.623047"/>
       <use xlink:href="#DejaVuSans-30" x="127.246094"/>
       <use xlink:href="#DejaVuSans-30" x="190.869141"/>
      </g>
     </g>
    </g>
    <g id="text_7">
     <!-- n -->
     <g transform="translate(232.99125 335.860562) scale(0.1 -0.1)">
      <defs>
       <path id="DejaVuSans-6e" d="M 3513 2113 
L 3513 0 
L 2938 0 
L 2938 2094 
Q 2938 2591 2744 2837 
Q 2550 3084 2163 3084 
Q 1697 3084 1428 2787 
Q 1159 2491 1159 1978 
L 1159 0 
L 581 0 
L 581 3500 
L 1159 3500 
L 1159 2956 
Q 1366 3272 1645 3428 
Q 1925 3584 2291 3584 
Q 2894 3584 3203 3211 
Q 3513 2838 3513 2113 
z
" transform="scale(0.015625)"/>
      </defs>
      <use xlink:href="#DejaVuSans-6e"/>
     </g>
    </g>
   </g>
   <g id="matplotlib.axis_2">
    <g id="ytick_1">
     <g id="line2d_7">
      <defs>
       <path id="m2f546cb5c5" d="M 0 0 
L -3.5 0 
" style="stroke: #000000; stroke-width: 0.8"/>
      </defs>
      <g>
       <use xlink:href="#m2f546cb5c5" x="57.6" y="279.26319" style="stroke: #000000; stroke-width: 0.8"/>
      </g>
     </g>
     <g id="text_8">
      <!-- −6 -->
      <g transform="translate(35.857813 283.062409) scale(0.1 -0.1)">
       <defs>
        <path id="DejaVuSans-2212" d="M 678 2272 
L 4684 2272 
L 4684 1741 
L 678 1741 
L 678 2272 
z
" transform="scale(0.015625)"/>
       </defs>
       <use xlink:href="#DejaVuSans-2212"/>
       <use xlink:href="#DejaVuSans-36" x="83.789062"/>
      </g>
     </g>
    </g>
    <g id="ytick_2">
     <g id="line2d_8">
      <g>
       <use xlink:href="#m2f546cb5c5" x="57.6" y="239.904429" style="stroke: #000000; stroke-width: 0.8"/>
      </g>
     </g>
     <g id="text_9">
      <!-- −4 -->
      <g transform="translate(35.857813 243.703648) scale(0.1 -0.1)">
       <use xlink:href="#DejaVuSans-2212"/>
       <use xlink:href="#DejaVuSans-34" x="83.789062"/>
      </g>
     </g>
    </g>
    <g id="ytick_3">
     <g id="line2d_9">
      <g>
       <use xlink:href="#m2f546cb5c5" x="57.6" y="200.545668" style="stroke: #000000; stroke-width: 0.8"/>
      </g>
     </g>
     <g id="text_10">
      <!-- −2 -->
      <g transform="translate(35.857813 204.344887) scale(0.1 -0.1)">
       <use xlink:href="#DejaVuSans-2212"/>
       <use xlink:href="#DejaVuSans-32" x="83.789062"/>
      </g>
     </g>
    </g>
    <g id="ytick_4">
     <g id="line2d_10">
      <g>
       <use xlink:href="#m2f546cb5c5" x="57.6" y="161.186907" style="stroke: #000000; stroke-width: 0.8"/>
      </g>
     </g>
     <g id="text_11">
      <!-- 0 -->
      <g transform="translate(44.2375 164.986126) scale(0.1 -0.1)">
       <use xlink:href="#DejaVuSans-30"/>
      </g>
     </g>
    </g>
    <g id="ytick_5">
     <g id="line2d_11">
      <g>
       <use xlink:href="#m2f546cb5c5" x="57.6" y="121.828146" style="stroke: #000000; stroke-width: 0.8"/>
      </g>
     </g>
     <g id="text_12">
      <!-- 2 -->
      <g transform="translate(44.2375 125.627365) scale(0.1 -0.1)">
       <use xlink:href="#DejaVuSans-32"/>
      </g>
     </g>
    </g>
    <g id="ytick_6">
     <g id="line2d_12">
      <g>
       <use xlink:href="#m2f546cb5c5" x="57.6" y="82.469385" style="stroke: #000000; stroke-width: 0.8"/>
      </g>
     </g>
     <g id="text_13">
      <!-- 4 -->
      <g transform="translate(44.2375 86.268603) scale(0.1 -0.1)">
       <use xlink:href="#DejaVuSans-34"/>
      </g>
     </g>
    </g>
    <g id="ytick_7">
     <g id="line2d_13">
      <g>
       <use xlink:href="#m2f546cb5c5" x="57.6" y="43.110624" style="stroke: #000000; stroke-width: 0.8"/>
      </g>
     </g>
     <g id="text_14">
      <!-- 6 -->
      <g transform="translate(44.2375 46.909842) scale(0.1 -0.1)">
       <use xlink:href="#DejaVuSans-36"/>
      </g>
     </g>
    </g>
    <g id="text_15">
     <!-- E*t -->
     <g transform="translate(29.778125 182.147531) rotate(-90) scale(0.1 -0.1)">
      <defs>
       <path id="DejaVuSans-45" d="M 628 4666 
L 3578 4666 
L 3578 4134 
L 1259 4134 
L 1259 2753 
L 3481 2753 
L 3481 2222 
L 1259 2222 
L 1259 531 
L 3634 531 
L 3634 0 
L 628 0 
L 628 4666 
z
" transform="scale(0.015625)"/>
       <path id="DejaVuSans-2a" d="M 3009 3897 
L 1888 3291 
L 3009 2681 
L 2828 2375 
L 1778 3009 
L 1778 1831 
L 1422 1831 
L 1422 3009 
L 372 2375 
L 191 2681 
L 1313 3291 
L 191 3897 
L 372 4206 
L 1422 3572 
L 1422 4750 
L 1778 4750 
L 1778 3572 
L 2828 4206 
L 3009 3897 
z
" transform="scale(0.015625)"/>
       <path id="DejaVuSans-74" d="M 1172 4494 
L 1172 3500 
L 2356 3500 
L 2356 3053 
L 1172 3053 
L 1172 1153 
Q 1172 725 1289 603 
Q 1406 481 1766 481 
L 2356 481 
L 2356 0 
L 1766 0 
Q 1100 0 847 248 
Q 594 497 594 1153 
L 594 3053 
L 172 3053 
L 172 3500 
L 594 3500 
L 594 4494 
L 1172 4494 
z
" transform="scale(0.015625)"/>
      </defs>
      <use xlink:href="#DejaVuSans-45"/>
      <use xlink:href="#DejaVuSans-2a" x="63.183594"/>
      <use xlink:href="#DejaVuSans-74" x="113.183594"/>
     </g>
    </g>
   </g>
   <g id="line2d_14">
    <path d="M 73.832727 295.488 
L 74.467438 286.747233 
L 74.784793 283.698089 
L 75.419504 281.137161 
L 75.73686 276.901516 
L 76.054215 275.225272 
L 76.37157 274.960681 
L 76.688926 272.397778 
L 77.006281 272.143247 
L 77.323636 270.659942 
L 77.958347 265.920201 
L 78.275702 265.603513 
L 78.593058 263.453959 
L 79.227769 263.240413 
L 79.545124 261.736411 
L 79.862479 261.473924 
L 80.49719 260.451521 
L 80.814545 259.171355 
L 81.131901 257.377557 
L 81.449256 257.01485 
L 82.083967 256.65312 
L 82.401322 256.189281 
L 83.036033 254.529819 
L 83.353388 254.104028 
L 83.670744 253.152162 
L 83.988099 253.022656 
L 84.305455 251.893802 
L 84.62281 251.566394 
L 84.940165 251.426544 
L 85.257521 251.022747 
L 85.574876 250.301763 
L 85.892231 250.102304 
L 86.526942 249.299391 
L 87.479008 247.563468 
L 88.113719 247.369455 
L 88.431074 246.331455 
L 89.065785 245.760294 
L 89.38314 245.331335 
L 89.700496 245.279665 
L 90.017851 245.055336 
L 90.335207 244.453019 
L 90.652562 244.17335 
L 91.604628 242.72108 
L 91.921983 242.596456 
L 92.239339 242.290373 
L 92.556694 241.697057 
L 93.191405 241.423075 
L 93.50876 241.096449 
L 93.826116 240.199775 
L 94.460826 239.423455 
L 95.095537 238.841437 
L 95.730248 238.356646 
L 96.047603 237.871621 
L 96.682314 237.307036 
L 96.999669 236.901656 
L 97.317025 236.846221 
L 98.269091 235.984992 
L 98.586446 235.234781 
L 98.903802 235.103932 
L 99.221157 234.476918 
L 100.173223 233.702541 
L 101.125289 233.328809 
L 101.442645 232.756912 
L 101.76 232.714137 
L 102.394711 231.83295 
L 104.298843 230.467078 
L 104.933554 230.141812 
L 105.88562 229.409038 
L 106.202975 229.240581 
L 106.520331 228.859988 
L 106.837686 228.287844 
L 108.424463 227.355391 
L 108.741818 227.252086 
L 109.376529 226.384306 
L 110.963306 225.490077 
L 111.280661 225.403722 
L 111.598017 224.956889 
L 111.915372 224.794325 
L 112.867438 223.699471 
L 113.502149 223.461996 
L 114.454215 222.895173 
L 118.89719 220.325569 
L 119.214545 220.280234 
L 119.531901 220.089003 
L 120.166612 219.468372 
L 121.753388 218.678752 
L 122.388099 218.359395 
L 122.705455 218.190474 
L 123.02281 217.784969 
L 124.292231 217.077159 
L 124.926942 216.685733 
L 126.831074 215.563752 
L 127.465785 215.327115 
L 128.735207 214.596219 
L 129.369917 214.288231 
L 130.321983 213.801815 
L 130.956694 213.603379 
L 132.543471 212.842918 
L 132.860826 212.763645 
L 133.178182 212.444529 
L 133.812893 212.099594 
L 134.764959 211.394433 
L 135.717025 211.070928 
L 136.669091 210.587516 
L 136.986446 210.527857 
L 139.525289 209.075772 
L 140.477355 208.73576 
L 141.112066 208.327504 
L 142.381488 207.768634 
L 143.016198 207.444621 
L 144.920331 206.667773 
L 148.728595 204.795449 
L 149.998017 204.309129 
L 150.315372 204.084928 
L 150.632727 204.035784 
L 150.950083 203.841676 
L 151.584793 203.635449 
L 151.902149 203.510286 
L 152.53686 203.091025 
L 152.854215 203.055616 
L 153.488926 202.771406 
L 159.201322 200.193773 
L 159.518678 199.95077 
L 160.470744 199.625477 
L 161.105455 199.318755 
L 163.009587 198.702261 
L 163.644298 198.387545 
L 164.279008 198.153225 
L 165.54843 197.709342 
L 166.817851 197.061911 
L 170.30876 195.676906 
L 170.943471 195.454824 
L 171.260826 195.227351 
L 171.578182 195.138018 
L 171.895537 194.924848 
L 172.530248 194.796991 
L 173.164959 194.568614 
L 182.050909 191.199575 
L 183.002975 190.903061 
L 183.320331 190.683411 
L 183.955041 190.580736 
L 184.907107 190.026273 
L 185.224463 189.982301 
L 185.541818 189.748131 
L 186.81124 189.321705 
L 187.44595 189.05767 
L 187.763306 189.035663 
L 188.715372 188.597329 
L 190.302149 188.1233 
L 203.631074 183.451777 
L 203.94843 183.404908 
L 204.58314 183.119304 
L 204.900496 182.939121 
L 205.217851 182.910205 
L 206.169917 182.545182 
L 209.343471 181.427812 
L 209.660826 181.396435 
L 209.978182 181.161803 
L 210.612893 181.063393 
L 210.930248 180.829074 
L 213.786446 179.995451 
L 215.055868 179.466826 
L 218.229421 178.316794 
L 220.133554 177.689306 
L 226.798017 175.462286 
L 227.432727 175.147985 
L 228.384793 174.93094 
L 229.33686 174.492166 
L 232.827769 173.364756 
L 233.462479 173.136317 
L 234.414545 172.897393 
L 236.001322 172.463479 
L 236.318678 172.239074 
L 237.905455 171.820315 
L 238.857521 171.434503 
L 244.252562 169.80379 
L 245.521983 169.452391 
L 245.839339 169.409627 
L 246.156694 169.187468 
L 247.426116 168.877842 
L 248.060826 168.57093 
L 248.378182 168.530028 
L 248.695537 168.315734 
L 249.647603 168.068676 
L 249.964959 167.844576 
L 251.23438 167.558752 
L 251.869091 167.273094 
L 253.455868 166.768864 
L 254.090579 166.513453 
L 254.725289 166.340604 
L 263.293884 163.528478 
L 263.928595 163.344062 
L 264.24595 163.190029 
L 264.880661 163.077193 
L 265.832727 162.641562 
L 268.688926 161.791016 
L 269.323636 161.516316 
L 270.593058 161.167136 
L 274.401322 159.801604 
L 275.670744 159.464847 
L 276.62281 159.015234 
L 279.161653 158.116212 
L 279.796364 157.89882 
L 280.431074 157.684847 
L 284.239339 156.359039 
L 285.191405 156.091063 
L 285.50876 155.907712 
L 285.826116 155.865906 
L 286.143471 155.680054 
L 286.778182 155.510218 
L 289.63438 154.513826 
L 290.269091 154.317406 
L 292.807934 153.532885 
L 293.76 153.124706 
L 294.712066 152.867974 
L 295.981488 152.346711 
L 296.298843 152.311349 
L 296.616198 152.10876 
L 296.933554 152.039311 
L 297.250909 151.805473 
L 297.88562 151.665652 
L 298.520331 151.379155 
L 299.155041 151.194189 
L 299.472397 150.897684 
L 300.424463 150.714309 
L 308.675702 147.534149 
L 313.118678 145.961424 
L 313.753388 145.768836 
L 315.02281 145.29677 
L 315.657521 144.892751 
L 317.244298 144.400401 
L 322.004628 142.337765 
L 322.639339 142.176623 
L 323.27405 141.931876 
L 323.591405 141.848528 
L 323.90876 141.506426 
L 325.178182 140.914396 
L 325.812893 140.66261 
L 326.764959 140.148539 
L 328.03438 139.779609 
L 328.986446 139.261026 
L 331.525289 138.14843 
L 332.477355 137.921543 
L 333.746777 137.283046 
L 334.381488 137.074316 
L 334.698843 136.787204 
L 335.968264 136.35352 
L 336.28562 136.192553 
L 336.602975 136.16627 
L 337.555041 135.77929 
L 337.872397 135.677076 
L 338.189752 135.421697 
L 339.141818 135.063632 
L 342.632727 133.45121 
L 343.267438 133.099851 
L 343.584793 132.880303 
L 344.219504 132.689831 
L 349.931901 129.578839 
L 350.249256 129.132252 
L 351.518678 128.626561 
L 353.105455 127.786256 
L 353.42281 127.717438 
L 354.057521 127.249392 
L 354.692231 126.998303 
L 356.279008 126.218047 
L 357.231074 125.459315 
L 360.087273 124.017585 
L 360.404628 123.565937 
L 360.721983 123.312224 
L 361.039339 123.220174 
L 361.67405 122.741944 
L 362.30876 122.320521 
L 362.626116 122.212997 
L 363.578182 121.562366 
L 363.895537 121.472066 
L 364.212893 121.205972 
L 364.847603 120.949545 
L 365.164959 120.593849 
L 365.799669 120.237382 
L 366.43438 119.552378 
L 367.386446 118.929052 
L 367.703802 118.631564 
L 368.021157 118.545348 
L 368.338512 118.102839 
L 369.607934 117.573146 
L 370.242645 117.145541 
L 371.194711 116.596343 
L 371.512066 116.087295 
L 372.146777 115.823639 
L 372.781488 115.155517 
L 373.733554 114.705707 
L 375.002975 113.542262 
L 375.320331 113.271235 
L 375.637686 112.759155 
L 376.272397 112.37913 
L 376.907107 111.817048 
L 377.224463 111.19773 
L 378.176529 110.478532 
L 378.81124 109.642675 
L 379.128595 109.572453 
L 379.763306 109.024666 
L 380.080661 108.368694 
L 380.398017 108.324711 
L 381.032727 108.054655 
L 381.350083 107.657346 
L 381.667438 107.50418 
L 382.93686 105.852161 
L 383.254215 105.481639 
L 383.57157 104.803764 
L 383.888926 104.758079 
L 384.206281 104.483674 
L 384.523636 103.337784 
L 384.840992 102.969393 
L 385.158347 102.882428 
L 385.475702 102.338493 
L 386.110413 101.646995 
L 386.745124 100.714546 
L 387.062479 99.561631 
L 387.69719 99.108981 
L 388.014545 98.577765 
L 388.331901 98.396893 
L 389.283967 96.962749 
L 389.918678 95.514022 
L 390.236033 95.447171 
L 390.553388 94.3093 
L 390.870744 93.635009 
L 391.505455 92.859289 
L 391.82281 91.895489 
L 392.140165 91.531587 
L 392.457521 89.229185 
L 392.774876 89.094537 
L 393.092231 88.253539 
L 393.409587 86.47029 
L 394.361653 84.623596 
L 394.679008 83.215975 
L 394.996364 82.6319 
L 395.313719 82.321322 
L 395.631074 79.409674 
L 395.94843 77.575398 
L 396.265785 77.119317 
L 396.58314 75.588377 
L 396.900496 74.663817 
L 397.217851 72.219365 
L 397.852562 64.513334 
L 398.169917 63.721391 
L 398.487273 53.568 
L 398.487273 53.568 
" clip-path="url(#p666ef1fabb)" style="fill: none; stroke: #1f77b4; stroke-width: 1.5; stroke-linecap: square"/>
   </g>
   <g id="line2d_15">
    <path d="M 73.832727 261.795874 
L 74.150083 250.05589 
L 74.467438 250.05589 
L 74.784793 240.020595 
L 75.102149 237.936122 
L 75.73686 237.936122 
L 76.054215 234.18132 
L 76.37157 227.842692 
L 76.688926 227.453799 
L 77.006281 227.453799 
L 77.323636 226.473007 
L 78.910413 226.473007 
L 79.227769 222.897014 
L 79.545124 222.897014 
L 79.862479 221.602517 
L 80.179835 220.802758 
L 80.49719 220.802758 
L 80.814545 216.848485 
L 81.131901 214.987177 
L 82.083967 214.955173 
L 82.401322 213.853568 
L 86.844298 213.791023 
L 87.161653 213.187841 
L 87.479008 210.322467 
L 87.796364 209.689038 
L 88.113719 208.697076 
L 89.700496 208.697076 
L 90.017851 207.429643 
L 90.652562 207.429643 
L 90.969917 205.957331 
L 91.287273 205.957331 
L 91.604628 205.190372 
L 91.921983 203.217634 
L 99.221157 203.217634 
L 99.538512 202.042147 
L 99.855868 202.042147 
L 100.173223 201.764093 
L 101.76 201.764093 
L 102.077355 200.545668 
L 103.664132 200.545668 
L 103.981488 200.270836 
L 104.298843 199.795755 
L 104.933554 199.795755 
L 105.250909 198.12485 
L 106.202975 198.04064 
L 106.520331 194.269681 
L 107.155041 193.897083 
L 107.472397 193.897083 
L 107.789752 193.02874 
L 109.376529 193.02874 
L 109.693884 191.123013 
L 110.01124 191.123013 
L 110.328595 189.017783 
L 129.369917 189.017696 
L 129.687273 187.821365 
L 130.321983 186.696205 
L 131.27405 186.62447 
L 131.591405 185.645816 
L 131.90876 185.645816 
L 132.226116 185.422227 
L 132.860826 185.422227 
L 133.178182 183.538253 
L 133.495537 183.538253 
L 133.812893 183.14375 
L 135.399669 183.14375 
L 135.717025 181.537134 
L 136.03438 181.32049 
L 136.351736 180.957746 
L 136.986446 180.866287 
L 163.009587 180.866287 
L 163.326942 179.198825 
L 167.135207 179.198825 
L 167.452562 178.894088 
L 167.769917 178.894088 
L 168.087273 176.830388 
L 168.404628 176.830388 
L 168.721983 176.279548 
L 169.356694 176.279548 
L 169.67405 175.924082 
L 169.991405 175.072678 
L 171.578182 175.072678 
L 172.212893 174.472378 
L 172.530248 174.472378 
L 172.847603 174.217703 
L 180.146777 174.217703 
L 180.464132 173.779342 
L 180.781488 173.779342 
L 181.098843 173.34936 
L 182.68562 173.34936 
L 183.320331 169.338315 
L 185.541818 169.302635 
L 185.859174 169.069594 
L 186.493884 169.069594 
L 186.81124 168.71759 
L 187.128595 167.835491 
L 187.44595 167.835491 
L 187.763306 167.238056 
L 188.080661 167.238056 
L 188.398017 164.743919 
L 188.715372 161.186907 
L 283.604628 161.186907 
L 284.239339 155.135758 
L 284.556694 155.135758 
L 284.87405 154.538322 
L 285.191405 154.538322 
L 285.50876 153.656224 
L 285.826116 153.30422 
L 286.460826 153.30422 
L 286.778182 153.071179 
L 288.999669 153.035499 
L 289.63438 149.024454 
L 291.221157 149.024454 
L 291.538512 148.594472 
L 291.855868 148.594472 
L 292.173223 148.156111 
L 299.472397 148.156111 
L 299.789752 147.901436 
L 300.107107 147.901436 
L 300.741818 147.301135 
L 302.328595 147.301135 
L 302.64595 146.449732 
L 302.963306 146.094266 
L 303.598017 146.094266 
L 303.915372 145.543426 
L 304.232727 145.543426 
L 304.550083 143.479725 
L 304.867438 143.479725 
L 305.184793 143.174988 
L 308.993058 143.174988 
L 309.310413 141.507526 
L 335.968264 141.416068 
L 336.602975 140.83668 
L 336.920331 139.230063 
L 338.507107 139.230063 
L 338.824463 138.835561 
L 339.141818 138.835561 
L 339.459174 136.951587 
L 340.093884 136.951587 
L 340.41124 136.727997 
L 340.728595 136.727997 
L 341.04595 135.749344 
L 341.680661 135.677608 
L 341.998017 135.677608 
L 342.315372 135.242118 
L 342.632727 134.552448 
L 342.950083 133.356118 
L 361.991405 133.356031 
L 362.30876 131.250801 
L 362.626116 131.250801 
L 362.943471 129.345074 
L 364.530248 129.345074 
L 364.847603 128.47673 
L 365.164959 128.47673 
L 365.799669 128.104133 
L 366.117025 124.333174 
L 367.069091 124.248964 
L 367.386446 122.578058 
L 368.021157 122.578058 
L 368.338512 122.102977 
L 368.655868 121.828146 
L 370.242645 121.828146 
L 370.56 120.609721 
L 372.146777 120.609721 
L 372.464132 120.331667 
L 372.781488 120.331667 
L 373.098843 119.15618 
L 380.398017 119.15618 
L 380.715372 117.183442 
L 381.032727 116.416483 
L 381.350083 116.416483 
L 381.667438 114.944171 
L 382.302149 114.944171 
L 382.619504 113.676737 
L 384.206281 113.676737 
L 384.840992 112.051347 
L 385.158347 109.185973 
L 385.475702 108.582791 
L 389.918678 108.520246 
L 390.236033 107.418641 
L 391.188099 107.386637 
L 391.505455 105.525329 
L 391.82281 101.571056 
L 392.140165 101.571056 
L 392.457521 100.771297 
L 392.774876 99.4768 
L 393.092231 99.4768 
L 393.409587 95.900807 
L 394.996364 95.900807 
L 395.313719 94.920015 
L 395.631074 94.920015 
L 395.94843 94.531121 
L 396.265785 88.192494 
L 396.58314 84.437691 
L 397.217851 84.437691 
L 397.535207 82.353218 
L 397.852562 72.317924 
L 398.169917 72.317924 
L 398.487273 60.57794 
L 398.487273 60.57794 
" clip-path="url(#p666ef1fabb)" style="fill: none; stroke: #ff7f0e; stroke-width: 1.5; stroke-linecap: square"/>
   </g>
   <g id="patch_3">
    <path d="M 57.6 307.584 
L 57.6 41.472 
" style="fill: none; stroke: #000000; stroke-width: 0.8; stroke-linejoin: miter; stroke-linecap: square"/>
   </g>
   <g id="patch_4">
    <path d="M 414.72 307.584 
L 414.72 41.472 
" style="fill: none; stroke: #000000; stroke-width: 0.8; stroke-linejoin: miter; stroke-linecap: square"/>
   </g>
   <g id="patch_5">
    <path d="M 57.6 307.584 
L 414.72 307.584 
" style="fill: none; stroke: #000000; stroke-width: 0.8; stroke-linejoin: miter; stroke-linecap: square"/>
   </g>
   <g id="patch_6">
    <path d="M 57.6 41.472 
L 414.72 41.472 
" style="fill: none; stroke: #000000; stroke-width: 0.8; stroke-linejoin: miter; stroke-linecap: square"/>
   </g>
   <g id="legend_1">
    <g id="patch_7">
     <path d="M 64.6 78.82825 
L 129.342187 78.82825 
Q 131.342187 78.82825 131.342187 76.82825 
L 131.342187 48.472 
Q 131.342187 46.472 129.342187 46.472 
L 64.6 46.472 
Q 62.6 46.472 62.6 48.472 
L 62.6 76.82825 
Q 62.6 78.82825 64.6 78.82825 
z
" style="fill: #ffffff; opacity: 0.8; stroke: #cccccc; stroke-linejoin: miter"/>
    </g>
    <g id="line2d_16">
     <path d="M 66.6 54.570437 
L 76.6 54.570437 
L 86.6 54.570437 
" style="fill: none; stroke: #1f77b4; stroke-width: 1.5; stroke-linecap: square"/>
    </g>
    <g id="text_16">
     <!-- qc -->
     <g transform="translate(94.6 58.070437) scale(0.1 -0.1)">
      <defs>
       <path id="DejaVuSans-71" d="M 947 1747 
Q 947 1113 1208 752 
Q 1469 391 1925 391 
Q 2381 391 2643 752 
Q 2906 1113 2906 1747 
Q 2906 2381 2643 2742 
Q 2381 3103 1925 3103 
Q 1469 3103 1208 2742 
Q 947 2381 947 1747 
z
M 2906 525 
Q 2725 213 2448 61 
Q 2172 -91 1784 -91 
Q 1150 -91 751 415 
Q 353 922 353 1747 
Q 353 2572 751 3078 
Q 1150 3584 1784 3584 
Q 2172 3584 2448 3432 
Q 2725 3281 2906 2969 
L 2906 3500 
L 3481 3500 
L 3481 -1331 
L 2906 -1331 
L 2906 525 
z
" transform="scale(0.015625)"/>
       <path id="DejaVuSans-63" d="M 3122 3366 
L 3122 2828 
Q 2878 2963 2633 3030 
Q 2388 3097 2138 3097 
Q 1578 3097 1268 2742 
Q 959 2388 959 1747 
Q 959 1106 1268 751 
Q 1578 397 2138 397 
Q 2388 397 2633 464 
Q 2878 531 3122 666 
L 3122 134 
Q 2881 22 2623 -34 
Q 2366 -91 2075 -91 
Q 1284 -91 818 406 
Q 353 903 353 1747 
Q 353 2603 823 3093 
Q 1294 3584 2113 3584 
Q 2378 3584 2631 3529 
Q 2884 3475 3122 3366 
z
" transform="scale(0.015625)"/>
      </defs>
      <use xlink:href="#DejaVuSans-71"/>
      <use xlink:href="#DejaVuSans-63" x="63.476562"/>
     </g>
    </g>
    <g id="line2d_17">
     <path d="M 66.6 69.248562 
L 76.6 69.248562 
L 86.6 69.248562 
" style="fill: none; stroke: #ff7f0e; stroke-width: 1.5; stroke-linecap: square"/>
    </g>
    <g id="text_17">
     <!-- Trotter -->
     <g transform="translate(94.6 72.748562) scale(0.1 -0.1)">
      <defs>
       <path id="DejaVuSans-54" d="M -19 4666 
L 3928 4666 
L 3928 4134 
L 2272 4134 
L 2272 0 
L 1638 0 
L 1638 4134 
L -19 4134 
L -19 4666 
z
" transform="scale(0.015625)"/>
       <path id="DejaVuSans-72" d="M 2631 2963 
Q 2534 3019 2420 3045 
Q 2306 3072 2169 3072 
Q 1681 3072 1420 2755 
Q 1159 2438 1159 1844 
L 1159 0 
L 581 0 
L 581 3500 
L 1159 3500 
L 1159 2956 
Q 1341 3275 1631 3429 
Q 1922 3584 2338 3584 
Q 2397 3584 2469 3576 
Q 2541 3569 2628 3553 
L 2631 2963 
z
" transform="scale(0.015625)"/>
       <path id="DejaVuSans-6f" d="M 1959 3097 
Q 1497 3097 1228 2736 
Q 959 2375 959 1747 
Q 959 1119 1226 758 
Q 1494 397 1959 397 
Q 2419 397 2687 759 
Q 2956 1122 2956 1747 
Q 2956 2369 2687 2733 
Q 2419 3097 1959 3097 
z
M 1959 3584 
Q 2709 3584 3137 3096 
Q 3566 2609 3566 1747 
Q 3566 888 3137 398 
Q 2709 -91 1959 -91 
Q 1206 -91 779 398 
Q 353 888 353 1747 
Q 353 2609 779 3096 
Q 1206 3584 1959 3584 
z
" transform="scale(0.015625)"/>
       <path id="DejaVuSans-65" d="M 3597 1894 
L 3597 1613 
L 953 1613 
Q 991 1019 1311 708 
Q 1631 397 2203 397 
Q 2534 397 2845 478 
Q 3156 559 3463 722 
L 3463 178 
Q 3153 47 2828 -22 
Q 2503 -91 2169 -91 
Q 1331 -91 842 396 
Q 353 884 353 1716 
Q 353 2575 817 3079 
Q 1281 3584 2069 3584 
Q 2775 3584 3186 3129 
Q 3597 2675 3597 1894 
z
M 3022 2063 
Q 3016 2534 2758 2815 
Q 2500 3097 2075 3097 
Q 1594 3097 1305 2825 
Q 1016 2553 972 2059 
L 3022 2063 
z
" transform="scale(0.015625)"/>
      </defs>
      <use xlink:href="#DejaVuSans-54"/>
      <use xlink:href="#DejaVuSans-72" x="46.333984"/>
      <use xlink:href="#DejaVuSans-6f" x="85.197266"/>
      <use xlink:href="#DejaVuSans-74" x="146.378906"/>
      <use xlink:href="#DejaVuSans-74" x="185.587891"/>
      <use xlink:href="#DejaVuSans-65" x="224.796875"/>
      <use xlink:href="#DejaVuSans-72" x="286.320312"/>
     </g>
    </g>
   </g>
  </g>
 </g>
 <defs>
  <clipPath id="p666ef1fabb">
   <rect x="57.6" y="41.472" width="357.12" height="266.112"/>
  </clipPath>
 </defs>
</svg>
