<?xml version="1.0" encoding="utf-8" standalone="no"?>
<!DOCTYPE svg PUBLIC "-//W3C//DTD SVG 1.1//EN"
  "http://www.w3.org/Graphics/SVG/1.1/DTD/svg11.dtd">
<svg xmlns:xlink="http://www.w3.org/1999/xlink" width="460.8pt" height="345.6pt" viewBox="0 0 460.8 345.6" xmlns="http://www.w3.org/2000/svg" version="1.1">
 <metadata>
  <rdf:RDF xmlns:dc="http://purl.org/dc/elements/1.1/" xmlns:cc="http://creativecommons.org/ns#" xmlns:rdf="http://www.w3.org/1999/02/22-rdf-syntax-ns#">
   <cc:Work>
    <dc:type rdf:resource="http://purl.org/dc/dcmitype/StillImage"/>
    <dc:date>2024-07-14T00:15:11.522676</dc:date>
    <dc:format>image/svg+xml</dc:format>
    <dc:creator>
     <cc:Agent>
      <dc:title>Matplotlib v3.7.1, https://matplotlib.org/</dc:title>
     </cc:Agent>
    </dc:creator>
   </cc:Work>
  </rdf:RDF>
 </metadata>
 <defs>
  <style type="text/css">*{stroke-linejoin: round; stroke-linecap: butt}</style>
 </defs>
 <g id="figure_1">
  <g id="patch_1">
   <path d="M 0 345.6 
L 460.8 345.6 
L 460.8 0 
L 0 0 
z
" style="fill: #ffffff"/>
  </g>
  <g id="axes_1">
   <g id="patch_2">
    <path d="M 57.6 307.584 
L 414.72 307.584 
L 414.72 41.472 
L 57.6 41.472 
z
" style="fill: #ffffff"/>
   </g>
   <g id="matplotlib.axis_1">
    <g id="xtick_1">
     <g id="line2d_1">
      <defs>
       <path id="m39ca16473b" d="M 0 0 
L 0 3.5 
" style="stroke: #000000; stroke-width: 0.8"/>
      </defs>
      <g>
       <use xlink:href="#m39ca16473b" x="73.832727" y="307.584" style="stroke: #000000; stroke-width: 0.8"/>
      </g>
     </g>
     <g id="text_1">
      <!-- 0 -->
      <g transform="translate(70.651477 322.182437) scale(0.1 -0.1)">
       <defs>
        <path id="DejaVuSans-30" d="M 2034 4250 
Q 1547 4250 1301 3770 
Q 1056 3291 1056 2328 
Q 1056 1369 1301 889 
Q 1547 409 2034 409 
Q 2525 409 2770 889 
Q 3016 1369 3016 2328 
Q 3016 3291 2770 3770 
Q 2525 4250 2034 4250 
z
M 2034 4750 
Q 2819 4750 3233 4129 
Q 3647 3509 3647 2328 
Q 3647 1150 3233 529 
Q 2819 -91 2034 -91 
Q 1250 -91 836 529 
Q 422 1150 422 2328 
Q 422 3509 836 4129 
Q 1250 4750 2034 4750 
z
" transform="scale(0.015625)"/>
       </defs>
       <use xlink:href="#DejaVuSans-30"/>
      </g>
     </g>
    </g>
    <g id="xtick_2">
     <g id="line2d_2">
      <g>
       <use xlink:href="#m39ca16473b" x="137.303802" y="307.584" style="stroke: #000000; stroke-width: 0.8"/>
      </g>
     </g>
     <g id="text_2">
      <!-- 200 -->
      <g transform="translate(127.760052 322.182437) scale(0.1 -0.1)">
       <defs>
        <path id="DejaVuSans-32" d="M 1228 531 
L 3431 531 
L 3431 0 
L 469 0 
L 469 531 
Q 828 903 1448 1529 
Q 2069 2156 2228 2338 
Q 2531 2678 2651 2914 
Q 2772 3150 2772 3378 
Q 2772 3750 2511 3984 
Q 2250 4219 1831 4219 
Q 1534 4219 1204 4116 
Q 875 4013 500 3803 
L 500 4441 
Q 881 4594 1212 4672 
Q 1544 4750 1819 4750 
Q 2544 4750 2975 4387 
Q 3406 4025 3406 3419 
Q 3406 3131 3298 2873 
Q 3191 2616 2906 2266 
Q 2828 2175 2409 1742 
Q 1991 1309 1228 531 
z
" transform="scale(0.015625)"/>
       </defs>
       <use xlink:href="#DejaVuSans-32"/>
       <use xlink:href="#DejaVuSans-30" x="63.623047"/>
       <use xlink:href="#DejaVuSans-30" x="127.246094"/>
      </g>
     </g>
    </g>
    <g id="xtick_3">
     <g id="line2d_3">
      <g>
       <use xlink:href="#m39ca16473b" x="200.774876" y="307.584" style="stroke: #000000; stroke-width: 0.8"/>
      </g>
     </g>
     <g id="text_3">
      <!-- 400 -->
      <g transform="translate(191.231126 322.182437) scale(0.1 -0.1)">
       <defs>
        <path id="DejaVuSans-34" d="M 2419 4116 
L 825 1625 
L 2419 1625 
L 2419 4116 
z
M 2253 4666 
L 3047 4666 
L 3047 1625 
L 3713 1625 
L 3713 1100 
L 3047 1100 
L 3047 0 
L 2419 0 
L 2419 1100 
L 313 1100 
L 313 1709 
L 2253 4666 
z
" transform="scale(0.015625)"/>
       </defs>
       <use xlink:href="#DejaVuSans-34"/>
       <use xlink:href="#DejaVuSans-30" x="63.623047"/>
       <use xlink:href="#DejaVuSans-30" x="127.246094"/>
      </g>
     </g>
    </g>
    <g id="xtick_4">
     <g id="line2d_4">
      <g>
       <use xlink:href="#m39ca16473b" x="264.24595" y="307.584" style="stroke: #000000; stroke-width: 0.8"/>
      </g>
     </g>
     <g id="text_4">
      <!-- 600 -->
      <g transform="translate(254.7022 322.182437) scale(0.1 -0.1)">
       <defs>
        <path id="DejaVuSans-36" d="M 2113 2584 
Q 1688 2584 1439 2293 
Q 1191 2003 1191 1497 
Q 1191 994 1439 701 
Q 1688 409 2113 409 
Q 2538 409 2786 701 
Q 3034 994 3034 1497 
Q 3034 2003 2786 2293 
Q 2538 2584 2113 2584 
z
M 3366 4563 
L 3366 3988 
Q 3128 4100 2886 4159 
Q 2644 4219 2406 4219 
Q 1781 4219 1451 3797 
Q 1122 3375 1075 2522 
Q 1259 2794 1537 2939 
Q 1816 3084 2150 3084 
Q 2853 3084 3261 2657 
Q 3669 2231 3669 1497 
Q 3669 778 3244 343 
Q 2819 -91 2113 -91 
Q 1303 -91 875 529 
Q 447 1150 447 2328 
Q 447 3434 972 4092 
Q 1497 4750 2381 4750 
Q 2619 4750 2861 4703 
Q 3103 4656 3366 4563 
z
" transform="scale(0.015625)"/>
       </defs>
       <use xlink:href="#DejaVuSans-36"/>
       <use xlink:href="#DejaVuSans-30" x="63.623047"/>
       <use xlink:href="#DejaVuSans-30" x="127.246094"/>
      </g>
     </g>
    </g>
    <g id="xtick_5">
     <g id="line2d_5">
      <g>
       <use xlink:href="#m39ca16473b" x="327.717025" y="307.584" style="stroke: #000000; stroke-width: 0.8"/>
      </g>
     </g>
     <g id="text_5">
      <!-- 800 -->
      <g transform="translate(318.173275 322.182437) scale(0.1 -0.1)">
       <defs>
        <path id="DejaVuSans-38" d="M 2034 2216 
Q 1584 2216 1326 1975 
Q 1069 1734 1069 1313 
Q 1069 891 1326 650 
Q 1584 409 2034 409 
Q 2484 409 2743 651 
Q 3003 894 3003 1313 
Q 3003 1734 2745 1975 
Q 2488 2216 2034 2216 
z
M 1403 2484 
Q 997 2584 770 2862 
Q 544 3141 544 3541 
Q 544 4100 942 4425 
Q 1341 4750 2034 4750 
Q 2731 4750 3128 4425 
Q 3525 4100 3525 3541 
Q 3525 3141 3298 2862 
Q 3072 2584 2669 2484 
Q 3125 2378 3379 2068 
Q 3634 1759 3634 1313 
Q 3634 634 3220 271 
Q 2806 -91 2034 -91 
Q 1263 -91 848 271 
Q 434 634 434 1313 
Q 434 1759 690 2068 
Q 947 2378 1403 2484 
z
M 1172 3481 
Q 1172 3119 1398 2916 
Q 1625 2713 2034 2713 
Q 2441 2713 2670 2916 
Q 2900 3119 2900 3481 
Q 2900 3844 2670 4047 
Q 2441 4250 2034 4250 
Q 1625 4250 1398 4047 
Q 1172 3844 1172 3481 
z
" transform="scale(0.015625)"/>
       </defs>
       <use xlink:href="#DejaVuSans-38"/>
       <use xlink:href="#DejaVuSans-30" x="63.623047"/>
       <use xlink:href="#DejaVuSans-30" x="127.246094"/>
      </g>
     </g>
    </g>
    <g id="xtick_6">
     <g id="line2d_6">
      <g>
       <use xlink:href="#m39ca16473b" x="391.188099" y="307.584" style="stroke: #000000; stroke-width: 0.8"/>
      </g>
     </g>
     <g id="text_6">
      <!-- 1000 -->
      <g transform="translate(378.463099 322.182437) scale(0.1 -0.1)">
       <defs>
        <path id="DejaVuSans-31" d="M 794 531 
L 1825 531 
L 1825 4091 
L 703 3866 
L 703 4441 
L 1819 4666 
L 2450 4666 
L 2450 531 
L 3481 531 
L 3481 0 
L 794 0 
L 794 531 
z
" transform="scale(0.015625)"/>
       </defs>
       <use xlink:href="#DejaVuSans-31"/>
       <use xlink:href="#DejaVuSans-30" x="63.623047"/>
       <use xlink:href="#DejaVuSans-30" x="127.246094"/>
       <use xlink:href="#DejaVuSans-30" x="190.869141"/>
      </g>
     </g>
    </g>
    <g id="text_7">
     <!-- n -->
     <g transform="translate(232.99125 335.860562) scale(0.1 -0.1)">
      <defs>
       <path id="DejaVuSans-6e" d="M 3513 2113 
L 3513 0 
L 2938 0 
L 2938 2094 
Q 2938 2591 2744 2837 
Q 2550 3084 2163 3084 
Q 1697 3084 1428 2787 
Q 1159 2491 1159 1978 
L 1159 0 
L 581 0 
L 581 3500 
L 1159 3500 
L 1159 2956 
Q 1366 3272 1645 3428 
Q 1925 3584 2291 3584 
Q 2894 3584 3203 3211 
Q 3513 2838 3513 2113 
z
" transform="scale(0.015625)"/>
      </defs>
      <use xlink:href="#DejaVuSans-6e"/>
     </g>
    </g>
   </g>
   <g id="matplotlib.axis_2">
    <g id="ytick_1">
     <g id="line2d_7">
      <defs>
       <path id="mfd2aa302d6" d="M 0 0 
L -3.5 0 
" style="stroke: #000000; stroke-width: 0.8"/>
      </defs>
      <g>
       <use xlink:href="#mfd2aa302d6" x="57.6" y="275.261095" style="stroke: #000000; stroke-width: 0.8"/>
      </g>
     </g>
     <g id="text_8">
      <!-- −2 -->
      <g transform="translate(35.857813 279.060314) scale(0.1 -0.1)">
       <defs>
        <path id="DejaVuSans-2212" d="M 678 2272 
L 4684 2272 
L 4684 1741 
L 678 1741 
L 678 2272 
z
" transform="scale(0.015625)"/>
       </defs>
       <use xlink:href="#DejaVuSans-2212"/>
       <use xlink:href="#DejaVuSans-32" x="83.789062"/>
      </g>
     </g>
    </g>
    <g id="ytick_2">
     <g id="line2d_8">
      <g>
       <use xlink:href="#mfd2aa302d6" x="57.6" y="230.328073" style="stroke: #000000; stroke-width: 0.8"/>
      </g>
     </g>
     <g id="text_9">
      <!-- −1 -->
      <g transform="translate(35.857813 234.127292) scale(0.1 -0.1)">
       <use xlink:href="#DejaVuSans-2212"/>
       <use xlink:href="#DejaVuSans-31" x="83.789062"/>
      </g>
     </g>
    </g>
    <g id="ytick_3">
     <g id="line2d_9">
      <g>
       <use xlink:href="#mfd2aa302d6" x="57.6" y="185.395051" style="stroke: #000000; stroke-width: 0.8"/>
      </g>
     </g>
     <g id="text_10">
      <!-- 0 -->
      <g transform="translate(44.2375 189.19427) scale(0.1 -0.1)">
       <use xlink:href="#DejaVuSans-30"/>
      </g>
     </g>
    </g>
    <g id="ytick_4">
     <g id="line2d_10">
      <g>
       <use xlink:href="#mfd2aa302d6" x="57.6" y="140.462029" style="stroke: #000000; stroke-width: 0.8"/>
      </g>
     </g>
     <g id="text_11">
      <!-- 1 -->
      <g transform="translate(44.2375 144.261247) scale(0.1 -0.1)">
       <use xlink:href="#DejaVuSans-31"/>
      </g>
     </g>
    </g>
    <g id="ytick_5">
     <g id="line2d_11">
      <g>
       <use xlink:href="#mfd2aa302d6" x="57.6" y="95.529006" style="stroke: #000000; stroke-width: 0.8"/>
      </g>
     </g>
     <g id="text_12">
      <!-- 2 -->
      <g transform="translate(44.2375 99.328225) scale(0.1 -0.1)">
       <use xlink:href="#DejaVuSans-32"/>
      </g>
     </g>
    </g>
    <g id="ytick_6">
     <g id="line2d_12">
      <g>
       <use xlink:href="#mfd2aa302d6" x="57.6" y="50.595984" style="stroke: #000000; stroke-width: 0.8"/>
      </g>
     </g>
     <g id="text_13">
      <!-- 3 -->
      <g transform="translate(44.2375 54.395203) scale(0.1 -0.1)">
       <defs>
        <path id="DejaVuSans-33" d="M 2597 2516 
Q 3050 2419 3304 2112 
Q 3559 1806 3559 1356 
Q 3559 666 3084 287 
Q 2609 -91 1734 -91 
Q 1441 -91 1130 -33 
Q 819 25 488 141 
L 488 750 
Q 750 597 1062 519 
Q 1375 441 1716 441 
Q 2309 441 2620 675 
Q 2931 909 2931 1356 
Q 2931 1769 2642 2001 
Q 2353 2234 1838 2234 
L 1294 2234 
L 1294 2753 
L 1863 2753 
Q 2328 2753 2575 2939 
Q 2822 3125 2822 3475 
Q 2822 3834 2567 4026 
Q 2313 4219 1838 4219 
Q 1578 4219 1281 4162 
Q 984 4106 628 3988 
L 628 4550 
Q 988 4650 1302 4700 
Q 1616 4750 1894 4750 
Q 2613 4750 3031 4423 
Q 3450 4097 3450 3541 
Q 3450 3153 3228 2886 
Q 3006 2619 2597 2516 
z
" transform="scale(0.015625)"/>
       </defs>
       <use xlink:href="#DejaVuSans-33"/>
      </g>
     </g>
    </g>
    <g id="text_14">
     <!-- E*t -->
     <g transform="translate(29.778125 182.147531) rotate(-90) scale(0.1 -0.1)">
      <defs>
       <path id="DejaVuSans-45" d="M 628 4666 
L 3578 4666 
L 3578 4134 
L 1259 4134 
L 1259 2753 
L 3481 2753 
L 3481 2222 
L 1259 2222 
L 1259 531 
L 3634 531 
L 3634 0 
L 628 0 
L 628 4666 
z
" transform="scale(0.015625)"/>
       <path id="DejaVuSans-2a" d="M 3009 3897 
L 1888 3291 
L 3009 2681 
L 2828 2375 
L 1778 3009 
L 1778 1831 
L 1422 1831 
L 1422 3009 
L 372 2375 
L 191 2681 
L 1313 3291 
L 191 3897 
L 372 4206 
L 1422 3572 
L 1422 4750 
L 1778 4750 
L 1778 3572 
L 2828 4206 
L 3009 3897 
z
" transform="scale(0.015625)"/>
       <path id="DejaVuSans-74" d="M 1172 4494 
L 1172 3500 
L 2356 3500 
L 2356 3053 
L 1172 3053 
L 1172 1153 
Q 1172 725 1289 603 
Q 1406 481 1766 481 
L 2356 481 
L 2356 0 
L 1766 0 
Q 1100 0 847 248 
Q 594 497 594 1153 
L 594 3053 
L 172 3053 
L 172 3500 
L 594 3500 
L 594 4494 
L 1172 4494 
z
" transform="scale(0.015625)"/>
      </defs>
      <use xlink:href="#DejaVuSans-45"/>
      <use xlink:href="#DejaVuSans-2a" x="63.183594"/>
      <use xlink:href="#DejaVuSans-74" x="113.183594"/>
     </g>
    </g>
   </g>
   <g id="line2d_13">
    <path d="M 73.832727 295.488 
L 74.150083 288.77769 
L 74.784793 281.332726 
L 75.102149 279.481151 
L 75.419504 278.476986 
L 75.73686 277.03538 
L 76.054215 274.525666 
L 77.006281 271.711008 
L 77.323636 270.258539 
L 77.640992 269.578655 
L 77.958347 268.038332 
L 78.275702 267.5724 
L 78.910413 265.084762 
L 79.227769 264.717182 
L 79.545124 263.187368 
L 80.49719 262.091892 
L 80.814545 261.134966 
L 81.449256 260.041445 
L 81.766612 258.862657 
L 82.083967 258.297789 
L 82.401322 257.960013 
L 83.353388 256.612669 
L 84.62281 255.048341 
L 85.257521 254.099546 
L 85.892231 253.257525 
L 86.209587 252.690104 
L 86.526942 252.56798 
L 86.844298 252.036003 
L 87.161653 251.748273 
L 87.479008 250.945426 
L 88.431074 250.077759 
L 88.74843 249.941934 
L 90.017851 248.944965 
L 90.335207 248.832653 
L 90.652562 247.854935 
L 91.287273 247.538861 
L 91.921983 246.696067 
L 92.239339 246.46309 
L 92.556694 246.063972 
L 93.191405 245.821811 
L 93.50876 245.279903 
L 93.826116 245.017046 
L 94.143471 244.945295 
L 94.778182 244.416933 
L 95.412893 244.042888 
L 96.682314 242.988113 
L 97.317025 242.568113 
L 97.951736 241.706005 
L 98.269091 241.405082 
L 98.586446 241.267704 
L 100.173223 239.82464 
L 100.807934 239.570606 
L 101.442645 239.212544 
L 102.077355 238.520422 
L 103.029421 238.053186 
L 103.346777 237.592306 
L 103.664132 237.412978 
L 103.981488 237.052288 
L 104.616198 236.774617 
L 104.933554 236.589583 
L 105.568264 235.967195 
L 106.837686 234.892394 
L 108.424463 234.194506 
L 108.741818 233.934403 
L 109.059174 233.45113 
L 109.376529 233.414016 
L 110.01124 232.931578 
L 110.64595 232.654075 
L 110.963306 232.405319 
L 111.598017 232.115177 
L 112.232727 231.698999 
L 113.819504 231.080381 
L 116.040992 229.757767 
L 119.214545 228.289525 
L 120.166612 227.60259 
L 120.483967 227.534383 
L 121.118678 227.181067 
L 122.705455 226.494461 
L 123.02281 226.175197 
L 123.657521 225.930214 
L 128.735207 223.625262 
L 129.052562 223.432876 
L 129.369917 223.407414 
L 130.321983 222.91257 
L 130.639339 222.842425 
L 130.956694 222.589378 
L 131.27405 222.493998 
L 131.591405 222.264077 
L 132.226116 222.12528 
L 133.812893 221.529393 
L 134.130248 221.315129 
L 134.764959 221.091815 
L 137.621157 220.044578 
L 138.573223 219.493785 
L 141.429421 218.254188 
L 142.064132 218.003107 
L 142.698843 217.693898 
L 143.016198 217.411556 
L 143.650909 217.236745 
L 144.602975 216.766163 
L 145.237686 216.531773 
L 146.824463 216.002041 
L 147.776529 215.513774 
L 148.093884 215.418245 
L 148.41124 215.142362 
L 148.728595 215.078426 
L 149.363306 214.746825 
L 150.632727 214.271872 
L 150.950083 214.009141 
L 151.267438 213.933319 
L 151.902149 213.602607 
L 152.854215 213.33651 
L 153.17157 213.07117 
L 153.806281 212.960074 
L 154.440992 212.647042 
L 155.393058 212.285482 
L 156.027769 212.128888 
L 156.345124 211.864385 
L 157.29719 211.620246 
L 159.201322 210.959587 
L 159.836033 210.659157 
L 161.105455 210.322146 
L 162.057521 209.968149 
L 169.039339 207.694953 
L 169.356694 207.629324 
L 169.991405 207.273693 
L 170.626116 206.986064 
L 171.578182 206.564228 
L 172.530248 206.261288 
L 173.482314 206.023292 
L 175.069091 205.438215 
L 179.194711 204.178404 
L 179.829421 203.859753 
L 182.368264 203.050488 
L 182.68562 202.746179 
L 193.158347 199.292178 
L 193.475702 199.235338 
L 194.110413 198.899334 
L 196.014545 198.3533 
L 196.649256 198.093591 
L 197.601322 197.73435 
L 198.870744 197.357201 
L 200.140165 196.968866 
L 202.044298 196.269385 
L 203.631074 195.729864 
L 204.58314 195.437655 
L 204.900496 195.289253 
L 205.852562 195.1503 
L 207.121983 194.598377 
L 207.756694 194.430684 
L 208.07405 194.234396 
L 208.391405 194.176347 
L 209.026116 193.858259 
L 209.660826 193.685243 
L 211.247603 193.174321 
L 211.882314 192.936861 
L 212.199669 192.749546 
L 212.517025 192.718366 
L 213.151736 192.465192 
L 213.786446 192.287462 
L 215.690579 191.528712 
L 219.498843 190.319938 
L 220.133554 190.124898 
L 223.624463 189.120757 
L 225.21124 188.670838 
L 232.510413 186.444605 
L 233.779835 185.949282 
L 234.731901 185.708314 
L 238.22281 184.536769 
L 240.126942 184.047667 
L 240.761653 183.76735 
L 241.079008 183.72857 
L 241.713719 183.451705 
L 243.617851 182.894693 
L 244.569917 182.677809 
L 245.521983 182.210927 
L 245.839339 182.149638 
L 246.156694 181.929777 
L 247.426116 181.652102 
L 248.060826 181.342859 
L 248.695537 181.206219 
L 255.36 179.120148 
L 255.994711 178.86027 
L 256.312066 178.828275 
L 256.946777 178.563068 
L 257.898843 178.290538 
L 259.168264 177.69697 
L 261.389752 176.886019 
L 262.976529 176.283382 
L 263.928595 176.085093 
L 268.37157 174.56637 
L 269.006281 174.299163 
L 272.814545 172.986705 
L 273.131901 172.949846 
L 273.766612 172.615923 
L 274.083967 172.575943 
L 274.718678 172.367203 
L 275.670744 172.066341 
L 276.62281 171.801904 
L 278.526942 171.270045 
L 279.161653 171.062287 
L 280.113719 170.508867 
L 281.065785 170.16708 
L 281.38314 170.142352 
L 282.017851 169.944898 
L 282.969917 169.666312 
L 284.556694 168.981658 
L 284.87405 168.880748 
L 285.191405 168.650758 
L 285.826116 168.470714 
L 287.412893 167.665419 
L 288.047603 167.553803 
L 288.364959 167.346474 
L 289.63438 167.00957 
L 290.586446 166.731384 
L 292.807934 165.833697 
L 294.712066 165.012632 
L 296.298843 164.563327 
L 296.933554 164.154848 
L 297.88562 163.87155 
L 298.837686 163.644488 
L 299.155041 163.444518 
L 299.472397 163.400837 
L 300.107107 163.12396 
L 300.424463 162.944763 
L 301.059174 162.810772 
L 301.376529 162.598766 
L 302.01124 162.427256 
L 302.64595 161.935057 
L 303.280661 161.728173 
L 303.598017 161.49297 
L 304.232727 161.348222 
L 304.867438 161.070067 
L 305.819504 160.71194 
L 307.723636 160.178663 
L 308.358347 159.894127 
L 309.310413 159.549994 
L 310.579835 159.188613 
L 310.89719 158.926696 
L 311.531901 158.790521 
L 311.849256 158.480623 
L 312.483967 158.297634 
L 313.118678 157.995587 
L 314.070744 157.624218 
L 314.705455 157.284387 
L 319.14843 155.188332 
L 319.78314 155.000415 
L 320.417851 154.777292 
L 321.052562 154.602921 
L 325.178182 152.949041 
L 325.812893 152.755267 
L 327.082314 152.392753 
L 327.399669 152.121868 
L 328.03438 152.000021 
L 328.986446 151.534629 
L 329.303802 151.159849 
L 330.890579 150.614907 
L 331.207934 150.312288 
L 332.16 149.936396 
L 332.477355 149.647704 
L 333.112066 149.397305 
L 333.746777 149.208267 
L 334.064132 148.80135 
L 334.381488 148.666463 
L 334.698843 148.386983 
L 335.650909 148.047236 
L 338.189752 146.648578 
L 338.824463 146.275428 
L 339.141818 146.100031 
L 339.459174 146.070699 
L 340.093884 145.786201 
L 340.728595 145.443875 
L 341.04595 145.159509 
L 341.680661 144.901227 
L 342.315372 144.505122 
L 342.950083 144.060543 
L 343.584793 143.803162 
L 343.902149 143.741576 
L 344.53686 143.285424 
L 346.123636 142.521014 
L 346.758347 142.186243 
L 347.075702 141.903321 
L 347.393058 141.813854 
L 348.662479 140.488518 
L 349.29719 140.326669 
L 349.931901 139.775025 
L 351.518678 138.952008 
L 352.470744 138.148958 
L 353.42281 137.571382 
L 353.740165 137.50675 
L 354.057521 137.191814 
L 355.009587 136.629874 
L 355.644298 136.184778 
L 356.596364 135.509068 
L 357.54843 135.003624 
L 361.356694 133.092146 
L 361.991405 132.675167 
L 362.943471 131.756696 
L 363.578182 131.146099 
L 363.895537 131.023641 
L 364.530248 130.458836 
L 364.847603 130.356896 
L 366.117025 128.66436 
L 366.43438 128.582478 
L 367.386446 127.790994 
L 367.703802 127.256364 
L 368.973223 126.887169 
L 369.290579 126.520081 
L 369.607934 126.457672 
L 370.242645 125.893733 
L 370.56 125.825906 
L 370.877355 125.213511 
L 371.194711 125.035981 
L 371.829421 124.205365 
L 372.146777 124.089155 
L 373.098843 122.7344 
L 373.416198 122.235023 
L 373.733554 122.184202 
L 374.368264 121.594051 
L 374.68562 121.473027 
L 375.320331 120.804859 
L 375.637686 120.674137 
L 375.955041 120.058875 
L 376.589752 119.575876 
L 377.224463 118.743487 
L 378.176529 118.202279 
L 378.493884 118.10387 
L 379.128595 117.125294 
L 379.44595 117.02306 
L 380.080661 116.58496 
L 380.398017 115.265933 
L 381.667438 114.690599 
L 381.984793 114.138915 
L 382.302149 113.300883 
L 382.619504 111.883085 
L 382.93686 111.532294 
L 383.57157 111.259297 
L 383.888926 110.723643 
L 384.206281 110.619289 
L 384.523636 110.28873 
L 384.840992 109.122525 
L 385.793058 107.84867 
L 386.745124 107.410083 
L 387.062479 106.019312 
L 387.379835 105.976829 
L 388.331901 102.710809 
L 388.649256 102.605353 
L 388.966612 102.276977 
L 389.601322 100.967261 
L 389.918678 100.62201 
L 390.236033 99.370789 
L 390.870744 98.432531 
L 391.505455 97.872054 
L 391.82281 96.715794 
L 392.140165 95.096223 
L 392.457521 94.317801 
L 392.774876 91.780424 
L 393.092231 91.701094 
L 394.361653 89.32004 
L 394.679008 87.295536 
L 394.996364 86.040114 
L 395.313719 85.611734 
L 395.631074 82.86775 
L 395.94843 82.090275 
L 396.265785 79.282696 
L 396.58314 78.479381 
L 396.900496 74.943025 
L 397.217851 73.68641 
L 397.852562 66.067157 
L 398.169917 65.98295 
L 398.487273 53.568 
L 398.487273 53.568 
" clip-path="url(#p5ee337fd27)" style="fill: none; stroke: #1f77b4; stroke-width: 1.5; stroke-linecap: square"/>
   </g>
   <g id="line2d_14">
    <path d="M 73.832727 277.281377 
L 74.150083 266.559231 
L 74.467438 266.559231 
L 74.784793 257.393981 
L 75.102149 255.490229 
L 75.73686 255.490229 
L 76.054215 252.060961 
L 76.37157 246.271883 
L 76.688926 245.916706 
L 77.006281 245.916706 
L 77.323636 245.020947 
L 78.910413 245.020947 
L 79.227769 241.754988 
L 79.545124 241.754988 
L 79.862479 240.572721 
L 80.179835 239.8423 
L 80.49719 239.8423 
L 80.814545 236.230856 
L 81.131901 234.530921 
L 82.083967 234.501692 
L 82.401322 233.495594 
L 86.844298 233.438471 
L 87.161653 232.887585 
L 87.479008 230.270634 
L 87.796364 229.692122 
L 88.113719 228.786162 
L 89.700496 228.786162 
L 90.017851 227.628614 
L 90.652562 227.628614 
L 90.969917 226.283949 
L 91.287273 226.283949 
L 91.604628 225.583484 
L 91.921983 223.781779 
L 99.221157 223.781779 
L 99.538512 222.708205 
L 99.855868 222.708205 
L 100.173223 222.454258 
L 101.76 222.454258 
L 102.077355 221.341468 
L 103.664132 221.341468 
L 103.981488 221.090464 
L 104.298843 220.656572 
L 104.933554 220.656572 
L 105.250909 219.130532 
L 106.202975 219.053623 
L 106.520331 215.6096 
L 107.155041 215.269306 
L 107.472397 215.269306 
L 107.789752 214.476247 
L 109.376529 214.476247 
L 109.693884 212.735743 
L 110.01124 212.735743 
L 110.328595 210.813033 
L 129.369917 210.812954 
L 129.687273 209.720343 
L 130.321983 208.692733 
L 131.27405 208.627216 
L 131.591405 207.733411 
L 131.90876 207.733411 
L 132.226116 207.529206 
L 132.860826 207.529206 
L 133.178182 205.80857 
L 133.495537 205.80857 
L 133.812893 205.44827 
L 135.399669 205.44827 
L 135.717025 203.980945 
L 136.03438 203.783084 
L 136.351736 203.451789 
L 136.986446 203.36826 
L 163.009587 203.36826 
L 163.326942 201.845364 
L 167.135207 201.845364 
L 167.452562 201.567047 
L 167.769917 201.567047 
L 168.087273 199.682266 
L 168.404628 199.682266 
L 168.721983 199.179183 
L 169.356694 199.179183 
L 169.67405 198.854536 
L 169.991405 198.076947 
L 171.578182 198.076947 
L 172.212893 197.528692 
L 172.530248 197.528692 
L 172.847603 197.296097 
L 180.146777 197.296097 
L 180.464132 196.895741 
L 180.781488 196.895741 
L 181.098843 196.503038 
L 182.68562 196.503038 
L 183.320331 192.839745 
L 185.541818 192.807158 
L 185.859174 192.594321 
L 186.493884 192.594321 
L 186.81124 192.272835 
L 187.128595 191.467213 
L 187.44595 191.467213 
L 187.763306 190.921575 
L 188.080661 190.921575 
L 188.398017 188.643675 
L 188.715372 185.395051 
L 283.604628 185.395051 
L 284.239339 179.868527 
L 284.556694 179.868527 
L 284.87405 179.322888 
L 285.191405 179.322888 
L 285.50876 178.517266 
L 285.826116 178.195781 
L 286.460826 178.195781 
L 286.778182 177.982943 
L 288.999669 177.950357 
L 289.63438 174.287064 
L 291.221157 174.287064 
L 291.538512 173.89436 
L 291.855868 173.89436 
L 292.173223 173.494005 
L 299.472397 173.494005 
L 299.789752 173.261409 
L 300.107107 173.261409 
L 300.741818 172.713154 
L 302.328595 172.713154 
L 302.64595 171.935566 
L 302.963306 171.610918 
L 303.598017 171.610918 
L 303.915372 171.107835 
L 304.232727 171.107835 
L 304.550083 169.223054 
L 304.867438 169.223054 
L 305.184793 168.944738 
L 308.993058 168.944738 
L 309.310413 167.421842 
L 335.968264 167.338313 
L 336.602975 166.809157 
L 336.920331 165.341831 
L 338.507107 165.341831 
L 338.824463 164.981531 
L 339.141818 164.981531 
L 339.459174 163.260895 
L 340.093884 163.260895 
L 340.41124 163.056691 
L 340.728595 163.056691 
L 341.04595 162.162885 
L 341.680661 162.097369 
L 341.998017 162.097369 
L 342.315372 161.699635 
L 342.632727 161.069758 
L 342.950083 159.977148 
L 361.991405 159.977069 
L 362.30876 158.054358 
L 362.626116 158.054358 
L 362.943471 156.313855 
L 364.530248 156.313855 
L 364.847603 155.520796 
L 365.164959 155.520796 
L 365.799669 155.180502 
L 366.117025 151.736479 
L 367.069091 151.65957 
L 367.386446 150.133529 
L 368.021157 150.133529 
L 368.655868 149.448633 
L 370.242645 149.448633 
L 370.56 148.335843 
L 372.146777 148.335843 
L 372.464132 148.081897 
L 372.781488 148.081897 
L 373.098843 147.008323 
L 380.398017 147.008323 
L 380.715372 145.206618 
L 381.032727 144.506153 
L 381.350083 144.506153 
L 381.667438 143.161488 
L 382.302149 143.161488 
L 382.619504 142.003939 
L 384.206281 142.003939 
L 384.840992 140.519467 
L 385.158347 137.902517 
L 385.475702 137.35163 
L 389.918678 137.294507 
L 390.236033 136.28841 
L 391.188099 136.259181 
L 391.505455 134.559245 
L 391.82281 130.947802 
L 392.140165 130.947802 
L 392.457521 130.21738 
L 392.774876 129.035114 
L 393.092231 129.035114 
L 393.409587 125.769154 
L 394.996364 125.769154 
L 395.313719 124.873395 
L 395.631074 124.873395 
L 395.94843 124.518218 
L 396.265785 118.72914 
L 396.58314 115.299873 
L 397.217851 115.299873 
L 397.535207 113.39612 
L 397.852562 104.23087 
L 398.169917 104.23087 
L 398.487273 93.508725 
L 398.487273 93.508725 
" clip-path="url(#p5ee337fd27)" style="fill: none; stroke: #ff7f0e; stroke-width: 1.5; stroke-linecap: square"/>
   </g>
   <g id="patch_3">
    <path d="M 57.6 307.584 
L 57.6 41.472 
" style="fill: none; stroke: #000000; stroke-width: 0.8; stroke-linejoin: miter; stroke-linecap: square"/>
   </g>
   <g id="patch_4">
    <path d="M 414.72 307.584 
L 414.72 41.472 
" style="fill: none; stroke: #000000; stroke-width: 0.8; stroke-linejoin: miter; stroke-linecap: square"/>
   </g>
   <g id="patch_5">
    <path d="M 57.6 307.584 
L 414.72 307.584 
" style="fill: none; stroke: #000000; stroke-width: 0.8; stroke-linejoin: miter; stroke-linecap: square"/>
   </g>
   <g id="patch_6">
    <path d="M 57.6 41.472 
L 414.72 41.472 
" style="fill: none; stroke: #000000; stroke-width: 0.8; stroke-linejoin: miter; stroke-linecap: square"/>
   </g>
   <g id="legend_1">
    <g id="patch_7">
     <path d="M 64.6 78.82825 
L 129.342187 78.82825 
Q 131.342187 78.82825 131.342187 76.82825 
L 131.342187 48.472 
Q 131.342187 46.472 129.342187 46.472 
L 64.6 46.472 
Q 62.6 46.472 62.6 48.472 
L 62.6 76.82825 
Q 62.6 78.82825 64.6 78.82825 
z
" style="fill: #ffffff; opacity: 0.8; stroke: #cccccc; stroke-linejoin: miter"/>
    </g>
    <g id="line2d_15">
     <path d="M 66.6 54.570437 
L 76.6 54.570437 
L 86.6 54.570437 
" style="fill: none; stroke: #1f77b4; stroke-width: 1.5; stroke-linecap: square"/>
    </g>
    <g id="text_15">
     <!-- qc -->
     <g transform="translate(94.6 58.070437) scale(0.1 -0.1)">
      <defs>
       <path id="DejaVuSans-71" d="M 947 1747 
Q 947 1113 1208 752 
Q 1469 391 1925 391 
Q 2381 391 2643 752 
Q 2906 1113 2906 1747 
Q 2906 2381 2643 2742 
Q 2381 3103 1925 3103 
Q 1469 3103 1208 2742 
Q 947 2381 947 1747 
z
M 2906 525 
Q 2725 213 2448 61 
Q 2172 -91 1784 -91 
Q 1150 -91 751 415 
Q 353 922 353 1747 
Q 353 2572 751 3078 
Q 1150 3584 1784 3584 
Q 2172 3584 2448 3432 
Q 2725 3281 2906 2969 
L 2906 3500 
L 3481 3500 
L 3481 -1331 
L 2906 -1331 
L 2906 525 
z
" transform="scale(0.015625)"/>
       <path id="DejaVuSans-63" d="M 3122 3366 
L 3122 2828 
Q 2878 2963 2633 3030 
Q 2388 3097 2138 3097 
Q 1578 3097 1268 2742 
Q 959 2388 959 1747 
Q 959 1106 1268 751 
Q 1578 397 2138 397 
Q 2388 397 2633 464 
Q 2878 531 3122 666 
L 3122 134 
Q 2881 22 2623 -34 
Q 2366 -91 2075 -91 
Q 1284 -91 818 406 
Q 353 903 353 1747 
Q 353 2603 823 3093 
Q 1294 3584 2113 3584 
Q 2378 3584 2631 3529 
Q 2884 3475 3122 3366 
z
" transform="scale(0.015625)"/>
      </defs>
      <use xlink:href="#DejaVuSans-71"/>
      <use xlink:href="#DejaVuSans-63" x="63.476562"/>
     </g>
    </g>
    <g id="line2d_16">
     <path d="M 66.6 69.248562 
L 76.6 69.248562 
L 86.6 69.248562 
" style="fill: none; stroke: #ff7f0e; stroke-width: 1.5; stroke-linecap: square"/>
    </g>
    <g id="text_16">
     <!-- Trotter -->
     <g transform="translate(94.6 72.748562) scale(0.1 -0.1)">
      <defs>
       <path id="DejaVuSans-54" d="M -19 4666 
L 3928 4666 
L 3928 4134 
L 2272 4134 
L 2272 0 
L 1638 0 
L 1638 4134 
L -19 4134 
L -19 4666 
z
" transform="scale(0.015625)"/>
       <path id="DejaVuSans-72" d="M 2631 2963 
Q 2534 3019 2420 3045 
Q 2306 3072 2169 3072 
Q 1681 3072 1420 2755 
Q 1159 2438 1159 1844 
L 1159 0 
L 581 0 
L 581 3500 
L 1159 3500 
L 1159 2956 
Q 1341 3275 1631 3429 
Q 1922 3584 2338 3584 
Q 2397 3584 2469 3576 
Q 2541 3569 2628 3553 
L 2631 2963 
z
" transform="scale(0.015625)"/>
       <path id="DejaVuSans-6f" d="M 1959 3097 
Q 1497 3097 1228 2736 
Q 959 2375 959 1747 
Q 959 1119 1226 758 
Q 1494 397 1959 397 
Q 2419 397 2687 759 
Q 2956 1122 2956 1747 
Q 2956 2369 2687 2733 
Q 2419 3097 1959 3097 
z
M 1959 3584 
Q 2709 3584 3137 3096 
Q 3566 2609 3566 1747 
Q 3566 888 3137 398 
Q 2709 -91 1959 -91 
Q 1206 -91 779 398 
Q 353 888 353 1747 
Q 353 2609 779 3096 
Q 1206 3584 1959 3584 
z
" transform="scale(0.015625)"/>
       <path id="DejaVuSans-65" d="M 3597 1894 
L 3597 1613 
L 953 1613 
Q 991 1019 1311 708 
Q 1631 397 2203 397 
Q 2534 397 2845 478 
Q 3156 559 3463 722 
L 3463 178 
Q 3153 47 2828 -22 
Q 2503 -91 2169 -91 
Q 1331 -91 842 396 
Q 353 884 353 1716 
Q 353 2575 817 3079 
Q 1281 3584 2069 3584 
Q 2775 3584 3186 3129 
Q 3597 2675 3597 1894 
z
M 3022 2063 
Q 3016 2534 2758 2815 
Q 2500 3097 2075 3097 
Q 1594 3097 1305 2825 
Q 1016 2553 972 2059 
L 3022 2063 
z
" transform="scale(0.015625)"/>
      </defs>
      <use xlink:href="#DejaVuSans-54"/>
      <use xlink:href="#DejaVuSans-72" x="46.333984"/>
      <use xlink:href="#DejaVuSans-6f" x="85.197266"/>
      <use xlink:href="#DejaVuSans-74" x="146.378906"/>
      <use xlink:href="#DejaVuSans-74" x="185.587891"/>
      <use xlink:href="#DejaVuSans-65" x="224.796875"/>
      <use xlink:href="#DejaVuSans-72" x="286.320312"/>
     </g>
    </g>
   </g>
  </g>
 </g>
 <defs>
  <clipPath id="p5ee337fd27">
   <rect x="57.6" y="41.472" width="357.12" height="266.112"/>
  </clipPath>
 </defs>
</svg>
