<?xml version="1.0" encoding="utf-8" standalone="no"?>
<!DOCTYPE svg PUBLIC "-//W3C//DTD SVG 1.1//EN"
  "http://www.w3.org/Graphics/SVG/1.1/DTD/svg11.dtd">
<svg xmlns:xlink="http://www.w3.org/1999/xlink" width="460.8pt" height="345.6pt" viewBox="0 0 460.8 345.6" xmlns="http://www.w3.org/2000/svg" version="1.1">
 <metadata>
  <rdf:RDF xmlns:dc="http://purl.org/dc/elements/1.1/" xmlns:cc="http://creativecommons.org/ns#" xmlns:rdf="http://www.w3.org/1999/02/22-rdf-syntax-ns#">
   <cc:Work>
    <dc:type rdf:resource="http://purl.org/dc/dcmitype/StillImage"/>
    <dc:date>2024-05-31T10:36:05.565694</dc:date>
    <dc:format>image/svg+xml</dc:format>
    <dc:creator>
     <cc:Agent>
      <dc:title>Matplotlib v3.7.1, https://matplotlib.org/</dc:title>
     </cc:Agent>
    </dc:creator>
   </cc:Work>
  </rdf:RDF>
 </metadata>
 <defs>
  <style type="text/css">*{stroke-linejoin: round; stroke-linecap: butt}</style>
 </defs>
 <g id="figure_1">
  <g id="patch_1">
   <path d="M 0 345.6 
L 460.8 345.6 
L 460.8 0 
L 0 0 
z
" style="fill: #ffffff"/>
  </g>
  <g id="axes_1">
   <g id="patch_2">
    <path d="M 57.6 307.584 
L 414.72 307.584 
L 414.72 41.472 
L 57.6 41.472 
z
" style="fill: #ffffff"/>
   </g>
   <g id="matplotlib.axis_1">
    <g id="xtick_1">
     <g id="line2d_1">
      <defs>
       <path id="mf5578b5fb3" d="M 0 0 
L 0 3.5 
" style="stroke: #000000; stroke-width: 0.8"/>
      </defs>
      <g>
       <use xlink:href="#mf5578b5fb3" x="73.832727" y="307.584" style="stroke: #000000; stroke-width: 0.8"/>
      </g>
     </g>
     <g id="text_1">
      <!-- 0 -->
      <g transform="translate(70.651477 322.182437) scale(0.1 -0.1)">
       <defs>
        <path id="DejaVuSans-30" d="M 2034 4250 
Q 1547 4250 1301 3770 
Q 1056 3291 1056 2328 
Q 1056 1369 1301 889 
Q 1547 409 2034 409 
Q 2525 409 2770 889 
Q 3016 1369 3016 2328 
Q 3016 3291 2770 3770 
Q 2525 4250 2034 4250 
z
M 2034 4750 
Q 2819 4750 3233 4129 
Q 3647 3509 3647 2328 
Q 3647 1150 3233 529 
Q 2819 -91 2034 -91 
Q 1250 -91 836 529 
Q 422 1150 422 2328 
Q 422 3509 836 4129 
Q 1250 4750 2034 4750 
z
" transform="scale(0.015625)"/>
       </defs>
       <use xlink:href="#DejaVuSans-30"/>
      </g>
     </g>
    </g>
    <g id="xtick_2">
     <g id="line2d_2">
      <g>
       <use xlink:href="#mf5578b5fb3" x="137.303802" y="307.584" style="stroke: #000000; stroke-width: 0.8"/>
      </g>
     </g>
     <g id="text_2">
      <!-- 200 -->
      <g transform="translate(127.760052 322.182437) scale(0.1 -0.1)">
       <defs>
        <path id="DejaVuSans-32" d="M 1228 531 
L 3431 531 
L 3431 0 
L 469 0 
L 469 531 
Q 828 903 1448 1529 
Q 2069 2156 2228 2338 
Q 2531 2678 2651 2914 
Q 2772 3150 2772 3378 
Q 2772 3750 2511 3984 
Q 2250 4219 1831 4219 
Q 1534 4219 1204 4116 
Q 875 4013 500 3803 
L 500 4441 
Q 881 4594 1212 4672 
Q 1544 4750 1819 4750 
Q 2544 4750 2975 4387 
Q 3406 4025 3406 3419 
Q 3406 3131 3298 2873 
Q 3191 2616 2906 2266 
Q 2828 2175 2409 1742 
Q 1991 1309 1228 531 
z
" transform="scale(0.015625)"/>
       </defs>
       <use xlink:href="#DejaVuSans-32"/>
       <use xlink:href="#DejaVuSans-30" x="63.623047"/>
       <use xlink:href="#DejaVuSans-30" x="127.246094"/>
      </g>
     </g>
    </g>
    <g id="xtick_3">
     <g id="line2d_3">
      <g>
       <use xlink:href="#mf5578b5fb3" x="200.774876" y="307.584" style="stroke: #000000; stroke-width: 0.8"/>
      </g>
     </g>
     <g id="text_3">
      <!-- 400 -->
      <g transform="translate(191.231126 322.182437) scale(0.1 -0.1)">
       <defs>
        <path id="DejaVuSans-34" d="M 2419 4116 
L 825 1625 
L 2419 1625 
L 2419 4116 
z
M 2253 4666 
L 3047 4666 
L 3047 1625 
L 3713 1625 
L 3713 1100 
L 3047 1100 
L 3047 0 
L 2419 0 
L 2419 1100 
L 313 1100 
L 313 1709 
L 2253 4666 
z
" transform="scale(0.015625)"/>
       </defs>
       <use xlink:href="#DejaVuSans-34"/>
       <use xlink:href="#DejaVuSans-30" x="63.623047"/>
       <use xlink:href="#DejaVuSans-30" x="127.246094"/>
      </g>
     </g>
    </g>
    <g id="xtick_4">
     <g id="line2d_4">
      <g>
       <use xlink:href="#mf5578b5fb3" x="264.24595" y="307.584" style="stroke: #000000; stroke-width: 0.8"/>
      </g>
     </g>
     <g id="text_4">
      <!-- 600 -->
      <g transform="translate(254.7022 322.182437) scale(0.1 -0.1)">
       <defs>
        <path id="DejaVuSans-36" d="M 2113 2584 
Q 1688 2584 1439 2293 
Q 1191 2003 1191 1497 
Q 1191 994 1439 701 
Q 1688 409 2113 409 
Q 2538 409 2786 701 
Q 3034 994 3034 1497 
Q 3034 2003 2786 2293 
Q 2538 2584 2113 2584 
z
M 3366 4563 
L 3366 3988 
Q 3128 4100 2886 4159 
Q 2644 4219 2406 4219 
Q 1781 4219 1451 3797 
Q 1122 3375 1075 2522 
Q 1259 2794 1537 2939 
Q 1816 3084 2150 3084 
Q 2853 3084 3261 2657 
Q 3669 2231 3669 1497 
Q 3669 778 3244 343 
Q 2819 -91 2113 -91 
Q 1303 -91 875 529 
Q 447 1150 447 2328 
Q 447 3434 972 4092 
Q 1497 4750 2381 4750 
Q 2619 4750 2861 4703 
Q 3103 4656 3366 4563 
z
" transform="scale(0.015625)"/>
       </defs>
       <use xlink:href="#DejaVuSans-36"/>
       <use xlink:href="#DejaVuSans-30" x="63.623047"/>
       <use xlink:href="#DejaVuSans-30" x="127.246094"/>
      </g>
     </g>
    </g>
    <g id="xtick_5">
     <g id="line2d_5">
      <g>
       <use xlink:href="#mf5578b5fb3" x="327.717025" y="307.584" style="stroke: #000000; stroke-width: 0.8"/>
      </g>
     </g>
     <g id="text_5">
      <!-- 800 -->
      <g transform="translate(318.173275 322.182437) scale(0.1 -0.1)">
       <defs>
        <path id="DejaVuSans-38" d="M 2034 2216 
Q 1584 2216 1326 1975 
Q 1069 1734 1069 1313 
Q 1069 891 1326 650 
Q 1584 409 2034 409 
Q 2484 409 2743 651 
Q 3003 894 3003 1313 
Q 3003 1734 2745 1975 
Q 2488 2216 2034 2216 
z
M 1403 2484 
Q 997 2584 770 2862 
Q 544 3141 544 3541 
Q 544 4100 942 4425 
Q 1341 4750 2034 4750 
Q 2731 4750 3128 4425 
Q 3525 4100 3525 3541 
Q 3525 3141 3298 2862 
Q 3072 2584 2669 2484 
Q 3125 2378 3379 2068 
Q 3634 1759 3634 1313 
Q 3634 634 3220 271 
Q 2806 -91 2034 -91 
Q 1263 -91 848 271 
Q 434 634 434 1313 
Q 434 1759 690 2068 
Q 947 2378 1403 2484 
z
M 1172 3481 
Q 1172 3119 1398 2916 
Q 1625 2713 2034 2713 
Q 2441 2713 2670 2916 
Q 2900 3119 2900 3481 
Q 2900 3844 2670 4047 
Q 2441 4250 2034 4250 
Q 1625 4250 1398 4047 
Q 1172 3844 1172 3481 
z
" transform="scale(0.015625)"/>
       </defs>
       <use xlink:href="#DejaVuSans-38"/>
       <use xlink:href="#DejaVuSans-30" x="63.623047"/>
       <use xlink:href="#DejaVuSans-30" x="127.246094"/>
      </g>
     </g>
    </g>
    <g id="xtick_6">
     <g id="line2d_6">
      <g>
       <use xlink:href="#mf5578b5fb3" x="391.188099" y="307.584" style="stroke: #000000; stroke-width: 0.8"/>
      </g>
     </g>
     <g id="text_6">
      <!-- 1000 -->
      <g transform="translate(378.463099 322.182437) scale(0.1 -0.1)">
       <defs>
        <path id="DejaVuSans-31" d="M 794 531 
L 1825 531 
L 1825 4091 
L 703 3866 
L 703 4441 
L 1819 4666 
L 2450 4666 
L 2450 531 
L 3481 531 
L 3481 0 
L 794 0 
L 794 531 
z
" transform="scale(0.015625)"/>
       </defs>
       <use xlink:href="#DejaVuSans-31"/>
       <use xlink:href="#DejaVuSans-30" x="63.623047"/>
       <use xlink:href="#DejaVuSans-30" x="127.246094"/>
       <use xlink:href="#DejaVuSans-30" x="190.869141"/>
      </g>
     </g>
    </g>
    <g id="text_7">
     <!-- n -->
     <g transform="translate(232.99125 335.860562) scale(0.1 -0.1)">
      <defs>
       <path id="DejaVuSans-6e" d="M 3513 2113 
L 3513 0 
L 2938 0 
L 2938 2094 
Q 2938 2591 2744 2837 
Q 2550 3084 2163 3084 
Q 1697 3084 1428 2787 
Q 1159 2491 1159 1978 
L 1159 0 
L 581 0 
L 581 3500 
L 1159 3500 
L 1159 2956 
Q 1366 3272 1645 3428 
Q 1925 3584 2291 3584 
Q 2894 3584 3203 3211 
Q 3513 2838 3513 2113 
z
" transform="scale(0.015625)"/>
      </defs>
      <use xlink:href="#DejaVuSans-6e"/>
     </g>
    </g>
   </g>
   <g id="matplotlib.axis_2">
    <g id="ytick_1">
     <g id="line2d_7">
      <defs>
       <path id="m6021e905ce" d="M 0 0 
L -3.5 0 
" style="stroke: #000000; stroke-width: 0.8"/>
      </defs>
      <g>
       <use xlink:href="#m6021e905ce" x="57.6" y="281.180764" style="stroke: #000000; stroke-width: 0.8"/>
      </g>
     </g>
     <g id="text_8">
      <!-- −2 -->
      <g transform="translate(35.857813 284.979983) scale(0.1 -0.1)">
       <defs>
        <path id="DejaVuSans-2212" d="M 678 2272 
L 4684 2272 
L 4684 1741 
L 678 1741 
L 678 2272 
z
" transform="scale(0.015625)"/>
       </defs>
       <use xlink:href="#DejaVuSans-2212"/>
       <use xlink:href="#DejaVuSans-32" x="83.789062"/>
      </g>
     </g>
    </g>
    <g id="ytick_2">
     <g id="line2d_8">
      <g>
       <use xlink:href="#m6021e905ce" x="57.6" y="226.86879" style="stroke: #000000; stroke-width: 0.8"/>
      </g>
     </g>
     <g id="text_9">
      <!-- −1 -->
      <g transform="translate(35.857813 230.668009) scale(0.1 -0.1)">
       <use xlink:href="#DejaVuSans-2212"/>
       <use xlink:href="#DejaVuSans-31" x="83.789062"/>
      </g>
     </g>
    </g>
    <g id="ytick_3">
     <g id="line2d_9">
      <g>
       <use xlink:href="#m6021e905ce" x="57.6" y="172.556817" style="stroke: #000000; stroke-width: 0.8"/>
      </g>
     </g>
     <g id="text_10">
      <!-- 0 -->
      <g transform="translate(44.2375 176.356036) scale(0.1 -0.1)">
       <use xlink:href="#DejaVuSans-30"/>
      </g>
     </g>
    </g>
    <g id="ytick_4">
     <g id="line2d_10">
      <g>
       <use xlink:href="#m6021e905ce" x="57.6" y="118.244843" style="stroke: #000000; stroke-width: 0.8"/>
      </g>
     </g>
     <g id="text_11">
      <!-- 1 -->
      <g transform="translate(44.2375 122.044062) scale(0.1 -0.1)">
       <use xlink:href="#DejaVuSans-31"/>
      </g>
     </g>
    </g>
    <g id="ytick_5">
     <g id="line2d_11">
      <g>
       <use xlink:href="#m6021e905ce" x="57.6" y="63.93287" style="stroke: #000000; stroke-width: 0.8"/>
      </g>
     </g>
     <g id="text_12">
      <!-- 2 -->
      <g transform="translate(44.2375 67.732088) scale(0.1 -0.1)">
       <use xlink:href="#DejaVuSans-32"/>
      </g>
     </g>
    </g>
    <g id="text_13">
     <!-- E*t -->
     <g transform="translate(29.778125 182.147531) rotate(-90) scale(0.1 -0.1)">
      <defs>
       <path id="DejaVuSans-45" d="M 628 4666 
L 3578 4666 
L 3578 4134 
L 1259 4134 
L 1259 2753 
L 3481 2753 
L 3481 2222 
L 1259 2222 
L 1259 531 
L 3634 531 
L 3634 0 
L 628 0 
L 628 4666 
z
" transform="scale(0.015625)"/>
       <path id="DejaVuSans-2a" d="M 3009 3897 
L 1888 3291 
L 3009 2681 
L 2828 2375 
L 1778 3009 
L 1778 1831 
L 1422 1831 
L 1422 3009 
L 372 2375 
L 191 2681 
L 1313 3291 
L 191 3897 
L 372 4206 
L 1422 3572 
L 1422 4750 
L 1778 4750 
L 1778 3572 
L 2828 4206 
L 3009 3897 
z
" transform="scale(0.015625)"/>
       <path id="DejaVuSans-74" d="M 1172 4494 
L 1172 3500 
L 2356 3500 
L 2356 3053 
L 1172 3053 
L 1172 1153 
Q 1172 725 1289 603 
Q 1406 481 1766 481 
L 2356 481 
L 2356 0 
L 1766 0 
Q 1100 0 847 248 
Q 594 497 594 1153 
L 594 3053 
L 172 3053 
L 172 3500 
L 594 3500 
L 594 4494 
L 1172 4494 
z
" transform="scale(0.015625)"/>
      </defs>
      <use xlink:href="#DejaVuSans-45"/>
      <use xlink:href="#DejaVuSans-2a" x="63.183594"/>
      <use xlink:href="#DejaVuSans-74" x="113.183594"/>
     </g>
    </g>
   </g>
   <g id="line2d_12">
    <path d="M 73.832727 295.488 
L 74.150083 287.741415 
L 75.419504 275.323928 
L 75.73686 273.95335 
L 76.054215 272.069166 
L 76.37157 271.960668 
L 76.688926 270.988346 
L 77.323636 267.671551 
L 77.640992 265.35844 
L 77.958347 264.47988 
L 78.275702 264.31794 
L 78.593058 263.35245 
L 78.910413 261.759483 
L 79.227769 261.162978 
L 79.545124 260.961246 
L 79.862479 260.296362 
L 80.179835 258.793603 
L 80.49719 258.534512 
L 80.814545 257.086163 
L 81.131901 256.544729 
L 81.449256 255.481477 
L 81.766612 255.045565 
L 82.718678 252.210375 
L 83.036033 252.038828 
L 83.353388 250.690397 
L 83.670744 250.532475 
L 83.988099 249.49146 
L 84.62281 248.739809 
L 85.257521 248.514383 
L 85.574876 247.594451 
L 85.892231 247.442219 
L 86.526942 245.998644 
L 87.161653 245.145468 
L 87.479008 244.541058 
L 87.796364 244.302569 
L 88.113719 243.765713 
L 88.74843 241.99234 
L 89.38314 241.782178 
L 91.604628 238.643654 
L 92.239339 238.145214 
L 92.556694 237.689657 
L 92.87405 237.609508 
L 93.191405 237.000469 
L 93.50876 236.914454 
L 94.143471 236.029145 
L 94.460826 235.363238 
L 94.778182 235.273126 
L 95.095537 234.907883 
L 95.412893 234.281153 
L 97.63438 232.565521 
L 97.951736 231.728198 
L 98.586446 231.606812 
L 98.903802 231.214031 
L 99.221157 231.147498 
L 99.538512 230.758498 
L 99.855868 230.613123 
L 100.173223 230.086033 
L 100.807934 229.684429 
L 101.125289 229.193265 
L 101.442645 228.95467 
L 101.76 228.870337 
L 102.077355 228.209236 
L 102.394711 227.84321 
L 102.712066 227.734599 
L 103.029421 227.417118 
L 103.346777 227.258031 
L 103.664132 226.481068 
L 104.616198 225.980241 
L 104.933554 225.901039 
L 105.568264 225.196254 
L 106.202975 224.879898 
L 106.520331 224.455415 
L 110.64595 221.608699 
L 110.963306 221.278658 
L 111.280661 221.198052 
L 111.915372 220.804661 
L 112.232727 220.741074 
L 113.184793 220.096981 
L 113.819504 219.50088 
L 114.13686 219.347121 
L 114.454215 219.031052 
L 114.77157 218.548228 
L 115.406281 218.36752 
L 115.723636 217.987676 
L 116.040992 217.94874 
L 116.675702 217.501775 
L 118.262479 216.346874 
L 119.214545 215.592942 
L 121.436033 214.672624 
L 121.753388 214.247874 
L 122.070744 214.06928 
L 122.388099 214.026406 
L 122.705455 213.703091 
L 123.340165 213.457194 
L 123.974876 212.778037 
L 124.292231 212.693166 
L 124.926942 212.205503 
L 125.244298 212.169884 
L 125.879008 211.859058 
L 126.513719 211.318782 
L 126.831074 211.253513 
L 127.14843 210.942153 
L 128.100496 210.530094 
L 128.417851 210.229604 
L 128.735207 210.188933 
L 129.052562 209.815481 
L 129.687273 209.561475 
L 130.956694 209.080256 
L 131.27405 208.942965 
L 131.591405 208.675171 
L 131.90876 208.58607 
L 132.226116 208.372969 
L 132.543471 208.32303 
L 133.178182 207.924211 
L 133.495537 207.857338 
L 133.812893 207.464031 
L 136.351736 206.491527 
L 136.669091 206.109006 
L 138.573223 205.106478 
L 139.842645 204.553717 
L 140.794711 204.174843 
L 141.429421 203.851379 
L 142.064132 203.617296 
L 142.698843 203.07017 
L 143.016198 202.971883 
L 143.333554 202.741657 
L 144.28562 202.502394 
L 145.237686 201.843711 
L 145.872397 201.620555 
L 149.363306 199.923258 
L 149.680661 199.913952 
L 150.950083 199.344607 
L 151.584793 199.112223 
L 153.488926 198.150965 
L 153.806281 198.089901 
L 154.440992 197.730151 
L 156.027769 197.088934 
L 156.345124 196.825337 
L 156.662479 196.803602 
L 157.29719 196.502381 
L 158.249256 196.250066 
L 158.566612 195.86559 
L 159.836033 195.439287 
L 160.788099 194.84904 
L 161.740165 194.502712 
L 164.279008 193.541044 
L 164.913719 193.299504 
L 165.231074 193.126648 
L 165.865785 192.986012 
L 167.769917 192.103658 
L 168.087273 192.053459 
L 169.039339 191.5333 
L 169.991405 191.239437 
L 172.530248 190.304042 
L 173.164959 190.2324 
L 173.482314 189.785828 
L 174.43438 189.572854 
L 175.069091 188.892601 
L 175.386446 188.860402 
L 176.973223 188.172988 
L 179.194711 187.420729 
L 179.829421 187.112488 
L 181.416198 186.420653 
L 182.050909 186.119858 
L 182.68562 185.817495 
L 184.589752 185.354609 
L 185.224463 185.072394 
L 186.176529 184.718462 
L 187.44595 184.00827 
L 189.032727 183.674826 
L 189.350083 183.475758 
L 189.984793 183.37589 
L 191.888926 182.547303 
L 192.840992 182.354626 
L 193.475702 182.076556 
L 194.110413 181.879197 
L 194.427769 181.628372 
L 195.379835 181.394593 
L 196.331901 180.968008 
L 196.649256 180.915118 
L 197.283967 180.5737 
L 197.918678 180.333944 
L 199.505455 179.786466 
L 200.140165 179.503935 
L 200.774876 179.365193 
L 202.044298 178.949445 
L 202.679008 178.615294 
L 203.313719 178.400621 
L 205.217851 177.564742 
L 205.852562 177.336462 
L 206.169917 177.068199 
L 208.07405 176.48939 
L 212.517025 174.915242 
L 215.055868 174.314255 
L 216.325289 173.680609 
L 216.96 173.513171 
L 218.229421 173.106674 
L 218.864132 172.670381 
L 220.133554 172.213001 
L 221.08562 172.040938 
L 221.720331 171.688314 
L 222.355041 171.547415 
L 222.672397 171.449855 
L 222.989752 171.1705 
L 223.624463 170.998307 
L 223.941818 170.768131 
L 224.576529 170.603691 
L 225.21124 170.361771 
L 227.115372 169.800818 
L 229.019504 169.162278 
L 230.923636 168.536707 
L 231.558347 168.386204 
L 234.731901 167.210459 
L 235.683967 167.070957 
L 236.318678 166.851898 
L 236.636033 166.628385 
L 237.270744 166.471262 
L 237.588099 166.283508 
L 238.857521 165.95019 
L 239.174876 165.695423 
L 239.492231 165.633735 
L 240.444298 165.174234 
L 241.079008 164.885972 
L 242.665785 164.634171 
L 248.378182 162.364221 
L 250.282314 161.777864 
L 251.23438 161.315713 
L 251.551736 161.281838 
L 252.503802 160.863604 
L 254.725289 160.140535 
L 255.042645 159.887967 
L 262.024463 157.771901 
L 262.976529 157.455124 
L 265.832727 156.432946 
L 266.467438 156.189351 
L 269.323636 155.174491 
L 270.593058 154.738064 
L 271.545124 154.184839 
L 272.49719 153.93213 
L 275.353388 152.96866 
L 275.670744 152.67738 
L 276.62281 152.432731 
L 277.892231 152.020852 
L 278.209587 151.79156 
L 279.796364 151.466895 
L 280.113719 151.414891 
L 280.74843 151.155381 
L 281.38314 150.927435 
L 284.239339 149.926533 
L 285.50876 149.411544 
L 288.999669 148.187086 
L 289.63438 147.870091 
L 290.269091 147.692171 
L 291.538512 147.243733 
L 292.807934 146.859344 
L 293.442645 146.548133 
L 297.568264 145.016618 
L 298.202975 144.86724 
L 298.520331 144.563906 
L 300.107107 143.963885 
L 301.059174 143.711789 
L 301.693884 143.447724 
L 303.915372 142.513919 
L 304.550083 142.351257 
L 305.502149 142.01034 
L 306.13686 141.843807 
L 307.088926 141.532763 
L 307.723636 141.370025 
L 312.166612 139.661373 
L 313.436033 138.995889 
L 315.657521 138.131591 
L 316.292231 137.940979 
L 316.926942 137.677111 
L 320.735207 136.098853 
L 328.351736 132.998921 
L 329.621157 132.432728 
L 329.938512 132.340833 
L 331.207934 131.505947 
L 332.794711 130.963912 
L 333.429421 130.680232 
L 334.064132 130.444624 
L 335.016198 129.9115 
L 335.650909 129.648851 
L 336.920331 129.06677 
L 339.459174 128.016693 
L 339.776529 127.782431 
L 340.41124 127.570363 
L 340.728595 127.284073 
L 341.04595 127.223156 
L 341.363306 126.987413 
L 341.998017 126.776067 
L 348.027769 123.810771 
L 349.614545 122.816205 
L 349.931901 122.747076 
L 350.566612 122.388794 
L 350.883967 122.25173 
L 352.153388 121.310374 
L 357.865785 118.156701 
L 358.18314 117.844117 
L 358.500496 117.721422 
L 359.135207 117.24031 
L 359.452562 116.977658 
L 360.404628 116.605622 
L 361.991405 115.469156 
L 362.30876 115.390934 
L 363.578182 114.64965 
L 363.895537 114.560415 
L 364.530248 114.141375 
L 365.164959 113.757211 
L 365.799669 113.091743 
L 367.069091 112.543339 
L 367.703802 111.973559 
L 368.338512 111.48769 
L 368.655868 111.147797 
L 368.973223 111.050701 
L 369.290579 110.506679 
L 369.607934 110.437849 
L 371.512066 109.206445 
L 371.829421 108.91235 
L 372.146777 108.781184 
L 373.098843 107.894441 
L 373.733554 107.580721 
L 374.050909 107.233179 
L 374.68562 107.033934 
L 375.002975 106.883828 
L 375.955041 105.493603 
L 376.589752 105.148624 
L 378.81124 103.303527 
L 379.44595 102.71533 
L 379.763306 102.62581 
L 381.032727 101.391067 
L 381.667438 100.964827 
L 382.302149 100.111526 
L 382.619504 99.963321 
L 383.254215 99.185244 
L 383.57157 98.956145 
L 383.888926 98.189529 
L 384.206281 98.03385 
L 384.840992 97.289615 
L 385.158347 96.596688 
L 385.793058 96.332861 
L 386.110413 95.90041 
L 386.427769 95.068618 
L 388.014545 92.863 
L 389.601322 90.321172 
L 390.236033 89.137832 
L 390.553388 88.949473 
L 391.188099 87.885006 
L 391.505455 86.87646 
L 391.82281 86.631039 
L 392.140165 85.556486 
L 392.774876 84.967599 
L 393.092231 84.341435 
L 393.409587 83.189621 
L 393.726942 82.856594 
L 394.044298 81.728665 
L 394.361653 81.399039 
L 394.679008 79.035469 
L 395.313719 78.173208 
L 396.58314 73.559035 
L 396.900496 70.058423 
L 397.217851 69.644202 
L 397.535207 66.590672 
L 397.852562 60.559949 
L 398.169917 59.597995 
L 398.487273 53.568 
L 398.487273 53.568 
" clip-path="url(#pc081f76e60)" style="fill: none; stroke: #1f77b4; stroke-width: 1.5; stroke-linecap: square"/>
   </g>
   <g id="line2d_13">
    <path d="M 73.832727 224.153192 
L 74.150083 218.721994 
L 74.467438 218.190345 
L 74.784793 216.647446 
L 75.102149 214.244334 
L 75.419504 213.290796 
L 76.054215 212.178947 
L 76.37157 211.216249 
L 76.688926 211.216249 
L 77.006281 210.738234 
L 77.323636 209.164724 
L 77.640992 208.813137 
L 78.275702 207.8596 
L 78.593058 207.859598 
L 78.910413 207.327951 
L 79.227769 207.309288 
L 80.179835 205.785052 
L 80.49719 205.785052 
L 81.131901 205.307037 
L 81.449256 205.159148 
L 83.036033 203.448446 
L 83.670744 203.245827 
L 83.988099 202.834665 
L 84.305455 202.797854 
L 84.62281 202.428402 
L 84.940165 202.428401 
L 85.257521 202.194799 
L 85.574876 202.166228 
L 85.892231 201.896754 
L 86.526942 201.757955 
L 87.161653 201.316554 
L 88.113719 200.675501 
L 88.431074 200.353855 
L 88.74843 200.353855 
L 89.065785 200.073071 
L 90.017851 199.793441 
L 90.335207 199.727952 
L 90.969917 199.071753 
L 91.921983 198.981444 
L 93.50876 198.017248 
L 94.460826 197.712734 
L 95.095537 197.442302 
L 96.047603 197.318093 
L 96.364959 196.997205 
L 96.682314 196.997203 
L 97.317025 196.763603 
L 97.63438 196.735029 
L 97.951736 196.465556 
L 98.903802 196.323883 
L 99.221157 196.141699 
L 100.490579 195.885357 
L 101.125289 195.594719 
L 101.76 195.289494 
L 102.077355 195.244305 
L 102.394711 194.928114 
L 103.029421 194.922658 
L 103.346777 194.641873 
L 103.981488 194.444643 
L 104.933554 194.296755 
L 105.250909 193.923235 
L 107.472397 193.550248 
L 107.789752 193.349243 
L 108.741818 193.189013 
L 109.693884 192.889021 
L 110.328595 192.854981 
L 110.64595 192.58605 
L 114.13686 191.886897 
L 114.454215 191.583247 
L 115.088926 191.566006 
L 115.723636 191.332407 
L 116.358347 191.291936 
L 116.675702 191.034359 
L 117.627769 190.892686 
L 117.945124 190.710504 
L 120.483967 190.512691 
L 121.436033 190.247221 
L 123.340165 189.814385 
L 123.657521 189.813108 
L 123.974876 189.496918 
L 124.926942 189.44479 
L 126.513719 189.093119 
L 127.465785 188.991434 
L 128.100496 188.865559 
L 128.417851 188.492038 
L 132.543471 187.757816 
L 133.495537 187.494817 
L 134.447603 187.423784 
L 134.764959 187.154852 
L 136.669091 186.850337 
L 136.986446 186.725233 
L 139.525289 186.579908 
L 140.794711 186.4557 
L 141.112066 186.197541 
L 143.968264 185.827113 
L 144.28562 185.603162 
L 145.237686 185.461489 
L 147.459174 185.167887 
L 149.998017 184.816023 
L 151.267438 184.573282 
L 151.584793 184.569628 
L 152.219504 184.383187 
L 152.854215 184.275025 
L 153.806281 184.060265 
L 154.758347 184.013592 
L 155.710413 183.789069 
L 156.345124 183.669556 
L 157.29719 183.582249 
L 158.883967 183.434363 
L 159.201322 183.115304 
L 160.470744 183.003102 
L 163.644298 182.639501 
L 163.961653 182.489594 
L 165.231074 182.354609 
L 166.500496 182.173199 
L 167.452562 182.026628 
L 168.087273 181.992586 
L 168.404628 181.723655 
L 170.30876 181.509679 
L 170.626116 181.294034 
L 173.164959 181.148711 
L 174.751736 180.993612 
L 175.386446 180.796052 
L 176.655868 180.703612 
L 176.973223 180.544546 
L 178.242645 180.429542 
L 179.194711 180.347526 
L 179.512066 180.171965 
L 181.098843 180.030292 
L 183.637686 179.684344 
L 184.589752 179.591766 
L 186.493884 179.384826 
L 187.44595 179.2759 
L 187.763306 179.146825 
L 188.398017 179.138432 
L 189.032727 178.951989 
L 189.984793 178.70504 
L 196.966612 178.003166 
L 197.283967 177.684104 
L 197.918678 177.571904 
L 201.726942 177.208301 
L 202.044298 177.06217 
L 203.631074 176.938073 
L 206.169917 176.722483 
L 208.07405 176.228805 
L 209.026116 176.128804 
L 209.343471 176.089851 
L 209.660826 175.862836 
L 212.83438 175.717515 
L 214.421157 175.562413 
L 215.055868 175.375592 
L 216.96 175.218077 
L 217.594711 175.110278 
L 219.498843 174.828825 
L 220.133554 174.731343 
L 221.402975 174.617017 
L 222.355041 174.542273 
L 222.989752 174.405964 
L 223.624463 174.318873 
L 225.21124 174.202347 
L 225.84595 174.099805 
L 226.480661 174.025216 
L 228.067438 173.715627 
L 229.019504 173.648212 
L 229.654215 173.543307 
L 230.288926 173.412626 
L 231.240992 173.243653 
L 232.510413 173.151199 
L 233.462479 173.078038 
L 234.414545 172.960839 
L 237.905455 172.57197 
L 238.22281 172.252904 
L 238.857521 172.140706 
L 242.34843 171.786557 
L 242.665785 171.646315 
L 244.887273 171.464225 
L 245.521983 171.379929 
L 249.330248 170.928614 
L 249.964959 170.797605 
L 250.599669 170.745414 
L 252.186446 170.427274 
L 254.725289 170.28436 
L 255.677355 170.131213 
L 255.994711 169.980709 
L 258.533554 169.816669 
L 258.850909 169.682153 
L 259.802975 169.567148 
L 262.659174 169.178207 
L 263.61124 169.111075 
L 264.24595 168.900092 
L 266.467438 168.707147 
L 268.054215 168.518518 
L 268.688926 168.382306 
L 270.593058 168.089593 
L 270.910413 167.842643 
L 275.988099 167.292691 
L 276.62281 167.201069 
L 278.209587 167.111484 
L 279.479008 166.679971 
L 281.38314 166.555754 
L 283.287273 166.188531 
L 284.239339 166.075678 
L 287.730248 165.698994 
L 288.364959 165.602308 
L 289.63438 165.392787 
L 290.903802 165.176745 
L 291.221157 164.997491 
L 293.442645 164.853161 
L 294.077355 164.689761 
L 294.394711 164.536997 
L 297.568264 164.211228 
L 299.789752 163.797446 
L 308.993058 162.490633 
L 310.262479 162.285244 
L 312.166612 162.027843 
L 313.118678 161.861492 
L 313.753388 161.76987 
L 315.02281 161.563698 
L 315.657521 161.248772 
L 317.244298 161.124558 
L 317.879008 161.053367 
L 318.196364 161.032254 
L 318.513719 160.783914 
L 320.735207 160.568202 
L 321.369917 160.448411 
L 321.687273 160.443517 
L 322.321983 160.278482 
L 323.90876 160.15153 
L 326.130248 159.728751 
L 326.447603 159.566293 
L 327.717025 159.433798 
L 328.03438 159.421963 
L 328.669091 159.186108 
L 329.303802 159.081995 
L 330.890579 158.975739 
L 331.525289 158.704754 
L 332.477355 158.622728 
L 332.794711 158.437756 
L 334.698843 158.311825 
L 337.237686 157.819493 
L 337.555041 157.577466 
L 339.141818 157.354619 
L 339.776529 157.227198 
L 340.093884 157.015873 
L 341.363306 156.854045 
L 341.680661 156.708962 
L 342.950083 156.593692 
L 343.902149 156.441998 
L 345.488926 156.278047 
L 346.123636 156.132499 
L 346.440992 155.817573 
L 347.075702 155.814116 
L 347.710413 155.622169 
L 348.027769 155.601052 
L 348.345124 155.337371 
L 349.29719 155.137005 
L 349.931901 155.030465 
L 350.566612 155.012315 
L 351.201322 154.749698 
L 352.470744 154.635022 
L 356.913719 153.639296 
L 357.54843 153.551248 
L 358.18314 153.268881 
L 358.500496 153.220118 
L 359.135207 152.884617 
L 360.087273 152.763219 
L 360.404628 152.47113 
L 361.039339 152.413556 
L 361.356694 152.146273 
L 364.212893 151.549048 
L 365.164959 151.277768 
L 365.799669 151.165447 
L 366.751736 150.999094 
L 367.386446 150.907473 
L 367.703802 150.846846 
L 368.021157 150.532711 
L 368.338512 150.386374 
L 368.655868 150.38335 
L 369.607934 149.868919 
L 372.464132 149.125 
L 373.098843 148.703897 
L 374.368264 148.219597 
L 375.320331 148.120045 
L 375.637686 147.837677 
L 376.272397 147.658547 
L 377.541818 147.380519 
L 377.859174 147.03993 
L 378.493884 146.982358 
L 378.81124 146.622964 
L 379.128595 146.617928 
L 379.763306 146.11785 
L 380.398017 145.838257 
L 381.350083 145.579601 
L 381.984793 145.476274 
L 382.302149 145.415646 
L 383.254215 144.474973 
L 383.57157 144.468811 
L 384.840992 143.78398 
L 385.475702 143.693804 
L 386.110413 143.435146 
L 386.745124 142.904167 
L 387.379835 142.748187 
L 387.69719 142.688842 
L 388.014545 142.132682 
L 388.331901 141.94932 
L 388.649256 141.608729 
L 388.966612 141.557073 
L 389.283967 141.191765 
L 389.601322 141.186732 
L 390.553388 140.148403 
L 390.870744 140.136698 
L 391.188099 139.735127 
L 391.82281 139.670319 
L 392.140165 138.736864 
L 392.457521 138.334674 
L 393.409587 137.69815 
L 393.726942 137.316989 
L 394.361653 136.177529 
L 394.679008 135.760567 
L 394.996364 135.666045 
L 395.631074 135.068261 
L 396.58314 132.903477 
L 396.900496 132.712001 
L 397.217851 129.860418 
L 397.535207 129.63706 
L 397.852562 128.813575 
L 398.487273 124.429211 
L 398.487273 124.429211 
" clip-path="url(#pc081f76e60)" style="fill: none; stroke: #ff7f0e; stroke-width: 1.5; stroke-linecap: square"/>
   </g>
   <g id="patch_3">
    <path d="M 57.6 307.584 
L 57.6 41.472 
" style="fill: none; stroke: #000000; stroke-width: 0.8; stroke-linejoin: miter; stroke-linecap: square"/>
   </g>
   <g id="patch_4">
    <path d="M 414.72 307.584 
L 414.72 41.472 
" style="fill: none; stroke: #000000; stroke-width: 0.8; stroke-linejoin: miter; stroke-linecap: square"/>
   </g>
   <g id="patch_5">
    <path d="M 57.6 307.584 
L 414.72 307.584 
" style="fill: none; stroke: #000000; stroke-width: 0.8; stroke-linejoin: miter; stroke-linecap: square"/>
   </g>
   <g id="patch_6">
    <path d="M 57.6 41.472 
L 414.72 41.472 
" style="fill: none; stroke: #000000; stroke-width: 0.8; stroke-linejoin: miter; stroke-linecap: square"/>
   </g>
   <g id="legend_1">
    <g id="patch_7">
     <path d="M 64.6 78.82825 
L 129.342187 78.82825 
Q 131.342187 78.82825 131.342187 76.82825 
L 131.342187 48.472 
Q 131.342187 46.472 129.342187 46.472 
L 64.6 46.472 
Q 62.6 46.472 62.6 48.472 
L 62.6 76.82825 
Q 62.6 78.82825 64.6 78.82825 
z
" style="fill: #ffffff; opacity: 0.8; stroke: #cccccc; stroke-linejoin: miter"/>
    </g>
    <g id="line2d_14">
     <path d="M 66.6 54.570437 
L 76.6 54.570437 
L 86.6 54.570437 
" style="fill: none; stroke: #1f77b4; stroke-width: 1.5; stroke-linecap: square"/>
    </g>
    <g id="text_14">
     <!-- qc -->
     <g transform="translate(94.6 58.070437) scale(0.1 -0.1)">
      <defs>
       <path id="DejaVuSans-71" d="M 947 1747 
Q 947 1113 1208 752 
Q 1469 391 1925 391 
Q 2381 391 2643 752 
Q 2906 1113 2906 1747 
Q 2906 2381 2643 2742 
Q 2381 3103 1925 3103 
Q 1469 3103 1208 2742 
Q 947 2381 947 1747 
z
M 2906 525 
Q 2725 213 2448 61 
Q 2172 -91 1784 -91 
Q 1150 -91 751 415 
Q 353 922 353 1747 
Q 353 2572 751 3078 
Q 1150 3584 1784 3584 
Q 2172 3584 2448 3432 
Q 2725 3281 2906 2969 
L 2906 3500 
L 3481 3500 
L 3481 -1331 
L 2906 -1331 
L 2906 525 
z
" transform="scale(0.015625)"/>
       <path id="DejaVuSans-63" d="M 3122 3366 
L 3122 2828 
Q 2878 2963 2633 3030 
Q 2388 3097 2138 3097 
Q 1578 3097 1268 2742 
Q 959 2388 959 1747 
Q 959 1106 1268 751 
Q 1578 397 2138 397 
Q 2388 397 2633 464 
Q 2878 531 3122 666 
L 3122 134 
Q 2881 22 2623 -34 
Q 2366 -91 2075 -91 
Q 1284 -91 818 406 
Q 353 903 353 1747 
Q 353 2603 823 3093 
Q 1294 3584 2113 3584 
Q 2378 3584 2631 3529 
Q 2884 3475 3122 3366 
z
" transform="scale(0.015625)"/>
      </defs>
      <use xlink:href="#DejaVuSans-71"/>
      <use xlink:href="#DejaVuSans-63" x="63.476562"/>
     </g>
    </g>
    <g id="line2d_15">
     <path d="M 66.6 69.248562 
L 76.6 69.248562 
L 86.6 69.248562 
" style="fill: none; stroke: #ff7f0e; stroke-width: 1.5; stroke-linecap: square"/>
    </g>
    <g id="text_15">
     <!-- Trotter -->
     <g transform="translate(94.6 72.748562) scale(0.1 -0.1)">
      <defs>
       <path id="DejaVuSans-54" d="M -19 4666 
L 3928 4666 
L 3928 4134 
L 2272 4134 
L 2272 0 
L 1638 0 
L 1638 4134 
L -19 4134 
L -19 4666 
z
" transform="scale(0.015625)"/>
       <path id="DejaVuSans-72" d="M 2631 2963 
Q 2534 3019 2420 3045 
Q 2306 3072 2169 3072 
Q 1681 3072 1420 2755 
Q 1159 2438 1159 1844 
L 1159 0 
L 581 0 
L 581 3500 
L 1159 3500 
L 1159 2956 
Q 1341 3275 1631 3429 
Q 1922 3584 2338 3584 
Q 2397 3584 2469 3576 
Q 2541 3569 2628 3553 
L 2631 2963 
z
" transform="scale(0.015625)"/>
       <path id="DejaVuSans-6f" d="M 1959 3097 
Q 1497 3097 1228 2736 
Q 959 2375 959 1747 
Q 959 1119 1226 758 
Q 1494 397 1959 397 
Q 2419 397 2687 759 
Q 2956 1122 2956 1747 
Q 2956 2369 2687 2733 
Q 2419 3097 1959 3097 
z
M 1959 3584 
Q 2709 3584 3137 3096 
Q 3566 2609 3566 1747 
Q 3566 888 3137 398 
Q 2709 -91 1959 -91 
Q 1206 -91 779 398 
Q 353 888 353 1747 
Q 353 2609 779 3096 
Q 1206 3584 1959 3584 
z
" transform="scale(0.015625)"/>
       <path id="DejaVuSans-65" d="M 3597 1894 
L 3597 1613 
L 953 1613 
Q 991 1019 1311 708 
Q 1631 397 2203 397 
Q 2534 397 2845 478 
Q 3156 559 3463 722 
L 3463 178 
Q 3153 47 2828 -22 
Q 2503 -91 2169 -91 
Q 1331 -91 842 396 
Q 353 884 353 1716 
Q 353 2575 817 3079 
Q 1281 3584 2069 3584 
Q 2775 3584 3186 3129 
Q 3597 2675 3597 1894 
z
M 3022 2063 
Q 3016 2534 2758 2815 
Q 2500 3097 2075 3097 
Q 1594 3097 1305 2825 
Q 1016 2553 972 2059 
L 3022 2063 
z
" transform="scale(0.015625)"/>
      </defs>
      <use xlink:href="#DejaVuSans-54"/>
      <use xlink:href="#DejaVuSans-72" x="46.333984"/>
      <use xlink:href="#DejaVuSans-6f" x="85.197266"/>
      <use xlink:href="#DejaVuSans-74" x="146.378906"/>
      <use xlink:href="#DejaVuSans-74" x="185.587891"/>
      <use xlink:href="#DejaVuSans-65" x="224.796875"/>
      <use xlink:href="#DejaVuSans-72" x="286.320312"/>
     </g>
    </g>
   </g>
  </g>
 </g>
 <defs>
  <clipPath id="pc081f76e60">
   <rect x="57.6" y="41.472" width="357.12" height="266.112"/>
  </clipPath>
 </defs>
</svg>
