<?xml version="1.0" encoding="utf-8" standalone="no"?>
<!DOCTYPE svg PUBLIC "-//W3C//DTD SVG 1.1//EN"
  "http://www.w3.org/Graphics/SVG/1.1/DTD/svg11.dtd">
<svg xmlns:xlink="http://www.w3.org/1999/xlink" width="460.8pt" height="345.6pt" viewBox="0 0 460.8 345.6" xmlns="http://www.w3.org/2000/svg" version="1.1">
 <metadata>
  <rdf:RDF xmlns:dc="http://purl.org/dc/elements/1.1/" xmlns:cc="http://creativecommons.org/ns#" xmlns:rdf="http://www.w3.org/1999/02/22-rdf-syntax-ns#">
   <cc:Work>
    <dc:type rdf:resource="http://purl.org/dc/dcmitype/StillImage"/>
    <dc:date>2024-04-19T02:45:29.391492</dc:date>
    <dc:format>image/svg+xml</dc:format>
    <dc:creator>
     <cc:Agent>
      <dc:title>Matplotlib v3.7.1, https://matplotlib.org/</dc:title>
     </cc:Agent>
    </dc:creator>
   </cc:Work>
  </rdf:RDF>
 </metadata>
 <defs>
  <style type="text/css">*{stroke-linejoin: round; stroke-linecap: butt}</style>
 </defs>
 <g id="figure_1">
  <g id="patch_1">
   <path d="M 0 345.6 
L 460.8 345.6 
L 460.8 0 
L 0 0 
z
" style="fill: #ffffff"/>
  </g>
  <g id="axes_1">
   <g id="patch_2">
    <path d="M 57.6 307.584 
L 414.72 307.584 
L 414.72 41.472 
L 57.6 41.472 
z
" style="fill: #ffffff"/>
   </g>
   <g id="matplotlib.axis_1">
    <g id="xtick_1">
     <g id="line2d_1">
      <defs>
       <path id="mdeac1fb613" d="M 0 0 
L 0 3.5 
" style="stroke: #000000; stroke-width: 0.8"/>
      </defs>
      <g>
       <use xlink:href="#mdeac1fb613" x="73.832727" y="307.584" style="stroke: #000000; stroke-width: 0.8"/>
      </g>
     </g>
     <g id="text_1">
      <!-- $\mathdefault{10^{0}}$ -->
      <g transform="translate(65.032727 322.182437) scale(0.1 -0.1)">
       <defs>
        <path id="DejaVuSans-31" d="M 794 531 
L 1825 531 
L 1825 4091 
L 703 3866 
L 703 4441 
L 1819 4666 
L 2450 4666 
L 2450 531 
L 3481 531 
L 3481 0 
L 794 0 
L 794 531 
z
" transform="scale(0.015625)"/>
        <path id="DejaVuSans-30" d="M 2034 4250 
Q 1547 4250 1301 3770 
Q 1056 3291 1056 2328 
Q 1056 1369 1301 889 
Q 1547 409 2034 409 
Q 2525 409 2770 889 
Q 3016 1369 3016 2328 
Q 3016 3291 2770 3770 
Q 2525 4250 2034 4250 
z
M 2034 4750 
Q 2819 4750 3233 4129 
Q 3647 3509 3647 2328 
Q 3647 1150 3233 529 
Q 2819 -91 2034 -91 
Q 1250 -91 836 529 
Q 422 1150 422 2328 
Q 422 3509 836 4129 
Q 1250 4750 2034 4750 
z
" transform="scale(0.015625)"/>
       </defs>
       <use xlink:href="#DejaVuSans-31" transform="translate(0 0.765625)"/>
       <use xlink:href="#DejaVuSans-30" transform="translate(63.623047 0.765625)"/>
       <use xlink:href="#DejaVuSans-30" transform="translate(128.203125 39.046875) scale(0.7)"/>
      </g>
     </g>
    </g>
    <g id="xtick_2">
     <g id="line2d_2">
      <g>
       <use xlink:href="#mdeac1fb613" x="181.695837" y="307.584" style="stroke: #000000; stroke-width: 0.8"/>
      </g>
     </g>
     <g id="text_2">
      <!-- $\mathdefault{10^{1}}$ -->
      <g transform="translate(172.895837 322.182437) scale(0.1 -0.1)">
       <use xlink:href="#DejaVuSans-31" transform="translate(0 0.684375)"/>
       <use xlink:href="#DejaVuSans-30" transform="translate(63.623047 0.684375)"/>
       <use xlink:href="#DejaVuSans-31" transform="translate(128.203125 38.965625) scale(0.7)"/>
      </g>
     </g>
    </g>
    <g id="xtick_3">
     <g id="line2d_3">
      <g>
       <use xlink:href="#mdeac1fb613" x="289.558947" y="307.584" style="stroke: #000000; stroke-width: 0.8"/>
      </g>
     </g>
     <g id="text_3">
      <!-- $\mathdefault{10^{2}}$ -->
      <g transform="translate(280.758947 322.182437) scale(0.1 -0.1)">
       <defs>
        <path id="DejaVuSans-32" d="M 1228 531 
L 3431 531 
L 3431 0 
L 469 0 
L 469 531 
Q 828 903 1448 1529 
Q 2069 2156 2228 2338 
Q 2531 2678 2651 2914 
Q 2772 3150 2772 3378 
Q 2772 3750 2511 3984 
Q 2250 4219 1831 4219 
Q 1534 4219 1204 4116 
Q 875 4013 500 3803 
L 500 4441 
Q 881 4594 1212 4672 
Q 1544 4750 1819 4750 
Q 2544 4750 2975 4387 
Q 3406 4025 3406 3419 
Q 3406 3131 3298 2873 
Q 3191 2616 2906 2266 
Q 2828 2175 2409 1742 
Q 1991 1309 1228 531 
z
" transform="scale(0.015625)"/>
       </defs>
       <use xlink:href="#DejaVuSans-31" transform="translate(0 0.765625)"/>
       <use xlink:href="#DejaVuSans-30" transform="translate(63.623047 0.765625)"/>
       <use xlink:href="#DejaVuSans-32" transform="translate(128.203125 39.046875) scale(0.7)"/>
      </g>
     </g>
    </g>
    <g id="xtick_4">
     <g id="line2d_4">
      <g>
       <use xlink:href="#mdeac1fb613" x="397.422056" y="307.584" style="stroke: #000000; stroke-width: 0.8"/>
      </g>
     </g>
     <g id="text_4">
      <!-- $\mathdefault{10^{3}}$ -->
      <g transform="translate(388.622056 322.182437) scale(0.1 -0.1)">
       <defs>
        <path id="DejaVuSans-33" d="M 2597 2516 
Q 3050 2419 3304 2112 
Q 3559 1806 3559 1356 
Q 3559 666 3084 287 
Q 2609 -91 1734 -91 
Q 1441 -91 1130 -33 
Q 819 25 488 141 
L 488 750 
Q 750 597 1062 519 
Q 1375 441 1716 441 
Q 2309 441 2620 675 
Q 2931 909 2931 1356 
Q 2931 1769 2642 2001 
Q 2353 2234 1838 2234 
L 1294 2234 
L 1294 2753 
L 1863 2753 
Q 2328 2753 2575 2939 
Q 2822 3125 2822 3475 
Q 2822 3834 2567 4026 
Q 2313 4219 1838 4219 
Q 1578 4219 1281 4162 
Q 984 4106 628 3988 
L 628 4550 
Q 988 4650 1302 4700 
Q 1616 4750 1894 4750 
Q 2613 4750 3031 4423 
Q 3450 4097 3450 3541 
Q 3450 3153 3228 2886 
Q 3006 2619 2597 2516 
z
" transform="scale(0.015625)"/>
       </defs>
       <use xlink:href="#DejaVuSans-31" transform="translate(0 0.765625)"/>
       <use xlink:href="#DejaVuSans-30" transform="translate(63.623047 0.765625)"/>
       <use xlink:href="#DejaVuSans-33" transform="translate(128.203125 39.046875) scale(0.7)"/>
      </g>
     </g>
    </g>
    <g id="xtick_5">
     <g id="line2d_5">
      <defs>
       <path id="m0fc6ccbab1" d="M 0 0 
L 0 2 
" style="stroke: #000000; stroke-width: 0.6"/>
      </defs>
      <g>
       <use xlink:href="#m0fc6ccbab1" x="63.379712" y="307.584" style="stroke: #000000; stroke-width: 0.6"/>
      </g>
     </g>
    </g>
    <g id="xtick_6">
     <g id="line2d_6">
      <g>
       <use xlink:href="#m0fc6ccbab1" x="68.897182" y="307.584" style="stroke: #000000; stroke-width: 0.6"/>
      </g>
     </g>
    </g>
    <g id="xtick_7">
     <g id="line2d_7">
      <g>
       <use xlink:href="#m0fc6ccbab1" x="106.302759" y="307.584" style="stroke: #000000; stroke-width: 0.6"/>
      </g>
     </g>
    </g>
    <g id="xtick_8">
     <g id="line2d_8">
      <g>
       <use xlink:href="#m0fc6ccbab1" x="125.296509" y="307.584" style="stroke: #000000; stroke-width: 0.6"/>
      </g>
     </g>
    </g>
    <g id="xtick_9">
     <g id="line2d_9">
      <g>
       <use xlink:href="#m0fc6ccbab1" x="138.77279" y="307.584" style="stroke: #000000; stroke-width: 0.6"/>
      </g>
     </g>
    </g>
    <g id="xtick_10">
     <g id="line2d_10">
      <g>
       <use xlink:href="#m0fc6ccbab1" x="149.225805" y="307.584" style="stroke: #000000; stroke-width: 0.6"/>
      </g>
     </g>
    </g>
    <g id="xtick_11">
     <g id="line2d_11">
      <g>
       <use xlink:href="#m0fc6ccbab1" x="157.766541" y="307.584" style="stroke: #000000; stroke-width: 0.6"/>
      </g>
     </g>
    </g>
    <g id="xtick_12">
     <g id="line2d_12">
      <g>
       <use xlink:href="#m0fc6ccbab1" x="164.98763" y="307.584" style="stroke: #000000; stroke-width: 0.6"/>
      </g>
     </g>
    </g>
    <g id="xtick_13">
     <g id="line2d_13">
      <g>
       <use xlink:href="#m0fc6ccbab1" x="171.242822" y="307.584" style="stroke: #000000; stroke-width: 0.6"/>
      </g>
     </g>
    </g>
    <g id="xtick_14">
     <g id="line2d_14">
      <g>
       <use xlink:href="#m0fc6ccbab1" x="176.760292" y="307.584" style="stroke: #000000; stroke-width: 0.6"/>
      </g>
     </g>
    </g>
    <g id="xtick_15">
     <g id="line2d_15">
      <g>
       <use xlink:href="#m0fc6ccbab1" x="214.165868" y="307.584" style="stroke: #000000; stroke-width: 0.6"/>
      </g>
     </g>
    </g>
    <g id="xtick_16">
     <g id="line2d_16">
      <g>
       <use xlink:href="#m0fc6ccbab1" x="233.159619" y="307.584" style="stroke: #000000; stroke-width: 0.6"/>
      </g>
     </g>
    </g>
    <g id="xtick_17">
     <g id="line2d_17">
      <g>
       <use xlink:href="#m0fc6ccbab1" x="246.6359" y="307.584" style="stroke: #000000; stroke-width: 0.6"/>
      </g>
     </g>
    </g>
    <g id="xtick_18">
     <g id="line2d_18">
      <g>
       <use xlink:href="#m0fc6ccbab1" x="257.088915" y="307.584" style="stroke: #000000; stroke-width: 0.6"/>
      </g>
     </g>
    </g>
    <g id="xtick_19">
     <g id="line2d_19">
      <g>
       <use xlink:href="#m0fc6ccbab1" x="265.629651" y="307.584" style="stroke: #000000; stroke-width: 0.6"/>
      </g>
     </g>
    </g>
    <g id="xtick_20">
     <g id="line2d_20">
      <g>
       <use xlink:href="#m0fc6ccbab1" x="272.850739" y="307.584" style="stroke: #000000; stroke-width: 0.6"/>
      </g>
     </g>
    </g>
    <g id="xtick_21">
     <g id="line2d_21">
      <g>
       <use xlink:href="#m0fc6ccbab1" x="279.105931" y="307.584" style="stroke: #000000; stroke-width: 0.6"/>
      </g>
     </g>
    </g>
    <g id="xtick_22">
     <g id="line2d_22">
      <g>
       <use xlink:href="#m0fc6ccbab1" x="284.623401" y="307.584" style="stroke: #000000; stroke-width: 0.6"/>
      </g>
     </g>
    </g>
    <g id="xtick_23">
     <g id="line2d_23">
      <g>
       <use xlink:href="#m0fc6ccbab1" x="322.028978" y="307.584" style="stroke: #000000; stroke-width: 0.6"/>
      </g>
     </g>
    </g>
    <g id="xtick_24">
     <g id="line2d_24">
      <g>
       <use xlink:href="#m0fc6ccbab1" x="341.022729" y="307.584" style="stroke: #000000; stroke-width: 0.6"/>
      </g>
     </g>
    </g>
    <g id="xtick_25">
     <g id="line2d_25">
      <g>
       <use xlink:href="#m0fc6ccbab1" x="354.499009" y="307.584" style="stroke: #000000; stroke-width: 0.6"/>
      </g>
     </g>
    </g>
    <g id="xtick_26">
     <g id="line2d_26">
      <g>
       <use xlink:href="#m0fc6ccbab1" x="364.952025" y="307.584" style="stroke: #000000; stroke-width: 0.6"/>
      </g>
     </g>
    </g>
    <g id="xtick_27">
     <g id="line2d_27">
      <g>
       <use xlink:href="#m0fc6ccbab1" x="373.49276" y="307.584" style="stroke: #000000; stroke-width: 0.6"/>
      </g>
     </g>
    </g>
    <g id="xtick_28">
     <g id="line2d_28">
      <g>
       <use xlink:href="#m0fc6ccbab1" x="380.713849" y="307.584" style="stroke: #000000; stroke-width: 0.6"/>
      </g>
     </g>
    </g>
    <g id="xtick_29">
     <g id="line2d_29">
      <g>
       <use xlink:href="#m0fc6ccbab1" x="386.969041" y="307.584" style="stroke: #000000; stroke-width: 0.6"/>
      </g>
     </g>
    </g>
    <g id="xtick_30">
     <g id="line2d_30">
      <g>
       <use xlink:href="#m0fc6ccbab1" x="392.486511" y="307.584" style="stroke: #000000; stroke-width: 0.6"/>
      </g>
     </g>
    </g>
   </g>
   <g id="matplotlib.axis_2">
    <g id="ytick_1">
     <g id="line2d_31">
      <defs>
       <path id="me256910e18" d="M 0 0 
L -3.5 0 
" style="stroke: #000000; stroke-width: 0.8"/>
      </defs>
      <g>
       <use xlink:href="#me256910e18" x="57.6" y="270.44152" style="stroke: #000000; stroke-width: 0.8"/>
      </g>
     </g>
     <g id="text_5">
      <!-- $\mathdefault{10^{-6}}$ -->
      <g transform="translate(27.1 274.240739) scale(0.1 -0.1)">
       <defs>
        <path id="DejaVuSans-2212" d="M 678 2272 
L 4684 2272 
L 4684 1741 
L 678 1741 
L 678 2272 
z
" transform="scale(0.015625)"/>
        <path id="DejaVuSans-36" d="M 2113 2584 
Q 1688 2584 1439 2293 
Q 1191 2003 1191 1497 
Q 1191 994 1439 701 
Q 1688 409 2113 409 
Q 2538 409 2786 701 
Q 3034 994 3034 1497 
Q 3034 2003 2786 2293 
Q 2538 2584 2113 2584 
z
M 3366 4563 
L 3366 3988 
Q 3128 4100 2886 4159 
Q 2644 4219 2406 4219 
Q 1781 4219 1451 3797 
Q 1122 3375 1075 2522 
Q 1259 2794 1537 2939 
Q 1816 3084 2150 3084 
Q 2853 3084 3261 2657 
Q 3669 2231 3669 1497 
Q 3669 778 3244 343 
Q 2819 -91 2113 -91 
Q 1303 -91 875 529 
Q 447 1150 447 2328 
Q 447 3434 972 4092 
Q 1497 4750 2381 4750 
Q 2619 4750 2861 4703 
Q 3103 4656 3366 4563 
z
" transform="scale(0.015625)"/>
       </defs>
       <use xlink:href="#DejaVuSans-31" transform="translate(0 0.765625)"/>
       <use xlink:href="#DejaVuSans-30" transform="translate(63.623047 0.765625)"/>
       <use xlink:href="#DejaVuSans-2212" transform="translate(128.203125 39.046875) scale(0.7)"/>
       <use xlink:href="#DejaVuSans-36" transform="translate(186.855469 39.046875) scale(0.7)"/>
      </g>
     </g>
    </g>
    <g id="ytick_2">
     <g id="line2d_32">
      <g>
       <use xlink:href="#me256910e18" x="57.6" y="232.073842" style="stroke: #000000; stroke-width: 0.8"/>
      </g>
     </g>
     <g id="text_6">
      <!-- $\mathdefault{10^{-5}}$ -->
      <g transform="translate(27.1 235.873061) scale(0.1 -0.1)">
       <defs>
        <path id="DejaVuSans-35" d="M 691 4666 
L 3169 4666 
L 3169 4134 
L 1269 4134 
L 1269 2991 
Q 1406 3038 1543 3061 
Q 1681 3084 1819 3084 
Q 2600 3084 3056 2656 
Q 3513 2228 3513 1497 
Q 3513 744 3044 326 
Q 2575 -91 1722 -91 
Q 1428 -91 1123 -41 
Q 819 9 494 109 
L 494 744 
Q 775 591 1075 516 
Q 1375 441 1709 441 
Q 2250 441 2565 725 
Q 2881 1009 2881 1497 
Q 2881 1984 2565 2268 
Q 2250 2553 1709 2553 
Q 1456 2553 1204 2497 
Q 953 2441 691 2322 
L 691 4666 
z
" transform="scale(0.015625)"/>
       </defs>
       <use xlink:href="#DejaVuSans-31" transform="translate(0 0.684375)"/>
       <use xlink:href="#DejaVuSans-30" transform="translate(63.623047 0.684375)"/>
       <use xlink:href="#DejaVuSans-2212" transform="translate(128.203125 38.965625) scale(0.7)"/>
       <use xlink:href="#DejaVuSans-35" transform="translate(186.855469 38.965625) scale(0.7)"/>
      </g>
     </g>
    </g>
    <g id="ytick_3">
     <g id="line2d_33">
      <g>
       <use xlink:href="#me256910e18" x="57.6" y="193.706165" style="stroke: #000000; stroke-width: 0.8"/>
      </g>
     </g>
     <g id="text_7">
      <!-- $\mathdefault{10^{-4}}$ -->
      <g transform="translate(27.1 197.505383) scale(0.1 -0.1)">
       <defs>
        <path id="DejaVuSans-34" d="M 2419 4116 
L 825 1625 
L 2419 1625 
L 2419 4116 
z
M 2253 4666 
L 3047 4666 
L 3047 1625 
L 3713 1625 
L 3713 1100 
L 3047 1100 
L 3047 0 
L 2419 0 
L 2419 1100 
L 313 1100 
L 313 1709 
L 2253 4666 
z
" transform="scale(0.015625)"/>
       </defs>
       <use xlink:href="#DejaVuSans-31" transform="translate(0 0.684375)"/>
       <use xlink:href="#DejaVuSans-30" transform="translate(63.623047 0.684375)"/>
       <use xlink:href="#DejaVuSans-2212" transform="translate(128.203125 38.965625) scale(0.7)"/>
       <use xlink:href="#DejaVuSans-34" transform="translate(186.855469 38.965625) scale(0.7)"/>
      </g>
     </g>
    </g>
    <g id="ytick_4">
     <g id="line2d_34">
      <g>
       <use xlink:href="#me256910e18" x="57.6" y="155.338487" style="stroke: #000000; stroke-width: 0.8"/>
      </g>
     </g>
     <g id="text_8">
      <!-- $\mathdefault{10^{-3}}$ -->
      <g transform="translate(27.1 159.137705) scale(0.1 -0.1)">
       <use xlink:href="#DejaVuSans-31" transform="translate(0 0.765625)"/>
       <use xlink:href="#DejaVuSans-30" transform="translate(63.623047 0.765625)"/>
       <use xlink:href="#DejaVuSans-2212" transform="translate(128.203125 39.046875) scale(0.7)"/>
       <use xlink:href="#DejaVuSans-33" transform="translate(186.855469 39.046875) scale(0.7)"/>
      </g>
     </g>
    </g>
    <g id="ytick_5">
     <g id="line2d_35">
      <g>
       <use xlink:href="#me256910e18" x="57.6" y="116.970809" style="stroke: #000000; stroke-width: 0.8"/>
      </g>
     </g>
     <g id="text_9">
      <!-- $\mathdefault{10^{-2}}$ -->
      <g transform="translate(27.1 120.770028) scale(0.1 -0.1)">
       <use xlink:href="#DejaVuSans-31" transform="translate(0 0.765625)"/>
       <use xlink:href="#DejaVuSans-30" transform="translate(63.623047 0.765625)"/>
       <use xlink:href="#DejaVuSans-2212" transform="translate(128.203125 39.046875) scale(0.7)"/>
       <use xlink:href="#DejaVuSans-32" transform="translate(186.855469 39.046875) scale(0.7)"/>
      </g>
     </g>
    </g>
    <g id="ytick_6">
     <g id="line2d_36">
      <g>
       <use xlink:href="#me256910e18" x="57.6" y="78.603131" style="stroke: #000000; stroke-width: 0.8"/>
      </g>
     </g>
     <g id="text_10">
      <!-- $\mathdefault{10^{-1}}$ -->
      <g transform="translate(27.1 82.40235) scale(0.1 -0.1)">
       <use xlink:href="#DejaVuSans-31" transform="translate(0 0.684375)"/>
       <use xlink:href="#DejaVuSans-30" transform="translate(63.623047 0.684375)"/>
       <use xlink:href="#DejaVuSans-2212" transform="translate(128.203125 38.965625) scale(0.7)"/>
       <use xlink:href="#DejaVuSans-31" transform="translate(186.855469 38.965625) scale(0.7)"/>
      </g>
     </g>
    </g>
    <g id="ytick_7">
     <g id="line2d_37">
      <defs>
       <path id="m8666ccce64" d="M 0 0 
L -2 0 
" style="stroke: #000000; stroke-width: 0.6"/>
      </defs>
      <g>
       <use xlink:href="#m8666ccce64" x="57.6" y="297.259376" style="stroke: #000000; stroke-width: 0.6"/>
      </g>
     </g>
    </g>
    <g id="ytick_8">
     <g id="line2d_38">
      <g>
       <use xlink:href="#m8666ccce64" x="57.6" y="290.503163" style="stroke: #000000; stroke-width: 0.6"/>
      </g>
     </g>
    </g>
    <g id="ytick_9">
     <g id="line2d_39">
      <g>
       <use xlink:href="#m8666ccce64" x="57.6" y="285.709554" style="stroke: #000000; stroke-width: 0.6"/>
      </g>
     </g>
    </g>
    <g id="ytick_10">
     <g id="line2d_40">
      <g>
       <use xlink:href="#m8666ccce64" x="57.6" y="281.991342" style="stroke: #000000; stroke-width: 0.6"/>
      </g>
     </g>
    </g>
    <g id="ytick_11">
     <g id="line2d_41">
      <g>
       <use xlink:href="#m8666ccce64" x="57.6" y="278.953342" style="stroke: #000000; stroke-width: 0.6"/>
      </g>
     </g>
    </g>
    <g id="ytick_12">
     <g id="line2d_42">
      <g>
       <use xlink:href="#m8666ccce64" x="57.6" y="276.384749" style="stroke: #000000; stroke-width: 0.6"/>
      </g>
     </g>
    </g>
    <g id="ytick_13">
     <g id="line2d_43">
      <g>
       <use xlink:href="#m8666ccce64" x="57.6" y="274.159732" style="stroke: #000000; stroke-width: 0.6"/>
      </g>
     </g>
    </g>
    <g id="ytick_14">
     <g id="line2d_44">
      <g>
       <use xlink:href="#m8666ccce64" x="57.6" y="272.197129" style="stroke: #000000; stroke-width: 0.6"/>
      </g>
     </g>
    </g>
    <g id="ytick_15">
     <g id="line2d_45">
      <g>
       <use xlink:href="#m8666ccce64" x="57.6" y="258.891698" style="stroke: #000000; stroke-width: 0.6"/>
      </g>
     </g>
    </g>
    <g id="ytick_16">
     <g id="line2d_46">
      <g>
       <use xlink:href="#m8666ccce64" x="57.6" y="252.135486" style="stroke: #000000; stroke-width: 0.6"/>
      </g>
     </g>
    </g>
    <g id="ytick_17">
     <g id="line2d_47">
      <g>
       <use xlink:href="#m8666ccce64" x="57.6" y="247.341876" style="stroke: #000000; stroke-width: 0.6"/>
      </g>
     </g>
    </g>
    <g id="ytick_18">
     <g id="line2d_48">
      <g>
       <use xlink:href="#m8666ccce64" x="57.6" y="243.623664" style="stroke: #000000; stroke-width: 0.6"/>
      </g>
     </g>
    </g>
    <g id="ytick_19">
     <g id="line2d_49">
      <g>
       <use xlink:href="#m8666ccce64" x="57.6" y="240.585664" style="stroke: #000000; stroke-width: 0.6"/>
      </g>
     </g>
    </g>
    <g id="ytick_20">
     <g id="line2d_50">
      <g>
       <use xlink:href="#m8666ccce64" x="57.6" y="238.017071" style="stroke: #000000; stroke-width: 0.6"/>
      </g>
     </g>
    </g>
    <g id="ytick_21">
     <g id="line2d_51">
      <g>
       <use xlink:href="#m8666ccce64" x="57.6" y="235.792055" style="stroke: #000000; stroke-width: 0.6"/>
      </g>
     </g>
    </g>
    <g id="ytick_22">
     <g id="line2d_52">
      <g>
       <use xlink:href="#m8666ccce64" x="57.6" y="233.829451" style="stroke: #000000; stroke-width: 0.6"/>
      </g>
     </g>
    </g>
    <g id="ytick_23">
     <g id="line2d_53">
      <g>
       <use xlink:href="#m8666ccce64" x="57.6" y="220.52402" style="stroke: #000000; stroke-width: 0.6"/>
      </g>
     </g>
    </g>
    <g id="ytick_24">
     <g id="line2d_54">
      <g>
       <use xlink:href="#m8666ccce64" x="57.6" y="213.767808" style="stroke: #000000; stroke-width: 0.6"/>
      </g>
     </g>
    </g>
    <g id="ytick_25">
     <g id="line2d_55">
      <g>
       <use xlink:href="#m8666ccce64" x="57.6" y="208.974199" style="stroke: #000000; stroke-width: 0.6"/>
      </g>
     </g>
    </g>
    <g id="ytick_26">
     <g id="line2d_56">
      <g>
       <use xlink:href="#m8666ccce64" x="57.6" y="205.255986" style="stroke: #000000; stroke-width: 0.6"/>
      </g>
     </g>
    </g>
    <g id="ytick_27">
     <g id="line2d_57">
      <g>
       <use xlink:href="#m8666ccce64" x="57.6" y="202.217986" style="stroke: #000000; stroke-width: 0.6"/>
      </g>
     </g>
    </g>
    <g id="ytick_28">
     <g id="line2d_58">
      <g>
       <use xlink:href="#m8666ccce64" x="57.6" y="199.649393" style="stroke: #000000; stroke-width: 0.6"/>
      </g>
     </g>
    </g>
    <g id="ytick_29">
     <g id="line2d_59">
      <g>
       <use xlink:href="#m8666ccce64" x="57.6" y="197.424377" style="stroke: #000000; stroke-width: 0.6"/>
      </g>
     </g>
    </g>
    <g id="ytick_30">
     <g id="line2d_60">
      <g>
       <use xlink:href="#m8666ccce64" x="57.6" y="195.461773" style="stroke: #000000; stroke-width: 0.6"/>
      </g>
     </g>
    </g>
    <g id="ytick_31">
     <g id="line2d_61">
      <g>
       <use xlink:href="#m8666ccce64" x="57.6" y="182.156343" style="stroke: #000000; stroke-width: 0.6"/>
      </g>
     </g>
    </g>
    <g id="ytick_32">
     <g id="line2d_62">
      <g>
       <use xlink:href="#m8666ccce64" x="57.6" y="175.40013" style="stroke: #000000; stroke-width: 0.6"/>
      </g>
     </g>
    </g>
    <g id="ytick_33">
     <g id="line2d_63">
      <g>
       <use xlink:href="#m8666ccce64" x="57.6" y="170.606521" style="stroke: #000000; stroke-width: 0.6"/>
      </g>
     </g>
    </g>
    <g id="ytick_34">
     <g id="line2d_64">
      <g>
       <use xlink:href="#m8666ccce64" x="57.6" y="166.888309" style="stroke: #000000; stroke-width: 0.6"/>
      </g>
     </g>
    </g>
    <g id="ytick_35">
     <g id="line2d_65">
      <g>
       <use xlink:href="#m8666ccce64" x="57.6" y="163.850308" style="stroke: #000000; stroke-width: 0.6"/>
      </g>
     </g>
    </g>
    <g id="ytick_36">
     <g id="line2d_66">
      <g>
       <use xlink:href="#m8666ccce64" x="57.6" y="161.281715" style="stroke: #000000; stroke-width: 0.6"/>
      </g>
     </g>
    </g>
    <g id="ytick_37">
     <g id="line2d_67">
      <g>
       <use xlink:href="#m8666ccce64" x="57.6" y="159.056699" style="stroke: #000000; stroke-width: 0.6"/>
      </g>
     </g>
    </g>
    <g id="ytick_38">
     <g id="line2d_68">
      <g>
       <use xlink:href="#m8666ccce64" x="57.6" y="157.094095" style="stroke: #000000; stroke-width: 0.6"/>
      </g>
     </g>
    </g>
    <g id="ytick_39">
     <g id="line2d_69">
      <g>
       <use xlink:href="#m8666ccce64" x="57.6" y="143.788665" style="stroke: #000000; stroke-width: 0.6"/>
      </g>
     </g>
    </g>
    <g id="ytick_40">
     <g id="line2d_70">
      <g>
       <use xlink:href="#m8666ccce64" x="57.6" y="137.032452" style="stroke: #000000; stroke-width: 0.6"/>
      </g>
     </g>
    </g>
    <g id="ytick_41">
     <g id="line2d_71">
      <g>
       <use xlink:href="#m8666ccce64" x="57.6" y="132.238843" style="stroke: #000000; stroke-width: 0.6"/>
      </g>
     </g>
    </g>
    <g id="ytick_42">
     <g id="line2d_72">
      <g>
       <use xlink:href="#m8666ccce64" x="57.6" y="128.520631" style="stroke: #000000; stroke-width: 0.6"/>
      </g>
     </g>
    </g>
    <g id="ytick_43">
     <g id="line2d_73">
      <g>
       <use xlink:href="#m8666ccce64" x="57.6" y="125.48263" style="stroke: #000000; stroke-width: 0.6"/>
      </g>
     </g>
    </g>
    <g id="ytick_44">
     <g id="line2d_74">
      <g>
       <use xlink:href="#m8666ccce64" x="57.6" y="122.914037" style="stroke: #000000; stroke-width: 0.6"/>
      </g>
     </g>
    </g>
    <g id="ytick_45">
     <g id="line2d_75">
      <g>
       <use xlink:href="#m8666ccce64" x="57.6" y="120.689021" style="stroke: #000000; stroke-width: 0.6"/>
      </g>
     </g>
    </g>
    <g id="ytick_46">
     <g id="line2d_76">
      <g>
       <use xlink:href="#m8666ccce64" x="57.6" y="118.726417" style="stroke: #000000; stroke-width: 0.6"/>
      </g>
     </g>
    </g>
    <g id="ytick_47">
     <g id="line2d_77">
      <g>
       <use xlink:href="#m8666ccce64" x="57.6" y="105.420987" style="stroke: #000000; stroke-width: 0.6"/>
      </g>
     </g>
    </g>
    <g id="ytick_48">
     <g id="line2d_78">
      <g>
       <use xlink:href="#m8666ccce64" x="57.6" y="98.664774" style="stroke: #000000; stroke-width: 0.6"/>
      </g>
     </g>
    </g>
    <g id="ytick_49">
     <g id="line2d_79">
      <g>
       <use xlink:href="#m8666ccce64" x="57.6" y="93.871165" style="stroke: #000000; stroke-width: 0.6"/>
      </g>
     </g>
    </g>
    <g id="ytick_50">
     <g id="line2d_80">
      <g>
       <use xlink:href="#m8666ccce64" x="57.6" y="90.152953" style="stroke: #000000; stroke-width: 0.6"/>
      </g>
     </g>
    </g>
    <g id="ytick_51">
     <g id="line2d_81">
      <g>
       <use xlink:href="#m8666ccce64" x="57.6" y="87.114952" style="stroke: #000000; stroke-width: 0.6"/>
      </g>
     </g>
    </g>
    <g id="ytick_52">
     <g id="line2d_82">
      <g>
       <use xlink:href="#m8666ccce64" x="57.6" y="84.546359" style="stroke: #000000; stroke-width: 0.6"/>
      </g>
     </g>
    </g>
    <g id="ytick_53">
     <g id="line2d_83">
      <g>
       <use xlink:href="#m8666ccce64" x="57.6" y="82.321343" style="stroke: #000000; stroke-width: 0.6"/>
      </g>
     </g>
    </g>
    <g id="ytick_54">
     <g id="line2d_84">
      <g>
       <use xlink:href="#m8666ccce64" x="57.6" y="80.35874" style="stroke: #000000; stroke-width: 0.6"/>
      </g>
     </g>
    </g>
    <g id="ytick_55">
     <g id="line2d_85">
      <g>
       <use xlink:href="#m8666ccce64" x="57.6" y="67.053309" style="stroke: #000000; stroke-width: 0.6"/>
      </g>
     </g>
    </g>
    <g id="ytick_56">
     <g id="line2d_86">
      <g>
       <use xlink:href="#m8666ccce64" x="57.6" y="60.297096" style="stroke: #000000; stroke-width: 0.6"/>
      </g>
     </g>
    </g>
    <g id="ytick_57">
     <g id="line2d_87">
      <g>
       <use xlink:href="#m8666ccce64" x="57.6" y="55.503487" style="stroke: #000000; stroke-width: 0.6"/>
      </g>
     </g>
    </g>
    <g id="ytick_58">
     <g id="line2d_88">
      <g>
       <use xlink:href="#m8666ccce64" x="57.6" y="51.785275" style="stroke: #000000; stroke-width: 0.6"/>
      </g>
     </g>
    </g>
    <g id="ytick_59">
     <g id="line2d_89">
      <g>
       <use xlink:href="#m8666ccce64" x="57.6" y="48.747274" style="stroke: #000000; stroke-width: 0.6"/>
      </g>
     </g>
    </g>
    <g id="ytick_60">
     <g id="line2d_90">
      <g>
       <use xlink:href="#m8666ccce64" x="57.6" y="46.178682" style="stroke: #000000; stroke-width: 0.6"/>
      </g>
     </g>
    </g>
    <g id="ytick_61">
     <g id="line2d_91">
      <g>
       <use xlink:href="#m8666ccce64" x="57.6" y="43.953665" style="stroke: #000000; stroke-width: 0.6"/>
      </g>
     </g>
    </g>
    <g id="ytick_62">
     <g id="line2d_92">
      <g>
       <use xlink:href="#m8666ccce64" x="57.6" y="41.991062" style="stroke: #000000; stroke-width: 0.6"/>
      </g>
     </g>
    </g>
   </g>
   <g id="line2d_93">
    <path d="M -1 151.324855 
L 106.302759 151.520451 
L 164.98763 151.801366 
L 176.760292 151.942821 
L 206.552774 152.300736 
L 224.618884 152.622603 
L 228.224074 152.693294 
L 231.571523 152.784498 
L 251.100643 153.217986 
L 258.016556 153.477441 
L 262.397724 153.592979 
L 266.403955 153.777343 
L 272.176708 154.001763 
L 297.707677 155.385168 
L 304.64674 155.926531 
L 310.986718 156.414477 
L 314.415884 156.734275 
L 326.706168 158.021221 
L 329.183099 158.338629 
L 333.592979 158.929089 
L 334.499087 159.040953 
L 337.454999 159.530347 
L 339.110449 159.785503 
L 341.333988 160.12649 
L 342.407392 160.321483 
L 343.456749 160.524495 
L 345.770521 160.948597 
L 346.191912 161.049499 
L 347.160663 161.274003 
L 348.510738 161.529237 
L 352.219321 162.393496 
L 352.830077 162.5249 
L 354.028208 162.784538 
L 355.541325 163.18068 
L 364.29157 165.828335 
L 364.764272 166.037305 
L 366.608776 166.686675 
L 366.879292 166.8341 
L 369.586803 167.92506 
L 370.177108 168.163781 
L 370.594247 168.361229 
L 370.842759 168.463406 
L 372.146338 169.11706 
L 372.863967 169.440297 
L 374.420401 170.328414 
L 374.877423 170.562118 
L 376.953145 171.804314 
L 377.529699 172.175087 
L 378.028426 172.470002 
L 379.217966 173.212105 
L 379.630694 173.560404 
L 379.971878 173.851832 
L 380.847499 174.557601 
L 381.312295 174.918391 
L 381.837903 175.398318 
L 383.82069 177.143193 
L 384.257035 177.669755 
L 386.320462 179.879826 
L 386.910449 180.669029 
L 387.896682 181.956923 
L 388.182843 182.43133 
L 388.80631 183.392781 
L 388.918781 183.5651 
L 389.142917 183.954363 
L 390.028889 185.368575 
L 390.519982 186.294078 
L 391.113297 187.439203 
L 391.327199 187.852944 
L 391.59321 188.625624 
L 391.752094 188.840268 
L 392.015709 189.619654 
L 392.120742 189.834392 
L 393.004133 192.132843 
L 393.209591 192.761552 
L 395.166951 199.804422 
L 395.412082 201.36098 
L 395.607267 202.161777 
L 396.903913 211.632032 
L 397.655694 222.314409 
L 398.119504 236.991337 
L 398.349697 254.225454 
L 398.441459 267.123907 
L 398.487273 295.488 
L 398.487273 295.488 
" clip-path="url(#p720848f0d5)" style="fill: none; stroke: #1f77b4; stroke-width: 1.5; stroke-linecap: square"/>
   </g>
   <g id="line2d_94">
    <path d="M -1 142.616521 
L 106.302759 142.749181 
L 164.98763 143.120911 
L 181.695837 143.369594 
L 197.457661 143.490383 
L 236.182884 144.218398 
L 254.190402 144.688218 
L 257.088915 144.803861 
L 271.492837 145.303718 
L 293.164137 146.381495 
L 314.415884 148.032397 
L 321.558176 148.747898 
L 324.314522 149.047559 
L 326.065916 149.232764 
L 326.706168 149.318649 
L 330.177708 149.789057 
L 340.23541 151.253887 
L 341.797033 151.514882 
L 350.081087 153.167151 
L 360.944121 156.039346 
L 367.858033 158.501324 
L 370.842759 159.791136 
L 371.335862 159.999935 
L 372.306764 160.519331 
L 372.94303 160.799274 
L 373.49276 161.129655 
L 374.267065 161.554075 
L 374.725577 161.799625 
L 375.852601 162.438726 
L 377.458016 163.473187 
L 377.957504 163.789237 
L 378.240552 163.928609 
L 378.521901 164.175458 
L 379.287007 164.67963 
L 379.630694 164.959637 
L 380.175402 165.342879 
L 382.615421 167.351628 
L 382.935616 167.654398 
L 383.063083 167.74962 
L 383.443418 168.098961 
L 383.758022 168.403287 
L 384.442803 169.109945 
L 384.689352 169.328765 
L 384.934611 169.631856 
L 385.360749 170.087245 
L 385.962869 170.789388 
L 386.320462 171.22572 
L 386.910449 171.935799 
L 387.02756 172.070896 
L 388.353704 173.896814 
L 388.410519 173.912867 
L 388.637095 174.28878 
L 388.862579 174.613474 
L 389.643337 175.925556 
L 390.028889 176.720083 
L 390.138466 176.873233 
L 390.411294 177.406938 
L 392.120742 180.986173 
L 392.330102 181.491202 
L 392.486511 181.949117 
L 392.694247 182.514713 
L 392.746037 182.551377 
L 393.209591 183.882569 
L 394.173397 187.194316 
L 394.473682 188.398719 
L 394.573351 188.67595 
L 395.166951 191.390401 
L 395.363158 192.281946 
L 395.898528 195.112126 
L 396.18799 197.096859 
L 396.284081 197.585484 
L 396.998548 203.938204 
L 397.234303 207.046189 
L 397.328274 208.190773 
L 397.980842 220.890359 
L 398.165633 228.400895 
L 398.441459 255.422589 
L 398.487273 268.16464 
L 398.487273 268.16464 
" clip-path="url(#p720848f0d5)" style="fill: none; stroke: #ff7f0e; stroke-width: 1.5; stroke-linecap: square"/>
   </g>
   <g id="line2d_95">
    <path d="M -1 141.578727 
L 106.302759 141.649628 
L 164.98763 141.981967 
L 209.230323 142.500679 
L 216.451412 142.630501 
L 226.456153 142.807697 
L 250.023714 143.393907 
L 269.379199 144.036309 
L 287.646667 144.909436 
L 290.486588 145.089834 
L 294.867756 145.32938 
L 297.312363 145.492194 
L 301.849231 145.801425 
L 305.654184 146.091594 
L 319.872079 147.382805 
L 321.794169 147.587689 
L 323.866247 147.797967 
L 324.758547 147.91403 
L 329.980468 148.56535 
L 331.726423 148.80415 
L 335.738897 149.368579 
L 336.776083 149.521157 
L 338.947512 149.862778 
L 341.333988 150.272827 
L 346.885915 151.276038 
L 349.82299 151.896109 
L 350.973387 152.168791 
L 354.028208 152.907986 
L 363.62167 155.71054 
L 369.416768 157.905484 
L 369.92503 158.149502 
L 372.705442 159.482086 
L 373.414621 159.853312 
L 376.074788 161.320233 
L 376.442774 161.567698 
L 376.880575 161.854099 
L 377.242309 162.0808 
L 377.815336 162.367456 
L 378.381438 162.799702 
L 379.217966 163.376335 
L 379.767466 163.770937 
L 380.039818 163.977131 
L 381.51009 165.133523 
L 382.486727 165.981713 
L 383.190205 166.579635 
L 383.506508 166.962957 
L 383.69527 167.139579 
L 384.319039 167.700419 
L 385.117716 168.566167 
L 385.843063 169.373891 
L 386.142007 169.75521 
L 387.435158 171.314681 
L 387.724143 171.758513 
L 388.182843 172.396015 
L 388.749973 173.211154 
L 389.254584 174.118091 
L 389.974004 175.278955 
L 390.411294 176.079557 
L 391.166864 177.607253 
L 391.327199 177.900168 
L 391.910441 179.267243 
L 393.617824 183.967242 
L 393.871174 184.748634 
L 393.972132 185.038818 
L 394.223578 186.190846 
L 394.623106 187.477138 
L 395.655937 192.726092 
L 395.704556 192.783341 
L 396.332052 196.750576 
L 396.571177 199.081017 
L 396.809087 201.16981 
L 397.562379 210.862731 
L 397.888173 218.216419 
L 398.441459 247.783476 
L 398.487273 272.994482 
L 398.487273 272.994482 
" clip-path="url(#p720848f0d5)" style="fill: none; stroke: #2ca02c; stroke-width: 1.5; stroke-linecap: square"/>
   </g>
   <g id="line2d_96">
    <path d="M -1 141.652874 
L 106.302759 141.700762 
L 186.160581 142.221391 
L 234.695637 143.015425 
L 251.100643 143.445742 
L 286.159419 144.823349 
L 300.011962 145.675674 
L 302.208193 145.834042 
L 308.552697 146.310514 
L 312.157888 146.616926 
L 318.37692 147.218258 
L 319.872079 147.368061 
L 323.640491 147.780155 
L 326.493722 148.131195 
L 330.374121 148.592798 
L 346.051869 151.084881 
L 349.693407 151.863821 
L 351.600496 152.276868 
L 357.338931 153.715783 
L 358.428383 154.035502 
L 359.282063 154.300867 
L 361.046067 154.83969 
L 361.953736 155.125648 
L 362.844152 155.419554 
L 363.525183 155.648575 
L 364.858242 156.108125 
L 365.325288 156.256347 
L 365.971428 156.527465 
L 366.518255 156.704664 
L 371.58048 158.920381 
L 375.028778 160.693731 
L 375.254898 160.849805 
L 376.442774 161.532723 
L 376.807892 161.776341 
L 377.815336 162.397984 
L 378.451722 162.813393 
L 378.94078 163.176538 
L 379.355947 163.455665 
L 379.69913 163.777764 
L 380.243048 164.131032 
L 380.980769 164.729746 
L 381.179966 164.885326 
L 383.443418 166.865573 
L 383.82069 167.271295 
L 384.194948 167.578293 
L 387.319063 171.181425 
L 388.068588 172.22975 
L 389.086984 173.75636 
L 391.166864 177.554166 
L 393.719328 184.191589 
L 394.123161 185.727038 
L 394.173397 185.77636 
L 395.801642 193.459728 
L 396.23606 196.390094 
L 396.427849 197.807196 
L 397.375188 208.305446 
L 397.702282 213.802163 
L 397.79532 215.540963 
L 398.349697 238.226911 
L 398.441459 252.7558 
L 398.487273 268.432467 
L 398.487273 268.432467 
" clip-path="url(#p720848f0d5)" style="fill: none; stroke: #d62728; stroke-width: 1.5; stroke-linecap: square"/>
   </g>
   <g id="line2d_97">
    <path d="M -1 141.632533 
L 73.832727 141.632621 
L 176.760292 142.059752 
L 222.706604 142.744602 
L 271.492837 144.11237 
L 301.487497 145.775943 
L 311.575963 146.577577 
L 328.981617 148.419347 
L 330.177708 148.592492 
L 331.726423 148.8072 
L 340.709387 150.13156 
L 341.333988 150.24962 
L 350.846951 152.110143 
L 351.600496 152.286931 
L 358.643266 154.112085 
L 359.282063 154.318585 
L 360.534102 154.685917 
L 361.249297 154.907245 
L 361.953736 155.138427 
L 363.428497 155.611196 
L 364.481223 155.982597 
L 364.858242 156.125741 
L 365.603297 156.389564 
L 369.074837 157.758561 
L 369.416768 157.890506 
L 371.17207 158.722687 
L 371.58048 158.929654 
L 372.784772 159.513333 
L 373.257951 159.779674 
L 373.726398 160.02261 
L 374.113224 160.208563 
L 375.330029 160.910935 
L 375.554703 161.061365 
L 377.386224 162.12018 
L 378.381438 162.833713 
L 379.01023 163.26506 
L 379.562158 163.692124 
L 380.175402 164.101571 
L 380.780722 164.585596 
L 380.980769 164.747569 
L 381.378319 165.078913 
L 384.750788 168.229935 
L 385.783044 169.363474 
L 386.08237 169.726019 
L 386.439055 170.151519 
L 387.724143 171.818103 
L 387.954054 172.10506 
L 388.918781 173.566919 
L 390.302354 175.950408 
L 390.628418 176.531487 
L 390.898415 177.066161 
L 392.120742 179.808043 
L 393.158311 182.573247 
L 394.072872 185.479195 
L 395.460955 191.717993 
L 396.475673 198.083849 
L 396.666486 199.701227 
L 397.140143 204.544914 
L 397.702282 213.612638 
L 397.980842 220.866983 
L 398.257756 231.043128 
L 398.395601 245.060441 
L 398.487273 273.414378 
L 398.487273 273.414378 
" clip-path="url(#p720848f0d5)" style="fill: none; stroke: #9467bd; stroke-width: 1.5; stroke-linecap: square"/>
   </g>
   <g id="patch_3">
    <path d="M 57.6 307.584 
L 57.6 41.472 
" style="fill: none; stroke: #000000; stroke-width: 0.8; stroke-linejoin: miter; stroke-linecap: square"/>
   </g>
   <g id="patch_4">
    <path d="M 414.72 307.584 
L 414.72 41.472 
" style="fill: none; stroke: #000000; stroke-width: 0.8; stroke-linejoin: miter; stroke-linecap: square"/>
   </g>
   <g id="patch_5">
    <path d="M 57.6 307.584 
L 414.72 307.584 
" style="fill: none; stroke: #000000; stroke-width: 0.8; stroke-linejoin: miter; stroke-linecap: square"/>
   </g>
   <g id="patch_6">
    <path d="M 57.6 41.472 
L 414.72 41.472 
" style="fill: none; stroke: #000000; stroke-width: 0.8; stroke-linejoin: miter; stroke-linecap: square"/>
   </g>
   <g id="text_11">
    <!-- 10body unitary gates -->
    <g transform="translate(171.89625 35.472) scale(0.12 -0.12)">
     <defs>
      <path id="DejaVuSans-62" d="M 3116 1747 
Q 3116 2381 2855 2742 
Q 2594 3103 2138 3103 
Q 1681 3103 1420 2742 
Q 1159 2381 1159 1747 
Q 1159 1113 1420 752 
Q 1681 391 2138 391 
Q 2594 391 2855 752 
Q 3116 1113 3116 1747 
z
M 1159 2969 
Q 1341 3281 1617 3432 
Q 1894 3584 2278 3584 
Q 2916 3584 3314 3078 
Q 3713 2572 3713 1747 
Q 3713 922 3314 415 
Q 2916 -91 2278 -91 
Q 1894 -91 1617 61 
Q 1341 213 1159 525 
L 1159 0 
L 581 0 
L 581 4863 
L 1159 4863 
L 1159 2969 
z
" transform="scale(0.015625)"/>
      <path id="DejaVuSans-6f" d="M 1959 3097 
Q 1497 3097 1228 2736 
Q 959 2375 959 1747 
Q 959 1119 1226 758 
Q 1494 397 1959 397 
Q 2419 397 2687 759 
Q 2956 1122 2956 1747 
Q 2956 2369 2687 2733 
Q 2419 3097 1959 3097 
z
M 1959 3584 
Q 2709 3584 3137 3096 
Q 3566 2609 3566 1747 
Q 3566 888 3137 398 
Q 2709 -91 1959 -91 
Q 1206 -91 779 398 
Q 353 888 353 1747 
Q 353 2609 779 3096 
Q 1206 3584 1959 3584 
z
" transform="scale(0.015625)"/>
      <path id="DejaVuSans-64" d="M 2906 2969 
L 2906 4863 
L 3481 4863 
L 3481 0 
L 2906 0 
L 2906 525 
Q 2725 213 2448 61 
Q 2172 -91 1784 -91 
Q 1150 -91 751 415 
Q 353 922 353 1747 
Q 353 2572 751 3078 
Q 1150 3584 1784 3584 
Q 2172 3584 2448 3432 
Q 2725 3281 2906 2969 
z
M 947 1747 
Q 947 1113 1208 752 
Q 1469 391 1925 391 
Q 2381 391 2643 752 
Q 2906 1113 2906 1747 
Q 2906 2381 2643 2742 
Q 2381 3103 1925 3103 
Q 1469 3103 1208 2742 
Q 947 2381 947 1747 
z
" transform="scale(0.015625)"/>
      <path id="DejaVuSans-79" d="M 2059 -325 
Q 1816 -950 1584 -1140 
Q 1353 -1331 966 -1331 
L 506 -1331 
L 506 -850 
L 844 -850 
Q 1081 -850 1212 -737 
Q 1344 -625 1503 -206 
L 1606 56 
L 191 3500 
L 800 3500 
L 1894 763 
L 2988 3500 
L 3597 3500 
L 2059 -325 
z
" transform="scale(0.015625)"/>
      <path id="DejaVuSans-20" transform="scale(0.015625)"/>
      <path id="DejaVuSans-75" d="M 544 1381 
L 544 3500 
L 1119 3500 
L 1119 1403 
Q 1119 906 1312 657 
Q 1506 409 1894 409 
Q 2359 409 2629 706 
Q 2900 1003 2900 1516 
L 2900 3500 
L 3475 3500 
L 3475 0 
L 2900 0 
L 2900 538 
Q 2691 219 2414 64 
Q 2138 -91 1772 -91 
Q 1169 -91 856 284 
Q 544 659 544 1381 
z
M 1991 3584 
L 1991 3584 
z
" transform="scale(0.015625)"/>
      <path id="DejaVuSans-6e" d="M 3513 2113 
L 3513 0 
L 2938 0 
L 2938 2094 
Q 2938 2591 2744 2837 
Q 2550 3084 2163 3084 
Q 1697 3084 1428 2787 
Q 1159 2491 1159 1978 
L 1159 0 
L 581 0 
L 581 3500 
L 1159 3500 
L 1159 2956 
Q 1366 3272 1645 3428 
Q 1925 3584 2291 3584 
Q 2894 3584 3203 3211 
Q 3513 2838 3513 2113 
z
" transform="scale(0.015625)"/>
      <path id="DejaVuSans-69" d="M 603 3500 
L 1178 3500 
L 1178 0 
L 603 0 
L 603 3500 
z
M 603 4863 
L 1178 4863 
L 1178 4134 
L 603 4134 
L 603 4863 
z
" transform="scale(0.015625)"/>
      <path id="DejaVuSans-74" d="M 1172 4494 
L 1172 3500 
L 2356 3500 
L 2356 3053 
L 1172 3053 
L 1172 1153 
Q 1172 725 1289 603 
Q 1406 481 1766 481 
L 2356 481 
L 2356 0 
L 1766 0 
Q 1100 0 847 248 
Q 594 497 594 1153 
L 594 3053 
L 172 3053 
L 172 3500 
L 594 3500 
L 594 4494 
L 1172 4494 
z
" transform="scale(0.015625)"/>
      <path id="DejaVuSans-61" d="M 2194 1759 
Q 1497 1759 1228 1600 
Q 959 1441 959 1056 
Q 959 750 1161 570 
Q 1363 391 1709 391 
Q 2188 391 2477 730 
Q 2766 1069 2766 1631 
L 2766 1759 
L 2194 1759 
z
M 3341 1997 
L 3341 0 
L 2766 0 
L 2766 531 
Q 2569 213 2275 61 
Q 1981 -91 1556 -91 
Q 1019 -91 701 211 
Q 384 513 384 1019 
Q 384 1609 779 1909 
Q 1175 2209 1959 2209 
L 2766 2209 
L 2766 2266 
Q 2766 2663 2505 2880 
Q 2244 3097 1772 3097 
Q 1472 3097 1187 3025 
Q 903 2953 641 2809 
L 641 3341 
Q 956 3463 1253 3523 
Q 1550 3584 1831 3584 
Q 2591 3584 2966 3190 
Q 3341 2797 3341 1997 
z
" transform="scale(0.015625)"/>
      <path id="DejaVuSans-72" d="M 2631 2963 
Q 2534 3019 2420 3045 
Q 2306 3072 2169 3072 
Q 1681 3072 1420 2755 
Q 1159 2438 1159 1844 
L 1159 0 
L 581 0 
L 581 3500 
L 1159 3500 
L 1159 2956 
Q 1341 3275 1631 3429 
Q 1922 3584 2338 3584 
Q 2397 3584 2469 3576 
Q 2541 3569 2628 3553 
L 2631 2963 
z
" transform="scale(0.015625)"/>
      <path id="DejaVuSans-67" d="M 2906 1791 
Q 2906 2416 2648 2759 
Q 2391 3103 1925 3103 
Q 1463 3103 1205 2759 
Q 947 2416 947 1791 
Q 947 1169 1205 825 
Q 1463 481 1925 481 
Q 2391 481 2648 825 
Q 2906 1169 2906 1791 
z
M 3481 434 
Q 3481 -459 3084 -895 
Q 2688 -1331 1869 -1331 
Q 1566 -1331 1297 -1286 
Q 1028 -1241 775 -1147 
L 775 -588 
Q 1028 -725 1275 -790 
Q 1522 -856 1778 -856 
Q 2344 -856 2625 -561 
Q 2906 -266 2906 331 
L 2906 616 
Q 2728 306 2450 153 
Q 2172 0 1784 0 
Q 1141 0 747 490 
Q 353 981 353 1791 
Q 353 2603 747 3093 
Q 1141 3584 1784 3584 
Q 2172 3584 2450 3431 
Q 2728 3278 2906 2969 
L 2906 3500 
L 3481 3500 
L 3481 434 
z
" transform="scale(0.015625)"/>
      <path id="DejaVuSans-65" d="M 3597 1894 
L 3597 1613 
L 953 1613 
Q 991 1019 1311 708 
Q 1631 397 2203 397 
Q 2534 397 2845 478 
Q 3156 559 3463 722 
L 3463 178 
Q 3153 47 2828 -22 
Q 2503 -91 2169 -91 
Q 1331 -91 842 396 
Q 353 884 353 1716 
Q 353 2575 817 3079 
Q 1281 3584 2069 3584 
Q 2775 3584 3186 3129 
Q 3597 2675 3597 1894 
z
M 3022 2063 
Q 3016 2534 2758 2815 
Q 2500 3097 2075 3097 
Q 1594 3097 1305 2825 
Q 1016 2553 972 2059 
L 3022 2063 
z
" transform="scale(0.015625)"/>
      <path id="DejaVuSans-73" d="M 2834 3397 
L 2834 2853 
Q 2591 2978 2328 3040 
Q 2066 3103 1784 3103 
Q 1356 3103 1142 2972 
Q 928 2841 928 2578 
Q 928 2378 1081 2264 
Q 1234 2150 1697 2047 
L 1894 2003 
Q 2506 1872 2764 1633 
Q 3022 1394 3022 966 
Q 3022 478 2636 193 
Q 2250 -91 1575 -91 
Q 1294 -91 989 -36 
Q 684 19 347 128 
L 347 722 
Q 666 556 975 473 
Q 1284 391 1588 391 
Q 1994 391 2212 530 
Q 2431 669 2431 922 
Q 2431 1156 2273 1281 
Q 2116 1406 1581 1522 
L 1381 1569 
Q 847 1681 609 1914 
Q 372 2147 372 2553 
Q 372 3047 722 3315 
Q 1072 3584 1716 3584 
Q 2034 3584 2315 3537 
Q 2597 3491 2834 3397 
z
" transform="scale(0.015625)"/>
     </defs>
     <use xlink:href="#DejaVuSans-31"/>
     <use xlink:href="#DejaVuSans-30" x="63.623047"/>
     <use xlink:href="#DejaVuSans-62" x="127.246094"/>
     <use xlink:href="#DejaVuSans-6f" x="190.722656"/>
     <use xlink:href="#DejaVuSans-64" x="251.904297"/>
     <use xlink:href="#DejaVuSans-79" x="315.380859"/>
     <use xlink:href="#DejaVuSans-20" x="374.560547"/>
     <use xlink:href="#DejaVuSans-75" x="406.347656"/>
     <use xlink:href="#DejaVuSans-6e" x="469.726562"/>
     <use xlink:href="#DejaVuSans-69" x="533.105469"/>
     <use xlink:href="#DejaVuSans-74" x="560.888672"/>
     <use xlink:href="#DejaVuSans-61" x="600.097656"/>
     <use xlink:href="#DejaVuSans-72" x="661.376953"/>
     <use xlink:href="#DejaVuSans-79" x="702.490234"/>
     <use xlink:href="#DejaVuSans-20" x="761.669922"/>
     <use xlink:href="#DejaVuSans-67" x="793.457031"/>
     <use xlink:href="#DejaVuSans-61" x="856.933594"/>
     <use xlink:href="#DejaVuSans-74" x="918.212891"/>
     <use xlink:href="#DejaVuSans-65" x="957.421875"/>
     <use xlink:href="#DejaVuSans-73" x="1018.945312"/>
    </g>
   </g>
   <g id="legend_1">
    <g id="patch_7">
     <path d="M 272.127813 122.862625 
L 407.72 122.862625 
Q 409.72 122.862625 409.72 120.862625 
L 409.72 48.472 
Q 409.72 46.472 407.72 46.472 
L 272.127813 46.472 
Q 270.127813 46.472 270.127813 48.472 
L 270.127813 120.862625 
Q 270.127813 122.862625 272.127813 122.862625 
z
" style="fill: #ffffff; opacity: 0.8; stroke: #cccccc; stroke-linejoin: miter"/>
    </g>
    <g id="line2d_98">
     <path d="M 274.127813 54.570438 
L 284.127813 54.570438 
L 294.127813 54.570438 
" style="fill: none; stroke: #1f77b4; stroke-width: 1.5; stroke-linecap: square"/>
    </g>
    <g id="text_12">
     <!-- noise=1e-3,ee=4.38 -->
     <g transform="translate(302.127813 58.070438) scale(0.1 -0.1)">
      <defs>
       <path id="DejaVuSans-3d" d="M 678 2906 
L 4684 2906 
L 4684 2381 
L 678 2381 
L 678 2906 
z
M 678 1631 
L 4684 1631 
L 4684 1100 
L 678 1100 
L 678 1631 
z
" transform="scale(0.015625)"/>
       <path id="DejaVuSans-2d" d="M 313 2009 
L 1997 2009 
L 1997 1497 
L 313 1497 
L 313 2009 
z
" transform="scale(0.015625)"/>
       <path id="DejaVuSans-2c" d="M 750 794 
L 1409 794 
L 1409 256 
L 897 -744 
L 494 -744 
L 750 256 
L 750 794 
z
" transform="scale(0.015625)"/>
       <path id="DejaVuSans-2e" d="M 684 794 
L 1344 794 
L 1344 0 
L 684 0 
L 684 794 
z
" transform="scale(0.015625)"/>
       <path id="DejaVuSans-38" d="M 2034 2216 
Q 1584 2216 1326 1975 
Q 1069 1734 1069 1313 
Q 1069 891 1326 650 
Q 1584 409 2034 409 
Q 2484 409 2743 651 
Q 3003 894 3003 1313 
Q 3003 1734 2745 1975 
Q 2488 2216 2034 2216 
z
M 1403 2484 
Q 997 2584 770 2862 
Q 544 3141 544 3541 
Q 544 4100 942 4425 
Q 1341 4750 2034 4750 
Q 2731 4750 3128 4425 
Q 3525 4100 3525 3541 
Q 3525 3141 3298 2862 
Q 3072 2584 2669 2484 
Q 3125 2378 3379 2068 
Q 3634 1759 3634 1313 
Q 3634 634 3220 271 
Q 2806 -91 2034 -91 
Q 1263 -91 848 271 
Q 434 634 434 1313 
Q 434 1759 690 2068 
Q 947 2378 1403 2484 
z
M 1172 3481 
Q 1172 3119 1398 2916 
Q 1625 2713 2034 2713 
Q 2441 2713 2670 2916 
Q 2900 3119 2900 3481 
Q 2900 3844 2670 4047 
Q 2441 4250 2034 4250 
Q 1625 4250 1398 4047 
Q 1172 3844 1172 3481 
z
" transform="scale(0.015625)"/>
      </defs>
      <use xlink:href="#DejaVuSans-6e"/>
      <use xlink:href="#DejaVuSans-6f" x="63.378906"/>
      <use xlink:href="#DejaVuSans-69" x="124.560547"/>
      <use xlink:href="#DejaVuSans-73" x="152.34375"/>
      <use xlink:href="#DejaVuSans-65" x="204.443359"/>
      <use xlink:href="#DejaVuSans-3d" x="265.966797"/>
      <use xlink:href="#DejaVuSans-31" x="349.755859"/>
      <use xlink:href="#DejaVuSans-65" x="413.378906"/>
      <use xlink:href="#DejaVuSans-2d" x="474.902344"/>
      <use xlink:href="#DejaVuSans-33" x="510.986328"/>
      <use xlink:href="#DejaVuSans-2c" x="574.609375"/>
      <use xlink:href="#DejaVuSans-65" x="606.396484"/>
      <use xlink:href="#DejaVuSans-65" x="667.919922"/>
      <use xlink:href="#DejaVuSans-3d" x="729.443359"/>
      <use xlink:href="#DejaVuSans-34" x="813.232422"/>
      <use xlink:href="#DejaVuSans-2e" x="876.855469"/>
      <use xlink:href="#DejaVuSans-33" x="908.642578"/>
      <use xlink:href="#DejaVuSans-38" x="972.265625"/>
     </g>
    </g>
    <g id="line2d_99">
     <path d="M 274.127813 69.248563 
L 284.127813 69.248563 
L 294.127813 69.248563 
" style="fill: none; stroke: #ff7f0e; stroke-width: 1.5; stroke-linecap: square"/>
    </g>
    <g id="text_13">
     <!-- noise=1e-2,ee=6.49 -->
     <g transform="translate(302.127813 72.748563) scale(0.1 -0.1)">
      <defs>
       <path id="DejaVuSans-39" d="M 703 97 
L 703 672 
Q 941 559 1184 500 
Q 1428 441 1663 441 
Q 2288 441 2617 861 
Q 2947 1281 2994 2138 
Q 2813 1869 2534 1725 
Q 2256 1581 1919 1581 
Q 1219 1581 811 2004 
Q 403 2428 403 3163 
Q 403 3881 828 4315 
Q 1253 4750 1959 4750 
Q 2769 4750 3195 4129 
Q 3622 3509 3622 2328 
Q 3622 1225 3098 567 
Q 2575 -91 1691 -91 
Q 1453 -91 1209 -44 
Q 966 3 703 97 
z
M 1959 2075 
Q 2384 2075 2632 2365 
Q 2881 2656 2881 3163 
Q 2881 3666 2632 3958 
Q 2384 4250 1959 4250 
Q 1534 4250 1286 3958 
Q 1038 3666 1038 3163 
Q 1038 2656 1286 2365 
Q 1534 2075 1959 2075 
z
" transform="scale(0.015625)"/>
      </defs>
      <use xlink:href="#DejaVuSans-6e"/>
      <use xlink:href="#DejaVuSans-6f" x="63.378906"/>
      <use xlink:href="#DejaVuSans-69" x="124.560547"/>
      <use xlink:href="#DejaVuSans-73" x="152.34375"/>
      <use xlink:href="#DejaVuSans-65" x="204.443359"/>
      <use xlink:href="#DejaVuSans-3d" x="265.966797"/>
      <use xlink:href="#DejaVuSans-31" x="349.755859"/>
      <use xlink:href="#DejaVuSans-65" x="413.378906"/>
      <use xlink:href="#DejaVuSans-2d" x="474.902344"/>
      <use xlink:href="#DejaVuSans-32" x="510.986328"/>
      <use xlink:href="#DejaVuSans-2c" x="574.609375"/>
      <use xlink:href="#DejaVuSans-65" x="606.396484"/>
      <use xlink:href="#DejaVuSans-65" x="667.919922"/>
      <use xlink:href="#DejaVuSans-3d" x="729.443359"/>
      <use xlink:href="#DejaVuSans-36" x="813.232422"/>
      <use xlink:href="#DejaVuSans-2e" x="876.855469"/>
      <use xlink:href="#DejaVuSans-34" x="908.642578"/>
      <use xlink:href="#DejaVuSans-39" x="972.265625"/>
     </g>
    </g>
    <g id="line2d_100">
     <path d="M 274.127813 83.926688 
L 284.127813 83.926688 
L 294.127813 83.926688 
" style="fill: none; stroke: #2ca02c; stroke-width: 1.5; stroke-linecap: square"/>
    </g>
    <g id="text_14">
     <!-- noise=1e-1,ee=6.71 -->
     <g transform="translate(302.127813 87.426688) scale(0.1 -0.1)">
      <defs>
       <path id="DejaVuSans-37" d="M 525 4666 
L 3525 4666 
L 3525 4397 
L 1831 0 
L 1172 0 
L 2766 4134 
L 525 4134 
L 525 4666 
z
" transform="scale(0.015625)"/>
      </defs>
      <use xlink:href="#DejaVuSans-6e"/>
      <use xlink:href="#DejaVuSans-6f" x="63.378906"/>
      <use xlink:href="#DejaVuSans-69" x="124.560547"/>
      <use xlink:href="#DejaVuSans-73" x="152.34375"/>
      <use xlink:href="#DejaVuSans-65" x="204.443359"/>
      <use xlink:href="#DejaVuSans-3d" x="265.966797"/>
      <use xlink:href="#DejaVuSans-31" x="349.755859"/>
      <use xlink:href="#DejaVuSans-65" x="413.378906"/>
      <use xlink:href="#DejaVuSans-2d" x="474.902344"/>
      <use xlink:href="#DejaVuSans-31" x="510.986328"/>
      <use xlink:href="#DejaVuSans-2c" x="574.609375"/>
      <use xlink:href="#DejaVuSans-65" x="606.396484"/>
      <use xlink:href="#DejaVuSans-65" x="667.919922"/>
      <use xlink:href="#DejaVuSans-3d" x="729.443359"/>
      <use xlink:href="#DejaVuSans-36" x="813.232422"/>
      <use xlink:href="#DejaVuSans-2e" x="876.855469"/>
      <use xlink:href="#DejaVuSans-37" x="908.642578"/>
      <use xlink:href="#DejaVuSans-31" x="972.265625"/>
     </g>
    </g>
    <g id="line2d_101">
     <path d="M 274.127813 98.604813 
L 284.127813 98.604813 
L 294.127813 98.604813 
" style="fill: none; stroke: #d62728; stroke-width: 1.5; stroke-linecap: square"/>
    </g>
    <g id="text_15">
     <!-- noise=1e0,ee=6.71 -->
     <g transform="translate(302.127813 102.104813) scale(0.1 -0.1)">
      <use xlink:href="#DejaVuSans-6e"/>
      <use xlink:href="#DejaVuSans-6f" x="63.378906"/>
      <use xlink:href="#DejaVuSans-69" x="124.560547"/>
      <use xlink:href="#DejaVuSans-73" x="152.34375"/>
      <use xlink:href="#DejaVuSans-65" x="204.443359"/>
      <use xlink:href="#DejaVuSans-3d" x="265.966797"/>
      <use xlink:href="#DejaVuSans-31" x="349.755859"/>
      <use xlink:href="#DejaVuSans-65" x="413.378906"/>
      <use xlink:href="#DejaVuSans-30" x="474.902344"/>
      <use xlink:href="#DejaVuSans-2c" x="538.525391"/>
      <use xlink:href="#DejaVuSans-65" x="570.3125"/>
      <use xlink:href="#DejaVuSans-65" x="631.835938"/>
      <use xlink:href="#DejaVuSans-3d" x="693.359375"/>
      <use xlink:href="#DejaVuSans-36" x="777.148438"/>
      <use xlink:href="#DejaVuSans-2e" x="840.771484"/>
      <use xlink:href="#DejaVuSans-37" x="872.558594"/>
      <use xlink:href="#DejaVuSans-31" x="936.181641"/>
     </g>
    </g>
    <g id="line2d_102">
     <path d="M 274.127813 113.282938 
L 284.127813 113.282938 
L 294.127813 113.282938 
" style="fill: none; stroke: #9467bd; stroke-width: 1.5; stroke-linecap: square"/>
    </g>
    <g id="text_16">
     <!-- noise=1e1,ee=6.71 -->
     <g transform="translate(302.127813 116.782938) scale(0.1 -0.1)">
      <use xlink:href="#DejaVuSans-6e"/>
      <use xlink:href="#DejaVuSans-6f" x="63.378906"/>
      <use xlink:href="#DejaVuSans-69" x="124.560547"/>
      <use xlink:href="#DejaVuSans-73" x="152.34375"/>
      <use xlink:href="#DejaVuSans-65" x="204.443359"/>
      <use xlink:href="#DejaVuSans-3d" x="265.966797"/>
      <use xlink:href="#DejaVuSans-31" x="349.755859"/>
      <use xlink:href="#DejaVuSans-65" x="413.378906"/>
      <use xlink:href="#DejaVuSans-31" x="474.902344"/>
      <use xlink:href="#DejaVuSans-2c" x="538.525391"/>
      <use xlink:href="#DejaVuSans-65" x="570.3125"/>
      <use xlink:href="#DejaVuSans-65" x="631.835938"/>
      <use xlink:href="#DejaVuSans-3d" x="693.359375"/>
      <use xlink:href="#DejaVuSans-36" x="777.148438"/>
      <use xlink:href="#DejaVuSans-2e" x="840.771484"/>
      <use xlink:href="#DejaVuSans-37" x="872.558594"/>
      <use xlink:href="#DejaVuSans-31" x="936.181641"/>
     </g>
    </g>
   </g>
  </g>
 </g>
 <defs>
  <clipPath id="p720848f0d5">
   <rect x="57.6" y="41.472" width="357.12" height="266.112"/>
  </clipPath>
 </defs>
</svg>
