<?xml version="1.0" encoding="utf-8" standalone="no"?>
<!DOCTYPE svg PUBLIC "-//W3C//DTD SVG 1.1//EN"
  "http://www.w3.org/Graphics/SVG/1.1/DTD/svg11.dtd">
<svg xmlns:xlink="http://www.w3.org/1999/xlink" width="460.8pt" height="345.6pt" viewBox="0 0 460.8 345.6" xmlns="http://www.w3.org/2000/svg" version="1.1">
 <metadata>
  <rdf:RDF xmlns:dc="http://purl.org/dc/elements/1.1/" xmlns:cc="http://creativecommons.org/ns#" xmlns:rdf="http://www.w3.org/1999/02/22-rdf-syntax-ns#">
   <cc:Work>
    <dc:type rdf:resource="http://purl.org/dc/dcmitype/StillImage"/>
    <dc:date>2024-07-14T10:58:20.697410</dc:date>
    <dc:format>image/svg+xml</dc:format>
    <dc:creator>
     <cc:Agent>
      <dc:title>Matplotlib v3.7.1, https://matplotlib.org/</dc:title>
     </cc:Agent>
    </dc:creator>
   </cc:Work>
  </rdf:RDF>
 </metadata>
 <defs>
  <style type="text/css">*{stroke-linejoin: round; stroke-linecap: butt}</style>
 </defs>
 <g id="figure_1">
  <g id="patch_1">
   <path d="M 0 345.6 
L 460.8 345.6 
L 460.8 0 
L 0 0 
z
" style="fill: #ffffff"/>
  </g>
  <g id="axes_1">
   <g id="patch_2">
    <path d="M 57.6 307.584 
L 414.72 307.584 
L 414.72 41.472 
L 57.6 41.472 
z
" style="fill: #ffffff"/>
   </g>
   <g id="matplotlib.axis_1">
    <g id="xtick_1">
     <g id="line2d_1">
      <defs>
       <path id="m0f3dc0b461" d="M 0 0 
L 0 3.5 
" style="stroke: #000000; stroke-width: 0.8"/>
      </defs>
      <g>
       <use xlink:href="#m0f3dc0b461" x="73.832727" y="307.584" style="stroke: #000000; stroke-width: 0.8"/>
      </g>
     </g>
     <g id="text_1">
      <!-- 0 -->
      <g transform="translate(70.651477 322.182437) scale(0.1 -0.1)">
       <defs>
        <path id="DejaVuSans-30" d="M 2034 4250 
Q 1547 4250 1301 3770 
Q 1056 3291 1056 2328 
Q 1056 1369 1301 889 
Q 1547 409 2034 409 
Q 2525 409 2770 889 
Q 3016 1369 3016 2328 
Q 3016 3291 2770 3770 
Q 2525 4250 2034 4250 
z
M 2034 4750 
Q 2819 4750 3233 4129 
Q 3647 3509 3647 2328 
Q 3647 1150 3233 529 
Q 2819 -91 2034 -91 
Q 1250 -91 836 529 
Q 422 1150 422 2328 
Q 422 3509 836 4129 
Q 1250 4750 2034 4750 
z
" transform="scale(0.015625)"/>
       </defs>
       <use xlink:href="#DejaVuSans-30"/>
      </g>
     </g>
    </g>
    <g id="xtick_2">
     <g id="line2d_2">
      <g>
       <use xlink:href="#m0f3dc0b461" x="137.303802" y="307.584" style="stroke: #000000; stroke-width: 0.8"/>
      </g>
     </g>
     <g id="text_2">
      <!-- 200 -->
      <g transform="translate(127.760052 322.182437) scale(0.1 -0.1)">
       <defs>
        <path id="DejaVuSans-32" d="M 1228 531 
L 3431 531 
L 3431 0 
L 469 0 
L 469 531 
Q 828 903 1448 1529 
Q 2069 2156 2228 2338 
Q 2531 2678 2651 2914 
Q 2772 3150 2772 3378 
Q 2772 3750 2511 3984 
Q 2250 4219 1831 4219 
Q 1534 4219 1204 4116 
Q 875 4013 500 3803 
L 500 4441 
Q 881 4594 1212 4672 
Q 1544 4750 1819 4750 
Q 2544 4750 2975 4387 
Q 3406 4025 3406 3419 
Q 3406 3131 3298 2873 
Q 3191 2616 2906 2266 
Q 2828 2175 2409 1742 
Q 1991 1309 1228 531 
z
" transform="scale(0.015625)"/>
       </defs>
       <use xlink:href="#DejaVuSans-32"/>
       <use xlink:href="#DejaVuSans-30" x="63.623047"/>
       <use xlink:href="#DejaVuSans-30" x="127.246094"/>
      </g>
     </g>
    </g>
    <g id="xtick_3">
     <g id="line2d_3">
      <g>
       <use xlink:href="#m0f3dc0b461" x="200.774876" y="307.584" style="stroke: #000000; stroke-width: 0.8"/>
      </g>
     </g>
     <g id="text_3">
      <!-- 400 -->
      <g transform="translate(191.231126 322.182437) scale(0.1 -0.1)">
       <defs>
        <path id="DejaVuSans-34" d="M 2419 4116 
L 825 1625 
L 2419 1625 
L 2419 4116 
z
M 2253 4666 
L 3047 4666 
L 3047 1625 
L 3713 1625 
L 3713 1100 
L 3047 1100 
L 3047 0 
L 2419 0 
L 2419 1100 
L 313 1100 
L 313 1709 
L 2253 4666 
z
" transform="scale(0.015625)"/>
       </defs>
       <use xlink:href="#DejaVuSans-34"/>
       <use xlink:href="#DejaVuSans-30" x="63.623047"/>
       <use xlink:href="#DejaVuSans-30" x="127.246094"/>
      </g>
     </g>
    </g>
    <g id="xtick_4">
     <g id="line2d_4">
      <g>
       <use xlink:href="#m0f3dc0b461" x="264.24595" y="307.584" style="stroke: #000000; stroke-width: 0.8"/>
      </g>
     </g>
     <g id="text_4">
      <!-- 600 -->
      <g transform="translate(254.7022 322.182437) scale(0.1 -0.1)">
       <defs>
        <path id="DejaVuSans-36" d="M 2113 2584 
Q 1688 2584 1439 2293 
Q 1191 2003 1191 1497 
Q 1191 994 1439 701 
Q 1688 409 2113 409 
Q 2538 409 2786 701 
Q 3034 994 3034 1497 
Q 3034 2003 2786 2293 
Q 2538 2584 2113 2584 
z
M 3366 4563 
L 3366 3988 
Q 3128 4100 2886 4159 
Q 2644 4219 2406 4219 
Q 1781 4219 1451 3797 
Q 1122 3375 1075 2522 
Q 1259 2794 1537 2939 
Q 1816 3084 2150 3084 
Q 2853 3084 3261 2657 
Q 3669 2231 3669 1497 
Q 3669 778 3244 343 
Q 2819 -91 2113 -91 
Q 1303 -91 875 529 
Q 447 1150 447 2328 
Q 447 3434 972 4092 
Q 1497 4750 2381 4750 
Q 2619 4750 2861 4703 
Q 3103 4656 3366 4563 
z
" transform="scale(0.015625)"/>
       </defs>
       <use xlink:href="#DejaVuSans-36"/>
       <use xlink:href="#DejaVuSans-30" x="63.623047"/>
       <use xlink:href="#DejaVuSans-30" x="127.246094"/>
      </g>
     </g>
    </g>
    <g id="xtick_5">
     <g id="line2d_5">
      <g>
       <use xlink:href="#m0f3dc0b461" x="327.717025" y="307.584" style="stroke: #000000; stroke-width: 0.8"/>
      </g>
     </g>
     <g id="text_5">
      <!-- 800 -->
      <g transform="translate(318.173275 322.182437) scale(0.1 -0.1)">
       <defs>
        <path id="DejaVuSans-38" d="M 2034 2216 
Q 1584 2216 1326 1975 
Q 1069 1734 1069 1313 
Q 1069 891 1326 650 
Q 1584 409 2034 409 
Q 2484 409 2743 651 
Q 3003 894 3003 1313 
Q 3003 1734 2745 1975 
Q 2488 2216 2034 2216 
z
M 1403 2484 
Q 997 2584 770 2862 
Q 544 3141 544 3541 
Q 544 4100 942 4425 
Q 1341 4750 2034 4750 
Q 2731 4750 3128 4425 
Q 3525 4100 3525 3541 
Q 3525 3141 3298 2862 
Q 3072 2584 2669 2484 
Q 3125 2378 3379 2068 
Q 3634 1759 3634 1313 
Q 3634 634 3220 271 
Q 2806 -91 2034 -91 
Q 1263 -91 848 271 
Q 434 634 434 1313 
Q 434 1759 690 2068 
Q 947 2378 1403 2484 
z
M 1172 3481 
Q 1172 3119 1398 2916 
Q 1625 2713 2034 2713 
Q 2441 2713 2670 2916 
Q 2900 3119 2900 3481 
Q 2900 3844 2670 4047 
Q 2441 4250 2034 4250 
Q 1625 4250 1398 4047 
Q 1172 3844 1172 3481 
z
" transform="scale(0.015625)"/>
       </defs>
       <use xlink:href="#DejaVuSans-38"/>
       <use xlink:href="#DejaVuSans-30" x="63.623047"/>
       <use xlink:href="#DejaVuSans-30" x="127.246094"/>
      </g>
     </g>
    </g>
    <g id="xtick_6">
     <g id="line2d_6">
      <g>
       <use xlink:href="#m0f3dc0b461" x="391.188099" y="307.584" style="stroke: #000000; stroke-width: 0.8"/>
      </g>
     </g>
     <g id="text_6">
      <!-- 1000 -->
      <g transform="translate(378.463099 322.182437) scale(0.1 -0.1)">
       <defs>
        <path id="DejaVuSans-31" d="M 794 531 
L 1825 531 
L 1825 4091 
L 703 3866 
L 703 4441 
L 1819 4666 
L 2450 4666 
L 2450 531 
L 3481 531 
L 3481 0 
L 794 0 
L 794 531 
z
" transform="scale(0.015625)"/>
       </defs>
       <use xlink:href="#DejaVuSans-31"/>
       <use xlink:href="#DejaVuSans-30" x="63.623047"/>
       <use xlink:href="#DejaVuSans-30" x="127.246094"/>
       <use xlink:href="#DejaVuSans-30" x="190.869141"/>
      </g>
     </g>
    </g>
    <g id="text_7">
     <!-- n -->
     <g transform="translate(232.99125 335.860562) scale(0.1 -0.1)">
      <defs>
       <path id="DejaVuSans-6e" d="M 3513 2113 
L 3513 0 
L 2938 0 
L 2938 2094 
Q 2938 2591 2744 2837 
Q 2550 3084 2163 3084 
Q 1697 3084 1428 2787 
Q 1159 2491 1159 1978 
L 1159 0 
L 581 0 
L 581 3500 
L 1159 3500 
L 1159 2956 
Q 1366 3272 1645 3428 
Q 1925 3584 2291 3584 
Q 2894 3584 3203 3211 
Q 3513 2838 3513 2113 
z
" transform="scale(0.015625)"/>
      </defs>
      <use xlink:href="#DejaVuSans-6e"/>
     </g>
    </g>
   </g>
   <g id="matplotlib.axis_2">
    <g id="ytick_1">
     <g id="line2d_7">
      <defs>
       <path id="m097ea2ab6c" d="M 0 0 
L -3.5 0 
" style="stroke: #000000; stroke-width: 0.8"/>
      </defs>
      <g>
       <use xlink:href="#m097ea2ab6c" x="57.6" y="287.538794" style="stroke: #000000; stroke-width: 0.8"/>
      </g>
     </g>
     <g id="text_8">
      <!-- −0.4 -->
      <g transform="translate(26.317187 291.338013) scale(0.1 -0.1)">
       <defs>
        <path id="DejaVuSans-2212" d="M 678 2272 
L 4684 2272 
L 4684 1741 
L 678 1741 
L 678 2272 
z
" transform="scale(0.015625)"/>
        <path id="DejaVuSans-2e" d="M 684 794 
L 1344 794 
L 1344 0 
L 684 0 
L 684 794 
z
" transform="scale(0.015625)"/>
       </defs>
       <use xlink:href="#DejaVuSans-2212"/>
       <use xlink:href="#DejaVuSans-30" x="83.789062"/>
       <use xlink:href="#DejaVuSans-2e" x="147.412109"/>
       <use xlink:href="#DejaVuSans-34" x="179.199219"/>
      </g>
     </g>
    </g>
    <g id="ytick_2">
     <g id="line2d_8">
      <g>
       <use xlink:href="#m097ea2ab6c" x="57.6" y="243.754638" style="stroke: #000000; stroke-width: 0.8"/>
      </g>
     </g>
     <g id="text_9">
      <!-- −0.2 -->
      <g transform="translate(26.317187 247.553857) scale(0.1 -0.1)">
       <use xlink:href="#DejaVuSans-2212"/>
       <use xlink:href="#DejaVuSans-30" x="83.789062"/>
       <use xlink:href="#DejaVuSans-2e" x="147.412109"/>
       <use xlink:href="#DejaVuSans-32" x="179.199219"/>
      </g>
     </g>
    </g>
    <g id="ytick_3">
     <g id="line2d_9">
      <g>
       <use xlink:href="#m097ea2ab6c" x="57.6" y="199.970481" style="stroke: #000000; stroke-width: 0.8"/>
      </g>
     </g>
     <g id="text_10">
      <!-- 0.0 -->
      <g transform="translate(34.696875 203.7697) scale(0.1 -0.1)">
       <use xlink:href="#DejaVuSans-30"/>
       <use xlink:href="#DejaVuSans-2e" x="63.623047"/>
       <use xlink:href="#DejaVuSans-30" x="95.410156"/>
      </g>
     </g>
    </g>
    <g id="ytick_4">
     <g id="line2d_10">
      <g>
       <use xlink:href="#m097ea2ab6c" x="57.6" y="156.186325" style="stroke: #000000; stroke-width: 0.8"/>
      </g>
     </g>
     <g id="text_11">
      <!-- 0.2 -->
      <g transform="translate(34.696875 159.985544) scale(0.1 -0.1)">
       <use xlink:href="#DejaVuSans-30"/>
       <use xlink:href="#DejaVuSans-2e" x="63.623047"/>
       <use xlink:href="#DejaVuSans-32" x="95.410156"/>
      </g>
     </g>
    </g>
    <g id="ytick_5">
     <g id="line2d_11">
      <g>
       <use xlink:href="#m097ea2ab6c" x="57.6" y="112.402169" style="stroke: #000000; stroke-width: 0.8"/>
      </g>
     </g>
     <g id="text_12">
      <!-- 0.4 -->
      <g transform="translate(34.696875 116.201387) scale(0.1 -0.1)">
       <use xlink:href="#DejaVuSans-30"/>
       <use xlink:href="#DejaVuSans-2e" x="63.623047"/>
       <use xlink:href="#DejaVuSans-34" x="95.410156"/>
      </g>
     </g>
    </g>
    <g id="ytick_6">
     <g id="line2d_12">
      <g>
       <use xlink:href="#m097ea2ab6c" x="57.6" y="68.618012" style="stroke: #000000; stroke-width: 0.8"/>
      </g>
     </g>
     <g id="text_13">
      <!-- 0.6 -->
      <g transform="translate(34.696875 72.417231) scale(0.1 -0.1)">
       <use xlink:href="#DejaVuSans-30"/>
       <use xlink:href="#DejaVuSans-2e" x="63.623047"/>
       <use xlink:href="#DejaVuSans-36" x="95.410156"/>
      </g>
     </g>
    </g>
    <g id="text_14">
     <!-- E*t -->
     <g transform="translate(20.2375 182.147531) rotate(-90) scale(0.1 -0.1)">
      <defs>
       <path id="DejaVuSans-45" d="M 628 4666 
L 3578 4666 
L 3578 4134 
L 1259 4134 
L 1259 2753 
L 3481 2753 
L 3481 2222 
L 1259 2222 
L 1259 531 
L 3634 531 
L 3634 0 
L 628 0 
L 628 4666 
z
" transform="scale(0.015625)"/>
       <path id="DejaVuSans-2a" d="M 3009 3897 
L 1888 3291 
L 3009 2681 
L 2828 2375 
L 1778 3009 
L 1778 1831 
L 1422 1831 
L 1422 3009 
L 372 2375 
L 191 2681 
L 1313 3291 
L 191 3897 
L 372 4206 
L 1422 3572 
L 1422 4750 
L 1778 4750 
L 1778 3572 
L 2828 4206 
L 3009 3897 
z
" transform="scale(0.015625)"/>
       <path id="DejaVuSans-74" d="M 1172 4494 
L 1172 3500 
L 2356 3500 
L 2356 3053 
L 1172 3053 
L 1172 1153 
Q 1172 725 1289 603 
Q 1406 481 1766 481 
L 2356 481 
L 2356 0 
L 1766 0 
Q 1100 0 847 248 
Q 594 497 594 1153 
L 594 3053 
L 172 3053 
L 172 3500 
L 594 3500 
L 594 4494 
L 1172 4494 
z
" transform="scale(0.015625)"/>
      </defs>
      <use xlink:href="#DejaVuSans-45"/>
      <use xlink:href="#DejaVuSans-2a" x="63.183594"/>
      <use xlink:href="#DejaVuSans-74" x="113.183594"/>
     </g>
    </g>
   </g>
   <g id="line2d_13">
    <path d="M 73.832727 295.488 
L 74.150083 293.320608 
L 74.467438 292.006152 
L 74.784793 291.487083 
L 75.102149 290.421433 
L 75.419504 289.985561 
L 75.73686 288.920709 
L 76.054215 288.727169 
L 77.006281 286.765464 
L 77.323636 286.589887 
L 77.640992 286.089365 
L 78.275702 285.696795 
L 78.593058 284.996801 
L 79.545124 284.161674 
L 79.862479 283.623109 
L 80.179835 283.550103 
L 81.131901 282.859119 
L 81.449256 282.13093 
L 82.718678 281.372793 
L 83.353388 280.842091 
L 85.892231 278.994125 
L 86.209587 278.532826 
L 86.844298 278.252827 
L 88.113719 277.517883 
L 88.74843 277.038892 
L 89.065785 276.918201 
L 89.38314 276.611814 
L 89.700496 276.542173 
L 90.335207 276.046743 
L 91.604628 275.448114 
L 92.239339 274.92819 
L 92.556694 274.84486 
L 93.826116 273.793726 
L 94.460826 273.481207 
L 95.095537 273.089741 
L 98.903802 270.778493 
L 99.221157 270.514306 
L 99.855868 270.221065 
L 101.76 269.12894 
L 102.394711 268.612614 
L 102.712066 268.544295 
L 103.029421 268.244677 
L 104.298843 267.547828 
L 104.616198 267.377304 
L 104.933554 267.34586 
L 105.250909 267.075972 
L 105.568264 267.032012 
L 106.202975 266.607216 
L 107.155041 266.18861 
L 109.059174 265.071836 
L 111.915372 263.711497 
L 113.184793 262.828351 
L 113.502149 262.612965 
L 113.819504 262.537996 
L 115.088926 261.785504 
L 115.723636 261.640001 
L 116.993058 261.081468 
L 117.627769 260.508953 
L 117.945124 260.468962 
L 118.89719 259.852765 
L 119.214545 259.733092 
L 119.531901 259.477342 
L 119.849256 259.392152 
L 120.483967 258.870158 
L 121.753388 258.344287 
L 123.340165 257.559046 
L 124.292231 256.994573 
L 124.926942 256.746628 
L 126.513719 256.016187 
L 127.14843 255.712268 
L 127.78314 255.452194 
L 128.100496 255.398957 
L 129.052562 254.850114 
L 129.687273 254.721114 
L 130.004628 254.46418 
L 130.639339 254.247727 
L 132.543471 253.504909 
L 133.178182 253.027846 
L 133.812893 252.821031 
L 134.130248 252.736053 
L 134.447603 252.404615 
L 135.717025 251.884546 
L 136.669091 251.58152 
L 137.621157 251.133531 
L 138.255868 250.918061 
L 141.112066 249.665751 
L 141.746777 249.432724 
L 143.016198 248.755793 
L 143.333554 248.711705 
L 143.650909 248.23466 
L 144.920331 247.803411 
L 145.555041 247.4722 
L 146.189752 247.205827 
L 149.680661 245.804176 
L 150.315372 245.35675 
L 150.632727 245.085258 
L 151.267438 244.940787 
L 151.584793 244.694531 
L 152.219504 244.500751 
L 152.854215 244.004936 
L 156.662479 242.156263 
L 156.979835 241.849202 
L 160.470744 240.329492 
L 161.105455 240.10456 
L 163.961653 238.613982 
L 164.596364 238.409658 
L 165.231074 238.079059 
L 165.54843 237.973228 
L 166.817851 237.093319 
L 167.135207 236.901789 
L 167.769917 236.751333 
L 168.721983 236.280588 
L 169.356694 235.990412 
L 169.67405 235.953007 
L 170.30876 235.611599 
L 170.943471 235.506464 
L 171.260826 235.26582 
L 171.578182 235.173803 
L 172.212893 234.777538 
L 172.847603 234.476628 
L 173.164959 234.143293 
L 174.43438 233.814132 
L 175.386446 233.49432 
L 176.338512 233.196766 
L 178.242645 232.366849 
L 180.146777 231.644013 
L 180.464132 231.383349 
L 180.781488 231.328731 
L 182.68562 230.37651 
L 183.002975 230.359993 
L 183.320331 230.093552 
L 183.955041 229.897402 
L 184.589752 229.587242 
L 184.907107 229.52844 
L 185.859174 229.050529 
L 186.81124 228.785005 
L 187.763306 228.504333 
L 188.398017 228.287943 
L 189.667438 227.628729 
L 190.302149 227.282245 
L 191.254215 227.014447 
L 194.745124 225.747205 
L 195.379835 225.557547 
L 196.649256 224.944757 
L 197.283967 224.654392 
L 197.918678 224.484625 
L 198.870744 223.999408 
L 199.505455 223.843862 
L 200.140165 223.60076 
L 200.774876 223.393887 
L 202.996364 222.726982 
L 203.631074 222.335419 
L 208.07405 220.772688 
L 208.391405 220.529775 
L 209.026116 220.256517 
L 209.978182 219.894925 
L 210.295537 219.707014 
L 211.247603 219.4447 
L 211.882314 219.140121 
L 212.517025 218.985338 
L 215.373223 218.058772 
L 215.690579 217.819799 
L 216.007934 217.776828 
L 216.642645 217.415822 
L 217.277355 217.256642 
L 217.594711 217.187185 
L 218.229421 216.922467 
L 226.480661 214.040502 
L 232.193058 212.084871 
L 232.510413 212.055838 
L 233.779835 211.541851 
L 236.001322 210.947584 
L 238.857521 210.064195 
L 239.174876 209.985901 
L 239.492231 209.699581 
L 240.761653 209.266568 
L 241.079008 209.215963 
L 241.396364 208.998055 
L 244.252562 208.191325 
L 245.839339 207.663426 
L 248.695537 206.61439 
L 251.23438 205.677686 
L 251.869091 205.365053 
L 252.821157 205.021838 
L 253.773223 204.646996 
L 254.407934 204.255754 
L 255.677355 203.847306 
L 258.850909 202.723586 
L 259.168264 202.645911 
L 260.120331 202.164942 
L 261.072397 202.000471 
L 261.707107 201.788601 
L 262.659174 201.47478 
L 263.61124 201.035812 
L 264.563306 200.708381 
L 265.198017 200.474251 
L 266.150083 200.330524 
L 266.784793 200.083839 
L 268.054215 199.696523 
L 269.323636 199.071231 
L 271.227769 198.386489 
L 271.862479 198.065631 
L 272.179835 198.017228 
L 272.814545 197.679879 
L 273.449256 197.460129 
L 273.766612 197.218504 
L 274.718678 196.96112 
L 275.353388 196.566478 
L 278.209587 195.613895 
L 278.526942 195.535816 
L 279.479008 195.028124 
L 280.113719 194.71439 
L 281.38314 194.240239 
L 283.287273 193.319027 
L 284.239339 192.797795 
L 284.87405 192.69989 
L 286.460826 191.940034 
L 287.095537 191.733503 
L 287.730248 191.474804 
L 288.364959 191.083597 
L 288.682314 191.03739 
L 288.999669 190.840266 
L 289.317025 190.814015 
L 289.63438 190.635223 
L 289.951736 190.30763 
L 290.586446 190.132326 
L 292.173223 189.598346 
L 292.807934 189.417007 
L 293.76 189.054763 
L 294.712066 188.595452 
L 295.029421 188.519307 
L 295.346777 188.220147 
L 296.298843 187.869147 
L 299.789752 186.242236 
L 300.424463 185.82987 
L 301.059174 185.642482 
L 301.376529 185.400122 
L 302.01124 185.129555 
L 302.64595 184.812741 
L 303.915372 184.406235 
L 304.550083 184.037175 
L 304.867438 183.89853 
L 305.502149 183.466278 
L 307.088926 182.792801 
L 307.406281 182.556875 
L 307.723636 182.4654 
L 308.993058 181.679822 
L 310.262479 181.259684 
L 310.89719 180.647376 
L 312.483967 179.853305 
L 312.801322 179.477502 
L 315.02281 178.66541 
L 315.657521 178.343114 
L 315.974876 178.112361 
L 316.609587 177.90016 
L 317.879008 177.205813 
L 318.513719 176.898461 
L 318.831074 176.472054 
L 320.100496 175.790331 
L 320.417851 175.715287 
L 320.735207 175.456905 
L 321.052562 175.363673 
L 322.639339 174.35261 
L 322.956694 174.163163 
L 323.591405 173.598945 
L 323.90876 173.310863 
L 326.130248 172.451895 
L 326.447603 172.174237 
L 327.082314 171.92546 
L 327.399669 171.674479 
L 327.717025 171.609484 
L 328.351736 171.244951 
L 328.669091 171.152983 
L 328.986446 170.843905 
L 329.938512 170.432312 
L 330.255868 170.402084 
L 330.573223 170.065797 
L 331.525289 169.625185 
L 332.477355 169.306678 
L 334.381488 167.833565 
L 335.016198 167.713787 
L 335.968264 167.139255 
L 339.141818 165.419128 
L 339.459174 165.056572 
L 340.093884 164.864681 
L 340.728595 164.412716 
L 341.04595 164.296593 
L 341.680661 163.757122 
L 341.998017 163.285197 
L 342.950083 162.687104 
L 343.902149 161.857784 
L 344.219504 161.778819 
L 346.440992 160.34473 
L 348.027769 159.473158 
L 348.345124 159.433511 
L 349.29719 159.015619 
L 349.614545 158.912671 
L 349.931901 158.669796 
L 350.249256 158.63393 
L 350.883967 158.175138 
L 351.201322 158.065312 
L 351.518678 157.828989 
L 352.153388 157.556639 
L 352.470744 157.324318 
L 352.788099 157.264699 
L 353.105455 156.672509 
L 353.42281 156.634614 
L 353.740165 155.932469 
L 354.057521 155.682509 
L 354.692231 155.498951 
L 355.644298 154.687882 
L 355.961653 154.28833 
L 356.596364 154.055951 
L 356.913719 153.512615 
L 357.54843 153.197967 
L 357.865785 152.727175 
L 358.500496 152.535697 
L 359.769917 151.326804 
L 360.404628 151.073889 
L 361.356694 150.597581 
L 361.67405 150.330015 
L 361.991405 149.761783 
L 362.30876 149.749553 
L 362.626116 149.601929 
L 362.943471 149.126798 
L 363.578182 148.916768 
L 363.895537 148.518895 
L 365.799669 147.459661 
L 366.43438 146.849035 
L 367.386446 146.355638 
L 367.703802 145.90997 
L 368.338512 145.64 
L 368.655868 145.485054 
L 368.973223 144.666496 
L 369.290579 144.528461 
L 369.607934 144.001546 
L 370.242645 143.482025 
L 370.877355 142.015528 
L 371.194711 141.69952 
L 371.512066 141.069251 
L 371.829421 140.971654 
L 373.098843 139.795167 
L 373.416198 139.699589 
L 374.368264 138.969808 
L 374.68562 138.537473 
L 375.002975 138.387532 
L 375.637686 137.587201 
L 375.955041 136.692288 
L 376.589752 136.352685 
L 376.907107 135.940116 
L 377.224463 135.757881 
L 377.859174 134.218108 
L 378.176529 134.012602 
L 378.493884 133.187148 
L 378.81124 132.995959 
L 379.128595 132.300467 
L 379.44595 132.152341 
L 379.763306 131.612186 
L 380.398017 129.770009 
L 380.715372 129.621262 
L 381.032727 129.311057 
L 381.350083 128.636126 
L 382.93686 127.569619 
L 383.57157 126.870739 
L 383.888926 126.605837 
L 384.523636 125.683014 
L 385.158347 123.814961 
L 385.475702 123.521456 
L 385.793058 121.916946 
L 386.427769 121.114147 
L 387.062479 119.562977 
L 387.379835 119.1099 
L 387.69719 117.991195 
L 388.014545 117.434678 
L 388.331901 117.257807 
L 388.649256 116.731183 
L 388.966612 116.44995 
L 390.236033 113.145047 
L 390.553388 111.494589 
L 391.188099 109.584643 
L 393.092231 105.364354 
L 393.409587 104.462235 
L 393.726942 103.188195 
L 394.044298 102.726909 
L 394.361653 99.977169 
L 394.679008 98.87801 
L 395.313719 97.738751 
L 395.631074 97.480212 
L 395.94843 96.876014 
L 396.265785 89.956494 
L 396.58314 86.971621 
L 396.900496 85.748686 
L 397.217851 85.197808 
L 397.535207 72.97995 
L 397.852562 72.41162 
L 398.169917 71.17544 
L 398.487273 61.519973 
L 398.487273 61.519973 
" clip-path="url(#p4c855f0377)" style="fill: none; stroke: #1f77b4; stroke-width: 1.5; stroke-linecap: square"/>
   </g>
   <g id="line2d_14">
    <path d="M 73.832727 281.211845 
L 74.150083 281.211845 
L 74.467438 280.773256 
L 74.784793 280.773256 
L 75.102149 280.173259 
L 75.419504 280.173259 
L 76.37157 279.825591 
L 76.688926 278.658681 
L 77.006281 278.658681 
L 77.323636 278.174765 
L 77.640992 278.174765 
L 77.958347 277.205187 
L 78.275702 277.205187 
L 78.593058 276.857182 
L 78.910413 275.498151 
L 79.227769 275.498151 
L 79.545124 275.15791 
L 80.49719 275.084755 
L 80.814545 274.025351 
L 81.131901 273.894623 
L 81.449256 273.894623 
L 81.766612 273.266202 
L 82.718678 273.250473 
L 83.036033 272.662054 
L 83.353388 272.662054 
L 83.670744 272.151495 
L 83.988099 271.945519 
L 84.305455 271.945519 
L 84.62281 271.717211 
L 84.940165 271.717211 
L 85.257521 271.451625 
L 85.574876 270.753181 
L 86.209587 270.675773 
L 86.526942 270.094943 
L 87.479008 270.021127 
L 87.796364 269.805304 
L 88.113719 269.805304 
L 88.431074 269.239617 
L 88.74843 268.914938 
L 89.065785 268.914938 
L 89.38314 268.608747 
L 89.700496 267.906204 
L 90.017851 267.906204 
L 90.335207 267.347162 
L 90.969917 267.259115 
L 91.287273 266.693838 
L 92.556694 266.605267 
L 92.87405 265.700318 
L 93.826116 265.585698 
L 94.143471 265.44851 
L 94.460826 265.44851 
L 94.778182 265.231389 
L 95.095537 265.231389 
L 95.412893 264.307734 
L 95.730248 264.307734 
L 96.047603 264.0888 
L 96.999669 264.047235 
L 97.951736 263.810612 
L 98.269091 263.560922 
L 98.586446 262.719124 
L 98.903802 262.719124 
L 99.221157 262.073992 
L 100.173223 261.968655 
L 100.490579 261.773776 
L 100.807934 261.773776 
L 101.125289 261.575901 
L 101.442645 261.575901 
L 102.077355 260.894454 
L 102.712066 260.883134 
L 103.029421 260.330863 
L 103.346777 260.330863 
L 103.664132 260.192458 
L 103.981488 260.192458 
L 104.616198 259.438893 
L 104.933554 259.438893 
L 105.568264 258.814638 
L 105.88562 258.814638 
L 106.202975 258.621242 
L 106.520331 258.621242 
L 106.837686 257.54649 
L 107.789752 257.47634 
L 108.107107 257.47634 
L 108.424463 257.095208 
L 109.059174 257.045737 
L 109.376529 256.652173 
L 109.693884 256.652173 
L 110.01124 256.142666 
L 110.328595 256.142666 
L 110.64595 255.808421 
L 111.280661 255.70883 
L 111.598017 255.567353 
L 112.232727 255.473983 
L 112.550083 255.307589 
L 112.867438 255.307589 
L 113.184793 254.60732 
L 114.13686 254.552015 
L 114.454215 254.176052 
L 115.406281 253.674453 
L 115.723636 253.674453 
L 116.040992 253.353062 
L 116.358347 253.353062 
L 116.675702 253.186205 
L 116.993058 253.186205 
L 117.310413 252.24689 
L 118.579835 252.209006 
L 119.849256 251.989643 
L 120.166612 251.31979 
L 120.483967 251.31979 
L 120.801322 250.694584 
L 121.118678 250.694584 
L 121.436033 250.378181 
L 121.753388 250.378181 
L 122.070744 250.258638 
L 122.388099 250.258638 
L 123.340165 249.008174 
L 123.974876 248.995103 
L 124.292231 248.85596 
L 124.926942 248.84945 
L 125.244298 248.360347 
L 125.561653 248.360347 
L 125.879008 247.918795 
L 126.196364 247.918795 
L 126.513719 247.221434 
L 127.14843 247.177919 
L 127.465785 246.350095 
L 129.052562 246.336329 
L 129.687273 245.840747 
L 131.27405 245.638798 
L 131.591405 245.288352 
L 132.226116 245.202268 
L 133.178182 245.115891 
L 133.495537 245.115891 
L 134.764959 244.452838 
L 135.399669 244.42903 
L 135.717025 244.191162 
L 136.669091 244.187237 
L 136.986446 243.832806 
L 137.303802 243.832806 
L 137.621157 243.624447 
L 137.938512 243.128109 
L 138.573223 242.974612 
L 138.890579 242.974612 
L 139.207934 242.763544 
L 139.525289 242.763544 
L 139.842645 242.50191 
L 140.16 242.50191 
L 140.477355 241.798525 
L 141.429421 241.740685 
L 141.746777 241.601058 
L 142.064132 241.229915 
L 142.381488 241.229915 
L 142.698843 240.628979 
L 143.333554 240.628261 
L 143.650909 240.479317 
L 143.968264 240.479317 
L 144.28562 240.134278 
L 144.602975 239.955163 
L 145.555041 239.871502 
L 146.189752 239.631057 
L 146.507107 239.631057 
L 146.824463 239.363034 
L 147.141818 239.363034 
L 147.776529 238.535486 
L 149.363306 238.435607 
L 149.680661 238.367156 
L 149.998017 236.403983 
L 150.315372 236.403983 
L 150.950083 236.006484 
L 151.267438 236.006484 
L 151.584793 235.658459 
L 152.219504 235.614993 
L 152.854215 235.268812 
L 153.17157 235.268812 
L 153.488926 234.89555 
L 154.440992 234.674398 
L 154.758347 234.674398 
L 155.393058 234.517615 
L 155.710413 234.517615 
L 156.027769 234.202689 
L 158.249256 234.043962 
L 158.566612 233.374205 
L 159.201322 233.364979 
L 159.518678 232.309814 
L 160.153388 232.280208 
L 160.470744 231.968505 
L 160.788099 231.964057 
L 161.105455 231.719732 
L 162.057521 231.672373 
L 162.374876 231.405197 
L 163.326942 231.35351 
L 163.644298 231.073259 
L 163.961653 231.073259 
L 164.279008 230.852787 
L 164.596364 230.852787 
L 164.913719 230.710619 
L 165.231074 229.878077 
L 165.54843 229.878077 
L 165.865785 229.414274 
L 166.500496 229.339377 
L 166.817851 229.312916 
L 167.135207 228.876887 
L 167.769917 228.77898 
L 168.087273 228.396843 
L 168.404628 228.396843 
L 169.039339 227.736271 
L 169.356694 227.736271 
L 169.67405 227.387867 
L 170.943471 227.358963 
L 171.260826 226.860697 
L 171.578182 226.717638 
L 171.895537 226.717638 
L 172.212893 226.069227 
L 172.530248 226.069227 
L 172.847603 225.571647 
L 173.799669 225.477859 
L 174.117025 225.334182 
L 174.43438 225.334182 
L 175.386446 224.945184 
L 176.021157 224.891536 
L 176.338512 224.585499 
L 177.290579 224.529074 
L 177.607934 224.529074 
L 178.242645 224.34478 
L 178.56 224.34478 
L 178.877355 223.960805 
L 179.512066 223.90266 
L 179.829421 223.748999 
L 180.146777 223.748999 
L 180.464132 223.467333 
L 180.781488 223.467333 
L 181.098843 223.133313 
L 181.733554 223.10865 
L 182.050909 222.51694 
L 183.002975 222.253153 
L 183.320331 222.253153 
L 183.955041 222.046095 
L 184.272397 222.046095 
L 184.589752 221.893033 
L 184.907107 221.893033 
L 185.224463 221.21839 
L 185.541818 221.21839 
L 186.176529 220.866303 
L 187.44595 220.798083 
L 188.080661 220.591867 
L 188.398017 220.180666 
L 188.715372 220.180666 
L 189.032727 219.923075 
L 189.667438 219.913165 
L 189.984793 219.501544 
L 190.302149 219.501544 
L 190.619504 218.527209 
L 190.93686 218.527209 
L 191.57157 218.361466 
L 191.888926 218.361466 
L 192.206281 217.560064 
L 193.475702 217.514558 
L 193.793058 217.337383 
L 194.110413 217.337383 
L 194.745124 217.219461 
L 196.649256 217.115397 
L 196.966612 216.939552 
L 197.601322 216.913962 
L 197.918678 216.699844 
L 198.236033 216.308439 
L 198.553388 216.308439 
L 199.188099 215.449017 
L 199.505455 215.449017 
L 199.82281 215.309246 
L 200.140165 215.309246 
L 200.457521 215.052187 
L 201.092231 215.019084 
L 201.726942 214.933499 
L 202.044298 214.54821 
L 202.996364 214.504813 
L 203.94843 214.059767 
L 205.217851 213.758967 
L 205.852562 213.731143 
L 206.169917 213.453674 
L 206.487273 213.453674 
L 206.804628 213.224456 
L 207.121983 213.224456 
L 208.07405 212.671371 
L 208.391405 212.671371 
L 209.026116 212.27696 
L 209.343471 212.27696 
L 209.660826 211.879922 
L 210.295537 211.793814 
L 210.612893 211.628193 
L 210.930248 211.628193 
L 211.247603 211.358121 
L 214.421157 210.606552 
L 214.738512 210.180921 
L 216.007934 210.083164 
L 216.325289 209.787401 
L 216.642645 209.787401 
L 216.96 209.393862 
L 217.277355 209.393862 
L 217.594711 209.216614 
L 219.181488 209.033518 
L 219.498843 208.528953 
L 219.816198 207.709028 
L 220.133554 207.463432 
L 220.450909 207.463432 
L 220.768264 207.317691 
L 221.08562 207.317691 
L 221.402975 207.124991 
L 222.672397 206.9965 
L 222.989752 206.859774 
L 223.307107 206.859774 
L 223.624463 206.50508 
L 224.576529 206.446174 
L 225.528595 206.19879 
L 225.84595 206.19879 
L 226.480661 205.857927 
L 226.798017 205.857927 
L 227.115372 205.654613 
L 227.432727 205.654613 
L 227.750083 205.339696 
L 229.019504 205.25353 
L 229.33686 205.13134 
L 229.97157 205.11944 
L 230.288926 204.898004 
L 230.606281 204.898004 
L 230.923636 204.590522 
L 231.558347 204.519942 
L 231.875702 204.366274 
L 232.510413 204.317439 
L 232.827769 204.082519 
L 233.779835 203.971988 
L 234.414545 203.960529 
L 234.731901 203.502142 
L 235.683967 203.470042 
L 236.001322 203.144642 
L 236.636033 203.123092 
L 236.953388 202.779795 
L 237.270744 202.645342 
L 238.22281 202.58996 
L 238.540165 201.835943 
L 239.174876 201.721973 
L 239.809587 201.630379 
L 240.444298 201.566675 
L 240.761653 201.305351 
L 241.079008 201.305351 
L 241.396364 201.01321 
L 242.665785 200.800747 
L 243.300496 200.445762 
L 245.204628 200.253686 
L 245.521983 199.965155 
L 246.156694 199.852114 
L 246.47405 199.829629 
L 246.791405 199.227983 
L 247.10876 198.929902 
L 247.426116 198.929902 
L 247.743471 198.778089 
L 248.060826 198.778089 
L 248.378182 198.517819 
L 249.330248 198.259187 
L 249.647603 198.259187 
L 249.964959 198.053641 
L 251.23438 197.993442 
L 252.821157 197.248298 
L 253.138512 196.82791 
L 253.455868 196.82791 
L 254.090579 196.6283 
L 254.407934 196.6283 
L 254.725289 196.422836 
L 255.36 195.502314 
L 256.312066 195.433853 
L 256.629421 195.144599 
L 257.581488 195.108089 
L 258.533554 194.820336 
L 258.850909 194.820336 
L 259.48562 194.486118 
L 259.802975 194.362614 
L 260.120331 194.362614 
L 260.437686 193.950577 
L 260.755041 193.950577 
L 262.024463 193.462248 
L 262.976529 193.422262 
L 263.293884 193.019731 
L 263.928595 193.0177 
L 264.24595 192.775997 
L 264.880661 192.770211 
L 265.198017 192.595988 
L 266.467438 192.502493 
L 266.784793 192.343395 
L 267.102149 191.983765 
L 268.054215 191.87584 
L 268.37157 191.479589 
L 268.688926 191.479589 
L 269.323636 191.067245 
L 269.640992 190.881954 
L 270.593058 190.798695 
L 270.910413 190.751125 
L 271.227769 190.422383 
L 272.179835 190.326996 
L 272.49719 189.922457 
L 273.449256 189.904819 
L 273.766612 189.63422 
L 274.718678 189.405332 
L 275.353388 189.328545 
L 275.670744 188.285636 
L 276.62281 188.179764 
L 277.574876 187.934536 
L 277.892231 187.934536 
L 278.844298 187.271806 
L 279.161653 187.271806 
L 279.479008 187.09041 
L 279.796364 187.09041 
L 280.113719 186.364637 
L 280.74843 186.310151 
L 281.065785 186.177747 
L 281.700496 186.073034 
L 282.335207 186.052897 
L 282.969917 185.475672 
L 283.287273 185.475672 
L 283.604628 185.318877 
L 284.239339 185.258484 
L 284.556694 184.09757 
L 285.191405 183.995434 
L 286.143471 183.893936 
L 286.460826 183.614513 
L 286.778182 183.614513 
L 287.095537 183.490397 
L 287.412893 183.018252 
L 288.682314 182.949615 
L 288.999669 182.771987 
L 289.317025 182.771987 
L 289.951736 182.253824 
L 291.221157 182.20036 
L 291.538512 181.970269 
L 291.855868 181.970269 
L 292.173223 181.76753 
L 292.490579 181.76753 
L 292.807934 181.608344 
L 293.125289 181.608344 
L 293.442645 181.424742 
L 293.76 181.424742 
L 294.077355 181.133764 
L 295.029421 180.979482 
L 295.346777 180.417229 
L 295.981488 180.391642 
L 296.298843 179.894736 
L 297.250909 179.604757 
L 297.568264 178.910689 
L 297.88562 178.910689 
L 298.202975 178.665256 
L 298.520331 178.665256 
L 299.472397 178.376902 
L 300.107107 178.352054 
L 300.424463 177.984146 
L 301.059174 177.900856 
L 302.01124 177.756276 
L 302.328595 177.093181 
L 302.963306 176.764748 
L 303.280661 176.764748 
L 303.598017 176.456882 
L 303.915372 175.878036 
L 304.232727 175.878036 
L 304.550083 175.565923 
L 304.867438 175.565923 
L 305.184793 175.079552 
L 305.502149 175.079552 
L 305.819504 174.954657 
L 306.454215 174.849542 
L 307.088926 174.738688 
L 308.040992 174.678351 
L 308.358347 174.441066 
L 308.675702 174.441066 
L 308.993058 174.304917 
L 309.627769 174.286462 
L 309.945124 174.124241 
L 310.262479 173.090856 
L 310.579835 172.902595 
L 311.531901 172.816582 
L 311.849256 172.300166 
L 312.166612 172.300166 
L 312.801322 171.094415 
L 314.070744 171.035235 
L 314.388099 170.568076 
L 315.02281 170.55876 
L 315.340165 170.358625 
L 316.609587 170.246229 
L 316.926942 169.939172 
L 317.561653 169.82411 
L 317.879008 169.470392 
L 318.831074 169.384416 
L 319.465785 168.191506 
L 319.78314 168.191506 
L 320.417851 167.408317 
L 320.735207 167.247677 
L 321.687273 167.23316 
L 322.004628 167.000482 
L 322.321983 166.236898 
L 322.639339 166.236898 
L 322.956694 165.853767 
L 323.591405 165.788743 
L 324.226116 164.995124 
L 324.543471 164.995124 
L 324.860826 164.817415 
L 325.178182 164.817415 
L 325.495537 164.570705 
L 325.812893 164.570705 
L 326.130248 164.354018 
L 326.447603 163.874938 
L 327.399669 163.787342 
L 328.351736 163.664535 
L 328.669091 163.131183 
L 328.986446 162.889055 
L 329.621157 162.867978 
L 329.938512 162.592101 
L 330.255868 162.592101 
L 330.573223 162.367298 
L 330.890579 162.367298 
L 331.207934 162.072121 
L 332.16 161.816843 
L 332.477355 161.170442 
L 333.112066 161.07887 
L 333.429421 160.606614 
L 333.746777 160.606614 
L 334.064132 159.491179 
L 334.381488 159.225038 
L 336.28562 159.065513 
L 336.602975 158.887196 
L 336.920331 158.572674 
L 337.237686 158.572674 
L 337.555041 158.430431 
L 337.872397 158.042049 
L 338.507107 157.97407 
L 339.141818 157.961533 
L 339.459174 157.56097 
L 339.776529 157.56097 
L 340.093884 157.397231 
L 340.41124 156.998227 
L 340.728595 156.998227 
L 341.04595 156.797136 
L 341.363306 156.797136 
L 341.680661 155.187164 
L 341.998017 154.917757 
L 342.315372 154.917757 
L 342.632727 154.3519 
L 342.950083 154.3519 
L 343.267438 154.111241 
L 345.17157 153.632725 
L 345.488926 153.112064 
L 345.806281 153.112064 
L 346.123636 152.602732 
L 346.440992 152.425315 
L 346.758347 152.425315 
L 347.393058 151.687553 
L 348.345124 151.606779 
L 348.662479 151.468611 
L 348.979835 151.468611 
L 349.29719 150.468137 
L 349.614545 150.468137 
L 352.470744 149.41885 
L 352.788099 148.874102 
L 353.42281 148.861438 
L 353.740165 148.703221 
L 354.057521 148.703221 
L 354.374876 148.233697 
L 354.692231 148.233697 
L 355.009587 147.262351 
L 355.644298 147.161555 
L 355.961653 147.046122 
L 356.279008 146.233075 
L 356.596364 146.233075 
L 356.913719 145.131732 
L 357.54843 145.052383 
L 357.865785 144.677094 
L 358.18314 144.677094 
L 358.500496 144.169483 
L 358.817851 144.169483 
L 359.769917 143.44556 
L 360.087273 143.295227 
L 360.404628 143.295227 
L 360.721983 142.983531 
L 361.039339 142.983531 
L 361.356694 142.794747 
L 362.626116 142.702823 
L 363.260826 141.501923 
L 363.578182 141.501923 
L 364.212893 140.83653 
L 364.530248 140.83653 
L 365.164959 139.450969 
L 365.482314 139.043237 
L 365.799669 139.043237 
L 366.117025 138.713169 
L 366.43438 138.581799 
L 366.751736 138.581799 
L 367.069091 138.42237 
L 367.386446 138.42237 
L 367.703802 137.878256 
L 368.973223 137.680487 
L 369.290579 137.095207 
L 369.607934 137.095207 
L 369.925289 136.4527 
L 370.242645 134.949631 
L 370.56 134.122239 
L 370.877355 134.122239 
L 371.194711 133.096879 
L 371.829421 133.031932 
L 372.146777 132.71713 
L 372.781488 132.64908 
L 373.098843 132.481532 
L 373.416198 131.754026 
L 373.733554 131.716577 
L 374.050909 131.497452 
L 374.368264 131.497452 
L 374.68562 130.725032 
L 375.002975 130.725032 
L 375.637686 129.665212 
L 375.955041 129.665212 
L 376.272397 128.887583 
L 376.589752 128.887583 
L 376.907107 128.189722 
L 377.224463 125.980076 
L 377.541818 125.980076 
L 379.128595 125.412195 
L 379.44595 124.830045 
L 379.763306 122.864413 
L 380.080661 122.221812 
L 380.398017 122.221812 
L 380.715372 121.737895 
L 381.032727 120.521722 
L 381.667438 120.412388 
L 382.302149 120.307146 
L 382.93686 120.25857 
L 383.254215 119.500528 
L 383.888926 118.848186 
L 384.206281 118.848186 
L 384.523636 117.499257 
L 384.840992 117.499257 
L 385.158347 115.879304 
L 385.475702 115.879304 
L 385.793058 115.077855 
L 386.110413 113.39534 
L 386.427769 112.558568 
L 386.745124 112.558568 
L 387.062479 112.357732 
L 387.379835 110.444534 
L 387.69719 109.538197 
L 388.014545 109.538197 
L 388.331901 109.359463 
L 388.649256 108.419287 
L 388.966612 107.973183 
L 389.918678 107.906655 
L 390.553388 102.837383 
L 390.870744 102.837383 
L 391.188099 102.622102 
L 391.82281 99.982778 
L 392.140165 99.982778 
L 392.457521 98.196717 
L 392.774876 97.807933 
L 393.092231 97.807933 
L 393.409587 96.383214 
L 393.726942 96.383214 
L 394.044298 95.018683 
L 394.361653 91.589324 
L 394.679008 90.606153 
L 394.996364 90.606153 
L 395.313719 90.013958 
L 395.631074 89.768327 
L 395.94843 89.768327 
L 396.265785 82.166411 
L 396.58314 78.842749 
L 396.900496 77.580462 
L 397.217851 77.580462 
L 397.535207 64.565212 
L 397.852562 64.276833 
L 398.169917 64.276833 
L 398.487273 53.568 
L 398.487273 53.568 
" clip-path="url(#p4c855f0377)" style="fill: none; stroke: #ff7f0e; stroke-width: 1.5; stroke-linecap: square"/>
   </g>
   <g id="patch_3">
    <path d="M 57.6 307.584 
L 57.6 41.472 
" style="fill: none; stroke: #000000; stroke-width: 0.8; stroke-linejoin: miter; stroke-linecap: square"/>
   </g>
   <g id="patch_4">
    <path d="M 414.72 307.584 
L 414.72 41.472 
" style="fill: none; stroke: #000000; stroke-width: 0.8; stroke-linejoin: miter; stroke-linecap: square"/>
   </g>
   <g id="patch_5">
    <path d="M 57.6 307.584 
L 414.72 307.584 
" style="fill: none; stroke: #000000; stroke-width: 0.8; stroke-linejoin: miter; stroke-linecap: square"/>
   </g>
   <g id="patch_6">
    <path d="M 57.6 41.472 
L 414.72 41.472 
" style="fill: none; stroke: #000000; stroke-width: 0.8; stroke-linejoin: miter; stroke-linecap: square"/>
   </g>
   <g id="legend_1">
    <g id="patch_7">
     <path d="M 64.6 78.82825 
L 129.342187 78.82825 
Q 131.342187 78.82825 131.342187 76.82825 
L 131.342187 48.472 
Q 131.342187 46.472 129.342187 46.472 
L 64.6 46.472 
Q 62.6 46.472 62.6 48.472 
L 62.6 76.82825 
Q 62.6 78.82825 64.6 78.82825 
z
" style="fill: #ffffff; opacity: 0.8; stroke: #cccccc; stroke-linejoin: miter"/>
    </g>
    <g id="line2d_15">
     <path d="M 66.6 54.570437 
L 76.6 54.570437 
L 86.6 54.570437 
" style="fill: none; stroke: #1f77b4; stroke-width: 1.5; stroke-linecap: square"/>
    </g>
    <g id="text_15">
     <!-- qc -->
     <g transform="translate(94.6 58.070437) scale(0.1 -0.1)">
      <defs>
       <path id="DejaVuSans-71" d="M 947 1747 
Q 947 1113 1208 752 
Q 1469 391 1925 391 
Q 2381 391 2643 752 
Q 2906 1113 2906 1747 
Q 2906 2381 2643 2742 
Q 2381 3103 1925 3103 
Q 1469 3103 1208 2742 
Q 947 2381 947 1747 
z
M 2906 525 
Q 2725 213 2448 61 
Q 2172 -91 1784 -91 
Q 1150 -91 751 415 
Q 353 922 353 1747 
Q 353 2572 751 3078 
Q 1150 3584 1784 3584 
Q 2172 3584 2448 3432 
Q 2725 3281 2906 2969 
L 2906 3500 
L 3481 3500 
L 3481 -1331 
L 2906 -1331 
L 2906 525 
z
" transform="scale(0.015625)"/>
       <path id="DejaVuSans-63" d="M 3122 3366 
L 3122 2828 
Q 2878 2963 2633 3030 
Q 2388 3097 2138 3097 
Q 1578 3097 1268 2742 
Q 959 2388 959 1747 
Q 959 1106 1268 751 
Q 1578 397 2138 397 
Q 2388 397 2633 464 
Q 2878 531 3122 666 
L 3122 134 
Q 2881 22 2623 -34 
Q 2366 -91 2075 -91 
Q 1284 -91 818 406 
Q 353 903 353 1747 
Q 353 2603 823 3093 
Q 1294 3584 2113 3584 
Q 2378 3584 2631 3529 
Q 2884 3475 3122 3366 
z
" transform="scale(0.015625)"/>
      </defs>
      <use xlink:href="#DejaVuSans-71"/>
      <use xlink:href="#DejaVuSans-63" x="63.476562"/>
     </g>
    </g>
    <g id="line2d_16">
     <path d="M 66.6 69.248562 
L 76.6 69.248562 
L 86.6 69.248562 
" style="fill: none; stroke: #ff7f0e; stroke-width: 1.5; stroke-linecap: square"/>
    </g>
    <g id="text_16">
     <!-- Trotter -->
     <g transform="translate(94.6 72.748562) scale(0.1 -0.1)">
      <defs>
       <path id="DejaVuSans-54" d="M -19 4666 
L 3928 4666 
L 3928 4134 
L 2272 4134 
L 2272 0 
L 1638 0 
L 1638 4134 
L -19 4134 
L -19 4666 
z
" transform="scale(0.015625)"/>
       <path id="DejaVuSans-72" d="M 2631 2963 
Q 2534 3019 2420 3045 
Q 2306 3072 2169 3072 
Q 1681 3072 1420 2755 
Q 1159 2438 1159 1844 
L 1159 0 
L 581 0 
L 581 3500 
L 1159 3500 
L 1159 2956 
Q 1341 3275 1631 3429 
Q 1922 3584 2338 3584 
Q 2397 3584 2469 3576 
Q 2541 3569 2628 3553 
L 2631 2963 
z
" transform="scale(0.015625)"/>
       <path id="DejaVuSans-6f" d="M 1959 3097 
Q 1497 3097 1228 2736 
Q 959 2375 959 1747 
Q 959 1119 1226 758 
Q 1494 397 1959 397 
Q 2419 397 2687 759 
Q 2956 1122 2956 1747 
Q 2956 2369 2687 2733 
Q 2419 3097 1959 3097 
z
M 1959 3584 
Q 2709 3584 3137 3096 
Q 3566 2609 3566 1747 
Q 3566 888 3137 398 
Q 2709 -91 1959 -91 
Q 1206 -91 779 398 
Q 353 888 353 1747 
Q 353 2609 779 3096 
Q 1206 3584 1959 3584 
z
" transform="scale(0.015625)"/>
       <path id="DejaVuSans-65" d="M 3597 1894 
L 3597 1613 
L 953 1613 
Q 991 1019 1311 708 
Q 1631 397 2203 397 
Q 2534 397 2845 478 
Q 3156 559 3463 722 
L 3463 178 
Q 3153 47 2828 -22 
Q 2503 -91 2169 -91 
Q 1331 -91 842 396 
Q 353 884 353 1716 
Q 353 2575 817 3079 
Q 1281 3584 2069 3584 
Q 2775 3584 3186 3129 
Q 3597 2675 3597 1894 
z
M 3022 2063 
Q 3016 2534 2758 2815 
Q 2500 3097 2075 3097 
Q 1594 3097 1305 2825 
Q 1016 2553 972 2059 
L 3022 2063 
z
" transform="scale(0.015625)"/>
      </defs>
      <use xlink:href="#DejaVuSans-54"/>
      <use xlink:href="#DejaVuSans-72" x="46.333984"/>
      <use xlink:href="#DejaVuSans-6f" x="85.197266"/>
      <use xlink:href="#DejaVuSans-74" x="146.378906"/>
      <use xlink:href="#DejaVuSans-74" x="185.587891"/>
      <use xlink:href="#DejaVuSans-65" x="224.796875"/>
      <use xlink:href="#DejaVuSans-72" x="286.320312"/>
     </g>
    </g>
   </g>
  </g>
 </g>
 <defs>
  <clipPath id="p4c855f0377">
   <rect x="57.6" y="41.472" width="357.12" height="266.112"/>
  </clipPath>
 </defs>
</svg>
