<?xml version="1.0" encoding="utf-8" standalone="no"?>
<!DOCTYPE svg PUBLIC "-//W3C//DTD SVG 1.1//EN"
  "http://www.w3.org/Graphics/SVG/1.1/DTD/svg11.dtd">
<svg xmlns:xlink="http://www.w3.org/1999/xlink" width="460.8pt" height="345.6pt" viewBox="0 0 460.8 345.6" xmlns="http://www.w3.org/2000/svg" version="1.1">
 <metadata>
  <rdf:RDF xmlns:dc="http://purl.org/dc/elements/1.1/" xmlns:cc="http://creativecommons.org/ns#" xmlns:rdf="http://www.w3.org/1999/02/22-rdf-syntax-ns#">
   <cc:Work>
    <dc:type rdf:resource="http://purl.org/dc/dcmitype/StillImage"/>
    <dc:date>2024-08-25T11:51:40.670391</dc:date>
    <dc:format>image/svg+xml</dc:format>
    <dc:creator>
     <cc:Agent>
      <dc:title>Matplotlib v3.7.1, https://matplotlib.org/</dc:title>
     </cc:Agent>
    </dc:creator>
   </cc:Work>
  </rdf:RDF>
 </metadata>
 <defs>
  <style type="text/css">*{stroke-linejoin: round; stroke-linecap: butt}</style>
 </defs>
 <g id="figure_1">
  <g id="patch_1">
   <path d="M 0 345.6 
L 460.8 345.6 
L 460.8 0 
L 0 0 
z
" style="fill: #ffffff"/>
  </g>
  <g id="axes_1">
   <g id="patch_2">
    <path d="M 57.6 307.584 
L 414.72 307.584 
L 414.72 41.472 
L 57.6 41.472 
z
" style="fill: #ffffff"/>
   </g>
   <g id="matplotlib.axis_1">
    <g id="xtick_1">
     <g id="line2d_1">
      <defs>
       <path id="m732fd8d89e" d="M 0 0 
L 0 3.5 
" style="stroke: #000000; stroke-width: 0.8"/>
      </defs>
      <g>
       <use xlink:href="#m732fd8d89e" x="73.832727" y="307.584" style="stroke: #000000; stroke-width: 0.8"/>
      </g>
     </g>
     <g id="text_1">
      <!-- 0 -->
      <g transform="translate(70.651477 322.182437) scale(0.1 -0.1)">
       <defs>
        <path id="DejaVuSans-30" d="M 2034 4250 
Q 1547 4250 1301 3770 
Q 1056 3291 1056 2328 
Q 1056 1369 1301 889 
Q 1547 409 2034 409 
Q 2525 409 2770 889 
Q 3016 1369 3016 2328 
Q 3016 3291 2770 3770 
Q 2525 4250 2034 4250 
z
M 2034 4750 
Q 2819 4750 3233 4129 
Q 3647 3509 3647 2328 
Q 3647 1150 3233 529 
Q 2819 -91 2034 -91 
Q 1250 -91 836 529 
Q 422 1150 422 2328 
Q 422 3509 836 4129 
Q 1250 4750 2034 4750 
z
" transform="scale(0.015625)"/>
       </defs>
       <use xlink:href="#DejaVuSans-30"/>
      </g>
     </g>
    </g>
    <g id="xtick_2">
     <g id="line2d_2">
      <g>
       <use xlink:href="#m732fd8d89e" x="137.303802" y="307.584" style="stroke: #000000; stroke-width: 0.8"/>
      </g>
     </g>
     <g id="text_2">
      <!-- 200 -->
      <g transform="translate(127.760052 322.182437) scale(0.1 -0.1)">
       <defs>
        <path id="DejaVuSans-32" d="M 1228 531 
L 3431 531 
L 3431 0 
L 469 0 
L 469 531 
Q 828 903 1448 1529 
Q 2069 2156 2228 2338 
Q 2531 2678 2651 2914 
Q 2772 3150 2772 3378 
Q 2772 3750 2511 3984 
Q 2250 4219 1831 4219 
Q 1534 4219 1204 4116 
Q 875 4013 500 3803 
L 500 4441 
Q 881 4594 1212 4672 
Q 1544 4750 1819 4750 
Q 2544 4750 2975 4387 
Q 3406 4025 3406 3419 
Q 3406 3131 3298 2873 
Q 3191 2616 2906 2266 
Q 2828 2175 2409 1742 
Q 1991 1309 1228 531 
z
" transform="scale(0.015625)"/>
       </defs>
       <use xlink:href="#DejaVuSans-32"/>
       <use xlink:href="#DejaVuSans-30" x="63.623047"/>
       <use xlink:href="#DejaVuSans-30" x="127.246094"/>
      </g>
     </g>
    </g>
    <g id="xtick_3">
     <g id="line2d_3">
      <g>
       <use xlink:href="#m732fd8d89e" x="200.774876" y="307.584" style="stroke: #000000; stroke-width: 0.8"/>
      </g>
     </g>
     <g id="text_3">
      <!-- 400 -->
      <g transform="translate(191.231126 322.182437) scale(0.1 -0.1)">
       <defs>
        <path id="DejaVuSans-34" d="M 2419 4116 
L 825 1625 
L 2419 1625 
L 2419 4116 
z
M 2253 4666 
L 3047 4666 
L 3047 1625 
L 3713 1625 
L 3713 1100 
L 3047 1100 
L 3047 0 
L 2419 0 
L 2419 1100 
L 313 1100 
L 313 1709 
L 2253 4666 
z
" transform="scale(0.015625)"/>
       </defs>
       <use xlink:href="#DejaVuSans-34"/>
       <use xlink:href="#DejaVuSans-30" x="63.623047"/>
       <use xlink:href="#DejaVuSans-30" x="127.246094"/>
      </g>
     </g>
    </g>
    <g id="xtick_4">
     <g id="line2d_4">
      <g>
       <use xlink:href="#m732fd8d89e" x="264.24595" y="307.584" style="stroke: #000000; stroke-width: 0.8"/>
      </g>
     </g>
     <g id="text_4">
      <!-- 600 -->
      <g transform="translate(254.7022 322.182437) scale(0.1 -0.1)">
       <defs>
        <path id="DejaVuSans-36" d="M 2113 2584 
Q 1688 2584 1439 2293 
Q 1191 2003 1191 1497 
Q 1191 994 1439 701 
Q 1688 409 2113 409 
Q 2538 409 2786 701 
Q 3034 994 3034 1497 
Q 3034 2003 2786 2293 
Q 2538 2584 2113 2584 
z
M 3366 4563 
L 3366 3988 
Q 3128 4100 2886 4159 
Q 2644 4219 2406 4219 
Q 1781 4219 1451 3797 
Q 1122 3375 1075 2522 
Q 1259 2794 1537 2939 
Q 1816 3084 2150 3084 
Q 2853 3084 3261 2657 
Q 3669 2231 3669 1497 
Q 3669 778 3244 343 
Q 2819 -91 2113 -91 
Q 1303 -91 875 529 
Q 447 1150 447 2328 
Q 447 3434 972 4092 
Q 1497 4750 2381 4750 
Q 2619 4750 2861 4703 
Q 3103 4656 3366 4563 
z
" transform="scale(0.015625)"/>
       </defs>
       <use xlink:href="#DejaVuSans-36"/>
       <use xlink:href="#DejaVuSans-30" x="63.623047"/>
       <use xlink:href="#DejaVuSans-30" x="127.246094"/>
      </g>
     </g>
    </g>
    <g id="xtick_5">
     <g id="line2d_5">
      <g>
       <use xlink:href="#m732fd8d89e" x="327.717025" y="307.584" style="stroke: #000000; stroke-width: 0.8"/>
      </g>
     </g>
     <g id="text_5">
      <!-- 800 -->
      <g transform="translate(318.173275 322.182437) scale(0.1 -0.1)">
       <defs>
        <path id="DejaVuSans-38" d="M 2034 2216 
Q 1584 2216 1326 1975 
Q 1069 1734 1069 1313 
Q 1069 891 1326 650 
Q 1584 409 2034 409 
Q 2484 409 2743 651 
Q 3003 894 3003 1313 
Q 3003 1734 2745 1975 
Q 2488 2216 2034 2216 
z
M 1403 2484 
Q 997 2584 770 2862 
Q 544 3141 544 3541 
Q 544 4100 942 4425 
Q 1341 4750 2034 4750 
Q 2731 4750 3128 4425 
Q 3525 4100 3525 3541 
Q 3525 3141 3298 2862 
Q 3072 2584 2669 2484 
Q 3125 2378 3379 2068 
Q 3634 1759 3634 1313 
Q 3634 634 3220 271 
Q 2806 -91 2034 -91 
Q 1263 -91 848 271 
Q 434 634 434 1313 
Q 434 1759 690 2068 
Q 947 2378 1403 2484 
z
M 1172 3481 
Q 1172 3119 1398 2916 
Q 1625 2713 2034 2713 
Q 2441 2713 2670 2916 
Q 2900 3119 2900 3481 
Q 2900 3844 2670 4047 
Q 2441 4250 2034 4250 
Q 1625 4250 1398 4047 
Q 1172 3844 1172 3481 
z
" transform="scale(0.015625)"/>
       </defs>
       <use xlink:href="#DejaVuSans-38"/>
       <use xlink:href="#DejaVuSans-30" x="63.623047"/>
       <use xlink:href="#DejaVuSans-30" x="127.246094"/>
      </g>
     </g>
    </g>
    <g id="xtick_6">
     <g id="line2d_6">
      <g>
       <use xlink:href="#m732fd8d89e" x="391.188099" y="307.584" style="stroke: #000000; stroke-width: 0.8"/>
      </g>
     </g>
     <g id="text_6">
      <!-- 1000 -->
      <g transform="translate(378.463099 322.182437) scale(0.1 -0.1)">
       <defs>
        <path id="DejaVuSans-31" d="M 794 531 
L 1825 531 
L 1825 4091 
L 703 3866 
L 703 4441 
L 1819 4666 
L 2450 4666 
L 2450 531 
L 3481 531 
L 3481 0 
L 794 0 
L 794 531 
z
" transform="scale(0.015625)"/>
       </defs>
       <use xlink:href="#DejaVuSans-31"/>
       <use xlink:href="#DejaVuSans-30" x="63.623047"/>
       <use xlink:href="#DejaVuSans-30" x="127.246094"/>
       <use xlink:href="#DejaVuSans-30" x="190.869141"/>
      </g>
     </g>
    </g>
    <g id="text_7">
     <!-- n -->
     <g transform="translate(232.99125 335.860562) scale(0.1 -0.1)">
      <defs>
       <path id="DejaVuSans-6e" d="M 3513 2113 
L 3513 0 
L 2938 0 
L 2938 2094 
Q 2938 2591 2744 2837 
Q 2550 3084 2163 3084 
Q 1697 3084 1428 2787 
Q 1159 2491 1159 1978 
L 1159 0 
L 581 0 
L 581 3500 
L 1159 3500 
L 1159 2956 
Q 1366 3272 1645 3428 
Q 1925 3584 2291 3584 
Q 2894 3584 3203 3211 
Q 3513 2838 3513 2113 
z
" transform="scale(0.015625)"/>
      </defs>
      <use xlink:href="#DejaVuSans-6e"/>
     </g>
    </g>
   </g>
   <g id="matplotlib.axis_2">
    <g id="ytick_1">
     <g id="line2d_7">
      <defs>
       <path id="mcd726e542d" d="M 0 0 
L -3.5 0 
" style="stroke: #000000; stroke-width: 0.8"/>
      </defs>
      <g>
       <use xlink:href="#mcd726e542d" x="57.6" y="305.631806" style="stroke: #000000; stroke-width: 0.8"/>
      </g>
     </g>
     <g id="text_8">
      <!-- −10.0 -->
      <g transform="translate(19.954687 309.431024) scale(0.1 -0.1)">
       <defs>
        <path id="DejaVuSans-2212" d="M 678 2272 
L 4684 2272 
L 4684 1741 
L 678 1741 
L 678 2272 
z
" transform="scale(0.015625)"/>
        <path id="DejaVuSans-2e" d="M 684 794 
L 1344 794 
L 1344 0 
L 684 0 
L 684 794 
z
" transform="scale(0.015625)"/>
       </defs>
       <use xlink:href="#DejaVuSans-2212"/>
       <use xlink:href="#DejaVuSans-31" x="83.789062"/>
       <use xlink:href="#DejaVuSans-30" x="147.412109"/>
       <use xlink:href="#DejaVuSans-2e" x="211.035156"/>
       <use xlink:href="#DejaVuSans-30" x="242.822266"/>
      </g>
     </g>
    </g>
    <g id="ytick_2">
     <g id="line2d_8">
      <g>
       <use xlink:href="#mcd726e542d" x="57.6" y="272.862077" style="stroke: #000000; stroke-width: 0.8"/>
      </g>
     </g>
     <g id="text_9">
      <!-- −7.5 -->
      <g transform="translate(26.317187 276.661296) scale(0.1 -0.1)">
       <defs>
        <path id="DejaVuSans-37" d="M 525 4666 
L 3525 4666 
L 3525 4397 
L 1831 0 
L 1172 0 
L 2766 4134 
L 525 4134 
L 525 4666 
z
" transform="scale(0.015625)"/>
        <path id="DejaVuSans-35" d="M 691 4666 
L 3169 4666 
L 3169 4134 
L 1269 4134 
L 1269 2991 
Q 1406 3038 1543 3061 
Q 1681 3084 1819 3084 
Q 2600 3084 3056 2656 
Q 3513 2228 3513 1497 
Q 3513 744 3044 326 
Q 2575 -91 1722 -91 
Q 1428 -91 1123 -41 
Q 819 9 494 109 
L 494 744 
Q 775 591 1075 516 
Q 1375 441 1709 441 
Q 2250 441 2565 725 
Q 2881 1009 2881 1497 
Q 2881 1984 2565 2268 
Q 2250 2553 1709 2553 
Q 1456 2553 1204 2497 
Q 953 2441 691 2322 
L 691 4666 
z
" transform="scale(0.015625)"/>
       </defs>
       <use xlink:href="#DejaVuSans-2212"/>
       <use xlink:href="#DejaVuSans-37" x="83.789062"/>
       <use xlink:href="#DejaVuSans-2e" x="147.412109"/>
       <use xlink:href="#DejaVuSans-35" x="179.199219"/>
      </g>
     </g>
    </g>
    <g id="ytick_3">
     <g id="line2d_9">
      <g>
       <use xlink:href="#mcd726e542d" x="57.6" y="240.092349" style="stroke: #000000; stroke-width: 0.8"/>
      </g>
     </g>
     <g id="text_10">
      <!-- −5.0 -->
      <g transform="translate(26.317187 243.891567) scale(0.1 -0.1)">
       <use xlink:href="#DejaVuSans-2212"/>
       <use xlink:href="#DejaVuSans-35" x="83.789062"/>
       <use xlink:href="#DejaVuSans-2e" x="147.412109"/>
       <use xlink:href="#DejaVuSans-30" x="179.199219"/>
      </g>
     </g>
    </g>
    <g id="ytick_4">
     <g id="line2d_10">
      <g>
       <use xlink:href="#mcd726e542d" x="57.6" y="207.32262" style="stroke: #000000; stroke-width: 0.8"/>
      </g>
     </g>
     <g id="text_11">
      <!-- −2.5 -->
      <g transform="translate(26.317187 211.121839) scale(0.1 -0.1)">
       <use xlink:href="#DejaVuSans-2212"/>
       <use xlink:href="#DejaVuSans-32" x="83.789062"/>
       <use xlink:href="#DejaVuSans-2e" x="147.412109"/>
       <use xlink:href="#DejaVuSans-35" x="179.199219"/>
      </g>
     </g>
    </g>
    <g id="ytick_5">
     <g id="line2d_11">
      <g>
       <use xlink:href="#mcd726e542d" x="57.6" y="174.552892" style="stroke: #000000; stroke-width: 0.8"/>
      </g>
     </g>
     <g id="text_12">
      <!-- 0.0 -->
      <g transform="translate(34.696875 178.35211) scale(0.1 -0.1)">
       <use xlink:href="#DejaVuSans-30"/>
       <use xlink:href="#DejaVuSans-2e" x="63.623047"/>
       <use xlink:href="#DejaVuSans-30" x="95.410156"/>
      </g>
     </g>
    </g>
    <g id="ytick_6">
     <g id="line2d_12">
      <g>
       <use xlink:href="#mcd726e542d" x="57.6" y="141.783163" style="stroke: #000000; stroke-width: 0.8"/>
      </g>
     </g>
     <g id="text_13">
      <!-- 2.5 -->
      <g transform="translate(34.696875 145.582382) scale(0.1 -0.1)">
       <use xlink:href="#DejaVuSans-32"/>
       <use xlink:href="#DejaVuSans-2e" x="63.623047"/>
       <use xlink:href="#DejaVuSans-35" x="95.410156"/>
      </g>
     </g>
    </g>
    <g id="ytick_7">
     <g id="line2d_13">
      <g>
       <use xlink:href="#mcd726e542d" x="57.6" y="109.013435" style="stroke: #000000; stroke-width: 0.8"/>
      </g>
     </g>
     <g id="text_14">
      <!-- 5.0 -->
      <g transform="translate(34.696875 112.812654) scale(0.1 -0.1)">
       <use xlink:href="#DejaVuSans-35"/>
       <use xlink:href="#DejaVuSans-2e" x="63.623047"/>
       <use xlink:href="#DejaVuSans-30" x="95.410156"/>
      </g>
     </g>
    </g>
    <g id="ytick_8">
     <g id="line2d_14">
      <g>
       <use xlink:href="#mcd726e542d" x="57.6" y="76.243706" style="stroke: #000000; stroke-width: 0.8"/>
      </g>
     </g>
     <g id="text_15">
      <!-- 7.5 -->
      <g transform="translate(34.696875 80.042925) scale(0.1 -0.1)">
       <use xlink:href="#DejaVuSans-37"/>
       <use xlink:href="#DejaVuSans-2e" x="63.623047"/>
       <use xlink:href="#DejaVuSans-35" x="95.410156"/>
      </g>
     </g>
    </g>
    <g id="ytick_9">
     <g id="line2d_15">
      <g>
       <use xlink:href="#mcd726e542d" x="57.6" y="43.473978" style="stroke: #000000; stroke-width: 0.8"/>
      </g>
     </g>
     <g id="text_16">
      <!-- 10.0 -->
      <g transform="translate(28.334375 47.273197) scale(0.1 -0.1)">
       <use xlink:href="#DejaVuSans-31"/>
       <use xlink:href="#DejaVuSans-30" x="63.623047"/>
       <use xlink:href="#DejaVuSans-2e" x="127.246094"/>
       <use xlink:href="#DejaVuSans-30" x="159.033203"/>
      </g>
     </g>
    </g>
    <g id="text_17">
     <!-- E*t -->
     <g transform="translate(13.875 182.147531) rotate(-90) scale(0.1 -0.1)">
      <defs>
       <path id="DejaVuSans-45" d="M 628 4666 
L 3578 4666 
L 3578 4134 
L 1259 4134 
L 1259 2753 
L 3481 2753 
L 3481 2222 
L 1259 2222 
L 1259 531 
L 3634 531 
L 3634 0 
L 628 0 
L 628 4666 
z
" transform="scale(0.015625)"/>
       <path id="DejaVuSans-2a" d="M 3009 3897 
L 1888 3291 
L 3009 2681 
L 2828 2375 
L 1778 3009 
L 1778 1831 
L 1422 1831 
L 1422 3009 
L 372 2375 
L 191 2681 
L 1313 3291 
L 191 3897 
L 372 4206 
L 1422 3572 
L 1422 4750 
L 1778 4750 
L 1778 3572 
L 2828 4206 
L 3009 3897 
z
" transform="scale(0.015625)"/>
       <path id="DejaVuSans-74" d="M 1172 4494 
L 1172 3500 
L 2356 3500 
L 2356 3053 
L 1172 3053 
L 1172 1153 
Q 1172 725 1289 603 
Q 1406 481 1766 481 
L 2356 481 
L 2356 0 
L 1766 0 
Q 1100 0 847 248 
Q 594 497 594 1153 
L 594 3053 
L 172 3053 
L 172 3500 
L 594 3500 
L 594 4494 
L 1172 4494 
z
" transform="scale(0.015625)"/>
      </defs>
      <use xlink:href="#DejaVuSans-45"/>
      <use xlink:href="#DejaVuSans-2a" x="63.183594"/>
      <use xlink:href="#DejaVuSans-74" x="113.183594"/>
     </g>
    </g>
   </g>
   <g id="line2d_16">
    <path d="M 73.832727 295.488 
L 74.150083 295.41586 
L 74.784793 295.110752 
L 75.102149 294.43995 
L 75.419504 294.337665 
L 75.73686 294.103208 
L 76.054215 293.633749 
L 76.688926 293.381712 
L 77.006281 293.083579 
L 77.323636 292.558314 
L 77.958347 292.281525 
L 78.275702 291.883491 
L 78.910413 291.751901 
L 79.227769 291.33781 
L 79.545124 291.263988 
L 80.814545 289.941777 
L 81.449256 289.669025 
L 81.766612 289.64971 
L 82.083967 288.848399 
L 83.036033 288.684426 
L 83.353388 288.15628 
L 84.305455 288.038742 
L 84.940165 287.120734 
L 85.257521 286.886548 
L 85.574876 286.855924 
L 85.892231 286.553347 
L 86.209587 286.480275 
L 86.526942 286.254101 
L 86.844298 285.599864 
L 87.161653 285.444788 
L 87.479008 284.137736 
L 87.796364 284.102147 
L 88.113719 283.927403 
L 88.431074 283.388449 
L 88.74843 283.342527 
L 89.065785 282.887779 
L 89.38314 282.7374 
L 89.700496 282.17065 
L 90.335207 282.014344 
L 90.652562 281.538647 
L 90.969917 281.534566 
L 92.556694 280.375654 
L 92.87405 279.798348 
L 93.191405 279.695005 
L 93.826116 279.079969 
L 94.460826 277.807923 
L 94.778182 277.12578 
L 95.730248 276.719097 
L 96.047603 276.323958 
L 96.682314 276.074556 
L 96.999669 275.770321 
L 97.317025 275.682575 
L 97.63438 275.473951 
L 97.951736 274.919973 
L 100.173223 273.997943 
L 100.490579 273.988484 
L 100.807934 273.867607 
L 101.442645 273.301615 
L 101.76 273.288191 
L 102.077355 272.661341 
L 102.712066 272.246908 
L 103.029421 272.038016 
L 103.346777 272.000049 
L 103.664132 271.60767 
L 103.981488 271.587153 
L 104.298843 270.903311 
L 104.616198 270.525023 
L 104.933554 269.950102 
L 105.568264 269.689964 
L 105.88562 269.072972 
L 106.202975 268.86276 
L 106.520331 268.846043 
L 106.837686 268.678777 
L 107.472397 267.525576 
L 107.789752 267.45769 
L 108.424463 266.726505 
L 109.376529 266.078652 
L 109.693884 266.021541 
L 110.01124 265.040879 
L 110.328595 264.798368 
L 110.64595 264.75512 
L 111.598017 263.081853 
L 111.915372 263.029339 
L 112.232727 262.809604 
L 112.550083 262.766075 
L 113.184793 261.988415 
L 113.502149 261.764337 
L 113.819504 261.686514 
L 114.13686 261.000032 
L 114.454215 260.942202 
L 115.088926 260.418081 
L 116.040992 259.742697 
L 116.358347 258.877146 
L 116.993058 258.746516 
L 117.627769 258.698486 
L 117.945124 258.313595 
L 118.262479 258.287176 
L 118.579835 257.793921 
L 119.214545 257.586984 
L 120.166612 257.489057 
L 120.483967 256.69109 
L 120.801322 256.593804 
L 121.118678 255.672917 
L 121.436033 255.589274 
L 121.753388 255.163835 
L 122.070744 254.994331 
L 122.388099 254.642184 
L 122.705455 254.626537 
L 123.02281 254.05153 
L 123.340165 253.795694 
L 124.292231 253.439895 
L 124.609587 253.077963 
L 124.926942 253.041452 
L 125.561653 252.156065 
L 125.879008 251.975714 
L 126.196364 251.618127 
L 126.831074 251.428083 
L 127.14843 250.475444 
L 127.465785 250.268774 
L 128.100496 250.180294 
L 128.417851 249.215057 
L 128.735207 248.872603 
L 129.052562 247.971736 
L 129.369917 247.5907 
L 129.687273 246.702028 
L 130.004628 246.573297 
L 130.321983 246.312928 
L 130.639339 246.290878 
L 130.956694 245.464311 
L 131.27405 245.035798 
L 131.591405 244.856172 
L 131.90876 244.536253 
L 132.226116 244.499049 
L 132.860826 243.255466 
L 133.178182 242.973918 
L 133.812893 241.72173 
L 134.130248 241.608811 
L 134.764959 240.258688 
L 135.082314 240.139893 
L 135.399669 239.109031 
L 135.717025 238.999343 
L 136.351736 237.83218 
L 136.669091 237.751125 
L 136.986446 236.470432 
L 137.938512 236.152339 
L 138.573223 235.074434 
L 138.890579 234.994684 
L 139.207934 234.657287 
L 139.842645 234.424147 
L 140.477355 233.82538 
L 140.794711 232.865303 
L 141.746777 232.668381 
L 142.064132 231.274033 
L 142.381488 230.958017 
L 142.698843 230.807702 
L 143.650909 229.302361 
L 143.968264 229.260389 
L 144.602975 228.246773 
L 144.920331 227.782704 
L 145.237686 227.703917 
L 145.555041 227.248217 
L 145.872397 226.24205 
L 146.189752 226.196267 
L 146.507107 225.982392 
L 146.824463 225.260097 
L 147.459174 223.53085 
L 148.093884 223.255199 
L 148.41124 222.777413 
L 148.728595 222.620727 
L 149.04595 221.341271 
L 149.363306 221.113712 
L 149.998017 220.980465 
L 150.315372 220.041489 
L 150.950083 219.664276 
L 151.267438 219.133753 
L 151.584793 218.865448 
L 152.219504 218.737008 
L 152.53686 216.87499 
L 153.488926 216.703982 
L 153.806281 216.168418 
L 154.123636 215.975869 
L 154.440992 215.538558 
L 154.758347 215.411051 
L 155.075702 214.932228 
L 156.345124 214.376018 
L 156.979835 213.892445 
L 157.614545 213.640971 
L 157.931901 213.099603 
L 158.883967 212.562474 
L 159.201322 212.491917 
L 159.518678 212.081649 
L 159.836033 212.041308 
L 160.153388 211.247722 
L 160.470744 211.143941 
L 160.788099 210.825823 
L 161.105455 210.087159 
L 161.42281 209.859207 
L 161.740165 209.480731 
L 162.374876 209.403485 
L 162.692231 209.168463 
L 163.009587 209.107481 
L 163.326942 208.67932 
L 163.961653 208.31685 
L 164.279008 208.215859 
L 165.231074 207.513324 
L 165.865785 207.351651 
L 166.500496 206.88269 
L 166.817851 206.298295 
L 167.769917 205.4564 
L 169.039339 204.765682 
L 169.356694 204.719121 
L 169.991405 204.088337 
L 170.30876 204.053288 
L 170.626116 203.670095 
L 171.260826 203.488031 
L 171.578182 203.196883 
L 172.530248 202.006502 
L 172.847603 201.965536 
L 174.117025 201.186699 
L 174.751736 200.708467 
L 175.703802 200.298182 
L 176.021157 200.22978 
L 176.973223 199.747321 
L 177.607934 199.313264 
L 177.925289 198.8198 
L 179.512066 198.250562 
L 181.416198 197.541673 
L 181.733554 197.231646 
L 183.637686 196.868445 
L 184.272397 196.607786 
L 184.589752 196.165428 
L 185.224463 196.109981 
L 185.541818 195.388776 
L 186.176529 195.200157 
L 186.493884 194.314679 
L 188.080661 193.429751 
L 188.398017 193.370128 
L 189.032727 192.831555 
L 189.667438 192.613444 
L 189.984793 191.999563 
L 190.302149 191.777518 
L 190.93686 190.814229 
L 191.888926 190.430613 
L 192.206281 189.767145 
L 193.475702 189.350521 
L 193.793058 189.31735 
L 194.110413 188.939006 
L 194.745124 188.666137 
L 195.062479 188.102045 
L 195.69719 187.935666 
L 197.601322 187.060799 
L 197.918678 186.710617 
L 198.870744 186.303039 
L 199.505455 185.712189 
L 200.774876 185.333869 
L 201.409587 185.121817 
L 201.726942 185.031139 
L 202.044298 184.60696 
L 202.679008 184.450675 
L 203.313719 184.017874 
L 203.631074 183.973651 
L 203.94843 183.783889 
L 204.58314 183.717734 
L 206.487273 182.806922 
L 206.804628 182.532633 
L 207.121983 182.519128 
L 207.756694 182.250241 
L 212.199669 181.229117 
L 212.83438 180.880448 
L 214.103802 180.280494 
L 216.325289 179.754508 
L 217.277355 179.584058 
L 217.594711 179.389408 
L 218.864132 179.197366 
L 219.181488 178.974151 
L 219.498843 178.569864 
L 220.133554 178.396652 
L 221.08562 178.185995 
L 222.989752 177.34589 
L 224.576529 177.146666 
L 225.21124 176.913342 
L 226.163306 176.741009 
L 227.750083 175.636088 
L 229.019504 175.052547 
L 229.97157 174.684748 
L 232.827769 173.112763 
L 233.462479 173.023052 
L 234.731901 172.531155 
L 235.366612 172.449772 
L 235.683967 172.353237 
L 236.001322 171.975176 
L 237.270744 171.56855 
L 237.905455 171.343472 
L 238.22281 171.036787 
L 239.174876 170.692156 
L 240.126942 170.474933 
L 241.079008 170.155822 
L 241.396364 169.803164 
L 242.665785 169.492041 
L 242.98314 169.43434 
L 243.300496 169.259913 
L 243.617851 169.224377 
L 243.935207 169.001793 
L 244.252562 168.9897 
L 244.569917 168.828215 
L 244.887273 168.373783 
L 245.839339 168.035221 
L 246.156694 167.586107 
L 246.791405 167.260771 
L 247.10876 166.878073 
L 248.060826 166.501603 
L 248.378182 166.46283 
L 249.012893 166.257249 
L 249.964959 166.168372 
L 250.599669 165.883065 
L 250.917025 165.846022 
L 251.551736 165.471912 
L 252.186446 164.939392 
L 253.455868 164.727976 
L 253.773223 164.198985 
L 256.312066 163.831394 
L 256.946777 163.445525 
L 258.533554 163.096677 
L 259.48562 162.514971 
L 260.120331 162.335569 
L 261.707107 161.853994 
L 262.024463 161.413635 
L 262.341818 161.170204 
L 263.61124 160.883527 
L 264.563306 160.612541 
L 265.515372 160.55158 
L 267.102149 159.713902 
L 267.419504 159.360632 
L 267.73686 159.180064 
L 268.37157 159.144822 
L 268.688926 158.799882 
L 269.640992 158.768365 
L 269.958347 158.588494 
L 270.275702 158.573813 
L 270.910413 158.035824 
L 271.545124 157.939396 
L 271.862479 157.759622 
L 272.179835 157.758049 
L 272.49719 157.53927 
L 273.131901 157.482111 
L 273.449256 157.035169 
L 274.718678 156.658006 
L 275.353388 156.317636 
L 275.670744 156.286038 
L 276.305455 155.638054 
L 277.892231 155.281495 
L 279.479008 154.709906 
L 279.796364 154.296784 
L 280.431074 154.204582 
L 280.74843 153.785448 
L 281.700496 153.66884 
L 282.335207 153.340563 
L 282.652562 152.996867 
L 284.239339 152.633541 
L 284.556694 152.421352 
L 285.191405 152.308218 
L 285.50876 151.85362 
L 287.730248 151.035043 
L 288.047603 150.706179 
L 288.999669 150.603411 
L 289.317025 150.135097 
L 290.586446 149.780165 
L 290.903802 149.729798 
L 291.221157 149.562482 
L 292.173223 149.481326 
L 292.490579 149.296162 
L 293.125289 148.469146 
L 293.76 148.400729 
L 295.029421 147.932399 
L 295.346777 147.583458 
L 295.981488 147.529875 
L 296.298843 146.822068 
L 297.88562 146.378838 
L 298.520331 145.825464 
L 298.837686 145.587878 
L 299.472397 145.376302 
L 300.107107 144.871109 
L 301.376529 144.453106 
L 302.328595 143.774679 
L 302.963306 143.488397 
L 303.280661 142.746655 
L 303.598017 142.479776 
L 303.915372 142.46694 
L 304.232727 142.339586 
L 304.550083 141.873559 
L 304.867438 141.798471 
L 305.184793 141.254536 
L 305.819504 141.167778 
L 306.454215 140.240756 
L 307.406281 139.985357 
L 307.723636 139.654882 
L 308.040992 139.562653 
L 308.358347 138.964881 
L 308.675702 138.669292 
L 308.993058 138.556733 
L 309.310413 138.034637 
L 310.262479 137.583239 
L 310.579835 137.251995 
L 310.89719 136.520688 
L 311.214545 136.443512 
L 311.531901 136.071079 
L 312.166612 135.754206 
L 313.118678 135.27401 
L 313.436033 134.843606 
L 313.753388 134.159064 
L 314.070744 133.840392 
L 314.388099 133.143863 
L 315.657521 132.250305 
L 315.974876 132.198422 
L 316.609587 131.796703 
L 316.926942 131.346016 
L 317.879008 130.892406 
L 318.196364 130.572405 
L 318.831074 130.473438 
L 319.78314 129.796762 
L 320.100496 128.962379 
L 320.735207 128.934298 
L 321.052562 128.76954 
L 321.369917 128.74506 
L 321.687273 128.529543 
L 322.004628 127.66714 
L 322.639339 127.351168 
L 322.956694 127.251487 
L 323.27405 126.622722 
L 324.226116 126.356607 
L 324.543471 125.929127 
L 325.178182 125.838288 
L 325.495537 125.073806 
L 326.447603 123.846673 
L 326.764959 123.807932 
L 327.399669 123.504943 
L 327.717025 122.951507 
L 328.351736 122.843092 
L 328.669091 122.372709 
L 328.986446 122.149229 
L 329.303802 122.116841 
L 329.621157 121.652524 
L 330.890579 121.081755 
L 331.207934 120.816671 
L 331.525289 120.725222 
L 331.842645 120.372373 
L 332.16 120.364836 
L 332.477355 119.517138 
L 332.794711 119.177915 
L 333.112066 118.501862 
L 333.746777 118.293016 
L 334.064132 117.731331 
L 334.381488 117.677992 
L 334.698843 117.465124 
L 335.016198 117.396199 
L 335.333554 116.88556 
L 335.650909 116.726874 
L 335.968264 116.393094 
L 336.28562 116.334453 
L 337.555041 115.239247 
L 337.872397 115.181976 
L 338.507107 114.464885 
L 338.824463 114.413458 
L 339.459174 113.818687 
L 339.776529 113.796981 
L 340.093884 113.515457 
L 340.41124 113.491059 
L 341.04595 113.085543 
L 341.363306 112.748821 
L 341.680661 112.167104 
L 341.998017 112.020827 
L 342.315372 111.345208 
L 342.632727 111.055452 
L 342.950083 110.919503 
L 343.584793 110.522998 
L 344.219504 110.040414 
L 344.53686 109.686886 
L 344.854215 109.103863 
L 346.440992 108.577345 
L 346.758347 107.999418 
L 347.710413 107.304834 
L 348.027769 106.593558 
L 348.345124 106.215066 
L 348.662479 106.204675 
L 348.979835 106.048558 
L 349.614545 105.323917 
L 350.249256 105.105846 
L 350.566612 104.575425 
L 350.883967 104.28983 
L 351.201322 104.271246 
L 352.153388 103.474648 
L 352.470744 103.337471 
L 353.105455 102.887354 
L 353.42281 102.775901 
L 353.740165 101.877068 
L 354.057521 101.86256 
L 354.374876 101.515248 
L 354.692231 101.498664 
L 355.009587 100.986768 
L 355.644298 100.819843 
L 355.961653 100.389517 
L 356.596364 98.661868 
L 357.231074 98.22847 
L 357.54843 97.108241 
L 358.18314 96.468336 
L 358.500496 96.449396 
L 358.817851 96.128146 
L 359.135207 96.034126 
L 359.769917 94.672356 
L 360.404628 94.565419 
L 361.039339 93.289929 
L 361.356694 93.278212 
L 361.67405 92.58311 
L 361.991405 91.429076 
L 362.30876 91.31898 
L 362.626116 90.760344 
L 363.260826 90.718377 
L 363.895537 89.64117 
L 364.530248 89.439722 
L 365.164959 88.400839 
L 366.43438 88.180016 
L 366.751736 87.745856 
L 367.069091 87.687441 
L 369.607934 84.94947 
L 369.925289 84.154037 
L 370.56 83.791312 
L 370.877355 83.435738 
L 371.194711 83.277203 
L 371.829421 82.4598 
L 372.146777 82.326988 
L 372.464132 81.709253 
L 373.098843 81.087215 
L 373.416198 80.715885 
L 373.733554 79.741991 
L 374.050909 79.691432 
L 374.68562 79.281435 
L 375.002975 78.777724 
L 375.320331 77.995522 
L 375.637686 77.725553 
L 375.955041 77.692753 
L 376.589752 76.995223 
L 376.907107 76.924311 
L 377.224463 75.787779 
L 378.176529 75.128804 
L 378.81124 74.023233 
L 379.128595 74.010099 
L 379.44595 73.797943 
L 379.763306 73.751145 
L 380.080661 72.984959 
L 380.398017 72.752938 
L 380.715372 72.110085 
L 381.032727 71.965808 
L 381.667438 70.332687 
L 381.984793 69.952819 
L 382.302149 69.913416 
L 382.619504 69.533673 
L 382.93686 68.632385 
L 383.57157 68.132239 
L 383.888926 67.989981 
L 384.523636 67.197689 
L 385.158347 66.792481 
L 385.475702 66.764189 
L 385.793058 66.019939 
L 386.110413 65.950324 
L 386.427769 65.298955 
L 387.062479 65.001358 
L 387.379835 64.272733 
L 388.331901 63.903678 
L 388.649256 63.185808 
L 388.966612 62.969549 
L 389.283967 62.499389 
L 389.601322 61.61279 
L 389.918678 61.408974 
L 390.236033 60.650852 
L 390.870744 60.510744 
L 391.505455 59.887762 
L 391.82281 59.85305 
L 392.140165 59.530037 
L 392.457521 59.501218 
L 392.774876 59.299052 
L 393.726942 58.242014 
L 394.044298 58.060105 
L 394.361653 58.046007 
L 394.679008 57.799132 
L 395.313719 56.867018 
L 396.58314 56.283142 
L 396.900496 55.726306 
L 397.217851 55.615462 
L 398.169917 53.589689 
L 398.487273 53.568 
L 398.487273 53.568 
" clip-path="url(#pc57857af79)" style="fill: none; stroke: #1f77b4; stroke-width: 1.5; stroke-linecap: square"/>
   </g>
   <g id="line2d_17">
    <path d="M 73.832727 241.565744 
L 74.150083 233.746065 
L 74.467438 233.746065 
L 74.784793 227.061832 
L 75.102149 225.673423 
L 75.73686 225.673423 
L 76.054215 223.172452 
L 76.37157 218.950468 
L 76.688926 218.691437 
L 77.006281 218.691437 
L 77.323636 218.038158 
L 78.910413 218.038158 
L 79.227769 215.656288 
L 79.545124 215.656288 
L 79.862479 214.79406 
L 80.179835 214.261362 
L 80.49719 214.261362 
L 80.814545 211.62753 
L 81.131901 210.387764 
L 82.083967 210.366447 
L 82.401322 209.632699 
L 86.844298 209.591039 
L 87.161653 209.189277 
L 87.479008 207.28073 
L 87.796364 206.85882 
L 88.113719 206.198102 
L 89.700496 206.198102 
L 90.017851 205.3539 
L 90.652562 205.3539 
L 90.969917 204.373233 
L 91.287273 204.373233 
L 91.604628 203.862383 
L 91.921983 202.548397 
L 99.221157 202.548397 
L 99.538512 201.765438 
L 99.855868 201.765438 
L 100.173223 201.580234 
L 101.76 201.580234 
L 102.077355 200.768674 
L 103.664132 200.768674 
L 103.981488 200.585617 
L 104.298843 200.269179 
L 104.933554 200.269179 
L 105.250909 199.156235 
L 106.202975 199.100145 
L 106.520331 196.588413 
L 107.155041 196.340236 
L 107.472397 196.340236 
L 107.789752 195.761857 
L 109.376529 195.761857 
L 109.693884 194.492505 
L 110.01124 194.492505 
L 110.328595 193.090269 
L 129.369917 193.090211 
L 129.687273 192.293368 
L 130.321983 191.54393 
L 131.27405 191.496149 
L 131.591405 190.844295 
L 131.90876 190.844295 
L 132.226116 190.695369 
L 132.860826 190.695369 
L 133.178182 189.440506 
L 133.495537 189.440506 
L 133.812893 189.177738 
L 135.399669 189.177738 
L 135.717025 188.107615 
L 136.669091 187.660783 
L 163.009587 187.660783 
L 163.326942 186.550133 
L 167.135207 186.550133 
L 167.452562 186.347156 
L 167.769917 186.347156 
L 168.087273 184.972582 
L 168.404628 184.972582 
L 168.721983 184.605683 
L 169.356694 184.605683 
L 169.67405 184.368917 
L 169.991405 183.80182 
L 171.578182 183.80182 
L 172.847603 183.232345 
L 180.146777 183.232345 
L 180.464132 182.940365 
L 180.781488 182.940365 
L 181.098843 182.653965 
L 182.68562 182.653965 
L 183.320331 179.982319 
L 185.541818 179.958554 
L 185.859174 179.803331 
L 186.493884 179.803331 
L 186.81124 179.568871 
L 187.128595 178.98133 
L 187.44595 178.98133 
L 187.763306 178.583395 
L 188.080661 178.583395 
L 188.398017 176.922119 
L 188.715372 174.552892 
L 283.604628 174.552892 
L 284.239339 170.522389 
L 284.556694 170.522389 
L 284.87405 170.124453 
L 285.191405 170.124453 
L 285.50876 169.536912 
L 285.826116 169.302452 
L 286.460826 169.302452 
L 286.778182 169.147229 
L 288.999669 169.123464 
L 289.63438 166.451818 
L 291.221157 166.451818 
L 291.538512 166.165419 
L 291.855868 166.165419 
L 292.173223 165.873439 
L 299.472397 165.873439 
L 299.789752 165.703807 
L 300.107107 165.703807 
L 300.741818 165.303963 
L 302.328595 165.303963 
L 302.64595 164.736867 
L 302.963306 164.500101 
L 303.598017 164.500101 
L 303.915372 164.133201 
L 304.232727 164.133201 
L 304.550083 162.758628 
L 304.867438 162.758628 
L 305.184793 162.555651 
L 308.993058 162.555651 
L 309.310413 161.445 
L 335.968264 161.384082 
L 336.602975 160.998168 
L 336.920331 159.928045 
L 338.507107 159.928045 
L 338.824463 159.665278 
L 339.141818 159.665278 
L 339.459174 158.410415 
L 340.093884 158.410415 
L 340.41124 158.261488 
L 340.728595 158.261488 
L 341.04595 157.609634 
L 341.998017 157.561853 
L 342.315372 157.271785 
L 342.632727 156.812415 
L 342.950083 156.015573 
L 361.991405 156.015515 
L 362.30876 154.613279 
L 362.626116 154.613279 
L 362.943471 153.343927 
L 364.530248 153.343927 
L 364.847603 152.765547 
L 365.482314 152.665809 
L 365.799669 152.517371 
L 366.117025 150.005639 
L 367.069091 149.949549 
L 367.386446 148.836605 
L 368.021157 148.836605 
L 368.655868 148.337109 
L 370.242645 148.337109 
L 370.56 147.52555 
L 372.146777 147.52555 
L 372.464132 147.340346 
L 372.781488 147.340346 
L 373.098843 146.557386 
L 380.398017 146.557386 
L 380.715372 145.2434 
L 381.032727 144.73255 
L 381.350083 144.73255 
L 381.667438 143.751883 
L 382.302149 143.751883 
L 382.619504 142.907681 
L 384.206281 142.907681 
L 384.840992 141.825053 
L 385.158347 139.916507 
L 385.475702 139.514744 
L 389.918678 139.473085 
L 390.236033 138.739336 
L 391.188099 138.718019 
L 391.505455 137.478253 
L 391.82281 134.844422 
L 392.140165 134.844422 
L 392.457521 134.311724 
L 392.774876 133.449495 
L 393.092231 133.449495 
L 393.409587 131.067625 
L 394.996364 131.067625 
L 395.313719 130.414347 
L 395.631074 130.414347 
L 395.94843 130.155316 
L 396.265785 125.933331 
L 396.58314 123.432361 
L 397.217851 123.432361 
L 397.535207 122.043951 
L 397.852562 115.359719 
L 398.169917 115.359719 
L 398.487273 107.54004 
L 398.487273 107.54004 
" clip-path="url(#pc57857af79)" style="fill: none; stroke: #ff7f0e; stroke-width: 1.5; stroke-linecap: square"/>
   </g>
   <g id="patch_3">
    <path d="M 57.6 307.584 
L 57.6 41.472 
" style="fill: none; stroke: #000000; stroke-width: 0.8; stroke-linejoin: miter; stroke-linecap: square"/>
   </g>
   <g id="patch_4">
    <path d="M 414.72 307.584 
L 414.72 41.472 
" style="fill: none; stroke: #000000; stroke-width: 0.8; stroke-linejoin: miter; stroke-linecap: square"/>
   </g>
   <g id="patch_5">
    <path d="M 57.6 307.584 
L 414.72 307.584 
" style="fill: none; stroke: #000000; stroke-width: 0.8; stroke-linejoin: miter; stroke-linecap: square"/>
   </g>
   <g id="patch_6">
    <path d="M 57.6 41.472 
L 414.72 41.472 
" style="fill: none; stroke: #000000; stroke-width: 0.8; stroke-linejoin: miter; stroke-linecap: square"/>
   </g>
   <g id="legend_1">
    <g id="patch_7">
     <path d="M 64.6 78.82825 
L 129.342187 78.82825 
Q 131.342187 78.82825 131.342187 76.82825 
L 131.342187 48.472 
Q 131.342187 46.472 129.342187 46.472 
L 64.6 46.472 
Q 62.6 46.472 62.6 48.472 
L 62.6 76.82825 
Q 62.6 78.82825 64.6 78.82825 
z
" style="fill: #ffffff; opacity: 0.8; stroke: #cccccc; stroke-linejoin: miter"/>
    </g>
    <g id="line2d_18">
     <path d="M 66.6 54.570437 
L 76.6 54.570437 
L 86.6 54.570437 
" style="fill: none; stroke: #1f77b4; stroke-width: 1.5; stroke-linecap: square"/>
    </g>
    <g id="text_18">
     <!-- qc -->
     <g transform="translate(94.6 58.070437) scale(0.1 -0.1)">
      <defs>
       <path id="DejaVuSans-71" d="M 947 1747 
Q 947 1113 1208 752 
Q 1469 391 1925 391 
Q 2381 391 2643 752 
Q 2906 1113 2906 1747 
Q 2906 2381 2643 2742 
Q 2381 3103 1925 3103 
Q 1469 3103 1208 2742 
Q 947 2381 947 1747 
z
M 2906 525 
Q 2725 213 2448 61 
Q 2172 -91 1784 -91 
Q 1150 -91 751 415 
Q 353 922 353 1747 
Q 353 2572 751 3078 
Q 1150 3584 1784 3584 
Q 2172 3584 2448 3432 
Q 2725 3281 2906 2969 
L 2906 3500 
L 3481 3500 
L 3481 -1331 
L 2906 -1331 
L 2906 525 
z
" transform="scale(0.015625)"/>
       <path id="DejaVuSans-63" d="M 3122 3366 
L 3122 2828 
Q 2878 2963 2633 3030 
Q 2388 3097 2138 3097 
Q 1578 3097 1268 2742 
Q 959 2388 959 1747 
Q 959 1106 1268 751 
Q 1578 397 2138 397 
Q 2388 397 2633 464 
Q 2878 531 3122 666 
L 3122 134 
Q 2881 22 2623 -34 
Q 2366 -91 2075 -91 
Q 1284 -91 818 406 
Q 353 903 353 1747 
Q 353 2603 823 3093 
Q 1294 3584 2113 3584 
Q 2378 3584 2631 3529 
Q 2884 3475 3122 3366 
z
" transform="scale(0.015625)"/>
      </defs>
      <use xlink:href="#DejaVuSans-71"/>
      <use xlink:href="#DejaVuSans-63" x="63.476562"/>
     </g>
    </g>
    <g id="line2d_19">
     <path d="M 66.6 69.248562 
L 76.6 69.248562 
L 86.6 69.248562 
" style="fill: none; stroke: #ff7f0e; stroke-width: 1.5; stroke-linecap: square"/>
    </g>
    <g id="text_19">
     <!-- Trotter -->
     <g transform="translate(94.6 72.748562) scale(0.1 -0.1)">
      <defs>
       <path id="DejaVuSans-54" d="M -19 4666 
L 3928 4666 
L 3928 4134 
L 2272 4134 
L 2272 0 
L 1638 0 
L 1638 4134 
L -19 4134 
L -19 4666 
z
" transform="scale(0.015625)"/>
       <path id="DejaVuSans-72" d="M 2631 2963 
Q 2534 3019 2420 3045 
Q 2306 3072 2169 3072 
Q 1681 3072 1420 2755 
Q 1159 2438 1159 1844 
L 1159 0 
L 581 0 
L 581 3500 
L 1159 3500 
L 1159 2956 
Q 1341 3275 1631 3429 
Q 1922 3584 2338 3584 
Q 2397 3584 2469 3576 
Q 2541 3569 2628 3553 
L 2631 2963 
z
" transform="scale(0.015625)"/>
       <path id="DejaVuSans-6f" d="M 1959 3097 
Q 1497 3097 1228 2736 
Q 959 2375 959 1747 
Q 959 1119 1226 758 
Q 1494 397 1959 397 
Q 2419 397 2687 759 
Q 2956 1122 2956 1747 
Q 2956 2369 2687 2733 
Q 2419 3097 1959 3097 
z
M 1959 3584 
Q 2709 3584 3137 3096 
Q 3566 2609 3566 1747 
Q 3566 888 3137 398 
Q 2709 -91 1959 -91 
Q 1206 -91 779 398 
Q 353 888 353 1747 
Q 353 2609 779 3096 
Q 1206 3584 1959 3584 
z
" transform="scale(0.015625)"/>
       <path id="DejaVuSans-65" d="M 3597 1894 
L 3597 1613 
L 953 1613 
Q 991 1019 1311 708 
Q 1631 397 2203 397 
Q 2534 397 2845 478 
Q 3156 559 3463 722 
L 3463 178 
Q 3153 47 2828 -22 
Q 2503 -91 2169 -91 
Q 1331 -91 842 396 
Q 353 884 353 1716 
Q 353 2575 817 3079 
Q 1281 3584 2069 3584 
Q 2775 3584 3186 3129 
Q 3597 2675 3597 1894 
z
M 3022 2063 
Q 3016 2534 2758 2815 
Q 2500 3097 2075 3097 
Q 1594 3097 1305 2825 
Q 1016 2553 972 2059 
L 3022 2063 
z
" transform="scale(0.015625)"/>
      </defs>
      <use xlink:href="#DejaVuSans-54"/>
      <use xlink:href="#DejaVuSans-72" x="46.333984"/>
      <use xlink:href="#DejaVuSans-6f" x="85.197266"/>
      <use xlink:href="#DejaVuSans-74" x="146.378906"/>
      <use xlink:href="#DejaVuSans-74" x="185.587891"/>
      <use xlink:href="#DejaVuSans-65" x="224.796875"/>
      <use xlink:href="#DejaVuSans-72" x="286.320312"/>
     </g>
    </g>
   </g>
  </g>
 </g>
 <defs>
  <clipPath id="pc57857af79">
   <rect x="57.6" y="41.472" width="357.12" height="266.112"/>
  </clipPath>
 </defs>
</svg>
