<?xml version="1.0" encoding="utf-8" standalone="no"?>
<!DOCTYPE svg PUBLIC "-//W3C//DTD SVG 1.1//EN"
  "http://www.w3.org/Graphics/SVG/1.1/DTD/svg11.dtd">
<svg xmlns:xlink="http://www.w3.org/1999/xlink" width="460.8pt" height="345.6pt" viewBox="0 0 460.8 345.6" xmlns="http://www.w3.org/2000/svg" version="1.1">
 <metadata>
  <rdf:RDF xmlns:dc="http://purl.org/dc/elements/1.1/" xmlns:cc="http://creativecommons.org/ns#" xmlns:rdf="http://www.w3.org/1999/02/22-rdf-syntax-ns#">
   <cc:Work>
    <dc:type rdf:resource="http://purl.org/dc/dcmitype/StillImage"/>
    <dc:date>2024-06-07T10:42:56.526952</dc:date>
    <dc:format>image/svg+xml</dc:format>
    <dc:creator>
     <cc:Agent>
      <dc:title>Matplotlib v3.7.1, https://matplotlib.org/</dc:title>
     </cc:Agent>
    </dc:creator>
   </cc:Work>
  </rdf:RDF>
 </metadata>
 <defs>
  <style type="text/css">*{stroke-linejoin: round; stroke-linecap: butt}</style>
 </defs>
 <g id="figure_1">
  <g id="patch_1">
   <path d="M 0 345.6 
L 460.8 345.6 
L 460.8 0 
L 0 0 
z
" style="fill: #ffffff"/>
  </g>
  <g id="axes_1">
   <g id="patch_2">
    <path d="M 57.6 307.584 
L 414.72 307.584 
L 414.72 41.472 
L 57.6 41.472 
z
" style="fill: #ffffff"/>
   </g>
   <g id="matplotlib.axis_1">
    <g id="xtick_1">
     <g id="line2d_1">
      <defs>
       <path id="m41e5355c29" d="M 0 0 
L 0 3.5 
" style="stroke: #000000; stroke-width: 0.8"/>
      </defs>
      <g>
       <use xlink:href="#m41e5355c29" x="73.832727" y="307.584" style="stroke: #000000; stroke-width: 0.8"/>
      </g>
     </g>
     <g id="text_1">
      <!-- 0 -->
      <g transform="translate(70.651477 322.182437) scale(0.1 -0.1)">
       <defs>
        <path id="DejaVuSans-30" d="M 2034 4250 
Q 1547 4250 1301 3770 
Q 1056 3291 1056 2328 
Q 1056 1369 1301 889 
Q 1547 409 2034 409 
Q 2525 409 2770 889 
Q 3016 1369 3016 2328 
Q 3016 3291 2770 3770 
Q 2525 4250 2034 4250 
z
M 2034 4750 
Q 2819 4750 3233 4129 
Q 3647 3509 3647 2328 
Q 3647 1150 3233 529 
Q 2819 -91 2034 -91 
Q 1250 -91 836 529 
Q 422 1150 422 2328 
Q 422 3509 836 4129 
Q 1250 4750 2034 4750 
z
" transform="scale(0.015625)"/>
       </defs>
       <use xlink:href="#DejaVuSans-30"/>
      </g>
     </g>
    </g>
    <g id="xtick_2">
     <g id="line2d_2">
      <g>
       <use xlink:href="#m41e5355c29" x="137.303802" y="307.584" style="stroke: #000000; stroke-width: 0.8"/>
      </g>
     </g>
     <g id="text_2">
      <!-- 200 -->
      <g transform="translate(127.760052 322.182437) scale(0.1 -0.1)">
       <defs>
        <path id="DejaVuSans-32" d="M 1228 531 
L 3431 531 
L 3431 0 
L 469 0 
L 469 531 
Q 828 903 1448 1529 
Q 2069 2156 2228 2338 
Q 2531 2678 2651 2914 
Q 2772 3150 2772 3378 
Q 2772 3750 2511 3984 
Q 2250 4219 1831 4219 
Q 1534 4219 1204 4116 
Q 875 4013 500 3803 
L 500 4441 
Q 881 4594 1212 4672 
Q 1544 4750 1819 4750 
Q 2544 4750 2975 4387 
Q 3406 4025 3406 3419 
Q 3406 3131 3298 2873 
Q 3191 2616 2906 2266 
Q 2828 2175 2409 1742 
Q 1991 1309 1228 531 
z
" transform="scale(0.015625)"/>
       </defs>
       <use xlink:href="#DejaVuSans-32"/>
       <use xlink:href="#DejaVuSans-30" x="63.623047"/>
       <use xlink:href="#DejaVuSans-30" x="127.246094"/>
      </g>
     </g>
    </g>
    <g id="xtick_3">
     <g id="line2d_3">
      <g>
       <use xlink:href="#m41e5355c29" x="200.774876" y="307.584" style="stroke: #000000; stroke-width: 0.8"/>
      </g>
     </g>
     <g id="text_3">
      <!-- 400 -->
      <g transform="translate(191.231126 322.182437) scale(0.1 -0.1)">
       <defs>
        <path id="DejaVuSans-34" d="M 2419 4116 
L 825 1625 
L 2419 1625 
L 2419 4116 
z
M 2253 4666 
L 3047 4666 
L 3047 1625 
L 3713 1625 
L 3713 1100 
L 3047 1100 
L 3047 0 
L 2419 0 
L 2419 1100 
L 313 1100 
L 313 1709 
L 2253 4666 
z
" transform="scale(0.015625)"/>
       </defs>
       <use xlink:href="#DejaVuSans-34"/>
       <use xlink:href="#DejaVuSans-30" x="63.623047"/>
       <use xlink:href="#DejaVuSans-30" x="127.246094"/>
      </g>
     </g>
    </g>
    <g id="xtick_4">
     <g id="line2d_4">
      <g>
       <use xlink:href="#m41e5355c29" x="264.24595" y="307.584" style="stroke: #000000; stroke-width: 0.8"/>
      </g>
     </g>
     <g id="text_4">
      <!-- 600 -->
      <g transform="translate(254.7022 322.182437) scale(0.1 -0.1)">
       <defs>
        <path id="DejaVuSans-36" d="M 2113 2584 
Q 1688 2584 1439 2293 
Q 1191 2003 1191 1497 
Q 1191 994 1439 701 
Q 1688 409 2113 409 
Q 2538 409 2786 701 
Q 3034 994 3034 1497 
Q 3034 2003 2786 2293 
Q 2538 2584 2113 2584 
z
M 3366 4563 
L 3366 3988 
Q 3128 4100 2886 4159 
Q 2644 4219 2406 4219 
Q 1781 4219 1451 3797 
Q 1122 3375 1075 2522 
Q 1259 2794 1537 2939 
Q 1816 3084 2150 3084 
Q 2853 3084 3261 2657 
Q 3669 2231 3669 1497 
Q 3669 778 3244 343 
Q 2819 -91 2113 -91 
Q 1303 -91 875 529 
Q 447 1150 447 2328 
Q 447 3434 972 4092 
Q 1497 4750 2381 4750 
Q 2619 4750 2861 4703 
Q 3103 4656 3366 4563 
z
" transform="scale(0.015625)"/>
       </defs>
       <use xlink:href="#DejaVuSans-36"/>
       <use xlink:href="#DejaVuSans-30" x="63.623047"/>
       <use xlink:href="#DejaVuSans-30" x="127.246094"/>
      </g>
     </g>
    </g>
    <g id="xtick_5">
     <g id="line2d_5">
      <g>
       <use xlink:href="#m41e5355c29" x="327.717025" y="307.584" style="stroke: #000000; stroke-width: 0.8"/>
      </g>
     </g>
     <g id="text_5">
      <!-- 800 -->
      <g transform="translate(318.173275 322.182437) scale(0.1 -0.1)">
       <defs>
        <path id="DejaVuSans-38" d="M 2034 2216 
Q 1584 2216 1326 1975 
Q 1069 1734 1069 1313 
Q 1069 891 1326 650 
Q 1584 409 2034 409 
Q 2484 409 2743 651 
Q 3003 894 3003 1313 
Q 3003 1734 2745 1975 
Q 2488 2216 2034 2216 
z
M 1403 2484 
Q 997 2584 770 2862 
Q 544 3141 544 3541 
Q 544 4100 942 4425 
Q 1341 4750 2034 4750 
Q 2731 4750 3128 4425 
Q 3525 4100 3525 3541 
Q 3525 3141 3298 2862 
Q 3072 2584 2669 2484 
Q 3125 2378 3379 2068 
Q 3634 1759 3634 1313 
Q 3634 634 3220 271 
Q 2806 -91 2034 -91 
Q 1263 -91 848 271 
Q 434 634 434 1313 
Q 434 1759 690 2068 
Q 947 2378 1403 2484 
z
M 1172 3481 
Q 1172 3119 1398 2916 
Q 1625 2713 2034 2713 
Q 2441 2713 2670 2916 
Q 2900 3119 2900 3481 
Q 2900 3844 2670 4047 
Q 2441 4250 2034 4250 
Q 1625 4250 1398 4047 
Q 1172 3844 1172 3481 
z
" transform="scale(0.015625)"/>
       </defs>
       <use xlink:href="#DejaVuSans-38"/>
       <use xlink:href="#DejaVuSans-30" x="63.623047"/>
       <use xlink:href="#DejaVuSans-30" x="127.246094"/>
      </g>
     </g>
    </g>
    <g id="xtick_6">
     <g id="line2d_6">
      <g>
       <use xlink:href="#m41e5355c29" x="391.188099" y="307.584" style="stroke: #000000; stroke-width: 0.8"/>
      </g>
     </g>
     <g id="text_6">
      <!-- 1000 -->
      <g transform="translate(378.463099 322.182437) scale(0.1 -0.1)">
       <defs>
        <path id="DejaVuSans-31" d="M 794 531 
L 1825 531 
L 1825 4091 
L 703 3866 
L 703 4441 
L 1819 4666 
L 2450 4666 
L 2450 531 
L 3481 531 
L 3481 0 
L 794 0 
L 794 531 
z
" transform="scale(0.015625)"/>
       </defs>
       <use xlink:href="#DejaVuSans-31"/>
       <use xlink:href="#DejaVuSans-30" x="63.623047"/>
       <use xlink:href="#DejaVuSans-30" x="127.246094"/>
       <use xlink:href="#DejaVuSans-30" x="190.869141"/>
      </g>
     </g>
    </g>
    <g id="text_7">
     <!-- n -->
     <g transform="translate(232.99125 335.860562) scale(0.1 -0.1)">
      <defs>
       <path id="DejaVuSans-6e" d="M 3513 2113 
L 3513 0 
L 2938 0 
L 2938 2094 
Q 2938 2591 2744 2837 
Q 2550 3084 2163 3084 
Q 1697 3084 1428 2787 
Q 1159 2491 1159 1978 
L 1159 0 
L 581 0 
L 581 3500 
L 1159 3500 
L 1159 2956 
Q 1366 3272 1645 3428 
Q 1925 3584 2291 3584 
Q 2894 3584 3203 3211 
Q 3513 2838 3513 2113 
z
" transform="scale(0.015625)"/>
      </defs>
      <use xlink:href="#DejaVuSans-6e"/>
     </g>
    </g>
   </g>
   <g id="matplotlib.axis_2">
    <g id="ytick_1">
     <g id="line2d_7">
      <defs>
       <path id="mf82fea9e6b" d="M 0 0 
L -3.5 0 
" style="stroke: #000000; stroke-width: 0.8"/>
      </defs>
      <g>
       <use xlink:href="#mf82fea9e6b" x="57.6" y="290.11964" style="stroke: #000000; stroke-width: 0.8"/>
      </g>
     </g>
     <g id="text_8">
      <!-- −3 -->
      <g transform="translate(35.857813 293.918859) scale(0.1 -0.1)">
       <defs>
        <path id="DejaVuSans-2212" d="M 678 2272 
L 4684 2272 
L 4684 1741 
L 678 1741 
L 678 2272 
z
" transform="scale(0.015625)"/>
        <path id="DejaVuSans-33" d="M 2597 2516 
Q 3050 2419 3304 2112 
Q 3559 1806 3559 1356 
Q 3559 666 3084 287 
Q 2609 -91 1734 -91 
Q 1441 -91 1130 -33 
Q 819 25 488 141 
L 488 750 
Q 750 597 1062 519 
Q 1375 441 1716 441 
Q 2309 441 2620 675 
Q 2931 909 2931 1356 
Q 2931 1769 2642 2001 
Q 2353 2234 1838 2234 
L 1294 2234 
L 1294 2753 
L 1863 2753 
Q 2328 2753 2575 2939 
Q 2822 3125 2822 3475 
Q 2822 3834 2567 4026 
Q 2313 4219 1838 4219 
Q 1578 4219 1281 4162 
Q 984 4106 628 3988 
L 628 4550 
Q 988 4650 1302 4700 
Q 1616 4750 1894 4750 
Q 2613 4750 3031 4423 
Q 3450 4097 3450 3541 
Q 3450 3153 3228 2886 
Q 3006 2619 2597 2516 
z
" transform="scale(0.015625)"/>
       </defs>
       <use xlink:href="#DejaVuSans-2212"/>
       <use xlink:href="#DejaVuSans-33" x="83.789062"/>
      </g>
     </g>
    </g>
    <g id="ytick_2">
     <g id="line2d_8">
      <g>
       <use xlink:href="#mf82fea9e6b" x="57.6" y="251.402513" style="stroke: #000000; stroke-width: 0.8"/>
      </g>
     </g>
     <g id="text_9">
      <!-- −2 -->
      <g transform="translate(35.857813 255.201731) scale(0.1 -0.1)">
       <use xlink:href="#DejaVuSans-2212"/>
       <use xlink:href="#DejaVuSans-32" x="83.789062"/>
      </g>
     </g>
    </g>
    <g id="ytick_3">
     <g id="line2d_9">
      <g>
       <use xlink:href="#mf82fea9e6b" x="57.6" y="212.685385" style="stroke: #000000; stroke-width: 0.8"/>
      </g>
     </g>
     <g id="text_10">
      <!-- −1 -->
      <g transform="translate(35.857813 216.484604) scale(0.1 -0.1)">
       <use xlink:href="#DejaVuSans-2212"/>
       <use xlink:href="#DejaVuSans-31" x="83.789062"/>
      </g>
     </g>
    </g>
    <g id="ytick_4">
     <g id="line2d_10">
      <g>
       <use xlink:href="#mf82fea9e6b" x="57.6" y="173.968257" style="stroke: #000000; stroke-width: 0.8"/>
      </g>
     </g>
     <g id="text_11">
      <!-- 0 -->
      <g transform="translate(44.2375 177.767476) scale(0.1 -0.1)">
       <use xlink:href="#DejaVuSans-30"/>
      </g>
     </g>
    </g>
    <g id="ytick_5">
     <g id="line2d_11">
      <g>
       <use xlink:href="#mf82fea9e6b" x="57.6" y="135.251129" style="stroke: #000000; stroke-width: 0.8"/>
      </g>
     </g>
     <g id="text_12">
      <!-- 1 -->
      <g transform="translate(44.2375 139.050348) scale(0.1 -0.1)">
       <use xlink:href="#DejaVuSans-31"/>
      </g>
     </g>
    </g>
    <g id="ytick_6">
     <g id="line2d_12">
      <g>
       <use xlink:href="#mf82fea9e6b" x="57.6" y="96.534001" style="stroke: #000000; stroke-width: 0.8"/>
      </g>
     </g>
     <g id="text_13">
      <!-- 2 -->
      <g transform="translate(44.2375 100.33322) scale(0.1 -0.1)">
       <use xlink:href="#DejaVuSans-32"/>
      </g>
     </g>
    </g>
    <g id="ytick_7">
     <g id="line2d_13">
      <g>
       <use xlink:href="#mf82fea9e6b" x="57.6" y="57.816874" style="stroke: #000000; stroke-width: 0.8"/>
      </g>
     </g>
     <g id="text_14">
      <!-- 3 -->
      <g transform="translate(44.2375 61.616092) scale(0.1 -0.1)">
       <use xlink:href="#DejaVuSans-33"/>
      </g>
     </g>
    </g>
    <g id="text_15">
     <!-- E*t -->
     <g transform="translate(29.778125 182.147531) rotate(-90) scale(0.1 -0.1)">
      <defs>
       <path id="DejaVuSans-45" d="M 628 4666 
L 3578 4666 
L 3578 4134 
L 1259 4134 
L 1259 2753 
L 3481 2753 
L 3481 2222 
L 1259 2222 
L 1259 531 
L 3634 531 
L 3634 0 
L 628 0 
L 628 4666 
z
" transform="scale(0.015625)"/>
       <path id="DejaVuSans-2a" d="M 3009 3897 
L 1888 3291 
L 3009 2681 
L 2828 2375 
L 1778 3009 
L 1778 1831 
L 1422 1831 
L 1422 3009 
L 372 2375 
L 191 2681 
L 1313 3291 
L 191 3897 
L 372 4206 
L 1422 3572 
L 1422 4750 
L 1778 4750 
L 1778 3572 
L 2828 4206 
L 3009 3897 
z
" transform="scale(0.015625)"/>
       <path id="DejaVuSans-74" d="M 1172 4494 
L 1172 3500 
L 2356 3500 
L 2356 3053 
L 1172 3053 
L 1172 1153 
Q 1172 725 1289 603 
Q 1406 481 1766 481 
L 2356 481 
L 2356 0 
L 1766 0 
Q 1100 0 847 248 
Q 594 497 594 1153 
L 594 3053 
L 172 3053 
L 172 3500 
L 594 3500 
L 594 4494 
L 1172 4494 
z
" transform="scale(0.015625)"/>
      </defs>
      <use xlink:href="#DejaVuSans-45"/>
      <use xlink:href="#DejaVuSans-2a" x="63.183594"/>
      <use xlink:href="#DejaVuSans-74" x="113.183594"/>
     </g>
    </g>
   </g>
   <g id="line2d_14">
    <path d="M 73.832727 294.385472 
L 74.150083 292.862793 
L 74.467438 292.583768 
L 75.102149 291.811074 
L 75.73686 290.004715 
L 76.054215 287.403028 
L 76.37157 286.714312 
L 76.688926 286.489048 
L 77.006281 284.456932 
L 77.323636 283.234581 
L 77.640992 282.909656 
L 77.958347 281.477552 
L 78.275702 281.298908 
L 79.862479 277.272823 
L 80.179835 276.965473 
L 80.49719 276.390528 
L 80.814545 276.086196 
L 81.131901 274.031549 
L 81.449256 273.962004 
L 82.083967 273.491628 
L 82.401322 271.512654 
L 82.718678 270.798306 
L 83.036033 270.736054 
L 83.353388 270.503086 
L 83.670744 268.649793 
L 84.305455 267.622813 
L 84.940165 267.136532 
L 85.257521 266.42242 
L 85.574876 266.120959 
L 85.892231 265.655753 
L 86.209587 265.504474 
L 86.526942 264.109275 
L 86.844298 263.611428 
L 87.161653 262.849027 
L 87.479008 262.601665 
L 87.796364 262.165562 
L 88.74843 260.410252 
L 89.065785 260.276353 
L 89.38314 259.679348 
L 89.700496 259.510494 
L 90.017851 258.310922 
L 90.652562 257.634083 
L 90.969917 257.360408 
L 91.287273 257.30765 
L 91.604628 256.668203 
L 91.921983 256.395991 
L 92.556694 254.835601 
L 93.191405 254.687129 
L 93.50876 254.159779 
L 93.826116 254.02228 
L 94.143471 253.685792 
L 94.778182 251.841704 
L 95.095537 251.635741 
L 95.412893 251.202183 
L 96.047603 251.05379 
L 96.364959 250.666193 
L 96.682314 250.477359 
L 97.317025 249.320023 
L 97.63438 249.199841 
L 98.269091 247.989143 
L 98.586446 247.134583 
L 99.538512 246.725863 
L 99.855868 246.141935 
L 100.173223 246.102796 
L 100.490579 245.633877 
L 100.807934 245.584293 
L 101.125289 244.905165 
L 101.76 244.552221 
L 102.077355 244.297832 
L 102.394711 243.813616 
L 103.029421 243.462679 
L 103.981488 242.142147 
L 104.298843 241.673804 
L 104.933554 241.473019 
L 105.250909 241.207436 
L 105.568264 240.615172 
L 106.202975 239.854159 
L 106.837686 238.757656 
L 109.059174 238.345058 
L 109.693884 237.224025 
L 110.01124 237.118324 
L 110.328595 236.474858 
L 110.64595 236.273664 
L 110.963306 235.857889 
L 111.280661 235.721402 
L 111.915372 234.940471 
L 112.550083 234.629223 
L 113.502149 233.710455 
L 114.13686 233.382792 
L 114.77157 232.82898 
L 115.723636 232.587214 
L 116.358347 232.160705 
L 116.675702 231.191659 
L 117.310413 230.72948 
L 118.262479 230.243114 
L 118.579835 230.177277 
L 118.89719 229.684075 
L 119.849256 229.369402 
L 120.166612 228.944918 
L 120.483967 228.876596 
L 120.801322 228.49242 
L 121.436033 228.310051 
L 122.388099 227.861668 
L 122.705455 227.811196 
L 123.974876 226.161774 
L 124.292231 226.140941 
L 124.609587 225.809465 
L 124.926942 225.759402 
L 125.244298 225.486436 
L 125.561653 224.869065 
L 126.196364 224.704502 
L 126.831074 224.56023 
L 127.14843 224.325501 
L 127.465785 223.673494 
L 127.78314 223.588088 
L 128.100496 223.101337 
L 128.735207 222.753802 
L 129.687273 222.566301 
L 130.004628 222.306801 
L 130.639339 222.151586 
L 131.591405 221.414192 
L 131.90876 221.376171 
L 132.226116 221.088812 
L 132.543471 220.325911 
L 132.860826 220.108511 
L 133.178182 220.077004 
L 133.495537 219.835782 
L 134.447603 219.635082 
L 135.399669 219.440894 
L 135.717025 218.897125 
L 136.03438 218.876791 
L 136.351736 218.574083 
L 136.986446 218.547261 
L 137.303802 218.274151 
L 137.621157 218.25899 
L 138.255868 216.99564 
L 139.207934 216.782643 
L 139.525289 216.719961 
L 139.842645 216.468439 
L 140.16 216.387355 
L 140.477355 216.09644 
L 141.112066 215.966288 
L 141.429421 215.217684 
L 141.746777 215.211057 
L 142.698843 214.506878 
L 143.333554 214.343646 
L 144.602975 213.497795 
L 145.555041 213.392208 
L 145.872397 213.056043 
L 146.189752 213.052919 
L 146.824463 212.719432 
L 147.141818 212.700897 
L 148.41124 211.696951 
L 148.728595 211.650019 
L 149.04595 211.096098 
L 149.363306 210.941831 
L 149.680661 210.602566 
L 149.998017 210.523075 
L 150.315372 210.28471 
L 151.267438 210.188358 
L 151.902149 209.929746 
L 152.219504 209.701211 
L 152.53686 209.686891 
L 152.854215 209.375114 
L 153.488926 209.258867 
L 154.123636 209.091219 
L 154.440992 208.65157 
L 155.075702 208.473681 
L 155.393058 207.923172 
L 156.027769 207.837971 
L 156.662479 207.139709 
L 157.29719 206.8519 
L 158.566612 206.428815 
L 158.883967 206.060362 
L 159.201322 205.873082 
L 160.153388 205.771015 
L 160.470744 205.476618 
L 161.42281 205.328269 
L 163.644298 203.657762 
L 164.279008 203.447937 
L 165.231074 203.120774 
L 165.54843 203.044178 
L 166.18314 202.664421 
L 166.500496 202.648592 
L 166.817851 202.293316 
L 169.039339 201.920189 
L 169.356694 201.231331 
L 169.991405 200.674459 
L 170.943471 200.52679 
L 171.578182 200.368383 
L 171.895537 200.317135 
L 172.212893 199.869214 
L 173.164959 199.52242 
L 173.482314 199.051868 
L 175.069091 198.761628 
L 175.386446 198.316571 
L 176.021157 198.295542 
L 176.655868 197.477277 
L 176.973223 197.443913 
L 177.290579 197.072139 
L 179.194711 196.695401 
L 179.512066 196.458459 
L 179.829421 196.414412 
L 180.146777 196.150628 
L 181.098843 196.077257 
L 183.002975 195.20081 
L 184.272397 194.924386 
L 184.907107 194.379218 
L 185.224463 194.191661 
L 185.541818 193.719602 
L 186.176529 193.4503 
L 187.128595 192.865811 
L 187.44595 192.60207 
L 189.032727 192.310558 
L 190.302149 192.138097 
L 190.619504 192.109069 
L 190.93686 191.885847 
L 191.57157 191.740629 
L 191.888926 191.09646 
L 192.206281 191.02009 
L 193.158347 190.431972 
L 195.379835 189.95045 
L 196.014545 189.399907 
L 196.331901 189.378932 
L 197.283967 188.830859 
L 197.601322 188.79043 
L 198.236033 188.28019 
L 198.553388 188.057599 
L 198.870744 187.600757 
L 200.140165 187.308094 
L 200.457521 187.239384 
L 200.774876 186.989911 
L 201.409587 186.808806 
L 201.726942 186.799001 
L 202.044298 186.449616 
L 202.679008 186.237686 
L 202.996364 186.056716 
L 203.631074 185.970341 
L 204.58314 185.574515 
L 204.900496 185.565382 
L 205.217851 185.421863 
L 205.535207 185.057951 
L 205.852562 184.978266 
L 206.487273 184.589831 
L 207.121983 184.397988 
L 207.756694 184.314833 
L 208.07405 184.013998 
L 209.026116 183.87175 
L 209.660826 183.242415 
L 209.978182 183.212163 
L 211.564959 182.466381 
L 213.469091 181.566275 
L 214.103802 181.240845 
L 216.642645 180.561552 
L 217.277355 180.51293 
L 217.912066 179.968562 
L 218.546777 179.926426 
L 219.181488 179.710617 
L 219.816198 179.424806 
L 220.133554 179.174911 
L 221.402975 178.888545 
L 221.720331 178.498611 
L 222.037686 178.497115 
L 222.355041 177.855705 
L 222.989752 177.636132 
L 223.307107 177.300349 
L 224.259174 177.129862 
L 224.893884 176.626664 
L 226.163306 176.435168 
L 228.067438 175.787733 
L 229.97157 175.328774 
L 230.606281 175.026573 
L 230.923636 175.021082 
L 231.558347 174.631409 
L 231.875702 174.454052 
L 232.510413 174.336846 
L 232.827769 174.231511 
L 233.145124 173.823963 
L 233.779835 173.743891 
L 234.09719 172.96125 
L 234.731901 172.813043 
L 235.049256 172.513288 
L 236.318678 172.186317 
L 236.636033 171.886512 
L 236.953388 171.861927 
L 237.588099 171.384746 
L 237.905455 171.344761 
L 238.22281 171.106763 
L 239.809587 170.911525 
L 240.126942 170.565918 
L 240.761653 170.302729 
L 241.079008 170.074686 
L 243.617851 169.672728 
L 243.935207 169.457125 
L 244.569917 169.330396 
L 244.887273 168.609333 
L 245.521983 168.297809 
L 245.839339 167.90311 
L 246.791405 167.587109 
L 247.10876 167.559139 
L 247.743471 167.279242 
L 248.378182 167.148965 
L 248.695537 166.850035 
L 249.964959 166.425704 
L 250.599669 165.779794 
L 255.042645 164.439856 
L 257.264132 163.583762 
L 257.581488 163.573048 
L 258.216198 163.345422 
L 258.850909 163.155305 
L 259.168264 162.547322 
L 260.755041 162.245652 
L 261.072397 161.901715 
L 261.707107 161.596865 
L 262.024463 161.227349 
L 262.341818 161.060328 
L 263.61124 160.856036 
L 264.24595 160.598241 
L 265.832727 160.375773 
L 267.102149 160.060594 
L 267.419504 159.764983 
L 269.323636 159.118743 
L 269.640992 158.946599 
L 269.958347 158.302404 
L 270.593058 157.996288 
L 270.910413 157.837878 
L 271.227769 157.495123 
L 272.814545 157.305858 
L 273.766612 156.965369 
L 274.083967 156.412669 
L 274.401322 156.223667 
L 275.353388 156.058336 
L 275.988099 155.71241 
L 276.305455 155.658128 
L 276.62281 155.436495 
L 277.574876 155.17407 
L 277.892231 154.87097 
L 279.161653 154.642439 
L 279.479008 154.280031 
L 281.700496 153.653584 
L 282.017851 153.34339 
L 282.652562 153.226322 
L 282.969917 152.846305 
L 283.604628 152.708254 
L 284.239339 152.163565 
L 284.87405 151.969955 
L 285.191405 151.805764 
L 285.50876 151.421674 
L 285.826116 151.333225 
L 286.460826 150.803306 
L 287.730248 150.606235 
L 288.682314 150.08364 
L 288.999669 149.797394 
L 289.951736 149.663732 
L 290.586446 149.498986 
L 290.903802 149.138424 
L 291.221157 149.134853 
L 292.490579 148.597813 
L 293.125289 148.037414 
L 295.029421 147.73832 
L 295.664132 147.477901 
L 295.981488 147.328948 
L 296.616198 146.562788 
L 296.933554 146.47193 
L 297.250909 146.217244 
L 298.202975 146.084232 
L 298.837686 145.866428 
L 299.155041 145.825162 
L 300.107107 145.167397 
L 300.424463 144.747863 
L 301.059174 144.419288 
L 302.01124 144.278308 
L 302.328595 144.076083 
L 302.963306 143.944772 
L 303.280661 143.716975 
L 303.598017 143.6538 
L 304.550083 142.85207 
L 304.867438 142.812469 
L 305.184793 142.518724 
L 305.502149 142.38353 
L 306.13686 142.341346 
L 306.77157 141.859631 
L 307.406281 141.678993 
L 307.723636 141.215174 
L 308.675702 140.859258 
L 308.993058 140.580264 
L 309.945124 140.436322 
L 310.262479 139.620407 
L 310.579835 139.606035 
L 310.89719 139.324871 
L 311.531901 139.262958 
L 311.849256 138.997837 
L 313.436033 138.610382 
L 313.753388 138.374231 
L 314.705455 138.095389 
L 315.02281 137.764567 
L 315.657521 137.603181 
L 315.974876 137.388208 
L 316.292231 137.350455 
L 316.609587 136.941033 
L 317.244298 136.903813 
L 317.561653 136.576603 
L 317.879008 136.518376 
L 318.196364 136.234037 
L 320.100496 135.557977 
L 320.417851 135.551038 
L 320.735207 135.380402 
L 321.052562 134.937764 
L 322.639339 134.158985 
L 323.591405 133.885085 
L 323.90876 133.633752 
L 324.226116 133.545895 
L 324.860826 133.037129 
L 325.178182 132.995533 
L 325.495537 132.432506 
L 325.812893 132.355866 
L 326.130248 132.151063 
L 327.082314 132.072515 
L 327.717025 131.587244 
L 328.03438 131.536995 
L 328.351736 131.248304 
L 328.669091 131.164271 
L 328.986446 130.320313 
L 329.303802 130.097069 
L 329.621157 130.066542 
L 329.938512 129.798659 
L 330.255868 129.380384 
L 330.573223 129.330648 
L 332.794711 128.038627 
L 333.429421 128.01299 
L 335.016198 127.197706 
L 335.333554 126.968461 
L 335.968264 126.732529 
L 336.602975 126.277615 
L 336.920331 126.098334 
L 337.237686 125.584689 
L 337.555041 125.536965 
L 338.189752 125.088649 
L 338.507107 124.816981 
L 340.093884 124.259212 
L 340.41124 123.870578 
L 341.04595 123.811645 
L 341.363306 123.452566 
L 341.680661 123.424918 
L 341.998017 123.06122 
L 342.632727 122.81152 
L 342.950083 122.471214 
L 343.267438 121.756241 
L 343.584793 121.597555 
L 344.219504 121.521086 
L 345.17157 121.206419 
L 345.488926 120.629536 
L 345.806281 120.573209 
L 346.440992 120.088533 
L 346.758347 119.984373 
L 347.075702 119.687964 
L 347.393058 119.680611 
L 347.710413 119.531892 
L 348.027769 118.821761 
L 348.345124 118.589697 
L 348.662479 118.12223 
L 349.614545 117.771494 
L 349.931901 117.520326 
L 350.566612 117.407385 
L 351.201322 116.972441 
L 352.470744 116.703031 
L 352.788099 116.458252 
L 353.105455 115.949368 
L 353.42281 115.912275 
L 353.740165 115.677807 
L 354.057521 115.610404 
L 354.374876 115.380051 
L 354.692231 114.731789 
L 355.009587 114.688263 
L 355.644298 114.278279 
L 356.596364 113.821928 
L 357.231074 112.970215 
L 357.54843 112.451756 
L 358.500496 111.752606 
L 358.817851 111.455109 
L 359.135207 111.362514 
L 359.769917 110.715315 
L 360.087273 110.054134 
L 361.039339 109.840712 
L 361.356694 109.788743 
L 361.991405 109.327387 
L 362.30876 108.809173 
L 362.943471 108.409666 
L 363.260826 107.818981 
L 363.578182 107.752526 
L 363.895537 107.476723 
L 364.212893 106.97839 
L 364.530248 106.799998 
L 364.847603 106.75716 
L 365.164959 106.481625 
L 365.482314 106.43651 
L 366.117025 106.04794 
L 366.43438 105.677254 
L 366.751736 105.029797 
L 367.069091 104.967655 
L 367.703802 104.222053 
L 368.338512 104.10617 
L 368.655868 103.809608 
L 368.973223 103.671657 
L 369.925289 102.407873 
L 370.242645 101.570224 
L 371.194711 101.182773 
L 371.512066 100.423077 
L 372.146777 99.995359 
L 372.464132 99.278375 
L 372.781488 98.936914 
L 373.098843 98.860756 
L 373.416198 98.02645 
L 373.733554 97.839845 
L 374.050909 97.788727 
L 374.68562 97.26184 
L 375.002975 96.614452 
L 375.320331 96.331606 
L 375.955041 96.196375 
L 376.272397 95.249447 
L 376.589752 95.173252 
L 376.907107 94.298966 
L 377.224463 94.279808 
L 377.541818 93.666658 
L 378.493884 93.296969 
L 379.128595 92.457497 
L 379.44595 92.309287 
L 379.763306 91.291987 
L 380.715372 90.851171 
L 381.350083 88.916267 
L 381.984793 87.730962 
L 382.302149 87.115475 
L 382.619504 86.979807 
L 383.254215 85.493134 
L 384.523636 84.795742 
L 385.158347 83.698444 
L 385.475702 83.462931 
L 385.793058 83.372832 
L 386.110413 81.7396 
L 387.062479 81.218591 
L 387.379835 79.704699 
L 387.69719 79.510248 
L 388.014545 78.81593 
L 388.649256 78.452303 
L 388.966612 77.714479 
L 389.283967 75.979469 
L 390.236033 74.165107 
L 390.553388 73.58814 
L 391.505455 72.898122 
L 391.82281 72.348205 
L 392.140165 72.113183 
L 393.409587 68.16367 
L 393.726942 66.649353 
L 394.044298 66.205897 
L 394.361653 65.418894 
L 394.679008 63.857204 
L 394.996364 63.7762 
L 395.313719 61.793484 
L 395.631074 60.592799 
L 395.94843 60.370349 
L 396.265785 59.866043 
L 396.900496 59.551875 
L 397.535207 57.948792 
L 397.852562 56.848937 
L 398.169917 56.267403 
L 398.487273 53.568 
L 398.487273 53.568 
" clip-path="url(#pa9c0a7bfd2)" style="fill: none; stroke: #1f77b4; stroke-width: 1.5; stroke-linecap: square"/>
   </g>
   <g id="line2d_15">
    <path d="M 73.832727 295.488 
L 74.150083 294.851103 
L 74.467438 292.838615 
L 74.784793 292.502967 
L 75.102149 290.119638 
L 76.37157 284.204147 
L 76.688926 284.204146 
L 77.006281 282.841106 
L 77.323636 280.001124 
L 77.640992 278.3543 
L 77.958347 277.351765 
L 78.275702 275.686264 
L 78.593058 274.632791 
L 78.910413 274.632786 
L 79.227769 273.116813 
L 79.545124 273.063596 
L 80.49719 268.717296 
L 80.814545 268.717296 
L 81.449256 267.354255 
L 81.766612 266.932554 
L 83.036033 262.867449 
L 83.353388 262.054554 
L 83.670744 261.864915 
L 83.988099 261.476794 
L 84.305455 260.30438 
L 84.62281 260.199417 
L 84.940165 259.145938 
L 85.257521 259.145934 
L 85.574876 258.479829 
L 85.892231 258.398358 
L 86.209587 257.629962 
L 86.526942 257.576742 
L 86.844298 257.234185 
L 87.161653 256.426965 
L 87.796364 255.385474 
L 88.74843 253.230447 
L 89.065785 253.230446 
L 89.38314 252.429802 
L 90.017851 251.867405 
L 90.652562 251.445706 
L 91.287273 249.574582 
L 91.921983 249.524721 
L 92.239339 249.317068 
L 93.191405 247.537092 
L 93.50876 247.380599 
L 93.826116 246.5677 
L 94.143471 246.378066 
L 95.412893 244.928266 
L 96.364959 244.574088 
L 96.682314 243.659086 
L 96.999669 243.659083 
L 97.317025 243.196745 
L 97.951736 242.911503 
L 98.269091 242.143112 
L 98.586446 242.08989 
L 98.903802 241.747336 
L 99.221157 241.739136 
L 99.538512 241.219646 
L 100.490579 240.801929 
L 100.807934 240.488696 
L 101.125289 239.898619 
L 101.442645 239.659951 
L 102.077355 238.789615 
L 102.394711 238.66076 
L 102.712066 237.759154 
L 103.346777 237.743596 
L 103.664132 236.942948 
L 104.298843 236.380554 
L 104.933554 236.145598 
L 105.250909 235.958859 
L 105.568264 234.893781 
L 106.202975 234.632896 
L 106.520331 234.249231 
L 106.837686 234.087727 
L 107.472397 234.037875 
L 107.789752 233.83022 
L 108.107107 233.257063 
L 108.424463 233.183979 
L 108.741818 232.879979 
L 109.059174 232.800175 
L 110.01124 231.944758 
L 110.64595 231.847694 
L 110.963306 231.080847 
L 111.280661 230.891217 
L 111.598017 230.503103 
L 111.915372 230.470688 
L 112.867438 229.805971 
L 113.184793 229.688209 
L 113.819504 229.330673 
L 114.454215 229.08724 
L 114.77157 228.221393 
L 115.406281 228.172232 
L 115.723636 227.709896 
L 116.358347 227.424649 
L 116.675702 227.390731 
L 116.993058 226.656261 
L 117.310413 226.603038 
L 117.627769 226.260486 
L 117.945124 226.252286 
L 118.262479 225.732799 
L 118.89719 225.628581 
L 119.531901 225.453255 
L 120.483967 225.265819 
L 121.118678 225.001846 
L 121.436033 224.615895 
L 123.657521 223.177552 
L 123.974876 223.17391 
L 124.292231 222.272308 
L 125.244298 222.123664 
L 126.513719 221.142655 
L 126.831074 221.120888 
L 127.14843 220.919711 
L 127.78314 220.830938 
L 128.417851 220.472011 
L 128.735207 219.40693 
L 129.052562 219.258825 
L 129.687273 219.146053 
L 130.004628 218.600873 
L 130.639339 218.551028 
L 131.27405 218.205504 
L 131.591405 217.778045 
L 132.226116 217.697127 
L 132.543471 217.393131 
L 132.860826 217.313324 
L 133.178182 216.985535 
L 133.495537 216.875853 
L 133.812893 216.563391 
L 134.764959 216.360843 
L 135.082314 215.593995 
L 136.03438 215.263646 
L 136.351736 215.016258 
L 136.669091 214.983844 
L 137.303802 214.368952 
L 137.938512 214.319123 
L 138.573223 214.158704 
L 140.477355 213.843821 
L 141.112066 213.600391 
L 141.429421 212.864259 
L 142.064132 212.685383 
L 142.381488 212.685381 
L 142.698843 212.231812 
L 143.016198 212.223048 
L 143.650909 211.937796 
L 144.28562 211.807999 
L 144.602975 211.169411 
L 144.920331 211.116186 
L 145.237686 210.773637 
L 145.555041 210.765436 
L 145.872397 210.603422 
L 146.189752 210.245951 
L 146.824463 210.14173 
L 147.459174 209.966401 
L 149.04595 209.681895 
L 150.315372 208.924914 
L 150.632727 208.686257 
L 150.950083 208.614318 
L 151.267438 208.246265 
L 151.902149 208.222327 
L 152.219504 207.815912 
L 152.53686 207.690698 
L 152.854215 207.687059 
L 153.806281 206.785461 
L 155.075702 206.636813 
L 156.027769 205.996594 
L 156.345124 205.969242 
L 156.979835 205.466679 
L 157.931901 205.34409 
L 158.566612 205.064743 
L 159.201322 204.985162 
L 159.518678 204.075379 
L 160.153388 203.771974 
L 161.42281 203.659208 
L 162.057521 203.560746 
L 162.374876 203.11402 
L 163.009587 203.06418 
L 163.644298 202.745582 
L 163.961653 202.718644 
L 164.279008 202.29119 
L 164.913719 202.210277 
L 165.231074 201.948095 
L 165.865785 201.826473 
L 166.18314 201.590929 
L 166.817851 201.389001 
L 167.135207 201.143212 
L 168.404628 200.873992 
L 168.721983 200.107144 
L 169.356694 199.92565 
L 169.67405 199.917521 
L 170.626116 199.496999 
L 170.943471 198.882096 
L 171.578182 198.832274 
L 172.212893 198.671846 
L 174.117025 198.356969 
L 175.069091 198.025456 
L 175.386446 197.596279 
L 176.338512 197.247686 
L 176.973223 197.198531 
L 177.290579 196.744962 
L 177.607934 196.7362 
L 178.242645 196.450945 
L 179.194711 196.264681 
L 179.512066 196.183165 
L 179.829421 195.68256 
L 180.781488 195.556334 
L 181.098843 195.286787 
L 181.416198 195.278586 
L 181.733554 195.116565 
L 182.050909 194.759102 
L 182.368264 194.727878 
L 182.68562 194.514935 
L 184.589752 194.195051 
L 185.224463 193.89272 
L 185.859174 193.820566 
L 186.493884 193.448954 
L 187.128595 193.426888 
L 187.44595 193.199408 
L 187.763306 193.127466 
L 188.080661 192.759412 
L 188.715372 192.735479 
L 189.032727 192.32906 
L 189.350083 192.203845 
L 189.984793 191.63416 
L 190.93686 191.28305 
L 191.254215 191.283049 
L 191.888926 191.149963 
L 192.206281 191.139828 
L 192.523636 190.941346 
L 193.158347 190.889178 
L 193.475702 190.61038 
L 194.110413 190.509748 
L 194.427769 190.48239 
L 195.062479 189.946014 
L 195.69719 189.857243 
L 196.014545 189.685056 
L 196.966612 189.546427 
L 197.283967 189.498314 
L 197.601322 188.58852 
L 197.918678 188.285125 
L 199.188099 188.110834 
L 199.82281 188.033217 
L 200.457521 187.627167 
L 201.092231 187.577331 
L 201.726942 187.258737 
L 202.044298 187.231785 
L 202.361653 186.815099 
L 203.631074 186.723427 
L 203.94843 186.461242 
L 204.58314 186.339623 
L 204.900496 186.104097 
L 205.535207 186.011831 
L 206.487273 185.846494 
L 207.121983 185.433201 
L 207.439339 185.387141 
L 207.756694 185.111445 
L 208.07405 184.514003 
L 209.660826 184.042568 
L 209.978182 183.395244 
L 210.930248 183.345425 
L 211.564959 183.194761 
L 212.517025 183.141064 
L 213.151736 182.980867 
L 214.738512 182.538598 
L 215.055868 182.109432 
L 215.690579 181.975267 
L 216.007934 181.95048 
L 216.325289 181.711681 
L 216.96 181.641691 
L 217.277355 181.556738 
L 217.594711 181.258112 
L 218.229421 181.144847 
L 218.864132 180.834307 
L 219.498843 180.696306 
L 220.133554 180.19571 
L 221.402975 180.069488 
L 221.720331 179.842839 
L 222.672397 179.62971 
L 222.989752 179.272253 
L 223.307107 179.241029 
L 223.624463 179.028092 
L 225.21124 178.762928 
L 225.528595 178.660423 
L 225.84595 178.405877 
L 226.480661 178.333702 
L 228.384793 177.27256 
L 228.702149 177.248631 
L 229.019504 177.103358 
L 229.33686 177.080328 
L 229.654215 176.842208 
L 230.288926 176.716992 
L 230.923636 176.147299 
L 231.875702 175.796201 
L 232.193058 175.7962 
L 232.827769 175.663115 
L 233.462479 175.576385 
L 235.049256 175.022902 
L 235.366612 174.995539 
L 236.001322 174.459164 
L 236.636033 174.370397 
L 236.953388 174.198209 
L 237.905455 174.05958 
L 238.22281 174.011465 
L 238.540165 173.101662 
L 238.857521 172.798276 
L 240.444298 172.623983 
L 241.079008 172.54637 
L 241.713719 172.140314 
L 242.34843 172.049102 
L 243.300496 171.32824 
L 244.252562 171.236577 
L 244.569917 170.97439 
L 245.204628 170.852773 
L 245.521983 170.617262 
L 246.156694 170.52498 
L 247.10876 170.359637 
L 247.426116 170.102837 
L 249.012893 169.624594 
L 249.964959 169.027152 
L 250.917025 168.803112 
L 251.23438 168.581345 
L 251.551736 168.555724 
L 251.869091 168.083135 
L 252.186446 167.899982 
L 253.138512 167.858574 
L 253.773223 167.707917 
L 255.677355 167.38327 
L 256.312066 166.622585 
L 257.581488 166.463634 
L 257.898843 166.224831 
L 258.850909 166.154831 
L 259.168264 165.771263 
L 259.802975 165.657987 
L 260.437686 165.290967 
L 260.755041 165.209449 
L 261.389752 164.681987 
L 262.024463 164.582641 
L 262.976529 164.33428 
L 263.61124 164.304888 
L 263.928595 164.142856 
L 264.24595 163.754179 
L 264.563306 163.541247 
L 265.198017 163.467685 
L 265.515372 163.306509 
L 266.467438 163.173577 
L 267.102149 162.919033 
L 267.73686 162.84684 
L 268.37157 162.453202 
L 268.688926 162.153764 
L 269.640992 161.785709 
L 269.958347 161.616515 
L 270.275702 161.593476 
L 270.910413 161.23014 
L 271.227769 160.52597 
L 275.353388 159.432146 
L 275.988099 158.972313 
L 276.305455 158.957803 
L 276.62281 158.711363 
L 277.892231 158.572732 
L 278.209587 158.444639 
L 278.526942 158.4411 
L 278.844298 158.108658 
L 279.479008 157.294881 
L 280.113719 157.202015 
L 280.74843 157.137133 
L 281.700496 156.856456 
L 282.017851 156.653462 
L 282.335207 156.653462 
L 282.652562 156.429163 
L 282.969917 155.885135 
L 284.239339 155.749728 
L 284.87405 155.365923 
L 288.682314 154.137743 
L 289.63438 153.613888 
L 290.903802 153.316266 
L 291.538512 152.41313 
L 291.855868 152.395012 
L 292.490579 152.221072 
L 294.077355 151.921159 
L 294.712066 151.100048 
L 296.616198 150.667973 
L 297.250909 150.284415 
L 297.88562 150.171131 
L 298.520331 149.804111 
L 298.837686 149.722592 
L 299.472397 149.195141 
L 299.789752 149.187271 
L 300.424463 148.870738 
L 301.059174 148.818039 
L 301.376529 148.656003 
L 301.693884 148.639581 
L 302.328595 148.26733 
L 302.963306 147.819656 
L 303.915372 147.68673 
L 304.550083 147.432189 
L 305.184793 147.350623 
L 305.502149 146.954936 
L 305.819504 146.742051 
L 306.77157 146.46506 
L 307.088926 146.315553 
L 307.406281 146.298858 
L 307.723636 146.129671 
L 308.040992 146.106625 
L 308.993058 145.743289 
L 309.310413 145.264921 
L 309.627769 145.039115 
L 309.945124 144.953029 
L 310.262479 144.711291 
L 310.89719 144.602692 
L 311.214545 144.265549 
L 312.483967 143.945292 
L 313.118678 143.504325 
L 313.753388 143.454959 
L 314.388099 143.103136 
L 314.705455 143.085884 
L 315.02281 142.954256 
L 315.340165 142.621799 
L 315.974876 141.7238 
L 317.244298 141.59261 
L 317.879008 141.166611 
L 318.513719 141.106407 
L 318.831074 140.398276 
L 320.100496 140.248314 
L 320.735207 139.879073 
L 321.052562 139.783182 
L 321.369917 139.501703 
L 322.004628 139.427648 
L 322.321983 139.055072 
L 322.956694 138.926586 
L 323.591405 138.842968 
L 323.90876 138.650891 
L 324.543471 138.443737 
L 324.860826 138.351796 
L 325.495537 137.978219 
L 325.812893 137.955905 
L 326.130248 137.437414 
L 326.447603 137.38952 
L 326.764959 136.926278 
L 327.082314 136.908165 
L 328.03438 136.548473 
L 328.351736 136.514726 
L 328.669091 136.048789 
L 329.621157 135.545318 
L 330.890579 135.430653 
L 331.207934 135.242335 
L 331.842645 134.46963 
L 332.16 134.456321 
L 332.794711 134.235736 
L 333.112066 133.708296 
L 333.746777 133.634069 
L 334.698843 133.360582 
L 335.016198 133.349209 
L 337.237686 132.017371 
L 337.555041 131.945343 
L 337.872397 131.255213 
L 338.824463 130.978209 
L 339.776529 130.459157 
L 340.093884 130.256438 
L 340.41124 129.653852 
L 341.04595 129.466174 
L 341.363306 129.224439 
L 341.680661 129.192406 
L 341.998017 128.778706 
L 342.632727 128.699911 
L 342.950083 128.458439 
L 343.267438 128.450018 
L 343.584793 128.221565 
L 343.902149 128.198759 
L 344.219504 128.017469 
L 344.854215 127.968115 
L 345.488926 127.616286 
L 346.123636 127.46741 
L 346.440992 127.134943 
L 346.758347 126.236944 
L 347.393058 126.227087 
L 348.027769 125.679759 
L 348.345124 125.619544 
L 348.662479 124.867668 
L 348.979835 124.761449 
L 349.931901 124.01485 
L 350.883967 123.940781 
L 351.201322 123.418004 
L 351.518678 123.19194 
L 352.153388 123.10822 
L 352.470744 122.897291 
L 352.788099 122.864946 
L 353.42281 122.46906 
L 353.740165 121.950567 
L 354.057521 121.902656 
L 354.374876 121.439425 
L 354.692231 121.421317 
L 355.326942 121.061621 
L 355.644298 120.56193 
L 356.279008 120.355332 
L 356.596364 120.126337 
L 357.865785 119.774607 
L 358.500496 118.969449 
L 358.817851 118.8304 
L 359.135207 118.221451 
L 359.452562 117.873735 
L 359.769917 117.862377 
L 360.404628 117.527572 
L 360.721983 116.694692 
L 361.039339 116.547378 
L 361.356694 116.53052 
L 361.67405 115.768374 
L 364.212893 114.556741 
L 364.847603 113.737588 
L 365.482314 113.291864 
L 365.799669 113.268176 
L 366.43438 112.711918 
L 366.751736 112.530614 
L 367.386446 112.481268 
L 368.021157 112.063107 
L 368.338512 111.167364 
L 368.655868 110.750089 
L 368.973223 110.741466 
L 369.607934 109.380811 
L 369.925289 109.274586 
L 370.56 108.809481 
L 370.877355 108.739985 
L 371.194711 108.505676 
L 371.512066 107.931154 
L 372.146777 107.410454 
L 372.464132 107.378097 
L 372.781488 107.153331 
L 373.416198 105.952572 
L 373.733554 105.543826 
L 374.050909 104.868473 
L 374.368264 104.639482 
L 375.637686 104.287738 
L 375.955041 103.482578 
L 376.272397 103.343546 
L 377.224463 102.386888 
L 377.541818 102.375542 
L 377.859174 102.179009 
L 378.176529 101.207831 
L 378.493884 101.060528 
L 378.81124 101.043668 
L 379.128595 100.018871 
L 379.44595 100.00451 
L 379.763306 99.069905 
L 380.715372 97.781308 
L 381.350083 97.225075 
L 381.667438 97.04376 
L 381.984793 97.010384 
L 382.619504 96.576249 
L 382.93686 95.680517 
L 383.254215 95.148602 
L 383.57157 93.893955 
L 383.888926 93.876384 
L 384.206281 93.32263 
L 384.523636 93.018817 
L 385.158347 91.923615 
L 385.475702 91.87198 
L 385.793058 91.666481 
L 386.427769 90.92893 
L 387.062479 89.414861 
L 387.379835 89.084755 
L 388.014545 88.800872 
L 388.331901 87.215001 
L 388.649256 86.692153 
L 388.966612 85.720972 
L 389.283967 85.573677 
L 389.601322 84.532014 
L 389.918678 84.517662 
L 390.870744 81.556908 
L 391.188099 81.523532 
L 391.505455 80.378466 
L 391.82281 80.209802 
L 392.140165 80.19367 
L 392.457521 77.826454 
L 392.774876 77.531958 
L 393.092231 76.385129 
L 394.044298 74.570105 
L 394.361653 73.483239 
L 394.996364 70.234113 
L 395.313719 69.04516 
L 395.631074 68.775635 
L 395.94843 67.707989 
L 396.265785 67.071076 
L 396.900496 62.339601 
L 397.217851 62.0451 
L 397.535207 60.898277 
L 397.852562 60.823625 
L 398.169917 60.352293 
L 398.487273 56.424107 
L 398.487273 56.424107 
" clip-path="url(#pa9c0a7bfd2)" style="fill: none; stroke: #ff7f0e; stroke-width: 1.5; stroke-linecap: square"/>
   </g>
   <g id="patch_3">
    <path d="M 57.6 307.584 
L 57.6 41.472 
" style="fill: none; stroke: #000000; stroke-width: 0.8; stroke-linejoin: miter; stroke-linecap: square"/>
   </g>
   <g id="patch_4">
    <path d="M 414.72 307.584 
L 414.72 41.472 
" style="fill: none; stroke: #000000; stroke-width: 0.8; stroke-linejoin: miter; stroke-linecap: square"/>
   </g>
   <g id="patch_5">
    <path d="M 57.6 307.584 
L 414.72 307.584 
" style="fill: none; stroke: #000000; stroke-width: 0.8; stroke-linejoin: miter; stroke-linecap: square"/>
   </g>
   <g id="patch_6">
    <path d="M 57.6 41.472 
L 414.72 41.472 
" style="fill: none; stroke: #000000; stroke-width: 0.8; stroke-linejoin: miter; stroke-linecap: square"/>
   </g>
   <g id="legend_1">
    <g id="patch_7">
     <path d="M 64.6 78.82825 
L 129.342187 78.82825 
Q 131.342187 78.82825 131.342187 76.82825 
L 131.342187 48.472 
Q 131.342187 46.472 129.342187 46.472 
L 64.6 46.472 
Q 62.6 46.472 62.6 48.472 
L 62.6 76.82825 
Q 62.6 78.82825 64.6 78.82825 
z
" style="fill: #ffffff; opacity: 0.8; stroke: #cccccc; stroke-linejoin: miter"/>
    </g>
    <g id="line2d_16">
     <path d="M 66.6 54.570437 
L 76.6 54.570437 
L 86.6 54.570437 
" style="fill: none; stroke: #1f77b4; stroke-width: 1.5; stroke-linecap: square"/>
    </g>
    <g id="text_16">
     <!-- qc -->
     <g transform="translate(94.6 58.070437) scale(0.1 -0.1)">
      <defs>
       <path id="DejaVuSans-71" d="M 947 1747 
Q 947 1113 1208 752 
Q 1469 391 1925 391 
Q 2381 391 2643 752 
Q 2906 1113 2906 1747 
Q 2906 2381 2643 2742 
Q 2381 3103 1925 3103 
Q 1469 3103 1208 2742 
Q 947 2381 947 1747 
z
M 2906 525 
Q 2725 213 2448 61 
Q 2172 -91 1784 -91 
Q 1150 -91 751 415 
Q 353 922 353 1747 
Q 353 2572 751 3078 
Q 1150 3584 1784 3584 
Q 2172 3584 2448 3432 
Q 2725 3281 2906 2969 
L 2906 3500 
L 3481 3500 
L 3481 -1331 
L 2906 -1331 
L 2906 525 
z
" transform="scale(0.015625)"/>
       <path id="DejaVuSans-63" d="M 3122 3366 
L 3122 2828 
Q 2878 2963 2633 3030 
Q 2388 3097 2138 3097 
Q 1578 3097 1268 2742 
Q 959 2388 959 1747 
Q 959 1106 1268 751 
Q 1578 397 2138 397 
Q 2388 397 2633 464 
Q 2878 531 3122 666 
L 3122 134 
Q 2881 22 2623 -34 
Q 2366 -91 2075 -91 
Q 1284 -91 818 406 
Q 353 903 353 1747 
Q 353 2603 823 3093 
Q 1294 3584 2113 3584 
Q 2378 3584 2631 3529 
Q 2884 3475 3122 3366 
z
" transform="scale(0.015625)"/>
      </defs>
      <use xlink:href="#DejaVuSans-71"/>
      <use xlink:href="#DejaVuSans-63" x="63.476562"/>
     </g>
    </g>
    <g id="line2d_17">
     <path d="M 66.6 69.248562 
L 76.6 69.248562 
L 86.6 69.248562 
" style="fill: none; stroke: #ff7f0e; stroke-width: 1.5; stroke-linecap: square"/>
    </g>
    <g id="text_17">
     <!-- Trotter -->
     <g transform="translate(94.6 72.748562) scale(0.1 -0.1)">
      <defs>
       <path id="DejaVuSans-54" d="M -19 4666 
L 3928 4666 
L 3928 4134 
L 2272 4134 
L 2272 0 
L 1638 0 
L 1638 4134 
L -19 4134 
L -19 4666 
z
" transform="scale(0.015625)"/>
       <path id="DejaVuSans-72" d="M 2631 2963 
Q 2534 3019 2420 3045 
Q 2306 3072 2169 3072 
Q 1681 3072 1420 2755 
Q 1159 2438 1159 1844 
L 1159 0 
L 581 0 
L 581 3500 
L 1159 3500 
L 1159 2956 
Q 1341 3275 1631 3429 
Q 1922 3584 2338 3584 
Q 2397 3584 2469 3576 
Q 2541 3569 2628 3553 
L 2631 2963 
z
" transform="scale(0.015625)"/>
       <path id="DejaVuSans-6f" d="M 1959 3097 
Q 1497 3097 1228 2736 
Q 959 2375 959 1747 
Q 959 1119 1226 758 
Q 1494 397 1959 397 
Q 2419 397 2687 759 
Q 2956 1122 2956 1747 
Q 2956 2369 2687 2733 
Q 2419 3097 1959 3097 
z
M 1959 3584 
Q 2709 3584 3137 3096 
Q 3566 2609 3566 1747 
Q 3566 888 3137 398 
Q 2709 -91 1959 -91 
Q 1206 -91 779 398 
Q 353 888 353 1747 
Q 353 2609 779 3096 
Q 1206 3584 1959 3584 
z
" transform="scale(0.015625)"/>
       <path id="DejaVuSans-65" d="M 3597 1894 
L 3597 1613 
L 953 1613 
Q 991 1019 1311 708 
Q 1631 397 2203 397 
Q 2534 397 2845 478 
Q 3156 559 3463 722 
L 3463 178 
Q 3153 47 2828 -22 
Q 2503 -91 2169 -91 
Q 1331 -91 842 396 
Q 353 884 353 1716 
Q 353 2575 817 3079 
Q 1281 3584 2069 3584 
Q 2775 3584 3186 3129 
Q 3597 2675 3597 1894 
z
M 3022 2063 
Q 3016 2534 2758 2815 
Q 2500 3097 2075 3097 
Q 1594 3097 1305 2825 
Q 1016 2553 972 2059 
L 3022 2063 
z
" transform="scale(0.015625)"/>
      </defs>
      <use xlink:href="#DejaVuSans-54"/>
      <use xlink:href="#DejaVuSans-72" x="46.333984"/>
      <use xlink:href="#DejaVuSans-6f" x="85.197266"/>
      <use xlink:href="#DejaVuSans-74" x="146.378906"/>
      <use xlink:href="#DejaVuSans-74" x="185.587891"/>
      <use xlink:href="#DejaVuSans-65" x="224.796875"/>
      <use xlink:href="#DejaVuSans-72" x="286.320312"/>
     </g>
    </g>
   </g>
  </g>
 </g>
 <defs>
  <clipPath id="pa9c0a7bfd2">
   <rect x="57.6" y="41.472" width="357.12" height="266.112"/>
  </clipPath>
 </defs>
</svg>
