<?xml version="1.0" encoding="utf-8" standalone="no"?>
<!DOCTYPE svg PUBLIC "-//W3C//DTD SVG 1.1//EN"
  "http://www.w3.org/Graphics/SVG/1.1/DTD/svg11.dtd">
<svg xmlns:xlink="http://www.w3.org/1999/xlink" width="460.8pt" height="345.6pt" viewBox="0 0 460.8 345.6" xmlns="http://www.w3.org/2000/svg" version="1.1">
 <metadata>
  <rdf:RDF xmlns:dc="http://purl.org/dc/elements/1.1/" xmlns:cc="http://creativecommons.org/ns#" xmlns:rdf="http://www.w3.org/1999/02/22-rdf-syntax-ns#">
   <cc:Work>
    <dc:type rdf:resource="http://purl.org/dc/dcmitype/StillImage"/>
    <dc:date>2024-05-17T13:52:27.028214</dc:date>
    <dc:format>image/svg+xml</dc:format>
    <dc:creator>
     <cc:Agent>
      <dc:title>Matplotlib v3.7.1, https://matplotlib.org/</dc:title>
     </cc:Agent>
    </dc:creator>
   </cc:Work>
  </rdf:RDF>
 </metadata>
 <defs>
  <style type="text/css">*{stroke-linejoin: round; stroke-linecap: butt}</style>
 </defs>
 <g id="figure_1">
  <g id="patch_1">
   <path d="M 0 345.6 
L 460.8 345.6 
L 460.8 0 
L 0 0 
z
" style="fill: #ffffff"/>
  </g>
  <g id="axes_1">
   <g id="patch_2">
    <path d="M 57.6 307.584 
L 414.72 307.584 
L 414.72 41.472 
L 57.6 41.472 
z
" style="fill: #ffffff"/>
   </g>
   <g id="matplotlib.axis_1">
    <g id="xtick_1">
     <g id="line2d_1">
      <defs>
       <path id="mf60292697a" d="M 0 0 
L 0 3.5 
" style="stroke: #000000; stroke-width: 0.8"/>
      </defs>
      <g>
       <use xlink:href="#mf60292697a" x="73.832727" y="307.584" style="stroke: #000000; stroke-width: 0.8"/>
      </g>
     </g>
     <g id="text_1">
      <!-- 0 -->
      <g transform="translate(70.651477 322.182437) scale(0.1 -0.1)">
       <defs>
        <path id="DejaVuSans-30" d="M 2034 4250 
Q 1547 4250 1301 3770 
Q 1056 3291 1056 2328 
Q 1056 1369 1301 889 
Q 1547 409 2034 409 
Q 2525 409 2770 889 
Q 3016 1369 3016 2328 
Q 3016 3291 2770 3770 
Q 2525 4250 2034 4250 
z
M 2034 4750 
Q 2819 4750 3233 4129 
Q 3647 3509 3647 2328 
Q 3647 1150 3233 529 
Q 2819 -91 2034 -91 
Q 1250 -91 836 529 
Q 422 1150 422 2328 
Q 422 3509 836 4129 
Q 1250 4750 2034 4750 
z
" transform="scale(0.015625)"/>
       </defs>
       <use xlink:href="#DejaVuSans-30"/>
      </g>
     </g>
    </g>
    <g id="xtick_2">
     <g id="line2d_2">
      <g>
       <use xlink:href="#mf60292697a" x="114.618474" y="307.584" style="stroke: #000000; stroke-width: 0.8"/>
      </g>
     </g>
     <g id="text_2">
      <!-- 25 -->
      <g transform="translate(108.255974 322.182437) scale(0.1 -0.1)">
       <defs>
        <path id="DejaVuSans-32" d="M 1228 531 
L 3431 531 
L 3431 0 
L 469 0 
L 469 531 
Q 828 903 1448 1529 
Q 2069 2156 2228 2338 
Q 2531 2678 2651 2914 
Q 2772 3150 2772 3378 
Q 2772 3750 2511 3984 
Q 2250 4219 1831 4219 
Q 1534 4219 1204 4116 
Q 875 4013 500 3803 
L 500 4441 
Q 881 4594 1212 4672 
Q 1544 4750 1819 4750 
Q 2544 4750 2975 4387 
Q 3406 4025 3406 3419 
Q 3406 3131 3298 2873 
Q 3191 2616 2906 2266 
Q 2828 2175 2409 1742 
Q 1991 1309 1228 531 
z
" transform="scale(0.015625)"/>
        <path id="DejaVuSans-35" d="M 691 4666 
L 3169 4666 
L 3169 4134 
L 1269 4134 
L 1269 2991 
Q 1406 3038 1543 3061 
Q 1681 3084 1819 3084 
Q 2600 3084 3056 2656 
Q 3513 2228 3513 1497 
Q 3513 744 3044 326 
Q 2575 -91 1722 -91 
Q 1428 -91 1123 -41 
Q 819 9 494 109 
L 494 744 
Q 775 591 1075 516 
Q 1375 441 1709 441 
Q 2250 441 2565 725 
Q 2881 1009 2881 1497 
Q 2881 1984 2565 2268 
Q 2250 2553 1709 2553 
Q 1456 2553 1204 2497 
Q 953 2441 691 2322 
L 691 4666 
z
" transform="scale(0.015625)"/>
       </defs>
       <use xlink:href="#DejaVuSans-32"/>
       <use xlink:href="#DejaVuSans-35" x="63.623047"/>
      </g>
     </g>
    </g>
    <g id="xtick_3">
     <g id="line2d_3">
      <g>
       <use xlink:href="#mf60292697a" x="155.404221" y="307.584" style="stroke: #000000; stroke-width: 0.8"/>
      </g>
     </g>
     <g id="text_3">
      <!-- 50 -->
      <g transform="translate(149.041721 322.182437) scale(0.1 -0.1)">
       <use xlink:href="#DejaVuSans-35"/>
       <use xlink:href="#DejaVuSans-30" x="63.623047"/>
      </g>
     </g>
    </g>
    <g id="xtick_4">
     <g id="line2d_4">
      <g>
       <use xlink:href="#mf60292697a" x="196.189968" y="307.584" style="stroke: #000000; stroke-width: 0.8"/>
      </g>
     </g>
     <g id="text_4">
      <!-- 75 -->
      <g transform="translate(189.827468 322.182437) scale(0.1 -0.1)">
       <defs>
        <path id="DejaVuSans-37" d="M 525 4666 
L 3525 4666 
L 3525 4397 
L 1831 0 
L 1172 0 
L 2766 4134 
L 525 4134 
L 525 4666 
z
" transform="scale(0.015625)"/>
       </defs>
       <use xlink:href="#DejaVuSans-37"/>
       <use xlink:href="#DejaVuSans-35" x="63.623047"/>
      </g>
     </g>
    </g>
    <g id="xtick_5">
     <g id="line2d_5">
      <g>
       <use xlink:href="#mf60292697a" x="236.975715" y="307.584" style="stroke: #000000; stroke-width: 0.8"/>
      </g>
     </g>
     <g id="text_5">
      <!-- 100 -->
      <g transform="translate(227.431965 322.182437) scale(0.1 -0.1)">
       <defs>
        <path id="DejaVuSans-31" d="M 794 531 
L 1825 531 
L 1825 4091 
L 703 3866 
L 703 4441 
L 1819 4666 
L 2450 4666 
L 2450 531 
L 3481 531 
L 3481 0 
L 794 0 
L 794 531 
z
" transform="scale(0.015625)"/>
       </defs>
       <use xlink:href="#DejaVuSans-31"/>
       <use xlink:href="#DejaVuSans-30" x="63.623047"/>
       <use xlink:href="#DejaVuSans-30" x="127.246094"/>
      </g>
     </g>
    </g>
    <g id="xtick_6">
     <g id="line2d_6">
      <g>
       <use xlink:href="#mf60292697a" x="277.761462" y="307.584" style="stroke: #000000; stroke-width: 0.8"/>
      </g>
     </g>
     <g id="text_6">
      <!-- 125 -->
      <g transform="translate(268.217712 322.182437) scale(0.1 -0.1)">
       <use xlink:href="#DejaVuSans-31"/>
       <use xlink:href="#DejaVuSans-32" x="63.623047"/>
       <use xlink:href="#DejaVuSans-35" x="127.246094"/>
      </g>
     </g>
    </g>
    <g id="xtick_7">
     <g id="line2d_7">
      <g>
       <use xlink:href="#mf60292697a" x="318.547209" y="307.584" style="stroke: #000000; stroke-width: 0.8"/>
      </g>
     </g>
     <g id="text_7">
      <!-- 150 -->
      <g transform="translate(309.003459 322.182437) scale(0.1 -0.1)">
       <use xlink:href="#DejaVuSans-31"/>
       <use xlink:href="#DejaVuSans-35" x="63.623047"/>
       <use xlink:href="#DejaVuSans-30" x="127.246094"/>
      </g>
     </g>
    </g>
    <g id="xtick_8">
     <g id="line2d_8">
      <g>
       <use xlink:href="#mf60292697a" x="359.332956" y="307.584" style="stroke: #000000; stroke-width: 0.8"/>
      </g>
     </g>
     <g id="text_8">
      <!-- 175 -->
      <g transform="translate(349.789206 322.182437) scale(0.1 -0.1)">
       <use xlink:href="#DejaVuSans-31"/>
       <use xlink:href="#DejaVuSans-37" x="63.623047"/>
       <use xlink:href="#DejaVuSans-35" x="127.246094"/>
      </g>
     </g>
    </g>
    <g id="xtick_9">
     <g id="line2d_9">
      <g>
       <use xlink:href="#mf60292697a" x="400.118703" y="307.584" style="stroke: #000000; stroke-width: 0.8"/>
      </g>
     </g>
     <g id="text_9">
      <!-- 200 -->
      <g transform="translate(390.574953 322.182437) scale(0.1 -0.1)">
       <use xlink:href="#DejaVuSans-32"/>
       <use xlink:href="#DejaVuSans-30" x="63.623047"/>
       <use xlink:href="#DejaVuSans-30" x="127.246094"/>
      </g>
     </g>
    </g>
    <g id="text_10">
     <!-- epochs -->
     <g transform="translate(218.327188 335.860562) scale(0.1 -0.1)">
      <defs>
       <path id="DejaVuSans-65" d="M 3597 1894 
L 3597 1613 
L 953 1613 
Q 991 1019 1311 708 
Q 1631 397 2203 397 
Q 2534 397 2845 478 
Q 3156 559 3463 722 
L 3463 178 
Q 3153 47 2828 -22 
Q 2503 -91 2169 -91 
Q 1331 -91 842 396 
Q 353 884 353 1716 
Q 353 2575 817 3079 
Q 1281 3584 2069 3584 
Q 2775 3584 3186 3129 
Q 3597 2675 3597 1894 
z
M 3022 2063 
Q 3016 2534 2758 2815 
Q 2500 3097 2075 3097 
Q 1594 3097 1305 2825 
Q 1016 2553 972 2059 
L 3022 2063 
z
" transform="scale(0.015625)"/>
       <path id="DejaVuSans-70" d="M 1159 525 
L 1159 -1331 
L 581 -1331 
L 581 3500 
L 1159 3500 
L 1159 2969 
Q 1341 3281 1617 3432 
Q 1894 3584 2278 3584 
Q 2916 3584 3314 3078 
Q 3713 2572 3713 1747 
Q 3713 922 3314 415 
Q 2916 -91 2278 -91 
Q 1894 -91 1617 61 
Q 1341 213 1159 525 
z
M 3116 1747 
Q 3116 2381 2855 2742 
Q 2594 3103 2138 3103 
Q 1681 3103 1420 2742 
Q 1159 2381 1159 1747 
Q 1159 1113 1420 752 
Q 1681 391 2138 391 
Q 2594 391 2855 752 
Q 3116 1113 3116 1747 
z
" transform="scale(0.015625)"/>
       <path id="DejaVuSans-6f" d="M 1959 3097 
Q 1497 3097 1228 2736 
Q 959 2375 959 1747 
Q 959 1119 1226 758 
Q 1494 397 1959 397 
Q 2419 397 2687 759 
Q 2956 1122 2956 1747 
Q 2956 2369 2687 2733 
Q 2419 3097 1959 3097 
z
M 1959 3584 
Q 2709 3584 3137 3096 
Q 3566 2609 3566 1747 
Q 3566 888 3137 398 
Q 2709 -91 1959 -91 
Q 1206 -91 779 398 
Q 353 888 353 1747 
Q 353 2609 779 3096 
Q 1206 3584 1959 3584 
z
" transform="scale(0.015625)"/>
       <path id="DejaVuSans-63" d="M 3122 3366 
L 3122 2828 
Q 2878 2963 2633 3030 
Q 2388 3097 2138 3097 
Q 1578 3097 1268 2742 
Q 959 2388 959 1747 
Q 959 1106 1268 751 
Q 1578 397 2138 397 
Q 2388 397 2633 464 
Q 2878 531 3122 666 
L 3122 134 
Q 2881 22 2623 -34 
Q 2366 -91 2075 -91 
Q 1284 -91 818 406 
Q 353 903 353 1747 
Q 353 2603 823 3093 
Q 1294 3584 2113 3584 
Q 2378 3584 2631 3529 
Q 2884 3475 3122 3366 
z
" transform="scale(0.015625)"/>
       <path id="DejaVuSans-68" d="M 3513 2113 
L 3513 0 
L 2938 0 
L 2938 2094 
Q 2938 2591 2744 2837 
Q 2550 3084 2163 3084 
Q 1697 3084 1428 2787 
Q 1159 2491 1159 1978 
L 1159 0 
L 581 0 
L 581 4863 
L 1159 4863 
L 1159 2956 
Q 1366 3272 1645 3428 
Q 1925 3584 2291 3584 
Q 2894 3584 3203 3211 
Q 3513 2838 3513 2113 
z
" transform="scale(0.015625)"/>
       <path id="DejaVuSans-73" d="M 2834 3397 
L 2834 2853 
Q 2591 2978 2328 3040 
Q 2066 3103 1784 3103 
Q 1356 3103 1142 2972 
Q 928 2841 928 2578 
Q 928 2378 1081 2264 
Q 1234 2150 1697 2047 
L 1894 2003 
Q 2506 1872 2764 1633 
Q 3022 1394 3022 966 
Q 3022 478 2636 193 
Q 2250 -91 1575 -91 
Q 1294 -91 989 -36 
Q 684 19 347 128 
L 347 722 
Q 666 556 975 473 
Q 1284 391 1588 391 
Q 1994 391 2212 530 
Q 2431 669 2431 922 
Q 2431 1156 2273 1281 
Q 2116 1406 1581 1522 
L 1381 1569 
Q 847 1681 609 1914 
Q 372 2147 372 2553 
Q 372 3047 722 3315 
Q 1072 3584 1716 3584 
Q 2034 3584 2315 3537 
Q 2597 3491 2834 3397 
z
" transform="scale(0.015625)"/>
      </defs>
      <use xlink:href="#DejaVuSans-65"/>
      <use xlink:href="#DejaVuSans-70" x="61.523438"/>
      <use xlink:href="#DejaVuSans-6f" x="125"/>
      <use xlink:href="#DejaVuSans-63" x="186.181641"/>
      <use xlink:href="#DejaVuSans-68" x="241.162109"/>
      <use xlink:href="#DejaVuSans-73" x="304.541016"/>
     </g>
    </g>
   </g>
   <g id="matplotlib.axis_2">
    <g id="ytick_1">
     <g id="line2d_10">
      <defs>
       <path id="mc39801dbc0" d="M 0 0 
L -3.5 0 
" style="stroke: #000000; stroke-width: 0.8"/>
      </defs>
      <g>
       <use xlink:href="#mc39801dbc0" x="57.6" y="301.360253" style="stroke: #000000; stroke-width: 0.8"/>
      </g>
     </g>
     <g id="text_11">
      <!-- 0.00 -->
      <g transform="translate(28.334375 305.159471) scale(0.1 -0.1)">
       <defs>
        <path id="DejaVuSans-2e" d="M 684 794 
L 1344 794 
L 1344 0 
L 684 0 
L 684 794 
z
" transform="scale(0.015625)"/>
       </defs>
       <use xlink:href="#DejaVuSans-30"/>
       <use xlink:href="#DejaVuSans-2e" x="63.623047"/>
       <use xlink:href="#DejaVuSans-30" x="95.410156"/>
       <use xlink:href="#DejaVuSans-30" x="159.033203"/>
      </g>
     </g>
    </g>
    <g id="ytick_2">
     <g id="line2d_11">
      <g>
       <use xlink:href="#mc39801dbc0" x="57.6" y="255.115366" style="stroke: #000000; stroke-width: 0.8"/>
      </g>
     </g>
     <g id="text_12">
      <!-- 0.02 -->
      <g transform="translate(28.334375 258.914585) scale(0.1 -0.1)">
       <use xlink:href="#DejaVuSans-30"/>
       <use xlink:href="#DejaVuSans-2e" x="63.623047"/>
       <use xlink:href="#DejaVuSans-30" x="95.410156"/>
       <use xlink:href="#DejaVuSans-32" x="159.033203"/>
      </g>
     </g>
    </g>
    <g id="ytick_3">
     <g id="line2d_12">
      <g>
       <use xlink:href="#mc39801dbc0" x="57.6" y="208.870479" style="stroke: #000000; stroke-width: 0.8"/>
      </g>
     </g>
     <g id="text_13">
      <!-- 0.04 -->
      <g transform="translate(28.334375 212.669698) scale(0.1 -0.1)">
       <defs>
        <path id="DejaVuSans-34" d="M 2419 4116 
L 825 1625 
L 2419 1625 
L 2419 4116 
z
M 2253 4666 
L 3047 4666 
L 3047 1625 
L 3713 1625 
L 3713 1100 
L 3047 1100 
L 3047 0 
L 2419 0 
L 2419 1100 
L 313 1100 
L 313 1709 
L 2253 4666 
z
" transform="scale(0.015625)"/>
       </defs>
       <use xlink:href="#DejaVuSans-30"/>
       <use xlink:href="#DejaVuSans-2e" x="63.623047"/>
       <use xlink:href="#DejaVuSans-30" x="95.410156"/>
       <use xlink:href="#DejaVuSans-34" x="159.033203"/>
      </g>
     </g>
    </g>
    <g id="ytick_4">
     <g id="line2d_13">
      <g>
       <use xlink:href="#mc39801dbc0" x="57.6" y="162.625593" style="stroke: #000000; stroke-width: 0.8"/>
      </g>
     </g>
     <g id="text_14">
      <!-- 0.06 -->
      <g transform="translate(28.334375 166.424812) scale(0.1 -0.1)">
       <defs>
        <path id="DejaVuSans-36" d="M 2113 2584 
Q 1688 2584 1439 2293 
Q 1191 2003 1191 1497 
Q 1191 994 1439 701 
Q 1688 409 2113 409 
Q 2538 409 2786 701 
Q 3034 994 3034 1497 
Q 3034 2003 2786 2293 
Q 2538 2584 2113 2584 
z
M 3366 4563 
L 3366 3988 
Q 3128 4100 2886 4159 
Q 2644 4219 2406 4219 
Q 1781 4219 1451 3797 
Q 1122 3375 1075 2522 
Q 1259 2794 1537 2939 
Q 1816 3084 2150 3084 
Q 2853 3084 3261 2657 
Q 3669 2231 3669 1497 
Q 3669 778 3244 343 
Q 2819 -91 2113 -91 
Q 1303 -91 875 529 
Q 447 1150 447 2328 
Q 447 3434 972 4092 
Q 1497 4750 2381 4750 
Q 2619 4750 2861 4703 
Q 3103 4656 3366 4563 
z
" transform="scale(0.015625)"/>
       </defs>
       <use xlink:href="#DejaVuSans-30"/>
       <use xlink:href="#DejaVuSans-2e" x="63.623047"/>
       <use xlink:href="#DejaVuSans-30" x="95.410156"/>
       <use xlink:href="#DejaVuSans-36" x="159.033203"/>
      </g>
     </g>
    </g>
    <g id="ytick_5">
     <g id="line2d_14">
      <g>
       <use xlink:href="#mc39801dbc0" x="57.6" y="116.380706" style="stroke: #000000; stroke-width: 0.8"/>
      </g>
     </g>
     <g id="text_15">
      <!-- 0.08 -->
      <g transform="translate(28.334375 120.179925) scale(0.1 -0.1)">
       <defs>
        <path id="DejaVuSans-38" d="M 2034 2216 
Q 1584 2216 1326 1975 
Q 1069 1734 1069 1313 
Q 1069 891 1326 650 
Q 1584 409 2034 409 
Q 2484 409 2743 651 
Q 3003 894 3003 1313 
Q 3003 1734 2745 1975 
Q 2488 2216 2034 2216 
z
M 1403 2484 
Q 997 2584 770 2862 
Q 544 3141 544 3541 
Q 544 4100 942 4425 
Q 1341 4750 2034 4750 
Q 2731 4750 3128 4425 
Q 3525 4100 3525 3541 
Q 3525 3141 3298 2862 
Q 3072 2584 2669 2484 
Q 3125 2378 3379 2068 
Q 3634 1759 3634 1313 
Q 3634 634 3220 271 
Q 2806 -91 2034 -91 
Q 1263 -91 848 271 
Q 434 634 434 1313 
Q 434 1759 690 2068 
Q 947 2378 1403 2484 
z
M 1172 3481 
Q 1172 3119 1398 2916 
Q 1625 2713 2034 2713 
Q 2441 2713 2670 2916 
Q 2900 3119 2900 3481 
Q 2900 3844 2670 4047 
Q 2441 4250 2034 4250 
Q 1625 4250 1398 4047 
Q 1172 3844 1172 3481 
z
" transform="scale(0.015625)"/>
       </defs>
       <use xlink:href="#DejaVuSans-30"/>
       <use xlink:href="#DejaVuSans-2e" x="63.623047"/>
       <use xlink:href="#DejaVuSans-30" x="95.410156"/>
       <use xlink:href="#DejaVuSans-38" x="159.033203"/>
      </g>
     </g>
    </g>
    <g id="ytick_6">
     <g id="line2d_15">
      <g>
       <use xlink:href="#mc39801dbc0" x="57.6" y="70.135819" style="stroke: #000000; stroke-width: 0.8"/>
      </g>
     </g>
     <g id="text_16">
      <!-- 0.10 -->
      <g transform="translate(28.334375 73.935038) scale(0.1 -0.1)">
       <use xlink:href="#DejaVuSans-30"/>
       <use xlink:href="#DejaVuSans-2e" x="63.623047"/>
       <use xlink:href="#DejaVuSans-31" x="95.410156"/>
       <use xlink:href="#DejaVuSans-30" x="159.033203"/>
      </g>
     </g>
    </g>
    <g id="text_17">
     <!-- loss -->
     <g transform="translate(22.254688 184.185812) rotate(-90) scale(0.1 -0.1)">
      <defs>
       <path id="DejaVuSans-6c" d="M 603 4863 
L 1178 4863 
L 1178 0 
L 603 0 
L 603 4863 
z
" transform="scale(0.015625)"/>
      </defs>
      <use xlink:href="#DejaVuSans-6c"/>
      <use xlink:href="#DejaVuSans-6f" x="27.783203"/>
      <use xlink:href="#DejaVuSans-73" x="88.964844"/>
      <use xlink:href="#DejaVuSans-73" x="141.064453"/>
     </g>
    </g>
   </g>
   <g id="line2d_16">
    <path d="M 73.832727 153.308525 
L 75.464157 238.58751 
L 78.727017 266.048254 
L 81.989877 253.709533 
L 83.621307 246.328065 
L 85.252736 253.229741 
L 86.884166 266.516969 
L 88.515596 268.014089 
L 90.147026 247.581168 
L 91.778456 250.447555 
L 93.409886 263.8138 
L 95.041316 251.68256 
L 96.672746 271.202299 
L 98.304175 269.215488 
L 99.935605 254.768774 
L 101.567035 265.589745 
L 103.198465 256.940042 
L 104.829895 249.330248 
L 106.461325 269.846255 
L 108.092755 269.087172 
L 109.724185 272.463127 
L 111.355614 269.130028 
L 112.987044 276.775651 
L 114.618474 256.448173 
L 116.249904 248.116976 
L 117.881334 246.445842 
L 119.512764 256.16568 
L 121.144194 258.78054 
L 122.775624 260.263264 
L 124.407053 263.268367 
L 126.038483 263.387638 
L 127.669913 264.584592 
L 129.301343 265.079122 
L 130.932773 266.55457 
L 132.564203 266.896701 
L 134.195633 268.073483 
L 135.827063 267.812318 
L 137.458492 269.139092 
L 139.089922 269.010852 
L 140.721352 270.075018 
L 142.352782 269.718899 
L 143.984212 271.298498 
L 145.615642 252.437661 
L 147.247072 256.42635 
L 148.878502 248.905352 
L 150.509931 256.719391 
L 152.141361 281.84748 
L 153.772791 263.517973 
L 155.404221 255.641299 
L 157.035651 262.230613 
L 158.667081 223.493297 
L 160.298511 265.910087 
L 161.929941 270.2988 
L 163.56137 280.105538 
L 165.1928 252.886711 
L 166.82423 273.999261 
L 168.45566 273.417732 
L 170.08709 277.407536 
L 171.71852 272.618045 
L 173.34995 249.274991 
L 174.98138 281.371844 
L 176.61281 260.983786 
L 178.244239 264.978181 
L 179.875669 268.155118 
L 181.507099 263.586646 
L 183.138529 253.60376 
L 184.769959 259.133485 
L 186.401389 245.047106 
L 188.032819 251.841329 
L 189.664249 259.4526 
L 191.295678 260.224408 
L 192.927108 258.905638 
L 194.558538 260.941074 
L 199.452828 265.468878 
L 201.084258 266.531933 
L 202.715688 268.160144 
L 204.347117 268.073569 
L 205.978547 270.700549 
L 207.609977 269.597511 
L 209.241407 271.489537 
L 210.872837 271.400875 
L 212.504267 272.599362 
L 214.135697 272.717427 
L 215.767127 274.313627 
L 217.398556 271.080817 
L 219.029986 262.229795 
L 220.661416 269.392798 
L 222.292846 265.70549 
L 223.924276 268.108511 
L 225.555706 253.453721 
L 227.187136 262.260197 
L 228.818566 266.816074 
L 230.449995 268.460677 
L 232.081425 267.06192 
L 233.712855 269.076974 
L 235.344285 269.442392 
L 236.975715 272.588584 
L 238.607145 271.020854 
L 240.238575 273.581975 
L 241.870005 273.625332 
L 243.501434 274.883625 
L 245.132864 274.816465 
L 246.764294 269.616858 
L 248.395724 280.769079 
L 250.027154 260.08278 
L 251.658584 211.975715 
L 253.290014 245.801888 
L 254.921444 260.536024 
L 256.552873 271.729842 
L 258.184303 261.837127 
L 259.815733 267.693874 
L 261.447163 264.892948 
L 263.078593 273.60419 
L 264.710023 254.204955 
L 266.341453 268.977939 
L 267.972883 272.044936 
L 269.604312 285.722605 
L 271.235742 240.568314 
L 272.867172 259.057766 
L 274.498602 272.481991 
L 276.130032 282.971141 
L 277.761462 257.520339 
L 279.392892 255.578565 
L 281.024322 266.412843 
L 282.655751 261.959279 
L 284.287181 262.37386 
L 285.918611 263.193488 
L 287.550041 267.425813 
L 289.181471 268.168121 
L 290.812901 266.679151 
L 292.444331 267.849463 
L 294.075761 267.625991 
L 295.70719 269.62845 
L 297.33862 269.03355 
L 298.97005 270.874465 
L 300.60148 271.025398 
L 302.23291 272.138796 
L 303.86434 272.888447 
L 305.49577 274.271093 
L 307.1272 275.169943 
L 308.75863 274.465419 
L 310.390059 277.218761 
L 312.021489 275.295079 
L 313.652919 279.285997 
L 315.284349 275.999407 
L 316.915779 281.0604 
L 318.547209 272.489069 
L 320.178639 258.025934 
L 321.810069 258.354338 
L 323.441498 256.241274 
L 325.072928 254.859017 
L 326.704358 260.256653 
L 328.335788 263.112385 
L 329.967218 265.293105 
L 331.598648 268.487294 
L 333.230078 268.872862 
L 334.861508 269.881792 
L 336.492937 271.160486 
L 338.124367 271.3479 
L 339.755797 273.161052 
L 341.387227 272.290733 
L 343.018657 274.674894 
L 344.650087 273.37028 
L 346.281517 276.085489 
L 347.912947 295.488 
L 349.544376 249.828878 
L 351.175806 276.883047 
L 352.807236 245.527518 
L 354.438666 259.311993 
L 356.070096 252.670681 
L 357.701526 243.243087 
L 359.332956 274.915188 
L 360.964386 256.743436 
L 362.595815 256.249023 
L 364.227245 250.402832 
L 365.858675 255.944835 
L 367.490105 259.964164 
L 369.121535 261.349139 
L 370.752965 261.422374 
L 372.384395 264.517921 
L 374.015825 265.631147 
L 375.647254 268.009554 
L 377.278684 269.258903 
L 378.910114 271.263199 
L 380.541544 269.825143 
L 382.172974 273.07635 
L 383.804404 271.023979 
L 385.435834 274.740457 
L 387.067264 272.491791 
L 388.698693 276.268112 
L 390.330123 273.533835 
L 391.961553 277.189112 
L 393.592983 274.51219 
L 395.224413 277.848387 
L 396.855843 275.398626 
L 398.487273 278.489248 
L 398.487273 278.489248 
" clip-path="url(#p65fc2d45fe)" style="fill: none; stroke: #1f77b4; stroke-width: 1.5; stroke-linecap: square"/>
   </g>
   <g id="line2d_17">
    <path d="M 73.832727 125.14351 
L 75.464157 142.5526 
L 77.095587 151.992512 
L 78.727017 153.930044 
L 80.358447 172.841592 
L 81.989877 159.605173 
L 83.621307 165.100456 
L 85.252736 168.252497 
L 86.884166 165.719037 
L 88.515596 169.350099 
L 90.147026 163.843464 
L 91.778456 172.880216 
L 93.409886 161.235133 
L 95.041316 174.17902 
L 96.672746 175.793837 
L 98.304175 158.673912 
L 99.935605 171.516534 
L 101.567035 180.628063 
L 103.198465 174.769296 
L 104.829895 181.402588 
L 106.461325 180.24848 
L 108.092755 180.779261 
L 109.724185 178.694932 
L 111.355614 182.209011 
L 112.987044 179.180336 
L 114.618474 180.351793 
L 116.249904 177.427957 
L 117.881334 184.400779 
L 119.512764 177.96376 
L 121.144194 185.036743 
L 122.775624 175.25072 
L 124.407053 179.901603 
L 126.038483 173.253684 
L 127.669913 172.949756 
L 129.301343 169.625447 
L 130.932773 167.641685 
L 132.564203 163.894923 
L 134.195633 163.101206 
L 135.827063 161.905535 
L 137.458492 162.483779 
L 139.089922 161.728936 
L 140.721352 162.388441 
L 142.352782 160.235539 
L 143.984212 159.398555 
L 145.615642 159.593493 
L 147.247072 158.150788 
L 148.878502 157.251018 
L 150.509931 158.615019 
L 152.141361 162.502005 
L 153.772791 166.796173 
L 155.404221 167.451191 
L 157.035651 161.239509 
L 158.667081 161.480807 
L 160.298511 160.112921 
L 161.929941 150.43085 
L 163.56137 152.761929 
L 165.1928 142.389954 
L 166.82423 152.754314 
L 168.45566 147.797686 
L 170.08709 162.622831 
L 171.71852 153.549246 
L 173.34995 161.289676 
L 174.98138 163.426488 
L 176.61281 162.387959 
L 178.244239 164.27958 
L 179.875669 160.280304 
L 181.507099 173.99857 
L 183.138529 163.053615 
L 184.769959 171.725143 
L 186.401389 158.056295 
L 188.032819 170.899813 
L 189.664249 171.101643 
L 191.295678 170.944924 
L 192.927108 168.461243 
L 194.558538 170.212037 
L 196.189968 168.252953 
L 197.821398 169.630021 
L 199.452828 168.731742 
L 201.084258 173.057273 
L 202.715688 171.412669 
L 204.347117 176.759872 
L 205.978547 174.34673 
L 207.609977 178.29838 
L 209.241407 176.204111 
L 210.872837 179.124588 
L 212.504267 178.413296 
L 214.135697 177.907736 
L 215.767127 179.014185 
L 217.398556 176.686526 
L 219.029986 174.584229 
L 220.661416 185.931448 
L 222.292846 180.480897 
L 223.924276 181.836749 
L 225.555706 187.041842 
L 227.187136 186.545791 
L 228.818566 185.244111 
L 230.449995 186.896363 
L 232.081425 185.106773 
L 233.712855 187.629525 
L 235.344285 184.440876 
L 236.975715 187.642825 
L 238.607145 181.323402 
L 240.238575 185.674197 
L 241.870005 174.90598 
L 243.501434 180.910586 
L 245.132864 169.63028 
L 246.764294 174.020828 
L 248.395724 178.9627 
L 250.027154 154.491232 
L 251.658584 158.318964 
L 253.290014 112.241616 
L 254.921444 144.91312 
L 256.552873 152.424079 
L 258.184303 151.679039 
L 259.815733 158.553276 
L 261.447163 161.554524 
L 263.078593 161.89451 
L 264.710023 179.585959 
L 267.972883 166.566013 
L 269.604312 178.479855 
L 271.235742 166.329918 
L 272.867172 165.62221 
L 274.498602 164.369964 
L 276.130032 160.90638 
L 277.761462 173.322887 
L 279.392892 168.252669 
L 281.024322 168.333389 
L 282.655751 159.025009 
L 284.287181 167.329901 
L 285.918611 164.047481 
L 287.550041 140.571723 
L 289.181471 149.652578 
L 290.812901 134.226553 
L 292.444331 142.930348 
L 294.075761 125.731297 
L 295.70719 139.345138 
L 297.33862 115.127457 
L 298.97005 132.426393 
L 300.60148 102.119079 
L 302.23291 123.191662 
L 303.86434 90.506151 
L 305.49577 110.175497 
L 307.1272 96.045812 
L 308.75863 93.204746 
L 310.390059 100.081093 
L 312.021489 100.413068 
L 313.652919 101.734577 
L 315.284349 100.516864 
L 316.915779 100.334958 
L 318.547209 99.365822 
L 320.178639 100.255453 
L 321.810069 96.932325 
L 323.441498 104.569028 
L 325.072928 96.196691 
L 326.704358 103.488619 
L 328.335788 96.594131 
L 329.967218 101.626905 
L 331.598648 92.248754 
L 333.230078 95.998126 
L 334.861508 85.805335 
L 336.492937 92.241036 
L 338.124367 81.652976 
L 339.755797 89.89571 
L 341.387227 78.840972 
L 343.018657 88.266517 
L 344.650087 77.519033 
L 346.281517 88.014701 
L 347.912947 85.287199 
L 349.544376 85.792087 
L 351.175806 88.523655 
L 352.807236 84.600284 
L 354.438666 83.658316 
L 356.070096 104.242152 
L 357.701526 91.051283 
L 359.332956 87.390305 
L 360.964386 94.731366 
L 362.595815 84.24991 
L 364.227245 79.796913 
L 365.858675 91.649217 
L 367.490105 83.626324 
L 369.121535 90.652 
L 370.752965 73.423266 
L 372.384395 82.672675 
L 374.015825 64.07025 
L 375.647254 72.844919 
L 377.278684 54.587923 
L 378.910114 69.602158 
L 380.541544 53.568 
L 382.172974 69.44885 
L 383.804404 63.226633 
L 385.435834 77.789023 
L 387.067264 74.721862 
L 388.698693 87.736648 
L 390.330123 83.762198 
L 391.961553 95.216253 
L 393.592983 89.775582 
L 395.224413 100.344933 
L 396.855843 93.568333 
L 398.487273 103.580493 
L 398.487273 103.580493 
" clip-path="url(#p65fc2d45fe)" style="fill: none; stroke: #ff7f0e; stroke-width: 1.5; stroke-linecap: square"/>
   </g>
   <g id="patch_3">
    <path d="M 57.6 307.584 
L 57.6 41.472 
" style="fill: none; stroke: #000000; stroke-width: 0.8; stroke-linejoin: miter; stroke-linecap: square"/>
   </g>
   <g id="patch_4">
    <path d="M 414.72 307.584 
L 414.72 41.472 
" style="fill: none; stroke: #000000; stroke-width: 0.8; stroke-linejoin: miter; stroke-linecap: square"/>
   </g>
   <g id="patch_5">
    <path d="M 57.6 307.584 
L 414.72 307.584 
" style="fill: none; stroke: #000000; stroke-width: 0.8; stroke-linejoin: miter; stroke-linecap: square"/>
   </g>
   <g id="patch_6">
    <path d="M 57.6 41.472 
L 414.72 41.472 
" style="fill: none; stroke: #000000; stroke-width: 0.8; stroke-linejoin: miter; stroke-linecap: square"/>
   </g>
   <g id="legend_1">
    <g id="patch_7">
     <path d="M 64.6 78.82825 
L 142.36875 78.82825 
Q 144.36875 78.82825 144.36875 76.82825 
L 144.36875 48.472 
Q 144.36875 46.472 142.36875 46.472 
L 64.6 46.472 
Q 62.6 46.472 62.6 48.472 
L 62.6 76.82825 
Q 62.6 78.82825 64.6 78.82825 
z
" style="fill: #ffffff; opacity: 0.8; stroke: #cccccc; stroke-linejoin: miter"/>
    </g>
    <g id="line2d_18">
     <path d="M 66.6 54.570437 
L 76.6 54.570437 
L 86.6 54.570437 
" style="fill: none; stroke: #1f77b4; stroke-width: 1.5; stroke-linecap: square"/>
    </g>
    <g id="text_18">
     <!-- train loss -->
     <g transform="translate(94.6 58.070437) scale(0.1 -0.1)">
      <defs>
       <path id="DejaVuSans-74" d="M 1172 4494 
L 1172 3500 
L 2356 3500 
L 2356 3053 
L 1172 3053 
L 1172 1153 
Q 1172 725 1289 603 
Q 1406 481 1766 481 
L 2356 481 
L 2356 0 
L 1766 0 
Q 1100 0 847 248 
Q 594 497 594 1153 
L 594 3053 
L 172 3053 
L 172 3500 
L 594 3500 
L 594 4494 
L 1172 4494 
z
" transform="scale(0.015625)"/>
       <path id="DejaVuSans-72" d="M 2631 2963 
Q 2534 3019 2420 3045 
Q 2306 3072 2169 3072 
Q 1681 3072 1420 2755 
Q 1159 2438 1159 1844 
L 1159 0 
L 581 0 
L 581 3500 
L 1159 3500 
L 1159 2956 
Q 1341 3275 1631 3429 
Q 1922 3584 2338 3584 
Q 2397 3584 2469 3576 
Q 2541 3569 2628 3553 
L 2631 2963 
z
" transform="scale(0.015625)"/>
       <path id="DejaVuSans-61" d="M 2194 1759 
Q 1497 1759 1228 1600 
Q 959 1441 959 1056 
Q 959 750 1161 570 
Q 1363 391 1709 391 
Q 2188 391 2477 730 
Q 2766 1069 2766 1631 
L 2766 1759 
L 2194 1759 
z
M 3341 1997 
L 3341 0 
L 2766 0 
L 2766 531 
Q 2569 213 2275 61 
Q 1981 -91 1556 -91 
Q 1019 -91 701 211 
Q 384 513 384 1019 
Q 384 1609 779 1909 
Q 1175 2209 1959 2209 
L 2766 2209 
L 2766 2266 
Q 2766 2663 2505 2880 
Q 2244 3097 1772 3097 
Q 1472 3097 1187 3025 
Q 903 2953 641 2809 
L 641 3341 
Q 956 3463 1253 3523 
Q 1550 3584 1831 3584 
Q 2591 3584 2966 3190 
Q 3341 2797 3341 1997 
z
" transform="scale(0.015625)"/>
       <path id="DejaVuSans-69" d="M 603 3500 
L 1178 3500 
L 1178 0 
L 603 0 
L 603 3500 
z
M 603 4863 
L 1178 4863 
L 1178 4134 
L 603 4134 
L 603 4863 
z
" transform="scale(0.015625)"/>
       <path id="DejaVuSans-6e" d="M 3513 2113 
L 3513 0 
L 2938 0 
L 2938 2094 
Q 2938 2591 2744 2837 
Q 2550 3084 2163 3084 
Q 1697 3084 1428 2787 
Q 1159 2491 1159 1978 
L 1159 0 
L 581 0 
L 581 3500 
L 1159 3500 
L 1159 2956 
Q 1366 3272 1645 3428 
Q 1925 3584 2291 3584 
Q 2894 3584 3203 3211 
Q 3513 2838 3513 2113 
z
" transform="scale(0.015625)"/>
       <path id="DejaVuSans-20" transform="scale(0.015625)"/>
      </defs>
      <use xlink:href="#DejaVuSans-74"/>
      <use xlink:href="#DejaVuSans-72" x="39.208984"/>
      <use xlink:href="#DejaVuSans-61" x="80.322266"/>
      <use xlink:href="#DejaVuSans-69" x="141.601562"/>
      <use xlink:href="#DejaVuSans-6e" x="169.384766"/>
      <use xlink:href="#DejaVuSans-20" x="232.763672"/>
      <use xlink:href="#DejaVuSans-6c" x="264.550781"/>
      <use xlink:href="#DejaVuSans-6f" x="292.333984"/>
      <use xlink:href="#DejaVuSans-73" x="353.515625"/>
      <use xlink:href="#DejaVuSans-73" x="405.615234"/>
     </g>
    </g>
    <g id="line2d_19">
     <path d="M 66.6 69.248562 
L 76.6 69.248562 
L 86.6 69.248562 
" style="fill: none; stroke: #ff7f0e; stroke-width: 1.5; stroke-linecap: square"/>
    </g>
    <g id="text_19">
     <!-- test loss -->
     <g transform="translate(94.6 72.748562) scale(0.1 -0.1)">
      <use xlink:href="#DejaVuSans-74"/>
      <use xlink:href="#DejaVuSans-65" x="39.208984"/>
      <use xlink:href="#DejaVuSans-73" x="100.732422"/>
      <use xlink:href="#DejaVuSans-74" x="152.832031"/>
      <use xlink:href="#DejaVuSans-20" x="192.041016"/>
      <use xlink:href="#DejaVuSans-6c" x="223.828125"/>
      <use xlink:href="#DejaVuSans-6f" x="251.611328"/>
      <use xlink:href="#DejaVuSans-73" x="312.792969"/>
      <use xlink:href="#DejaVuSans-73" x="364.892578"/>
     </g>
    </g>
   </g>
  </g>
 </g>
 <defs>
  <clipPath id="p65fc2d45fe">
   <rect x="57.6" y="41.472" width="357.12" height="266.112"/>
  </clipPath>
 </defs>
</svg>
