<?xml version="1.0" encoding="utf-8" standalone="no"?>
<!DOCTYPE svg PUBLIC "-//W3C//DTD SVG 1.1//EN"
  "http://www.w3.org/Graphics/SVG/1.1/DTD/svg11.dtd">
<svg xmlns:xlink="http://www.w3.org/1999/xlink" width="460.8pt" height="345.6pt" viewBox="0 0 460.8 345.6" xmlns="http://www.w3.org/2000/svg" version="1.1">
 <metadata>
  <rdf:RDF xmlns:dc="http://purl.org/dc/elements/1.1/" xmlns:cc="http://creativecommons.org/ns#" xmlns:rdf="http://www.w3.org/1999/02/22-rdf-syntax-ns#">
   <cc:Work>
    <dc:type rdf:resource="http://purl.org/dc/dcmitype/StillImage"/>
    <dc:date>2024-05-17T13:54:35.066297</dc:date>
    <dc:format>image/svg+xml</dc:format>
    <dc:creator>
     <cc:Agent>
      <dc:title>Matplotlib v3.7.1, https://matplotlib.org/</dc:title>
     </cc:Agent>
    </dc:creator>
   </cc:Work>
  </rdf:RDF>
 </metadata>
 <defs>
  <style type="text/css">*{stroke-linejoin: round; stroke-linecap: butt}</style>
 </defs>
 <g id="figure_1">
  <g id="patch_1">
   <path d="M 0 345.6 
L 460.8 345.6 
L 460.8 0 
L 0 0 
z
" style="fill: #ffffff"/>
  </g>
  <g id="axes_1">
   <g id="patch_2">
    <path d="M 57.6 307.584 
L 414.72 307.584 
L 414.72 41.472 
L 57.6 41.472 
z
" style="fill: #ffffff"/>
   </g>
   <g id="matplotlib.axis_1">
    <g id="xtick_1">
     <g id="line2d_1">
      <defs>
       <path id="m2ed2692eba" d="M 0 0 
L 0 3.5 
" style="stroke: #000000; stroke-width: 0.8"/>
      </defs>
      <g>
       <use xlink:href="#m2ed2692eba" x="73.832727" y="307.584" style="stroke: #000000; stroke-width: 0.8"/>
      </g>
     </g>
     <g id="text_1">
      <!-- 0 -->
      <g transform="translate(70.651477 322.182437) scale(0.1 -0.1)">
       <defs>
        <path id="DejaVuSans-30" d="M 2034 4250 
Q 1547 4250 1301 3770 
Q 1056 3291 1056 2328 
Q 1056 1369 1301 889 
Q 1547 409 2034 409 
Q 2525 409 2770 889 
Q 3016 1369 3016 2328 
Q 3016 3291 2770 3770 
Q 2525 4250 2034 4250 
z
M 2034 4750 
Q 2819 4750 3233 4129 
Q 3647 3509 3647 2328 
Q 3647 1150 3233 529 
Q 2819 -91 2034 -91 
Q 1250 -91 836 529 
Q 422 1150 422 2328 
Q 422 3509 836 4129 
Q 1250 4750 2034 4750 
z
" transform="scale(0.015625)"/>
       </defs>
       <use xlink:href="#DejaVuSans-30"/>
      </g>
     </g>
    </g>
    <g id="xtick_2">
     <g id="line2d_2">
      <g>
       <use xlink:href="#m2ed2692eba" x="114.618474" y="307.584" style="stroke: #000000; stroke-width: 0.8"/>
      </g>
     </g>
     <g id="text_2">
      <!-- 25 -->
      <g transform="translate(108.255974 322.182437) scale(0.1 -0.1)">
       <defs>
        <path id="DejaVuSans-32" d="M 1228 531 
L 3431 531 
L 3431 0 
L 469 0 
L 469 531 
Q 828 903 1448 1529 
Q 2069 2156 2228 2338 
Q 2531 2678 2651 2914 
Q 2772 3150 2772 3378 
Q 2772 3750 2511 3984 
Q 2250 4219 1831 4219 
Q 1534 4219 1204 4116 
Q 875 4013 500 3803 
L 500 4441 
Q 881 4594 1212 4672 
Q 1544 4750 1819 4750 
Q 2544 4750 2975 4387 
Q 3406 4025 3406 3419 
Q 3406 3131 3298 2873 
Q 3191 2616 2906 2266 
Q 2828 2175 2409 1742 
Q 1991 1309 1228 531 
z
" transform="scale(0.015625)"/>
        <path id="DejaVuSans-35" d="M 691 4666 
L 3169 4666 
L 3169 4134 
L 1269 4134 
L 1269 2991 
Q 1406 3038 1543 3061 
Q 1681 3084 1819 3084 
Q 2600 3084 3056 2656 
Q 3513 2228 3513 1497 
Q 3513 744 3044 326 
Q 2575 -91 1722 -91 
Q 1428 -91 1123 -41 
Q 819 9 494 109 
L 494 744 
Q 775 591 1075 516 
Q 1375 441 1709 441 
Q 2250 441 2565 725 
Q 2881 1009 2881 1497 
Q 2881 1984 2565 2268 
Q 2250 2553 1709 2553 
Q 1456 2553 1204 2497 
Q 953 2441 691 2322 
L 691 4666 
z
" transform="scale(0.015625)"/>
       </defs>
       <use xlink:href="#DejaVuSans-32"/>
       <use xlink:href="#DejaVuSans-35" x="63.623047"/>
      </g>
     </g>
    </g>
    <g id="xtick_3">
     <g id="line2d_3">
      <g>
       <use xlink:href="#m2ed2692eba" x="155.404221" y="307.584" style="stroke: #000000; stroke-width: 0.8"/>
      </g>
     </g>
     <g id="text_3">
      <!-- 50 -->
      <g transform="translate(149.041721 322.182437) scale(0.1 -0.1)">
       <use xlink:href="#DejaVuSans-35"/>
       <use xlink:href="#DejaVuSans-30" x="63.623047"/>
      </g>
     </g>
    </g>
    <g id="xtick_4">
     <g id="line2d_4">
      <g>
       <use xlink:href="#m2ed2692eba" x="196.189968" y="307.584" style="stroke: #000000; stroke-width: 0.8"/>
      </g>
     </g>
     <g id="text_4">
      <!-- 75 -->
      <g transform="translate(189.827468 322.182437) scale(0.1 -0.1)">
       <defs>
        <path id="DejaVuSans-37" d="M 525 4666 
L 3525 4666 
L 3525 4397 
L 1831 0 
L 1172 0 
L 2766 4134 
L 525 4134 
L 525 4666 
z
" transform="scale(0.015625)"/>
       </defs>
       <use xlink:href="#DejaVuSans-37"/>
       <use xlink:href="#DejaVuSans-35" x="63.623047"/>
      </g>
     </g>
    </g>
    <g id="xtick_5">
     <g id="line2d_5">
      <g>
       <use xlink:href="#m2ed2692eba" x="236.975715" y="307.584" style="stroke: #000000; stroke-width: 0.8"/>
      </g>
     </g>
     <g id="text_5">
      <!-- 100 -->
      <g transform="translate(227.431965 322.182437) scale(0.1 -0.1)">
       <defs>
        <path id="DejaVuSans-31" d="M 794 531 
L 1825 531 
L 1825 4091 
L 703 3866 
L 703 4441 
L 1819 4666 
L 2450 4666 
L 2450 531 
L 3481 531 
L 3481 0 
L 794 0 
L 794 531 
z
" transform="scale(0.015625)"/>
       </defs>
       <use xlink:href="#DejaVuSans-31"/>
       <use xlink:href="#DejaVuSans-30" x="63.623047"/>
       <use xlink:href="#DejaVuSans-30" x="127.246094"/>
      </g>
     </g>
    </g>
    <g id="xtick_6">
     <g id="line2d_6">
      <g>
       <use xlink:href="#m2ed2692eba" x="277.761462" y="307.584" style="stroke: #000000; stroke-width: 0.8"/>
      </g>
     </g>
     <g id="text_6">
      <!-- 125 -->
      <g transform="translate(268.217712 322.182437) scale(0.1 -0.1)">
       <use xlink:href="#DejaVuSans-31"/>
       <use xlink:href="#DejaVuSans-32" x="63.623047"/>
       <use xlink:href="#DejaVuSans-35" x="127.246094"/>
      </g>
     </g>
    </g>
    <g id="xtick_7">
     <g id="line2d_7">
      <g>
       <use xlink:href="#m2ed2692eba" x="318.547209" y="307.584" style="stroke: #000000; stroke-width: 0.8"/>
      </g>
     </g>
     <g id="text_7">
      <!-- 150 -->
      <g transform="translate(309.003459 322.182437) scale(0.1 -0.1)">
       <use xlink:href="#DejaVuSans-31"/>
       <use xlink:href="#DejaVuSans-35" x="63.623047"/>
       <use xlink:href="#DejaVuSans-30" x="127.246094"/>
      </g>
     </g>
    </g>
    <g id="xtick_8">
     <g id="line2d_8">
      <g>
       <use xlink:href="#m2ed2692eba" x="359.332956" y="307.584" style="stroke: #000000; stroke-width: 0.8"/>
      </g>
     </g>
     <g id="text_8">
      <!-- 175 -->
      <g transform="translate(349.789206 322.182437) scale(0.1 -0.1)">
       <use xlink:href="#DejaVuSans-31"/>
       <use xlink:href="#DejaVuSans-37" x="63.623047"/>
       <use xlink:href="#DejaVuSans-35" x="127.246094"/>
      </g>
     </g>
    </g>
    <g id="xtick_9">
     <g id="line2d_9">
      <g>
       <use xlink:href="#m2ed2692eba" x="400.118703" y="307.584" style="stroke: #000000; stroke-width: 0.8"/>
      </g>
     </g>
     <g id="text_9">
      <!-- 200 -->
      <g transform="translate(390.574953 322.182437) scale(0.1 -0.1)">
       <use xlink:href="#DejaVuSans-32"/>
       <use xlink:href="#DejaVuSans-30" x="63.623047"/>
       <use xlink:href="#DejaVuSans-30" x="127.246094"/>
      </g>
     </g>
    </g>
    <g id="text_10">
     <!-- epochs -->
     <g transform="translate(218.327188 335.860562) scale(0.1 -0.1)">
      <defs>
       <path id="DejaVuSans-65" d="M 3597 1894 
L 3597 1613 
L 953 1613 
Q 991 1019 1311 708 
Q 1631 397 2203 397 
Q 2534 397 2845 478 
Q 3156 559 3463 722 
L 3463 178 
Q 3153 47 2828 -22 
Q 2503 -91 2169 -91 
Q 1331 -91 842 396 
Q 353 884 353 1716 
Q 353 2575 817 3079 
Q 1281 3584 2069 3584 
Q 2775 3584 3186 3129 
Q 3597 2675 3597 1894 
z
M 3022 2063 
Q 3016 2534 2758 2815 
Q 2500 3097 2075 3097 
Q 1594 3097 1305 2825 
Q 1016 2553 972 2059 
L 3022 2063 
z
" transform="scale(0.015625)"/>
       <path id="DejaVuSans-70" d="M 1159 525 
L 1159 -1331 
L 581 -1331 
L 581 3500 
L 1159 3500 
L 1159 2969 
Q 1341 3281 1617 3432 
Q 1894 3584 2278 3584 
Q 2916 3584 3314 3078 
Q 3713 2572 3713 1747 
Q 3713 922 3314 415 
Q 2916 -91 2278 -91 
Q 1894 -91 1617 61 
Q 1341 213 1159 525 
z
M 3116 1747 
Q 3116 2381 2855 2742 
Q 2594 3103 2138 3103 
Q 1681 3103 1420 2742 
Q 1159 2381 1159 1747 
Q 1159 1113 1420 752 
Q 1681 391 2138 391 
Q 2594 391 2855 752 
Q 3116 1113 3116 1747 
z
" transform="scale(0.015625)"/>
       <path id="DejaVuSans-6f" d="M 1959 3097 
Q 1497 3097 1228 2736 
Q 959 2375 959 1747 
Q 959 1119 1226 758 
Q 1494 397 1959 397 
Q 2419 397 2687 759 
Q 2956 1122 2956 1747 
Q 2956 2369 2687 2733 
Q 2419 3097 1959 3097 
z
M 1959 3584 
Q 2709 3584 3137 3096 
Q 3566 2609 3566 1747 
Q 3566 888 3137 398 
Q 2709 -91 1959 -91 
Q 1206 -91 779 398 
Q 353 888 353 1747 
Q 353 2609 779 3096 
Q 1206 3584 1959 3584 
z
" transform="scale(0.015625)"/>
       <path id="DejaVuSans-63" d="M 3122 3366 
L 3122 2828 
Q 2878 2963 2633 3030 
Q 2388 3097 2138 3097 
Q 1578 3097 1268 2742 
Q 959 2388 959 1747 
Q 959 1106 1268 751 
Q 1578 397 2138 397 
Q 2388 397 2633 464 
Q 2878 531 3122 666 
L 3122 134 
Q 2881 22 2623 -34 
Q 2366 -91 2075 -91 
Q 1284 -91 818 406 
Q 353 903 353 1747 
Q 353 2603 823 3093 
Q 1294 3584 2113 3584 
Q 2378 3584 2631 3529 
Q 2884 3475 3122 3366 
z
" transform="scale(0.015625)"/>
       <path id="DejaVuSans-68" d="M 3513 2113 
L 3513 0 
L 2938 0 
L 2938 2094 
Q 2938 2591 2744 2837 
Q 2550 3084 2163 3084 
Q 1697 3084 1428 2787 
Q 1159 2491 1159 1978 
L 1159 0 
L 581 0 
L 581 4863 
L 1159 4863 
L 1159 2956 
Q 1366 3272 1645 3428 
Q 1925 3584 2291 3584 
Q 2894 3584 3203 3211 
Q 3513 2838 3513 2113 
z
" transform="scale(0.015625)"/>
       <path id="DejaVuSans-73" d="M 2834 3397 
L 2834 2853 
Q 2591 2978 2328 3040 
Q 2066 3103 1784 3103 
Q 1356 3103 1142 2972 
Q 928 2841 928 2578 
Q 928 2378 1081 2264 
Q 1234 2150 1697 2047 
L 1894 2003 
Q 2506 1872 2764 1633 
Q 3022 1394 3022 966 
Q 3022 478 2636 193 
Q 2250 -91 1575 -91 
Q 1294 -91 989 -36 
Q 684 19 347 128 
L 347 722 
Q 666 556 975 473 
Q 1284 391 1588 391 
Q 1994 391 2212 530 
Q 2431 669 2431 922 
Q 2431 1156 2273 1281 
Q 2116 1406 1581 1522 
L 1381 1569 
Q 847 1681 609 1914 
Q 372 2147 372 2553 
Q 372 3047 722 3315 
Q 1072 3584 1716 3584 
Q 2034 3584 2315 3537 
Q 2597 3491 2834 3397 
z
" transform="scale(0.015625)"/>
      </defs>
      <use xlink:href="#DejaVuSans-65"/>
      <use xlink:href="#DejaVuSans-70" x="61.523438"/>
      <use xlink:href="#DejaVuSans-6f" x="125"/>
      <use xlink:href="#DejaVuSans-63" x="186.181641"/>
      <use xlink:href="#DejaVuSans-68" x="241.162109"/>
      <use xlink:href="#DejaVuSans-73" x="304.541016"/>
     </g>
    </g>
   </g>
   <g id="matplotlib.axis_2">
    <g id="ytick_1">
     <g id="line2d_10">
      <defs>
       <path id="m80c77392a8" d="M 0 0 
L -3.5 0 
" style="stroke: #000000; stroke-width: 0.8"/>
      </defs>
      <g>
       <use xlink:href="#m80c77392a8" x="57.6" y="275.449474" style="stroke: #000000; stroke-width: 0.8"/>
      </g>
     </g>
     <g id="text_11">
      <!-- 0.01 -->
      <g transform="translate(28.334375 279.248693) scale(0.1 -0.1)">
       <defs>
        <path id="DejaVuSans-2e" d="M 684 794 
L 1344 794 
L 1344 0 
L 684 0 
L 684 794 
z
" transform="scale(0.015625)"/>
       </defs>
       <use xlink:href="#DejaVuSans-30"/>
       <use xlink:href="#DejaVuSans-2e" x="63.623047"/>
       <use xlink:href="#DejaVuSans-30" x="95.410156"/>
       <use xlink:href="#DejaVuSans-31" x="159.033203"/>
      </g>
     </g>
    </g>
    <g id="ytick_2">
     <g id="line2d_11">
      <g>
       <use xlink:href="#m80c77392a8" x="57.6" y="231.861149" style="stroke: #000000; stroke-width: 0.8"/>
      </g>
     </g>
     <g id="text_12">
      <!-- 0.02 -->
      <g transform="translate(28.334375 235.660368) scale(0.1 -0.1)">
       <use xlink:href="#DejaVuSans-30"/>
       <use xlink:href="#DejaVuSans-2e" x="63.623047"/>
       <use xlink:href="#DejaVuSans-30" x="95.410156"/>
       <use xlink:href="#DejaVuSans-32" x="159.033203"/>
      </g>
     </g>
    </g>
    <g id="ytick_3">
     <g id="line2d_12">
      <g>
       <use xlink:href="#m80c77392a8" x="57.6" y="188.272824" style="stroke: #000000; stroke-width: 0.8"/>
      </g>
     </g>
     <g id="text_13">
      <!-- 0.03 -->
      <g transform="translate(28.334375 192.072043) scale(0.1 -0.1)">
       <defs>
        <path id="DejaVuSans-33" d="M 2597 2516 
Q 3050 2419 3304 2112 
Q 3559 1806 3559 1356 
Q 3559 666 3084 287 
Q 2609 -91 1734 -91 
Q 1441 -91 1130 -33 
Q 819 25 488 141 
L 488 750 
Q 750 597 1062 519 
Q 1375 441 1716 441 
Q 2309 441 2620 675 
Q 2931 909 2931 1356 
Q 2931 1769 2642 2001 
Q 2353 2234 1838 2234 
L 1294 2234 
L 1294 2753 
L 1863 2753 
Q 2328 2753 2575 2939 
Q 2822 3125 2822 3475 
Q 2822 3834 2567 4026 
Q 2313 4219 1838 4219 
Q 1578 4219 1281 4162 
Q 984 4106 628 3988 
L 628 4550 
Q 988 4650 1302 4700 
Q 1616 4750 1894 4750 
Q 2613 4750 3031 4423 
Q 3450 4097 3450 3541 
Q 3450 3153 3228 2886 
Q 3006 2619 2597 2516 
z
" transform="scale(0.015625)"/>
       </defs>
       <use xlink:href="#DejaVuSans-30"/>
       <use xlink:href="#DejaVuSans-2e" x="63.623047"/>
       <use xlink:href="#DejaVuSans-30" x="95.410156"/>
       <use xlink:href="#DejaVuSans-33" x="159.033203"/>
      </g>
     </g>
    </g>
    <g id="ytick_4">
     <g id="line2d_13">
      <g>
       <use xlink:href="#m80c77392a8" x="57.6" y="144.684499" style="stroke: #000000; stroke-width: 0.8"/>
      </g>
     </g>
     <g id="text_14">
      <!-- 0.04 -->
      <g transform="translate(28.334375 148.483718) scale(0.1 -0.1)">
       <defs>
        <path id="DejaVuSans-34" d="M 2419 4116 
L 825 1625 
L 2419 1625 
L 2419 4116 
z
M 2253 4666 
L 3047 4666 
L 3047 1625 
L 3713 1625 
L 3713 1100 
L 3047 1100 
L 3047 0 
L 2419 0 
L 2419 1100 
L 313 1100 
L 313 1709 
L 2253 4666 
z
" transform="scale(0.015625)"/>
       </defs>
       <use xlink:href="#DejaVuSans-30"/>
       <use xlink:href="#DejaVuSans-2e" x="63.623047"/>
       <use xlink:href="#DejaVuSans-30" x="95.410156"/>
       <use xlink:href="#DejaVuSans-34" x="159.033203"/>
      </g>
     </g>
    </g>
    <g id="ytick_5">
     <g id="line2d_14">
      <g>
       <use xlink:href="#m80c77392a8" x="57.6" y="101.096174" style="stroke: #000000; stroke-width: 0.8"/>
      </g>
     </g>
     <g id="text_15">
      <!-- 0.05 -->
      <g transform="translate(28.334375 104.895392) scale(0.1 -0.1)">
       <use xlink:href="#DejaVuSans-30"/>
       <use xlink:href="#DejaVuSans-2e" x="63.623047"/>
       <use xlink:href="#DejaVuSans-30" x="95.410156"/>
       <use xlink:href="#DejaVuSans-35" x="159.033203"/>
      </g>
     </g>
    </g>
    <g id="ytick_6">
     <g id="line2d_15">
      <g>
       <use xlink:href="#m80c77392a8" x="57.6" y="57.507849" style="stroke: #000000; stroke-width: 0.8"/>
      </g>
     </g>
     <g id="text_16">
      <!-- 0.06 -->
      <g transform="translate(28.334375 61.307067) scale(0.1 -0.1)">
       <defs>
        <path id="DejaVuSans-36" d="M 2113 2584 
Q 1688 2584 1439 2293 
Q 1191 2003 1191 1497 
Q 1191 994 1439 701 
Q 1688 409 2113 409 
Q 2538 409 2786 701 
Q 3034 994 3034 1497 
Q 3034 2003 2786 2293 
Q 2538 2584 2113 2584 
z
M 3366 4563 
L 3366 3988 
Q 3128 4100 2886 4159 
Q 2644 4219 2406 4219 
Q 1781 4219 1451 3797 
Q 1122 3375 1075 2522 
Q 1259 2794 1537 2939 
Q 1816 3084 2150 3084 
Q 2853 3084 3261 2657 
Q 3669 2231 3669 1497 
Q 3669 778 3244 343 
Q 2819 -91 2113 -91 
Q 1303 -91 875 529 
Q 447 1150 447 2328 
Q 447 3434 972 4092 
Q 1497 4750 2381 4750 
Q 2619 4750 2861 4703 
Q 3103 4656 3366 4563 
z
" transform="scale(0.015625)"/>
       </defs>
       <use xlink:href="#DejaVuSans-30"/>
       <use xlink:href="#DejaVuSans-2e" x="63.623047"/>
       <use xlink:href="#DejaVuSans-30" x="95.410156"/>
       <use xlink:href="#DejaVuSans-36" x="159.033203"/>
      </g>
     </g>
    </g>
    <g id="text_17">
     <!-- loss -->
     <g transform="translate(22.254688 184.185812) rotate(-90) scale(0.1 -0.1)">
      <defs>
       <path id="DejaVuSans-6c" d="M 603 4863 
L 1178 4863 
L 1178 0 
L 603 0 
L 603 4863 
z
" transform="scale(0.015625)"/>
      </defs>
      <use xlink:href="#DejaVuSans-6c"/>
      <use xlink:href="#DejaVuSans-6f" x="27.783203"/>
      <use xlink:href="#DejaVuSans-73" x="88.964844"/>
      <use xlink:href="#DejaVuSans-73" x="141.064453"/>
     </g>
    </g>
   </g>
   <g id="line2d_16">
    <path d="M 73.832727 53.568 
L 75.464157 224.816185 
L 77.095587 250.955443 
L 78.727017 268.131838 
L 80.358447 266.659018 
L 81.989877 242.568929 
L 83.621307 257.887073 
L 85.252736 261.198747 
L 86.884166 267.68495 
L 88.515596 271.39857 
L 90.147026 257.192678 
L 91.778456 278.395935 
L 93.409886 245.430593 
L 95.041316 271.637531 
L 96.672746 261.465244 
L 98.304175 269.116022 
L 99.935605 263.735528 
L 101.567035 245.782087 
L 103.198465 267.778801 
L 104.829895 241.051585 
L 106.461325 241.254867 
L 108.092755 233.42962 
L 109.724185 231.583743 
L 111.355614 256.813316 
L 112.987044 262.797009 
L 114.618474 259.715259 
L 116.249904 258.371048 
L 117.881334 241.330885 
L 119.512764 269.211663 
L 121.144194 268.665599 
L 122.775624 234.301856 
L 124.407053 249.592997 
L 126.038483 244.40849 
L 127.669913 254.083958 
L 129.301343 259.684208 
L 130.932773 262.734107 
L 132.564203 255.950181 
L 134.195633 267.640799 
L 135.827063 228.146874 
L 137.458492 242.061778 
L 139.089922 248.412297 
L 140.721352 249.475467 
L 142.352782 252.906331 
L 143.984212 258.967633 
L 145.615642 261.369204 
L 147.247072 266.362161 
L 148.878502 269.698525 
L 150.509931 270.207186 
L 152.141361 277.809153 
L 153.772791 149.844507 
L 155.404221 169.057859 
L 157.035651 259.59591 
L 158.667081 261.007533 
L 160.298511 271.984734 
L 161.929941 261.202498 
L 163.56137 259.1393 
L 165.1928 204.64892 
L 166.82423 247.319039 
L 170.08709 273.571824 
L 171.71852 242.388371 
L 173.34995 231.796126 
L 174.98138 243.317797 
L 176.61281 240.172269 
L 178.244239 244.828353 
L 179.875669 248.354044 
L 181.507099 253.375185 
L 183.138529 253.407588 
L 184.769959 257.800723 
L 186.401389 257.773521 
L 188.032819 261.659287 
L 189.664249 262.810405 
L 191.295678 265.771503 
L 192.927108 266.800532 
L 194.558538 270.038336 
L 196.189968 270.118628 
L 197.821398 273.373815 
L 199.452828 290.363543 
L 201.084258 215.490766 
L 202.715688 212.831328 
L 204.347117 236.203097 
L 205.978547 291.812495 
L 207.609977 275.172091 
L 209.241407 267.340162 
L 210.872837 271.72479 
L 212.504267 268.567201 
L 214.135697 279.845079 
L 215.767127 259.385365 
L 217.398556 264.771251 
L 219.029986 244.987038 
L 220.661416 235.90587 
L 222.292846 284.674016 
L 223.924276 280.21884 
L 225.555706 253.77592 
L 227.187136 277.62778 
L 228.818566 262.545857 
L 230.449995 257.3443 
L 232.081425 269.484826 
L 233.712855 271.615171 
L 236.975715 258.972143 
L 238.607145 265.838033 
L 240.238575 274.682575 
L 241.870005 263.659006 
L 243.501434 243.240854 
L 245.132864 289.349676 
L 246.764294 260.634467 
L 248.395724 250.307911 
L 250.027154 259.003531 
L 251.658584 279.644042 
L 253.290014 250.454353 
L 254.921444 280.684149 
L 256.552873 255.629803 
L 258.184303 267.104542 
L 259.815733 281.100222 
L 261.447163 274.60102 
L 263.078593 269.042619 
L 264.710023 258.419684 
L 266.341453 273.179695 
L 267.972883 263.51362 
L 269.604312 282.437714 
L 271.235742 272.99332 
L 272.867172 273.048176 
L 274.498602 285.70059 
L 276.130032 276.221998 
L 277.761462 263.197005 
L 279.392892 262.79793 
L 281.024322 258.680433 
L 282.655751 219.501052 
L 284.287181 263.326848 
L 285.918611 218.381992 
L 287.550041 247.56398 
L 289.181471 246.503928 
L 290.812901 251.331115 
L 292.444331 257.003421 
L 294.075761 256.036717 
L 295.70719 260.657168 
L 297.33862 263.778615 
L 298.97005 266.19964 
L 300.60148 265.927667 
L 302.23291 271.348642 
L 303.86434 268.093728 
L 305.49577 274.897918 
L 307.1272 270.337584 
L 308.75863 129.974639 
L 310.390059 202.280019 
L 312.021489 199.078503 
L 313.652919 237.081844 
L 315.284349 268.795701 
L 316.915779 250.687124 
L 318.547209 236.030821 
L 320.178639 269.018867 
L 321.810069 267.843834 
L 323.441498 270.679263 
L 325.072928 284.159409 
L 326.704358 253.840133 
L 328.335788 255.256238 
L 329.967218 285.585402 
L 331.598648 238.045216 
L 333.230078 273.751359 
L 334.861508 251.661127 
L 336.492937 223.79547 
L 338.124367 231.914428 
L 339.755797 238.336759 
L 341.387227 250.158815 
L 343.018657 254.912627 
L 344.650087 260.668035 
L 346.281517 262.147147 
L 349.544376 265.640004 
L 351.175806 266.702049 
L 352.807236 271.603135 
L 354.438666 269.482309 
L 356.070096 274.699142 
L 357.701526 272.697128 
L 359.332956 276.595462 
L 360.964386 275.822675 
L 362.595815 265.749236 
L 364.227245 276.513262 
L 365.858675 163.316846 
L 367.490105 86.264896 
L 369.121535 193.550345 
L 370.752965 223.316824 
L 372.384395 278.543793 
L 374.015825 247.460341 
L 375.647254 266.148543 
L 377.278684 271.707017 
L 378.910114 266.413055 
L 380.541544 268.717178 
L 382.172974 266.627773 
L 383.804404 273.388173 
L 385.435834 269.491897 
L 387.067264 273.754318 
L 388.698693 270.962131 
L 390.330123 274.670981 
L 391.961553 272.115555 
L 393.592983 275.793175 
L 395.224413 272.83623 
L 396.855843 276.881254 
L 398.487273 280.440365 
L 398.487273 280.440365 
" clip-path="url(#pcc45ec12e8)" style="fill: none; stroke: #1f77b4; stroke-width: 1.5; stroke-linecap: square"/>
   </g>
   <g id="line2d_17">
    <path d="M 73.832727 96.147227 
L 75.464157 202.473405 
L 77.095587 232.800003 
L 78.727017 246.753935 
L 80.358447 243.537496 
L 81.989877 251.977604 
L 83.621307 268.419014 
L 85.252736 237.138823 
L 86.884166 262.914478 
L 88.515596 261.64736 
L 90.147026 254.187048 
L 91.778456 262.075136 
L 93.409886 254.697459 
L 95.041316 262.121142 
L 96.672746 257.678164 
L 98.304175 258.20033 
L 99.935605 264.581795 
L 101.567035 257.965437 
L 103.198465 264.993767 
L 104.829895 265.703056 
L 106.461325 263.274761 
L 108.092755 258.028196 
L 109.724185 267.331203 
L 111.355614 260.424787 
L 112.987044 257.048567 
L 114.618474 267.708934 
L 116.249904 273.346848 
L 117.881334 259.163657 
L 119.512764 273.034231 
L 121.144194 262.094455 
L 122.775624 261.966463 
L 124.407053 267.227155 
L 126.038483 262.947989 
L 127.669913 275.337909 
L 129.301343 278.553296 
L 130.932773 263.510592 
L 132.564203 286.560479 
L 134.195633 282.039155 
L 135.827063 262.161639 
L 137.458492 254.380405 
L 139.089922 251.607541 
L 140.721352 256.182302 
L 142.352782 259.956063 
L 143.984212 264.049074 
L 145.615642 263.916337 
L 147.247072 270.696706 
L 148.878502 270.143574 
L 150.509931 274.317481 
L 152.141361 270.941363 
L 153.772791 157.579601 
L 155.404221 274.147613 
L 157.035651 260.064626 
L 158.667081 268.075326 
L 160.298511 279.962764 
L 161.929941 278.351154 
L 163.56137 273.877686 
L 165.1928 237.338874 
L 166.82423 271.664774 
L 168.45566 269.227548 
L 170.08709 278.288395 
L 171.71852 273.109734 
L 173.34995 268.459142 
L 174.98138 264.270405 
L 176.61281 262.095734 
L 178.244239 269.680046 
L 179.875669 269.55106 
L 181.507099 275.210957 
L 183.138529 273.293048 
L 184.769959 277.71352 
L 186.401389 276.637453 
L 188.032819 279.747485 
L 189.664249 280.616246 
L 191.295678 283.015784 
L 192.927108 284.534663 
L 194.558538 287.029152 
L 196.189968 287.460475 
L 197.821398 288.049258 
L 199.452828 285.813943 
L 201.084258 247.335983 
L 202.715688 237.089387 
L 204.347117 287.469086 
L 205.978547 255.688641 
L 207.609977 283.056704 
L 209.241407 294.407038 
L 210.872837 291.077167 
L 212.504267 292.807845 
L 214.135697 287.63343 
L 215.767127 292.756393 
L 217.398556 293.008951 
L 219.029986 276.075853 
L 220.661416 280.589531 
L 222.292846 278.848502 
L 223.924276 280.064685 
L 225.555706 295.488 
L 227.187136 270.970867 
L 228.818566 271.251548 
L 230.449995 277.487143 
L 232.081425 266.721961 
L 233.712855 274.799565 
L 235.344285 276.771286 
L 236.975715 287.033948 
L 238.607145 277.88118 
L 240.238575 279.311664 
L 241.870005 285.933393 
L 243.501434 288.225618 
L 245.132864 254.784794 
L 246.764294 271.938659 
L 248.395724 262.272747 
L 250.027154 285.145052 
L 251.658584 248.128889 
L 253.290014 273.699592 
L 254.921444 241.867946 
L 256.552873 248.644118 
L 258.184303 289.179464 
L 259.815733 264.61477 
L 261.447163 280.790698 
L 263.078593 288.715076 
L 264.710023 279.02828 
L 266.341453 289.9735 
L 267.972883 285.888128 
L 269.604312 247.211901 
L 271.235742 270.407594 
L 272.867172 280.395707 
L 274.498602 260.428347 
L 276.130032 269.348431 
L 277.761462 266.808683 
L 279.392892 293.920422 
L 281.024322 278.992008 
L 282.655751 244.391107 
L 284.287181 257.083852 
L 285.918611 251.064858 
L 287.550041 267.239463 
L 289.181471 270.129625 
L 290.812901 271.800332 
L 292.444331 276.979209 
L 294.075761 274.761609 
L 295.70719 279.353119 
L 297.33862 278.428232 
L 298.97005 283.014753 
L 300.60148 278.202707 
L 302.23291 286.521648 
L 303.86434 279.341814 
L 305.49577 288.817214 
L 307.1272 278.390264 
L 308.75863 258.625029 
L 310.390059 195.343774 
L 312.021489 263.998894 
L 313.652919 246.678534 
L 315.284349 253.086584 
L 316.915779 277.203755 
L 318.547209 242.35661 
L 320.178639 239.825102 
L 321.810069 262.827093 
L 323.441498 268.983367 
L 325.072928 259.336221 
L 326.704358 275.130067 
L 328.335788 276.998138 
L 329.967218 267.363849 
L 331.598648 252.690477 
L 333.230078 290.738988 
L 334.861508 246.211118 
L 336.492937 252.057137 
L 338.124367 262.74877 
L 339.755797 252.213796 
L 341.387227 251.019254 
L 343.018657 254.359726 
L 344.650087 266.752707 
L 346.281517 263.233537 
L 347.912947 272.757566 
L 349.544376 268.629307 
L 351.175806 277.543911 
L 352.807236 269.912208 
L 354.438666 280.588045 
L 356.070096 272.111621 
L 357.701526 282.191759 
L 359.332956 274.17885 
L 360.964386 283.108641 
L 362.595815 283.641017 
L 364.227245 233.599859 
L 365.858675 163.724256 
L 369.121535 257.405919 
L 370.752965 237.260413 
L 372.384395 258.597932 
L 374.015825 268.17715 
L 375.647254 275.431443 
L 377.278684 266.424161 
L 378.910114 282.393572 
L 380.541544 272.684657 
L 382.172974 283.843277 
L 383.804404 272.921268 
L 385.435834 283.929199 
L 387.067264 275.347595 
L 388.698693 283.669133 
L 390.330123 276.8162 
L 391.961553 283.562397 
L 393.592983 277.726985 
L 395.224413 283.7384 
L 396.855843 277.916693 
L 398.487273 252.409585 
L 398.487273 252.409585 
" clip-path="url(#pcc45ec12e8)" style="fill: none; stroke: #ff7f0e; stroke-width: 1.5; stroke-linecap: square"/>
   </g>
   <g id="patch_3">
    <path d="M 57.6 307.584 
L 57.6 41.472 
" style="fill: none; stroke: #000000; stroke-width: 0.8; stroke-linejoin: miter; stroke-linecap: square"/>
   </g>
   <g id="patch_4">
    <path d="M 414.72 307.584 
L 414.72 41.472 
" style="fill: none; stroke: #000000; stroke-width: 0.8; stroke-linejoin: miter; stroke-linecap: square"/>
   </g>
   <g id="patch_5">
    <path d="M 57.6 307.584 
L 414.72 307.584 
" style="fill: none; stroke: #000000; stroke-width: 0.8; stroke-linejoin: miter; stroke-linecap: square"/>
   </g>
   <g id="patch_6">
    <path d="M 57.6 41.472 
L 414.72 41.472 
" style="fill: none; stroke: #000000; stroke-width: 0.8; stroke-linejoin: miter; stroke-linecap: square"/>
   </g>
   <g id="legend_1">
    <g id="patch_7">
     <path d="M 329.95125 78.82825 
L 407.72 78.82825 
Q 409.72 78.82825 409.72 76.82825 
L 409.72 48.472 
Q 409.72 46.472 407.72 46.472 
L 329.95125 46.472 
Q 327.95125 46.472 327.95125 48.472 
L 327.95125 76.82825 
Q 327.95125 78.82825 329.95125 78.82825 
z
" style="fill: #ffffff; opacity: 0.8; stroke: #cccccc; stroke-linejoin: miter"/>
    </g>
    <g id="line2d_18">
     <path d="M 331.95125 54.570437 
L 341.95125 54.570437 
L 351.95125 54.570437 
" style="fill: none; stroke: #1f77b4; stroke-width: 1.5; stroke-linecap: square"/>
    </g>
    <g id="text_18">
     <!-- train loss -->
     <g transform="translate(359.95125 58.070437) scale(0.1 -0.1)">
      <defs>
       <path id="DejaVuSans-74" d="M 1172 4494 
L 1172 3500 
L 2356 3500 
L 2356 3053 
L 1172 3053 
L 1172 1153 
Q 1172 725 1289 603 
Q 1406 481 1766 481 
L 2356 481 
L 2356 0 
L 1766 0 
Q 1100 0 847 248 
Q 594 497 594 1153 
L 594 3053 
L 172 3053 
L 172 3500 
L 594 3500 
L 594 4494 
L 1172 4494 
z
" transform="scale(0.015625)"/>
       <path id="DejaVuSans-72" d="M 2631 2963 
Q 2534 3019 2420 3045 
Q 2306 3072 2169 3072 
Q 1681 3072 1420 2755 
Q 1159 2438 1159 1844 
L 1159 0 
L 581 0 
L 581 3500 
L 1159 3500 
L 1159 2956 
Q 1341 3275 1631 3429 
Q 1922 3584 2338 3584 
Q 2397 3584 2469 3576 
Q 2541 3569 2628 3553 
L 2631 2963 
z
" transform="scale(0.015625)"/>
       <path id="DejaVuSans-61" d="M 2194 1759 
Q 1497 1759 1228 1600 
Q 959 1441 959 1056 
Q 959 750 1161 570 
Q 1363 391 1709 391 
Q 2188 391 2477 730 
Q 2766 1069 2766 1631 
L 2766 1759 
L 2194 1759 
z
M 3341 1997 
L 3341 0 
L 2766 0 
L 2766 531 
Q 2569 213 2275 61 
Q 1981 -91 1556 -91 
Q 1019 -91 701 211 
Q 384 513 384 1019 
Q 384 1609 779 1909 
Q 1175 2209 1959 2209 
L 2766 2209 
L 2766 2266 
Q 2766 2663 2505 2880 
Q 2244 3097 1772 3097 
Q 1472 3097 1187 3025 
Q 903 2953 641 2809 
L 641 3341 
Q 956 3463 1253 3523 
Q 1550 3584 1831 3584 
Q 2591 3584 2966 3190 
Q 3341 2797 3341 1997 
z
" transform="scale(0.015625)"/>
       <path id="DejaVuSans-69" d="M 603 3500 
L 1178 3500 
L 1178 0 
L 603 0 
L 603 3500 
z
M 603 4863 
L 1178 4863 
L 1178 4134 
L 603 4134 
L 603 4863 
z
" transform="scale(0.015625)"/>
       <path id="DejaVuSans-6e" d="M 3513 2113 
L 3513 0 
L 2938 0 
L 2938 2094 
Q 2938 2591 2744 2837 
Q 2550 3084 2163 3084 
Q 1697 3084 1428 2787 
Q 1159 2491 1159 1978 
L 1159 0 
L 581 0 
L 581 3500 
L 1159 3500 
L 1159 2956 
Q 1366 3272 1645 3428 
Q 1925 3584 2291 3584 
Q 2894 3584 3203 3211 
Q 3513 2838 3513 2113 
z
" transform="scale(0.015625)"/>
       <path id="DejaVuSans-20" transform="scale(0.015625)"/>
      </defs>
      <use xlink:href="#DejaVuSans-74"/>
      <use xlink:href="#DejaVuSans-72" x="39.208984"/>
      <use xlink:href="#DejaVuSans-61" x="80.322266"/>
      <use xlink:href="#DejaVuSans-69" x="141.601562"/>
      <use xlink:href="#DejaVuSans-6e" x="169.384766"/>
      <use xlink:href="#DejaVuSans-20" x="232.763672"/>
      <use xlink:href="#DejaVuSans-6c" x="264.550781"/>
      <use xlink:href="#DejaVuSans-6f" x="292.333984"/>
      <use xlink:href="#DejaVuSans-73" x="353.515625"/>
      <use xlink:href="#DejaVuSans-73" x="405.615234"/>
     </g>
    </g>
    <g id="line2d_19">
     <path d="M 331.95125 69.248562 
L 341.95125 69.248562 
L 351.95125 69.248562 
" style="fill: none; stroke: #ff7f0e; stroke-width: 1.5; stroke-linecap: square"/>
    </g>
    <g id="text_19">
     <!-- test loss -->
     <g transform="translate(359.95125 72.748562) scale(0.1 -0.1)">
      <use xlink:href="#DejaVuSans-74"/>
      <use xlink:href="#DejaVuSans-65" x="39.208984"/>
      <use xlink:href="#DejaVuSans-73" x="100.732422"/>
      <use xlink:href="#DejaVuSans-74" x="152.832031"/>
      <use xlink:href="#DejaVuSans-20" x="192.041016"/>
      <use xlink:href="#DejaVuSans-6c" x="223.828125"/>
      <use xlink:href="#DejaVuSans-6f" x="251.611328"/>
      <use xlink:href="#DejaVuSans-73" x="312.792969"/>
      <use xlink:href="#DejaVuSans-73" x="364.892578"/>
     </g>
    </g>
   </g>
  </g>
 </g>
 <defs>
  <clipPath id="pcc45ec12e8">
   <rect x="57.6" y="41.472" width="357.12" height="266.112"/>
  </clipPath>
 </defs>
</svg>
