<?xml version="1.0" encoding="utf-8" standalone="no"?>
<!DOCTYPE svg PUBLIC "-//W3C//DTD SVG 1.1//EN"
  "http://www.w3.org/Graphics/SVG/1.1/DTD/svg11.dtd">
<svg xmlns:xlink="http://www.w3.org/1999/xlink" width="460.8pt" height="345.6pt" viewBox="0 0 460.8 345.6" xmlns="http://www.w3.org/2000/svg" version="1.1">
 <metadata>
  <rdf:RDF xmlns:dc="http://purl.org/dc/elements/1.1/" xmlns:cc="http://creativecommons.org/ns#" xmlns:rdf="http://www.w3.org/1999/02/22-rdf-syntax-ns#">
   <cc:Work>
    <dc:type rdf:resource="http://purl.org/dc/dcmitype/StillImage"/>
    <dc:date>2024-07-05T11:41:54.262455</dc:date>
    <dc:format>image/svg+xml</dc:format>
    <dc:creator>
     <cc:Agent>
      <dc:title>Matplotlib v3.7.1, https://matplotlib.org/</dc:title>
     </cc:Agent>
    </dc:creator>
   </cc:Work>
  </rdf:RDF>
 </metadata>
 <defs>
  <style type="text/css">*{stroke-linejoin: round; stroke-linecap: butt}</style>
 </defs>
 <g id="figure_1">
  <g id="patch_1">
   <path d="M 0 345.6 
L 460.8 345.6 
L 460.8 0 
L 0 0 
z
" style="fill: #ffffff"/>
  </g>
  <g id="axes_1">
   <g id="patch_2">
    <path d="M 57.6 307.584 
L 414.72 307.584 
L 414.72 41.472 
L 57.6 41.472 
z
" style="fill: #ffffff"/>
   </g>
   <g id="matplotlib.axis_1">
    <g id="xtick_1">
     <g id="line2d_1">
      <defs>
       <path id="mae77e2de73" d="M 0 0 
L 0 3.5 
" style="stroke: #000000; stroke-width: 0.8"/>
      </defs>
      <g>
       <use xlink:href="#mae77e2de73" x="73.832727" y="307.584" style="stroke: #000000; stroke-width: 0.8"/>
      </g>
     </g>
     <g id="text_1">
      <!-- 0 -->
      <g transform="translate(70.651477 322.182437) scale(0.1 -0.1)">
       <defs>
        <path id="DejaVuSans-30" d="M 2034 4250 
Q 1547 4250 1301 3770 
Q 1056 3291 1056 2328 
Q 1056 1369 1301 889 
Q 1547 409 2034 409 
Q 2525 409 2770 889 
Q 3016 1369 3016 2328 
Q 3016 3291 2770 3770 
Q 2525 4250 2034 4250 
z
M 2034 4750 
Q 2819 4750 3233 4129 
Q 3647 3509 3647 2328 
Q 3647 1150 3233 529 
Q 2819 -91 2034 -91 
Q 1250 -91 836 529 
Q 422 1150 422 2328 
Q 422 3509 836 4129 
Q 1250 4750 2034 4750 
z
" transform="scale(0.015625)"/>
       </defs>
       <use xlink:href="#DejaVuSans-30"/>
      </g>
     </g>
    </g>
    <g id="xtick_2">
     <g id="line2d_2">
      <g>
       <use xlink:href="#mae77e2de73" x="137.303802" y="307.584" style="stroke: #000000; stroke-width: 0.8"/>
      </g>
     </g>
     <g id="text_2">
      <!-- 200 -->
      <g transform="translate(127.760052 322.182437) scale(0.1 -0.1)">
       <defs>
        <path id="DejaVuSans-32" d="M 1228 531 
L 3431 531 
L 3431 0 
L 469 0 
L 469 531 
Q 828 903 1448 1529 
Q 2069 2156 2228 2338 
Q 2531 2678 2651 2914 
Q 2772 3150 2772 3378 
Q 2772 3750 2511 3984 
Q 2250 4219 1831 4219 
Q 1534 4219 1204 4116 
Q 875 4013 500 3803 
L 500 4441 
Q 881 4594 1212 4672 
Q 1544 4750 1819 4750 
Q 2544 4750 2975 4387 
Q 3406 4025 3406 3419 
Q 3406 3131 3298 2873 
Q 3191 2616 2906 2266 
Q 2828 2175 2409 1742 
Q 1991 1309 1228 531 
z
" transform="scale(0.015625)"/>
       </defs>
       <use xlink:href="#DejaVuSans-32"/>
       <use xlink:href="#DejaVuSans-30" x="63.623047"/>
       <use xlink:href="#DejaVuSans-30" x="127.246094"/>
      </g>
     </g>
    </g>
    <g id="xtick_3">
     <g id="line2d_3">
      <g>
       <use xlink:href="#mae77e2de73" x="200.774876" y="307.584" style="stroke: #000000; stroke-width: 0.8"/>
      </g>
     </g>
     <g id="text_3">
      <!-- 400 -->
      <g transform="translate(191.231126 322.182437) scale(0.1 -0.1)">
       <defs>
        <path id="DejaVuSans-34" d="M 2419 4116 
L 825 1625 
L 2419 1625 
L 2419 4116 
z
M 2253 4666 
L 3047 4666 
L 3047 1625 
L 3713 1625 
L 3713 1100 
L 3047 1100 
L 3047 0 
L 2419 0 
L 2419 1100 
L 313 1100 
L 313 1709 
L 2253 4666 
z
" transform="scale(0.015625)"/>
       </defs>
       <use xlink:href="#DejaVuSans-34"/>
       <use xlink:href="#DejaVuSans-30" x="63.623047"/>
       <use xlink:href="#DejaVuSans-30" x="127.246094"/>
      </g>
     </g>
    </g>
    <g id="xtick_4">
     <g id="line2d_4">
      <g>
       <use xlink:href="#mae77e2de73" x="264.24595" y="307.584" style="stroke: #000000; stroke-width: 0.8"/>
      </g>
     </g>
     <g id="text_4">
      <!-- 600 -->
      <g transform="translate(254.7022 322.182437) scale(0.1 -0.1)">
       <defs>
        <path id="DejaVuSans-36" d="M 2113 2584 
Q 1688 2584 1439 2293 
Q 1191 2003 1191 1497 
Q 1191 994 1439 701 
Q 1688 409 2113 409 
Q 2538 409 2786 701 
Q 3034 994 3034 1497 
Q 3034 2003 2786 2293 
Q 2538 2584 2113 2584 
z
M 3366 4563 
L 3366 3988 
Q 3128 4100 2886 4159 
Q 2644 4219 2406 4219 
Q 1781 4219 1451 3797 
Q 1122 3375 1075 2522 
Q 1259 2794 1537 2939 
Q 1816 3084 2150 3084 
Q 2853 3084 3261 2657 
Q 3669 2231 3669 1497 
Q 3669 778 3244 343 
Q 2819 -91 2113 -91 
Q 1303 -91 875 529 
Q 447 1150 447 2328 
Q 447 3434 972 4092 
Q 1497 4750 2381 4750 
Q 2619 4750 2861 4703 
Q 3103 4656 3366 4563 
z
" transform="scale(0.015625)"/>
       </defs>
       <use xlink:href="#DejaVuSans-36"/>
       <use xlink:href="#DejaVuSans-30" x="63.623047"/>
       <use xlink:href="#DejaVuSans-30" x="127.246094"/>
      </g>
     </g>
    </g>
    <g id="xtick_5">
     <g id="line2d_5">
      <g>
       <use xlink:href="#mae77e2de73" x="327.717025" y="307.584" style="stroke: #000000; stroke-width: 0.8"/>
      </g>
     </g>
     <g id="text_5">
      <!-- 800 -->
      <g transform="translate(318.173275 322.182437) scale(0.1 -0.1)">
       <defs>
        <path id="DejaVuSans-38" d="M 2034 2216 
Q 1584 2216 1326 1975 
Q 1069 1734 1069 1313 
Q 1069 891 1326 650 
Q 1584 409 2034 409 
Q 2484 409 2743 651 
Q 3003 894 3003 1313 
Q 3003 1734 2745 1975 
Q 2488 2216 2034 2216 
z
M 1403 2484 
Q 997 2584 770 2862 
Q 544 3141 544 3541 
Q 544 4100 942 4425 
Q 1341 4750 2034 4750 
Q 2731 4750 3128 4425 
Q 3525 4100 3525 3541 
Q 3525 3141 3298 2862 
Q 3072 2584 2669 2484 
Q 3125 2378 3379 2068 
Q 3634 1759 3634 1313 
Q 3634 634 3220 271 
Q 2806 -91 2034 -91 
Q 1263 -91 848 271 
Q 434 634 434 1313 
Q 434 1759 690 2068 
Q 947 2378 1403 2484 
z
M 1172 3481 
Q 1172 3119 1398 2916 
Q 1625 2713 2034 2713 
Q 2441 2713 2670 2916 
Q 2900 3119 2900 3481 
Q 2900 3844 2670 4047 
Q 2441 4250 2034 4250 
Q 1625 4250 1398 4047 
Q 1172 3844 1172 3481 
z
" transform="scale(0.015625)"/>
       </defs>
       <use xlink:href="#DejaVuSans-38"/>
       <use xlink:href="#DejaVuSans-30" x="63.623047"/>
       <use xlink:href="#DejaVuSans-30" x="127.246094"/>
      </g>
     </g>
    </g>
    <g id="xtick_6">
     <g id="line2d_6">
      <g>
       <use xlink:href="#mae77e2de73" x="391.188099" y="307.584" style="stroke: #000000; stroke-width: 0.8"/>
      </g>
     </g>
     <g id="text_6">
      <!-- 1000 -->
      <g transform="translate(378.463099 322.182437) scale(0.1 -0.1)">
       <defs>
        <path id="DejaVuSans-31" d="M 794 531 
L 1825 531 
L 1825 4091 
L 703 3866 
L 703 4441 
L 1819 4666 
L 2450 4666 
L 2450 531 
L 3481 531 
L 3481 0 
L 794 0 
L 794 531 
z
" transform="scale(0.015625)"/>
       </defs>
       <use xlink:href="#DejaVuSans-31"/>
       <use xlink:href="#DejaVuSans-30" x="63.623047"/>
       <use xlink:href="#DejaVuSans-30" x="127.246094"/>
       <use xlink:href="#DejaVuSans-30" x="190.869141"/>
      </g>
     </g>
    </g>
    <g id="text_7">
     <!-- n -->
     <g transform="translate(232.99125 335.860562) scale(0.1 -0.1)">
      <defs>
       <path id="DejaVuSans-6e" d="M 3513 2113 
L 3513 0 
L 2938 0 
L 2938 2094 
Q 2938 2591 2744 2837 
Q 2550 3084 2163 3084 
Q 1697 3084 1428 2787 
Q 1159 2491 1159 1978 
L 1159 0 
L 581 0 
L 581 3500 
L 1159 3500 
L 1159 2956 
Q 1366 3272 1645 3428 
Q 1925 3584 2291 3584 
Q 2894 3584 3203 3211 
Q 3513 2838 3513 2113 
z
" transform="scale(0.015625)"/>
      </defs>
      <use xlink:href="#DejaVuSans-6e"/>
     </g>
    </g>
   </g>
   <g id="matplotlib.axis_2">
    <g id="ytick_1">
     <g id="line2d_7">
      <defs>
       <path id="m19513caeec" d="M 0 0 
L -3.5 0 
" style="stroke: #000000; stroke-width: 0.8"/>
      </defs>
      <g>
       <use xlink:href="#m19513caeec" x="57.6" y="302.157792" style="stroke: #000000; stroke-width: 0.8"/>
      </g>
     </g>
     <g id="text_8">
      <!-- −0.6 -->
      <g transform="translate(26.317187 305.957011) scale(0.1 -0.1)">
       <defs>
        <path id="DejaVuSans-2212" d="M 678 2272 
L 4684 2272 
L 4684 1741 
L 678 1741 
L 678 2272 
z
" transform="scale(0.015625)"/>
        <path id="DejaVuSans-2e" d="M 684 794 
L 1344 794 
L 1344 0 
L 684 0 
L 684 794 
z
" transform="scale(0.015625)"/>
       </defs>
       <use xlink:href="#DejaVuSans-2212"/>
       <use xlink:href="#DejaVuSans-30" x="83.789062"/>
       <use xlink:href="#DejaVuSans-2e" x="147.412109"/>
       <use xlink:href="#DejaVuSans-36" x="179.199219"/>
      </g>
     </g>
    </g>
    <g id="ytick_2">
     <g id="line2d_8">
      <g>
       <use xlink:href="#m19513caeec" x="57.6" y="260.588494" style="stroke: #000000; stroke-width: 0.8"/>
      </g>
     </g>
     <g id="text_9">
      <!-- −0.4 -->
      <g transform="translate(26.317187 264.387713) scale(0.1 -0.1)">
       <use xlink:href="#DejaVuSans-2212"/>
       <use xlink:href="#DejaVuSans-30" x="83.789062"/>
       <use xlink:href="#DejaVuSans-2e" x="147.412109"/>
       <use xlink:href="#DejaVuSans-34" x="179.199219"/>
      </g>
     </g>
    </g>
    <g id="ytick_3">
     <g id="line2d_9">
      <g>
       <use xlink:href="#m19513caeec" x="57.6" y="219.019196" style="stroke: #000000; stroke-width: 0.8"/>
      </g>
     </g>
     <g id="text_10">
      <!-- −0.2 -->
      <g transform="translate(26.317187 222.818415) scale(0.1 -0.1)">
       <use xlink:href="#DejaVuSans-2212"/>
       <use xlink:href="#DejaVuSans-30" x="83.789062"/>
       <use xlink:href="#DejaVuSans-2e" x="147.412109"/>
       <use xlink:href="#DejaVuSans-32" x="179.199219"/>
      </g>
     </g>
    </g>
    <g id="ytick_4">
     <g id="line2d_10">
      <g>
       <use xlink:href="#m19513caeec" x="57.6" y="177.449898" style="stroke: #000000; stroke-width: 0.8"/>
      </g>
     </g>
     <g id="text_11">
      <!-- 0.0 -->
      <g transform="translate(34.696875 181.249116) scale(0.1 -0.1)">
       <use xlink:href="#DejaVuSans-30"/>
       <use xlink:href="#DejaVuSans-2e" x="63.623047"/>
       <use xlink:href="#DejaVuSans-30" x="95.410156"/>
      </g>
     </g>
    </g>
    <g id="ytick_5">
     <g id="line2d_11">
      <g>
       <use xlink:href="#m19513caeec" x="57.6" y="135.8806" style="stroke: #000000; stroke-width: 0.8"/>
      </g>
     </g>
     <g id="text_12">
      <!-- 0.2 -->
      <g transform="translate(34.696875 139.679818) scale(0.1 -0.1)">
       <use xlink:href="#DejaVuSans-30"/>
       <use xlink:href="#DejaVuSans-2e" x="63.623047"/>
       <use xlink:href="#DejaVuSans-32" x="95.410156"/>
      </g>
     </g>
    </g>
    <g id="ytick_6">
     <g id="line2d_12">
      <g>
       <use xlink:href="#m19513caeec" x="57.6" y="94.311301" style="stroke: #000000; stroke-width: 0.8"/>
      </g>
     </g>
     <g id="text_13">
      <!-- 0.4 -->
      <g transform="translate(34.696875 98.11052) scale(0.1 -0.1)">
       <use xlink:href="#DejaVuSans-30"/>
       <use xlink:href="#DejaVuSans-2e" x="63.623047"/>
       <use xlink:href="#DejaVuSans-34" x="95.410156"/>
      </g>
     </g>
    </g>
    <g id="ytick_7">
     <g id="line2d_13">
      <g>
       <use xlink:href="#m19513caeec" x="57.6" y="52.742003" style="stroke: #000000; stroke-width: 0.8"/>
      </g>
     </g>
     <g id="text_14">
      <!-- 0.6 -->
      <g transform="translate(34.696875 56.541222) scale(0.1 -0.1)">
       <use xlink:href="#DejaVuSans-30"/>
       <use xlink:href="#DejaVuSans-2e" x="63.623047"/>
       <use xlink:href="#DejaVuSans-36" x="95.410156"/>
      </g>
     </g>
    </g>
    <g id="text_15">
     <!-- E*t -->
     <g transform="translate(20.2375 182.147531) rotate(-90) scale(0.1 -0.1)">
      <defs>
       <path id="DejaVuSans-45" d="M 628 4666 
L 3578 4666 
L 3578 4134 
L 1259 4134 
L 1259 2753 
L 3481 2753 
L 3481 2222 
L 1259 2222 
L 1259 531 
L 3634 531 
L 3634 0 
L 628 0 
L 628 4666 
z
" transform="scale(0.015625)"/>
       <path id="DejaVuSans-2a" d="M 3009 3897 
L 1888 3291 
L 3009 2681 
L 2828 2375 
L 1778 3009 
L 1778 1831 
L 1422 1831 
L 1422 3009 
L 372 2375 
L 191 2681 
L 1313 3291 
L 191 3897 
L 372 4206 
L 1422 3572 
L 1422 4750 
L 1778 4750 
L 1778 3572 
L 2828 4206 
L 3009 3897 
z
" transform="scale(0.015625)"/>
       <path id="DejaVuSans-74" d="M 1172 4494 
L 1172 3500 
L 2356 3500 
L 2356 3053 
L 1172 3053 
L 1172 1153 
Q 1172 725 1289 603 
Q 1406 481 1766 481 
L 2356 481 
L 2356 0 
L 1766 0 
Q 1100 0 847 248 
Q 594 497 594 1153 
L 594 3053 
L 172 3053 
L 172 3500 
L 594 3500 
L 594 4494 
L 1172 4494 
z
" transform="scale(0.015625)"/>
      </defs>
      <use xlink:href="#DejaVuSans-45"/>
      <use xlink:href="#DejaVuSans-2a" x="63.183594"/>
      <use xlink:href="#DejaVuSans-74" x="113.183594"/>
     </g>
    </g>
   </g>
   <g id="line2d_14">
    <path d="M 73.832727 295.488 
L 74.150083 292.125904 
L 74.467438 290.275941 
L 75.419504 280.407196 
L 75.73686 280.175067 
L 76.054215 278.322434 
L 76.37157 278.272588 
L 77.006281 276.476002 
L 77.323636 276.373111 
L 77.640992 274.956134 
L 77.958347 274.366357 
L 78.275702 273.426892 
L 78.593058 273.006032 
L 78.910413 271.968852 
L 79.227769 271.699304 
L 79.545124 271.154153 
L 79.862479 269.208994 
L 80.179835 268.595896 
L 80.49719 268.470961 
L 80.814545 267.787781 
L 81.131901 267.40445 
L 81.449256 266.333215 
L 81.766612 265.808153 
L 82.083967 265.643434 
L 82.401322 265.2919 
L 82.718678 265.256726 
L 83.353388 263.987544 
L 83.670744 262.311023 
L 83.988099 262.276047 
L 84.62281 261.805264 
L 84.940165 261.340648 
L 85.257521 261.300303 
L 85.574876 260.708143 
L 85.892231 260.425109 
L 86.209587 259.95652 
L 86.526942 259.943052 
L 86.844298 259.550297 
L 87.479008 259.160868 
L 88.113719 257.344013 
L 88.431074 257.308796 
L 88.74843 257.085205 
L 89.065785 257.052281 
L 89.38314 256.455434 
L 89.700496 256.096816 
L 90.017851 255.31038 
L 90.335207 255.14914 
L 91.604628 253.170706 
L 91.921983 253.129394 
L 92.556694 252.398786 
L 92.87405 252.255636 
L 93.191405 251.970053 
L 93.50876 250.988345 
L 94.143471 250.169737 
L 94.778182 249.930694 
L 95.095537 249.913825 
L 95.730248 249.314966 
L 96.047603 249.30374 
L 96.364959 248.691205 
L 96.999669 248.154242 
L 97.317025 248.136046 
L 97.63438 247.999717 
L 97.951736 247.513108 
L 99.221157 246.605178 
L 99.538512 246.525539 
L 100.490579 245.144011 
L 100.807934 244.82453 
L 101.125289 244.806687 
L 101.76 244.041398 
L 102.077355 243.538394 
L 102.394711 243.378474 
L 102.712066 242.869329 
L 103.029421 242.844809 
L 103.346777 242.476461 
L 103.664132 242.469949 
L 103.981488 242.099309 
L 104.933554 241.526127 
L 105.250909 241.042872 
L 105.568264 240.831628 
L 105.88562 240.115515 
L 106.520331 239.75613 
L 106.837686 239.311309 
L 107.472397 238.905342 
L 109.059174 237.834429 
L 109.693884 237.210483 
L 110.01124 237.201819 
L 110.64595 236.882399 
L 110.963306 236.005062 
L 111.280661 235.940605 
L 112.550083 235.021515 
L 112.867438 234.992244 
L 113.184793 234.363607 
L 113.819504 233.885107 
L 114.13686 233.857896 
L 114.454215 233.367418 
L 114.77157 233.235187 
L 115.406281 232.663571 
L 115.723636 232.176109 
L 116.675702 231.428425 
L 116.993058 231.338668 
L 117.310413 231.080623 
L 117.627769 231.035657 
L 118.262479 230.728152 
L 118.89719 230.611814 
L 119.214545 230.19975 
L 120.166612 229.842603 
L 120.801322 229.419242 
L 121.753388 227.850751 
L 123.657521 226.925352 
L 124.292231 226.222894 
L 124.609587 226.217894 
L 125.561653 225.069205 
L 126.513719 224.542916 
L 129.052562 222.35785 
L 129.687273 221.883293 
L 130.004628 221.104426 
L 130.956694 220.957396 
L 131.591405 220.448559 
L 132.226116 220.312459 
L 133.178182 219.532855 
L 134.130248 219.152809 
L 134.447603 218.649875 
L 134.764959 218.38569 
L 135.717025 217.940372 
L 136.351736 217.689187 
L 136.986446 217.55911 
L 138.255868 216.619908 
L 138.573223 216.582503 
L 139.525289 215.650647 
L 139.842645 215.584492 
L 140.794711 214.925143 
L 141.112066 214.912215 
L 141.746777 214.612386 
L 142.064132 213.939444 
L 142.381488 213.593823 
L 143.333554 213.490371 
L 143.968264 213.234785 
L 144.602975 212.635343 
L 144.920331 212.00199 
L 145.237686 211.977338 
L 146.824463 211.247789 
L 147.141818 210.798238 
L 147.776529 210.652439 
L 150.632727 209.695264 
L 151.267438 208.905694 
L 151.584793 208.678368 
L 151.902149 208.261623 
L 153.17157 207.607854 
L 153.806281 207.201761 
L 154.440992 207.171594 
L 154.758347 206.844841 
L 155.393058 206.785844 
L 155.710413 206.363697 
L 156.345124 206.151789 
L 156.662479 205.855535 
L 156.979835 205.291798 
L 157.614545 205.037478 
L 157.931901 205.032306 
L 158.249256 204.744484 
L 158.883967 204.687585 
L 159.201322 204.400111 
L 159.518678 203.921851 
L 159.836033 203.867684 
L 160.153388 203.692438 
L 160.470744 203.676947 
L 160.788099 203.406545 
L 161.105455 203.338057 
L 161.740165 203.007725 
L 162.692231 202.324784 
L 163.009587 201.737012 
L 163.326942 201.422565 
L 163.961653 201.294587 
L 164.913719 201.001337 
L 165.865785 200.672339 
L 168.404628 199.662072 
L 168.721983 199.35456 
L 169.67405 199.045156 
L 169.991405 199.00586 
L 170.30876 198.815748 
L 170.626116 198.434837 
L 171.260826 198.399802 
L 171.895537 198.015792 
L 172.212893 197.989442 
L 172.530248 197.535095 
L 172.847603 197.358914 
L 173.482314 197.18866 
L 174.117025 196.919032 
L 175.069091 196.656152 
L 175.386446 196.386187 
L 176.021157 196.255997 
L 176.655868 196.020868 
L 177.607934 195.842393 
L 177.925289 195.358713 
L 178.242645 195.339323 
L 178.877355 194.897085 
L 180.146777 194.18102 
L 181.733554 193.510305 
L 182.368264 193.340079 
L 183.002975 193.097541 
L 183.320331 193.066714 
L 183.637686 192.922295 
L 183.955041 192.404858 
L 184.589752 192.22059 
L 185.224463 192.136312 
L 185.541818 192.069795 
L 186.176529 191.744478 
L 186.81124 191.543476 
L 187.128595 191.524171 
L 187.763306 191.143155 
L 188.715372 190.913337 
L 190.93686 190.331322 
L 191.254215 190.002269 
L 191.888926 189.915114 
L 192.523636 189.491835 
L 193.793058 189.020512 
L 194.110413 188.752154 
L 194.745124 188.639504 
L 195.062479 188.481813 
L 195.379835 188.462914 
L 195.69719 188.147211 
L 196.331901 188.01086 
L 196.966612 187.71186 
L 197.283967 187.287653 
L 197.918678 186.830653 
L 199.188099 186.612543 
L 199.82281 186.296407 
L 201.409587 185.801025 
L 202.361653 185.524137 
L 203.313719 185.370808 
L 203.631074 185.007532 
L 205.535207 184.038914 
L 205.852562 183.987492 
L 206.169917 183.674365 
L 209.343471 182.875056 
L 209.660826 182.859651 
L 209.978182 182.685577 
L 210.295537 182.210476 
L 211.564959 181.86237 
L 212.517025 181.583912 
L 213.151736 181.201765 
L 213.786446 181.040202 
L 214.738512 180.72908 
L 215.373223 180.586003 
L 215.690579 180.303663 
L 216.007934 180.24263 
L 216.642645 179.839884 
L 217.277355 179.784145 
L 217.594711 179.527259 
L 217.912066 179.48576 
L 218.229421 179.229956 
L 218.864132 179.136947 
L 219.498843 178.959134 
L 219.816198 178.724212 
L 221.08562 178.280183 
L 221.720331 177.918278 
L 222.037686 177.761223 
L 222.989752 177.66818 
L 225.84595 176.653409 
L 226.163306 176.308406 
L 228.384793 175.565813 
L 228.702149 175.533025 
L 229.019504 175.327811 
L 229.97157 175.127677 
L 232.193058 174.564613 
L 233.779835 174.088568 
L 234.09719 174.029432 
L 234.414545 173.696771 
L 235.683967 173.159115 
L 236.318678 172.928673 
L 236.636033 172.651832 
L 240.126942 171.414619 
L 241.079008 171.148236 
L 241.713719 170.684381 
L 242.665785 170.520524 
L 243.617851 170.284692 
L 244.252562 170.131003 
L 245.204628 169.863932 
L 246.156694 169.613297 
L 246.791405 169.390831 
L 248.060826 168.985966 
L 248.695537 168.655986 
L 249.330248 168.533126 
L 249.647603 168.429369 
L 249.964959 168.124186 
L 252.186446 167.488588 
L 252.821157 167.233281 
L 254.090579 166.868917 
L 254.725289 166.67925 
L 255.36 166.566812 
L 255.677355 166.226934 
L 256.312066 165.930306 
L 256.629421 165.89919 
L 257.264132 165.457908 
L 257.898843 165.271955 
L 258.216198 165.055294 
L 259.168264 164.84539 
L 259.802975 164.605371 
L 265.198017 163.064892 
L 265.515372 163.03881 
L 265.832727 162.66987 
L 266.467438 162.443784 
L 268.688926 161.599453 
L 269.323636 161.472422 
L 269.640992 161.171084 
L 271.227769 160.678247 
L 271.545124 160.319383 
L 272.814545 160.004724 
L 273.131901 159.976516 
L 274.083967 159.571199 
L 274.718678 159.42173 
L 275.353388 159.260581 
L 275.988099 158.993058 
L 276.62281 158.886944 
L 276.940165 158.609871 
L 278.844298 157.934627 
L 280.113719 157.39689 
L 280.74843 157.323183 
L 281.065785 157.015152 
L 282.017851 156.837904 
L 282.652562 156.784891 
L 283.287273 156.379318 
L 285.826116 155.645581 
L 286.143471 155.606124 
L 286.460826 155.389072 
L 286.778182 155.364108 
L 287.095537 155.113056 
L 287.730248 154.93823 
L 288.364959 154.426904 
L 289.317025 154.271146 
L 290.586446 153.724088 
L 290.903802 153.656425 
L 291.221157 153.263355 
L 293.125289 152.746775 
L 293.442645 152.585165 
L 294.077355 152.513907 
L 294.394711 152.111681 
L 295.981488 151.774648 
L 296.298843 151.666256 
L 296.616198 151.309343 
L 297.568264 150.865753 
L 299.789752 149.98817 
L 300.424463 149.881766 
L 301.693884 149.432289 
L 302.01124 149.377556 
L 302.328595 149.056079 
L 302.963306 148.868736 
L 303.915372 148.675342 
L 304.232727 148.3458 
L 304.867438 148.126974 
L 305.502149 147.938754 
L 306.454215 147.517346 
L 306.77157 147.454009 
L 307.088926 147.25392 
L 308.040992 147.052993 
L 308.358347 146.609103 
L 308.675702 146.37668 
L 308.993058 146.334629 
L 309.627769 145.844472 
L 311.531901 145.481764 
L 312.801322 144.592954 
L 313.436033 144.515814 
L 313.753388 144.374523 
L 314.388099 143.815412 
L 316.609587 143.11851 
L 317.244298 142.48793 
L 320.417851 141.923374 
L 320.735207 141.814636 
L 321.369917 141.393402 
L 321.687273 141.28656 
L 322.004628 140.977756 
L 323.90876 140.135757 
L 324.226116 139.813858 
L 324.860826 139.686228 
L 325.178182 139.445442 
L 327.399669 138.910124 
L 327.717025 138.852038 
L 328.669091 138.182876 
L 328.986446 137.871204 
L 330.573223 137.218396 
L 330.890579 136.783345 
L 331.842645 136.62498 
L 332.477355 136.517928 
L 333.112066 135.825156 
L 334.064132 135.500837 
L 335.016198 135.197745 
L 335.333554 134.849866 
L 335.968264 134.609094 
L 336.602975 134.492849 
L 337.237686 134.173175 
L 338.189752 133.922755 
L 338.507107 133.737671 
L 338.824463 133.69959 
L 339.141818 133.443808 
L 339.459174 132.760694 
L 340.41124 132.450719 
L 341.04595 132.362064 
L 341.363306 132.140487 
L 341.998017 132.003674 
L 342.632727 131.871221 
L 343.267438 131.169694 
L 343.584793 130.805827 
L 343.902149 130.753742 
L 344.53686 129.806245 
L 346.440992 129.201537 
L 346.758347 128.7374 
L 347.075702 128.708617 
L 348.345124 127.805861 
L 348.979835 127.249289 
L 349.931901 127.088099 
L 350.249256 127.032417 
L 350.566612 126.826563 
L 351.201322 126.272843 
L 351.836033 126.085609 
L 352.470744 125.428655 
L 352.788099 125.382254 
L 353.105455 125.175752 
L 353.42281 125.138507 
L 353.740165 124.846047 
L 354.057521 124.74809 
L 354.374876 124.323257 
L 354.692231 124.29272 
L 355.009587 123.564864 
L 355.961653 123.105256 
L 356.596364 122.751696 
L 356.913719 122.61291 
L 357.231074 122.25969 
L 357.865785 122.186284 
L 358.18314 121.879941 
L 358.817851 121.650416 
L 359.135207 121.040366 
L 360.404628 120.577914 
L 360.721983 120.331333 
L 361.356694 120.1376 
L 361.67405 119.408271 
L 362.30876 119.060826 
L 362.626116 119.015227 
L 363.260826 118.168137 
L 363.578182 117.740727 
L 363.895537 117.577474 
L 364.212893 117.563198 
L 364.530248 117.328054 
L 364.847603 117.296853 
L 365.482314 116.616571 
L 366.43438 116.094356 
L 367.386446 115.579928 
L 368.338512 115.161584 
L 368.973223 114.730744 
L 369.290579 114.207091 
L 369.607934 114.001657 
L 369.925289 113.573735 
L 370.877355 113.130401 
L 371.829421 111.262071 
L 372.781488 111.020552 
L 373.733554 110.562041 
L 374.050909 110.532475 
L 374.368264 110.015931 
L 374.68562 109.858233 
L 375.002975 109.457304 
L 375.320331 109.433802 
L 375.955041 108.485837 
L 376.272397 108.344637 
L 376.907107 107.724215 
L 377.541818 107.089685 
L 377.859174 106.666764 
L 378.493884 106.163455 
L 378.81124 105.823756 
L 379.128595 105.746991 
L 380.080661 104.938933 
L 380.715372 104.129548 
L 381.032727 103.916428 
L 381.350083 103.179824 
L 381.667438 103.012549 
L 381.984793 102.993103 
L 382.302149 102.776449 
L 382.619504 101.366621 
L 382.93686 101.334457 
L 383.57157 100.975926 
L 383.888926 100.412853 
L 384.206281 100.102676 
L 384.523636 100.062712 
L 384.840992 99.650606 
L 385.158347 99.443454 
L 385.475702 98.023901 
L 385.793058 97.45594 
L 386.110413 97.421561 
L 386.427769 96.180687 
L 387.062479 95.738461 
L 387.379835 94.670922 
L 387.69719 94.336486 
L 388.014545 93.752285 
L 388.331901 93.414115 
L 388.649256 93.245675 
L 388.966612 92.84187 
L 389.283967 92.629147 
L 389.601322 91.010019 
L 389.918678 90.792637 
L 390.236033 90.373564 
L 390.553388 89.315468 
L 391.188099 88.735511 
L 391.82281 87.669993 
L 392.140165 87.233365 
L 392.457521 86.235434 
L 393.092231 85.812058 
L 393.726942 84.318487 
L 394.044298 82.051794 
L 394.361653 81.941214 
L 395.313719 79.53461 
L 395.631074 79.14935 
L 395.94843 75.277445 
L 396.900496 72.683668 
L 397.217851 67.267991 
L 397.535207 65.647175 
L 397.852562 60.231334 
L 398.169917 58.983818 
L 398.487273 53.568 
L 398.487273 53.568 
" clip-path="url(#pedb1aacb83)" style="fill: none; stroke: #1f77b4; stroke-width: 1.5; stroke-linecap: square"/>
   </g>
   <g id="line2d_15">
    <path d="M 73.832727 187.414312 
L 74.784793 187.32455 
L 75.102149 187.196818 
L 76.688926 187.125238 
L 77.640992 186.956344 
L 77.958347 186.738697 
L 78.593058 186.676909 
L 79.545124 186.442144 
L 79.862479 186.442144 
L 80.179835 186.312221 
L 81.449256 186.249335 
L 82.083967 186.15347 
L 84.62281 185.956517 
L 87.161653 185.746025 
L 87.479008 185.746025 
L 87.796364 185.604245 
L 102.077355 184.646947 
L 105.568264 184.35133 
L 106.837686 184.257863 
L 107.789752 184.206552 
L 110.01124 184.127407 
L 111.280661 184.071297 
L 113.819504 183.936009 
L 115.406281 183.858802 
L 118.89719 183.51246 
L 121.753388 183.42305 
L 122.388099 183.314247 
L 123.974876 183.260504 
L 125.244298 183.099047 
L 127.78314 183.021526 
L 129.687273 182.921336 
L 140.477355 182.391014 
L 141.429421 182.285655 
L 144.602975 182.210986 
L 145.872397 182.112052 
L 149.363306 181.795182 
L 153.806281 181.686898 
L 156.662479 181.491966 
L 159.836033 181.384913 
L 160.788099 181.242154 
L 162.374876 181.145688 
L 164.913719 181.062319 
L 167.452562 180.924937 
L 168.087273 180.807831 
L 173.799669 180.604937 
L 174.43438 180.521122 
L 187.128595 179.935996 
L 187.763306 179.823864 
L 192.206281 179.714221 
L 199.82281 179.355704 
L 201.726942 179.258427 
L 203.313719 179.155305 
L 205.535207 179.128762 
L 206.169917 179.031071 
L 208.391405 178.957152 
L 209.660826 178.901608 
L 216.325289 178.573136 
L 217.912066 178.535263 
L 221.08562 178.387575 
L 222.672397 178.308649 
L 226.163306 178.188075 
L 236.953388 177.736284 
L 237.905455 177.672169 
L 239.809587 177.568282 
L 244.887273 177.430793 
L 251.869091 177.144187 
L 253.773223 176.99728 
L 258.850909 176.83365 
L 259.48562 176.765371 
L 263.293884 176.639987 
L 265.515372 176.546512 
L 267.73686 176.438921 
L 271.227769 176.340651 
L 277.574876 176.01915 
L 278.844298 175.939331 
L 279.479008 175.835109 
L 282.652562 175.716329 
L 283.604628 175.620493 
L 287.095537 175.532794 
L 288.682314 175.430208 
L 307.088926 174.479583 
L 307.723636 174.362836 
L 308.358347 174.29696 
L 311.531901 174.189198 
L 314.388099 174.068123 
L 315.02281 174.037415 
L 315.657521 173.95329 
L 317.244298 173.895069 
L 318.196364 173.818304 
L 318.831074 173.741707 
L 324.226116 173.361793 
L 325.178182 173.306293 
L 326.764959 173.178306 
L 328.669091 173.036209 
L 332.16 172.925405 
L 332.794711 172.855299 
L 340.728595 172.338673 
L 341.04595 172.210567 
L 343.267438 172.125472 
L 344.219504 171.956849 
L 345.806281 171.865351 
L 346.440992 171.766942 
L 349.29719 171.697916 
L 350.249256 171.63337 
L 351.836033 171.50321 
L 352.788099 171.449812 
L 354.692231 171.336557 
L 355.009587 171.319518 
L 355.326942 171.168489 
L 356.596364 171.081578 
L 358.18314 170.84448 
L 359.769917 170.695029 
L 360.721983 170.619097 
L 363.578182 170.483534 
L 364.212893 170.382507 
L 365.482314 170.271483 
L 370.242645 169.803573 
L 371.512066 169.596803 
L 379.44595 168.49743 
L 380.398017 168.265059 
L 381.984793 168.059357 
L 382.302149 167.932704 
L 384.206281 167.822381 
L 384.523636 167.595095 
L 384.840992 167.595095 
L 385.158347 167.465201 
L 385.793058 167.390081 
L 386.110413 167.332638 
L 386.427769 167.126398 
L 387.062479 167.101023 
L 387.379835 166.911162 
L 389.283967 166.690189 
L 389.601322 166.425446 
L 389.918678 166.425446 
L 390.870744 165.948917 
L 391.188099 165.948917 
L 392.457521 165.481306 
L 393.092231 165.402969 
L 393.409587 165.080987 
L 394.044298 165.016416 
L 394.679008 164.514598 
L 395.313719 164.404243 
L 395.94843 164.371281 
L 396.265785 163.525623 
L 396.900496 162.986187 
L 397.217851 162.986187 
L 397.535207 161.532658 
L 398.169917 161.474101 
L 398.487273 160.274314 
L 398.487273 160.274314 
" clip-path="url(#pedb1aacb83)" style="fill: none; stroke: #ff7f0e; stroke-width: 1.5; stroke-linecap: square"/>
   </g>
   <g id="patch_3">
    <path d="M 57.6 307.584 
L 57.6 41.472 
" style="fill: none; stroke: #000000; stroke-width: 0.8; stroke-linejoin: miter; stroke-linecap: square"/>
   </g>
   <g id="patch_4">
    <path d="M 414.72 307.584 
L 414.72 41.472 
" style="fill: none; stroke: #000000; stroke-width: 0.8; stroke-linejoin: miter; stroke-linecap: square"/>
   </g>
   <g id="patch_5">
    <path d="M 57.6 307.584 
L 414.72 307.584 
" style="fill: none; stroke: #000000; stroke-width: 0.8; stroke-linejoin: miter; stroke-linecap: square"/>
   </g>
   <g id="patch_6">
    <path d="M 57.6 41.472 
L 414.72 41.472 
" style="fill: none; stroke: #000000; stroke-width: 0.8; stroke-linejoin: miter; stroke-linecap: square"/>
   </g>
   <g id="legend_1">
    <g id="patch_7">
     <path d="M 64.6 78.82825 
L 129.342187 78.82825 
Q 131.342187 78.82825 131.342187 76.82825 
L 131.342187 48.472 
Q 131.342187 46.472 129.342187 46.472 
L 64.6 46.472 
Q 62.6 46.472 62.6 48.472 
L 62.6 76.82825 
Q 62.6 78.82825 64.6 78.82825 
z
" style="fill: #ffffff; opacity: 0.8; stroke: #cccccc; stroke-linejoin: miter"/>
    </g>
    <g id="line2d_16">
     <path d="M 66.6 54.570437 
L 76.6 54.570437 
L 86.6 54.570437 
" style="fill: none; stroke: #1f77b4; stroke-width: 1.5; stroke-linecap: square"/>
    </g>
    <g id="text_16">
     <!-- qc -->
     <g transform="translate(94.6 58.070437) scale(0.1 -0.1)">
      <defs>
       <path id="DejaVuSans-71" d="M 947 1747 
Q 947 1113 1208 752 
Q 1469 391 1925 391 
Q 2381 391 2643 752 
Q 2906 1113 2906 1747 
Q 2906 2381 2643 2742 
Q 2381 3103 1925 3103 
Q 1469 3103 1208 2742 
Q 947 2381 947 1747 
z
M 2906 525 
Q 2725 213 2448 61 
Q 2172 -91 1784 -91 
Q 1150 -91 751 415 
Q 353 922 353 1747 
Q 353 2572 751 3078 
Q 1150 3584 1784 3584 
Q 2172 3584 2448 3432 
Q 2725 3281 2906 2969 
L 2906 3500 
L 3481 3500 
L 3481 -1331 
L 2906 -1331 
L 2906 525 
z
" transform="scale(0.015625)"/>
       <path id="DejaVuSans-63" d="M 3122 3366 
L 3122 2828 
Q 2878 2963 2633 3030 
Q 2388 3097 2138 3097 
Q 1578 3097 1268 2742 
Q 959 2388 959 1747 
Q 959 1106 1268 751 
Q 1578 397 2138 397 
Q 2388 397 2633 464 
Q 2878 531 3122 666 
L 3122 134 
Q 2881 22 2623 -34 
Q 2366 -91 2075 -91 
Q 1284 -91 818 406 
Q 353 903 353 1747 
Q 353 2603 823 3093 
Q 1294 3584 2113 3584 
Q 2378 3584 2631 3529 
Q 2884 3475 3122 3366 
z
" transform="scale(0.015625)"/>
      </defs>
      <use xlink:href="#DejaVuSans-71"/>
      <use xlink:href="#DejaVuSans-63" x="63.476562"/>
     </g>
    </g>
    <g id="line2d_17">
     <path d="M 66.6 69.248562 
L 76.6 69.248562 
L 86.6 69.248562 
" style="fill: none; stroke: #ff7f0e; stroke-width: 1.5; stroke-linecap: square"/>
    </g>
    <g id="text_17">
     <!-- Trotter -->
     <g transform="translate(94.6 72.748562) scale(0.1 -0.1)">
      <defs>
       <path id="DejaVuSans-54" d="M -19 4666 
L 3928 4666 
L 3928 4134 
L 2272 4134 
L 2272 0 
L 1638 0 
L 1638 4134 
L -19 4134 
L -19 4666 
z
" transform="scale(0.015625)"/>
       <path id="DejaVuSans-72" d="M 2631 2963 
Q 2534 3019 2420 3045 
Q 2306 3072 2169 3072 
Q 1681 3072 1420 2755 
Q 1159 2438 1159 1844 
L 1159 0 
L 581 0 
L 581 3500 
L 1159 3500 
L 1159 2956 
Q 1341 3275 1631 3429 
Q 1922 3584 2338 3584 
Q 2397 3584 2469 3576 
Q 2541 3569 2628 3553 
L 2631 2963 
z
" transform="scale(0.015625)"/>
       <path id="DejaVuSans-6f" d="M 1959 3097 
Q 1497 3097 1228 2736 
Q 959 2375 959 1747 
Q 959 1119 1226 758 
Q 1494 397 1959 397 
Q 2419 397 2687 759 
Q 2956 1122 2956 1747 
Q 2956 2369 2687 2733 
Q 2419 3097 1959 3097 
z
M 1959 3584 
Q 2709 3584 3137 3096 
Q 3566 2609 3566 1747 
Q 3566 888 3137 398 
Q 2709 -91 1959 -91 
Q 1206 -91 779 398 
Q 353 888 353 1747 
Q 353 2609 779 3096 
Q 1206 3584 1959 3584 
z
" transform="scale(0.015625)"/>
       <path id="DejaVuSans-65" d="M 3597 1894 
L 3597 1613 
L 953 1613 
Q 991 1019 1311 708 
Q 1631 397 2203 397 
Q 2534 397 2845 478 
Q 3156 559 3463 722 
L 3463 178 
Q 3153 47 2828 -22 
Q 2503 -91 2169 -91 
Q 1331 -91 842 396 
Q 353 884 353 1716 
Q 353 2575 817 3079 
Q 1281 3584 2069 3584 
Q 2775 3584 3186 3129 
Q 3597 2675 3597 1894 
z
M 3022 2063 
Q 3016 2534 2758 2815 
Q 2500 3097 2075 3097 
Q 1594 3097 1305 2825 
Q 1016 2553 972 2059 
L 3022 2063 
z
" transform="scale(0.015625)"/>
      </defs>
      <use xlink:href="#DejaVuSans-54"/>
      <use xlink:href="#DejaVuSans-72" x="46.333984"/>
      <use xlink:href="#DejaVuSans-6f" x="85.197266"/>
      <use xlink:href="#DejaVuSans-74" x="146.378906"/>
      <use xlink:href="#DejaVuSans-74" x="185.587891"/>
      <use xlink:href="#DejaVuSans-65" x="224.796875"/>
      <use xlink:href="#DejaVuSans-72" x="286.320312"/>
     </g>
    </g>
   </g>
  </g>
 </g>
 <defs>
  <clipPath id="pedb1aacb83">
   <rect x="57.6" y="41.472" width="357.12" height="266.112"/>
  </clipPath>
 </defs>
</svg>
