<?xml version="1.0" encoding="utf-8" standalone="no"?>
<!DOCTYPE svg PUBLIC "-//W3C//DTD SVG 1.1//EN"
  "http://www.w3.org/Graphics/SVG/1.1/DTD/svg11.dtd">
<svg xmlns:xlink="http://www.w3.org/1999/xlink" width="460.8pt" height="345.6pt" viewBox="0 0 460.8 345.6" xmlns="http://www.w3.org/2000/svg" version="1.1">
 <metadata>
  <rdf:RDF xmlns:dc="http://purl.org/dc/elements/1.1/" xmlns:cc="http://creativecommons.org/ns#" xmlns:rdf="http://www.w3.org/1999/02/22-rdf-syntax-ns#">
   <cc:Work>
    <dc:type rdf:resource="http://purl.org/dc/dcmitype/StillImage"/>
    <dc:date>2024-07-14T02:06:06.452330</dc:date>
    <dc:format>image/svg+xml</dc:format>
    <dc:creator>
     <cc:Agent>
      <dc:title>Matplotlib v3.7.1, https://matplotlib.org/</dc:title>
     </cc:Agent>
    </dc:creator>
   </cc:Work>
  </rdf:RDF>
 </metadata>
 <defs>
  <style type="text/css">*{stroke-linejoin: round; stroke-linecap: butt}</style>
 </defs>
 <g id="figure_1">
  <g id="patch_1">
   <path d="M 0 345.6 
L 460.8 345.6 
L 460.8 0 
L 0 0 
z
" style="fill: #ffffff"/>
  </g>
  <g id="axes_1">
   <g id="patch_2">
    <path d="M 57.6 307.584 
L 414.72 307.584 
L 414.72 41.472 
L 57.6 41.472 
z
" style="fill: #ffffff"/>
   </g>
   <g id="matplotlib.axis_1">
    <g id="xtick_1">
     <g id="line2d_1">
      <defs>
       <path id="mb62e1ddf11" d="M 0 0 
L 0 3.5 
" style="stroke: #000000; stroke-width: 0.8"/>
      </defs>
      <g>
       <use xlink:href="#mb62e1ddf11" x="73.832727" y="307.584" style="stroke: #000000; stroke-width: 0.8"/>
      </g>
     </g>
     <g id="text_1">
      <!-- 0 -->
      <g transform="translate(70.651477 322.182437) scale(0.1 -0.1)">
       <defs>
        <path id="DejaVuSans-30" d="M 2034 4250 
Q 1547 4250 1301 3770 
Q 1056 3291 1056 2328 
Q 1056 1369 1301 889 
Q 1547 409 2034 409 
Q 2525 409 2770 889 
Q 3016 1369 3016 2328 
Q 3016 3291 2770 3770 
Q 2525 4250 2034 4250 
z
M 2034 4750 
Q 2819 4750 3233 4129 
Q 3647 3509 3647 2328 
Q 3647 1150 3233 529 
Q 2819 -91 2034 -91 
Q 1250 -91 836 529 
Q 422 1150 422 2328 
Q 422 3509 836 4129 
Q 1250 4750 2034 4750 
z
" transform="scale(0.015625)"/>
       </defs>
       <use xlink:href="#DejaVuSans-30"/>
      </g>
     </g>
    </g>
    <g id="xtick_2">
     <g id="line2d_2">
      <g>
       <use xlink:href="#mb62e1ddf11" x="137.303802" y="307.584" style="stroke: #000000; stroke-width: 0.8"/>
      </g>
     </g>
     <g id="text_2">
      <!-- 200 -->
      <g transform="translate(127.760052 322.182437) scale(0.1 -0.1)">
       <defs>
        <path id="DejaVuSans-32" d="M 1228 531 
L 3431 531 
L 3431 0 
L 469 0 
L 469 531 
Q 828 903 1448 1529 
Q 2069 2156 2228 2338 
Q 2531 2678 2651 2914 
Q 2772 3150 2772 3378 
Q 2772 3750 2511 3984 
Q 2250 4219 1831 4219 
Q 1534 4219 1204 4116 
Q 875 4013 500 3803 
L 500 4441 
Q 881 4594 1212 4672 
Q 1544 4750 1819 4750 
Q 2544 4750 2975 4387 
Q 3406 4025 3406 3419 
Q 3406 3131 3298 2873 
Q 3191 2616 2906 2266 
Q 2828 2175 2409 1742 
Q 1991 1309 1228 531 
z
" transform="scale(0.015625)"/>
       </defs>
       <use xlink:href="#DejaVuSans-32"/>
       <use xlink:href="#DejaVuSans-30" x="63.623047"/>
       <use xlink:href="#DejaVuSans-30" x="127.246094"/>
      </g>
     </g>
    </g>
    <g id="xtick_3">
     <g id="line2d_3">
      <g>
       <use xlink:href="#mb62e1ddf11" x="200.774876" y="307.584" style="stroke: #000000; stroke-width: 0.8"/>
      </g>
     </g>
     <g id="text_3">
      <!-- 400 -->
      <g transform="translate(191.231126 322.182437) scale(0.1 -0.1)">
       <defs>
        <path id="DejaVuSans-34" d="M 2419 4116 
L 825 1625 
L 2419 1625 
L 2419 4116 
z
M 2253 4666 
L 3047 4666 
L 3047 1625 
L 3713 1625 
L 3713 1100 
L 3047 1100 
L 3047 0 
L 2419 0 
L 2419 1100 
L 313 1100 
L 313 1709 
L 2253 4666 
z
" transform="scale(0.015625)"/>
       </defs>
       <use xlink:href="#DejaVuSans-34"/>
       <use xlink:href="#DejaVuSans-30" x="63.623047"/>
       <use xlink:href="#DejaVuSans-30" x="127.246094"/>
      </g>
     </g>
    </g>
    <g id="xtick_4">
     <g id="line2d_4">
      <g>
       <use xlink:href="#mb62e1ddf11" x="264.24595" y="307.584" style="stroke: #000000; stroke-width: 0.8"/>
      </g>
     </g>
     <g id="text_4">
      <!-- 600 -->
      <g transform="translate(254.7022 322.182437) scale(0.1 -0.1)">
       <defs>
        <path id="DejaVuSans-36" d="M 2113 2584 
Q 1688 2584 1439 2293 
Q 1191 2003 1191 1497 
Q 1191 994 1439 701 
Q 1688 409 2113 409 
Q 2538 409 2786 701 
Q 3034 994 3034 1497 
Q 3034 2003 2786 2293 
Q 2538 2584 2113 2584 
z
M 3366 4563 
L 3366 3988 
Q 3128 4100 2886 4159 
Q 2644 4219 2406 4219 
Q 1781 4219 1451 3797 
Q 1122 3375 1075 2522 
Q 1259 2794 1537 2939 
Q 1816 3084 2150 3084 
Q 2853 3084 3261 2657 
Q 3669 2231 3669 1497 
Q 3669 778 3244 343 
Q 2819 -91 2113 -91 
Q 1303 -91 875 529 
Q 447 1150 447 2328 
Q 447 3434 972 4092 
Q 1497 4750 2381 4750 
Q 2619 4750 2861 4703 
Q 3103 4656 3366 4563 
z
" transform="scale(0.015625)"/>
       </defs>
       <use xlink:href="#DejaVuSans-36"/>
       <use xlink:href="#DejaVuSans-30" x="63.623047"/>
       <use xlink:href="#DejaVuSans-30" x="127.246094"/>
      </g>
     </g>
    </g>
    <g id="xtick_5">
     <g id="line2d_5">
      <g>
       <use xlink:href="#mb62e1ddf11" x="327.717025" y="307.584" style="stroke: #000000; stroke-width: 0.8"/>
      </g>
     </g>
     <g id="text_5">
      <!-- 800 -->
      <g transform="translate(318.173275 322.182437) scale(0.1 -0.1)">
       <defs>
        <path id="DejaVuSans-38" d="M 2034 2216 
Q 1584 2216 1326 1975 
Q 1069 1734 1069 1313 
Q 1069 891 1326 650 
Q 1584 409 2034 409 
Q 2484 409 2743 651 
Q 3003 894 3003 1313 
Q 3003 1734 2745 1975 
Q 2488 2216 2034 2216 
z
M 1403 2484 
Q 997 2584 770 2862 
Q 544 3141 544 3541 
Q 544 4100 942 4425 
Q 1341 4750 2034 4750 
Q 2731 4750 3128 4425 
Q 3525 4100 3525 3541 
Q 3525 3141 3298 2862 
Q 3072 2584 2669 2484 
Q 3125 2378 3379 2068 
Q 3634 1759 3634 1313 
Q 3634 634 3220 271 
Q 2806 -91 2034 -91 
Q 1263 -91 848 271 
Q 434 634 434 1313 
Q 434 1759 690 2068 
Q 947 2378 1403 2484 
z
M 1172 3481 
Q 1172 3119 1398 2916 
Q 1625 2713 2034 2713 
Q 2441 2713 2670 2916 
Q 2900 3119 2900 3481 
Q 2900 3844 2670 4047 
Q 2441 4250 2034 4250 
Q 1625 4250 1398 4047 
Q 1172 3844 1172 3481 
z
" transform="scale(0.015625)"/>
       </defs>
       <use xlink:href="#DejaVuSans-38"/>
       <use xlink:href="#DejaVuSans-30" x="63.623047"/>
       <use xlink:href="#DejaVuSans-30" x="127.246094"/>
      </g>
     </g>
    </g>
    <g id="xtick_6">
     <g id="line2d_6">
      <g>
       <use xlink:href="#mb62e1ddf11" x="391.188099" y="307.584" style="stroke: #000000; stroke-width: 0.8"/>
      </g>
     </g>
     <g id="text_6">
      <!-- 1000 -->
      <g transform="translate(378.463099 322.182437) scale(0.1 -0.1)">
       <defs>
        <path id="DejaVuSans-31" d="M 794 531 
L 1825 531 
L 1825 4091 
L 703 3866 
L 703 4441 
L 1819 4666 
L 2450 4666 
L 2450 531 
L 3481 531 
L 3481 0 
L 794 0 
L 794 531 
z
" transform="scale(0.015625)"/>
       </defs>
       <use xlink:href="#DejaVuSans-31"/>
       <use xlink:href="#DejaVuSans-30" x="63.623047"/>
       <use xlink:href="#DejaVuSans-30" x="127.246094"/>
       <use xlink:href="#DejaVuSans-30" x="190.869141"/>
      </g>
     </g>
    </g>
    <g id="text_7">
     <!-- n -->
     <g transform="translate(232.99125 335.860562) scale(0.1 -0.1)">
      <defs>
       <path id="DejaVuSans-6e" d="M 3513 2113 
L 3513 0 
L 2938 0 
L 2938 2094 
Q 2938 2591 2744 2837 
Q 2550 3084 2163 3084 
Q 1697 3084 1428 2787 
Q 1159 2491 1159 1978 
L 1159 0 
L 581 0 
L 581 3500 
L 1159 3500 
L 1159 2956 
Q 1366 3272 1645 3428 
Q 1925 3584 2291 3584 
Q 2894 3584 3203 3211 
Q 3513 2838 3513 2113 
z
" transform="scale(0.015625)"/>
      </defs>
      <use xlink:href="#DejaVuSans-6e"/>
     </g>
    </g>
   </g>
   <g id="matplotlib.axis_2">
    <g id="ytick_1">
     <g id="line2d_7">
      <defs>
       <path id="m05eb48ea76" d="M 0 0 
L -3.5 0 
" style="stroke: #000000; stroke-width: 0.8"/>
      </defs>
      <g>
       <use xlink:href="#m05eb48ea76" x="57.6" y="290.113542" style="stroke: #000000; stroke-width: 0.8"/>
      </g>
     </g>
     <g id="text_8">
      <!-- −3 -->
      <g transform="translate(35.857813 293.91276) scale(0.1 -0.1)">
       <defs>
        <path id="DejaVuSans-2212" d="M 678 2272 
L 4684 2272 
L 4684 1741 
L 678 1741 
L 678 2272 
z
" transform="scale(0.015625)"/>
        <path id="DejaVuSans-33" d="M 2597 2516 
Q 3050 2419 3304 2112 
Q 3559 1806 3559 1356 
Q 3559 666 3084 287 
Q 2609 -91 1734 -91 
Q 1441 -91 1130 -33 
Q 819 25 488 141 
L 488 750 
Q 750 597 1062 519 
Q 1375 441 1716 441 
Q 2309 441 2620 675 
Q 2931 909 2931 1356 
Q 2931 1769 2642 2001 
Q 2353 2234 1838 2234 
L 1294 2234 
L 1294 2753 
L 1863 2753 
Q 2328 2753 2575 2939 
Q 2822 3125 2822 3475 
Q 2822 3834 2567 4026 
Q 2313 4219 1838 4219 
Q 1578 4219 1281 4162 
Q 984 4106 628 3988 
L 628 4550 
Q 988 4650 1302 4700 
Q 1616 4750 1894 4750 
Q 2613 4750 3031 4423 
Q 3450 4097 3450 3541 
Q 3450 3153 3228 2886 
Q 3006 2619 2597 2516 
z
" transform="scale(0.015625)"/>
       </defs>
       <use xlink:href="#DejaVuSans-2212"/>
       <use xlink:href="#DejaVuSans-33" x="83.789062"/>
      </g>
     </g>
    </g>
    <g id="ytick_2">
     <g id="line2d_8">
      <g>
       <use xlink:href="#m05eb48ea76" x="57.6" y="251.501485" style="stroke: #000000; stroke-width: 0.8"/>
      </g>
     </g>
     <g id="text_9">
      <!-- −2 -->
      <g transform="translate(35.857813 255.300704) scale(0.1 -0.1)">
       <use xlink:href="#DejaVuSans-2212"/>
       <use xlink:href="#DejaVuSans-32" x="83.789062"/>
      </g>
     </g>
    </g>
    <g id="ytick_3">
     <g id="line2d_9">
      <g>
       <use xlink:href="#m05eb48ea76" x="57.6" y="212.889429" style="stroke: #000000; stroke-width: 0.8"/>
      </g>
     </g>
     <g id="text_10">
      <!-- −1 -->
      <g transform="translate(35.857813 216.688648) scale(0.1 -0.1)">
       <use xlink:href="#DejaVuSans-2212"/>
       <use xlink:href="#DejaVuSans-31" x="83.789062"/>
      </g>
     </g>
    </g>
    <g id="ytick_4">
     <g id="line2d_10">
      <g>
       <use xlink:href="#m05eb48ea76" x="57.6" y="174.277372" style="stroke: #000000; stroke-width: 0.8"/>
      </g>
     </g>
     <g id="text_11">
      <!-- 0 -->
      <g transform="translate(44.2375 178.076591) scale(0.1 -0.1)">
       <use xlink:href="#DejaVuSans-30"/>
      </g>
     </g>
    </g>
    <g id="ytick_5">
     <g id="line2d_11">
      <g>
       <use xlink:href="#m05eb48ea76" x="57.6" y="135.665316" style="stroke: #000000; stroke-width: 0.8"/>
      </g>
     </g>
     <g id="text_12">
      <!-- 1 -->
      <g transform="translate(44.2375 139.464535) scale(0.1 -0.1)">
       <use xlink:href="#DejaVuSans-31"/>
      </g>
     </g>
    </g>
    <g id="ytick_6">
     <g id="line2d_12">
      <g>
       <use xlink:href="#m05eb48ea76" x="57.6" y="97.05326" style="stroke: #000000; stroke-width: 0.8"/>
      </g>
     </g>
     <g id="text_13">
      <!-- 2 -->
      <g transform="translate(44.2375 100.852478) scale(0.1 -0.1)">
       <use xlink:href="#DejaVuSans-32"/>
      </g>
     </g>
    </g>
    <g id="ytick_7">
     <g id="line2d_13">
      <g>
       <use xlink:href="#m05eb48ea76" x="57.6" y="58.441203" style="stroke: #000000; stroke-width: 0.8"/>
      </g>
     </g>
     <g id="text_14">
      <!-- 3 -->
      <g transform="translate(44.2375 62.240422) scale(0.1 -0.1)">
       <use xlink:href="#DejaVuSans-33"/>
      </g>
     </g>
    </g>
    <g id="text_15">
     <!-- E*t -->
     <g transform="translate(29.778125 182.147531) rotate(-90) scale(0.1 -0.1)">
      <defs>
       <path id="DejaVuSans-45" d="M 628 4666 
L 3578 4666 
L 3578 4134 
L 1259 4134 
L 1259 2753 
L 3481 2753 
L 3481 2222 
L 1259 2222 
L 1259 531 
L 3634 531 
L 3634 0 
L 628 0 
L 628 4666 
z
" transform="scale(0.015625)"/>
       <path id="DejaVuSans-2a" d="M 3009 3897 
L 1888 3291 
L 3009 2681 
L 2828 2375 
L 1778 3009 
L 1778 1831 
L 1422 1831 
L 1422 3009 
L 372 2375 
L 191 2681 
L 1313 3291 
L 191 3897 
L 372 4206 
L 1422 3572 
L 1422 4750 
L 1778 4750 
L 1778 3572 
L 2828 4206 
L 3009 3897 
z
" transform="scale(0.015625)"/>
       <path id="DejaVuSans-74" d="M 1172 4494 
L 1172 3500 
L 2356 3500 
L 2356 3053 
L 1172 3053 
L 1172 1153 
Q 1172 725 1289 603 
Q 1406 481 1766 481 
L 2356 481 
L 2356 0 
L 1766 0 
Q 1100 0 847 248 
Q 594 497 594 1153 
L 594 3053 
L 172 3053 
L 172 3500 
L 594 3500 
L 594 4494 
L 1172 4494 
z
" transform="scale(0.015625)"/>
      </defs>
      <use xlink:href="#DejaVuSans-45"/>
      <use xlink:href="#DejaVuSans-2a" x="63.183594"/>
      <use xlink:href="#DejaVuSans-74" x="113.183594"/>
     </g>
    </g>
   </g>
   <g id="line2d_14">
    <path d="M 73.832727 295.488 
L 74.784793 294.032974 
L 75.102149 293.184711 
L 75.419504 291.036754 
L 75.73686 290.064907 
L 76.37157 281.313915 
L 76.688926 280.883313 
L 77.006281 278.055695 
L 78.275702 273.609679 
L 78.593058 271.864666 
L 78.910413 270.770646 
L 79.227769 270.432337 
L 79.862479 268.617716 
L 80.179835 266.027543 
L 80.49719 265.679764 
L 80.814545 264.70183 
L 81.131901 264.649648 
L 81.449256 263.82575 
L 81.766612 263.363011 
L 82.083967 260.882957 
L 82.401322 260.733762 
L 83.036033 258.916995 
L 83.353388 257.439358 
L 83.670744 256.550851 
L 83.988099 256.436941 
L 84.305455 255.739693 
L 84.62281 255.466219 
L 84.940165 253.259707 
L 85.257521 252.993342 
L 85.892231 251.664156 
L 86.209587 251.334899 
L 86.844298 249.81605 
L 87.479008 249.425293 
L 87.796364 248.854914 
L 88.113719 248.605792 
L 88.431074 247.845635 
L 88.74843 245.622879 
L 89.38314 245.411257 
L 89.700496 244.899157 
L 90.017851 244.668297 
L 90.652562 244.611257 
L 90.969917 243.778446 
L 91.287273 241.858186 
L 91.604628 241.13295 
L 92.239339 240.773555 
L 92.556694 240.263504 
L 93.50876 237.463253 
L 94.460826 236.46153 
L 94.778182 235.934539 
L 95.095537 235.892581 
L 95.412893 234.849907 
L 95.730248 234.491462 
L 96.047603 234.342738 
L 96.364959 233.605731 
L 96.999669 233.412554 
L 97.63438 232.493462 
L 97.951736 231.04784 
L 98.269091 230.78681 
L 98.586446 229.968932 
L 99.221157 229.839881 
L 99.538512 229.702179 
L 99.855868 229.158502 
L 100.173223 229.085769 
L 100.807934 228.408258 
L 101.442645 226.605726 
L 101.76 225.900113 
L 102.712066 225.337196 
L 103.664132 223.994929 
L 103.981488 223.958735 
L 104.298843 223.162118 
L 104.616198 223.035468 
L 104.933554 222.566817 
L 105.250909 221.062543 
L 105.568264 220.892896 
L 106.202975 218.847597 
L 106.520331 218.847213 
L 107.472397 218.153131 
L 107.789752 218.014401 
L 108.107107 217.170101 
L 108.424463 217.161829 
L 108.741818 216.36758 
L 109.376529 215.958402 
L 109.693884 214.87377 
L 110.01124 214.818826 
L 110.328595 214.529139 
L 110.64595 214.069416 
L 110.963306 213.975419 
L 111.280661 213.726448 
L 111.598017 213.628663 
L 111.915372 212.92392 
L 112.232727 212.719538 
L 112.550083 211.743791 
L 113.184793 211.588185 
L 114.13686 211.071709 
L 114.454215 211.029162 
L 114.77157 210.371939 
L 115.088926 210.128094 
L 116.040992 209.879374 
L 116.358347 209.409077 
L 117.627769 208.578699 
L 117.945124 208.488053 
L 118.262479 208.158811 
L 118.579835 208.135256 
L 119.214545 207.776099 
L 119.531901 207.296434 
L 119.849256 207.2395 
L 120.166612 206.986393 
L 121.118678 206.732542 
L 121.436033 206.367592 
L 121.753388 205.681438 
L 122.388099 205.30475 
L 122.705455 205.102843 
L 123.02281 205.086958 
L 123.657521 204.188434 
L 123.974876 204.039892 
L 124.292231 204.018813 
L 125.561653 203.504551 
L 126.196364 203.474774 
L 126.513719 203.230397 
L 126.831074 203.186001 
L 127.465785 202.851411 
L 127.78314 202.830861 
L 128.417851 202.461467 
L 128.735207 201.734865 
L 129.687273 200.846741 
L 130.639339 200.505096 
L 130.956694 200.43633 
L 131.591405 199.691401 
L 132.543471 199.599771 
L 132.860826 199.169745 
L 133.178182 199.1177 
L 133.495537 198.903108 
L 134.447603 198.704037 
L 134.764959 198.442529 
L 135.399669 198.212514 
L 135.717025 197.881241 
L 136.03438 197.858656 
L 136.986446 197.329382 
L 137.303802 196.713337 
L 137.621157 196.439232 
L 138.255868 196.20626 
L 138.573223 196.104399 
L 138.890579 195.883332 
L 139.207934 195.369043 
L 140.16 195.174708 
L 140.477355 194.87846 
L 141.112066 194.726325 
L 141.429421 194.360073 
L 141.746777 194.193929 
L 142.064132 193.752759 
L 142.698843 193.722428 
L 143.016198 193.415475 
L 143.968264 193.197772 
L 144.920331 192.807637 
L 145.237686 192.304799 
L 145.555041 192.099282 
L 145.872397 192.033073 
L 146.824463 191.36923 
L 147.141818 191.355651 
L 147.776529 190.922277 
L 148.41124 190.778622 
L 149.04595 190.490013 
L 149.363306 190.453245 
L 149.998017 189.795265 
L 150.950083 189.733259 
L 151.902149 188.750715 
L 152.854215 188.611857 
L 154.123636 188.024089 
L 155.710413 187.655815 
L 156.027769 187.364216 
L 156.662479 187.177261 
L 156.979835 186.968796 
L 157.29719 186.963979 
L 157.931901 186.691218 
L 160.153388 185.760089 
L 160.470744 185.420153 
L 160.788099 185.335646 
L 161.42281 185.057562 
L 162.057521 185.009862 
L 162.374876 184.867916 
L 163.009587 184.793179 
L 163.326942 184.731322 
L 163.961653 184.243278 
L 164.596364 183.843349 
L 166.18314 183.510687 
L 167.452562 183.388187 
L 168.087273 182.99694 
L 169.039339 182.835664 
L 169.67405 182.463258 
L 170.943471 182.214594 
L 171.260826 182.090131 
L 171.895537 181.364261 
L 172.212893 181.324699 
L 172.530248 181.0192 
L 173.164959 180.951076 
L 173.482314 180.736358 
L 174.117025 180.690366 
L 174.751736 180.470303 
L 175.069091 180.460937 
L 175.703802 180.045413 
L 176.655868 179.832903 
L 176.973223 179.629223 
L 177.607934 179.48223 
L 177.925289 179.107125 
L 179.512066 178.856845 
L 182.68562 178.088776 
L 183.002975 177.79888 
L 184.589752 177.421781 
L 184.907107 176.983593 
L 187.128595 176.242613 
L 189.032727 175.526502 
L 189.984793 175.372527 
L 190.302149 175.361822 
L 190.93686 175.065964 
L 191.254215 175.043575 
L 191.888926 174.804394 
L 193.793058 174.351827 
L 194.110413 174.157729 
L 194.427769 174.1537 
L 194.745124 173.929986 
L 195.379835 173.829085 
L 196.649256 173.1969 
L 196.966612 173.170691 
L 197.283967 172.980398 
L 197.918678 172.864927 
L 198.553388 172.45105 
L 200.457521 171.876204 
L 200.774876 171.874607 
L 201.092231 171.440744 
L 201.726942 171.206994 
L 202.361653 171.126866 
L 204.58314 170.661524 
L 204.900496 170.442987 
L 205.217851 170.405743 
L 205.535207 169.982901 
L 206.169917 169.753251 
L 206.804628 169.556484 
L 207.121983 169.234835 
L 210.930248 168.242121 
L 211.247603 167.983888 
L 212.517025 167.716065 
L 212.83438 167.583534 
L 213.151736 167.206116 
L 213.469091 167.183585 
L 214.103802 166.925812 
L 215.373223 166.671296 
L 215.690579 166.64026 
L 216.007934 166.37883 
L 216.642645 166.301994 
L 219.498843 165.221075 
L 221.08562 164.715598 
L 221.720331 164.597131 
L 222.037686 164.217168 
L 222.355041 164.187757 
L 222.672397 164.009696 
L 223.307107 163.965933 
L 223.624463 163.749921 
L 223.941818 163.716751 
L 224.259174 163.386907 
L 224.893884 163.186859 
L 226.163306 162.923816 
L 226.480661 162.750046 
L 226.798017 162.364534 
L 227.115372 162.313792 
L 227.432727 162.111105 
L 229.654215 161.779918 
L 229.97157 161.482566 
L 230.288926 161.410761 
L 230.923636 161.069764 
L 231.875702 160.868616 
L 232.193058 160.758233 
L 232.510413 160.427135 
L 235.049256 160.131533 
L 235.366612 159.960338 
L 235.683967 159.648144 
L 237.270744 159.30329 
L 238.22281 159.217737 
L 238.540165 158.744784 
L 240.126942 158.494669 
L 240.444298 158.342264 
L 241.396364 158.241642 
L 243.935207 157.219226 
L 244.569917 157.124094 
L 244.887273 156.984207 
L 245.204628 156.600447 
L 245.521983 156.415243 
L 245.839339 156.395029 
L 246.156694 156.138743 
L 246.791405 155.940055 
L 247.10876 155.545406 
L 248.060826 155.368386 
L 248.695537 155.30123 
L 249.012893 155.040758 
L 250.599669 154.575547 
L 251.551736 154.351677 
L 251.869091 154.077598 
L 253.455868 153.805047 
L 254.090579 153.584153 
L 254.725289 153.479826 
L 255.042645 153.333365 
L 255.36 153.324484 
L 255.677355 153.157762 
L 257.264132 152.961362 
L 257.581488 152.825243 
L 257.898843 152.500502 
L 258.850909 152.325963 
L 259.168264 152.276967 
L 259.48562 152.023404 
L 260.437686 151.746079 
L 260.755041 151.33423 
L 261.389752 151.256726 
L 262.659174 150.51511 
L 262.976529 150.156151 
L 263.928595 149.804132 
L 264.24595 149.617468 
L 265.198017 149.506698 
L 267.73686 148.548864 
L 268.688926 148.384499 
L 269.006281 148.152938 
L 269.640992 148.014755 
L 270.275702 147.274881 
L 270.910413 147.179401 
L 271.227769 146.605332 
L 271.545124 146.452518 
L 271.862479 146.429407 
L 272.814545 145.963083 
L 273.131901 145.560217 
L 274.083967 145.402456 
L 275.036033 145.305781 
L 277.257521 144.233528 
L 279.161653 143.399175 
L 279.479008 143.356579 
L 279.796364 143.032338 
L 280.431074 142.936567 
L 281.065785 142.550943 
L 281.38314 142.507007 
L 282.017851 142.032776 
L 282.969917 141.697448 
L 283.287273 141.350444 
L 283.604628 141.301442 
L 283.921983 140.923425 
L 285.191405 140.809505 
L 285.50876 140.653329 
L 285.826116 140.625203 
L 286.143471 139.834738 
L 286.460826 139.772936 
L 286.778182 139.273521 
L 288.047603 138.985659 
L 288.364959 138.675471 
L 289.317025 138.470726 
L 289.951736 138.187195 
L 290.269091 138.183358 
L 290.903802 137.873202 
L 291.221157 137.862955 
L 291.855868 137.48635 
L 292.490579 137.377783 
L 292.807934 136.912485 
L 294.394711 136.449809 
L 294.712066 136.143325 
L 295.029421 136.066793 
L 295.346777 135.872849 
L 295.664132 135.269142 
L 296.616198 134.9961 
L 297.568264 134.418347 
L 297.88562 134.386758 
L 299.789752 133.213054 
L 300.107107 133.201731 
L 300.424463 132.837431 
L 300.741818 132.824978 
L 301.693884 131.910634 
L 302.328595 131.61329 
L 302.963306 131.155239 
L 303.280661 130.763963 
L 303.598017 130.607813 
L 303.915372 130.589274 
L 304.232727 130.380049 
L 304.550083 130.376982 
L 305.184793 130.102391 
L 305.502149 130.045361 
L 305.819504 129.739848 
L 306.13686 129.687949 
L 306.454215 129.513049 
L 306.77157 129.487623 
L 307.088926 129.036241 
L 307.723636 128.836356 
L 308.040992 128.833356 
L 308.358347 128.657834 
L 309.310413 127.566062 
L 309.627769 127.25318 
L 310.262479 127.073376 
L 310.579835 126.774914 
L 310.89719 126.703837 
L 311.214545 126.391179 
L 312.166612 126.25846 
L 312.801322 125.969607 
L 313.118678 125.721334 
L 313.436033 125.662526 
L 313.753388 125.372456 
L 314.070744 125.347584 
L 314.705455 124.94293 
L 315.340165 124.741959 
L 315.657521 124.510576 
L 315.974876 123.865878 
L 316.292231 123.758024 
L 316.609587 122.707175 
L 316.926942 122.592657 
L 317.244298 121.830421 
L 318.196364 121.697859 
L 318.513719 121.683646 
L 318.831074 121.380135 
L 319.465785 120.533973 
L 319.78314 120.363292 
L 320.735207 119.423235 
L 321.052562 119.35949 
L 321.687273 118.517137 
L 322.004628 117.818814 
L 322.321983 117.424483 
L 322.639339 117.223477 
L 322.956694 117.16867 
L 323.27405 116.978019 
L 323.90876 116.818137 
L 324.543471 115.696085 
L 325.178182 114.973088 
L 325.495537 114.926039 
L 325.812893 113.855695 
L 326.447603 113.850537 
L 326.764959 113.448378 
L 327.399669 113.238483 
L 328.03438 112.854391 
L 328.351736 112.822687 
L 328.986446 112.424643 
L 329.621157 112.365553 
L 329.938512 112.145348 
L 330.255868 111.327136 
L 331.207934 110.520239 
L 331.842645 109.631068 
L 332.16 109.465402 
L 332.794711 109.407075 
L 333.112066 108.902936 
L 333.429421 108.6459 
L 335.016198 108.37267 
L 336.602975 106.552299 
L 338.189752 106.084704 
L 338.824463 105.257647 
L 339.141818 105.250532 
L 339.776529 104.939279 
L 340.093884 104.580661 
L 340.41124 104.559941 
L 340.728595 104.420732 
L 341.04595 104.102722 
L 341.363306 103.535159 
L 341.680661 103.414001 
L 341.998017 102.490539 
L 342.315372 102.44114 
L 342.632727 102.133042 
L 343.267438 101.966506 
L 343.584793 101.658044 
L 343.902149 101.608269 
L 344.53686 101.196636 
L 345.17157 101.133186 
L 345.488926 100.875218 
L 346.123636 100.770594 
L 346.758347 100.647519 
L 347.075702 100.312009 
L 347.393058 100.289549 
L 348.027769 99.957463 
L 348.345124 99.01267 
L 348.662479 98.682688 
L 348.979835 98.096775 
L 349.29719 97.998674 
L 349.614545 97.604172 
L 349.931901 97.537522 
L 350.249256 97.350247 
L 350.566612 96.906959 
L 352.470744 96.320132 
L 353.105455 95.807892 
L 353.740165 95.522637 
L 354.374876 94.747202 
L 355.326942 94.704784 
L 355.644298 93.788726 
L 356.279008 93.635718 
L 356.596364 93.629554 
L 356.913719 92.916125 
L 357.231074 92.810083 
L 357.54843 92.404265 
L 357.865785 92.398081 
L 358.817851 91.636367 
L 359.135207 91.528184 
L 359.452562 91.025348 
L 359.769917 90.834019 
L 360.404628 90.737026 
L 360.721983 89.689667 
L 361.039339 89.62281 
L 361.356694 89.107723 
L 361.67405 89.096863 
L 361.991405 88.936672 
L 362.626116 88.14282 
L 362.943471 88.084816 
L 363.578182 87.781955 
L 363.895537 87.137617 
L 364.847603 86.865934 
L 365.164959 86.345893 
L 365.482314 86.221111 
L 366.751736 85.311468 
L 367.069091 85.145852 
L 367.386446 85.140323 
L 368.021157 84.284779 
L 368.973223 83.799603 
L 369.290579 83.785504 
L 369.607934 83.124788 
L 369.925289 82.951021 
L 370.242645 82.93865 
L 370.56 82.359145 
L 371.512066 81.541917 
L 371.829421 81.537644 
L 372.464132 81.121336 
L 373.733554 80.64045 
L 374.050909 80.412974 
L 375.002975 80.125412 
L 376.272397 78.970309 
L 376.589752 78.851849 
L 376.907107 78.136891 
L 377.224463 78.051357 
L 377.859174 77.293371 
L 378.493884 77.059481 
L 379.128595 76.879751 
L 379.763306 76.435865 
L 380.398017 76.15713 
L 380.715372 75.68496 
L 381.350083 75.52975 
L 381.984793 75.094009 
L 382.619504 74.601762 
L 382.93686 74.261011 
L 383.254215 74.083389 
L 383.57157 72.998472 
L 384.523636 72.601581 
L 384.840992 71.70351 
L 385.158347 71.562262 
L 385.475702 71.125939 
L 386.110413 70.895084 
L 386.427769 70.631415 
L 386.745124 70.588745 
L 387.062479 70.292941 
L 387.379835 69.810906 
L 388.014545 69.400956 
L 388.331901 68.83537 
L 388.966612 68.581451 
L 389.283967 68.157534 
L 389.918678 67.752786 
L 390.236033 67.066539 
L 390.553388 66.92752 
L 391.188099 66.353945 
L 391.505455 65.842202 
L 391.82281 64.873862 
L 392.140165 64.6904 
L 392.457521 64.16395 
L 393.409587 63.78456 
L 394.044298 62.385957 
L 394.361653 62.206019 
L 394.679008 61.108552 
L 394.996364 60.722335 
L 395.631074 59.206541 
L 395.94843 59.134603 
L 396.58314 57.536724 
L 396.900496 56.849363 
L 397.535207 56.084833 
L 398.487273 53.568 
L 398.487273 53.568 
" clip-path="url(#p6f1483371b)" style="fill: none; stroke: #1f77b4; stroke-width: 1.5; stroke-linecap: square"/>
   </g>
   <g id="line2d_15">
    <path d="M 73.832727 194.01742 
L 74.150083 191.713969 
L 74.467438 191.713969 
L 74.784793 189.744987 
L 75.102149 189.336002 
L 75.73686 189.336002 
L 76.054215 188.599289 
L 76.37157 187.355614 
L 77.958347 187.086874 
L 78.910413 187.086874 
L 79.227769 186.385244 
L 79.545124 186.385244 
L 80.179835 185.974339 
L 80.49719 185.974339 
L 80.814545 185.198488 
L 81.131901 184.833289 
L 82.083967 184.82701 
L 82.401322 184.610869 
L 86.844298 184.598597 
L 87.161653 184.480249 
L 87.479008 183.918047 
L 88.431074 183.599136 
L 89.700496 183.599136 
L 90.017851 183.350458 
L 90.652562 183.350458 
L 90.969917 183.061582 
L 91.287273 183.061582 
L 91.604628 182.911101 
L 91.921983 182.524038 
L 99.221157 182.524038 
L 99.538512 182.293401 
L 101.76 182.238846 
L 102.077355 181.999784 
L 103.981488 181.94586 
L 104.616198 181.852647 
L 104.933554 181.852647 
L 105.250909 181.524806 
L 106.202975 181.508283 
L 106.520331 180.7684 
L 109.059174 180.52492 
L 109.376529 180.52492 
L 109.693884 180.151006 
L 110.01124 180.151006 
L 110.328595 179.737947 
L 129.369917 179.73793 
L 130.004628 179.367887 
L 130.639339 179.282441 
L 131.27405 179.268366 
L 131.591405 179.076349 
L 132.860826 179.032479 
L 133.178182 178.662833 
L 135.399669 178.585429 
L 135.717025 178.270202 
L 137.303802 178.138578 
L 163.009587 178.138578 
L 163.326942 177.811413 
L 167.769917 177.751621 
L 168.087273 177.346712 
L 169.356694 177.238634 
L 170.943471 177.001839 
L 171.895537 176.951248 
L 172.847603 176.834088 
L 180.781488 176.748079 
L 181.416198 176.663714 
L 182.68562 176.663714 
L 183.320331 175.876725 
L 186.493884 175.824 
L 188.080661 175.464642 
L 188.398017 174.975278 
L 188.715372 174.277372 
L 283.604628 174.277372 
L 284.239339 173.090103 
L 284.556694 173.090103 
L 285.826116 172.730745 
L 288.999669 172.67802 
L 289.63438 171.89103 
L 291.855868 171.806666 
L 292.490579 171.720657 
L 300.107107 171.670688 
L 301.059174 171.552906 
L 302.328595 171.552906 
L 302.963306 171.316111 
L 304.232727 171.208033 
L 304.550083 170.803123 
L 308.993058 170.743332 
L 309.310413 170.416167 
L 336.28562 170.32705 
L 336.602975 170.284543 
L 336.920331 169.969316 
L 339.141818 169.891912 
L 339.459174 169.522266 
L 340.728595 169.478396 
L 341.04595 169.286379 
L 342.315372 169.186858 
L 343.267438 168.816814 
L 361.991405 168.816797 
L 362.30876 168.403739 
L 362.626116 168.403739 
L 362.943471 168.029825 
L 364.530248 168.029825 
L 364.847603 167.859451 
L 365.799669 167.786345 
L 366.117025 167.046462 
L 367.069091 167.029939 
L 367.386446 166.702098 
L 368.338512 166.608885 
L 369.290579 166.554961 
L 370.242645 166.554961 
L 370.56 166.315899 
L 372.781488 166.261344 
L 373.098843 166.030706 
L 380.398017 166.030706 
L 380.715372 165.643644 
L 381.032727 165.493162 
L 381.350083 165.493162 
L 381.667438 165.204286 
L 382.302149 165.204286 
L 382.619504 164.955609 
L 384.206281 164.955609 
L 384.840992 164.636698 
L 385.158347 164.074495 
L 385.793058 163.956148 
L 388.966612 163.943876 
L 389.918678 163.943876 
L 390.236033 163.727735 
L 391.188099 163.721455 
L 391.505455 163.356256 
L 391.82281 162.580406 
L 392.140165 162.580406 
L 393.092231 162.169501 
L 393.409587 161.467871 
L 394.996364 161.467871 
L 395.313719 161.275434 
L 395.94843 161.199131 
L 396.265785 159.955456 
L 396.58314 159.218743 
L 397.217851 159.218743 
L 397.535207 158.809757 
L 397.852562 156.840776 
L 398.169917 156.840776 
L 398.487273 154.537325 
L 398.487273 154.537325 
" clip-path="url(#p6f1483371b)" style="fill: none; stroke: #ff7f0e; stroke-width: 1.5; stroke-linecap: square"/>
   </g>
   <g id="patch_3">
    <path d="M 57.6 307.584 
L 57.6 41.472 
" style="fill: none; stroke: #000000; stroke-width: 0.8; stroke-linejoin: miter; stroke-linecap: square"/>
   </g>
   <g id="patch_4">
    <path d="M 414.72 307.584 
L 414.72 41.472 
" style="fill: none; stroke: #000000; stroke-width: 0.8; stroke-linejoin: miter; stroke-linecap: square"/>
   </g>
   <g id="patch_5">
    <path d="M 57.6 307.584 
L 414.72 307.584 
" style="fill: none; stroke: #000000; stroke-width: 0.8; stroke-linejoin: miter; stroke-linecap: square"/>
   </g>
   <g id="patch_6">
    <path d="M 57.6 41.472 
L 414.72 41.472 
" style="fill: none; stroke: #000000; stroke-width: 0.8; stroke-linejoin: miter; stroke-linecap: square"/>
   </g>
   <g id="legend_1">
    <g id="patch_7">
     <path d="M 64.6 78.82825 
L 129.342187 78.82825 
Q 131.342187 78.82825 131.342187 76.82825 
L 131.342187 48.472 
Q 131.342187 46.472 129.342187 46.472 
L 64.6 46.472 
Q 62.6 46.472 62.6 48.472 
L 62.6 76.82825 
Q 62.6 78.82825 64.6 78.82825 
z
" style="fill: #ffffff; opacity: 0.8; stroke: #cccccc; stroke-linejoin: miter"/>
    </g>
    <g id="line2d_16">
     <path d="M 66.6 54.570437 
L 76.6 54.570437 
L 86.6 54.570437 
" style="fill: none; stroke: #1f77b4; stroke-width: 1.5; stroke-linecap: square"/>
    </g>
    <g id="text_16">
     <!-- qc -->
     <g transform="translate(94.6 58.070437) scale(0.1 -0.1)">
      <defs>
       <path id="DejaVuSans-71" d="M 947 1747 
Q 947 1113 1208 752 
Q 1469 391 1925 391 
Q 2381 391 2643 752 
Q 2906 1113 2906 1747 
Q 2906 2381 2643 2742 
Q 2381 3103 1925 3103 
Q 1469 3103 1208 2742 
Q 947 2381 947 1747 
z
M 2906 525 
Q 2725 213 2448 61 
Q 2172 -91 1784 -91 
Q 1150 -91 751 415 
Q 353 922 353 1747 
Q 353 2572 751 3078 
Q 1150 3584 1784 3584 
Q 2172 3584 2448 3432 
Q 2725 3281 2906 2969 
L 2906 3500 
L 3481 3500 
L 3481 -1331 
L 2906 -1331 
L 2906 525 
z
" transform="scale(0.015625)"/>
       <path id="DejaVuSans-63" d="M 3122 3366 
L 3122 2828 
Q 2878 2963 2633 3030 
Q 2388 3097 2138 3097 
Q 1578 3097 1268 2742 
Q 959 2388 959 1747 
Q 959 1106 1268 751 
Q 1578 397 2138 397 
Q 2388 397 2633 464 
Q 2878 531 3122 666 
L 3122 134 
Q 2881 22 2623 -34 
Q 2366 -91 2075 -91 
Q 1284 -91 818 406 
Q 353 903 353 1747 
Q 353 2603 823 3093 
Q 1294 3584 2113 3584 
Q 2378 3584 2631 3529 
Q 2884 3475 3122 3366 
z
" transform="scale(0.015625)"/>
      </defs>
      <use xlink:href="#DejaVuSans-71"/>
      <use xlink:href="#DejaVuSans-63" x="63.476562"/>
     </g>
    </g>
    <g id="line2d_17">
     <path d="M 66.6 69.248562 
L 76.6 69.248562 
L 86.6 69.248562 
" style="fill: none; stroke: #ff7f0e; stroke-width: 1.5; stroke-linecap: square"/>
    </g>
    <g id="text_17">
     <!-- Trotter -->
     <g transform="translate(94.6 72.748562) scale(0.1 -0.1)">
      <defs>
       <path id="DejaVuSans-54" d="M -19 4666 
L 3928 4666 
L 3928 4134 
L 2272 4134 
L 2272 0 
L 1638 0 
L 1638 4134 
L -19 4134 
L -19 4666 
z
" transform="scale(0.015625)"/>
       <path id="DejaVuSans-72" d="M 2631 2963 
Q 2534 3019 2420 3045 
Q 2306 3072 2169 3072 
Q 1681 3072 1420 2755 
Q 1159 2438 1159 1844 
L 1159 0 
L 581 0 
L 581 3500 
L 1159 3500 
L 1159 2956 
Q 1341 3275 1631 3429 
Q 1922 3584 2338 3584 
Q 2397 3584 2469 3576 
Q 2541 3569 2628 3553 
L 2631 2963 
z
" transform="scale(0.015625)"/>
       <path id="DejaVuSans-6f" d="M 1959 3097 
Q 1497 3097 1228 2736 
Q 959 2375 959 1747 
Q 959 1119 1226 758 
Q 1494 397 1959 397 
Q 2419 397 2687 759 
Q 2956 1122 2956 1747 
Q 2956 2369 2687 2733 
Q 2419 3097 1959 3097 
z
M 1959 3584 
Q 2709 3584 3137 3096 
Q 3566 2609 3566 1747 
Q 3566 888 3137 398 
Q 2709 -91 1959 -91 
Q 1206 -91 779 398 
Q 353 888 353 1747 
Q 353 2609 779 3096 
Q 1206 3584 1959 3584 
z
" transform="scale(0.015625)"/>
       <path id="DejaVuSans-65" d="M 3597 1894 
L 3597 1613 
L 953 1613 
Q 991 1019 1311 708 
Q 1631 397 2203 397 
Q 2534 397 2845 478 
Q 3156 559 3463 722 
L 3463 178 
Q 3153 47 2828 -22 
Q 2503 -91 2169 -91 
Q 1331 -91 842 396 
Q 353 884 353 1716 
Q 353 2575 817 3079 
Q 1281 3584 2069 3584 
Q 2775 3584 3186 3129 
Q 3597 2675 3597 1894 
z
M 3022 2063 
Q 3016 2534 2758 2815 
Q 2500 3097 2075 3097 
Q 1594 3097 1305 2825 
Q 1016 2553 972 2059 
L 3022 2063 
z
" transform="scale(0.015625)"/>
      </defs>
      <use xlink:href="#DejaVuSans-54"/>
      <use xlink:href="#DejaVuSans-72" x="46.333984"/>
      <use xlink:href="#DejaVuSans-6f" x="85.197266"/>
      <use xlink:href="#DejaVuSans-74" x="146.378906"/>
      <use xlink:href="#DejaVuSans-74" x="185.587891"/>
      <use xlink:href="#DejaVuSans-65" x="224.796875"/>
      <use xlink:href="#DejaVuSans-72" x="286.320312"/>
     </g>
    </g>
   </g>
  </g>
 </g>
 <defs>
  <clipPath id="p6f1483371b">
   <rect x="57.6" y="41.472" width="357.12" height="266.112"/>
  </clipPath>
 </defs>
</svg>
