<?xml version="1.0" encoding="utf-8" standalone="no"?>
<!DOCTYPE svg PUBLIC "-//W3C//DTD SVG 1.1//EN"
  "http://www.w3.org/Graphics/SVG/1.1/DTD/svg11.dtd">
<svg xmlns:xlink="http://www.w3.org/1999/xlink" width="460.8pt" height="345.6pt" viewBox="0 0 460.8 345.6" xmlns="http://www.w3.org/2000/svg" version="1.1">
 <metadata>
  <rdf:RDF xmlns:dc="http://purl.org/dc/elements/1.1/" xmlns:cc="http://creativecommons.org/ns#" xmlns:rdf="http://www.w3.org/1999/02/22-rdf-syntax-ns#">
   <cc:Work>
    <dc:type rdf:resource="http://purl.org/dc/dcmitype/StillImage"/>
    <dc:date>2024-08-23T12:11:32.177992</dc:date>
    <dc:format>image/svg+xml</dc:format>
    <dc:creator>
     <cc:Agent>
      <dc:title>Matplotlib v3.7.1, https://matplotlib.org/</dc:title>
     </cc:Agent>
    </dc:creator>
   </cc:Work>
  </rdf:RDF>
 </metadata>
 <defs>
  <style type="text/css">*{stroke-linejoin: round; stroke-linecap: butt}</style>
 </defs>
 <g id="figure_1">
  <g id="patch_1">
   <path d="M 0 345.6 
L 460.8 345.6 
L 460.8 0 
L 0 0 
z
" style="fill: #ffffff"/>
  </g>
  <g id="axes_1">
   <g id="patch_2">
    <path d="M 57.6 307.584 
L 414.72 307.584 
L 414.72 41.472 
L 57.6 41.472 
z
" style="fill: #ffffff"/>
   </g>
   <g id="matplotlib.axis_1">
    <g id="xtick_1">
     <g id="line2d_1">
      <defs>
       <path id="md04aa06577" d="M 0 0 
L 0 3.5 
" style="stroke: #000000; stroke-width: 0.8"/>
      </defs>
      <g>
       <use xlink:href="#md04aa06577" x="73.832727" y="307.584" style="stroke: #000000; stroke-width: 0.8"/>
      </g>
     </g>
     <g id="text_1">
      <!-- 0 -->
      <g transform="translate(70.651477 322.182437) scale(0.1 -0.1)">
       <defs>
        <path id="DejaVuSans-30" d="M 2034 4250 
Q 1547 4250 1301 3770 
Q 1056 3291 1056 2328 
Q 1056 1369 1301 889 
Q 1547 409 2034 409 
Q 2525 409 2770 889 
Q 3016 1369 3016 2328 
Q 3016 3291 2770 3770 
Q 2525 4250 2034 4250 
z
M 2034 4750 
Q 2819 4750 3233 4129 
Q 3647 3509 3647 2328 
Q 3647 1150 3233 529 
Q 2819 -91 2034 -91 
Q 1250 -91 836 529 
Q 422 1150 422 2328 
Q 422 3509 836 4129 
Q 1250 4750 2034 4750 
z
" transform="scale(0.015625)"/>
       </defs>
       <use xlink:href="#DejaVuSans-30"/>
      </g>
     </g>
    </g>
    <g id="xtick_2">
     <g id="line2d_2">
      <g>
       <use xlink:href="#md04aa06577" x="137.303802" y="307.584" style="stroke: #000000; stroke-width: 0.8"/>
      </g>
     </g>
     <g id="text_2">
      <!-- 200 -->
      <g transform="translate(127.760052 322.182437) scale(0.1 -0.1)">
       <defs>
        <path id="DejaVuSans-32" d="M 1228 531 
L 3431 531 
L 3431 0 
L 469 0 
L 469 531 
Q 828 903 1448 1529 
Q 2069 2156 2228 2338 
Q 2531 2678 2651 2914 
Q 2772 3150 2772 3378 
Q 2772 3750 2511 3984 
Q 2250 4219 1831 4219 
Q 1534 4219 1204 4116 
Q 875 4013 500 3803 
L 500 4441 
Q 881 4594 1212 4672 
Q 1544 4750 1819 4750 
Q 2544 4750 2975 4387 
Q 3406 4025 3406 3419 
Q 3406 3131 3298 2873 
Q 3191 2616 2906 2266 
Q 2828 2175 2409 1742 
Q 1991 1309 1228 531 
z
" transform="scale(0.015625)"/>
       </defs>
       <use xlink:href="#DejaVuSans-32"/>
       <use xlink:href="#DejaVuSans-30" x="63.623047"/>
       <use xlink:href="#DejaVuSans-30" x="127.246094"/>
      </g>
     </g>
    </g>
    <g id="xtick_3">
     <g id="line2d_3">
      <g>
       <use xlink:href="#md04aa06577" x="200.774876" y="307.584" style="stroke: #000000; stroke-width: 0.8"/>
      </g>
     </g>
     <g id="text_3">
      <!-- 400 -->
      <g transform="translate(191.231126 322.182437) scale(0.1 -0.1)">
       <defs>
        <path id="DejaVuSans-34" d="M 2419 4116 
L 825 1625 
L 2419 1625 
L 2419 4116 
z
M 2253 4666 
L 3047 4666 
L 3047 1625 
L 3713 1625 
L 3713 1100 
L 3047 1100 
L 3047 0 
L 2419 0 
L 2419 1100 
L 313 1100 
L 313 1709 
L 2253 4666 
z
" transform="scale(0.015625)"/>
       </defs>
       <use xlink:href="#DejaVuSans-34"/>
       <use xlink:href="#DejaVuSans-30" x="63.623047"/>
       <use xlink:href="#DejaVuSans-30" x="127.246094"/>
      </g>
     </g>
    </g>
    <g id="xtick_4">
     <g id="line2d_4">
      <g>
       <use xlink:href="#md04aa06577" x="264.24595" y="307.584" style="stroke: #000000; stroke-width: 0.8"/>
      </g>
     </g>
     <g id="text_4">
      <!-- 600 -->
      <g transform="translate(254.7022 322.182437) scale(0.1 -0.1)">
       <defs>
        <path id="DejaVuSans-36" d="M 2113 2584 
Q 1688 2584 1439 2293 
Q 1191 2003 1191 1497 
Q 1191 994 1439 701 
Q 1688 409 2113 409 
Q 2538 409 2786 701 
Q 3034 994 3034 1497 
Q 3034 2003 2786 2293 
Q 2538 2584 2113 2584 
z
M 3366 4563 
L 3366 3988 
Q 3128 4100 2886 4159 
Q 2644 4219 2406 4219 
Q 1781 4219 1451 3797 
Q 1122 3375 1075 2522 
Q 1259 2794 1537 2939 
Q 1816 3084 2150 3084 
Q 2853 3084 3261 2657 
Q 3669 2231 3669 1497 
Q 3669 778 3244 343 
Q 2819 -91 2113 -91 
Q 1303 -91 875 529 
Q 447 1150 447 2328 
Q 447 3434 972 4092 
Q 1497 4750 2381 4750 
Q 2619 4750 2861 4703 
Q 3103 4656 3366 4563 
z
" transform="scale(0.015625)"/>
       </defs>
       <use xlink:href="#DejaVuSans-36"/>
       <use xlink:href="#DejaVuSans-30" x="63.623047"/>
       <use xlink:href="#DejaVuSans-30" x="127.246094"/>
      </g>
     </g>
    </g>
    <g id="xtick_5">
     <g id="line2d_5">
      <g>
       <use xlink:href="#md04aa06577" x="327.717025" y="307.584" style="stroke: #000000; stroke-width: 0.8"/>
      </g>
     </g>
     <g id="text_5">
      <!-- 800 -->
      <g transform="translate(318.173275 322.182437) scale(0.1 -0.1)">
       <defs>
        <path id="DejaVuSans-38" d="M 2034 2216 
Q 1584 2216 1326 1975 
Q 1069 1734 1069 1313 
Q 1069 891 1326 650 
Q 1584 409 2034 409 
Q 2484 409 2743 651 
Q 3003 894 3003 1313 
Q 3003 1734 2745 1975 
Q 2488 2216 2034 2216 
z
M 1403 2484 
Q 997 2584 770 2862 
Q 544 3141 544 3541 
Q 544 4100 942 4425 
Q 1341 4750 2034 4750 
Q 2731 4750 3128 4425 
Q 3525 4100 3525 3541 
Q 3525 3141 3298 2862 
Q 3072 2584 2669 2484 
Q 3125 2378 3379 2068 
Q 3634 1759 3634 1313 
Q 3634 634 3220 271 
Q 2806 -91 2034 -91 
Q 1263 -91 848 271 
Q 434 634 434 1313 
Q 434 1759 690 2068 
Q 947 2378 1403 2484 
z
M 1172 3481 
Q 1172 3119 1398 2916 
Q 1625 2713 2034 2713 
Q 2441 2713 2670 2916 
Q 2900 3119 2900 3481 
Q 2900 3844 2670 4047 
Q 2441 4250 2034 4250 
Q 1625 4250 1398 4047 
Q 1172 3844 1172 3481 
z
" transform="scale(0.015625)"/>
       </defs>
       <use xlink:href="#DejaVuSans-38"/>
       <use xlink:href="#DejaVuSans-30" x="63.623047"/>
       <use xlink:href="#DejaVuSans-30" x="127.246094"/>
      </g>
     </g>
    </g>
    <g id="xtick_6">
     <g id="line2d_6">
      <g>
       <use xlink:href="#md04aa06577" x="391.188099" y="307.584" style="stroke: #000000; stroke-width: 0.8"/>
      </g>
     </g>
     <g id="text_6">
      <!-- 1000 -->
      <g transform="translate(378.463099 322.182437) scale(0.1 -0.1)">
       <defs>
        <path id="DejaVuSans-31" d="M 794 531 
L 1825 531 
L 1825 4091 
L 703 3866 
L 703 4441 
L 1819 4666 
L 2450 4666 
L 2450 531 
L 3481 531 
L 3481 0 
L 794 0 
L 794 531 
z
" transform="scale(0.015625)"/>
       </defs>
       <use xlink:href="#DejaVuSans-31"/>
       <use xlink:href="#DejaVuSans-30" x="63.623047"/>
       <use xlink:href="#DejaVuSans-30" x="127.246094"/>
       <use xlink:href="#DejaVuSans-30" x="190.869141"/>
      </g>
     </g>
    </g>
    <g id="text_7">
     <!-- n -->
     <g transform="translate(232.99125 335.860562) scale(0.1 -0.1)">
      <defs>
       <path id="DejaVuSans-6e" d="M 3513 2113 
L 3513 0 
L 2938 0 
L 2938 2094 
Q 2938 2591 2744 2837 
Q 2550 3084 2163 3084 
Q 1697 3084 1428 2787 
Q 1159 2491 1159 1978 
L 1159 0 
L 581 0 
L 581 3500 
L 1159 3500 
L 1159 2956 
Q 1366 3272 1645 3428 
Q 1925 3584 2291 3584 
Q 2894 3584 3203 3211 
Q 3513 2838 3513 2113 
z
" transform="scale(0.015625)"/>
      </defs>
      <use xlink:href="#DejaVuSans-6e"/>
     </g>
    </g>
   </g>
   <g id="matplotlib.axis_2">
    <g id="ytick_1">
     <g id="line2d_7">
      <defs>
       <path id="mba3a933a4c" d="M 0 0 
L -3.5 0 
" style="stroke: #000000; stroke-width: 0.8"/>
      </defs>
      <g>
       <use xlink:href="#mba3a933a4c" x="57.6" y="266.564677" style="stroke: #000000; stroke-width: 0.8"/>
      </g>
     </g>
     <g id="text_8">
      <!-- −4 -->
      <g transform="translate(35.857813 270.363896) scale(0.1 -0.1)">
       <defs>
        <path id="DejaVuSans-2212" d="M 678 2272 
L 4684 2272 
L 4684 1741 
L 678 1741 
L 678 2272 
z
" transform="scale(0.015625)"/>
       </defs>
       <use xlink:href="#DejaVuSans-2212"/>
       <use xlink:href="#DejaVuSans-34" x="83.789062"/>
      </g>
     </g>
    </g>
    <g id="ytick_2">
     <g id="line2d_8">
      <g>
       <use xlink:href="#mba3a933a4c" x="57.6" y="225.515143" style="stroke: #000000; stroke-width: 0.8"/>
      </g>
     </g>
     <g id="text_9">
      <!-- −2 -->
      <g transform="translate(35.857813 229.314362) scale(0.1 -0.1)">
       <use xlink:href="#DejaVuSans-2212"/>
       <use xlink:href="#DejaVuSans-32" x="83.789062"/>
      </g>
     </g>
    </g>
    <g id="ytick_3">
     <g id="line2d_9">
      <g>
       <use xlink:href="#mba3a933a4c" x="57.6" y="184.465609" style="stroke: #000000; stroke-width: 0.8"/>
      </g>
     </g>
     <g id="text_10">
      <!-- 0 -->
      <g transform="translate(44.2375 188.264828) scale(0.1 -0.1)">
       <use xlink:href="#DejaVuSans-30"/>
      </g>
     </g>
    </g>
    <g id="ytick_4">
     <g id="line2d_10">
      <g>
       <use xlink:href="#mba3a933a4c" x="57.6" y="143.416075" style="stroke: #000000; stroke-width: 0.8"/>
      </g>
     </g>
     <g id="text_11">
      <!-- 2 -->
      <g transform="translate(44.2375 147.215293) scale(0.1 -0.1)">
       <use xlink:href="#DejaVuSans-32"/>
      </g>
     </g>
    </g>
    <g id="ytick_5">
     <g id="line2d_11">
      <g>
       <use xlink:href="#mba3a933a4c" x="57.6" y="102.36654" style="stroke: #000000; stroke-width: 0.8"/>
      </g>
     </g>
     <g id="text_12">
      <!-- 4 -->
      <g transform="translate(44.2375 106.165759) scale(0.1 -0.1)">
       <use xlink:href="#DejaVuSans-34"/>
      </g>
     </g>
    </g>
    <g id="ytick_6">
     <g id="line2d_12">
      <g>
       <use xlink:href="#mba3a933a4c" x="57.6" y="61.317006" style="stroke: #000000; stroke-width: 0.8"/>
      </g>
     </g>
     <g id="text_13">
      <!-- 6 -->
      <g transform="translate(44.2375 65.116225) scale(0.1 -0.1)">
       <use xlink:href="#DejaVuSans-36"/>
      </g>
     </g>
    </g>
    <g id="text_14">
     <!-- E*t -->
     <g transform="translate(29.778125 182.147531) rotate(-90) scale(0.1 -0.1)">
      <defs>
       <path id="DejaVuSans-45" d="M 628 4666 
L 3578 4666 
L 3578 4134 
L 1259 4134 
L 1259 2753 
L 3481 2753 
L 3481 2222 
L 1259 2222 
L 1259 531 
L 3634 531 
L 3634 0 
L 628 0 
L 628 4666 
z
" transform="scale(0.015625)"/>
       <path id="DejaVuSans-2a" d="M 3009 3897 
L 1888 3291 
L 3009 2681 
L 2828 2375 
L 1778 3009 
L 1778 1831 
L 1422 1831 
L 1422 3009 
L 372 2375 
L 191 2681 
L 1313 3291 
L 191 3897 
L 372 4206 
L 1422 3572 
L 1422 4750 
L 1778 4750 
L 1778 3572 
L 2828 4206 
L 3009 3897 
z
" transform="scale(0.015625)"/>
       <path id="DejaVuSans-74" d="M 1172 4494 
L 1172 3500 
L 2356 3500 
L 2356 3053 
L 1172 3053 
L 1172 1153 
Q 1172 725 1289 603 
Q 1406 481 1766 481 
L 2356 481 
L 2356 0 
L 1766 0 
Q 1100 0 847 248 
Q 594 497 594 1153 
L 594 3053 
L 172 3053 
L 172 3500 
L 594 3500 
L 594 4494 
L 1172 4494 
z
" transform="scale(0.015625)"/>
      </defs>
      <use xlink:href="#DejaVuSans-45"/>
      <use xlink:href="#DejaVuSans-2a" x="63.183594"/>
      <use xlink:href="#DejaVuSans-74" x="113.183594"/>
     </g>
    </g>
   </g>
   <g id="line2d_13">
    <path d="M 73.832727 295.488 
L 74.467438 286.221018 
L 74.784793 284.239757 
L 75.102149 283.613258 
L 75.419504 281.843129 
L 75.73686 281.039889 
L 76.688926 275.580021 
L 77.323636 273.765586 
L 78.593058 269.690383 
L 78.910413 268.890223 
L 79.227769 267.392699 
L 79.862479 266.652051 
L 80.179835 266.228543 
L 80.49719 264.899729 
L 81.449256 262.703063 
L 82.083967 261.691712 
L 82.401322 261.605643 
L 82.718678 260.243385 
L 83.670744 258.283651 
L 83.988099 257.817825 
L 84.305455 257.01691 
L 84.940165 256.183312 
L 85.574876 255.232198 
L 85.892231 254.841565 
L 86.526942 253.753691 
L 86.844298 253.587748 
L 87.161653 253.208371 
L 87.479008 252.514341 
L 87.796364 252.309527 
L 88.431074 251.497283 
L 88.74843 251.279311 
L 89.38314 250.373415 
L 90.017851 249.981958 
L 91.604628 247.820469 
L 91.921983 247.187306 
L 92.239339 247.081835 
L 95.730248 243.855334 
L 96.047603 243.697881 
L 96.999669 242.781905 
L 100.173223 240.182797 
L 103.029421 237.795307 
L 103.981488 237.265793 
L 104.298843 236.926869 
L 104.616198 236.789134 
L 105.250909 236.347825 
L 106.202975 235.92659 
L 106.837686 235.443865 
L 107.155041 235.273505 
L 108.107107 234.296199 
L 109.376529 233.796982 
L 111.915372 232.243727 
L 112.232727 232.195842 
L 114.13686 230.862349 
L 114.454215 230.452432 
L 115.088926 230.101149 
L 115.723636 229.497578 
L 116.358347 229.202914 
L 117.310413 228.537982 
L 118.262479 228.060268 
L 119.214545 227.47426 
L 121.436033 226.041513 
L 121.753388 226.005109 
L 122.388099 225.486389 
L 122.705455 225.433549 
L 123.02281 225.186987 
L 123.974876 224.904265 
L 126.196364 223.770177 
L 130.639339 221.588081 
L 130.956694 221.492693 
L 132.226116 220.646504 
L 133.495537 220.039142 
L 133.812893 219.717151 
L 136.351736 218.693987 
L 137.303802 217.982171 
L 137.938512 217.779046 
L 138.573223 217.473143 
L 141.112066 216.336583 
L 142.381488 215.706383 
L 143.016198 215.561568 
L 143.650909 215.165229 
L 143.968264 215.130622 
L 145.237686 214.581735 
L 146.189752 214.252195 
L 146.824463 213.877951 
L 147.776529 213.680609 
L 148.093884 213.497284 
L 148.728595 213.351422 
L 149.363306 212.881303 
L 150.315372 212.457303 
L 150.632727 212.376684 
L 150.950083 212.117692 
L 151.584793 211.879637 
L 154.758347 210.388266 
L 155.075702 210.115485 
L 155.710413 210.008222 
L 156.345124 209.662648 
L 156.662479 209.55127 
L 156.979835 209.276851 
L 163.644298 206.720531 
L 164.596364 206.234135 
L 166.500496 205.555235 
L 167.135207 205.253664 
L 169.039339 204.713361 
L 169.356694 204.423904 
L 170.30876 204.111874 
L 170.943471 203.946872 
L 171.895537 203.464483 
L 174.43438 202.587106 
L 175.703802 202.016341 
L 176.338512 201.7825 
L 176.973223 201.522468 
L 180.146777 200.326686 
L 181.098843 199.99585 
L 182.050909 199.749348 
L 182.368264 199.509333 
L 183.002975 199.337514 
L 183.955041 198.958309 
L 191.254215 196.490802 
L 191.57157 196.297254 
L 192.206281 196.110027 
L 194.427769 195.251245 
L 194.745124 195.184041 
L 195.062479 194.931652 
L 196.014545 194.710491 
L 196.649256 194.442328 
L 199.82281 193.409603 
L 200.457521 193.209548 
L 201.409587 192.83013 
L 203.631074 192.118689 
L 205.217851 191.478146 
L 205.852562 191.308877 
L 206.487273 191.034757 
L 207.121983 190.867864 
L 207.756694 190.662718 
L 211.882314 189.487382 
L 213.786446 188.831198 
L 214.421157 188.683926 
L 220.133554 186.670785 
L 220.768264 186.516845 
L 223.941818 185.136383 
L 224.576529 184.986637 
L 226.480661 184.327148 
L 226.798017 184.259811 
L 227.432727 183.90278 
L 228.384793 183.633173 
L 230.923636 182.779494 
L 231.240992 182.608159 
L 231.875702 182.475443 
L 232.827769 182.111724 
L 233.462479 181.948887 
L 234.09719 181.617151 
L 234.731901 181.508979 
L 235.683967 181.064639 
L 241.713719 179.058666 
L 242.34843 178.770631 
L 245.521983 177.68132 
L 246.156694 177.567129 
L 246.791405 177.250391 
L 247.426116 177.12603 
L 248.060826 176.811958 
L 248.695537 176.626163 
L 249.330248 176.402423 
L 251.23438 175.708726 
L 251.551736 175.426175 
L 252.821157 175.10811 
L 253.138512 174.935853 
L 254.090579 174.728311 
L 255.36 174.317246 
L 256.629421 173.97877 
L 257.264132 173.643548 
L 257.898843 173.433324 
L 259.168264 173.040271 
L 259.48562 172.954495 
L 260.120331 172.648516 
L 260.755041 172.482971 
L 266.784793 170.377645 
L 267.73686 170.091311 
L 269.958347 169.314735 
L 271.227769 168.899731 
L 271.545124 168.68662 
L 271.862479 168.616404 
L 272.179835 168.378596 
L 272.814545 168.239917 
L 274.083967 167.877338 
L 275.036033 167.495513 
L 275.988099 167.203033 
L 276.940165 166.829221 
L 277.574876 166.724226 
L 278.209587 166.485638 
L 281.700496 165.250862 
L 282.335207 165.064284 
L 282.969917 164.732089 
L 283.921983 164.422385 
L 285.50876 163.887573 
L 286.460826 163.489458 
L 287.095537 163.303255 
L 288.047603 162.925096 
L 288.999669 162.673774 
L 289.63438 162.316804 
L 290.269091 162.127087 
L 291.221157 161.875212 
L 291.855868 161.604358 
L 297.568264 159.47602 
L 298.520331 159.134312 
L 298.837686 158.933563 
L 299.155041 158.878317 
L 299.472397 158.602884 
L 301.376529 158.073339 
L 302.328595 157.602724 
L 303.280661 157.220333 
L 303.598017 157.178904 
L 304.232727 156.805504 
L 304.867438 156.567278 
L 305.819504 156.027882 
L 307.088926 155.697559 
L 308.040992 155.348209 
L 308.675702 155.066548 
L 311.849256 153.880517 
L 312.166612 153.829276 
L 312.801322 153.451243 
L 313.436033 153.298967 
L 318.831074 151.071263 
L 319.14843 150.75574 
L 321.369917 149.913084 
L 321.687273 149.854934 
L 322.004628 149.622986 
L 322.321983 149.546339 
L 322.639339 149.286197 
L 323.27405 149.110399 
L 324.543471 148.510114 
L 324.860826 148.248288 
L 325.495537 148.141082 
L 327.399669 147.352458 
L 327.717025 147.089858 
L 329.938512 146.185006 
L 332.16 145.128743 
L 332.794711 144.988448 
L 333.112066 144.661182 
L 334.381488 144.125235 
L 335.333554 143.549553 
L 335.650909 143.335894 
L 336.28562 143.065347 
L 339.141818 141.747847 
L 339.459174 141.386528 
L 339.776529 141.368984 
L 340.728595 140.795369 
L 341.04595 140.488234 
L 342.950083 139.705432 
L 345.488926 138.27764 
L 346.440992 137.928666 
L 346.758347 137.645032 
L 347.393058 137.366126 
L 347.710413 136.95041 
L 348.345124 136.689216 
L 349.29719 136.082929 
L 352.470744 134.290286 
L 355.009587 133.025311 
L 355.326942 132.629386 
L 356.596364 132.034806 
L 356.913719 131.744078 
L 358.18314 131.304509 
L 358.817851 130.597027 
L 359.452562 130.242946 
L 359.769917 130.117712 
L 360.087273 129.826817 
L 360.404628 129.775861 
L 362.626116 128.199176 
L 363.260826 127.666434 
L 363.578182 127.585316 
L 364.212893 127.17924 
L 364.530248 127.058022 
L 364.847603 126.577638 
L 365.164959 126.471183 
L 365.482314 126.014752 
L 366.117025 125.6221 
L 366.43438 125.294753 
L 367.069091 124.902737 
L 367.703802 124.494489 
L 368.655868 123.853823 
L 368.973223 123.427288 
L 369.925289 122.892968 
L 370.242645 122.268193 
L 372.781488 120.554701 
L 373.098843 120.016852 
L 373.733554 119.731602 
L 374.050909 119.267455 
L 374.368264 119.224599 
L 374.68562 118.80698 
L 375.320331 118.390016 
L 375.637686 117.808084 
L 376.589752 116.865079 
L 377.859174 115.975552 
L 378.493884 115.070284 
L 378.81124 114.90348 
L 379.128595 114.475878 
L 380.080661 113.808361 
L 381.032727 112.365111 
L 381.667438 111.804307 
L 382.93686 110.187693 
L 383.254215 110.014324 
L 383.57157 109.481019 
L 384.206281 109.060772 
L 384.523636 108.417006 
L 385.158347 108.089865 
L 385.475702 107.972345 
L 386.110413 106.77959 
L 386.427769 106.419625 
L 386.745124 105.775574 
L 387.062479 105.662736 
L 388.014545 103.680249 
L 388.649256 101.450582 
L 388.966612 101.202887 
L 389.283967 100.049605 
L 389.601322 99.989147 
L 389.918678 99.16143 
L 390.236033 99.031455 
L 391.505455 95.427418 
L 392.140165 94.832829 
L 392.457521 94.263394 
L 392.774876 93.063765 
L 393.092231 92.880992 
L 393.409587 91.491373 
L 394.044298 90.192719 
L 394.679008 88.159495 
L 394.996364 87.220981 
L 395.313719 85.853064 
L 395.631074 85.217112 
L 395.94843 82.670285 
L 396.265785 82.106724 
L 396.58314 79.966364 
L 396.900496 76.016821 
L 397.217851 75.129273 
L 397.535207 73.910909 
L 398.487273 53.568 
L 398.487273 53.568 
" clip-path="url(#p21c130e438)" style="fill: none; stroke: #1f77b4; stroke-width: 1.5; stroke-linecap: square"/>
   </g>
   <g id="line2d_14">
    <path d="M 73.832727 285.898837 
L 74.150083 274.062671 
L 74.467438 274.062671 
L 74.784793 263.94516 
L 75.102149 261.843609 
L 75.73686 261.843609 
L 76.054215 258.058044 
L 76.37157 251.667487 
L 76.688926 251.275407 
L 77.006281 251.275407 
L 77.323636 250.286579 
L 78.910413 250.286579 
L 79.227769 246.68129 
L 79.545124 246.68129 
L 79.862479 245.376187 
L 80.179835 244.569876 
L 80.49719 244.569876 
L 80.814545 240.583206 
L 81.131901 238.706649 
L 82.083967 238.674383 
L 82.401322 237.563753 
L 86.844298 237.500695 
L 87.161653 236.892572 
L 87.479008 234.003723 
L 87.796364 233.365104 
L 88.113719 232.365016 
L 89.700496 232.365016 
L 90.017851 231.087199 
L 90.652562 231.087199 
L 90.969917 229.602824 
L 91.287273 229.602824 
L 91.604628 228.829582 
L 91.921983 226.840682 
L 99.221157 226.840682 
L 99.538512 225.655564 
L 99.855868 225.655564 
L 100.173223 225.375233 
L 101.76 225.375233 
L 102.077355 224.146825 
L 103.664132 224.146825 
L 103.981488 223.869742 
L 104.298843 223.390769 
L 104.933554 223.390769 
L 105.250909 221.706174 
L 106.202975 221.621275 
L 106.520331 217.819421 
L 107.155041 217.443771 
L 107.472397 217.443771 
L 107.789752 216.568313 
L 109.376529 216.568313 
L 109.693884 214.646973 
L 110.01124 214.646973 
L 110.328595 212.524495 
L 129.369917 212.524408 
L 129.687273 211.318276 
L 130.321983 210.183898 
L 131.27405 210.111575 
L 131.591405 209.124903 
L 131.90876 209.124903 
L 132.226116 208.899482 
L 132.860826 208.899482 
L 133.178182 207.000073 
L 133.495537 207.000073 
L 133.812893 206.602339 
L 135.399669 206.602339 
L 135.717025 204.98256 
L 136.03438 204.764141 
L 136.351736 204.398425 
L 136.986446 204.306217 
L 163.009587 204.306217 
L 163.326942 202.625094 
L 167.135207 202.625094 
L 167.452562 202.31786 
L 167.769917 202.31786 
L 168.087273 200.237253 
L 168.404628 200.237253 
L 168.721983 199.6819 
L 169.356694 199.6819 
L 169.67405 199.323521 
L 169.991405 198.465143 
L 171.578182 198.465143 
L 172.212893 197.859924 
L 172.530248 197.859924 
L 172.847603 197.603163 
L 180.146777 197.603163 
L 180.464132 197.16121 
L 180.781488 197.16121 
L 181.098843 196.727705 
L 182.68562 196.727705 
L 183.320331 192.683799 
L 185.541818 192.647827 
L 185.859174 192.412876 
L 186.493884 192.412876 
L 186.81124 192.057989 
L 187.128595 191.168663 
L 187.44595 191.168663 
L 187.763306 190.566333 
L 188.080661 190.566333 
L 188.398017 188.051762 
L 188.715372 184.465609 
L 283.604628 184.465609 
L 284.239339 178.364885 
L 284.556694 178.364885 
L 284.87405 177.762554 
L 285.191405 177.762554 
L 285.50876 176.873229 
L 285.826116 176.518342 
L 286.460826 176.518342 
L 286.778182 176.283391 
L 288.999669 176.247418 
L 289.63438 172.203513 
L 291.221157 172.203513 
L 291.538512 171.770008 
L 291.855868 171.770008 
L 292.173223 171.328055 
L 299.472397 171.328055 
L 299.789752 171.071293 
L 300.107107 171.071293 
L 300.741818 170.466075 
L 302.328595 170.466075 
L 302.64595 169.607696 
L 302.963306 169.249318 
L 303.598017 169.249318 
L 303.915372 168.693965 
L 304.232727 168.693965 
L 304.550083 166.613357 
L 304.867438 166.613357 
L 305.184793 166.306124 
L 308.993058 166.306124 
L 309.310413 164.625001 
L 335.968264 164.532793 
L 336.602975 163.948658 
L 336.920331 162.328879 
L 338.507107 162.328879 
L 338.824463 161.931144 
L 339.141818 161.931144 
L 339.459174 160.031736 
L 340.093884 160.031736 
L 340.41124 159.806314 
L 340.728595 159.806314 
L 341.04595 158.819643 
L 341.680661 158.74732 
L 341.998017 158.74732 
L 342.315372 158.308262 
L 342.632727 157.612942 
L 342.950083 156.40681 
L 361.991405 156.406722 
L 362.30876 154.284245 
L 362.626116 154.284245 
L 362.943471 152.362904 
L 364.530248 152.362904 
L 364.847603 151.487447 
L 365.164959 151.487447 
L 365.799669 151.111797 
L 366.117025 147.309943 
L 367.069091 147.225043 
L 367.386446 145.540449 
L 368.021157 145.540449 
L 368.338512 145.061476 
L 368.655868 144.784393 
L 370.242645 144.784393 
L 370.56 143.555985 
L 372.146777 143.555985 
L 372.464132 143.275654 
L 372.781488 143.275654 
L 373.098843 142.090536 
L 380.398017 142.090536 
L 380.715372 140.101636 
L 381.032727 139.328394 
L 381.350083 139.328394 
L 381.667438 137.844019 
L 382.302149 137.844019 
L 382.619504 136.566202 
L 384.206281 136.566202 
L 384.840992 134.927495 
L 385.158347 132.038646 
L 385.475702 131.430522 
L 389.918678 131.367465 
L 390.236033 130.256835 
L 391.188099 130.224568 
L 391.505455 128.348011 
L 391.82281 124.361342 
L 392.140165 124.361342 
L 392.457521 123.555031 
L 392.774876 122.249928 
L 393.092231 122.249928 
L 393.409587 118.644638 
L 394.996364 118.644638 
L 395.313719 117.655811 
L 395.631074 117.655811 
L 395.94843 117.263731 
L 396.265785 110.873173 
L 396.58314 107.087609 
L 397.217851 107.087609 
L 397.535207 104.986058 
L 397.852562 94.868547 
L 398.169917 94.868547 
L 398.487273 83.032381 
L 398.487273 83.032381 
" clip-path="url(#p21c130e438)" style="fill: none; stroke: #ff7f0e; stroke-width: 1.5; stroke-linecap: square"/>
   </g>
   <g id="patch_3">
    <path d="M 57.6 307.584 
L 57.6 41.472 
" style="fill: none; stroke: #000000; stroke-width: 0.8; stroke-linejoin: miter; stroke-linecap: square"/>
   </g>
   <g id="patch_4">
    <path d="M 414.72 307.584 
L 414.72 41.472 
" style="fill: none; stroke: #000000; stroke-width: 0.8; stroke-linejoin: miter; stroke-linecap: square"/>
   </g>
   <g id="patch_5">
    <path d="M 57.6 307.584 
L 414.72 307.584 
" style="fill: none; stroke: #000000; stroke-width: 0.8; stroke-linejoin: miter; stroke-linecap: square"/>
   </g>
   <g id="patch_6">
    <path d="M 57.6 41.472 
L 414.72 41.472 
" style="fill: none; stroke: #000000; stroke-width: 0.8; stroke-linejoin: miter; stroke-linecap: square"/>
   </g>
   <g id="legend_1">
    <g id="patch_7">
     <path d="M 64.6 78.82825 
L 129.342187 78.82825 
Q 131.342187 78.82825 131.342187 76.82825 
L 131.342187 48.472 
Q 131.342187 46.472 129.342187 46.472 
L 64.6 46.472 
Q 62.6 46.472 62.6 48.472 
L 62.6 76.82825 
Q 62.6 78.82825 64.6 78.82825 
z
" style="fill: #ffffff; opacity: 0.8; stroke: #cccccc; stroke-linejoin: miter"/>
    </g>
    <g id="line2d_15">
     <path d="M 66.6 54.570437 
L 76.6 54.570437 
L 86.6 54.570437 
" style="fill: none; stroke: #1f77b4; stroke-width: 1.5; stroke-linecap: square"/>
    </g>
    <g id="text_15">
     <!-- qc -->
     <g transform="translate(94.6 58.070437) scale(0.1 -0.1)">
      <defs>
       <path id="DejaVuSans-71" d="M 947 1747 
Q 947 1113 1208 752 
Q 1469 391 1925 391 
Q 2381 391 2643 752 
Q 2906 1113 2906 1747 
Q 2906 2381 2643 2742 
Q 2381 3103 1925 3103 
Q 1469 3103 1208 2742 
Q 947 2381 947 1747 
z
M 2906 525 
Q 2725 213 2448 61 
Q 2172 -91 1784 -91 
Q 1150 -91 751 415 
Q 353 922 353 1747 
Q 353 2572 751 3078 
Q 1150 3584 1784 3584 
Q 2172 3584 2448 3432 
Q 2725 3281 2906 2969 
L 2906 3500 
L 3481 3500 
L 3481 -1331 
L 2906 -1331 
L 2906 525 
z
" transform="scale(0.015625)"/>
       <path id="DejaVuSans-63" d="M 3122 3366 
L 3122 2828 
Q 2878 2963 2633 3030 
Q 2388 3097 2138 3097 
Q 1578 3097 1268 2742 
Q 959 2388 959 1747 
Q 959 1106 1268 751 
Q 1578 397 2138 397 
Q 2388 397 2633 464 
Q 2878 531 3122 666 
L 3122 134 
Q 2881 22 2623 -34 
Q 2366 -91 2075 -91 
Q 1284 -91 818 406 
Q 353 903 353 1747 
Q 353 2603 823 3093 
Q 1294 3584 2113 3584 
Q 2378 3584 2631 3529 
Q 2884 3475 3122 3366 
z
" transform="scale(0.015625)"/>
      </defs>
      <use xlink:href="#DejaVuSans-71"/>
      <use xlink:href="#DejaVuSans-63" x="63.476562"/>
     </g>
    </g>
    <g id="line2d_16">
     <path d="M 66.6 69.248562 
L 76.6 69.248562 
L 86.6 69.248562 
" style="fill: none; stroke: #ff7f0e; stroke-width: 1.5; stroke-linecap: square"/>
    </g>
    <g id="text_16">
     <!-- Trotter -->
     <g transform="translate(94.6 72.748562) scale(0.1 -0.1)">
      <defs>
       <path id="DejaVuSans-54" d="M -19 4666 
L 3928 4666 
L 3928 4134 
L 2272 4134 
L 2272 0 
L 1638 0 
L 1638 4134 
L -19 4134 
L -19 4666 
z
" transform="scale(0.015625)"/>
       <path id="DejaVuSans-72" d="M 2631 2963 
Q 2534 3019 2420 3045 
Q 2306 3072 2169 3072 
Q 1681 3072 1420 2755 
Q 1159 2438 1159 1844 
L 1159 0 
L 581 0 
L 581 3500 
L 1159 3500 
L 1159 2956 
Q 1341 3275 1631 3429 
Q 1922 3584 2338 3584 
Q 2397 3584 2469 3576 
Q 2541 3569 2628 3553 
L 2631 2963 
z
" transform="scale(0.015625)"/>
       <path id="DejaVuSans-6f" d="M 1959 3097 
Q 1497 3097 1228 2736 
Q 959 2375 959 1747 
Q 959 1119 1226 758 
Q 1494 397 1959 397 
Q 2419 397 2687 759 
Q 2956 1122 2956 1747 
Q 2956 2369 2687 2733 
Q 2419 3097 1959 3097 
z
M 1959 3584 
Q 2709 3584 3137 3096 
Q 3566 2609 3566 1747 
Q 3566 888 3137 398 
Q 2709 -91 1959 -91 
Q 1206 -91 779 398 
Q 353 888 353 1747 
Q 353 2609 779 3096 
Q 1206 3584 1959 3584 
z
" transform="scale(0.015625)"/>
       <path id="DejaVuSans-65" d="M 3597 1894 
L 3597 1613 
L 953 1613 
Q 991 1019 1311 708 
Q 1631 397 2203 397 
Q 2534 397 2845 478 
Q 3156 559 3463 722 
L 3463 178 
Q 3153 47 2828 -22 
Q 2503 -91 2169 -91 
Q 1331 -91 842 396 
Q 353 884 353 1716 
Q 353 2575 817 3079 
Q 1281 3584 2069 3584 
Q 2775 3584 3186 3129 
Q 3597 2675 3597 1894 
z
M 3022 2063 
Q 3016 2534 2758 2815 
Q 2500 3097 2075 3097 
Q 1594 3097 1305 2825 
Q 1016 2553 972 2059 
L 3022 2063 
z
" transform="scale(0.015625)"/>
      </defs>
      <use xlink:href="#DejaVuSans-54"/>
      <use xlink:href="#DejaVuSans-72" x="46.333984"/>
      <use xlink:href="#DejaVuSans-6f" x="85.197266"/>
      <use xlink:href="#DejaVuSans-74" x="146.378906"/>
      <use xlink:href="#DejaVuSans-74" x="185.587891"/>
      <use xlink:href="#DejaVuSans-65" x="224.796875"/>
      <use xlink:href="#DejaVuSans-72" x="286.320312"/>
     </g>
    </g>
   </g>
  </g>
 </g>
 <defs>
  <clipPath id="p21c130e438">
   <rect x="57.6" y="41.472" width="357.12" height="266.112"/>
  </clipPath>
 </defs>
</svg>
