<?xml version="1.0" encoding="utf-8" standalone="no"?>
<!DOCTYPE svg PUBLIC "-//W3C//DTD SVG 1.1//EN"
  "http://www.w3.org/Graphics/SVG/1.1/DTD/svg11.dtd">
<svg xmlns:xlink="http://www.w3.org/1999/xlink" width="460.8pt" height="345.6pt" viewBox="0 0 460.8 345.6" xmlns="http://www.w3.org/2000/svg" version="1.1">
 <metadata>
  <rdf:RDF xmlns:dc="http://purl.org/dc/elements/1.1/" xmlns:cc="http://creativecommons.org/ns#" xmlns:rdf="http://www.w3.org/1999/02/22-rdf-syntax-ns#">
   <cc:Work>
    <dc:type rdf:resource="http://purl.org/dc/dcmitype/StillImage"/>
    <dc:date>2024-08-23T12:25:28.049852</dc:date>
    <dc:format>image/svg+xml</dc:format>
    <dc:creator>
     <cc:Agent>
      <dc:title>Matplotlib v3.7.1, https://matplotlib.org/</dc:title>
     </cc:Agent>
    </dc:creator>
   </cc:Work>
  </rdf:RDF>
 </metadata>
 <defs>
  <style type="text/css">*{stroke-linejoin: round; stroke-linecap: butt}</style>
 </defs>
 <g id="figure_1">
  <g id="patch_1">
   <path d="M 0 345.6 
L 460.8 345.6 
L 460.8 0 
L 0 0 
z
" style="fill: #ffffff"/>
  </g>
  <g id="axes_1">
   <g id="patch_2">
    <path d="M 57.6 307.584 
L 414.72 307.584 
L 414.72 41.472 
L 57.6 41.472 
z
" style="fill: #ffffff"/>
   </g>
   <g id="matplotlib.axis_1">
    <g id="xtick_1">
     <g id="line2d_1">
      <defs>
       <path id="mad677a5e24" d="M 0 0 
L 0 3.5 
" style="stroke: #000000; stroke-width: 0.8"/>
      </defs>
      <g>
       <use xlink:href="#mad677a5e24" x="73.832727" y="307.584" style="stroke: #000000; stroke-width: 0.8"/>
      </g>
     </g>
     <g id="text_1">
      <!-- 0 -->
      <g transform="translate(70.651477 322.182437) scale(0.1 -0.1)">
       <defs>
        <path id="DejaVuSans-30" d="M 2034 4250 
Q 1547 4250 1301 3770 
Q 1056 3291 1056 2328 
Q 1056 1369 1301 889 
Q 1547 409 2034 409 
Q 2525 409 2770 889 
Q 3016 1369 3016 2328 
Q 3016 3291 2770 3770 
Q 2525 4250 2034 4250 
z
M 2034 4750 
Q 2819 4750 3233 4129 
Q 3647 3509 3647 2328 
Q 3647 1150 3233 529 
Q 2819 -91 2034 -91 
Q 1250 -91 836 529 
Q 422 1150 422 2328 
Q 422 3509 836 4129 
Q 1250 4750 2034 4750 
z
" transform="scale(0.015625)"/>
       </defs>
       <use xlink:href="#DejaVuSans-30"/>
      </g>
     </g>
    </g>
    <g id="xtick_2">
     <g id="line2d_2">
      <g>
       <use xlink:href="#mad677a5e24" x="137.303802" y="307.584" style="stroke: #000000; stroke-width: 0.8"/>
      </g>
     </g>
     <g id="text_2">
      <!-- 200 -->
      <g transform="translate(127.760052 322.182437) scale(0.1 -0.1)">
       <defs>
        <path id="DejaVuSans-32" d="M 1228 531 
L 3431 531 
L 3431 0 
L 469 0 
L 469 531 
Q 828 903 1448 1529 
Q 2069 2156 2228 2338 
Q 2531 2678 2651 2914 
Q 2772 3150 2772 3378 
Q 2772 3750 2511 3984 
Q 2250 4219 1831 4219 
Q 1534 4219 1204 4116 
Q 875 4013 500 3803 
L 500 4441 
Q 881 4594 1212 4672 
Q 1544 4750 1819 4750 
Q 2544 4750 2975 4387 
Q 3406 4025 3406 3419 
Q 3406 3131 3298 2873 
Q 3191 2616 2906 2266 
Q 2828 2175 2409 1742 
Q 1991 1309 1228 531 
z
" transform="scale(0.015625)"/>
       </defs>
       <use xlink:href="#DejaVuSans-32"/>
       <use xlink:href="#DejaVuSans-30" x="63.623047"/>
       <use xlink:href="#DejaVuSans-30" x="127.246094"/>
      </g>
     </g>
    </g>
    <g id="xtick_3">
     <g id="line2d_3">
      <g>
       <use xlink:href="#mad677a5e24" x="200.774876" y="307.584" style="stroke: #000000; stroke-width: 0.8"/>
      </g>
     </g>
     <g id="text_3">
      <!-- 400 -->
      <g transform="translate(191.231126 322.182437) scale(0.1 -0.1)">
       <defs>
        <path id="DejaVuSans-34" d="M 2419 4116 
L 825 1625 
L 2419 1625 
L 2419 4116 
z
M 2253 4666 
L 3047 4666 
L 3047 1625 
L 3713 1625 
L 3713 1100 
L 3047 1100 
L 3047 0 
L 2419 0 
L 2419 1100 
L 313 1100 
L 313 1709 
L 2253 4666 
z
" transform="scale(0.015625)"/>
       </defs>
       <use xlink:href="#DejaVuSans-34"/>
       <use xlink:href="#DejaVuSans-30" x="63.623047"/>
       <use xlink:href="#DejaVuSans-30" x="127.246094"/>
      </g>
     </g>
    </g>
    <g id="xtick_4">
     <g id="line2d_4">
      <g>
       <use xlink:href="#mad677a5e24" x="264.24595" y="307.584" style="stroke: #000000; stroke-width: 0.8"/>
      </g>
     </g>
     <g id="text_4">
      <!-- 600 -->
      <g transform="translate(254.7022 322.182437) scale(0.1 -0.1)">
       <defs>
        <path id="DejaVuSans-36" d="M 2113 2584 
Q 1688 2584 1439 2293 
Q 1191 2003 1191 1497 
Q 1191 994 1439 701 
Q 1688 409 2113 409 
Q 2538 409 2786 701 
Q 3034 994 3034 1497 
Q 3034 2003 2786 2293 
Q 2538 2584 2113 2584 
z
M 3366 4563 
L 3366 3988 
Q 3128 4100 2886 4159 
Q 2644 4219 2406 4219 
Q 1781 4219 1451 3797 
Q 1122 3375 1075 2522 
Q 1259 2794 1537 2939 
Q 1816 3084 2150 3084 
Q 2853 3084 3261 2657 
Q 3669 2231 3669 1497 
Q 3669 778 3244 343 
Q 2819 -91 2113 -91 
Q 1303 -91 875 529 
Q 447 1150 447 2328 
Q 447 3434 972 4092 
Q 1497 4750 2381 4750 
Q 2619 4750 2861 4703 
Q 3103 4656 3366 4563 
z
" transform="scale(0.015625)"/>
       </defs>
       <use xlink:href="#DejaVuSans-36"/>
       <use xlink:href="#DejaVuSans-30" x="63.623047"/>
       <use xlink:href="#DejaVuSans-30" x="127.246094"/>
      </g>
     </g>
    </g>
    <g id="xtick_5">
     <g id="line2d_5">
      <g>
       <use xlink:href="#mad677a5e24" x="327.717025" y="307.584" style="stroke: #000000; stroke-width: 0.8"/>
      </g>
     </g>
     <g id="text_5">
      <!-- 800 -->
      <g transform="translate(318.173275 322.182437) scale(0.1 -0.1)">
       <defs>
        <path id="DejaVuSans-38" d="M 2034 2216 
Q 1584 2216 1326 1975 
Q 1069 1734 1069 1313 
Q 1069 891 1326 650 
Q 1584 409 2034 409 
Q 2484 409 2743 651 
Q 3003 894 3003 1313 
Q 3003 1734 2745 1975 
Q 2488 2216 2034 2216 
z
M 1403 2484 
Q 997 2584 770 2862 
Q 544 3141 544 3541 
Q 544 4100 942 4425 
Q 1341 4750 2034 4750 
Q 2731 4750 3128 4425 
Q 3525 4100 3525 3541 
Q 3525 3141 3298 2862 
Q 3072 2584 2669 2484 
Q 3125 2378 3379 2068 
Q 3634 1759 3634 1313 
Q 3634 634 3220 271 
Q 2806 -91 2034 -91 
Q 1263 -91 848 271 
Q 434 634 434 1313 
Q 434 1759 690 2068 
Q 947 2378 1403 2484 
z
M 1172 3481 
Q 1172 3119 1398 2916 
Q 1625 2713 2034 2713 
Q 2441 2713 2670 2916 
Q 2900 3119 2900 3481 
Q 2900 3844 2670 4047 
Q 2441 4250 2034 4250 
Q 1625 4250 1398 4047 
Q 1172 3844 1172 3481 
z
" transform="scale(0.015625)"/>
       </defs>
       <use xlink:href="#DejaVuSans-38"/>
       <use xlink:href="#DejaVuSans-30" x="63.623047"/>
       <use xlink:href="#DejaVuSans-30" x="127.246094"/>
      </g>
     </g>
    </g>
    <g id="xtick_6">
     <g id="line2d_6">
      <g>
       <use xlink:href="#mad677a5e24" x="391.188099" y="307.584" style="stroke: #000000; stroke-width: 0.8"/>
      </g>
     </g>
     <g id="text_6">
      <!-- 1000 -->
      <g transform="translate(378.463099 322.182437) scale(0.1 -0.1)">
       <defs>
        <path id="DejaVuSans-31" d="M 794 531 
L 1825 531 
L 1825 4091 
L 703 3866 
L 703 4441 
L 1819 4666 
L 2450 4666 
L 2450 531 
L 3481 531 
L 3481 0 
L 794 0 
L 794 531 
z
" transform="scale(0.015625)"/>
       </defs>
       <use xlink:href="#DejaVuSans-31"/>
       <use xlink:href="#DejaVuSans-30" x="63.623047"/>
       <use xlink:href="#DejaVuSans-30" x="127.246094"/>
       <use xlink:href="#DejaVuSans-30" x="190.869141"/>
      </g>
     </g>
    </g>
    <g id="text_7">
     <!-- n -->
     <g transform="translate(232.99125 335.860562) scale(0.1 -0.1)">
      <defs>
       <path id="DejaVuSans-6e" d="M 3513 2113 
L 3513 0 
L 2938 0 
L 2938 2094 
Q 2938 2591 2744 2837 
Q 2550 3084 2163 3084 
Q 1697 3084 1428 2787 
Q 1159 2491 1159 1978 
L 1159 0 
L 581 0 
L 581 3500 
L 1159 3500 
L 1159 2956 
Q 1366 3272 1645 3428 
Q 1925 3584 2291 3584 
Q 2894 3584 3203 3211 
Q 3513 2838 3513 2113 
z
" transform="scale(0.015625)"/>
      </defs>
      <use xlink:href="#DejaVuSans-6e"/>
     </g>
    </g>
   </g>
   <g id="matplotlib.axis_2">
    <g id="ytick_1">
     <g id="line2d_7">
      <defs>
       <path id="ma2f0d4424b" d="M 0 0 
L -3.5 0 
" style="stroke: #000000; stroke-width: 0.8"/>
      </defs>
      <g>
       <use xlink:href="#ma2f0d4424b" x="57.6" y="272.437779" style="stroke: #000000; stroke-width: 0.8"/>
      </g>
     </g>
     <g id="text_8">
      <!-- −4 -->
      <g transform="translate(35.857813 276.236998) scale(0.1 -0.1)">
       <defs>
        <path id="DejaVuSans-2212" d="M 678 2272 
L 4684 2272 
L 4684 1741 
L 678 1741 
L 678 2272 
z
" transform="scale(0.015625)"/>
       </defs>
       <use xlink:href="#DejaVuSans-2212"/>
       <use xlink:href="#DejaVuSans-34" x="83.789062"/>
      </g>
     </g>
    </g>
    <g id="ytick_2">
     <g id="line2d_8">
      <g>
       <use xlink:href="#ma2f0d4424b" x="57.6" y="223.498449" style="stroke: #000000; stroke-width: 0.8"/>
      </g>
     </g>
     <g id="text_9">
      <!-- −2 -->
      <g transform="translate(35.857813 227.297668) scale(0.1 -0.1)">
       <use xlink:href="#DejaVuSans-2212"/>
       <use xlink:href="#DejaVuSans-32" x="83.789062"/>
      </g>
     </g>
    </g>
    <g id="ytick_3">
     <g id="line2d_9">
      <g>
       <use xlink:href="#ma2f0d4424b" x="57.6" y="174.559119" style="stroke: #000000; stroke-width: 0.8"/>
      </g>
     </g>
     <g id="text_10">
      <!-- 0 -->
      <g transform="translate(44.2375 178.358338) scale(0.1 -0.1)">
       <use xlink:href="#DejaVuSans-30"/>
      </g>
     </g>
    </g>
    <g id="ytick_4">
     <g id="line2d_10">
      <g>
       <use xlink:href="#ma2f0d4424b" x="57.6" y="125.619789" style="stroke: #000000; stroke-width: 0.8"/>
      </g>
     </g>
     <g id="text_11">
      <!-- 2 -->
      <g transform="translate(44.2375 129.419008) scale(0.1 -0.1)">
       <use xlink:href="#DejaVuSans-32"/>
      </g>
     </g>
    </g>
    <g id="ytick_5">
     <g id="line2d_11">
      <g>
       <use xlink:href="#ma2f0d4424b" x="57.6" y="76.680459" style="stroke: #000000; stroke-width: 0.8"/>
      </g>
     </g>
     <g id="text_12">
      <!-- 4 -->
      <g transform="translate(44.2375 80.479678) scale(0.1 -0.1)">
       <use xlink:href="#DejaVuSans-34"/>
      </g>
     </g>
    </g>
    <g id="text_13">
     <!-- E*t -->
     <g transform="translate(29.778125 182.147531) rotate(-90) scale(0.1 -0.1)">
      <defs>
       <path id="DejaVuSans-45" d="M 628 4666 
L 3578 4666 
L 3578 4134 
L 1259 4134 
L 1259 2753 
L 3481 2753 
L 3481 2222 
L 1259 2222 
L 1259 531 
L 3634 531 
L 3634 0 
L 628 0 
L 628 4666 
z
" transform="scale(0.015625)"/>
       <path id="DejaVuSans-2a" d="M 3009 3897 
L 1888 3291 
L 3009 2681 
L 2828 2375 
L 1778 3009 
L 1778 1831 
L 1422 1831 
L 1422 3009 
L 372 2375 
L 191 2681 
L 1313 3291 
L 191 3897 
L 372 4206 
L 1422 3572 
L 1422 4750 
L 1778 4750 
L 1778 3572 
L 2828 4206 
L 3009 3897 
z
" transform="scale(0.015625)"/>
       <path id="DejaVuSans-74" d="M 1172 4494 
L 1172 3500 
L 2356 3500 
L 2356 3053 
L 1172 3053 
L 1172 1153 
Q 1172 725 1289 603 
Q 1406 481 1766 481 
L 2356 481 
L 2356 0 
L 1766 0 
Q 1100 0 847 248 
Q 594 497 594 1153 
L 594 3053 
L 172 3053 
L 172 3500 
L 594 3500 
L 594 4494 
L 1172 4494 
z
" transform="scale(0.015625)"/>
      </defs>
      <use xlink:href="#DejaVuSans-45"/>
      <use xlink:href="#DejaVuSans-2a" x="63.183594"/>
      <use xlink:href="#DejaVuSans-74" x="113.183594"/>
     </g>
    </g>
   </g>
   <g id="line2d_12">
    <path d="M 73.832727 293.504509 
L 74.150083 279.814539 
L 74.467438 279.633937 
L 74.784793 267.114972 
L 75.102149 265.537657 
L 75.419504 265.06312 
L 75.73686 265.055328 
L 76.054215 261.257123 
L 76.37157 253.672249 
L 76.688926 252.439262 
L 77.006281 252.384671 
L 77.958347 251.575021 
L 78.275702 251.444656 
L 78.593058 251.092982 
L 78.910413 251.041533 
L 79.227769 247.043122 
L 79.545124 246.522744 
L 79.862479 245.263142 
L 80.49719 244.997384 
L 80.814545 239.528523 
L 81.131901 237.903714 
L 81.449256 237.824075 
L 81.766612 237.573785 
L 83.353388 237.107226 
L 83.988099 236.474426 
L 84.62281 236.321901 
L 84.940165 236.091895 
L 85.257521 236.065637 
L 85.892231 235.402654 
L 86.209587 234.536185 
L 86.844298 233.905033 
L 87.161653 232.417587 
L 88.113719 230.224935 
L 88.431074 230.065812 
L 88.74843 230.044561 
L 89.065785 229.795768 
L 89.38314 229.703138 
L 89.700496 229.197991 
L 90.017851 229.07965 
L 90.335207 228.54004 
L 90.652562 228.407692 
L 90.969917 227.281691 
L 91.287273 227.048742 
L 91.604628 226.962288 
L 91.921983 225.734859 
L 92.239339 225.472379 
L 92.87405 224.653793 
L 94.460826 223.959278 
L 95.412893 223.321943 
L 96.047603 223.143795 
L 96.364959 222.815704 
L 96.999669 222.608585 
L 97.63438 222.384862 
L 98.269091 222.041084 
L 100.173223 221.338838 
L 100.490579 220.672743 
L 100.807934 220.492255 
L 102.077355 220.233335 
L 102.712066 219.861142 
L 103.029421 219.7937 
L 103.346777 219.607896 
L 103.664132 219.604076 
L 104.616198 219.042404 
L 104.933554 218.458588 
L 105.250909 217.608662 
L 105.568264 217.379434 
L 105.88562 216.943508 
L 106.202975 216.067803 
L 106.837686 212.990887 
L 107.155041 212.391365 
L 108.107107 212.084817 
L 109.059174 211.155896 
L 109.376529 210.969278 
L 110.01124 209.834398 
L 110.64595 209.205851 
L 112.232727 208.408144 
L 113.184793 208.234566 
L 113.819504 207.866812 
L 114.454215 207.748859 
L 115.088926 207.610643 
L 116.358347 207.35089 
L 117.310413 207.151241 
L 117.627769 206.786047 
L 118.262479 206.704528 
L 119.214545 206.491878 
L 120.801322 206.115753 
L 122.705455 205.644078 
L 123.02281 205.613028 
L 123.340165 205.464021 
L 123.974876 205.383397 
L 124.292231 205.185333 
L 124.926942 205.169948 
L 126.196364 204.648266 
L 126.513719 204.590731 
L 126.831074 204.32031 
L 127.14843 204.269765 
L 128.417851 203.703322 
L 131.591405 202.428393 
L 131.90876 201.991946 
L 132.543471 201.725225 
L 132.860826 201.694656 
L 133.178182 200.648406 
L 134.130248 200.217651 
L 134.447603 199.810376 
L 135.082314 199.68164 
L 135.717025 199.25868 
L 142.381488 197.691409 
L 143.016198 197.555676 
L 143.650909 197.406417 
L 144.28562 197.259558 
L 145.872397 197.042484 
L 146.189752 197.020939 
L 146.824463 196.749274 
L 149.998017 196.338177 
L 150.632727 196.159936 
L 151.267438 196.009337 
L 152.53686 195.816137 
L 154.758347 195.511105 
L 156.027769 195.248273 
L 157.29719 195.098453 
L 159.518678 194.512985 
L 161.740165 194.116906 
L 162.374876 193.840808 
L 163.961653 193.49099 
L 164.596364 193.17548 
L 167.769917 192.155206 
L 168.721983 191.945736 
L 169.039339 191.329047 
L 169.67405 191.21723 
L 169.991405 191.055467 
L 170.626116 190.486336 
L 171.260826 190.390679 
L 171.578182 189.957345 
L 171.895537 189.916402 
L 172.530248 189.69216 
L 173.482314 189.559055 
L 174.117025 189.278895 
L 175.069091 189.159656 
L 176.338512 188.328478 
L 178.56 187.979669 
L 178.877355 187.762355 
L 179.829421 187.572264 
L 180.781488 186.885881 
L 181.098843 186.720983 
L 182.368264 185.472568 
L 182.68562 185.33184 
L 183.002975 184.74523 
L 183.320331 183.796635 
L 183.637686 183.202059 
L 184.272397 183.135998 
L 184.589752 182.948493 
L 184.907107 182.549471 
L 185.224463 182.461503 
L 185.541818 182.021755 
L 185.859174 182.01745 
L 186.176529 181.704878 
L 187.128595 181.341973 
L 189.350083 178.088003 
L 189.984793 177.891625 
L 190.619504 177.538031 
L 191.888926 177.195527 
L 196.649256 176.180084 
L 198.236033 175.878448 
L 200.457521 175.615162 
L 203.313719 175.276119 
L 204.265785 175.174334 
L 205.852562 174.988306 
L 212.517025 174.391365 
L 216.96 174.033426 
L 223.941818 173.526208 
L 237.588099 172.59688 
L 242.665785 172.287234 
L 249.964959 171.793673 
L 259.48562 171.0208 
L 262.024463 170.780956 
L 268.37157 170.049351 
L 270.593058 169.732482 
L 273.766612 169.274565 
L 275.988099 168.7439 
L 276.940165 168.637682 
L 277.574876 168.419884 
L 279.479008 167.900538 
L 280.74843 167.546386 
L 282.017851 167.116774 
L 282.652562 166.766604 
L 283.287273 166.541969 
L 283.604628 166.089845 
L 283.921983 165.893617 
L 284.239339 165.439892 
L 284.556694 165.349246 
L 285.191405 164.477855 
L 285.826116 163.980212 
L 286.143471 163.933032 
L 286.460826 163.592755 
L 286.778182 163.580408 
L 287.095537 163.352119 
L 288.047603 163.21537 
L 288.364959 162.733027 
L 288.682314 162.533822 
L 288.999669 161.5433 
L 289.317025 161.446998 
L 289.63438 160.395727 
L 289.951736 160.256533 
L 290.269091 159.823603 
L 290.903802 159.413153 
L 291.221157 159.165295 
L 291.538512 159.149953 
L 292.173223 158.841977 
L 294.077355 158.34546 
L 295.346777 157.520488 
L 297.250909 157.194041 
L 298.837686 156.763205 
L 299.472397 156.613456 
L 299.789752 156.227852 
L 301.059174 155.743864 
L 301.693884 155.28764 
L 302.328595 154.986723 
L 302.963306 154.494532 
L 303.598017 154.281825 
L 304.550083 153.95287 
L 305.184793 152.956804 
L 306.77157 152.338314 
L 307.088926 152.281608 
L 307.406281 151.894428 
L 309.627769 151.566791 
L 310.262479 151.380349 
L 311.214545 151.291793 
L 311.531901 151.056609 
L 313.436033 150.763957 
L 314.070744 150.567757 
L 315.02281 150.412195 
L 315.974876 150.20107 
L 316.292231 150.04689 
L 317.879008 149.848328 
L 323.90876 148.711291 
L 325.178182 148.531764 
L 326.130248 148.304623 
L 326.447603 148.277901 
L 326.764959 148.043367 
L 332.16 146.960887 
L 332.477355 146.753739 
L 333.112066 146.671202 
L 333.429421 146.432152 
L 334.698843 146.242951 
L 335.968264 146.034829 
L 336.28562 145.768306 
L 338.189752 145.172921 
L 338.507107 145.167929 
L 338.824463 144.884553 
L 339.141818 144.832438 
L 340.093884 144.374473 
L 340.41124 143.760639 
L 340.728595 143.65946 
L 341.04595 143.299408 
L 341.363306 143.261911 
L 342.632727 142.561571 
L 342.950083 142.15036 
L 343.584793 141.989331 
L 343.902149 141.783686 
L 345.806281 141.334244 
L 346.440992 141.094928 
L 348.662479 140.598832 
L 349.931901 140.356691 
L 352.470744 139.725247 
L 354.374876 139.140544 
L 355.009587 138.984676 
L 355.961653 138.602475 
L 357.54843 138.149086 
L 360.087273 137.447575 
L 360.404628 137.158268 
L 361.039339 136.942033 
L 361.67405 136.204562 
L 362.30876 136.062304 
L 363.578182 135.620652 
L 363.895537 135.140317 
L 364.212893 134.961099 
L 364.530248 134.40538 
L 364.847603 134.318918 
L 365.164959 133.908527 
L 365.799669 132.686705 
L 366.117025 130.686531 
L 366.43438 129.590895 
L 366.751736 129.331109 
L 367.069091 128.909512 
L 367.386446 127.72419 
L 368.338512 126.912712 
L 368.655868 125.82102 
L 368.973223 125.733837 
L 369.290579 125.47125 
L 369.607934 125.389281 
L 369.925289 125.157924 
L 371.194711 124.869652 
L 372.464132 124.346854 
L 374.050909 124.037212 
L 374.68562 123.765314 
L 375.320331 123.616068 
L 375.637686 123.247512 
L 375.955041 123.201483 
L 376.272397 122.959782 
L 376.589752 122.878079 
L 376.907107 122.59894 
L 377.859174 122.359 
L 378.493884 121.594026 
L 378.81124 121.500132 
L 379.128595 121.106033 
L 379.44595 121.059459 
L 379.763306 120.551528 
L 380.080661 119.820479 
L 380.715372 119.307703 
L 381.032727 119.299806 
L 381.984793 118.149516 
L 382.302149 118.14408 
L 382.619504 116.701854 
L 382.93686 116.415074 
L 383.888926 114.915417 
L 384.523636 114.330015 
L 384.840992 114.314954 
L 385.158347 112.535097 
L 386.110413 111.882807 
L 386.427769 111.350081 
L 386.745124 111.267579 
L 387.062479 110.996883 
L 387.69719 110.768955 
L 388.014545 110.386352 
L 388.649256 109.869913 
L 388.966612 109.617461 
L 389.283967 109.54082 
L 389.601322 108.641189 
L 389.918678 108.432322 
L 390.236033 108.400093 
L 390.870744 108.018959 
L 391.188099 107.154129 
L 392.457521 101.388534 
L 392.774876 98.157857 
L 393.092231 97.808706 
L 393.726942 96.411276 
L 394.044298 95.744772 
L 395.313719 94.693129 
L 395.631074 94.133963 
L 395.94843 92.47342 
L 396.58314 82.869983 
L 396.900496 82.197095 
L 397.217851 81.967088 
L 397.535207 78.372294 
L 397.852562 68.949909 
L 398.169917 66.937123 
L 398.487273 53.568 
L 398.487273 53.568 
" clip-path="url(#p3ef7fe4fbf)" style="fill: none; stroke: #1f77b4; stroke-width: 1.5; stroke-linecap: square"/>
   </g>
   <g id="line2d_13">
    <path d="M 73.832727 295.488 
L 74.150083 281.376901 
L 74.467438 281.376901 
L 74.784793 269.314786 
L 75.102149 266.809313 
L 75.73686 266.809313 
L 76.054215 262.296156 
L 76.37157 254.677321 
L 76.688926 254.209883 
L 77.006281 254.209883 
L 77.323636 253.031001 
L 78.910413 253.031001 
L 79.227769 248.732768 
L 79.545124 248.732768 
L 79.862479 247.176822 
L 80.179835 246.215536 
L 80.49719 246.215536 
L 80.814545 241.462622 
L 81.131901 239.225387 
L 82.083967 239.186919 
L 82.401322 237.862824 
L 86.844298 237.787647 
L 87.161653 237.062641 
L 87.479008 233.61855 
L 87.796364 232.857187 
L 88.113719 231.66488 
L 89.700496 231.66488 
L 90.017851 230.141465 
L 90.652562 230.141465 
L 90.969917 228.37179 
L 91.287273 228.37179 
L 91.604628 227.449929 
L 91.921983 225.078759 
L 99.221157 225.078759 
L 99.538512 223.665859 
L 99.855868 223.665859 
L 100.173223 223.331648 
L 101.76 223.331648 
L 102.077355 221.867138 
L 103.664132 221.867138 
L 103.981488 221.536799 
L 104.298843 220.965767 
L 104.933554 220.965767 
L 105.250909 218.95739 
L 106.202975 218.856172 
L 106.520331 214.323595 
L 107.155041 213.875744 
L 107.472397 213.875744 
L 107.789752 212.832022 
L 109.376529 212.832022 
L 109.693884 210.541397 
L 110.01124 210.541397 
L 110.328595 208.010975 
L 129.369917 208.010871 
L 129.687273 206.572918 
L 130.321983 205.220511 
L 131.27405 205.134286 
L 131.591405 203.957975 
L 131.90876 203.957975 
L 132.226116 203.689228 
L 132.860826 203.689228 
L 133.178182 201.424749 
L 133.495537 201.424749 
L 133.812893 200.950569 
L 135.399669 200.950569 
L 135.717025 199.019465 
L 136.03438 198.759067 
L 136.351736 198.323059 
L 136.986446 198.213129 
L 163.009587 198.213129 
L 163.326942 196.208891 
L 167.135207 196.208891 
L 167.452562 195.842606 
L 167.769917 195.842606 
L 168.087273 193.362102 
L 168.404628 193.362102 
L 168.721983 192.700009 
L 169.356694 192.700009 
L 169.67405 192.27275 
L 169.991405 191.249389 
L 171.578182 191.249389 
L 172.212893 190.527847 
L 172.530248 190.527847 
L 172.847603 190.221735 
L 180.146777 190.221735 
L 180.464132 189.694838 
L 180.781488 189.694838 
L 181.098843 189.178013 
L 182.68562 189.178013 
L 183.320331 184.356861 
L 185.541818 184.313975 
L 185.859174 184.033866 
L 186.493884 184.033866 
L 186.81124 183.610768 
L 187.128595 182.550513 
L 187.44595 182.550513 
L 187.763306 181.832414 
L 188.080661 181.832414 
L 188.398017 178.834538 
L 188.715372 174.559119 
L 283.604628 174.559119 
L 284.239339 167.285824 
L 284.556694 167.285824 
L 284.87405 166.567725 
L 285.191405 166.567725 
L 285.50876 165.50747 
L 285.826116 165.084373 
L 286.460826 165.084373 
L 286.778182 164.804264 
L 288.999669 164.761377 
L 289.63438 159.940226 
L 291.221157 159.940226 
L 291.538512 159.4234 
L 291.855868 159.4234 
L 292.173223 158.896504 
L 299.472397 158.896504 
L 299.789752 158.590392 
L 300.107107 158.590392 
L 300.741818 157.868849 
L 302.328595 157.868849 
L 302.64595 156.845489 
L 302.963306 156.418229 
L 303.598017 156.418229 
L 303.915372 155.756137 
L 304.232727 155.756137 
L 304.550083 153.275632 
L 304.867438 153.275632 
L 305.184793 152.909348 
L 308.993058 152.909348 
L 309.310413 150.90511 
L 335.968264 150.795179 
L 336.602975 150.098773 
L 336.920331 148.167669 
L 338.507107 148.167669 
L 338.824463 147.693489 
L 339.141818 147.693489 
L 339.459174 145.429011 
L 340.093884 145.429011 
L 340.41124 145.160263 
L 340.728595 145.160263 
L 341.04595 143.983952 
L 341.680661 143.897728 
L 341.998017 143.897728 
L 342.315372 143.374282 
L 342.632727 142.54532 
L 342.950083 141.107368 
L 361.991405 141.107263 
L 362.30876 138.576841 
L 362.626116 138.576841 
L 362.943471 136.286216 
L 364.530248 136.286216 
L 364.847603 135.242494 
L 365.164959 135.242494 
L 365.799669 134.794644 
L 366.117025 130.262066 
L 367.069091 130.160849 
L 367.386446 128.152472 
L 368.021157 128.152472 
L 368.338512 127.581439 
L 368.655868 127.2511 
L 370.242645 127.2511 
L 370.56 125.786591 
L 372.146777 125.786591 
L 372.464132 125.452379 
L 372.781488 125.452379 
L 373.098843 124.03948 
L 380.398017 124.03948 
L 380.715372 121.668309 
L 381.032727 120.746448 
L 381.350083 120.746448 
L 381.667438 118.976774 
L 382.302149 118.976774 
L 382.619504 117.453358 
L 384.206281 117.453358 
L 384.840992 115.499689 
L 385.158347 112.055597 
L 385.475702 111.330592 
L 389.918678 111.255414 
L 390.236033 109.931319 
L 391.188099 109.892851 
L 391.505455 107.655616 
L 391.82281 102.902702 
L 392.140165 102.902702 
L 392.457521 101.941416 
L 392.774876 100.38547 
L 393.092231 100.38547 
L 393.409587 96.087237 
L 394.996364 96.087237 
L 395.313719 94.908355 
L 395.631074 94.908355 
L 395.94843 94.440917 
L 396.265785 86.822083 
L 396.58314 82.308925 
L 397.217851 82.308925 
L 397.535207 79.803453 
L 397.852562 67.741338 
L 398.169917 67.741338 
L 398.487273 53.630238 
L 398.487273 53.630238 
" clip-path="url(#p3ef7fe4fbf)" style="fill: none; stroke: #ff7f0e; stroke-width: 1.5; stroke-linecap: square"/>
   </g>
   <g id="patch_3">
    <path d="M 57.6 307.584 
L 57.6 41.472 
" style="fill: none; stroke: #000000; stroke-width: 0.8; stroke-linejoin: miter; stroke-linecap: square"/>
   </g>
   <g id="patch_4">
    <path d="M 414.72 307.584 
L 414.72 41.472 
" style="fill: none; stroke: #000000; stroke-width: 0.8; stroke-linejoin: miter; stroke-linecap: square"/>
   </g>
   <g id="patch_5">
    <path d="M 57.6 307.584 
L 414.72 307.584 
" style="fill: none; stroke: #000000; stroke-width: 0.8; stroke-linejoin: miter; stroke-linecap: square"/>
   </g>
   <g id="patch_6">
    <path d="M 57.6 41.472 
L 414.72 41.472 
" style="fill: none; stroke: #000000; stroke-width: 0.8; stroke-linejoin: miter; stroke-linecap: square"/>
   </g>
   <g id="legend_1">
    <g id="patch_7">
     <path d="M 64.6 78.82825 
L 129.342187 78.82825 
Q 131.342187 78.82825 131.342187 76.82825 
L 131.342187 48.472 
Q 131.342187 46.472 129.342187 46.472 
L 64.6 46.472 
Q 62.6 46.472 62.6 48.472 
L 62.6 76.82825 
Q 62.6 78.82825 64.6 78.82825 
z
" style="fill: #ffffff; opacity: 0.8; stroke: #cccccc; stroke-linejoin: miter"/>
    </g>
    <g id="line2d_14">
     <path d="M 66.6 54.570437 
L 76.6 54.570437 
L 86.6 54.570437 
" style="fill: none; stroke: #1f77b4; stroke-width: 1.5; stroke-linecap: square"/>
    </g>
    <g id="text_14">
     <!-- qc -->
     <g transform="translate(94.6 58.070437) scale(0.1 -0.1)">
      <defs>
       <path id="DejaVuSans-71" d="M 947 1747 
Q 947 1113 1208 752 
Q 1469 391 1925 391 
Q 2381 391 2643 752 
Q 2906 1113 2906 1747 
Q 2906 2381 2643 2742 
Q 2381 3103 1925 3103 
Q 1469 3103 1208 2742 
Q 947 2381 947 1747 
z
M 2906 525 
Q 2725 213 2448 61 
Q 2172 -91 1784 -91 
Q 1150 -91 751 415 
Q 353 922 353 1747 
Q 353 2572 751 3078 
Q 1150 3584 1784 3584 
Q 2172 3584 2448 3432 
Q 2725 3281 2906 2969 
L 2906 3500 
L 3481 3500 
L 3481 -1331 
L 2906 -1331 
L 2906 525 
z
" transform="scale(0.015625)"/>
       <path id="DejaVuSans-63" d="M 3122 3366 
L 3122 2828 
Q 2878 2963 2633 3030 
Q 2388 3097 2138 3097 
Q 1578 3097 1268 2742 
Q 959 2388 959 1747 
Q 959 1106 1268 751 
Q 1578 397 2138 397 
Q 2388 397 2633 464 
Q 2878 531 3122 666 
L 3122 134 
Q 2881 22 2623 -34 
Q 2366 -91 2075 -91 
Q 1284 -91 818 406 
Q 353 903 353 1747 
Q 353 2603 823 3093 
Q 1294 3584 2113 3584 
Q 2378 3584 2631 3529 
Q 2884 3475 3122 3366 
z
" transform="scale(0.015625)"/>
      </defs>
      <use xlink:href="#DejaVuSans-71"/>
      <use xlink:href="#DejaVuSans-63" x="63.476562"/>
     </g>
    </g>
    <g id="line2d_15">
     <path d="M 66.6 69.248562 
L 76.6 69.248562 
L 86.6 69.248562 
" style="fill: none; stroke: #ff7f0e; stroke-width: 1.5; stroke-linecap: square"/>
    </g>
    <g id="text_15">
     <!-- Trotter -->
     <g transform="translate(94.6 72.748562) scale(0.1 -0.1)">
      <defs>
       <path id="DejaVuSans-54" d="M -19 4666 
L 3928 4666 
L 3928 4134 
L 2272 4134 
L 2272 0 
L 1638 0 
L 1638 4134 
L -19 4134 
L -19 4666 
z
" transform="scale(0.015625)"/>
       <path id="DejaVuSans-72" d="M 2631 2963 
Q 2534 3019 2420 3045 
Q 2306 3072 2169 3072 
Q 1681 3072 1420 2755 
Q 1159 2438 1159 1844 
L 1159 0 
L 581 0 
L 581 3500 
L 1159 3500 
L 1159 2956 
Q 1341 3275 1631 3429 
Q 1922 3584 2338 3584 
Q 2397 3584 2469 3576 
Q 2541 3569 2628 3553 
L 2631 2963 
z
" transform="scale(0.015625)"/>
       <path id="DejaVuSans-6f" d="M 1959 3097 
Q 1497 3097 1228 2736 
Q 959 2375 959 1747 
Q 959 1119 1226 758 
Q 1494 397 1959 397 
Q 2419 397 2687 759 
Q 2956 1122 2956 1747 
Q 2956 2369 2687 2733 
Q 2419 3097 1959 3097 
z
M 1959 3584 
Q 2709 3584 3137 3096 
Q 3566 2609 3566 1747 
Q 3566 888 3137 398 
Q 2709 -91 1959 -91 
Q 1206 -91 779 398 
Q 353 888 353 1747 
Q 353 2609 779 3096 
Q 1206 3584 1959 3584 
z
" transform="scale(0.015625)"/>
       <path id="DejaVuSans-65" d="M 3597 1894 
L 3597 1613 
L 953 1613 
Q 991 1019 1311 708 
Q 1631 397 2203 397 
Q 2534 397 2845 478 
Q 3156 559 3463 722 
L 3463 178 
Q 3153 47 2828 -22 
Q 2503 -91 2169 -91 
Q 1331 -91 842 396 
Q 353 884 353 1716 
Q 353 2575 817 3079 
Q 1281 3584 2069 3584 
Q 2775 3584 3186 3129 
Q 3597 2675 3597 1894 
z
M 3022 2063 
Q 3016 2534 2758 2815 
Q 2500 3097 2075 3097 
Q 1594 3097 1305 2825 
Q 1016 2553 972 2059 
L 3022 2063 
z
" transform="scale(0.015625)"/>
      </defs>
      <use xlink:href="#DejaVuSans-54"/>
      <use xlink:href="#DejaVuSans-72" x="46.333984"/>
      <use xlink:href="#DejaVuSans-6f" x="85.197266"/>
      <use xlink:href="#DejaVuSans-74" x="146.378906"/>
      <use xlink:href="#DejaVuSans-74" x="185.587891"/>
      <use xlink:href="#DejaVuSans-65" x="224.796875"/>
      <use xlink:href="#DejaVuSans-72" x="286.320312"/>
     </g>
    </g>
   </g>
  </g>
 </g>
 <defs>
  <clipPath id="p3ef7fe4fbf">
   <rect x="57.6" y="41.472" width="357.12" height="266.112"/>
  </clipPath>
 </defs>
</svg>
