<?xml version="1.0" encoding="utf-8" standalone="no"?>
<!DOCTYPE svg PUBLIC "-//W3C//DTD SVG 1.1//EN"
  "http://www.w3.org/Graphics/SVG/1.1/DTD/svg11.dtd">
<svg xmlns:xlink="http://www.w3.org/1999/xlink" width="460.8pt" height="345.6pt" viewBox="0 0 460.8 345.6" xmlns="http://www.w3.org/2000/svg" version="1.1">
 <metadata>
  <rdf:RDF xmlns:dc="http://purl.org/dc/elements/1.1/" xmlns:cc="http://creativecommons.org/ns#" xmlns:rdf="http://www.w3.org/1999/02/22-rdf-syntax-ns#">
   <cc:Work>
    <dc:type rdf:resource="http://purl.org/dc/dcmitype/StillImage"/>
    <dc:date>2024-06-07T01:24:57.588154</dc:date>
    <dc:format>image/svg+xml</dc:format>
    <dc:creator>
     <cc:Agent>
      <dc:title>Matplotlib v3.7.1, https://matplotlib.org/</dc:title>
     </cc:Agent>
    </dc:creator>
   </cc:Work>
  </rdf:RDF>
 </metadata>
 <defs>
  <style type="text/css">*{stroke-linejoin: round; stroke-linecap: butt}</style>
 </defs>
 <g id="figure_1">
  <g id="patch_1">
   <path d="M 0 345.6 
L 460.8 345.6 
L 460.8 0 
L 0 0 
z
" style="fill: #ffffff"/>
  </g>
  <g id="axes_1">
   <g id="patch_2">
    <path d="M 57.6 307.584 
L 414.72 307.584 
L 414.72 41.472 
L 57.6 41.472 
z
" style="fill: #ffffff"/>
   </g>
   <g id="matplotlib.axis_1">
    <g id="xtick_1">
     <g id="line2d_1">
      <defs>
       <path id="mafb0b662db" d="M 0 0 
L 0 3.5 
" style="stroke: #000000; stroke-width: 0.8"/>
      </defs>
      <g>
       <use xlink:href="#mafb0b662db" x="73.832727" y="307.584" style="stroke: #000000; stroke-width: 0.8"/>
      </g>
     </g>
     <g id="text_1">
      <!-- 0 -->
      <g transform="translate(70.651477 322.182437) scale(0.1 -0.1)">
       <defs>
        <path id="DejaVuSans-30" d="M 2034 4250 
Q 1547 4250 1301 3770 
Q 1056 3291 1056 2328 
Q 1056 1369 1301 889 
Q 1547 409 2034 409 
Q 2525 409 2770 889 
Q 3016 1369 3016 2328 
Q 3016 3291 2770 3770 
Q 2525 4250 2034 4250 
z
M 2034 4750 
Q 2819 4750 3233 4129 
Q 3647 3509 3647 2328 
Q 3647 1150 3233 529 
Q 2819 -91 2034 -91 
Q 1250 -91 836 529 
Q 422 1150 422 2328 
Q 422 3509 836 4129 
Q 1250 4750 2034 4750 
z
" transform="scale(0.015625)"/>
       </defs>
       <use xlink:href="#DejaVuSans-30"/>
      </g>
     </g>
    </g>
    <g id="xtick_2">
     <g id="line2d_2">
      <g>
       <use xlink:href="#mafb0b662db" x="137.303802" y="307.584" style="stroke: #000000; stroke-width: 0.8"/>
      </g>
     </g>
     <g id="text_2">
      <!-- 200 -->
      <g transform="translate(127.760052 322.182437) scale(0.1 -0.1)">
       <defs>
        <path id="DejaVuSans-32" d="M 1228 531 
L 3431 531 
L 3431 0 
L 469 0 
L 469 531 
Q 828 903 1448 1529 
Q 2069 2156 2228 2338 
Q 2531 2678 2651 2914 
Q 2772 3150 2772 3378 
Q 2772 3750 2511 3984 
Q 2250 4219 1831 4219 
Q 1534 4219 1204 4116 
Q 875 4013 500 3803 
L 500 4441 
Q 881 4594 1212 4672 
Q 1544 4750 1819 4750 
Q 2544 4750 2975 4387 
Q 3406 4025 3406 3419 
Q 3406 3131 3298 2873 
Q 3191 2616 2906 2266 
Q 2828 2175 2409 1742 
Q 1991 1309 1228 531 
z
" transform="scale(0.015625)"/>
       </defs>
       <use xlink:href="#DejaVuSans-32"/>
       <use xlink:href="#DejaVuSans-30" x="63.623047"/>
       <use xlink:href="#DejaVuSans-30" x="127.246094"/>
      </g>
     </g>
    </g>
    <g id="xtick_3">
     <g id="line2d_3">
      <g>
       <use xlink:href="#mafb0b662db" x="200.774876" y="307.584" style="stroke: #000000; stroke-width: 0.8"/>
      </g>
     </g>
     <g id="text_3">
      <!-- 400 -->
      <g transform="translate(191.231126 322.182437) scale(0.1 -0.1)">
       <defs>
        <path id="DejaVuSans-34" d="M 2419 4116 
L 825 1625 
L 2419 1625 
L 2419 4116 
z
M 2253 4666 
L 3047 4666 
L 3047 1625 
L 3713 1625 
L 3713 1100 
L 3047 1100 
L 3047 0 
L 2419 0 
L 2419 1100 
L 313 1100 
L 313 1709 
L 2253 4666 
z
" transform="scale(0.015625)"/>
       </defs>
       <use xlink:href="#DejaVuSans-34"/>
       <use xlink:href="#DejaVuSans-30" x="63.623047"/>
       <use xlink:href="#DejaVuSans-30" x="127.246094"/>
      </g>
     </g>
    </g>
    <g id="xtick_4">
     <g id="line2d_4">
      <g>
       <use xlink:href="#mafb0b662db" x="264.24595" y="307.584" style="stroke: #000000; stroke-width: 0.8"/>
      </g>
     </g>
     <g id="text_4">
      <!-- 600 -->
      <g transform="translate(254.7022 322.182437) scale(0.1 -0.1)">
       <defs>
        <path id="DejaVuSans-36" d="M 2113 2584 
Q 1688 2584 1439 2293 
Q 1191 2003 1191 1497 
Q 1191 994 1439 701 
Q 1688 409 2113 409 
Q 2538 409 2786 701 
Q 3034 994 3034 1497 
Q 3034 2003 2786 2293 
Q 2538 2584 2113 2584 
z
M 3366 4563 
L 3366 3988 
Q 3128 4100 2886 4159 
Q 2644 4219 2406 4219 
Q 1781 4219 1451 3797 
Q 1122 3375 1075 2522 
Q 1259 2794 1537 2939 
Q 1816 3084 2150 3084 
Q 2853 3084 3261 2657 
Q 3669 2231 3669 1497 
Q 3669 778 3244 343 
Q 2819 -91 2113 -91 
Q 1303 -91 875 529 
Q 447 1150 447 2328 
Q 447 3434 972 4092 
Q 1497 4750 2381 4750 
Q 2619 4750 2861 4703 
Q 3103 4656 3366 4563 
z
" transform="scale(0.015625)"/>
       </defs>
       <use xlink:href="#DejaVuSans-36"/>
       <use xlink:href="#DejaVuSans-30" x="63.623047"/>
       <use xlink:href="#DejaVuSans-30" x="127.246094"/>
      </g>
     </g>
    </g>
    <g id="xtick_5">
     <g id="line2d_5">
      <g>
       <use xlink:href="#mafb0b662db" x="327.717025" y="307.584" style="stroke: #000000; stroke-width: 0.8"/>
      </g>
     </g>
     <g id="text_5">
      <!-- 800 -->
      <g transform="translate(318.173275 322.182437) scale(0.1 -0.1)">
       <defs>
        <path id="DejaVuSans-38" d="M 2034 2216 
Q 1584 2216 1326 1975 
Q 1069 1734 1069 1313 
Q 1069 891 1326 650 
Q 1584 409 2034 409 
Q 2484 409 2743 651 
Q 3003 894 3003 1313 
Q 3003 1734 2745 1975 
Q 2488 2216 2034 2216 
z
M 1403 2484 
Q 997 2584 770 2862 
Q 544 3141 544 3541 
Q 544 4100 942 4425 
Q 1341 4750 2034 4750 
Q 2731 4750 3128 4425 
Q 3525 4100 3525 3541 
Q 3525 3141 3298 2862 
Q 3072 2584 2669 2484 
Q 3125 2378 3379 2068 
Q 3634 1759 3634 1313 
Q 3634 634 3220 271 
Q 2806 -91 2034 -91 
Q 1263 -91 848 271 
Q 434 634 434 1313 
Q 434 1759 690 2068 
Q 947 2378 1403 2484 
z
M 1172 3481 
Q 1172 3119 1398 2916 
Q 1625 2713 2034 2713 
Q 2441 2713 2670 2916 
Q 2900 3119 2900 3481 
Q 2900 3844 2670 4047 
Q 2441 4250 2034 4250 
Q 1625 4250 1398 4047 
Q 1172 3844 1172 3481 
z
" transform="scale(0.015625)"/>
       </defs>
       <use xlink:href="#DejaVuSans-38"/>
       <use xlink:href="#DejaVuSans-30" x="63.623047"/>
       <use xlink:href="#DejaVuSans-30" x="127.246094"/>
      </g>
     </g>
    </g>
    <g id="xtick_6">
     <g id="line2d_6">
      <g>
       <use xlink:href="#mafb0b662db" x="391.188099" y="307.584" style="stroke: #000000; stroke-width: 0.8"/>
      </g>
     </g>
     <g id="text_6">
      <!-- 1000 -->
      <g transform="translate(378.463099 322.182437) scale(0.1 -0.1)">
       <defs>
        <path id="DejaVuSans-31" d="M 794 531 
L 1825 531 
L 1825 4091 
L 703 3866 
L 703 4441 
L 1819 4666 
L 2450 4666 
L 2450 531 
L 3481 531 
L 3481 0 
L 794 0 
L 794 531 
z
" transform="scale(0.015625)"/>
       </defs>
       <use xlink:href="#DejaVuSans-31"/>
       <use xlink:href="#DejaVuSans-30" x="63.623047"/>
       <use xlink:href="#DejaVuSans-30" x="127.246094"/>
       <use xlink:href="#DejaVuSans-30" x="190.869141"/>
      </g>
     </g>
    </g>
    <g id="text_7">
     <!-- n -->
     <g transform="translate(232.99125 335.860562) scale(0.1 -0.1)">
      <defs>
       <path id="DejaVuSans-6e" d="M 3513 2113 
L 3513 0 
L 2938 0 
L 2938 2094 
Q 2938 2591 2744 2837 
Q 2550 3084 2163 3084 
Q 1697 3084 1428 2787 
Q 1159 2491 1159 1978 
L 1159 0 
L 581 0 
L 581 3500 
L 1159 3500 
L 1159 2956 
Q 1366 3272 1645 3428 
Q 1925 3584 2291 3584 
Q 2894 3584 3203 3211 
Q 3513 2838 3513 2113 
z
" transform="scale(0.015625)"/>
      </defs>
      <use xlink:href="#DejaVuSans-6e"/>
     </g>
    </g>
   </g>
   <g id="matplotlib.axis_2">
    <g id="ytick_1">
     <g id="line2d_7">
      <defs>
       <path id="m0faf63d4f1" d="M 0 0 
L -3.5 0 
" style="stroke: #000000; stroke-width: 0.8"/>
      </defs>
      <g>
       <use xlink:href="#m0faf63d4f1" x="57.6" y="291.586117" style="stroke: #000000; stroke-width: 0.8"/>
      </g>
     </g>
     <g id="text_8">
      <!-- −0.6 -->
      <g transform="translate(26.317187 295.385335) scale(0.1 -0.1)">
       <defs>
        <path id="DejaVuSans-2212" d="M 678 2272 
L 4684 2272 
L 4684 1741 
L 678 1741 
L 678 2272 
z
" transform="scale(0.015625)"/>
        <path id="DejaVuSans-2e" d="M 684 794 
L 1344 794 
L 1344 0 
L 684 0 
L 684 794 
z
" transform="scale(0.015625)"/>
       </defs>
       <use xlink:href="#DejaVuSans-2212"/>
       <use xlink:href="#DejaVuSans-30" x="83.789062"/>
       <use xlink:href="#DejaVuSans-2e" x="147.412109"/>
       <use xlink:href="#DejaVuSans-36" x="179.199219"/>
      </g>
     </g>
    </g>
    <g id="ytick_2">
     <g id="line2d_8">
      <g>
       <use xlink:href="#m0faf63d4f1" x="57.6" y="254.949403" style="stroke: #000000; stroke-width: 0.8"/>
      </g>
     </g>
     <g id="text_9">
      <!-- −0.4 -->
      <g transform="translate(26.317187 258.748622) scale(0.1 -0.1)">
       <use xlink:href="#DejaVuSans-2212"/>
       <use xlink:href="#DejaVuSans-30" x="83.789062"/>
       <use xlink:href="#DejaVuSans-2e" x="147.412109"/>
       <use xlink:href="#DejaVuSans-34" x="179.199219"/>
      </g>
     </g>
    </g>
    <g id="ytick_3">
     <g id="line2d_9">
      <g>
       <use xlink:href="#m0faf63d4f1" x="57.6" y="218.31269" style="stroke: #000000; stroke-width: 0.8"/>
      </g>
     </g>
     <g id="text_10">
      <!-- −0.2 -->
      <g transform="translate(26.317187 222.111908) scale(0.1 -0.1)">
       <use xlink:href="#DejaVuSans-2212"/>
       <use xlink:href="#DejaVuSans-30" x="83.789062"/>
       <use xlink:href="#DejaVuSans-2e" x="147.412109"/>
       <use xlink:href="#DejaVuSans-32" x="179.199219"/>
      </g>
     </g>
    </g>
    <g id="ytick_4">
     <g id="line2d_10">
      <g>
       <use xlink:href="#m0faf63d4f1" x="57.6" y="181.675976" style="stroke: #000000; stroke-width: 0.8"/>
      </g>
     </g>
     <g id="text_11">
      <!-- 0.0 -->
      <g transform="translate(34.696875 185.475195) scale(0.1 -0.1)">
       <use xlink:href="#DejaVuSans-30"/>
       <use xlink:href="#DejaVuSans-2e" x="63.623047"/>
       <use xlink:href="#DejaVuSans-30" x="95.410156"/>
      </g>
     </g>
    </g>
    <g id="ytick_5">
     <g id="line2d_11">
      <g>
       <use xlink:href="#m0faf63d4f1" x="57.6" y="145.039262" style="stroke: #000000; stroke-width: 0.8"/>
      </g>
     </g>
     <g id="text_12">
      <!-- 0.2 -->
      <g transform="translate(34.696875 148.838481) scale(0.1 -0.1)">
       <use xlink:href="#DejaVuSans-30"/>
       <use xlink:href="#DejaVuSans-2e" x="63.623047"/>
       <use xlink:href="#DejaVuSans-32" x="95.410156"/>
      </g>
     </g>
    </g>
    <g id="ytick_6">
     <g id="line2d_12">
      <g>
       <use xlink:href="#m0faf63d4f1" x="57.6" y="108.402549" style="stroke: #000000; stroke-width: 0.8"/>
      </g>
     </g>
     <g id="text_13">
      <!-- 0.4 -->
      <g transform="translate(34.696875 112.201768) scale(0.1 -0.1)">
       <use xlink:href="#DejaVuSans-30"/>
       <use xlink:href="#DejaVuSans-2e" x="63.623047"/>
       <use xlink:href="#DejaVuSans-34" x="95.410156"/>
      </g>
     </g>
    </g>
    <g id="ytick_7">
     <g id="line2d_13">
      <g>
       <use xlink:href="#m0faf63d4f1" x="57.6" y="71.765835" style="stroke: #000000; stroke-width: 0.8"/>
      </g>
     </g>
     <g id="text_14">
      <!-- 0.6 -->
      <g transform="translate(34.696875 75.565054) scale(0.1 -0.1)">
       <use xlink:href="#DejaVuSans-30"/>
       <use xlink:href="#DejaVuSans-2e" x="63.623047"/>
       <use xlink:href="#DejaVuSans-36" x="95.410156"/>
      </g>
     </g>
    </g>
    <g id="text_15">
     <!-- E*t -->
     <g transform="translate(20.2375 182.147531) rotate(-90) scale(0.1 -0.1)">
      <defs>
       <path id="DejaVuSans-45" d="M 628 4666 
L 3578 4666 
L 3578 4134 
L 1259 4134 
L 1259 2753 
L 3481 2753 
L 3481 2222 
L 1259 2222 
L 1259 531 
L 3634 531 
L 3634 0 
L 628 0 
L 628 4666 
z
" transform="scale(0.015625)"/>
       <path id="DejaVuSans-2a" d="M 3009 3897 
L 1888 3291 
L 3009 2681 
L 2828 2375 
L 1778 3009 
L 1778 1831 
L 1422 1831 
L 1422 3009 
L 372 2375 
L 191 2681 
L 1313 3291 
L 191 3897 
L 372 4206 
L 1422 3572 
L 1422 4750 
L 1778 4750 
L 1778 3572 
L 2828 4206 
L 3009 3897 
z
" transform="scale(0.015625)"/>
       <path id="DejaVuSans-74" d="M 1172 4494 
L 1172 3500 
L 2356 3500 
L 2356 3053 
L 1172 3053 
L 1172 1153 
Q 1172 725 1289 603 
Q 1406 481 1766 481 
L 2356 481 
L 2356 0 
L 1766 0 
Q 1100 0 847 248 
Q 594 497 594 1153 
L 594 3053 
L 172 3053 
L 172 3500 
L 594 3500 
L 594 4494 
L 1172 4494 
z
" transform="scale(0.015625)"/>
      </defs>
      <use xlink:href="#DejaVuSans-45"/>
      <use xlink:href="#DejaVuSans-2a" x="63.183594"/>
      <use xlink:href="#DejaVuSans-74" x="113.183594"/>
     </g>
    </g>
   </g>
   <g id="line2d_14">
    <path d="M 73.832727 295.488 
L 74.150083 290.282138 
L 74.467438 286.936601 
L 74.784793 286.440477 
L 75.102149 282.125763 
L 75.73686 281.361561 
L 76.054215 280.71346 
L 76.37157 280.634289 
L 76.688926 279.361372 
L 77.006281 278.870051 
L 77.323636 278.011304 
L 77.640992 277.899969 
L 77.958347 276.155831 
L 78.275702 275.429226 
L 78.593058 274.155759 
L 78.910413 273.665301 
L 79.545124 273.42708 
L 79.862479 272.31639 
L 80.179835 272.147956 
L 80.814545 271.223811 
L 81.131901 270.928424 
L 81.766612 269.842388 
L 82.083967 269.743361 
L 82.401322 269.449868 
L 82.718678 269.408387 
L 83.036033 268.221223 
L 84.305455 267.264497 
L 84.940165 266.018642 
L 85.574876 265.85575 
L 85.892231 265.722699 
L 86.209587 265.458481 
L 86.526942 264.582389 
L 86.844298 264.548785 
L 87.479008 264.306584 
L 88.431074 263.880562 
L 88.74843 263.153508 
L 89.065785 263.049951 
L 89.38314 262.205995 
L 89.700496 262.181788 
L 90.017851 261.886406 
L 90.335207 261.880488 
L 90.652562 261.375268 
L 91.287273 260.935593 
L 91.604628 260.376823 
L 92.239339 260.064447 
L 92.556694 259.366384 
L 93.191405 259.286666 
L 93.50876 259.101191 
L 94.143471 258.36577 
L 94.460826 258.271755 
L 94.778182 257.849767 
L 95.095537 257.845122 
L 95.412893 257.552629 
L 96.047603 256.766152 
L 96.682314 256.146713 
L 98.586446 255.262685 
L 98.903802 254.966426 
L 99.221157 254.880892 
L 100.173223 254.160762 
L 102.394711 253.436987 
L 102.712066 253.076587 
L 103.346777 253.000254 
L 103.981488 252.63434 
L 104.298843 251.916431 
L 104.933554 251.888038 
L 105.568264 251.560216 
L 105.88562 251.197534 
L 106.520331 251.149392 
L 106.837686 250.932445 
L 107.472397 249.934439 
L 109.059174 249.063061 
L 109.376529 248.333335 
L 110.328595 248.03891 
L 110.64595 247.717887 
L 111.598017 247.535672 
L 111.915372 247.063333 
L 112.232727 246.824293 
L 112.867438 246.749638 
L 113.184793 246.140934 
L 113.819504 245.801178 
L 114.13686 245.548629 
L 115.406281 245.170253 
L 116.358347 244.426645 
L 116.675702 244.336103 
L 116.993058 243.773305 
L 117.945124 243.587197 
L 118.579835 243.443919 
L 119.214545 243.28968 
L 119.849256 242.854577 
L 120.166612 242.672328 
L 120.801322 241.991978 
L 122.070744 241.593764 
L 122.388099 240.829493 
L 122.705455 240.782198 
L 123.02281 240.005768 
L 123.974876 239.466061 
L 124.292231 239.443802 
L 124.609587 239.289955 
L 124.926942 239.274455 
L 125.244298 239.131388 
L 125.561653 238.782977 
L 126.196364 238.54911 
L 126.513719 238.04803 
L 126.831074 237.769044 
L 127.14843 237.648717 
L 127.465785 237.255861 
L 127.78314 237.238696 
L 128.100496 236.902926 
L 128.735207 236.669043 
L 129.369917 235.360864 
L 130.321983 235.319949 
L 130.956694 234.995271 
L 131.591405 233.807206 
L 131.90876 233.607897 
L 132.226116 233.571853 
L 132.860826 233.274445 
L 133.178182 232.496393 
L 133.495537 232.488869 
L 135.082314 231.72776 
L 135.717025 231.022559 
L 136.669091 230.616776 
L 137.303802 229.521632 
L 137.938512 229.48028 
L 138.573223 229.138741 
L 138.890579 228.44673 
L 139.842645 227.622955 
L 140.16 227.138357 
L 140.477355 227.075245 
L 141.746777 226.334562 
L 142.381488 225.378058 
L 142.698843 225.194985 
L 143.333554 223.907062 
L 143.650909 223.312772 
L 144.602975 222.612779 
L 144.920331 222.488801 
L 145.555041 221.189906 
L 146.189752 221.012008 
L 146.507107 220.730738 
L 146.824463 220.727502 
L 147.141818 220.53859 
L 148.093884 219.193446 
L 148.41124 219.133003 
L 148.728595 218.940428 
L 149.04595 218.92177 
L 149.363306 218.516775 
L 149.680661 217.847607 
L 150.632727 217.546803 
L 151.267438 216.638975 
L 151.584793 216.039581 
L 151.902149 215.985535 
L 152.219504 215.657435 
L 152.53686 215.586258 
L 153.17157 214.990115 
L 154.123636 214.792863 
L 154.440992 214.48067 
L 154.758347 213.862923 
L 155.075702 213.520977 
L 155.393058 212.436034 
L 155.710413 212.171819 
L 156.027769 211.524634 
L 156.345124 211.343216 
L 156.662479 210.902369 
L 156.979835 210.794053 
L 157.29719 210.36356 
L 157.931901 210.145291 
L 158.249256 209.725204 
L 159.518678 209.306108 
L 159.836033 209.180232 
L 160.153388 208.580844 
L 160.788099 208.381966 
L 161.740165 207.805937 
L 162.692231 207.630313 
L 163.326942 207.083621 
L 164.596364 206.440442 
L 165.54843 206.281823 
L 165.865785 205.576219 
L 166.18314 205.441455 
L 166.500496 205.11989 
L 167.769917 204.593977 
L 168.087273 204.364303 
L 168.404628 204.287854 
L 169.039339 203.760808 
L 169.356694 203.685844 
L 169.67405 203.299299 
L 170.30876 203.219445 
L 170.943471 202.629864 
L 171.895537 202.348585 
L 172.530248 201.994312 
L 172.847603 201.33556 
L 173.164959 201.091735 
L 173.482314 200.623232 
L 174.117025 200.266682 
L 175.069091 199.1269 
L 176.021157 198.909097 
L 178.56 198.372009 
L 178.877355 197.902585 
L 179.194711 197.832896 
L 179.512066 197.525813 
L 180.146777 197.359734 
L 181.733554 196.951501 
L 182.368264 196.646746 
L 183.320331 196.228481 
L 183.637686 195.739707 
L 184.272397 195.438211 
L 186.176529 194.938841 
L 186.493884 194.643325 
L 187.128595 194.572639 
L 188.398017 194.094757 
L 189.350083 193.816831 
L 189.667438 193.563696 
L 190.302149 193.494224 
L 190.93686 193.25017 
L 191.57157 193.106255 
L 191.888926 193.047625 
L 192.840992 192.640892 
L 193.475702 192.403412 
L 194.427769 192.037855 
L 195.062479 191.897523 
L 195.69719 191.768596 
L 196.014545 191.340949 
L 196.649256 191.143522 
L 196.966612 191.130705 
L 197.601322 190.708982 
L 198.870744 190.462456 
L 200.457521 189.797503 
L 201.726942 189.546441 
L 203.313719 188.762186 
L 203.631074 188.715618 
L 203.94843 188.393885 
L 204.58314 188.316911 
L 205.852562 187.885368 
L 206.487273 187.681688 
L 206.804628 187.440398 
L 207.439339 187.24555 
L 207.756694 187.052847 
L 208.70876 186.808235 
L 214.421157 184.948118 
L 214.738512 184.761712 
L 215.373223 184.627889 
L 215.690579 184.482292 
L 216.642645 184.342224 
L 217.594711 184.038814 
L 218.864132 183.71126 
L 219.816198 183.259071 
L 220.133554 183.125461 
L 220.450909 182.753624 
L 226.798017 181.174952 
L 227.115372 180.985668 
L 227.750083 180.831535 
L 228.384793 180.538413 
L 229.33686 180.277358 
L 230.288926 180.00568 
L 230.923636 179.86818 
L 232.193058 179.597311 
L 232.827769 179.478439 
L 233.145124 179.175441 
L 233.779835 178.969151 
L 235.049256 178.600297 
L 236.953388 178.146049 
L 237.270744 177.951489 
L 238.540165 177.702831 
L 241.713719 176.315909 
L 242.031074 176.257027 
L 242.665785 175.898451 
L 242.98314 175.816842 
L 243.617851 175.226412 
L 245.204628 174.713137 
L 247.10876 174.123018 
L 248.060826 173.924619 
L 248.378182 173.706724 
L 249.330248 173.440932 
L 255.36 171.660773 
L 255.994711 171.598097 
L 256.629421 171.321523 
L 256.946777 171.301933 
L 257.264132 171.095989 
L 257.898843 170.910451 
L 261.389752 169.68141 
L 261.707107 169.343594 
L 262.024463 169.304454 
L 262.341818 169.133233 
L 262.659174 168.752259 
L 263.293884 168.479314 
L 264.563306 168.202299 
L 264.880661 167.974733 
L 266.150083 167.664661 
L 266.467438 167.391831 
L 267.419504 167.261174 
L 267.73686 167.206975 
L 268.054215 166.988604 
L 270.275702 166.568241 
L 270.593058 166.32713 
L 270.910413 166.306606 
L 271.227769 166.1292 
L 271.545124 166.116872 
L 272.814545 165.200013 
L 273.131901 165.145916 
L 273.766612 164.799904 
L 274.718678 164.524288 
L 275.036033 164.185787 
L 275.353388 164.159787 
L 276.62281 163.595421 
L 276.940165 163.51973 
L 278.209587 162.688379 
L 278.526942 162.52196 
L 279.479008 162.435453 
L 279.796364 162.276129 
L 280.113719 161.923086 
L 281.065785 161.599014 
L 282.017851 161.390882 
L 282.335207 160.826843 
L 283.921983 160.201175 
L 285.191405 159.452076 
L 285.50876 159.291024 
L 285.826116 158.99258 
L 286.143471 158.977265 
L 289.951736 157.327712 
L 290.269091 157.2781 
L 291.221157 156.648928 
L 291.538512 156.634155 
L 291.855868 156.074648 
L 293.442645 155.671691 
L 294.077355 154.661966 
L 294.394711 154.590226 
L 294.712066 154.23253 
L 295.981488 154.030725 
L 296.616198 153.961107 
L 297.568264 153.551984 
L 297.88562 153.152372 
L 298.520331 153.062708 
L 298.837686 152.71462 
L 299.472397 152.439661 
L 299.789752 151.998982 
L 300.424463 151.939369 
L 300.741818 151.773521 
L 301.059174 151.404173 
L 302.01124 151.014737 
L 302.328595 150.303951 
L 302.64595 150.042391 
L 303.280661 149.949881 
L 303.598017 149.810814 
L 303.915372 149.522192 
L 304.550083 148.608092 
L 304.867438 148.572183 
L 305.184793 148.279729 
L 305.502149 148.258462 
L 305.819504 147.770969 
L 306.13686 147.713041 
L 306.454215 147.538969 
L 306.77157 147.533715 
L 307.406281 147.003692 
L 308.358347 146.405155 
L 308.675702 146.39952 
L 309.945124 145.952793 
L 310.262479 145.50896 
L 310.89719 145.383174 
L 311.214545 145.126612 
L 311.531901 145.106036 
L 312.483967 144.102211 
L 312.801322 143.986028 
L 313.118678 143.635484 
L 315.340165 142.795105 
L 315.657521 142.577965 
L 315.974876 142.082434 
L 316.609587 141.817664 
L 316.926942 141.418571 
L 318.831074 140.381674 
L 319.14843 140.309564 
L 319.465785 139.793385 
L 319.78314 139.733366 
L 320.100496 139.526005 
L 320.417851 138.949383 
L 320.735207 138.930038 
L 321.052562 138.346953 
L 321.369917 138.306692 
L 322.321983 137.202216 
L 322.639339 137.008587 
L 323.27405 136.904916 
L 323.591405 136.487242 
L 323.90876 136.474177 
L 324.226116 136.195511 
L 324.543471 135.748746 
L 324.860826 135.556729 
L 326.130248 135.266841 
L 326.447603 134.708232 
L 327.082314 134.61616 
L 327.399669 134.434283 
L 327.717025 134.423813 
L 328.351736 134.259486 
L 328.669091 133.780776 
L 328.986446 133.772257 
L 329.303802 133.59781 
L 329.621157 132.926928 
L 329.938512 132.855577 
L 330.255868 132.471306 
L 331.207934 132.208871 
L 331.525289 131.612784 
L 331.842645 131.316477 
L 332.16 131.277284 
L 332.477355 130.959968 
L 332.794711 130.906848 
L 333.429421 130.479877 
L 333.746777 130.472645 
L 334.698843 129.888717 
L 335.016198 129.854488 
L 335.333554 129.641408 
L 335.650909 129.257389 
L 336.28562 128.944225 
L 336.602975 128.682366 
L 336.920331 128.238557 
L 337.237686 128.093537 
L 337.555041 127.747789 
L 337.872397 127.693729 
L 338.189752 127.354645 
L 338.507107 127.287519 
L 338.824463 126.953093 
L 341.363306 125.819514 
L 341.998017 125.553634 
L 342.315372 125.000047 
L 342.632727 124.167993 
L 342.950083 124.154693 
L 343.584793 123.801705 
L 343.902149 123.732049 
L 344.219504 123.246399 
L 344.53686 123.051017 
L 344.854215 123.014484 
L 345.17157 122.599601 
L 346.123636 122.403803 
L 346.758347 121.871899 
L 347.393058 121.839464 
L 348.027769 121.39095 
L 348.345124 121.154163 
L 348.662479 120.745793 
L 349.931901 120.472005 
L 351.518678 119.263941 
L 351.836033 118.809718 
L 352.153388 118.680213 
L 352.470744 118.160968 
L 352.788099 118.104032 
L 353.105455 117.873585 
L 353.42281 117.487402 
L 354.374876 117.250211 
L 355.009587 116.315892 
L 355.644298 116.183773 
L 356.596364 115.914306 
L 356.913719 115.389507 
L 357.231074 115.374121 
L 357.54843 114.605603 
L 357.865785 114.351962 
L 358.500496 114.231283 
L 358.817851 114.133982 
L 359.135207 113.88581 
L 359.452562 113.858146 
L 360.087273 113.393307 
L 360.404628 112.953304 
L 361.039339 112.543137 
L 361.67405 112.310619 
L 361.991405 112.041949 
L 362.30876 111.997932 
L 363.260826 111.552135 
L 363.895537 111.023864 
L 365.164959 110.612122 
L 365.482314 110.048165 
L 365.799669 109.967732 
L 366.117025 109.6918 
L 366.43438 109.219435 
L 367.703802 108.438169 
L 368.338512 107.803986 
L 368.655868 107.472147 
L 368.973223 107.44803 
L 369.290579 107.118504 
L 370.242645 106.865327 
L 370.56 106.723936 
L 370.877355 106.181085 
L 371.194711 106.010518 
L 371.512066 105.263551 
L 372.146777 105.141113 
L 372.781488 105.127664 
L 373.098843 104.615203 
L 373.416198 104.320304 
L 373.733554 103.578666 
L 374.050909 103.514267 
L 374.368264 102.872062 
L 375.637686 102.639449 
L 375.955041 101.116714 
L 376.272397 100.885195 
L 376.907107 100.780276 
L 377.859174 99.58496 
L 378.176529 99.523005 
L 379.128595 98.820957 
L 379.44595 98.389217 
L 380.080661 98.101842 
L 380.715372 97.662613 
L 381.032727 97.527627 
L 381.984793 96.821558 
L 382.619504 96.415605 
L 382.93686 95.667447 
L 383.254215 95.446794 
L 383.57157 94.589275 
L 383.888926 94.318565 
L 384.206281 93.570586 
L 384.840992 92.951582 
L 385.158347 92.925315 
L 385.793058 92.458076 
L 386.110413 91.710696 
L 386.745124 91.145278 
L 387.379835 89.637706 
L 388.014545 89.285018 
L 388.331901 89.192668 
L 388.966612 88.569268 
L 389.283967 87.625168 
L 389.601322 87.332739 
L 389.918678 86.071428 
L 390.553388 85.396777 
L 390.870744 83.755383 
L 391.188099 83.719912 
L 392.140165 83.059532 
L 392.457521 81.894754 
L 393.092231 81.258186 
L 393.409587 79.750755 
L 393.726942 79.007328 
L 394.361653 78.543538 
L 394.679008 77.890792 
L 394.996364 76.876698 
L 395.313719 75.255336 
L 395.631074 75.016356 
L 395.94843 69.81096 
L 396.265785 69.566628 
L 396.58314 68.922767 
L 396.900496 67.950972 
L 397.217851 67.706153 
L 397.535207 67.120324 
L 397.852562 64.624296 
L 398.169917 55.42782 
L 398.487273 53.568 
L 398.487273 53.568 
" clip-path="url(#p54bf770bef)" style="fill: none; stroke: #1f77b4; stroke-width: 1.5; stroke-linecap: square"/>
   </g>
   <g id="line2d_15">
    <path d="M 73.832727 199.078415 
L 74.150083 197.246579 
L 74.467438 197.067264 
L 74.784793 196.546875 
L 75.102149 195.736353 
L 75.73686 195.235429 
L 77.006281 194.553815 
L 77.323636 194.0231 
L 80.814545 192.788502 
L 82.083967 192.450776 
L 82.718678 192.191265 
L 83.353388 192.072682 
L 84.305455 191.875681 
L 84.62281 191.751072 
L 85.574876 191.662646 
L 86.209587 191.565463 
L 87.479008 191.306272 
L 89.38314 190.917015 
L 90.652562 190.714283 
L 91.287273 190.61894 
L 92.239339 190.520687 
L 92.87405 190.37794 
L 94.143471 190.194938 
L 113.184793 188.237523 
L 115.088926 188.0874 
L 116.040992 187.998974 
L 116.993058 187.901791 
L 118.89719 187.769974 
L 121.436033 187.6426 
L 127.14843 187.226472 
L 128.100496 187.176593 
L 128.735207 187.033093 
L 130.956694 186.908503 
L 132.226116 186.812413 
L 134.447603 186.69031 
L 135.082314 186.587033 
L 140.794711 186.363795 
L 141.429421 186.261379 
L 143.968264 186.151785 
L 144.920331 186.029437 
L 148.41124 185.910378 
L 151.584793 185.72766 
L 153.17157 185.597394 
L 154.440992 185.54271 
L 156.345124 185.424083 
L 161.105455 185.187919 
L 164.596364 185.016535 
L 166.817851 184.890319 
L 169.67405 184.728696 
L 172.212893 184.593586 
L 174.751736 184.521541 
L 176.021157 184.429543 
L 179.194711 184.303628 
L 180.146777 184.23812 
L 187.44595 183.94219 
L 189.032727 183.832941 
L 190.93686 183.724026 
L 209.343471 182.867599 
L 209.978182 182.789559 
L 214.421157 182.689704 
L 215.373223 182.623071 
L 218.864132 182.481434 
L 226.798017 182.145772 
L 229.654215 182.008699 
L 235.049256 181.797486 
L 236.636033 181.703175 
L 237.905455 181.681087 
L 238.540165 181.537587 
L 242.34843 181.416182 
L 243.300496 181.359915 
L 246.791405 181.249137 
L 249.012893 181.137688 
L 260.437686 180.639955 
L 262.659174 180.536437 
L 266.150083 180.399146 
L 273.766612 179.985477 
L 275.988099 179.90049 
L 277.574876 179.854943 
L 315.02281 177.968214 
L 315.974876 177.860974 
L 318.196364 177.788968 
L 318.831074 177.700033 
L 321.687273 177.590399 
L 322.639339 177.531132 
L 325.495537 177.416317 
L 326.447603 177.294529 
L 328.351736 177.190737 
L 333.429421 176.905116 
L 339.776529 176.505598 
L 340.41124 176.422306 
L 346.123636 176.136378 
L 346.758347 176.029139 
L 348.027769 175.957131 
L 348.662479 175.855633 
L 352.153388 175.635134 
L 353.740165 175.517485 
L 354.692231 175.443865 
L 368.021157 174.24768 
L 370.56 173.960561 
L 373.098843 173.630857 
L 374.68562 173.463635 
L 375.955041 173.322253 
L 384.523636 172.033055 
L 385.475702 171.941051 
L 387.69719 171.602098 
L 388.331901 171.352671 
L 389.283967 171.097163 
L 389.918678 170.984918 
L 390.553388 170.745258 
L 390.870744 170.74131 
L 391.505455 170.585918 
L 391.82281 170.584009 
L 392.140165 170.269173 
L 392.774876 170.068942 
L 393.409587 169.918836 
L 394.044298 169.58268 
L 394.679008 169.265327 
L 395.313719 169.107162 
L 395.631074 169.031826 
L 396.58314 168.301687 
L 396.900496 168.237106 
L 397.217851 167.275323 
L 397.535207 167.199989 
L 397.852562 166.922244 
L 398.487273 165.443485 
L 398.487273 165.443485 
" clip-path="url(#p54bf770bef)" style="fill: none; stroke: #ff7f0e; stroke-width: 1.5; stroke-linecap: square"/>
   </g>
   <g id="patch_3">
    <path d="M 57.6 307.584 
L 57.6 41.472 
" style="fill: none; stroke: #000000; stroke-width: 0.8; stroke-linejoin: miter; stroke-linecap: square"/>
   </g>
   <g id="patch_4">
    <path d="M 414.72 307.584 
L 414.72 41.472 
" style="fill: none; stroke: #000000; stroke-width: 0.8; stroke-linejoin: miter; stroke-linecap: square"/>
   </g>
   <g id="patch_5">
    <path d="M 57.6 307.584 
L 414.72 307.584 
" style="fill: none; stroke: #000000; stroke-width: 0.8; stroke-linejoin: miter; stroke-linecap: square"/>
   </g>
   <g id="patch_6">
    <path d="M 57.6 41.472 
L 414.72 41.472 
" style="fill: none; stroke: #000000; stroke-width: 0.8; stroke-linejoin: miter; stroke-linecap: square"/>
   </g>
   <g id="legend_1">
    <g id="patch_7">
     <path d="M 64.6 78.82825 
L 129.342187 78.82825 
Q 131.342187 78.82825 131.342187 76.82825 
L 131.342187 48.472 
Q 131.342187 46.472 129.342187 46.472 
L 64.6 46.472 
Q 62.6 46.472 62.6 48.472 
L 62.6 76.82825 
Q 62.6 78.82825 64.6 78.82825 
z
" style="fill: #ffffff; opacity: 0.8; stroke: #cccccc; stroke-linejoin: miter"/>
    </g>
    <g id="line2d_16">
     <path d="M 66.6 54.570437 
L 76.6 54.570437 
L 86.6 54.570437 
" style="fill: none; stroke: #1f77b4; stroke-width: 1.5; stroke-linecap: square"/>
    </g>
    <g id="text_16">
     <!-- qc -->
     <g transform="translate(94.6 58.070437) scale(0.1 -0.1)">
      <defs>
       <path id="DejaVuSans-71" d="M 947 1747 
Q 947 1113 1208 752 
Q 1469 391 1925 391 
Q 2381 391 2643 752 
Q 2906 1113 2906 1747 
Q 2906 2381 2643 2742 
Q 2381 3103 1925 3103 
Q 1469 3103 1208 2742 
Q 947 2381 947 1747 
z
M 2906 525 
Q 2725 213 2448 61 
Q 2172 -91 1784 -91 
Q 1150 -91 751 415 
Q 353 922 353 1747 
Q 353 2572 751 3078 
Q 1150 3584 1784 3584 
Q 2172 3584 2448 3432 
Q 2725 3281 2906 2969 
L 2906 3500 
L 3481 3500 
L 3481 -1331 
L 2906 -1331 
L 2906 525 
z
" transform="scale(0.015625)"/>
       <path id="DejaVuSans-63" d="M 3122 3366 
L 3122 2828 
Q 2878 2963 2633 3030 
Q 2388 3097 2138 3097 
Q 1578 3097 1268 2742 
Q 959 2388 959 1747 
Q 959 1106 1268 751 
Q 1578 397 2138 397 
Q 2388 397 2633 464 
Q 2878 531 3122 666 
L 3122 134 
Q 2881 22 2623 -34 
Q 2366 -91 2075 -91 
Q 1284 -91 818 406 
Q 353 903 353 1747 
Q 353 2603 823 3093 
Q 1294 3584 2113 3584 
Q 2378 3584 2631 3529 
Q 2884 3475 3122 3366 
z
" transform="scale(0.015625)"/>
      </defs>
      <use xlink:href="#DejaVuSans-71"/>
      <use xlink:href="#DejaVuSans-63" x="63.476562"/>
     </g>
    </g>
    <g id="line2d_17">
     <path d="M 66.6 69.248562 
L 76.6 69.248562 
L 86.6 69.248562 
" style="fill: none; stroke: #ff7f0e; stroke-width: 1.5; stroke-linecap: square"/>
    </g>
    <g id="text_17">
     <!-- Trotter -->
     <g transform="translate(94.6 72.748562) scale(0.1 -0.1)">
      <defs>
       <path id="DejaVuSans-54" d="M -19 4666 
L 3928 4666 
L 3928 4134 
L 2272 4134 
L 2272 0 
L 1638 0 
L 1638 4134 
L -19 4134 
L -19 4666 
z
" transform="scale(0.015625)"/>
       <path id="DejaVuSans-72" d="M 2631 2963 
Q 2534 3019 2420 3045 
Q 2306 3072 2169 3072 
Q 1681 3072 1420 2755 
Q 1159 2438 1159 1844 
L 1159 0 
L 581 0 
L 581 3500 
L 1159 3500 
L 1159 2956 
Q 1341 3275 1631 3429 
Q 1922 3584 2338 3584 
Q 2397 3584 2469 3576 
Q 2541 3569 2628 3553 
L 2631 2963 
z
" transform="scale(0.015625)"/>
       <path id="DejaVuSans-6f" d="M 1959 3097 
Q 1497 3097 1228 2736 
Q 959 2375 959 1747 
Q 959 1119 1226 758 
Q 1494 397 1959 397 
Q 2419 397 2687 759 
Q 2956 1122 2956 1747 
Q 2956 2369 2687 2733 
Q 2419 3097 1959 3097 
z
M 1959 3584 
Q 2709 3584 3137 3096 
Q 3566 2609 3566 1747 
Q 3566 888 3137 398 
Q 2709 -91 1959 -91 
Q 1206 -91 779 398 
Q 353 888 353 1747 
Q 353 2609 779 3096 
Q 1206 3584 1959 3584 
z
" transform="scale(0.015625)"/>
       <path id="DejaVuSans-65" d="M 3597 1894 
L 3597 1613 
L 953 1613 
Q 991 1019 1311 708 
Q 1631 397 2203 397 
Q 2534 397 2845 478 
Q 3156 559 3463 722 
L 3463 178 
Q 3153 47 2828 -22 
Q 2503 -91 2169 -91 
Q 1331 -91 842 396 
Q 353 884 353 1716 
Q 353 2575 817 3079 
Q 1281 3584 2069 3584 
Q 2775 3584 3186 3129 
Q 3597 2675 3597 1894 
z
M 3022 2063 
Q 3016 2534 2758 2815 
Q 2500 3097 2075 3097 
Q 1594 3097 1305 2825 
Q 1016 2553 972 2059 
L 3022 2063 
z
" transform="scale(0.015625)"/>
      </defs>
      <use xlink:href="#DejaVuSans-54"/>
      <use xlink:href="#DejaVuSans-72" x="46.333984"/>
      <use xlink:href="#DejaVuSans-6f" x="85.197266"/>
      <use xlink:href="#DejaVuSans-74" x="146.378906"/>
      <use xlink:href="#DejaVuSans-74" x="185.587891"/>
      <use xlink:href="#DejaVuSans-65" x="224.796875"/>
      <use xlink:href="#DejaVuSans-72" x="286.320312"/>
     </g>
    </g>
   </g>
  </g>
 </g>
 <defs>
  <clipPath id="p54bf770bef">
   <rect x="57.6" y="41.472" width="357.12" height="266.112"/>
  </clipPath>
 </defs>
</svg>
