<?xml version="1.0" encoding="utf-8" standalone="no"?>
<!DOCTYPE svg PUBLIC "-//W3C//DTD SVG 1.1//EN"
  "http://www.w3.org/Graphics/SVG/1.1/DTD/svg11.dtd">
<svg xmlns:xlink="http://www.w3.org/1999/xlink" width="460.8pt" height="345.6pt" viewBox="0 0 460.8 345.6" xmlns="http://www.w3.org/2000/svg" version="1.1">
 <metadata>
  <rdf:RDF xmlns:dc="http://purl.org/dc/elements/1.1/" xmlns:cc="http://creativecommons.org/ns#" xmlns:rdf="http://www.w3.org/1999/02/22-rdf-syntax-ns#">
   <cc:Work>
    <dc:type rdf:resource="http://purl.org/dc/dcmitype/StillImage"/>
    <dc:date>2024-07-14T10:36:25.545558</dc:date>
    <dc:format>image/svg+xml</dc:format>
    <dc:creator>
     <cc:Agent>
      <dc:title>Matplotlib v3.7.1, https://matplotlib.org/</dc:title>
     </cc:Agent>
    </dc:creator>
   </cc:Work>
  </rdf:RDF>
 </metadata>
 <defs>
  <style type="text/css">*{stroke-linejoin: round; stroke-linecap: butt}</style>
 </defs>
 <g id="figure_1">
  <g id="patch_1">
   <path d="M 0 345.6 
L 460.8 345.6 
L 460.8 0 
L 0 0 
z
" style="fill: #ffffff"/>
  </g>
  <g id="axes_1">
   <g id="patch_2">
    <path d="M 57.6 307.584 
L 414.72 307.584 
L 414.72 41.472 
L 57.6 41.472 
z
" style="fill: #ffffff"/>
   </g>
   <g id="matplotlib.axis_1">
    <g id="xtick_1">
     <g id="line2d_1">
      <defs>
       <path id="mbb5f18304e" d="M 0 0 
L 0 3.5 
" style="stroke: #000000; stroke-width: 0.8"/>
      </defs>
      <g>
       <use xlink:href="#mbb5f18304e" x="73.832727" y="307.584" style="stroke: #000000; stroke-width: 0.8"/>
      </g>
     </g>
     <g id="text_1">
      <!-- 0 -->
      <g transform="translate(70.651477 322.182437) scale(0.1 -0.1)">
       <defs>
        <path id="DejaVuSans-30" d="M 2034 4250 
Q 1547 4250 1301 3770 
Q 1056 3291 1056 2328 
Q 1056 1369 1301 889 
Q 1547 409 2034 409 
Q 2525 409 2770 889 
Q 3016 1369 3016 2328 
Q 3016 3291 2770 3770 
Q 2525 4250 2034 4250 
z
M 2034 4750 
Q 2819 4750 3233 4129 
Q 3647 3509 3647 2328 
Q 3647 1150 3233 529 
Q 2819 -91 2034 -91 
Q 1250 -91 836 529 
Q 422 1150 422 2328 
Q 422 3509 836 4129 
Q 1250 4750 2034 4750 
z
" transform="scale(0.015625)"/>
       </defs>
       <use xlink:href="#DejaVuSans-30"/>
      </g>
     </g>
    </g>
    <g id="xtick_2">
     <g id="line2d_2">
      <g>
       <use xlink:href="#mbb5f18304e" x="137.303802" y="307.584" style="stroke: #000000; stroke-width: 0.8"/>
      </g>
     </g>
     <g id="text_2">
      <!-- 200 -->
      <g transform="translate(127.760052 322.182437) scale(0.1 -0.1)">
       <defs>
        <path id="DejaVuSans-32" d="M 1228 531 
L 3431 531 
L 3431 0 
L 469 0 
L 469 531 
Q 828 903 1448 1529 
Q 2069 2156 2228 2338 
Q 2531 2678 2651 2914 
Q 2772 3150 2772 3378 
Q 2772 3750 2511 3984 
Q 2250 4219 1831 4219 
Q 1534 4219 1204 4116 
Q 875 4013 500 3803 
L 500 4441 
Q 881 4594 1212 4672 
Q 1544 4750 1819 4750 
Q 2544 4750 2975 4387 
Q 3406 4025 3406 3419 
Q 3406 3131 3298 2873 
Q 3191 2616 2906 2266 
Q 2828 2175 2409 1742 
Q 1991 1309 1228 531 
z
" transform="scale(0.015625)"/>
       </defs>
       <use xlink:href="#DejaVuSans-32"/>
       <use xlink:href="#DejaVuSans-30" x="63.623047"/>
       <use xlink:href="#DejaVuSans-30" x="127.246094"/>
      </g>
     </g>
    </g>
    <g id="xtick_3">
     <g id="line2d_3">
      <g>
       <use xlink:href="#mbb5f18304e" x="200.774876" y="307.584" style="stroke: #000000; stroke-width: 0.8"/>
      </g>
     </g>
     <g id="text_3">
      <!-- 400 -->
      <g transform="translate(191.231126 322.182437) scale(0.1 -0.1)">
       <defs>
        <path id="DejaVuSans-34" d="M 2419 4116 
L 825 1625 
L 2419 1625 
L 2419 4116 
z
M 2253 4666 
L 3047 4666 
L 3047 1625 
L 3713 1625 
L 3713 1100 
L 3047 1100 
L 3047 0 
L 2419 0 
L 2419 1100 
L 313 1100 
L 313 1709 
L 2253 4666 
z
" transform="scale(0.015625)"/>
       </defs>
       <use xlink:href="#DejaVuSans-34"/>
       <use xlink:href="#DejaVuSans-30" x="63.623047"/>
       <use xlink:href="#DejaVuSans-30" x="127.246094"/>
      </g>
     </g>
    </g>
    <g id="xtick_4">
     <g id="line2d_4">
      <g>
       <use xlink:href="#mbb5f18304e" x="264.24595" y="307.584" style="stroke: #000000; stroke-width: 0.8"/>
      </g>
     </g>
     <g id="text_4">
      <!-- 600 -->
      <g transform="translate(254.7022 322.182437) scale(0.1 -0.1)">
       <defs>
        <path id="DejaVuSans-36" d="M 2113 2584 
Q 1688 2584 1439 2293 
Q 1191 2003 1191 1497 
Q 1191 994 1439 701 
Q 1688 409 2113 409 
Q 2538 409 2786 701 
Q 3034 994 3034 1497 
Q 3034 2003 2786 2293 
Q 2538 2584 2113 2584 
z
M 3366 4563 
L 3366 3988 
Q 3128 4100 2886 4159 
Q 2644 4219 2406 4219 
Q 1781 4219 1451 3797 
Q 1122 3375 1075 2522 
Q 1259 2794 1537 2939 
Q 1816 3084 2150 3084 
Q 2853 3084 3261 2657 
Q 3669 2231 3669 1497 
Q 3669 778 3244 343 
Q 2819 -91 2113 -91 
Q 1303 -91 875 529 
Q 447 1150 447 2328 
Q 447 3434 972 4092 
Q 1497 4750 2381 4750 
Q 2619 4750 2861 4703 
Q 3103 4656 3366 4563 
z
" transform="scale(0.015625)"/>
       </defs>
       <use xlink:href="#DejaVuSans-36"/>
       <use xlink:href="#DejaVuSans-30" x="63.623047"/>
       <use xlink:href="#DejaVuSans-30" x="127.246094"/>
      </g>
     </g>
    </g>
    <g id="xtick_5">
     <g id="line2d_5">
      <g>
       <use xlink:href="#mbb5f18304e" x="327.717025" y="307.584" style="stroke: #000000; stroke-width: 0.8"/>
      </g>
     </g>
     <g id="text_5">
      <!-- 800 -->
      <g transform="translate(318.173275 322.182437) scale(0.1 -0.1)">
       <defs>
        <path id="DejaVuSans-38" d="M 2034 2216 
Q 1584 2216 1326 1975 
Q 1069 1734 1069 1313 
Q 1069 891 1326 650 
Q 1584 409 2034 409 
Q 2484 409 2743 651 
Q 3003 894 3003 1313 
Q 3003 1734 2745 1975 
Q 2488 2216 2034 2216 
z
M 1403 2484 
Q 997 2584 770 2862 
Q 544 3141 544 3541 
Q 544 4100 942 4425 
Q 1341 4750 2034 4750 
Q 2731 4750 3128 4425 
Q 3525 4100 3525 3541 
Q 3525 3141 3298 2862 
Q 3072 2584 2669 2484 
Q 3125 2378 3379 2068 
Q 3634 1759 3634 1313 
Q 3634 634 3220 271 
Q 2806 -91 2034 -91 
Q 1263 -91 848 271 
Q 434 634 434 1313 
Q 434 1759 690 2068 
Q 947 2378 1403 2484 
z
M 1172 3481 
Q 1172 3119 1398 2916 
Q 1625 2713 2034 2713 
Q 2441 2713 2670 2916 
Q 2900 3119 2900 3481 
Q 2900 3844 2670 4047 
Q 2441 4250 2034 4250 
Q 1625 4250 1398 4047 
Q 1172 3844 1172 3481 
z
" transform="scale(0.015625)"/>
       </defs>
       <use xlink:href="#DejaVuSans-38"/>
       <use xlink:href="#DejaVuSans-30" x="63.623047"/>
       <use xlink:href="#DejaVuSans-30" x="127.246094"/>
      </g>
     </g>
    </g>
    <g id="xtick_6">
     <g id="line2d_6">
      <g>
       <use xlink:href="#mbb5f18304e" x="391.188099" y="307.584" style="stroke: #000000; stroke-width: 0.8"/>
      </g>
     </g>
     <g id="text_6">
      <!-- 1000 -->
      <g transform="translate(378.463099 322.182437) scale(0.1 -0.1)">
       <defs>
        <path id="DejaVuSans-31" d="M 794 531 
L 1825 531 
L 1825 4091 
L 703 3866 
L 703 4441 
L 1819 4666 
L 2450 4666 
L 2450 531 
L 3481 531 
L 3481 0 
L 794 0 
L 794 531 
z
" transform="scale(0.015625)"/>
       </defs>
       <use xlink:href="#DejaVuSans-31"/>
       <use xlink:href="#DejaVuSans-30" x="63.623047"/>
       <use xlink:href="#DejaVuSans-30" x="127.246094"/>
       <use xlink:href="#DejaVuSans-30" x="190.869141"/>
      </g>
     </g>
    </g>
    <g id="text_7">
     <!-- n -->
     <g transform="translate(232.99125 335.860562) scale(0.1 -0.1)">
      <defs>
       <path id="DejaVuSans-6e" d="M 3513 2113 
L 3513 0 
L 2938 0 
L 2938 2094 
Q 2938 2591 2744 2837 
Q 2550 3084 2163 3084 
Q 1697 3084 1428 2787 
Q 1159 2491 1159 1978 
L 1159 0 
L 581 0 
L 581 3500 
L 1159 3500 
L 1159 2956 
Q 1366 3272 1645 3428 
Q 1925 3584 2291 3584 
Q 2894 3584 3203 3211 
Q 3513 2838 3513 2113 
z
" transform="scale(0.015625)"/>
      </defs>
      <use xlink:href="#DejaVuSans-6e"/>
     </g>
    </g>
   </g>
   <g id="matplotlib.axis_2">
    <g id="ytick_1">
     <g id="line2d_7">
      <defs>
       <path id="me1547b84b6" d="M 0 0 
L -3.5 0 
" style="stroke: #000000; stroke-width: 0.8"/>
      </defs>
      <g>
       <use xlink:href="#me1547b84b6" x="57.6" y="284.370775" style="stroke: #000000; stroke-width: 0.8"/>
      </g>
     </g>
     <g id="text_8">
      <!-- −0.3 -->
      <g transform="translate(26.317187 288.169994) scale(0.1 -0.1)">
       <defs>
        <path id="DejaVuSans-2212" d="M 678 2272 
L 4684 2272 
L 4684 1741 
L 678 1741 
L 678 2272 
z
" transform="scale(0.015625)"/>
        <path id="DejaVuSans-2e" d="M 684 794 
L 1344 794 
L 1344 0 
L 684 0 
L 684 794 
z
" transform="scale(0.015625)"/>
        <path id="DejaVuSans-33" d="M 2597 2516 
Q 3050 2419 3304 2112 
Q 3559 1806 3559 1356 
Q 3559 666 3084 287 
Q 2609 -91 1734 -91 
Q 1441 -91 1130 -33 
Q 819 25 488 141 
L 488 750 
Q 750 597 1062 519 
Q 1375 441 1716 441 
Q 2309 441 2620 675 
Q 2931 909 2931 1356 
Q 2931 1769 2642 2001 
Q 2353 2234 1838 2234 
L 1294 2234 
L 1294 2753 
L 1863 2753 
Q 2328 2753 2575 2939 
Q 2822 3125 2822 3475 
Q 2822 3834 2567 4026 
Q 2313 4219 1838 4219 
Q 1578 4219 1281 4162 
Q 984 4106 628 3988 
L 628 4550 
Q 988 4650 1302 4700 
Q 1616 4750 1894 4750 
Q 2613 4750 3031 4423 
Q 3450 4097 3450 3541 
Q 3450 3153 3228 2886 
Q 3006 2619 2597 2516 
z
" transform="scale(0.015625)"/>
       </defs>
       <use xlink:href="#DejaVuSans-2212"/>
       <use xlink:href="#DejaVuSans-30" x="83.789062"/>
       <use xlink:href="#DejaVuSans-2e" x="147.412109"/>
       <use xlink:href="#DejaVuSans-33" x="179.199219"/>
      </g>
     </g>
    </g>
    <g id="ytick_2">
     <g id="line2d_8">
      <g>
       <use xlink:href="#me1547b84b6" x="57.6" y="250.594286" style="stroke: #000000; stroke-width: 0.8"/>
      </g>
     </g>
     <g id="text_9">
      <!-- −0.2 -->
      <g transform="translate(26.317187 254.393505) scale(0.1 -0.1)">
       <use xlink:href="#DejaVuSans-2212"/>
       <use xlink:href="#DejaVuSans-30" x="83.789062"/>
       <use xlink:href="#DejaVuSans-2e" x="147.412109"/>
       <use xlink:href="#DejaVuSans-32" x="179.199219"/>
      </g>
     </g>
    </g>
    <g id="ytick_3">
     <g id="line2d_9">
      <g>
       <use xlink:href="#me1547b84b6" x="57.6" y="216.817797" style="stroke: #000000; stroke-width: 0.8"/>
      </g>
     </g>
     <g id="text_10">
      <!-- −0.1 -->
      <g transform="translate(26.317187 220.617016) scale(0.1 -0.1)">
       <use xlink:href="#DejaVuSans-2212"/>
       <use xlink:href="#DejaVuSans-30" x="83.789062"/>
       <use xlink:href="#DejaVuSans-2e" x="147.412109"/>
       <use xlink:href="#DejaVuSans-31" x="179.199219"/>
      </g>
     </g>
    </g>
    <g id="ytick_4">
     <g id="line2d_10">
      <g>
       <use xlink:href="#me1547b84b6" x="57.6" y="183.041309" style="stroke: #000000; stroke-width: 0.8"/>
      </g>
     </g>
     <g id="text_11">
      <!-- 0.0 -->
      <g transform="translate(34.696875 186.840527) scale(0.1 -0.1)">
       <use xlink:href="#DejaVuSans-30"/>
       <use xlink:href="#DejaVuSans-2e" x="63.623047"/>
       <use xlink:href="#DejaVuSans-30" x="95.410156"/>
      </g>
     </g>
    </g>
    <g id="ytick_5">
     <g id="line2d_11">
      <g>
       <use xlink:href="#me1547b84b6" x="57.6" y="149.26482" style="stroke: #000000; stroke-width: 0.8"/>
      </g>
     </g>
     <g id="text_12">
      <!-- 0.1 -->
      <g transform="translate(34.696875 153.064039) scale(0.1 -0.1)">
       <use xlink:href="#DejaVuSans-30"/>
       <use xlink:href="#DejaVuSans-2e" x="63.623047"/>
       <use xlink:href="#DejaVuSans-31" x="95.410156"/>
      </g>
     </g>
    </g>
    <g id="ytick_6">
     <g id="line2d_12">
      <g>
       <use xlink:href="#me1547b84b6" x="57.6" y="115.488331" style="stroke: #000000; stroke-width: 0.8"/>
      </g>
     </g>
     <g id="text_13">
      <!-- 0.2 -->
      <g transform="translate(34.696875 119.28755) scale(0.1 -0.1)">
       <use xlink:href="#DejaVuSans-30"/>
       <use xlink:href="#DejaVuSans-2e" x="63.623047"/>
       <use xlink:href="#DejaVuSans-32" x="95.410156"/>
      </g>
     </g>
    </g>
    <g id="ytick_7">
     <g id="line2d_13">
      <g>
       <use xlink:href="#me1547b84b6" x="57.6" y="81.711842" style="stroke: #000000; stroke-width: 0.8"/>
      </g>
     </g>
     <g id="text_14">
      <!-- 0.3 -->
      <g transform="translate(34.696875 85.511061) scale(0.1 -0.1)">
       <use xlink:href="#DejaVuSans-30"/>
       <use xlink:href="#DejaVuSans-2e" x="63.623047"/>
       <use xlink:href="#DejaVuSans-33" x="95.410156"/>
      </g>
     </g>
    </g>
    <g id="ytick_8">
     <g id="line2d_14">
      <g>
       <use xlink:href="#me1547b84b6" x="57.6" y="47.935353" style="stroke: #000000; stroke-width: 0.8"/>
      </g>
     </g>
     <g id="text_15">
      <!-- 0.4 -->
      <g transform="translate(34.696875 51.734572) scale(0.1 -0.1)">
       <use xlink:href="#DejaVuSans-30"/>
       <use xlink:href="#DejaVuSans-2e" x="63.623047"/>
       <use xlink:href="#DejaVuSans-34" x="95.410156"/>
      </g>
     </g>
    </g>
    <g id="text_16">
     <!-- E*t -->
     <g transform="translate(20.2375 182.147531) rotate(-90) scale(0.1 -0.1)">
      <defs>
       <path id="DejaVuSans-45" d="M 628 4666 
L 3578 4666 
L 3578 4134 
L 1259 4134 
L 1259 2753 
L 3481 2753 
L 3481 2222 
L 1259 2222 
L 1259 531 
L 3634 531 
L 3634 0 
L 628 0 
L 628 4666 
z
" transform="scale(0.015625)"/>
       <path id="DejaVuSans-2a" d="M 3009 3897 
L 1888 3291 
L 3009 2681 
L 2828 2375 
L 1778 3009 
L 1778 1831 
L 1422 1831 
L 1422 3009 
L 372 2375 
L 191 2681 
L 1313 3291 
L 191 3897 
L 372 4206 
L 1422 3572 
L 1422 4750 
L 1778 4750 
L 1778 3572 
L 2828 4206 
L 3009 3897 
z
" transform="scale(0.015625)"/>
       <path id="DejaVuSans-74" d="M 1172 4494 
L 1172 3500 
L 2356 3500 
L 2356 3053 
L 1172 3053 
L 1172 1153 
Q 1172 725 1289 603 
Q 1406 481 1766 481 
L 2356 481 
L 2356 0 
L 1766 0 
Q 1100 0 847 248 
Q 594 497 594 1153 
L 594 3053 
L 172 3053 
L 172 3500 
L 594 3500 
L 594 4494 
L 1172 4494 
z
" transform="scale(0.015625)"/>
      </defs>
      <use xlink:href="#DejaVuSans-45"/>
      <use xlink:href="#DejaVuSans-2a" x="63.183594"/>
      <use xlink:href="#DejaVuSans-74" x="113.183594"/>
     </g>
    </g>
   </g>
   <g id="line2d_15">
    <path d="M 73.832727 295.488 
L 74.467438 282.279594 
L 74.784793 280.487957 
L 75.419504 275.643424 
L 75.73686 273.974616 
L 76.054215 271.377478 
L 76.37157 270.944522 
L 76.688926 269.702148 
L 77.006281 269.225125 
L 77.323636 267.248232 
L 77.640992 267.175471 
L 78.275702 262.942626 
L 78.593058 262.861361 
L 79.227769 261.788964 
L 79.545124 261.384853 
L 81.131901 256.445196 
L 81.766612 256.021794 
L 82.401322 255.661572 
L 82.718678 255.337399 
L 83.036033 254.526091 
L 83.353388 254.267666 
L 83.988099 252.531828 
L 84.62281 251.640098 
L 85.257521 250.941361 
L 85.574876 249.761319 
L 85.892231 249.521147 
L 86.209587 248.880532 
L 86.526942 248.756009 
L 86.844298 248.502777 
L 87.479008 247.590634 
L 87.796364 247.257482 
L 88.113719 247.1391 
L 88.431074 246.711617 
L 88.74843 246.633202 
L 90.969917 243.690012 
L 91.604628 242.943373 
L 91.921983 242.442699 
L 92.239339 242.213414 
L 92.87405 241.436268 
L 93.191405 241.250303 
L 93.50876 240.812773 
L 93.826116 240.734657 
L 95.412893 239.350572 
L 96.682314 237.713571 
L 97.63438 237.251219 
L 97.951736 236.813306 
L 98.586446 236.42762 
L 99.221157 235.960901 
L 100.173223 235.391085 
L 100.807934 234.909173 
L 101.76 233.889165 
L 102.077355 233.44717 
L 102.394711 233.407526 
L 102.712066 232.909931 
L 103.346777 232.527942 
L 103.664132 232.174152 
L 103.981488 232.089628 
L 105.250909 231.228511 
L 105.568264 230.870897 
L 105.88562 230.751065 
L 106.520331 230.239918 
L 107.155041 229.752859 
L 108.107107 229.113222 
L 108.424463 228.945228 
L 109.059174 228.340672 
L 109.693884 227.937165 
L 110.328595 227.270114 
L 110.64595 227.257431 
L 111.598017 226.623321 
L 111.915372 226.555394 
L 112.232727 226.359907 
L 112.550083 226.010089 
L 113.819504 225.555744 
L 115.406281 224.179828 
L 115.723636 224.088248 
L 116.675702 223.332824 
L 120.483967 221.395247 
L 120.801322 221.153201 
L 121.118678 221.067115 
L 121.436033 220.829252 
L 122.705455 220.350361 
L 123.340165 219.863521 
L 124.609587 218.987122 
L 125.244298 218.751749 
L 125.879008 218.471288 
L 127.465785 217.153505 
L 128.100496 216.860366 
L 128.417851 216.505487 
L 129.369917 216.195593 
L 129.687273 215.863722 
L 130.639339 215.516054 
L 131.27405 215.282629 
L 132.543471 214.752314 
L 133.178182 214.393856 
L 134.130248 213.880326 
L 136.351736 212.63168 
L 137.621157 212.144221 
L 138.890579 211.541471 
L 140.16 210.870721 
L 140.477355 210.608099 
L 141.429421 210.197568 
L 141.746777 209.987582 
L 142.064132 209.935589 
L 143.650909 209.144216 
L 143.968264 209.131027 
L 144.28562 208.986152 
L 144.602975 208.641387 
L 147.141818 207.639223 
L 149.04595 207.010035 
L 149.680661 206.698842 
L 149.998017 206.645306 
L 150.315372 206.402014 
L 150.950083 206.13142 
L 152.53686 205.410221 
L 152.854215 205.184303 
L 153.488926 205.066772 
L 154.123636 204.780338 
L 154.440992 204.700206 
L 155.393058 204.103535 
L 156.027769 203.843116 
L 156.662479 203.597309 
L 156.979835 203.311171 
L 157.29719 203.240719 
L 157.614545 202.98114 
L 158.249256 202.666107 
L 160.788099 201.408218 
L 161.42281 201.307314 
L 162.374876 200.739476 
L 164.913719 199.902854 
L 165.54843 199.624215 
L 166.18314 199.394338 
L 166.500496 199.041069 
L 167.135207 198.816566 
L 168.404628 198.246441 
L 169.356694 197.972825 
L 169.991405 197.68031 
L 171.578182 197.016016 
L 172.847603 196.699381 
L 173.164959 196.508572 
L 173.482314 196.453201 
L 174.117025 196.113148 
L 174.751736 195.917982 
L 175.069091 195.719862 
L 175.703802 195.547728 
L 176.655868 195.205039 
L 178.242645 194.594006 
L 178.56 194.376663 
L 179.194711 194.250459 
L 179.829421 193.913955 
L 180.781488 193.549324 
L 181.416198 193.312483 
L 181.733554 193.231385 
L 182.68562 192.743466 
L 187.44595 190.935702 
L 188.080661 190.813558 
L 191.57157 189.543896 
L 194.110413 188.539822 
L 194.427769 188.483373 
L 195.062479 188.219469 
L 196.014545 187.880174 
L 197.601322 187.227709 
L 202.996364 185.128968 
L 204.900496 184.550671 
L 205.217851 184.29703 
L 208.70876 183.089031 
L 209.343471 182.867144 
L 211.247603 182.228941 
L 211.564959 181.990684 
L 212.517025 181.717313 
L 213.469091 181.257762 
L 215.373223 180.658763 
L 216.96 180.034783 
L 218.546777 179.423302 
L 219.181488 179.174169 
L 219.816198 178.941651 
L 220.133554 178.759757 
L 220.768264 178.608376 
L 221.720331 178.284929 
L 222.989752 177.760699 
L 225.21124 177.083676 
L 225.84595 176.801847 
L 228.067438 176.066892 
L 229.019504 175.590649 
L 231.558347 174.86831 
L 232.510413 174.494482 
L 232.827769 174.438547 
L 233.462479 174.10452 
L 234.09719 173.941485 
L 234.731901 173.559683 
L 235.683967 173.315023 
L 237.588099 172.660834 
L 240.126942 171.780193 
L 240.444298 171.537686 
L 242.34843 170.989234 
L 242.98314 170.716544 
L 243.300496 170.637823 
L 243.617851 170.394716 
L 244.569917 170.075744 
L 245.521983 169.728502 
L 247.426116 168.962239 
L 247.743471 168.925126 
L 249.012893 168.409817 
L 249.330248 168.369517 
L 251.23438 167.550301 
L 252.503802 167.148474 
L 253.455868 166.739446 
L 254.407934 166.431803 
L 255.042645 166.162501 
L 255.677355 165.976232 
L 255.994711 165.787815 
L 256.629421 165.566336 
L 257.898843 165.163018 
L 258.850909 164.79898 
L 259.48562 164.631246 
L 260.120331 164.336738 
L 260.437686 164.229181 
L 261.072397 163.893342 
L 264.880661 162.358793 
L 265.198017 162.345451 
L 265.515372 162.105726 
L 266.150083 161.98339 
L 270.593058 160.364971 
L 271.545124 160.019628 
L 273.449256 159.360068 
L 274.083967 159.251369 
L 275.353388 158.766532 
L 275.988099 158.612387 
L 276.62281 158.231258 
L 278.844298 157.346006 
L 279.161653 157.125767 
L 279.479008 157.087575 
L 280.113719 156.852878 
L 281.065785 156.51 
L 282.017851 156.018247 
L 282.335207 155.995191 
L 284.239339 155.22858 
L 284.87405 154.995361 
L 285.50876 154.750672 
L 286.143471 154.506986 
L 287.095537 154.178831 
L 288.364959 153.672569 
L 297.250909 150.04946 
L 297.88562 149.901658 
L 298.837686 149.376133 
L 301.059174 148.65185 
L 302.64595 147.940836 
L 303.280661 147.767981 
L 303.915372 147.418627 
L 305.819504 146.517427 
L 307.406281 145.982896 
L 308.675702 145.357236 
L 308.993058 145.299997 
L 309.627769 144.975223 
L 313.436033 143.385311 
L 314.705455 142.78281 
L 315.974876 142.217375 
L 318.831074 141.160172 
L 319.465785 140.75116 
L 321.369917 139.806437 
L 322.321983 139.466234 
L 322.956694 139.09479 
L 323.591405 138.941394 
L 324.226116 138.561162 
L 325.812893 137.91323 
L 327.082314 137.395804 
L 327.399669 137.111299 
L 328.986446 136.447363 
L 329.303802 136.177701 
L 329.938512 135.950918 
L 330.255868 135.636031 
L 330.890579 135.469728 
L 331.842645 134.843511 
L 332.477355 134.508087 
L 332.794711 134.415615 
L 333.429421 133.992303 
L 334.698843 133.367597 
L 335.650909 132.802717 
L 336.28562 132.463177 
L 337.237686 132.058115 
L 338.507107 131.559137 
L 338.824463 131.478413 
L 342.315372 129.327011 
L 342.632727 129.227647 
L 342.950083 128.893655 
L 348.662479 126.012887 
L 349.29719 125.703061 
L 349.931901 125.279115 
L 350.249256 125.201009 
L 350.566612 124.910426 
L 351.201322 124.747306 
L 351.518678 124.453549 
L 352.470744 124.045421 
L 352.788099 123.739386 
L 353.105455 123.686609 
L 353.42281 123.346978 
L 354.057521 123.059471 
L 354.374876 122.908631 
L 355.009587 122.409132 
L 355.326942 122.258287 
L 355.644298 121.973411 
L 355.961653 121.84404 
L 356.596364 121.237669 
L 357.231074 120.917294 
L 357.865785 120.419027 
L 359.452562 119.418451 
L 359.769917 119.001239 
L 360.087273 118.807505 
L 360.404628 118.45699 
L 361.356694 117.845365 
L 364.212893 115.939933 
L 365.799669 114.985745 
L 366.43438 114.39479 
L 367.386446 113.926209 
L 367.703802 113.367702 
L 368.021157 113.310039 
L 368.338512 112.955857 
L 368.973223 112.59645 
L 369.290579 112.221923 
L 370.242645 111.705443 
L 371.194711 111.038282 
L 371.829421 110.353197 
L 372.464132 109.889022 
L 372.781488 109.267644 
L 373.416198 108.580677 
L 374.050909 108.318904 
L 374.368264 108.064328 
L 375.002975 107.210715 
L 375.320331 107.182974 
L 376.272397 106.44322 
L 378.81124 103.360367 
L 379.128595 103.275475 
L 379.44595 102.569573 
L 379.763306 102.410897 
L 380.080661 101.803047 
L 380.398017 101.629939 
L 381.350083 100.648216 
L 382.302149 99.958915 
L 383.57157 99.151054 
L 384.206281 97.690232 
L 384.523636 97.494545 
L 384.840992 96.747696 
L 385.475702 95.92148 
L 385.793058 95.74578 
L 386.427769 94.52705 
L 386.745124 94.443414 
L 387.062479 93.766427 
L 387.379835 93.598128 
L 387.69719 92.918657 
L 388.014545 92.620279 
L 388.966612 90.709738 
L 390.870744 87.864258 
L 391.188099 86.414935 
L 391.505455 85.859824 
L 391.82281 84.824476 
L 392.457521 84.377808 
L 392.774876 83.932853 
L 393.409587 81.533133 
L 393.726942 81.284043 
L 394.996364 77.261616 
L 395.313719 76.841681 
L 395.631074 75.867352 
L 396.58314 71.043681 
L 396.900496 69.341118 
L 397.217851 68.632341 
L 397.535207 65.709056 
L 397.852562 64.839502 
L 398.487273 53.568 
L 398.487273 53.568 
" clip-path="url(#p525508836a)" style="fill: none; stroke: #1f77b4; stroke-width: 1.5; stroke-linecap: square"/>
   </g>
   <g id="line2d_16">
    <path d="M 73.832727 214.377393 
L 74.150083 214.377393 
L 74.467438 214.208222 
L 74.784793 214.208222 
L 75.102149 213.976794 
L 76.054215 213.933158 
L 76.37157 213.842693 
L 76.688926 213.392597 
L 77.006281 213.392597 
L 77.323636 213.205943 
L 77.640992 213.205943 
L 77.958347 212.831961 
L 78.275702 212.831961 
L 78.593058 212.69773 
L 78.910413 212.17353 
L 79.227769 212.17353 
L 79.545124 212.042294 
L 80.49719 212.014077 
L 80.814545 211.605448 
L 81.449256 211.555024 
L 81.766612 211.312632 
L 82.718678 211.306565 
L 83.036033 211.079602 
L 83.353388 211.079602 
L 83.988099 210.803224 
L 84.940165 210.715161 
L 85.257521 210.612721 
L 85.574876 210.34332 
L 86.209587 210.313462 
L 86.526942 210.089427 
L 87.479008 210.060955 
L 89.38314 209.516178 
L 89.700496 209.245196 
L 90.017851 209.245196 
L 90.335207 209.029564 
L 90.969917 208.995603 
L 91.287273 208.777567 
L 92.556694 208.743404 
L 92.87405 208.39435 
L 94.460826 208.297224 
L 95.095537 208.213477 
L 95.412893 207.857209 
L 96.999669 207.75673 
L 98.269091 207.569152 
L 98.586446 207.244457 
L 98.903802 207.244457 
L 99.221157 206.995619 
L 100.173223 206.954989 
L 101.125289 206.803497 
L 101.442645 206.803497 
L 102.077355 206.540652 
L 102.712066 206.536286 
L 103.029421 206.323266 
L 103.981488 206.269881 
L 104.933554 205.97922 
L 105.568264 205.738434 
L 106.520331 205.663839 
L 106.837686 205.24929 
L 109.059174 205.056141 
L 109.376529 204.904337 
L 109.693884 204.904337 
L 110.01124 204.707812 
L 110.328595 204.707812 
L 110.64595 204.578889 
L 111.915372 204.485905 
L 112.867438 204.38571 
L 113.184793 204.115605 
L 114.13686 204.094273 
L 114.77157 203.883019 
L 116.675702 203.567458 
L 116.993058 203.567458 
L 117.310413 203.20515 
L 119.849256 203.105925 
L 120.166612 202.847552 
L 120.483967 202.847552 
L 120.801322 202.606401 
L 121.118678 202.606401 
L 121.436033 202.484359 
L 122.388099 202.438249 
L 123.340165 201.955925 
L 124.926942 201.894703 
L 125.244298 201.706048 
L 125.561653 201.706048 
L 125.879008 201.535735 
L 126.196364 201.535735 
L 126.513719 201.266751 
L 127.14843 201.249967 
L 127.465785 200.930662 
L 129.052562 200.925352 
L 129.687273 200.734199 
L 131.27405 200.656304 
L 131.591405 200.521131 
L 133.495537 200.45461 
L 135.082314 200.19886 
L 136.669091 200.096413 
L 136.986446 199.959704 
L 137.621157 199.879336 
L 137.938512 199.687891 
L 140.16 199.446356 
L 140.477355 199.175049 
L 141.746777 199.098883 
L 142.064132 198.955727 
L 142.381488 198.955727 
L 142.698843 198.723937 
L 143.968264 198.66621 
L 144.602975 198.464035 
L 145.872397 198.374856 
L 147.141818 198.235642 
L 147.776529 197.916443 
L 149.680661 197.851516 
L 149.998017 197.094289 
L 150.632727 197.018934 
L 151.902149 196.806728 
L 153.17157 196.656435 
L 153.806281 196.475296 
L 155.710413 196.366687 
L 156.345124 196.239932 
L 158.249256 196.183991 
L 158.566612 195.925655 
L 159.201322 195.922097 
L 159.518678 195.515103 
L 160.788099 195.381739 
L 161.42281 195.287499 
L 163.326942 195.146241 
L 163.961653 195.038144 
L 164.596364 194.953104 
L 164.913719 194.898268 
L 165.231074 194.577143 
L 165.54843 194.577143 
L 165.865785 194.398247 
L 167.769917 194.153204 
L 168.087273 194.005808 
L 168.404628 194.005808 
L 169.039339 193.751015 
L 169.356694 193.751015 
L 169.67405 193.61663 
L 170.943471 193.605481 
L 171.260826 193.413292 
L 171.895537 193.358112 
L 172.212893 193.108009 
L 172.530248 193.108009 
L 172.847603 192.916085 
L 174.43438 192.824491 
L 175.703802 192.653755 
L 176.021157 192.653755 
L 176.655868 192.516305 
L 178.56 192.442863 
L 178.877355 192.294757 
L 180.146777 192.21306 
L 181.098843 191.97558 
L 181.733554 191.966068 
L 182.050909 191.737836 
L 183.955041 191.556223 
L 184.907107 191.497185 
L 185.224463 191.236964 
L 185.859174 191.145768 
L 186.81124 191.081231 
L 188.080661 190.995305 
L 188.398017 190.836698 
L 189.667438 190.733518 
L 189.984793 190.57475 
L 190.302149 190.57475 
L 190.619504 190.198933 
L 191.888926 190.135003 
L 192.206281 189.82589 
L 194.110413 189.739999 
L 195.062479 189.694138 
L 196.966612 189.586549 
L 197.918678 189.494089 
L 198.236033 189.343118 
L 198.553388 189.343118 
L 199.188099 189.011625 
L 200.140165 188.957714 
L 200.774876 188.858562 
L 201.726942 188.812782 
L 202.044298 188.66417 
L 203.313719 188.573995 
L 203.94843 188.47577 
L 208.70876 187.859644 
L 210.612893 187.537873 
L 211.247603 187.433702 
L 214.421157 187.14381 
L 214.738512 186.979637 
L 216.007934 186.941931 
L 216.96 186.676056 
L 218.546777 186.571196 
L 219.181488 186.537066 
L 220.133554 185.931459 
L 221.08562 185.875244 
L 221.720331 185.789876 
L 223.307107 185.698618 
L 223.624463 185.561807 
L 225.21124 185.498958 
L 227.115372 185.233768 
L 227.432727 185.233768 
L 227.750083 185.1123 
L 229.97157 185.027344 
L 230.923636 184.823332 
L 232.510413 184.717999 
L 233.145124 184.627387 
L 234.09719 184.580333 
L 234.414545 184.580333 
L 234.731901 184.403526 
L 235.683967 184.391145 
L 236.001322 184.265633 
L 236.636033 184.257321 
L 237.270744 184.073045 
L 238.22281 184.051683 
L 238.540165 183.760847 
L 239.809587 183.681558 
L 241.079008 183.556189 
L 241.713719 183.422757 
L 242.665785 183.361555 
L 243.617851 183.213186 
L 245.204628 183.150545 
L 245.839339 182.995652 
L 246.47405 182.98698 
L 247.10876 182.639941 
L 248.060826 182.581384 
L 248.695537 182.438117 
L 249.647603 182.381235 
L 250.282314 182.301617 
L 251.551736 182.221412 
L 253.773223 181.769362 
L 254.725289 181.672925 
L 255.36 181.317866 
L 256.312066 181.291459 
L 256.946777 181.179889 
L 259.168264 180.978387 
L 262.341818 180.53098 
L 262.976529 180.515556 
L 263.293884 180.360294 
L 264.880661 180.26405 
L 265.832727 180.167184 
L 266.784793 180.09942 
L 267.102149 179.960705 
L 268.054215 179.919077 
L 268.37157 179.766237 
L 269.006281 179.668382 
L 270.275702 179.503605 
L 270.910413 179.485256 
L 271.227769 179.358456 
L 272.179835 179.321663 
L 272.49719 179.165626 
L 273.766612 179.054448 
L 275.353388 178.936545 
L 275.670744 178.534278 
L 277.257521 178.453396 
L 279.796364 178.073261 
L 280.113719 177.793319 
L 281.38314 177.721232 
L 284.239339 177.366658 
L 284.556694 176.918875 
L 286.143471 176.84033 
L 286.778182 176.732552 
L 287.095537 176.684678 
L 287.412893 176.502565 
L 289.317025 176.407576 
L 290.269091 176.207713 
L 291.855868 176.098341 
L 292.807934 175.958741 
L 293.76 175.887923 
L 294.394711 175.758191 
L 295.029421 175.716179 
L 295.346777 175.499309 
L 295.981488 175.489439 
L 296.298843 175.297775 
L 297.250909 175.185925 
L 297.568264 174.918213 
L 298.520331 174.823545 
L 301.693884 174.472937 
L 302.01124 174.472937 
L 302.328595 174.217171 
L 303.598017 173.97174 
L 303.915372 173.74847 
L 304.232727 173.74847 
L 304.550083 173.628083 
L 304.867438 173.628083 
L 305.184793 173.440482 
L 306.454215 173.351764 
L 307.723636 173.285732 
L 308.675702 173.194208 
L 309.945124 173.072004 
L 310.262479 172.67341 
L 311.214545 172.567619 
L 311.531901 172.567619 
L 311.849256 172.368429 
L 312.166612 172.368429 
L 312.801322 171.903351 
L 314.070744 171.880525 
L 314.388099 171.700334 
L 316.609587 171.576193 
L 317.244298 171.413374 
L 317.561653 171.413374 
L 318.196364 171.259388 
L 318.831074 171.243778 
L 319.465785 170.783653 
L 319.78314 170.783653 
L 320.417851 170.481565 
L 321.052562 170.419604 
L 322.004628 170.324256 
L 322.321983 170.02973 
L 322.639339 170.02973 
L 322.956694 169.88195 
L 323.591405 169.856869 
L 324.226116 169.550758 
L 325.178182 169.482213 
L 326.764959 169.118685 
L 328.669091 168.831806 
L 329.303802 168.730284 
L 330.255868 168.623874 
L 331.207934 168.423309 
L 332.16 168.324844 
L 332.477355 168.075518 
L 333.112066 168.040196 
L 333.429421 167.85804 
L 333.746777 167.85804 
L 334.064132 167.427799 
L 334.698843 167.320189 
L 336.28562 167.263613 
L 338.507107 166.842626 
L 339.141818 166.83779 
L 339.459174 166.683287 
L 340.093884 166.62013 
L 340.41124 166.466228 
L 341.363306 166.388664 
L 341.680661 165.767672 
L 343.267438 165.352671 
L 345.17157 165.1681 
L 345.488926 164.967273 
L 345.806281 164.967273 
L 346.440992 164.702383 
L 346.758347 164.702383 
L 347.393058 164.417816 
L 348.979835 164.333367 
L 349.29719 163.947468 
L 349.931901 163.898421 
L 350.566612 163.767988 
L 351.518678 163.668706 
L 354.692231 163.08561 
L 355.009587 162.710946 
L 355.961653 162.627543 
L 356.279008 162.313938 
L 356.596364 162.313938 
L 356.913719 161.889132 
L 357.54843 161.858526 
L 357.865785 161.713771 
L 358.18314 161.713771 
L 358.500496 161.517977 
L 359.135207 161.408776 
L 362.30876 160.952263 
L 362.626116 160.952263 
L 363.260826 160.489057 
L 363.578182 160.489057 
L 364.212893 160.232404 
L 364.530248 160.232404 
L 365.482314 159.540703 
L 365.799669 159.540703 
L 366.43438 159.362719 
L 367.386446 159.301225 
L 367.703802 159.091351 
L 368.973223 159.015069 
L 369.290579 158.789317 
L 369.607934 158.789317 
L 369.925289 158.541492 
L 370.242645 157.961734 
L 370.56 157.642596 
L 370.877355 157.642596 
L 371.194711 157.247098 
L 373.098843 157.009749 
L 373.416198 156.729139 
L 374.368264 156.630174 
L 374.68562 156.332239 
L 375.002975 156.332239 
L 376.272397 155.623506 
L 376.589752 155.623506 
L 376.907107 155.35433 
L 377.224463 154.502034 
L 378.493884 154.395408 
L 379.44595 154.058449 
L 379.763306 153.300274 
L 380.080661 153.052412 
L 380.398017 153.052412 
L 380.715372 152.865758 
L 381.032727 152.396661 
L 382.93686 152.295159 
L 383.57157 151.848582 
L 384.206281 151.751151 
L 384.523636 151.230848 
L 384.840992 151.230848 
L 385.158347 150.606006 
L 385.475702 150.606006 
L 385.793058 150.296875 
L 386.110413 149.647902 
L 386.427769 149.325145 
L 387.062479 149.24768 
L 387.379835 148.509729 
L 387.69719 148.160141 
L 388.331901 148.0912 
L 388.649256 147.728559 
L 388.966612 147.55649 
L 389.918678 147.530829 
L 390.553388 145.57553 
L 391.188099 145.492493 
L 391.82281 144.474464 
L 392.140165 144.474464 
L 392.457521 143.785552 
L 392.774876 143.635592 
L 393.092231 143.635592 
L 393.409587 143.086055 
L 393.726942 143.086055 
L 394.044298 142.559734 
L 394.361653 141.236975 
L 394.679008 140.857751 
L 394.996364 140.857751 
L 395.631074 140.534588 
L 395.94843 140.534588 
L 396.265785 137.602408 
L 396.58314 136.320419 
L 396.900496 135.833535 
L 397.217851 135.833535 
L 397.535207 130.813346 
L 398.169917 130.702114 
L 398.487273 126.571547 
L 398.487273 126.571547 
" clip-path="url(#p525508836a)" style="fill: none; stroke: #ff7f0e; stroke-width: 1.5; stroke-linecap: square"/>
   </g>
   <g id="patch_3">
    <path d="M 57.6 307.584 
L 57.6 41.472 
" style="fill: none; stroke: #000000; stroke-width: 0.8; stroke-linejoin: miter; stroke-linecap: square"/>
   </g>
   <g id="patch_4">
    <path d="M 414.72 307.584 
L 414.72 41.472 
" style="fill: none; stroke: #000000; stroke-width: 0.8; stroke-linejoin: miter; stroke-linecap: square"/>
   </g>
   <g id="patch_5">
    <path d="M 57.6 307.584 
L 414.72 307.584 
" style="fill: none; stroke: #000000; stroke-width: 0.8; stroke-linejoin: miter; stroke-linecap: square"/>
   </g>
   <g id="patch_6">
    <path d="M 57.6 41.472 
L 414.72 41.472 
" style="fill: none; stroke: #000000; stroke-width: 0.8; stroke-linejoin: miter; stroke-linecap: square"/>
   </g>
   <g id="legend_1">
    <g id="patch_7">
     <path d="M 64.6 78.82825 
L 129.342187 78.82825 
Q 131.342187 78.82825 131.342187 76.82825 
L 131.342187 48.472 
Q 131.342187 46.472 129.342187 46.472 
L 64.6 46.472 
Q 62.6 46.472 62.6 48.472 
L 62.6 76.82825 
Q 62.6 78.82825 64.6 78.82825 
z
" style="fill: #ffffff; opacity: 0.8; stroke: #cccccc; stroke-linejoin: miter"/>
    </g>
    <g id="line2d_17">
     <path d="M 66.6 54.570437 
L 76.6 54.570437 
L 86.6 54.570437 
" style="fill: none; stroke: #1f77b4; stroke-width: 1.5; stroke-linecap: square"/>
    </g>
    <g id="text_17">
     <!-- qc -->
     <g transform="translate(94.6 58.070437) scale(0.1 -0.1)">
      <defs>
       <path id="DejaVuSans-71" d="M 947 1747 
Q 947 1113 1208 752 
Q 1469 391 1925 391 
Q 2381 391 2643 752 
Q 2906 1113 2906 1747 
Q 2906 2381 2643 2742 
Q 2381 3103 1925 3103 
Q 1469 3103 1208 2742 
Q 947 2381 947 1747 
z
M 2906 525 
Q 2725 213 2448 61 
Q 2172 -91 1784 -91 
Q 1150 -91 751 415 
Q 353 922 353 1747 
Q 353 2572 751 3078 
Q 1150 3584 1784 3584 
Q 2172 3584 2448 3432 
Q 2725 3281 2906 2969 
L 2906 3500 
L 3481 3500 
L 3481 -1331 
L 2906 -1331 
L 2906 525 
z
" transform="scale(0.015625)"/>
       <path id="DejaVuSans-63" d="M 3122 3366 
L 3122 2828 
Q 2878 2963 2633 3030 
Q 2388 3097 2138 3097 
Q 1578 3097 1268 2742 
Q 959 2388 959 1747 
Q 959 1106 1268 751 
Q 1578 397 2138 397 
Q 2388 397 2633 464 
Q 2878 531 3122 666 
L 3122 134 
Q 2881 22 2623 -34 
Q 2366 -91 2075 -91 
Q 1284 -91 818 406 
Q 353 903 353 1747 
Q 353 2603 823 3093 
Q 1294 3584 2113 3584 
Q 2378 3584 2631 3529 
Q 2884 3475 3122 3366 
z
" transform="scale(0.015625)"/>
      </defs>
      <use xlink:href="#DejaVuSans-71"/>
      <use xlink:href="#DejaVuSans-63" x="63.476562"/>
     </g>
    </g>
    <g id="line2d_18">
     <path d="M 66.6 69.248562 
L 76.6 69.248562 
L 86.6 69.248562 
" style="fill: none; stroke: #ff7f0e; stroke-width: 1.5; stroke-linecap: square"/>
    </g>
    <g id="text_18">
     <!-- Trotter -->
     <g transform="translate(94.6 72.748562) scale(0.1 -0.1)">
      <defs>
       <path id="DejaVuSans-54" d="M -19 4666 
L 3928 4666 
L 3928 4134 
L 2272 4134 
L 2272 0 
L 1638 0 
L 1638 4134 
L -19 4134 
L -19 4666 
z
" transform="scale(0.015625)"/>
       <path id="DejaVuSans-72" d="M 2631 2963 
Q 2534 3019 2420 3045 
Q 2306 3072 2169 3072 
Q 1681 3072 1420 2755 
Q 1159 2438 1159 1844 
L 1159 0 
L 581 0 
L 581 3500 
L 1159 3500 
L 1159 2956 
Q 1341 3275 1631 3429 
Q 1922 3584 2338 3584 
Q 2397 3584 2469 3576 
Q 2541 3569 2628 3553 
L 2631 2963 
z
" transform="scale(0.015625)"/>
       <path id="DejaVuSans-6f" d="M 1959 3097 
Q 1497 3097 1228 2736 
Q 959 2375 959 1747 
Q 959 1119 1226 758 
Q 1494 397 1959 397 
Q 2419 397 2687 759 
Q 2956 1122 2956 1747 
Q 2956 2369 2687 2733 
Q 2419 3097 1959 3097 
z
M 1959 3584 
Q 2709 3584 3137 3096 
Q 3566 2609 3566 1747 
Q 3566 888 3137 398 
Q 2709 -91 1959 -91 
Q 1206 -91 779 398 
Q 353 888 353 1747 
Q 353 2609 779 3096 
Q 1206 3584 1959 3584 
z
" transform="scale(0.015625)"/>
       <path id="DejaVuSans-65" d="M 3597 1894 
L 3597 1613 
L 953 1613 
Q 991 1019 1311 708 
Q 1631 397 2203 397 
Q 2534 397 2845 478 
Q 3156 559 3463 722 
L 3463 178 
Q 3153 47 2828 -22 
Q 2503 -91 2169 -91 
Q 1331 -91 842 396 
Q 353 884 353 1716 
Q 353 2575 817 3079 
Q 1281 3584 2069 3584 
Q 2775 3584 3186 3129 
Q 3597 2675 3597 1894 
z
M 3022 2063 
Q 3016 2534 2758 2815 
Q 2500 3097 2075 3097 
Q 1594 3097 1305 2825 
Q 1016 2553 972 2059 
L 3022 2063 
z
" transform="scale(0.015625)"/>
      </defs>
      <use xlink:href="#DejaVuSans-54"/>
      <use xlink:href="#DejaVuSans-72" x="46.333984"/>
      <use xlink:href="#DejaVuSans-6f" x="85.197266"/>
      <use xlink:href="#DejaVuSans-74" x="146.378906"/>
      <use xlink:href="#DejaVuSans-74" x="185.587891"/>
      <use xlink:href="#DejaVuSans-65" x="224.796875"/>
      <use xlink:href="#DejaVuSans-72" x="286.320312"/>
     </g>
    </g>
   </g>
  </g>
 </g>
 <defs>
  <clipPath id="p525508836a">
   <rect x="57.6" y="41.472" width="357.12" height="266.112"/>
  </clipPath>
 </defs>
</svg>
