<?xml version="1.0" encoding="utf-8" standalone="no"?>
<!DOCTYPE svg PUBLIC "-//W3C//DTD SVG 1.1//EN"
  "http://www.w3.org/Graphics/SVG/1.1/DTD/svg11.dtd">
<svg xmlns:xlink="http://www.w3.org/1999/xlink" width="460.8pt" height="345.6pt" viewBox="0 0 460.8 345.6" xmlns="http://www.w3.org/2000/svg" version="1.1">
 <metadata>
  <rdf:RDF xmlns:dc="http://purl.org/dc/elements/1.1/" xmlns:cc="http://creativecommons.org/ns#" xmlns:rdf="http://www.w3.org/1999/02/22-rdf-syntax-ns#">
   <cc:Work>
    <dc:type rdf:resource="http://purl.org/dc/dcmitype/StillImage"/>
    <dc:date>2024-07-14T10:34:27.312777</dc:date>
    <dc:format>image/svg+xml</dc:format>
    <dc:creator>
     <cc:Agent>
      <dc:title>Matplotlib v3.7.1, https://matplotlib.org/</dc:title>
     </cc:Agent>
    </dc:creator>
   </cc:Work>
  </rdf:RDF>
 </metadata>
 <defs>
  <style type="text/css">*{stroke-linejoin: round; stroke-linecap: butt}</style>
 </defs>
 <g id="figure_1">
  <g id="patch_1">
   <path d="M 0 345.6 
L 460.8 345.6 
L 460.8 0 
L 0 0 
z
" style="fill: #ffffff"/>
  </g>
  <g id="axes_1">
   <g id="patch_2">
    <path d="M 57.6 307.584 
L 414.72 307.584 
L 414.72 41.472 
L 57.6 41.472 
z
" style="fill: #ffffff"/>
   </g>
   <g id="matplotlib.axis_1">
    <g id="xtick_1">
     <g id="line2d_1">
      <defs>
       <path id="m67387350d1" d="M 0 0 
L 0 3.5 
" style="stroke: #000000; stroke-width: 0.8"/>
      </defs>
      <g>
       <use xlink:href="#m67387350d1" x="73.832727" y="307.584" style="stroke: #000000; stroke-width: 0.8"/>
      </g>
     </g>
     <g id="text_1">
      <!-- 0 -->
      <g transform="translate(70.651477 322.182437) scale(0.1 -0.1)">
       <defs>
        <path id="DejaVuSans-30" d="M 2034 4250 
Q 1547 4250 1301 3770 
Q 1056 3291 1056 2328 
Q 1056 1369 1301 889 
Q 1547 409 2034 409 
Q 2525 409 2770 889 
Q 3016 1369 3016 2328 
Q 3016 3291 2770 3770 
Q 2525 4250 2034 4250 
z
M 2034 4750 
Q 2819 4750 3233 4129 
Q 3647 3509 3647 2328 
Q 3647 1150 3233 529 
Q 2819 -91 2034 -91 
Q 1250 -91 836 529 
Q 422 1150 422 2328 
Q 422 3509 836 4129 
Q 1250 4750 2034 4750 
z
" transform="scale(0.015625)"/>
       </defs>
       <use xlink:href="#DejaVuSans-30"/>
      </g>
     </g>
    </g>
    <g id="xtick_2">
     <g id="line2d_2">
      <g>
       <use xlink:href="#m67387350d1" x="137.303802" y="307.584" style="stroke: #000000; stroke-width: 0.8"/>
      </g>
     </g>
     <g id="text_2">
      <!-- 200 -->
      <g transform="translate(127.760052 322.182437) scale(0.1 -0.1)">
       <defs>
        <path id="DejaVuSans-32" d="M 1228 531 
L 3431 531 
L 3431 0 
L 469 0 
L 469 531 
Q 828 903 1448 1529 
Q 2069 2156 2228 2338 
Q 2531 2678 2651 2914 
Q 2772 3150 2772 3378 
Q 2772 3750 2511 3984 
Q 2250 4219 1831 4219 
Q 1534 4219 1204 4116 
Q 875 4013 500 3803 
L 500 4441 
Q 881 4594 1212 4672 
Q 1544 4750 1819 4750 
Q 2544 4750 2975 4387 
Q 3406 4025 3406 3419 
Q 3406 3131 3298 2873 
Q 3191 2616 2906 2266 
Q 2828 2175 2409 1742 
Q 1991 1309 1228 531 
z
" transform="scale(0.015625)"/>
       </defs>
       <use xlink:href="#DejaVuSans-32"/>
       <use xlink:href="#DejaVuSans-30" x="63.623047"/>
       <use xlink:href="#DejaVuSans-30" x="127.246094"/>
      </g>
     </g>
    </g>
    <g id="xtick_3">
     <g id="line2d_3">
      <g>
       <use xlink:href="#m67387350d1" x="200.774876" y="307.584" style="stroke: #000000; stroke-width: 0.8"/>
      </g>
     </g>
     <g id="text_3">
      <!-- 400 -->
      <g transform="translate(191.231126 322.182437) scale(0.1 -0.1)">
       <defs>
        <path id="DejaVuSans-34" d="M 2419 4116 
L 825 1625 
L 2419 1625 
L 2419 4116 
z
M 2253 4666 
L 3047 4666 
L 3047 1625 
L 3713 1625 
L 3713 1100 
L 3047 1100 
L 3047 0 
L 2419 0 
L 2419 1100 
L 313 1100 
L 313 1709 
L 2253 4666 
z
" transform="scale(0.015625)"/>
       </defs>
       <use xlink:href="#DejaVuSans-34"/>
       <use xlink:href="#DejaVuSans-30" x="63.623047"/>
       <use xlink:href="#DejaVuSans-30" x="127.246094"/>
      </g>
     </g>
    </g>
    <g id="xtick_4">
     <g id="line2d_4">
      <g>
       <use xlink:href="#m67387350d1" x="264.24595" y="307.584" style="stroke: #000000; stroke-width: 0.8"/>
      </g>
     </g>
     <g id="text_4">
      <!-- 600 -->
      <g transform="translate(254.7022 322.182437) scale(0.1 -0.1)">
       <defs>
        <path id="DejaVuSans-36" d="M 2113 2584 
Q 1688 2584 1439 2293 
Q 1191 2003 1191 1497 
Q 1191 994 1439 701 
Q 1688 409 2113 409 
Q 2538 409 2786 701 
Q 3034 994 3034 1497 
Q 3034 2003 2786 2293 
Q 2538 2584 2113 2584 
z
M 3366 4563 
L 3366 3988 
Q 3128 4100 2886 4159 
Q 2644 4219 2406 4219 
Q 1781 4219 1451 3797 
Q 1122 3375 1075 2522 
Q 1259 2794 1537 2939 
Q 1816 3084 2150 3084 
Q 2853 3084 3261 2657 
Q 3669 2231 3669 1497 
Q 3669 778 3244 343 
Q 2819 -91 2113 -91 
Q 1303 -91 875 529 
Q 447 1150 447 2328 
Q 447 3434 972 4092 
Q 1497 4750 2381 4750 
Q 2619 4750 2861 4703 
Q 3103 4656 3366 4563 
z
" transform="scale(0.015625)"/>
       </defs>
       <use xlink:href="#DejaVuSans-36"/>
       <use xlink:href="#DejaVuSans-30" x="63.623047"/>
       <use xlink:href="#DejaVuSans-30" x="127.246094"/>
      </g>
     </g>
    </g>
    <g id="xtick_5">
     <g id="line2d_5">
      <g>
       <use xlink:href="#m67387350d1" x="327.717025" y="307.584" style="stroke: #000000; stroke-width: 0.8"/>
      </g>
     </g>
     <g id="text_5">
      <!-- 800 -->
      <g transform="translate(318.173275 322.182437) scale(0.1 -0.1)">
       <defs>
        <path id="DejaVuSans-38" d="M 2034 2216 
Q 1584 2216 1326 1975 
Q 1069 1734 1069 1313 
Q 1069 891 1326 650 
Q 1584 409 2034 409 
Q 2484 409 2743 651 
Q 3003 894 3003 1313 
Q 3003 1734 2745 1975 
Q 2488 2216 2034 2216 
z
M 1403 2484 
Q 997 2584 770 2862 
Q 544 3141 544 3541 
Q 544 4100 942 4425 
Q 1341 4750 2034 4750 
Q 2731 4750 3128 4425 
Q 3525 4100 3525 3541 
Q 3525 3141 3298 2862 
Q 3072 2584 2669 2484 
Q 3125 2378 3379 2068 
Q 3634 1759 3634 1313 
Q 3634 634 3220 271 
Q 2806 -91 2034 -91 
Q 1263 -91 848 271 
Q 434 634 434 1313 
Q 434 1759 690 2068 
Q 947 2378 1403 2484 
z
M 1172 3481 
Q 1172 3119 1398 2916 
Q 1625 2713 2034 2713 
Q 2441 2713 2670 2916 
Q 2900 3119 2900 3481 
Q 2900 3844 2670 4047 
Q 2441 4250 2034 4250 
Q 1625 4250 1398 4047 
Q 1172 3844 1172 3481 
z
" transform="scale(0.015625)"/>
       </defs>
       <use xlink:href="#DejaVuSans-38"/>
       <use xlink:href="#DejaVuSans-30" x="63.623047"/>
       <use xlink:href="#DejaVuSans-30" x="127.246094"/>
      </g>
     </g>
    </g>
    <g id="xtick_6">
     <g id="line2d_6">
      <g>
       <use xlink:href="#m67387350d1" x="391.188099" y="307.584" style="stroke: #000000; stroke-width: 0.8"/>
      </g>
     </g>
     <g id="text_6">
      <!-- 1000 -->
      <g transform="translate(378.463099 322.182437) scale(0.1 -0.1)">
       <defs>
        <path id="DejaVuSans-31" d="M 794 531 
L 1825 531 
L 1825 4091 
L 703 3866 
L 703 4441 
L 1819 4666 
L 2450 4666 
L 2450 531 
L 3481 531 
L 3481 0 
L 794 0 
L 794 531 
z
" transform="scale(0.015625)"/>
       </defs>
       <use xlink:href="#DejaVuSans-31"/>
       <use xlink:href="#DejaVuSans-30" x="63.623047"/>
       <use xlink:href="#DejaVuSans-30" x="127.246094"/>
       <use xlink:href="#DejaVuSans-30" x="190.869141"/>
      </g>
     </g>
    </g>
    <g id="text_7">
     <!-- n -->
     <g transform="translate(232.99125 335.860562) scale(0.1 -0.1)">
      <defs>
       <path id="DejaVuSans-6e" d="M 3513 2113 
L 3513 0 
L 2938 0 
L 2938 2094 
Q 2938 2591 2744 2837 
Q 2550 3084 2163 3084 
Q 1697 3084 1428 2787 
Q 1159 2491 1159 1978 
L 1159 0 
L 581 0 
L 581 3500 
L 1159 3500 
L 1159 2956 
Q 1366 3272 1645 3428 
Q 1925 3584 2291 3584 
Q 2894 3584 3203 3211 
Q 3513 2838 3513 2113 
z
" transform="scale(0.015625)"/>
      </defs>
      <use xlink:href="#DejaVuSans-6e"/>
     </g>
    </g>
   </g>
   <g id="matplotlib.axis_2">
    <g id="ytick_1">
     <g id="line2d_7">
      <defs>
       <path id="md23eeedcb5" d="M 0 0 
L -3.5 0 
" style="stroke: #000000; stroke-width: 0.8"/>
      </defs>
      <g>
       <use xlink:href="#md23eeedcb5" x="57.6" y="300.432758" style="stroke: #000000; stroke-width: 0.8"/>
      </g>
     </g>
     <g id="text_8">
      <!-- −1.0 -->
      <g transform="translate(26.317187 304.231976) scale(0.1 -0.1)">
       <defs>
        <path id="DejaVuSans-2212" d="M 678 2272 
L 4684 2272 
L 4684 1741 
L 678 1741 
L 678 2272 
z
" transform="scale(0.015625)"/>
        <path id="DejaVuSans-2e" d="M 684 794 
L 1344 794 
L 1344 0 
L 684 0 
L 684 794 
z
" transform="scale(0.015625)"/>
       </defs>
       <use xlink:href="#DejaVuSans-2212"/>
       <use xlink:href="#DejaVuSans-31" x="83.789062"/>
       <use xlink:href="#DejaVuSans-2e" x="147.412109"/>
       <use xlink:href="#DejaVuSans-30" x="179.199219"/>
      </g>
     </g>
    </g>
    <g id="ytick_2">
     <g id="line2d_8">
      <g>
       <use xlink:href="#md23eeedcb5" x="57.6" y="253.621586" style="stroke: #000000; stroke-width: 0.8"/>
      </g>
     </g>
     <g id="text_9">
      <!-- −0.5 -->
      <g transform="translate(26.317187 257.420805) scale(0.1 -0.1)">
       <defs>
        <path id="DejaVuSans-35" d="M 691 4666 
L 3169 4666 
L 3169 4134 
L 1269 4134 
L 1269 2991 
Q 1406 3038 1543 3061 
Q 1681 3084 1819 3084 
Q 2600 3084 3056 2656 
Q 3513 2228 3513 1497 
Q 3513 744 3044 326 
Q 2575 -91 1722 -91 
Q 1428 -91 1123 -41 
Q 819 9 494 109 
L 494 744 
Q 775 591 1075 516 
Q 1375 441 1709 441 
Q 2250 441 2565 725 
Q 2881 1009 2881 1497 
Q 2881 1984 2565 2268 
Q 2250 2553 1709 2553 
Q 1456 2553 1204 2497 
Q 953 2441 691 2322 
L 691 4666 
z
" transform="scale(0.015625)"/>
       </defs>
       <use xlink:href="#DejaVuSans-2212"/>
       <use xlink:href="#DejaVuSans-30" x="83.789062"/>
       <use xlink:href="#DejaVuSans-2e" x="147.412109"/>
       <use xlink:href="#DejaVuSans-35" x="179.199219"/>
      </g>
     </g>
    </g>
    <g id="ytick_3">
     <g id="line2d_9">
      <g>
       <use xlink:href="#md23eeedcb5" x="57.6" y="206.810414" style="stroke: #000000; stroke-width: 0.8"/>
      </g>
     </g>
     <g id="text_10">
      <!-- 0.0 -->
      <g transform="translate(34.696875 210.609633) scale(0.1 -0.1)">
       <use xlink:href="#DejaVuSans-30"/>
       <use xlink:href="#DejaVuSans-2e" x="63.623047"/>
       <use xlink:href="#DejaVuSans-30" x="95.410156"/>
      </g>
     </g>
    </g>
    <g id="ytick_4">
     <g id="line2d_10">
      <g>
       <use xlink:href="#md23eeedcb5" x="57.6" y="159.999243" style="stroke: #000000; stroke-width: 0.8"/>
      </g>
     </g>
     <g id="text_11">
      <!-- 0.5 -->
      <g transform="translate(34.696875 163.798462) scale(0.1 -0.1)">
       <use xlink:href="#DejaVuSans-30"/>
       <use xlink:href="#DejaVuSans-2e" x="63.623047"/>
       <use xlink:href="#DejaVuSans-35" x="95.410156"/>
      </g>
     </g>
    </g>
    <g id="ytick_5">
     <g id="line2d_11">
      <g>
       <use xlink:href="#md23eeedcb5" x="57.6" y="113.188071" style="stroke: #000000; stroke-width: 0.8"/>
      </g>
     </g>
     <g id="text_12">
      <!-- 1.0 -->
      <g transform="translate(34.696875 116.98729) scale(0.1 -0.1)">
       <use xlink:href="#DejaVuSans-31"/>
       <use xlink:href="#DejaVuSans-2e" x="63.623047"/>
       <use xlink:href="#DejaVuSans-30" x="95.410156"/>
      </g>
     </g>
    </g>
    <g id="ytick_6">
     <g id="line2d_12">
      <g>
       <use xlink:href="#md23eeedcb5" x="57.6" y="66.3769" style="stroke: #000000; stroke-width: 0.8"/>
      </g>
     </g>
     <g id="text_13">
      <!-- 1.5 -->
      <g transform="translate(34.696875 70.176118) scale(0.1 -0.1)">
       <use xlink:href="#DejaVuSans-31"/>
       <use xlink:href="#DejaVuSans-2e" x="63.623047"/>
       <use xlink:href="#DejaVuSans-35" x="95.410156"/>
      </g>
     </g>
    </g>
    <g id="text_14">
     <!-- E*t -->
     <g transform="translate(20.2375 182.147531) rotate(-90) scale(0.1 -0.1)">
      <defs>
       <path id="DejaVuSans-45" d="M 628 4666 
L 3578 4666 
L 3578 4134 
L 1259 4134 
L 1259 2753 
L 3481 2753 
L 3481 2222 
L 1259 2222 
L 1259 531 
L 3634 531 
L 3634 0 
L 628 0 
L 628 4666 
z
" transform="scale(0.015625)"/>
       <path id="DejaVuSans-2a" d="M 3009 3897 
L 1888 3291 
L 3009 2681 
L 2828 2375 
L 1778 3009 
L 1778 1831 
L 1422 1831 
L 1422 3009 
L 372 2375 
L 191 2681 
L 1313 3291 
L 191 3897 
L 372 4206 
L 1422 3572 
L 1422 4750 
L 1778 4750 
L 1778 3572 
L 2828 4206 
L 3009 3897 
z
" transform="scale(0.015625)"/>
       <path id="DejaVuSans-74" d="M 1172 4494 
L 1172 3500 
L 2356 3500 
L 2356 3053 
L 1172 3053 
L 1172 1153 
Q 1172 725 1289 603 
Q 1406 481 1766 481 
L 2356 481 
L 2356 0 
L 1766 0 
Q 1100 0 847 248 
Q 594 497 594 1153 
L 594 3053 
L 172 3053 
L 172 3500 
L 594 3500 
L 594 4494 
L 1172 4494 
z
" transform="scale(0.015625)"/>
      </defs>
      <use xlink:href="#DejaVuSans-45"/>
      <use xlink:href="#DejaVuSans-2a" x="63.183594"/>
      <use xlink:href="#DejaVuSans-74" x="113.183594"/>
     </g>
    </g>
   </g>
   <g id="line2d_13">
    <path d="M 73.832727 295.488 
L 74.784793 288.4036 
L 75.102149 286.722643 
L 75.419504 285.890596 
L 75.73686 284.722383 
L 76.37157 283.786382 
L 76.688926 282.12138 
L 77.323636 281.360463 
L 77.640992 279.890485 
L 77.958347 279.278245 
L 78.593058 274.624492 
L 78.910413 274.262199 
L 79.227769 273.651547 
L 79.545124 271.511579 
L 79.862479 271.223091 
L 80.179835 271.087831 
L 80.814545 269.510901 
L 81.449256 268.983553 
L 82.083967 267.722812 
L 82.401322 267.440785 
L 83.670744 265.256871 
L 84.305455 264.758518 
L 84.62281 264.31423 
L 84.940165 264.292993 
L 85.257521 263.418078 
L 85.574876 263.259053 
L 85.892231 262.907077 
L 86.209587 261.930589 
L 86.526942 261.663018 
L 86.844298 260.817733 
L 87.161653 260.615959 
L 87.479008 260.270084 
L 88.113719 259.28957 
L 88.431074 258.868205 
L 89.38314 258.443972 
L 89.700496 258.366594 
L 90.017851 257.970687 
L 90.335207 257.860402 
L 90.652562 256.732558 
L 91.921983 256.070971 
L 92.239339 255.461182 
L 92.556694 255.317418 
L 92.87405 254.822419 
L 93.50876 254.492077 
L 93.826116 253.686415 
L 94.143471 253.650778 
L 94.460826 253.459111 
L 94.778182 252.969264 
L 95.095537 252.867198 
L 95.412893 252.506476 
L 95.730248 252.457707 
L 96.682314 251.557114 
L 96.999669 251.21456 
L 97.951736 250.735264 
L 98.269091 250.309528 
L 98.903802 250.08491 
L 100.490579 249.109158 
L 101.442645 247.834604 
L 102.077355 247.731986 
L 102.394711 247.577198 
L 102.712066 247.039873 
L 103.346777 246.947139 
L 103.664132 246.557523 
L 105.88562 245.519055 
L 106.202975 245.178094 
L 107.155041 244.850745 
L 108.107107 244.283248 
L 108.741818 244.191998 
L 111.915372 242.965602 
L 112.232727 242.88193 
L 112.867438 242.535833 
L 113.184793 242.311943 
L 113.502149 242.306017 
L 114.77157 241.57556 
L 115.723636 241.27518 
L 116.675702 241.003026 
L 117.627769 240.771215 
L 119.849256 239.379788 
L 120.801322 239.216122 
L 121.118678 239.013651 
L 122.070744 238.884668 
L 122.705455 238.68291 
L 123.02281 238.247773 
L 123.340165 238.235697 
L 123.657521 237.783224 
L 123.974876 237.550638 
L 124.609587 237.391344 
L 125.244298 237.207401 
L 126.196364 236.87951 
L 126.513719 236.519017 
L 127.14843 236.236964 
L 127.465785 235.940007 
L 131.591405 234.50542 
L 131.90876 234.200145 
L 132.226116 234.160916 
L 132.543471 233.948239 
L 133.495537 233.832257 
L 133.812893 233.618775 
L 134.130248 233.541247 
L 134.447603 233.163021 
L 136.03438 232.766647 
L 136.351736 232.540684 
L 136.669091 232.484136 
L 136.986446 232.236335 
L 139.842645 231.269735 
L 140.16 230.978738 
L 140.477355 230.912778 
L 140.794711 230.676909 
L 141.746777 230.512454 
L 142.064132 230.094249 
L 142.698843 229.774537 
L 143.016198 229.54692 
L 143.650909 229.357122 
L 145.555041 228.719502 
L 146.824463 228.334267 
L 150.315372 227.216318 
L 150.632727 226.888444 
L 151.267438 226.709507 
L 153.17157 226.137482 
L 154.440992 225.927568 
L 155.075702 225.629389 
L 156.027769 225.429012 
L 156.662479 225.19839 
L 156.979835 225.118025 
L 157.614545 224.579651 
L 157.931901 224.518957 
L 158.249256 224.191754 
L 158.566612 224.159842 
L 159.836033 223.575749 
L 161.42281 223.35394 
L 162.692231 222.90487 
L 163.009587 222.697787 
L 163.326942 222.657344 
L 163.644298 222.460996 
L 163.961653 222.436916 
L 164.913719 222.009348 
L 165.54843 221.927396 
L 165.865785 221.51467 
L 166.500496 221.413822 
L 166.817851 220.969754 
L 167.452562 220.868593 
L 168.404628 220.714122 
L 171.260826 220.11038 
L 172.212893 219.891695 
L 172.530248 219.846857 
L 173.164959 219.418778 
L 173.799669 219.192594 
L 174.43438 219.03613 
L 175.386446 218.943308 
L 176.021157 218.898851 
L 177.290579 218.150989 
L 178.56 217.938218 
L 179.194711 217.759537 
L 181.416198 217.103021 
L 183.002975 216.526167 
L 183.320331 216.482874 
L 183.637686 216.301786 
L 184.589752 216.053133 
L 185.224463 215.725218 
L 186.176529 215.507414 
L 186.493884 215.487982 
L 187.128595 215.332 
L 188.398017 215.020319 
L 189.032727 214.804256 
L 189.350083 214.771291 
L 189.984793 214.147951 
L 190.619504 213.924405 
L 190.93686 213.610758 
L 191.254215 213.516302 
L 191.57157 213.279613 
L 192.206281 213.242421 
L 192.840992 213.026637 
L 193.475702 212.889505 
L 194.110413 212.742943 
L 195.69719 212.436407 
L 196.014545 212.101745 
L 197.283967 211.876084 
L 197.601322 211.579723 
L 199.505455 211.024226 
L 200.140165 210.888303 
L 200.774876 210.668107 
L 203.313719 210.070673 
L 203.631074 209.657202 
L 204.900496 209.398016 
L 205.852562 209.089518 
L 208.391405 208.381168 
L 208.70876 208.331267 
L 209.026116 208.086931 
L 209.660826 207.832776 
L 210.612893 207.366604 
L 211.564959 207.232019 
L 212.517025 207.019483 
L 212.83438 206.84506 
L 213.786446 206.68657 
L 216.007934 206.042984 
L 216.325289 206.02274 
L 216.642645 205.692887 
L 217.277355 205.444851 
L 218.229421 205.206774 
L 218.864132 205.00637 
L 219.816198 204.810943 
L 220.133554 204.53497 
L 222.989752 203.883178 
L 223.307107 203.740536 
L 223.624463 203.720945 
L 224.259174 203.403626 
L 224.893884 203.272656 
L 225.528595 202.938597 
L 226.163306 202.817358 
L 226.480661 202.588629 
L 229.33686 202.036096 
L 229.654215 201.782596 
L 230.923636 201.483265 
L 231.875702 200.923501 
L 232.510413 200.750269 
L 232.827769 200.354396 
L 233.779835 200.217631 
L 234.414545 199.93708 
L 235.366612 199.665647 
L 237.270744 198.744384 
L 237.588099 198.68654 
L 237.905455 198.387314 
L 238.540165 198.233662 
L 238.857521 197.891688 
L 239.174876 197.845773 
L 239.809587 197.617386 
L 240.761653 197.278841 
L 241.396364 196.978054 
L 242.34843 196.865427 
L 242.665785 196.663008 
L 243.300496 196.628745 
L 243.935207 196.43227 
L 244.569917 196.24897 
L 246.156694 195.768497 
L 246.791405 195.604974 
L 247.426116 195.513808 
L 247.743471 195.131829 
L 248.378182 195.055869 
L 250.599669 194.248106 
L 251.869091 193.953763 
L 252.503802 193.800382 
L 252.821157 193.485581 
L 253.455868 193.39578 
L 253.773223 193.388499 
L 254.407934 193.164237 
L 255.994711 192.630517 
L 256.312066 192.421195 
L 256.946777 192.201882 
L 257.581488 191.870193 
L 258.533554 191.713213 
L 259.48562 191.360481 
L 260.120331 191.294031 
L 262.976529 190.287812 
L 265.515372 189.580645 
L 266.150083 189.23414 
L 267.419504 188.933195 
L 267.73686 188.74002 
L 268.37157 188.704683 
L 268.688926 188.540351 
L 269.323636 187.718658 
L 269.958347 187.597889 
L 270.910413 187.410107 
L 271.227769 187.249864 
L 271.545124 187.236568 
L 272.179835 186.874598 
L 272.814545 186.684386 
L 275.036033 185.791962 
L 275.353388 185.513258 
L 276.305455 185.400169 
L 276.940165 184.844019 
L 279.161653 184.319793 
L 279.479008 184.135621 
L 279.796364 183.737436 
L 280.431074 183.541175 
L 282.652562 182.616447 
L 284.239339 181.76848 
L 284.87405 181.601588 
L 286.143471 181.105992 
L 286.778182 180.541992 
L 287.095537 180.494506 
L 287.730248 180.160907 
L 288.047603 179.767791 
L 288.999669 179.621656 
L 289.317025 179.368618 
L 291.221157 178.831541 
L 291.538512 178.791363 
L 291.855868 178.339269 
L 292.490579 178.158626 
L 292.807934 177.881665 
L 293.442645 177.791693 
L 293.76 177.626857 
L 294.394711 177.015342 
L 295.346777 176.890663 
L 295.981488 176.787282 
L 296.616198 176.322161 
L 296.933554 176.11212 
L 297.568264 176.022819 
L 299.155041 175.51784 
L 299.789752 175.385659 
L 300.424463 175.15701 
L 300.741818 174.725308 
L 302.01124 174.227948 
L 302.328595 173.956541 
L 302.963306 173.910886 
L 303.280661 173.785105 
L 303.598017 173.534456 
L 304.232727 173.459697 
L 304.550083 173.082377 
L 305.184793 172.940784 
L 305.502149 172.684052 
L 306.454215 172.505874 
L 307.406281 172.20163 
L 311.849256 170.678509 
L 312.483967 170.332315 
L 312.801322 170.259432 
L 313.118678 169.97815 
L 313.753388 169.877197 
L 315.02281 169.425108 
L 315.657521 169.219555 
L 315.974876 168.868227 
L 316.609587 168.661923 
L 317.244298 168.386963 
L 317.879008 168.160098 
L 318.513719 167.987383 
L 318.831074 167.95094 
L 319.14843 167.737909 
L 319.465785 167.72873 
L 321.369917 166.902729 
L 322.321983 166.673774 
L 322.639339 166.363981 
L 323.591405 166.002174 
L 324.226116 165.424384 
L 324.860826 165.214739 
L 325.495537 164.953981 
L 326.130248 164.865442 
L 327.082314 164.029985 
L 329.303802 162.756243 
L 329.621157 162.274179 
L 330.255868 161.95669 
L 330.573223 161.41635 
L 330.890579 161.367938 
L 332.794711 160.19343 
L 333.112066 159.740714 
L 333.746777 159.381929 
L 334.381488 159.300835 
L 334.698843 159.137173 
L 335.333554 158.979343 
L 335.968264 158.793461 
L 336.28562 158.434693 
L 337.237686 157.97703 
L 337.555041 157.473566 
L 338.189752 157.418453 
L 338.507107 157.192718 
L 338.824463 156.420005 
L 340.41124 155.908325 
L 341.04595 155.596315 
L 341.680661 155.544255 
L 342.315372 155.31798 
L 343.584793 153.872663 
L 344.854215 153.523626 
L 345.488926 153.06175 
L 345.806281 153.017218 
L 346.123636 152.733772 
L 346.440992 152.681508 
L 346.758347 151.702847 
L 347.075702 151.504966 
L 347.710413 150.675097 
L 348.027769 150.641545 
L 348.345124 150.34131 
L 348.662479 149.8192 
L 348.979835 149.776561 
L 349.29719 149.325801 
L 349.931901 148.165039 
L 351.201322 147.727037 
L 351.836033 147.118528 
L 352.153388 147.0417 
L 352.788099 146.64653 
L 353.105455 146.094739 
L 355.644298 144.550143 
L 356.279008 143.512966 
L 356.913719 143.196145 
L 357.54843 142.21857 
L 357.865785 142.067035 
L 358.500496 142.035724 
L 359.135207 141.29455 
L 359.452562 141.110644 
L 359.769917 140.788141 
L 360.087273 140.298111 
L 360.721983 140.071679 
L 361.039339 139.760579 
L 361.67405 139.478011 
L 362.626116 138.828729 
L 363.260826 138.573912 
L 363.895537 137.775346 
L 364.212893 137.688036 
L 364.530248 137.176064 
L 364.847603 137.150824 
L 365.164959 136.584708 
L 365.482314 136.247078 
L 365.799669 136.172981 
L 366.117025 135.746503 
L 366.43438 135.726677 
L 367.069091 135.119324 
L 367.386446 135.057101 
L 367.703802 134.761761 
L 368.021157 134.28632 
L 368.338512 134.153075 
L 368.655868 132.623614 
L 369.607934 131.717276 
L 370.242645 130.347868 
L 370.56 130.320655 
L 371.194711 129.829289 
L 371.512066 129.143473 
L 372.146777 126.816379 
L 372.464132 126.427364 
L 372.781488 125.741526 
L 373.098843 125.463277 
L 373.416198 124.7226 
L 373.733554 124.380521 
L 374.368264 124.218158 
L 374.68562 123.775509 
L 375.637686 123.414392 
L 375.955041 122.478908 
L 376.272397 122.239955 
L 376.589752 121.700079 
L 376.907107 121.57541 
L 377.541818 121.0111 
L 377.859174 119.660394 
L 378.493884 119.0932 
L 379.128595 116.551311 
L 379.44595 115.989165 
L 379.763306 115.859336 
L 380.080661 114.046229 
L 380.715372 112.963837 
L 381.667438 111.529794 
L 381.984793 110.644202 
L 382.302149 110.629519 
L 382.93686 108.987904 
L 383.254215 108.742612 
L 383.57157 108.124618 
L 384.206281 108.087631 
L 384.523636 107.438778 
L 385.158347 105.400407 
L 386.110413 104.499902 
L 386.427769 104.422888 
L 386.745124 104.057254 
L 387.69719 101.292831 
L 388.014545 101.198 
L 388.649256 99.640069 
L 389.283967 97.794874 
L 389.601322 95.252988 
L 390.236033 95.068477 
L 390.553388 94.625822 
L 390.870744 93.168161 
L 391.188099 92.341434 
L 391.505455 91.861399 
L 391.82281 91.66543 
L 392.140165 91.22277 
L 392.457521 90.439844 
L 392.774876 90.208639 
L 393.092231 88.458349 
L 393.726942 86.805588 
L 394.044298 86.726525 
L 394.679008 84.704528 
L 394.996364 79.49298 
L 395.313719 77.294993 
L 395.631074 76.951088 
L 396.265785 73.891854 
L 396.900496 72.920622 
L 397.217851 71.869852 
L 397.852562 68.503438 
L 398.169917 55.589994 
L 398.487273 53.568 
L 398.487273 53.568 
" clip-path="url(#p2d414bdb93)" style="fill: none; stroke: #1f77b4; stroke-width: 1.5; stroke-linecap: square"/>
   </g>
   <g id="line2d_14">
    <path d="M 73.832727 215.496212 
L 75.419504 215.385174 
L 76.37157 215.348003 
L 76.688926 215.223245 
L 77.640992 215.171508 
L 78.275702 215.067847 
L 83.988099 214.505517 
L 85.257521 214.452713 
L 85.892231 214.369764 
L 88.113719 214.276699 
L 89.065785 214.181507 
L 92.239339 213.934572 
L 93.826116 213.825566 
L 98.903802 213.519091 
L 99.538512 213.450118 
L 104.933554 213.16839 
L 107.789752 212.958567 
L 109.693884 212.870452 
L 110.64595 212.780244 
L 112.867438 212.726698 
L 113.502149 212.65183 
L 116.993058 212.499893 
L 117.627769 212.399468 
L 120.483967 212.300348 
L 121.436033 212.199678 
L 122.705455 212.138114 
L 123.657521 212.051808 
L 125.561653 211.983944 
L 127.465785 211.769021 
L 131.27405 211.692974 
L 132.543471 211.64092 
L 136.669091 211.537782 
L 138.573223 211.408136 
L 140.16 211.357598 
L 140.794711 211.282397 
L 144.28562 211.104466 
L 149.04595 210.922855 
L 149.680661 210.915537 
L 149.998017 210.705647 
L 152.53686 210.595621 
L 164.913719 210.09695 
L 165.54843 210.00794 
L 166.500496 209.950346 
L 168.404628 209.849576 
L 169.991405 209.741703 
L 171.895537 209.670046 
L 172.847603 209.547525 
L 176.973223 209.436713 
L 180.781488 209.322545 
L 182.68562 209.208535 
L 196.014545 208.652379 
L 201.726942 208.410163 
L 202.679008 208.364331 
L 205.852562 208.281615 
L 208.07405 208.168311 
L 210.295537 208.074488 
L 215.373223 207.899861 
L 219.498843 207.72543 
L 220.133554 207.611512 
L 224.576529 207.502753 
L 248.378182 206.655105 
L 284.239339 205.237503 
L 284.556694 205.113386 
L 287.095537 205.048471 
L 288.047603 204.994743 
L 291.855868 204.885949 
L 295.664132 204.717172 
L 297.250909 204.633044 
L 297.88562 204.558838 
L 299.789752 204.499113 
L 302.01124 204.435416 
L 302.963306 204.329408 
L 304.232727 204.234607 
L 306.13686 204.135885 
L 312.166612 203.852084 
L 313.118678 203.723173 
L 317.561653 203.58736 
L 320.735207 203.311905 
L 322.639339 203.203839 
L 324.226116 203.071077 
L 326.130248 203.002534 
L 327.082314 202.941949 
L 329.621157 202.843656 
L 331.525289 202.753034 
L 333.112066 202.652376 
L 335.016198 202.452803 
L 339.141818 202.319091 
L 340.728595 202.216101 
L 341.363306 202.194601 
L 341.680661 202.022473 
L 344.219504 201.882391 
L 345.806281 201.800617 
L 347.075702 201.684146 
L 348.345124 201.639682 
L 354.692231 201.279054 
L 355.326942 201.175204 
L 356.596364 201.065161 
L 357.231074 200.947412 
L 359.452562 200.799888 
L 361.356694 200.697557 
L 362.943471 200.61934 
L 364.212893 200.488197 
L 364.847603 200.411173 
L 365.799669 200.29647 
L 367.703802 200.171918 
L 369.925289 200.019506 
L 370.56 199.770349 
L 371.194711 199.660724 
L 374.368264 199.489724 
L 375.002975 199.407141 
L 376.907107 199.136083 
L 377.224463 198.899842 
L 379.128595 198.839127 
L 379.44595 198.776888 
L 379.763306 198.566735 
L 381.350083 198.31627 
L 384.206281 198.137346 
L 384.523636 197.993128 
L 384.840992 197.993128 
L 385.158347 197.819933 
L 385.793058 197.734247 
L 386.427769 197.464901 
L 387.062479 197.443429 
L 387.69719 197.141983 
L 388.331901 197.122874 
L 388.966612 196.974662 
L 389.918678 196.967549 
L 390.553388 196.425575 
L 391.188099 196.402559 
L 391.82281 196.12038 
L 392.140165 196.12038 
L 392.457521 195.929426 
L 393.726942 195.735538 
L 394.044298 195.589651 
L 394.361653 195.223006 
L 394.996364 195.117892 
L 395.94843 195.028317 
L 396.265785 194.21557 
L 396.58314 193.860225 
L 396.900496 193.72527 
L 397.217851 193.72527 
L 397.535207 192.333764 
L 398.169917 192.302932 
L 398.487273 191.158014 
L 398.487273 191.158014 
" clip-path="url(#p2d414bdb93)" style="fill: none; stroke: #ff7f0e; stroke-width: 1.5; stroke-linecap: square"/>
   </g>
   <g id="patch_3">
    <path d="M 57.6 307.584 
L 57.6 41.472 
" style="fill: none; stroke: #000000; stroke-width: 0.8; stroke-linejoin: miter; stroke-linecap: square"/>
   </g>
   <g id="patch_4">
    <path d="M 414.72 307.584 
L 414.72 41.472 
" style="fill: none; stroke: #000000; stroke-width: 0.8; stroke-linejoin: miter; stroke-linecap: square"/>
   </g>
   <g id="patch_5">
    <path d="M 57.6 307.584 
L 414.72 307.584 
" style="fill: none; stroke: #000000; stroke-width: 0.8; stroke-linejoin: miter; stroke-linecap: square"/>
   </g>
   <g id="patch_6">
    <path d="M 57.6 41.472 
L 414.72 41.472 
" style="fill: none; stroke: #000000; stroke-width: 0.8; stroke-linejoin: miter; stroke-linecap: square"/>
   </g>
   <g id="legend_1">
    <g id="patch_7">
     <path d="M 64.6 78.82825 
L 129.342187 78.82825 
Q 131.342187 78.82825 131.342187 76.82825 
L 131.342187 48.472 
Q 131.342187 46.472 129.342187 46.472 
L 64.6 46.472 
Q 62.6 46.472 62.6 48.472 
L 62.6 76.82825 
Q 62.6 78.82825 64.6 78.82825 
z
" style="fill: #ffffff; opacity: 0.8; stroke: #cccccc; stroke-linejoin: miter"/>
    </g>
    <g id="line2d_15">
     <path d="M 66.6 54.570437 
L 76.6 54.570437 
L 86.6 54.570437 
" style="fill: none; stroke: #1f77b4; stroke-width: 1.5; stroke-linecap: square"/>
    </g>
    <g id="text_15">
     <!-- qc -->
     <g transform="translate(94.6 58.070437) scale(0.1 -0.1)">
      <defs>
       <path id="DejaVuSans-71" d="M 947 1747 
Q 947 1113 1208 752 
Q 1469 391 1925 391 
Q 2381 391 2643 752 
Q 2906 1113 2906 1747 
Q 2906 2381 2643 2742 
Q 2381 3103 1925 3103 
Q 1469 3103 1208 2742 
Q 947 2381 947 1747 
z
M 2906 525 
Q 2725 213 2448 61 
Q 2172 -91 1784 -91 
Q 1150 -91 751 415 
Q 353 922 353 1747 
Q 353 2572 751 3078 
Q 1150 3584 1784 3584 
Q 2172 3584 2448 3432 
Q 2725 3281 2906 2969 
L 2906 3500 
L 3481 3500 
L 3481 -1331 
L 2906 -1331 
L 2906 525 
z
" transform="scale(0.015625)"/>
       <path id="DejaVuSans-63" d="M 3122 3366 
L 3122 2828 
Q 2878 2963 2633 3030 
Q 2388 3097 2138 3097 
Q 1578 3097 1268 2742 
Q 959 2388 959 1747 
Q 959 1106 1268 751 
Q 1578 397 2138 397 
Q 2388 397 2633 464 
Q 2878 531 3122 666 
L 3122 134 
Q 2881 22 2623 -34 
Q 2366 -91 2075 -91 
Q 1284 -91 818 406 
Q 353 903 353 1747 
Q 353 2603 823 3093 
Q 1294 3584 2113 3584 
Q 2378 3584 2631 3529 
Q 2884 3475 3122 3366 
z
" transform="scale(0.015625)"/>
      </defs>
      <use xlink:href="#DejaVuSans-71"/>
      <use xlink:href="#DejaVuSans-63" x="63.476562"/>
     </g>
    </g>
    <g id="line2d_16">
     <path d="M 66.6 69.248562 
L 76.6 69.248562 
L 86.6 69.248562 
" style="fill: none; stroke: #ff7f0e; stroke-width: 1.5; stroke-linecap: square"/>
    </g>
    <g id="text_16">
     <!-- Trotter -->
     <g transform="translate(94.6 72.748562) scale(0.1 -0.1)">
      <defs>
       <path id="DejaVuSans-54" d="M -19 4666 
L 3928 4666 
L 3928 4134 
L 2272 4134 
L 2272 0 
L 1638 0 
L 1638 4134 
L -19 4134 
L -19 4666 
z
" transform="scale(0.015625)"/>
       <path id="DejaVuSans-72" d="M 2631 2963 
Q 2534 3019 2420 3045 
Q 2306 3072 2169 3072 
Q 1681 3072 1420 2755 
Q 1159 2438 1159 1844 
L 1159 0 
L 581 0 
L 581 3500 
L 1159 3500 
L 1159 2956 
Q 1341 3275 1631 3429 
Q 1922 3584 2338 3584 
Q 2397 3584 2469 3576 
Q 2541 3569 2628 3553 
L 2631 2963 
z
" transform="scale(0.015625)"/>
       <path id="DejaVuSans-6f" d="M 1959 3097 
Q 1497 3097 1228 2736 
Q 959 2375 959 1747 
Q 959 1119 1226 758 
Q 1494 397 1959 397 
Q 2419 397 2687 759 
Q 2956 1122 2956 1747 
Q 2956 2369 2687 2733 
Q 2419 3097 1959 3097 
z
M 1959 3584 
Q 2709 3584 3137 3096 
Q 3566 2609 3566 1747 
Q 3566 888 3137 398 
Q 2709 -91 1959 -91 
Q 1206 -91 779 398 
Q 353 888 353 1747 
Q 353 2609 779 3096 
Q 1206 3584 1959 3584 
z
" transform="scale(0.015625)"/>
       <path id="DejaVuSans-65" d="M 3597 1894 
L 3597 1613 
L 953 1613 
Q 991 1019 1311 708 
Q 1631 397 2203 397 
Q 2534 397 2845 478 
Q 3156 559 3463 722 
L 3463 178 
Q 3153 47 2828 -22 
Q 2503 -91 2169 -91 
Q 1331 -91 842 396 
Q 353 884 353 1716 
Q 353 2575 817 3079 
Q 1281 3584 2069 3584 
Q 2775 3584 3186 3129 
Q 3597 2675 3597 1894 
z
M 3022 2063 
Q 3016 2534 2758 2815 
Q 2500 3097 2075 3097 
Q 1594 3097 1305 2825 
Q 1016 2553 972 2059 
L 3022 2063 
z
" transform="scale(0.015625)"/>
      </defs>
      <use xlink:href="#DejaVuSans-54"/>
      <use xlink:href="#DejaVuSans-72" x="46.333984"/>
      <use xlink:href="#DejaVuSans-6f" x="85.197266"/>
      <use xlink:href="#DejaVuSans-74" x="146.378906"/>
      <use xlink:href="#DejaVuSans-74" x="185.587891"/>
      <use xlink:href="#DejaVuSans-65" x="224.796875"/>
      <use xlink:href="#DejaVuSans-72" x="286.320312"/>
     </g>
    </g>
   </g>
  </g>
 </g>
 <defs>
  <clipPath id="p2d414bdb93">
   <rect x="57.6" y="41.472" width="357.12" height="266.112"/>
  </clipPath>
 </defs>
</svg>
