<?xml version="1.0" encoding="utf-8" standalone="no"?>
<!DOCTYPE svg PUBLIC "-//W3C//DTD SVG 1.1//EN"
  "http://www.w3.org/Graphics/SVG/1.1/DTD/svg11.dtd">
<svg xmlns:xlink="http://www.w3.org/1999/xlink" width="460.8pt" height="345.6pt" viewBox="0 0 460.8 345.6" xmlns="http://www.w3.org/2000/svg" version="1.1">
 <metadata>
  <rdf:RDF xmlns:dc="http://purl.org/dc/elements/1.1/" xmlns:cc="http://creativecommons.org/ns#" xmlns:rdf="http://www.w3.org/1999/02/22-rdf-syntax-ns#">
   <cc:Work>
    <dc:type rdf:resource="http://purl.org/dc/dcmitype/StillImage"/>
    <dc:date>2024-07-12T14:10:49.406294</dc:date>
    <dc:format>image/svg+xml</dc:format>
    <dc:creator>
     <cc:Agent>
      <dc:title>Matplotlib v3.7.1, https://matplotlib.org/</dc:title>
     </cc:Agent>
    </dc:creator>
   </cc:Work>
  </rdf:RDF>
 </metadata>
 <defs>
  <style type="text/css">*{stroke-linejoin: round; stroke-linecap: butt}</style>
 </defs>
 <g id="figure_1">
  <g id="patch_1">
   <path d="M 0 345.6 
L 460.8 345.6 
L 460.8 0 
L 0 0 
z
" style="fill: #ffffff"/>
  </g>
  <g id="axes_1">
   <g id="patch_2">
    <path d="M 57.6 307.584 
L 414.72 307.584 
L 414.72 41.472 
L 57.6 41.472 
z
" style="fill: #ffffff"/>
   </g>
   <g id="matplotlib.axis_1">
    <g id="xtick_1">
     <g id="line2d_1">
      <defs>
       <path id="m08254828db" d="M 0 0 
L 0 3.5 
" style="stroke: #000000; stroke-width: 0.8"/>
      </defs>
      <g>
       <use xlink:href="#m08254828db" x="73.832727" y="307.584" style="stroke: #000000; stroke-width: 0.8"/>
      </g>
     </g>
     <g id="text_1">
      <!-- 0 -->
      <g transform="translate(70.651477 322.182437) scale(0.1 -0.1)">
       <defs>
        <path id="DejaVuSans-30" d="M 2034 4250 
Q 1547 4250 1301 3770 
Q 1056 3291 1056 2328 
Q 1056 1369 1301 889 
Q 1547 409 2034 409 
Q 2525 409 2770 889 
Q 3016 1369 3016 2328 
Q 3016 3291 2770 3770 
Q 2525 4250 2034 4250 
z
M 2034 4750 
Q 2819 4750 3233 4129 
Q 3647 3509 3647 2328 
Q 3647 1150 3233 529 
Q 2819 -91 2034 -91 
Q 1250 -91 836 529 
Q 422 1150 422 2328 
Q 422 3509 836 4129 
Q 1250 4750 2034 4750 
z
" transform="scale(0.015625)"/>
       </defs>
       <use xlink:href="#DejaVuSans-30"/>
      </g>
     </g>
    </g>
    <g id="xtick_2">
     <g id="line2d_2">
      <g>
       <use xlink:href="#m08254828db" x="137.303802" y="307.584" style="stroke: #000000; stroke-width: 0.8"/>
      </g>
     </g>
     <g id="text_2">
      <!-- 200 -->
      <g transform="translate(127.760052 322.182437) scale(0.1 -0.1)">
       <defs>
        <path id="DejaVuSans-32" d="M 1228 531 
L 3431 531 
L 3431 0 
L 469 0 
L 469 531 
Q 828 903 1448 1529 
Q 2069 2156 2228 2338 
Q 2531 2678 2651 2914 
Q 2772 3150 2772 3378 
Q 2772 3750 2511 3984 
Q 2250 4219 1831 4219 
Q 1534 4219 1204 4116 
Q 875 4013 500 3803 
L 500 4441 
Q 881 4594 1212 4672 
Q 1544 4750 1819 4750 
Q 2544 4750 2975 4387 
Q 3406 4025 3406 3419 
Q 3406 3131 3298 2873 
Q 3191 2616 2906 2266 
Q 2828 2175 2409 1742 
Q 1991 1309 1228 531 
z
" transform="scale(0.015625)"/>
       </defs>
       <use xlink:href="#DejaVuSans-32"/>
       <use xlink:href="#DejaVuSans-30" x="63.623047"/>
       <use xlink:href="#DejaVuSans-30" x="127.246094"/>
      </g>
     </g>
    </g>
    <g id="xtick_3">
     <g id="line2d_3">
      <g>
       <use xlink:href="#m08254828db" x="200.774876" y="307.584" style="stroke: #000000; stroke-width: 0.8"/>
      </g>
     </g>
     <g id="text_3">
      <!-- 400 -->
      <g transform="translate(191.231126 322.182437) scale(0.1 -0.1)">
       <defs>
        <path id="DejaVuSans-34" d="M 2419 4116 
L 825 1625 
L 2419 1625 
L 2419 4116 
z
M 2253 4666 
L 3047 4666 
L 3047 1625 
L 3713 1625 
L 3713 1100 
L 3047 1100 
L 3047 0 
L 2419 0 
L 2419 1100 
L 313 1100 
L 313 1709 
L 2253 4666 
z
" transform="scale(0.015625)"/>
       </defs>
       <use xlink:href="#DejaVuSans-34"/>
       <use xlink:href="#DejaVuSans-30" x="63.623047"/>
       <use xlink:href="#DejaVuSans-30" x="127.246094"/>
      </g>
     </g>
    </g>
    <g id="xtick_4">
     <g id="line2d_4">
      <g>
       <use xlink:href="#m08254828db" x="264.24595" y="307.584" style="stroke: #000000; stroke-width: 0.8"/>
      </g>
     </g>
     <g id="text_4">
      <!-- 600 -->
      <g transform="translate(254.7022 322.182437) scale(0.1 -0.1)">
       <defs>
        <path id="DejaVuSans-36" d="M 2113 2584 
Q 1688 2584 1439 2293 
Q 1191 2003 1191 1497 
Q 1191 994 1439 701 
Q 1688 409 2113 409 
Q 2538 409 2786 701 
Q 3034 994 3034 1497 
Q 3034 2003 2786 2293 
Q 2538 2584 2113 2584 
z
M 3366 4563 
L 3366 3988 
Q 3128 4100 2886 4159 
Q 2644 4219 2406 4219 
Q 1781 4219 1451 3797 
Q 1122 3375 1075 2522 
Q 1259 2794 1537 2939 
Q 1816 3084 2150 3084 
Q 2853 3084 3261 2657 
Q 3669 2231 3669 1497 
Q 3669 778 3244 343 
Q 2819 -91 2113 -91 
Q 1303 -91 875 529 
Q 447 1150 447 2328 
Q 447 3434 972 4092 
Q 1497 4750 2381 4750 
Q 2619 4750 2861 4703 
Q 3103 4656 3366 4563 
z
" transform="scale(0.015625)"/>
       </defs>
       <use xlink:href="#DejaVuSans-36"/>
       <use xlink:href="#DejaVuSans-30" x="63.623047"/>
       <use xlink:href="#DejaVuSans-30" x="127.246094"/>
      </g>
     </g>
    </g>
    <g id="xtick_5">
     <g id="line2d_5">
      <g>
       <use xlink:href="#m08254828db" x="327.717025" y="307.584" style="stroke: #000000; stroke-width: 0.8"/>
      </g>
     </g>
     <g id="text_5">
      <!-- 800 -->
      <g transform="translate(318.173275 322.182437) scale(0.1 -0.1)">
       <defs>
        <path id="DejaVuSans-38" d="M 2034 2216 
Q 1584 2216 1326 1975 
Q 1069 1734 1069 1313 
Q 1069 891 1326 650 
Q 1584 409 2034 409 
Q 2484 409 2743 651 
Q 3003 894 3003 1313 
Q 3003 1734 2745 1975 
Q 2488 2216 2034 2216 
z
M 1403 2484 
Q 997 2584 770 2862 
Q 544 3141 544 3541 
Q 544 4100 942 4425 
Q 1341 4750 2034 4750 
Q 2731 4750 3128 4425 
Q 3525 4100 3525 3541 
Q 3525 3141 3298 2862 
Q 3072 2584 2669 2484 
Q 3125 2378 3379 2068 
Q 3634 1759 3634 1313 
Q 3634 634 3220 271 
Q 2806 -91 2034 -91 
Q 1263 -91 848 271 
Q 434 634 434 1313 
Q 434 1759 690 2068 
Q 947 2378 1403 2484 
z
M 1172 3481 
Q 1172 3119 1398 2916 
Q 1625 2713 2034 2713 
Q 2441 2713 2670 2916 
Q 2900 3119 2900 3481 
Q 2900 3844 2670 4047 
Q 2441 4250 2034 4250 
Q 1625 4250 1398 4047 
Q 1172 3844 1172 3481 
z
" transform="scale(0.015625)"/>
       </defs>
       <use xlink:href="#DejaVuSans-38"/>
       <use xlink:href="#DejaVuSans-30" x="63.623047"/>
       <use xlink:href="#DejaVuSans-30" x="127.246094"/>
      </g>
     </g>
    </g>
    <g id="xtick_6">
     <g id="line2d_6">
      <g>
       <use xlink:href="#m08254828db" x="391.188099" y="307.584" style="stroke: #000000; stroke-width: 0.8"/>
      </g>
     </g>
     <g id="text_6">
      <!-- 1000 -->
      <g transform="translate(378.463099 322.182437) scale(0.1 -0.1)">
       <defs>
        <path id="DejaVuSans-31" d="M 794 531 
L 1825 531 
L 1825 4091 
L 703 3866 
L 703 4441 
L 1819 4666 
L 2450 4666 
L 2450 531 
L 3481 531 
L 3481 0 
L 794 0 
L 794 531 
z
" transform="scale(0.015625)"/>
       </defs>
       <use xlink:href="#DejaVuSans-31"/>
       <use xlink:href="#DejaVuSans-30" x="63.623047"/>
       <use xlink:href="#DejaVuSans-30" x="127.246094"/>
       <use xlink:href="#DejaVuSans-30" x="190.869141"/>
      </g>
     </g>
    </g>
    <g id="text_7">
     <!-- n -->
     <g transform="translate(232.99125 335.860562) scale(0.1 -0.1)">
      <defs>
       <path id="DejaVuSans-6e" d="M 3513 2113 
L 3513 0 
L 2938 0 
L 2938 2094 
Q 2938 2591 2744 2837 
Q 2550 3084 2163 3084 
Q 1697 3084 1428 2787 
Q 1159 2491 1159 1978 
L 1159 0 
L 581 0 
L 581 3500 
L 1159 3500 
L 1159 2956 
Q 1366 3272 1645 3428 
Q 1925 3584 2291 3584 
Q 2894 3584 3203 3211 
Q 3513 2838 3513 2113 
z
" transform="scale(0.015625)"/>
      </defs>
      <use xlink:href="#DejaVuSans-6e"/>
     </g>
    </g>
   </g>
   <g id="matplotlib.axis_2">
    <g id="ytick_1">
     <g id="line2d_7">
      <defs>
       <path id="mc6a101821f" d="M 0 0 
L -3.5 0 
" style="stroke: #000000; stroke-width: 0.8"/>
      </defs>
      <g>
       <use xlink:href="#mc6a101821f" x="57.6" y="306.905861" style="stroke: #000000; stroke-width: 0.8"/>
      </g>
     </g>
     <g id="text_8">
      <!-- −1.5 -->
      <g transform="translate(26.317187 310.70508) scale(0.1 -0.1)">
       <defs>
        <path id="DejaVuSans-2212" d="M 678 2272 
L 4684 2272 
L 4684 1741 
L 678 1741 
L 678 2272 
z
" transform="scale(0.015625)"/>
        <path id="DejaVuSans-2e" d="M 684 794 
L 1344 794 
L 1344 0 
L 684 0 
L 684 794 
z
" transform="scale(0.015625)"/>
        <path id="DejaVuSans-35" d="M 691 4666 
L 3169 4666 
L 3169 4134 
L 1269 4134 
L 1269 2991 
Q 1406 3038 1543 3061 
Q 1681 3084 1819 3084 
Q 2600 3084 3056 2656 
Q 3513 2228 3513 1497 
Q 3513 744 3044 326 
Q 2575 -91 1722 -91 
Q 1428 -91 1123 -41 
Q 819 9 494 109 
L 494 744 
Q 775 591 1075 516 
Q 1375 441 1709 441 
Q 2250 441 2565 725 
Q 2881 1009 2881 1497 
Q 2881 1984 2565 2268 
Q 2250 2553 1709 2553 
Q 1456 2553 1204 2497 
Q 953 2441 691 2322 
L 691 4666 
z
" transform="scale(0.015625)"/>
       </defs>
       <use xlink:href="#DejaVuSans-2212"/>
       <use xlink:href="#DejaVuSans-31" x="83.789062"/>
       <use xlink:href="#DejaVuSans-2e" x="147.412109"/>
       <use xlink:href="#DejaVuSans-35" x="179.199219"/>
      </g>
     </g>
    </g>
    <g id="ytick_2">
     <g id="line2d_8">
      <g>
       <use xlink:href="#mc6a101821f" x="57.6" y="259.527234" style="stroke: #000000; stroke-width: 0.8"/>
      </g>
     </g>
     <g id="text_9">
      <!-- −1.0 -->
      <g transform="translate(26.317187 263.326453) scale(0.1 -0.1)">
       <use xlink:href="#DejaVuSans-2212"/>
       <use xlink:href="#DejaVuSans-31" x="83.789062"/>
       <use xlink:href="#DejaVuSans-2e" x="147.412109"/>
       <use xlink:href="#DejaVuSans-30" x="179.199219"/>
      </g>
     </g>
    </g>
    <g id="ytick_3">
     <g id="line2d_9">
      <g>
       <use xlink:href="#mc6a101821f" x="57.6" y="212.148607" style="stroke: #000000; stroke-width: 0.8"/>
      </g>
     </g>
     <g id="text_10">
      <!-- −0.5 -->
      <g transform="translate(26.317187 215.947826) scale(0.1 -0.1)">
       <use xlink:href="#DejaVuSans-2212"/>
       <use xlink:href="#DejaVuSans-30" x="83.789062"/>
       <use xlink:href="#DejaVuSans-2e" x="147.412109"/>
       <use xlink:href="#DejaVuSans-35" x="179.199219"/>
      </g>
     </g>
    </g>
    <g id="ytick_4">
     <g id="line2d_10">
      <g>
       <use xlink:href="#mc6a101821f" x="57.6" y="164.76998" style="stroke: #000000; stroke-width: 0.8"/>
      </g>
     </g>
     <g id="text_11">
      <!-- 0.0 -->
      <g transform="translate(34.696875 168.569199) scale(0.1 -0.1)">
       <use xlink:href="#DejaVuSans-30"/>
       <use xlink:href="#DejaVuSans-2e" x="63.623047"/>
       <use xlink:href="#DejaVuSans-30" x="95.410156"/>
      </g>
     </g>
    </g>
    <g id="ytick_5">
     <g id="line2d_11">
      <g>
       <use xlink:href="#mc6a101821f" x="57.6" y="117.391353" style="stroke: #000000; stroke-width: 0.8"/>
      </g>
     </g>
     <g id="text_12">
      <!-- 0.5 -->
      <g transform="translate(34.696875 121.190572) scale(0.1 -0.1)">
       <use xlink:href="#DejaVuSans-30"/>
       <use xlink:href="#DejaVuSans-2e" x="63.623047"/>
       <use xlink:href="#DejaVuSans-35" x="95.410156"/>
      </g>
     </g>
    </g>
    <g id="ytick_6">
     <g id="line2d_12">
      <g>
       <use xlink:href="#mc6a101821f" x="57.6" y="70.012727" style="stroke: #000000; stroke-width: 0.8"/>
      </g>
     </g>
     <g id="text_13">
      <!-- 1.0 -->
      <g transform="translate(34.696875 73.811945) scale(0.1 -0.1)">
       <use xlink:href="#DejaVuSans-31"/>
       <use xlink:href="#DejaVuSans-2e" x="63.623047"/>
       <use xlink:href="#DejaVuSans-30" x="95.410156"/>
      </g>
     </g>
    </g>
    <g id="text_14">
     <!-- E*t -->
     <g transform="translate(20.2375 182.147531) rotate(-90) scale(0.1 -0.1)">
      <defs>
       <path id="DejaVuSans-45" d="M 628 4666 
L 3578 4666 
L 3578 4134 
L 1259 4134 
L 1259 2753 
L 3481 2753 
L 3481 2222 
L 1259 2222 
L 1259 531 
L 3634 531 
L 3634 0 
L 628 0 
L 628 4666 
z
" transform="scale(0.015625)"/>
       <path id="DejaVuSans-2a" d="M 3009 3897 
L 1888 3291 
L 3009 2681 
L 2828 2375 
L 1778 3009 
L 1778 1831 
L 1422 1831 
L 1422 3009 
L 372 2375 
L 191 2681 
L 1313 3291 
L 191 3897 
L 372 4206 
L 1422 3572 
L 1422 4750 
L 1778 4750 
L 1778 3572 
L 2828 4206 
L 3009 3897 
z
" transform="scale(0.015625)"/>
       <path id="DejaVuSans-74" d="M 1172 4494 
L 1172 3500 
L 2356 3500 
L 2356 3053 
L 1172 3053 
L 1172 1153 
Q 1172 725 1289 603 
Q 1406 481 1766 481 
L 2356 481 
L 2356 0 
L 1766 0 
Q 1100 0 847 248 
Q 594 497 594 1153 
L 594 3053 
L 172 3053 
L 172 3500 
L 594 3500 
L 594 4494 
L 1172 4494 
z
" transform="scale(0.015625)"/>
      </defs>
      <use xlink:href="#DejaVuSans-45"/>
      <use xlink:href="#DejaVuSans-2a" x="63.183594"/>
      <use xlink:href="#DejaVuSans-74" x="113.183594"/>
     </g>
    </g>
   </g>
   <g id="line2d_13">
    <path d="M 73.832727 295.488 
L 74.150083 291.301762 
L 74.467438 282.590033 
L 74.784793 281.485738 
L 75.102149 278.403931 
L 75.419504 277.299499 
L 75.73686 270.804627 
L 76.37157 268.587663 
L 76.688926 266.672458 
L 77.640992 263.463586 
L 77.958347 259.120385 
L 78.275702 258.328335 
L 78.593058 256.98145 
L 79.227769 256.802364 
L 79.545124 256.033935 
L 80.179835 255.547468 
L 80.814545 254.142232 
L 81.131901 252.670195 
L 81.449256 251.848025 
L 82.083967 251.401059 
L 82.401322 250.628812 
L 82.718678 250.314914 
L 83.036033 250.279263 
L 83.353388 249.461323 
L 83.670744 249.40708 
L 84.305455 247.956895 
L 84.62281 247.739567 
L 84.940165 246.037201 
L 85.257521 245.221068 
L 86.209587 245.091686 
L 86.526942 244.551598 
L 87.161653 244.056769 
L 88.431074 242.979188 
L 88.74843 242.92887 
L 89.065785 242.053151 
L 89.700496 241.671496 
L 90.017851 241.545172 
L 90.335207 240.959474 
L 90.652562 240.943061 
L 90.969917 240.172556 
L 91.287273 239.098317 
L 91.921983 237.867227 
L 93.191405 237.398777 
L 93.826116 236.626442 
L 94.143471 236.312604 
L 94.460826 236.276941 
L 95.095537 234.843083 
L 96.047603 234.754879 
L 96.364959 233.954619 
L 96.682314 232.489484 
L 96.999669 232.456723 
L 97.317025 232.034831 
L 97.63438 231.268658 
L 98.903802 231.151486 
L 99.538512 230.656981 
L 100.490579 230.568641 
L 101.125289 230.054401 
L 101.442645 229.981106 
L 101.76 229.784921 
L 102.712066 228.317327 
L 103.029421 228.270484 
L 103.346777 227.811346 
L 103.664132 227.789708 
L 103.981488 227.019273 
L 104.616198 226.358093 
L 105.250909 225.141147 
L 105.568264 225.096032 
L 105.88562 224.757803 
L 106.202975 224.739347 
L 106.837686 224.526214 
L 107.472397 223.810299 
L 110.01124 222.438974 
L 110.328595 222.236903 
L 110.64595 222.17414 
L 111.280661 220.966874 
L 112.550083 220.581106 
L 113.184793 219.785496 
L 113.502149 219.5837 
L 113.819504 218.924025 
L 114.13686 218.629611 
L 114.77157 218.507385 
L 115.406281 218.015563 
L 115.723636 217.994649 
L 116.358347 217.475343 
L 116.993058 217.328452 
L 117.627769 217.122961 
L 119.214545 216.605312 
L 119.531901 216.58758 
L 120.166612 215.978823 
L 120.483967 215.96121 
L 120.801322 215.715153 
L 121.118678 215.653894 
L 121.436033 215.397599 
L 121.753388 214.490796 
L 123.340165 213.684786 
L 123.657521 213.426483 
L 123.974876 212.981923 
L 124.609587 212.787112 
L 124.926942 212.389059 
L 125.244298 212.344065 
L 125.561653 211.909313 
L 125.879008 211.767238 
L 126.196364 211.373421 
L 128.417851 210.643271 
L 128.735207 210.267898 
L 130.004628 209.925937 
L 130.639339 209.656284 
L 131.27405 209.498548 
L 131.591405 209.303622 
L 132.860826 209.013158 
L 133.495537 208.620333 
L 133.812893 208.241282 
L 134.130248 208.22875 
L 134.764959 207.915256 
L 135.717025 207.527284 
L 136.03438 207.198466 
L 136.351736 207.189307 
L 136.986446 206.926593 
L 137.303802 206.924119 
L 138.255868 205.93981 
L 139.207934 205.474126 
L 139.525289 204.781464 
L 139.842645 204.619132 
L 140.16 204.598545 
L 140.794711 204.350168 
L 141.112066 204.262715 
L 141.429421 204.059481 
L 141.746777 204.00893 
L 142.381488 203.733251 
L 143.333554 203.641348 
L 143.968264 203.473625 
L 144.602975 203.343242 
L 145.555041 203.114676 
L 146.189752 203.003085 
L 147.141818 202.730528 
L 148.41124 202.531572 
L 148.728595 202.18912 
L 149.998017 201.651614 
L 150.315372 201.611267 
L 150.632727 201.324866 
L 150.950083 201.299181 
L 151.267438 201.140208 
L 151.584793 200.595226 
L 152.219504 200.432315 
L 152.854215 200.208934 
L 153.17157 199.487461 
L 154.440992 198.957586 
L 154.758347 198.568562 
L 156.345124 198.132684 
L 157.29719 197.634372 
L 158.566612 197.335576 
L 159.201322 197.005086 
L 159.518678 196.982636 
L 160.470744 196.639765 
L 162.057521 196.248816 
L 163.961653 195.835262 
L 165.231074 195.393881 
L 165.54843 195.126701 
L 166.500496 194.87056 
L 167.135207 194.655024 
L 167.769917 194.309965 
L 168.087273 194.229261 
L 168.404628 194.000473 
L 169.039339 193.899865 
L 169.356694 193.445085 
L 169.67405 193.305165 
L 169.991405 192.54316 
L 170.30876 192.380038 
L 170.626116 191.986429 
L 171.895537 191.883629 
L 172.212893 191.710605 
L 172.530248 191.704234 
L 175.069091 190.666373 
L 176.973223 190.323277 
L 177.290579 190.08897 
L 177.607934 190.060567 
L 178.56 189.564319 
L 179.829421 189.230348 
L 180.464132 189.119072 
L 181.416198 188.749391 
L 182.368264 187.800328 
L 183.320331 187.606778 
L 183.637686 187.300276 
L 184.907107 187.185768 
L 185.224463 186.917727 
L 185.541818 186.445472 
L 186.176529 186.336722 
L 186.493884 186.175743 
L 186.81124 185.841587 
L 187.128595 185.754207 
L 187.44595 185.473693 
L 188.715372 185.127286 
L 190.302149 184.869885 
L 190.619504 184.616304 
L 190.93686 184.529043 
L 191.254215 184.309613 
L 191.57157 184.259584 
L 191.888926 183.900697 
L 192.523636 183.648283 
L 193.158347 183.304988 
L 194.427769 183.019646 
L 194.745124 182.805429 
L 195.69719 182.53617 
L 196.331901 182.267181 
L 198.236033 182.150499 
L 199.82281 181.457183 
L 201.092231 181.006664 
L 202.044298 180.878449 
L 202.679008 180.529364 
L 202.996364 180.354319 
L 203.631074 180.224162 
L 204.900496 179.64638 
L 205.217851 179.143918 
L 206.487273 178.94919 
L 206.804628 178.613109 
L 207.121983 178.603318 
L 207.756694 178.187796 
L 210.295537 177.57647 
L 210.930248 177.140671 
L 211.247603 176.926787 
L 211.564959 176.853331 
L 211.882314 176.665251 
L 212.517025 176.538715 
L 213.151736 176.088106 
L 214.421157 175.93152 
L 214.738512 175.891038 
L 215.373223 175.679364 
L 216.642645 175.557685 
L 217.277355 175.49949 
L 217.594711 175.215129 
L 218.546777 175.123895 
L 219.181488 174.816195 
L 219.816198 174.63817 
L 220.133554 174.358543 
L 220.450909 174.302242 
L 220.768264 174.038297 
L 221.720331 173.897221 
L 222.672397 173.81339 
L 223.941818 173.321549 
L 224.259174 172.989818 
L 224.576529 172.965564 
L 225.21124 172.569238 
L 225.528595 172.56815 
L 225.84595 172.40107 
L 226.163306 171.741797 
L 226.480661 171.473403 
L 226.798017 171.44516 
L 227.115372 171.209765 
L 227.750083 171.136415 
L 228.067438 171.007101 
L 228.384793 170.713909 
L 229.33686 170.622479 
L 229.97157 170.251679 
L 231.240992 169.888006 
L 232.827769 169.774049 
L 233.779835 169.593103 
L 234.731901 169.410846 
L 236.636033 169.028775 
L 237.270744 168.811894 
L 237.905455 168.728807 
L 238.857521 168.516577 
L 239.809587 168.34611 
L 240.126942 168.214969 
L 240.444298 167.905874 
L 240.761653 167.408018 
L 242.031074 166.959314 
L 242.34843 166.950193 
L 242.665785 166.623345 
L 242.98314 166.494264 
L 243.935207 166.435657 
L 244.569917 166.224619 
L 244.887273 166.107409 
L 245.521983 165.715307 
L 246.156694 165.525721 
L 246.47405 165.236299 
L 247.743471 164.925218 
L 248.378182 164.669027 
L 249.012893 164.564273 
L 252.186446 163.938543 
L 252.503802 163.64813 
L 253.138512 163.397598 
L 253.773223 163.248416 
L 257.581488 162.394852 
L 257.898843 162.076162 
L 258.533554 161.928198 
L 259.168264 161.831378 
L 259.48562 161.494276 
L 260.120331 161.351904 
L 261.389752 161.265117 
L 261.707107 160.869682 
L 262.024463 160.778719 
L 262.341818 160.518265 
L 262.659174 160.509878 
L 262.976529 160.312249 
L 263.61124 160.241231 
L 263.928595 160.025199 
L 264.880661 159.812494 
L 266.784793 159.056354 
L 267.102149 159.052744 
L 267.419504 158.65382 
L 268.054215 158.535637 
L 268.688926 158.515868 
L 269.640992 157.894961 
L 270.593058 157.534182 
L 271.227769 157.51678 
L 271.545124 157.288627 
L 273.131901 157.180379 
L 273.449256 156.987107 
L 274.401322 156.73965 
L 275.036033 156.443266 
L 276.305455 156.095638 
L 277.257521 155.819324 
L 277.892231 155.714698 
L 278.526942 155.422201 
L 279.161653 155.258654 
L 285.191405 154.05823 
L 285.50876 153.837208 
L 286.143471 153.723891 
L 288.999669 152.649874 
L 289.63438 152.611231 
L 289.951736 151.983286 
L 290.269091 151.680394 
L 291.538512 151.481105 
L 291.855868 151.033371 
L 292.173223 150.920142 
L 292.490579 150.613545 
L 292.807934 150.551837 
L 293.442645 150.259303 
L 294.077355 150.134182 
L 294.394711 149.642053 
L 296.298843 149.400515 
L 297.250909 149.205489 
L 297.568264 148.936355 
L 297.88562 148.931254 
L 298.202975 148.782928 
L 299.155041 148.686935 
L 300.424463 148.372926 
L 301.693884 148.120734 
L 302.01124 147.925142 
L 303.915372 147.63747 
L 304.232727 147.422256 
L 304.867438 147.232976 
L 305.184793 147.147711 
L 305.819504 146.755006 
L 307.406281 146.346611 
L 308.358347 146.027358 
L 308.993058 145.923295 
L 309.310413 145.705413 
L 309.627769 145.349066 
L 310.262479 145.266089 
L 310.89719 144.862543 
L 311.531901 144.756308 
L 312.166612 144.438721 
L 312.483967 143.990976 
L 313.118678 143.601608 
L 313.436033 143.581496 
L 313.753388 143.142065 
L 314.388099 142.929618 
L 315.02281 142.91131 
L 316.609587 142.052777 
L 318.831074 141.650788 
L 319.14843 141.461506 
L 319.465785 141.461419 
L 320.100496 141.226731 
L 320.735207 141.191313 
L 321.687273 140.614588 
L 322.321983 140.553068 
L 322.956694 140.443839 
L 323.90876 140.389925 
L 324.543471 140.095478 
L 324.860826 140.000978 
L 325.178182 139.668286 
L 328.03438 138.967325 
L 328.351736 138.414107 
L 328.986446 137.775001 
L 329.303802 137.663604 
L 329.938512 136.927424 
L 330.255868 136.889715 
L 330.573223 136.506046 
L 332.16 136.115344 
L 332.477355 135.833607 
L 333.112066 135.723814 
L 333.429421 135.433617 
L 334.064132 135.338003 
L 334.381488 135.036945 
L 335.016198 135.012034 
L 336.28562 134.286988 
L 336.920331 134.079115 
L 337.872397 133.866132 
L 340.093884 133.4951 
L 340.41124 133.114336 
L 340.728595 133.047079 
L 341.04595 132.739387 
L 341.998017 132.61601 
L 342.950083 132.576582 
L 344.219504 131.477058 
L 344.854215 131.373018 
L 345.806281 130.835152 
L 346.440992 130.033336 
L 347.075702 129.865112 
L 347.393058 129.849994 
L 348.662479 129.082017 
L 348.979835 129.052953 
L 349.29719 128.805312 
L 349.614545 128.339811 
L 349.931901 128.085097 
L 350.883967 128.009005 
L 351.201322 127.207855 
L 352.788099 126.97434 
L 353.42281 126.758726 
L 354.374876 126.442606 
L 354.692231 126.033847 
L 356.596364 125.665555 
L 357.54843 124.948646 
L 357.865785 124.802877 
L 358.18314 124.379033 
L 358.500496 124.27634 
L 358.817851 123.896211 
L 359.769917 123.547232 
L 360.087273 122.968416 
L 361.67405 122.412095 
L 361.991405 122.34356 
L 362.30876 121.373864 
L 362.626116 121.368088 
L 364.212893 120.477632 
L 364.530248 120.186311 
L 365.164959 120.058067 
L 365.482314 119.990801 
L 366.117025 119.688206 
L 366.751736 119.454996 
L 367.069091 119.448878 
L 367.386446 119.260933 
L 367.703802 118.617669 
L 368.021157 118.308141 
L 368.338512 118.1725 
L 368.655868 117.814815 
L 368.973223 117.287134 
L 369.607934 116.927922 
L 369.925289 116.906374 
L 370.877355 116.265732 
L 371.512066 116.055665 
L 371.829421 114.542053 
L 372.464132 113.969056 
L 373.098843 113.836661 
L 373.416198 113.572152 
L 373.733554 113.13693 
L 375.320331 113.01295 
L 375.637686 112.08807 
L 375.955041 111.976803 
L 377.224463 110.41314 
L 377.859174 110.287063 
L 378.176529 109.863477 
L 378.81124 109.591548 
L 379.128595 108.439534 
L 380.398017 107.745399 
L 381.032727 107.377937 
L 381.667438 107.274562 
L 382.302149 106.440088 
L 382.93686 106.364707 
L 383.254215 105.731601 
L 383.57157 105.361359 
L 383.888926 104.528818 
L 384.206281 104.248145 
L 384.523636 103.638034 
L 384.840992 103.496579 
L 385.158347 101.771305 
L 386.745124 101.404117 
L 387.062479 100.872474 
L 387.379835 100.634225 
L 388.014545 99.853007 
L 388.331901 99.070519 
L 389.601322 97.528858 
L 389.918678 97.155251 
L 390.236033 95.763039 
L 391.82281 92.486178 
L 392.140165 92.429652 
L 392.774876 90.887829 
L 393.092231 89.12218 
L 393.409587 88.342031 
L 394.361653 87.685734 
L 395.313719 83.894698 
L 395.631074 81.344422 
L 396.265785 78.285261 
L 396.58314 74.758035 
L 396.900496 73.469796 
L 397.217851 73.169881 
L 397.535207 68.083853 
L 397.852562 66.828938 
L 398.487273 53.568 
L 398.487273 53.568 
" clip-path="url(#pc01e8344ea)" style="fill: none; stroke: #1f77b4; stroke-width: 1.5; stroke-linecap: square"/>
   </g>
   <g id="line2d_14">
    <path d="M 73.832727 188.991854 
L 74.150083 186.165422 
L 74.467438 186.165422 
L 74.784793 183.749398 
L 75.102149 183.247556 
L 75.73686 183.247556 
L 76.054215 182.343577 
L 76.37157 180.817536 
L 77.640992 180.487781 
L 78.910413 180.487781 
L 79.227769 179.626851 
L 79.545124 179.626851 
L 80.179835 179.122653 
L 80.49719 179.122653 
L 80.814545 178.170652 
L 81.131901 177.722537 
L 82.083967 177.714832 
L 82.401322 177.449618 
L 86.844298 177.43456 
L 87.161653 177.289342 
L 87.479008 176.599496 
L 88.431074 176.208179 
L 89.700496 176.208179 
L 90.017851 175.903041 
L 90.652562 175.903041 
L 90.969917 175.548578 
L 91.287273 175.548578 
L 91.604628 175.36393 
L 91.921983 174.888989 
L 99.221157 174.888989 
L 99.538512 174.605987 
L 101.76 174.539045 
L 102.077355 174.245706 
L 103.981488 174.179539 
L 104.616198 174.065162 
L 104.933554 174.065162 
L 105.250909 173.662887 
L 106.202975 173.642614 
L 106.520331 172.734745 
L 108.741818 172.435986 
L 109.376529 172.435986 
L 109.693884 171.977177 
L 110.01124 171.977177 
L 110.328595 171.470337 
L 129.369917 171.470316 
L 130.004628 171.016257 
L 130.639339 170.911411 
L 131.27405 170.894141 
L 131.591405 170.658527 
L 132.860826 170.604698 
L 133.178182 170.151126 
L 135.399669 170.056148 
L 135.717025 169.669351 
L 137.303802 169.507843 
L 163.009587 169.507843 
L 163.326942 169.106397 
L 167.769917 169.033031 
L 168.087273 168.53619 
L 168.404628 168.53619 
L 168.721983 168.403573 
L 169.67405 168.317994 
L 169.991405 168.113016 
L 171.895537 168.050939 
L 172.847603 167.907179 
L 180.781488 167.801642 
L 181.416198 167.698123 
L 182.68562 167.698123 
L 183.320331 166.732453 
L 186.493884 166.667758 
L 186.81124 166.583012 
L 187.128595 166.370645 
L 187.44595 166.370645 
L 187.763306 166.22681 
L 188.080661 166.22681 
L 188.398017 165.62634 
L 188.715372 164.76998 
L 283.604628 164.76998 
L 284.239339 163.31315 
L 284.556694 163.31315 
L 284.87405 163.169316 
L 285.191405 163.169316 
L 285.826116 162.872203 
L 288.999669 162.807507 
L 289.63438 161.841838 
L 291.855868 161.738318 
L 292.490579 161.632782 
L 300.107107 161.571468 
L 301.059174 161.426944 
L 302.328595 161.426944 
L 302.963306 161.136387 
L 303.598017 161.136387 
L 303.915372 161.003771 
L 304.232727 161.003771 
L 304.550083 160.50693 
L 308.993058 160.433564 
L 309.310413 160.032118 
L 336.28562 159.922767 
L 336.602975 159.87061 
L 336.920331 159.483812 
L 339.141818 159.388835 
L 339.459174 158.935263 
L 340.728595 158.881433 
L 341.04595 158.64582 
L 342.315372 158.523704 
L 343.267438 158.069645 
L 361.991405 158.069624 
L 362.30876 157.562784 
L 362.626116 157.562784 
L 362.943471 157.103975 
L 364.530248 157.103975 
L 364.847603 156.894919 
L 365.799669 156.805215 
L 366.117025 155.897347 
L 367.069091 155.877073 
L 367.386446 155.474798 
L 368.021157 155.474798 
L 368.655868 155.294255 
L 370.242645 155.294255 
L 370.56 155.000916 
L 372.781488 154.933974 
L 373.098843 154.650972 
L 380.398017 154.650972 
L 380.715372 154.17603 
L 381.032727 153.991383 
L 381.350083 153.991383 
L 381.667438 153.63692 
L 382.302149 153.63692 
L 382.619504 153.331782 
L 384.206281 153.331782 
L 384.840992 152.940465 
L 385.158347 152.250618 
L 385.475702 152.105401 
L 389.918678 152.090343 
L 390.236033 151.825129 
L 391.188099 151.817424 
L 391.505455 151.369309 
L 391.82281 150.417307 
L 392.140165 150.417307 
L 393.092231 149.91311 
L 393.409587 149.05218 
L 394.996364 149.05218 
L 395.313719 148.816052 
L 395.94843 148.722424 
L 396.265785 147.196383 
L 396.58314 146.292405 
L 397.217851 146.292405 
L 397.535207 145.790562 
L 397.852562 143.374539 
L 398.169917 143.374539 
L 398.487273 140.548107 
L 398.487273 140.548107 
" clip-path="url(#pc01e8344ea)" style="fill: none; stroke: #ff7f0e; stroke-width: 1.5; stroke-linecap: square"/>
   </g>
   <g id="patch_3">
    <path d="M 57.6 307.584 
L 57.6 41.472 
" style="fill: none; stroke: #000000; stroke-width: 0.8; stroke-linejoin: miter; stroke-linecap: square"/>
   </g>
   <g id="patch_4">
    <path d="M 414.72 307.584 
L 414.72 41.472 
" style="fill: none; stroke: #000000; stroke-width: 0.8; stroke-linejoin: miter; stroke-linecap: square"/>
   </g>
   <g id="patch_5">
    <path d="M 57.6 307.584 
L 414.72 307.584 
" style="fill: none; stroke: #000000; stroke-width: 0.8; stroke-linejoin: miter; stroke-linecap: square"/>
   </g>
   <g id="patch_6">
    <path d="M 57.6 41.472 
L 414.72 41.472 
" style="fill: none; stroke: #000000; stroke-width: 0.8; stroke-linejoin: miter; stroke-linecap: square"/>
   </g>
   <g id="legend_1">
    <g id="patch_7">
     <path d="M 64.6 78.82825 
L 129.342187 78.82825 
Q 131.342187 78.82825 131.342187 76.82825 
L 131.342187 48.472 
Q 131.342187 46.472 129.342187 46.472 
L 64.6 46.472 
Q 62.6 46.472 62.6 48.472 
L 62.6 76.82825 
Q 62.6 78.82825 64.6 78.82825 
z
" style="fill: #ffffff; opacity: 0.8; stroke: #cccccc; stroke-linejoin: miter"/>
    </g>
    <g id="line2d_15">
     <path d="M 66.6 54.570437 
L 76.6 54.570437 
L 86.6 54.570437 
" style="fill: none; stroke: #1f77b4; stroke-width: 1.5; stroke-linecap: square"/>
    </g>
    <g id="text_15">
     <!-- qc -->
     <g transform="translate(94.6 58.070437) scale(0.1 -0.1)">
      <defs>
       <path id="DejaVuSans-71" d="M 947 1747 
Q 947 1113 1208 752 
Q 1469 391 1925 391 
Q 2381 391 2643 752 
Q 2906 1113 2906 1747 
Q 2906 2381 2643 2742 
Q 2381 3103 1925 3103 
Q 1469 3103 1208 2742 
Q 947 2381 947 1747 
z
M 2906 525 
Q 2725 213 2448 61 
Q 2172 -91 1784 -91 
Q 1150 -91 751 415 
Q 353 922 353 1747 
Q 353 2572 751 3078 
Q 1150 3584 1784 3584 
Q 2172 3584 2448 3432 
Q 2725 3281 2906 2969 
L 2906 3500 
L 3481 3500 
L 3481 -1331 
L 2906 -1331 
L 2906 525 
z
" transform="scale(0.015625)"/>
       <path id="DejaVuSans-63" d="M 3122 3366 
L 3122 2828 
Q 2878 2963 2633 3030 
Q 2388 3097 2138 3097 
Q 1578 3097 1268 2742 
Q 959 2388 959 1747 
Q 959 1106 1268 751 
Q 1578 397 2138 397 
Q 2388 397 2633 464 
Q 2878 531 3122 666 
L 3122 134 
Q 2881 22 2623 -34 
Q 2366 -91 2075 -91 
Q 1284 -91 818 406 
Q 353 903 353 1747 
Q 353 2603 823 3093 
Q 1294 3584 2113 3584 
Q 2378 3584 2631 3529 
Q 2884 3475 3122 3366 
z
" transform="scale(0.015625)"/>
      </defs>
      <use xlink:href="#DejaVuSans-71"/>
      <use xlink:href="#DejaVuSans-63" x="63.476562"/>
     </g>
    </g>
    <g id="line2d_16">
     <path d="M 66.6 69.248562 
L 76.6 69.248562 
L 86.6 69.248562 
" style="fill: none; stroke: #ff7f0e; stroke-width: 1.5; stroke-linecap: square"/>
    </g>
    <g id="text_16">
     <!-- Trotter -->
     <g transform="translate(94.6 72.748562) scale(0.1 -0.1)">
      <defs>
       <path id="DejaVuSans-54" d="M -19 4666 
L 3928 4666 
L 3928 4134 
L 2272 4134 
L 2272 0 
L 1638 0 
L 1638 4134 
L -19 4134 
L -19 4666 
z
" transform="scale(0.015625)"/>
       <path id="DejaVuSans-72" d="M 2631 2963 
Q 2534 3019 2420 3045 
Q 2306 3072 2169 3072 
Q 1681 3072 1420 2755 
Q 1159 2438 1159 1844 
L 1159 0 
L 581 0 
L 581 3500 
L 1159 3500 
L 1159 2956 
Q 1341 3275 1631 3429 
Q 1922 3584 2338 3584 
Q 2397 3584 2469 3576 
Q 2541 3569 2628 3553 
L 2631 2963 
z
" transform="scale(0.015625)"/>
       <path id="DejaVuSans-6f" d="M 1959 3097 
Q 1497 3097 1228 2736 
Q 959 2375 959 1747 
Q 959 1119 1226 758 
Q 1494 397 1959 397 
Q 2419 397 2687 759 
Q 2956 1122 2956 1747 
Q 2956 2369 2687 2733 
Q 2419 3097 1959 3097 
z
M 1959 3584 
Q 2709 3584 3137 3096 
Q 3566 2609 3566 1747 
Q 3566 888 3137 398 
Q 2709 -91 1959 -91 
Q 1206 -91 779 398 
Q 353 888 353 1747 
Q 353 2609 779 3096 
Q 1206 3584 1959 3584 
z
" transform="scale(0.015625)"/>
       <path id="DejaVuSans-65" d="M 3597 1894 
L 3597 1613 
L 953 1613 
Q 991 1019 1311 708 
Q 1631 397 2203 397 
Q 2534 397 2845 478 
Q 3156 559 3463 722 
L 3463 178 
Q 3153 47 2828 -22 
Q 2503 -91 2169 -91 
Q 1331 -91 842 396 
Q 353 884 353 1716 
Q 353 2575 817 3079 
Q 1281 3584 2069 3584 
Q 2775 3584 3186 3129 
Q 3597 2675 3597 1894 
z
M 3022 2063 
Q 3016 2534 2758 2815 
Q 2500 3097 2075 3097 
Q 1594 3097 1305 2825 
Q 1016 2553 972 2059 
L 3022 2063 
z
" transform="scale(0.015625)"/>
      </defs>
      <use xlink:href="#DejaVuSans-54"/>
      <use xlink:href="#DejaVuSans-72" x="46.333984"/>
      <use xlink:href="#DejaVuSans-6f" x="85.197266"/>
      <use xlink:href="#DejaVuSans-74" x="146.378906"/>
      <use xlink:href="#DejaVuSans-74" x="185.587891"/>
      <use xlink:href="#DejaVuSans-65" x="224.796875"/>
      <use xlink:href="#DejaVuSans-72" x="286.320312"/>
     </g>
    </g>
   </g>
  </g>
 </g>
 <defs>
  <clipPath id="pc01e8344ea">
   <rect x="57.6" y="41.472" width="357.12" height="266.112"/>
  </clipPath>
 </defs>
</svg>
