<?xml version="1.0" encoding="utf-8" standalone="no"?>
<!DOCTYPE svg PUBLIC "-//W3C//DTD SVG 1.1//EN"
  "http://www.w3.org/Graphics/SVG/1.1/DTD/svg11.dtd">
<svg xmlns:xlink="http://www.w3.org/1999/xlink" width="460.8pt" height="345.6pt" viewBox="0 0 460.8 345.6" xmlns="http://www.w3.org/2000/svg" version="1.1">
 <metadata>
  <rdf:RDF xmlns:dc="http://purl.org/dc/elements/1.1/" xmlns:cc="http://creativecommons.org/ns#" xmlns:rdf="http://www.w3.org/1999/02/22-rdf-syntax-ns#">
   <cc:Work>
    <dc:type rdf:resource="http://purl.org/dc/dcmitype/StillImage"/>
    <dc:date>2024-08-23T11:57:49.744096</dc:date>
    <dc:format>image/svg+xml</dc:format>
    <dc:creator>
     <cc:Agent>
      <dc:title>Matplotlib v3.7.1, https://matplotlib.org/</dc:title>
     </cc:Agent>
    </dc:creator>
   </cc:Work>
  </rdf:RDF>
 </metadata>
 <defs>
  <style type="text/css">*{stroke-linejoin: round; stroke-linecap: butt}</style>
 </defs>
 <g id="figure_1">
  <g id="patch_1">
   <path d="M 0 345.6 
L 460.8 345.6 
L 460.8 0 
L 0 0 
z
" style="fill: #ffffff"/>
  </g>
  <g id="axes_1">
   <g id="patch_2">
    <path d="M 57.6 307.584 
L 414.72 307.584 
L 414.72 41.472 
L 57.6 41.472 
z
" style="fill: #ffffff"/>
   </g>
   <g id="matplotlib.axis_1">
    <g id="xtick_1">
     <g id="line2d_1">
      <defs>
       <path id="m75c36706c4" d="M 0 0 
L 0 3.5 
" style="stroke: #000000; stroke-width: 0.8"/>
      </defs>
      <g>
       <use xlink:href="#m75c36706c4" x="73.832727" y="307.584" style="stroke: #000000; stroke-width: 0.8"/>
      </g>
     </g>
     <g id="text_1">
      <!-- 0 -->
      <g transform="translate(70.651477 322.182437) scale(0.1 -0.1)">
       <defs>
        <path id="DejaVuSans-30" d="M 2034 4250 
Q 1547 4250 1301 3770 
Q 1056 3291 1056 2328 
Q 1056 1369 1301 889 
Q 1547 409 2034 409 
Q 2525 409 2770 889 
Q 3016 1369 3016 2328 
Q 3016 3291 2770 3770 
Q 2525 4250 2034 4250 
z
M 2034 4750 
Q 2819 4750 3233 4129 
Q 3647 3509 3647 2328 
Q 3647 1150 3233 529 
Q 2819 -91 2034 -91 
Q 1250 -91 836 529 
Q 422 1150 422 2328 
Q 422 3509 836 4129 
Q 1250 4750 2034 4750 
z
" transform="scale(0.015625)"/>
       </defs>
       <use xlink:href="#DejaVuSans-30"/>
      </g>
     </g>
    </g>
    <g id="xtick_2">
     <g id="line2d_2">
      <g>
       <use xlink:href="#m75c36706c4" x="137.303802" y="307.584" style="stroke: #000000; stroke-width: 0.8"/>
      </g>
     </g>
     <g id="text_2">
      <!-- 200 -->
      <g transform="translate(127.760052 322.182437) scale(0.1 -0.1)">
       <defs>
        <path id="DejaVuSans-32" d="M 1228 531 
L 3431 531 
L 3431 0 
L 469 0 
L 469 531 
Q 828 903 1448 1529 
Q 2069 2156 2228 2338 
Q 2531 2678 2651 2914 
Q 2772 3150 2772 3378 
Q 2772 3750 2511 3984 
Q 2250 4219 1831 4219 
Q 1534 4219 1204 4116 
Q 875 4013 500 3803 
L 500 4441 
Q 881 4594 1212 4672 
Q 1544 4750 1819 4750 
Q 2544 4750 2975 4387 
Q 3406 4025 3406 3419 
Q 3406 3131 3298 2873 
Q 3191 2616 2906 2266 
Q 2828 2175 2409 1742 
Q 1991 1309 1228 531 
z
" transform="scale(0.015625)"/>
       </defs>
       <use xlink:href="#DejaVuSans-32"/>
       <use xlink:href="#DejaVuSans-30" x="63.623047"/>
       <use xlink:href="#DejaVuSans-30" x="127.246094"/>
      </g>
     </g>
    </g>
    <g id="xtick_3">
     <g id="line2d_3">
      <g>
       <use xlink:href="#m75c36706c4" x="200.774876" y="307.584" style="stroke: #000000; stroke-width: 0.8"/>
      </g>
     </g>
     <g id="text_3">
      <!-- 400 -->
      <g transform="translate(191.231126 322.182437) scale(0.1 -0.1)">
       <defs>
        <path id="DejaVuSans-34" d="M 2419 4116 
L 825 1625 
L 2419 1625 
L 2419 4116 
z
M 2253 4666 
L 3047 4666 
L 3047 1625 
L 3713 1625 
L 3713 1100 
L 3047 1100 
L 3047 0 
L 2419 0 
L 2419 1100 
L 313 1100 
L 313 1709 
L 2253 4666 
z
" transform="scale(0.015625)"/>
       </defs>
       <use xlink:href="#DejaVuSans-34"/>
       <use xlink:href="#DejaVuSans-30" x="63.623047"/>
       <use xlink:href="#DejaVuSans-30" x="127.246094"/>
      </g>
     </g>
    </g>
    <g id="xtick_4">
     <g id="line2d_4">
      <g>
       <use xlink:href="#m75c36706c4" x="264.24595" y="307.584" style="stroke: #000000; stroke-width: 0.8"/>
      </g>
     </g>
     <g id="text_4">
      <!-- 600 -->
      <g transform="translate(254.7022 322.182437) scale(0.1 -0.1)">
       <defs>
        <path id="DejaVuSans-36" d="M 2113 2584 
Q 1688 2584 1439 2293 
Q 1191 2003 1191 1497 
Q 1191 994 1439 701 
Q 1688 409 2113 409 
Q 2538 409 2786 701 
Q 3034 994 3034 1497 
Q 3034 2003 2786 2293 
Q 2538 2584 2113 2584 
z
M 3366 4563 
L 3366 3988 
Q 3128 4100 2886 4159 
Q 2644 4219 2406 4219 
Q 1781 4219 1451 3797 
Q 1122 3375 1075 2522 
Q 1259 2794 1537 2939 
Q 1816 3084 2150 3084 
Q 2853 3084 3261 2657 
Q 3669 2231 3669 1497 
Q 3669 778 3244 343 
Q 2819 -91 2113 -91 
Q 1303 -91 875 529 
Q 447 1150 447 2328 
Q 447 3434 972 4092 
Q 1497 4750 2381 4750 
Q 2619 4750 2861 4703 
Q 3103 4656 3366 4563 
z
" transform="scale(0.015625)"/>
       </defs>
       <use xlink:href="#DejaVuSans-36"/>
       <use xlink:href="#DejaVuSans-30" x="63.623047"/>
       <use xlink:href="#DejaVuSans-30" x="127.246094"/>
      </g>
     </g>
    </g>
    <g id="xtick_5">
     <g id="line2d_5">
      <g>
       <use xlink:href="#m75c36706c4" x="327.717025" y="307.584" style="stroke: #000000; stroke-width: 0.8"/>
      </g>
     </g>
     <g id="text_5">
      <!-- 800 -->
      <g transform="translate(318.173275 322.182437) scale(0.1 -0.1)">
       <defs>
        <path id="DejaVuSans-38" d="M 2034 2216 
Q 1584 2216 1326 1975 
Q 1069 1734 1069 1313 
Q 1069 891 1326 650 
Q 1584 409 2034 409 
Q 2484 409 2743 651 
Q 3003 894 3003 1313 
Q 3003 1734 2745 1975 
Q 2488 2216 2034 2216 
z
M 1403 2484 
Q 997 2584 770 2862 
Q 544 3141 544 3541 
Q 544 4100 942 4425 
Q 1341 4750 2034 4750 
Q 2731 4750 3128 4425 
Q 3525 4100 3525 3541 
Q 3525 3141 3298 2862 
Q 3072 2584 2669 2484 
Q 3125 2378 3379 2068 
Q 3634 1759 3634 1313 
Q 3634 634 3220 271 
Q 2806 -91 2034 -91 
Q 1263 -91 848 271 
Q 434 634 434 1313 
Q 434 1759 690 2068 
Q 947 2378 1403 2484 
z
M 1172 3481 
Q 1172 3119 1398 2916 
Q 1625 2713 2034 2713 
Q 2441 2713 2670 2916 
Q 2900 3119 2900 3481 
Q 2900 3844 2670 4047 
Q 2441 4250 2034 4250 
Q 1625 4250 1398 4047 
Q 1172 3844 1172 3481 
z
" transform="scale(0.015625)"/>
       </defs>
       <use xlink:href="#DejaVuSans-38"/>
       <use xlink:href="#DejaVuSans-30" x="63.623047"/>
       <use xlink:href="#DejaVuSans-30" x="127.246094"/>
      </g>
     </g>
    </g>
    <g id="xtick_6">
     <g id="line2d_6">
      <g>
       <use xlink:href="#m75c36706c4" x="391.188099" y="307.584" style="stroke: #000000; stroke-width: 0.8"/>
      </g>
     </g>
     <g id="text_6">
      <!-- 1000 -->
      <g transform="translate(378.463099 322.182437) scale(0.1 -0.1)">
       <defs>
        <path id="DejaVuSans-31" d="M 794 531 
L 1825 531 
L 1825 4091 
L 703 3866 
L 703 4441 
L 1819 4666 
L 2450 4666 
L 2450 531 
L 3481 531 
L 3481 0 
L 794 0 
L 794 531 
z
" transform="scale(0.015625)"/>
       </defs>
       <use xlink:href="#DejaVuSans-31"/>
       <use xlink:href="#DejaVuSans-30" x="63.623047"/>
       <use xlink:href="#DejaVuSans-30" x="127.246094"/>
       <use xlink:href="#DejaVuSans-30" x="190.869141"/>
      </g>
     </g>
    </g>
    <g id="text_7">
     <!-- n -->
     <g transform="translate(232.99125 335.860562) scale(0.1 -0.1)">
      <defs>
       <path id="DejaVuSans-6e" d="M 3513 2113 
L 3513 0 
L 2938 0 
L 2938 2094 
Q 2938 2591 2744 2837 
Q 2550 3084 2163 3084 
Q 1697 3084 1428 2787 
Q 1159 2491 1159 1978 
L 1159 0 
L 581 0 
L 581 3500 
L 1159 3500 
L 1159 2956 
Q 1366 3272 1645 3428 
Q 1925 3584 2291 3584 
Q 2894 3584 3203 3211 
Q 3513 2838 3513 2113 
z
" transform="scale(0.015625)"/>
      </defs>
      <use xlink:href="#DejaVuSans-6e"/>
     </g>
    </g>
   </g>
   <g id="matplotlib.axis_2">
    <g id="ytick_1">
     <g id="line2d_7">
      <defs>
       <path id="m4f6e892ece" d="M 0 0 
L -3.5 0 
" style="stroke: #000000; stroke-width: 0.8"/>
      </defs>
      <g>
       <use xlink:href="#m4f6e892ece" x="57.6" y="293.725605" style="stroke: #000000; stroke-width: 0.8"/>
      </g>
     </g>
     <g id="text_8">
      <!-- −10 -->
      <g transform="translate(29.495313 297.524824) scale(0.1 -0.1)">
       <defs>
        <path id="DejaVuSans-2212" d="M 678 2272 
L 4684 2272 
L 4684 1741 
L 678 1741 
L 678 2272 
z
" transform="scale(0.015625)"/>
       </defs>
       <use xlink:href="#DejaVuSans-2212"/>
       <use xlink:href="#DejaVuSans-31" x="83.789062"/>
       <use xlink:href="#DejaVuSans-30" x="147.412109"/>
      </g>
     </g>
    </g>
    <g id="ytick_2">
     <g id="line2d_8">
      <g>
       <use xlink:href="#m4f6e892ece" x="57.6" y="258.4491" style="stroke: #000000; stroke-width: 0.8"/>
      </g>
     </g>
     <g id="text_9">
      <!-- −5 -->
      <g transform="translate(35.857813 262.248319) scale(0.1 -0.1)">
       <defs>
        <path id="DejaVuSans-35" d="M 691 4666 
L 3169 4666 
L 3169 4134 
L 1269 4134 
L 1269 2991 
Q 1406 3038 1543 3061 
Q 1681 3084 1819 3084 
Q 2600 3084 3056 2656 
Q 3513 2228 3513 1497 
Q 3513 744 3044 326 
Q 2575 -91 1722 -91 
Q 1428 -91 1123 -41 
Q 819 9 494 109 
L 494 744 
Q 775 591 1075 516 
Q 1375 441 1709 441 
Q 2250 441 2565 725 
Q 2881 1009 2881 1497 
Q 2881 1984 2565 2268 
Q 2250 2553 1709 2553 
Q 1456 2553 1204 2497 
Q 953 2441 691 2322 
L 691 4666 
z
" transform="scale(0.015625)"/>
       </defs>
       <use xlink:href="#DejaVuSans-2212"/>
       <use xlink:href="#DejaVuSans-35" x="83.789062"/>
      </g>
     </g>
    </g>
    <g id="ytick_3">
     <g id="line2d_9">
      <g>
       <use xlink:href="#m4f6e892ece" x="57.6" y="223.172595" style="stroke: #000000; stroke-width: 0.8"/>
      </g>
     </g>
     <g id="text_10">
      <!-- 0 -->
      <g transform="translate(44.2375 226.971814) scale(0.1 -0.1)">
       <use xlink:href="#DejaVuSans-30"/>
      </g>
     </g>
    </g>
    <g id="ytick_4">
     <g id="line2d_10">
      <g>
       <use xlink:href="#m4f6e892ece" x="57.6" y="187.89609" style="stroke: #000000; stroke-width: 0.8"/>
      </g>
     </g>
     <g id="text_11">
      <!-- 5 -->
      <g transform="translate(44.2375 191.695309) scale(0.1 -0.1)">
       <use xlink:href="#DejaVuSans-35"/>
      </g>
     </g>
    </g>
    <g id="ytick_5">
     <g id="line2d_11">
      <g>
       <use xlink:href="#m4f6e892ece" x="57.6" y="152.619585" style="stroke: #000000; stroke-width: 0.8"/>
      </g>
     </g>
     <g id="text_12">
      <!-- 10 -->
      <g transform="translate(37.875 156.418804) scale(0.1 -0.1)">
       <use xlink:href="#DejaVuSans-31"/>
       <use xlink:href="#DejaVuSans-30" x="63.623047"/>
      </g>
     </g>
    </g>
    <g id="ytick_6">
     <g id="line2d_12">
      <g>
       <use xlink:href="#m4f6e892ece" x="57.6" y="117.34308" style="stroke: #000000; stroke-width: 0.8"/>
      </g>
     </g>
     <g id="text_13">
      <!-- 15 -->
      <g transform="translate(37.875 121.142299) scale(0.1 -0.1)">
       <use xlink:href="#DejaVuSans-31"/>
       <use xlink:href="#DejaVuSans-35" x="63.623047"/>
      </g>
     </g>
    </g>
    <g id="ytick_7">
     <g id="line2d_13">
      <g>
       <use xlink:href="#m4f6e892ece" x="57.6" y="82.066575" style="stroke: #000000; stroke-width: 0.8"/>
      </g>
     </g>
     <g id="text_14">
      <!-- 20 -->
      <g transform="translate(37.875 85.865794) scale(0.1 -0.1)">
       <use xlink:href="#DejaVuSans-32"/>
       <use xlink:href="#DejaVuSans-30" x="63.623047"/>
      </g>
     </g>
    </g>
    <g id="ytick_8">
     <g id="line2d_14">
      <g>
       <use xlink:href="#m4f6e892ece" x="57.6" y="46.790071" style="stroke: #000000; stroke-width: 0.8"/>
      </g>
     </g>
     <g id="text_15">
      <!-- 25 -->
      <g transform="translate(37.875 50.589289) scale(0.1 -0.1)">
       <use xlink:href="#DejaVuSans-32"/>
       <use xlink:href="#DejaVuSans-35" x="63.623047"/>
      </g>
     </g>
    </g>
    <g id="text_16">
     <!-- E*t -->
     <g transform="translate(23.415625 182.147531) rotate(-90) scale(0.1 -0.1)">
      <defs>
       <path id="DejaVuSans-45" d="M 628 4666 
L 3578 4666 
L 3578 4134 
L 1259 4134 
L 1259 2753 
L 3481 2753 
L 3481 2222 
L 1259 2222 
L 1259 531 
L 3634 531 
L 3634 0 
L 628 0 
L 628 4666 
z
" transform="scale(0.015625)"/>
       <path id="DejaVuSans-2a" d="M 3009 3897 
L 1888 3291 
L 3009 2681 
L 2828 2375 
L 1778 3009 
L 1778 1831 
L 1422 1831 
L 1422 3009 
L 372 2375 
L 191 2681 
L 1313 3291 
L 191 3897 
L 372 4206 
L 1422 3572 
L 1422 4750 
L 1778 4750 
L 1778 3572 
L 2828 4206 
L 3009 3897 
z
" transform="scale(0.015625)"/>
       <path id="DejaVuSans-74" d="M 1172 4494 
L 1172 3500 
L 2356 3500 
L 2356 3053 
L 1172 3053 
L 1172 1153 
Q 1172 725 1289 603 
Q 1406 481 1766 481 
L 2356 481 
L 2356 0 
L 1766 0 
Q 1100 0 847 248 
Q 594 497 594 1153 
L 594 3053 
L 172 3053 
L 172 3500 
L 594 3500 
L 594 4494 
L 1172 4494 
z
" transform="scale(0.015625)"/>
      </defs>
      <use xlink:href="#DejaVuSans-45"/>
      <use xlink:href="#DejaVuSans-2a" x="63.183594"/>
      <use xlink:href="#DejaVuSans-74" x="113.183594"/>
     </g>
    </g>
   </g>
   <g id="line2d_15">
    <path d="M 73.832727 295.488 
L 74.150083 294.3357 
L 74.467438 291.984569 
L 74.784793 290.998981 
L 75.102149 290.82911 
L 75.73686 289.77811 
L 76.054215 289.603888 
L 76.688926 288.194643 
L 77.006281 286.553005 
L 77.323636 285.555539 
L 77.640992 285.114724 
L 77.958347 284.37366 
L 78.275702 284.21279 
L 78.593058 282.835177 
L 78.910413 282.34501 
L 79.545124 279.787311 
L 80.179835 277.141582 
L 80.49719 277.085464 
L 80.814545 276.899899 
L 81.131901 276.195959 
L 81.766612 275.727223 
L 82.083967 275.63552 
L 82.401322 274.837647 
L 82.718678 273.320554 
L 83.036033 273.273694 
L 83.353388 272.428423 
L 83.988099 272.08282 
L 84.62281 272.045177 
L 84.940165 271.411596 
L 85.257521 271.246464 
L 85.574876 270.876768 
L 86.209587 269.09033 
L 86.526942 268.526435 
L 86.844298 268.248551 
L 87.161653 267.136868 
L 87.796364 266.923034 
L 88.113719 265.739719 
L 89.065785 265.558429 
L 89.38314 264.937074 
L 90.335207 264.378482 
L 91.287273 263.931227 
L 91.604628 263.245867 
L 91.921983 263.117877 
L 92.239339 262.835689 
L 92.556694 262.799524 
L 92.87405 262.594321 
L 93.191405 261.965519 
L 93.50876 261.805864 
L 93.826116 261.521526 
L 94.460826 261.376223 
L 95.412893 260.821885 
L 96.047603 260.482979 
L 96.364959 260.018401 
L 98.586446 258.58808 
L 98.903802 258.491854 
L 99.221157 258.254478 
L 99.538512 258.230195 
L 99.855868 257.890449 
L 100.807934 257.647048 
L 101.125289 257.327457 
L 101.76 257.178856 
L 102.077355 256.76643 
L 102.394711 256.566686 
L 103.346777 256.368748 
L 103.664132 256.268748 
L 104.298843 255.888668 
L 104.616198 255.839367 
L 104.933554 255.526954 
L 106.202975 255.120029 
L 106.837686 255.009418 
L 107.472397 254.503828 
L 108.424463 253.988152 
L 109.376529 253.756003 
L 110.64595 253.470525 
L 110.963306 253.138915 
L 111.280661 253.098472 
L 111.915372 252.66208 
L 112.550083 252.623705 
L 113.184793 252.285344 
L 113.502149 251.734191 
L 113.819504 251.718192 
L 114.77157 251.160364 
L 115.088926 251.135579 
L 116.040992 250.035892 
L 116.675702 249.942113 
L 117.310413 249.294071 
L 117.627769 249.217936 
L 118.262479 248.677574 
L 118.579835 248.554973 
L 118.89719 248.020146 
L 119.531901 247.471924 
L 119.849256 247.385696 
L 121.753388 246.087284 
L 123.657521 245.527236 
L 123.974876 245.029776 
L 124.292231 244.950875 
L 124.926942 244.205795 
L 125.879008 243.885479 
L 126.196364 243.425459 
L 127.14843 243.193819 
L 127.465785 242.830161 
L 127.78314 242.752354 
L 128.735207 242.188307 
L 131.591405 241.046374 
L 131.90876 240.797623 
L 133.812893 240.305996 
L 134.130248 240.073681 
L 134.447603 240.017046 
L 134.764959 239.68295 
L 135.082314 239.518734 
L 135.399669 239.482107 
L 135.717025 239.181546 
L 136.669091 239.066188 
L 137.621157 238.478898 
L 138.890579 238.054886 
L 139.207934 237.234309 
L 139.525289 237.214562 
L 139.842645 236.963197 
L 140.16 236.930177 
L 140.477355 236.552155 
L 141.112066 236.195833 
L 141.429421 236.177368 
L 141.746777 235.961006 
L 142.698843 235.855357 
L 143.333554 235.695576 
L 143.650909 235.480811 
L 144.602975 235.343573 
L 144.920331 235.092389 
L 145.872397 234.900372 
L 147.459174 234.646345 
L 147.776529 234.46713 
L 148.728595 234.261475 
L 149.998017 233.98456 
L 150.315372 233.474915 
L 150.950083 233.181819 
L 151.584793 233.032887 
L 151.902149 232.538232 
L 153.17157 232.259777 
L 154.758347 231.343831 
L 155.710413 231.065975 
L 156.662479 230.854548 
L 157.614545 230.515597 
L 157.931901 230.25856 
L 158.249256 230.239012 
L 158.566612 229.95732 
L 159.201322 229.844059 
L 159.518678 229.559542 
L 160.470744 229.443869 
L 160.788099 229.2179 
L 161.105455 229.140456 
L 161.42281 228.829518 
L 163.009587 228.645174 
L 163.326942 228.344832 
L 164.279008 228.04502 
L 165.865785 227.354442 
L 166.500496 227.281892 
L 166.817851 226.646224 
L 168.087273 226.177084 
L 168.721983 225.82558 
L 169.356694 225.713495 
L 170.626116 225.052361 
L 170.943471 225.051282 
L 171.260826 224.854867 
L 171.578182 224.82494 
L 172.212893 224.571264 
L 173.164959 224.217239 
L 175.069091 223.715294 
L 175.703802 223.461438 
L 176.338512 223.329461 
L 176.973223 223.31586 
L 178.877355 222.595702 
L 179.194711 222.387009 
L 179.512066 222.317644 
L 179.829421 222.011957 
L 181.098843 221.882324 
L 182.368264 221.571494 
L 182.68562 221.296868 
L 183.320331 221.168985 
L 183.637686 221.095309 
L 183.955041 220.69941 
L 184.272397 220.696772 
L 185.224463 220.272496 
L 185.859174 220.180544 
L 187.763306 219.794754 
L 188.080661 219.404624 
L 189.032727 219.255293 
L 189.350083 218.807581 
L 190.93686 218.569348 
L 194.745124 217.340671 
L 195.69719 217.249396 
L 196.331901 216.946092 
L 196.649256 216.699288 
L 197.283967 216.452091 
L 197.918678 216.105645 
L 198.553388 215.962619 
L 200.140165 215.321292 
L 200.457521 215.23978 
L 200.774876 214.754577 
L 202.361653 214.153546 
L 202.679008 213.697152 
L 202.996364 213.450672 
L 203.313719 212.673704 
L 204.265785 212.278136 
L 204.900496 212.188971 
L 205.217851 211.980383 
L 206.169917 211.824099 
L 206.487273 211.443483 
L 207.121983 211.36182 
L 207.439339 211.335723 
L 207.756694 211.080636 
L 209.343471 210.955847 
L 210.612893 210.795707 
L 211.882314 210.63472 
L 212.83438 210.305138 
L 213.151736 209.944045 
L 214.103802 209.473559 
L 215.373223 209.364081 
L 216.007934 209.045207 
L 217.594711 208.720137 
L 217.912066 208.439153 
L 218.546777 208.353555 
L 220.768264 207.632291 
L 222.037686 207.528249 
L 222.355041 207.334898 
L 223.624463 207.068204 
L 223.941818 206.876027 
L 225.21124 206.5631 
L 226.163306 206.233521 
L 226.480661 206.229125 
L 227.750083 205.741247 
L 228.067438 205.704922 
L 228.384793 205.44801 
L 229.33686 205.310486 
L 229.654215 205.134273 
L 230.606281 205.04378 
L 230.923636 204.832494 
L 231.240992 204.823397 
L 232.193058 204.261245 
L 233.145124 204.095933 
L 234.09719 203.338616 
L 235.366612 203.040257 
L 236.001322 202.561742 
L 236.636033 202.436721 
L 237.270744 202.353791 
L 238.22281 201.780654 
L 239.809587 201.417928 
L 240.444298 200.858271 
L 240.761653 200.827749 
L 241.079008 200.671822 
L 242.031074 200.587339 
L 243.935207 200.143403 
L 245.521983 199.900852 
L 245.839339 199.744373 
L 246.47405 199.621242 
L 247.10876 199.45495 
L 250.599669 198.379038 
L 250.917025 198.187529 
L 252.186446 198.025778 
L 253.138512 197.692326 
L 253.455868 197.659996 
L 254.090579 197.249208 
L 254.725289 197.090157 
L 255.36 196.86912 
L 255.994711 196.736041 
L 256.312066 196.689941 
L 256.629421 196.454537 
L 257.264132 196.321209 
L 257.581488 195.785549 
L 258.533554 195.086276 
L 259.168264 194.976075 
L 259.48562 194.475848 
L 259.802975 194.303419 
L 260.437686 194.203007 
L 261.072397 193.96154 
L 261.707107 193.72281 
L 262.659174 193.436131 
L 262.976529 193.237572 
L 263.61124 193.07493 
L 264.24595 192.426412 
L 265.198017 191.987946 
L 265.832727 191.51151 
L 266.150083 191.342213 
L 266.467438 191.024362 
L 266.784793 190.868621 
L 267.102149 190.860579 
L 267.73686 190.454115 
L 269.640992 190.205249 
L 270.275702 189.695834 
L 270.593058 189.680669 
L 270.910413 189.339511 
L 271.545124 189.147751 
L 271.862479 188.977505 
L 272.49719 188.87971 
L 272.814545 188.614682 
L 273.766612 188.583456 
L 274.083967 188.343333 
L 274.718678 188.137938 
L 275.353388 187.992796 
L 276.940165 187.675088 
L 277.257521 187.664996 
L 277.892231 187.314079 
L 278.209587 187.290551 
L 278.526942 187.12289 
L 278.844298 187.118693 
L 279.161653 186.88562 
L 279.479008 186.846533 
L 280.113719 186.528722 
L 281.065785 186.155087 
L 281.38314 186.134596 
L 281.700496 185.827654 
L 282.017851 185.797564 
L 282.335207 185.54889 
L 282.969917 185.444926 
L 283.287273 185.269757 
L 283.604628 184.947023 
L 284.556694 184.53866 
L 284.87405 184.132546 
L 285.826116 183.969565 
L 286.460826 183.601447 
L 287.095537 183.43409 
L 287.730248 183.092209 
L 288.047603 182.704898 
L 288.999669 182.561536 
L 289.63438 182.085971 
L 291.221157 181.258171 
L 293.76 180.655731 
L 294.077355 180.4159 
L 294.712066 180.288889 
L 295.346777 180.164023 
L 296.616198 179.948728 
L 296.933554 179.809432 
L 297.250909 179.527875 
L 298.202975 179.369193 
L 299.789752 178.939614 
L 300.107107 178.829622 
L 300.741818 178.132278 
L 301.376529 177.445614 
L 302.01124 177.366713 
L 302.328595 177.356117 
L 303.598017 176.59298 
L 304.232727 176.483175 
L 304.867438 176.324115 
L 305.184793 176.293678 
L 305.819504 175.712792 
L 306.454215 175.494508 
L 307.406281 175.09045 
L 308.675702 174.500995 
L 309.310413 174.393588 
L 309.627769 174.156688 
L 309.945124 174.136475 
L 310.262479 173.733519 
L 312.166612 173.047229 
L 312.483967 172.729007 
L 313.753388 172.423208 
L 314.705455 172.099443 
L 315.02281 171.983874 
L 315.340165 171.703852 
L 316.292231 171.450139 
L 316.609587 170.977726 
L 317.244298 170.609404 
L 317.879008 170.367852 
L 318.513719 170.331913 
L 319.465785 170.061937 
L 320.417851 169.935584 
L 320.735207 169.739023 
L 321.052562 169.720231 
L 321.687273 169.481098 
L 322.004628 168.842045 
L 322.639339 168.794735 
L 322.956694 168.493786 
L 323.27405 168.470921 
L 323.90876 168.098727 
L 325.812893 166.610046 
L 326.130248 166.355305 
L 326.447603 166.355081 
L 327.717025 165.660429 
L 328.03438 165.622856 
L 329.303802 164.356331 
L 329.621157 164.335677 
L 330.255868 164.062649 
L 330.573223 163.636081 
L 331.525289 163.523641 
L 331.842645 163.419917 
L 332.477355 162.675777 
L 335.016198 162.329061 
L 335.333554 161.980194 
L 335.650909 161.798572 
L 335.968264 161.171064 
L 336.28562 160.926454 
L 337.555041 160.622471 
L 338.189752 159.659667 
L 338.507107 159.64777 
L 339.141818 159.403084 
L 339.459174 158.919636 
L 340.093884 158.666747 
L 340.41124 158.607329 
L 341.04595 157.879096 
L 341.363306 157.771615 
L 341.998017 157.309356 
L 342.632727 156.958737 
L 342.950083 156.388139 
L 343.267438 156.173176 
L 343.584793 156.1254 
L 343.902149 155.743293 
L 344.219504 155.706403 
L 344.53686 154.827659 
L 344.854215 154.48911 
L 345.488926 154.351552 
L 345.806281 153.811965 
L 347.393058 153.051891 
L 347.710413 152.654174 
L 348.345124 152.347395 
L 348.662479 152.005339 
L 349.29719 151.864831 
L 350.249256 151.644142 
L 351.201322 151.452517 
L 351.518678 151.276221 
L 351.836033 150.688948 
L 352.470744 150.118057 
L 352.788099 150.105027 
L 353.740165 149.687993 
L 354.057521 149.678194 
L 354.374876 149.507631 
L 354.692231 148.895339 
L 355.009587 148.634506 
L 355.326942 148.564638 
L 356.279008 147.944057 
L 356.596364 147.82223 
L 356.913719 147.107851 
L 357.231074 146.856788 
L 357.54843 146.852427 
L 358.18314 146.570757 
L 358.500496 146.567559 
L 358.817851 145.616837 
L 359.452562 145.379878 
L 360.404628 144.748575 
L 361.039339 144.698664 
L 361.67405 143.86763 
L 361.991405 143.843994 
L 362.30876 143.102752 
L 362.943471 142.907782 
L 363.260826 142.445729 
L 363.895537 142.087977 
L 364.212893 141.961348 
L 364.530248 141.695064 
L 365.164959 140.59696 
L 365.799669 140.193989 
L 366.117025 140.167036 
L 366.43438 139.191354 
L 367.069091 139.147463 
L 367.386446 138.968226 
L 367.703802 137.985075 
L 368.021157 137.860283 
L 368.338512 137.09991 
L 368.655868 137.059308 
L 369.290579 135.888844 
L 369.607934 135.883732 
L 370.242645 135.60016 
L 370.56 135.593325 
L 370.877355 134.312987 
L 371.829421 133.937419 
L 372.464132 133.832804 
L 373.416198 132.966839 
L 373.733554 132.545622 
L 374.050909 132.34951 
L 374.368264 131.973044 
L 375.002975 131.779951 
L 375.320331 131.345084 
L 375.637686 131.319673 
L 375.955041 130.958719 
L 376.589752 129.314898 
L 377.224463 128.418878 
L 377.541818 127.74001 
L 377.859174 127.336548 
L 378.493884 125.337659 
L 378.81124 125.112426 
L 379.128595 123.789262 
L 379.44595 123.73657 
L 379.763306 123.399002 
L 380.080661 122.450466 
L 380.398017 122.021903 
L 381.350083 121.378914 
L 381.984793 121.253431 
L 382.302149 120.09255 
L 382.93686 120.02309 
L 383.254215 119.331558 
L 383.57157 117.96279 
L 383.888926 117.729145 
L 384.206281 116.968697 
L 384.840992 116.241061 
L 385.158347 115.420782 
L 385.475702 114.181934 
L 385.793058 114.137442 
L 388.014545 110.607614 
L 388.331901 109.567998 
L 388.966612 109.320433 
L 389.601322 107.569109 
L 389.918678 105.866139 
L 390.236033 105.587737 
L 390.870744 104.300557 
L 391.188099 104.09878 
L 391.505455 103.540652 
L 391.82281 101.297105 
L 392.140165 99.960595 
L 392.457521 99.529747 
L 392.774876 98.796696 
L 393.092231 96.797797 
L 393.409587 93.77682 
L 393.726942 93.135165 
L 394.044298 91.777921 
L 394.361653 91.644874 
L 394.996364 87.127738 
L 395.313719 87.075763 
L 395.631074 84.169407 
L 395.94843 83.580529 
L 396.265785 81.813172 
L 396.58314 80.873573 
L 396.900496 76.304451 
L 397.217851 75.853697 
L 397.535207 71.284575 
L 397.852562 69.359189 
L 398.169917 58.587876 
L 398.487273 53.568 
L 398.487273 53.568 
" clip-path="url(#pca462f1d2f)" style="fill: none; stroke: #1f77b4; stroke-width: 1.5; stroke-linecap: square"/>
   </g>
   <g id="line2d_16">
    <path d="M 73.832727 253.23056 
L 74.150083 249.723119 
L 74.467438 249.723119 
L 74.784793 246.724971 
L 75.102149 246.102213 
L 75.73686 246.102213 
L 76.054215 244.980427 
L 76.37157 243.086697 
L 77.640992 242.67749 
L 78.910413 242.67749 
L 79.227769 241.609125 
L 79.545124 241.609125 
L 80.179835 240.983444 
L 80.49719 240.983444 
L 80.814545 239.802065 
L 81.131901 239.24598 
L 82.083967 239.236418 
L 82.401322 238.907302 
L 86.844298 238.888616 
L 87.161653 238.70841 
L 87.479008 237.85235 
L 88.431074 237.366747 
L 89.700496 237.366747 
L 90.017851 236.988089 
L 90.652562 236.988089 
L 90.969917 236.54822 
L 91.287273 236.54822 
L 91.604628 236.319083 
L 91.921983 235.729708 
L 99.221157 235.729708 
L 99.538512 235.378519 
L 101.76 235.295447 
L 102.077355 234.93143 
L 103.981488 234.849322 
L 104.298843 234.707386 
L 104.933554 234.707386 
L 105.250909 234.208186 
L 106.202975 234.183027 
L 106.520331 233.056415 
L 108.741818 232.685671 
L 109.376529 232.685671 
L 109.693884 232.116315 
L 110.01124 232.116315 
L 110.328595 231.487356 
L 129.369917 231.48733 
L 130.004628 230.923868 
L 130.321983 230.793761 
L 131.27405 230.772329 
L 131.591405 230.479946 
L 132.860826 230.413147 
L 133.178182 229.85029 
L 133.495537 229.85029 
L 134.130248 229.732428 
L 135.399669 229.732428 
L 135.717025 229.252435 
L 136.986446 229.052013 
L 163.009587 229.052013 
L 163.326942 228.553841 
L 167.769917 228.462798 
L 168.087273 227.846246 
L 168.404628 227.846246 
L 168.721983 227.681677 
L 169.67405 227.575478 
L 169.991405 227.321112 
L 171.895537 227.244078 
L 172.530248 227.141767 
L 173.164959 227.06568 
L 180.146777 227.06568 
L 180.464132 226.934715 
L 180.781488 226.934715 
L 181.098843 226.806253 
L 182.68562 226.806253 
L 183.320331 225.607912 
L 186.493884 225.527629 
L 186.81124 225.422464 
L 187.128595 225.158928 
L 187.44595 225.158928 
L 187.763306 224.980438 
L 188.080661 224.980438 
L 188.398017 224.235289 
L 188.715372 223.172595 
L 283.604628 223.172595 
L 284.239339 221.364752 
L 284.556694 221.364752 
L 284.87405 221.186262 
L 285.191405 221.186262 
L 285.50876 220.922726 
L 286.143471 220.817562 
L 288.999669 220.737278 
L 289.63438 219.538937 
L 291.221157 219.538937 
L 291.538512 219.410476 
L 291.855868 219.410476 
L 292.173223 219.279511 
L 300.107107 219.203424 
L 300.741818 219.024078 
L 302.328595 219.024078 
L 302.64595 218.769713 
L 303.280661 218.663513 
L 303.598017 218.663513 
L 303.915372 218.498944 
L 304.232727 218.498944 
L 304.550083 217.882393 
L 308.993058 217.791349 
L 309.310413 217.293178 
L 335.968264 217.265854 
L 336.602975 217.092756 
L 336.920331 216.612762 
L 338.507107 216.612762 
L 339.141818 216.494901 
L 339.459174 215.932044 
L 340.728595 215.865244 
L 341.04595 215.572862 
L 342.315372 215.421323 
L 342.632727 215.215277 
L 342.950083 214.857861 
L 361.991405 214.857835 
L 362.30876 214.228875 
L 362.626116 214.228875 
L 362.943471 213.65952 
L 364.530248 213.65952 
L 364.847603 213.400093 
L 365.482314 213.355357 
L 365.799669 213.288776 
L 366.117025 212.162163 
L 367.069091 212.137005 
L 367.386446 211.637804 
L 368.021157 211.637804 
L 368.655868 211.41376 
L 370.242645 211.41376 
L 370.56 211.049743 
L 372.781488 210.966672 
L 373.098843 210.615483 
L 380.398017 210.615483 
L 380.715372 210.026107 
L 381.032727 209.79697 
L 381.350083 209.79697 
L 381.667438 209.357102 
L 382.302149 209.357102 
L 382.619504 208.978443 
L 384.206281 208.978443 
L 384.840992 208.492841 
L 385.158347 207.636781 
L 385.475702 207.456574 
L 389.918678 207.437888 
L 390.236033 207.108772 
L 391.188099 207.099211 
L 391.505455 206.543126 
L 391.82281 205.361746 
L 392.140165 205.361746 
L 392.457521 205.12281 
L 392.774876 204.736066 
L 393.092231 204.736066 
L 393.409587 203.667701 
L 394.996364 203.667701 
L 395.313719 203.374679 
L 395.631074 203.374679 
L 395.94843 203.258493 
L 396.265785 201.364763 
L 396.58314 200.242977 
L 397.217851 200.242977 
L 397.535207 199.620219 
L 397.852562 196.622072 
L 398.169917 196.622072 
L 398.487273 193.114631 
L 398.487273 193.114631 
" clip-path="url(#pca462f1d2f)" style="fill: none; stroke: #ff7f0e; stroke-width: 1.5; stroke-linecap: square"/>
   </g>
   <g id="patch_3">
    <path d="M 57.6 307.584 
L 57.6 41.472 
" style="fill: none; stroke: #000000; stroke-width: 0.8; stroke-linejoin: miter; stroke-linecap: square"/>
   </g>
   <g id="patch_4">
    <path d="M 414.72 307.584 
L 414.72 41.472 
" style="fill: none; stroke: #000000; stroke-width: 0.8; stroke-linejoin: miter; stroke-linecap: square"/>
   </g>
   <g id="patch_5">
    <path d="M 57.6 307.584 
L 414.72 307.584 
" style="fill: none; stroke: #000000; stroke-width: 0.8; stroke-linejoin: miter; stroke-linecap: square"/>
   </g>
   <g id="patch_6">
    <path d="M 57.6 41.472 
L 414.72 41.472 
" style="fill: none; stroke: #000000; stroke-width: 0.8; stroke-linejoin: miter; stroke-linecap: square"/>
   </g>
   <g id="legend_1">
    <g id="patch_7">
     <path d="M 64.6 78.82825 
L 129.342187 78.82825 
Q 131.342187 78.82825 131.342187 76.82825 
L 131.342187 48.472 
Q 131.342187 46.472 129.342187 46.472 
L 64.6 46.472 
Q 62.6 46.472 62.6 48.472 
L 62.6 76.82825 
Q 62.6 78.82825 64.6 78.82825 
z
" style="fill: #ffffff; opacity: 0.8; stroke: #cccccc; stroke-linejoin: miter"/>
    </g>
    <g id="line2d_17">
     <path d="M 66.6 54.570437 
L 76.6 54.570437 
L 86.6 54.570437 
" style="fill: none; stroke: #1f77b4; stroke-width: 1.5; stroke-linecap: square"/>
    </g>
    <g id="text_17">
     <!-- qc -->
     <g transform="translate(94.6 58.070437) scale(0.1 -0.1)">
      <defs>
       <path id="DejaVuSans-71" d="M 947 1747 
Q 947 1113 1208 752 
Q 1469 391 1925 391 
Q 2381 391 2643 752 
Q 2906 1113 2906 1747 
Q 2906 2381 2643 2742 
Q 2381 3103 1925 3103 
Q 1469 3103 1208 2742 
Q 947 2381 947 1747 
z
M 2906 525 
Q 2725 213 2448 61 
Q 2172 -91 1784 -91 
Q 1150 -91 751 415 
Q 353 922 353 1747 
Q 353 2572 751 3078 
Q 1150 3584 1784 3584 
Q 2172 3584 2448 3432 
Q 2725 3281 2906 2969 
L 2906 3500 
L 3481 3500 
L 3481 -1331 
L 2906 -1331 
L 2906 525 
z
" transform="scale(0.015625)"/>
       <path id="DejaVuSans-63" d="M 3122 3366 
L 3122 2828 
Q 2878 2963 2633 3030 
Q 2388 3097 2138 3097 
Q 1578 3097 1268 2742 
Q 959 2388 959 1747 
Q 959 1106 1268 751 
Q 1578 397 2138 397 
Q 2388 397 2633 464 
Q 2878 531 3122 666 
L 3122 134 
Q 2881 22 2623 -34 
Q 2366 -91 2075 -91 
Q 1284 -91 818 406 
Q 353 903 353 1747 
Q 353 2603 823 3093 
Q 1294 3584 2113 3584 
Q 2378 3584 2631 3529 
Q 2884 3475 3122 3366 
z
" transform="scale(0.015625)"/>
      </defs>
      <use xlink:href="#DejaVuSans-71"/>
      <use xlink:href="#DejaVuSans-63" x="63.476562"/>
     </g>
    </g>
    <g id="line2d_18">
     <path d="M 66.6 69.248562 
L 76.6 69.248562 
L 86.6 69.248562 
" style="fill: none; stroke: #ff7f0e; stroke-width: 1.5; stroke-linecap: square"/>
    </g>
    <g id="text_18">
     <!-- Trotter -->
     <g transform="translate(94.6 72.748562) scale(0.1 -0.1)">
      <defs>
       <path id="DejaVuSans-54" d="M -19 4666 
L 3928 4666 
L 3928 4134 
L 2272 4134 
L 2272 0 
L 1638 0 
L 1638 4134 
L -19 4134 
L -19 4666 
z
" transform="scale(0.015625)"/>
       <path id="DejaVuSans-72" d="M 2631 2963 
Q 2534 3019 2420 3045 
Q 2306 3072 2169 3072 
Q 1681 3072 1420 2755 
Q 1159 2438 1159 1844 
L 1159 0 
L 581 0 
L 581 3500 
L 1159 3500 
L 1159 2956 
Q 1341 3275 1631 3429 
Q 1922 3584 2338 3584 
Q 2397 3584 2469 3576 
Q 2541 3569 2628 3553 
L 2631 2963 
z
" transform="scale(0.015625)"/>
       <path id="DejaVuSans-6f" d="M 1959 3097 
Q 1497 3097 1228 2736 
Q 959 2375 959 1747 
Q 959 1119 1226 758 
Q 1494 397 1959 397 
Q 2419 397 2687 759 
Q 2956 1122 2956 1747 
Q 2956 2369 2687 2733 
Q 2419 3097 1959 3097 
z
M 1959 3584 
Q 2709 3584 3137 3096 
Q 3566 2609 3566 1747 
Q 3566 888 3137 398 
Q 2709 -91 1959 -91 
Q 1206 -91 779 398 
Q 353 888 353 1747 
Q 353 2609 779 3096 
Q 1206 3584 1959 3584 
z
" transform="scale(0.015625)"/>
       <path id="DejaVuSans-65" d="M 3597 1894 
L 3597 1613 
L 953 1613 
Q 991 1019 1311 708 
Q 1631 397 2203 397 
Q 2534 397 2845 478 
Q 3156 559 3463 722 
L 3463 178 
Q 3153 47 2828 -22 
Q 2503 -91 2169 -91 
Q 1331 -91 842 396 
Q 353 884 353 1716 
Q 353 2575 817 3079 
Q 1281 3584 2069 3584 
Q 2775 3584 3186 3129 
Q 3597 2675 3597 1894 
z
M 3022 2063 
Q 3016 2534 2758 2815 
Q 2500 3097 2075 3097 
Q 1594 3097 1305 2825 
Q 1016 2553 972 2059 
L 3022 2063 
z
" transform="scale(0.015625)"/>
      </defs>
      <use xlink:href="#DejaVuSans-54"/>
      <use xlink:href="#DejaVuSans-72" x="46.333984"/>
      <use xlink:href="#DejaVuSans-6f" x="85.197266"/>
      <use xlink:href="#DejaVuSans-74" x="146.378906"/>
      <use xlink:href="#DejaVuSans-74" x="185.587891"/>
      <use xlink:href="#DejaVuSans-65" x="224.796875"/>
      <use xlink:href="#DejaVuSans-72" x="286.320312"/>
     </g>
    </g>
   </g>
  </g>
 </g>
 <defs>
  <clipPath id="pca462f1d2f">
   <rect x="57.6" y="41.472" width="357.12" height="266.112"/>
  </clipPath>
 </defs>
</svg>
