<?xml version="1.0" encoding="utf-8" standalone="no"?>
<!DOCTYPE svg PUBLIC "-//W3C//DTD SVG 1.1//EN"
  "http://www.w3.org/Graphics/SVG/1.1/DTD/svg11.dtd">
<svg xmlns:xlink="http://www.w3.org/1999/xlink" width="460.8pt" height="345.6pt" viewBox="0 0 460.8 345.6" xmlns="http://www.w3.org/2000/svg" version="1.1">
 <metadata>
  <rdf:RDF xmlns:dc="http://purl.org/dc/elements/1.1/" xmlns:cc="http://creativecommons.org/ns#" xmlns:rdf="http://www.w3.org/1999/02/22-rdf-syntax-ns#">
   <cc:Work>
    <dc:type rdf:resource="http://purl.org/dc/dcmitype/StillImage"/>
    <dc:date>2024-07-12T14:38:24.753472</dc:date>
    <dc:format>image/svg+xml</dc:format>
    <dc:creator>
     <cc:Agent>
      <dc:title>Matplotlib v3.7.1, https://matplotlib.org/</dc:title>
     </cc:Agent>
    </dc:creator>
   </cc:Work>
  </rdf:RDF>
 </metadata>
 <defs>
  <style type="text/css">*{stroke-linejoin: round; stroke-linecap: butt}</style>
 </defs>
 <g id="figure_1">
  <g id="patch_1">
   <path d="M 0 345.6 
L 460.8 345.6 
L 460.8 0 
L 0 0 
z
" style="fill: #ffffff"/>
  </g>
  <g id="axes_1">
   <g id="patch_2">
    <path d="M 57.6 307.584 
L 414.72 307.584 
L 414.72 41.472 
L 57.6 41.472 
z
" style="fill: #ffffff"/>
   </g>
   <g id="matplotlib.axis_1">
    <g id="xtick_1">
     <g id="line2d_1">
      <defs>
       <path id="m57ee656242" d="M 0 0 
L 0 3.5 
" style="stroke: #000000; stroke-width: 0.8"/>
      </defs>
      <g>
       <use xlink:href="#m57ee656242" x="73.832727" y="307.584" style="stroke: #000000; stroke-width: 0.8"/>
      </g>
     </g>
     <g id="text_1">
      <!-- 0 -->
      <g transform="translate(70.651477 322.182437) scale(0.1 -0.1)">
       <defs>
        <path id="DejaVuSans-30" d="M 2034 4250 
Q 1547 4250 1301 3770 
Q 1056 3291 1056 2328 
Q 1056 1369 1301 889 
Q 1547 409 2034 409 
Q 2525 409 2770 889 
Q 3016 1369 3016 2328 
Q 3016 3291 2770 3770 
Q 2525 4250 2034 4250 
z
M 2034 4750 
Q 2819 4750 3233 4129 
Q 3647 3509 3647 2328 
Q 3647 1150 3233 529 
Q 2819 -91 2034 -91 
Q 1250 -91 836 529 
Q 422 1150 422 2328 
Q 422 3509 836 4129 
Q 1250 4750 2034 4750 
z
" transform="scale(0.015625)"/>
       </defs>
       <use xlink:href="#DejaVuSans-30"/>
      </g>
     </g>
    </g>
    <g id="xtick_2">
     <g id="line2d_2">
      <g>
       <use xlink:href="#m57ee656242" x="137.303802" y="307.584" style="stroke: #000000; stroke-width: 0.8"/>
      </g>
     </g>
     <g id="text_2">
      <!-- 200 -->
      <g transform="translate(127.760052 322.182437) scale(0.1 -0.1)">
       <defs>
        <path id="DejaVuSans-32" d="M 1228 531 
L 3431 531 
L 3431 0 
L 469 0 
L 469 531 
Q 828 903 1448 1529 
Q 2069 2156 2228 2338 
Q 2531 2678 2651 2914 
Q 2772 3150 2772 3378 
Q 2772 3750 2511 3984 
Q 2250 4219 1831 4219 
Q 1534 4219 1204 4116 
Q 875 4013 500 3803 
L 500 4441 
Q 881 4594 1212 4672 
Q 1544 4750 1819 4750 
Q 2544 4750 2975 4387 
Q 3406 4025 3406 3419 
Q 3406 3131 3298 2873 
Q 3191 2616 2906 2266 
Q 2828 2175 2409 1742 
Q 1991 1309 1228 531 
z
" transform="scale(0.015625)"/>
       </defs>
       <use xlink:href="#DejaVuSans-32"/>
       <use xlink:href="#DejaVuSans-30" x="63.623047"/>
       <use xlink:href="#DejaVuSans-30" x="127.246094"/>
      </g>
     </g>
    </g>
    <g id="xtick_3">
     <g id="line2d_3">
      <g>
       <use xlink:href="#m57ee656242" x="200.774876" y="307.584" style="stroke: #000000; stroke-width: 0.8"/>
      </g>
     </g>
     <g id="text_3">
      <!-- 400 -->
      <g transform="translate(191.231126 322.182437) scale(0.1 -0.1)">
       <defs>
        <path id="DejaVuSans-34" d="M 2419 4116 
L 825 1625 
L 2419 1625 
L 2419 4116 
z
M 2253 4666 
L 3047 4666 
L 3047 1625 
L 3713 1625 
L 3713 1100 
L 3047 1100 
L 3047 0 
L 2419 0 
L 2419 1100 
L 313 1100 
L 313 1709 
L 2253 4666 
z
" transform="scale(0.015625)"/>
       </defs>
       <use xlink:href="#DejaVuSans-34"/>
       <use xlink:href="#DejaVuSans-30" x="63.623047"/>
       <use xlink:href="#DejaVuSans-30" x="127.246094"/>
      </g>
     </g>
    </g>
    <g id="xtick_4">
     <g id="line2d_4">
      <g>
       <use xlink:href="#m57ee656242" x="264.24595" y="307.584" style="stroke: #000000; stroke-width: 0.8"/>
      </g>
     </g>
     <g id="text_4">
      <!-- 600 -->
      <g transform="translate(254.7022 322.182437) scale(0.1 -0.1)">
       <defs>
        <path id="DejaVuSans-36" d="M 2113 2584 
Q 1688 2584 1439 2293 
Q 1191 2003 1191 1497 
Q 1191 994 1439 701 
Q 1688 409 2113 409 
Q 2538 409 2786 701 
Q 3034 994 3034 1497 
Q 3034 2003 2786 2293 
Q 2538 2584 2113 2584 
z
M 3366 4563 
L 3366 3988 
Q 3128 4100 2886 4159 
Q 2644 4219 2406 4219 
Q 1781 4219 1451 3797 
Q 1122 3375 1075 2522 
Q 1259 2794 1537 2939 
Q 1816 3084 2150 3084 
Q 2853 3084 3261 2657 
Q 3669 2231 3669 1497 
Q 3669 778 3244 343 
Q 2819 -91 2113 -91 
Q 1303 -91 875 529 
Q 447 1150 447 2328 
Q 447 3434 972 4092 
Q 1497 4750 2381 4750 
Q 2619 4750 2861 4703 
Q 3103 4656 3366 4563 
z
" transform="scale(0.015625)"/>
       </defs>
       <use xlink:href="#DejaVuSans-36"/>
       <use xlink:href="#DejaVuSans-30" x="63.623047"/>
       <use xlink:href="#DejaVuSans-30" x="127.246094"/>
      </g>
     </g>
    </g>
    <g id="xtick_5">
     <g id="line2d_5">
      <g>
       <use xlink:href="#m57ee656242" x="327.717025" y="307.584" style="stroke: #000000; stroke-width: 0.8"/>
      </g>
     </g>
     <g id="text_5">
      <!-- 800 -->
      <g transform="translate(318.173275 322.182437) scale(0.1 -0.1)">
       <defs>
        <path id="DejaVuSans-38" d="M 2034 2216 
Q 1584 2216 1326 1975 
Q 1069 1734 1069 1313 
Q 1069 891 1326 650 
Q 1584 409 2034 409 
Q 2484 409 2743 651 
Q 3003 894 3003 1313 
Q 3003 1734 2745 1975 
Q 2488 2216 2034 2216 
z
M 1403 2484 
Q 997 2584 770 2862 
Q 544 3141 544 3541 
Q 544 4100 942 4425 
Q 1341 4750 2034 4750 
Q 2731 4750 3128 4425 
Q 3525 4100 3525 3541 
Q 3525 3141 3298 2862 
Q 3072 2584 2669 2484 
Q 3125 2378 3379 2068 
Q 3634 1759 3634 1313 
Q 3634 634 3220 271 
Q 2806 -91 2034 -91 
Q 1263 -91 848 271 
Q 434 634 434 1313 
Q 434 1759 690 2068 
Q 947 2378 1403 2484 
z
M 1172 3481 
Q 1172 3119 1398 2916 
Q 1625 2713 2034 2713 
Q 2441 2713 2670 2916 
Q 2900 3119 2900 3481 
Q 2900 3844 2670 4047 
Q 2441 4250 2034 4250 
Q 1625 4250 1398 4047 
Q 1172 3844 1172 3481 
z
" transform="scale(0.015625)"/>
       </defs>
       <use xlink:href="#DejaVuSans-38"/>
       <use xlink:href="#DejaVuSans-30" x="63.623047"/>
       <use xlink:href="#DejaVuSans-30" x="127.246094"/>
      </g>
     </g>
    </g>
    <g id="xtick_6">
     <g id="line2d_6">
      <g>
       <use xlink:href="#m57ee656242" x="391.188099" y="307.584" style="stroke: #000000; stroke-width: 0.8"/>
      </g>
     </g>
     <g id="text_6">
      <!-- 1000 -->
      <g transform="translate(378.463099 322.182437) scale(0.1 -0.1)">
       <defs>
        <path id="DejaVuSans-31" d="M 794 531 
L 1825 531 
L 1825 4091 
L 703 3866 
L 703 4441 
L 1819 4666 
L 2450 4666 
L 2450 531 
L 3481 531 
L 3481 0 
L 794 0 
L 794 531 
z
" transform="scale(0.015625)"/>
       </defs>
       <use xlink:href="#DejaVuSans-31"/>
       <use xlink:href="#DejaVuSans-30" x="63.623047"/>
       <use xlink:href="#DejaVuSans-30" x="127.246094"/>
       <use xlink:href="#DejaVuSans-30" x="190.869141"/>
      </g>
     </g>
    </g>
    <g id="text_7">
     <!-- n -->
     <g transform="translate(232.99125 335.860562) scale(0.1 -0.1)">
      <defs>
       <path id="DejaVuSans-6e" d="M 3513 2113 
L 3513 0 
L 2938 0 
L 2938 2094 
Q 2938 2591 2744 2837 
Q 2550 3084 2163 3084 
Q 1697 3084 1428 2787 
Q 1159 2491 1159 1978 
L 1159 0 
L 581 0 
L 581 3500 
L 1159 3500 
L 1159 2956 
Q 1366 3272 1645 3428 
Q 1925 3584 2291 3584 
Q 2894 3584 3203 3211 
Q 3513 2838 3513 2113 
z
" transform="scale(0.015625)"/>
      </defs>
      <use xlink:href="#DejaVuSans-6e"/>
     </g>
    </g>
   </g>
   <g id="matplotlib.axis_2">
    <g id="ytick_1">
     <g id="line2d_7">
      <defs>
       <path id="m68f834f9bd" d="M 0 0 
L -3.5 0 
" style="stroke: #000000; stroke-width: 0.8"/>
      </defs>
      <g>
       <use xlink:href="#m68f834f9bd" x="57.6" y="290.248618" style="stroke: #000000; stroke-width: 0.8"/>
      </g>
     </g>
     <g id="text_8">
      <!-- −3 -->
      <g transform="translate(35.857813 294.047837) scale(0.1 -0.1)">
       <defs>
        <path id="DejaVuSans-2212" d="M 678 2272 
L 4684 2272 
L 4684 1741 
L 678 1741 
L 678 2272 
z
" transform="scale(0.015625)"/>
        <path id="DejaVuSans-33" d="M 2597 2516 
Q 3050 2419 3304 2112 
Q 3559 1806 3559 1356 
Q 3559 666 3084 287 
Q 2609 -91 1734 -91 
Q 1441 -91 1130 -33 
Q 819 25 488 141 
L 488 750 
Q 750 597 1062 519 
Q 1375 441 1716 441 
Q 2309 441 2620 675 
Q 2931 909 2931 1356 
Q 2931 1769 2642 2001 
Q 2353 2234 1838 2234 
L 1294 2234 
L 1294 2753 
L 1863 2753 
Q 2328 2753 2575 2939 
Q 2822 3125 2822 3475 
Q 2822 3834 2567 4026 
Q 2313 4219 1838 4219 
Q 1578 4219 1281 4162 
Q 984 4106 628 3988 
L 628 4550 
Q 988 4650 1302 4700 
Q 1616 4750 1894 4750 
Q 2613 4750 3031 4423 
Q 3450 4097 3450 3541 
Q 3450 3153 3228 2886 
Q 3006 2619 2597 2516 
z
" transform="scale(0.015625)"/>
       </defs>
       <use xlink:href="#DejaVuSans-2212"/>
       <use xlink:href="#DejaVuSans-33" x="83.789062"/>
      </g>
     </g>
    </g>
    <g id="ytick_2">
     <g id="line2d_8">
      <g>
       <use xlink:href="#m68f834f9bd" x="57.6" y="251.70914" style="stroke: #000000; stroke-width: 0.8"/>
      </g>
     </g>
     <g id="text_9">
      <!-- −2 -->
      <g transform="translate(35.857813 255.508359) scale(0.1 -0.1)">
       <use xlink:href="#DejaVuSans-2212"/>
       <use xlink:href="#DejaVuSans-32" x="83.789062"/>
      </g>
     </g>
    </g>
    <g id="ytick_3">
     <g id="line2d_9">
      <g>
       <use xlink:href="#m68f834f9bd" x="57.6" y="213.169663" style="stroke: #000000; stroke-width: 0.8"/>
      </g>
     </g>
     <g id="text_10">
      <!-- −1 -->
      <g transform="translate(35.857813 216.968881) scale(0.1 -0.1)">
       <use xlink:href="#DejaVuSans-2212"/>
       <use xlink:href="#DejaVuSans-31" x="83.789062"/>
      </g>
     </g>
    </g>
    <g id="ytick_4">
     <g id="line2d_10">
      <g>
       <use xlink:href="#m68f834f9bd" x="57.6" y="174.630185" style="stroke: #000000; stroke-width: 0.8"/>
      </g>
     </g>
     <g id="text_11">
      <!-- 0 -->
      <g transform="translate(44.2375 178.429404) scale(0.1 -0.1)">
       <use xlink:href="#DejaVuSans-30"/>
      </g>
     </g>
    </g>
    <g id="ytick_5">
     <g id="line2d_11">
      <g>
       <use xlink:href="#m68f834f9bd" x="57.6" y="136.090707" style="stroke: #000000; stroke-width: 0.8"/>
      </g>
     </g>
     <g id="text_12">
      <!-- 1 -->
      <g transform="translate(44.2375 139.889926) scale(0.1 -0.1)">
       <use xlink:href="#DejaVuSans-31"/>
      </g>
     </g>
    </g>
    <g id="ytick_6">
     <g id="line2d_12">
      <g>
       <use xlink:href="#m68f834f9bd" x="57.6" y="97.551229" style="stroke: #000000; stroke-width: 0.8"/>
      </g>
     </g>
     <g id="text_13">
      <!-- 2 -->
      <g transform="translate(44.2375 101.350448) scale(0.1 -0.1)">
       <use xlink:href="#DejaVuSans-32"/>
      </g>
     </g>
    </g>
    <g id="ytick_7">
     <g id="line2d_13">
      <g>
       <use xlink:href="#m68f834f9bd" x="57.6" y="59.011752" style="stroke: #000000; stroke-width: 0.8"/>
      </g>
     </g>
     <g id="text_14">
      <!-- 3 -->
      <g transform="translate(44.2375 62.81097) scale(0.1 -0.1)">
       <use xlink:href="#DejaVuSans-33"/>
      </g>
     </g>
    </g>
    <g id="text_15">
     <!-- E*t -->
     <g transform="translate(29.778125 182.147531) rotate(-90) scale(0.1 -0.1)">
      <defs>
       <path id="DejaVuSans-45" d="M 628 4666 
L 3578 4666 
L 3578 4134 
L 1259 4134 
L 1259 2753 
L 3481 2753 
L 3481 2222 
L 1259 2222 
L 1259 531 
L 3634 531 
L 3634 0 
L 628 0 
L 628 4666 
z
" transform="scale(0.015625)"/>
       <path id="DejaVuSans-2a" d="M 3009 3897 
L 1888 3291 
L 3009 2681 
L 2828 2375 
L 1778 3009 
L 1778 1831 
L 1422 1831 
L 1422 3009 
L 372 2375 
L 191 2681 
L 1313 3291 
L 191 3897 
L 372 4206 
L 1422 3572 
L 1422 4750 
L 1778 4750 
L 1778 3572 
L 2828 4206 
L 3009 3897 
z
" transform="scale(0.015625)"/>
       <path id="DejaVuSans-74" d="M 1172 4494 
L 1172 3500 
L 2356 3500 
L 2356 3053 
L 1172 3053 
L 1172 1153 
Q 1172 725 1289 603 
Q 1406 481 1766 481 
L 2356 481 
L 2356 0 
L 1766 0 
Q 1100 0 847 248 
Q 594 497 594 1153 
L 594 3053 
L 172 3053 
L 172 3500 
L 594 3500 
L 594 4494 
L 1172 4494 
z
" transform="scale(0.015625)"/>
      </defs>
      <use xlink:href="#DejaVuSans-45"/>
      <use xlink:href="#DejaVuSans-2a" x="63.183594"/>
      <use xlink:href="#DejaVuSans-74" x="113.183594"/>
     </g>
    </g>
   </g>
   <g id="line2d_14">
    <path d="M 73.832727 295.488 
L 74.784793 295.378819 
L 75.102149 295.232816 
L 75.419504 295.213596 
L 75.73686 294.52457 
L 76.688926 293.840641 
L 77.006281 293.79635 
L 77.640992 293.383695 
L 77.958347 293.357735 
L 78.275702 293.085236 
L 78.910413 292.978957 
L 79.545124 292.589562 
L 80.49719 292.501403 
L 80.814545 292.205421 
L 81.131901 292.161654 
L 81.449256 291.85235 
L 82.083967 291.512601 
L 82.401322 291.240846 
L 82.718678 290.776001 
L 83.353388 290.743432 
L 83.670744 290.344887 
L 84.305455 290.250563 
L 84.62281 289.84355 
L 85.257521 289.664713 
L 85.574876 289.405962 
L 86.209587 289.324964 
L 86.526942 288.394264 
L 88.113719 287.637502 
L 88.74843 287.354477 
L 89.700496 287.015998 
L 90.017851 287.014712 
L 90.335207 286.724524 
L 90.969917 286.569954 
L 91.287273 286.403096 
L 91.604628 285.373513 
L 91.921983 285.360054 
L 93.50876 284.658431 
L 94.143471 284.533452 
L 94.460826 284.321878 
L 95.412893 284.165586 
L 96.047603 283.951778 
L 96.682314 283.925065 
L 98.903802 282.87998 
L 99.221157 281.980365 
L 99.538512 281.858971 
L 100.173223 281.366126 
L 100.490579 281.331312 
L 100.807934 280.892696 
L 103.346777 280.274296 
L 103.981488 279.659784 
L 105.568264 279.143676 
L 105.88562 278.70506 
L 106.520331 278.379455 
L 106.837686 278.033475 
L 107.789752 277.81984 
L 108.107107 277.818094 
L 109.376529 277.306118 
L 110.328595 276.056367 
L 110.64595 276.033095 
L 110.963306 275.656059 
L 111.280661 275.628358 
L 111.598017 275.316311 
L 111.915372 275.234016 
L 114.13686 273.770489 
L 114.454215 273.698435 
L 114.77157 273.397228 
L 115.088926 273.331873 
L 115.406281 272.975325 
L 116.993058 272.166765 
L 118.579835 270.174004 
L 118.89719 269.979127 
L 119.531901 269.219317 
L 120.483967 269.043907 
L 120.801322 268.708678 
L 121.436033 268.605292 
L 121.753388 268.303941 
L 122.070744 267.389763 
L 123.02281 267.198268 
L 123.657521 266.925876 
L 124.292231 266.85852 
L 124.609587 266.00204 
L 125.244298 265.687925 
L 125.561653 265.352988 
L 127.14843 264.979906 
L 127.465785 264.751409 
L 128.417851 264.605942 
L 129.369917 264.059225 
L 129.687273 263.534215 
L 130.321983 263.165352 
L 131.27405 262.952953 
L 131.591405 262.444818 
L 133.178182 261.728042 
L 133.495537 261.071023 
L 133.812893 261.065112 
L 134.130248 260.823964 
L 134.447603 260.80071 
L 135.399669 259.974199 
L 136.03438 259.719051 
L 136.669091 259.490424 
L 136.986446 259.474705 
L 137.303802 258.874157 
L 137.621157 258.707297 
L 138.573223 257.792165 
L 138.890579 257.625306 
L 139.207934 257.15623 
L 139.525289 257.106221 
L 139.842645 256.891827 
L 140.16 256.86912 
L 140.794711 256.67723 
L 141.112066 256.553542 
L 141.746777 255.970518 
L 142.698843 255.565779 
L 143.016198 253.877936 
L 143.333554 253.439319 
L 143.650909 253.197347 
L 144.920331 252.960229 
L 145.237686 252.898762 
L 145.555041 249.156696 
L 145.872397 248.989836 
L 146.189752 247.512683 
L 147.141818 246.784903 
L 147.459174 244.713388 
L 148.41124 243.368893 
L 148.728595 243.298972 
L 149.04595 242.876021 
L 149.363306 240.698906 
L 149.680661 240.532047 
L 150.315372 239.390089 
L 150.632727 237.899611 
L 150.950083 237.732752 
L 151.267438 211.141081 
L 151.584793 210.775244 
L 151.902149 208.977407 
L 152.219504 208.637643 
L 152.53686 208.507009 
L 152.854215 208.141172 
L 153.17157 206.102396 
L 153.488926 205.99637 
L 154.758347 205.029045 
L 155.075702 203.592731 
L 156.662479 202.751598 
L 156.979835 202.389213 
L 157.29719 202.344593 
L 157.614545 202.023376 
L 157.931901 202.004829 
L 158.249256 201.225052 
L 159.201322 200.768503 
L 159.518678 200.707908 
L 159.836033 200.428739 
L 160.470744 199.5662 
L 160.788099 199.511404 
L 161.42281 198.898524 
L 161.740165 198.844956 
L 162.057521 198.590979 
L 163.326942 198.326964 
L 163.644298 198.298657 
L 163.961653 198.070579 
L 164.596364 197.958909 
L 165.54843 197.139327 
L 165.865785 197.102285 
L 166.817851 196.175594 
L 168.721983 195.546417 
L 169.67405 195.452023 
L 169.991405 195.217675 
L 170.30876 195.214778 
L 171.895537 194.482289 
L 172.212893 193.775153 
L 172.847603 193.435389 
L 173.164959 193.376419 
L 173.799669 193.123245 
L 174.751736 192.937396 
L 175.386446 192.47319 
L 175.703802 192.43112 
L 176.021157 192.209177 
L 176.338512 192.185003 
L 176.655868 192.040462 
L 176.973223 191.769024 
L 179.829421 190.76482 
L 180.464132 190.559709 
L 181.416198 190.192203 
L 181.733554 190.093325 
L 182.68562 189.384949 
L 183.320331 189.291095 
L 183.955041 188.994263 
L 185.541818 188.642642 
L 186.493884 188.387461 
L 187.128595 188.256377 
L 190.619504 187.227648 
L 191.254215 186.581287 
L 191.888926 186.448894 
L 192.206281 186.237044 
L 193.793058 186.021102 
L 194.427769 185.85901 
L 195.062479 185.853294 
L 195.379835 185.638993 
L 196.014545 185.513665 
L 197.283967 185.239262 
L 197.601322 184.992171 
L 198.236033 184.921753 
L 198.870744 184.58893 
L 200.457521 183.859135 
L 205.535207 182.790207 
L 206.169917 182.76616 
L 206.487273 182.537137 
L 207.439339 182.258177 
L 207.756694 182.092284 
L 208.07405 182.052416 
L 208.391405 181.862567 
L 208.70876 181.803552 
L 209.026116 181.191368 
L 212.199669 180.692588 
L 213.786446 180.563429 
L 214.421157 180.442925 
L 216.007934 180.145284 
L 216.642645 180.065307 
L 216.96 179.862822 
L 218.229421 179.597867 
L 218.864132 179.433626 
L 219.181488 179.424968 
L 219.816198 179.258102 
L 220.133554 179.224992 
L 220.768264 178.90989 
L 228.384793 177.563288 
L 229.654215 177.416769 
L 231.240992 176.798574 
L 231.875702 176.712928 
L 232.193058 176.507408 
L 233.462479 176.268634 
L 234.09719 176.036984 
L 235.683967 175.917996 
L 236.318678 175.755524 
L 238.22281 175.588058 
L 239.174876 175.454279 
L 239.492231 175.411188 
L 239.809587 175.247459 
L 240.761653 175.136473 
L 242.031074 174.946576 
L 242.34843 174.731736 
L 242.665785 174.708894 
L 242.98314 174.529028 
L 243.300496 174.520114 
L 243.617851 174.296371 
L 243.935207 174.277222 
L 244.887273 173.889481 
L 247.743471 173.406688 
L 249.647603 173.239828 
L 250.282314 173.099824 
L 251.23438 172.833854 
L 252.503802 172.533955 
L 253.138512 172.281859 
L 253.773223 171.811373 
L 254.407934 171.766154 
L 254.725289 171.632365 
L 255.042645 171.621491 
L 255.677355 171.419017 
L 256.312066 171.39426 
L 256.946777 171.177061 
L 258.216198 171.04025 
L 259.802975 170.823277 
L 260.755041 170.603029 
L 262.341818 170.306374 
L 262.976529 170.138776 
L 263.293884 170.114198 
L 263.61124 169.870811 
L 265.198017 169.451431 
L 265.515372 169.238529 
L 266.784793 168.995066 
L 268.054215 168.672164 
L 269.323636 168.527307 
L 269.640992 168.384164 
L 270.593058 168.28659 
L 271.227769 168.138552 
L 271.545124 168.076397 
L 271.862479 167.847955 
L 272.49719 167.720714 
L 272.814545 167.456706 
L 273.449256 167.342196 
L 274.083967 166.943396 
L 275.670744 166.457197 
L 276.305455 166.328323 
L 276.940165 166.291629 
L 277.257521 166.104637 
L 277.574876 166.070619 
L 277.892231 165.872366 
L 278.209587 165.841232 
L 278.526942 165.676228 
L 278.844298 165.644261 
L 279.479008 165.183357 
L 280.113719 165.133501 
L 280.431074 164.658784 
L 280.74843 164.60509 
L 281.38314 164.363393 
L 281.700496 164.301913 
L 282.652562 163.890233 
L 284.239339 163.548083 
L 284.87405 163.527038 
L 287.730248 162.011949 
L 288.047603 161.519077 
L 288.364959 161.304953 
L 288.682314 161.290294 
L 288.999669 161.07448 
L 290.269091 160.742796 
L 291.221157 160.428442 
L 291.855868 160.333492 
L 292.173223 160.048 
L 293.442645 159.881135 
L 294.077355 159.725946 
L 294.394711 159.50083 
L 294.712066 159.479581 
L 295.346777 158.894805 
L 295.664132 158.76041 
L 295.981488 158.490834 
L 297.250909 158.217443 
L 297.568264 158.192812 
L 298.520331 157.815903 
L 299.155041 157.808671 
L 300.107107 157.223351 
L 301.376529 156.701537 
L 301.693884 156.349774 
L 302.01124 156.306016 
L 302.328595 156.131407 
L 302.963306 155.638535 
L 303.280661 155.594894 
L 303.915372 155.102022 
L 304.232727 155.04804 
L 304.550083 154.55517 
L 305.184793 154.424057 
L 306.13686 154.204817 
L 306.77157 154.037951 
L 307.088926 153.899761 
L 307.406281 153.386929 
L 307.723636 153.308556 
L 308.040992 153.057687 
L 308.358347 153.044154 
L 308.993058 152.728484 
L 309.310413 152.724506 
L 310.89719 151.974486 
L 311.214545 151.962498 
L 311.531901 151.744537 
L 312.166612 151.721092 
L 312.483967 151.518409 
L 313.118678 151.403628 
L 313.436033 151.236762 
L 313.753388 150.704794 
L 314.705455 150.24486 
L 315.02281 150.211923 
L 315.657521 149.349666 
L 315.974876 149.326372 
L 316.609587 149.112564 
L 316.926942 149.094738 
L 317.244298 148.934577 
L 318.196364 148.815678 
L 319.14843 147.621364 
L 319.465785 146.550372 
L 319.78314 146.352168 
L 320.417851 146.31327 
L 321.052562 145.859323 
L 321.369917 145.312009 
L 322.321983 144.967351 
L 322.639339 143.636725 
L 322.956694 143.423091 
L 323.27405 142.512549 
L 324.226116 142.175697 
L 324.543471 139.727815 
L 324.860826 139.521221 
L 325.178182 139.514181 
L 325.495537 139.028349 
L 325.812893 136.721927 
L 326.130248 136.229055 
L 326.447603 136.035288 
L 326.764959 135.542416 
L 327.082314 133.235994 
L 327.399669 132.804141 
L 327.717025 132.743122 
L 328.03438 132.464393 
L 328.351736 130.847527 
L 328.669091 130.35466 
L 328.986446 128.895259 
L 329.303802 128.55551 
L 329.621157 126.938617 
L 329.938512 126.44575 
L 330.255868 122.283104 
L 330.573223 121.844487 
L 330.890579 118.374221 
L 331.207934 117.935605 
L 331.525289 113.118556 
L 331.842645 112.713819 
L 332.16 109.209674 
L 332.477355 108.804937 
L 332.794711 106.304779 
L 333.112066 106.13792 
L 333.429421 102.395896 
L 333.746777 102.229038 
L 334.064132 97.977812 
L 334.381488 97.611975 
L 334.698843 96.371096 
L 335.016198 96.005258 
L 335.333554 95.174147 
L 336.28562 94.649284 
L 336.602975 92.8945 
L 338.189752 91.208699 
L 338.507107 91.194768 
L 338.824463 90.868936 
L 339.141818 89.177019 
L 340.093884 88.093181 
L 340.728595 88.030623 
L 341.363306 87.69086 
L 341.680661 86.455138 
L 341.998017 86.191126 
L 342.315372 85.258125 
L 342.632727 84.994113 
L 342.950083 84.89186 
L 343.584793 84.466904 
L 344.219504 84.254104 
L 344.53686 84.231239 
L 344.854215 83.979768 
L 345.17157 83.976058 
L 345.488926 82.978543 
L 345.806281 82.714531 
L 346.123636 82.624554 
L 346.758347 82.090413 
L 347.075702 81.665457 
L 347.393058 81.428841 
L 347.710413 81.427574 
L 348.345124 81.172394 
L 348.979835 80.86417 
L 349.29719 80.832199 
L 349.614545 80.462266 
L 349.931901 79.762577 
L 350.249256 79.422813 
L 351.518678 78.892774 
L 351.836033 78.762866 
L 352.153388 78.469615 
L 352.470744 78.386152 
L 352.788099 78.075819 
L 353.105455 78.05534 
L 353.740165 77.669861 
L 354.057521 77.488364 
L 354.692231 76.545009 
L 355.009587 76.050969 
L 355.326942 75.960857 
L 355.644298 75.670348 
L 356.279008 75.430478 
L 357.54843 74.504416 
L 357.865785 74.439972 
L 358.18314 74.20458 
L 358.817851 73.457637 
L 359.769917 72.862523 
L 360.087273 72.098686 
L 360.404628 71.702963 
L 360.721983 71.698107 
L 361.039339 71.473954 
L 361.356694 71.467567 
L 361.67405 71.134606 
L 362.626116 70.8734 
L 363.260826 70.618215 
L 363.895537 70.578781 
L 364.212893 70.10869 
L 364.847603 69.72806 
L 366.751736 69.221657 
L 367.703802 68.666225 
L 368.021157 68.502669 
L 368.655868 68.358218 
L 369.290579 68.225388 
L 369.607934 67.970699 
L 370.242645 67.94471 
L 371.829421 67.305021 
L 372.781488 66.717963 
L 374.050909 66.434565 
L 374.368264 66.358565 
L 374.68562 65.681952 
L 375.637686 65.172336 
L 376.272397 65.123508 
L 376.907107 65.026618 
L 377.224463 65.026074 
L 377.859174 64.832588 
L 378.81124 64.690575 
L 379.128595 64.354404 
L 381.032727 63.863037 
L 381.667438 63.779767 
L 381.984793 63.557118 
L 382.302149 62.894889 
L 382.93686 62.375145 
L 383.888926 62.166669 
L 384.206281 62.161301 
L 385.158347 61.826921 
L 385.475702 61.801437 
L 386.427769 61.425497 
L 387.062479 61.332202 
L 387.379835 61.308592 
L 387.69719 61.095083 
L 388.014545 60.629985 
L 388.331901 60.411507 
L 388.649256 60.39753 
L 388.966612 59.967354 
L 389.283967 59.958915 
L 389.601322 59.703341 
L 389.918678 59.702897 
L 390.553388 58.925767 
L 391.505455 58.59868 
L 392.140165 57.87412 
L 392.774876 57.76346 
L 393.092231 57.619858 
L 393.409587 57.324845 
L 394.044298 57.167893 
L 394.679008 56.751515 
L 394.996364 56.13678 
L 395.313719 56.073047 
L 395.631074 55.881596 
L 395.94843 55.85457 
L 396.265785 55.171976 
L 396.58314 54.958342 
L 396.900496 54.91539 
L 398.487273 53.568 
L 398.487273 53.568 
" clip-path="url(#p45b309dd3e)" style="fill: none; stroke: #1f77b4; stroke-width: 1.5; stroke-linecap: square"/>
   </g>
   <g id="line2d_15">
    <path d="M 73.832727 184.481656 
L 74.150083 183.332095 
L 74.467438 183.332095 
L 74.784793 182.349455 
L 75.102149 182.145347 
L 75.73686 182.145347 
L 76.054215 181.777683 
L 76.37157 181.157014 
L 78.275702 181.022897 
L 78.910413 181.022897 
L 79.227769 180.672741 
L 79.545124 180.672741 
L 80.179835 180.467675 
L 80.49719 180.467675 
L 80.814545 180.080479 
L 81.131901 179.898222 
L 86.209587 179.787221 
L 87.161653 179.722034 
L 87.479008 179.441461 
L 88.74843 179.282306 
L 89.700496 179.282306 
L 90.017851 179.158201 
L 90.652562 179.158201 
L 90.969917 179.014034 
L 91.604628 178.938935 
L 91.921983 178.745767 
L 99.221157 178.745767 
L 99.855868 178.630665 
L 101.442645 178.603439 
L 101.76 178.603439 
L 102.077355 178.484133 
L 104.933554 178.410702 
L 105.250909 178.24709 
L 106.202975 178.238844 
L 106.520331 177.869598 
L 110.01124 177.561481 
L 110.328595 177.35534 
L 129.369917 177.355332 
L 130.004628 177.170658 
L 130.956694 177.128015 
L 132.860826 177.003269 
L 133.178182 176.818793 
L 135.399669 176.780164 
L 135.717025 176.622847 
L 138.255868 176.557159 
L 163.009587 176.557159 
L 163.326942 176.393884 
L 167.769917 176.364044 
L 168.087273 176.16197 
L 169.67405 176.073226 
L 170.30876 175.989858 
L 180.146777 175.90614 
L 181.416198 175.821113 
L 182.68562 175.821113 
L 183.320331 175.428358 
L 186.81124 175.367577 
L 187.763306 175.222704 
L 188.080661 175.222704 
L 189.032727 174.630185 
L 283.604628 174.630185 
L 284.239339 174.037666 
L 285.191405 173.979166 
L 285.826116 173.858325 
L 288.999669 173.832012 
L 289.63438 173.439257 
L 300.107107 173.329292 
L 301.693884 173.270512 
L 302.64595 173.187144 
L 306.454215 172.866486 
L 308.993058 172.866486 
L 309.310413 172.703211 
L 336.602975 172.637523 
L 336.920331 172.480205 
L 339.141818 172.441576 
L 339.459174 172.257101 
L 340.728595 172.235207 
L 341.363306 172.132355 
L 342.632727 172.022181 
L 343.267438 171.905038 
L 361.991405 171.905029 
L 362.30876 171.698889 
L 362.626116 171.698889 
L 362.943471 171.512283 
L 365.482314 171.412594 
L 365.799669 171.390772 
L 366.117025 171.021525 
L 367.069091 171.01328 
L 367.386446 170.849667 
L 370.242645 170.776237 
L 370.56 170.656931 
L 372.781488 170.629704 
L 373.416198 170.514602 
L 380.398017 170.514602 
L 381.032727 170.246336 
L 381.350083 170.246336 
L 381.667438 170.102169 
L 382.302149 170.102169 
L 382.619504 169.978064 
L 384.523636 169.880933 
L 384.840992 169.818908 
L 385.158347 169.538335 
L 386.110413 169.473149 
L 391.188099 169.362147 
L 391.505455 169.179891 
L 391.82281 168.792695 
L 392.457521 168.714384 
L 392.774876 168.587629 
L 393.092231 168.587629 
L 393.409587 168.237473 
L 395.631074 168.141435 
L 395.94843 168.103356 
L 396.265785 167.482687 
L 396.58314 167.115023 
L 397.217851 167.115023 
L 397.535207 166.910915 
L 397.852562 165.928274 
L 398.169917 165.928274 
L 398.487273 164.778714 
L 398.487273 164.778714 
" clip-path="url(#p45b309dd3e)" style="fill: none; stroke: #ff7f0e; stroke-width: 1.5; stroke-linecap: square"/>
   </g>
   <g id="patch_3">
    <path d="M 57.6 307.584 
L 57.6 41.472 
" style="fill: none; stroke: #000000; stroke-width: 0.8; stroke-linejoin: miter; stroke-linecap: square"/>
   </g>
   <g id="patch_4">
    <path d="M 414.72 307.584 
L 414.72 41.472 
" style="fill: none; stroke: #000000; stroke-width: 0.8; stroke-linejoin: miter; stroke-linecap: square"/>
   </g>
   <g id="patch_5">
    <path d="M 57.6 307.584 
L 414.72 307.584 
" style="fill: none; stroke: #000000; stroke-width: 0.8; stroke-linejoin: miter; stroke-linecap: square"/>
   </g>
   <g id="patch_6">
    <path d="M 57.6 41.472 
L 414.72 41.472 
" style="fill: none; stroke: #000000; stroke-width: 0.8; stroke-linejoin: miter; stroke-linecap: square"/>
   </g>
   <g id="legend_1">
    <g id="patch_7">
     <path d="M 64.6 78.82825 
L 129.342187 78.82825 
Q 131.342187 78.82825 131.342187 76.82825 
L 131.342187 48.472 
Q 131.342187 46.472 129.342187 46.472 
L 64.6 46.472 
Q 62.6 46.472 62.6 48.472 
L 62.6 76.82825 
Q 62.6 78.82825 64.6 78.82825 
z
" style="fill: #ffffff; opacity: 0.8; stroke: #cccccc; stroke-linejoin: miter"/>
    </g>
    <g id="line2d_16">
     <path d="M 66.6 54.570437 
L 76.6 54.570437 
L 86.6 54.570437 
" style="fill: none; stroke: #1f77b4; stroke-width: 1.5; stroke-linecap: square"/>
    </g>
    <g id="text_16">
     <!-- qc -->
     <g transform="translate(94.6 58.070437) scale(0.1 -0.1)">
      <defs>
       <path id="DejaVuSans-71" d="M 947 1747 
Q 947 1113 1208 752 
Q 1469 391 1925 391 
Q 2381 391 2643 752 
Q 2906 1113 2906 1747 
Q 2906 2381 2643 2742 
Q 2381 3103 1925 3103 
Q 1469 3103 1208 2742 
Q 947 2381 947 1747 
z
M 2906 525 
Q 2725 213 2448 61 
Q 2172 -91 1784 -91 
Q 1150 -91 751 415 
Q 353 922 353 1747 
Q 353 2572 751 3078 
Q 1150 3584 1784 3584 
Q 2172 3584 2448 3432 
Q 2725 3281 2906 2969 
L 2906 3500 
L 3481 3500 
L 3481 -1331 
L 2906 -1331 
L 2906 525 
z
" transform="scale(0.015625)"/>
       <path id="DejaVuSans-63" d="M 3122 3366 
L 3122 2828 
Q 2878 2963 2633 3030 
Q 2388 3097 2138 3097 
Q 1578 3097 1268 2742 
Q 959 2388 959 1747 
Q 959 1106 1268 751 
Q 1578 397 2138 397 
Q 2388 397 2633 464 
Q 2878 531 3122 666 
L 3122 134 
Q 2881 22 2623 -34 
Q 2366 -91 2075 -91 
Q 1284 -91 818 406 
Q 353 903 353 1747 
Q 353 2603 823 3093 
Q 1294 3584 2113 3584 
Q 2378 3584 2631 3529 
Q 2884 3475 3122 3366 
z
" transform="scale(0.015625)"/>
      </defs>
      <use xlink:href="#DejaVuSans-71"/>
      <use xlink:href="#DejaVuSans-63" x="63.476562"/>
     </g>
    </g>
    <g id="line2d_17">
     <path d="M 66.6 69.248562 
L 76.6 69.248562 
L 86.6 69.248562 
" style="fill: none; stroke: #ff7f0e; stroke-width: 1.5; stroke-linecap: square"/>
    </g>
    <g id="text_17">
     <!-- Trotter -->
     <g transform="translate(94.6 72.748562) scale(0.1 -0.1)">
      <defs>
       <path id="DejaVuSans-54" d="M -19 4666 
L 3928 4666 
L 3928 4134 
L 2272 4134 
L 2272 0 
L 1638 0 
L 1638 4134 
L -19 4134 
L -19 4666 
z
" transform="scale(0.015625)"/>
       <path id="DejaVuSans-72" d="M 2631 2963 
Q 2534 3019 2420 3045 
Q 2306 3072 2169 3072 
Q 1681 3072 1420 2755 
Q 1159 2438 1159 1844 
L 1159 0 
L 581 0 
L 581 3500 
L 1159 3500 
L 1159 2956 
Q 1341 3275 1631 3429 
Q 1922 3584 2338 3584 
Q 2397 3584 2469 3576 
Q 2541 3569 2628 3553 
L 2631 2963 
z
" transform="scale(0.015625)"/>
       <path id="DejaVuSans-6f" d="M 1959 3097 
Q 1497 3097 1228 2736 
Q 959 2375 959 1747 
Q 959 1119 1226 758 
Q 1494 397 1959 397 
Q 2419 397 2687 759 
Q 2956 1122 2956 1747 
Q 2956 2369 2687 2733 
Q 2419 3097 1959 3097 
z
M 1959 3584 
Q 2709 3584 3137 3096 
Q 3566 2609 3566 1747 
Q 3566 888 3137 398 
Q 2709 -91 1959 -91 
Q 1206 -91 779 398 
Q 353 888 353 1747 
Q 353 2609 779 3096 
Q 1206 3584 1959 3584 
z
" transform="scale(0.015625)"/>
       <path id="DejaVuSans-65" d="M 3597 1894 
L 3597 1613 
L 953 1613 
Q 991 1019 1311 708 
Q 1631 397 2203 397 
Q 2534 397 2845 478 
Q 3156 559 3463 722 
L 3463 178 
Q 3153 47 2828 -22 
Q 2503 -91 2169 -91 
Q 1331 -91 842 396 
Q 353 884 353 1716 
Q 353 2575 817 3079 
Q 1281 3584 2069 3584 
Q 2775 3584 3186 3129 
Q 3597 2675 3597 1894 
z
M 3022 2063 
Q 3016 2534 2758 2815 
Q 2500 3097 2075 3097 
Q 1594 3097 1305 2825 
Q 1016 2553 972 2059 
L 3022 2063 
z
" transform="scale(0.015625)"/>
      </defs>
      <use xlink:href="#DejaVuSans-54"/>
      <use xlink:href="#DejaVuSans-72" x="46.333984"/>
      <use xlink:href="#DejaVuSans-6f" x="85.197266"/>
      <use xlink:href="#DejaVuSans-74" x="146.378906"/>
      <use xlink:href="#DejaVuSans-74" x="185.587891"/>
      <use xlink:href="#DejaVuSans-65" x="224.796875"/>
      <use xlink:href="#DejaVuSans-72" x="286.320312"/>
     </g>
    </g>
   </g>
  </g>
 </g>
 <defs>
  <clipPath id="p45b309dd3e">
   <rect x="57.6" y="41.472" width="357.12" height="266.112"/>
  </clipPath>
 </defs>
</svg>
