<?xml version="1.0" encoding="utf-8" standalone="no"?>
<!DOCTYPE svg PUBLIC "-//W3C//DTD SVG 1.1//EN"
  "http://www.w3.org/Graphics/SVG/1.1/DTD/svg11.dtd">
<svg xmlns:xlink="http://www.w3.org/1999/xlink" width="460.8pt" height="345.6pt" viewBox="0 0 460.8 345.6" xmlns="http://www.w3.org/2000/svg" version="1.1">
 <metadata>
  <rdf:RDF xmlns:dc="http://purl.org/dc/elements/1.1/" xmlns:cc="http://creativecommons.org/ns#" xmlns:rdf="http://www.w3.org/1999/02/22-rdf-syntax-ns#">
   <cc:Work>
    <dc:type rdf:resource="http://purl.org/dc/dcmitype/StillImage"/>
    <dc:date>2024-07-12T14:32:49.910290</dc:date>
    <dc:format>image/svg+xml</dc:format>
    <dc:creator>
     <cc:Agent>
      <dc:title>Matplotlib v3.7.1, https://matplotlib.org/</dc:title>
     </cc:Agent>
    </dc:creator>
   </cc:Work>
  </rdf:RDF>
 </metadata>
 <defs>
  <style type="text/css">*{stroke-linejoin: round; stroke-linecap: butt}</style>
 </defs>
 <g id="figure_1">
  <g id="patch_1">
   <path d="M 0 345.6 
L 460.8 345.6 
L 460.8 0 
L 0 0 
z
" style="fill: #ffffff"/>
  </g>
  <g id="axes_1">
   <g id="patch_2">
    <path d="M 57.6 307.584 
L 414.72 307.584 
L 414.72 41.472 
L 57.6 41.472 
z
" style="fill: #ffffff"/>
   </g>
   <g id="matplotlib.axis_1">
    <g id="xtick_1">
     <g id="line2d_1">
      <defs>
       <path id="m635df52e5b" d="M 0 0 
L 0 3.5 
" style="stroke: #000000; stroke-width: 0.8"/>
      </defs>
      <g>
       <use xlink:href="#m635df52e5b" x="73.832727" y="307.584" style="stroke: #000000; stroke-width: 0.8"/>
      </g>
     </g>
     <g id="text_1">
      <!-- 0 -->
      <g transform="translate(70.651477 322.182437) scale(0.1 -0.1)">
       <defs>
        <path id="DejaVuSans-30" d="M 2034 4250 
Q 1547 4250 1301 3770 
Q 1056 3291 1056 2328 
Q 1056 1369 1301 889 
Q 1547 409 2034 409 
Q 2525 409 2770 889 
Q 3016 1369 3016 2328 
Q 3016 3291 2770 3770 
Q 2525 4250 2034 4250 
z
M 2034 4750 
Q 2819 4750 3233 4129 
Q 3647 3509 3647 2328 
Q 3647 1150 3233 529 
Q 2819 -91 2034 -91 
Q 1250 -91 836 529 
Q 422 1150 422 2328 
Q 422 3509 836 4129 
Q 1250 4750 2034 4750 
z
" transform="scale(0.015625)"/>
       </defs>
       <use xlink:href="#DejaVuSans-30"/>
      </g>
     </g>
    </g>
    <g id="xtick_2">
     <g id="line2d_2">
      <g>
       <use xlink:href="#m635df52e5b" x="137.303802" y="307.584" style="stroke: #000000; stroke-width: 0.8"/>
      </g>
     </g>
     <g id="text_2">
      <!-- 200 -->
      <g transform="translate(127.760052 322.182437) scale(0.1 -0.1)">
       <defs>
        <path id="DejaVuSans-32" d="M 1228 531 
L 3431 531 
L 3431 0 
L 469 0 
L 469 531 
Q 828 903 1448 1529 
Q 2069 2156 2228 2338 
Q 2531 2678 2651 2914 
Q 2772 3150 2772 3378 
Q 2772 3750 2511 3984 
Q 2250 4219 1831 4219 
Q 1534 4219 1204 4116 
Q 875 4013 500 3803 
L 500 4441 
Q 881 4594 1212 4672 
Q 1544 4750 1819 4750 
Q 2544 4750 2975 4387 
Q 3406 4025 3406 3419 
Q 3406 3131 3298 2873 
Q 3191 2616 2906 2266 
Q 2828 2175 2409 1742 
Q 1991 1309 1228 531 
z
" transform="scale(0.015625)"/>
       </defs>
       <use xlink:href="#DejaVuSans-32"/>
       <use xlink:href="#DejaVuSans-30" x="63.623047"/>
       <use xlink:href="#DejaVuSans-30" x="127.246094"/>
      </g>
     </g>
    </g>
    <g id="xtick_3">
     <g id="line2d_3">
      <g>
       <use xlink:href="#m635df52e5b" x="200.774876" y="307.584" style="stroke: #000000; stroke-width: 0.8"/>
      </g>
     </g>
     <g id="text_3">
      <!-- 400 -->
      <g transform="translate(191.231126 322.182437) scale(0.1 -0.1)">
       <defs>
        <path id="DejaVuSans-34" d="M 2419 4116 
L 825 1625 
L 2419 1625 
L 2419 4116 
z
M 2253 4666 
L 3047 4666 
L 3047 1625 
L 3713 1625 
L 3713 1100 
L 3047 1100 
L 3047 0 
L 2419 0 
L 2419 1100 
L 313 1100 
L 313 1709 
L 2253 4666 
z
" transform="scale(0.015625)"/>
       </defs>
       <use xlink:href="#DejaVuSans-34"/>
       <use xlink:href="#DejaVuSans-30" x="63.623047"/>
       <use xlink:href="#DejaVuSans-30" x="127.246094"/>
      </g>
     </g>
    </g>
    <g id="xtick_4">
     <g id="line2d_4">
      <g>
       <use xlink:href="#m635df52e5b" x="264.24595" y="307.584" style="stroke: #000000; stroke-width: 0.8"/>
      </g>
     </g>
     <g id="text_4">
      <!-- 600 -->
      <g transform="translate(254.7022 322.182437) scale(0.1 -0.1)">
       <defs>
        <path id="DejaVuSans-36" d="M 2113 2584 
Q 1688 2584 1439 2293 
Q 1191 2003 1191 1497 
Q 1191 994 1439 701 
Q 1688 409 2113 409 
Q 2538 409 2786 701 
Q 3034 994 3034 1497 
Q 3034 2003 2786 2293 
Q 2538 2584 2113 2584 
z
M 3366 4563 
L 3366 3988 
Q 3128 4100 2886 4159 
Q 2644 4219 2406 4219 
Q 1781 4219 1451 3797 
Q 1122 3375 1075 2522 
Q 1259 2794 1537 2939 
Q 1816 3084 2150 3084 
Q 2853 3084 3261 2657 
Q 3669 2231 3669 1497 
Q 3669 778 3244 343 
Q 2819 -91 2113 -91 
Q 1303 -91 875 529 
Q 447 1150 447 2328 
Q 447 3434 972 4092 
Q 1497 4750 2381 4750 
Q 2619 4750 2861 4703 
Q 3103 4656 3366 4563 
z
" transform="scale(0.015625)"/>
       </defs>
       <use xlink:href="#DejaVuSans-36"/>
       <use xlink:href="#DejaVuSans-30" x="63.623047"/>
       <use xlink:href="#DejaVuSans-30" x="127.246094"/>
      </g>
     </g>
    </g>
    <g id="xtick_5">
     <g id="line2d_5">
      <g>
       <use xlink:href="#m635df52e5b" x="327.717025" y="307.584" style="stroke: #000000; stroke-width: 0.8"/>
      </g>
     </g>
     <g id="text_5">
      <!-- 800 -->
      <g transform="translate(318.173275 322.182437) scale(0.1 -0.1)">
       <defs>
        <path id="DejaVuSans-38" d="M 2034 2216 
Q 1584 2216 1326 1975 
Q 1069 1734 1069 1313 
Q 1069 891 1326 650 
Q 1584 409 2034 409 
Q 2484 409 2743 651 
Q 3003 894 3003 1313 
Q 3003 1734 2745 1975 
Q 2488 2216 2034 2216 
z
M 1403 2484 
Q 997 2584 770 2862 
Q 544 3141 544 3541 
Q 544 4100 942 4425 
Q 1341 4750 2034 4750 
Q 2731 4750 3128 4425 
Q 3525 4100 3525 3541 
Q 3525 3141 3298 2862 
Q 3072 2584 2669 2484 
Q 3125 2378 3379 2068 
Q 3634 1759 3634 1313 
Q 3634 634 3220 271 
Q 2806 -91 2034 -91 
Q 1263 -91 848 271 
Q 434 634 434 1313 
Q 434 1759 690 2068 
Q 947 2378 1403 2484 
z
M 1172 3481 
Q 1172 3119 1398 2916 
Q 1625 2713 2034 2713 
Q 2441 2713 2670 2916 
Q 2900 3119 2900 3481 
Q 2900 3844 2670 4047 
Q 2441 4250 2034 4250 
Q 1625 4250 1398 4047 
Q 1172 3844 1172 3481 
z
" transform="scale(0.015625)"/>
       </defs>
       <use xlink:href="#DejaVuSans-38"/>
       <use xlink:href="#DejaVuSans-30" x="63.623047"/>
       <use xlink:href="#DejaVuSans-30" x="127.246094"/>
      </g>
     </g>
    </g>
    <g id="xtick_6">
     <g id="line2d_6">
      <g>
       <use xlink:href="#m635df52e5b" x="391.188099" y="307.584" style="stroke: #000000; stroke-width: 0.8"/>
      </g>
     </g>
     <g id="text_6">
      <!-- 1000 -->
      <g transform="translate(378.463099 322.182437) scale(0.1 -0.1)">
       <defs>
        <path id="DejaVuSans-31" d="M 794 531 
L 1825 531 
L 1825 4091 
L 703 3866 
L 703 4441 
L 1819 4666 
L 2450 4666 
L 2450 531 
L 3481 531 
L 3481 0 
L 794 0 
L 794 531 
z
" transform="scale(0.015625)"/>
       </defs>
       <use xlink:href="#DejaVuSans-31"/>
       <use xlink:href="#DejaVuSans-30" x="63.623047"/>
       <use xlink:href="#DejaVuSans-30" x="127.246094"/>
       <use xlink:href="#DejaVuSans-30" x="190.869141"/>
      </g>
     </g>
    </g>
    <g id="text_7">
     <!-- n -->
     <g transform="translate(232.99125 335.860562) scale(0.1 -0.1)">
      <defs>
       <path id="DejaVuSans-6e" d="M 3513 2113 
L 3513 0 
L 2938 0 
L 2938 2094 
Q 2938 2591 2744 2837 
Q 2550 3084 2163 3084 
Q 1697 3084 1428 2787 
Q 1159 2491 1159 1978 
L 1159 0 
L 581 0 
L 581 3500 
L 1159 3500 
L 1159 2956 
Q 1366 3272 1645 3428 
Q 1925 3584 2291 3584 
Q 2894 3584 3203 3211 
Q 3513 2838 3513 2113 
z
" transform="scale(0.015625)"/>
      </defs>
      <use xlink:href="#DejaVuSans-6e"/>
     </g>
    </g>
   </g>
   <g id="matplotlib.axis_2">
    <g id="ytick_1">
     <g id="line2d_7">
      <defs>
       <path id="mc1f32d4b5b" d="M 0 0 
L -3.5 0 
" style="stroke: #000000; stroke-width: 0.8"/>
      </defs>
      <g>
       <use xlink:href="#mc1f32d4b5b" x="57.6" y="290.29557" style="stroke: #000000; stroke-width: 0.8"/>
      </g>
     </g>
     <g id="text_8">
      <!-- −3 -->
      <g transform="translate(35.857813 294.094788) scale(0.1 -0.1)">
       <defs>
        <path id="DejaVuSans-2212" d="M 678 2272 
L 4684 2272 
L 4684 1741 
L 678 1741 
L 678 2272 
z
" transform="scale(0.015625)"/>
        <path id="DejaVuSans-33" d="M 2597 2516 
Q 3050 2419 3304 2112 
Q 3559 1806 3559 1356 
Q 3559 666 3084 287 
Q 2609 -91 1734 -91 
Q 1441 -91 1130 -33 
Q 819 25 488 141 
L 488 750 
Q 750 597 1062 519 
Q 1375 441 1716 441 
Q 2309 441 2620 675 
Q 2931 909 2931 1356 
Q 2931 1769 2642 2001 
Q 2353 2234 1838 2234 
L 1294 2234 
L 1294 2753 
L 1863 2753 
Q 2328 2753 2575 2939 
Q 2822 3125 2822 3475 
Q 2822 3834 2567 4026 
Q 2313 4219 1838 4219 
Q 1578 4219 1281 4162 
Q 984 4106 628 3988 
L 628 4550 
Q 988 4650 1302 4700 
Q 1616 4750 1894 4750 
Q 2613 4750 3031 4423 
Q 3450 4097 3450 3541 
Q 3450 3153 3228 2886 
Q 3006 2619 2597 2516 
z
" transform="scale(0.015625)"/>
       </defs>
       <use xlink:href="#DejaVuSans-2212"/>
       <use xlink:href="#DejaVuSans-33" x="83.789062"/>
      </g>
     </g>
    </g>
    <g id="ytick_2">
     <g id="line2d_8">
      <g>
       <use xlink:href="#mc1f32d4b5b" x="57.6" y="251.721513" style="stroke: #000000; stroke-width: 0.8"/>
      </g>
     </g>
     <g id="text_9">
      <!-- −2 -->
      <g transform="translate(35.857813 255.520732) scale(0.1 -0.1)">
       <use xlink:href="#DejaVuSans-2212"/>
       <use xlink:href="#DejaVuSans-32" x="83.789062"/>
      </g>
     </g>
    </g>
    <g id="ytick_3">
     <g id="line2d_9">
      <g>
       <use xlink:href="#mc1f32d4b5b" x="57.6" y="213.147457" style="stroke: #000000; stroke-width: 0.8"/>
      </g>
     </g>
     <g id="text_10">
      <!-- −1 -->
      <g transform="translate(35.857813 216.946675) scale(0.1 -0.1)">
       <use xlink:href="#DejaVuSans-2212"/>
       <use xlink:href="#DejaVuSans-31" x="83.789062"/>
      </g>
     </g>
    </g>
    <g id="ytick_4">
     <g id="line2d_10">
      <g>
       <use xlink:href="#mc1f32d4b5b" x="57.6" y="174.5734" style="stroke: #000000; stroke-width: 0.8"/>
      </g>
     </g>
     <g id="text_11">
      <!-- 0 -->
      <g transform="translate(44.2375 178.372619) scale(0.1 -0.1)">
       <use xlink:href="#DejaVuSans-30"/>
      </g>
     </g>
    </g>
    <g id="ytick_5">
     <g id="line2d_11">
      <g>
       <use xlink:href="#mc1f32d4b5b" x="57.6" y="135.999344" style="stroke: #000000; stroke-width: 0.8"/>
      </g>
     </g>
     <g id="text_12">
      <!-- 1 -->
      <g transform="translate(44.2375 139.798563) scale(0.1 -0.1)">
       <use xlink:href="#DejaVuSans-31"/>
      </g>
     </g>
    </g>
    <g id="ytick_6">
     <g id="line2d_12">
      <g>
       <use xlink:href="#mc1f32d4b5b" x="57.6" y="97.425287" style="stroke: #000000; stroke-width: 0.8"/>
      </g>
     </g>
     <g id="text_13">
      <!-- 2 -->
      <g transform="translate(44.2375 101.224506) scale(0.1 -0.1)">
       <use xlink:href="#DejaVuSans-32"/>
      </g>
     </g>
    </g>
    <g id="ytick_7">
     <g id="line2d_13">
      <g>
       <use xlink:href="#mc1f32d4b5b" x="57.6" y="58.851231" style="stroke: #000000; stroke-width: 0.8"/>
      </g>
     </g>
     <g id="text_14">
      <!-- 3 -->
      <g transform="translate(44.2375 62.65045) scale(0.1 -0.1)">
       <use xlink:href="#DejaVuSans-33"/>
      </g>
     </g>
    </g>
    <g id="text_15">
     <!-- E*t -->
     <g transform="translate(29.778125 182.147531) rotate(-90) scale(0.1 -0.1)">
      <defs>
       <path id="DejaVuSans-45" d="M 628 4666 
L 3578 4666 
L 3578 4134 
L 1259 4134 
L 1259 2753 
L 3481 2753 
L 3481 2222 
L 1259 2222 
L 1259 531 
L 3634 531 
L 3634 0 
L 628 0 
L 628 4666 
z
" transform="scale(0.015625)"/>
       <path id="DejaVuSans-2a" d="M 3009 3897 
L 1888 3291 
L 3009 2681 
L 2828 2375 
L 1778 3009 
L 1778 1831 
L 1422 1831 
L 1422 3009 
L 372 2375 
L 191 2681 
L 1313 3291 
L 191 3897 
L 372 4206 
L 1422 3572 
L 1422 4750 
L 1778 4750 
L 1778 3572 
L 2828 4206 
L 3009 3897 
z
" transform="scale(0.015625)"/>
       <path id="DejaVuSans-74" d="M 1172 4494 
L 1172 3500 
L 2356 3500 
L 2356 3053 
L 1172 3053 
L 1172 1153 
Q 1172 725 1289 603 
Q 1406 481 1766 481 
L 2356 481 
L 2356 0 
L 1766 0 
Q 1100 0 847 248 
Q 594 497 594 1153 
L 594 3053 
L 172 3053 
L 172 3500 
L 594 3500 
L 594 4494 
L 1172 4494 
z
" transform="scale(0.015625)"/>
      </defs>
      <use xlink:href="#DejaVuSans-45"/>
      <use xlink:href="#DejaVuSans-2a" x="63.183594"/>
      <use xlink:href="#DejaVuSans-74" x="113.183594"/>
     </g>
    </g>
   </g>
   <g id="line2d_14">
    <path d="M 73.832727 295.488 
L 74.150083 295.209574 
L 74.467438 294.494886 
L 75.102149 294.454917 
L 76.37157 293.526935 
L 77.006281 293.248508 
L 77.323636 293.19382 
L 77.958347 292.55441 
L 78.275702 292.513078 
L 78.593058 292.204199 
L 79.227769 292.138107 
L 81.131901 290.98007 
L 81.449256 290.332574 
L 81.766612 290.059296 
L 82.401322 289.026457 
L 83.988099 288.748032 
L 84.305455 287.962684 
L 85.257521 287.627897 
L 85.574876 287.526744 
L 85.892231 287.24832 
L 86.209587 286.806889 
L 88.113719 286.075642 
L 88.431074 285.674881 
L 88.74843 285.460301 
L 89.065785 284.326239 
L 89.700496 284.010611 
L 90.652562 283.709385 
L 91.287273 283.264577 
L 91.921983 283.179658 
L 92.239339 282.882933 
L 92.556694 282.82479 
L 92.87405 282.328317 
L 94.778182 281.911649 
L 95.095537 281.430384 
L 97.317025 280.790635 
L 97.63438 280.367048 
L 98.269091 280.319565 
L 98.903802 280.033917 
L 99.538512 279.96978 
L 100.173223 279.30808 
L 100.807934 279.170695 
L 103.029421 278.754935 
L 103.664132 278.30815 
L 104.933554 278.09863 
L 105.568264 277.833142 
L 105.88562 277.287019 
L 106.837686 277.137106 
L 107.155041 276.955405 
L 107.472397 276.951532 
L 108.107107 276.777212 
L 109.693884 276.113041 
L 110.328595 275.951897 
L 111.915372 275.792162 
L 112.232727 275.769123 
L 112.550083 275.431279 
L 112.867438 275.419416 
L 113.184793 275.291605 
L 113.502149 275.013591 
L 115.088926 274.67594 
L 115.723636 274.375094 
L 116.358347 274.308302 
L 117.310413 273.928739 
L 117.627769 273.881684 
L 118.262479 273.665781 
L 119.214545 273.50947 
L 120.166612 273.173251 
L 120.483967 272.678527 
L 121.118678 272.54171 
L 122.070744 272.34982 
L 123.657521 271.541192 
L 125.561653 271.061103 
L 125.879008 270.816459 
L 126.196364 270.741108 
L 126.513719 270.486307 
L 126.831074 270.463171 
L 128.100496 269.842479 
L 128.417851 269.508671 
L 128.735207 269.50215 
L 129.369917 268.906435 
L 130.321983 268.775892 
L 131.27405 268.473925 
L 131.591405 268.126512 
L 131.90876 268.117398 
L 132.226116 267.777312 
L 132.543471 267.76656 
L 132.860826 267.58631 
L 133.178182 267.548554 
L 133.495537 267.35712 
L 134.130248 267.330992 
L 136.03438 266.287581 
L 136.351736 266.19734 
L 136.669091 265.843498 
L 136.986446 265.823723 
L 137.303802 265.657552 
L 137.621157 265.631007 
L 138.573223 264.944538 
L 138.890579 264.684713 
L 139.207934 264.0737 
L 140.794711 263.300432 
L 142.381488 262.837037 
L 142.698843 262.326237 
L 143.333554 262.131977 
L 144.28562 261.87288 
L 145.237686 261.760932 
L 146.189752 261.56893 
L 146.507107 261.105217 
L 147.776529 260.752396 
L 148.41124 260.601412 
L 149.04595 259.931109 
L 149.998017 259.818347 
L 150.315372 259.593448 
L 150.950083 259.509565 
L 151.267438 259.37226 
L 151.584793 258.916518 
L 152.219504 258.748418 
L 153.488926 258.530595 
L 153.806281 258.027539 
L 154.440992 257.669267 
L 155.710413 257.462 
L 156.662479 257.226722 
L 156.979835 256.586208 
L 157.614545 256.424555 
L 158.883967 256.183901 
L 159.836033 256.003547 
L 160.470744 255.538363 
L 162.057521 255.311434 
L 162.692231 255.273457 
L 163.009587 254.999972 
L 163.326942 254.886523 
L 163.644298 254.6141 
L 163.961653 254.604001 
L 164.279008 254.26367 
L 165.231074 254.217504 
L 165.54843 253.922543 
L 166.817851 253.512051 
L 167.135207 253.182548 
L 169.039339 252.794597 
L 169.67405 252.310075 
L 169.991405 252.276439 
L 170.30876 252.117363 
L 170.943471 251.459562 
L 171.895537 251.391026 
L 172.212893 251.194387 
L 172.530248 251.153619 
L 172.847603 250.742622 
L 173.482314 250.567263 
L 173.799669 250.53864 
L 174.117025 250.374551 
L 174.751736 250.342489 
L 175.386446 249.91926 
L 175.703802 249.708993 
L 176.021157 249.706057 
L 176.338512 249.226733 
L 176.655868 249.033851 
L 177.290579 248.923505 
L 177.607934 248.657074 
L 177.925289 248.647445 
L 179.194711 247.198679 
L 179.829421 246.914262 
L 180.781488 246.471011 
L 181.416198 246.204557 
L 181.733554 245.344943 
L 182.368264 244.7463 
L 183.002975 244.479847 
L 183.320331 243.823705 
L 183.637686 242.614081 
L 183.955041 241.848296 
L 184.589752 241.466551 
L 184.907107 240.871269 
L 185.224463 239.96665 
L 185.859174 239.492731 
L 186.176529 239.282016 
L 186.81124 237.764815 
L 187.44595 237.608862 
L 187.763306 237.329482 
L 188.080661 236.547309 
L 189.032727 236.195351 
L 189.350083 235.507865 
L 189.984793 235.407297 
L 190.302149 235.137398 
L 190.619504 234.452539 
L 190.93686 234.385512 
L 191.254215 234.079532 
L 191.57157 233.988252 
L 191.888926 233.765053 
L 192.206281 233.685024 
L 192.523636 233.394586 
L 192.840992 232.675831 
L 193.793058 231.492468 
L 194.427769 230.969797 
L 194.745124 230.95112 
L 195.69719 229.749656 
L 196.331901 229.226985 
L 196.649256 228.789323 
L 196.966612 227.810743 
L 197.918678 217.974352 
L 198.236033 217.624643 
L 198.553388 217.441074 
L 198.870744 215.698261 
L 199.188099 215.617184 
L 199.505455 215.279276 
L 199.82281 215.267476 
L 200.140165 213.536464 
L 200.457521 212.946338 
L 200.774876 212.668398 
L 201.092231 210.589171 
L 201.409587 210.311231 
L 201.726942 199.786695 
L 202.044298 197.585875 
L 202.361653 197.429528 
L 202.679008 196.033088 
L 203.631074 193.826959 
L 203.94843 192.488895 
L 204.265785 192.473179 
L 204.58314 191.639339 
L 204.900496 191.605861 
L 205.535207 190.709277 
L 205.852562 190.670396 
L 206.169917 190.382128 
L 206.804628 189.592115 
L 207.121983 189.312301 
L 207.439339 189.248372 
L 208.391405 188.596981 
L 208.70876 188.496503 
L 209.026116 188.165115 
L 209.343471 188.120226 
L 209.660826 187.623269 
L 210.295537 187.229831 
L 210.930248 186.825097 
L 211.564959 186.740203 
L 211.882314 186.126924 
L 213.151736 185.94048 
L 213.469091 185.618745 
L 214.103802 185.295472 
L 214.421157 185.008013 
L 214.738512 184.981918 
L 215.055868 184.72175 
L 215.373223 184.676026 
L 215.690579 184.327463 
L 216.007934 184.271219 
L 216.325289 183.98368 
L 216.642645 183.932653 
L 216.96 183.645157 
L 219.181488 182.937092 
L 220.133554 182.840899 
L 220.768264 182.072245 
L 221.720331 181.605337 
L 222.672397 181.534903 
L 222.989752 181.293722 
L 223.307107 181.286324 
L 223.624463 181.022931 
L 223.941818 180.937765 
L 224.893884 180.427803 
L 225.528595 180.281971 
L 225.84595 180.05088 
L 226.480661 179.895838 
L 226.798017 179.621403 
L 227.432727 179.364266 
L 227.750083 179.127518 
L 229.019504 178.990276 
L 230.606281 178.334994 
L 232.193058 178.192327 
L 233.145124 177.754548 
L 233.462479 177.75384 
L 234.731901 177.201949 
L 235.049256 177.20099 
L 236.001322 176.945239 
L 237.588099 176.503772 
L 238.540165 176.338516 
L 238.857521 176.00404 
L 239.809587 175.911186 
L 240.126942 175.738514 
L 241.396364 175.515179 
L 243.300496 175.070321 
L 244.252562 174.636042 
L 244.887273 174.598959 
L 245.521983 174.313088 
L 246.791405 174.098271 
L 247.743471 173.830398 
L 250.282314 173.299191 
L 254.407934 172.528238 
L 255.36 172.274862 
L 255.677355 172.271798 
L 255.994711 172.087555 
L 258.533554 171.704037 
L 260.120331 171.407413 
L 261.072397 171.281956 
L 267.73686 169.730063 
L 268.37157 169.505936 
L 268.688926 169.490233 
L 269.323636 169.324605 
L 270.275702 169.152844 
L 270.910413 169.05056 
L 271.545124 168.738863 
L 272.49719 168.500698 
L 273.131901 168.180634 
L 274.083967 167.891693 
L 274.718678 167.849947 
L 275.036033 167.66665 
L 277.257521 167.377367 
L 277.574876 167.056931 
L 278.209587 167.044145 
L 279.161653 166.695114 
L 279.796364 166.566027 
L 280.431074 166.404677 
L 281.065785 166.31564 
L 281.38314 166.268132 
L 282.335207 165.701252 
L 283.287273 165.627713 
L 284.87405 165.309651 
L 285.191405 164.971158 
L 285.50876 164.935066 
L 285.826116 164.587935 
L 286.460826 164.471937 
L 286.778182 164.078217 
L 287.095537 163.868402 
L 287.412893 163.817161 
L 288.364959 163.383901 
L 288.682314 163.344398 
L 288.999669 162.745577 
L 289.951736 162.576631 
L 290.269091 161.997203 
L 290.586446 161.939716 
L 291.221157 161.51125 
L 291.538512 161.361409 
L 292.490579 161.237259 
L 292.807934 160.834584 
L 293.442645 160.752001 
L 293.76 160.482843 
L 295.346777 160.085689 
L 296.298843 159.762647 
L 296.616198 159.754941 
L 297.88562 159.155757 
L 300.107107 158.571145 
L 300.741818 158.368747 
L 302.01124 158.013763 
L 302.328595 157.662881 
L 303.915372 157.292515 
L 304.550083 157.172191 
L 305.184793 156.92117 
L 308.358347 156.38395 
L 308.675702 156.224441 
L 308.993058 156.195016 
L 309.310413 156.024077 
L 309.627769 156.020338 
L 310.579835 155.607115 
L 311.531901 155.380333 
L 313.436033 154.868536 
L 314.705455 154.781737 
L 315.340165 154.498788 
L 315.657521 154.418955 
L 315.974876 154.204235 
L 316.609587 154.14887 
L 316.926942 153.9229 
L 318.196364 153.793421 
L 319.465785 153.430578 
L 320.100496 153.242343 
L 321.052562 153.106015 
L 327.399669 151.711392 
L 327.717025 151.551221 
L 328.03438 151.52805 
L 328.351736 151.175692 
L 329.938512 150.774433 
L 330.255868 150.564415 
L 330.890579 150.513243 
L 331.207934 150.128671 
L 331.842645 149.953751 
L 332.16 149.672699 
L 332.477355 149.671806 
L 333.746777 149.120041 
L 335.016198 148.673047 
L 335.333554 148.376881 
L 335.650909 148.314619 
L 337.237686 147.424431 
L 337.555041 146.922644 
L 337.872397 146.839379 
L 338.189752 146.603993 
L 338.507107 145.484148 
L 338.824463 145.068249 
L 339.459174 143.684602 
L 339.776529 142.966853 
L 340.093884 142.686582 
L 340.41124 142.041742 
L 341.04595 141.849888 
L 341.363306 141.089576 
L 341.998017 140.937152 
L 342.315372 140.587285 
L 342.632727 140.523616 
L 343.902149 139.766767 
L 344.53686 138.927218 
L 345.806281 138.58097 
L 346.123636 138.241613 
L 346.758347 138.140996 
L 347.393058 137.760401 
L 348.027769 137.11327 
L 348.345124 136.893187 
L 348.662479 136.52466 
L 349.614545 136.46897 
L 350.249256 136.12978 
L 350.883967 135.909249 
L 351.201322 135.631157 
L 351.518678 135.611474 
L 352.153388 135.134089 
L 352.788099 135.012815 
L 353.42281 134.717286 
L 353.740165 134.581768 
L 354.057521 134.323066 
L 354.374876 133.553067 
L 355.009587 133.274975 
L 355.961653 132.454355 
L 356.279008 132.419967 
L 356.596364 131.491044 
L 356.913719 131.451476 
L 357.231074 131.173536 
L 357.54843 131.141335 
L 357.865785 130.33451 
L 358.817851 129.416625 
L 359.135207 128.449837 
L 359.452562 126.93644 
L 360.404628 126.18509 
L 360.721983 124.738321 
L 361.356694 124.460381 
L 361.67405 123.123494 
L 361.991405 122.749548 
L 362.30876 122.743643 
L 362.943471 121.267652 
L 363.895537 120.548717 
L 364.212893 120.393366 
L 364.530248 119.728429 
L 364.847603 119.572896 
L 365.482314 118.291833 
L 365.799669 118.192535 
L 366.117025 117.377669 
L 366.43438 117.372014 
L 366.751736 117.174867 
L 367.069091 116.256279 
L 367.703802 115.90657 
L 368.021157 115.020501 
L 368.338512 114.974047 
L 368.973223 114.163758 
L 369.607934 113.613799 
L 369.925289 113.303387 
L 370.242645 111.660205 
L 371.194711 111.467492 
L 371.512066 111.256631 
L 372.146777 111.102567 
L 372.464132 110.950325 
L 372.781488 109.485453 
L 374.368264 109.056187 
L 374.68562 108.007203 
L 375.002975 107.601012 
L 375.320331 106.699019 
L 375.637686 106.437885 
L 375.955041 105.680578 
L 376.272397 105.650036 
L 376.589752 105.243845 
L 377.541818 101.964209 
L 378.176529 98.068622 
L 378.493884 96.32581 
L 380.080661 94.12499 
L 380.398017 93.338382 
L 381.032727 93.035154 
L 381.667438 92.130359 
L 381.984793 90.981214 
L 383.254215 90.319925 
L 383.57157 88.48543 
L 384.206281 87.962758 
L 384.523636 76.791202 
L 384.840992 74.629404 
L 385.158347 74.434034 
L 385.793058 72.272237 
L 386.110413 72.136989 
L 386.427769 70.34097 
L 387.062479 68.379903 
L 387.69719 67.76698 
L 388.014545 66.767767 
L 388.649256 66.111465 
L 388.966612 64.634807 
L 389.283967 63.879428 
L 389.601322 63.623344 
L 389.918678 62.673741 
L 390.236033 62.379716 
L 390.553388 62.340628 
L 390.870744 61.279889 
L 391.505455 60.929676 
L 392.140165 59.943737 
L 392.457521 59.593524 
L 392.774876 58.173265 
L 393.092231 58.147718 
L 393.409587 57.797507 
L 393.726942 57.136254 
L 394.044298 56.786041 
L 394.361653 56.673553 
L 394.679008 56.25223 
L 394.996364 56.186652 
L 395.631074 55.853539 
L 395.94843 55.83644 
L 396.265785 55.503328 
L 396.58314 54.916077 
L 396.900496 54.63765 
L 397.217851 54.574516 
L 398.169917 53.670823 
L 398.487273 53.568 
L 398.487273 53.568 
" clip-path="url(#pade94d3607)" style="fill: none; stroke: #1f77b4; stroke-width: 1.5; stroke-linecap: square"/>
   </g>
   <g id="line2d_15">
    <path d="M 73.832727 184.433711 
L 74.150083 183.283118 
L 74.467438 183.283118 
L 74.784793 182.299597 
L 75.102149 182.095305 
L 75.73686 182.095305 
L 76.054215 181.727311 
L 76.37157 181.106086 
L 78.275702 180.971848 
L 78.910413 180.971848 
L 79.227769 180.621378 
L 79.545124 180.621378 
L 80.179835 180.416128 
L 80.49719 180.416128 
L 80.814545 180.028584 
L 81.131901 179.846164 
L 86.209587 179.735064 
L 87.161653 179.669818 
L 87.479008 179.388994 
L 88.74843 179.229695 
L 89.700496 179.229695 
L 90.017851 179.105479 
L 90.652562 179.105479 
L 90.969917 178.961183 
L 91.604628 178.886016 
L 91.921983 178.692675 
L 99.221157 178.692675 
L 99.855868 178.57747 
L 101.442645 178.550219 
L 101.76 178.550219 
L 102.077355 178.430806 
L 104.933554 178.35731 
L 105.250909 178.193551 
L 106.202975 178.185297 
L 106.520331 177.81572 
L 110.01124 177.507327 
L 110.328595 177.301001 
L 129.369917 177.300992 
L 130.004628 177.116152 
L 130.956694 177.073472 
L 132.860826 176.948614 
L 133.178182 176.763972 
L 135.399669 176.725309 
L 135.717025 176.56785 
L 138.255868 176.502103 
L 163.009587 176.502103 
L 163.326942 176.338681 
L 167.769917 176.308815 
L 168.087273 176.10656 
L 169.67405 176.017736 
L 170.30876 175.934293 
L 180.146777 175.8505 
L 181.416198 175.765397 
L 182.68562 175.765397 
L 183.320331 175.372289 
L 186.81124 175.311454 
L 187.763306 175.166451 
L 188.080661 175.166451 
L 188.715372 174.5734 
L 283.604628 174.5734 
L 284.239339 173.98035 
L 285.191405 173.921797 
L 285.826116 173.800847 
L 288.999669 173.774511 
L 289.63438 173.381404 
L 300.107107 173.271341 
L 301.693884 173.212508 
L 302.64595 173.129065 
L 306.454215 172.808119 
L 308.993058 172.808119 
L 309.310413 172.644697 
L 336.602975 172.57895 
L 336.920331 172.421492 
L 339.141818 172.382828 
L 339.459174 172.198187 
L 340.728595 172.176274 
L 341.363306 172.073329 
L 342.632727 171.963056 
L 343.267438 171.845808 
L 361.991405 171.8458 
L 362.30876 171.639474 
L 362.626116 171.639474 
L 362.943471 171.452701 
L 365.482314 171.352922 
L 365.799669 171.331081 
L 366.117025 170.961503 
L 367.069091 170.95325 
L 367.386446 170.789491 
L 370.242645 170.715995 
L 370.56 170.596581 
L 372.781488 170.56933 
L 373.416198 170.454125 
L 380.398017 170.454125 
L 381.032727 170.185618 
L 381.350083 170.185618 
L 381.667438 170.041322 
L 382.302149 170.041322 
L 382.619504 169.917105 
L 384.523636 169.819887 
L 384.840992 169.757807 
L 385.158347 169.476982 
L 386.110413 169.411737 
L 391.188099 169.300636 
L 391.505455 169.118216 
L 391.82281 168.730673 
L 392.457521 168.652291 
L 392.774876 168.525422 
L 393.092231 168.525422 
L 393.409587 168.174953 
L 395.631074 168.078829 
L 395.94843 168.040715 
L 396.265785 167.41949 
L 396.58314 167.051495 
L 397.217851 167.051495 
L 397.535207 166.847204 
L 397.852562 165.863682 
L 398.169917 165.863682 
L 398.487273 164.71309 
L 398.487273 164.71309 
" clip-path="url(#pade94d3607)" style="fill: none; stroke: #ff7f0e; stroke-width: 1.5; stroke-linecap: square"/>
   </g>
   <g id="patch_3">
    <path d="M 57.6 307.584 
L 57.6 41.472 
" style="fill: none; stroke: #000000; stroke-width: 0.8; stroke-linejoin: miter; stroke-linecap: square"/>
   </g>
   <g id="patch_4">
    <path d="M 414.72 307.584 
L 414.72 41.472 
" style="fill: none; stroke: #000000; stroke-width: 0.8; stroke-linejoin: miter; stroke-linecap: square"/>
   </g>
   <g id="patch_5">
    <path d="M 57.6 307.584 
L 414.72 307.584 
" style="fill: none; stroke: #000000; stroke-width: 0.8; stroke-linejoin: miter; stroke-linecap: square"/>
   </g>
   <g id="patch_6">
    <path d="M 57.6 41.472 
L 414.72 41.472 
" style="fill: none; stroke: #000000; stroke-width: 0.8; stroke-linejoin: miter; stroke-linecap: square"/>
   </g>
   <g id="legend_1">
    <g id="patch_7">
     <path d="M 64.6 78.82825 
L 129.342187 78.82825 
Q 131.342187 78.82825 131.342187 76.82825 
L 131.342187 48.472 
Q 131.342187 46.472 129.342187 46.472 
L 64.6 46.472 
Q 62.6 46.472 62.6 48.472 
L 62.6 76.82825 
Q 62.6 78.82825 64.6 78.82825 
z
" style="fill: #ffffff; opacity: 0.8; stroke: #cccccc; stroke-linejoin: miter"/>
    </g>
    <g id="line2d_16">
     <path d="M 66.6 54.570437 
L 76.6 54.570437 
L 86.6 54.570437 
" style="fill: none; stroke: #1f77b4; stroke-width: 1.5; stroke-linecap: square"/>
    </g>
    <g id="text_16">
     <!-- qc -->
     <g transform="translate(94.6 58.070437) scale(0.1 -0.1)">
      <defs>
       <path id="DejaVuSans-71" d="M 947 1747 
Q 947 1113 1208 752 
Q 1469 391 1925 391 
Q 2381 391 2643 752 
Q 2906 1113 2906 1747 
Q 2906 2381 2643 2742 
Q 2381 3103 1925 3103 
Q 1469 3103 1208 2742 
Q 947 2381 947 1747 
z
M 2906 525 
Q 2725 213 2448 61 
Q 2172 -91 1784 -91 
Q 1150 -91 751 415 
Q 353 922 353 1747 
Q 353 2572 751 3078 
Q 1150 3584 1784 3584 
Q 2172 3584 2448 3432 
Q 2725 3281 2906 2969 
L 2906 3500 
L 3481 3500 
L 3481 -1331 
L 2906 -1331 
L 2906 525 
z
" transform="scale(0.015625)"/>
       <path id="DejaVuSans-63" d="M 3122 3366 
L 3122 2828 
Q 2878 2963 2633 3030 
Q 2388 3097 2138 3097 
Q 1578 3097 1268 2742 
Q 959 2388 959 1747 
Q 959 1106 1268 751 
Q 1578 397 2138 397 
Q 2388 397 2633 464 
Q 2878 531 3122 666 
L 3122 134 
Q 2881 22 2623 -34 
Q 2366 -91 2075 -91 
Q 1284 -91 818 406 
Q 353 903 353 1747 
Q 353 2603 823 3093 
Q 1294 3584 2113 3584 
Q 2378 3584 2631 3529 
Q 2884 3475 3122 3366 
z
" transform="scale(0.015625)"/>
      </defs>
      <use xlink:href="#DejaVuSans-71"/>
      <use xlink:href="#DejaVuSans-63" x="63.476562"/>
     </g>
    </g>
    <g id="line2d_17">
     <path d="M 66.6 69.248562 
L 76.6 69.248562 
L 86.6 69.248562 
" style="fill: none; stroke: #ff7f0e; stroke-width: 1.5; stroke-linecap: square"/>
    </g>
    <g id="text_17">
     <!-- Trotter -->
     <g transform="translate(94.6 72.748562) scale(0.1 -0.1)">
      <defs>
       <path id="DejaVuSans-54" d="M -19 4666 
L 3928 4666 
L 3928 4134 
L 2272 4134 
L 2272 0 
L 1638 0 
L 1638 4134 
L -19 4134 
L -19 4666 
z
" transform="scale(0.015625)"/>
       <path id="DejaVuSans-72" d="M 2631 2963 
Q 2534 3019 2420 3045 
Q 2306 3072 2169 3072 
Q 1681 3072 1420 2755 
Q 1159 2438 1159 1844 
L 1159 0 
L 581 0 
L 581 3500 
L 1159 3500 
L 1159 2956 
Q 1341 3275 1631 3429 
Q 1922 3584 2338 3584 
Q 2397 3584 2469 3576 
Q 2541 3569 2628 3553 
L 2631 2963 
z
" transform="scale(0.015625)"/>
       <path id="DejaVuSans-6f" d="M 1959 3097 
Q 1497 3097 1228 2736 
Q 959 2375 959 1747 
Q 959 1119 1226 758 
Q 1494 397 1959 397 
Q 2419 397 2687 759 
Q 2956 1122 2956 1747 
Q 2956 2369 2687 2733 
Q 2419 3097 1959 3097 
z
M 1959 3584 
Q 2709 3584 3137 3096 
Q 3566 2609 3566 1747 
Q 3566 888 3137 398 
Q 2709 -91 1959 -91 
Q 1206 -91 779 398 
Q 353 888 353 1747 
Q 353 2609 779 3096 
Q 1206 3584 1959 3584 
z
" transform="scale(0.015625)"/>
       <path id="DejaVuSans-65" d="M 3597 1894 
L 3597 1613 
L 953 1613 
Q 991 1019 1311 708 
Q 1631 397 2203 397 
Q 2534 397 2845 478 
Q 3156 559 3463 722 
L 3463 178 
Q 3153 47 2828 -22 
Q 2503 -91 2169 -91 
Q 1331 -91 842 396 
Q 353 884 353 1716 
Q 353 2575 817 3079 
Q 1281 3584 2069 3584 
Q 2775 3584 3186 3129 
Q 3597 2675 3597 1894 
z
M 3022 2063 
Q 3016 2534 2758 2815 
Q 2500 3097 2075 3097 
Q 1594 3097 1305 2825 
Q 1016 2553 972 2059 
L 3022 2063 
z
" transform="scale(0.015625)"/>
      </defs>
      <use xlink:href="#DejaVuSans-54"/>
      <use xlink:href="#DejaVuSans-72" x="46.333984"/>
      <use xlink:href="#DejaVuSans-6f" x="85.197266"/>
      <use xlink:href="#DejaVuSans-74" x="146.378906"/>
      <use xlink:href="#DejaVuSans-74" x="185.587891"/>
      <use xlink:href="#DejaVuSans-65" x="224.796875"/>
      <use xlink:href="#DejaVuSans-72" x="286.320312"/>
     </g>
    </g>
   </g>
  </g>
 </g>
 <defs>
  <clipPath id="pade94d3607">
   <rect x="57.6" y="41.472" width="357.12" height="266.112"/>
  </clipPath>
 </defs>
</svg>
