<?xml version="1.0" encoding="utf-8" standalone="no"?>
<!DOCTYPE svg PUBLIC "-//W3C//DTD SVG 1.1//EN"
  "http://www.w3.org/Graphics/SVG/1.1/DTD/svg11.dtd">
<svg xmlns:xlink="http://www.w3.org/1999/xlink" width="460.8pt" height="345.6pt" viewBox="0 0 460.8 345.6" xmlns="http://www.w3.org/2000/svg" version="1.1">
 <metadata>
  <rdf:RDF xmlns:dc="http://purl.org/dc/elements/1.1/" xmlns:cc="http://creativecommons.org/ns#" xmlns:rdf="http://www.w3.org/1999/02/22-rdf-syntax-ns#">
   <cc:Work>
    <dc:type rdf:resource="http://purl.org/dc/dcmitype/StillImage"/>
    <dc:date>2024-08-23T11:21:08.480118</dc:date>
    <dc:format>image/svg+xml</dc:format>
    <dc:creator>
     <cc:Agent>
      <dc:title>Matplotlib v3.7.1, https://matplotlib.org/</dc:title>
     </cc:Agent>
    </dc:creator>
   </cc:Work>
  </rdf:RDF>
 </metadata>
 <defs>
  <style type="text/css">*{stroke-linejoin: round; stroke-linecap: butt}</style>
 </defs>
 <g id="figure_1">
  <g id="patch_1">
   <path d="M 0 345.6 
L 460.8 345.6 
L 460.8 0 
L 0 0 
z
" style="fill: #ffffff"/>
  </g>
  <g id="axes_1">
   <g id="patch_2">
    <path d="M 57.6 307.584 
L 414.72 307.584 
L 414.72 41.472 
L 57.6 41.472 
z
" style="fill: #ffffff"/>
   </g>
   <g id="matplotlib.axis_1">
    <g id="xtick_1">
     <g id="line2d_1">
      <defs>
       <path id="mba0f6628ba" d="M 0 0 
L 0 3.5 
" style="stroke: #000000; stroke-width: 0.8"/>
      </defs>
      <g>
       <use xlink:href="#mba0f6628ba" x="73.832727" y="307.584" style="stroke: #000000; stroke-width: 0.8"/>
      </g>
     </g>
     <g id="text_1">
      <!-- 0 -->
      <g transform="translate(70.651477 322.182437) scale(0.1 -0.1)">
       <defs>
        <path id="DejaVuSans-30" d="M 2034 4250 
Q 1547 4250 1301 3770 
Q 1056 3291 1056 2328 
Q 1056 1369 1301 889 
Q 1547 409 2034 409 
Q 2525 409 2770 889 
Q 3016 1369 3016 2328 
Q 3016 3291 2770 3770 
Q 2525 4250 2034 4250 
z
M 2034 4750 
Q 2819 4750 3233 4129 
Q 3647 3509 3647 2328 
Q 3647 1150 3233 529 
Q 2819 -91 2034 -91 
Q 1250 -91 836 529 
Q 422 1150 422 2328 
Q 422 3509 836 4129 
Q 1250 4750 2034 4750 
z
" transform="scale(0.015625)"/>
       </defs>
       <use xlink:href="#DejaVuSans-30"/>
      </g>
     </g>
    </g>
    <g id="xtick_2">
     <g id="line2d_2">
      <g>
       <use xlink:href="#mba0f6628ba" x="137.303802" y="307.584" style="stroke: #000000; stroke-width: 0.8"/>
      </g>
     </g>
     <g id="text_2">
      <!-- 200 -->
      <g transform="translate(127.760052 322.182437) scale(0.1 -0.1)">
       <defs>
        <path id="DejaVuSans-32" d="M 1228 531 
L 3431 531 
L 3431 0 
L 469 0 
L 469 531 
Q 828 903 1448 1529 
Q 2069 2156 2228 2338 
Q 2531 2678 2651 2914 
Q 2772 3150 2772 3378 
Q 2772 3750 2511 3984 
Q 2250 4219 1831 4219 
Q 1534 4219 1204 4116 
Q 875 4013 500 3803 
L 500 4441 
Q 881 4594 1212 4672 
Q 1544 4750 1819 4750 
Q 2544 4750 2975 4387 
Q 3406 4025 3406 3419 
Q 3406 3131 3298 2873 
Q 3191 2616 2906 2266 
Q 2828 2175 2409 1742 
Q 1991 1309 1228 531 
z
" transform="scale(0.015625)"/>
       </defs>
       <use xlink:href="#DejaVuSans-32"/>
       <use xlink:href="#DejaVuSans-30" x="63.623047"/>
       <use xlink:href="#DejaVuSans-30" x="127.246094"/>
      </g>
     </g>
    </g>
    <g id="xtick_3">
     <g id="line2d_3">
      <g>
       <use xlink:href="#mba0f6628ba" x="200.774876" y="307.584" style="stroke: #000000; stroke-width: 0.8"/>
      </g>
     </g>
     <g id="text_3">
      <!-- 400 -->
      <g transform="translate(191.231126 322.182437) scale(0.1 -0.1)">
       <defs>
        <path id="DejaVuSans-34" d="M 2419 4116 
L 825 1625 
L 2419 1625 
L 2419 4116 
z
M 2253 4666 
L 3047 4666 
L 3047 1625 
L 3713 1625 
L 3713 1100 
L 3047 1100 
L 3047 0 
L 2419 0 
L 2419 1100 
L 313 1100 
L 313 1709 
L 2253 4666 
z
" transform="scale(0.015625)"/>
       </defs>
       <use xlink:href="#DejaVuSans-34"/>
       <use xlink:href="#DejaVuSans-30" x="63.623047"/>
       <use xlink:href="#DejaVuSans-30" x="127.246094"/>
      </g>
     </g>
    </g>
    <g id="xtick_4">
     <g id="line2d_4">
      <g>
       <use xlink:href="#mba0f6628ba" x="264.24595" y="307.584" style="stroke: #000000; stroke-width: 0.8"/>
      </g>
     </g>
     <g id="text_4">
      <!-- 600 -->
      <g transform="translate(254.7022 322.182437) scale(0.1 -0.1)">
       <defs>
        <path id="DejaVuSans-36" d="M 2113 2584 
Q 1688 2584 1439 2293 
Q 1191 2003 1191 1497 
Q 1191 994 1439 701 
Q 1688 409 2113 409 
Q 2538 409 2786 701 
Q 3034 994 3034 1497 
Q 3034 2003 2786 2293 
Q 2538 2584 2113 2584 
z
M 3366 4563 
L 3366 3988 
Q 3128 4100 2886 4159 
Q 2644 4219 2406 4219 
Q 1781 4219 1451 3797 
Q 1122 3375 1075 2522 
Q 1259 2794 1537 2939 
Q 1816 3084 2150 3084 
Q 2853 3084 3261 2657 
Q 3669 2231 3669 1497 
Q 3669 778 3244 343 
Q 2819 -91 2113 -91 
Q 1303 -91 875 529 
Q 447 1150 447 2328 
Q 447 3434 972 4092 
Q 1497 4750 2381 4750 
Q 2619 4750 2861 4703 
Q 3103 4656 3366 4563 
z
" transform="scale(0.015625)"/>
       </defs>
       <use xlink:href="#DejaVuSans-36"/>
       <use xlink:href="#DejaVuSans-30" x="63.623047"/>
       <use xlink:href="#DejaVuSans-30" x="127.246094"/>
      </g>
     </g>
    </g>
    <g id="xtick_5">
     <g id="line2d_5">
      <g>
       <use xlink:href="#mba0f6628ba" x="327.717025" y="307.584" style="stroke: #000000; stroke-width: 0.8"/>
      </g>
     </g>
     <g id="text_5">
      <!-- 800 -->
      <g transform="translate(318.173275 322.182437) scale(0.1 -0.1)">
       <defs>
        <path id="DejaVuSans-38" d="M 2034 2216 
Q 1584 2216 1326 1975 
Q 1069 1734 1069 1313 
Q 1069 891 1326 650 
Q 1584 409 2034 409 
Q 2484 409 2743 651 
Q 3003 894 3003 1313 
Q 3003 1734 2745 1975 
Q 2488 2216 2034 2216 
z
M 1403 2484 
Q 997 2584 770 2862 
Q 544 3141 544 3541 
Q 544 4100 942 4425 
Q 1341 4750 2034 4750 
Q 2731 4750 3128 4425 
Q 3525 4100 3525 3541 
Q 3525 3141 3298 2862 
Q 3072 2584 2669 2484 
Q 3125 2378 3379 2068 
Q 3634 1759 3634 1313 
Q 3634 634 3220 271 
Q 2806 -91 2034 -91 
Q 1263 -91 848 271 
Q 434 634 434 1313 
Q 434 1759 690 2068 
Q 947 2378 1403 2484 
z
M 1172 3481 
Q 1172 3119 1398 2916 
Q 1625 2713 2034 2713 
Q 2441 2713 2670 2916 
Q 2900 3119 2900 3481 
Q 2900 3844 2670 4047 
Q 2441 4250 2034 4250 
Q 1625 4250 1398 4047 
Q 1172 3844 1172 3481 
z
" transform="scale(0.015625)"/>
       </defs>
       <use xlink:href="#DejaVuSans-38"/>
       <use xlink:href="#DejaVuSans-30" x="63.623047"/>
       <use xlink:href="#DejaVuSans-30" x="127.246094"/>
      </g>
     </g>
    </g>
    <g id="xtick_6">
     <g id="line2d_6">
      <g>
       <use xlink:href="#mba0f6628ba" x="391.188099" y="307.584" style="stroke: #000000; stroke-width: 0.8"/>
      </g>
     </g>
     <g id="text_6">
      <!-- 1000 -->
      <g transform="translate(378.463099 322.182437) scale(0.1 -0.1)">
       <defs>
        <path id="DejaVuSans-31" d="M 794 531 
L 1825 531 
L 1825 4091 
L 703 3866 
L 703 4441 
L 1819 4666 
L 2450 4666 
L 2450 531 
L 3481 531 
L 3481 0 
L 794 0 
L 794 531 
z
" transform="scale(0.015625)"/>
       </defs>
       <use xlink:href="#DejaVuSans-31"/>
       <use xlink:href="#DejaVuSans-30" x="63.623047"/>
       <use xlink:href="#DejaVuSans-30" x="127.246094"/>
       <use xlink:href="#DejaVuSans-30" x="190.869141"/>
      </g>
     </g>
    </g>
    <g id="text_7">
     <!-- n -->
     <g transform="translate(232.99125 335.860562) scale(0.1 -0.1)">
      <defs>
       <path id="DejaVuSans-6e" d="M 3513 2113 
L 3513 0 
L 2938 0 
L 2938 2094 
Q 2938 2591 2744 2837 
Q 2550 3084 2163 3084 
Q 1697 3084 1428 2787 
Q 1159 2491 1159 1978 
L 1159 0 
L 581 0 
L 581 3500 
L 1159 3500 
L 1159 2956 
Q 1366 3272 1645 3428 
Q 1925 3584 2291 3584 
Q 2894 3584 3203 3211 
Q 3513 2838 3513 2113 
z
" transform="scale(0.015625)"/>
      </defs>
      <use xlink:href="#DejaVuSans-6e"/>
     </g>
    </g>
   </g>
   <g id="matplotlib.axis_2">
    <g id="ytick_1">
     <g id="line2d_7">
      <defs>
       <path id="m4c4be87a15" d="M 0 0 
L -3.5 0 
" style="stroke: #000000; stroke-width: 0.8"/>
      </defs>
      <g>
       <use xlink:href="#m4c4be87a15" x="57.6" y="277.894139" style="stroke: #000000; stroke-width: 0.8"/>
      </g>
     </g>
     <g id="text_8">
      <!-- −8 -->
      <g transform="translate(35.857813 281.693358) scale(0.1 -0.1)">
       <defs>
        <path id="DejaVuSans-2212" d="M 678 2272 
L 4684 2272 
L 4684 1741 
L 678 1741 
L 678 2272 
z
" transform="scale(0.015625)"/>
       </defs>
       <use xlink:href="#DejaVuSans-2212"/>
       <use xlink:href="#DejaVuSans-38" x="83.789062"/>
      </g>
     </g>
    </g>
    <g id="ytick_2">
     <g id="line2d_8">
      <g>
       <use xlink:href="#m4c4be87a15" x="57.6" y="246.314814" style="stroke: #000000; stroke-width: 0.8"/>
      </g>
     </g>
     <g id="text_9">
      <!-- −6 -->
      <g transform="translate(35.857813 250.114033) scale(0.1 -0.1)">
       <use xlink:href="#DejaVuSans-2212"/>
       <use xlink:href="#DejaVuSans-36" x="83.789062"/>
      </g>
     </g>
    </g>
    <g id="ytick_3">
     <g id="line2d_9">
      <g>
       <use xlink:href="#m4c4be87a15" x="57.6" y="214.73549" style="stroke: #000000; stroke-width: 0.8"/>
      </g>
     </g>
     <g id="text_10">
      <!-- −4 -->
      <g transform="translate(35.857813 218.534709) scale(0.1 -0.1)">
       <use xlink:href="#DejaVuSans-2212"/>
       <use xlink:href="#DejaVuSans-34" x="83.789062"/>
      </g>
     </g>
    </g>
    <g id="ytick_4">
     <g id="line2d_10">
      <g>
       <use xlink:href="#m4c4be87a15" x="57.6" y="183.156166" style="stroke: #000000; stroke-width: 0.8"/>
      </g>
     </g>
     <g id="text_11">
      <!-- −2 -->
      <g transform="translate(35.857813 186.955384) scale(0.1 -0.1)">
       <use xlink:href="#DejaVuSans-2212"/>
       <use xlink:href="#DejaVuSans-32" x="83.789062"/>
      </g>
     </g>
    </g>
    <g id="ytick_5">
     <g id="line2d_11">
      <g>
       <use xlink:href="#m4c4be87a15" x="57.6" y="151.576841" style="stroke: #000000; stroke-width: 0.8"/>
      </g>
     </g>
     <g id="text_12">
      <!-- 0 -->
      <g transform="translate(44.2375 155.37606) scale(0.1 -0.1)">
       <use xlink:href="#DejaVuSans-30"/>
      </g>
     </g>
    </g>
    <g id="ytick_6">
     <g id="line2d_12">
      <g>
       <use xlink:href="#m4c4be87a15" x="57.6" y="119.997517" style="stroke: #000000; stroke-width: 0.8"/>
      </g>
     </g>
     <g id="text_13">
      <!-- 2 -->
      <g transform="translate(44.2375 123.796736) scale(0.1 -0.1)">
       <use xlink:href="#DejaVuSans-32"/>
      </g>
     </g>
    </g>
    <g id="ytick_7">
     <g id="line2d_13">
      <g>
       <use xlink:href="#m4c4be87a15" x="57.6" y="88.418192" style="stroke: #000000; stroke-width: 0.8"/>
      </g>
     </g>
     <g id="text_14">
      <!-- 4 -->
      <g transform="translate(44.2375 92.217411) scale(0.1 -0.1)">
       <use xlink:href="#DejaVuSans-34"/>
      </g>
     </g>
    </g>
    <g id="ytick_8">
     <g id="line2d_14">
      <g>
       <use xlink:href="#m4c4be87a15" x="57.6" y="56.838868" style="stroke: #000000; stroke-width: 0.8"/>
      </g>
     </g>
     <g id="text_15">
      <!-- 6 -->
      <g transform="translate(44.2375 60.638087) scale(0.1 -0.1)">
       <use xlink:href="#DejaVuSans-36"/>
      </g>
     </g>
    </g>
    <g id="text_16">
     <!-- E*t -->
     <g transform="translate(29.778125 182.147531) rotate(-90) scale(0.1 -0.1)">
      <defs>
       <path id="DejaVuSans-45" d="M 628 4666 
L 3578 4666 
L 3578 4134 
L 1259 4134 
L 1259 2753 
L 3481 2753 
L 3481 2222 
L 1259 2222 
L 1259 531 
L 3634 531 
L 3634 0 
L 628 0 
L 628 4666 
z
" transform="scale(0.015625)"/>
       <path id="DejaVuSans-2a" d="M 3009 3897 
L 1888 3291 
L 3009 2681 
L 2828 2375 
L 1778 3009 
L 1778 1831 
L 1422 1831 
L 1422 3009 
L 372 2375 
L 191 2681 
L 1313 3291 
L 191 3897 
L 372 4206 
L 1422 3572 
L 1422 4750 
L 1778 4750 
L 1778 3572 
L 2828 4206 
L 3009 3897 
z
" transform="scale(0.015625)"/>
       <path id="DejaVuSans-74" d="M 1172 4494 
L 1172 3500 
L 2356 3500 
L 2356 3053 
L 1172 3053 
L 1172 1153 
Q 1172 725 1289 603 
Q 1406 481 1766 481 
L 2356 481 
L 2356 0 
L 1766 0 
Q 1100 0 847 248 
Q 594 497 594 1153 
L 594 3053 
L 172 3053 
L 172 3500 
L 594 3500 
L 594 4494 
L 1172 4494 
z
" transform="scale(0.015625)"/>
      </defs>
      <use xlink:href="#DejaVuSans-45"/>
      <use xlink:href="#DejaVuSans-2a" x="63.183594"/>
      <use xlink:href="#DejaVuSans-74" x="113.183594"/>
     </g>
    </g>
   </g>
   <g id="line2d_15">
    <path d="M 73.832727 295.488 
L 74.467438 283.997649 
L 74.784793 282.890678 
L 75.102149 276.539907 
L 75.73686 272.912995 
L 76.054215 271.785242 
L 76.37157 271.29093 
L 76.688926 269.23266 
L 77.323636 266.720776 
L 77.640992 265.939207 
L 77.958347 263.927395 
L 78.275702 263.602505 
L 78.593058 263.052287 
L 79.227769 260.28759 
L 79.545124 259.973663 
L 80.49719 257.771008 
L 80.814545 257.6561 
L 81.449256 256.654572 
L 81.766612 255.707455 
L 82.401322 253.24252 
L 82.718678 252.451551 
L 83.036033 252.124146 
L 83.353388 251.30802 
L 83.670744 251.004088 
L 83.988099 250.298579 
L 84.305455 250.23346 
L 84.62281 249.271321 
L 85.257521 248.555785 
L 85.892231 246.686459 
L 86.209587 246.371876 
L 86.526942 245.14181 
L 86.844298 245.039267 
L 87.796364 243.395449 
L 88.113719 243.198583 
L 88.431074 242.745477 
L 88.74843 242.656105 
L 89.38314 241.24571 
L 89.700496 241.172873 
L 90.017851 240.219741 
L 90.335207 240.181151 
L 90.652562 239.467983 
L 90.969917 239.449125 
L 91.604628 238.393337 
L 91.921983 237.980237 
L 92.556694 237.478418 
L 93.826116 235.193214 
L 94.143471 235.087782 
L 94.460826 234.496342 
L 95.095537 233.96921 
L 95.412893 233.833156 
L 96.047603 232.779935 
L 96.364959 232.137431 
L 96.999669 231.881224 
L 97.317025 231.197598 
L 97.63438 231.147422 
L 97.951736 230.827675 
L 98.269091 230.699056 
L 98.586446 229.872812 
L 98.903802 229.839695 
L 99.221157 229.309649 
L 99.538512 229.196044 
L 99.855868 228.659094 
L 100.173223 228.651483 
L 100.807934 227.873829 
L 101.442645 227.56806 
L 101.76 227.177582 
L 102.077355 227.129434 
L 102.394711 226.684429 
L 102.712066 226.010159 
L 103.029421 225.94719 
L 103.664132 225.416903 
L 103.981488 224.686879 
L 104.298843 224.659291 
L 104.616198 224.419554 
L 105.250909 224.184805 
L 105.568264 223.872423 
L 106.202975 222.658844 
L 106.837686 222.410859 
L 107.472397 221.364758 
L 107.789752 221.241685 
L 108.107107 220.909921 
L 108.741818 220.729016 
L 109.059174 219.938556 
L 109.376529 219.546898 
L 110.328595 219.3512 
L 110.64595 218.592761 
L 111.280661 218.478343 
L 111.598017 217.912035 
L 111.915372 217.884366 
L 112.867438 217.139123 
L 114.77157 216.190861 
L 115.088926 215.632474 
L 115.723636 215.340775 
L 116.040992 214.845044 
L 116.358347 214.577405 
L 116.675702 214.476793 
L 117.627769 213.163027 
L 117.945124 212.735448 
L 118.89719 212.3667 
L 119.214545 212.016104 
L 119.849256 211.75627 
L 120.166612 211.46627 
L 121.118678 211.036788 
L 122.070744 210.266941 
L 122.388099 209.51682 
L 122.705455 209.370766 
L 123.02281 208.924971 
L 123.340165 208.862574 
L 123.657521 208.6297 
L 124.292231 208.526661 
L 125.244298 207.74026 
L 125.561653 207.420308 
L 126.513719 206.941626 
L 127.14843 206.365466 
L 127.465785 206.174126 
L 127.78314 206.142435 
L 128.735207 205.356007 
L 129.369917 205.118764 
L 129.687273 204.5514 
L 130.321983 204.440329 
L 131.27405 203.630142 
L 131.591405 203.593144 
L 131.90876 203.229473 
L 132.226116 203.082418 
L 132.860826 202.974408 
L 133.812893 202.376486 
L 138.255868 199.793706 
L 138.890579 199.705658 
L 139.525289 199.150111 
L 139.842645 199.025232 
L 140.477355 198.624119 
L 140.794711 198.613076 
L 141.429421 198.21651 
L 142.698843 197.501543 
L 143.333554 197.050787 
L 144.602975 196.774079 
L 144.920331 196.189631 
L 146.824463 195.397527 
L 147.141818 195.361613 
L 147.459174 194.873194 
L 149.363306 194.024282 
L 149.680661 193.995527 
L 150.315372 193.513699 
L 150.632727 193.473508 
L 151.267438 193.00938 
L 151.902149 192.910214 
L 153.806281 191.732865 
L 154.758347 191.438061 
L 155.075702 191.336429 
L 155.393058 191.028809 
L 158.566612 189.606391 
L 158.883967 189.228891 
L 159.201322 189.059834 
L 159.518678 189.049308 
L 160.788099 188.384674 
L 161.105455 188.091424 
L 162.692231 187.625566 
L 168.721983 185.319421 
L 169.356694 185.138708 
L 169.67405 184.876397 
L 170.30876 184.712979 
L 172.212893 183.809914 
L 175.069091 182.601071 
L 175.386446 182.341471 
L 175.703802 182.247274 
L 176.021157 182.022738 
L 176.655868 181.913016 
L 178.242645 181.329154 
L 179.194711 180.947062 
L 180.146777 180.626741 
L 180.464132 180.507779 
L 180.781488 180.217837 
L 181.733554 179.864918 
L 183.002975 179.419258 
L 183.637686 179.063418 
L 184.589752 178.827624 
L 184.907107 178.606721 
L 185.224463 178.533875 
L 185.541818 178.30553 
L 185.859174 178.272509 
L 186.493884 177.873201 
L 187.128595 177.625783 
L 187.44595 177.578653 
L 187.763306 177.352674 
L 188.398017 177.285036 
L 189.032727 176.922419 
L 191.254215 176.15158 
L 191.57157 175.909285 
L 191.888926 175.886233 
L 192.523636 175.612435 
L 195.062479 174.792326 
L 195.69719 174.48197 
L 196.649256 174.134907 
L 197.601322 173.679008 
L 198.236033 173.526889 
L 198.870744 173.210635 
L 200.140165 172.823475 
L 201.092231 172.603948 
L 201.409587 172.296677 
L 204.900496 171.100936 
L 205.535207 170.766789 
L 206.487273 170.562836 
L 208.07405 169.967769 
L 208.70876 169.83529 
L 209.343471 169.532545 
L 210.295537 169.285089 
L 210.930248 169.03467 
L 211.247603 168.796003 
L 212.199669 168.536929 
L 213.151736 168.259895 
L 216.325289 167.231248 
L 216.96 167.041976 
L 217.277355 166.949729 
L 217.912066 166.64471 
L 222.037686 165.236744 
L 223.624463 164.793751 
L 224.576529 164.436704 
L 225.21124 164.223709 
L 226.798017 163.499855 
L 227.432727 163.345882 
L 230.288926 162.326678 
L 230.606281 162.088681 
L 231.240992 161.952246 
L 233.145124 161.214248 
L 234.09719 160.92678 
L 237.905455 159.580402 
L 239.174876 159.186964 
L 241.079008 158.288725 
L 242.031074 158.00231 
L 242.665785 157.795451 
L 242.98314 157.749693 
L 243.617851 157.501954 
L 247.743471 156.258046 
L 248.378182 156.007077 
L 249.012893 155.84014 
L 256.629421 153.248329 
L 257.264132 152.96389 
L 259.802975 152.376705 
L 260.437686 152.054778 
L 264.880661 150.512644 
L 268.37157 149.511405 
L 269.323636 149.147992 
L 269.958347 148.896407 
L 273.449256 147.607216 
L 274.083967 147.415528 
L 275.353388 147.144499 
L 276.62281 146.688854 
L 278.844298 145.883403 
L 279.796364 145.687035 
L 280.74843 145.282434 
L 290.903802 142.146898 
L 291.855868 141.846681 
L 292.807934 141.488643 
L 294.077355 141.146536 
L 294.712066 140.864449 
L 296.933554 140.280008 
L 297.568264 139.869734 
L 298.202975 139.724611 
L 299.472397 139.391104 
L 300.107107 139.112042 
L 301.693884 138.709348 
L 302.01124 138.427649 
L 302.328595 138.37446 
L 303.280661 137.913731 
L 303.915372 137.750245 
L 304.550083 137.406301 
L 306.13686 136.897063 
L 308.040992 136.352067 
L 308.993058 135.9055 
L 310.262479 135.423512 
L 310.89719 135.135522 
L 312.166612 134.650348 
L 312.801322 134.456156 
L 313.436033 134.216055 
L 314.705455 133.714748 
L 315.657521 133.465143 
L 317.561653 132.720292 
L 318.513719 132.486422 
L 323.27405 130.842582 
L 323.90876 130.457364 
L 324.543471 130.317498 
L 325.495537 129.852537 
L 327.399669 129.159543 
L 328.669091 128.538869 
L 328.986446 128.505682 
L 329.621157 128.267642 
L 331.207934 127.601489 
L 331.525289 127.289231 
L 332.477355 127.02871 
L 333.746777 126.419513 
L 334.381488 126.19783 
L 335.016198 125.954826 
L 335.333554 125.659287 
L 336.920331 124.937906 
L 337.237686 124.643187 
L 338.824463 124.166825 
L 340.093884 123.657148 
L 341.04595 123.070842 
L 341.680661 122.870117 
L 341.998017 122.622476 
L 342.632727 122.4176 
L 342.950083 122.323743 
L 343.584793 121.94005 
L 344.219504 121.594885 
L 345.17157 121.229338 
L 346.123636 120.902911 
L 347.075702 120.555651 
L 347.710413 120.270134 
L 348.345124 120.044931 
L 348.979835 119.5379 
L 349.29719 119.514751 
L 349.931901 119.176798 
L 351.836033 118.43028 
L 352.153388 117.978106 
L 353.105455 117.609143 
L 354.374876 116.752705 
L 354.692231 116.63076 
L 355.009587 116.232683 
L 355.326942 116.172515 
L 355.961653 115.827124 
L 359.769917 113.874181 
L 361.039339 113.235658 
L 361.356694 113.155331 
L 361.991405 112.671999 
L 362.626116 112.409035 
L 362.943471 112.098272 
L 363.260826 112.014897 
L 364.212893 111.317519 
L 364.530248 111.254093 
L 366.43438 109.712068 
L 366.751736 109.300892 
L 367.386446 109.077433 
L 368.021157 108.691559 
L 368.338512 108.241369 
L 369.607934 107.42199 
L 370.242645 107.180278 
L 370.56 106.979509 
L 370.877355 106.920076 
L 372.781488 105.282131 
L 373.098843 105.184888 
L 374.68562 104.135183 
L 375.002975 103.943781 
L 375.320331 103.490486 
L 376.272397 103.200816 
L 376.589752 102.872248 
L 376.907107 102.354547 
L 377.541818 101.925768 
L 377.859174 101.373106 
L 378.176529 101.1741 
L 379.128595 100.246293 
L 379.44595 100.020821 
L 380.080661 99.169428 
L 380.715372 98.742941 
L 381.350083 98.160111 
L 381.984793 97.550801 
L 382.619504 96.924387 
L 382.93686 96.455425 
L 383.254215 96.318592 
L 383.888926 95.587162 
L 384.523636 95.341626 
L 384.840992 94.79846 
L 385.158347 94.56786 
L 385.475702 94.125437 
L 385.793058 93.99948 
L 386.110413 93.330749 
L 386.427769 93.229567 
L 387.379835 91.57602 
L 387.69719 91.377445 
L 390.236033 87.211508 
L 390.553388 86.927948 
L 390.870744 86.412073 
L 391.82281 84.028364 
L 392.140165 83.728143 
L 392.457521 83.135239 
L 392.774876 82.786796 
L 393.092231 80.986486 
L 393.409587 80.884547 
L 393.726942 79.867281 
L 394.044298 79.628391 
L 394.679008 77.404177 
L 395.313719 75.944433 
L 395.94843 73.045377 
L 396.265785 69.854727 
L 396.58314 69.422367 
L 396.900496 67.33179 
L 397.217851 66.182238 
L 397.535207 63.660373 
L 397.852562 59.897449 
L 398.169917 58.52975 
L 398.487273 53.568 
L 398.487273 53.568 
" clip-path="url(#p0a59b8e2d8)" style="fill: none; stroke: #1f77b4; stroke-width: 1.5; stroke-linecap: square"/>
   </g>
   <g id="line2d_16">
    <path d="M 73.832727 232.299992 
L 74.150083 222.880469 
L 74.467438 222.880469 
L 74.784793 214.828696 
L 75.102149 213.156228 
L 75.73686 213.156228 
L 76.054215 210.143579 
L 76.37157 205.05781 
L 76.688926 204.745783 
L 77.006281 204.745783 
L 77.323636 203.958849 
L 78.910413 203.958849 
L 79.227769 201.089667 
L 79.545124 201.089667 
L 79.862479 200.051033 
L 80.179835 199.40935 
L 80.49719 199.40935 
L 80.814545 196.236657 
L 81.131901 194.743245 
L 82.083967 194.717567 
L 82.401322 193.833699 
L 86.844298 193.783516 
L 87.161653 193.299556 
L 87.479008 191.000536 
L 87.796364 190.492307 
L 88.113719 189.696411 
L 89.700496 189.696411 
L 90.017851 188.679492 
L 90.652562 188.679492 
L 90.969917 187.498189 
L 91.287273 187.498189 
L 91.604628 186.882823 
L 91.921983 185.300005 
L 99.221157 185.300005 
L 99.538512 184.356858 
L 99.855868 184.356858 
L 100.173223 184.133764 
L 101.76 184.133764 
L 102.077355 183.156166 
L 103.664132 183.156166 
L 103.981488 182.935656 
L 104.298843 182.554477 
L 104.933554 182.554477 
L 105.250909 181.213833 
L 106.202975 181.146268 
L 106.520331 178.120656 
L 107.155041 177.821704 
L 107.472397 177.821704 
L 107.789752 177.124992 
L 109.376529 177.124992 
L 109.693884 175.595941 
L 110.01124 175.595941 
L 110.328595 173.906819 
L 129.369917 173.906749 
L 129.687273 172.946879 
L 130.321983 172.044112 
L 131.27405 171.986555 
L 131.591405 171.201337 
L 131.90876 171.201337 
L 132.226116 171.021941 
L 132.860826 171.021941 
L 133.178182 169.510343 
L 133.495537 169.510343 
L 133.812893 169.193816 
L 135.399669 169.193816 
L 135.717025 167.904754 
L 136.669091 167.366503 
L 163.009587 167.366503 
L 163.326942 166.028623 
L 167.135207 166.028623 
L 167.452562 165.784118 
L 167.769917 165.784118 
L 168.087273 164.128318 
L 168.404628 164.128318 
L 168.721983 163.686354 
L 169.356694 163.686354 
L 169.67405 163.401147 
L 169.991405 162.718027 
L 171.578182 162.718027 
L 172.212893 162.236379 
L 172.530248 162.236379 
L 172.847603 162.032042 
L 180.146777 162.032042 
L 180.464132 161.680325 
L 180.781488 161.680325 
L 181.098843 161.33533 
L 182.68562 161.33533 
L 183.320331 158.117087 
L 185.541818 158.088459 
L 185.859174 157.901479 
L 186.493884 157.901479 
L 186.81124 157.619051 
L 187.128595 156.911303 
L 187.44595 156.911303 
L 187.763306 156.431953 
L 188.080661 156.431953 
L 188.398017 154.430794 
L 188.715372 151.576841 
L 283.604628 151.576841 
L 284.239339 146.721729 
L 284.556694 146.721729 
L 284.87405 146.242379 
L 285.191405 146.242379 
L 285.50876 145.534632 
L 285.826116 145.252203 
L 286.460826 145.252203 
L 286.778182 145.065223 
L 288.999669 145.036595 
L 289.63438 141.818352 
L 291.221157 141.818352 
L 291.538512 141.473358 
L 291.855868 141.473358 
L 292.173223 141.121641 
L 299.472397 141.121641 
L 299.789752 140.917303 
L 300.107107 140.917303 
L 300.741818 140.435655 
L 302.328595 140.435655 
L 302.64595 139.752535 
L 302.963306 139.467329 
L 303.598017 139.467329 
L 303.915372 139.025365 
L 304.232727 139.025365 
L 304.550083 137.369564 
L 304.867438 137.369564 
L 305.184793 137.12506 
L 308.993058 137.12506 
L 309.310413 135.787179 
L 335.968264 135.713798 
L 336.602975 135.248928 
L 336.920331 133.959867 
L 338.507107 133.959867 
L 338.824463 133.643339 
L 339.141818 133.643339 
L 339.459174 132.131741 
L 340.093884 132.131741 
L 340.41124 131.952346 
L 340.728595 131.952346 
L 341.04595 131.167127 
L 341.680661 131.109571 
L 341.998017 131.109571 
L 342.315372 130.760157 
L 342.632727 130.206804 
L 342.950083 129.246933 
L 361.991405 129.246863 
L 362.30876 127.557741 
L 362.626116 127.557741 
L 362.943471 126.02869 
L 364.530248 126.02869 
L 364.847603 125.331979 
L 365.164959 125.331979 
L 365.799669 125.033027 
L 366.117025 122.007415 
L 367.069091 121.939849 
L 367.386446 120.599206 
L 368.021157 120.599206 
L 368.655868 119.997517 
L 370.242645 119.997517 
L 370.56 119.019919 
L 372.146777 119.019919 
L 372.464132 118.796824 
L 372.781488 118.796824 
L 373.098843 117.853677 
L 380.398017 117.853677 
L 380.715372 116.27086 
L 381.032727 115.655494 
L 381.350083 115.655494 
L 381.667438 114.47419 
L 382.302149 114.47419 
L 382.619504 113.457271 
L 384.206281 113.457271 
L 384.840992 112.153146 
L 385.158347 109.854126 
L 385.475702 109.370166 
L 389.918678 109.319983 
L 390.236033 108.436116 
L 391.188099 108.410437 
L 391.505455 106.917025 
L 391.82281 103.744332 
L 392.140165 103.744332 
L 392.457521 103.102649 
L 392.774876 102.064015 
L 393.092231 102.064015 
L 393.409587 99.194834 
L 394.996364 99.194834 
L 395.313719 98.407899 
L 395.631074 98.407899 
L 395.94843 98.095872 
L 396.265785 93.010103 
L 396.58314 89.997454 
L 397.217851 89.997454 
L 397.535207 88.324987 
L 397.852562 80.273213 
L 398.169917 80.273213 
L 398.487273 70.85369 
L 398.487273 70.85369 
" clip-path="url(#p0a59b8e2d8)" style="fill: none; stroke: #ff7f0e; stroke-width: 1.5; stroke-linecap: square"/>
   </g>
   <g id="patch_3">
    <path d="M 57.6 307.584 
L 57.6 41.472 
" style="fill: none; stroke: #000000; stroke-width: 0.8; stroke-linejoin: miter; stroke-linecap: square"/>
   </g>
   <g id="patch_4">
    <path d="M 414.72 307.584 
L 414.72 41.472 
" style="fill: none; stroke: #000000; stroke-width: 0.8; stroke-linejoin: miter; stroke-linecap: square"/>
   </g>
   <g id="patch_5">
    <path d="M 57.6 307.584 
L 414.72 307.584 
" style="fill: none; stroke: #000000; stroke-width: 0.8; stroke-linejoin: miter; stroke-linecap: square"/>
   </g>
   <g id="patch_6">
    <path d="M 57.6 41.472 
L 414.72 41.472 
" style="fill: none; stroke: #000000; stroke-width: 0.8; stroke-linejoin: miter; stroke-linecap: square"/>
   </g>
   <g id="legend_1">
    <g id="patch_7">
     <path d="M 64.6 78.82825 
L 129.342187 78.82825 
Q 131.342187 78.82825 131.342187 76.82825 
L 131.342187 48.472 
Q 131.342187 46.472 129.342187 46.472 
L 64.6 46.472 
Q 62.6 46.472 62.6 48.472 
L 62.6 76.82825 
Q 62.6 78.82825 64.6 78.82825 
z
" style="fill: #ffffff; opacity: 0.8; stroke: #cccccc; stroke-linejoin: miter"/>
    </g>
    <g id="line2d_17">
     <path d="M 66.6 54.570437 
L 76.6 54.570437 
L 86.6 54.570437 
" style="fill: none; stroke: #1f77b4; stroke-width: 1.5; stroke-linecap: square"/>
    </g>
    <g id="text_17">
     <!-- qc -->
     <g transform="translate(94.6 58.070437) scale(0.1 -0.1)">
      <defs>
       <path id="DejaVuSans-71" d="M 947 1747 
Q 947 1113 1208 752 
Q 1469 391 1925 391 
Q 2381 391 2643 752 
Q 2906 1113 2906 1747 
Q 2906 2381 2643 2742 
Q 2381 3103 1925 3103 
Q 1469 3103 1208 2742 
Q 947 2381 947 1747 
z
M 2906 525 
Q 2725 213 2448 61 
Q 2172 -91 1784 -91 
Q 1150 -91 751 415 
Q 353 922 353 1747 
Q 353 2572 751 3078 
Q 1150 3584 1784 3584 
Q 2172 3584 2448 3432 
Q 2725 3281 2906 2969 
L 2906 3500 
L 3481 3500 
L 3481 -1331 
L 2906 -1331 
L 2906 525 
z
" transform="scale(0.015625)"/>
       <path id="DejaVuSans-63" d="M 3122 3366 
L 3122 2828 
Q 2878 2963 2633 3030 
Q 2388 3097 2138 3097 
Q 1578 3097 1268 2742 
Q 959 2388 959 1747 
Q 959 1106 1268 751 
Q 1578 397 2138 397 
Q 2388 397 2633 464 
Q 2878 531 3122 666 
L 3122 134 
Q 2881 22 2623 -34 
Q 2366 -91 2075 -91 
Q 1284 -91 818 406 
Q 353 903 353 1747 
Q 353 2603 823 3093 
Q 1294 3584 2113 3584 
Q 2378 3584 2631 3529 
Q 2884 3475 3122 3366 
z
" transform="scale(0.015625)"/>
      </defs>
      <use xlink:href="#DejaVuSans-71"/>
      <use xlink:href="#DejaVuSans-63" x="63.476562"/>
     </g>
    </g>
    <g id="line2d_18">
     <path d="M 66.6 69.248562 
L 76.6 69.248562 
L 86.6 69.248562 
" style="fill: none; stroke: #ff7f0e; stroke-width: 1.5; stroke-linecap: square"/>
    </g>
    <g id="text_18">
     <!-- Trotter -->
     <g transform="translate(94.6 72.748562) scale(0.1 -0.1)">
      <defs>
       <path id="DejaVuSans-54" d="M -19 4666 
L 3928 4666 
L 3928 4134 
L 2272 4134 
L 2272 0 
L 1638 0 
L 1638 4134 
L -19 4134 
L -19 4666 
z
" transform="scale(0.015625)"/>
       <path id="DejaVuSans-72" d="M 2631 2963 
Q 2534 3019 2420 3045 
Q 2306 3072 2169 3072 
Q 1681 3072 1420 2755 
Q 1159 2438 1159 1844 
L 1159 0 
L 581 0 
L 581 3500 
L 1159 3500 
L 1159 2956 
Q 1341 3275 1631 3429 
Q 1922 3584 2338 3584 
Q 2397 3584 2469 3576 
Q 2541 3569 2628 3553 
L 2631 2963 
z
" transform="scale(0.015625)"/>
       <path id="DejaVuSans-6f" d="M 1959 3097 
Q 1497 3097 1228 2736 
Q 959 2375 959 1747 
Q 959 1119 1226 758 
Q 1494 397 1959 397 
Q 2419 397 2687 759 
Q 2956 1122 2956 1747 
Q 2956 2369 2687 2733 
Q 2419 3097 1959 3097 
z
M 1959 3584 
Q 2709 3584 3137 3096 
Q 3566 2609 3566 1747 
Q 3566 888 3137 398 
Q 2709 -91 1959 -91 
Q 1206 -91 779 398 
Q 353 888 353 1747 
Q 353 2609 779 3096 
Q 1206 3584 1959 3584 
z
" transform="scale(0.015625)"/>
       <path id="DejaVuSans-65" d="M 3597 1894 
L 3597 1613 
L 953 1613 
Q 991 1019 1311 708 
Q 1631 397 2203 397 
Q 2534 397 2845 478 
Q 3156 559 3463 722 
L 3463 178 
Q 3153 47 2828 -22 
Q 2503 -91 2169 -91 
Q 1331 -91 842 396 
Q 353 884 353 1716 
Q 353 2575 817 3079 
Q 1281 3584 2069 3584 
Q 2775 3584 3186 3129 
Q 3597 2675 3597 1894 
z
M 3022 2063 
Q 3016 2534 2758 2815 
Q 2500 3097 2075 3097 
Q 1594 3097 1305 2825 
Q 1016 2553 972 2059 
L 3022 2063 
z
" transform="scale(0.015625)"/>
      </defs>
      <use xlink:href="#DejaVuSans-54"/>
      <use xlink:href="#DejaVuSans-72" x="46.333984"/>
      <use xlink:href="#DejaVuSans-6f" x="85.197266"/>
      <use xlink:href="#DejaVuSans-74" x="146.378906"/>
      <use xlink:href="#DejaVuSans-74" x="185.587891"/>
      <use xlink:href="#DejaVuSans-65" x="224.796875"/>
      <use xlink:href="#DejaVuSans-72" x="286.320312"/>
     </g>
    </g>
   </g>
  </g>
 </g>
 <defs>
  <clipPath id="p0a59b8e2d8">
   <rect x="57.6" y="41.472" width="357.12" height="266.112"/>
  </clipPath>
 </defs>
</svg>
