<?xml version="1.0" encoding="utf-8" standalone="no"?>
<!DOCTYPE svg PUBLIC "-//W3C//DTD SVG 1.1//EN"
  "http://www.w3.org/Graphics/SVG/1.1/DTD/svg11.dtd">
<svg xmlns:xlink="http://www.w3.org/1999/xlink" width="460.8pt" height="345.6pt" viewBox="0 0 460.8 345.6" xmlns="http://www.w3.org/2000/svg" version="1.1">
 <metadata>
  <rdf:RDF xmlns:dc="http://purl.org/dc/elements/1.1/" xmlns:cc="http://creativecommons.org/ns#" xmlns:rdf="http://www.w3.org/1999/02/22-rdf-syntax-ns#">
   <cc:Work>
    <dc:type rdf:resource="http://purl.org/dc/dcmitype/StillImage"/>
    <dc:date>2024-07-12T15:10:00.921917</dc:date>
    <dc:format>image/svg+xml</dc:format>
    <dc:creator>
     <cc:Agent>
      <dc:title>Matplotlib v3.7.1, https://matplotlib.org/</dc:title>
     </cc:Agent>
    </dc:creator>
   </cc:Work>
  </rdf:RDF>
 </metadata>
 <defs>
  <style type="text/css">*{stroke-linejoin: round; stroke-linecap: butt}</style>
 </defs>
 <g id="figure_1">
  <g id="patch_1">
   <path d="M 0 345.6 
L 460.8 345.6 
L 460.8 0 
L 0 0 
z
" style="fill: #ffffff"/>
  </g>
  <g id="axes_1">
   <g id="patch_2">
    <path d="M 57.6 307.584 
L 414.72 307.584 
L 414.72 41.472 
L 57.6 41.472 
z
" style="fill: #ffffff"/>
   </g>
   <g id="matplotlib.axis_1">
    <g id="xtick_1">
     <g id="line2d_1">
      <defs>
       <path id="m596296b5cf" d="M 0 0 
L 0 3.5 
" style="stroke: #000000; stroke-width: 0.8"/>
      </defs>
      <g>
       <use xlink:href="#m596296b5cf" x="73.832727" y="307.584" style="stroke: #000000; stroke-width: 0.8"/>
      </g>
     </g>
     <g id="text_1">
      <!-- 0 -->
      <g transform="translate(70.651477 322.182437) scale(0.1 -0.1)">
       <defs>
        <path id="DejaVuSans-30" d="M 2034 4250 
Q 1547 4250 1301 3770 
Q 1056 3291 1056 2328 
Q 1056 1369 1301 889 
Q 1547 409 2034 409 
Q 2525 409 2770 889 
Q 3016 1369 3016 2328 
Q 3016 3291 2770 3770 
Q 2525 4250 2034 4250 
z
M 2034 4750 
Q 2819 4750 3233 4129 
Q 3647 3509 3647 2328 
Q 3647 1150 3233 529 
Q 2819 -91 2034 -91 
Q 1250 -91 836 529 
Q 422 1150 422 2328 
Q 422 3509 836 4129 
Q 1250 4750 2034 4750 
z
" transform="scale(0.015625)"/>
       </defs>
       <use xlink:href="#DejaVuSans-30"/>
      </g>
     </g>
    </g>
    <g id="xtick_2">
     <g id="line2d_2">
      <g>
       <use xlink:href="#m596296b5cf" x="137.303802" y="307.584" style="stroke: #000000; stroke-width: 0.8"/>
      </g>
     </g>
     <g id="text_2">
      <!-- 200 -->
      <g transform="translate(127.760052 322.182437) scale(0.1 -0.1)">
       <defs>
        <path id="DejaVuSans-32" d="M 1228 531 
L 3431 531 
L 3431 0 
L 469 0 
L 469 531 
Q 828 903 1448 1529 
Q 2069 2156 2228 2338 
Q 2531 2678 2651 2914 
Q 2772 3150 2772 3378 
Q 2772 3750 2511 3984 
Q 2250 4219 1831 4219 
Q 1534 4219 1204 4116 
Q 875 4013 500 3803 
L 500 4441 
Q 881 4594 1212 4672 
Q 1544 4750 1819 4750 
Q 2544 4750 2975 4387 
Q 3406 4025 3406 3419 
Q 3406 3131 3298 2873 
Q 3191 2616 2906 2266 
Q 2828 2175 2409 1742 
Q 1991 1309 1228 531 
z
" transform="scale(0.015625)"/>
       </defs>
       <use xlink:href="#DejaVuSans-32"/>
       <use xlink:href="#DejaVuSans-30" x="63.623047"/>
       <use xlink:href="#DejaVuSans-30" x="127.246094"/>
      </g>
     </g>
    </g>
    <g id="xtick_3">
     <g id="line2d_3">
      <g>
       <use xlink:href="#m596296b5cf" x="200.774876" y="307.584" style="stroke: #000000; stroke-width: 0.8"/>
      </g>
     </g>
     <g id="text_3">
      <!-- 400 -->
      <g transform="translate(191.231126 322.182437) scale(0.1 -0.1)">
       <defs>
        <path id="DejaVuSans-34" d="M 2419 4116 
L 825 1625 
L 2419 1625 
L 2419 4116 
z
M 2253 4666 
L 3047 4666 
L 3047 1625 
L 3713 1625 
L 3713 1100 
L 3047 1100 
L 3047 0 
L 2419 0 
L 2419 1100 
L 313 1100 
L 313 1709 
L 2253 4666 
z
" transform="scale(0.015625)"/>
       </defs>
       <use xlink:href="#DejaVuSans-34"/>
       <use xlink:href="#DejaVuSans-30" x="63.623047"/>
       <use xlink:href="#DejaVuSans-30" x="127.246094"/>
      </g>
     </g>
    </g>
    <g id="xtick_4">
     <g id="line2d_4">
      <g>
       <use xlink:href="#m596296b5cf" x="264.24595" y="307.584" style="stroke: #000000; stroke-width: 0.8"/>
      </g>
     </g>
     <g id="text_4">
      <!-- 600 -->
      <g transform="translate(254.7022 322.182437) scale(0.1 -0.1)">
       <defs>
        <path id="DejaVuSans-36" d="M 2113 2584 
Q 1688 2584 1439 2293 
Q 1191 2003 1191 1497 
Q 1191 994 1439 701 
Q 1688 409 2113 409 
Q 2538 409 2786 701 
Q 3034 994 3034 1497 
Q 3034 2003 2786 2293 
Q 2538 2584 2113 2584 
z
M 3366 4563 
L 3366 3988 
Q 3128 4100 2886 4159 
Q 2644 4219 2406 4219 
Q 1781 4219 1451 3797 
Q 1122 3375 1075 2522 
Q 1259 2794 1537 2939 
Q 1816 3084 2150 3084 
Q 2853 3084 3261 2657 
Q 3669 2231 3669 1497 
Q 3669 778 3244 343 
Q 2819 -91 2113 -91 
Q 1303 -91 875 529 
Q 447 1150 447 2328 
Q 447 3434 972 4092 
Q 1497 4750 2381 4750 
Q 2619 4750 2861 4703 
Q 3103 4656 3366 4563 
z
" transform="scale(0.015625)"/>
       </defs>
       <use xlink:href="#DejaVuSans-36"/>
       <use xlink:href="#DejaVuSans-30" x="63.623047"/>
       <use xlink:href="#DejaVuSans-30" x="127.246094"/>
      </g>
     </g>
    </g>
    <g id="xtick_5">
     <g id="line2d_5">
      <g>
       <use xlink:href="#m596296b5cf" x="327.717025" y="307.584" style="stroke: #000000; stroke-width: 0.8"/>
      </g>
     </g>
     <g id="text_5">
      <!-- 800 -->
      <g transform="translate(318.173275 322.182437) scale(0.1 -0.1)">
       <defs>
        <path id="DejaVuSans-38" d="M 2034 2216 
Q 1584 2216 1326 1975 
Q 1069 1734 1069 1313 
Q 1069 891 1326 650 
Q 1584 409 2034 409 
Q 2484 409 2743 651 
Q 3003 894 3003 1313 
Q 3003 1734 2745 1975 
Q 2488 2216 2034 2216 
z
M 1403 2484 
Q 997 2584 770 2862 
Q 544 3141 544 3541 
Q 544 4100 942 4425 
Q 1341 4750 2034 4750 
Q 2731 4750 3128 4425 
Q 3525 4100 3525 3541 
Q 3525 3141 3298 2862 
Q 3072 2584 2669 2484 
Q 3125 2378 3379 2068 
Q 3634 1759 3634 1313 
Q 3634 634 3220 271 
Q 2806 -91 2034 -91 
Q 1263 -91 848 271 
Q 434 634 434 1313 
Q 434 1759 690 2068 
Q 947 2378 1403 2484 
z
M 1172 3481 
Q 1172 3119 1398 2916 
Q 1625 2713 2034 2713 
Q 2441 2713 2670 2916 
Q 2900 3119 2900 3481 
Q 2900 3844 2670 4047 
Q 2441 4250 2034 4250 
Q 1625 4250 1398 4047 
Q 1172 3844 1172 3481 
z
" transform="scale(0.015625)"/>
       </defs>
       <use xlink:href="#DejaVuSans-38"/>
       <use xlink:href="#DejaVuSans-30" x="63.623047"/>
       <use xlink:href="#DejaVuSans-30" x="127.246094"/>
      </g>
     </g>
    </g>
    <g id="xtick_6">
     <g id="line2d_6">
      <g>
       <use xlink:href="#m596296b5cf" x="391.188099" y="307.584" style="stroke: #000000; stroke-width: 0.8"/>
      </g>
     </g>
     <g id="text_6">
      <!-- 1000 -->
      <g transform="translate(378.463099 322.182437) scale(0.1 -0.1)">
       <defs>
        <path id="DejaVuSans-31" d="M 794 531 
L 1825 531 
L 1825 4091 
L 703 3866 
L 703 4441 
L 1819 4666 
L 2450 4666 
L 2450 531 
L 3481 531 
L 3481 0 
L 794 0 
L 794 531 
z
" transform="scale(0.015625)"/>
       </defs>
       <use xlink:href="#DejaVuSans-31"/>
       <use xlink:href="#DejaVuSans-30" x="63.623047"/>
       <use xlink:href="#DejaVuSans-30" x="127.246094"/>
       <use xlink:href="#DejaVuSans-30" x="190.869141"/>
      </g>
     </g>
    </g>
    <g id="text_7">
     <!-- n -->
     <g transform="translate(232.99125 335.860562) scale(0.1 -0.1)">
      <defs>
       <path id="DejaVuSans-6e" d="M 3513 2113 
L 3513 0 
L 2938 0 
L 2938 2094 
Q 2938 2591 2744 2837 
Q 2550 3084 2163 3084 
Q 1697 3084 1428 2787 
Q 1159 2491 1159 1978 
L 1159 0 
L 581 0 
L 581 3500 
L 1159 3500 
L 1159 2956 
Q 1366 3272 1645 3428 
Q 1925 3584 2291 3584 
Q 2894 3584 3203 3211 
Q 3513 2838 3513 2113 
z
" transform="scale(0.015625)"/>
      </defs>
      <use xlink:href="#DejaVuSans-6e"/>
     </g>
    </g>
   </g>
   <g id="matplotlib.axis_2">
    <g id="ytick_1">
     <g id="line2d_7">
      <defs>
       <path id="m4b9e9aa66b" d="M 0 0 
L -3.5 0 
" style="stroke: #000000; stroke-width: 0.8"/>
      </defs>
      <g>
       <use xlink:href="#m4b9e9aa66b" x="57.6" y="274.598605" style="stroke: #000000; stroke-width: 0.8"/>
      </g>
     </g>
     <g id="text_8">
      <!-- −0.4 -->
      <g transform="translate(26.317187 278.397823) scale(0.1 -0.1)">
       <defs>
        <path id="DejaVuSans-2212" d="M 678 2272 
L 4684 2272 
L 4684 1741 
L 678 1741 
L 678 2272 
z
" transform="scale(0.015625)"/>
        <path id="DejaVuSans-2e" d="M 684 794 
L 1344 794 
L 1344 0 
L 684 0 
L 684 794 
z
" transform="scale(0.015625)"/>
       </defs>
       <use xlink:href="#DejaVuSans-2212"/>
       <use xlink:href="#DejaVuSans-30" x="83.789062"/>
       <use xlink:href="#DejaVuSans-2e" x="147.412109"/>
       <use xlink:href="#DejaVuSans-34" x="179.199219"/>
      </g>
     </g>
    </g>
    <g id="ytick_2">
     <g id="line2d_8">
      <g>
       <use xlink:href="#m4b9e9aa66b" x="57.6" y="226.648685" style="stroke: #000000; stroke-width: 0.8"/>
      </g>
     </g>
     <g id="text_9">
      <!-- −0.2 -->
      <g transform="translate(26.317187 230.447904) scale(0.1 -0.1)">
       <use xlink:href="#DejaVuSans-2212"/>
       <use xlink:href="#DejaVuSans-30" x="83.789062"/>
       <use xlink:href="#DejaVuSans-2e" x="147.412109"/>
       <use xlink:href="#DejaVuSans-32" x="179.199219"/>
      </g>
     </g>
    </g>
    <g id="ytick_3">
     <g id="line2d_9">
      <g>
       <use xlink:href="#m4b9e9aa66b" x="57.6" y="178.698766" style="stroke: #000000; stroke-width: 0.8"/>
      </g>
     </g>
     <g id="text_10">
      <!-- 0.0 -->
      <g transform="translate(34.696875 182.497985) scale(0.1 -0.1)">
       <use xlink:href="#DejaVuSans-30"/>
       <use xlink:href="#DejaVuSans-2e" x="63.623047"/>
       <use xlink:href="#DejaVuSans-30" x="95.410156"/>
      </g>
     </g>
    </g>
    <g id="ytick_4">
     <g id="line2d_10">
      <g>
       <use xlink:href="#m4b9e9aa66b" x="57.6" y="130.748847" style="stroke: #000000; stroke-width: 0.8"/>
      </g>
     </g>
     <g id="text_11">
      <!-- 0.2 -->
      <g transform="translate(34.696875 134.548066) scale(0.1 -0.1)">
       <use xlink:href="#DejaVuSans-30"/>
       <use xlink:href="#DejaVuSans-2e" x="63.623047"/>
       <use xlink:href="#DejaVuSans-32" x="95.410156"/>
      </g>
     </g>
    </g>
    <g id="ytick_5">
     <g id="line2d_11">
      <g>
       <use xlink:href="#m4b9e9aa66b" x="57.6" y="82.798928" style="stroke: #000000; stroke-width: 0.8"/>
      </g>
     </g>
     <g id="text_12">
      <!-- 0.4 -->
      <g transform="translate(34.696875 86.598147) scale(0.1 -0.1)">
       <use xlink:href="#DejaVuSans-30"/>
       <use xlink:href="#DejaVuSans-2e" x="63.623047"/>
       <use xlink:href="#DejaVuSans-34" x="95.410156"/>
      </g>
     </g>
    </g>
    <g id="text_13">
     <!-- E*t -->
     <g transform="translate(20.2375 182.147531) rotate(-90) scale(0.1 -0.1)">
      <defs>
       <path id="DejaVuSans-45" d="M 628 4666 
L 3578 4666 
L 3578 4134 
L 1259 4134 
L 1259 2753 
L 3481 2753 
L 3481 2222 
L 1259 2222 
L 1259 531 
L 3634 531 
L 3634 0 
L 628 0 
L 628 4666 
z
" transform="scale(0.015625)"/>
       <path id="DejaVuSans-2a" d="M 3009 3897 
L 1888 3291 
L 3009 2681 
L 2828 2375 
L 1778 3009 
L 1778 1831 
L 1422 1831 
L 1422 3009 
L 372 2375 
L 191 2681 
L 1313 3291 
L 191 3897 
L 372 4206 
L 1422 3572 
L 1422 4750 
L 1778 4750 
L 1778 3572 
L 2828 4206 
L 3009 3897 
z
" transform="scale(0.015625)"/>
       <path id="DejaVuSans-74" d="M 1172 4494 
L 1172 3500 
L 2356 3500 
L 2356 3053 
L 1172 3053 
L 1172 1153 
Q 1172 725 1289 603 
Q 1406 481 1766 481 
L 2356 481 
L 2356 0 
L 1766 0 
Q 1100 0 847 248 
Q 594 497 594 1153 
L 594 3053 
L 172 3053 
L 172 3500 
L 594 3500 
L 594 4494 
L 1172 4494 
z
" transform="scale(0.015625)"/>
      </defs>
      <use xlink:href="#DejaVuSans-45"/>
      <use xlink:href="#DejaVuSans-2a" x="63.183594"/>
      <use xlink:href="#DejaVuSans-74" x="113.183594"/>
     </g>
    </g>
   </g>
   <g id="line2d_12">
    <path d="M 73.832727 295.488 
L 74.150083 285.453849 
L 74.467438 282.179737 
L 74.784793 281.228477 
L 75.102149 279.501506 
L 75.419504 274.876118 
L 75.73686 274.132893 
L 76.054215 272.720181 
L 76.37157 272.17152 
L 77.006281 267.476003 
L 77.958347 265.808968 
L 78.275702 263.797562 
L 79.862479 260.899195 
L 80.179835 259.786215 
L 80.49719 259.347404 
L 80.814545 257.78212 
L 81.449256 256.928792 
L 81.766612 255.362653 
L 82.083967 254.755625 
L 82.718678 254.234428 
L 83.353388 252.867848 
L 83.670744 252.612209 
L 83.988099 252.110672 
L 84.305455 251.856965 
L 85.892231 249.375896 
L 86.209587 249.219334 
L 86.844298 248.218446 
L 87.161653 247.729584 
L 87.479008 246.854495 
L 88.113719 246.293206 
L 88.74843 245.56184 
L 89.38314 244.239926 
L 89.700496 244.026702 
L 90.335207 243.163007 
L 90.652562 243.083225 
L 91.921983 241.659108 
L 92.239339 241.590198 
L 92.556694 241.00455 
L 93.191405 240.530702 
L 93.50876 239.866477 
L 93.826116 239.733954 
L 95.730248 238.026918 
L 96.364959 237.483446 
L 96.682314 237.328137 
L 96.999669 236.983511 
L 97.317025 236.246408 
L 99.538512 234.112805 
L 100.173223 233.790566 
L 100.490579 233.235451 
L 101.76 232.388211 
L 102.077355 232.084014 
L 102.394711 232.005818 
L 103.029421 231.4586 
L 103.664132 230.935688 
L 104.616198 230.171193 
L 104.933554 229.69184 
L 108.741818 227.041555 
L 109.059174 226.640436 
L 109.693884 226.350239 
L 110.64595 225.563451 
L 111.280661 225.34308 
L 111.598017 225.017686 
L 112.232727 224.834652 
L 118.262479 220.875593 
L 118.89719 220.47159 
L 120.166612 219.704382 
L 120.483967 219.650073 
L 120.801322 219.395502 
L 121.436033 219.157429 
L 125.561653 216.656664 
L 125.879008 216.582195 
L 127.14843 215.830288 
L 127.78314 215.607817 
L 128.417851 215.252219 
L 128.735207 215.182406 
L 131.591405 213.386675 
L 131.90876 213.336017 
L 132.226116 213.044156 
L 133.495537 212.601572 
L 134.447603 212.002171 
L 135.399669 211.663258 
L 136.03438 211.180678 
L 136.351736 211.123614 
L 137.303802 210.608001 
L 137.938512 210.500748 
L 139.207934 209.64357 
L 139.842645 209.452695 
L 141.112066 208.776867 
L 143.650909 207.539479 
L 144.602975 207.158414 
L 145.237686 206.735328 
L 146.507107 206.090738 
L 147.141818 205.897939 
L 147.776529 205.570721 
L 148.728595 205.130455 
L 153.488926 203.024824 
L 153.806281 202.98641 
L 154.123636 202.687784 
L 155.075702 202.345203 
L 156.979835 201.470415 
L 157.931901 201.051368 
L 158.883967 200.602879 
L 159.518678 200.446848 
L 160.153388 200.17939 
L 160.470744 200.104743 
L 160.788099 199.836647 
L 161.740165 199.641025 
L 162.374876 199.175326 
L 163.326942 198.889948 
L 163.644298 198.671413 
L 164.596364 198.410502 
L 165.865785 197.777187 
L 166.18314 197.691529 
L 166.500496 197.460514 
L 167.452562 197.117006 
L 169.039339 196.380094 
L 169.67405 196.185468 
L 170.626116 195.752209 
L 171.895537 195.333744 
L 172.847603 194.886019 
L 173.482314 194.721053 
L 173.799669 194.456606 
L 175.703802 193.890777 
L 177.290579 193.198614 
L 177.925289 193.026697 
L 178.56 192.711978 
L 178.877355 192.650717 
L 179.194711 192.43901 
L 179.829421 192.246312 
L 180.464132 191.954093 
L 180.781488 191.688807 
L 182.68562 191.080283 
L 183.002975 190.768052 
L 184.589752 190.342958 
L 191.888926 187.62404 
L 192.523636 187.483097 
L 193.793058 186.925996 
L 196.966612 185.834148 
L 197.283967 185.549536 
L 199.188099 184.954984 
L 199.505455 184.691924 
L 200.774876 184.282845 
L 213.151736 179.969646 
L 213.786446 179.825848 
L 214.103802 179.617373 
L 214.421157 179.549384 
L 215.055868 179.257016 
L 216.007934 178.941302 
L 216.642645 178.78261 
L 217.594711 178.357103 
L 218.864132 177.899402 
L 220.450909 177.398112 
L 221.402975 176.925105 
L 222.672397 176.520135 
L 223.307107 176.341269 
L 223.941818 176.121467 
L 224.576529 175.883088 
L 227.432727 174.883474 
L 227.750083 174.635565 
L 228.384793 174.515447 
L 244.252562 168.985228 
L 245.204628 168.710909 
L 246.156694 168.277634 
L 249.012893 167.232736 
L 250.282314 166.976088 
L 250.599669 166.873893 
L 251.23438 166.484739 
L 253.138512 165.886296 
L 254.725289 165.269789 
L 255.042645 165.204863 
L 255.677355 164.892308 
L 256.312066 164.712466 
L 256.629421 164.52776 
L 257.264132 164.381245 
L 260.437686 163.258349 
L 261.389752 162.787487 
L 262.341818 162.509551 
L 264.880661 161.573366 
L 265.198017 161.555396 
L 266.150083 161.096662 
L 270.593058 159.508252 
L 271.227769 159.30824 
L 272.179835 158.992703 
L 272.814545 158.755853 
L 273.449256 158.60922 
L 274.718678 158.065574 
L 277.574876 157.003595 
L 278.209587 156.847373 
L 278.844298 156.596045 
L 279.161653 156.508277 
L 279.479008 156.254233 
L 281.065785 155.805116 
L 281.700496 155.43718 
L 282.017851 155.405438 
L 282.652562 155.083753 
L 283.604628 154.708212 
L 285.191405 154.08246 
L 286.143471 153.758321 
L 287.095537 153.425441 
L 288.047603 153.057109 
L 288.999669 152.735292 
L 292.807934 151.379267 
L 293.125289 151.165912 
L 294.077355 150.858739 
L 297.250909 149.622723 
L 297.88562 149.527106 
L 298.202975 149.293609 
L 298.520331 149.278216 
L 300.107107 148.43417 
L 302.328595 147.73682 
L 302.64595 147.487397 
L 303.598017 147.173727 
L 304.232727 146.798342 
L 304.550083 146.782686 
L 309.627769 144.715958 
L 309.945124 144.669623 
L 310.579835 144.349126 
L 311.849256 143.7288 
L 313.118678 143.253232 
L 314.070744 142.890836 
L 314.388099 142.791337 
L 314.705455 142.570597 
L 315.340165 142.43551 
L 316.292231 141.889725 
L 317.244298 141.570903 
L 317.561653 141.538345 
L 320.100496 140.451485 
L 320.417851 140.413341 
L 321.687273 139.617596 
L 323.591405 138.885298 
L 323.90876 138.630507 
L 325.812893 137.993239 
L 328.03438 136.913317 
L 328.669091 136.572939 
L 329.303802 136.222964 
L 329.938512 136.109566 
L 330.573223 135.720199 
L 330.890579 135.642405 
L 331.207934 135.357406 
L 331.842645 135.135473 
L 333.112066 134.505038 
L 333.429421 134.427461 
L 333.746777 134.225786 
L 334.381488 134.024631 
L 344.219504 129.24168 
L 344.53686 128.983985 
L 344.854215 128.93703 
L 345.17157 128.763417 
L 345.488926 128.442575 
L 346.123636 128.248472 
L 347.075702 127.603687 
L 347.393058 127.50725 
L 348.027769 127.053422 
L 348.662479 126.822859 
L 349.29719 126.446313 
L 349.614545 126.004192 
L 349.931901 125.973948 
L 350.566612 125.722726 
L 351.201322 125.088198 
L 351.518678 125.017983 
L 351.836033 124.760744 
L 353.105455 124.23174 
L 353.740165 123.882931 
L 354.374876 123.346269 
L 354.692231 123.085859 
L 355.326942 122.908434 
L 356.596364 122.0817 
L 357.54843 121.501813 
L 362.626116 118.276455 
L 362.943471 117.831113 
L 363.578182 117.478771 
L 363.895537 117.266861 
L 364.212893 116.897654 
L 364.530248 116.82711 
L 365.164959 116.196449 
L 366.751736 115.187605 
L 367.069091 114.858885 
L 368.338512 114.108665 
L 369.290579 113.36391 
L 369.607934 113.317551 
L 371.194711 111.956838 
L 371.512066 111.863781 
L 372.464132 111.124262 
L 373.098843 110.310845 
L 373.733554 109.599399 
L 374.050909 109.536466 
L 374.368264 109.268623 
L 374.68562 109.188728 
L 375.002975 108.858474 
L 375.320331 108.788985 
L 375.637686 108.266733 
L 375.955041 108.158004 
L 376.589752 107.535888 
L 376.907107 107.27314 
L 377.224463 106.757812 
L 377.541818 106.595158 
L 378.176529 105.709694 
L 379.44595 104.401244 
L 380.080661 104.054323 
L 380.715372 103.22535 
L 381.350083 102.903823 
L 381.667438 102.18581 
L 382.302149 101.628544 
L 382.619504 100.797915 
L 382.93686 100.678869 
L 383.254215 100.007822 
L 384.206281 99.293782 
L 384.523636 98.832797 
L 384.840992 98.602894 
L 385.475702 97.542914 
L 386.427769 96.610814 
L 387.69719 94.724752 
L 388.014545 94.470013 
L 388.649256 93.373097 
L 391.505455 88.706077 
L 391.82281 88.31287 
L 392.457521 86.649587 
L 393.409587 84.654165 
L 395.631074 77.939385 
L 395.94843 76.00676 
L 396.265785 75.081674 
L 396.58314 72.984943 
L 397.217851 71.121787 
L 397.535207 68.87181 
L 398.169917 62.748949 
L 398.487273 53.568 
L 398.487273 53.568 
" clip-path="url(#pd99c906f86)" style="fill: none; stroke: #1f77b4; stroke-width: 1.5; stroke-linecap: square"/>
   </g>
   <g id="line2d_13">
    <path d="M 73.832727 276.754532 
L 74.150083 265.31248 
L 74.467438 265.31248 
L 74.784793 255.531855 
L 75.102149 253.500281 
L 75.73686 253.500281 
L 76.054215 249.840765 
L 76.37157 243.662997 
L 76.688926 243.283972 
L 77.006281 243.283972 
L 77.323636 242.32807 
L 78.910413 242.32807 
L 79.227769 238.842827 
L 79.545124 238.842827 
L 79.862479 237.581181 
L 80.179835 236.801718 
L 80.49719 236.801718 
L 80.814545 232.947794 
L 81.131901 231.133721 
L 82.083967 231.10253 
L 82.401322 230.028881 
L 86.844298 229.967923 
L 87.161653 229.380048 
L 87.479008 226.58739 
L 87.796364 225.970036 
L 88.113719 225.003248 
L 89.700496 225.003248 
L 90.017851 223.767979 
L 90.652562 223.767979 
L 90.969917 222.33303 
L 91.287273 222.33303 
L 91.604628 221.585534 
L 91.921983 219.66286 
L 99.221157 219.66286 
L 99.538512 218.517203 
L 99.855868 218.517203 
L 100.173223 218.246206 
L 101.76 218.246206 
L 102.077355 217.058702 
L 103.664132 217.058702 
L 103.981488 216.790845 
L 104.298843 216.32782 
L 104.933554 216.32782 
L 105.250909 214.699318 
L 106.202975 214.617245 
L 106.520331 210.941983 
L 107.155041 210.578841 
L 107.472397 210.578841 
L 107.789752 209.732534 
L 109.376529 209.732534 
L 109.693884 207.87517 
L 110.01124 207.87517 
L 110.328595 205.823365 
L 129.369917 205.82328 
L 129.687273 204.65731 
L 130.321983 203.560703 
L 131.27405 203.490788 
L 131.591405 202.536971 
L 131.90876 202.536971 
L 132.226116 202.319055 
L 132.860826 202.319055 
L 133.178182 200.482892 
L 133.495537 200.482892 
L 133.812893 200.098401 
L 135.399669 200.098401 
L 135.717025 198.532556 
L 136.03438 198.32141 
L 136.351736 197.967872 
L 136.986446 197.878734 
L 163.009587 197.878734 
L 163.326942 196.253588 
L 167.135207 196.253588 
L 167.452562 195.956584 
L 167.769917 195.956584 
L 168.087273 193.945255 
L 168.404628 193.945255 
L 168.721983 193.408394 
L 169.356694 193.408394 
L 169.67405 193.061949 
L 169.991405 192.232152 
L 171.578182 192.232152 
L 172.212893 191.647086 
L 172.530248 191.647086 
L 172.847603 191.398874 
L 180.146777 191.398874 
L 180.464132 190.971637 
L 180.781488 190.971637 
L 181.098843 190.552567 
L 182.68562 190.552567 
L 183.320331 186.643313 
L 185.541818 186.608538 
L 185.859174 186.38141 
L 186.493884 186.38141 
L 186.81124 186.038339 
L 187.128595 185.178627 
L 187.44595 185.178627 
L 187.763306 184.596352 
L 188.080661 184.596352 
L 188.398017 182.16551 
L 188.715372 178.698766 
L 283.604628 178.698766 
L 284.239339 172.80118 
L 284.556694 172.80118 
L 284.87405 172.218906 
L 285.191405 172.218906 
L 285.50876 171.359193 
L 285.826116 171.016122 
L 286.460826 171.016122 
L 286.778182 170.788995 
L 288.999669 170.75422 
L 289.63438 166.844966 
L 291.221157 166.844966 
L 291.538512 166.425896 
L 291.855868 166.425896 
L 292.173223 165.998659 
L 299.472397 165.998659 
L 299.789752 165.750447 
L 300.107107 165.750447 
L 300.741818 165.165381 
L 302.328595 165.165381 
L 302.64595 164.335584 
L 302.963306 163.989138 
L 303.598017 163.989138 
L 303.915372 163.452277 
L 304.232727 163.452277 
L 304.550083 161.440948 
L 304.867438 161.440948 
L 305.184793 161.143945 
L 308.993058 161.143945 
L 309.310413 159.518799 
L 335.968264 159.429661 
L 336.602975 158.864977 
L 336.920331 157.299132 
L 338.507107 157.299132 
L 338.824463 156.914641 
L 339.141818 156.914641 
L 339.459174 155.078477 
L 340.093884 155.078477 
L 340.41124 154.860562 
L 340.728595 154.860562 
L 341.04595 153.906745 
L 341.680661 153.836829 
L 341.998017 153.836829 
L 342.315372 153.412391 
L 342.632727 152.740223 
L 342.950083 151.574252 
L 361.991405 151.574168 
L 362.30876 149.522363 
L 362.626116 149.522363 
L 362.943471 147.664998 
L 364.530248 147.664998 
L 364.847603 146.818691 
L 365.164959 146.818691 
L 365.799669 146.45555 
L 366.117025 142.780288 
L 367.069091 142.698215 
L 367.386446 141.069713 
L 368.021157 141.069713 
L 368.655868 140.338831 
L 370.242645 140.338831 
L 370.56 139.151326 
L 372.146777 139.151326 
L 372.464132 138.880329 
L 372.781488 138.880329 
L 373.098843 137.734673 
L 380.398017 137.734673 
L 380.715372 135.811998 
L 381.032727 135.064503 
L 381.350083 135.064503 
L 381.667438 133.629554 
L 382.302149 133.629554 
L 382.619504 132.394285 
L 384.206281 132.394285 
L 384.840992 130.810142 
L 385.158347 128.017484 
L 385.475702 127.42961 
L 389.918678 127.368652 
L 390.236033 126.295003 
L 391.188099 126.263811 
L 391.505455 124.449739 
L 391.82281 120.595815 
L 392.140165 120.595815 
L 392.457521 119.816352 
L 392.774876 118.554705 
L 393.092231 118.554705 
L 393.409587 115.069463 
L 394.996364 115.069463 
L 395.313719 114.11356 
L 395.631074 114.11356 
L 395.94843 113.734536 
L 396.265785 107.556767 
L 396.58314 103.897252 
L 397.217851 103.897252 
L 397.535207 101.865677 
L 397.852562 92.085053 
L 398.169917 92.085053 
L 398.487273 80.643 
L 398.487273 80.643 
" clip-path="url(#pd99c906f86)" style="fill: none; stroke: #ff7f0e; stroke-width: 1.5; stroke-linecap: square"/>
   </g>
   <g id="patch_3">
    <path d="M 57.6 307.584 
L 57.6 41.472 
" style="fill: none; stroke: #000000; stroke-width: 0.8; stroke-linejoin: miter; stroke-linecap: square"/>
   </g>
   <g id="patch_4">
    <path d="M 414.72 307.584 
L 414.72 41.472 
" style="fill: none; stroke: #000000; stroke-width: 0.8; stroke-linejoin: miter; stroke-linecap: square"/>
   </g>
   <g id="patch_5">
    <path d="M 57.6 307.584 
L 414.72 307.584 
" style="fill: none; stroke: #000000; stroke-width: 0.8; stroke-linejoin: miter; stroke-linecap: square"/>
   </g>
   <g id="patch_6">
    <path d="M 57.6 41.472 
L 414.72 41.472 
" style="fill: none; stroke: #000000; stroke-width: 0.8; stroke-linejoin: miter; stroke-linecap: square"/>
   </g>
   <g id="legend_1">
    <g id="patch_7">
     <path d="M 64.6 78.82825 
L 129.342187 78.82825 
Q 131.342187 78.82825 131.342187 76.82825 
L 131.342187 48.472 
Q 131.342187 46.472 129.342187 46.472 
L 64.6 46.472 
Q 62.6 46.472 62.6 48.472 
L 62.6 76.82825 
Q 62.6 78.82825 64.6 78.82825 
z
" style="fill: #ffffff; opacity: 0.8; stroke: #cccccc; stroke-linejoin: miter"/>
    </g>
    <g id="line2d_14">
     <path d="M 66.6 54.570437 
L 76.6 54.570437 
L 86.6 54.570437 
" style="fill: none; stroke: #1f77b4; stroke-width: 1.5; stroke-linecap: square"/>
    </g>
    <g id="text_14">
     <!-- qc -->
     <g transform="translate(94.6 58.070437) scale(0.1 -0.1)">
      <defs>
       <path id="DejaVuSans-71" d="M 947 1747 
Q 947 1113 1208 752 
Q 1469 391 1925 391 
Q 2381 391 2643 752 
Q 2906 1113 2906 1747 
Q 2906 2381 2643 2742 
Q 2381 3103 1925 3103 
Q 1469 3103 1208 2742 
Q 947 2381 947 1747 
z
M 2906 525 
Q 2725 213 2448 61 
Q 2172 -91 1784 -91 
Q 1150 -91 751 415 
Q 353 922 353 1747 
Q 353 2572 751 3078 
Q 1150 3584 1784 3584 
Q 2172 3584 2448 3432 
Q 2725 3281 2906 2969 
L 2906 3500 
L 3481 3500 
L 3481 -1331 
L 2906 -1331 
L 2906 525 
z
" transform="scale(0.015625)"/>
       <path id="DejaVuSans-63" d="M 3122 3366 
L 3122 2828 
Q 2878 2963 2633 3030 
Q 2388 3097 2138 3097 
Q 1578 3097 1268 2742 
Q 959 2388 959 1747 
Q 959 1106 1268 751 
Q 1578 397 2138 397 
Q 2388 397 2633 464 
Q 2878 531 3122 666 
L 3122 134 
Q 2881 22 2623 -34 
Q 2366 -91 2075 -91 
Q 1284 -91 818 406 
Q 353 903 353 1747 
Q 353 2603 823 3093 
Q 1294 3584 2113 3584 
Q 2378 3584 2631 3529 
Q 2884 3475 3122 3366 
z
" transform="scale(0.015625)"/>
      </defs>
      <use xlink:href="#DejaVuSans-71"/>
      <use xlink:href="#DejaVuSans-63" x="63.476562"/>
     </g>
    </g>
    <g id="line2d_15">
     <path d="M 66.6 69.248562 
L 76.6 69.248562 
L 86.6 69.248562 
" style="fill: none; stroke: #ff7f0e; stroke-width: 1.5; stroke-linecap: square"/>
    </g>
    <g id="text_15">
     <!-- Trotter -->
     <g transform="translate(94.6 72.748562) scale(0.1 -0.1)">
      <defs>
       <path id="DejaVuSans-54" d="M -19 4666 
L 3928 4666 
L 3928 4134 
L 2272 4134 
L 2272 0 
L 1638 0 
L 1638 4134 
L -19 4134 
L -19 4666 
z
" transform="scale(0.015625)"/>
       <path id="DejaVuSans-72" d="M 2631 2963 
Q 2534 3019 2420 3045 
Q 2306 3072 2169 3072 
Q 1681 3072 1420 2755 
Q 1159 2438 1159 1844 
L 1159 0 
L 581 0 
L 581 3500 
L 1159 3500 
L 1159 2956 
Q 1341 3275 1631 3429 
Q 1922 3584 2338 3584 
Q 2397 3584 2469 3576 
Q 2541 3569 2628 3553 
L 2631 2963 
z
" transform="scale(0.015625)"/>
       <path id="DejaVuSans-6f" d="M 1959 3097 
Q 1497 3097 1228 2736 
Q 959 2375 959 1747 
Q 959 1119 1226 758 
Q 1494 397 1959 397 
Q 2419 397 2687 759 
Q 2956 1122 2956 1747 
Q 2956 2369 2687 2733 
Q 2419 3097 1959 3097 
z
M 1959 3584 
Q 2709 3584 3137 3096 
Q 3566 2609 3566 1747 
Q 3566 888 3137 398 
Q 2709 -91 1959 -91 
Q 1206 -91 779 398 
Q 353 888 353 1747 
Q 353 2609 779 3096 
Q 1206 3584 1959 3584 
z
" transform="scale(0.015625)"/>
       <path id="DejaVuSans-65" d="M 3597 1894 
L 3597 1613 
L 953 1613 
Q 991 1019 1311 708 
Q 1631 397 2203 397 
Q 2534 397 2845 478 
Q 3156 559 3463 722 
L 3463 178 
Q 3153 47 2828 -22 
Q 2503 -91 2169 -91 
Q 1331 -91 842 396 
Q 353 884 353 1716 
Q 353 2575 817 3079 
Q 1281 3584 2069 3584 
Q 2775 3584 3186 3129 
Q 3597 2675 3597 1894 
z
M 3022 2063 
Q 3016 2534 2758 2815 
Q 2500 3097 2075 3097 
Q 1594 3097 1305 2825 
Q 1016 2553 972 2059 
L 3022 2063 
z
" transform="scale(0.015625)"/>
      </defs>
      <use xlink:href="#DejaVuSans-54"/>
      <use xlink:href="#DejaVuSans-72" x="46.333984"/>
      <use xlink:href="#DejaVuSans-6f" x="85.197266"/>
      <use xlink:href="#DejaVuSans-74" x="146.378906"/>
      <use xlink:href="#DejaVuSans-74" x="185.587891"/>
      <use xlink:href="#DejaVuSans-65" x="224.796875"/>
      <use xlink:href="#DejaVuSans-72" x="286.320312"/>
     </g>
    </g>
   </g>
  </g>
 </g>
 <defs>
  <clipPath id="pd99c906f86">
   <rect x="57.6" y="41.472" width="357.12" height="266.112"/>
  </clipPath>
 </defs>
</svg>
