<?xml version="1.0" encoding="utf-8" standalone="no"?>
<!DOCTYPE svg PUBLIC "-//W3C//DTD SVG 1.1//EN"
  "http://www.w3.org/Graphics/SVG/1.1/DTD/svg11.dtd">
<svg xmlns:xlink="http://www.w3.org/1999/xlink" width="460.8pt" height="345.6pt" viewBox="0 0 460.8 345.6" xmlns="http://www.w3.org/2000/svg" version="1.1">
 <metadata>
  <rdf:RDF xmlns:dc="http://purl.org/dc/elements/1.1/" xmlns:cc="http://creativecommons.org/ns#" xmlns:rdf="http://www.w3.org/1999/02/22-rdf-syntax-ns#">
   <cc:Work>
    <dc:type rdf:resource="http://purl.org/dc/dcmitype/StillImage"/>
    <dc:date>2024-07-05T10:45:29.291017</dc:date>
    <dc:format>image/svg+xml</dc:format>
    <dc:creator>
     <cc:Agent>
      <dc:title>Matplotlib v3.7.1, https://matplotlib.org/</dc:title>
     </cc:Agent>
    </dc:creator>
   </cc:Work>
  </rdf:RDF>
 </metadata>
 <defs>
  <style type="text/css">*{stroke-linejoin: round; stroke-linecap: butt}</style>
 </defs>
 <g id="figure_1">
  <g id="patch_1">
   <path d="M 0 345.6 
L 460.8 345.6 
L 460.8 0 
L 0 0 
z
" style="fill: #ffffff"/>
  </g>
  <g id="axes_1">
   <g id="patch_2">
    <path d="M 57.6 307.584 
L 414.72 307.584 
L 414.72 41.472 
L 57.6 41.472 
z
" style="fill: #ffffff"/>
   </g>
   <g id="matplotlib.axis_1">
    <g id="xtick_1">
     <g id="line2d_1">
      <defs>
       <path id="m632bb65475" d="M 0 0 
L 0 3.5 
" style="stroke: #000000; stroke-width: 0.8"/>
      </defs>
      <g>
       <use xlink:href="#m632bb65475" x="73.832727" y="307.584" style="stroke: #000000; stroke-width: 0.8"/>
      </g>
     </g>
     <g id="text_1">
      <!-- 0 -->
      <g transform="translate(70.651477 322.182437) scale(0.1 -0.1)">
       <defs>
        <path id="DejaVuSans-30" d="M 2034 4250 
Q 1547 4250 1301 3770 
Q 1056 3291 1056 2328 
Q 1056 1369 1301 889 
Q 1547 409 2034 409 
Q 2525 409 2770 889 
Q 3016 1369 3016 2328 
Q 3016 3291 2770 3770 
Q 2525 4250 2034 4250 
z
M 2034 4750 
Q 2819 4750 3233 4129 
Q 3647 3509 3647 2328 
Q 3647 1150 3233 529 
Q 2819 -91 2034 -91 
Q 1250 -91 836 529 
Q 422 1150 422 2328 
Q 422 3509 836 4129 
Q 1250 4750 2034 4750 
z
" transform="scale(0.015625)"/>
       </defs>
       <use xlink:href="#DejaVuSans-30"/>
      </g>
     </g>
    </g>
    <g id="xtick_2">
     <g id="line2d_2">
      <g>
       <use xlink:href="#m632bb65475" x="137.303802" y="307.584" style="stroke: #000000; stroke-width: 0.8"/>
      </g>
     </g>
     <g id="text_2">
      <!-- 200 -->
      <g transform="translate(127.760052 322.182437) scale(0.1 -0.1)">
       <defs>
        <path id="DejaVuSans-32" d="M 1228 531 
L 3431 531 
L 3431 0 
L 469 0 
L 469 531 
Q 828 903 1448 1529 
Q 2069 2156 2228 2338 
Q 2531 2678 2651 2914 
Q 2772 3150 2772 3378 
Q 2772 3750 2511 3984 
Q 2250 4219 1831 4219 
Q 1534 4219 1204 4116 
Q 875 4013 500 3803 
L 500 4441 
Q 881 4594 1212 4672 
Q 1544 4750 1819 4750 
Q 2544 4750 2975 4387 
Q 3406 4025 3406 3419 
Q 3406 3131 3298 2873 
Q 3191 2616 2906 2266 
Q 2828 2175 2409 1742 
Q 1991 1309 1228 531 
z
" transform="scale(0.015625)"/>
       </defs>
       <use xlink:href="#DejaVuSans-32"/>
       <use xlink:href="#DejaVuSans-30" x="63.623047"/>
       <use xlink:href="#DejaVuSans-30" x="127.246094"/>
      </g>
     </g>
    </g>
    <g id="xtick_3">
     <g id="line2d_3">
      <g>
       <use xlink:href="#m632bb65475" x="200.774876" y="307.584" style="stroke: #000000; stroke-width: 0.8"/>
      </g>
     </g>
     <g id="text_3">
      <!-- 400 -->
      <g transform="translate(191.231126 322.182437) scale(0.1 -0.1)">
       <defs>
        <path id="DejaVuSans-34" d="M 2419 4116 
L 825 1625 
L 2419 1625 
L 2419 4116 
z
M 2253 4666 
L 3047 4666 
L 3047 1625 
L 3713 1625 
L 3713 1100 
L 3047 1100 
L 3047 0 
L 2419 0 
L 2419 1100 
L 313 1100 
L 313 1709 
L 2253 4666 
z
" transform="scale(0.015625)"/>
       </defs>
       <use xlink:href="#DejaVuSans-34"/>
       <use xlink:href="#DejaVuSans-30" x="63.623047"/>
       <use xlink:href="#DejaVuSans-30" x="127.246094"/>
      </g>
     </g>
    </g>
    <g id="xtick_4">
     <g id="line2d_4">
      <g>
       <use xlink:href="#m632bb65475" x="264.24595" y="307.584" style="stroke: #000000; stroke-width: 0.8"/>
      </g>
     </g>
     <g id="text_4">
      <!-- 600 -->
      <g transform="translate(254.7022 322.182437) scale(0.1 -0.1)">
       <defs>
        <path id="DejaVuSans-36" d="M 2113 2584 
Q 1688 2584 1439 2293 
Q 1191 2003 1191 1497 
Q 1191 994 1439 701 
Q 1688 409 2113 409 
Q 2538 409 2786 701 
Q 3034 994 3034 1497 
Q 3034 2003 2786 2293 
Q 2538 2584 2113 2584 
z
M 3366 4563 
L 3366 3988 
Q 3128 4100 2886 4159 
Q 2644 4219 2406 4219 
Q 1781 4219 1451 3797 
Q 1122 3375 1075 2522 
Q 1259 2794 1537 2939 
Q 1816 3084 2150 3084 
Q 2853 3084 3261 2657 
Q 3669 2231 3669 1497 
Q 3669 778 3244 343 
Q 2819 -91 2113 -91 
Q 1303 -91 875 529 
Q 447 1150 447 2328 
Q 447 3434 972 4092 
Q 1497 4750 2381 4750 
Q 2619 4750 2861 4703 
Q 3103 4656 3366 4563 
z
" transform="scale(0.015625)"/>
       </defs>
       <use xlink:href="#DejaVuSans-36"/>
       <use xlink:href="#DejaVuSans-30" x="63.623047"/>
       <use xlink:href="#DejaVuSans-30" x="127.246094"/>
      </g>
     </g>
    </g>
    <g id="xtick_5">
     <g id="line2d_5">
      <g>
       <use xlink:href="#m632bb65475" x="327.717025" y="307.584" style="stroke: #000000; stroke-width: 0.8"/>
      </g>
     </g>
     <g id="text_5">
      <!-- 800 -->
      <g transform="translate(318.173275 322.182437) scale(0.1 -0.1)">
       <defs>
        <path id="DejaVuSans-38" d="M 2034 2216 
Q 1584 2216 1326 1975 
Q 1069 1734 1069 1313 
Q 1069 891 1326 650 
Q 1584 409 2034 409 
Q 2484 409 2743 651 
Q 3003 894 3003 1313 
Q 3003 1734 2745 1975 
Q 2488 2216 2034 2216 
z
M 1403 2484 
Q 997 2584 770 2862 
Q 544 3141 544 3541 
Q 544 4100 942 4425 
Q 1341 4750 2034 4750 
Q 2731 4750 3128 4425 
Q 3525 4100 3525 3541 
Q 3525 3141 3298 2862 
Q 3072 2584 2669 2484 
Q 3125 2378 3379 2068 
Q 3634 1759 3634 1313 
Q 3634 634 3220 271 
Q 2806 -91 2034 -91 
Q 1263 -91 848 271 
Q 434 634 434 1313 
Q 434 1759 690 2068 
Q 947 2378 1403 2484 
z
M 1172 3481 
Q 1172 3119 1398 2916 
Q 1625 2713 2034 2713 
Q 2441 2713 2670 2916 
Q 2900 3119 2900 3481 
Q 2900 3844 2670 4047 
Q 2441 4250 2034 4250 
Q 1625 4250 1398 4047 
Q 1172 3844 1172 3481 
z
" transform="scale(0.015625)"/>
       </defs>
       <use xlink:href="#DejaVuSans-38"/>
       <use xlink:href="#DejaVuSans-30" x="63.623047"/>
       <use xlink:href="#DejaVuSans-30" x="127.246094"/>
      </g>
     </g>
    </g>
    <g id="xtick_6">
     <g id="line2d_6">
      <g>
       <use xlink:href="#m632bb65475" x="391.188099" y="307.584" style="stroke: #000000; stroke-width: 0.8"/>
      </g>
     </g>
     <g id="text_6">
      <!-- 1000 -->
      <g transform="translate(378.463099 322.182437) scale(0.1 -0.1)">
       <defs>
        <path id="DejaVuSans-31" d="M 794 531 
L 1825 531 
L 1825 4091 
L 703 3866 
L 703 4441 
L 1819 4666 
L 2450 4666 
L 2450 531 
L 3481 531 
L 3481 0 
L 794 0 
L 794 531 
z
" transform="scale(0.015625)"/>
       </defs>
       <use xlink:href="#DejaVuSans-31"/>
       <use xlink:href="#DejaVuSans-30" x="63.623047"/>
       <use xlink:href="#DejaVuSans-30" x="127.246094"/>
       <use xlink:href="#DejaVuSans-30" x="190.869141"/>
      </g>
     </g>
    </g>
    <g id="text_7">
     <!-- n -->
     <g transform="translate(232.99125 335.860562) scale(0.1 -0.1)">
      <defs>
       <path id="DejaVuSans-6e" d="M 3513 2113 
L 3513 0 
L 2938 0 
L 2938 2094 
Q 2938 2591 2744 2837 
Q 2550 3084 2163 3084 
Q 1697 3084 1428 2787 
Q 1159 2491 1159 1978 
L 1159 0 
L 581 0 
L 581 3500 
L 1159 3500 
L 1159 2956 
Q 1366 3272 1645 3428 
Q 1925 3584 2291 3584 
Q 2894 3584 3203 3211 
Q 3513 2838 3513 2113 
z
" transform="scale(0.015625)"/>
      </defs>
      <use xlink:href="#DejaVuSans-6e"/>
     </g>
    </g>
   </g>
   <g id="matplotlib.axis_2">
    <g id="ytick_1">
     <g id="line2d_7">
      <defs>
       <path id="mb888f09507" d="M 0 0 
L -3.5 0 
" style="stroke: #000000; stroke-width: 0.8"/>
      </defs>
      <g>
       <use xlink:href="#mb888f09507" x="57.6" y="283.299861" style="stroke: #000000; stroke-width: 0.8"/>
      </g>
     </g>
     <g id="text_8">
      <!-- −0.3 -->
      <g transform="translate(26.317187 287.09908) scale(0.1 -0.1)">
       <defs>
        <path id="DejaVuSans-2212" d="M 678 2272 
L 4684 2272 
L 4684 1741 
L 678 1741 
L 678 2272 
z
" transform="scale(0.015625)"/>
        <path id="DejaVuSans-2e" d="M 684 794 
L 1344 794 
L 1344 0 
L 684 0 
L 684 794 
z
" transform="scale(0.015625)"/>
        <path id="DejaVuSans-33" d="M 2597 2516 
Q 3050 2419 3304 2112 
Q 3559 1806 3559 1356 
Q 3559 666 3084 287 
Q 2609 -91 1734 -91 
Q 1441 -91 1130 -33 
Q 819 25 488 141 
L 488 750 
Q 750 597 1062 519 
Q 1375 441 1716 441 
Q 2309 441 2620 675 
Q 2931 909 2931 1356 
Q 2931 1769 2642 2001 
Q 2353 2234 1838 2234 
L 1294 2234 
L 1294 2753 
L 1863 2753 
Q 2328 2753 2575 2939 
Q 2822 3125 2822 3475 
Q 2822 3834 2567 4026 
Q 2313 4219 1838 4219 
Q 1578 4219 1281 4162 
Q 984 4106 628 3988 
L 628 4550 
Q 988 4650 1302 4700 
Q 1616 4750 1894 4750 
Q 2613 4750 3031 4423 
Q 3450 4097 3450 3541 
Q 3450 3153 3228 2886 
Q 3006 2619 2597 2516 
z
" transform="scale(0.015625)"/>
       </defs>
       <use xlink:href="#DejaVuSans-2212"/>
       <use xlink:href="#DejaVuSans-30" x="83.789062"/>
       <use xlink:href="#DejaVuSans-2e" x="147.412109"/>
       <use xlink:href="#DejaVuSans-33" x="179.199219"/>
      </g>
     </g>
    </g>
    <g id="ytick_2">
     <g id="line2d_8">
      <g>
       <use xlink:href="#mb888f09507" x="57.6" y="252.076478" style="stroke: #000000; stroke-width: 0.8"/>
      </g>
     </g>
     <g id="text_9">
      <!-- −0.2 -->
      <g transform="translate(26.317187 255.875697) scale(0.1 -0.1)">
       <use xlink:href="#DejaVuSans-2212"/>
       <use xlink:href="#DejaVuSans-30" x="83.789062"/>
       <use xlink:href="#DejaVuSans-2e" x="147.412109"/>
       <use xlink:href="#DejaVuSans-32" x="179.199219"/>
      </g>
     </g>
    </g>
    <g id="ytick_3">
     <g id="line2d_9">
      <g>
       <use xlink:href="#mb888f09507" x="57.6" y="220.853095" style="stroke: #000000; stroke-width: 0.8"/>
      </g>
     </g>
     <g id="text_10">
      <!-- −0.1 -->
      <g transform="translate(26.317187 224.652314) scale(0.1 -0.1)">
       <use xlink:href="#DejaVuSans-2212"/>
       <use xlink:href="#DejaVuSans-30" x="83.789062"/>
       <use xlink:href="#DejaVuSans-2e" x="147.412109"/>
       <use xlink:href="#DejaVuSans-31" x="179.199219"/>
      </g>
     </g>
    </g>
    <g id="ytick_4">
     <g id="line2d_10">
      <g>
       <use xlink:href="#mb888f09507" x="57.6" y="189.629712" style="stroke: #000000; stroke-width: 0.8"/>
      </g>
     </g>
     <g id="text_11">
      <!-- 0.0 -->
      <g transform="translate(34.696875 193.428931) scale(0.1 -0.1)">
       <use xlink:href="#DejaVuSans-30"/>
       <use xlink:href="#DejaVuSans-2e" x="63.623047"/>
       <use xlink:href="#DejaVuSans-30" x="95.410156"/>
      </g>
     </g>
    </g>
    <g id="ytick_5">
     <g id="line2d_11">
      <g>
       <use xlink:href="#mb888f09507" x="57.6" y="158.406329" style="stroke: #000000; stroke-width: 0.8"/>
      </g>
     </g>
     <g id="text_12">
      <!-- 0.1 -->
      <g transform="translate(34.696875 162.205547) scale(0.1 -0.1)">
       <use xlink:href="#DejaVuSans-30"/>
       <use xlink:href="#DejaVuSans-2e" x="63.623047"/>
       <use xlink:href="#DejaVuSans-31" x="95.410156"/>
      </g>
     </g>
    </g>
    <g id="ytick_6">
     <g id="line2d_12">
      <g>
       <use xlink:href="#mb888f09507" x="57.6" y="127.182945" style="stroke: #000000; stroke-width: 0.8"/>
      </g>
     </g>
     <g id="text_13">
      <!-- 0.2 -->
      <g transform="translate(34.696875 130.982164) scale(0.1 -0.1)">
       <use xlink:href="#DejaVuSans-30"/>
       <use xlink:href="#DejaVuSans-2e" x="63.623047"/>
       <use xlink:href="#DejaVuSans-32" x="95.410156"/>
      </g>
     </g>
    </g>
    <g id="ytick_7">
     <g id="line2d_13">
      <g>
       <use xlink:href="#mb888f09507" x="57.6" y="95.959562" style="stroke: #000000; stroke-width: 0.8"/>
      </g>
     </g>
     <g id="text_14">
      <!-- 0.3 -->
      <g transform="translate(34.696875 99.758781) scale(0.1 -0.1)">
       <use xlink:href="#DejaVuSans-30"/>
       <use xlink:href="#DejaVuSans-2e" x="63.623047"/>
       <use xlink:href="#DejaVuSans-33" x="95.410156"/>
      </g>
     </g>
    </g>
    <g id="ytick_8">
     <g id="line2d_14">
      <g>
       <use xlink:href="#mb888f09507" x="57.6" y="64.736179" style="stroke: #000000; stroke-width: 0.8"/>
      </g>
     </g>
     <g id="text_15">
      <!-- 0.4 -->
      <g transform="translate(34.696875 68.535398) scale(0.1 -0.1)">
       <use xlink:href="#DejaVuSans-30"/>
       <use xlink:href="#DejaVuSans-2e" x="63.623047"/>
       <use xlink:href="#DejaVuSans-34" x="95.410156"/>
      </g>
     </g>
    </g>
    <g id="text_16">
     <!-- E*t -->
     <g transform="translate(20.2375 182.147531) rotate(-90) scale(0.1 -0.1)">
      <defs>
       <path id="DejaVuSans-45" d="M 628 4666 
L 3578 4666 
L 3578 4134 
L 1259 4134 
L 1259 2753 
L 3481 2753 
L 3481 2222 
L 1259 2222 
L 1259 531 
L 3634 531 
L 3634 0 
L 628 0 
L 628 4666 
z
" transform="scale(0.015625)"/>
       <path id="DejaVuSans-2a" d="M 3009 3897 
L 1888 3291 
L 3009 2681 
L 2828 2375 
L 1778 3009 
L 1778 1831 
L 1422 1831 
L 1422 3009 
L 372 2375 
L 191 2681 
L 1313 3291 
L 191 3897 
L 372 4206 
L 1422 3572 
L 1422 4750 
L 1778 4750 
L 1778 3572 
L 2828 4206 
L 3009 3897 
z
" transform="scale(0.015625)"/>
       <path id="DejaVuSans-74" d="M 1172 4494 
L 1172 3500 
L 2356 3500 
L 2356 3053 
L 1172 3053 
L 1172 1153 
Q 1172 725 1289 603 
Q 1406 481 1766 481 
L 2356 481 
L 2356 0 
L 1766 0 
Q 1100 0 847 248 
Q 594 497 594 1153 
L 594 3053 
L 172 3053 
L 172 3500 
L 594 3500 
L 594 4494 
L 1172 4494 
z
" transform="scale(0.015625)"/>
      </defs>
      <use xlink:href="#DejaVuSans-45"/>
      <use xlink:href="#DejaVuSans-2a" x="63.183594"/>
      <use xlink:href="#DejaVuSans-74" x="113.183594"/>
     </g>
    </g>
   </g>
   <g id="line2d_15">
    <path d="M 73.832727 295.488 
L 74.150083 291.613988 
L 74.467438 285.092725 
L 75.102149 280.689375 
L 75.419504 280.356058 
L 76.054215 276.486219 
L 76.37157 276.274764 
L 76.688926 275.198079 
L 77.006281 272.149791 
L 77.323636 271.864742 
L 77.640992 269.994183 
L 77.958347 268.813345 
L 78.275702 268.27233 
L 78.593058 267.511091 
L 78.910413 267.344276 
L 79.227769 266.07414 
L 79.545124 265.744167 
L 79.862479 265.628857 
L 80.179835 264.926955 
L 80.49719 263.00681 
L 80.814545 262.870639 
L 81.449256 261.438413 
L 81.766612 261.193935 
L 82.401322 260.252015 
L 82.718678 260.090958 
L 83.036033 259.415541 
L 83.353388 259.202447 
L 83.670744 258.494491 
L 83.988099 257.261926 
L 84.62281 256.981113 
L 84.940165 256.419316 
L 85.257521 255.500034 
L 86.526942 254.012296 
L 86.844298 253.604849 
L 87.161653 253.490291 
L 87.479008 253.244592 
L 88.113719 252.557224 
L 88.74843 252.10008 
L 89.065785 251.477376 
L 90.335207 250.401801 
L 90.652562 249.708656 
L 91.287273 249.215961 
L 91.604628 248.808427 
L 92.556694 248.233171 
L 92.87405 247.582063 
L 94.143471 246.865678 
L 95.095537 245.94895 
L 95.412893 245.685768 
L 96.047603 245.405357 
L 98.903802 243.103463 
L 99.221157 242.991041 
L 99.538512 242.434868 
L 100.490579 241.94145 
L 100.807934 241.6927 
L 101.125289 241.615995 
L 101.76 241.057277 
L 102.712066 240.298715 
L 103.029421 239.946814 
L 103.346777 239.84285 
L 103.981488 239.322172 
L 104.298843 239.041285 
L 104.616198 238.948075 
L 105.88562 238.117332 
L 106.202975 238.064138 
L 107.155041 237.470299 
L 107.789752 237.277948 
L 108.424463 236.814145 
L 111.915372 234.833119 
L 112.232727 234.482697 
L 116.358347 232.58326 
L 116.675702 232.212592 
L 117.310413 231.971361 
L 117.627769 231.581618 
L 118.89719 231.110294 
L 119.214545 230.804803 
L 119.531901 230.659782 
L 120.166612 230.223171 
L 121.118678 229.796337 
L 125.244298 227.67674 
L 125.879008 227.458231 
L 126.196364 227.22176 
L 126.513719 227.192779 
L 128.735207 226.111816 
L 130.004628 225.563732 
L 130.956694 225.152055 
L 131.27405 225.077632 
L 131.90876 224.765587 
L 132.226116 224.741353 
L 132.543471 224.587164 
L 133.178182 224.137414 
L 133.495537 224.083788 
L 133.812893 223.825686 
L 135.082314 223.335772 
L 135.399669 223.056694 
L 136.669091 222.598818 
L 136.986446 222.558658 
L 137.621157 222.289761 
L 139.525289 221.48031 
L 140.477355 221.166578 
L 141.112066 221.022935 
L 141.746777 220.800579 
L 146.189752 219.021432 
L 146.824463 218.669175 
L 147.459174 218.533574 
L 148.093884 218.29485 
L 149.363306 217.799924 
L 153.806281 216.138296 
L 154.440992 215.799113 
L 155.710413 215.335939 
L 156.345124 215.110428 
L 157.931901 214.382688 
L 158.566612 214.221491 
L 159.836033 213.782254 
L 160.153388 213.402281 
L 161.105455 213.160178 
L 161.42281 213.04126 
L 161.740165 212.803453 
L 163.009587 212.367674 
L 163.961653 212.0353 
L 165.54843 211.663759 
L 166.500496 211.240083 
L 166.817851 211.095658 
L 167.135207 210.801324 
L 168.404628 210.4488 
L 169.356694 210.129921 
L 171.260826 209.536391 
L 172.530248 208.945978 
L 173.482314 208.691372 
L 174.117025 208.42669 
L 175.069091 208.254695 
L 176.655868 207.61965 
L 180.781488 206.096022 
L 181.733554 205.910938 
L 182.68562 205.476383 
L 183.955041 205.093086 
L 184.589752 204.779114 
L 185.541818 204.551971 
L 186.176529 204.298191 
L 187.128595 204.037734 
L 188.398017 203.480834 
L 189.032727 203.307885 
L 192.840992 202.0827 
L 193.793058 201.794173 
L 194.427769 201.544108 
L 199.82281 199.825162 
L 200.774876 199.368911 
L 202.044298 198.999416 
L 202.361653 198.831152 
L 203.313719 198.621148 
L 205.852562 197.783745 
L 206.487273 197.550858 
L 207.756694 197.13844 
L 210.930248 196.195128 
L 211.247603 195.919995 
L 211.882314 195.857317 
L 212.517025 195.676383 
L 214.738512 194.856112 
L 215.055868 194.82939 
L 215.690579 194.479565 
L 216.642645 194.220616 
L 217.594711 193.898733 
L 219.181488 193.285636 
L 220.133554 193.042734 
L 221.402975 192.661928 
L 232.510413 188.982862 
L 233.145124 188.814368 
L 235.366612 188.147125 
L 236.318678 187.762466 
L 237.905455 187.197488 
L 238.22281 186.931862 
L 239.492231 186.540152 
L 240.126942 186.394169 
L 240.444298 186.188611 
L 241.396364 185.940915 
L 242.665785 185.462103 
L 243.300496 185.279881 
L 243.935207 185.084698 
L 245.204628 184.761892 
L 247.10876 184.013143 
L 247.743471 183.842197 
L 248.378182 183.629664 
L 249.012893 183.40928 
L 249.330248 183.373487 
L 249.964959 183.107893 
L 251.23438 182.753835 
L 252.503802 182.265747 
L 253.773223 181.863469 
L 254.725289 181.57557 
L 255.994711 181.155496 
L 261.072397 179.475412 
L 262.341818 178.629762 
L 263.61124 178.279809 
L 265.832727 177.56864 
L 266.467438 177.324757 
L 280.74843 172.434823 
L 281.38314 172.112892 
L 282.652562 171.747429 
L 283.604628 171.230666 
L 284.239339 171.074421 
L 285.50876 170.672072 
L 286.460826 170.452905 
L 288.047603 169.941171 
L 288.999669 169.640266 
L 289.951736 169.316519 
L 293.76 167.887597 
L 294.394711 167.609799 
L 302.328595 164.460537 
L 302.64595 164.424696 
L 302.963306 163.946635 
L 303.598017 163.588634 
L 304.550083 163.185243 
L 306.77157 162.044694 
L 307.406281 161.861885 
L 307.723636 161.596653 
L 310.262479 160.845575 
L 312.483967 160.150807 
L 312.801322 160.075008 
L 313.118678 159.680572 
L 319.78314 156.912665 
L 320.417851 156.745099 
L 324.226116 155.242962 
L 324.543471 155.072427 
L 324.860826 155.028932 
L 325.178182 154.651434 
L 326.764959 153.991505 
L 327.399669 153.798202 
L 328.351736 153.280943 
L 328.986446 152.704543 
L 329.303802 152.662911 
L 331.842645 151.320397 
L 332.16 151.299239 
L 332.477355 151.162834 
L 332.794711 150.888466 
L 333.112066 150.854908 
L 333.746777 150.562185 
L 334.064132 150.486192 
L 335.016198 149.932239 
L 335.968264 149.456322 
L 336.28562 149.181344 
L 337.237686 148.847946 
L 337.555041 148.563924 
L 337.872397 148.478151 
L 338.189752 148.070863 
L 338.824463 147.869087 
L 339.459174 147.544689 
L 339.776529 147.072212 
L 340.41124 146.92499 
L 340.728595 146.689246 
L 341.04595 146.642934 
L 343.267438 145.353666 
L 343.584793 145.33389 
L 346.123636 144.005815 
L 346.758347 143.36041 
L 347.075702 143.290211 
L 347.393058 143.029126 
L 348.345124 142.759857 
L 349.931901 141.672838 
L 350.566612 141.508791 
L 350.883967 141.115322 
L 351.201322 140.954804 
L 351.518678 140.495787 
L 353.740165 139.58532 
L 354.374876 139.107694 
L 355.009587 138.975454 
L 355.326942 138.729794 
L 355.644298 138.657749 
L 356.596364 137.70091 
L 357.231074 137.465857 
L 357.54843 137.313767 
L 357.865785 137.005042 
L 358.18314 136.91033 
L 358.500496 136.432516 
L 358.817851 136.292605 
L 359.452562 135.725539 
L 360.087273 135.581191 
L 360.404628 135.243872 
L 361.67405 134.698982 
L 364.847603 132.535378 
L 365.799669 132.135041 
L 366.43438 131.365741 
L 366.751736 130.917723 
L 367.069091 130.883106 
L 367.386446 129.921284 
L 368.338512 129.609673 
L 368.655868 129.058052 
L 368.973223 129.031237 
L 369.925289 127.908384 
L 370.242645 127.774595 
L 371.194711 126.489652 
L 371.512066 126.364606 
L 372.464132 125.495645 
L 373.098843 124.9793 
L 373.733554 124.653212 
L 374.050909 124.173593 
L 374.368264 123.981578 
L 374.68562 123.409314 
L 375.002975 123.139883 
L 375.637686 122.985188 
L 375.955041 122.255829 
L 376.272397 122.176523 
L 377.224463 121.668387 
L 377.541818 121.154741 
L 377.859174 121.036337 
L 378.81124 120.034773 
L 379.128595 119.215355 
L 379.44595 118.749265 
L 379.763306 117.939505 
L 380.080661 117.742232 
L 380.398017 117.122976 
L 380.715372 116.840788 
L 381.032727 116.374655 
L 381.350083 116.163715 
L 381.667438 115.712645 
L 381.984793 115.487931 
L 382.619504 114.793765 
L 382.93686 114.013636 
L 383.254215 113.726099 
L 383.57157 112.842039 
L 383.888926 112.401152 
L 384.840992 111.827929 
L 385.158347 111.140096 
L 386.110413 110.094251 
L 386.427769 109.49208 
L 386.745124 109.336058 
L 387.062479 108.886533 
L 387.379835 108.66712 
L 387.69719 108.243548 
L 388.014545 108.065043 
L 388.649256 104.438706 
L 389.283967 104.236921 
L 390.553388 101.259359 
L 390.870744 100.906569 
L 391.188099 99.373365 
L 391.505455 99.211881 
L 391.82281 98.584881 
L 392.140165 98.246915 
L 392.774876 96.659002 
L 393.092231 94.088289 
L 393.409587 93.563575 
L 393.726942 90.904238 
L 394.044298 90.846378 
L 394.679008 89.453355 
L 394.996364 88.479379 
L 395.313719 88.322346 
L 395.631074 87.4474 
L 395.94843 85.660173 
L 396.265785 80.054368 
L 396.58314 78.035436 
L 396.900496 77.440875 
L 397.535207 74.674898 
L 397.852562 67.02989 
L 398.169917 64.557638 
L 398.487273 53.568 
L 398.487273 53.568 
" clip-path="url(#p639faa5323)" style="fill: none; stroke: #1f77b4; stroke-width: 1.5; stroke-linecap: square"/>
   </g>
   <g id="line2d_16">
    <path d="M 73.832727 203.733465 
L 76.37157 203.677814 
L 76.688926 203.485088 
L 77.006281 203.485088 
L 77.323636 203.363889 
L 79.227769 203.324123 
L 80.49719 202.989256 
L 82.083967 202.917822 
L 82.401322 202.588019 
L 84.940165 202.499349 
L 86.526942 202.392296 
L 86.844298 202.198134 
L 89.065785 202.134057 
L 90.335207 201.855682 
L 91.287273 201.772585 
L 91.604628 201.722892 
L 91.921983 201.542341 
L 92.556694 201.509712 
L 92.87405 201.327932 
L 94.778182 201.240069 
L 96.047603 201.080117 
L 99.221157 200.971469 
L 100.173223 200.864668 
L 100.490579 200.742995 
L 102.394711 200.690504 
L 102.712066 200.407369 
L 107.155041 200.151954 
L 109.693884 199.786981 
L 110.01124 199.647135 
L 111.915372 199.608794 
L 112.550083 199.413826 
L 115.406281 199.300497 
L 116.040992 199.226064 
L 120.483967 198.959188 
L 120.801322 198.70766 
L 122.070744 198.616902 
L 123.340165 198.54099 
L 124.609587 198.493449 
L 124.926942 198.319295 
L 127.78314 198.137866 
L 128.100496 197.906525 
L 130.956694 197.818824 
L 131.591405 197.705801 
L 137.938512 197.453816 
L 140.16 197.398126 
L 141.746777 197.038113 
L 143.016198 197.029745 
L 143.333554 196.886724 
L 147.141818 196.784004 
L 149.680661 196.572943 
L 149.998017 196.162731 
L 151.267438 196.063584 
L 152.53686 195.94329 
L 155.710413 195.877343 
L 156.027769 195.681863 
L 157.614545 195.572918 
L 159.836033 195.526529 
L 160.470744 195.410221 
L 163.326942 195.232664 
L 163.961653 195.151573 
L 165.231074 195.093869 
L 166.500496 195.03412 
L 166.817851 194.707137 
L 171.578182 194.51451 
L 171.895537 194.291554 
L 174.751736 194.113285 
L 175.069091 193.970235 
L 176.973223 193.913624 
L 177.607934 193.828688 
L 181.733554 193.728587 
L 190.619504 193.10936 
L 191.254215 193.014312 
L 197.283967 192.437755 
L 200.140165 192.297776 
L 203.313719 192.157254 
L 205.852562 192.075118 
L 207.121983 191.908582 
L 208.70876 191.802106 
L 214.103802 191.505786 
L 216.325289 191.419104 
L 218.864132 191.28621 
L 219.816198 191.264293 
L 220.768264 190.985815 
L 238.857521 190.162227 
L 239.174876 189.899129 
L 242.34843 189.814659 
L 242.98314 189.747738 
L 247.10876 189.653389 
L 247.426116 189.503165 
L 249.964959 189.34481 
L 251.869091 189.154389 
L 254.090579 189.058608 
L 255.994711 188.900522 
L 258.533554 188.811341 
L 259.168264 188.659902 
L 260.437686 188.552115 
L 261.072397 188.437907 
L 269.006281 188.09708 
L 270.275702 187.974588 
L 272.49719 187.891654 
L 273.449256 187.829111 
L 276.940165 187.77795 
L 277.574876 187.489419 
L 279.479008 187.386801 
L 283.287273 186.913821 
L 286.460826 186.80503 
L 287.730248 186.744345 
L 288.999669 186.73179 
L 289.63438 186.357228 
L 294.712066 186.204388 
L 295.981488 186.032655 
L 297.250909 185.949735 
L 298.520331 185.796636 
L 301.376529 185.687959 
L 304.550083 185.579613 
L 304.867438 185.310689 
L 306.77157 185.217379 
L 307.088926 185.217379 
L 307.406281 185.019854 
L 308.358347 184.918879 
L 308.993058 184.847295 
L 310.579835 184.749063 
L 313.436033 184.525575 
L 314.070744 184.480198 
L 314.705455 184.38073 
L 315.02281 184.38073 
L 315.657521 184.257627 
L 316.609587 184.1503 
L 318.831074 184.065019 
L 319.14843 183.875773 
L 324.226116 183.514529 
L 325.178182 183.395121 
L 326.130248 183.328409 
L 328.03438 183.115142 
L 328.669091 183.05414 
L 329.303802 182.936266 
L 330.890579 182.849869 
L 332.794711 182.532755 
L 333.746777 182.486493 
L 334.381488 182.379637 
L 335.016198 182.292899 
L 335.968264 182.204207 
L 337.237686 182.179442 
L 337.872397 182.042975 
L 341.363306 181.894709 
L 342.632727 181.48024 
L 344.854215 181.395731 
L 345.17157 181.165797 
L 347.393058 181.12633 
L 348.027769 180.949436 
L 349.614545 180.807704 
L 349.931901 180.547674 
L 355.644298 180.324557 
L 357.865785 179.706797 
L 358.817851 179.602063 
L 364.212893 179.257201 
L 364.530248 178.944704 
L 365.799669 178.741919 
L 366.751736 178.639917 
L 369.290579 178.341516 
L 369.925289 178.335628 
L 370.242645 177.903148 
L 372.146777 177.700593 
L 372.464132 177.457272 
L 373.416198 177.389801 
L 375.002975 177.309179 
L 375.637686 177.224747 
L 376.589752 177.112517 
L 376.907107 176.581542 
L 377.224463 176.278873 
L 377.859174 176.235628 
L 378.493884 176.137499 
L 379.44595 176.114009 
L 379.763306 175.712399 
L 382.302149 175.370115 
L 382.619504 175.084719 
L 384.840992 174.978139 
L 385.158347 174.582194 
L 385.793058 174.528437 
L 386.110413 173.933025 
L 387.062479 173.879249 
L 387.379835 173.527765 
L 388.014545 173.38613 
L 388.966612 173.303455 
L 389.283967 172.892172 
L 389.918678 172.868331 
L 390.236033 172.669815 
L 390.553388 172.211629 
L 391.188099 172.184377 
L 391.505455 171.755986 
L 392.140165 171.687879 
L 392.457521 171.298198 
L 393.726942 171.205311 
L 394.044298 170.830172 
L 394.361653 170.030393 
L 395.94843 169.90886 
L 396.265785 168.500588 
L 396.58314 167.752758 
L 397.217851 167.682175 
L 397.535207 165.227761 
L 398.169917 165.211069 
L 398.487273 163.208275 
L 398.487273 163.208275 
" clip-path="url(#p639faa5323)" style="fill: none; stroke: #ff7f0e; stroke-width: 1.5; stroke-linecap: square"/>
   </g>
   <g id="patch_3">
    <path d="M 57.6 307.584 
L 57.6 41.472 
" style="fill: none; stroke: #000000; stroke-width: 0.8; stroke-linejoin: miter; stroke-linecap: square"/>
   </g>
   <g id="patch_4">
    <path d="M 414.72 307.584 
L 414.72 41.472 
" style="fill: none; stroke: #000000; stroke-width: 0.8; stroke-linejoin: miter; stroke-linecap: square"/>
   </g>
   <g id="patch_5">
    <path d="M 57.6 307.584 
L 414.72 307.584 
" style="fill: none; stroke: #000000; stroke-width: 0.8; stroke-linejoin: miter; stroke-linecap: square"/>
   </g>
   <g id="patch_6">
    <path d="M 57.6 41.472 
L 414.72 41.472 
" style="fill: none; stroke: #000000; stroke-width: 0.8; stroke-linejoin: miter; stroke-linecap: square"/>
   </g>
   <g id="legend_1">
    <g id="patch_7">
     <path d="M 64.6 78.82825 
L 129.342187 78.82825 
Q 131.342187 78.82825 131.342187 76.82825 
L 131.342187 48.472 
Q 131.342187 46.472 129.342187 46.472 
L 64.6 46.472 
Q 62.6 46.472 62.6 48.472 
L 62.6 76.82825 
Q 62.6 78.82825 64.6 78.82825 
z
" style="fill: #ffffff; opacity: 0.8; stroke: #cccccc; stroke-linejoin: miter"/>
    </g>
    <g id="line2d_17">
     <path d="M 66.6 54.570437 
L 76.6 54.570437 
L 86.6 54.570437 
" style="fill: none; stroke: #1f77b4; stroke-width: 1.5; stroke-linecap: square"/>
    </g>
    <g id="text_17">
     <!-- qc -->
     <g transform="translate(94.6 58.070437) scale(0.1 -0.1)">
      <defs>
       <path id="DejaVuSans-71" d="M 947 1747 
Q 947 1113 1208 752 
Q 1469 391 1925 391 
Q 2381 391 2643 752 
Q 2906 1113 2906 1747 
Q 2906 2381 2643 2742 
Q 2381 3103 1925 3103 
Q 1469 3103 1208 2742 
Q 947 2381 947 1747 
z
M 2906 525 
Q 2725 213 2448 61 
Q 2172 -91 1784 -91 
Q 1150 -91 751 415 
Q 353 922 353 1747 
Q 353 2572 751 3078 
Q 1150 3584 1784 3584 
Q 2172 3584 2448 3432 
Q 2725 3281 2906 2969 
L 2906 3500 
L 3481 3500 
L 3481 -1331 
L 2906 -1331 
L 2906 525 
z
" transform="scale(0.015625)"/>
       <path id="DejaVuSans-63" d="M 3122 3366 
L 3122 2828 
Q 2878 2963 2633 3030 
Q 2388 3097 2138 3097 
Q 1578 3097 1268 2742 
Q 959 2388 959 1747 
Q 959 1106 1268 751 
Q 1578 397 2138 397 
Q 2388 397 2633 464 
Q 2878 531 3122 666 
L 3122 134 
Q 2881 22 2623 -34 
Q 2366 -91 2075 -91 
Q 1284 -91 818 406 
Q 353 903 353 1747 
Q 353 2603 823 3093 
Q 1294 3584 2113 3584 
Q 2378 3584 2631 3529 
Q 2884 3475 3122 3366 
z
" transform="scale(0.015625)"/>
      </defs>
      <use xlink:href="#DejaVuSans-71"/>
      <use xlink:href="#DejaVuSans-63" x="63.476562"/>
     </g>
    </g>
    <g id="line2d_18">
     <path d="M 66.6 69.248562 
L 76.6 69.248562 
L 86.6 69.248562 
" style="fill: none; stroke: #ff7f0e; stroke-width: 1.5; stroke-linecap: square"/>
    </g>
    <g id="text_18">
     <!-- Trotter -->
     <g transform="translate(94.6 72.748562) scale(0.1 -0.1)">
      <defs>
       <path id="DejaVuSans-54" d="M -19 4666 
L 3928 4666 
L 3928 4134 
L 2272 4134 
L 2272 0 
L 1638 0 
L 1638 4134 
L -19 4134 
L -19 4666 
z
" transform="scale(0.015625)"/>
       <path id="DejaVuSans-72" d="M 2631 2963 
Q 2534 3019 2420 3045 
Q 2306 3072 2169 3072 
Q 1681 3072 1420 2755 
Q 1159 2438 1159 1844 
L 1159 0 
L 581 0 
L 581 3500 
L 1159 3500 
L 1159 2956 
Q 1341 3275 1631 3429 
Q 1922 3584 2338 3584 
Q 2397 3584 2469 3576 
Q 2541 3569 2628 3553 
L 2631 2963 
z
" transform="scale(0.015625)"/>
       <path id="DejaVuSans-6f" d="M 1959 3097 
Q 1497 3097 1228 2736 
Q 959 2375 959 1747 
Q 959 1119 1226 758 
Q 1494 397 1959 397 
Q 2419 397 2687 759 
Q 2956 1122 2956 1747 
Q 2956 2369 2687 2733 
Q 2419 3097 1959 3097 
z
M 1959 3584 
Q 2709 3584 3137 3096 
Q 3566 2609 3566 1747 
Q 3566 888 3137 398 
Q 2709 -91 1959 -91 
Q 1206 -91 779 398 
Q 353 888 353 1747 
Q 353 2609 779 3096 
Q 1206 3584 1959 3584 
z
" transform="scale(0.015625)"/>
       <path id="DejaVuSans-65" d="M 3597 1894 
L 3597 1613 
L 953 1613 
Q 991 1019 1311 708 
Q 1631 397 2203 397 
Q 2534 397 2845 478 
Q 3156 559 3463 722 
L 3463 178 
Q 3153 47 2828 -22 
Q 2503 -91 2169 -91 
Q 1331 -91 842 396 
Q 353 884 353 1716 
Q 353 2575 817 3079 
Q 1281 3584 2069 3584 
Q 2775 3584 3186 3129 
Q 3597 2675 3597 1894 
z
M 3022 2063 
Q 3016 2534 2758 2815 
Q 2500 3097 2075 3097 
Q 1594 3097 1305 2825 
Q 1016 2553 972 2059 
L 3022 2063 
z
" transform="scale(0.015625)"/>
      </defs>
      <use xlink:href="#DejaVuSans-54"/>
      <use xlink:href="#DejaVuSans-72" x="46.333984"/>
      <use xlink:href="#DejaVuSans-6f" x="85.197266"/>
      <use xlink:href="#DejaVuSans-74" x="146.378906"/>
      <use xlink:href="#DejaVuSans-74" x="185.587891"/>
      <use xlink:href="#DejaVuSans-65" x="224.796875"/>
      <use xlink:href="#DejaVuSans-72" x="286.320312"/>
     </g>
    </g>
   </g>
  </g>
 </g>
 <defs>
  <clipPath id="p639faa5323">
   <rect x="57.6" y="41.472" width="357.12" height="266.112"/>
  </clipPath>
 </defs>
</svg>
