<?xml version="1.0" encoding="utf-8" standalone="no"?>
<!DOCTYPE svg PUBLIC "-//W3C//DTD SVG 1.1//EN"
  "http://www.w3.org/Graphics/SVG/1.1/DTD/svg11.dtd">
<svg xmlns:xlink="http://www.w3.org/1999/xlink" width="460.8pt" height="345.6pt" viewBox="0 0 460.8 345.6" xmlns="http://www.w3.org/2000/svg" version="1.1">
 <metadata>
  <rdf:RDF xmlns:dc="http://purl.org/dc/elements/1.1/" xmlns:cc="http://creativecommons.org/ns#" xmlns:rdf="http://www.w3.org/1999/02/22-rdf-syntax-ns#">
   <cc:Work>
    <dc:type rdf:resource="http://purl.org/dc/dcmitype/StillImage"/>
    <dc:date>2024-07-05T01:30:27.966569</dc:date>
    <dc:format>image/svg+xml</dc:format>
    <dc:creator>
     <cc:Agent>
      <dc:title>Matplotlib v3.7.1, https://matplotlib.org/</dc:title>
     </cc:Agent>
    </dc:creator>
   </cc:Work>
  </rdf:RDF>
 </metadata>
 <defs>
  <style type="text/css">*{stroke-linejoin: round; stroke-linecap: butt}</style>
 </defs>
 <g id="figure_1">
  <g id="patch_1">
   <path d="M 0 345.6 
L 460.8 345.6 
L 460.8 0 
L 0 0 
z
" style="fill: #ffffff"/>
  </g>
  <g id="axes_1">
   <g id="patch_2">
    <path d="M 57.6 307.584 
L 414.72 307.584 
L 414.72 41.472 
L 57.6 41.472 
z
" style="fill: #ffffff"/>
   </g>
   <g id="matplotlib.axis_1">
    <g id="xtick_1">
     <g id="line2d_1">
      <defs>
       <path id="m579593d640" d="M 0 0 
L 0 3.5 
" style="stroke: #000000; stroke-width: 0.8"/>
      </defs>
      <g>
       <use xlink:href="#m579593d640" x="73.832727" y="307.584" style="stroke: #000000; stroke-width: 0.8"/>
      </g>
     </g>
     <g id="text_1">
      <!-- 0 -->
      <g transform="translate(70.651477 322.182437) scale(0.1 -0.1)">
       <defs>
        <path id="DejaVuSans-30" d="M 2034 4250 
Q 1547 4250 1301 3770 
Q 1056 3291 1056 2328 
Q 1056 1369 1301 889 
Q 1547 409 2034 409 
Q 2525 409 2770 889 
Q 3016 1369 3016 2328 
Q 3016 3291 2770 3770 
Q 2525 4250 2034 4250 
z
M 2034 4750 
Q 2819 4750 3233 4129 
Q 3647 3509 3647 2328 
Q 3647 1150 3233 529 
Q 2819 -91 2034 -91 
Q 1250 -91 836 529 
Q 422 1150 422 2328 
Q 422 3509 836 4129 
Q 1250 4750 2034 4750 
z
" transform="scale(0.015625)"/>
       </defs>
       <use xlink:href="#DejaVuSans-30"/>
      </g>
     </g>
    </g>
    <g id="xtick_2">
     <g id="line2d_2">
      <g>
       <use xlink:href="#m579593d640" x="137.303802" y="307.584" style="stroke: #000000; stroke-width: 0.8"/>
      </g>
     </g>
     <g id="text_2">
      <!-- 200 -->
      <g transform="translate(127.760052 322.182437) scale(0.1 -0.1)">
       <defs>
        <path id="DejaVuSans-32" d="M 1228 531 
L 3431 531 
L 3431 0 
L 469 0 
L 469 531 
Q 828 903 1448 1529 
Q 2069 2156 2228 2338 
Q 2531 2678 2651 2914 
Q 2772 3150 2772 3378 
Q 2772 3750 2511 3984 
Q 2250 4219 1831 4219 
Q 1534 4219 1204 4116 
Q 875 4013 500 3803 
L 500 4441 
Q 881 4594 1212 4672 
Q 1544 4750 1819 4750 
Q 2544 4750 2975 4387 
Q 3406 4025 3406 3419 
Q 3406 3131 3298 2873 
Q 3191 2616 2906 2266 
Q 2828 2175 2409 1742 
Q 1991 1309 1228 531 
z
" transform="scale(0.015625)"/>
       </defs>
       <use xlink:href="#DejaVuSans-32"/>
       <use xlink:href="#DejaVuSans-30" x="63.623047"/>
       <use xlink:href="#DejaVuSans-30" x="127.246094"/>
      </g>
     </g>
    </g>
    <g id="xtick_3">
     <g id="line2d_3">
      <g>
       <use xlink:href="#m579593d640" x="200.774876" y="307.584" style="stroke: #000000; stroke-width: 0.8"/>
      </g>
     </g>
     <g id="text_3">
      <!-- 400 -->
      <g transform="translate(191.231126 322.182437) scale(0.1 -0.1)">
       <defs>
        <path id="DejaVuSans-34" d="M 2419 4116 
L 825 1625 
L 2419 1625 
L 2419 4116 
z
M 2253 4666 
L 3047 4666 
L 3047 1625 
L 3713 1625 
L 3713 1100 
L 3047 1100 
L 3047 0 
L 2419 0 
L 2419 1100 
L 313 1100 
L 313 1709 
L 2253 4666 
z
" transform="scale(0.015625)"/>
       </defs>
       <use xlink:href="#DejaVuSans-34"/>
       <use xlink:href="#DejaVuSans-30" x="63.623047"/>
       <use xlink:href="#DejaVuSans-30" x="127.246094"/>
      </g>
     </g>
    </g>
    <g id="xtick_4">
     <g id="line2d_4">
      <g>
       <use xlink:href="#m579593d640" x="264.24595" y="307.584" style="stroke: #000000; stroke-width: 0.8"/>
      </g>
     </g>
     <g id="text_4">
      <!-- 600 -->
      <g transform="translate(254.7022 322.182437) scale(0.1 -0.1)">
       <defs>
        <path id="DejaVuSans-36" d="M 2113 2584 
Q 1688 2584 1439 2293 
Q 1191 2003 1191 1497 
Q 1191 994 1439 701 
Q 1688 409 2113 409 
Q 2538 409 2786 701 
Q 3034 994 3034 1497 
Q 3034 2003 2786 2293 
Q 2538 2584 2113 2584 
z
M 3366 4563 
L 3366 3988 
Q 3128 4100 2886 4159 
Q 2644 4219 2406 4219 
Q 1781 4219 1451 3797 
Q 1122 3375 1075 2522 
Q 1259 2794 1537 2939 
Q 1816 3084 2150 3084 
Q 2853 3084 3261 2657 
Q 3669 2231 3669 1497 
Q 3669 778 3244 343 
Q 2819 -91 2113 -91 
Q 1303 -91 875 529 
Q 447 1150 447 2328 
Q 447 3434 972 4092 
Q 1497 4750 2381 4750 
Q 2619 4750 2861 4703 
Q 3103 4656 3366 4563 
z
" transform="scale(0.015625)"/>
       </defs>
       <use xlink:href="#DejaVuSans-36"/>
       <use xlink:href="#DejaVuSans-30" x="63.623047"/>
       <use xlink:href="#DejaVuSans-30" x="127.246094"/>
      </g>
     </g>
    </g>
    <g id="xtick_5">
     <g id="line2d_5">
      <g>
       <use xlink:href="#m579593d640" x="327.717025" y="307.584" style="stroke: #000000; stroke-width: 0.8"/>
      </g>
     </g>
     <g id="text_5">
      <!-- 800 -->
      <g transform="translate(318.173275 322.182437) scale(0.1 -0.1)">
       <defs>
        <path id="DejaVuSans-38" d="M 2034 2216 
Q 1584 2216 1326 1975 
Q 1069 1734 1069 1313 
Q 1069 891 1326 650 
Q 1584 409 2034 409 
Q 2484 409 2743 651 
Q 3003 894 3003 1313 
Q 3003 1734 2745 1975 
Q 2488 2216 2034 2216 
z
M 1403 2484 
Q 997 2584 770 2862 
Q 544 3141 544 3541 
Q 544 4100 942 4425 
Q 1341 4750 2034 4750 
Q 2731 4750 3128 4425 
Q 3525 4100 3525 3541 
Q 3525 3141 3298 2862 
Q 3072 2584 2669 2484 
Q 3125 2378 3379 2068 
Q 3634 1759 3634 1313 
Q 3634 634 3220 271 
Q 2806 -91 2034 -91 
Q 1263 -91 848 271 
Q 434 634 434 1313 
Q 434 1759 690 2068 
Q 947 2378 1403 2484 
z
M 1172 3481 
Q 1172 3119 1398 2916 
Q 1625 2713 2034 2713 
Q 2441 2713 2670 2916 
Q 2900 3119 2900 3481 
Q 2900 3844 2670 4047 
Q 2441 4250 2034 4250 
Q 1625 4250 1398 4047 
Q 1172 3844 1172 3481 
z
" transform="scale(0.015625)"/>
       </defs>
       <use xlink:href="#DejaVuSans-38"/>
       <use xlink:href="#DejaVuSans-30" x="63.623047"/>
       <use xlink:href="#DejaVuSans-30" x="127.246094"/>
      </g>
     </g>
    </g>
    <g id="xtick_6">
     <g id="line2d_6">
      <g>
       <use xlink:href="#m579593d640" x="391.188099" y="307.584" style="stroke: #000000; stroke-width: 0.8"/>
      </g>
     </g>
     <g id="text_6">
      <!-- 1000 -->
      <g transform="translate(378.463099 322.182437) scale(0.1 -0.1)">
       <defs>
        <path id="DejaVuSans-31" d="M 794 531 
L 1825 531 
L 1825 4091 
L 703 3866 
L 703 4441 
L 1819 4666 
L 2450 4666 
L 2450 531 
L 3481 531 
L 3481 0 
L 794 0 
L 794 531 
z
" transform="scale(0.015625)"/>
       </defs>
       <use xlink:href="#DejaVuSans-31"/>
       <use xlink:href="#DejaVuSans-30" x="63.623047"/>
       <use xlink:href="#DejaVuSans-30" x="127.246094"/>
       <use xlink:href="#DejaVuSans-30" x="190.869141"/>
      </g>
     </g>
    </g>
    <g id="text_7">
     <!-- n -->
     <g transform="translate(232.99125 335.860562) scale(0.1 -0.1)">
      <defs>
       <path id="DejaVuSans-6e" d="M 3513 2113 
L 3513 0 
L 2938 0 
L 2938 2094 
Q 2938 2591 2744 2837 
Q 2550 3084 2163 3084 
Q 1697 3084 1428 2787 
Q 1159 2491 1159 1978 
L 1159 0 
L 581 0 
L 581 3500 
L 1159 3500 
L 1159 2956 
Q 1366 3272 1645 3428 
Q 1925 3584 2291 3584 
Q 2894 3584 3203 3211 
Q 3513 2838 3513 2113 
z
" transform="scale(0.015625)"/>
      </defs>
      <use xlink:href="#DejaVuSans-6e"/>
     </g>
    </g>
   </g>
   <g id="matplotlib.axis_2">
    <g id="ytick_1">
     <g id="line2d_7">
      <defs>
       <path id="m9f1ac16574" d="M 0 0 
L -3.5 0 
" style="stroke: #000000; stroke-width: 0.8"/>
      </defs>
      <g>
       <use xlink:href="#m9f1ac16574" x="57.6" y="290.021166" style="stroke: #000000; stroke-width: 0.8"/>
      </g>
     </g>
     <g id="text_8">
      <!-- −3 -->
      <g transform="translate(35.857813 293.820384) scale(0.1 -0.1)">
       <defs>
        <path id="DejaVuSans-2212" d="M 678 2272 
L 4684 2272 
L 4684 1741 
L 678 1741 
L 678 2272 
z
" transform="scale(0.015625)"/>
        <path id="DejaVuSans-33" d="M 2597 2516 
Q 3050 2419 3304 2112 
Q 3559 1806 3559 1356 
Q 3559 666 3084 287 
Q 2609 -91 1734 -91 
Q 1441 -91 1130 -33 
Q 819 25 488 141 
L 488 750 
Q 750 597 1062 519 
Q 1375 441 1716 441 
Q 2309 441 2620 675 
Q 2931 909 2931 1356 
Q 2931 1769 2642 2001 
Q 2353 2234 1838 2234 
L 1294 2234 
L 1294 2753 
L 1863 2753 
Q 2328 2753 2575 2939 
Q 2822 3125 2822 3475 
Q 2822 3834 2567 4026 
Q 2313 4219 1838 4219 
Q 1578 4219 1281 4162 
Q 984 4106 628 3988 
L 628 4550 
Q 988 4650 1302 4700 
Q 1616 4750 1894 4750 
Q 2613 4750 3031 4423 
Q 3450 4097 3450 3541 
Q 3450 3153 3228 2886 
Q 3006 2619 2597 2516 
z
" transform="scale(0.015625)"/>
       </defs>
       <use xlink:href="#DejaVuSans-2212"/>
       <use xlink:href="#DejaVuSans-33" x="83.789062"/>
      </g>
     </g>
    </g>
    <g id="ytick_2">
     <g id="line2d_8">
      <g>
       <use xlink:href="#m9f1ac16574" x="57.6" y="250.593787" style="stroke: #000000; stroke-width: 0.8"/>
      </g>
     </g>
     <g id="text_9">
      <!-- −2 -->
      <g transform="translate(35.857813 254.393006) scale(0.1 -0.1)">
       <use xlink:href="#DejaVuSans-2212"/>
       <use xlink:href="#DejaVuSans-32" x="83.789062"/>
      </g>
     </g>
    </g>
    <g id="ytick_3">
     <g id="line2d_9">
      <g>
       <use xlink:href="#m9f1ac16574" x="57.6" y="211.166408" style="stroke: #000000; stroke-width: 0.8"/>
      </g>
     </g>
     <g id="text_10">
      <!-- −1 -->
      <g transform="translate(35.857813 214.965627) scale(0.1 -0.1)">
       <use xlink:href="#DejaVuSans-2212"/>
       <use xlink:href="#DejaVuSans-31" x="83.789062"/>
      </g>
     </g>
    </g>
    <g id="ytick_4">
     <g id="line2d_10">
      <g>
       <use xlink:href="#m9f1ac16574" x="57.6" y="171.73903" style="stroke: #000000; stroke-width: 0.8"/>
      </g>
     </g>
     <g id="text_11">
      <!-- 0 -->
      <g transform="translate(44.2375 175.538249) scale(0.1 -0.1)">
       <use xlink:href="#DejaVuSans-30"/>
      </g>
     </g>
    </g>
    <g id="ytick_5">
     <g id="line2d_11">
      <g>
       <use xlink:href="#m9f1ac16574" x="57.6" y="132.311651" style="stroke: #000000; stroke-width: 0.8"/>
      </g>
     </g>
     <g id="text_12">
      <!-- 1 -->
      <g transform="translate(44.2375 136.11087) scale(0.1 -0.1)">
       <use xlink:href="#DejaVuSans-31"/>
      </g>
     </g>
    </g>
    <g id="ytick_6">
     <g id="line2d_12">
      <g>
       <use xlink:href="#m9f1ac16574" x="57.6" y="92.884273" style="stroke: #000000; stroke-width: 0.8"/>
      </g>
     </g>
     <g id="text_13">
      <!-- 2 -->
      <g transform="translate(44.2375 96.683492) scale(0.1 -0.1)">
       <use xlink:href="#DejaVuSans-32"/>
      </g>
     </g>
    </g>
    <g id="ytick_7">
     <g id="line2d_13">
      <g>
       <use xlink:href="#m9f1ac16574" x="57.6" y="53.456894" style="stroke: #000000; stroke-width: 0.8"/>
      </g>
     </g>
     <g id="text_14">
      <!-- 3 -->
      <g transform="translate(44.2375 57.256113) scale(0.1 -0.1)">
       <use xlink:href="#DejaVuSans-33"/>
      </g>
     </g>
    </g>
    <g id="text_15">
     <!-- E*t -->
     <g transform="translate(29.778125 182.147531) rotate(-90) scale(0.1 -0.1)">
      <defs>
       <path id="DejaVuSans-45" d="M 628 4666 
L 3578 4666 
L 3578 4134 
L 1259 4134 
L 1259 2753 
L 3481 2753 
L 3481 2222 
L 1259 2222 
L 1259 531 
L 3634 531 
L 3634 0 
L 628 0 
L 628 4666 
z
" transform="scale(0.015625)"/>
       <path id="DejaVuSans-2a" d="M 3009 3897 
L 1888 3291 
L 3009 2681 
L 2828 2375 
L 1778 3009 
L 1778 1831 
L 1422 1831 
L 1422 3009 
L 372 2375 
L 191 2681 
L 1313 3291 
L 191 3897 
L 372 4206 
L 1422 3572 
L 1422 4750 
L 1778 4750 
L 1778 3572 
L 2828 4206 
L 3009 3897 
z
" transform="scale(0.015625)"/>
       <path id="DejaVuSans-74" d="M 1172 4494 
L 1172 3500 
L 2356 3500 
L 2356 3053 
L 1172 3053 
L 1172 1153 
Q 1172 725 1289 603 
Q 1406 481 1766 481 
L 2356 481 
L 2356 0 
L 1766 0 
Q 1100 0 847 248 
Q 594 497 594 1153 
L 594 3053 
L 172 3053 
L 172 3500 
L 594 3500 
L 594 4494 
L 1172 4494 
z
" transform="scale(0.015625)"/>
      </defs>
      <use xlink:href="#DejaVuSans-45"/>
      <use xlink:href="#DejaVuSans-2a" x="63.183594"/>
      <use xlink:href="#DejaVuSans-74" x="113.183594"/>
     </g>
    </g>
   </g>
   <g id="line2d_14">
    <path d="M 73.832727 280.482403 
L 74.150083 275.623123 
L 74.467438 274.506992 
L 74.784793 269.723605 
L 75.102149 268.953257 
L 75.419504 266.916995 
L 75.73686 266.286009 
L 76.37157 262.680695 
L 76.688926 262.386026 
L 77.640992 259.835172 
L 77.958347 259.046407 
L 78.275702 257.616371 
L 79.227769 255.362548 
L 79.545124 255.242583 
L 79.862479 254.66624 
L 80.179835 253.665014 
L 80.49719 253.30566 
L 81.766612 250.592867 
L 82.401322 249.714466 
L 82.718678 249.429067 
L 83.036033 248.705921 
L 84.305455 247.402659 
L 84.940165 246.354718 
L 86.209587 244.354953 
L 86.526942 244.153378 
L 86.844298 243.740115 
L 87.161653 243.604844 
L 88.113719 242.452045 
L 88.74843 241.9457 
L 89.065785 241.256819 
L 89.700496 240.822266 
L 90.335207 240.076547 
L 90.652562 239.792767 
L 91.287273 239.00851 
L 91.604628 238.887778 
L 92.87405 237.496796 
L 93.191405 237.347999 
L 94.778182 235.984318 
L 96.682314 234.456 
L 97.317025 234.095284 
L 97.63438 233.888433 
L 97.951736 233.539633 
L 98.586446 233.249012 
L 98.903802 232.85663 
L 99.855868 232.203463 
L 100.173223 231.587428 
L 100.490579 231.465232 
L 100.807934 231.120572 
L 101.76 230.650232 
L 102.077355 230.296247 
L 102.394711 230.110177 
L 103.029421 229.92018 
L 103.981488 229.244813 
L 104.298843 229.168868 
L 105.250909 228.41278 
L 105.88562 228.185949 
L 106.837686 227.478704 
L 107.155041 227.214933 
L 107.472397 227.202627 
L 108.424463 226.508718 
L 109.376529 226.055135 
L 109.693884 225.667031 
L 110.01124 225.522976 
L 110.64595 224.976244 
L 110.963306 224.939123 
L 113.502149 223.332725 
L 113.819504 223.264062 
L 114.77157 222.736391 
L 118.262479 221.072346 
L 118.579835 220.976916 
L 119.214545 220.638535 
L 119.849256 220.321765 
L 120.166612 219.98988 
L 120.483967 219.938116 
L 121.436033 219.294121 
L 122.070744 219.087127 
L 122.388099 218.795846 
L 123.02281 218.62512 
L 124.926942 217.827093 
L 125.561653 217.558276 
L 127.14843 216.7735 
L 127.465785 216.6572 
L 127.78314 216.372164 
L 128.417851 216.207062 
L 129.052562 215.705548 
L 130.639339 215.078136 
L 132.543471 214.235404 
L 132.860826 214.001494 
L 133.495537 213.859379 
L 134.447603 213.469344 
L 135.082314 213.316883 
L 135.399669 213.004372 
L 136.03438 212.857591 
L 136.669091 212.53038 
L 137.303802 212.26222 
L 143.650909 209.366913 
L 143.968264 209.314967 
L 144.920331 208.889016 
L 149.363306 207.139128 
L 149.998017 206.919911 
L 156.979835 204.107945 
L 157.29719 204.077064 
L 158.249256 203.647906 
L 159.201322 203.381601 
L 159.836033 203.051126 
L 160.788099 202.692552 
L 162.057521 202.261413 
L 163.326942 201.785402 
L 165.54843 200.9627 
L 166.18314 200.727813 
L 167.135207 200.432859 
L 167.769917 200.150861 
L 170.943471 199.076842 
L 172.212893 198.574627 
L 172.847603 198.413272 
L 173.482314 198.177105 
L 174.43438 197.757527 
L 175.386446 197.496765 
L 176.021157 197.255824 
L 177.925289 196.59585 
L 178.56 196.390457 
L 179.512066 196.016624 
L 181.098843 195.533928 
L 181.733554 195.18795 
L 184.907107 194.188902 
L 185.541818 194.037053 
L 186.493884 193.687381 
L 187.44595 193.35362 
L 188.398017 193.108968 
L 189.984793 192.530924 
L 191.57157 192.010771 
L 193.158347 191.382279 
L 193.793058 191.19362 
L 194.745124 190.895481 
L 196.649256 190.244661 
L 197.601322 189.90529 
L 197.918678 189.720738 
L 198.870744 189.537043 
L 199.82281 189.145917 
L 200.140165 189.118945 
L 201.092231 188.739997 
L 208.391405 186.394716 
L 208.70876 186.179362 
L 210.612893 185.711586 
L 211.247603 185.4963 
L 214.421157 184.436778 
L 214.738512 184.233566 
L 215.690579 183.965515 
L 219.498843 182.85386 
L 220.133554 182.58037 
L 222.037686 181.826705 
L 222.672397 181.689189 
L 225.528595 180.703763 
L 226.163306 180.48613 
L 227.115372 180.20232 
L 228.384793 179.806511 
L 229.019504 179.561109 
L 229.33686 179.49993 
L 229.97157 179.263136 
L 230.923636 178.996864 
L 232.510413 178.466913 
L 233.145124 178.335689 
L 233.462479 178.167146 
L 233.779835 178.143626 
L 234.09719 177.876245 
L 235.366612 177.489286 
L 237.270744 176.858281 
L 238.22281 176.597316 
L 241.079008 175.718082 
L 242.665785 175.19643 
L 243.935207 174.852401 
L 244.887273 174.545286 
L 246.47405 174.068799 
L 249.330248 173.076428 
L 249.964959 172.900141 
L 251.23438 172.453002 
L 251.869091 172.164323 
L 253.455868 171.739377 
L 256.312066 170.739326 
L 256.946777 170.610612 
L 257.898843 170.215083 
L 260.120331 169.614566 
L 260.755041 169.292508 
L 261.389752 169.135073 
L 262.024463 168.880579 
L 262.659174 168.721986 
L 265.832727 167.617302 
L 270.275702 166.176054 
L 270.910413 165.969551 
L 274.083967 165.030042 
L 278.844298 163.372611 
L 279.161653 163.341322 
L 279.479008 163.145547 
L 280.431074 162.927226 
L 281.065785 162.655129 
L 284.87405 161.221612 
L 285.826116 160.871932 
L 287.095537 160.420084 
L 296.298843 157.013258 
L 296.933554 156.847123 
L 303.280661 154.507585 
L 303.598017 154.2796 
L 304.550083 154.004076 
L 304.867438 153.722001 
L 305.184793 153.684475 
L 305.819504 153.371859 
L 306.77157 153.081505 
L 308.358347 152.417148 
L 311.531901 151.327864 
L 311.849256 151.112731 
L 312.483967 150.997935 
L 313.118678 150.611553 
L 313.753388 150.361892 
L 314.388099 149.990593 
L 315.657521 149.590223 
L 316.926942 149.026907 
L 321.369917 147.248228 
L 321.687273 147.191099 
L 322.639339 146.712144 
L 323.27405 146.516778 
L 324.543471 145.938755 
L 325.812893 145.546346 
L 326.447603 145.240247 
L 327.399669 144.640158 
L 328.986446 144.082566 
L 329.303802 143.892095 
L 329.621157 143.857647 
L 329.938512 143.575576 
L 330.255868 143.473849 
L 330.573223 143.129864 
L 331.207934 142.991071 
L 332.16 142.658855 
L 332.477355 142.391096 
L 333.112066 142.106361 
L 334.064132 141.582479 
L 335.650909 140.861652 
L 336.28562 140.666465 
L 336.920331 140.300992 
L 347.075702 135.03417 
L 347.710413 134.707509 
L 348.979835 134.085988 
L 349.931901 133.606747 
L 350.566612 133.238572 
L 350.883967 133.211043 
L 351.836033 132.595893 
L 352.153388 132.280832 
L 353.105455 132.02852 
L 353.42281 131.628005 
L 355.961653 130.138247 
L 357.231074 129.419961 
L 358.500496 128.600342 
L 358.817851 128.186134 
L 361.039339 127.08039 
L 361.356694 126.719981 
L 361.67405 126.558219 
L 363.260826 125.231261 
L 364.212893 124.68831 
L 364.530248 124.572345 
L 365.164959 123.809632 
L 365.799669 123.610176 
L 366.117025 123.176987 
L 366.43438 123.035347 
L 367.703802 122.015202 
L 368.021157 121.970702 
L 368.655868 121.472537 
L 368.973223 120.942477 
L 370.56 120.000449 
L 371.194711 119.460111 
L 371.829421 118.959796 
L 372.781488 118.284966 
L 373.098843 117.941093 
L 373.416198 117.796359 
L 374.050909 117.18134 
L 374.68562 116.356356 
L 375.002975 116.144431 
L 375.637686 115.523301 
L 375.955041 115.222833 
L 376.272397 114.657698 
L 376.907107 114.126293 
L 377.541818 113.562322 
L 377.859174 113.366776 
L 378.176529 112.777321 
L 379.128595 112.14426 
L 379.44595 111.550197 
L 381.350083 109.896513 
L 381.667438 109.171193 
L 382.302149 108.624722 
L 384.523636 105.877218 
L 385.158347 104.364517 
L 385.475702 104.166643 
L 385.793058 103.441014 
L 386.110413 103.271002 
L 386.427769 102.853197 
L 386.745124 102.645348 
L 387.062479 102.224148 
L 387.379835 102.088828 
L 388.014545 100.901434 
L 389.283967 99.095699 
L 389.601322 98.318638 
L 389.918678 98.156171 
L 390.236033 96.694813 
L 390.870744 95.573185 
L 392.140165 93.221155 
L 393.092231 90.481908 
L 393.409587 89.898065 
L 393.726942 88.991976 
L 394.679008 84.627918 
L 394.996364 84.333992 
L 395.313719 82.794287 
L 395.631074 81.949418 
L 395.94843 80.166278 
L 396.58314 75.480274 
L 396.900496 73.918846 
L 397.217851 72.916746 
L 397.535207 70.574793 
L 397.852562 63.945066 
L 398.169917 62.151423 
L 398.487273 53.568 
L 398.487273 53.568 
" clip-path="url(#pb70d5652ad)" style="fill: none; stroke: #1f77b4; stroke-width: 1.5; stroke-linecap: square"/>
   </g>
   <g id="line2d_15">
    <path d="M 73.832727 295.488 
L 74.467438 295.488 
L 74.784793 285.162464 
L 75.102149 242.708311 
L 78.275702 242.708311 
L 78.593058 241.164529 
L 81.131901 241.164529 
L 81.449256 239.479762 
L 83.353388 239.479762 
L 83.670744 237.618293 
L 84.940165 237.618293 
L 85.257521 236.684307 
L 87.796364 236.684307 
L 88.113719 235.527609 
L 88.74843 235.527609 
L 89.065785 235.29626 
L 90.969917 235.29626 
L 91.287273 233.782212 
L 92.556694 233.782212 
L 92.87405 233.125837 
L 93.191405 232.115469 
L 93.826116 232.115469 
L 94.143471 230.727146 
L 96.047603 230.727146 
L 96.364959 229.899332 
L 97.63438 229.899332 
L 97.951736 229.706223 
L 100.490579 229.706223 
L 100.807934 229.015092 
L 101.442645 229.015092 
L 101.76 228.010173 
L 103.664132 228.010173 
L 103.981488 226.259039 
L 106.837686 226.176063 
L 107.155041 225.339379 
L 109.059174 225.339379 
L 109.376529 224.347044 
L 110.01124 224.347044 
L 110.328595 223.10791 
L 111.598017 223.10791 
L 111.915372 222.403037 
L 113.184793 222.403037 
L 113.502149 222.167507 
L 113.819504 220.929202 
L 117.310413 220.913356 
L 117.627769 220.098017 
L 119.531901 220.098017 
L 119.849256 219.095878 
L 121.753388 219.095878 
L 122.070744 217.745597 
L 122.705455 217.745597 
L 123.02281 217.139655 
L 124.292231 217.139655 
L 124.609587 216.928191 
L 125.879008 216.928191 
L 126.196364 215.545447 
L 128.100496 215.545447 
L 128.417851 215.00814 
L 129.052562 215.00814 
L 129.369917 213.540042 
L 132.226116 213.507034 
L 132.543471 212.617819 
L 132.860826 212.458873 
L 134.130248 212.458873 
L 134.764959 212.3461 
L 136.351736 212.3461 
L 136.669091 212.098201 
L 137.938512 212.098201 
L 138.255868 211.348566 
L 138.573223 211.216466 
L 142.064132 211.166408 
L 142.381488 209.21959 
L 144.28562 209.21959 
L 144.602975 208.682226 
L 145.872397 208.682226 
L 146.189752 208.256843 
L 148.41124 208.206683 
L 149.04595 208.107824 
L 149.363306 208.107824 
L 149.680661 207.093917 
L 150.950083 207.093917 
L 151.267438 204.741307 
L 151.902149 204.741307 
L 152.219504 204.457394 
L 152.854215 204.457394 
L 153.17157 203.815281 
L 153.488926 203.690443 
L 154.758347 203.690443 
L 155.075702 203.515096 
L 156.979835 203.515096 
L 157.29719 202.089486 
L 158.883967 202.083671 
L 159.201322 201.419461 
L 161.740165 201.419461 
L 162.057521 201.016834 
L 162.692231 201.016834 
L 163.009587 200.581537 
L 163.644298 200.581537 
L 163.961653 200.189573 
L 165.231074 200.189573 
L 165.54843 199.412501 
L 166.18314 199.344603 
L 167.769917 199.344603 
L 168.087273 197.109905 
L 171.895537 197.059167 
L 172.212893 196.8958 
L 172.847603 196.8958 
L 173.164959 194.924643 
L 175.069091 194.924643 
L 175.386446 194.501981 
L 176.021157 194.501981 
L 176.338512 193.440289 
L 178.242645 193.440289 
L 178.56 192.662627 
L 184.272397 192.587734 
L 184.589752 191.773875 
L 185.859174 191.773875 
L 186.176529 191.577093 
L 186.493884 190.850529 
L 187.128595 190.850529 
L 187.44595 190.436655 
L 189.350083 190.436655 
L 189.667438 189.99506 
L 190.302149 189.99506 
L 190.619504 189.72901 
L 191.254215 189.72901 
L 191.57157 189.23593 
L 192.840992 189.23593 
L 193.158347 188.990537 
L 193.475702 188.009892 
L 194.745124 188.009892 
L 195.062479 187.635032 
L 195.69719 187.635032 
L 196.014545 186.301693 
L 197.283967 186.301693 
L 197.601322 186.10342 
L 198.236033 186.10342 
L 198.553388 185.64851 
L 201.092231 185.64851 
L 201.409587 185.273318 
L 202.044298 185.273318 
L 202.361653 184.728188 
L 204.265785 184.728188 
L 204.58314 184.337344 
L 206.487273 184.337344 
L 206.804628 184.097497 
L 207.439339 184.097497 
L 207.756694 183.36739 
L 209.660826 183.36739 
L 209.978182 182.478235 
L 211.247603 182.478235 
L 211.564959 182.250076 
L 212.83438 182.250076 
L 213.151736 182.111262 
L 213.469091 181.168288 
L 217.594711 181.086857 
L 217.912066 180.829388 
L 219.181488 180.829388 
L 219.498843 180.466591 
L 220.133554 180.466591 
L 220.450909 180.029551 
L 221.08562 180.029551 
L 221.720331 178.82867 
L 223.624463 178.82867 
L 223.941818 177.952187 
L 224.576529 177.952187 
L 225.21124 177.504341 
L 226.480661 177.504341 
L 226.798017 177.10853 
L 228.702149 177.10853 
L 229.019504 176.652651 
L 230.288926 176.652651 
L 230.606281 176.219516 
L 232.827769 176.184558 
L 233.145124 175.783678 
L 233.779835 175.783678 
L 234.09719 175.478756 
L 236.001322 175.478756 
L 236.318678 175.103951 
L 237.588099 175.103951 
L 237.905455 174.603571 
L 238.540165 174.538189 
L 240.126942 174.538189 
L 240.444298 173.252539 
L 241.079008 173.252539 
L 241.396364 172.912218 
L 243.617851 172.813021 
L 243.935207 172.465979 
L 245.839339 172.465979 
L 246.156694 171.957737 
L 246.791405 171.957737 
L 247.10876 171.832025 
L 248.378182 171.832025 
L 248.695537 170.856538 
L 249.964959 170.856538 
L 250.282314 170.370099 
L 252.503802 170.291058 
L 252.821157 169.784671 
L 253.138512 169.017944 
L 255.36 169.004744 
L 255.677355 168.321621 
L 256.312066 168.321621 
L 256.629421 168.120896 
L 259.48562 168.064214 
L 259.802975 167.564609 
L 260.120331 166.630683 
L 261.389752 166.630683 
L 262.341818 165.363845 
L 264.563306 165.309162 
L 264.880661 165.174701 
L 266.784793 165.174701 
L 267.102149 164.121975 
L 269.958347 164.096736 
L 270.275702 163.782268 
L 270.910413 163.782268 
L 271.227769 163.391668 
L 273.131901 163.391668 
L 273.766612 163.276315 
L 274.083967 163.276315 
L 274.401322 162.819546 
L 275.670744 162.819546 
L 275.988099 162.565473 
L 276.62281 162.565473 
L 276.940165 162.274393 
L 278.209587 162.274393 
L 278.526942 160.850707 
L 280.113719 160.746325 
L 280.431074 160.487113 
L 281.700496 160.487113 
L 282.017851 159.518191 
L 282.335207 159.160698 
L 282.969917 159.160698 
L 283.287273 157.962488 
L 284.556694 157.962488 
L 284.87405 157.716309 
L 289.317025 157.605713 
L 289.63438 157.184898 
L 290.269091 157.184898 
L 290.903802 154.674016 
L 294.394711 154.663963 
L 294.712066 154.356355 
L 295.664132 154.313317 
L 296.298843 154.313317 
L 296.933554 153.324178 
L 297.568264 153.324178 
L 297.88562 152.919292 
L 299.789752 152.919292 
L 300.107107 152.411158 
L 301.376529 152.411158 
L 301.693884 151.95632 
L 303.280661 151.856509 
L 303.598017 151.544729 
L 304.867438 151.544729 
L 305.184793 151.333769 
L 305.819504 151.333769 
L 306.13686 149.770031 
L 307.406281 149.770031 
L 307.723636 149.36938 
L 308.358347 149.36938 
L 308.675702 148.073639 
L 309.310413 148.073639 
L 309.627769 147.755145 
L 309.945124 147.131601 
L 311.849256 147.131601 
L 312.166612 146.51146 
L 313.436033 146.51146 
L 313.753388 146.303826 
L 314.388099 146.303826 
L 314.705455 146.181108 
L 315.340165 146.181108 
L 315.657521 145.090608 
L 316.292231 145.090608 
L 317.244298 143.846256 
L 318.513719 143.846256 
L 318.831074 143.366284 
L 320.100496 143.366284 
L 320.417851 142.509142 
L 320.735207 142.279195 
L 322.639339 142.279195 
L 322.956694 141.491438 
L 325.178182 141.41121 
L 325.495537 140.307701 
L 326.130248 140.307701 
L 326.447603 140.156086 
L 327.082314 140.156086 
L 327.399669 139.817534 
L 328.03438 139.817534 
L 328.351736 138.894267 
L 329.621157 138.894267 
L 329.938512 138.769465 
L 330.255868 137.508666 
L 332.16 137.508666 
L 332.477355 136.564784 
L 333.112066 136.564784 
L 333.746777 135.469197 
L 335.016198 135.469197 
L 335.333554 135.066044 
L 335.968264 135.066044 
L 336.28562 134.538044 
L 336.920331 134.538044 
L 337.237686 134.017528 
L 338.507107 134.017528 
L 338.824463 133.123942 
L 339.459174 133.123942 
L 339.776529 132.680352 
L 343.267438 132.611238 
L 343.584793 130.664926 
L 343.902149 130.386422 
L 345.17157 130.386422 
L 345.488926 130.033907 
L 346.123636 130.033907 
L 346.440992 129.01857 
L 347.710413 129.01857 
L 348.027769 128.242427 
L 348.662479 128.242427 
L 348.979835 127.808088 
L 349.614545 127.808088 
L 349.931901 127.43177 
L 350.566612 127.43177 
L 350.883967 126.61169 
L 351.201322 125.394351 
L 352.788099 125.385774 
L 353.105455 124.911306 
L 355.961653 124.895031 
L 356.279008 124.645251 
L 357.54843 124.645251 
L 357.865785 122.503377 
L 358.500496 122.503377 
L 358.817851 121.629542 
L 359.452562 121.629542 
L 359.769917 121.155893 
L 361.039339 121.155893 
L 361.356694 120.261452 
L 362.626116 120.261452 
L 362.943471 120.03124 
L 363.578182 119.945981 
L 363.895537 119.945981 
L 364.212893 119.46936 
L 365.482314 119.46936 
L 365.799669 117.302882 
L 366.117025 117.142596 
L 366.751736 117.142596 
L 367.069091 116.806889 
L 367.703802 116.806889 
L 368.021157 115.731288 
L 368.655868 115.731288 
L 368.973223 114.603905 
L 369.607934 114.603905 
L 369.925289 114.40379 
L 371.194711 114.40379 
L 371.512066 112.189396 
L 372.781488 112.189396 
L 373.098843 111.595568 
L 373.416198 111.415006 
L 373.733554 109.925429 
L 374.368264 109.925429 
L 374.68562 109.358962 
L 375.320331 109.358962 
L 375.637686 109.174336 
L 376.907107 109.174336 
L 377.224463 108.698255 
L 377.859174 108.698255 
L 378.176529 105.314167 
L 378.493884 103.960246 
L 379.128595 103.960246 
L 379.44595 102.947337 
L 380.715372 102.947337 
L 381.032727 100.952558 
L 382.302149 100.952558 
L 382.619504 100.780249 
L 383.254215 100.780249 
L 383.888926 97.64384 
L 385.158347 97.64384 
L 385.475702 97.493831 
L 386.110413 97.493831 
L 386.427769 95.466694 
L 387.062479 95.466694 
L 387.379835 92.015128 
L 388.014545 92.015128 
L 388.331901 91.473453 
L 388.966612 89.304602 
L 390.236033 89.304602 
L 390.553388 86.288412 
L 391.188099 86.288412 
L 391.505455 85.634531 
L 391.82281 83.394316 
L 392.457521 83.394316 
L 392.774876 80.66211 
L 393.409587 80.66211 
L 393.726942 78.651823 
L 394.996364 78.651823 
L 395.313719 76.432367 
L 395.631074 72.365774 
L 396.265785 72.365774 
L 396.58314 71.809774 
L 397.217851 71.809774 
L 397.535207 64.616687 
L 397.852562 60.489645 
L 398.487273 60.489645 
L 398.487273 60.489645 
" clip-path="url(#pb70d5652ad)" style="fill: none; stroke: #ff7f0e; stroke-width: 1.5; stroke-linecap: square"/>
   </g>
   <g id="patch_3">
    <path d="M 57.6 307.584 
L 57.6 41.472 
" style="fill: none; stroke: #000000; stroke-width: 0.8; stroke-linejoin: miter; stroke-linecap: square"/>
   </g>
   <g id="patch_4">
    <path d="M 414.72 307.584 
L 414.72 41.472 
" style="fill: none; stroke: #000000; stroke-width: 0.8; stroke-linejoin: miter; stroke-linecap: square"/>
   </g>
   <g id="patch_5">
    <path d="M 57.6 307.584 
L 414.72 307.584 
" style="fill: none; stroke: #000000; stroke-width: 0.8; stroke-linejoin: miter; stroke-linecap: square"/>
   </g>
   <g id="patch_6">
    <path d="M 57.6 41.472 
L 414.72 41.472 
" style="fill: none; stroke: #000000; stroke-width: 0.8; stroke-linejoin: miter; stroke-linecap: square"/>
   </g>
   <g id="legend_1">
    <g id="patch_7">
     <path d="M 64.6 78.82825 
L 129.342187 78.82825 
Q 131.342187 78.82825 131.342187 76.82825 
L 131.342187 48.472 
Q 131.342187 46.472 129.342187 46.472 
L 64.6 46.472 
Q 62.6 46.472 62.6 48.472 
L 62.6 76.82825 
Q 62.6 78.82825 64.6 78.82825 
z
" style="fill: #ffffff; opacity: 0.8; stroke: #cccccc; stroke-linejoin: miter"/>
    </g>
    <g id="line2d_16">
     <path d="M 66.6 54.570437 
L 76.6 54.570437 
L 86.6 54.570437 
" style="fill: none; stroke: #1f77b4; stroke-width: 1.5; stroke-linecap: square"/>
    </g>
    <g id="text_16">
     <!-- qc -->
     <g transform="translate(94.6 58.070437) scale(0.1 -0.1)">
      <defs>
       <path id="DejaVuSans-71" d="M 947 1747 
Q 947 1113 1208 752 
Q 1469 391 1925 391 
Q 2381 391 2643 752 
Q 2906 1113 2906 1747 
Q 2906 2381 2643 2742 
Q 2381 3103 1925 3103 
Q 1469 3103 1208 2742 
Q 947 2381 947 1747 
z
M 2906 525 
Q 2725 213 2448 61 
Q 2172 -91 1784 -91 
Q 1150 -91 751 415 
Q 353 922 353 1747 
Q 353 2572 751 3078 
Q 1150 3584 1784 3584 
Q 2172 3584 2448 3432 
Q 2725 3281 2906 2969 
L 2906 3500 
L 3481 3500 
L 3481 -1331 
L 2906 -1331 
L 2906 525 
z
" transform="scale(0.015625)"/>
       <path id="DejaVuSans-63" d="M 3122 3366 
L 3122 2828 
Q 2878 2963 2633 3030 
Q 2388 3097 2138 3097 
Q 1578 3097 1268 2742 
Q 959 2388 959 1747 
Q 959 1106 1268 751 
Q 1578 397 2138 397 
Q 2388 397 2633 464 
Q 2878 531 3122 666 
L 3122 134 
Q 2881 22 2623 -34 
Q 2366 -91 2075 -91 
Q 1284 -91 818 406 
Q 353 903 353 1747 
Q 353 2603 823 3093 
Q 1294 3584 2113 3584 
Q 2378 3584 2631 3529 
Q 2884 3475 3122 3366 
z
" transform="scale(0.015625)"/>
      </defs>
      <use xlink:href="#DejaVuSans-71"/>
      <use xlink:href="#DejaVuSans-63" x="63.476562"/>
     </g>
    </g>
    <g id="line2d_17">
     <path d="M 66.6 69.248562 
L 76.6 69.248562 
L 86.6 69.248562 
" style="fill: none; stroke: #ff7f0e; stroke-width: 1.5; stroke-linecap: square"/>
    </g>
    <g id="text_17">
     <!-- Trotter -->
     <g transform="translate(94.6 72.748562) scale(0.1 -0.1)">
      <defs>
       <path id="DejaVuSans-54" d="M -19 4666 
L 3928 4666 
L 3928 4134 
L 2272 4134 
L 2272 0 
L 1638 0 
L 1638 4134 
L -19 4134 
L -19 4666 
z
" transform="scale(0.015625)"/>
       <path id="DejaVuSans-72" d="M 2631 2963 
Q 2534 3019 2420 3045 
Q 2306 3072 2169 3072 
Q 1681 3072 1420 2755 
Q 1159 2438 1159 1844 
L 1159 0 
L 581 0 
L 581 3500 
L 1159 3500 
L 1159 2956 
Q 1341 3275 1631 3429 
Q 1922 3584 2338 3584 
Q 2397 3584 2469 3576 
Q 2541 3569 2628 3553 
L 2631 2963 
z
" transform="scale(0.015625)"/>
       <path id="DejaVuSans-6f" d="M 1959 3097 
Q 1497 3097 1228 2736 
Q 959 2375 959 1747 
Q 959 1119 1226 758 
Q 1494 397 1959 397 
Q 2419 397 2687 759 
Q 2956 1122 2956 1747 
Q 2956 2369 2687 2733 
Q 2419 3097 1959 3097 
z
M 1959 3584 
Q 2709 3584 3137 3096 
Q 3566 2609 3566 1747 
Q 3566 888 3137 398 
Q 2709 -91 1959 -91 
Q 1206 -91 779 398 
Q 353 888 353 1747 
Q 353 2609 779 3096 
Q 1206 3584 1959 3584 
z
" transform="scale(0.015625)"/>
       <path id="DejaVuSans-65" d="M 3597 1894 
L 3597 1613 
L 953 1613 
Q 991 1019 1311 708 
Q 1631 397 2203 397 
Q 2534 397 2845 478 
Q 3156 559 3463 722 
L 3463 178 
Q 3153 47 2828 -22 
Q 2503 -91 2169 -91 
Q 1331 -91 842 396 
Q 353 884 353 1716 
Q 353 2575 817 3079 
Q 1281 3584 2069 3584 
Q 2775 3584 3186 3129 
Q 3597 2675 3597 1894 
z
M 3022 2063 
Q 3016 2534 2758 2815 
Q 2500 3097 2075 3097 
Q 1594 3097 1305 2825 
Q 1016 2553 972 2059 
L 3022 2063 
z
" transform="scale(0.015625)"/>
      </defs>
      <use xlink:href="#DejaVuSans-54"/>
      <use xlink:href="#DejaVuSans-72" x="46.333984"/>
      <use xlink:href="#DejaVuSans-6f" x="85.197266"/>
      <use xlink:href="#DejaVuSans-74" x="146.378906"/>
      <use xlink:href="#DejaVuSans-74" x="185.587891"/>
      <use xlink:href="#DejaVuSans-65" x="224.796875"/>
      <use xlink:href="#DejaVuSans-72" x="286.320312"/>
     </g>
    </g>
   </g>
  </g>
 </g>
 <defs>
  <clipPath id="pb70d5652ad">
   <rect x="57.6" y="41.472" width="357.12" height="266.112"/>
  </clipPath>
 </defs>
</svg>
