<?xml version="1.0" encoding="utf-8" standalone="no"?>
<!DOCTYPE svg PUBLIC "-//W3C//DTD SVG 1.1//EN"
  "http://www.w3.org/Graphics/SVG/1.1/DTD/svg11.dtd">
<svg xmlns:xlink="http://www.w3.org/1999/xlink" width="460.8pt" height="345.6pt" viewBox="0 0 460.8 345.6" xmlns="http://www.w3.org/2000/svg" version="1.1">
 <metadata>
  <rdf:RDF xmlns:dc="http://purl.org/dc/elements/1.1/" xmlns:cc="http://creativecommons.org/ns#" xmlns:rdf="http://www.w3.org/1999/02/22-rdf-syntax-ns#">
   <cc:Work>
    <dc:type rdf:resource="http://purl.org/dc/dcmitype/StillImage"/>
    <dc:date>2024-05-31T13:40:02.957757</dc:date>
    <dc:format>image/svg+xml</dc:format>
    <dc:creator>
     <cc:Agent>
      <dc:title>Matplotlib v3.7.1, https://matplotlib.org/</dc:title>
     </cc:Agent>
    </dc:creator>
   </cc:Work>
  </rdf:RDF>
 </metadata>
 <defs>
  <style type="text/css">*{stroke-linejoin: round; stroke-linecap: butt}</style>
 </defs>
 <g id="figure_1">
  <g id="patch_1">
   <path d="M 0 345.6 
L 460.8 345.6 
L 460.8 0 
L 0 0 
z
" style="fill: #ffffff"/>
  </g>
  <g id="axes_1">
   <g id="patch_2">
    <path d="M 57.6 307.584 
L 414.72 307.584 
L 414.72 41.472 
L 57.6 41.472 
z
" style="fill: #ffffff"/>
   </g>
   <g id="matplotlib.axis_1">
    <g id="xtick_1">
     <g id="line2d_1">
      <defs>
       <path id="m00553a26cb" d="M 0 0 
L 0 3.5 
" style="stroke: #000000; stroke-width: 0.8"/>
      </defs>
      <g>
       <use xlink:href="#m00553a26cb" x="73.832727" y="307.584" style="stroke: #000000; stroke-width: 0.8"/>
      </g>
     </g>
     <g id="text_1">
      <!-- 0 -->
      <g transform="translate(70.651477 322.182437) scale(0.1 -0.1)">
       <defs>
        <path id="DejaVuSans-30" d="M 2034 4250 
Q 1547 4250 1301 3770 
Q 1056 3291 1056 2328 
Q 1056 1369 1301 889 
Q 1547 409 2034 409 
Q 2525 409 2770 889 
Q 3016 1369 3016 2328 
Q 3016 3291 2770 3770 
Q 2525 4250 2034 4250 
z
M 2034 4750 
Q 2819 4750 3233 4129 
Q 3647 3509 3647 2328 
Q 3647 1150 3233 529 
Q 2819 -91 2034 -91 
Q 1250 -91 836 529 
Q 422 1150 422 2328 
Q 422 3509 836 4129 
Q 1250 4750 2034 4750 
z
" transform="scale(0.015625)"/>
       </defs>
       <use xlink:href="#DejaVuSans-30"/>
      </g>
     </g>
    </g>
    <g id="xtick_2">
     <g id="line2d_2">
      <g>
       <use xlink:href="#m00553a26cb" x="137.303802" y="307.584" style="stroke: #000000; stroke-width: 0.8"/>
      </g>
     </g>
     <g id="text_2">
      <!-- 200 -->
      <g transform="translate(127.760052 322.182437) scale(0.1 -0.1)">
       <defs>
        <path id="DejaVuSans-32" d="M 1228 531 
L 3431 531 
L 3431 0 
L 469 0 
L 469 531 
Q 828 903 1448 1529 
Q 2069 2156 2228 2338 
Q 2531 2678 2651 2914 
Q 2772 3150 2772 3378 
Q 2772 3750 2511 3984 
Q 2250 4219 1831 4219 
Q 1534 4219 1204 4116 
Q 875 4013 500 3803 
L 500 4441 
Q 881 4594 1212 4672 
Q 1544 4750 1819 4750 
Q 2544 4750 2975 4387 
Q 3406 4025 3406 3419 
Q 3406 3131 3298 2873 
Q 3191 2616 2906 2266 
Q 2828 2175 2409 1742 
Q 1991 1309 1228 531 
z
" transform="scale(0.015625)"/>
       </defs>
       <use xlink:href="#DejaVuSans-32"/>
       <use xlink:href="#DejaVuSans-30" x="63.623047"/>
       <use xlink:href="#DejaVuSans-30" x="127.246094"/>
      </g>
     </g>
    </g>
    <g id="xtick_3">
     <g id="line2d_3">
      <g>
       <use xlink:href="#m00553a26cb" x="200.774876" y="307.584" style="stroke: #000000; stroke-width: 0.8"/>
      </g>
     </g>
     <g id="text_3">
      <!-- 400 -->
      <g transform="translate(191.231126 322.182437) scale(0.1 -0.1)">
       <defs>
        <path id="DejaVuSans-34" d="M 2419 4116 
L 825 1625 
L 2419 1625 
L 2419 4116 
z
M 2253 4666 
L 3047 4666 
L 3047 1625 
L 3713 1625 
L 3713 1100 
L 3047 1100 
L 3047 0 
L 2419 0 
L 2419 1100 
L 313 1100 
L 313 1709 
L 2253 4666 
z
" transform="scale(0.015625)"/>
       </defs>
       <use xlink:href="#DejaVuSans-34"/>
       <use xlink:href="#DejaVuSans-30" x="63.623047"/>
       <use xlink:href="#DejaVuSans-30" x="127.246094"/>
      </g>
     </g>
    </g>
    <g id="xtick_4">
     <g id="line2d_4">
      <g>
       <use xlink:href="#m00553a26cb" x="264.24595" y="307.584" style="stroke: #000000; stroke-width: 0.8"/>
      </g>
     </g>
     <g id="text_4">
      <!-- 600 -->
      <g transform="translate(254.7022 322.182437) scale(0.1 -0.1)">
       <defs>
        <path id="DejaVuSans-36" d="M 2113 2584 
Q 1688 2584 1439 2293 
Q 1191 2003 1191 1497 
Q 1191 994 1439 701 
Q 1688 409 2113 409 
Q 2538 409 2786 701 
Q 3034 994 3034 1497 
Q 3034 2003 2786 2293 
Q 2538 2584 2113 2584 
z
M 3366 4563 
L 3366 3988 
Q 3128 4100 2886 4159 
Q 2644 4219 2406 4219 
Q 1781 4219 1451 3797 
Q 1122 3375 1075 2522 
Q 1259 2794 1537 2939 
Q 1816 3084 2150 3084 
Q 2853 3084 3261 2657 
Q 3669 2231 3669 1497 
Q 3669 778 3244 343 
Q 2819 -91 2113 -91 
Q 1303 -91 875 529 
Q 447 1150 447 2328 
Q 447 3434 972 4092 
Q 1497 4750 2381 4750 
Q 2619 4750 2861 4703 
Q 3103 4656 3366 4563 
z
" transform="scale(0.015625)"/>
       </defs>
       <use xlink:href="#DejaVuSans-36"/>
       <use xlink:href="#DejaVuSans-30" x="63.623047"/>
       <use xlink:href="#DejaVuSans-30" x="127.246094"/>
      </g>
     </g>
    </g>
    <g id="xtick_5">
     <g id="line2d_5">
      <g>
       <use xlink:href="#m00553a26cb" x="327.717025" y="307.584" style="stroke: #000000; stroke-width: 0.8"/>
      </g>
     </g>
     <g id="text_5">
      <!-- 800 -->
      <g transform="translate(318.173275 322.182437) scale(0.1 -0.1)">
       <defs>
        <path id="DejaVuSans-38" d="M 2034 2216 
Q 1584 2216 1326 1975 
Q 1069 1734 1069 1313 
Q 1069 891 1326 650 
Q 1584 409 2034 409 
Q 2484 409 2743 651 
Q 3003 894 3003 1313 
Q 3003 1734 2745 1975 
Q 2488 2216 2034 2216 
z
M 1403 2484 
Q 997 2584 770 2862 
Q 544 3141 544 3541 
Q 544 4100 942 4425 
Q 1341 4750 2034 4750 
Q 2731 4750 3128 4425 
Q 3525 4100 3525 3541 
Q 3525 3141 3298 2862 
Q 3072 2584 2669 2484 
Q 3125 2378 3379 2068 
Q 3634 1759 3634 1313 
Q 3634 634 3220 271 
Q 2806 -91 2034 -91 
Q 1263 -91 848 271 
Q 434 634 434 1313 
Q 434 1759 690 2068 
Q 947 2378 1403 2484 
z
M 1172 3481 
Q 1172 3119 1398 2916 
Q 1625 2713 2034 2713 
Q 2441 2713 2670 2916 
Q 2900 3119 2900 3481 
Q 2900 3844 2670 4047 
Q 2441 4250 2034 4250 
Q 1625 4250 1398 4047 
Q 1172 3844 1172 3481 
z
" transform="scale(0.015625)"/>
       </defs>
       <use xlink:href="#DejaVuSans-38"/>
       <use xlink:href="#DejaVuSans-30" x="63.623047"/>
       <use xlink:href="#DejaVuSans-30" x="127.246094"/>
      </g>
     </g>
    </g>
    <g id="xtick_6">
     <g id="line2d_6">
      <g>
       <use xlink:href="#m00553a26cb" x="391.188099" y="307.584" style="stroke: #000000; stroke-width: 0.8"/>
      </g>
     </g>
     <g id="text_6">
      <!-- 1000 -->
      <g transform="translate(378.463099 322.182437) scale(0.1 -0.1)">
       <defs>
        <path id="DejaVuSans-31" d="M 794 531 
L 1825 531 
L 1825 4091 
L 703 3866 
L 703 4441 
L 1819 4666 
L 2450 4666 
L 2450 531 
L 3481 531 
L 3481 0 
L 794 0 
L 794 531 
z
" transform="scale(0.015625)"/>
       </defs>
       <use xlink:href="#DejaVuSans-31"/>
       <use xlink:href="#DejaVuSans-30" x="63.623047"/>
       <use xlink:href="#DejaVuSans-30" x="127.246094"/>
       <use xlink:href="#DejaVuSans-30" x="190.869141"/>
      </g>
     </g>
    </g>
    <g id="text_7">
     <!-- n -->
     <g transform="translate(232.99125 335.860562) scale(0.1 -0.1)">
      <defs>
       <path id="DejaVuSans-6e" d="M 3513 2113 
L 3513 0 
L 2938 0 
L 2938 2094 
Q 2938 2591 2744 2837 
Q 2550 3084 2163 3084 
Q 1697 3084 1428 2787 
Q 1159 2491 1159 1978 
L 1159 0 
L 581 0 
L 581 3500 
L 1159 3500 
L 1159 2956 
Q 1366 3272 1645 3428 
Q 1925 3584 2291 3584 
Q 2894 3584 3203 3211 
Q 3513 2838 3513 2113 
z
" transform="scale(0.015625)"/>
      </defs>
      <use xlink:href="#DejaVuSans-6e"/>
     </g>
    </g>
   </g>
   <g id="matplotlib.axis_2">
    <g id="ytick_1">
     <g id="line2d_7">
      <defs>
       <path id="m6193a55987" d="M 0 0 
L -3.5 0 
" style="stroke: #000000; stroke-width: 0.8"/>
      </defs>
      <g>
       <use xlink:href="#m6193a55987" x="57.6" y="274.541972" style="stroke: #000000; stroke-width: 0.8"/>
      </g>
     </g>
     <g id="text_8">
      <!-- −0.6 -->
      <g transform="translate(26.317187 278.341191) scale(0.1 -0.1)">
       <defs>
        <path id="DejaVuSans-2212" d="M 678 2272 
L 4684 2272 
L 4684 1741 
L 678 1741 
L 678 2272 
z
" transform="scale(0.015625)"/>
        <path id="DejaVuSans-2e" d="M 684 794 
L 1344 794 
L 1344 0 
L 684 0 
L 684 794 
z
" transform="scale(0.015625)"/>
       </defs>
       <use xlink:href="#DejaVuSans-2212"/>
       <use xlink:href="#DejaVuSans-30" x="83.789062"/>
       <use xlink:href="#DejaVuSans-2e" x="147.412109"/>
       <use xlink:href="#DejaVuSans-36" x="179.199219"/>
      </g>
     </g>
    </g>
    <g id="ytick_2">
     <g id="line2d_8">
      <g>
       <use xlink:href="#m6193a55987" x="57.6" y="238.967216" style="stroke: #000000; stroke-width: 0.8"/>
      </g>
     </g>
     <g id="text_9">
      <!-- −0.4 -->
      <g transform="translate(26.317187 242.766435) scale(0.1 -0.1)">
       <use xlink:href="#DejaVuSans-2212"/>
       <use xlink:href="#DejaVuSans-30" x="83.789062"/>
       <use xlink:href="#DejaVuSans-2e" x="147.412109"/>
       <use xlink:href="#DejaVuSans-34" x="179.199219"/>
      </g>
     </g>
    </g>
    <g id="ytick_3">
     <g id="line2d_9">
      <g>
       <use xlink:href="#m6193a55987" x="57.6" y="203.39246" style="stroke: #000000; stroke-width: 0.8"/>
      </g>
     </g>
     <g id="text_10">
      <!-- −0.2 -->
      <g transform="translate(26.317187 207.191679) scale(0.1 -0.1)">
       <use xlink:href="#DejaVuSans-2212"/>
       <use xlink:href="#DejaVuSans-30" x="83.789062"/>
       <use xlink:href="#DejaVuSans-2e" x="147.412109"/>
       <use xlink:href="#DejaVuSans-32" x="179.199219"/>
      </g>
     </g>
    </g>
    <g id="ytick_4">
     <g id="line2d_10">
      <g>
       <use xlink:href="#m6193a55987" x="57.6" y="167.817704" style="stroke: #000000; stroke-width: 0.8"/>
      </g>
     </g>
     <g id="text_11">
      <!-- 0.0 -->
      <g transform="translate(34.696875 171.616923) scale(0.1 -0.1)">
       <use xlink:href="#DejaVuSans-30"/>
       <use xlink:href="#DejaVuSans-2e" x="63.623047"/>
       <use xlink:href="#DejaVuSans-30" x="95.410156"/>
      </g>
     </g>
    </g>
    <g id="ytick_5">
     <g id="line2d_11">
      <g>
       <use xlink:href="#m6193a55987" x="57.6" y="132.242948" style="stroke: #000000; stroke-width: 0.8"/>
      </g>
     </g>
     <g id="text_12">
      <!-- 0.2 -->
      <g transform="translate(34.696875 136.042167) scale(0.1 -0.1)">
       <use xlink:href="#DejaVuSans-30"/>
       <use xlink:href="#DejaVuSans-2e" x="63.623047"/>
       <use xlink:href="#DejaVuSans-32" x="95.410156"/>
      </g>
     </g>
    </g>
    <g id="ytick_6">
     <g id="line2d_12">
      <g>
       <use xlink:href="#m6193a55987" x="57.6" y="96.668192" style="stroke: #000000; stroke-width: 0.8"/>
      </g>
     </g>
     <g id="text_13">
      <!-- 0.4 -->
      <g transform="translate(34.696875 100.46741) scale(0.1 -0.1)">
       <use xlink:href="#DejaVuSans-30"/>
       <use xlink:href="#DejaVuSans-2e" x="63.623047"/>
       <use xlink:href="#DejaVuSans-34" x="95.410156"/>
      </g>
     </g>
    </g>
    <g id="ytick_7">
     <g id="line2d_13">
      <g>
       <use xlink:href="#m6193a55987" x="57.6" y="61.093436" style="stroke: #000000; stroke-width: 0.8"/>
      </g>
     </g>
     <g id="text_14">
      <!-- 0.6 -->
      <g transform="translate(34.696875 64.892654) scale(0.1 -0.1)">
       <use xlink:href="#DejaVuSans-30"/>
       <use xlink:href="#DejaVuSans-2e" x="63.623047"/>
       <use xlink:href="#DejaVuSans-36" x="95.410156"/>
      </g>
     </g>
    </g>
    <g id="text_15">
     <!-- E*t -->
     <g transform="translate(20.2375 182.147531) rotate(-90) scale(0.1 -0.1)">
      <defs>
       <path id="DejaVuSans-45" d="M 628 4666 
L 3578 4666 
L 3578 4134 
L 1259 4134 
L 1259 2753 
L 3481 2753 
L 3481 2222 
L 1259 2222 
L 1259 531 
L 3634 531 
L 3634 0 
L 628 0 
L 628 4666 
z
" transform="scale(0.015625)"/>
       <path id="DejaVuSans-2a" d="M 3009 3897 
L 1888 3291 
L 3009 2681 
L 2828 2375 
L 1778 3009 
L 1778 1831 
L 1422 1831 
L 1422 3009 
L 372 2375 
L 191 2681 
L 1313 3291 
L 191 3897 
L 372 4206 
L 1422 3572 
L 1422 4750 
L 1778 4750 
L 1778 3572 
L 2828 4206 
L 3009 3897 
z
" transform="scale(0.015625)"/>
       <path id="DejaVuSans-74" d="M 1172 4494 
L 1172 3500 
L 2356 3500 
L 2356 3053 
L 1172 3053 
L 1172 1153 
Q 1172 725 1289 603 
Q 1406 481 1766 481 
L 2356 481 
L 2356 0 
L 1766 0 
Q 1100 0 847 248 
Q 594 497 594 1153 
L 594 3053 
L 172 3053 
L 172 3500 
L 594 3500 
L 594 4494 
L 1172 4494 
z
" transform="scale(0.015625)"/>
      </defs>
      <use xlink:href="#DejaVuSans-45"/>
      <use xlink:href="#DejaVuSans-2a" x="63.183594"/>
      <use xlink:href="#DejaVuSans-74" x="113.183594"/>
     </g>
    </g>
   </g>
   <g id="line2d_14">
    <path d="M 73.832727 295.488 
L 74.467438 283.351542 
L 75.102149 276.264491 
L 75.419504 276.118978 
L 75.73686 271.729896 
L 76.688926 267.61881 
L 77.006281 267.230673 
L 77.640992 263.160698 
L 77.958347 261.673884 
L 78.275702 261.157315 
L 78.593058 260.999694 
L 79.862479 257.059637 
L 80.179835 256.887107 
L 81.449256 254.940782 
L 81.766612 254.14002 
L 82.083967 253.793531 
L 82.401322 252.40575 
L 82.718678 252.323756 
L 83.036033 251.708563 
L 83.670744 249.591867 
L 83.988099 249.497736 
L 84.305455 249.249686 
L 84.62281 248.312458 
L 85.257521 247.954035 
L 85.574876 247.534743 
L 86.526942 245.499901 
L 86.844298 245.460307 
L 87.161653 244.552692 
L 87.479008 244.348962 
L 87.796364 243.351142 
L 89.065785 242.234355 
L 89.38314 242.172451 
L 89.700496 241.43885 
L 90.335207 240.918997 
L 90.652562 240.842833 
L 91.604628 239.540578 
L 92.239339 239.004959 
L 92.556694 238.93016 
L 93.191405 238.157264 
L 93.50876 237.112489 
L 94.143471 236.871954 
L 94.460826 236.266622 
L 94.778182 235.931939 
L 95.095537 235.854333 
L 95.412893 235.394231 
L 95.730248 235.300321 
L 96.364959 234.821203 
L 96.682314 234.035902 
L 97.63438 233.391535 
L 98.269091 232.20756 
L 98.586446 232.161545 
L 98.903802 231.608401 
L 99.221157 231.281355 
L 99.855868 230.989828 
L 102.712066 229.136505 
L 103.029421 228.665134 
L 103.346777 228.494368 
L 103.664132 228.086525 
L 104.298843 227.887648 
L 104.616198 227.351859 
L 105.568264 226.9555 
L 106.202975 225.927904 
L 107.155041 225.342101 
L 107.472397 224.906255 
L 107.789752 224.852628 
L 108.107107 224.416021 
L 109.693884 223.882032 
L 110.01124 223.478168 
L 111.598017 222.538391 
L 111.915372 222.207314 
L 112.232727 222.048859 
L 112.550083 221.657601 
L 113.502149 221.260217 
L 115.088926 220.66444 
L 115.406281 220.416251 
L 115.723636 219.970886 
L 116.040992 219.940596 
L 116.358347 219.47414 
L 116.993058 219.24927 
L 117.627769 219.133676 
L 117.945124 218.481671 
L 118.579835 218.135151 
L 120.166612 217.577779 
L 120.483967 217.182774 
L 122.070744 216.573735 
L 123.340165 216.002088 
L 123.974876 215.827572 
L 124.292231 215.638325 
L 124.609587 215.214029 
L 125.561653 215.0561 
L 126.196364 214.904147 
L 126.513719 214.415768 
L 128.100496 213.798567 
L 128.417851 213.393683 
L 128.735207 213.335133 
L 130.004628 212.140091 
L 130.639339 211.808327 
L 130.956694 211.628936 
L 131.90876 211.501825 
L 132.226116 211.287865 
L 132.543471 211.231846 
L 135.399669 209.529591 
L 136.03438 209.242312 
L 136.351736 208.983266 
L 138.255868 208.49497 
L 138.573223 208.467133 
L 139.525289 207.900875 
L 139.842645 207.805634 
L 140.16 207.592672 
L 140.477355 207.527666 
L 141.112066 207.2592 
L 141.746777 207.079029 
L 142.064132 207.059334 
L 142.698843 206.680929 
L 143.650909 206.379194 
L 143.968264 206.146538 
L 145.555041 205.833151 
L 145.872397 205.35613 
L 146.189752 205.304205 
L 147.141818 204.661948 
L 148.093884 204.383566 
L 148.41124 204.352309 
L 149.04595 203.891315 
L 149.680661 203.47663 
L 150.632727 203.326763 
L 150.950083 202.760008 
L 151.584793 202.636145 
L 151.902149 202.345278 
L 152.854215 202.056393 
L 153.17157 201.78956 
L 155.075702 201.313431 
L 155.710413 200.865873 
L 156.027769 200.764017 
L 156.345124 200.37598 
L 157.29719 200.079623 
L 157.931901 199.714618 
L 158.249256 199.663037 
L 158.566612 199.452491 
L 159.201322 199.411695 
L 159.836033 199.283517 
L 160.788099 199.16526 
L 163.326942 197.732964 
L 163.961653 197.626471 
L 164.596364 197.418003 
L 166.500496 196.800109 
L 166.817851 196.554035 
L 171.578182 195.092959 
L 172.212893 194.687888 
L 172.530248 194.660853 
L 172.847603 194.406745 
L 173.799669 194.193681 
L 174.117025 193.845651 
L 176.655868 192.722851 
L 176.973223 192.662858 
L 177.290579 192.260124 
L 178.877355 191.78158 
L 179.194711 191.511466 
L 179.512066 191.439707 
L 179.829421 191.203075 
L 180.146777 191.161375 
L 180.464132 190.924432 
L 182.368264 190.608195 
L 182.68562 190.424004 
L 183.320331 190.321918 
L 184.907107 189.760322 
L 185.541818 189.447027 
L 186.176529 189.147217 
L 186.81124 189.067135 
L 188.080661 188.654305 
L 189.667438 188.137308 
L 190.302149 187.966435 
L 190.93686 187.656585 
L 191.57157 187.436066 
L 192.523636 187.111087 
L 193.158347 186.983816 
L 193.475702 186.719859 
L 194.745124 186.438127 
L 195.69719 186.184373 
L 196.014545 186.146144 
L 196.649256 185.819007 
L 197.601322 185.717376 
L 199.82281 184.643216 
L 200.140165 184.24924 
L 200.774876 184.020094 
L 201.726942 183.59752 
L 202.361653 183.474971 
L 203.313719 183.201147 
L 203.631074 182.924875 
L 205.217851 182.665888 
L 207.756694 181.790994 
L 208.70876 181.159704 
L 209.660826 181.031602 
L 210.295537 180.700896 
L 211.564959 180.33165 
L 212.199669 180.158402 
L 212.83438 179.925882 
L 213.151736 179.71657 
L 214.103802 179.494709 
L 215.055868 179.038971 
L 215.690579 178.8452 
L 217.912066 178.240099 
L 218.229421 178.230377 
L 218.864132 177.932641 
L 220.450909 177.693787 
L 221.402975 177.267956 
L 223.941818 176.568973 
L 224.259174 176.288775 
L 225.21124 175.882342 
L 225.84595 175.684037 
L 226.480661 175.640974 
L 226.798017 175.428993 
L 227.115372 175.360845 
L 227.432727 175.004871 
L 228.067438 174.835633 
L 228.702149 174.536069 
L 229.654215 174.428715 
L 230.606281 174.137024 
L 237.270744 171.773892 
L 237.905455 171.691387 
L 238.857521 171.47428 
L 240.126942 171.133522 
L 240.761653 170.802287 
L 241.079008 170.634284 
L 241.713719 170.492009 
L 242.665785 169.834162 
L 251.23438 167.054975 
L 252.186446 166.824481 
L 253.138512 166.440736 
L 253.455868 166.432041 
L 254.090579 166.044814 
L 254.725289 165.995293 
L 255.042645 165.821207 
L 255.677355 165.657536 
L 257.898843 164.994196 
L 258.216198 164.962476 
L 258.850909 164.678892 
L 261.707107 163.892123 
L 262.341818 163.44202 
L 263.293884 163.123453 
L 263.928595 162.888591 
L 264.563306 162.754045 
L 265.198017 162.542048 
L 266.467438 161.887291 
L 266.784793 161.840009 
L 267.102149 161.66637 
L 268.37157 161.393483 
L 268.688926 161.221252 
L 269.640992 161.108789 
L 271.545124 160.290133 
L 271.862479 160.277067 
L 272.814545 159.91793 
L 275.036033 159.071483 
L 275.988099 158.598484 
L 277.892231 158.178209 
L 278.209587 158.066917 
L 278.526942 157.826609 
L 278.844298 157.776124 
L 279.161653 157.609091 
L 279.796364 157.515776 
L 280.113719 157.322955 
L 280.431074 157.301771 
L 281.700496 156.751134 
L 282.017851 156.698625 
L 282.335207 156.494808 
L 283.287273 156.229859 
L 283.604628 156.032078 
L 284.556694 155.930119 
L 285.191405 155.67936 
L 286.143471 155.549934 
L 286.460826 155.500259 
L 287.095537 155.159442 
L 291.221157 153.726993 
L 291.538512 153.385635 
L 292.173223 153.133147 
L 294.077355 152.195388 
L 294.712066 151.869724 
L 295.029421 151.783989 
L 295.346777 151.580295 
L 295.981488 151.505762 
L 297.250909 151.033258 
L 298.520331 150.617975 
L 302.01124 149.428691 
L 302.64595 149.361169 
L 302.963306 149.107413 
L 303.280661 149.084211 
L 303.915372 148.82159 
L 305.184793 148.483894 
L 305.502149 148.213866 
L 305.819504 148.095189 
L 306.13686 147.799805 
L 307.088926 147.497342 
L 307.406281 147.243813 
L 307.723636 147.15996 
L 308.040992 146.841407 
L 308.358347 146.794673 
L 308.675702 146.618817 
L 309.310413 146.515683 
L 309.627769 146.260789 
L 311.849256 145.701831 
L 312.801322 145.472058 
L 313.436033 145.228151 
L 314.070744 144.893872 
L 314.705455 144.765221 
L 317.879008 143.634693 
L 318.513719 143.327024 
L 319.465785 143.013323 
L 319.78314 142.51098 
L 320.417851 142.266784 
L 320.735207 141.889453 
L 321.052562 141.875806 
L 323.90876 140.512106 
L 324.543471 140.292129 
L 324.860826 140.050489 
L 325.495537 139.944265 
L 327.082314 139.166504 
L 327.717025 138.940008 
L 328.03438 138.718621 
L 328.351736 138.667671 
L 328.986446 138.323543 
L 329.621157 138.222882 
L 333.429421 136.366834 
L 334.064132 136.248928 
L 334.698843 135.932054 
L 335.333554 135.794713 
L 335.968264 135.446379 
L 336.920331 135.159677 
L 337.237686 134.779372 
L 337.872397 134.556009 
L 338.189752 134.525055 
L 338.507107 134.33879 
L 338.824463 134.326872 
L 339.459174 133.686474 
L 340.093884 133.508735 
L 340.41124 132.988311 
L 340.728595 132.935932 
L 341.04595 132.767235 
L 341.998017 132.003743 
L 342.315372 131.794388 
L 342.632727 131.774935 
L 343.584793 131.467051 
L 343.902149 131.001426 
L 344.219504 130.924006 
L 344.53686 130.632002 
L 344.854215 130.575944 
L 345.17157 130.329723 
L 345.488926 130.269499 
L 346.123636 129.848407 
L 346.758347 129.71871 
L 347.393058 129.487426 
L 348.662479 129.001324 
L 348.979835 128.788122 
L 350.249256 128.435415 
L 350.566612 128.19556 
L 350.883967 128.132832 
L 351.201322 127.450989 
L 351.836033 127.316897 
L 352.153388 127.059196 
L 352.470744 126.596454 
L 354.057521 125.872056 
L 354.374876 125.823874 
L 354.692231 125.483241 
L 355.009587 125.452716 
L 355.326942 125.23992 
L 355.644298 125.210836 
L 355.961653 124.714259 
L 356.913719 124.181638 
L 357.54843 123.867242 
L 358.18314 123.603098 
L 358.817851 122.725884 
L 359.135207 122.659085 
L 359.769917 122.261065 
L 361.991405 121.055145 
L 362.30876 120.839219 
L 362.626116 120.446291 
L 363.260826 120.290358 
L 363.578182 119.756587 
L 364.530248 119.351795 
L 364.847603 119.258017 
L 365.799669 118.424001 
L 366.117025 118.409415 
L 366.43438 117.965289 
L 366.751736 117.829687 
L 367.069091 117.487447 
L 367.386446 117.41541 
L 368.021157 116.842461 
L 368.338512 116.419718 
L 368.973223 116.037015 
L 369.290579 116.014419 
L 369.925289 115.627674 
L 370.242645 115.527961 
L 370.56 114.956293 
L 370.877355 114.682937 
L 371.512066 114.478019 
L 372.146777 113.998064 
L 372.464132 113.982875 
L 372.781488 113.612652 
L 373.098843 112.98041 
L 373.733554 112.786425 
L 375.637686 111.639084 
L 376.272397 110.383917 
L 376.907107 110.11848 
L 377.541818 109.590914 
L 377.859174 109.009542 
L 378.176529 108.685321 
L 378.81124 108.466888 
L 379.128595 108.165414 
L 379.44595 108.051149 
L 380.080661 107.211514 
L 380.398017 107.122986 
L 380.715372 106.579238 
L 381.032727 106.529085 
L 381.350083 106.178816 
L 381.667438 105.561794 
L 381.984793 105.362032 
L 382.302149 104.962142 
L 382.619504 104.948294 
L 382.93686 104.815582 
L 383.57157 103.359522 
L 383.888926 103.152828 
L 384.206281 102.47834 
L 384.523636 102.371124 
L 384.840992 101.723816 
L 385.158347 101.667583 
L 385.793058 100.572164 
L 386.110413 100.529795 
L 386.427769 100.124269 
L 387.062479 98.574278 
L 387.379835 98.402029 
L 387.69719 97.903082 
L 388.331901 97.507454 
L 388.649256 96.519582 
L 389.283967 95.755258 
L 389.601322 95.029216 
L 389.918678 94.866637 
L 390.236033 94.511531 
L 390.553388 93.939671 
L 390.870744 93.725023 
L 391.188099 92.76076 
L 391.505455 92.651307 
L 391.82281 90.207718 
L 392.140165 89.453634 
L 392.774876 89.106682 
L 393.092231 87.167245 
L 393.409587 86.376681 
L 394.044298 85.504282 
L 394.361653 83.846209 
L 394.996364 83.48149 
L 395.313719 80.396569 
L 395.631074 79.27484 
L 395.94843 77.215046 
L 396.265785 77.177179 
L 396.58314 74.815476 
L 396.900496 74.48054 
L 397.217851 68.970617 
L 397.535207 68.194836 
L 397.852562 64.646118 
L 398.169917 62.588765 
L 398.487273 53.568 
L 398.487273 53.568 
" clip-path="url(#pa4907c5306)" style="fill: none; stroke: #1f77b4; stroke-width: 1.5; stroke-linecap: square"/>
   </g>
   <g id="line2d_15">
    <path d="M 73.832727 184.715713 
L 74.150083 182.936975 
L 74.467438 182.762858 
L 74.784793 182.257553 
L 75.102149 181.470524 
L 75.73686 180.98412 
L 77.006281 180.322263 
L 77.323636 179.806933 
L 80.814545 178.60812 
L 82.083967 178.280184 
L 82.718678 178.028195 
L 83.353388 177.913049 
L 84.305455 177.721759 
L 84.62281 177.600762 
L 85.574876 177.514899 
L 86.209587 177.420532 
L 87.479008 177.168855 
L 89.38314 176.790881 
L 90.652562 176.594025 
L 91.287273 176.501446 
L 92.239339 176.406041 
L 93.50876 176.156092 
L 96.047603 175.927116 
L 96.682314 175.822024 
L 98.586446 175.60245 
L 100.173223 175.493866 
L 110.01124 174.47072 
L 110.963306 174.355574 
L 112.550083 174.230928 
L 115.088926 174.043286 
L 116.040992 173.957422 
L 116.993058 173.863056 
L 118.89719 173.73506 
L 121.436033 173.611379 
L 127.465785 173.200104 
L 129.369917 173.006587 
L 130.004628 172.94397 
L 132.543471 172.796089 
L 134.130248 172.691982 
L 135.717025 172.560674 
L 138.255868 172.433766 
L 141.112066 172.285093 
L 153.17157 171.625455 
L 154.440992 171.572356 
L 156.345124 171.457168 
L 161.42281 171.220783 
L 163.644298 171.119821 
L 164.913719 171.03132 
L 168.087273 170.907954 
L 168.721983 170.807671 
L 175.703802 170.513237 
L 180.781488 170.266238 
L 183.955041 170.150628 
L 189.350083 169.876723 
L 191.254215 169.793618 
L 194.427769 169.678431 
L 196.649256 169.60693 
L 197.283967 169.49691 
L 198.553388 169.449355 
L 206.169917 169.181975 
L 210.295537 168.897389 
L 214.738512 168.752756 
L 237.905455 167.822667 
L 238.540165 167.683326 
L 242.34843 167.565441 
L 243.300496 167.510804 
L 246.791405 167.403237 
L 249.012893 167.295019 
L 260.437686 166.811714 
L 262.659174 166.711196 
L 266.150083 166.577884 
L 273.766612 166.176206 
L 276.940165 166.063634 
L 290.586446 165.445725 
L 292.173223 165.319937 
L 296.298843 165.141557 
L 299.155041 164.972395 
L 302.01124 164.865831 
L 304.232727 164.769911 
L 307.723636 164.617664 
L 353.105455 161.902779 
L 354.057521 161.78452 
L 355.644298 161.678085 
L 360.087273 161.335225 
L 360.721983 161.222645 
L 361.67405 161.114322 
L 364.847603 160.876277 
L 372.464132 160.143695 
L 373.733554 159.881268 
L 378.493884 159.441971 
L 379.128595 159.322619 
L 380.080661 159.097537 
L 382.93686 158.764895 
L 383.254215 158.620793 
L 384.206281 158.520279 
L 385.475702 158.364957 
L 387.69719 158.035829 
L 388.331901 157.793632 
L 389.283967 157.54553 
L 389.918678 157.436539 
L 391.188099 157.068476 
L 391.82281 157.047251 
L 392.140165 156.741541 
L 392.774876 156.547113 
L 393.409587 156.401358 
L 394.044298 156.074947 
L 394.679008 155.766792 
L 395.313719 155.613212 
L 395.631074 155.540059 
L 396.58314 154.831084 
L 396.900496 154.768375 
L 397.217851 153.834471 
L 397.535207 153.76132 
L 397.852562 153.491626 
L 398.487273 152.05573 
L 398.487273 152.05573 
" clip-path="url(#pa4907c5306)" style="fill: none; stroke: #ff7f0e; stroke-width: 1.5; stroke-linecap: square"/>
   </g>
   <g id="patch_3">
    <path d="M 57.6 307.584 
L 57.6 41.472 
" style="fill: none; stroke: #000000; stroke-width: 0.8; stroke-linejoin: miter; stroke-linecap: square"/>
   </g>
   <g id="patch_4">
    <path d="M 414.72 307.584 
L 414.72 41.472 
" style="fill: none; stroke: #000000; stroke-width: 0.8; stroke-linejoin: miter; stroke-linecap: square"/>
   </g>
   <g id="patch_5">
    <path d="M 57.6 307.584 
L 414.72 307.584 
" style="fill: none; stroke: #000000; stroke-width: 0.8; stroke-linejoin: miter; stroke-linecap: square"/>
   </g>
   <g id="patch_6">
    <path d="M 57.6 41.472 
L 414.72 41.472 
" style="fill: none; stroke: #000000; stroke-width: 0.8; stroke-linejoin: miter; stroke-linecap: square"/>
   </g>
   <g id="legend_1">
    <g id="patch_7">
     <path d="M 64.6 78.82825 
L 129.342187 78.82825 
Q 131.342187 78.82825 131.342187 76.82825 
L 131.342187 48.472 
Q 131.342187 46.472 129.342187 46.472 
L 64.6 46.472 
Q 62.6 46.472 62.6 48.472 
L 62.6 76.82825 
Q 62.6 78.82825 64.6 78.82825 
z
" style="fill: #ffffff; opacity: 0.8; stroke: #cccccc; stroke-linejoin: miter"/>
    </g>
    <g id="line2d_16">
     <path d="M 66.6 54.570437 
L 76.6 54.570437 
L 86.6 54.570437 
" style="fill: none; stroke: #1f77b4; stroke-width: 1.5; stroke-linecap: square"/>
    </g>
    <g id="text_16">
     <!-- qc -->
     <g transform="translate(94.6 58.070437) scale(0.1 -0.1)">
      <defs>
       <path id="DejaVuSans-71" d="M 947 1747 
Q 947 1113 1208 752 
Q 1469 391 1925 391 
Q 2381 391 2643 752 
Q 2906 1113 2906 1747 
Q 2906 2381 2643 2742 
Q 2381 3103 1925 3103 
Q 1469 3103 1208 2742 
Q 947 2381 947 1747 
z
M 2906 525 
Q 2725 213 2448 61 
Q 2172 -91 1784 -91 
Q 1150 -91 751 415 
Q 353 922 353 1747 
Q 353 2572 751 3078 
Q 1150 3584 1784 3584 
Q 2172 3584 2448 3432 
Q 2725 3281 2906 2969 
L 2906 3500 
L 3481 3500 
L 3481 -1331 
L 2906 -1331 
L 2906 525 
z
" transform="scale(0.015625)"/>
       <path id="DejaVuSans-63" d="M 3122 3366 
L 3122 2828 
Q 2878 2963 2633 3030 
Q 2388 3097 2138 3097 
Q 1578 3097 1268 2742 
Q 959 2388 959 1747 
Q 959 1106 1268 751 
Q 1578 397 2138 397 
Q 2388 397 2633 464 
Q 2878 531 3122 666 
L 3122 134 
Q 2881 22 2623 -34 
Q 2366 -91 2075 -91 
Q 1284 -91 818 406 
Q 353 903 353 1747 
Q 353 2603 823 3093 
Q 1294 3584 2113 3584 
Q 2378 3584 2631 3529 
Q 2884 3475 3122 3366 
z
" transform="scale(0.015625)"/>
      </defs>
      <use xlink:href="#DejaVuSans-71"/>
      <use xlink:href="#DejaVuSans-63" x="63.476562"/>
     </g>
    </g>
    <g id="line2d_17">
     <path d="M 66.6 69.248562 
L 76.6 69.248562 
L 86.6 69.248562 
" style="fill: none; stroke: #ff7f0e; stroke-width: 1.5; stroke-linecap: square"/>
    </g>
    <g id="text_17">
     <!-- Trotter -->
     <g transform="translate(94.6 72.748562) scale(0.1 -0.1)">
      <defs>
       <path id="DejaVuSans-54" d="M -19 4666 
L 3928 4666 
L 3928 4134 
L 2272 4134 
L 2272 0 
L 1638 0 
L 1638 4134 
L -19 4134 
L -19 4666 
z
" transform="scale(0.015625)"/>
       <path id="DejaVuSans-72" d="M 2631 2963 
Q 2534 3019 2420 3045 
Q 2306 3072 2169 3072 
Q 1681 3072 1420 2755 
Q 1159 2438 1159 1844 
L 1159 0 
L 581 0 
L 581 3500 
L 1159 3500 
L 1159 2956 
Q 1341 3275 1631 3429 
Q 1922 3584 2338 3584 
Q 2397 3584 2469 3576 
Q 2541 3569 2628 3553 
L 2631 2963 
z
" transform="scale(0.015625)"/>
       <path id="DejaVuSans-6f" d="M 1959 3097 
Q 1497 3097 1228 2736 
Q 959 2375 959 1747 
Q 959 1119 1226 758 
Q 1494 397 1959 397 
Q 2419 397 2687 759 
Q 2956 1122 2956 1747 
Q 2956 2369 2687 2733 
Q 2419 3097 1959 3097 
z
M 1959 3584 
Q 2709 3584 3137 3096 
Q 3566 2609 3566 1747 
Q 3566 888 3137 398 
Q 2709 -91 1959 -91 
Q 1206 -91 779 398 
Q 353 888 353 1747 
Q 353 2609 779 3096 
Q 1206 3584 1959 3584 
z
" transform="scale(0.015625)"/>
       <path id="DejaVuSans-65" d="M 3597 1894 
L 3597 1613 
L 953 1613 
Q 991 1019 1311 708 
Q 1631 397 2203 397 
Q 2534 397 2845 478 
Q 3156 559 3463 722 
L 3463 178 
Q 3153 47 2828 -22 
Q 2503 -91 2169 -91 
Q 1331 -91 842 396 
Q 353 884 353 1716 
Q 353 2575 817 3079 
Q 1281 3584 2069 3584 
Q 2775 3584 3186 3129 
Q 3597 2675 3597 1894 
z
M 3022 2063 
Q 3016 2534 2758 2815 
Q 2500 3097 2075 3097 
Q 1594 3097 1305 2825 
Q 1016 2553 972 2059 
L 3022 2063 
z
" transform="scale(0.015625)"/>
      </defs>
      <use xlink:href="#DejaVuSans-54"/>
      <use xlink:href="#DejaVuSans-72" x="46.333984"/>
      <use xlink:href="#DejaVuSans-6f" x="85.197266"/>
      <use xlink:href="#DejaVuSans-74" x="146.378906"/>
      <use xlink:href="#DejaVuSans-74" x="185.587891"/>
      <use xlink:href="#DejaVuSans-65" x="224.796875"/>
      <use xlink:href="#DejaVuSans-72" x="286.320312"/>
     </g>
    </g>
   </g>
  </g>
 </g>
 <defs>
  <clipPath id="pa4907c5306">
   <rect x="57.6" y="41.472" width="357.12" height="266.112"/>
  </clipPath>
 </defs>
</svg>
