<?xml version="1.0" encoding="utf-8" standalone="no"?>
<!DOCTYPE svg PUBLIC "-//W3C//DTD SVG 1.1//EN"
  "http://www.w3.org/Graphics/SVG/1.1/DTD/svg11.dtd">
<svg xmlns:xlink="http://www.w3.org/1999/xlink" width="460.8pt" height="345.6pt" viewBox="0 0 460.8 345.6" xmlns="http://www.w3.org/2000/svg" version="1.1">
 <metadata>
  <rdf:RDF xmlns:dc="http://purl.org/dc/elements/1.1/" xmlns:cc="http://creativecommons.org/ns#" xmlns:rdf="http://www.w3.org/1999/02/22-rdf-syntax-ns#">
   <cc:Work>
    <dc:type rdf:resource="http://purl.org/dc/dcmitype/StillImage"/>
    <dc:date>2024-05-31T13:41:26.414935</dc:date>
    <dc:format>image/svg+xml</dc:format>
    <dc:creator>
     <cc:Agent>
      <dc:title>Matplotlib v3.7.1, https://matplotlib.org/</dc:title>
     </cc:Agent>
    </dc:creator>
   </cc:Work>
  </rdf:RDF>
 </metadata>
 <defs>
  <style type="text/css">*{stroke-linejoin: round; stroke-linecap: butt}</style>
 </defs>
 <g id="figure_1">
  <g id="patch_1">
   <path d="M 0 345.6 
L 460.8 345.6 
L 460.8 0 
L 0 0 
z
" style="fill: #ffffff"/>
  </g>
  <g id="axes_1">
   <g id="patch_2">
    <path d="M 57.6 307.584 
L 414.72 307.584 
L 414.72 41.472 
L 57.6 41.472 
z
" style="fill: #ffffff"/>
   </g>
   <g id="matplotlib.axis_1">
    <g id="xtick_1">
     <g id="line2d_1">
      <defs>
       <path id="ma0417bb681" d="M 0 0 
L 0 3.5 
" style="stroke: #000000; stroke-width: 0.8"/>
      </defs>
      <g>
       <use xlink:href="#ma0417bb681" x="73.832727" y="307.584" style="stroke: #000000; stroke-width: 0.8"/>
      </g>
     </g>
     <g id="text_1">
      <!-- 0 -->
      <g transform="translate(70.651477 322.182437) scale(0.1 -0.1)">
       <defs>
        <path id="DejaVuSans-30" d="M 2034 4250 
Q 1547 4250 1301 3770 
Q 1056 3291 1056 2328 
Q 1056 1369 1301 889 
Q 1547 409 2034 409 
Q 2525 409 2770 889 
Q 3016 1369 3016 2328 
Q 3016 3291 2770 3770 
Q 2525 4250 2034 4250 
z
M 2034 4750 
Q 2819 4750 3233 4129 
Q 3647 3509 3647 2328 
Q 3647 1150 3233 529 
Q 2819 -91 2034 -91 
Q 1250 -91 836 529 
Q 422 1150 422 2328 
Q 422 3509 836 4129 
Q 1250 4750 2034 4750 
z
" transform="scale(0.015625)"/>
       </defs>
       <use xlink:href="#DejaVuSans-30"/>
      </g>
     </g>
    </g>
    <g id="xtick_2">
     <g id="line2d_2">
      <g>
       <use xlink:href="#ma0417bb681" x="137.303802" y="307.584" style="stroke: #000000; stroke-width: 0.8"/>
      </g>
     </g>
     <g id="text_2">
      <!-- 200 -->
      <g transform="translate(127.760052 322.182437) scale(0.1 -0.1)">
       <defs>
        <path id="DejaVuSans-32" d="M 1228 531 
L 3431 531 
L 3431 0 
L 469 0 
L 469 531 
Q 828 903 1448 1529 
Q 2069 2156 2228 2338 
Q 2531 2678 2651 2914 
Q 2772 3150 2772 3378 
Q 2772 3750 2511 3984 
Q 2250 4219 1831 4219 
Q 1534 4219 1204 4116 
Q 875 4013 500 3803 
L 500 4441 
Q 881 4594 1212 4672 
Q 1544 4750 1819 4750 
Q 2544 4750 2975 4387 
Q 3406 4025 3406 3419 
Q 3406 3131 3298 2873 
Q 3191 2616 2906 2266 
Q 2828 2175 2409 1742 
Q 1991 1309 1228 531 
z
" transform="scale(0.015625)"/>
       </defs>
       <use xlink:href="#DejaVuSans-32"/>
       <use xlink:href="#DejaVuSans-30" x="63.623047"/>
       <use xlink:href="#DejaVuSans-30" x="127.246094"/>
      </g>
     </g>
    </g>
    <g id="xtick_3">
     <g id="line2d_3">
      <g>
       <use xlink:href="#ma0417bb681" x="200.774876" y="307.584" style="stroke: #000000; stroke-width: 0.8"/>
      </g>
     </g>
     <g id="text_3">
      <!-- 400 -->
      <g transform="translate(191.231126 322.182437) scale(0.1 -0.1)">
       <defs>
        <path id="DejaVuSans-34" d="M 2419 4116 
L 825 1625 
L 2419 1625 
L 2419 4116 
z
M 2253 4666 
L 3047 4666 
L 3047 1625 
L 3713 1625 
L 3713 1100 
L 3047 1100 
L 3047 0 
L 2419 0 
L 2419 1100 
L 313 1100 
L 313 1709 
L 2253 4666 
z
" transform="scale(0.015625)"/>
       </defs>
       <use xlink:href="#DejaVuSans-34"/>
       <use xlink:href="#DejaVuSans-30" x="63.623047"/>
       <use xlink:href="#DejaVuSans-30" x="127.246094"/>
      </g>
     </g>
    </g>
    <g id="xtick_4">
     <g id="line2d_4">
      <g>
       <use xlink:href="#ma0417bb681" x="264.24595" y="307.584" style="stroke: #000000; stroke-width: 0.8"/>
      </g>
     </g>
     <g id="text_4">
      <!-- 600 -->
      <g transform="translate(254.7022 322.182437) scale(0.1 -0.1)">
       <defs>
        <path id="DejaVuSans-36" d="M 2113 2584 
Q 1688 2584 1439 2293 
Q 1191 2003 1191 1497 
Q 1191 994 1439 701 
Q 1688 409 2113 409 
Q 2538 409 2786 701 
Q 3034 994 3034 1497 
Q 3034 2003 2786 2293 
Q 2538 2584 2113 2584 
z
M 3366 4563 
L 3366 3988 
Q 3128 4100 2886 4159 
Q 2644 4219 2406 4219 
Q 1781 4219 1451 3797 
Q 1122 3375 1075 2522 
Q 1259 2794 1537 2939 
Q 1816 3084 2150 3084 
Q 2853 3084 3261 2657 
Q 3669 2231 3669 1497 
Q 3669 778 3244 343 
Q 2819 -91 2113 -91 
Q 1303 -91 875 529 
Q 447 1150 447 2328 
Q 447 3434 972 4092 
Q 1497 4750 2381 4750 
Q 2619 4750 2861 4703 
Q 3103 4656 3366 4563 
z
" transform="scale(0.015625)"/>
       </defs>
       <use xlink:href="#DejaVuSans-36"/>
       <use xlink:href="#DejaVuSans-30" x="63.623047"/>
       <use xlink:href="#DejaVuSans-30" x="127.246094"/>
      </g>
     </g>
    </g>
    <g id="xtick_5">
     <g id="line2d_5">
      <g>
       <use xlink:href="#ma0417bb681" x="327.717025" y="307.584" style="stroke: #000000; stroke-width: 0.8"/>
      </g>
     </g>
     <g id="text_5">
      <!-- 800 -->
      <g transform="translate(318.173275 322.182437) scale(0.1 -0.1)">
       <defs>
        <path id="DejaVuSans-38" d="M 2034 2216 
Q 1584 2216 1326 1975 
Q 1069 1734 1069 1313 
Q 1069 891 1326 650 
Q 1584 409 2034 409 
Q 2484 409 2743 651 
Q 3003 894 3003 1313 
Q 3003 1734 2745 1975 
Q 2488 2216 2034 2216 
z
M 1403 2484 
Q 997 2584 770 2862 
Q 544 3141 544 3541 
Q 544 4100 942 4425 
Q 1341 4750 2034 4750 
Q 2731 4750 3128 4425 
Q 3525 4100 3525 3541 
Q 3525 3141 3298 2862 
Q 3072 2584 2669 2484 
Q 3125 2378 3379 2068 
Q 3634 1759 3634 1313 
Q 3634 634 3220 271 
Q 2806 -91 2034 -91 
Q 1263 -91 848 271 
Q 434 634 434 1313 
Q 434 1759 690 2068 
Q 947 2378 1403 2484 
z
M 1172 3481 
Q 1172 3119 1398 2916 
Q 1625 2713 2034 2713 
Q 2441 2713 2670 2916 
Q 2900 3119 2900 3481 
Q 2900 3844 2670 4047 
Q 2441 4250 2034 4250 
Q 1625 4250 1398 4047 
Q 1172 3844 1172 3481 
z
" transform="scale(0.015625)"/>
       </defs>
       <use xlink:href="#DejaVuSans-38"/>
       <use xlink:href="#DejaVuSans-30" x="63.623047"/>
       <use xlink:href="#DejaVuSans-30" x="127.246094"/>
      </g>
     </g>
    </g>
    <g id="xtick_6">
     <g id="line2d_6">
      <g>
       <use xlink:href="#ma0417bb681" x="391.188099" y="307.584" style="stroke: #000000; stroke-width: 0.8"/>
      </g>
     </g>
     <g id="text_6">
      <!-- 1000 -->
      <g transform="translate(378.463099 322.182437) scale(0.1 -0.1)">
       <defs>
        <path id="DejaVuSans-31" d="M 794 531 
L 1825 531 
L 1825 4091 
L 703 3866 
L 703 4441 
L 1819 4666 
L 2450 4666 
L 2450 531 
L 3481 531 
L 3481 0 
L 794 0 
L 794 531 
z
" transform="scale(0.015625)"/>
       </defs>
       <use xlink:href="#DejaVuSans-31"/>
       <use xlink:href="#DejaVuSans-30" x="63.623047"/>
       <use xlink:href="#DejaVuSans-30" x="127.246094"/>
       <use xlink:href="#DejaVuSans-30" x="190.869141"/>
      </g>
     </g>
    </g>
    <g id="text_7">
     <!-- n -->
     <g transform="translate(232.99125 335.860562) scale(0.1 -0.1)">
      <defs>
       <path id="DejaVuSans-6e" d="M 3513 2113 
L 3513 0 
L 2938 0 
L 2938 2094 
Q 2938 2591 2744 2837 
Q 2550 3084 2163 3084 
Q 1697 3084 1428 2787 
Q 1159 2491 1159 1978 
L 1159 0 
L 581 0 
L 581 3500 
L 1159 3500 
L 1159 2956 
Q 1366 3272 1645 3428 
Q 1925 3584 2291 3584 
Q 2894 3584 3203 3211 
Q 3513 2838 3513 2113 
z
" transform="scale(0.015625)"/>
      </defs>
      <use xlink:href="#DejaVuSans-6e"/>
     </g>
    </g>
   </g>
   <g id="matplotlib.axis_2">
    <g id="ytick_1">
     <g id="line2d_7">
      <defs>
       <path id="m8db5a68a23" d="M 0 0 
L -3.5 0 
" style="stroke: #000000; stroke-width: 0.8"/>
      </defs>
      <g>
       <use xlink:href="#m8db5a68a23" x="57.6" y="307.071907" style="stroke: #000000; stroke-width: 0.8"/>
      </g>
     </g>
     <g id="text_8">
      <!-- −0.4 -->
      <g transform="translate(26.317187 310.871126) scale(0.1 -0.1)">
       <defs>
        <path id="DejaVuSans-2212" d="M 678 2272 
L 4684 2272 
L 4684 1741 
L 678 1741 
L 678 2272 
z
" transform="scale(0.015625)"/>
        <path id="DejaVuSans-2e" d="M 684 794 
L 1344 794 
L 1344 0 
L 684 0 
L 684 794 
z
" transform="scale(0.015625)"/>
       </defs>
       <use xlink:href="#DejaVuSans-2212"/>
       <use xlink:href="#DejaVuSans-30" x="83.789062"/>
       <use xlink:href="#DejaVuSans-2e" x="147.412109"/>
       <use xlink:href="#DejaVuSans-34" x="179.199219"/>
      </g>
     </g>
    </g>
    <g id="ytick_2">
     <g id="line2d_8">
      <g>
       <use xlink:href="#m8db5a68a23" x="57.6" y="277.454931" style="stroke: #000000; stroke-width: 0.8"/>
      </g>
     </g>
     <g id="text_9">
      <!-- −0.3 -->
      <g transform="translate(26.317187 281.254149) scale(0.1 -0.1)">
       <defs>
        <path id="DejaVuSans-33" d="M 2597 2516 
Q 3050 2419 3304 2112 
Q 3559 1806 3559 1356 
Q 3559 666 3084 287 
Q 2609 -91 1734 -91 
Q 1441 -91 1130 -33 
Q 819 25 488 141 
L 488 750 
Q 750 597 1062 519 
Q 1375 441 1716 441 
Q 2309 441 2620 675 
Q 2931 909 2931 1356 
Q 2931 1769 2642 2001 
Q 2353 2234 1838 2234 
L 1294 2234 
L 1294 2753 
L 1863 2753 
Q 2328 2753 2575 2939 
Q 2822 3125 2822 3475 
Q 2822 3834 2567 4026 
Q 2313 4219 1838 4219 
Q 1578 4219 1281 4162 
Q 984 4106 628 3988 
L 628 4550 
Q 988 4650 1302 4700 
Q 1616 4750 1894 4750 
Q 2613 4750 3031 4423 
Q 3450 4097 3450 3541 
Q 3450 3153 3228 2886 
Q 3006 2619 2597 2516 
z
" transform="scale(0.015625)"/>
       </defs>
       <use xlink:href="#DejaVuSans-2212"/>
       <use xlink:href="#DejaVuSans-30" x="83.789062"/>
       <use xlink:href="#DejaVuSans-2e" x="147.412109"/>
       <use xlink:href="#DejaVuSans-33" x="179.199219"/>
      </g>
     </g>
    </g>
    <g id="ytick_3">
     <g id="line2d_9">
      <g>
       <use xlink:href="#m8db5a68a23" x="57.6" y="247.837954" style="stroke: #000000; stroke-width: 0.8"/>
      </g>
     </g>
     <g id="text_10">
      <!-- −0.2 -->
      <g transform="translate(26.317187 251.637173) scale(0.1 -0.1)">
       <use xlink:href="#DejaVuSans-2212"/>
       <use xlink:href="#DejaVuSans-30" x="83.789062"/>
       <use xlink:href="#DejaVuSans-2e" x="147.412109"/>
       <use xlink:href="#DejaVuSans-32" x="179.199219"/>
      </g>
     </g>
    </g>
    <g id="ytick_4">
     <g id="line2d_10">
      <g>
       <use xlink:href="#m8db5a68a23" x="57.6" y="218.220978" style="stroke: #000000; stroke-width: 0.8"/>
      </g>
     </g>
     <g id="text_11">
      <!-- −0.1 -->
      <g transform="translate(26.317187 222.020197) scale(0.1 -0.1)">
       <use xlink:href="#DejaVuSans-2212"/>
       <use xlink:href="#DejaVuSans-30" x="83.789062"/>
       <use xlink:href="#DejaVuSans-2e" x="147.412109"/>
       <use xlink:href="#DejaVuSans-31" x="179.199219"/>
      </g>
     </g>
    </g>
    <g id="ytick_5">
     <g id="line2d_11">
      <g>
       <use xlink:href="#m8db5a68a23" x="57.6" y="188.604002" style="stroke: #000000; stroke-width: 0.8"/>
      </g>
     </g>
     <g id="text_12">
      <!-- 0.0 -->
      <g transform="translate(34.696875 192.403221) scale(0.1 -0.1)">
       <use xlink:href="#DejaVuSans-30"/>
       <use xlink:href="#DejaVuSans-2e" x="63.623047"/>
       <use xlink:href="#DejaVuSans-30" x="95.410156"/>
      </g>
     </g>
    </g>
    <g id="ytick_6">
     <g id="line2d_12">
      <g>
       <use xlink:href="#m8db5a68a23" x="57.6" y="158.987026" style="stroke: #000000; stroke-width: 0.8"/>
      </g>
     </g>
     <g id="text_13">
      <!-- 0.1 -->
      <g transform="translate(34.696875 162.786244) scale(0.1 -0.1)">
       <use xlink:href="#DejaVuSans-30"/>
       <use xlink:href="#DejaVuSans-2e" x="63.623047"/>
       <use xlink:href="#DejaVuSans-31" x="95.410156"/>
      </g>
     </g>
    </g>
    <g id="ytick_7">
     <g id="line2d_13">
      <g>
       <use xlink:href="#m8db5a68a23" x="57.6" y="129.370049" style="stroke: #000000; stroke-width: 0.8"/>
      </g>
     </g>
     <g id="text_14">
      <!-- 0.2 -->
      <g transform="translate(34.696875 133.169268) scale(0.1 -0.1)">
       <use xlink:href="#DejaVuSans-30"/>
       <use xlink:href="#DejaVuSans-2e" x="63.623047"/>
       <use xlink:href="#DejaVuSans-32" x="95.410156"/>
      </g>
     </g>
    </g>
    <g id="ytick_8">
     <g id="line2d_14">
      <g>
       <use xlink:href="#m8db5a68a23" x="57.6" y="99.753073" style="stroke: #000000; stroke-width: 0.8"/>
      </g>
     </g>
     <g id="text_15">
      <!-- 0.3 -->
      <g transform="translate(34.696875 103.552292) scale(0.1 -0.1)">
       <use xlink:href="#DejaVuSans-30"/>
       <use xlink:href="#DejaVuSans-2e" x="63.623047"/>
       <use xlink:href="#DejaVuSans-33" x="95.410156"/>
      </g>
     </g>
    </g>
    <g id="ytick_9">
     <g id="line2d_15">
      <g>
       <use xlink:href="#m8db5a68a23" x="57.6" y="70.136097" style="stroke: #000000; stroke-width: 0.8"/>
      </g>
     </g>
     <g id="text_16">
      <!-- 0.4 -->
      <g transform="translate(34.696875 73.935316) scale(0.1 -0.1)">
       <use xlink:href="#DejaVuSans-30"/>
       <use xlink:href="#DejaVuSans-2e" x="63.623047"/>
       <use xlink:href="#DejaVuSans-34" x="95.410156"/>
      </g>
     </g>
    </g>
    <g id="text_17">
     <!-- E*t -->
     <g transform="translate(20.2375 182.147531) rotate(-90) scale(0.1 -0.1)">
      <defs>
       <path id="DejaVuSans-45" d="M 628 4666 
L 3578 4666 
L 3578 4134 
L 1259 4134 
L 1259 2753 
L 3481 2753 
L 3481 2222 
L 1259 2222 
L 1259 531 
L 3634 531 
L 3634 0 
L 628 0 
L 628 4666 
z
" transform="scale(0.015625)"/>
       <path id="DejaVuSans-2a" d="M 3009 3897 
L 1888 3291 
L 3009 2681 
L 2828 2375 
L 1778 3009 
L 1778 1831 
L 1422 1831 
L 1422 3009 
L 372 2375 
L 191 2681 
L 1313 3291 
L 191 3897 
L 372 4206 
L 1422 3572 
L 1422 4750 
L 1778 4750 
L 1778 3572 
L 2828 4206 
L 3009 3897 
z
" transform="scale(0.015625)"/>
       <path id="DejaVuSans-74" d="M 1172 4494 
L 1172 3500 
L 2356 3500 
L 2356 3053 
L 1172 3053 
L 1172 1153 
Q 1172 725 1289 603 
Q 1406 481 1766 481 
L 2356 481 
L 2356 0 
L 1766 0 
Q 1100 0 847 248 
Q 594 497 594 1153 
L 594 3053 
L 172 3053 
L 172 3500 
L 594 3500 
L 594 4494 
L 1172 4494 
z
" transform="scale(0.015625)"/>
      </defs>
      <use xlink:href="#DejaVuSans-45"/>
      <use xlink:href="#DejaVuSans-2a" x="63.183594"/>
      <use xlink:href="#DejaVuSans-74" x="113.183594"/>
     </g>
    </g>
   </g>
   <g id="line2d_16">
    <path d="M 73.832727 295.488 
L 74.467438 287.931158 
L 74.784793 287.472807 
L 75.102149 286.149511 
L 75.419504 283.392542 
L 75.73686 283.034239 
L 76.37157 279.436891 
L 77.006281 277.566597 
L 77.323636 276.69394 
L 77.640992 276.306077 
L 77.958347 275.473923 
L 78.275702 274.972614 
L 78.593058 273.780028 
L 78.910413 273.445971 
L 79.227769 272.524424 
L 79.545124 271.998959 
L 79.862479 270.225961 
L 80.179835 269.730134 
L 80.49719 268.976651 
L 80.814545 267.524186 
L 81.449256 266.716334 
L 81.766612 266.489325 
L 82.083967 266.408815 
L 82.401322 264.89486 
L 82.718678 264.213061 
L 83.036033 264.098727 
L 83.670744 263.422898 
L 83.988099 263.295871 
L 84.305455 262.884389 
L 84.62281 262.099875 
L 84.940165 260.619458 
L 85.574876 260.206611 
L 85.892231 259.514199 
L 86.209587 259.499208 
L 86.844298 259.162662 
L 87.161653 257.616614 
L 87.479008 257.365608 
L 87.796364 256.524233 
L 88.431074 255.907306 
L 88.74843 255.843434 
L 89.065785 255.276002 
L 89.38314 255.203944 
L 89.700496 254.673202 
L 90.335207 254.440838 
L 91.604628 252.619017 
L 91.921983 251.965275 
L 92.239339 251.740097 
L 92.87405 250.92661 
L 93.191405 250.659299 
L 94.460826 249.111324 
L 94.778182 249.006399 
L 95.095537 248.552882 
L 95.412893 248.322076 
L 95.730248 248.281364 
L 96.047603 247.785237 
L 96.682314 247.66394 
L 97.317025 247.079457 
L 97.951736 246.058094 
L 99.538512 245.097032 
L 99.855868 245.00495 
L 100.173223 244.253925 
L 100.807934 244.123677 
L 101.125289 243.789515 
L 101.442645 243.731166 
L 101.76 243.454783 
L 102.077355 243.012033 
L 102.394711 242.830863 
L 102.712066 242.194738 
L 103.029421 242.071301 
L 103.346777 241.59948 
L 104.933554 241.118947 
L 105.250909 240.858414 
L 105.568264 240.779595 
L 105.88562 240.181815 
L 106.520331 239.659405 
L 106.837686 239.398232 
L 107.155041 239.384831 
L 107.472397 239.20614 
L 107.789752 238.761068 
L 108.107107 238.691073 
L 108.424463 238.373159 
L 109.376529 238.117019 
L 109.693884 237.843355 
L 110.01124 237.255299 
L 110.328595 237.188492 
L 110.64595 236.757915 
L 110.963306 236.717843 
L 111.915372 236.147074 
L 112.232727 235.643954 
L 112.867438 235.231843 
L 113.502149 235.092357 
L 113.819504 234.69358 
L 114.13686 234.645739 
L 114.77157 234.228095 
L 115.723636 233.98814 
L 116.358347 233.875629 
L 116.675702 233.605604 
L 116.993058 233.502193 
L 117.627769 232.666005 
L 117.945124 232.608954 
L 118.262479 232.270587 
L 118.579835 232.185073 
L 120.483967 230.847666 
L 122.388099 230.171358 
L 123.02281 229.646645 
L 123.340165 229.107711 
L 124.292231 228.724864 
L 124.609587 228.092564 
L 124.926942 228.065379 
L 126.513719 227.221969 
L 126.831074 226.948267 
L 127.465785 226.720735 
L 128.735207 226.083288 
L 129.052562 225.738494 
L 129.369917 225.628707 
L 129.687273 225.380782 
L 130.321983 225.222079 
L 132.226116 224.51261 
L 132.860826 224.242595 
L 133.178182 223.814907 
L 134.130248 223.499069 
L 134.447603 223.138643 
L 134.764959 223.120946 
L 135.082314 222.476018 
L 136.03438 221.989691 
L 136.986446 221.77994 
L 137.938512 221.278356 
L 138.255868 221.255552 
L 138.573223 220.77051 
L 139.207934 220.464373 
L 141.112066 219.338598 
L 141.429421 219.030823 
L 142.381488 218.673724 
L 143.016198 218.249588 
L 143.333554 218.170411 
L 143.650909 217.966271 
L 143.968264 217.91904 
L 144.602975 217.675742 
L 144.920331 217.653989 
L 145.237686 217.447855 
L 146.189752 216.352926 
L 146.824463 216.075792 
L 147.459174 215.814312 
L 148.41124 215.33227 
L 149.04595 215.101052 
L 149.998017 214.812884 
L 150.632727 214.491806 
L 151.902149 214.070333 
L 152.219504 213.794068 
L 152.53686 213.702127 
L 153.806281 212.934594 
L 154.123636 212.873079 
L 154.440992 212.523794 
L 155.710413 212.032466 
L 156.345124 211.429333 
L 158.249256 210.705892 
L 158.566612 210.432785 
L 158.883967 210.408997 
L 159.518678 209.899512 
L 160.470744 209.744117 
L 160.788099 209.344122 
L 161.42281 209.290106 
L 162.057521 208.96236 
L 163.009587 208.659511 
L 163.326942 208.361973 
L 163.961653 208.193094 
L 164.913719 207.552828 
L 165.865785 207.13527 
L 166.500496 207.028226 
L 167.452562 206.673879 
L 167.769917 206.581342 
L 168.087273 206.200321 
L 169.039339 205.902493 
L 169.991405 205.710267 
L 170.30876 205.299879 
L 170.626116 205.252435 
L 171.578182 204.763626 
L 171.895537 204.717741 
L 172.212893 204.312408 
L 172.530248 204.232557 
L 173.482314 203.485837 
L 174.117025 203.429911 
L 174.43438 203.190287 
L 174.751736 203.163924 
L 175.703802 202.837456 
L 176.338512 202.07455 
L 177.607934 201.590794 
L 177.925289 201.570603 
L 178.242645 201.252379 
L 179.829421 200.723519 
L 180.146777 200.711391 
L 180.781488 200.365361 
L 181.733554 200.124689 
L 183.320331 199.607197 
L 183.637686 199.366867 
L 183.955041 199.272755 
L 184.589752 198.780484 
L 185.224463 198.527925 
L 185.859174 198.311963 
L 187.128595 197.873352 
L 187.44595 197.823405 
L 188.080661 197.466105 
L 188.715372 197.200044 
L 189.667438 197.099791 
L 190.619504 196.560355 
L 191.254215 196.397795 
L 191.888926 196.038349 
L 193.158347 195.492153 
L 194.110413 194.984855 
L 194.745124 194.803392 
L 195.379835 194.608455 
L 199.82281 193.033682 
L 200.140165 192.788447 
L 201.092231 192.422586 
L 207.756694 190.02538 
L 208.391405 189.694976 
L 213.469091 187.859395 
L 214.103802 187.623223 
L 214.738512 187.455556 
L 215.055868 187.237494 
L 215.373223 187.1623 
L 215.690579 186.922489 
L 216.325289 186.69042 
L 217.594711 186.032303 
L 218.546777 185.754333 
L 220.133554 184.984246 
L 221.402975 184.692303 
L 222.037686 184.268568 
L 222.672397 184.223231 
L 223.307107 183.897648 
L 223.941818 183.705156 
L 224.893884 183.476942 
L 225.528595 183.184132 
L 225.84595 183.154153 
L 227.115372 182.568927 
L 227.432727 182.540404 
L 227.750083 182.158944 
L 229.33686 181.75604 
L 229.97157 181.538722 
L 230.606281 181.055364 
L 230.923636 181.035913 
L 231.558347 180.734169 
L 231.875702 180.715526 
L 232.827769 180.306515 
L 233.145124 180.280192 
L 234.414545 179.652853 
L 235.683967 179.206059 
L 236.636033 178.56566 
L 237.270744 178.323352 
L 237.905455 178.148107 
L 238.540165 177.597085 
L 240.126942 176.98516 
L 241.079008 176.653116 
L 241.713719 176.480716 
L 242.031074 176.24621 
L 242.34843 176.206214 
L 242.665785 175.978801 
L 244.252562 175.664356 
L 245.204628 175.279881 
L 247.10876 174.687112 
L 247.426116 174.647691 
L 248.060826 174.134474 
L 249.330248 173.825611 
L 249.964959 173.493447 
L 250.282314 173.120617 
L 250.599669 173.020471 
L 250.917025 172.756852 
L 252.186446 172.333368 
L 252.821157 172.030815 
L 253.455868 171.794166 
L 253.773223 171.602057 
L 254.407934 171.491699 
L 254.725289 171.184433 
L 257.264132 170.391777 
L 257.898843 169.880344 
L 258.533554 169.472247 
L 260.120331 168.976678 
L 260.437686 168.699615 
L 261.707107 168.371725 
L 262.659174 167.940817 
L 262.976529 167.386603 
L 264.24595 167.089928 
L 264.563306 166.850313 
L 264.880661 166.815999 
L 265.515372 166.558898 
L 266.467438 166.229173 
L 266.784793 166.074349 
L 267.419504 166.018604 
L 267.73686 165.812333 
L 268.054215 165.423414 
L 269.006281 165.071132 
L 270.910413 164.66846 
L 271.545124 164.331867 
L 272.179835 164.162997 
L 272.814545 163.748511 
L 273.131901 163.704879 
L 274.083967 163.107445 
L 274.718678 162.964761 
L 275.036033 162.773299 
L 275.988099 162.549098 
L 276.62281 162.368836 
L 277.257521 162.182893 
L 277.892231 161.862074 
L 278.526942 161.67886 
L 278.844298 161.33802 
L 282.017851 160.083834 
L 282.335207 159.795999 
L 283.921983 159.340472 
L 284.556694 158.999224 
L 285.50876 158.719383 
L 285.826116 158.383933 
L 286.778182 158.182916 
L 287.095537 157.908446 
L 288.047603 157.686605 
L 289.317025 157.307183 
L 290.586446 156.909009 
L 293.125289 155.857109 
L 294.077355 155.574454 
L 294.394711 155.346009 
L 294.712066 155.287145 
L 295.346777 154.787078 
L 295.981488 154.651971 
L 296.298843 154.202782 
L 297.88562 153.508175 
L 298.202975 152.678492 
L 299.155041 152.361566 
L 299.789752 152.126423 
L 300.741818 151.893597 
L 302.328595 151.344944 
L 302.64595 150.968641 
L 303.280661 150.674933 
L 304.550083 149.901369 
L 304.867438 149.811737 
L 305.502149 149.512108 
L 306.13686 149.433192 
L 308.993058 148.045596 
L 309.310413 147.728098 
L 309.945124 147.534571 
L 310.579835 147.281061 
L 310.89719 147.254563 
L 314.705455 145.279761 
L 315.340165 144.663432 
L 316.609587 144.317965 
L 317.244298 143.692524 
L 317.561653 143.64772 
L 317.879008 143.385991 
L 318.831074 143.162013 
L 319.14843 142.881856 
L 319.465785 142.816298 
L 320.100496 142.527903 
L 321.687273 141.932711 
L 322.321983 141.298214 
L 326.130248 139.995228 
L 326.447603 139.500698 
L 327.399669 139.192632 
L 327.717025 138.866471 
L 328.669091 138.55026 
L 329.303802 138.302761 
L 329.938512 137.907884 
L 330.573223 137.542327 
L 331.525289 137.186719 
L 332.794711 136.318765 
L 335.333554 135.44662 
L 335.650909 134.825406 
L 337.237686 134.356538 
L 337.555041 134.109023 
L 337.872397 133.712308 
L 338.824463 133.304503 
L 339.459174 132.661588 
L 339.776529 132.600576 
L 340.41124 132.248532 
L 341.04595 132.117481 
L 341.363306 131.577451 
L 341.998017 131.004158 
L 342.632727 130.356794 
L 343.584793 129.937072 
L 343.902149 129.501137 
L 344.53686 129.115358 
L 344.854215 128.672263 
L 345.17157 128.635677 
L 345.488926 128.279227 
L 348.027769 126.878616 
L 349.614545 126.30998 
L 349.931901 125.833697 
L 350.249256 125.788988 
L 351.201322 125.093638 
L 351.518678 125.019689 
L 351.836033 124.675246 
L 352.153388 124.009984 
L 353.740165 123.344546 
L 354.374876 122.755469 
L 354.692231 122.494433 
L 355.009587 121.953584 
L 355.326942 121.640162 
L 356.596364 121.310279 
L 357.865785 120.144786 
L 358.18314 119.949911 
L 358.500496 119.909682 
L 358.817851 119.665285 
L 359.452562 119.469494 
L 359.769917 119.216653 
L 360.087273 119.168957 
L 361.039339 118.166353 
L 362.626116 116.900839 
L 362.943471 116.72011 
L 363.260826 116.691486 
L 363.578182 116.528362 
L 364.847603 115.334839 
L 365.164959 115.124545 
L 365.799669 114.289981 
L 367.386446 113.594453 
L 368.338512 113.083788 
L 368.655868 112.925405 
L 368.973223 112.588434 
L 369.925289 112.071133 
L 370.242645 111.72342 
L 371.194711 111.498007 
L 371.829421 111.02518 
L 372.146777 110.447993 
L 372.464132 110.252882 
L 372.781488 109.731434 
L 373.416198 109.568753 
L 373.733554 108.647826 
L 374.050909 108.15037 
L 375.002975 107.662259 
L 375.320331 106.910267 
L 375.637686 106.89362 
L 375.955041 106.573862 
L 376.907107 104.894146 
L 377.224463 104.786303 
L 377.541818 104.354372 
L 378.176529 104.018416 
L 378.493884 103.929772 
L 378.81124 103.679129 
L 379.44595 102.608391 
L 379.763306 102.550517 
L 380.080661 102.273593 
L 380.398017 101.83878 
L 380.715372 101.109521 
L 381.350083 100.636892 
L 381.667438 100.071503 
L 381.984793 100.042796 
L 382.302149 99.743419 
L 382.619504 98.714248 
L 383.254215 98.450447 
L 383.57157 98.144111 
L 383.888926 98.040493 
L 384.206281 96.744326 
L 384.523636 96.118541 
L 385.158347 96.031542 
L 385.475702 94.985739 
L 385.793058 94.546014 
L 386.745124 94.057889 
L 387.062479 92.476782 
L 387.69719 92.10657 
L 388.649256 91.011909 
L 389.283967 90.690984 
L 389.918678 89.244335 
L 390.236033 88.497927 
L 390.553388 88.33251 
L 390.870744 87.19606 
L 391.188099 87.029509 
L 391.505455 86.991525 
L 392.140165 85.140469 
L 392.457521 85.042761 
L 392.774876 83.471 
L 393.409587 82.565598 
L 393.726942 82.030529 
L 394.044298 80.016289 
L 394.361653 78.825409 
L 394.679008 78.564407 
L 394.996364 77.919257 
L 395.313719 76.208398 
L 395.631074 75.391172 
L 395.94843 73.701181 
L 396.58314 69.70978 
L 396.900496 69.560157 
L 397.535207 62.446382 
L 397.852562 62.411523 
L 398.169917 60.68721 
L 398.487273 53.568 
L 398.487273 53.568 
" clip-path="url(#p622d52cd79)" style="fill: none; stroke: #1f77b4; stroke-width: 1.5; stroke-linecap: square"/>
   </g>
   <g id="line2d_17">
    <path d="M 73.832727 216.740129 
L 74.150083 213.778431 
L 74.467438 213.488517 
L 74.784793 212.647155 
L 75.102149 211.336709 
L 75.419504 210.816733 
L 76.054215 210.210429 
L 76.37157 209.685458 
L 76.688926 209.685458 
L 77.006281 209.424791 
L 77.323636 208.566736 
L 77.958347 208.056502 
L 78.275702 207.855037 
L 78.593058 207.855036 
L 78.910413 207.565122 
L 79.227769 207.554945 
L 80.179835 206.72376 
L 80.49719 206.72376 
L 83.353388 205.413315 
L 83.670744 205.339091 
L 83.988099 205.114879 
L 84.305455 205.094805 
L 84.62281 204.893339 
L 84.940165 204.893338 
L 85.892231 204.603424 
L 86.526942 204.527736 
L 87.479008 204.17419 
L 89.065785 203.608948 
L 90.652562 203.217066 
L 90.969917 203.062917 
L 91.921983 203.013671 
L 93.826116 202.451617 
L 95.412893 202.15318 
L 96.047603 202.106625 
L 96.364959 201.931641 
L 96.999669 201.843223 
L 100.490579 201.325337 
L 101.442645 201.080119 
L 102.712066 200.800366 
L 103.029421 200.800366 
L 103.664132 200.583144 
L 110.963306 199.48992 
L 112.232727 199.289527 
L 114.13686 199.144928 
L 114.454215 198.979344 
L 116.358347 198.820489 
L 116.675702 198.680029 
L 117.627769 198.602773 
L 118.262479 198.497456 
L 121.436033 198.250793 
L 126.831074 197.582974 
L 128.100496 197.497356 
L 128.417851 197.293671 
L 134.447603 196.711139 
L 134.764959 196.564487 
L 140.794711 196.183231 
L 141.429421 196.017646 
L 143.968264 195.840455 
L 144.602975 195.708153 
L 145.872397 195.54173 
L 149.363306 195.368806 
L 153.806281 194.876971 
L 155.075702 194.801647 
L 156.662479 194.627744 
L 158.883967 194.535659 
L 159.201322 194.361673 
L 161.105455 194.282084 
L 163.644298 194.102211 
L 164.279008 194.016393 
L 166.500496 193.847931 
L 167.769917 193.758249 
L 168.087273 193.749441 
L 168.404628 193.602789 
L 179.194711 192.85237 
L 179.829421 192.74999 
L 181.416198 192.648394 
L 182.368264 192.533338 
L 185.859174 192.366435 
L 188.080661 192.195029 
L 189.032727 192.091367 
L 190.302149 191.940241 
L 193.793058 191.767388 
L 195.379835 191.642604 
L 200.457521 191.216125 
L 203.313719 191.043294 
L 204.58314 190.924854 
L 206.487273 190.826479 
L 209.343471 190.530608 
L 209.660826 190.406814 
L 213.786446 190.28632 
L 221.720331 189.719249 
L 222.989752 189.612364 
L 224.259174 189.538451 
L 226.798017 189.363565 
L 228.702149 189.203557 
L 230.288926 189.070685 
L 231.558347 188.953577 
L 233.779835 188.847064 
L 237.905455 188.612265 
L 238.540165 188.380255 
L 242.031074 188.236984 
L 243.300496 188.092997 
L 244.887273 188.008198 
L 246.156694 187.936032 
L 249.330248 187.716123 
L 250.282314 187.643132 
L 255.042645 187.349423 
L 255.677355 187.281291 
L 256.312066 187.192396 
L 260.437686 186.928972 
L 262.024463 186.789107 
L 278.844298 185.476576 
L 279.796364 185.397634 
L 282.017851 185.292729 
L 284.556694 185.046501 
L 290.903802 184.579559 
L 291.538512 184.478345 
L 301.059174 183.763299 
L 302.328595 183.641477 
L 303.915372 183.543033 
L 307.088926 183.31252 
L 314.070744 182.701372 
L 315.02281 182.609321 
L 315.974876 182.435937 
L 317.879008 182.331031 
L 318.196364 182.319518 
L 318.513719 182.184096 
L 321.687273 181.998473 
L 322.321983 181.908477 
L 324.543471 181.792728 
L 327.717025 181.447861 
L 328.351736 181.352302 
L 329.938512 181.249745 
L 330.890579 181.198076 
L 331.842645 181.047759 
L 337.237686 180.567561 
L 337.872397 180.421209 
L 339.776529 180.244576 
L 340.41124 180.109909 
L 343.584793 179.851066 
L 348.027769 179.357818 
L 348.345124 179.21403 
L 350.566612 179.036773 
L 351.201322 178.893564 
L 353.105455 178.755321 
L 354.057521 178.558414 
L 355.009587 178.486163 
L 355.644298 178.381194 
L 358.500496 178.059466 
L 359.135207 177.876514 
L 360.087273 177.810314 
L 360.404628 177.651034 
L 363.895537 177.242173 
L 364.847603 177.046138 
L 366.751736 176.848315 
L 367.703802 176.765292 
L 368.338512 176.514191 
L 368.655868 176.512542 
L 369.607934 176.232017 
L 372.781488 175.685302 
L 374.368264 175.332622 
L 375.320331 175.278334 
L 375.637686 175.124356 
L 377.541818 174.875062 
L 377.859174 174.689335 
L 378.493884 174.65794 
L 378.81124 174.461958 
L 379.128595 174.459212 
L 379.763306 174.186513 
L 380.715372 173.977332 
L 382.93686 173.530571 
L 383.254215 173.290633 
L 383.888926 173.181373 
L 386.110413 172.723603 
L 386.745124 172.434053 
L 387.69719 172.316634 
L 388.014545 172.013353 
L 389.918678 171.318783 
L 390.553388 170.931302 
L 390.870744 170.924919 
L 391.188099 170.705937 
L 391.82281 170.670597 
L 392.140165 170.161572 
L 392.774876 169.83784 
L 393.409587 169.595149 
L 394.044298 169.051656 
L 394.679008 168.538562 
L 394.996364 168.487018 
L 395.631074 168.161039 
L 396.58314 166.980556 
L 396.900496 166.876142 
L 397.217851 165.321139 
L 397.535207 165.199339 
L 397.852562 164.750283 
L 398.487273 162.359436 
L 398.487273 162.359436 
" clip-path="url(#p622d52cd79)" style="fill: none; stroke: #ff7f0e; stroke-width: 1.5; stroke-linecap: square"/>
   </g>
   <g id="patch_3">
    <path d="M 57.6 307.584 
L 57.6 41.472 
" style="fill: none; stroke: #000000; stroke-width: 0.8; stroke-linejoin: miter; stroke-linecap: square"/>
   </g>
   <g id="patch_4">
    <path d="M 414.72 307.584 
L 414.72 41.472 
" style="fill: none; stroke: #000000; stroke-width: 0.8; stroke-linejoin: miter; stroke-linecap: square"/>
   </g>
   <g id="patch_5">
    <path d="M 57.6 307.584 
L 414.72 307.584 
" style="fill: none; stroke: #000000; stroke-width: 0.8; stroke-linejoin: miter; stroke-linecap: square"/>
   </g>
   <g id="patch_6">
    <path d="M 57.6 41.472 
L 414.72 41.472 
" style="fill: none; stroke: #000000; stroke-width: 0.8; stroke-linejoin: miter; stroke-linecap: square"/>
   </g>
   <g id="legend_1">
    <g id="patch_7">
     <path d="M 64.6 78.82825 
L 129.342187 78.82825 
Q 131.342187 78.82825 131.342187 76.82825 
L 131.342187 48.472 
Q 131.342187 46.472 129.342187 46.472 
L 64.6 46.472 
Q 62.6 46.472 62.6 48.472 
L 62.6 76.82825 
Q 62.6 78.82825 64.6 78.82825 
z
" style="fill: #ffffff; opacity: 0.8; stroke: #cccccc; stroke-linejoin: miter"/>
    </g>
    <g id="line2d_18">
     <path d="M 66.6 54.570437 
L 76.6 54.570437 
L 86.6 54.570437 
" style="fill: none; stroke: #1f77b4; stroke-width: 1.5; stroke-linecap: square"/>
    </g>
    <g id="text_18">
     <!-- qc -->
     <g transform="translate(94.6 58.070437) scale(0.1 -0.1)">
      <defs>
       <path id="DejaVuSans-71" d="M 947 1747 
Q 947 1113 1208 752 
Q 1469 391 1925 391 
Q 2381 391 2643 752 
Q 2906 1113 2906 1747 
Q 2906 2381 2643 2742 
Q 2381 3103 1925 3103 
Q 1469 3103 1208 2742 
Q 947 2381 947 1747 
z
M 2906 525 
Q 2725 213 2448 61 
Q 2172 -91 1784 -91 
Q 1150 -91 751 415 
Q 353 922 353 1747 
Q 353 2572 751 3078 
Q 1150 3584 1784 3584 
Q 2172 3584 2448 3432 
Q 2725 3281 2906 2969 
L 2906 3500 
L 3481 3500 
L 3481 -1331 
L 2906 -1331 
L 2906 525 
z
" transform="scale(0.015625)"/>
       <path id="DejaVuSans-63" d="M 3122 3366 
L 3122 2828 
Q 2878 2963 2633 3030 
Q 2388 3097 2138 3097 
Q 1578 3097 1268 2742 
Q 959 2388 959 1747 
Q 959 1106 1268 751 
Q 1578 397 2138 397 
Q 2388 397 2633 464 
Q 2878 531 3122 666 
L 3122 134 
Q 2881 22 2623 -34 
Q 2366 -91 2075 -91 
Q 1284 -91 818 406 
Q 353 903 353 1747 
Q 353 2603 823 3093 
Q 1294 3584 2113 3584 
Q 2378 3584 2631 3529 
Q 2884 3475 3122 3366 
z
" transform="scale(0.015625)"/>
      </defs>
      <use xlink:href="#DejaVuSans-71"/>
      <use xlink:href="#DejaVuSans-63" x="63.476562"/>
     </g>
    </g>
    <g id="line2d_19">
     <path d="M 66.6 69.248562 
L 76.6 69.248562 
L 86.6 69.248562 
" style="fill: none; stroke: #ff7f0e; stroke-width: 1.5; stroke-linecap: square"/>
    </g>
    <g id="text_19">
     <!-- Trotter -->
     <g transform="translate(94.6 72.748562) scale(0.1 -0.1)">
      <defs>
       <path id="DejaVuSans-54" d="M -19 4666 
L 3928 4666 
L 3928 4134 
L 2272 4134 
L 2272 0 
L 1638 0 
L 1638 4134 
L -19 4134 
L -19 4666 
z
" transform="scale(0.015625)"/>
       <path id="DejaVuSans-72" d="M 2631 2963 
Q 2534 3019 2420 3045 
Q 2306 3072 2169 3072 
Q 1681 3072 1420 2755 
Q 1159 2438 1159 1844 
L 1159 0 
L 581 0 
L 581 3500 
L 1159 3500 
L 1159 2956 
Q 1341 3275 1631 3429 
Q 1922 3584 2338 3584 
Q 2397 3584 2469 3576 
Q 2541 3569 2628 3553 
L 2631 2963 
z
" transform="scale(0.015625)"/>
       <path id="DejaVuSans-6f" d="M 1959 3097 
Q 1497 3097 1228 2736 
Q 959 2375 959 1747 
Q 959 1119 1226 758 
Q 1494 397 1959 397 
Q 2419 397 2687 759 
Q 2956 1122 2956 1747 
Q 2956 2369 2687 2733 
Q 2419 3097 1959 3097 
z
M 1959 3584 
Q 2709 3584 3137 3096 
Q 3566 2609 3566 1747 
Q 3566 888 3137 398 
Q 2709 -91 1959 -91 
Q 1206 -91 779 398 
Q 353 888 353 1747 
Q 353 2609 779 3096 
Q 1206 3584 1959 3584 
z
" transform="scale(0.015625)"/>
       <path id="DejaVuSans-65" d="M 3597 1894 
L 3597 1613 
L 953 1613 
Q 991 1019 1311 708 
Q 1631 397 2203 397 
Q 2534 397 2845 478 
Q 3156 559 3463 722 
L 3463 178 
Q 3153 47 2828 -22 
Q 2503 -91 2169 -91 
Q 1331 -91 842 396 
Q 353 884 353 1716 
Q 353 2575 817 3079 
Q 1281 3584 2069 3584 
Q 2775 3584 3186 3129 
Q 3597 2675 3597 1894 
z
M 3022 2063 
Q 3016 2534 2758 2815 
Q 2500 3097 2075 3097 
Q 1594 3097 1305 2825 
Q 1016 2553 972 2059 
L 3022 2063 
z
" transform="scale(0.015625)"/>
      </defs>
      <use xlink:href="#DejaVuSans-54"/>
      <use xlink:href="#DejaVuSans-72" x="46.333984"/>
      <use xlink:href="#DejaVuSans-6f" x="85.197266"/>
      <use xlink:href="#DejaVuSans-74" x="146.378906"/>
      <use xlink:href="#DejaVuSans-74" x="185.587891"/>
      <use xlink:href="#DejaVuSans-65" x="224.796875"/>
      <use xlink:href="#DejaVuSans-72" x="286.320312"/>
     </g>
    </g>
   </g>
  </g>
 </g>
 <defs>
  <clipPath id="p622d52cd79">
   <rect x="57.6" y="41.472" width="357.12" height="266.112"/>
  </clipPath>
 </defs>
</svg>
