<?xml version="1.0" encoding="utf-8" standalone="no"?>
<!DOCTYPE svg PUBLIC "-//W3C//DTD SVG 1.1//EN"
  "http://www.w3.org/Graphics/SVG/1.1/DTD/svg11.dtd">
<svg xmlns:xlink="http://www.w3.org/1999/xlink" width="460.8pt" height="345.6pt" viewBox="0 0 460.8 345.6" xmlns="http://www.w3.org/2000/svg" version="1.1">
 <metadata>
  <rdf:RDF xmlns:dc="http://purl.org/dc/elements/1.1/" xmlns:cc="http://creativecommons.org/ns#" xmlns:rdf="http://www.w3.org/1999/02/22-rdf-syntax-ns#">
   <cc:Work>
    <dc:type rdf:resource="http://purl.org/dc/dcmitype/StillImage"/>
    <dc:date>2024-08-25T11:38:28.736256</dc:date>
    <dc:format>image/svg+xml</dc:format>
    <dc:creator>
     <cc:Agent>
      <dc:title>Matplotlib v3.7.1, https://matplotlib.org/</dc:title>
     </cc:Agent>
    </dc:creator>
   </cc:Work>
  </rdf:RDF>
 </metadata>
 <defs>
  <style type="text/css">*{stroke-linejoin: round; stroke-linecap: butt}</style>
 </defs>
 <g id="figure_1">
  <g id="patch_1">
   <path d="M 0 345.6 
L 460.8 345.6 
L 460.8 0 
L 0 0 
z
" style="fill: #ffffff"/>
  </g>
  <g id="axes_1">
   <g id="patch_2">
    <path d="M 57.6 307.584 
L 414.72 307.584 
L 414.72 41.472 
L 57.6 41.472 
z
" style="fill: #ffffff"/>
   </g>
   <g id="matplotlib.axis_1">
    <g id="xtick_1">
     <g id="line2d_1">
      <defs>
       <path id="mbaaf9995e2" d="M 0 0 
L 0 3.5 
" style="stroke: #000000; stroke-width: 0.8"/>
      </defs>
      <g>
       <use xlink:href="#mbaaf9995e2" x="73.832727" y="307.584" style="stroke: #000000; stroke-width: 0.8"/>
      </g>
     </g>
     <g id="text_1">
      <!-- 0 -->
      <g transform="translate(70.651477 322.182437) scale(0.1 -0.1)">
       <defs>
        <path id="DejaVuSans-30" d="M 2034 4250 
Q 1547 4250 1301 3770 
Q 1056 3291 1056 2328 
Q 1056 1369 1301 889 
Q 1547 409 2034 409 
Q 2525 409 2770 889 
Q 3016 1369 3016 2328 
Q 3016 3291 2770 3770 
Q 2525 4250 2034 4250 
z
M 2034 4750 
Q 2819 4750 3233 4129 
Q 3647 3509 3647 2328 
Q 3647 1150 3233 529 
Q 2819 -91 2034 -91 
Q 1250 -91 836 529 
Q 422 1150 422 2328 
Q 422 3509 836 4129 
Q 1250 4750 2034 4750 
z
" transform="scale(0.015625)"/>
       </defs>
       <use xlink:href="#DejaVuSans-30"/>
      </g>
     </g>
    </g>
    <g id="xtick_2">
     <g id="line2d_2">
      <g>
       <use xlink:href="#mbaaf9995e2" x="137.303802" y="307.584" style="stroke: #000000; stroke-width: 0.8"/>
      </g>
     </g>
     <g id="text_2">
      <!-- 200 -->
      <g transform="translate(127.760052 322.182437) scale(0.1 -0.1)">
       <defs>
        <path id="DejaVuSans-32" d="M 1228 531 
L 3431 531 
L 3431 0 
L 469 0 
L 469 531 
Q 828 903 1448 1529 
Q 2069 2156 2228 2338 
Q 2531 2678 2651 2914 
Q 2772 3150 2772 3378 
Q 2772 3750 2511 3984 
Q 2250 4219 1831 4219 
Q 1534 4219 1204 4116 
Q 875 4013 500 3803 
L 500 4441 
Q 881 4594 1212 4672 
Q 1544 4750 1819 4750 
Q 2544 4750 2975 4387 
Q 3406 4025 3406 3419 
Q 3406 3131 3298 2873 
Q 3191 2616 2906 2266 
Q 2828 2175 2409 1742 
Q 1991 1309 1228 531 
z
" transform="scale(0.015625)"/>
       </defs>
       <use xlink:href="#DejaVuSans-32"/>
       <use xlink:href="#DejaVuSans-30" x="63.623047"/>
       <use xlink:href="#DejaVuSans-30" x="127.246094"/>
      </g>
     </g>
    </g>
    <g id="xtick_3">
     <g id="line2d_3">
      <g>
       <use xlink:href="#mbaaf9995e2" x="200.774876" y="307.584" style="stroke: #000000; stroke-width: 0.8"/>
      </g>
     </g>
     <g id="text_3">
      <!-- 400 -->
      <g transform="translate(191.231126 322.182437) scale(0.1 -0.1)">
       <defs>
        <path id="DejaVuSans-34" d="M 2419 4116 
L 825 1625 
L 2419 1625 
L 2419 4116 
z
M 2253 4666 
L 3047 4666 
L 3047 1625 
L 3713 1625 
L 3713 1100 
L 3047 1100 
L 3047 0 
L 2419 0 
L 2419 1100 
L 313 1100 
L 313 1709 
L 2253 4666 
z
" transform="scale(0.015625)"/>
       </defs>
       <use xlink:href="#DejaVuSans-34"/>
       <use xlink:href="#DejaVuSans-30" x="63.623047"/>
       <use xlink:href="#DejaVuSans-30" x="127.246094"/>
      </g>
     </g>
    </g>
    <g id="xtick_4">
     <g id="line2d_4">
      <g>
       <use xlink:href="#mbaaf9995e2" x="264.24595" y="307.584" style="stroke: #000000; stroke-width: 0.8"/>
      </g>
     </g>
     <g id="text_4">
      <!-- 600 -->
      <g transform="translate(254.7022 322.182437) scale(0.1 -0.1)">
       <defs>
        <path id="DejaVuSans-36" d="M 2113 2584 
Q 1688 2584 1439 2293 
Q 1191 2003 1191 1497 
Q 1191 994 1439 701 
Q 1688 409 2113 409 
Q 2538 409 2786 701 
Q 3034 994 3034 1497 
Q 3034 2003 2786 2293 
Q 2538 2584 2113 2584 
z
M 3366 4563 
L 3366 3988 
Q 3128 4100 2886 4159 
Q 2644 4219 2406 4219 
Q 1781 4219 1451 3797 
Q 1122 3375 1075 2522 
Q 1259 2794 1537 2939 
Q 1816 3084 2150 3084 
Q 2853 3084 3261 2657 
Q 3669 2231 3669 1497 
Q 3669 778 3244 343 
Q 2819 -91 2113 -91 
Q 1303 -91 875 529 
Q 447 1150 447 2328 
Q 447 3434 972 4092 
Q 1497 4750 2381 4750 
Q 2619 4750 2861 4703 
Q 3103 4656 3366 4563 
z
" transform="scale(0.015625)"/>
       </defs>
       <use xlink:href="#DejaVuSans-36"/>
       <use xlink:href="#DejaVuSans-30" x="63.623047"/>
       <use xlink:href="#DejaVuSans-30" x="127.246094"/>
      </g>
     </g>
    </g>
    <g id="xtick_5">
     <g id="line2d_5">
      <g>
       <use xlink:href="#mbaaf9995e2" x="327.717025" y="307.584" style="stroke: #000000; stroke-width: 0.8"/>
      </g>
     </g>
     <g id="text_5">
      <!-- 800 -->
      <g transform="translate(318.173275 322.182437) scale(0.1 -0.1)">
       <defs>
        <path id="DejaVuSans-38" d="M 2034 2216 
Q 1584 2216 1326 1975 
Q 1069 1734 1069 1313 
Q 1069 891 1326 650 
Q 1584 409 2034 409 
Q 2484 409 2743 651 
Q 3003 894 3003 1313 
Q 3003 1734 2745 1975 
Q 2488 2216 2034 2216 
z
M 1403 2484 
Q 997 2584 770 2862 
Q 544 3141 544 3541 
Q 544 4100 942 4425 
Q 1341 4750 2034 4750 
Q 2731 4750 3128 4425 
Q 3525 4100 3525 3541 
Q 3525 3141 3298 2862 
Q 3072 2584 2669 2484 
Q 3125 2378 3379 2068 
Q 3634 1759 3634 1313 
Q 3634 634 3220 271 
Q 2806 -91 2034 -91 
Q 1263 -91 848 271 
Q 434 634 434 1313 
Q 434 1759 690 2068 
Q 947 2378 1403 2484 
z
M 1172 3481 
Q 1172 3119 1398 2916 
Q 1625 2713 2034 2713 
Q 2441 2713 2670 2916 
Q 2900 3119 2900 3481 
Q 2900 3844 2670 4047 
Q 2441 4250 2034 4250 
Q 1625 4250 1398 4047 
Q 1172 3844 1172 3481 
z
" transform="scale(0.015625)"/>
       </defs>
       <use xlink:href="#DejaVuSans-38"/>
       <use xlink:href="#DejaVuSans-30" x="63.623047"/>
       <use xlink:href="#DejaVuSans-30" x="127.246094"/>
      </g>
     </g>
    </g>
    <g id="xtick_6">
     <g id="line2d_6">
      <g>
       <use xlink:href="#mbaaf9995e2" x="391.188099" y="307.584" style="stroke: #000000; stroke-width: 0.8"/>
      </g>
     </g>
     <g id="text_6">
      <!-- 1000 -->
      <g transform="translate(378.463099 322.182437) scale(0.1 -0.1)">
       <defs>
        <path id="DejaVuSans-31" d="M 794 531 
L 1825 531 
L 1825 4091 
L 703 3866 
L 703 4441 
L 1819 4666 
L 2450 4666 
L 2450 531 
L 3481 531 
L 3481 0 
L 794 0 
L 794 531 
z
" transform="scale(0.015625)"/>
       </defs>
       <use xlink:href="#DejaVuSans-31"/>
       <use xlink:href="#DejaVuSans-30" x="63.623047"/>
       <use xlink:href="#DejaVuSans-30" x="127.246094"/>
       <use xlink:href="#DejaVuSans-30" x="190.869141"/>
      </g>
     </g>
    </g>
    <g id="text_7">
     <!-- n -->
     <g transform="translate(232.99125 335.860562) scale(0.1 -0.1)">
      <defs>
       <path id="DejaVuSans-6e" d="M 3513 2113 
L 3513 0 
L 2938 0 
L 2938 2094 
Q 2938 2591 2744 2837 
Q 2550 3084 2163 3084 
Q 1697 3084 1428 2787 
Q 1159 2491 1159 1978 
L 1159 0 
L 581 0 
L 581 3500 
L 1159 3500 
L 1159 2956 
Q 1366 3272 1645 3428 
Q 1925 3584 2291 3584 
Q 2894 3584 3203 3211 
Q 3513 2838 3513 2113 
z
" transform="scale(0.015625)"/>
      </defs>
      <use xlink:href="#DejaVuSans-6e"/>
     </g>
    </g>
   </g>
   <g id="matplotlib.axis_2">
    <g id="ytick_1">
     <g id="line2d_7">
      <defs>
       <path id="m2a92a05625" d="M 0 0 
L -3.5 0 
" style="stroke: #000000; stroke-width: 0.8"/>
      </defs>
      <g>
       <use xlink:href="#m2a92a05625" x="57.6" y="286.14295" style="stroke: #000000; stroke-width: 0.8"/>
      </g>
     </g>
     <g id="text_8">
      <!-- −6 -->
      <g transform="translate(35.857813 289.942169) scale(0.1 -0.1)">
       <defs>
        <path id="DejaVuSans-2212" d="M 678 2272 
L 4684 2272 
L 4684 1741 
L 678 1741 
L 678 2272 
z
" transform="scale(0.015625)"/>
       </defs>
       <use xlink:href="#DejaVuSans-2212"/>
       <use xlink:href="#DejaVuSans-36" x="83.789062"/>
      </g>
     </g>
    </g>
    <g id="ytick_2">
     <g id="line2d_8">
      <g>
       <use xlink:href="#m2a92a05625" x="57.6" y="249.015296" style="stroke: #000000; stroke-width: 0.8"/>
      </g>
     </g>
     <g id="text_9">
      <!-- −4 -->
      <g transform="translate(35.857813 252.814515) scale(0.1 -0.1)">
       <use xlink:href="#DejaVuSans-2212"/>
       <use xlink:href="#DejaVuSans-34" x="83.789062"/>
      </g>
     </g>
    </g>
    <g id="ytick_3">
     <g id="line2d_9">
      <g>
       <use xlink:href="#m2a92a05625" x="57.6" y="211.887641" style="stroke: #000000; stroke-width: 0.8"/>
      </g>
     </g>
     <g id="text_10">
      <!-- −2 -->
      <g transform="translate(35.857813 215.68686) scale(0.1 -0.1)">
       <use xlink:href="#DejaVuSans-2212"/>
       <use xlink:href="#DejaVuSans-32" x="83.789062"/>
      </g>
     </g>
    </g>
    <g id="ytick_4">
     <g id="line2d_10">
      <g>
       <use xlink:href="#m2a92a05625" x="57.6" y="174.759987" style="stroke: #000000; stroke-width: 0.8"/>
      </g>
     </g>
     <g id="text_11">
      <!-- 0 -->
      <g transform="translate(44.2375 178.559205) scale(0.1 -0.1)">
       <use xlink:href="#DejaVuSans-30"/>
      </g>
     </g>
    </g>
    <g id="ytick_5">
     <g id="line2d_11">
      <g>
       <use xlink:href="#m2a92a05625" x="57.6" y="137.632332" style="stroke: #000000; stroke-width: 0.8"/>
      </g>
     </g>
     <g id="text_12">
      <!-- 2 -->
      <g transform="translate(44.2375 141.431551) scale(0.1 -0.1)">
       <use xlink:href="#DejaVuSans-32"/>
      </g>
     </g>
    </g>
    <g id="ytick_6">
     <g id="line2d_12">
      <g>
       <use xlink:href="#m2a92a05625" x="57.6" y="100.504678" style="stroke: #000000; stroke-width: 0.8"/>
      </g>
     </g>
     <g id="text_13">
      <!-- 4 -->
      <g transform="translate(44.2375 104.303896) scale(0.1 -0.1)">
       <use xlink:href="#DejaVuSans-34"/>
      </g>
     </g>
    </g>
    <g id="ytick_7">
     <g id="line2d_13">
      <g>
       <use xlink:href="#m2a92a05625" x="57.6" y="63.377023" style="stroke: #000000; stroke-width: 0.8"/>
      </g>
     </g>
     <g id="text_14">
      <!-- 6 -->
      <g transform="translate(44.2375 67.176242) scale(0.1 -0.1)">
       <use xlink:href="#DejaVuSans-36"/>
      </g>
     </g>
    </g>
    <g id="text_15">
     <!-- E*t -->
     <g transform="translate(29.778125 182.147531) rotate(-90) scale(0.1 -0.1)">
      <defs>
       <path id="DejaVuSans-45" d="M 628 4666 
L 3578 4666 
L 3578 4134 
L 1259 4134 
L 1259 2753 
L 3481 2753 
L 3481 2222 
L 1259 2222 
L 1259 531 
L 3634 531 
L 3634 0 
L 628 0 
L 628 4666 
z
" transform="scale(0.015625)"/>
       <path id="DejaVuSans-2a" d="M 3009 3897 
L 1888 3291 
L 3009 2681 
L 2828 2375 
L 1778 3009 
L 1778 1831 
L 1422 1831 
L 1422 3009 
L 372 2375 
L 191 2681 
L 1313 3291 
L 191 3897 
L 372 4206 
L 1422 3572 
L 1422 4750 
L 1778 4750 
L 1778 3572 
L 2828 4206 
L 3009 3897 
z
" transform="scale(0.015625)"/>
       <path id="DejaVuSans-74" d="M 1172 4494 
L 1172 3500 
L 2356 3500 
L 2356 3053 
L 1172 3053 
L 1172 1153 
Q 1172 725 1289 603 
Q 1406 481 1766 481 
L 2356 481 
L 2356 0 
L 1766 0 
Q 1100 0 847 248 
Q 594 497 594 1153 
L 594 3053 
L 172 3053 
L 172 3500 
L 594 3500 
L 594 4494 
L 1172 4494 
z
" transform="scale(0.015625)"/>
      </defs>
      <use xlink:href="#DejaVuSans-45"/>
      <use xlink:href="#DejaVuSans-2a" x="63.183594"/>
      <use xlink:href="#DejaVuSans-74" x="113.183594"/>
     </g>
    </g>
   </g>
   <g id="line2d_14">
    <path d="M 73.832727 295.488 
L 74.150083 294.842726 
L 74.784793 289.129486 
L 75.102149 288.581324 
L 75.419504 285.808061 
L 75.73686 285.656688 
L 76.054215 283.843419 
L 76.37157 282.889017 
L 77.006281 282.809655 
L 77.323636 281.646855 
L 77.640992 281.541616 
L 77.958347 281.237082 
L 78.275702 281.207686 
L 78.593058 280.944163 
L 78.910413 280.354818 
L 79.545124 280.325243 
L 79.862479 279.866042 
L 80.179835 279.773124 
L 80.49719 278.870593 
L 81.131901 278.651864 
L 81.449256 278.582579 
L 81.766612 277.581576 
L 82.718678 277.434535 
L 83.036033 277.432208 
L 83.353388 277.315594 
L 83.670744 277.07524 
L 83.988099 276.126784 
L 84.305455 276.099062 
L 84.62281 275.744841 
L 84.940165 275.63976 
L 85.257521 275.033499 
L 85.892231 274.710902 
L 86.526942 274.431256 
L 86.844298 274.034084 
L 87.161653 273.301926 
L 87.796364 272.752989 
L 88.113719 272.256196 
L 89.065785 271.917791 
L 89.38314 271.900669 
L 89.700496 271.538511 
L 90.017851 270.644612 
L 90.335207 270.636288 
L 90.652562 270.424035 
L 90.969917 270.349129 
L 91.921983 268.588817 
L 92.239339 268.51781 
L 92.556694 268.021 
L 92.87405 267.740389 
L 93.191405 267.737306 
L 93.50876 267.56669 
L 94.143471 266.196637 
L 94.460826 265.797281 
L 95.095537 265.539401 
L 95.412893 265.082358 
L 95.730248 264.353644 
L 96.999669 263.944582 
L 97.317025 263.364911 
L 97.63438 261.358753 
L 98.269091 260.274162 
L 98.903802 259.509559 
L 99.221157 257.609859 
L 99.855868 257.488932 
L 100.173223 257.484091 
L 101.125289 256.733608 
L 101.442645 256.036547 
L 101.76 255.984224 
L 102.077355 255.631225 
L 102.394711 255.517926 
L 103.029421 254.581144 
L 103.346777 253.841434 
L 103.664132 253.82552 
L 103.981488 253.553921 
L 104.298843 252.700404 
L 105.250909 252.430626 
L 105.568264 252.087484 
L 105.88562 252.011664 
L 106.202975 251.615464 
L 107.155041 250.952773 
L 107.789752 250.340753 
L 108.424463 250.177905 
L 108.741818 249.311521 
L 109.693884 248.769927 
L 110.01124 248.474691 
L 110.963306 248.230526 
L 111.280661 247.517259 
L 111.915372 247.278157 
L 112.550083 246.261179 
L 113.184793 246.158869 
L 113.502149 245.943008 
L 113.819504 245.923172 
L 114.13686 245.629635 
L 114.77157 245.57222 
L 115.406281 245.136766 
L 115.723636 244.670008 
L 116.040992 244.483459 
L 116.358347 244.425977 
L 116.993058 243.988779 
L 117.627769 243.824612 
L 118.262479 243.479221 
L 118.579835 243.411132 
L 119.531901 242.915417 
L 120.166612 242.747713 
L 120.801322 242.154128 
L 121.436033 242.007105 
L 121.753388 241.383157 
L 122.070744 241.363738 
L 122.388099 241.198491 
L 122.705455 241.18074 
L 123.657521 240.548828 
L 124.926942 240.192047 
L 125.879008 239.771333 
L 126.196364 239.753805 
L 126.513719 239.425925 
L 127.14843 239.259969 
L 127.465785 239.074698 
L 127.78314 238.349938 
L 128.417851 237.685705 
L 128.735207 237.575342 
L 129.052562 237.202845 
L 129.687273 236.922517 
L 130.004628 236.889286 
L 130.321983 236.700178 
L 130.639339 236.363547 
L 130.956694 236.289481 
L 131.90876 235.392481 
L 132.860826 235.127464 
L 133.812893 234.579683 
L 134.764959 233.144576 
L 135.717025 232.593043 
L 136.03438 232.239659 
L 136.351736 231.553324 
L 136.669091 231.247951 
L 137.303802 231.165145 
L 137.938512 230.503934 
L 138.573223 229.44266 
L 138.890579 229.397529 
L 139.207934 229.001432 
L 139.525289 228.974326 
L 139.842645 228.709895 
L 140.16 228.599214 
L 140.794711 228.147142 
L 141.112066 228.110031 
L 141.746777 227.142633 
L 142.064132 227.019724 
L 142.381488 226.763727 
L 142.698843 226.291427 
L 143.016198 226.103723 
L 143.333554 225.468703 
L 143.650909 225.153937 
L 143.968264 225.029241 
L 144.28562 224.597839 
L 144.602975 224.556615 
L 145.872397 223.392756 
L 146.189752 222.977485 
L 146.507107 222.950252 
L 147.141818 222.366313 
L 147.776529 221.829678 
L 148.41124 221.289435 
L 148.728595 221.226759 
L 149.363306 220.447331 
L 149.998017 220.367413 
L 150.632727 219.869406 
L 151.584793 219.648084 
L 151.902149 218.835443 
L 152.53686 218.227397 
L 152.854215 217.911004 
L 153.17157 217.873045 
L 153.806281 217.599522 
L 154.123636 217.09271 
L 154.440992 216.900028 
L 155.075702 216.809452 
L 156.345124 216.088661 
L 157.931901 215.51186 
L 158.883967 214.684485 
L 160.788099 214.080741 
L 163.009587 212.252786 
L 163.961653 212.144515 
L 164.279008 211.689267 
L 165.231074 211.463697 
L 165.54843 210.645902 
L 166.18314 210.356216 
L 167.135207 210.035531 
L 167.452562 209.642957 
L 168.087273 209.476287 
L 168.721983 208.957359 
L 169.039339 208.898383 
L 169.356694 208.661057 
L 170.943471 208.290967 
L 171.260826 207.925856 
L 171.895537 207.436657 
L 172.212893 207.015478 
L 172.847603 206.694991 
L 173.482314 206.236321 
L 174.43438 205.883439 
L 175.386446 204.971442 
L 176.973223 204.37581 
L 177.925289 204.228565 
L 178.877355 204.020805 
L 179.194711 202.796793 
L 179.829421 202.198128 
L 180.146777 201.538341 
L 180.781488 201.319 
L 181.098843 201.294335 
L 181.733554 200.771907 
L 182.68562 200.092393 
L 183.002975 199.541856 
L 183.320331 199.279256 
L 183.637686 198.834486 
L 183.955041 198.755013 
L 184.272397 198.512766 
L 184.589752 198.463908 
L 184.907107 197.34494 
L 186.493884 196.032227 
L 186.81124 196.025278 
L 187.44595 195.509752 
L 187.763306 194.734947 
L 189.667438 194.177432 
L 189.984793 193.582979 
L 190.302149 193.278649 
L 190.93686 193.095728 
L 191.254215 192.929372 
L 191.57157 192.231036 
L 191.888926 191.840705 
L 192.206281 191.641411 
L 194.110413 191.301512 
L 194.745124 190.680139 
L 196.966612 190.139787 
L 197.283967 189.876628 
L 197.601322 189.769994 
L 197.918678 189.500783 
L 198.553388 189.395784 
L 199.188099 188.876793 
L 199.82281 188.777091 
L 200.140165 188.539574 
L 200.457521 188.518894 
L 200.774876 188.249188 
L 201.092231 187.796783 
L 202.679008 186.945336 
L 202.996364 186.546488 
L 203.631074 186.45658 
L 204.900496 186.029166 
L 205.535207 185.546774 
L 205.852562 185.372101 
L 206.804628 185.273939 
L 207.121983 184.997585 
L 207.439339 184.952019 
L 208.07405 184.603891 
L 208.70876 184.408068 
L 209.026116 184.353707 
L 209.343471 184.037636 
L 209.660826 183.460224 
L 210.612893 183.343823 
L 212.83438 182.571004 
L 213.469091 182.356396 
L 214.421157 181.98815 
L 214.738512 181.697675 
L 215.055868 181.623039 
L 215.690579 181.281256 
L 216.642645 181.092331 
L 217.277355 180.681904 
L 218.546777 180.289473 
L 218.864132 180.044099 
L 219.181488 179.961511 
L 219.498843 179.676216 
L 220.133554 179.588478 
L 220.450909 179.106391 
L 220.768264 179.096073 
L 221.08562 178.86366 
L 223.307107 178.299959 
L 223.624463 178.100887 
L 224.259174 178.023122 
L 224.576529 177.863888 
L 224.893884 177.845606 
L 225.84595 177.259503 
L 226.480661 177.119353 
L 226.798017 176.810286 
L 227.432727 176.61348 
L 227.750083 176.314204 
L 228.384793 176.177278 
L 228.702149 175.863474 
L 229.654215 175.73879 
L 229.97157 175.58419 
L 230.923636 175.527806 
L 231.240992 175.174075 
L 231.558347 175.12862 
L 231.875702 174.569433 
L 232.193058 174.329741 
L 232.510413 174.304306 
L 233.145124 173.816475 
L 237.905455 172.403337 
L 238.22281 172.071873 
L 238.540165 172.054179 
L 239.492231 171.474656 
L 239.809587 171.365793 
L 240.126942 171.003485 
L 241.079008 170.90664 
L 241.396364 170.616434 
L 242.031074 170.35155 
L 242.34843 170.156351 
L 242.665785 169.431889 
L 243.935207 169.073491 
L 244.252562 168.497491 
L 244.887273 168.357296 
L 245.204628 168.093431 
L 245.521983 168.065343 
L 246.156694 167.826534 
L 246.791405 167.645347 
L 248.060826 167.327667 
L 248.695537 166.875175 
L 249.012893 166.850178 
L 249.330248 166.429275 
L 249.647603 166.416907 
L 249.964959 166.238552 
L 250.599669 166.127279 
L 250.917025 165.517121 
L 251.23438 165.32529 
L 251.551736 165.28241 
L 251.869091 164.991143 
L 254.407934 164.06824 
L 254.725289 163.703987 
L 255.677355 163.503243 
L 255.994711 162.924103 
L 256.312066 162.718869 
L 256.946777 162.613649 
L 257.898843 161.847491 
L 258.533554 161.34208 
L 258.850909 161.088799 
L 260.120331 160.666343 
L 260.437686 160.295101 
L 262.024463 159.650132 
L 262.341818 159.645922 
L 262.659174 159.289313 
L 262.976529 159.180713 
L 263.61124 158.523003 
L 264.24595 158.401866 
L 264.563306 158.22012 
L 265.832727 158.03327 
L 266.784793 157.102285 
L 267.419504 156.781337 
L 268.054215 156.135307 
L 268.688926 156.055377 
L 269.006281 155.839837 
L 269.323636 155.457031 
L 269.640992 155.441396 
L 269.958347 154.782568 
L 270.593058 154.370455 
L 271.227769 154.308179 
L 271.862479 153.673241 
L 272.179835 153.659356 
L 273.131901 153.12014 
L 274.083967 152.73907 
L 274.718678 152.641002 
L 275.036033 152.200702 
L 278.209587 151.459264 
L 278.526942 151.009596 
L 279.161653 150.654197 
L 279.796364 150.553617 
L 280.74843 150.163139 
L 281.38314 149.853719 
L 281.700496 149.167944 
L 282.335207 148.963165 
L 283.287273 148.476905 
L 283.921983 148.394268 
L 284.87405 147.669821 
L 285.50876 147.409663 
L 286.460826 147.240325 
L 286.778182 146.911925 
L 287.412893 146.831427 
L 288.047603 146.494237 
L 289.63438 146.203431 
L 290.269091 145.475203 
L 290.586446 144.959592 
L 291.221157 144.730739 
L 291.538512 144.24756 
L 293.125289 143.748396 
L 293.442645 143.382598 
L 294.394711 143.100887 
L 294.712066 142.744427 
L 295.346777 142.681925 
L 296.298843 142.218124 
L 296.616198 142.20008 
L 296.933554 142.050773 
L 297.250909 141.738495 
L 297.88562 141.635069 
L 298.202975 141.075464 
L 298.520331 140.778494 
L 298.837686 140.684355 
L 299.155041 140.29593 
L 300.107107 139.960405 
L 300.424463 139.375709 
L 301.376529 139.069589 
L 301.693884 138.649049 
L 302.963306 138.30218 
L 303.280661 137.561611 
L 303.598017 137.3706 
L 303.915372 136.889852 
L 304.232727 136.864254 
L 304.550083 136.655556 
L 304.867438 136.623301 
L 305.184793 136.034965 
L 306.13686 135.193919 
L 307.088926 135.122808 
L 307.406281 134.92079 
L 307.723636 134.413033 
L 308.358347 134.023999 
L 309.310413 132.73672 
L 309.627769 132.486472 
L 309.945124 131.996139 
L 310.579835 131.853336 
L 310.89719 131.265673 
L 311.214545 131.074922 
L 311.531901 131.036598 
L 312.166612 130.298289 
L 313.118678 129.487028 
L 313.753388 129.217342 
L 314.388099 128.46306 
L 315.02281 128.295716 
L 315.340165 127.696539 
L 316.292231 127.500421 
L 316.926942 126.861159 
L 317.561653 125.760765 
L 318.831074 125.342709 
L 319.14843 125.086237 
L 319.465785 125.078228 
L 319.78314 124.234821 
L 320.417851 123.829697 
L 321.369917 122.99018 
L 321.687273 122.930746 
L 322.004628 122.376071 
L 322.321983 122.075004 
L 322.639339 122.060188 
L 322.956694 121.713396 
L 324.226116 121.253637 
L 324.543471 120.721736 
L 324.860826 120.651023 
L 325.178182 120.011807 
L 325.812893 119.42738 
L 326.130248 119.33584 
L 326.447603 118.889053 
L 328.351736 117.671691 
L 329.303802 117.314914 
L 330.573223 115.779996 
L 330.890579 115.756991 
L 331.207934 115.615117 
L 331.525289 115.3096 
L 331.842645 115.158497 
L 332.16 115.138038 
L 336.602975 112.957067 
L 336.920331 112.060626 
L 337.555041 111.552062 
L 338.824463 111.01829 
L 339.776529 110.425966 
L 340.41124 110.176972 
L 340.728595 109.693244 
L 341.04595 109.576828 
L 341.363306 108.268767 
L 341.680661 107.591409 
L 341.998017 107.515886 
L 342.315372 107.033731 
L 342.632727 106.765014 
L 342.950083 106.689825 
L 343.267438 106.213151 
L 343.584793 105.969571 
L 344.219504 105.050154 
L 344.53686 104.965142 
L 344.854215 104.705609 
L 345.17157 104.055932 
L 345.488926 103.847639 
L 345.806281 103.826012 
L 346.123636 103.519837 
L 346.758347 103.367862 
L 347.075702 103.042074 
L 348.662479 102.46496 
L 348.979835 102.4139 
L 349.614545 101.877656 
L 349.931901 101.819746 
L 350.249256 101.524664 
L 351.201322 101.270847 
L 351.518678 100.817524 
L 351.836033 100.736342 
L 352.470744 99.673537 
L 352.788099 99.41115 
L 353.740165 99.210278 
L 354.057521 98.777476 
L 354.692231 98.617579 
L 355.326942 98.479835 
L 356.596364 98.179656 
L 356.913719 97.74551 
L 357.231074 97.711583 
L 357.54843 97.301361 
L 358.18314 97.085799 
L 358.500496 96.863163 
L 358.817851 96.084769 
L 359.452562 95.200732 
L 360.087273 95.023097 
L 360.404628 94.511661 
L 361.67405 93.978777 
L 362.626116 93.554154 
L 362.943471 93.301523 
L 363.260826 93.290241 
L 363.578182 93.088489 
L 363.895537 92.554943 
L 364.530248 91.929519 
L 364.847603 91.138255 
L 365.164959 90.914261 
L 365.482314 90.889837 
L 366.43438 90.308195 
L 366.751736 90.188669 
L 367.069091 89.787412 
L 367.386446 89.593983 
L 367.703802 89.167068 
L 368.021157 89.117284 
L 369.607934 86.970029 
L 369.925289 86.906407 
L 370.242645 86.681909 
L 370.877355 85.732942 
L 371.829421 83.220515 
L 372.464132 82.439076 
L 372.781488 82.000596 
L 373.098843 81.999259 
L 373.416198 81.540191 
L 373.733554 81.371715 
L 374.050909 79.738556 
L 375.320331 77.275544 
L 375.955041 76.903817 
L 376.272397 75.508299 
L 376.589752 75.390423 
L 377.541818 74.433777 
L 377.859174 74.375522 
L 378.176529 74.19974 
L 378.493884 73.761164 
L 379.128595 73.551587 
L 379.44595 72.669905 
L 379.763306 72.445065 
L 380.080661 71.996349 
L 380.398017 70.85777 
L 380.715372 70.645353 
L 381.032727 70.636052 
L 381.350083 70.481665 
L 382.302149 69.046747 
L 382.619504 68.991848 
L 382.93686 68.455558 
L 384.206281 67.903591 
L 384.840992 67.841508 
L 385.158347 67.179529 
L 385.475702 67.168373 
L 385.793058 66.660719 
L 386.427769 66.479708 
L 387.062479 66.146986 
L 387.69719 65.988402 
L 388.331901 65.550089 
L 388.649256 65.374987 
L 389.283967 64.284549 
L 389.601322 64.273406 
L 389.918678 64.072847 
L 390.236033 63.713265 
L 390.553388 63.125867 
L 391.505455 62.707055 
L 391.82281 62.49448 
L 393.409587 62.401652 
L 393.726942 61.899645 
L 394.044298 61.775588 
L 394.361653 61.469759 
L 394.996364 59.824002 
L 395.313719 59.6336 
L 395.631074 58.918439 
L 395.94843 58.732141 
L 396.265785 58.251079 
L 396.58314 58.232182 
L 396.900496 57.803212 
L 397.217851 56.096819 
L 397.535207 56.078008 
L 397.852562 54.530478 
L 398.169917 54.176411 
L 398.487273 53.568 
L 398.487273 53.568 
" clip-path="url(#p6c4e4cb763)" style="fill: none; stroke: #1f77b4; stroke-width: 1.5; stroke-linecap: square"/>
   </g>
   <g id="line2d_15">
    <path d="M 73.832727 267.688589 
L 74.150083 256.844821 
L 74.467438 256.844821 
L 74.784793 247.575609 
L 75.102149 245.650262 
L 75.73686 245.650262 
L 76.054215 242.182096 
L 76.37157 236.327352 
L 76.688926 235.968146 
L 77.006281 235.968146 
L 77.323636 235.062226 
L 78.910413 235.062226 
L 79.227769 231.759221 
L 79.545124 231.759221 
L 79.862479 230.563544 
L 80.179835 229.824837 
L 80.49719 229.824837 
L 80.814545 226.172428 
L 81.131901 224.45321 
L 82.083967 224.42365 
L 82.401322 223.40614 
L 86.844298 223.348369 
L 87.161653 222.791234 
L 87.479008 220.144599 
L 87.796364 219.559525 
L 88.113719 218.643288 
L 89.700496 218.643288 
L 90.017851 217.47261 
L 90.652562 217.47261 
L 90.969917 216.112692 
L 91.287273 216.112692 
L 91.604628 215.404281 
L 91.921983 213.58214 
L 99.221157 213.58214 
L 99.538512 212.496388 
L 99.855868 212.496388 
L 100.173223 212.239561 
L 101.76 212.239561 
L 102.077355 211.114149 
L 103.664132 211.114149 
L 103.981488 210.860297 
L 104.298843 210.421483 
L 104.933554 210.421483 
L 105.250909 208.878133 
L 106.202975 208.800351 
L 106.520331 205.317262 
L 107.155041 204.973109 
L 107.472397 204.973109 
L 107.789752 204.171054 
L 109.376529 204.171054 
L 109.693884 202.410808 
L 110.01124 202.410808 
L 110.328595 200.466288 
L 129.369917 200.466207 
L 129.687273 199.361204 
L 130.321983 198.321937 
L 131.27405 198.255677 
L 131.591405 197.351733 
L 131.90876 197.351733 
L 132.226116 197.145212 
L 132.860826 197.145212 
L 133.178182 195.405059 
L 133.495537 195.405059 
L 133.812893 195.040672 
L 135.399669 195.040672 
L 135.717025 193.556702 
L 136.03438 193.356597 
L 136.351736 193.021544 
L 136.986446 192.937068 
L 163.009587 192.937068 
L 163.326942 191.396898 
L 167.135207 191.396898 
L 167.452562 191.115424 
L 167.769917 191.115424 
L 168.087273 189.209264 
L 168.404628 189.209264 
L 168.721983 188.700474 
L 169.356694 188.700474 
L 169.67405 188.372144 
L 169.991405 187.585735 
L 171.578182 187.585735 
L 172.212893 187.031262 
L 172.530248 187.031262 
L 172.847603 186.796028 
L 180.146777 186.796028 
L 180.464132 186.391131 
L 180.781488 186.391131 
L 181.098843 185.993973 
L 182.68562 185.993973 
L 183.320331 182.289127 
L 185.541818 182.25617 
L 185.859174 182.040919 
L 186.493884 182.040919 
L 186.81124 181.715787 
L 187.128595 180.901027 
L 187.44595 180.901027 
L 187.763306 180.349198 
L 188.080661 180.349198 
L 188.398017 178.045461 
L 188.715372 174.759987 
L 283.604628 174.759987 
L 284.239339 169.170775 
L 284.556694 169.170775 
L 284.87405 168.618947 
L 285.191405 168.618947 
L 285.50876 167.804187 
L 285.826116 167.479055 
L 286.460826 167.479055 
L 286.778182 167.263803 
L 288.999669 167.230847 
L 289.63438 163.526001 
L 291.221157 163.526001 
L 291.538512 163.128843 
L 291.855868 163.128843 
L 292.173223 162.723946 
L 299.472397 162.723946 
L 299.789752 162.488712 
L 300.107107 162.488712 
L 300.741818 161.934238 
L 302.328595 161.934238 
L 302.64595 161.14783 
L 302.963306 160.819499 
L 303.598017 160.819499 
L 303.915372 160.31071 
L 304.232727 160.31071 
L 304.550083 158.40455 
L 304.867438 158.40455 
L 305.184793 158.123076 
L 308.993058 158.123076 
L 309.310413 156.582906 
L 335.968264 156.498429 
L 336.602975 155.963271 
L 336.920331 154.479302 
L 338.507107 154.479302 
L 338.824463 154.114915 
L 339.141818 154.114915 
L 339.459174 152.374761 
L 340.093884 152.374761 
L 340.41124 152.16824 
L 340.728595 152.16824 
L 341.04595 151.264296 
L 341.680661 151.198037 
L 341.998017 151.198037 
L 342.315372 150.795791 
L 342.632727 150.15877 
L 342.950083 149.053766 
L 361.991405 149.053686 
L 362.30876 147.109166 
L 362.626116 147.109166 
L 362.943471 145.34892 
L 364.530248 145.34892 
L 364.847603 144.546865 
L 365.164959 144.546865 
L 365.799669 144.202711 
L 366.117025 140.719622 
L 367.069091 140.641841 
L 367.386446 139.09849 
L 368.021157 139.09849 
L 368.655868 138.405825 
L 370.242645 138.405825 
L 370.56 137.280413 
L 372.146777 137.280413 
L 372.464132 137.023586 
L 372.781488 137.023586 
L 373.098843 135.937834 
L 380.398017 135.937834 
L 380.715372 134.115692 
L 381.032727 133.407282 
L 381.350083 133.407282 
L 381.667438 132.047364 
L 382.302149 132.047364 
L 382.619504 130.876685 
L 384.206281 130.876685 
L 384.840992 129.375375 
L 385.158347 126.72874 
L 385.475702 126.171604 
L 389.918678 126.113834 
L 390.236033 125.096324 
L 391.188099 125.066763 
L 391.505455 123.347545 
L 391.82281 119.695137 
L 392.140165 119.695137 
L 392.457521 118.95643 
L 392.774876 117.760753 
L 393.092231 117.760753 
L 393.409587 114.457747 
L 394.996364 114.457747 
L 395.313719 113.551827 
L 395.631074 113.551827 
L 395.94843 113.192622 
L 396.265785 107.337878 
L 396.58314 103.869712 
L 397.217851 103.869712 
L 397.535207 101.944365 
L 397.852562 92.675152 
L 398.169917 92.675152 
L 398.487273 81.831384 
L 398.487273 81.831384 
" clip-path="url(#p6c4e4cb763)" style="fill: none; stroke: #ff7f0e; stroke-width: 1.5; stroke-linecap: square"/>
   </g>
   <g id="patch_3">
    <path d="M 57.6 307.584 
L 57.6 41.472 
" style="fill: none; stroke: #000000; stroke-width: 0.8; stroke-linejoin: miter; stroke-linecap: square"/>
   </g>
   <g id="patch_4">
    <path d="M 414.72 307.584 
L 414.72 41.472 
" style="fill: none; stroke: #000000; stroke-width: 0.8; stroke-linejoin: miter; stroke-linecap: square"/>
   </g>
   <g id="patch_5">
    <path d="M 57.6 307.584 
L 414.72 307.584 
" style="fill: none; stroke: #000000; stroke-width: 0.8; stroke-linejoin: miter; stroke-linecap: square"/>
   </g>
   <g id="patch_6">
    <path d="M 57.6 41.472 
L 414.72 41.472 
" style="fill: none; stroke: #000000; stroke-width: 0.8; stroke-linejoin: miter; stroke-linecap: square"/>
   </g>
   <g id="legend_1">
    <g id="patch_7">
     <path d="M 64.6 78.82825 
L 129.342187 78.82825 
Q 131.342187 78.82825 131.342187 76.82825 
L 131.342187 48.472 
Q 131.342187 46.472 129.342187 46.472 
L 64.6 46.472 
Q 62.6 46.472 62.6 48.472 
L 62.6 76.82825 
Q 62.6 78.82825 64.6 78.82825 
z
" style="fill: #ffffff; opacity: 0.8; stroke: #cccccc; stroke-linejoin: miter"/>
    </g>
    <g id="line2d_16">
     <path d="M 66.6 54.570437 
L 76.6 54.570437 
L 86.6 54.570437 
" style="fill: none; stroke: #1f77b4; stroke-width: 1.5; stroke-linecap: square"/>
    </g>
    <g id="text_16">
     <!-- qc -->
     <g transform="translate(94.6 58.070437) scale(0.1 -0.1)">
      <defs>
       <path id="DejaVuSans-71" d="M 947 1747 
Q 947 1113 1208 752 
Q 1469 391 1925 391 
Q 2381 391 2643 752 
Q 2906 1113 2906 1747 
Q 2906 2381 2643 2742 
Q 2381 3103 1925 3103 
Q 1469 3103 1208 2742 
Q 947 2381 947 1747 
z
M 2906 525 
Q 2725 213 2448 61 
Q 2172 -91 1784 -91 
Q 1150 -91 751 415 
Q 353 922 353 1747 
Q 353 2572 751 3078 
Q 1150 3584 1784 3584 
Q 2172 3584 2448 3432 
Q 2725 3281 2906 2969 
L 2906 3500 
L 3481 3500 
L 3481 -1331 
L 2906 -1331 
L 2906 525 
z
" transform="scale(0.015625)"/>
       <path id="DejaVuSans-63" d="M 3122 3366 
L 3122 2828 
Q 2878 2963 2633 3030 
Q 2388 3097 2138 3097 
Q 1578 3097 1268 2742 
Q 959 2388 959 1747 
Q 959 1106 1268 751 
Q 1578 397 2138 397 
Q 2388 397 2633 464 
Q 2878 531 3122 666 
L 3122 134 
Q 2881 22 2623 -34 
Q 2366 -91 2075 -91 
Q 1284 -91 818 406 
Q 353 903 353 1747 
Q 353 2603 823 3093 
Q 1294 3584 2113 3584 
Q 2378 3584 2631 3529 
Q 2884 3475 3122 3366 
z
" transform="scale(0.015625)"/>
      </defs>
      <use xlink:href="#DejaVuSans-71"/>
      <use xlink:href="#DejaVuSans-63" x="63.476562"/>
     </g>
    </g>
    <g id="line2d_17">
     <path d="M 66.6 69.248562 
L 76.6 69.248562 
L 86.6 69.248562 
" style="fill: none; stroke: #ff7f0e; stroke-width: 1.5; stroke-linecap: square"/>
    </g>
    <g id="text_17">
     <!-- Trotter -->
     <g transform="translate(94.6 72.748562) scale(0.1 -0.1)">
      <defs>
       <path id="DejaVuSans-54" d="M -19 4666 
L 3928 4666 
L 3928 4134 
L 2272 4134 
L 2272 0 
L 1638 0 
L 1638 4134 
L -19 4134 
L -19 4666 
z
" transform="scale(0.015625)"/>
       <path id="DejaVuSans-72" d="M 2631 2963 
Q 2534 3019 2420 3045 
Q 2306 3072 2169 3072 
Q 1681 3072 1420 2755 
Q 1159 2438 1159 1844 
L 1159 0 
L 581 0 
L 581 3500 
L 1159 3500 
L 1159 2956 
Q 1341 3275 1631 3429 
Q 1922 3584 2338 3584 
Q 2397 3584 2469 3576 
Q 2541 3569 2628 3553 
L 2631 2963 
z
" transform="scale(0.015625)"/>
       <path id="DejaVuSans-6f" d="M 1959 3097 
Q 1497 3097 1228 2736 
Q 959 2375 959 1747 
Q 959 1119 1226 758 
Q 1494 397 1959 397 
Q 2419 397 2687 759 
Q 2956 1122 2956 1747 
Q 2956 2369 2687 2733 
Q 2419 3097 1959 3097 
z
M 1959 3584 
Q 2709 3584 3137 3096 
Q 3566 2609 3566 1747 
Q 3566 888 3137 398 
Q 2709 -91 1959 -91 
Q 1206 -91 779 398 
Q 353 888 353 1747 
Q 353 2609 779 3096 
Q 1206 3584 1959 3584 
z
" transform="scale(0.015625)"/>
       <path id="DejaVuSans-65" d="M 3597 1894 
L 3597 1613 
L 953 1613 
Q 991 1019 1311 708 
Q 1631 397 2203 397 
Q 2534 397 2845 478 
Q 3156 559 3463 722 
L 3463 178 
Q 3153 47 2828 -22 
Q 2503 -91 2169 -91 
Q 1331 -91 842 396 
Q 353 884 353 1716 
Q 353 2575 817 3079 
Q 1281 3584 2069 3584 
Q 2775 3584 3186 3129 
Q 3597 2675 3597 1894 
z
M 3022 2063 
Q 3016 2534 2758 2815 
Q 2500 3097 2075 3097 
Q 1594 3097 1305 2825 
Q 1016 2553 972 2059 
L 3022 2063 
z
" transform="scale(0.015625)"/>
      </defs>
      <use xlink:href="#DejaVuSans-54"/>
      <use xlink:href="#DejaVuSans-72" x="46.333984"/>
      <use xlink:href="#DejaVuSans-6f" x="85.197266"/>
      <use xlink:href="#DejaVuSans-74" x="146.378906"/>
      <use xlink:href="#DejaVuSans-74" x="185.587891"/>
      <use xlink:href="#DejaVuSans-65" x="224.796875"/>
      <use xlink:href="#DejaVuSans-72" x="286.320312"/>
     </g>
    </g>
   </g>
  </g>
 </g>
 <defs>
  <clipPath id="p6c4e4cb763">
   <rect x="57.6" y="41.472" width="357.12" height="266.112"/>
  </clipPath>
 </defs>
</svg>
