<?xml version="1.0" encoding="utf-8" standalone="no"?>
<!DOCTYPE svg PUBLIC "-//W3C//DTD SVG 1.1//EN"
  "http://www.w3.org/Graphics/SVG/1.1/DTD/svg11.dtd">
<svg xmlns:xlink="http://www.w3.org/1999/xlink" width="460.8pt" height="345.6pt" viewBox="0 0 460.8 345.6" xmlns="http://www.w3.org/2000/svg" version="1.1">
 <metadata>
  <rdf:RDF xmlns:dc="http://purl.org/dc/elements/1.1/" xmlns:cc="http://creativecommons.org/ns#" xmlns:rdf="http://www.w3.org/1999/02/22-rdf-syntax-ns#">
   <cc:Work>
    <dc:type rdf:resource="http://purl.org/dc/dcmitype/StillImage"/>
    <dc:date>2024-07-12T20:07:28.774470</dc:date>
    <dc:format>image/svg+xml</dc:format>
    <dc:creator>
     <cc:Agent>
      <dc:title>Matplotlib v3.7.1, https://matplotlib.org/</dc:title>
     </cc:Agent>
    </dc:creator>
   </cc:Work>
  </rdf:RDF>
 </metadata>
 <defs>
  <style type="text/css">*{stroke-linejoin: round; stroke-linecap: butt}</style>
 </defs>
 <g id="figure_1">
  <g id="patch_1">
   <path d="M 0 345.6 
L 460.8 345.6 
L 460.8 0 
L 0 0 
z
" style="fill: #ffffff"/>
  </g>
  <g id="axes_1">
   <g id="patch_2">
    <path d="M 57.6 307.584 
L 414.72 307.584 
L 414.72 41.472 
L 57.6 41.472 
z
" style="fill: #ffffff"/>
   </g>
   <g id="matplotlib.axis_1">
    <g id="xtick_1">
     <g id="line2d_1">
      <defs>
       <path id="m6af49cd02b" d="M 0 0 
L 0 3.5 
" style="stroke: #000000; stroke-width: 0.8"/>
      </defs>
      <g>
       <use xlink:href="#m6af49cd02b" x="73.832727" y="307.584" style="stroke: #000000; stroke-width: 0.8"/>
      </g>
     </g>
     <g id="text_1">
      <!-- 0 -->
      <g transform="translate(70.651477 322.182437) scale(0.1 -0.1)">
       <defs>
        <path id="DejaVuSans-30" d="M 2034 4250 
Q 1547 4250 1301 3770 
Q 1056 3291 1056 2328 
Q 1056 1369 1301 889 
Q 1547 409 2034 409 
Q 2525 409 2770 889 
Q 3016 1369 3016 2328 
Q 3016 3291 2770 3770 
Q 2525 4250 2034 4250 
z
M 2034 4750 
Q 2819 4750 3233 4129 
Q 3647 3509 3647 2328 
Q 3647 1150 3233 529 
Q 2819 -91 2034 -91 
Q 1250 -91 836 529 
Q 422 1150 422 2328 
Q 422 3509 836 4129 
Q 1250 4750 2034 4750 
z
" transform="scale(0.015625)"/>
       </defs>
       <use xlink:href="#DejaVuSans-30"/>
      </g>
     </g>
    </g>
    <g id="xtick_2">
     <g id="line2d_2">
      <g>
       <use xlink:href="#m6af49cd02b" x="137.303802" y="307.584" style="stroke: #000000; stroke-width: 0.8"/>
      </g>
     </g>
     <g id="text_2">
      <!-- 200 -->
      <g transform="translate(127.760052 322.182437) scale(0.1 -0.1)">
       <defs>
        <path id="DejaVuSans-32" d="M 1228 531 
L 3431 531 
L 3431 0 
L 469 0 
L 469 531 
Q 828 903 1448 1529 
Q 2069 2156 2228 2338 
Q 2531 2678 2651 2914 
Q 2772 3150 2772 3378 
Q 2772 3750 2511 3984 
Q 2250 4219 1831 4219 
Q 1534 4219 1204 4116 
Q 875 4013 500 3803 
L 500 4441 
Q 881 4594 1212 4672 
Q 1544 4750 1819 4750 
Q 2544 4750 2975 4387 
Q 3406 4025 3406 3419 
Q 3406 3131 3298 2873 
Q 3191 2616 2906 2266 
Q 2828 2175 2409 1742 
Q 1991 1309 1228 531 
z
" transform="scale(0.015625)"/>
       </defs>
       <use xlink:href="#DejaVuSans-32"/>
       <use xlink:href="#DejaVuSans-30" x="63.623047"/>
       <use xlink:href="#DejaVuSans-30" x="127.246094"/>
      </g>
     </g>
    </g>
    <g id="xtick_3">
     <g id="line2d_3">
      <g>
       <use xlink:href="#m6af49cd02b" x="200.774876" y="307.584" style="stroke: #000000; stroke-width: 0.8"/>
      </g>
     </g>
     <g id="text_3">
      <!-- 400 -->
      <g transform="translate(191.231126 322.182437) scale(0.1 -0.1)">
       <defs>
        <path id="DejaVuSans-34" d="M 2419 4116 
L 825 1625 
L 2419 1625 
L 2419 4116 
z
M 2253 4666 
L 3047 4666 
L 3047 1625 
L 3713 1625 
L 3713 1100 
L 3047 1100 
L 3047 0 
L 2419 0 
L 2419 1100 
L 313 1100 
L 313 1709 
L 2253 4666 
z
" transform="scale(0.015625)"/>
       </defs>
       <use xlink:href="#DejaVuSans-34"/>
       <use xlink:href="#DejaVuSans-30" x="63.623047"/>
       <use xlink:href="#DejaVuSans-30" x="127.246094"/>
      </g>
     </g>
    </g>
    <g id="xtick_4">
     <g id="line2d_4">
      <g>
       <use xlink:href="#m6af49cd02b" x="264.24595" y="307.584" style="stroke: #000000; stroke-width: 0.8"/>
      </g>
     </g>
     <g id="text_4">
      <!-- 600 -->
      <g transform="translate(254.7022 322.182437) scale(0.1 -0.1)">
       <defs>
        <path id="DejaVuSans-36" d="M 2113 2584 
Q 1688 2584 1439 2293 
Q 1191 2003 1191 1497 
Q 1191 994 1439 701 
Q 1688 409 2113 409 
Q 2538 409 2786 701 
Q 3034 994 3034 1497 
Q 3034 2003 2786 2293 
Q 2538 2584 2113 2584 
z
M 3366 4563 
L 3366 3988 
Q 3128 4100 2886 4159 
Q 2644 4219 2406 4219 
Q 1781 4219 1451 3797 
Q 1122 3375 1075 2522 
Q 1259 2794 1537 2939 
Q 1816 3084 2150 3084 
Q 2853 3084 3261 2657 
Q 3669 2231 3669 1497 
Q 3669 778 3244 343 
Q 2819 -91 2113 -91 
Q 1303 -91 875 529 
Q 447 1150 447 2328 
Q 447 3434 972 4092 
Q 1497 4750 2381 4750 
Q 2619 4750 2861 4703 
Q 3103 4656 3366 4563 
z
" transform="scale(0.015625)"/>
       </defs>
       <use xlink:href="#DejaVuSans-36"/>
       <use xlink:href="#DejaVuSans-30" x="63.623047"/>
       <use xlink:href="#DejaVuSans-30" x="127.246094"/>
      </g>
     </g>
    </g>
    <g id="xtick_5">
     <g id="line2d_5">
      <g>
       <use xlink:href="#m6af49cd02b" x="327.717025" y="307.584" style="stroke: #000000; stroke-width: 0.8"/>
      </g>
     </g>
     <g id="text_5">
      <!-- 800 -->
      <g transform="translate(318.173275 322.182437) scale(0.1 -0.1)">
       <defs>
        <path id="DejaVuSans-38" d="M 2034 2216 
Q 1584 2216 1326 1975 
Q 1069 1734 1069 1313 
Q 1069 891 1326 650 
Q 1584 409 2034 409 
Q 2484 409 2743 651 
Q 3003 894 3003 1313 
Q 3003 1734 2745 1975 
Q 2488 2216 2034 2216 
z
M 1403 2484 
Q 997 2584 770 2862 
Q 544 3141 544 3541 
Q 544 4100 942 4425 
Q 1341 4750 2034 4750 
Q 2731 4750 3128 4425 
Q 3525 4100 3525 3541 
Q 3525 3141 3298 2862 
Q 3072 2584 2669 2484 
Q 3125 2378 3379 2068 
Q 3634 1759 3634 1313 
Q 3634 634 3220 271 
Q 2806 -91 2034 -91 
Q 1263 -91 848 271 
Q 434 634 434 1313 
Q 434 1759 690 2068 
Q 947 2378 1403 2484 
z
M 1172 3481 
Q 1172 3119 1398 2916 
Q 1625 2713 2034 2713 
Q 2441 2713 2670 2916 
Q 2900 3119 2900 3481 
Q 2900 3844 2670 4047 
Q 2441 4250 2034 4250 
Q 1625 4250 1398 4047 
Q 1172 3844 1172 3481 
z
" transform="scale(0.015625)"/>
       </defs>
       <use xlink:href="#DejaVuSans-38"/>
       <use xlink:href="#DejaVuSans-30" x="63.623047"/>
       <use xlink:href="#DejaVuSans-30" x="127.246094"/>
      </g>
     </g>
    </g>
    <g id="xtick_6">
     <g id="line2d_6">
      <g>
       <use xlink:href="#m6af49cd02b" x="391.188099" y="307.584" style="stroke: #000000; stroke-width: 0.8"/>
      </g>
     </g>
     <g id="text_6">
      <!-- 1000 -->
      <g transform="translate(378.463099 322.182437) scale(0.1 -0.1)">
       <defs>
        <path id="DejaVuSans-31" d="M 794 531 
L 1825 531 
L 1825 4091 
L 703 3866 
L 703 4441 
L 1819 4666 
L 2450 4666 
L 2450 531 
L 3481 531 
L 3481 0 
L 794 0 
L 794 531 
z
" transform="scale(0.015625)"/>
       </defs>
       <use xlink:href="#DejaVuSans-31"/>
       <use xlink:href="#DejaVuSans-30" x="63.623047"/>
       <use xlink:href="#DejaVuSans-30" x="127.246094"/>
       <use xlink:href="#DejaVuSans-30" x="190.869141"/>
      </g>
     </g>
    </g>
    <g id="text_7">
     <!-- n -->
     <g transform="translate(232.99125 335.860562) scale(0.1 -0.1)">
      <defs>
       <path id="DejaVuSans-6e" d="M 3513 2113 
L 3513 0 
L 2938 0 
L 2938 2094 
Q 2938 2591 2744 2837 
Q 2550 3084 2163 3084 
Q 1697 3084 1428 2787 
Q 1159 2491 1159 1978 
L 1159 0 
L 581 0 
L 581 3500 
L 1159 3500 
L 1159 2956 
Q 1366 3272 1645 3428 
Q 1925 3584 2291 3584 
Q 2894 3584 3203 3211 
Q 3513 2838 3513 2113 
z
" transform="scale(0.015625)"/>
      </defs>
      <use xlink:href="#DejaVuSans-6e"/>
     </g>
    </g>
   </g>
   <g id="matplotlib.axis_2">
    <g id="ytick_1">
     <g id="line2d_7">
      <defs>
       <path id="m8dcd55dc13" d="M 0 0 
L -3.5 0 
" style="stroke: #000000; stroke-width: 0.8"/>
      </defs>
      <g>
       <use xlink:href="#m8dcd55dc13" x="57.6" y="288.761581" style="stroke: #000000; stroke-width: 0.8"/>
      </g>
     </g>
     <g id="text_8">
      <!-- −1.0 -->
      <g transform="translate(26.317187 292.5608) scale(0.1 -0.1)">
       <defs>
        <path id="DejaVuSans-2212" d="M 678 2272 
L 4684 2272 
L 4684 1741 
L 678 1741 
L 678 2272 
z
" transform="scale(0.015625)"/>
        <path id="DejaVuSans-2e" d="M 684 794 
L 1344 794 
L 1344 0 
L 684 0 
L 684 794 
z
" transform="scale(0.015625)"/>
       </defs>
       <use xlink:href="#DejaVuSans-2212"/>
       <use xlink:href="#DejaVuSans-31" x="83.789062"/>
       <use xlink:href="#DejaVuSans-2e" x="147.412109"/>
       <use xlink:href="#DejaVuSans-30" x="179.199219"/>
      </g>
     </g>
    </g>
    <g id="ytick_2">
     <g id="line2d_8">
      <g>
       <use xlink:href="#m8dcd55dc13" x="57.6" y="230.616764" style="stroke: #000000; stroke-width: 0.8"/>
      </g>
     </g>
     <g id="text_9">
      <!-- −0.5 -->
      <g transform="translate(26.317187 234.415982) scale(0.1 -0.1)">
       <defs>
        <path id="DejaVuSans-35" d="M 691 4666 
L 3169 4666 
L 3169 4134 
L 1269 4134 
L 1269 2991 
Q 1406 3038 1543 3061 
Q 1681 3084 1819 3084 
Q 2600 3084 3056 2656 
Q 3513 2228 3513 1497 
Q 3513 744 3044 326 
Q 2575 -91 1722 -91 
Q 1428 -91 1123 -41 
Q 819 9 494 109 
L 494 744 
Q 775 591 1075 516 
Q 1375 441 1709 441 
Q 2250 441 2565 725 
Q 2881 1009 2881 1497 
Q 2881 1984 2565 2268 
Q 2250 2553 1709 2553 
Q 1456 2553 1204 2497 
Q 953 2441 691 2322 
L 691 4666 
z
" transform="scale(0.015625)"/>
       </defs>
       <use xlink:href="#DejaVuSans-2212"/>
       <use xlink:href="#DejaVuSans-30" x="83.789062"/>
       <use xlink:href="#DejaVuSans-2e" x="147.412109"/>
       <use xlink:href="#DejaVuSans-35" x="179.199219"/>
      </g>
     </g>
    </g>
    <g id="ytick_3">
     <g id="line2d_9">
      <g>
       <use xlink:href="#m8dcd55dc13" x="57.6" y="172.471946" style="stroke: #000000; stroke-width: 0.8"/>
      </g>
     </g>
     <g id="text_10">
      <!-- 0.0 -->
      <g transform="translate(34.696875 176.271165) scale(0.1 -0.1)">
       <use xlink:href="#DejaVuSans-30"/>
       <use xlink:href="#DejaVuSans-2e" x="63.623047"/>
       <use xlink:href="#DejaVuSans-30" x="95.410156"/>
      </g>
     </g>
    </g>
    <g id="ytick_4">
     <g id="line2d_10">
      <g>
       <use xlink:href="#m8dcd55dc13" x="57.6" y="114.327129" style="stroke: #000000; stroke-width: 0.8"/>
      </g>
     </g>
     <g id="text_11">
      <!-- 0.5 -->
      <g transform="translate(34.696875 118.126348) scale(0.1 -0.1)">
       <use xlink:href="#DejaVuSans-30"/>
       <use xlink:href="#DejaVuSans-2e" x="63.623047"/>
       <use xlink:href="#DejaVuSans-35" x="95.410156"/>
      </g>
     </g>
    </g>
    <g id="ytick_5">
     <g id="line2d_11">
      <g>
       <use xlink:href="#m8dcd55dc13" x="57.6" y="56.182311" style="stroke: #000000; stroke-width: 0.8"/>
      </g>
     </g>
     <g id="text_12">
      <!-- 1.0 -->
      <g transform="translate(34.696875 59.98153) scale(0.1 -0.1)">
       <use xlink:href="#DejaVuSans-31"/>
       <use xlink:href="#DejaVuSans-2e" x="63.623047"/>
       <use xlink:href="#DejaVuSans-30" x="95.410156"/>
      </g>
     </g>
    </g>
    <g id="text_13">
     <!-- E*t -->
     <g transform="translate(20.2375 182.147531) rotate(-90) scale(0.1 -0.1)">
      <defs>
       <path id="DejaVuSans-45" d="M 628 4666 
L 3578 4666 
L 3578 4134 
L 1259 4134 
L 1259 2753 
L 3481 2753 
L 3481 2222 
L 1259 2222 
L 1259 531 
L 3634 531 
L 3634 0 
L 628 0 
L 628 4666 
z
" transform="scale(0.015625)"/>
       <path id="DejaVuSans-2a" d="M 3009 3897 
L 1888 3291 
L 3009 2681 
L 2828 2375 
L 1778 3009 
L 1778 1831 
L 1422 1831 
L 1422 3009 
L 372 2375 
L 191 2681 
L 1313 3291 
L 191 3897 
L 372 4206 
L 1422 3572 
L 1422 4750 
L 1778 4750 
L 1778 3572 
L 2828 4206 
L 3009 3897 
z
" transform="scale(0.015625)"/>
       <path id="DejaVuSans-74" d="M 1172 4494 
L 1172 3500 
L 2356 3500 
L 2356 3053 
L 1172 3053 
L 1172 1153 
Q 1172 725 1289 603 
Q 1406 481 1766 481 
L 2356 481 
L 2356 0 
L 1766 0 
Q 1100 0 847 248 
Q 594 497 594 1153 
L 594 3053 
L 172 3053 
L 172 3500 
L 594 3500 
L 594 4494 
L 1172 4494 
z
" transform="scale(0.015625)"/>
      </defs>
      <use xlink:href="#DejaVuSans-45"/>
      <use xlink:href="#DejaVuSans-2a" x="63.183594"/>
      <use xlink:href="#DejaVuSans-74" x="113.183594"/>
     </g>
    </g>
   </g>
   <g id="line2d_12">
    <path d="M 73.832727 295.488 
L 74.150083 282.288968 
L 74.467438 281.239287 
L 74.784793 270.191709 
L 75.102149 267.583738 
L 75.419504 266.544173 
L 75.73686 266.393765 
L 76.054215 263.60859 
L 76.37157 256.486983 
L 76.688926 255.995106 
L 77.323636 253.981363 
L 77.640992 253.501057 
L 77.958347 253.433033 
L 78.593058 252.663939 
L 78.910413 251.171825 
L 79.227769 250.794298 
L 79.545124 250.154772 
L 79.862479 248.465367 
L 80.179835 247.854286 
L 80.49719 246.669968 
L 81.131901 242.336214 
L 81.766612 240.856311 
L 82.083967 240.700068 
L 82.718678 239.759192 
L 83.353388 239.254417 
L 83.670744 239.102401 
L 83.988099 238.800844 
L 84.305455 238.073483 
L 84.62281 238.049894 
L 85.892231 237.230224 
L 86.209587 237.127004 
L 86.526942 236.883187 
L 86.844298 236.191701 
L 87.161653 235.993164 
L 87.479008 234.600062 
L 87.796364 234.432615 
L 88.113719 234.063817 
L 88.431074 233.988607 
L 89.38314 233.284092 
L 89.700496 232.711678 
L 90.017851 231.627546 
L 90.335207 231.312112 
L 90.652562 230.591039 
L 90.969917 230.583342 
L 91.604628 229.790933 
L 92.556694 229.382036 
L 92.87405 227.984148 
L 93.191405 227.262667 
L 93.50876 227.150032 
L 93.826116 226.516263 
L 94.143471 226.500464 
L 94.460826 226.172645 
L 95.095537 226.042404 
L 96.047603 225.508857 
L 96.999669 225.266703 
L 97.951736 224.757047 
L 98.586446 224.550168 
L 98.903802 224.365276 
L 99.221157 224.349515 
L 99.855868 224.048595 
L 100.807934 223.888334 
L 101.125289 223.673497 
L 101.76 223.488977 
L 102.712066 223.168681 
L 103.029421 223.033986 
L 103.664132 222.099102 
L 104.298843 221.786316 
L 104.616198 221.274722 
L 104.933554 221.00965 
L 105.250909 220.441916 
L 105.568264 220.132009 
L 105.88562 219.177525 
L 106.837686 217.308088 
L 107.472397 215.331374 
L 108.741818 214.204317 
L 109.059174 214.145121 
L 110.328595 213.43015 
L 110.64595 213.415565 
L 110.963306 213.268468 
L 111.280661 212.58473 
L 111.915372 212.485456 
L 112.232727 212.225519 
L 112.550083 212.151002 
L 115.088926 210.696288 
L 116.358347 210.387929 
L 116.993058 210.205569 
L 118.89719 209.453641 
L 120.801322 209.123874 
L 123.657521 208.47093 
L 123.974876 208.032051 
L 124.926942 207.71054 
L 125.561653 207.596541 
L 127.14843 207.037977 
L 127.78314 206.797462 
L 128.417851 206.558861 
L 128.735207 206.519354 
L 129.052562 206.344248 
L 129.369917 206.011175 
L 130.639339 205.650133 
L 131.27405 205.179042 
L 131.591405 205.093642 
L 131.90876 204.809723 
L 132.226116 204.804177 
L 132.543471 204.679815 
L 132.860826 204.324537 
L 133.812893 204.125318 
L 134.447603 203.871121 
L 135.082314 203.783518 
L 135.717025 203.33344 
L 136.03438 203.277177 
L 136.351736 202.873884 
L 138.255868 202.474389 
L 138.573223 202.30531 
L 138.890579 202.273748 
L 139.525289 202.091008 
L 140.16 201.88386 
L 140.794711 201.779592 
L 145.555041 200.570146 
L 145.872397 200.550921 
L 146.507107 200.299803 
L 147.141818 200.142179 
L 147.776529 200.036388 
L 148.728595 199.859383 
L 149.680661 199.626836 
L 151.584793 199.290302 
L 153.806281 198.883205 
L 154.758347 198.57645 
L 155.710413 198.403146 
L 156.027769 198.378841 
L 156.662479 198.175822 
L 157.29719 198.026523 
L 158.249256 197.84998 
L 159.518678 197.709259 
L 159.836033 197.366742 
L 161.105455 197.137392 
L 162.057521 196.806174 
L 163.326942 196.581544 
L 164.596364 196.291458 
L 165.54843 196.182473 
L 168.404628 195.214558 
L 170.626116 193.680469 
L 171.895537 193.287025 
L 172.212893 193.080106 
L 173.482314 192.705639 
L 173.799669 192.504198 
L 174.43438 192.359548 
L 174.751736 192.074327 
L 175.069091 192.032034 
L 175.386446 191.827864 
L 176.021157 191.726461 
L 176.338512 191.305742 
L 177.290579 190.731421 
L 178.242645 190.519615 
L 180.781488 189.676215 
L 181.098843 189.255348 
L 181.733554 188.96541 
L 182.050909 188.789773 
L 182.368264 188.169255 
L 183.002975 188.031455 
L 183.320331 187.683184 
L 183.637686 187.604078 
L 184.272397 187.105522 
L 184.589752 186.945711 
L 184.907107 186.635075 
L 185.224463 186.603096 
L 185.541818 186.314826 
L 186.176529 186.227047 
L 186.493884 185.487367 
L 186.81124 185.050606 
L 187.128595 185.002894 
L 188.715372 183.925118 
L 189.032727 183.432407 
L 189.350083 183.330185 
L 189.667438 183.07771 
L 190.302149 182.397456 
L 191.888926 181.812093 
L 192.523636 181.699613 
L 194.110413 180.93034 
L 194.745124 180.736302 
L 199.505455 179.866677 
L 202.996364 179.271456 
L 203.94843 179.084357 
L 205.535207 178.886368 
L 219.181488 177.40865 
L 223.307107 177.11362 
L 227.750083 176.753162 
L 231.240992 176.470687 
L 235.366612 176.083045 
L 240.444298 175.651072 
L 242.98314 175.427075 
L 245.839339 175.214643 
L 248.060826 174.994433 
L 249.012893 174.883533 
L 251.551736 174.643836 
L 256.946777 174.05829 
L 260.437686 173.681148 
L 270.910413 172.24486 
L 272.49719 171.895674 
L 273.131901 171.695461 
L 276.62281 170.834681 
L 277.257521 170.698777 
L 279.479008 170.055408 
L 280.113719 169.822448 
L 282.017851 169.393048 
L 283.921983 168.522317 
L 284.239339 168.471805 
L 284.556694 168.117757 
L 284.87405 167.982982 
L 285.191405 167.718598 
L 288.047603 166.813376 
L 288.999669 165.640343 
L 289.317025 165.579521 
L 289.951736 164.402339 
L 290.586446 164.073568 
L 291.221157 162.81238 
L 291.538512 162.770531 
L 292.173223 162.309197 
L 292.807934 162.136629 
L 295.981488 160.861733 
L 296.616198 160.544432 
L 297.568264 160.26325 
L 297.88562 159.97136 
L 300.424463 159.397142 
L 300.741818 159.311795 
L 301.059174 159.045575 
L 301.693884 158.892175 
L 302.64595 158.682039 
L 303.598017 157.8656 
L 303.915372 157.792404 
L 304.232727 157.581689 
L 304.867438 157.330355 
L 306.77157 156.662966 
L 307.723636 156.323008 
L 308.358347 156.254 
L 312.801322 154.869139 
L 313.753388 154.629075 
L 314.705455 154.376763 
L 315.02281 154.181879 
L 318.831074 153.498655 
L 320.100496 153.305059 
L 320.735207 153.158694 
L 323.591405 152.713081 
L 326.447603 152.144437 
L 327.399669 151.822418 
L 329.621157 151.423818 
L 330.255868 151.101428 
L 332.16 150.692402 
L 332.794711 150.42931 
L 333.746777 150.299541 
L 334.064132 150.223589 
L 334.381488 149.983764 
L 335.650909 149.808601 
L 336.920331 149.469222 
L 337.237686 149.14615 
L 338.507107 148.621012 
L 339.459174 147.87434 
L 340.728595 147.54285 
L 341.363306 147.466779 
L 341.680661 147.239275 
L 342.632727 147.08045 
L 343.267438 146.698809 
L 343.584793 146.448793 
L 343.902149 146.03726 
L 344.53686 145.959996 
L 345.488926 145.484699 
L 345.806281 145.363674 
L 346.123636 145.108881 
L 347.075702 144.905468 
L 347.393058 144.74111 
L 348.027769 144.630135 
L 348.345124 144.326786 
L 349.29719 144.114648 
L 349.931901 143.579388 
L 350.883967 143.460343 
L 355.644298 142.214437 
L 356.279008 141.933017 
L 357.54843 141.396203 
L 358.817851 141.142984 
L 359.769917 140.79685 
L 360.087273 140.776309 
L 361.67405 139.96724 
L 361.991405 139.248859 
L 362.30876 139.082001 
L 362.626116 138.558093 
L 363.578182 138.20224 
L 365.164959 137.094932 
L 365.482314 137.064298 
L 365.799669 136.502373 
L 366.117025 134.535989 
L 366.751736 133.622105 
L 367.069091 133.225156 
L 367.386446 131.914048 
L 367.703802 131.656918 
L 368.021157 131.179945 
L 368.338512 131.011522 
L 368.655868 131.004721 
L 369.290579 130.80011 
L 369.925289 130.248487 
L 370.877355 130.029639 
L 371.194711 129.625789 
L 371.512066 128.944728 
L 373.733554 127.974166 
L 374.050909 127.789306 
L 374.368264 127.770291 
L 374.68562 127.429566 
L 375.002975 127.26852 
L 375.320331 127.234177 
L 375.637686 126.53415 
L 375.955041 126.361289 
L 376.272397 126.344118 
L 376.589752 125.96025 
L 377.224463 125.674993 
L 377.541818 125.30526 
L 379.44595 124.624168 
L 379.763306 124.586857 
L 380.715372 123.728752 
L 381.032727 122.164633 
L 381.350083 122.134486 
L 381.667438 121.663722 
L 381.984793 121.583703 
L 382.302149 121.208185 
L 382.619504 121.013416 
L 383.57157 120.755154 
L 383.888926 120.42118 
L 384.840992 119.079318 
L 385.475702 117.072846 
L 385.793058 115.381156 
L 386.110413 114.987818 
L 386.427769 114.904946 
L 387.69719 113.613025 
L 388.331901 113.413068 
L 389.283967 112.644962 
L 390.236033 112.282223 
L 390.553388 111.778047 
L 390.870744 111.040445 
L 391.188099 110.61772 
L 391.505455 109.776717 
L 391.82281 106.586123 
L 392.140165 106.452596 
L 392.457521 106.018438 
L 392.774876 104.63094 
L 393.092231 102.646902 
L 393.409587 101.844524 
L 393.726942 99.261296 
L 395.94843 97.923388 
L 396.265785 90.609979 
L 396.58314 86.24837 
L 396.900496 85.110882 
L 397.217851 84.991147 
L 397.535207 83.775889 
L 397.852562 71.93632 
L 398.169917 71.705129 
L 398.487273 57.787636 
L 398.487273 57.787636 
" clip-path="url(#p9d2d08f028)" style="fill: none; stroke: #1f77b4; stroke-width: 1.5; stroke-linecap: square"/>
   </g>
   <g id="line2d_13">
    <path d="M 73.832727 291.375893 
L 74.150083 277.501082 
L 74.467438 277.501082 
L 74.784793 265.640944 
L 75.102149 263.177426 
L 75.73686 263.177426 
L 76.054215 258.73984 
L 76.37157 251.248582 
L 76.688926 250.788971 
L 77.006281 250.788971 
L 77.323636 249.629829 
L 78.910413 249.629829 
L 79.227769 245.40357 
L 79.545124 245.40357 
L 79.862479 243.873678 
L 80.179835 242.928488 
L 80.49719 242.928488 
L 80.814545 238.255161 
L 81.131901 236.055388 
L 82.083967 236.017564 
L 82.401322 234.715641 
L 86.844298 234.641722 
L 87.161653 233.928857 
L 87.479008 230.542436 
L 87.796364 229.793823 
L 88.113719 228.62148 
L 89.700496 228.62148 
L 90.017851 227.123574 
L 90.652562 227.123574 
L 90.969917 225.383533 
L 91.287273 225.383533 
L 91.604628 224.477108 
L 91.921983 222.145643 
L 99.221157 222.145643 
L 99.538512 220.756402 
L 99.855868 220.756402 
L 100.173223 220.427787 
L 101.76 220.427787 
L 102.077355 218.9878 
L 103.664132 218.9878 
L 103.981488 218.662993 
L 104.298843 218.101522 
L 104.933554 218.101522 
L 105.250909 216.126775 
L 106.202975 216.027252 
L 106.520331 211.570572 
L 107.155041 211.130221 
L 107.472397 211.130221 
L 107.789752 210.103976 
L 109.376529 210.103976 
L 109.693884 207.851707 
L 110.01124 207.851707 
L 110.328595 205.363656 
L 129.369917 205.363554 
L 129.687273 203.94968 
L 130.321983 202.619918 
L 131.27405 202.535137 
L 131.591405 201.378523 
L 131.90876 201.378523 
L 132.226116 201.114276 
L 132.860826 201.114276 
L 133.178182 198.887716 
L 133.495537 198.887716 
L 133.812893 198.421476 
L 135.399669 198.421476 
L 135.717025 196.522708 
L 136.03438 196.26667 
L 136.351736 195.837963 
L 136.986446 195.729873 
L 163.009587 195.729873 
L 163.326942 193.759196 
L 167.135207 193.759196 
L 167.452562 193.399045 
L 167.769917 193.399045 
L 168.087273 190.960076 
L 168.404628 190.960076 
L 168.721983 190.30907 
L 169.356694 190.30907 
L 169.67405 189.888965 
L 169.991405 188.88274 
L 171.578182 188.88274 
L 172.212893 188.17328 
L 172.530248 188.17328 
L 172.847603 187.872294 
L 180.146777 187.872294 
L 180.464132 187.35422 
L 180.781488 187.35422 
L 181.098843 186.846049 
L 182.68562 186.846049 
L 183.320331 182.105627 
L 185.541818 182.063458 
L 185.859174 181.78804 
L 186.493884 181.78804 
L 186.81124 181.372027 
L 187.128595 180.329526 
L 187.44595 180.329526 
L 187.763306 179.623451 
L 188.080661 179.623451 
L 188.398017 176.675774 
L 188.715372 172.471946 
L 283.604628 172.471946 
L 284.239339 165.320442 
L 284.556694 165.320442 
L 284.87405 164.614367 
L 285.191405 164.614367 
L 285.50876 163.571866 
L 285.826116 163.155853 
L 286.460826 163.155853 
L 286.778182 162.880434 
L 288.999669 162.838266 
L 289.63438 158.097844 
L 291.221157 158.097844 
L 291.538512 157.589672 
L 291.855868 157.589672 
L 292.173223 157.071599 
L 299.472397 157.071599 
L 299.789752 156.770613 
L 300.107107 156.770613 
L 300.741818 156.061152 
L 302.328595 156.061152 
L 302.64595 155.054928 
L 302.963306 154.634823 
L 303.598017 154.634823 
L 303.915372 153.983817 
L 304.232727 153.983817 
L 304.550083 151.544848 
L 304.867438 151.544848 
L 305.184793 151.184697 
L 308.993058 151.184697 
L 309.310413 149.214019 
L 335.968264 149.10593 
L 336.602975 148.421185 
L 336.920331 146.522417 
L 338.507107 146.522417 
L 338.824463 146.056177 
L 339.141818 146.056177 
L 339.459174 143.829617 
L 340.093884 143.829617 
L 340.41124 143.565369 
L 340.728595 143.565369 
L 341.04595 142.408755 
L 341.680661 142.323975 
L 341.998017 142.323975 
L 342.315372 141.809294 
L 342.632727 140.994213 
L 342.950083 139.580339 
L 361.991405 139.580236 
L 362.30876 137.092186 
L 362.626116 137.092186 
L 362.943471 134.839917 
L 364.530248 134.839917 
L 364.847603 133.813672 
L 365.164959 133.813672 
L 365.799669 133.37332 
L 366.117025 128.916641 
L 367.069091 128.817118 
L 367.386446 126.842371 
L 368.021157 126.842371 
L 368.338512 126.2809 
L 368.655868 125.956092 
L 370.242645 125.956092 
L 370.56 124.516106 
L 372.146777 124.516106 
L 372.464132 124.18749 
L 372.781488 124.18749 
L 373.098843 122.79825 
L 380.398017 122.79825 
L 380.715372 120.466784 
L 381.032727 119.56036 
L 381.350083 119.56036 
L 381.667438 117.820318 
L 382.302149 117.820318 
L 382.619504 116.322412 
L 384.206281 116.322412 
L 384.840992 114.401457 
L 385.158347 111.015036 
L 385.475702 110.30217 
L 389.918678 110.228251 
L 390.236033 108.926328 
L 391.188099 108.888505 
L 391.505455 106.688732 
L 391.82281 102.015404 
L 392.140165 102.015404 
L 392.457521 101.070215 
L 392.774876 99.540323 
L 393.092231 99.540323 
L 393.409587 95.314063 
L 394.996364 95.314063 
L 395.313719 94.154921 
L 395.631074 94.154921 
L 395.94843 93.695311 
L 396.265785 86.204052 
L 396.58314 81.766467 
L 397.217851 81.766467 
L 397.535207 79.302948 
L 397.852562 67.442811 
L 398.169917 67.442811 
L 398.487273 53.568 
L 398.487273 53.568 
" clip-path="url(#p9d2d08f028)" style="fill: none; stroke: #ff7f0e; stroke-width: 1.5; stroke-linecap: square"/>
   </g>
   <g id="patch_3">
    <path d="M 57.6 307.584 
L 57.6 41.472 
" style="fill: none; stroke: #000000; stroke-width: 0.8; stroke-linejoin: miter; stroke-linecap: square"/>
   </g>
   <g id="patch_4">
    <path d="M 414.72 307.584 
L 414.72 41.472 
" style="fill: none; stroke: #000000; stroke-width: 0.8; stroke-linejoin: miter; stroke-linecap: square"/>
   </g>
   <g id="patch_5">
    <path d="M 57.6 307.584 
L 414.72 307.584 
" style="fill: none; stroke: #000000; stroke-width: 0.8; stroke-linejoin: miter; stroke-linecap: square"/>
   </g>
   <g id="patch_6">
    <path d="M 57.6 41.472 
L 414.72 41.472 
" style="fill: none; stroke: #000000; stroke-width: 0.8; stroke-linejoin: miter; stroke-linecap: square"/>
   </g>
   <g id="legend_1">
    <g id="patch_7">
     <path d="M 64.6 78.82825 
L 129.342187 78.82825 
Q 131.342187 78.82825 131.342187 76.82825 
L 131.342187 48.472 
Q 131.342187 46.472 129.342187 46.472 
L 64.6 46.472 
Q 62.6 46.472 62.6 48.472 
L 62.6 76.82825 
Q 62.6 78.82825 64.6 78.82825 
z
" style="fill: #ffffff; opacity: 0.8; stroke: #cccccc; stroke-linejoin: miter"/>
    </g>
    <g id="line2d_14">
     <path d="M 66.6 54.570437 
L 76.6 54.570437 
L 86.6 54.570437 
" style="fill: none; stroke: #1f77b4; stroke-width: 1.5; stroke-linecap: square"/>
    </g>
    <g id="text_14">
     <!-- qc -->
     <g transform="translate(94.6 58.070437) scale(0.1 -0.1)">
      <defs>
       <path id="DejaVuSans-71" d="M 947 1747 
Q 947 1113 1208 752 
Q 1469 391 1925 391 
Q 2381 391 2643 752 
Q 2906 1113 2906 1747 
Q 2906 2381 2643 2742 
Q 2381 3103 1925 3103 
Q 1469 3103 1208 2742 
Q 947 2381 947 1747 
z
M 2906 525 
Q 2725 213 2448 61 
Q 2172 -91 1784 -91 
Q 1150 -91 751 415 
Q 353 922 353 1747 
Q 353 2572 751 3078 
Q 1150 3584 1784 3584 
Q 2172 3584 2448 3432 
Q 2725 3281 2906 2969 
L 2906 3500 
L 3481 3500 
L 3481 -1331 
L 2906 -1331 
L 2906 525 
z
" transform="scale(0.015625)"/>
       <path id="DejaVuSans-63" d="M 3122 3366 
L 3122 2828 
Q 2878 2963 2633 3030 
Q 2388 3097 2138 3097 
Q 1578 3097 1268 2742 
Q 959 2388 959 1747 
Q 959 1106 1268 751 
Q 1578 397 2138 397 
Q 2388 397 2633 464 
Q 2878 531 3122 666 
L 3122 134 
Q 2881 22 2623 -34 
Q 2366 -91 2075 -91 
Q 1284 -91 818 406 
Q 353 903 353 1747 
Q 353 2603 823 3093 
Q 1294 3584 2113 3584 
Q 2378 3584 2631 3529 
Q 2884 3475 3122 3366 
z
" transform="scale(0.015625)"/>
      </defs>
      <use xlink:href="#DejaVuSans-71"/>
      <use xlink:href="#DejaVuSans-63" x="63.476562"/>
     </g>
    </g>
    <g id="line2d_15">
     <path d="M 66.6 69.248562 
L 76.6 69.248562 
L 86.6 69.248562 
" style="fill: none; stroke: #ff7f0e; stroke-width: 1.5; stroke-linecap: square"/>
    </g>
    <g id="text_15">
     <!-- Trotter -->
     <g transform="translate(94.6 72.748562) scale(0.1 -0.1)">
      <defs>
       <path id="DejaVuSans-54" d="M -19 4666 
L 3928 4666 
L 3928 4134 
L 2272 4134 
L 2272 0 
L 1638 0 
L 1638 4134 
L -19 4134 
L -19 4666 
z
" transform="scale(0.015625)"/>
       <path id="DejaVuSans-72" d="M 2631 2963 
Q 2534 3019 2420 3045 
Q 2306 3072 2169 3072 
Q 1681 3072 1420 2755 
Q 1159 2438 1159 1844 
L 1159 0 
L 581 0 
L 581 3500 
L 1159 3500 
L 1159 2956 
Q 1341 3275 1631 3429 
Q 1922 3584 2338 3584 
Q 2397 3584 2469 3576 
Q 2541 3569 2628 3553 
L 2631 2963 
z
" transform="scale(0.015625)"/>
       <path id="DejaVuSans-6f" d="M 1959 3097 
Q 1497 3097 1228 2736 
Q 959 2375 959 1747 
Q 959 1119 1226 758 
Q 1494 397 1959 397 
Q 2419 397 2687 759 
Q 2956 1122 2956 1747 
Q 2956 2369 2687 2733 
Q 2419 3097 1959 3097 
z
M 1959 3584 
Q 2709 3584 3137 3096 
Q 3566 2609 3566 1747 
Q 3566 888 3137 398 
Q 2709 -91 1959 -91 
Q 1206 -91 779 398 
Q 353 888 353 1747 
Q 353 2609 779 3096 
Q 1206 3584 1959 3584 
z
" transform="scale(0.015625)"/>
       <path id="DejaVuSans-65" d="M 3597 1894 
L 3597 1613 
L 953 1613 
Q 991 1019 1311 708 
Q 1631 397 2203 397 
Q 2534 397 2845 478 
Q 3156 559 3463 722 
L 3463 178 
Q 3153 47 2828 -22 
Q 2503 -91 2169 -91 
Q 1331 -91 842 396 
Q 353 884 353 1716 
Q 353 2575 817 3079 
Q 1281 3584 2069 3584 
Q 2775 3584 3186 3129 
Q 3597 2675 3597 1894 
z
M 3022 2063 
Q 3016 2534 2758 2815 
Q 2500 3097 2075 3097 
Q 1594 3097 1305 2825 
Q 1016 2553 972 2059 
L 3022 2063 
z
" transform="scale(0.015625)"/>
      </defs>
      <use xlink:href="#DejaVuSans-54"/>
      <use xlink:href="#DejaVuSans-72" x="46.333984"/>
      <use xlink:href="#DejaVuSans-6f" x="85.197266"/>
      <use xlink:href="#DejaVuSans-74" x="146.378906"/>
      <use xlink:href="#DejaVuSans-74" x="185.587891"/>
      <use xlink:href="#DejaVuSans-65" x="224.796875"/>
      <use xlink:href="#DejaVuSans-72" x="286.320312"/>
     </g>
    </g>
   </g>
  </g>
 </g>
 <defs>
  <clipPath id="p9d2d08f028">
   <rect x="57.6" y="41.472" width="357.12" height="266.112"/>
  </clipPath>
 </defs>
</svg>
