<?xml version="1.0" encoding="utf-8" standalone="no"?>
<!DOCTYPE svg PUBLIC "-//W3C//DTD SVG 1.1//EN"
  "http://www.w3.org/Graphics/SVG/1.1/DTD/svg11.dtd">
<svg xmlns:xlink="http://www.w3.org/1999/xlink" width="460.8pt" height="345.6pt" viewBox="0 0 460.8 345.6" xmlns="http://www.w3.org/2000/svg" version="1.1">
 <metadata>
  <rdf:RDF xmlns:dc="http://purl.org/dc/elements/1.1/" xmlns:cc="http://creativecommons.org/ns#" xmlns:rdf="http://www.w3.org/1999/02/22-rdf-syntax-ns#">
   <cc:Work>
    <dc:type rdf:resource="http://purl.org/dc/dcmitype/StillImage"/>
    <dc:date>2024-08-31T17:41:56.387468</dc:date>
    <dc:format>image/svg+xml</dc:format>
    <dc:creator>
     <cc:Agent>
      <dc:title>Matplotlib v3.7.1, https://matplotlib.org/</dc:title>
     </cc:Agent>
    </dc:creator>
   </cc:Work>
  </rdf:RDF>
 </metadata>
 <defs>
  <style type="text/css">*{stroke-linejoin: round; stroke-linecap: butt}</style>
 </defs>
 <g id="figure_1">
  <g id="patch_1">
   <path d="M 0 345.6 
L 460.8 345.6 
L 460.8 0 
L 0 0 
z
" style="fill: #ffffff"/>
  </g>
  <g id="axes_1">
   <g id="patch_2">
    <path d="M 57.6 307.584 
L 414.72 307.584 
L 414.72 41.472 
L 57.6 41.472 
z
" style="fill: #ffffff"/>
   </g>
   <g id="matplotlib.axis_1">
    <g id="xtick_1">
     <g id="line2d_1">
      <defs>
       <path id="m2917fb8a03" d="M 0 0 
L 0 3.5 
" style="stroke: #000000; stroke-width: 0.8"/>
      </defs>
      <g>
       <use xlink:href="#m2917fb8a03" x="73.832727" y="307.584" style="stroke: #000000; stroke-width: 0.8"/>
      </g>
     </g>
     <g id="text_1">
      <!-- 0 -->
      <g transform="translate(70.651477 322.182437) scale(0.1 -0.1)">
       <defs>
        <path id="DejaVuSans-30" d="M 2034 4250 
Q 1547 4250 1301 3770 
Q 1056 3291 1056 2328 
Q 1056 1369 1301 889 
Q 1547 409 2034 409 
Q 2525 409 2770 889 
Q 3016 1369 3016 2328 
Q 3016 3291 2770 3770 
Q 2525 4250 2034 4250 
z
M 2034 4750 
Q 2819 4750 3233 4129 
Q 3647 3509 3647 2328 
Q 3647 1150 3233 529 
Q 2819 -91 2034 -91 
Q 1250 -91 836 529 
Q 422 1150 422 2328 
Q 422 3509 836 4129 
Q 1250 4750 2034 4750 
z
" transform="scale(0.015625)"/>
       </defs>
       <use xlink:href="#DejaVuSans-30"/>
      </g>
     </g>
    </g>
    <g id="xtick_2">
     <g id="line2d_2">
      <g>
       <use xlink:href="#m2917fb8a03" x="137.303802" y="307.584" style="stroke: #000000; stroke-width: 0.8"/>
      </g>
     </g>
     <g id="text_2">
      <!-- 200 -->
      <g transform="translate(127.760052 322.182437) scale(0.1 -0.1)">
       <defs>
        <path id="DejaVuSans-32" d="M 1228 531 
L 3431 531 
L 3431 0 
L 469 0 
L 469 531 
Q 828 903 1448 1529 
Q 2069 2156 2228 2338 
Q 2531 2678 2651 2914 
Q 2772 3150 2772 3378 
Q 2772 3750 2511 3984 
Q 2250 4219 1831 4219 
Q 1534 4219 1204 4116 
Q 875 4013 500 3803 
L 500 4441 
Q 881 4594 1212 4672 
Q 1544 4750 1819 4750 
Q 2544 4750 2975 4387 
Q 3406 4025 3406 3419 
Q 3406 3131 3298 2873 
Q 3191 2616 2906 2266 
Q 2828 2175 2409 1742 
Q 1991 1309 1228 531 
z
" transform="scale(0.015625)"/>
       </defs>
       <use xlink:href="#DejaVuSans-32"/>
       <use xlink:href="#DejaVuSans-30" x="63.623047"/>
       <use xlink:href="#DejaVuSans-30" x="127.246094"/>
      </g>
     </g>
    </g>
    <g id="xtick_3">
     <g id="line2d_3">
      <g>
       <use xlink:href="#m2917fb8a03" x="200.774876" y="307.584" style="stroke: #000000; stroke-width: 0.8"/>
      </g>
     </g>
     <g id="text_3">
      <!-- 400 -->
      <g transform="translate(191.231126 322.182437) scale(0.1 -0.1)">
       <defs>
        <path id="DejaVuSans-34" d="M 2419 4116 
L 825 1625 
L 2419 1625 
L 2419 4116 
z
M 2253 4666 
L 3047 4666 
L 3047 1625 
L 3713 1625 
L 3713 1100 
L 3047 1100 
L 3047 0 
L 2419 0 
L 2419 1100 
L 313 1100 
L 313 1709 
L 2253 4666 
z
" transform="scale(0.015625)"/>
       </defs>
       <use xlink:href="#DejaVuSans-34"/>
       <use xlink:href="#DejaVuSans-30" x="63.623047"/>
       <use xlink:href="#DejaVuSans-30" x="127.246094"/>
      </g>
     </g>
    </g>
    <g id="xtick_4">
     <g id="line2d_4">
      <g>
       <use xlink:href="#m2917fb8a03" x="264.24595" y="307.584" style="stroke: #000000; stroke-width: 0.8"/>
      </g>
     </g>
     <g id="text_4">
      <!-- 600 -->
      <g transform="translate(254.7022 322.182437) scale(0.1 -0.1)">
       <defs>
        <path id="DejaVuSans-36" d="M 2113 2584 
Q 1688 2584 1439 2293 
Q 1191 2003 1191 1497 
Q 1191 994 1439 701 
Q 1688 409 2113 409 
Q 2538 409 2786 701 
Q 3034 994 3034 1497 
Q 3034 2003 2786 2293 
Q 2538 2584 2113 2584 
z
M 3366 4563 
L 3366 3988 
Q 3128 4100 2886 4159 
Q 2644 4219 2406 4219 
Q 1781 4219 1451 3797 
Q 1122 3375 1075 2522 
Q 1259 2794 1537 2939 
Q 1816 3084 2150 3084 
Q 2853 3084 3261 2657 
Q 3669 2231 3669 1497 
Q 3669 778 3244 343 
Q 2819 -91 2113 -91 
Q 1303 -91 875 529 
Q 447 1150 447 2328 
Q 447 3434 972 4092 
Q 1497 4750 2381 4750 
Q 2619 4750 2861 4703 
Q 3103 4656 3366 4563 
z
" transform="scale(0.015625)"/>
       </defs>
       <use xlink:href="#DejaVuSans-36"/>
       <use xlink:href="#DejaVuSans-30" x="63.623047"/>
       <use xlink:href="#DejaVuSans-30" x="127.246094"/>
      </g>
     </g>
    </g>
    <g id="xtick_5">
     <g id="line2d_5">
      <g>
       <use xlink:href="#m2917fb8a03" x="327.717025" y="307.584" style="stroke: #000000; stroke-width: 0.8"/>
      </g>
     </g>
     <g id="text_5">
      <!-- 800 -->
      <g transform="translate(318.173275 322.182437) scale(0.1 -0.1)">
       <defs>
        <path id="DejaVuSans-38" d="M 2034 2216 
Q 1584 2216 1326 1975 
Q 1069 1734 1069 1313 
Q 1069 891 1326 650 
Q 1584 409 2034 409 
Q 2484 409 2743 651 
Q 3003 894 3003 1313 
Q 3003 1734 2745 1975 
Q 2488 2216 2034 2216 
z
M 1403 2484 
Q 997 2584 770 2862 
Q 544 3141 544 3541 
Q 544 4100 942 4425 
Q 1341 4750 2034 4750 
Q 2731 4750 3128 4425 
Q 3525 4100 3525 3541 
Q 3525 3141 3298 2862 
Q 3072 2584 2669 2484 
Q 3125 2378 3379 2068 
Q 3634 1759 3634 1313 
Q 3634 634 3220 271 
Q 2806 -91 2034 -91 
Q 1263 -91 848 271 
Q 434 634 434 1313 
Q 434 1759 690 2068 
Q 947 2378 1403 2484 
z
M 1172 3481 
Q 1172 3119 1398 2916 
Q 1625 2713 2034 2713 
Q 2441 2713 2670 2916 
Q 2900 3119 2900 3481 
Q 2900 3844 2670 4047 
Q 2441 4250 2034 4250 
Q 1625 4250 1398 4047 
Q 1172 3844 1172 3481 
z
" transform="scale(0.015625)"/>
       </defs>
       <use xlink:href="#DejaVuSans-38"/>
       <use xlink:href="#DejaVuSans-30" x="63.623047"/>
       <use xlink:href="#DejaVuSans-30" x="127.246094"/>
      </g>
     </g>
    </g>
    <g id="xtick_6">
     <g id="line2d_6">
      <g>
       <use xlink:href="#m2917fb8a03" x="391.188099" y="307.584" style="stroke: #000000; stroke-width: 0.8"/>
      </g>
     </g>
     <g id="text_6">
      <!-- 1000 -->
      <g transform="translate(378.463099 322.182437) scale(0.1 -0.1)">
       <defs>
        <path id="DejaVuSans-31" d="M 794 531 
L 1825 531 
L 1825 4091 
L 703 3866 
L 703 4441 
L 1819 4666 
L 2450 4666 
L 2450 531 
L 3481 531 
L 3481 0 
L 794 0 
L 794 531 
z
" transform="scale(0.015625)"/>
       </defs>
       <use xlink:href="#DejaVuSans-31"/>
       <use xlink:href="#DejaVuSans-30" x="63.623047"/>
       <use xlink:href="#DejaVuSans-30" x="127.246094"/>
       <use xlink:href="#DejaVuSans-30" x="190.869141"/>
      </g>
     </g>
    </g>
    <g id="text_7">
     <!-- n -->
     <g transform="translate(232.99125 335.860562) scale(0.1 -0.1)">
      <defs>
       <path id="DejaVuSans-6e" d="M 3513 2113 
L 3513 0 
L 2938 0 
L 2938 2094 
Q 2938 2591 2744 2837 
Q 2550 3084 2163 3084 
Q 1697 3084 1428 2787 
Q 1159 2491 1159 1978 
L 1159 0 
L 581 0 
L 581 3500 
L 1159 3500 
L 1159 2956 
Q 1366 3272 1645 3428 
Q 1925 3584 2291 3584 
Q 2894 3584 3203 3211 
Q 3513 2838 3513 2113 
z
" transform="scale(0.015625)"/>
      </defs>
      <use xlink:href="#DejaVuSans-6e"/>
     </g>
    </g>
   </g>
   <g id="matplotlib.axis_2">
    <g id="ytick_1">
     <g id="line2d_7">
      <defs>
       <path id="m40b981e494" d="M 0 0 
L -3.5 0 
" style="stroke: #000000; stroke-width: 0.8"/>
      </defs>
      <g>
       <use xlink:href="#m40b981e494" x="57.6" y="307.183965" style="stroke: #000000; stroke-width: 0.8"/>
      </g>
     </g>
     <g id="text_8">
      <!-- −6 -->
      <g transform="translate(35.857813 310.983184) scale(0.1 -0.1)">
       <defs>
        <path id="DejaVuSans-2212" d="M 678 2272 
L 4684 2272 
L 4684 1741 
L 678 1741 
L 678 2272 
z
" transform="scale(0.015625)"/>
       </defs>
       <use xlink:href="#DejaVuSans-2212"/>
       <use xlink:href="#DejaVuSans-36" x="83.789062"/>
      </g>
     </g>
    </g>
    <g id="ytick_2">
     <g id="line2d_8">
      <g>
       <use xlink:href="#m40b981e494" x="57.6" y="263.339005" style="stroke: #000000; stroke-width: 0.8"/>
      </g>
     </g>
     <g id="text_9">
      <!-- −4 -->
      <g transform="translate(35.857813 267.138224) scale(0.1 -0.1)">
       <use xlink:href="#DejaVuSans-2212"/>
       <use xlink:href="#DejaVuSans-34" x="83.789062"/>
      </g>
     </g>
    </g>
    <g id="ytick_3">
     <g id="line2d_9">
      <g>
       <use xlink:href="#m40b981e494" x="57.6" y="219.494045" style="stroke: #000000; stroke-width: 0.8"/>
      </g>
     </g>
     <g id="text_10">
      <!-- −2 -->
      <g transform="translate(35.857813 223.293264) scale(0.1 -0.1)">
       <use xlink:href="#DejaVuSans-2212"/>
       <use xlink:href="#DejaVuSans-32" x="83.789062"/>
      </g>
     </g>
    </g>
    <g id="ytick_4">
     <g id="line2d_10">
      <g>
       <use xlink:href="#m40b981e494" x="57.6" y="175.649085" style="stroke: #000000; stroke-width: 0.8"/>
      </g>
     </g>
     <g id="text_11">
      <!-- 0 -->
      <g transform="translate(44.2375 179.448303) scale(0.1 -0.1)">
       <use xlink:href="#DejaVuSans-30"/>
      </g>
     </g>
    </g>
    <g id="ytick_5">
     <g id="line2d_11">
      <g>
       <use xlink:href="#m40b981e494" x="57.6" y="131.804125" style="stroke: #000000; stroke-width: 0.8"/>
      </g>
     </g>
     <g id="text_12">
      <!-- 2 -->
      <g transform="translate(44.2375 135.603343) scale(0.1 -0.1)">
       <use xlink:href="#DejaVuSans-32"/>
      </g>
     </g>
    </g>
    <g id="ytick_6">
     <g id="line2d_12">
      <g>
       <use xlink:href="#m40b981e494" x="57.6" y="87.959165" style="stroke: #000000; stroke-width: 0.8"/>
      </g>
     </g>
     <g id="text_13">
      <!-- 4 -->
      <g transform="translate(44.2375 91.758383) scale(0.1 -0.1)">
       <use xlink:href="#DejaVuSans-34"/>
      </g>
     </g>
    </g>
    <g id="ytick_7">
     <g id="line2d_13">
      <g>
       <use xlink:href="#m40b981e494" x="57.6" y="44.114205" style="stroke: #000000; stroke-width: 0.8"/>
      </g>
     </g>
     <g id="text_14">
      <!-- 6 -->
      <g transform="translate(44.2375 47.913423) scale(0.1 -0.1)">
       <use xlink:href="#DejaVuSans-36"/>
      </g>
     </g>
    </g>
    <g id="text_15">
     <!-- E*t -->
     <g transform="translate(29.778125 182.147531) rotate(-90) scale(0.1 -0.1)">
      <defs>
       <path id="DejaVuSans-45" d="M 628 4666 
L 3578 4666 
L 3578 4134 
L 1259 4134 
L 1259 2753 
L 3481 2753 
L 3481 2222 
L 1259 2222 
L 1259 531 
L 3634 531 
L 3634 0 
L 628 0 
L 628 4666 
z
" transform="scale(0.015625)"/>
       <path id="DejaVuSans-2a" d="M 3009 3897 
L 1888 3291 
L 3009 2681 
L 2828 2375 
L 1778 3009 
L 1778 1831 
L 1422 1831 
L 1422 3009 
L 372 2375 
L 191 2681 
L 1313 3291 
L 191 3897 
L 372 4206 
L 1422 3572 
L 1422 4750 
L 1778 4750 
L 1778 3572 
L 2828 4206 
L 3009 3897 
z
" transform="scale(0.015625)"/>
       <path id="DejaVuSans-74" d="M 1172 4494 
L 1172 3500 
L 2356 3500 
L 2356 3053 
L 1172 3053 
L 1172 1153 
Q 1172 725 1289 603 
Q 1406 481 1766 481 
L 2356 481 
L 2356 0 
L 1766 0 
Q 1100 0 847 248 
Q 594 497 594 1153 
L 594 3053 
L 172 3053 
L 172 3500 
L 594 3500 
L 594 4494 
L 1172 4494 
z
" transform="scale(0.015625)"/>
      </defs>
      <use xlink:href="#DejaVuSans-45"/>
      <use xlink:href="#DejaVuSans-2a" x="63.183594"/>
      <use xlink:href="#DejaVuSans-74" x="113.183594"/>
     </g>
    </g>
   </g>
   <g id="line2d_14">
    <path d="M 73.832727 295.488 
L 74.467438 285.716675 
L 75.102149 275.38986 
L 75.419504 271.820877 
L 75.73686 271.416083 
L 76.054215 269.220355 
L 76.688926 267.158664 
L 77.006281 266.590835 
L 77.640992 265.052854 
L 77.958347 262.719337 
L 78.275702 261.727595 
L 78.593058 260.298724 
L 78.910413 259.428427 
L 79.227769 258.0274 
L 79.545124 257.188358 
L 79.862479 255.992531 
L 80.179835 255.428597 
L 80.49719 254.317989 
L 81.449256 252.507919 
L 82.401322 251.147649 
L 82.718678 249.361211 
L 83.036033 248.43888 
L 83.353388 247.919427 
L 83.670744 247.65637 
L 84.305455 246.716284 
L 84.62281 245.7337 
L 84.940165 245.635194 
L 85.574876 244.947969 
L 86.209587 243.656601 
L 86.526942 243.436532 
L 86.844298 242.627914 
L 87.161653 242.457122 
L 87.796364 241.607937 
L 88.113719 241.449728 
L 89.38314 240.235288 
L 89.700496 240.05595 
L 90.017851 239.62259 
L 90.335207 239.528513 
L 90.652562 238.991115 
L 91.287273 238.442041 
L 91.921983 237.383692 
L 92.87405 236.499251 
L 93.191405 235.756483 
L 94.143471 234.860022 
L 94.778182 233.814254 
L 95.095537 233.61044 
L 95.730248 232.719549 
L 96.364959 232.492644 
L 96.682314 232.124688 
L 97.317025 231.712154 
L 97.951736 230.743774 
L 98.269091 230.587436 
L 99.221157 229.801627 
L 99.538512 229.646477 
L 99.855868 229.351794 
L 100.173223 228.893444 
L 100.490579 228.772349 
L 101.125289 228.199376 
L 101.442645 227.481782 
L 101.76 227.421304 
L 102.077355 227.218291 
L 102.394711 226.735745 
L 102.712066 226.634732 
L 104.933554 225.094251 
L 105.250909 225.027456 
L 105.88562 224.39542 
L 106.837686 223.712768 
L 108.424463 222.54649 
L 109.693884 221.606522 
L 110.328595 221.310083 
L 110.963306 220.904217 
L 112.232727 220.29109 
L 112.550083 219.89542 
L 112.867438 219.790527 
L 113.819504 219.209823 
L 114.13686 219.130226 
L 114.77157 218.701627 
L 117.310413 217.358365 
L 122.705455 214.31064 
L 123.02281 214.193047 
L 123.657521 213.630502 
L 124.292231 213.406685 
L 125.244298 212.776632 
L 125.879008 212.498442 
L 128.735207 210.987197 
L 131.90876 209.678498 
L 132.226116 209.334774 
L 134.130248 208.422468 
L 134.447603 208.066701 
L 135.399669 207.645885 
L 136.03438 207.375656 
L 136.669091 207.094128 
L 137.303802 206.876172 
L 137.938512 206.540909 
L 138.890579 206.103274 
L 143.333554 204.137694 
L 143.650909 204.077894 
L 144.28562 203.730858 
L 144.920331 203.422192 
L 146.824463 202.537075 
L 149.680661 201.446471 
L 150.950083 200.989438 
L 151.584793 200.727941 
L 151.902149 200.645902 
L 152.53686 200.319868 
L 154.123636 199.74541 
L 154.758347 199.435592 
L 155.710413 198.986692 
L 157.29719 198.435223 
L 157.931901 198.260689 
L 160.470744 197.152751 
L 161.105455 196.996233 
L 161.740165 196.603975 
L 162.057521 196.574541 
L 163.326942 196.006259 
L 163.961653 195.843462 
L 164.279008 195.628733 
L 164.913719 195.395934 
L 169.039339 193.857341 
L 169.356694 193.629473 
L 170.30876 193.358331 
L 178.242645 190.364604 
L 178.877355 190.220575 
L 179.512066 189.97072 
L 180.146777 189.820865 
L 180.464132 189.801389 
L 180.781488 189.515563 
L 181.416198 189.343618 
L 182.68562 188.931639 
L 183.320331 188.691152 
L 185.224463 188.074577 
L 186.176529 187.674183 
L 186.493884 187.648516 
L 187.44595 187.277202 
L 188.080661 187.125887 
L 188.715372 186.877258 
L 190.302149 186.465861 
L 192.206281 185.81513 
L 194.745124 185.113665 
L 197.918678 184.134454 
L 199.188099 183.745956 
L 200.140165 183.39755 
L 202.996364 182.486359 
L 203.313719 182.298551 
L 203.94843 182.08586 
L 206.804628 181.228194 
L 207.439339 181.051556 
L 212.199669 179.518945 
L 212.83438 179.222183 
L 214.421157 178.779871 
L 220.768264 176.570516 
L 222.037686 176.122734 
L 223.624463 175.778062 
L 224.259174 175.516738 
L 225.21124 175.233837 
L 226.480661 174.79492 
L 227.432727 174.506223 
L 228.384793 174.269988 
L 229.019504 173.963059 
L 230.288926 173.604392 
L 242.34843 169.816545 
L 245.204628 168.908959 
L 245.839339 168.699131 
L 246.47405 168.482309 
L 247.10876 168.216099 
L 248.060826 167.944339 
L 249.012893 167.599689 
L 249.964959 167.292334 
L 251.551736 166.836316 
L 252.821157 166.352548 
L 254.090579 166.02458 
L 256.946777 165.185456 
L 257.581488 164.971819 
L 258.533554 164.696203 
L 259.48562 164.369435 
L 260.437686 164.0905 
L 261.707107 163.716179 
L 265.198017 162.62458 
L 265.515372 162.605194 
L 266.150083 162.306903 
L 266.784793 162.142532 
L 273.449256 160.125968 
L 274.083967 159.982251 
L 274.718678 159.721005 
L 276.940165 159.014693 
L 278.209587 158.644975 
L 278.844298 158.466285 
L 279.479008 158.181104 
L 281.065785 157.683148 
L 281.700496 157.503092 
L 289.317025 155.03403 
L 289.951736 154.781198 
L 291.221157 154.41171 
L 293.442645 153.645687 
L 293.76 153.584183 
L 294.394711 153.273128 
L 298.202975 152.063665 
L 298.837686 151.758981 
L 299.155041 151.731549 
L 299.789752 151.467957 
L 300.107107 151.398055 
L 300.741818 151.097459 
L 302.328595 150.631583 
L 303.598017 150.242217 
L 304.550083 149.784908 
L 305.184793 149.568181 
L 305.819504 149.314705 
L 308.040992 148.46932 
L 309.310413 147.96059 
L 310.262479 147.653848 
L 311.849256 147.088543 
L 312.483967 146.916234 
L 313.753388 146.333684 
L 314.070744 146.078313 
L 315.02281 145.871465 
L 315.340165 145.618602 
L 315.657521 145.607887 
L 316.292231 145.343553 
L 317.561653 144.933332 
L 321.369917 143.475997 
L 321.687273 143.279412 
L 322.321983 143.198425 
L 323.27405 142.6466 
L 323.90876 142.410106 
L 324.543471 142.190393 
L 324.860826 141.924293 
L 326.130248 141.574727 
L 337.237686 136.873159 
L 337.555041 136.591053 
L 338.507107 136.158406 
L 340.093884 135.172942 
L 340.728595 134.973435 
L 341.363306 134.462685 
L 346.123636 132.404379 
L 347.710413 131.53434 
L 348.345124 131.384664 
L 349.614545 130.788793 
L 349.931901 130.683067 
L 350.566612 130.20498 
L 351.201322 130.02119 
L 351.518678 129.895699 
L 351.836033 129.642567 
L 352.470744 129.419813 
L 353.105455 129.028828 
L 353.42281 128.893768 
L 353.740165 128.613354 
L 354.374876 128.408536 
L 355.326942 127.864751 
L 355.961653 127.566399 
L 356.279008 127.291482 
L 356.913719 127.093629 
L 359.135207 125.739483 
L 359.769917 125.475304 
L 360.721983 124.795793 
L 362.626116 123.542863 
L 362.943471 123.484967 
L 363.895537 122.83001 
L 364.212893 122.698455 
L 364.530248 122.336022 
L 364.847603 122.245103 
L 365.799669 121.256061 
L 366.43438 120.842981 
L 367.069091 120.525741 
L 368.021157 119.899185 
L 370.56 117.916765 
L 370.877355 117.782713 
L 372.146777 116.74696 
L 372.464132 116.698569 
L 373.098843 116.267926 
L 373.416198 115.772946 
L 373.733554 115.620549 
L 374.050909 115.022807 
L 374.368264 114.932138 
L 375.002975 114.568771 
L 375.637686 114.23572 
L 376.272397 113.767435 
L 376.589752 112.974602 
L 377.541818 112.20666 
L 378.176529 111.800184 
L 378.493884 111.239041 
L 378.81124 111.00177 
L 379.44595 110.048379 
L 379.763306 109.821418 
L 380.398017 108.812057 
L 380.715372 108.396623 
L 381.032727 108.24214 
L 381.350083 107.702816 
L 381.984793 107.090313 
L 383.254215 105.944344 
L 383.888926 104.633091 
L 384.523636 103.976515 
L 385.158347 102.898463 
L 385.793058 102.319852 
L 386.110413 102.066292 
L 386.745124 101.353636 
L 387.379835 100.705144 
L 388.014545 99.382998 
L 388.331901 98.955366 
L 388.649256 98.007048 
L 388.966612 97.864274 
L 389.283967 97.222467 
L 389.601322 96.95611 
L 390.553388 94.875082 
L 390.870744 94.668094 
L 391.188099 94.091838 
L 391.505455 93.824859 
L 391.82281 92.815014 
L 392.140165 92.446443 
L 392.457521 91.793808 
L 392.774876 90.45608 
L 393.092231 90.244133 
L 393.409587 89.07028 
L 394.044298 87.665436 
L 394.361653 84.777844 
L 394.679008 84.584533 
L 394.996364 84.216496 
L 396.265785 80.154492 
L 396.58314 77.600044 
L 396.900496 77.498299 
L 397.217851 76.205739 
L 397.535207 64.344365 
L 397.852562 60.246338 
L 398.169917 57.651321 
L 398.487273 53.568 
L 398.487273 53.568 
" clip-path="url(#p9d22124e30)" style="fill: none; stroke: #1f77b4; stroke-width: 1.5; stroke-linecap: square"/>
   </g>
   <g id="line2d_15">
    <path d="M 73.832727 287.725685 
L 74.150083 274.647552 
L 74.467438 274.647552 
L 74.784793 263.468412 
L 75.102149 261.146346 
L 75.73686 261.146346 
L 76.054215 256.963563 
L 76.37157 249.902445 
L 76.688926 249.469224 
L 77.006281 249.469224 
L 77.323636 248.376639 
L 78.910413 248.376639 
L 79.227769 244.393047 
L 79.545124 244.393047 
L 79.862479 242.951 
L 80.179835 242.060082 
L 80.49719 242.060082 
L 80.814545 237.655093 
L 81.131901 235.581629 
L 82.083967 235.545977 
L 82.401322 234.318809 
L 86.844298 234.249134 
L 87.161653 233.577201 
L 87.479008 230.385225 
L 87.796364 229.679596 
L 88.113719 228.574569 
L 89.700496 228.574569 
L 90.017851 227.162671 
L 90.652562 227.162671 
L 90.969917 225.522541 
L 91.287273 225.522541 
L 91.604628 224.668162 
L 91.921983 222.470567 
L 99.221157 222.470567 
L 99.538512 221.161095 
L 99.855868 221.161095 
L 100.173223 220.851349 
L 101.76 220.851349 
L 102.077355 219.494045 
L 103.664132 219.494045 
L 103.981488 219.187887 
L 104.298843 218.658656 
L 104.933554 218.658656 
L 105.250909 216.797297 
L 106.202975 216.703488 
L 106.520331 212.502707 
L 107.155041 212.08764 
L 107.472397 212.08764 
L 107.789752 211.120321 
L 109.376529 211.120321 
L 109.693884 208.997375 
L 110.01124 208.997375 
L 110.328595 206.652186 
L 129.369917 206.652089 
L 129.687273 205.319398 
L 130.321983 204.06599 
L 131.27405 203.986077 
L 131.591405 202.895875 
L 131.90876 202.895875 
L 132.226116 202.6468 
L 132.860826 202.6468 
L 133.178182 200.548087 
L 133.495537 200.548087 
L 133.812893 200.108618 
L 135.399669 200.108618 
L 135.717025 198.318876 
L 136.03438 198.077539 
L 136.351736 197.673448 
L 136.986446 197.571565 
L 163.009587 197.571565 
L 163.326942 195.714042 
L 167.135207 195.714042 
L 167.452562 195.37457 
L 167.769917 195.37457 
L 168.087273 193.075644 
L 168.404628 193.075644 
L 168.721983 192.462019 
L 169.356694 192.462019 
L 169.67405 192.066036 
L 169.991405 191.117587 
L 171.578182 191.117587 
L 172.212893 190.448864 
L 172.530248 190.448864 
L 172.847603 190.16516 
L 180.146777 190.16516 
L 180.464132 189.676833 
L 180.781488 189.676833 
L 181.098843 189.197841 
L 182.68562 189.197841 
L 183.320331 184.729609 
L 185.541818 184.689862 
L 185.859174 184.430258 
L 186.493884 184.430258 
L 186.81124 184.038131 
L 187.128595 183.05549 
L 187.44595 183.05549 
L 187.763306 182.389957 
L 188.080661 182.389957 
L 188.398017 179.611533 
L 188.715372 175.649085 
L 283.604628 175.649085 
L 284.239339 168.908212 
L 284.556694 168.908212 
L 284.87405 168.24268 
L 285.191405 168.24268 
L 285.50876 167.260038 
L 285.826116 166.867912 
L 286.460826 166.867912 
L 286.778182 166.608308 
L 288.999669 166.568561 
L 289.63438 162.100329 
L 291.221157 162.100329 
L 291.538512 161.621336 
L 291.855868 161.621336 
L 292.173223 161.13301 
L 299.472397 161.13301 
L 299.789752 160.849306 
L 300.107107 160.849306 
L 300.741818 160.180582 
L 302.328595 160.180582 
L 302.64595 159.232134 
L 302.963306 158.836151 
L 303.598017 158.836151 
L 303.915372 158.222525 
L 304.232727 158.222525 
L 304.550083 155.923599 
L 304.867438 155.923599 
L 305.184793 155.584128 
L 308.993058 155.584128 
L 309.310413 153.726605 
L 335.968264 153.624721 
L 336.602975 152.979294 
L 336.920331 151.189551 
L 338.507107 151.189551 
L 338.824463 150.750082 
L 339.141818 150.750082 
L 339.459174 148.651369 
L 340.093884 148.651369 
L 340.41124 148.402294 
L 340.728595 148.402294 
L 341.04595 147.312092 
L 341.680661 147.23218 
L 341.998017 147.23218 
L 342.315372 146.747051 
L 342.632727 145.978772 
L 342.950083 144.646081 
L 361.991405 144.645984 
L 362.30876 142.300795 
L 362.626116 142.300795 
L 362.943471 140.177849 
L 364.530248 140.177849 
L 364.847603 139.21053 
L 365.164959 139.21053 
L 365.799669 138.795463 
L 366.117025 134.594681 
L 367.069091 134.500873 
L 367.386446 132.639514 
L 368.021157 132.639514 
L 368.338512 132.110282 
L 368.655868 131.804125 
L 370.242645 131.804125 
L 370.56 130.446821 
L 372.146777 130.446821 
L 372.464132 130.137074 
L 372.781488 130.137074 
L 373.098843 128.827602 
L 380.398017 128.827602 
L 380.715372 126.630007 
L 381.032727 125.775629 
L 381.350083 125.775629 
L 381.667438 124.135499 
L 382.302149 124.135499 
L 382.619504 122.723601 
L 384.206281 122.723601 
L 384.840992 120.912945 
L 385.158347 117.720969 
L 385.475702 117.049035 
L 389.918678 116.979361 
L 390.236033 115.752193 
L 391.188099 115.716541 
L 391.505455 113.643077 
L 391.82281 109.238087 
L 392.140165 109.238087 
L 392.457521 108.347169 
L 392.774876 106.905122 
L 393.092231 106.905122 
L 393.409587 102.92153 
L 394.996364 102.92153 
L 395.313719 101.828945 
L 395.631074 101.828945 
L 395.94843 101.395725 
L 396.265785 94.334607 
L 396.58314 90.151823 
L 397.217851 90.151823 
L 397.535207 87.829757 
L 397.852562 76.650618 
L 398.169917 76.650618 
L 398.487273 63.572484 
L 398.487273 63.572484 
" clip-path="url(#p9d22124e30)" style="fill: none; stroke: #ff7f0e; stroke-width: 1.5; stroke-linecap: square"/>
   </g>
   <g id="patch_3">
    <path d="M 57.6 307.584 
L 57.6 41.472 
" style="fill: none; stroke: #000000; stroke-width: 0.8; stroke-linejoin: miter; stroke-linecap: square"/>
   </g>
   <g id="patch_4">
    <path d="M 414.72 307.584 
L 414.72 41.472 
" style="fill: none; stroke: #000000; stroke-width: 0.8; stroke-linejoin: miter; stroke-linecap: square"/>
   </g>
   <g id="patch_5">
    <path d="M 57.6 307.584 
L 414.72 307.584 
" style="fill: none; stroke: #000000; stroke-width: 0.8; stroke-linejoin: miter; stroke-linecap: square"/>
   </g>
   <g id="patch_6">
    <path d="M 57.6 41.472 
L 414.72 41.472 
" style="fill: none; stroke: #000000; stroke-width: 0.8; stroke-linejoin: miter; stroke-linecap: square"/>
   </g>
   <g id="legend_1">
    <g id="patch_7">
     <path d="M 64.6 78.82825 
L 129.342187 78.82825 
Q 131.342187 78.82825 131.342187 76.82825 
L 131.342187 48.472 
Q 131.342187 46.472 129.342187 46.472 
L 64.6 46.472 
Q 62.6 46.472 62.6 48.472 
L 62.6 76.82825 
Q 62.6 78.82825 64.6 78.82825 
z
" style="fill: #ffffff; opacity: 0.8; stroke: #cccccc; stroke-linejoin: miter"/>
    </g>
    <g id="line2d_16">
     <path d="M 66.6 54.570437 
L 76.6 54.570437 
L 86.6 54.570437 
" style="fill: none; stroke: #1f77b4; stroke-width: 1.5; stroke-linecap: square"/>
    </g>
    <g id="text_16">
     <!-- qc -->
     <g transform="translate(94.6 58.070437) scale(0.1 -0.1)">
      <defs>
       <path id="DejaVuSans-71" d="M 947 1747 
Q 947 1113 1208 752 
Q 1469 391 1925 391 
Q 2381 391 2643 752 
Q 2906 1113 2906 1747 
Q 2906 2381 2643 2742 
Q 2381 3103 1925 3103 
Q 1469 3103 1208 2742 
Q 947 2381 947 1747 
z
M 2906 525 
Q 2725 213 2448 61 
Q 2172 -91 1784 -91 
Q 1150 -91 751 415 
Q 353 922 353 1747 
Q 353 2572 751 3078 
Q 1150 3584 1784 3584 
Q 2172 3584 2448 3432 
Q 2725 3281 2906 2969 
L 2906 3500 
L 3481 3500 
L 3481 -1331 
L 2906 -1331 
L 2906 525 
z
" transform="scale(0.015625)"/>
       <path id="DejaVuSans-63" d="M 3122 3366 
L 3122 2828 
Q 2878 2963 2633 3030 
Q 2388 3097 2138 3097 
Q 1578 3097 1268 2742 
Q 959 2388 959 1747 
Q 959 1106 1268 751 
Q 1578 397 2138 397 
Q 2388 397 2633 464 
Q 2878 531 3122 666 
L 3122 134 
Q 2881 22 2623 -34 
Q 2366 -91 2075 -91 
Q 1284 -91 818 406 
Q 353 903 353 1747 
Q 353 2603 823 3093 
Q 1294 3584 2113 3584 
Q 2378 3584 2631 3529 
Q 2884 3475 3122 3366 
z
" transform="scale(0.015625)"/>
      </defs>
      <use xlink:href="#DejaVuSans-71"/>
      <use xlink:href="#DejaVuSans-63" x="63.476562"/>
     </g>
    </g>
    <g id="line2d_17">
     <path d="M 66.6 69.248562 
L 76.6 69.248562 
L 86.6 69.248562 
" style="fill: none; stroke: #ff7f0e; stroke-width: 1.5; stroke-linecap: square"/>
    </g>
    <g id="text_17">
     <!-- Trotter -->
     <g transform="translate(94.6 72.748562) scale(0.1 -0.1)">
      <defs>
       <path id="DejaVuSans-54" d="M -19 4666 
L 3928 4666 
L 3928 4134 
L 2272 4134 
L 2272 0 
L 1638 0 
L 1638 4134 
L -19 4134 
L -19 4666 
z
" transform="scale(0.015625)"/>
       <path id="DejaVuSans-72" d="M 2631 2963 
Q 2534 3019 2420 3045 
Q 2306 3072 2169 3072 
Q 1681 3072 1420 2755 
Q 1159 2438 1159 1844 
L 1159 0 
L 581 0 
L 581 3500 
L 1159 3500 
L 1159 2956 
Q 1341 3275 1631 3429 
Q 1922 3584 2338 3584 
Q 2397 3584 2469 3576 
Q 2541 3569 2628 3553 
L 2631 2963 
z
" transform="scale(0.015625)"/>
       <path id="DejaVuSans-6f" d="M 1959 3097 
Q 1497 3097 1228 2736 
Q 959 2375 959 1747 
Q 959 1119 1226 758 
Q 1494 397 1959 397 
Q 2419 397 2687 759 
Q 2956 1122 2956 1747 
Q 2956 2369 2687 2733 
Q 2419 3097 1959 3097 
z
M 1959 3584 
Q 2709 3584 3137 3096 
Q 3566 2609 3566 1747 
Q 3566 888 3137 398 
Q 2709 -91 1959 -91 
Q 1206 -91 779 398 
Q 353 888 353 1747 
Q 353 2609 779 3096 
Q 1206 3584 1959 3584 
z
" transform="scale(0.015625)"/>
       <path id="DejaVuSans-65" d="M 3597 1894 
L 3597 1613 
L 953 1613 
Q 991 1019 1311 708 
Q 1631 397 2203 397 
Q 2534 397 2845 478 
Q 3156 559 3463 722 
L 3463 178 
Q 3153 47 2828 -22 
Q 2503 -91 2169 -91 
Q 1331 -91 842 396 
Q 353 884 353 1716 
Q 353 2575 817 3079 
Q 1281 3584 2069 3584 
Q 2775 3584 3186 3129 
Q 3597 2675 3597 1894 
z
M 3022 2063 
Q 3016 2534 2758 2815 
Q 2500 3097 2075 3097 
Q 1594 3097 1305 2825 
Q 1016 2553 972 2059 
L 3022 2063 
z
" transform="scale(0.015625)"/>
      </defs>
      <use xlink:href="#DejaVuSans-54"/>
      <use xlink:href="#DejaVuSans-72" x="46.333984"/>
      <use xlink:href="#DejaVuSans-6f" x="85.197266"/>
      <use xlink:href="#DejaVuSans-74" x="146.378906"/>
      <use xlink:href="#DejaVuSans-74" x="185.587891"/>
      <use xlink:href="#DejaVuSans-65" x="224.796875"/>
      <use xlink:href="#DejaVuSans-72" x="286.320312"/>
     </g>
    </g>
   </g>
  </g>
 </g>
 <defs>
  <clipPath id="p9d22124e30">
   <rect x="57.6" y="41.472" width="357.12" height="266.112"/>
  </clipPath>
 </defs>
</svg>
