<?xml version="1.0" encoding="utf-8" standalone="no"?>
<!DOCTYPE svg PUBLIC "-//W3C//DTD SVG 1.1//EN"
  "http://www.w3.org/Graphics/SVG/1.1/DTD/svg11.dtd">
<svg xmlns:xlink="http://www.w3.org/1999/xlink" width="460.8pt" height="345.6pt" viewBox="0 0 460.8 345.6" xmlns="http://www.w3.org/2000/svg" version="1.1">
 <metadata>
  <rdf:RDF xmlns:dc="http://purl.org/dc/elements/1.1/" xmlns:cc="http://creativecommons.org/ns#" xmlns:rdf="http://www.w3.org/1999/02/22-rdf-syntax-ns#">
   <cc:Work>
    <dc:type rdf:resource="http://purl.org/dc/dcmitype/StillImage"/>
    <dc:date>2024-08-31T17:27:03.015689</dc:date>
    <dc:format>image/svg+xml</dc:format>
    <dc:creator>
     <cc:Agent>
      <dc:title>Matplotlib v3.7.1, https://matplotlib.org/</dc:title>
     </cc:Agent>
    </dc:creator>
   </cc:Work>
  </rdf:RDF>
 </metadata>
 <defs>
  <style type="text/css">*{stroke-linejoin: round; stroke-linecap: butt}</style>
 </defs>
 <g id="figure_1">
  <g id="patch_1">
   <path d="M 0 345.6 
L 460.8 345.6 
L 460.8 0 
L 0 0 
z
" style="fill: #ffffff"/>
  </g>
  <g id="axes_1">
   <g id="patch_2">
    <path d="M 57.6 307.584 
L 414.72 307.584 
L 414.72 41.472 
L 57.6 41.472 
z
" style="fill: #ffffff"/>
   </g>
   <g id="matplotlib.axis_1">
    <g id="xtick_1">
     <g id="line2d_1">
      <defs>
       <path id="m4f0b3e98da" d="M 0 0 
L 0 3.5 
" style="stroke: #000000; stroke-width: 0.8"/>
      </defs>
      <g>
       <use xlink:href="#m4f0b3e98da" x="73.832727" y="307.584" style="stroke: #000000; stroke-width: 0.8"/>
      </g>
     </g>
     <g id="text_1">
      <!-- 0 -->
      <g transform="translate(70.651477 322.182437) scale(0.1 -0.1)">
       <defs>
        <path id="DejaVuSans-30" d="M 2034 4250 
Q 1547 4250 1301 3770 
Q 1056 3291 1056 2328 
Q 1056 1369 1301 889 
Q 1547 409 2034 409 
Q 2525 409 2770 889 
Q 3016 1369 3016 2328 
Q 3016 3291 2770 3770 
Q 2525 4250 2034 4250 
z
M 2034 4750 
Q 2819 4750 3233 4129 
Q 3647 3509 3647 2328 
Q 3647 1150 3233 529 
Q 2819 -91 2034 -91 
Q 1250 -91 836 529 
Q 422 1150 422 2328 
Q 422 3509 836 4129 
Q 1250 4750 2034 4750 
z
" transform="scale(0.015625)"/>
       </defs>
       <use xlink:href="#DejaVuSans-30"/>
      </g>
     </g>
    </g>
    <g id="xtick_2">
     <g id="line2d_2">
      <g>
       <use xlink:href="#m4f0b3e98da" x="137.303802" y="307.584" style="stroke: #000000; stroke-width: 0.8"/>
      </g>
     </g>
     <g id="text_2">
      <!-- 200 -->
      <g transform="translate(127.760052 322.182437) scale(0.1 -0.1)">
       <defs>
        <path id="DejaVuSans-32" d="M 1228 531 
L 3431 531 
L 3431 0 
L 469 0 
L 469 531 
Q 828 903 1448 1529 
Q 2069 2156 2228 2338 
Q 2531 2678 2651 2914 
Q 2772 3150 2772 3378 
Q 2772 3750 2511 3984 
Q 2250 4219 1831 4219 
Q 1534 4219 1204 4116 
Q 875 4013 500 3803 
L 500 4441 
Q 881 4594 1212 4672 
Q 1544 4750 1819 4750 
Q 2544 4750 2975 4387 
Q 3406 4025 3406 3419 
Q 3406 3131 3298 2873 
Q 3191 2616 2906 2266 
Q 2828 2175 2409 1742 
Q 1991 1309 1228 531 
z
" transform="scale(0.015625)"/>
       </defs>
       <use xlink:href="#DejaVuSans-32"/>
       <use xlink:href="#DejaVuSans-30" x="63.623047"/>
       <use xlink:href="#DejaVuSans-30" x="127.246094"/>
      </g>
     </g>
    </g>
    <g id="xtick_3">
     <g id="line2d_3">
      <g>
       <use xlink:href="#m4f0b3e98da" x="200.774876" y="307.584" style="stroke: #000000; stroke-width: 0.8"/>
      </g>
     </g>
     <g id="text_3">
      <!-- 400 -->
      <g transform="translate(191.231126 322.182437) scale(0.1 -0.1)">
       <defs>
        <path id="DejaVuSans-34" d="M 2419 4116 
L 825 1625 
L 2419 1625 
L 2419 4116 
z
M 2253 4666 
L 3047 4666 
L 3047 1625 
L 3713 1625 
L 3713 1100 
L 3047 1100 
L 3047 0 
L 2419 0 
L 2419 1100 
L 313 1100 
L 313 1709 
L 2253 4666 
z
" transform="scale(0.015625)"/>
       </defs>
       <use xlink:href="#DejaVuSans-34"/>
       <use xlink:href="#DejaVuSans-30" x="63.623047"/>
       <use xlink:href="#DejaVuSans-30" x="127.246094"/>
      </g>
     </g>
    </g>
    <g id="xtick_4">
     <g id="line2d_4">
      <g>
       <use xlink:href="#m4f0b3e98da" x="264.24595" y="307.584" style="stroke: #000000; stroke-width: 0.8"/>
      </g>
     </g>
     <g id="text_4">
      <!-- 600 -->
      <g transform="translate(254.7022 322.182437) scale(0.1 -0.1)">
       <defs>
        <path id="DejaVuSans-36" d="M 2113 2584 
Q 1688 2584 1439 2293 
Q 1191 2003 1191 1497 
Q 1191 994 1439 701 
Q 1688 409 2113 409 
Q 2538 409 2786 701 
Q 3034 994 3034 1497 
Q 3034 2003 2786 2293 
Q 2538 2584 2113 2584 
z
M 3366 4563 
L 3366 3988 
Q 3128 4100 2886 4159 
Q 2644 4219 2406 4219 
Q 1781 4219 1451 3797 
Q 1122 3375 1075 2522 
Q 1259 2794 1537 2939 
Q 1816 3084 2150 3084 
Q 2853 3084 3261 2657 
Q 3669 2231 3669 1497 
Q 3669 778 3244 343 
Q 2819 -91 2113 -91 
Q 1303 -91 875 529 
Q 447 1150 447 2328 
Q 447 3434 972 4092 
Q 1497 4750 2381 4750 
Q 2619 4750 2861 4703 
Q 3103 4656 3366 4563 
z
" transform="scale(0.015625)"/>
       </defs>
       <use xlink:href="#DejaVuSans-36"/>
       <use xlink:href="#DejaVuSans-30" x="63.623047"/>
       <use xlink:href="#DejaVuSans-30" x="127.246094"/>
      </g>
     </g>
    </g>
    <g id="xtick_5">
     <g id="line2d_5">
      <g>
       <use xlink:href="#m4f0b3e98da" x="327.717025" y="307.584" style="stroke: #000000; stroke-width: 0.8"/>
      </g>
     </g>
     <g id="text_5">
      <!-- 800 -->
      <g transform="translate(318.173275 322.182437) scale(0.1 -0.1)">
       <defs>
        <path id="DejaVuSans-38" d="M 2034 2216 
Q 1584 2216 1326 1975 
Q 1069 1734 1069 1313 
Q 1069 891 1326 650 
Q 1584 409 2034 409 
Q 2484 409 2743 651 
Q 3003 894 3003 1313 
Q 3003 1734 2745 1975 
Q 2488 2216 2034 2216 
z
M 1403 2484 
Q 997 2584 770 2862 
Q 544 3141 544 3541 
Q 544 4100 942 4425 
Q 1341 4750 2034 4750 
Q 2731 4750 3128 4425 
Q 3525 4100 3525 3541 
Q 3525 3141 3298 2862 
Q 3072 2584 2669 2484 
Q 3125 2378 3379 2068 
Q 3634 1759 3634 1313 
Q 3634 634 3220 271 
Q 2806 -91 2034 -91 
Q 1263 -91 848 271 
Q 434 634 434 1313 
Q 434 1759 690 2068 
Q 947 2378 1403 2484 
z
M 1172 3481 
Q 1172 3119 1398 2916 
Q 1625 2713 2034 2713 
Q 2441 2713 2670 2916 
Q 2900 3119 2900 3481 
Q 2900 3844 2670 4047 
Q 2441 4250 2034 4250 
Q 1625 4250 1398 4047 
Q 1172 3844 1172 3481 
z
" transform="scale(0.015625)"/>
       </defs>
       <use xlink:href="#DejaVuSans-38"/>
       <use xlink:href="#DejaVuSans-30" x="63.623047"/>
       <use xlink:href="#DejaVuSans-30" x="127.246094"/>
      </g>
     </g>
    </g>
    <g id="xtick_6">
     <g id="line2d_6">
      <g>
       <use xlink:href="#m4f0b3e98da" x="391.188099" y="307.584" style="stroke: #000000; stroke-width: 0.8"/>
      </g>
     </g>
     <g id="text_6">
      <!-- 1000 -->
      <g transform="translate(378.463099 322.182437) scale(0.1 -0.1)">
       <defs>
        <path id="DejaVuSans-31" d="M 794 531 
L 1825 531 
L 1825 4091 
L 703 3866 
L 703 4441 
L 1819 4666 
L 2450 4666 
L 2450 531 
L 3481 531 
L 3481 0 
L 794 0 
L 794 531 
z
" transform="scale(0.015625)"/>
       </defs>
       <use xlink:href="#DejaVuSans-31"/>
       <use xlink:href="#DejaVuSans-30" x="63.623047"/>
       <use xlink:href="#DejaVuSans-30" x="127.246094"/>
       <use xlink:href="#DejaVuSans-30" x="190.869141"/>
      </g>
     </g>
    </g>
    <g id="text_7">
     <!-- n -->
     <g transform="translate(232.99125 335.860562) scale(0.1 -0.1)">
      <defs>
       <path id="DejaVuSans-6e" d="M 3513 2113 
L 3513 0 
L 2938 0 
L 2938 2094 
Q 2938 2591 2744 2837 
Q 2550 3084 2163 3084 
Q 1697 3084 1428 2787 
Q 1159 2491 1159 1978 
L 1159 0 
L 581 0 
L 581 3500 
L 1159 3500 
L 1159 2956 
Q 1366 3272 1645 3428 
Q 1925 3584 2291 3584 
Q 2894 3584 3203 3211 
Q 3513 2838 3513 2113 
z
" transform="scale(0.015625)"/>
      </defs>
      <use xlink:href="#DejaVuSans-6e"/>
     </g>
    </g>
   </g>
   <g id="matplotlib.axis_2">
    <g id="ytick_1">
     <g id="line2d_7">
      <defs>
       <path id="mf38685f044" d="M 0 0 
L -3.5 0 
" style="stroke: #000000; stroke-width: 0.8"/>
      </defs>
      <g>
       <use xlink:href="#mf38685f044" x="57.6" y="289.142934" style="stroke: #000000; stroke-width: 0.8"/>
      </g>
     </g>
     <g id="text_8">
      <!-- −6 -->
      <g transform="translate(35.857813 292.942153) scale(0.1 -0.1)">
       <defs>
        <path id="DejaVuSans-2212" d="M 678 2272 
L 4684 2272 
L 4684 1741 
L 678 1741 
L 678 2272 
z
" transform="scale(0.015625)"/>
       </defs>
       <use xlink:href="#DejaVuSans-2212"/>
       <use xlink:href="#DejaVuSans-36" x="83.789062"/>
      </g>
     </g>
    </g>
    <g id="ytick_2">
     <g id="line2d_8">
      <g>
       <use xlink:href="#mf38685f044" x="57.6" y="250.068743" style="stroke: #000000; stroke-width: 0.8"/>
      </g>
     </g>
     <g id="text_9">
      <!-- −4 -->
      <g transform="translate(35.857813 253.867962) scale(0.1 -0.1)">
       <use xlink:href="#DejaVuSans-2212"/>
       <use xlink:href="#DejaVuSans-34" x="83.789062"/>
      </g>
     </g>
    </g>
    <g id="ytick_3">
     <g id="line2d_9">
      <g>
       <use xlink:href="#mf38685f044" x="57.6" y="210.994552" style="stroke: #000000; stroke-width: 0.8"/>
      </g>
     </g>
     <g id="text_10">
      <!-- −2 -->
      <g transform="translate(35.857813 214.793771) scale(0.1 -0.1)">
       <use xlink:href="#DejaVuSans-2212"/>
       <use xlink:href="#DejaVuSans-32" x="83.789062"/>
      </g>
     </g>
    </g>
    <g id="ytick_4">
     <g id="line2d_10">
      <g>
       <use xlink:href="#mf38685f044" x="57.6" y="171.920361" style="stroke: #000000; stroke-width: 0.8"/>
      </g>
     </g>
     <g id="text_11">
      <!-- 0 -->
      <g transform="translate(44.2375 175.719579) scale(0.1 -0.1)">
       <use xlink:href="#DejaVuSans-30"/>
      </g>
     </g>
    </g>
    <g id="ytick_5">
     <g id="line2d_11">
      <g>
       <use xlink:href="#mf38685f044" x="57.6" y="132.846169" style="stroke: #000000; stroke-width: 0.8"/>
      </g>
     </g>
     <g id="text_12">
      <!-- 2 -->
      <g transform="translate(44.2375 136.645388) scale(0.1 -0.1)">
       <use xlink:href="#DejaVuSans-32"/>
      </g>
     </g>
    </g>
    <g id="ytick_6">
     <g id="line2d_12">
      <g>
       <use xlink:href="#mf38685f044" x="57.6" y="93.771978" style="stroke: #000000; stroke-width: 0.8"/>
      </g>
     </g>
     <g id="text_13">
      <!-- 4 -->
      <g transform="translate(44.2375 97.571197) scale(0.1 -0.1)">
       <use xlink:href="#DejaVuSans-34"/>
      </g>
     </g>
    </g>
    <g id="ytick_7">
     <g id="line2d_13">
      <g>
       <use xlink:href="#mf38685f044" x="57.6" y="54.697787" style="stroke: #000000; stroke-width: 0.8"/>
      </g>
     </g>
     <g id="text_14">
      <!-- 6 -->
      <g transform="translate(44.2375 58.497006) scale(0.1 -0.1)">
       <use xlink:href="#DejaVuSans-36"/>
      </g>
     </g>
    </g>
    <g id="text_15">
     <!-- E*t -->
     <g transform="translate(29.778125 182.147531) rotate(-90) scale(0.1 -0.1)">
      <defs>
       <path id="DejaVuSans-45" d="M 628 4666 
L 3578 4666 
L 3578 4134 
L 1259 4134 
L 1259 2753 
L 3481 2753 
L 3481 2222 
L 1259 2222 
L 1259 531 
L 3634 531 
L 3634 0 
L 628 0 
L 628 4666 
z
" transform="scale(0.015625)"/>
       <path id="DejaVuSans-2a" d="M 3009 3897 
L 1888 3291 
L 3009 2681 
L 2828 2375 
L 1778 3009 
L 1778 1831 
L 1422 1831 
L 1422 3009 
L 372 2375 
L 191 2681 
L 1313 3291 
L 191 3897 
L 372 4206 
L 1422 3572 
L 1422 4750 
L 1778 4750 
L 1778 3572 
L 2828 4206 
L 3009 3897 
z
" transform="scale(0.015625)"/>
       <path id="DejaVuSans-74" d="M 1172 4494 
L 1172 3500 
L 2356 3500 
L 2356 3053 
L 1172 3053 
L 1172 1153 
Q 1172 725 1289 603 
Q 1406 481 1766 481 
L 2356 481 
L 2356 0 
L 1766 0 
Q 1100 0 847 248 
Q 594 497 594 1153 
L 594 3053 
L 172 3053 
L 172 3500 
L 594 3500 
L 594 4494 
L 1172 4494 
z
" transform="scale(0.015625)"/>
      </defs>
      <use xlink:href="#DejaVuSans-45"/>
      <use xlink:href="#DejaVuSans-2a" x="63.183594"/>
      <use xlink:href="#DejaVuSans-74" x="113.183594"/>
     </g>
    </g>
   </g>
   <g id="line2d_14">
    <path d="M 73.832727 295.488 
L 74.150083 282.95625 
L 74.784793 280.753487 
L 75.102149 275.058023 
L 75.73686 271.514291 
L 76.37157 269.291249 
L 76.688926 267.074726 
L 77.006281 265.835857 
L 77.323636 262.973174 
L 77.958347 261.405767 
L 78.275702 260.883626 
L 78.593058 260.715387 
L 78.910413 259.499128 
L 79.545124 258.069226 
L 79.862479 257.845251 
L 81.449256 252.168832 
L 82.083967 251.261967 
L 82.718678 249.49248 
L 83.988099 248.01272 
L 84.305455 246.876993 
L 84.62281 246.708115 
L 85.257521 245.812618 
L 85.574876 245.448759 
L 86.209587 244.369589 
L 86.526942 243.965874 
L 86.844298 243.750279 
L 87.161653 243.144946 
L 87.479008 242.99128 
L 87.796364 242.211997 
L 88.113719 241.953832 
L 88.74843 240.733633 
L 89.38314 240.052333 
L 89.700496 239.893934 
L 90.017851 239.580112 
L 90.335207 238.961926 
L 90.969917 238.59259 
L 91.287273 238.002493 
L 91.604628 237.797536 
L 91.921983 236.993567 
L 92.239339 236.845583 
L 92.87405 235.922778 
L 93.50876 234.805186 
L 93.826116 234.449836 
L 94.460826 234.16955 
L 95.095537 233.602725 
L 95.412893 233.356137 
L 95.730248 232.776653 
L 96.364959 232.293976 
L 96.999669 231.667182 
L 97.317025 231.512064 
L 97.951736 230.53698 
L 98.269091 230.14802 
L 99.855868 229.247304 
L 100.490579 228.658241 
L 101.442645 228.090894 
L 102.077355 227.496877 
L 103.029421 227.014463 
L 105.250909 225.155116 
L 106.837686 224.101679 
L 108.741818 222.598704 
L 109.059174 222.468686 
L 109.693884 221.899072 
L 110.01124 221.564059 
L 110.64595 221.423553 
L 110.963306 220.971898 
L 111.915372 220.296446 
L 112.232727 220.213749 
L 112.550083 219.801033 
L 113.502149 219.275877 
L 113.819504 218.863355 
L 114.13686 218.718108 
L 114.454215 218.384373 
L 115.088926 218.119753 
L 115.406281 217.868745 
L 115.723636 217.768014 
L 116.040992 217.530151 
L 116.358347 217.465225 
L 117.945124 216.375543 
L 118.579835 216.086669 
L 118.89719 215.750594 
L 119.531901 215.513196 
L 119.849256 215.240747 
L 120.483967 214.997918 
L 121.436033 214.306536 
L 123.02281 213.606758 
L 123.340165 213.431362 
L 123.657521 213.084719 
L 123.974876 212.973885 
L 124.609587 212.582865 
L 127.465785 211.249081 
L 127.78314 211.195529 
L 128.100496 210.955419 
L 129.052562 210.620816 
L 129.687273 210.333148 
L 130.956694 209.793343 
L 131.27405 209.486812 
L 131.90876 209.307152 
L 132.860826 208.767716 
L 133.178182 208.52035 
L 133.812893 208.3548 
L 134.447603 207.899565 
L 136.03438 207.133616 
L 138.573223 205.825852 
L 139.842645 205.034512 
L 140.794711 204.62165 
L 141.112066 204.545358 
L 141.746777 204.174262 
L 142.381488 203.98228 
L 143.016198 203.752018 
L 143.333554 203.695639 
L 144.920331 202.704632 
L 153.17157 199.07664 
L 153.806281 198.875999 
L 154.440992 198.588869 
L 154.758347 198.500242 
L 155.393058 198.088686 
L 159.836033 196.428913 
L 160.470744 196.055063 
L 161.42281 195.638307 
L 161.740165 195.5513 
L 162.057521 195.345828 
L 162.692231 195.206172 
L 165.54843 194.107142 
L 166.817851 193.73843 
L 167.769917 193.482478 
L 168.087273 193.265035 
L 169.356694 192.900392 
L 170.30876 192.427392 
L 171.260826 192.152456 
L 172.530248 191.785593 
L 172.847603 191.493067 
L 173.482314 191.227351 
L 175.386446 190.216555 
L 175.703802 190.163916 
L 176.655868 189.656596 
L 177.925289 189.300739 
L 178.242645 189.087885 
L 179.512066 188.811625 
L 179.829421 188.566033 
L 180.464132 188.402233 
L 181.733554 187.945238 
L 183.637686 187.281177 
L 184.272397 186.957467 
L 185.541818 186.402464 
L 186.176529 186.156101 
L 186.493884 186.115576 
L 187.763306 185.537078 
L 188.398017 185.33473 
L 194.427769 183.413114 
L 195.062479 183.085821 
L 196.014545 182.870419 
L 202.044298 180.806942 
L 202.361653 180.628127 
L 202.996364 180.470792 
L 203.631074 180.240284 
L 204.265785 180.073774 
L 204.900496 179.789701 
L 205.852562 179.438549 
L 206.169917 179.382011 
L 206.804628 179.105548 
L 207.439339 178.919336 
L 208.70876 178.447957 
L 209.660826 178.088427 
L 216.007934 175.914431 
L 217.277355 175.394824 
L 218.229421 175.021934 
L 218.864132 174.678497 
L 219.498843 174.540275 
L 220.768264 174.092846 
L 222.355041 173.585401 
L 224.893884 172.81797 
L 225.528595 172.575256 
L 229.019504 171.429469 
L 229.654215 171.132681 
L 230.923636 170.755701 
L 231.240992 170.535582 
L 231.875702 170.376097 
L 232.827769 170.013515 
L 233.779835 169.78994 
L 236.953388 168.76592 
L 238.22281 168.347341 
L 238.857521 168.197105 
L 240.761653 167.649653 
L 241.396364 167.427658 
L 243.300496 166.89218 
L 243.935207 166.747971 
L 245.204628 166.257455 
L 246.47405 165.880647 
L 247.10876 165.66697 
L 247.743471 165.512732 
L 248.695537 165.182653 
L 251.23438 164.284707 
L 252.503802 163.838475 
L 253.455868 163.544658 
L 254.090579 163.346508 
L 255.042645 162.970971 
L 255.994711 162.635633 
L 257.264132 162.188542 
L 258.850909 161.635869 
L 259.48562 161.412558 
L 260.120331 161.216722 
L 261.707107 160.649823 
L 262.976529 160.321429 
L 263.293884 160.133514 
L 263.61124 160.083177 
L 264.24595 159.844026 
L 265.832727 159.318748 
L 266.784793 159.059449 
L 267.419504 158.644373 
L 268.37157 158.380062 
L 268.688926 158.163665 
L 269.323636 158.001239 
L 271.862479 157.185241 
L 272.179835 157.11478 
L 272.814545 156.770913 
L 273.449256 156.586128 
L 274.401322 156.179824 
L 275.670744 155.792666 
L 276.305455 155.623784 
L 276.940165 155.342632 
L 284.556694 152.841923 
L 285.191405 152.512701 
L 289.63438 151.05676 
L 290.269091 150.92246 
L 290.903802 150.668856 
L 295.664132 148.870436 
L 296.298843 148.599925 
L 297.88562 148.080369 
L 299.155041 147.573429 
L 300.107107 147.271577 
L 302.328595 146.476927 
L 303.280661 146.121671 
L 305.184793 145.392105 
L 305.819504 145.072065 
L 307.088926 144.692804 
L 307.406281 144.463226 
L 307.723636 144.42611 
L 308.675702 143.954743 
L 309.627769 143.685746 
L 310.262479 143.519101 
L 310.579835 143.275955 
L 311.214545 143.209194 
L 313.436033 142.307839 
L 314.070744 142.067377 
L 315.340165 141.334111 
L 315.974876 141.107997 
L 316.609587 140.805307 
L 316.926942 140.57847 
L 317.561653 140.442566 
L 318.513719 139.947797 
L 321.369917 138.749495 
L 323.27405 138.08752 
L 323.90876 137.800119 
L 325.495537 137.129815 
L 325.812893 136.900727 
L 326.447603 136.613902 
L 327.717025 136.070723 
L 328.03438 135.827186 
L 328.986446 135.471439 
L 329.303802 135.262796 
L 329.621157 135.248632 
L 330.255868 134.951527 
L 330.573223 134.938973 
L 331.525289 134.299854 
L 333.429421 133.683384 
L 334.381488 133.222673 
L 334.698843 133.196131 
L 335.650909 132.642729 
L 336.28562 132.47238 
L 336.920331 132.009449 
L 339.459174 130.714402 
L 339.776529 130.692798 
L 348.979835 126.187324 
L 349.29719 125.842855 
L 349.931901 125.715163 
L 350.249256 125.396291 
L 350.566612 125.289314 
L 351.201322 124.836442 
L 351.836033 124.450986 
L 352.788099 124.026527 
L 353.42281 123.621 
L 354.692231 122.90799 
L 355.644298 122.467943 
L 355.961653 121.942436 
L 356.596364 121.795389 
L 356.913719 121.324103 
L 357.865785 120.857751 
L 358.817851 120.496605 
L 359.452562 120.246562 
L 360.087273 119.865166 
L 360.404628 119.496893 
L 361.67405 118.65747 
L 362.30876 118.154705 
L 362.626116 118.099862 
L 362.943471 117.719443 
L 367.069091 115.249114 
L 368.021157 114.309861 
L 369.607934 113.241325 
L 370.56 112.569407 
L 371.829421 111.359629 
L 372.781488 110.728699 
L 373.416198 110.071306 
L 373.733554 109.978643 
L 375.002975 109.113767 
L 375.320331 108.671971 
L 375.637686 108.437345 
L 375.955041 107.803821 
L 376.272397 107.643779 
L 376.589752 107.255259 
L 376.907107 107.135145 
L 377.541818 106.762232 
L 377.859174 106.136251 
L 378.176529 106.027996 
L 378.81124 105.487619 
L 379.128595 105.404105 
L 379.44595 104.85968 
L 379.763306 104.573479 
L 380.080661 103.997076 
L 380.398017 103.808739 
L 380.715372 103.311445 
L 381.350083 102.926398 
L 381.667438 102.547474 
L 381.984793 102.40268 
L 382.302149 101.896282 
L 382.93686 101.280831 
L 383.254215 100.809553 
L 384.206281 100.003165 
L 385.158347 98.86722 
L 385.475702 97.910113 
L 385.793058 97.697135 
L 386.427769 96.116479 
L 386.745124 95.8903 
L 387.062479 95.329028 
L 387.379835 95.210412 
L 388.014545 94.080882 
L 388.331901 94.055722 
L 388.966612 93.23566 
L 389.918678 91.821742 
L 390.236033 90.49084 
L 390.870744 89.906153 
L 391.188099 89.063983 
L 391.82281 88.031406 
L 392.457521 86.554464 
L 392.774876 85.109828 
L 393.092231 84.815863 
L 393.409587 84.327227 
L 394.361653 81.038038 
L 394.679008 80.782891 
L 394.996364 80.679901 
L 395.313719 78.83594 
L 395.631074 78.352397 
L 396.265785 75.644633 
L 396.58314 72.370025 
L 396.900496 71.047674 
L 397.217851 68.676893 
L 397.535207 67.86056 
L 398.169917 63.276992 
L 398.487273 53.568 
L 398.487273 53.568 
" clip-path="url(#pe1764785c6)" style="fill: none; stroke: #1f77b4; stroke-width: 1.5; stroke-linecap: square"/>
   </g>
   <g id="line2d_15">
    <path d="M 73.832727 271.80191 
L 74.150083 260.146808 
L 74.467438 260.146808 
L 74.784793 250.18407 
L 75.102149 248.114668 
L 75.73686 248.114668 
L 76.054215 244.387013 
L 76.37157 238.094215 
L 76.688926 237.708133 
L 77.006281 237.708133 
L 77.323636 236.734432 
L 78.910413 236.734432 
L 79.227769 233.184295 
L 79.545124 233.184295 
L 79.862479 231.899157 
L 80.179835 231.10518 
L 80.49719 231.10518 
L 80.814545 227.179497 
L 81.131901 225.331646 
L 82.083967 225.299874 
L 82.401322 224.206234 
L 86.844298 224.144141 
L 87.161653 223.54532 
L 87.479008 220.700663 
L 87.796364 220.071814 
L 88.113719 219.087024 
L 89.700496 219.087024 
L 90.017851 217.828755 
L 90.652562 217.828755 
L 90.969917 216.367088 
L 91.287273 216.367088 
L 91.604628 215.605674 
L 91.921983 213.647199 
L 99.221157 213.647199 
L 99.538512 212.480211 
L 99.855868 212.480211 
L 100.173223 212.204168 
L 101.76 212.204168 
L 102.077355 210.994552 
L 103.664132 210.994552 
L 103.981488 210.721707 
L 104.298843 210.250061 
L 104.933554 210.250061 
L 105.250909 208.591237 
L 106.202975 208.507636 
L 106.520331 204.763941 
L 107.155041 204.394038 
L 107.472397 204.394038 
L 107.789752 203.531973 
L 109.376529 203.531973 
L 109.693884 201.640024 
L 110.01124 201.640024 
L 110.328595 199.550015 
L 129.369917 199.549929 
L 129.687273 198.362248 
L 130.321983 197.245223 
L 131.27405 197.174006 
L 131.591405 196.202429 
L 131.90876 196.202429 
L 132.226116 195.980456 
L 132.860826 195.980456 
L 133.178182 194.110103 
L 133.495537 194.110103 
L 133.812893 193.718453 
L 135.399669 193.718453 
L 135.717025 192.123452 
L 136.03438 191.908375 
L 136.351736 191.548254 
L 136.986446 191.457456 
L 163.009587 191.457456 
L 163.326942 189.80205 
L 167.135207 189.80205 
L 167.452562 189.499517 
L 167.769917 189.499517 
L 168.087273 187.450737 
L 168.404628 187.450737 
L 168.721983 186.90388 
L 169.356694 186.90388 
L 169.67405 186.550984 
L 169.991405 185.705736 
L 171.578182 185.705736 
L 172.212893 185.109776 
L 172.530248 185.109776 
L 172.847603 184.856942 
L 180.146777 184.856942 
L 180.464132 184.42175 
L 180.781488 184.42175 
L 181.098843 183.994877 
L 182.68562 183.994877 
L 183.320331 180.012833 
L 185.541818 179.977411 
L 185.859174 179.746054 
L 186.493884 179.746054 
L 186.81124 179.396595 
L 187.128595 178.520875 
L 187.44595 178.520875 
L 187.763306 177.927759 
L 188.080661 177.927759 
L 188.398017 175.451655 
L 188.715372 171.920361 
L 283.604628 171.920361 
L 284.239339 165.912962 
L 284.556694 165.912962 
L 284.87405 165.319846 
L 285.191405 165.319846 
L 285.50876 164.444126 
L 285.826116 164.094667 
L 286.460826 164.094667 
L 286.778182 163.86331 
L 288.999669 163.827888 
L 289.63438 159.845844 
L 291.221157 159.845844 
L 291.538512 159.418971 
L 291.855868 159.418971 
L 292.173223 158.983779 
L 299.472397 158.983779 
L 299.789752 158.730945 
L 300.107107 158.730945 
L 300.741818 158.134985 
L 302.328595 158.134985 
L 302.64595 157.289738 
L 302.963306 156.936842 
L 303.598017 156.936842 
L 303.915372 156.389984 
L 304.232727 156.389984 
L 304.550083 154.341205 
L 304.867438 154.341205 
L 305.184793 154.038671 
L 308.993058 154.038671 
L 309.310413 152.383265 
L 335.968264 152.292468 
L 336.602975 151.717269 
L 336.920331 150.122268 
L 338.507107 150.122268 
L 338.824463 149.730618 
L 339.141818 149.730618 
L 339.459174 147.860266 
L 340.093884 147.860266 
L 340.41124 147.638293 
L 340.728595 147.638293 
L 341.04595 146.666715 
L 341.680661 146.595498 
L 341.998017 146.595498 
L 342.315372 146.163157 
L 342.632727 145.478473 
L 342.950083 144.290793 
L 361.991405 144.290706 
L 362.30876 142.200697 
L 362.626116 142.200697 
L 362.943471 140.308749 
L 364.530248 140.308749 
L 364.847603 139.446684 
L 365.164959 139.446684 
L 365.799669 139.07678 
L 366.117025 135.333085 
L 367.069091 135.249484 
L 367.386446 133.59066 
L 368.021157 133.59066 
L 368.655868 132.846169 
L 370.242645 132.846169 
L 370.56 131.636554 
L 372.146777 131.636554 
L 372.464132 131.360511 
L 372.781488 131.360511 
L 373.098843 130.193522 
L 380.398017 130.193522 
L 380.715372 128.235048 
L 381.032727 127.473634 
L 381.350083 127.473634 
L 381.667438 126.011966 
L 382.302149 126.011966 
L 382.619504 124.753697 
L 384.206281 124.753697 
L 384.840992 123.140058 
L 385.158347 120.295401 
L 385.475702 119.696581 
L 389.918678 119.634488 
L 390.236033 118.540847 
L 391.188099 118.509075 
L 391.505455 116.661225 
L 391.82281 112.735542 
L 392.140165 112.735542 
L 392.457521 111.941565 
L 392.774876 110.656427 
L 393.092231 110.656427 
L 393.409587 107.106289 
L 394.996364 107.106289 
L 395.313719 106.132588 
L 395.631074 106.132588 
L 395.94843 105.746507 
L 396.265785 99.453709 
L 396.58314 95.726054 
L 397.217851 95.726054 
L 397.535207 93.656652 
L 397.852562 83.693914 
L 398.169917 83.693914 
L 398.487273 72.038812 
L 398.487273 72.038812 
" clip-path="url(#pe1764785c6)" style="fill: none; stroke: #ff7f0e; stroke-width: 1.5; stroke-linecap: square"/>
   </g>
   <g id="patch_3">
    <path d="M 57.6 307.584 
L 57.6 41.472 
" style="fill: none; stroke: #000000; stroke-width: 0.8; stroke-linejoin: miter; stroke-linecap: square"/>
   </g>
   <g id="patch_4">
    <path d="M 414.72 307.584 
L 414.72 41.472 
" style="fill: none; stroke: #000000; stroke-width: 0.8; stroke-linejoin: miter; stroke-linecap: square"/>
   </g>
   <g id="patch_5">
    <path d="M 57.6 307.584 
L 414.72 307.584 
" style="fill: none; stroke: #000000; stroke-width: 0.8; stroke-linejoin: miter; stroke-linecap: square"/>
   </g>
   <g id="patch_6">
    <path d="M 57.6 41.472 
L 414.72 41.472 
" style="fill: none; stroke: #000000; stroke-width: 0.8; stroke-linejoin: miter; stroke-linecap: square"/>
   </g>
   <g id="legend_1">
    <g id="patch_7">
     <path d="M 64.6 78.82825 
L 129.342187 78.82825 
Q 131.342187 78.82825 131.342187 76.82825 
L 131.342187 48.472 
Q 131.342187 46.472 129.342187 46.472 
L 64.6 46.472 
Q 62.6 46.472 62.6 48.472 
L 62.6 76.82825 
Q 62.6 78.82825 64.6 78.82825 
z
" style="fill: #ffffff; opacity: 0.8; stroke: #cccccc; stroke-linejoin: miter"/>
    </g>
    <g id="line2d_16">
     <path d="M 66.6 54.570437 
L 76.6 54.570437 
L 86.6 54.570437 
" style="fill: none; stroke: #1f77b4; stroke-width: 1.5; stroke-linecap: square"/>
    </g>
    <g id="text_16">
     <!-- qc -->
     <g transform="translate(94.6 58.070437) scale(0.1 -0.1)">
      <defs>
       <path id="DejaVuSans-71" d="M 947 1747 
Q 947 1113 1208 752 
Q 1469 391 1925 391 
Q 2381 391 2643 752 
Q 2906 1113 2906 1747 
Q 2906 2381 2643 2742 
Q 2381 3103 1925 3103 
Q 1469 3103 1208 2742 
Q 947 2381 947 1747 
z
M 2906 525 
Q 2725 213 2448 61 
Q 2172 -91 1784 -91 
Q 1150 -91 751 415 
Q 353 922 353 1747 
Q 353 2572 751 3078 
Q 1150 3584 1784 3584 
Q 2172 3584 2448 3432 
Q 2725 3281 2906 2969 
L 2906 3500 
L 3481 3500 
L 3481 -1331 
L 2906 -1331 
L 2906 525 
z
" transform="scale(0.015625)"/>
       <path id="DejaVuSans-63" d="M 3122 3366 
L 3122 2828 
Q 2878 2963 2633 3030 
Q 2388 3097 2138 3097 
Q 1578 3097 1268 2742 
Q 959 2388 959 1747 
Q 959 1106 1268 751 
Q 1578 397 2138 397 
Q 2388 397 2633 464 
Q 2878 531 3122 666 
L 3122 134 
Q 2881 22 2623 -34 
Q 2366 -91 2075 -91 
Q 1284 -91 818 406 
Q 353 903 353 1747 
Q 353 2603 823 3093 
Q 1294 3584 2113 3584 
Q 2378 3584 2631 3529 
Q 2884 3475 3122 3366 
z
" transform="scale(0.015625)"/>
      </defs>
      <use xlink:href="#DejaVuSans-71"/>
      <use xlink:href="#DejaVuSans-63" x="63.476562"/>
     </g>
    </g>
    <g id="line2d_17">
     <path d="M 66.6 69.248562 
L 76.6 69.248562 
L 86.6 69.248562 
" style="fill: none; stroke: #ff7f0e; stroke-width: 1.5; stroke-linecap: square"/>
    </g>
    <g id="text_17">
     <!-- Trotter -->
     <g transform="translate(94.6 72.748562) scale(0.1 -0.1)">
      <defs>
       <path id="DejaVuSans-54" d="M -19 4666 
L 3928 4666 
L 3928 4134 
L 2272 4134 
L 2272 0 
L 1638 0 
L 1638 4134 
L -19 4134 
L -19 4666 
z
" transform="scale(0.015625)"/>
       <path id="DejaVuSans-72" d="M 2631 2963 
Q 2534 3019 2420 3045 
Q 2306 3072 2169 3072 
Q 1681 3072 1420 2755 
Q 1159 2438 1159 1844 
L 1159 0 
L 581 0 
L 581 3500 
L 1159 3500 
L 1159 2956 
Q 1341 3275 1631 3429 
Q 1922 3584 2338 3584 
Q 2397 3584 2469 3576 
Q 2541 3569 2628 3553 
L 2631 2963 
z
" transform="scale(0.015625)"/>
       <path id="DejaVuSans-6f" d="M 1959 3097 
Q 1497 3097 1228 2736 
Q 959 2375 959 1747 
Q 959 1119 1226 758 
Q 1494 397 1959 397 
Q 2419 397 2687 759 
Q 2956 1122 2956 1747 
Q 2956 2369 2687 2733 
Q 2419 3097 1959 3097 
z
M 1959 3584 
Q 2709 3584 3137 3096 
Q 3566 2609 3566 1747 
Q 3566 888 3137 398 
Q 2709 -91 1959 -91 
Q 1206 -91 779 398 
Q 353 888 353 1747 
Q 353 2609 779 3096 
Q 1206 3584 1959 3584 
z
" transform="scale(0.015625)"/>
       <path id="DejaVuSans-65" d="M 3597 1894 
L 3597 1613 
L 953 1613 
Q 991 1019 1311 708 
Q 1631 397 2203 397 
Q 2534 397 2845 478 
Q 3156 559 3463 722 
L 3463 178 
Q 3153 47 2828 -22 
Q 2503 -91 2169 -91 
Q 1331 -91 842 396 
Q 353 884 353 1716 
Q 353 2575 817 3079 
Q 1281 3584 2069 3584 
Q 2775 3584 3186 3129 
Q 3597 2675 3597 1894 
z
M 3022 2063 
Q 3016 2534 2758 2815 
Q 2500 3097 2075 3097 
Q 1594 3097 1305 2825 
Q 1016 2553 972 2059 
L 3022 2063 
z
" transform="scale(0.015625)"/>
      </defs>
      <use xlink:href="#DejaVuSans-54"/>
      <use xlink:href="#DejaVuSans-72" x="46.333984"/>
      <use xlink:href="#DejaVuSans-6f" x="85.197266"/>
      <use xlink:href="#DejaVuSans-74" x="146.378906"/>
      <use xlink:href="#DejaVuSans-74" x="185.587891"/>
      <use xlink:href="#DejaVuSans-65" x="224.796875"/>
      <use xlink:href="#DejaVuSans-72" x="286.320312"/>
     </g>
    </g>
   </g>
  </g>
 </g>
 <defs>
  <clipPath id="pe1764785c6">
   <rect x="57.6" y="41.472" width="357.12" height="266.112"/>
  </clipPath>
 </defs>
</svg>
