<?xml version="1.0" encoding="utf-8" standalone="no"?>
<!DOCTYPE svg PUBLIC "-//W3C//DTD SVG 1.1//EN"
  "http://www.w3.org/Graphics/SVG/1.1/DTD/svg11.dtd">
<svg xmlns:xlink="http://www.w3.org/1999/xlink" width="460.8pt" height="345.6pt" viewBox="0 0 460.8 345.6" xmlns="http://www.w3.org/2000/svg" version="1.1">
 <metadata>
  <rdf:RDF xmlns:dc="http://purl.org/dc/elements/1.1/" xmlns:cc="http://creativecommons.org/ns#" xmlns:rdf="http://www.w3.org/1999/02/22-rdf-syntax-ns#">
   <cc:Work>
    <dc:type rdf:resource="http://purl.org/dc/dcmitype/StillImage"/>
    <dc:date>2024-07-13T22:50:40.588695</dc:date>
    <dc:format>image/svg+xml</dc:format>
    <dc:creator>
     <cc:Agent>
      <dc:title>Matplotlib v3.7.1, https://matplotlib.org/</dc:title>
     </cc:Agent>
    </dc:creator>
   </cc:Work>
  </rdf:RDF>
 </metadata>
 <defs>
  <style type="text/css">*{stroke-linejoin: round; stroke-linecap: butt}</style>
 </defs>
 <g id="figure_1">
  <g id="patch_1">
   <path d="M 0 345.6 
L 460.8 345.6 
L 460.8 0 
L 0 0 
z
" style="fill: #ffffff"/>
  </g>
  <g id="axes_1">
   <g id="patch_2">
    <path d="M 57.6 307.584 
L 414.72 307.584 
L 414.72 41.472 
L 57.6 41.472 
z
" style="fill: #ffffff"/>
   </g>
   <g id="matplotlib.axis_1">
    <g id="xtick_1">
     <g id="line2d_1">
      <defs>
       <path id="mc5e01370e3" d="M 0 0 
L 0 3.5 
" style="stroke: #000000; stroke-width: 0.8"/>
      </defs>
      <g>
       <use xlink:href="#mc5e01370e3" x="73.832727" y="307.584" style="stroke: #000000; stroke-width: 0.8"/>
      </g>
     </g>
     <g id="text_1">
      <!-- 0 -->
      <g transform="translate(70.651477 322.182437) scale(0.1 -0.1)">
       <defs>
        <path id="DejaVuSans-30" d="M 2034 4250 
Q 1547 4250 1301 3770 
Q 1056 3291 1056 2328 
Q 1056 1369 1301 889 
Q 1547 409 2034 409 
Q 2525 409 2770 889 
Q 3016 1369 3016 2328 
Q 3016 3291 2770 3770 
Q 2525 4250 2034 4250 
z
M 2034 4750 
Q 2819 4750 3233 4129 
Q 3647 3509 3647 2328 
Q 3647 1150 3233 529 
Q 2819 -91 2034 -91 
Q 1250 -91 836 529 
Q 422 1150 422 2328 
Q 422 3509 836 4129 
Q 1250 4750 2034 4750 
z
" transform="scale(0.015625)"/>
       </defs>
       <use xlink:href="#DejaVuSans-30"/>
      </g>
     </g>
    </g>
    <g id="xtick_2">
     <g id="line2d_2">
      <g>
       <use xlink:href="#mc5e01370e3" x="137.303802" y="307.584" style="stroke: #000000; stroke-width: 0.8"/>
      </g>
     </g>
     <g id="text_2">
      <!-- 200 -->
      <g transform="translate(127.760052 322.182437) scale(0.1 -0.1)">
       <defs>
        <path id="DejaVuSans-32" d="M 1228 531 
L 3431 531 
L 3431 0 
L 469 0 
L 469 531 
Q 828 903 1448 1529 
Q 2069 2156 2228 2338 
Q 2531 2678 2651 2914 
Q 2772 3150 2772 3378 
Q 2772 3750 2511 3984 
Q 2250 4219 1831 4219 
Q 1534 4219 1204 4116 
Q 875 4013 500 3803 
L 500 4441 
Q 881 4594 1212 4672 
Q 1544 4750 1819 4750 
Q 2544 4750 2975 4387 
Q 3406 4025 3406 3419 
Q 3406 3131 3298 2873 
Q 3191 2616 2906 2266 
Q 2828 2175 2409 1742 
Q 1991 1309 1228 531 
z
" transform="scale(0.015625)"/>
       </defs>
       <use xlink:href="#DejaVuSans-32"/>
       <use xlink:href="#DejaVuSans-30" x="63.623047"/>
       <use xlink:href="#DejaVuSans-30" x="127.246094"/>
      </g>
     </g>
    </g>
    <g id="xtick_3">
     <g id="line2d_3">
      <g>
       <use xlink:href="#mc5e01370e3" x="200.774876" y="307.584" style="stroke: #000000; stroke-width: 0.8"/>
      </g>
     </g>
     <g id="text_3">
      <!-- 400 -->
      <g transform="translate(191.231126 322.182437) scale(0.1 -0.1)">
       <defs>
        <path id="DejaVuSans-34" d="M 2419 4116 
L 825 1625 
L 2419 1625 
L 2419 4116 
z
M 2253 4666 
L 3047 4666 
L 3047 1625 
L 3713 1625 
L 3713 1100 
L 3047 1100 
L 3047 0 
L 2419 0 
L 2419 1100 
L 313 1100 
L 313 1709 
L 2253 4666 
z
" transform="scale(0.015625)"/>
       </defs>
       <use xlink:href="#DejaVuSans-34"/>
       <use xlink:href="#DejaVuSans-30" x="63.623047"/>
       <use xlink:href="#DejaVuSans-30" x="127.246094"/>
      </g>
     </g>
    </g>
    <g id="xtick_4">
     <g id="line2d_4">
      <g>
       <use xlink:href="#mc5e01370e3" x="264.24595" y="307.584" style="stroke: #000000; stroke-width: 0.8"/>
      </g>
     </g>
     <g id="text_4">
      <!-- 600 -->
      <g transform="translate(254.7022 322.182437) scale(0.1 -0.1)">
       <defs>
        <path id="DejaVuSans-36" d="M 2113 2584 
Q 1688 2584 1439 2293 
Q 1191 2003 1191 1497 
Q 1191 994 1439 701 
Q 1688 409 2113 409 
Q 2538 409 2786 701 
Q 3034 994 3034 1497 
Q 3034 2003 2786 2293 
Q 2538 2584 2113 2584 
z
M 3366 4563 
L 3366 3988 
Q 3128 4100 2886 4159 
Q 2644 4219 2406 4219 
Q 1781 4219 1451 3797 
Q 1122 3375 1075 2522 
Q 1259 2794 1537 2939 
Q 1816 3084 2150 3084 
Q 2853 3084 3261 2657 
Q 3669 2231 3669 1497 
Q 3669 778 3244 343 
Q 2819 -91 2113 -91 
Q 1303 -91 875 529 
Q 447 1150 447 2328 
Q 447 3434 972 4092 
Q 1497 4750 2381 4750 
Q 2619 4750 2861 4703 
Q 3103 4656 3366 4563 
z
" transform="scale(0.015625)"/>
       </defs>
       <use xlink:href="#DejaVuSans-36"/>
       <use xlink:href="#DejaVuSans-30" x="63.623047"/>
       <use xlink:href="#DejaVuSans-30" x="127.246094"/>
      </g>
     </g>
    </g>
    <g id="xtick_5">
     <g id="line2d_5">
      <g>
       <use xlink:href="#mc5e01370e3" x="327.717025" y="307.584" style="stroke: #000000; stroke-width: 0.8"/>
      </g>
     </g>
     <g id="text_5">
      <!-- 800 -->
      <g transform="translate(318.173275 322.182437) scale(0.1 -0.1)">
       <defs>
        <path id="DejaVuSans-38" d="M 2034 2216 
Q 1584 2216 1326 1975 
Q 1069 1734 1069 1313 
Q 1069 891 1326 650 
Q 1584 409 2034 409 
Q 2484 409 2743 651 
Q 3003 894 3003 1313 
Q 3003 1734 2745 1975 
Q 2488 2216 2034 2216 
z
M 1403 2484 
Q 997 2584 770 2862 
Q 544 3141 544 3541 
Q 544 4100 942 4425 
Q 1341 4750 2034 4750 
Q 2731 4750 3128 4425 
Q 3525 4100 3525 3541 
Q 3525 3141 3298 2862 
Q 3072 2584 2669 2484 
Q 3125 2378 3379 2068 
Q 3634 1759 3634 1313 
Q 3634 634 3220 271 
Q 2806 -91 2034 -91 
Q 1263 -91 848 271 
Q 434 634 434 1313 
Q 434 1759 690 2068 
Q 947 2378 1403 2484 
z
M 1172 3481 
Q 1172 3119 1398 2916 
Q 1625 2713 2034 2713 
Q 2441 2713 2670 2916 
Q 2900 3119 2900 3481 
Q 2900 3844 2670 4047 
Q 2441 4250 2034 4250 
Q 1625 4250 1398 4047 
Q 1172 3844 1172 3481 
z
" transform="scale(0.015625)"/>
       </defs>
       <use xlink:href="#DejaVuSans-38"/>
       <use xlink:href="#DejaVuSans-30" x="63.623047"/>
       <use xlink:href="#DejaVuSans-30" x="127.246094"/>
      </g>
     </g>
    </g>
    <g id="xtick_6">
     <g id="line2d_6">
      <g>
       <use xlink:href="#mc5e01370e3" x="391.188099" y="307.584" style="stroke: #000000; stroke-width: 0.8"/>
      </g>
     </g>
     <g id="text_6">
      <!-- 1000 -->
      <g transform="translate(378.463099 322.182437) scale(0.1 -0.1)">
       <defs>
        <path id="DejaVuSans-31" d="M 794 531 
L 1825 531 
L 1825 4091 
L 703 3866 
L 703 4441 
L 1819 4666 
L 2450 4666 
L 2450 531 
L 3481 531 
L 3481 0 
L 794 0 
L 794 531 
z
" transform="scale(0.015625)"/>
       </defs>
       <use xlink:href="#DejaVuSans-31"/>
       <use xlink:href="#DejaVuSans-30" x="63.623047"/>
       <use xlink:href="#DejaVuSans-30" x="127.246094"/>
       <use xlink:href="#DejaVuSans-30" x="190.869141"/>
      </g>
     </g>
    </g>
    <g id="text_7">
     <!-- n -->
     <g transform="translate(232.99125 335.860562) scale(0.1 -0.1)">
      <defs>
       <path id="DejaVuSans-6e" d="M 3513 2113 
L 3513 0 
L 2938 0 
L 2938 2094 
Q 2938 2591 2744 2837 
Q 2550 3084 2163 3084 
Q 1697 3084 1428 2787 
Q 1159 2491 1159 1978 
L 1159 0 
L 581 0 
L 581 3500 
L 1159 3500 
L 1159 2956 
Q 1366 3272 1645 3428 
Q 1925 3584 2291 3584 
Q 2894 3584 3203 3211 
Q 3513 2838 3513 2113 
z
" transform="scale(0.015625)"/>
      </defs>
      <use xlink:href="#DejaVuSans-6e"/>
     </g>
    </g>
   </g>
   <g id="matplotlib.axis_2">
    <g id="ytick_1">
     <g id="line2d_7">
      <defs>
       <path id="m7ca84ec098" d="M 0 0 
L -3.5 0 
" style="stroke: #000000; stroke-width: 0.8"/>
      </defs>
      <g>
       <use xlink:href="#m7ca84ec098" x="57.6" y="286.599067" style="stroke: #000000; stroke-width: 0.8"/>
      </g>
     </g>
     <g id="text_8">
      <!-- −1.0 -->
      <g transform="translate(26.317187 290.398286) scale(0.1 -0.1)">
       <defs>
        <path id="DejaVuSans-2212" d="M 678 2272 
L 4684 2272 
L 4684 1741 
L 678 1741 
L 678 2272 
z
" transform="scale(0.015625)"/>
        <path id="DejaVuSans-2e" d="M 684 794 
L 1344 794 
L 1344 0 
L 684 0 
L 684 794 
z
" transform="scale(0.015625)"/>
       </defs>
       <use xlink:href="#DejaVuSans-2212"/>
       <use xlink:href="#DejaVuSans-31" x="83.789062"/>
       <use xlink:href="#DejaVuSans-2e" x="147.412109"/>
       <use xlink:href="#DejaVuSans-30" x="179.199219"/>
      </g>
     </g>
    </g>
    <g id="ytick_2">
     <g id="line2d_8">
      <g>
       <use xlink:href="#m7ca84ec098" x="57.6" y="228.988869" style="stroke: #000000; stroke-width: 0.8"/>
      </g>
     </g>
     <g id="text_9">
      <!-- −0.5 -->
      <g transform="translate(26.317187 232.788088) scale(0.1 -0.1)">
       <defs>
        <path id="DejaVuSans-35" d="M 691 4666 
L 3169 4666 
L 3169 4134 
L 1269 4134 
L 1269 2991 
Q 1406 3038 1543 3061 
Q 1681 3084 1819 3084 
Q 2600 3084 3056 2656 
Q 3513 2228 3513 1497 
Q 3513 744 3044 326 
Q 2575 -91 1722 -91 
Q 1428 -91 1123 -41 
Q 819 9 494 109 
L 494 744 
Q 775 591 1075 516 
Q 1375 441 1709 441 
Q 2250 441 2565 725 
Q 2881 1009 2881 1497 
Q 2881 1984 2565 2268 
Q 2250 2553 1709 2553 
Q 1456 2553 1204 2497 
Q 953 2441 691 2322 
L 691 4666 
z
" transform="scale(0.015625)"/>
       </defs>
       <use xlink:href="#DejaVuSans-2212"/>
       <use xlink:href="#DejaVuSans-30" x="83.789062"/>
       <use xlink:href="#DejaVuSans-2e" x="147.412109"/>
       <use xlink:href="#DejaVuSans-35" x="179.199219"/>
      </g>
     </g>
    </g>
    <g id="ytick_3">
     <g id="line2d_9">
      <g>
       <use xlink:href="#m7ca84ec098" x="57.6" y="171.378671" style="stroke: #000000; stroke-width: 0.8"/>
      </g>
     </g>
     <g id="text_10">
      <!-- 0.0 -->
      <g transform="translate(34.696875 175.177889) scale(0.1 -0.1)">
       <use xlink:href="#DejaVuSans-30"/>
       <use xlink:href="#DejaVuSans-2e" x="63.623047"/>
       <use xlink:href="#DejaVuSans-30" x="95.410156"/>
      </g>
     </g>
    </g>
    <g id="ytick_4">
     <g id="line2d_10">
      <g>
       <use xlink:href="#m7ca84ec098" x="57.6" y="113.768472" style="stroke: #000000; stroke-width: 0.8"/>
      </g>
     </g>
     <g id="text_11">
      <!-- 0.5 -->
      <g transform="translate(34.696875 117.567691) scale(0.1 -0.1)">
       <use xlink:href="#DejaVuSans-30"/>
       <use xlink:href="#DejaVuSans-2e" x="63.623047"/>
       <use xlink:href="#DejaVuSans-35" x="95.410156"/>
      </g>
     </g>
    </g>
    <g id="ytick_5">
     <g id="line2d_11">
      <g>
       <use xlink:href="#m7ca84ec098" x="57.6" y="56.158274" style="stroke: #000000; stroke-width: 0.8"/>
      </g>
     </g>
     <g id="text_12">
      <!-- 1.0 -->
      <g transform="translate(34.696875 59.957493) scale(0.1 -0.1)">
       <use xlink:href="#DejaVuSans-31"/>
       <use xlink:href="#DejaVuSans-2e" x="63.623047"/>
       <use xlink:href="#DejaVuSans-30" x="95.410156"/>
      </g>
     </g>
    </g>
    <g id="text_13">
     <!-- E*t -->
     <g transform="translate(20.2375 182.147531) rotate(-90) scale(0.1 -0.1)">
      <defs>
       <path id="DejaVuSans-45" d="M 628 4666 
L 3578 4666 
L 3578 4134 
L 1259 4134 
L 1259 2753 
L 3481 2753 
L 3481 2222 
L 1259 2222 
L 1259 531 
L 3634 531 
L 3634 0 
L 628 0 
L 628 4666 
z
" transform="scale(0.015625)"/>
       <path id="DejaVuSans-2a" d="M 3009 3897 
L 1888 3291 
L 3009 2681 
L 2828 2375 
L 1778 3009 
L 1778 1831 
L 1422 1831 
L 1422 3009 
L 372 2375 
L 191 2681 
L 1313 3291 
L 191 3897 
L 372 4206 
L 1422 3572 
L 1422 4750 
L 1778 4750 
L 1778 3572 
L 2828 4206 
L 3009 3897 
z
" transform="scale(0.015625)"/>
       <path id="DejaVuSans-74" d="M 1172 4494 
L 1172 3500 
L 2356 3500 
L 2356 3053 
L 1172 3053 
L 1172 1153 
Q 1172 725 1289 603 
Q 1406 481 1766 481 
L 2356 481 
L 2356 0 
L 1766 0 
Q 1100 0 847 248 
Q 594 497 594 1153 
L 594 3053 
L 172 3053 
L 172 3500 
L 594 3500 
L 594 4494 
L 1172 4494 
z
" transform="scale(0.015625)"/>
      </defs>
      <use xlink:href="#DejaVuSans-45"/>
      <use xlink:href="#DejaVuSans-2a" x="63.183594"/>
      <use xlink:href="#DejaVuSans-74" x="113.183594"/>
     </g>
    </g>
   </g>
   <g id="line2d_12">
    <path d="M 73.832727 295.488 
L 74.150083 281.660148 
L 74.467438 280.531463 
L 74.784793 269.787444 
L 75.102149 267.062991 
L 75.419504 266.322431 
L 75.73686 265.933459 
L 76.37157 255.900663 
L 76.688926 255.126541 
L 77.006281 254.987023 
L 77.640992 253.441605 
L 77.958347 253.095795 
L 78.275702 252.439395 
L 78.593058 252.360889 
L 78.910413 251.827306 
L 79.227769 249.924567 
L 79.545124 249.301793 
L 79.862479 246.910572 
L 80.179835 246.684468 
L 80.49719 246.255768 
L 81.131901 241.916086 
L 81.449256 241.800102 
L 81.766612 240.807609 
L 82.083967 240.637741 
L 83.036033 239.405225 
L 83.353388 239.350352 
L 83.670744 239.122005 
L 83.988099 238.535916 
L 84.305455 238.419449 
L 85.257521 237.620389 
L 86.209587 236.794579 
L 86.526942 236.719591 
L 86.844298 235.546707 
L 87.796364 233.510267 
L 89.700496 232.314406 
L 90.017851 232.057396 
L 90.652562 230.757323 
L 90.969917 229.451895 
L 91.604628 229.236003 
L 92.239339 228.416139 
L 92.556694 228.286889 
L 92.87405 227.86191 
L 93.191405 227.671219 
L 93.826116 226.844517 
L 95.730248 225.573649 
L 96.047603 225.547347 
L 96.682314 225.054903 
L 98.903802 223.850489 
L 99.221157 223.787764 
L 99.855868 223.421671 
L 100.173223 223.412195 
L 101.442645 222.786301 
L 102.394711 222.475134 
L 102.712066 222.398115 
L 103.029421 222.018906 
L 103.346777 221.838805 
L 103.664132 221.207147 
L 103.981488 221.068401 
L 104.298843 220.538514 
L 105.88562 219.141252 
L 106.202975 218.375156 
L 106.837686 216.25105 
L 107.155041 215.998388 
L 107.472397 215.589204 
L 107.789752 215.519692 
L 108.107107 215.309947 
L 108.424463 214.963783 
L 108.741818 214.155164 
L 109.059174 213.711011 
L 109.693884 213.423196 
L 110.328595 212.893095 
L 110.963306 212.652163 
L 111.915372 212.259211 
L 112.550083 211.82162 
L 113.184793 211.645042 
L 114.13686 211.412647 
L 114.77157 211.23156 
L 115.723636 210.46378 
L 118.262479 209.793078 
L 119.214545 209.16404 
L 120.483967 208.826818 
L 121.436033 208.431047 
L 121.753388 208.397853 
L 122.705455 207.973295 
L 125.244298 207.394696 
L 125.561653 207.138238 
L 129.369917 206.044024 
L 130.004628 205.714967 
L 130.639339 205.520517 
L 131.27405 204.988921 
L 131.90876 204.807054 
L 132.543471 204.372804 
L 133.178182 204.088147 
L 133.495537 203.830132 
L 133.812893 203.784987 
L 134.447603 203.533366 
L 136.351736 202.885923 
L 136.669091 202.719787 
L 136.986446 202.694817 
L 137.621157 202.477301 
L 138.890579 202.160563 
L 142.064132 201.268928 
L 142.381488 201.225764 
L 143.016198 200.973314 
L 146.824463 199.982162 
L 147.459174 199.766546 
L 148.41124 199.641271 
L 149.363306 199.375375 
L 149.680661 199.093958 
L 159.518678 196.906169 
L 159.836033 196.756578 
L 160.470744 196.660856 
L 162.692231 195.920134 
L 163.009587 195.670615 
L 163.644298 195.52774 
L 164.913719 195.020703 
L 166.18314 194.642182 
L 167.452562 194.127318 
L 169.356694 193.623546 
L 169.67405 193.389567 
L 170.943471 193.159176 
L 171.260826 193.017438 
L 171.578182 192.75357 
L 172.212893 192.653764 
L 174.117025 191.818356 
L 174.43438 191.593672 
L 174.751736 191.526875 
L 175.386446 191.188461 
L 176.655868 190.729402 
L 179.829421 189.359416 
L 180.146777 189.115278 
L 180.781488 188.94556 
L 181.416198 188.321709 
L 182.050909 188.194892 
L 182.68562 187.639702 
L 183.320331 187.567117 
L 183.637686 187.453735 
L 184.589752 186.749448 
L 184.907107 186.718721 
L 185.224463 186.447413 
L 185.541818 186.336688 
L 185.859174 185.911023 
L 186.176529 185.894725 
L 187.763306 185.170272 
L 188.080661 184.936672 
L 189.350083 184.577697 
L 189.667438 184.230194 
L 189.984793 184.150923 
L 190.619504 183.828677 
L 190.93686 183.814079 
L 192.206281 183.175495 
L 194.427769 182.616363 
L 195.062479 182.333175 
L 199.188099 181.085847 
L 200.140165 180.888856 
L 205.217851 179.76962 
L 207.121983 179.514955 
L 211.247603 178.832964 
L 212.517025 178.701255 
L 217.277355 178.028749 
L 218.546777 177.867836 
L 219.816198 177.740524 
L 220.768264 177.589283 
L 230.923636 176.458886 
L 233.462479 176.184976 
L 234.414545 176.09799 
L 243.617851 174.994921 
L 245.521983 174.775432 
L 247.10876 174.551692 
L 249.964959 174.23308 
L 253.773223 173.717318 
L 255.042645 173.57593 
L 257.581488 173.200952 
L 258.850909 173.047087 
L 272.814545 170.542684 
L 273.766612 170.322177 
L 274.401322 170.172081 
L 275.670744 169.75808 
L 276.305455 169.631329 
L 277.574876 169.25306 
L 278.844298 169.077016 
L 280.431074 168.640691 
L 281.065785 168.588226 
L 282.335207 168.087863 
L 284.87405 167.559528 
L 285.50876 167.296402 
L 288.047603 166.02376 
L 288.364959 165.45224 
L 288.682314 165.159582 
L 288.999669 165.072965 
L 289.317025 164.415616 
L 289.951736 164.203137 
L 291.221157 163.115957 
L 292.173223 162.766191 
L 292.490579 162.569441 
L 292.807934 162.537356 
L 293.442645 161.892349 
L 294.077355 161.748257 
L 295.346777 161.329209 
L 296.616198 160.826007 
L 298.202975 160.304346 
L 299.155041 159.958484 
L 302.64595 158.162365 
L 308.358347 156.578141 
L 308.993058 156.371607 
L 310.89719 155.857511 
L 311.531901 155.536643 
L 313.118678 154.990824 
L 314.388099 154.732 
L 315.02281 154.500744 
L 316.292231 154.22015 
L 316.609587 154.01267 
L 319.14843 153.530771 
L 320.417851 153.31902 
L 321.369917 153.058083 
L 323.27405 152.762219 
L 324.543471 152.461837 
L 324.860826 152.408132 
L 325.495537 152.125355 
L 326.447603 152.003668 
L 330.255868 151.142644 
L 330.890579 150.913406 
L 331.842645 150.71649 
L 332.477355 150.540933 
L 332.794711 150.177544 
L 333.112066 150.144495 
L 333.429421 149.913675 
L 335.016198 149.575661 
L 336.28562 149.054381 
L 336.920331 148.936368 
L 337.555041 148.64608 
L 340.093884 147.785806 
L 340.728595 147.607832 
L 341.680661 147.251398 
L 342.632727 146.907174 
L 344.854215 146.398649 
L 345.17157 146.11745 
L 346.758347 145.509259 
L 347.393058 145.231418 
L 349.931901 144.191629 
L 350.883967 143.886168 
L 351.836033 143.673968 
L 352.153388 143.444851 
L 353.42281 143.116055 
L 354.057521 142.787347 
L 354.374876 142.6902 
L 354.692231 142.466372 
L 355.326942 142.321265 
L 356.913719 141.580093 
L 358.500496 141.040969 
L 359.769917 140.304172 
L 360.087273 140.23524 
L 360.721983 139.698338 
L 361.991405 139.159931 
L 362.30876 138.725707 
L 363.578182 137.977697 
L 364.212893 137.427285 
L 364.530248 136.995267 
L 364.847603 136.288719 
L 365.164959 135.881165 
L 365.799669 135.469302 
L 366.117025 135.426051 
L 366.43438 135.260763 
L 366.751736 134.932484 
L 367.069091 134.069526 
L 367.386446 133.83707 
L 368.021157 132.373897 
L 368.655868 131.473106 
L 370.242645 130.678304 
L 370.56 130.416713 
L 370.877355 130.373473 
L 371.512066 129.987164 
L 372.146777 129.733083 
L 372.781488 129.402393 
L 373.098843 129.081588 
L 373.416198 128.981648 
L 373.733554 128.479086 
L 374.050909 128.42564 
L 374.68562 127.774257 
L 375.637686 127.304451 
L 375.955041 126.94461 
L 376.907107 126.577151 
L 377.859174 125.602854 
L 378.493884 125.410373 
L 379.128595 125.002244 
L 379.44595 124.86407 
L 379.763306 124.342833 
L 380.080661 124.105274 
L 380.398017 124.078538 
L 381.032727 123.624233 
L 381.667438 122.748721 
L 381.984793 122.430374 
L 382.302149 122.352609 
L 382.93686 121.599734 
L 383.57157 121.353643 
L 383.888926 120.4451 
L 384.206281 120.384664 
L 384.840992 119.564653 
L 385.158347 118.519905 
L 385.475702 118.432462 
L 385.793058 117.582849 
L 386.110413 117.21295 
L 386.427769 117.116359 
L 386.745124 115.845837 
L 387.062479 115.730246 
L 387.69719 115.133123 
L 388.331901 114.662685 
L 388.649256 114.385063 
L 388.966612 113.79236 
L 389.918678 113.111343 
L 390.236033 112.312198 
L 391.188099 111.272546 
L 391.505455 108.54106 
L 391.82281 106.945777 
L 392.140165 106.520686 
L 392.457521 106.317954 
L 392.774876 105.812168 
L 393.092231 102.996476 
L 393.409587 101.738466 
L 393.726942 101.646766 
L 394.044298 101.314942 
L 394.361653 100.331137 
L 394.679008 100.166562 
L 394.996364 99.497638 
L 395.313719 98.222868 
L 395.94843 97.226204 
L 396.265785 90.630086 
L 396.58314 88.295261 
L 396.900496 87.683509 
L 397.217851 85.504583 
L 397.535207 84.766108 
L 397.852562 74.879622 
L 398.169917 73.54985 
L 398.487273 60.632794 
L 398.487273 60.632794 
" clip-path="url(#p2d44274246)" style="fill: none; stroke: #1f77b4; stroke-width: 1.5; stroke-linecap: square"/>
   </g>
   <g id="line2d_13">
    <path d="M 73.832727 289.189341 
L 74.150083 275.442104 
L 74.467438 275.442104 
L 74.784793 263.691016 
L 75.102149 261.250148 
L 75.73686 261.250148 
L 76.054215 256.853365 
L 76.37157 249.430986 
L 76.688926 248.975601 
L 77.006281 248.975601 
L 77.323636 247.827117 
L 78.910413 247.827117 
L 79.227769 243.639716 
L 79.545124 243.639716 
L 79.862479 242.123891 
L 80.179835 241.187392 
L 80.49719 241.187392 
L 80.814545 236.557034 
L 81.131901 234.377487 
L 82.083967 234.340011 
L 82.401322 233.050059 
L 86.844298 232.97682 
L 87.161653 232.270509 
L 87.479008 228.915225 
L 87.796364 228.173494 
L 88.113719 227.011932 
L 89.700496 227.011932 
L 90.017851 225.527798 
L 90.652562 225.527798 
L 90.969917 223.803756 
L 91.287273 223.803756 
L 91.604628 222.905665 
L 91.921983 220.595637 
L 99.221157 220.595637 
L 99.538512 219.21917 
L 99.855868 219.21917 
L 100.173223 218.893576 
L 101.76 218.893576 
L 102.077355 217.466829 
L 103.664132 217.466829 
L 103.981488 217.145008 
L 104.298843 216.5887 
L 104.933554 216.5887 
L 105.250909 214.63211 
L 106.202975 214.533502 
L 106.520331 210.1178 
L 107.155041 209.681497 
L 107.472397 209.681497 
L 107.789752 208.664688 
L 109.376529 208.664688 
L 109.693884 206.433128 
L 110.01124 206.433128 
L 110.328595 203.967954 
L 129.369917 203.967852 
L 129.687273 202.566978 
L 130.321983 201.249443 
L 131.27405 201.165442 
L 131.591405 200.019463 
L 131.90876 200.019463 
L 132.226116 199.757645 
L 132.860826 199.757645 
L 133.178182 197.551557 
L 133.495537 197.551557 
L 133.812893 197.089604 
L 135.399669 197.089604 
L 135.717025 195.208295 
L 136.03438 194.954611 
L 136.351736 194.529846 
L 136.986446 194.42275 
L 163.009587 194.42275 
L 163.326942 192.470192 
L 167.135207 192.470192 
L 167.452562 192.113353 
L 167.769917 192.113353 
L 168.087273 189.696809 
L 168.404628 189.696809 
L 168.721983 189.051789 
L 169.356694 189.051789 
L 169.67405 188.635547 
L 169.991405 187.638574 
L 171.578182 187.638574 
L 172.212893 186.935637 
L 172.530248 186.935637 
L 172.847603 186.637418 
L 180.146777 186.637418 
L 180.464132 186.124108 
L 180.781488 186.124108 
L 181.098843 185.620609 
L 182.68562 185.620609 
L 183.320331 180.923773 
L 185.541818 180.881993 
L 185.859174 180.609106 
L 186.493884 180.609106 
L 186.81124 180.196918 
L 187.128595 179.164003 
L 187.44595 179.164003 
L 187.763306 178.46442 
L 188.080661 178.46442 
L 188.398017 175.543846 
L 188.715372 171.378671 
L 283.604628 171.378671 
L 284.239339 164.292921 
L 284.556694 164.292921 
L 284.87405 163.593339 
L 285.191405 163.593339 
L 285.50876 162.560423 
L 285.826116 162.148235 
L 286.460826 162.148235 
L 286.778182 161.875349 
L 288.999669 161.833568 
L 289.63438 157.136732 
L 291.221157 157.136732 
L 291.538512 156.633233 
L 291.855868 156.633233 
L 292.173223 156.119923 
L 299.472397 156.119923 
L 299.789752 155.821705 
L 300.107107 155.821705 
L 300.741818 155.118768 
L 302.328595 155.118768 
L 302.64595 154.121795 
L 302.963306 153.705552 
L 303.598017 153.705552 
L 303.915372 153.060532 
L 304.232727 153.060532 
L 304.550083 150.643989 
L 304.867438 150.643989 
L 305.184793 150.287149 
L 308.993058 150.287149 
L 309.310413 148.334591 
L 335.968264 148.227495 
L 336.602975 147.549046 
L 336.920331 145.667737 
L 338.507107 145.667737 
L 338.824463 145.205784 
L 339.141818 145.205784 
L 339.459174 142.999696 
L 340.093884 142.999696 
L 340.41124 142.737878 
L 340.728595 142.737878 
L 341.04595 141.591899 
L 341.680661 141.507898 
L 341.998017 141.507898 
L 342.315372 140.997949 
L 342.632727 140.190363 
L 342.950083 138.789489 
L 361.991405 138.789387 
L 362.30876 136.324213 
L 362.626116 136.324213 
L 362.943471 134.092653 
L 364.530248 134.092653 
L 364.847603 133.075844 
L 365.164959 133.075844 
L 365.799669 132.639541 
L 366.117025 128.223839 
L 367.069091 128.125231 
L 367.386446 126.168641 
L 368.021157 126.168641 
L 368.338512 125.612333 
L 368.655868 125.290512 
L 370.242645 125.290512 
L 370.56 123.863765 
L 372.146777 123.863765 
L 372.464132 123.538172 
L 372.781488 123.538172 
L 373.098843 122.161705 
L 380.398017 122.161705 
L 380.715372 119.851676 
L 381.032727 118.953586 
L 381.350083 118.953586 
L 381.667438 117.229543 
L 382.302149 117.229543 
L 382.619504 115.74541 
L 384.206281 115.74541 
L 384.840992 113.842116 
L 385.158347 110.486832 
L 385.475702 109.780522 
L 389.918678 109.707282 
L 390.236033 108.41733 
L 391.188099 108.379854 
L 391.505455 106.200307 
L 391.82281 101.569949 
L 392.140165 101.569949 
L 392.457521 100.63345 
L 392.774876 99.117625 
L 393.092231 99.117625 
L 393.409587 94.930224 
L 394.996364 94.930224 
L 395.313719 93.78174 
L 395.631074 93.78174 
L 395.94843 93.326356 
L 396.265785 85.903976 
L 396.58314 81.507193 
L 397.217851 81.507193 
L 397.535207 79.066325 
L 397.852562 67.315238 
L 398.169917 67.315238 
L 398.487273 53.568 
L 398.487273 53.568 
" clip-path="url(#p2d44274246)" style="fill: none; stroke: #ff7f0e; stroke-width: 1.5; stroke-linecap: square"/>
   </g>
   <g id="patch_3">
    <path d="M 57.6 307.584 
L 57.6 41.472 
" style="fill: none; stroke: #000000; stroke-width: 0.8; stroke-linejoin: miter; stroke-linecap: square"/>
   </g>
   <g id="patch_4">
    <path d="M 414.72 307.584 
L 414.72 41.472 
" style="fill: none; stroke: #000000; stroke-width: 0.8; stroke-linejoin: miter; stroke-linecap: square"/>
   </g>
   <g id="patch_5">
    <path d="M 57.6 307.584 
L 414.72 307.584 
" style="fill: none; stroke: #000000; stroke-width: 0.8; stroke-linejoin: miter; stroke-linecap: square"/>
   </g>
   <g id="patch_6">
    <path d="M 57.6 41.472 
L 414.72 41.472 
" style="fill: none; stroke: #000000; stroke-width: 0.8; stroke-linejoin: miter; stroke-linecap: square"/>
   </g>
   <g id="legend_1">
    <g id="patch_7">
     <path d="M 64.6 78.82825 
L 129.342187 78.82825 
Q 131.342187 78.82825 131.342187 76.82825 
L 131.342187 48.472 
Q 131.342187 46.472 129.342187 46.472 
L 64.6 46.472 
Q 62.6 46.472 62.6 48.472 
L 62.6 76.82825 
Q 62.6 78.82825 64.6 78.82825 
z
" style="fill: #ffffff; opacity: 0.8; stroke: #cccccc; stroke-linejoin: miter"/>
    </g>
    <g id="line2d_14">
     <path d="M 66.6 54.570437 
L 76.6 54.570437 
L 86.6 54.570437 
" style="fill: none; stroke: #1f77b4; stroke-width: 1.5; stroke-linecap: square"/>
    </g>
    <g id="text_14">
     <!-- qc -->
     <g transform="translate(94.6 58.070437) scale(0.1 -0.1)">
      <defs>
       <path id="DejaVuSans-71" d="M 947 1747 
Q 947 1113 1208 752 
Q 1469 391 1925 391 
Q 2381 391 2643 752 
Q 2906 1113 2906 1747 
Q 2906 2381 2643 2742 
Q 2381 3103 1925 3103 
Q 1469 3103 1208 2742 
Q 947 2381 947 1747 
z
M 2906 525 
Q 2725 213 2448 61 
Q 2172 -91 1784 -91 
Q 1150 -91 751 415 
Q 353 922 353 1747 
Q 353 2572 751 3078 
Q 1150 3584 1784 3584 
Q 2172 3584 2448 3432 
Q 2725 3281 2906 2969 
L 2906 3500 
L 3481 3500 
L 3481 -1331 
L 2906 -1331 
L 2906 525 
z
" transform="scale(0.015625)"/>
       <path id="DejaVuSans-63" d="M 3122 3366 
L 3122 2828 
Q 2878 2963 2633 3030 
Q 2388 3097 2138 3097 
Q 1578 3097 1268 2742 
Q 959 2388 959 1747 
Q 959 1106 1268 751 
Q 1578 397 2138 397 
Q 2388 397 2633 464 
Q 2878 531 3122 666 
L 3122 134 
Q 2881 22 2623 -34 
Q 2366 -91 2075 -91 
Q 1284 -91 818 406 
Q 353 903 353 1747 
Q 353 2603 823 3093 
Q 1294 3584 2113 3584 
Q 2378 3584 2631 3529 
Q 2884 3475 3122 3366 
z
" transform="scale(0.015625)"/>
      </defs>
      <use xlink:href="#DejaVuSans-71"/>
      <use xlink:href="#DejaVuSans-63" x="63.476562"/>
     </g>
    </g>
    <g id="line2d_15">
     <path d="M 66.6 69.248562 
L 76.6 69.248562 
L 86.6 69.248562 
" style="fill: none; stroke: #ff7f0e; stroke-width: 1.5; stroke-linecap: square"/>
    </g>
    <g id="text_15">
     <!-- Trotter -->
     <g transform="translate(94.6 72.748562) scale(0.1 -0.1)">
      <defs>
       <path id="DejaVuSans-54" d="M -19 4666 
L 3928 4666 
L 3928 4134 
L 2272 4134 
L 2272 0 
L 1638 0 
L 1638 4134 
L -19 4134 
L -19 4666 
z
" transform="scale(0.015625)"/>
       <path id="DejaVuSans-72" d="M 2631 2963 
Q 2534 3019 2420 3045 
Q 2306 3072 2169 3072 
Q 1681 3072 1420 2755 
Q 1159 2438 1159 1844 
L 1159 0 
L 581 0 
L 581 3500 
L 1159 3500 
L 1159 2956 
Q 1341 3275 1631 3429 
Q 1922 3584 2338 3584 
Q 2397 3584 2469 3576 
Q 2541 3569 2628 3553 
L 2631 2963 
z
" transform="scale(0.015625)"/>
       <path id="DejaVuSans-6f" d="M 1959 3097 
Q 1497 3097 1228 2736 
Q 959 2375 959 1747 
Q 959 1119 1226 758 
Q 1494 397 1959 397 
Q 2419 397 2687 759 
Q 2956 1122 2956 1747 
Q 2956 2369 2687 2733 
Q 2419 3097 1959 3097 
z
M 1959 3584 
Q 2709 3584 3137 3096 
Q 3566 2609 3566 1747 
Q 3566 888 3137 398 
Q 2709 -91 1959 -91 
Q 1206 -91 779 398 
Q 353 888 353 1747 
Q 353 2609 779 3096 
Q 1206 3584 1959 3584 
z
" transform="scale(0.015625)"/>
       <path id="DejaVuSans-65" d="M 3597 1894 
L 3597 1613 
L 953 1613 
Q 991 1019 1311 708 
Q 1631 397 2203 397 
Q 2534 397 2845 478 
Q 3156 559 3463 722 
L 3463 178 
Q 3153 47 2828 -22 
Q 2503 -91 2169 -91 
Q 1331 -91 842 396 
Q 353 884 353 1716 
Q 353 2575 817 3079 
Q 1281 3584 2069 3584 
Q 2775 3584 3186 3129 
Q 3597 2675 3597 1894 
z
M 3022 2063 
Q 3016 2534 2758 2815 
Q 2500 3097 2075 3097 
Q 1594 3097 1305 2825 
Q 1016 2553 972 2059 
L 3022 2063 
z
" transform="scale(0.015625)"/>
      </defs>
      <use xlink:href="#DejaVuSans-54"/>
      <use xlink:href="#DejaVuSans-72" x="46.333984"/>
      <use xlink:href="#DejaVuSans-6f" x="85.197266"/>
      <use xlink:href="#DejaVuSans-74" x="146.378906"/>
      <use xlink:href="#DejaVuSans-74" x="185.587891"/>
      <use xlink:href="#DejaVuSans-65" x="224.796875"/>
      <use xlink:href="#DejaVuSans-72" x="286.320312"/>
     </g>
    </g>
   </g>
  </g>
 </g>
 <defs>
  <clipPath id="p2d44274246">
   <rect x="57.6" y="41.472" width="357.12" height="266.112"/>
  </clipPath>
 </defs>
</svg>
