<?xml version="1.0" encoding="utf-8" standalone="no"?>
<!DOCTYPE svg PUBLIC "-//W3C//DTD SVG 1.1//EN"
  "http://www.w3.org/Graphics/SVG/1.1/DTD/svg11.dtd">
<svg xmlns:xlink="http://www.w3.org/1999/xlink" width="460.8pt" height="345.6pt" viewBox="0 0 460.8 345.6" xmlns="http://www.w3.org/2000/svg" version="1.1">
 <metadata>
  <rdf:RDF xmlns:dc="http://purl.org/dc/elements/1.1/" xmlns:cc="http://creativecommons.org/ns#" xmlns:rdf="http://www.w3.org/1999/02/22-rdf-syntax-ns#">
   <cc:Work>
    <dc:type rdf:resource="http://purl.org/dc/dcmitype/StillImage"/>
    <dc:date>2024-08-23T11:24:21.971381</dc:date>
    <dc:format>image/svg+xml</dc:format>
    <dc:creator>
     <cc:Agent>
      <dc:title>Matplotlib v3.7.1, https://matplotlib.org/</dc:title>
     </cc:Agent>
    </dc:creator>
   </cc:Work>
  </rdf:RDF>
 </metadata>
 <defs>
  <style type="text/css">*{stroke-linejoin: round; stroke-linecap: butt}</style>
 </defs>
 <g id="figure_1">
  <g id="patch_1">
   <path d="M 0 345.6 
L 460.8 345.6 
L 460.8 0 
L 0 0 
z
" style="fill: #ffffff"/>
  </g>
  <g id="axes_1">
   <g id="patch_2">
    <path d="M 57.6 307.584 
L 414.72 307.584 
L 414.72 41.472 
L 57.6 41.472 
z
" style="fill: #ffffff"/>
   </g>
   <g id="matplotlib.axis_1">
    <g id="xtick_1">
     <g id="line2d_1">
      <defs>
       <path id="m252e1530cc" d="M 0 0 
L 0 3.5 
" style="stroke: #000000; stroke-width: 0.8"/>
      </defs>
      <g>
       <use xlink:href="#m252e1530cc" x="73.832727" y="307.584" style="stroke: #000000; stroke-width: 0.8"/>
      </g>
     </g>
     <g id="text_1">
      <!-- 0 -->
      <g transform="translate(70.651477 322.182437) scale(0.1 -0.1)">
       <defs>
        <path id="DejaVuSans-30" d="M 2034 4250 
Q 1547 4250 1301 3770 
Q 1056 3291 1056 2328 
Q 1056 1369 1301 889 
Q 1547 409 2034 409 
Q 2525 409 2770 889 
Q 3016 1369 3016 2328 
Q 3016 3291 2770 3770 
Q 2525 4250 2034 4250 
z
M 2034 4750 
Q 2819 4750 3233 4129 
Q 3647 3509 3647 2328 
Q 3647 1150 3233 529 
Q 2819 -91 2034 -91 
Q 1250 -91 836 529 
Q 422 1150 422 2328 
Q 422 3509 836 4129 
Q 1250 4750 2034 4750 
z
" transform="scale(0.015625)"/>
       </defs>
       <use xlink:href="#DejaVuSans-30"/>
      </g>
     </g>
    </g>
    <g id="xtick_2">
     <g id="line2d_2">
      <g>
       <use xlink:href="#m252e1530cc" x="137.303802" y="307.584" style="stroke: #000000; stroke-width: 0.8"/>
      </g>
     </g>
     <g id="text_2">
      <!-- 200 -->
      <g transform="translate(127.760052 322.182437) scale(0.1 -0.1)">
       <defs>
        <path id="DejaVuSans-32" d="M 1228 531 
L 3431 531 
L 3431 0 
L 469 0 
L 469 531 
Q 828 903 1448 1529 
Q 2069 2156 2228 2338 
Q 2531 2678 2651 2914 
Q 2772 3150 2772 3378 
Q 2772 3750 2511 3984 
Q 2250 4219 1831 4219 
Q 1534 4219 1204 4116 
Q 875 4013 500 3803 
L 500 4441 
Q 881 4594 1212 4672 
Q 1544 4750 1819 4750 
Q 2544 4750 2975 4387 
Q 3406 4025 3406 3419 
Q 3406 3131 3298 2873 
Q 3191 2616 2906 2266 
Q 2828 2175 2409 1742 
Q 1991 1309 1228 531 
z
" transform="scale(0.015625)"/>
       </defs>
       <use xlink:href="#DejaVuSans-32"/>
       <use xlink:href="#DejaVuSans-30" x="63.623047"/>
       <use xlink:href="#DejaVuSans-30" x="127.246094"/>
      </g>
     </g>
    </g>
    <g id="xtick_3">
     <g id="line2d_3">
      <g>
       <use xlink:href="#m252e1530cc" x="200.774876" y="307.584" style="stroke: #000000; stroke-width: 0.8"/>
      </g>
     </g>
     <g id="text_3">
      <!-- 400 -->
      <g transform="translate(191.231126 322.182437) scale(0.1 -0.1)">
       <defs>
        <path id="DejaVuSans-34" d="M 2419 4116 
L 825 1625 
L 2419 1625 
L 2419 4116 
z
M 2253 4666 
L 3047 4666 
L 3047 1625 
L 3713 1625 
L 3713 1100 
L 3047 1100 
L 3047 0 
L 2419 0 
L 2419 1100 
L 313 1100 
L 313 1709 
L 2253 4666 
z
" transform="scale(0.015625)"/>
       </defs>
       <use xlink:href="#DejaVuSans-34"/>
       <use xlink:href="#DejaVuSans-30" x="63.623047"/>
       <use xlink:href="#DejaVuSans-30" x="127.246094"/>
      </g>
     </g>
    </g>
    <g id="xtick_4">
     <g id="line2d_4">
      <g>
       <use xlink:href="#m252e1530cc" x="264.24595" y="307.584" style="stroke: #000000; stroke-width: 0.8"/>
      </g>
     </g>
     <g id="text_4">
      <!-- 600 -->
      <g transform="translate(254.7022 322.182437) scale(0.1 -0.1)">
       <defs>
        <path id="DejaVuSans-36" d="M 2113 2584 
Q 1688 2584 1439 2293 
Q 1191 2003 1191 1497 
Q 1191 994 1439 701 
Q 1688 409 2113 409 
Q 2538 409 2786 701 
Q 3034 994 3034 1497 
Q 3034 2003 2786 2293 
Q 2538 2584 2113 2584 
z
M 3366 4563 
L 3366 3988 
Q 3128 4100 2886 4159 
Q 2644 4219 2406 4219 
Q 1781 4219 1451 3797 
Q 1122 3375 1075 2522 
Q 1259 2794 1537 2939 
Q 1816 3084 2150 3084 
Q 2853 3084 3261 2657 
Q 3669 2231 3669 1497 
Q 3669 778 3244 343 
Q 2819 -91 2113 -91 
Q 1303 -91 875 529 
Q 447 1150 447 2328 
Q 447 3434 972 4092 
Q 1497 4750 2381 4750 
Q 2619 4750 2861 4703 
Q 3103 4656 3366 4563 
z
" transform="scale(0.015625)"/>
       </defs>
       <use xlink:href="#DejaVuSans-36"/>
       <use xlink:href="#DejaVuSans-30" x="63.623047"/>
       <use xlink:href="#DejaVuSans-30" x="127.246094"/>
      </g>
     </g>
    </g>
    <g id="xtick_5">
     <g id="line2d_5">
      <g>
       <use xlink:href="#m252e1530cc" x="327.717025" y="307.584" style="stroke: #000000; stroke-width: 0.8"/>
      </g>
     </g>
     <g id="text_5">
      <!-- 800 -->
      <g transform="translate(318.173275 322.182437) scale(0.1 -0.1)">
       <defs>
        <path id="DejaVuSans-38" d="M 2034 2216 
Q 1584 2216 1326 1975 
Q 1069 1734 1069 1313 
Q 1069 891 1326 650 
Q 1584 409 2034 409 
Q 2484 409 2743 651 
Q 3003 894 3003 1313 
Q 3003 1734 2745 1975 
Q 2488 2216 2034 2216 
z
M 1403 2484 
Q 997 2584 770 2862 
Q 544 3141 544 3541 
Q 544 4100 942 4425 
Q 1341 4750 2034 4750 
Q 2731 4750 3128 4425 
Q 3525 4100 3525 3541 
Q 3525 3141 3298 2862 
Q 3072 2584 2669 2484 
Q 3125 2378 3379 2068 
Q 3634 1759 3634 1313 
Q 3634 634 3220 271 
Q 2806 -91 2034 -91 
Q 1263 -91 848 271 
Q 434 634 434 1313 
Q 434 1759 690 2068 
Q 947 2378 1403 2484 
z
M 1172 3481 
Q 1172 3119 1398 2916 
Q 1625 2713 2034 2713 
Q 2441 2713 2670 2916 
Q 2900 3119 2900 3481 
Q 2900 3844 2670 4047 
Q 2441 4250 2034 4250 
Q 1625 4250 1398 4047 
Q 1172 3844 1172 3481 
z
" transform="scale(0.015625)"/>
       </defs>
       <use xlink:href="#DejaVuSans-38"/>
       <use xlink:href="#DejaVuSans-30" x="63.623047"/>
       <use xlink:href="#DejaVuSans-30" x="127.246094"/>
      </g>
     </g>
    </g>
    <g id="xtick_6">
     <g id="line2d_6">
      <g>
       <use xlink:href="#m252e1530cc" x="391.188099" y="307.584" style="stroke: #000000; stroke-width: 0.8"/>
      </g>
     </g>
     <g id="text_6">
      <!-- 1000 -->
      <g transform="translate(378.463099 322.182437) scale(0.1 -0.1)">
       <defs>
        <path id="DejaVuSans-31" d="M 794 531 
L 1825 531 
L 1825 4091 
L 703 3866 
L 703 4441 
L 1819 4666 
L 2450 4666 
L 2450 531 
L 3481 531 
L 3481 0 
L 794 0 
L 794 531 
z
" transform="scale(0.015625)"/>
       </defs>
       <use xlink:href="#DejaVuSans-31"/>
       <use xlink:href="#DejaVuSans-30" x="63.623047"/>
       <use xlink:href="#DejaVuSans-30" x="127.246094"/>
       <use xlink:href="#DejaVuSans-30" x="190.869141"/>
      </g>
     </g>
    </g>
    <g id="text_7">
     <!-- n -->
     <g transform="translate(232.99125 335.860562) scale(0.1 -0.1)">
      <defs>
       <path id="DejaVuSans-6e" d="M 3513 2113 
L 3513 0 
L 2938 0 
L 2938 2094 
Q 2938 2591 2744 2837 
Q 2550 3084 2163 3084 
Q 1697 3084 1428 2787 
Q 1159 2491 1159 1978 
L 1159 0 
L 581 0 
L 581 3500 
L 1159 3500 
L 1159 2956 
Q 1366 3272 1645 3428 
Q 1925 3584 2291 3584 
Q 2894 3584 3203 3211 
Q 3513 2838 3513 2113 
z
" transform="scale(0.015625)"/>
      </defs>
      <use xlink:href="#DejaVuSans-6e"/>
     </g>
    </g>
   </g>
   <g id="matplotlib.axis_2">
    <g id="ytick_1">
     <g id="line2d_7">
      <defs>
       <path id="ma76f93d092" d="M 0 0 
L -3.5 0 
" style="stroke: #000000; stroke-width: 0.8"/>
      </defs>
      <g>
       <use xlink:href="#ma76f93d092" x="57.6" y="305.795106" style="stroke: #000000; stroke-width: 0.8"/>
      </g>
     </g>
     <g id="text_8">
      <!-- −6 -->
      <g transform="translate(35.857813 309.594324) scale(0.1 -0.1)">
       <defs>
        <path id="DejaVuSans-2212" d="M 678 2272 
L 4684 2272 
L 4684 1741 
L 678 1741 
L 678 2272 
z
" transform="scale(0.015625)"/>
       </defs>
       <use xlink:href="#DejaVuSans-2212"/>
       <use xlink:href="#DejaVuSans-36" x="83.789062"/>
      </g>
     </g>
    </g>
    <g id="ytick_2">
     <g id="line2d_8">
      <g>
       <use xlink:href="#ma76f93d092" x="57.6" y="261.570069" style="stroke: #000000; stroke-width: 0.8"/>
      </g>
     </g>
     <g id="text_9">
      <!-- −4 -->
      <g transform="translate(35.857813 265.369288) scale(0.1 -0.1)">
       <use xlink:href="#DejaVuSans-2212"/>
       <use xlink:href="#DejaVuSans-34" x="83.789062"/>
      </g>
     </g>
    </g>
    <g id="ytick_3">
     <g id="line2d_9">
      <g>
       <use xlink:href="#ma76f93d092" x="57.6" y="217.345033" style="stroke: #000000; stroke-width: 0.8"/>
      </g>
     </g>
     <g id="text_10">
      <!-- −2 -->
      <g transform="translate(35.857813 221.144252) scale(0.1 -0.1)">
       <use xlink:href="#DejaVuSans-2212"/>
       <use xlink:href="#DejaVuSans-32" x="83.789062"/>
      </g>
     </g>
    </g>
    <g id="ytick_4">
     <g id="line2d_10">
      <g>
       <use xlink:href="#ma76f93d092" x="57.6" y="173.119997" style="stroke: #000000; stroke-width: 0.8"/>
      </g>
     </g>
     <g id="text_11">
      <!-- 0 -->
      <g transform="translate(44.2375 176.919216) scale(0.1 -0.1)">
       <use xlink:href="#DejaVuSans-30"/>
      </g>
     </g>
    </g>
    <g id="ytick_5">
     <g id="line2d_11">
      <g>
       <use xlink:href="#ma76f93d092" x="57.6" y="128.894961" style="stroke: #000000; stroke-width: 0.8"/>
      </g>
     </g>
     <g id="text_12">
      <!-- 2 -->
      <g transform="translate(44.2375 132.69418) scale(0.1 -0.1)">
       <use xlink:href="#DejaVuSans-32"/>
      </g>
     </g>
    </g>
    <g id="ytick_6">
     <g id="line2d_12">
      <g>
       <use xlink:href="#ma76f93d092" x="57.6" y="84.669925" style="stroke: #000000; stroke-width: 0.8"/>
      </g>
     </g>
     <g id="text_13">
      <!-- 4 -->
      <g transform="translate(44.2375 88.469144) scale(0.1 -0.1)">
       <use xlink:href="#DejaVuSans-34"/>
      </g>
     </g>
    </g>
    <g id="text_14">
     <!-- E*t -->
     <g transform="translate(29.778125 182.147531) rotate(-90) scale(0.1 -0.1)">
      <defs>
       <path id="DejaVuSans-45" d="M 628 4666 
L 3578 4666 
L 3578 4134 
L 1259 4134 
L 1259 2753 
L 3481 2753 
L 3481 2222 
L 1259 2222 
L 1259 531 
L 3634 531 
L 3634 0 
L 628 0 
L 628 4666 
z
" transform="scale(0.015625)"/>
       <path id="DejaVuSans-2a" d="M 3009 3897 
L 1888 3291 
L 3009 2681 
L 2828 2375 
L 1778 3009 
L 1778 1831 
L 1422 1831 
L 1422 3009 
L 372 2375 
L 191 2681 
L 1313 3291 
L 191 3897 
L 372 4206 
L 1422 3572 
L 1422 4750 
L 1778 4750 
L 1778 3572 
L 2828 4206 
L 3009 3897 
z
" transform="scale(0.015625)"/>
       <path id="DejaVuSans-74" d="M 1172 4494 
L 1172 3500 
L 2356 3500 
L 2356 3053 
L 1172 3053 
L 1172 1153 
Q 1172 725 1289 603 
Q 1406 481 1766 481 
L 2356 481 
L 2356 0 
L 1766 0 
Q 1100 0 847 248 
Q 594 497 594 1153 
L 594 3053 
L 172 3053 
L 172 3500 
L 594 3500 
L 594 4494 
L 1172 4494 
z
" transform="scale(0.015625)"/>
      </defs>
      <use xlink:href="#DejaVuSans-45"/>
      <use xlink:href="#DejaVuSans-2a" x="63.183594"/>
      <use xlink:href="#DejaVuSans-74" x="113.183594"/>
     </g>
    </g>
   </g>
   <g id="line2d_13">
    <path d="M 73.832727 295.488 
L 74.150083 291.045264 
L 74.467438 289.409914 
L 74.784793 285.459195 
L 75.102149 284.803983 
L 75.419504 281.107846 
L 75.73686 280.624197 
L 76.054215 279.323406 
L 76.37157 279.087553 
L 76.688926 276.560031 
L 78.593058 269.833206 
L 78.910413 269.586343 
L 79.545124 268.82107 
L 80.179835 266.692602 
L 80.814545 266.371417 
L 81.131901 264.770449 
L 81.766612 263.895998 
L 82.083967 263.576114 
L 82.401322 262.742305 
L 82.718678 262.237219 
L 83.036033 262.030978 
L 83.353388 261.000367 
L 83.670744 260.910121 
L 83.988099 260.294295 
L 84.940165 259.547484 
L 85.892231 257.364924 
L 86.209587 257.225959 
L 86.526942 256.619188 
L 86.844298 256.447791 
L 87.161653 256.120271 
L 88.113719 254.707636 
L 88.431074 254.477863 
L 89.065785 253.654964 
L 90.017851 252.716051 
L 90.335207 251.953075 
L 90.652562 251.83753 
L 90.969917 251.275783 
L 91.287273 250.977002 
L 91.604628 250.44565 
L 92.239339 249.952442 
L 92.87405 249.212358 
L 94.143471 248.183167 
L 94.460826 247.894154 
L 95.095537 247.063523 
L 95.412893 246.896234 
L 96.999669 245.25544 
L 97.317025 244.977118 
L 97.63438 244.954669 
L 98.269091 244.443927 
L 98.586446 243.761935 
L 99.538512 243.136838 
L 99.855868 243.008441 
L 100.490579 242.429499 
L 100.807934 241.855629 
L 101.125289 241.675639 
L 102.077355 240.768881 
L 102.394711 240.630408 
L 103.029421 239.958838 
L 103.981488 239.047739 
L 104.298843 238.976406 
L 104.933554 238.531412 
L 105.250909 238.164416 
L 105.568264 238.053096 
L 106.202975 237.397119 
L 106.520331 237.301943 
L 107.789752 236.211681 
L 109.059174 235.452508 
L 109.376529 235.364498 
L 110.01124 234.77772 
L 111.280661 233.983462 
L 112.232727 233.335604 
L 112.550083 233.23564 
L 113.819504 232.15117 
L 114.454215 231.929665 
L 115.406281 231.283045 
L 115.723636 231.240864 
L 116.040992 230.901164 
L 116.675702 230.634323 
L 116.993058 230.539811 
L 117.310413 230.166076 
L 117.945124 229.848141 
L 118.262479 229.5203 
L 118.89719 229.111502 
L 119.531901 228.607811 
L 120.483967 228.233555 
L 121.118678 227.911017 
L 121.436033 227.530498 
L 123.657521 226.478447 
L 123.974876 226.119956 
L 126.196364 225.012422 
L 126.831074 224.779107 
L 128.100496 223.874215 
L 128.417851 223.791723 
L 128.735207 223.473027 
L 129.052562 223.420101 
L 131.27405 222.27871 
L 131.591405 222.198411 
L 131.90876 221.876013 
L 135.082314 220.395003 
L 136.351736 219.883784 
L 139.525289 218.297745 
L 140.477355 217.896676 
L 141.112066 217.562945 
L 142.064132 217.099929 
L 143.016198 216.540769 
L 146.507107 214.778151 
L 147.141818 214.518571 
L 148.728595 213.771343 
L 149.363306 213.546054 
L 149.998017 213.19589 
L 150.315372 212.905943 
L 150.950083 212.708237 
L 151.584793 212.437884 
L 155.075702 211.056985 
L 155.710413 210.762636 
L 156.345124 210.276031 
L 156.979835 210.139795 
L 157.29719 210.084527 
L 157.931901 209.759453 
L 160.470744 208.665885 
L 160.788099 208.368981 
L 162.057521 207.831422 
L 163.961653 206.839048 
L 165.54843 206.239991 
L 165.865785 206.077649 
L 166.18314 206.065558 
L 166.500496 205.806647 
L 167.769917 205.358551 
L 168.721983 204.909318 
L 169.356694 204.769735 
L 169.991405 204.437438 
L 175.069091 202.412614 
L 175.703802 202.09738 
L 176.973223 201.687577 
L 177.607934 201.382047 
L 179.512066 200.488624 
L 179.829421 200.27266 
L 180.464132 200.089382 
L 183.955041 198.800251 
L 187.44595 197.42685 
L 188.398017 197.13886 
L 189.032727 196.855941 
L 189.350083 196.810378 
L 189.667438 196.516494 
L 194.427769 194.821924 
L 195.062479 194.699004 
L 195.69719 194.394987 
L 196.014545 194.160658 
L 196.331901 194.108046 
L 197.283967 193.66852 
L 198.870744 193.133468 
L 199.505455 192.957177 
L 199.82281 192.873609 
L 200.140165 192.663378 
L 200.774876 192.458798 
L 202.044298 191.939961 
L 202.679008 191.731071 
L 203.94843 191.086576 
L 204.58314 190.829344 
L 206.804628 190.11644 
L 207.756694 189.810867 
L 213.786446 187.662224 
L 215.055868 187.242902 
L 219.181488 185.780337 
L 219.816198 185.492094 
L 220.768264 185.242114 
L 222.989752 184.467807 
L 225.21124 183.568122 
L 226.163306 183.23952 
L 227.115372 182.700839 
L 228.384793 182.364757 
L 229.019504 182.029153 
L 229.654215 181.81802 
L 230.288926 181.549657 
L 231.240992 181.241293 
L 233.462479 180.3535 
L 234.731901 179.874489 
L 235.366612 179.559526 
L 236.001322 179.328043 
L 239.809587 177.949313 
L 241.079008 177.366521 
L 242.665785 176.776926 
L 245.839339 175.58831 
L 246.791405 175.230347 
L 247.426116 175.066674 
L 248.060826 174.728205 
L 249.647603 174.138635 
L 250.599669 173.877934 
L 251.23438 173.586178 
L 252.186446 173.296658 
L 253.773223 172.748139 
L 256.629421 171.70184 
L 257.898843 171.16249 
L 258.850909 170.938029 
L 260.437686 170.273458 
L 262.659174 169.359591 
L 262.976529 169.121711 
L 263.61124 168.988952 
L 263.928595 168.893784 
L 264.24595 168.660898 
L 264.880661 168.502805 
L 267.419504 167.454124 
L 268.054215 167.258148 
L 269.006281 166.811036 
L 269.640992 166.589479 
L 271.227769 165.917726 
L 271.862479 165.770131 
L 272.49719 165.519388 
L 273.766612 165.143386 
L 274.083967 164.880358 
L 275.353388 164.446712 
L 278.844298 163.030841 
L 279.479008 162.775438 
L 280.74843 162.357492 
L 281.38314 162.083488 
L 282.335207 161.71399 
L 282.652562 161.519704 
L 283.287273 161.374834 
L 284.239339 161.026143 
L 284.556694 160.996421 
L 284.87405 160.706075 
L 294.712066 156.926898 
L 295.029421 156.666266 
L 295.346777 156.620207 
L 295.664132 156.357528 
L 296.616198 155.965583 
L 297.568264 155.474537 
L 298.520331 155.205456 
L 299.789752 154.631654 
L 300.741818 154.20254 
L 301.376529 153.936655 
L 302.01124 153.751228 
L 302.64595 153.382932 
L 308.040992 151.188996 
L 308.358347 150.93741 
L 308.993058 150.819546 
L 309.945124 150.283093 
L 310.579835 150.065836 
L 311.531901 149.841057 
L 311.849256 149.566663 
L 312.801322 149.167288 
L 316.292231 147.50123 
L 316.609587 147.428113 
L 316.926942 147.184874 
L 317.561653 146.93961 
L 319.14843 146.041297 
L 324.860826 143.5013 
L 325.495537 143.225453 
L 326.130248 142.926177 
L 327.399669 142.37763 
L 327.717025 142.319472 
L 328.03438 141.973904 
L 330.890579 140.47162 
L 333.112066 139.204501 
L 333.746777 138.962335 
L 334.064132 138.609704 
L 338.824463 136.259724 
L 339.141818 136.035984 
L 339.459174 135.98406 
L 342.632727 134.267946 
L 342.950083 134.148452 
L 344.219504 133.190734 
L 344.854215 132.908519 
L 346.758347 131.800444 
L 347.393058 131.56865 
L 348.979835 130.681943 
L 349.29719 130.579304 
L 349.614545 130.139941 
L 350.883967 129.480874 
L 351.201322 129.304449 
L 351.518678 129.275349 
L 352.153388 128.527815 
L 352.788099 127.89688 
L 353.42281 127.583676 
L 354.374876 126.972608 
L 354.692231 126.907085 
L 355.009587 126.639379 
L 355.644298 126.369989 
L 355.961653 125.840665 
L 356.279008 125.727689 
L 356.596364 125.204176 
L 356.913719 125.155514 
L 357.231074 124.981287 
L 357.865785 124.494532 
L 358.18314 124.391667 
L 358.817851 123.886553 
L 360.404628 122.907269 
L 361.356694 122.358143 
L 363.260826 121.11752 
L 363.895537 120.613034 
L 364.212893 120.109443 
L 364.530248 120.049971 
L 364.847603 119.742107 
L 365.164959 119.639459 
L 365.799669 118.939753 
L 367.386446 118.042958 
L 367.703802 117.685611 
L 368.338512 117.336032 
L 368.973223 116.938133 
L 369.290579 116.394207 
L 371.512066 114.298415 
L 371.829421 114.131507 
L 372.781488 112.811252 
L 373.098843 112.557342 
L 373.416198 112.470194 
L 374.050909 111.70437 
L 375.002975 110.868629 
L 375.955041 109.8414 
L 376.589752 109.459979 
L 377.224463 109.09784 
L 377.541818 108.245278 
L 378.176529 107.729299 
L 379.44595 106.158212 
L 380.080661 105.601247 
L 380.398017 104.969238 
L 381.032727 104.505015 
L 381.350083 104.024004 
L 381.667438 103.894023 
L 382.302149 102.994009 
L 382.93686 101.916325 
L 383.254215 101.609794 
L 384.206281 99.985343 
L 384.523636 99.62043 
L 384.840992 99.563272 
L 385.475702 98.911571 
L 385.793058 97.757097 
L 386.427769 96.569985 
L 386.745124 96.31747 
L 387.062479 95.83716 
L 387.379835 95.122862 
L 387.69719 94.911361 
L 388.331901 93.678655 
L 389.918678 91.623652 
L 390.236033 91.094918 
L 390.553388 90.122376 
L 390.870744 89.754458 
L 391.188099 88.926386 
L 391.505455 88.429976 
L 391.82281 87.314506 
L 392.457521 86.111096 
L 392.774876 84.279292 
L 393.092231 83.86864 
L 393.409587 82.967811 
L 394.044298 82.504056 
L 394.361653 81.23146 
L 394.679008 80.661727 
L 394.996364 79.836788 
L 395.313719 79.33355 
L 395.631074 76.813382 
L 395.94843 75.409709 
L 396.58314 70.538837 
L 396.900496 70.314315 
L 397.217851 69.44804 
L 397.852562 66.557629 
L 398.169917 57.357194 
L 398.487273 53.568 
L 398.487273 53.568 
" clip-path="url(#pa7549337e8)" style="fill: none; stroke: #1f77b4; stroke-width: 1.5; stroke-linecap: square"/>
   </g>
   <g id="line2d_14">
    <path d="M 73.832727 286.168149 
L 74.150083 272.976646 
L 74.467438 272.976646 
L 74.784793 261.700598 
L 75.102149 259.358403 
L 75.73686 259.358403 
L 76.054215 255.139361 
L 76.37157 248.017032 
L 76.688926 247.580057 
L 77.006281 247.580057 
L 77.323636 246.478 
L 78.910413 246.478 
L 79.227769 242.459876 
L 79.545124 242.459876 
L 79.862479 241.005328 
L 80.179835 240.106688 
L 80.49719 240.106688 
L 80.814545 235.663513 
L 81.131901 233.572075 
L 82.083967 233.536114 
L 82.401322 232.298308 
L 86.844298 232.228029 
L 87.161653 231.550271 
L 87.479008 228.330625 
L 87.796364 227.618879 
L 88.113719 226.504273 
L 89.700496 226.504273 
L 90.017851 225.080136 
L 90.652562 225.080136 
L 90.969917 223.425788 
L 91.287273 223.425788 
L 91.604628 222.564003 
L 91.921983 220.347358 
L 99.221157 220.347358 
L 99.538512 219.026535 
L 99.855868 219.026535 
L 100.173223 218.714103 
L 101.76 218.714103 
L 102.077355 217.345033 
L 103.664132 217.345033 
L 103.981488 217.036222 
L 104.298843 216.502402 
L 104.933554 216.502402 
L 105.250909 214.624908 
L 106.202975 214.530286 
L 106.520331 210.29309 
L 107.155041 209.874425 
L 107.472397 209.874425 
L 107.789752 208.89872 
L 109.376529 208.89872 
L 109.693884 206.757371 
L 110.01124 206.757371 
L 110.328595 204.391853 
L 129.369917 204.391755 
L 129.687273 203.047512 
L 130.321983 201.783238 
L 131.27405 201.702633 
L 131.591405 200.60298 
L 131.90876 200.60298 
L 132.226116 200.351746 
L 132.860826 200.351746 
L 133.178182 198.23484 
L 133.495537 198.23484 
L 133.812893 197.791561 
L 135.399669 197.791561 
L 135.717025 195.986304 
L 136.03438 195.742875 
L 136.351736 195.335282 
L 136.986446 195.232515 
L 163.009587 195.232515 
L 163.326942 193.35889 
L 167.135207 193.35889 
L 167.452562 193.016476 
L 167.769917 193.016476 
L 168.087273 190.697621 
L 168.404628 190.697621 
L 168.721983 190.078676 
L 169.356694 190.078676 
L 169.67405 189.679261 
L 169.991405 188.72259 
L 171.578182 188.72259 
L 172.212893 188.04807 
L 172.530248 188.04807 
L 172.847603 187.761907 
L 180.146777 187.761907 
L 180.464132 187.269347 
L 180.781488 187.269347 
L 181.098843 186.786202 
L 182.68562 186.786202 
L 183.320331 182.279237 
L 185.541818 182.239145 
L 185.859174 181.977291 
L 186.493884 181.977291 
L 186.81124 181.581765 
L 187.128595 180.590606 
L 187.44595 180.590606 
L 187.763306 179.919304 
L 188.080661 179.919304 
L 188.398017 177.116794 
L 188.715372 173.119997 
L 283.604628 173.119997 
L 284.239339 166.320691 
L 284.556694 166.320691 
L 284.87405 165.649389 
L 285.191405 165.649389 
L 285.50876 164.658229 
L 285.826116 164.262704 
L 286.460826 164.262704 
L 286.778182 164.000849 
L 288.999669 163.960757 
L 289.63438 159.453792 
L 291.221157 159.453792 
L 291.538512 158.970647 
L 291.855868 158.970647 
L 292.173223 158.478087 
L 299.472397 158.478087 
L 299.789752 158.191924 
L 300.107107 158.191924 
L 300.741818 157.517404 
L 302.328595 157.517404 
L 302.64595 156.560734 
L 302.963306 156.161318 
L 303.598017 156.161318 
L 303.915372 155.542373 
L 304.232727 155.542373 
L 304.550083 153.223519 
L 304.867438 153.223519 
L 305.184793 152.881104 
L 308.993058 152.881104 
L 309.310413 151.007479 
L 335.968264 150.904713 
L 336.602975 150.25369 
L 336.920331 148.448433 
L 338.507107 148.448433 
L 338.824463 148.005154 
L 339.141818 148.005154 
L 339.459174 145.888248 
L 340.093884 145.888248 
L 340.41124 145.637014 
L 340.728595 145.637014 
L 341.04595 144.537361 
L 341.680661 144.456756 
L 341.998017 144.456756 
L 342.315372 143.967422 
L 342.632727 143.192483 
L 342.950083 141.848239 
L 361.991405 141.848142 
L 362.30876 139.482623 
L 362.626116 139.482623 
L 362.943471 137.341274 
L 364.530248 137.341274 
L 364.847603 136.365569 
L 365.164959 136.365569 
L 365.799669 135.946905 
L 366.117025 131.709708 
L 367.069091 131.615086 
L 367.386446 129.737592 
L 368.021157 129.737592 
L 368.338512 129.203772 
L 368.655868 128.894961 
L 370.242645 128.894961 
L 370.56 127.525891 
L 372.146777 127.525891 
L 372.464132 127.213459 
L 372.781488 127.213459 
L 373.098843 125.892636 
L 380.398017 125.892636 
L 380.715372 123.675991 
L 381.032727 122.814206 
L 381.350083 122.814206 
L 381.667438 121.159858 
L 382.302149 121.159858 
L 382.619504 119.735721 
L 384.206281 119.735721 
L 384.840992 117.909369 
L 385.158347 114.689723 
L 385.475702 114.011965 
L 389.918678 113.941686 
L 390.236033 112.70388 
L 391.188099 112.667919 
L 391.505455 110.576481 
L 391.82281 106.133306 
L 392.140165 106.133306 
L 392.457521 105.234666 
L 392.774876 103.780118 
L 393.092231 103.780118 
L 393.409587 99.761994 
L 394.996364 99.761994 
L 395.313719 98.659937 
L 395.631074 98.659937 
L 395.94843 98.222962 
L 396.265785 91.100633 
L 396.58314 86.881591 
L 397.217851 86.881591 
L 397.535207 84.539396 
L 397.852562 73.263348 
L 398.169917 73.263348 
L 398.487273 60.071845 
L 398.487273 60.071845 
" clip-path="url(#pa7549337e8)" style="fill: none; stroke: #ff7f0e; stroke-width: 1.5; stroke-linecap: square"/>
   </g>
   <g id="patch_3">
    <path d="M 57.6 307.584 
L 57.6 41.472 
" style="fill: none; stroke: #000000; stroke-width: 0.8; stroke-linejoin: miter; stroke-linecap: square"/>
   </g>
   <g id="patch_4">
    <path d="M 414.72 307.584 
L 414.72 41.472 
" style="fill: none; stroke: #000000; stroke-width: 0.8; stroke-linejoin: miter; stroke-linecap: square"/>
   </g>
   <g id="patch_5">
    <path d="M 57.6 307.584 
L 414.72 307.584 
" style="fill: none; stroke: #000000; stroke-width: 0.8; stroke-linejoin: miter; stroke-linecap: square"/>
   </g>
   <g id="patch_6">
    <path d="M 57.6 41.472 
L 414.72 41.472 
" style="fill: none; stroke: #000000; stroke-width: 0.8; stroke-linejoin: miter; stroke-linecap: square"/>
   </g>
   <g id="legend_1">
    <g id="patch_7">
     <path d="M 64.6 78.82825 
L 129.342187 78.82825 
Q 131.342187 78.82825 131.342187 76.82825 
L 131.342187 48.472 
Q 131.342187 46.472 129.342187 46.472 
L 64.6 46.472 
Q 62.6 46.472 62.6 48.472 
L 62.6 76.82825 
Q 62.6 78.82825 64.6 78.82825 
z
" style="fill: #ffffff; opacity: 0.8; stroke: #cccccc; stroke-linejoin: miter"/>
    </g>
    <g id="line2d_15">
     <path d="M 66.6 54.570437 
L 76.6 54.570437 
L 86.6 54.570437 
" style="fill: none; stroke: #1f77b4; stroke-width: 1.5; stroke-linecap: square"/>
    </g>
    <g id="text_15">
     <!-- qc -->
     <g transform="translate(94.6 58.070437) scale(0.1 -0.1)">
      <defs>
       <path id="DejaVuSans-71" d="M 947 1747 
Q 947 1113 1208 752 
Q 1469 391 1925 391 
Q 2381 391 2643 752 
Q 2906 1113 2906 1747 
Q 2906 2381 2643 2742 
Q 2381 3103 1925 3103 
Q 1469 3103 1208 2742 
Q 947 2381 947 1747 
z
M 2906 525 
Q 2725 213 2448 61 
Q 2172 -91 1784 -91 
Q 1150 -91 751 415 
Q 353 922 353 1747 
Q 353 2572 751 3078 
Q 1150 3584 1784 3584 
Q 2172 3584 2448 3432 
Q 2725 3281 2906 2969 
L 2906 3500 
L 3481 3500 
L 3481 -1331 
L 2906 -1331 
L 2906 525 
z
" transform="scale(0.015625)"/>
       <path id="DejaVuSans-63" d="M 3122 3366 
L 3122 2828 
Q 2878 2963 2633 3030 
Q 2388 3097 2138 3097 
Q 1578 3097 1268 2742 
Q 959 2388 959 1747 
Q 959 1106 1268 751 
Q 1578 397 2138 397 
Q 2388 397 2633 464 
Q 2878 531 3122 666 
L 3122 134 
Q 2881 22 2623 -34 
Q 2366 -91 2075 -91 
Q 1284 -91 818 406 
Q 353 903 353 1747 
Q 353 2603 823 3093 
Q 1294 3584 2113 3584 
Q 2378 3584 2631 3529 
Q 2884 3475 3122 3366 
z
" transform="scale(0.015625)"/>
      </defs>
      <use xlink:href="#DejaVuSans-71"/>
      <use xlink:href="#DejaVuSans-63" x="63.476562"/>
     </g>
    </g>
    <g id="line2d_16">
     <path d="M 66.6 69.248562 
L 76.6 69.248562 
L 86.6 69.248562 
" style="fill: none; stroke: #ff7f0e; stroke-width: 1.5; stroke-linecap: square"/>
    </g>
    <g id="text_16">
     <!-- Trotter -->
     <g transform="translate(94.6 72.748562) scale(0.1 -0.1)">
      <defs>
       <path id="DejaVuSans-54" d="M -19 4666 
L 3928 4666 
L 3928 4134 
L 2272 4134 
L 2272 0 
L 1638 0 
L 1638 4134 
L -19 4134 
L -19 4666 
z
" transform="scale(0.015625)"/>
       <path id="DejaVuSans-72" d="M 2631 2963 
Q 2534 3019 2420 3045 
Q 2306 3072 2169 3072 
Q 1681 3072 1420 2755 
Q 1159 2438 1159 1844 
L 1159 0 
L 581 0 
L 581 3500 
L 1159 3500 
L 1159 2956 
Q 1341 3275 1631 3429 
Q 1922 3584 2338 3584 
Q 2397 3584 2469 3576 
Q 2541 3569 2628 3553 
L 2631 2963 
z
" transform="scale(0.015625)"/>
       <path id="DejaVuSans-6f" d="M 1959 3097 
Q 1497 3097 1228 2736 
Q 959 2375 959 1747 
Q 959 1119 1226 758 
Q 1494 397 1959 397 
Q 2419 397 2687 759 
Q 2956 1122 2956 1747 
Q 2956 2369 2687 2733 
Q 2419 3097 1959 3097 
z
M 1959 3584 
Q 2709 3584 3137 3096 
Q 3566 2609 3566 1747 
Q 3566 888 3137 398 
Q 2709 -91 1959 -91 
Q 1206 -91 779 398 
Q 353 888 353 1747 
Q 353 2609 779 3096 
Q 1206 3584 1959 3584 
z
" transform="scale(0.015625)"/>
       <path id="DejaVuSans-65" d="M 3597 1894 
L 3597 1613 
L 953 1613 
Q 991 1019 1311 708 
Q 1631 397 2203 397 
Q 2534 397 2845 478 
Q 3156 559 3463 722 
L 3463 178 
Q 3153 47 2828 -22 
Q 2503 -91 2169 -91 
Q 1331 -91 842 396 
Q 353 884 353 1716 
Q 353 2575 817 3079 
Q 1281 3584 2069 3584 
Q 2775 3584 3186 3129 
Q 3597 2675 3597 1894 
z
M 3022 2063 
Q 3016 2534 2758 2815 
Q 2500 3097 2075 3097 
Q 1594 3097 1305 2825 
Q 1016 2553 972 2059 
L 3022 2063 
z
" transform="scale(0.015625)"/>
      </defs>
      <use xlink:href="#DejaVuSans-54"/>
      <use xlink:href="#DejaVuSans-72" x="46.333984"/>
      <use xlink:href="#DejaVuSans-6f" x="85.197266"/>
      <use xlink:href="#DejaVuSans-74" x="146.378906"/>
      <use xlink:href="#DejaVuSans-74" x="185.587891"/>
      <use xlink:href="#DejaVuSans-65" x="224.796875"/>
      <use xlink:href="#DejaVuSans-72" x="286.320312"/>
     </g>
    </g>
   </g>
  </g>
 </g>
 <defs>
  <clipPath id="pa7549337e8">
   <rect x="57.6" y="41.472" width="357.12" height="266.112"/>
  </clipPath>
 </defs>
</svg>
