<?xml version="1.0" encoding="utf-8" standalone="no"?>
<!DOCTYPE svg PUBLIC "-//W3C//DTD SVG 1.1//EN"
  "http://www.w3.org/Graphics/SVG/1.1/DTD/svg11.dtd">
<svg xmlns:xlink="http://www.w3.org/1999/xlink" width="460.8pt" height="345.6pt" viewBox="0 0 460.8 345.6" xmlns="http://www.w3.org/2000/svg" version="1.1">
 <metadata>
  <rdf:RDF xmlns:dc="http://purl.org/dc/elements/1.1/" xmlns:cc="http://creativecommons.org/ns#" xmlns:rdf="http://www.w3.org/1999/02/22-rdf-syntax-ns#">
   <cc:Work>
    <dc:type rdf:resource="http://purl.org/dc/dcmitype/StillImage"/>
    <dc:date>2024-07-12T13:30:48.473491</dc:date>
    <dc:format>image/svg+xml</dc:format>
    <dc:creator>
     <cc:Agent>
      <dc:title>Matplotlib v3.7.1, https://matplotlib.org/</dc:title>
     </cc:Agent>
    </dc:creator>
   </cc:Work>
  </rdf:RDF>
 </metadata>
 <defs>
  <style type="text/css">*{stroke-linejoin: round; stroke-linecap: butt}</style>
 </defs>
 <g id="figure_1">
  <g id="patch_1">
   <path d="M 0 345.6 
L 460.8 345.6 
L 460.8 0 
L 0 0 
z
" style="fill: #ffffff"/>
  </g>
  <g id="axes_1">
   <g id="patch_2">
    <path d="M 57.6 307.584 
L 414.72 307.584 
L 414.72 41.472 
L 57.6 41.472 
z
" style="fill: #ffffff"/>
   </g>
   <g id="matplotlib.axis_1">
    <g id="xtick_1">
     <g id="line2d_1">
      <defs>
       <path id="m030722910c" d="M 0 0 
L 0 3.5 
" style="stroke: #000000; stroke-width: 0.8"/>
      </defs>
      <g>
       <use xlink:href="#m030722910c" x="73.832727" y="307.584" style="stroke: #000000; stroke-width: 0.8"/>
      </g>
     </g>
     <g id="text_1">
      <!-- 0 -->
      <g transform="translate(70.651477 322.182437) scale(0.1 -0.1)">
       <defs>
        <path id="DejaVuSans-30" d="M 2034 4250 
Q 1547 4250 1301 3770 
Q 1056 3291 1056 2328 
Q 1056 1369 1301 889 
Q 1547 409 2034 409 
Q 2525 409 2770 889 
Q 3016 1369 3016 2328 
Q 3016 3291 2770 3770 
Q 2525 4250 2034 4250 
z
M 2034 4750 
Q 2819 4750 3233 4129 
Q 3647 3509 3647 2328 
Q 3647 1150 3233 529 
Q 2819 -91 2034 -91 
Q 1250 -91 836 529 
Q 422 1150 422 2328 
Q 422 3509 836 4129 
Q 1250 4750 2034 4750 
z
" transform="scale(0.015625)"/>
       </defs>
       <use xlink:href="#DejaVuSans-30"/>
      </g>
     </g>
    </g>
    <g id="xtick_2">
     <g id="line2d_2">
      <g>
       <use xlink:href="#m030722910c" x="137.303802" y="307.584" style="stroke: #000000; stroke-width: 0.8"/>
      </g>
     </g>
     <g id="text_2">
      <!-- 200 -->
      <g transform="translate(127.760052 322.182437) scale(0.1 -0.1)">
       <defs>
        <path id="DejaVuSans-32" d="M 1228 531 
L 3431 531 
L 3431 0 
L 469 0 
L 469 531 
Q 828 903 1448 1529 
Q 2069 2156 2228 2338 
Q 2531 2678 2651 2914 
Q 2772 3150 2772 3378 
Q 2772 3750 2511 3984 
Q 2250 4219 1831 4219 
Q 1534 4219 1204 4116 
Q 875 4013 500 3803 
L 500 4441 
Q 881 4594 1212 4672 
Q 1544 4750 1819 4750 
Q 2544 4750 2975 4387 
Q 3406 4025 3406 3419 
Q 3406 3131 3298 2873 
Q 3191 2616 2906 2266 
Q 2828 2175 2409 1742 
Q 1991 1309 1228 531 
z
" transform="scale(0.015625)"/>
       </defs>
       <use xlink:href="#DejaVuSans-32"/>
       <use xlink:href="#DejaVuSans-30" x="63.623047"/>
       <use xlink:href="#DejaVuSans-30" x="127.246094"/>
      </g>
     </g>
    </g>
    <g id="xtick_3">
     <g id="line2d_3">
      <g>
       <use xlink:href="#m030722910c" x="200.774876" y="307.584" style="stroke: #000000; stroke-width: 0.8"/>
      </g>
     </g>
     <g id="text_3">
      <!-- 400 -->
      <g transform="translate(191.231126 322.182437) scale(0.1 -0.1)">
       <defs>
        <path id="DejaVuSans-34" d="M 2419 4116 
L 825 1625 
L 2419 1625 
L 2419 4116 
z
M 2253 4666 
L 3047 4666 
L 3047 1625 
L 3713 1625 
L 3713 1100 
L 3047 1100 
L 3047 0 
L 2419 0 
L 2419 1100 
L 313 1100 
L 313 1709 
L 2253 4666 
z
" transform="scale(0.015625)"/>
       </defs>
       <use xlink:href="#DejaVuSans-34"/>
       <use xlink:href="#DejaVuSans-30" x="63.623047"/>
       <use xlink:href="#DejaVuSans-30" x="127.246094"/>
      </g>
     </g>
    </g>
    <g id="xtick_4">
     <g id="line2d_4">
      <g>
       <use xlink:href="#m030722910c" x="264.24595" y="307.584" style="stroke: #000000; stroke-width: 0.8"/>
      </g>
     </g>
     <g id="text_4">
      <!-- 600 -->
      <g transform="translate(254.7022 322.182437) scale(0.1 -0.1)">
       <defs>
        <path id="DejaVuSans-36" d="M 2113 2584 
Q 1688 2584 1439 2293 
Q 1191 2003 1191 1497 
Q 1191 994 1439 701 
Q 1688 409 2113 409 
Q 2538 409 2786 701 
Q 3034 994 3034 1497 
Q 3034 2003 2786 2293 
Q 2538 2584 2113 2584 
z
M 3366 4563 
L 3366 3988 
Q 3128 4100 2886 4159 
Q 2644 4219 2406 4219 
Q 1781 4219 1451 3797 
Q 1122 3375 1075 2522 
Q 1259 2794 1537 2939 
Q 1816 3084 2150 3084 
Q 2853 3084 3261 2657 
Q 3669 2231 3669 1497 
Q 3669 778 3244 343 
Q 2819 -91 2113 -91 
Q 1303 -91 875 529 
Q 447 1150 447 2328 
Q 447 3434 972 4092 
Q 1497 4750 2381 4750 
Q 2619 4750 2861 4703 
Q 3103 4656 3366 4563 
z
" transform="scale(0.015625)"/>
       </defs>
       <use xlink:href="#DejaVuSans-36"/>
       <use xlink:href="#DejaVuSans-30" x="63.623047"/>
       <use xlink:href="#DejaVuSans-30" x="127.246094"/>
      </g>
     </g>
    </g>
    <g id="xtick_5">
     <g id="line2d_5">
      <g>
       <use xlink:href="#m030722910c" x="327.717025" y="307.584" style="stroke: #000000; stroke-width: 0.8"/>
      </g>
     </g>
     <g id="text_5">
      <!-- 800 -->
      <g transform="translate(318.173275 322.182437) scale(0.1 -0.1)">
       <defs>
        <path id="DejaVuSans-38" d="M 2034 2216 
Q 1584 2216 1326 1975 
Q 1069 1734 1069 1313 
Q 1069 891 1326 650 
Q 1584 409 2034 409 
Q 2484 409 2743 651 
Q 3003 894 3003 1313 
Q 3003 1734 2745 1975 
Q 2488 2216 2034 2216 
z
M 1403 2484 
Q 997 2584 770 2862 
Q 544 3141 544 3541 
Q 544 4100 942 4425 
Q 1341 4750 2034 4750 
Q 2731 4750 3128 4425 
Q 3525 4100 3525 3541 
Q 3525 3141 3298 2862 
Q 3072 2584 2669 2484 
Q 3125 2378 3379 2068 
Q 3634 1759 3634 1313 
Q 3634 634 3220 271 
Q 2806 -91 2034 -91 
Q 1263 -91 848 271 
Q 434 634 434 1313 
Q 434 1759 690 2068 
Q 947 2378 1403 2484 
z
M 1172 3481 
Q 1172 3119 1398 2916 
Q 1625 2713 2034 2713 
Q 2441 2713 2670 2916 
Q 2900 3119 2900 3481 
Q 2900 3844 2670 4047 
Q 2441 4250 2034 4250 
Q 1625 4250 1398 4047 
Q 1172 3844 1172 3481 
z
" transform="scale(0.015625)"/>
       </defs>
       <use xlink:href="#DejaVuSans-38"/>
       <use xlink:href="#DejaVuSans-30" x="63.623047"/>
       <use xlink:href="#DejaVuSans-30" x="127.246094"/>
      </g>
     </g>
    </g>
    <g id="xtick_6">
     <g id="line2d_6">
      <g>
       <use xlink:href="#m030722910c" x="391.188099" y="307.584" style="stroke: #000000; stroke-width: 0.8"/>
      </g>
     </g>
     <g id="text_6">
      <!-- 1000 -->
      <g transform="translate(378.463099 322.182437) scale(0.1 -0.1)">
       <defs>
        <path id="DejaVuSans-31" d="M 794 531 
L 1825 531 
L 1825 4091 
L 703 3866 
L 703 4441 
L 1819 4666 
L 2450 4666 
L 2450 531 
L 3481 531 
L 3481 0 
L 794 0 
L 794 531 
z
" transform="scale(0.015625)"/>
       </defs>
       <use xlink:href="#DejaVuSans-31"/>
       <use xlink:href="#DejaVuSans-30" x="63.623047"/>
       <use xlink:href="#DejaVuSans-30" x="127.246094"/>
       <use xlink:href="#DejaVuSans-30" x="190.869141"/>
      </g>
     </g>
    </g>
    <g id="text_7">
     <!-- n -->
     <g transform="translate(232.99125 335.860562) scale(0.1 -0.1)">
      <defs>
       <path id="DejaVuSans-6e" d="M 3513 2113 
L 3513 0 
L 2938 0 
L 2938 2094 
Q 2938 2591 2744 2837 
Q 2550 3084 2163 3084 
Q 1697 3084 1428 2787 
Q 1159 2491 1159 1978 
L 1159 0 
L 581 0 
L 581 3500 
L 1159 3500 
L 1159 2956 
Q 1366 3272 1645 3428 
Q 1925 3584 2291 3584 
Q 2894 3584 3203 3211 
Q 3513 2838 3513 2113 
z
" transform="scale(0.015625)"/>
      </defs>
      <use xlink:href="#DejaVuSans-6e"/>
     </g>
    </g>
   </g>
   <g id="matplotlib.axis_2">
    <g id="ytick_1">
     <g id="line2d_7">
      <defs>
       <path id="m9da8173273" d="M 0 0 
L -3.5 0 
" style="stroke: #000000; stroke-width: 0.8"/>
      </defs>
      <g>
       <use xlink:href="#m9da8173273" x="57.6" y="290.600874" style="stroke: #000000; stroke-width: 0.8"/>
      </g>
     </g>
     <g id="text_8">
      <!-- −3 -->
      <g transform="translate(35.857813 294.400093) scale(0.1 -0.1)">
       <defs>
        <path id="DejaVuSans-2212" d="M 678 2272 
L 4684 2272 
L 4684 1741 
L 678 1741 
L 678 2272 
z
" transform="scale(0.015625)"/>
        <path id="DejaVuSans-33" d="M 2597 2516 
Q 3050 2419 3304 2112 
Q 3559 1806 3559 1356 
Q 3559 666 3084 287 
Q 2609 -91 1734 -91 
Q 1441 -91 1130 -33 
Q 819 25 488 141 
L 488 750 
Q 750 597 1062 519 
Q 1375 441 1716 441 
Q 2309 441 2620 675 
Q 2931 909 2931 1356 
Q 2931 1769 2642 2001 
Q 2353 2234 1838 2234 
L 1294 2234 
L 1294 2753 
L 1863 2753 
Q 2328 2753 2575 2939 
Q 2822 3125 2822 3475 
Q 2822 3834 2567 4026 
Q 2313 4219 1838 4219 
Q 1578 4219 1281 4162 
Q 984 4106 628 3988 
L 628 4550 
Q 988 4650 1302 4700 
Q 1616 4750 1894 4750 
Q 2613 4750 3031 4423 
Q 3450 4097 3450 3541 
Q 3450 3153 3228 2886 
Q 3006 2619 2597 2516 
z
" transform="scale(0.015625)"/>
       </defs>
       <use xlink:href="#DejaVuSans-2212"/>
       <use xlink:href="#DejaVuSans-33" x="83.789062"/>
      </g>
     </g>
    </g>
    <g id="ytick_2">
     <g id="line2d_8">
      <g>
       <use xlink:href="#m9da8173273" x="57.6" y="251.920168" style="stroke: #000000; stroke-width: 0.8"/>
      </g>
     </g>
     <g id="text_9">
      <!-- −2 -->
      <g transform="translate(35.857813 255.719387) scale(0.1 -0.1)">
       <use xlink:href="#DejaVuSans-2212"/>
       <use xlink:href="#DejaVuSans-32" x="83.789062"/>
      </g>
     </g>
    </g>
    <g id="ytick_3">
     <g id="line2d_9">
      <g>
       <use xlink:href="#m9da8173273" x="57.6" y="213.239463" style="stroke: #000000; stroke-width: 0.8"/>
      </g>
     </g>
     <g id="text_10">
      <!-- −1 -->
      <g transform="translate(35.857813 217.038682) scale(0.1 -0.1)">
       <use xlink:href="#DejaVuSans-2212"/>
       <use xlink:href="#DejaVuSans-31" x="83.789062"/>
      </g>
     </g>
    </g>
    <g id="ytick_4">
     <g id="line2d_10">
      <g>
       <use xlink:href="#m9da8173273" x="57.6" y="174.558758" style="stroke: #000000; stroke-width: 0.8"/>
      </g>
     </g>
     <g id="text_11">
      <!-- 0 -->
      <g transform="translate(44.2375 178.357976) scale(0.1 -0.1)">
       <use xlink:href="#DejaVuSans-30"/>
      </g>
     </g>
    </g>
    <g id="ytick_5">
     <g id="line2d_11">
      <g>
       <use xlink:href="#m9da8173273" x="57.6" y="135.878052" style="stroke: #000000; stroke-width: 0.8"/>
      </g>
     </g>
     <g id="text_12">
      <!-- 1 -->
      <g transform="translate(44.2375 139.677271) scale(0.1 -0.1)">
       <use xlink:href="#DejaVuSans-31"/>
      </g>
     </g>
    </g>
    <g id="ytick_6">
     <g id="line2d_12">
      <g>
       <use xlink:href="#m9da8173273" x="57.6" y="97.197347" style="stroke: #000000; stroke-width: 0.8"/>
      </g>
     </g>
     <g id="text_13">
      <!-- 2 -->
      <g transform="translate(44.2375 100.996566) scale(0.1 -0.1)">
       <use xlink:href="#DejaVuSans-32"/>
      </g>
     </g>
    </g>
    <g id="ytick_7">
     <g id="line2d_13">
      <g>
       <use xlink:href="#m9da8173273" x="57.6" y="58.516642" style="stroke: #000000; stroke-width: 0.8"/>
      </g>
     </g>
     <g id="text_14">
      <!-- 3 -->
      <g transform="translate(44.2375 62.31586) scale(0.1 -0.1)">
       <use xlink:href="#DejaVuSans-33"/>
      </g>
     </g>
    </g>
    <g id="text_15">
     <!-- E*t -->
     <g transform="translate(29.778125 182.147531) rotate(-90) scale(0.1 -0.1)">
      <defs>
       <path id="DejaVuSans-45" d="M 628 4666 
L 3578 4666 
L 3578 4134 
L 1259 4134 
L 1259 2753 
L 3481 2753 
L 3481 2222 
L 1259 2222 
L 1259 531 
L 3634 531 
L 3634 0 
L 628 0 
L 628 4666 
z
" transform="scale(0.015625)"/>
       <path id="DejaVuSans-2a" d="M 3009 3897 
L 1888 3291 
L 3009 2681 
L 2828 2375 
L 1778 3009 
L 1778 1831 
L 1422 1831 
L 1422 3009 
L 372 2375 
L 191 2681 
L 1313 3291 
L 191 3897 
L 372 4206 
L 1422 3572 
L 1422 4750 
L 1778 4750 
L 1778 3572 
L 2828 4206 
L 3009 3897 
z
" transform="scale(0.015625)"/>
       <path id="DejaVuSans-74" d="M 1172 4494 
L 1172 3500 
L 2356 3500 
L 2356 3053 
L 1172 3053 
L 1172 1153 
Q 1172 725 1289 603 
Q 1406 481 1766 481 
L 2356 481 
L 2356 0 
L 1766 0 
Q 1100 0 847 248 
Q 594 497 594 1153 
L 594 3053 
L 172 3053 
L 172 3500 
L 594 3500 
L 594 4494 
L 1172 4494 
z
" transform="scale(0.015625)"/>
      </defs>
      <use xlink:href="#DejaVuSans-45"/>
      <use xlink:href="#DejaVuSans-2a" x="63.183594"/>
      <use xlink:href="#DejaVuSans-74" x="113.183594"/>
     </g>
    </g>
   </g>
   <g id="line2d_14">
    <path d="M 73.832727 295.488 
L 74.150083 295.467461 
L 75.102149 294.688185 
L 75.419504 294.156612 
L 76.37157 293.869222 
L 76.688926 293.470635 
L 77.006281 293.382793 
L 77.640992 292.569429 
L 78.910413 292.451975 
L 79.545124 290.997392 
L 80.49719 290.687753 
L 80.814545 290.435262 
L 81.131901 289.390426 
L 81.766612 288.618761 
L 82.401322 288.3809 
L 83.036033 287.471877 
L 83.670744 287.320135 
L 83.988099 286.883532 
L 84.305455 286.674699 
L 84.62281 286.63467 
L 84.940165 286.273933 
L 85.257521 285.231946 
L 86.209587 285.007255 
L 86.526942 284.499786 
L 86.844298 283.334582 
L 87.479008 282.173032 
L 87.796364 282.154691 
L 88.431074 281.050454 
L 89.065785 280.989907 
L 89.38314 280.708171 
L 89.700496 280.619463 
L 90.017851 280.267274 
L 90.335207 280.253164 
L 90.652562 279.470079 
L 90.969917 279.337094 
L 91.287273 278.739025 
L 91.604628 278.633159 
L 91.921983 278.294408 
L 92.239339 278.205198 
L 92.556694 277.835871 
L 92.87405 276.67174 
L 93.191405 276.58559 
L 93.50876 275.355886 
L 93.826116 274.759819 
L 94.143471 274.497852 
L 94.460826 274.41163 
L 94.778182 274.040063 
L 95.095537 273.95061 
L 95.412893 273.454458 
L 95.730248 273.36574 
L 96.047603 271.637786 
L 96.364959 271.519286 
L 96.682314 270.994389 
L 97.317025 270.904947 
L 97.63438 269.900477 
L 97.951736 269.61469 
L 98.269091 269.173874 
L 98.586446 268.351605 
L 99.538512 268.188582 
L 99.855868 267.554712 
L 101.442645 266.825186 
L 101.76 266.735858 
L 102.712066 265.922988 
L 103.029421 265.831551 
L 103.346777 265.453377 
L 103.981488 265.216487 
L 104.298843 264.917997 
L 104.616198 264.788419 
L 104.933554 264.484978 
L 105.568264 264.314382 
L 106.202975 264.12114 
L 106.520331 263.703232 
L 106.837686 263.701215 
L 107.155041 263.457457 
L 107.789752 263.344132 
L 108.107107 262.799469 
L 109.059174 262.373973 
L 109.376529 262.067994 
L 109.693884 261.508598 
L 110.01124 261.179092 
L 110.64595 260.937518 
L 111.280661 260.458723 
L 111.598017 260.369198 
L 112.232727 260.019904 
L 112.550083 259.930106 
L 113.184793 258.440516 
L 113.819504 258.316796 
L 114.13686 257.984186 
L 114.454215 257.894858 
L 115.088926 256.897571 
L 115.723636 256.435343 
L 116.675702 255.321603 
L 117.310413 254.924824 
L 118.262479 253.053139 
L 118.579835 252.965818 
L 118.89719 252.684131 
L 119.531901 252.521658 
L 119.849256 251.788383 
L 120.166612 251.355586 
L 120.483967 250.650039 
L 121.118678 250.562626 
L 121.753388 249.66577 
L 122.388099 248.329664 
L 122.705455 245.218979 
L 123.340165 245.065481 
L 123.657521 244.747998 
L 124.292231 244.373712 
L 124.609587 243.713158 
L 124.926942 243.571883 
L 125.244298 243.236027 
L 125.879008 242.987937 
L 126.513719 242.901828 
L 127.465785 242.419558 
L 127.78314 241.658556 
L 128.100496 241.369363 
L 128.735207 241.148306 
L 129.369917 240.678792 
L 130.004628 240.297129 
L 130.321983 240.046231 
L 130.639339 239.252056 
L 131.27405 238.561701 
L 131.591405 238.471889 
L 131.90876 237.886778 
L 132.226116 237.741924 
L 132.543471 237.353296 
L 132.860826 237.260665 
L 133.178182 236.948203 
L 133.495537 236.859139 
L 133.812893 236.46024 
L 134.130248 235.65871 
L 134.447603 235.467995 
L 134.764959 234.95535 
L 136.986446 234.040409 
L 137.303802 233.191076 
L 137.621157 232.934967 
L 138.890579 232.568362 
L 139.207934 232.057242 
L 140.16 231.953254 
L 140.477355 231.869014 
L 141.112066 231.150382 
L 141.746777 230.865627 
L 142.698843 230.396342 
L 143.333554 230.209158 
L 144.28562 229.106413 
L 144.602975 229.051336 
L 144.920331 228.047301 
L 145.237686 227.912102 
L 145.555041 227.905692 
L 145.872397 227.591479 
L 146.824463 227.3759 
L 147.141818 227.047341 
L 147.459174 226.97545 
L 147.776529 226.732449 
L 148.41124 226.641825 
L 149.04595 225.380857 
L 149.680661 225.242526 
L 150.632727 225.024703 
L 151.902149 224.421329 
L 152.219504 223.892874 
L 152.53686 223.8011 
L 152.854215 223.510966 
L 153.17157 223.418274 
L 153.488926 223.066586 
L 154.123636 222.935526 
L 154.440992 222.785656 
L 154.758347 222.295695 
L 155.393058 221.76825 
L 156.027769 221.477874 
L 156.345124 220.7904 
L 157.931901 220.328382 
L 158.249256 220.13081 
L 158.566612 219.576837 
L 158.883967 219.479633 
L 159.201322 219.105186 
L 159.836033 219.003269 
L 160.470744 218.769137 
L 160.788099 218.426981 
L 161.740165 218.232798 
L 162.057521 217.943647 
L 163.009587 217.63837 
L 163.326942 217.243825 
L 163.644298 217.17084 
L 163.961653 216.940303 
L 164.913719 216.635554 
L 165.865785 216.095527 
L 166.18314 216.03471 
L 166.500496 215.531921 
L 166.817851 215.332749 
L 167.452562 214.251404 
L 167.769917 214.016949 
L 168.087273 213.969885 
L 168.721983 213.578819 
L 169.039339 213.559083 
L 169.67405 213.067129 
L 169.991405 212.830363 
L 170.626116 212.716759 
L 171.895537 211.728913 
L 172.212893 211.49171 
L 173.164959 211.341377 
L 173.482314 211.073175 
L 173.799669 211.06342 
L 174.751736 210.634729 
L 176.655868 210.266089 
L 176.973223 209.772104 
L 177.290579 209.672933 
L 177.607934 209.351268 
L 179.194711 208.971015 
L 180.781488 208.734949 
L 181.416198 208.623002 
L 181.733554 208.279988 
L 182.68562 207.90082 
L 183.002975 207.640789 
L 183.320331 207.56176 
L 183.637686 207.10325 
L 184.907107 206.642057 
L 185.224463 206.485781 
L 185.541818 206.196665 
L 185.859174 206.168201 
L 187.128595 205.456549 
L 187.763306 205.335323 
L 188.398017 204.13877 
L 188.715372 204.132897 
L 189.032727 203.721901 
L 189.350083 203.637842 
L 189.667438 203.179355 
L 190.302149 202.982766 
L 190.619504 202.482011 
L 191.254215 202.203602 
L 192.840992 201.287665 
L 193.475702 200.492623 
L 193.793058 200.111374 
L 194.110413 200.052076 
L 194.427769 199.841627 
L 195.062479 198.892733 
L 196.014545 198.351585 
L 196.331901 197.88065 
L 196.966612 197.596418 
L 197.283967 197.341066 
L 197.601322 196.861878 
L 198.236033 196.756395 
L 198.553388 196.672072 
L 198.870744 196.375452 
L 199.188099 196.276515 
L 199.505455 195.713735 
L 200.774876 194.906336 
L 201.726942 194.367249 
L 202.044298 194.311907 
L 202.361653 192.929748 
L 203.94843 192.094009 
L 204.265785 191.794861 
L 204.58314 191.27312 
L 204.900496 190.196563 
L 205.217851 190.020489 
L 206.487273 188.220245 
L 206.804628 187.94972 
L 207.121983 187.872323 
L 207.439339 187.46205 
L 207.756694 187.371315 
L 208.391405 186.618 
L 208.70876 186.28234 
L 209.343471 185.884747 
L 209.660826 185.416224 
L 209.978182 185.203863 
L 210.295537 185.159476 
L 210.612893 184.90924 
L 210.930248 184.881846 
L 211.247603 184.563959 
L 212.199669 184.362724 
L 212.83438 183.688363 
L 213.151736 183.644959 
L 213.469091 182.693179 
L 214.103802 182.587745 
L 214.421157 182.27429 
L 215.055868 182.149464 
L 216.325289 181.776226 
L 216.642645 181.493434 
L 217.277355 181.362307 
L 217.594711 181.243325 
L 217.912066 180.91415 
L 218.546777 180.74129 
L 219.816198 180.510871 
L 220.133554 180.227414 
L 220.768264 180.121034 
L 221.08562 179.964842 
L 221.402975 179.64819 
L 221.720331 179.598432 
L 222.037686 179.263223 
L 222.989752 178.91571 
L 225.21124 178.23968 
L 226.163306 177.772976 
L 226.480661 177.290743 
L 228.067438 176.87086 
L 228.702149 175.855796 
L 229.97157 175.278578 
L 230.606281 174.986296 
L 232.193058 174.498209 
L 232.510413 174.012712 
L 232.827769 173.938484 
L 233.145124 173.745584 
L 233.462479 173.397143 
L 234.414545 173.057689 
L 234.731901 172.996592 
L 235.049256 172.459307 
L 235.366612 172.353852 
L 235.683967 171.636781 
L 236.318678 171.282004 
L 236.953388 170.776965 
L 237.588099 170.706406 
L 237.905455 170.420702 
L 238.22281 170.418863 
L 238.540165 169.911077 
L 239.174876 169.717158 
L 239.809587 168.894876 
L 241.713719 168.210227 
L 242.031074 167.903102 
L 242.34843 167.877507 
L 242.98314 167.620712 
L 243.617851 167.488764 
L 244.252562 167.042019 
L 244.569917 166.959411 
L 244.887273 166.665076 
L 245.521983 166.461092 
L 245.839339 166.130116 
L 246.156694 166.08155 
L 246.47405 165.914034 
L 246.791405 165.905071 
L 247.426116 165.619364 
L 247.743471 165.597325 
L 248.378182 165.229713 
L 249.647603 165.03512 
L 250.282314 164.425224 
L 251.551736 164.212862 
L 251.869091 163.913298 
L 252.186446 163.821646 
L 252.503802 163.510364 
L 254.407934 162.852413 
L 254.725289 162.474548 
L 255.042645 162.404099 
L 255.36 162.142986 
L 255.677355 162.075346 
L 255.994711 161.704517 
L 257.264132 161.03799 
L 258.216198 160.640047 
L 258.533554 160.15814 
L 258.850909 160.01636 
L 259.168264 159.506831 
L 259.802975 159.307491 
L 260.120331 158.824216 
L 261.389752 157.723088 
L 261.707107 157.295166 
L 262.341818 157.005918 
L 263.293884 156.683855 
L 264.24595 156.024964 
L 264.563306 155.748771 
L 264.880661 155.071312 
L 265.198017 154.843379 
L 265.515372 154.360412 
L 266.784793 154.110618 
L 267.102149 153.654457 
L 268.37157 153.379931 
L 268.688926 153.046764 
L 269.958347 152.56804 
L 270.275702 152.55911 
L 271.545124 151.786395 
L 271.862479 151.78445 
L 272.179835 151.493949 
L 273.131901 151.122202 
L 273.766612 150.600511 
L 274.401322 150.352495 
L 275.670744 150.052938 
L 275.988099 149.754602 
L 279.161653 148.816514 
L 279.796364 148.707924 
L 281.700496 147.739513 
L 282.017851 147.553961 
L 282.335207 147.208801 
L 283.604628 146.773125 
L 284.556694 146.428441 
L 285.191405 146.34734 
L 287.095537 145.351585 
L 287.730248 145.220832 
L 288.047603 144.793482 
L 288.364959 144.705889 
L 288.682314 144.303051 
L 288.999669 144.259102 
L 289.317025 143.229496 
L 289.63438 142.808137 
L 289.951736 142.695619 
L 290.586446 141.840618 
L 291.221157 141.525239 
L 291.538512 141.499642 
L 292.173223 141.149223 
L 292.490579 140.67988 
L 293.442645 140.489343 
L 293.76 139.90653 
L 294.077355 139.730551 
L 294.394711 139.70248 
L 295.029421 139.2174 
L 295.346777 139.210888 
L 295.981488 138.766166 
L 296.298843 138.289484 
L 297.568264 138.049712 
L 297.88562 137.202501 
L 298.520331 136.966989 
L 298.837686 136.935945 
L 299.472397 136.460877 
L 300.424463 134.520867 
L 301.059174 134.408403 
L 301.376529 134.403767 
L 301.693884 134.153749 
L 302.01124 134.11555 
L 302.328595 133.893238 
L 302.64595 133.397611 
L 303.280661 133.139654 
L 303.598017 133.01135 
L 304.232727 132.496884 
L 305.819504 131.880371 
L 306.13686 131.705557 
L 306.77157 131.180728 
L 308.675702 130.861651 
L 308.993058 130.517325 
L 310.262479 130.05211 
L 310.579835 129.880261 
L 310.89719 129.430798 
L 311.214545 129.407189 
L 311.849256 128.838093 
L 312.166612 128.794318 
L 312.483967 128.167112 
L 312.801322 128.095923 
L 313.118678 127.83303 
L 313.436033 127.786683 
L 314.070744 127.119481 
L 314.705455 127.012266 
L 315.02281 126.561935 
L 315.340165 126.525635 
L 315.657521 125.711143 
L 315.974876 125.702137 
L 316.292231 124.891956 
L 316.926942 124.19493 
L 317.244298 123.804054 
L 317.879008 123.627702 
L 318.513719 123.312547 
L 319.78314 122.961147 
L 320.100496 122.226896 
L 321.369917 121.828748 
L 321.687273 121.475238 
L 323.591405 120.499488 
L 323.90876 120.418749 
L 324.226116 120.15454 
L 324.543471 120.040018 
L 325.178182 119.515152 
L 326.764959 118.802374 
L 327.082314 118.357103 
L 328.03438 118.113264 
L 328.669091 117.794433 
L 328.986446 117.732356 
L 329.303802 117.312776 
L 329.938512 117.144769 
L 331.525289 116.27379 
L 331.842645 116.186806 
L 332.477355 115.60572 
L 333.429421 114.761852 
L 333.746777 114.187759 
L 334.381488 113.828751 
L 334.698843 113.068945 
L 335.016198 111.952683 
L 335.333554 111.94422 
L 335.650909 110.589366 
L 336.28562 110.112521 
L 336.602975 110.104125 
L 336.920331 109.654448 
L 337.237686 108.946467 
L 337.872397 108.901888 
L 338.824463 108.206507 
L 339.141818 107.655521 
L 339.776529 107.122238 
L 340.41124 106.94177 
L 340.728595 106.80616 
L 341.04595 106.53897 
L 341.363306 106.492927 
L 341.680661 106.21798 
L 341.998017 105.205147 
L 342.632727 105.125973 
L 343.584793 104.51838 
L 344.219504 104.322003 
L 344.53686 104.116784 
L 344.854215 104.050564 
L 345.806281 103.010604 
L 346.758347 102.510959 
L 347.075702 102.266753 
L 347.393058 101.418257 
L 347.710413 100.909824 
L 348.027769 100.803055 
L 348.345124 99.890011 
L 348.662479 99.762904 
L 348.979835 99.404236 
L 349.29719 98.747287 
L 349.614545 97.83013 
L 349.931901 97.794687 
L 352.788099 94.539497 
L 353.42281 93.170136 
L 354.057521 92.787889 
L 354.374876 92.668845 
L 354.692231 92.297057 
L 355.326942 92.034551 
L 357.231074 90.448401 
L 357.54843 90.247573 
L 358.18314 90.173723 
L 358.500496 89.718025 
L 359.135207 89.312533 
L 360.087273 88.892982 
L 360.404628 88.81212 
L 360.721983 88.593583 
L 361.67405 88.327317 
L 361.991405 88.110204 
L 362.30876 88.107949 
L 364.212893 86.982624 
L 364.530248 86.893469 
L 364.847603 86.570532 
L 365.482314 86.362164 
L 366.43438 85.969418 
L 368.021157 85.582754 
L 368.655868 84.797699 
L 368.973223 84.599969 
L 369.607934 84.539085 
L 369.925289 83.944983 
L 370.242645 83.667021 
L 370.56 83.651358 
L 370.877355 83.453835 
L 371.194711 82.493904 
L 371.512066 82.457584 
L 371.829421 81.806111 
L 372.146777 81.728352 
L 372.464132 80.849496 
L 372.781488 80.433716 
L 373.098843 79.588644 
L 373.416198 79.510947 
L 373.733554 79.196031 
L 374.050909 78.473116 
L 374.368264 78.467149 
L 374.68562 78.18944 
L 375.002975 77.345512 
L 375.320331 77.334442 
L 375.637686 77.182197 
L 376.272397 77.095485 
L 377.224463 76.371658 
L 377.859174 76.287931 
L 378.176529 75.733653 
L 379.128595 75.097997 
L 379.44595 74.877068 
L 379.763306 74.832442 
L 380.080661 73.699092 
L 380.398017 73.664572 
L 380.715372 73.488506 
L 381.032727 73.180831 
L 381.350083 73.17351 
L 381.667438 72.649141 
L 382.302149 72.48767 
L 382.619504 72.049899 
L 382.93686 71.354387 
L 383.888926 70.860534 
L 384.206281 70.465283 
L 385.158347 70.095601 
L 385.793058 69.822312 
L 386.427769 69.601145 
L 386.745124 69.170792 
L 387.379835 69.014402 
L 387.69719 68.486161 
L 388.649256 67.939649 
L 389.283967 66.250457 
L 389.601322 65.7594 
L 389.918678 63.767408 
L 390.553388 62.533751 
L 391.505455 60.879054 
L 392.140165 60.494118 
L 392.774876 59.285462 
L 393.092231 59.259881 
L 393.726942 58.308083 
L 394.679008 58.155121 
L 394.996364 57.845636 
L 395.313719 57.757226 
L 395.631074 56.630018 
L 395.94843 56.048507 
L 397.217851 55.721994 
L 397.535207 54.985895 
L 397.852562 54.603571 
L 398.169917 53.657071 
L 398.487273 53.568 
L 398.487273 53.568 
" clip-path="url(#p720ed1dc16)" style="fill: none; stroke: #1f77b4; stroke-width: 1.5; stroke-linecap: square"/>
   </g>
   <g id="line2d_15">
    <path d="M 73.832727 291.232106 
L 74.150083 277.617582 
L 74.467438 277.617582 
L 74.784793 265.979937 
L 75.102149 263.562633 
L 75.73686 263.562633 
L 76.054215 259.208296 
L 76.37157 251.85757 
L 76.688926 251.406582 
L 77.006281 251.406582 
L 77.323636 250.269185 
L 78.910413 250.269185 
L 79.227769 246.122209 
L 79.545124 246.122209 
L 79.862479 244.621017 
L 80.179835 243.693559 
L 80.49719 243.693559 
L 80.814545 239.107901 
L 81.131901 236.949396 
L 82.083967 236.912282 
L 82.401322 235.634782 
L 86.844298 235.56225 
L 87.161653 234.862758 
L 87.479008 231.539865 
L 87.796364 230.805295 
L 88.113719 229.654946 
L 89.700496 229.654946 
L 90.017851 228.18514 
L 90.652562 228.18514 
L 90.969917 226.477741 
L 91.287273 226.477741 
L 91.604628 225.58832 
L 91.921983 223.300592 
L 99.221157 223.300592 
L 99.538512 221.937414 
L 99.855868 221.937414 
L 100.173223 221.614963 
L 101.76 221.614963 
L 102.077355 220.20199 
L 103.664132 220.20199 
L 103.981488 219.883276 
L 104.298843 219.332338 
L 104.933554 219.332338 
L 105.250909 217.394637 
L 106.202975 217.296981 
L 106.520331 212.923907 
L 107.155041 212.491816 
L 107.472397 212.491816 
L 107.789752 211.484823 
L 109.376529 211.484823 
L 109.693884 209.274806 
L 110.01124 209.274806 
L 110.328595 206.83343 
L 129.369917 206.83333 
L 129.687273 205.445979 
L 130.321983 204.141163 
L 131.27405 204.057974 
L 131.591405 202.923057 
L 131.90876 202.923057 
L 132.226116 202.663767 
L 132.860826 202.663767 
L 133.178182 200.478976 
L 133.495537 200.478976 
L 133.812893 200.021483 
L 135.399669 200.021483 
L 135.717025 198.158335 
L 136.03438 197.9071 
L 136.351736 197.486436 
L 136.986446 197.380374 
L 163.009587 197.380374 
L 163.326942 195.446666 
L 167.135207 195.446666 
L 167.452562 195.093271 
L 167.769917 195.093271 
L 168.087273 192.700056 
L 168.404628 192.700056 
L 168.721983 192.061263 
L 169.356694 192.061263 
L 169.67405 191.649039 
L 169.991405 190.661691 
L 171.578182 190.661691 
L 172.212893 189.96554 
L 172.530248 189.96554 
L 172.847603 189.6702 
L 180.146777 189.6702 
L 180.464132 189.161845 
L 180.781488 189.161845 
L 181.098843 188.663207 
L 182.68562 188.663207 
L 183.320331 184.011713 
L 185.541818 183.970336 
L 185.859174 183.700085 
L 186.493884 183.700085 
L 186.81124 183.291876 
L 187.128595 182.268932 
L 187.44595 182.268932 
L 187.763306 181.576103 
L 188.080661 181.576103 
L 188.398017 178.683723 
L 188.715372 174.558758 
L 283.604628 174.558758 
L 284.239339 167.541413 
L 284.556694 167.541413 
L 284.87405 166.848584 
L 285.191405 166.848584 
L 285.50876 165.82564 
L 285.826116 165.417431 
L 286.460826 165.417431 
L 286.778182 165.147179 
L 288.999669 165.105802 
L 289.63438 160.454308 
L 291.221157 160.454308 
L 291.538512 159.95567 
L 291.855868 159.95567 
L 292.173223 159.447315 
L 299.472397 159.447315 
L 299.789752 159.151976 
L 300.107107 159.151976 
L 300.741818 158.455825 
L 302.328595 158.455825 
L 302.64595 157.468476 
L 302.963306 157.056252 
L 303.598017 157.056252 
L 303.915372 156.417459 
L 304.232727 156.417459 
L 304.550083 154.024244 
L 304.867438 154.024244 
L 305.184793 153.67085 
L 308.993058 153.67085 
L 309.310413 151.737142 
L 335.968264 151.63108 
L 336.602975 150.95918 
L 336.920331 149.096033 
L 338.507107 149.096033 
L 338.824463 148.638539 
L 339.141818 148.638539 
L 339.459174 146.453748 
L 340.093884 146.453748 
L 340.41124 146.194458 
L 340.728595 146.194458 
L 341.04595 145.059542 
L 341.680661 144.976352 
L 341.998017 144.976352 
L 342.315372 144.471326 
L 342.632727 143.671536 
L 342.950083 142.284186 
L 361.991405 142.284085 
L 362.30876 139.842709 
L 362.626116 139.842709 
L 362.943471 137.632692 
L 364.530248 137.632692 
L 364.847603 136.625699 
L 365.164959 136.625699 
L 365.799669 136.193609 
L 366.117025 131.820535 
L 367.069091 131.722879 
L 367.386446 129.785178 
L 368.021157 129.785178 
L 368.338512 129.23424 
L 368.655868 128.915525 
L 370.242645 128.915525 
L 370.56 127.502553 
L 372.146777 127.502553 
L 372.464132 127.180102 
L 372.781488 127.180102 
L 373.098843 125.816923 
L 380.398017 125.816923 
L 380.715372 123.529195 
L 381.032727 122.639774 
L 381.350083 122.639774 
L 381.667438 120.932376 
L 382.302149 120.932376 
L 382.619504 119.46257 
L 384.206281 119.46257 
L 384.840992 117.577651 
L 385.158347 114.254758 
L 385.475702 113.555266 
L 389.918678 113.482733 
L 390.236033 112.205234 
L 391.188099 112.16812 
L 391.505455 110.009614 
L 391.82281 105.423957 
L 392.140165 105.423957 
L 392.457521 104.496498 
L 392.774876 102.995307 
L 393.092231 102.995307 
L 393.409587 98.84833 
L 394.996364 98.84833 
L 395.313719 97.710933 
L 395.631074 97.710933 
L 395.94843 97.259945 
L 396.265785 89.90922 
L 396.58314 85.554882 
L 397.217851 85.554882 
L 397.535207 83.137578 
L 397.852562 71.499933 
L 398.169917 71.499933 
L 398.487273 57.885409 
L 398.487273 57.885409 
" clip-path="url(#p720ed1dc16)" style="fill: none; stroke: #ff7f0e; stroke-width: 1.5; stroke-linecap: square"/>
   </g>
   <g id="patch_3">
    <path d="M 57.6 307.584 
L 57.6 41.472 
" style="fill: none; stroke: #000000; stroke-width: 0.8; stroke-linejoin: miter; stroke-linecap: square"/>
   </g>
   <g id="patch_4">
    <path d="M 414.72 307.584 
L 414.72 41.472 
" style="fill: none; stroke: #000000; stroke-width: 0.8; stroke-linejoin: miter; stroke-linecap: square"/>
   </g>
   <g id="patch_5">
    <path d="M 57.6 307.584 
L 414.72 307.584 
" style="fill: none; stroke: #000000; stroke-width: 0.8; stroke-linejoin: miter; stroke-linecap: square"/>
   </g>
   <g id="patch_6">
    <path d="M 57.6 41.472 
L 414.72 41.472 
" style="fill: none; stroke: #000000; stroke-width: 0.8; stroke-linejoin: miter; stroke-linecap: square"/>
   </g>
   <g id="legend_1">
    <g id="patch_7">
     <path d="M 64.6 78.82825 
L 129.342187 78.82825 
Q 131.342187 78.82825 131.342187 76.82825 
L 131.342187 48.472 
Q 131.342187 46.472 129.342187 46.472 
L 64.6 46.472 
Q 62.6 46.472 62.6 48.472 
L 62.6 76.82825 
Q 62.6 78.82825 64.6 78.82825 
z
" style="fill: #ffffff; opacity: 0.8; stroke: #cccccc; stroke-linejoin: miter"/>
    </g>
    <g id="line2d_16">
     <path d="M 66.6 54.570437 
L 76.6 54.570437 
L 86.6 54.570437 
" style="fill: none; stroke: #1f77b4; stroke-width: 1.5; stroke-linecap: square"/>
    </g>
    <g id="text_16">
     <!-- qc -->
     <g transform="translate(94.6 58.070437) scale(0.1 -0.1)">
      <defs>
       <path id="DejaVuSans-71" d="M 947 1747 
Q 947 1113 1208 752 
Q 1469 391 1925 391 
Q 2381 391 2643 752 
Q 2906 1113 2906 1747 
Q 2906 2381 2643 2742 
Q 2381 3103 1925 3103 
Q 1469 3103 1208 2742 
Q 947 2381 947 1747 
z
M 2906 525 
Q 2725 213 2448 61 
Q 2172 -91 1784 -91 
Q 1150 -91 751 415 
Q 353 922 353 1747 
Q 353 2572 751 3078 
Q 1150 3584 1784 3584 
Q 2172 3584 2448 3432 
Q 2725 3281 2906 2969 
L 2906 3500 
L 3481 3500 
L 3481 -1331 
L 2906 -1331 
L 2906 525 
z
" transform="scale(0.015625)"/>
       <path id="DejaVuSans-63" d="M 3122 3366 
L 3122 2828 
Q 2878 2963 2633 3030 
Q 2388 3097 2138 3097 
Q 1578 3097 1268 2742 
Q 959 2388 959 1747 
Q 959 1106 1268 751 
Q 1578 397 2138 397 
Q 2388 397 2633 464 
Q 2878 531 3122 666 
L 3122 134 
Q 2881 22 2623 -34 
Q 2366 -91 2075 -91 
Q 1284 -91 818 406 
Q 353 903 353 1747 
Q 353 2603 823 3093 
Q 1294 3584 2113 3584 
Q 2378 3584 2631 3529 
Q 2884 3475 3122 3366 
z
" transform="scale(0.015625)"/>
      </defs>
      <use xlink:href="#DejaVuSans-71"/>
      <use xlink:href="#DejaVuSans-63" x="63.476562"/>
     </g>
    </g>
    <g id="line2d_17">
     <path d="M 66.6 69.248562 
L 76.6 69.248562 
L 86.6 69.248562 
" style="fill: none; stroke: #ff7f0e; stroke-width: 1.5; stroke-linecap: square"/>
    </g>
    <g id="text_17">
     <!-- Trotter -->
     <g transform="translate(94.6 72.748562) scale(0.1 -0.1)">
      <defs>
       <path id="DejaVuSans-54" d="M -19 4666 
L 3928 4666 
L 3928 4134 
L 2272 4134 
L 2272 0 
L 1638 0 
L 1638 4134 
L -19 4134 
L -19 4666 
z
" transform="scale(0.015625)"/>
       <path id="DejaVuSans-72" d="M 2631 2963 
Q 2534 3019 2420 3045 
Q 2306 3072 2169 3072 
Q 1681 3072 1420 2755 
Q 1159 2438 1159 1844 
L 1159 0 
L 581 0 
L 581 3500 
L 1159 3500 
L 1159 2956 
Q 1341 3275 1631 3429 
Q 1922 3584 2338 3584 
Q 2397 3584 2469 3576 
Q 2541 3569 2628 3553 
L 2631 2963 
z
" transform="scale(0.015625)"/>
       <path id="DejaVuSans-6f" d="M 1959 3097 
Q 1497 3097 1228 2736 
Q 959 2375 959 1747 
Q 959 1119 1226 758 
Q 1494 397 1959 397 
Q 2419 397 2687 759 
Q 2956 1122 2956 1747 
Q 2956 2369 2687 2733 
Q 2419 3097 1959 3097 
z
M 1959 3584 
Q 2709 3584 3137 3096 
Q 3566 2609 3566 1747 
Q 3566 888 3137 398 
Q 2709 -91 1959 -91 
Q 1206 -91 779 398 
Q 353 888 353 1747 
Q 353 2609 779 3096 
Q 1206 3584 1959 3584 
z
" transform="scale(0.015625)"/>
       <path id="DejaVuSans-65" d="M 3597 1894 
L 3597 1613 
L 953 1613 
Q 991 1019 1311 708 
Q 1631 397 2203 397 
Q 2534 397 2845 478 
Q 3156 559 3463 722 
L 3463 178 
Q 3153 47 2828 -22 
Q 2503 -91 2169 -91 
Q 1331 -91 842 396 
Q 353 884 353 1716 
Q 353 2575 817 3079 
Q 1281 3584 2069 3584 
Q 2775 3584 3186 3129 
Q 3597 2675 3597 1894 
z
M 3022 2063 
Q 3016 2534 2758 2815 
Q 2500 3097 2075 3097 
Q 1594 3097 1305 2825 
Q 1016 2553 972 2059 
L 3022 2063 
z
" transform="scale(0.015625)"/>
      </defs>
      <use xlink:href="#DejaVuSans-54"/>
      <use xlink:href="#DejaVuSans-72" x="46.333984"/>
      <use xlink:href="#DejaVuSans-6f" x="85.197266"/>
      <use xlink:href="#DejaVuSans-74" x="146.378906"/>
      <use xlink:href="#DejaVuSans-74" x="185.587891"/>
      <use xlink:href="#DejaVuSans-65" x="224.796875"/>
      <use xlink:href="#DejaVuSans-72" x="286.320312"/>
     </g>
    </g>
   </g>
  </g>
 </g>
 <defs>
  <clipPath id="p720ed1dc16">
   <rect x="57.6" y="41.472" width="357.12" height="266.112"/>
  </clipPath>
 </defs>
</svg>
