<?xml version="1.0" encoding="utf-8" standalone="no"?>
<!DOCTYPE svg PUBLIC "-//W3C//DTD SVG 1.1//EN"
  "http://www.w3.org/Graphics/SVG/1.1/DTD/svg11.dtd">
<svg xmlns:xlink="http://www.w3.org/1999/xlink" width="460.8pt" height="345.6pt" viewBox="0 0 460.8 345.6" xmlns="http://www.w3.org/2000/svg" version="1.1">
 <metadata>
  <rdf:RDF xmlns:dc="http://purl.org/dc/elements/1.1/" xmlns:cc="http://creativecommons.org/ns#" xmlns:rdf="http://www.w3.org/1999/02/22-rdf-syntax-ns#">
   <cc:Work>
    <dc:type rdf:resource="http://purl.org/dc/dcmitype/StillImage"/>
    <dc:date>2024-08-23T15:21:12.447125</dc:date>
    <dc:format>image/svg+xml</dc:format>
    <dc:creator>
     <cc:Agent>
      <dc:title>Matplotlib v3.7.1, https://matplotlib.org/</dc:title>
     </cc:Agent>
    </dc:creator>
   </cc:Work>
  </rdf:RDF>
 </metadata>
 <defs>
  <style type="text/css">*{stroke-linejoin: round; stroke-linecap: butt}</style>
 </defs>
 <g id="figure_1">
  <g id="patch_1">
   <path d="M 0 345.6 
L 460.8 345.6 
L 460.8 0 
L 0 0 
z
" style="fill: #ffffff"/>
  </g>
  <g id="axes_1">
   <g id="patch_2">
    <path d="M 57.6 307.584 
L 414.72 307.584 
L 414.72 41.472 
L 57.6 41.472 
z
" style="fill: #ffffff"/>
   </g>
   <g id="matplotlib.axis_1">
    <g id="xtick_1">
     <g id="line2d_1">
      <defs>
       <path id="m1b462ae4e4" d="M 0 0 
L 0 3.5 
" style="stroke: #000000; stroke-width: 0.8"/>
      </defs>
      <g>
       <use xlink:href="#m1b462ae4e4" x="73.832727" y="307.584" style="stroke: #000000; stroke-width: 0.8"/>
      </g>
     </g>
     <g id="text_1">
      <!-- 0 -->
      <g transform="translate(70.651477 322.182437) scale(0.1 -0.1)">
       <defs>
        <path id="DejaVuSans-30" d="M 2034 4250 
Q 1547 4250 1301 3770 
Q 1056 3291 1056 2328 
Q 1056 1369 1301 889 
Q 1547 409 2034 409 
Q 2525 409 2770 889 
Q 3016 1369 3016 2328 
Q 3016 3291 2770 3770 
Q 2525 4250 2034 4250 
z
M 2034 4750 
Q 2819 4750 3233 4129 
Q 3647 3509 3647 2328 
Q 3647 1150 3233 529 
Q 2819 -91 2034 -91 
Q 1250 -91 836 529 
Q 422 1150 422 2328 
Q 422 3509 836 4129 
Q 1250 4750 2034 4750 
z
" transform="scale(0.015625)"/>
       </defs>
       <use xlink:href="#DejaVuSans-30"/>
      </g>
     </g>
    </g>
    <g id="xtick_2">
     <g id="line2d_2">
      <g>
       <use xlink:href="#m1b462ae4e4" x="137.303802" y="307.584" style="stroke: #000000; stroke-width: 0.8"/>
      </g>
     </g>
     <g id="text_2">
      <!-- 200 -->
      <g transform="translate(127.760052 322.182437) scale(0.1 -0.1)">
       <defs>
        <path id="DejaVuSans-32" d="M 1228 531 
L 3431 531 
L 3431 0 
L 469 0 
L 469 531 
Q 828 903 1448 1529 
Q 2069 2156 2228 2338 
Q 2531 2678 2651 2914 
Q 2772 3150 2772 3378 
Q 2772 3750 2511 3984 
Q 2250 4219 1831 4219 
Q 1534 4219 1204 4116 
Q 875 4013 500 3803 
L 500 4441 
Q 881 4594 1212 4672 
Q 1544 4750 1819 4750 
Q 2544 4750 2975 4387 
Q 3406 4025 3406 3419 
Q 3406 3131 3298 2873 
Q 3191 2616 2906 2266 
Q 2828 2175 2409 1742 
Q 1991 1309 1228 531 
z
" transform="scale(0.015625)"/>
       </defs>
       <use xlink:href="#DejaVuSans-32"/>
       <use xlink:href="#DejaVuSans-30" x="63.623047"/>
       <use xlink:href="#DejaVuSans-30" x="127.246094"/>
      </g>
     </g>
    </g>
    <g id="xtick_3">
     <g id="line2d_3">
      <g>
       <use xlink:href="#m1b462ae4e4" x="200.774876" y="307.584" style="stroke: #000000; stroke-width: 0.8"/>
      </g>
     </g>
     <g id="text_3">
      <!-- 400 -->
      <g transform="translate(191.231126 322.182437) scale(0.1 -0.1)">
       <defs>
        <path id="DejaVuSans-34" d="M 2419 4116 
L 825 1625 
L 2419 1625 
L 2419 4116 
z
M 2253 4666 
L 3047 4666 
L 3047 1625 
L 3713 1625 
L 3713 1100 
L 3047 1100 
L 3047 0 
L 2419 0 
L 2419 1100 
L 313 1100 
L 313 1709 
L 2253 4666 
z
" transform="scale(0.015625)"/>
       </defs>
       <use xlink:href="#DejaVuSans-34"/>
       <use xlink:href="#DejaVuSans-30" x="63.623047"/>
       <use xlink:href="#DejaVuSans-30" x="127.246094"/>
      </g>
     </g>
    </g>
    <g id="xtick_4">
     <g id="line2d_4">
      <g>
       <use xlink:href="#m1b462ae4e4" x="264.24595" y="307.584" style="stroke: #000000; stroke-width: 0.8"/>
      </g>
     </g>
     <g id="text_4">
      <!-- 600 -->
      <g transform="translate(254.7022 322.182437) scale(0.1 -0.1)">
       <defs>
        <path id="DejaVuSans-36" d="M 2113 2584 
Q 1688 2584 1439 2293 
Q 1191 2003 1191 1497 
Q 1191 994 1439 701 
Q 1688 409 2113 409 
Q 2538 409 2786 701 
Q 3034 994 3034 1497 
Q 3034 2003 2786 2293 
Q 2538 2584 2113 2584 
z
M 3366 4563 
L 3366 3988 
Q 3128 4100 2886 4159 
Q 2644 4219 2406 4219 
Q 1781 4219 1451 3797 
Q 1122 3375 1075 2522 
Q 1259 2794 1537 2939 
Q 1816 3084 2150 3084 
Q 2853 3084 3261 2657 
Q 3669 2231 3669 1497 
Q 3669 778 3244 343 
Q 2819 -91 2113 -91 
Q 1303 -91 875 529 
Q 447 1150 447 2328 
Q 447 3434 972 4092 
Q 1497 4750 2381 4750 
Q 2619 4750 2861 4703 
Q 3103 4656 3366 4563 
z
" transform="scale(0.015625)"/>
       </defs>
       <use xlink:href="#DejaVuSans-36"/>
       <use xlink:href="#DejaVuSans-30" x="63.623047"/>
       <use xlink:href="#DejaVuSans-30" x="127.246094"/>
      </g>
     </g>
    </g>
    <g id="xtick_5">
     <g id="line2d_5">
      <g>
       <use xlink:href="#m1b462ae4e4" x="327.717025" y="307.584" style="stroke: #000000; stroke-width: 0.8"/>
      </g>
     </g>
     <g id="text_5">
      <!-- 800 -->
      <g transform="translate(318.173275 322.182437) scale(0.1 -0.1)">
       <defs>
        <path id="DejaVuSans-38" d="M 2034 2216 
Q 1584 2216 1326 1975 
Q 1069 1734 1069 1313 
Q 1069 891 1326 650 
Q 1584 409 2034 409 
Q 2484 409 2743 651 
Q 3003 894 3003 1313 
Q 3003 1734 2745 1975 
Q 2488 2216 2034 2216 
z
M 1403 2484 
Q 997 2584 770 2862 
Q 544 3141 544 3541 
Q 544 4100 942 4425 
Q 1341 4750 2034 4750 
Q 2731 4750 3128 4425 
Q 3525 4100 3525 3541 
Q 3525 3141 3298 2862 
Q 3072 2584 2669 2484 
Q 3125 2378 3379 2068 
Q 3634 1759 3634 1313 
Q 3634 634 3220 271 
Q 2806 -91 2034 -91 
Q 1263 -91 848 271 
Q 434 634 434 1313 
Q 434 1759 690 2068 
Q 947 2378 1403 2484 
z
M 1172 3481 
Q 1172 3119 1398 2916 
Q 1625 2713 2034 2713 
Q 2441 2713 2670 2916 
Q 2900 3119 2900 3481 
Q 2900 3844 2670 4047 
Q 2441 4250 2034 4250 
Q 1625 4250 1398 4047 
Q 1172 3844 1172 3481 
z
" transform="scale(0.015625)"/>
       </defs>
       <use xlink:href="#DejaVuSans-38"/>
       <use xlink:href="#DejaVuSans-30" x="63.623047"/>
       <use xlink:href="#DejaVuSans-30" x="127.246094"/>
      </g>
     </g>
    </g>
    <g id="xtick_6">
     <g id="line2d_6">
      <g>
       <use xlink:href="#m1b462ae4e4" x="391.188099" y="307.584" style="stroke: #000000; stroke-width: 0.8"/>
      </g>
     </g>
     <g id="text_6">
      <!-- 1000 -->
      <g transform="translate(378.463099 322.182437) scale(0.1 -0.1)">
       <defs>
        <path id="DejaVuSans-31" d="M 794 531 
L 1825 531 
L 1825 4091 
L 703 3866 
L 703 4441 
L 1819 4666 
L 2450 4666 
L 2450 531 
L 3481 531 
L 3481 0 
L 794 0 
L 794 531 
z
" transform="scale(0.015625)"/>
       </defs>
       <use xlink:href="#DejaVuSans-31"/>
       <use xlink:href="#DejaVuSans-30" x="63.623047"/>
       <use xlink:href="#DejaVuSans-30" x="127.246094"/>
       <use xlink:href="#DejaVuSans-30" x="190.869141"/>
      </g>
     </g>
    </g>
    <g id="text_7">
     <!-- n -->
     <g transform="translate(232.99125 335.860562) scale(0.1 -0.1)">
      <defs>
       <path id="DejaVuSans-6e" d="M 3513 2113 
L 3513 0 
L 2938 0 
L 2938 2094 
Q 2938 2591 2744 2837 
Q 2550 3084 2163 3084 
Q 1697 3084 1428 2787 
Q 1159 2491 1159 1978 
L 1159 0 
L 581 0 
L 581 3500 
L 1159 3500 
L 1159 2956 
Q 1366 3272 1645 3428 
Q 1925 3584 2291 3584 
Q 2894 3584 3203 3211 
Q 3513 2838 3513 2113 
z
" transform="scale(0.015625)"/>
      </defs>
      <use xlink:href="#DejaVuSans-6e"/>
     </g>
    </g>
   </g>
   <g id="matplotlib.axis_2">
    <g id="ytick_1">
     <g id="line2d_7">
      <defs>
       <path id="m602f33f1fd" d="M 0 0 
L -3.5 0 
" style="stroke: #000000; stroke-width: 0.8"/>
      </defs>
      <g>
       <use xlink:href="#m602f33f1fd" x="57.6" y="267.15138" style="stroke: #000000; stroke-width: 0.8"/>
      </g>
     </g>
     <g id="text_8">
      <!-- −4 -->
      <g transform="translate(35.857813 270.950599) scale(0.1 -0.1)">
       <defs>
        <path id="DejaVuSans-2212" d="M 678 2272 
L 4684 2272 
L 4684 1741 
L 678 1741 
L 678 2272 
z
" transform="scale(0.015625)"/>
       </defs>
       <use xlink:href="#DejaVuSans-2212"/>
       <use xlink:href="#DejaVuSans-34" x="83.789062"/>
      </g>
     </g>
    </g>
    <g id="ytick_2">
     <g id="line2d_8">
      <g>
       <use xlink:href="#m602f33f1fd" x="57.6" y="220.872975" style="stroke: #000000; stroke-width: 0.8"/>
      </g>
     </g>
     <g id="text_9">
      <!-- −2 -->
      <g transform="translate(35.857813 224.672194) scale(0.1 -0.1)">
       <use xlink:href="#DejaVuSans-2212"/>
       <use xlink:href="#DejaVuSans-32" x="83.789062"/>
      </g>
     </g>
    </g>
    <g id="ytick_3">
     <g id="line2d_9">
      <g>
       <use xlink:href="#m602f33f1fd" x="57.6" y="174.594571" style="stroke: #000000; stroke-width: 0.8"/>
      </g>
     </g>
     <g id="text_10">
      <!-- 0 -->
      <g transform="translate(44.2375 178.393789) scale(0.1 -0.1)">
       <use xlink:href="#DejaVuSans-30"/>
      </g>
     </g>
    </g>
    <g id="ytick_4">
     <g id="line2d_10">
      <g>
       <use xlink:href="#m602f33f1fd" x="57.6" y="128.316166" style="stroke: #000000; stroke-width: 0.8"/>
      </g>
     </g>
     <g id="text_11">
      <!-- 2 -->
      <g transform="translate(44.2375 132.115385) scale(0.1 -0.1)">
       <use xlink:href="#DejaVuSans-32"/>
      </g>
     </g>
    </g>
    <g id="ytick_5">
     <g id="line2d_11">
      <g>
       <use xlink:href="#m602f33f1fd" x="57.6" y="82.037762" style="stroke: #000000; stroke-width: 0.8"/>
      </g>
     </g>
     <g id="text_12">
      <!-- 4 -->
      <g transform="translate(44.2375 85.83698) scale(0.1 -0.1)">
       <use xlink:href="#DejaVuSans-34"/>
      </g>
     </g>
    </g>
    <g id="text_13">
     <!-- E*t -->
     <g transform="translate(29.778125 182.147531) rotate(-90) scale(0.1 -0.1)">
      <defs>
       <path id="DejaVuSans-45" d="M 628 4666 
L 3578 4666 
L 3578 4134 
L 1259 4134 
L 1259 2753 
L 3481 2753 
L 3481 2222 
L 1259 2222 
L 1259 531 
L 3634 531 
L 3634 0 
L 628 0 
L 628 4666 
z
" transform="scale(0.015625)"/>
       <path id="DejaVuSans-2a" d="M 3009 3897 
L 1888 3291 
L 3009 2681 
L 2828 2375 
L 1778 3009 
L 1778 1831 
L 1422 1831 
L 1422 3009 
L 372 2375 
L 191 2681 
L 1313 3291 
L 191 3897 
L 372 4206 
L 1422 3572 
L 1422 4750 
L 1778 4750 
L 1778 3572 
L 2828 4206 
L 3009 3897 
z
" transform="scale(0.015625)"/>
       <path id="DejaVuSans-74" d="M 1172 4494 
L 1172 3500 
L 2356 3500 
L 2356 3053 
L 1172 3053 
L 1172 1153 
Q 1172 725 1289 603 
Q 1406 481 1766 481 
L 2356 481 
L 2356 0 
L 1766 0 
Q 1100 0 847 248 
Q 594 497 594 1153 
L 594 3053 
L 172 3053 
L 172 3500 
L 594 3500 
L 594 4494 
L 1172 4494 
z
" transform="scale(0.015625)"/>
      </defs>
      <use xlink:href="#DejaVuSans-45"/>
      <use xlink:href="#DejaVuSans-2a" x="63.183594"/>
      <use xlink:href="#DejaVuSans-74" x="113.183594"/>
     </g>
    </g>
   </g>
   <g id="line2d_12">
    <path d="M 73.832727 295.488 
L 74.784793 294.912463 
L 75.419504 294.254732 
L 76.688926 293.832399 
L 77.006281 293.592218 
L 77.958347 293.437274 
L 78.275702 293.067958 
L 79.227769 293.021932 
L 79.545124 292.398805 
L 79.862479 292.296937 
L 80.179835 291.973284 
L 81.131901 291.831745 
L 81.449256 291.457168 
L 81.766612 291.340081 
L 82.083967 291.046132 
L 82.401322 290.421997 
L 83.036033 289.905137 
L 83.353388 289.78603 
L 83.670744 289.280997 
L 83.988099 289.256857 
L 84.305455 288.640956 
L 84.940165 288.598021 
L 85.257521 288.13315 
L 86.209587 287.733348 
L 86.526942 287.160723 
L 86.844298 287.113859 
L 87.479008 285.946267 
L 88.113719 285.834351 
L 89.38314 284.778391 
L 89.700496 284.681849 
L 90.335207 284.137756 
L 90.652562 284.033509 
L 91.921983 283.123338 
L 92.239339 283.048413 
L 92.556694 282.494505 
L 92.87405 282.256297 
L 93.50876 282.132326 
L 94.143471 281.612571 
L 94.778182 280.807233 
L 96.364959 279.301366 
L 96.999669 278.808071 
L 97.951736 278.46426 
L 98.586446 278.283915 
L 99.221157 278.072904 
L 99.538512 277.710283 
L 99.855868 277.168155 
L 100.490579 276.926499 
L 100.807934 276.571101 
L 101.125289 276.565099 
L 101.442645 276.401936 
L 102.077355 275.385306 
L 102.394711 275.330983 
L 103.346777 274.735747 
L 104.933554 272.739697 
L 105.88562 269.412363 
L 106.520331 268.944496 
L 107.155041 268.347357 
L 107.472397 268.285233 
L 107.789752 267.746256 
L 108.107107 267.629997 
L 108.424463 267.118182 
L 109.059174 266.689021 
L 109.693884 266.550977 
L 110.01124 265.985127 
L 110.328595 265.925247 
L 110.963306 264.958134 
L 112.232727 264.479378 
L 112.550083 264.453607 
L 112.867438 264.147835 
L 113.819504 263.95138 
L 114.77157 263.573196 
L 115.406281 263.229538 
L 115.723636 263.197612 
L 116.040992 262.736424 
L 116.358347 262.586084 
L 116.675702 262.130541 
L 116.993058 261.382434 
L 117.627769 261.273477 
L 117.945124 261.01868 
L 118.262479 260.987706 
L 118.579835 260.625955 
L 119.849256 260.251976 
L 120.166612 260.007614 
L 120.801322 259.889357 
L 121.436033 259.838124 
L 122.070744 259.583631 
L 122.705455 259.332161 
L 123.02281 258.658365 
L 123.340165 258.595985 
L 123.657521 258.38884 
L 123.974876 257.860885 
L 124.926942 257.200663 
L 125.244298 256.767365 
L 125.561653 256.585533 
L 125.879008 256.04929 
L 126.513719 255.994897 
L 126.831074 255.405612 
L 127.14843 255.400008 
L 127.465785 255.051629 
L 127.78314 253.34209 
L 128.100496 253.20751 
L 128.417851 252.882774 
L 129.052562 252.627836 
L 129.369917 252.296803 
L 130.004628 252.220483 
L 130.639339 251.984136 
L 130.956694 251.66076 
L 131.27405 251.651364 
L 131.591405 251.407126 
L 131.90876 250.142117 
L 132.226116 249.890005 
L 132.543471 249.041275 
L 133.178182 248.878319 
L 133.495537 248.504772 
L 133.812893 248.479905 
L 134.764959 247.861311 
L 135.399669 247.313142 
L 135.717025 246.600866 
L 136.669091 246.458706 
L 136.986446 246.040529 
L 137.303802 245.974988 
L 137.621157 245.721574 
L 138.255868 245.503851 
L 138.890579 245.349719 
L 139.842645 245.099271 
L 140.794711 245.058208 
L 141.429421 244.806219 
L 141.746777 244.797005 
L 142.064132 244.633658 
L 142.381488 244.322281 
L 142.698843 244.259956 
L 143.333554 243.557424 
L 144.602975 242.844317 
L 144.920331 242.438454 
L 145.237686 242.392351 
L 146.189752 242.00472 
L 146.507107 241.978206 
L 146.824463 241.729655 
L 147.141818 240.87178 
L 147.776529 240.721044 
L 148.41124 240.203093 
L 148.728595 239.034297 
L 149.680661 238.269491 
L 149.998017 238.264021 
L 150.315372 237.77353 
L 150.632727 237.771603 
L 151.267438 237.51726 
L 152.854215 235.094815 
L 154.123636 234.83172 
L 154.758347 234.419448 
L 155.393058 234.258 
L 156.027769 233.740162 
L 156.345124 233.4849 
L 156.662479 232.970867 
L 156.979835 232.84179 
L 157.931901 231.802871 
L 158.249256 231.423196 
L 159.201322 231.366672 
L 159.836033 231.004378 
L 160.470744 230.968632 
L 161.740165 230.439379 
L 162.692231 230.09528 
L 163.009587 229.849581 
L 163.961653 228.308044 
L 164.279008 228.07214 
L 164.596364 227.652281 
L 164.913719 227.430452 
L 165.54843 227.372472 
L 166.500496 227.197717 
L 167.135207 227.168397 
L 167.452562 226.7671 
L 168.404628 226.625168 
L 168.721983 226.407175 
L 169.356694 226.185204 
L 169.67405 226.110992 
L 169.991405 225.824652 
L 170.943471 225.655194 
L 171.895537 225.505255 
L 173.164959 223.618748 
L 173.799669 223.405607 
L 174.117025 223.126615 
L 174.43438 222.612068 
L 176.338512 221.133252 
L 177.290579 220.587675 
L 177.607934 220.130627 
L 178.242645 219.831207 
L 178.877355 218.971376 
L 179.512066 218.894281 
L 179.829421 218.622589 
L 180.464132 218.49388 
L 180.781488 218.027162 
L 181.098843 217.983199 
L 181.416198 217.741443 
L 181.733554 217.701328 
L 182.050909 217.387915 
L 183.320331 216.881259 
L 183.955041 215.991812 
L 184.272397 215.817218 
L 184.589752 215.799052 
L 185.224463 215.556211 
L 185.541818 214.145622 
L 185.859174 214.124545 
L 187.128595 212.969289 
L 189.984793 212.430955 
L 190.302149 212.217127 
L 191.254215 211.988544 
L 191.57157 211.872265 
L 191.888926 211.494085 
L 192.523636 210.974409 
L 192.840992 209.222567 
L 193.475702 208.725269 
L 194.427769 208.606017 
L 194.745124 208.133206 
L 195.379835 208.080909 
L 195.69719 207.82805 
L 196.014545 207.094762 
L 196.331901 207.01043 
L 197.918678 205.775226 
L 198.236033 205.768684 
L 199.505455 205.304561 
L 199.82281 205.264938 
L 200.774876 204.782629 
L 201.092231 204.482533 
L 201.726942 204.181476 
L 202.361653 203.637508 
L 203.631074 202.798849 
L 203.94843 202.439612 
L 204.265785 202.41326 
L 205.217851 201.910904 
L 205.852562 201.699776 
L 206.169917 201.4976 
L 208.391405 201.100841 
L 208.70876 200.543103 
L 209.026116 200.404937 
L 209.343471 200.037587 
L 210.930248 199.318329 
L 211.564959 199.227897 
L 212.517025 198.671082 
L 212.83438 198.589857 
L 213.151736 198.352864 
L 214.738512 197.981758 
L 215.055868 197.813971 
L 215.690579 197.737448 
L 216.007934 196.967731 
L 216.642645 196.73147 
L 217.277355 195.446359 
L 217.594711 194.842261 
L 218.229421 194.610671 
L 219.181488 194.248428 
L 219.498843 194.083993 
L 220.133554 193.993388 
L 221.720331 193.385078 
L 222.672397 193.20109 
L 223.307107 192.592839 
L 223.624463 192.543395 
L 224.576529 191.824051 
L 225.21124 191.457083 
L 225.528595 191.230673 
L 225.84595 191.184906 
L 226.798017 190.26297 
L 227.115372 189.972756 
L 227.432727 189.854379 
L 228.384793 188.682245 
L 229.019504 188.311286 
L 229.33686 187.512263 
L 230.288926 186.643189 
L 231.240992 186.368429 
L 231.875702 185.456922 
L 233.145124 184.954233 
L 233.462479 184.562223 
L 234.09719 184.534266 
L 234.414545 184.188194 
L 235.366612 183.917664 
L 236.001322 183.829181 
L 236.318678 183.756072 
L 236.636033 183.296656 
L 236.953388 183.254005 
L 237.905455 182.630928 
L 238.22281 182.506509 
L 238.857521 181.789474 
L 239.492231 181.429708 
L 239.809587 180.944171 
L 240.444298 180.685442 
L 240.761653 180.662384 
L 241.079008 180.258583 
L 241.396364 180.087272 
L 242.665785 178.864008 
L 243.300496 178.534392 
L 243.617851 178.049108 
L 245.204628 177.483149 
L 245.521983 177.450506 
L 245.839339 177.193141 
L 246.47405 177.156385 
L 246.791405 176.796717 
L 247.10876 176.638364 
L 249.012893 174.773166 
L 249.964959 174.618516 
L 250.282314 174.465992 
L 250.599669 174.090762 
L 251.23438 173.895975 
L 251.869091 173.536281 
L 252.821157 173.171163 
L 253.455868 172.404417 
L 253.773223 171.788026 
L 254.090579 171.714182 
L 254.407934 170.780082 
L 255.042645 170.637476 
L 255.36 170.283854 
L 255.677355 170.237664 
L 255.994711 169.852842 
L 256.629421 169.644418 
L 257.581488 169.429303 
L 257.898843 169.42114 
L 258.216198 169.077455 
L 258.850909 168.976235 
L 259.802975 168.581085 
L 260.120331 168.574102 
L 260.437686 168.299567 
L 261.389752 168.181616 
L 261.707107 168.023956 
L 262.024463 167.655063 
L 262.341818 166.976699 
L 263.61124 166.489374 
L 263.928595 166.463784 
L 264.563306 166.051723 
L 269.006281 164.978883 
L 269.323636 164.56152 
L 270.593058 164.355585 
L 270.910413 163.969486 
L 271.227769 163.39332 
L 271.545124 163.052266 
L 272.179835 162.77557 
L 272.814545 162.653715 
L 273.131901 162.129033 
L 273.449256 162.013963 
L 273.766612 161.560333 
L 275.036033 160.652792 
L 275.353388 160.645606 
L 276.940165 159.204364 
L 277.257521 159.156803 
L 277.892231 158.027107 
L 278.209587 158.012439 
L 278.844298 157.71524 
L 279.479008 157.086862 
L 279.796364 156.972687 
L 280.113719 155.793179 
L 280.74843 155.518886 
L 281.065785 154.699151 
L 281.700496 154.557669 
L 282.017851 154.254148 
L 282.969917 153.991276 
L 283.287273 153.673689 
L 284.556694 152.964858 
L 284.87405 152.103818 
L 285.191405 151.903595 
L 285.50876 151.872746 
L 286.143471 150.690829 
L 286.460826 150.68129 
L 287.095537 149.813928 
L 287.730248 149.520426 
L 288.047603 149.15734 
L 288.364959 148.979565 
L 288.682314 148.518893 
L 289.951736 147.783599 
L 290.269091 147.688264 
L 290.586446 147.384815 
L 291.221157 147.17239 
L 291.538512 146.582555 
L 292.173223 146.51471 
L 292.490579 145.265636 
L 293.125289 145.053293 
L 293.442645 144.64931 
L 293.76 144.450386 
L 294.394711 143.561523 
L 295.029421 143.096366 
L 295.664132 142.967746 
L 295.981488 142.493375 
L 296.298843 142.219371 
L 296.616198 141.61654 
L 296.933554 141.356053 
L 297.568264 141.219359 
L 298.520331 140.909555 
L 299.472397 140.502479 
L 299.789752 139.877503 
L 300.107107 139.663007 
L 300.424463 138.595063 
L 301.059174 137.88276 
L 301.693884 137.624086 
L 302.328595 136.824829 
L 302.963306 136.63495 
L 303.280661 136.30742 
L 303.598017 136.167155 
L 303.915372 135.663965 
L 304.232727 134.722192 
L 304.867438 134.518664 
L 305.184793 134.125451 
L 305.502149 134.116401 
L 305.819504 133.710686 
L 306.454215 133.424464 
L 307.088926 133.287056 
L 307.406281 133.110795 
L 307.723636 133.062487 
L 308.040992 132.759395 
L 308.675702 132.655012 
L 309.310413 132.579837 
L 309.627769 132.489454 
L 309.945124 132.172231 
L 310.579835 131.983608 
L 310.89719 131.757087 
L 311.531901 130.876044 
L 311.849256 130.838067 
L 312.166612 130.645108 
L 312.483967 130.602029 
L 312.801322 130.37601 
L 313.436033 130.223805 
L 313.753388 129.806719 
L 314.070744 129.750255 
L 314.388099 129.245619 
L 315.02281 129.051695 
L 315.340165 128.520316 
L 316.926942 127.781717 
L 317.244298 126.991824 
L 317.561653 126.705582 
L 317.879008 126.651942 
L 318.196364 125.413237 
L 318.831074 124.892964 
L 319.14843 124.75933 
L 320.100496 123.463273 
L 321.687273 122.790713 
L 322.004628 122.722669 
L 322.639339 122.105223 
L 322.956694 121.863163 
L 323.27405 121.165485 
L 323.591405 121.030107 
L 323.90876 120.258874 
L 324.226116 120.08512 
L 324.543471 119.618185 
L 324.860826 119.472473 
L 325.495537 119.436129 
L 326.764959 118.51046 
L 327.082314 117.851818 
L 327.399669 117.735148 
L 327.717025 117.438953 
L 328.03438 117.403121 
L 328.351736 117.216445 
L 328.669091 116.667548 
L 328.986446 116.556531 
L 329.303802 116.230806 
L 330.890579 115.514918 
L 331.207934 115.154224 
L 331.525289 114.969168 
L 331.842645 114.936818 
L 332.477355 114.475919 
L 334.064132 113.882292 
L 334.381488 113.494729 
L 334.698843 113.378866 
L 335.016198 113.092139 
L 335.333554 113.048802 
L 335.650909 112.4089 
L 335.968264 112.140307 
L 336.28562 112.037632 
L 336.602975 111.470654 
L 337.555041 111.228107 
L 337.872397 110.466073 
L 339.141818 110.011357 
L 339.459174 109.163466 
L 339.776529 108.799995 
L 340.093884 108.747077 
L 340.41124 108.51008 
L 340.728595 108.509574 
L 341.04595 108.267304 
L 341.363306 107.633299 
L 341.680661 107.409651 
L 341.998017 106.986207 
L 342.632727 106.5027 
L 342.950083 106.019178 
L 343.267438 105.932289 
L 344.219504 104.594447 
L 344.854215 102.526896 
L 346.123636 102.410848 
L 346.440992 101.909693 
L 347.075702 101.826532 
L 347.393058 101.604457 
L 347.710413 101.101345 
L 348.027769 100.966673 
L 348.345124 100.701736 
L 348.979835 100.63828 
L 349.29719 100.467611 
L 349.614545 100.455543 
L 349.931901 100.075953 
L 350.883967 99.899514 
L 351.201322 99.826206 
L 351.518678 99.126598 
L 352.153388 98.757815 
L 352.470744 98.131509 
L 352.788099 97.985338 
L 353.42281 96.732938 
L 353.740165 96.668002 
L 354.057521 96.352046 
L 354.374876 95.521965 
L 354.692231 95.159116 
L 355.009587 94.535877 
L 355.326942 93.652523 
L 355.644298 92.089112 
L 356.279008 90.533738 
L 356.596364 90.276639 
L 356.913719 89.39883 
L 357.54843 88.953564 
L 357.865785 88.878454 
L 358.500496 87.856749 
L 358.817851 87.816134 
L 359.135207 87.559273 
L 359.452562 86.982024 
L 359.769917 85.950049 
L 361.356694 85.172804 
L 362.626116 84.786062 
L 362.943471 84.36748 
L 363.578182 83.77248 
L 363.895537 83.469636 
L 365.164959 83.046887 
L 365.799669 81.57335 
L 366.117025 81.188417 
L 366.751736 80.989253 
L 367.069091 80.716874 
L 367.386446 79.742158 
L 368.021157 79.347116 
L 368.338512 78.775393 
L 368.655868 78.569039 
L 369.290579 77.846803 
L 370.242645 77.304408 
L 370.877355 76.714427 
L 371.194711 75.832402 
L 371.512066 75.753812 
L 372.146777 74.449103 
L 372.464132 74.262399 
L 372.781488 73.91137 
L 373.416198 73.648008 
L 373.733554 73.034444 
L 374.050909 72.860482 
L 374.368264 72.500412 
L 376.272397 71.881471 
L 379.128595 68.927972 
L 380.080661 68.672405 
L 380.398017 68.664548 
L 380.715372 68.287899 
L 381.032727 68.092679 
L 381.350083 67.462852 
L 381.667438 67.448132 
L 381.984793 66.728862 
L 382.93686 66.306628 
L 383.888926 66.093173 
L 384.206281 65.954129 
L 384.523636 65.646345 
L 385.475702 65.475955 
L 386.110413 64.806607 
L 386.427769 64.481661 
L 387.062479 64.298924 
L 387.379835 64.042884 
L 387.69719 63.996322 
L 388.014545 62.851582 
L 388.331901 62.756459 
L 388.649256 62.196519 
L 389.283967 61.805773 
L 389.601322 61.213085 
L 389.918678 61.043737 
L 390.236033 61.037511 
L 390.553388 60.840036 
L 390.870744 60.787403 
L 391.188099 60.544324 
L 391.82281 60.5021 
L 392.457521 60.022429 
L 392.774876 59.53787 
L 394.044298 59.053893 
L 394.679008 58.154301 
L 394.996364 57.199783 
L 396.58314 56.64935 
L 396.900496 56.434626 
L 397.217851 56.391429 
L 397.535207 56.135358 
L 398.169917 55.320631 
L 398.487273 53.568 
L 398.487273 53.568 
" clip-path="url(#pb45f302536)" style="fill: none; stroke: #1f77b4; stroke-width: 1.5; stroke-linecap: square"/>
   </g>
   <g id="line2d_13">
    <path d="M 73.832727 290.919932 
L 74.150083 277.346014 
L 74.467438 277.346014 
L 74.784793 265.743079 
L 75.102149 263.332985 
L 75.73686 263.332985 
L 76.054215 258.991635 
L 76.37157 251.662834 
L 76.688926 251.21319 
L 77.006281 251.21319 
L 77.323636 250.079186 
L 78.910413 250.079186 
L 79.227769 245.944578 
L 79.545124 245.944578 
L 79.862479 244.447864 
L 80.179835 243.523172 
L 80.49719 243.523172 
L 80.814545 238.951192 
L 81.131901 236.799124 
L 82.083967 236.762121 
L 82.401322 235.488431 
L 86.844298 235.416115 
L 87.161653 234.718709 
L 87.479008 231.405727 
L 87.796364 230.673348 
L 88.113719 229.52643 
L 89.700496 229.52643 
L 90.017851 228.061008 
L 90.652562 228.061008 
L 90.969917 226.358702 
L 91.287273 226.358702 
L 91.604628 225.471934 
L 91.921983 223.191029 
L 99.221157 223.191029 
L 99.538512 221.831916 
L 99.855868 221.831916 
L 100.173223 221.510427 
L 101.76 221.510427 
L 102.077355 220.101669 
L 103.664132 220.101669 
L 103.981488 219.783905 
L 104.298843 219.23461 
L 104.933554 219.23461 
L 105.250909 217.302688 
L 106.202975 217.205324 
L 106.520331 212.845293 
L 107.155041 212.414491 
L 107.472397 212.414491 
L 107.789752 211.410501 
L 109.376529 211.410501 
L 109.693884 209.207076 
L 110.01124 209.207076 
L 110.328595 206.772982 
L 129.369917 206.772881 
L 129.687273 205.389669 
L 130.321983 204.088745 
L 131.27405 204.005803 
L 131.591405 202.874272 
L 131.90876 202.874272 
L 132.226116 202.615755 
L 132.860826 202.615755 
L 133.178182 200.43748 
L 133.495537 200.43748 
L 133.812893 199.981351 
L 135.399669 199.981351 
L 135.717025 198.123761 
L 136.03438 197.873275 
L 136.351736 197.453865 
L 136.986446 197.34812 
L 163.009587 197.34812 
L 163.326942 195.420179 
L 167.135207 195.420179 
L 167.452562 195.067838 
L 167.769917 195.067838 
L 168.087273 192.681761 
L 168.404628 192.681761 
L 168.721983 192.044873 
L 169.356694 192.044873 
L 169.67405 191.633879 
L 169.991405 190.649475 
L 171.578182 190.649475 
L 172.212893 189.955401 
L 172.530248 189.955401 
L 172.847603 189.660942 
L 180.146777 189.660942 
L 180.464132 189.154103 
L 180.781488 189.154103 
L 181.098843 188.656953 
L 182.68562 188.656953 
L 183.320331 184.019332 
L 185.541818 183.978079 
L 185.859174 183.708633 
L 186.493884 183.708633 
L 186.81124 183.301642 
L 187.128595 182.281748 
L 187.44595 182.281748 
L 187.763306 181.590986 
L 188.080661 181.590986 
L 188.398017 178.707233 
L 188.715372 174.594571 
L 283.604628 174.594571 
L 284.239339 167.598156 
L 284.556694 167.598156 
L 284.87405 166.907393 
L 285.191405 166.907393 
L 285.50876 165.8875 
L 285.826116 165.480509 
L 286.460826 165.480509 
L 286.778182 165.211063 
L 288.999669 165.169809 
L 289.63438 160.532189 
L 291.221157 160.532189 
L 291.538512 160.035038 
L 291.855868 160.035038 
L 292.173223 159.528199 
L 299.472397 159.528199 
L 299.789752 159.233741 
L 300.107107 159.233741 
L 300.741818 158.539666 
L 302.328595 158.539666 
L 302.64595 157.555262 
L 302.963306 157.144268 
L 303.598017 157.144268 
L 303.915372 156.50738 
L 304.232727 156.50738 
L 304.550083 154.121303 
L 304.867438 154.121303 
L 305.184793 153.768963 
L 308.993058 153.768963 
L 309.310413 151.841022 
L 335.968264 151.735276 
L 336.602975 151.065381 
L 336.920331 149.20779 
L 338.507107 149.20779 
L 338.824463 148.751661 
L 339.141818 148.751661 
L 339.459174 146.573387 
L 340.093884 146.573387 
L 340.41124 146.31487 
L 340.728595 146.31487 
L 341.04595 145.183339 
L 341.680661 145.100397 
L 341.998017 145.100397 
L 342.315372 144.596877 
L 342.632727 143.799473 
L 342.950083 142.41626 
L 361.991405 142.41616 
L 362.30876 139.982066 
L 362.626116 139.982066 
L 362.943471 137.77864 
L 364.530248 137.77864 
L 364.847603 136.77465 
L 365.164959 136.77465 
L 365.799669 136.343849 
L 366.117025 131.983818 
L 367.069091 131.886453 
L 367.386446 129.954531 
L 368.021157 129.954531 
L 368.338512 129.405237 
L 368.655868 129.087473 
L 370.242645 129.087473 
L 370.56 127.678714 
L 372.146777 127.678714 
L 372.464132 127.357225 
L 372.781488 127.357225 
L 373.098843 125.998112 
L 380.398017 125.998112 
L 380.715372 123.717208 
L 381.032727 122.83044 
L 381.350083 122.83044 
L 381.667438 121.128134 
L 382.302149 121.128134 
L 382.619504 119.662711 
L 384.206281 119.662711 
L 384.840992 117.783414 
L 385.158347 114.470432 
L 385.475702 113.773026 
L 389.918678 113.70071 
L 390.236033 112.427021 
L 391.188099 112.390018 
L 391.505455 110.23795 
L 391.82281 105.665969 
L 392.140165 105.665969 
L 392.457521 104.741278 
L 392.774876 103.244563 
L 393.092231 103.244563 
L 393.409587 99.109956 
L 394.996364 99.109956 
L 395.313719 97.975951 
L 395.631074 97.975951 
L 395.94843 97.526308 
L 396.265785 90.197507 
L 396.58314 85.856156 
L 397.217851 85.856156 
L 397.535207 83.446062 
L 397.852562 71.843127 
L 398.169917 71.843127 
L 398.487273 58.269209 
L 398.487273 58.269209 
" clip-path="url(#pb45f302536)" style="fill: none; stroke: #ff7f0e; stroke-width: 1.5; stroke-linecap: square"/>
   </g>
   <g id="patch_3">
    <path d="M 57.6 307.584 
L 57.6 41.472 
" style="fill: none; stroke: #000000; stroke-width: 0.8; stroke-linejoin: miter; stroke-linecap: square"/>
   </g>
   <g id="patch_4">
    <path d="M 414.72 307.584 
L 414.72 41.472 
" style="fill: none; stroke: #000000; stroke-width: 0.8; stroke-linejoin: miter; stroke-linecap: square"/>
   </g>
   <g id="patch_5">
    <path d="M 57.6 307.584 
L 414.72 307.584 
" style="fill: none; stroke: #000000; stroke-width: 0.8; stroke-linejoin: miter; stroke-linecap: square"/>
   </g>
   <g id="patch_6">
    <path d="M 57.6 41.472 
L 414.72 41.472 
" style="fill: none; stroke: #000000; stroke-width: 0.8; stroke-linejoin: miter; stroke-linecap: square"/>
   </g>
   <g id="legend_1">
    <g id="patch_7">
     <path d="M 64.6 78.82825 
L 129.342187 78.82825 
Q 131.342187 78.82825 131.342187 76.82825 
L 131.342187 48.472 
Q 131.342187 46.472 129.342187 46.472 
L 64.6 46.472 
Q 62.6 46.472 62.6 48.472 
L 62.6 76.82825 
Q 62.6 78.82825 64.6 78.82825 
z
" style="fill: #ffffff; opacity: 0.8; stroke: #cccccc; stroke-linejoin: miter"/>
    </g>
    <g id="line2d_14">
     <path d="M 66.6 54.570437 
L 76.6 54.570437 
L 86.6 54.570437 
" style="fill: none; stroke: #1f77b4; stroke-width: 1.5; stroke-linecap: square"/>
    </g>
    <g id="text_14">
     <!-- qc -->
     <g transform="translate(94.6 58.070437) scale(0.1 -0.1)">
      <defs>
       <path id="DejaVuSans-71" d="M 947 1747 
Q 947 1113 1208 752 
Q 1469 391 1925 391 
Q 2381 391 2643 752 
Q 2906 1113 2906 1747 
Q 2906 2381 2643 2742 
Q 2381 3103 1925 3103 
Q 1469 3103 1208 2742 
Q 947 2381 947 1747 
z
M 2906 525 
Q 2725 213 2448 61 
Q 2172 -91 1784 -91 
Q 1150 -91 751 415 
Q 353 922 353 1747 
Q 353 2572 751 3078 
Q 1150 3584 1784 3584 
Q 2172 3584 2448 3432 
Q 2725 3281 2906 2969 
L 2906 3500 
L 3481 3500 
L 3481 -1331 
L 2906 -1331 
L 2906 525 
z
" transform="scale(0.015625)"/>
       <path id="DejaVuSans-63" d="M 3122 3366 
L 3122 2828 
Q 2878 2963 2633 3030 
Q 2388 3097 2138 3097 
Q 1578 3097 1268 2742 
Q 959 2388 959 1747 
Q 959 1106 1268 751 
Q 1578 397 2138 397 
Q 2388 397 2633 464 
Q 2878 531 3122 666 
L 3122 134 
Q 2881 22 2623 -34 
Q 2366 -91 2075 -91 
Q 1284 -91 818 406 
Q 353 903 353 1747 
Q 353 2603 823 3093 
Q 1294 3584 2113 3584 
Q 2378 3584 2631 3529 
Q 2884 3475 3122 3366 
z
" transform="scale(0.015625)"/>
      </defs>
      <use xlink:href="#DejaVuSans-71"/>
      <use xlink:href="#DejaVuSans-63" x="63.476562"/>
     </g>
    </g>
    <g id="line2d_15">
     <path d="M 66.6 69.248562 
L 76.6 69.248562 
L 86.6 69.248562 
" style="fill: none; stroke: #ff7f0e; stroke-width: 1.5; stroke-linecap: square"/>
    </g>
    <g id="text_15">
     <!-- Trotter -->
     <g transform="translate(94.6 72.748562) scale(0.1 -0.1)">
      <defs>
       <path id="DejaVuSans-54" d="M -19 4666 
L 3928 4666 
L 3928 4134 
L 2272 4134 
L 2272 0 
L 1638 0 
L 1638 4134 
L -19 4134 
L -19 4666 
z
" transform="scale(0.015625)"/>
       <path id="DejaVuSans-72" d="M 2631 2963 
Q 2534 3019 2420 3045 
Q 2306 3072 2169 3072 
Q 1681 3072 1420 2755 
Q 1159 2438 1159 1844 
L 1159 0 
L 581 0 
L 581 3500 
L 1159 3500 
L 1159 2956 
Q 1341 3275 1631 3429 
Q 1922 3584 2338 3584 
Q 2397 3584 2469 3576 
Q 2541 3569 2628 3553 
L 2631 2963 
z
" transform="scale(0.015625)"/>
       <path id="DejaVuSans-6f" d="M 1959 3097 
Q 1497 3097 1228 2736 
Q 959 2375 959 1747 
Q 959 1119 1226 758 
Q 1494 397 1959 397 
Q 2419 397 2687 759 
Q 2956 1122 2956 1747 
Q 2956 2369 2687 2733 
Q 2419 3097 1959 3097 
z
M 1959 3584 
Q 2709 3584 3137 3096 
Q 3566 2609 3566 1747 
Q 3566 888 3137 398 
Q 2709 -91 1959 -91 
Q 1206 -91 779 398 
Q 353 888 353 1747 
Q 353 2609 779 3096 
Q 1206 3584 1959 3584 
z
" transform="scale(0.015625)"/>
       <path id="DejaVuSans-65" d="M 3597 1894 
L 3597 1613 
L 953 1613 
Q 991 1019 1311 708 
Q 1631 397 2203 397 
Q 2534 397 2845 478 
Q 3156 559 3463 722 
L 3463 178 
Q 3153 47 2828 -22 
Q 2503 -91 2169 -91 
Q 1331 -91 842 396 
Q 353 884 353 1716 
Q 353 2575 817 3079 
Q 1281 3584 2069 3584 
Q 2775 3584 3186 3129 
Q 3597 2675 3597 1894 
z
M 3022 2063 
Q 3016 2534 2758 2815 
Q 2500 3097 2075 3097 
Q 1594 3097 1305 2825 
Q 1016 2553 972 2059 
L 3022 2063 
z
" transform="scale(0.015625)"/>
      </defs>
      <use xlink:href="#DejaVuSans-54"/>
      <use xlink:href="#DejaVuSans-72" x="46.333984"/>
      <use xlink:href="#DejaVuSans-6f" x="85.197266"/>
      <use xlink:href="#DejaVuSans-74" x="146.378906"/>
      <use xlink:href="#DejaVuSans-74" x="185.587891"/>
      <use xlink:href="#DejaVuSans-65" x="224.796875"/>
      <use xlink:href="#DejaVuSans-72" x="286.320312"/>
     </g>
    </g>
   </g>
  </g>
 </g>
 <defs>
  <clipPath id="pb45f302536">
   <rect x="57.6" y="41.472" width="357.12" height="266.112"/>
  </clipPath>
 </defs>
</svg>
