<?xml version="1.0" encoding="utf-8" standalone="no"?>
<!DOCTYPE svg PUBLIC "-//W3C//DTD SVG 1.1//EN"
  "http://www.w3.org/Graphics/SVG/1.1/DTD/svg11.dtd">
<svg xmlns:xlink="http://www.w3.org/1999/xlink" width="720pt" height="504pt" viewBox="0 0 720 504" xmlns="http://www.w3.org/2000/svg" version="1.1">
 <metadata>
  <rdf:RDF xmlns:dc="http://purl.org/dc/elements/1.1/" xmlns:cc="http://creativecommons.org/ns#" xmlns:rdf="http://www.w3.org/1999/02/22-rdf-syntax-ns#">
   <cc:Work>
    <dc:type rdf:resource="http://purl.org/dc/dcmitype/StillImage"/>
    <dc:date>2024-07-12T09:24:15.930832</dc:date>
    <dc:format>image/svg+xml</dc:format>
    <dc:creator>
     <cc:Agent>
      <dc:title>Matplotlib v3.7.1, https://matplotlib.org/</dc:title>
     </cc:Agent>
    </dc:creator>
   </cc:Work>
  </rdf:RDF>
 </metadata>
 <defs>
  <style type="text/css">*{stroke-linejoin: round; stroke-linecap: butt}</style>
 </defs>
 <g id="figure_1">
  <g id="patch_1">
   <path d="M 0 504 
L 720 504 
L 720 0 
L 0 0 
z
" style="fill: #ffffff"/>
  </g>
  <g id="patch_2">
   <path d="M 174.96 448.56 
L 563.04 448.56 
L 563.04 60.48 
L 174.96 60.48 
z
" style="fill: #ffffff"/>
  </g>
  <g id="pane3d_1">
   <g id="patch_3">
    <path d="M 204.262716 352.871909 
L 332.419406 245.44843 
L 330.637906 90.52457 
L 196.348257 188.523039 
" style="fill: #f2f2f2; opacity: 0.5; stroke: #f2f2f2; stroke-linejoin: miter"/>
   </g>
  </g>
  <g id="pane3d_2">
   <g id="patch_4">
    <path d="M 332.419406 245.44843 
L 538.065167 305.221534 
L 545.40394 144.961499 
L 330.637906 90.52457 
" style="fill: #e6e6e6; opacity: 0.5; stroke: #e6e6e6; stroke-linejoin: miter"/>
   </g>
  </g>
  <g id="pane3d_3">
   <g id="patch_5">
    <path d="M 204.262716 352.871909 
L 422.257267 424.068929 
L 538.065167 305.221534 
L 332.419406 245.44843 
" style="fill: #ececec; opacity: 0.5; stroke: #ececec; stroke-linejoin: miter"/>
   </g>
  </g>
  <g id="axis3d_1">
   <g id="line2d_1">
    <path d="M 204.262716 352.871909 
L 422.257267 424.068929 
" style="fill: none; stroke: #000000; stroke-width: 0.8; stroke-linecap: square"/>
   </g>
   <g id="text_1">
    <!-- t -->
    <g transform="translate(292.177295 425.471519) scale(0.1 -0.1)">
     <defs>
      <path id="DejaVuSans-74" d="M 1172 4494 
L 1172 3500 
L 2356 3500 
L 2356 3053 
L 1172 3053 
L 1172 1153 
Q 1172 725 1289 603 
Q 1406 481 1766 481 
L 2356 481 
L 2356 0 
L 1766 0 
Q 1100 0 847 248 
Q 594 497 594 1153 
L 594 3053 
L 172 3053 
L 172 3500 
L 594 3500 
L 594 4494 
L 1172 4494 
z
" transform="scale(0.015625)"/>
     </defs>
     <use xlink:href="#DejaVuSans-74"/>
    </g>
   </g>
   <g id="Line3DCollection_1">
    <path d="M 211.831706 355.343941 
L 339.590127 247.532675 
L 338.1114 92.418883 
" style="fill: none; stroke: #b0b0b0; stroke-width: 0.8"/>
    <path d="M 236.623023 363.440785 
L 363.06154 254.354889 
L 362.581553 98.621354 
" style="fill: none; stroke: #b0b0b0; stroke-width: 0.8"/>
    <path d="M 261.72101 371.637788 
L 386.799264 261.254508 
L 387.341336 104.897237 
" style="fill: none; stroke: #b0b0b0; stroke-width: 0.8"/>
    <path d="M 287.131396 379.93682 
L 410.807857 268.232858 
L 412.395921 111.247844 
" style="fill: none; stroke: #b0b0b0; stroke-width: 0.8"/>
    <path d="M 312.860048 388.339797 
L 435.091981 275.291294 
L 437.750605 117.674517 
" style="fill: none; stroke: #b0b0b0; stroke-width: 0.8"/>
    <path d="M 338.912984 396.848686 
L 459.656407 282.431203 
L 463.410813 124.178632 
" style="fill: none; stroke: #b0b0b0; stroke-width: 0.8"/>
    <path d="M 365.296374 405.465501 
L 484.506016 289.654003 
L 489.382099 130.761596 
" style="fill: none; stroke: #b0b0b0; stroke-width: 0.8"/>
    <path d="M 392.016545 414.192309 
L 509.645804 296.961147 
L 515.670155 137.424852 
" style="fill: none; stroke: #b0b0b0; stroke-width: 0.8"/>
   </g>
   <g id="xtick_1">
    <g id="line2d_2">
     <path d="M 212.944093 354.405233 
L 209.602166 357.22538 
" style="fill: none; stroke: #000000; stroke-width: 0.8; stroke-linecap: square"/>
    </g>
    <g id="text_2">
     <!-- 0.250 -->
     <g transform="translate(189.993574 378.608133) scale(0.1 -0.1)">
      <defs>
       <path id="DejaVuSans-30" d="M 2034 4250 
Q 1547 4250 1301 3770 
Q 1056 3291 1056 2328 
Q 1056 1369 1301 889 
Q 1547 409 2034 409 
Q 2525 409 2770 889 
Q 3016 1369 3016 2328 
Q 3016 3291 2770 3770 
Q 2525 4250 2034 4250 
z
M 2034 4750 
Q 2819 4750 3233 4129 
Q 3647 3509 3647 2328 
Q 3647 1150 3233 529 
Q 2819 -91 2034 -91 
Q 1250 -91 836 529 
Q 422 1150 422 2328 
Q 422 3509 836 4129 
Q 1250 4750 2034 4750 
z
" transform="scale(0.015625)"/>
       <path id="DejaVuSans-2e" d="M 684 794 
L 1344 794 
L 1344 0 
L 684 0 
L 684 794 
z
" transform="scale(0.015625)"/>
       <path id="DejaVuSans-32" d="M 1228 531 
L 3431 531 
L 3431 0 
L 469 0 
L 469 531 
Q 828 903 1448 1529 
Q 2069 2156 2228 2338 
Q 2531 2678 2651 2914 
Q 2772 3150 2772 3378 
Q 2772 3750 2511 3984 
Q 2250 4219 1831 4219 
Q 1534 4219 1204 4116 
Q 875 4013 500 3803 
L 500 4441 
Q 881 4594 1212 4672 
Q 1544 4750 1819 4750 
Q 2544 4750 2975 4387 
Q 3406 4025 3406 3419 
Q 3406 3131 3298 2873 
Q 3191 2616 2906 2266 
Q 2828 2175 2409 1742 
Q 1991 1309 1228 531 
z
" transform="scale(0.015625)"/>
       <path id="DejaVuSans-35" d="M 691 4666 
L 3169 4666 
L 3169 4134 
L 1269 4134 
L 1269 2991 
Q 1406 3038 1543 3061 
Q 1681 3084 1819 3084 
Q 2600 3084 3056 2656 
Q 3513 2228 3513 1497 
Q 3513 744 3044 326 
Q 2575 -91 1722 -91 
Q 1428 -91 1123 -41 
Q 819 9 494 109 
L 494 744 
Q 775 591 1075 516 
Q 1375 441 1709 441 
Q 2250 441 2565 725 
Q 2881 1009 2881 1497 
Q 2881 1984 2565 2268 
Q 2250 2553 1709 2553 
Q 1456 2553 1204 2497 
Q 953 2441 691 2322 
L 691 4666 
z
" transform="scale(0.015625)"/>
      </defs>
      <use xlink:href="#DejaVuSans-30"/>
      <use xlink:href="#DejaVuSans-2e" x="63.623047"/>
      <use xlink:href="#DejaVuSans-32" x="95.410156"/>
      <use xlink:href="#DejaVuSans-35" x="159.033203"/>
      <use xlink:href="#DejaVuSans-30" x="222.65625"/>
     </g>
    </g>
   </g>
   <g id="xtick_2">
    <g id="line2d_3">
     <path d="M 237.724466 362.490505 
L 234.415386 365.345442 
" style="fill: none; stroke: #000000; stroke-width: 0.8; stroke-linecap: square"/>
    </g>
    <g id="text_3">
     <!-- 0.275 -->
     <g transform="translate(214.80194 386.822233) scale(0.1 -0.1)">
      <defs>
       <path id="DejaVuSans-37" d="M 525 4666 
L 3525 4666 
L 3525 4397 
L 1831 0 
L 1172 0 
L 2766 4134 
L 525 4134 
L 525 4666 
z
" transform="scale(0.015625)"/>
      </defs>
      <use xlink:href="#DejaVuSans-30"/>
      <use xlink:href="#DejaVuSans-2e" x="63.623047"/>
      <use xlink:href="#DejaVuSans-32" x="95.410156"/>
      <use xlink:href="#DejaVuSans-37" x="159.033203"/>
      <use xlink:href="#DejaVuSans-35" x="222.65625"/>
     </g>
    </g>
   </g>
   <g id="xtick_3">
    <g id="line2d_4">
     <path d="M 262.811154 370.675721 
L 259.535993 373.566095 
" style="fill: none; stroke: #000000; stroke-width: 0.8; stroke-linecap: square"/>
    </g>
    <g id="text_4">
     <!-- 0.300 -->
     <g transform="translate(239.917978 395.138205) scale(0.1 -0.1)">
      <defs>
       <path id="DejaVuSans-33" d="M 2597 2516 
Q 3050 2419 3304 2112 
Q 3559 1806 3559 1356 
Q 3559 666 3084 287 
Q 2609 -91 1734 -91 
Q 1441 -91 1130 -33 
Q 819 25 488 141 
L 488 750 
Q 750 597 1062 519 
Q 1375 441 1716 441 
Q 2309 441 2620 675 
Q 2931 909 2931 1356 
Q 2931 1769 2642 2001 
Q 2353 2234 1838 2234 
L 1294 2234 
L 1294 2753 
L 1863 2753 
Q 2328 2753 2575 2939 
Q 2822 3125 2822 3475 
Q 2822 3834 2567 4026 
Q 2313 4219 1838 4219 
Q 1578 4219 1281 4162 
Q 984 4106 628 3988 
L 628 4550 
Q 988 4650 1302 4700 
Q 1616 4750 1894 4750 
Q 2613 4750 3031 4423 
Q 3450 4097 3450 3541 
Q 3450 3153 3228 2886 
Q 3006 2619 2597 2516 
z
" transform="scale(0.015625)"/>
      </defs>
      <use xlink:href="#DejaVuSans-30"/>
      <use xlink:href="#DejaVuSans-2e" x="63.623047"/>
      <use xlink:href="#DejaVuSans-33" x="95.410156"/>
      <use xlink:href="#DejaVuSans-30" x="159.033203"/>
      <use xlink:href="#DejaVuSans-30" x="222.65625"/>
     </g>
    </g>
   </g>
   <g id="xtick_4">
    <g id="line2d_5">
     <path d="M 288.209873 378.962745 
L 284.969734 381.889221 
" style="fill: none; stroke: #000000; stroke-width: 0.8; stroke-linecap: square"/>
    </g>
    <g id="text_5">
     <!-- 0.325 -->
     <g transform="translate(265.347449 403.557955) scale(0.1 -0.1)">
      <use xlink:href="#DejaVuSans-30"/>
      <use xlink:href="#DejaVuSans-2e" x="63.623047"/>
      <use xlink:href="#DejaVuSans-33" x="95.410156"/>
      <use xlink:href="#DejaVuSans-32" x="159.033203"/>
      <use xlink:href="#DejaVuSans-35" x="222.65625"/>
     </g>
    </g>
   </g>
   <g id="xtick_5">
    <g id="line2d_6">
     <path d="M 313.926479 387.353488 
L 310.722501 390.316748 
" style="fill: none; stroke: #000000; stroke-width: 0.8; stroke-linecap: square"/>
    </g>
    <g id="text_6">
     <!-- 0.350 -->
     <g transform="translate(291.096255 412.083438) scale(0.1 -0.1)">
      <use xlink:href="#DejaVuSans-30"/>
      <use xlink:href="#DejaVuSans-2e" x="63.623047"/>
      <use xlink:href="#DejaVuSans-33" x="95.410156"/>
      <use xlink:href="#DejaVuSans-35" x="159.033203"/>
      <use xlink:href="#DejaVuSans-30" x="222.65625"/>
     </g>
    </g>
   </g>
   <g id="xtick_6">
    <g id="line2d_7">
     <path d="M 339.96698 395.849911 
L 336.800334 398.850651 
" style="fill: none; stroke: #000000; stroke-width: 0.8; stroke-linecap: square"/>
    </g>
    <g id="text_7">
     <!-- 0.375 -->
     <g transform="translate(317.170451 420.716657) scale(0.1 -0.1)">
      <use xlink:href="#DejaVuSans-30"/>
      <use xlink:href="#DejaVuSans-2e" x="63.623047"/>
      <use xlink:href="#DejaVuSans-33" x="95.410156"/>
      <use xlink:href="#DejaVuSans-37" x="159.033203"/>
      <use xlink:href="#DejaVuSans-35" x="222.65625"/>
     </g>
    </g>
   </g>
   <g id="xtick_7">
    <g id="line2d_8">
     <path d="M 366.337532 404.454022 
L 363.209427 407.492958 
" style="fill: none; stroke: #000000; stroke-width: 0.8; stroke-linecap: square"/>
    </g>
    <g id="text_8">
     <!-- 0.400 -->
     <g transform="translate(343.576242 429.459669) scale(0.1 -0.1)">
      <defs>
       <path id="DejaVuSans-34" d="M 2419 4116 
L 825 1625 
L 2419 1625 
L 2419 4116 
z
M 2253 4666 
L 3047 4666 
L 3047 1625 
L 3713 1625 
L 3713 1100 
L 3047 1100 
L 3047 0 
L 2419 0 
L 2419 1100 
L 313 1100 
L 313 1709 
L 2253 4666 
z
" transform="scale(0.015625)"/>
      </defs>
      <use xlink:href="#DejaVuSans-30"/>
      <use xlink:href="#DejaVuSans-2e" x="63.623047"/>
      <use xlink:href="#DejaVuSans-34" x="95.410156"/>
      <use xlink:href="#DejaVuSans-30" x="159.033203"/>
      <use xlink:href="#DejaVuSans-30" x="222.65625"/>
     </g>
    </g>
   </g>
   <g id="xtick_8">
    <g id="line2d_9">
     <path d="M 393.04445 413.167882 
L 389.956132 416.245748 
" style="fill: none; stroke: #000000; stroke-width: 0.8; stroke-linecap: square"/>
    </g>
    <g id="text_9">
     <!-- 0.425 -->
     <g transform="translate(370.319996 438.314581) scale(0.1 -0.1)">
      <use xlink:href="#DejaVuSans-30"/>
      <use xlink:href="#DejaVuSans-2e" x="63.623047"/>
      <use xlink:href="#DejaVuSans-34" x="95.410156"/>
      <use xlink:href="#DejaVuSans-32" x="159.033203"/>
      <use xlink:href="#DejaVuSans-35" x="222.65625"/>
     </g>
    </g>
   </g>
  </g>
  <g id="axis3d_2">
   <g id="line2d_10">
    <path d="M 538.065167 305.221534 
L 422.257267 424.068929 
" style="fill: none; stroke: #000000; stroke-width: 0.8; stroke-linecap: square"/>
   </g>
   <g id="text_10">
    <!-- si -->
    <g transform="translate(505.720053 392.74383) scale(0.1 -0.1)">
     <defs>
      <path id="DejaVuSans-73" d="M 2834 3397 
L 2834 2853 
Q 2591 2978 2328 3040 
Q 2066 3103 1784 3103 
Q 1356 3103 1142 2972 
Q 928 2841 928 2578 
Q 928 2378 1081 2264 
Q 1234 2150 1697 2047 
L 1894 2003 
Q 2506 1872 2764 1633 
Q 3022 1394 3022 966 
Q 3022 478 2636 193 
Q 2250 -91 1575 -91 
Q 1294 -91 989 -36 
Q 684 19 347 128 
L 347 722 
Q 666 556 975 473 
Q 1284 391 1588 391 
Q 1994 391 2212 530 
Q 2431 669 2431 922 
Q 2431 1156 2273 1281 
Q 2116 1406 1581 1522 
L 1381 1569 
Q 847 1681 609 1914 
Q 372 2147 372 2553 
Q 372 3047 722 3315 
Q 1072 3584 1716 3584 
Q 2034 3584 2315 3537 
Q 2597 3491 2834 3397 
z
" transform="scale(0.015625)"/>
      <path id="DejaVuSans-69" d="M 603 3500 
L 1178 3500 
L 1178 0 
L 603 0 
L 603 3500 
z
M 603 4863 
L 1178 4863 
L 1178 4134 
L 603 4134 
L 603 4863 
z
" transform="scale(0.015625)"/>
     </defs>
     <use xlink:href="#DejaVuSans-73"/>
     <use xlink:href="#DejaVuSans-69" x="52.099609"/>
    </g>
   </g>
   <g id="Line3DCollection_2">
    <path d="M 214.840622 175.028153 
L 221.852837 338.127521 
L 438.2131 407.694319 
" style="fill: none; stroke: #b0b0b0; stroke-width: 0.8"/>
    <path d="M 232.029749 162.484311 
L 238.219787 324.408419 
L 453.04202 392.476199 
" style="fill: none; stroke: #b0b0b0; stroke-width: 0.8"/>
    <path d="M 248.8437 150.214256 
L 254.244892 310.975858 
L 467.54501 377.592564 
" style="fill: none; stroke: #b0b0b0; stroke-width: 0.8"/>
    <path d="M 265.294625 138.20912 
L 269.938752 297.820954 
L 481.732697 363.032507 
" style="fill: none; stroke: #b0b0b0; stroke-width: 0.8"/>
    <path d="M 281.394155 126.460416 
L 285.311532 284.935185 
L 495.615254 348.785589 
" style="fill: none; stroke: #b0b0b0; stroke-width: 0.8"/>
    <path d="M 297.153432 114.960014 
L 300.372985 272.310376 
L 509.202419 334.841815 
" style="fill: none; stroke: #b0b0b0; stroke-width: 0.8"/>
    <path d="M 312.583127 103.700125 
L 315.132475 259.938679 
L 522.503521 321.191612 
" style="fill: none; stroke: #b0b0b0; stroke-width: 0.8"/>
    <path d="M 327.693474 92.673282 
L 329.598991 247.812558 
L 535.5275 307.825805 
" style="fill: none; stroke: #b0b0b0; stroke-width: 0.8"/>
   </g>
   <g id="xtick_9">
    <g id="line2d_11">
     <path d="M 436.390372 407.108253 
L 441.863242 408.867957 
" style="fill: none; stroke: #000000; stroke-width: 0.8; stroke-linecap: square"/>
    </g>
    <g id="text_11">
     <!-- 0.00 -->
     <g transform="translate(439.885513 428.630759) scale(0.1 -0.1)">
      <use xlink:href="#DejaVuSans-30"/>
      <use xlink:href="#DejaVuSans-2e" x="63.623047"/>
      <use xlink:href="#DejaVuSans-30" x="95.410156"/>
      <use xlink:href="#DejaVuSans-30" x="159.033203"/>
     </g>
    </g>
   </g>
   <g id="xtick_10">
    <g id="line2d_12">
     <path d="M 451.233262 391.903083 
L 456.664135 393.623889 
" style="fill: none; stroke: #000000; stroke-width: 0.8; stroke-linecap: square"/>
    </g>
    <g id="text_12">
     <!-- 0.05 -->
     <g transform="translate(454.578071 413.258229) scale(0.1 -0.1)">
      <use xlink:href="#DejaVuSans-30"/>
      <use xlink:href="#DejaVuSans-2e" x="63.623047"/>
      <use xlink:href="#DejaVuSans-30" x="95.410156"/>
      <use xlink:href="#DejaVuSans-35" x="159.033203"/>
     </g>
    </g>
   </g>
   <g id="xtick_11">
    <g id="line2d_13">
     <path d="M 465.750051 377.031973 
L 471.13944 378.715157 
" style="fill: none; stroke: #000000; stroke-width: 0.8; stroke-linecap: square"/>
    </g>
    <g id="text_13">
     <!-- 0.10 -->
     <g transform="translate(468.947565 398.223712) scale(0.1 -0.1)">
      <defs>
       <path id="DejaVuSans-31" d="M 794 531 
L 1825 531 
L 1825 4091 
L 703 3866 
L 703 4441 
L 1819 4666 
L 2450 4666 
L 2450 531 
L 3481 531 
L 3481 0 
L 794 0 
L 794 531 
z
" transform="scale(0.015625)"/>
      </defs>
      <use xlink:href="#DejaVuSans-30"/>
      <use xlink:href="#DejaVuSans-2e" x="63.623047"/>
      <use xlink:href="#DejaVuSans-31" x="95.410156"/>
      <use xlink:href="#DejaVuSans-30" x="159.033203"/>
     </g>
    </g>
   </g>
   <g id="xtick_12">
    <g id="line2d_14">
     <path d="M 479.951368 362.484034 
L 485.299783 364.130816 
" style="fill: none; stroke: #000000; stroke-width: 0.8; stroke-linecap: square"/>
    </g>
    <g id="text_14">
     <!-- 0.15 -->
     <g transform="translate(483.004537 383.516182) scale(0.1 -0.1)">
      <use xlink:href="#DejaVuSans-30"/>
      <use xlink:href="#DejaVuSans-2e" x="63.623047"/>
      <use xlink:href="#DejaVuSans-31" x="95.410156"/>
      <use xlink:href="#DejaVuSans-35" x="159.033203"/>
     </g>
    </g>
   </g>
   <g id="xtick_13">
    <g id="line2d_15">
     <path d="M 493.847387 348.248846 
L 499.155335 349.860394 
" style="fill: none; stroke: #000000; stroke-width: 0.8; stroke-linecap: square"/>
    </g>
    <g id="text_15">
     <!-- 0.20 -->
     <g transform="translate(496.759072 369.125087) scale(0.1 -0.1)">
      <use xlink:href="#DejaVuSans-30"/>
      <use xlink:href="#DejaVuSans-2e" x="63.623047"/>
      <use xlink:href="#DejaVuSans-32" x="95.410156"/>
      <use xlink:href="#DejaVuSans-30" x="159.033203"/>
     </g>
    </g>
   </g>
   <g id="xtick_14">
    <g id="line2d_16">
     <path d="M 507.447848 334.31643 
L 512.715831 335.893863 
" style="fill: none; stroke: #000000; stroke-width: 0.8; stroke-linecap: square"/>
    </g>
    <g id="text_16">
     <!-- 0.25 -->
     <g transform="translate(510.220825 355.040322) scale(0.1 -0.1)">
      <use xlink:href="#DejaVuSans-30"/>
      <use xlink:href="#DejaVuSans-2e" x="63.623047"/>
      <use xlink:href="#DejaVuSans-32" x="95.410156"/>
      <use xlink:href="#DejaVuSans-35" x="159.033203"/>
     </g>
    </g>
   </g>
   <g id="xtick_15">
    <g id="line2d_17">
     <path d="M 520.762081 320.677228 
L 525.990596 322.221618 
" style="fill: none; stroke: #000000; stroke-width: 0.8; stroke-linecap: square"/>
    </g>
    <g id="text_17">
     <!-- 0.30 -->
     <g transform="translate(523.399048 341.252209) scale(0.1 -0.1)">
      <use xlink:href="#DejaVuSans-30"/>
      <use xlink:href="#DejaVuSans-2e" x="63.623047"/>
      <use xlink:href="#DejaVuSans-33" x="95.410156"/>
      <use xlink:href="#DejaVuSans-30" x="159.033203"/>
     </g>
    </g>
   </g>
   <g id="xtick_16">
    <g id="line2d_18">
     <path d="M 533.799027 307.32208 
L 538.988567 308.834455 
" style="fill: none; stroke: #000000; stroke-width: 0.8; stroke-linecap: square"/>
    </g>
    <g id="text_18">
     <!-- 0.35 -->
     <g transform="translate(536.302605 327.751475) scale(0.1 -0.1)">
      <use xlink:href="#DejaVuSans-30"/>
      <use xlink:href="#DejaVuSans-2e" x="63.623047"/>
      <use xlink:href="#DejaVuSans-33" x="95.410156"/>
      <use xlink:href="#DejaVuSans-35" x="159.033203"/>
     </g>
    </g>
   </g>
  </g>
  <g id="axis3d_3">
   <g id="line2d_19">
    <path d="M 538.065167 305.221534 
L 545.40394 144.961499 
" style="fill: none; stroke: #000000; stroke-width: 0.8; stroke-linecap: square"/>
   </g>
   <g id="Line3DCollection_3">
    <path d="M 538.573511 294.120606 
L 332.295762 234.696025 
L 203.715355 341.505607 
" style="fill: none; stroke: #b0b0b0; stroke-width: 0.8"/>
    <path d="M 539.892955 265.307333 
L 331.975004 206.802051 
L 202.294044 311.991153 
" style="fill: none; stroke: #b0b0b0; stroke-width: 0.8"/>
    <path d="M 541.233758 236.027616 
L 331.649302 178.478209 
L 200.848841 281.980574 
" style="fill: none; stroke: #b0b0b0; stroke-width: 0.8"/>
    <path d="M 542.596444 206.270036 
L 331.318542 149.714484 
L 199.379139 251.461255 
" style="fill: none; stroke: #b0b0b0; stroke-width: 0.8"/>
    <path d="M 543.981553 176.022797 
L 330.982606 120.500551 
L 197.884309 220.420149 
" style="fill: none; stroke: #b0b0b0; stroke-width: 0.8"/>
   </g>
   <g id="xtick_17">
    <g id="line2d_20">
     <path d="M 536.842021 293.621798 
L 542.040622 295.119413 
" style="fill: none; stroke: #000000; stroke-width: 0.8; stroke-linecap: square"/>
    </g>
    <g id="text_19">
     <!-- −0.3 -->
     <g transform="translate(544.75347 299.12643) scale(0.1 -0.1)">
      <defs>
       <path id="DejaVuSans-2212" d="M 678 2272 
L 4684 2272 
L 4684 1741 
L 678 1741 
L 678 2272 
z
" transform="scale(0.015625)"/>
      </defs>
      <use xlink:href="#DejaVuSans-2212"/>
      <use xlink:href="#DejaVuSans-30" x="83.789062"/>
      <use xlink:href="#DejaVuSans-2e" x="147.412109"/>
      <use xlink:href="#DejaVuSans-33" x="179.199219"/>
     </g>
    </g>
   </g>
   <g id="xtick_18">
    <g id="line2d_21">
     <path d="M 538.14704 264.816057 
L 543.388984 266.291068 
" style="fill: none; stroke: #000000; stroke-width: 0.8; stroke-linecap: square"/>
    </g>
    <g id="text_20">
     <!-- −0.2 -->
     <g transform="translate(546.216969 270.352337) scale(0.1 -0.1)">
      <use xlink:href="#DejaVuSans-2212"/>
      <use xlink:href="#DejaVuSans-30" x="83.789062"/>
      <use xlink:href="#DejaVuSans-2e" x="147.412109"/>
      <use xlink:href="#DejaVuSans-32" x="179.199219"/>
     </g>
    </g>
   </g>
   <g id="xtick_19">
    <g id="line2d_22">
     <path d="M 539.473176 235.544181 
L 544.759191 236.995658 
" style="fill: none; stroke: #000000; stroke-width: 0.8; stroke-linecap: square"/>
    </g>
    <g id="text_21">
     <!-- −0.1 -->
     <g transform="translate(547.70411 241.113412) scale(0.1 -0.1)">
      <use xlink:href="#DejaVuSans-2212"/>
      <use xlink:href="#DejaVuSans-30" x="83.789062"/>
      <use xlink:href="#DejaVuSans-2e" x="147.412109"/>
      <use xlink:href="#DejaVuSans-31" x="179.199219"/>
     </g>
    </g>
   </g>
   <g id="xtick_20">
    <g id="line2d_23">
     <path d="M 540.820946 205.794765 
L 546.151779 207.221739 
" style="fill: none; stroke: #000000; stroke-width: 0.8; stroke-linecap: square"/>
    </g>
    <g id="text_22">
     <!-- 0.0 -->
     <g transform="translate(553.405315 211.398298) scale(0.1 -0.1)">
      <use xlink:href="#DejaVuSans-30"/>
      <use xlink:href="#DejaVuSans-2e" x="63.623047"/>
      <use xlink:href="#DejaVuSans-30" x="95.410156"/>
     </g>
    </g>
   </g>
   <g id="xtick_21">
    <g id="line2d_24">
     <path d="M 542.190885 175.556025 
L 547.567301 176.957491 
" style="fill: none; stroke: #000000; stroke-width: 0.8; stroke-linecap: square"/>
    </g>
    <g id="text_23">
     <!-- 0.1 -->
     <g transform="translate(554.941492 181.195268) scale(0.1 -0.1)">
      <use xlink:href="#DejaVuSans-30"/>
      <use xlink:href="#DejaVuSans-2e" x="63.623047"/>
      <use xlink:href="#DejaVuSans-31" x="95.410156"/>
     </g>
    </g>
   </g>
  </g>
  <g id="axes_1">
   <g id="Path3DCollection_1">
    <defs>
     <path id="C0_0_ce2a5c1404" d="M 0 2.236068 
C 0.593012 2.236068 1.161816 2.000462 1.581139 1.581139 
C 2.000462 1.161816 2.236068 0.593012 2.236068 -0 
C 2.236068 -0.593012 2.000462 -1.161816 1.581139 -1.581139 
C 1.161816 -2.000462 0.593012 -2.236068 0 -2.236068 
C -0.593012 -2.236068 -1.161816 -2.000462 -1.581139 -1.581139 
C -2.000462 -1.161816 -2.236068 -0.593012 -2.236068 0 
C -2.236068 0.593012 -2.000462 1.161816 -1.581139 1.581139 
C -1.161816 2.000462 -0.593012 2.236068 0 2.236068 
z
"/>
    </defs>
    <g clip-path="url(#p753617e1cc)">
     <use xlink:href="#C0_0_ce2a5c1404" x="337.24826" y="236.463114" style="fill: #008000; fill-opacity: 0.3; stroke: #008000; stroke-opacity: 0.3"/>
    </g>
    <g clip-path="url(#p753617e1cc)">
     <use xlink:href="#C0_0_ce2a5c1404" x="338.772423" y="240.083384" style="fill: #008000; fill-opacity: 0.307761; stroke: #008000; stroke-opacity: 0.307761"/>
    </g>
    <g clip-path="url(#p753617e1cc)">
     <use xlink:href="#C0_0_ce2a5c1404" x="340.314659" y="243.708391" style="fill: #008000; fill-opacity: 0.315869; stroke: #008000; stroke-opacity: 0.315869"/>
    </g>
    <g clip-path="url(#p753617e1cc)">
     <use xlink:href="#C0_0_ce2a5c1404" x="341.874145" y="247.33415" style="fill: #008000; fill-opacity: 0.324316; stroke: #008000; stroke-opacity: 0.324316"/>
    </g>
    <g clip-path="url(#p753617e1cc)">
     <use xlink:href="#C0_0_ce2a5c1404" x="343.450036" y="250.956651" style="fill: #008000; fill-opacity: 0.333099; stroke: #008000; stroke-opacity: 0.333099"/>
    </g>
    <g clip-path="url(#p753617e1cc)">
     <use xlink:href="#C0_0_ce2a5c1404" x="345.041423" y="254.571765" style="fill: #008000; fill-opacity: 0.342209; stroke: #008000; stroke-opacity: 0.342209"/>
    </g>
    <g clip-path="url(#p753617e1cc)">
     <use xlink:href="#C0_0_ce2a5c1404" x="346.647449" y="258.17536" style="fill: #008000; fill-opacity: 0.351641; stroke: #008000; stroke-opacity: 0.351641"/>
    </g>
    <g clip-path="url(#p753617e1cc)">
     <use xlink:href="#C0_0_ce2a5c1404" x="348.26715" y="261.763277" style="fill: #008000; fill-opacity: 0.361387; stroke: #008000; stroke-opacity: 0.361387"/>
    </g>
    <g clip-path="url(#p753617e1cc)">
     <use xlink:href="#C0_0_ce2a5c1404" x="349.899544" y="265.331199" style="fill: #008000; fill-opacity: 0.371439; stroke: #008000; stroke-opacity: 0.371439"/>
    </g>
    <g clip-path="url(#p753617e1cc)">
     <use xlink:href="#C0_0_ce2a5c1404" x="351.543617" y="268.874876" style="fill: #008000; fill-opacity: 0.38179; stroke: #008000; stroke-opacity: 0.38179"/>
    </g>
    <g clip-path="url(#p753617e1cc)">
     <use xlink:href="#C0_0_ce2a5c1404" x="353.198305" y="272.389928" style="fill: #008000; fill-opacity: 0.392431; stroke: #008000; stroke-opacity: 0.392431"/>
    </g>
    <g clip-path="url(#p753617e1cc)">
     <use xlink:href="#C0_0_ce2a5c1404" x="354.862545" y="275.872004" style="fill: #008000; fill-opacity: 0.403352; stroke: #008000; stroke-opacity: 0.403352"/>
    </g>
    <g clip-path="url(#p753617e1cc)">
     <use xlink:href="#C0_0_ce2a5c1404" x="356.53517" y="279.316662" style="fill: #008000; fill-opacity: 0.414544; stroke: #008000; stroke-opacity: 0.414544"/>
    </g>
    <g clip-path="url(#p753617e1cc)">
     <use xlink:href="#C0_0_ce2a5c1404" x="358.21502" y="282.719452" style="fill: #008000; fill-opacity: 0.425997; stroke: #008000; stroke-opacity: 0.425997"/>
    </g>
    <g clip-path="url(#p753617e1cc)">
     <use xlink:href="#C0_0_ce2a5c1404" x="359.900904" y="286.075883" style="fill: #008000; fill-opacity: 0.4377; stroke: #008000; stroke-opacity: 0.4377"/>
    </g>
    <g clip-path="url(#p753617e1cc)">
     <use xlink:href="#C0_0_ce2a5c1404" x="361.591547" y="289.38146" style="fill: #008000; fill-opacity: 0.449642; stroke: #008000; stroke-opacity: 0.449642"/>
    </g>
    <g clip-path="url(#p753617e1cc)">
     <use xlink:href="#C0_0_ce2a5c1404" x="363.285703" y="292.631654" style="fill: #008000; fill-opacity: 0.461811; stroke: #008000; stroke-opacity: 0.461811"/>
    </g>
    <g clip-path="url(#p753617e1cc)">
     <use xlink:href="#C0_0_ce2a5c1404" x="364.981996" y="295.821916" style="fill: #008000; fill-opacity: 0.474196; stroke: #008000; stroke-opacity: 0.474196"/>
    </g>
    <g clip-path="url(#p753617e1cc)">
     <use xlink:href="#C0_0_ce2a5c1404" x="366.679042" y="298.947689" style="fill: #008000; fill-opacity: 0.486783; stroke: #008000; stroke-opacity: 0.486783"/>
    </g>
    <g clip-path="url(#p753617e1cc)">
     <use xlink:href="#C0_0_ce2a5c1404" x="368.375487" y="302.004428" style="fill: #008000; fill-opacity: 0.49956; stroke: #008000; stroke-opacity: 0.49956"/>
    </g>
    <g clip-path="url(#p753617e1cc)">
     <use xlink:href="#C0_0_ce2a5c1404" x="370.069858" y="304.987605" style="fill: #008000; fill-opacity: 0.512513; stroke: #008000; stroke-opacity: 0.512513"/>
    </g>
    <g clip-path="url(#p753617e1cc)">
     <use xlink:href="#C0_0_ce2a5c1404" x="371.760637" y="307.892679" style="fill: #008000; fill-opacity: 0.525628; stroke: #008000; stroke-opacity: 0.525628"/>
    </g>
    <g clip-path="url(#p753617e1cc)">
     <use xlink:href="#C0_0_ce2a5c1404" x="373.446305" y="310.715114" style="fill: #008000; fill-opacity: 0.53889; stroke: #008000; stroke-opacity: 0.53889"/>
    </g>
    <g clip-path="url(#p753617e1cc)">
     <use xlink:href="#C0_0_ce2a5c1404" x="375.12534" y="313.450465" style="fill: #008000; fill-opacity: 0.552284; stroke: #008000; stroke-opacity: 0.552284"/>
    </g>
    <g clip-path="url(#p753617e1cc)">
     <use xlink:href="#C0_0_ce2a5c1404" x="376.796076" y="316.09426" style="fill: #008000; fill-opacity: 0.565795; stroke: #008000; stroke-opacity: 0.565795"/>
    </g>
    <g clip-path="url(#p753617e1cc)">
     <use xlink:href="#C0_0_ce2a5c1404" x="378.456911" y="318.642087" style="fill: #008000; fill-opacity: 0.579406; stroke: #008000; stroke-opacity: 0.579406"/>
    </g>
    <g clip-path="url(#p753617e1cc)">
     <use xlink:href="#C0_0_ce2a5c1404" x="380.106179" y="321.08963" style="fill: #008000; fill-opacity: 0.593102; stroke: #008000; stroke-opacity: 0.593102"/>
    </g>
    <g clip-path="url(#p753617e1cc)">
     <use xlink:href="#C0_0_ce2a5c1404" x="381.742152" y="323.432579" style="fill: #008000; fill-opacity: 0.606865; stroke: #008000; stroke-opacity: 0.606865"/>
    </g>
    <g clip-path="url(#p753617e1cc)">
     <use xlink:href="#C0_0_ce2a5c1404" x="383.363116" y="325.666734" style="fill: #008000; fill-opacity: 0.620678; stroke: #008000; stroke-opacity: 0.620678"/>
    </g>
    <g clip-path="url(#p753617e1cc)">
     <use xlink:href="#C0_0_ce2a5c1404" x="384.967285" y="327.787948" style="fill: #008000; fill-opacity: 0.634523; stroke: #008000; stroke-opacity: 0.634523"/>
    </g>
    <g clip-path="url(#p753617e1cc)">
     <use xlink:href="#C0_0_ce2a5c1404" x="386.552884" y="329.792206" style="fill: #008000; fill-opacity: 0.648382; stroke: #008000; stroke-opacity: 0.648382"/>
    </g>
    <g clip-path="url(#p753617e1cc)">
     <use xlink:href="#C0_0_ce2a5c1404" x="388.118106" y="331.675575" style="fill: #008000; fill-opacity: 0.662237; stroke: #008000; stroke-opacity: 0.662237"/>
    </g>
    <g clip-path="url(#p753617e1cc)">
     <use xlink:href="#C0_0_ce2a5c1404" x="389.661127" y="333.434241" style="fill: #008000; fill-opacity: 0.67607; stroke: #008000; stroke-opacity: 0.67607"/>
    </g>
    <g clip-path="url(#p753617e1cc)">
     <use xlink:href="#C0_0_ce2a5c1404" x="391.180052" y="335.064521" style="fill: #008000; fill-opacity: 0.68986; stroke: #008000; stroke-opacity: 0.68986"/>
    </g>
    <g clip-path="url(#p753617e1cc)">
     <use xlink:href="#C0_0_ce2a5c1404" x="392.673082" y="336.562861" style="fill: #008000; fill-opacity: 0.703589; stroke: #008000; stroke-opacity: 0.703589"/>
    </g>
    <g clip-path="url(#p753617e1cc)">
     <use xlink:href="#C0_0_ce2a5c1404" x="394.138344" y="337.925891" style="fill: #008000; fill-opacity: 0.717238; stroke: #008000; stroke-opacity: 0.717238"/>
    </g>
    <g clip-path="url(#p753617e1cc)">
     <use xlink:href="#C0_0_ce2a5c1404" x="395.57393" y="339.150344" style="fill: #008000; fill-opacity: 0.730786; stroke: #008000; stroke-opacity: 0.730786"/>
    </g>
    <g clip-path="url(#p753617e1cc)">
     <use xlink:href="#C0_0_ce2a5c1404" x="396.977948" y="340.233169" style="fill: #008000; fill-opacity: 0.744214; stroke: #008000; stroke-opacity: 0.744214"/>
    </g>
    <g clip-path="url(#p753617e1cc)">
     <use xlink:href="#C0_0_ce2a5c1404" x="398.348556" y="341.171509" style="fill: #008000; fill-opacity: 0.757501; stroke: #008000; stroke-opacity: 0.757501"/>
    </g>
    <g clip-path="url(#p753617e1cc)">
     <use xlink:href="#C0_0_ce2a5c1404" x="399.683897" y="341.96267" style="fill: #008000; fill-opacity: 0.770628; stroke: #008000; stroke-opacity: 0.770628"/>
    </g>
    <g clip-path="url(#p753617e1cc)">
     <use xlink:href="#C0_0_ce2a5c1404" x="400.982069" y="342.604179" style="fill: #008000; fill-opacity: 0.783574; stroke: #008000; stroke-opacity: 0.783574"/>
    </g>
    <g clip-path="url(#p753617e1cc)">
     <use xlink:href="#C0_0_ce2a5c1404" x="402.241275" y="343.093812" style="fill: #008000; fill-opacity: 0.796319; stroke: #008000; stroke-opacity: 0.796319"/>
    </g>
    <g clip-path="url(#p753617e1cc)">
     <use xlink:href="#C0_0_ce2a5c1404" x="403.459669" y="343.429518" style="fill: #008000; fill-opacity: 0.808843; stroke: #008000; stroke-opacity: 0.808843"/>
    </g>
    <g clip-path="url(#p753617e1cc)">
     <use xlink:href="#C0_0_ce2a5c1404" x="404.635487" y="343.609539" style="fill: #008000; fill-opacity: 0.821126; stroke: #008000; stroke-opacity: 0.821126"/>
    </g>
    <g clip-path="url(#p753617e1cc)">
     <use xlink:href="#C0_0_ce2a5c1404" x="405.766938" y="343.63234" style="fill: #008000; fill-opacity: 0.833149; stroke: #008000; stroke-opacity: 0.833149"/>
    </g>
    <g clip-path="url(#p753617e1cc)">
     <use xlink:href="#C0_0_ce2a5c1404" x="406.852284" y="343.496645" style="fill: #008000; fill-opacity: 0.84489; stroke: #008000; stroke-opacity: 0.84489"/>
    </g>
    <g clip-path="url(#p753617e1cc)">
     <use xlink:href="#C0_0_ce2a5c1404" x="407.889923" y="343.201487" style="fill: #008000; fill-opacity: 0.856333; stroke: #008000; stroke-opacity: 0.856333"/>
    </g>
    <g clip-path="url(#p753617e1cc)">
     <use xlink:href="#C0_0_ce2a5c1404" x="408.878142" y="342.746125" style="fill: #008000; fill-opacity: 0.867455; stroke: #008000; stroke-opacity: 0.867455"/>
    </g>
    <g clip-path="url(#p753617e1cc)">
     <use xlink:href="#C0_0_ce2a5c1404" x="409.815405" y="342.130148" style="fill: #008000; fill-opacity: 0.878241; stroke: #008000; stroke-opacity: 0.878241"/>
    </g>
    <g clip-path="url(#p753617e1cc)">
     <use xlink:href="#C0_0_ce2a5c1404" x="410.700223" y="341.353415" style="fill: #008000; fill-opacity: 0.88867; stroke: #008000; stroke-opacity: 0.88867"/>
    </g>
    <g clip-path="url(#p753617e1cc)">
     <use xlink:href="#C0_0_ce2a5c1404" x="411.531094" y="340.41608" style="fill: #008000; fill-opacity: 0.898725; stroke: #008000; stroke-opacity: 0.898725"/>
    </g>
    <g clip-path="url(#p753617e1cc)">
     <use xlink:href="#C0_0_ce2a5c1404" x="397.634906" y="212.625427" style="fill: #008000; fill-opacity: 0.901164; stroke: #008000; stroke-opacity: 0.901164"/>
    </g>
    <g clip-path="url(#p753617e1cc)">
     <use xlink:href="#C0_0_ce2a5c1404" x="412.306631" y="339.318613" style="fill: #008000; fill-opacity: 0.908388; stroke: #008000; stroke-opacity: 0.908388"/>
    </g>
    <g clip-path="url(#p753617e1cc)">
     <use xlink:href="#C0_0_ce2a5c1404" x="398.93651" y="216.797361" style="fill: #008000; fill-opacity: 0.910369; stroke: #008000; stroke-opacity: 0.910369"/>
    </g>
    <g clip-path="url(#p753617e1cc)">
     <use xlink:href="#C0_0_ce2a5c1404" x="413.0256" y="338.061809" style="fill: #008000; fill-opacity: 0.917644; stroke: #008000; stroke-opacity: 0.917644"/>
    </g>
    <g clip-path="url(#p753617e1cc)">
     <use xlink:href="#C0_0_ce2a5c1404" x="400.209859" y="221.001345" style="fill: #008000; fill-opacity: 0.919214; stroke: #008000; stroke-opacity: 0.919214"/>
    </g>
    <g clip-path="url(#p753617e1cc)">
     <use xlink:href="#C0_0_ce2a5c1404" x="413.686723" y="336.646755" style="fill: #008000; fill-opacity: 0.926475; stroke: #008000; stroke-opacity: 0.926475"/>
    </g>
    <g clip-path="url(#p753617e1cc)">
     <use xlink:href="#C0_0_ce2a5c1404" x="401.452454" y="225.231056" style="fill: #008000; fill-opacity: 0.927681; stroke: #008000; stroke-opacity: 0.927681"/>
    </g>
    <g clip-path="url(#p753617e1cc)">
     <use xlink:href="#C0_0_ce2a5c1404" x="414.288878" y="335.074861" style="fill: #008000; fill-opacity: 0.934866; stroke: #008000; stroke-opacity: 0.934866"/>
    </g>
    <g clip-path="url(#p753617e1cc)">
     <use xlink:href="#C0_0_ce2a5c1404" x="402.661909" y="229.480075" style="fill: #008000; fill-opacity: 0.935754; stroke: #008000; stroke-opacity: 0.935754"/>
    </g>
    <g clip-path="url(#p753617e1cc)">
     <use xlink:href="#C0_0_ce2a5c1404" x="414.831035" y="333.347855" style="fill: #008000; fill-opacity: 0.942802; stroke: #008000; stroke-opacity: 0.942802"/>
    </g>
    <g clip-path="url(#p753617e1cc)">
     <use xlink:href="#C0_0_ce2a5c1404" x="403.835828" y="233.741823" style="fill: #008000; fill-opacity: 0.943415; stroke: #008000; stroke-opacity: 0.943415"/>
    </g>
    <g clip-path="url(#p753617e1cc)">
     <use xlink:href="#C0_0_ce2a5c1404" x="415.312258" y="331.467794" style="fill: #008000; fill-opacity: 0.95027; stroke: #008000; stroke-opacity: 0.95027"/>
    </g>
    <g clip-path="url(#p753617e1cc)">
     <use xlink:href="#C0_0_ce2a5c1404" x="404.971928" y="238.009672" style="fill: #008000; fill-opacity: 0.950649; stroke: #008000; stroke-opacity: 0.950649"/>
    </g>
    <g clip-path="url(#p753617e1cc)">
     <use xlink:href="#C0_0_ce2a5c1404" x="415.731674" y="329.437013" style="fill: #008000; fill-opacity: 0.957256; stroke: #008000; stroke-opacity: 0.957256"/>
    </g>
    <g clip-path="url(#p753617e1cc)">
     <use xlink:href="#C0_0_ce2a5c1404" x="406.06795" y="242.27689" style="fill: #008000; fill-opacity: 0.95744; stroke: #008000; stroke-opacity: 0.95744"/>
    </g>
    <g clip-path="url(#p753617e1cc)">
     <use xlink:href="#C0_0_ce2a5c1404" x="416.088543" y="327.258203" style="fill: #008000; fill-opacity: 0.963747; stroke: #008000; stroke-opacity: 0.963747"/>
    </g>
    <g clip-path="url(#p753617e1cc)">
     <use xlink:href="#C0_0_ce2a5c1404" x="407.121681" y="246.536665" style="fill: #008000; fill-opacity: 0.963774; stroke: #008000; stroke-opacity: 0.963774"/>
    </g>
    <g clip-path="url(#p753617e1cc)">
     <use xlink:href="#C0_0_ce2a5c1404" x="408.131062" y="250.782177" style="fill: #008000; fill-opacity: 0.969637; stroke: #008000; stroke-opacity: 0.969637"/>
    </g>
    <g clip-path="url(#p753617e1cc)">
     <use xlink:href="#C0_0_ce2a5c1404" x="416.382289" y="324.934363" style="fill: #008000; fill-opacity: 0.969733; stroke: #008000; stroke-opacity: 0.969733"/>
    </g>
    <g clip-path="url(#p753617e1cc)">
     <use xlink:href="#C0_0_ce2a5c1404" x="409.094018" y="255.006513" style="fill: #008000; fill-opacity: 0.975017; stroke: #008000; stroke-opacity: 0.975017"/>
    </g>
    <g clip-path="url(#p753617e1cc)">
     <use xlink:href="#C0_0_ce2a5c1404" x="416.612309" y="322.468751" style="fill: #008000; fill-opacity: 0.975203; stroke: #008000; stroke-opacity: 0.975203"/>
    </g>
    <g clip-path="url(#p753617e1cc)">
     <use xlink:href="#C0_0_ce2a5c1404" x="410.008592" y="259.20278" style="fill: #008000; fill-opacity: 0.9799; stroke: #008000; stroke-opacity: 0.9799"/>
    </g>
    <g clip-path="url(#p753617e1cc)">
     <use xlink:href="#C0_0_ce2a5c1404" x="416.778301" y="319.865004" style="fill: #008000; fill-opacity: 0.980148; stroke: #008000; stroke-opacity: 0.980148"/>
    </g>
    <g clip-path="url(#p753617e1cc)">
     <use xlink:href="#C0_0_ce2a5c1404" x="410.873013" y="263.364127" style="fill: #008000; fill-opacity: 0.984275; stroke: #008000; stroke-opacity: 0.984275"/>
    </g>
    <g clip-path="url(#p753617e1cc)">
     <use xlink:href="#C0_0_ce2a5c1404" x="416.879906" y="317.126977" style="fill: #008000; fill-opacity: 0.984559; stroke: #008000; stroke-opacity: 0.984559"/>
    </g>
    <g clip-path="url(#p753617e1cc)">
     <use xlink:href="#C0_0_ce2a5c1404" x="411.685426" y="267.483638" style="fill: #008000; fill-opacity: 0.988133; stroke: #008000; stroke-opacity: 0.988133"/>
    </g>
    <g clip-path="url(#p753617e1cc)">
     <use xlink:href="#C0_0_ce2a5c1404" x="416.917005" y="314.258866" style="fill: #008000; fill-opacity: 0.988428; stroke: #008000; stroke-opacity: 0.988428"/>
    </g>
    <g clip-path="url(#p753617e1cc)">
     <use xlink:href="#C0_0_ce2a5c1404" x="412.444232" y="271.554513" style="fill: #008000; fill-opacity: 0.991465; stroke: #008000; stroke-opacity: 0.991465"/>
    </g>
    <g clip-path="url(#p753617e1cc)">
     <use xlink:href="#C0_0_ce2a5c1404" x="416.889557" y="311.2651" style="fill: #008000; fill-opacity: 0.991749; stroke: #008000; stroke-opacity: 0.991749"/>
    </g>
    <g clip-path="url(#p753617e1cc)">
     <use xlink:href="#C0_0_ce2a5c1404" x="413.147849" y="275.569961" style="fill: #008000; fill-opacity: 0.994261; stroke: #008000; stroke-opacity: 0.994261"/>
    </g>
    <g clip-path="url(#p753617e1cc)">
     <use xlink:href="#C0_0_ce2a5c1404" x="416.797663" y="308.150422" style="fill: #008000; fill-opacity: 0.994518; stroke: #008000; stroke-opacity: 0.994518"/>
    </g>
    <g clip-path="url(#p753617e1cc)">
     <use xlink:href="#C0_0_ce2a5c1404" x="413.794881" y="279.523313" style="fill: #008000; fill-opacity: 0.996515; stroke: #008000; stroke-opacity: 0.996515"/>
    </g>
    <g clip-path="url(#p753617e1cc)">
     <use xlink:href="#C0_0_ce2a5c1404" x="416.641542" y="304.919785" style="fill: #008000; fill-opacity: 0.99673; stroke: #008000; stroke-opacity: 0.99673"/>
    </g>
    <g clip-path="url(#p753617e1cc)">
     <use xlink:href="#C0_0_ce2a5c1404" x="414.383919" y="283.407939" style="fill: #008000; fill-opacity: 0.99822; stroke: #008000; stroke-opacity: 0.99822"/>
    </g>
    <g clip-path="url(#p753617e1cc)">
     <use xlink:href="#C0_0_ce2a5c1404" x="416.42149" y="301.578397" style="fill: #008000; fill-opacity: 0.998382; stroke: #008000; stroke-opacity: 0.998382"/>
    </g>
    <g clip-path="url(#p753617e1cc)">
     <use xlink:href="#C0_0_ce2a5c1404" x="414.913807" y="287.217375" style="fill: #008000; fill-opacity: 0.999372; stroke: #008000; stroke-opacity: 0.999372"/>
    </g>
    <g clip-path="url(#p753617e1cc)">
     <use xlink:href="#C0_0_ce2a5c1404" x="416.138055" y="298.131714" style="fill: #008000; fill-opacity: 0.999472; stroke: #008000; stroke-opacity: 0.999472"/>
    </g>
    <g clip-path="url(#p753617e1cc)">
     <use xlink:href="#C0_0_ce2a5c1404" x="415.383407" y="290.945246" style="fill: #008000; fill-opacity: 0.999966; stroke: #008000; stroke-opacity: 0.999966"/>
    </g>
    <g clip-path="url(#p753617e1cc)">
     <use xlink:href="#C0_0_ce2a5c1404" x="415.791767" y="294.585373" style="fill: #008000; stroke: #008000"/>
    </g>
   </g>
   <g id="text_24">
    <!-- Average magnetic moment on site 6 -->
    <g transform="translate(259.349063 54.48) scale(0.12 -0.12)">
     <defs>
      <path id="DejaVuSans-41" d="M 2188 4044 
L 1331 1722 
L 3047 1722 
L 2188 4044 
z
M 1831 4666 
L 2547 4666 
L 4325 0 
L 3669 0 
L 3244 1197 
L 1141 1197 
L 716 0 
L 50 0 
L 1831 4666 
z
" transform="scale(0.015625)"/>
      <path id="DejaVuSans-76" d="M 191 3500 
L 800 3500 
L 1894 563 
L 2988 3500 
L 3597 3500 
L 2284 0 
L 1503 0 
L 191 3500 
z
" transform="scale(0.015625)"/>
      <path id="DejaVuSans-65" d="M 3597 1894 
L 3597 1613 
L 953 1613 
Q 991 1019 1311 708 
Q 1631 397 2203 397 
Q 2534 397 2845 478 
Q 3156 559 3463 722 
L 3463 178 
Q 3153 47 2828 -22 
Q 2503 -91 2169 -91 
Q 1331 -91 842 396 
Q 353 884 353 1716 
Q 353 2575 817 3079 
Q 1281 3584 2069 3584 
Q 2775 3584 3186 3129 
Q 3597 2675 3597 1894 
z
M 3022 2063 
Q 3016 2534 2758 2815 
Q 2500 3097 2075 3097 
Q 1594 3097 1305 2825 
Q 1016 2553 972 2059 
L 3022 2063 
z
" transform="scale(0.015625)"/>
      <path id="DejaVuSans-72" d="M 2631 2963 
Q 2534 3019 2420 3045 
Q 2306 3072 2169 3072 
Q 1681 3072 1420 2755 
Q 1159 2438 1159 1844 
L 1159 0 
L 581 0 
L 581 3500 
L 1159 3500 
L 1159 2956 
Q 1341 3275 1631 3429 
Q 1922 3584 2338 3584 
Q 2397 3584 2469 3576 
Q 2541 3569 2628 3553 
L 2631 2963 
z
" transform="scale(0.015625)"/>
      <path id="DejaVuSans-61" d="M 2194 1759 
Q 1497 1759 1228 1600 
Q 959 1441 959 1056 
Q 959 750 1161 570 
Q 1363 391 1709 391 
Q 2188 391 2477 730 
Q 2766 1069 2766 1631 
L 2766 1759 
L 2194 1759 
z
M 3341 1997 
L 3341 0 
L 2766 0 
L 2766 531 
Q 2569 213 2275 61 
Q 1981 -91 1556 -91 
Q 1019 -91 701 211 
Q 384 513 384 1019 
Q 384 1609 779 1909 
Q 1175 2209 1959 2209 
L 2766 2209 
L 2766 2266 
Q 2766 2663 2505 2880 
Q 2244 3097 1772 3097 
Q 1472 3097 1187 3025 
Q 903 2953 641 2809 
L 641 3341 
Q 956 3463 1253 3523 
Q 1550 3584 1831 3584 
Q 2591 3584 2966 3190 
Q 3341 2797 3341 1997 
z
" transform="scale(0.015625)"/>
      <path id="DejaVuSans-67" d="M 2906 1791 
Q 2906 2416 2648 2759 
Q 2391 3103 1925 3103 
Q 1463 3103 1205 2759 
Q 947 2416 947 1791 
Q 947 1169 1205 825 
Q 1463 481 1925 481 
Q 2391 481 2648 825 
Q 2906 1169 2906 1791 
z
M 3481 434 
Q 3481 -459 3084 -895 
Q 2688 -1331 1869 -1331 
Q 1566 -1331 1297 -1286 
Q 1028 -1241 775 -1147 
L 775 -588 
Q 1028 -725 1275 -790 
Q 1522 -856 1778 -856 
Q 2344 -856 2625 -561 
Q 2906 -266 2906 331 
L 2906 616 
Q 2728 306 2450 153 
Q 2172 0 1784 0 
Q 1141 0 747 490 
Q 353 981 353 1791 
Q 353 2603 747 3093 
Q 1141 3584 1784 3584 
Q 2172 3584 2450 3431 
Q 2728 3278 2906 2969 
L 2906 3500 
L 3481 3500 
L 3481 434 
z
" transform="scale(0.015625)"/>
      <path id="DejaVuSans-20" transform="scale(0.015625)"/>
      <path id="DejaVuSans-6d" d="M 3328 2828 
Q 3544 3216 3844 3400 
Q 4144 3584 4550 3584 
Q 5097 3584 5394 3201 
Q 5691 2819 5691 2113 
L 5691 0 
L 5113 0 
L 5113 2094 
Q 5113 2597 4934 2840 
Q 4756 3084 4391 3084 
Q 3944 3084 3684 2787 
Q 3425 2491 3425 1978 
L 3425 0 
L 2847 0 
L 2847 2094 
Q 2847 2600 2669 2842 
Q 2491 3084 2119 3084 
Q 1678 3084 1418 2786 
Q 1159 2488 1159 1978 
L 1159 0 
L 581 0 
L 581 3500 
L 1159 3500 
L 1159 2956 
Q 1356 3278 1631 3431 
Q 1906 3584 2284 3584 
Q 2666 3584 2933 3390 
Q 3200 3197 3328 2828 
z
" transform="scale(0.015625)"/>
      <path id="DejaVuSans-6e" d="M 3513 2113 
L 3513 0 
L 2938 0 
L 2938 2094 
Q 2938 2591 2744 2837 
Q 2550 3084 2163 3084 
Q 1697 3084 1428 2787 
Q 1159 2491 1159 1978 
L 1159 0 
L 581 0 
L 581 3500 
L 1159 3500 
L 1159 2956 
Q 1366 3272 1645 3428 
Q 1925 3584 2291 3584 
Q 2894 3584 3203 3211 
Q 3513 2838 3513 2113 
z
" transform="scale(0.015625)"/>
      <path id="DejaVuSans-63" d="M 3122 3366 
L 3122 2828 
Q 2878 2963 2633 3030 
Q 2388 3097 2138 3097 
Q 1578 3097 1268 2742 
Q 959 2388 959 1747 
Q 959 1106 1268 751 
Q 1578 397 2138 397 
Q 2388 397 2633 464 
Q 2878 531 3122 666 
L 3122 134 
Q 2881 22 2623 -34 
Q 2366 -91 2075 -91 
Q 1284 -91 818 406 
Q 353 903 353 1747 
Q 353 2603 823 3093 
Q 1294 3584 2113 3584 
Q 2378 3584 2631 3529 
Q 2884 3475 3122 3366 
z
" transform="scale(0.015625)"/>
      <path id="DejaVuSans-6f" d="M 1959 3097 
Q 1497 3097 1228 2736 
Q 959 2375 959 1747 
Q 959 1119 1226 758 
Q 1494 397 1959 397 
Q 2419 397 2687 759 
Q 2956 1122 2956 1747 
Q 2956 2369 2687 2733 
Q 2419 3097 1959 3097 
z
M 1959 3584 
Q 2709 3584 3137 3096 
Q 3566 2609 3566 1747 
Q 3566 888 3137 398 
Q 2709 -91 1959 -91 
Q 1206 -91 779 398 
Q 353 888 353 1747 
Q 353 2609 779 3096 
Q 1206 3584 1959 3584 
z
" transform="scale(0.015625)"/>
      <path id="DejaVuSans-36" d="M 2113 2584 
Q 1688 2584 1439 2293 
Q 1191 2003 1191 1497 
Q 1191 994 1439 701 
Q 1688 409 2113 409 
Q 2538 409 2786 701 
Q 3034 994 3034 1497 
Q 3034 2003 2786 2293 
Q 2538 2584 2113 2584 
z
M 3366 4563 
L 3366 3988 
Q 3128 4100 2886 4159 
Q 2644 4219 2406 4219 
Q 1781 4219 1451 3797 
Q 1122 3375 1075 2522 
Q 1259 2794 1537 2939 
Q 1816 3084 2150 3084 
Q 2853 3084 3261 2657 
Q 3669 2231 3669 1497 
Q 3669 778 3244 343 
Q 2819 -91 2113 -91 
Q 1303 -91 875 529 
Q 447 1150 447 2328 
Q 447 3434 972 4092 
Q 1497 4750 2381 4750 
Q 2619 4750 2861 4703 
Q 3103 4656 3366 4563 
z
" transform="scale(0.015625)"/>
     </defs>
     <use xlink:href="#DejaVuSans-41"/>
     <use xlink:href="#DejaVuSans-76" x="62.533203"/>
     <use xlink:href="#DejaVuSans-65" x="121.712891"/>
     <use xlink:href="#DejaVuSans-72" x="183.236328"/>
     <use xlink:href="#DejaVuSans-61" x="224.349609"/>
     <use xlink:href="#DejaVuSans-67" x="285.628906"/>
     <use xlink:href="#DejaVuSans-65" x="349.105469"/>
     <use xlink:href="#DejaVuSans-20" x="410.628906"/>
     <use xlink:href="#DejaVuSans-6d" x="442.416016"/>
     <use xlink:href="#DejaVuSans-61" x="539.828125"/>
     <use xlink:href="#DejaVuSans-67" x="601.107422"/>
     <use xlink:href="#DejaVuSans-6e" x="664.583984"/>
     <use xlink:href="#DejaVuSans-65" x="727.962891"/>
     <use xlink:href="#DejaVuSans-74" x="789.486328"/>
     <use xlink:href="#DejaVuSans-69" x="828.695312"/>
     <use xlink:href="#DejaVuSans-63" x="856.478516"/>
     <use xlink:href="#DejaVuSans-20" x="911.458984"/>
     <use xlink:href="#DejaVuSans-6d" x="943.246094"/>
     <use xlink:href="#DejaVuSans-6f" x="1040.658203"/>
     <use xlink:href="#DejaVuSans-6d" x="1101.839844"/>
     <use xlink:href="#DejaVuSans-65" x="1199.251953"/>
     <use xlink:href="#DejaVuSans-6e" x="1260.775391"/>
     <use xlink:href="#DejaVuSans-74" x="1324.154297"/>
     <use xlink:href="#DejaVuSans-20" x="1363.363281"/>
     <use xlink:href="#DejaVuSans-6f" x="1395.150391"/>
     <use xlink:href="#DejaVuSans-6e" x="1456.332031"/>
     <use xlink:href="#DejaVuSans-20" x="1519.710938"/>
     <use xlink:href="#DejaVuSans-73" x="1551.498047"/>
     <use xlink:href="#DejaVuSans-69" x="1603.597656"/>
     <use xlink:href="#DejaVuSans-74" x="1631.380859"/>
     <use xlink:href="#DejaVuSans-65" x="1670.589844"/>
     <use xlink:href="#DejaVuSans-20" x="1732.113281"/>
     <use xlink:href="#DejaVuSans-36" x="1763.900391"/>
    </g>
   </g>
   <g id="legend_1">
    <g id="patch_6">
     <path d="M 552.04 73.48 
L 556.04 73.48 
Q 558.04 73.48 558.04 71.48 
L 558.04 67.48 
Q 558.04 65.48 556.04 65.48 
L 552.04 65.48 
Q 550.04 65.48 550.04 67.48 
L 550.04 71.48 
Q 550.04 73.48 552.04 73.48 
z
" style="fill: #ffffff; opacity: 0.8; stroke: #cccccc; stroke-linejoin: miter"/>
    </g>
   </g>
  </g>
 </g>
 <defs>
  <clipPath id="p753617e1cc">
   <rect x="174.96" y="60.48" width="388.08" height="388.08"/>
  </clipPath>
 </defs>
</svg>
