<?xml version="1.0" encoding="utf-8" standalone="no"?>
<!DOCTYPE svg PUBLIC "-//W3C//DTD SVG 1.1//EN"
  "http://www.w3.org/Graphics/SVG/1.1/DTD/svg11.dtd">
<svg xmlns:xlink="http://www.w3.org/1999/xlink" width="460.8pt" height="345.6pt" viewBox="0 0 460.8 345.6" xmlns="http://www.w3.org/2000/svg" version="1.1">
 <metadata>
  <rdf:RDF xmlns:dc="http://purl.org/dc/elements/1.1/" xmlns:cc="http://creativecommons.org/ns#" xmlns:rdf="http://www.w3.org/1999/02/22-rdf-syntax-ns#">
   <cc:Work>
    <dc:type rdf:resource="http://purl.org/dc/dcmitype/StillImage"/>
    <dc:date>2024-08-25T16:05:09.236581</dc:date>
    <dc:format>image/svg+xml</dc:format>
    <dc:creator>
     <cc:Agent>
      <dc:title>Matplotlib v3.7.1, https://matplotlib.org/</dc:title>
     </cc:Agent>
    </dc:creator>
   </cc:Work>
  </rdf:RDF>
 </metadata>
 <defs>
  <style type="text/css">*{stroke-linejoin: round; stroke-linecap: butt}</style>
 </defs>
 <g id="figure_1">
  <g id="patch_1">
   <path d="M 0 345.6 
L 460.8 345.6 
L 460.8 0 
L 0 0 
z
" style="fill: #ffffff"/>
  </g>
  <g id="axes_1">
   <g id="patch_2">
    <path d="M 57.6 307.584 
L 414.72 307.584 
L 414.72 41.472 
L 57.6 41.472 
z
" style="fill: #ffffff"/>
   </g>
   <g id="matplotlib.axis_1">
    <g id="xtick_1">
     <g id="line2d_1">
      <defs>
       <path id="mf7c955fb46" d="M 0 0 
L 0 3.5 
" style="stroke: #000000; stroke-width: 0.8"/>
      </defs>
      <g>
       <use xlink:href="#mf7c955fb46" x="73.832727" y="307.584" style="stroke: #000000; stroke-width: 0.8"/>
      </g>
     </g>
     <g id="text_1">
      <!-- 0 -->
      <g transform="translate(70.651477 322.182437) scale(0.1 -0.1)">
       <defs>
        <path id="DejaVuSans-30" d="M 2034 4250 
Q 1547 4250 1301 3770 
Q 1056 3291 1056 2328 
Q 1056 1369 1301 889 
Q 1547 409 2034 409 
Q 2525 409 2770 889 
Q 3016 1369 3016 2328 
Q 3016 3291 2770 3770 
Q 2525 4250 2034 4250 
z
M 2034 4750 
Q 2819 4750 3233 4129 
Q 3647 3509 3647 2328 
Q 3647 1150 3233 529 
Q 2819 -91 2034 -91 
Q 1250 -91 836 529 
Q 422 1150 422 2328 
Q 422 3509 836 4129 
Q 1250 4750 2034 4750 
z
" transform="scale(0.015625)"/>
       </defs>
       <use xlink:href="#DejaVuSans-30"/>
      </g>
     </g>
    </g>
    <g id="xtick_2">
     <g id="line2d_2">
      <g>
       <use xlink:href="#mf7c955fb46" x="137.303802" y="307.584" style="stroke: #000000; stroke-width: 0.8"/>
      </g>
     </g>
     <g id="text_2">
      <!-- 200 -->
      <g transform="translate(127.760052 322.182437) scale(0.1 -0.1)">
       <defs>
        <path id="DejaVuSans-32" d="M 1228 531 
L 3431 531 
L 3431 0 
L 469 0 
L 469 531 
Q 828 903 1448 1529 
Q 2069 2156 2228 2338 
Q 2531 2678 2651 2914 
Q 2772 3150 2772 3378 
Q 2772 3750 2511 3984 
Q 2250 4219 1831 4219 
Q 1534 4219 1204 4116 
Q 875 4013 500 3803 
L 500 4441 
Q 881 4594 1212 4672 
Q 1544 4750 1819 4750 
Q 2544 4750 2975 4387 
Q 3406 4025 3406 3419 
Q 3406 3131 3298 2873 
Q 3191 2616 2906 2266 
Q 2828 2175 2409 1742 
Q 1991 1309 1228 531 
z
" transform="scale(0.015625)"/>
       </defs>
       <use xlink:href="#DejaVuSans-32"/>
       <use xlink:href="#DejaVuSans-30" x="63.623047"/>
       <use xlink:href="#DejaVuSans-30" x="127.246094"/>
      </g>
     </g>
    </g>
    <g id="xtick_3">
     <g id="line2d_3">
      <g>
       <use xlink:href="#mf7c955fb46" x="200.774876" y="307.584" style="stroke: #000000; stroke-width: 0.8"/>
      </g>
     </g>
     <g id="text_3">
      <!-- 400 -->
      <g transform="translate(191.231126 322.182437) scale(0.1 -0.1)">
       <defs>
        <path id="DejaVuSans-34" d="M 2419 4116 
L 825 1625 
L 2419 1625 
L 2419 4116 
z
M 2253 4666 
L 3047 4666 
L 3047 1625 
L 3713 1625 
L 3713 1100 
L 3047 1100 
L 3047 0 
L 2419 0 
L 2419 1100 
L 313 1100 
L 313 1709 
L 2253 4666 
z
" transform="scale(0.015625)"/>
       </defs>
       <use xlink:href="#DejaVuSans-34"/>
       <use xlink:href="#DejaVuSans-30" x="63.623047"/>
       <use xlink:href="#DejaVuSans-30" x="127.246094"/>
      </g>
     </g>
    </g>
    <g id="xtick_4">
     <g id="line2d_4">
      <g>
       <use xlink:href="#mf7c955fb46" x="264.24595" y="307.584" style="stroke: #000000; stroke-width: 0.8"/>
      </g>
     </g>
     <g id="text_4">
      <!-- 600 -->
      <g transform="translate(254.7022 322.182437) scale(0.1 -0.1)">
       <defs>
        <path id="DejaVuSans-36" d="M 2113 2584 
Q 1688 2584 1439 2293 
Q 1191 2003 1191 1497 
Q 1191 994 1439 701 
Q 1688 409 2113 409 
Q 2538 409 2786 701 
Q 3034 994 3034 1497 
Q 3034 2003 2786 2293 
Q 2538 2584 2113 2584 
z
M 3366 4563 
L 3366 3988 
Q 3128 4100 2886 4159 
Q 2644 4219 2406 4219 
Q 1781 4219 1451 3797 
Q 1122 3375 1075 2522 
Q 1259 2794 1537 2939 
Q 1816 3084 2150 3084 
Q 2853 3084 3261 2657 
Q 3669 2231 3669 1497 
Q 3669 778 3244 343 
Q 2819 -91 2113 -91 
Q 1303 -91 875 529 
Q 447 1150 447 2328 
Q 447 3434 972 4092 
Q 1497 4750 2381 4750 
Q 2619 4750 2861 4703 
Q 3103 4656 3366 4563 
z
" transform="scale(0.015625)"/>
       </defs>
       <use xlink:href="#DejaVuSans-36"/>
       <use xlink:href="#DejaVuSans-30" x="63.623047"/>
       <use xlink:href="#DejaVuSans-30" x="127.246094"/>
      </g>
     </g>
    </g>
    <g id="xtick_5">
     <g id="line2d_5">
      <g>
       <use xlink:href="#mf7c955fb46" x="327.717025" y="307.584" style="stroke: #000000; stroke-width: 0.8"/>
      </g>
     </g>
     <g id="text_5">
      <!-- 800 -->
      <g transform="translate(318.173275 322.182437) scale(0.1 -0.1)">
       <defs>
        <path id="DejaVuSans-38" d="M 2034 2216 
Q 1584 2216 1326 1975 
Q 1069 1734 1069 1313 
Q 1069 891 1326 650 
Q 1584 409 2034 409 
Q 2484 409 2743 651 
Q 3003 894 3003 1313 
Q 3003 1734 2745 1975 
Q 2488 2216 2034 2216 
z
M 1403 2484 
Q 997 2584 770 2862 
Q 544 3141 544 3541 
Q 544 4100 942 4425 
Q 1341 4750 2034 4750 
Q 2731 4750 3128 4425 
Q 3525 4100 3525 3541 
Q 3525 3141 3298 2862 
Q 3072 2584 2669 2484 
Q 3125 2378 3379 2068 
Q 3634 1759 3634 1313 
Q 3634 634 3220 271 
Q 2806 -91 2034 -91 
Q 1263 -91 848 271 
Q 434 634 434 1313 
Q 434 1759 690 2068 
Q 947 2378 1403 2484 
z
M 1172 3481 
Q 1172 3119 1398 2916 
Q 1625 2713 2034 2713 
Q 2441 2713 2670 2916 
Q 2900 3119 2900 3481 
Q 2900 3844 2670 4047 
Q 2441 4250 2034 4250 
Q 1625 4250 1398 4047 
Q 1172 3844 1172 3481 
z
" transform="scale(0.015625)"/>
       </defs>
       <use xlink:href="#DejaVuSans-38"/>
       <use xlink:href="#DejaVuSans-30" x="63.623047"/>
       <use xlink:href="#DejaVuSans-30" x="127.246094"/>
      </g>
     </g>
    </g>
    <g id="xtick_6">
     <g id="line2d_6">
      <g>
       <use xlink:href="#mf7c955fb46" x="391.188099" y="307.584" style="stroke: #000000; stroke-width: 0.8"/>
      </g>
     </g>
     <g id="text_6">
      <!-- 1000 -->
      <g transform="translate(378.463099 322.182437) scale(0.1 -0.1)">
       <defs>
        <path id="DejaVuSans-31" d="M 794 531 
L 1825 531 
L 1825 4091 
L 703 3866 
L 703 4441 
L 1819 4666 
L 2450 4666 
L 2450 531 
L 3481 531 
L 3481 0 
L 794 0 
L 794 531 
z
" transform="scale(0.015625)"/>
       </defs>
       <use xlink:href="#DejaVuSans-31"/>
       <use xlink:href="#DejaVuSans-30" x="63.623047"/>
       <use xlink:href="#DejaVuSans-30" x="127.246094"/>
       <use xlink:href="#DejaVuSans-30" x="190.869141"/>
      </g>
     </g>
    </g>
    <g id="text_7">
     <!-- n -->
     <g transform="translate(232.99125 335.860562) scale(0.1 -0.1)">
      <defs>
       <path id="DejaVuSans-6e" d="M 3513 2113 
L 3513 0 
L 2938 0 
L 2938 2094 
Q 2938 2591 2744 2837 
Q 2550 3084 2163 3084 
Q 1697 3084 1428 2787 
Q 1159 2491 1159 1978 
L 1159 0 
L 581 0 
L 581 3500 
L 1159 3500 
L 1159 2956 
Q 1366 3272 1645 3428 
Q 1925 3584 2291 3584 
Q 2894 3584 3203 3211 
Q 3513 2838 3513 2113 
z
" transform="scale(0.015625)"/>
      </defs>
      <use xlink:href="#DejaVuSans-6e"/>
     </g>
    </g>
   </g>
   <g id="matplotlib.axis_2">
    <g id="ytick_1">
     <g id="line2d_7">
      <defs>
       <path id="m9e6e01f0ca" d="M 0 0 
L -3.5 0 
" style="stroke: #000000; stroke-width: 0.8"/>
      </defs>
      <g>
       <use xlink:href="#m9e6e01f0ca" x="57.6" y="272.674547" style="stroke: #000000; stroke-width: 0.8"/>
      </g>
     </g>
     <g id="text_8">
      <!-- −4 -->
      <g transform="translate(35.857813 276.473765) scale(0.1 -0.1)">
       <defs>
        <path id="DejaVuSans-2212" d="M 678 2272 
L 4684 2272 
L 4684 1741 
L 678 1741 
L 678 2272 
z
" transform="scale(0.015625)"/>
       </defs>
       <use xlink:href="#DejaVuSans-2212"/>
       <use xlink:href="#DejaVuSans-34" x="83.789062"/>
      </g>
     </g>
    </g>
    <g id="ytick_2">
     <g id="line2d_8">
      <g>
       <use xlink:href="#m9e6e01f0ca" x="57.6" y="231.658101" style="stroke: #000000; stroke-width: 0.8"/>
      </g>
     </g>
     <g id="text_9">
      <!-- −2 -->
      <g transform="translate(35.857813 235.45732) scale(0.1 -0.1)">
       <use xlink:href="#DejaVuSans-2212"/>
       <use xlink:href="#DejaVuSans-32" x="83.789062"/>
      </g>
     </g>
    </g>
    <g id="ytick_3">
     <g id="line2d_9">
      <g>
       <use xlink:href="#m9e6e01f0ca" x="57.6" y="190.641655" style="stroke: #000000; stroke-width: 0.8"/>
      </g>
     </g>
     <g id="text_10">
      <!-- 0 -->
      <g transform="translate(44.2375 194.440874) scale(0.1 -0.1)">
       <use xlink:href="#DejaVuSans-30"/>
      </g>
     </g>
    </g>
    <g id="ytick_4">
     <g id="line2d_10">
      <g>
       <use xlink:href="#m9e6e01f0ca" x="57.6" y="149.625209" style="stroke: #000000; stroke-width: 0.8"/>
      </g>
     </g>
     <g id="text_11">
      <!-- 2 -->
      <g transform="translate(44.2375 153.424428) scale(0.1 -0.1)">
       <use xlink:href="#DejaVuSans-32"/>
      </g>
     </g>
    </g>
    <g id="ytick_5">
     <g id="line2d_11">
      <g>
       <use xlink:href="#m9e6e01f0ca" x="57.6" y="108.608764" style="stroke: #000000; stroke-width: 0.8"/>
      </g>
     </g>
     <g id="text_12">
      <!-- 4 -->
      <g transform="translate(44.2375 112.407982) scale(0.1 -0.1)">
       <use xlink:href="#DejaVuSans-34"/>
      </g>
     </g>
    </g>
    <g id="ytick_6">
     <g id="line2d_12">
      <g>
       <use xlink:href="#m9e6e01f0ca" x="57.6" y="67.592318" style="stroke: #000000; stroke-width: 0.8"/>
      </g>
     </g>
     <g id="text_13">
      <!-- 6 -->
      <g transform="translate(44.2375 71.391537) scale(0.1 -0.1)">
       <use xlink:href="#DejaVuSans-36"/>
      </g>
     </g>
    </g>
    <g id="text_14">
     <!-- E*t -->
     <g transform="translate(29.778125 182.147531) rotate(-90) scale(0.1 -0.1)">
      <defs>
       <path id="DejaVuSans-45" d="M 628 4666 
L 3578 4666 
L 3578 4134 
L 1259 4134 
L 1259 2753 
L 3481 2753 
L 3481 2222 
L 1259 2222 
L 1259 531 
L 3634 531 
L 3634 0 
L 628 0 
L 628 4666 
z
" transform="scale(0.015625)"/>
       <path id="DejaVuSans-2a" d="M 3009 3897 
L 1888 3291 
L 3009 2681 
L 2828 2375 
L 1778 3009 
L 1778 1831 
L 1422 1831 
L 1422 3009 
L 372 2375 
L 191 2681 
L 1313 3291 
L 191 3897 
L 372 4206 
L 1422 3572 
L 1422 4750 
L 1778 4750 
L 1778 3572 
L 2828 4206 
L 3009 3897 
z
" transform="scale(0.015625)"/>
       <path id="DejaVuSans-74" d="M 1172 4494 
L 1172 3500 
L 2356 3500 
L 2356 3053 
L 1172 3053 
L 1172 1153 
Q 1172 725 1289 603 
Q 1406 481 1766 481 
L 2356 481 
L 2356 0 
L 1766 0 
Q 1100 0 847 248 
Q 594 497 594 1153 
L 594 3053 
L 172 3053 
L 172 3500 
L 594 3500 
L 594 4494 
L 1172 4494 
z
" transform="scale(0.015625)"/>
      </defs>
      <use xlink:href="#DejaVuSans-45"/>
      <use xlink:href="#DejaVuSans-2a" x="63.183594"/>
      <use xlink:href="#DejaVuSans-74" x="113.183594"/>
     </g>
    </g>
   </g>
   <g id="line2d_13">
    <path d="M 73.832727 275.590489 
L 74.467438 264.868731 
L 75.102149 258.512872 
L 75.419504 257.44855 
L 75.73686 254.901047 
L 76.054215 253.40224 
L 76.37157 250.54692 
L 76.688926 250.491612 
L 77.323636 247.278463 
L 77.640992 246.732095 
L 77.958347 246.484602 
L 78.275702 246.06133 
L 78.593058 245.953775 
L 78.910413 244.121228 
L 79.227769 243.979538 
L 79.545124 243.282632 
L 79.862479 242.084982 
L 80.179835 241.332075 
L 80.49719 240.263803 
L 80.814545 239.943053 
L 81.131901 239.110769 
L 81.449256 238.832707 
L 82.083967 238.554747 
L 82.401322 238.146266 
L 82.718678 237.995535 
L 83.036033 237.354773 
L 83.353388 237.236276 
L 83.670744 236.374785 
L 83.988099 236.155765 
L 84.62281 234.802673 
L 85.257521 234.168641 
L 85.574876 233.828139 
L 85.892231 232.988498 
L 86.209587 232.818738 
L 87.161653 231.868446 
L 87.796364 231.529296 
L 88.113719 231.05125 
L 89.700496 229.792779 
L 90.652562 229.408728 
L 90.969917 228.770707 
L 93.826116 226.479198 
L 95.095537 225.594251 
L 95.412893 225.466736 
L 95.730248 225.121057 
L 96.047603 225.051462 
L 96.364959 224.739436 
L 96.682314 224.659945 
L 97.63438 224.085697 
L 97.951736 223.993407 
L 100.490579 222.038053 
L 102.712066 220.846195 
L 103.029421 220.373677 
L 103.981488 219.867384 
L 105.568264 219.175683 
L 105.88562 218.875948 
L 108.741818 217.729405 
L 110.01124 216.899357 
L 110.963306 216.53149 
L 114.13686 214.796209 
L 114.77157 214.594794 
L 115.723636 214.004669 
L 117.627769 213.334172 
L 118.262479 213.027408 
L 119.214545 212.625793 
L 119.531901 212.320215 
L 120.166612 212.084425 
L 121.753388 211.396047 
L 123.02281 210.966736 
L 124.926942 210.088961 
L 125.244298 210.070126 
L 125.879008 209.726811 
L 126.831074 209.258149 
L 129.369917 208.258786 
L 132.860826 207.000094 
L 133.495537 206.769134 
L 134.447603 206.394784 
L 135.399669 206.080912 
L 137.303802 205.275443 
L 141.112066 203.889618 
L 142.381488 203.410852 
L 143.333554 203.089418 
L 149.680661 200.885944 
L 150.632727 200.653474 
L 151.584793 200.291843 
L 152.53686 200.022036 
L 153.17157 199.634702 
L 153.806281 199.522238 
L 154.440992 199.237034 
L 155.710413 198.84874 
L 156.345124 198.675812 
L 157.614545 198.21923 
L 158.883967 197.888036 
L 159.836033 197.566449 
L 161.105455 197.119406 
L 162.057521 196.72329 
L 163.009587 196.488604 
L 163.644298 196.23086 
L 164.279008 196.040819 
L 165.231074 195.696182 
L 170.30876 194.120214 
L 171.260826 193.805662 
L 172.847603 193.309318 
L 173.799669 193.101971 
L 175.069091 192.590866 
L 184.907107 189.761624 
L 185.541818 189.59572 
L 186.176529 189.446397 
L 186.81124 189.153338 
L 187.763306 188.879628 
L 191.888926 187.698974 
L 193.475702 187.202334 
L 195.69719 186.559163 
L 196.966612 186.145532 
L 197.918678 185.842443 
L 216.007934 180.771502 
L 216.96 180.470267 
L 217.912066 180.136125 
L 222.989752 178.844294 
L 223.624463 178.620186 
L 224.259174 178.483404 
L 225.21124 178.172378 
L 226.163306 177.898377 
L 227.750083 177.423006 
L 228.702149 177.244603 
L 229.019504 177.036574 
L 231.240992 176.490055 
L 232.193058 176.244508 
L 232.827769 176.101599 
L 235.049256 175.461651 
L 236.001322 175.203349 
L 236.318678 175.062754 
L 236.953388 174.967145 
L 239.492231 174.266425 
L 240.761653 173.735617 
L 241.396364 173.611063 
L 245.204628 172.449985 
L 245.839339 172.325475 
L 251.869091 170.559023 
L 253.138512 170.182045 
L 254.725289 169.655036 
L 256.312066 169.242677 
L 256.946777 169.042486 
L 265.832727 166.409534 
L 266.467438 166.20459 
L 269.006281 165.576364 
L 269.958347 165.393351 
L 271.862479 164.86566 
L 273.131901 164.431248 
L 273.449256 164.403077 
L 273.766612 164.217419 
L 274.401322 164.040809 
L 275.353388 163.748696 
L 275.670744 163.707217 
L 276.305455 163.482013 
L 276.940165 163.338269 
L 277.574876 163.127897 
L 281.38314 161.999665 
L 282.969917 161.566999 
L 284.556694 161.074395 
L 284.87405 161.025973 
L 285.50876 160.746622 
L 287.095537 160.346015 
L 287.730248 160.016242 
L 288.364959 159.890632 
L 289.63438 159.447877 
L 290.903802 159.109825 
L 291.538512 158.791801 
L 292.173223 158.692521 
L 292.807934 158.438738 
L 299.472397 156.300894 
L 300.107107 156.014051 
L 300.741818 155.797671 
L 301.693884 155.504417 
L 303.915372 154.8388 
L 305.184793 154.325447 
L 305.819504 154.050544 
L 308.040992 153.206907 
L 309.627769 152.817545 
L 310.262479 152.453238 
L 315.974876 150.691877 
L 316.609587 150.381722 
L 318.196364 149.80406 
L 319.14843 149.401182 
L 319.465785 149.360983 
L 320.100496 149.109312 
L 320.735207 148.955269 
L 323.27405 148.149982 
L 323.591405 147.860451 
L 323.90876 147.798908 
L 324.543471 147.552176 
L 326.764959 146.81845 
L 328.03438 146.122908 
L 328.351736 145.861464 
L 329.621157 145.486658 
L 330.573223 145.187024 
L 331.207934 144.718776 
L 331.525289 144.651489 
L 332.16 144.311022 
L 332.794711 144.053865 
L 333.429421 143.803705 
L 334.064132 143.568192 
L 335.016198 143.156897 
L 337.872397 142.158424 
L 342.315372 140.222913 
L 343.267438 139.595792 
L 343.584793 139.548002 
L 344.854215 138.822758 
L 345.17157 138.772829 
L 346.758347 137.953725 
L 347.075702 137.881378 
L 347.710413 137.466887 
L 348.345124 137.249475 
L 349.931901 136.466099 
L 350.566612 136.093078 
L 351.201322 135.743929 
L 351.518678 135.561847 
L 351.836033 135.547729 
L 353.740165 134.674852 
L 354.057521 134.539717 
L 355.009587 133.655813 
L 355.326942 133.542147 
L 355.644298 133.122817 
L 355.961653 132.981872 
L 356.596364 132.438333 
L 357.865785 131.756207 
L 358.18314 131.701962 
L 358.500496 131.436015 
L 359.452562 131.090158 
L 361.356694 130.029403 
L 363.260826 128.087132 
L 364.212893 127.434204 
L 367.386446 125.944034 
L 368.021157 125.274273 
L 368.338512 125.150214 
L 368.973223 124.50856 
L 370.242645 123.645605 
L 370.56 123.252468 
L 370.877355 123.069362 
L 371.194711 122.620494 
L 371.512066 122.445168 
L 371.829421 122.12222 
L 372.146777 122.073694 
L 372.781488 121.409244 
L 374.050909 120.83287 
L 374.368264 120.25234 
L 374.68562 120.020272 
L 376.272397 118.092837 
L 376.589752 117.873576 
L 376.907107 117.205083 
L 377.859174 116.107856 
L 378.493884 115.793719 
L 379.128595 115.562218 
L 379.763306 114.754338 
L 380.080661 114.703531 
L 380.715372 113.959871 
L 381.032727 113.899133 
L 381.350083 113.590576 
L 381.667438 112.914706 
L 381.984793 112.873739 
L 382.619504 111.339308 
L 383.254215 110.720668 
L 383.57157 110.333002 
L 384.206281 109.895421 
L 384.523636 109.16171 
L 384.840992 108.91625 
L 385.158347 108.306793 
L 385.475702 108.294869 
L 385.793058 107.155433 
L 386.110413 106.469784 
L 386.427769 106.218218 
L 386.745124 105.172189 
L 387.062479 104.738451 
L 387.379835 104.618751 
L 387.69719 103.994668 
L 388.649256 102.993426 
L 389.601322 101.414242 
L 389.918678 101.2039 
L 390.236033 100.771833 
L 390.553388 100.103567 
L 390.870744 99.902954 
L 391.505455 98.816105 
L 392.140165 95.518913 
L 393.092231 93.203706 
L 393.726942 90.842198 
L 394.361653 89.796753 
L 394.996364 88.69474 
L 395.313719 87.894248 
L 395.94843 84.895152 
L 396.265785 80.794069 
L 397.217851 76.337581 
L 397.852562 66.501044 
L 398.169917 66.436884 
L 398.487273 53.568 
L 398.487273 53.568 
" clip-path="url(#pedf990798a)" style="fill: none; stroke: #1f77b4; stroke-width: 1.5; stroke-linecap: square"/>
   </g>
   <g id="line2d_14">
    <path d="M 73.832727 295.488 
L 74.150083 283.25356 
L 74.467438 283.25356 
L 74.784793 272.795606 
L 75.102149 270.62334 
L 75.73686 270.62334 
L 76.054215 266.710395 
L 76.37157 260.104802 
L 76.688926 259.69953 
L 77.006281 259.69953 
L 77.323636 258.677429 
L 78.910413 258.677429 
L 79.227769 254.950825 
L 79.545124 254.950825 
L 79.862479 253.601807 
L 80.179835 252.768364 
L 80.49719 252.768364 
L 80.814545 248.647548 
L 81.131901 246.707847 
L 82.083967 246.674495 
L 82.401322 245.526494 
L 86.844298 245.461314 
L 87.161653 244.832728 
L 87.479008 241.846672 
L 87.796364 241.186565 
L 88.113719 240.152824 
L 89.700496 240.152824 
L 90.017851 238.832011 
L 90.652562 238.832011 
L 90.969917 237.297688 
L 91.287273 237.297688 
L 91.604628 236.498427 
L 91.921983 234.442603 
L 99.221157 234.442603 
L 99.538512 233.217607 
L 99.855868 233.217607 
L 100.173223 232.927843 
L 101.76 232.927843 
L 102.077355 231.658101 
L 103.664132 231.658101 
L 103.981488 231.371694 
L 104.298843 230.876604 
L 104.933554 230.876604 
L 105.250909 229.135325 
L 106.202975 229.047568 
L 106.520331 225.117786 
L 107.155041 224.729496 
L 107.472397 224.729496 
L 107.789752 223.82458 
L 109.376529 223.82458 
L 109.693884 221.838589 
L 110.01124 221.838589 
L 110.328595 219.644692 
L 129.369917 219.644602 
L 129.687273 218.397885 
L 130.321983 217.225336 
L 131.27405 217.150579 
L 131.591405 216.130708 
L 131.90876 216.130708 
L 132.226116 215.897701 
L 132.860826 215.897701 
L 133.178182 213.93438 
L 133.495537 213.93438 
L 133.812893 213.523262 
L 135.399669 213.523262 
L 135.717025 211.848979 
L 136.03438 211.623211 
L 136.351736 211.245189 
L 136.986446 211.149878 
L 163.009587 211.149878 
L 163.326942 209.412187 
L 167.135207 209.412187 
L 167.452562 209.094615 
L 167.769917 209.094615 
L 168.087273 206.943997 
L 168.404628 206.943997 
L 168.721983 206.369957 
L 169.356694 206.369957 
L 169.67405 205.99952 
L 169.991405 205.112258 
L 171.578182 205.112258 
L 172.212893 204.486675 
L 172.530248 204.486675 
L 172.847603 204.221273 
L 180.146777 204.221273 
L 180.464132 203.764449 
L 180.781488 203.764449 
L 181.098843 203.316357 
L 182.68562 203.316357 
L 183.320331 199.136379 
L 185.541818 199.099196 
L 185.859174 198.856339 
L 186.493884 198.856339 
L 186.81124 198.48951 
L 187.128595 197.57026 
L 187.44595 197.57026 
L 187.763306 196.947662 
L 188.080661 196.947662 
L 188.398017 194.348479 
L 188.715372 190.641655 
L 283.604628 190.641655 
L 284.239339 184.335648 
L 284.556694 184.335648 
L 284.87405 183.71305 
L 285.191405 183.71305 
L 285.50876 182.7938 
L 285.826116 182.426971 
L 286.460826 182.426971 
L 286.778182 182.184114 
L 288.999669 182.146931 
L 289.63438 177.966953 
L 291.221157 177.966953 
L 291.538512 177.518861 
L 291.855868 177.518861 
L 292.173223 177.062037 
L 299.472397 177.062037 
L 299.789752 176.796636 
L 300.107107 176.796636 
L 300.741818 176.171052 
L 302.328595 176.171052 
L 302.64595 175.28379 
L 302.963306 174.913353 
L 303.598017 174.913353 
L 303.915372 174.339313 
L 304.232727 174.339313 
L 304.550083 172.188695 
L 304.867438 172.188695 
L 305.184793 171.871123 
L 308.993058 171.871123 
L 309.310413 170.133432 
L 335.968264 170.038122 
L 336.602975 169.434332 
L 336.920331 167.760049 
L 338.507107 167.760049 
L 338.824463 167.348931 
L 339.141818 167.348931 
L 339.459174 165.385609 
L 340.093884 165.385609 
L 340.41124 165.152602 
L 340.728595 165.152602 
L 341.04595 164.132731 
L 341.680661 164.057974 
L 341.998017 164.057974 
L 342.315372 163.604142 
L 342.632727 162.885425 
L 342.950083 161.638709 
L 361.991405 161.638618 
L 362.30876 159.444721 
L 362.626116 159.444721 
L 362.943471 157.45873 
L 364.530248 157.45873 
L 364.847603 156.553814 
L 365.164959 156.553814 
L 365.799669 156.165524 
L 366.117025 152.235742 
L 367.069091 152.147986 
L 367.386446 150.406706 
L 368.021157 150.406706 
L 368.338512 149.911616 
L 368.655868 149.625209 
L 370.242645 149.625209 
L 370.56 148.355467 
L 372.146777 148.355467 
L 372.464132 148.065703 
L 372.781488 148.065703 
L 373.098843 146.840708 
L 380.398017 146.840708 
L 380.715372 144.784883 
L 381.032727 143.985622 
L 381.350083 143.985622 
L 381.667438 142.4513 
L 382.302149 142.4513 
L 382.619504 141.130486 
L 384.206281 141.130486 
L 384.840992 139.436638 
L 385.158347 136.450582 
L 385.475702 135.821996 
L 389.918678 135.756817 
L 390.236033 134.608815 
L 391.188099 134.575463 
L 391.505455 132.635762 
L 391.82281 128.514946 
L 392.140165 128.514946 
L 392.457521 127.681503 
L 392.774876 126.332485 
L 393.092231 126.332485 
L 393.409587 122.605881 
L 394.996364 122.605881 
L 395.313719 121.58378 
L 395.631074 121.58378 
L 395.94843 121.178508 
L 396.265785 114.572915 
L 396.58314 110.65997 
L 397.217851 110.65997 
L 397.535207 108.487705 
L 397.852562 98.02975 
L 398.169917 98.02975 
L 398.487273 85.79531 
L 398.487273 85.79531 
" clip-path="url(#pedf990798a)" style="fill: none; stroke: #ff7f0e; stroke-width: 1.5; stroke-linecap: square"/>
   </g>
   <g id="patch_3">
    <path d="M 57.6 307.584 
L 57.6 41.472 
" style="fill: none; stroke: #000000; stroke-width: 0.8; stroke-linejoin: miter; stroke-linecap: square"/>
   </g>
   <g id="patch_4">
    <path d="M 414.72 307.584 
L 414.72 41.472 
" style="fill: none; stroke: #000000; stroke-width: 0.8; stroke-linejoin: miter; stroke-linecap: square"/>
   </g>
   <g id="patch_5">
    <path d="M 57.6 307.584 
L 414.72 307.584 
" style="fill: none; stroke: #000000; stroke-width: 0.8; stroke-linejoin: miter; stroke-linecap: square"/>
   </g>
   <g id="patch_6">
    <path d="M 57.6 41.472 
L 414.72 41.472 
" style="fill: none; stroke: #000000; stroke-width: 0.8; stroke-linejoin: miter; stroke-linecap: square"/>
   </g>
   <g id="legend_1">
    <g id="patch_7">
     <path d="M 64.6 78.82825 
L 129.342187 78.82825 
Q 131.342187 78.82825 131.342187 76.82825 
L 131.342187 48.472 
Q 131.342187 46.472 129.342187 46.472 
L 64.6 46.472 
Q 62.6 46.472 62.6 48.472 
L 62.6 76.82825 
Q 62.6 78.82825 64.6 78.82825 
z
" style="fill: #ffffff; opacity: 0.8; stroke: #cccccc; stroke-linejoin: miter"/>
    </g>
    <g id="line2d_15">
     <path d="M 66.6 54.570437 
L 76.6 54.570437 
L 86.6 54.570437 
" style="fill: none; stroke: #1f77b4; stroke-width: 1.5; stroke-linecap: square"/>
    </g>
    <g id="text_15">
     <!-- qc -->
     <g transform="translate(94.6 58.070437) scale(0.1 -0.1)">
      <defs>
       <path id="DejaVuSans-71" d="M 947 1747 
Q 947 1113 1208 752 
Q 1469 391 1925 391 
Q 2381 391 2643 752 
Q 2906 1113 2906 1747 
Q 2906 2381 2643 2742 
Q 2381 3103 1925 3103 
Q 1469 3103 1208 2742 
Q 947 2381 947 1747 
z
M 2906 525 
Q 2725 213 2448 61 
Q 2172 -91 1784 -91 
Q 1150 -91 751 415 
Q 353 922 353 1747 
Q 353 2572 751 3078 
Q 1150 3584 1784 3584 
Q 2172 3584 2448 3432 
Q 2725 3281 2906 2969 
L 2906 3500 
L 3481 3500 
L 3481 -1331 
L 2906 -1331 
L 2906 525 
z
" transform="scale(0.015625)"/>
       <path id="DejaVuSans-63" d="M 3122 3366 
L 3122 2828 
Q 2878 2963 2633 3030 
Q 2388 3097 2138 3097 
Q 1578 3097 1268 2742 
Q 959 2388 959 1747 
Q 959 1106 1268 751 
Q 1578 397 2138 397 
Q 2388 397 2633 464 
Q 2878 531 3122 666 
L 3122 134 
Q 2881 22 2623 -34 
Q 2366 -91 2075 -91 
Q 1284 -91 818 406 
Q 353 903 353 1747 
Q 353 2603 823 3093 
Q 1294 3584 2113 3584 
Q 2378 3584 2631 3529 
Q 2884 3475 3122 3366 
z
" transform="scale(0.015625)"/>
      </defs>
      <use xlink:href="#DejaVuSans-71"/>
      <use xlink:href="#DejaVuSans-63" x="63.476562"/>
     </g>
    </g>
    <g id="line2d_16">
     <path d="M 66.6 69.248562 
L 76.6 69.248562 
L 86.6 69.248562 
" style="fill: none; stroke: #ff7f0e; stroke-width: 1.5; stroke-linecap: square"/>
    </g>
    <g id="text_16">
     <!-- Trotter -->
     <g transform="translate(94.6 72.748562) scale(0.1 -0.1)">
      <defs>
       <path id="DejaVuSans-54" d="M -19 4666 
L 3928 4666 
L 3928 4134 
L 2272 4134 
L 2272 0 
L 1638 0 
L 1638 4134 
L -19 4134 
L -19 4666 
z
" transform="scale(0.015625)"/>
       <path id="DejaVuSans-72" d="M 2631 2963 
Q 2534 3019 2420 3045 
Q 2306 3072 2169 3072 
Q 1681 3072 1420 2755 
Q 1159 2438 1159 1844 
L 1159 0 
L 581 0 
L 581 3500 
L 1159 3500 
L 1159 2956 
Q 1341 3275 1631 3429 
Q 1922 3584 2338 3584 
Q 2397 3584 2469 3576 
Q 2541 3569 2628 3553 
L 2631 2963 
z
" transform="scale(0.015625)"/>
       <path id="DejaVuSans-6f" d="M 1959 3097 
Q 1497 3097 1228 2736 
Q 959 2375 959 1747 
Q 959 1119 1226 758 
Q 1494 397 1959 397 
Q 2419 397 2687 759 
Q 2956 1122 2956 1747 
Q 2956 2369 2687 2733 
Q 2419 3097 1959 3097 
z
M 1959 3584 
Q 2709 3584 3137 3096 
Q 3566 2609 3566 1747 
Q 3566 888 3137 398 
Q 2709 -91 1959 -91 
Q 1206 -91 779 398 
Q 353 888 353 1747 
Q 353 2609 779 3096 
Q 1206 3584 1959 3584 
z
" transform="scale(0.015625)"/>
       <path id="DejaVuSans-65" d="M 3597 1894 
L 3597 1613 
L 953 1613 
Q 991 1019 1311 708 
Q 1631 397 2203 397 
Q 2534 397 2845 478 
Q 3156 559 3463 722 
L 3463 178 
Q 3153 47 2828 -22 
Q 2503 -91 2169 -91 
Q 1331 -91 842 396 
Q 353 884 353 1716 
Q 353 2575 817 3079 
Q 1281 3584 2069 3584 
Q 2775 3584 3186 3129 
Q 3597 2675 3597 1894 
z
M 3022 2063 
Q 3016 2534 2758 2815 
Q 2500 3097 2075 3097 
Q 1594 3097 1305 2825 
Q 1016 2553 972 2059 
L 3022 2063 
z
" transform="scale(0.015625)"/>
      </defs>
      <use xlink:href="#DejaVuSans-54"/>
      <use xlink:href="#DejaVuSans-72" x="46.333984"/>
      <use xlink:href="#DejaVuSans-6f" x="85.197266"/>
      <use xlink:href="#DejaVuSans-74" x="146.378906"/>
      <use xlink:href="#DejaVuSans-74" x="185.587891"/>
      <use xlink:href="#DejaVuSans-65" x="224.796875"/>
      <use xlink:href="#DejaVuSans-72" x="286.320312"/>
     </g>
    </g>
   </g>
  </g>
 </g>
 <defs>
  <clipPath id="pedf990798a">
   <rect x="57.6" y="41.472" width="357.12" height="266.112"/>
  </clipPath>
 </defs>
</svg>
