<?xml version="1.0" encoding="utf-8" standalone="no"?>
<!DOCTYPE svg PUBLIC "-//W3C//DTD SVG 1.1//EN"
  "http://www.w3.org/Graphics/SVG/1.1/DTD/svg11.dtd">
<svg xmlns:xlink="http://www.w3.org/1999/xlink" width="460.8pt" height="345.6pt" viewBox="0 0 460.8 345.6" xmlns="http://www.w3.org/2000/svg" version="1.1">
 <metadata>
  <rdf:RDF xmlns:dc="http://purl.org/dc/elements/1.1/" xmlns:cc="http://creativecommons.org/ns#" xmlns:rdf="http://www.w3.org/1999/02/22-rdf-syntax-ns#">
   <cc:Work>
    <dc:type rdf:resource="http://purl.org/dc/dcmitype/StillImage"/>
    <dc:date>2024-08-25T16:28:39.358646</dc:date>
    <dc:format>image/svg+xml</dc:format>
    <dc:creator>
     <cc:Agent>
      <dc:title>Matplotlib v3.7.1, https://matplotlib.org/</dc:title>
     </cc:Agent>
    </dc:creator>
   </cc:Work>
  </rdf:RDF>
 </metadata>
 <defs>
  <style type="text/css">*{stroke-linejoin: round; stroke-linecap: butt}</style>
 </defs>
 <g id="figure_1">
  <g id="patch_1">
   <path d="M 0 345.6 
L 460.8 345.6 
L 460.8 0 
L 0 0 
z
" style="fill: #ffffff"/>
  </g>
  <g id="axes_1">
   <g id="patch_2">
    <path d="M 57.6 307.584 
L 414.72 307.584 
L 414.72 41.472 
L 57.6 41.472 
z
" style="fill: #ffffff"/>
   </g>
   <g id="matplotlib.axis_1">
    <g id="xtick_1">
     <g id="line2d_1">
      <defs>
       <path id="m5f32af8d9b" d="M 0 0 
L 0 3.5 
" style="stroke: #000000; stroke-width: 0.8"/>
      </defs>
      <g>
       <use xlink:href="#m5f32af8d9b" x="73.832727" y="307.584" style="stroke: #000000; stroke-width: 0.8"/>
      </g>
     </g>
     <g id="text_1">
      <!-- 0 -->
      <g transform="translate(70.651477 322.182437) scale(0.1 -0.1)">
       <defs>
        <path id="DejaVuSans-30" d="M 2034 4250 
Q 1547 4250 1301 3770 
Q 1056 3291 1056 2328 
Q 1056 1369 1301 889 
Q 1547 409 2034 409 
Q 2525 409 2770 889 
Q 3016 1369 3016 2328 
Q 3016 3291 2770 3770 
Q 2525 4250 2034 4250 
z
M 2034 4750 
Q 2819 4750 3233 4129 
Q 3647 3509 3647 2328 
Q 3647 1150 3233 529 
Q 2819 -91 2034 -91 
Q 1250 -91 836 529 
Q 422 1150 422 2328 
Q 422 3509 836 4129 
Q 1250 4750 2034 4750 
z
" transform="scale(0.015625)"/>
       </defs>
       <use xlink:href="#DejaVuSans-30"/>
      </g>
     </g>
    </g>
    <g id="xtick_2">
     <g id="line2d_2">
      <g>
       <use xlink:href="#m5f32af8d9b" x="137.303802" y="307.584" style="stroke: #000000; stroke-width: 0.8"/>
      </g>
     </g>
     <g id="text_2">
      <!-- 200 -->
      <g transform="translate(127.760052 322.182437) scale(0.1 -0.1)">
       <defs>
        <path id="DejaVuSans-32" d="M 1228 531 
L 3431 531 
L 3431 0 
L 469 0 
L 469 531 
Q 828 903 1448 1529 
Q 2069 2156 2228 2338 
Q 2531 2678 2651 2914 
Q 2772 3150 2772 3378 
Q 2772 3750 2511 3984 
Q 2250 4219 1831 4219 
Q 1534 4219 1204 4116 
Q 875 4013 500 3803 
L 500 4441 
Q 881 4594 1212 4672 
Q 1544 4750 1819 4750 
Q 2544 4750 2975 4387 
Q 3406 4025 3406 3419 
Q 3406 3131 3298 2873 
Q 3191 2616 2906 2266 
Q 2828 2175 2409 1742 
Q 1991 1309 1228 531 
z
" transform="scale(0.015625)"/>
       </defs>
       <use xlink:href="#DejaVuSans-32"/>
       <use xlink:href="#DejaVuSans-30" x="63.623047"/>
       <use xlink:href="#DejaVuSans-30" x="127.246094"/>
      </g>
     </g>
    </g>
    <g id="xtick_3">
     <g id="line2d_3">
      <g>
       <use xlink:href="#m5f32af8d9b" x="200.774876" y="307.584" style="stroke: #000000; stroke-width: 0.8"/>
      </g>
     </g>
     <g id="text_3">
      <!-- 400 -->
      <g transform="translate(191.231126 322.182437) scale(0.1 -0.1)">
       <defs>
        <path id="DejaVuSans-34" d="M 2419 4116 
L 825 1625 
L 2419 1625 
L 2419 4116 
z
M 2253 4666 
L 3047 4666 
L 3047 1625 
L 3713 1625 
L 3713 1100 
L 3047 1100 
L 3047 0 
L 2419 0 
L 2419 1100 
L 313 1100 
L 313 1709 
L 2253 4666 
z
" transform="scale(0.015625)"/>
       </defs>
       <use xlink:href="#DejaVuSans-34"/>
       <use xlink:href="#DejaVuSans-30" x="63.623047"/>
       <use xlink:href="#DejaVuSans-30" x="127.246094"/>
      </g>
     </g>
    </g>
    <g id="xtick_4">
     <g id="line2d_4">
      <g>
       <use xlink:href="#m5f32af8d9b" x="264.24595" y="307.584" style="stroke: #000000; stroke-width: 0.8"/>
      </g>
     </g>
     <g id="text_4">
      <!-- 600 -->
      <g transform="translate(254.7022 322.182437) scale(0.1 -0.1)">
       <defs>
        <path id="DejaVuSans-36" d="M 2113 2584 
Q 1688 2584 1439 2293 
Q 1191 2003 1191 1497 
Q 1191 994 1439 701 
Q 1688 409 2113 409 
Q 2538 409 2786 701 
Q 3034 994 3034 1497 
Q 3034 2003 2786 2293 
Q 2538 2584 2113 2584 
z
M 3366 4563 
L 3366 3988 
Q 3128 4100 2886 4159 
Q 2644 4219 2406 4219 
Q 1781 4219 1451 3797 
Q 1122 3375 1075 2522 
Q 1259 2794 1537 2939 
Q 1816 3084 2150 3084 
Q 2853 3084 3261 2657 
Q 3669 2231 3669 1497 
Q 3669 778 3244 343 
Q 2819 -91 2113 -91 
Q 1303 -91 875 529 
Q 447 1150 447 2328 
Q 447 3434 972 4092 
Q 1497 4750 2381 4750 
Q 2619 4750 2861 4703 
Q 3103 4656 3366 4563 
z
" transform="scale(0.015625)"/>
       </defs>
       <use xlink:href="#DejaVuSans-36"/>
       <use xlink:href="#DejaVuSans-30" x="63.623047"/>
       <use xlink:href="#DejaVuSans-30" x="127.246094"/>
      </g>
     </g>
    </g>
    <g id="xtick_5">
     <g id="line2d_5">
      <g>
       <use xlink:href="#m5f32af8d9b" x="327.717025" y="307.584" style="stroke: #000000; stroke-width: 0.8"/>
      </g>
     </g>
     <g id="text_5">
      <!-- 800 -->
      <g transform="translate(318.173275 322.182437) scale(0.1 -0.1)">
       <defs>
        <path id="DejaVuSans-38" d="M 2034 2216 
Q 1584 2216 1326 1975 
Q 1069 1734 1069 1313 
Q 1069 891 1326 650 
Q 1584 409 2034 409 
Q 2484 409 2743 651 
Q 3003 894 3003 1313 
Q 3003 1734 2745 1975 
Q 2488 2216 2034 2216 
z
M 1403 2484 
Q 997 2584 770 2862 
Q 544 3141 544 3541 
Q 544 4100 942 4425 
Q 1341 4750 2034 4750 
Q 2731 4750 3128 4425 
Q 3525 4100 3525 3541 
Q 3525 3141 3298 2862 
Q 3072 2584 2669 2484 
Q 3125 2378 3379 2068 
Q 3634 1759 3634 1313 
Q 3634 634 3220 271 
Q 2806 -91 2034 -91 
Q 1263 -91 848 271 
Q 434 634 434 1313 
Q 434 1759 690 2068 
Q 947 2378 1403 2484 
z
M 1172 3481 
Q 1172 3119 1398 2916 
Q 1625 2713 2034 2713 
Q 2441 2713 2670 2916 
Q 2900 3119 2900 3481 
Q 2900 3844 2670 4047 
Q 2441 4250 2034 4250 
Q 1625 4250 1398 4047 
Q 1172 3844 1172 3481 
z
" transform="scale(0.015625)"/>
       </defs>
       <use xlink:href="#DejaVuSans-38"/>
       <use xlink:href="#DejaVuSans-30" x="63.623047"/>
       <use xlink:href="#DejaVuSans-30" x="127.246094"/>
      </g>
     </g>
    </g>
    <g id="xtick_6">
     <g id="line2d_6">
      <g>
       <use xlink:href="#m5f32af8d9b" x="391.188099" y="307.584" style="stroke: #000000; stroke-width: 0.8"/>
      </g>
     </g>
     <g id="text_6">
      <!-- 1000 -->
      <g transform="translate(378.463099 322.182437) scale(0.1 -0.1)">
       <defs>
        <path id="DejaVuSans-31" d="M 794 531 
L 1825 531 
L 1825 4091 
L 703 3866 
L 703 4441 
L 1819 4666 
L 2450 4666 
L 2450 531 
L 3481 531 
L 3481 0 
L 794 0 
L 794 531 
z
" transform="scale(0.015625)"/>
       </defs>
       <use xlink:href="#DejaVuSans-31"/>
       <use xlink:href="#DejaVuSans-30" x="63.623047"/>
       <use xlink:href="#DejaVuSans-30" x="127.246094"/>
       <use xlink:href="#DejaVuSans-30" x="190.869141"/>
      </g>
     </g>
    </g>
    <g id="text_7">
     <!-- n -->
     <g transform="translate(232.99125 335.860562) scale(0.1 -0.1)">
      <defs>
       <path id="DejaVuSans-6e" d="M 3513 2113 
L 3513 0 
L 2938 0 
L 2938 2094 
Q 2938 2591 2744 2837 
Q 2550 3084 2163 3084 
Q 1697 3084 1428 2787 
Q 1159 2491 1159 1978 
L 1159 0 
L 581 0 
L 581 3500 
L 1159 3500 
L 1159 2956 
Q 1366 3272 1645 3428 
Q 1925 3584 2291 3584 
Q 2894 3584 3203 3211 
Q 3513 2838 3513 2113 
z
" transform="scale(0.015625)"/>
      </defs>
      <use xlink:href="#DejaVuSans-6e"/>
     </g>
    </g>
   </g>
   <g id="matplotlib.axis_2">
    <g id="ytick_1">
     <g id="line2d_7">
      <defs>
       <path id="m3736bc9352" d="M 0 0 
L -3.5 0 
" style="stroke: #000000; stroke-width: 0.8"/>
      </defs>
      <g>
       <use xlink:href="#m3736bc9352" x="57.6" y="300.688619" style="stroke: #000000; stroke-width: 0.8"/>
      </g>
     </g>
     <g id="text_8">
      <!-- −8 -->
      <g transform="translate(35.857813 304.487838) scale(0.1 -0.1)">
       <defs>
        <path id="DejaVuSans-2212" d="M 678 2272 
L 4684 2272 
L 4684 1741 
L 678 1741 
L 678 2272 
z
" transform="scale(0.015625)"/>
       </defs>
       <use xlink:href="#DejaVuSans-2212"/>
       <use xlink:href="#DejaVuSans-38" x="83.789062"/>
      </g>
     </g>
    </g>
    <g id="ytick_2">
     <g id="line2d_8">
      <g>
       <use xlink:href="#m3736bc9352" x="57.6" y="262.995974" style="stroke: #000000; stroke-width: 0.8"/>
      </g>
     </g>
     <g id="text_9">
      <!-- −6 -->
      <g transform="translate(35.857813 266.795193) scale(0.1 -0.1)">
       <use xlink:href="#DejaVuSans-2212"/>
       <use xlink:href="#DejaVuSans-36" x="83.789062"/>
      </g>
     </g>
    </g>
    <g id="ytick_3">
     <g id="line2d_9">
      <g>
       <use xlink:href="#m3736bc9352" x="57.6" y="225.303329" style="stroke: #000000; stroke-width: 0.8"/>
      </g>
     </g>
     <g id="text_10">
      <!-- −4 -->
      <g transform="translate(35.857813 229.102547) scale(0.1 -0.1)">
       <use xlink:href="#DejaVuSans-2212"/>
       <use xlink:href="#DejaVuSans-34" x="83.789062"/>
      </g>
     </g>
    </g>
    <g id="ytick_4">
     <g id="line2d_10">
      <g>
       <use xlink:href="#m3736bc9352" x="57.6" y="187.610683" style="stroke: #000000; stroke-width: 0.8"/>
      </g>
     </g>
     <g id="text_11">
      <!-- −2 -->
      <g transform="translate(35.857813 191.409902) scale(0.1 -0.1)">
       <use xlink:href="#DejaVuSans-2212"/>
       <use xlink:href="#DejaVuSans-32" x="83.789062"/>
      </g>
     </g>
    </g>
    <g id="ytick_5">
     <g id="line2d_11">
      <g>
       <use xlink:href="#m3736bc9352" x="57.6" y="149.918038" style="stroke: #000000; stroke-width: 0.8"/>
      </g>
     </g>
     <g id="text_12">
      <!-- 0 -->
      <g transform="translate(44.2375 153.717257) scale(0.1 -0.1)">
       <use xlink:href="#DejaVuSans-30"/>
      </g>
     </g>
    </g>
    <g id="ytick_6">
     <g id="line2d_12">
      <g>
       <use xlink:href="#m3736bc9352" x="57.6" y="112.225392" style="stroke: #000000; stroke-width: 0.8"/>
      </g>
     </g>
     <g id="text_13">
      <!-- 2 -->
      <g transform="translate(44.2375 116.024611) scale(0.1 -0.1)">
       <use xlink:href="#DejaVuSans-32"/>
      </g>
     </g>
    </g>
    <g id="ytick_7">
     <g id="line2d_13">
      <g>
       <use xlink:href="#m3736bc9352" x="57.6" y="74.532747" style="stroke: #000000; stroke-width: 0.8"/>
      </g>
     </g>
     <g id="text_14">
      <!-- 4 -->
      <g transform="translate(44.2375 78.331966) scale(0.1 -0.1)">
       <use xlink:href="#DejaVuSans-34"/>
      </g>
     </g>
    </g>
    <g id="text_15">
     <!-- E*t -->
     <g transform="translate(29.778125 182.147531) rotate(-90) scale(0.1 -0.1)">
      <defs>
       <path id="DejaVuSans-45" d="M 628 4666 
L 3578 4666 
L 3578 4134 
L 1259 4134 
L 1259 2753 
L 3481 2753 
L 3481 2222 
L 1259 2222 
L 1259 531 
L 3634 531 
L 3634 0 
L 628 0 
L 628 4666 
z
" transform="scale(0.015625)"/>
       <path id="DejaVuSans-2a" d="M 3009 3897 
L 1888 3291 
L 3009 2681 
L 2828 2375 
L 1778 3009 
L 1778 1831 
L 1422 1831 
L 1422 3009 
L 372 2375 
L 191 2681 
L 1313 3291 
L 191 3897 
L 372 4206 
L 1422 3572 
L 1422 4750 
L 1778 4750 
L 1778 3572 
L 2828 4206 
L 3009 3897 
z
" transform="scale(0.015625)"/>
       <path id="DejaVuSans-74" d="M 1172 4494 
L 1172 3500 
L 2356 3500 
L 2356 3053 
L 1172 3053 
L 1172 1153 
Q 1172 725 1289 603 
Q 1406 481 1766 481 
L 2356 481 
L 2356 0 
L 1766 0 
Q 1100 0 847 248 
Q 594 497 594 1153 
L 594 3053 
L 172 3053 
L 172 3500 
L 594 3500 
L 594 4494 
L 1172 4494 
z
" transform="scale(0.015625)"/>
      </defs>
      <use xlink:href="#DejaVuSans-45"/>
      <use xlink:href="#DejaVuSans-2a" x="63.183594"/>
      <use xlink:href="#DejaVuSans-74" x="113.183594"/>
     </g>
    </g>
   </g>
   <g id="line2d_14">
    <path d="M 73.832727 295.488 
L 74.150083 284.273962 
L 74.467438 283.675924 
L 74.784793 274.143953 
L 75.102149 272.383565 
L 75.419504 271.929058 
L 75.73686 270.315638 
L 76.054215 267.448531 
L 76.37157 262.127715 
L 76.688926 261.690507 
L 77.006281 261.547561 
L 77.640992 260.770819 
L 77.958347 260.727844 
L 78.275702 259.35546 
L 78.910413 258.079609 
L 79.227769 257.916052 
L 79.545124 257.543691 
L 80.179835 253.935114 
L 80.49719 253.619913 
L 80.814545 252.6178 
L 81.131901 251.151984 
L 81.449256 250.95018 
L 82.083967 250.258679 
L 82.401322 250.149591 
L 83.353388 249.426822 
L 83.988099 249.057214 
L 84.305455 248.749616 
L 84.62281 247.976878 
L 85.257521 247.503976 
L 85.574876 246.611534 
L 86.526942 245.995622 
L 86.844298 245.345202 
L 87.479008 244.961301 
L 87.796364 244.703023 
L 88.431074 244.008767 
L 88.74843 243.096589 
L 89.38314 242.692108 
L 89.700496 242.31244 
L 90.017851 241.316365 
L 90.335207 241.063146 
L 90.652562 240.963167 
L 91.604628 239.65018 
L 92.239339 239.506592 
L 93.50876 238.257768 
L 93.826116 238.20361 
L 94.460826 237.784306 
L 96.047603 237.195652 
L 96.364959 236.965009 
L 96.999669 236.752224 
L 97.317025 236.45777 
L 98.586446 236.123896 
L 99.221157 235.594899 
L 99.538512 235.554197 
L 99.855868 235.342027 
L 100.173223 234.698695 
L 101.442645 233.631904 
L 102.712066 233.024755 
L 103.029421 232.318855 
L 103.346777 232.093733 
L 103.664132 231.577904 
L 103.981488 231.4813 
L 104.298843 231.157142 
L 104.933554 230.868512 
L 105.250909 230.189084 
L 105.88562 229.482512 
L 106.202975 229.134854 
L 106.837686 228.861581 
L 107.155041 228.558315 
L 107.789752 228.360781 
L 108.741818 228.139264 
L 109.059174 228.017936 
L 109.693884 227.551366 
L 110.64595 227.316531 
L 111.280661 227.009715 
L 111.915372 226.680234 
L 112.232727 226.655806 
L 113.184793 226.276067 
L 113.502149 226.218415 
L 114.454215 225.692017 
L 115.723636 225.225117 
L 116.675702 224.864961 
L 117.945124 224.508547 
L 118.262479 224.296882 
L 118.579835 224.22066 
L 119.214545 223.833032 
L 119.531901 223.796021 
L 120.166612 223.489747 
L 122.705455 222.830651 
L 123.340165 222.581912 
L 123.657521 222.179623 
L 124.292231 222.014748 
L 127.14843 220.887698 
L 128.100496 220.503884 
L 128.417851 220.436142 
L 129.052562 220.139704 
L 130.004628 219.92179 
L 130.956694 219.65411 
L 131.27405 219.444616 
L 132.226116 219.24472 
L 138.255868 217.469732 
L 138.573223 217.163575 
L 139.525289 216.982615 
L 141.746777 216.284407 
L 142.381488 216.163192 
L 143.016198 215.90593 
L 143.968264 215.628098 
L 144.602975 215.361797 
L 145.555041 215.114401 
L 149.363306 214.251763 
L 149.680661 214.063245 
L 149.998017 214.041357 
L 150.315372 213.830819 
L 150.950083 213.636998 
L 151.267438 213.260559 
L 152.854215 212.903668 
L 153.17157 212.65794 
L 153.806281 212.445611 
L 154.758347 212.08681 
L 156.662479 211.62083 
L 157.614545 211.267575 
L 162.057521 210.09444 
L 163.961653 209.739076 
L 164.913719 209.552002 
L 165.54843 209.444259 
L 166.817851 209.208653 
L 169.991405 208.427959 
L 171.895537 208.021507 
L 172.530248 207.907064 
L 173.164959 207.650816 
L 174.117025 207.491591 
L 175.703802 206.931821 
L 177.290579 206.446386 
L 177.925289 206.171184 
L 178.877355 206.046486 
L 179.829421 205.788492 
L 180.464132 205.582451 
L 181.416198 205.326229 
L 182.368264 205.144625 
L 182.68562 205.094671 
L 183.002975 204.861691 
L 184.272397 204.578419 
L 187.763306 203.448668 
L 188.398017 203.327959 
L 189.350083 203.065239 
L 192.206281 202.378984 
L 194.110413 202.106231 
L 194.745124 201.841476 
L 195.69719 201.616328 
L 196.649256 201.378479 
L 197.283967 201.228808 
L 200.457521 200.446746 
L 200.774876 200.40973 
L 201.409587 200.203028 
L 203.313719 199.594995 
L 206.487273 199.054116 
L 207.439339 198.805329 
L 217.594711 196.985232 
L 219.181488 196.767788 
L 219.816198 196.652022 
L 221.402975 196.449113 
L 222.989752 196.124769 
L 225.21124 195.81303 
L 225.84595 195.689095 
L 227.115372 195.551505 
L 228.067438 195.299671 
L 230.923636 194.750885 
L 231.240992 194.521107 
L 232.193058 194.28639 
L 233.779835 193.984425 
L 235.049256 193.718089 
L 236.953388 193.265957 
L 237.270744 192.95793 
L 238.22281 192.818234 
L 238.857521 192.670404 
L 240.444298 192.356139 
L 242.031074 191.930211 
L 242.34843 191.771054 
L 242.98314 191.691439 
L 244.252562 191.438532 
L 244.887273 191.380823 
L 248.695537 190.504599 
L 250.282314 190.320848 
L 252.821157 189.955818 
L 253.455868 189.688922 
L 264.24595 187.250109 
L 264.563306 187.085417 
L 265.198017 186.976891 
L 265.832727 186.783013 
L 266.467438 186.691366 
L 267.73686 186.451481 
L 269.006281 186.120957 
L 271.545124 185.415374 
L 272.49719 185.222117 
L 275.036033 184.428652 
L 282.017851 182.744569 
L 282.969917 182.599927 
L 283.921983 182.283445 
L 286.778182 181.781319 
L 288.999669 181.152809 
L 289.63438 180.979193 
L 290.903802 180.775299 
L 291.855868 180.434081 
L 293.442645 180.112935 
L 295.346777 179.721061 
L 304.232727 177.827525 
L 306.13686 177.531633 
L 307.406281 177.263908 
L 308.040992 177.009756 
L 311.531901 176.047316 
L 312.801322 175.678431 
L 314.705455 175.204852 
L 315.02281 174.999207 
L 315.340165 174.970615 
L 316.609587 174.433095 
L 317.244298 174.329161 
L 317.879008 174.047366 
L 318.831074 173.810446 
L 319.465785 173.463789 
L 320.100496 173.33664 
L 320.417851 173.129109 
L 321.369917 172.82097 
L 321.687273 172.595754 
L 322.321983 172.490225 
L 322.639339 172.27859 
L 322.956694 172.253267 
L 323.27405 172.104593 
L 323.90876 171.986334 
L 324.226116 171.887176 
L 324.543471 171.64677 
L 325.495537 171.416286 
L 326.447603 171.092614 
L 329.621157 170.25282 
L 330.890579 169.930109 
L 331.842645 169.592601 
L 334.698843 168.947106 
L 335.333554 168.83535 
L 336.28562 168.521588 
L 337.237686 168.336615 
L 337.555041 168.062528 
L 339.776529 167.516846 
L 340.728595 167.179468 
L 349.29719 164.515598 
L 349.614545 164.32672 
L 350.249256 164.144853 
L 350.566612 163.975406 
L 351.201322 163.843584 
L 351.518678 163.564028 
L 352.153388 163.41692 
L 353.105455 162.827336 
L 353.740165 162.68044 
L 355.326942 161.924375 
L 356.596364 161.64212 
L 357.54843 161.151511 
L 358.500496 160.791854 
L 359.135207 160.443115 
L 359.452562 160.118321 
L 360.087273 159.973357 
L 360.721983 159.738648 
L 361.039339 159.638224 
L 361.356694 159.365698 
L 361.991405 159.159125 
L 362.30876 158.870121 
L 362.943471 158.66519 
L 363.260826 158.424108 
L 363.895537 158.295242 
L 364.530248 158.050351 
L 365.164959 157.778587 
L 365.482314 157.228425 
L 366.117025 156.884103 
L 366.751736 156.075992 
L 367.069091 155.889729 
L 367.386446 155.841733 
L 367.703802 155.593182 
L 368.021157 155.54338 
L 368.338512 155.031639 
L 368.973223 154.642486 
L 369.290579 154.403727 
L 369.607934 154.343056 
L 369.925289 153.439746 
L 370.242645 153.287798 
L 370.56 152.913514 
L 371.194711 152.810222 
L 371.512066 152.526153 
L 371.829421 151.924515 
L 372.464132 151.719316 
L 373.098843 151.579565 
L 373.416198 151.083977 
L 373.733554 151.035782 
L 374.368264 150.714098 
L 374.68562 150.668772 
L 375.002975 150.322688 
L 376.272397 149.921953 
L 376.907107 149.653144 
L 377.859174 149.345707 
L 378.176529 149.057269 
L 378.493884 149.020267 
L 379.128595 148.47551 
L 379.763306 148.140749 
L 380.080661 147.796583 
L 380.398017 147.658677 
L 381.032727 146.782799 
L 381.350083 146.603668 
L 381.667438 145.127777 
L 382.93686 144.739457 
L 383.254215 144.255337 
L 384.206281 143.762967 
L 384.523636 142.795357 
L 384.840992 142.374409 
L 387.062479 141.329475 
L 387.69719 140.031435 
L 388.014545 139.860515 
L 388.331901 139.370771 
L 388.649256 137.8945 
L 389.601322 137.473519 
L 389.918678 136.735821 
L 390.870744 136.11309 
L 391.188099 135.74387 
L 391.505455 133.844538 
L 391.82281 133.370247 
L 392.457521 131.923221 
L 392.774876 131.785377 
L 393.092231 129.956547 
L 393.409587 129.749796 
L 393.726942 128.426703 
L 394.361653 127.49339 
L 394.679008 126.983647 
L 395.313719 125.626848 
L 395.94843 124.661866 
L 396.265785 120.098749 
L 396.900496 117.160505 
L 397.217851 113.898721 
L 397.535207 113.486806 
L 397.852562 105.040881 
L 398.169917 103.098312 
L 398.487273 94.4656 
L 398.487273 94.4656 
" clip-path="url(#p0f653b44b2)" style="fill: none; stroke: #1f77b4; stroke-width: 1.5; stroke-linecap: square"/>
   </g>
   <g id="line2d_15">
    <path d="M 73.832727 246.268076 
L 74.150083 235.025063 
L 74.467438 235.025063 
L 74.784793 225.414577 
L 75.102149 223.418343 
L 75.73686 223.418343 
L 76.054215 219.822487 
L 76.37157 213.752183 
L 76.688926 213.379752 
L 77.006281 213.379752 
L 77.323636 212.440478 
L 78.910413 212.440478 
L 79.227769 209.015863 
L 79.545124 209.015863 
L 79.862479 207.776164 
L 80.179835 207.01026 
L 80.49719 207.01026 
L 80.814545 203.223377 
L 81.131901 201.440861 
L 82.083967 201.410212 
L 82.401322 200.35524 
L 86.844298 200.295342 
L 87.161653 199.717694 
L 87.479008 196.973615 
L 87.796364 196.367 
L 88.113719 195.41703 
L 89.700496 195.41703 
L 90.017851 194.203249 
L 90.652562 194.203249 
L 90.969917 192.793262 
L 91.287273 192.793262 
L 91.604628 192.05877 
L 91.921983 190.16954 
L 99.221157 190.16954 
L 99.538512 189.043814 
L 99.855868 189.043814 
L 100.173223 188.777531 
L 101.76 188.777531 
L 102.077355 187.610683 
L 103.664132 187.610683 
L 103.981488 187.347486 
L 104.298843 186.892516 
L 104.933554 186.892516 
L 105.250909 185.292342 
L 106.202975 185.211697 
L 106.520331 181.600368 
L 107.155041 181.243543 
L 107.472397 181.243543 
L 107.789752 180.411958 
L 109.376529 180.411958 
L 109.693884 178.586904 
L 110.01124 178.586904 
L 110.328595 176.570791 
L 129.369917 176.570707 
L 129.687273 175.42502 
L 130.321983 174.347489 
L 131.27405 174.27879 
L 131.591405 173.341565 
L 131.90876 173.341565 
L 132.226116 173.12744 
L 132.860826 173.12744 
L 133.178182 171.323218 
L 133.495537 171.323218 
L 133.812893 170.945415 
L 135.399669 170.945415 
L 135.717025 169.406809 
L 136.03438 169.199336 
L 136.351736 168.851947 
L 136.986446 168.76436 
L 163.009587 168.76436 
L 163.326942 167.167485 
L 167.135207 167.167485 
L 167.452562 166.875648 
L 167.769917 166.875648 
L 168.087273 164.899307 
L 168.404628 164.899307 
L 168.721983 164.371785 
L 169.356694 164.371785 
L 169.67405 164.031366 
L 169.991405 163.216004 
L 171.578182 163.216004 
L 172.212893 162.641115 
L 172.530248 162.641115 
L 172.847603 162.397221 
L 180.146777 162.397221 
L 180.464132 161.977416 
L 180.781488 161.977416 
L 181.098843 161.565636 
L 182.68562 161.565636 
L 183.320331 157.724385 
L 185.541818 157.690215 
L 185.859174 157.467038 
L 186.493884 157.467038 
L 186.81124 157.129935 
L 187.128595 156.285178 
L 187.44595 156.285178 
L 187.763306 155.713032 
L 188.080661 155.713032 
L 188.398017 153.324476 
L 188.715372 149.918038 
L 283.604628 149.918038 
L 284.239339 144.123043 
L 284.556694 144.123043 
L 284.87405 143.550898 
L 285.191405 143.550898 
L 285.50876 142.70614 
L 285.826116 142.369037 
L 286.460826 142.369037 
L 286.778182 142.14586 
L 288.999669 142.111691 
L 289.63438 138.27044 
L 291.221157 138.27044 
L 291.538512 137.85866 
L 291.855868 137.85866 
L 292.173223 137.438855 
L 299.472397 137.438855 
L 299.789752 137.194961 
L 300.107107 137.194961 
L 300.741818 136.620072 
L 302.328595 136.620072 
L 302.64595 135.80471 
L 302.963306 135.464291 
L 303.598017 135.464291 
L 303.915372 134.936769 
L 304.232727 134.936769 
L 304.550083 132.960428 
L 304.867438 132.960428 
L 305.184793 132.668591 
L 308.993058 132.668591 
L 309.310413 131.071715 
L 335.968264 130.984128 
L 336.602975 130.429267 
L 336.920331 128.89066 
L 338.507107 128.89066 
L 338.824463 128.512858 
L 339.141818 128.512858 
L 339.459174 126.708635 
L 340.093884 126.708635 
L 340.41124 126.494511 
L 340.728595 126.494511 
L 341.04595 125.557285 
L 341.680661 125.488586 
L 341.998017 125.488586 
L 342.315372 125.071531 
L 342.632727 124.411056 
L 342.950083 123.265368 
L 361.991405 123.265285 
L 362.30876 121.249172 
L 362.626116 121.249172 
L 362.943471 119.424117 
L 364.530248 119.424117 
L 364.847603 118.592532 
L 365.164959 118.592532 
L 365.799669 118.235708 
L 366.117025 114.624379 
L 367.069091 114.543733 
L 367.386446 112.94356 
L 368.021157 112.94356 
L 368.655868 112.225392 
L 370.242645 112.225392 
L 370.56 111.058545 
L 372.146777 111.058545 
L 372.464132 110.792262 
L 372.781488 110.792262 
L 373.098843 109.666535 
L 380.398017 109.666535 
L 380.715372 107.777306 
L 381.032727 107.042813 
L 381.350083 107.042813 
L 381.667438 105.632826 
L 382.302149 105.632826 
L 382.619504 104.419045 
L 384.206281 104.419045 
L 384.840992 102.86246 
L 385.158347 100.118381 
L 385.475702 99.540734 
L 389.918678 99.480836 
L 390.236033 98.425864 
L 391.188099 98.395214 
L 391.505455 96.612699 
L 391.82281 92.825816 
L 392.140165 92.825816 
L 392.457521 92.059912 
L 392.774876 90.820212 
L 393.092231 90.820212 
L 393.409587 87.395597 
L 394.996364 87.395597 
L 395.313719 86.456323 
L 395.631074 86.456323 
L 395.94843 86.083892 
L 396.265785 80.013589 
L 396.58314 76.417732 
L 397.217851 76.417732 
L 397.535207 74.421498 
L 397.852562 64.811013 
L 398.169917 64.811013 
L 398.487273 53.568 
L 398.487273 53.568 
" clip-path="url(#p0f653b44b2)" style="fill: none; stroke: #ff7f0e; stroke-width: 1.5; stroke-linecap: square"/>
   </g>
   <g id="patch_3">
    <path d="M 57.6 307.584 
L 57.6 41.472 
" style="fill: none; stroke: #000000; stroke-width: 0.8; stroke-linejoin: miter; stroke-linecap: square"/>
   </g>
   <g id="patch_4">
    <path d="M 414.72 307.584 
L 414.72 41.472 
" style="fill: none; stroke: #000000; stroke-width: 0.8; stroke-linejoin: miter; stroke-linecap: square"/>
   </g>
   <g id="patch_5">
    <path d="M 57.6 307.584 
L 414.72 307.584 
" style="fill: none; stroke: #000000; stroke-width: 0.8; stroke-linejoin: miter; stroke-linecap: square"/>
   </g>
   <g id="patch_6">
    <path d="M 57.6 41.472 
L 414.72 41.472 
" style="fill: none; stroke: #000000; stroke-width: 0.8; stroke-linejoin: miter; stroke-linecap: square"/>
   </g>
   <g id="legend_1">
    <g id="patch_7">
     <path d="M 64.6 78.82825 
L 129.342187 78.82825 
Q 131.342187 78.82825 131.342187 76.82825 
L 131.342187 48.472 
Q 131.342187 46.472 129.342187 46.472 
L 64.6 46.472 
Q 62.6 46.472 62.6 48.472 
L 62.6 76.82825 
Q 62.6 78.82825 64.6 78.82825 
z
" style="fill: #ffffff; opacity: 0.8; stroke: #cccccc; stroke-linejoin: miter"/>
    </g>
    <g id="line2d_16">
     <path d="M 66.6 54.570437 
L 76.6 54.570437 
L 86.6 54.570437 
" style="fill: none; stroke: #1f77b4; stroke-width: 1.5; stroke-linecap: square"/>
    </g>
    <g id="text_16">
     <!-- qc -->
     <g transform="translate(94.6 58.070437) scale(0.1 -0.1)">
      <defs>
       <path id="DejaVuSans-71" d="M 947 1747 
Q 947 1113 1208 752 
Q 1469 391 1925 391 
Q 2381 391 2643 752 
Q 2906 1113 2906 1747 
Q 2906 2381 2643 2742 
Q 2381 3103 1925 3103 
Q 1469 3103 1208 2742 
Q 947 2381 947 1747 
z
M 2906 525 
Q 2725 213 2448 61 
Q 2172 -91 1784 -91 
Q 1150 -91 751 415 
Q 353 922 353 1747 
Q 353 2572 751 3078 
Q 1150 3584 1784 3584 
Q 2172 3584 2448 3432 
Q 2725 3281 2906 2969 
L 2906 3500 
L 3481 3500 
L 3481 -1331 
L 2906 -1331 
L 2906 525 
z
" transform="scale(0.015625)"/>
       <path id="DejaVuSans-63" d="M 3122 3366 
L 3122 2828 
Q 2878 2963 2633 3030 
Q 2388 3097 2138 3097 
Q 1578 3097 1268 2742 
Q 959 2388 959 1747 
Q 959 1106 1268 751 
Q 1578 397 2138 397 
Q 2388 397 2633 464 
Q 2878 531 3122 666 
L 3122 134 
Q 2881 22 2623 -34 
Q 2366 -91 2075 -91 
Q 1284 -91 818 406 
Q 353 903 353 1747 
Q 353 2603 823 3093 
Q 1294 3584 2113 3584 
Q 2378 3584 2631 3529 
Q 2884 3475 3122 3366 
z
" transform="scale(0.015625)"/>
      </defs>
      <use xlink:href="#DejaVuSans-71"/>
      <use xlink:href="#DejaVuSans-63" x="63.476562"/>
     </g>
    </g>
    <g id="line2d_17">
     <path d="M 66.6 69.248562 
L 76.6 69.248562 
L 86.6 69.248562 
" style="fill: none; stroke: #ff7f0e; stroke-width: 1.5; stroke-linecap: square"/>
    </g>
    <g id="text_17">
     <!-- Trotter -->
     <g transform="translate(94.6 72.748562) scale(0.1 -0.1)">
      <defs>
       <path id="DejaVuSans-54" d="M -19 4666 
L 3928 4666 
L 3928 4134 
L 2272 4134 
L 2272 0 
L 1638 0 
L 1638 4134 
L -19 4134 
L -19 4666 
z
" transform="scale(0.015625)"/>
       <path id="DejaVuSans-72" d="M 2631 2963 
Q 2534 3019 2420 3045 
Q 2306 3072 2169 3072 
Q 1681 3072 1420 2755 
Q 1159 2438 1159 1844 
L 1159 0 
L 581 0 
L 581 3500 
L 1159 3500 
L 1159 2956 
Q 1341 3275 1631 3429 
Q 1922 3584 2338 3584 
Q 2397 3584 2469 3576 
Q 2541 3569 2628 3553 
L 2631 2963 
z
" transform="scale(0.015625)"/>
       <path id="DejaVuSans-6f" d="M 1959 3097 
Q 1497 3097 1228 2736 
Q 959 2375 959 1747 
Q 959 1119 1226 758 
Q 1494 397 1959 397 
Q 2419 397 2687 759 
Q 2956 1122 2956 1747 
Q 2956 2369 2687 2733 
Q 2419 3097 1959 3097 
z
M 1959 3584 
Q 2709 3584 3137 3096 
Q 3566 2609 3566 1747 
Q 3566 888 3137 398 
Q 2709 -91 1959 -91 
Q 1206 -91 779 398 
Q 353 888 353 1747 
Q 353 2609 779 3096 
Q 1206 3584 1959 3584 
z
" transform="scale(0.015625)"/>
       <path id="DejaVuSans-65" d="M 3597 1894 
L 3597 1613 
L 953 1613 
Q 991 1019 1311 708 
Q 1631 397 2203 397 
Q 2534 397 2845 478 
Q 3156 559 3463 722 
L 3463 178 
Q 3153 47 2828 -22 
Q 2503 -91 2169 -91 
Q 1331 -91 842 396 
Q 353 884 353 1716 
Q 353 2575 817 3079 
Q 1281 3584 2069 3584 
Q 2775 3584 3186 3129 
Q 3597 2675 3597 1894 
z
M 3022 2063 
Q 3016 2534 2758 2815 
Q 2500 3097 2075 3097 
Q 1594 3097 1305 2825 
Q 1016 2553 972 2059 
L 3022 2063 
z
" transform="scale(0.015625)"/>
      </defs>
      <use xlink:href="#DejaVuSans-54"/>
      <use xlink:href="#DejaVuSans-72" x="46.333984"/>
      <use xlink:href="#DejaVuSans-6f" x="85.197266"/>
      <use xlink:href="#DejaVuSans-74" x="146.378906"/>
      <use xlink:href="#DejaVuSans-74" x="185.587891"/>
      <use xlink:href="#DejaVuSans-65" x="224.796875"/>
      <use xlink:href="#DejaVuSans-72" x="286.320312"/>
     </g>
    </g>
   </g>
  </g>
 </g>
 <defs>
  <clipPath id="p0f653b44b2">
   <rect x="57.6" y="41.472" width="357.12" height="266.112"/>
  </clipPath>
 </defs>
</svg>
