<?xml version="1.0" encoding="utf-8" standalone="no"?>
<!DOCTYPE svg PUBLIC "-//W3C//DTD SVG 1.1//EN"
  "http://www.w3.org/Graphics/SVG/1.1/DTD/svg11.dtd">
<svg xmlns:xlink="http://www.w3.org/1999/xlink" width="460.8pt" height="345.6pt" viewBox="0 0 460.8 345.6" xmlns="http://www.w3.org/2000/svg" version="1.1">
 <metadata>
  <rdf:RDF xmlns:dc="http://purl.org/dc/elements/1.1/" xmlns:cc="http://creativecommons.org/ns#" xmlns:rdf="http://www.w3.org/1999/02/22-rdf-syntax-ns#">
   <cc:Work>
    <dc:type rdf:resource="http://purl.org/dc/dcmitype/StillImage"/>
    <dc:date>2024-08-25T16:17:23.346923</dc:date>
    <dc:format>image/svg+xml</dc:format>
    <dc:creator>
     <cc:Agent>
      <dc:title>Matplotlib v3.7.1, https://matplotlib.org/</dc:title>
     </cc:Agent>
    </dc:creator>
   </cc:Work>
  </rdf:RDF>
 </metadata>
 <defs>
  <style type="text/css">*{stroke-linejoin: round; stroke-linecap: butt}</style>
 </defs>
 <g id="figure_1">
  <g id="patch_1">
   <path d="M 0 345.6 
L 460.8 345.6 
L 460.8 0 
L 0 0 
z
" style="fill: #ffffff"/>
  </g>
  <g id="axes_1">
   <g id="patch_2">
    <path d="M 57.6 307.584 
L 414.72 307.584 
L 414.72 41.472 
L 57.6 41.472 
z
" style="fill: #ffffff"/>
   </g>
   <g id="matplotlib.axis_1">
    <g id="xtick_1">
     <g id="line2d_1">
      <defs>
       <path id="mb3453047c4" d="M 0 0 
L 0 3.5 
" style="stroke: #000000; stroke-width: 0.8"/>
      </defs>
      <g>
       <use xlink:href="#mb3453047c4" x="73.832727" y="307.584" style="stroke: #000000; stroke-width: 0.8"/>
      </g>
     </g>
     <g id="text_1">
      <!-- 0 -->
      <g transform="translate(70.651477 322.182437) scale(0.1 -0.1)">
       <defs>
        <path id="DejaVuSans-30" d="M 2034 4250 
Q 1547 4250 1301 3770 
Q 1056 3291 1056 2328 
Q 1056 1369 1301 889 
Q 1547 409 2034 409 
Q 2525 409 2770 889 
Q 3016 1369 3016 2328 
Q 3016 3291 2770 3770 
Q 2525 4250 2034 4250 
z
M 2034 4750 
Q 2819 4750 3233 4129 
Q 3647 3509 3647 2328 
Q 3647 1150 3233 529 
Q 2819 -91 2034 -91 
Q 1250 -91 836 529 
Q 422 1150 422 2328 
Q 422 3509 836 4129 
Q 1250 4750 2034 4750 
z
" transform="scale(0.015625)"/>
       </defs>
       <use xlink:href="#DejaVuSans-30"/>
      </g>
     </g>
    </g>
    <g id="xtick_2">
     <g id="line2d_2">
      <g>
       <use xlink:href="#mb3453047c4" x="137.303802" y="307.584" style="stroke: #000000; stroke-width: 0.8"/>
      </g>
     </g>
     <g id="text_2">
      <!-- 200 -->
      <g transform="translate(127.760052 322.182437) scale(0.1 -0.1)">
       <defs>
        <path id="DejaVuSans-32" d="M 1228 531 
L 3431 531 
L 3431 0 
L 469 0 
L 469 531 
Q 828 903 1448 1529 
Q 2069 2156 2228 2338 
Q 2531 2678 2651 2914 
Q 2772 3150 2772 3378 
Q 2772 3750 2511 3984 
Q 2250 4219 1831 4219 
Q 1534 4219 1204 4116 
Q 875 4013 500 3803 
L 500 4441 
Q 881 4594 1212 4672 
Q 1544 4750 1819 4750 
Q 2544 4750 2975 4387 
Q 3406 4025 3406 3419 
Q 3406 3131 3298 2873 
Q 3191 2616 2906 2266 
Q 2828 2175 2409 1742 
Q 1991 1309 1228 531 
z
" transform="scale(0.015625)"/>
       </defs>
       <use xlink:href="#DejaVuSans-32"/>
       <use xlink:href="#DejaVuSans-30" x="63.623047"/>
       <use xlink:href="#DejaVuSans-30" x="127.246094"/>
      </g>
     </g>
    </g>
    <g id="xtick_3">
     <g id="line2d_3">
      <g>
       <use xlink:href="#mb3453047c4" x="200.774876" y="307.584" style="stroke: #000000; stroke-width: 0.8"/>
      </g>
     </g>
     <g id="text_3">
      <!-- 400 -->
      <g transform="translate(191.231126 322.182437) scale(0.1 -0.1)">
       <defs>
        <path id="DejaVuSans-34" d="M 2419 4116 
L 825 1625 
L 2419 1625 
L 2419 4116 
z
M 2253 4666 
L 3047 4666 
L 3047 1625 
L 3713 1625 
L 3713 1100 
L 3047 1100 
L 3047 0 
L 2419 0 
L 2419 1100 
L 313 1100 
L 313 1709 
L 2253 4666 
z
" transform="scale(0.015625)"/>
       </defs>
       <use xlink:href="#DejaVuSans-34"/>
       <use xlink:href="#DejaVuSans-30" x="63.623047"/>
       <use xlink:href="#DejaVuSans-30" x="127.246094"/>
      </g>
     </g>
    </g>
    <g id="xtick_4">
     <g id="line2d_4">
      <g>
       <use xlink:href="#mb3453047c4" x="264.24595" y="307.584" style="stroke: #000000; stroke-width: 0.8"/>
      </g>
     </g>
     <g id="text_4">
      <!-- 600 -->
      <g transform="translate(254.7022 322.182437) scale(0.1 -0.1)">
       <defs>
        <path id="DejaVuSans-36" d="M 2113 2584 
Q 1688 2584 1439 2293 
Q 1191 2003 1191 1497 
Q 1191 994 1439 701 
Q 1688 409 2113 409 
Q 2538 409 2786 701 
Q 3034 994 3034 1497 
Q 3034 2003 2786 2293 
Q 2538 2584 2113 2584 
z
M 3366 4563 
L 3366 3988 
Q 3128 4100 2886 4159 
Q 2644 4219 2406 4219 
Q 1781 4219 1451 3797 
Q 1122 3375 1075 2522 
Q 1259 2794 1537 2939 
Q 1816 3084 2150 3084 
Q 2853 3084 3261 2657 
Q 3669 2231 3669 1497 
Q 3669 778 3244 343 
Q 2819 -91 2113 -91 
Q 1303 -91 875 529 
Q 447 1150 447 2328 
Q 447 3434 972 4092 
Q 1497 4750 2381 4750 
Q 2619 4750 2861 4703 
Q 3103 4656 3366 4563 
z
" transform="scale(0.015625)"/>
       </defs>
       <use xlink:href="#DejaVuSans-36"/>
       <use xlink:href="#DejaVuSans-30" x="63.623047"/>
       <use xlink:href="#DejaVuSans-30" x="127.246094"/>
      </g>
     </g>
    </g>
    <g id="xtick_5">
     <g id="line2d_5">
      <g>
       <use xlink:href="#mb3453047c4" x="327.717025" y="307.584" style="stroke: #000000; stroke-width: 0.8"/>
      </g>
     </g>
     <g id="text_5">
      <!-- 800 -->
      <g transform="translate(318.173275 322.182437) scale(0.1 -0.1)">
       <defs>
        <path id="DejaVuSans-38" d="M 2034 2216 
Q 1584 2216 1326 1975 
Q 1069 1734 1069 1313 
Q 1069 891 1326 650 
Q 1584 409 2034 409 
Q 2484 409 2743 651 
Q 3003 894 3003 1313 
Q 3003 1734 2745 1975 
Q 2488 2216 2034 2216 
z
M 1403 2484 
Q 997 2584 770 2862 
Q 544 3141 544 3541 
Q 544 4100 942 4425 
Q 1341 4750 2034 4750 
Q 2731 4750 3128 4425 
Q 3525 4100 3525 3541 
Q 3525 3141 3298 2862 
Q 3072 2584 2669 2484 
Q 3125 2378 3379 2068 
Q 3634 1759 3634 1313 
Q 3634 634 3220 271 
Q 2806 -91 2034 -91 
Q 1263 -91 848 271 
Q 434 634 434 1313 
Q 434 1759 690 2068 
Q 947 2378 1403 2484 
z
M 1172 3481 
Q 1172 3119 1398 2916 
Q 1625 2713 2034 2713 
Q 2441 2713 2670 2916 
Q 2900 3119 2900 3481 
Q 2900 3844 2670 4047 
Q 2441 4250 2034 4250 
Q 1625 4250 1398 4047 
Q 1172 3844 1172 3481 
z
" transform="scale(0.015625)"/>
       </defs>
       <use xlink:href="#DejaVuSans-38"/>
       <use xlink:href="#DejaVuSans-30" x="63.623047"/>
       <use xlink:href="#DejaVuSans-30" x="127.246094"/>
      </g>
     </g>
    </g>
    <g id="xtick_6">
     <g id="line2d_6">
      <g>
       <use xlink:href="#mb3453047c4" x="391.188099" y="307.584" style="stroke: #000000; stroke-width: 0.8"/>
      </g>
     </g>
     <g id="text_6">
      <!-- 1000 -->
      <g transform="translate(378.463099 322.182437) scale(0.1 -0.1)">
       <defs>
        <path id="DejaVuSans-31" d="M 794 531 
L 1825 531 
L 1825 4091 
L 703 3866 
L 703 4441 
L 1819 4666 
L 2450 4666 
L 2450 531 
L 3481 531 
L 3481 0 
L 794 0 
L 794 531 
z
" transform="scale(0.015625)"/>
       </defs>
       <use xlink:href="#DejaVuSans-31"/>
       <use xlink:href="#DejaVuSans-30" x="63.623047"/>
       <use xlink:href="#DejaVuSans-30" x="127.246094"/>
       <use xlink:href="#DejaVuSans-30" x="190.869141"/>
      </g>
     </g>
    </g>
    <g id="text_7">
     <!-- n -->
     <g transform="translate(232.99125 335.860562) scale(0.1 -0.1)">
      <defs>
       <path id="DejaVuSans-6e" d="M 3513 2113 
L 3513 0 
L 2938 0 
L 2938 2094 
Q 2938 2591 2744 2837 
Q 2550 3084 2163 3084 
Q 1697 3084 1428 2787 
Q 1159 2491 1159 1978 
L 1159 0 
L 581 0 
L 581 3500 
L 1159 3500 
L 1159 2956 
Q 1366 3272 1645 3428 
Q 1925 3584 2291 3584 
Q 2894 3584 3203 3211 
Q 3513 2838 3513 2113 
z
" transform="scale(0.015625)"/>
      </defs>
      <use xlink:href="#DejaVuSans-6e"/>
     </g>
    </g>
   </g>
   <g id="matplotlib.axis_2">
    <g id="ytick_1">
     <g id="line2d_7">
      <defs>
       <path id="mb5c234af2c" d="M 0 0 
L -3.5 0 
" style="stroke: #000000; stroke-width: 0.8"/>
      </defs>
      <g>
       <use xlink:href="#mb5c234af2c" x="57.6" y="294.974922" style="stroke: #000000; stroke-width: 0.8"/>
      </g>
     </g>
     <g id="text_8">
      <!-- −6 -->
      <g transform="translate(35.857813 298.774141) scale(0.1 -0.1)">
       <defs>
        <path id="DejaVuSans-2212" d="M 678 2272 
L 4684 2272 
L 4684 1741 
L 678 1741 
L 678 2272 
z
" transform="scale(0.015625)"/>
       </defs>
       <use xlink:href="#DejaVuSans-2212"/>
       <use xlink:href="#DejaVuSans-36" x="83.789062"/>
      </g>
     </g>
    </g>
    <g id="ytick_2">
     <g id="line2d_8">
      <g>
       <use xlink:href="#mb5c234af2c" x="57.6" y="251.526737" style="stroke: #000000; stroke-width: 0.8"/>
      </g>
     </g>
     <g id="text_9">
      <!-- −4 -->
      <g transform="translate(35.857813 255.325955) scale(0.1 -0.1)">
       <use xlink:href="#DejaVuSans-2212"/>
       <use xlink:href="#DejaVuSans-34" x="83.789062"/>
      </g>
     </g>
    </g>
    <g id="ytick_3">
     <g id="line2d_9">
      <g>
       <use xlink:href="#mb5c234af2c" x="57.6" y="208.078551" style="stroke: #000000; stroke-width: 0.8"/>
      </g>
     </g>
     <g id="text_10">
      <!-- −2 -->
      <g transform="translate(35.857813 211.87777) scale(0.1 -0.1)">
       <use xlink:href="#DejaVuSans-2212"/>
       <use xlink:href="#DejaVuSans-32" x="83.789062"/>
      </g>
     </g>
    </g>
    <g id="ytick_4">
     <g id="line2d_10">
      <g>
       <use xlink:href="#mb5c234af2c" x="57.6" y="164.630365" style="stroke: #000000; stroke-width: 0.8"/>
      </g>
     </g>
     <g id="text_11">
      <!-- 0 -->
      <g transform="translate(44.2375 168.429584) scale(0.1 -0.1)">
       <use xlink:href="#DejaVuSans-30"/>
      </g>
     </g>
    </g>
    <g id="ytick_5">
     <g id="line2d_11">
      <g>
       <use xlink:href="#mb5c234af2c" x="57.6" y="121.182179" style="stroke: #000000; stroke-width: 0.8"/>
      </g>
     </g>
     <g id="text_12">
      <!-- 2 -->
      <g transform="translate(44.2375 124.981398) scale(0.1 -0.1)">
       <use xlink:href="#DejaVuSans-32"/>
      </g>
     </g>
    </g>
    <g id="ytick_6">
     <g id="line2d_12">
      <g>
       <use xlink:href="#mb5c234af2c" x="57.6" y="77.733993" style="stroke: #000000; stroke-width: 0.8"/>
      </g>
     </g>
     <g id="text_13">
      <!-- 4 -->
      <g transform="translate(44.2375 81.533212) scale(0.1 -0.1)">
       <use xlink:href="#DejaVuSans-34"/>
      </g>
     </g>
    </g>
    <g id="text_14">
     <!-- E*t -->
     <g transform="translate(29.778125 182.147531) rotate(-90) scale(0.1 -0.1)">
      <defs>
       <path id="DejaVuSans-45" d="M 628 4666 
L 3578 4666 
L 3578 4134 
L 1259 4134 
L 1259 2753 
L 3481 2753 
L 3481 2222 
L 1259 2222 
L 1259 531 
L 3634 531 
L 3634 0 
L 628 0 
L 628 4666 
z
" transform="scale(0.015625)"/>
       <path id="DejaVuSans-2a" d="M 3009 3897 
L 1888 3291 
L 3009 2681 
L 2828 2375 
L 1778 3009 
L 1778 1831 
L 1422 1831 
L 1422 3009 
L 372 2375 
L 191 2681 
L 1313 3291 
L 191 3897 
L 372 4206 
L 1422 3572 
L 1422 4750 
L 1778 4750 
L 1778 3572 
L 2828 4206 
L 3009 3897 
z
" transform="scale(0.015625)"/>
       <path id="DejaVuSans-74" d="M 1172 4494 
L 1172 3500 
L 2356 3500 
L 2356 3053 
L 1172 3053 
L 1172 1153 
Q 1172 725 1289 603 
Q 1406 481 1766 481 
L 2356 481 
L 2356 0 
L 1766 0 
Q 1100 0 847 248 
Q 594 497 594 1153 
L 594 3053 
L 172 3053 
L 172 3500 
L 594 3500 
L 594 4494 
L 1172 4494 
z
" transform="scale(0.015625)"/>
      </defs>
      <use xlink:href="#DejaVuSans-45"/>
      <use xlink:href="#DejaVuSans-2a" x="63.183594"/>
      <use xlink:href="#DejaVuSans-74" x="113.183594"/>
     </g>
    </g>
   </g>
   <g id="line2d_13">
    <path d="M 73.832727 295.488 
L 74.150083 284.893292 
L 74.467438 279.311567 
L 74.784793 278.898067 
L 75.102149 270.759828 
L 75.419504 268.78625 
L 75.73686 268.643015 
L 76.37157 262.867862 
L 76.688926 262.602515 
L 77.006281 260.521568 
L 77.323636 260.1439 
L 77.640992 257.590476 
L 77.958347 256.571572 
L 78.275702 256.063668 
L 78.910413 254.196266 
L 79.227769 253.597484 
L 79.862479 252.945942 
L 80.179835 251.885371 
L 80.49719 249.915364 
L 81.766612 247.410481 
L 82.083967 246.964923 
L 82.401322 246.718858 
L 82.718678 245.45007 
L 83.036033 244.890568 
L 83.353388 243.759671 
L 84.940165 240.816344 
L 85.257521 240.554601 
L 85.574876 240.448585 
L 86.844298 239.309542 
L 87.479008 239.086036 
L 87.796364 238.636932 
L 88.113719 238.440552 
L 88.431074 237.869812 
L 88.74843 237.739737 
L 89.065785 237.224752 
L 89.38314 237.132835 
L 90.652562 235.746576 
L 91.604628 235.289542 
L 92.556694 233.787549 
L 92.87405 233.536566 
L 93.191405 232.926826 
L 93.50876 232.848866 
L 93.826116 232.341498 
L 94.778182 231.727993 
L 95.730248 231.05107 
L 97.317025 229.584555 
L 97.63438 229.363183 
L 97.951736 228.686688 
L 98.269091 228.390649 
L 98.903802 228.182383 
L 99.538512 227.841581 
L 99.855868 227.477792 
L 100.173223 227.433184 
L 100.807934 226.737874 
L 101.125289 226.681357 
L 102.077355 225.74413 
L 103.029421 225.326673 
L 103.981488 224.601763 
L 104.298843 224.270175 
L 104.933554 223.915576 
L 106.837686 222.92027 
L 107.155041 222.604794 
L 107.472397 222.535525 
L 108.107107 222.102844 
L 108.424463 221.489986 
L 110.01124 220.791554 
L 112.232727 219.418243 
L 113.819504 218.668135 
L 114.77157 218.114638 
L 117.945124 216.617228 
L 118.262479 216.341258 
L 118.579835 216.313083 
L 119.531901 215.835743 
L 121.753388 214.801371 
L 122.070744 214.616188 
L 122.388099 214.606865 
L 123.02281 214.068609 
L 124.609587 213.350561 
L 126.196364 212.432319 
L 126.513719 212.366182 
L 127.14843 212.089672 
L 127.465785 211.627436 
L 128.417851 211.358246 
L 129.687273 210.932013 
L 131.27405 210.414018 
L 131.90876 210.068149 
L 137.303802 208.299503 
L 137.621157 208.101638 
L 138.573223 207.824397 
L 139.525289 207.433378 
L 140.477355 207.061285 
L 141.429421 206.692345 
L 142.064132 206.284946 
L 142.698843 206.106841 
L 143.016198 205.968523 
L 143.333554 205.682653 
L 145.237686 204.94537 
L 145.555041 204.905088 
L 146.189752 204.587481 
L 146.507107 204.576293 
L 147.141818 204.375783 
L 148.41124 203.927607 
L 149.998017 203.504656 
L 150.632727 203.327713 
L 152.854215 202.568655 
L 155.710413 201.749367 
L 156.345124 201.536183 
L 161.740165 199.966396 
L 162.374876 199.728811 
L 164.279008 199.124675 
L 165.231074 198.824439 
L 167.769917 197.981368 
L 169.039339 197.596635 
L 170.30876 197.113327 
L 171.260826 196.855072 
L 173.799669 196.206529 
L 175.386446 195.845781 
L 176.338512 195.57225 
L 177.607934 195.249151 
L 179.512066 194.755956 
L 181.416198 194.254097 
L 182.68562 193.963315 
L 190.93686 191.675528 
L 194.427769 190.47913 
L 195.69719 190.124009 
L 196.966612 189.733521 
L 198.553388 189.300922 
L 209.343471 186.461476 
L 211.247603 185.806037 
L 212.83438 185.398621 
L 214.103802 184.990116 
L 215.055868 184.761707 
L 215.690579 184.589052 
L 217.594711 184.134958 
L 228.067438 181.549453 
L 228.702149 181.412854 
L 229.97157 181.131626 
L 231.558347 180.827362 
L 234.09719 180.059986 
L 235.049256 179.842334 
L 236.001322 179.619417 
L 236.636033 179.481309 
L 241.713719 178.287903 
L 242.34843 178.027507 
L 244.887273 177.327942 
L 245.839339 177.092763 
L 249.964959 176.019073 
L 250.599669 175.890411 
L 252.186446 175.494026 
L 254.090579 175.033826 
L 254.725289 174.86295 
L 255.36 174.686815 
L 256.629421 174.349237 
L 274.083967 169.813201 
L 274.718678 169.608324 
L 275.988099 169.308436 
L 276.940165 169.120032 
L 278.844298 168.568319 
L 281.38314 168.063549 
L 282.335207 167.709664 
L 284.239339 167.337325 
L 284.87405 167.166892 
L 285.50876 167.023561 
L 287.730248 166.424609 
L 289.951736 165.817117 
L 290.586446 165.690717 
L 295.664132 164.169472 
L 296.298843 163.880894 
L 297.568264 163.610493 
L 299.789752 163.027311 
L 300.741818 162.819994 
L 302.01124 162.43767 
L 302.64595 162.270387 
L 303.915372 161.70932 
L 305.502149 161.287068 
L 308.040992 160.374908 
L 310.579835 159.622497 
L 311.849256 159.112673 
L 314.070744 158.371905 
L 317.879008 157.10651 
L 319.14843 156.465012 
L 319.78314 156.29928 
L 325.812893 154.486138 
L 326.130248 154.227453 
L 326.447603 154.165234 
L 326.764959 153.97069 
L 327.399669 153.837489 
L 328.03438 153.539165 
L 328.351736 153.427059 
L 328.669091 153.155432 
L 328.986446 153.098864 
L 329.303802 152.862053 
L 330.573223 152.459508 
L 331.525289 152.066573 
L 331.842645 152.020455 
L 333.112066 151.475262 
L 338.507107 149.621024 
L 339.141818 149.389073 
L 339.776529 149.232095 
L 341.04595 148.502702 
L 341.680661 148.230246 
L 342.950083 147.729124 
L 343.267438 147.681379 
L 343.902149 147.400494 
L 344.53686 147.231394 
L 345.488926 146.760594 
L 346.758347 146.11151 
L 347.393058 145.772443 
L 348.027769 145.554 
L 349.931901 144.706638 
L 350.249256 144.393076 
L 351.201322 144.12234 
L 351.518678 144.012415 
L 351.836033 143.727911 
L 353.105455 143.124386 
L 353.42281 142.919386 
L 353.740165 142.479833 
L 354.374876 142.340121 
L 354.692231 142.109129 
L 355.009587 142.089409 
L 355.644298 141.711362 
L 355.961653 141.357408 
L 360.721983 138.926392 
L 361.356694 138.567024 
L 363.578182 137.547617 
L 363.895537 137.283426 
L 364.530248 136.969065 
L 368.021157 134.997996 
L 368.338512 134.920612 
L 368.655868 134.632127 
L 369.290579 134.37901 
L 369.607934 134.095039 
L 370.877355 133.515423 
L 371.829421 132.739281 
L 373.098843 132.067347 
L 373.416198 131.65655 
L 373.733554 131.56628 
L 375.320331 130.079938 
L 375.637686 129.3278 
L 375.955041 128.880803 
L 376.272397 128.784525 
L 377.224463 127.946315 
L 377.859174 127.256166 
L 378.176529 126.615829 
L 378.81124 126.150304 
L 379.128595 125.511898 
L 379.763306 125.185685 
L 380.398017 124.38637 
L 381.350083 123.572626 
L 381.984793 122.593034 
L 382.302149 122.333431 
L 382.619504 122.279233 
L 383.57157 121.553617 
L 384.523636 119.872135 
L 384.840992 119.763535 
L 385.158347 119.200933 
L 385.475702 119.023953 
L 385.793058 118.628988 
L 386.110413 118.033757 
L 386.745124 117.607925 
L 387.379835 116.77267 
L 388.014545 116.25261 
L 388.331901 115.890331 
L 388.966612 114.694416 
L 389.283967 114.449314 
L 389.918678 113.576714 
L 390.236033 112.420224 
L 390.870744 111.103918 
L 391.505455 108.91156 
L 392.140165 108.525093 
L 392.774876 107.131427 
L 393.092231 105.949699 
L 393.726942 105.271289 
L 394.679008 102.242248 
L 394.996364 101.902942 
L 395.313719 100.687637 
L 395.94843 99.406373 
L 396.265785 97.389893 
L 396.900496 91.670288 
L 397.217851 90.123284 
L 397.535207 83.154164 
L 397.852562 82.643672 
L 398.487273 66.535086 
L 398.487273 66.535086 
" clip-path="url(#pf71432fa32)" style="fill: none; stroke: #1f77b4; stroke-width: 1.5; stroke-linecap: square"/>
   </g>
   <g id="line2d_14">
    <path d="M 73.832727 275.69273 
L 74.150083 262.732947 
L 74.467438 262.732947 
L 74.784793 251.654973 
L 75.102149 249.35392 
L 75.73686 249.35392 
L 76.054215 245.208989 
L 76.37157 238.21177 
L 76.688926 237.78247 
L 77.006281 237.78247 
L 77.323636 236.699773 
L 78.910413 236.699773 
L 79.227769 232.75223 
L 79.545124 232.75223 
L 79.862479 231.323233 
L 80.179835 230.440377 
L 80.49719 230.440377 
L 80.814545 226.075251 
L 81.131901 224.02055 
L 82.083967 223.985221 
L 82.401322 222.769158 
L 86.844298 222.700114 
L 87.161653 222.034262 
L 87.479008 218.871171 
L 87.796364 218.171928 
L 88.113719 217.076901 
L 89.700496 217.076901 
L 90.017851 215.67778 
L 90.652562 215.67778 
L 90.969917 214.052492 
L 91.287273 214.052492 
L 91.604628 213.205845 
L 91.921983 211.028137 
L 99.221157 211.028137 
L 99.538512 209.730515 
L 99.855868 209.730515 
L 100.173223 209.423572 
L 101.76 209.423572 
L 102.077355 208.078551 
L 103.664132 208.078551 
L 103.981488 207.775164 
L 104.298843 207.250721 
L 104.933554 207.250721 
L 105.250909 205.406207 
L 106.202975 205.313247 
L 106.520331 201.150481 
L 107.155041 200.73917 
L 107.472397 200.73917 
L 107.789752 199.780605 
L 109.376529 199.780605 
L 109.693884 197.67687 
L 110.01124 197.67687 
L 110.328595 195.352904 
L 129.369917 195.352808 
L 129.687273 194.032177 
L 130.321983 192.790112 
L 131.27405 192.710922 
L 131.591405 191.630586 
L 131.90876 191.630586 
L 132.226116 191.383765 
L 132.860826 191.383765 
L 133.178182 189.304044 
L 133.495537 189.304044 
L 133.812893 188.868552 
L 135.399669 188.868552 
L 135.717025 187.095006 
L 136.03438 186.855853 
L 136.351736 186.455419 
L 136.986446 186.354458 
L 163.009587 186.354458 
L 163.326942 184.513744 
L 167.135207 184.513744 
L 167.452562 184.177345 
L 167.769917 184.177345 
L 168.087273 181.899223 
L 168.404628 181.899223 
L 168.721983 181.29115 
L 169.356694 181.29115 
L 169.67405 180.898751 
L 169.991405 179.958886 
L 171.578182 179.958886 
L 172.212893 179.296213 
L 172.530248 179.296213 
L 172.847603 179.015077 
L 180.146777 179.015077 
L 180.464132 178.53117 
L 180.781488 178.53117 
L 181.098843 178.056512 
L 182.68562 178.056512 
L 183.320331 173.628715 
L 185.541818 173.589328 
L 185.859174 173.332073 
L 186.493884 173.332073 
L 186.81124 172.943495 
L 187.128595 171.969746 
L 187.44595 171.969746 
L 187.763306 171.310236 
L 188.080661 171.310236 
L 188.398017 168.556955 
L 188.715372 164.630365 
L 283.604628 164.630365 
L 284.239339 157.950494 
L 284.556694 157.950494 
L 284.87405 157.290984 
L 285.191405 157.290984 
L 285.50876 156.317235 
L 285.826116 155.928657 
L 286.460826 155.928657 
L 286.778182 155.671402 
L 288.999669 155.632015 
L 289.63438 151.204218 
L 291.221157 151.204218 
L 291.538512 150.72956 
L 291.855868 150.72956 
L 292.173223 150.245653 
L 299.472397 150.245653 
L 299.789752 149.964517 
L 300.107107 149.964517 
L 300.741818 149.301845 
L 302.328595 149.301845 
L 302.64595 148.361979 
L 302.963306 147.96958 
L 303.598017 147.96958 
L 303.915372 147.361507 
L 304.232727 147.361507 
L 304.550083 145.083385 
L 304.867438 145.083385 
L 305.184793 144.746986 
L 308.993058 144.746986 
L 309.310413 142.906272 
L 335.968264 142.805311 
L 336.602975 142.165724 
L 336.920331 140.392178 
L 338.507107 140.392178 
L 338.824463 139.956686 
L 339.141818 139.956686 
L 339.459174 137.876965 
L 340.093884 137.876965 
L 340.41124 137.630144 
L 340.728595 137.630144 
L 341.04595 136.549808 
L 341.680661 136.470618 
L 341.998017 136.470618 
L 342.315372 135.98988 
L 342.632727 135.228553 
L 342.950083 133.907922 
L 361.991405 133.907826 
L 362.30876 131.58386 
L 362.626116 131.58386 
L 362.943471 129.480125 
L 364.530248 129.480125 
L 364.847603 128.52156 
L 365.164959 128.52156 
L 365.799669 128.110249 
L 366.117025 123.947483 
L 367.069091 123.854523 
L 367.386446 122.010009 
L 368.021157 122.010009 
L 368.338512 121.485566 
L 368.655868 121.182179 
L 370.242645 121.182179 
L 370.56 119.837158 
L 372.146777 119.837158 
L 372.464132 119.530215 
L 372.781488 119.530215 
L 373.098843 118.232593 
L 380.398017 118.232593 
L 380.715372 116.054885 
L 381.032727 115.208238 
L 381.350083 115.208238 
L 381.667438 113.58295 
L 382.302149 113.58295 
L 382.619504 112.183829 
L 384.206281 112.183829 
L 384.840992 110.389559 
L 385.158347 107.226468 
L 385.475702 106.560616 
L 389.918678 106.491572 
L 390.236033 105.275509 
L 391.188099 105.24018 
L 391.505455 103.185479 
L 391.82281 98.820353 
L 392.140165 98.820353 
L 392.457521 97.937497 
L 392.774876 96.5085 
L 393.092231 96.5085 
L 393.409587 92.560958 
L 394.996364 92.560958 
L 395.313719 91.47826 
L 395.631074 91.47826 
L 395.94843 91.04896 
L 396.265785 84.051741 
L 396.58314 79.90681 
L 397.217851 79.90681 
L 397.535207 77.605757 
L 397.852562 66.527783 
L 398.169917 66.527783 
L 398.487273 53.568 
L 398.487273 53.568 
" clip-path="url(#pf71432fa32)" style="fill: none; stroke: #ff7f0e; stroke-width: 1.5; stroke-linecap: square"/>
   </g>
   <g id="patch_3">
    <path d="M 57.6 307.584 
L 57.6 41.472 
" style="fill: none; stroke: #000000; stroke-width: 0.8; stroke-linejoin: miter; stroke-linecap: square"/>
   </g>
   <g id="patch_4">
    <path d="M 414.72 307.584 
L 414.72 41.472 
" style="fill: none; stroke: #000000; stroke-width: 0.8; stroke-linejoin: miter; stroke-linecap: square"/>
   </g>
   <g id="patch_5">
    <path d="M 57.6 307.584 
L 414.72 307.584 
" style="fill: none; stroke: #000000; stroke-width: 0.8; stroke-linejoin: miter; stroke-linecap: square"/>
   </g>
   <g id="patch_6">
    <path d="M 57.6 41.472 
L 414.72 41.472 
" style="fill: none; stroke: #000000; stroke-width: 0.8; stroke-linejoin: miter; stroke-linecap: square"/>
   </g>
   <g id="legend_1">
    <g id="patch_7">
     <path d="M 64.6 78.82825 
L 129.342187 78.82825 
Q 131.342187 78.82825 131.342187 76.82825 
L 131.342187 48.472 
Q 131.342187 46.472 129.342187 46.472 
L 64.6 46.472 
Q 62.6 46.472 62.6 48.472 
L 62.6 76.82825 
Q 62.6 78.82825 64.6 78.82825 
z
" style="fill: #ffffff; opacity: 0.8; stroke: #cccccc; stroke-linejoin: miter"/>
    </g>
    <g id="line2d_15">
     <path d="M 66.6 54.570437 
L 76.6 54.570437 
L 86.6 54.570437 
" style="fill: none; stroke: #1f77b4; stroke-width: 1.5; stroke-linecap: square"/>
    </g>
    <g id="text_15">
     <!-- qc -->
     <g transform="translate(94.6 58.070437) scale(0.1 -0.1)">
      <defs>
       <path id="DejaVuSans-71" d="M 947 1747 
Q 947 1113 1208 752 
Q 1469 391 1925 391 
Q 2381 391 2643 752 
Q 2906 1113 2906 1747 
Q 2906 2381 2643 2742 
Q 2381 3103 1925 3103 
Q 1469 3103 1208 2742 
Q 947 2381 947 1747 
z
M 2906 525 
Q 2725 213 2448 61 
Q 2172 -91 1784 -91 
Q 1150 -91 751 415 
Q 353 922 353 1747 
Q 353 2572 751 3078 
Q 1150 3584 1784 3584 
Q 2172 3584 2448 3432 
Q 2725 3281 2906 2969 
L 2906 3500 
L 3481 3500 
L 3481 -1331 
L 2906 -1331 
L 2906 525 
z
" transform="scale(0.015625)"/>
       <path id="DejaVuSans-63" d="M 3122 3366 
L 3122 2828 
Q 2878 2963 2633 3030 
Q 2388 3097 2138 3097 
Q 1578 3097 1268 2742 
Q 959 2388 959 1747 
Q 959 1106 1268 751 
Q 1578 397 2138 397 
Q 2388 397 2633 464 
Q 2878 531 3122 666 
L 3122 134 
Q 2881 22 2623 -34 
Q 2366 -91 2075 -91 
Q 1284 -91 818 406 
Q 353 903 353 1747 
Q 353 2603 823 3093 
Q 1294 3584 2113 3584 
Q 2378 3584 2631 3529 
Q 2884 3475 3122 3366 
z
" transform="scale(0.015625)"/>
      </defs>
      <use xlink:href="#DejaVuSans-71"/>
      <use xlink:href="#DejaVuSans-63" x="63.476562"/>
     </g>
    </g>
    <g id="line2d_16">
     <path d="M 66.6 69.248562 
L 76.6 69.248562 
L 86.6 69.248562 
" style="fill: none; stroke: #ff7f0e; stroke-width: 1.5; stroke-linecap: square"/>
    </g>
    <g id="text_16">
     <!-- Trotter -->
     <g transform="translate(94.6 72.748562) scale(0.1 -0.1)">
      <defs>
       <path id="DejaVuSans-54" d="M -19 4666 
L 3928 4666 
L 3928 4134 
L 2272 4134 
L 2272 0 
L 1638 0 
L 1638 4134 
L -19 4134 
L -19 4666 
z
" transform="scale(0.015625)"/>
       <path id="DejaVuSans-72" d="M 2631 2963 
Q 2534 3019 2420 3045 
Q 2306 3072 2169 3072 
Q 1681 3072 1420 2755 
Q 1159 2438 1159 1844 
L 1159 0 
L 581 0 
L 581 3500 
L 1159 3500 
L 1159 2956 
Q 1341 3275 1631 3429 
Q 1922 3584 2338 3584 
Q 2397 3584 2469 3576 
Q 2541 3569 2628 3553 
L 2631 2963 
z
" transform="scale(0.015625)"/>
       <path id="DejaVuSans-6f" d="M 1959 3097 
Q 1497 3097 1228 2736 
Q 959 2375 959 1747 
Q 959 1119 1226 758 
Q 1494 397 1959 397 
Q 2419 397 2687 759 
Q 2956 1122 2956 1747 
Q 2956 2369 2687 2733 
Q 2419 3097 1959 3097 
z
M 1959 3584 
Q 2709 3584 3137 3096 
Q 3566 2609 3566 1747 
Q 3566 888 3137 398 
Q 2709 -91 1959 -91 
Q 1206 -91 779 398 
Q 353 888 353 1747 
Q 353 2609 779 3096 
Q 1206 3584 1959 3584 
z
" transform="scale(0.015625)"/>
       <path id="DejaVuSans-65" d="M 3597 1894 
L 3597 1613 
L 953 1613 
Q 991 1019 1311 708 
Q 1631 397 2203 397 
Q 2534 397 2845 478 
Q 3156 559 3463 722 
L 3463 178 
Q 3153 47 2828 -22 
Q 2503 -91 2169 -91 
Q 1331 -91 842 396 
Q 353 884 353 1716 
Q 353 2575 817 3079 
Q 1281 3584 2069 3584 
Q 2775 3584 3186 3129 
Q 3597 2675 3597 1894 
z
M 3022 2063 
Q 3016 2534 2758 2815 
Q 2500 3097 2075 3097 
Q 1594 3097 1305 2825 
Q 1016 2553 972 2059 
L 3022 2063 
z
" transform="scale(0.015625)"/>
      </defs>
      <use xlink:href="#DejaVuSans-54"/>
      <use xlink:href="#DejaVuSans-72" x="46.333984"/>
      <use xlink:href="#DejaVuSans-6f" x="85.197266"/>
      <use xlink:href="#DejaVuSans-74" x="146.378906"/>
      <use xlink:href="#DejaVuSans-74" x="185.587891"/>
      <use xlink:href="#DejaVuSans-65" x="224.796875"/>
      <use xlink:href="#DejaVuSans-72" x="286.320312"/>
     </g>
    </g>
   </g>
  </g>
 </g>
 <defs>
  <clipPath id="pf71432fa32">
   <rect x="57.6" y="41.472" width="357.12" height="266.112"/>
  </clipPath>
 </defs>
</svg>
