<?xml version="1.0" encoding="utf-8" standalone="no"?>
<!DOCTYPE svg PUBLIC "-//W3C//DTD SVG 1.1//EN"
  "http://www.w3.org/Graphics/SVG/1.1/DTD/svg11.dtd">
<svg xmlns:xlink="http://www.w3.org/1999/xlink" width="460.8pt" height="345.6pt" viewBox="0 0 460.8 345.6" xmlns="http://www.w3.org/2000/svg" version="1.1">
 <metadata>
  <rdf:RDF xmlns:dc="http://purl.org/dc/elements/1.1/" xmlns:cc="http://creativecommons.org/ns#" xmlns:rdf="http://www.w3.org/1999/02/22-rdf-syntax-ns#">
   <cc:Work>
    <dc:type rdf:resource="http://purl.org/dc/dcmitype/StillImage"/>
    <dc:date>2024-07-12T15:24:30.313855</dc:date>
    <dc:format>image/svg+xml</dc:format>
    <dc:creator>
     <cc:Agent>
      <dc:title>Matplotlib v3.7.1, https://matplotlib.org/</dc:title>
     </cc:Agent>
    </dc:creator>
   </cc:Work>
  </rdf:RDF>
 </metadata>
 <defs>
  <style type="text/css">*{stroke-linejoin: round; stroke-linecap: butt}</style>
 </defs>
 <g id="figure_1">
  <g id="patch_1">
   <path d="M 0 345.6 
L 460.8 345.6 
L 460.8 0 
L 0 0 
z
" style="fill: #ffffff"/>
  </g>
  <g id="axes_1">
   <g id="patch_2">
    <path d="M 57.6 307.584 
L 414.72 307.584 
L 414.72 41.472 
L 57.6 41.472 
z
" style="fill: #ffffff"/>
   </g>
   <g id="matplotlib.axis_1">
    <g id="xtick_1">
     <g id="line2d_1">
      <defs>
       <path id="m7d11f14e2e" d="M 0 0 
L 0 3.5 
" style="stroke: #000000; stroke-width: 0.8"/>
      </defs>
      <g>
       <use xlink:href="#m7d11f14e2e" x="73.832727" y="307.584" style="stroke: #000000; stroke-width: 0.8"/>
      </g>
     </g>
     <g id="text_1">
      <!-- 0 -->
      <g transform="translate(70.651477 322.182437) scale(0.1 -0.1)">
       <defs>
        <path id="DejaVuSans-30" d="M 2034 4250 
Q 1547 4250 1301 3770 
Q 1056 3291 1056 2328 
Q 1056 1369 1301 889 
Q 1547 409 2034 409 
Q 2525 409 2770 889 
Q 3016 1369 3016 2328 
Q 3016 3291 2770 3770 
Q 2525 4250 2034 4250 
z
M 2034 4750 
Q 2819 4750 3233 4129 
Q 3647 3509 3647 2328 
Q 3647 1150 3233 529 
Q 2819 -91 2034 -91 
Q 1250 -91 836 529 
Q 422 1150 422 2328 
Q 422 3509 836 4129 
Q 1250 4750 2034 4750 
z
" transform="scale(0.015625)"/>
       </defs>
       <use xlink:href="#DejaVuSans-30"/>
      </g>
     </g>
    </g>
    <g id="xtick_2">
     <g id="line2d_2">
      <g>
       <use xlink:href="#m7d11f14e2e" x="137.303802" y="307.584" style="stroke: #000000; stroke-width: 0.8"/>
      </g>
     </g>
     <g id="text_2">
      <!-- 200 -->
      <g transform="translate(127.760052 322.182437) scale(0.1 -0.1)">
       <defs>
        <path id="DejaVuSans-32" d="M 1228 531 
L 3431 531 
L 3431 0 
L 469 0 
L 469 531 
Q 828 903 1448 1529 
Q 2069 2156 2228 2338 
Q 2531 2678 2651 2914 
Q 2772 3150 2772 3378 
Q 2772 3750 2511 3984 
Q 2250 4219 1831 4219 
Q 1534 4219 1204 4116 
Q 875 4013 500 3803 
L 500 4441 
Q 881 4594 1212 4672 
Q 1544 4750 1819 4750 
Q 2544 4750 2975 4387 
Q 3406 4025 3406 3419 
Q 3406 3131 3298 2873 
Q 3191 2616 2906 2266 
Q 2828 2175 2409 1742 
Q 1991 1309 1228 531 
z
" transform="scale(0.015625)"/>
       </defs>
       <use xlink:href="#DejaVuSans-32"/>
       <use xlink:href="#DejaVuSans-30" x="63.623047"/>
       <use xlink:href="#DejaVuSans-30" x="127.246094"/>
      </g>
     </g>
    </g>
    <g id="xtick_3">
     <g id="line2d_3">
      <g>
       <use xlink:href="#m7d11f14e2e" x="200.774876" y="307.584" style="stroke: #000000; stroke-width: 0.8"/>
      </g>
     </g>
     <g id="text_3">
      <!-- 400 -->
      <g transform="translate(191.231126 322.182437) scale(0.1 -0.1)">
       <defs>
        <path id="DejaVuSans-34" d="M 2419 4116 
L 825 1625 
L 2419 1625 
L 2419 4116 
z
M 2253 4666 
L 3047 4666 
L 3047 1625 
L 3713 1625 
L 3713 1100 
L 3047 1100 
L 3047 0 
L 2419 0 
L 2419 1100 
L 313 1100 
L 313 1709 
L 2253 4666 
z
" transform="scale(0.015625)"/>
       </defs>
       <use xlink:href="#DejaVuSans-34"/>
       <use xlink:href="#DejaVuSans-30" x="63.623047"/>
       <use xlink:href="#DejaVuSans-30" x="127.246094"/>
      </g>
     </g>
    </g>
    <g id="xtick_4">
     <g id="line2d_4">
      <g>
       <use xlink:href="#m7d11f14e2e" x="264.24595" y="307.584" style="stroke: #000000; stroke-width: 0.8"/>
      </g>
     </g>
     <g id="text_4">
      <!-- 600 -->
      <g transform="translate(254.7022 322.182437) scale(0.1 -0.1)">
       <defs>
        <path id="DejaVuSans-36" d="M 2113 2584 
Q 1688 2584 1439 2293 
Q 1191 2003 1191 1497 
Q 1191 994 1439 701 
Q 1688 409 2113 409 
Q 2538 409 2786 701 
Q 3034 994 3034 1497 
Q 3034 2003 2786 2293 
Q 2538 2584 2113 2584 
z
M 3366 4563 
L 3366 3988 
Q 3128 4100 2886 4159 
Q 2644 4219 2406 4219 
Q 1781 4219 1451 3797 
Q 1122 3375 1075 2522 
Q 1259 2794 1537 2939 
Q 1816 3084 2150 3084 
Q 2853 3084 3261 2657 
Q 3669 2231 3669 1497 
Q 3669 778 3244 343 
Q 2819 -91 2113 -91 
Q 1303 -91 875 529 
Q 447 1150 447 2328 
Q 447 3434 972 4092 
Q 1497 4750 2381 4750 
Q 2619 4750 2861 4703 
Q 3103 4656 3366 4563 
z
" transform="scale(0.015625)"/>
       </defs>
       <use xlink:href="#DejaVuSans-36"/>
       <use xlink:href="#DejaVuSans-30" x="63.623047"/>
       <use xlink:href="#DejaVuSans-30" x="127.246094"/>
      </g>
     </g>
    </g>
    <g id="xtick_5">
     <g id="line2d_5">
      <g>
       <use xlink:href="#m7d11f14e2e" x="327.717025" y="307.584" style="stroke: #000000; stroke-width: 0.8"/>
      </g>
     </g>
     <g id="text_5">
      <!-- 800 -->
      <g transform="translate(318.173275 322.182437) scale(0.1 -0.1)">
       <defs>
        <path id="DejaVuSans-38" d="M 2034 2216 
Q 1584 2216 1326 1975 
Q 1069 1734 1069 1313 
Q 1069 891 1326 650 
Q 1584 409 2034 409 
Q 2484 409 2743 651 
Q 3003 894 3003 1313 
Q 3003 1734 2745 1975 
Q 2488 2216 2034 2216 
z
M 1403 2484 
Q 997 2584 770 2862 
Q 544 3141 544 3541 
Q 544 4100 942 4425 
Q 1341 4750 2034 4750 
Q 2731 4750 3128 4425 
Q 3525 4100 3525 3541 
Q 3525 3141 3298 2862 
Q 3072 2584 2669 2484 
Q 3125 2378 3379 2068 
Q 3634 1759 3634 1313 
Q 3634 634 3220 271 
Q 2806 -91 2034 -91 
Q 1263 -91 848 271 
Q 434 634 434 1313 
Q 434 1759 690 2068 
Q 947 2378 1403 2484 
z
M 1172 3481 
Q 1172 3119 1398 2916 
Q 1625 2713 2034 2713 
Q 2441 2713 2670 2916 
Q 2900 3119 2900 3481 
Q 2900 3844 2670 4047 
Q 2441 4250 2034 4250 
Q 1625 4250 1398 4047 
Q 1172 3844 1172 3481 
z
" transform="scale(0.015625)"/>
       </defs>
       <use xlink:href="#DejaVuSans-38"/>
       <use xlink:href="#DejaVuSans-30" x="63.623047"/>
       <use xlink:href="#DejaVuSans-30" x="127.246094"/>
      </g>
     </g>
    </g>
    <g id="xtick_6">
     <g id="line2d_6">
      <g>
       <use xlink:href="#m7d11f14e2e" x="391.188099" y="307.584" style="stroke: #000000; stroke-width: 0.8"/>
      </g>
     </g>
     <g id="text_6">
      <!-- 1000 -->
      <g transform="translate(378.463099 322.182437) scale(0.1 -0.1)">
       <defs>
        <path id="DejaVuSans-31" d="M 794 531 
L 1825 531 
L 1825 4091 
L 703 3866 
L 703 4441 
L 1819 4666 
L 2450 4666 
L 2450 531 
L 3481 531 
L 3481 0 
L 794 0 
L 794 531 
z
" transform="scale(0.015625)"/>
       </defs>
       <use xlink:href="#DejaVuSans-31"/>
       <use xlink:href="#DejaVuSans-30" x="63.623047"/>
       <use xlink:href="#DejaVuSans-30" x="127.246094"/>
       <use xlink:href="#DejaVuSans-30" x="190.869141"/>
      </g>
     </g>
    </g>
    <g id="text_7">
     <!-- n -->
     <g transform="translate(232.99125 335.860562) scale(0.1 -0.1)">
      <defs>
       <path id="DejaVuSans-6e" d="M 3513 2113 
L 3513 0 
L 2938 0 
L 2938 2094 
Q 2938 2591 2744 2837 
Q 2550 3084 2163 3084 
Q 1697 3084 1428 2787 
Q 1159 2491 1159 1978 
L 1159 0 
L 581 0 
L 581 3500 
L 1159 3500 
L 1159 2956 
Q 1366 3272 1645 3428 
Q 1925 3584 2291 3584 
Q 2894 3584 3203 3211 
Q 3513 2838 3513 2113 
z
" transform="scale(0.015625)"/>
      </defs>
      <use xlink:href="#DejaVuSans-6e"/>
     </g>
    </g>
   </g>
   <g id="matplotlib.axis_2">
    <g id="ytick_1">
     <g id="line2d_7">
      <defs>
       <path id="mbde008402c" d="M 0 0 
L -3.5 0 
" style="stroke: #000000; stroke-width: 0.8"/>
      </defs>
      <g>
       <use xlink:href="#mbde008402c" x="57.6" y="299.521219" style="stroke: #000000; stroke-width: 0.8"/>
      </g>
     </g>
     <g id="text_8">
      <!-- −0.3 -->
      <g transform="translate(26.317187 303.320438) scale(0.1 -0.1)">
       <defs>
        <path id="DejaVuSans-2212" d="M 678 2272 
L 4684 2272 
L 4684 1741 
L 678 1741 
L 678 2272 
z
" transform="scale(0.015625)"/>
        <path id="DejaVuSans-2e" d="M 684 794 
L 1344 794 
L 1344 0 
L 684 0 
L 684 794 
z
" transform="scale(0.015625)"/>
        <path id="DejaVuSans-33" d="M 2597 2516 
Q 3050 2419 3304 2112 
Q 3559 1806 3559 1356 
Q 3559 666 3084 287 
Q 2609 -91 1734 -91 
Q 1441 -91 1130 -33 
Q 819 25 488 141 
L 488 750 
Q 750 597 1062 519 
Q 1375 441 1716 441 
Q 2309 441 2620 675 
Q 2931 909 2931 1356 
Q 2931 1769 2642 2001 
Q 2353 2234 1838 2234 
L 1294 2234 
L 1294 2753 
L 1863 2753 
Q 2328 2753 2575 2939 
Q 2822 3125 2822 3475 
Q 2822 3834 2567 4026 
Q 2313 4219 1838 4219 
Q 1578 4219 1281 4162 
Q 984 4106 628 3988 
L 628 4550 
Q 988 4650 1302 4700 
Q 1616 4750 1894 4750 
Q 2613 4750 3031 4423 
Q 3450 4097 3450 3541 
Q 3450 3153 3228 2886 
Q 3006 2619 2597 2516 
z
" transform="scale(0.015625)"/>
       </defs>
       <use xlink:href="#DejaVuSans-2212"/>
       <use xlink:href="#DejaVuSans-30" x="83.789062"/>
       <use xlink:href="#DejaVuSans-2e" x="147.412109"/>
       <use xlink:href="#DejaVuSans-33" x="179.199219"/>
      </g>
     </g>
    </g>
    <g id="ytick_2">
     <g id="line2d_8">
      <g>
       <use xlink:href="#mbde008402c" x="57.6" y="257.951631" style="stroke: #000000; stroke-width: 0.8"/>
      </g>
     </g>
     <g id="text_9">
      <!-- −0.2 -->
      <g transform="translate(26.317187 261.750849) scale(0.1 -0.1)">
       <use xlink:href="#DejaVuSans-2212"/>
       <use xlink:href="#DejaVuSans-30" x="83.789062"/>
       <use xlink:href="#DejaVuSans-2e" x="147.412109"/>
       <use xlink:href="#DejaVuSans-32" x="179.199219"/>
      </g>
     </g>
    </g>
    <g id="ytick_3">
     <g id="line2d_9">
      <g>
       <use xlink:href="#mbde008402c" x="57.6" y="216.382043" style="stroke: #000000; stroke-width: 0.8"/>
      </g>
     </g>
     <g id="text_10">
      <!-- −0.1 -->
      <g transform="translate(26.317187 220.181261) scale(0.1 -0.1)">
       <use xlink:href="#DejaVuSans-2212"/>
       <use xlink:href="#DejaVuSans-30" x="83.789062"/>
       <use xlink:href="#DejaVuSans-2e" x="147.412109"/>
       <use xlink:href="#DejaVuSans-31" x="179.199219"/>
      </g>
     </g>
    </g>
    <g id="ytick_4">
     <g id="line2d_10">
      <g>
       <use xlink:href="#mbde008402c" x="57.6" y="174.812454" style="stroke: #000000; stroke-width: 0.8"/>
      </g>
     </g>
     <g id="text_11">
      <!-- 0.0 -->
      <g transform="translate(34.696875 178.611673) scale(0.1 -0.1)">
       <use xlink:href="#DejaVuSans-30"/>
       <use xlink:href="#DejaVuSans-2e" x="63.623047"/>
       <use xlink:href="#DejaVuSans-30" x="95.410156"/>
      </g>
     </g>
    </g>
    <g id="ytick_5">
     <g id="line2d_11">
      <g>
       <use xlink:href="#mbde008402c" x="57.6" y="133.242866" style="stroke: #000000; stroke-width: 0.8"/>
      </g>
     </g>
     <g id="text_12">
      <!-- 0.1 -->
      <g transform="translate(34.696875 137.042085) scale(0.1 -0.1)">
       <use xlink:href="#DejaVuSans-30"/>
       <use xlink:href="#DejaVuSans-2e" x="63.623047"/>
       <use xlink:href="#DejaVuSans-31" x="95.410156"/>
      </g>
     </g>
    </g>
    <g id="ytick_6">
     <g id="line2d_12">
      <g>
       <use xlink:href="#mbde008402c" x="57.6" y="91.673278" style="stroke: #000000; stroke-width: 0.8"/>
      </g>
     </g>
     <g id="text_13">
      <!-- 0.2 -->
      <g transform="translate(34.696875 95.472497) scale(0.1 -0.1)">
       <use xlink:href="#DejaVuSans-30"/>
       <use xlink:href="#DejaVuSans-2e" x="63.623047"/>
       <use xlink:href="#DejaVuSans-32" x="95.410156"/>
      </g>
     </g>
    </g>
    <g id="ytick_7">
     <g id="line2d_13">
      <g>
       <use xlink:href="#mbde008402c" x="57.6" y="50.10369" style="stroke: #000000; stroke-width: 0.8"/>
      </g>
     </g>
     <g id="text_14">
      <!-- 0.3 -->
      <g transform="translate(34.696875 53.902909) scale(0.1 -0.1)">
       <use xlink:href="#DejaVuSans-30"/>
       <use xlink:href="#DejaVuSans-2e" x="63.623047"/>
       <use xlink:href="#DejaVuSans-33" x="95.410156"/>
      </g>
     </g>
    </g>
    <g id="text_15">
     <!-- E*t -->
     <g transform="translate(20.2375 182.147531) rotate(-90) scale(0.1 -0.1)">
      <defs>
       <path id="DejaVuSans-45" d="M 628 4666 
L 3578 4666 
L 3578 4134 
L 1259 4134 
L 1259 2753 
L 3481 2753 
L 3481 2222 
L 1259 2222 
L 1259 531 
L 3634 531 
L 3634 0 
L 628 0 
L 628 4666 
z
" transform="scale(0.015625)"/>
       <path id="DejaVuSans-2a" d="M 3009 3897 
L 1888 3291 
L 3009 2681 
L 2828 2375 
L 1778 3009 
L 1778 1831 
L 1422 1831 
L 1422 3009 
L 372 2375 
L 191 2681 
L 1313 3291 
L 191 3897 
L 372 4206 
L 1422 3572 
L 1422 4750 
L 1778 4750 
L 1778 3572 
L 2828 4206 
L 3009 3897 
z
" transform="scale(0.015625)"/>
       <path id="DejaVuSans-74" d="M 1172 4494 
L 1172 3500 
L 2356 3500 
L 2356 3053 
L 1172 3053 
L 1172 1153 
Q 1172 725 1289 603 
Q 1406 481 1766 481 
L 2356 481 
L 2356 0 
L 1766 0 
Q 1100 0 847 248 
Q 594 497 594 1153 
L 594 3053 
L 172 3053 
L 172 3500 
L 594 3500 
L 594 4494 
L 1172 4494 
z
" transform="scale(0.015625)"/>
      </defs>
      <use xlink:href="#DejaVuSans-45"/>
      <use xlink:href="#DejaVuSans-2a" x="63.183594"/>
      <use xlink:href="#DejaVuSans-74" x="113.183594"/>
     </g>
    </g>
   </g>
   <g id="line2d_14">
    <path d="M 73.832727 295.488 
L 74.467438 283.930843 
L 74.784793 282.306005 
L 75.102149 282.167846 
L 75.419504 281.770575 
L 75.73686 277.056879 
L 76.054215 276.389107 
L 76.37157 276.119585 
L 76.688926 275.343706 
L 77.006281 272.355858 
L 77.323636 271.889033 
L 77.640992 271.627597 
L 77.958347 270.649428 
L 78.275702 270.190777 
L 78.910413 268.698468 
L 79.227769 268.558541 
L 79.545124 268.0579 
L 79.862479 266.682743 
L 80.814545 264.728468 
L 81.131901 264.634647 
L 81.449256 263.51647 
L 81.766612 263.099179 
L 82.401322 262.697829 
L 82.718678 262.358494 
L 83.670744 260.634759 
L 83.988099 260.362722 
L 84.305455 259.417854 
L 84.62281 258.972272 
L 84.940165 258.29653 
L 87.796364 255.47996 
L 88.431074 254.93873 
L 89.065785 253.971417 
L 89.38314 253.826893 
L 90.335207 252.389506 
L 91.287273 251.642804 
L 91.604628 251.428908 
L 92.239339 250.751706 
L 92.556694 250.585834 
L 93.191405 249.827728 
L 94.460826 249.019084 
L 95.095537 248.066301 
L 95.412893 247.882328 
L 95.730248 247.557099 
L 97.317025 246.856445 
L 98.269091 246.01341 
L 98.586446 245.49283 
L 100.173223 244.124914 
L 100.807934 243.866429 
L 101.125289 243.56686 
L 101.442645 243.510421 
L 101.76 243.325392 
L 102.712066 242.170363 
L 104.298843 241.135276 
L 104.616198 240.958942 
L 104.933554 240.495459 
L 106.202975 239.983309 
L 106.520331 239.709234 
L 107.472397 239.332202 
L 107.789752 239.026003 
L 108.107107 238.916708 
L 108.741818 238.447223 
L 110.328595 237.395033 
L 110.64595 237.131635 
L 111.280661 236.912667 
L 111.915372 236.442459 
L 112.867438 235.832166 
L 113.184793 235.66824 
L 113.502149 235.371617 
L 113.819504 235.329487 
L 114.13686 235.012458 
L 114.454215 234.946146 
L 114.77157 234.688314 
L 115.406281 234.543863 
L 117.310413 233.541999 
L 117.627769 233.447655 
L 118.262479 233.082268 
L 119.214545 232.680489 
L 121.753388 231.045545 
L 122.388099 230.848203 
L 122.705455 230.544163 
L 123.340165 230.359449 
L 124.292231 229.76313 
L 134.130248 224.983141 
L 134.764959 224.815258 
L 135.399669 224.503341 
L 135.717025 224.284335 
L 136.986446 223.902677 
L 137.621157 223.426998 
L 138.255868 223.160502 
L 139.525289 222.684492 
L 140.16 222.340006 
L 140.794711 222.139564 
L 141.429421 221.762175 
L 143.968264 220.90334 
L 144.602975 220.532154 
L 145.555041 220.182571 
L 145.872397 219.917998 
L 146.507107 219.800597 
L 147.459174 219.42908 
L 149.363306 218.624912 
L 151.902149 217.487402 
L 152.854215 216.955991 
L 153.488926 216.740595 
L 154.440992 216.452126 
L 156.662479 215.3761 
L 157.614545 215.095253 
L 158.249256 214.764761 
L 165.54843 211.804388 
L 168.087273 210.850424 
L 168.721983 210.54346 
L 169.356694 210.357113 
L 170.30876 209.822484 
L 170.626116 209.78552 
L 171.895537 209.21474 
L 173.482314 208.722597 
L 174.117025 208.346333 
L 175.069091 208.050446 
L 176.021157 207.763411 
L 176.973223 207.347145 
L 177.290579 207.268845 
L 178.242645 206.80542 
L 179.194711 206.396328 
L 180.464132 206.007122 
L 181.098843 205.810977 
L 182.68562 205.212519 
L 183.002975 204.94143 
L 183.955041 204.671622 
L 184.589752 204.481466 
L 185.541818 204.217669 
L 186.176529 203.933438 
L 186.493884 203.874582 
L 188.398017 202.915379 
L 190.619504 202.243957 
L 191.254215 201.952617 
L 194.427769 200.801638 
L 196.014545 200.294253 
L 199.188099 199.255171 
L 199.505455 199.007049 
L 200.457521 198.764519 
L 204.58314 197.120467 
L 206.169917 196.590395 
L 206.487273 196.352573 
L 207.121983 196.195204 
L 208.70876 195.605711 
L 209.343471 195.414915 
L 209.660826 195.230184 
L 209.978182 195.194776 
L 210.295537 194.985146 
L 212.199669 194.447584 
L 213.151736 194.098137 
L 213.786446 193.817626 
L 216.642645 192.775621 
L 217.594711 192.501182 
L 218.229421 192.357746 
L 220.450909 191.656395 
L 220.768264 191.578068 
L 221.720331 191.059435 
L 222.672397 190.823353 
L 224.259174 190.097163 
L 224.576529 190.054873 
L 224.893884 189.809668 
L 227.432727 188.964786 
L 228.067438 188.665827 
L 231.558347 187.523036 
L 233.462479 186.75163 
L 233.779835 186.709474 
L 234.09719 186.479232 
L 234.731901 186.233785 
L 235.049256 186.105218 
L 235.366612 185.793244 
L 237.905455 184.941914 
L 238.857521 184.606339 
L 239.174876 184.547755 
L 239.809587 184.181465 
L 240.444298 184.135463 
L 241.079008 183.885828 
L 241.713719 183.700422 
L 242.031074 183.650006 
L 242.98314 183.245366 
L 243.300496 183.164779 
L 243.935207 182.846688 
L 245.839339 182.216449 
L 247.743471 181.566007 
L 249.012893 181.019992 
L 249.330248 180.970357 
L 250.282314 180.54915 
L 250.599669 180.45809 
L 250.917025 180.181937 
L 253.138512 179.469874 
L 253.455868 179.192841 
L 254.407934 178.835097 
L 255.042645 178.452277 
L 256.312066 178.132234 
L 261.072397 176.38661 
L 262.024463 176.103494 
L 267.419504 173.955456 
L 267.73686 173.758332 
L 268.054215 173.718931 
L 269.323636 173.043242 
L 277.574876 169.821189 
L 278.526942 169.371582 
L 279.479008 169.038173 
L 281.065785 168.231787 
L 282.017851 167.859716 
L 285.191405 166.486237 
L 285.826116 166.175901 
L 286.778182 165.861219 
L 287.412893 165.74462 
L 288.364959 165.389724 
L 288.682314 165.350203 
L 288.999669 165.176369 
L 289.63438 165.057319 
L 290.586446 164.669456 
L 292.173223 164.057483 
L 292.490579 163.80325 
L 293.125289 163.657967 
L 297.88562 161.545904 
L 298.202975 161.269231 
L 298.520331 161.166064 
L 299.155041 160.835245 
L 300.107107 160.488817 
L 301.376529 159.996511 
L 302.01124 159.81804 
L 303.598017 158.957376 
L 303.915372 158.59048 
L 305.502149 157.974351 
L 306.13686 157.601406 
L 306.77157 157.370383 
L 307.406281 156.913536 
L 308.993058 156.456602 
L 309.310413 156.119389 
L 315.657521 153.519243 
L 316.292231 153.208369 
L 316.609587 153.045703 
L 316.926942 152.731283 
L 317.561653 152.569543 
L 318.831074 151.921358 
L 319.465785 151.468075 
L 321.369917 150.521396 
L 321.687273 150.421962 
L 322.004628 150.184129 
L 322.956694 149.831416 
L 326.130248 148.082338 
L 328.986446 146.63494 
L 329.303802 146.195527 
L 331.842645 144.810992 
L 333.112066 144.373583 
L 333.429421 143.964093 
L 334.064132 143.7219 
L 335.968264 142.340301 
L 336.28562 142.008972 
L 336.920331 141.864959 
L 337.872397 141.347586 
L 338.189752 141.291774 
L 338.507107 141.105863 
L 338.824463 140.780334 
L 340.41124 140.032506 
L 341.363306 139.532069 
L 341.680661 139.403767 
L 342.315372 138.879291 
L 342.950083 138.556854 
L 343.267438 138.292811 
L 343.584793 138.225839 
L 344.219504 137.701272 
L 344.854215 137.442652 
L 345.17157 137.095095 
L 345.488926 137.014493 
L 345.806281 136.729223 
L 346.123636 136.685053 
L 346.440992 136.46961 
L 347.393058 135.476123 
L 348.979835 134.807909 
L 349.614545 134.183182 
L 349.931901 134.140196 
L 350.566612 133.621575 
L 351.836033 133.205194 
L 353.105455 132.271639 
L 354.057521 131.309647 
L 355.326942 130.763487 
L 356.913719 129.520723 
L 357.54843 129.259531 
L 357.865785 129.028642 
L 358.18314 129.019933 
L 358.500496 128.562417 
L 358.817851 128.37236 
L 359.135207 127.838499 
L 361.039339 126.13067 
L 361.356694 125.701944 
L 362.30876 125.424336 
L 362.943471 124.834267 
L 363.578182 124.659261 
L 364.212893 124.097762 
L 364.530248 123.956437 
L 365.164959 123.065717 
L 368.021157 121.037339 
L 368.338512 120.806874 
L 368.655868 120.251732 
L 368.973223 120.102756 
L 369.290579 119.649489 
L 369.607934 119.467144 
L 369.925289 119.093606 
L 370.242645 118.969656 
L 370.56 118.628682 
L 370.877355 118.505761 
L 371.194711 118.191879 
L 371.829421 117.973142 
L 372.146777 116.976037 
L 372.781488 116.806723 
L 373.416198 115.884399 
L 373.733554 115.469936 
L 374.368264 115.021426 
L 375.002975 113.533933 
L 375.637686 113.399031 
L 376.589752 112.65508 
L 376.907107 111.615037 
L 377.224463 111.516701 
L 377.541818 111.176608 
L 377.859174 111.052265 
L 378.176529 109.977276 
L 378.493884 109.770011 
L 378.81124 109.092473 
L 379.763306 108.504169 
L 380.398017 108.382513 
L 381.350083 106.978053 
L 381.984793 106.47792 
L 382.302149 105.812221 
L 382.93686 104.967979 
L 383.888926 103.290103 
L 384.206281 103.072113 
L 384.840992 101.493417 
L 385.158347 101.484328 
L 385.475702 99.693524 
L 385.793058 99.09637 
L 386.110413 98.855649 
L 386.427769 98.812931 
L 387.062479 97.430287 
L 387.379835 97.296186 
L 388.014545 96.020587 
L 388.331901 95.738548 
L 388.649256 94.951563 
L 388.966612 94.782584 
L 389.283967 94.445174 
L 389.601322 93.912023 
L 389.918678 93.870896 
L 390.236033 93.690142 
L 390.553388 92.920665 
L 391.505455 89.303763 
L 391.82281 88.976468 
L 392.140165 88.853129 
L 393.092231 85.343439 
L 393.409587 84.887913 
L 393.726942 83.771038 
L 394.044298 83.600004 
L 394.361653 83.266812 
L 394.679008 82.673433 
L 395.313719 78.669283 
L 395.631074 78.123493 
L 395.94843 74.915525 
L 396.265785 73.711836 
L 396.900496 69.687337 
L 397.217851 64.749906 
L 397.535207 63.763597 
L 397.852562 60.256899 
L 398.169917 58.506578 
L 398.487273 53.568 
L 398.487273 53.568 
" clip-path="url(#pb22a381dec)" style="fill: none; stroke: #1f77b4; stroke-width: 1.5; stroke-linecap: square"/>
   </g>
   <g id="line2d_15">
    <path d="M 73.832727 217.31657 
L 74.150083 212.356797 
L 74.467438 212.356797 
L 74.784793 208.117202 
L 75.102149 207.236577 
L 75.73686 207.236577 
L 76.054215 205.650292 
L 76.37157 202.972422 
L 76.688926 202.808126 
L 77.006281 202.808126 
L 77.323636 202.393773 
L 78.910413 202.393773 
L 79.227769 200.883029 
L 79.545124 200.883029 
L 80.179835 199.998271 
L 80.49719 199.998271 
L 80.814545 198.327716 
L 81.131901 197.541372 
L 82.083967 197.527851 
L 82.401322 197.062458 
L 86.844298 197.036034 
L 87.161653 196.781209 
L 87.479008 195.570679 
L 87.796364 195.303075 
L 88.113719 194.884003 
L 89.700496 194.884003 
L 90.017851 194.348552 
L 90.652562 194.348552 
L 90.969917 193.726547 
L 91.287273 193.726547 
L 91.604628 193.402531 
L 91.921983 192.569111 
L 99.221157 192.569111 
L 99.538512 192.072505 
L 99.855868 192.072505 
L 100.490579 191.955036 
L 101.76 191.955036 
L 102.077355 191.44029 
L 103.664132 191.44029 
L 104.616198 191.123475 
L 104.933554 191.123475 
L 105.250909 190.41757 
L 106.202975 190.381994 
L 106.520331 188.788883 
L 107.155041 188.631472 
L 107.472397 188.631472 
L 107.789752 188.264625 
L 109.376529 188.264625 
L 109.693884 187.459515 
L 110.01124 187.459515 
L 110.328595 186.570122 
L 129.369917 186.570085 
L 129.687273 186.064673 
L 130.321983 185.589329 
L 131.27405 185.559022 
L 131.591405 185.145572 
L 132.860826 185.051113 
L 133.178182 184.255193 
L 133.495537 184.255193 
L 133.812893 184.088528 
L 135.399669 184.088528 
L 135.717025 183.409783 
L 136.986446 183.126372 
L 163.009587 183.126372 
L 163.326942 182.421922 
L 167.135207 182.421922 
L 167.452562 182.29318 
L 167.769917 182.29318 
L 168.087273 181.421332 
L 168.404628 181.421332 
L 168.721983 181.188619 
L 169.356694 181.188619 
L 169.67405 181.038446 
L 169.991405 180.678755 
L 171.895537 180.569823 
L 172.212893 180.425147 
L 180.146777 180.317555 
L 180.464132 180.132361 
L 180.781488 180.132361 
L 181.098843 179.950707 
L 182.68562 179.950707 
L 183.320331 178.256167 
L 185.541818 178.241094 
L 186.176529 178.142641 
L 186.493884 178.142641 
L 186.81124 177.99393 
L 187.128595 177.621272 
L 187.44595 177.621272 
L 187.763306 177.368874 
L 188.080661 177.368874 
L 188.398017 176.31518 
L 188.715372 174.812454 
L 283.604628 174.812454 
L 284.239339 172.256035 
L 284.556694 172.256035 
L 284.87405 172.003637 
L 285.191405 172.003637 
L 285.50876 171.630978 
L 285.826116 171.482268 
L 287.095537 171.383815 
L 288.999669 171.368741 
L 289.63438 169.674202 
L 291.221157 169.674202 
L 291.538512 169.492548 
L 291.855868 169.492548 
L 292.173223 169.307354 
L 300.107107 169.199762 
L 300.741818 168.946154 
L 302.328595 168.946154 
L 302.64595 168.586463 
L 302.963306 168.43629 
L 303.598017 168.43629 
L 303.915372 168.203577 
L 304.232727 168.203577 
L 304.550083 167.331729 
L 304.867438 167.331729 
L 305.184793 167.202987 
L 308.993058 167.202987 
L 309.310413 166.498537 
L 335.968264 166.459898 
L 336.602975 166.215125 
L 336.920331 165.536381 
L 338.507107 165.536381 
L 338.824463 165.369716 
L 339.141818 165.369716 
L 339.459174 164.573796 
L 340.728595 164.479337 
L 341.04595 164.065886 
L 342.315372 163.851599 
L 342.632727 163.560236 
L 342.950083 163.054824 
L 361.991405 163.054787 
L 362.30876 162.165394 
L 362.626116 162.165394 
L 362.943471 161.360284 
L 364.530248 161.360284 
L 364.847603 160.993436 
L 365.482314 160.930175 
L 365.799669 160.836026 
L 366.117025 159.242914 
L 367.069091 159.207338 
L 367.386446 158.501434 
L 368.021157 158.501434 
L 368.655868 158.184619 
L 370.242645 158.184619 
L 370.56 157.669873 
L 372.146777 157.669873 
L 372.781488 157.552404 
L 373.098843 157.055798 
L 380.398017 157.055798 
L 380.715372 156.222378 
L 381.032727 155.898362 
L 381.350083 155.898362 
L 381.667438 155.276357 
L 382.302149 155.276357 
L 382.619504 154.740906 
L 384.206281 154.740906 
L 384.840992 154.05423 
L 385.158347 152.8437 
L 385.475702 152.588875 
L 389.918678 152.562451 
L 390.236033 152.097058 
L 391.188099 152.083537 
L 391.505455 151.297193 
L 391.82281 149.626638 
L 392.140165 149.626638 
L 392.457521 149.288765 
L 392.774876 148.74188 
L 393.092231 148.74188 
L 393.409587 147.231136 
L 394.996364 147.231136 
L 395.313719 146.816782 
L 395.631074 146.816782 
L 395.94843 146.652487 
L 396.265785 143.974617 
L 396.58314 142.388331 
L 397.217851 142.388331 
L 397.535207 141.507707 
L 397.852562 137.268112 
L 398.169917 137.268112 
L 398.487273 132.308339 
L 398.487273 132.308339 
" clip-path="url(#pb22a381dec)" style="fill: none; stroke: #ff7f0e; stroke-width: 1.5; stroke-linecap: square"/>
   </g>
   <g id="patch_3">
    <path d="M 57.6 307.584 
L 57.6 41.472 
" style="fill: none; stroke: #000000; stroke-width: 0.8; stroke-linejoin: miter; stroke-linecap: square"/>
   </g>
   <g id="patch_4">
    <path d="M 414.72 307.584 
L 414.72 41.472 
" style="fill: none; stroke: #000000; stroke-width: 0.8; stroke-linejoin: miter; stroke-linecap: square"/>
   </g>
   <g id="patch_5">
    <path d="M 57.6 307.584 
L 414.72 307.584 
" style="fill: none; stroke: #000000; stroke-width: 0.8; stroke-linejoin: miter; stroke-linecap: square"/>
   </g>
   <g id="patch_6">
    <path d="M 57.6 41.472 
L 414.72 41.472 
" style="fill: none; stroke: #000000; stroke-width: 0.8; stroke-linejoin: miter; stroke-linecap: square"/>
   </g>
   <g id="legend_1">
    <g id="patch_7">
     <path d="M 64.6 78.82825 
L 129.342187 78.82825 
Q 131.342187 78.82825 131.342187 76.82825 
L 131.342187 48.472 
Q 131.342187 46.472 129.342187 46.472 
L 64.6 46.472 
Q 62.6 46.472 62.6 48.472 
L 62.6 76.82825 
Q 62.6 78.82825 64.6 78.82825 
z
" style="fill: #ffffff; opacity: 0.8; stroke: #cccccc; stroke-linejoin: miter"/>
    </g>
    <g id="line2d_16">
     <path d="M 66.6 54.570437 
L 76.6 54.570437 
L 86.6 54.570437 
" style="fill: none; stroke: #1f77b4; stroke-width: 1.5; stroke-linecap: square"/>
    </g>
    <g id="text_16">
     <!-- qc -->
     <g transform="translate(94.6 58.070437) scale(0.1 -0.1)">
      <defs>
       <path id="DejaVuSans-71" d="M 947 1747 
Q 947 1113 1208 752 
Q 1469 391 1925 391 
Q 2381 391 2643 752 
Q 2906 1113 2906 1747 
Q 2906 2381 2643 2742 
Q 2381 3103 1925 3103 
Q 1469 3103 1208 2742 
Q 947 2381 947 1747 
z
M 2906 525 
Q 2725 213 2448 61 
Q 2172 -91 1784 -91 
Q 1150 -91 751 415 
Q 353 922 353 1747 
Q 353 2572 751 3078 
Q 1150 3584 1784 3584 
Q 2172 3584 2448 3432 
Q 2725 3281 2906 2969 
L 2906 3500 
L 3481 3500 
L 3481 -1331 
L 2906 -1331 
L 2906 525 
z
" transform="scale(0.015625)"/>
       <path id="DejaVuSans-63" d="M 3122 3366 
L 3122 2828 
Q 2878 2963 2633 3030 
Q 2388 3097 2138 3097 
Q 1578 3097 1268 2742 
Q 959 2388 959 1747 
Q 959 1106 1268 751 
Q 1578 397 2138 397 
Q 2388 397 2633 464 
Q 2878 531 3122 666 
L 3122 134 
Q 2881 22 2623 -34 
Q 2366 -91 2075 -91 
Q 1284 -91 818 406 
Q 353 903 353 1747 
Q 353 2603 823 3093 
Q 1294 3584 2113 3584 
Q 2378 3584 2631 3529 
Q 2884 3475 3122 3366 
z
" transform="scale(0.015625)"/>
      </defs>
      <use xlink:href="#DejaVuSans-71"/>
      <use xlink:href="#DejaVuSans-63" x="63.476562"/>
     </g>
    </g>
    <g id="line2d_17">
     <path d="M 66.6 69.248562 
L 76.6 69.248562 
L 86.6 69.248562 
" style="fill: none; stroke: #ff7f0e; stroke-width: 1.5; stroke-linecap: square"/>
    </g>
    <g id="text_17">
     <!-- Trotter -->
     <g transform="translate(94.6 72.748562) scale(0.1 -0.1)">
      <defs>
       <path id="DejaVuSans-54" d="M -19 4666 
L 3928 4666 
L 3928 4134 
L 2272 4134 
L 2272 0 
L 1638 0 
L 1638 4134 
L -19 4134 
L -19 4666 
z
" transform="scale(0.015625)"/>
       <path id="DejaVuSans-72" d="M 2631 2963 
Q 2534 3019 2420 3045 
Q 2306 3072 2169 3072 
Q 1681 3072 1420 2755 
Q 1159 2438 1159 1844 
L 1159 0 
L 581 0 
L 581 3500 
L 1159 3500 
L 1159 2956 
Q 1341 3275 1631 3429 
Q 1922 3584 2338 3584 
Q 2397 3584 2469 3576 
Q 2541 3569 2628 3553 
L 2631 2963 
z
" transform="scale(0.015625)"/>
       <path id="DejaVuSans-6f" d="M 1959 3097 
Q 1497 3097 1228 2736 
Q 959 2375 959 1747 
Q 959 1119 1226 758 
Q 1494 397 1959 397 
Q 2419 397 2687 759 
Q 2956 1122 2956 1747 
Q 2956 2369 2687 2733 
Q 2419 3097 1959 3097 
z
M 1959 3584 
Q 2709 3584 3137 3096 
Q 3566 2609 3566 1747 
Q 3566 888 3137 398 
Q 2709 -91 1959 -91 
Q 1206 -91 779 398 
Q 353 888 353 1747 
Q 353 2609 779 3096 
Q 1206 3584 1959 3584 
z
" transform="scale(0.015625)"/>
       <path id="DejaVuSans-65" d="M 3597 1894 
L 3597 1613 
L 953 1613 
Q 991 1019 1311 708 
Q 1631 397 2203 397 
Q 2534 397 2845 478 
Q 3156 559 3463 722 
L 3463 178 
Q 3153 47 2828 -22 
Q 2503 -91 2169 -91 
Q 1331 -91 842 396 
Q 353 884 353 1716 
Q 353 2575 817 3079 
Q 1281 3584 2069 3584 
Q 2775 3584 3186 3129 
Q 3597 2675 3597 1894 
z
M 3022 2063 
Q 3016 2534 2758 2815 
Q 2500 3097 2075 3097 
Q 1594 3097 1305 2825 
Q 1016 2553 972 2059 
L 3022 2063 
z
" transform="scale(0.015625)"/>
      </defs>
      <use xlink:href="#DejaVuSans-54"/>
      <use xlink:href="#DejaVuSans-72" x="46.333984"/>
      <use xlink:href="#DejaVuSans-6f" x="85.197266"/>
      <use xlink:href="#DejaVuSans-74" x="146.378906"/>
      <use xlink:href="#DejaVuSans-74" x="185.587891"/>
      <use xlink:href="#DejaVuSans-65" x="224.796875"/>
      <use xlink:href="#DejaVuSans-72" x="286.320312"/>
     </g>
    </g>
   </g>
  </g>
 </g>
 <defs>
  <clipPath id="pb22a381dec">
   <rect x="57.6" y="41.472" width="357.12" height="266.112"/>
  </clipPath>
 </defs>
</svg>
