<?xml version="1.0" encoding="utf-8" standalone="no"?>
<!DOCTYPE svg PUBLIC "-//W3C//DTD SVG 1.1//EN"
  "http://www.w3.org/Graphics/SVG/1.1/DTD/svg11.dtd">
<svg xmlns:xlink="http://www.w3.org/1999/xlink" width="460.8pt" height="345.6pt" viewBox="0 0 460.8 345.6" xmlns="http://www.w3.org/2000/svg" version="1.1">
 <metadata>
  <rdf:RDF xmlns:dc="http://purl.org/dc/elements/1.1/" xmlns:cc="http://creativecommons.org/ns#" xmlns:rdf="http://www.w3.org/1999/02/22-rdf-syntax-ns#">
   <cc:Work>
    <dc:type rdf:resource="http://purl.org/dc/dcmitype/StillImage"/>
    <dc:date>2024-06-07T01:54:52.980650</dc:date>
    <dc:format>image/svg+xml</dc:format>
    <dc:creator>
     <cc:Agent>
      <dc:title>Matplotlib v3.7.1, https://matplotlib.org/</dc:title>
     </cc:Agent>
    </dc:creator>
   </cc:Work>
  </rdf:RDF>
 </metadata>
 <defs>
  <style type="text/css">*{stroke-linejoin: round; stroke-linecap: butt}</style>
 </defs>
 <g id="figure_1">
  <g id="patch_1">
   <path d="M 0 345.6 
L 460.8 345.6 
L 460.8 0 
L 0 0 
z
" style="fill: #ffffff"/>
  </g>
  <g id="axes_1">
   <g id="patch_2">
    <path d="M 57.6 307.584 
L 414.72 307.584 
L 414.72 41.472 
L 57.6 41.472 
z
" style="fill: #ffffff"/>
   </g>
   <g id="matplotlib.axis_1">
    <g id="xtick_1">
     <g id="line2d_1">
      <defs>
       <path id="m515fbe3a51" d="M 0 0 
L 0 3.5 
" style="stroke: #000000; stroke-width: 0.8"/>
      </defs>
      <g>
       <use xlink:href="#m515fbe3a51" x="73.832727" y="307.584" style="stroke: #000000; stroke-width: 0.8"/>
      </g>
     </g>
     <g id="text_1">
      <!-- 0 -->
      <g transform="translate(70.651477 322.182437) scale(0.1 -0.1)">
       <defs>
        <path id="DejaVuSans-30" d="M 2034 4250 
Q 1547 4250 1301 3770 
Q 1056 3291 1056 2328 
Q 1056 1369 1301 889 
Q 1547 409 2034 409 
Q 2525 409 2770 889 
Q 3016 1369 3016 2328 
Q 3016 3291 2770 3770 
Q 2525 4250 2034 4250 
z
M 2034 4750 
Q 2819 4750 3233 4129 
Q 3647 3509 3647 2328 
Q 3647 1150 3233 529 
Q 2819 -91 2034 -91 
Q 1250 -91 836 529 
Q 422 1150 422 2328 
Q 422 3509 836 4129 
Q 1250 4750 2034 4750 
z
" transform="scale(0.015625)"/>
       </defs>
       <use xlink:href="#DejaVuSans-30"/>
      </g>
     </g>
    </g>
    <g id="xtick_2">
     <g id="line2d_2">
      <g>
       <use xlink:href="#m515fbe3a51" x="137.303802" y="307.584" style="stroke: #000000; stroke-width: 0.8"/>
      </g>
     </g>
     <g id="text_2">
      <!-- 200 -->
      <g transform="translate(127.760052 322.182437) scale(0.1 -0.1)">
       <defs>
        <path id="DejaVuSans-32" d="M 1228 531 
L 3431 531 
L 3431 0 
L 469 0 
L 469 531 
Q 828 903 1448 1529 
Q 2069 2156 2228 2338 
Q 2531 2678 2651 2914 
Q 2772 3150 2772 3378 
Q 2772 3750 2511 3984 
Q 2250 4219 1831 4219 
Q 1534 4219 1204 4116 
Q 875 4013 500 3803 
L 500 4441 
Q 881 4594 1212 4672 
Q 1544 4750 1819 4750 
Q 2544 4750 2975 4387 
Q 3406 4025 3406 3419 
Q 3406 3131 3298 2873 
Q 3191 2616 2906 2266 
Q 2828 2175 2409 1742 
Q 1991 1309 1228 531 
z
" transform="scale(0.015625)"/>
       </defs>
       <use xlink:href="#DejaVuSans-32"/>
       <use xlink:href="#DejaVuSans-30" x="63.623047"/>
       <use xlink:href="#DejaVuSans-30" x="127.246094"/>
      </g>
     </g>
    </g>
    <g id="xtick_3">
     <g id="line2d_3">
      <g>
       <use xlink:href="#m515fbe3a51" x="200.774876" y="307.584" style="stroke: #000000; stroke-width: 0.8"/>
      </g>
     </g>
     <g id="text_3">
      <!-- 400 -->
      <g transform="translate(191.231126 322.182437) scale(0.1 -0.1)">
       <defs>
        <path id="DejaVuSans-34" d="M 2419 4116 
L 825 1625 
L 2419 1625 
L 2419 4116 
z
M 2253 4666 
L 3047 4666 
L 3047 1625 
L 3713 1625 
L 3713 1100 
L 3047 1100 
L 3047 0 
L 2419 0 
L 2419 1100 
L 313 1100 
L 313 1709 
L 2253 4666 
z
" transform="scale(0.015625)"/>
       </defs>
       <use xlink:href="#DejaVuSans-34"/>
       <use xlink:href="#DejaVuSans-30" x="63.623047"/>
       <use xlink:href="#DejaVuSans-30" x="127.246094"/>
      </g>
     </g>
    </g>
    <g id="xtick_4">
     <g id="line2d_4">
      <g>
       <use xlink:href="#m515fbe3a51" x="264.24595" y="307.584" style="stroke: #000000; stroke-width: 0.8"/>
      </g>
     </g>
     <g id="text_4">
      <!-- 600 -->
      <g transform="translate(254.7022 322.182437) scale(0.1 -0.1)">
       <defs>
        <path id="DejaVuSans-36" d="M 2113 2584 
Q 1688 2584 1439 2293 
Q 1191 2003 1191 1497 
Q 1191 994 1439 701 
Q 1688 409 2113 409 
Q 2538 409 2786 701 
Q 3034 994 3034 1497 
Q 3034 2003 2786 2293 
Q 2538 2584 2113 2584 
z
M 3366 4563 
L 3366 3988 
Q 3128 4100 2886 4159 
Q 2644 4219 2406 4219 
Q 1781 4219 1451 3797 
Q 1122 3375 1075 2522 
Q 1259 2794 1537 2939 
Q 1816 3084 2150 3084 
Q 2853 3084 3261 2657 
Q 3669 2231 3669 1497 
Q 3669 778 3244 343 
Q 2819 -91 2113 -91 
Q 1303 -91 875 529 
Q 447 1150 447 2328 
Q 447 3434 972 4092 
Q 1497 4750 2381 4750 
Q 2619 4750 2861 4703 
Q 3103 4656 3366 4563 
z
" transform="scale(0.015625)"/>
       </defs>
       <use xlink:href="#DejaVuSans-36"/>
       <use xlink:href="#DejaVuSans-30" x="63.623047"/>
       <use xlink:href="#DejaVuSans-30" x="127.246094"/>
      </g>
     </g>
    </g>
    <g id="xtick_5">
     <g id="line2d_5">
      <g>
       <use xlink:href="#m515fbe3a51" x="327.717025" y="307.584" style="stroke: #000000; stroke-width: 0.8"/>
      </g>
     </g>
     <g id="text_5">
      <!-- 800 -->
      <g transform="translate(318.173275 322.182437) scale(0.1 -0.1)">
       <defs>
        <path id="DejaVuSans-38" d="M 2034 2216 
Q 1584 2216 1326 1975 
Q 1069 1734 1069 1313 
Q 1069 891 1326 650 
Q 1584 409 2034 409 
Q 2484 409 2743 651 
Q 3003 894 3003 1313 
Q 3003 1734 2745 1975 
Q 2488 2216 2034 2216 
z
M 1403 2484 
Q 997 2584 770 2862 
Q 544 3141 544 3541 
Q 544 4100 942 4425 
Q 1341 4750 2034 4750 
Q 2731 4750 3128 4425 
Q 3525 4100 3525 3541 
Q 3525 3141 3298 2862 
Q 3072 2584 2669 2484 
Q 3125 2378 3379 2068 
Q 3634 1759 3634 1313 
Q 3634 634 3220 271 
Q 2806 -91 2034 -91 
Q 1263 -91 848 271 
Q 434 634 434 1313 
Q 434 1759 690 2068 
Q 947 2378 1403 2484 
z
M 1172 3481 
Q 1172 3119 1398 2916 
Q 1625 2713 2034 2713 
Q 2441 2713 2670 2916 
Q 2900 3119 2900 3481 
Q 2900 3844 2670 4047 
Q 2441 4250 2034 4250 
Q 1625 4250 1398 4047 
Q 1172 3844 1172 3481 
z
" transform="scale(0.015625)"/>
       </defs>
       <use xlink:href="#DejaVuSans-38"/>
       <use xlink:href="#DejaVuSans-30" x="63.623047"/>
       <use xlink:href="#DejaVuSans-30" x="127.246094"/>
      </g>
     </g>
    </g>
    <g id="xtick_6">
     <g id="line2d_6">
      <g>
       <use xlink:href="#m515fbe3a51" x="391.188099" y="307.584" style="stroke: #000000; stroke-width: 0.8"/>
      </g>
     </g>
     <g id="text_6">
      <!-- 1000 -->
      <g transform="translate(378.463099 322.182437) scale(0.1 -0.1)">
       <defs>
        <path id="DejaVuSans-31" d="M 794 531 
L 1825 531 
L 1825 4091 
L 703 3866 
L 703 4441 
L 1819 4666 
L 2450 4666 
L 2450 531 
L 3481 531 
L 3481 0 
L 794 0 
L 794 531 
z
" transform="scale(0.015625)"/>
       </defs>
       <use xlink:href="#DejaVuSans-31"/>
       <use xlink:href="#DejaVuSans-30" x="63.623047"/>
       <use xlink:href="#DejaVuSans-30" x="127.246094"/>
       <use xlink:href="#DejaVuSans-30" x="190.869141"/>
      </g>
     </g>
    </g>
    <g id="text_7">
     <!-- n -->
     <g transform="translate(232.99125 335.860562) scale(0.1 -0.1)">
      <defs>
       <path id="DejaVuSans-6e" d="M 3513 2113 
L 3513 0 
L 2938 0 
L 2938 2094 
Q 2938 2591 2744 2837 
Q 2550 3084 2163 3084 
Q 1697 3084 1428 2787 
Q 1159 2491 1159 1978 
L 1159 0 
L 581 0 
L 581 3500 
L 1159 3500 
L 1159 2956 
Q 1366 3272 1645 3428 
Q 1925 3584 2291 3584 
Q 2894 3584 3203 3211 
Q 3513 2838 3513 2113 
z
" transform="scale(0.015625)"/>
      </defs>
      <use xlink:href="#DejaVuSans-6e"/>
     </g>
    </g>
   </g>
   <g id="matplotlib.axis_2">
    <g id="ytick_1">
     <g id="line2d_7">
      <defs>
       <path id="m823a2a7a74" d="M 0 0 
L -3.5 0 
" style="stroke: #000000; stroke-width: 0.8"/>
      </defs>
      <g>
       <use xlink:href="#m823a2a7a74" x="57.6" y="291.176743" style="stroke: #000000; stroke-width: 0.8"/>
      </g>
     </g>
     <g id="text_8">
      <!-- −3 -->
      <g transform="translate(35.857813 294.975962) scale(0.1 -0.1)">
       <defs>
        <path id="DejaVuSans-2212" d="M 678 2272 
L 4684 2272 
L 4684 1741 
L 678 1741 
L 678 2272 
z
" transform="scale(0.015625)"/>
        <path id="DejaVuSans-33" d="M 2597 2516 
Q 3050 2419 3304 2112 
Q 3559 1806 3559 1356 
Q 3559 666 3084 287 
Q 2609 -91 1734 -91 
Q 1441 -91 1130 -33 
Q 819 25 488 141 
L 488 750 
Q 750 597 1062 519 
Q 1375 441 1716 441 
Q 2309 441 2620 675 
Q 2931 909 2931 1356 
Q 2931 1769 2642 2001 
Q 2353 2234 1838 2234 
L 1294 2234 
L 1294 2753 
L 1863 2753 
Q 2328 2753 2575 2939 
Q 2822 3125 2822 3475 
Q 2822 3834 2567 4026 
Q 2313 4219 1838 4219 
Q 1578 4219 1281 4162 
Q 984 4106 628 3988 
L 628 4550 
Q 988 4650 1302 4700 
Q 1616 4750 1894 4750 
Q 2613 4750 3031 4423 
Q 3450 4097 3450 3541 
Q 3450 3153 3228 2886 
Q 3006 2619 2597 2516 
z
" transform="scale(0.015625)"/>
       </defs>
       <use xlink:href="#DejaVuSans-2212"/>
       <use xlink:href="#DejaVuSans-33" x="83.789062"/>
      </g>
     </g>
    </g>
    <g id="ytick_2">
     <g id="line2d_8">
      <g>
       <use xlink:href="#m823a2a7a74" x="57.6" y="251.663595" style="stroke: #000000; stroke-width: 0.8"/>
      </g>
     </g>
     <g id="text_9">
      <!-- −2 -->
      <g transform="translate(35.857813 255.462813) scale(0.1 -0.1)">
       <use xlink:href="#DejaVuSans-2212"/>
       <use xlink:href="#DejaVuSans-32" x="83.789062"/>
      </g>
     </g>
    </g>
    <g id="ytick_3">
     <g id="line2d_9">
      <g>
       <use xlink:href="#m823a2a7a74" x="57.6" y="212.150447" style="stroke: #000000; stroke-width: 0.8"/>
      </g>
     </g>
     <g id="text_10">
      <!-- −1 -->
      <g transform="translate(35.857813 215.949665) scale(0.1 -0.1)">
       <use xlink:href="#DejaVuSans-2212"/>
       <use xlink:href="#DejaVuSans-31" x="83.789062"/>
      </g>
     </g>
    </g>
    <g id="ytick_4">
     <g id="line2d_10">
      <g>
       <use xlink:href="#m823a2a7a74" x="57.6" y="172.637298" style="stroke: #000000; stroke-width: 0.8"/>
      </g>
     </g>
     <g id="text_11">
      <!-- 0 -->
      <g transform="translate(44.2375 176.436517) scale(0.1 -0.1)">
       <use xlink:href="#DejaVuSans-30"/>
      </g>
     </g>
    </g>
    <g id="ytick_5">
     <g id="line2d_11">
      <g>
       <use xlink:href="#m823a2a7a74" x="57.6" y="133.12415" style="stroke: #000000; stroke-width: 0.8"/>
      </g>
     </g>
     <g id="text_12">
      <!-- 1 -->
      <g transform="translate(44.2375 136.923369) scale(0.1 -0.1)">
       <use xlink:href="#DejaVuSans-31"/>
      </g>
     </g>
    </g>
    <g id="ytick_6">
     <g id="line2d_12">
      <g>
       <use xlink:href="#m823a2a7a74" x="57.6" y="93.611002" style="stroke: #000000; stroke-width: 0.8"/>
      </g>
     </g>
     <g id="text_13">
      <!-- 2 -->
      <g transform="translate(44.2375 97.410221) scale(0.1 -0.1)">
       <use xlink:href="#DejaVuSans-32"/>
      </g>
     </g>
    </g>
    <g id="ytick_7">
     <g id="line2d_13">
      <g>
       <use xlink:href="#m823a2a7a74" x="57.6" y="54.097854" style="stroke: #000000; stroke-width: 0.8"/>
      </g>
     </g>
     <g id="text_14">
      <!-- 3 -->
      <g transform="translate(44.2375 57.897073) scale(0.1 -0.1)">
       <use xlink:href="#DejaVuSans-33"/>
      </g>
     </g>
    </g>
    <g id="text_15">
     <!-- E*t -->
     <g transform="translate(29.778125 182.147531) rotate(-90) scale(0.1 -0.1)">
      <defs>
       <path id="DejaVuSans-45" d="M 628 4666 
L 3578 4666 
L 3578 4134 
L 1259 4134 
L 1259 2753 
L 3481 2753 
L 3481 2222 
L 1259 2222 
L 1259 531 
L 3634 531 
L 3634 0 
L 628 0 
L 628 4666 
z
" transform="scale(0.015625)"/>
       <path id="DejaVuSans-2a" d="M 3009 3897 
L 1888 3291 
L 3009 2681 
L 2828 2375 
L 1778 3009 
L 1778 1831 
L 1422 1831 
L 1422 3009 
L 372 2375 
L 191 2681 
L 1313 3291 
L 191 3897 
L 372 4206 
L 1422 3572 
L 1422 4750 
L 1778 4750 
L 1778 3572 
L 2828 4206 
L 3009 3897 
z
" transform="scale(0.015625)"/>
       <path id="DejaVuSans-74" d="M 1172 4494 
L 1172 3500 
L 2356 3500 
L 2356 3053 
L 1172 3053 
L 1172 1153 
Q 1172 725 1289 603 
Q 1406 481 1766 481 
L 2356 481 
L 2356 0 
L 1766 0 
Q 1100 0 847 248 
Q 594 497 594 1153 
L 594 3053 
L 172 3053 
L 172 3500 
L 594 3500 
L 594 4494 
L 1172 4494 
z
" transform="scale(0.015625)"/>
      </defs>
      <use xlink:href="#DejaVuSans-45"/>
      <use xlink:href="#DejaVuSans-2a" x="63.183594"/>
      <use xlink:href="#DejaVuSans-74" x="113.183594"/>
     </g>
    </g>
   </g>
   <g id="line2d_14">
    <path d="M 73.832727 295.488 
L 74.150083 294.050011 
L 74.467438 293.317331 
L 75.102149 283.073662 
L 75.419504 282.399518 
L 75.73686 280.923218 
L 76.37157 276.293416 
L 76.688926 274.967923 
L 77.006281 274.537262 
L 77.323636 270.682881 
L 77.640992 270.472145 
L 77.958347 269.914333 
L 78.593058 267.312234 
L 78.910413 267.286474 
L 79.227769 266.420172 
L 79.545124 266.233722 
L 79.862479 263.89008 
L 80.179835 263.680862 
L 81.131901 262.108669 
L 81.449256 261.065393 
L 82.401322 259.694235 
L 82.718678 258.298 
L 83.353388 257.702906 
L 83.670744 257.448738 
L 83.988099 256.385101 
L 84.305455 256.160391 
L 84.62281 254.910833 
L 84.940165 254.794982 
L 85.257521 253.990147 
L 85.892231 253.889504 
L 86.209587 253.650902 
L 86.844298 251.829663 
L 87.479008 251.493215 
L 87.796364 250.337287 
L 89.065785 249.436283 
L 89.38314 248.91885 
L 90.017851 247.544024 
L 90.652562 247.260566 
L 90.969917 247.019416 
L 91.287273 245.921152 
L 91.604628 245.896464 
L 91.921983 245.378047 
L 92.239339 245.299324 
L 93.191405 244.45978 
L 93.50876 244.24907 
L 94.460826 242.720212 
L 94.778182 242.575533 
L 95.095537 242.288404 
L 95.412893 241.590714 
L 96.047603 241.379639 
L 96.682314 240.579054 
L 96.999669 240.369852 
L 97.317025 239.597762 
L 97.951736 239.06299 
L 98.269091 238.323617 
L 99.221157 238.079705 
L 99.538512 237.644325 
L 100.807934 237.103996 
L 101.125289 236.531329 
L 101.76 236.218972 
L 102.077355 236.153526 
L 102.394711 235.30376 
L 102.712066 235.147494 
L 103.029421 235.121251 
L 103.664132 234.848124 
L 103.981488 233.974946 
L 104.298843 233.499027 
L 104.616198 233.409935 
L 104.933554 232.866901 
L 105.88562 232.564659 
L 106.520331 232.349251 
L 106.837686 231.965674 
L 107.155041 231.782882 
L 107.472397 231.765197 
L 107.789752 231.238908 
L 108.107107 231.017662 
L 108.424463 230.531015 
L 109.059174 230.193279 
L 110.01124 229.765596 
L 110.328595 229.039726 
L 110.64595 229.028519 
L 111.915372 228.239943 
L 112.550083 228.150246 
L 113.184793 227.677301 
L 113.502149 227.653853 
L 113.819504 227.428217 
L 114.77157 226.043455 
L 115.406281 225.832207 
L 116.040992 225.600705 
L 116.358347 225.161339 
L 116.675702 225.100562 
L 116.993058 224.842447 
L 117.945124 224.418561 
L 119.214545 224.013485 
L 119.531901 223.616899 
L 119.849256 222.564652 
L 120.166612 222.350788 
L 120.801322 222.305512 
L 121.436033 222.012293 
L 122.388099 221.557794 
L 122.705455 221.422326 
L 123.340165 220.931522 
L 123.974876 220.858827 
L 124.292231 220.232766 
L 124.926942 220.011572 
L 125.244298 219.810244 
L 125.879008 219.658231 
L 126.831074 219.264262 
L 127.78314 218.828768 
L 128.100496 218.240133 
L 128.735207 217.829026 
L 129.687273 217.629961 
L 130.004628 217.204068 
L 131.27405 216.931474 
L 131.591405 216.825041 
L 132.860826 215.909823 
L 133.178182 215.802389 
L 133.495537 215.323182 
L 133.812893 215.098401 
L 134.764959 214.811529 
L 135.082314 214.443002 
L 135.399669 213.882207 
L 136.351736 213.552589 
L 139.207934 212.411754 
L 139.525289 212.397311 
L 140.16 211.821072 
L 140.477355 211.763478 
L 141.112066 211.41371 
L 141.746777 211.240094 
L 142.064132 210.807692 
L 143.016198 210.460719 
L 143.968264 209.943327 
L 144.602975 209.711795 
L 144.920331 209.680405 
L 145.872397 209.127852 
L 147.141818 208.116873 
L 147.776529 207.656369 
L 149.04595 207.482241 
L 149.363306 207.15352 
L 149.680661 207.11401 
L 149.998017 206.92385 
L 150.315372 206.875072 
L 150.632727 206.705174 
L 150.950083 206.679639 
L 151.267438 206.391243 
L 151.902149 206.258977 
L 152.219504 206.107333 
L 152.53686 205.828472 
L 153.17157 205.584138 
L 153.488926 205.425034 
L 153.806281 205.391759 
L 154.123636 205.156529 
L 154.440992 204.485275 
L 158.566612 203.307645 
L 158.883967 203.104656 
L 159.201322 202.689539 
L 159.836033 202.579197 
L 160.153388 202.577958 
L 161.105455 202.21414 
L 161.42281 201.792453 
L 162.057521 201.590611 
L 162.374876 201.428921 
L 162.692231 200.893867 
L 164.279008 200.469636 
L 164.596364 199.587751 
L 165.54843 199.34419 
L 165.865785 199.133407 
L 166.500496 199.051447 
L 167.135207 198.703119 
L 168.087273 198.631163 
L 168.404628 198.442396 
L 169.039339 198.234518 
L 170.30876 197.50537 
L 170.943471 197.338123 
L 171.260826 196.973575 
L 171.578182 196.92508 
L 173.482314 195.807815 
L 175.386446 195.371746 
L 176.021157 194.804836 
L 177.290579 194.53501 
L 178.242645 194.09641 
L 178.877355 193.904856 
L 179.512066 193.868684 
L 179.829421 193.26923 
L 180.464132 192.818768 
L 181.733554 192.582103 
L 182.368264 192.277662 
L 182.68562 191.579352 
L 183.637686 191.327066 
L 184.272397 191.124853 
L 184.589752 190.815227 
L 186.81124 190.349785 
L 187.128595 190.181632 
L 187.763306 190.103324 
L 188.080661 189.962631 
L 188.398017 189.679124 
L 189.032727 189.549543 
L 189.350083 189.30354 
L 189.984793 189.205917 
L 191.254215 188.256712 
L 192.206281 187.768067 
L 193.475702 187.568503 
L 193.793058 187.367154 
L 194.110413 186.814526 
L 194.427769 186.784802 
L 195.69719 186.332546 
L 196.331901 186.145061 
L 197.601322 185.817104 
L 197.918678 185.53682 
L 198.553388 185.446005 
L 198.870744 185.118374 
L 199.505455 185.0735 
L 200.774876 184.543928 
L 202.044298 184.276796 
L 204.265785 183.26869 
L 204.58314 182.632924 
L 205.217851 182.426667 
L 209.978182 181.119856 
L 210.295537 181.030541 
L 210.930248 180.276599 
L 211.564959 179.792692 
L 212.83438 179.543621 
L 213.151736 179.293915 
L 213.469091 179.204452 
L 213.786446 178.970087 
L 215.055868 178.645429 
L 215.373223 178.229951 
L 216.007934 177.8963 
L 219.816198 176.976757 
L 220.133554 176.77932 
L 220.768264 176.716638 
L 221.402975 176.439919 
L 222.355041 176.07401 
L 222.989752 175.904829 
L 223.307107 175.424993 
L 223.941818 174.977046 
L 225.21124 174.403197 
L 226.163306 173.753877 
L 226.480661 173.708581 
L 227.115372 173.412281 
L 228.067438 173.261718 
L 228.702149 173.132507 
L 230.606281 172.694683 
L 231.558347 172.540625 
L 232.510413 172.266504 
L 233.145124 172.10173 
L 233.779835 171.924897 
L 234.414545 171.511375 
L 234.731901 171.020506 
L 235.683967 170.650496 
L 236.953388 169.679126 
L 237.588099 169.394764 
L 237.905455 169.388991 
L 238.22281 169.244145 
L 238.857521 169.126758 
L 239.492231 168.820304 
L 240.126942 168.704644 
L 241.079008 168.482572 
L 242.34843 168.338717 
L 243.300496 168.045712 
L 243.935207 167.839403 
L 244.252562 167.491083 
L 244.887273 167.336898 
L 246.791405 166.350009 
L 247.10876 166.026666 
L 247.426116 166.004009 
L 248.060826 165.735428 
L 249.012893 165.443475 
L 249.647603 165.069844 
L 249.964959 165.05937 
L 250.917025 164.69312 
L 251.551736 164.62825 
L 252.186446 164.48379 
L 252.821157 164.338437 
L 253.455868 164.157699 
L 253.773223 163.938539 
L 254.090579 163.281354 
L 255.042645 162.734347 
L 255.677355 162.323474 
L 256.629421 162.094978 
L 258.850909 161.491722 
L 260.120331 161.241701 
L 260.437686 161.182636 
L 261.389752 160.45169 
L 261.707107 160.442468 
L 262.024463 160.28416 
L 263.293884 160.167013 
L 264.563306 159.478778 
L 265.832727 159.117135 
L 266.467438 158.770586 
L 267.73686 158.326777 
L 268.054215 157.979687 
L 269.323636 157.341671 
L 269.958347 157.179203 
L 270.275702 156.818901 
L 271.227769 156.666755 
L 272.179835 155.967606 
L 274.083967 155.611359 
L 275.353388 155.378268 
L 275.988099 155.292525 
L 276.305455 155.004802 
L 276.62281 154.98041 
L 277.257521 154.334304 
L 277.892231 154.170152 
L 278.526942 153.916609 
L 278.844298 153.893169 
L 279.161653 153.656729 
L 279.479008 153.570888 
L 279.796364 153.24311 
L 281.065785 152.953536 
L 281.38314 152.805588 
L 281.700496 152.782349 
L 282.335207 152.093756 
L 282.969917 152.025893 
L 283.604628 151.499121 
L 284.239339 151.324672 
L 286.460826 150.804097 
L 287.412893 150.542413 
L 289.317025 150.136979 
L 290.269091 149.420467 
L 290.903802 148.419312 
L 291.538512 148.245507 
L 293.125289 147.947899 
L 293.442645 147.573401 
L 295.029421 147.222417 
L 297.250909 146.729339 
L 297.88562 146.688379 
L 298.520331 146.132712 
L 298.837686 146.006011 
L 299.155041 145.124185 
L 301.059174 144.613627 
L 301.376529 144.257473 
L 302.328595 144.156488 
L 302.963306 143.947113 
L 303.598017 143.332231 
L 304.550083 142.921244 
L 305.819504 142.742291 
L 306.454215 142.611931 
L 307.088926 142.470301 
L 307.406281 142.030065 
L 308.358347 141.543815 
L 308.993058 141.414877 
L 309.627769 140.969684 
L 310.579835 140.734834 
L 310.89719 140.414145 
L 311.214545 140.355563 
L 311.849256 139.924226 
L 312.166612 139.911915 
L 312.483967 139.706123 
L 313.436033 139.447324 
L 313.753388 139.113856 
L 314.705455 138.944537 
L 315.02281 138.901956 
L 315.974876 138.493298 
L 316.292231 138.439859 
L 316.926942 137.84442 
L 317.561653 137.651279 
L 317.879008 137.627326 
L 318.831074 137.173375 
L 319.78314 136.626436 
L 320.735207 136.060006 
L 321.369917 135.962285 
L 322.004628 135.31782 
L 322.321983 135.293742 
L 322.639339 135.119288 
L 322.956694 135.111556 
L 323.27405 134.990225 
L 323.591405 134.69846 
L 323.90876 134.586311 
L 324.543471 134.165084 
L 325.178182 133.947794 
L 325.495537 133.895956 
L 325.812893 133.643233 
L 326.447603 133.354428 
L 326.764959 133.152384 
L 327.399669 133.099872 
L 328.03438 132.597106 
L 328.351736 132.496096 
L 328.669091 132.099468 
L 328.986446 132.047671 
L 329.621157 131.314009 
L 329.938512 131.307693 
L 330.255868 131.089271 
L 330.573223 131.04725 
L 331.207934 130.751838 
L 331.525289 130.67053 
L 331.842645 130.388059 
L 332.477355 130.256137 
L 333.746777 129.925121 
L 334.698843 129.698988 
L 335.650909 129.354538 
L 335.968264 129.31873 
L 336.602975 128.61471 
L 336.920331 128.592078 
L 337.872397 127.98479 
L 338.189752 127.92637 
L 338.507107 127.703803 
L 339.141818 127.460975 
L 339.459174 127.182778 
L 339.776529 127.068995 
L 340.41124 126.449258 
L 340.728595 126.225129 
L 341.04595 126.145793 
L 341.363306 125.728123 
L 341.998017 125.62228 
L 342.315372 125.298338 
L 344.219504 124.476336 
L 344.53686 123.869285 
L 345.806281 123.199855 
L 346.440992 123.012277 
L 347.075702 122.64889 
L 347.393058 122.621059 
L 347.710413 122.013686 
L 348.979835 121.637875 
L 349.614545 121.368044 
L 350.249256 121.22392 
L 350.566612 120.811128 
L 351.836033 120.535471 
L 352.153388 120.10694 
L 353.105455 119.653761 
L 353.42281 118.834924 
L 354.057521 118.502367 
L 355.009587 118.321635 
L 355.326942 118.052343 
L 355.644298 118.029946 
L 355.961653 117.89475 
L 356.279008 117.506485 
L 356.596364 117.35553 
L 356.913719 116.984295 
L 358.500496 116.498926 
L 359.135207 115.998015 
L 359.452562 115.88203 
L 359.769917 115.595147 
L 360.404628 115.338853 
L 360.721983 115.032964 
L 361.039339 114.507833 
L 361.356694 114.257446 
L 361.67405 114.240619 
L 361.991405 113.799656 
L 362.30876 113.712862 
L 362.943471 112.975354 
L 363.260826 112.318535 
L 363.895537 112.115973 
L 364.212893 111.73658 
L 364.847603 111.497528 
L 365.164959 110.989927 
L 365.482314 110.739005 
L 366.43438 110.466071 
L 366.751736 110.02433 
L 367.386446 109.909636 
L 367.703802 109.514333 
L 369.607934 108.834345 
L 369.925289 108.48482 
L 370.242645 107.76683 
L 370.877355 107.449871 
L 371.194711 107.012917 
L 372.464132 106.34932 
L 372.781488 105.97762 
L 373.098843 105.79135 
L 373.416198 105.093339 
L 374.368264 104.617395 
L 375.002975 103.454111 
L 375.637686 103.107992 
L 375.955041 102.853031 
L 376.272397 102.399966 
L 377.224463 101.961505 
L 377.541818 101.000908 
L 377.859174 100.55469 
L 378.81124 100.060625 
L 379.128595 99.425336 
L 379.44595 99.169035 
L 379.763306 98.709539 
L 380.715372 98.466086 
L 381.032727 98.142524 
L 381.984793 96.266562 
L 382.302149 94.933738 
L 382.619504 94.883156 
L 382.93686 94.5864 
L 383.254215 94.548345 
L 383.888926 94.149843 
L 384.523636 92.992646 
L 385.158347 92.436694 
L 385.793058 92.028478 
L 386.110413 90.967125 
L 386.427769 90.455809 
L 386.745124 90.368488 
L 387.062479 90.153364 
L 387.69719 88.217874 
L 388.014545 87.899734 
L 388.331901 87.861948 
L 388.649256 87.165559 
L 388.966612 87.027183 
L 389.283967 86.079469 
L 389.601322 85.886836 
L 389.918678 85.079754 
L 390.236033 83.902492 
L 390.553388 83.470242 
L 391.505455 83.204901 
L 391.82281 81.651408 
L 392.140165 80.723806 
L 392.457521 80.390885 
L 393.092231 78.757968 
L 393.409587 76.978656 
L 393.726942 76.844863 
L 394.044298 75.067106 
L 394.996364 73.787515 
L 395.631074 72.235805 
L 395.94843 70.41365 
L 396.265785 65.179559 
L 396.58314 65.073338 
L 396.900496 64.60637 
L 397.217851 63.649034 
L 397.852562 56.084121 
L 398.169917 55.093308 
L 398.487273 53.568 
L 398.487273 53.568 
" clip-path="url(#pa9d6775055)" style="fill: none; stroke: #1f77b4; stroke-width: 1.5; stroke-linecap: square"/>
   </g>
   <g id="line2d_15">
    <path d="M 73.832727 285.249771 
L 74.150083 273.395825 
L 74.467438 272.235466 
L 74.784793 268.867988 
L 75.102149 263.623039 
L 75.419504 261.541879 
L 76.054215 259.115197 
L 76.37157 257.014045 
L 76.688926 257.014044 
L 77.006281 255.970746 
L 77.323636 252.536456 
L 77.640992 251.769095 
L 77.958347 250.494288 
L 78.275702 249.687938 
L 78.593058 249.687934 
L 78.910413 248.527579 
L 79.227769 248.486845 
L 80.179835 245.160101 
L 80.49719 245.160101 
L 81.131901 244.116802 
L 81.449256 243.794024 
L 82.718678 240.682512 
L 83.036033 240.060305 
L 83.353388 239.915152 
L 83.670744 239.618077 
L 83.988099 238.720688 
L 84.305455 238.640346 
L 84.62281 237.833993 
L 84.940165 237.83399 
L 85.257521 237.324139 
L 85.574876 237.26178 
L 85.892231 236.673635 
L 86.209587 236.632899 
L 86.526942 236.370699 
L 86.844298 235.752837 
L 87.479008 234.955659 
L 88.431074 233.306158 
L 88.74843 233.306157 
L 89.065785 232.693328 
L 89.700496 232.262858 
L 90.335207 231.940082 
L 90.969917 230.507886 
L 91.604628 230.469722 
L 91.921983 230.31078 
L 92.87405 228.948351 
L 93.191405 228.828568 
L 93.50876 228.206359 
L 93.826116 228.061209 
L 95.095537 226.951503 
L 96.047603 226.680408 
L 96.364959 225.980048 
L 96.682314 225.980045 
L 96.999669 225.626163 
L 97.63438 225.407833 
L 97.951736 224.819691 
L 98.269091 224.778953 
L 98.586446 224.516756 
L 98.903802 224.510479 
L 99.221157 224.112852 
L 100.173223 223.793122 
L 100.490579 223.553368 
L 100.807934 223.101711 
L 101.125289 222.91903 
L 101.76 222.252857 
L 102.077355 222.154229 
L 102.394711 221.464122 
L 103.029421 221.452213 
L 103.346777 220.839382 
L 103.981488 220.408914 
L 104.616198 220.229074 
L 104.933554 220.08614 
L 105.250909 219.270908 
L 105.88562 219.071222 
L 106.202975 218.777557 
L 106.520331 218.653939 
L 107.155041 218.615781 
L 107.472397 218.456838 
L 107.789752 218.018132 
L 108.107107 217.962192 
L 108.424463 217.729504 
L 108.741818 217.668421 
L 109.693884 217.013667 
L 110.328595 216.939373 
L 110.64595 216.352413 
L 110.963306 216.207266 
L 111.280661 215.910196 
L 111.598017 215.885385 
L 112.550083 215.376597 
L 114.13686 214.826466 
L 114.454215 214.16373 
L 115.088926 214.126101 
L 115.406281 213.77222 
L 116.040992 213.553886 
L 116.358347 213.527925 
L 116.675702 212.965747 
L 116.993058 212.925008 
L 117.310413 212.662813 
L 117.627769 212.656536 
L 117.945124 212.25891 
L 118.579835 212.17914 
L 119.214545 212.044942 
L 120.483967 211.827171 
L 120.801322 211.699424 
L 121.436033 211.247765 
L 123.02281 210.398913 
L 123.657521 210.300286 
L 123.974876 209.610181 
L 124.926942 209.496407 
L 126.196364 208.745523 
L 126.513719 208.728861 
L 126.831074 208.574877 
L 127.465785 208.506928 
L 128.100496 208.232198 
L 128.417851 207.416964 
L 129.052562 207.290949 
L 129.369917 207.217283 
L 129.687273 206.799992 
L 130.321983 206.76184 
L 131.591405 206.164186 
L 131.90876 206.108247 
L 132.226116 205.875563 
L 132.543471 205.814476 
L 132.860826 205.56358 
L 133.178182 205.479627 
L 133.495537 205.240463 
L 134.447603 205.085428 
L 134.764959 204.498468 
L 135.717025 204.245612 
L 136.03438 204.056256 
L 136.351736 204.031446 
L 137.303802 203.551265 
L 138.890579 203.363084 
L 139.842645 203.177782 
L 140.477355 203.078521 
L 140.794711 202.972523 
L 141.112066 202.409074 
L 141.746777 202.272158 
L 142.064132 202.272157 
L 142.381488 201.924986 
L 142.698843 201.918278 
L 143.333554 201.69994 
L 143.968264 201.600591 
L 144.28562 201.111803 
L 144.602975 201.071064 
L 144.920331 200.808869 
L 145.237686 200.802592 
L 145.555041 200.678584 
L 145.872397 200.404968 
L 146.507107 200.325195 
L 147.141818 200.190995 
L 148.728595 199.973229 
L 149.998017 199.39382 
L 150.950083 198.874369 
L 151.584793 198.856046 
L 151.902149 198.544968 
L 152.854215 198.213056 
L 153.806281 197.744329 
L 154.758347 197.642462 
L 155.710413 197.152425 
L 156.027769 197.13149 
L 156.662479 196.746818 
L 157.614545 196.652986 
L 158.249256 196.439169 
L 158.883967 196.378256 
L 159.201322 195.68189 
L 159.836033 195.449657 
L 161.105455 195.363344 
L 161.740165 195.287979 
L 162.057521 194.946046 
L 162.692231 194.907898 
L 163.326942 194.664037 
L 163.644298 194.643417 
L 163.961653 194.316235 
L 164.596364 194.254303 
L 164.913719 194.053624 
L 165.54843 193.960532 
L 166.18314 193.709635 
L 168.087273 193.231484 
L 168.404628 192.644523 
L 170.30876 192.177506 
L 170.626116 191.706847 
L 171.578182 191.578568 
L 174.117025 191.224579 
L 174.751736 191.051158 
L 175.069091 190.722657 
L 176.338512 190.418214 
L 176.655868 190.418213 
L 176.973223 190.071042 
L 177.290579 190.064336 
L 177.925289 189.845996 
L 179.194711 189.641031 
L 179.512066 189.257859 
L 180.464132 189.161243 
L 180.781488 188.954926 
L 181.098843 188.948649 
L 181.416198 188.824635 
L 181.733554 188.551026 
L 182.050909 188.527126 
L 182.368264 188.364135 
L 184.272397 188.119289 
L 184.907107 187.887879 
L 185.859174 187.696119 
L 186.176529 187.548212 
L 186.81124 187.531322 
L 187.763306 187.020423 
L 188.398017 187.002104 
L 188.715372 186.691023 
L 189.032727 186.595181 
L 189.667438 186.159132 
L 190.619504 185.890386 
L 191.888926 185.780761 
L 192.206281 185.628839 
L 192.840992 185.588909 
L 193.158347 185.375511 
L 194.110413 185.277545 
L 194.745124 184.866992 
L 195.379835 184.799045 
L 196.014545 184.655623 
L 196.966612 184.524313 
L 197.283967 183.827939 
L 197.601322 183.595714 
L 199.188099 183.434027 
L 199.505455 183.402899 
L 200.140165 183.0921 
L 200.774876 183.053955 
L 201.409587 182.810096 
L 201.726942 182.789467 
L 202.044298 182.470527 
L 203.313719 182.400359 
L 203.631074 182.199678 
L 204.265785 182.106588 
L 204.58314 181.926312 
L 205.535207 181.817755 
L 206.169917 181.729137 
L 206.804628 181.412795 
L 207.121983 181.37754 
L 207.439339 181.166517 
L 207.756694 180.709223 
L 209.343471 180.348377 
L 209.660826 179.852902 
L 211.564959 179.691971 
L 213.469091 179.450961 
L 214.421157 179.197208 
L 214.738512 178.868716 
L 215.373223 178.766023 
L 215.690579 178.747051 
L 216.007934 178.56427 
L 216.642645 178.510697 
L 216.96 178.445673 
L 217.277355 178.217099 
L 217.912066 178.130404 
L 218.546777 177.89271 
L 219.181488 177.787081 
L 219.816198 177.403915 
L 221.08562 177.307302 
L 221.402975 177.13382 
L 222.355041 176.970687 
L 222.672397 176.697083 
L 222.989752 176.673183 
L 223.307107 176.510197 
L 224.893884 176.307235 
L 225.21124 176.228776 
L 225.528595 176.033941 
L 226.480661 175.842175 
L 227.432727 175.448194 
L 227.750083 175.3801 
L 228.067438 175.166478 
L 229.019504 175.01934 
L 229.33686 174.837078 
L 229.97157 174.741235 
L 230.606281 174.305181 
L 231.558347 174.036443 
L 232.827769 173.926812 
L 233.462479 173.774899 
L 234.09719 173.551893 
L 235.049256 173.423601 
L 235.683967 173.013048 
L 236.318678 172.945104 
L 236.953388 172.801686 
L 237.905455 172.670371 
L 238.22281 171.973989 
L 238.540165 171.741772 
L 240.761653 171.548958 
L 241.396364 171.238154 
L 242.031074 171.168339 
L 242.98314 170.616577 
L 243.935207 170.546416 
L 244.252562 170.345733 
L 244.887273 170.252645 
L 245.204628 170.07238 
L 246.156694 169.963806 
L 246.791405 169.875189 
L 247.10876 169.678629 
L 248.695537 169.312572 
L 249.964959 168.797703 
L 250.599669 168.683793 
L 250.917025 168.514049 
L 251.23438 168.494438 
L 251.551736 168.132709 
L 251.869091 167.99252 
L 253.138512 167.870679 
L 255.36 167.597018 
L 255.994711 167.014775 
L 257.264132 166.893111 
L 257.581488 166.710326 
L 258.533554 166.656747 
L 258.850909 166.363156 
L 259.48562 166.276452 
L 260.120331 165.995528 
L 260.437686 165.933132 
L 261.072397 165.529403 
L 261.707107 165.453361 
L 262.976529 165.247039 
L 263.293884 165.240763 
L 263.61124 165.11674 
L 264.24595 164.656257 
L 265.832727 164.453292 
L 268.054215 163.823446 
L 268.37157 163.59425 
L 269.323636 163.312533 
L 270.593058 162.88729 
L 270.910413 162.348304 
L 275.353388 161.329752 
L 275.670744 161.159104 
L 275.988099 161.147998 
L 276.305455 160.959367 
L 277.574876 160.853257 
L 278.526942 160.498045 
L 279.161653 159.875164 
L 279.796364 159.804083 
L 280.74843 159.695016 
L 281.700496 159.384209 
L 282.017851 159.384209 
L 282.335207 159.212527 
L 282.652562 158.796117 
L 283.921983 158.692473 
L 284.556694 158.398701 
L 288.364959 157.458628 
L 289.317025 157.057659 
L 290.586446 156.829853 
L 291.221157 156.138575 
L 292.173223 155.99157 
L 293.76 155.76201 
L 294.394711 155.133515 
L 296.298843 154.802797 
L 296.933554 154.509214 
L 297.568264 154.422504 
L 298.202975 154.141579 
L 298.520331 154.079183 
L 299.155041 153.675462 
L 299.472397 153.669438 
L 300.107107 153.427157 
L 301.376529 153.250225 
L 302.01124 152.965297 
L 302.64595 152.622638 
L 303.598017 152.520894 
L 304.232727 152.326063 
L 304.867438 152.263631 
L 305.502149 151.797818 
L 307.088926 151.458589 
L 308.040992 151.188523 
L 308.675702 151.033345 
L 308.993058 150.667193 
L 309.945124 150.243433 
L 310.579835 150.16031 
L 310.89719 149.902254 
L 312.166612 149.657123 
L 312.801322 149.319598 
L 313.436033 149.281812 
L 314.070744 149.01252 
L 314.705455 148.898564 
L 315.340165 148.266092 
L 315.657521 147.956749 
L 316.926942 147.856333 
L 317.561653 147.530265 
L 318.196364 147.484183 
L 318.513719 146.942166 
L 319.78314 146.827382 
L 320.417851 146.544758 
L 320.735207 146.471361 
L 321.052562 146.255911 
L 321.687273 146.199228 
L 322.004628 145.914051 
L 322.956694 145.799072 
L 323.90876 145.561946 
L 325.495537 145.072727 
L 325.812893 144.675863 
L 326.130248 144.639204 
L 326.447603 144.284629 
L 327.082314 144.16279 
L 328.03438 143.969619 
L 328.351736 143.612982 
L 329.303802 143.227616 
L 330.573223 143.139848 
L 330.890579 142.995706 
L 331.525289 142.404262 
L 332.16 142.287632 
L 332.477355 142.225235 
L 332.794711 141.821522 
L 333.429421 141.764707 
L 334.381488 141.555375 
L 334.698843 141.54667 
L 336.920331 140.527254 
L 337.237686 140.472123 
L 337.555041 139.943884 
L 338.824463 139.617417 
L 339.776529 139.179401 
L 340.093884 138.71817 
L 341.363306 138.36497 
L 341.680661 138.048316 
L 342.315372 137.988004 
L 342.632727 137.803177 
L 342.950083 137.796731 
L 343.267438 137.621869 
L 343.584793 137.604412 
L 344.219504 137.440103 
L 344.53686 137.427873 
L 345.17157 137.158576 
L 345.806281 137.044623 
L 346.123636 136.790147 
L 346.440992 136.102801 
L 347.075702 136.095255 
L 347.710413 135.67632 
L 348.027769 135.63023 
L 348.345124 135.054729 
L 348.979835 134.783901 
L 349.931901 134.384887 
L 350.566612 134.345272 
L 350.883967 133.945127 
L 351.201322 133.772093 
L 351.836033 133.708013 
L 352.153388 133.546563 
L 352.470744 133.521806 
L 353.105455 133.218787 
L 353.42281 132.821922 
L 353.740165 132.78525 
L 354.057521 132.430684 
L 354.692231 132.308847 
L 355.009587 132.141505 
L 355.326942 131.759031 
L 355.961653 131.600897 
L 356.596364 131.373668 
L 357.231074 131.285901 
L 357.54843 131.156399 
L 358.18314 130.540115 
L 358.500496 130.433684 
L 358.817851 129.967582 
L 359.135207 129.701433 
L 359.452562 129.69274 
L 360.087273 129.436473 
L 360.404628 128.798971 
L 361.039339 128.67331 
L 361.356694 128.089948 
L 363.895537 127.16254 
L 364.530248 126.535544 
L 366.43438 125.611702 
L 367.069091 125.573932 
L 367.703802 125.253863 
L 368.021157 124.568243 
L 368.338512 124.248853 
L 368.655868 124.242253 
L 369.290579 123.20078 
L 369.925289 122.929958 
L 370.877355 122.530935 
L 371.194711 122.091184 
L 371.829421 121.69263 
L 372.146777 121.667863 
L 372.464132 121.495823 
L 373.098843 120.576737 
L 373.416198 120.263876 
L 373.733554 119.746947 
L 374.368264 119.519721 
L 375.002975 119.431954 
L 375.320331 119.302441 
L 375.637686 118.686155 
L 375.955041 118.579737 
L 376.907107 117.847492 
L 377.224463 117.838808 
L 377.541818 117.688377 
L 377.859174 116.945019 
L 378.493884 116.819365 
L 378.81124 116.034965 
L 379.128595 116.023973 
L 379.44595 115.308607 
L 380.398017 114.32229 
L 381.350083 113.757756 
L 381.667438 113.732209 
L 382.302149 113.399914 
L 382.619504 112.714303 
L 382.93686 112.307164 
L 383.254215 111.346832 
L 383.57157 111.333383 
L 383.888926 110.909529 
L 384.206281 110.676984 
L 384.840992 109.838694 
L 385.158347 109.799172 
L 385.793058 109.381269 
L 386.110413 109.077343 
L 386.745124 107.918445 
L 387.062479 107.665774 
L 387.69719 107.448485 
L 388.014545 106.234628 
L 388.331901 105.834429 
L 388.649256 105.091068 
L 388.966612 104.978325 
L 389.283967 104.181016 
L 389.601322 104.170031 
L 390.553388 101.90381 
L 390.870744 101.878264 
L 391.188099 101.001808 
L 391.82281 100.860361 
L 392.140165 98.823033 
L 392.457521 97.945228 
L 393.409587 96.555972 
L 393.726942 95.724064 
L 394.361653 93.237117 
L 394.679008 92.32707 
L 394.996364 92.12077 
L 395.313719 91.303572 
L 395.631074 90.816066 
L 396.265785 86.969084 
L 396.58314 86.091283 
L 396.900496 85.673376 
L 397.217851 79.449607 
L 397.535207 78.962114 
L 397.852562 77.164804 
L 398.487273 67.595643 
L 398.487273 67.595643 
" clip-path="url(#pa9d6775055)" style="fill: none; stroke: #ff7f0e; stroke-width: 1.5; stroke-linecap: square"/>
   </g>
   <g id="patch_3">
    <path d="M 57.6 307.584 
L 57.6 41.472 
" style="fill: none; stroke: #000000; stroke-width: 0.8; stroke-linejoin: miter; stroke-linecap: square"/>
   </g>
   <g id="patch_4">
    <path d="M 414.72 307.584 
L 414.72 41.472 
" style="fill: none; stroke: #000000; stroke-width: 0.8; stroke-linejoin: miter; stroke-linecap: square"/>
   </g>
   <g id="patch_5">
    <path d="M 57.6 307.584 
L 414.72 307.584 
" style="fill: none; stroke: #000000; stroke-width: 0.8; stroke-linejoin: miter; stroke-linecap: square"/>
   </g>
   <g id="patch_6">
    <path d="M 57.6 41.472 
L 414.72 41.472 
" style="fill: none; stroke: #000000; stroke-width: 0.8; stroke-linejoin: miter; stroke-linecap: square"/>
   </g>
   <g id="legend_1">
    <g id="patch_7">
     <path d="M 64.6 78.82825 
L 129.342187 78.82825 
Q 131.342187 78.82825 131.342187 76.82825 
L 131.342187 48.472 
Q 131.342187 46.472 129.342187 46.472 
L 64.6 46.472 
Q 62.6 46.472 62.6 48.472 
L 62.6 76.82825 
Q 62.6 78.82825 64.6 78.82825 
z
" style="fill: #ffffff; opacity: 0.8; stroke: #cccccc; stroke-linejoin: miter"/>
    </g>
    <g id="line2d_16">
     <path d="M 66.6 54.570437 
L 76.6 54.570437 
L 86.6 54.570437 
" style="fill: none; stroke: #1f77b4; stroke-width: 1.5; stroke-linecap: square"/>
    </g>
    <g id="text_16">
     <!-- qc -->
     <g transform="translate(94.6 58.070437) scale(0.1 -0.1)">
      <defs>
       <path id="DejaVuSans-71" d="M 947 1747 
Q 947 1113 1208 752 
Q 1469 391 1925 391 
Q 2381 391 2643 752 
Q 2906 1113 2906 1747 
Q 2906 2381 2643 2742 
Q 2381 3103 1925 3103 
Q 1469 3103 1208 2742 
Q 947 2381 947 1747 
z
M 2906 525 
Q 2725 213 2448 61 
Q 2172 -91 1784 -91 
Q 1150 -91 751 415 
Q 353 922 353 1747 
Q 353 2572 751 3078 
Q 1150 3584 1784 3584 
Q 2172 3584 2448 3432 
Q 2725 3281 2906 2969 
L 2906 3500 
L 3481 3500 
L 3481 -1331 
L 2906 -1331 
L 2906 525 
z
" transform="scale(0.015625)"/>
       <path id="DejaVuSans-63" d="M 3122 3366 
L 3122 2828 
Q 2878 2963 2633 3030 
Q 2388 3097 2138 3097 
Q 1578 3097 1268 2742 
Q 959 2388 959 1747 
Q 959 1106 1268 751 
Q 1578 397 2138 397 
Q 2388 397 2633 464 
Q 2878 531 3122 666 
L 3122 134 
Q 2881 22 2623 -34 
Q 2366 -91 2075 -91 
Q 1284 -91 818 406 
Q 353 903 353 1747 
Q 353 2603 823 3093 
Q 1294 3584 2113 3584 
Q 2378 3584 2631 3529 
Q 2884 3475 3122 3366 
z
" transform="scale(0.015625)"/>
      </defs>
      <use xlink:href="#DejaVuSans-71"/>
      <use xlink:href="#DejaVuSans-63" x="63.476562"/>
     </g>
    </g>
    <g id="line2d_17">
     <path d="M 66.6 69.248562 
L 76.6 69.248562 
L 86.6 69.248562 
" style="fill: none; stroke: #ff7f0e; stroke-width: 1.5; stroke-linecap: square"/>
    </g>
    <g id="text_17">
     <!-- Trotter -->
     <g transform="translate(94.6 72.748562) scale(0.1 -0.1)">
      <defs>
       <path id="DejaVuSans-54" d="M -19 4666 
L 3928 4666 
L 3928 4134 
L 2272 4134 
L 2272 0 
L 1638 0 
L 1638 4134 
L -19 4134 
L -19 4666 
z
" transform="scale(0.015625)"/>
       <path id="DejaVuSans-72" d="M 2631 2963 
Q 2534 3019 2420 3045 
Q 2306 3072 2169 3072 
Q 1681 3072 1420 2755 
Q 1159 2438 1159 1844 
L 1159 0 
L 581 0 
L 581 3500 
L 1159 3500 
L 1159 2956 
Q 1341 3275 1631 3429 
Q 1922 3584 2338 3584 
Q 2397 3584 2469 3576 
Q 2541 3569 2628 3553 
L 2631 2963 
z
" transform="scale(0.015625)"/>
       <path id="DejaVuSans-6f" d="M 1959 3097 
Q 1497 3097 1228 2736 
Q 959 2375 959 1747 
Q 959 1119 1226 758 
Q 1494 397 1959 397 
Q 2419 397 2687 759 
Q 2956 1122 2956 1747 
Q 2956 2369 2687 2733 
Q 2419 3097 1959 3097 
z
M 1959 3584 
Q 2709 3584 3137 3096 
Q 3566 2609 3566 1747 
Q 3566 888 3137 398 
Q 2709 -91 1959 -91 
Q 1206 -91 779 398 
Q 353 888 353 1747 
Q 353 2609 779 3096 
Q 1206 3584 1959 3584 
z
" transform="scale(0.015625)"/>
       <path id="DejaVuSans-65" d="M 3597 1894 
L 3597 1613 
L 953 1613 
Q 991 1019 1311 708 
Q 1631 397 2203 397 
Q 2534 397 2845 478 
Q 3156 559 3463 722 
L 3463 178 
Q 3153 47 2828 -22 
Q 2503 -91 2169 -91 
Q 1331 -91 842 396 
Q 353 884 353 1716 
Q 353 2575 817 3079 
Q 1281 3584 2069 3584 
Q 2775 3584 3186 3129 
Q 3597 2675 3597 1894 
z
M 3022 2063 
Q 3016 2534 2758 2815 
Q 2500 3097 2075 3097 
Q 1594 3097 1305 2825 
Q 1016 2553 972 2059 
L 3022 2063 
z
" transform="scale(0.015625)"/>
      </defs>
      <use xlink:href="#DejaVuSans-54"/>
      <use xlink:href="#DejaVuSans-72" x="46.333984"/>
      <use xlink:href="#DejaVuSans-6f" x="85.197266"/>
      <use xlink:href="#DejaVuSans-74" x="146.378906"/>
      <use xlink:href="#DejaVuSans-74" x="185.587891"/>
      <use xlink:href="#DejaVuSans-65" x="224.796875"/>
      <use xlink:href="#DejaVuSans-72" x="286.320312"/>
     </g>
    </g>
   </g>
  </g>
 </g>
 <defs>
  <clipPath id="pa9d6775055">
   <rect x="57.6" y="41.472" width="357.12" height="266.112"/>
  </clipPath>
 </defs>
</svg>
