<?xml version="1.0" encoding="utf-8" standalone="no"?>
<!DOCTYPE svg PUBLIC "-//W3C//DTD SVG 1.1//EN"
  "http://www.w3.org/Graphics/SVG/1.1/DTD/svg11.dtd">
<svg xmlns:xlink="http://www.w3.org/1999/xlink" width="460.8pt" height="345.6pt" viewBox="0 0 460.8 345.6" xmlns="http://www.w3.org/2000/svg" version="1.1">
 <metadata>
  <rdf:RDF xmlns:dc="http://purl.org/dc/elements/1.1/" xmlns:cc="http://creativecommons.org/ns#" xmlns:rdf="http://www.w3.org/1999/02/22-rdf-syntax-ns#">
   <cc:Work>
    <dc:type rdf:resource="http://purl.org/dc/dcmitype/StillImage"/>
    <dc:date>2024-06-07T01:45:28.480313</dc:date>
    <dc:format>image/svg+xml</dc:format>
    <dc:creator>
     <cc:Agent>
      <dc:title>Matplotlib v3.7.1, https://matplotlib.org/</dc:title>
     </cc:Agent>
    </dc:creator>
   </cc:Work>
  </rdf:RDF>
 </metadata>
 <defs>
  <style type="text/css">*{stroke-linejoin: round; stroke-linecap: butt}</style>
 </defs>
 <g id="figure_1">
  <g id="patch_1">
   <path d="M 0 345.6 
L 460.8 345.6 
L 460.8 0 
L 0 0 
z
" style="fill: #ffffff"/>
  </g>
  <g id="axes_1">
   <g id="patch_2">
    <path d="M 57.6 307.584 
L 414.72 307.584 
L 414.72 41.472 
L 57.6 41.472 
z
" style="fill: #ffffff"/>
   </g>
   <g id="matplotlib.axis_1">
    <g id="xtick_1">
     <g id="line2d_1">
      <defs>
       <path id="m1910920933" d="M 0 0 
L 0 3.5 
" style="stroke: #000000; stroke-width: 0.8"/>
      </defs>
      <g>
       <use xlink:href="#m1910920933" x="73.832727" y="307.584" style="stroke: #000000; stroke-width: 0.8"/>
      </g>
     </g>
     <g id="text_1">
      <!-- 0 -->
      <g transform="translate(70.651477 322.182437) scale(0.1 -0.1)">
       <defs>
        <path id="DejaVuSans-30" d="M 2034 4250 
Q 1547 4250 1301 3770 
Q 1056 3291 1056 2328 
Q 1056 1369 1301 889 
Q 1547 409 2034 409 
Q 2525 409 2770 889 
Q 3016 1369 3016 2328 
Q 3016 3291 2770 3770 
Q 2525 4250 2034 4250 
z
M 2034 4750 
Q 2819 4750 3233 4129 
Q 3647 3509 3647 2328 
Q 3647 1150 3233 529 
Q 2819 -91 2034 -91 
Q 1250 -91 836 529 
Q 422 1150 422 2328 
Q 422 3509 836 4129 
Q 1250 4750 2034 4750 
z
" transform="scale(0.015625)"/>
       </defs>
       <use xlink:href="#DejaVuSans-30"/>
      </g>
     </g>
    </g>
    <g id="xtick_2">
     <g id="line2d_2">
      <g>
       <use xlink:href="#m1910920933" x="137.303802" y="307.584" style="stroke: #000000; stroke-width: 0.8"/>
      </g>
     </g>
     <g id="text_2">
      <!-- 200 -->
      <g transform="translate(127.760052 322.182437) scale(0.1 -0.1)">
       <defs>
        <path id="DejaVuSans-32" d="M 1228 531 
L 3431 531 
L 3431 0 
L 469 0 
L 469 531 
Q 828 903 1448 1529 
Q 2069 2156 2228 2338 
Q 2531 2678 2651 2914 
Q 2772 3150 2772 3378 
Q 2772 3750 2511 3984 
Q 2250 4219 1831 4219 
Q 1534 4219 1204 4116 
Q 875 4013 500 3803 
L 500 4441 
Q 881 4594 1212 4672 
Q 1544 4750 1819 4750 
Q 2544 4750 2975 4387 
Q 3406 4025 3406 3419 
Q 3406 3131 3298 2873 
Q 3191 2616 2906 2266 
Q 2828 2175 2409 1742 
Q 1991 1309 1228 531 
z
" transform="scale(0.015625)"/>
       </defs>
       <use xlink:href="#DejaVuSans-32"/>
       <use xlink:href="#DejaVuSans-30" x="63.623047"/>
       <use xlink:href="#DejaVuSans-30" x="127.246094"/>
      </g>
     </g>
    </g>
    <g id="xtick_3">
     <g id="line2d_3">
      <g>
       <use xlink:href="#m1910920933" x="200.774876" y="307.584" style="stroke: #000000; stroke-width: 0.8"/>
      </g>
     </g>
     <g id="text_3">
      <!-- 400 -->
      <g transform="translate(191.231126 322.182437) scale(0.1 -0.1)">
       <defs>
        <path id="DejaVuSans-34" d="M 2419 4116 
L 825 1625 
L 2419 1625 
L 2419 4116 
z
M 2253 4666 
L 3047 4666 
L 3047 1625 
L 3713 1625 
L 3713 1100 
L 3047 1100 
L 3047 0 
L 2419 0 
L 2419 1100 
L 313 1100 
L 313 1709 
L 2253 4666 
z
" transform="scale(0.015625)"/>
       </defs>
       <use xlink:href="#DejaVuSans-34"/>
       <use xlink:href="#DejaVuSans-30" x="63.623047"/>
       <use xlink:href="#DejaVuSans-30" x="127.246094"/>
      </g>
     </g>
    </g>
    <g id="xtick_4">
     <g id="line2d_4">
      <g>
       <use xlink:href="#m1910920933" x="264.24595" y="307.584" style="stroke: #000000; stroke-width: 0.8"/>
      </g>
     </g>
     <g id="text_4">
      <!-- 600 -->
      <g transform="translate(254.7022 322.182437) scale(0.1 -0.1)">
       <defs>
        <path id="DejaVuSans-36" d="M 2113 2584 
Q 1688 2584 1439 2293 
Q 1191 2003 1191 1497 
Q 1191 994 1439 701 
Q 1688 409 2113 409 
Q 2538 409 2786 701 
Q 3034 994 3034 1497 
Q 3034 2003 2786 2293 
Q 2538 2584 2113 2584 
z
M 3366 4563 
L 3366 3988 
Q 3128 4100 2886 4159 
Q 2644 4219 2406 4219 
Q 1781 4219 1451 3797 
Q 1122 3375 1075 2522 
Q 1259 2794 1537 2939 
Q 1816 3084 2150 3084 
Q 2853 3084 3261 2657 
Q 3669 2231 3669 1497 
Q 3669 778 3244 343 
Q 2819 -91 2113 -91 
Q 1303 -91 875 529 
Q 447 1150 447 2328 
Q 447 3434 972 4092 
Q 1497 4750 2381 4750 
Q 2619 4750 2861 4703 
Q 3103 4656 3366 4563 
z
" transform="scale(0.015625)"/>
       </defs>
       <use xlink:href="#DejaVuSans-36"/>
       <use xlink:href="#DejaVuSans-30" x="63.623047"/>
       <use xlink:href="#DejaVuSans-30" x="127.246094"/>
      </g>
     </g>
    </g>
    <g id="xtick_5">
     <g id="line2d_5">
      <g>
       <use xlink:href="#m1910920933" x="327.717025" y="307.584" style="stroke: #000000; stroke-width: 0.8"/>
      </g>
     </g>
     <g id="text_5">
      <!-- 800 -->
      <g transform="translate(318.173275 322.182437) scale(0.1 -0.1)">
       <defs>
        <path id="DejaVuSans-38" d="M 2034 2216 
Q 1584 2216 1326 1975 
Q 1069 1734 1069 1313 
Q 1069 891 1326 650 
Q 1584 409 2034 409 
Q 2484 409 2743 651 
Q 3003 894 3003 1313 
Q 3003 1734 2745 1975 
Q 2488 2216 2034 2216 
z
M 1403 2484 
Q 997 2584 770 2862 
Q 544 3141 544 3541 
Q 544 4100 942 4425 
Q 1341 4750 2034 4750 
Q 2731 4750 3128 4425 
Q 3525 4100 3525 3541 
Q 3525 3141 3298 2862 
Q 3072 2584 2669 2484 
Q 3125 2378 3379 2068 
Q 3634 1759 3634 1313 
Q 3634 634 3220 271 
Q 2806 -91 2034 -91 
Q 1263 -91 848 271 
Q 434 634 434 1313 
Q 434 1759 690 2068 
Q 947 2378 1403 2484 
z
M 1172 3481 
Q 1172 3119 1398 2916 
Q 1625 2713 2034 2713 
Q 2441 2713 2670 2916 
Q 2900 3119 2900 3481 
Q 2900 3844 2670 4047 
Q 2441 4250 2034 4250 
Q 1625 4250 1398 4047 
Q 1172 3844 1172 3481 
z
" transform="scale(0.015625)"/>
       </defs>
       <use xlink:href="#DejaVuSans-38"/>
       <use xlink:href="#DejaVuSans-30" x="63.623047"/>
       <use xlink:href="#DejaVuSans-30" x="127.246094"/>
      </g>
     </g>
    </g>
    <g id="xtick_6">
     <g id="line2d_6">
      <g>
       <use xlink:href="#m1910920933" x="391.188099" y="307.584" style="stroke: #000000; stroke-width: 0.8"/>
      </g>
     </g>
     <g id="text_6">
      <!-- 1000 -->
      <g transform="translate(378.463099 322.182437) scale(0.1 -0.1)">
       <defs>
        <path id="DejaVuSans-31" d="M 794 531 
L 1825 531 
L 1825 4091 
L 703 3866 
L 703 4441 
L 1819 4666 
L 2450 4666 
L 2450 531 
L 3481 531 
L 3481 0 
L 794 0 
L 794 531 
z
" transform="scale(0.015625)"/>
       </defs>
       <use xlink:href="#DejaVuSans-31"/>
       <use xlink:href="#DejaVuSans-30" x="63.623047"/>
       <use xlink:href="#DejaVuSans-30" x="127.246094"/>
       <use xlink:href="#DejaVuSans-30" x="190.869141"/>
      </g>
     </g>
    </g>
    <g id="text_7">
     <!-- n -->
     <g transform="translate(232.99125 335.860562) scale(0.1 -0.1)">
      <defs>
       <path id="DejaVuSans-6e" d="M 3513 2113 
L 3513 0 
L 2938 0 
L 2938 2094 
Q 2938 2591 2744 2837 
Q 2550 3084 2163 3084 
Q 1697 3084 1428 2787 
Q 1159 2491 1159 1978 
L 1159 0 
L 581 0 
L 581 3500 
L 1159 3500 
L 1159 2956 
Q 1366 3272 1645 3428 
Q 1925 3584 2291 3584 
Q 2894 3584 3203 3211 
Q 3513 2838 3513 2113 
z
" transform="scale(0.015625)"/>
      </defs>
      <use xlink:href="#DejaVuSans-6e"/>
     </g>
    </g>
   </g>
   <g id="matplotlib.axis_2">
    <g id="ytick_1">
     <g id="line2d_7">
      <defs>
       <path id="m3913336766" d="M 0 0 
L -3.5 0 
" style="stroke: #000000; stroke-width: 0.8"/>
      </defs>
      <g>
       <use xlink:href="#m3913336766" x="57.6" y="291.386171" style="stroke: #000000; stroke-width: 0.8"/>
      </g>
     </g>
     <g id="text_8">
      <!-- −3 -->
      <g transform="translate(35.857813 295.18539) scale(0.1 -0.1)">
       <defs>
        <path id="DejaVuSans-2212" d="M 678 2272 
L 4684 2272 
L 4684 1741 
L 678 1741 
L 678 2272 
z
" transform="scale(0.015625)"/>
        <path id="DejaVuSans-33" d="M 2597 2516 
Q 3050 2419 3304 2112 
Q 3559 1806 3559 1356 
Q 3559 666 3084 287 
Q 2609 -91 1734 -91 
Q 1441 -91 1130 -33 
Q 819 25 488 141 
L 488 750 
Q 750 597 1062 519 
Q 1375 441 1716 441 
Q 2309 441 2620 675 
Q 2931 909 2931 1356 
Q 2931 1769 2642 2001 
Q 2353 2234 1838 2234 
L 1294 2234 
L 1294 2753 
L 1863 2753 
Q 2328 2753 2575 2939 
Q 2822 3125 2822 3475 
Q 2822 3834 2567 4026 
Q 2313 4219 1838 4219 
Q 1578 4219 1281 4162 
Q 984 4106 628 3988 
L 628 4550 
Q 988 4650 1302 4700 
Q 1616 4750 1894 4750 
Q 2613 4750 3031 4423 
Q 3450 4097 3450 3541 
Q 3450 3153 3228 2886 
Q 3006 2619 2597 2516 
z
" transform="scale(0.015625)"/>
       </defs>
       <use xlink:href="#DejaVuSans-2212"/>
       <use xlink:href="#DejaVuSans-33" x="83.789062"/>
      </g>
     </g>
    </g>
    <g id="ytick_2">
     <g id="line2d_8">
      <g>
       <use xlink:href="#m3913336766" x="57.6" y="251.781182" style="stroke: #000000; stroke-width: 0.8"/>
      </g>
     </g>
     <g id="text_9">
      <!-- −2 -->
      <g transform="translate(35.857813 255.5804) scale(0.1 -0.1)">
       <use xlink:href="#DejaVuSans-2212"/>
       <use xlink:href="#DejaVuSans-32" x="83.789062"/>
      </g>
     </g>
    </g>
    <g id="ytick_3">
     <g id="line2d_9">
      <g>
       <use xlink:href="#m3913336766" x="57.6" y="212.176192" style="stroke: #000000; stroke-width: 0.8"/>
      </g>
     </g>
     <g id="text_10">
      <!-- −1 -->
      <g transform="translate(35.857813 215.975411) scale(0.1 -0.1)">
       <use xlink:href="#DejaVuSans-2212"/>
       <use xlink:href="#DejaVuSans-31" x="83.789062"/>
      </g>
     </g>
    </g>
    <g id="ytick_4">
     <g id="line2d_10">
      <g>
       <use xlink:href="#m3913336766" x="57.6" y="172.571202" style="stroke: #000000; stroke-width: 0.8"/>
      </g>
     </g>
     <g id="text_11">
      <!-- 0 -->
      <g transform="translate(44.2375 176.370421) scale(0.1 -0.1)">
       <use xlink:href="#DejaVuSans-30"/>
      </g>
     </g>
    </g>
    <g id="ytick_5">
     <g id="line2d_11">
      <g>
       <use xlink:href="#m3913336766" x="57.6" y="132.966212" style="stroke: #000000; stroke-width: 0.8"/>
      </g>
     </g>
     <g id="text_12">
      <!-- 1 -->
      <g transform="translate(44.2375 136.765431) scale(0.1 -0.1)">
       <use xlink:href="#DejaVuSans-31"/>
      </g>
     </g>
    </g>
    <g id="ytick_6">
     <g id="line2d_12">
      <g>
       <use xlink:href="#m3913336766" x="57.6" y="93.361223" style="stroke: #000000; stroke-width: 0.8"/>
      </g>
     </g>
     <g id="text_13">
      <!-- 2 -->
      <g transform="translate(44.2375 97.160441) scale(0.1 -0.1)">
       <use xlink:href="#DejaVuSans-32"/>
      </g>
     </g>
    </g>
    <g id="ytick_7">
     <g id="line2d_13">
      <g>
       <use xlink:href="#m3913336766" x="57.6" y="53.756233" style="stroke: #000000; stroke-width: 0.8"/>
      </g>
     </g>
     <g id="text_14">
      <!-- 3 -->
      <g transform="translate(44.2375 57.555452) scale(0.1 -0.1)">
       <use xlink:href="#DejaVuSans-33"/>
      </g>
     </g>
    </g>
    <g id="text_15">
     <!-- E*t -->
     <g transform="translate(29.778125 182.147531) rotate(-90) scale(0.1 -0.1)">
      <defs>
       <path id="DejaVuSans-45" d="M 628 4666 
L 3578 4666 
L 3578 4134 
L 1259 4134 
L 1259 2753 
L 3481 2753 
L 3481 2222 
L 1259 2222 
L 1259 531 
L 3634 531 
L 3634 0 
L 628 0 
L 628 4666 
z
" transform="scale(0.015625)"/>
       <path id="DejaVuSans-2a" d="M 3009 3897 
L 1888 3291 
L 3009 2681 
L 2828 2375 
L 1778 3009 
L 1778 1831 
L 1422 1831 
L 1422 3009 
L 372 2375 
L 191 2681 
L 1313 3291 
L 191 3897 
L 372 4206 
L 1422 3572 
L 1422 4750 
L 1778 4750 
L 1778 3572 
L 2828 4206 
L 3009 3897 
z
" transform="scale(0.015625)"/>
       <path id="DejaVuSans-74" d="M 1172 4494 
L 1172 3500 
L 2356 3500 
L 2356 3053 
L 1172 3053 
L 1172 1153 
Q 1172 725 1289 603 
Q 1406 481 1766 481 
L 2356 481 
L 2356 0 
L 1766 0 
Q 1100 0 847 248 
Q 594 497 594 1153 
L 594 3053 
L 172 3053 
L 172 3500 
L 594 3500 
L 594 4494 
L 1172 4494 
z
" transform="scale(0.015625)"/>
      </defs>
      <use xlink:href="#DejaVuSans-45"/>
      <use xlink:href="#DejaVuSans-2a" x="63.183594"/>
      <use xlink:href="#DejaVuSans-74" x="113.183594"/>
     </g>
    </g>
   </g>
   <g id="line2d_14">
    <path d="M 73.832727 295.488 
L 74.150083 294.769796 
L 74.467438 293.04934 
L 75.102149 283.367741 
L 75.73686 281.009765 
L 76.37157 276.386723 
L 76.688926 274.830341 
L 77.006281 274.431945 
L 77.323636 271.227775 
L 78.275702 268.941404 
L 78.593058 267.215608 
L 78.910413 267.081521 
L 79.227769 266.534939 
L 79.545124 266.347927 
L 79.862479 264.208087 
L 80.179835 263.808772 
L 80.814545 262.620768 
L 81.131901 262.144844 
L 81.449256 261.095745 
L 81.766612 260.772925 
L 82.083967 259.797981 
L 82.401322 259.654018 
L 83.353388 258.006702 
L 83.670744 257.803737 
L 84.62281 255.16875 
L 85.257521 254.47965 
L 85.574876 253.921746 
L 86.209587 253.654925 
L 86.526942 252.565289 
L 86.844298 252.145547 
L 87.161653 252.004331 
L 87.479008 251.697094 
L 87.796364 250.580209 
L 88.74843 249.949495 
L 89.065785 249.851082 
L 90.017851 247.656403 
L 90.652562 247.494777 
L 90.969917 246.814929 
L 91.287273 246.772321 
L 91.604628 245.866759 
L 92.239339 245.47138 
L 92.556694 245.456112 
L 93.191405 244.586675 
L 93.50876 244.471714 
L 93.826116 244.228961 
L 94.143471 243.245112 
L 94.460826 243.073254 
L 94.778182 242.628839 
L 95.412893 242.342971 
L 95.730248 241.705728 
L 96.047603 241.413288 
L 96.364959 241.284769 
L 96.682314 240.788867 
L 96.999669 240.615338 
L 97.63438 239.764637 
L 97.951736 239.555776 
L 98.269091 238.470351 
L 98.903802 238.207623 
L 99.221157 238.17793 
L 99.855868 237.789156 
L 100.807934 237.42575 
L 101.125289 236.588302 
L 101.76 236.21698 
L 102.077355 236.190541 
L 102.394711 235.712318 
L 102.712066 235.459606 
L 103.029421 235.428032 
L 103.346777 235.240791 
L 103.664132 235.221916 
L 103.981488 234.329784 
L 104.933554 233.351335 
L 105.88562 232.683311 
L 106.202975 232.629608 
L 106.837686 232.057513 
L 107.472397 231.950232 
L 107.789752 231.783718 
L 108.107107 231.240051 
L 109.059174 230.364014 
L 109.376529 230.319834 
L 109.693884 230.146866 
L 110.01124 229.643771 
L 110.64595 229.510619 
L 111.280661 228.798517 
L 112.550083 228.279668 
L 112.867438 227.887774 
L 113.819504 227.704098 
L 114.13686 227.384346 
L 114.454215 227.319252 
L 114.77157 226.155345 
L 115.406281 225.961783 
L 116.358347 225.778412 
L 116.993058 225.213551 
L 117.627769 225.069231 
L 118.262479 224.618963 
L 118.89719 224.388882 
L 120.801322 222.362747 
L 123.657521 221.249414 
L 123.974876 220.903981 
L 125.879008 219.912588 
L 126.196364 219.829757 
L 127.465785 219.006405 
L 128.100496 218.893084 
L 128.735207 218.209087 
L 129.369917 217.908118 
L 130.004628 217.830774 
L 130.321983 217.354297 
L 131.90876 216.767458 
L 132.226116 216.577115 
L 132.543471 216.539509 
L 132.860826 216.284791 
L 133.178182 215.707735 
L 133.495537 215.680486 
L 134.130248 215.315859 
L 135.082314 215.057218 
L 135.399669 214.439027 
L 135.717025 214.327939 
L 136.03438 213.983068 
L 136.986446 213.561731 
L 137.621157 213.491558 
L 138.255868 213.237107 
L 138.573223 212.903631 
L 139.207934 212.714898 
L 139.525289 212.437396 
L 140.16 212.364634 
L 140.794711 211.747962 
L 141.746777 211.480168 
L 142.381488 210.893258 
L 142.698843 210.632788 
L 143.650909 210.464727 
L 144.28562 210.109425 
L 144.920331 209.826041 
L 145.237686 209.80917 
L 145.555041 209.398742 
L 146.189752 209.281455 
L 146.507107 208.982818 
L 146.824463 208.862886 
L 147.141818 208.606245 
L 147.459174 208.042809 
L 147.776529 207.854172 
L 148.728595 207.695549 
L 149.04595 207.659787 
L 149.363306 207.454374 
L 149.680661 207.429813 
L 150.315372 207.163994 
L 151.584793 206.791371 
L 151.902149 206.564584 
L 152.53686 206.487007 
L 152.854215 205.841473 
L 153.488926 205.709676 
L 153.806281 205.303332 
L 154.440992 205.221765 
L 155.075702 204.52756 
L 156.662479 204.235261 
L 157.614545 204.019163 
L 158.249256 203.487448 
L 159.201322 203.142214 
L 159.518678 202.90726 
L 159.836033 202.902523 
L 160.470744 202.589401 
L 160.788099 202.412739 
L 161.105455 202.405537 
L 163.326942 201.096404 
L 163.961653 200.965413 
L 164.279008 200.429956 
L 165.865785 199.410524 
L 166.817851 199.188402 
L 167.135207 198.958581 
L 168.404628 198.706288 
L 168.721983 198.682976 
L 169.039339 198.495925 
L 169.356694 198.441108 
L 169.67405 198.025788 
L 171.578182 197.20042 
L 171.895537 196.870969 
L 173.482314 196.313144 
L 174.117025 196.049018 
L 174.751736 195.74311 
L 175.069091 195.396605 
L 175.703802 195.235853 
L 176.021157 195.214039 
L 176.338512 194.967677 
L 177.925289 194.645132 
L 178.242645 194.535186 
L 178.56 194.089531 
L 179.194711 193.950336 
L 179.512066 193.703561 
L 179.829421 193.673578 
L 180.146777 193.513824 
L 180.464132 193.196683 
L 181.416198 193.000249 
L 182.050909 192.953419 
L 182.368264 192.282798 
L 183.002975 191.914896 
L 183.320331 191.909191 
L 183.955041 191.519701 
L 184.272397 191.480523 
L 184.589752 191.296276 
L 184.907107 191.279209 
L 185.224463 190.986698 
L 188.080661 190.155381 
L 188.398017 189.921672 
L 188.715372 189.885409 
L 189.667438 189.299633 
L 189.984793 188.963947 
L 190.93686 188.883313 
L 191.254215 188.541694 
L 191.888926 188.397646 
L 192.206281 188.381352 
L 193.475702 187.64151 
L 193.793058 187.378796 
L 194.110413 187.370221 
L 194.427769 187.154259 
L 194.745124 187.117987 
L 195.062479 186.757395 
L 195.379835 186.742012 
L 196.331901 186.373941 
L 196.649256 186.332867 
L 196.966612 186.1154 
L 197.283967 186.080481 
L 197.918678 185.730585 
L 198.236033 185.721878 
L 198.870744 185.380386 
L 199.505455 185.241637 
L 200.457521 185.09139 
L 200.774876 184.792029 
L 201.726942 184.666534 
L 202.044298 184.396257 
L 202.361653 184.383618 
L 202.679008 184.114158 
L 203.94843 183.804005 
L 204.265785 183.684549 
L 204.58314 182.933379 
L 205.535207 182.725127 
L 206.487273 182.524587 
L 206.804628 182.281083 
L 208.07405 181.944863 
L 209.026116 181.558448 
L 209.978182 181.43348 
L 210.295537 181.273541 
L 210.612893 180.950976 
L 210.930248 180.822706 
L 211.247603 180.273831 
L 211.882314 179.874797 
L 212.517025 179.835583 
L 214.103802 179.115512 
L 214.738512 179.024373 
L 215.373223 178.233075 
L 216.325289 178.140966 
L 218.864132 177.546385 
L 219.181488 177.416402 
L 219.816198 177.389712 
L 220.768264 176.870885 
L 222.037686 176.545674 
L 223.624463 175.356001 
L 223.941818 175.294353 
L 224.576529 174.783725 
L 225.528595 174.707386 
L 225.84595 174.460884 
L 226.163306 174.39505 
L 226.480661 173.835734 
L 227.115372 173.792878 
L 227.432727 173.569148 
L 228.702149 173.397574 
L 229.33686 173.266707 
L 230.606281 173.099534 
L 231.558347 172.765621 
L 232.510413 172.61337 
L 233.145124 172.381719 
L 233.462479 172.056242 
L 233.779835 172.010897 
L 234.09719 171.783108 
L 234.414545 171.771211 
L 235.366612 171.142093 
L 235.683967 170.659853 
L 236.953388 170.002315 
L 237.588099 169.8026 
L 237.905455 169.652481 
L 238.22281 169.647096 
L 238.540165 169.428902 
L 239.492231 169.162313 
L 239.809587 169.010776 
L 240.761653 168.830604 
L 241.396364 168.641471 
L 242.665785 168.509178 
L 242.98314 168.207059 
L 243.935207 168.115852 
L 244.252562 167.833807 
L 245.204628 167.564804 
L 246.791405 166.463651 
L 247.426116 166.323902 
L 248.378182 166.086503 
L 248.695537 165.520899 
L 249.964959 165.261634 
L 250.599669 165.217797 
L 250.917025 165.016609 
L 252.503802 164.776349 
L 253.455868 164.670367 
L 254.090579 163.535533 
L 254.725289 163.256562 
L 255.042645 162.843055 
L 255.36 162.774299 
L 255.994711 162.41713 
L 256.946777 162.26637 
L 258.216198 161.948957 
L 258.850909 161.756663 
L 259.802975 161.321753 
L 260.120331 161.311207 
L 261.072397 160.794464 
L 262.024463 160.645453 
L 264.24595 160.129377 
L 264.563306 160.126394 
L 264.880661 159.988882 
L 265.198017 159.567056 
L 265.515372 159.376173 
L 266.784793 159.092583 
L 267.73686 158.380022 
L 268.054215 158.254658 
L 268.37157 157.890151 
L 269.323636 157.728619 
L 270.275702 157.385155 
L 270.910413 157.217619 
L 271.227769 156.663547 
L 272.49719 156.345127 
L 272.814545 156.082073 
L 273.766612 155.982703 
L 274.718678 155.68587 
L 275.988099 155.436369 
L 276.305455 155.259587 
L 276.940165 155.218105 
L 277.257521 154.527076 
L 278.526942 154.250753 
L 279.161653 153.976769 
L 279.796364 153.550671 
L 281.065785 153.108029 
L 283.921983 151.716411 
L 289.951736 150.199123 
L 290.269091 149.882993 
L 290.903802 148.47276 
L 291.221157 148.449961 
L 291.855868 148.259137 
L 292.807934 148.122666 
L 293.125289 147.928828 
L 293.442645 147.889644 
L 293.76 147.705531 
L 295.664132 147.360489 
L 297.250909 146.918691 
L 297.568264 146.730471 
L 297.88562 146.692212 
L 298.202975 146.471699 
L 298.837686 146.409171 
L 299.472397 145.364538 
L 300.107107 145.191428 
L 300.741818 144.849995 
L 301.693884 144.554048 
L 302.01124 144.312431 
L 302.328595 144.287377 
L 302.64595 143.892489 
L 304.232727 143.392599 
L 305.502149 143.001138 
L 306.13686 142.846617 
L 307.406281 142.516994 
L 308.040992 142.011964 
L 308.675702 141.712171 
L 308.993058 141.461957 
L 309.310413 141.424561 
L 309.627769 141.195708 
L 310.579835 140.946923 
L 311.531901 140.41168 
L 311.849256 140.393087 
L 312.166612 140.069576 
L 313.753388 139.521437 
L 314.070744 139.312061 
L 315.02281 139.154172 
L 315.974876 138.842797 
L 316.292231 138.596179 
L 316.609587 138.154658 
L 317.244298 138.04434 
L 317.879008 137.891788 
L 318.196364 137.45433 
L 318.513719 137.445142 
L 320.100496 136.888986 
L 320.417851 136.477942 
L 321.052562 136.365904 
L 321.369917 136.335882 
L 321.687273 136.161825 
L 322.004628 135.670218 
L 322.321983 135.643918 
L 322.639339 135.194913 
L 323.27405 135.119677 
L 323.591405 134.831021 
L 324.543471 134.450804 
L 325.495537 134.050571 
L 325.812893 133.943538 
L 326.130248 133.635085 
L 327.082314 133.41081 
L 327.717025 133.165346 
L 328.03438 132.711177 
L 328.351736 132.566779 
L 328.986446 132.001346 
L 330.255868 131.543893 
L 330.573223 131.321809 
L 330.890579 131.321134 
L 331.207934 130.833484 
L 334.064132 130.137028 
L 335.333554 129.816597 
L 335.650909 129.361767 
L 336.602975 129.086782 
L 337.237686 128.861235 
L 337.555041 128.418424 
L 338.824463 127.91968 
L 339.459174 127.685398 
L 339.776529 127.210514 
L 340.093884 127.154094 
L 340.41124 126.682845 
L 341.04595 126.507388 
L 341.680661 125.772292 
L 342.315372 125.652898 
L 343.267438 125.1199 
L 343.902149 125.02703 
L 344.854215 123.853693 
L 345.488926 123.716703 
L 346.440992 123.003965 
L 346.758347 122.982112 
L 347.393058 122.472909 
L 348.027769 122.417906 
L 348.662479 121.887358 
L 350.249256 121.418646 
L 352.470744 120.236427 
L 352.788099 120.217618 
L 353.42281 119.193262 
L 354.057521 118.806163 
L 354.374876 118.793968 
L 354.692231 118.584225 
L 355.009587 118.573522 
L 355.326942 118.305193 
L 355.644298 118.193824 
L 355.961653 117.925829 
L 356.596364 117.730719 
L 356.913719 117.171589 
L 357.54843 117.033178 
L 358.18314 116.80467 
L 358.817851 116.627661 
L 359.135207 116.293789 
L 359.769917 116.074843 
L 360.087273 115.668731 
L 360.404628 115.62552 
L 361.67405 114.185669 
L 361.991405 113.706497 
L 362.626116 113.479073 
L 362.943471 113.176465 
L 363.260826 112.671683 
L 363.578182 112.426992 
L 363.895537 112.391436 
L 364.212893 112.019696 
L 364.847603 111.778758 
L 365.799669 111.004117 
L 366.117025 110.928796 
L 366.751736 110.409385 
L 367.069091 110.379681 
L 367.703802 109.719245 
L 369.607934 108.881701 
L 369.925289 108.572439 
L 370.56 107.742597 
L 371.194711 107.549987 
L 371.512066 107.412127 
L 372.146777 106.688897 
L 373.098843 106.284592 
L 373.416198 105.46914 
L 374.368264 104.869015 
L 374.68562 103.768514 
L 375.320331 103.600952 
L 375.637686 103.066405 
L 375.955041 103.036367 
L 376.272397 102.675423 
L 376.907107 102.358632 
L 377.224463 102.166472 
L 377.859174 100.730475 
L 378.81124 100.189762 
L 379.44595 99.43042 
L 379.763306 98.922122 
L 380.398017 98.721936 
L 381.032727 98.424061 
L 381.350083 97.655878 
L 381.984793 96.664514 
L 382.302149 95.2915 
L 382.619504 94.915168 
L 383.888926 94.491549 
L 384.206281 93.503598 
L 385.158347 92.731556 
L 385.475702 92.604793 
L 385.793058 92.316449 
L 386.427769 90.481018 
L 387.062479 90.300329 
L 387.379835 89.060325 
L 388.014545 88.260037 
L 388.331901 88.167879 
L 388.649256 87.512838 
L 388.966612 87.329169 
L 389.283967 86.341777 
L 389.601322 86.151032 
L 390.553388 83.622394 
L 391.188099 83.569188 
L 391.505455 83.330893 
L 392.140165 80.904701 
L 392.774876 79.926484 
L 393.092231 79.114106 
L 393.409587 77.403166 
L 393.726942 76.970407 
L 394.044298 75.090533 
L 394.361653 74.980994 
L 394.679008 74.309427 
L 394.996364 74.012656 
L 395.631074 72.433964 
L 395.94843 70.674216 
L 396.265785 65.373548 
L 396.58314 65.248068 
L 396.900496 64.767486 
L 397.217851 63.947579 
L 397.535207 58.746327 
L 397.852562 56.261812 
L 398.169917 55.344583 
L 398.487273 53.568 
L 398.487273 53.568 
" clip-path="url(#p56bee76e1c)" style="fill: none; stroke: #1f77b4; stroke-width: 1.5; stroke-linecap: square"/>
   </g>
   <g id="line2d_15">
    <path d="M 73.832727 285.445423 
L 74.150083 273.563925 
L 74.467438 272.400869 
L 74.784793 269.025563 
L 75.102149 263.768423 
L 75.419504 261.682427 
L 76.054215 259.250104 
L 76.37157 257.144069 
L 76.688926 257.144067 
L 77.006281 256.098345 
L 77.323636 252.656072 
L 77.640992 251.886927 
L 77.958347 250.609157 
L 78.275702 249.800933 
L 78.593058 249.800929 
L 78.910413 248.637877 
L 79.227769 248.597048 
L 80.179835 245.262572 
L 80.49719 245.262572 
L 81.131901 244.216848 
L 81.449256 243.893319 
L 82.718678 240.774575 
L 83.036033 240.150922 
L 83.353388 240.005432 
L 83.670744 239.707666 
L 83.988099 238.808191 
L 84.305455 238.727663 
L 84.62281 237.919435 
L 84.940165 237.919432 
L 85.257521 237.408397 
L 85.574876 237.345892 
L 85.892231 236.75638 
L 86.209587 236.71555 
L 86.526942 236.45274 
L 86.844298 235.833442 
L 87.479008 235.034411 
L 88.431074 233.381076 
L 88.74843 233.381075 
L 89.065785 232.766822 
L 89.700496 232.335351 
L 90.335207 232.011825 
L 90.969917 230.5763 
L 91.604628 230.538047 
L 91.921983 230.378736 
L 92.87405 229.01314 
L 93.191405 228.893079 
L 93.50876 228.269423 
L 93.826116 228.123936 
L 95.095537 227.011651 
L 96.047603 226.739926 
L 96.364959 226.037937 
L 96.682314 226.037935 
L 96.999669 225.68323 
L 97.63438 225.464393 
L 97.951736 224.874884 
L 98.269091 224.834052 
L 98.586446 224.571244 
L 98.903802 224.564954 
L 99.221157 224.166402 
L 100.173223 223.845929 
L 100.490579 223.605617 
L 100.807934 223.152911 
L 101.125289 222.969805 
L 101.76 222.302084 
L 102.077355 222.203227 
L 102.394711 221.511515 
L 103.029421 221.499579 
L 103.346777 220.885323 
L 103.981488 220.453855 
L 104.616198 220.273597 
L 104.933554 220.130331 
L 105.250909 219.313204 
L 105.88562 219.113053 
L 106.202975 218.818706 
L 106.520331 218.694801 
L 107.155041 218.656554 
L 107.472397 218.497241 
L 107.789752 218.057515 
L 108.107107 218.001445 
L 108.424463 217.768217 
L 108.741818 217.706992 
L 109.693884 217.050716 
L 110.328595 216.976249 
L 110.64595 216.387925 
L 110.963306 216.242441 
L 111.280661 215.944681 
L 111.598017 215.919811 
L 112.550083 215.409841 
L 114.13686 214.858431 
L 114.454215 214.194155 
L 115.088926 214.156438 
L 115.406281 213.801735 
L 116.040992 213.582894 
L 116.358347 213.556872 
L 116.675702 212.993387 
L 116.993058 212.952554 
L 117.310413 212.689749 
L 117.627769 212.683457 
L 117.945124 212.284908 
L 118.579835 212.204952 
L 119.214545 212.070442 
L 120.483967 211.852165 
L 120.801322 211.724121 
L 121.436033 211.271412 
L 123.02281 210.420587 
L 123.657521 210.321731 
L 123.974876 209.630022 
L 124.926942 209.515983 
L 126.196364 208.763354 
L 126.513719 208.746654 
L 126.831074 208.592312 
L 127.465785 208.524205 
L 128.100496 208.248836 
L 128.417851 207.431707 
L 129.052562 207.305399 
L 129.369917 207.231562 
L 129.687273 206.813301 
L 130.321983 206.77506 
L 131.591405 206.176017 
L 131.90876 206.119948 
L 132.226116 205.886723 
L 132.543471 205.825495 
L 132.860826 205.574016 
L 133.178182 205.489867 
L 133.495537 205.250147 
L 134.447603 205.094752 
L 134.764959 204.506427 
L 135.717025 204.252984 
L 136.03438 204.063188 
L 136.351736 204.03832 
L 137.303802 203.557023 
L 138.890579 203.368405 
L 139.842645 203.182672 
L 140.477355 203.08318 
L 140.794711 202.976936 
L 141.112066 202.412177 
L 141.746777 202.274943 
L 142.064132 202.274942 
L 142.381488 201.926964 
L 142.698843 201.92024 
L 143.333554 201.701395 
L 143.968264 201.601815 
L 144.28562 201.111891 
L 144.602975 201.071057 
L 144.920331 200.808253 
L 145.237686 200.801961 
L 145.555041 200.677665 
L 145.872397 200.403413 
L 146.507107 200.323455 
L 147.141818 200.188943 
L 148.728595 199.97067 
L 149.998017 199.389915 
L 150.950083 198.869256 
L 151.584793 198.850891 
L 151.902149 198.53909 
L 152.854215 198.206406 
L 153.488926 197.748529 
L 154.758347 197.634486 
L 155.710413 197.14331 
L 156.027769 197.122326 
L 156.662479 196.736761 
L 157.614545 196.64271 
L 158.249256 196.428396 
L 158.883967 196.367341 
L 159.201322 195.669357 
L 159.836033 195.436585 
L 161.105455 195.35007 
L 161.740165 195.274531 
L 162.057521 194.931803 
L 162.692231 194.893566 
L 163.326942 194.649138 
L 163.644298 194.628471 
L 163.961653 194.300528 
L 164.596364 194.238452 
L 164.913719 194.037307 
L 165.54843 193.943998 
L 166.18314 193.692518 
L 168.087273 193.213256 
L 168.404628 192.62493 
L 170.30876 192.156828 
L 170.626116 191.685075 
L 171.578182 191.556498 
L 174.117025 191.201685 
L 174.751736 191.027861 
L 175.069091 190.698597 
L 176.338512 190.393446 
L 176.655868 190.393445 
L 176.973223 190.045467 
L 177.290579 190.038746 
L 177.925289 189.819898 
L 179.194711 189.614457 
L 179.512066 189.230394 
L 180.464132 189.133554 
L 180.781488 188.926757 
L 181.098843 188.920466 
L 181.416198 188.796163 
L 181.733554 188.521918 
L 182.050909 188.497963 
L 182.368264 188.334593 
L 184.272397 188.089178 
L 184.907107 187.857231 
L 185.859174 187.665025 
L 186.176529 187.516774 
L 186.81124 187.499844 
L 187.763306 186.987758 
L 188.398017 186.969397 
L 188.715372 186.657592 
L 189.032727 186.561527 
L 189.667438 186.124465 
L 190.619504 185.855094 
L 191.888926 185.745215 
L 192.206281 185.592939 
L 192.840992 185.552916 
L 193.158347 185.339023 
L 194.110413 185.240829 
L 194.745124 184.829321 
L 195.379835 184.761217 
L 195.69719 184.629115 
L 196.966612 184.485846 
L 197.283967 183.787854 
L 197.601322 183.555089 
L 199.188099 183.393025 
L 199.505455 183.361826 
L 200.140165 183.050304 
L 200.774876 183.01207 
L 201.409587 182.767645 
L 201.726942 182.746968 
L 202.044298 182.427286 
L 203.313719 182.356956 
L 203.631074 182.155808 
L 204.265785 182.062502 
L 204.58314 181.881806 
L 205.535207 181.772997 
L 206.169917 181.684174 
L 206.804628 181.367096 
L 207.121983 181.331759 
L 207.439339 181.120245 
L 207.756694 180.661888 
L 209.343471 180.300204 
L 209.660826 179.803577 
L 211.564959 179.642272 
L 213.469091 179.400702 
L 214.421157 179.146359 
L 214.738512 178.817104 
L 215.373223 178.714172 
L 215.690579 178.695155 
L 216.007934 178.51195 
L 216.642645 178.458253 
L 216.96 178.393077 
L 217.277355 178.163972 
L 217.912066 178.077075 
L 218.546777 177.838829 
L 219.181488 177.732955 
L 219.816198 177.348898 
L 221.08562 177.252061 
L 221.402975 177.078175 
L 222.355041 176.914663 
L 222.672397 176.640423 
L 222.989752 176.616467 
L 223.307107 176.453102 
L 224.893884 176.249669 
L 225.21124 176.171027 
L 225.528595 175.97574 
L 226.480661 175.783528 
L 227.432727 175.388631 
L 227.750083 175.320379 
L 228.067438 175.10626 
L 229.019504 174.95878 
L 229.33686 174.776095 
L 229.97157 174.680029 
L 230.606281 174.242961 
L 231.558347 173.973599 
L 232.827769 173.863713 
L 233.462479 173.711446 
L 234.09719 173.487922 
L 235.049256 173.359332 
L 235.683967 172.947825 
L 236.318678 172.879723 
L 236.636033 172.747621 
L 237.905455 172.604351 
L 238.22281 171.906351 
L 238.540165 171.673594 
L 240.761653 171.480332 
L 241.396364 171.168806 
L 242.031074 171.098829 
L 242.98314 170.545784 
L 243.935207 170.47546 
L 244.252562 170.27431 
L 244.887273 170.181006 
L 245.204628 170.000322 
L 246.156694 169.891495 
L 246.791405 169.802673 
L 247.10876 169.605656 
L 248.695537 169.238748 
L 249.964959 168.722683 
L 250.599669 168.608508 
L 250.917025 168.438369 
L 251.23438 168.418712 
L 251.551736 168.056142 
L 251.869091 167.915627 
L 253.138512 167.793503 
L 255.36 167.519206 
L 255.994711 166.93561 
L 257.264132 166.813663 
L 257.581488 166.630454 
L 258.533554 166.57675 
L 258.850909 166.282476 
L 259.48562 166.195571 
L 260.120331 165.913994 
L 260.437686 165.851453 
L 261.072397 165.446785 
L 261.707107 165.370567 
L 262.976529 165.163765 
L 263.293884 165.157475 
L 263.61124 165.033164 
L 264.24595 164.571611 
L 265.832727 164.368173 
L 268.054215 163.736863 
L 268.37157 163.507135 
L 269.323636 163.224763 
L 270.593058 162.798532 
L 270.910413 162.258293 
L 275.353388 161.237374 
L 275.670744 161.066329 
L 275.988099 161.055197 
L 276.305455 160.866128 
L 277.574876 160.75977 
L 278.526942 160.403733 
L 279.161653 159.779405 
L 279.796364 159.708158 
L 280.74843 159.598837 
L 281.700496 159.287308 
L 282.017851 159.287308 
L 282.335207 159.115227 
L 282.652562 158.697849 
L 283.921983 158.593965 
L 284.556694 158.29951 
L 288.364959 157.357251 
L 289.317025 156.95535 
L 290.586446 156.727015 
L 291.221157 156.03413 
L 292.173223 155.886783 
L 293.76 155.65669 
L 294.394711 155.026734 
L 296.298843 154.695247 
L 296.933554 154.400982 
L 297.568264 154.31407 
L 298.202975 154.032493 
L 298.520331 153.969952 
L 299.155041 153.565292 
L 299.472397 153.559254 
L 300.107107 153.31641 
L 301.376529 153.139067 
L 302.01124 152.853476 
L 302.64595 152.510021 
L 303.598017 152.40804 
L 304.232727 152.212757 
L 304.867438 152.150179 
L 305.502149 151.683284 
L 307.088926 151.343267 
L 308.040992 151.072573 
L 308.675702 150.917034 
L 308.993058 150.550031 
L 309.945124 150.125286 
L 310.579835 150.041969 
L 310.89719 149.783314 
L 312.166612 149.537613 
L 312.801322 149.199304 
L 313.436033 149.16143 
L 314.070744 148.891512 
L 314.705455 148.777291 
L 315.340165 148.143349 
L 315.657521 147.833287 
L 316.926942 147.732638 
L 317.561653 147.405811 
L 318.196364 147.359623 
L 318.513719 146.816346 
L 319.78314 146.701295 
L 320.417851 146.418014 
L 320.735207 146.344446 
L 321.052562 146.128496 
L 321.687273 146.071681 
L 322.004628 145.785841 
L 322.956694 145.670594 
L 323.90876 145.432918 
L 325.495537 144.942561 
L 325.812893 144.544775 
L 326.130248 144.508031 
L 326.447603 144.152632 
L 327.082314 144.03051 
L 328.03438 143.83689 
L 328.351736 143.479423 
L 329.303802 143.093161 
L 330.573223 143.00519 
L 330.890579 142.860713 
L 331.525289 142.267894 
L 332.16 142.150992 
L 332.477355 142.088451 
L 332.794711 141.683799 
L 333.429421 141.626853 
L 334.381488 141.417034 
L 334.698843 141.408309 
L 336.920331 140.386524 
L 337.237686 140.331264 
L 337.555041 139.801797 
L 338.824463 139.474571 
L 339.776529 139.035538 
L 340.093884 138.573234 
L 341.363306 138.219214 
L 341.680661 137.901823 
L 342.315372 137.841371 
L 342.632727 137.656115 
L 342.950083 137.649654 
L 343.267438 137.474385 
L 343.584793 137.456888 
L 344.219504 137.292196 
L 344.53686 137.279938 
L 345.17157 137.010015 
L 345.806281 136.895798 
L 346.123636 136.64073 
L 346.440992 135.951786 
L 347.075702 135.944223 
L 347.710413 135.524314 
L 348.027769 135.478117 
L 348.345124 134.901278 
L 348.979835 134.629821 
L 349.931901 134.229879 
L 350.566612 134.190172 
L 350.883967 133.789098 
L 351.201322 133.615661 
L 351.836033 133.551432 
L 352.153388 133.389607 
L 352.470744 133.364792 
L 353.105455 133.061069 
L 353.42281 132.663282 
L 353.740165 132.626524 
L 354.057521 132.271134 
L 354.692231 132.149014 
L 355.009587 131.981283 
L 355.326942 131.59792 
L 355.961653 131.439419 
L 356.596364 131.211661 
L 357.231074 131.12369 
L 357.54843 130.993887 
L 358.18314 130.37617 
L 358.500496 130.269493 
L 358.817851 129.802307 
L 359.135207 129.53554 
L 359.452562 129.526826 
L 360.087273 129.269964 
L 360.404628 128.630979 
L 361.039339 128.505027 
L 361.356694 127.920309 
L 363.895537 126.990745 
L 364.530248 126.362292 
L 366.43438 125.436303 
L 367.069091 125.398445 
L 367.703802 125.077632 
L 368.021157 124.390419 
L 368.338512 124.070286 
L 368.655868 124.06367 
L 369.290579 123.019777 
L 369.925289 122.748325 
L 370.877355 122.348375 
L 371.194711 121.907602 
L 371.829421 121.508121 
L 372.146777 121.483297 
L 372.464132 121.310856 
L 373.098843 120.389635 
L 373.416198 120.076046 
L 373.733554 119.557916 
L 374.368264 119.330162 
L 375.002975 119.242191 
L 375.320331 119.112376 
L 375.637686 118.494659 
L 375.955041 118.387993 
L 376.907107 117.654046 
L 377.224463 117.645341 
L 377.541818 117.494561 
L 377.859174 116.749475 
L 378.493884 116.623529 
L 378.81124 115.837306 
L 379.128595 115.826288 
L 379.44595 115.10926 
L 380.398017 114.12065 
L 381.350083 113.554804 
L 381.667438 113.529198 
L 382.302149 113.19613 
L 382.619504 112.508925 
L 382.93686 112.10084 
L 383.254215 111.138276 
L 383.57157 111.124796 
L 383.888926 110.699956 
L 384.206281 110.466871 
L 384.840992 109.626633 
L 385.158347 109.587019 
L 385.793058 109.168144 
L 386.110413 108.863512 
L 386.745124 107.70192 
L 387.062479 107.448663 
L 387.69719 107.230868 
L 388.014545 106.01419 
L 388.331901 105.613061 
L 388.649256 104.867972 
L 388.966612 104.754967 
L 389.283967 103.955805 
L 389.601322 103.944794 
L 390.553388 101.673306 
L 390.870744 101.6477 
L 391.188099 100.769207 
L 391.82281 100.627431 
L 392.140165 98.585368 
L 392.457521 97.705523 
L 393.409587 96.313037 
L 393.726942 95.479195 
L 394.361653 92.986469 
L 394.679008 92.074306 
L 394.996364 91.867526 
L 395.313719 91.048429 
L 395.631074 90.55979 
L 396.265785 86.703866 
L 396.58314 85.824025 
L 396.900496 85.405146 
L 397.217851 79.166912 
L 397.535207 78.678285 
L 397.852562 76.876798 
L 398.487273 67.285395 
L 398.487273 67.285395 
" clip-path="url(#p56bee76e1c)" style="fill: none; stroke: #ff7f0e; stroke-width: 1.5; stroke-linecap: square"/>
   </g>
   <g id="patch_3">
    <path d="M 57.6 307.584 
L 57.6 41.472 
" style="fill: none; stroke: #000000; stroke-width: 0.8; stroke-linejoin: miter; stroke-linecap: square"/>
   </g>
   <g id="patch_4">
    <path d="M 414.72 307.584 
L 414.72 41.472 
" style="fill: none; stroke: #000000; stroke-width: 0.8; stroke-linejoin: miter; stroke-linecap: square"/>
   </g>
   <g id="patch_5">
    <path d="M 57.6 307.584 
L 414.72 307.584 
" style="fill: none; stroke: #000000; stroke-width: 0.8; stroke-linejoin: miter; stroke-linecap: square"/>
   </g>
   <g id="patch_6">
    <path d="M 57.6 41.472 
L 414.72 41.472 
" style="fill: none; stroke: #000000; stroke-width: 0.8; stroke-linejoin: miter; stroke-linecap: square"/>
   </g>
   <g id="legend_1">
    <g id="patch_7">
     <path d="M 64.6 78.82825 
L 129.342187 78.82825 
Q 131.342187 78.82825 131.342187 76.82825 
L 131.342187 48.472 
Q 131.342187 46.472 129.342187 46.472 
L 64.6 46.472 
Q 62.6 46.472 62.6 48.472 
L 62.6 76.82825 
Q 62.6 78.82825 64.6 78.82825 
z
" style="fill: #ffffff; opacity: 0.8; stroke: #cccccc; stroke-linejoin: miter"/>
    </g>
    <g id="line2d_16">
     <path d="M 66.6 54.570437 
L 76.6 54.570437 
L 86.6 54.570437 
" style="fill: none; stroke: #1f77b4; stroke-width: 1.5; stroke-linecap: square"/>
    </g>
    <g id="text_16">
     <!-- qc -->
     <g transform="translate(94.6 58.070437) scale(0.1 -0.1)">
      <defs>
       <path id="DejaVuSans-71" d="M 947 1747 
Q 947 1113 1208 752 
Q 1469 391 1925 391 
Q 2381 391 2643 752 
Q 2906 1113 2906 1747 
Q 2906 2381 2643 2742 
Q 2381 3103 1925 3103 
Q 1469 3103 1208 2742 
Q 947 2381 947 1747 
z
M 2906 525 
Q 2725 213 2448 61 
Q 2172 -91 1784 -91 
Q 1150 -91 751 415 
Q 353 922 353 1747 
Q 353 2572 751 3078 
Q 1150 3584 1784 3584 
Q 2172 3584 2448 3432 
Q 2725 3281 2906 2969 
L 2906 3500 
L 3481 3500 
L 3481 -1331 
L 2906 -1331 
L 2906 525 
z
" transform="scale(0.015625)"/>
       <path id="DejaVuSans-63" d="M 3122 3366 
L 3122 2828 
Q 2878 2963 2633 3030 
Q 2388 3097 2138 3097 
Q 1578 3097 1268 2742 
Q 959 2388 959 1747 
Q 959 1106 1268 751 
Q 1578 397 2138 397 
Q 2388 397 2633 464 
Q 2878 531 3122 666 
L 3122 134 
Q 2881 22 2623 -34 
Q 2366 -91 2075 -91 
Q 1284 -91 818 406 
Q 353 903 353 1747 
Q 353 2603 823 3093 
Q 1294 3584 2113 3584 
Q 2378 3584 2631 3529 
Q 2884 3475 3122 3366 
z
" transform="scale(0.015625)"/>
      </defs>
      <use xlink:href="#DejaVuSans-71"/>
      <use xlink:href="#DejaVuSans-63" x="63.476562"/>
     </g>
    </g>
    <g id="line2d_17">
     <path d="M 66.6 69.248562 
L 76.6 69.248562 
L 86.6 69.248562 
" style="fill: none; stroke: #ff7f0e; stroke-width: 1.5; stroke-linecap: square"/>
    </g>
    <g id="text_17">
     <!-- Trotter -->
     <g transform="translate(94.6 72.748562) scale(0.1 -0.1)">
      <defs>
       <path id="DejaVuSans-54" d="M -19 4666 
L 3928 4666 
L 3928 4134 
L 2272 4134 
L 2272 0 
L 1638 0 
L 1638 4134 
L -19 4134 
L -19 4666 
z
" transform="scale(0.015625)"/>
       <path id="DejaVuSans-72" d="M 2631 2963 
Q 2534 3019 2420 3045 
Q 2306 3072 2169 3072 
Q 1681 3072 1420 2755 
Q 1159 2438 1159 1844 
L 1159 0 
L 581 0 
L 581 3500 
L 1159 3500 
L 1159 2956 
Q 1341 3275 1631 3429 
Q 1922 3584 2338 3584 
Q 2397 3584 2469 3576 
Q 2541 3569 2628 3553 
L 2631 2963 
z
" transform="scale(0.015625)"/>
       <path id="DejaVuSans-6f" d="M 1959 3097 
Q 1497 3097 1228 2736 
Q 959 2375 959 1747 
Q 959 1119 1226 758 
Q 1494 397 1959 397 
Q 2419 397 2687 759 
Q 2956 1122 2956 1747 
Q 2956 2369 2687 2733 
Q 2419 3097 1959 3097 
z
M 1959 3584 
Q 2709 3584 3137 3096 
Q 3566 2609 3566 1747 
Q 3566 888 3137 398 
Q 2709 -91 1959 -91 
Q 1206 -91 779 398 
Q 353 888 353 1747 
Q 353 2609 779 3096 
Q 1206 3584 1959 3584 
z
" transform="scale(0.015625)"/>
       <path id="DejaVuSans-65" d="M 3597 1894 
L 3597 1613 
L 953 1613 
Q 991 1019 1311 708 
Q 1631 397 2203 397 
Q 2534 397 2845 478 
Q 3156 559 3463 722 
L 3463 178 
Q 3153 47 2828 -22 
Q 2503 -91 2169 -91 
Q 1331 -91 842 396 
Q 353 884 353 1716 
Q 353 2575 817 3079 
Q 1281 3584 2069 3584 
Q 2775 3584 3186 3129 
Q 3597 2675 3597 1894 
z
M 3022 2063 
Q 3016 2534 2758 2815 
Q 2500 3097 2075 3097 
Q 1594 3097 1305 2825 
Q 1016 2553 972 2059 
L 3022 2063 
z
" transform="scale(0.015625)"/>
      </defs>
      <use xlink:href="#DejaVuSans-54"/>
      <use xlink:href="#DejaVuSans-72" x="46.333984"/>
      <use xlink:href="#DejaVuSans-6f" x="85.197266"/>
      <use xlink:href="#DejaVuSans-74" x="146.378906"/>
      <use xlink:href="#DejaVuSans-74" x="185.587891"/>
      <use xlink:href="#DejaVuSans-65" x="224.796875"/>
      <use xlink:href="#DejaVuSans-72" x="286.320312"/>
     </g>
    </g>
   </g>
  </g>
 </g>
 <defs>
  <clipPath id="p56bee76e1c">
   <rect x="57.6" y="41.472" width="357.12" height="266.112"/>
  </clipPath>
 </defs>
</svg>
