<?xml version="1.0" encoding="utf-8" standalone="no"?>
<!DOCTYPE svg PUBLIC "-//W3C//DTD SVG 1.1//EN"
  "http://www.w3.org/Graphics/SVG/1.1/DTD/svg11.dtd">
<svg xmlns:xlink="http://www.w3.org/1999/xlink" width="460.8pt" height="345.6pt" viewBox="0 0 460.8 345.6" xmlns="http://www.w3.org/2000/svg" version="1.1">
 <metadata>
  <rdf:RDF xmlns:dc="http://purl.org/dc/elements/1.1/" xmlns:cc="http://creativecommons.org/ns#" xmlns:rdf="http://www.w3.org/1999/02/22-rdf-syntax-ns#">
   <cc:Work>
    <dc:type rdf:resource="http://purl.org/dc/dcmitype/StillImage"/>
    <dc:date>2024-07-14T10:46:01.322584</dc:date>
    <dc:format>image/svg+xml</dc:format>
    <dc:creator>
     <cc:Agent>
      <dc:title>Matplotlib v3.7.1, https://matplotlib.org/</dc:title>
     </cc:Agent>
    </dc:creator>
   </cc:Work>
  </rdf:RDF>
 </metadata>
 <defs>
  <style type="text/css">*{stroke-linejoin: round; stroke-linecap: butt}</style>
 </defs>
 <g id="figure_1">
  <g id="patch_1">
   <path d="M 0 345.6 
L 460.8 345.6 
L 460.8 0 
L 0 0 
z
" style="fill: #ffffff"/>
  </g>
  <g id="axes_1">
   <g id="patch_2">
    <path d="M 57.6 307.584 
L 414.72 307.584 
L 414.72 41.472 
L 57.6 41.472 
z
" style="fill: #ffffff"/>
   </g>
   <g id="matplotlib.axis_1">
    <g id="xtick_1">
     <g id="line2d_1">
      <defs>
       <path id="m68c4f9f440" d="M 0 0 
L 0 3.5 
" style="stroke: #000000; stroke-width: 0.8"/>
      </defs>
      <g>
       <use xlink:href="#m68c4f9f440" x="73.832727" y="307.584" style="stroke: #000000; stroke-width: 0.8"/>
      </g>
     </g>
     <g id="text_1">
      <!-- 0 -->
      <g transform="translate(70.651477 322.182437) scale(0.1 -0.1)">
       <defs>
        <path id="DejaVuSans-30" d="M 2034 4250 
Q 1547 4250 1301 3770 
Q 1056 3291 1056 2328 
Q 1056 1369 1301 889 
Q 1547 409 2034 409 
Q 2525 409 2770 889 
Q 3016 1369 3016 2328 
Q 3016 3291 2770 3770 
Q 2525 4250 2034 4250 
z
M 2034 4750 
Q 2819 4750 3233 4129 
Q 3647 3509 3647 2328 
Q 3647 1150 3233 529 
Q 2819 -91 2034 -91 
Q 1250 -91 836 529 
Q 422 1150 422 2328 
Q 422 3509 836 4129 
Q 1250 4750 2034 4750 
z
" transform="scale(0.015625)"/>
       </defs>
       <use xlink:href="#DejaVuSans-30"/>
      </g>
     </g>
    </g>
    <g id="xtick_2">
     <g id="line2d_2">
      <g>
       <use xlink:href="#m68c4f9f440" x="137.303802" y="307.584" style="stroke: #000000; stroke-width: 0.8"/>
      </g>
     </g>
     <g id="text_2">
      <!-- 200 -->
      <g transform="translate(127.760052 322.182437) scale(0.1 -0.1)">
       <defs>
        <path id="DejaVuSans-32" d="M 1228 531 
L 3431 531 
L 3431 0 
L 469 0 
L 469 531 
Q 828 903 1448 1529 
Q 2069 2156 2228 2338 
Q 2531 2678 2651 2914 
Q 2772 3150 2772 3378 
Q 2772 3750 2511 3984 
Q 2250 4219 1831 4219 
Q 1534 4219 1204 4116 
Q 875 4013 500 3803 
L 500 4441 
Q 881 4594 1212 4672 
Q 1544 4750 1819 4750 
Q 2544 4750 2975 4387 
Q 3406 4025 3406 3419 
Q 3406 3131 3298 2873 
Q 3191 2616 2906 2266 
Q 2828 2175 2409 1742 
Q 1991 1309 1228 531 
z
" transform="scale(0.015625)"/>
       </defs>
       <use xlink:href="#DejaVuSans-32"/>
       <use xlink:href="#DejaVuSans-30" x="63.623047"/>
       <use xlink:href="#DejaVuSans-30" x="127.246094"/>
      </g>
     </g>
    </g>
    <g id="xtick_3">
     <g id="line2d_3">
      <g>
       <use xlink:href="#m68c4f9f440" x="200.774876" y="307.584" style="stroke: #000000; stroke-width: 0.8"/>
      </g>
     </g>
     <g id="text_3">
      <!-- 400 -->
      <g transform="translate(191.231126 322.182437) scale(0.1 -0.1)">
       <defs>
        <path id="DejaVuSans-34" d="M 2419 4116 
L 825 1625 
L 2419 1625 
L 2419 4116 
z
M 2253 4666 
L 3047 4666 
L 3047 1625 
L 3713 1625 
L 3713 1100 
L 3047 1100 
L 3047 0 
L 2419 0 
L 2419 1100 
L 313 1100 
L 313 1709 
L 2253 4666 
z
" transform="scale(0.015625)"/>
       </defs>
       <use xlink:href="#DejaVuSans-34"/>
       <use xlink:href="#DejaVuSans-30" x="63.623047"/>
       <use xlink:href="#DejaVuSans-30" x="127.246094"/>
      </g>
     </g>
    </g>
    <g id="xtick_4">
     <g id="line2d_4">
      <g>
       <use xlink:href="#m68c4f9f440" x="264.24595" y="307.584" style="stroke: #000000; stroke-width: 0.8"/>
      </g>
     </g>
     <g id="text_4">
      <!-- 600 -->
      <g transform="translate(254.7022 322.182437) scale(0.1 -0.1)">
       <defs>
        <path id="DejaVuSans-36" d="M 2113 2584 
Q 1688 2584 1439 2293 
Q 1191 2003 1191 1497 
Q 1191 994 1439 701 
Q 1688 409 2113 409 
Q 2538 409 2786 701 
Q 3034 994 3034 1497 
Q 3034 2003 2786 2293 
Q 2538 2584 2113 2584 
z
M 3366 4563 
L 3366 3988 
Q 3128 4100 2886 4159 
Q 2644 4219 2406 4219 
Q 1781 4219 1451 3797 
Q 1122 3375 1075 2522 
Q 1259 2794 1537 2939 
Q 1816 3084 2150 3084 
Q 2853 3084 3261 2657 
Q 3669 2231 3669 1497 
Q 3669 778 3244 343 
Q 2819 -91 2113 -91 
Q 1303 -91 875 529 
Q 447 1150 447 2328 
Q 447 3434 972 4092 
Q 1497 4750 2381 4750 
Q 2619 4750 2861 4703 
Q 3103 4656 3366 4563 
z
" transform="scale(0.015625)"/>
       </defs>
       <use xlink:href="#DejaVuSans-36"/>
       <use xlink:href="#DejaVuSans-30" x="63.623047"/>
       <use xlink:href="#DejaVuSans-30" x="127.246094"/>
      </g>
     </g>
    </g>
    <g id="xtick_5">
     <g id="line2d_5">
      <g>
       <use xlink:href="#m68c4f9f440" x="327.717025" y="307.584" style="stroke: #000000; stroke-width: 0.8"/>
      </g>
     </g>
     <g id="text_5">
      <!-- 800 -->
      <g transform="translate(318.173275 322.182437) scale(0.1 -0.1)">
       <defs>
        <path id="DejaVuSans-38" d="M 2034 2216 
Q 1584 2216 1326 1975 
Q 1069 1734 1069 1313 
Q 1069 891 1326 650 
Q 1584 409 2034 409 
Q 2484 409 2743 651 
Q 3003 894 3003 1313 
Q 3003 1734 2745 1975 
Q 2488 2216 2034 2216 
z
M 1403 2484 
Q 997 2584 770 2862 
Q 544 3141 544 3541 
Q 544 4100 942 4425 
Q 1341 4750 2034 4750 
Q 2731 4750 3128 4425 
Q 3525 4100 3525 3541 
Q 3525 3141 3298 2862 
Q 3072 2584 2669 2484 
Q 3125 2378 3379 2068 
Q 3634 1759 3634 1313 
Q 3634 634 3220 271 
Q 2806 -91 2034 -91 
Q 1263 -91 848 271 
Q 434 634 434 1313 
Q 434 1759 690 2068 
Q 947 2378 1403 2484 
z
M 1172 3481 
Q 1172 3119 1398 2916 
Q 1625 2713 2034 2713 
Q 2441 2713 2670 2916 
Q 2900 3119 2900 3481 
Q 2900 3844 2670 4047 
Q 2441 4250 2034 4250 
Q 1625 4250 1398 4047 
Q 1172 3844 1172 3481 
z
" transform="scale(0.015625)"/>
       </defs>
       <use xlink:href="#DejaVuSans-38"/>
       <use xlink:href="#DejaVuSans-30" x="63.623047"/>
       <use xlink:href="#DejaVuSans-30" x="127.246094"/>
      </g>
     </g>
    </g>
    <g id="xtick_6">
     <g id="line2d_6">
      <g>
       <use xlink:href="#m68c4f9f440" x="391.188099" y="307.584" style="stroke: #000000; stroke-width: 0.8"/>
      </g>
     </g>
     <g id="text_6">
      <!-- 1000 -->
      <g transform="translate(378.463099 322.182437) scale(0.1 -0.1)">
       <defs>
        <path id="DejaVuSans-31" d="M 794 531 
L 1825 531 
L 1825 4091 
L 703 3866 
L 703 4441 
L 1819 4666 
L 2450 4666 
L 2450 531 
L 3481 531 
L 3481 0 
L 794 0 
L 794 531 
z
" transform="scale(0.015625)"/>
       </defs>
       <use xlink:href="#DejaVuSans-31"/>
       <use xlink:href="#DejaVuSans-30" x="63.623047"/>
       <use xlink:href="#DejaVuSans-30" x="127.246094"/>
       <use xlink:href="#DejaVuSans-30" x="190.869141"/>
      </g>
     </g>
    </g>
    <g id="text_7">
     <!-- n -->
     <g transform="translate(232.99125 335.860562) scale(0.1 -0.1)">
      <defs>
       <path id="DejaVuSans-6e" d="M 3513 2113 
L 3513 0 
L 2938 0 
L 2938 2094 
Q 2938 2591 2744 2837 
Q 2550 3084 2163 3084 
Q 1697 3084 1428 2787 
Q 1159 2491 1159 1978 
L 1159 0 
L 581 0 
L 581 3500 
L 1159 3500 
L 1159 2956 
Q 1366 3272 1645 3428 
Q 1925 3584 2291 3584 
Q 2894 3584 3203 3211 
Q 3513 2838 3513 2113 
z
" transform="scale(0.015625)"/>
      </defs>
      <use xlink:href="#DejaVuSans-6e"/>
     </g>
    </g>
   </g>
   <g id="matplotlib.axis_2">
    <g id="ytick_1">
     <g id="line2d_7">
      <defs>
       <path id="m8c768d8723" d="M 0 0 
L -3.5 0 
" style="stroke: #000000; stroke-width: 0.8"/>
      </defs>
      <g>
       <use xlink:href="#m8c768d8723" x="57.6" y="297.777361" style="stroke: #000000; stroke-width: 0.8"/>
      </g>
     </g>
     <g id="text_8">
      <!-- −0.3 -->
      <g transform="translate(26.317187 301.57658) scale(0.1 -0.1)">
       <defs>
        <path id="DejaVuSans-2212" d="M 678 2272 
L 4684 2272 
L 4684 1741 
L 678 1741 
L 678 2272 
z
" transform="scale(0.015625)"/>
        <path id="DejaVuSans-2e" d="M 684 794 
L 1344 794 
L 1344 0 
L 684 0 
L 684 794 
z
" transform="scale(0.015625)"/>
        <path id="DejaVuSans-33" d="M 2597 2516 
Q 3050 2419 3304 2112 
Q 3559 1806 3559 1356 
Q 3559 666 3084 287 
Q 2609 -91 1734 -91 
Q 1441 -91 1130 -33 
Q 819 25 488 141 
L 488 750 
Q 750 597 1062 519 
Q 1375 441 1716 441 
Q 2309 441 2620 675 
Q 2931 909 2931 1356 
Q 2931 1769 2642 2001 
Q 2353 2234 1838 2234 
L 1294 2234 
L 1294 2753 
L 1863 2753 
Q 2328 2753 2575 2939 
Q 2822 3125 2822 3475 
Q 2822 3834 2567 4026 
Q 2313 4219 1838 4219 
Q 1578 4219 1281 4162 
Q 984 4106 628 3988 
L 628 4550 
Q 988 4650 1302 4700 
Q 1616 4750 1894 4750 
Q 2613 4750 3031 4423 
Q 3450 4097 3450 3541 
Q 3450 3153 3228 2886 
Q 3006 2619 2597 2516 
z
" transform="scale(0.015625)"/>
       </defs>
       <use xlink:href="#DejaVuSans-2212"/>
       <use xlink:href="#DejaVuSans-30" x="83.789062"/>
       <use xlink:href="#DejaVuSans-2e" x="147.412109"/>
       <use xlink:href="#DejaVuSans-33" x="179.199219"/>
      </g>
     </g>
    </g>
    <g id="ytick_2">
     <g id="line2d_8">
      <g>
       <use xlink:href="#m8c768d8723" x="57.6" y="265.634533" style="stroke: #000000; stroke-width: 0.8"/>
      </g>
     </g>
     <g id="text_9">
      <!-- −0.2 -->
      <g transform="translate(26.317187 269.433752) scale(0.1 -0.1)">
       <use xlink:href="#DejaVuSans-2212"/>
       <use xlink:href="#DejaVuSans-30" x="83.789062"/>
       <use xlink:href="#DejaVuSans-2e" x="147.412109"/>
       <use xlink:href="#DejaVuSans-32" x="179.199219"/>
      </g>
     </g>
    </g>
    <g id="ytick_3">
     <g id="line2d_9">
      <g>
       <use xlink:href="#m8c768d8723" x="57.6" y="233.491705" style="stroke: #000000; stroke-width: 0.8"/>
      </g>
     </g>
     <g id="text_10">
      <!-- −0.1 -->
      <g transform="translate(26.317187 237.290924) scale(0.1 -0.1)">
       <use xlink:href="#DejaVuSans-2212"/>
       <use xlink:href="#DejaVuSans-30" x="83.789062"/>
       <use xlink:href="#DejaVuSans-2e" x="147.412109"/>
       <use xlink:href="#DejaVuSans-31" x="179.199219"/>
      </g>
     </g>
    </g>
    <g id="ytick_4">
     <g id="line2d_10">
      <g>
       <use xlink:href="#m8c768d8723" x="57.6" y="201.348877" style="stroke: #000000; stroke-width: 0.8"/>
      </g>
     </g>
     <g id="text_11">
      <!-- 0.0 -->
      <g transform="translate(34.696875 205.148095) scale(0.1 -0.1)">
       <use xlink:href="#DejaVuSans-30"/>
       <use xlink:href="#DejaVuSans-2e" x="63.623047"/>
       <use xlink:href="#DejaVuSans-30" x="95.410156"/>
      </g>
     </g>
    </g>
    <g id="ytick_5">
     <g id="line2d_11">
      <g>
       <use xlink:href="#m8c768d8723" x="57.6" y="169.206048" style="stroke: #000000; stroke-width: 0.8"/>
      </g>
     </g>
     <g id="text_12">
      <!-- 0.1 -->
      <g transform="translate(34.696875 173.005267) scale(0.1 -0.1)">
       <use xlink:href="#DejaVuSans-30"/>
       <use xlink:href="#DejaVuSans-2e" x="63.623047"/>
       <use xlink:href="#DejaVuSans-31" x="95.410156"/>
      </g>
     </g>
    </g>
    <g id="ytick_6">
     <g id="line2d_12">
      <g>
       <use xlink:href="#m8c768d8723" x="57.6" y="137.06322" style="stroke: #000000; stroke-width: 0.8"/>
      </g>
     </g>
     <g id="text_13">
      <!-- 0.2 -->
      <g transform="translate(34.696875 140.862439) scale(0.1 -0.1)">
       <use xlink:href="#DejaVuSans-30"/>
       <use xlink:href="#DejaVuSans-2e" x="63.623047"/>
       <use xlink:href="#DejaVuSans-32" x="95.410156"/>
      </g>
     </g>
    </g>
    <g id="ytick_7">
     <g id="line2d_13">
      <g>
       <use xlink:href="#m8c768d8723" x="57.6" y="104.920392" style="stroke: #000000; stroke-width: 0.8"/>
      </g>
     </g>
     <g id="text_14">
      <!-- 0.3 -->
      <g transform="translate(34.696875 108.71961) scale(0.1 -0.1)">
       <use xlink:href="#DejaVuSans-30"/>
       <use xlink:href="#DejaVuSans-2e" x="63.623047"/>
       <use xlink:href="#DejaVuSans-33" x="95.410156"/>
      </g>
     </g>
    </g>
    <g id="ytick_8">
     <g id="line2d_14">
      <g>
       <use xlink:href="#m8c768d8723" x="57.6" y="72.777563" style="stroke: #000000; stroke-width: 0.8"/>
      </g>
     </g>
     <g id="text_15">
      <!-- 0.4 -->
      <g transform="translate(34.696875 76.576782) scale(0.1 -0.1)">
       <use xlink:href="#DejaVuSans-30"/>
       <use xlink:href="#DejaVuSans-2e" x="63.623047"/>
       <use xlink:href="#DejaVuSans-34" x="95.410156"/>
      </g>
     </g>
    </g>
    <g id="text_16">
     <!-- E*t -->
     <g transform="translate(20.2375 182.147531) rotate(-90) scale(0.1 -0.1)">
      <defs>
       <path id="DejaVuSans-45" d="M 628 4666 
L 3578 4666 
L 3578 4134 
L 1259 4134 
L 1259 2753 
L 3481 2753 
L 3481 2222 
L 1259 2222 
L 1259 531 
L 3634 531 
L 3634 0 
L 628 0 
L 628 4666 
z
" transform="scale(0.015625)"/>
       <path id="DejaVuSans-2a" d="M 3009 3897 
L 1888 3291 
L 3009 2681 
L 2828 2375 
L 1778 3009 
L 1778 1831 
L 1422 1831 
L 1422 3009 
L 372 2375 
L 191 2681 
L 1313 3291 
L 191 3897 
L 372 4206 
L 1422 3572 
L 1422 4750 
L 1778 4750 
L 1778 3572 
L 2828 4206 
L 3009 3897 
z
" transform="scale(0.015625)"/>
       <path id="DejaVuSans-74" d="M 1172 4494 
L 1172 3500 
L 2356 3500 
L 2356 3053 
L 1172 3053 
L 1172 1153 
Q 1172 725 1289 603 
Q 1406 481 1766 481 
L 2356 481 
L 2356 0 
L 1766 0 
Q 1100 0 847 248 
Q 594 497 594 1153 
L 594 3053 
L 172 3053 
L 172 3500 
L 594 3500 
L 594 4494 
L 1172 4494 
z
" transform="scale(0.015625)"/>
      </defs>
      <use xlink:href="#DejaVuSans-45"/>
      <use xlink:href="#DejaVuSans-2a" x="63.183594"/>
      <use xlink:href="#DejaVuSans-74" x="113.183594"/>
     </g>
    </g>
   </g>
   <g id="line2d_15">
    <path d="M 73.832727 295.488 
L 74.150083 292.981154 
L 75.102149 289.015019 
L 75.419504 288.622158 
L 75.73686 287.264442 
L 76.688926 285.516556 
L 77.323636 284.710771 
L 77.640992 284.453762 
L 77.958347 283.707395 
L 81.131901 280.256563 
L 81.449256 280.070513 
L 82.083967 279.450029 
L 82.401322 279.168713 
L 82.718678 279.062472 
L 84.62281 277.731964 
L 84.940165 277.601979 
L 85.574876 276.94012 
L 85.892231 276.856474 
L 86.209587 276.408492 
L 86.526942 276.328162 
L 87.161653 275.82914 
L 87.479008 275.647464 
L 88.431074 274.699486 
L 88.74843 274.582205 
L 89.065785 274.300891 
L 89.38314 274.252904 
L 90.017851 273.744732 
L 91.287273 272.977202 
L 91.604628 272.695216 
L 92.556694 272.249727 
L 92.87405 271.815088 
L 97.951736 268.611451 
L 98.269091 268.540864 
L 103.029421 265.51489 
L 104.298843 264.950055 
L 105.250909 264.20395 
L 105.568264 264.161518 
L 107.472397 263.081482 
L 108.107107 262.6714 
L 110.64595 261.456759 
L 111.280661 260.7532 
L 111.598017 260.648787 
L 112.232727 260.324422 
L 113.184793 259.805818 
L 113.819504 259.491921 
L 114.13686 259.470627 
L 115.723636 258.548814 
L 116.358347 258.36802 
L 116.993058 257.902394 
L 117.627769 257.525733 
L 118.262479 257.215717 
L 118.89719 256.978542 
L 120.483967 256.073593 
L 121.118678 255.90403 
L 121.436033 255.63058 
L 121.753388 255.527296 
L 122.070744 255.267434 
L 122.705455 255.013348 
L 126.513719 253.236983 
L 126.831074 252.921903 
L 127.78314 252.617648 
L 128.417851 252.243462 
L 130.321983 251.428804 
L 130.956694 251.042702 
L 133.495537 250.040371 
L 133.812893 249.974464 
L 134.447603 249.587856 
L 134.764959 249.493696 
L 135.399669 249.052256 
L 139.207934 247.413487 
L 139.525289 247.00752 
L 140.16 246.85273 
L 140.794711 246.653522 
L 141.112066 246.357826 
L 141.746777 246.21326 
L 142.064132 245.976265 
L 142.381488 245.906167 
L 142.698843 245.567051 
L 148.728595 242.967184 
L 149.04595 242.570613 
L 149.998017 242.313148 
L 150.315372 242.065724 
L 151.267438 241.681127 
L 152.53686 240.955662 
L 152.854215 240.866122 
L 153.488926 240.493381 
L 154.758347 240.046828 
L 155.393058 239.597929 
L 158.249256 238.25907 
L 158.883967 238.10241 
L 159.836033 237.500263 
L 160.788099 237.124142 
L 165.231074 234.982993 
L 167.769917 234.037605 
L 168.721983 233.549031 
L 169.991405 233.036364 
L 170.30876 233.012258 
L 170.943471 232.631805 
L 172.847603 231.75428 
L 173.164959 231.566456 
L 173.799669 231.42175 
L 174.751736 230.851247 
L 177.290579 230.047462 
L 177.607934 229.979437 
L 177.925289 229.722102 
L 178.242645 229.658445 
L 178.56 229.453853 
L 178.877355 229.397385 
L 179.194711 229.140747 
L 179.829421 228.926689 
L 182.050909 227.906769 
L 183.002975 227.440976 
L 183.955041 227.154125 
L 184.907107 226.6421 
L 186.176529 226.239761 
L 186.81124 225.964384 
L 189.032727 225.066995 
L 189.667438 224.893325 
L 189.984793 224.770918 
L 190.619504 224.337005 
L 190.93686 224.259391 
L 191.254215 224.049321 
L 192.206281 223.823358 
L 196.331901 222.303574 
L 196.966612 222.002288 
L 197.283967 221.91659 
L 197.601322 221.672258 
L 198.236033 221.527574 
L 198.553388 221.461622 
L 199.188099 221.175045 
L 203.94843 219.469923 
L 204.265785 219.168134 
L 208.07405 217.808171 
L 208.391405 217.504938 
L 209.026116 217.376205 
L 210.295537 216.91768 
L 210.612893 216.911312 
L 211.247603 216.69559 
L 211.882314 216.502702 
L 212.517025 216.266258 
L 213.469091 215.965758 
L 214.103802 215.710983 
L 214.738512 215.518797 
L 216.325289 214.831552 
L 216.96 214.726506 
L 217.594711 214.387306 
L 217.912066 214.345082 
L 219.498843 213.674845 
L 220.133554 213.458917 
L 220.450909 213.252398 
L 220.768264 213.237467 
L 222.672397 212.377555 
L 223.307107 212.195838 
L 232.510413 209.172 
L 234.09719 208.650432 
L 234.414545 208.460558 
L 235.683967 208.193457 
L 236.636033 207.727144 
L 237.270744 207.55779 
L 237.905455 207.365825 
L 241.396364 206.076015 
L 241.713719 206.067758 
L 242.98314 205.5264 
L 243.300496 205.473595 
L 244.252562 205.020904 
L 244.887273 204.855504 
L 246.156694 204.451829 
L 246.791405 204.263564 
L 247.426116 203.972777 
L 248.378182 203.651043 
L 249.647603 203.208321 
L 249.964959 203.17805 
L 250.599669 202.856324 
L 251.551736 202.638967 
L 252.186446 202.344444 
L 252.821157 202.146224 
L 254.725289 201.464884 
L 255.36 201.163959 
L 256.312066 200.811265 
L 256.946777 200.523713 
L 257.264132 200.478419 
L 257.898843 200.222269 
L 258.533554 199.963089 
L 259.168264 199.754289 
L 260.755041 199.136134 
L 267.73686 196.591064 
L 269.006281 196.067152 
L 269.958347 195.765108 
L 270.593058 195.525011 
L 273.131901 194.605024 
L 273.766612 194.33116 
L 280.113719 191.638247 
L 280.74843 191.306466 
L 281.38314 191.110831 
L 281.700496 190.864157 
L 282.969917 190.436311 
L 283.604628 190.052632 
L 285.50876 189.343324 
L 289.63438 187.641883 
L 289.951736 187.408122 
L 290.586446 187.214924 
L 291.538512 186.711608 
L 291.855868 186.67112 
L 292.173223 186.416157 
L 293.125289 186.099407 
L 294.394711 185.535994 
L 295.664132 185.050214 
L 296.298843 184.699437 
L 297.250909 184.353087 
L 297.88562 184.112023 
L 298.202975 183.896254 
L 298.520331 183.819511 
L 299.155041 183.498844 
L 300.107107 183.24085 
L 300.741818 182.762024 
L 301.693884 182.505532 
L 302.01124 182.402484 
L 302.328595 182.102122 
L 303.280661 181.695643 
L 304.232727 181.146535 
L 304.867438 180.846182 
L 305.819504 180.366743 
L 306.13686 180.248635 
L 307.088926 179.518164 
L 307.723636 179.318625 
L 309.310413 178.405667 
L 309.627769 178.330217 
L 310.579835 177.824057 
L 311.531901 177.438517 
L 311.849256 177.090594 
L 312.483967 176.870368 
L 313.118678 176.471543 
L 314.388099 175.928646 
L 315.340165 175.40973 
L 316.292231 175.014113 
L 316.609587 174.733826 
L 317.244298 174.553202 
L 318.196364 174.04904 
L 319.465785 173.130919 
L 320.100496 172.903108 
L 320.735207 172.450598 
L 321.369917 172.225597 
L 321.687273 172.167439 
L 322.321983 171.827292 
L 322.956694 171.376862 
L 323.90876 170.732492 
L 324.226116 170.457658 
L 324.543471 170.371954 
L 325.178182 169.995447 
L 326.130248 169.494374 
L 328.669091 168.21417 
L 330.255868 167.255237 
L 330.890579 167.031207 
L 331.525289 166.561537 
L 332.794711 165.999411 
L 333.112066 165.89437 
L 333.429421 165.624791 
L 333.746777 165.565665 
L 334.064132 165.302169 
L 334.381488 165.229775 
L 334.698843 164.978401 
L 335.968264 164.461747 
L 338.189752 163.033239 
L 341.04595 161.017846 
L 341.363306 160.975669 
L 341.680661 160.649868 
L 342.315372 160.396337 
L 342.632727 160.08497 
L 342.950083 159.992173 
L 344.854215 158.781895 
L 345.806281 158.388299 
L 346.440992 157.777335 
L 346.758347 157.667102 
L 347.710413 157.06781 
L 349.931901 155.70522 
L 350.249256 155.650067 
L 350.883967 155.058162 
L 353.42281 153.451589 
L 353.740165 153.0899 
L 354.374876 152.666393 
L 354.692231 152.406754 
L 355.326942 152.186406 
L 355.961653 151.624561 
L 356.279008 151.520607 
L 358.500496 149.846074 
L 358.817851 149.809467 
L 359.135207 149.184273 
L 360.087273 148.327684 
L 360.404628 148.111602 
L 360.721983 147.754956 
L 361.991405 146.947194 
L 362.626116 146.385454 
L 364.212893 145.398605 
L 364.530248 144.93776 
L 365.164959 144.646657 
L 366.117025 144.017131 
L 366.43438 143.926712 
L 366.751736 143.376637 
L 367.069091 143.296856 
L 367.703802 142.802329 
L 368.338512 142.40544 
L 368.655868 141.950411 
L 368.973223 141.769319 
L 370.242645 140.267479 
L 370.56 140.012176 
L 370.877355 139.548502 
L 371.194711 139.377664 
L 373.098843 136.601321 
L 373.733554 136.418977 
L 374.050909 136.179891 
L 375.002975 134.792852 
L 375.955041 133.969075 
L 376.907107 132.862688 
L 377.224463 132.612432 
L 378.81124 130.379158 
L 379.128595 129.8625 
L 379.44595 128.785357 
L 379.763306 128.664063 
L 380.080661 127.788349 
L 380.398017 127.674781 
L 380.715372 127.003138 
L 383.888926 123.335889 
L 384.206281 122.685652 
L 384.523636 122.361901 
L 385.475702 120.261484 
L 385.793058 119.958368 
L 386.427769 117.801743 
L 386.745124 117.539232 
L 387.062479 116.552316 
L 388.966612 113.888172 
L 389.918678 110.635634 
L 390.236033 110.282415 
L 390.553388 109.518287 
L 390.870744 107.338566 
L 391.188099 107.114849 
L 391.505455 106.26815 
L 391.82281 105.869939 
L 392.140165 105.203852 
L 392.457521 103.851359 
L 393.092231 102.598281 
L 393.409587 101.110923 
L 394.044298 99.625596 
L 394.361653 97.840474 
L 395.631074 93.934496 
L 395.94843 93.238208 
L 396.265785 87.535913 
L 396.58314 84.715798 
L 396.900496 83.65393 
L 397.217851 81.489788 
L 397.535207 71.533096 
L 398.169917 67.796963 
L 398.487273 59.156119 
L 398.487273 59.156119 
" clip-path="url(#p15a18017d2)" style="fill: none; stroke: #1f77b4; stroke-width: 1.5; stroke-linecap: square"/>
   </g>
   <g id="line2d_16">
    <path d="M 73.832727 283.355136 
L 74.150083 283.355136 
L 74.467438 282.912418 
L 74.784793 282.912418 
L 75.102149 282.306772 
L 75.419504 282.306772 
L 76.37157 281.955831 
L 76.688926 280.777934 
L 77.006281 280.777934 
L 77.323636 280.289462 
L 77.640992 280.289462 
L 77.958347 279.310755 
L 78.275702 279.310755 
L 78.593058 278.959473 
L 78.910413 277.587647 
L 79.227769 277.587647 
L 79.545124 277.244203 
L 80.49719 277.170359 
L 80.814545 276.100981 
L 81.131901 275.969022 
L 81.449256 275.969022 
L 81.766612 275.334684 
L 82.718678 275.318807 
L 83.036033 274.724848 
L 83.353388 274.724848 
L 83.670744 274.209482 
L 83.988099 274.001567 
L 84.305455 274.001567 
L 84.62281 273.771109 
L 84.940165 273.771109 
L 85.257521 273.503023 
L 85.574876 272.798003 
L 86.209587 272.719866 
L 86.526942 272.133568 
L 87.479008 272.059057 
L 87.796364 271.841201 
L 88.113719 271.841201 
L 88.431074 271.270188 
L 88.74843 270.942452 
L 89.065785 270.942452 
L 89.38314 270.633379 
L 89.700496 269.924221 
L 90.017851 269.924221 
L 90.335207 269.359916 
L 90.969917 269.27104 
L 91.287273 268.700441 
L 92.556694 268.611036 
L 92.87405 267.697566 
L 93.826116 267.581867 
L 94.143471 267.443387 
L 94.460826 267.443387 
L 94.778182 267.224223 
L 95.095537 267.224223 
L 95.412893 266.291871 
L 95.730248 266.291871 
L 96.047603 266.070876 
L 96.999669 266.02892 
L 97.951736 265.790068 
L 98.269091 265.538028 
L 98.586446 264.688304 
L 98.903802 264.688304 
L 99.221157 264.037099 
L 100.173223 263.930769 
L 100.490579 263.734056 
L 100.807934 263.734056 
L 101.125289 263.534318 
L 101.442645 263.534318 
L 102.077355 262.846454 
L 102.712066 262.835029 
L 103.029421 262.277558 
L 103.346777 262.277558 
L 103.664132 262.137849 
L 103.981488 262.137849 
L 104.616198 261.37719 
L 104.933554 261.37719 
L 105.568264 260.747057 
L 105.88562 260.747057 
L 106.202975 260.551841 
L 106.520331 260.551841 
L 106.837686 259.46697 
L 107.789752 259.396159 
L 108.107107 259.396159 
L 108.424463 259.011439 
L 109.059174 258.961502 
L 109.376529 258.564232 
L 109.693884 258.564232 
L 110.01124 258.049928 
L 110.328595 258.049928 
L 110.64595 257.712536 
L 111.280661 257.612008 
L 111.598017 257.469199 
L 112.232727 257.37495 
L 112.550083 257.206989 
L 112.867438 257.206989 
L 113.184793 256.500127 
L 114.13686 256.444301 
L 114.454215 256.064799 
L 115.406281 255.558477 
L 115.723636 255.558477 
L 116.040992 255.23406 
L 116.358347 255.23406 
L 116.675702 255.065631 
L 116.993058 255.065631 
L 117.310413 254.117473 
L 118.579835 254.079232 
L 119.849256 253.857804 
L 120.166612 253.181644 
L 120.483967 253.181644 
L 120.801322 252.550552 
L 121.118678 252.550552 
L 121.436033 252.23117 
L 121.753388 252.23117 
L 122.070744 252.110502 
L 122.388099 252.110502 
L 123.340165 250.848264 
L 123.974876 250.835071 
L 124.292231 250.694617 
L 124.926942 250.688046 
L 125.244298 250.194337 
L 125.561653 250.194337 
L 125.879008 249.748629 
L 126.196364 249.748629 
L 126.513719 249.044702 
L 127.14843 249.000778 
L 127.465785 248.16516 
L 129.052562 248.151264 
L 129.687273 247.651016 
L 131.27405 247.447166 
L 131.591405 247.09342 
L 132.226116 247.006525 
L 133.178182 246.919335 
L 133.495537 246.919335 
L 134.764959 246.250039 
L 135.399669 246.226007 
L 135.717025 245.985899 
L 136.669091 245.981937 
L 136.986446 245.624169 
L 137.303802 245.624169 
L 137.621157 245.413849 
L 137.938512 244.912837 
L 138.573223 244.757896 
L 138.890579 244.757896 
L 139.207934 244.544841 
L 139.525289 244.544841 
L 139.842645 244.280743 
L 140.16 244.280743 
L 140.477355 243.570735 
L 141.429421 243.512351 
L 141.746777 243.37141 
L 142.064132 242.996772 
L 142.381488 242.996772 
L 142.698843 242.390178 
L 143.333554 242.389454 
L 143.650909 242.239107 
L 143.968264 242.239107 
L 144.28562 241.89082 
L 144.602975 241.710018 
L 145.555041 241.62557 
L 146.189752 241.382861 
L 146.507107 241.382861 
L 146.824463 241.112314 
L 147.141818 241.112314 
L 147.776529 240.276975 
L 149.363306 240.176155 
L 149.680661 240.10706 
L 149.998017 238.125404 
L 150.315372 238.125404 
L 150.950083 237.724162 
L 151.267438 237.724162 
L 151.584793 237.37286 
L 152.219504 237.328985 
L 152.854215 236.979545 
L 153.17157 236.979545 
L 153.488926 236.602768 
L 154.440992 236.379534 
L 154.758347 236.379534 
L 155.393058 236.221275 
L 155.710413 236.221275 
L 156.027769 235.903384 
L 158.249256 235.743163 
L 158.566612 235.0671 
L 159.201322 235.057787 
L 159.518678 233.992687 
L 160.153388 233.962803 
L 160.470744 233.648165 
L 160.788099 233.643675 
L 161.105455 233.39705 
L 162.057521 233.349245 
L 162.374876 233.079553 
L 163.326942 233.02738 
L 163.644298 232.744491 
L 163.961653 232.744491 
L 164.279008 232.521942 
L 164.596364 232.521942 
L 164.913719 232.378436 
L 165.231074 231.538055 
L 165.54843 231.538055 
L 165.865785 231.069886 
L 166.500496 230.994284 
L 166.817851 230.967573 
L 167.135207 230.527439 
L 167.769917 230.428611 
L 168.087273 230.042875 
L 168.404628 230.042875 
L 169.039339 229.376084 
L 169.356694 229.376084 
L 169.67405 229.0244 
L 170.943471 228.995223 
L 171.260826 228.492266 
L 171.578182 228.34786 
L 171.895537 228.34786 
L 172.212893 227.693345 
L 172.530248 227.693345 
L 172.847603 227.19108 
L 173.799669 227.096409 
L 174.117025 226.951379 
L 174.43438 226.951379 
L 175.386446 226.558719 
L 176.021157 226.504565 
L 176.338512 226.195648 
L 177.290579 226.138691 
L 177.607934 226.138691 
L 178.242645 225.952662 
L 178.56 225.952662 
L 178.877355 225.565071 
L 179.512066 225.506379 
L 179.829421 225.351271 
L 180.146777 225.351271 
L 180.464132 225.066953 
L 180.781488 225.066953 
L 181.098843 224.729788 
L 181.733554 224.704893 
L 182.050909 224.107613 
L 183.002975 223.841342 
L 183.320331 223.841342 
L 183.955041 223.632335 
L 184.272397 223.632335 
L 184.589752 223.477831 
L 184.907107 223.477831 
L 185.224463 222.796836 
L 185.541818 222.796836 
L 186.176529 222.441435 
L 187.44595 222.372573 
L 188.080661 222.164415 
L 188.398017 221.749342 
L 188.715372 221.749342 
L 189.032727 221.489326 
L 189.667438 221.479322 
L 189.984793 221.063827 
L 190.302149 221.063827 
L 190.619504 220.080318 
L 190.93686 220.080318 
L 191.57157 219.913014 
L 191.888926 219.913014 
L 192.206281 219.104067 
L 193.475702 219.058133 
L 193.793058 218.87929 
L 194.110413 218.87929 
L 194.745124 218.760258 
L 196.649256 218.655214 
L 196.966612 218.477713 
L 197.601322 218.451882 
L 197.918678 218.235748 
L 198.236033 217.840657 
L 198.553388 217.840657 
L 199.188099 216.973144 
L 199.505455 216.973144 
L 199.82281 216.832058 
L 200.140165 216.832058 
L 200.457521 216.572578 
L 201.092231 216.539163 
L 201.726942 216.452772 
L 202.044298 216.063856 
L 202.996364 216.020051 
L 203.94843 215.570814 
L 205.217851 215.267183 
L 205.852562 215.239097 
L 206.169917 214.959015 
L 206.487273 214.959015 
L 206.804628 214.727639 
L 207.121983 214.727639 
L 208.07405 214.169347 
L 208.391405 214.169347 
L 209.026116 213.771222 
L 209.343471 213.771222 
L 209.660826 213.370446 
L 210.295537 213.283527 
L 210.612893 213.116347 
L 210.930248 213.116347 
L 211.247603 212.843732 
L 214.421157 212.085087 
L 214.738512 211.655448 
L 216.007934 211.556771 
L 216.325289 211.258224 
L 216.642645 211.258224 
L 216.96 210.86098 
L 217.277355 210.86098 
L 217.594711 210.682063 
L 219.181488 210.497242 
L 219.498843 209.987927 
L 219.816198 209.160283 
L 220.133554 208.912374 
L 220.450909 208.912374 
L 220.768264 208.765261 
L 221.08562 208.765261 
L 221.402975 208.570746 
L 222.672397 208.441046 
L 222.989752 208.303032 
L 223.307107 208.303032 
L 223.624463 207.944999 
L 224.576529 207.885538 
L 225.528595 207.635825 
L 225.84595 207.635825 
L 226.480661 207.291753 
L 226.798017 207.291753 
L 227.115372 207.086524 
L 227.432727 207.086524 
L 227.750083 206.768643 
L 229.019504 206.681665 
L 229.33686 206.558325 
L 229.97157 206.546313 
L 230.288926 206.322792 
L 230.606281 206.322792 
L 230.923636 206.012416 
L 231.558347 205.941171 
L 231.875702 205.786056 
L 232.510413 205.736761 
L 232.827769 205.499629 
L 233.145124 205.499629 
L 233.779835 205.388057 
L 234.414545 205.376491 
L 234.731901 204.913788 
L 235.683967 204.881386 
L 236.001322 204.552922 
L 236.636033 204.531169 
L 236.953388 204.18464 
L 237.270744 204.048922 
L 238.22281 203.993018 
L 238.540165 203.231901 
L 239.174876 203.116859 
L 239.809587 203.024403 
L 240.444298 202.960098 
L 240.761653 202.696314 
L 241.079008 202.696314 
L 241.396364 202.401422 
L 242.665785 202.186959 
L 243.300496 201.828632 
L 245.204628 201.634747 
L 245.521983 201.3435 
L 246.156694 201.229395 
L 246.47405 201.206698 
L 246.791405 200.599388 
L 247.10876 200.2985 
L 247.426116 200.2985 
L 247.743471 200.145258 
L 248.060826 200.145258 
L 248.378182 199.882538 
L 249.330248 199.62147 
L 249.647603 199.62147 
L 249.964959 199.413989 
L 251.23438 199.353223 
L 252.821157 198.601063 
L 253.138512 198.176718 
L 253.455868 198.176718 
L 254.090579 197.975228 
L 254.407934 197.975228 
L 254.725289 197.76783 
L 255.36 196.838641 
L 256.312066 196.769535 
L 256.629421 196.477558 
L 257.581488 196.440704 
L 258.533554 196.150242 
L 258.850909 196.150242 
L 259.48562 195.812877 
L 259.802975 195.688211 
L 260.120331 195.688211 
L 260.437686 195.272294 
L 260.755041 195.272294 
L 262.024463 194.779368 
L 262.976529 194.739005 
L 263.293884 194.332684 
L 263.928595 194.330634 
L 264.24595 194.086655 
L 264.880661 194.080814 
L 265.198017 193.904951 
L 266.467438 193.810576 
L 266.784793 193.649981 
L 267.102149 193.286964 
L 268.054215 193.178023 
L 268.37157 192.778041 
L 268.688926 192.778041 
L 269.323636 192.361815 
L 269.640992 192.17478 
L 270.593058 192.090737 
L 270.910413 192.042718 
L 271.227769 191.710882 
L 272.179835 191.614597 
L 272.49719 191.206249 
L 273.449256 191.188445 
L 273.766612 190.915298 
L 274.718678 190.684255 
L 275.353388 190.606745 
L 275.670744 189.554017 
L 276.62281 189.447148 
L 277.574876 189.199611 
L 277.892231 189.199611 
L 278.844298 188.530642 
L 279.161653 188.530642 
L 279.479008 188.347538 
L 279.796364 188.347538 
L 280.113719 187.614932 
L 280.74843 187.559933 
L 281.065785 187.426282 
L 281.700496 187.320583 
L 282.335207 187.300256 
L 282.969917 186.717596 
L 283.287273 186.717596 
L 283.604628 186.559325 
L 284.239339 186.498364 
L 284.556694 185.32652 
L 285.191405 185.223422 
L 286.143471 185.120968 
L 286.460826 184.838915 
L 286.778182 184.838915 
L 287.095537 184.713631 
L 287.412893 184.23704 
L 288.682314 184.167757 
L 288.999669 183.988457 
L 289.317025 183.988457 
L 289.951736 183.465415 
L 291.221157 183.411448 
L 291.538512 183.179191 
L 291.855868 183.179191 
L 292.173223 182.974543 
L 292.490579 182.974543 
L 292.807934 182.813858 
L 293.125289 182.813858 
L 293.442645 182.628527 
L 293.76 182.628527 
L 294.077355 182.33481 
L 295.029421 182.179075 
L 295.346777 181.611528 
L 295.981488 181.5857 
L 296.298843 181.084115 
L 297.250909 180.791407 
L 297.568264 180.090804 
L 297.88562 180.090804 
L 298.202975 179.84306 
L 298.520331 179.84306 
L 299.472397 179.551992 
L 300.107107 179.526909 
L 300.424463 179.155537 
L 301.059174 179.071463 
L 302.01124 178.925522 
L 302.328595 178.256184 
L 302.963306 177.924658 
L 303.280661 177.924658 
L 303.598017 177.613895 
L 303.915372 177.029598 
L 304.232727 177.029598 
L 304.550083 176.714547 
L 304.867438 176.714547 
L 305.184793 176.223597 
L 305.502149 176.223597 
L 305.819504 176.097526 
L 306.454215 175.991421 
L 307.088926 175.879523 
L 308.040992 175.818618 
L 308.358347 175.579099 
L 308.675702 175.579099 
L 308.993058 175.441668 
L 309.627769 175.423039 
L 309.945124 175.259292 
L 310.262479 174.216177 
L 310.579835 174.026143 
L 311.531901 173.93932 
L 311.849256 173.418042 
L 312.166612 173.418042 
L 312.801322 172.200939 
L 314.070744 172.141202 
L 314.388099 171.669645 
L 315.02281 171.66024 
L 315.340165 171.458222 
L 316.609587 171.344768 
L 316.926942 171.034819 
L 317.561653 170.918674 
L 317.879008 170.561626 
L 318.831074 170.47484 
L 319.465785 169.270699 
L 319.78314 169.270699 
L 320.417851 168.480136 
L 320.735207 168.317984 
L 321.687273 168.303329 
L 322.004628 168.068461 
L 322.321983 167.297688 
L 322.639339 167.297688 
L 322.956694 166.91095 
L 323.591405 166.845313 
L 324.226116 166.044223 
L 324.543471 166.044223 
L 324.860826 165.86484 
L 325.178182 165.86484 
L 325.495537 165.615808 
L 325.812893 165.615808 
L 326.130248 165.39708 
L 326.447603 164.91349 
L 327.399669 164.825069 
L 328.351736 164.701105 
L 328.669091 164.162732 
L 328.986446 163.918324 
L 329.621157 163.89705 
L 329.938512 163.618575 
L 330.255868 163.618575 
L 330.573223 163.391655 
L 330.890579 163.391655 
L 331.207934 163.093699 
L 332.16 162.836018 
L 332.477355 162.183531 
L 333.112066 162.091096 
L 333.429421 161.614394 
L 333.746777 161.614394 
L 334.064132 160.488457 
L 334.381488 160.21981 
L 336.28562 160.058783 
L 336.602975 159.878787 
L 336.920331 159.561305 
L 337.237686 159.561305 
L 337.555041 159.417722 
L 337.872397 159.025683 
L 338.507107 158.957065 
L 339.141818 158.944409 
L 339.459174 158.540075 
L 339.776529 158.540075 
L 340.093884 158.374795 
L 340.41124 157.972034 
L 340.728595 157.972034 
L 341.04595 157.769049 
L 341.363306 157.769049 
L 341.680661 156.143919 
L 341.998017 155.871975 
L 342.315372 155.871975 
L 342.632727 155.300791 
L 342.950083 155.300791 
L 343.267438 155.057866 
L 345.17157 154.574845 
L 345.488926 154.049282 
L 345.806281 154.049282 
L 346.123636 153.535154 
L 346.440992 153.356067 
L 346.758347 153.356067 
L 347.393058 152.611359 
L 348.345124 152.529825 
L 348.662479 152.390356 
L 348.979835 152.390356 
L 349.29719 151.380462 
L 349.614545 151.380462 
L 352.470744 150.321297 
L 352.788099 149.771419 
L 353.42281 149.758636 
L 353.740165 149.598929 
L 354.057521 149.598929 
L 354.374876 149.124985 
L 354.692231 149.124985 
L 355.009587 148.144493 
L 355.644298 148.042749 
L 355.961653 147.926228 
L 356.279008 147.105527 
L 356.596364 147.105527 
L 356.913719 145.993814 
L 357.54843 145.913719 
L 357.865785 145.534896 
L 358.18314 145.534896 
L 358.500496 145.022506 
L 358.817851 145.022506 
L 359.135207 144.736728 
L 359.452562 144.600977 
L 359.769917 144.291767 
L 360.087273 144.140018 
L 360.404628 144.140018 
L 360.721983 143.825388 
L 361.039339 143.825388 
L 361.356694 143.634826 
L 362.626116 143.542037 
L 363.260826 142.32983 
L 363.578182 142.32983 
L 364.212893 141.658172 
L 364.530248 141.658172 
L 365.164959 140.259566 
L 365.482314 139.847995 
L 365.799669 139.847995 
L 366.117025 139.51482 
L 366.43438 139.382213 
L 366.751736 139.382213 
L 367.069091 139.221283 
L 367.386446 139.221283 
L 367.703802 138.672046 
L 368.973223 138.472415 
L 369.290579 137.881625 
L 369.607934 137.881625 
L 369.925289 137.233069 
L 370.242645 135.715848 
L 370.56 134.880665 
L 370.877355 134.880665 
L 371.194711 133.845652 
L 371.829421 133.780093 
L 372.146777 133.462328 
L 372.781488 133.393637 
L 373.098843 133.224511 
L 373.416198 132.490156 
L 373.733554 132.452354 
L 374.050909 132.231166 
L 374.368264 132.231166 
L 374.68562 131.451474 
L 375.002975 131.451474 
L 375.637686 130.381676 
L 375.955041 130.381676 
L 376.272397 129.596725 
L 376.589752 129.596725 
L 376.907107 128.892294 
L 377.224463 126.661844 
L 377.541818 126.661844 
L 379.128595 126.088616 
L 379.44595 125.500985 
L 379.763306 123.516846 
L 380.080661 122.868195 
L 380.398017 122.868195 
L 380.715372 122.379722 
L 381.032727 121.152099 
L 381.667438 121.041736 
L 382.302149 120.935503 
L 382.93686 120.886469 
L 383.254215 120.12129 
L 383.888926 119.462806 
L 384.206281 119.462806 
L 384.523636 118.101176 
L 384.840992 118.101176 
L 385.158347 116.465972 
L 385.475702 116.465972 
L 385.793058 115.656977 
L 386.110413 113.958621 
L 386.427769 113.11397 
L 386.745124 113.11397 
L 387.062479 112.911244 
L 387.379835 110.980033 
L 387.69719 110.065163 
L 388.014545 110.065163 
L 388.331901 109.884745 
L 388.649256 108.935718 
L 388.966612 108.485414 
L 389.918678 108.41826 
L 390.553388 103.30126 
L 390.870744 103.30126 
L 391.188099 103.083952 
L 391.82281 100.419779 
L 392.140165 100.419779 
L 392.457521 98.616902 
L 392.774876 98.224457 
L 393.092231 98.224457 
L 393.409587 96.786324 
L 393.726942 96.786324 
L 394.044298 95.408946 
L 394.361653 91.947299 
L 394.679008 90.954871 
L 394.996364 90.954871 
L 395.313719 90.357101 
L 395.631074 90.109157 
L 395.94843 90.109157 
L 396.265785 82.435668 
L 396.58314 79.080714 
L 396.900496 77.806542 
L 397.217851 77.806542 
L 397.535207 64.668752 
L 397.852562 64.377658 
L 398.169917 64.377658 
L 398.487273 53.568 
L 398.487273 53.568 
" clip-path="url(#p15a18017d2)" style="fill: none; stroke: #ff7f0e; stroke-width: 1.5; stroke-linecap: square"/>
   </g>
   <g id="patch_3">
    <path d="M 57.6 307.584 
L 57.6 41.472 
" style="fill: none; stroke: #000000; stroke-width: 0.8; stroke-linejoin: miter; stroke-linecap: square"/>
   </g>
   <g id="patch_4">
    <path d="M 414.72 307.584 
L 414.72 41.472 
" style="fill: none; stroke: #000000; stroke-width: 0.8; stroke-linejoin: miter; stroke-linecap: square"/>
   </g>
   <g id="patch_5">
    <path d="M 57.6 307.584 
L 414.72 307.584 
" style="fill: none; stroke: #000000; stroke-width: 0.8; stroke-linejoin: miter; stroke-linecap: square"/>
   </g>
   <g id="patch_6">
    <path d="M 57.6 41.472 
L 414.72 41.472 
" style="fill: none; stroke: #000000; stroke-width: 0.8; stroke-linejoin: miter; stroke-linecap: square"/>
   </g>
   <g id="legend_1">
    <g id="patch_7">
     <path d="M 64.6 78.82825 
L 129.342187 78.82825 
Q 131.342187 78.82825 131.342187 76.82825 
L 131.342187 48.472 
Q 131.342187 46.472 129.342187 46.472 
L 64.6 46.472 
Q 62.6 46.472 62.6 48.472 
L 62.6 76.82825 
Q 62.6 78.82825 64.6 78.82825 
z
" style="fill: #ffffff; opacity: 0.8; stroke: #cccccc; stroke-linejoin: miter"/>
    </g>
    <g id="line2d_17">
     <path d="M 66.6 54.570437 
L 76.6 54.570437 
L 86.6 54.570437 
" style="fill: none; stroke: #1f77b4; stroke-width: 1.5; stroke-linecap: square"/>
    </g>
    <g id="text_17">
     <!-- qc -->
     <g transform="translate(94.6 58.070437) scale(0.1 -0.1)">
      <defs>
       <path id="DejaVuSans-71" d="M 947 1747 
Q 947 1113 1208 752 
Q 1469 391 1925 391 
Q 2381 391 2643 752 
Q 2906 1113 2906 1747 
Q 2906 2381 2643 2742 
Q 2381 3103 1925 3103 
Q 1469 3103 1208 2742 
Q 947 2381 947 1747 
z
M 2906 525 
Q 2725 213 2448 61 
Q 2172 -91 1784 -91 
Q 1150 -91 751 415 
Q 353 922 353 1747 
Q 353 2572 751 3078 
Q 1150 3584 1784 3584 
Q 2172 3584 2448 3432 
Q 2725 3281 2906 2969 
L 2906 3500 
L 3481 3500 
L 3481 -1331 
L 2906 -1331 
L 2906 525 
z
" transform="scale(0.015625)"/>
       <path id="DejaVuSans-63" d="M 3122 3366 
L 3122 2828 
Q 2878 2963 2633 3030 
Q 2388 3097 2138 3097 
Q 1578 3097 1268 2742 
Q 959 2388 959 1747 
Q 959 1106 1268 751 
Q 1578 397 2138 397 
Q 2388 397 2633 464 
Q 2878 531 3122 666 
L 3122 134 
Q 2881 22 2623 -34 
Q 2366 -91 2075 -91 
Q 1284 -91 818 406 
Q 353 903 353 1747 
Q 353 2603 823 3093 
Q 1294 3584 2113 3584 
Q 2378 3584 2631 3529 
Q 2884 3475 3122 3366 
z
" transform="scale(0.015625)"/>
      </defs>
      <use xlink:href="#DejaVuSans-71"/>
      <use xlink:href="#DejaVuSans-63" x="63.476562"/>
     </g>
    </g>
    <g id="line2d_18">
     <path d="M 66.6 69.248562 
L 76.6 69.248562 
L 86.6 69.248562 
" style="fill: none; stroke: #ff7f0e; stroke-width: 1.5; stroke-linecap: square"/>
    </g>
    <g id="text_18">
     <!-- Trotter -->
     <g transform="translate(94.6 72.748562) scale(0.1 -0.1)">
      <defs>
       <path id="DejaVuSans-54" d="M -19 4666 
L 3928 4666 
L 3928 4134 
L 2272 4134 
L 2272 0 
L 1638 0 
L 1638 4134 
L -19 4134 
L -19 4666 
z
" transform="scale(0.015625)"/>
       <path id="DejaVuSans-72" d="M 2631 2963 
Q 2534 3019 2420 3045 
Q 2306 3072 2169 3072 
Q 1681 3072 1420 2755 
Q 1159 2438 1159 1844 
L 1159 0 
L 581 0 
L 581 3500 
L 1159 3500 
L 1159 2956 
Q 1341 3275 1631 3429 
Q 1922 3584 2338 3584 
Q 2397 3584 2469 3576 
Q 2541 3569 2628 3553 
L 2631 2963 
z
" transform="scale(0.015625)"/>
       <path id="DejaVuSans-6f" d="M 1959 3097 
Q 1497 3097 1228 2736 
Q 959 2375 959 1747 
Q 959 1119 1226 758 
Q 1494 397 1959 397 
Q 2419 397 2687 759 
Q 2956 1122 2956 1747 
Q 2956 2369 2687 2733 
Q 2419 3097 1959 3097 
z
M 1959 3584 
Q 2709 3584 3137 3096 
Q 3566 2609 3566 1747 
Q 3566 888 3137 398 
Q 2709 -91 1959 -91 
Q 1206 -91 779 398 
Q 353 888 353 1747 
Q 353 2609 779 3096 
Q 1206 3584 1959 3584 
z
" transform="scale(0.015625)"/>
       <path id="DejaVuSans-65" d="M 3597 1894 
L 3597 1613 
L 953 1613 
Q 991 1019 1311 708 
Q 1631 397 2203 397 
Q 2534 397 2845 478 
Q 3156 559 3463 722 
L 3463 178 
Q 3153 47 2828 -22 
Q 2503 -91 2169 -91 
Q 1331 -91 842 396 
Q 353 884 353 1716 
Q 353 2575 817 3079 
Q 1281 3584 2069 3584 
Q 2775 3584 3186 3129 
Q 3597 2675 3597 1894 
z
M 3022 2063 
Q 3016 2534 2758 2815 
Q 2500 3097 2075 3097 
Q 1594 3097 1305 2825 
Q 1016 2553 972 2059 
L 3022 2063 
z
" transform="scale(0.015625)"/>
      </defs>
      <use xlink:href="#DejaVuSans-54"/>
      <use xlink:href="#DejaVuSans-72" x="46.333984"/>
      <use xlink:href="#DejaVuSans-6f" x="85.197266"/>
      <use xlink:href="#DejaVuSans-74" x="146.378906"/>
      <use xlink:href="#DejaVuSans-74" x="185.587891"/>
      <use xlink:href="#DejaVuSans-65" x="224.796875"/>
      <use xlink:href="#DejaVuSans-72" x="286.320312"/>
     </g>
    </g>
   </g>
  </g>
 </g>
 <defs>
  <clipPath id="p15a18017d2">
   <rect x="57.6" y="41.472" width="357.12" height="266.112"/>
  </clipPath>
 </defs>
</svg>
