<?xml version="1.0" encoding="utf-8" standalone="no"?>
<!DOCTYPE svg PUBLIC "-//W3C//DTD SVG 1.1//EN"
  "http://www.w3.org/Graphics/SVG/1.1/DTD/svg11.dtd">
<svg xmlns:xlink="http://www.w3.org/1999/xlink" width="460.8pt" height="345.6pt" viewBox="0 0 460.8 345.6" xmlns="http://www.w3.org/2000/svg" version="1.1">
 <metadata>
  <rdf:RDF xmlns:dc="http://purl.org/dc/elements/1.1/" xmlns:cc="http://creativecommons.org/ns#" xmlns:rdf="http://www.w3.org/1999/02/22-rdf-syntax-ns#">
   <cc:Work>
    <dc:type rdf:resource="http://purl.org/dc/dcmitype/StillImage"/>
    <dc:date>2024-07-14T10:36:08.195197</dc:date>
    <dc:format>image/svg+xml</dc:format>
    <dc:creator>
     <cc:Agent>
      <dc:title>Matplotlib v3.7.1, https://matplotlib.org/</dc:title>
     </cc:Agent>
    </dc:creator>
   </cc:Work>
  </rdf:RDF>
 </metadata>
 <defs>
  <style type="text/css">*{stroke-linejoin: round; stroke-linecap: butt}</style>
 </defs>
 <g id="figure_1">
  <g id="patch_1">
   <path d="M 0 345.6 
L 460.8 345.6 
L 460.8 0 
L 0 0 
z
" style="fill: #ffffff"/>
  </g>
  <g id="axes_1">
   <g id="patch_2">
    <path d="M 57.6 307.584 
L 414.72 307.584 
L 414.72 41.472 
L 57.6 41.472 
z
" style="fill: #ffffff"/>
   </g>
   <g id="matplotlib.axis_1">
    <g id="xtick_1">
     <g id="line2d_1">
      <defs>
       <path id="m5c21b0f229" d="M 0 0 
L 0 3.5 
" style="stroke: #000000; stroke-width: 0.8"/>
      </defs>
      <g>
       <use xlink:href="#m5c21b0f229" x="73.832727" y="307.584" style="stroke: #000000; stroke-width: 0.8"/>
      </g>
     </g>
     <g id="text_1">
      <!-- 0 -->
      <g transform="translate(70.651477 322.182437) scale(0.1 -0.1)">
       <defs>
        <path id="DejaVuSans-30" d="M 2034 4250 
Q 1547 4250 1301 3770 
Q 1056 3291 1056 2328 
Q 1056 1369 1301 889 
Q 1547 409 2034 409 
Q 2525 409 2770 889 
Q 3016 1369 3016 2328 
Q 3016 3291 2770 3770 
Q 2525 4250 2034 4250 
z
M 2034 4750 
Q 2819 4750 3233 4129 
Q 3647 3509 3647 2328 
Q 3647 1150 3233 529 
Q 2819 -91 2034 -91 
Q 1250 -91 836 529 
Q 422 1150 422 2328 
Q 422 3509 836 4129 
Q 1250 4750 2034 4750 
z
" transform="scale(0.015625)"/>
       </defs>
       <use xlink:href="#DejaVuSans-30"/>
      </g>
     </g>
    </g>
    <g id="xtick_2">
     <g id="line2d_2">
      <g>
       <use xlink:href="#m5c21b0f229" x="137.303802" y="307.584" style="stroke: #000000; stroke-width: 0.8"/>
      </g>
     </g>
     <g id="text_2">
      <!-- 200 -->
      <g transform="translate(127.760052 322.182437) scale(0.1 -0.1)">
       <defs>
        <path id="DejaVuSans-32" d="M 1228 531 
L 3431 531 
L 3431 0 
L 469 0 
L 469 531 
Q 828 903 1448 1529 
Q 2069 2156 2228 2338 
Q 2531 2678 2651 2914 
Q 2772 3150 2772 3378 
Q 2772 3750 2511 3984 
Q 2250 4219 1831 4219 
Q 1534 4219 1204 4116 
Q 875 4013 500 3803 
L 500 4441 
Q 881 4594 1212 4672 
Q 1544 4750 1819 4750 
Q 2544 4750 2975 4387 
Q 3406 4025 3406 3419 
Q 3406 3131 3298 2873 
Q 3191 2616 2906 2266 
Q 2828 2175 2409 1742 
Q 1991 1309 1228 531 
z
" transform="scale(0.015625)"/>
       </defs>
       <use xlink:href="#DejaVuSans-32"/>
       <use xlink:href="#DejaVuSans-30" x="63.623047"/>
       <use xlink:href="#DejaVuSans-30" x="127.246094"/>
      </g>
     </g>
    </g>
    <g id="xtick_3">
     <g id="line2d_3">
      <g>
       <use xlink:href="#m5c21b0f229" x="200.774876" y="307.584" style="stroke: #000000; stroke-width: 0.8"/>
      </g>
     </g>
     <g id="text_3">
      <!-- 400 -->
      <g transform="translate(191.231126 322.182437) scale(0.1 -0.1)">
       <defs>
        <path id="DejaVuSans-34" d="M 2419 4116 
L 825 1625 
L 2419 1625 
L 2419 4116 
z
M 2253 4666 
L 3047 4666 
L 3047 1625 
L 3713 1625 
L 3713 1100 
L 3047 1100 
L 3047 0 
L 2419 0 
L 2419 1100 
L 313 1100 
L 313 1709 
L 2253 4666 
z
" transform="scale(0.015625)"/>
       </defs>
       <use xlink:href="#DejaVuSans-34"/>
       <use xlink:href="#DejaVuSans-30" x="63.623047"/>
       <use xlink:href="#DejaVuSans-30" x="127.246094"/>
      </g>
     </g>
    </g>
    <g id="xtick_4">
     <g id="line2d_4">
      <g>
       <use xlink:href="#m5c21b0f229" x="264.24595" y="307.584" style="stroke: #000000; stroke-width: 0.8"/>
      </g>
     </g>
     <g id="text_4">
      <!-- 600 -->
      <g transform="translate(254.7022 322.182437) scale(0.1 -0.1)">
       <defs>
        <path id="DejaVuSans-36" d="M 2113 2584 
Q 1688 2584 1439 2293 
Q 1191 2003 1191 1497 
Q 1191 994 1439 701 
Q 1688 409 2113 409 
Q 2538 409 2786 701 
Q 3034 994 3034 1497 
Q 3034 2003 2786 2293 
Q 2538 2584 2113 2584 
z
M 3366 4563 
L 3366 3988 
Q 3128 4100 2886 4159 
Q 2644 4219 2406 4219 
Q 1781 4219 1451 3797 
Q 1122 3375 1075 2522 
Q 1259 2794 1537 2939 
Q 1816 3084 2150 3084 
Q 2853 3084 3261 2657 
Q 3669 2231 3669 1497 
Q 3669 778 3244 343 
Q 2819 -91 2113 -91 
Q 1303 -91 875 529 
Q 447 1150 447 2328 
Q 447 3434 972 4092 
Q 1497 4750 2381 4750 
Q 2619 4750 2861 4703 
Q 3103 4656 3366 4563 
z
" transform="scale(0.015625)"/>
       </defs>
       <use xlink:href="#DejaVuSans-36"/>
       <use xlink:href="#DejaVuSans-30" x="63.623047"/>
       <use xlink:href="#DejaVuSans-30" x="127.246094"/>
      </g>
     </g>
    </g>
    <g id="xtick_5">
     <g id="line2d_5">
      <g>
       <use xlink:href="#m5c21b0f229" x="327.717025" y="307.584" style="stroke: #000000; stroke-width: 0.8"/>
      </g>
     </g>
     <g id="text_5">
      <!-- 800 -->
      <g transform="translate(318.173275 322.182437) scale(0.1 -0.1)">
       <defs>
        <path id="DejaVuSans-38" d="M 2034 2216 
Q 1584 2216 1326 1975 
Q 1069 1734 1069 1313 
Q 1069 891 1326 650 
Q 1584 409 2034 409 
Q 2484 409 2743 651 
Q 3003 894 3003 1313 
Q 3003 1734 2745 1975 
Q 2488 2216 2034 2216 
z
M 1403 2484 
Q 997 2584 770 2862 
Q 544 3141 544 3541 
Q 544 4100 942 4425 
Q 1341 4750 2034 4750 
Q 2731 4750 3128 4425 
Q 3525 4100 3525 3541 
Q 3525 3141 3298 2862 
Q 3072 2584 2669 2484 
Q 3125 2378 3379 2068 
Q 3634 1759 3634 1313 
Q 3634 634 3220 271 
Q 2806 -91 2034 -91 
Q 1263 -91 848 271 
Q 434 634 434 1313 
Q 434 1759 690 2068 
Q 947 2378 1403 2484 
z
M 1172 3481 
Q 1172 3119 1398 2916 
Q 1625 2713 2034 2713 
Q 2441 2713 2670 2916 
Q 2900 3119 2900 3481 
Q 2900 3844 2670 4047 
Q 2441 4250 2034 4250 
Q 1625 4250 1398 4047 
Q 1172 3844 1172 3481 
z
" transform="scale(0.015625)"/>
       </defs>
       <use xlink:href="#DejaVuSans-38"/>
       <use xlink:href="#DejaVuSans-30" x="63.623047"/>
       <use xlink:href="#DejaVuSans-30" x="127.246094"/>
      </g>
     </g>
    </g>
    <g id="xtick_6">
     <g id="line2d_6">
      <g>
       <use xlink:href="#m5c21b0f229" x="391.188099" y="307.584" style="stroke: #000000; stroke-width: 0.8"/>
      </g>
     </g>
     <g id="text_6">
      <!-- 1000 -->
      <g transform="translate(378.463099 322.182437) scale(0.1 -0.1)">
       <defs>
        <path id="DejaVuSans-31" d="M 794 531 
L 1825 531 
L 1825 4091 
L 703 3866 
L 703 4441 
L 1819 4666 
L 2450 4666 
L 2450 531 
L 3481 531 
L 3481 0 
L 794 0 
L 794 531 
z
" transform="scale(0.015625)"/>
       </defs>
       <use xlink:href="#DejaVuSans-31"/>
       <use xlink:href="#DejaVuSans-30" x="63.623047"/>
       <use xlink:href="#DejaVuSans-30" x="127.246094"/>
       <use xlink:href="#DejaVuSans-30" x="190.869141"/>
      </g>
     </g>
    </g>
    <g id="text_7">
     <!-- n -->
     <g transform="translate(232.99125 335.860562) scale(0.1 -0.1)">
      <defs>
       <path id="DejaVuSans-6e" d="M 3513 2113 
L 3513 0 
L 2938 0 
L 2938 2094 
Q 2938 2591 2744 2837 
Q 2550 3084 2163 3084 
Q 1697 3084 1428 2787 
Q 1159 2491 1159 1978 
L 1159 0 
L 581 0 
L 581 3500 
L 1159 3500 
L 1159 2956 
Q 1366 3272 1645 3428 
Q 1925 3584 2291 3584 
Q 2894 3584 3203 3211 
Q 3513 2838 3513 2113 
z
" transform="scale(0.015625)"/>
      </defs>
      <use xlink:href="#DejaVuSans-6e"/>
     </g>
    </g>
   </g>
   <g id="matplotlib.axis_2">
    <g id="ytick_1">
     <g id="line2d_7">
      <defs>
       <path id="mdf652c978e" d="M 0 0 
L -3.5 0 
" style="stroke: #000000; stroke-width: 0.8"/>
      </defs>
      <g>
       <use xlink:href="#mdf652c978e" x="57.6" y="288.371257" style="stroke: #000000; stroke-width: 0.8"/>
      </g>
     </g>
     <g id="text_8">
      <!-- −0.4 -->
      <g transform="translate(26.317187 292.170476) scale(0.1 -0.1)">
       <defs>
        <path id="DejaVuSans-2212" d="M 678 2272 
L 4684 2272 
L 4684 1741 
L 678 1741 
L 678 2272 
z
" transform="scale(0.015625)"/>
        <path id="DejaVuSans-2e" d="M 684 794 
L 1344 794 
L 1344 0 
L 684 0 
L 684 794 
z
" transform="scale(0.015625)"/>
       </defs>
       <use xlink:href="#DejaVuSans-2212"/>
       <use xlink:href="#DejaVuSans-30" x="83.789062"/>
       <use xlink:href="#DejaVuSans-2e" x="147.412109"/>
       <use xlink:href="#DejaVuSans-34" x="179.199219"/>
      </g>
     </g>
    </g>
    <g id="ytick_2">
     <g id="line2d_8">
      <g>
       <use xlink:href="#mdf652c978e" x="57.6" y="244.914047" style="stroke: #000000; stroke-width: 0.8"/>
      </g>
     </g>
     <g id="text_9">
      <!-- −0.2 -->
      <g transform="translate(26.317187 248.713266) scale(0.1 -0.1)">
       <use xlink:href="#DejaVuSans-2212"/>
       <use xlink:href="#DejaVuSans-30" x="83.789062"/>
       <use xlink:href="#DejaVuSans-2e" x="147.412109"/>
       <use xlink:href="#DejaVuSans-32" x="179.199219"/>
      </g>
     </g>
    </g>
    <g id="ytick_3">
     <g id="line2d_9">
      <g>
       <use xlink:href="#mdf652c978e" x="57.6" y="201.456837" style="stroke: #000000; stroke-width: 0.8"/>
      </g>
     </g>
     <g id="text_10">
      <!-- 0.0 -->
      <g transform="translate(34.696875 205.256055) scale(0.1 -0.1)">
       <use xlink:href="#DejaVuSans-30"/>
       <use xlink:href="#DejaVuSans-2e" x="63.623047"/>
       <use xlink:href="#DejaVuSans-30" x="95.410156"/>
      </g>
     </g>
    </g>
    <g id="ytick_4">
     <g id="line2d_10">
      <g>
       <use xlink:href="#mdf652c978e" x="57.6" y="157.999626" style="stroke: #000000; stroke-width: 0.8"/>
      </g>
     </g>
     <g id="text_11">
      <!-- 0.2 -->
      <g transform="translate(34.696875 161.798845) scale(0.1 -0.1)">
       <use xlink:href="#DejaVuSans-30"/>
       <use xlink:href="#DejaVuSans-2e" x="63.623047"/>
       <use xlink:href="#DejaVuSans-32" x="95.410156"/>
      </g>
     </g>
    </g>
    <g id="ytick_5">
     <g id="line2d_11">
      <g>
       <use xlink:href="#mdf652c978e" x="57.6" y="114.542416" style="stroke: #000000; stroke-width: 0.8"/>
      </g>
     </g>
     <g id="text_12">
      <!-- 0.4 -->
      <g transform="translate(34.696875 118.341635) scale(0.1 -0.1)">
       <use xlink:href="#DejaVuSans-30"/>
       <use xlink:href="#DejaVuSans-2e" x="63.623047"/>
       <use xlink:href="#DejaVuSans-34" x="95.410156"/>
      </g>
     </g>
    </g>
    <g id="ytick_6">
     <g id="line2d_12">
      <g>
       <use xlink:href="#mdf652c978e" x="57.6" y="71.085206" style="stroke: #000000; stroke-width: 0.8"/>
      </g>
     </g>
     <g id="text_13">
      <!-- 0.6 -->
      <g transform="translate(34.696875 74.884425) scale(0.1 -0.1)">
       <use xlink:href="#DejaVuSans-30"/>
       <use xlink:href="#DejaVuSans-2e" x="63.623047"/>
       <use xlink:href="#DejaVuSans-36" x="95.410156"/>
      </g>
     </g>
    </g>
    <g id="text_14">
     <!-- E*t -->
     <g transform="translate(20.2375 182.147531) rotate(-90) scale(0.1 -0.1)">
      <defs>
       <path id="DejaVuSans-45" d="M 628 4666 
L 3578 4666 
L 3578 4134 
L 1259 4134 
L 1259 2753 
L 3481 2753 
L 3481 2222 
L 1259 2222 
L 1259 531 
L 3634 531 
L 3634 0 
L 628 0 
L 628 4666 
z
" transform="scale(0.015625)"/>
       <path id="DejaVuSans-2a" d="M 3009 3897 
L 1888 3291 
L 3009 2681 
L 2828 2375 
L 1778 3009 
L 1778 1831 
L 1422 1831 
L 1422 3009 
L 372 2375 
L 191 2681 
L 1313 3291 
L 191 3897 
L 372 4206 
L 1422 3572 
L 1422 4750 
L 1778 4750 
L 1778 3572 
L 2828 4206 
L 3009 3897 
z
" transform="scale(0.015625)"/>
       <path id="DejaVuSans-74" d="M 1172 4494 
L 1172 3500 
L 2356 3500 
L 2356 3053 
L 1172 3053 
L 1172 1153 
Q 1172 725 1289 603 
Q 1406 481 1766 481 
L 2356 481 
L 2356 0 
L 1766 0 
Q 1100 0 847 248 
Q 594 497 594 1153 
L 594 3053 
L 172 3053 
L 172 3500 
L 594 3500 
L 594 4494 
L 1172 4494 
z
" transform="scale(0.015625)"/>
      </defs>
      <use xlink:href="#DejaVuSans-45"/>
      <use xlink:href="#DejaVuSans-2a" x="63.183594"/>
      <use xlink:href="#DejaVuSans-74" x="113.183594"/>
     </g>
    </g>
   </g>
   <g id="line2d_13">
    <path d="M 73.832727 295.488 
L 74.784793 289.482055 
L 75.102149 287.451906 
L 75.419504 284.232804 
L 76.054215 283.332782 
L 76.37157 282.375341 
L 76.688926 281.937074 
L 77.323636 280.282388 
L 77.640992 279.837178 
L 77.958347 278.908036 
L 78.275702 278.4768 
L 79.227769 276.265631 
L 79.545124 276.130756 
L 80.179835 274.543755 
L 80.49719 274.208571 
L 80.814545 273.037855 
L 81.449256 272.56387 
L 82.401322 271.116294 
L 83.036033 270.703326 
L 83.670744 269.867153 
L 84.305455 269.195021 
L 84.940165 268.489484 
L 85.574876 268.145218 
L 85.892231 267.227603 
L 86.526942 266.5672 
L 86.844298 266.427572 
L 87.161653 265.958573 
L 87.796364 265.491754 
L 88.431074 264.723524 
L 88.74843 264.447832 
L 89.065785 263.821828 
L 89.38314 263.565417 
L 90.017851 262.852236 
L 90.652562 262.338251 
L 92.239339 260.907078 
L 92.556694 260.55329 
L 92.87405 260.396094 
L 94.143471 259.260184 
L 95.095537 258.625308 
L 96.364959 257.600878 
L 96.682314 257.432946 
L 98.269091 255.942814 
L 98.586446 255.852378 
L 99.221157 255.22532 
L 99.538512 255.116931 
L 100.173223 254.671572 
L 100.807934 253.924822 
L 101.442645 253.277752 
L 101.76 253.163431 
L 103.029421 252.092206 
L 103.346777 251.988265 
L 104.298843 251.244549 
L 104.616198 251.135495 
L 104.933554 250.826024 
L 105.250909 250.708829 
L 105.568264 250.429841 
L 106.520331 249.982754 
L 106.837686 249.740255 
L 107.155041 249.329739 
L 108.107107 248.804192 
L 109.059174 248.135069 
L 113.184793 245.612401 
L 113.502149 245.505225 
L 114.77157 244.653647 
L 115.088926 244.586091 
L 115.723636 244.079536 
L 116.040992 244.025969 
L 118.89719 242.185216 
L 119.531901 241.926247 
L 120.166612 241.496156 
L 120.801322 241.212023 
L 121.436033 240.903359 
L 122.070744 240.541266 
L 123.340165 239.821175 
L 123.657521 239.744847 
L 124.609587 239.222242 
L 125.561653 238.831078 
L 126.196364 238.598444 
L 126.513719 238.230419 
L 127.465785 237.847816 
L 128.417851 237.472775 
L 129.052562 237.170857 
L 129.687273 236.783684 
L 130.004628 236.526315 
L 130.321983 236.428092 
L 130.639339 236.204469 
L 130.956694 236.130097 
L 131.90876 235.566691 
L 133.178182 235.119986 
L 133.495537 234.755134 
L 135.082314 234.298706 
L 136.986446 233.147598 
L 137.303802 233.104714 
L 138.890579 232.26863 
L 139.842645 231.955248 
L 140.794711 231.427615 
L 141.112066 231.376988 
L 141.746777 230.916787 
L 142.698843 230.533293 
L 143.333554 230.262981 
L 144.602975 229.696148 
L 150.632727 227.117831 
L 152.53686 226.311133 
L 155.075702 225.28643 
L 155.710413 224.865795 
L 156.662479 224.636119 
L 156.979835 224.435741 
L 157.614545 224.236796 
L 158.883967 223.742687 
L 159.518678 223.593123 
L 160.153388 223.296378 
L 160.470744 223.225482 
L 161.105455 222.837335 
L 162.057521 222.431439 
L 163.326942 221.900826 
L 163.961653 221.584599 
L 166.500496 220.521874 
L 166.817851 220.291894 
L 167.769917 219.944054 
L 168.404628 219.618848 
L 169.356694 219.364214 
L 171.260826 218.6244 
L 171.578182 218.379115 
L 173.164959 217.837963 
L 174.751736 217.055371 
L 176.655868 216.353656 
L 177.925289 215.85016 
L 178.242645 215.785132 
L 178.877355 215.505277 
L 179.512066 215.351525 
L 179.829421 214.983805 
L 180.464132 214.901252 
L 181.733554 214.311027 
L 182.68562 213.992914 
L 184.272397 213.320189 
L 186.176529 212.679359 
L 187.128595 212.167037 
L 188.715372 211.515766 
L 189.032727 211.39318 
L 189.350083 211.148098 
L 189.667438 211.079381 
L 189.984793 210.869336 
L 190.302149 210.853391 
L 192.523636 210.004145 
L 192.840992 209.693026 
L 194.427769 209.219121 
L 195.062479 208.92917 
L 196.331901 208.518329 
L 196.649256 208.438371 
L 197.601322 207.923683 
L 197.918678 207.911112 
L 198.236033 207.704304 
L 198.870744 207.521798 
L 203.631074 205.674435 
L 203.94843 205.388661 
L 205.217851 205.061739 
L 205.852562 204.710718 
L 206.487273 204.583792 
L 209.343471 203.48554 
L 210.295537 203.16109 
L 211.882314 202.545055 
L 212.517025 202.222709 
L 212.83438 202.007927 
L 213.786446 201.78091 
L 215.373223 201.077789 
L 217.594711 200.202539 
L 218.229421 199.993884 
L 218.546777 199.790354 
L 219.181488 199.598638 
L 221.720331 198.626179 
L 223.624463 197.921567 
L 224.893884 197.36406 
L 225.84595 197.113165 
L 226.480661 196.76261 
L 226.798017 196.610872 
L 227.432727 196.471408 
L 233.145124 194.269522 
L 234.09719 193.996971 
L 234.731901 193.706439 
L 236.318678 193.204163 
L 236.636033 192.886046 
L 237.588099 192.696719 
L 238.22281 192.35184 
L 238.540165 192.277353 
L 238.857521 192.014199 
L 240.126942 191.680622 
L 240.761653 191.353011 
L 241.396364 191.16422 
L 242.98314 190.526265 
L 243.617851 190.387119 
L 244.252562 190.140666 
L 245.839339 189.584016 
L 246.47405 189.264322 
L 249.330248 188.267958 
L 249.964959 188.095351 
L 250.917025 187.592841 
L 251.551736 187.296246 
L 251.869091 187.059844 
L 252.821157 186.729021 
L 254.407934 186.203951 
L 255.36 185.711122 
L 255.994711 185.517131 
L 256.629421 185.274754 
L 258.850909 184.588378 
L 259.48562 184.29838 
L 260.755041 183.864109 
L 262.976529 182.910328 
L 263.61124 182.737832 
L 265.515372 181.983563 
L 266.467438 181.700228 
L 270.275702 180.1344 
L 270.910413 179.935352 
L 271.862479 179.588665 
L 272.179835 179.523211 
L 272.49719 179.311625 
L 272.814545 179.249772 
L 273.131901 178.970955 
L 273.766612 178.817043 
L 276.940165 177.458744 
L 277.574876 177.257607 
L 278.526942 176.885473 
L 278.844298 176.623253 
L 279.479008 176.424443 
L 280.113719 176.15425 
L 280.431074 176.104106 
L 281.065785 175.766537 
L 281.700496 175.490784 
L 282.335207 175.22774 
L 282.969917 174.946445 
L 283.604628 174.789805 
L 284.239339 174.494412 
L 284.556694 174.423866 
L 285.191405 174.044515 
L 286.143471 173.644854 
L 286.778182 173.297528 
L 287.730248 173.087741 
L 288.364959 172.652722 
L 288.999669 172.41615 
L 289.317025 172.302615 
L 289.63438 172.05671 
L 291.221157 171.541439 
L 292.490579 171.000967 
L 293.76 170.166096 
L 294.077355 170.12938 
L 295.029421 169.752762 
L 295.981488 169.386484 
L 296.298843 169.148871 
L 297.250909 168.967751 
L 297.568264 168.731903 
L 298.202975 168.535435 
L 298.520331 168.284358 
L 298.837686 168.218309 
L 299.789752 167.71347 
L 301.376529 166.99897 
L 301.693884 166.955836 
L 302.963306 166.332399 
L 303.280661 166.284205 
L 303.915372 165.859283 
L 304.550083 165.610319 
L 305.819504 165.032828 
L 306.454215 164.867308 
L 308.993058 163.436675 
L 309.310413 163.381921 
L 309.945124 162.863764 
L 310.579835 162.729848 
L 311.214545 162.318829 
L 312.166612 161.913163 
L 313.436033 161.312803 
L 314.388099 160.966437 
L 315.02281 160.56097 
L 318.196364 159.114877 
L 319.465785 158.498025 
L 320.735207 158.031071 
L 321.052562 157.648926 
L 321.687273 157.46252 
L 323.90876 156.253275 
L 325.178182 155.645396 
L 325.812893 155.302927 
L 326.447603 155.113396 
L 326.764959 154.659935 
L 327.082314 154.611528 
L 328.03438 154.096741 
L 328.351736 154.012411 
L 328.669091 153.759208 
L 329.621157 153.399349 
L 329.938512 153.152697 
L 330.573223 153.025379 
L 331.842645 152.157135 
L 332.16 152.000459 
L 332.794711 151.577865 
L 333.746777 151.163461 
L 334.064132 150.925732 
L 334.381488 150.887368 
L 335.333554 150.337933 
L 337.237686 149.301332 
L 338.189752 148.5292 
L 338.824463 148.210017 
L 339.141818 148.172395 
L 340.093884 147.504418 
L 343.902149 145.631075 
L 344.219504 145.375092 
L 344.53686 145.263828 
L 344.854215 144.980016 
L 345.488926 144.780493 
L 347.393058 143.615719 
L 348.027769 143.229241 
L 348.345124 143.134306 
L 348.662479 142.811696 
L 348.979835 142.758058 
L 349.614545 142.389199 
L 351.836033 141.112839 
L 352.470744 140.836122 
L 353.740165 139.668952 
L 355.326942 138.655084 
L 355.644298 138.464602 
L 355.961653 138.135535 
L 356.279008 137.997368 
L 357.54843 136.876414 
L 358.18314 136.608278 
L 361.039339 134.703521 
L 361.356694 134.34172 
L 361.67405 134.183399 
L 362.626116 133.46803 
L 362.943471 133.319202 
L 364.212893 132.33143 
L 364.530248 132.236492 
L 365.799669 131.263589 
L 366.43438 130.958644 
L 367.703802 129.615682 
L 368.021157 129.491501 
L 368.338512 128.928564 
L 368.655868 128.829165 
L 371.829421 125.547501 
L 372.464132 125.034925 
L 372.781488 124.537162 
L 373.098843 124.338285 
L 375.955041 121.080976 
L 376.907107 120.41166 
L 377.224463 120.057228 
L 377.541818 119.972161 
L 379.128595 117.919904 
L 379.44595 117.322521 
L 380.080661 116.71765 
L 380.398017 116.094717 
L 381.032727 115.424777 
L 381.667438 114.983298 
L 381.984793 114.322034 
L 382.302149 114.207433 
L 383.888926 112.148617 
L 384.523636 110.955267 
L 385.158347 110.079762 
L 386.427769 107.031984 
L 386.745124 106.763836 
L 387.379835 105.852735 
L 387.69719 105.586662 
L 388.966612 103.421069 
L 389.283967 102.8054 
L 389.918678 102.269498 
L 391.188099 99.506134 
L 391.505455 99.131983 
L 391.82281 98.24979 
L 392.140165 96.691455 
L 393.409587 93.758905 
L 393.726942 92.513635 
L 394.044298 90.636369 
L 394.361653 89.998533 
L 394.679008 89.778092 
L 394.996364 88.846721 
L 395.313719 85.131298 
L 395.94843 84.134669 
L 396.265785 82.544175 
L 396.58314 79.035616 
L 396.900496 77.931115 
L 397.535207 69.582332 
L 397.852562 67.58617 
L 398.169917 62.889715 
L 398.487273 53.568 
L 398.487273 53.568 
" clip-path="url(#pec97e81d59)" style="fill: none; stroke: #1f77b4; stroke-width: 1.5; stroke-linecap: square"/>
   </g>
   <g id="line2d_14">
    <path d="M 73.832727 256.893204 
L 74.150083 256.893204 
L 74.467438 256.593925 
L 74.784793 256.593925 
L 75.102149 256.184508 
L 76.054215 256.107313 
L 76.37157 255.947271 
L 76.688926 255.151011 
L 77.006281 255.151011 
L 77.323636 254.820803 
L 77.640992 254.820803 
L 77.958347 254.159196 
L 78.275702 254.159196 
L 78.593058 253.921728 
L 78.910413 252.994372 
L 79.227769 252.994372 
L 79.545124 252.762203 
L 80.49719 252.712284 
L 80.814545 251.989383 
L 81.449256 251.900178 
L 81.766612 251.471365 
L 82.718678 251.460632 
L 83.036033 251.059115 
L 83.353388 251.059115 
L 83.670744 250.710727 
L 83.988099 250.570175 
L 84.305455 250.570175 
L 84.62281 250.414386 
L 84.940165 250.414386 
L 85.257521 250.233159 
L 85.574876 249.756564 
L 86.209587 249.703744 
L 86.526942 249.307405 
L 87.479008 249.257036 
L 87.796364 249.109765 
L 88.113719 249.109765 
L 88.74843 248.502209 
L 89.065785 248.502209 
L 89.38314 248.293275 
L 89.700496 247.813883 
L 90.017851 247.813883 
L 90.335207 247.432411 
L 90.969917 247.372331 
L 91.287273 246.986606 
L 92.556694 246.926168 
L 92.87405 246.308661 
L 93.826116 246.230448 
L 94.778182 245.98868 
L 95.095537 245.98868 
L 95.412893 245.358408 
L 95.730248 245.358408 
L 96.047603 245.209016 
L 97.317025 245.120565 
L 98.269091 244.848809 
L 98.586446 244.274395 
L 98.903802 244.274395 
L 99.221157 243.834179 
L 100.173223 243.7623 
L 100.490579 243.629321 
L 100.807934 243.629321 
L 101.125289 243.494298 
L 101.442645 243.494298 
L 102.077355 243.029301 
L 102.712066 243.021577 
L 103.029421 242.644726 
L 103.981488 242.550283 
L 104.616198 242.036076 
L 104.933554 242.036076 
L 105.568264 241.610105 
L 105.88562 241.610105 
L 106.202975 241.478138 
L 106.520331 241.478138 
L 106.837686 240.744764 
L 108.107107 240.696896 
L 108.424463 240.436824 
L 109.059174 240.403067 
L 109.376529 240.134512 
L 109.693884 240.134512 
L 110.01124 239.786841 
L 110.328595 239.786841 
L 110.64595 239.558764 
L 111.280661 239.490807 
L 111.915372 239.394267 
L 112.867438 239.217013 
L 113.184793 238.739173 
L 114.13686 238.701435 
L 114.77157 238.327708 
L 116.675702 237.769452 
L 116.993058 237.769452 
L 117.310413 237.128495 
L 119.214545 237.051513 
L 119.849256 236.952958 
L 120.166612 236.495873 
L 120.483967 236.495873 
L 120.801322 236.069254 
L 121.118678 236.069254 
L 121.436033 235.853351 
L 122.388099 235.771779 
L 123.340165 234.918505 
L 124.926942 234.810197 
L 125.244298 234.476449 
L 125.561653 234.476449 
L 125.879008 234.175149 
L 126.196364 234.175149 
L 126.513719 233.699293 
L 127.14843 233.669601 
L 127.465785 233.104721 
L 129.052562 233.095328 
L 129.687273 232.757159 
L 131.27405 232.619356 
L 131.591405 232.380224 
L 132.860826 232.287127 
L 133.812893 232.135933 
L 134.130248 231.927348 
L 134.447603 231.927348 
L 135.082314 231.810097 
L 135.399669 231.793851 
L 135.717025 231.631538 
L 136.669091 231.62886 
L 136.986446 231.387008 
L 137.303802 231.387008 
L 137.621157 231.244831 
L 137.938512 230.906146 
L 138.573223 230.801406 
L 138.890579 230.801406 
L 139.207934 230.65738 
L 139.525289 230.65738 
L 139.842645 230.47885 
L 140.16 230.47885 
L 140.477355 229.998883 
L 141.429421 229.959415 
L 141.746777 229.864139 
L 142.064132 229.610883 
L 142.381488 229.610883 
L 142.698843 229.200824 
L 143.968264 229.0987 
L 144.602975 228.741035 
L 145.555041 228.683948 
L 146.189752 228.519876 
L 146.507107 228.519876 
L 146.824463 228.336986 
L 147.141818 228.336986 
L 147.776529 227.772295 
L 149.363306 227.704141 
L 149.680661 227.657432 
L 149.998017 226.31783 
L 150.315372 226.31783 
L 150.950083 226.04659 
L 151.267438 226.04659 
L 151.584793 225.809109 
L 152.219504 225.77945 
L 152.854215 225.543227 
L 153.17157 225.543227 
L 153.488926 225.288526 
L 155.075702 225.044494 
L 155.710413 225.030636 
L 156.027769 224.815741 
L 158.249256 224.707431 
L 158.566612 224.250411 
L 159.201322 224.244116 
L 159.518678 223.524107 
L 160.153388 223.503905 
L 160.470744 223.291209 
L 160.788099 223.288174 
L 161.105455 223.121455 
L 162.057521 223.089139 
L 162.374876 222.906827 
L 163.326942 222.871557 
L 163.644298 222.680324 
L 163.961653 222.680324 
L 164.279008 222.52988 
L 164.913719 222.43287 
L 165.231074 221.864771 
L 165.54843 221.864771 
L 165.865785 221.548288 
L 166.817851 221.479125 
L 167.135207 221.181593 
L 167.769917 221.114785 
L 168.087273 220.854027 
L 168.404628 220.854027 
L 169.039339 220.403275 
L 169.356694 220.403275 
L 169.67405 220.165536 
L 170.943471 220.145813 
L 171.260826 219.805813 
L 171.895537 219.708194 
L 172.212893 219.265741 
L 172.530248 219.265741 
L 172.847603 218.926209 
L 173.799669 218.862211 
L 175.069091 218.498732 
L 176.021157 218.462124 
L 176.338512 218.253295 
L 178.56 218.089036 
L 178.877355 217.827024 
L 179.512066 217.787348 
L 180.464132 217.490296 
L 180.781488 217.490296 
L 181.098843 217.262372 
L 181.733554 217.245542 
L 182.050909 216.84178 
L 183.002975 216.661781 
L 183.637686 216.55324 
L 184.907107 216.416047 
L 185.224463 215.955693 
L 185.541818 215.955693 
L 186.176529 215.715441 
L 187.763306 215.625817 
L 188.080661 215.528175 
L 188.398017 215.247585 
L 188.715372 215.247585 
L 189.032727 215.071814 
L 189.667438 215.065051 
L 189.984793 214.784175 
L 190.302149 214.784175 
L 190.619504 214.119322 
L 191.254215 214.039005 
L 191.888926 214.006224 
L 192.206281 213.459375 
L 193.475702 213.428323 
L 193.793058 213.307425 
L 196.014545 213.21302 
L 197.918678 212.872389 
L 198.236033 212.605308 
L 198.553388 212.605308 
L 199.188099 212.018867 
L 200.140165 211.923493 
L 200.457521 211.748084 
L 201.726942 211.667095 
L 202.044298 211.404187 
L 202.996364 211.374575 
L 203.94843 211.07089 
L 205.535207 210.846648 
L 205.852562 210.846648 
L 206.169917 210.657313 
L 206.487273 210.657313 
L 206.804628 210.500902 
L 207.121983 210.500902 
L 208.07405 210.123496 
L 208.391405 210.123496 
L 209.026116 209.854363 
L 209.343471 209.854363 
L 209.660826 209.583437 
L 210.295537 209.52468 
L 211.564959 209.174332 
L 212.199669 209.14524 
L 212.517025 208.9487 
L 213.469091 208.889516 
L 214.421157 208.714532 
L 214.738512 208.424096 
L 216.007934 208.35739 
L 216.325289 208.155572 
L 216.642645 208.155572 
L 216.96 207.887034 
L 217.277355 207.887034 
L 217.912066 207.742686 
L 219.181488 207.641147 
L 219.498843 207.296849 
L 219.816198 206.73736 
L 220.133554 206.569773 
L 221.08562 206.470325 
L 221.720331 206.3193 
L 222.672397 206.251155 
L 224.259174 205.892006 
L 225.21124 205.80464 
L 226.480661 205.474231 
L 226.798017 205.474231 
L 227.115372 205.335496 
L 227.432727 205.335496 
L 227.750083 205.120608 
L 229.019504 205.061811 
L 229.654215 204.978433 
L 229.97157 204.970312 
L 230.288926 204.819212 
L 230.606281 204.819212 
L 230.923636 204.609397 
L 231.558347 204.561235 
L 232.193058 204.456377 
L 232.510413 204.423054 
L 232.827769 204.262752 
L 234.414545 204.179511 
L 234.731901 203.866723 
L 235.683967 203.844818 
L 236.001322 203.622777 
L 236.636033 203.608072 
L 236.953388 203.373817 
L 237.588099 203.282072 
L 238.22281 203.24428 
L 238.540165 202.729764 
L 239.492231 202.589495 
L 240.444298 202.546025 
L 240.761653 202.367707 
L 241.079008 202.367707 
L 241.396364 202.168359 
L 242.98314 201.898703 
L 243.617851 201.760903 
L 245.204628 201.650086 
L 245.839339 201.376067 
L 246.47405 201.360724 
L 246.791405 200.950181 
L 247.10876 200.74678 
L 248.060826 200.643188 
L 248.695537 200.389735 
L 249.647603 200.289107 
L 249.964959 200.148849 
L 251.23438 200.107771 
L 252.821157 199.59931 
L 253.138512 199.312452 
L 253.773223 199.206649 
L 254.725289 199.036043 
L 255.36 198.40791 
L 256.312066 198.361194 
L 256.629421 198.163817 
L 257.898843 198.060134 
L 258.533554 197.942551 
L 258.850909 197.942551 
L 259.802975 197.630217 
L 260.120331 197.630217 
L 260.437686 197.349057 
L 261.072397 197.247098 
L 261.389752 197.116918 
L 262.341818 197.015838 
L 262.976529 196.988552 
L 263.293884 196.713879 
L 263.928595 196.712493 
L 264.24595 196.547563 
L 265.515372 196.424731 
L 266.784793 196.25237 
L 267.102149 196.006971 
L 268.054215 195.933326 
L 268.37157 195.662938 
L 268.688926 195.662938 
L 269.640992 195.255132 
L 270.910413 195.165858 
L 271.227769 194.941536 
L 272.179835 194.876447 
L 272.49719 194.600403 
L 273.449256 194.588368 
L 274.083967 194.325681 
L 275.036033 194.247535 
L 275.353388 194.195138 
L 275.670744 193.483492 
L 276.62281 193.411249 
L 277.574876 193.243913 
L 277.892231 193.243913 
L 278.844298 192.791689 
L 279.161653 192.791689 
L 279.479008 192.66791 
L 279.796364 192.66791 
L 280.113719 192.172667 
L 280.74843 192.135488 
L 281.700496 191.973687 
L 282.335207 191.959946 
L 282.969917 191.566067 
L 283.921983 191.459075 
L 284.239339 191.417865 
L 284.556694 190.625697 
L 285.826116 190.543044 
L 286.143471 190.486744 
L 286.460826 190.296075 
L 287.095537 190.211383 
L 287.412893 189.889207 
L 288.682314 189.842371 
L 288.999669 189.721164 
L 289.317025 189.721164 
L 290.269091 189.367587 
L 291.221157 189.331105 
L 291.538512 189.174099 
L 291.855868 189.174099 
L 292.173223 189.035757 
L 293.125289 188.927133 
L 293.442645 188.80185 
L 293.76 188.80185 
L 294.077355 188.603296 
L 295.029421 188.498019 
L 295.346777 188.114356 
L 295.981488 188.096896 
L 296.298843 187.757825 
L 297.250909 187.559953 
L 297.568264 187.086345 
L 297.88562 187.086345 
L 298.202975 186.918869 
L 299.155041 186.839345 
L 299.789752 186.70515 
L 300.107107 186.70515 
L 300.424463 186.454102 
L 301.376529 186.377459 
L 302.01124 186.298611 
L 302.328595 185.846138 
L 302.963306 185.622026 
L 303.280661 185.622026 
L 303.598017 185.41195 
L 303.915372 185.016964 
L 304.232727 185.016964 
L 304.550083 184.803989 
L 304.867438 184.803989 
L 305.184793 184.472106 
L 306.13686 184.386882 
L 307.088926 184.239512 
L 308.675702 184.036424 
L 309.310413 183.943521 
L 309.945124 183.820234 
L 310.262479 183.115086 
L 310.579835 182.986624 
L 311.531901 182.927931 
L 311.849256 182.575547 
L 312.166612 182.575547 
L 312.801322 181.752782 
L 314.070744 181.7124 
L 314.388099 181.393627 
L 315.02281 181.387269 
L 315.657521 181.232692 
L 316.609587 181.174009 
L 317.244298 180.885969 
L 317.561653 180.885969 
L 317.879008 180.644604 
L 318.831074 180.585937 
L 319.465785 179.771935 
L 319.78314 179.771935 
L 320.417851 179.237514 
L 321.052562 179.127899 
L 321.687273 179.117992 
L 322.004628 178.959221 
L 322.321983 178.438177 
L 322.639339 178.438177 
L 322.956694 178.176741 
L 323.591405 178.132371 
L 324.226116 177.590832 
L 324.543471 177.590832 
L 324.860826 177.469569 
L 325.178182 177.469569 
L 325.495537 177.301223 
L 325.812893 177.301223 
L 326.130248 177.153363 
L 326.447603 176.826455 
L 328.03438 176.721226 
L 328.351736 176.682883 
L 328.669091 176.318941 
L 328.986446 176.153721 
L 329.621157 176.13934 
L 329.938512 175.95109 
L 330.255868 175.95109 
L 330.573223 175.797692 
L 330.890579 175.797692 
L 331.207934 175.596273 
L 332.16 175.42208 
L 332.477355 174.980998 
L 333.112066 174.918512 
L 333.429421 174.596261 
L 333.746777 174.596261 
L 334.064132 173.835125 
L 334.381488 173.65352 
L 336.28562 173.544665 
L 338.507107 172.799902 
L 339.141818 172.791347 
L 339.459174 172.518016 
L 339.776529 172.518016 
L 340.093884 172.406286 
L 340.41124 172.134019 
L 340.728595 172.134019 
L 341.04595 171.996801 
L 341.363306 171.996801 
L 341.680661 170.898211 
L 341.998017 170.714376 
L 342.315372 170.714376 
L 342.632727 170.328255 
L 342.950083 170.328255 
L 343.584793 170.112607 
L 344.53686 170.004148 
L 344.854215 169.851301 
L 345.17157 169.837514 
L 345.488926 169.482232 
L 345.806281 169.482232 
L 346.123636 169.134681 
L 346.440992 169.013618 
L 346.758347 169.013618 
L 347.393058 168.510194 
L 348.979835 168.360795 
L 349.29719 167.678106 
L 349.931901 167.591336 
L 350.566612 167.360588 
L 350.883967 167.360588 
L 351.201322 167.18495 
L 351.836033 167.079828 
L 352.470744 166.962108 
L 352.788099 166.59039 
L 353.42281 166.581749 
L 354.692231 166.1534 
L 355.009587 165.490585 
L 355.644298 165.421806 
L 355.961653 165.343038 
L 356.279008 164.788243 
L 356.596364 164.788243 
L 356.913719 164.036723 
L 357.54843 163.982578 
L 357.865785 163.726493 
L 358.18314 163.726493 
L 358.500496 163.380117 
L 358.817851 163.380117 
L 359.769917 162.886136 
L 361.356694 162.442043 
L 362.626116 162.379317 
L 363.260826 161.559863 
L 363.578182 161.559863 
L 364.212893 161.105822 
L 364.530248 161.105822 
L 365.164959 160.160362 
L 365.482314 159.882139 
L 365.799669 159.882139 
L 366.43438 159.567269 
L 367.386446 159.45848 
L 367.703802 159.087195 
L 368.973223 158.952244 
L 369.290579 158.552869 
L 369.607934 158.552869 
L 369.925289 158.114444 
L 370.242645 157.088801 
L 370.56 156.524216 
L 370.877355 156.524216 
L 371.194711 155.824545 
L 371.829421 155.780227 
L 372.146777 155.565417 
L 372.781488 155.518982 
L 373.098843 155.404653 
L 373.416198 154.908228 
L 373.733554 154.882673 
L 374.050909 154.73315 
L 374.368264 154.73315 
L 374.68562 154.206077 
L 375.002975 154.206077 
L 375.637686 153.482892 
L 375.955041 153.482892 
L 376.272397 152.952264 
L 376.589752 152.952264 
L 376.907107 152.476067 
L 377.224463 150.968279 
L 377.859174 150.887522 
L 378.81124 150.580776 
L 379.128595 150.580776 
L 379.44595 150.183537 
L 379.763306 148.842255 
L 380.080661 148.403766 
L 380.398017 148.403766 
L 380.715372 148.073558 
L 381.032727 147.243682 
L 381.667438 147.169076 
L 382.619504 147.064116 
L 382.93686 147.064116 
L 383.254215 146.546854 
L 383.888926 146.101718 
L 384.206281 146.101718 
L 384.523636 145.181253 
L 384.840992 145.181253 
L 385.158347 144.075853 
L 385.475702 144.075853 
L 385.793058 143.528971 
L 386.110413 142.380879 
L 386.427769 141.809894 
L 386.745124 141.809894 
L 387.062479 141.67285 
L 387.379835 140.367349 
L 387.69719 139.748895 
L 388.014545 139.748895 
L 388.331901 139.626933 
L 388.649256 138.985389 
L 388.966612 138.680982 
L 389.918678 138.635586 
L 390.553388 135.176485 
L 390.870744 135.176485 
L 391.188099 135.029585 
L 391.82281 133.228599 
L 392.140165 133.228599 
L 392.457521 132.009852 
L 392.774876 131.744558 
L 393.092231 131.744558 
L 393.409587 130.772378 
L 393.726942 130.772378 
L 394.044298 129.841268 
L 394.361653 127.501189 
L 394.679008 126.830306 
L 394.996364 126.830306 
L 395.313719 126.426213 
L 395.631074 126.258602 
L 395.94843 126.258602 
L 396.265785 121.071311 
L 396.58314 118.803356 
L 396.900496 117.942014 
L 397.217851 117.942014 
L 397.535207 109.060846 
L 397.852562 108.864066 
L 398.169917 108.864066 
L 398.487273 101.55672 
L 398.487273 101.55672 
" clip-path="url(#pec97e81d59)" style="fill: none; stroke: #ff7f0e; stroke-width: 1.5; stroke-linecap: square"/>
   </g>
   <g id="patch_3">
    <path d="M 57.6 307.584 
L 57.6 41.472 
" style="fill: none; stroke: #000000; stroke-width: 0.8; stroke-linejoin: miter; stroke-linecap: square"/>
   </g>
   <g id="patch_4">
    <path d="M 414.72 307.584 
L 414.72 41.472 
" style="fill: none; stroke: #000000; stroke-width: 0.8; stroke-linejoin: miter; stroke-linecap: square"/>
   </g>
   <g id="patch_5">
    <path d="M 57.6 307.584 
L 414.72 307.584 
" style="fill: none; stroke: #000000; stroke-width: 0.8; stroke-linejoin: miter; stroke-linecap: square"/>
   </g>
   <g id="patch_6">
    <path d="M 57.6 41.472 
L 414.72 41.472 
" style="fill: none; stroke: #000000; stroke-width: 0.8; stroke-linejoin: miter; stroke-linecap: square"/>
   </g>
   <g id="legend_1">
    <g id="patch_7">
     <path d="M 64.6 78.82825 
L 129.342187 78.82825 
Q 131.342187 78.82825 131.342187 76.82825 
L 131.342187 48.472 
Q 131.342187 46.472 129.342187 46.472 
L 64.6 46.472 
Q 62.6 46.472 62.6 48.472 
L 62.6 76.82825 
Q 62.6 78.82825 64.6 78.82825 
z
" style="fill: #ffffff; opacity: 0.8; stroke: #cccccc; stroke-linejoin: miter"/>
    </g>
    <g id="line2d_15">
     <path d="M 66.6 54.570437 
L 76.6 54.570437 
L 86.6 54.570437 
" style="fill: none; stroke: #1f77b4; stroke-width: 1.5; stroke-linecap: square"/>
    </g>
    <g id="text_15">
     <!-- qc -->
     <g transform="translate(94.6 58.070437) scale(0.1 -0.1)">
      <defs>
       <path id="DejaVuSans-71" d="M 947 1747 
Q 947 1113 1208 752 
Q 1469 391 1925 391 
Q 2381 391 2643 752 
Q 2906 1113 2906 1747 
Q 2906 2381 2643 2742 
Q 2381 3103 1925 3103 
Q 1469 3103 1208 2742 
Q 947 2381 947 1747 
z
M 2906 525 
Q 2725 213 2448 61 
Q 2172 -91 1784 -91 
Q 1150 -91 751 415 
Q 353 922 353 1747 
Q 353 2572 751 3078 
Q 1150 3584 1784 3584 
Q 2172 3584 2448 3432 
Q 2725 3281 2906 2969 
L 2906 3500 
L 3481 3500 
L 3481 -1331 
L 2906 -1331 
L 2906 525 
z
" transform="scale(0.015625)"/>
       <path id="DejaVuSans-63" d="M 3122 3366 
L 3122 2828 
Q 2878 2963 2633 3030 
Q 2388 3097 2138 3097 
Q 1578 3097 1268 2742 
Q 959 2388 959 1747 
Q 959 1106 1268 751 
Q 1578 397 2138 397 
Q 2388 397 2633 464 
Q 2878 531 3122 666 
L 3122 134 
Q 2881 22 2623 -34 
Q 2366 -91 2075 -91 
Q 1284 -91 818 406 
Q 353 903 353 1747 
Q 353 2603 823 3093 
Q 1294 3584 2113 3584 
Q 2378 3584 2631 3529 
Q 2884 3475 3122 3366 
z
" transform="scale(0.015625)"/>
      </defs>
      <use xlink:href="#DejaVuSans-71"/>
      <use xlink:href="#DejaVuSans-63" x="63.476562"/>
     </g>
    </g>
    <g id="line2d_16">
     <path d="M 66.6 69.248562 
L 76.6 69.248562 
L 86.6 69.248562 
" style="fill: none; stroke: #ff7f0e; stroke-width: 1.5; stroke-linecap: square"/>
    </g>
    <g id="text_16">
     <!-- Trotter -->
     <g transform="translate(94.6 72.748562) scale(0.1 -0.1)">
      <defs>
       <path id="DejaVuSans-54" d="M -19 4666 
L 3928 4666 
L 3928 4134 
L 2272 4134 
L 2272 0 
L 1638 0 
L 1638 4134 
L -19 4134 
L -19 4666 
z
" transform="scale(0.015625)"/>
       <path id="DejaVuSans-72" d="M 2631 2963 
Q 2534 3019 2420 3045 
Q 2306 3072 2169 3072 
Q 1681 3072 1420 2755 
Q 1159 2438 1159 1844 
L 1159 0 
L 581 0 
L 581 3500 
L 1159 3500 
L 1159 2956 
Q 1341 3275 1631 3429 
Q 1922 3584 2338 3584 
Q 2397 3584 2469 3576 
Q 2541 3569 2628 3553 
L 2631 2963 
z
" transform="scale(0.015625)"/>
       <path id="DejaVuSans-6f" d="M 1959 3097 
Q 1497 3097 1228 2736 
Q 959 2375 959 1747 
Q 959 1119 1226 758 
Q 1494 397 1959 397 
Q 2419 397 2687 759 
Q 2956 1122 2956 1747 
Q 2956 2369 2687 2733 
Q 2419 3097 1959 3097 
z
M 1959 3584 
Q 2709 3584 3137 3096 
Q 3566 2609 3566 1747 
Q 3566 888 3137 398 
Q 2709 -91 1959 -91 
Q 1206 -91 779 398 
Q 353 888 353 1747 
Q 353 2609 779 3096 
Q 1206 3584 1959 3584 
z
" transform="scale(0.015625)"/>
       <path id="DejaVuSans-65" d="M 3597 1894 
L 3597 1613 
L 953 1613 
Q 991 1019 1311 708 
Q 1631 397 2203 397 
Q 2534 397 2845 478 
Q 3156 559 3463 722 
L 3463 178 
Q 3153 47 2828 -22 
Q 2503 -91 2169 -91 
Q 1331 -91 842 396 
Q 353 884 353 1716 
Q 353 2575 817 3079 
Q 1281 3584 2069 3584 
Q 2775 3584 3186 3129 
Q 3597 2675 3597 1894 
z
M 3022 2063 
Q 3016 2534 2758 2815 
Q 2500 3097 2075 3097 
Q 1594 3097 1305 2825 
Q 1016 2553 972 2059 
L 3022 2063 
z
" transform="scale(0.015625)"/>
      </defs>
      <use xlink:href="#DejaVuSans-54"/>
      <use xlink:href="#DejaVuSans-72" x="46.333984"/>
      <use xlink:href="#DejaVuSans-6f" x="85.197266"/>
      <use xlink:href="#DejaVuSans-74" x="146.378906"/>
      <use xlink:href="#DejaVuSans-74" x="185.587891"/>
      <use xlink:href="#DejaVuSans-65" x="224.796875"/>
      <use xlink:href="#DejaVuSans-72" x="286.320312"/>
     </g>
    </g>
   </g>
  </g>
 </g>
 <defs>
  <clipPath id="pec97e81d59">
   <rect x="57.6" y="41.472" width="357.12" height="266.112"/>
  </clipPath>
 </defs>
</svg>
