<?xml version="1.0" encoding="utf-8" standalone="no"?>
<!DOCTYPE svg PUBLIC "-//W3C//DTD SVG 1.1//EN"
  "http://www.w3.org/Graphics/SVG/1.1/DTD/svg11.dtd">
<svg xmlns:xlink="http://www.w3.org/1999/xlink" width="460.8pt" height="345.6pt" viewBox="0 0 460.8 345.6" xmlns="http://www.w3.org/2000/svg" version="1.1">
 <metadata>
  <rdf:RDF xmlns:dc="http://purl.org/dc/elements/1.1/" xmlns:cc="http://creativecommons.org/ns#" xmlns:rdf="http://www.w3.org/1999/02/22-rdf-syntax-ns#">
   <cc:Work>
    <dc:type rdf:resource="http://purl.org/dc/dcmitype/StillImage"/>
    <dc:date>2024-07-14T01:51:07.331548</dc:date>
    <dc:format>image/svg+xml</dc:format>
    <dc:creator>
     <cc:Agent>
      <dc:title>Matplotlib v3.7.1, https://matplotlib.org/</dc:title>
     </cc:Agent>
    </dc:creator>
   </cc:Work>
  </rdf:RDF>
 </metadata>
 <defs>
  <style type="text/css">*{stroke-linejoin: round; stroke-linecap: butt}</style>
 </defs>
 <g id="figure_1">
  <g id="patch_1">
   <path d="M 0 345.6 
L 460.8 345.6 
L 460.8 0 
L 0 0 
z
" style="fill: #ffffff"/>
  </g>
  <g id="axes_1">
   <g id="patch_2">
    <path d="M 57.6 307.584 
L 414.72 307.584 
L 414.72 41.472 
L 57.6 41.472 
z
" style="fill: #ffffff"/>
   </g>
   <g id="matplotlib.axis_1">
    <g id="xtick_1">
     <g id="line2d_1">
      <defs>
       <path id="m85966b4812" d="M 0 0 
L 0 3.5 
" style="stroke: #000000; stroke-width: 0.8"/>
      </defs>
      <g>
       <use xlink:href="#m85966b4812" x="73.832727" y="307.584" style="stroke: #000000; stroke-width: 0.8"/>
      </g>
     </g>
     <g id="text_1">
      <!-- 0 -->
      <g transform="translate(70.651477 322.182437) scale(0.1 -0.1)">
       <defs>
        <path id="DejaVuSans-30" d="M 2034 4250 
Q 1547 4250 1301 3770 
Q 1056 3291 1056 2328 
Q 1056 1369 1301 889 
Q 1547 409 2034 409 
Q 2525 409 2770 889 
Q 3016 1369 3016 2328 
Q 3016 3291 2770 3770 
Q 2525 4250 2034 4250 
z
M 2034 4750 
Q 2819 4750 3233 4129 
Q 3647 3509 3647 2328 
Q 3647 1150 3233 529 
Q 2819 -91 2034 -91 
Q 1250 -91 836 529 
Q 422 1150 422 2328 
Q 422 3509 836 4129 
Q 1250 4750 2034 4750 
z
" transform="scale(0.015625)"/>
       </defs>
       <use xlink:href="#DejaVuSans-30"/>
      </g>
     </g>
    </g>
    <g id="xtick_2">
     <g id="line2d_2">
      <g>
       <use xlink:href="#m85966b4812" x="137.303802" y="307.584" style="stroke: #000000; stroke-width: 0.8"/>
      </g>
     </g>
     <g id="text_2">
      <!-- 200 -->
      <g transform="translate(127.760052 322.182437) scale(0.1 -0.1)">
       <defs>
        <path id="DejaVuSans-32" d="M 1228 531 
L 3431 531 
L 3431 0 
L 469 0 
L 469 531 
Q 828 903 1448 1529 
Q 2069 2156 2228 2338 
Q 2531 2678 2651 2914 
Q 2772 3150 2772 3378 
Q 2772 3750 2511 3984 
Q 2250 4219 1831 4219 
Q 1534 4219 1204 4116 
Q 875 4013 500 3803 
L 500 4441 
Q 881 4594 1212 4672 
Q 1544 4750 1819 4750 
Q 2544 4750 2975 4387 
Q 3406 4025 3406 3419 
Q 3406 3131 3298 2873 
Q 3191 2616 2906 2266 
Q 2828 2175 2409 1742 
Q 1991 1309 1228 531 
z
" transform="scale(0.015625)"/>
       </defs>
       <use xlink:href="#DejaVuSans-32"/>
       <use xlink:href="#DejaVuSans-30" x="63.623047"/>
       <use xlink:href="#DejaVuSans-30" x="127.246094"/>
      </g>
     </g>
    </g>
    <g id="xtick_3">
     <g id="line2d_3">
      <g>
       <use xlink:href="#m85966b4812" x="200.774876" y="307.584" style="stroke: #000000; stroke-width: 0.8"/>
      </g>
     </g>
     <g id="text_3">
      <!-- 400 -->
      <g transform="translate(191.231126 322.182437) scale(0.1 -0.1)">
       <defs>
        <path id="DejaVuSans-34" d="M 2419 4116 
L 825 1625 
L 2419 1625 
L 2419 4116 
z
M 2253 4666 
L 3047 4666 
L 3047 1625 
L 3713 1625 
L 3713 1100 
L 3047 1100 
L 3047 0 
L 2419 0 
L 2419 1100 
L 313 1100 
L 313 1709 
L 2253 4666 
z
" transform="scale(0.015625)"/>
       </defs>
       <use xlink:href="#DejaVuSans-34"/>
       <use xlink:href="#DejaVuSans-30" x="63.623047"/>
       <use xlink:href="#DejaVuSans-30" x="127.246094"/>
      </g>
     </g>
    </g>
    <g id="xtick_4">
     <g id="line2d_4">
      <g>
       <use xlink:href="#m85966b4812" x="264.24595" y="307.584" style="stroke: #000000; stroke-width: 0.8"/>
      </g>
     </g>
     <g id="text_4">
      <!-- 600 -->
      <g transform="translate(254.7022 322.182437) scale(0.1 -0.1)">
       <defs>
        <path id="DejaVuSans-36" d="M 2113 2584 
Q 1688 2584 1439 2293 
Q 1191 2003 1191 1497 
Q 1191 994 1439 701 
Q 1688 409 2113 409 
Q 2538 409 2786 701 
Q 3034 994 3034 1497 
Q 3034 2003 2786 2293 
Q 2538 2584 2113 2584 
z
M 3366 4563 
L 3366 3988 
Q 3128 4100 2886 4159 
Q 2644 4219 2406 4219 
Q 1781 4219 1451 3797 
Q 1122 3375 1075 2522 
Q 1259 2794 1537 2939 
Q 1816 3084 2150 3084 
Q 2853 3084 3261 2657 
Q 3669 2231 3669 1497 
Q 3669 778 3244 343 
Q 2819 -91 2113 -91 
Q 1303 -91 875 529 
Q 447 1150 447 2328 
Q 447 3434 972 4092 
Q 1497 4750 2381 4750 
Q 2619 4750 2861 4703 
Q 3103 4656 3366 4563 
z
" transform="scale(0.015625)"/>
       </defs>
       <use xlink:href="#DejaVuSans-36"/>
       <use xlink:href="#DejaVuSans-30" x="63.623047"/>
       <use xlink:href="#DejaVuSans-30" x="127.246094"/>
      </g>
     </g>
    </g>
    <g id="xtick_5">
     <g id="line2d_5">
      <g>
       <use xlink:href="#m85966b4812" x="327.717025" y="307.584" style="stroke: #000000; stroke-width: 0.8"/>
      </g>
     </g>
     <g id="text_5">
      <!-- 800 -->
      <g transform="translate(318.173275 322.182437) scale(0.1 -0.1)">
       <defs>
        <path id="DejaVuSans-38" d="M 2034 2216 
Q 1584 2216 1326 1975 
Q 1069 1734 1069 1313 
Q 1069 891 1326 650 
Q 1584 409 2034 409 
Q 2484 409 2743 651 
Q 3003 894 3003 1313 
Q 3003 1734 2745 1975 
Q 2488 2216 2034 2216 
z
M 1403 2484 
Q 997 2584 770 2862 
Q 544 3141 544 3541 
Q 544 4100 942 4425 
Q 1341 4750 2034 4750 
Q 2731 4750 3128 4425 
Q 3525 4100 3525 3541 
Q 3525 3141 3298 2862 
Q 3072 2584 2669 2484 
Q 3125 2378 3379 2068 
Q 3634 1759 3634 1313 
Q 3634 634 3220 271 
Q 2806 -91 2034 -91 
Q 1263 -91 848 271 
Q 434 634 434 1313 
Q 434 1759 690 2068 
Q 947 2378 1403 2484 
z
M 1172 3481 
Q 1172 3119 1398 2916 
Q 1625 2713 2034 2713 
Q 2441 2713 2670 2916 
Q 2900 3119 2900 3481 
Q 2900 3844 2670 4047 
Q 2441 4250 2034 4250 
Q 1625 4250 1398 4047 
Q 1172 3844 1172 3481 
z
" transform="scale(0.015625)"/>
       </defs>
       <use xlink:href="#DejaVuSans-38"/>
       <use xlink:href="#DejaVuSans-30" x="63.623047"/>
       <use xlink:href="#DejaVuSans-30" x="127.246094"/>
      </g>
     </g>
    </g>
    <g id="xtick_6">
     <g id="line2d_6">
      <g>
       <use xlink:href="#m85966b4812" x="391.188099" y="307.584" style="stroke: #000000; stroke-width: 0.8"/>
      </g>
     </g>
     <g id="text_6">
      <!-- 1000 -->
      <g transform="translate(378.463099 322.182437) scale(0.1 -0.1)">
       <defs>
        <path id="DejaVuSans-31" d="M 794 531 
L 1825 531 
L 1825 4091 
L 703 3866 
L 703 4441 
L 1819 4666 
L 2450 4666 
L 2450 531 
L 3481 531 
L 3481 0 
L 794 0 
L 794 531 
z
" transform="scale(0.015625)"/>
       </defs>
       <use xlink:href="#DejaVuSans-31"/>
       <use xlink:href="#DejaVuSans-30" x="63.623047"/>
       <use xlink:href="#DejaVuSans-30" x="127.246094"/>
       <use xlink:href="#DejaVuSans-30" x="190.869141"/>
      </g>
     </g>
    </g>
    <g id="text_7">
     <!-- n -->
     <g transform="translate(232.99125 335.860562) scale(0.1 -0.1)">
      <defs>
       <path id="DejaVuSans-6e" d="M 3513 2113 
L 3513 0 
L 2938 0 
L 2938 2094 
Q 2938 2591 2744 2837 
Q 2550 3084 2163 3084 
Q 1697 3084 1428 2787 
Q 1159 2491 1159 1978 
L 1159 0 
L 581 0 
L 581 3500 
L 1159 3500 
L 1159 2956 
Q 1366 3272 1645 3428 
Q 1925 3584 2291 3584 
Q 2894 3584 3203 3211 
Q 3513 2838 3513 2113 
z
" transform="scale(0.015625)"/>
      </defs>
      <use xlink:href="#DejaVuSans-6e"/>
     </g>
    </g>
   </g>
   <g id="matplotlib.axis_2">
    <g id="ytick_1">
     <g id="line2d_7">
      <defs>
       <path id="m01486b7c3c" d="M 0 0 
L -3.5 0 
" style="stroke: #000000; stroke-width: 0.8"/>
      </defs>
      <g>
       <use xlink:href="#m01486b7c3c" x="57.6" y="302.574264" style="stroke: #000000; stroke-width: 0.8"/>
      </g>
     </g>
     <g id="text_8">
      <!-- −2 -->
      <g transform="translate(35.857813 306.373483) scale(0.1 -0.1)">
       <defs>
        <path id="DejaVuSans-2212" d="M 678 2272 
L 4684 2272 
L 4684 1741 
L 678 1741 
L 678 2272 
z
" transform="scale(0.015625)"/>
       </defs>
       <use xlink:href="#DejaVuSans-2212"/>
       <use xlink:href="#DejaVuSans-32" x="83.789062"/>
      </g>
     </g>
    </g>
    <g id="ytick_2">
     <g id="line2d_8">
      <g>
       <use xlink:href="#m01486b7c3c" x="57.6" y="243.535033" style="stroke: #000000; stroke-width: 0.8"/>
      </g>
     </g>
     <g id="text_9">
      <!-- −1 -->
      <g transform="translate(35.857813 247.334252) scale(0.1 -0.1)">
       <use xlink:href="#DejaVuSans-2212"/>
       <use xlink:href="#DejaVuSans-31" x="83.789062"/>
      </g>
     </g>
    </g>
    <g id="ytick_3">
     <g id="line2d_9">
      <g>
       <use xlink:href="#m01486b7c3c" x="57.6" y="184.495802" style="stroke: #000000; stroke-width: 0.8"/>
      </g>
     </g>
     <g id="text_10">
      <!-- 0 -->
      <g transform="translate(44.2375 188.295021) scale(0.1 -0.1)">
       <use xlink:href="#DejaVuSans-30"/>
      </g>
     </g>
    </g>
    <g id="ytick_4">
     <g id="line2d_10">
      <g>
       <use xlink:href="#m01486b7c3c" x="57.6" y="125.456572" style="stroke: #000000; stroke-width: 0.8"/>
      </g>
     </g>
     <g id="text_11">
      <!-- 1 -->
      <g transform="translate(44.2375 129.25579) scale(0.1 -0.1)">
       <use xlink:href="#DejaVuSans-31"/>
      </g>
     </g>
    </g>
    <g id="ytick_5">
     <g id="line2d_11">
      <g>
       <use xlink:href="#m01486b7c3c" x="57.6" y="66.417341" style="stroke: #000000; stroke-width: 0.8"/>
      </g>
     </g>
     <g id="text_12">
      <!-- 2 -->
      <g transform="translate(44.2375 70.216559) scale(0.1 -0.1)">
       <use xlink:href="#DejaVuSans-32"/>
      </g>
     </g>
    </g>
    <g id="text_13">
     <!-- E*t -->
     <g transform="translate(29.778125 182.147531) rotate(-90) scale(0.1 -0.1)">
      <defs>
       <path id="DejaVuSans-45" d="M 628 4666 
L 3578 4666 
L 3578 4134 
L 1259 4134 
L 1259 2753 
L 3481 2753 
L 3481 2222 
L 1259 2222 
L 1259 531 
L 3634 531 
L 3634 0 
L 628 0 
L 628 4666 
z
" transform="scale(0.015625)"/>
       <path id="DejaVuSans-2a" d="M 3009 3897 
L 1888 3291 
L 3009 2681 
L 2828 2375 
L 1778 3009 
L 1778 1831 
L 1422 1831 
L 1422 3009 
L 372 2375 
L 191 2681 
L 1313 3291 
L 191 3897 
L 372 4206 
L 1422 3572 
L 1422 4750 
L 1778 4750 
L 1778 3572 
L 2828 4206 
L 3009 3897 
z
" transform="scale(0.015625)"/>
       <path id="DejaVuSans-74" d="M 1172 4494 
L 1172 3500 
L 2356 3500 
L 2356 3053 
L 1172 3053 
L 1172 1153 
Q 1172 725 1289 603 
Q 1406 481 1766 481 
L 2356 481 
L 2356 0 
L 1766 0 
Q 1100 0 847 248 
Q 594 497 594 1153 
L 594 3053 
L 172 3053 
L 172 3500 
L 594 3500 
L 594 4494 
L 1172 4494 
z
" transform="scale(0.015625)"/>
      </defs>
      <use xlink:href="#DejaVuSans-45"/>
      <use xlink:href="#DejaVuSans-2a" x="63.183594"/>
      <use xlink:href="#DejaVuSans-74" x="113.183594"/>
     </g>
    </g>
   </g>
   <g id="line2d_12">
    <path d="M 73.832727 295.488 
L 74.784793 285.002029 
L 75.102149 284.394176 
L 75.419504 283.374729 
L 75.73686 282.899213 
L 76.37157 280.19629 
L 76.688926 279.720719 
L 77.006281 277.086703 
L 77.323636 276.064804 
L 77.958347 275.227501 
L 78.593058 272.886365 
L 78.910413 272.388765 
L 79.227769 272.281652 
L 79.862479 271.805442 
L 80.179835 270.893521 
L 80.49719 269.342605 
L 80.814545 268.866445 
L 81.131901 267.92003 
L 81.449256 267.715086 
L 81.766612 264.971732 
L 82.401322 264.473483 
L 82.718678 264.143986 
L 83.353388 263.048513 
L 83.670744 262.634214 
L 84.305455 261.534487 
L 84.62281 261.206859 
L 84.940165 260.381934 
L 85.257521 259.87032 
L 85.574876 259.800503 
L 85.892231 259.456076 
L 86.209587 256.861452 
L 86.526942 256.836516 
L 86.844298 255.738067 
L 87.161653 255.302778 
L 87.479008 254.009527 
L 87.796364 253.899388 
L 88.113719 252.559873 
L 88.431074 252.467351 
L 88.74843 252.124642 
L 89.065785 251.964298 
L 89.38314 251.550631 
L 89.700496 250.831028 
L 90.335207 250.165279 
L 90.969917 249.02724 
L 91.287273 248.61351 
L 91.921983 247.384334 
L 92.239339 246.986759 
L 92.556694 246.806509 
L 92.87405 245.922049 
L 93.191405 245.779877 
L 93.50876 244.696018 
L 93.826116 244.653844 
L 94.143471 244.219203 
L 94.460826 243.229387 
L 94.778182 242.915689 
L 95.095537 242.862708 
L 96.364959 241.931816 
L 96.682314 241.716786 
L 96.999669 241.282082 
L 97.317025 241.25878 
L 97.63438 241.010957 
L 97.951736 240.051187 
L 98.586446 239.900068 
L 98.903802 239.684189 
L 99.221157 239.678399 
L 99.538512 239.499035 
L 99.855868 239.478245 
L 100.173223 239.071173 
L 101.125289 238.865288 
L 101.76 238.614575 
L 102.077355 238.071211 
L 102.394711 236.780679 
L 102.712066 236.541193 
L 103.029421 236.499902 
L 103.346777 236.132199 
L 103.981488 235.764167 
L 104.298843 234.836897 
L 104.616198 234.686058 
L 105.250909 234.624915 
L 105.568264 234.216518 
L 105.88562 234.149658 
L 106.520331 233.841687 
L 107.472397 233.749319 
L 107.789752 233.70348 
L 108.107107 233.468367 
L 108.741818 233.332039 
L 109.059174 232.807446 
L 109.693884 232.592599 
L 110.328595 231.76862 
L 111.280661 231.658382 
L 112.550083 230.838197 
L 113.502149 230.571188 
L 113.819504 230.289943 
L 114.454215 230.079418 
L 115.723636 228.884561 
L 116.675702 228.815878 
L 117.310413 228.456693 
L 117.627769 228.421964 
L 118.262479 228.01123 
L 120.483967 227.158903 
L 120.801322 226.884689 
L 121.436033 226.813926 
L 121.753388 226.569724 
L 122.705455 226.423841 
L 123.657521 225.645601 
L 124.292231 225.518815 
L 124.926942 225.15543 
L 125.244298 224.892856 
L 125.561653 224.436176 
L 125.879008 224.276526 
L 126.196364 223.742874 
L 127.14843 223.360363 
L 128.417851 222.672499 
L 128.735207 222.665804 
L 129.052562 222.447031 
L 133.178182 221.57436 
L 134.130248 221.482996 
L 134.447603 221.310093 
L 134.764959 221.263889 
L 135.399669 220.803894 
L 136.986446 219.850944 
L 138.255868 219.436385 
L 138.890579 219.372192 
L 139.525289 219.09258 
L 139.842645 218.754839 
L 141.112066 218.453921 
L 142.698843 217.637405 
L 143.333554 216.688188 
L 143.968264 216.401349 
L 145.237686 216.241078 
L 145.555041 215.842417 
L 146.189752 215.653921 
L 146.824463 215.222229 
L 148.093884 214.715956 
L 149.04595 214.531 
L 149.680661 214.417335 
L 150.632727 214.223655 
L 150.950083 214.175661 
L 151.267438 213.976948 
L 151.584793 213.931717 
L 151.902149 213.59367 
L 153.17157 212.888008 
L 153.488926 212.591 
L 154.440992 212.133777 
L 154.758347 211.976474 
L 155.075702 211.498312 
L 156.979835 211.152796 
L 157.29719 210.793416 
L 157.931901 210.737562 
L 159.201322 210.102189 
L 160.470744 209.452665 
L 161.105455 209.377628 
L 162.374876 208.797953 
L 162.692231 208.426698 
L 163.009587 208.335696 
L 163.326942 207.88908 
L 163.961653 207.800522 
L 165.231074 207.124403 
L 166.817851 206.535057 
L 167.452562 206.06657 
L 167.769917 205.398569 
L 168.404628 205.257386 
L 168.721983 204.569646 
L 169.356694 204.444099 
L 169.991405 204.078741 
L 170.626116 203.923346 
L 172.530248 203.333542 
L 172.847603 202.888339 
L 173.164959 202.769766 
L 173.482314 202.242439 
L 174.117025 202.085853 
L 174.751736 201.903659 
L 175.069091 201.632594 
L 175.703802 201.498246 
L 176.021157 200.882365 
L 176.338512 200.613187 
L 176.973223 200.509103 
L 177.290579 200.396436 
L 178.56 199.305381 
L 179.829421 198.960931 
L 180.464132 198.730414 
L 181.098843 198.488804 
L 181.733554 198.309101 
L 182.050909 197.953775 
L 182.368264 197.94339 
L 183.320331 197.2113 
L 184.589752 196.868352 
L 184.907107 196.326576 
L 185.859174 196.055214 
L 186.176529 196.040118 
L 186.81124 195.702318 
L 187.128595 195.36514 
L 187.763306 195.289492 
L 188.715372 194.518553 
L 189.350083 194.286182 
L 189.984793 194.195117 
L 190.93686 193.509383 
L 192.206281 193.310104 
L 192.840992 193.103066 
L 193.158347 192.671561 
L 193.793058 192.630479 
L 194.427769 192.431515 
L 195.062479 192.318326 
L 195.379835 192.286133 
L 195.69719 192.110973 
L 196.331901 192.044741 
L 196.649256 191.561311 
L 197.918678 191.404704 
L 199.82281 190.996229 
L 200.140165 190.737306 
L 200.457521 190.658754 
L 201.726942 189.910737 
L 202.361653 189.732489 
L 202.679008 189.675487 
L 202.996364 189.309835 
L 203.631074 189.150356 
L 204.265785 188.790665 
L 205.217851 188.383204 
L 205.852562 188.34887 
L 206.804628 187.853468 
L 208.07405 187.426262 
L 209.026116 187.286649 
L 209.978182 186.741474 
L 210.612893 186.613472 
L 211.882314 186.483057 
L 213.469091 186.182114 
L 214.738512 186.055851 
L 215.690579 185.906328 
L 216.007934 185.671242 
L 218.864132 185.008651 
L 219.181488 184.767001 
L 219.816198 184.686337 
L 220.768264 184.415703 
L 221.08562 184.375466 
L 221.402975 184.195406 
L 222.355041 184.027294 
L 222.672397 183.884894 
L 223.624463 183.799831 
L 224.259174 183.6427 
L 224.893884 183.530874 
L 225.528595 183.365679 
L 226.480661 183.01202 
L 226.798017 182.960005 
L 227.432727 182.472158 
L 227.750083 182.45912 
L 228.384793 182.182554 
L 229.019504 182.149534 
L 229.33686 181.728382 
L 229.97157 181.319364 
L 231.558347 180.99281 
L 231.875702 180.779222 
L 233.779835 180.468571 
L 234.731901 180.366177 
L 235.049256 180.313831 
L 235.683967 179.953945 
L 236.953388 179.688478 
L 237.270744 179.686427 
L 237.905455 179.291968 
L 239.174876 178.974214 
L 240.126942 178.895479 
L 240.761653 178.690668 
L 241.713719 178.538504 
L 242.031074 178.344813 
L 242.665785 178.224709 
L 245.204628 177.777254 
L 245.521983 177.593692 
L 248.695537 176.962291 
L 249.964959 176.555887 
L 250.282314 176.245415 
L 250.917025 176.065322 
L 251.23438 175.982793 
L 251.869091 175.559009 
L 252.821157 175.465004 
L 253.138512 175.253098 
L 253.773223 175.122803 
L 254.725289 174.874781 
L 255.042645 174.86603 
L 255.36 174.543852 
L 257.264132 174.158531 
L 257.581488 173.725656 
L 258.533554 173.587376 
L 259.168264 173.377848 
L 260.755041 172.997205 
L 261.389752 172.963162 
L 261.707107 172.659675 
L 262.341818 172.558057 
L 262.976529 172.314493 
L 264.880661 171.977842 
L 265.515372 171.696677 
L 265.832727 171.653035 
L 266.467438 171.421614 
L 266.784793 171.294914 
L 267.73686 171.194449 
L 268.054215 170.887413 
L 269.006281 170.543857 
L 269.323636 170.06529 
L 272.814545 169.293201 
L 273.449256 168.866169 
L 273.766612 168.84346 
L 274.083967 168.559583 
L 274.401322 168.532889 
L 275.988099 167.611163 
L 276.305455 167.235999 
L 278.526942 166.553203 
L 279.161653 166.403514 
L 280.113719 166.013495 
L 281.700496 165.665359 
L 282.017851 165.655163 
L 283.287273 164.943079 
L 284.239339 164.550324 
L 284.556694 164.505579 
L 284.87405 163.982224 
L 285.191405 163.96098 
L 286.460826 163.374963 
L 287.730248 163.199905 
L 288.047603 162.829639 
L 289.63438 162.455691 
L 290.269091 162.328699 
L 290.903802 161.99879 
L 291.221157 161.983333 
L 291.538512 161.702585 
L 291.855868 161.571283 
L 292.490579 161.458423 
L 292.807934 161.380139 
L 293.76 160.818408 
L 294.077355 160.762874 
L 294.712066 160.381948 
L 295.346777 160.265596 
L 295.664132 159.902958 
L 295.981488 159.760618 
L 296.933554 159.691163 
L 297.250909 159.171623 
L 297.568264 159.065746 
L 298.202975 158.423119 
L 298.520331 158.400207 
L 299.472397 157.568814 
L 299.789752 157.513393 
L 300.424463 157.294159 
L 301.376529 157.172279 
L 301.693884 156.666094 
L 302.328595 156.568979 
L 302.64595 156.300741 
L 302.963306 156.193351 
L 303.280661 155.913241 
L 303.598017 155.47832 
L 304.550083 155.385037 
L 304.867438 155.3231 
L 305.184793 155.042049 
L 306.13686 154.794311 
L 307.088926 154.650292 
L 308.040992 154.441678 
L 308.358347 154.25139 
L 308.993058 154.139275 
L 309.310413 154.123969 
L 310.579835 153.367585 
L 310.89719 152.531247 
L 311.214545 152.360696 
L 311.849256 152.264891 
L 312.166612 151.970585 
L 312.483967 151.828299 
L 313.118678 151.683922 
L 313.436033 151.418656 
L 314.070744 151.314761 
L 314.388099 150.747777 
L 315.340165 150.433652 
L 316.292231 149.689642 
L 316.609587 149.673527 
L 317.244298 149.326657 
L 317.561653 149.252053 
L 318.196364 148.790411 
L 320.100496 148.314314 
L 320.417851 147.729456 
L 321.052562 147.309631 
L 321.369917 147.107935 
L 321.687273 146.621778 
L 322.004628 146.500158 
L 322.639339 146.424805 
L 323.27405 146.148833 
L 323.591405 145.83414 
L 324.226116 145.652679 
L 324.543471 145.179428 
L 325.178182 144.885854 
L 325.495537 144.427279 
L 327.399669 143.535355 
L 328.351736 143.389447 
L 328.669091 143.370546 
L 330.573223 142.550507 
L 330.890579 142.468054 
L 331.207934 141.82467 
L 332.16 141.05605 
L 332.794711 140.590518 
L 333.746777 140.341964 
L 334.064132 139.935874 
L 334.381488 139.743221 
L 334.698843 139.70532 
L 335.016198 139.507267 
L 335.650909 138.637027 
L 338.507107 137.579078 
L 339.141818 137.542316 
L 339.459174 137.304706 
L 341.04595 136.810243 
L 342.315372 136.271729 
L 342.632727 135.729629 
L 343.267438 135.577398 
L 343.902149 135.456063 
L 344.219504 135.436168 
L 345.17157 134.848961 
L 345.488926 134.794459 
L 345.806281 134.482492 
L 346.123636 134.359446 
L 346.440992 133.904632 
L 347.075702 133.747312 
L 347.710413 133.265267 
L 348.027769 132.605783 
L 348.662479 132.371638 
L 348.979835 132.344616 
L 349.29719 132.145865 
L 349.614545 132.127316 
L 349.931901 131.905359 
L 350.249256 131.90507 
L 350.566612 131.753371 
L 351.201322 131.70077 
L 351.518678 131.558337 
L 351.836033 131.539756 
L 352.788099 130.740356 
L 353.42281 130.550571 
L 353.740165 130.370462 
L 354.057521 130.35297 
L 355.009587 129.977522 
L 355.326942 129.545978 
L 356.596364 129.438954 
L 356.913719 129.177468 
L 357.231074 129.084667 
L 357.54843 128.629598 
L 358.500496 128.199873 
L 358.817851 127.716068 
L 359.452562 127.132399 
L 359.769917 127.091949 
L 361.356694 126.114755 
L 361.67405 126.096075 
L 363.260826 125.303266 
L 363.895537 125.039212 
L 364.212893 124.724847 
L 364.530248 124.601768 
L 364.847603 124.339403 
L 365.164959 124.235423 
L 366.43438 123.221782 
L 366.751736 123.146226 
L 367.069091 122.586246 
L 367.703802 122.254719 
L 368.021157 121.374126 
L 368.338512 120.999903 
L 368.655868 120.865237 
L 368.973223 120.521276 
L 369.925289 120.168342 
L 370.242645 119.44419 
L 370.56 119.349007 
L 370.877355 118.691524 
L 371.512066 118.505357 
L 371.829421 118.047076 
L 372.146777 117.810876 
L 372.781488 117.695537 
L 373.098843 117.37451 
L 373.733554 117.190701 
L 374.050909 116.503528 
L 374.368264 116.493893 
L 374.68562 115.22746 
L 375.002975 114.915608 
L 375.320331 114.897391 
L 376.272397 114.013159 
L 376.589752 112.93967 
L 377.541818 112.554887 
L 378.493884 111.748082 
L 379.128595 111.623021 
L 379.44595 111.250766 
L 380.080661 109.23771 
L 380.715372 109.107985 
L 381.350083 108.577886 
L 381.667438 107.98192 
L 381.984793 107.686971 
L 382.302149 107.57193 
L 382.619504 107.056043 
L 382.93686 106.80303 
L 383.57157 106.713835 
L 383.888926 106.370287 
L 384.206281 106.263388 
L 384.523636 105.829041 
L 384.840992 104.366837 
L 385.158347 103.864865 
L 385.475702 103.851221 
L 385.793058 103.076746 
L 386.110413 101.808738 
L 386.427769 101.550332 
L 386.745124 100.923548 
L 387.062479 100.769123 
L 387.69719 97.833675 
L 388.014545 97.820091 
L 388.331901 95.900602 
L 388.649256 95.676243 
L 388.966612 95.019954 
L 389.601322 92.99973 
L 389.918678 90.148756 
L 390.553388 89.569619 
L 390.870744 88.988711 
L 391.188099 88.684825 
L 392.140165 86.867239 
L 392.457521 84.896056 
L 392.774876 84.117512 
L 393.409587 83.538538 
L 393.726942 82.876124 
L 394.044298 82.653744 
L 394.361653 81.996368 
L 394.679008 78.864813 
L 394.996364 78.532027 
L 395.631074 76.743634 
L 395.94843 72.500946 
L 396.265785 70.603305 
L 396.58314 69.722688 
L 396.900496 64.851815 
L 397.217851 64.572224 
L 397.535207 63.691607 
L 397.852562 59.599081 
L 398.169917 58.820734 
L 398.487273 53.568 
L 398.487273 53.568 
" clip-path="url(#p5215e63a1b)" style="fill: none; stroke: #1f77b4; stroke-width: 1.5; stroke-linecap: square"/>
   </g>
   <g id="line2d_13">
    <path d="M 73.832727 244.862296 
L 74.150083 237.818176 
L 74.467438 237.818176 
L 74.784793 231.796888 
L 75.102149 230.546181 
L 75.73686 230.546181 
L 76.054215 228.293258 
L 76.37157 224.490012 
L 76.688926 224.256671 
L 77.006281 224.256671 
L 77.323636 223.668185 
L 78.910413 223.668185 
L 79.227769 221.52255 
L 79.545124 221.52255 
L 79.862479 220.745837 
L 80.179835 220.265973 
L 80.49719 220.265973 
L 80.814545 217.893365 
L 81.131901 216.77656 
L 82.083967 216.757357 
L 82.401322 216.096382 
L 86.844298 216.058854 
L 87.161653 215.696939 
L 87.479008 213.977682 
L 87.796364 213.597618 
L 88.113719 213.00243 
L 89.700496 213.00243 
L 90.017851 212.241956 
L 90.652562 212.241956 
L 90.969917 211.358552 
L 91.287273 211.358552 
L 91.604628 210.898368 
L 91.921983 209.714704 
L 99.221157 209.714704 
L 99.538512 209.009398 
L 99.855868 209.009398 
L 100.173223 208.842563 
L 101.76 208.842563 
L 102.077355 208.111495 
L 103.664132 208.111495 
L 104.616198 207.661539 
L 104.933554 207.661539 
L 105.250909 206.658977 
L 106.202975 206.60845 
L 106.520331 204.345833 
L 107.155041 204.12227 
L 107.472397 204.12227 
L 107.789752 203.601255 
L 109.376529 203.601255 
L 109.693884 202.457798 
L 110.01124 202.457798 
L 110.328595 201.194636 
L 129.369917 201.194584 
L 129.687273 200.476772 
L 130.321983 199.801664 
L 131.27405 199.758622 
L 131.591405 199.171419 
L 131.90876 199.171419 
L 132.226116 199.037263 
L 132.860826 199.037263 
L 133.178182 197.906858 
L 133.495537 197.906858 
L 133.812893 197.670152 
L 135.399669 197.670152 
L 135.717025 196.706164 
L 136.986446 196.303649 
L 163.009587 196.303649 
L 163.326942 195.303153 
L 167.135207 195.303153 
L 167.452562 195.120307 
L 167.769917 195.120307 
L 168.087273 193.882064 
L 168.404628 193.882064 
L 168.721983 193.551554 
L 169.356694 193.551554 
L 169.67405 193.338271 
L 169.991405 192.827419 
L 171.578182 192.827419 
L 172.847603 192.314424 
L 180.146777 192.314424 
L 180.464132 192.051403 
L 180.781488 192.051403 
L 181.098843 191.793409 
L 182.68562 191.793409 
L 183.320331 189.386738 
L 185.541818 189.365329 
L 185.859174 189.225502 
L 186.493884 189.225502 
L 186.81124 189.014295 
L 187.128595 188.485027 
L 187.44595 188.485027 
L 187.763306 188.126559 
L 188.080661 188.126559 
L 188.398017 186.630049 
L 188.715372 184.495802 
L 283.604628 184.495802 
L 284.239339 180.865046 
L 284.556694 180.865046 
L 284.87405 180.506578 
L 285.191405 180.506578 
L 285.50876 179.977309 
L 285.826116 179.766103 
L 286.460826 179.766103 
L 286.778182 179.626276 
L 288.999669 179.604867 
L 289.63438 177.198196 
L 291.221157 177.198196 
L 291.538512 176.940202 
L 291.855868 176.940202 
L 292.173223 176.677181 
L 299.472397 176.677181 
L 299.789752 176.524373 
L 300.107107 176.524373 
L 300.741818 176.164186 
L 302.328595 176.164186 
L 302.64595 175.653334 
L 302.963306 175.440051 
L 303.598017 175.440051 
L 303.915372 175.109541 
L 304.232727 175.109541 
L 304.550083 173.871297 
L 304.867438 173.871297 
L 305.184793 173.688452 
L 308.993058 173.688452 
L 309.310413 172.687956 
L 335.968264 172.63308 
L 336.602975 172.285441 
L 336.920331 171.321453 
L 338.507107 171.321453 
L 338.824463 171.084747 
L 339.141818 171.084747 
L 339.459174 169.954342 
L 340.093884 169.954342 
L 340.41124 169.820186 
L 340.728595 169.820186 
L 341.04595 169.232983 
L 341.998017 169.189941 
L 342.315372 168.928642 
L 342.632727 168.514832 
L 342.950083 167.797021 
L 361.991405 167.796969 
L 362.30876 166.533807 
L 362.626116 166.533807 
L 362.943471 165.39035 
L 364.530248 165.39035 
L 364.847603 164.869334 
L 365.482314 164.779488 
L 365.799669 164.645772 
L 366.117025 162.383155 
L 367.069091 162.332628 
L 367.386446 161.330066 
L 368.021157 161.330066 
L 368.655868 160.88011 
L 370.242645 160.88011 
L 370.56 160.149042 
L 372.146777 160.149042 
L 372.464132 159.982206 
L 372.781488 159.982206 
L 373.098843 159.276901 
L 380.398017 159.276901 
L 380.715372 158.093236 
L 381.032727 157.633053 
L 381.350083 157.633053 
L 381.667438 156.749649 
L 382.302149 156.749649 
L 382.619504 155.989175 
L 384.206281 155.989175 
L 384.840992 155.013922 
L 385.158347 153.294666 
L 385.475702 152.932751 
L 389.918678 152.895223 
L 390.236033 152.234248 
L 391.188099 152.215045 
L 391.505455 151.09824 
L 391.82281 148.725632 
L 392.140165 148.725632 
L 392.457521 148.245768 
L 392.774876 147.469055 
L 393.092231 147.469055 
L 393.409587 145.32342 
L 394.996364 145.32342 
L 395.313719 144.734934 
L 395.631074 144.734934 
L 395.94843 144.501593 
L 396.265785 140.698347 
L 396.58314 138.445424 
L 397.217851 138.445424 
L 397.535207 137.194717 
L 397.852562 131.173429 
L 398.169917 131.173429 
L 398.487273 124.129308 
L 398.487273 124.129308 
" clip-path="url(#p5215e63a1b)" style="fill: none; stroke: #ff7f0e; stroke-width: 1.5; stroke-linecap: square"/>
   </g>
   <g id="patch_3">
    <path d="M 57.6 307.584 
L 57.6 41.472 
" style="fill: none; stroke: #000000; stroke-width: 0.8; stroke-linejoin: miter; stroke-linecap: square"/>
   </g>
   <g id="patch_4">
    <path d="M 414.72 307.584 
L 414.72 41.472 
" style="fill: none; stroke: #000000; stroke-width: 0.8; stroke-linejoin: miter; stroke-linecap: square"/>
   </g>
   <g id="patch_5">
    <path d="M 57.6 307.584 
L 414.72 307.584 
" style="fill: none; stroke: #000000; stroke-width: 0.8; stroke-linejoin: miter; stroke-linecap: square"/>
   </g>
   <g id="patch_6">
    <path d="M 57.6 41.472 
L 414.72 41.472 
" style="fill: none; stroke: #000000; stroke-width: 0.8; stroke-linejoin: miter; stroke-linecap: square"/>
   </g>
   <g id="legend_1">
    <g id="patch_7">
     <path d="M 64.6 78.82825 
L 129.342187 78.82825 
Q 131.342187 78.82825 131.342187 76.82825 
L 131.342187 48.472 
Q 131.342187 46.472 129.342187 46.472 
L 64.6 46.472 
Q 62.6 46.472 62.6 48.472 
L 62.6 76.82825 
Q 62.6 78.82825 64.6 78.82825 
z
" style="fill: #ffffff; opacity: 0.8; stroke: #cccccc; stroke-linejoin: miter"/>
    </g>
    <g id="line2d_14">
     <path d="M 66.6 54.570437 
L 76.6 54.570437 
L 86.6 54.570437 
" style="fill: none; stroke: #1f77b4; stroke-width: 1.5; stroke-linecap: square"/>
    </g>
    <g id="text_14">
     <!-- qc -->
     <g transform="translate(94.6 58.070437) scale(0.1 -0.1)">
      <defs>
       <path id="DejaVuSans-71" d="M 947 1747 
Q 947 1113 1208 752 
Q 1469 391 1925 391 
Q 2381 391 2643 752 
Q 2906 1113 2906 1747 
Q 2906 2381 2643 2742 
Q 2381 3103 1925 3103 
Q 1469 3103 1208 2742 
Q 947 2381 947 1747 
z
M 2906 525 
Q 2725 213 2448 61 
Q 2172 -91 1784 -91 
Q 1150 -91 751 415 
Q 353 922 353 1747 
Q 353 2572 751 3078 
Q 1150 3584 1784 3584 
Q 2172 3584 2448 3432 
Q 2725 3281 2906 2969 
L 2906 3500 
L 3481 3500 
L 3481 -1331 
L 2906 -1331 
L 2906 525 
z
" transform="scale(0.015625)"/>
       <path id="DejaVuSans-63" d="M 3122 3366 
L 3122 2828 
Q 2878 2963 2633 3030 
Q 2388 3097 2138 3097 
Q 1578 3097 1268 2742 
Q 959 2388 959 1747 
Q 959 1106 1268 751 
Q 1578 397 2138 397 
Q 2388 397 2633 464 
Q 2878 531 3122 666 
L 3122 134 
Q 2881 22 2623 -34 
Q 2366 -91 2075 -91 
Q 1284 -91 818 406 
Q 353 903 353 1747 
Q 353 2603 823 3093 
Q 1294 3584 2113 3584 
Q 2378 3584 2631 3529 
Q 2884 3475 3122 3366 
z
" transform="scale(0.015625)"/>
      </defs>
      <use xlink:href="#DejaVuSans-71"/>
      <use xlink:href="#DejaVuSans-63" x="63.476562"/>
     </g>
    </g>
    <g id="line2d_15">
     <path d="M 66.6 69.248562 
L 76.6 69.248562 
L 86.6 69.248562 
" style="fill: none; stroke: #ff7f0e; stroke-width: 1.5; stroke-linecap: square"/>
    </g>
    <g id="text_15">
     <!-- Trotter -->
     <g transform="translate(94.6 72.748562) scale(0.1 -0.1)">
      <defs>
       <path id="DejaVuSans-54" d="M -19 4666 
L 3928 4666 
L 3928 4134 
L 2272 4134 
L 2272 0 
L 1638 0 
L 1638 4134 
L -19 4134 
L -19 4666 
z
" transform="scale(0.015625)"/>
       <path id="DejaVuSans-72" d="M 2631 2963 
Q 2534 3019 2420 3045 
Q 2306 3072 2169 3072 
Q 1681 3072 1420 2755 
Q 1159 2438 1159 1844 
L 1159 0 
L 581 0 
L 581 3500 
L 1159 3500 
L 1159 2956 
Q 1341 3275 1631 3429 
Q 1922 3584 2338 3584 
Q 2397 3584 2469 3576 
Q 2541 3569 2628 3553 
L 2631 2963 
z
" transform="scale(0.015625)"/>
       <path id="DejaVuSans-6f" d="M 1959 3097 
Q 1497 3097 1228 2736 
Q 959 2375 959 1747 
Q 959 1119 1226 758 
Q 1494 397 1959 397 
Q 2419 397 2687 759 
Q 2956 1122 2956 1747 
Q 2956 2369 2687 2733 
Q 2419 3097 1959 3097 
z
M 1959 3584 
Q 2709 3584 3137 3096 
Q 3566 2609 3566 1747 
Q 3566 888 3137 398 
Q 2709 -91 1959 -91 
Q 1206 -91 779 398 
Q 353 888 353 1747 
Q 353 2609 779 3096 
Q 1206 3584 1959 3584 
z
" transform="scale(0.015625)"/>
       <path id="DejaVuSans-65" d="M 3597 1894 
L 3597 1613 
L 953 1613 
Q 991 1019 1311 708 
Q 1631 397 2203 397 
Q 2534 397 2845 478 
Q 3156 559 3463 722 
L 3463 178 
Q 3153 47 2828 -22 
Q 2503 -91 2169 -91 
Q 1331 -91 842 396 
Q 353 884 353 1716 
Q 353 2575 817 3079 
Q 1281 3584 2069 3584 
Q 2775 3584 3186 3129 
Q 3597 2675 3597 1894 
z
M 3022 2063 
Q 3016 2534 2758 2815 
Q 2500 3097 2075 3097 
Q 1594 3097 1305 2825 
Q 1016 2553 972 2059 
L 3022 2063 
z
" transform="scale(0.015625)"/>
      </defs>
      <use xlink:href="#DejaVuSans-54"/>
      <use xlink:href="#DejaVuSans-72" x="46.333984"/>
      <use xlink:href="#DejaVuSans-6f" x="85.197266"/>
      <use xlink:href="#DejaVuSans-74" x="146.378906"/>
      <use xlink:href="#DejaVuSans-74" x="185.587891"/>
      <use xlink:href="#DejaVuSans-65" x="224.796875"/>
      <use xlink:href="#DejaVuSans-72" x="286.320312"/>
     </g>
    </g>
   </g>
  </g>
 </g>
 <defs>
  <clipPath id="p5215e63a1b">
   <rect x="57.6" y="41.472" width="357.12" height="266.112"/>
  </clipPath>
 </defs>
</svg>
