<?xml version="1.0" encoding="utf-8" standalone="no"?>
<!DOCTYPE svg PUBLIC "-//W3C//DTD SVG 1.1//EN"
  "http://www.w3.org/Graphics/SVG/1.1/DTD/svg11.dtd">
<svg xmlns:xlink="http://www.w3.org/1999/xlink" width="460.8pt" height="345.6pt" viewBox="0 0 460.8 345.6" xmlns="http://www.w3.org/2000/svg" version="1.1">
 <metadata>
  <rdf:RDF xmlns:dc="http://purl.org/dc/elements/1.1/" xmlns:cc="http://creativecommons.org/ns#" xmlns:rdf="http://www.w3.org/1999/02/22-rdf-syntax-ns#">
   <cc:Work>
    <dc:type rdf:resource="http://purl.org/dc/dcmitype/StillImage"/>
    <dc:date>2024-08-23T14:55:30.452199</dc:date>
    <dc:format>image/svg+xml</dc:format>
    <dc:creator>
     <cc:Agent>
      <dc:title>Matplotlib v3.7.1, https://matplotlib.org/</dc:title>
     </cc:Agent>
    </dc:creator>
   </cc:Work>
  </rdf:RDF>
 </metadata>
 <defs>
  <style type="text/css">*{stroke-linejoin: round; stroke-linecap: butt}</style>
 </defs>
 <g id="figure_1">
  <g id="patch_1">
   <path d="M 0 345.6 
L 460.8 345.6 
L 460.8 0 
L 0 0 
z
" style="fill: #ffffff"/>
  </g>
  <g id="axes_1">
   <g id="patch_2">
    <path d="M 57.6 307.584 
L 414.72 307.584 
L 414.72 41.472 
L 57.6 41.472 
z
" style="fill: #ffffff"/>
   </g>
   <g id="matplotlib.axis_1">
    <g id="xtick_1">
     <g id="line2d_1">
      <defs>
       <path id="mc30c70570f" d="M 0 0 
L 0 3.5 
" style="stroke: #000000; stroke-width: 0.8"/>
      </defs>
      <g>
       <use xlink:href="#mc30c70570f" x="73.832727" y="307.584" style="stroke: #000000; stroke-width: 0.8"/>
      </g>
     </g>
     <g id="text_1">
      <!-- 0 -->
      <g transform="translate(70.651477 322.182437) scale(0.1 -0.1)">
       <defs>
        <path id="DejaVuSans-30" d="M 2034 4250 
Q 1547 4250 1301 3770 
Q 1056 3291 1056 2328 
Q 1056 1369 1301 889 
Q 1547 409 2034 409 
Q 2525 409 2770 889 
Q 3016 1369 3016 2328 
Q 3016 3291 2770 3770 
Q 2525 4250 2034 4250 
z
M 2034 4750 
Q 2819 4750 3233 4129 
Q 3647 3509 3647 2328 
Q 3647 1150 3233 529 
Q 2819 -91 2034 -91 
Q 1250 -91 836 529 
Q 422 1150 422 2328 
Q 422 3509 836 4129 
Q 1250 4750 2034 4750 
z
" transform="scale(0.015625)"/>
       </defs>
       <use xlink:href="#DejaVuSans-30"/>
      </g>
     </g>
    </g>
    <g id="xtick_2">
     <g id="line2d_2">
      <g>
       <use xlink:href="#mc30c70570f" x="137.303802" y="307.584" style="stroke: #000000; stroke-width: 0.8"/>
      </g>
     </g>
     <g id="text_2">
      <!-- 200 -->
      <g transform="translate(127.760052 322.182437) scale(0.1 -0.1)">
       <defs>
        <path id="DejaVuSans-32" d="M 1228 531 
L 3431 531 
L 3431 0 
L 469 0 
L 469 531 
Q 828 903 1448 1529 
Q 2069 2156 2228 2338 
Q 2531 2678 2651 2914 
Q 2772 3150 2772 3378 
Q 2772 3750 2511 3984 
Q 2250 4219 1831 4219 
Q 1534 4219 1204 4116 
Q 875 4013 500 3803 
L 500 4441 
Q 881 4594 1212 4672 
Q 1544 4750 1819 4750 
Q 2544 4750 2975 4387 
Q 3406 4025 3406 3419 
Q 3406 3131 3298 2873 
Q 3191 2616 2906 2266 
Q 2828 2175 2409 1742 
Q 1991 1309 1228 531 
z
" transform="scale(0.015625)"/>
       </defs>
       <use xlink:href="#DejaVuSans-32"/>
       <use xlink:href="#DejaVuSans-30" x="63.623047"/>
       <use xlink:href="#DejaVuSans-30" x="127.246094"/>
      </g>
     </g>
    </g>
    <g id="xtick_3">
     <g id="line2d_3">
      <g>
       <use xlink:href="#mc30c70570f" x="200.774876" y="307.584" style="stroke: #000000; stroke-width: 0.8"/>
      </g>
     </g>
     <g id="text_3">
      <!-- 400 -->
      <g transform="translate(191.231126 322.182437) scale(0.1 -0.1)">
       <defs>
        <path id="DejaVuSans-34" d="M 2419 4116 
L 825 1625 
L 2419 1625 
L 2419 4116 
z
M 2253 4666 
L 3047 4666 
L 3047 1625 
L 3713 1625 
L 3713 1100 
L 3047 1100 
L 3047 0 
L 2419 0 
L 2419 1100 
L 313 1100 
L 313 1709 
L 2253 4666 
z
" transform="scale(0.015625)"/>
       </defs>
       <use xlink:href="#DejaVuSans-34"/>
       <use xlink:href="#DejaVuSans-30" x="63.623047"/>
       <use xlink:href="#DejaVuSans-30" x="127.246094"/>
      </g>
     </g>
    </g>
    <g id="xtick_4">
     <g id="line2d_4">
      <g>
       <use xlink:href="#mc30c70570f" x="264.24595" y="307.584" style="stroke: #000000; stroke-width: 0.8"/>
      </g>
     </g>
     <g id="text_4">
      <!-- 600 -->
      <g transform="translate(254.7022 322.182437) scale(0.1 -0.1)">
       <defs>
        <path id="DejaVuSans-36" d="M 2113 2584 
Q 1688 2584 1439 2293 
Q 1191 2003 1191 1497 
Q 1191 994 1439 701 
Q 1688 409 2113 409 
Q 2538 409 2786 701 
Q 3034 994 3034 1497 
Q 3034 2003 2786 2293 
Q 2538 2584 2113 2584 
z
M 3366 4563 
L 3366 3988 
Q 3128 4100 2886 4159 
Q 2644 4219 2406 4219 
Q 1781 4219 1451 3797 
Q 1122 3375 1075 2522 
Q 1259 2794 1537 2939 
Q 1816 3084 2150 3084 
Q 2853 3084 3261 2657 
Q 3669 2231 3669 1497 
Q 3669 778 3244 343 
Q 2819 -91 2113 -91 
Q 1303 -91 875 529 
Q 447 1150 447 2328 
Q 447 3434 972 4092 
Q 1497 4750 2381 4750 
Q 2619 4750 2861 4703 
Q 3103 4656 3366 4563 
z
" transform="scale(0.015625)"/>
       </defs>
       <use xlink:href="#DejaVuSans-36"/>
       <use xlink:href="#DejaVuSans-30" x="63.623047"/>
       <use xlink:href="#DejaVuSans-30" x="127.246094"/>
      </g>
     </g>
    </g>
    <g id="xtick_5">
     <g id="line2d_5">
      <g>
       <use xlink:href="#mc30c70570f" x="327.717025" y="307.584" style="stroke: #000000; stroke-width: 0.8"/>
      </g>
     </g>
     <g id="text_5">
      <!-- 800 -->
      <g transform="translate(318.173275 322.182437) scale(0.1 -0.1)">
       <defs>
        <path id="DejaVuSans-38" d="M 2034 2216 
Q 1584 2216 1326 1975 
Q 1069 1734 1069 1313 
Q 1069 891 1326 650 
Q 1584 409 2034 409 
Q 2484 409 2743 651 
Q 3003 894 3003 1313 
Q 3003 1734 2745 1975 
Q 2488 2216 2034 2216 
z
M 1403 2484 
Q 997 2584 770 2862 
Q 544 3141 544 3541 
Q 544 4100 942 4425 
Q 1341 4750 2034 4750 
Q 2731 4750 3128 4425 
Q 3525 4100 3525 3541 
Q 3525 3141 3298 2862 
Q 3072 2584 2669 2484 
Q 3125 2378 3379 2068 
Q 3634 1759 3634 1313 
Q 3634 634 3220 271 
Q 2806 -91 2034 -91 
Q 1263 -91 848 271 
Q 434 634 434 1313 
Q 434 1759 690 2068 
Q 947 2378 1403 2484 
z
M 1172 3481 
Q 1172 3119 1398 2916 
Q 1625 2713 2034 2713 
Q 2441 2713 2670 2916 
Q 2900 3119 2900 3481 
Q 2900 3844 2670 4047 
Q 2441 4250 2034 4250 
Q 1625 4250 1398 4047 
Q 1172 3844 1172 3481 
z
" transform="scale(0.015625)"/>
       </defs>
       <use xlink:href="#DejaVuSans-38"/>
       <use xlink:href="#DejaVuSans-30" x="63.623047"/>
       <use xlink:href="#DejaVuSans-30" x="127.246094"/>
      </g>
     </g>
    </g>
    <g id="xtick_6">
     <g id="line2d_6">
      <g>
       <use xlink:href="#mc30c70570f" x="391.188099" y="307.584" style="stroke: #000000; stroke-width: 0.8"/>
      </g>
     </g>
     <g id="text_6">
      <!-- 1000 -->
      <g transform="translate(378.463099 322.182437) scale(0.1 -0.1)">
       <defs>
        <path id="DejaVuSans-31" d="M 794 531 
L 1825 531 
L 1825 4091 
L 703 3866 
L 703 4441 
L 1819 4666 
L 2450 4666 
L 2450 531 
L 3481 531 
L 3481 0 
L 794 0 
L 794 531 
z
" transform="scale(0.015625)"/>
       </defs>
       <use xlink:href="#DejaVuSans-31"/>
       <use xlink:href="#DejaVuSans-30" x="63.623047"/>
       <use xlink:href="#DejaVuSans-30" x="127.246094"/>
       <use xlink:href="#DejaVuSans-30" x="190.869141"/>
      </g>
     </g>
    </g>
    <g id="text_7">
     <!-- n -->
     <g transform="translate(232.99125 335.860562) scale(0.1 -0.1)">
      <defs>
       <path id="DejaVuSans-6e" d="M 3513 2113 
L 3513 0 
L 2938 0 
L 2938 2094 
Q 2938 2591 2744 2837 
Q 2550 3084 2163 3084 
Q 1697 3084 1428 2787 
Q 1159 2491 1159 1978 
L 1159 0 
L 581 0 
L 581 3500 
L 1159 3500 
L 1159 2956 
Q 1366 3272 1645 3428 
Q 1925 3584 2291 3584 
Q 2894 3584 3203 3211 
Q 3513 2838 3513 2113 
z
" transform="scale(0.015625)"/>
      </defs>
      <use xlink:href="#DejaVuSans-6e"/>
     </g>
    </g>
   </g>
   <g id="matplotlib.axis_2">
    <g id="ytick_1">
     <g id="line2d_7">
      <defs>
       <path id="m79800c763f" d="M 0 0 
L -3.5 0 
" style="stroke: #000000; stroke-width: 0.8"/>
      </defs>
      <g>
       <use xlink:href="#m79800c763f" x="57.6" y="273.201115" style="stroke: #000000; stroke-width: 0.8"/>
      </g>
     </g>
     <g id="text_8">
      <!-- −10 -->
      <g transform="translate(29.495313 277.000334) scale(0.1 -0.1)">
       <defs>
        <path id="DejaVuSans-2212" d="M 678 2272 
L 4684 2272 
L 4684 1741 
L 678 1741 
L 678 2272 
z
" transform="scale(0.015625)"/>
       </defs>
       <use xlink:href="#DejaVuSans-2212"/>
       <use xlink:href="#DejaVuSans-31" x="83.789062"/>
       <use xlink:href="#DejaVuSans-30" x="147.412109"/>
      </g>
     </g>
    </g>
    <g id="ytick_2">
     <g id="line2d_8">
      <g>
       <use xlink:href="#m79800c763f" x="57.6" y="225.7941" style="stroke: #000000; stroke-width: 0.8"/>
      </g>
     </g>
     <g id="text_9">
      <!-- −5 -->
      <g transform="translate(35.857813 229.593318) scale(0.1 -0.1)">
       <defs>
        <path id="DejaVuSans-35" d="M 691 4666 
L 3169 4666 
L 3169 4134 
L 1269 4134 
L 1269 2991 
Q 1406 3038 1543 3061 
Q 1681 3084 1819 3084 
Q 2600 3084 3056 2656 
Q 3513 2228 3513 1497 
Q 3513 744 3044 326 
Q 2575 -91 1722 -91 
Q 1428 -91 1123 -41 
Q 819 9 494 109 
L 494 744 
Q 775 591 1075 516 
Q 1375 441 1709 441 
Q 2250 441 2565 725 
Q 2881 1009 2881 1497 
Q 2881 1984 2565 2268 
Q 2250 2553 1709 2553 
Q 1456 2553 1204 2497 
Q 953 2441 691 2322 
L 691 4666 
z
" transform="scale(0.015625)"/>
       </defs>
       <use xlink:href="#DejaVuSans-2212"/>
       <use xlink:href="#DejaVuSans-35" x="83.789062"/>
      </g>
     </g>
    </g>
    <g id="ytick_3">
     <g id="line2d_9">
      <g>
       <use xlink:href="#m79800c763f" x="57.6" y="178.387084" style="stroke: #000000; stroke-width: 0.8"/>
      </g>
     </g>
     <g id="text_10">
      <!-- 0 -->
      <g transform="translate(44.2375 182.186302) scale(0.1 -0.1)">
       <use xlink:href="#DejaVuSans-30"/>
      </g>
     </g>
    </g>
    <g id="ytick_4">
     <g id="line2d_10">
      <g>
       <use xlink:href="#m79800c763f" x="57.6" y="130.980068" style="stroke: #000000; stroke-width: 0.8"/>
      </g>
     </g>
     <g id="text_11">
      <!-- 5 -->
      <g transform="translate(44.2375 134.779286) scale(0.1 -0.1)">
       <use xlink:href="#DejaVuSans-35"/>
      </g>
     </g>
    </g>
    <g id="ytick_5">
     <g id="line2d_11">
      <g>
       <use xlink:href="#m79800c763f" x="57.6" y="83.573052" style="stroke: #000000; stroke-width: 0.8"/>
      </g>
     </g>
     <g id="text_12">
      <!-- 10 -->
      <g transform="translate(37.875 87.37227) scale(0.1 -0.1)">
       <use xlink:href="#DejaVuSans-31"/>
       <use xlink:href="#DejaVuSans-30" x="63.623047"/>
      </g>
     </g>
    </g>
    <g id="text_13">
     <!-- E*t -->
     <g transform="translate(23.415625 182.147531) rotate(-90) scale(0.1 -0.1)">
      <defs>
       <path id="DejaVuSans-45" d="M 628 4666 
L 3578 4666 
L 3578 4134 
L 1259 4134 
L 1259 2753 
L 3481 2753 
L 3481 2222 
L 1259 2222 
L 1259 531 
L 3634 531 
L 3634 0 
L 628 0 
L 628 4666 
z
" transform="scale(0.015625)"/>
       <path id="DejaVuSans-2a" d="M 3009 3897 
L 1888 3291 
L 3009 2681 
L 2828 2375 
L 1778 3009 
L 1778 1831 
L 1422 1831 
L 1422 3009 
L 372 2375 
L 191 2681 
L 1313 3291 
L 191 3897 
L 372 4206 
L 1422 3572 
L 1422 4750 
L 1778 4750 
L 1778 3572 
L 2828 4206 
L 3009 3897 
z
" transform="scale(0.015625)"/>
       <path id="DejaVuSans-74" d="M 1172 4494 
L 1172 3500 
L 2356 3500 
L 2356 3053 
L 1172 3053 
L 1172 1153 
Q 1172 725 1289 603 
Q 1406 481 1766 481 
L 2356 481 
L 2356 0 
L 1766 0 
Q 1100 0 847 248 
Q 594 497 594 1153 
L 594 3053 
L 172 3053 
L 172 3500 
L 594 3500 
L 594 4494 
L 1172 4494 
z
" transform="scale(0.015625)"/>
      </defs>
      <use xlink:href="#DejaVuSans-45"/>
      <use xlink:href="#DejaVuSans-2a" x="63.183594"/>
      <use xlink:href="#DejaVuSans-74" x="113.183594"/>
     </g>
    </g>
   </g>
   <g id="line2d_12">
    <path d="M 73.832727 295.488 
L 74.150083 285.520387 
L 74.784793 279.475909 
L 75.102149 275.700532 
L 75.73686 274.433551 
L 76.054215 272.948255 
L 76.688926 266.518131 
L 77.006281 265.732919 
L 77.958347 265.033809 
L 78.275702 263.189713 
L 78.910413 261.859268 
L 79.227769 259.688864 
L 79.862479 258.663412 
L 80.179835 258.455405 
L 80.49719 256.551815 
L 81.131901 254.646084 
L 82.083967 253.222091 
L 82.401322 252.95493 
L 82.718678 252.525735 
L 83.036033 252.459465 
L 83.353388 251.424002 
L 83.670744 249.722463 
L 84.305455 249.271861 
L 84.940165 249.177241 
L 85.257521 248.580989 
L 85.574876 248.487786 
L 85.892231 246.79225 
L 86.844298 245.707729 
L 87.161653 245.669555 
L 89.065785 242.987312 
L 89.38314 242.24611 
L 90.017851 242.087022 
L 90.335207 241.45639 
L 90.652562 241.436754 
L 91.287273 239.516948 
L 91.604628 239.281793 
L 91.921983 238.876364 
L 92.239339 238.816503 
L 92.87405 238.33115 
L 93.191405 237.993863 
L 93.50876 237.399814 
L 94.143471 236.934658 
L 94.460826 236.825933 
L 95.095537 236.308803 
L 95.730248 236.13023 
L 96.364959 235.292732 
L 96.999669 234.831328 
L 97.317025 233.929924 
L 97.63438 233.872624 
L 97.951736 233.10368 
L 98.269091 232.733301 
L 98.586446 232.670771 
L 98.903802 232.279704 
L 100.490579 231.451148 
L 101.125289 230.575182 
L 101.442645 230.370131 
L 101.76 229.484807 
L 102.394711 229.431585 
L 103.029421 228.939626 
L 104.616198 228.663752 
L 104.933554 228.256938 
L 105.568264 228.016692 
L 105.88562 228.000001 
L 107.789752 226.327927 
L 108.107107 226.289612 
L 108.741818 225.981843 
L 109.059174 225.469556 
L 109.693884 225.286084 
L 110.01124 224.794061 
L 111.598017 223.777566 
L 112.550083 223.136205 
L 112.867438 222.672228 
L 114.454215 221.828637 
L 114.77157 221.483529 
L 115.088926 221.431456 
L 115.406281 221.217761 
L 116.040992 221.07621 
L 116.358347 220.970371 
L 117.310413 219.706676 
L 117.627769 219.49656 
L 117.945124 219.494713 
L 118.262479 219.27898 
L 118.579835 219.225545 
L 118.89719 218.949606 
L 119.531901 218.891984 
L 120.801322 218.206508 
L 121.118678 218.137182 
L 121.753388 217.761552 
L 122.388099 217.619513 
L 122.705455 217.584775 
L 123.974876 216.628939 
L 125.244298 216.453264 
L 125.561653 216.360452 
L 126.196364 215.887173 
L 126.831074 215.742293 
L 127.78314 215.214132 
L 128.417851 215.04386 
L 129.687273 214.146461 
L 130.004628 214.115585 
L 130.321983 213.587311 
L 130.956694 213.450109 
L 131.27405 212.923139 
L 131.90876 212.485202 
L 132.226116 212.451342 
L 132.860826 212.127714 
L 134.130248 211.90831 
L 135.082314 211.67646 
L 135.399669 211.250855 
L 136.351736 210.788132 
L 136.986446 210.395566 
L 137.938512 210.15075 
L 138.255868 209.412949 
L 138.890579 209.288526 
L 139.207934 208.80011 
L 139.842645 208.671833 
L 140.16 208.650487 
L 140.477355 208.489477 
L 141.429421 208.36177 
L 142.381488 208.000509 
L 143.016198 207.924736 
L 143.333554 207.685579 
L 144.28562 207.601039 
L 144.602975 207.223185 
L 146.507107 206.904876 
L 146.824463 206.662089 
L 147.459174 206.563666 
L 147.776529 206.369406 
L 148.093884 206.323842 
L 148.41124 205.934681 
L 149.680661 205.727065 
L 149.998017 205.322321 
L 150.950083 205.046405 
L 151.902149 204.827668 
L 152.219504 204.677869 
L 152.53686 204.131314 
L 153.488926 203.52338 
L 153.806281 203.517725 
L 154.440992 202.697305 
L 154.758347 202.545938 
L 155.393058 202.484971 
L 157.29719 201.836417 
L 157.931901 201.453636 
L 158.249256 201.407016 
L 159.201322 200.98675 
L 160.153388 200.861813 
L 160.788099 200.777427 
L 163.009587 199.483255 
L 163.644298 199.298753 
L 164.596364 199.184339 
L 165.54843 199.10494 
L 165.865785 198.705455 
L 167.452562 198.208363 
L 167.769917 198.198266 
L 168.404628 197.893649 
L 169.356694 197.798646 
L 169.67405 197.577866 
L 172.847603 196.8828 
L 173.482314 196.509938 
L 176.021157 195.760676 
L 176.655868 195.634905 
L 177.607934 195.311342 
L 177.925289 195.099089 
L 178.242645 195.039936 
L 179.512066 194.339375 
L 180.146777 194.191759 
L 180.464132 194.01457 
L 181.098843 193.344241 
L 181.416198 193.146165 
L 182.368264 193.016803 
L 183.002975 192.483807 
L 183.955041 192.297913 
L 186.81124 191.114536 
L 188.080661 190.900714 
L 188.715372 190.747599 
L 189.032727 190.745323 
L 189.350083 190.363608 
L 190.302149 190.19157 
L 190.619504 189.818665 
L 191.254215 189.712954 
L 191.57157 189.331279 
L 191.888926 189.241421 
L 192.206281 188.997686 
L 192.840992 188.899421 
L 193.158347 188.512889 
L 193.475702 188.438661 
L 193.793058 188.238412 
L 196.966612 187.817143 
L 197.918678 187.489472 
L 199.188099 187.30776 
L 200.774876 186.680597 
L 201.726942 186.542463 
L 202.679008 186.2088 
L 203.313719 186.076765 
L 203.631074 185.670709 
L 204.58314 185.561754 
L 205.535207 185.309309 
L 206.487273 184.96234 
L 207.439339 184.88432 
L 207.756694 184.22486 
L 208.70876 183.998661 
L 209.026116 183.962772 
L 209.660826 183.477589 
L 210.295537 182.806014 
L 211.564959 182.435439 
L 211.882314 182.408769 
L 212.517025 182.174666 
L 212.83438 181.767558 
L 213.786446 181.660355 
L 214.103802 181.434476 
L 215.055868 181.313922 
L 215.690579 180.880213 
L 216.007934 180.87737 
L 216.325289 180.562674 
L 219.181488 179.581438 
L 219.498843 179.353928 
L 220.133554 179.330079 
L 221.402975 178.785734 
L 222.037686 178.642225 
L 225.528595 178.073661 
L 226.163306 177.591621 
L 227.750083 177.283633 
L 229.33686 177.010433 
L 229.97157 176.742896 
L 230.923636 176.569519 
L 231.240992 176.387874 
L 231.558347 176.33929 
L 232.193058 176.01085 
L 232.827769 175.97763 
L 233.145124 175.752175 
L 233.779835 175.673564 
L 234.414545 175.510885 
L 235.683967 175.379027 
L 237.270744 174.735782 
L 237.588099 174.708511 
L 237.905455 174.553029 
L 238.22281 174.087838 
L 238.857521 173.974877 
L 239.174876 173.769981 
L 239.492231 173.414538 
L 240.126942 173.273764 
L 240.761653 173.247356 
L 241.713719 172.867941 
L 242.34843 172.790129 
L 242.665785 172.534223 
L 243.935207 172.21661 
L 244.569917 171.492066 
L 245.204628 171.377869 
L 245.521983 171.20632 
L 246.156694 171.159744 
L 246.47405 170.959921 
L 247.10876 170.794328 
L 247.426116 170.58438 
L 249.330248 170.301921 
L 249.647603 169.92986 
L 250.282314 169.812781 
L 250.599669 169.619715 
L 251.551736 169.485975 
L 251.869091 169.205362 
L 252.821157 169.123674 
L 253.138512 168.893437 
L 253.773223 168.83729 
L 254.407934 168.506799 
L 255.36 168.387888 
L 255.994711 168.246147 
L 260.437686 167.157686 
L 261.389752 167.036483 
L 261.707107 166.869105 
L 262.659174 166.820753 
L 262.976529 166.58042 
L 263.61124 166.432415 
L 263.928595 166.431247 
L 264.563306 166.170493 
L 266.150083 165.823605 
L 267.102149 165.433855 
L 268.688926 165.116739 
L 269.006281 164.614665 
L 269.958347 164.442231 
L 270.593058 164.388481 
L 270.910413 164.137627 
L 271.545124 164.0473 
L 272.179835 163.886458 
L 272.814545 163.870643 
L 273.131901 163.551437 
L 273.766612 163.465937 
L 274.083967 163.167401 
L 275.353388 162.891787 
L 275.670744 162.445032 
L 277.257521 161.92447 
L 277.892231 161.287831 
L 278.844298 161.173594 
L 279.796364 161.098142 
L 280.113719 160.785367 
L 280.74843 160.753469 
L 281.700496 160.408229 
L 282.017851 160.376468 
L 282.335207 160.166539 
L 282.969917 160.083005 
L 283.287273 159.770675 
L 284.239339 159.425734 
L 284.556694 159.083677 
L 286.778182 158.810673 
L 287.095537 158.520453 
L 287.730248 158.335774 
L 288.047603 158.107549 
L 289.951736 157.848141 
L 290.903802 157.486286 
L 291.538512 157.370541 
L 292.173223 157.25854 
L 292.490579 157.087433 
L 292.807934 157.079245 
L 293.125289 156.893993 
L 295.346777 156.641833 
L 295.981488 156.347696 
L 296.298843 156.034934 
L 296.616198 155.963358 
L 296.933554 155.736766 
L 298.837686 155.568575 
L 300.424463 155.024206 
L 300.741818 154.667179 
L 302.01124 154.289684 
L 302.328595 154.169702 
L 302.963306 153.488008 
L 303.280661 153.48695 
L 304.232727 153.068538 
L 305.184793 152.517756 
L 305.502149 151.871286 
L 306.13686 151.785982 
L 308.040992 151.152826 
L 308.675702 150.428924 
L 309.310413 150.296405 
L 309.945124 150.083846 
L 310.262479 149.535034 
L 310.89719 149.360611 
L 311.214545 149.326881 
L 311.849256 148.914196 
L 312.166612 148.880737 
L 312.801322 148.541601 
L 313.118678 148.417177 
L 313.436033 148.145244 
L 315.340165 147.770283 
L 315.657521 147.513299 
L 316.609587 147.293134 
L 316.926942 147.103577 
L 317.879008 146.918928 
L 319.14843 146.579544 
L 320.735207 146.320935 
L 321.052562 146.142257 
L 321.687273 145.561177 
L 322.321983 145.43555 
L 322.639339 145.242095 
L 324.860826 144.795407 
L 325.178182 144.351777 
L 325.495537 144.203099 
L 326.130248 144.098341 
L 327.082314 142.907965 
L 327.399669 142.90376 
L 327.717025 142.582534 
L 328.986446 142.336103 
L 329.938512 141.648603 
L 330.255868 140.929712 
L 330.890579 140.705973 
L 331.525289 140.647856 
L 331.842645 140.217469 
L 333.112066 139.793955 
L 333.429421 139.374605 
L 334.064132 139.295954 
L 334.381488 139.044127 
L 334.698843 138.644249 
L 335.650909 138.549176 
L 337.555041 138.140756 
L 338.189752 137.51445 
L 339.141818 137.175646 
L 340.41124 136.707876 
L 340.728595 136.309793 
L 341.04595 136.306479 
L 341.363306 136.010197 
L 342.315372 135.642165 
L 342.632727 135.376717 
L 342.950083 135.357208 
L 343.267438 135.103232 
L 343.902149 134.910363 
L 344.219504 134.650109 
L 344.53686 134.569908 
L 345.17157 133.900471 
L 345.806281 133.745923 
L 346.440992 133.492302 
L 346.758347 133.10986 
L 347.393058 133.068225 
L 348.345124 131.687679 
L 349.29719 131.375932 
L 349.614545 130.957096 
L 350.249256 130.795919 
L 350.566612 130.739273 
L 351.201322 129.838678 
L 352.153388 129.379075 
L 352.470744 129.035597 
L 353.105455 128.93934 
L 353.740165 128.503961 
L 354.057521 127.94827 
L 355.009587 127.86984 
L 355.961653 127.249113 
L 356.279008 127.120494 
L 356.596364 126.788364 
L 358.18314 126.324747 
L 358.500496 126.032346 
L 358.817851 125.928412 
L 359.135207 125.581107 
L 359.452562 125.543873 
L 360.404628 124.962848 
L 360.721983 124.811876 
L 361.039339 124.514671 
L 361.356694 124.480181 
L 361.991405 124.128432 
L 362.30876 124.095294 
L 362.626116 123.696592 
L 362.943471 123.672218 
L 363.260826 122.7564 
L 363.578182 122.739929 
L 364.530248 122.168928 
L 364.847603 121.514966 
L 365.799669 121.337542 
L 366.117025 120.448257 
L 367.069091 119.88963 
L 367.386446 119.832676 
L 367.703802 119.523677 
L 368.021157 118.917983 
L 368.338512 118.848162 
L 368.655868 118.585488 
L 368.973223 117.897857 
L 369.925289 117.556026 
L 370.56 117.408 
L 370.877355 116.982886 
L 371.194711 116.895518 
L 371.512066 116.616684 
L 372.146777 116.539557 
L 372.464132 116.277305 
L 372.781488 115.715568 
L 373.098843 115.448874 
L 374.050909 115.078858 
L 374.368264 114.64913 
L 375.002975 114.500731 
L 375.320331 113.421072 
L 375.637686 113.101328 
L 375.955041 113.026746 
L 376.272397 112.808867 
L 376.589752 112.744209 
L 376.907107 112.54493 
L 377.224463 110.982296 
L 377.541818 110.545972 
L 377.859174 110.514323 
L 378.176529 110.236859 
L 378.493884 108.742646 
L 379.128595 108.562215 
L 379.44595 108.24536 
L 379.763306 108.19091 
L 380.080661 107.670568 
L 380.398017 107.638885 
L 380.715372 107.457546 
L 381.350083 106.568885 
L 381.667438 106.434496 
L 381.984793 106.113902 
L 382.619504 105.882732 
L 383.254215 105.654935 
L 383.57157 105.338267 
L 383.888926 105.334196 
L 384.206281 104.663668 
L 384.840992 104.550263 
L 385.158347 104.260702 
L 385.475702 103.805281 
L 385.793058 103.709969 
L 386.427769 103.257694 
L 386.745124 102.355063 
L 387.062479 101.872714 
L 387.379835 101.110233 
L 387.69719 100.921399 
L 388.014545 99.564109 
L 388.966612 98.20324 
L 389.283967 98.140871 
L 389.601322 96.825609 
L 389.918678 96.226156 
L 390.236033 95.868591 
L 390.553388 95.832688 
L 390.870744 94.843484 
L 391.188099 94.517427 
L 391.505455 93.285849 
L 391.82281 92.507113 
L 392.140165 90.977228 
L 392.457521 85.578437 
L 392.774876 83.952948 
L 393.092231 83.270254 
L 393.409587 81.644766 
L 394.044298 80.875593 
L 394.361653 79.317225 
L 395.313719 77.968311 
L 395.631074 77.008604 
L 396.265785 75.631939 
L 396.900496 72.751354 
L 397.217851 70.443172 
L 397.535207 58.783466 
L 397.852562 56.475283 
L 398.169917 55.876183 
L 398.487273 53.568 
L 398.487273 53.568 
" clip-path="url(#p6043fbaefd)" style="fill: none; stroke: #1f77b4; stroke-width: 1.5; stroke-linecap: square"/>
   </g>
   <g id="line2d_13">
    <path d="M 73.832727 226.859858 
L 74.150083 221.203607 
L 74.467438 221.203607 
L 74.784793 216.368665 
L 75.102149 215.364378 
L 75.73686 215.364378 
L 76.054215 213.555338 
L 76.37157 210.501427 
L 76.688926 210.31406 
L 77.006281 210.31406 
L 77.323636 209.841521 
L 78.910413 209.841521 
L 79.227769 208.11863 
L 79.545124 208.11863 
L 80.179835 207.10963 
L 80.49719 207.10963 
L 80.814545 205.204486 
L 81.131901 204.307719 
L 82.083967 204.2923 
L 82.401322 203.761553 
L 86.844298 203.731419 
L 87.161653 203.44081 
L 87.479008 202.060291 
L 87.796364 201.755109 
L 88.113719 201.277188 
L 89.700496 201.277188 
L 90.017851 200.666546 
L 90.652562 200.666546 
L 90.969917 199.957195 
L 91.287273 199.957195 
L 91.604628 199.587679 
L 91.921983 198.637226 
L 99.221157 198.637226 
L 99.538512 198.070884 
L 99.855868 198.070884 
L 100.173223 197.93692 
L 101.76 197.93692 
L 102.077355 197.34989 
L 103.664132 197.34989 
L 104.616198 196.988587 
L 104.933554 196.988587 
L 105.250909 196.183555 
L 106.202975 196.142983 
L 106.520331 194.326158 
L 107.155041 194.146643 
L 107.472397 194.146643 
L 107.789752 193.728281 
L 109.376529 193.728281 
L 109.693884 192.810113 
L 110.01124 192.810113 
L 110.328595 191.795827 
L 129.369917 191.795785 
L 129.687273 191.2194 
L 130.321983 190.677305 
L 131.27405 190.642743 
L 131.591405 190.171234 
L 132.860826 190.06351 
L 133.178182 189.155823 
L 133.495537 189.155823 
L 133.812893 188.965754 
L 135.399669 188.965754 
L 135.717025 188.191696 
L 136.986446 187.868487 
L 163.009587 187.868487 
L 163.326942 187.065114 
L 167.135207 187.065114 
L 167.452562 186.918294 
L 167.769917 186.918294 
L 168.087273 185.924015 
L 168.404628 185.924015 
L 168.721983 185.658624 
L 169.356694 185.658624 
L 169.67405 185.487363 
L 169.991405 185.077162 
L 171.578182 185.077162 
L 172.847603 184.66524 
L 180.146777 184.66524 
L 180.464132 184.45404 
L 180.781488 184.45404 
L 181.098843 184.246878 
L 182.68562 184.246878 
L 183.320331 182.314381 
L 185.541818 182.297191 
L 186.176529 182.184913 
L 186.493884 182.184913 
L 186.81124 182.01532 
L 187.128595 181.59033 
L 187.44595 181.59033 
L 187.763306 181.30249 
L 188.080661 181.30249 
L 188.398017 180.10083 
L 188.715372 178.387084 
L 283.604628 178.387084 
L 284.239339 175.471678 
L 284.556694 175.471678 
L 284.87405 175.183837 
L 285.191405 175.183837 
L 285.50876 174.758847 
L 285.826116 174.589254 
L 286.460826 174.589254 
L 287.095537 174.476976 
L 288.999669 174.459786 
L 289.63438 172.527289 
L 291.221157 172.527289 
L 291.538512 172.320127 
L 291.855868 172.320127 
L 292.173223 172.108927 
L 299.472397 172.108927 
L 299.789752 171.986226 
L 300.107107 171.986226 
L 300.741818 171.697005 
L 302.328595 171.697005 
L 302.64595 171.286804 
L 302.963306 171.115543 
L 303.598017 171.115543 
L 303.915372 170.850152 
L 304.232727 170.850152 
L 304.550083 169.855874 
L 304.867438 169.855874 
L 305.184793 169.709053 
L 308.993058 169.709053 
L 309.310413 168.90568 
L 335.968264 168.861616 
L 336.602975 168.582471 
L 336.920331 167.808413 
L 338.507107 167.808413 
L 338.824463 167.618344 
L 339.141818 167.618344 
L 339.459174 166.710657 
L 340.728595 166.602933 
L 341.04595 166.131424 
L 342.315372 165.887046 
L 342.632727 165.554767 
L 342.950083 164.978383 
L 361.991405 164.978341 
L 362.30876 163.964054 
L 362.626116 163.964054 
L 362.943471 163.045886 
L 364.530248 163.045886 
L 364.847603 162.627524 
L 365.482314 162.555379 
L 365.799669 162.448009 
L 366.117025 160.631184 
L 367.069091 160.590612 
L 367.386446 159.78558 
L 368.021157 159.78558 
L 368.655868 159.424277 
L 370.242645 159.424277 
L 370.56 158.837248 
L 372.146777 158.837248 
L 372.464132 158.703283 
L 372.781488 158.703283 
L 373.098843 158.136941 
L 380.398017 158.136941 
L 380.715372 157.186488 
L 381.032727 156.816972 
L 381.350083 156.816972 
L 381.667438 156.107621 
L 382.302149 156.107621 
L 382.619504 155.496979 
L 384.206281 155.496979 
L 384.840992 154.713876 
L 385.158347 153.333357 
L 385.475702 153.042748 
L 389.918678 153.012614 
L 390.236033 152.481867 
L 391.188099 152.466448 
L 391.505455 151.569681 
L 391.82281 149.664537 
L 392.140165 149.664537 
L 392.457521 149.279218 
L 392.774876 148.655538 
L 393.092231 148.655538 
L 393.409587 146.932647 
L 394.996364 146.932647 
L 395.313719 146.460107 
L 395.631074 146.460107 
L 395.94843 146.272741 
L 396.265785 143.218829 
L 396.58314 141.409789 
L 397.217851 141.409789 
L 397.535207 140.405503 
L 397.852562 135.57056 
L 398.169917 135.57056 
L 398.487273 129.914309 
L 398.487273 129.914309 
" clip-path="url(#p6043fbaefd)" style="fill: none; stroke: #ff7f0e; stroke-width: 1.5; stroke-linecap: square"/>
   </g>
   <g id="patch_3">
    <path d="M 57.6 307.584 
L 57.6 41.472 
" style="fill: none; stroke: #000000; stroke-width: 0.8; stroke-linejoin: miter; stroke-linecap: square"/>
   </g>
   <g id="patch_4">
    <path d="M 414.72 307.584 
L 414.72 41.472 
" style="fill: none; stroke: #000000; stroke-width: 0.8; stroke-linejoin: miter; stroke-linecap: square"/>
   </g>
   <g id="patch_5">
    <path d="M 57.6 307.584 
L 414.72 307.584 
" style="fill: none; stroke: #000000; stroke-width: 0.8; stroke-linejoin: miter; stroke-linecap: square"/>
   </g>
   <g id="patch_6">
    <path d="M 57.6 41.472 
L 414.72 41.472 
" style="fill: none; stroke: #000000; stroke-width: 0.8; stroke-linejoin: miter; stroke-linecap: square"/>
   </g>
   <g id="legend_1">
    <g id="patch_7">
     <path d="M 64.6 78.82825 
L 129.342187 78.82825 
Q 131.342187 78.82825 131.342187 76.82825 
L 131.342187 48.472 
Q 131.342187 46.472 129.342187 46.472 
L 64.6 46.472 
Q 62.6 46.472 62.6 48.472 
L 62.6 76.82825 
Q 62.6 78.82825 64.6 78.82825 
z
" style="fill: #ffffff; opacity: 0.8; stroke: #cccccc; stroke-linejoin: miter"/>
    </g>
    <g id="line2d_14">
     <path d="M 66.6 54.570437 
L 76.6 54.570437 
L 86.6 54.570437 
" style="fill: none; stroke: #1f77b4; stroke-width: 1.5; stroke-linecap: square"/>
    </g>
    <g id="text_14">
     <!-- qc -->
     <g transform="translate(94.6 58.070437) scale(0.1 -0.1)">
      <defs>
       <path id="DejaVuSans-71" d="M 947 1747 
Q 947 1113 1208 752 
Q 1469 391 1925 391 
Q 2381 391 2643 752 
Q 2906 1113 2906 1747 
Q 2906 2381 2643 2742 
Q 2381 3103 1925 3103 
Q 1469 3103 1208 2742 
Q 947 2381 947 1747 
z
M 2906 525 
Q 2725 213 2448 61 
Q 2172 -91 1784 -91 
Q 1150 -91 751 415 
Q 353 922 353 1747 
Q 353 2572 751 3078 
Q 1150 3584 1784 3584 
Q 2172 3584 2448 3432 
Q 2725 3281 2906 2969 
L 2906 3500 
L 3481 3500 
L 3481 -1331 
L 2906 -1331 
L 2906 525 
z
" transform="scale(0.015625)"/>
       <path id="DejaVuSans-63" d="M 3122 3366 
L 3122 2828 
Q 2878 2963 2633 3030 
Q 2388 3097 2138 3097 
Q 1578 3097 1268 2742 
Q 959 2388 959 1747 
Q 959 1106 1268 751 
Q 1578 397 2138 397 
Q 2388 397 2633 464 
Q 2878 531 3122 666 
L 3122 134 
Q 2881 22 2623 -34 
Q 2366 -91 2075 -91 
Q 1284 -91 818 406 
Q 353 903 353 1747 
Q 353 2603 823 3093 
Q 1294 3584 2113 3584 
Q 2378 3584 2631 3529 
Q 2884 3475 3122 3366 
z
" transform="scale(0.015625)"/>
      </defs>
      <use xlink:href="#DejaVuSans-71"/>
      <use xlink:href="#DejaVuSans-63" x="63.476562"/>
     </g>
    </g>
    <g id="line2d_15">
     <path d="M 66.6 69.248562 
L 76.6 69.248562 
L 86.6 69.248562 
" style="fill: none; stroke: #ff7f0e; stroke-width: 1.5; stroke-linecap: square"/>
    </g>
    <g id="text_15">
     <!-- Trotter -->
     <g transform="translate(94.6 72.748562) scale(0.1 -0.1)">
      <defs>
       <path id="DejaVuSans-54" d="M -19 4666 
L 3928 4666 
L 3928 4134 
L 2272 4134 
L 2272 0 
L 1638 0 
L 1638 4134 
L -19 4134 
L -19 4666 
z
" transform="scale(0.015625)"/>
       <path id="DejaVuSans-72" d="M 2631 2963 
Q 2534 3019 2420 3045 
Q 2306 3072 2169 3072 
Q 1681 3072 1420 2755 
Q 1159 2438 1159 1844 
L 1159 0 
L 581 0 
L 581 3500 
L 1159 3500 
L 1159 2956 
Q 1341 3275 1631 3429 
Q 1922 3584 2338 3584 
Q 2397 3584 2469 3576 
Q 2541 3569 2628 3553 
L 2631 2963 
z
" transform="scale(0.015625)"/>
       <path id="DejaVuSans-6f" d="M 1959 3097 
Q 1497 3097 1228 2736 
Q 959 2375 959 1747 
Q 959 1119 1226 758 
Q 1494 397 1959 397 
Q 2419 397 2687 759 
Q 2956 1122 2956 1747 
Q 2956 2369 2687 2733 
Q 2419 3097 1959 3097 
z
M 1959 3584 
Q 2709 3584 3137 3096 
Q 3566 2609 3566 1747 
Q 3566 888 3137 398 
Q 2709 -91 1959 -91 
Q 1206 -91 779 398 
Q 353 888 353 1747 
Q 353 2609 779 3096 
Q 1206 3584 1959 3584 
z
" transform="scale(0.015625)"/>
       <path id="DejaVuSans-65" d="M 3597 1894 
L 3597 1613 
L 953 1613 
Q 991 1019 1311 708 
Q 1631 397 2203 397 
Q 2534 397 2845 478 
Q 3156 559 3463 722 
L 3463 178 
Q 3153 47 2828 -22 
Q 2503 -91 2169 -91 
Q 1331 -91 842 396 
Q 353 884 353 1716 
Q 353 2575 817 3079 
Q 1281 3584 2069 3584 
Q 2775 3584 3186 3129 
Q 3597 2675 3597 1894 
z
M 3022 2063 
Q 3016 2534 2758 2815 
Q 2500 3097 2075 3097 
Q 1594 3097 1305 2825 
Q 1016 2553 972 2059 
L 3022 2063 
z
" transform="scale(0.015625)"/>
      </defs>
      <use xlink:href="#DejaVuSans-54"/>
      <use xlink:href="#DejaVuSans-72" x="46.333984"/>
      <use xlink:href="#DejaVuSans-6f" x="85.197266"/>
      <use xlink:href="#DejaVuSans-74" x="146.378906"/>
      <use xlink:href="#DejaVuSans-74" x="185.587891"/>
      <use xlink:href="#DejaVuSans-65" x="224.796875"/>
      <use xlink:href="#DejaVuSans-72" x="286.320312"/>
     </g>
    </g>
   </g>
  </g>
 </g>
 <defs>
  <clipPath id="p6043fbaefd">
   <rect x="57.6" y="41.472" width="357.12" height="266.112"/>
  </clipPath>
 </defs>
</svg>
