<?xml version="1.0" encoding="utf-8" standalone="no"?>
<!DOCTYPE svg PUBLIC "-//W3C//DTD SVG 1.1//EN"
  "http://www.w3.org/Graphics/SVG/1.1/DTD/svg11.dtd">
<svg xmlns:xlink="http://www.w3.org/1999/xlink" width="460.8pt" height="345.6pt" viewBox="0 0 460.8 345.6" xmlns="http://www.w3.org/2000/svg" version="1.1">
 <metadata>
  <rdf:RDF xmlns:dc="http://purl.org/dc/elements/1.1/" xmlns:cc="http://creativecommons.org/ns#" xmlns:rdf="http://www.w3.org/1999/02/22-rdf-syntax-ns#">
   <cc:Work>
    <dc:type rdf:resource="http://purl.org/dc/dcmitype/StillImage"/>
    <dc:date>2024-08-23T15:03:14.134332</dc:date>
    <dc:format>image/svg+xml</dc:format>
    <dc:creator>
     <cc:Agent>
      <dc:title>Matplotlib v3.7.1, https://matplotlib.org/</dc:title>
     </cc:Agent>
    </dc:creator>
   </cc:Work>
  </rdf:RDF>
 </metadata>
 <defs>
  <style type="text/css">*{stroke-linejoin: round; stroke-linecap: butt}</style>
 </defs>
 <g id="figure_1">
  <g id="patch_1">
   <path d="M 0 345.6 
L 460.8 345.6 
L 460.8 0 
L 0 0 
z
" style="fill: #ffffff"/>
  </g>
  <g id="axes_1">
   <g id="patch_2">
    <path d="M 57.6 307.584 
L 414.72 307.584 
L 414.72 41.472 
L 57.6 41.472 
z
" style="fill: #ffffff"/>
   </g>
   <g id="matplotlib.axis_1">
    <g id="xtick_1">
     <g id="line2d_1">
      <defs>
       <path id="m0a5c1f10ca" d="M 0 0 
L 0 3.5 
" style="stroke: #000000; stroke-width: 0.8"/>
      </defs>
      <g>
       <use xlink:href="#m0a5c1f10ca" x="73.832727" y="307.584" style="stroke: #000000; stroke-width: 0.8"/>
      </g>
     </g>
     <g id="text_1">
      <!-- 0 -->
      <g transform="translate(70.651477 322.182437) scale(0.1 -0.1)">
       <defs>
        <path id="DejaVuSans-30" d="M 2034 4250 
Q 1547 4250 1301 3770 
Q 1056 3291 1056 2328 
Q 1056 1369 1301 889 
Q 1547 409 2034 409 
Q 2525 409 2770 889 
Q 3016 1369 3016 2328 
Q 3016 3291 2770 3770 
Q 2525 4250 2034 4250 
z
M 2034 4750 
Q 2819 4750 3233 4129 
Q 3647 3509 3647 2328 
Q 3647 1150 3233 529 
Q 2819 -91 2034 -91 
Q 1250 -91 836 529 
Q 422 1150 422 2328 
Q 422 3509 836 4129 
Q 1250 4750 2034 4750 
z
" transform="scale(0.015625)"/>
       </defs>
       <use xlink:href="#DejaVuSans-30"/>
      </g>
     </g>
    </g>
    <g id="xtick_2">
     <g id="line2d_2">
      <g>
       <use xlink:href="#m0a5c1f10ca" x="137.303802" y="307.584" style="stroke: #000000; stroke-width: 0.8"/>
      </g>
     </g>
     <g id="text_2">
      <!-- 200 -->
      <g transform="translate(127.760052 322.182437) scale(0.1 -0.1)">
       <defs>
        <path id="DejaVuSans-32" d="M 1228 531 
L 3431 531 
L 3431 0 
L 469 0 
L 469 531 
Q 828 903 1448 1529 
Q 2069 2156 2228 2338 
Q 2531 2678 2651 2914 
Q 2772 3150 2772 3378 
Q 2772 3750 2511 3984 
Q 2250 4219 1831 4219 
Q 1534 4219 1204 4116 
Q 875 4013 500 3803 
L 500 4441 
Q 881 4594 1212 4672 
Q 1544 4750 1819 4750 
Q 2544 4750 2975 4387 
Q 3406 4025 3406 3419 
Q 3406 3131 3298 2873 
Q 3191 2616 2906 2266 
Q 2828 2175 2409 1742 
Q 1991 1309 1228 531 
z
" transform="scale(0.015625)"/>
       </defs>
       <use xlink:href="#DejaVuSans-32"/>
       <use xlink:href="#DejaVuSans-30" x="63.623047"/>
       <use xlink:href="#DejaVuSans-30" x="127.246094"/>
      </g>
     </g>
    </g>
    <g id="xtick_3">
     <g id="line2d_3">
      <g>
       <use xlink:href="#m0a5c1f10ca" x="200.774876" y="307.584" style="stroke: #000000; stroke-width: 0.8"/>
      </g>
     </g>
     <g id="text_3">
      <!-- 400 -->
      <g transform="translate(191.231126 322.182437) scale(0.1 -0.1)">
       <defs>
        <path id="DejaVuSans-34" d="M 2419 4116 
L 825 1625 
L 2419 1625 
L 2419 4116 
z
M 2253 4666 
L 3047 4666 
L 3047 1625 
L 3713 1625 
L 3713 1100 
L 3047 1100 
L 3047 0 
L 2419 0 
L 2419 1100 
L 313 1100 
L 313 1709 
L 2253 4666 
z
" transform="scale(0.015625)"/>
       </defs>
       <use xlink:href="#DejaVuSans-34"/>
       <use xlink:href="#DejaVuSans-30" x="63.623047"/>
       <use xlink:href="#DejaVuSans-30" x="127.246094"/>
      </g>
     </g>
    </g>
    <g id="xtick_4">
     <g id="line2d_4">
      <g>
       <use xlink:href="#m0a5c1f10ca" x="264.24595" y="307.584" style="stroke: #000000; stroke-width: 0.8"/>
      </g>
     </g>
     <g id="text_4">
      <!-- 600 -->
      <g transform="translate(254.7022 322.182437) scale(0.1 -0.1)">
       <defs>
        <path id="DejaVuSans-36" d="M 2113 2584 
Q 1688 2584 1439 2293 
Q 1191 2003 1191 1497 
Q 1191 994 1439 701 
Q 1688 409 2113 409 
Q 2538 409 2786 701 
Q 3034 994 3034 1497 
Q 3034 2003 2786 2293 
Q 2538 2584 2113 2584 
z
M 3366 4563 
L 3366 3988 
Q 3128 4100 2886 4159 
Q 2644 4219 2406 4219 
Q 1781 4219 1451 3797 
Q 1122 3375 1075 2522 
Q 1259 2794 1537 2939 
Q 1816 3084 2150 3084 
Q 2853 3084 3261 2657 
Q 3669 2231 3669 1497 
Q 3669 778 3244 343 
Q 2819 -91 2113 -91 
Q 1303 -91 875 529 
Q 447 1150 447 2328 
Q 447 3434 972 4092 
Q 1497 4750 2381 4750 
Q 2619 4750 2861 4703 
Q 3103 4656 3366 4563 
z
" transform="scale(0.015625)"/>
       </defs>
       <use xlink:href="#DejaVuSans-36"/>
       <use xlink:href="#DejaVuSans-30" x="63.623047"/>
       <use xlink:href="#DejaVuSans-30" x="127.246094"/>
      </g>
     </g>
    </g>
    <g id="xtick_5">
     <g id="line2d_5">
      <g>
       <use xlink:href="#m0a5c1f10ca" x="327.717025" y="307.584" style="stroke: #000000; stroke-width: 0.8"/>
      </g>
     </g>
     <g id="text_5">
      <!-- 800 -->
      <g transform="translate(318.173275 322.182437) scale(0.1 -0.1)">
       <defs>
        <path id="DejaVuSans-38" d="M 2034 2216 
Q 1584 2216 1326 1975 
Q 1069 1734 1069 1313 
Q 1069 891 1326 650 
Q 1584 409 2034 409 
Q 2484 409 2743 651 
Q 3003 894 3003 1313 
Q 3003 1734 2745 1975 
Q 2488 2216 2034 2216 
z
M 1403 2484 
Q 997 2584 770 2862 
Q 544 3141 544 3541 
Q 544 4100 942 4425 
Q 1341 4750 2034 4750 
Q 2731 4750 3128 4425 
Q 3525 4100 3525 3541 
Q 3525 3141 3298 2862 
Q 3072 2584 2669 2484 
Q 3125 2378 3379 2068 
Q 3634 1759 3634 1313 
Q 3634 634 3220 271 
Q 2806 -91 2034 -91 
Q 1263 -91 848 271 
Q 434 634 434 1313 
Q 434 1759 690 2068 
Q 947 2378 1403 2484 
z
M 1172 3481 
Q 1172 3119 1398 2916 
Q 1625 2713 2034 2713 
Q 2441 2713 2670 2916 
Q 2900 3119 2900 3481 
Q 2900 3844 2670 4047 
Q 2441 4250 2034 4250 
Q 1625 4250 1398 4047 
Q 1172 3844 1172 3481 
z
" transform="scale(0.015625)"/>
       </defs>
       <use xlink:href="#DejaVuSans-38"/>
       <use xlink:href="#DejaVuSans-30" x="63.623047"/>
       <use xlink:href="#DejaVuSans-30" x="127.246094"/>
      </g>
     </g>
    </g>
    <g id="xtick_6">
     <g id="line2d_6">
      <g>
       <use xlink:href="#m0a5c1f10ca" x="391.188099" y="307.584" style="stroke: #000000; stroke-width: 0.8"/>
      </g>
     </g>
     <g id="text_6">
      <!-- 1000 -->
      <g transform="translate(378.463099 322.182437) scale(0.1 -0.1)">
       <defs>
        <path id="DejaVuSans-31" d="M 794 531 
L 1825 531 
L 1825 4091 
L 703 3866 
L 703 4441 
L 1819 4666 
L 2450 4666 
L 2450 531 
L 3481 531 
L 3481 0 
L 794 0 
L 794 531 
z
" transform="scale(0.015625)"/>
       </defs>
       <use xlink:href="#DejaVuSans-31"/>
       <use xlink:href="#DejaVuSans-30" x="63.623047"/>
       <use xlink:href="#DejaVuSans-30" x="127.246094"/>
       <use xlink:href="#DejaVuSans-30" x="190.869141"/>
      </g>
     </g>
    </g>
    <g id="text_7">
     <!-- n -->
     <g transform="translate(232.99125 335.860562) scale(0.1 -0.1)">
      <defs>
       <path id="DejaVuSans-6e" d="M 3513 2113 
L 3513 0 
L 2938 0 
L 2938 2094 
Q 2938 2591 2744 2837 
Q 2550 3084 2163 3084 
Q 1697 3084 1428 2787 
Q 1159 2491 1159 1978 
L 1159 0 
L 581 0 
L 581 3500 
L 1159 3500 
L 1159 2956 
Q 1366 3272 1645 3428 
Q 1925 3584 2291 3584 
Q 2894 3584 3203 3211 
Q 3513 2838 3513 2113 
z
" transform="scale(0.015625)"/>
      </defs>
      <use xlink:href="#DejaVuSans-6e"/>
     </g>
    </g>
   </g>
   <g id="matplotlib.axis_2">
    <g id="ytick_1">
     <g id="line2d_7">
      <defs>
       <path id="m85d3170751" d="M 0 0 
L -3.5 0 
" style="stroke: #000000; stroke-width: 0.8"/>
      </defs>
      <g>
       <use xlink:href="#m85d3170751" x="57.6" y="290.396301" style="stroke: #000000; stroke-width: 0.8"/>
      </g>
     </g>
     <g id="text_8">
      <!-- −15 -->
      <g transform="translate(29.495313 294.19552) scale(0.1 -0.1)">
       <defs>
        <path id="DejaVuSans-2212" d="M 678 2272 
L 4684 2272 
L 4684 1741 
L 678 1741 
L 678 2272 
z
" transform="scale(0.015625)"/>
        <path id="DejaVuSans-35" d="M 691 4666 
L 3169 4666 
L 3169 4134 
L 1269 4134 
L 1269 2991 
Q 1406 3038 1543 3061 
Q 1681 3084 1819 3084 
Q 2600 3084 3056 2656 
Q 3513 2228 3513 1497 
Q 3513 744 3044 326 
Q 2575 -91 1722 -91 
Q 1428 -91 1123 -41 
Q 819 9 494 109 
L 494 744 
Q 775 591 1075 516 
Q 1375 441 1709 441 
Q 2250 441 2565 725 
Q 2881 1009 2881 1497 
Q 2881 1984 2565 2268 
Q 2250 2553 1709 2553 
Q 1456 2553 1204 2497 
Q 953 2441 691 2322 
L 691 4666 
z
" transform="scale(0.015625)"/>
       </defs>
       <use xlink:href="#DejaVuSans-2212"/>
       <use xlink:href="#DejaVuSans-31" x="83.789062"/>
       <use xlink:href="#DejaVuSans-35" x="147.412109"/>
      </g>
     </g>
    </g>
    <g id="ytick_2">
     <g id="line2d_8">
      <g>
       <use xlink:href="#m85d3170751" x="57.6" y="251.810908" style="stroke: #000000; stroke-width: 0.8"/>
      </g>
     </g>
     <g id="text_9">
      <!-- −10 -->
      <g transform="translate(29.495313 255.610127) scale(0.1 -0.1)">
       <use xlink:href="#DejaVuSans-2212"/>
       <use xlink:href="#DejaVuSans-31" x="83.789062"/>
       <use xlink:href="#DejaVuSans-30" x="147.412109"/>
      </g>
     </g>
    </g>
    <g id="ytick_3">
     <g id="line2d_9">
      <g>
       <use xlink:href="#m85d3170751" x="57.6" y="213.225515" style="stroke: #000000; stroke-width: 0.8"/>
      </g>
     </g>
     <g id="text_10">
      <!-- −5 -->
      <g transform="translate(35.857813 217.024733) scale(0.1 -0.1)">
       <use xlink:href="#DejaVuSans-2212"/>
       <use xlink:href="#DejaVuSans-35" x="83.789062"/>
      </g>
     </g>
    </g>
    <g id="ytick_4">
     <g id="line2d_10">
      <g>
       <use xlink:href="#m85d3170751" x="57.6" y="174.640121" style="stroke: #000000; stroke-width: 0.8"/>
      </g>
     </g>
     <g id="text_11">
      <!-- 0 -->
      <g transform="translate(44.2375 178.43934) scale(0.1 -0.1)">
       <use xlink:href="#DejaVuSans-30"/>
      </g>
     </g>
    </g>
    <g id="ytick_5">
     <g id="line2d_11">
      <g>
       <use xlink:href="#m85d3170751" x="57.6" y="136.054728" style="stroke: #000000; stroke-width: 0.8"/>
      </g>
     </g>
     <g id="text_12">
      <!-- 5 -->
      <g transform="translate(44.2375 139.853947) scale(0.1 -0.1)">
       <use xlink:href="#DejaVuSans-35"/>
      </g>
     </g>
    </g>
    <g id="ytick_6">
     <g id="line2d_12">
      <g>
       <use xlink:href="#m85d3170751" x="57.6" y="97.469335" style="stroke: #000000; stroke-width: 0.8"/>
      </g>
     </g>
     <g id="text_13">
      <!-- 10 -->
      <g transform="translate(37.875 101.268553) scale(0.1 -0.1)">
       <use xlink:href="#DejaVuSans-31"/>
       <use xlink:href="#DejaVuSans-30" x="63.623047"/>
      </g>
     </g>
    </g>
    <g id="ytick_7">
     <g id="line2d_13">
      <g>
       <use xlink:href="#m85d3170751" x="57.6" y="58.883941" style="stroke: #000000; stroke-width: 0.8"/>
      </g>
     </g>
     <g id="text_14">
      <!-- 15 -->
      <g transform="translate(37.875 62.68316) scale(0.1 -0.1)">
       <use xlink:href="#DejaVuSans-31"/>
       <use xlink:href="#DejaVuSans-35" x="63.623047"/>
      </g>
     </g>
    </g>
    <g id="text_15">
     <!-- E*t -->
     <g transform="translate(23.415625 182.147531) rotate(-90) scale(0.1 -0.1)">
      <defs>
       <path id="DejaVuSans-45" d="M 628 4666 
L 3578 4666 
L 3578 4134 
L 1259 4134 
L 1259 2753 
L 3481 2753 
L 3481 2222 
L 1259 2222 
L 1259 531 
L 3634 531 
L 3634 0 
L 628 0 
L 628 4666 
z
" transform="scale(0.015625)"/>
       <path id="DejaVuSans-2a" d="M 3009 3897 
L 1888 3291 
L 3009 2681 
L 2828 2375 
L 1778 3009 
L 1778 1831 
L 1422 1831 
L 1422 3009 
L 372 2375 
L 191 2681 
L 1313 3291 
L 191 3897 
L 372 4206 
L 1422 3572 
L 1422 4750 
L 1778 4750 
L 1778 3572 
L 2828 4206 
L 3009 3897 
z
" transform="scale(0.015625)"/>
       <path id="DejaVuSans-74" d="M 1172 4494 
L 1172 3500 
L 2356 3500 
L 2356 3053 
L 1172 3053 
L 1172 1153 
Q 1172 725 1289 603 
Q 1406 481 1766 481 
L 2356 481 
L 2356 0 
L 1766 0 
Q 1100 0 847 248 
Q 594 497 594 1153 
L 594 3053 
L 172 3053 
L 172 3500 
L 594 3500 
L 594 4494 
L 1172 4494 
z
" transform="scale(0.015625)"/>
      </defs>
      <use xlink:href="#DejaVuSans-45"/>
      <use xlink:href="#DejaVuSans-2a" x="63.183594"/>
      <use xlink:href="#DejaVuSans-74" x="113.183594"/>
     </g>
    </g>
   </g>
   <g id="line2d_14">
    <path d="M 73.832727 295.488 
L 74.784793 294.750722 
L 75.102149 294.385378 
L 75.73686 294.094248 
L 76.054215 293.90542 
L 76.688926 293.809526 
L 77.323636 293.590963 
L 77.640992 293.163357 
L 79.545124 292.004054 
L 79.862479 291.599002 
L 80.179835 291.467333 
L 80.49719 291.157045 
L 80.814545 291.156417 
L 81.131901 290.673336 
L 82.083967 290.013618 
L 82.401322 289.987458 
L 82.718678 289.741068 
L 83.036033 288.993494 
L 84.62281 288.154143 
L 85.257521 287.42296 
L 85.892231 287.357447 
L 87.479008 286.73401 
L 88.113719 286.579025 
L 88.74843 286.096344 
L 89.065785 286.088542 
L 89.38314 285.837851 
L 89.700496 285.82436 
L 90.017851 284.962221 
L 90.335207 284.724219 
L 90.652562 283.510706 
L 90.969917 283.329461 
L 91.604628 282.44426 
L 91.921983 282.419034 
L 92.239339 281.733063 
L 93.191405 281.145627 
L 93.50876 280.459759 
L 93.826116 280.373617 
L 94.143471 279.906963 
L 95.412893 279.711179 
L 95.730248 279.63087 
L 96.364959 279.101936 
L 96.682314 279.032484 
L 96.999669 278.786254 
L 97.317025 278.288691 
L 98.269091 278.045293 
L 98.586446 276.688816 
L 99.538512 276.254782 
L 100.173223 275.727081 
L 100.490579 275.694942 
L 100.807934 275.365907 
L 101.442645 275.101464 
L 101.76 274.787026 
L 102.077355 274.760812 
L 102.394711 274.560733 
L 103.664132 274.188001 
L 103.981488 273.780422 
L 104.298843 273.646083 
L 104.616198 272.765066 
L 105.250909 272.731947 
L 105.568264 272.276411 
L 105.88562 272.042591 
L 106.837686 271.927615 
L 107.155041 271.298498 
L 107.789752 270.939358 
L 109.376529 269.80515 
L 110.01124 269.70644 
L 110.328595 269.573914 
L 111.280661 268.256085 
L 111.915372 268.185311 
L 112.232727 267.988644 
L 112.550083 267.987802 
L 112.867438 267.54797 
L 113.184793 267.473255 
L 113.502149 266.934935 
L 113.819504 266.671017 
L 114.13686 266.199383 
L 114.454215 266.112085 
L 115.723636 264.602545 
L 116.675702 264.335444 
L 116.993058 263.673738 
L 117.310413 262.399921 
L 117.945124 261.932958 
L 118.262479 261.462003 
L 118.89719 261.397302 
L 119.531901 261.051197 
L 119.849256 260.829527 
L 120.166612 260.798753 
L 120.483967 260.648875 
L 120.801322 260.348196 
L 121.436033 260.228626 
L 122.070744 259.683874 
L 122.388099 259.662131 
L 122.705455 259.331129 
L 123.02281 259.243982 
L 123.340165 258.861547 
L 123.974876 258.735065 
L 124.292231 257.923028 
L 126.196364 257.411597 
L 127.14843 257.038689 
L 127.78314 255.859463 
L 128.100496 255.826114 
L 128.417851 255.191128 
L 128.735207 255.170109 
L 129.052562 254.429873 
L 130.004628 253.60333 
L 131.591405 252.830466 
L 131.90876 251.147252 
L 132.226116 250.488722 
L 132.860826 250.244897 
L 134.130248 249.2042 
L 134.447603 249.174768 
L 134.764959 248.764816 
L 135.082314 247.619114 
L 135.717025 247.467023 
L 136.03438 247.204402 
L 136.986446 246.005766 
L 138.255868 245.402532 
L 138.573223 244.096459 
L 138.890579 244.091064 
L 139.207934 243.82399 
L 139.842645 243.555546 
L 140.794711 243.049785 
L 141.746777 241.603047 
L 142.698843 240.919003 
L 143.016198 240.752576 
L 143.333554 240.260671 
L 143.650909 240.065627 
L 143.968264 239.199775 
L 144.28562 239.007921 
L 144.920331 238.980641 
L 145.555041 238.29414 
L 145.872397 237.778398 
L 146.189752 237.750907 
L 146.507107 237.226578 
L 146.824463 237.118879 
L 147.141818 235.860587 
L 147.776529 235.547565 
L 148.093884 235.400802 
L 148.728595 233.591948 
L 149.04595 232.163148 
L 149.680661 231.748855 
L 149.998017 230.93341 
L 150.315372 230.740176 
L 150.632727 230.249804 
L 150.950083 229.97733 
L 151.267438 229.511228 
L 151.902149 229.441956 
L 152.53686 229.090211 
L 152.854215 228.832638 
L 153.488926 228.75266 
L 154.123636 227.629801 
L 154.758347 227.542908 
L 155.075702 226.905808 
L 155.393058 226.635664 
L 156.027769 225.957842 
L 156.345124 225.913437 
L 156.979835 224.998998 
L 157.29719 224.806492 
L 157.931901 224.04285 
L 158.883967 223.534988 
L 159.518678 222.645074 
L 159.836033 222.570922 
L 160.470744 222.149467 
L 160.788099 221.972056 
L 161.105455 221.444201 
L 161.42281 221.381512 
L 161.740165 221.179053 
L 162.374876 220.436205 
L 163.644298 220.242873 
L 163.961653 219.907467 
L 164.279008 219.250724 
L 164.596364 219.082506 
L 164.913719 219.050464 
L 165.231074 217.863525 
L 165.54843 217.658794 
L 165.865785 216.466981 
L 166.18314 215.964114 
L 166.500496 215.181006 
L 167.452562 215.036506 
L 168.721983 213.93473 
L 169.356694 213.679351 
L 169.67405 213.40944 
L 169.991405 213.373272 
L 170.30876 212.755917 
L 170.626116 212.754295 
L 170.943471 212.137938 
L 171.260826 212.123223 
L 171.578182 211.965451 
L 171.895537 211.55208 
L 173.164959 211.101141 
L 173.482314 210.703509 
L 173.799669 210.68918 
L 174.117025 210.243346 
L 174.751736 210.157015 
L 175.069091 210.007796 
L 175.386446 209.38372 
L 175.703802 209.057043 
L 176.338512 208.970512 
L 176.973223 208.518099 
L 177.925289 207.552464 
L 178.877355 207.317046 
L 179.512066 206.401428 
L 179.829421 206.363502 
L 181.098843 205.142559 
L 181.416198 205.099589 
L 181.733554 204.825084 
L 182.050909 204.820238 
L 182.368264 204.132974 
L 182.68562 203.914788 
L 184.589752 203.667153 
L 184.907107 203.608534 
L 185.224463 203.142069 
L 185.859174 202.721495 
L 186.493884 202.607132 
L 188.080661 202.257906 
L 188.715372 201.418884 
L 189.350083 201.063695 
L 189.984793 200.967661 
L 190.302149 200.287268 
L 190.619504 200.06853 
L 191.254215 199.947225 
L 191.57157 199.703395 
L 191.888926 199.646767 
L 192.206281 199.090436 
L 192.523636 198.828609 
L 192.840992 198.210452 
L 193.158347 197.987231 
L 193.475702 197.951447 
L 193.793058 197.338471 
L 194.110413 196.975009 
L 194.427769 196.955125 
L 195.062479 196.282728 
L 195.379835 196.235097 
L 195.69719 195.890236 
L 196.331901 195.767632 
L 196.649256 195.093403 
L 196.966612 194.768841 
L 197.918678 194.515002 
L 198.236033 194.281682 
L 198.553388 194.248584 
L 198.870744 193.635999 
L 200.140165 193.081238 
L 200.774876 192.337845 
L 201.409587 192.17027 
L 202.044298 191.826318 
L 202.361653 191.566178 
L 202.679008 191.542937 
L 203.313719 191.225431 
L 203.94843 191.115893 
L 204.265785 190.795316 
L 204.900496 190.752036 
L 205.217851 190.442465 
L 205.852562 190.263964 
L 206.487273 190.030365 
L 206.804628 189.753549 
L 207.756694 189.605889 
L 208.07405 189.344507 
L 208.391405 189.310321 
L 208.70876 189.131911 
L 209.343471 188.546703 
L 210.295537 188.313821 
L 210.930248 187.834105 
L 211.882314 187.568545 
L 212.517025 187.193896 
L 213.151736 187.062323 
L 213.786446 186.745686 
L 214.421157 186.683755 
L 215.055868 186.447599 
L 216.007934 185.917273 
L 216.325289 185.849925 
L 216.96 185.459858 
L 218.229421 185.135164 
L 218.546777 185.026194 
L 218.864132 184.682071 
L 219.498843 184.539868 
L 219.816198 184.287174 
L 220.133554 184.23469 
L 220.450909 184.009836 
L 220.768264 183.558821 
L 221.402975 183.531827 
L 221.720331 183.140347 
L 222.355041 183.127269 
L 222.672397 182.9904 
L 222.989752 182.714129 
L 223.307107 182.644402 
L 223.624463 182.404011 
L 223.941818 182.335232 
L 224.576529 181.678798 
L 225.84595 181.029521 
L 226.163306 181.008795 
L 227.115372 180.211681 
L 227.432727 180.209547 
L 228.702149 179.771133 
L 229.33686 179.607795 
L 229.654215 179.449589 
L 230.288926 179.383175 
L 230.606281 179.284453 
L 230.923636 179.002215 
L 231.240992 178.327918 
L 231.875702 178.263464 
L 232.193058 177.984203 
L 232.827769 177.856697 
L 233.779835 177.559736 
L 234.09719 177.536845 
L 234.731901 177.003873 
L 235.049256 176.971519 
L 235.683967 176.565963 
L 236.001322 176.544734 
L 236.318678 176.302239 
L 238.540165 176.01432 
L 238.857521 175.760402 
L 239.492231 175.650436 
L 240.444298 175.542929 
L 241.079008 175.084201 
L 241.396364 175.031766 
L 242.34843 174.518391 
L 242.665785 174.501231 
L 242.98314 174.272427 
L 243.935207 174.102811 
L 244.252562 173.896991 
L 244.569917 173.867398 
L 244.887273 173.532666 
L 245.204628 173.49714 
L 246.791405 172.516087 
L 247.10876 172.15408 
L 247.743471 172.039974 
L 248.378182 171.789341 
L 248.695537 171.381944 
L 249.647603 171.08429 
L 251.23438 170.650923 
L 251.551736 170.611577 
L 252.186446 169.790244 
L 253.138512 169.495718 
L 253.455868 169.288221 
L 255.042645 168.912513 
L 255.677355 168.42807 
L 255.994711 168.38594 
L 256.946777 167.828347 
L 257.264132 167.53599 
L 257.898843 167.447665 
L 259.48562 166.090799 
L 259.802975 166.058459 
L 260.437686 165.842346 
L 261.072397 165.793313 
L 261.389752 165.561248 
L 261.707107 165.513639 
L 262.024463 165.168996 
L 262.341818 164.992759 
L 263.293884 164.851646 
L 264.24595 164.474908 
L 267.102149 163.817554 
L 267.419504 163.3146 
L 268.054215 163.190959 
L 268.688926 162.95805 
L 269.323636 162.877467 
L 269.640992 162.670508 
L 270.275702 162.58031 
L 270.910413 162.228999 
L 271.227769 162.124841 
L 271.545124 161.836797 
L 271.862479 161.829516 
L 272.179835 161.614383 
L 272.49719 161.605394 
L 272.814545 161.341177 
L 273.449256 161.165979 
L 275.036033 160.196165 
L 275.353388 159.990086 
L 275.670744 159.970366 
L 276.305455 159.644621 
L 276.62281 159.065189 
L 277.574876 158.947913 
L 277.892231 158.757832 
L 279.161653 158.559451 
L 279.479008 158.172835 
L 280.74843 157.740425 
L 281.065785 157.251857 
L 281.38314 157.242747 
L 281.700496 157.058082 
L 282.017851 157.041567 
L 282.652562 156.626753 
L 282.969917 156.600129 
L 283.287273 156.262128 
L 285.191405 155.811891 
L 285.826116 155.130725 
L 286.460826 155.00876 
L 286.778182 154.868892 
L 287.095537 154.857586 
L 288.047603 154.423884 
L 288.364959 154.407654 
L 289.317025 154.015963 
L 289.63438 153.556253 
L 290.586446 153.208437 
L 291.221157 152.412614 
L 292.173223 151.588224 
L 293.76 151.040762 
L 294.077355 150.599584 
L 294.394711 150.53557 
L 295.029421 150.034783 
L 295.981488 149.728856 
L 296.298843 149.412192 
L 296.616198 149.360815 
L 296.933554 149.111582 
L 297.568264 149.046314 
L 298.520331 148.68137 
L 299.472397 148.400973 
L 299.789752 147.883136 
L 300.424463 147.574705 
L 301.059174 147.50148 
L 301.376529 147.291664 
L 301.693884 147.256271 
L 302.963306 146.727985 
L 303.280661 146.262681 
L 304.232727 145.957467 
L 304.550083 145.872017 
L 304.867438 145.660423 
L 305.819504 145.414754 
L 307.406281 144.766129 
L 307.723636 144.618912 
L 308.040992 144.269752 
L 308.358347 144.247601 
L 308.675702 144.085039 
L 309.627769 142.967828 
L 311.849256 142.147745 
L 312.166612 141.685689 
L 313.118678 141.050624 
L 313.753388 140.792569 
L 314.070744 140.56025 
L 314.705455 140.547159 
L 315.974876 139.870876 
L 316.609587 139.816046 
L 317.244298 139.426637 
L 317.561653 139.400827 
L 319.14843 138.342478 
L 319.465785 138.22122 
L 320.100496 137.241845 
L 320.735207 137.077875 
L 322.321983 136.696296 
L 322.639339 136.15728 
L 322.956694 135.924774 
L 323.27405 135.526583 
L 323.591405 135.509028 
L 324.543471 134.979848 
L 325.178182 134.161864 
L 325.812893 134.015032 
L 326.130248 133.473302 
L 327.082314 132.555785 
L 328.03438 131.369886 
L 328.986446 131.088278 
L 329.303802 130.839376 
L 329.621157 130.78541 
L 329.938512 130.572356 
L 330.890579 130.268507 
L 331.525289 129.618228 
L 331.842645 129.536723 
L 332.477355 129.039398 
L 332.794711 128.987002 
L 333.746777 128.293663 
L 334.381488 128.03242 
L 334.698843 127.660411 
L 335.016198 127.529423 
L 335.333554 127.206976 
L 335.650909 127.196894 
L 336.28562 126.712379 
L 336.602975 126.667455 
L 336.920331 126.382338 
L 337.237686 125.619465 
L 339.776529 122.880374 
L 340.093884 121.820534 
L 341.04595 121.368736 
L 341.998017 119.517959 
L 342.632727 119.419568 
L 342.950083 117.990479 
L 343.584793 117.904253 
L 343.902149 117.68908 
L 344.219504 116.725833 
L 344.854215 116.036536 
L 345.17157 115.800024 
L 345.488926 115.754348 
L 346.123636 114.721874 
L 346.440992 114.451182 
L 346.758347 114.448498 
L 347.075702 114.202285 
L 347.393058 112.881803 
L 347.710413 112.745088 
L 348.027769 111.473598 
L 348.345124 111.158129 
L 348.662479 111.060598 
L 348.979835 110.670981 
L 349.29719 110.501249 
L 349.931901 109.191662 
L 350.249256 109.046575 
L 350.883967 107.496679 
L 351.201322 106.970456 
L 351.518678 106.673458 
L 352.153388 104.228767 
L 353.105455 103.034567 
L 353.42281 102.999918 
L 353.740165 102.641659 
L 354.057521 102.633502 
L 354.374876 101.78533 
L 354.692231 101.499154 
L 355.009587 101.41281 
L 355.326942 100.199976 
L 355.644298 99.906394 
L 356.279008 97.987489 
L 356.596364 97.852379 
L 356.913719 97.496139 
L 357.54843 97.319124 
L 357.865785 96.402134 
L 358.500496 96.277738 
L 358.817851 95.910331 
L 359.769917 95.606004 
L 360.087273 94.691903 
L 360.404628 94.668619 
L 361.356694 94.185877 
L 361.67405 93.081889 
L 361.991405 92.625732 
L 362.30876 91.900709 
L 362.943471 91.182635 
L 363.578182 90.443251 
L 364.847603 90.001604 
L 365.482314 87.95974 
L 365.799669 86.825408 
L 366.117025 84.794362 
L 366.751736 84.173742 
L 367.069091 82.980234 
L 367.386446 82.586022 
L 368.021157 80.175726 
L 368.338512 79.515766 
L 368.655868 79.134073 
L 368.973223 79.041378 
L 369.290579 78.137192 
L 369.607934 78.103964 
L 370.877355 77.503153 
L 371.194711 77.088435 
L 371.512066 76.999593 
L 371.829421 76.549405 
L 372.146777 76.51689 
L 372.464132 76.16325 
L 372.781488 75.501207 
L 373.416198 75.411925 
L 374.050909 74.626864 
L 374.368264 73.738496 
L 374.68562 73.506034 
L 375.637686 73.34358 
L 375.955041 73.079528 
L 376.272397 73.041487 
L 376.589752 71.922299 
L 377.541818 71.475452 
L 377.859174 70.787968 
L 378.81124 70.543491 
L 379.128595 70.197518 
L 380.398017 69.857184 
L 381.350083 68.957846 
L 381.667438 68.308946 
L 382.302149 67.999511 
L 382.619504 66.721822 
L 382.93686 66.412526 
L 383.254215 65.498076 
L 383.57157 65.342135 
L 384.206281 63.910899 
L 385.475702 63.594217 
L 386.427769 62.911538 
L 386.745124 62.336578 
L 388.014545 62.006518 
L 389.283967 61.114459 
L 389.918678 59.635989 
L 390.236033 59.240972 
L 390.870744 58.950119 
L 391.188099 58.555096 
L 391.505455 57.950386 
L 391.82281 57.669744 
L 392.774876 57.509461 
L 393.092231 57.417514 
L 393.409587 56.849062 
L 393.726942 56.793689 
L 394.361653 56.082287 
L 395.631074 55.909435 
L 395.94843 55.745669 
L 396.265785 55.331331 
L 396.900496 55.208125 
L 397.535207 54.323811 
L 398.487273 53.568 
L 398.487273 53.568 
" clip-path="url(#p9390a40bf9)" style="fill: none; stroke: #1f77b4; stroke-width: 1.5; stroke-linecap: square"/>
   </g>
   <g id="line2d_15">
    <path d="M 73.832727 214.092954 
L 74.150083 209.489233 
L 74.467438 209.489233 
L 74.784793 205.553989 
L 75.102149 204.736583 
L 75.73686 204.736583 
L 76.054215 203.264174 
L 76.37157 200.778543 
L 76.688926 200.626042 
L 77.006281 200.626042 
L 77.323636 200.241434 
L 78.910413 200.241434 
L 79.227769 198.839143 
L 79.545124 198.839143 
L 80.179835 198.0179 
L 80.49719 198.0179 
L 80.814545 196.46727 
L 81.131901 195.737377 
L 82.083967 195.724826 
L 82.401322 195.292843 
L 86.844298 195.268316 
L 87.161653 195.031784 
L 87.479008 193.908156 
L 88.431074 193.270774 
L 89.700496 193.270774 
L 90.017851 192.773763 
L 90.652562 192.773763 
L 90.969917 192.19641 
L 91.287273 192.19641 
L 91.604628 191.895654 
L 91.921983 191.122064 
L 99.221157 191.122064 
L 99.538512 190.661108 
L 101.76 190.552072 
L 102.077355 190.074279 
L 103.981488 189.966506 
L 104.298843 189.780208 
L 104.933554 189.780208 
L 105.250909 189.124978 
L 106.202975 189.091956 
L 106.520331 187.613211 
L 107.155041 187.4671 
L 107.472397 187.4671 
L 107.789752 187.126588 
L 109.376529 187.126588 
L 109.693884 186.379276 
L 110.01124 186.379276 
L 110.328595 185.55373 
L 129.369917 185.553696 
L 129.687273 185.084566 
L 130.321983 184.643346 
L 131.27405 184.615215 
L 131.591405 184.231446 
L 132.860826 184.143768 
L 133.178182 183.404985 
L 133.495537 183.404985 
L 133.812893 183.250285 
L 135.399669 183.250285 
L 135.717025 182.620266 
L 136.986446 182.3572 
L 163.009587 182.3572 
L 163.326942 181.703321 
L 167.135207 181.703321 
L 167.452562 181.583821 
L 167.769917 181.583821 
L 168.087273 180.774561 
L 168.404628 180.774561 
L 168.721983 180.558554 
L 169.356694 180.558554 
L 169.67405 180.419162 
L 169.991405 180.085292 
L 171.895537 179.984181 
L 172.212893 179.84989 
L 180.146777 179.750022 
L 180.464132 179.578123 
L 180.781488 179.578123 
L 181.098843 179.409509 
L 182.68562 179.409509 
L 183.320331 177.836617 
L 186.493884 177.731241 
L 186.81124 177.593206 
L 187.128595 177.247299 
L 187.44595 177.247299 
L 187.763306 177.013021 
L 188.080661 177.013021 
L 188.398017 176.034969 
L 188.715372 174.640121 
L 283.604628 174.640121 
L 284.239339 172.267222 
L 284.556694 172.267222 
L 284.87405 172.032943 
L 285.191405 172.032943 
L 285.50876 171.687037 
L 285.826116 171.549002 
L 288.999669 171.443625 
L 289.63438 169.870733 
L 291.221157 169.870733 
L 291.538512 169.70212 
L 291.855868 169.70212 
L 292.173223 169.530221 
L 300.107107 169.430352 
L 300.741818 169.19495 
L 302.328595 169.19495 
L 302.64595 168.861081 
L 302.963306 168.721688 
L 303.598017 168.721688 
L 303.915372 168.505682 
L 304.232727 168.505682 
L 304.550083 167.696421 
L 304.867438 167.696421 
L 305.184793 167.576922 
L 308.993058 167.576922 
L 309.310413 166.923043 
L 335.968264 166.887178 
L 336.602975 166.659977 
L 336.920331 166.029958 
L 338.507107 166.029958 
L 338.824463 165.875257 
L 339.141818 165.875257 
L 339.459174 165.136475 
L 340.728595 165.048797 
L 341.04595 164.665027 
L 342.315372 164.466123 
L 342.632727 164.195676 
L 342.950083 163.726547 
L 361.991405 163.726513 
L 362.30876 162.900967 
L 362.626116 162.900967 
L 362.943471 162.153654 
L 364.530248 162.153654 
L 364.847603 161.813142 
L 365.482314 161.754422 
L 365.799669 161.667032 
L 366.117025 160.188286 
L 367.069091 160.155264 
L 367.386446 159.500035 
L 368.021157 159.500035 
L 368.655868 159.205964 
L 370.242645 159.205964 
L 370.56 158.72817 
L 372.781488 158.619134 
L 373.098843 158.158178 
L 380.398017 158.158178 
L 380.715372 157.384588 
L 381.032727 157.083833 
L 381.350083 157.083833 
L 381.667438 156.50648 
L 382.302149 156.50648 
L 382.619504 156.009468 
L 384.206281 156.009468 
L 384.840992 155.372087 
L 385.158347 154.248458 
L 385.475702 154.011926 
L 389.918678 153.9874 
L 390.236033 153.555416 
L 391.188099 153.542866 
L 391.505455 152.812972 
L 391.82281 151.262342 
L 392.140165 151.262342 
L 392.457521 150.948724 
L 392.774876 150.4411 
L 393.092231 150.4411 
L 393.409587 149.038809 
L 394.996364 149.038809 
L 395.313719 148.654201 
L 395.631074 148.654201 
L 395.94843 148.5017 
L 396.265785 146.016069 
L 396.58314 144.543659 
L 397.217851 144.543659 
L 397.535207 143.726253 
L 397.852562 139.791009 
L 398.169917 139.791009 
L 398.487273 135.187288 
L 398.487273 135.187288 
" clip-path="url(#p9390a40bf9)" style="fill: none; stroke: #ff7f0e; stroke-width: 1.5; stroke-linecap: square"/>
   </g>
   <g id="patch_3">
    <path d="M 57.6 307.584 
L 57.6 41.472 
" style="fill: none; stroke: #000000; stroke-width: 0.8; stroke-linejoin: miter; stroke-linecap: square"/>
   </g>
   <g id="patch_4">
    <path d="M 414.72 307.584 
L 414.72 41.472 
" style="fill: none; stroke: #000000; stroke-width: 0.8; stroke-linejoin: miter; stroke-linecap: square"/>
   </g>
   <g id="patch_5">
    <path d="M 57.6 307.584 
L 414.72 307.584 
" style="fill: none; stroke: #000000; stroke-width: 0.8; stroke-linejoin: miter; stroke-linecap: square"/>
   </g>
   <g id="patch_6">
    <path d="M 57.6 41.472 
L 414.72 41.472 
" style="fill: none; stroke: #000000; stroke-width: 0.8; stroke-linejoin: miter; stroke-linecap: square"/>
   </g>
   <g id="legend_1">
    <g id="patch_7">
     <path d="M 64.6 78.82825 
L 129.342187 78.82825 
Q 131.342187 78.82825 131.342187 76.82825 
L 131.342187 48.472 
Q 131.342187 46.472 129.342187 46.472 
L 64.6 46.472 
Q 62.6 46.472 62.6 48.472 
L 62.6 76.82825 
Q 62.6 78.82825 64.6 78.82825 
z
" style="fill: #ffffff; opacity: 0.8; stroke: #cccccc; stroke-linejoin: miter"/>
    </g>
    <g id="line2d_16">
     <path d="M 66.6 54.570437 
L 76.6 54.570437 
L 86.6 54.570437 
" style="fill: none; stroke: #1f77b4; stroke-width: 1.5; stroke-linecap: square"/>
    </g>
    <g id="text_16">
     <!-- qc -->
     <g transform="translate(94.6 58.070437) scale(0.1 -0.1)">
      <defs>
       <path id="DejaVuSans-71" d="M 947 1747 
Q 947 1113 1208 752 
Q 1469 391 1925 391 
Q 2381 391 2643 752 
Q 2906 1113 2906 1747 
Q 2906 2381 2643 2742 
Q 2381 3103 1925 3103 
Q 1469 3103 1208 2742 
Q 947 2381 947 1747 
z
M 2906 525 
Q 2725 213 2448 61 
Q 2172 -91 1784 -91 
Q 1150 -91 751 415 
Q 353 922 353 1747 
Q 353 2572 751 3078 
Q 1150 3584 1784 3584 
Q 2172 3584 2448 3432 
Q 2725 3281 2906 2969 
L 2906 3500 
L 3481 3500 
L 3481 -1331 
L 2906 -1331 
L 2906 525 
z
" transform="scale(0.015625)"/>
       <path id="DejaVuSans-63" d="M 3122 3366 
L 3122 2828 
Q 2878 2963 2633 3030 
Q 2388 3097 2138 3097 
Q 1578 3097 1268 2742 
Q 959 2388 959 1747 
Q 959 1106 1268 751 
Q 1578 397 2138 397 
Q 2388 397 2633 464 
Q 2878 531 3122 666 
L 3122 134 
Q 2881 22 2623 -34 
Q 2366 -91 2075 -91 
Q 1284 -91 818 406 
Q 353 903 353 1747 
Q 353 2603 823 3093 
Q 1294 3584 2113 3584 
Q 2378 3584 2631 3529 
Q 2884 3475 3122 3366 
z
" transform="scale(0.015625)"/>
      </defs>
      <use xlink:href="#DejaVuSans-71"/>
      <use xlink:href="#DejaVuSans-63" x="63.476562"/>
     </g>
    </g>
    <g id="line2d_17">
     <path d="M 66.6 69.248562 
L 76.6 69.248562 
L 86.6 69.248562 
" style="fill: none; stroke: #ff7f0e; stroke-width: 1.5; stroke-linecap: square"/>
    </g>
    <g id="text_17">
     <!-- Trotter -->
     <g transform="translate(94.6 72.748562) scale(0.1 -0.1)">
      <defs>
       <path id="DejaVuSans-54" d="M -19 4666 
L 3928 4666 
L 3928 4134 
L 2272 4134 
L 2272 0 
L 1638 0 
L 1638 4134 
L -19 4134 
L -19 4666 
z
" transform="scale(0.015625)"/>
       <path id="DejaVuSans-72" d="M 2631 2963 
Q 2534 3019 2420 3045 
Q 2306 3072 2169 3072 
Q 1681 3072 1420 2755 
Q 1159 2438 1159 1844 
L 1159 0 
L 581 0 
L 581 3500 
L 1159 3500 
L 1159 2956 
Q 1341 3275 1631 3429 
Q 1922 3584 2338 3584 
Q 2397 3584 2469 3576 
Q 2541 3569 2628 3553 
L 2631 2963 
z
" transform="scale(0.015625)"/>
       <path id="DejaVuSans-6f" d="M 1959 3097 
Q 1497 3097 1228 2736 
Q 959 2375 959 1747 
Q 959 1119 1226 758 
Q 1494 397 1959 397 
Q 2419 397 2687 759 
Q 2956 1122 2956 1747 
Q 2956 2369 2687 2733 
Q 2419 3097 1959 3097 
z
M 1959 3584 
Q 2709 3584 3137 3096 
Q 3566 2609 3566 1747 
Q 3566 888 3137 398 
Q 2709 -91 1959 -91 
Q 1206 -91 779 398 
Q 353 888 353 1747 
Q 353 2609 779 3096 
Q 1206 3584 1959 3584 
z
" transform="scale(0.015625)"/>
       <path id="DejaVuSans-65" d="M 3597 1894 
L 3597 1613 
L 953 1613 
Q 991 1019 1311 708 
Q 1631 397 2203 397 
Q 2534 397 2845 478 
Q 3156 559 3463 722 
L 3463 178 
Q 3153 47 2828 -22 
Q 2503 -91 2169 -91 
Q 1331 -91 842 396 
Q 353 884 353 1716 
Q 353 2575 817 3079 
Q 1281 3584 2069 3584 
Q 2775 3584 3186 3129 
Q 3597 2675 3597 1894 
z
M 3022 2063 
Q 3016 2534 2758 2815 
Q 2500 3097 2075 3097 
Q 1594 3097 1305 2825 
Q 1016 2553 972 2059 
L 3022 2063 
z
" transform="scale(0.015625)"/>
      </defs>
      <use xlink:href="#DejaVuSans-54"/>
      <use xlink:href="#DejaVuSans-72" x="46.333984"/>
      <use xlink:href="#DejaVuSans-6f" x="85.197266"/>
      <use xlink:href="#DejaVuSans-74" x="146.378906"/>
      <use xlink:href="#DejaVuSans-74" x="185.587891"/>
      <use xlink:href="#DejaVuSans-65" x="224.796875"/>
      <use xlink:href="#DejaVuSans-72" x="286.320312"/>
     </g>
    </g>
   </g>
  </g>
 </g>
 <defs>
  <clipPath id="p9390a40bf9">
   <rect x="57.6" y="41.472" width="357.12" height="266.112"/>
  </clipPath>
 </defs>
</svg>
