<?xml version="1.0" encoding="utf-8" standalone="no"?>
<!DOCTYPE svg PUBLIC "-//W3C//DTD SVG 1.1//EN"
  "http://www.w3.org/Graphics/SVG/1.1/DTD/svg11.dtd">
<svg xmlns:xlink="http://www.w3.org/1999/xlink" width="460.8pt" height="345.6pt" viewBox="0 0 460.8 345.6" xmlns="http://www.w3.org/2000/svg" version="1.1">
 <metadata>
  <rdf:RDF xmlns:dc="http://purl.org/dc/elements/1.1/" xmlns:cc="http://creativecommons.org/ns#" xmlns:rdf="http://www.w3.org/1999/02/22-rdf-syntax-ns#">
   <cc:Work>
    <dc:type rdf:resource="http://purl.org/dc/dcmitype/StillImage"/>
    <dc:date>2024-07-12T15:23:51.041533</dc:date>
    <dc:format>image/svg+xml</dc:format>
    <dc:creator>
     <cc:Agent>
      <dc:title>Matplotlib v3.7.1, https://matplotlib.org/</dc:title>
     </cc:Agent>
    </dc:creator>
   </cc:Work>
  </rdf:RDF>
 </metadata>
 <defs>
  <style type="text/css">*{stroke-linejoin: round; stroke-linecap: butt}</style>
 </defs>
 <g id="figure_1">
  <g id="patch_1">
   <path d="M 0 345.6 
L 460.8 345.6 
L 460.8 0 
L 0 0 
z
" style="fill: #ffffff"/>
  </g>
  <g id="axes_1">
   <g id="patch_2">
    <path d="M 57.6 307.584 
L 414.72 307.584 
L 414.72 41.472 
L 57.6 41.472 
z
" style="fill: #ffffff"/>
   </g>
   <g id="matplotlib.axis_1">
    <g id="xtick_1">
     <g id="line2d_1">
      <defs>
       <path id="m7aae1caef6" d="M 0 0 
L 0 3.5 
" style="stroke: #000000; stroke-width: 0.8"/>
      </defs>
      <g>
       <use xlink:href="#m7aae1caef6" x="73.832727" y="307.584" style="stroke: #000000; stroke-width: 0.8"/>
      </g>
     </g>
     <g id="text_1">
      <!-- 0 -->
      <g transform="translate(70.651477 322.182437) scale(0.1 -0.1)">
       <defs>
        <path id="DejaVuSans-30" d="M 2034 4250 
Q 1547 4250 1301 3770 
Q 1056 3291 1056 2328 
Q 1056 1369 1301 889 
Q 1547 409 2034 409 
Q 2525 409 2770 889 
Q 3016 1369 3016 2328 
Q 3016 3291 2770 3770 
Q 2525 4250 2034 4250 
z
M 2034 4750 
Q 2819 4750 3233 4129 
Q 3647 3509 3647 2328 
Q 3647 1150 3233 529 
Q 2819 -91 2034 -91 
Q 1250 -91 836 529 
Q 422 1150 422 2328 
Q 422 3509 836 4129 
Q 1250 4750 2034 4750 
z
" transform="scale(0.015625)"/>
       </defs>
       <use xlink:href="#DejaVuSans-30"/>
      </g>
     </g>
    </g>
    <g id="xtick_2">
     <g id="line2d_2">
      <g>
       <use xlink:href="#m7aae1caef6" x="137.303802" y="307.584" style="stroke: #000000; stroke-width: 0.8"/>
      </g>
     </g>
     <g id="text_2">
      <!-- 200 -->
      <g transform="translate(127.760052 322.182437) scale(0.1 -0.1)">
       <defs>
        <path id="DejaVuSans-32" d="M 1228 531 
L 3431 531 
L 3431 0 
L 469 0 
L 469 531 
Q 828 903 1448 1529 
Q 2069 2156 2228 2338 
Q 2531 2678 2651 2914 
Q 2772 3150 2772 3378 
Q 2772 3750 2511 3984 
Q 2250 4219 1831 4219 
Q 1534 4219 1204 4116 
Q 875 4013 500 3803 
L 500 4441 
Q 881 4594 1212 4672 
Q 1544 4750 1819 4750 
Q 2544 4750 2975 4387 
Q 3406 4025 3406 3419 
Q 3406 3131 3298 2873 
Q 3191 2616 2906 2266 
Q 2828 2175 2409 1742 
Q 1991 1309 1228 531 
z
" transform="scale(0.015625)"/>
       </defs>
       <use xlink:href="#DejaVuSans-32"/>
       <use xlink:href="#DejaVuSans-30" x="63.623047"/>
       <use xlink:href="#DejaVuSans-30" x="127.246094"/>
      </g>
     </g>
    </g>
    <g id="xtick_3">
     <g id="line2d_3">
      <g>
       <use xlink:href="#m7aae1caef6" x="200.774876" y="307.584" style="stroke: #000000; stroke-width: 0.8"/>
      </g>
     </g>
     <g id="text_3">
      <!-- 400 -->
      <g transform="translate(191.231126 322.182437) scale(0.1 -0.1)">
       <defs>
        <path id="DejaVuSans-34" d="M 2419 4116 
L 825 1625 
L 2419 1625 
L 2419 4116 
z
M 2253 4666 
L 3047 4666 
L 3047 1625 
L 3713 1625 
L 3713 1100 
L 3047 1100 
L 3047 0 
L 2419 0 
L 2419 1100 
L 313 1100 
L 313 1709 
L 2253 4666 
z
" transform="scale(0.015625)"/>
       </defs>
       <use xlink:href="#DejaVuSans-34"/>
       <use xlink:href="#DejaVuSans-30" x="63.623047"/>
       <use xlink:href="#DejaVuSans-30" x="127.246094"/>
      </g>
     </g>
    </g>
    <g id="xtick_4">
     <g id="line2d_4">
      <g>
       <use xlink:href="#m7aae1caef6" x="264.24595" y="307.584" style="stroke: #000000; stroke-width: 0.8"/>
      </g>
     </g>
     <g id="text_4">
      <!-- 600 -->
      <g transform="translate(254.7022 322.182437) scale(0.1 -0.1)">
       <defs>
        <path id="DejaVuSans-36" d="M 2113 2584 
Q 1688 2584 1439 2293 
Q 1191 2003 1191 1497 
Q 1191 994 1439 701 
Q 1688 409 2113 409 
Q 2538 409 2786 701 
Q 3034 994 3034 1497 
Q 3034 2003 2786 2293 
Q 2538 2584 2113 2584 
z
M 3366 4563 
L 3366 3988 
Q 3128 4100 2886 4159 
Q 2644 4219 2406 4219 
Q 1781 4219 1451 3797 
Q 1122 3375 1075 2522 
Q 1259 2794 1537 2939 
Q 1816 3084 2150 3084 
Q 2853 3084 3261 2657 
Q 3669 2231 3669 1497 
Q 3669 778 3244 343 
Q 2819 -91 2113 -91 
Q 1303 -91 875 529 
Q 447 1150 447 2328 
Q 447 3434 972 4092 
Q 1497 4750 2381 4750 
Q 2619 4750 2861 4703 
Q 3103 4656 3366 4563 
z
" transform="scale(0.015625)"/>
       </defs>
       <use xlink:href="#DejaVuSans-36"/>
       <use xlink:href="#DejaVuSans-30" x="63.623047"/>
       <use xlink:href="#DejaVuSans-30" x="127.246094"/>
      </g>
     </g>
    </g>
    <g id="xtick_5">
     <g id="line2d_5">
      <g>
       <use xlink:href="#m7aae1caef6" x="327.717025" y="307.584" style="stroke: #000000; stroke-width: 0.8"/>
      </g>
     </g>
     <g id="text_5">
      <!-- 800 -->
      <g transform="translate(318.173275 322.182437) scale(0.1 -0.1)">
       <defs>
        <path id="DejaVuSans-38" d="M 2034 2216 
Q 1584 2216 1326 1975 
Q 1069 1734 1069 1313 
Q 1069 891 1326 650 
Q 1584 409 2034 409 
Q 2484 409 2743 651 
Q 3003 894 3003 1313 
Q 3003 1734 2745 1975 
Q 2488 2216 2034 2216 
z
M 1403 2484 
Q 997 2584 770 2862 
Q 544 3141 544 3541 
Q 544 4100 942 4425 
Q 1341 4750 2034 4750 
Q 2731 4750 3128 4425 
Q 3525 4100 3525 3541 
Q 3525 3141 3298 2862 
Q 3072 2584 2669 2484 
Q 3125 2378 3379 2068 
Q 3634 1759 3634 1313 
Q 3634 634 3220 271 
Q 2806 -91 2034 -91 
Q 1263 -91 848 271 
Q 434 634 434 1313 
Q 434 1759 690 2068 
Q 947 2378 1403 2484 
z
M 1172 3481 
Q 1172 3119 1398 2916 
Q 1625 2713 2034 2713 
Q 2441 2713 2670 2916 
Q 2900 3119 2900 3481 
Q 2900 3844 2670 4047 
Q 2441 4250 2034 4250 
Q 1625 4250 1398 4047 
Q 1172 3844 1172 3481 
z
" transform="scale(0.015625)"/>
       </defs>
       <use xlink:href="#DejaVuSans-38"/>
       <use xlink:href="#DejaVuSans-30" x="63.623047"/>
       <use xlink:href="#DejaVuSans-30" x="127.246094"/>
      </g>
     </g>
    </g>
    <g id="xtick_6">
     <g id="line2d_6">
      <g>
       <use xlink:href="#m7aae1caef6" x="391.188099" y="307.584" style="stroke: #000000; stroke-width: 0.8"/>
      </g>
     </g>
     <g id="text_6">
      <!-- 1000 -->
      <g transform="translate(378.463099 322.182437) scale(0.1 -0.1)">
       <defs>
        <path id="DejaVuSans-31" d="M 794 531 
L 1825 531 
L 1825 4091 
L 703 3866 
L 703 4441 
L 1819 4666 
L 2450 4666 
L 2450 531 
L 3481 531 
L 3481 0 
L 794 0 
L 794 531 
z
" transform="scale(0.015625)"/>
       </defs>
       <use xlink:href="#DejaVuSans-31"/>
       <use xlink:href="#DejaVuSans-30" x="63.623047"/>
       <use xlink:href="#DejaVuSans-30" x="127.246094"/>
       <use xlink:href="#DejaVuSans-30" x="190.869141"/>
      </g>
     </g>
    </g>
    <g id="text_7">
     <!-- n -->
     <g transform="translate(232.99125 335.860562) scale(0.1 -0.1)">
      <defs>
       <path id="DejaVuSans-6e" d="M 3513 2113 
L 3513 0 
L 2938 0 
L 2938 2094 
Q 2938 2591 2744 2837 
Q 2550 3084 2163 3084 
Q 1697 3084 1428 2787 
Q 1159 2491 1159 1978 
L 1159 0 
L 581 0 
L 581 3500 
L 1159 3500 
L 1159 2956 
Q 1366 3272 1645 3428 
Q 1925 3584 2291 3584 
Q 2894 3584 3203 3211 
Q 3513 2838 3513 2113 
z
" transform="scale(0.015625)"/>
      </defs>
      <use xlink:href="#DejaVuSans-6e"/>
     </g>
    </g>
   </g>
   <g id="matplotlib.axis_2">
    <g id="ytick_1">
     <g id="line2d_7">
      <defs>
       <path id="m0524d78ff0" d="M 0 0 
L -3.5 0 
" style="stroke: #000000; stroke-width: 0.8"/>
      </defs>
      <g>
       <use xlink:href="#m0524d78ff0" x="57.6" y="266.104712" style="stroke: #000000; stroke-width: 0.8"/>
      </g>
     </g>
     <g id="text_8">
      <!-- −0.2 -->
      <g transform="translate(26.317187 269.903931) scale(0.1 -0.1)">
       <defs>
        <path id="DejaVuSans-2212" d="M 678 2272 
L 4684 2272 
L 4684 1741 
L 678 1741 
L 678 2272 
z
" transform="scale(0.015625)"/>
        <path id="DejaVuSans-2e" d="M 684 794 
L 1344 794 
L 1344 0 
L 684 0 
L 684 794 
z
" transform="scale(0.015625)"/>
       </defs>
       <use xlink:href="#DejaVuSans-2212"/>
       <use xlink:href="#DejaVuSans-30" x="83.789062"/>
       <use xlink:href="#DejaVuSans-2e" x="147.412109"/>
       <use xlink:href="#DejaVuSans-32" x="179.199219"/>
      </g>
     </g>
    </g>
    <g id="ytick_2">
     <g id="line2d_8">
      <g>
       <use xlink:href="#m0524d78ff0" x="57.6" y="213.460569" style="stroke: #000000; stroke-width: 0.8"/>
      </g>
     </g>
     <g id="text_9">
      <!-- 0.0 -->
      <g transform="translate(34.696875 217.259788) scale(0.1 -0.1)">
       <use xlink:href="#DejaVuSans-30"/>
       <use xlink:href="#DejaVuSans-2e" x="63.623047"/>
       <use xlink:href="#DejaVuSans-30" x="95.410156"/>
      </g>
     </g>
    </g>
    <g id="ytick_3">
     <g id="line2d_9">
      <g>
       <use xlink:href="#m0524d78ff0" x="57.6" y="160.816427" style="stroke: #000000; stroke-width: 0.8"/>
      </g>
     </g>
     <g id="text_10">
      <!-- 0.2 -->
      <g transform="translate(34.696875 164.615645) scale(0.1 -0.1)">
       <use xlink:href="#DejaVuSans-30"/>
       <use xlink:href="#DejaVuSans-2e" x="63.623047"/>
       <use xlink:href="#DejaVuSans-32" x="95.410156"/>
      </g>
     </g>
    </g>
    <g id="ytick_4">
     <g id="line2d_10">
      <g>
       <use xlink:href="#m0524d78ff0" x="57.6" y="108.172284" style="stroke: #000000; stroke-width: 0.8"/>
      </g>
     </g>
     <g id="text_11">
      <!-- 0.4 -->
      <g transform="translate(34.696875 111.971503) scale(0.1 -0.1)">
       <use xlink:href="#DejaVuSans-30"/>
       <use xlink:href="#DejaVuSans-2e" x="63.623047"/>
       <use xlink:href="#DejaVuSans-34" x="95.410156"/>
      </g>
     </g>
    </g>
    <g id="ytick_5">
     <g id="line2d_11">
      <g>
       <use xlink:href="#m0524d78ff0" x="57.6" y="55.528141" style="stroke: #000000; stroke-width: 0.8"/>
      </g>
     </g>
     <g id="text_12">
      <!-- 0.6 -->
      <g transform="translate(34.696875 59.32736) scale(0.1 -0.1)">
       <use xlink:href="#DejaVuSans-30"/>
       <use xlink:href="#DejaVuSans-2e" x="63.623047"/>
       <use xlink:href="#DejaVuSans-36" x="95.410156"/>
      </g>
     </g>
    </g>
    <g id="text_13">
     <!-- E*t -->
     <g transform="translate(20.2375 182.147531) rotate(-90) scale(0.1 -0.1)">
      <defs>
       <path id="DejaVuSans-45" d="M 628 4666 
L 3578 4666 
L 3578 4134 
L 1259 4134 
L 1259 2753 
L 3481 2753 
L 3481 2222 
L 1259 2222 
L 1259 531 
L 3634 531 
L 3634 0 
L 628 0 
L 628 4666 
z
" transform="scale(0.015625)"/>
       <path id="DejaVuSans-2a" d="M 3009 3897 
L 1888 3291 
L 3009 2681 
L 2828 2375 
L 1778 3009 
L 1778 1831 
L 1422 1831 
L 1422 3009 
L 372 2375 
L 191 2681 
L 1313 3291 
L 191 3897 
L 372 4206 
L 1422 3572 
L 1422 4750 
L 1778 4750 
L 1778 3572 
L 2828 4206 
L 3009 3897 
z
" transform="scale(0.015625)"/>
       <path id="DejaVuSans-74" d="M 1172 4494 
L 1172 3500 
L 2356 3500 
L 2356 3053 
L 1172 3053 
L 1172 1153 
Q 1172 725 1289 603 
Q 1406 481 1766 481 
L 2356 481 
L 2356 0 
L 1766 0 
Q 1100 0 847 248 
Q 594 497 594 1153 
L 594 3053 
L 172 3053 
L 172 3500 
L 594 3500 
L 594 4494 
L 1172 4494 
z
" transform="scale(0.015625)"/>
      </defs>
      <use xlink:href="#DejaVuSans-45"/>
      <use xlink:href="#DejaVuSans-2a" x="63.183594"/>
      <use xlink:href="#DejaVuSans-74" x="113.183594"/>
     </g>
    </g>
   </g>
   <g id="line2d_12">
    <path d="M 73.832727 295.488 
L 74.150083 292.613407 
L 74.467438 291.011785 
L 75.102149 284.807656 
L 75.419504 284.387279 
L 75.73686 284.168318 
L 76.054215 283.494192 
L 76.37157 283.377251 
L 76.688926 282.816347 
L 77.006281 281.152143 
L 77.640992 280.304202 
L 77.958347 280.140383 
L 78.275702 279.13975 
L 78.593058 278.56761 
L 78.910413 276.781262 
L 79.227769 276.624105 
L 79.545124 275.972357 
L 79.862479 275.886532 
L 80.49719 274.689316 
L 80.814545 273.489609 
L 81.449256 273.343492 
L 82.401322 272.135136 
L 82.718678 272.050543 
L 83.036033 271.668911 
L 83.353388 271.468484 
L 83.670744 271.042253 
L 83.988099 270.940211 
L 84.305455 269.543136 
L 85.574876 268.862275 
L 85.892231 268.740442 
L 87.161653 267.716476 
L 88.113719 266.981062 
L 88.431074 266.203554 
L 88.74843 266.063555 
L 89.700496 265.097903 
L 90.335207 264.896991 
L 90.969917 264.104272 
L 91.287273 263.97575 
L 91.921983 263.27771 
L 92.87405 262.594018 
L 93.50876 262.335193 
L 93.826116 261.768527 
L 94.143471 261.634813 
L 94.460826 261.156832 
L 95.412893 260.82761 
L 97.317025 259.760988 
L 97.951736 259.547142 
L 98.903802 258.861061 
L 99.221157 258.47632 
L 99.538512 258.447107 
L 99.855868 258.071104 
L 100.807934 257.636191 
L 101.125289 257.198119 
L 101.442645 257.182597 
L 102.077355 256.627961 
L 102.394711 256.567779 
L 103.664132 255.734117 
L 103.981488 255.655356 
L 104.616198 255.339157 
L 105.88562 254.805374 
L 106.520331 254.342226 
L 107.472397 254.073455 
L 108.107107 253.617059 
L 108.741818 253.351478 
L 109.059174 253.25744 
L 109.693884 252.92811 
L 110.328595 252.788619 
L 110.64595 252.468209 
L 111.598017 252.094994 
L 111.915372 251.661744 
L 112.867438 251.516915 
L 113.819504 250.850111 
L 114.13686 250.771256 
L 114.77157 250.395389 
L 115.088926 250.290329 
L 115.723636 249.930448 
L 117.310413 249.022877 
L 117.627769 248.927637 
L 118.579835 248.303602 
L 120.483967 247.61311 
L 121.118678 247.260098 
L 122.070744 246.979521 
L 122.388099 246.672719 
L 123.02281 246.551695 
L 123.340165 246.191232 
L 123.657521 246.147054 
L 123.974876 245.943802 
L 124.926942 245.709134 
L 126.196364 245.102448 
L 127.14843 244.851772 
L 129.052562 243.84221 
L 129.687273 243.615288 
L 130.639339 243.111294 
L 132.226116 242.399976 
L 133.495537 241.829928 
L 135.399669 241.233684 
L 135.717025 241.0247 
L 136.03438 241.012672 
L 136.351736 240.754668 
L 136.986446 240.56075 
L 137.938512 240.197687 
L 138.890579 239.96519 
L 139.207934 239.616985 
L 141.112066 239.013356 
L 141.429421 238.817182 
L 142.064132 238.62196 
L 142.698843 238.414544 
L 143.016198 238.099923 
L 144.28562 237.855805 
L 145.555041 237.181899 
L 145.872397 237.157518 
L 148.41124 236.043832 
L 148.728595 235.996393 
L 149.363306 235.672352 
L 149.680661 235.452651 
L 149.998017 235.405768 
L 150.315372 235.092277 
L 150.950083 234.990456 
L 151.902149 234.55223 
L 152.219504 234.523471 
L 152.53686 234.326533 
L 152.854215 234.274436 
L 153.488926 233.953098 
L 154.123636 233.771344 
L 156.027769 233.141991 
L 157.614545 232.201421 
L 159.518678 231.642814 
L 160.153388 231.384373 
L 161.42281 230.791594 
L 162.374876 230.545577 
L 163.009587 230.218587 
L 166.500496 228.999852 
L 167.452562 228.747225 
L 169.039339 228.124032 
L 169.356694 228.10186 
L 169.991405 227.622294 
L 170.943471 227.26236 
L 172.212893 226.713478 
L 172.530248 226.696785 
L 173.482314 226.325838 
L 174.751736 225.95912 
L 176.973223 224.88616 
L 177.290579 224.765241 
L 177.925289 224.404379 
L 178.56 224.263242 
L 179.194711 223.989719 
L 180.146777 223.478397 
L 180.781488 223.279579 
L 181.098843 223.141421 
L 181.416198 222.842797 
L 182.68562 222.576534 
L 183.002975 222.197439 
L 185.224463 221.445733 
L 185.541818 221.120425 
L 186.176529 220.960061 
L 187.763306 220.57861 
L 188.080661 220.364986 
L 189.032727 220.138983 
L 189.667438 219.768151 
L 189.984793 219.740048 
L 190.93686 219.34652 
L 191.254215 219.293606 
L 191.888926 218.9712 
L 192.206281 218.943685 
L 192.840992 218.539395 
L 193.793058 218.178145 
L 194.110413 217.901781 
L 195.062479 217.54325 
L 195.69719 217.313248 
L 196.649256 217.058298 
L 196.966612 216.809927 
L 197.283967 216.708889 
L 197.918678 216.305063 
L 199.505455 215.933507 
L 199.82281 215.701434 
L 200.140165 215.613301 
L 200.457521 215.209119 
L 201.409587 214.969476 
L 202.044298 214.630765 
L 202.996364 214.328586 
L 204.265785 214.033975 
L 204.58314 213.596774 
L 206.804628 212.937383 
L 207.121983 212.610809 
L 208.391405 212.065051 
L 209.343471 211.62304 
L 209.978182 211.405681 
L 211.564959 210.635777 
L 211.882314 210.504142 
L 212.199669 210.20942 
L 212.83438 209.970788 
L 214.103802 209.138532 
L 214.421157 209.118832 
L 215.055868 208.840302 
L 215.690579 208.617174 
L 216.325289 208.484005 
L 219.498843 207.032021 
L 219.816198 206.942256 
L 220.133554 206.726613 
L 221.08562 206.456639 
L 221.402975 206.309966 
L 221.720331 206.305857 
L 222.355041 205.835175 
L 222.672397 205.786759 
L 222.989752 205.489136 
L 223.941818 205.14246 
L 224.259174 204.738819 
L 224.576529 204.648918 
L 225.528595 204.010805 
L 225.84595 203.825815 
L 226.163306 203.812989 
L 228.067438 202.954712 
L 228.384793 202.745659 
L 228.702149 202.696459 
L 229.33686 202.394804 
L 230.288926 202.084156 
L 230.606281 201.900071 
L 230.923636 201.855614 
L 231.240992 201.51534 
L 231.558347 201.502904 
L 232.193058 201.22215 
L 232.510413 201.192066 
L 232.827769 200.752015 
L 234.09719 200.319044 
L 235.049256 200.039989 
L 235.366612 200.024215 
L 236.001322 199.769671 
L 236.318678 199.714719 
L 238.22281 197.952737 
L 239.174876 197.740158 
L 239.809587 197.210943 
L 240.444298 196.945455 
L 240.761653 196.824301 
L 241.396364 196.349273 
L 243.300496 195.865328 
L 243.617851 195.478443 
L 244.252562 195.146387 
L 245.204628 194.816386 
L 246.47405 194.098584 
L 247.10876 193.825066 
L 247.743471 193.638929 
L 248.060826 193.400984 
L 248.378182 193.327955 
L 248.695537 192.971485 
L 249.012893 192.960206 
L 249.330248 192.660607 
L 249.647603 192.657816 
L 250.599669 192.282822 
L 250.917025 192.133939 
L 251.23438 191.551701 
L 251.869091 191.131062 
L 253.138512 190.848668 
L 254.407934 190.384014 
L 254.725289 190.359134 
L 255.677355 189.71887 
L 255.994711 189.584362 
L 256.312066 189.207399 
L 256.629421 189.159351 
L 256.946777 188.839612 
L 257.581488 188.76867 
L 257.898843 188.496139 
L 258.533554 188.467527 
L 259.168264 187.97593 
L 259.48562 187.903077 
L 259.802975 187.650752 
L 260.120331 187.618847 
L 261.389752 187.156834 
L 261.707107 187.107806 
L 262.341818 186.556375 
L 262.976529 186.381604 
L 263.293884 186.060357 
L 263.928595 185.863091 
L 264.563306 185.431599 
L 264.880661 185.205869 
L 265.515372 185.101394 
L 265.832727 184.851942 
L 266.150083 184.80899 
L 266.467438 184.5336 
L 266.784793 184.454113 
L 267.419504 184.057965 
L 267.73686 183.839786 
L 268.37157 183.731122 
L 268.688926 183.517155 
L 269.006281 183.495159 
L 269.323636 183.17783 
L 269.958347 183.065945 
L 270.593058 182.843482 
L 270.910413 182.370476 
L 272.49719 181.779086 
L 272.814545 181.405798 
L 273.766612 181.194945 
L 274.401322 180.380484 
L 275.353388 180.236395 
L 275.670744 180.090676 
L 276.305455 180.024075 
L 276.940165 179.733697 
L 277.257521 179.667691 
L 277.574876 179.175083 
L 277.892231 179.138062 
L 280.431074 177.733254 
L 281.065785 177.633116 
L 281.700496 177.398259 
L 282.335207 177.181419 
L 282.652562 176.858024 
L 283.287273 176.730376 
L 283.604628 176.698693 
L 283.921983 176.448086 
L 284.239339 176.431077 
L 284.556694 176.047189 
L 285.50876 175.596637 
L 285.826116 175.568138 
L 286.460826 174.928564 
L 287.095537 174.78424 
L 287.412893 174.558213 
L 288.682314 174.403029 
L 288.999669 173.791361 
L 289.63438 173.661731 
L 289.951736 173.59484 
L 290.269091 173.145084 
L 290.586446 172.968207 
L 291.221157 172.850555 
L 292.490579 172.109408 
L 293.125289 171.967704 
L 293.442645 171.749414 
L 293.76 171.717411 
L 294.712066 171.294075 
L 296.298843 170.908253 
L 296.616198 170.614437 
L 296.933554 170.586949 
L 297.568264 170.229608 
L 297.88562 170.20036 
L 298.520331 169.682505 
L 298.837686 169.57696 
L 299.155041 169.328643 
L 299.472397 169.232341 
L 299.789752 168.977565 
L 300.107107 168.917016 
L 300.424463 168.585931 
L 301.376529 168.155697 
L 301.693884 167.661713 
L 302.64595 167.43193 
L 302.963306 167.106747 
L 303.280661 167.05092 
L 304.232727 166.61212 
L 304.550083 166.453439 
L 305.819504 166.300532 
L 306.13686 165.934045 
L 306.454215 165.831794 
L 307.088926 165.275002 
L 307.406281 165.270579 
L 308.040992 164.784269 
L 308.358347 164.721122 
L 308.675702 164.264663 
L 309.945124 164.132812 
L 310.89719 163.786126 
L 311.214545 163.318594 
L 311.531901 163.226452 
L 311.849256 163.001447 
L 312.801322 162.69524 
L 313.118678 162.444028 
L 313.436033 162.421848 
L 314.388099 161.907932 
L 314.705455 161.510815 
L 315.340165 161.256583 
L 315.974876 160.861889 
L 316.609587 160.753854 
L 316.926942 160.487183 
L 317.561653 160.355313 
L 318.196364 159.66268 
L 318.513719 159.649664 
L 319.14843 159.312762 
L 319.465785 159.286196 
L 319.78314 158.961894 
L 320.735207 158.692587 
L 321.052562 158.327885 
L 321.369917 158.147918 
L 321.687273 158.116961 
L 322.956694 157.211218 
L 323.591405 157.119354 
L 324.226116 156.829413 
L 324.543471 156.816938 
L 324.860826 156.49345 
L 328.669091 154.936015 
L 329.621157 154.201138 
L 330.573223 154.103033 
L 331.207934 153.223933 
L 331.842645 152.935431 
L 332.794711 152.795821 
L 333.112066 152.725608 
L 333.746777 151.916108 
L 334.381488 151.155033 
L 335.333554 150.989283 
L 335.650909 150.925591 
L 336.28562 150.481632 
L 336.602975 150.394476 
L 336.920331 149.950031 
L 338.189752 149.256244 
L 338.507107 149.205727 
L 339.141818 148.441602 
L 339.459174 148.394863 
L 341.680661 146.929557 
L 342.315372 146.819959 
L 342.632727 146.487098 
L 343.267438 146.282109 
L 343.584793 145.812016 
L 344.219504 145.48363 
L 346.123636 144.30004 
L 346.440992 144.048793 
L 346.758347 143.987784 
L 347.075702 143.785082 
L 347.393058 143.733752 
L 347.710413 143.390052 
L 348.345124 143.198133 
L 348.662479 143.159417 
L 348.979835 142.774843 
L 349.29719 142.687923 
L 349.614545 142.271557 
L 349.931901 142.238255 
L 350.249256 141.74094 
L 351.201322 141.166768 
L 351.518678 140.849627 
L 352.153388 140.578409 
L 352.788099 140.110075 
L 353.105455 139.948477 
L 353.42281 139.17782 
L 353.740165 138.862969 
L 354.692231 138.342065 
L 355.009587 138.119405 
L 355.644298 138.018963 
L 356.596364 137.288239 
L 357.231074 136.60601 
L 357.54843 135.811562 
L 358.18314 135.573205 
L 358.500496 135.145296 
L 359.135207 134.627369 
L 359.452562 134.302364 
L 359.769917 133.553923 
L 360.404628 133.31924 
L 361.039339 132.85204 
L 361.991405 132.391791 
L 362.30876 131.931582 
L 362.626116 131.140275 
L 363.895537 130.303336 
L 364.212893 130.264169 
L 364.530248 129.490499 
L 364.847603 129.341225 
L 365.164959 129.338956 
L 365.799669 128.212889 
L 366.117025 128.118706 
L 366.43438 127.834068 
L 366.751736 127.725556 
L 367.069091 127.288549 
L 367.386446 127.204167 
L 367.703802 126.20776 
L 368.021157 125.977265 
L 368.338512 125.929783 
L 368.973223 125.136132 
L 369.925289 124.311443 
L 370.242645 123.339061 
L 370.877355 122.758056 
L 371.512066 121.803087 
L 371.829421 120.669083 
L 372.146777 120.349204 
L 372.464132 120.29883 
L 372.781488 119.892034 
L 373.098843 118.538548 
L 373.416198 118.129179 
L 373.733554 117.487847 
L 374.368264 117.374343 
L 374.68562 117.084176 
L 375.320331 115.904133 
L 375.637686 115.665414 
L 375.955041 115.1901 
L 376.272397 113.894053 
L 376.907107 113.16561 
L 377.224463 112.42183 
L 378.176529 111.930092 
L 378.81124 110.131642 
L 379.128595 109.591101 
L 379.44595 109.331613 
L 379.763306 108.697562 
L 380.080661 107.415845 
L 380.715372 107.245499 
L 381.350083 106.332624 
L 381.667438 105.386466 
L 381.984793 105.27501 
L 382.302149 104.92629 
L 382.619504 103.150987 
L 382.93686 102.221934 
L 383.254215 102.131928 
L 383.57157 101.51972 
L 383.888926 100.572796 
L 384.206281 100.098633 
L 384.523636 97.952151 
L 384.840992 97.301064 
L 385.793058 96.483787 
L 387.379835 93.822779 
L 387.69719 93.745449 
L 388.014545 92.290619 
L 388.331901 91.743409 
L 388.649256 91.492322 
L 388.966612 89.997164 
L 389.918678 89.373255 
L 390.236033 88.608195 
L 390.553388 86.304715 
L 390.870744 85.171996 
L 391.188099 84.664409 
L 391.505455 84.566579 
L 391.82281 82.100998 
L 392.140165 80.722833 
L 392.457521 80.432674 
L 392.774876 79.944599 
L 393.409587 77.919634 
L 393.726942 76.508724 
L 394.044298 76.337238 
L 394.361653 74.859719 
L 394.679008 74.731207 
L 394.996364 73.797623 
L 395.631074 73.693961 
L 395.94843 71.107312 
L 396.58314 68.543849 
L 397.217851 60.384941 
L 397.535207 59.790333 
L 398.487273 53.568 
L 398.487273 53.568 
" clip-path="url(#pfb229b20a5)" style="fill: none; stroke: #1f77b4; stroke-width: 1.5; stroke-linecap: square"/>
   </g>
   <g id="line2d_13">
    <path d="M 73.832727 267.288207 
L 74.150083 261.007101 
L 74.467438 261.007101 
L 74.784793 255.638034 
L 75.102149 254.522803 
L 75.73686 254.522803 
L 76.054215 252.513915 
L 76.37157 249.122634 
L 76.688926 248.914569 
L 77.006281 248.914569 
L 77.323636 248.389827 
L 78.910413 248.389827 
L 79.227769 246.476605 
L 79.545124 246.476605 
L 80.179835 245.35614 
L 80.49719 245.35614 
L 80.814545 243.240531 
L 81.131901 242.244698 
L 82.083967 242.227575 
L 82.401322 241.638196 
L 86.844298 241.604733 
L 87.161653 241.28202 
L 87.479008 239.748993 
L 87.796364 239.410096 
L 88.113719 238.879379 
L 89.700496 238.879379 
L 90.017851 238.201279 
L 90.652562 238.201279 
L 90.969917 237.413565 
L 91.287273 237.413565 
L 91.604628 237.003228 
L 91.921983 235.947777 
L 99.221157 235.947777 
L 99.538512 235.31887 
L 99.855868 235.31887 
L 100.173223 235.170106 
L 101.76 235.170106 
L 102.077355 234.518226 
L 103.664132 234.518226 
L 104.616198 234.117009 
L 104.933554 234.117009 
L 105.250909 233.223044 
L 106.202975 233.177991 
L 106.520331 231.160458 
L 107.155041 230.961112 
L 107.472397 230.961112 
L 107.789752 230.496532 
L 109.376529 230.496532 
L 109.693884 229.476934 
L 110.01124 229.476934 
L 110.328595 228.350597 
L 129.369917 228.35055 
L 129.687273 227.710492 
L 130.321983 227.10851 
L 131.27405 227.070131 
L 131.591405 226.546533 
L 131.90876 226.546533 
L 132.226116 226.426909 
L 132.860826 226.426909 
L 133.178182 225.418948 
L 133.495537 225.418948 
L 133.812893 225.207882 
L 135.399669 225.207882 
L 135.717025 224.348313 
L 136.986446 223.989398 
L 163.009587 223.989398 
L 163.326942 223.097275 
L 167.135207 223.097275 
L 167.452562 222.934235 
L 167.769917 222.934235 
L 168.087273 221.830118 
L 168.404628 221.830118 
L 168.721983 221.535408 
L 169.356694 221.535408 
L 169.67405 221.345227 
L 169.991405 220.889711 
L 171.578182 220.889711 
L 172.847603 220.432283 
L 180.146777 220.432283 
L 180.464132 220.197752 
L 180.781488 220.197752 
L 181.098843 219.967704 
L 182.68562 219.967704 
L 183.320331 217.821722 
L 185.541818 217.802632 
L 185.859174 217.677951 
L 186.493884 217.677951 
L 186.81124 217.489622 
L 187.128595 217.017684 
L 187.44595 217.017684 
L 187.763306 216.698045 
L 188.080661 216.698045 
L 188.398017 215.363636 
L 188.715372 213.460569 
L 283.604628 213.460569 
L 284.239339 210.223094 
L 284.556694 210.223094 
L 284.87405 209.903455 
L 285.191405 209.903455 
L 285.50876 209.431516 
L 285.826116 209.243188 
L 286.460826 209.243188 
L 286.778182 209.118506 
L 288.999669 209.099417 
L 289.63438 206.953435 
L 291.221157 206.953435 
L 291.538512 206.723386 
L 291.855868 206.723386 
L 292.173223 206.488855 
L 299.472397 206.488855 
L 299.789752 206.352599 
L 300.107107 206.352599 
L 300.741818 206.031428 
L 302.328595 206.031428 
L 302.64595 205.575911 
L 302.963306 205.38573 
L 303.598017 205.38573 
L 303.915372 205.091021 
L 304.232727 205.091021 
L 304.550083 203.986903 
L 304.867438 203.986903 
L 305.184793 203.823863 
L 308.993058 203.823863 
L 309.310413 202.931741 
L 335.968264 202.882809 
L 336.602975 202.572826 
L 336.920331 201.713256 
L 338.507107 201.713256 
L 338.824463 201.50219 
L 339.141818 201.50219 
L 339.459174 200.49423 
L 340.093884 200.49423 
L 340.41124 200.374605 
L 340.728595 200.374605 
L 341.04595 199.851008 
L 341.998017 199.812628 
L 342.632727 199.210647 
L 342.950083 198.570588 
L 361.991405 198.570542 
L 362.30876 197.444205 
L 362.626116 197.444205 
L 362.943471 196.424606 
L 364.530248 196.424606 
L 364.847603 195.960026 
L 365.482314 195.879912 
L 365.799669 195.76068 
L 366.117025 193.743148 
L 367.069091 193.698094 
L 367.386446 192.804129 
L 368.021157 192.804129 
L 368.655868 192.402912 
L 370.242645 192.402912 
L 370.56 191.751032 
L 372.146777 191.751032 
L 372.464132 191.602269 
L 372.781488 191.602269 
L 373.098843 190.973362 
L 380.398017 190.973362 
L 380.715372 189.917911 
L 381.032727 189.507574 
L 381.350083 189.507574 
L 381.667438 188.719859 
L 382.302149 188.719859 
L 382.619504 188.04176 
L 384.206281 188.04176 
L 384.840992 187.172146 
L 385.158347 185.639118 
L 385.475702 185.316405 
L 389.918678 185.282942 
L 390.236033 184.693563 
L 391.188099 184.676441 
L 391.505455 183.680607 
L 391.82281 181.564999 
L 392.140165 181.564999 
L 392.457521 181.137113 
L 392.774876 180.444533 
L 393.092231 180.444533 
L 393.409587 178.531312 
L 394.996364 178.531312 
L 395.313719 178.00657 
L 395.631074 178.00657 
L 395.94843 177.798505 
L 396.265785 174.407223 
L 396.58314 172.398335 
L 397.217851 172.398335 
L 397.535207 171.283104 
L 397.852562 165.914038 
L 398.169917 165.914038 
L 398.487273 159.632932 
L 398.487273 159.632932 
" clip-path="url(#pfb229b20a5)" style="fill: none; stroke: #ff7f0e; stroke-width: 1.5; stroke-linecap: square"/>
   </g>
   <g id="patch_3">
    <path d="M 57.6 307.584 
L 57.6 41.472 
" style="fill: none; stroke: #000000; stroke-width: 0.8; stroke-linejoin: miter; stroke-linecap: square"/>
   </g>
   <g id="patch_4">
    <path d="M 414.72 307.584 
L 414.72 41.472 
" style="fill: none; stroke: #000000; stroke-width: 0.8; stroke-linejoin: miter; stroke-linecap: square"/>
   </g>
   <g id="patch_5">
    <path d="M 57.6 307.584 
L 414.72 307.584 
" style="fill: none; stroke: #000000; stroke-width: 0.8; stroke-linejoin: miter; stroke-linecap: square"/>
   </g>
   <g id="patch_6">
    <path d="M 57.6 41.472 
L 414.72 41.472 
" style="fill: none; stroke: #000000; stroke-width: 0.8; stroke-linejoin: miter; stroke-linecap: square"/>
   </g>
   <g id="legend_1">
    <g id="patch_7">
     <path d="M 64.6 78.82825 
L 129.342187 78.82825 
Q 131.342187 78.82825 131.342187 76.82825 
L 131.342187 48.472 
Q 131.342187 46.472 129.342187 46.472 
L 64.6 46.472 
Q 62.6 46.472 62.6 48.472 
L 62.6 76.82825 
Q 62.6 78.82825 64.6 78.82825 
z
" style="fill: #ffffff; opacity: 0.8; stroke: #cccccc; stroke-linejoin: miter"/>
    </g>
    <g id="line2d_14">
     <path d="M 66.6 54.570437 
L 76.6 54.570437 
L 86.6 54.570437 
" style="fill: none; stroke: #1f77b4; stroke-width: 1.5; stroke-linecap: square"/>
    </g>
    <g id="text_14">
     <!-- qc -->
     <g transform="translate(94.6 58.070437) scale(0.1 -0.1)">
      <defs>
       <path id="DejaVuSans-71" d="M 947 1747 
Q 947 1113 1208 752 
Q 1469 391 1925 391 
Q 2381 391 2643 752 
Q 2906 1113 2906 1747 
Q 2906 2381 2643 2742 
Q 2381 3103 1925 3103 
Q 1469 3103 1208 2742 
Q 947 2381 947 1747 
z
M 2906 525 
Q 2725 213 2448 61 
Q 2172 -91 1784 -91 
Q 1150 -91 751 415 
Q 353 922 353 1747 
Q 353 2572 751 3078 
Q 1150 3584 1784 3584 
Q 2172 3584 2448 3432 
Q 2725 3281 2906 2969 
L 2906 3500 
L 3481 3500 
L 3481 -1331 
L 2906 -1331 
L 2906 525 
z
" transform="scale(0.015625)"/>
       <path id="DejaVuSans-63" d="M 3122 3366 
L 3122 2828 
Q 2878 2963 2633 3030 
Q 2388 3097 2138 3097 
Q 1578 3097 1268 2742 
Q 959 2388 959 1747 
Q 959 1106 1268 751 
Q 1578 397 2138 397 
Q 2388 397 2633 464 
Q 2878 531 3122 666 
L 3122 134 
Q 2881 22 2623 -34 
Q 2366 -91 2075 -91 
Q 1284 -91 818 406 
Q 353 903 353 1747 
Q 353 2603 823 3093 
Q 1294 3584 2113 3584 
Q 2378 3584 2631 3529 
Q 2884 3475 3122 3366 
z
" transform="scale(0.015625)"/>
      </defs>
      <use xlink:href="#DejaVuSans-71"/>
      <use xlink:href="#DejaVuSans-63" x="63.476562"/>
     </g>
    </g>
    <g id="line2d_15">
     <path d="M 66.6 69.248562 
L 76.6 69.248562 
L 86.6 69.248562 
" style="fill: none; stroke: #ff7f0e; stroke-width: 1.5; stroke-linecap: square"/>
    </g>
    <g id="text_15">
     <!-- Trotter -->
     <g transform="translate(94.6 72.748562) scale(0.1 -0.1)">
      <defs>
       <path id="DejaVuSans-54" d="M -19 4666 
L 3928 4666 
L 3928 4134 
L 2272 4134 
L 2272 0 
L 1638 0 
L 1638 4134 
L -19 4134 
L -19 4666 
z
" transform="scale(0.015625)"/>
       <path id="DejaVuSans-72" d="M 2631 2963 
Q 2534 3019 2420 3045 
Q 2306 3072 2169 3072 
Q 1681 3072 1420 2755 
Q 1159 2438 1159 1844 
L 1159 0 
L 581 0 
L 581 3500 
L 1159 3500 
L 1159 2956 
Q 1341 3275 1631 3429 
Q 1922 3584 2338 3584 
Q 2397 3584 2469 3576 
Q 2541 3569 2628 3553 
L 2631 2963 
z
" transform="scale(0.015625)"/>
       <path id="DejaVuSans-6f" d="M 1959 3097 
Q 1497 3097 1228 2736 
Q 959 2375 959 1747 
Q 959 1119 1226 758 
Q 1494 397 1959 397 
Q 2419 397 2687 759 
Q 2956 1122 2956 1747 
Q 2956 2369 2687 2733 
Q 2419 3097 1959 3097 
z
M 1959 3584 
Q 2709 3584 3137 3096 
Q 3566 2609 3566 1747 
Q 3566 888 3137 398 
Q 2709 -91 1959 -91 
Q 1206 -91 779 398 
Q 353 888 353 1747 
Q 353 2609 779 3096 
Q 1206 3584 1959 3584 
z
" transform="scale(0.015625)"/>
       <path id="DejaVuSans-65" d="M 3597 1894 
L 3597 1613 
L 953 1613 
Q 991 1019 1311 708 
Q 1631 397 2203 397 
Q 2534 397 2845 478 
Q 3156 559 3463 722 
L 3463 178 
Q 3153 47 2828 -22 
Q 2503 -91 2169 -91 
Q 1331 -91 842 396 
Q 353 884 353 1716 
Q 353 2575 817 3079 
Q 1281 3584 2069 3584 
Q 2775 3584 3186 3129 
Q 3597 2675 3597 1894 
z
M 3022 2063 
Q 3016 2534 2758 2815 
Q 2500 3097 2075 3097 
Q 1594 3097 1305 2825 
Q 1016 2553 972 2059 
L 3022 2063 
z
" transform="scale(0.015625)"/>
      </defs>
      <use xlink:href="#DejaVuSans-54"/>
      <use xlink:href="#DejaVuSans-72" x="46.333984"/>
      <use xlink:href="#DejaVuSans-6f" x="85.197266"/>
      <use xlink:href="#DejaVuSans-74" x="146.378906"/>
      <use xlink:href="#DejaVuSans-74" x="185.587891"/>
      <use xlink:href="#DejaVuSans-65" x="224.796875"/>
      <use xlink:href="#DejaVuSans-72" x="286.320312"/>
     </g>
    </g>
   </g>
  </g>
 </g>
 <defs>
  <clipPath id="pfb229b20a5">
   <rect x="57.6" y="41.472" width="357.12" height="266.112"/>
  </clipPath>
 </defs>
</svg>
