<?xml version="1.0" encoding="utf-8" standalone="no"?>
<!DOCTYPE svg PUBLIC "-//W3C//DTD SVG 1.1//EN"
  "http://www.w3.org/Graphics/SVG/1.1/DTD/svg11.dtd">
<svg xmlns:xlink="http://www.w3.org/1999/xlink" width="460.8pt" height="345.6pt" viewBox="0 0 460.8 345.6" xmlns="http://www.w3.org/2000/svg" version="1.1">
 <metadata>
  <rdf:RDF xmlns:dc="http://purl.org/dc/elements/1.1/" xmlns:cc="http://creativecommons.org/ns#" xmlns:rdf="http://www.w3.org/1999/02/22-rdf-syntax-ns#">
   <cc:Work>
    <dc:type rdf:resource="http://purl.org/dc/dcmitype/StillImage"/>
    <dc:date>2024-08-23T11:43:18.706924</dc:date>
    <dc:format>image/svg+xml</dc:format>
    <dc:creator>
     <cc:Agent>
      <dc:title>Matplotlib v3.7.1, https://matplotlib.org/</dc:title>
     </cc:Agent>
    </dc:creator>
   </cc:Work>
  </rdf:RDF>
 </metadata>
 <defs>
  <style type="text/css">*{stroke-linejoin: round; stroke-linecap: butt}</style>
 </defs>
 <g id="figure_1">
  <g id="patch_1">
   <path d="M 0 345.6 
L 460.8 345.6 
L 460.8 0 
L 0 0 
z
" style="fill: #ffffff"/>
  </g>
  <g id="axes_1">
   <g id="patch_2">
    <path d="M 57.6 307.584 
L 414.72 307.584 
L 414.72 41.472 
L 57.6 41.472 
z
" style="fill: #ffffff"/>
   </g>
   <g id="matplotlib.axis_1">
    <g id="xtick_1">
     <g id="line2d_1">
      <defs>
       <path id="m061bfa94ed" d="M 0 0 
L 0 3.5 
" style="stroke: #000000; stroke-width: 0.8"/>
      </defs>
      <g>
       <use xlink:href="#m061bfa94ed" x="73.832727" y="307.584" style="stroke: #000000; stroke-width: 0.8"/>
      </g>
     </g>
     <g id="text_1">
      <!-- 0 -->
      <g transform="translate(70.651477 322.182437) scale(0.1 -0.1)">
       <defs>
        <path id="DejaVuSans-30" d="M 2034 4250 
Q 1547 4250 1301 3770 
Q 1056 3291 1056 2328 
Q 1056 1369 1301 889 
Q 1547 409 2034 409 
Q 2525 409 2770 889 
Q 3016 1369 3016 2328 
Q 3016 3291 2770 3770 
Q 2525 4250 2034 4250 
z
M 2034 4750 
Q 2819 4750 3233 4129 
Q 3647 3509 3647 2328 
Q 3647 1150 3233 529 
Q 2819 -91 2034 -91 
Q 1250 -91 836 529 
Q 422 1150 422 2328 
Q 422 3509 836 4129 
Q 1250 4750 2034 4750 
z
" transform="scale(0.015625)"/>
       </defs>
       <use xlink:href="#DejaVuSans-30"/>
      </g>
     </g>
    </g>
    <g id="xtick_2">
     <g id="line2d_2">
      <g>
       <use xlink:href="#m061bfa94ed" x="137.303802" y="307.584" style="stroke: #000000; stroke-width: 0.8"/>
      </g>
     </g>
     <g id="text_2">
      <!-- 200 -->
      <g transform="translate(127.760052 322.182437) scale(0.1 -0.1)">
       <defs>
        <path id="DejaVuSans-32" d="M 1228 531 
L 3431 531 
L 3431 0 
L 469 0 
L 469 531 
Q 828 903 1448 1529 
Q 2069 2156 2228 2338 
Q 2531 2678 2651 2914 
Q 2772 3150 2772 3378 
Q 2772 3750 2511 3984 
Q 2250 4219 1831 4219 
Q 1534 4219 1204 4116 
Q 875 4013 500 3803 
L 500 4441 
Q 881 4594 1212 4672 
Q 1544 4750 1819 4750 
Q 2544 4750 2975 4387 
Q 3406 4025 3406 3419 
Q 3406 3131 3298 2873 
Q 3191 2616 2906 2266 
Q 2828 2175 2409 1742 
Q 1991 1309 1228 531 
z
" transform="scale(0.015625)"/>
       </defs>
       <use xlink:href="#DejaVuSans-32"/>
       <use xlink:href="#DejaVuSans-30" x="63.623047"/>
       <use xlink:href="#DejaVuSans-30" x="127.246094"/>
      </g>
     </g>
    </g>
    <g id="xtick_3">
     <g id="line2d_3">
      <g>
       <use xlink:href="#m061bfa94ed" x="200.774876" y="307.584" style="stroke: #000000; stroke-width: 0.8"/>
      </g>
     </g>
     <g id="text_3">
      <!-- 400 -->
      <g transform="translate(191.231126 322.182437) scale(0.1 -0.1)">
       <defs>
        <path id="DejaVuSans-34" d="M 2419 4116 
L 825 1625 
L 2419 1625 
L 2419 4116 
z
M 2253 4666 
L 3047 4666 
L 3047 1625 
L 3713 1625 
L 3713 1100 
L 3047 1100 
L 3047 0 
L 2419 0 
L 2419 1100 
L 313 1100 
L 313 1709 
L 2253 4666 
z
" transform="scale(0.015625)"/>
       </defs>
       <use xlink:href="#DejaVuSans-34"/>
       <use xlink:href="#DejaVuSans-30" x="63.623047"/>
       <use xlink:href="#DejaVuSans-30" x="127.246094"/>
      </g>
     </g>
    </g>
    <g id="xtick_4">
     <g id="line2d_4">
      <g>
       <use xlink:href="#m061bfa94ed" x="264.24595" y="307.584" style="stroke: #000000; stroke-width: 0.8"/>
      </g>
     </g>
     <g id="text_4">
      <!-- 600 -->
      <g transform="translate(254.7022 322.182437) scale(0.1 -0.1)">
       <defs>
        <path id="DejaVuSans-36" d="M 2113 2584 
Q 1688 2584 1439 2293 
Q 1191 2003 1191 1497 
Q 1191 994 1439 701 
Q 1688 409 2113 409 
Q 2538 409 2786 701 
Q 3034 994 3034 1497 
Q 3034 2003 2786 2293 
Q 2538 2584 2113 2584 
z
M 3366 4563 
L 3366 3988 
Q 3128 4100 2886 4159 
Q 2644 4219 2406 4219 
Q 1781 4219 1451 3797 
Q 1122 3375 1075 2522 
Q 1259 2794 1537 2939 
Q 1816 3084 2150 3084 
Q 2853 3084 3261 2657 
Q 3669 2231 3669 1497 
Q 3669 778 3244 343 
Q 2819 -91 2113 -91 
Q 1303 -91 875 529 
Q 447 1150 447 2328 
Q 447 3434 972 4092 
Q 1497 4750 2381 4750 
Q 2619 4750 2861 4703 
Q 3103 4656 3366 4563 
z
" transform="scale(0.015625)"/>
       </defs>
       <use xlink:href="#DejaVuSans-36"/>
       <use xlink:href="#DejaVuSans-30" x="63.623047"/>
       <use xlink:href="#DejaVuSans-30" x="127.246094"/>
      </g>
     </g>
    </g>
    <g id="xtick_5">
     <g id="line2d_5">
      <g>
       <use xlink:href="#m061bfa94ed" x="327.717025" y="307.584" style="stroke: #000000; stroke-width: 0.8"/>
      </g>
     </g>
     <g id="text_5">
      <!-- 800 -->
      <g transform="translate(318.173275 322.182437) scale(0.1 -0.1)">
       <defs>
        <path id="DejaVuSans-38" d="M 2034 2216 
Q 1584 2216 1326 1975 
Q 1069 1734 1069 1313 
Q 1069 891 1326 650 
Q 1584 409 2034 409 
Q 2484 409 2743 651 
Q 3003 894 3003 1313 
Q 3003 1734 2745 1975 
Q 2488 2216 2034 2216 
z
M 1403 2484 
Q 997 2584 770 2862 
Q 544 3141 544 3541 
Q 544 4100 942 4425 
Q 1341 4750 2034 4750 
Q 2731 4750 3128 4425 
Q 3525 4100 3525 3541 
Q 3525 3141 3298 2862 
Q 3072 2584 2669 2484 
Q 3125 2378 3379 2068 
Q 3634 1759 3634 1313 
Q 3634 634 3220 271 
Q 2806 -91 2034 -91 
Q 1263 -91 848 271 
Q 434 634 434 1313 
Q 434 1759 690 2068 
Q 947 2378 1403 2484 
z
M 1172 3481 
Q 1172 3119 1398 2916 
Q 1625 2713 2034 2713 
Q 2441 2713 2670 2916 
Q 2900 3119 2900 3481 
Q 2900 3844 2670 4047 
Q 2441 4250 2034 4250 
Q 1625 4250 1398 4047 
Q 1172 3844 1172 3481 
z
" transform="scale(0.015625)"/>
       </defs>
       <use xlink:href="#DejaVuSans-38"/>
       <use xlink:href="#DejaVuSans-30" x="63.623047"/>
       <use xlink:href="#DejaVuSans-30" x="127.246094"/>
      </g>
     </g>
    </g>
    <g id="xtick_6">
     <g id="line2d_6">
      <g>
       <use xlink:href="#m061bfa94ed" x="391.188099" y="307.584" style="stroke: #000000; stroke-width: 0.8"/>
      </g>
     </g>
     <g id="text_6">
      <!-- 1000 -->
      <g transform="translate(378.463099 322.182437) scale(0.1 -0.1)">
       <defs>
        <path id="DejaVuSans-31" d="M 794 531 
L 1825 531 
L 1825 4091 
L 703 3866 
L 703 4441 
L 1819 4666 
L 2450 4666 
L 2450 531 
L 3481 531 
L 3481 0 
L 794 0 
L 794 531 
z
" transform="scale(0.015625)"/>
       </defs>
       <use xlink:href="#DejaVuSans-31"/>
       <use xlink:href="#DejaVuSans-30" x="63.623047"/>
       <use xlink:href="#DejaVuSans-30" x="127.246094"/>
       <use xlink:href="#DejaVuSans-30" x="190.869141"/>
      </g>
     </g>
    </g>
    <g id="text_7">
     <!-- n -->
     <g transform="translate(232.99125 335.860562) scale(0.1 -0.1)">
      <defs>
       <path id="DejaVuSans-6e" d="M 3513 2113 
L 3513 0 
L 2938 0 
L 2938 2094 
Q 2938 2591 2744 2837 
Q 2550 3084 2163 3084 
Q 1697 3084 1428 2787 
Q 1159 2491 1159 1978 
L 1159 0 
L 581 0 
L 581 3500 
L 1159 3500 
L 1159 2956 
Q 1366 3272 1645 3428 
Q 1925 3584 2291 3584 
Q 2894 3584 3203 3211 
Q 3513 2838 3513 2113 
z
" transform="scale(0.015625)"/>
      </defs>
      <use xlink:href="#DejaVuSans-6e"/>
     </g>
    </g>
   </g>
   <g id="matplotlib.axis_2">
    <g id="ytick_1">
     <g id="line2d_7">
      <defs>
       <path id="m3a5800919a" d="M 0 0 
L -3.5 0 
" style="stroke: #000000; stroke-width: 0.8"/>
      </defs>
      <g>
       <use xlink:href="#m3a5800919a" x="57.6" y="291.717706" style="stroke: #000000; stroke-width: 0.8"/>
      </g>
     </g>
     <g id="text_8">
      <!-- −7.5 -->
      <g transform="translate(26.317187 295.516925) scale(0.1 -0.1)">
       <defs>
        <path id="DejaVuSans-2212" d="M 678 2272 
L 4684 2272 
L 4684 1741 
L 678 1741 
L 678 2272 
z
" transform="scale(0.015625)"/>
        <path id="DejaVuSans-37" d="M 525 4666 
L 3525 4666 
L 3525 4397 
L 1831 0 
L 1172 0 
L 2766 4134 
L 525 4134 
L 525 4666 
z
" transform="scale(0.015625)"/>
        <path id="DejaVuSans-2e" d="M 684 794 
L 1344 794 
L 1344 0 
L 684 0 
L 684 794 
z
" transform="scale(0.015625)"/>
        <path id="DejaVuSans-35" d="M 691 4666 
L 3169 4666 
L 3169 4134 
L 1269 4134 
L 1269 2991 
Q 1406 3038 1543 3061 
Q 1681 3084 1819 3084 
Q 2600 3084 3056 2656 
Q 3513 2228 3513 1497 
Q 3513 744 3044 326 
Q 2575 -91 1722 -91 
Q 1428 -91 1123 -41 
Q 819 9 494 109 
L 494 744 
Q 775 591 1075 516 
Q 1375 441 1709 441 
Q 2250 441 2565 725 
Q 2881 1009 2881 1497 
Q 2881 1984 2565 2268 
Q 2250 2553 1709 2553 
Q 1456 2553 1204 2497 
Q 953 2441 691 2322 
L 691 4666 
z
" transform="scale(0.015625)"/>
       </defs>
       <use xlink:href="#DejaVuSans-2212"/>
       <use xlink:href="#DejaVuSans-37" x="83.789062"/>
       <use xlink:href="#DejaVuSans-2e" x="147.412109"/>
       <use xlink:href="#DejaVuSans-35" x="179.199219"/>
      </g>
     </g>
    </g>
    <g id="ytick_2">
     <g id="line2d_8">
      <g>
       <use xlink:href="#m3a5800919a" x="57.6" y="258.066757" style="stroke: #000000; stroke-width: 0.8"/>
      </g>
     </g>
     <g id="text_9">
      <!-- −5.0 -->
      <g transform="translate(26.317187 261.865976) scale(0.1 -0.1)">
       <use xlink:href="#DejaVuSans-2212"/>
       <use xlink:href="#DejaVuSans-35" x="83.789062"/>
       <use xlink:href="#DejaVuSans-2e" x="147.412109"/>
       <use xlink:href="#DejaVuSans-30" x="179.199219"/>
      </g>
     </g>
    </g>
    <g id="ytick_3">
     <g id="line2d_9">
      <g>
       <use xlink:href="#m3a5800919a" x="57.6" y="224.415807" style="stroke: #000000; stroke-width: 0.8"/>
      </g>
     </g>
     <g id="text_10">
      <!-- −2.5 -->
      <g transform="translate(26.317187 228.215026) scale(0.1 -0.1)">
       <use xlink:href="#DejaVuSans-2212"/>
       <use xlink:href="#DejaVuSans-32" x="83.789062"/>
       <use xlink:href="#DejaVuSans-2e" x="147.412109"/>
       <use xlink:href="#DejaVuSans-35" x="179.199219"/>
      </g>
     </g>
    </g>
    <g id="ytick_4">
     <g id="line2d_10">
      <g>
       <use xlink:href="#m3a5800919a" x="57.6" y="190.764858" style="stroke: #000000; stroke-width: 0.8"/>
      </g>
     </g>
     <g id="text_11">
      <!-- 0.0 -->
      <g transform="translate(34.696875 194.564077) scale(0.1 -0.1)">
       <use xlink:href="#DejaVuSans-30"/>
       <use xlink:href="#DejaVuSans-2e" x="63.623047"/>
       <use xlink:href="#DejaVuSans-30" x="95.410156"/>
      </g>
     </g>
    </g>
    <g id="ytick_5">
     <g id="line2d_11">
      <g>
       <use xlink:href="#m3a5800919a" x="57.6" y="157.113908" style="stroke: #000000; stroke-width: 0.8"/>
      </g>
     </g>
     <g id="text_12">
      <!-- 2.5 -->
      <g transform="translate(34.696875 160.913127) scale(0.1 -0.1)">
       <use xlink:href="#DejaVuSans-32"/>
       <use xlink:href="#DejaVuSans-2e" x="63.623047"/>
       <use xlink:href="#DejaVuSans-35" x="95.410156"/>
      </g>
     </g>
    </g>
    <g id="ytick_6">
     <g id="line2d_12">
      <g>
       <use xlink:href="#m3a5800919a" x="57.6" y="123.462959" style="stroke: #000000; stroke-width: 0.8"/>
      </g>
     </g>
     <g id="text_13">
      <!-- 5.0 -->
      <g transform="translate(34.696875 127.262178) scale(0.1 -0.1)">
       <use xlink:href="#DejaVuSans-35"/>
       <use xlink:href="#DejaVuSans-2e" x="63.623047"/>
       <use xlink:href="#DejaVuSans-30" x="95.410156"/>
      </g>
     </g>
    </g>
    <g id="ytick_7">
     <g id="line2d_13">
      <g>
       <use xlink:href="#m3a5800919a" x="57.6" y="89.812009" style="stroke: #000000; stroke-width: 0.8"/>
      </g>
     </g>
     <g id="text_14">
      <!-- 7.5 -->
      <g transform="translate(34.696875 93.611228) scale(0.1 -0.1)">
       <use xlink:href="#DejaVuSans-37"/>
       <use xlink:href="#DejaVuSans-2e" x="63.623047"/>
       <use xlink:href="#DejaVuSans-35" x="95.410156"/>
      </g>
     </g>
    </g>
    <g id="ytick_8">
     <g id="line2d_14">
      <g>
       <use xlink:href="#m3a5800919a" x="57.6" y="56.16106" style="stroke: #000000; stroke-width: 0.8"/>
      </g>
     </g>
     <g id="text_15">
      <!-- 10.0 -->
      <g transform="translate(28.334375 59.960279) scale(0.1 -0.1)">
       <use xlink:href="#DejaVuSans-31"/>
       <use xlink:href="#DejaVuSans-30" x="63.623047"/>
       <use xlink:href="#DejaVuSans-2e" x="127.246094"/>
       <use xlink:href="#DejaVuSans-30" x="159.033203"/>
      </g>
     </g>
    </g>
    <g id="text_16">
     <!-- E*t -->
     <g transform="translate(20.2375 182.147531) rotate(-90) scale(0.1 -0.1)">
      <defs>
       <path id="DejaVuSans-45" d="M 628 4666 
L 3578 4666 
L 3578 4134 
L 1259 4134 
L 1259 2753 
L 3481 2753 
L 3481 2222 
L 1259 2222 
L 1259 531 
L 3634 531 
L 3634 0 
L 628 0 
L 628 4666 
z
" transform="scale(0.015625)"/>
       <path id="DejaVuSans-2a" d="M 3009 3897 
L 1888 3291 
L 3009 2681 
L 2828 2375 
L 1778 3009 
L 1778 1831 
L 1422 1831 
L 1422 3009 
L 372 2375 
L 191 2681 
L 1313 3291 
L 191 3897 
L 372 4206 
L 1422 3572 
L 1422 4750 
L 1778 4750 
L 1778 3572 
L 2828 4206 
L 3009 3897 
z
" transform="scale(0.015625)"/>
       <path id="DejaVuSans-74" d="M 1172 4494 
L 1172 3500 
L 2356 3500 
L 2356 3053 
L 1172 3053 
L 1172 1153 
Q 1172 725 1289 603 
Q 1406 481 1766 481 
L 2356 481 
L 2356 0 
L 1766 0 
Q 1100 0 847 248 
Q 594 497 594 1153 
L 594 3053 
L 172 3053 
L 172 3500 
L 594 3500 
L 594 4494 
L 1172 4494 
z
" transform="scale(0.015625)"/>
      </defs>
      <use xlink:href="#DejaVuSans-45"/>
      <use xlink:href="#DejaVuSans-2a" x="63.183594"/>
      <use xlink:href="#DejaVuSans-74" x="113.183594"/>
     </g>
    </g>
   </g>
   <g id="line2d_15">
    <path d="M 73.832727 295.488 
L 74.150083 287.107576 
L 74.467438 286.544319 
L 74.784793 278.161897 
L 75.102149 276.871536 
L 75.419504 274.578196 
L 75.73686 273.649882 
L 76.054215 268.488394 
L 76.37157 267.65121 
L 76.688926 265.588162 
L 77.006281 265.338554 
L 77.323636 263.984085 
L 77.640992 263.785685 
L 77.958347 260.776449 
L 78.593058 258.409553 
L 78.910413 258.081826 
L 79.545124 256.117437 
L 80.179835 255.428061 
L 80.49719 255.019792 
L 80.814545 253.687262 
L 82.083967 251.790566 
L 82.401322 250.450183 
L 82.718678 249.882702 
L 83.353388 249.51254 
L 83.988099 247.914806 
L 84.62281 246.257122 
L 85.257521 245.440091 
L 86.526942 243.996405 
L 86.844298 243.579512 
L 87.161653 242.783654 
L 87.479008 242.436694 
L 87.796364 242.367778 
L 88.113719 241.712696 
L 88.74843 241.244871 
L 89.065785 240.370787 
L 89.38314 240.084215 
L 89.700496 240.03201 
L 90.017851 239.645069 
L 90.335207 239.4959 
L 90.652562 238.937308 
L 90.969917 238.726823 
L 91.604628 237.717473 
L 92.556694 236.357553 
L 92.87405 236.176409 
L 93.191405 235.606066 
L 93.50876 235.418926 
L 94.143471 234.54934 
L 95.412893 233.55231 
L 95.730248 232.959439 
L 96.364959 232.427565 
L 96.682314 232.292897 
L 97.317025 231.828253 
L 97.951736 231.348254 
L 98.586446 230.852232 
L 98.903802 230.702028 
L 99.221157 230.420518 
L 99.538512 230.297268 
L 100.807934 228.638397 
L 101.125289 228.401695 
L 101.442645 227.836046 
L 102.712066 226.974385 
L 103.029421 226.603347 
L 104.298843 225.904536 
L 104.933554 225.48779 
L 105.568264 224.484648 
L 106.202975 224.019394 
L 106.520331 223.924783 
L 106.837686 223.539579 
L 107.472397 223.25629 
L 109.376529 221.807579 
L 109.693884 221.588704 
L 110.01124 221.534732 
L 110.963306 220.970647 
L 111.915372 220.602818 
L 112.550083 220.110555 
L 112.867438 219.847778 
L 113.184793 219.365787 
L 114.454215 218.583741 
L 114.77157 218.435754 
L 115.723636 217.717041 
L 119.849256 215.414965 
L 120.166612 215.367224 
L 120.483967 215.152482 
L 120.801322 215.08903 
L 121.118678 214.766072 
L 121.436033 214.684922 
L 122.705455 213.77925 
L 123.340165 213.426501 
L 123.657521 213.045536 
L 125.561653 212.159432 
L 125.879008 212.068692 
L 126.513719 211.571766 
L 129.052562 210.273882 
L 129.687273 209.842849 
L 130.639339 209.327991 
L 131.591405 208.772846 
L 132.226116 208.633926 
L 132.860826 208.200409 
L 133.178182 208.13131 
L 134.447603 207.494734 
L 135.399669 207.021919 
L 136.03438 206.790692 
L 136.351736 206.736861 
L 136.986446 206.282086 
L 137.938512 205.859185 
L 138.255868 205.81447 
L 139.525289 205.167921 
L 139.842645 205.102286 
L 140.16 204.864969 
L 140.794711 204.742534 
L 141.112066 204.327923 
L 141.746777 203.951691 
L 142.064132 203.859437 
L 143.016198 203.20294 
L 147.459174 201.008063 
L 148.41124 200.776076 
L 149.04595 200.352013 
L 150.315372 199.873592 
L 152.219504 199.107421 
L 152.854215 198.87371 
L 153.806281 198.510562 
L 155.075702 198.095454 
L 156.662479 197.405587 
L 156.979835 197.347295 
L 157.931901 196.81713 
L 158.566612 196.548356 
L 159.518678 196.062186 
L 159.836033 196.014107 
L 160.788099 195.557915 
L 161.42281 195.33366 
L 161.740165 195.066005 
L 162.692231 194.733427 
L 164.596364 193.915908 
L 164.913719 193.8447 
L 165.231074 193.592411 
L 166.18314 193.335708 
L 169.356694 192.084808 
L 169.67405 191.82591 
L 171.578182 191.147792 
L 171.895537 190.922538 
L 172.530248 190.698021 
L 174.117025 189.972414 
L 175.069091 189.711369 
L 176.021157 189.212105 
L 176.973223 188.826598 
L 177.290579 188.775421 
L 177.925289 188.555916 
L 178.56 188.296608 
L 181.416198 187.335171 
L 182.050909 186.915844 
L 184.589752 186.016354 
L 185.859174 185.455994 
L 186.81124 185.176595 
L 187.44595 184.845108 
L 188.398017 184.502402 
L 189.984793 183.928638 
L 190.93686 183.655876 
L 192.840992 182.902276 
L 193.793058 182.548677 
L 194.427769 182.299073 
L 199.505455 180.521962 
L 200.774876 179.997696 
L 201.726942 179.659527 
L 207.121983 177.788705 
L 207.756694 177.571414 
L 208.391405 177.307954 
L 215.373223 174.781476 
L 216.007934 174.587371 
L 216.325289 174.399863 
L 216.96 174.235233 
L 217.594711 173.998098 
L 218.546777 173.709574 
L 219.816198 173.193654 
L 220.768264 172.851708 
L 224.576529 171.409253 
L 225.21124 171.166483 
L 226.480661 170.614428 
L 228.067438 170.114529 
L 229.33686 169.696717 
L 229.97157 169.467677 
L 230.606281 169.32169 
L 232.827769 168.510496 
L 233.462479 168.327484 
L 234.09719 168.077296 
L 241.713719 165.520073 
L 242.34843 165.168509 
L 243.300496 164.923754 
L 243.935207 164.665241 
L 245.204628 164.151626 
L 246.156694 163.917617 
L 246.791405 163.749144 
L 248.060826 163.086343 
L 249.330248 162.765477 
L 249.964959 162.459966 
L 250.917025 162.187072 
L 252.186446 161.787124 
L 252.821157 161.453229 
L 253.773223 161.209409 
L 254.090579 161.060516 
L 254.407934 161.040924 
L 255.042645 160.779724 
L 255.994711 160.402116 
L 257.898843 159.768338 
L 258.533554 159.520754 
L 261.707107 158.426281 
L 262.976529 158.040123 
L 263.293884 157.718813 
L 265.198017 157.189293 
L 266.467438 156.757099 
L 268.688926 155.786471 
L 269.640992 155.504065 
L 272.814545 154.434406 
L 273.766612 154.034977 
L 274.083967 153.974781 
L 275.036033 153.533803 
L 276.940165 152.943665 
L 277.574876 152.597742 
L 278.526942 152.296052 
L 305.184793 142.020471 
L 305.502149 141.721409 
L 305.819504 141.676166 
L 306.454215 141.396748 
L 306.77157 141.300351 
L 307.088926 141.062813 
L 307.723636 140.945527 
L 309.627769 140.022236 
L 311.214545 139.47424 
L 311.531901 139.162656 
L 313.118678 138.685258 
L 313.753388 138.406626 
L 314.070744 138.214191 
L 314.388099 138.153453 
L 315.02281 137.82115 
L 317.879008 136.71874 
L 318.513719 136.30403 
L 318.831074 136.255721 
L 319.465785 136.024648 
L 320.100496 135.767689 
L 322.321983 134.772945 
L 322.639339 134.670642 
L 323.27405 134.308729 
L 323.90876 133.941974 
L 324.543471 133.730136 
L 326.130248 133.031029 
L 326.764959 132.616526 
L 327.399669 132.455352 
L 333.112066 129.895284 
L 334.698843 128.953226 
L 335.333554 128.680228 
L 335.968264 128.369719 
L 337.555041 127.584933 
L 337.872397 127.543904 
L 338.824463 126.996573 
L 339.141818 126.930794 
L 341.363306 125.731985 
L 342.950083 124.972507 
L 344.219504 124.304983 
L 345.17157 123.89827 
L 345.806281 123.601198 
L 347.075702 122.760995 
L 348.027769 122.291599 
L 348.979835 121.787144 
L 349.614545 121.236196 
L 350.566612 120.676886 
L 351.836033 119.975386 
L 352.470744 119.654486 
L 354.057521 118.953278 
L 354.374876 118.558276 
L 356.596364 117.254221 
L 356.913719 116.905421 
L 358.18314 116.257792 
L 361.039339 114.333167 
L 361.356694 113.953909 
L 361.67405 113.812087 
L 361.991405 113.50403 
L 362.30876 113.439351 
L 362.943471 113.001671 
L 363.578182 112.621588 
L 364.847603 111.627862 
L 366.751736 110.438862 
L 367.069091 109.948059 
L 368.655868 108.821467 
L 368.973223 108.763254 
L 369.290579 108.323921 
L 369.607934 108.267093 
L 370.877355 107.048008 
L 371.829421 106.391901 
L 373.098843 105.505879 
L 373.416198 105.132051 
L 374.050909 104.814404 
L 375.955041 103.024649 
L 376.272397 102.841788 
L 376.589752 102.107399 
L 376.907107 101.961129 
L 377.224463 101.516981 
L 377.541818 101.472713 
L 377.859174 101.219451 
L 378.176529 100.56762 
L 378.81124 100.324077 
L 380.080661 99.017045 
L 380.398017 98.545705 
L 380.715372 98.409795 
L 381.984793 96.880414 
L 382.302149 96.72351 
L 382.93686 95.700824 
L 383.888926 94.624712 
L 384.206281 94.134887 
L 384.523636 93.94781 
L 384.840992 93.476806 
L 385.158347 93.222145 
L 385.793058 92.548314 
L 386.110413 91.784928 
L 386.745124 91.045768 
L 387.379835 89.469647 
L 388.014545 88.443714 
L 388.649256 87.559079 
L 388.966612 87.494773 
L 389.283967 87.254901 
L 389.601322 86.555747 
L 389.918678 86.235709 
L 390.236033 85.586915 
L 390.553388 85.342514 
L 390.870744 82.763763 
L 391.188099 82.347265 
L 391.505455 82.147314 
L 391.82281 81.42129 
L 392.774876 80.04741 
L 393.092231 79.440898 
L 394.044298 76.032997 
L 394.679008 75.219129 
L 394.996364 74.11859 
L 395.313719 72.395557 
L 395.631074 72.226248 
L 395.94843 70.626918 
L 396.265785 70.350646 
L 397.535207 63.601967 
L 397.852562 60.550434 
L 398.169917 60.076352 
L 398.487273 53.568 
L 398.487273 53.568 
" clip-path="url(#peda204b2cc)" style="fill: none; stroke: #1f77b4; stroke-width: 1.5; stroke-linecap: square"/>
   </g>
   <g id="line2d_16">
    <path d="M 73.832727 259.579773 
L 74.150083 251.549813 
L 74.467438 251.549813 
L 74.784793 244.685833 
L 75.102149 243.260087 
L 75.73686 243.260087 
L 76.054215 240.691862 
L 76.37157 236.356343 
L 76.688926 236.090346 
L 77.006281 236.090346 
L 77.323636 235.4195 
L 78.910413 235.4195 
L 79.227769 232.973579 
L 79.545124 232.973579 
L 79.862479 232.088164 
L 80.179835 231.541141 
L 80.49719 231.541141 
L 80.814545 228.836482 
L 81.131901 227.563377 
L 82.083967 227.541487 
L 82.401322 226.788007 
L 86.844298 226.745227 
L 87.161653 226.332661 
L 87.479008 224.372791 
L 87.796364 223.939535 
L 88.113719 223.26105 
L 89.700496 223.26105 
L 90.017851 222.394146 
L 90.652562 222.394146 
L 90.969917 221.387108 
L 91.287273 221.387108 
L 91.604628 220.86252 
L 91.921983 219.513199 
L 99.221157 219.513199 
L 99.538512 218.709185 
L 99.855868 218.709185 
L 100.173223 218.519001 
L 101.76 218.519001 
L 102.077355 217.685618 
L 103.664132 217.685618 
L 103.981488 217.497637 
L 104.298843 217.172689 
L 104.933554 217.172689 
L 105.250909 216.029817 
L 106.202975 215.972219 
L 106.520331 213.392943 
L 107.155041 213.138093 
L 107.472397 213.138093 
L 107.789752 212.54416 
L 109.376529 212.54416 
L 109.693884 211.240673 
L 110.01124 211.240673 
L 110.328595 209.800729 
L 129.369917 209.80067 
L 129.687273 208.982399 
L 130.321983 208.212808 
L 131.27405 208.163742 
L 131.591405 207.494359 
L 131.90876 207.494359 
L 132.226116 207.341427 
L 132.860826 207.341427 
L 133.178182 206.052819 
L 133.495537 206.052819 
L 133.812893 205.782986 
L 135.399669 205.782986 
L 135.717025 204.684086 
L 136.669091 204.225238 
L 163.009587 204.225238 
L 163.326942 203.084721 
L 167.135207 203.084721 
L 167.452562 202.876285 
L 167.769917 202.876285 
L 168.087273 201.464747 
L 168.404628 201.464747 
L 168.721983 201.087982 
L 169.356694 201.087982 
L 169.67405 200.844849 
L 169.991405 200.262502 
L 171.578182 200.262502 
L 172.847603 199.677713 
L 180.146777 199.677713 
L 180.464132 199.377881 
L 180.781488 199.377881 
L 181.098843 199.08378 
L 182.68562 199.08378 
L 183.320331 196.34029 
L 185.541818 196.315886 
L 185.859174 196.156489 
L 186.493884 196.156489 
L 186.81124 195.915724 
L 187.128595 195.312383 
L 187.44595 195.312383 
L 187.763306 194.903747 
L 188.080661 194.903747 
L 188.398017 193.197797 
L 188.715372 190.764858 
L 283.604628 190.764858 
L 284.239339 186.625969 
L 284.556694 186.625969 
L 284.87405 186.217333 
L 285.191405 186.217333 
L 285.50876 185.613992 
L 285.826116 185.373227 
L 286.460826 185.373227 
L 286.778182 185.21383 
L 288.999669 185.189426 
L 289.63438 182.445936 
L 291.221157 182.445936 
L 291.538512 182.151835 
L 291.855868 182.151835 
L 292.173223 181.852003 
L 299.472397 181.852003 
L 299.789752 181.677809 
L 300.107107 181.677809 
L 300.741818 181.267214 
L 302.328595 181.267214 
L 302.64595 180.684867 
L 302.963306 180.441734 
L 303.598017 180.441734 
L 303.915372 180.064969 
L 304.232727 180.064969 
L 304.550083 178.653431 
L 304.867438 178.653431 
L 305.184793 178.444995 
L 308.993058 178.444995 
L 309.310413 177.304478 
L 335.968264 177.241922 
L 336.602975 176.84563 
L 336.920331 175.74673 
L 338.507107 175.74673 
L 338.824463 175.476897 
L 339.141818 175.476897 
L 339.459174 174.188289 
L 340.093884 174.188289 
L 340.41124 174.035357 
L 340.728595 174.035357 
L 341.04595 173.365974 
L 341.998017 173.316908 
L 342.315372 173.01904 
L 342.632727 172.547317 
L 342.950083 171.729046 
L 361.991405 171.728986 
L 362.30876 170.289043 
L 362.626116 170.289043 
L 362.943471 168.985556 
L 364.530248 168.985556 
L 364.847603 168.391623 
L 365.482314 168.289202 
L 365.799669 168.136773 
L 366.117025 165.557497 
L 367.069091 165.499899 
L 367.386446 164.357026 
L 368.021157 164.357026 
L 368.655868 163.844098 
L 370.242645 163.844098 
L 370.56 163.010715 
L 372.146777 163.010715 
L 372.464132 162.820531 
L 372.781488 162.820531 
L 373.098843 162.016517 
L 380.398017 162.016517 
L 380.715372 160.667196 
L 381.032727 160.142608 
L 381.350083 160.142608 
L 381.667438 159.13557 
L 382.302149 159.13557 
L 382.619504 158.268666 
L 384.206281 158.268666 
L 384.840992 157.156925 
L 385.158347 155.197055 
L 385.475702 154.784489 
L 389.918678 154.741709 
L 390.236033 153.988229 
L 391.188099 153.966339 
L 391.505455 152.693234 
L 391.82281 149.988575 
L 392.140165 149.988575 
L 392.457521 149.441552 
L 392.774876 148.556137 
L 393.092231 148.556137 
L 393.409587 146.110216 
L 394.996364 146.110216 
L 395.313719 145.439369 
L 395.631074 145.439369 
L 395.94843 145.173373 
L 396.265785 140.837854 
L 396.58314 138.269629 
L 397.217851 138.269629 
L 397.535207 136.843883 
L 397.852562 129.979903 
L 398.169917 129.979903 
L 398.487273 121.949943 
L 398.487273 121.949943 
" clip-path="url(#peda204b2cc)" style="fill: none; stroke: #ff7f0e; stroke-width: 1.5; stroke-linecap: square"/>
   </g>
   <g id="patch_3">
    <path d="M 57.6 307.584 
L 57.6 41.472 
" style="fill: none; stroke: #000000; stroke-width: 0.8; stroke-linejoin: miter; stroke-linecap: square"/>
   </g>
   <g id="patch_4">
    <path d="M 414.72 307.584 
L 414.72 41.472 
" style="fill: none; stroke: #000000; stroke-width: 0.8; stroke-linejoin: miter; stroke-linecap: square"/>
   </g>
   <g id="patch_5">
    <path d="M 57.6 307.584 
L 414.72 307.584 
" style="fill: none; stroke: #000000; stroke-width: 0.8; stroke-linejoin: miter; stroke-linecap: square"/>
   </g>
   <g id="patch_6">
    <path d="M 57.6 41.472 
L 414.72 41.472 
" style="fill: none; stroke: #000000; stroke-width: 0.8; stroke-linejoin: miter; stroke-linecap: square"/>
   </g>
   <g id="legend_1">
    <g id="patch_7">
     <path d="M 64.6 78.82825 
L 129.342187 78.82825 
Q 131.342187 78.82825 131.342187 76.82825 
L 131.342187 48.472 
Q 131.342187 46.472 129.342187 46.472 
L 64.6 46.472 
Q 62.6 46.472 62.6 48.472 
L 62.6 76.82825 
Q 62.6 78.82825 64.6 78.82825 
z
" style="fill: #ffffff; opacity: 0.8; stroke: #cccccc; stroke-linejoin: miter"/>
    </g>
    <g id="line2d_17">
     <path d="M 66.6 54.570437 
L 76.6 54.570437 
L 86.6 54.570437 
" style="fill: none; stroke: #1f77b4; stroke-width: 1.5; stroke-linecap: square"/>
    </g>
    <g id="text_17">
     <!-- qc -->
     <g transform="translate(94.6 58.070437) scale(0.1 -0.1)">
      <defs>
       <path id="DejaVuSans-71" d="M 947 1747 
Q 947 1113 1208 752 
Q 1469 391 1925 391 
Q 2381 391 2643 752 
Q 2906 1113 2906 1747 
Q 2906 2381 2643 2742 
Q 2381 3103 1925 3103 
Q 1469 3103 1208 2742 
Q 947 2381 947 1747 
z
M 2906 525 
Q 2725 213 2448 61 
Q 2172 -91 1784 -91 
Q 1150 -91 751 415 
Q 353 922 353 1747 
Q 353 2572 751 3078 
Q 1150 3584 1784 3584 
Q 2172 3584 2448 3432 
Q 2725 3281 2906 2969 
L 2906 3500 
L 3481 3500 
L 3481 -1331 
L 2906 -1331 
L 2906 525 
z
" transform="scale(0.015625)"/>
       <path id="DejaVuSans-63" d="M 3122 3366 
L 3122 2828 
Q 2878 2963 2633 3030 
Q 2388 3097 2138 3097 
Q 1578 3097 1268 2742 
Q 959 2388 959 1747 
Q 959 1106 1268 751 
Q 1578 397 2138 397 
Q 2388 397 2633 464 
Q 2878 531 3122 666 
L 3122 134 
Q 2881 22 2623 -34 
Q 2366 -91 2075 -91 
Q 1284 -91 818 406 
Q 353 903 353 1747 
Q 353 2603 823 3093 
Q 1294 3584 2113 3584 
Q 2378 3584 2631 3529 
Q 2884 3475 3122 3366 
z
" transform="scale(0.015625)"/>
      </defs>
      <use xlink:href="#DejaVuSans-71"/>
      <use xlink:href="#DejaVuSans-63" x="63.476562"/>
     </g>
    </g>
    <g id="line2d_18">
     <path d="M 66.6 69.248562 
L 76.6 69.248562 
L 86.6 69.248562 
" style="fill: none; stroke: #ff7f0e; stroke-width: 1.5; stroke-linecap: square"/>
    </g>
    <g id="text_18">
     <!-- Trotter -->
     <g transform="translate(94.6 72.748562) scale(0.1 -0.1)">
      <defs>
       <path id="DejaVuSans-54" d="M -19 4666 
L 3928 4666 
L 3928 4134 
L 2272 4134 
L 2272 0 
L 1638 0 
L 1638 4134 
L -19 4134 
L -19 4666 
z
" transform="scale(0.015625)"/>
       <path id="DejaVuSans-72" d="M 2631 2963 
Q 2534 3019 2420 3045 
Q 2306 3072 2169 3072 
Q 1681 3072 1420 2755 
Q 1159 2438 1159 1844 
L 1159 0 
L 581 0 
L 581 3500 
L 1159 3500 
L 1159 2956 
Q 1341 3275 1631 3429 
Q 1922 3584 2338 3584 
Q 2397 3584 2469 3576 
Q 2541 3569 2628 3553 
L 2631 2963 
z
" transform="scale(0.015625)"/>
       <path id="DejaVuSans-6f" d="M 1959 3097 
Q 1497 3097 1228 2736 
Q 959 2375 959 1747 
Q 959 1119 1226 758 
Q 1494 397 1959 397 
Q 2419 397 2687 759 
Q 2956 1122 2956 1747 
Q 2956 2369 2687 2733 
Q 2419 3097 1959 3097 
z
M 1959 3584 
Q 2709 3584 3137 3096 
Q 3566 2609 3566 1747 
Q 3566 888 3137 398 
Q 2709 -91 1959 -91 
Q 1206 -91 779 398 
Q 353 888 353 1747 
Q 353 2609 779 3096 
Q 1206 3584 1959 3584 
z
" transform="scale(0.015625)"/>
       <path id="DejaVuSans-65" d="M 3597 1894 
L 3597 1613 
L 953 1613 
Q 991 1019 1311 708 
Q 1631 397 2203 397 
Q 2534 397 2845 478 
Q 3156 559 3463 722 
L 3463 178 
Q 3153 47 2828 -22 
Q 2503 -91 2169 -91 
Q 1331 -91 842 396 
Q 353 884 353 1716 
Q 353 2575 817 3079 
Q 1281 3584 2069 3584 
Q 2775 3584 3186 3129 
Q 3597 2675 3597 1894 
z
M 3022 2063 
Q 3016 2534 2758 2815 
Q 2500 3097 2075 3097 
Q 1594 3097 1305 2825 
Q 1016 2553 972 2059 
L 3022 2063 
z
" transform="scale(0.015625)"/>
      </defs>
      <use xlink:href="#DejaVuSans-54"/>
      <use xlink:href="#DejaVuSans-72" x="46.333984"/>
      <use xlink:href="#DejaVuSans-6f" x="85.197266"/>
      <use xlink:href="#DejaVuSans-74" x="146.378906"/>
      <use xlink:href="#DejaVuSans-74" x="185.587891"/>
      <use xlink:href="#DejaVuSans-65" x="224.796875"/>
      <use xlink:href="#DejaVuSans-72" x="286.320312"/>
     </g>
    </g>
   </g>
  </g>
 </g>
 <defs>
  <clipPath id="peda204b2cc">
   <rect x="57.6" y="41.472" width="357.12" height="266.112"/>
  </clipPath>
 </defs>
</svg>
