<?xml version="1.0" encoding="utf-8" standalone="no"?>
<!DOCTYPE svg PUBLIC "-//W3C//DTD SVG 1.1//EN"
  "http://www.w3.org/Graphics/SVG/1.1/DTD/svg11.dtd">
<svg xmlns:xlink="http://www.w3.org/1999/xlink" width="460.8pt" height="345.6pt" viewBox="0 0 460.8 345.6" xmlns="http://www.w3.org/2000/svg" version="1.1">
 <metadata>
  <rdf:RDF xmlns:dc="http://purl.org/dc/elements/1.1/" xmlns:cc="http://creativecommons.org/ns#" xmlns:rdf="http://www.w3.org/1999/02/22-rdf-syntax-ns#">
   <cc:Work>
    <dc:type rdf:resource="http://purl.org/dc/dcmitype/StillImage"/>
    <dc:date>2024-09-03T20:36:23.855987</dc:date>
    <dc:format>image/svg+xml</dc:format>
    <dc:creator>
     <cc:Agent>
      <dc:title>Matplotlib v3.7.1, https://matplotlib.org/</dc:title>
     </cc:Agent>
    </dc:creator>
   </cc:Work>
  </rdf:RDF>
 </metadata>
 <defs>
  <style type="text/css">*{stroke-linejoin: round; stroke-linecap: butt}</style>
 </defs>
 <g id="figure_1">
  <g id="patch_1">
   <path d="M 0 345.6 
L 460.8 345.6 
L 460.8 0 
L 0 0 
z
" style="fill: #ffffff"/>
  </g>
  <g id="axes_1">
   <g id="patch_2">
    <path d="M 57.6 307.584 
L 414.72 307.584 
L 414.72 41.472 
L 57.6 41.472 
z
" style="fill: #ffffff"/>
   </g>
   <g id="matplotlib.axis_1">
    <g id="xtick_1">
     <g id="line2d_1">
      <defs>
       <path id="m671b27dbf3" d="M 0 0 
L 0 3.5 
" style="stroke: #000000; stroke-width: 0.8"/>
      </defs>
      <g>
       <use xlink:href="#m671b27dbf3" x="73.832727" y="307.584" style="stroke: #000000; stroke-width: 0.8"/>
      </g>
     </g>
     <g id="text_1">
      <!-- 0 -->
      <g transform="translate(70.651477 322.182437) scale(0.1 -0.1)">
       <defs>
        <path id="DejaVuSans-30" d="M 2034 4250 
Q 1547 4250 1301 3770 
Q 1056 3291 1056 2328 
Q 1056 1369 1301 889 
Q 1547 409 2034 409 
Q 2525 409 2770 889 
Q 3016 1369 3016 2328 
Q 3016 3291 2770 3770 
Q 2525 4250 2034 4250 
z
M 2034 4750 
Q 2819 4750 3233 4129 
Q 3647 3509 3647 2328 
Q 3647 1150 3233 529 
Q 2819 -91 2034 -91 
Q 1250 -91 836 529 
Q 422 1150 422 2328 
Q 422 3509 836 4129 
Q 1250 4750 2034 4750 
z
" transform="scale(0.015625)"/>
       </defs>
       <use xlink:href="#DejaVuSans-30"/>
      </g>
     </g>
    </g>
    <g id="xtick_2">
     <g id="line2d_2">
      <g>
       <use xlink:href="#m671b27dbf3" x="137.303802" y="307.584" style="stroke: #000000; stroke-width: 0.8"/>
      </g>
     </g>
     <g id="text_2">
      <!-- 200 -->
      <g transform="translate(127.760052 322.182437) scale(0.1 -0.1)">
       <defs>
        <path id="DejaVuSans-32" d="M 1228 531 
L 3431 531 
L 3431 0 
L 469 0 
L 469 531 
Q 828 903 1448 1529 
Q 2069 2156 2228 2338 
Q 2531 2678 2651 2914 
Q 2772 3150 2772 3378 
Q 2772 3750 2511 3984 
Q 2250 4219 1831 4219 
Q 1534 4219 1204 4116 
Q 875 4013 500 3803 
L 500 4441 
Q 881 4594 1212 4672 
Q 1544 4750 1819 4750 
Q 2544 4750 2975 4387 
Q 3406 4025 3406 3419 
Q 3406 3131 3298 2873 
Q 3191 2616 2906 2266 
Q 2828 2175 2409 1742 
Q 1991 1309 1228 531 
z
" transform="scale(0.015625)"/>
       </defs>
       <use xlink:href="#DejaVuSans-32"/>
       <use xlink:href="#DejaVuSans-30" x="63.623047"/>
       <use xlink:href="#DejaVuSans-30" x="127.246094"/>
      </g>
     </g>
    </g>
    <g id="xtick_3">
     <g id="line2d_3">
      <g>
       <use xlink:href="#m671b27dbf3" x="200.774876" y="307.584" style="stroke: #000000; stroke-width: 0.8"/>
      </g>
     </g>
     <g id="text_3">
      <!-- 400 -->
      <g transform="translate(191.231126 322.182437) scale(0.1 -0.1)">
       <defs>
        <path id="DejaVuSans-34" d="M 2419 4116 
L 825 1625 
L 2419 1625 
L 2419 4116 
z
M 2253 4666 
L 3047 4666 
L 3047 1625 
L 3713 1625 
L 3713 1100 
L 3047 1100 
L 3047 0 
L 2419 0 
L 2419 1100 
L 313 1100 
L 313 1709 
L 2253 4666 
z
" transform="scale(0.015625)"/>
       </defs>
       <use xlink:href="#DejaVuSans-34"/>
       <use xlink:href="#DejaVuSans-30" x="63.623047"/>
       <use xlink:href="#DejaVuSans-30" x="127.246094"/>
      </g>
     </g>
    </g>
    <g id="xtick_4">
     <g id="line2d_4">
      <g>
       <use xlink:href="#m671b27dbf3" x="264.24595" y="307.584" style="stroke: #000000; stroke-width: 0.8"/>
      </g>
     </g>
     <g id="text_4">
      <!-- 600 -->
      <g transform="translate(254.7022 322.182437) scale(0.1 -0.1)">
       <defs>
        <path id="DejaVuSans-36" d="M 2113 2584 
Q 1688 2584 1439 2293 
Q 1191 2003 1191 1497 
Q 1191 994 1439 701 
Q 1688 409 2113 409 
Q 2538 409 2786 701 
Q 3034 994 3034 1497 
Q 3034 2003 2786 2293 
Q 2538 2584 2113 2584 
z
M 3366 4563 
L 3366 3988 
Q 3128 4100 2886 4159 
Q 2644 4219 2406 4219 
Q 1781 4219 1451 3797 
Q 1122 3375 1075 2522 
Q 1259 2794 1537 2939 
Q 1816 3084 2150 3084 
Q 2853 3084 3261 2657 
Q 3669 2231 3669 1497 
Q 3669 778 3244 343 
Q 2819 -91 2113 -91 
Q 1303 -91 875 529 
Q 447 1150 447 2328 
Q 447 3434 972 4092 
Q 1497 4750 2381 4750 
Q 2619 4750 2861 4703 
Q 3103 4656 3366 4563 
z
" transform="scale(0.015625)"/>
       </defs>
       <use xlink:href="#DejaVuSans-36"/>
       <use xlink:href="#DejaVuSans-30" x="63.623047"/>
       <use xlink:href="#DejaVuSans-30" x="127.246094"/>
      </g>
     </g>
    </g>
    <g id="xtick_5">
     <g id="line2d_5">
      <g>
       <use xlink:href="#m671b27dbf3" x="327.717025" y="307.584" style="stroke: #000000; stroke-width: 0.8"/>
      </g>
     </g>
     <g id="text_5">
      <!-- 800 -->
      <g transform="translate(318.173275 322.182437) scale(0.1 -0.1)">
       <defs>
        <path id="DejaVuSans-38" d="M 2034 2216 
Q 1584 2216 1326 1975 
Q 1069 1734 1069 1313 
Q 1069 891 1326 650 
Q 1584 409 2034 409 
Q 2484 409 2743 651 
Q 3003 894 3003 1313 
Q 3003 1734 2745 1975 
Q 2488 2216 2034 2216 
z
M 1403 2484 
Q 997 2584 770 2862 
Q 544 3141 544 3541 
Q 544 4100 942 4425 
Q 1341 4750 2034 4750 
Q 2731 4750 3128 4425 
Q 3525 4100 3525 3541 
Q 3525 3141 3298 2862 
Q 3072 2584 2669 2484 
Q 3125 2378 3379 2068 
Q 3634 1759 3634 1313 
Q 3634 634 3220 271 
Q 2806 -91 2034 -91 
Q 1263 -91 848 271 
Q 434 634 434 1313 
Q 434 1759 690 2068 
Q 947 2378 1403 2484 
z
M 1172 3481 
Q 1172 3119 1398 2916 
Q 1625 2713 2034 2713 
Q 2441 2713 2670 2916 
Q 2900 3119 2900 3481 
Q 2900 3844 2670 4047 
Q 2441 4250 2034 4250 
Q 1625 4250 1398 4047 
Q 1172 3844 1172 3481 
z
" transform="scale(0.015625)"/>
       </defs>
       <use xlink:href="#DejaVuSans-38"/>
       <use xlink:href="#DejaVuSans-30" x="63.623047"/>
       <use xlink:href="#DejaVuSans-30" x="127.246094"/>
      </g>
     </g>
    </g>
    <g id="xtick_6">
     <g id="line2d_6">
      <g>
       <use xlink:href="#m671b27dbf3" x="391.188099" y="307.584" style="stroke: #000000; stroke-width: 0.8"/>
      </g>
     </g>
     <g id="text_6">
      <!-- 1000 -->
      <g transform="translate(378.463099 322.182437) scale(0.1 -0.1)">
       <defs>
        <path id="DejaVuSans-31" d="M 794 531 
L 1825 531 
L 1825 4091 
L 703 3866 
L 703 4441 
L 1819 4666 
L 2450 4666 
L 2450 531 
L 3481 531 
L 3481 0 
L 794 0 
L 794 531 
z
" transform="scale(0.015625)"/>
       </defs>
       <use xlink:href="#DejaVuSans-31"/>
       <use xlink:href="#DejaVuSans-30" x="63.623047"/>
       <use xlink:href="#DejaVuSans-30" x="127.246094"/>
       <use xlink:href="#DejaVuSans-30" x="190.869141"/>
      </g>
     </g>
    </g>
    <g id="text_7">
     <!-- n -->
     <g transform="translate(232.99125 335.860562) scale(0.1 -0.1)">
      <defs>
       <path id="DejaVuSans-6e" d="M 3513 2113 
L 3513 0 
L 2938 0 
L 2938 2094 
Q 2938 2591 2744 2837 
Q 2550 3084 2163 3084 
Q 1697 3084 1428 2787 
Q 1159 2491 1159 1978 
L 1159 0 
L 581 0 
L 581 3500 
L 1159 3500 
L 1159 2956 
Q 1366 3272 1645 3428 
Q 1925 3584 2291 3584 
Q 2894 3584 3203 3211 
Q 3513 2838 3513 2113 
z
" transform="scale(0.015625)"/>
      </defs>
      <use xlink:href="#DejaVuSans-6e"/>
     </g>
    </g>
   </g>
   <g id="matplotlib.axis_2">
    <g id="ytick_1">
     <g id="line2d_7">
      <defs>
       <path id="m13d76cda60" d="M 0 0 
L -3.5 0 
" style="stroke: #000000; stroke-width: 0.8"/>
      </defs>
      <g>
       <use xlink:href="#m13d76cda60" x="57.6" y="262.736585" style="stroke: #000000; stroke-width: 0.8"/>
      </g>
     </g>
     <g id="text_8">
      <!-- −10 -->
      <g transform="translate(29.495313 266.535803) scale(0.1 -0.1)">
       <defs>
        <path id="DejaVuSans-2212" d="M 678 2272 
L 4684 2272 
L 4684 1741 
L 678 1741 
L 678 2272 
z
" transform="scale(0.015625)"/>
       </defs>
       <use xlink:href="#DejaVuSans-2212"/>
       <use xlink:href="#DejaVuSans-31" x="83.789062"/>
       <use xlink:href="#DejaVuSans-30" x="147.412109"/>
      </g>
     </g>
    </g>
    <g id="ytick_2">
     <g id="line2d_8">
      <g>
       <use xlink:href="#m13d76cda60" x="57.6" y="209.317736" style="stroke: #000000; stroke-width: 0.8"/>
      </g>
     </g>
     <g id="text_9">
      <!-- −5 -->
      <g transform="translate(35.857813 213.116954) scale(0.1 -0.1)">
       <defs>
        <path id="DejaVuSans-35" d="M 691 4666 
L 3169 4666 
L 3169 4134 
L 1269 4134 
L 1269 2991 
Q 1406 3038 1543 3061 
Q 1681 3084 1819 3084 
Q 2600 3084 3056 2656 
Q 3513 2228 3513 1497 
Q 3513 744 3044 326 
Q 2575 -91 1722 -91 
Q 1428 -91 1123 -41 
Q 819 9 494 109 
L 494 744 
Q 775 591 1075 516 
Q 1375 441 1709 441 
Q 2250 441 2565 725 
Q 2881 1009 2881 1497 
Q 2881 1984 2565 2268 
Q 2250 2553 1709 2553 
Q 1456 2553 1204 2497 
Q 953 2441 691 2322 
L 691 4666 
z
" transform="scale(0.015625)"/>
       </defs>
       <use xlink:href="#DejaVuSans-2212"/>
       <use xlink:href="#DejaVuSans-35" x="83.789062"/>
      </g>
     </g>
    </g>
    <g id="ytick_3">
     <g id="line2d_9">
      <g>
       <use xlink:href="#m13d76cda60" x="57.6" y="155.898887" style="stroke: #000000; stroke-width: 0.8"/>
      </g>
     </g>
     <g id="text_10">
      <!-- 0 -->
      <g transform="translate(44.2375 159.698106) scale(0.1 -0.1)">
       <use xlink:href="#DejaVuSans-30"/>
      </g>
     </g>
    </g>
    <g id="ytick_4">
     <g id="line2d_10">
      <g>
       <use xlink:href="#m13d76cda60" x="57.6" y="102.480038" style="stroke: #000000; stroke-width: 0.8"/>
      </g>
     </g>
     <g id="text_11">
      <!-- 5 -->
      <g transform="translate(44.2375 106.279257) scale(0.1 -0.1)">
       <use xlink:href="#DejaVuSans-35"/>
      </g>
     </g>
    </g>
    <g id="ytick_5">
     <g id="line2d_11">
      <g>
       <use xlink:href="#m13d76cda60" x="57.6" y="49.061189" style="stroke: #000000; stroke-width: 0.8"/>
      </g>
     </g>
     <g id="text_12">
      <!-- 10 -->
      <g transform="translate(37.875 52.860408) scale(0.1 -0.1)">
       <use xlink:href="#DejaVuSans-31"/>
       <use xlink:href="#DejaVuSans-30" x="63.623047"/>
      </g>
     </g>
    </g>
    <g id="text_13">
     <!-- E*t -->
     <g transform="translate(23.415625 182.147531) rotate(-90) scale(0.1 -0.1)">
      <defs>
       <path id="DejaVuSans-45" d="M 628 4666 
L 3578 4666 
L 3578 4134 
L 1259 4134 
L 1259 2753 
L 3481 2753 
L 3481 2222 
L 1259 2222 
L 1259 531 
L 3634 531 
L 3634 0 
L 628 0 
L 628 4666 
z
" transform="scale(0.015625)"/>
       <path id="DejaVuSans-2a" d="M 3009 3897 
L 1888 3291 
L 3009 2681 
L 2828 2375 
L 1778 3009 
L 1778 1831 
L 1422 1831 
L 1422 3009 
L 372 2375 
L 191 2681 
L 1313 3291 
L 191 3897 
L 372 4206 
L 1422 3572 
L 1422 4750 
L 1778 4750 
L 1778 3572 
L 2828 4206 
L 3009 3897 
z
" transform="scale(0.015625)"/>
       <path id="DejaVuSans-74" d="M 1172 4494 
L 1172 3500 
L 2356 3500 
L 2356 3053 
L 1172 3053 
L 1172 1153 
Q 1172 725 1289 603 
Q 1406 481 1766 481 
L 2356 481 
L 2356 0 
L 1766 0 
Q 1100 0 847 248 
Q 594 497 594 1153 
L 594 3053 
L 172 3053 
L 172 3500 
L 594 3500 
L 594 4494 
L 1172 4494 
z
" transform="scale(0.015625)"/>
      </defs>
      <use xlink:href="#DejaVuSans-45"/>
      <use xlink:href="#DejaVuSans-2a" x="63.183594"/>
      <use xlink:href="#DejaVuSans-74" x="113.183594"/>
     </g>
    </g>
   </g>
   <g id="line2d_12">
    <path d="M 73.832727 295.488 
L 74.150083 290.919395 
L 74.467438 289.293185 
L 74.784793 286.269671 
L 75.419504 283.352535 
L 75.73686 282.775392 
L 76.054215 279.831271 
L 76.37157 279.518011 
L 76.688926 276.488824 
L 77.006281 276.300929 
L 77.640992 275.188454 
L 78.275702 273.098784 
L 78.593058 271.301414 
L 78.910413 271.012606 
L 79.862479 269.042888 
L 80.179835 268.793859 
L 80.49719 268.017871 
L 80.814545 267.823428 
L 81.449256 266.656018 
L 81.766612 266.102133 
L 82.401322 264.022074 
L 82.718678 263.739967 
L 83.036033 263.624663 
L 83.353388 262.967636 
L 83.988099 262.188914 
L 84.305455 262.064369 
L 84.940165 261.293515 
L 85.574876 260.728748 
L 86.209587 259.999991 
L 87.161653 258.492833 
L 87.479008 258.333153 
L 90.652562 254.735144 
L 91.287273 254.43334 
L 91.604628 253.871158 
L 92.239339 253.426069 
L 92.556694 253.151563 
L 93.191405 252.389575 
L 93.50876 252.224838 
L 93.826116 251.879447 
L 94.143471 251.766317 
L 95.730248 250.262385 
L 96.682314 249.605276 
L 97.317025 248.620002 
L 97.951736 248.424194 
L 98.269091 247.975756 
L 98.586446 247.816401 
L 98.903802 247.380573 
L 99.221157 247.348438 
L 101.442645 245.703964 
L 101.76 245.38849 
L 102.712066 244.945932 
L 103.029421 244.529236 
L 103.664132 244.303811 
L 104.616198 243.731991 
L 105.250909 243.256469 
L 105.568264 243.089686 
L 105.88562 242.67063 
L 106.520331 242.441119 
L 107.789752 241.692324 
L 108.107107 241.359766 
L 108.424463 241.254364 
L 109.059174 240.904206 
L 110.01124 240.305888 
L 110.328595 240.192533 
L 110.64595 239.870363 
L 111.280661 239.538038 
L 111.598017 239.262036 
L 111.915372 239.188397 
L 112.550083 238.678374 
L 113.502149 238.380806 
L 113.819504 238.073801 
L 114.13686 237.992316 
L 114.77157 237.533463 
L 116.993058 236.469924 
L 118.579835 235.446097 
L 120.483967 234.614885 
L 121.436033 233.981859 
L 122.070744 233.767906 
L 124.926942 232.25034 
L 125.879008 231.86487 
L 129.687273 229.727024 
L 130.639339 229.295022 
L 131.27405 228.907366 
L 132.543471 228.466516 
L 135.717025 226.964385 
L 136.03438 226.901537 
L 137.303802 226.306009 
L 139.207934 225.470396 
L 139.525289 225.258312 
L 140.16 225.047567 
L 141.429421 224.519897 
L 142.381488 224.217442 
L 143.968264 223.398323 
L 144.602975 223.119529 
L 144.920331 222.934604 
L 145.237686 222.881433 
L 146.189752 222.454258 
L 147.459174 221.979162 
L 148.093884 221.454601 
L 149.680661 220.888025 
L 151.584793 220.185669 
L 152.53686 219.868306 
L 153.17157 219.529794 
L 154.440992 218.987439 
L 155.075702 218.774657 
L 157.29719 217.858606 
L 158.566612 217.433824 
L 159.518678 217.054766 
L 162.057521 216.182647 
L 162.692231 215.981733 
L 163.009587 215.917778 
L 163.644298 215.590352 
L 169.991405 212.950954 
L 170.30876 212.922901 
L 171.260826 212.439111 
L 171.578182 212.402382 
L 172.530248 212.02108 
L 175.386446 211.068379 
L 175.703802 210.813472 
L 176.338512 210.606619 
L 177.290579 210.26589 
L 180.146777 209.280264 
L 181.098843 208.954924 
L 182.050909 208.527023 
L 182.68562 208.386637 
L 183.637686 208.06368 
L 184.589752 207.567809 
L 187.128595 206.841529 
L 189.032727 206.151761 
L 189.984793 205.906852 
L 190.302149 205.695852 
L 191.254215 205.396692 
L 192.523636 204.915972 
L 194.427769 204.24792 
L 195.379835 203.890345 
L 198.236033 202.902115 
L 206.169917 200.120702 
L 206.487273 200.099681 
L 207.121983 199.818268 
L 207.756694 199.612406 
L 209.978182 198.814838 
L 210.612893 198.702757 
L 212.83438 197.881217 
L 215.690579 196.97993 
L 216.007934 196.752572 
L 216.642645 196.541097 
L 217.277355 196.335678 
L 218.546777 195.895262 
L 219.498843 195.700408 
L 219.816198 195.47221 
L 220.450909 195.256932 
L 221.08562 195.124508 
L 221.402975 194.92376 
L 222.355041 194.755671 
L 222.989752 194.476281 
L 223.307107 194.435083 
L 223.941818 194.171791 
L 224.893884 193.872078 
L 228.384793 192.437814 
L 229.97157 191.981974 
L 230.923636 191.656644 
L 234.731901 190.285664 
L 235.366612 190.049713 
L 236.001322 189.912612 
L 236.953388 189.559299 
L 238.22281 189.262527 
L 239.809587 188.621087 
L 241.079008 188.169149 
L 241.713719 187.957057 
L 243.300496 187.417809 
L 243.935207 187.20024 
L 246.791405 186.204027 
L 247.743471 185.677724 
L 248.695537 185.453752 
L 249.012893 185.192087 
L 252.821157 183.914519 
L 253.455868 183.66457 
L 253.773223 183.636936 
L 254.090579 183.454969 
L 254.725289 183.267041 
L 259.168264 181.778776 
L 259.802975 181.580674 
L 260.437686 181.34158 
L 261.707107 180.925749 
L 262.341818 180.619965 
L 262.976529 180.430597 
L 263.928595 179.923612 
L 265.832727 179.23481 
L 269.640992 178.094612 
L 273.449256 176.628215 
L 275.036033 176.150962 
L 275.988099 175.871434 
L 276.62281 175.464791 
L 277.257521 175.283422 
L 278.526942 174.806816 
L 279.161653 174.588836 
L 279.796364 174.255548 
L 280.431074 174.115788 
L 281.065785 173.822402 
L 285.50876 172.163578 
L 286.460826 171.934784 
L 287.412893 171.423488 
L 287.730248 171.412174 
L 288.364959 171.12708 
L 288.682314 171.094566 
L 289.317025 170.675661 
L 290.586446 170.270697 
L 290.903802 169.96729 
L 291.855868 169.726029 
L 292.490579 169.401536 
L 294.394711 168.812 
L 296.616198 167.908748 
L 296.933554 167.65964 
L 297.568264 167.461289 
L 298.202975 167.221405 
L 299.155041 166.795773 
L 299.789752 166.513055 
L 300.107107 166.29219 
L 300.424463 166.261777 
L 302.01124 165.471035 
L 302.328595 165.444499 
L 302.64595 165.086776 
L 303.915372 164.70336 
L 305.819504 163.909331 
L 306.454215 163.765746 
L 307.088926 163.417267 
L 308.040992 163.049654 
L 309.310413 162.577188 
L 309.627769 162.546836 
L 312.801322 161.031628 
L 313.118678 160.989948 
L 314.388099 160.32286 
L 315.657521 159.865834 
L 316.292231 159.512717 
L 316.609587 159.44441 
L 317.561653 158.893287 
L 318.196364 158.646128 
L 318.831074 158.494797 
L 320.417851 157.593494 
L 321.369917 157.136463 
L 322.004628 156.891357 
L 322.321983 156.613503 
L 322.639339 156.572119 
L 323.591405 156.164261 
L 324.226116 155.953417 
L 324.543471 155.839324 
L 325.495537 155.202363 
L 326.130248 154.972294 
L 326.764959 154.53296 
L 327.399669 154.312289 
L 328.351736 153.732308 
L 328.669091 153.684826 
L 329.938512 152.967853 
L 330.573223 152.484361 
L 331.525289 152.266376 
L 331.842645 151.924767 
L 332.477355 151.646796 
L 333.112066 151.332297 
L 333.429421 151.269245 
L 335.016198 150.394205 
L 335.333554 150.334103 
L 335.968264 149.898163 
L 336.28562 149.831926 
L 336.920331 149.538595 
L 338.507107 148.781761 
L 338.824463 148.408808 
L 339.459174 148.077514 
L 339.776529 147.9123 
L 340.093884 147.896669 
L 340.41124 147.705145 
L 340.728595 147.319271 
L 341.998017 146.749195 
L 343.267438 146.258773 
L 343.902149 145.798376 
L 344.53686 145.525358 
L 344.854215 145.10948 
L 345.806281 144.676683 
L 346.123636 144.346946 
L 346.758347 144.09414 
L 347.075702 143.911469 
L 347.393058 143.500295 
L 348.345124 143.011918 
L 348.979835 142.437329 
L 349.931901 141.80495 
L 350.566612 141.545188 
L 350.883967 141.19076 
L 351.836033 140.764858 
L 352.788099 140.447705 
L 353.42281 139.978654 
L 353.740165 139.525572 
L 354.057521 139.50911 
L 355.009587 138.690322 
L 355.644298 138.425271 
L 355.961653 137.814659 
L 356.913719 137.599206 
L 357.54843 137.023749 
L 358.18314 136.496554 
L 359.135207 136.056138 
L 359.769917 135.813411 
L 360.404628 135.245093 
L 360.721983 134.54382 
L 361.356694 134.147772 
L 362.943471 132.952995 
L 363.260826 132.632346 
L 363.578182 132.505338 
L 364.212893 131.483736 
L 364.530248 131.403432 
L 365.164959 130.962797 
L 365.799669 130.735113 
L 367.703802 128.942903 
L 368.021157 128.364224 
L 368.338512 128.279039 
L 368.655868 127.866649 
L 369.290579 127.59385 
L 369.925289 126.975858 
L 371.194711 126.336208 
L 371.512066 125.251832 
L 371.829421 124.764395 
L 373.098843 124.093303 
L 373.416198 123.666385 
L 374.050909 123.305352 
L 374.368264 122.712573 
L 374.68562 122.588071 
L 376.907107 120.060624 
L 377.224463 119.877013 
L 377.859174 118.839806 
L 378.176529 118.428535 
L 378.493884 118.265636 
L 378.81124 117.56803 
L 379.44595 117.17502 
L 379.763306 116.659933 
L 380.398017 116.225878 
L 380.715372 115.770438 
L 381.032727 115.116764 
L 381.350083 114.927824 
L 381.667438 114.133 
L 382.93686 112.744816 
L 383.254215 112.577614 
L 384.523636 110.774372 
L 385.158347 109.498075 
L 385.475702 108.97073 
L 385.793058 108.797151 
L 386.427769 107.871044 
L 386.745124 107.343561 
L 387.062479 105.827889 
L 387.69719 104.752863 
L 388.014545 104.692999 
L 388.331901 103.710737 
L 388.649256 103.314357 
L 388.966612 102.317818 
L 389.601322 101.578158 
L 389.918678 100.987638 
L 390.236033 100.70512 
L 390.870744 99.396563 
L 391.188099 97.931198 
L 391.505455 97.378169 
L 391.82281 95.816395 
L 392.457521 94.938009 
L 393.092231 92.470664 
L 393.726942 90.321607 
L 394.044298 89.480829 
L 394.361653 89.016082 
L 394.679008 87.112144 
L 395.313719 84.797052 
L 395.631074 82.037981 
L 396.265785 79.189388 
L 396.58314 76.678598 
L 396.900496 76.328006 
L 397.535207 69.101236 
L 397.852562 66.288003 
L 398.169917 62.026671 
L 398.487273 53.568 
L 398.487273 53.568 
" clip-path="url(#p844aa5b3a5)" style="fill: none; stroke: #1f77b4; stroke-width: 1.5; stroke-linecap: square"/>
   </g>
   <g id="line2d_13">
    <path d="M 73.832727 221.442809 
L 74.150083 213.79453 
L 74.467438 213.79453 
L 74.784793 207.256712 
L 75.102149 205.89884 
L 75.73686 205.89884 
L 76.054215 203.452641 
L 76.37157 199.323243 
L 76.688926 199.069802 
L 77.006281 199.069802 
L 77.323636 198.430929 
L 78.910413 198.430929 
L 79.227769 196.101216 
L 79.545124 196.101216 
L 79.862479 195.257961 
L 80.179835 194.736894 
L 80.49719 194.736894 
L 80.814545 192.160801 
L 81.131901 190.94815 
L 82.083967 190.927289 
L 82.401322 190.209722 
L 86.844298 190.168982 
L 87.161653 189.776031 
L 87.479008 187.909314 
L 87.796364 187.496681 
L 88.113719 186.850368 
L 89.700496 186.850368 
L 90.017851 186.024697 
L 90.652562 186.024697 
L 90.969917 185.065557 
L 91.287273 185.065557 
L 91.604628 184.565851 
L 91.921983 183.280693 
L 99.221157 183.280693 
L 99.538512 182.514839 
L 99.855868 182.514839 
L 100.173223 182.333697 
L 101.76 182.333697 
L 102.077355 181.539934 
L 103.664132 181.539934 
L 103.981488 181.360907 
L 104.298843 181.051466 
L 104.933554 181.051466 
L 105.250909 179.962911 
L 106.202975 179.908077 
L 106.520331 177.451352 
L 107.155041 177.208565 
L 107.472397 177.208565 
L 107.789752 176.642928 
L 109.376529 176.642928 
L 109.693884 175.401376 
L 110.01124 175.401376 
L 110.328595 174.029846 
L 129.369917 174.029844 
L 129.687273 173.250473 
L 130.321983 172.517472 
L 131.27405 172.470712 
L 131.591405 171.833128 
L 131.90876 171.833128 
L 132.226116 171.687526 
L 132.860826 171.687526 
L 133.178182 170.460169 
L 133.495537 170.460169 
L 133.812893 170.203145 
L 135.399669 170.203145 
L 135.717025 169.156498 
L 136.669091 168.719411 
L 163.009587 168.719411 
L 163.326942 167.633148 
L 167.135207 167.633148 
L 167.452562 167.434619 
L 167.769917 167.434619 
L 168.087273 166.090135 
L 168.404628 166.090135 
L 168.721983 165.731288 
L 169.356694 165.731288 
L 169.67405 165.499723 
L 169.991405 164.945045 
L 171.578182 164.945045 
L 172.847603 164.388041 
L 180.146777 164.388041 
L 180.464132 164.10249 
L 180.781488 164.10249 
L 181.098843 163.822404 
L 182.68562 163.822404 
L 183.320331 161.20932 
L 185.541818 161.186048 
L 185.859174 161.034189 
L 186.493884 161.034189 
L 186.81124 160.804934 
L 187.128595 160.230256 
L 187.44595 160.230256 
L 187.763306 159.841069 
L 188.080661 159.841069 
L 188.398017 158.216141 
L 188.715372 155.898887 
L 283.604628 155.898887 
L 284.239339 151.956705 
L 284.556694 151.956705 
L 284.87405 151.567518 
L 285.191405 151.567518 
L 285.50876 150.99284 
L 285.826116 150.763585 
L 286.460826 150.763585 
L 286.778182 150.611725 
L 288.999669 150.588454 
L 289.63438 147.975369 
L 291.221157 147.975369 
L 291.538512 147.695283 
L 291.855868 147.695283 
L 292.173223 147.409732 
L 299.472397 147.409732 
L 299.789752 147.243813 
L 300.107107 147.243813 
L 300.741818 146.852728 
L 302.328595 146.852728 
L 302.64595 146.298051 
L 302.963306 146.066486 
L 303.598017 146.066486 
L 303.915372 145.707639 
L 304.232727 145.707639 
L 304.550083 144.363155 
L 304.867438 144.363155 
L 305.184793 144.164626 
L 308.993058 144.164626 
L 309.310413 143.078363 
L 335.968264 143.018725 
L 336.602975 142.641276 
L 336.920331 141.594628 
L 338.507107 141.594628 
L 338.824463 141.337605 
L 339.141818 141.337605 
L 339.459174 140.110248 
L 340.093884 140.110248 
L 340.41124 139.964646 
L 340.728595 139.964646 
L 341.04595 139.327062 
L 341.998017 139.280302 
L 342.315372 138.996633 
L 342.632727 138.547301 
L 342.950083 137.76793 
L 361.991405 137.767928 
L 362.30876 136.396397 
L 362.626116 136.396397 
L 362.943471 135.154846 
L 364.530248 135.154846 
L 364.847603 134.589208 
L 365.482314 134.49163 
L 365.799669 134.346422 
L 366.117025 131.889697 
L 367.069091 131.834862 
L 367.386446 130.746308 
L 368.021157 130.746308 
L 368.655868 130.257839 
L 370.242645 130.257839 
L 370.56 129.464076 
L 372.146777 129.464076 
L 372.464132 129.282935 
L 372.781488 129.282935 
L 373.098843 128.517081 
L 380.398017 128.517081 
L 380.715372 127.231922 
L 381.032727 126.732217 
L 381.350083 126.732217 
L 381.667438 125.773077 
L 382.302149 125.773077 
L 382.619504 124.947406 
L 384.206281 124.947406 
L 384.840992 123.88846 
L 385.158347 122.021742 
L 385.475702 121.628792 
L 389.918678 121.588051 
L 390.236033 120.870484 
L 391.188099 120.849624 
L 391.505455 119.636973 
L 391.82281 117.060879 
L 392.140165 117.060879 
L 392.457521 116.539812 
L 392.774876 115.696557 
L 393.092231 115.696557 
L 393.409587 113.366844 
L 394.996364 113.366844 
L 395.313719 112.727972 
L 395.631074 112.727972 
L 395.94843 112.47453 
L 396.265785 108.345133 
L 396.58314 105.898934 
L 397.217851 105.898934 
L 397.535207 104.541061 
L 397.852562 98.003244 
L 398.169917 98.003244 
L 398.487273 90.354965 
L 398.487273 90.354965 
" clip-path="url(#p844aa5b3a5)" style="fill: none; stroke: #ff7f0e; stroke-width: 1.5; stroke-linecap: square"/>
   </g>
   <g id="patch_3">
    <path d="M 57.6 307.584 
L 57.6 41.472 
" style="fill: none; stroke: #000000; stroke-width: 0.8; stroke-linejoin: miter; stroke-linecap: square"/>
   </g>
   <g id="patch_4">
    <path d="M 414.72 307.584 
L 414.72 41.472 
" style="fill: none; stroke: #000000; stroke-width: 0.8; stroke-linejoin: miter; stroke-linecap: square"/>
   </g>
   <g id="patch_5">
    <path d="M 57.6 307.584 
L 414.72 307.584 
" style="fill: none; stroke: #000000; stroke-width: 0.8; stroke-linejoin: miter; stroke-linecap: square"/>
   </g>
   <g id="patch_6">
    <path d="M 57.6 41.472 
L 414.72 41.472 
" style="fill: none; stroke: #000000; stroke-width: 0.8; stroke-linejoin: miter; stroke-linecap: square"/>
   </g>
   <g id="legend_1">
    <g id="patch_7">
     <path d="M 64.6 78.82825 
L 129.342187 78.82825 
Q 131.342187 78.82825 131.342187 76.82825 
L 131.342187 48.472 
Q 131.342187 46.472 129.342187 46.472 
L 64.6 46.472 
Q 62.6 46.472 62.6 48.472 
L 62.6 76.82825 
Q 62.6 78.82825 64.6 78.82825 
z
" style="fill: #ffffff; opacity: 0.8; stroke: #cccccc; stroke-linejoin: miter"/>
    </g>
    <g id="line2d_14">
     <path d="M 66.6 54.570437 
L 76.6 54.570437 
L 86.6 54.570437 
" style="fill: none; stroke: #1f77b4; stroke-width: 1.5; stroke-linecap: square"/>
    </g>
    <g id="text_14">
     <!-- qc -->
     <g transform="translate(94.6 58.070437) scale(0.1 -0.1)">
      <defs>
       <path id="DejaVuSans-71" d="M 947 1747 
Q 947 1113 1208 752 
Q 1469 391 1925 391 
Q 2381 391 2643 752 
Q 2906 1113 2906 1747 
Q 2906 2381 2643 2742 
Q 2381 3103 1925 3103 
Q 1469 3103 1208 2742 
Q 947 2381 947 1747 
z
M 2906 525 
Q 2725 213 2448 61 
Q 2172 -91 1784 -91 
Q 1150 -91 751 415 
Q 353 922 353 1747 
Q 353 2572 751 3078 
Q 1150 3584 1784 3584 
Q 2172 3584 2448 3432 
Q 2725 3281 2906 2969 
L 2906 3500 
L 3481 3500 
L 3481 -1331 
L 2906 -1331 
L 2906 525 
z
" transform="scale(0.015625)"/>
       <path id="DejaVuSans-63" d="M 3122 3366 
L 3122 2828 
Q 2878 2963 2633 3030 
Q 2388 3097 2138 3097 
Q 1578 3097 1268 2742 
Q 959 2388 959 1747 
Q 959 1106 1268 751 
Q 1578 397 2138 397 
Q 2388 397 2633 464 
Q 2878 531 3122 666 
L 3122 134 
Q 2881 22 2623 -34 
Q 2366 -91 2075 -91 
Q 1284 -91 818 406 
Q 353 903 353 1747 
Q 353 2603 823 3093 
Q 1294 3584 2113 3584 
Q 2378 3584 2631 3529 
Q 2884 3475 3122 3366 
z
" transform="scale(0.015625)"/>
      </defs>
      <use xlink:href="#DejaVuSans-71"/>
      <use xlink:href="#DejaVuSans-63" x="63.476562"/>
     </g>
    </g>
    <g id="line2d_15">
     <path d="M 66.6 69.248562 
L 76.6 69.248562 
L 86.6 69.248562 
" style="fill: none; stroke: #ff7f0e; stroke-width: 1.5; stroke-linecap: square"/>
    </g>
    <g id="text_15">
     <!-- Trotter -->
     <g transform="translate(94.6 72.748562) scale(0.1 -0.1)">
      <defs>
       <path id="DejaVuSans-54" d="M -19 4666 
L 3928 4666 
L 3928 4134 
L 2272 4134 
L 2272 0 
L 1638 0 
L 1638 4134 
L -19 4134 
L -19 4666 
z
" transform="scale(0.015625)"/>
       <path id="DejaVuSans-72" d="M 2631 2963 
Q 2534 3019 2420 3045 
Q 2306 3072 2169 3072 
Q 1681 3072 1420 2755 
Q 1159 2438 1159 1844 
L 1159 0 
L 581 0 
L 581 3500 
L 1159 3500 
L 1159 2956 
Q 1341 3275 1631 3429 
Q 1922 3584 2338 3584 
Q 2397 3584 2469 3576 
Q 2541 3569 2628 3553 
L 2631 2963 
z
" transform="scale(0.015625)"/>
       <path id="DejaVuSans-6f" d="M 1959 3097 
Q 1497 3097 1228 2736 
Q 959 2375 959 1747 
Q 959 1119 1226 758 
Q 1494 397 1959 397 
Q 2419 397 2687 759 
Q 2956 1122 2956 1747 
Q 2956 2369 2687 2733 
Q 2419 3097 1959 3097 
z
M 1959 3584 
Q 2709 3584 3137 3096 
Q 3566 2609 3566 1747 
Q 3566 888 3137 398 
Q 2709 -91 1959 -91 
Q 1206 -91 779 398 
Q 353 888 353 1747 
Q 353 2609 779 3096 
Q 1206 3584 1959 3584 
z
" transform="scale(0.015625)"/>
       <path id="DejaVuSans-65" d="M 3597 1894 
L 3597 1613 
L 953 1613 
Q 991 1019 1311 708 
Q 1631 397 2203 397 
Q 2534 397 2845 478 
Q 3156 559 3463 722 
L 3463 178 
Q 3153 47 2828 -22 
Q 2503 -91 2169 -91 
Q 1331 -91 842 396 
Q 353 884 353 1716 
Q 353 2575 817 3079 
Q 1281 3584 2069 3584 
Q 2775 3584 3186 3129 
Q 3597 2675 3597 1894 
z
M 3022 2063 
Q 3016 2534 2758 2815 
Q 2500 3097 2075 3097 
Q 1594 3097 1305 2825 
Q 1016 2553 972 2059 
L 3022 2063 
z
" transform="scale(0.015625)"/>
      </defs>
      <use xlink:href="#DejaVuSans-54"/>
      <use xlink:href="#DejaVuSans-72" x="46.333984"/>
      <use xlink:href="#DejaVuSans-6f" x="85.197266"/>
      <use xlink:href="#DejaVuSans-74" x="146.378906"/>
      <use xlink:href="#DejaVuSans-74" x="185.587891"/>
      <use xlink:href="#DejaVuSans-65" x="224.796875"/>
      <use xlink:href="#DejaVuSans-72" x="286.320312"/>
     </g>
    </g>
   </g>
  </g>
 </g>
 <defs>
  <clipPath id="p844aa5b3a5">
   <rect x="57.6" y="41.472" width="357.12" height="266.112"/>
  </clipPath>
 </defs>
</svg>
