<?xml version="1.0" encoding="utf-8" standalone="no"?>
<!DOCTYPE svg PUBLIC "-//W3C//DTD SVG 1.1//EN"
  "http://www.w3.org/Graphics/SVG/1.1/DTD/svg11.dtd">
<svg xmlns:xlink="http://www.w3.org/1999/xlink" width="460.8pt" height="345.6pt" viewBox="0 0 460.8 345.6" xmlns="http://www.w3.org/2000/svg" version="1.1">
 <metadata>
  <rdf:RDF xmlns:dc="http://purl.org/dc/elements/1.1/" xmlns:cc="http://creativecommons.org/ns#" xmlns:rdf="http://www.w3.org/1999/02/22-rdf-syntax-ns#">
   <cc:Work>
    <dc:type rdf:resource="http://purl.org/dc/dcmitype/StillImage"/>
    <dc:date>2024-08-17T12:40:27.343549</dc:date>
    <dc:format>image/svg+xml</dc:format>
    <dc:creator>
     <cc:Agent>
      <dc:title>Matplotlib v3.7.1, https://matplotlib.org/</dc:title>
     </cc:Agent>
    </dc:creator>
   </cc:Work>
  </rdf:RDF>
 </metadata>
 <defs>
  <style type="text/css">*{stroke-linejoin: round; stroke-linecap: butt}</style>
 </defs>
 <g id="figure_1">
  <g id="patch_1">
   <path d="M 0 345.6 
L 460.8 345.6 
L 460.8 0 
L 0 0 
z
" style="fill: #ffffff"/>
  </g>
  <g id="axes_1">
   <g id="patch_2">
    <path d="M 57.6 307.584 
L 414.72 307.584 
L 414.72 41.472 
L 57.6 41.472 
z
" style="fill: #ffffff"/>
   </g>
   <g id="matplotlib.axis_1">
    <g id="xtick_1">
     <g id="line2d_1">
      <defs>
       <path id="me6bed70f68" d="M 0 0 
L 0 3.5 
" style="stroke: #000000; stroke-width: 0.8"/>
      </defs>
      <g>
       <use xlink:href="#me6bed70f68" x="73.832727" y="307.584" style="stroke: #000000; stroke-width: 0.8"/>
      </g>
     </g>
     <g id="text_1">
      <!-- 0 -->
      <g transform="translate(70.651477 322.182437) scale(0.1 -0.1)">
       <defs>
        <path id="DejaVuSans-30" d="M 2034 4250 
Q 1547 4250 1301 3770 
Q 1056 3291 1056 2328 
Q 1056 1369 1301 889 
Q 1547 409 2034 409 
Q 2525 409 2770 889 
Q 3016 1369 3016 2328 
Q 3016 3291 2770 3770 
Q 2525 4250 2034 4250 
z
M 2034 4750 
Q 2819 4750 3233 4129 
Q 3647 3509 3647 2328 
Q 3647 1150 3233 529 
Q 2819 -91 2034 -91 
Q 1250 -91 836 529 
Q 422 1150 422 2328 
Q 422 3509 836 4129 
Q 1250 4750 2034 4750 
z
" transform="scale(0.015625)"/>
       </defs>
       <use xlink:href="#DejaVuSans-30"/>
      </g>
     </g>
    </g>
    <g id="xtick_2">
     <g id="line2d_2">
      <g>
       <use xlink:href="#me6bed70f68" x="137.303802" y="307.584" style="stroke: #000000; stroke-width: 0.8"/>
      </g>
     </g>
     <g id="text_2">
      <!-- 200 -->
      <g transform="translate(127.760052 322.182437) scale(0.1 -0.1)">
       <defs>
        <path id="DejaVuSans-32" d="M 1228 531 
L 3431 531 
L 3431 0 
L 469 0 
L 469 531 
Q 828 903 1448 1529 
Q 2069 2156 2228 2338 
Q 2531 2678 2651 2914 
Q 2772 3150 2772 3378 
Q 2772 3750 2511 3984 
Q 2250 4219 1831 4219 
Q 1534 4219 1204 4116 
Q 875 4013 500 3803 
L 500 4441 
Q 881 4594 1212 4672 
Q 1544 4750 1819 4750 
Q 2544 4750 2975 4387 
Q 3406 4025 3406 3419 
Q 3406 3131 3298 2873 
Q 3191 2616 2906 2266 
Q 2828 2175 2409 1742 
Q 1991 1309 1228 531 
z
" transform="scale(0.015625)"/>
       </defs>
       <use xlink:href="#DejaVuSans-32"/>
       <use xlink:href="#DejaVuSans-30" x="63.623047"/>
       <use xlink:href="#DejaVuSans-30" x="127.246094"/>
      </g>
     </g>
    </g>
    <g id="xtick_3">
     <g id="line2d_3">
      <g>
       <use xlink:href="#me6bed70f68" x="200.774876" y="307.584" style="stroke: #000000; stroke-width: 0.8"/>
      </g>
     </g>
     <g id="text_3">
      <!-- 400 -->
      <g transform="translate(191.231126 322.182437) scale(0.1 -0.1)">
       <defs>
        <path id="DejaVuSans-34" d="M 2419 4116 
L 825 1625 
L 2419 1625 
L 2419 4116 
z
M 2253 4666 
L 3047 4666 
L 3047 1625 
L 3713 1625 
L 3713 1100 
L 3047 1100 
L 3047 0 
L 2419 0 
L 2419 1100 
L 313 1100 
L 313 1709 
L 2253 4666 
z
" transform="scale(0.015625)"/>
       </defs>
       <use xlink:href="#DejaVuSans-34"/>
       <use xlink:href="#DejaVuSans-30" x="63.623047"/>
       <use xlink:href="#DejaVuSans-30" x="127.246094"/>
      </g>
     </g>
    </g>
    <g id="xtick_4">
     <g id="line2d_4">
      <g>
       <use xlink:href="#me6bed70f68" x="264.24595" y="307.584" style="stroke: #000000; stroke-width: 0.8"/>
      </g>
     </g>
     <g id="text_4">
      <!-- 600 -->
      <g transform="translate(254.7022 322.182437) scale(0.1 -0.1)">
       <defs>
        <path id="DejaVuSans-36" d="M 2113 2584 
Q 1688 2584 1439 2293 
Q 1191 2003 1191 1497 
Q 1191 994 1439 701 
Q 1688 409 2113 409 
Q 2538 409 2786 701 
Q 3034 994 3034 1497 
Q 3034 2003 2786 2293 
Q 2538 2584 2113 2584 
z
M 3366 4563 
L 3366 3988 
Q 3128 4100 2886 4159 
Q 2644 4219 2406 4219 
Q 1781 4219 1451 3797 
Q 1122 3375 1075 2522 
Q 1259 2794 1537 2939 
Q 1816 3084 2150 3084 
Q 2853 3084 3261 2657 
Q 3669 2231 3669 1497 
Q 3669 778 3244 343 
Q 2819 -91 2113 -91 
Q 1303 -91 875 529 
Q 447 1150 447 2328 
Q 447 3434 972 4092 
Q 1497 4750 2381 4750 
Q 2619 4750 2861 4703 
Q 3103 4656 3366 4563 
z
" transform="scale(0.015625)"/>
       </defs>
       <use xlink:href="#DejaVuSans-36"/>
       <use xlink:href="#DejaVuSans-30" x="63.623047"/>
       <use xlink:href="#DejaVuSans-30" x="127.246094"/>
      </g>
     </g>
    </g>
    <g id="xtick_5">
     <g id="line2d_5">
      <g>
       <use xlink:href="#me6bed70f68" x="327.717025" y="307.584" style="stroke: #000000; stroke-width: 0.8"/>
      </g>
     </g>
     <g id="text_5">
      <!-- 800 -->
      <g transform="translate(318.173275 322.182437) scale(0.1 -0.1)">
       <defs>
        <path id="DejaVuSans-38" d="M 2034 2216 
Q 1584 2216 1326 1975 
Q 1069 1734 1069 1313 
Q 1069 891 1326 650 
Q 1584 409 2034 409 
Q 2484 409 2743 651 
Q 3003 894 3003 1313 
Q 3003 1734 2745 1975 
Q 2488 2216 2034 2216 
z
M 1403 2484 
Q 997 2584 770 2862 
Q 544 3141 544 3541 
Q 544 4100 942 4425 
Q 1341 4750 2034 4750 
Q 2731 4750 3128 4425 
Q 3525 4100 3525 3541 
Q 3525 3141 3298 2862 
Q 3072 2584 2669 2484 
Q 3125 2378 3379 2068 
Q 3634 1759 3634 1313 
Q 3634 634 3220 271 
Q 2806 -91 2034 -91 
Q 1263 -91 848 271 
Q 434 634 434 1313 
Q 434 1759 690 2068 
Q 947 2378 1403 2484 
z
M 1172 3481 
Q 1172 3119 1398 2916 
Q 1625 2713 2034 2713 
Q 2441 2713 2670 2916 
Q 2900 3119 2900 3481 
Q 2900 3844 2670 4047 
Q 2441 4250 2034 4250 
Q 1625 4250 1398 4047 
Q 1172 3844 1172 3481 
z
" transform="scale(0.015625)"/>
       </defs>
       <use xlink:href="#DejaVuSans-38"/>
       <use xlink:href="#DejaVuSans-30" x="63.623047"/>
       <use xlink:href="#DejaVuSans-30" x="127.246094"/>
      </g>
     </g>
    </g>
    <g id="xtick_6">
     <g id="line2d_6">
      <g>
       <use xlink:href="#me6bed70f68" x="391.188099" y="307.584" style="stroke: #000000; stroke-width: 0.8"/>
      </g>
     </g>
     <g id="text_6">
      <!-- 1000 -->
      <g transform="translate(378.463099 322.182437) scale(0.1 -0.1)">
       <defs>
        <path id="DejaVuSans-31" d="M 794 531 
L 1825 531 
L 1825 4091 
L 703 3866 
L 703 4441 
L 1819 4666 
L 2450 4666 
L 2450 531 
L 3481 531 
L 3481 0 
L 794 0 
L 794 531 
z
" transform="scale(0.015625)"/>
       </defs>
       <use xlink:href="#DejaVuSans-31"/>
       <use xlink:href="#DejaVuSans-30" x="63.623047"/>
       <use xlink:href="#DejaVuSans-30" x="127.246094"/>
       <use xlink:href="#DejaVuSans-30" x="190.869141"/>
      </g>
     </g>
    </g>
    <g id="text_7">
     <!-- n -->
     <g transform="translate(232.99125 335.860562) scale(0.1 -0.1)">
      <defs>
       <path id="DejaVuSans-6e" d="M 3513 2113 
L 3513 0 
L 2938 0 
L 2938 2094 
Q 2938 2591 2744 2837 
Q 2550 3084 2163 3084 
Q 1697 3084 1428 2787 
Q 1159 2491 1159 1978 
L 1159 0 
L 581 0 
L 581 3500 
L 1159 3500 
L 1159 2956 
Q 1366 3272 1645 3428 
Q 1925 3584 2291 3584 
Q 2894 3584 3203 3211 
Q 3513 2838 3513 2113 
z
" transform="scale(0.015625)"/>
      </defs>
      <use xlink:href="#DejaVuSans-6e"/>
     </g>
    </g>
   </g>
   <g id="matplotlib.axis_2">
    <g id="ytick_1">
     <g id="line2d_7">
      <defs>
       <path id="m498f6c7cf3" d="M 0 0 
L -3.5 0 
" style="stroke: #000000; stroke-width: 0.8"/>
      </defs>
      <g>
       <use xlink:href="#m498f6c7cf3" x="57.6" y="290.241495" style="stroke: #000000; stroke-width: 0.8"/>
      </g>
     </g>
     <g id="text_8">
      <!-- −3 -->
      <g transform="translate(35.857813 294.040713) scale(0.1 -0.1)">
       <defs>
        <path id="DejaVuSans-2212" d="M 678 2272 
L 4684 2272 
L 4684 1741 
L 678 1741 
L 678 2272 
z
" transform="scale(0.015625)"/>
        <path id="DejaVuSans-33" d="M 2597 2516 
Q 3050 2419 3304 2112 
Q 3559 1806 3559 1356 
Q 3559 666 3084 287 
Q 2609 -91 1734 -91 
Q 1441 -91 1130 -33 
Q 819 25 488 141 
L 488 750 
Q 750 597 1062 519 
Q 1375 441 1716 441 
Q 2309 441 2620 675 
Q 2931 909 2931 1356 
Q 2931 1769 2642 2001 
Q 2353 2234 1838 2234 
L 1294 2234 
L 1294 2753 
L 1863 2753 
Q 2328 2753 2575 2939 
Q 2822 3125 2822 3475 
Q 2822 3834 2567 4026 
Q 2313 4219 1838 4219 
Q 1578 4219 1281 4162 
Q 984 4106 628 3988 
L 628 4550 
Q 988 4650 1302 4700 
Q 1616 4750 1894 4750 
Q 2613 4750 3031 4423 
Q 3450 4097 3450 3541 
Q 3450 3153 3228 2886 
Q 3006 2619 2597 2516 
z
" transform="scale(0.015625)"/>
       </defs>
       <use xlink:href="#DejaVuSans-2212"/>
       <use xlink:href="#DejaVuSans-33" x="83.789062"/>
      </g>
     </g>
    </g>
    <g id="ytick_2">
     <g id="line2d_8">
      <g>
       <use xlink:href="#m498f6c7cf3" x="57.6" y="251.669772" style="stroke: #000000; stroke-width: 0.8"/>
      </g>
     </g>
     <g id="text_9">
      <!-- −2 -->
      <g transform="translate(35.857813 255.468991) scale(0.1 -0.1)">
       <use xlink:href="#DejaVuSans-2212"/>
       <use xlink:href="#DejaVuSans-32" x="83.789062"/>
      </g>
     </g>
    </g>
    <g id="ytick_3">
     <g id="line2d_9">
      <g>
       <use xlink:href="#m498f6c7cf3" x="57.6" y="213.09805" style="stroke: #000000; stroke-width: 0.8"/>
      </g>
     </g>
     <g id="text_10">
      <!-- −1 -->
      <g transform="translate(35.857813 216.897268) scale(0.1 -0.1)">
       <use xlink:href="#DejaVuSans-2212"/>
       <use xlink:href="#DejaVuSans-31" x="83.789062"/>
      </g>
     </g>
    </g>
    <g id="ytick_4">
     <g id="line2d_10">
      <g>
       <use xlink:href="#m498f6c7cf3" x="57.6" y="174.526327" style="stroke: #000000; stroke-width: 0.8"/>
      </g>
     </g>
     <g id="text_11">
      <!-- 0 -->
      <g transform="translate(44.2375 178.325546) scale(0.1 -0.1)">
       <use xlink:href="#DejaVuSans-30"/>
      </g>
     </g>
    </g>
    <g id="ytick_5">
     <g id="line2d_11">
      <g>
       <use xlink:href="#m498f6c7cf3" x="57.6" y="135.954605" style="stroke: #000000; stroke-width: 0.8"/>
      </g>
     </g>
     <g id="text_12">
      <!-- 1 -->
      <g transform="translate(44.2375 139.753824) scale(0.1 -0.1)">
       <use xlink:href="#DejaVuSans-31"/>
      </g>
     </g>
    </g>
    <g id="ytick_6">
     <g id="line2d_12">
      <g>
       <use xlink:href="#m498f6c7cf3" x="57.6" y="97.382882" style="stroke: #000000; stroke-width: 0.8"/>
      </g>
     </g>
     <g id="text_13">
      <!-- 2 -->
      <g transform="translate(44.2375 101.182101) scale(0.1 -0.1)">
       <use xlink:href="#DejaVuSans-32"/>
      </g>
     </g>
    </g>
    <g id="ytick_7">
     <g id="line2d_13">
      <g>
       <use xlink:href="#m498f6c7cf3" x="57.6" y="58.81116" style="stroke: #000000; stroke-width: 0.8"/>
      </g>
     </g>
     <g id="text_14">
      <!-- 3 -->
      <g transform="translate(44.2375 62.610379) scale(0.1 -0.1)">
       <use xlink:href="#DejaVuSans-33"/>
      </g>
     </g>
    </g>
    <g id="text_15">
     <!-- E*t -->
     <g transform="translate(29.778125 182.147531) rotate(-90) scale(0.1 -0.1)">
      <defs>
       <path id="DejaVuSans-45" d="M 628 4666 
L 3578 4666 
L 3578 4134 
L 1259 4134 
L 1259 2753 
L 3481 2753 
L 3481 2222 
L 1259 2222 
L 1259 531 
L 3634 531 
L 3634 0 
L 628 0 
L 628 4666 
z
" transform="scale(0.015625)"/>
       <path id="DejaVuSans-2a" d="M 3009 3897 
L 1888 3291 
L 3009 2681 
L 2828 2375 
L 1778 3009 
L 1778 1831 
L 1422 1831 
L 1422 3009 
L 372 2375 
L 191 2681 
L 1313 3291 
L 191 3897 
L 372 4206 
L 1422 3572 
L 1422 4750 
L 1778 4750 
L 1778 3572 
L 2828 4206 
L 3009 3897 
z
" transform="scale(0.015625)"/>
       <path id="DejaVuSans-74" d="M 1172 4494 
L 1172 3500 
L 2356 3500 
L 2356 3053 
L 1172 3053 
L 1172 1153 
Q 1172 725 1289 603 
Q 1406 481 1766 481 
L 2356 481 
L 2356 0 
L 1766 0 
Q 1100 0 847 248 
Q 594 497 594 1153 
L 594 3053 
L 172 3053 
L 172 3500 
L 594 3500 
L 594 4494 
L 1172 4494 
z
" transform="scale(0.015625)"/>
      </defs>
      <use xlink:href="#DejaVuSans-45"/>
      <use xlink:href="#DejaVuSans-2a" x="63.183594"/>
      <use xlink:href="#DejaVuSans-74" x="113.183594"/>
     </g>
    </g>
   </g>
   <g id="line2d_14">
    <path d="M 73.832727 295.488 
L 75.419504 294.940203 
L 76.37157 294.678204 
L 76.688926 294.546709 
L 77.006281 294.232126 
L 77.958347 293.890109 
L 78.275702 293.528837 
L 78.910413 293.38559 
L 79.227769 292.76141 
L 79.545124 291.195159 
L 79.862479 290.676671 
L 81.131901 290.204609 
L 81.449256 289.700325 
L 82.718678 288.896048 
L 83.036033 288.619813 
L 83.353388 288.584506 
L 83.670744 288.033627 
L 84.305455 287.638834 
L 84.940165 287.489445 
L 85.574876 287.151861 
L 85.892231 286.876182 
L 87.161653 286.6181 
L 87.479008 286.270144 
L 87.796364 286.25045 
L 88.113719 284.70953 
L 88.74843 284.482218 
L 89.38314 284.192815 
L 89.700496 283.739343 
L 90.017851 283.682995 
L 90.969917 282.099183 
L 91.921983 281.955637 
L 92.239339 281.349876 
L 94.143471 279.967541 
L 94.460826 279.510017 
L 94.778182 279.388823 
L 95.095537 279.04755 
L 95.730248 278.804271 
L 96.047603 278.413819 
L 97.63438 277.891579 
L 97.951736 277.117541 
L 98.903802 276.653453 
L 99.221157 276.390152 
L 99.538512 275.801862 
L 99.855868 275.779877 
L 100.490579 275.352713 
L 100.807934 274.806659 
L 101.442645 274.566762 
L 101.76 274.220781 
L 102.394711 274.050696 
L 103.029421 273.801993 
L 103.346777 273.746199 
L 104.298843 273.251026 
L 104.933554 273.143794 
L 105.250909 272.20792 
L 105.568264 272.066028 
L 106.520331 270.775471 
L 106.837686 270.165958 
L 107.472397 269.810514 
L 107.789752 269.782536 
L 108.107107 269.614755 
L 109.059174 269.505401 
L 110.01124 268.887199 
L 110.328595 268.165139 
L 111.598017 267.797676 
L 112.550083 266.974526 
L 113.184793 266.755661 
L 113.502149 266.432046 
L 114.454215 266.050828 
L 114.77157 265.769627 
L 115.406281 265.55055 
L 116.040992 264.628 
L 116.675702 264.07499 
L 116.993058 263.505189 
L 117.627769 263.404089 
L 117.945124 263.043424 
L 118.579835 262.801804 
L 118.89719 262.29833 
L 119.214545 262.240246 
L 119.531901 261.360575 
L 120.166612 261.289396 
L 120.483967 260.424212 
L 120.801322 260.340821 
L 121.118678 259.828068 
L 122.070744 259.049563 
L 123.340165 258.839363 
L 123.974876 258.469881 
L 124.609587 258.241874 
L 125.244298 256.837104 
L 125.879008 256.752121 
L 126.196364 256.397911 
L 126.831074 256.197414 
L 127.14843 256.087769 
L 127.465785 255.561189 
L 128.417851 255.134896 
L 128.735207 254.797853 
L 130.004628 254.459648 
L 130.321983 254.209789 
L 130.639339 253.586729 
L 130.956694 253.283367 
L 131.27405 252.33653 
L 131.90876 251.905238 
L 132.860826 251.808544 
L 133.178182 251.696575 
L 134.447603 249.879709 
L 135.082314 249.615696 
L 136.03438 248.919682 
L 136.669091 248.817359 
L 136.986446 248.632888 
L 137.303802 248.586983 
L 137.938512 248.132494 
L 138.255868 247.920131 
L 138.573223 247.894948 
L 139.207934 247.482882 
L 139.525289 247.213142 
L 139.842645 245.803828 
L 140.794711 245.606201 
L 141.112066 245.381913 
L 141.746777 245.156164 
L 142.064132 244.910342 
L 142.381488 244.861933 
L 143.650909 243.418497 
L 144.28562 243.159735 
L 144.602975 243.110053 
L 145.555041 242.126358 
L 146.189752 241.223823 
L 146.507107 241.172747 
L 147.459174 240.194838 
L 148.093884 240.057901 
L 148.41124 239.979373 
L 148.728595 239.405071 
L 149.680661 239.311364 
L 150.315372 239.085655 
L 150.632727 238.224948 
L 150.950083 238.082091 
L 151.267438 237.652402 
L 152.219504 237.105249 
L 152.53686 237.074316 
L 152.854215 236.771086 
L 153.17157 236.751418 
L 153.488926 236.578949 
L 153.806281 235.889285 
L 154.123636 235.530069 
L 154.758347 235.449578 
L 156.345124 234.021254 
L 156.979835 233.757541 
L 157.29719 233.210016 
L 157.931901 232.980845 
L 158.566612 232.395337 
L 159.518678 231.205342 
L 160.153388 230.938893 
L 161.105455 230.673275 
L 161.740165 230.161044 
L 162.057521 230.093131 
L 162.374876 229.391535 
L 163.009587 229.291884 
L 163.326942 228.876255 
L 163.644298 228.714792 
L 164.279008 228.0326 
L 165.54843 227.830557 
L 165.865785 227.521163 
L 166.18314 227.479863 
L 166.500496 227.152563 
L 167.135207 226.912224 
L 167.452562 226.877861 
L 167.769917 226.532403 
L 168.721983 226.133263 
L 169.039339 225.664351 
L 169.356694 225.579123 
L 170.30876 224.293157 
L 171.260826 223.913377 
L 171.578182 223.581535 
L 171.895537 222.361987 
L 172.847603 222.076898 
L 173.164959 221.731187 
L 173.482314 221.63854 
L 174.43438 220.350099 
L 175.386446 220.215864 
L 175.703802 219.838979 
L 176.338512 219.776214 
L 176.973223 219.505772 
L 177.290579 219.351662 
L 177.607934 218.606601 
L 177.925289 218.513971 
L 178.242645 218.234174 
L 178.56 218.188213 
L 178.877355 217.696583 
L 180.146777 217.417197 
L 180.464132 217.062852 
L 181.733554 216.496144 
L 182.050909 216.001513 
L 182.68562 215.888797 
L 183.320331 215.151349 
L 183.637686 214.480509 
L 184.272397 214.392947 
L 184.589752 213.584555 
L 185.541818 213.129269 
L 185.859174 213.080837 
L 186.176529 212.645065 
L 186.81124 212.367518 
L 187.128595 211.929337 
L 187.44595 211.88283 
L 187.763306 211.343692 
L 188.080661 211.053803 
L 188.398017 211.048189 
L 188.715372 210.572823 
L 189.350083 210.174167 
L 189.984793 210.008784 
L 190.619504 209.778385 
L 190.93686 209.59678 
L 191.254215 209.253995 
L 191.888926 208.909356 
L 192.840992 208.279619 
L 193.158347 208.251423 
L 193.793058 207.21491 
L 194.427769 207.026123 
L 195.379835 206.910603 
L 195.69719 206.472711 
L 196.014545 206.271206 
L 196.331901 205.591344 
L 196.649256 204.480815 
L 196.966612 204.323585 
L 198.236033 203.170584 
L 198.553388 202.559896 
L 198.870744 202.313569 
L 199.505455 202.203788 
L 199.82281 201.435065 
L 200.457521 201.343524 
L 202.361653 200.351714 
L 202.996364 200.310039 
L 203.313719 199.418341 
L 204.900496 198.418212 
L 206.487273 197.548283 
L 206.804628 196.831376 
L 207.439339 196.791377 
L 208.07405 196.489809 
L 208.70876 195.85326 
L 209.026116 195.700693 
L 209.343471 195.676265 
L 209.660826 195.262928 
L 210.295537 194.98038 
L 210.930248 194.625489 
L 211.247603 194.31294 
L 211.564959 194.236348 
L 211.882314 193.526423 
L 212.199669 193.365634 
L 212.83438 192.336445 
L 213.786446 192.137469 
L 214.103802 191.483945 
L 214.738512 191.322437 
L 215.373223 190.527395 
L 216.325289 190.063935 
L 216.96 189.550803 
L 218.546777 189.182064 
L 218.864132 188.908716 
L 219.498843 188.859861 
L 219.816198 188.537298 
L 220.133554 188.458241 
L 220.450909 188.168162 
L 220.768264 187.636467 
L 221.08562 187.418977 
L 221.720331 187.340853 
L 222.037686 186.81251 
L 222.672397 186.374017 
L 222.989752 186.320244 
L 223.307107 185.570584 
L 223.624463 185.366744 
L 223.941818 185.310741 
L 224.576529 184.748513 
L 224.893884 183.689038 
L 225.528595 182.877352 
L 226.163306 182.661156 
L 226.480661 182.146787 
L 228.702149 181.720648 
L 229.019504 180.963045 
L 229.97157 180.788439 
L 230.288926 180.694104 
L 230.606281 179.805001 
L 230.923636 179.728453 
L 232.193058 178.681418 
L 232.510413 178.52386 
L 232.827769 178.010208 
L 233.145124 177.841202 
L 233.462479 177.447073 
L 234.09719 177.250938 
L 234.414545 176.81703 
L 234.731901 176.186362 
L 235.049256 176.169643 
L 235.366612 175.737867 
L 236.001322 175.482346 
L 236.318678 174.748241 
L 237.588099 174.419844 
L 237.905455 173.764759 
L 238.22281 173.583994 
L 238.857521 173.445635 
L 239.809587 172.63076 
L 240.444298 172.019808 
L 240.761653 171.729239 
L 241.396364 171.446163 
L 242.34843 171.058885 
L 242.665785 170.175944 
L 242.98314 169.68691 
L 244.569917 168.584143 
L 245.521983 168.244268 
L 246.47405 168.159383 
L 247.10876 167.822554 
L 248.060826 167.65346 
L 248.378182 167.276888 
L 248.695537 167.195857 
L 249.012893 165.589086 
L 249.330248 165.099275 
L 251.23438 164.220412 
L 251.551736 163.649595 
L 252.186446 163.56288 
L 252.503802 162.677002 
L 253.138512 162.565724 
L 254.090579 162.36296 
L 254.407934 162.083025 
L 255.36 161.807323 
L 256.629421 160.860141 
L 257.581488 159.718993 
L 258.216198 159.656278 
L 258.533554 159.480361 
L 259.168264 158.655163 
L 259.802975 158.232777 
L 260.120331 158.195499 
L 260.437686 157.786583 
L 260.755041 157.640012 
L 261.072397 157.081211 
L 261.389752 156.909038 
L 262.024463 156.759995 
L 262.341818 156.09645 
L 262.659174 155.838627 
L 263.293884 155.746303 
L 263.928595 155.521337 
L 264.24595 154.961518 
L 265.198017 154.412937 
L 265.515372 153.658749 
L 266.150083 153.532784 
L 266.467438 153.395521 
L 266.784793 152.601613 
L 267.102149 152.53777 
L 267.419504 152.221326 
L 267.73686 152.156616 
L 268.688926 151.216955 
L 269.323636 151.052742 
L 269.640992 150.694102 
L 270.593058 150.582309 
L 270.910413 150.528839 
L 271.862479 149.624065 
L 272.179835 149.481497 
L 272.49719 148.801904 
L 272.814545 148.611325 
L 273.449256 148.475057 
L 273.766612 148.040896 
L 274.401322 147.678346 
L 274.718678 147.635862 
L 275.036033 146.605951 
L 275.353388 146.557442 
L 275.670744 145.864935 
L 276.305455 145.554942 
L 276.62281 144.416505 
L 277.257521 143.834476 
L 280.431074 143.008369 
L 280.74843 142.90546 
L 281.38314 142.267009 
L 282.652562 142.081779 
L 282.969917 141.030178 
L 283.287273 140.949614 
L 283.921983 140.360373 
L 285.826116 139.459691 
L 286.143471 139.148934 
L 286.460826 139.002395 
L 286.778182 138.366224 
L 287.095537 137.396875 
L 287.412893 137.273986 
L 288.047603 136.688035 
L 288.364959 136.06659 
L 289.63438 135.823312 
L 289.951736 135.20942 
L 290.269091 135.12152 
L 291.221157 134.440331 
L 291.855868 133.300215 
L 292.173223 133.060572 
L 292.807934 133.009168 
L 293.76 132.431974 
L 294.077355 132.415439 
L 294.712066 131.533443 
L 295.346777 130.719949 
L 295.981488 130.442938 
L 296.616198 129.84616 
L 297.250909 129.67258 
L 297.88562 129.508185 
L 300.107107 128.785563 
L 300.424463 128.4907 
L 301.376529 126.386 
L 301.693884 126.116281 
L 302.64595 125.797618 
L 303.598017 124.837322 
L 303.915372 123.952351 
L 305.502149 123.34869 
L 305.819504 123.290658 
L 306.454215 122.909415 
L 306.77157 122.907808 
L 307.406281 122.204829 
L 307.723636 121.552542 
L 308.040992 121.184986 
L 308.675702 120.848993 
L 308.993058 120.238742 
L 309.627769 119.777491 
L 310.262479 119.706539 
L 310.89719 118.930251 
L 311.214545 118.861651 
L 312.166612 117.967088 
L 312.483967 117.900217 
L 313.118678 117.347758 
L 313.753388 116.99422 
L 314.388099 116.798549 
L 315.02281 116.282841 
L 315.340165 115.884267 
L 315.657521 115.785045 
L 315.974876 115.53807 
L 316.292231 115.104803 
L 317.244298 114.675907 
L 317.561653 114.067405 
L 318.196364 113.938508 
L 318.513719 113.413675 
L 318.831074 113.247454 
L 319.14843 113.214486 
L 319.465785 112.499107 
L 320.100496 112.41121 
L 320.417851 111.987592 
L 321.369917 111.762241 
L 321.687273 111.599791 
L 322.639339 111.423875 
L 323.27405 111.195078 
L 323.90876 110.56715 
L 324.860826 109.651339 
L 325.495537 109.593665 
L 325.812893 109.139384 
L 326.764959 108.532578 
L 327.082314 107.879222 
L 327.399669 107.849463 
L 327.717025 107.126019 
L 328.03438 106.787379 
L 328.669091 106.579385 
L 328.986446 105.652872 
L 329.303802 105.345576 
L 329.621157 105.310215 
L 329.938512 104.926218 
L 331.842645 104.512672 
L 332.16 104.447905 
L 332.477355 104.22362 
L 332.794711 103.780259 
L 333.112066 103.542139 
L 334.064132 103.317808 
L 334.381488 103.016852 
L 334.698843 102.391661 
L 335.016198 102.077396 
L 335.333554 102.047733 
L 335.650909 101.879404 
L 336.28562 101.299925 
L 336.920331 101.12976 
L 337.555041 99.165265 
L 337.872397 98.994452 
L 338.189752 98.627141 
L 339.459174 98.04685 
L 340.093884 97.342686 
L 340.728595 97.202357 
L 341.04595 96.644361 
L 342.315372 96.122354 
L 343.267438 94.555835 
L 343.584793 94.269677 
L 345.488926 93.64609 
L 345.806281 92.982209 
L 346.123636 92.775772 
L 346.440992 92.090237 
L 346.758347 92.020217 
L 347.075702 91.569004 
L 347.393058 91.553105 
L 347.710413 91.393841 
L 348.027769 91.360402 
L 348.345124 91.059736 
L 348.662479 90.952763 
L 348.979835 90.660589 
L 350.566612 90.377659 
L 350.883967 90.163993 
L 351.836033 90.051494 
L 352.153388 89.765285 
L 352.470744 89.230705 
L 352.788099 87.487452 
L 353.105455 87.105771 
L 354.374876 86.685943 
L 354.692231 86.099698 
L 355.009587 86.098268 
L 355.326942 85.824845 
L 355.644298 85.228046 
L 356.596364 85.10895 
L 357.231074 84.559082 
L 358.18314 84.372087 
L 358.500496 84.128657 
L 358.817851 84.064433 
L 359.135207 83.749689 
L 359.452562 83.277119 
L 360.087273 83.252146 
L 360.404628 82.518588 
L 361.039339 82.42248 
L 361.356694 81.778014 
L 361.67405 81.736632 
L 362.943471 80.903223 
L 363.260826 80.316332 
L 363.895537 80.069015 
L 364.212893 79.378824 
L 364.530248 79.327041 
L 364.847603 79.138317 
L 365.164959 78.518147 
L 366.751736 78.086672 
L 367.069091 77.694852 
L 368.655868 76.740389 
L 368.973223 75.980335 
L 369.607934 75.786031 
L 370.242645 75.096923 
L 371.194711 74.751666 
L 371.829421 74.619746 
L 372.146777 74.477434 
L 372.464132 73.201954 
L 373.098843 73.159202 
L 373.733554 72.340924 
L 374.368264 72.171084 
L 375.002975 71.44613 
L 375.637686 70.933642 
L 378.176529 68.982596 
L 378.81124 67.980031 
L 379.128595 67.674927 
L 379.44595 66.990554 
L 380.398017 66.35665 
L 380.715372 66.29613 
L 381.350083 65.973999 
L 383.888926 65.482858 
L 384.206281 64.748122 
L 384.523636 64.542363 
L 385.158347 64.443561 
L 385.475702 63.885596 
L 386.427769 63.606638 
L 386.745124 63.581032 
L 387.062479 63.238475 
L 387.379835 63.115859 
L 387.69719 62.632807 
L 389.283967 61.960609 
L 389.601322 61.770006 
L 389.918678 61.378761 
L 390.236033 61.338074 
L 390.870744 59.901166 
L 391.82281 59.64537 
L 392.140165 59.550816 
L 392.457521 59.310273 
L 392.774876 58.731759 
L 393.409587 58.616078 
L 393.726942 57.996387 
L 394.361653 57.81761 
L 394.679008 56.704132 
L 394.996364 56.66936 
L 395.313719 55.907552 
L 395.631074 55.500124 
L 397.217851 54.821854 
L 397.852562 54.257002 
L 398.169917 53.814623 
L 398.487273 53.568 
L 398.487273 53.568 
" clip-path="url(#p297e01617a)" style="fill: none; stroke: #1f77b4; stroke-width: 1.5; stroke-linecap: square"/>
   </g>
   <g id="line2d_15">
    <path d="M 73.832727 295.200589 
L 74.150083 294.937362 
L 74.467438 294.323744 
L 75.102149 294.192837 
L 75.419504 294.192833 
L 75.73686 293.863035 
L 76.054215 293.784729 
L 76.37157 293.21675 
L 77.323636 292.93824 
L 77.640992 292.903618 
L 78.910413 291.431938 
L 79.227769 291.377996 
L 79.545124 291.04787 
L 81.131901 290.659455 
L 81.449256 290.317684 
L 82.083967 290.232746 
L 82.401322 289.769975 
L 82.718678 289.680527 
L 83.036033 289.256461 
L 83.353388 287.971553 
L 83.670744 287.852821 
L 83.988099 287.130538 
L 84.305455 286.763509 
L 85.257521 286.659988 
L 85.892231 286.310398 
L 86.526942 285.133002 
L 86.844298 285.132999 
L 87.161653 285.009477 
L 87.479008 284.530291 
L 88.113719 284.408375 
L 88.74843 284.018308 
L 89.065785 283.450822 
L 89.700496 283.201359 
L 90.335207 283.074485 
L 90.969917 282.893377 
L 91.921983 281.942252 
L 92.239339 281.429597 
L 93.826116 280.083798 
L 94.460826 279.695988 
L 94.778182 279.581853 
L 95.412893 277.868518 
L 95.730248 277.840371 
L 97.63438 276.862826 
L 97.951736 276.249759 
L 98.269091 276.169432 
L 98.903802 274.946664 
L 99.221157 274.645631 
L 100.490579 274.522148 
L 100.807934 274.230302 
L 101.76 274.005514 
L 102.077355 273.688544 
L 102.394711 273.618714 
L 102.712066 273.405572 
L 103.029421 273.344274 
L 104.616198 271.964615 
L 105.568264 270.916766 
L 105.88562 270.678283 
L 106.837686 270.473482 
L 107.155041 270.473477 
L 108.107107 269.349461 
L 108.424463 269.327743 
L 108.741818 268.822784 
L 109.376529 268.536798 
L 110.01124 268.299187 
L 110.64595 267.108184 
L 110.963306 266.716664 
L 111.598017 266.513919 
L 111.915372 266.455215 
L 112.232727 265.735873 
L 112.867438 265.71555 
L 113.819504 264.627421 
L 115.406281 264.169908 
L 115.723636 263.897275 
L 116.675702 263.640848 
L 117.310413 263.393007 
L 118.262479 263.030364 
L 119.531901 261.249072 
L 119.849256 261.154447 
L 120.166612 260.563015 
L 120.801322 260.214999 
L 121.118678 260.19363 
L 121.436033 259.472648 
L 122.070744 259.413324 
L 122.388099 258.68497 
L 122.705455 258.406164 
L 123.02281 258.393386 
L 123.340165 258.095864 
L 123.657521 258.086847 
L 124.292231 256.821712 
L 124.926942 256.55847 
L 125.244298 255.944885 
L 125.879008 255.813978 
L 126.196364 255.813974 
L 126.513719 255.53842 
L 127.14843 255.405866 
L 127.465785 255.233645 
L 127.78314 254.837898 
L 128.100496 254.65299 
L 128.417851 254.636558 
L 128.735207 254.146987 
L 129.052562 253.897605 
L 129.369917 253.829824 
L 129.687273 253.229233 
L 130.004628 253.053079 
L 130.321983 252.584394 
L 131.591405 252.280599 
L 131.90876 251.938855 
L 133.178182 251.510347 
L 133.812893 251.301664 
L 134.130248 249.473927 
L 135.082314 248.384647 
L 136.03438 248.325992 
L 136.351736 248.134984 
L 136.669091 248.105194 
L 137.303802 247.86119 
L 137.938512 246.754132 
L 138.255868 246.75413 
L 138.573223 246.630621 
L 138.890579 246.116014 
L 139.207934 245.841086 
L 139.842645 245.639426 
L 140.16 245.07195 
L 140.794711 244.822508 
L 141.429421 244.662263 
L 142.064132 244.514514 
L 142.698843 243.864787 
L 143.650909 243.563389 
L 143.968264 242.979672 
L 144.920331 242.204959 
L 145.237686 241.870158 
L 145.555041 241.860414 
L 146.824463 241.202989 
L 147.141818 240.939157 
L 147.776529 239.489665 
L 148.093884 239.461547 
L 149.363306 238.852849 
L 149.680661 238.832702 
L 149.998017 238.48398 
L 150.315372 237.87091 
L 150.632727 237.790584 
L 150.950083 236.567777 
L 151.267438 236.266756 
L 152.53686 236.14329 
L 152.854215 235.851435 
L 153.806281 235.63684 
L 154.123636 235.30967 
L 154.440992 235.239855 
L 154.758347 235.026716 
L 155.075702 234.96541 
L 156.027769 234.143867 
L 156.345124 233.621345 
L 156.662479 233.585756 
L 157.29719 232.747833 
L 157.614545 232.686387 
L 157.931901 232.216429 
L 158.249256 232.094618 
L 158.566612 232.094616 
L 158.883967 231.269657 
L 159.201322 230.9706 
L 159.518678 230.948888 
L 159.836033 230.443925 
L 160.470744 230.157938 
L 161.42281 229.780387 
L 161.740165 229.578378 
L 162.057521 228.729288 
L 162.374876 228.337801 
L 163.644298 228.024993 
L 163.961653 227.357013 
L 164.596364 227.33669 
L 164.913719 226.935176 
L 165.54843 226.697878 
L 165.865785 226.248551 
L 166.817851 225.971949 
L 167.135207 225.518406 
L 168.087273 225.26198 
L 168.721983 225.014151 
L 169.67405 224.651518 
L 170.30876 223.902294 
L 170.943471 223.723485 
L 171.578182 222.87022 
L 172.530248 222.747888 
L 172.847603 222.184158 
L 173.164959 222.005874 
L 173.799669 221.093779 
L 174.43438 221.034469 
L 174.751736 220.027298 
L 175.069091 220.014519 
L 175.386446 219.716995 
L 176.021157 218.442835 
L 176.655868 218.305225 
L 177.607934 217.43512 
L 177.925289 217.435116 
L 178.242645 217.159548 
L 179.194711 217.027002 
L 179.512066 216.588323 
L 180.781488 216.257696 
L 181.098843 215.768138 
L 181.416198 215.760176 
L 181.733554 215.518756 
L 182.050909 215.450958 
L 182.368264 214.850374 
L 182.68562 214.674221 
L 183.002975 214.121733 
L 183.637686 213.901745 
L 183.955041 213.560021 
L 184.589752 213.437397 
L 184.907107 213.432063 
L 185.224463 213.209503 
L 186.176529 212.922803 
L 186.493884 212.157782 
L 186.81124 212.079039 
L 187.128595 211.095034 
L 187.44595 210.75765 
L 187.763306 210.005787 
L 188.080661 209.964802 
L 188.398017 209.756104 
L 188.715372 209.73159 
L 189.667438 209.38152 
L 189.984793 208.934168 
L 190.302149 208.87829 
L 190.619504 208.375263 
L 190.93686 208.375262 
L 191.254215 208.251763 
L 191.57157 207.737155 
L 191.888926 207.462236 
L 192.523636 207.342934 
L 192.840992 206.524878 
L 193.158347 206.36283 
L 194.745124 206.135653 
L 195.379835 205.485919 
L 196.014545 205.354999 
L 196.331901 205.354996 
L 196.649256 205.184527 
L 196.966612 204.600855 
L 197.283967 204.588895 
L 197.918678 204.249386 
L 198.553388 203.962474 
L 199.188099 202.938271 
L 199.505455 202.824126 
L 199.82281 202.140908 
L 200.457521 201.891333 
L 200.774876 200.660353 
L 201.726942 200.453847 
L 202.679008 199.492062 
L 202.996364 198.188892 
L 203.313719 197.887889 
L 204.58314 197.76443 
L 204.900496 197.472569 
L 206.169917 197.257992 
L 206.487273 196.930798 
L 206.804628 196.860998 
L 207.121983 196.647858 
L 207.439339 196.586548 
L 208.391405 195.764986 
L 208.70876 195.242467 
L 209.026116 195.2069 
L 209.343471 194.701446 
L 209.660826 194.444846 
L 210.295537 194.307536 
L 210.612893 193.715756 
L 210.930248 193.715755 
L 211.564959 193.331782 
L 212.199669 192.59174 
L 212.517025 192.570035 
L 212.83438 192.311052 
L 213.151736 191.779076 
L 215.055868 190.350395 
L 215.373223 189.958938 
L 216.642645 189.646142 
L 216.96 189.084468 
L 217.594711 188.95783 
L 217.912066 188.556301 
L 218.229421 188.373713 
L 218.546777 187.869683 
L 219.498843 187.593088 
L 219.816198 187.065397 
L 220.450909 186.883115 
L 221.08562 186.483701 
L 221.402975 186.408278 
L 221.720331 186.154257 
L 222.037686 185.523451 
L 222.672397 185.344589 
L 222.989752 184.949319 
L 223.307107 184.90258 
L 223.624463 184.531342 
L 224.259174 184.369045 
L 224.576529 184.246338 
L 224.893884 183.805298 
L 225.528595 183.406544 
L 225.84595 182.714913 
L 226.163306 182.655613 
L 226.480661 182.295603 
L 226.798017 182.238531 
L 227.115372 181.648433 
L 227.750083 181.635653 
L 228.384793 181.338128 
L 229.019504 179.926338 
L 229.97157 179.056262 
L 230.288926 179.05626 
L 230.606281 178.780678 
L 231.558347 178.511523 
L 232.193058 177.895221 
L 232.510413 177.878833 
L 234.414545 177.072094 
L 235.049256 175.742872 
L 235.366612 175.706929 
L 235.683967 175.522893 
L 236.001322 175.096185 
L 236.636033 175.0532 
L 236.953388 174.830671 
L 237.588099 174.633403 
L 237.905455 173.778924 
L 238.22281 173.700164 
L 238.540165 172.716142 
L 238.857521 172.378768 
L 239.174876 171.626929 
L 239.492231 171.585934 
L 239.809587 171.377224 
L 240.444298 171.352736 
L 241.396364 171.002666 
L 241.713719 170.555281 
L 242.031074 170.499434 
L 242.34843 169.996396 
L 242.665785 169.996395 
L 242.98314 169.770359 
L 243.300496 169.249004 
L 243.617851 169.083382 
L 243.935207 168.09238 
L 244.887273 167.872406 
L 245.521983 167.756793 
L 245.839339 167.107052 
L 246.47405 166.976136 
L 246.791405 166.976136 
L 247.10876 166.805665 
L 247.426116 166.222031 
L 247.743471 166.210002 
L 248.378182 165.870506 
L 249.012893 165.583597 
L 249.330248 164.992023 
L 249.647603 164.947206 
L 250.599669 164.445261 
L 250.917025 164.367808 
L 251.23438 163.762044 
L 252.503802 163.020837 
L 253.138512 162.281487 
L 253.455868 162.095081 
L 253.773223 162.074992 
L 254.090579 161.726281 
L 254.407934 161.176708 
L 254.725289 161.113215 
L 255.042645 159.942065 
L 255.677355 159.810008 
L 255.994711 159.488183 
L 256.946777 159.385568 
L 257.264132 159.093704 
L 258.216198 158.879143 
L 258.533554 158.551928 
L 258.850909 158.4683 
L 259.168264 158.268997 
L 259.48562 158.207688 
L 259.802975 157.916332 
L 260.755041 156.322591 
L 262.341818 155.928686 
L 262.659174 155.336895 
L 263.293884 155.315072 
L 263.61124 155.163424 
L 263.928595 154.212881 
L 264.24595 154.191182 
L 264.563306 153.932166 
L 264.880661 153.913272 
L 265.198017 153.549874 
L 265.515372 153.400214 
L 265.832727 153.022631 
L 266.150083 152.820616 
L 266.784793 152.202328 
L 267.102149 151.971503 
L 267.419504 151.513484 
L 267.73686 151.493988 
L 269.006281 150.65181 
L 269.958347 150.464807 
L 270.593058 149.994853 
L 270.910413 149.214228 
L 271.227769 149.033028 
L 271.545124 148.68655 
L 272.179835 148.504252 
L 272.49719 148.10483 
L 273.131901 148.029419 
L 273.449256 147.775406 
L 273.766612 147.323128 
L 274.401322 147.0508 
L 274.718678 146.9657 
L 275.353388 146.152449 
L 275.670744 146.127601 
L 276.305455 145.867485 
L 276.62281 145.248147 
L 277.257521 144.786719 
L 277.892231 143.91676 
L 278.209587 143.859665 
L 278.526942 143.269567 
L 279.161653 143.256788 
L 279.479008 142.959262 
L 279.796364 141.606074 
L 281.065785 140.677404 
L 281.38314 140.401809 
L 282.335207 140.132671 
L 282.969917 139.516341 
L 283.287273 139.499971 
L 284.239339 139.108614 
L 284.87405 139.00242 
L 285.50876 138.519171 
L 285.826116 138.503547 
L 286.460826 137.364009 
L 286.778182 137.328051 
L 287.095537 136.717332 
L 288.364959 136.518753 
L 288.999669 136.373784 
L 289.317025 136.05635 
L 289.63438 136.047578 
L 289.951736 135.400065 
L 290.586446 135.223735 
L 290.903802 133.999889 
L 291.221157 133.937775 
L 291.538512 133.207068 
L 291.855868 132.998346 
L 292.490579 132.973881 
L 293.125289 132.623811 
L 293.442645 132.225304 
L 294.077355 132.12058 
L 294.394711 131.61753 
L 294.712066 131.617529 
L 295.029421 131.061682 
L 295.346777 130.870148 
L 295.664132 129.713494 
L 296.933554 129.377934 
L 297.250909 128.728187 
L 297.568264 128.597276 
L 297.88562 128.597274 
L 298.520331 128.189171 
L 299.155041 127.491631 
L 299.789752 127.308149 
L 300.107107 127.204725 
L 300.424463 126.613151 
L 300.741818 126.568341 
L 301.693884 126.066396 
L 302.01124 126.012541 
L 302.328595 125.782431 
L 302.64595 125.383179 
L 302.963306 125.219442 
L 303.598017 124.641972 
L 303.915372 124.637178 
L 304.232727 124.174408 
L 304.867438 123.902623 
L 305.184793 123.716202 
L 305.502149 123.660873 
L 305.819504 123.347429 
L 306.454215 121.534986 
L 306.77157 121.109317 
L 307.088926 121.064417 
L 307.406281 120.714841 
L 308.358347 120.500292 
L 308.675702 120.173059 
L 308.993058 120.089425 
L 309.310413 119.890135 
L 309.627769 119.537466 
L 309.945124 119.53746 
L 310.262479 119.413903 
L 310.579835 118.934781 
L 310.89719 118.899305 
L 311.214545 117.855292 
L 311.849256 117.611228 
L 312.483967 117.478945 
L 312.801322 116.958035 
L 313.118678 116.936225 
L 313.436033 116.784543 
L 313.753388 116.161161 
L 314.070744 115.834025 
L 314.388099 115.812332 
L 314.705455 115.553289 
L 315.02281 115.534399 
L 315.340165 115.170945 
L 315.657521 115.021352 
L 315.974876 114.643755 
L 316.926942 114.100429 
L 319.14843 112.27295 
L 319.78314 112.085937 
L 320.100496 111.798563 
L 320.735207 111.615994 
L 321.052562 111.415096 
L 321.369917 110.835369 
L 321.687273 110.654178 
L 322.321983 109.934132 
L 322.639339 109.725962 
L 323.27405 109.65057 
L 323.591405 109.396551 
L 323.90876 108.944267 
L 324.543471 108.671938 
L 325.178182 108.563625 
L 325.495537 108.02316 
L 325.812893 107.773563 
L 326.130248 107.74873 
L 328.03438 106.648819 
L 329.303802 105.537913 
L 329.621157 105.4808 
L 329.938512 105.082808 
L 330.255868 104.8907 
L 330.890579 104.877924 
L 331.207934 104.580397 
L 331.525289 103.732178 
L 331.842645 103.394924 
L 333.112066 102.622008 
L 333.429421 102.022942 
L 334.064132 101.753817 
L 334.381488 101.121109 
L 335.333554 100.729767 
L 335.650909 100.723097 
L 336.28562 100.140312 
L 336.920331 100.119992 
L 337.555041 99.031891 
L 338.507107 98.832615 
L 339.459174 98.13988 
L 340.728595 97.668732 
L 341.04595 97.021205 
L 341.363306 96.844853 
L 341.680661 95.621012 
L 341.998017 95.558902 
L 342.315372 94.967444 
L 342.632727 94.619469 
L 343.267438 94.595023 
L 343.902149 94.294359 
L 344.219504 93.84357 
L 344.53686 93.741728 
L 344.854215 93.238665 
L 345.17157 93.238663 
L 345.488926 93.08947 
L 346.123636 92.49129 
L 346.440992 91.334611 
L 347.710413 90.962981 
L 348.027769 90.349325 
L 348.662479 90.218416 
L 348.979835 90.218413 
L 349.29719 90.047944 
L 349.614545 90.043593 
L 349.931901 89.810311 
L 350.249256 89.11276 
L 350.883967 88.929241 
L 351.201322 88.23428 
L 351.836033 87.763041 
L 353.105455 87.403575 
L 353.42281 87.004314 
L 355.326942 86.258322 
L 355.644298 85.795552 
L 355.961653 85.706115 
L 356.279008 85.337326 
L 356.596364 85.28203 
L 356.913719 83.997126 
L 357.231074 83.878437 
L 357.54843 83.156121 
L 357.865785 82.789094 
L 358.817851 82.509607 
L 359.452562 82.121438 
L 359.769917 81.794191 
L 360.404628 81.558824 
L 360.721983 81.158593 
L 361.039339 81.158589 
L 361.356694 81.035051 
L 361.67405 80.555894 
L 361.991405 80.52045 
L 362.626116 79.476416 
L 363.260826 79.232366 
L 363.895537 79.170993 
L 364.847603 78.918961 
L 366.751736 76.792019 
L 369.290579 75.607436 
L 369.607934 74.755782 
L 369.925289 74.736269 
L 370.242645 74.571837 
L 370.877355 73.951863 
L 371.829421 73.707068 
L 372.146777 73.378986 
L 372.781488 73.036246 
L 373.098843 72.456511 
L 374.050909 71.841073 
L 375.320331 70.640364 
L 376.589752 70.255891 
L 376.907107 69.644296 
L 378.176529 68.676656 
L 379.128595 67.990196 
L 379.763306 67.101936 
L 380.080661 66.703903 
L 381.032727 66.49906 
L 381.350083 66.201533 
L 381.667438 65.35332 
L 381.984793 64.848362 
L 382.619504 64.646433 
L 383.254215 64.456473 
L 383.57157 64.243135 
L 383.888926 63.644077 
L 384.206281 63.564695 
L 384.523636 62.742246 
L 385.158347 62.539481 
L 385.793058 62.344213 
L 386.110413 61.761453 
L 387.062479 61.724939 
L 387.379835 61.158797 
L 387.69719 61.102279 
L 388.014545 60.653015 
L 389.601322 60.195491 
L 389.918678 59.922866 
L 392.457521 59.289881 
L 392.774876 59.055942 
L 393.092231 58.642343 
L 393.409587 58.465976 
L 394.044298 57.180032 
L 394.361653 56.588591 
L 394.996364 56.240594 
L 395.631074 56.216165 
L 395.94843 55.464719 
L 396.265785 55.362877 
L 396.58314 54.891551 
L 396.900496 54.859799 
L 397.217851 54.710578 
L 397.535207 54.431749 
L 397.852562 54.418974 
L 398.169917 54.121455 
L 398.487273 54.11243 
L 398.487273 54.11243 
" clip-path="url(#p297e01617a)" style="fill: none; stroke: #ff7f0e; stroke-width: 1.5; stroke-linecap: square"/>
   </g>
   <g id="patch_3">
    <path d="M 57.6 307.584 
L 57.6 41.472 
" style="fill: none; stroke: #000000; stroke-width: 0.8; stroke-linejoin: miter; stroke-linecap: square"/>
   </g>
   <g id="patch_4">
    <path d="M 414.72 307.584 
L 414.72 41.472 
" style="fill: none; stroke: #000000; stroke-width: 0.8; stroke-linejoin: miter; stroke-linecap: square"/>
   </g>
   <g id="patch_5">
    <path d="M 57.6 307.584 
L 414.72 307.584 
" style="fill: none; stroke: #000000; stroke-width: 0.8; stroke-linejoin: miter; stroke-linecap: square"/>
   </g>
   <g id="patch_6">
    <path d="M 57.6 41.472 
L 414.72 41.472 
" style="fill: none; stroke: #000000; stroke-width: 0.8; stroke-linejoin: miter; stroke-linecap: square"/>
   </g>
   <g id="legend_1">
    <g id="patch_7">
     <path d="M 64.6 78.82825 
L 129.342187 78.82825 
Q 131.342187 78.82825 131.342187 76.82825 
L 131.342187 48.472 
Q 131.342187 46.472 129.342187 46.472 
L 64.6 46.472 
Q 62.6 46.472 62.6 48.472 
L 62.6 76.82825 
Q 62.6 78.82825 64.6 78.82825 
z
" style="fill: #ffffff; opacity: 0.8; stroke: #cccccc; stroke-linejoin: miter"/>
    </g>
    <g id="line2d_16">
     <path d="M 66.6 54.570437 
L 76.6 54.570437 
L 86.6 54.570437 
" style="fill: none; stroke: #1f77b4; stroke-width: 1.5; stroke-linecap: square"/>
    </g>
    <g id="text_16">
     <!-- qc -->
     <g transform="translate(94.6 58.070437) scale(0.1 -0.1)">
      <defs>
       <path id="DejaVuSans-71" d="M 947 1747 
Q 947 1113 1208 752 
Q 1469 391 1925 391 
Q 2381 391 2643 752 
Q 2906 1113 2906 1747 
Q 2906 2381 2643 2742 
Q 2381 3103 1925 3103 
Q 1469 3103 1208 2742 
Q 947 2381 947 1747 
z
M 2906 525 
Q 2725 213 2448 61 
Q 2172 -91 1784 -91 
Q 1150 -91 751 415 
Q 353 922 353 1747 
Q 353 2572 751 3078 
Q 1150 3584 1784 3584 
Q 2172 3584 2448 3432 
Q 2725 3281 2906 2969 
L 2906 3500 
L 3481 3500 
L 3481 -1331 
L 2906 -1331 
L 2906 525 
z
" transform="scale(0.015625)"/>
       <path id="DejaVuSans-63" d="M 3122 3366 
L 3122 2828 
Q 2878 2963 2633 3030 
Q 2388 3097 2138 3097 
Q 1578 3097 1268 2742 
Q 959 2388 959 1747 
Q 959 1106 1268 751 
Q 1578 397 2138 397 
Q 2388 397 2633 464 
Q 2878 531 3122 666 
L 3122 134 
Q 2881 22 2623 -34 
Q 2366 -91 2075 -91 
Q 1284 -91 818 406 
Q 353 903 353 1747 
Q 353 2603 823 3093 
Q 1294 3584 2113 3584 
Q 2378 3584 2631 3529 
Q 2884 3475 3122 3366 
z
" transform="scale(0.015625)"/>
      </defs>
      <use xlink:href="#DejaVuSans-71"/>
      <use xlink:href="#DejaVuSans-63" x="63.476562"/>
     </g>
    </g>
    <g id="line2d_17">
     <path d="M 66.6 69.248562 
L 76.6 69.248562 
L 86.6 69.248562 
" style="fill: none; stroke: #ff7f0e; stroke-width: 1.5; stroke-linecap: square"/>
    </g>
    <g id="text_17">
     <!-- Trotter -->
     <g transform="translate(94.6 72.748562) scale(0.1 -0.1)">
      <defs>
       <path id="DejaVuSans-54" d="M -19 4666 
L 3928 4666 
L 3928 4134 
L 2272 4134 
L 2272 0 
L 1638 0 
L 1638 4134 
L -19 4134 
L -19 4666 
z
" transform="scale(0.015625)"/>
       <path id="DejaVuSans-72" d="M 2631 2963 
Q 2534 3019 2420 3045 
Q 2306 3072 2169 3072 
Q 1681 3072 1420 2755 
Q 1159 2438 1159 1844 
L 1159 0 
L 581 0 
L 581 3500 
L 1159 3500 
L 1159 2956 
Q 1341 3275 1631 3429 
Q 1922 3584 2338 3584 
Q 2397 3584 2469 3576 
Q 2541 3569 2628 3553 
L 2631 2963 
z
" transform="scale(0.015625)"/>
       <path id="DejaVuSans-6f" d="M 1959 3097 
Q 1497 3097 1228 2736 
Q 959 2375 959 1747 
Q 959 1119 1226 758 
Q 1494 397 1959 397 
Q 2419 397 2687 759 
Q 2956 1122 2956 1747 
Q 2956 2369 2687 2733 
Q 2419 3097 1959 3097 
z
M 1959 3584 
Q 2709 3584 3137 3096 
Q 3566 2609 3566 1747 
Q 3566 888 3137 398 
Q 2709 -91 1959 -91 
Q 1206 -91 779 398 
Q 353 888 353 1747 
Q 353 2609 779 3096 
Q 1206 3584 1959 3584 
z
" transform="scale(0.015625)"/>
       <path id="DejaVuSans-65" d="M 3597 1894 
L 3597 1613 
L 953 1613 
Q 991 1019 1311 708 
Q 1631 397 2203 397 
Q 2534 397 2845 478 
Q 3156 559 3463 722 
L 3463 178 
Q 3153 47 2828 -22 
Q 2503 -91 2169 -91 
Q 1331 -91 842 396 
Q 353 884 353 1716 
Q 353 2575 817 3079 
Q 1281 3584 2069 3584 
Q 2775 3584 3186 3129 
Q 3597 2675 3597 1894 
z
M 3022 2063 
Q 3016 2534 2758 2815 
Q 2500 3097 2075 3097 
Q 1594 3097 1305 2825 
Q 1016 2553 972 2059 
L 3022 2063 
z
" transform="scale(0.015625)"/>
      </defs>
      <use xlink:href="#DejaVuSans-54"/>
      <use xlink:href="#DejaVuSans-72" x="46.333984"/>
      <use xlink:href="#DejaVuSans-6f" x="85.197266"/>
      <use xlink:href="#DejaVuSans-74" x="146.378906"/>
      <use xlink:href="#DejaVuSans-74" x="185.587891"/>
      <use xlink:href="#DejaVuSans-65" x="224.796875"/>
      <use xlink:href="#DejaVuSans-72" x="286.320312"/>
     </g>
    </g>
   </g>
  </g>
 </g>
 <defs>
  <clipPath id="p297e01617a">
   <rect x="57.6" y="41.472" width="357.12" height="266.112"/>
  </clipPath>
 </defs>
</svg>
