<?xml version="1.0" encoding="utf-8" standalone="no"?>
<!DOCTYPE svg PUBLIC "-//W3C//DTD SVG 1.1//EN"
  "http://www.w3.org/Graphics/SVG/1.1/DTD/svg11.dtd">
<svg xmlns:xlink="http://www.w3.org/1999/xlink" width="460.8pt" height="345.6pt" viewBox="0 0 460.8 345.6" xmlns="http://www.w3.org/2000/svg" version="1.1">
 <metadata>
  <rdf:RDF xmlns:dc="http://purl.org/dc/elements/1.1/" xmlns:cc="http://creativecommons.org/ns#" xmlns:rdf="http://www.w3.org/1999/02/22-rdf-syntax-ns#">
   <cc:Work>
    <dc:type rdf:resource="http://purl.org/dc/dcmitype/StillImage"/>
    <dc:date>2024-08-17T12:30:07.350466</dc:date>
    <dc:format>image/svg+xml</dc:format>
    <dc:creator>
     <cc:Agent>
      <dc:title>Matplotlib v3.7.1, https://matplotlib.org/</dc:title>
     </cc:Agent>
    </dc:creator>
   </cc:Work>
  </rdf:RDF>
 </metadata>
 <defs>
  <style type="text/css">*{stroke-linejoin: round; stroke-linecap: butt}</style>
 </defs>
 <g id="figure_1">
  <g id="patch_1">
   <path d="M 0 345.6 
L 460.8 345.6 
L 460.8 0 
L 0 0 
z
" style="fill: #ffffff"/>
  </g>
  <g id="axes_1">
   <g id="patch_2">
    <path d="M 57.6 307.584 
L 414.72 307.584 
L 414.72 41.472 
L 57.6 41.472 
z
" style="fill: #ffffff"/>
   </g>
   <g id="matplotlib.axis_1">
    <g id="xtick_1">
     <g id="line2d_1">
      <defs>
       <path id="ma32923b2e6" d="M 0 0 
L 0 3.5 
" style="stroke: #000000; stroke-width: 0.8"/>
      </defs>
      <g>
       <use xlink:href="#ma32923b2e6" x="73.832727" y="307.584" style="stroke: #000000; stroke-width: 0.8"/>
      </g>
     </g>
     <g id="text_1">
      <!-- 0 -->
      <g transform="translate(70.651477 322.182437) scale(0.1 -0.1)">
       <defs>
        <path id="DejaVuSans-30" d="M 2034 4250 
Q 1547 4250 1301 3770 
Q 1056 3291 1056 2328 
Q 1056 1369 1301 889 
Q 1547 409 2034 409 
Q 2525 409 2770 889 
Q 3016 1369 3016 2328 
Q 3016 3291 2770 3770 
Q 2525 4250 2034 4250 
z
M 2034 4750 
Q 2819 4750 3233 4129 
Q 3647 3509 3647 2328 
Q 3647 1150 3233 529 
Q 2819 -91 2034 -91 
Q 1250 -91 836 529 
Q 422 1150 422 2328 
Q 422 3509 836 4129 
Q 1250 4750 2034 4750 
z
" transform="scale(0.015625)"/>
       </defs>
       <use xlink:href="#DejaVuSans-30"/>
      </g>
     </g>
    </g>
    <g id="xtick_2">
     <g id="line2d_2">
      <g>
       <use xlink:href="#ma32923b2e6" x="137.303802" y="307.584" style="stroke: #000000; stroke-width: 0.8"/>
      </g>
     </g>
     <g id="text_2">
      <!-- 200 -->
      <g transform="translate(127.760052 322.182437) scale(0.1 -0.1)">
       <defs>
        <path id="DejaVuSans-32" d="M 1228 531 
L 3431 531 
L 3431 0 
L 469 0 
L 469 531 
Q 828 903 1448 1529 
Q 2069 2156 2228 2338 
Q 2531 2678 2651 2914 
Q 2772 3150 2772 3378 
Q 2772 3750 2511 3984 
Q 2250 4219 1831 4219 
Q 1534 4219 1204 4116 
Q 875 4013 500 3803 
L 500 4441 
Q 881 4594 1212 4672 
Q 1544 4750 1819 4750 
Q 2544 4750 2975 4387 
Q 3406 4025 3406 3419 
Q 3406 3131 3298 2873 
Q 3191 2616 2906 2266 
Q 2828 2175 2409 1742 
Q 1991 1309 1228 531 
z
" transform="scale(0.015625)"/>
       </defs>
       <use xlink:href="#DejaVuSans-32"/>
       <use xlink:href="#DejaVuSans-30" x="63.623047"/>
       <use xlink:href="#DejaVuSans-30" x="127.246094"/>
      </g>
     </g>
    </g>
    <g id="xtick_3">
     <g id="line2d_3">
      <g>
       <use xlink:href="#ma32923b2e6" x="200.774876" y="307.584" style="stroke: #000000; stroke-width: 0.8"/>
      </g>
     </g>
     <g id="text_3">
      <!-- 400 -->
      <g transform="translate(191.231126 322.182437) scale(0.1 -0.1)">
       <defs>
        <path id="DejaVuSans-34" d="M 2419 4116 
L 825 1625 
L 2419 1625 
L 2419 4116 
z
M 2253 4666 
L 3047 4666 
L 3047 1625 
L 3713 1625 
L 3713 1100 
L 3047 1100 
L 3047 0 
L 2419 0 
L 2419 1100 
L 313 1100 
L 313 1709 
L 2253 4666 
z
" transform="scale(0.015625)"/>
       </defs>
       <use xlink:href="#DejaVuSans-34"/>
       <use xlink:href="#DejaVuSans-30" x="63.623047"/>
       <use xlink:href="#DejaVuSans-30" x="127.246094"/>
      </g>
     </g>
    </g>
    <g id="xtick_4">
     <g id="line2d_4">
      <g>
       <use xlink:href="#ma32923b2e6" x="264.24595" y="307.584" style="stroke: #000000; stroke-width: 0.8"/>
      </g>
     </g>
     <g id="text_4">
      <!-- 600 -->
      <g transform="translate(254.7022 322.182437) scale(0.1 -0.1)">
       <defs>
        <path id="DejaVuSans-36" d="M 2113 2584 
Q 1688 2584 1439 2293 
Q 1191 2003 1191 1497 
Q 1191 994 1439 701 
Q 1688 409 2113 409 
Q 2538 409 2786 701 
Q 3034 994 3034 1497 
Q 3034 2003 2786 2293 
Q 2538 2584 2113 2584 
z
M 3366 4563 
L 3366 3988 
Q 3128 4100 2886 4159 
Q 2644 4219 2406 4219 
Q 1781 4219 1451 3797 
Q 1122 3375 1075 2522 
Q 1259 2794 1537 2939 
Q 1816 3084 2150 3084 
Q 2853 3084 3261 2657 
Q 3669 2231 3669 1497 
Q 3669 778 3244 343 
Q 2819 -91 2113 -91 
Q 1303 -91 875 529 
Q 447 1150 447 2328 
Q 447 3434 972 4092 
Q 1497 4750 2381 4750 
Q 2619 4750 2861 4703 
Q 3103 4656 3366 4563 
z
" transform="scale(0.015625)"/>
       </defs>
       <use xlink:href="#DejaVuSans-36"/>
       <use xlink:href="#DejaVuSans-30" x="63.623047"/>
       <use xlink:href="#DejaVuSans-30" x="127.246094"/>
      </g>
     </g>
    </g>
    <g id="xtick_5">
     <g id="line2d_5">
      <g>
       <use xlink:href="#ma32923b2e6" x="327.717025" y="307.584" style="stroke: #000000; stroke-width: 0.8"/>
      </g>
     </g>
     <g id="text_5">
      <!-- 800 -->
      <g transform="translate(318.173275 322.182437) scale(0.1 -0.1)">
       <defs>
        <path id="DejaVuSans-38" d="M 2034 2216 
Q 1584 2216 1326 1975 
Q 1069 1734 1069 1313 
Q 1069 891 1326 650 
Q 1584 409 2034 409 
Q 2484 409 2743 651 
Q 3003 894 3003 1313 
Q 3003 1734 2745 1975 
Q 2488 2216 2034 2216 
z
M 1403 2484 
Q 997 2584 770 2862 
Q 544 3141 544 3541 
Q 544 4100 942 4425 
Q 1341 4750 2034 4750 
Q 2731 4750 3128 4425 
Q 3525 4100 3525 3541 
Q 3525 3141 3298 2862 
Q 3072 2584 2669 2484 
Q 3125 2378 3379 2068 
Q 3634 1759 3634 1313 
Q 3634 634 3220 271 
Q 2806 -91 2034 -91 
Q 1263 -91 848 271 
Q 434 634 434 1313 
Q 434 1759 690 2068 
Q 947 2378 1403 2484 
z
M 1172 3481 
Q 1172 3119 1398 2916 
Q 1625 2713 2034 2713 
Q 2441 2713 2670 2916 
Q 2900 3119 2900 3481 
Q 2900 3844 2670 4047 
Q 2441 4250 2034 4250 
Q 1625 4250 1398 4047 
Q 1172 3844 1172 3481 
z
" transform="scale(0.015625)"/>
       </defs>
       <use xlink:href="#DejaVuSans-38"/>
       <use xlink:href="#DejaVuSans-30" x="63.623047"/>
       <use xlink:href="#DejaVuSans-30" x="127.246094"/>
      </g>
     </g>
    </g>
    <g id="xtick_6">
     <g id="line2d_6">
      <g>
       <use xlink:href="#ma32923b2e6" x="391.188099" y="307.584" style="stroke: #000000; stroke-width: 0.8"/>
      </g>
     </g>
     <g id="text_6">
      <!-- 1000 -->
      <g transform="translate(378.463099 322.182437) scale(0.1 -0.1)">
       <defs>
        <path id="DejaVuSans-31" d="M 794 531 
L 1825 531 
L 1825 4091 
L 703 3866 
L 703 4441 
L 1819 4666 
L 2450 4666 
L 2450 531 
L 3481 531 
L 3481 0 
L 794 0 
L 794 531 
z
" transform="scale(0.015625)"/>
       </defs>
       <use xlink:href="#DejaVuSans-31"/>
       <use xlink:href="#DejaVuSans-30" x="63.623047"/>
       <use xlink:href="#DejaVuSans-30" x="127.246094"/>
       <use xlink:href="#DejaVuSans-30" x="190.869141"/>
      </g>
     </g>
    </g>
    <g id="text_7">
     <!-- n -->
     <g transform="translate(232.99125 335.860562) scale(0.1 -0.1)">
      <defs>
       <path id="DejaVuSans-6e" d="M 3513 2113 
L 3513 0 
L 2938 0 
L 2938 2094 
Q 2938 2591 2744 2837 
Q 2550 3084 2163 3084 
Q 1697 3084 1428 2787 
Q 1159 2491 1159 1978 
L 1159 0 
L 581 0 
L 581 3500 
L 1159 3500 
L 1159 2956 
Q 1366 3272 1645 3428 
Q 1925 3584 2291 3584 
Q 2894 3584 3203 3211 
Q 3513 2838 3513 2113 
z
" transform="scale(0.015625)"/>
      </defs>
      <use xlink:href="#DejaVuSans-6e"/>
     </g>
    </g>
   </g>
   <g id="matplotlib.axis_2">
    <g id="ytick_1">
     <g id="line2d_7">
      <defs>
       <path id="m94813fce21" d="M 0 0 
L -3.5 0 
" style="stroke: #000000; stroke-width: 0.8"/>
      </defs>
      <g>
       <use xlink:href="#m94813fce21" x="57.6" y="290.073205" style="stroke: #000000; stroke-width: 0.8"/>
      </g>
     </g>
     <g id="text_8">
      <!-- −3 -->
      <g transform="translate(35.857813 293.872423) scale(0.1 -0.1)">
       <defs>
        <path id="DejaVuSans-2212" d="M 678 2272 
L 4684 2272 
L 4684 1741 
L 678 1741 
L 678 2272 
z
" transform="scale(0.015625)"/>
        <path id="DejaVuSans-33" d="M 2597 2516 
Q 3050 2419 3304 2112 
Q 3559 1806 3559 1356 
Q 3559 666 3084 287 
Q 2609 -91 1734 -91 
Q 1441 -91 1130 -33 
Q 819 25 488 141 
L 488 750 
Q 750 597 1062 519 
Q 1375 441 1716 441 
Q 2309 441 2620 675 
Q 2931 909 2931 1356 
Q 2931 1769 2642 2001 
Q 2353 2234 1838 2234 
L 1294 2234 
L 1294 2753 
L 1863 2753 
Q 2328 2753 2575 2939 
Q 2822 3125 2822 3475 
Q 2822 3834 2567 4026 
Q 2313 4219 1838 4219 
Q 1578 4219 1281 4162 
Q 984 4106 628 3988 
L 628 4550 
Q 988 4650 1302 4700 
Q 1616 4750 1894 4750 
Q 2613 4750 3031 4423 
Q 3450 4097 3450 3541 
Q 3450 3153 3228 2886 
Q 3006 2619 2597 2516 
z
" transform="scale(0.015625)"/>
       </defs>
       <use xlink:href="#DejaVuSans-2212"/>
       <use xlink:href="#DejaVuSans-33" x="83.789062"/>
      </g>
     </g>
    </g>
    <g id="ytick_2">
     <g id="line2d_8">
      <g>
       <use xlink:href="#m94813fce21" x="57.6" y="251.554564" style="stroke: #000000; stroke-width: 0.8"/>
      </g>
     </g>
     <g id="text_9">
      <!-- −2 -->
      <g transform="translate(35.857813 255.353783) scale(0.1 -0.1)">
       <use xlink:href="#DejaVuSans-2212"/>
       <use xlink:href="#DejaVuSans-32" x="83.789062"/>
      </g>
     </g>
    </g>
    <g id="ytick_3">
     <g id="line2d_9">
      <g>
       <use xlink:href="#m94813fce21" x="57.6" y="213.035924" style="stroke: #000000; stroke-width: 0.8"/>
      </g>
     </g>
     <g id="text_10">
      <!-- −1 -->
      <g transform="translate(35.857813 216.835143) scale(0.1 -0.1)">
       <use xlink:href="#DejaVuSans-2212"/>
       <use xlink:href="#DejaVuSans-31" x="83.789062"/>
      </g>
     </g>
    </g>
    <g id="ytick_4">
     <g id="line2d_10">
      <g>
       <use xlink:href="#m94813fce21" x="57.6" y="174.517283" style="stroke: #000000; stroke-width: 0.8"/>
      </g>
     </g>
     <g id="text_11">
      <!-- 0 -->
      <g transform="translate(44.2375 178.316502) scale(0.1 -0.1)">
       <use xlink:href="#DejaVuSans-30"/>
      </g>
     </g>
    </g>
    <g id="ytick_5">
     <g id="line2d_11">
      <g>
       <use xlink:href="#m94813fce21" x="57.6" y="135.998643" style="stroke: #000000; stroke-width: 0.8"/>
      </g>
     </g>
     <g id="text_12">
      <!-- 1 -->
      <g transform="translate(44.2375 139.797862) scale(0.1 -0.1)">
       <use xlink:href="#DejaVuSans-31"/>
      </g>
     </g>
    </g>
    <g id="ytick_6">
     <g id="line2d_12">
      <g>
       <use xlink:href="#m94813fce21" x="57.6" y="97.480003" style="stroke: #000000; stroke-width: 0.8"/>
      </g>
     </g>
     <g id="text_13">
      <!-- 2 -->
      <g transform="translate(44.2375 101.279222) scale(0.1 -0.1)">
       <use xlink:href="#DejaVuSans-32"/>
      </g>
     </g>
    </g>
    <g id="ytick_7">
     <g id="line2d_13">
      <g>
       <use xlink:href="#m94813fce21" x="57.6" y="58.961362" style="stroke: #000000; stroke-width: 0.8"/>
      </g>
     </g>
     <g id="text_14">
      <!-- 3 -->
      <g transform="translate(44.2375 62.760581) scale(0.1 -0.1)">
       <use xlink:href="#DejaVuSans-33"/>
      </g>
     </g>
    </g>
    <g id="text_15">
     <!-- E*t -->
     <g transform="translate(29.778125 182.147531) rotate(-90) scale(0.1 -0.1)">
      <defs>
       <path id="DejaVuSans-45" d="M 628 4666 
L 3578 4666 
L 3578 4134 
L 1259 4134 
L 1259 2753 
L 3481 2753 
L 3481 2222 
L 1259 2222 
L 1259 531 
L 3634 531 
L 3634 0 
L 628 0 
L 628 4666 
z
" transform="scale(0.015625)"/>
       <path id="DejaVuSans-2a" d="M 3009 3897 
L 1888 3291 
L 3009 2681 
L 2828 2375 
L 1778 3009 
L 1778 1831 
L 1422 1831 
L 1422 3009 
L 372 2375 
L 191 2681 
L 1313 3291 
L 191 3897 
L 372 4206 
L 1422 3572 
L 1422 4750 
L 1778 4750 
L 1778 3572 
L 2828 4206 
L 3009 3897 
z
" transform="scale(0.015625)"/>
       <path id="DejaVuSans-74" d="M 1172 4494 
L 1172 3500 
L 2356 3500 
L 2356 3053 
L 1172 3053 
L 1172 1153 
Q 1172 725 1289 603 
Q 1406 481 1766 481 
L 2356 481 
L 2356 0 
L 1766 0 
Q 1100 0 847 248 
Q 594 497 594 1153 
L 594 3053 
L 172 3053 
L 172 3500 
L 594 3500 
L 594 4494 
L 1172 4494 
z
" transform="scale(0.015625)"/>
      </defs>
      <use xlink:href="#DejaVuSans-45"/>
      <use xlink:href="#DejaVuSans-2a" x="63.183594"/>
      <use xlink:href="#DejaVuSans-74" x="113.183594"/>
     </g>
    </g>
   </g>
   <g id="line2d_14">
    <path d="M 73.832727 295.488 
L 74.784793 295.212013 
L 75.102149 294.929591 
L 75.419504 294.840298 
L 75.73686 294.457934 
L 76.054215 294.368559 
L 76.37157 293.92582 
L 77.006281 293.825384 
L 77.323636 293.62416 
L 77.640992 291.62479 
L 77.958347 291.24619 
L 78.593058 291.141442 
L 78.910413 290.752226 
L 79.227769 290.714122 
L 79.545124 290.406269 
L 79.862479 290.259337 
L 80.179835 289.971367 
L 80.814545 289.837715 
L 81.131901 289.093721 
L 81.449256 289.024189 
L 81.766612 288.837619 
L 82.083967 288.438991 
L 82.718678 288.237715 
L 83.036033 287.930503 
L 83.670744 287.88409 
L 83.988099 287.49436 
L 84.305455 287.376572 
L 84.62281 287.111143 
L 85.257521 287.001117 
L 85.574876 286.786819 
L 86.209587 285.350237 
L 88.113719 284.341083 
L 88.431074 283.608764 
L 88.74843 283.501722 
L 89.38314 282.666327 
L 89.700496 282.648094 
L 90.017851 282.259019 
L 90.335207 282.164161 
L 91.287273 281.293942 
L 92.556694 280.169403 
L 92.87405 279.373271 
L 93.191405 279.362487 
L 93.826116 279.139679 
L 94.460826 278.893903 
L 95.095537 278.380893 
L 95.412893 278.279438 
L 96.682314 277.310961 
L 97.317025 276.986042 
L 98.269091 276.297699 
L 98.586446 275.886898 
L 99.221157 275.632679 
L 99.538512 274.888546 
L 100.173223 274.814579 
L 100.490579 274.587792 
L 100.807934 274.575499 
L 102.077355 273.966506 
L 102.394711 273.574284 
L 103.029421 273.403262 
L 103.346777 272.810244 
L 103.664132 272.745362 
L 103.981488 272.511479 
L 104.298843 272.010235 
L 104.616198 271.850226 
L 105.250909 270.708256 
L 105.568264 270.693354 
L 107.155041 270.123271 
L 107.472397 269.663672 
L 107.789752 269.520252 
L 108.107107 269.185124 
L 108.741818 269.068732 
L 109.059174 268.815909 
L 109.376529 268.74749 
L 109.693884 267.998077 
L 110.64595 267.765855 
L 110.963306 267.39163 
L 112.232727 266.75758 
L 112.550083 266.685278 
L 112.867438 266.27011 
L 113.502149 265.962637 
L 113.819504 265.262854 
L 114.454215 264.597355 
L 114.77157 264.477288 
L 115.088926 264.22662 
L 115.723636 264.04634 
L 116.040992 263.36057 
L 116.993058 263.021228 
L 117.310413 263.009113 
L 117.945124 261.60362 
L 118.262479 261.4895 
L 118.89719 260.356587 
L 121.118678 259.794519 
L 121.436033 259.35444 
L 121.753388 259.229847 
L 122.070744 258.903816 
L 122.388099 258.748828 
L 123.02281 257.829362 
L 123.657521 257.610755 
L 123.974876 257.219504 
L 124.292231 257.182826 
L 125.561653 256.452871 
L 125.879008 255.987181 
L 126.513719 255.919826 
L 126.831074 255.469715 
L 127.78314 255.215546 
L 128.100496 254.79791 
L 128.417851 254.088733 
L 129.687273 252.77779 
L 130.639339 252.333863 
L 131.591405 251.825056 
L 132.543471 250.613611 
L 133.178182 249.926564 
L 133.495537 249.881501 
L 134.130248 249.452002 
L 135.399669 249.231243 
L 135.717025 248.941429 
L 136.03438 248.910771 
L 136.351736 248.61389 
L 137.303802 248.257433 
L 137.938512 246.536541 
L 138.573223 246.296252 
L 139.207934 246.182996 
L 139.525289 245.870269 
L 140.477355 245.604917 
L 141.112066 245.084989 
L 141.429421 244.337713 
L 141.746777 244.293719 
L 142.381488 243.904136 
L 142.698843 243.564946 
L 143.016198 243.391024 
L 143.333554 242.977085 
L 143.968264 242.764869 
L 144.28562 242.034098 
L 144.920331 241.75646 
L 145.237686 241.015458 
L 145.555041 240.753683 
L 146.507107 240.523976 
L 146.824463 240.088306 
L 147.459174 239.775806 
L 148.41124 239.634331 
L 148.728595 238.905636 
L 149.04595 238.699676 
L 149.363306 238.657994 
L 149.680661 238.129269 
L 149.998017 238.088148 
L 150.632727 237.40613 
L 151.584793 237.076366 
L 151.902149 236.409694 
L 152.53686 236.282623 
L 152.854215 235.720607 
L 153.488926 235.649615 
L 153.806281 234.99255 
L 154.123636 234.949654 
L 154.440992 234.759817 
L 154.758347 234.333899 
L 155.710413 234.132735 
L 156.662479 232.609936 
L 157.29719 232.176939 
L 157.614545 231.938184 
L 157.931901 231.920784 
L 158.249256 231.717501 
L 159.201322 231.669348 
L 159.836033 230.74094 
L 160.470744 230.61325 
L 161.105455 230.193243 
L 161.42281 229.494924 
L 162.057521 229.243687 
L 162.374876 228.819526 
L 163.326942 228.381961 
L 164.596364 228.169055 
L 164.913719 227.840696 
L 165.231074 227.76852 
L 166.817851 226.423997 
L 167.135207 226.406923 
L 167.452562 225.735378 
L 168.087273 225.483313 
L 168.404628 224.892066 
L 168.721983 224.863752 
L 169.039339 224.58544 
L 169.356694 224.471151 
L 169.991405 223.068702 
L 170.626116 222.929573 
L 170.943471 222.399533 
L 171.260826 222.250316 
L 171.578182 221.673264 
L 172.530248 221.409003 
L 173.164959 221.350327 
L 173.482314 220.846325 
L 173.799669 220.563991 
L 174.117025 220.490068 
L 174.43438 220.250348 
L 175.069091 220.050979 
L 175.386446 219.948343 
L 175.703802 219.387573 
L 176.338512 219.225574 
L 176.655868 218.858647 
L 177.925289 218.123928 
L 178.242645 218.120833 
L 178.56 217.726333 
L 179.194711 217.501682 
L 179.512066 216.99304 
L 180.464132 216.911367 
L 180.781488 216.575162 
L 181.098843 216.523914 
L 181.416198 215.414492 
L 181.733554 215.067038 
L 182.050909 215.037292 
L 182.68562 213.939082 
L 183.320331 213.86386 
L 184.589752 213.250351 
L 184.907107 212.860963 
L 185.541818 212.531711 
L 185.859174 212.132597 
L 186.176529 211.993841 
L 186.493884 211.09582 
L 188.080661 210.500099 
L 189.032727 210.33473 
L 189.350083 209.991197 
L 189.667438 209.95508 
L 190.302149 209.56226 
L 191.254215 208.46216 
L 192.523636 207.734249 
L 192.840992 207.652475 
L 193.158347 207.347221 
L 193.793058 207.274119 
L 194.427769 206.729342 
L 194.745124 205.570196 
L 195.379835 204.597919 
L 195.69719 204.437069 
L 196.014545 204.417251 
L 196.331901 204.076262 
L 196.649256 203.571452 
L 196.966612 203.336259 
L 197.283967 203.322934 
L 197.601322 202.485197 
L 197.918678 202.24188 
L 198.236033 202.174371 
L 199.188099 201.435645 
L 199.82281 201.355109 
L 200.457521 201.072284 
L 200.774876 200.989559 
L 201.092231 200.521085 
L 201.409587 200.496406 
L 201.726942 200.132777 
L 202.679008 199.619987 
L 203.313719 198.916329 
L 204.265785 198.562581 
L 204.58314 197.956446 
L 205.535207 197.860467 
L 205.852562 197.149987 
L 206.169917 197.033862 
L 206.487273 196.577739 
L 207.121983 196.511631 
L 207.439339 196.015751 
L 208.391405 195.718207 
L 208.70876 195.448249 
L 209.026116 194.77418 
L 209.660826 194.689442 
L 209.978182 194.153977 
L 210.295537 194.025821 
L 210.612893 193.355111 
L 211.247603 193.204417 
L 211.564959 193.165889 
L 211.882314 192.986405 
L 212.83438 192.094863 
L 213.151736 192.01052 
L 213.469091 191.657214 
L 213.786446 191.107308 
L 214.103802 191.083044 
L 214.421157 190.628153 
L 215.373223 190.179965 
L 217.277355 189.843723 
L 217.594711 189.317133 
L 218.229421 188.706151 
L 218.546777 188.612388 
L 218.864132 188.188722 
L 219.181488 188.122732 
L 219.816198 187.576863 
L 220.133554 187.118006 
L 221.08562 186.77924 
L 221.402975 186.433762 
L 221.720331 186.382564 
L 222.037686 185.956128 
L 222.355041 185.810879 
L 223.307107 183.81276 
L 223.941818 183.157426 
L 226.480661 182.319728 
L 226.798017 181.861002 
L 227.115372 181.691722 
L 228.067438 181.597038 
L 228.384793 181.401856 
L 228.702149 180.791792 
L 229.019504 180.704264 
L 229.654215 180.193763 
L 229.97157 179.48455 
L 230.288926 179.399934 
L 231.240992 178.567404 
L 231.875702 178.486745 
L 232.510413 177.962793 
L 232.827769 176.77098 
L 233.145124 176.499525 
L 234.09719 176.19102 
L 234.414545 175.508208 
L 235.683967 175.198303 
L 236.001322 174.721045 
L 236.318678 174.612068 
L 236.636033 174.369694 
L 236.953388 173.950988 
L 237.270744 173.890328 
L 237.588099 173.669671 
L 237.905455 173.629899 
L 238.22281 172.740667 
L 238.540165 172.629825 
L 239.492231 172.00993 
L 240.126942 171.872117 
L 240.444298 171.792968 
L 240.761653 171.255709 
L 241.079008 170.335096 
L 241.396364 170.097314 
L 241.713719 169.673224 
L 242.34843 169.562731 
L 244.569917 168.861385 
L 244.887273 168.487121 
L 246.156694 168.304023 
L 247.426116 166.027941 
L 248.060826 165.845789 
L 248.695537 164.952684 
L 249.330248 164.830456 
L 249.647603 164.594286 
L 250.282314 163.697935 
L 250.917025 163.630034 
L 251.869091 163.211583 
L 252.503802 163.004295 
L 253.138512 162.858474 
L 254.407934 161.823613 
L 254.725289 161.795599 
L 255.042645 161.461717 
L 255.36 160.816917 
L 255.677355 160.77536 
L 255.994711 160.40997 
L 256.946777 159.922855 
L 257.264132 159.527379 
L 257.581488 159.443872 
L 257.898843 159.22308 
L 258.216198 158.62193 
L 258.850909 158.211933 
L 259.168264 158.193803 
L 259.48562 158.001395 
L 260.120331 157.325581 
L 262.341818 155.826605 
L 262.659174 155.324194 
L 263.293884 154.790017 
L 263.928595 154.594074 
L 264.880661 153.455211 
L 265.515372 153.14063 
L 265.832727 152.734481 
L 266.467438 152.616724 
L 266.784793 152.15889 
L 267.102149 152.113635 
L 267.419504 151.735192 
L 268.688926 151.504966 
L 269.006281 150.653432 
L 270.275702 150.229214 
L 270.593058 149.747506 
L 270.910413 149.693733 
L 271.227769 148.99894 
L 272.179835 148.559382 
L 272.814545 148.370078 
L 273.449256 147.471473 
L 273.766612 146.39856 
L 274.083967 145.963926 
L 274.401322 145.82863 
L 275.036033 144.693576 
L 275.670744 144.6059 
L 275.988099 144.522103 
L 276.305455 144.258327 
L 277.257521 144.189014 
L 278.209587 143.782064 
L 278.526942 143.301488 
L 279.161653 143.244963 
L 279.796364 143.035634 
L 280.113719 142.998193 
L 280.431074 142.517682 
L 281.38314 142.16126 
L 281.700496 141.818092 
L 282.017851 141.091066 
L 282.969917 140.722436 
L 283.287273 140.716331 
L 283.604628 140.466963 
L 283.921983 140.394518 
L 284.556694 139.626313 
L 284.87405 138.501145 
L 285.191405 138.173977 
L 286.143471 137.767513 
L 286.460826 137.041535 
L 287.412893 136.773942 
L 287.730248 136.322409 
L 288.682314 135.907332 
L 289.317025 135.258422 
L 289.951736 134.097445 
L 290.269091 133.91902 
L 290.586446 133.602993 
L 292.173223 133.259822 
L 293.442645 131.504773 
L 293.76 131.413962 
L 294.394711 130.911168 
L 295.664132 130.547367 
L 295.981488 130.155903 
L 297.88562 129.543579 
L 298.202975 129.278727 
L 298.837686 128.319799 
L 299.155041 128.168474 
L 299.472397 127.52424 
L 299.789752 127.21451 
L 300.107107 126.586708 
L 300.424463 126.406452 
L 301.059174 125.70738 
L 301.376529 125.550423 
L 301.693884 125.12435 
L 302.64595 124.863359 
L 303.280661 124.359401 
L 303.598017 124.098485 
L 304.232727 123.98584 
L 305.502149 122.825384 
L 305.819504 122.029973 
L 306.77157 121.872401 
L 307.406281 121.054731 
L 307.723636 120.86785 
L 308.675702 119.891459 
L 309.310413 119.641772 
L 309.945124 119.434862 
L 310.579835 118.678989 
L 312.166612 117.844285 
L 312.483967 117.791643 
L 312.801322 117.217288 
L 313.118678 117.077348 
L 313.436033 116.475971 
L 314.070744 116.364266 
L 314.388099 116.227567 
L 315.340165 115.017458 
L 315.657521 114.917045 
L 315.974876 114.647382 
L 316.609587 114.565159 
L 317.561653 113.702218 
L 317.879008 113.601465 
L 318.513719 113.11949 
L 319.14843 112.901321 
L 319.465785 112.425642 
L 319.78314 112.199828 
L 320.735207 112.021942 
L 321.052562 111.8239 
L 321.687273 111.651866 
L 322.321983 110.876363 
L 322.639339 110.808058 
L 323.27405 110.234777 
L 323.90876 110.14907 
L 324.226116 109.904309 
L 324.543471 109.828798 
L 324.860826 109.225404 
L 325.178182 109.022187 
L 325.812893 107.793981 
L 326.130248 107.685412 
L 327.082314 106.760306 
L 327.399669 106.149472 
L 328.03438 105.846909 
L 328.669091 105.486479 
L 330.573223 104.907842 
L 331.525289 104.352172 
L 331.842645 103.90482 
L 332.794711 103.743742 
L 333.112066 102.717163 
L 334.064132 102.390627 
L 334.381488 102.009499 
L 334.698843 101.98617 
L 335.016198 101.742512 
L 335.333554 100.966419 
L 335.650909 99.630862 
L 336.28562 99.574057 
L 336.920331 99.341838 
L 337.237686 99.219401 
L 337.555041 98.534916 
L 338.189752 98.389495 
L 339.459174 97.507218 
L 340.093884 97.380649 
L 340.41124 97.215659 
L 340.728595 96.642809 
L 341.04595 95.724928 
L 342.950083 94.794032 
L 343.267438 94.73736 
L 343.584793 94.345715 
L 343.902149 94.201657 
L 344.219504 93.612055 
L 344.53686 93.392398 
L 345.17157 92.317215 
L 347.075702 91.997124 
L 347.710413 91.357178 
L 348.979835 91.014172 
L 350.566612 90.070863 
L 350.883967 88.68639 
L 351.518678 87.620302 
L 351.836033 87.584408 
L 352.153388 87.281208 
L 352.470744 87.230891 
L 353.42281 86.479998 
L 354.057521 86.379812 
L 354.374876 86.304441 
L 355.326942 85.378055 
L 355.961653 85.182347 
L 356.279008 84.890011 
L 356.596364 84.843825 
L 356.913719 84.469943 
L 357.231074 84.36257 
L 357.54843 84.074583 
L 357.865785 84.010836 
L 358.817851 83.287675 
L 359.135207 83.263711 
L 359.452562 83.017655 
L 359.769917 82.973799 
L 360.087273 82.122162 
L 360.404628 81.713997 
L 360.721983 81.700198 
L 361.039339 81.259124 
L 361.356694 81.223004 
L 361.67405 80.957899 
L 362.30876 80.822678 
L 362.626116 79.961843 
L 362.943471 79.939197 
L 363.578182 79.42119 
L 364.530248 79.114337 
L 364.847603 78.765055 
L 365.482314 78.632846 
L 368.021157 76.180108 
L 368.655868 75.756199 
L 369.290579 75.626595 
L 369.925289 75.307645 
L 370.242645 75.006843 
L 371.194711 73.741859 
L 371.512066 73.620544 
L 371.829421 73.31101 
L 372.781488 72.843974 
L 373.098843 72.3334 
L 373.416198 72.110836 
L 373.733554 72.026811 
L 374.050909 71.374014 
L 374.68562 71.302587 
L 375.002975 70.614869 
L 375.320331 70.575109 
L 375.637686 69.896081 
L 376.272397 69.792128 
L 376.589752 69.242211 
L 376.907107 69.197622 
L 377.224463 68.511411 
L 377.541818 68.287681 
L 377.859174 67.658739 
L 378.176529 67.635384 
L 378.493884 67.494013 
L 378.81124 67.056284 
L 379.763306 66.938833 
L 380.398017 66.653447 
L 381.350083 66.522289 
L 381.667438 66.289489 
L 381.984793 65.733896 
L 382.302149 65.690027 
L 382.93686 65.320357 
L 383.57157 65.288325 
L 383.888926 64.588129 
L 385.158347 63.909062 
L 385.475702 63.824529 
L 385.793058 63.539729 
L 386.110413 63.498281 
L 386.745124 62.93562 
L 387.062479 62.632169 
L 387.69719 62.434782 
L 388.331901 61.176875 
L 389.918678 60.5901 
L 390.236033 60.025075 
L 390.870744 59.6514 
L 391.82281 59.24026 
L 392.457521 58.743597 
L 393.409587 56.857464 
L 394.044298 56.484954 
L 394.679008 56.245317 
L 394.996364 55.643361 
L 395.313719 55.484938 
L 395.631074 55.138207 
L 396.265785 54.864895 
L 396.58314 54.31116 
L 396.900496 54.306822 
L 397.217851 53.799338 
L 398.169917 53.625424 
L 398.487273 53.568 
L 398.487273 53.568 
" clip-path="url(#p749143ca10)" style="fill: none; stroke: #1f77b4; stroke-width: 1.5; stroke-linecap: square"/>
   </g>
   <g id="line2d_15">
    <path d="M 73.832727 295.025474 
L 74.150083 294.762609 
L 74.467438 294.149836 
L 75.102149 294.019109 
L 75.419504 294.019105 
L 75.73686 293.689761 
L 76.054215 293.611563 
L 76.37157 293.044365 
L 77.323636 292.766239 
L 77.640992 292.731664 
L 78.910413 291.26201 
L 79.227769 291.208141 
L 79.545124 290.87847 
L 81.131901 290.49059 
L 81.449256 290.149289 
L 82.083967 290.064468 
L 82.401322 289.602334 
L 82.718678 289.513009 
L 83.036033 289.089526 
L 83.353388 287.806387 
L 83.670744 287.687818 
L 83.988099 286.966529 
L 84.305455 286.600006 
L 85.257521 286.496627 
L 85.892231 286.147518 
L 86.526942 284.971742 
L 86.844298 284.971739 
L 87.161653 284.848388 
L 87.479008 284.36986 
L 88.113719 284.248112 
L 88.74843 283.858582 
L 89.065785 283.291877 
L 89.700496 283.042758 
L 90.335207 282.916058 
L 90.969917 282.735199 
L 91.921983 281.785383 
L 92.239339 281.273434 
L 93.826116 279.929487 
L 94.460826 279.54221 
L 94.778182 279.428232 
L 95.412893 277.717255 
L 95.730248 277.689147 
L 97.63438 276.712948 
L 97.951736 276.100724 
L 98.269091 276.020508 
L 98.903802 274.799423 
L 99.221157 274.498804 
L 100.490579 274.37549 
L 100.807934 274.084046 
L 101.76 273.859568 
L 102.077355 273.543034 
L 102.394711 273.4733 
L 102.712066 273.260451 
L 103.029421 273.199238 
L 104.616198 271.821477 
L 105.568264 270.77507 
L 105.88562 270.536915 
L 106.837686 270.332396 
L 107.155041 270.332392 
L 108.107107 269.209923 
L 108.424463 269.188234 
L 108.741818 268.68397 
L 109.376529 268.398378 
L 110.01124 268.161094 
L 110.64595 266.971729 
L 110.963306 266.580748 
L 111.598017 266.378282 
L 111.915372 266.31966 
L 112.232727 265.601307 
L 112.867438 265.581012 
L 113.819504 264.494381 
L 115.406281 264.037497 
L 115.723636 263.76524 
L 116.675702 263.509165 
L 117.310413 263.261666 
L 118.262479 262.899522 
L 119.531901 261.120681 
L 119.849256 261.026186 
L 120.166612 260.435569 
L 120.801322 260.088031 
L 121.118678 260.066691 
L 121.436033 259.346701 
L 122.070744 259.287459 
L 122.388099 258.560108 
L 122.705455 258.281685 
L 123.02281 258.268925 
L 123.340165 257.971813 
L 123.657521 257.962808 
L 124.292231 256.699414 
L 124.926942 256.436535 
L 125.244298 255.823794 
L 125.879008 255.693067 
L 126.196364 255.693063 
L 126.513719 255.417888 
L 127.14843 255.285517 
L 127.465785 255.113532 
L 127.78314 254.71833 
L 128.100496 254.533676 
L 128.417851 254.517267 
L 128.735207 254.02837 
L 129.052562 253.779331 
L 129.369917 253.711644 
L 129.687273 253.111878 
L 130.004628 252.935968 
L 130.321983 252.467927 
L 131.591405 252.16455 
L 131.90876 251.823277 
L 133.178182 251.395358 
L 133.812893 251.186962 
L 134.130248 249.361741 
L 135.082314 248.27396 
L 136.03438 248.215386 
L 136.351736 248.02464 
L 136.669091 247.994891 
L 137.303802 247.751224 
L 137.938512 246.645689 
L 138.255868 246.645687 
L 138.573223 246.522348 
L 138.890579 246.00845 
L 139.207934 245.7339 
L 139.842645 245.532517 
L 140.16 244.965822 
L 140.794711 244.716723 
L 141.429421 244.556699 
L 142.064132 244.409153 
L 142.698843 243.76032 
L 143.650909 243.459337 
L 143.968264 242.876424 
L 144.920331 242.102776 
L 145.237686 241.768436 
L 145.555041 241.758706 
L 146.824463 241.102186 
L 147.141818 240.838717 
L 147.776529 239.391219 
L 148.093884 239.36314 
L 149.363306 238.755279 
L 149.680661 238.735161 
L 149.998017 238.386918 
L 150.315372 237.774692 
L 150.632727 237.694476 
L 150.950083 236.473352 
L 151.267438 236.172745 
L 152.53686 236.049449 
L 152.854215 235.757996 
L 153.806281 235.543696 
L 154.123636 235.216977 
L 154.440992 235.147258 
L 154.758347 234.934412 
L 155.075702 234.87319 
L 156.027769 234.052778 
L 156.345124 233.530975 
L 156.662479 233.495435 
L 157.29719 232.658665 
L 157.614545 232.597304 
L 157.931901 232.127993 
L 158.249256 232.00635 
L 158.566612 232.006347 
L 158.883967 231.182523 
L 159.201322 230.883878 
L 159.518678 230.862196 
L 159.836033 230.357928 
L 160.470744 230.072334 
L 161.42281 229.695303 
L 161.740165 229.493572 
L 162.057521 228.645651 
L 162.374876 228.254702 
L 163.644298 227.942325 
L 163.961653 227.275264 
L 164.596364 227.254969 
L 164.913719 226.854008 
L 165.54843 226.617037 
L 165.865785 226.168327 
L 166.817851 225.892106 
L 167.135207 225.439188 
L 168.087273 225.183114 
L 168.721983 224.935626 
L 169.67405 224.573492 
L 170.30876 223.8253 
L 170.943471 223.646737 
L 171.578182 222.794645 
L 172.530248 222.672482 
L 172.847603 222.109528 
L 173.164959 221.931489 
L 173.799669 221.02065 
L 174.43438 220.961421 
L 174.751736 219.955636 
L 175.069091 219.942875 
L 175.386446 219.645761 
L 176.021157 218.373354 
L 176.655868 218.235933 
L 177.607934 217.367025 
L 177.925289 217.367022 
L 178.242645 217.091833 
L 179.194711 216.959469 
L 179.512066 216.521394 
L 180.781488 216.191221 
L 181.098843 215.702337 
L 181.416198 215.694386 
L 181.733554 215.453299 
L 182.050909 215.385594 
L 182.368264 214.785836 
L 182.68562 214.609926 
L 183.002975 214.058198 
L 183.637686 213.838513 
L 183.955041 213.497259 
L 184.589752 213.374804 
L 184.907107 213.369477 
L 185.224463 213.147224 
L 186.176529 212.860918 
L 186.493884 212.09695 
L 186.81124 212.018316 
L 187.128595 211.035665 
L 187.44595 210.698745 
L 187.763306 209.947917 
L 188.080661 209.906988 
L 188.398017 209.698577 
L 188.715372 209.674098 
L 189.667438 209.324509 
L 189.984793 208.877773 
L 190.302149 208.821971 
L 190.619504 208.319637 
L 190.93686 208.319636 
L 191.254215 208.196307 
L 191.57157 207.682407 
L 191.888926 207.407866 
L 192.523636 207.288728 
L 192.840992 206.471798 
L 193.158347 206.309973 
L 194.745124 206.083108 
L 195.379835 205.434268 
L 196.014545 205.30353 
L 196.331901 205.303526 
L 196.649256 205.133291 
L 196.966612 204.550423 
L 197.283967 204.53848 
L 197.918678 204.199437 
L 198.553388 203.912921 
L 199.188099 202.890127 
L 199.505455 202.776139 
L 199.82281 202.093861 
L 200.457521 201.84463 
L 200.774876 200.615344 
L 201.726942 200.409122 
L 202.679008 199.448661 
L 202.996364 198.147284 
L 203.313719 197.846695 
L 204.58314 197.723406 
L 204.900496 197.431946 
L 206.169917 197.217665 
L 206.487273 196.890922 
L 206.804628 196.821218 
L 207.121983 196.60837 
L 207.439339 196.547145 
L 208.391405 195.726714 
L 208.70876 195.204914 
L 209.026116 195.169396 
L 209.343471 194.664637 
L 209.660826 194.408391 
L 210.295537 194.271269 
L 210.612893 193.680304 
L 210.930248 193.680303 
L 211.564959 193.296858 
L 212.199669 192.557834 
L 212.517025 192.536159 
L 212.83438 192.277533 
L 213.151736 191.746289 
L 215.055868 190.319574 
L 215.373223 189.928656 
L 216.642645 189.616291 
L 216.96 189.05539 
L 217.594711 188.928926 
L 217.912066 188.52795 
L 218.229421 188.345613 
L 218.546777 187.842276 
L 219.498843 187.566062 
L 219.816198 187.039097 
L 220.450909 186.857065 
L 221.08562 186.458202 
L 221.402975 186.382883 
L 221.720331 186.129211 
L 222.037686 185.499273 
L 222.672397 185.320657 
L 222.989752 184.925932 
L 223.307107 184.879257 
L 223.624463 184.508529 
L 224.259174 184.346456 
L 224.576529 184.223918 
L 224.893884 183.783485 
L 225.528595 183.38528 
L 225.84595 182.6946 
L 226.163306 182.635382 
L 226.480661 182.275867 
L 226.798017 182.218874 
L 227.115372 181.629588 
L 227.750083 181.616826 
L 228.384793 181.31971 
L 229.019504 179.909862 
L 229.97157 179.040984 
L 230.288926 179.040982 
L 230.606281 178.765779 
L 231.558347 178.496995 
L 232.193058 177.881541 
L 232.510413 177.865176 
L 234.414545 177.059547 
L 235.049256 175.732154 
L 235.366612 175.69626 
L 235.683967 175.512477 
L 236.001322 175.086357 
L 236.636033 175.043431 
L 236.953388 174.821208 
L 237.588099 174.624212 
L 237.905455 173.770909 
L 238.22281 173.692257 
L 238.540165 172.70959 
L 238.857521 172.37268 
L 239.174876 171.621875 
L 239.492231 171.580936 
L 239.809587 171.372514 
L 240.444298 171.34806 
L 241.396364 170.998472 
L 241.713719 170.551703 
L 242.031074 170.495932 
L 242.34843 169.993586 
L 242.665785 169.993586 
L 242.98314 169.76786 
L 243.300496 169.247223 
L 243.617851 169.081828 
L 243.935207 168.09219 
L 244.887273 167.872519 
L 245.521983 167.757065 
L 245.839339 167.108219 
L 246.47405 166.977483 
L 246.791405 166.977482 
L 247.10876 166.807246 
L 247.426116 166.224416 
L 247.743471 166.212403 
L 248.378182 165.873375 
L 249.012893 165.586861 
L 249.330248 164.9961 
L 249.647603 164.951345 
L 250.599669 164.450091 
L 250.917025 164.372744 
L 251.23438 163.767814 
L 252.503802 163.027627 
L 253.138512 162.289295 
L 253.455868 162.103145 
L 253.773223 162.083084 
L 254.090579 161.734853 
L 254.407934 161.186036 
L 254.725289 161.12263 
L 255.042645 159.953092 
L 255.677355 159.821217 
L 255.994711 159.499834 
L 256.946777 159.397361 
L 257.264132 159.105899 
L 258.216198 158.891633 
L 258.533554 158.564868 
L 258.850909 158.481355 
L 259.168264 158.282327 
L 259.48562 158.221102 
L 259.802975 157.930147 
L 260.755041 156.338599 
L 262.341818 155.945237 
L 262.659174 155.35426 
L 263.293884 155.332467 
L 263.61124 155.181027 
L 263.928595 154.231793 
L 264.24595 154.210124 
L 264.563306 153.951463 
L 264.880661 153.932595 
L 265.198017 153.569698 
L 265.515372 153.420244 
L 265.832727 153.043181 
L 266.150083 152.841444 
L 266.784793 152.224007 
L 267.102149 151.993499 
L 267.419504 151.53611 
L 267.73686 151.516641 
L 269.006281 150.675622 
L 269.958347 150.488877 
L 270.593058 150.01957 
L 270.910413 149.240019 
L 271.227769 149.059068 
L 271.545124 148.713067 
L 272.179835 148.531019 
L 272.49719 148.132148 
L 273.131901 148.05684 
L 273.449256 147.803176 
L 273.766612 147.351521 
L 274.401322 147.079568 
L 274.718678 146.994585 
L 275.353388 146.182453 
L 275.670744 146.15764 
L 276.305455 145.897881 
L 276.62281 145.279396 
L 277.257521 144.818603 
L 277.892231 143.949841 
L 278.209587 143.892824 
L 278.526942 143.303538 
L 279.161653 143.290777 
L 279.479008 142.99366 
L 279.796364 141.642335 
L 281.065785 140.714943 
L 281.38314 140.439727 
L 282.335207 140.17096 
L 282.969917 139.555478 
L 283.287273 139.53913 
L 284.239339 139.148312 
L 284.87405 139.042264 
L 285.50876 138.55968 
L 285.826116 138.544078 
L 286.460826 137.406108 
L 286.778182 137.3702 
L 287.095537 136.760321 
L 288.364959 136.562015 
L 288.999669 136.417245 
L 289.317025 136.100248 
L 289.63438 136.091489 
L 289.951736 135.444867 
L 290.586446 135.268779 
L 290.903802 134.046617 
L 291.221157 133.984589 
L 291.538512 133.254887 
L 291.855868 133.046453 
L 292.490579 133.022021 
L 293.125289 132.672433 
L 293.442645 132.274475 
L 294.077355 132.169895 
L 294.394711 131.667537 
L 294.712066 131.667536 
L 295.029421 131.112454 
L 295.346777 130.921184 
L 295.664132 129.766121 
L 296.933554 129.431023 
L 297.250909 128.782171 
L 297.568264 128.651439 
L 297.88562 128.651437 
L 298.520331 128.243896 
L 299.155041 127.547316 
L 299.789752 127.364087 
L 300.107107 127.260804 
L 300.424463 126.670045 
L 300.741818 126.625297 
L 301.693884 126.124043 
L 302.01124 126.070262 
L 302.328595 125.840468 
L 302.64595 125.441766 
L 302.963306 125.278254 
L 303.598017 124.701579 
L 303.915372 124.696791 
L 304.232727 124.234658 
L 304.867438 123.963248 
L 305.184793 123.777083 
L 305.502149 123.72183 
L 305.819504 123.408818 
L 306.454215 121.598868 
L 306.77157 121.173785 
L 307.088926 121.128947 
L 307.406281 120.779852 
L 308.358347 120.565598 
L 308.675702 120.238815 
L 308.993058 120.155297 
L 309.310413 119.956281 
L 309.627769 119.604097 
L 309.945124 119.604091 
L 310.262479 119.480705 
L 310.579835 119.002242 
L 310.89719 118.966815 
L 311.214545 117.924238 
L 311.849256 117.680511 
L 312.483967 117.54841 
L 312.801322 117.028217 
L 313.118678 117.006436 
L 313.436033 116.854963 
L 313.753388 116.232438 
L 314.070744 115.905753 
L 314.388099 115.88409 
L 314.705455 115.625403 
L 315.02281 115.60654 
L 315.340165 115.243586 
L 315.657521 115.094199 
L 315.974876 114.717121 
L 316.926942 114.174543 
L 319.14843 112.349579 
L 319.78314 112.162823 
L 320.100496 111.875844 
L 320.735207 111.693527 
L 321.052562 111.492906 
L 321.369917 110.913976 
L 321.687273 110.733035 
L 322.321983 110.01398 
L 322.639339 109.806096 
L 323.27405 109.730807 
L 323.591405 109.477138 
L 323.90876 109.025476 
L 324.543471 108.753523 
L 325.178182 108.645358 
L 325.495537 108.105637 
L 325.812893 107.856384 
L 326.130248 107.831585 
L 328.03438 106.733188 
L 329.303802 105.62381 
L 329.621157 105.566776 
L 329.938512 105.169332 
L 330.255868 104.977488 
L 330.890579 104.964729 
L 331.207934 104.667612 
L 331.525289 103.820561 
L 331.842645 103.483771 
L 333.112066 102.711918 
L 333.429421 102.113677 
L 334.064132 101.844922 
L 334.381488 101.213085 
L 335.333554 100.822282 
L 335.650909 100.815621 
L 336.28562 100.233638 
L 336.920331 100.213346 
L 337.555041 99.126742 
L 338.507107 98.92774 
L 339.459174 98.235958 
L 340.728595 97.765459 
L 341.04595 97.118823 
L 341.363306 96.942714 
L 341.680661 95.720557 
L 341.998017 95.658532 
L 342.315372 95.067889 
L 342.632727 94.720393 
L 343.267438 94.695981 
L 343.902149 94.39573 
L 344.219504 93.945561 
L 344.53686 93.843859 
L 344.854215 93.341489 
L 345.17157 93.341487 
L 345.488926 93.192499 
L 346.123636 92.595142 
L 346.440992 91.440055 
L 347.710413 91.068936 
L 348.027769 90.456125 
L 348.662479 90.325396 
L 348.979835 90.325393 
L 349.29719 90.155158 
L 349.614545 90.150814 
L 349.931901 89.917853 
L 350.249256 89.221262 
L 350.883967 89.037996 
L 351.201322 88.343991 
L 351.836033 87.8734 
L 353.105455 87.514429 
L 353.42281 87.115717 
L 355.326942 86.370752 
L 355.644298 85.908619 
L 355.961653 85.819304 
L 356.279008 85.451024 
L 356.596364 85.395803 
L 356.913719 84.112668 
L 357.231074 83.994142 
L 357.54843 83.27282 
L 357.865785 82.906298 
L 358.817851 82.627196 
L 359.452562 82.239561 
L 359.769917 81.912764 
L 360.404628 81.677721 
L 360.721983 81.278041 
L 361.039339 81.278037 
L 361.356694 81.15467 
L 361.67405 80.676171 
L 361.991405 80.640776 
L 362.626116 79.598179 
L 363.260826 79.354465 
L 363.895537 79.293176 
L 364.847603 79.041491 
L 366.751736 76.917476 
L 369.290579 75.734524 
L 369.607934 74.884042 
L 369.925289 74.864556 
L 370.242645 74.70035 
L 370.877355 74.081229 
L 371.829421 73.836771 
L 372.146777 73.50914 
L 372.781488 73.166872 
L 373.098843 72.587935 
L 374.050909 71.973344 
L 375.320331 70.774287 
L 376.589752 70.390343 
L 376.907107 69.77959 
L 378.176529 68.813282 
L 379.128595 68.127766 
L 379.763306 67.240729 
L 380.080661 66.843243 
L 381.032727 66.638683 
L 381.350083 66.341565 
L 381.667438 65.494519 
L 381.984793 64.990256 
L 382.619504 64.788605 
L 383.254215 64.598907 
L 383.57157 64.385862 
L 383.888926 63.787628 
L 384.206281 63.708356 
L 384.523636 62.887039 
L 385.158347 62.684552 
L 385.793058 62.489553 
L 386.110413 61.907595 
L 387.062479 61.871132 
L 387.379835 61.305769 
L 387.69719 61.249329 
L 388.014545 60.800683 
L 389.601322 60.343789 
L 389.918678 60.071539 
L 392.457521 59.439425 
L 392.774876 59.205807 
L 393.092231 58.792778 
L 393.409587 58.616654 
L 394.044298 57.332479 
L 394.361653 56.741852 
L 394.996364 56.394334 
L 395.631074 56.369939 
L 395.94843 55.619527 
L 396.265785 55.517825 
L 396.58314 55.047147 
L 396.900496 55.015439 
L 397.217851 54.866424 
L 397.535207 54.587978 
L 397.852562 54.575221 
L 398.169917 54.278112 
L 398.487273 54.269099 
L 398.487273 54.269099 
" clip-path="url(#p749143ca10)" style="fill: none; stroke: #ff7f0e; stroke-width: 1.5; stroke-linecap: square"/>
   </g>
   <g id="patch_3">
    <path d="M 57.6 307.584 
L 57.6 41.472 
" style="fill: none; stroke: #000000; stroke-width: 0.8; stroke-linejoin: miter; stroke-linecap: square"/>
   </g>
   <g id="patch_4">
    <path d="M 414.72 307.584 
L 414.72 41.472 
" style="fill: none; stroke: #000000; stroke-width: 0.8; stroke-linejoin: miter; stroke-linecap: square"/>
   </g>
   <g id="patch_5">
    <path d="M 57.6 307.584 
L 414.72 307.584 
" style="fill: none; stroke: #000000; stroke-width: 0.8; stroke-linejoin: miter; stroke-linecap: square"/>
   </g>
   <g id="patch_6">
    <path d="M 57.6 41.472 
L 414.72 41.472 
" style="fill: none; stroke: #000000; stroke-width: 0.8; stroke-linejoin: miter; stroke-linecap: square"/>
   </g>
   <g id="legend_1">
    <g id="patch_7">
     <path d="M 64.6 78.82825 
L 129.342187 78.82825 
Q 131.342187 78.82825 131.342187 76.82825 
L 131.342187 48.472 
Q 131.342187 46.472 129.342187 46.472 
L 64.6 46.472 
Q 62.6 46.472 62.6 48.472 
L 62.6 76.82825 
Q 62.6 78.82825 64.6 78.82825 
z
" style="fill: #ffffff; opacity: 0.8; stroke: #cccccc; stroke-linejoin: miter"/>
    </g>
    <g id="line2d_16">
     <path d="M 66.6 54.570437 
L 76.6 54.570437 
L 86.6 54.570437 
" style="fill: none; stroke: #1f77b4; stroke-width: 1.5; stroke-linecap: square"/>
    </g>
    <g id="text_16">
     <!-- qc -->
     <g transform="translate(94.6 58.070437) scale(0.1 -0.1)">
      <defs>
       <path id="DejaVuSans-71" d="M 947 1747 
Q 947 1113 1208 752 
Q 1469 391 1925 391 
Q 2381 391 2643 752 
Q 2906 1113 2906 1747 
Q 2906 2381 2643 2742 
Q 2381 3103 1925 3103 
Q 1469 3103 1208 2742 
Q 947 2381 947 1747 
z
M 2906 525 
Q 2725 213 2448 61 
Q 2172 -91 1784 -91 
Q 1150 -91 751 415 
Q 353 922 353 1747 
Q 353 2572 751 3078 
Q 1150 3584 1784 3584 
Q 2172 3584 2448 3432 
Q 2725 3281 2906 2969 
L 2906 3500 
L 3481 3500 
L 3481 -1331 
L 2906 -1331 
L 2906 525 
z
" transform="scale(0.015625)"/>
       <path id="DejaVuSans-63" d="M 3122 3366 
L 3122 2828 
Q 2878 2963 2633 3030 
Q 2388 3097 2138 3097 
Q 1578 3097 1268 2742 
Q 959 2388 959 1747 
Q 959 1106 1268 751 
Q 1578 397 2138 397 
Q 2388 397 2633 464 
Q 2878 531 3122 666 
L 3122 134 
Q 2881 22 2623 -34 
Q 2366 -91 2075 -91 
Q 1284 -91 818 406 
Q 353 903 353 1747 
Q 353 2603 823 3093 
Q 1294 3584 2113 3584 
Q 2378 3584 2631 3529 
Q 2884 3475 3122 3366 
z
" transform="scale(0.015625)"/>
      </defs>
      <use xlink:href="#DejaVuSans-71"/>
      <use xlink:href="#DejaVuSans-63" x="63.476562"/>
     </g>
    </g>
    <g id="line2d_17">
     <path d="M 66.6 69.248562 
L 76.6 69.248562 
L 86.6 69.248562 
" style="fill: none; stroke: #ff7f0e; stroke-width: 1.5; stroke-linecap: square"/>
    </g>
    <g id="text_17">
     <!-- Trotter -->
     <g transform="translate(94.6 72.748562) scale(0.1 -0.1)">
      <defs>
       <path id="DejaVuSans-54" d="M -19 4666 
L 3928 4666 
L 3928 4134 
L 2272 4134 
L 2272 0 
L 1638 0 
L 1638 4134 
L -19 4134 
L -19 4666 
z
" transform="scale(0.015625)"/>
       <path id="DejaVuSans-72" d="M 2631 2963 
Q 2534 3019 2420 3045 
Q 2306 3072 2169 3072 
Q 1681 3072 1420 2755 
Q 1159 2438 1159 1844 
L 1159 0 
L 581 0 
L 581 3500 
L 1159 3500 
L 1159 2956 
Q 1341 3275 1631 3429 
Q 1922 3584 2338 3584 
Q 2397 3584 2469 3576 
Q 2541 3569 2628 3553 
L 2631 2963 
z
" transform="scale(0.015625)"/>
       <path id="DejaVuSans-6f" d="M 1959 3097 
Q 1497 3097 1228 2736 
Q 959 2375 959 1747 
Q 959 1119 1226 758 
Q 1494 397 1959 397 
Q 2419 397 2687 759 
Q 2956 1122 2956 1747 
Q 2956 2369 2687 2733 
Q 2419 3097 1959 3097 
z
M 1959 3584 
Q 2709 3584 3137 3096 
Q 3566 2609 3566 1747 
Q 3566 888 3137 398 
Q 2709 -91 1959 -91 
Q 1206 -91 779 398 
Q 353 888 353 1747 
Q 353 2609 779 3096 
Q 1206 3584 1959 3584 
z
" transform="scale(0.015625)"/>
       <path id="DejaVuSans-65" d="M 3597 1894 
L 3597 1613 
L 953 1613 
Q 991 1019 1311 708 
Q 1631 397 2203 397 
Q 2534 397 2845 478 
Q 3156 559 3463 722 
L 3463 178 
Q 3153 47 2828 -22 
Q 2503 -91 2169 -91 
Q 1331 -91 842 396 
Q 353 884 353 1716 
Q 353 2575 817 3079 
Q 1281 3584 2069 3584 
Q 2775 3584 3186 3129 
Q 3597 2675 3597 1894 
z
M 3022 2063 
Q 3016 2534 2758 2815 
Q 2500 3097 2075 3097 
Q 1594 3097 1305 2825 
Q 1016 2553 972 2059 
L 3022 2063 
z
" transform="scale(0.015625)"/>
      </defs>
      <use xlink:href="#DejaVuSans-54"/>
      <use xlink:href="#DejaVuSans-72" x="46.333984"/>
      <use xlink:href="#DejaVuSans-6f" x="85.197266"/>
      <use xlink:href="#DejaVuSans-74" x="146.378906"/>
      <use xlink:href="#DejaVuSans-74" x="185.587891"/>
      <use xlink:href="#DejaVuSans-65" x="224.796875"/>
      <use xlink:href="#DejaVuSans-72" x="286.320312"/>
     </g>
    </g>
   </g>
  </g>
 </g>
 <defs>
  <clipPath id="p749143ca10">
   <rect x="57.6" y="41.472" width="357.12" height="266.112"/>
  </clipPath>
 </defs>
</svg>
