<?xml version="1.0" encoding="utf-8" standalone="no"?>
<!DOCTYPE svg PUBLIC "-//W3C//DTD SVG 1.1//EN"
  "http://www.w3.org/Graphics/SVG/1.1/DTD/svg11.dtd">
<svg xmlns:xlink="http://www.w3.org/1999/xlink" width="460.8pt" height="345.6pt" viewBox="0 0 460.8 345.6" xmlns="http://www.w3.org/2000/svg" version="1.1">
 <metadata>
  <rdf:RDF xmlns:dc="http://purl.org/dc/elements/1.1/" xmlns:cc="http://creativecommons.org/ns#" xmlns:rdf="http://www.w3.org/1999/02/22-rdf-syntax-ns#">
   <cc:Work>
    <dc:type rdf:resource="http://purl.org/dc/dcmitype/StillImage"/>
    <dc:date>2024-08-16T18:49:23.091637</dc:date>
    <dc:format>image/svg+xml</dc:format>
    <dc:creator>
     <cc:Agent>
      <dc:title>Matplotlib v3.7.1, https://matplotlib.org/</dc:title>
     </cc:Agent>
    </dc:creator>
   </cc:Work>
  </rdf:RDF>
 </metadata>
 <defs>
  <style type="text/css">*{stroke-linejoin: round; stroke-linecap: butt}</style>
 </defs>
 <g id="figure_1">
  <g id="patch_1">
   <path d="M 0 345.6 
L 460.8 345.6 
L 460.8 0 
L 0 0 
z
" style="fill: #ffffff"/>
  </g>
  <g id="axes_1">
   <g id="patch_2">
    <path d="M 57.6 307.584 
L 414.72 307.584 
L 414.72 41.472 
L 57.6 41.472 
z
" style="fill: #ffffff"/>
   </g>
   <g id="matplotlib.axis_1">
    <g id="xtick_1">
     <g id="line2d_1">
      <defs>
       <path id="m7cf9fc3b51" d="M 0 0 
L 0 3.5 
" style="stroke: #000000; stroke-width: 0.8"/>
      </defs>
      <g>
       <use xlink:href="#m7cf9fc3b51" x="73.832727" y="307.584" style="stroke: #000000; stroke-width: 0.8"/>
      </g>
     </g>
     <g id="text_1">
      <!-- 0 -->
      <g transform="translate(70.651477 322.182437) scale(0.1 -0.1)">
       <defs>
        <path id="DejaVuSans-30" d="M 2034 4250 
Q 1547 4250 1301 3770 
Q 1056 3291 1056 2328 
Q 1056 1369 1301 889 
Q 1547 409 2034 409 
Q 2525 409 2770 889 
Q 3016 1369 3016 2328 
Q 3016 3291 2770 3770 
Q 2525 4250 2034 4250 
z
M 2034 4750 
Q 2819 4750 3233 4129 
Q 3647 3509 3647 2328 
Q 3647 1150 3233 529 
Q 2819 -91 2034 -91 
Q 1250 -91 836 529 
Q 422 1150 422 2328 
Q 422 3509 836 4129 
Q 1250 4750 2034 4750 
z
" transform="scale(0.015625)"/>
       </defs>
       <use xlink:href="#DejaVuSans-30"/>
      </g>
     </g>
    </g>
    <g id="xtick_2">
     <g id="line2d_2">
      <g>
       <use xlink:href="#m7cf9fc3b51" x="137.303802" y="307.584" style="stroke: #000000; stroke-width: 0.8"/>
      </g>
     </g>
     <g id="text_2">
      <!-- 200 -->
      <g transform="translate(127.760052 322.182437) scale(0.1 -0.1)">
       <defs>
        <path id="DejaVuSans-32" d="M 1228 531 
L 3431 531 
L 3431 0 
L 469 0 
L 469 531 
Q 828 903 1448 1529 
Q 2069 2156 2228 2338 
Q 2531 2678 2651 2914 
Q 2772 3150 2772 3378 
Q 2772 3750 2511 3984 
Q 2250 4219 1831 4219 
Q 1534 4219 1204 4116 
Q 875 4013 500 3803 
L 500 4441 
Q 881 4594 1212 4672 
Q 1544 4750 1819 4750 
Q 2544 4750 2975 4387 
Q 3406 4025 3406 3419 
Q 3406 3131 3298 2873 
Q 3191 2616 2906 2266 
Q 2828 2175 2409 1742 
Q 1991 1309 1228 531 
z
" transform="scale(0.015625)"/>
       </defs>
       <use xlink:href="#DejaVuSans-32"/>
       <use xlink:href="#DejaVuSans-30" x="63.623047"/>
       <use xlink:href="#DejaVuSans-30" x="127.246094"/>
      </g>
     </g>
    </g>
    <g id="xtick_3">
     <g id="line2d_3">
      <g>
       <use xlink:href="#m7cf9fc3b51" x="200.774876" y="307.584" style="stroke: #000000; stroke-width: 0.8"/>
      </g>
     </g>
     <g id="text_3">
      <!-- 400 -->
      <g transform="translate(191.231126 322.182437) scale(0.1 -0.1)">
       <defs>
        <path id="DejaVuSans-34" d="M 2419 4116 
L 825 1625 
L 2419 1625 
L 2419 4116 
z
M 2253 4666 
L 3047 4666 
L 3047 1625 
L 3713 1625 
L 3713 1100 
L 3047 1100 
L 3047 0 
L 2419 0 
L 2419 1100 
L 313 1100 
L 313 1709 
L 2253 4666 
z
" transform="scale(0.015625)"/>
       </defs>
       <use xlink:href="#DejaVuSans-34"/>
       <use xlink:href="#DejaVuSans-30" x="63.623047"/>
       <use xlink:href="#DejaVuSans-30" x="127.246094"/>
      </g>
     </g>
    </g>
    <g id="xtick_4">
     <g id="line2d_4">
      <g>
       <use xlink:href="#m7cf9fc3b51" x="264.24595" y="307.584" style="stroke: #000000; stroke-width: 0.8"/>
      </g>
     </g>
     <g id="text_4">
      <!-- 600 -->
      <g transform="translate(254.7022 322.182437) scale(0.1 -0.1)">
       <defs>
        <path id="DejaVuSans-36" d="M 2113 2584 
Q 1688 2584 1439 2293 
Q 1191 2003 1191 1497 
Q 1191 994 1439 701 
Q 1688 409 2113 409 
Q 2538 409 2786 701 
Q 3034 994 3034 1497 
Q 3034 2003 2786 2293 
Q 2538 2584 2113 2584 
z
M 3366 4563 
L 3366 3988 
Q 3128 4100 2886 4159 
Q 2644 4219 2406 4219 
Q 1781 4219 1451 3797 
Q 1122 3375 1075 2522 
Q 1259 2794 1537 2939 
Q 1816 3084 2150 3084 
Q 2853 3084 3261 2657 
Q 3669 2231 3669 1497 
Q 3669 778 3244 343 
Q 2819 -91 2113 -91 
Q 1303 -91 875 529 
Q 447 1150 447 2328 
Q 447 3434 972 4092 
Q 1497 4750 2381 4750 
Q 2619 4750 2861 4703 
Q 3103 4656 3366 4563 
z
" transform="scale(0.015625)"/>
       </defs>
       <use xlink:href="#DejaVuSans-36"/>
       <use xlink:href="#DejaVuSans-30" x="63.623047"/>
       <use xlink:href="#DejaVuSans-30" x="127.246094"/>
      </g>
     </g>
    </g>
    <g id="xtick_5">
     <g id="line2d_5">
      <g>
       <use xlink:href="#m7cf9fc3b51" x="327.717025" y="307.584" style="stroke: #000000; stroke-width: 0.8"/>
      </g>
     </g>
     <g id="text_5">
      <!-- 800 -->
      <g transform="translate(318.173275 322.182437) scale(0.1 -0.1)">
       <defs>
        <path id="DejaVuSans-38" d="M 2034 2216 
Q 1584 2216 1326 1975 
Q 1069 1734 1069 1313 
Q 1069 891 1326 650 
Q 1584 409 2034 409 
Q 2484 409 2743 651 
Q 3003 894 3003 1313 
Q 3003 1734 2745 1975 
Q 2488 2216 2034 2216 
z
M 1403 2484 
Q 997 2584 770 2862 
Q 544 3141 544 3541 
Q 544 4100 942 4425 
Q 1341 4750 2034 4750 
Q 2731 4750 3128 4425 
Q 3525 4100 3525 3541 
Q 3525 3141 3298 2862 
Q 3072 2584 2669 2484 
Q 3125 2378 3379 2068 
Q 3634 1759 3634 1313 
Q 3634 634 3220 271 
Q 2806 -91 2034 -91 
Q 1263 -91 848 271 
Q 434 634 434 1313 
Q 434 1759 690 2068 
Q 947 2378 1403 2484 
z
M 1172 3481 
Q 1172 3119 1398 2916 
Q 1625 2713 2034 2713 
Q 2441 2713 2670 2916 
Q 2900 3119 2900 3481 
Q 2900 3844 2670 4047 
Q 2441 4250 2034 4250 
Q 1625 4250 1398 4047 
Q 1172 3844 1172 3481 
z
" transform="scale(0.015625)"/>
       </defs>
       <use xlink:href="#DejaVuSans-38"/>
       <use xlink:href="#DejaVuSans-30" x="63.623047"/>
       <use xlink:href="#DejaVuSans-30" x="127.246094"/>
      </g>
     </g>
    </g>
    <g id="xtick_6">
     <g id="line2d_6">
      <g>
       <use xlink:href="#m7cf9fc3b51" x="391.188099" y="307.584" style="stroke: #000000; stroke-width: 0.8"/>
      </g>
     </g>
     <g id="text_6">
      <!-- 1000 -->
      <g transform="translate(378.463099 322.182437) scale(0.1 -0.1)">
       <defs>
        <path id="DejaVuSans-31" d="M 794 531 
L 1825 531 
L 1825 4091 
L 703 3866 
L 703 4441 
L 1819 4666 
L 2450 4666 
L 2450 531 
L 3481 531 
L 3481 0 
L 794 0 
L 794 531 
z
" transform="scale(0.015625)"/>
       </defs>
       <use xlink:href="#DejaVuSans-31"/>
       <use xlink:href="#DejaVuSans-30" x="63.623047"/>
       <use xlink:href="#DejaVuSans-30" x="127.246094"/>
       <use xlink:href="#DejaVuSans-30" x="190.869141"/>
      </g>
     </g>
    </g>
    <g id="text_7">
     <!-- n -->
     <g transform="translate(232.99125 335.860562) scale(0.1 -0.1)">
      <defs>
       <path id="DejaVuSans-6e" d="M 3513 2113 
L 3513 0 
L 2938 0 
L 2938 2094 
Q 2938 2591 2744 2837 
Q 2550 3084 2163 3084 
Q 1697 3084 1428 2787 
Q 1159 2491 1159 1978 
L 1159 0 
L 581 0 
L 581 3500 
L 1159 3500 
L 1159 2956 
Q 1366 3272 1645 3428 
Q 1925 3584 2291 3584 
Q 2894 3584 3203 3211 
Q 3513 2838 3513 2113 
z
" transform="scale(0.015625)"/>
      </defs>
      <use xlink:href="#DejaVuSans-6e"/>
     </g>
    </g>
   </g>
   <g id="matplotlib.axis_2">
    <g id="ytick_1">
     <g id="line2d_7">
      <defs>
       <path id="m1695edf3c0" d="M 0 0 
L -3.5 0 
" style="stroke: #000000; stroke-width: 0.8"/>
      </defs>
      <g>
       <use xlink:href="#m1695edf3c0" x="57.6" y="290.339079" style="stroke: #000000; stroke-width: 0.8"/>
      </g>
     </g>
     <g id="text_8">
      <!-- −3 -->
      <g transform="translate(35.857813 294.138298) scale(0.1 -0.1)">
       <defs>
        <path id="DejaVuSans-2212" d="M 678 2272 
L 4684 2272 
L 4684 1741 
L 678 1741 
L 678 2272 
z
" transform="scale(0.015625)"/>
        <path id="DejaVuSans-33" d="M 2597 2516 
Q 3050 2419 3304 2112 
Q 3559 1806 3559 1356 
Q 3559 666 3084 287 
Q 2609 -91 1734 -91 
Q 1441 -91 1130 -33 
Q 819 25 488 141 
L 488 750 
Q 750 597 1062 519 
Q 1375 441 1716 441 
Q 2309 441 2620 675 
Q 2931 909 2931 1356 
Q 2931 1769 2642 2001 
Q 2353 2234 1838 2234 
L 1294 2234 
L 1294 2753 
L 1863 2753 
Q 2328 2753 2575 2939 
Q 2822 3125 2822 3475 
Q 2822 3834 2567 4026 
Q 2313 4219 1838 4219 
Q 1578 4219 1281 4162 
Q 984 4106 628 3988 
L 628 4550 
Q 988 4650 1302 4700 
Q 1616 4750 1894 4750 
Q 2613 4750 3031 4423 
Q 3450 4097 3450 3541 
Q 3450 3153 3228 2886 
Q 3006 2619 2597 2516 
z
" transform="scale(0.015625)"/>
       </defs>
       <use xlink:href="#DejaVuSans-2212"/>
       <use xlink:href="#DejaVuSans-33" x="83.789062"/>
      </g>
     </g>
    </g>
    <g id="ytick_2">
     <g id="line2d_8">
      <g>
       <use xlink:href="#m1695edf3c0" x="57.6" y="251.768359" style="stroke: #000000; stroke-width: 0.8"/>
      </g>
     </g>
     <g id="text_9">
      <!-- −2 -->
      <g transform="translate(35.857813 255.567578) scale(0.1 -0.1)">
       <use xlink:href="#DejaVuSans-2212"/>
       <use xlink:href="#DejaVuSans-32" x="83.789062"/>
      </g>
     </g>
    </g>
    <g id="ytick_3">
     <g id="line2d_9">
      <g>
       <use xlink:href="#m1695edf3c0" x="57.6" y="213.197639" style="stroke: #000000; stroke-width: 0.8"/>
      </g>
     </g>
     <g id="text_10">
      <!-- −1 -->
      <g transform="translate(35.857813 216.996857) scale(0.1 -0.1)">
       <use xlink:href="#DejaVuSans-2212"/>
       <use xlink:href="#DejaVuSans-31" x="83.789062"/>
      </g>
     </g>
    </g>
    <g id="ytick_4">
     <g id="line2d_10">
      <g>
       <use xlink:href="#m1695edf3c0" x="57.6" y="174.626918" style="stroke: #000000; stroke-width: 0.8"/>
      </g>
     </g>
     <g id="text_11">
      <!-- 0 -->
      <g transform="translate(44.2375 178.426137) scale(0.1 -0.1)">
       <use xlink:href="#DejaVuSans-30"/>
      </g>
     </g>
    </g>
    <g id="ytick_5">
     <g id="line2d_11">
      <g>
       <use xlink:href="#m1695edf3c0" x="57.6" y="136.056198" style="stroke: #000000; stroke-width: 0.8"/>
      </g>
     </g>
     <g id="text_12">
      <!-- 1 -->
      <g transform="translate(44.2375 139.855417) scale(0.1 -0.1)">
       <use xlink:href="#DejaVuSans-31"/>
      </g>
     </g>
    </g>
    <g id="ytick_6">
     <g id="line2d_12">
      <g>
       <use xlink:href="#m1695edf3c0" x="57.6" y="97.485478" style="stroke: #000000; stroke-width: 0.8"/>
      </g>
     </g>
     <g id="text_13">
      <!-- 2 -->
      <g transform="translate(44.2375 101.284696) scale(0.1 -0.1)">
       <use xlink:href="#DejaVuSans-32"/>
      </g>
     </g>
    </g>
    <g id="ytick_7">
     <g id="line2d_13">
      <g>
       <use xlink:href="#m1695edf3c0" x="57.6" y="58.914757" style="stroke: #000000; stroke-width: 0.8"/>
      </g>
     </g>
     <g id="text_14">
      <!-- 3 -->
      <g transform="translate(44.2375 62.713976) scale(0.1 -0.1)">
       <use xlink:href="#DejaVuSans-33"/>
      </g>
     </g>
    </g>
    <g id="text_15">
     <!-- E*t -->
     <g transform="translate(29.778125 182.147531) rotate(-90) scale(0.1 -0.1)">
      <defs>
       <path id="DejaVuSans-45" d="M 628 4666 
L 3578 4666 
L 3578 4134 
L 1259 4134 
L 1259 2753 
L 3481 2753 
L 3481 2222 
L 1259 2222 
L 1259 531 
L 3634 531 
L 3634 0 
L 628 0 
L 628 4666 
z
" transform="scale(0.015625)"/>
       <path id="DejaVuSans-2a" d="M 3009 3897 
L 1888 3291 
L 3009 2681 
L 2828 2375 
L 1778 3009 
L 1778 1831 
L 1422 1831 
L 1422 3009 
L 372 2375 
L 191 2681 
L 1313 3291 
L 191 3897 
L 372 4206 
L 1422 3572 
L 1422 4750 
L 1778 4750 
L 1778 3572 
L 2828 4206 
L 3009 3897 
z
" transform="scale(0.015625)"/>
       <path id="DejaVuSans-74" d="M 1172 4494 
L 1172 3500 
L 2356 3500 
L 2356 3053 
L 1172 3053 
L 1172 1153 
Q 1172 725 1289 603 
Q 1406 481 1766 481 
L 2356 481 
L 2356 0 
L 1766 0 
Q 1100 0 847 248 
Q 594 497 594 1153 
L 594 3053 
L 172 3053 
L 172 3500 
L 594 3500 
L 594 4494 
L 1172 4494 
z
" transform="scale(0.015625)"/>
      </defs>
      <use xlink:href="#DejaVuSans-45"/>
      <use xlink:href="#DejaVuSans-2a" x="63.183594"/>
      <use xlink:href="#DejaVuSans-74" x="113.183594"/>
     </g>
    </g>
   </g>
   <g id="line2d_14">
    <path d="M 73.832727 295.488 
L 74.467438 295.438246 
L 74.784793 294.935328 
L 75.102149 292.925869 
L 75.419504 292.87326 
L 75.73686 292.618923 
L 76.37157 292.483122 
L 76.688926 292.083186 
L 77.006281 292.010209 
L 77.323636 291.535255 
L 77.640992 291.503929 
L 78.275702 291.210066 
L 78.593058 290.583993 
L 78.910413 290.56658 
L 79.545124 289.846057 
L 80.49719 289.472272 
L 80.814545 289.252019 
L 81.449256 289.209248 
L 81.766612 288.85993 
L 83.036033 288.421392 
L 83.353388 287.817462 
L 83.670744 286.624909 
L 84.305455 286.573705 
L 84.940165 286.382196 
L 85.257521 286.024436 
L 85.574876 285.880455 
L 85.892231 285.184626 
L 86.209587 285.025746 
L 86.526942 284.337853 
L 87.161653 284.021818 
L 87.479008 283.918874 
L 88.431074 282.877956 
L 88.74843 282.872692 
L 89.065785 282.720674 
L 89.38314 282.166214 
L 90.017851 281.652773 
L 90.335207 281.018611 
L 90.969917 280.921744 
L 91.604628 280.622092 
L 91.921983 280.480918 
L 92.239339 280.086193 
L 92.87405 280.035001 
L 93.191405 279.929639 
L 93.50876 279.144566 
L 93.826116 279.093729 
L 94.778182 278.480878 
L 95.095537 278.023832 
L 95.412893 277.992683 
L 95.730248 277.796656 
L 96.364959 276.961133 
L 96.682314 276.923469 
L 96.999669 276.364277 
L 97.951736 276.046703 
L 98.903802 275.838097 
L 99.538512 275.508349 
L 99.855868 275.116578 
L 100.490579 275.080827 
L 100.807934 274.263742 
L 101.442645 274.007686 
L 102.712066 272.087606 
L 103.029421 271.92783 
L 103.346777 271.919949 
L 104.298843 271.619137 
L 104.616198 271.603613 
L 104.933554 271.069291 
L 105.250909 271.04318 
L 105.568264 270.893845 
L 105.88562 270.414614 
L 106.837686 270.143707 
L 107.155041 269.606945 
L 107.789752 269.284179 
L 108.107107 269.173329 
L 108.424463 268.844077 
L 108.741818 268.825851 
L 109.059174 268.458389 
L 109.376529 268.274204 
L 110.01124 268.23506 
L 110.328595 267.797869 
L 110.963306 267.619953 
L 111.598017 266.34465 
L 111.915372 266.051258 
L 112.550083 265.819739 
L 113.184793 265.738731 
L 113.502149 264.949012 
L 114.77157 264.47498 
L 115.088926 263.524627 
L 116.040992 262.730968 
L 116.358347 262.066484 
L 116.675702 261.779491 
L 117.310413 261.527507 
L 117.627769 261.333529 
L 118.579835 261.219169 
L 118.89719 260.821192 
L 119.214545 260.746782 
L 119.531901 260.420488 
L 120.166612 260.151453 
L 120.483967 259.328787 
L 121.118678 258.885478 
L 121.436033 258.857782 
L 122.070744 258.384941 
L 122.388099 258.317456 
L 122.705455 257.831519 
L 123.02281 257.819485 
L 123.974876 257.28818 
L 124.292231 256.851643 
L 124.926942 256.817974 
L 125.561653 256.443457 
L 126.196364 255.393372 
L 126.513719 255.200743 
L 126.831074 254.212857 
L 128.100496 253.83344 
L 128.735207 253.607252 
L 129.052562 253.320189 
L 129.369917 252.830353 
L 129.687273 252.742459 
L 130.004628 251.971208 
L 130.321983 251.957244 
L 130.639339 251.169315 
L 132.543471 250.850211 
L 132.860826 250.584223 
L 133.495537 250.532676 
L 133.812893 250.042056 
L 134.130248 249.998829 
L 134.764959 249.699036 
L 135.082314 249.034279 
L 135.399669 247.987224 
L 135.717025 247.780535 
L 136.351736 247.692709 
L 136.669091 247.429281 
L 136.986446 247.384332 
L 137.303802 247.219391 
L 137.621157 247.184122 
L 137.938512 246.991565 
L 138.255868 246.561731 
L 138.573223 246.447262 
L 138.890579 245.773032 
L 140.477355 244.91595 
L 140.794711 244.349878 
L 141.429421 244.149597 
L 141.746777 243.363397 
L 142.381488 243.096407 
L 142.698843 242.386601 
L 143.333554 242.163591 
L 143.650909 242.1193 
L 143.968264 241.845205 
L 144.28562 241.809085 
L 144.602975 241.375953 
L 144.920331 241.368472 
L 145.872397 241.119491 
L 146.189752 240.254755 
L 146.507107 240.238151 
L 148.093884 238.912409 
L 148.728595 238.772374 
L 149.04595 238.738932 
L 149.363306 237.723991 
L 150.632727 237.23858 
L 150.950083 237.007108 
L 151.267438 236.4606 
L 151.584793 236.427907 
L 152.53686 235.703546 
L 152.854215 235.487116 
L 153.17157 235.465012 
L 153.488926 234.992501 
L 153.806281 234.841372 
L 154.123636 234.103849 
L 154.440992 233.813345 
L 154.758347 233.735905 
L 155.075702 233.379496 
L 155.710413 233.142814 
L 156.345124 233.032981 
L 156.662479 232.987024 
L 156.979835 232.373587 
L 157.29719 232.210628 
L 157.614545 232.176315 
L 157.931901 231.771259 
L 158.566612 231.522995 
L 158.883967 230.901743 
L 159.201322 230.775413 
L 160.153388 230.109182 
L 160.788099 229.813789 
L 161.42281 229.671085 
L 162.057521 229.53743 
L 162.692231 229.156695 
L 163.009587 228.956761 
L 163.644298 228.378145 
L 164.279008 228.01806 
L 164.913719 227.323217 
L 165.54843 227.190529 
L 165.865785 226.297582 
L 166.18314 226.276307 
L 166.817851 225.888747 
L 167.135207 225.339289 
L 167.452562 224.461874 
L 167.769917 224.336399 
L 168.087273 224.090126 
L 168.404628 224.019071 
L 169.039339 223.381187 
L 169.356694 222.95167 
L 169.67405 222.944657 
L 170.30876 222.666877 
L 170.943471 222.415343 
L 171.260826 221.916233 
L 172.212893 221.606379 
L 172.530248 221.596878 
L 172.847603 221.462938 
L 173.164959 220.669562 
L 173.799669 220.575019 
L 174.751736 219.809379 
L 175.069091 219.732478 
L 175.703802 219.287506 
L 176.021157 219.245747 
L 177.607934 218.256191 
L 177.925289 218.223553 
L 178.56 217.793231 
L 178.877355 216.992559 
L 179.194711 216.527387 
L 179.829421 216.264625 
L 180.146777 215.406909 
L 181.416198 215.213932 
L 181.733554 214.711041 
L 182.050909 214.600406 
L 182.68562 214.168353 
L 183.002975 214.010876 
L 183.320331 213.417815 
L 183.637686 213.293249 
L 183.955041 212.41897 
L 184.589752 212.230974 
L 185.541818 212.088468 
L 186.493884 211.884626 
L 186.81124 211.322719 
L 187.128595 211.297123 
L 187.44595 211.15676 
L 189.667438 209.13053 
L 190.619504 208.998475 
L 191.254215 208.623001 
L 191.57157 208.550399 
L 191.888926 207.912405 
L 192.206281 206.716967 
L 192.523636 206.500181 
L 192.840992 206.005668 
L 193.793058 205.492688 
L 194.110413 204.71836 
L 194.427769 204.561047 
L 194.745124 204.55679 
L 195.379835 203.479213 
L 196.014545 203.443452 
L 196.331901 203.29966 
L 196.649256 202.891051 
L 196.966612 202.759042 
L 197.601322 202.647621 
L 198.553388 202.083513 
L 199.188099 201.417252 
L 199.505455 201.329285 
L 200.140165 200.828187 
L 201.092231 200.217122 
L 201.409587 200.170691 
L 201.726942 199.936359 
L 202.361653 199.124353 
L 202.996364 199.03355 
L 203.313719 198.596386 
L 203.631074 198.519258 
L 203.94843 197.882795 
L 204.58314 197.769995 
L 204.900496 197.408202 
L 205.852562 197.098505 
L 206.169917 196.89538 
L 206.487273 196.38403 
L 207.121983 196.230501 
L 207.439339 195.543416 
L 208.391405 194.529557 
L 208.70876 194.526257 
L 209.026116 194.351865 
L 209.343471 194.334233 
L 209.660826 193.788304 
L 209.978182 193.530868 
L 210.295537 193.423073 
L 210.930248 192.930609 
L 211.247603 192.364377 
L 211.564959 192.350408 
L 212.199669 191.796381 
L 212.83438 191.512835 
L 214.421157 191.165416 
L 214.738512 191.055344 
L 215.055868 190.726506 
L 215.373223 190.623866 
L 215.690579 190.321422 
L 216.007934 190.296548 
L 216.325289 189.566307 
L 216.642645 189.484468 
L 217.277355 189.012894 
L 217.594711 188.963936 
L 217.912066 188.505464 
L 218.229421 188.504612 
L 218.546777 188.361428 
L 218.864132 187.639233 
L 219.181488 187.607183 
L 219.816198 187.162857 
L 220.768264 185.261988 
L 221.08562 184.792324 
L 221.402975 184.707263 
L 221.720331 184.235381 
L 223.307107 184.028066 
L 223.941818 183.806632 
L 224.259174 183.260878 
L 225.21124 182.99402 
L 225.84595 182.90232 
L 226.163306 181.987624 
L 226.480661 181.965411 
L 227.115372 181.421965 
L 227.432727 180.728637 
L 227.750083 180.70593 
L 229.33686 179.617606 
L 229.654215 179.497986 
L 229.97157 179.055009 
L 230.288926 178.189505 
L 230.923636 177.729093 
L 231.558347 177.657391 
L 231.875702 176.742566 
L 233.145124 176.627559 
L 233.462479 176.022371 
L 233.779835 175.9247 
L 234.414545 175.550308 
L 234.731901 175.437159 
L 235.366612 174.785355 
L 236.001322 173.699441 
L 236.636033 173.640011 
L 237.588099 173.299295 
L 237.905455 173.275564 
L 238.540165 171.632076 
L 238.857521 171.490997 
L 239.492231 171.002084 
L 240.126942 170.834049 
L 240.444298 170.55528 
L 241.396364 170.375904 
L 241.713719 170.096687 
L 243.300496 169.783562 
L 243.617851 169.693071 
L 244.252562 168.970898 
L 244.569917 167.848311 
L 244.887273 167.229584 
L 245.521983 167.107159 
L 245.839339 166.735144 
L 246.156694 166.631858 
L 246.791405 166.043353 
L 247.10876 165.92749 
L 247.426116 165.549707 
L 247.743471 165.482802 
L 248.060826 164.803733 
L 249.012893 164.726511 
L 249.964959 164.215621 
L 250.599669 164.098591 
L 250.917025 163.760229 
L 251.551736 163.57292 
L 251.869091 163.1908 
L 252.186446 163.036344 
L 252.503802 162.720179 
L 252.821157 162.124428 
L 253.138512 162.036187 
L 253.455868 161.691572 
L 254.090579 161.584671 
L 254.407934 161.203048 
L 254.725289 160.647051 
L 255.36 160.565383 
L 255.677355 159.89416 
L 256.312066 159.78726 
L 256.629421 159.347904 
L 260.755041 156.291621 
L 261.389752 155.710645 
L 262.659174 154.770194 
L 262.976529 154.293651 
L 263.293884 154.146912 
L 263.61124 154.124164 
L 264.24595 153.424739 
L 264.563306 153.374485 
L 265.198017 152.884489 
L 266.150083 152.635651 
L 266.467438 152.038001 
L 267.102149 151.857306 
L 267.73686 151.645587 
L 268.054215 150.968853 
L 268.37157 150.928735 
L 268.688926 150.434878 
L 269.006281 150.17165 
L 269.323636 150.11367 
L 269.640992 149.896594 
L 270.275702 149.78457 
L 270.593058 148.940666 
L 270.910413 148.699625 
L 271.227769 147.681553 
L 271.862479 147.437544 
L 272.179835 146.552772 
L 272.49719 146.044221 
L 272.814545 145.962027 
L 273.131901 145.712062 
L 274.401322 145.515526 
L 275.036033 145.306756 
L 275.353388 145.177751 
L 275.988099 145.149253 
L 276.305455 144.511578 
L 277.257521 144.366181 
L 277.892231 144.257086 
L 278.209587 143.969774 
L 278.526942 143.378564 
L 278.844298 143.239706 
L 279.161653 142.899491 
L 279.479008 142.363649 
L 279.796364 142.120398 
L 280.431074 142.05432 
L 281.065785 141.790978 
L 281.38314 141.784903 
L 282.017851 140.970182 
L 282.335207 139.758784 
L 282.652562 139.434586 
L 283.604628 139.002463 
L 283.921983 138.159586 
L 285.191405 137.871053 
L 285.50876 137.293665 
L 286.143471 137.18706 
L 286.460826 136.977333 
L 286.778182 136.602916 
L 287.412893 135.410555 
L 287.730248 135.076007 
L 288.047603 134.908404 
L 288.682314 134.802808 
L 289.63438 134.602078 
L 289.951736 133.93106 
L 290.269091 133.795599 
L 290.586446 132.997714 
L 291.221157 132.765778 
L 291.538512 132.394847 
L 292.807934 131.841916 
L 293.442645 131.709625 
L 293.76 131.364418 
L 295.346777 131.018849 
L 295.664132 130.799444 
L 295.981488 130.34489 
L 296.616198 129.231518 
L 296.933554 128.636762 
L 297.250909 128.472083 
L 297.88562 127.602771 
L 298.202975 127.575228 
L 298.520331 127.386801 
L 298.837686 126.889944 
L 299.155041 126.722625 
L 299.472397 126.200621 
L 300.107107 126.059784 
L 300.741818 125.428013 
L 301.693884 125.362122 
L 302.328595 124.811767 
L 302.64595 124.377588 
L 302.963306 124.35763 
L 303.280661 123.466049 
L 303.598017 123.222181 
L 303.915372 123.16301 
L 304.232727 122.970839 
L 304.867438 122.049568 
L 305.502149 121.812555 
L 305.819504 121.418778 
L 307.088926 120.854274 
L 307.723636 120.22913 
L 308.675702 119.396537 
L 308.993058 119.375381 
L 309.627769 119.066022 
L 309.945124 118.988646 
L 310.262479 118.486003 
L 311.849256 117.415314 
L 312.483967 116.478379 
L 313.118678 116.238388 
L 313.436033 116.219964 
L 313.753388 115.742481 
L 314.070744 115.700486 
L 314.705455 115.289728 
L 315.02281 114.806628 
L 315.657521 114.580968 
L 315.974876 114.24005 
L 316.292231 114.168548 
L 316.609587 113.928875 
L 317.561653 113.622439 
L 318.831074 112.990196 
L 319.14843 112.973998 
L 319.465785 112.372319 
L 319.78314 112.344609 
L 320.417851 111.757055 
L 320.735207 111.433805 
L 321.369917 111.292472 
L 322.004628 111.100925 
L 322.321983 110.276857 
L 322.639339 110.11476 
L 322.956694 110.095275 
L 323.27405 109.054247 
L 323.90876 108.728126 
L 324.226116 108.581719 
L 324.860826 107.388205 
L 325.178182 107.243557 
L 325.495537 106.918353 
L 326.447603 106.75494 
L 326.764959 106.595435 
L 327.717025 106.535729 
L 328.03438 106.304901 
L 328.351736 105.808977 
L 328.669091 105.77031 
L 328.986446 105.563922 
L 329.303802 105.532574 
L 329.621157 105.194629 
L 329.938512 105.137745 
L 330.255868 104.816613 
L 330.573223 104.21057 
L 330.890579 103.889241 
L 331.207934 103.753992 
L 331.842645 103.295548 
L 332.477355 103.246319 
L 333.112066 101.114904 
L 333.746777 100.727276 
L 334.064132 100.672093 
L 334.381488 100.429325 
L 334.698843 100.346754 
L 335.016198 99.96413 
L 335.650909 99.533541 
L 335.968264 99.512843 
L 336.28562 99.294194 
L 336.602975 98.707645 
L 337.237686 98.603136 
L 337.872397 98.313654 
L 338.189752 97.815019 
L 338.507107 96.897658 
L 338.824463 96.698339 
L 339.141818 96.265213 
L 340.728595 95.96558 
L 342.950083 93.459933 
L 344.219504 93.121797 
L 344.53686 93.04619 
L 344.854215 92.770551 
L 345.17157 92.706737 
L 345.488926 92.494011 
L 346.123636 92.353845 
L 347.075702 91.996094 
L 347.710413 91.720442 
L 348.027769 91.20818 
L 348.345124 89.860498 
L 348.979835 88.896329 
L 349.614545 88.809013 
L 351.201322 87.540102 
L 351.836033 87.436893 
L 352.153388 87.253058 
L 352.470744 86.820196 
L 352.788099 86.811794 
L 353.105455 86.509865 
L 354.057521 86.090275 
L 354.374876 85.748179 
L 355.009587 85.587076 
L 355.326942 85.340946 
L 355.644298 84.923654 
L 355.961653 84.690852 
L 356.596364 84.595453 
L 356.913719 84.045264 
L 357.231074 83.982653 
L 357.54843 83.308057 
L 358.18314 82.74999 
L 358.817851 82.710689 
L 359.135207 82.327803 
L 359.452562 82.256991 
L 360.087273 81.441966 
L 360.404628 81.299306 
L 360.721983 80.712183 
L 361.356694 80.504426 
L 362.943471 79.665533 
L 364.212893 78.716996 
L 364.847603 77.881249 
L 365.164959 77.749929 
L 365.799669 77.151632 
L 366.117025 77.129748 
L 366.43438 76.934003 
L 367.069091 76.806128 
L 367.703802 76.499211 
L 368.021157 75.547165 
L 368.338512 75.195044 
L 368.655868 75.163132 
L 368.973223 74.840699 
L 369.290579 74.351757 
L 369.607934 74.333694 
L 369.925289 74.171294 
L 370.242645 73.804786 
L 370.56 73.721824 
L 370.877355 73.255183 
L 371.194711 73.138562 
L 371.512066 72.697155 
L 371.829421 72.484088 
L 372.146777 72.45451 
L 372.781488 71.53522 
L 373.416198 71.401099 
L 375.320331 68.757955 
L 375.955041 68.632294 
L 376.272397 68.198085 
L 377.224463 68.042359 
L 378.493884 67.891381 
L 378.81124 67.88944 
L 379.128595 67.462577 
L 379.44595 67.289395 
L 379.763306 66.777679 
L 380.398017 66.61312 
L 381.032727 66.303161 
L 381.350083 65.734474 
L 381.984793 65.535363 
L 382.302149 65.268755 
L 382.93686 65.126781 
L 383.254215 64.641631 
L 383.888926 64.573814 
L 384.206281 64.166489 
L 384.523636 63.982867 
L 384.840992 63.941746 
L 385.158347 63.470862 
L 385.475702 63.405604 
L 385.793058 62.580543 
L 386.110413 62.528771 
L 386.427769 62.10369 
L 387.062479 62.034964 
L 387.379835 61.792271 
L 387.69719 61.279492 
L 388.649256 60.871867 
L 388.966612 60.713806 
L 389.283967 60.166605 
L 389.918678 59.928556 
L 390.553388 58.350463 
L 391.188099 57.604803 
L 391.82281 57.494948 
L 392.140165 57.390018 
L 392.457521 56.94549 
L 393.092231 56.63247 
L 393.409587 55.991578 
L 394.044298 55.721426 
L 394.679008 55.105398 
L 395.313719 54.901545 
L 395.631074 54.832089 
L 396.265785 54.529954 
L 397.217851 54.433454 
L 397.852562 53.874739 
L 398.487273 53.568 
L 398.487273 53.568 
" clip-path="url(#pa2c0eac283)" style="fill: none; stroke: #1f77b4; stroke-width: 1.5; stroke-linecap: square"/>
   </g>
   <g id="line2d_15">
    <path d="M 73.832727 295.298045 
L 74.150083 295.034824 
L 74.467438 294.421223 
L 75.102149 294.290319 
L 75.419504 294.290315 
L 75.73686 293.960525 
L 76.054215 293.882222 
L 76.37157 293.314257 
L 77.323636 293.035755 
L 77.640992 293.001134 
L 78.910413 291.529492 
L 79.227769 291.475551 
L 79.545124 291.145434 
L 81.131901 290.757029 
L 81.449256 290.415267 
L 82.083967 290.330331 
L 82.401322 289.867572 
L 82.718678 289.778127 
L 83.036033 289.354071 
L 83.353388 288.069197 
L 83.670744 287.950468 
L 83.988099 287.228203 
L 84.305455 286.861184 
L 85.257521 286.757666 
L 85.892231 286.408085 
L 86.526942 285.230719 
L 86.844298 285.230716 
L 87.161653 285.107198 
L 87.479008 284.628024 
L 88.113719 284.506111 
L 88.74843 284.116055 
L 89.065785 283.548583 
L 89.700496 283.299127 
L 90.335207 283.172256 
L 90.969917 282.991152 
L 91.921983 282.040052 
L 92.239339 281.527411 
L 93.826116 280.181647 
L 94.460826 279.793846 
L 94.778182 279.679714 
L 95.412893 277.966424 
L 95.730248 277.938278 
L 97.63438 276.960758 
L 97.951736 276.347707 
L 98.269091 276.267382 
L 98.903802 275.044646 
L 99.221157 274.743621 
L 100.490579 274.620141 
L 100.807934 274.328303 
L 101.76 274.103521 
L 102.077355 273.786558 
L 102.394711 273.716731 
L 102.712066 273.503594 
L 103.029421 273.442298 
L 104.616198 272.062674 
L 105.568264 271.014852 
L 105.88562 270.776375 
L 106.837686 270.57158 
L 107.155041 270.571576 
L 108.107107 269.447589 
L 108.424463 269.425871 
L 108.741818 268.920925 
L 109.376529 268.634947 
L 110.01124 268.397342 
L 110.64595 267.206369 
L 110.963306 266.814859 
L 111.598017 266.61212 
L 111.915372 266.553418 
L 112.232727 265.834094 
L 112.867438 265.813772 
L 113.819504 264.725671 
L 115.406281 264.26817 
L 115.723636 263.995544 
L 116.675702 263.739123 
L 117.310413 263.491289 
L 118.262479 263.128656 
L 119.531901 261.34741 
L 119.849256 261.252787 
L 120.166612 260.661371 
L 120.801322 260.313363 
L 121.118678 260.291995 
L 121.436033 259.571032 
L 122.070744 259.51171 
L 122.388099 258.783375 
L 122.705455 258.504575 
L 123.02281 258.491798 
L 123.340165 258.194284 
L 123.657521 258.185267 
L 124.292231 256.920165 
L 124.926942 256.65693 
L 125.244298 256.043361 
L 125.879008 255.912457 
L 126.196364 255.912453 
L 126.513719 255.636906 
L 127.14843 255.504356 
L 127.465785 255.332139 
L 127.78314 254.936403 
L 128.100496 254.751499 
L 128.417851 254.735067 
L 128.735207 254.24551 
L 129.052562 253.996134 
L 129.369917 253.928355 
L 129.687273 253.327779 
L 130.004628 253.15163 
L 130.321983 252.682957 
L 131.591405 252.37917 
L 131.90876 252.037435 
L 133.178182 251.608938 
L 133.812893 251.40026 
L 134.130248 249.572571 
L 135.082314 248.483319 
L 136.03438 248.424666 
L 136.351736 248.233662 
L 136.669091 248.203873 
L 137.303802 247.959876 
L 137.938512 246.852846 
L 138.255868 246.852845 
L 138.573223 246.729339 
L 138.890579 246.214746 
L 139.207934 245.939824 
L 139.842645 245.73817 
L 140.16 245.170708 
L 140.794711 244.921273 
L 141.429421 244.761032 
L 142.064132 244.613287 
L 142.698843 243.963577 
L 143.650909 243.662186 
L 143.968264 243.078485 
L 144.920331 242.303791 
L 145.237686 241.968999 
L 145.555041 241.959256 
L 146.824463 241.301848 
L 147.141818 241.038023 
L 147.776529 239.588568 
L 148.093884 239.560451 
L 149.363306 238.951769 
L 149.680661 238.931623 
L 149.998017 238.582909 
L 150.315372 237.969856 
L 150.632727 237.889531 
L 150.950083 236.666756 
L 151.267438 236.365743 
L 152.53686 236.24228 
L 152.854215 235.950432 
L 153.806281 235.735843 
L 154.123636 235.408682 
L 154.440992 235.338869 
L 154.758347 235.125735 
L 155.075702 235.064431 
L 156.027769 234.242909 
L 156.345124 233.720401 
L 156.662479 233.684813 
L 157.29719 232.846911 
L 157.614545 232.785467 
L 157.931901 232.315521 
L 158.249256 232.193714 
L 158.566612 232.193711 
L 158.883967 231.368774 
L 159.201322 231.069724 
L 159.518678 231.048013 
L 159.836033 230.543063 
L 160.470744 230.257083 
L 161.42281 229.879543 
L 161.740165 229.677539 
L 162.057521 228.828471 
L 162.374876 228.436994 
L 163.644298 228.124194 
L 163.961653 227.456231 
L 164.596364 227.435909 
L 164.913719 227.034405 
L 165.54843 226.797114 
L 165.865785 226.347798 
L 166.817851 226.071203 
L 167.135207 225.617673 
L 168.087273 225.361253 
L 168.721983 225.11343 
L 169.67405 224.750807 
L 170.30876 224.001603 
L 170.943471 223.822798 
L 171.578182 222.969555 
L 172.530248 222.847226 
L 172.847603 222.283511 
L 173.164959 222.105231 
L 173.799669 221.19316 
L 174.43438 221.133852 
L 174.751736 220.126707 
L 175.069091 220.113928 
L 175.386446 219.816412 
L 176.021157 218.542286 
L 176.655868 218.404679 
L 177.607934 217.534596 
L 177.925289 217.534592 
L 178.242645 217.259031 
L 179.194711 217.126489 
L 179.512066 216.687821 
L 180.781488 216.357202 
L 181.098843 215.867657 
L 181.416198 215.859695 
L 181.733554 215.618282 
L 182.050909 215.550486 
L 182.368264 214.949917 
L 182.68562 214.773769 
L 183.002975 214.221295 
L 183.637686 214.001313 
L 183.955041 213.659598 
L 184.589752 213.536977 
L 184.907107 213.531643 
L 185.224463 213.309089 
L 186.176529 213.022396 
L 186.493884 212.257396 
L 186.81124 212.178655 
L 187.128595 211.194675 
L 187.44595 210.857299 
L 187.763306 210.105456 
L 188.080661 210.064472 
L 188.398017 209.855779 
L 188.715372 209.831267 
L 189.667438 209.481206 
L 189.984793 209.033866 
L 190.302149 208.977988 
L 190.619504 208.474975 
L 190.93686 208.474974 
L 191.254215 208.351478 
L 191.57157 207.836883 
L 191.888926 207.561971 
L 192.523636 207.442672 
L 192.840992 206.624637 
L 193.158347 206.462594 
L 194.745124 206.235423 
L 195.379835 205.585705 
L 196.014545 205.45479 
L 196.331901 205.454786 
L 196.649256 205.284321 
L 196.966612 204.700665 
L 197.283967 204.688706 
L 197.918678 204.349205 
L 198.553388 204.062301 
L 199.188099 203.038124 
L 199.505455 202.923981 
L 199.82281 202.240782 
L 200.457521 201.991213 
L 200.774876 200.760265 
L 201.726942 200.553764 
L 202.679008 199.592005 
L 202.996364 198.288868 
L 203.313719 197.987873 
L 204.58314 197.864417 
L 204.900496 197.572564 
L 206.169917 197.357993 
L 206.487273 197.030807 
L 206.804628 196.961009 
L 207.121983 196.747874 
L 207.439339 196.686566 
L 208.391405 195.865026 
L 208.70876 195.34252 
L 209.026116 195.306954 
L 209.343471 194.801513 
L 209.660826 194.54492 
L 210.295537 194.407613 
L 210.612893 193.815849 
L 210.930248 193.815848 
L 211.564959 193.431884 
L 212.199669 192.691861 
L 212.517025 192.670157 
L 212.83438 192.411181 
L 213.151736 191.879219 
L 215.055868 190.450575 
L 215.373223 190.059128 
L 216.642645 189.746341 
L 216.96 189.184681 
L 217.594711 189.058047 
L 217.912066 188.656528 
L 218.229421 188.473945 
L 218.546777 187.969927 
L 219.498843 187.69334 
L 219.816198 187.165662 
L 220.450909 186.983385 
L 221.08562 186.583982 
L 221.402975 186.508561 
L 221.720331 186.254546 
L 222.037686 185.623757 
L 222.672397 185.444899 
L 222.989752 185.04964 
L 223.307107 185.002902 
L 223.624463 184.631673 
L 224.259174 184.469381 
L 224.576529 184.346677 
L 224.893884 183.905648 
L 225.528595 183.506905 
L 225.84595 182.815291 
L 226.163306 182.755993 
L 226.480661 182.395992 
L 226.798017 182.338922 
L 227.115372 181.748839 
L 227.750083 181.736059 
L 228.384793 181.438542 
L 229.019504 180.026788 
L 229.97157 179.156735 
L 230.288926 179.156733 
L 230.606281 178.881158 
L 231.558347 178.612011 
L 232.193058 177.995725 
L 232.510413 177.979337 
L 234.414545 177.172619 
L 235.049256 175.843432 
L 235.366612 175.807489 
L 235.683967 175.623458 
L 236.001322 175.196761 
L 236.636033 175.153777 
L 236.953388 174.931254 
L 237.588099 174.733992 
L 237.905455 173.879535 
L 238.22281 173.800777 
L 238.540165 172.816781 
L 238.857521 172.479415 
L 239.174876 171.727596 
L 239.492231 171.686601 
L 239.809587 171.477897 
L 240.444298 171.45341 
L 241.396364 171.103349 
L 241.713719 170.655976 
L 242.031074 170.60013 
L 242.34843 170.097104 
L 242.665785 170.097104 
L 242.98314 169.871073 
L 243.300496 169.349732 
L 243.617851 169.184114 
L 243.935207 168.193138 
L 244.887273 167.97317 
L 245.521983 167.85756 
L 245.839339 167.207836 
L 246.47405 167.076923 
L 246.791405 167.076923 
L 247.10876 166.906457 
L 247.426116 166.322838 
L 247.743471 166.310809 
L 248.378182 165.971322 
L 249.012893 165.684421 
L 249.330248 165.092861 
L 249.647603 165.048046 
L 250.599669 164.546114 
L 250.917025 164.468663 
L 251.23438 163.862915 
L 252.503802 163.121727 
L 253.138512 162.382396 
L 253.455868 162.195995 
L 253.773223 162.175907 
L 254.090579 161.827205 
L 254.407934 161.277646 
L 254.725289 161.214154 
L 255.042645 160.043035 
L 255.677355 159.910982 
L 255.994711 159.589165 
L 256.946777 159.486553 
L 257.264132 159.194696 
L 258.216198 158.980141 
L 258.533554 158.652934 
L 258.850909 158.569308 
L 259.168264 158.370011 
L 259.48562 158.308703 
L 259.802975 158.017354 
L 260.755041 156.423655 
L 262.341818 156.029761 
L 262.659174 155.437985 
L 263.293884 155.416162 
L 263.61124 155.264518 
L 263.928595 154.314 
L 264.24595 154.292302 
L 264.563306 154.033292 
L 264.880661 154.014398 
L 265.198017 153.65101 
L 265.515372 153.501354 
L 265.832727 153.123781 
L 266.150083 152.921771 
L 266.784793 152.303499 
L 267.102149 152.07268 
L 267.419504 151.614673 
L 267.73686 151.595177 
L 269.006281 150.753021 
L 269.958347 150.566024 
L 270.593058 150.096082 
L 270.910413 149.315477 
L 271.227769 149.134282 
L 271.545124 148.787812 
L 272.179835 148.605519 
L 272.49719 148.206108 
L 273.131901 148.130698 
L 273.449256 147.876692 
L 273.766612 147.424426 
L 274.401322 147.152105 
L 274.718678 147.067007 
L 275.353388 146.253777 
L 275.670744 146.22893 
L 276.305455 145.96882 
L 276.62281 145.349499 
L 277.257521 144.888083 
L 277.892231 144.018146 
L 278.209587 143.961053 
L 278.526942 143.37097 
L 279.161653 143.358191 
L 279.479008 143.060673 
L 279.796364 141.70752 
L 281.065785 140.778875 
L 281.38314 140.503287 
L 282.335207 140.234156 
L 282.969917 139.617842 
L 283.287273 139.601472 
L 284.239339 139.210126 
L 284.87405 139.103934 
L 285.50876 138.620698 
L 285.826116 138.605074 
L 286.460826 137.465566 
L 286.778182 137.429609 
L 287.095537 136.818906 
L 288.364959 136.620332 
L 288.999669 136.475366 
L 289.317025 136.15794 
L 289.63438 136.149169 
L 289.951736 135.501673 
L 290.586446 135.325347 
L 290.903802 134.101533 
L 291.221157 134.039421 
L 291.538512 133.308732 
L 291.855868 133.100016 
L 292.490579 133.075551 
L 293.125289 132.725491 
L 293.442645 132.326994 
L 294.077355 132.222273 
L 294.394711 131.719236 
L 294.712066 131.719235 
L 295.029421 131.163402 
L 295.346777 130.971873 
L 295.664132 129.81525 
L 296.933554 129.479698 
L 297.250909 128.829968 
L 297.568264 128.69906 
L 297.88562 128.699058 
L 298.520331 128.290966 
L 299.155041 127.593444 
L 299.789752 127.409967 
L 300.107107 127.306545 
L 300.424463 126.714987 
L 300.741818 126.670178 
L 301.693884 126.168246 
L 302.01124 126.114393 
L 302.328595 125.884288 
L 302.64595 125.485047 
L 302.963306 125.321314 
L 303.598017 124.74386 
L 303.915372 124.739065 
L 304.232727 124.276307 
L 304.867438 124.00453 
L 305.184793 123.818114 
L 305.502149 123.762786 
L 305.819504 123.44935 
L 306.454215 121.636954 
L 306.77157 121.211296 
L 307.088926 121.166397 
L 307.406281 120.81683 
L 308.358347 120.602286 
L 308.675702 120.275062 
L 308.993058 120.191431 
L 309.310413 119.992145 
L 309.627769 119.639485 
L 309.945124 119.63948 
L 310.262479 119.515926 
L 310.579835 119.036817 
L 310.89719 119.001342 
L 311.214545 117.957355 
L 311.849256 117.713298 
L 312.483967 117.581018 
L 312.801322 117.060122 
L 313.118678 117.038312 
L 313.436033 116.886634 
L 313.753388 116.263268 
L 314.070744 115.936141 
L 314.388099 115.914448 
L 314.705455 115.655412 
L 315.02281 115.636523 
L 315.340165 115.273079 
L 315.657521 115.123489 
L 315.974876 114.745902 
L 316.926942 114.20259 
L 319.14843 112.375159 
L 319.78314 112.18815 
L 320.100496 111.900783 
L 320.735207 111.71822 
L 321.052562 111.517327 
L 321.369917 110.937615 
L 321.687273 110.756429 
L 322.321983 110.036402 
L 322.639339 109.828236 
L 323.27405 109.752846 
L 323.591405 109.498834 
L 323.90876 109.046562 
L 324.543471 108.77424 
L 325.178182 108.665929 
L 325.495537 108.125479 
L 325.812893 107.875889 
L 326.130248 107.851056 
L 328.03438 106.751174 
L 329.303802 105.640296 
L 329.621157 105.583185 
L 329.938512 105.185204 
L 330.255868 104.9931 
L 330.890579 104.980324 
L 331.207934 104.682805 
L 331.525289 103.834608 
L 331.842645 103.497364 
L 333.112066 102.724467 
L 333.429421 102.125417 
L 334.064132 101.856299 
L 334.381488 101.223607 
L 335.333554 100.832276 
L 335.650909 100.825606 
L 336.28562 100.242836 
L 336.920331 100.222516 
L 337.555041 99.134444 
L 338.507107 98.935172 
L 339.459174 98.242455 
L 340.728595 97.77132 
L 341.04595 97.12381 
L 341.363306 96.947462 
L 341.680661 95.723653 
L 341.998017 95.661544 
L 342.315372 95.070102 
L 342.632727 94.722137 
L 343.267438 94.697691 
L 343.902149 94.397034 
L 344.219504 93.946257 
L 344.53686 93.844418 
L 344.854215 93.341368 
L 345.17157 93.341366 
L 345.488926 93.192177 
L 346.123636 92.594012 
L 346.440992 91.437364 
L 347.710413 91.065743 
L 348.027769 90.452103 
L 348.662479 90.321198 
L 348.979835 90.321194 
L 349.29719 90.15073 
L 349.614545 90.146379 
L 349.931901 89.913103 
L 350.249256 89.215571 
L 350.883967 89.032056 
L 351.201322 88.337113 
L 351.836033 87.865886 
L 353.105455 87.506429 
L 353.42281 87.107179 
L 355.326942 86.361206 
L 355.644298 85.898448 
L 355.961653 85.809013 
L 356.279008 85.440235 
L 356.596364 85.384939 
L 356.913719 84.100069 
L 357.231074 83.981383 
L 357.54843 83.259086 
L 357.865785 82.892068 
L 358.817851 82.612588 
L 359.452562 82.22443 
L 359.769917 81.897191 
L 360.404628 81.66183 
L 360.721983 81.26161 
L 361.039339 81.261606 
L 361.356694 81.138072 
L 361.67405 80.658926 
L 361.991405 80.623483 
L 362.626116 79.579477 
L 363.260826 79.335433 
L 363.895537 79.274061 
L 364.847603 79.022036 
L 366.751736 76.895149 
L 369.290579 75.710597 
L 369.607934 74.858966 
L 369.925289 74.839453 
L 370.242645 74.675025 
L 370.877355 74.055067 
L 371.829421 73.810279 
L 372.146777 73.482205 
L 372.781488 73.139474 
L 373.098843 72.559754 
L 374.050909 71.944332 
L 375.320331 70.743654 
L 376.589752 70.359191 
L 376.907107 69.747612 
L 378.176529 68.779998 
L 379.128595 68.093555 
L 379.763306 67.205319 
L 380.080661 66.807295 
L 381.032727 66.602458 
L 381.350083 66.304939 
L 381.667438 65.456747 
L 381.984793 64.951803 
L 382.619504 64.749879 
L 383.254215 64.559924 
L 383.57157 64.346591 
L 383.888926 63.747548 
L 384.206281 63.668169 
L 384.523636 62.845742 
L 385.158347 62.642981 
L 385.793058 62.447719 
L 386.110413 61.864974 
L 387.062479 61.828461 
L 387.379835 61.262334 
L 387.69719 61.205817 
L 388.014545 60.756565 
L 389.601322 60.299053 
L 389.918678 60.026435 
L 392.457521 59.393466 
L 392.774876 59.159533 
L 393.092231 58.745945 
L 393.409587 58.569583 
L 394.044298 57.283672 
L 394.361653 56.692246 
L 394.996364 56.344258 
L 395.631074 56.31983 
L 395.94843 55.568403 
L 396.265785 55.466564 
L 396.58314 54.99525 
L 396.900496 54.963499 
L 397.217851 54.814282 
L 397.535207 54.53546 
L 397.852562 54.522686 
L 398.169917 54.225175 
L 398.487273 54.216149 
L 398.487273 54.216149 
" clip-path="url(#pa2c0eac283)" style="fill: none; stroke: #ff7f0e; stroke-width: 1.5; stroke-linecap: square"/>
   </g>
   <g id="patch_3">
    <path d="M 57.6 307.584 
L 57.6 41.472 
" style="fill: none; stroke: #000000; stroke-width: 0.8; stroke-linejoin: miter; stroke-linecap: square"/>
   </g>
   <g id="patch_4">
    <path d="M 414.72 307.584 
L 414.72 41.472 
" style="fill: none; stroke: #000000; stroke-width: 0.8; stroke-linejoin: miter; stroke-linecap: square"/>
   </g>
   <g id="patch_5">
    <path d="M 57.6 307.584 
L 414.72 307.584 
" style="fill: none; stroke: #000000; stroke-width: 0.8; stroke-linejoin: miter; stroke-linecap: square"/>
   </g>
   <g id="patch_6">
    <path d="M 57.6 41.472 
L 414.72 41.472 
" style="fill: none; stroke: #000000; stroke-width: 0.8; stroke-linejoin: miter; stroke-linecap: square"/>
   </g>
   <g id="legend_1">
    <g id="patch_7">
     <path d="M 64.6 78.82825 
L 129.342187 78.82825 
Q 131.342187 78.82825 131.342187 76.82825 
L 131.342187 48.472 
Q 131.342187 46.472 129.342187 46.472 
L 64.6 46.472 
Q 62.6 46.472 62.6 48.472 
L 62.6 76.82825 
Q 62.6 78.82825 64.6 78.82825 
z
" style="fill: #ffffff; opacity: 0.8; stroke: #cccccc; stroke-linejoin: miter"/>
    </g>
    <g id="line2d_16">
     <path d="M 66.6 54.570437 
L 76.6 54.570437 
L 86.6 54.570437 
" style="fill: none; stroke: #1f77b4; stroke-width: 1.5; stroke-linecap: square"/>
    </g>
    <g id="text_16">
     <!-- qc -->
     <g transform="translate(94.6 58.070437) scale(0.1 -0.1)">
      <defs>
       <path id="DejaVuSans-71" d="M 947 1747 
Q 947 1113 1208 752 
Q 1469 391 1925 391 
Q 2381 391 2643 752 
Q 2906 1113 2906 1747 
Q 2906 2381 2643 2742 
Q 2381 3103 1925 3103 
Q 1469 3103 1208 2742 
Q 947 2381 947 1747 
z
M 2906 525 
Q 2725 213 2448 61 
Q 2172 -91 1784 -91 
Q 1150 -91 751 415 
Q 353 922 353 1747 
Q 353 2572 751 3078 
Q 1150 3584 1784 3584 
Q 2172 3584 2448 3432 
Q 2725 3281 2906 2969 
L 2906 3500 
L 3481 3500 
L 3481 -1331 
L 2906 -1331 
L 2906 525 
z
" transform="scale(0.015625)"/>
       <path id="DejaVuSans-63" d="M 3122 3366 
L 3122 2828 
Q 2878 2963 2633 3030 
Q 2388 3097 2138 3097 
Q 1578 3097 1268 2742 
Q 959 2388 959 1747 
Q 959 1106 1268 751 
Q 1578 397 2138 397 
Q 2388 397 2633 464 
Q 2878 531 3122 666 
L 3122 134 
Q 2881 22 2623 -34 
Q 2366 -91 2075 -91 
Q 1284 -91 818 406 
Q 353 903 353 1747 
Q 353 2603 823 3093 
Q 1294 3584 2113 3584 
Q 2378 3584 2631 3529 
Q 2884 3475 3122 3366 
z
" transform="scale(0.015625)"/>
      </defs>
      <use xlink:href="#DejaVuSans-71"/>
      <use xlink:href="#DejaVuSans-63" x="63.476562"/>
     </g>
    </g>
    <g id="line2d_17">
     <path d="M 66.6 69.248562 
L 76.6 69.248562 
L 86.6 69.248562 
" style="fill: none; stroke: #ff7f0e; stroke-width: 1.5; stroke-linecap: square"/>
    </g>
    <g id="text_17">
     <!-- Trotter -->
     <g transform="translate(94.6 72.748562) scale(0.1 -0.1)">
      <defs>
       <path id="DejaVuSans-54" d="M -19 4666 
L 3928 4666 
L 3928 4134 
L 2272 4134 
L 2272 0 
L 1638 0 
L 1638 4134 
L -19 4134 
L -19 4666 
z
" transform="scale(0.015625)"/>
       <path id="DejaVuSans-72" d="M 2631 2963 
Q 2534 3019 2420 3045 
Q 2306 3072 2169 3072 
Q 1681 3072 1420 2755 
Q 1159 2438 1159 1844 
L 1159 0 
L 581 0 
L 581 3500 
L 1159 3500 
L 1159 2956 
Q 1341 3275 1631 3429 
Q 1922 3584 2338 3584 
Q 2397 3584 2469 3576 
Q 2541 3569 2628 3553 
L 2631 2963 
z
" transform="scale(0.015625)"/>
       <path id="DejaVuSans-6f" d="M 1959 3097 
Q 1497 3097 1228 2736 
Q 959 2375 959 1747 
Q 959 1119 1226 758 
Q 1494 397 1959 397 
Q 2419 397 2687 759 
Q 2956 1122 2956 1747 
Q 2956 2369 2687 2733 
Q 2419 3097 1959 3097 
z
M 1959 3584 
Q 2709 3584 3137 3096 
Q 3566 2609 3566 1747 
Q 3566 888 3137 398 
Q 2709 -91 1959 -91 
Q 1206 -91 779 398 
Q 353 888 353 1747 
Q 353 2609 779 3096 
Q 1206 3584 1959 3584 
z
" transform="scale(0.015625)"/>
       <path id="DejaVuSans-65" d="M 3597 1894 
L 3597 1613 
L 953 1613 
Q 991 1019 1311 708 
Q 1631 397 2203 397 
Q 2534 397 2845 478 
Q 3156 559 3463 722 
L 3463 178 
Q 3153 47 2828 -22 
Q 2503 -91 2169 -91 
Q 1331 -91 842 396 
Q 353 884 353 1716 
Q 353 2575 817 3079 
Q 1281 3584 2069 3584 
Q 2775 3584 3186 3129 
Q 3597 2675 3597 1894 
z
M 3022 2063 
Q 3016 2534 2758 2815 
Q 2500 3097 2075 3097 
Q 1594 3097 1305 2825 
Q 1016 2553 972 2059 
L 3022 2063 
z
" transform="scale(0.015625)"/>
      </defs>
      <use xlink:href="#DejaVuSans-54"/>
      <use xlink:href="#DejaVuSans-72" x="46.333984"/>
      <use xlink:href="#DejaVuSans-6f" x="85.197266"/>
      <use xlink:href="#DejaVuSans-74" x="146.378906"/>
      <use xlink:href="#DejaVuSans-74" x="185.587891"/>
      <use xlink:href="#DejaVuSans-65" x="224.796875"/>
      <use xlink:href="#DejaVuSans-72" x="286.320312"/>
     </g>
    </g>
   </g>
  </g>
 </g>
 <defs>
  <clipPath id="pa2c0eac283">
   <rect x="57.6" y="41.472" width="357.12" height="266.112"/>
  </clipPath>
 </defs>
</svg>
