<?xml version="1.0" encoding="utf-8" standalone="no"?>
<!DOCTYPE svg PUBLIC "-//W3C//DTD SVG 1.1//EN"
  "http://www.w3.org/Graphics/SVG/1.1/DTD/svg11.dtd">
<svg xmlns:xlink="http://www.w3.org/1999/xlink" width="460.8pt" height="345.6pt" viewBox="0 0 460.8 345.6" xmlns="http://www.w3.org/2000/svg" version="1.1">
 <metadata>
  <rdf:RDF xmlns:dc="http://purl.org/dc/elements/1.1/" xmlns:cc="http://creativecommons.org/ns#" xmlns:rdf="http://www.w3.org/1999/02/22-rdf-syntax-ns#">
   <cc:Work>
    <dc:type rdf:resource="http://purl.org/dc/dcmitype/StillImage"/>
    <dc:date>2024-08-16T18:24:46.599377</dc:date>
    <dc:format>image/svg+xml</dc:format>
    <dc:creator>
     <cc:Agent>
      <dc:title>Matplotlib v3.7.1, https://matplotlib.org/</dc:title>
     </cc:Agent>
    </dc:creator>
   </cc:Work>
  </rdf:RDF>
 </metadata>
 <defs>
  <style type="text/css">*{stroke-linejoin: round; stroke-linecap: butt}</style>
 </defs>
 <g id="figure_1">
  <g id="patch_1">
   <path d="M 0 345.6 
L 460.8 345.6 
L 460.8 0 
L 0 0 
z
" style="fill: #ffffff"/>
  </g>
  <g id="axes_1">
   <g id="patch_2">
    <path d="M 57.6 307.584 
L 414.72 307.584 
L 414.72 41.472 
L 57.6 41.472 
z
" style="fill: #ffffff"/>
   </g>
   <g id="matplotlib.axis_1">
    <g id="xtick_1">
     <g id="line2d_1">
      <defs>
       <path id="m95c1dc1517" d="M 0 0 
L 0 3.5 
" style="stroke: #000000; stroke-width: 0.8"/>
      </defs>
      <g>
       <use xlink:href="#m95c1dc1517" x="73.832727" y="307.584" style="stroke: #000000; stroke-width: 0.8"/>
      </g>
     </g>
     <g id="text_1">
      <!-- 0 -->
      <g transform="translate(70.651477 322.182437) scale(0.1 -0.1)">
       <defs>
        <path id="DejaVuSans-30" d="M 2034 4250 
Q 1547 4250 1301 3770 
Q 1056 3291 1056 2328 
Q 1056 1369 1301 889 
Q 1547 409 2034 409 
Q 2525 409 2770 889 
Q 3016 1369 3016 2328 
Q 3016 3291 2770 3770 
Q 2525 4250 2034 4250 
z
M 2034 4750 
Q 2819 4750 3233 4129 
Q 3647 3509 3647 2328 
Q 3647 1150 3233 529 
Q 2819 -91 2034 -91 
Q 1250 -91 836 529 
Q 422 1150 422 2328 
Q 422 3509 836 4129 
Q 1250 4750 2034 4750 
z
" transform="scale(0.015625)"/>
       </defs>
       <use xlink:href="#DejaVuSans-30"/>
      </g>
     </g>
    </g>
    <g id="xtick_2">
     <g id="line2d_2">
      <g>
       <use xlink:href="#m95c1dc1517" x="137.303802" y="307.584" style="stroke: #000000; stroke-width: 0.8"/>
      </g>
     </g>
     <g id="text_2">
      <!-- 200 -->
      <g transform="translate(127.760052 322.182437) scale(0.1 -0.1)">
       <defs>
        <path id="DejaVuSans-32" d="M 1228 531 
L 3431 531 
L 3431 0 
L 469 0 
L 469 531 
Q 828 903 1448 1529 
Q 2069 2156 2228 2338 
Q 2531 2678 2651 2914 
Q 2772 3150 2772 3378 
Q 2772 3750 2511 3984 
Q 2250 4219 1831 4219 
Q 1534 4219 1204 4116 
Q 875 4013 500 3803 
L 500 4441 
Q 881 4594 1212 4672 
Q 1544 4750 1819 4750 
Q 2544 4750 2975 4387 
Q 3406 4025 3406 3419 
Q 3406 3131 3298 2873 
Q 3191 2616 2906 2266 
Q 2828 2175 2409 1742 
Q 1991 1309 1228 531 
z
" transform="scale(0.015625)"/>
       </defs>
       <use xlink:href="#DejaVuSans-32"/>
       <use xlink:href="#DejaVuSans-30" x="63.623047"/>
       <use xlink:href="#DejaVuSans-30" x="127.246094"/>
      </g>
     </g>
    </g>
    <g id="xtick_3">
     <g id="line2d_3">
      <g>
       <use xlink:href="#m95c1dc1517" x="200.774876" y="307.584" style="stroke: #000000; stroke-width: 0.8"/>
      </g>
     </g>
     <g id="text_3">
      <!-- 400 -->
      <g transform="translate(191.231126 322.182437) scale(0.1 -0.1)">
       <defs>
        <path id="DejaVuSans-34" d="M 2419 4116 
L 825 1625 
L 2419 1625 
L 2419 4116 
z
M 2253 4666 
L 3047 4666 
L 3047 1625 
L 3713 1625 
L 3713 1100 
L 3047 1100 
L 3047 0 
L 2419 0 
L 2419 1100 
L 313 1100 
L 313 1709 
L 2253 4666 
z
" transform="scale(0.015625)"/>
       </defs>
       <use xlink:href="#DejaVuSans-34"/>
       <use xlink:href="#DejaVuSans-30" x="63.623047"/>
       <use xlink:href="#DejaVuSans-30" x="127.246094"/>
      </g>
     </g>
    </g>
    <g id="xtick_4">
     <g id="line2d_4">
      <g>
       <use xlink:href="#m95c1dc1517" x="264.24595" y="307.584" style="stroke: #000000; stroke-width: 0.8"/>
      </g>
     </g>
     <g id="text_4">
      <!-- 600 -->
      <g transform="translate(254.7022 322.182437) scale(0.1 -0.1)">
       <defs>
        <path id="DejaVuSans-36" d="M 2113 2584 
Q 1688 2584 1439 2293 
Q 1191 2003 1191 1497 
Q 1191 994 1439 701 
Q 1688 409 2113 409 
Q 2538 409 2786 701 
Q 3034 994 3034 1497 
Q 3034 2003 2786 2293 
Q 2538 2584 2113 2584 
z
M 3366 4563 
L 3366 3988 
Q 3128 4100 2886 4159 
Q 2644 4219 2406 4219 
Q 1781 4219 1451 3797 
Q 1122 3375 1075 2522 
Q 1259 2794 1537 2939 
Q 1816 3084 2150 3084 
Q 2853 3084 3261 2657 
Q 3669 2231 3669 1497 
Q 3669 778 3244 343 
Q 2819 -91 2113 -91 
Q 1303 -91 875 529 
Q 447 1150 447 2328 
Q 447 3434 972 4092 
Q 1497 4750 2381 4750 
Q 2619 4750 2861 4703 
Q 3103 4656 3366 4563 
z
" transform="scale(0.015625)"/>
       </defs>
       <use xlink:href="#DejaVuSans-36"/>
       <use xlink:href="#DejaVuSans-30" x="63.623047"/>
       <use xlink:href="#DejaVuSans-30" x="127.246094"/>
      </g>
     </g>
    </g>
    <g id="xtick_5">
     <g id="line2d_5">
      <g>
       <use xlink:href="#m95c1dc1517" x="327.717025" y="307.584" style="stroke: #000000; stroke-width: 0.8"/>
      </g>
     </g>
     <g id="text_5">
      <!-- 800 -->
      <g transform="translate(318.173275 322.182437) scale(0.1 -0.1)">
       <defs>
        <path id="DejaVuSans-38" d="M 2034 2216 
Q 1584 2216 1326 1975 
Q 1069 1734 1069 1313 
Q 1069 891 1326 650 
Q 1584 409 2034 409 
Q 2484 409 2743 651 
Q 3003 894 3003 1313 
Q 3003 1734 2745 1975 
Q 2488 2216 2034 2216 
z
M 1403 2484 
Q 997 2584 770 2862 
Q 544 3141 544 3541 
Q 544 4100 942 4425 
Q 1341 4750 2034 4750 
Q 2731 4750 3128 4425 
Q 3525 4100 3525 3541 
Q 3525 3141 3298 2862 
Q 3072 2584 2669 2484 
Q 3125 2378 3379 2068 
Q 3634 1759 3634 1313 
Q 3634 634 3220 271 
Q 2806 -91 2034 -91 
Q 1263 -91 848 271 
Q 434 634 434 1313 
Q 434 1759 690 2068 
Q 947 2378 1403 2484 
z
M 1172 3481 
Q 1172 3119 1398 2916 
Q 1625 2713 2034 2713 
Q 2441 2713 2670 2916 
Q 2900 3119 2900 3481 
Q 2900 3844 2670 4047 
Q 2441 4250 2034 4250 
Q 1625 4250 1398 4047 
Q 1172 3844 1172 3481 
z
" transform="scale(0.015625)"/>
       </defs>
       <use xlink:href="#DejaVuSans-38"/>
       <use xlink:href="#DejaVuSans-30" x="63.623047"/>
       <use xlink:href="#DejaVuSans-30" x="127.246094"/>
      </g>
     </g>
    </g>
    <g id="xtick_6">
     <g id="line2d_6">
      <g>
       <use xlink:href="#m95c1dc1517" x="391.188099" y="307.584" style="stroke: #000000; stroke-width: 0.8"/>
      </g>
     </g>
     <g id="text_6">
      <!-- 1000 -->
      <g transform="translate(378.463099 322.182437) scale(0.1 -0.1)">
       <defs>
        <path id="DejaVuSans-31" d="M 794 531 
L 1825 531 
L 1825 4091 
L 703 3866 
L 703 4441 
L 1819 4666 
L 2450 4666 
L 2450 531 
L 3481 531 
L 3481 0 
L 794 0 
L 794 531 
z
" transform="scale(0.015625)"/>
       </defs>
       <use xlink:href="#DejaVuSans-31"/>
       <use xlink:href="#DejaVuSans-30" x="63.623047"/>
       <use xlink:href="#DejaVuSans-30" x="127.246094"/>
       <use xlink:href="#DejaVuSans-30" x="190.869141"/>
      </g>
     </g>
    </g>
    <g id="text_7">
     <!-- n -->
     <g transform="translate(232.99125 335.860562) scale(0.1 -0.1)">
      <defs>
       <path id="DejaVuSans-6e" d="M 3513 2113 
L 3513 0 
L 2938 0 
L 2938 2094 
Q 2938 2591 2744 2837 
Q 2550 3084 2163 3084 
Q 1697 3084 1428 2787 
Q 1159 2491 1159 1978 
L 1159 0 
L 581 0 
L 581 3500 
L 1159 3500 
L 1159 2956 
Q 1366 3272 1645 3428 
Q 1925 3584 2291 3584 
Q 2894 3584 3203 3211 
Q 3513 2838 3513 2113 
z
" transform="scale(0.015625)"/>
      </defs>
      <use xlink:href="#DejaVuSans-6e"/>
     </g>
    </g>
   </g>
   <g id="matplotlib.axis_2">
    <g id="ytick_1">
     <g id="line2d_7">
      <defs>
       <path id="m4c90cf417d" d="M 0 0 
L -3.5 0 
" style="stroke: #000000; stroke-width: 0.8"/>
      </defs>
      <g>
       <use xlink:href="#m4c90cf417d" x="57.6" y="290.193132" style="stroke: #000000; stroke-width: 0.8"/>
      </g>
     </g>
     <g id="text_8">
      <!-- −3 -->
      <g transform="translate(35.857813 293.99235) scale(0.1 -0.1)">
       <defs>
        <path id="DejaVuSans-2212" d="M 678 2272 
L 4684 2272 
L 4684 1741 
L 678 1741 
L 678 2272 
z
" transform="scale(0.015625)"/>
        <path id="DejaVuSans-33" d="M 2597 2516 
Q 3050 2419 3304 2112 
Q 3559 1806 3559 1356 
Q 3559 666 3084 287 
Q 2609 -91 1734 -91 
Q 1441 -91 1130 -33 
Q 819 25 488 141 
L 488 750 
Q 750 597 1062 519 
Q 1375 441 1716 441 
Q 2309 441 2620 675 
Q 2931 909 2931 1356 
Q 2931 1769 2642 2001 
Q 2353 2234 1838 2234 
L 1294 2234 
L 1294 2753 
L 1863 2753 
Q 2328 2753 2575 2939 
Q 2822 3125 2822 3475 
Q 2822 3834 2567 4026 
Q 2313 4219 1838 4219 
Q 1578 4219 1281 4162 
Q 984 4106 628 3988 
L 628 4550 
Q 988 4650 1302 4700 
Q 1616 4750 1894 4750 
Q 2613 4750 3031 4423 
Q 3450 4097 3450 3541 
Q 3450 3153 3228 2886 
Q 3006 2619 2597 2516 
z
" transform="scale(0.015625)"/>
       </defs>
       <use xlink:href="#DejaVuSans-2212"/>
       <use xlink:href="#DejaVuSans-33" x="83.789062"/>
      </g>
     </g>
    </g>
    <g id="ytick_2">
     <g id="line2d_8">
      <g>
       <use xlink:href="#m4c90cf417d" x="57.6" y="251.652041" style="stroke: #000000; stroke-width: 0.8"/>
      </g>
     </g>
     <g id="text_9">
      <!-- −2 -->
      <g transform="translate(35.857813 255.451259) scale(0.1 -0.1)">
       <use xlink:href="#DejaVuSans-2212"/>
       <use xlink:href="#DejaVuSans-32" x="83.789062"/>
      </g>
     </g>
    </g>
    <g id="ytick_3">
     <g id="line2d_9">
      <g>
       <use xlink:href="#m4c90cf417d" x="57.6" y="213.110949" style="stroke: #000000; stroke-width: 0.8"/>
      </g>
     </g>
     <g id="text_10">
      <!-- −1 -->
      <g transform="translate(35.857813 216.910168) scale(0.1 -0.1)">
       <use xlink:href="#DejaVuSans-2212"/>
       <use xlink:href="#DejaVuSans-31" x="83.789062"/>
      </g>
     </g>
    </g>
    <g id="ytick_4">
     <g id="line2d_10">
      <g>
       <use xlink:href="#m4c90cf417d" x="57.6" y="174.569858" style="stroke: #000000; stroke-width: 0.8"/>
      </g>
     </g>
     <g id="text_11">
      <!-- 0 -->
      <g transform="translate(44.2375 178.369077) scale(0.1 -0.1)">
       <use xlink:href="#DejaVuSans-30"/>
      </g>
     </g>
    </g>
    <g id="ytick_5">
     <g id="line2d_11">
      <g>
       <use xlink:href="#m4c90cf417d" x="57.6" y="136.028767" style="stroke: #000000; stroke-width: 0.8"/>
      </g>
     </g>
     <g id="text_12">
      <!-- 1 -->
      <g transform="translate(44.2375 139.827986) scale(0.1 -0.1)">
       <use xlink:href="#DejaVuSans-31"/>
      </g>
     </g>
    </g>
    <g id="ytick_6">
     <g id="line2d_12">
      <g>
       <use xlink:href="#m4c90cf417d" x="57.6" y="97.487676" style="stroke: #000000; stroke-width: 0.8"/>
      </g>
     </g>
     <g id="text_13">
      <!-- 2 -->
      <g transform="translate(44.2375 101.286895) scale(0.1 -0.1)">
       <use xlink:href="#DejaVuSans-32"/>
      </g>
     </g>
    </g>
    <g id="ytick_7">
     <g id="line2d_13">
      <g>
       <use xlink:href="#m4c90cf417d" x="57.6" y="58.946585" style="stroke: #000000; stroke-width: 0.8"/>
      </g>
     </g>
     <g id="text_14">
      <!-- 3 -->
      <g transform="translate(44.2375 62.745804) scale(0.1 -0.1)">
       <use xlink:href="#DejaVuSans-33"/>
      </g>
     </g>
    </g>
    <g id="text_15">
     <!-- E*t -->
     <g transform="translate(29.778125 182.147531) rotate(-90) scale(0.1 -0.1)">
      <defs>
       <path id="DejaVuSans-45" d="M 628 4666 
L 3578 4666 
L 3578 4134 
L 1259 4134 
L 1259 2753 
L 3481 2753 
L 3481 2222 
L 1259 2222 
L 1259 531 
L 3634 531 
L 3634 0 
L 628 0 
L 628 4666 
z
" transform="scale(0.015625)"/>
       <path id="DejaVuSans-2a" d="M 3009 3897 
L 1888 3291 
L 3009 2681 
L 2828 2375 
L 1778 3009 
L 1778 1831 
L 1422 1831 
L 1422 3009 
L 372 2375 
L 191 2681 
L 1313 3291 
L 191 3897 
L 372 4206 
L 1422 3572 
L 1422 4750 
L 1778 4750 
L 1778 3572 
L 2828 4206 
L 3009 3897 
z
" transform="scale(0.015625)"/>
       <path id="DejaVuSans-74" d="M 1172 4494 
L 1172 3500 
L 2356 3500 
L 2356 3053 
L 1172 3053 
L 1172 1153 
Q 1172 725 1289 603 
Q 1406 481 1766 481 
L 2356 481 
L 2356 0 
L 1766 0 
Q 1100 0 847 248 
Q 594 497 594 1153 
L 594 3053 
L 172 3053 
L 172 3500 
L 594 3500 
L 594 4494 
L 1172 4494 
z
" transform="scale(0.015625)"/>
      </defs>
      <use xlink:href="#DejaVuSans-45"/>
      <use xlink:href="#DejaVuSans-2a" x="63.183594"/>
      <use xlink:href="#DejaVuSans-74" x="113.183594"/>
     </g>
    </g>
   </g>
   <g id="line2d_14">
    <path d="M 73.832727 295.488 
L 75.419504 294.624636 
L 75.73686 294.090488 
L 76.054215 294.034495 
L 76.37157 293.745773 
L 77.006281 293.553178 
L 77.323636 292.954989 
L 77.640992 292.948797 
L 77.958347 292.376214 
L 79.227769 291.710155 
L 80.49719 290.437457 
L 80.814545 290.271898 
L 81.131901 289.737451 
L 81.449256 289.640576 
L 81.766612 288.891871 
L 82.718678 288.688225 
L 83.353388 288.183253 
L 83.988099 287.880935 
L 84.305455 287.304772 
L 84.62281 287.177796 
L 85.257521 286.381469 
L 85.892231 286.098263 
L 86.209587 285.829761 
L 86.844298 285.661404 
L 87.479008 285.307366 
L 87.796364 285.00667 
L 88.113719 284.89604 
L 88.74843 284.478857 
L 90.652562 283.393734 
L 90.969917 282.56217 
L 91.287273 282.387722 
L 91.604628 281.886511 
L 93.191405 281.250271 
L 93.50876 280.1274 
L 94.143471 279.64527 
L 94.460826 279.561515 
L 95.412893 278.94954 
L 96.682314 278.16362 
L 97.317025 277.562336 
L 97.63438 277.503174 
L 97.951736 276.825936 
L 98.269091 276.745744 
L 98.586446 276.424422 
L 98.903802 276.357963 
L 99.538512 275.510948 
L 100.490579 274.741878 
L 100.807934 274.331872 
L 101.125289 274.215254 
L 101.76 273.737567 
L 102.394711 273.473852 
L 103.346777 272.921243 
L 103.664132 272.733073 
L 103.981488 272.34585 
L 104.298843 271.362123 
L 104.616198 271.318652 
L 105.250909 270.70291 
L 105.88562 269.657465 
L 106.520331 269.445042 
L 107.155041 269.050528 
L 107.472397 268.983763 
L 107.789752 268.606138 
L 108.107107 268.410493 
L 108.424463 267.938271 
L 109.059174 267.761522 
L 109.376529 267.508149 
L 110.01124 267.274328 
L 110.328595 266.987106 
L 110.64595 266.916426 
L 112.232727 265.954508 
L 112.550083 265.898186 
L 113.184793 265.221533 
L 113.819504 265.12947 
L 114.454215 264.583556 
L 114.77157 264.098621 
L 115.723636 263.695413 
L 116.040992 263.618872 
L 116.358347 263.020192 
L 116.675702 262.895518 
L 116.993058 262.381757 
L 117.310413 262.269243 
L 117.627769 261.851249 
L 118.262479 261.762336 
L 118.579835 261.260673 
L 119.531901 260.789081 
L 121.753388 259.607182 
L 122.070744 259.513896 
L 122.388099 259.182464 
L 122.705455 259.111911 
L 123.657521 257.689059 
L 123.974876 257.628352 
L 124.292231 257.127126 
L 124.609587 257.042236 
L 124.926942 256.617083 
L 126.831074 255.610586 
L 127.465785 255.069903 
L 128.100496 254.196418 
L 128.735207 253.775955 
L 129.052562 253.250492 
L 129.369917 253.231278 
L 129.687273 253.01623 
L 130.004628 252.976697 
L 130.321983 252.657363 
L 130.639339 251.944839 
L 131.27405 251.408113 
L 131.591405 251.353858 
L 132.543471 250.865741 
L 132.860826 250.801869 
L 133.495537 250.439527 
L 134.130248 250.261692 
L 134.447603 249.407833 
L 135.399669 248.946303 
L 136.669091 247.528678 
L 137.303802 247.376849 
L 137.938512 247.066951 
L 138.890579 246.384855 
L 139.842645 245.874874 
L 140.16 245.608165 
L 141.112066 244.468643 
L 141.429421 244.110336 
L 142.064132 243.962986 
L 142.381488 243.492608 
L 142.698843 243.309044 
L 143.016198 242.753567 
L 143.333554 242.628977 
L 143.968264 241.86779 
L 144.920331 241.585936 
L 145.555041 241.112434 
L 146.189752 240.719979 
L 146.507107 240.519097 
L 147.141818 240.322779 
L 147.776529 239.993422 
L 148.093884 239.684352 
L 148.728595 238.725368 
L 149.363306 238.011483 
L 149.998017 237.352711 
L 150.315372 237.17447 
L 150.632727 236.768696 
L 151.902149 236.527069 
L 152.219504 236.23639 
L 152.854215 236.048343 
L 153.806281 235.622005 
L 154.123636 235.553413 
L 154.440992 235.34239 
L 154.758347 235.284429 
L 155.393058 234.893612 
L 155.710413 234.455161 
L 156.027769 234.427233 
L 156.345124 233.614471 
L 156.979835 233.443639 
L 157.614545 232.767124 
L 157.931901 231.97995 
L 158.883967 231.781611 
L 159.201322 231.595217 
L 159.518678 231.032351 
L 159.836033 230.855726 
L 160.153388 230.216182 
L 160.788099 230.049057 
L 161.105455 229.604187 
L 161.740165 229.210802 
L 162.057521 229.127917 
L 162.374876 228.509538 
L 163.961653 227.524171 
L 164.596364 227.090058 
L 165.54843 226.72211 
L 166.500496 225.772773 
L 167.135207 225.404934 
L 167.452562 225.314082 
L 167.769917 224.917507 
L 168.087273 224.861059 
L 168.404628 224.39149 
L 168.721983 224.152477 
L 169.356694 224.002944 
L 169.67405 223.678407 
L 169.991405 223.643483 
L 170.943471 222.379781 
L 172.530248 221.785098 
L 172.847603 221.473011 
L 173.164959 221.33019 
L 173.482314 220.747961 
L 174.117025 220.456334 
L 175.069091 219.208737 
L 175.703802 219.094057 
L 176.338512 218.865993 
L 176.655868 218.493854 
L 177.925289 217.820536 
L 178.242645 217.457512 
L 179.194711 217.034922 
L 179.829421 216.828736 
L 180.146777 216.269642 
L 181.416198 215.397277 
L 181.733554 214.729787 
L 182.050909 214.704576 
L 182.368264 214.154481 
L 182.68562 214.119705 
L 183.320331 213.552726 
L 183.637686 213.316146 
L 183.955041 212.810681 
L 185.224463 212.430178 
L 185.541818 211.79484 
L 185.859174 211.717532 
L 186.176529 211.456936 
L 186.493884 210.985212 
L 186.81124 210.961398 
L 187.128595 210.409303 
L 187.763306 210.09646 
L 188.080661 209.719951 
L 188.715372 209.438236 
L 189.350083 209.026445 
L 190.302149 208.817991 
L 191.254215 208.281184 
L 191.888926 208.021969 
L 192.523636 207.751265 
L 193.158347 207.590809 
L 193.475702 207.432473 
L 194.110413 206.279875 
L 194.427769 206.181254 
L 194.745124 205.541461 
L 195.062479 205.244895 
L 195.379835 204.504479 
L 196.014545 203.898053 
L 197.601322 203.246986 
L 198.236033 202.413032 
L 199.505455 202.090352 
L 199.82281 201.672243 
L 200.140165 201.548888 
L 201.092231 200.735872 
L 201.726942 200.451007 
L 202.044298 200.153582 
L 202.361653 199.467871 
L 202.996364 199.17539 
L 203.94843 198.684193 
L 204.265785 198.238722 
L 204.900496 197.962731 
L 206.169917 197.569945 
L 206.487273 197.549363 
L 207.756694 196.265844 
L 208.391405 195.170108 
L 209.026116 194.814828 
L 209.978182 194.202967 
L 210.612893 194.129559 
L 210.930248 193.656712 
L 211.247603 193.415918 
L 211.564959 192.505724 
L 212.199669 192.097585 
L 212.517025 191.756447 
L 214.103802 191.032692 
L 215.373223 190.15307 
L 218.546777 188.177606 
L 218.864132 187.767369 
L 219.181488 187.644129 
L 219.816198 186.948705 
L 220.133554 186.946823 
L 220.768264 186.273944 
L 221.402975 186.080153 
L 222.037686 185.232532 
L 222.355041 185.178188 
L 222.672397 184.611651 
L 223.624463 184.091984 
L 223.941818 184.022234 
L 224.259174 183.587686 
L 224.893884 183.406702 
L 225.84595 182.443833 
L 226.480661 182.286113 
L 226.798017 181.777978 
L 227.432727 181.564763 
L 228.067438 181.145904 
L 228.702149 180.539162 
L 229.654215 180.26831 
L 230.606281 179.849539 
L 232.193058 178.653851 
L 232.510413 178.017777 
L 232.827769 177.839825 
L 233.145124 177.226559 
L 233.462479 177.025335 
L 233.779835 176.493638 
L 236.318678 174.866142 
L 236.636033 174.565275 
L 236.953388 174.46348 
L 237.270744 174.237568 
L 237.588099 173.867387 
L 237.905455 173.206643 
L 238.22281 172.984633 
L 238.857521 172.152856 
L 239.174876 172.107045 
L 239.492231 171.831439 
L 241.079008 171.230865 
L 241.396364 170.65956 
L 242.031074 170.453953 
L 242.665785 170.18234 
L 243.300496 170.049787 
L 244.569917 169.579664 
L 245.204628 168.474184 
L 245.839339 168.284781 
L 246.47405 167.757094 
L 246.791405 166.832253 
L 247.10876 166.395124 
L 247.426116 166.269634 
L 247.743471 165.79292 
L 248.378182 165.436935 
L 249.330248 165.043742 
L 249.964959 164.7129 
L 250.599669 164.28318 
L 250.917025 164.232863 
L 251.551736 163.841844 
L 252.186446 161.918159 
L 253.455868 161.206825 
L 254.090579 160.862364 
L 255.042645 159.978019 
L 255.36 159.743294 
L 255.677355 159.695024 
L 256.946777 159.006342 
L 257.264132 158.634972 
L 257.581488 158.566492 
L 259.168264 157.605312 
L 259.48562 156.976893 
L 259.802975 156.70675 
L 260.755041 156.490922 
L 261.389752 156.24556 
L 262.024463 155.507197 
L 262.341818 155.358517 
L 262.659174 155.051989 
L 262.976529 154.392469 
L 263.293884 154.32966 
L 264.24595 153.810584 
L 264.563306 153.449782 
L 265.515372 153.128467 
L 266.150083 152.561289 
L 266.467438 152.498038 
L 266.784793 152.217056 
L 267.102149 152.089254 
L 267.419504 151.653329 
L 267.73686 151.488453 
L 268.37157 151.381832 
L 268.688926 151.070436 
L 269.323636 150.95595 
L 269.640992 150.518009 
L 270.275702 150.194886 
L 270.910413 149.713551 
L 271.545124 149.525298 
L 271.862479 149.103207 
L 272.179835 149.001211 
L 272.49719 148.664758 
L 273.131901 148.426658 
L 274.083967 146.674934 
L 275.353388 145.866912 
L 275.670744 145.8115 
L 275.988099 145.359588 
L 276.305455 145.112384 
L 276.62281 144.604608 
L 276.940165 144.389778 
L 277.574876 144.317798 
L 278.209587 143.896653 
L 278.844298 143.785848 
L 279.161653 142.836837 
L 280.113719 142.39319 
L 280.431074 142.297117 
L 280.74843 142.029665 
L 281.38314 141.857979 
L 282.017851 141.148277 
L 282.335207 140.964933 
L 282.652562 140.422664 
L 283.287273 140.294453 
L 283.921983 139.660354 
L 284.239339 139.172048 
L 284.556694 139.080469 
L 285.191405 138.539413 
L 285.826116 138.367575 
L 286.143471 138.078457 
L 286.460826 138.00643 
L 286.778182 137.753281 
L 287.095537 137.325037 
L 287.412893 136.241433 
L 287.730248 136.231152 
L 288.047603 136.067764 
L 288.682314 135.220729 
L 288.999669 135.014433 
L 289.317025 134.561786 
L 289.63438 134.435076 
L 289.951736 133.979231 
L 290.269091 133.723758 
L 291.221157 133.517803 
L 291.855868 133.321114 
L 292.173223 133.273095 
L 292.490579 133.098373 
L 292.807934 133.057957 
L 293.125289 132.506242 
L 293.442645 132.429735 
L 294.077355 132.062929 
L 294.394711 131.991354 
L 295.029421 131.627066 
L 295.346777 130.978127 
L 295.981488 130.492313 
L 296.298843 130.326228 
L 296.616198 129.917298 
L 297.250909 129.568069 
L 297.568264 128.938074 
L 297.88562 128.893433 
L 298.202975 128.703718 
L 298.520331 128.251299 
L 300.107107 127.394206 
L 301.059174 127.263149 
L 301.376529 127.179637 
L 301.693884 126.759907 
L 302.01124 126.668163 
L 302.64595 125.444832 
L 302.963306 124.964658 
L 303.280661 124.266792 
L 304.867438 123.680133 
L 305.184793 123.531527 
L 305.502149 123.221192 
L 305.819504 122.662857 
L 306.454215 122.127643 
L 307.406281 121.984322 
L 308.040992 120.947511 
L 308.993058 120.353439 
L 309.310413 120.166724 
L 309.627769 119.533497 
L 310.579835 119.10144 
L 310.89719 119.029312 
L 311.214545 118.722829 
L 311.531901 118.579489 
L 311.849256 117.949435 
L 313.118678 117.298775 
L 313.436033 116.578082 
L 314.070744 115.943954 
L 314.705455 115.675293 
L 315.657521 115.500712 
L 316.609587 114.910087 
L 316.926942 113.793959 
L 317.244298 113.433775 
L 317.879008 113.265716 
L 318.196364 112.885791 
L 318.513719 112.838842 
L 319.465785 112.003301 
L 320.100496 111.831684 
L 320.735207 111.262117 
L 321.052562 110.842176 
L 322.956694 109.935654 
L 323.591405 109.265189 
L 324.226116 108.599464 
L 324.860826 108.120214 
L 325.495537 107.858827 
L 325.812893 107.117186 
L 326.447603 106.83317 
L 326.764959 106.4074 
L 327.399669 106.050382 
L 327.717025 105.714221 
L 328.351736 105.50911 
L 328.669091 105.139572 
L 328.986446 105.129131 
L 330.890579 103.848707 
L 331.207934 103.576889 
L 331.525289 103.518073 
L 331.842645 103.060423 
L 333.112066 102.619672 
L 333.746777 101.905029 
L 334.064132 101.671965 
L 334.698843 101.475645 
L 335.650909 100.723958 
L 336.28562 100.608343 
L 336.920331 100.357211 
L 337.237686 100.29596 
L 337.555041 99.779866 
L 337.872397 99.528692 
L 338.189752 99.491717 
L 339.141818 97.878358 
L 339.776529 97.68819 
L 340.41124 96.469259 
L 340.728595 96.404994 
L 342.950083 95.161604 
L 343.584793 94.491874 
L 344.219504 94.345904 
L 344.53686 94.235657 
L 345.488926 93.234269 
L 345.806281 93.14907 
L 346.440992 92.519137 
L 346.758347 92.465955 
L 347.075702 92.097191 
L 347.393058 92.049498 
L 348.027769 91.097108 
L 348.979835 90.390069 
L 349.614545 89.993498 
L 350.249256 89.774156 
L 350.883967 89.274099 
L 351.836033 89.024286 
L 352.470744 88.336497 
L 352.788099 87.343367 
L 354.374876 86.411276 
L 355.009587 85.888723 
L 356.279008 85.287152 
L 356.913719 84.367721 
L 360.404628 81.927296 
L 361.67405 81.222072 
L 361.991405 80.907604 
L 362.626116 80.722743 
L 363.895537 79.064948 
L 364.212893 78.949924 
L 364.530248 78.283583 
L 364.847603 78.039233 
L 366.117025 77.724847 
L 366.43438 77.598411 
L 366.751736 77.220544 
L 367.069091 76.54028 
L 367.703802 75.992791 
L 368.338512 75.648746 
L 368.973223 75.020821 
L 370.242645 74.644712 
L 370.877355 74.088801 
L 371.194711 73.714726 
L 371.829421 73.298038 
L 372.146777 72.895095 
L 372.464132 72.833039 
L 372.781488 72.409537 
L 373.416198 72.240234 
L 373.733554 71.94223 
L 374.050909 71.273258 
L 374.368264 71.223206 
L 374.68562 71.01341 
L 375.002975 70.975897 
L 377.224463 69.255814 
L 377.541818 69.167369 
L 377.859174 68.795729 
L 378.81124 68.538421 
L 379.44595 67.732293 
L 379.763306 67.600179 
L 380.080661 66.982567 
L 380.398017 66.925805 
L 380.715372 66.610723 
L 381.032727 66.476882 
L 381.984793 65.742447 
L 382.302149 65.628123 
L 383.254215 64.783184 
L 383.888926 64.542641 
L 384.206281 64.284832 
L 384.523636 63.876067 
L 384.840992 63.144101 
L 385.475702 62.843389 
L 388.331901 61.313501 
L 388.649256 60.420179 
L 388.966612 60.176655 
L 389.283967 60.082894 
L 389.601322 59.860297 
L 389.918678 59.790538 
L 390.553388 58.726153 
L 390.870744 58.259569 
L 391.188099 58.188684 
L 391.505455 57.939239 
L 392.140165 57.774184 
L 392.457521 57.547409 
L 392.774876 57.166129 
L 393.092231 57.14637 
L 394.044298 56.70065 
L 394.679008 55.952243 
L 395.313719 55.564509 
L 395.94843 55.395665 
L 396.58314 55.023322 
L 397.217851 54.647441 
L 397.535207 54.549202 
L 398.169917 53.773917 
L 398.487273 53.568 
L 398.487273 53.568 
" clip-path="url(#pc84fd89bfe)" style="fill: none; stroke: #1f77b4; stroke-width: 1.5; stroke-linecap: square"/>
   </g>
   <g id="line2d_15">
    <path d="M 73.832727 295.148288 
L 74.150083 294.88527 
L 74.467438 294.272139 
L 75.102149 294.141336 
L 75.419504 294.141332 
L 75.73686 293.811796 
L 76.054215 293.733552 
L 76.37157 293.166024 
L 77.323636 292.887736 
L 77.640992 292.853141 
L 78.910413 291.38263 
L 79.227769 291.32873 
L 79.545124 290.998867 
L 81.131901 290.61076 
L 81.449256 290.269261 
L 82.083967 290.18439 
L 82.401322 289.721987 
L 82.718678 289.63261 
L 83.036033 289.20888 
L 83.353388 287.924993 
L 83.670744 287.806355 
L 83.988099 287.084645 
L 84.305455 286.717908 
L 85.257521 286.614469 
L 85.892231 286.265157 
L 86.526942 285.088696 
L 86.844298 285.088693 
L 87.161653 284.965269 
L 87.479008 284.486463 
L 88.113719 284.364644 
L 88.74843 283.974887 
L 89.065785 283.407852 
L 89.700496 283.158587 
L 90.335207 283.031814 
L 90.969917 282.850849 
L 91.921983 281.900479 
L 92.239339 281.388232 
L 93.826116 280.043502 
L 94.460826 279.655999 
L 94.778182 279.541955 
L 95.412893 277.829981 
L 95.730248 277.801856 
L 97.63438 276.825088 
L 97.951736 276.212507 
L 98.269091 276.132244 
L 98.903802 274.910448 
L 99.221157 274.609654 
L 100.490579 274.486268 
L 100.807934 274.194654 
L 101.76 273.970045 
L 102.077355 273.653326 
L 102.394711 273.583552 
L 102.712066 273.370579 
L 103.029421 273.30933 
L 104.616198 271.930766 
L 105.568264 270.883749 
L 105.88562 270.645456 
L 106.837686 270.440817 
L 107.155041 270.440813 
L 108.107107 269.31769 
L 108.424463 269.295989 
L 108.741818 268.79143 
L 109.376529 268.505672 
L 110.01124 268.268249 
L 110.64595 267.078192 
L 110.963306 266.686983 
L 111.598017 266.484399 
L 111.915372 266.425742 
L 112.232727 265.706971 
L 112.867438 265.686664 
L 113.819504 264.599399 
L 115.406281 264.14225 
L 115.723636 263.869833 
L 116.675702 263.613609 
L 117.310413 263.365966 
L 118.262479 263.003611 
L 119.531901 261.223733 
L 119.849256 261.129183 
L 120.166612 260.538221 
L 120.801322 260.190481 
L 121.118678 260.169129 
L 121.436033 259.44872 
L 122.070744 259.389443 
L 122.388099 258.661668 
L 122.705455 258.383082 
L 123.02281 258.370315 
L 123.340165 258.07303 
L 123.657521 258.064019 
L 124.292231 256.799889 
L 124.926942 256.536856 
L 125.244298 255.923759 
L 125.879008 255.792955 
L 126.196364 255.792951 
L 126.513719 255.517616 
L 127.14843 255.385168 
L 127.465785 255.213083 
L 127.78314 254.817651 
L 128.100496 254.632889 
L 128.417851 254.61647 
L 128.735207 254.127288 
L 129.052562 253.878104 
L 129.369917 253.810377 
L 129.687273 253.210262 
L 130.004628 253.034249 
L 130.321983 252.565936 
L 131.591405 252.262382 
L 131.90876 251.92091 
L 133.178182 251.492742 
L 133.812893 251.284224 
L 134.130248 249.457939 
L 135.082314 248.369524 
L 136.03438 248.310916 
L 136.351736 248.120059 
L 136.669091 248.090293 
L 137.303802 247.846483 
L 137.938512 246.740304 
L 138.255868 246.740302 
L 138.573223 246.616891 
L 138.890579 246.102693 
L 139.207934 245.827983 
L 139.842645 245.626483 
L 140.16 245.059458 
L 140.794711 244.810214 
L 141.429421 244.650096 
L 142.064132 244.502465 
L 142.698843 243.853254 
L 143.650909 243.552095 
L 143.968264 242.968842 
L 144.920331 242.194743 
L 145.237686 241.860208 
L 145.555041 241.850473 
L 146.824463 241.19357 
L 147.141818 240.929947 
L 147.776529 239.481606 
L 148.093884 239.453511 
L 149.363306 238.845296 
L 149.680661 238.825165 
L 149.998017 238.476719 
L 150.315372 237.864137 
L 150.632727 237.783874 
L 150.950083 236.562038 
L 151.267438 236.261256 
L 152.53686 236.137888 
L 152.854215 235.846265 
L 153.806281 235.63184 
L 154.123636 235.304931 
L 154.440992 235.235171 
L 154.758347 235.022201 
L 155.075702 234.960944 
L 156.027769 234.140053 
L 156.345124 233.617947 
L 156.662479 233.582386 
L 157.29719 232.745128 
L 157.614545 232.683731 
L 157.931901 232.214146 
L 158.249256 232.092432 
L 158.566612 232.09243 
L 158.883967 231.268126 
L 159.201322 230.969306 
L 159.518678 230.947612 
L 159.836033 230.443049 
L 160.470744 230.157289 
L 161.42281 229.780039 
L 161.740165 229.57819 
L 162.057521 228.729774 
L 162.374876 228.338598 
L 163.644298 228.026039 
L 163.961653 227.358589 
L 164.596364 227.338282 
L 164.913719 226.937087 
L 165.54843 226.699978 
L 165.865785 226.251007 
L 166.817851 225.974625 
L 167.135207 225.521443 
L 168.087273 225.26522 
L 168.721983 225.017587 
L 169.67405 224.655243 
L 170.30876 223.906614 
L 170.943471 223.727947 
L 171.578182 222.875359 
L 172.530248 222.753124 
L 172.847603 222.189842 
L 173.164959 222.0117 
L 173.799669 221.100329 
L 174.43438 221.041066 
L 174.751736 220.034695 
L 175.069091 220.021926 
L 175.386446 219.724639 
L 176.021157 218.451491 
L 176.655868 218.313989 
L 177.607934 217.444575 
L 177.925289 217.444572 
L 178.242645 217.169222 
L 179.194711 217.036782 
L 179.512066 216.598451 
L 180.781488 216.268086 
L 181.098843 215.778917 
L 181.416198 215.770961 
L 181.733554 215.529733 
L 182.050909 215.46199 
L 182.368264 214.861882 
L 182.68562 214.685869 
L 183.002975 214.13382 
L 183.637686 213.914006 
L 183.955041 213.572554 
L 184.589752 213.450027 
L 184.907107 213.444697 
L 185.224463 213.222315 
L 186.176529 212.935842 
L 186.493884 212.171429 
L 186.81124 212.092748 
L 187.128595 211.109525 
L 187.44595 210.772408 
L 187.763306 210.021142 
L 188.080661 209.98019 
L 188.398017 209.771657 
L 188.715372 209.747164 
L 189.667438 209.397371 
L 189.984793 208.950375 
L 190.302149 208.894541 
L 190.619504 208.391913 
L 190.93686 208.391913 
L 191.254215 208.268511 
L 191.57157 207.754312 
L 191.888926 207.479611 
L 192.523636 207.360404 
L 192.840992 206.542997 
L 193.158347 206.381079 
L 194.745124 206.154082 
L 195.379835 205.504863 
L 196.014545 205.374048 
L 196.331901 205.374045 
L 196.649256 205.203711 
L 196.966612 204.620503 
L 197.283967 204.608553 
L 197.918678 204.269313 
L 198.553388 203.982629 
L 199.188099 202.959239 
L 199.505455 202.845184 
L 199.82281 202.162509 
L 200.457521 201.913133 
L 200.774876 200.68313 
L 201.726942 200.476788 
L 202.679008 199.515767 
L 202.996364 198.213631 
L 203.313719 197.912868 
L 204.58314 197.789507 
L 204.900496 197.497877 
L 206.169917 197.283471 
L 206.487273 196.956537 
L 206.804628 196.886793 
L 207.121983 196.673821 
L 207.439339 196.61256 
L 208.391405 195.791651 
L 208.70876 195.269547 
L 209.026116 195.234008 
L 209.343471 194.728955 
L 209.660826 194.472559 
L 210.295537 194.335358 
L 210.612893 193.744048 
L 210.930248 193.744047 
L 211.564959 193.360379 
L 212.199669 192.620924 
L 212.517025 192.599236 
L 212.83438 192.34046 
L 213.151736 191.808906 
L 215.055868 190.381359 
L 215.373223 189.990214 
L 216.642645 189.677666 
L 216.96 189.116438 
L 217.594711 188.989901 
L 217.912066 188.588691 
L 218.229421 188.406248 
L 218.546777 187.902617 
L 219.498843 187.626242 
L 219.816198 187.09897 
L 220.450909 186.916833 
L 221.08562 186.517736 
L 221.402975 186.442374 
L 221.720331 186.188554 
L 222.037686 185.558249 
L 222.672397 185.379529 
L 222.989752 184.984573 
L 223.307107 184.937871 
L 223.624463 184.566927 
L 224.259174 184.40476 
L 224.576529 184.28215 
L 224.893884 183.84146 
L 225.528595 183.443023 
L 225.84595 182.751941 
L 226.163306 182.692688 
L 226.480661 182.332964 
L 226.798017 182.275938 
L 227.115372 181.686308 
L 227.750083 181.673538 
L 228.384793 181.376249 
L 229.019504 179.96558 
L 229.97157 179.096195 
L 230.288926 179.096193 
L 230.606281 178.82083 
L 231.558347 178.551889 
L 232.193058 177.936077 
L 232.510413 177.919702 
L 234.414545 177.113604 
L 235.049256 175.785437 
L 235.366612 175.749522 
L 235.683967 175.565632 
L 236.001322 175.139263 
L 236.636033 175.096312 
L 236.953388 174.87396 
L 237.588099 174.676849 
L 237.905455 173.823049 
L 238.22281 173.744351 
L 238.540165 172.761111 
L 238.857521 172.424005 
L 239.174876 171.672763 
L 239.492231 171.6318 
L 239.809587 171.423256 
L 240.444298 171.398788 
L 241.396364 171.048996 
L 241.713719 170.601966 
L 242.031074 170.546163 
L 242.34843 170.043524 
L 242.665785 170.043524 
L 242.98314 169.817667 
L 243.300496 169.296726 
L 243.617851 169.131235 
L 243.935207 168.14102 
L 244.887273 167.921221 
L 245.521983 167.8057 
L 245.839339 167.156475 
L 246.47405 167.025663 
L 246.791405 167.025663 
L 247.10876 166.855327 
L 247.426116 166.272157 
L 247.743471 166.260138 
L 248.378182 165.920911 
L 249.012893 165.63423 
L 249.330248 165.043125 
L 249.647603 164.998344 
L 250.599669 164.496798 
L 250.917025 164.419406 
L 251.23438 163.814124 
L 252.503802 163.073505 
L 253.138512 162.334742 
L 253.455868 162.148485 
L 253.773223 162.128411 
L 254.090579 161.779978 
L 254.407934 161.230841 
L 254.725289 161.167397 
L 255.042645 159.997178 
L 255.677355 159.865226 
L 255.994711 159.543656 
L 256.946777 159.441123 
L 257.264132 159.149491 
L 258.216198 158.9351 
L 258.533554 158.608145 
L 258.850909 158.524583 
L 259.168264 158.325439 
L 259.48562 158.264178 
L 259.802975 157.973054 
L 260.755041 156.380578 
L 262.341818 155.986987 
L 262.659174 155.395665 
L 263.293884 155.37386 
L 263.61124 155.222332 
L 263.928595 154.272544 
L 264.24595 154.250862 
L 264.563306 153.992051 
L 264.880661 153.973172 
L 265.198017 153.610063 
L 265.515372 153.460523 
L 265.832727 153.083239 
L 266.150083 152.881385 
L 266.784793 152.263588 
L 267.102149 152.032946 
L 267.419504 151.57529 
L 267.73686 151.55581 
L 269.006281 150.7143 
L 269.958347 150.527447 
L 270.593058 150.057866 
L 270.910413 149.277861 
L 271.227769 149.096805 
L 271.545124 148.750601 
L 272.179835 148.568448 
L 272.49719 148.169344 
L 273.131901 148.093992 
L 273.449256 147.840181 
L 273.766612 147.388262 
L 274.401322 147.11615 
L 274.718678 147.031118 
L 275.353388 146.218513 
L 275.670744 146.193685 
L 276.305455 145.933775 
L 276.62281 145.314929 
L 277.257521 144.853868 
L 277.892231 143.984599 
L 278.209587 143.92755 
L 278.526942 143.33792 
L 279.161653 143.325151 
L 279.479008 143.027861 
L 279.796364 141.675748 
L 281.065785 140.747816 
L 281.38314 140.47244 
L 282.335207 140.203516 
L 282.969917 139.587675 
L 283.287273 139.571318 
L 284.239339 139.180272 
L 284.87405 139.074162 
L 285.50876 138.591297 
L 285.826116 138.575685 
L 286.460826 137.437052 
L 286.778182 137.401123 
L 287.095537 136.790889 
L 288.364959 136.592468 
L 288.999669 136.447613 
L 289.317025 136.130431 
L 289.63438 136.121667 
L 289.951736 135.474668 
L 290.586446 135.298477 
L 290.903802 134.075604 
L 291.221157 134.013539 
L 291.538512 133.283412 
L 291.855868 133.074856 
L 292.490579 133.05041 
L 293.125289 132.700618 
L 293.442645 132.302428 
L 294.077355 132.197787 
L 294.394711 131.695136 
L 294.712066 131.695135 
L 295.029421 131.13973 
L 295.346777 130.948348 
L 295.664132 129.792613 
L 296.933554 129.457319 
L 297.250909 128.808089 
L 297.568264 128.677281 
L 297.88562 128.677279 
L 298.520331 128.2695 
L 299.155041 127.572515 
L 299.789752 127.389178 
L 300.107107 127.285836 
L 300.424463 126.694732 
L 300.741818 126.649957 
L 301.693884 126.148411 
L 302.01124 126.094599 
L 302.328595 125.864671 
L 302.64595 125.465737 
L 302.963306 125.30213 
L 303.598017 124.725119 
L 303.915372 124.720328 
L 304.232727 124.257925 
L 304.867438 123.986357 
L 305.184793 123.800084 
L 305.502149 123.744798 
L 305.819504 123.431604 
L 306.454215 121.620599 
L 306.77157 121.195269 
L 307.088926 121.150405 
L 307.406281 120.801106 
L 308.358347 120.586727 
L 308.675702 120.259754 
L 308.993058 120.176187 
L 309.310413 119.977055 
L 309.627769 119.624665 
L 309.945124 119.62466 
L 310.262479 119.501201 
L 310.579835 119.02246 
L 310.89719 118.987012 
L 311.214545 117.943827 
L 311.849256 117.699958 
L 312.483967 117.56778 
L 312.801322 117.047284 
L 313.118678 117.02549 
L 313.436033 116.873929 
L 313.753388 116.251042 
L 314.070744 115.924166 
L 314.388099 115.90249 
L 314.705455 115.643652 
L 315.02281 115.624778 
L 315.340165 115.261613 
L 315.657521 115.112138 
L 315.974876 114.734841 
L 316.926942 114.191947 
L 319.14843 112.365919 
L 319.78314 112.179054 
L 320.100496 111.891908 
L 320.735207 111.709485 
L 321.052562 111.508747 
L 321.369917 110.92948 
L 321.687273 110.748433 
L 322.321983 110.028959 
L 322.639339 109.820953 
L 323.27405 109.745621 
L 323.591405 109.491804 
L 323.90876 109.039879 
L 324.543471 108.767767 
L 325.178182 108.659539 
L 325.495537 108.119504 
L 325.812893 107.870105 
L 326.130248 107.845292 
L 328.03438 106.746254 
L 329.303802 105.63623 
L 329.621157 105.579163 
L 329.938512 105.181487 
L 330.255868 104.989532 
L 330.890579 104.976765 
L 331.207934 104.679475 
L 331.525289 103.831929 
L 331.842645 103.494944 
L 333.112066 102.722641 
L 333.429421 102.124051 
L 334.064132 101.85514 
L 334.381488 101.222934 
L 335.333554 100.831903 
L 335.650909 100.825239 
L 336.28562 100.242916 
L 336.920331 100.222612 
L 337.555041 99.135375 
L 338.507107 98.936257 
L 339.459174 98.244072 
L 340.728595 97.773298 
L 341.04595 97.126286 
L 341.363306 96.950074 
L 341.680661 95.727204 
L 341.998017 95.665144 
L 342.315372 95.074156 
L 342.632727 94.726458 
L 343.267438 94.702031 
L 343.902149 94.401605 
L 344.219504 93.951174 
L 344.53686 93.849413 
L 344.854215 93.34675 
L 345.17157 93.346748 
L 345.488926 93.197673 
L 346.123636 92.599968 
L 346.440992 91.444208 
L 347.710413 91.072873 
L 348.027769 90.459704 
L 348.662479 90.328899 
L 348.979835 90.328896 
L 349.29719 90.158562 
L 349.614545 90.154215 
L 349.931901 89.921118 
L 350.249256 89.224122 
L 350.883967 89.040748 
L 351.201322 88.346339 
L 351.836033 87.875474 
L 353.105455 87.516294 
L 353.42281 87.117349 
L 355.326942 86.37195 
L 355.644298 85.909548 
L 355.961653 85.820181 
L 356.279008 85.451686 
L 356.596364 85.396433 
L 356.913719 84.11255 
L 357.231074 83.993955 
L 357.54843 83.272213 
L 357.865785 82.905477 
L 358.817851 82.626212 
L 359.452562 82.238351 
L 359.769917 81.911364 
L 360.404628 81.676184 
L 360.721983 81.276271 
L 361.039339 81.276267 
L 361.356694 81.152828 
L 361.67405 80.67405 
L 361.991405 80.638634 
L 362.626116 79.59543 
L 363.260826 79.351574 
L 363.895537 79.290249 
L 364.847603 79.038417 
L 366.751736 76.913164 
L 369.290579 75.729522 
L 369.607934 74.878545 
L 369.925289 74.859048 
L 370.242645 74.694746 
L 370.877355 74.075264 
L 371.829421 73.830664 
L 372.146777 73.502842 
L 372.781488 73.160374 
L 373.098843 72.581099 
L 374.050909 71.966151 
L 375.320331 70.766395 
L 376.589752 70.382227 
L 376.907107 69.771118 
L 378.176529 68.804247 
L 379.128595 68.118331 
L 379.763306 67.230777 
L 380.080661 66.83306 
L 381.032727 66.62838 
L 381.350083 66.331089 
L 381.667438 65.48355 
L 381.984793 64.978993 
L 382.619504 64.777224 
L 383.254215 64.587415 
L 383.57157 64.374246 
L 383.888926 63.775664 
L 384.206281 63.696345 
L 384.523636 62.87455 
L 385.158347 62.671945 
L 385.793058 62.476832 
L 386.110413 61.894535 
L 387.062479 61.85805 
L 387.379835 61.292358 
L 387.69719 61.235885 
L 388.014545 60.786977 
L 389.601322 60.329817 
L 389.918678 60.057409 
L 392.457521 59.424926 
L 392.774876 59.191172 
L 393.092231 58.777902 
L 393.409587 58.601675 
L 394.044298 57.316752 
L 394.361653 56.725781 
L 394.996364 56.37806 
L 395.631074 56.353651 
L 395.94843 55.602802 
L 396.265785 55.501041 
L 396.58314 55.030089 
L 396.900496 54.998362 
L 397.217851 54.84926 
L 397.535207 54.570651 
L 397.852562 54.557887 
L 398.169917 54.260605 
L 398.487273 54.251586 
L 398.487273 54.251586 
" clip-path="url(#pc84fd89bfe)" style="fill: none; stroke: #ff7f0e; stroke-width: 1.5; stroke-linecap: square"/>
   </g>
   <g id="patch_3">
    <path d="M 57.6 307.584 
L 57.6 41.472 
" style="fill: none; stroke: #000000; stroke-width: 0.8; stroke-linejoin: miter; stroke-linecap: square"/>
   </g>
   <g id="patch_4">
    <path d="M 414.72 307.584 
L 414.72 41.472 
" style="fill: none; stroke: #000000; stroke-width: 0.8; stroke-linejoin: miter; stroke-linecap: square"/>
   </g>
   <g id="patch_5">
    <path d="M 57.6 307.584 
L 414.72 307.584 
" style="fill: none; stroke: #000000; stroke-width: 0.8; stroke-linejoin: miter; stroke-linecap: square"/>
   </g>
   <g id="patch_6">
    <path d="M 57.6 41.472 
L 414.72 41.472 
" style="fill: none; stroke: #000000; stroke-width: 0.8; stroke-linejoin: miter; stroke-linecap: square"/>
   </g>
   <g id="legend_1">
    <g id="patch_7">
     <path d="M 64.6 78.82825 
L 129.342187 78.82825 
Q 131.342187 78.82825 131.342187 76.82825 
L 131.342187 48.472 
Q 131.342187 46.472 129.342187 46.472 
L 64.6 46.472 
Q 62.6 46.472 62.6 48.472 
L 62.6 76.82825 
Q 62.6 78.82825 64.6 78.82825 
z
" style="fill: #ffffff; opacity: 0.8; stroke: #cccccc; stroke-linejoin: miter"/>
    </g>
    <g id="line2d_16">
     <path d="M 66.6 54.570437 
L 76.6 54.570437 
L 86.6 54.570437 
" style="fill: none; stroke: #1f77b4; stroke-width: 1.5; stroke-linecap: square"/>
    </g>
    <g id="text_16">
     <!-- qc -->
     <g transform="translate(94.6 58.070437) scale(0.1 -0.1)">
      <defs>
       <path id="DejaVuSans-71" d="M 947 1747 
Q 947 1113 1208 752 
Q 1469 391 1925 391 
Q 2381 391 2643 752 
Q 2906 1113 2906 1747 
Q 2906 2381 2643 2742 
Q 2381 3103 1925 3103 
Q 1469 3103 1208 2742 
Q 947 2381 947 1747 
z
M 2906 525 
Q 2725 213 2448 61 
Q 2172 -91 1784 -91 
Q 1150 -91 751 415 
Q 353 922 353 1747 
Q 353 2572 751 3078 
Q 1150 3584 1784 3584 
Q 2172 3584 2448 3432 
Q 2725 3281 2906 2969 
L 2906 3500 
L 3481 3500 
L 3481 -1331 
L 2906 -1331 
L 2906 525 
z
" transform="scale(0.015625)"/>
       <path id="DejaVuSans-63" d="M 3122 3366 
L 3122 2828 
Q 2878 2963 2633 3030 
Q 2388 3097 2138 3097 
Q 1578 3097 1268 2742 
Q 959 2388 959 1747 
Q 959 1106 1268 751 
Q 1578 397 2138 397 
Q 2388 397 2633 464 
Q 2878 531 3122 666 
L 3122 134 
Q 2881 22 2623 -34 
Q 2366 -91 2075 -91 
Q 1284 -91 818 406 
Q 353 903 353 1747 
Q 353 2603 823 3093 
Q 1294 3584 2113 3584 
Q 2378 3584 2631 3529 
Q 2884 3475 3122 3366 
z
" transform="scale(0.015625)"/>
      </defs>
      <use xlink:href="#DejaVuSans-71"/>
      <use xlink:href="#DejaVuSans-63" x="63.476562"/>
     </g>
    </g>
    <g id="line2d_17">
     <path d="M 66.6 69.248562 
L 76.6 69.248562 
L 86.6 69.248562 
" style="fill: none; stroke: #ff7f0e; stroke-width: 1.5; stroke-linecap: square"/>
    </g>
    <g id="text_17">
     <!-- Trotter -->
     <g transform="translate(94.6 72.748562) scale(0.1 -0.1)">
      <defs>
       <path id="DejaVuSans-54" d="M -19 4666 
L 3928 4666 
L 3928 4134 
L 2272 4134 
L 2272 0 
L 1638 0 
L 1638 4134 
L -19 4134 
L -19 4666 
z
" transform="scale(0.015625)"/>
       <path id="DejaVuSans-72" d="M 2631 2963 
Q 2534 3019 2420 3045 
Q 2306 3072 2169 3072 
Q 1681 3072 1420 2755 
Q 1159 2438 1159 1844 
L 1159 0 
L 581 0 
L 581 3500 
L 1159 3500 
L 1159 2956 
Q 1341 3275 1631 3429 
Q 1922 3584 2338 3584 
Q 2397 3584 2469 3576 
Q 2541 3569 2628 3553 
L 2631 2963 
z
" transform="scale(0.015625)"/>
       <path id="DejaVuSans-6f" d="M 1959 3097 
Q 1497 3097 1228 2736 
Q 959 2375 959 1747 
Q 959 1119 1226 758 
Q 1494 397 1959 397 
Q 2419 397 2687 759 
Q 2956 1122 2956 1747 
Q 2956 2369 2687 2733 
Q 2419 3097 1959 3097 
z
M 1959 3584 
Q 2709 3584 3137 3096 
Q 3566 2609 3566 1747 
Q 3566 888 3137 398 
Q 2709 -91 1959 -91 
Q 1206 -91 779 398 
Q 353 888 353 1747 
Q 353 2609 779 3096 
Q 1206 3584 1959 3584 
z
" transform="scale(0.015625)"/>
       <path id="DejaVuSans-65" d="M 3597 1894 
L 3597 1613 
L 953 1613 
Q 991 1019 1311 708 
Q 1631 397 2203 397 
Q 2534 397 2845 478 
Q 3156 559 3463 722 
L 3463 178 
Q 3153 47 2828 -22 
Q 2503 -91 2169 -91 
Q 1331 -91 842 396 
Q 353 884 353 1716 
Q 353 2575 817 3079 
Q 1281 3584 2069 3584 
Q 2775 3584 3186 3129 
Q 3597 2675 3597 1894 
z
M 3022 2063 
Q 3016 2534 2758 2815 
Q 2500 3097 2075 3097 
Q 1594 3097 1305 2825 
Q 1016 2553 972 2059 
L 3022 2063 
z
" transform="scale(0.015625)"/>
      </defs>
      <use xlink:href="#DejaVuSans-54"/>
      <use xlink:href="#DejaVuSans-72" x="46.333984"/>
      <use xlink:href="#DejaVuSans-6f" x="85.197266"/>
      <use xlink:href="#DejaVuSans-74" x="146.378906"/>
      <use xlink:href="#DejaVuSans-74" x="185.587891"/>
      <use xlink:href="#DejaVuSans-65" x="224.796875"/>
      <use xlink:href="#DejaVuSans-72" x="286.320312"/>
     </g>
    </g>
   </g>
  </g>
 </g>
 <defs>
  <clipPath id="pc84fd89bfe">
   <rect x="57.6" y="41.472" width="357.12" height="266.112"/>
  </clipPath>
 </defs>
</svg>
