<?xml version="1.0" encoding="utf-8" standalone="no"?>
<!DOCTYPE svg PUBLIC "-//W3C//DTD SVG 1.1//EN"
  "http://www.w3.org/Graphics/SVG/1.1/DTD/svg11.dtd">
<svg xmlns:xlink="http://www.w3.org/1999/xlink" width="460.8pt" height="345.6pt" viewBox="0 0 460.8 345.6" xmlns="http://www.w3.org/2000/svg" version="1.1">
 <metadata>
  <rdf:RDF xmlns:dc="http://purl.org/dc/elements/1.1/" xmlns:cc="http://creativecommons.org/ns#" xmlns:rdf="http://www.w3.org/1999/02/22-rdf-syntax-ns#">
   <cc:Work>
    <dc:type rdf:resource="http://purl.org/dc/dcmitype/StillImage"/>
    <dc:date>2024-08-16T18:12:20.548698</dc:date>
    <dc:format>image/svg+xml</dc:format>
    <dc:creator>
     <cc:Agent>
      <dc:title>Matplotlib v3.7.1, https://matplotlib.org/</dc:title>
     </cc:Agent>
    </dc:creator>
   </cc:Work>
  </rdf:RDF>
 </metadata>
 <defs>
  <style type="text/css">*{stroke-linejoin: round; stroke-linecap: butt}</style>
 </defs>
 <g id="figure_1">
  <g id="patch_1">
   <path d="M 0 345.6 
L 460.8 345.6 
L 460.8 0 
L 0 0 
z
" style="fill: #ffffff"/>
  </g>
  <g id="axes_1">
   <g id="patch_2">
    <path d="M 57.6 307.584 
L 414.72 307.584 
L 414.72 41.472 
L 57.6 41.472 
z
" style="fill: #ffffff"/>
   </g>
   <g id="matplotlib.axis_1">
    <g id="xtick_1">
     <g id="line2d_1">
      <defs>
       <path id="m1977ddb528" d="M 0 0 
L 0 3.5 
" style="stroke: #000000; stroke-width: 0.8"/>
      </defs>
      <g>
       <use xlink:href="#m1977ddb528" x="73.832727" y="307.584" style="stroke: #000000; stroke-width: 0.8"/>
      </g>
     </g>
     <g id="text_1">
      <!-- 0 -->
      <g transform="translate(70.651477 322.182437) scale(0.1 -0.1)">
       <defs>
        <path id="DejaVuSans-30" d="M 2034 4250 
Q 1547 4250 1301 3770 
Q 1056 3291 1056 2328 
Q 1056 1369 1301 889 
Q 1547 409 2034 409 
Q 2525 409 2770 889 
Q 3016 1369 3016 2328 
Q 3016 3291 2770 3770 
Q 2525 4250 2034 4250 
z
M 2034 4750 
Q 2819 4750 3233 4129 
Q 3647 3509 3647 2328 
Q 3647 1150 3233 529 
Q 2819 -91 2034 -91 
Q 1250 -91 836 529 
Q 422 1150 422 2328 
Q 422 3509 836 4129 
Q 1250 4750 2034 4750 
z
" transform="scale(0.015625)"/>
       </defs>
       <use xlink:href="#DejaVuSans-30"/>
      </g>
     </g>
    </g>
    <g id="xtick_2">
     <g id="line2d_2">
      <g>
       <use xlink:href="#m1977ddb528" x="137.303802" y="307.584" style="stroke: #000000; stroke-width: 0.8"/>
      </g>
     </g>
     <g id="text_2">
      <!-- 200 -->
      <g transform="translate(127.760052 322.182437) scale(0.1 -0.1)">
       <defs>
        <path id="DejaVuSans-32" d="M 1228 531 
L 3431 531 
L 3431 0 
L 469 0 
L 469 531 
Q 828 903 1448 1529 
Q 2069 2156 2228 2338 
Q 2531 2678 2651 2914 
Q 2772 3150 2772 3378 
Q 2772 3750 2511 3984 
Q 2250 4219 1831 4219 
Q 1534 4219 1204 4116 
Q 875 4013 500 3803 
L 500 4441 
Q 881 4594 1212 4672 
Q 1544 4750 1819 4750 
Q 2544 4750 2975 4387 
Q 3406 4025 3406 3419 
Q 3406 3131 3298 2873 
Q 3191 2616 2906 2266 
Q 2828 2175 2409 1742 
Q 1991 1309 1228 531 
z
" transform="scale(0.015625)"/>
       </defs>
       <use xlink:href="#DejaVuSans-32"/>
       <use xlink:href="#DejaVuSans-30" x="63.623047"/>
       <use xlink:href="#DejaVuSans-30" x="127.246094"/>
      </g>
     </g>
    </g>
    <g id="xtick_3">
     <g id="line2d_3">
      <g>
       <use xlink:href="#m1977ddb528" x="200.774876" y="307.584" style="stroke: #000000; stroke-width: 0.8"/>
      </g>
     </g>
     <g id="text_3">
      <!-- 400 -->
      <g transform="translate(191.231126 322.182437) scale(0.1 -0.1)">
       <defs>
        <path id="DejaVuSans-34" d="M 2419 4116 
L 825 1625 
L 2419 1625 
L 2419 4116 
z
M 2253 4666 
L 3047 4666 
L 3047 1625 
L 3713 1625 
L 3713 1100 
L 3047 1100 
L 3047 0 
L 2419 0 
L 2419 1100 
L 313 1100 
L 313 1709 
L 2253 4666 
z
" transform="scale(0.015625)"/>
       </defs>
       <use xlink:href="#DejaVuSans-34"/>
       <use xlink:href="#DejaVuSans-30" x="63.623047"/>
       <use xlink:href="#DejaVuSans-30" x="127.246094"/>
      </g>
     </g>
    </g>
    <g id="xtick_4">
     <g id="line2d_4">
      <g>
       <use xlink:href="#m1977ddb528" x="264.24595" y="307.584" style="stroke: #000000; stroke-width: 0.8"/>
      </g>
     </g>
     <g id="text_4">
      <!-- 600 -->
      <g transform="translate(254.7022 322.182437) scale(0.1 -0.1)">
       <defs>
        <path id="DejaVuSans-36" d="M 2113 2584 
Q 1688 2584 1439 2293 
Q 1191 2003 1191 1497 
Q 1191 994 1439 701 
Q 1688 409 2113 409 
Q 2538 409 2786 701 
Q 3034 994 3034 1497 
Q 3034 2003 2786 2293 
Q 2538 2584 2113 2584 
z
M 3366 4563 
L 3366 3988 
Q 3128 4100 2886 4159 
Q 2644 4219 2406 4219 
Q 1781 4219 1451 3797 
Q 1122 3375 1075 2522 
Q 1259 2794 1537 2939 
Q 1816 3084 2150 3084 
Q 2853 3084 3261 2657 
Q 3669 2231 3669 1497 
Q 3669 778 3244 343 
Q 2819 -91 2113 -91 
Q 1303 -91 875 529 
Q 447 1150 447 2328 
Q 447 3434 972 4092 
Q 1497 4750 2381 4750 
Q 2619 4750 2861 4703 
Q 3103 4656 3366 4563 
z
" transform="scale(0.015625)"/>
       </defs>
       <use xlink:href="#DejaVuSans-36"/>
       <use xlink:href="#DejaVuSans-30" x="63.623047"/>
       <use xlink:href="#DejaVuSans-30" x="127.246094"/>
      </g>
     </g>
    </g>
    <g id="xtick_5">
     <g id="line2d_5">
      <g>
       <use xlink:href="#m1977ddb528" x="327.717025" y="307.584" style="stroke: #000000; stroke-width: 0.8"/>
      </g>
     </g>
     <g id="text_5">
      <!-- 800 -->
      <g transform="translate(318.173275 322.182437) scale(0.1 -0.1)">
       <defs>
        <path id="DejaVuSans-38" d="M 2034 2216 
Q 1584 2216 1326 1975 
Q 1069 1734 1069 1313 
Q 1069 891 1326 650 
Q 1584 409 2034 409 
Q 2484 409 2743 651 
Q 3003 894 3003 1313 
Q 3003 1734 2745 1975 
Q 2488 2216 2034 2216 
z
M 1403 2484 
Q 997 2584 770 2862 
Q 544 3141 544 3541 
Q 544 4100 942 4425 
Q 1341 4750 2034 4750 
Q 2731 4750 3128 4425 
Q 3525 4100 3525 3541 
Q 3525 3141 3298 2862 
Q 3072 2584 2669 2484 
Q 3125 2378 3379 2068 
Q 3634 1759 3634 1313 
Q 3634 634 3220 271 
Q 2806 -91 2034 -91 
Q 1263 -91 848 271 
Q 434 634 434 1313 
Q 434 1759 690 2068 
Q 947 2378 1403 2484 
z
M 1172 3481 
Q 1172 3119 1398 2916 
Q 1625 2713 2034 2713 
Q 2441 2713 2670 2916 
Q 2900 3119 2900 3481 
Q 2900 3844 2670 4047 
Q 2441 4250 2034 4250 
Q 1625 4250 1398 4047 
Q 1172 3844 1172 3481 
z
" transform="scale(0.015625)"/>
       </defs>
       <use xlink:href="#DejaVuSans-38"/>
       <use xlink:href="#DejaVuSans-30" x="63.623047"/>
       <use xlink:href="#DejaVuSans-30" x="127.246094"/>
      </g>
     </g>
    </g>
    <g id="xtick_6">
     <g id="line2d_6">
      <g>
       <use xlink:href="#m1977ddb528" x="391.188099" y="307.584" style="stroke: #000000; stroke-width: 0.8"/>
      </g>
     </g>
     <g id="text_6">
      <!-- 1000 -->
      <g transform="translate(378.463099 322.182437) scale(0.1 -0.1)">
       <defs>
        <path id="DejaVuSans-31" d="M 794 531 
L 1825 531 
L 1825 4091 
L 703 3866 
L 703 4441 
L 1819 4666 
L 2450 4666 
L 2450 531 
L 3481 531 
L 3481 0 
L 794 0 
L 794 531 
z
" transform="scale(0.015625)"/>
       </defs>
       <use xlink:href="#DejaVuSans-31"/>
       <use xlink:href="#DejaVuSans-30" x="63.623047"/>
       <use xlink:href="#DejaVuSans-30" x="127.246094"/>
       <use xlink:href="#DejaVuSans-30" x="190.869141"/>
      </g>
     </g>
    </g>
    <g id="text_7">
     <!-- n -->
     <g transform="translate(232.99125 335.860562) scale(0.1 -0.1)">
      <defs>
       <path id="DejaVuSans-6e" d="M 3513 2113 
L 3513 0 
L 2938 0 
L 2938 2094 
Q 2938 2591 2744 2837 
Q 2550 3084 2163 3084 
Q 1697 3084 1428 2787 
Q 1159 2491 1159 1978 
L 1159 0 
L 581 0 
L 581 3500 
L 1159 3500 
L 1159 2956 
Q 1366 3272 1645 3428 
Q 1925 3584 2291 3584 
Q 2894 3584 3203 3211 
Q 3513 2838 3513 2113 
z
" transform="scale(0.015625)"/>
      </defs>
      <use xlink:href="#DejaVuSans-6e"/>
     </g>
    </g>
   </g>
   <g id="matplotlib.axis_2">
    <g id="ytick_1">
     <g id="line2d_7">
      <defs>
       <path id="mbe17e9cbdf" d="M 0 0 
L -3.5 0 
" style="stroke: #000000; stroke-width: 0.8"/>
      </defs>
      <g>
       <use xlink:href="#mbe17e9cbdf" x="57.6" y="290.084635" style="stroke: #000000; stroke-width: 0.8"/>
      </g>
     </g>
     <g id="text_8">
      <!-- −3 -->
      <g transform="translate(35.857813 293.883854) scale(0.1 -0.1)">
       <defs>
        <path id="DejaVuSans-2212" d="M 678 2272 
L 4684 2272 
L 4684 1741 
L 678 1741 
L 678 2272 
z
" transform="scale(0.015625)"/>
        <path id="DejaVuSans-33" d="M 2597 2516 
Q 3050 2419 3304 2112 
Q 3559 1806 3559 1356 
Q 3559 666 3084 287 
Q 2609 -91 1734 -91 
Q 1441 -91 1130 -33 
Q 819 25 488 141 
L 488 750 
Q 750 597 1062 519 
Q 1375 441 1716 441 
Q 2309 441 2620 675 
Q 2931 909 2931 1356 
Q 2931 1769 2642 2001 
Q 2353 2234 1838 2234 
L 1294 2234 
L 1294 2753 
L 1863 2753 
Q 2328 2753 2575 2939 
Q 2822 3125 2822 3475 
Q 2822 3834 2567 4026 
Q 2313 4219 1838 4219 
Q 1578 4219 1281 4162 
Q 984 4106 628 3988 
L 628 4550 
Q 988 4650 1302 4700 
Q 1616 4750 1894 4750 
Q 2613 4750 3031 4423 
Q 3450 4097 3450 3541 
Q 3450 3153 3228 2886 
Q 3006 2619 2597 2516 
z
" transform="scale(0.015625)"/>
       </defs>
       <use xlink:href="#DejaVuSans-2212"/>
       <use xlink:href="#DejaVuSans-33" x="83.789062"/>
      </g>
     </g>
    </g>
    <g id="ytick_2">
     <g id="line2d_8">
      <g>
       <use xlink:href="#mbe17e9cbdf" x="57.6" y="251.560387" style="stroke: #000000; stroke-width: 0.8"/>
      </g>
     </g>
     <g id="text_9">
      <!-- −2 -->
      <g transform="translate(35.857813 255.359606) scale(0.1 -0.1)">
       <use xlink:href="#DejaVuSans-2212"/>
       <use xlink:href="#DejaVuSans-32" x="83.789062"/>
      </g>
     </g>
    </g>
    <g id="ytick_3">
     <g id="line2d_9">
      <g>
       <use xlink:href="#mbe17e9cbdf" x="57.6" y="213.036139" style="stroke: #000000; stroke-width: 0.8"/>
      </g>
     </g>
     <g id="text_10">
      <!-- −1 -->
      <g transform="translate(35.857813 216.835357) scale(0.1 -0.1)">
       <use xlink:href="#DejaVuSans-2212"/>
       <use xlink:href="#DejaVuSans-31" x="83.789062"/>
      </g>
     </g>
    </g>
    <g id="ytick_4">
     <g id="line2d_10">
      <g>
       <use xlink:href="#mbe17e9cbdf" x="57.6" y="174.511891" style="stroke: #000000; stroke-width: 0.8"/>
      </g>
     </g>
     <g id="text_11">
      <!-- 0 -->
      <g transform="translate(44.2375 178.311109) scale(0.1 -0.1)">
       <use xlink:href="#DejaVuSans-30"/>
      </g>
     </g>
    </g>
    <g id="ytick_5">
     <g id="line2d_11">
      <g>
       <use xlink:href="#mbe17e9cbdf" x="57.6" y="135.987642" style="stroke: #000000; stroke-width: 0.8"/>
      </g>
     </g>
     <g id="text_12">
      <!-- 1 -->
      <g transform="translate(44.2375 139.786861) scale(0.1 -0.1)">
       <use xlink:href="#DejaVuSans-31"/>
      </g>
     </g>
    </g>
    <g id="ytick_6">
     <g id="line2d_12">
      <g>
       <use xlink:href="#mbe17e9cbdf" x="57.6" y="97.463394" style="stroke: #000000; stroke-width: 0.8"/>
      </g>
     </g>
     <g id="text_13">
      <!-- 2 -->
      <g transform="translate(44.2375 101.262613) scale(0.1 -0.1)">
       <use xlink:href="#DejaVuSans-32"/>
      </g>
     </g>
    </g>
    <g id="ytick_7">
     <g id="line2d_13">
      <g>
       <use xlink:href="#mbe17e9cbdf" x="57.6" y="58.939146" style="stroke: #000000; stroke-width: 0.8"/>
      </g>
     </g>
     <g id="text_14">
      <!-- 3 -->
      <g transform="translate(44.2375 62.738365) scale(0.1 -0.1)">
       <use xlink:href="#DejaVuSans-33"/>
      </g>
     </g>
    </g>
    <g id="text_15">
     <!-- E*t -->
     <g transform="translate(29.778125 182.147531) rotate(-90) scale(0.1 -0.1)">
      <defs>
       <path id="DejaVuSans-45" d="M 628 4666 
L 3578 4666 
L 3578 4134 
L 1259 4134 
L 1259 2753 
L 3481 2753 
L 3481 2222 
L 1259 2222 
L 1259 531 
L 3634 531 
L 3634 0 
L 628 0 
L 628 4666 
z
" transform="scale(0.015625)"/>
       <path id="DejaVuSans-2a" d="M 3009 3897 
L 1888 3291 
L 3009 2681 
L 2828 2375 
L 1778 3009 
L 1778 1831 
L 1422 1831 
L 1422 3009 
L 372 2375 
L 191 2681 
L 1313 3291 
L 191 3897 
L 372 4206 
L 1422 3572 
L 1422 4750 
L 1778 4750 
L 1778 3572 
L 2828 4206 
L 3009 3897 
z
" transform="scale(0.015625)"/>
       <path id="DejaVuSans-74" d="M 1172 4494 
L 1172 3500 
L 2356 3500 
L 2356 3053 
L 1172 3053 
L 1172 1153 
Q 1172 725 1289 603 
Q 1406 481 1766 481 
L 2356 481 
L 2356 0 
L 1766 0 
Q 1100 0 847 248 
Q 594 497 594 1153 
L 594 3053 
L 172 3053 
L 172 3500 
L 594 3500 
L 594 4494 
L 1172 4494 
z
" transform="scale(0.015625)"/>
      </defs>
      <use xlink:href="#DejaVuSans-45"/>
      <use xlink:href="#DejaVuSans-2a" x="63.183594"/>
      <use xlink:href="#DejaVuSans-74" x="113.183594"/>
     </g>
    </g>
   </g>
   <g id="line2d_14">
    <path d="M 73.832727 295.488 
L 74.150083 295.017219 
L 74.467438 294.939657 
L 75.102149 294.399417 
L 75.419504 294.36384 
L 75.73686 293.908946 
L 76.054215 293.874063 
L 76.37157 293.679336 
L 76.688926 292.56072 
L 77.006281 291.992732 
L 77.640992 291.291445 
L 78.275702 291.197958 
L 78.593058 291.012722 
L 78.910413 290.651039 
L 79.227769 290.604924 
L 79.545124 290.368556 
L 79.862479 289.649997 
L 80.49719 289.573004 
L 80.814545 289.052539 
L 81.449256 288.650117 
L 82.401322 288.442796 
L 82.718678 288.364761 
L 83.036033 288.132465 
L 83.670744 288.0366 
L 84.305455 287.519117 
L 84.62281 287.440875 
L 86.209587 286.272211 
L 86.526942 284.28792 
L 87.161653 284.0642 
L 87.479008 284.036451 
L 87.796364 283.871141 
L 88.113719 283.450934 
L 88.431074 283.414752 
L 88.74843 282.960589 
L 89.700496 282.585969 
L 90.017851 281.954194 
L 90.335207 281.876137 
L 90.969917 281.17298 
L 94.143471 279.897856 
L 94.460826 279.843539 
L 94.778182 279.130288 
L 95.095537 278.090748 
L 96.364959 277.6828 
L 96.682314 277.309284 
L 96.999669 277.20537 
L 97.317025 276.625604 
L 97.63438 276.351648 
L 97.951736 275.658597 
L 98.586446 275.351566 
L 98.903802 275.31223 
L 99.221157 274.953332 
L 99.538512 274.386038 
L 100.490579 274.077142 
L 100.807934 273.469292 
L 101.125289 273.128051 
L 101.442645 273.050821 
L 101.76 272.508327 
L 103.664132 271.71212 
L 104.298843 271.356681 
L 104.616198 271.27032 
L 104.933554 270.555187 
L 106.202975 269.934746 
L 106.520331 269.33532 
L 107.155041 269.190867 
L 107.789752 268.330803 
L 108.107107 268.156067 
L 108.424463 267.717756 
L 109.059174 267.540515 
L 109.693884 267.401511 
L 110.963306 266.919268 
L 111.280661 266.613189 
L 111.915372 266.323781 
L 112.232727 265.639881 
L 112.550083 265.584695 
L 112.867438 265.372697 
L 113.502149 264.472551 
L 114.13686 263.419344 
L 116.040992 262.907318 
L 117.627769 261.643718 
L 118.262479 261.454151 
L 118.579835 260.961634 
L 120.483967 259.969478 
L 120.801322 259.730104 
L 121.436033 259.602124 
L 121.753388 259.179832 
L 122.388099 258.992871 
L 123.02281 257.8045 
L 123.340165 257.645659 
L 123.657521 257.328106 
L 124.609587 257.05596 
L 124.926942 256.317197 
L 125.561653 256.19384 
L 125.879008 255.834833 
L 126.196364 255.715923 
L 126.513719 254.910056 
L 126.831074 254.69573 
L 127.465785 253.951438 
L 127.78314 253.625865 
L 128.100496 253.065772 
L 129.052562 252.778793 
L 129.687273 252.605826 
L 130.004628 252.574401 
L 130.321983 252.239995 
L 130.639339 252.205054 
L 131.591405 251.522155 
L 131.90876 250.842556 
L 132.543471 250.279032 
L 133.178182 249.93397 
L 133.812893 249.702038 
L 134.130248 249.280118 
L 134.447603 249.247357 
L 135.717025 248.256575 
L 136.351736 248.196349 
L 136.669091 247.869233 
L 136.986446 247.815931 
L 137.938512 246.443075 
L 138.255868 245.722613 
L 138.573223 245.516497 
L 139.207934 245.398468 
L 140.16 245.053929 
L 140.794711 244.158683 
L 141.112066 244.155659 
L 141.429421 243.39046 
L 141.746777 243.334937 
L 142.064132 242.747357 
L 142.381488 242.546839 
L 143.333554 242.383988 
L 143.650909 242.223721 
L 143.968264 242.207859 
L 144.28562 241.94418 
L 144.920331 241.85415 
L 145.237686 241.4969 
L 145.555041 241.432105 
L 146.189752 240.958395 
L 146.507107 240.405 
L 146.824463 239.455833 
L 147.459174 239.068861 
L 149.04595 238.542973 
L 149.998017 237.84784 
L 150.315372 237.251447 
L 151.267438 236.551671 
L 151.902149 236.409378 
L 152.219504 235.774848 
L 152.53686 235.772356 
L 152.854215 235.548331 
L 153.17157 234.689269 
L 153.806281 234.513408 
L 154.123636 233.802484 
L 155.075702 233.571281 
L 155.393058 233.218913 
L 156.027769 232.96166 
L 156.345124 232.763138 
L 156.979835 232.632608 
L 157.29719 232.468167 
L 157.614545 231.707565 
L 157.931901 231.651814 
L 159.518678 230.360487 
L 160.470744 230.151421 
L 160.788099 229.116067 
L 162.057521 228.734902 
L 162.374876 228.468888 
L 162.692231 227.927103 
L 163.009587 227.878294 
L 163.326942 227.364346 
L 163.961653 227.162055 
L 164.596364 226.887998 
L 164.913719 226.494913 
L 165.231074 226.315921 
L 165.54843 225.477047 
L 165.865785 225.297748 
L 166.18314 225.251095 
L 166.500496 224.760908 
L 167.452562 224.481686 
L 168.087273 224.349765 
L 168.404628 223.753406 
L 168.721983 223.71494 
L 169.039339 223.526391 
L 169.356694 223.144371 
L 169.67405 222.945291 
L 169.991405 222.903297 
L 170.30876 222.348313 
L 170.626116 222.192205 
L 171.260826 221.665715 
L 172.530248 221.153084 
L 173.482314 220.970375 
L 173.799669 220.676015 
L 174.117025 220.619955 
L 174.43438 220.367878 
L 174.751736 219.85356 
L 175.069091 219.824501 
L 176.021157 219.200417 
L 176.338512 218.835084 
L 176.655868 218.775301 
L 176.973223 218.56208 
L 177.290579 217.735964 
L 178.242645 217.358391 
L 178.56 216.97035 
L 178.877355 215.893285 
L 179.194711 215.747232 
L 179.512066 215.461271 
L 179.829421 215.431288 
L 180.464132 214.956175 
L 180.781488 214.470607 
L 181.416198 214.203013 
L 182.368264 213.925602 
L 182.68562 213.395712 
L 184.272397 212.936593 
L 184.589752 212.123101 
L 185.541818 211.661525 
L 186.176529 211.204656 
L 186.493884 211.156812 
L 186.81124 210.858329 
L 187.763306 210.533742 
L 188.398017 210.166873 
L 189.984793 209.080623 
L 190.619504 207.927738 
L 191.254215 207.628462 
L 191.57157 206.939107 
L 192.840992 206.627381 
L 193.158347 206.161506 
L 194.427769 205.331172 
L 194.745124 204.887829 
L 195.062479 204.775225 
L 195.379835 204.08112 
L 195.69719 203.800031 
L 196.966612 203.571765 
L 197.918678 203.300096 
L 198.236033 202.850404 
L 199.188099 202.231415 
L 200.140165 201.371281 
L 200.457521 201.265958 
L 201.092231 200.601606 
L 202.361653 200.311008 
L 202.996364 199.854816 
L 203.313719 199.450719 
L 203.631074 198.12379 
L 203.94843 197.868939 
L 204.265785 197.455857 
L 205.217851 196.918381 
L 205.535207 196.038243 
L 206.169917 195.856092 
L 206.487273 195.710559 
L 206.804628 194.958702 
L 207.439339 194.88017 
L 207.756694 194.701596 
L 208.07405 194.349932 
L 208.70876 194.200202 
L 209.978182 193.676948 
L 210.295537 193.134765 
L 210.612893 192.825244 
L 210.930248 192.818845 
L 211.247603 192.46731 
L 211.882314 192.076868 
L 212.199669 191.731853 
L 213.151736 191.481321 
L 213.469091 190.914041 
L 213.786446 190.606376 
L 214.421157 190.47742 
L 214.738512 190.053972 
L 215.055868 190.024237 
L 215.373223 189.41471 
L 216.325289 189.160819 
L 216.96 188.577807 
L 217.277355 188.492816 
L 217.594711 188.262619 
L 217.912066 187.831867 
L 218.546777 187.627118 
L 218.864132 187.036327 
L 219.181488 186.709054 
L 219.498843 186.577541 
L 219.816198 186.013215 
L 220.768264 185.826777 
L 221.08562 185.198272 
L 221.402975 184.944784 
L 221.720331 184.888729 
L 222.037686 184.679121 
L 222.672397 183.831839 
L 222.989752 183.75812 
L 223.307107 183.46594 
L 223.624463 183.389115 
L 223.941818 183.105483 
L 225.84595 182.564356 
L 226.798017 182.130401 
L 227.115372 181.77411 
L 227.432727 181.696898 
L 227.750083 180.973435 
L 228.067438 180.930104 
L 228.702149 180.601292 
L 229.019504 180.556486 
L 229.33686 180.059168 
L 229.97157 179.854838 
L 230.288926 179.171295 
L 231.240992 178.612464 
L 231.558347 178.068578 
L 232.193058 176.705464 
L 232.510413 176.311381 
L 232.827769 176.210196 
L 233.145124 175.891252 
L 233.462479 175.823414 
L 233.779835 175.635861 
L 235.049256 175.476371 
L 235.366612 175.286532 
L 235.683967 174.749638 
L 236.001322 174.702263 
L 236.318678 174.491646 
L 237.270744 174.3067 
L 237.588099 173.475736 
L 238.540165 172.935769 
L 238.857521 172.250779 
L 239.492231 172.050646 
L 239.809587 171.84174 
L 240.126942 171.43561 
L 241.079008 170.988096 
L 241.713719 169.622358 
L 242.031074 169.55289 
L 242.34843 169.173677 
L 242.98314 169.02423 
L 243.300496 168.285068 
L 244.569917 168.064043 
L 244.887273 167.509603 
L 246.156694 166.814413 
L 246.47405 166.70269 
L 247.426116 165.317118 
L 248.378182 164.999926 
L 249.012893 164.772208 
L 249.330248 164.722573 
L 249.964959 163.05544 
L 250.599669 162.924839 
L 250.917025 162.51801 
L 251.551736 162.397621 
L 251.869091 162.0577 
L 253.455868 161.666911 
L 253.773223 161.438738 
L 254.725289 161.243359 
L 255.36 160.808185 
L 255.677355 160.512978 
L 255.994711 159.269253 
L 256.312066 158.729686 
L 256.946777 158.632528 
L 257.581488 157.991205 
L 257.898843 157.874125 
L 258.533554 157.317785 
L 259.168264 157.058215 
L 259.48562 156.29941 
L 260.437686 156.155805 
L 260.755041 156.061491 
L 261.072397 155.795693 
L 262.024463 155.575216 
L 262.341818 155.293886 
L 262.976529 155.074824 
L 264.880661 153.206111 
L 265.515372 153.087886 
L 266.467438 152.187017 
L 266.784793 152.127985 
L 267.102149 151.600612 
L 267.73686 151.208862 
L 268.37157 150.670025 
L 269.006281 150.320585 
L 269.323636 149.739827 
L 269.958347 149.279578 
L 270.910413 148.814682 
L 271.227769 148.401807 
L 271.862479 148.324779 
L 272.49719 147.462429 
L 273.131901 147.0791 
L 273.449256 146.599198 
L 273.766612 146.341231 
L 274.083967 146.290101 
L 274.401322 145.734774 
L 275.036033 145.576939 
L 275.353388 145.30156 
L 275.670744 144.822481 
L 277.574876 144.209034 
L 277.892231 143.701957 
L 278.526942 143.486162 
L 279.161653 143.073797 
L 279.479008 142.466406 
L 279.796364 142.364515 
L 280.113719 141.900742 
L 280.431074 141.838915 
L 281.065785 141.350808 
L 281.700496 141.284753 
L 282.017851 140.391109 
L 282.335207 140.209665 
L 282.652562 139.321218 
L 283.287273 139.104273 
L 283.604628 138.022087 
L 284.239339 137.409697 
L 284.87405 137.164489 
L 287.412893 136.708305 
L 287.730248 136.087209 
L 288.047603 136.070247 
L 288.682314 135.834431 
L 289.317025 135.745782 
L 289.63438 135.454928 
L 289.951736 134.893227 
L 290.586446 134.357366 
L 290.903802 133.850512 
L 291.855868 133.511508 
L 292.807934 133.295136 
L 293.442645 132.531806 
L 293.76 131.533784 
L 294.077355 130.910411 
L 294.394711 130.858683 
L 294.712066 130.517085 
L 295.029421 130.425661 
L 295.346777 129.684591 
L 296.616198 129.514814 
L 296.933554 129.016667 
L 297.250909 128.756854 
L 297.88562 128.487121 
L 298.837686 126.9494 
L 299.155041 126.673398 
L 301.059174 126.088855 
L 301.376529 125.388442 
L 301.693884 125.363642 
L 302.01124 124.469205 
L 302.328595 124.434244 
L 303.280661 123.914516 
L 303.915372 123.384854 
L 304.867438 123.202773 
L 305.502149 122.820895 
L 305.819504 122.808232 
L 306.454215 122.624392 
L 306.77157 122.573546 
L 307.406281 121.925087 
L 308.358347 120.155205 
L 308.675702 119.943283 
L 308.993058 119.366598 
L 309.945124 119.012323 
L 310.262479 118.465617 
L 310.579835 118.375582 
L 310.89719 117.73744 
L 311.531901 117.531347 
L 312.166612 117.016501 
L 312.801322 116.886047 
L 313.436033 116.710732 
L 314.070744 116.089131 
L 314.388099 115.873321 
L 314.705455 115.14962 
L 315.02281 114.74593 
L 315.340165 114.670366 
L 315.657521 114.317368 
L 315.974876 114.131329 
L 316.609587 113.543818 
L 317.244298 113.072858 
L 318.196364 112.461049 
L 318.513719 112.406135 
L 320.100496 110.876903 
L 320.417851 110.862217 
L 320.735207 110.638855 
L 321.369917 110.501066 
L 321.687273 110.086886 
L 323.27405 108.985049 
L 323.90876 108.115747 
L 324.226116 108.091263 
L 324.543471 107.838326 
L 324.860826 107.811134 
L 325.495537 107.184053 
L 326.130248 106.881365 
L 326.447603 106.254276 
L 327.082314 106.13739 
L 327.399669 105.742261 
L 327.717025 105.712345 
L 328.03438 105.517839 
L 328.351736 105.457931 
L 328.669091 105.176771 
L 329.303802 105.026886 
L 329.621157 104.779965 
L 330.255868 104.649018 
L 330.573223 104.460765 
L 331.207934 103.818472 
L 331.525289 103.690058 
L 331.842645 103.231012 
L 332.794711 102.860132 
L 333.429421 102.646766 
L 333.746777 101.791112 
L 334.381488 101.683361 
L 334.698843 100.782348 
L 335.333554 100.336414 
L 335.650909 100.195827 
L 335.968264 99.414773 
L 336.602975 98.741627 
L 337.237686 98.473832 
L 337.872397 98.300472 
L 338.507107 98.178505 
L 339.459174 97.937178 
L 339.776529 97.289252 
L 340.41124 97.203426 
L 341.680661 96.402009 
L 341.998017 95.816661 
L 343.584793 94.899996 
L 343.902149 94.725568 
L 344.53686 92.80013 
L 346.440992 91.61595 
L 346.758347 91.170667 
L 347.393058 91.06234 
L 347.710413 90.941506 
L 348.027769 90.366714 
L 348.979835 90.069883 
L 349.29719 89.797664 
L 350.249256 88.199457 
L 350.566612 87.876737 
L 352.153388 87.475478 
L 352.470744 87.296549 
L 353.105455 86.357878 
L 354.057521 85.23705 
L 356.596364 84.287413 
L 357.231074 84.003138 
L 357.865785 83.882917 
L 358.18314 83.755027 
L 358.500496 83.473174 
L 358.817851 83.460323 
L 359.135207 83.328447 
L 359.452562 82.788836 
L 359.769917 81.420279 
L 360.087273 80.73426 
L 361.356694 80.16764 
L 361.991405 79.559738 
L 362.30876 79.304889 
L 362.626116 79.274943 
L 363.260826 78.981506 
L 363.578182 78.888958 
L 363.895537 78.462525 
L 364.212893 78.403562 
L 364.530248 78.03794 
L 364.847603 77.972625 
L 365.799669 77.355739 
L 366.117025 77.331562 
L 367.386446 76.294997 
L 367.703802 76.283146 
L 368.021157 76.092984 
L 368.338512 75.64186 
L 368.655868 75.395824 
L 368.973223 74.871883 
L 369.925289 74.328928 
L 370.242645 74.280535 
L 370.56 73.876261 
L 370.877355 73.805603 
L 371.829421 72.88956 
L 372.146777 72.285501 
L 372.464132 72.082539 
L 373.416198 71.902677 
L 375.955041 69.957056 
L 376.272397 69.547835 
L 376.907107 69.183595 
L 377.224463 68.837465 
L 378.176529 68.572149 
L 378.81124 68.136796 
L 379.128595 68.128876 
L 379.44595 67.169128 
L 379.763306 66.847765 
L 380.080661 66.796878 
L 380.398017 66.465043 
L 380.715372 65.933957 
L 381.350083 65.848053 
L 381.667438 65.347805 
L 381.984793 65.343883 
L 382.302149 64.885945 
L 384.523636 63.248388 
L 384.840992 63.067422 
L 385.475702 62.147496 
L 386.110413 61.471264 
L 386.745124 60.371383 
L 387.062479 60.362866 
L 387.379835 60.230945 
L 387.69719 59.81628 
L 390.236033 59.33425 
L 390.870744 58.918085 
L 391.188099 58.390606 
L 392.140165 58.006417 
L 392.457521 57.996622 
L 392.774876 57.376121 
L 393.409587 57.206409 
L 394.044298 56.840121 
L 394.361653 56.822318 
L 394.679008 56.335639 
L 395.313719 56.225772 
L 395.631074 55.809524 
L 396.265785 55.649032 
L 396.58314 55.114375 
L 396.900496 55.078176 
L 397.217851 54.426427 
L 397.535207 54.301526 
L 397.852562 53.813154 
L 398.487273 53.568 
L 398.487273 53.568 
" clip-path="url(#p307a00468e)" style="fill: none; stroke: #1f77b4; stroke-width: 1.5; stroke-linecap: square"/>
   </g>
   <g id="line2d_15">
    <path d="M 73.832727 295.037625 
L 74.150083 294.774722 
L 74.467438 294.16186 
L 75.102149 294.031114 
L 75.419504 294.03111 
L 75.73686 293.701718 
L 76.054215 293.623509 
L 76.37157 293.056228 
L 77.323636 292.778061 
L 77.640992 292.743482 
L 78.910413 291.273614 
L 79.227769 291.219737 
L 79.545124 290.890018 
L 81.131901 290.502081 
L 81.449256 290.160731 
L 82.083967 290.075897 
L 82.401322 289.613696 
L 82.718678 289.524358 
L 83.036033 289.100814 
L 83.353388 287.817487 
L 83.670744 287.698902 
L 83.988099 286.977507 
L 84.305455 286.61093 
L 85.257521 286.507537 
L 85.892231 286.158377 
L 86.526942 284.98243 
L 86.844298 284.982427 
L 87.161653 284.859057 
L 87.479008 284.38046 
L 88.113719 284.258695 
L 88.74843 283.869108 
L 89.065785 283.30232 
L 89.700496 283.053165 
L 90.335207 282.926447 
L 90.969917 282.745561 
L 91.921983 281.795607 
L 92.239339 281.283583 
L 93.826116 279.939441 
L 94.460826 279.552107 
L 94.778182 279.438113 
L 95.412893 277.726887 
L 95.730248 277.698775 
L 97.63438 276.722433 
L 97.951736 276.11012 
L 98.269091 276.029892 
L 98.903802 274.80863 
L 99.221157 274.507967 
L 100.490579 274.384636 
L 100.807934 274.093149 
L 101.76 273.868638 
L 102.077355 273.552057 
L 102.394711 273.482314 
L 102.712066 273.269434 
L 103.029421 273.208212 
L 104.616198 271.83025 
L 105.568264 270.783691 
L 105.88562 270.545501 
L 106.837686 270.340953 
L 107.155041 270.340948 
L 108.107107 269.218316 
L 108.424463 269.196624 
L 108.741818 268.692287 
L 109.376529 268.406653 
L 110.01124 268.169334 
L 110.64595 266.979797 
L 110.963306 266.588758 
L 111.598017 266.386263 
L 111.915372 266.327632 
L 112.232727 265.609175 
L 112.867438 265.588877 
L 113.819504 264.502088 
L 115.406281 264.045137 
L 115.723636 263.77284 
L 116.675702 263.516728 
L 117.310413 263.269193 
L 118.262479 262.906996 
L 119.531901 261.127896 
L 119.849256 261.033388 
L 120.166612 260.442684 
L 120.801322 260.095096 
L 121.118678 260.073753 
L 121.436033 259.353659 
L 122.070744 259.294408 
L 122.388099 258.566951 
L 122.705455 258.288487 
L 123.02281 258.275725 
L 123.340165 257.97857 
L 123.657521 257.969563 
L 124.292231 256.705985 
L 124.926942 256.443068 
L 125.244298 255.830238 
L 125.879008 255.699492 
L 126.196364 255.699488 
L 126.513719 255.424273 
L 127.14843 255.291883 
L 127.465785 255.119873 
L 127.78314 254.724614 
L 128.100496 254.539932 
L 128.417851 254.523521 
L 128.735207 254.034553 
L 129.052562 253.785478 
L 129.369917 253.71778 
L 129.687273 253.117928 
L 130.004628 252.941992 
L 130.321983 252.473883 
L 131.591405 252.170462 
L 131.90876 251.829138 
L 133.178182 251.401157 
L 133.812893 251.192731 
L 134.130248 249.367245 
L 135.082314 248.279305 
L 136.03438 248.220723 
L 136.351736 248.029949 
L 136.669091 248.000196 
L 137.303802 247.756493 
L 137.938512 246.650797 
L 138.255868 246.650795 
L 138.573223 246.527438 
L 138.890579 246.013465 
L 139.207934 245.738875 
L 139.842645 245.537463 
L 140.16 244.970685 
L 140.794711 244.72155 
L 141.429421 244.561503 
L 142.064132 244.413935 
L 142.698843 243.765008 
L 143.650909 243.463981 
L 143.968264 242.880983 
L 144.920331 242.107223 
L 145.237686 241.772834 
L 145.555041 241.763102 
L 146.824463 241.106487 
L 147.141818 240.842979 
L 147.776529 239.395271 
L 148.093884 239.367188 
L 149.363306 238.759239 
L 149.680661 238.739117 
L 149.998017 238.390824 
L 150.315372 237.778509 
L 150.632727 237.698281 
L 150.950083 236.476979 
L 151.267438 236.176328 
L 152.53686 236.053015 
L 152.854215 235.761519 
L 153.806281 235.547188 
L 154.123636 235.220421 
L 154.440992 235.150692 
L 154.758347 234.937815 
L 155.075702 234.876584 
L 156.027769 234.056053 
L 156.345124 233.534174 
L 156.662479 233.498629 
L 157.29719 232.661737 
L 157.614545 232.600366 
L 157.931901 232.130987 
L 158.249256 232.009326 
L 158.566612 232.009324 
L 158.883967 231.18538 
L 159.201322 230.886691 
L 159.518678 230.865006 
L 159.836033 230.360664 
L 160.470744 230.075029 
L 161.42281 229.697944 
L 161.740165 229.496183 
L 162.057521 228.648138 
L 162.374876 228.257133 
L 163.644298 227.94471 
L 163.961653 227.277552 
L 164.596364 227.257254 
L 164.913719 226.856234 
L 165.54843 226.619229 
L 165.865785 226.170454 
L 166.817851 225.894192 
L 167.135207 225.441208 
L 168.087273 225.185097 
L 168.721983 224.937573 
L 169.67405 224.575387 
L 170.30876 223.827086 
L 170.943471 223.648496 
L 171.578182 222.796281 
L 172.530248 222.6741 
L 172.847603 222.111064 
L 173.164959 221.932999 
L 173.799669 221.022027 
L 174.43438 220.96279 
L 174.751736 219.956859 
L 175.069091 219.944095 
L 175.386446 219.646938 
L 176.021157 218.374346 
L 176.655868 218.236905 
L 177.607934 217.367871 
L 177.925289 217.367867 
L 178.242645 217.092638 
L 179.194711 216.960255 
L 179.512066 216.522116 
L 180.781488 216.191896 
L 181.098843 215.70294 
L 181.416198 215.694988 
L 181.733554 215.453866 
L 182.050909 215.386151 
L 182.368264 214.786306 
L 182.68562 214.61037 
L 183.002975 214.058562 
L 183.637686 213.838845 
L 183.955041 213.497541 
L 184.589752 213.375068 
L 184.907107 213.36974 
L 185.224463 213.147455 
L 186.176529 212.861108 
L 186.493884 212.097029 
L 186.81124 212.018383 
L 187.128595 211.035589 
L 187.44595 210.698619 
L 187.763306 209.947682 
L 188.080661 209.906747 
L 188.398017 209.698306 
L 188.715372 209.673823 
L 189.667438 209.324183 
L 189.984793 208.877382 
L 190.302149 208.821572 
L 190.619504 208.319165 
L 190.93686 208.319164 
L 191.254215 208.195817 
L 191.57157 207.681842 
L 191.888926 207.407261 
L 192.523636 207.288106 
L 192.840992 206.471057 
L 193.158347 206.309209 
L 194.745124 206.082311 
L 195.379835 205.433377 
L 196.014545 205.302619 
L 196.331901 205.302615 
L 196.649256 205.132356 
L 196.966612 204.549403 
L 197.283967 204.537458 
L 197.918678 204.198366 
L 198.553388 203.911807 
L 199.188099 202.888864 
L 199.505455 202.77486 
L 199.82281 202.092483 
L 200.457521 201.843216 
L 200.774876 200.61375 
L 201.726942 200.407498 
L 202.679008 199.446897 
L 202.996364 198.145331 
L 203.313719 197.844699 
L 204.58314 197.721392 
L 204.900496 197.42989 
L 206.169917 197.215577 
L 206.487273 196.888786 
L 206.804628 196.819072 
L 207.121983 196.606194 
L 207.439339 196.544959 
L 208.391405 195.724409 
L 208.70876 195.202533 
L 209.026116 195.16701 
L 209.343471 194.662177 
L 209.660826 194.405894 
L 210.295537 194.268752 
L 210.612893 193.677701 
L 210.930248 193.6777 
L 211.564959 193.294199 
L 212.199669 192.555068 
L 212.517025 192.53339 
L 212.83438 192.274726 
L 213.151736 191.743405 
L 215.055868 190.316482 
L 215.373223 189.925507 
L 216.642645 189.613096 
L 216.96 189.052113 
L 217.594711 188.925631 
L 217.912066 188.524596 
L 218.229421 188.342233 
L 218.546777 187.838823 
L 219.498843 187.562569 
L 219.816198 187.035527 
L 220.450909 186.853469 
L 221.08562 186.454547 
L 221.402975 186.379217 
L 221.720331 186.125508 
L 222.037686 185.495479 
L 222.672397 185.316837 
L 222.989752 184.922054 
L 223.307107 184.875372 
L 223.624463 184.504591 
L 224.259174 184.342494 
L 224.576529 184.219938 
L 224.893884 183.779441 
L 225.528595 183.381178 
L 225.84595 182.690397 
L 226.163306 182.631171 
L 226.480661 182.271604 
L 226.798017 182.214602 
L 227.115372 181.62523 
L 227.750083 181.612466 
L 228.384793 181.315307 
L 229.019504 179.905255 
L 229.97157 179.036249 
L 230.288926 179.036247 
L 230.606281 178.761005 
L 231.558347 178.492181 
L 232.193058 177.876638 
L 232.510413 177.86027 
L 234.414545 177.054524 
L 235.049256 175.726938 
L 235.366612 175.691039 
L 235.683967 175.507229 
L 236.001322 175.081047 
L 236.636033 175.038115 
L 236.953388 174.81586 
L 237.588099 174.618835 
L 237.905455 173.765408 
L 238.22281 173.686744 
L 238.540165 172.703934 
L 238.857521 172.366975 
L 239.174876 171.616061 
L 239.492231 171.575116 
L 239.809587 171.366664 
L 240.444298 171.342206 
L 241.396364 170.992567 
L 241.713719 170.545732 
L 242.031074 170.489954 
L 242.34843 169.987534 
L 242.665785 169.987534 
L 242.98314 169.761776 
L 243.300496 169.241063 
L 243.617851 169.075644 
L 243.935207 168.085862 
L 244.887273 167.866159 
L 245.521983 167.750688 
L 245.839339 167.101747 
L 246.47405 166.970992 
L 246.791405 166.970992 
L 247.10876 166.800731 
L 247.426116 166.217816 
L 247.743471 166.205801 
L 248.378182 165.866723 
L 249.012893 165.580168 
L 249.330248 164.989321 
L 249.647603 164.944559 
L 250.599669 164.443232 
L 250.917025 164.365875 
L 251.23438 163.760856 
L 252.503802 163.020561 
L 253.138512 162.282122 
L 253.455868 162.095945 
L 253.773223 162.075881 
L 254.090579 161.727599 
L 254.407934 161.178702 
L 254.725289 161.115287 
L 255.042645 159.945579 
L 255.677355 159.813685 
L 255.994711 159.492255 
L 256.946777 159.389767 
L 257.264132 159.098262 
L 258.216198 158.883965 
L 258.533554 158.557152 
L 258.850909 158.473627 
L 259.168264 158.27457 
L 259.48562 158.213336 
L 259.802975 157.922339 
L 260.755041 156.33056 
L 262.341818 155.93714 
L 262.659174 155.346077 
L 263.293884 155.324281 
L 263.61124 155.172819 
L 263.928595 154.223447 
L 264.24595 154.201774 
L 264.563306 153.943076 
L 264.880661 153.924206 
L 265.198017 153.561255 
L 265.515372 153.41178 
L 265.832727 153.034661 
L 266.150083 152.832895 
L 266.784793 152.215368 
L 267.102149 151.984827 
L 267.419504 151.527371 
L 267.73686 151.5079 
L 269.006281 150.666758 
L 269.958347 150.479986 
L 270.593058 150.01061 
L 270.910413 149.230946 
L 271.227769 149.049969 
L 271.545124 148.703917 
L 272.179835 148.521843 
L 272.49719 148.122913 
L 273.131901 148.047594 
L 273.449256 147.793894 
L 273.766612 147.342173 
L 274.401322 147.07018 
L 274.718678 146.985185 
L 275.353388 146.172935 
L 275.670744 146.148118 
L 276.305455 145.888321 
L 276.62281 145.269747 
L 277.257521 144.808886 
L 277.892231 143.939997 
L 278.209587 143.882973 
L 278.526942 143.293601 
L 279.161653 143.280838 
L 279.479008 142.983678 
L 279.796364 141.632156 
L 281.065785 140.704629 
L 281.38314 140.429373 
L 282.335207 140.160567 
L 282.969917 139.544995 
L 283.287273 139.528645 
L 284.239339 139.13777 
L 284.87405 139.031706 
L 285.50876 138.549052 
L 285.826116 138.533447 
L 286.460826 137.395312 
L 286.778182 137.359399 
L 287.095537 136.749431 
L 288.364959 136.551097 
L 288.999669 136.406305 
L 289.317025 136.089262 
L 289.63438 136.080501 
L 289.951736 135.433785 
L 290.586446 135.257672 
L 290.903802 134.035332 
L 291.221157 133.973295 
L 291.538512 133.243487 
L 291.855868 133.035023 
L 292.490579 133.010587 
L 293.125289 132.660948 
L 293.442645 132.262932 
L 294.077355 132.158337 
L 294.394711 131.655906 
L 294.712066 131.655904 
L 295.029421 131.100742 
L 295.346777 130.909444 
L 295.664132 129.754213 
L 296.933554 129.419067 
L 297.250909 128.770119 
L 297.568264 128.639369 
L 297.88562 128.639367 
L 298.520331 128.231766 
L 299.155041 127.535085 
L 299.789752 127.351829 
L 300.107107 127.248532 
L 300.424463 126.657686 
L 300.741818 126.612931 
L 301.693884 126.111604 
L 302.01124 126.057815 
L 302.328595 125.827988 
L 302.64595 125.429228 
L 302.963306 125.265693 
L 303.598017 124.688934 
L 303.915372 124.684145 
L 304.232727 124.221944 
L 304.867438 123.950495 
L 305.184793 123.764303 
L 305.502149 123.709042 
L 305.819504 123.395984 
L 306.454215 121.585771 
L 306.77157 121.160626 
L 307.088926 121.115782 
L 307.406281 120.766636 
L 308.358347 120.552351 
L 308.675702 120.22552 
L 308.993058 120.14199 
L 309.310413 119.942945 
L 309.627769 119.59071 
L 309.945124 119.590704 
L 310.262479 119.467299 
L 310.579835 118.988767 
L 310.89719 118.953335 
L 311.214545 117.910606 
L 311.849256 117.666843 
L 312.483967 117.534723 
L 312.801322 117.014454 
L 313.118678 116.99267 
L 313.436033 116.841175 
L 313.753388 116.21856 
L 314.070744 115.891827 
L 314.388099 115.870161 
L 314.705455 115.611436 
L 315.02281 115.59257 
L 315.340165 115.229564 
L 315.657521 115.080154 
L 315.974876 114.703022 
L 316.926942 114.160365 
L 319.14843 112.335135 
L 319.78314 112.148352 
L 320.100496 111.861332 
L 320.735207 111.678988 
L 321.052562 111.478337 
L 321.369917 110.899324 
L 321.687273 110.718356 
L 322.321983 109.999196 
L 322.639339 109.791282 
L 323.27405 109.715982 
L 323.591405 109.462276 
L 323.90876 109.010549 
L 324.543471 108.738556 
L 325.178182 108.630375 
L 325.495537 108.090576 
L 325.812893 107.841286 
L 326.130248 107.816484 
L 328.03438 106.717926 
L 329.303802 105.608388 
L 329.621157 105.551345 
L 329.938512 105.153843 
L 330.255868 104.961971 
L 330.890579 104.949211 
L 331.207934 104.65205 
L 331.525289 103.804875 
L 331.842645 103.468037 
L 333.112066 102.696072 
L 333.429421 102.097743 
L 334.064132 101.828949 
L 334.381488 101.19702 
L 335.333554 100.80616 
L 335.650909 100.799498 
L 336.28562 100.21743 
L 336.920331 100.197135 
L 337.555041 99.110373 
L 338.507107 98.911342 
L 339.459174 98.21946 
L 340.728595 97.748892 
L 341.04595 97.102162 
L 341.363306 96.926027 
L 341.680661 95.703692 
L 341.998017 95.641658 
L 342.315372 95.050929 
L 342.632727 94.703383 
L 343.267438 94.678967 
L 343.902149 94.378672 
L 344.219504 93.928438 
L 344.53686 93.826721 
L 344.854215 93.324278 
L 345.17157 93.324276 
L 345.488926 93.175266 
L 346.123636 92.577823 
L 346.440992 91.422568 
L 347.710413 91.051395 
L 348.027769 90.438494 
L 348.662479 90.307746 
L 348.979835 90.307743 
L 349.29719 90.137483 
L 349.614545 90.133138 
L 349.931901 89.900143 
L 350.249256 89.203451 
L 350.883967 89.020158 
L 351.201322 88.326053 
L 351.836033 87.855393 
L 353.105455 87.496369 
L 353.42281 87.0976 
L 355.326942 86.352526 
L 355.644298 85.890326 
L 355.961653 85.800998 
L 356.279008 85.432664 
L 356.596364 85.377435 
L 356.913719 84.094113 
L 357.231074 83.97557 
L 357.54843 83.254143 
L 357.865785 82.887568 
L 358.817851 82.608425 
L 359.452562 82.220734 
L 359.769917 81.893889 
L 360.404628 81.658812 
L 360.721983 81.259074 
L 361.039339 81.25907 
L 361.356694 81.135684 
L 361.67405 80.657116 
L 361.991405 80.621716 
L 362.626116 79.578967 
L 363.260826 79.335218 
L 363.895537 79.27392 
L 364.847603 79.022198 
L 366.751736 76.897874 
L 369.290579 75.714749 
L 369.607934 74.864144 
L 369.925289 74.844655 
L 370.242645 74.680425 
L 370.877355 74.061214 
L 371.829421 73.81672 
L 372.146777 73.489042 
L 372.781488 73.146724 
L 373.098843 72.567702 
L 374.050909 71.953022 
L 375.320331 70.753791 
L 376.589752 70.369791 
L 376.907107 69.758949 
L 378.176529 68.7925 
L 379.128595 68.106884 
L 379.763306 67.219718 
L 380.080661 66.822174 
L 381.032727 66.617584 
L 381.350083 66.320424 
L 381.667438 65.473254 
L 381.984793 64.968918 
L 382.619504 64.767237 
L 383.254215 64.577511 
L 383.57157 64.364435 
L 383.888926 63.766115 
L 384.206281 63.686831 
L 384.523636 62.865394 
L 385.158347 62.662878 
L 385.793058 62.467851 
L 386.110413 61.885808 
L 387.062479 61.849339 
L 387.379835 61.283894 
L 387.69719 61.227446 
L 388.014545 60.778734 
L 389.601322 60.321774 
L 389.918678 60.049484 
L 392.457521 59.417278 
L 392.774876 59.183627 
L 393.092231 58.770537 
L 393.409587 58.594387 
L 394.044298 57.310026 
L 394.361653 56.719313 
L 394.996364 56.371744 
L 395.631074 56.347345 
L 395.94843 55.596824 
L 396.265785 55.495108 
L 396.58314 55.024361 
L 396.900496 54.992649 
L 397.217851 54.843612 
L 397.535207 54.565125 
L 397.852562 54.552366 
L 398.169917 54.255214 
L 398.487273 54.246199 
L 398.487273 54.246199 
" clip-path="url(#p307a00468e)" style="fill: none; stroke: #ff7f0e; stroke-width: 1.5; stroke-linecap: square"/>
   </g>
   <g id="patch_3">
    <path d="M 57.6 307.584 
L 57.6 41.472 
" style="fill: none; stroke: #000000; stroke-width: 0.8; stroke-linejoin: miter; stroke-linecap: square"/>
   </g>
   <g id="patch_4">
    <path d="M 414.72 307.584 
L 414.72 41.472 
" style="fill: none; stroke: #000000; stroke-width: 0.8; stroke-linejoin: miter; stroke-linecap: square"/>
   </g>
   <g id="patch_5">
    <path d="M 57.6 307.584 
L 414.72 307.584 
" style="fill: none; stroke: #000000; stroke-width: 0.8; stroke-linejoin: miter; stroke-linecap: square"/>
   </g>
   <g id="patch_6">
    <path d="M 57.6 41.472 
L 414.72 41.472 
" style="fill: none; stroke: #000000; stroke-width: 0.8; stroke-linejoin: miter; stroke-linecap: square"/>
   </g>
   <g id="legend_1">
    <g id="patch_7">
     <path d="M 64.6 78.82825 
L 129.342187 78.82825 
Q 131.342187 78.82825 131.342187 76.82825 
L 131.342187 48.472 
Q 131.342187 46.472 129.342187 46.472 
L 64.6 46.472 
Q 62.6 46.472 62.6 48.472 
L 62.6 76.82825 
Q 62.6 78.82825 64.6 78.82825 
z
" style="fill: #ffffff; opacity: 0.8; stroke: #cccccc; stroke-linejoin: miter"/>
    </g>
    <g id="line2d_16">
     <path d="M 66.6 54.570437 
L 76.6 54.570437 
L 86.6 54.570437 
" style="fill: none; stroke: #1f77b4; stroke-width: 1.5; stroke-linecap: square"/>
    </g>
    <g id="text_16">
     <!-- qc -->
     <g transform="translate(94.6 58.070437) scale(0.1 -0.1)">
      <defs>
       <path id="DejaVuSans-71" d="M 947 1747 
Q 947 1113 1208 752 
Q 1469 391 1925 391 
Q 2381 391 2643 752 
Q 2906 1113 2906 1747 
Q 2906 2381 2643 2742 
Q 2381 3103 1925 3103 
Q 1469 3103 1208 2742 
Q 947 2381 947 1747 
z
M 2906 525 
Q 2725 213 2448 61 
Q 2172 -91 1784 -91 
Q 1150 -91 751 415 
Q 353 922 353 1747 
Q 353 2572 751 3078 
Q 1150 3584 1784 3584 
Q 2172 3584 2448 3432 
Q 2725 3281 2906 2969 
L 2906 3500 
L 3481 3500 
L 3481 -1331 
L 2906 -1331 
L 2906 525 
z
" transform="scale(0.015625)"/>
       <path id="DejaVuSans-63" d="M 3122 3366 
L 3122 2828 
Q 2878 2963 2633 3030 
Q 2388 3097 2138 3097 
Q 1578 3097 1268 2742 
Q 959 2388 959 1747 
Q 959 1106 1268 751 
Q 1578 397 2138 397 
Q 2388 397 2633 464 
Q 2878 531 3122 666 
L 3122 134 
Q 2881 22 2623 -34 
Q 2366 -91 2075 -91 
Q 1284 -91 818 406 
Q 353 903 353 1747 
Q 353 2603 823 3093 
Q 1294 3584 2113 3584 
Q 2378 3584 2631 3529 
Q 2884 3475 3122 3366 
z
" transform="scale(0.015625)"/>
      </defs>
      <use xlink:href="#DejaVuSans-71"/>
      <use xlink:href="#DejaVuSans-63" x="63.476562"/>
     </g>
    </g>
    <g id="line2d_17">
     <path d="M 66.6 69.248562 
L 76.6 69.248562 
L 86.6 69.248562 
" style="fill: none; stroke: #ff7f0e; stroke-width: 1.5; stroke-linecap: square"/>
    </g>
    <g id="text_17">
     <!-- Trotter -->
     <g transform="translate(94.6 72.748562) scale(0.1 -0.1)">
      <defs>
       <path id="DejaVuSans-54" d="M -19 4666 
L 3928 4666 
L 3928 4134 
L 2272 4134 
L 2272 0 
L 1638 0 
L 1638 4134 
L -19 4134 
L -19 4666 
z
" transform="scale(0.015625)"/>
       <path id="DejaVuSans-72" d="M 2631 2963 
Q 2534 3019 2420 3045 
Q 2306 3072 2169 3072 
Q 1681 3072 1420 2755 
Q 1159 2438 1159 1844 
L 1159 0 
L 581 0 
L 581 3500 
L 1159 3500 
L 1159 2956 
Q 1341 3275 1631 3429 
Q 1922 3584 2338 3584 
Q 2397 3584 2469 3576 
Q 2541 3569 2628 3553 
L 2631 2963 
z
" transform="scale(0.015625)"/>
       <path id="DejaVuSans-6f" d="M 1959 3097 
Q 1497 3097 1228 2736 
Q 959 2375 959 1747 
Q 959 1119 1226 758 
Q 1494 397 1959 397 
Q 2419 397 2687 759 
Q 2956 1122 2956 1747 
Q 2956 2369 2687 2733 
Q 2419 3097 1959 3097 
z
M 1959 3584 
Q 2709 3584 3137 3096 
Q 3566 2609 3566 1747 
Q 3566 888 3137 398 
Q 2709 -91 1959 -91 
Q 1206 -91 779 398 
Q 353 888 353 1747 
Q 353 2609 779 3096 
Q 1206 3584 1959 3584 
z
" transform="scale(0.015625)"/>
       <path id="DejaVuSans-65" d="M 3597 1894 
L 3597 1613 
L 953 1613 
Q 991 1019 1311 708 
Q 1631 397 2203 397 
Q 2534 397 2845 478 
Q 3156 559 3463 722 
L 3463 178 
Q 3153 47 2828 -22 
Q 2503 -91 2169 -91 
Q 1331 -91 842 396 
Q 353 884 353 1716 
Q 353 2575 817 3079 
Q 1281 3584 2069 3584 
Q 2775 3584 3186 3129 
Q 3597 2675 3597 1894 
z
M 3022 2063 
Q 3016 2534 2758 2815 
Q 2500 3097 2075 3097 
Q 1594 3097 1305 2825 
Q 1016 2553 972 2059 
L 3022 2063 
z
" transform="scale(0.015625)"/>
      </defs>
      <use xlink:href="#DejaVuSans-54"/>
      <use xlink:href="#DejaVuSans-72" x="46.333984"/>
      <use xlink:href="#DejaVuSans-6f" x="85.197266"/>
      <use xlink:href="#DejaVuSans-74" x="146.378906"/>
      <use xlink:href="#DejaVuSans-74" x="185.587891"/>
      <use xlink:href="#DejaVuSans-65" x="224.796875"/>
      <use xlink:href="#DejaVuSans-72" x="286.320312"/>
     </g>
    </g>
   </g>
  </g>
 </g>
 <defs>
  <clipPath id="p307a00468e">
   <rect x="57.6" y="41.472" width="357.12" height="266.112"/>
  </clipPath>
 </defs>
</svg>
