<?xml version="1.0" encoding="utf-8" standalone="no"?>
<!DOCTYPE svg PUBLIC "-//W3C//DTD SVG 1.1//EN"
  "http://www.w3.org/Graphics/SVG/1.1/DTD/svg11.dtd">
<svg xmlns:xlink="http://www.w3.org/1999/xlink" width="460.8pt" height="345.6pt" viewBox="0 0 460.8 345.6" xmlns="http://www.w3.org/2000/svg" version="1.1">
 <metadata>
  <rdf:RDF xmlns:dc="http://purl.org/dc/elements/1.1/" xmlns:cc="http://creativecommons.org/ns#" xmlns:rdf="http://www.w3.org/1999/02/22-rdf-syntax-ns#">
   <cc:Work>
    <dc:type rdf:resource="http://purl.org/dc/dcmitype/StillImage"/>
    <dc:date>2024-08-17T15:07:00.596366</dc:date>
    <dc:format>image/svg+xml</dc:format>
    <dc:creator>
     <cc:Agent>
      <dc:title>Matplotlib v3.7.1, https://matplotlib.org/</dc:title>
     </cc:Agent>
    </dc:creator>
   </cc:Work>
  </rdf:RDF>
 </metadata>
 <defs>
  <style type="text/css">*{stroke-linejoin: round; stroke-linecap: butt}</style>
 </defs>
 <g id="figure_1">
  <g id="patch_1">
   <path d="M 0 345.6 
L 460.8 345.6 
L 460.8 0 
L 0 0 
z
" style="fill: #ffffff"/>
  </g>
  <g id="axes_1">
   <g id="patch_2">
    <path d="M 57.6 307.584 
L 414.72 307.584 
L 414.72 41.472 
L 57.6 41.472 
z
" style="fill: #ffffff"/>
   </g>
   <g id="matplotlib.axis_1">
    <g id="xtick_1">
     <g id="line2d_1">
      <defs>
       <path id="m9b53246868" d="M 0 0 
L 0 3.5 
" style="stroke: #000000; stroke-width: 0.8"/>
      </defs>
      <g>
       <use xlink:href="#m9b53246868" x="73.832727" y="307.584" style="stroke: #000000; stroke-width: 0.8"/>
      </g>
     </g>
     <g id="text_1">
      <!-- 0 -->
      <g transform="translate(70.651477 322.182437) scale(0.1 -0.1)">
       <defs>
        <path id="DejaVuSans-30" d="M 2034 4250 
Q 1547 4250 1301 3770 
Q 1056 3291 1056 2328 
Q 1056 1369 1301 889 
Q 1547 409 2034 409 
Q 2525 409 2770 889 
Q 3016 1369 3016 2328 
Q 3016 3291 2770 3770 
Q 2525 4250 2034 4250 
z
M 2034 4750 
Q 2819 4750 3233 4129 
Q 3647 3509 3647 2328 
Q 3647 1150 3233 529 
Q 2819 -91 2034 -91 
Q 1250 -91 836 529 
Q 422 1150 422 2328 
Q 422 3509 836 4129 
Q 1250 4750 2034 4750 
z
" transform="scale(0.015625)"/>
       </defs>
       <use xlink:href="#DejaVuSans-30"/>
      </g>
     </g>
    </g>
    <g id="xtick_2">
     <g id="line2d_2">
      <g>
       <use xlink:href="#m9b53246868" x="137.303802" y="307.584" style="stroke: #000000; stroke-width: 0.8"/>
      </g>
     </g>
     <g id="text_2">
      <!-- 200 -->
      <g transform="translate(127.760052 322.182437) scale(0.1 -0.1)">
       <defs>
        <path id="DejaVuSans-32" d="M 1228 531 
L 3431 531 
L 3431 0 
L 469 0 
L 469 531 
Q 828 903 1448 1529 
Q 2069 2156 2228 2338 
Q 2531 2678 2651 2914 
Q 2772 3150 2772 3378 
Q 2772 3750 2511 3984 
Q 2250 4219 1831 4219 
Q 1534 4219 1204 4116 
Q 875 4013 500 3803 
L 500 4441 
Q 881 4594 1212 4672 
Q 1544 4750 1819 4750 
Q 2544 4750 2975 4387 
Q 3406 4025 3406 3419 
Q 3406 3131 3298 2873 
Q 3191 2616 2906 2266 
Q 2828 2175 2409 1742 
Q 1991 1309 1228 531 
z
" transform="scale(0.015625)"/>
       </defs>
       <use xlink:href="#DejaVuSans-32"/>
       <use xlink:href="#DejaVuSans-30" x="63.623047"/>
       <use xlink:href="#DejaVuSans-30" x="127.246094"/>
      </g>
     </g>
    </g>
    <g id="xtick_3">
     <g id="line2d_3">
      <g>
       <use xlink:href="#m9b53246868" x="200.774876" y="307.584" style="stroke: #000000; stroke-width: 0.8"/>
      </g>
     </g>
     <g id="text_3">
      <!-- 400 -->
      <g transform="translate(191.231126 322.182437) scale(0.1 -0.1)">
       <defs>
        <path id="DejaVuSans-34" d="M 2419 4116 
L 825 1625 
L 2419 1625 
L 2419 4116 
z
M 2253 4666 
L 3047 4666 
L 3047 1625 
L 3713 1625 
L 3713 1100 
L 3047 1100 
L 3047 0 
L 2419 0 
L 2419 1100 
L 313 1100 
L 313 1709 
L 2253 4666 
z
" transform="scale(0.015625)"/>
       </defs>
       <use xlink:href="#DejaVuSans-34"/>
       <use xlink:href="#DejaVuSans-30" x="63.623047"/>
       <use xlink:href="#DejaVuSans-30" x="127.246094"/>
      </g>
     </g>
    </g>
    <g id="xtick_4">
     <g id="line2d_4">
      <g>
       <use xlink:href="#m9b53246868" x="264.24595" y="307.584" style="stroke: #000000; stroke-width: 0.8"/>
      </g>
     </g>
     <g id="text_4">
      <!-- 600 -->
      <g transform="translate(254.7022 322.182437) scale(0.1 -0.1)">
       <defs>
        <path id="DejaVuSans-36" d="M 2113 2584 
Q 1688 2584 1439 2293 
Q 1191 2003 1191 1497 
Q 1191 994 1439 701 
Q 1688 409 2113 409 
Q 2538 409 2786 701 
Q 3034 994 3034 1497 
Q 3034 2003 2786 2293 
Q 2538 2584 2113 2584 
z
M 3366 4563 
L 3366 3988 
Q 3128 4100 2886 4159 
Q 2644 4219 2406 4219 
Q 1781 4219 1451 3797 
Q 1122 3375 1075 2522 
Q 1259 2794 1537 2939 
Q 1816 3084 2150 3084 
Q 2853 3084 3261 2657 
Q 3669 2231 3669 1497 
Q 3669 778 3244 343 
Q 2819 -91 2113 -91 
Q 1303 -91 875 529 
Q 447 1150 447 2328 
Q 447 3434 972 4092 
Q 1497 4750 2381 4750 
Q 2619 4750 2861 4703 
Q 3103 4656 3366 4563 
z
" transform="scale(0.015625)"/>
       </defs>
       <use xlink:href="#DejaVuSans-36"/>
       <use xlink:href="#DejaVuSans-30" x="63.623047"/>
       <use xlink:href="#DejaVuSans-30" x="127.246094"/>
      </g>
     </g>
    </g>
    <g id="xtick_5">
     <g id="line2d_5">
      <g>
       <use xlink:href="#m9b53246868" x="327.717025" y="307.584" style="stroke: #000000; stroke-width: 0.8"/>
      </g>
     </g>
     <g id="text_5">
      <!-- 800 -->
      <g transform="translate(318.173275 322.182437) scale(0.1 -0.1)">
       <defs>
        <path id="DejaVuSans-38" d="M 2034 2216 
Q 1584 2216 1326 1975 
Q 1069 1734 1069 1313 
Q 1069 891 1326 650 
Q 1584 409 2034 409 
Q 2484 409 2743 651 
Q 3003 894 3003 1313 
Q 3003 1734 2745 1975 
Q 2488 2216 2034 2216 
z
M 1403 2484 
Q 997 2584 770 2862 
Q 544 3141 544 3541 
Q 544 4100 942 4425 
Q 1341 4750 2034 4750 
Q 2731 4750 3128 4425 
Q 3525 4100 3525 3541 
Q 3525 3141 3298 2862 
Q 3072 2584 2669 2484 
Q 3125 2378 3379 2068 
Q 3634 1759 3634 1313 
Q 3634 634 3220 271 
Q 2806 -91 2034 -91 
Q 1263 -91 848 271 
Q 434 634 434 1313 
Q 434 1759 690 2068 
Q 947 2378 1403 2484 
z
M 1172 3481 
Q 1172 3119 1398 2916 
Q 1625 2713 2034 2713 
Q 2441 2713 2670 2916 
Q 2900 3119 2900 3481 
Q 2900 3844 2670 4047 
Q 2441 4250 2034 4250 
Q 1625 4250 1398 4047 
Q 1172 3844 1172 3481 
z
" transform="scale(0.015625)"/>
       </defs>
       <use xlink:href="#DejaVuSans-38"/>
       <use xlink:href="#DejaVuSans-30" x="63.623047"/>
       <use xlink:href="#DejaVuSans-30" x="127.246094"/>
      </g>
     </g>
    </g>
    <g id="xtick_6">
     <g id="line2d_6">
      <g>
       <use xlink:href="#m9b53246868" x="391.188099" y="307.584" style="stroke: #000000; stroke-width: 0.8"/>
      </g>
     </g>
     <g id="text_6">
      <!-- 1000 -->
      <g transform="translate(378.463099 322.182437) scale(0.1 -0.1)">
       <defs>
        <path id="DejaVuSans-31" d="M 794 531 
L 1825 531 
L 1825 4091 
L 703 3866 
L 703 4441 
L 1819 4666 
L 2450 4666 
L 2450 531 
L 3481 531 
L 3481 0 
L 794 0 
L 794 531 
z
" transform="scale(0.015625)"/>
       </defs>
       <use xlink:href="#DejaVuSans-31"/>
       <use xlink:href="#DejaVuSans-30" x="63.623047"/>
       <use xlink:href="#DejaVuSans-30" x="127.246094"/>
       <use xlink:href="#DejaVuSans-30" x="190.869141"/>
      </g>
     </g>
    </g>
    <g id="text_7">
     <!-- n -->
     <g transform="translate(232.99125 335.860562) scale(0.1 -0.1)">
      <defs>
       <path id="DejaVuSans-6e" d="M 3513 2113 
L 3513 0 
L 2938 0 
L 2938 2094 
Q 2938 2591 2744 2837 
Q 2550 3084 2163 3084 
Q 1697 3084 1428 2787 
Q 1159 2491 1159 1978 
L 1159 0 
L 581 0 
L 581 3500 
L 1159 3500 
L 1159 2956 
Q 1366 3272 1645 3428 
Q 1925 3584 2291 3584 
Q 2894 3584 3203 3211 
Q 3513 2838 3513 2113 
z
" transform="scale(0.015625)"/>
      </defs>
      <use xlink:href="#DejaVuSans-6e"/>
     </g>
    </g>
   </g>
   <g id="matplotlib.axis_2">
    <g id="ytick_1">
     <g id="line2d_7">
      <defs>
       <path id="m174739a0f6" d="M 0 0 
L -3.5 0 
" style="stroke: #000000; stroke-width: 0.8"/>
      </defs>
      <g>
       <use xlink:href="#m174739a0f6" x="57.6" y="290.069362" style="stroke: #000000; stroke-width: 0.8"/>
      </g>
     </g>
     <g id="text_8">
      <!-- −3 -->
      <g transform="translate(35.857813 293.868581) scale(0.1 -0.1)">
       <defs>
        <path id="DejaVuSans-2212" d="M 678 2272 
L 4684 2272 
L 4684 1741 
L 678 1741 
L 678 2272 
z
" transform="scale(0.015625)"/>
        <path id="DejaVuSans-33" d="M 2597 2516 
Q 3050 2419 3304 2112 
Q 3559 1806 3559 1356 
Q 3559 666 3084 287 
Q 2609 -91 1734 -91 
Q 1441 -91 1130 -33 
Q 819 25 488 141 
L 488 750 
Q 750 597 1062 519 
Q 1375 441 1716 441 
Q 2309 441 2620 675 
Q 2931 909 2931 1356 
Q 2931 1769 2642 2001 
Q 2353 2234 1838 2234 
L 1294 2234 
L 1294 2753 
L 1863 2753 
Q 2328 2753 2575 2939 
Q 2822 3125 2822 3475 
Q 2822 3834 2567 4026 
Q 2313 4219 1838 4219 
Q 1578 4219 1281 4162 
Q 984 4106 628 3988 
L 628 4550 
Q 988 4650 1302 4700 
Q 1616 4750 1894 4750 
Q 2613 4750 3031 4423 
Q 3450 4097 3450 3541 
Q 3450 3153 3228 2886 
Q 3006 2619 2597 2516 
z
" transform="scale(0.015625)"/>
       </defs>
       <use xlink:href="#DejaVuSans-2212"/>
       <use xlink:href="#DejaVuSans-33" x="83.789062"/>
      </g>
     </g>
    </g>
    <g id="ytick_2">
     <g id="line2d_8">
      <g>
       <use xlink:href="#m174739a0f6" x="57.6" y="251.560347" style="stroke: #000000; stroke-width: 0.8"/>
      </g>
     </g>
     <g id="text_9">
      <!-- −2 -->
      <g transform="translate(35.857813 255.359566) scale(0.1 -0.1)">
       <use xlink:href="#DejaVuSans-2212"/>
       <use xlink:href="#DejaVuSans-32" x="83.789062"/>
      </g>
     </g>
    </g>
    <g id="ytick_3">
     <g id="line2d_9">
      <g>
       <use xlink:href="#m174739a0f6" x="57.6" y="213.051333" style="stroke: #000000; stroke-width: 0.8"/>
      </g>
     </g>
     <g id="text_10">
      <!-- −1 -->
      <g transform="translate(35.857813 216.850552) scale(0.1 -0.1)">
       <use xlink:href="#DejaVuSans-2212"/>
       <use xlink:href="#DejaVuSans-31" x="83.789062"/>
      </g>
     </g>
    </g>
    <g id="ytick_4">
     <g id="line2d_10">
      <g>
       <use xlink:href="#m174739a0f6" x="57.6" y="174.542318" style="stroke: #000000; stroke-width: 0.8"/>
      </g>
     </g>
     <g id="text_11">
      <!-- 0 -->
      <g transform="translate(44.2375 178.341537) scale(0.1 -0.1)">
       <use xlink:href="#DejaVuSans-30"/>
      </g>
     </g>
    </g>
    <g id="ytick_5">
     <g id="line2d_11">
      <g>
       <use xlink:href="#m174739a0f6" x="57.6" y="136.033304" style="stroke: #000000; stroke-width: 0.8"/>
      </g>
     </g>
     <g id="text_12">
      <!-- 1 -->
      <g transform="translate(44.2375 139.832522) scale(0.1 -0.1)">
       <use xlink:href="#DejaVuSans-31"/>
      </g>
     </g>
    </g>
    <g id="ytick_6">
     <g id="line2d_12">
      <g>
       <use xlink:href="#m174739a0f6" x="57.6" y="97.524289" style="stroke: #000000; stroke-width: 0.8"/>
      </g>
     </g>
     <g id="text_13">
      <!-- 2 -->
      <g transform="translate(44.2375 101.323508) scale(0.1 -0.1)">
       <use xlink:href="#DejaVuSans-32"/>
      </g>
     </g>
    </g>
    <g id="ytick_7">
     <g id="line2d_13">
      <g>
       <use xlink:href="#m174739a0f6" x="57.6" y="59.015275" style="stroke: #000000; stroke-width: 0.8"/>
      </g>
     </g>
     <g id="text_14">
      <!-- 3 -->
      <g transform="translate(44.2375 62.814493) scale(0.1 -0.1)">
       <use xlink:href="#DejaVuSans-33"/>
      </g>
     </g>
    </g>
    <g id="text_15">
     <!-- E*t -->
     <g transform="translate(29.778125 182.147531) rotate(-90) scale(0.1 -0.1)">
      <defs>
       <path id="DejaVuSans-45" d="M 628 4666 
L 3578 4666 
L 3578 4134 
L 1259 4134 
L 1259 2753 
L 3481 2753 
L 3481 2222 
L 1259 2222 
L 1259 531 
L 3634 531 
L 3634 0 
L 628 0 
L 628 4666 
z
" transform="scale(0.015625)"/>
       <path id="DejaVuSans-2a" d="M 3009 3897 
L 1888 3291 
L 3009 2681 
L 2828 2375 
L 1778 3009 
L 1778 1831 
L 1422 1831 
L 1422 3009 
L 372 2375 
L 191 2681 
L 1313 3291 
L 191 3897 
L 372 4206 
L 1422 3572 
L 1422 4750 
L 1778 4750 
L 1778 3572 
L 2828 4206 
L 3009 3897 
z
" transform="scale(0.015625)"/>
       <path id="DejaVuSans-74" d="M 1172 4494 
L 1172 3500 
L 2356 3500 
L 2356 3053 
L 1172 3053 
L 1172 1153 
Q 1172 725 1289 603 
Q 1406 481 1766 481 
L 2356 481 
L 2356 0 
L 1766 0 
Q 1100 0 847 248 
Q 594 497 594 1153 
L 594 3053 
L 172 3053 
L 172 3500 
L 594 3500 
L 594 4494 
L 1172 4494 
z
" transform="scale(0.015625)"/>
      </defs>
      <use xlink:href="#DejaVuSans-45"/>
      <use xlink:href="#DejaVuSans-2a" x="63.183594"/>
      <use xlink:href="#DejaVuSans-74" x="113.183594"/>
     </g>
    </g>
   </g>
   <g id="line2d_14">
    <path d="M 73.832727 295.488 
L 74.150083 294.792235 
L 74.784793 294.134006 
L 75.419504 293.938487 
L 75.73686 293.368274 
L 76.054215 293.035196 
L 77.323636 292.734771 
L 77.958347 292.257014 
L 78.593058 292.129306 
L 79.227769 291.948911 
L 79.545124 291.797725 
L 80.49719 291.035213 
L 81.449256 290.662785 
L 81.766612 288.852535 
L 82.083967 288.386922 
L 82.401322 288.324349 
L 83.353388 287.639874 
L 83.988099 287.431481 
L 84.940165 286.920871 
L 85.257521 286.191518 
L 85.892231 286.0038 
L 86.526942 285.417835 
L 86.844298 285.238436 
L 87.161653 285.210338 
L 87.796364 284.889018 
L 88.113719 284.22775 
L 88.74843 284.087951 
L 89.38314 283.929716 
L 90.335207 282.377171 
L 90.969917 282.205986 
L 91.604628 281.638426 
L 91.921983 281.588793 
L 93.191405 280.399659 
L 93.50876 279.873804 
L 93.826116 279.599598 
L 94.143471 279.492433 
L 94.460826 279.012096 
L 95.095537 278.619679 
L 95.412893 278.606641 
L 95.730248 277.682745 
L 96.047603 277.340265 
L 96.682314 277.188972 
L 96.999669 276.561265 
L 97.63438 276.182687 
L 98.586446 275.751347 
L 99.221157 274.99693 
L 101.125289 274.333574 
L 101.442645 274.18751 
L 101.76 273.756051 
L 102.394711 273.560361 
L 102.712066 273.111367 
L 103.346777 272.87769 
L 104.298843 271.905077 
L 104.616198 271.775006 
L 105.250909 271.367465 
L 105.568264 271.297085 
L 106.202975 270.452657 
L 107.789752 269.855867 
L 108.107107 269.419347 
L 108.741818 269.282174 
L 109.376529 268.038512 
L 110.328595 267.50491 
L 110.963306 267.282419 
L 111.280661 267.09493 
L 111.915372 266.510838 
L 112.867438 265.915067 
L 113.502149 265.804163 
L 113.819504 265.1571 
L 114.13686 264.810758 
L 114.77157 264.524577 
L 115.723636 264.193969 
L 116.040992 263.992391 
L 116.358347 263.419025 
L 116.675702 263.403413 
L 116.993058 263.141295 
L 117.310413 263.035059 
L 117.627769 262.754915 
L 117.945124 262.162946 
L 118.262479 261.931243 
L 118.89719 261.894347 
L 119.214545 261.686568 
L 119.531901 260.727615 
L 121.753388 259.638105 
L 122.705455 257.631556 
L 123.340165 257.422488 
L 124.292231 257.214222 
L 124.926942 257.142916 
L 125.244298 256.55424 
L 125.561653 256.385492 
L 125.879008 255.852763 
L 126.196364 255.796373 
L 126.513719 255.620067 
L 126.831074 255.042506 
L 127.465785 254.815372 
L 127.78314 254.613338 
L 128.100496 254.235393 
L 128.735207 254.037961 
L 129.687273 253.831484 
L 130.004628 253.277843 
L 130.321983 253.170436 
L 130.639339 252.734725 
L 131.90876 252.282845 
L 132.226116 251.648028 
L 132.543471 250.435678 
L 133.495537 250.174811 
L 133.812893 250.025872 
L 134.130248 249.567763 
L 134.447603 249.488286 
L 135.082314 248.967518 
L 135.399669 248.898649 
L 135.717025 248.647848 
L 136.351736 248.59134 
L 136.669091 247.812714 
L 136.986446 247.373427 
L 137.303802 247.294617 
L 137.938512 246.827672 
L 138.573223 246.753031 
L 138.890579 246.581055 
L 139.207934 245.956706 
L 139.842645 245.697043 
L 141.112066 245.204328 
L 142.064132 243.751615 
L 143.016198 243.42898 
L 143.333554 243.212793 
L 143.650909 243.135124 
L 143.968264 242.76261 
L 144.28562 242.733013 
L 144.920331 242.513754 
L 145.237686 242.437188 
L 145.555041 241.574492 
L 145.872397 241.410345 
L 146.189752 241.392519 
L 146.507107 241.245405 
L 146.824463 240.451743 
L 147.141818 240.443451 
L 147.459174 240.213155 
L 147.776529 239.768334 
L 148.093884 239.565613 
L 148.41124 239.080505 
L 148.728595 239.023801 
L 149.363306 238.550641 
L 149.680661 237.967893 
L 150.315372 237.637483 
L 150.632727 237.212935 
L 150.950083 237.193991 
L 151.267438 236.790096 
L 151.902149 236.619156 
L 152.53686 236.497677 
L 153.17157 236.098087 
L 153.488926 235.462436 
L 154.440992 235.11104 
L 154.758347 234.749693 
L 155.075702 234.123072 
L 155.393058 233.874432 
L 156.027769 233.790556 
L 156.345124 233.640085 
L 156.662479 233.322633 
L 157.29719 232.219692 
L 157.931901 231.871379 
L 158.566612 231.791253 
L 159.201322 231.645651 
L 159.518678 231.089803 
L 160.153388 230.723446 
L 160.788099 229.638022 
L 161.740165 229.27603 
L 162.692231 229.017286 
L 163.009587 228.871944 
L 163.644298 228.01484 
L 163.961653 227.761868 
L 164.279008 227.735381 
L 164.596364 227.549074 
L 165.231074 227.501645 
L 165.54843 226.608056 
L 165.865785 226.523107 
L 166.18314 226.237398 
L 166.500496 226.210164 
L 167.452562 225.677355 
L 167.769917 225.323169 
L 168.404628 225.122951 
L 169.991405 224.216106 
L 170.626116 223.680201 
L 170.943471 223.627125 
L 171.260826 223.24237 
L 171.578182 223.197439 
L 171.895537 222.551819 
L 172.530248 222.027373 
L 173.164959 221.95391 
L 173.482314 221.442009 
L 173.799669 220.331371 
L 174.117025 220.137464 
L 174.43438 220.124723 
L 175.069091 219.234775 
L 175.386446 219.13947 
L 175.703802 218.886292 
L 176.655868 218.724482 
L 176.973223 217.997618 
L 177.607934 217.778979 
L 178.242645 217.632024 
L 178.877355 217.124951 
L 179.829421 216.691473 
L 180.146777 216.225143 
L 180.781488 216.085163 
L 181.416198 215.802066 
L 182.050909 215.760892 
L 182.368264 215.060609 
L 183.002975 214.948294 
L 183.637686 214.40446 
L 185.224463 213.322069 
L 185.541818 212.321968 
L 185.859174 212.009676 
L 186.176529 211.891104 
L 186.493884 211.225838 
L 187.128595 211.113492 
L 187.44595 210.693046 
L 187.763306 210.616417 
L 188.398017 210.339429 
L 189.032727 210.205908 
L 189.350083 209.620041 
L 189.667438 209.57859 
L 189.984793 208.911905 
L 190.302149 208.883909 
L 190.619504 208.456965 
L 191.254215 208.226869 
L 191.57157 207.65597 
L 191.888926 207.518329 
L 192.206281 207.239971 
L 193.475702 207.003616 
L 193.793058 206.713811 
L 194.110413 206.701654 
L 194.427769 206.470689 
L 195.062479 205.660631 
L 196.014545 205.026513 
L 196.649256 204.799007 
L 197.283967 204.696915 
L 197.601322 204.365364 
L 197.918678 204.283494 
L 198.236033 203.858372 
L 198.553388 203.16165 
L 198.870744 202.914005 
L 199.188099 202.249417 
L 199.505455 202.063066 
L 199.82281 201.495559 
L 200.140165 201.436221 
L 200.774876 200.806525 
L 201.409587 200.619251 
L 201.726942 199.464044 
L 202.044298 199.440313 
L 202.361653 198.969533 
L 203.313719 198.707385 
L 203.631074 198.474194 
L 204.265785 198.291623 
L 205.535207 197.761188 
L 205.852562 197.12705 
L 206.804628 196.780003 
L 208.07405 195.700156 
L 208.391405 195.668958 
L 209.343471 195.046343 
L 209.660826 194.757592 
L 209.978182 194.033125 
L 210.612893 193.663286 
L 210.930248 193.593513 
L 211.247603 193.219318 
L 212.199669 193.058371 
L 212.83438 191.843942 
L 213.786446 191.589619 
L 214.103802 191.435208 
L 214.421157 191.084744 
L 214.738512 191.029854 
L 215.055868 190.701408 
L 215.373223 190.637324 
L 215.690579 190.020298 
L 216.007934 189.917827 
L 216.325289 189.498443 
L 216.96 189.449305 
L 217.277355 189.204543 
L 217.594711 189.138712 
L 217.912066 188.379348 
L 218.229421 187.947028 
L 222.037686 186.343649 
L 222.355041 185.346364 
L 222.672397 185.340707 
L 223.624463 184.939487 
L 223.941818 184.331998 
L 224.576529 183.848389 
L 225.21124 183.582122 
L 225.528595 183.559018 
L 226.163306 182.895698 
L 226.480661 182.846834 
L 226.798017 181.62423 
L 227.115372 181.47384 
L 227.432727 180.889298 
L 227.750083 180.819988 
L 228.067438 180.555927 
L 228.702149 180.304479 
L 229.019504 179.839132 
L 229.654215 179.436688 
L 230.606281 178.9267 
L 231.875702 178.669432 
L 232.510413 177.935922 
L 233.145124 177.72013 
L 233.779835 177.603121 
L 234.09719 176.695354 
L 234.731901 176.538313 
L 235.049256 176.057818 
L 235.683967 175.627063 
L 236.636033 175.36485 
L 236.953388 173.78436 
L 237.588099 173.58252 
L 237.905455 173.147189 
L 239.174876 172.490355 
L 239.809587 172.225096 
L 240.126942 172.145501 
L 240.444298 171.946302 
L 240.761653 171.888691 
L 241.079008 170.954502 
L 241.713719 170.67544 
L 242.031074 170.382559 
L 242.665785 169.634685 
L 242.98314 169.545951 
L 243.300496 169.269087 
L 243.617851 169.232509 
L 244.252562 168.693537 
L 244.569917 168.639237 
L 244.887273 168.328673 
L 245.204628 167.582928 
L 245.521983 167.187484 
L 245.839339 167.154334 
L 246.156694 166.836821 
L 247.10876 166.549675 
L 247.743471 166.286587 
L 249.012893 165.455477 
L 249.964959 165.040354 
L 250.282314 164.958699 
L 251.551736 163.449406 
L 251.869091 163.320144 
L 252.186446 163.051037 
L 252.503802 162.496603 
L 252.821157 162.432229 
L 253.138512 162.219448 
L 253.773223 161.249707 
L 254.407934 161.103834 
L 255.36 160.577556 
L 255.677355 160.565844 
L 256.946777 159.8783 
L 257.581488 159.678814 
L 257.898843 159.421496 
L 258.216198 158.830477 
L 259.168264 158.372951 
L 259.48562 158.310314 
L 259.802975 157.667511 
L 260.437686 157.225352 
L 261.389752 157.091968 
L 261.707107 156.850264 
L 262.024463 156.072266 
L 262.659174 155.579404 
L 262.976529 155.373186 
L 263.293884 155.301201 
L 263.61124 154.701859 
L 263.928595 154.555842 
L 264.24595 154.548193 
L 264.563306 154.012605 
L 265.198017 153.631928 
L 266.150083 153.132816 
L 266.467438 152.366872 
L 266.784793 152.207295 
L 267.102149 152.176998 
L 267.419504 151.997321 
L 268.054215 151.36036 
L 269.006281 150.870253 
L 269.323636 150.730081 
L 269.640992 150.027758 
L 270.275702 149.571961 
L 270.910413 149.382366 
L 271.227769 149.036071 
L 271.545124 148.985159 
L 272.49719 148.602609 
L 272.814545 148.567402 
L 273.449256 147.859189 
L 273.766612 147.092926 
L 274.718678 146.967548 
L 275.036033 146.222685 
L 275.670744 145.896934 
L 276.62281 145.602477 
L 277.574876 144.855984 
L 277.892231 143.255054 
L 278.209587 142.699235 
L 279.161653 142.264336 
L 279.479008 141.968144 
L 280.431074 141.465483 
L 281.065785 141.167262 
L 282.017851 140.664405 
L 282.652562 140.541993 
L 283.287273 140.261904 
L 283.604628 140.16976 
L 283.921983 139.711172 
L 284.556694 139.586094 
L 284.87405 139.309979 
L 285.191405 139.264972 
L 285.50876 139.019536 
L 285.826116 138.396319 
L 286.778182 138.255113 
L 287.095537 137.769148 
L 287.730248 137.546507 
L 288.364959 137.253616 
L 288.682314 136.471208 
L 288.999669 135.352429 
L 289.951736 134.71848 
L 290.586446 134.595476 
L 290.903802 134.255325 
L 291.221157 134.202363 
L 291.538512 133.895707 
L 291.855868 133.798454 
L 292.173223 133.554349 
L 292.807934 132.619275 
L 293.442645 132.341111 
L 294.077355 131.18494 
L 295.981488 130.342385 
L 296.616198 129.994432 
L 296.933554 129.215208 
L 297.250909 129.188282 
L 297.88562 128.446108 
L 298.520331 128.117453 
L 299.155041 127.93202 
L 299.472397 127.605946 
L 299.789752 127.54763 
L 300.424463 127.006041 
L 301.693884 126.678141 
L 302.328595 125.619326 
L 302.963306 125.381228 
L 303.280661 124.999768 
L 303.598017 124.91628 
L 303.915372 124.594138 
L 304.232727 123.538949 
L 306.454215 121.930214 
L 306.77157 121.868869 
L 307.406281 121.352958 
L 308.040992 121.258421 
L 308.675702 120.350494 
L 308.993058 120.283922 
L 309.310413 120.044728 
L 309.627769 119.290101 
L 309.945124 119.241492 
L 310.89719 118.8013 
L 311.531901 118.68374 
L 311.849256 117.974036 
L 312.483967 117.451806 
L 312.801322 117.425647 
L 313.118678 117.031701 
L 313.436033 116.912561 
L 313.753388 116.315334 
L 314.070744 116.303475 
L 314.388099 115.857752 
L 314.705455 115.842301 
L 315.340165 115.489075 
L 315.974876 115.189675 
L 316.292231 114.943782 
L 316.926942 114.178305 
L 317.244298 114.000794 
L 317.561653 113.970523 
L 317.879008 113.502781 
L 318.513719 113.190937 
L 318.831074 112.843282 
L 319.14843 112.763615 
L 319.78314 112.266324 
L 320.417851 111.247708 
L 323.27405 110.250428 
L 323.591405 109.448068 
L 323.90876 109.21044 
L 325.495537 108.692382 
L 326.130248 108.135459 
L 326.447603 107.683207 
L 328.03438 107.301709 
L 328.351736 106.974793 
L 329.303802 106.561417 
L 329.621157 104.970905 
L 329.938512 104.957493 
L 330.573223 104.361892 
L 331.207934 104.219821 
L 331.525289 103.451444 
L 332.16 103.124973 
L 332.477355 102.744214 
L 334.381488 101.912342 
L 334.698843 101.601103 
L 335.968264 101.206147 
L 336.602975 100.50992 
L 336.920331 100.295651 
L 337.237686 99.880245 
L 337.555041 99.832159 
L 338.507107 99.037139 
L 339.141818 98.337842 
L 339.459174 97.923964 
L 339.776529 96.990899 
L 340.093884 96.723089 
L 341.04595 96.412252 
L 341.363306 96.064783 
L 341.680661 96.014748 
L 342.315372 95.337771 
L 342.632727 95.323669 
L 343.267438 94.820569 
L 343.584793 94.498492 
L 343.902149 94.483706 
L 344.219504 94.301429 
L 344.53686 94.26654 
L 344.854215 93.940349 
L 345.17157 92.85577 
L 345.488926 92.814015 
L 347.393058 91.925923 
L 347.710413 91.860723 
L 348.027769 91.031556 
L 348.345124 90.817178 
L 348.662479 90.737585 
L 348.979835 89.72802 
L 349.614545 89.621264 
L 349.931901 89.379159 
L 350.883967 89.167078 
L 352.470744 88.411474 
L 352.788099 88.373583 
L 353.42281 87.510122 
L 354.057521 87.0458 
L 354.692231 86.964502 
L 355.326942 85.278072 
L 355.644298 84.746324 
L 356.279008 84.574539 
L 356.913719 83.952871 
L 357.54843 83.834668 
L 358.18314 83.192427 
L 358.500496 82.966188 
L 359.135207 82.845284 
L 359.452562 82.366435 
L 360.404628 81.870878 
L 361.356694 81.205558 
L 361.67405 81.19451 
L 361.991405 80.839905 
L 362.30876 80.808001 
L 362.943471 80.360172 
L 363.260826 80.344869 
L 363.578182 80.216097 
L 363.895537 79.524424 
L 364.212893 79.111186 
L 365.164959 78.427598 
L 365.482314 78.088335 
L 366.117025 77.790339 
L 366.43438 77.399186 
L 366.751736 77.395446 
L 367.069091 76.926698 
L 367.703802 76.818241 
L 368.021157 76.648997 
L 368.338512 76.262098 
L 368.655868 76.161565 
L 369.607934 75.52072 
L 369.925289 75.46571 
L 370.56 74.96331 
L 370.877355 74.494817 
L 371.194711 74.305053 
L 371.512066 73.74889 
L 371.829421 73.702291 
L 372.146777 73.542771 
L 372.464132 72.842059 
L 373.098843 72.648792 
L 373.733554 72.206552 
L 374.050909 71.966896 
L 374.368264 71.942032 
L 374.68562 71.708006 
L 375.002975 71.042989 
L 375.637686 70.638276 
L 375.955041 70.609007 
L 376.907107 69.91556 
L 377.224463 69.355549 
L 377.859174 69.101077 
L 378.176529 68.958299 
L 378.493884 68.49919 
L 378.81124 68.481748 
L 379.128595 68.238728 
L 379.763306 66.791766 
L 380.398017 66.625815 
L 381.032727 65.957325 
L 381.667438 65.803356 
L 381.984793 65.030998 
L 382.302149 64.867503 
L 382.93686 64.35302 
L 383.57157 64.185816 
L 383.888926 64.157236 
L 384.206281 63.879597 
L 385.158347 63.521077 
L 385.793058 63.108734 
L 386.427769 62.859195 
L 386.745124 62.535299 
L 387.062479 62.484803 
L 387.379835 62.130351 
L 387.69719 62.001989 
L 388.014545 61.521088 
L 388.649256 61.351742 
L 388.966612 60.782977 
L 389.601322 60.676968 
L 390.553388 60.35996 
L 390.870744 59.678054 
L 391.188099 59.445315 
L 391.505455 59.371214 
L 392.140165 58.607512 
L 392.774876 58.260535 
L 393.726942 58.059048 
L 394.361653 56.784367 
L 394.996364 56.701988 
L 395.631074 56.084819 
L 395.94843 56.060518 
L 396.265785 55.83754 
L 396.58314 55.777749 
L 396.900496 55.472076 
L 397.217851 54.029187 
L 398.169917 53.72237 
L 398.487273 53.568 
L 398.487273 53.568 
" clip-path="url(#pcabc17f503)" style="fill: none; stroke: #1f77b4; stroke-width: 1.5; stroke-linecap: square"/>
   </g>
   <g id="line2d_15">
    <path d="M 73.832727 295.020394 
L 74.150083 294.757595 
L 74.467438 294.144975 
L 75.102149 294.01428 
L 75.419504 294.014276 
L 75.73686 293.685014 
L 76.054215 293.606836 
L 76.37157 293.03978 
L 77.323636 292.761723 
L 77.640992 292.727158 
L 78.910413 291.257871 
L 79.227769 291.204015 
L 79.545124 290.874427 
L 81.131901 290.486643 
L 81.449256 290.145428 
L 82.083967 290.060628 
L 82.401322 289.59861 
L 82.718678 289.509307 
L 83.036033 289.08593 
L 83.353388 287.803111 
L 83.670744 287.684572 
L 83.988099 286.963463 
L 84.305455 286.597031 
L 85.257521 286.493678 
L 85.892231 286.144656 
L 86.526942 284.969174 
L 86.844298 284.969172 
L 87.161653 284.845851 
L 87.479008 284.367443 
L 88.113719 284.245725 
L 88.74843 283.856293 
L 89.065785 283.289729 
L 89.700496 283.040672 
L 90.335207 282.914005 
L 90.969917 282.73319 
L 91.921983 281.783612 
L 92.239339 281.27179 
L 93.826116 279.92818 
L 94.460826 279.540999 
L 94.778182 279.42705 
L 95.412893 277.716501 
L 95.730248 277.6884 
L 97.63438 276.712444 
L 97.951736 276.100373 
L 98.269091 276.020177 
L 98.903802 274.799397 
L 99.221157 274.498854 
L 100.490579 274.375571 
L 100.807934 274.0842 
L 101.76 273.859777 
L 102.077355 273.543322 
L 102.394711 273.473606 
L 102.712066 273.26081 
L 103.029421 273.199612 
L 104.616198 271.822196 
L 105.568264 270.77605 
L 105.88562 270.537955 
L 106.837686 270.333487 
L 107.155041 270.333483 
L 108.107107 269.211294 
L 108.424463 269.189611 
L 108.741818 268.685473 
L 109.376529 268.399952 
L 110.01124 268.162727 
L 110.64595 266.97366 
L 110.963306 266.582776 
L 111.598017 266.380361 
L 111.915372 266.321753 
L 112.232727 265.60358 
L 112.867438 265.58329 
L 113.819504 264.496931 
L 115.406281 264.040161 
L 115.723636 263.767972 
L 116.675702 263.511961 
L 117.310413 263.264523 
L 118.262479 262.90247 
L 119.531901 261.124074 
L 119.849256 261.029602 
L 120.166612 260.439133 
L 120.801322 260.091682 
L 121.118678 260.070347 
L 121.436033 259.350538 
L 122.070744 259.29131 
L 122.388099 258.564141 
L 122.705455 258.285787 
L 123.02281 258.273031 
L 123.340165 257.975993 
L 123.657521 257.966989 
L 124.292231 256.703911 
L 124.926942 256.441098 
L 125.244298 255.82851 
L 125.879008 255.697816 
L 126.196364 255.697812 
L 126.513719 255.422706 
L 127.14843 255.290368 
L 127.465785 255.118426 
L 127.78314 254.723323 
L 128.100496 254.538715 
L 128.417851 254.52231 
L 128.735207 254.033535 
L 129.052562 253.784559 
L 129.369917 253.716888 
L 129.687273 253.117273 
L 130.004628 252.941406 
L 130.321983 252.473482 
L 131.591405 252.170181 
L 131.90876 251.828993 
L 133.178182 251.401181 
L 133.812893 251.192837 
L 134.130248 249.368072 
L 135.082314 248.280563 
L 136.03438 248.222004 
L 136.351736 248.031306 
L 136.669091 248.001564 
L 137.303802 247.757958 
L 137.938512 246.652699 
L 138.255868 246.652697 
L 138.573223 246.529389 
L 138.890579 246.015619 
L 139.207934 245.741137 
L 139.842645 245.539805 
L 140.16 244.973251 
L 140.794711 244.724215 
L 141.429421 244.564231 
L 142.064132 244.416722 
L 142.698843 243.768051 
L 143.650909 243.467143 
L 143.968264 242.884376 
L 144.920331 242.110921 
L 145.237686 241.776665 
L 145.555041 241.766937 
L 146.824463 241.110581 
L 147.141818 240.847178 
L 147.776529 239.400042 
L 148.093884 239.37197 
L 149.363306 238.764261 
L 149.680661 238.744147 
L 149.998017 238.395992 
L 150.315372 237.783919 
L 150.632727 237.703723 
L 150.950083 236.482904 
L 151.267438 236.182372 
L 152.53686 236.059107 
L 152.854215 235.767727 
L 153.806281 235.55348 
L 154.123636 235.226843 
L 154.440992 235.157141 
L 154.758347 234.944349 
L 155.075702 234.883142 
L 156.027769 234.062935 
L 156.345124 233.541263 
L 156.662479 233.505732 
L 157.29719 232.669171 
L 157.614545 232.607824 
L 157.931901 232.138631 
L 158.249256 232.017018 
L 158.566612 232.017015 
L 158.883967 231.193397 
L 159.201322 230.894826 
L 159.518678 230.87315 
L 159.836033 230.369008 
L 160.470744 230.083486 
L 161.42281 229.706549 
L 161.740165 229.504869 
L 162.057521 228.657159 
L 162.374876 228.266308 
L 163.644298 227.954009 
L 163.961653 227.287114 
L 164.596364 227.266825 
L 164.913719 226.865964 
L 165.54843 226.629052 
L 165.865785 226.180454 
L 166.817851 225.904302 
L 167.135207 225.451497 
L 168.087273 225.195488 
L 168.721983 224.948061 
L 169.67405 224.586018 
L 170.30876 223.838013 
L 170.943471 223.659494 
L 171.578182 222.807616 
L 172.530248 222.685483 
L 172.847603 222.122669 
L 173.164959 221.944675 
L 173.799669 221.034063 
L 174.43438 220.97485 
L 174.751736 219.969316 
L 175.069091 219.956558 
L 175.386446 219.659518 
L 176.021157 218.387429 
L 176.655868 218.250043 
L 177.607934 217.381352 
L 177.925289 217.381348 
L 178.242645 217.106228 
L 179.194711 216.973898 
L 179.512066 216.535932 
L 180.781488 216.205842 
L 181.098843 215.71708 
L 181.416198 215.709131 
L 181.733554 215.468104 
L 182.050909 215.400416 
L 182.368264 214.800808 
L 182.68562 214.624942 
L 183.002975 214.073352 
L 183.637686 213.853721 
L 183.955041 213.512553 
L 184.589752 213.390129 
L 184.907107 213.384803 
L 185.224463 213.162605 
L 186.176529 212.876371 
L 186.493884 212.112594 
L 186.81124 212.033979 
L 187.128595 211.051574 
L 187.44595 210.714738 
L 187.763306 209.964097 
L 188.080661 209.923179 
L 188.398017 209.71482 
L 188.715372 209.690347 
L 189.667438 209.340845 
L 189.984793 208.894221 
L 190.302149 208.838433 
L 190.619504 208.336224 
L 190.93686 208.336224 
L 191.254215 208.212925 
L 191.57157 207.699154 
L 191.888926 207.424681 
L 192.523636 207.305573 
L 192.840992 206.488847 
L 193.158347 206.327063 
L 194.745124 206.100255 
L 195.379835 205.451577 
L 196.014545 205.320871 
L 196.331901 205.320868 
L 196.649256 205.150675 
L 196.966612 204.567953 
L 197.283967 204.556012 
L 197.918678 204.217055 
L 198.553388 203.93061 
L 199.188099 202.908071 
L 199.505455 202.794112 
L 199.82281 202.112005 
L 200.457521 201.862836 
L 200.774876 200.633857 
L 201.726942 200.427686 
L 202.679008 199.467465 
L 202.996364 198.166413 
L 203.313719 197.8659 
L 204.58314 197.742642 
L 204.900496 197.451255 
L 206.169917 197.237027 
L 206.487273 196.910365 
L 206.804628 196.840679 
L 207.121983 196.627885 
L 207.439339 196.566674 
L 208.391405 195.746449 
L 208.70876 195.224779 
L 209.026116 195.18927 
L 209.343471 194.684637 
L 209.660826 194.428455 
L 210.295537 194.291368 
L 210.612893 193.70055 
L 210.930248 193.700549 
L 211.564959 193.3172 
L 212.199669 192.578361 
L 212.517025 192.556691 
L 212.83438 192.29813 
L 213.151736 191.767019 
L 215.055868 190.34066 
L 215.373223 189.94984 
L 216.642645 189.637552 
L 216.96 189.076792 
L 217.594711 188.95036 
L 217.912066 188.549483 
L 218.229421 188.367192 
L 218.546777 187.863981 
L 219.498843 187.587836 
L 219.816198 187.061002 
L 220.450909 186.879017 
L 221.08562 186.480253 
L 221.402975 186.404952 
L 221.720331 186.151344 
L 222.037686 185.521564 
L 222.672397 185.342992 
L 222.989752 184.948365 
L 223.307107 184.901702 
L 223.624463 184.531067 
L 224.259174 184.369035 
L 224.576529 184.246527 
L 224.893884 183.806204 
L 225.528595 183.408098 
L 225.84595 182.717591 
L 226.163306 182.658388 
L 226.480661 182.298963 
L 226.798017 182.241984 
L 227.115372 181.652845 
L 227.750083 181.640086 
L 228.384793 181.343045 
L 229.019504 179.93355 
L 229.97157 179.064888 
L 230.288926 179.064886 
L 230.606281 178.789752 
L 231.558347 178.521035 
L 232.193058 177.905736 
L 232.510413 177.889374 
L 234.414545 177.083946 
L 235.049256 175.756885 
L 235.366612 175.721001 
L 235.683967 175.537264 
L 236.001322 175.111249 
L 236.636033 175.068334 
L 236.953388 174.846167 
L 237.588099 174.64922 
L 237.905455 173.79613 
L 238.22281 173.717498 
L 238.540165 172.735076 
L 238.857521 172.398251 
L 239.174876 171.647634 
L 239.492231 171.606705 
L 239.809587 171.398335 
L 240.444298 171.373887 
L 241.396364 171.024386 
L 241.713719 170.577728 
L 242.031074 170.521972 
L 242.34843 170.019751 
L 242.665785 170.019751 
L 242.98314 169.794082 
L 243.300496 169.273575 
L 243.617851 169.108222 
L 243.935207 168.118831 
L 244.887273 167.899214 
L 245.521983 167.783789 
L 245.839339 167.135105 
L 246.47405 167.004402 
L 246.791405 167.004401 
L 247.10876 166.834208 
L 247.426116 166.251523 
L 247.743471 166.239513 
L 248.378182 165.90057 
L 249.012893 165.614127 
L 249.330248 165.023514 
L 249.647603 164.97877 
L 250.599669 164.477642 
L 250.917025 164.400314 
L 251.23438 163.795535 
L 252.503802 163.055533 
L 253.138512 162.317385 
L 253.455868 162.131283 
L 253.773223 162.111226 
L 254.090579 161.763082 
L 254.407934 161.214402 
L 254.725289 161.151012 
L 255.042645 159.981767 
L 255.677355 159.849924 
L 255.994711 159.528622 
L 256.946777 159.426174 
L 257.264132 159.134785 
L 258.216198 158.920572 
L 258.533554 158.593889 
L 258.850909 158.510397 
L 259.168264 158.311419 
L 259.48562 158.250209 
L 259.802975 157.959327 
L 260.755041 156.368177 
L 262.341818 155.974913 
L 262.659174 155.384084 
L 263.293884 155.362296 
L 263.61124 155.210894 
L 263.928595 154.261897 
L 264.24595 154.240233 
L 264.563306 153.981638 
L 264.880661 153.962774 
L 265.198017 153.599967 
L 265.515372 153.450551 
L 265.832727 153.073582 
L 266.150083 152.871895 
L 266.784793 152.254613 
L 267.102149 152.024163 
L 267.419504 151.566888 
L 267.73686 151.547424 
L 269.006281 150.706615 
L 269.958347 150.519916 
L 270.593058 150.050726 
L 270.910413 149.27137 
L 271.227769 149.090465 
L 271.545124 148.74455 
L 272.179835 148.562548 
L 272.49719 148.163776 
L 273.131901 148.088487 
L 273.449256 147.834887 
L 273.766612 147.383345 
L 274.401322 147.111459 
L 274.718678 147.026497 
L 275.353388 146.214569 
L 275.670744 146.189762 
L 276.305455 145.930068 
L 276.62281 145.311737 
L 277.257521 144.851059 
L 277.892231 143.982514 
L 278.209587 143.925512 
L 278.526942 143.336373 
L 279.161653 143.323615 
L 279.479008 143.026573 
L 279.796364 141.675585 
L 281.065785 140.748425 
L 281.38314 140.473278 
L 282.335207 140.204578 
L 282.969917 139.58925 
L 283.287273 139.572906 
L 284.239339 139.182186 
L 284.87405 139.076164 
L 285.50876 138.593701 
L 285.826116 138.578102 
L 286.460826 137.440417 
L 286.778182 137.404518 
L 287.095537 136.794791 
L 288.364959 136.596535 
L 288.999669 136.451801 
L 289.317025 136.134883 
L 289.63438 136.126126 
L 289.951736 135.479666 
L 290.586446 135.303622 
L 290.903802 134.081766 
L 291.221157 134.019753 
L 291.538512 133.290233 
L 291.855868 133.081851 
L 292.490579 133.057425 
L 293.125289 132.707925 
L 293.442645 132.310066 
L 294.077355 132.205512 
L 294.394711 131.70328 
L 294.712066 131.703279 
L 295.029421 131.148335 
L 295.346777 130.957113 
L 295.664132 129.80234 
L 296.933554 129.467325 
L 297.250909 128.818635 
L 297.568264 128.687936 
L 297.88562 128.687934 
L 298.520331 128.280494 
L 299.155041 127.584089 
L 299.789752 127.400905 
L 300.107107 127.297649 
L 300.424463 126.707037 
L 300.741818 126.6623 
L 301.693884 126.161171 
L 302.01124 126.107403 
L 302.328595 125.877667 
L 302.64595 125.479065 
L 302.963306 125.315594 
L 303.598017 124.739063 
L 303.915372 124.734276 
L 304.232727 124.272258 
L 304.867438 124.000916 
L 305.184793 123.814798 
L 305.502149 123.759558 
L 305.819504 123.446625 
L 306.454215 121.637128 
L 306.77157 121.212151 
L 307.088926 121.167324 
L 307.406281 120.818316 
L 308.358347 120.604115 
L 308.675702 120.277414 
L 308.993058 120.193917 
L 309.310413 119.994951 
L 309.627769 119.642855 
L 309.945124 119.642849 
L 310.262479 119.519493 
L 310.579835 119.04115 
L 310.89719 119.005732 
L 311.214545 117.963415 
L 311.849256 117.719749 
L 312.483967 117.587681 
L 312.801322 117.067618 
L 313.118678 117.045843 
L 313.436033 116.894408 
L 313.753388 116.272039 
L 314.070744 115.945435 
L 314.388099 115.923777 
L 314.705455 115.665155 
L 315.02281 115.646296 
L 315.340165 115.283433 
L 315.657521 115.134083 
L 315.974876 114.7571 
L 316.926942 114.214657 
L 319.14843 112.39015 
L 319.78314 112.20344 
L 320.100496 111.916533 
L 320.735207 111.734262 
L 321.052562 111.53369 
L 321.369917 110.954906 
L 321.687273 110.774009 
L 322.321983 110.055134 
L 322.639339 109.847302 
L 323.27405 109.772032 
L 323.591405 109.518426 
L 323.90876 109.066878 
L 324.543471 108.794992 
L 325.178182 108.686854 
L 325.495537 108.147268 
L 325.812893 107.898078 
L 326.130248 107.873285 
L 328.03438 106.775162 
L 329.303802 105.666062 
L 329.621157 105.609042 
L 329.938512 105.211697 
L 330.255868 105.019901 
L 330.890579 105.007145 
L 331.207934 104.710102 
L 331.525289 103.863262 
L 331.842645 103.526557 
L 333.112066 102.754897 
L 333.429421 102.156805 
L 334.064132 101.888118 
L 334.381488 101.256438 
L 335.333554 100.865733 
L 335.650909 100.859074 
L 336.28562 100.277236 
L 336.920331 100.256949 
L 337.555041 99.170617 
L 338.507107 98.971665 
L 339.459174 98.280056 
L 340.728595 97.809674 
L 341.04595 97.1632 
L 341.363306 96.987134 
L 341.680661 95.765283 
L 341.998017 95.703274 
L 342.315372 95.112778 
L 342.632727 94.765369 
L 343.267438 94.740963 
L 343.902149 94.440787 
L 344.219504 93.990731 
L 344.53686 93.889054 
L 344.854215 93.386809 
L 345.17157 93.386807 
L 345.488926 93.237857 
L 346.123636 92.640649 
L 346.440992 91.485851 
L 347.710413 91.114825 
L 348.027769 90.502166 
L 348.662479 90.371471 
L 348.979835 90.371467 
L 349.29719 90.201275 
L 349.614545 90.196931 
L 349.931901 89.964029 
L 350.249256 89.267612 
L 350.883967 89.084392 
L 351.201322 88.390561 
L 351.836033 87.920087 
L 353.105455 87.561206 
L 353.42281 87.162593 
L 355.326942 86.417814 
L 355.644298 85.955797 
L 355.961653 85.866505 
L 356.279008 85.498316 
L 356.596364 85.443109 
L 356.913719 84.160295 
L 357.231074 84.041798 
L 357.54843 83.320657 
L 357.865785 82.954226 
L 358.817851 82.675194 
L 359.452562 82.287656 
L 359.769917 81.960941 
L 360.404628 81.725956 
L 360.721983 81.326377 
L 361.039339 81.326372 
L 361.356694 81.203036 
L 361.67405 80.724657 
L 361.991405 80.689271 
L 362.626116 79.646934 
L 363.260826 79.403281 
L 363.895537 79.342008 
L 364.847603 79.090385 
L 366.751736 76.966901 
L 369.290579 75.784244 
L 369.607934 74.933975 
L 369.925289 74.914494 
L 370.242645 74.750329 
L 370.877355 74.131363 
L 371.829421 73.886966 
L 372.146777 73.559417 
L 372.781488 73.217234 
L 373.098843 72.638441 
L 374.050909 72.024005 
L 375.320331 70.825247 
L 376.589752 70.441399 
L 376.907107 69.830799 
L 378.176529 68.864732 
L 379.128595 68.179387 
L 379.763306 67.292572 
L 380.080661 66.895186 
L 381.032727 66.690676 
L 381.350083 66.393633 
L 381.667438 65.546799 
L 381.984793 65.042662 
L 382.619504 64.841061 
L 383.254215 64.65141 
L 383.57157 64.438418 
L 383.888926 63.840334 
L 384.206281 63.761082 
L 384.523636 62.93997 
L 385.158347 62.737534 
L 385.793058 62.542584 
L 386.110413 61.960771 
L 387.062479 61.924317 
L 387.379835 61.359095 
L 387.69719 61.302669 
L 388.014545 60.854135 
L 389.601322 60.397356 
L 389.918678 60.125174 
L 392.457521 59.493218 
L 392.774876 59.259658 
L 393.092231 58.846732 
L 393.409587 58.670652 
L 394.044298 57.386799 
L 394.361653 56.796319 
L 394.996364 56.448887 
L 395.631074 56.424498 
L 395.94843 55.674274 
L 396.265785 55.572598 
L 396.58314 55.102038 
L 396.900496 55.070337 
L 397.217851 54.92136 
L 397.535207 54.642983 
L 397.852562 54.630229 
L 398.169917 54.333194 
L 398.487273 54.324183 
L 398.487273 54.324183 
" clip-path="url(#pcabc17f503)" style="fill: none; stroke: #ff7f0e; stroke-width: 1.5; stroke-linecap: square"/>
   </g>
   <g id="patch_3">
    <path d="M 57.6 307.584 
L 57.6 41.472 
" style="fill: none; stroke: #000000; stroke-width: 0.8; stroke-linejoin: miter; stroke-linecap: square"/>
   </g>
   <g id="patch_4">
    <path d="M 414.72 307.584 
L 414.72 41.472 
" style="fill: none; stroke: #000000; stroke-width: 0.8; stroke-linejoin: miter; stroke-linecap: square"/>
   </g>
   <g id="patch_5">
    <path d="M 57.6 307.584 
L 414.72 307.584 
" style="fill: none; stroke: #000000; stroke-width: 0.8; stroke-linejoin: miter; stroke-linecap: square"/>
   </g>
   <g id="patch_6">
    <path d="M 57.6 41.472 
L 414.72 41.472 
" style="fill: none; stroke: #000000; stroke-width: 0.8; stroke-linejoin: miter; stroke-linecap: square"/>
   </g>
   <g id="legend_1">
    <g id="patch_7">
     <path d="M 64.6 78.82825 
L 129.342187 78.82825 
Q 131.342187 78.82825 131.342187 76.82825 
L 131.342187 48.472 
Q 131.342187 46.472 129.342187 46.472 
L 64.6 46.472 
Q 62.6 46.472 62.6 48.472 
L 62.6 76.82825 
Q 62.6 78.82825 64.6 78.82825 
z
" style="fill: #ffffff; opacity: 0.8; stroke: #cccccc; stroke-linejoin: miter"/>
    </g>
    <g id="line2d_16">
     <path d="M 66.6 54.570437 
L 76.6 54.570437 
L 86.6 54.570437 
" style="fill: none; stroke: #1f77b4; stroke-width: 1.5; stroke-linecap: square"/>
    </g>
    <g id="text_16">
     <!-- qc -->
     <g transform="translate(94.6 58.070437) scale(0.1 -0.1)">
      <defs>
       <path id="DejaVuSans-71" d="M 947 1747 
Q 947 1113 1208 752 
Q 1469 391 1925 391 
Q 2381 391 2643 752 
Q 2906 1113 2906 1747 
Q 2906 2381 2643 2742 
Q 2381 3103 1925 3103 
Q 1469 3103 1208 2742 
Q 947 2381 947 1747 
z
M 2906 525 
Q 2725 213 2448 61 
Q 2172 -91 1784 -91 
Q 1150 -91 751 415 
Q 353 922 353 1747 
Q 353 2572 751 3078 
Q 1150 3584 1784 3584 
Q 2172 3584 2448 3432 
Q 2725 3281 2906 2969 
L 2906 3500 
L 3481 3500 
L 3481 -1331 
L 2906 -1331 
L 2906 525 
z
" transform="scale(0.015625)"/>
       <path id="DejaVuSans-63" d="M 3122 3366 
L 3122 2828 
Q 2878 2963 2633 3030 
Q 2388 3097 2138 3097 
Q 1578 3097 1268 2742 
Q 959 2388 959 1747 
Q 959 1106 1268 751 
Q 1578 397 2138 397 
Q 2388 397 2633 464 
Q 2878 531 3122 666 
L 3122 134 
Q 2881 22 2623 -34 
Q 2366 -91 2075 -91 
Q 1284 -91 818 406 
Q 353 903 353 1747 
Q 353 2603 823 3093 
Q 1294 3584 2113 3584 
Q 2378 3584 2631 3529 
Q 2884 3475 3122 3366 
z
" transform="scale(0.015625)"/>
      </defs>
      <use xlink:href="#DejaVuSans-71"/>
      <use xlink:href="#DejaVuSans-63" x="63.476562"/>
     </g>
    </g>
    <g id="line2d_17">
     <path d="M 66.6 69.248562 
L 76.6 69.248562 
L 86.6 69.248562 
" style="fill: none; stroke: #ff7f0e; stroke-width: 1.5; stroke-linecap: square"/>
    </g>
    <g id="text_17">
     <!-- Trotter -->
     <g transform="translate(94.6 72.748562) scale(0.1 -0.1)">
      <defs>
       <path id="DejaVuSans-54" d="M -19 4666 
L 3928 4666 
L 3928 4134 
L 2272 4134 
L 2272 0 
L 1638 0 
L 1638 4134 
L -19 4134 
L -19 4666 
z
" transform="scale(0.015625)"/>
       <path id="DejaVuSans-72" d="M 2631 2963 
Q 2534 3019 2420 3045 
Q 2306 3072 2169 3072 
Q 1681 3072 1420 2755 
Q 1159 2438 1159 1844 
L 1159 0 
L 581 0 
L 581 3500 
L 1159 3500 
L 1159 2956 
Q 1341 3275 1631 3429 
Q 1922 3584 2338 3584 
Q 2397 3584 2469 3576 
Q 2541 3569 2628 3553 
L 2631 2963 
z
" transform="scale(0.015625)"/>
       <path id="DejaVuSans-6f" d="M 1959 3097 
Q 1497 3097 1228 2736 
Q 959 2375 959 1747 
Q 959 1119 1226 758 
Q 1494 397 1959 397 
Q 2419 397 2687 759 
Q 2956 1122 2956 1747 
Q 2956 2369 2687 2733 
Q 2419 3097 1959 3097 
z
M 1959 3584 
Q 2709 3584 3137 3096 
Q 3566 2609 3566 1747 
Q 3566 888 3137 398 
Q 2709 -91 1959 -91 
Q 1206 -91 779 398 
Q 353 888 353 1747 
Q 353 2609 779 3096 
Q 1206 3584 1959 3584 
z
" transform="scale(0.015625)"/>
       <path id="DejaVuSans-65" d="M 3597 1894 
L 3597 1613 
L 953 1613 
Q 991 1019 1311 708 
Q 1631 397 2203 397 
Q 2534 397 2845 478 
Q 3156 559 3463 722 
L 3463 178 
Q 3153 47 2828 -22 
Q 2503 -91 2169 -91 
Q 1331 -91 842 396 
Q 353 884 353 1716 
Q 353 2575 817 3079 
Q 1281 3584 2069 3584 
Q 2775 3584 3186 3129 
Q 3597 2675 3597 1894 
z
M 3022 2063 
Q 3016 2534 2758 2815 
Q 2500 3097 2075 3097 
Q 1594 3097 1305 2825 
Q 1016 2553 972 2059 
L 3022 2063 
z
" transform="scale(0.015625)"/>
      </defs>
      <use xlink:href="#DejaVuSans-54"/>
      <use xlink:href="#DejaVuSans-72" x="46.333984"/>
      <use xlink:href="#DejaVuSans-6f" x="85.197266"/>
      <use xlink:href="#DejaVuSans-74" x="146.378906"/>
      <use xlink:href="#DejaVuSans-74" x="185.587891"/>
      <use xlink:href="#DejaVuSans-65" x="224.796875"/>
      <use xlink:href="#DejaVuSans-72" x="286.320312"/>
     </g>
    </g>
   </g>
  </g>
 </g>
 <defs>
  <clipPath id="pcabc17f503">
   <rect x="57.6" y="41.472" width="357.12" height="266.112"/>
  </clipPath>
 </defs>
</svg>
