<?xml version="1.0" encoding="utf-8" standalone="no"?>
<!DOCTYPE svg PUBLIC "-//W3C//DTD SVG 1.1//EN"
  "http://www.w3.org/Graphics/SVG/1.1/DTD/svg11.dtd">
<svg xmlns:xlink="http://www.w3.org/1999/xlink" width="460.8pt" height="345.6pt" viewBox="0 0 460.8 345.6" xmlns="http://www.w3.org/2000/svg" version="1.1">
 <metadata>
  <rdf:RDF xmlns:dc="http://purl.org/dc/elements/1.1/" xmlns:cc="http://creativecommons.org/ns#" xmlns:rdf="http://www.w3.org/1999/02/22-rdf-syntax-ns#">
   <cc:Work>
    <dc:type rdf:resource="http://purl.org/dc/dcmitype/StillImage"/>
    <dc:date>2024-08-23T11:29:55.553058</dc:date>
    <dc:format>image/svg+xml</dc:format>
    <dc:creator>
     <cc:Agent>
      <dc:title>Matplotlib v3.7.1, https://matplotlib.org/</dc:title>
     </cc:Agent>
    </dc:creator>
   </cc:Work>
  </rdf:RDF>
 </metadata>
 <defs>
  <style type="text/css">*{stroke-linejoin: round; stroke-linecap: butt}</style>
 </defs>
 <g id="figure_1">
  <g id="patch_1">
   <path d="M 0 345.6 
L 460.8 345.6 
L 460.8 0 
L 0 0 
z
" style="fill: #ffffff"/>
  </g>
  <g id="axes_1">
   <g id="patch_2">
    <path d="M 57.6 307.584 
L 414.72 307.584 
L 414.72 41.472 
L 57.6 41.472 
z
" style="fill: #ffffff"/>
   </g>
   <g id="matplotlib.axis_1">
    <g id="xtick_1">
     <g id="line2d_1">
      <defs>
       <path id="mbc35bebf6b" d="M 0 0 
L 0 3.5 
" style="stroke: #000000; stroke-width: 0.8"/>
      </defs>
      <g>
       <use xlink:href="#mbc35bebf6b" x="73.832727" y="307.584" style="stroke: #000000; stroke-width: 0.8"/>
      </g>
     </g>
     <g id="text_1">
      <!-- 0 -->
      <g transform="translate(70.651477 322.182437) scale(0.1 -0.1)">
       <defs>
        <path id="DejaVuSans-30" d="M 2034 4250 
Q 1547 4250 1301 3770 
Q 1056 3291 1056 2328 
Q 1056 1369 1301 889 
Q 1547 409 2034 409 
Q 2525 409 2770 889 
Q 3016 1369 3016 2328 
Q 3016 3291 2770 3770 
Q 2525 4250 2034 4250 
z
M 2034 4750 
Q 2819 4750 3233 4129 
Q 3647 3509 3647 2328 
Q 3647 1150 3233 529 
Q 2819 -91 2034 -91 
Q 1250 -91 836 529 
Q 422 1150 422 2328 
Q 422 3509 836 4129 
Q 1250 4750 2034 4750 
z
" transform="scale(0.015625)"/>
       </defs>
       <use xlink:href="#DejaVuSans-30"/>
      </g>
     </g>
    </g>
    <g id="xtick_2">
     <g id="line2d_2">
      <g>
       <use xlink:href="#mbc35bebf6b" x="137.303802" y="307.584" style="stroke: #000000; stroke-width: 0.8"/>
      </g>
     </g>
     <g id="text_2">
      <!-- 200 -->
      <g transform="translate(127.760052 322.182437) scale(0.1 -0.1)">
       <defs>
        <path id="DejaVuSans-32" d="M 1228 531 
L 3431 531 
L 3431 0 
L 469 0 
L 469 531 
Q 828 903 1448 1529 
Q 2069 2156 2228 2338 
Q 2531 2678 2651 2914 
Q 2772 3150 2772 3378 
Q 2772 3750 2511 3984 
Q 2250 4219 1831 4219 
Q 1534 4219 1204 4116 
Q 875 4013 500 3803 
L 500 4441 
Q 881 4594 1212 4672 
Q 1544 4750 1819 4750 
Q 2544 4750 2975 4387 
Q 3406 4025 3406 3419 
Q 3406 3131 3298 2873 
Q 3191 2616 2906 2266 
Q 2828 2175 2409 1742 
Q 1991 1309 1228 531 
z
" transform="scale(0.015625)"/>
       </defs>
       <use xlink:href="#DejaVuSans-32"/>
       <use xlink:href="#DejaVuSans-30" x="63.623047"/>
       <use xlink:href="#DejaVuSans-30" x="127.246094"/>
      </g>
     </g>
    </g>
    <g id="xtick_3">
     <g id="line2d_3">
      <g>
       <use xlink:href="#mbc35bebf6b" x="200.774876" y="307.584" style="stroke: #000000; stroke-width: 0.8"/>
      </g>
     </g>
     <g id="text_3">
      <!-- 400 -->
      <g transform="translate(191.231126 322.182437) scale(0.1 -0.1)">
       <defs>
        <path id="DejaVuSans-34" d="M 2419 4116 
L 825 1625 
L 2419 1625 
L 2419 4116 
z
M 2253 4666 
L 3047 4666 
L 3047 1625 
L 3713 1625 
L 3713 1100 
L 3047 1100 
L 3047 0 
L 2419 0 
L 2419 1100 
L 313 1100 
L 313 1709 
L 2253 4666 
z
" transform="scale(0.015625)"/>
       </defs>
       <use xlink:href="#DejaVuSans-34"/>
       <use xlink:href="#DejaVuSans-30" x="63.623047"/>
       <use xlink:href="#DejaVuSans-30" x="127.246094"/>
      </g>
     </g>
    </g>
    <g id="xtick_4">
     <g id="line2d_4">
      <g>
       <use xlink:href="#mbc35bebf6b" x="264.24595" y="307.584" style="stroke: #000000; stroke-width: 0.8"/>
      </g>
     </g>
     <g id="text_4">
      <!-- 600 -->
      <g transform="translate(254.7022 322.182437) scale(0.1 -0.1)">
       <defs>
        <path id="DejaVuSans-36" d="M 2113 2584 
Q 1688 2584 1439 2293 
Q 1191 2003 1191 1497 
Q 1191 994 1439 701 
Q 1688 409 2113 409 
Q 2538 409 2786 701 
Q 3034 994 3034 1497 
Q 3034 2003 2786 2293 
Q 2538 2584 2113 2584 
z
M 3366 4563 
L 3366 3988 
Q 3128 4100 2886 4159 
Q 2644 4219 2406 4219 
Q 1781 4219 1451 3797 
Q 1122 3375 1075 2522 
Q 1259 2794 1537 2939 
Q 1816 3084 2150 3084 
Q 2853 3084 3261 2657 
Q 3669 2231 3669 1497 
Q 3669 778 3244 343 
Q 2819 -91 2113 -91 
Q 1303 -91 875 529 
Q 447 1150 447 2328 
Q 447 3434 972 4092 
Q 1497 4750 2381 4750 
Q 2619 4750 2861 4703 
Q 3103 4656 3366 4563 
z
" transform="scale(0.015625)"/>
       </defs>
       <use xlink:href="#DejaVuSans-36"/>
       <use xlink:href="#DejaVuSans-30" x="63.623047"/>
       <use xlink:href="#DejaVuSans-30" x="127.246094"/>
      </g>
     </g>
    </g>
    <g id="xtick_5">
     <g id="line2d_5">
      <g>
       <use xlink:href="#mbc35bebf6b" x="327.717025" y="307.584" style="stroke: #000000; stroke-width: 0.8"/>
      </g>
     </g>
     <g id="text_5">
      <!-- 800 -->
      <g transform="translate(318.173275 322.182437) scale(0.1 -0.1)">
       <defs>
        <path id="DejaVuSans-38" d="M 2034 2216 
Q 1584 2216 1326 1975 
Q 1069 1734 1069 1313 
Q 1069 891 1326 650 
Q 1584 409 2034 409 
Q 2484 409 2743 651 
Q 3003 894 3003 1313 
Q 3003 1734 2745 1975 
Q 2488 2216 2034 2216 
z
M 1403 2484 
Q 997 2584 770 2862 
Q 544 3141 544 3541 
Q 544 4100 942 4425 
Q 1341 4750 2034 4750 
Q 2731 4750 3128 4425 
Q 3525 4100 3525 3541 
Q 3525 3141 3298 2862 
Q 3072 2584 2669 2484 
Q 3125 2378 3379 2068 
Q 3634 1759 3634 1313 
Q 3634 634 3220 271 
Q 2806 -91 2034 -91 
Q 1263 -91 848 271 
Q 434 634 434 1313 
Q 434 1759 690 2068 
Q 947 2378 1403 2484 
z
M 1172 3481 
Q 1172 3119 1398 2916 
Q 1625 2713 2034 2713 
Q 2441 2713 2670 2916 
Q 2900 3119 2900 3481 
Q 2900 3844 2670 4047 
Q 2441 4250 2034 4250 
Q 1625 4250 1398 4047 
Q 1172 3844 1172 3481 
z
" transform="scale(0.015625)"/>
       </defs>
       <use xlink:href="#DejaVuSans-38"/>
       <use xlink:href="#DejaVuSans-30" x="63.623047"/>
       <use xlink:href="#DejaVuSans-30" x="127.246094"/>
      </g>
     </g>
    </g>
    <g id="xtick_6">
     <g id="line2d_6">
      <g>
       <use xlink:href="#mbc35bebf6b" x="391.188099" y="307.584" style="stroke: #000000; stroke-width: 0.8"/>
      </g>
     </g>
     <g id="text_6">
      <!-- 1000 -->
      <g transform="translate(378.463099 322.182437) scale(0.1 -0.1)">
       <defs>
        <path id="DejaVuSans-31" d="M 794 531 
L 1825 531 
L 1825 4091 
L 703 3866 
L 703 4441 
L 1819 4666 
L 2450 4666 
L 2450 531 
L 3481 531 
L 3481 0 
L 794 0 
L 794 531 
z
" transform="scale(0.015625)"/>
       </defs>
       <use xlink:href="#DejaVuSans-31"/>
       <use xlink:href="#DejaVuSans-30" x="63.623047"/>
       <use xlink:href="#DejaVuSans-30" x="127.246094"/>
       <use xlink:href="#DejaVuSans-30" x="190.869141"/>
      </g>
     </g>
    </g>
    <g id="text_7">
     <!-- n -->
     <g transform="translate(232.99125 335.860562) scale(0.1 -0.1)">
      <defs>
       <path id="DejaVuSans-6e" d="M 3513 2113 
L 3513 0 
L 2938 0 
L 2938 2094 
Q 2938 2591 2744 2837 
Q 2550 3084 2163 3084 
Q 1697 3084 1428 2787 
Q 1159 2491 1159 1978 
L 1159 0 
L 581 0 
L 581 3500 
L 1159 3500 
L 1159 2956 
Q 1366 3272 1645 3428 
Q 1925 3584 2291 3584 
Q 2894 3584 3203 3211 
Q 3513 2838 3513 2113 
z
" transform="scale(0.015625)"/>
      </defs>
      <use xlink:href="#DejaVuSans-6e"/>
     </g>
    </g>
   </g>
   <g id="matplotlib.axis_2">
    <g id="ytick_1">
     <g id="line2d_7">
      <defs>
       <path id="m6fcca6e89c" d="M 0 0 
L -3.5 0 
" style="stroke: #000000; stroke-width: 0.8"/>
      </defs>
      <g>
       <use xlink:href="#m6fcca6e89c" x="57.6" y="298.27729" style="stroke: #000000; stroke-width: 0.8"/>
      </g>
     </g>
     <g id="text_8">
      <!-- −10 -->
      <g transform="translate(29.495313 302.076509) scale(0.1 -0.1)">
       <defs>
        <path id="DejaVuSans-2212" d="M 678 2272 
L 4684 2272 
L 4684 1741 
L 678 1741 
L 678 2272 
z
" transform="scale(0.015625)"/>
       </defs>
       <use xlink:href="#DejaVuSans-2212"/>
       <use xlink:href="#DejaVuSans-31" x="83.789062"/>
       <use xlink:href="#DejaVuSans-30" x="147.412109"/>
      </g>
     </g>
    </g>
    <g id="ytick_2">
     <g id="line2d_8">
      <g>
       <use xlink:href="#m6fcca6e89c" x="57.6" y="267.583592" style="stroke: #000000; stroke-width: 0.8"/>
      </g>
     </g>
     <g id="text_9">
      <!-- −8 -->
      <g transform="translate(35.857813 271.382811) scale(0.1 -0.1)">
       <use xlink:href="#DejaVuSans-2212"/>
       <use xlink:href="#DejaVuSans-38" x="83.789062"/>
      </g>
     </g>
    </g>
    <g id="ytick_3">
     <g id="line2d_9">
      <g>
       <use xlink:href="#m6fcca6e89c" x="57.6" y="236.889895" style="stroke: #000000; stroke-width: 0.8"/>
      </g>
     </g>
     <g id="text_10">
      <!-- −6 -->
      <g transform="translate(35.857813 240.689113) scale(0.1 -0.1)">
       <use xlink:href="#DejaVuSans-2212"/>
       <use xlink:href="#DejaVuSans-36" x="83.789062"/>
      </g>
     </g>
    </g>
    <g id="ytick_4">
     <g id="line2d_10">
      <g>
       <use xlink:href="#m6fcca6e89c" x="57.6" y="206.196197" style="stroke: #000000; stroke-width: 0.8"/>
      </g>
     </g>
     <g id="text_11">
      <!-- −4 -->
      <g transform="translate(35.857813 209.995415) scale(0.1 -0.1)">
       <use xlink:href="#DejaVuSans-2212"/>
       <use xlink:href="#DejaVuSans-34" x="83.789062"/>
      </g>
     </g>
    </g>
    <g id="ytick_5">
     <g id="line2d_11">
      <g>
       <use xlink:href="#m6fcca6e89c" x="57.6" y="175.502499" style="stroke: #000000; stroke-width: 0.8"/>
      </g>
     </g>
     <g id="text_12">
      <!-- −2 -->
      <g transform="translate(35.857813 179.301718) scale(0.1 -0.1)">
       <use xlink:href="#DejaVuSans-2212"/>
       <use xlink:href="#DejaVuSans-32" x="83.789062"/>
      </g>
     </g>
    </g>
    <g id="ytick_6">
     <g id="line2d_12">
      <g>
       <use xlink:href="#m6fcca6e89c" x="57.6" y="144.808801" style="stroke: #000000; stroke-width: 0.8"/>
      </g>
     </g>
     <g id="text_13">
      <!-- 0 -->
      <g transform="translate(44.2375 148.60802) scale(0.1 -0.1)">
       <use xlink:href="#DejaVuSans-30"/>
      </g>
     </g>
    </g>
    <g id="ytick_7">
     <g id="line2d_13">
      <g>
       <use xlink:href="#m6fcca6e89c" x="57.6" y="114.115103" style="stroke: #000000; stroke-width: 0.8"/>
      </g>
     </g>
     <g id="text_14">
      <!-- 2 -->
      <g transform="translate(44.2375 117.914322) scale(0.1 -0.1)">
       <use xlink:href="#DejaVuSans-32"/>
      </g>
     </g>
    </g>
    <g id="ytick_8">
     <g id="line2d_14">
      <g>
       <use xlink:href="#m6fcca6e89c" x="57.6" y="83.421405" style="stroke: #000000; stroke-width: 0.8"/>
      </g>
     </g>
     <g id="text_15">
      <!-- 4 -->
      <g transform="translate(44.2375 87.220624) scale(0.1 -0.1)">
       <use xlink:href="#DejaVuSans-34"/>
      </g>
     </g>
    </g>
    <g id="ytick_9">
     <g id="line2d_15">
      <g>
       <use xlink:href="#m6fcca6e89c" x="57.6" y="52.727708" style="stroke: #000000; stroke-width: 0.8"/>
      </g>
     </g>
     <g id="text_16">
      <!-- 6 -->
      <g transform="translate(44.2375 56.526926) scale(0.1 -0.1)">
       <use xlink:href="#DejaVuSans-36"/>
      </g>
     </g>
    </g>
    <g id="text_17">
     <!-- E*t -->
     <g transform="translate(23.415625 182.147531) rotate(-90) scale(0.1 -0.1)">
      <defs>
       <path id="DejaVuSans-45" d="M 628 4666 
L 3578 4666 
L 3578 4134 
L 1259 4134 
L 1259 2753 
L 3481 2753 
L 3481 2222 
L 1259 2222 
L 1259 531 
L 3634 531 
L 3634 0 
L 628 0 
L 628 4666 
z
" transform="scale(0.015625)"/>
       <path id="DejaVuSans-2a" d="M 3009 3897 
L 1888 3291 
L 3009 2681 
L 2828 2375 
L 1778 3009 
L 1778 1831 
L 1422 1831 
L 1422 3009 
L 372 2375 
L 191 2681 
L 1313 3291 
L 191 3897 
L 372 4206 
L 1422 3572 
L 1422 4750 
L 1778 4750 
L 1778 3572 
L 2828 4206 
L 3009 3897 
z
" transform="scale(0.015625)"/>
       <path id="DejaVuSans-74" d="M 1172 4494 
L 1172 3500 
L 2356 3500 
L 2356 3053 
L 1172 3053 
L 1172 1153 
Q 1172 725 1289 603 
Q 1406 481 1766 481 
L 2356 481 
L 2356 0 
L 1766 0 
Q 1100 0 847 248 
Q 594 497 594 1153 
L 594 3053 
L 172 3053 
L 172 3500 
L 594 3500 
L 594 4494 
L 1172 4494 
z
" transform="scale(0.015625)"/>
      </defs>
      <use xlink:href="#DejaVuSans-45"/>
      <use xlink:href="#DejaVuSans-2a" x="63.183594"/>
      <use xlink:href="#DejaVuSans-74" x="113.183594"/>
     </g>
    </g>
   </g>
   <g id="line2d_16">
    <path d="M 73.832727 295.488 
L 74.150083 284.357489 
L 75.102149 275.596734 
L 75.419504 272.856848 
L 75.73686 272.435167 
L 76.054215 270.949848 
L 76.37157 268.555117 
L 76.688926 267.276582 
L 77.006281 264.152814 
L 77.323636 262.671077 
L 77.640992 262.48656 
L 77.958347 260.91499 
L 78.275702 260.471415 
L 78.593058 258.522707 
L 78.910413 257.961999 
L 79.545124 256.305219 
L 79.862479 255.993388 
L 80.179835 254.652383 
L 81.766612 251.515893 
L 82.083967 251.363211 
L 82.401322 250.907559 
L 82.718678 249.37287 
L 83.036033 248.661677 
L 83.670744 248.036815 
L 83.988099 247.243276 
L 84.62281 246.531272 
L 84.940165 245.873341 
L 85.574876 245.08628 
L 85.892231 244.382268 
L 86.209587 244.215537 
L 86.844298 243.131121 
L 87.796364 241.760805 
L 88.113719 241.49019 
L 88.431074 240.978129 
L 90.652562 239.039949 
L 90.969917 238.052243 
L 91.921983 236.824805 
L 92.239339 236.211406 
L 93.826116 235.098433 
L 94.460826 234.372538 
L 94.778182 234.307707 
L 96.047603 232.764175 
L 96.364959 232.531425 
L 96.999669 231.802524 
L 97.951736 231.183189 
L 98.903802 230.361549 
L 99.221157 229.873 
L 99.855868 229.4582 
L 100.173223 229.261247 
L 100.807934 228.470838 
L 102.712066 227.064504 
L 103.346777 226.063786 
L 103.664132 225.857642 
L 103.981488 225.807035 
L 104.298843 225.250214 
L 104.616198 224.972981 
L 104.933554 224.864897 
L 105.568264 224.346667 
L 106.837686 223.670221 
L 107.155041 223.387423 
L 107.789752 223.042591 
L 108.424463 222.674642 
L 109.059174 222.350671 
L 110.328595 221.442345 
L 110.64595 221.400274 
L 111.280661 221.008703 
L 111.598017 220.90416 
L 112.550083 220.135928 
L 112.867438 220.030387 
L 113.819504 219.272865 
L 114.13686 219.170458 
L 114.77157 218.770405 
L 116.040992 218.072817 
L 116.358347 217.978612 
L 117.310413 217.190098 
L 117.627769 217.005151 
L 117.945124 216.95413 
L 118.262479 216.521525 
L 121.753388 214.738225 
L 122.070744 214.354457 
L 123.340165 213.77831 
L 123.657521 213.512054 
L 123.974876 213.466982 
L 125.879008 212.411987 
L 126.513719 212.171609 
L 127.465785 211.636191 
L 135.717025 207.612358 
L 136.03438 207.2836 
L 137.303802 206.679193 
L 137.938512 206.375543 
L 139.842645 205.543156 
L 140.477355 205.227137 
L 140.794711 205.167048 
L 141.112066 204.920966 
L 141.429421 204.909975 
L 141.746777 204.623004 
L 142.381488 204.532244 
L 142.698843 204.340363 
L 143.333554 204.160477 
L 149.04595 201.610788 
L 149.680661 201.304702 
L 152.53686 200.033727 
L 153.17157 199.827982 
L 154.440992 199.306698 
L 156.027769 198.547191 
L 157.931901 197.920247 
L 158.566612 197.653004 
L 160.153388 197.145501 
L 160.470744 196.937293 
L 160.788099 196.874165 
L 161.740165 196.366595 
L 163.009587 196.00419 
L 163.644298 195.662247 
L 164.596364 195.402592 
L 165.231074 195.074173 
L 166.18314 194.742688 
L 167.452562 194.315353 
L 167.769917 194.070328 
L 170.30876 193.224216 
L 172.530248 192.370115 
L 173.164959 192.237659 
L 173.799669 191.950356 
L 174.751736 191.628033 
L 175.703802 191.298407 
L 178.56 190.249715 
L 178.877355 190.217659 
L 179.512066 189.918613 
L 179.829421 189.869404 
L 180.464132 189.601496 
L 181.098843 189.367259 
L 181.733554 189.175084 
L 182.050909 189.114584 
L 182.368264 188.882361 
L 183.002975 188.751575 
L 185.541818 187.772816 
L 186.493884 187.381419 
L 187.128595 187.171128 
L 188.080661 186.715903 
L 188.398017 186.672265 
L 188.715372 186.455194 
L 189.350083 186.299117 
L 190.93686 185.762319 
L 191.254215 185.691265 
L 191.888926 185.351237 
L 192.840992 185.231835 
L 194.110413 184.667091 
L 194.745124 184.490187 
L 196.014545 184.065152 
L 196.649256 183.723283 
L 197.283967 183.538101 
L 198.236033 183.304315 
L 199.82281 182.779504 
L 200.774876 182.441522 
L 202.679008 181.866836 
L 203.313719 181.589717 
L 214.738512 177.471202 
L 215.055868 177.462522 
L 216.007934 177.031583 
L 216.325289 176.994806 
L 216.96 176.678992 
L 217.277355 176.656926 
L 218.229421 176.281679 
L 218.864132 176.142111 
L 219.181488 175.958019 
L 219.816198 175.806976 
L 220.450909 175.562818 
L 221.08562 175.335136 
L 221.720331 175.179902 
L 223.624463 174.580337 
L 225.21124 174.124842 
L 228.067438 173.186082 
L 228.384793 173.146784 
L 228.702149 172.985341 
L 229.019504 172.970065 
L 229.33686 172.724891 
L 229.97157 172.542178 
L 230.288926 172.374206 
L 230.923636 172.215078 
L 232.193058 171.817877 
L 233.145124 171.471683 
L 234.731901 170.92535 
L 236.636033 170.277352 
L 238.540165 169.77609 
L 239.809587 169.334829 
L 240.444298 169.249146 
L 241.079008 168.978445 
L 243.935207 168.023193 
L 244.252562 167.797555 
L 244.887273 167.693228 
L 246.47405 167.098383 
L 247.426116 166.752789 
L 248.060826 166.46915 
L 250.599669 165.619593 
L 257.898843 163.285889 
L 258.216198 163.078793 
L 258.850909 162.87228 
L 260.437686 162.362073 
L 261.072397 162.25183 
L 261.389752 162.065258 
L 262.024463 161.86749 
L 262.659174 161.645063 
L 262.976529 161.609399 
L 263.61124 161.399603 
L 264.880661 160.921029 
L 266.150083 160.512241 
L 267.419504 160.046446 
L 267.73686 160.005064 
L 268.688926 159.60713 
L 272.49719 158.196421 
L 275.036033 157.26239 
L 275.670744 157.084376 
L 277.257521 156.526191 
L 277.574876 156.317701 
L 278.526942 156.058378 
L 279.479008 155.72143 
L 280.74843 155.21828 
L 282.017851 154.850785 
L 282.335207 154.602578 
L 282.652562 154.564384 
L 283.287273 154.255063 
L 285.50876 153.511887 
L 286.143471 153.165044 
L 288.047603 152.611905 
L 288.999669 152.156679 
L 289.63438 151.941956 
L 290.903802 151.580775 
L 291.855868 151.127749 
L 292.173223 151.070293 
L 292.807934 150.830054 
L 293.76 150.535047 
L 294.394711 150.275397 
L 296.298843 149.51409 
L 296.933554 149.239296 
L 299.472397 148.242823 
L 300.107107 148.028948 
L 300.741818 147.781615 
L 301.376529 147.472491 
L 302.01124 147.253745 
L 306.13686 145.742229 
L 306.454215 145.692972 
L 307.406281 145.296104 
L 311.849256 143.568718 
L 312.166612 143.347887 
L 313.436033 142.946373 
L 315.02281 142.30686 
L 315.340165 142.226071 
L 315.974876 141.869394 
L 321.052562 139.780815 
L 322.004628 139.300705 
L 322.639339 139.15329 
L 323.90876 138.571663 
L 324.860826 138.251021 
L 326.130248 137.686705 
L 328.03438 136.93998 
L 328.351736 136.868272 
L 329.303802 136.385627 
L 330.573223 135.919364 
L 331.842645 135.242683 
L 333.112066 134.75953 
L 333.429421 134.729047 
L 333.746777 134.455664 
L 334.064132 134.357302 
L 334.381488 134.131278 
L 334.698843 134.108963 
L 337.555041 132.686444 
L 338.189752 132.374316 
L 338.824463 132.132371 
L 339.776529 131.636191 
L 340.728595 131.314568 
L 344.53686 129.427127 
L 344.854215 129.334186 
L 346.123636 128.597104 
L 349.614545 126.998561 
L 350.249256 126.552764 
L 351.201322 126.16652 
L 351.836033 125.541154 
L 352.153388 125.473608 
L 353.42281 124.785307 
L 354.374876 124.264144 
L 354.692231 123.865685 
L 355.961653 123.289767 
L 357.231074 122.692412 
L 357.54843 122.605107 
L 357.865785 122.231473 
L 358.18314 122.084131 
L 358.817851 121.538276 
L 360.404628 120.514734 
L 361.039339 119.847647 
L 361.991405 119.222825 
L 362.30876 119.045382 
L 362.943471 118.526525 
L 364.530248 117.452967 
L 364.847603 117.204163 
L 365.164959 117.125103 
L 365.799669 116.557517 
L 366.117025 116.506693 
L 368.973223 114.170655 
L 369.607934 113.769484 
L 370.242645 113.11066 
L 370.56 112.96724 
L 370.877355 112.663921 
L 371.194711 112.183238 
L 371.829421 111.982771 
L 372.464132 111.322926 
L 373.098843 110.928842 
L 375.002975 109.551906 
L 375.320331 109.185664 
L 375.637686 109.02766 
L 376.272397 108.135212 
L 376.907107 107.319495 
L 377.224463 107.200106 
L 377.859174 106.565465 
L 378.176529 106.405656 
L 378.493884 105.955031 
L 378.81124 105.788801 
L 379.128595 105.49202 
L 379.763306 104.646456 
L 380.398017 103.935233 
L 380.715372 103.838881 
L 381.350083 103.141601 
L 381.667438 102.993824 
L 382.619504 101.725828 
L 382.93686 101.547881 
L 383.254215 101.15515 
L 383.57157 100.517198 
L 385.158347 99.080588 
L 385.475702 98.764409 
L 386.110413 97.066556 
L 386.427769 96.902498 
L 387.062479 96.059349 
L 387.69719 95.440106 
L 388.014545 95.219386 
L 388.966612 93.664581 
L 389.918678 92.339394 
L 390.553388 90.604187 
L 391.188099 89.557877 
L 391.82281 88.623447 
L 393.092231 84.862979 
L 393.409587 84.476721 
L 394.044298 82.511077 
L 394.361653 82.295554 
L 394.679008 80.747697 
L 394.996364 79.834082 
L 395.631074 78.823405 
L 395.94843 77.507592 
L 396.265785 76.948086 
L 396.900496 73.980282 
L 397.217851 71.036786 
L 397.535207 69.491005 
L 397.852562 67.122632 
L 398.487273 53.568 
L 398.487273 53.568 
" clip-path="url(#p772e4c5fe1)" style="fill: none; stroke: #1f77b4; stroke-width: 1.5; stroke-linecap: square"/>
   </g>
   <g id="line2d_17">
    <path d="M 73.832727 210.191559 
L 74.150083 202.562095 
L 74.467438 202.562095 
L 74.784793 196.040457 
L 75.102149 194.68582 
L 75.73686 194.68582 
L 76.054215 192.245686 
L 76.37157 188.126402 
L 76.688926 187.873672 
L 77.006281 187.873672 
L 77.323636 187.236284 
L 78.910413 187.236284 
L 79.227769 184.912354 
L 79.545124 184.912354 
L 79.862479 184.071099 
L 80.179835 183.551359 
L 80.49719 183.551359 
L 80.814545 180.981596 
L 81.131901 179.771987 
L 82.083967 179.751189 
L 82.401322 179.035289 
L 86.844298 178.994642 
L 87.161653 178.602653 
L 87.479008 176.740532 
L 87.796364 176.328885 
L 88.113719 175.684239 
L 89.700496 175.684239 
L 90.017851 174.860572 
L 90.652562 174.860572 
L 90.969917 173.90376 
L 91.287273 173.90376 
L 91.604628 173.405337 
L 91.921983 172.123313 
L 99.221157 172.123313 
L 99.538512 171.359399 
L 99.855868 171.359399 
L 100.173223 171.178701 
L 101.76 171.178701 
L 102.077355 170.386883 
L 103.664132 170.386883 
L 103.981488 170.208278 
L 104.298843 169.899537 
L 104.933554 169.899537 
L 105.250909 168.813665 
L 106.202975 168.75894 
L 106.520331 166.308306 
L 107.155041 166.066166 
L 107.472397 166.066166 
L 107.789752 165.501856 
L 109.376529 165.501856 
L 109.693884 164.263381 
L 110.01124 164.263381 
L 110.328595 162.895255 
L 129.369917 162.895198 
L 129.687273 162.117739 
L 130.321983 161.386531 
L 131.27405 161.339912 
L 131.591405 160.703915 
L 131.90876 160.703915 
L 132.226116 160.558611 
L 132.860826 160.558611 
L 133.178182 159.334272 
L 133.495537 159.334272 
L 133.812893 159.077897 
L 135.399669 159.077897 
L 135.717025 158.033805 
L 136.669091 157.597842 
L 163.009587 157.597842 
L 163.326942 156.514208 
L 167.135207 156.514208 
L 167.452562 156.316169 
L 167.769917 156.316169 
L 168.087273 154.975031 
L 168.404628 154.975031 
L 168.721983 154.617057 
L 169.356694 154.617057 
L 169.67405 154.38605 
L 169.991405 153.832749 
L 171.578182 153.832749 
L 172.847603 153.277126 
L 180.146777 153.277126 
L 180.464132 152.992248 
L 180.781488 152.992248 
L 181.098843 152.712815 
L 182.68562 152.712815 
L 183.320331 150.106158 
L 185.541818 150.08297 
L 185.859174 149.931523 
L 186.493884 149.931523 
L 186.81124 149.702767 
L 187.128595 149.129517 
L 187.44595 149.129517 
L 187.763306 148.741262 
L 188.080661 148.741262 
L 188.398017 147.120397 
L 188.715372 144.808801 
L 283.604628 144.808801 
L 284.239339 140.87634 
L 284.556694 140.87634 
L 284.87405 140.488085 
L 285.191405 140.488085 
L 285.50876 139.914836 
L 285.826116 139.686079 
L 286.460826 139.686079 
L 286.778182 139.534632 
L 288.999669 139.511445 
L 289.63438 136.904787 
L 291.221157 136.904787 
L 291.538512 136.625354 
L 291.855868 136.625354 
L 292.173223 136.340477 
L 299.472397 136.340477 
L 299.789752 136.174971 
L 300.107107 136.174971 
L 300.741818 135.784854 
L 302.328595 135.784854 
L 302.64595 135.231552 
L 302.963306 135.000545 
L 303.598017 135.000545 
L 303.915372 134.642571 
L 304.232727 134.642571 
L 304.550083 133.301433 
L 304.867438 133.301433 
L 305.184793 133.103394 
L 308.993058 133.103394 
L 309.310413 132.01976 
L 335.968264 131.960324 
L 336.602975 131.583797 
L 336.920331 130.539705 
L 338.507107 130.539705 
L 338.824463 130.28333 
L 339.141818 130.28333 
L 339.459174 129.058991 
L 340.093884 129.058991 
L 340.41124 128.913687 
L 340.728595 128.913687 
L 341.04595 128.27769 
L 341.998017 128.231071 
L 342.315372 127.948059 
L 342.632727 127.499863 
L 342.950083 126.722404 
L 361.991405 126.722347 
L 362.30876 125.354221 
L 362.626116 125.354221 
L 362.943471 124.115746 
L 364.530248 124.115746 
L 364.847603 123.551436 
L 365.482314 123.454123 
L 365.799669 123.309296 
L 366.117025 120.858662 
L 367.069091 120.803937 
L 367.386446 119.718065 
L 368.021157 119.718065 
L 368.655868 119.23072 
L 370.242645 119.23072 
L 370.56 118.438902 
L 372.146777 118.438902 
L 372.464132 118.258203 
L 372.781488 118.258203 
L 373.098843 117.494289 
L 380.398017 117.494289 
L 380.715372 116.212266 
L 381.032727 115.713842 
L 381.350083 115.713842 
L 381.667438 114.75703 
L 382.302149 114.75703 
L 382.619504 113.933363 
L 384.206281 113.933363 
L 384.840992 112.87707 
L 385.158347 111.014949 
L 385.475702 110.62296 
L 389.918678 110.582313 
L 390.236033 109.866413 
L 391.188099 109.845615 
L 391.505455 108.636007 
L 391.82281 106.066243 
L 392.140165 106.066243 
L 392.457521 105.546503 
L 392.774876 104.705248 
L 393.092231 104.705248 
L 393.409587 102.381318 
L 394.996364 102.381318 
L 395.313719 101.74393 
L 395.631074 101.74393 
L 395.94843 101.4912 
L 396.265785 97.371916 
L 396.58314 94.931782 
L 397.217851 94.931782 
L 397.535207 93.577145 
L 397.852562 87.055507 
L 398.169917 87.055507 
L 398.487273 79.426043 
L 398.487273 79.426043 
" clip-path="url(#p772e4c5fe1)" style="fill: none; stroke: #ff7f0e; stroke-width: 1.5; stroke-linecap: square"/>
   </g>
   <g id="patch_3">
    <path d="M 57.6 307.584 
L 57.6 41.472 
" style="fill: none; stroke: #000000; stroke-width: 0.8; stroke-linejoin: miter; stroke-linecap: square"/>
   </g>
   <g id="patch_4">
    <path d="M 414.72 307.584 
L 414.72 41.472 
" style="fill: none; stroke: #000000; stroke-width: 0.8; stroke-linejoin: miter; stroke-linecap: square"/>
   </g>
   <g id="patch_5">
    <path d="M 57.6 307.584 
L 414.72 307.584 
" style="fill: none; stroke: #000000; stroke-width: 0.8; stroke-linejoin: miter; stroke-linecap: square"/>
   </g>
   <g id="patch_6">
    <path d="M 57.6 41.472 
L 414.72 41.472 
" style="fill: none; stroke: #000000; stroke-width: 0.8; stroke-linejoin: miter; stroke-linecap: square"/>
   </g>
   <g id="legend_1">
    <g id="patch_7">
     <path d="M 64.6 78.82825 
L 129.342187 78.82825 
Q 131.342187 78.82825 131.342187 76.82825 
L 131.342187 48.472 
Q 131.342187 46.472 129.342187 46.472 
L 64.6 46.472 
Q 62.6 46.472 62.6 48.472 
L 62.6 76.82825 
Q 62.6 78.82825 64.6 78.82825 
z
" style="fill: #ffffff; opacity: 0.8; stroke: #cccccc; stroke-linejoin: miter"/>
    </g>
    <g id="line2d_18">
     <path d="M 66.6 54.570437 
L 76.6 54.570437 
L 86.6 54.570437 
" style="fill: none; stroke: #1f77b4; stroke-width: 1.5; stroke-linecap: square"/>
    </g>
    <g id="text_18">
     <!-- qc -->
     <g transform="translate(94.6 58.070437) scale(0.1 -0.1)">
      <defs>
       <path id="DejaVuSans-71" d="M 947 1747 
Q 947 1113 1208 752 
Q 1469 391 1925 391 
Q 2381 391 2643 752 
Q 2906 1113 2906 1747 
Q 2906 2381 2643 2742 
Q 2381 3103 1925 3103 
Q 1469 3103 1208 2742 
Q 947 2381 947 1747 
z
M 2906 525 
Q 2725 213 2448 61 
Q 2172 -91 1784 -91 
Q 1150 -91 751 415 
Q 353 922 353 1747 
Q 353 2572 751 3078 
Q 1150 3584 1784 3584 
Q 2172 3584 2448 3432 
Q 2725 3281 2906 2969 
L 2906 3500 
L 3481 3500 
L 3481 -1331 
L 2906 -1331 
L 2906 525 
z
" transform="scale(0.015625)"/>
       <path id="DejaVuSans-63" d="M 3122 3366 
L 3122 2828 
Q 2878 2963 2633 3030 
Q 2388 3097 2138 3097 
Q 1578 3097 1268 2742 
Q 959 2388 959 1747 
Q 959 1106 1268 751 
Q 1578 397 2138 397 
Q 2388 397 2633 464 
Q 2878 531 3122 666 
L 3122 134 
Q 2881 22 2623 -34 
Q 2366 -91 2075 -91 
Q 1284 -91 818 406 
Q 353 903 353 1747 
Q 353 2603 823 3093 
Q 1294 3584 2113 3584 
Q 2378 3584 2631 3529 
Q 2884 3475 3122 3366 
z
" transform="scale(0.015625)"/>
      </defs>
      <use xlink:href="#DejaVuSans-71"/>
      <use xlink:href="#DejaVuSans-63" x="63.476562"/>
     </g>
    </g>
    <g id="line2d_19">
     <path d="M 66.6 69.248562 
L 76.6 69.248562 
L 86.6 69.248562 
" style="fill: none; stroke: #ff7f0e; stroke-width: 1.5; stroke-linecap: square"/>
    </g>
    <g id="text_19">
     <!-- Trotter -->
     <g transform="translate(94.6 72.748562) scale(0.1 -0.1)">
      <defs>
       <path id="DejaVuSans-54" d="M -19 4666 
L 3928 4666 
L 3928 4134 
L 2272 4134 
L 2272 0 
L 1638 0 
L 1638 4134 
L -19 4134 
L -19 4666 
z
" transform="scale(0.015625)"/>
       <path id="DejaVuSans-72" d="M 2631 2963 
Q 2534 3019 2420 3045 
Q 2306 3072 2169 3072 
Q 1681 3072 1420 2755 
Q 1159 2438 1159 1844 
L 1159 0 
L 581 0 
L 581 3500 
L 1159 3500 
L 1159 2956 
Q 1341 3275 1631 3429 
Q 1922 3584 2338 3584 
Q 2397 3584 2469 3576 
Q 2541 3569 2628 3553 
L 2631 2963 
z
" transform="scale(0.015625)"/>
       <path id="DejaVuSans-6f" d="M 1959 3097 
Q 1497 3097 1228 2736 
Q 959 2375 959 1747 
Q 959 1119 1226 758 
Q 1494 397 1959 397 
Q 2419 397 2687 759 
Q 2956 1122 2956 1747 
Q 2956 2369 2687 2733 
Q 2419 3097 1959 3097 
z
M 1959 3584 
Q 2709 3584 3137 3096 
Q 3566 2609 3566 1747 
Q 3566 888 3137 398 
Q 2709 -91 1959 -91 
Q 1206 -91 779 398 
Q 353 888 353 1747 
Q 353 2609 779 3096 
Q 1206 3584 1959 3584 
z
" transform="scale(0.015625)"/>
       <path id="DejaVuSans-65" d="M 3597 1894 
L 3597 1613 
L 953 1613 
Q 991 1019 1311 708 
Q 1631 397 2203 397 
Q 2534 397 2845 478 
Q 3156 559 3463 722 
L 3463 178 
Q 3153 47 2828 -22 
Q 2503 -91 2169 -91 
Q 1331 -91 842 396 
Q 353 884 353 1716 
Q 353 2575 817 3079 
Q 1281 3584 2069 3584 
Q 2775 3584 3186 3129 
Q 3597 2675 3597 1894 
z
M 3022 2063 
Q 3016 2534 2758 2815 
Q 2500 3097 2075 3097 
Q 1594 3097 1305 2825 
Q 1016 2553 972 2059 
L 3022 2063 
z
" transform="scale(0.015625)"/>
      </defs>
      <use xlink:href="#DejaVuSans-54"/>
      <use xlink:href="#DejaVuSans-72" x="46.333984"/>
      <use xlink:href="#DejaVuSans-6f" x="85.197266"/>
      <use xlink:href="#DejaVuSans-74" x="146.378906"/>
      <use xlink:href="#DejaVuSans-74" x="185.587891"/>
      <use xlink:href="#DejaVuSans-65" x="224.796875"/>
      <use xlink:href="#DejaVuSans-72" x="286.320312"/>
     </g>
    </g>
   </g>
  </g>
 </g>
 <defs>
  <clipPath id="p772e4c5fe1">
   <rect x="57.6" y="41.472" width="357.12" height="266.112"/>
  </clipPath>
 </defs>
</svg>
