<?xml version="1.0" encoding="utf-8" standalone="no"?>
<!DOCTYPE svg PUBLIC "-//W3C//DTD SVG 1.1//EN"
  "http://www.w3.org/Graphics/SVG/1.1/DTD/svg11.dtd">
<svg xmlns:xlink="http://www.w3.org/1999/xlink" width="460.8pt" height="345.6pt" viewBox="0 0 460.8 345.6" xmlns="http://www.w3.org/2000/svg" version="1.1">
 <metadata>
  <rdf:RDF xmlns:dc="http://purl.org/dc/elements/1.1/" xmlns:cc="http://creativecommons.org/ns#" xmlns:rdf="http://www.w3.org/1999/02/22-rdf-syntax-ns#">
   <cc:Work>
    <dc:type rdf:resource="http://purl.org/dc/dcmitype/StillImage"/>
    <dc:date>2024-08-31T16:57:37.858807</dc:date>
    <dc:format>image/svg+xml</dc:format>
    <dc:creator>
     <cc:Agent>
      <dc:title>Matplotlib v3.7.1, https://matplotlib.org/</dc:title>
     </cc:Agent>
    </dc:creator>
   </cc:Work>
  </rdf:RDF>
 </metadata>
 <defs>
  <style type="text/css">*{stroke-linejoin: round; stroke-linecap: butt}</style>
 </defs>
 <g id="figure_1">
  <g id="patch_1">
   <path d="M 0 345.6 
L 460.8 345.6 
L 460.8 0 
L 0 0 
z
" style="fill: #ffffff"/>
  </g>
  <g id="axes_1">
   <g id="patch_2">
    <path d="M 57.6 307.584 
L 414.72 307.584 
L 414.72 41.472 
L 57.6 41.472 
z
" style="fill: #ffffff"/>
   </g>
   <g id="matplotlib.axis_1">
    <g id="xtick_1">
     <g id="line2d_1">
      <defs>
       <path id="m5c09ff1fa9" d="M 0 0 
L 0 3.5 
" style="stroke: #000000; stroke-width: 0.8"/>
      </defs>
      <g>
       <use xlink:href="#m5c09ff1fa9" x="73.832727" y="307.584" style="stroke: #000000; stroke-width: 0.8"/>
      </g>
     </g>
     <g id="text_1">
      <!-- 0 -->
      <g transform="translate(70.651477 322.182437) scale(0.1 -0.1)">
       <defs>
        <path id="DejaVuSans-30" d="M 2034 4250 
Q 1547 4250 1301 3770 
Q 1056 3291 1056 2328 
Q 1056 1369 1301 889 
Q 1547 409 2034 409 
Q 2525 409 2770 889 
Q 3016 1369 3016 2328 
Q 3016 3291 2770 3770 
Q 2525 4250 2034 4250 
z
M 2034 4750 
Q 2819 4750 3233 4129 
Q 3647 3509 3647 2328 
Q 3647 1150 3233 529 
Q 2819 -91 2034 -91 
Q 1250 -91 836 529 
Q 422 1150 422 2328 
Q 422 3509 836 4129 
Q 1250 4750 2034 4750 
z
" transform="scale(0.015625)"/>
       </defs>
       <use xlink:href="#DejaVuSans-30"/>
      </g>
     </g>
    </g>
    <g id="xtick_2">
     <g id="line2d_2">
      <g>
       <use xlink:href="#m5c09ff1fa9" x="137.303802" y="307.584" style="stroke: #000000; stroke-width: 0.8"/>
      </g>
     </g>
     <g id="text_2">
      <!-- 200 -->
      <g transform="translate(127.760052 322.182437) scale(0.1 -0.1)">
       <defs>
        <path id="DejaVuSans-32" d="M 1228 531 
L 3431 531 
L 3431 0 
L 469 0 
L 469 531 
Q 828 903 1448 1529 
Q 2069 2156 2228 2338 
Q 2531 2678 2651 2914 
Q 2772 3150 2772 3378 
Q 2772 3750 2511 3984 
Q 2250 4219 1831 4219 
Q 1534 4219 1204 4116 
Q 875 4013 500 3803 
L 500 4441 
Q 881 4594 1212 4672 
Q 1544 4750 1819 4750 
Q 2544 4750 2975 4387 
Q 3406 4025 3406 3419 
Q 3406 3131 3298 2873 
Q 3191 2616 2906 2266 
Q 2828 2175 2409 1742 
Q 1991 1309 1228 531 
z
" transform="scale(0.015625)"/>
       </defs>
       <use xlink:href="#DejaVuSans-32"/>
       <use xlink:href="#DejaVuSans-30" x="63.623047"/>
       <use xlink:href="#DejaVuSans-30" x="127.246094"/>
      </g>
     </g>
    </g>
    <g id="xtick_3">
     <g id="line2d_3">
      <g>
       <use xlink:href="#m5c09ff1fa9" x="200.774876" y="307.584" style="stroke: #000000; stroke-width: 0.8"/>
      </g>
     </g>
     <g id="text_3">
      <!-- 400 -->
      <g transform="translate(191.231126 322.182437) scale(0.1 -0.1)">
       <defs>
        <path id="DejaVuSans-34" d="M 2419 4116 
L 825 1625 
L 2419 1625 
L 2419 4116 
z
M 2253 4666 
L 3047 4666 
L 3047 1625 
L 3713 1625 
L 3713 1100 
L 3047 1100 
L 3047 0 
L 2419 0 
L 2419 1100 
L 313 1100 
L 313 1709 
L 2253 4666 
z
" transform="scale(0.015625)"/>
       </defs>
       <use xlink:href="#DejaVuSans-34"/>
       <use xlink:href="#DejaVuSans-30" x="63.623047"/>
       <use xlink:href="#DejaVuSans-30" x="127.246094"/>
      </g>
     </g>
    </g>
    <g id="xtick_4">
     <g id="line2d_4">
      <g>
       <use xlink:href="#m5c09ff1fa9" x="264.24595" y="307.584" style="stroke: #000000; stroke-width: 0.8"/>
      </g>
     </g>
     <g id="text_4">
      <!-- 600 -->
      <g transform="translate(254.7022 322.182437) scale(0.1 -0.1)">
       <defs>
        <path id="DejaVuSans-36" d="M 2113 2584 
Q 1688 2584 1439 2293 
Q 1191 2003 1191 1497 
Q 1191 994 1439 701 
Q 1688 409 2113 409 
Q 2538 409 2786 701 
Q 3034 994 3034 1497 
Q 3034 2003 2786 2293 
Q 2538 2584 2113 2584 
z
M 3366 4563 
L 3366 3988 
Q 3128 4100 2886 4159 
Q 2644 4219 2406 4219 
Q 1781 4219 1451 3797 
Q 1122 3375 1075 2522 
Q 1259 2794 1537 2939 
Q 1816 3084 2150 3084 
Q 2853 3084 3261 2657 
Q 3669 2231 3669 1497 
Q 3669 778 3244 343 
Q 2819 -91 2113 -91 
Q 1303 -91 875 529 
Q 447 1150 447 2328 
Q 447 3434 972 4092 
Q 1497 4750 2381 4750 
Q 2619 4750 2861 4703 
Q 3103 4656 3366 4563 
z
" transform="scale(0.015625)"/>
       </defs>
       <use xlink:href="#DejaVuSans-36"/>
       <use xlink:href="#DejaVuSans-30" x="63.623047"/>
       <use xlink:href="#DejaVuSans-30" x="127.246094"/>
      </g>
     </g>
    </g>
    <g id="xtick_5">
     <g id="line2d_5">
      <g>
       <use xlink:href="#m5c09ff1fa9" x="327.717025" y="307.584" style="stroke: #000000; stroke-width: 0.8"/>
      </g>
     </g>
     <g id="text_5">
      <!-- 800 -->
      <g transform="translate(318.173275 322.182437) scale(0.1 -0.1)">
       <defs>
        <path id="DejaVuSans-38" d="M 2034 2216 
Q 1584 2216 1326 1975 
Q 1069 1734 1069 1313 
Q 1069 891 1326 650 
Q 1584 409 2034 409 
Q 2484 409 2743 651 
Q 3003 894 3003 1313 
Q 3003 1734 2745 1975 
Q 2488 2216 2034 2216 
z
M 1403 2484 
Q 997 2584 770 2862 
Q 544 3141 544 3541 
Q 544 4100 942 4425 
Q 1341 4750 2034 4750 
Q 2731 4750 3128 4425 
Q 3525 4100 3525 3541 
Q 3525 3141 3298 2862 
Q 3072 2584 2669 2484 
Q 3125 2378 3379 2068 
Q 3634 1759 3634 1313 
Q 3634 634 3220 271 
Q 2806 -91 2034 -91 
Q 1263 -91 848 271 
Q 434 634 434 1313 
Q 434 1759 690 2068 
Q 947 2378 1403 2484 
z
M 1172 3481 
Q 1172 3119 1398 2916 
Q 1625 2713 2034 2713 
Q 2441 2713 2670 2916 
Q 2900 3119 2900 3481 
Q 2900 3844 2670 4047 
Q 2441 4250 2034 4250 
Q 1625 4250 1398 4047 
Q 1172 3844 1172 3481 
z
" transform="scale(0.015625)"/>
       </defs>
       <use xlink:href="#DejaVuSans-38"/>
       <use xlink:href="#DejaVuSans-30" x="63.623047"/>
       <use xlink:href="#DejaVuSans-30" x="127.246094"/>
      </g>
     </g>
    </g>
    <g id="xtick_6">
     <g id="line2d_6">
      <g>
       <use xlink:href="#m5c09ff1fa9" x="391.188099" y="307.584" style="stroke: #000000; stroke-width: 0.8"/>
      </g>
     </g>
     <g id="text_6">
      <!-- 1000 -->
      <g transform="translate(378.463099 322.182437) scale(0.1 -0.1)">
       <defs>
        <path id="DejaVuSans-31" d="M 794 531 
L 1825 531 
L 1825 4091 
L 703 3866 
L 703 4441 
L 1819 4666 
L 2450 4666 
L 2450 531 
L 3481 531 
L 3481 0 
L 794 0 
L 794 531 
z
" transform="scale(0.015625)"/>
       </defs>
       <use xlink:href="#DejaVuSans-31"/>
       <use xlink:href="#DejaVuSans-30" x="63.623047"/>
       <use xlink:href="#DejaVuSans-30" x="127.246094"/>
       <use xlink:href="#DejaVuSans-30" x="190.869141"/>
      </g>
     </g>
    </g>
    <g id="text_7">
     <!-- n -->
     <g transform="translate(232.99125 335.860562) scale(0.1 -0.1)">
      <defs>
       <path id="DejaVuSans-6e" d="M 3513 2113 
L 3513 0 
L 2938 0 
L 2938 2094 
Q 2938 2591 2744 2837 
Q 2550 3084 2163 3084 
Q 1697 3084 1428 2787 
Q 1159 2491 1159 1978 
L 1159 0 
L 581 0 
L 581 3500 
L 1159 3500 
L 1159 2956 
Q 1366 3272 1645 3428 
Q 1925 3584 2291 3584 
Q 2894 3584 3203 3211 
Q 3513 2838 3513 2113 
z
" transform="scale(0.015625)"/>
      </defs>
      <use xlink:href="#DejaVuSans-6e"/>
     </g>
    </g>
   </g>
   <g id="matplotlib.axis_2">
    <g id="ytick_1">
     <g id="line2d_7">
      <defs>
       <path id="m2ef61c585e" d="M 0 0 
L -3.5 0 
" style="stroke: #000000; stroke-width: 0.8"/>
      </defs>
      <g>
       <use xlink:href="#m2ef61c585e" x="57.6" y="295.105752" style="stroke: #000000; stroke-width: 0.8"/>
      </g>
     </g>
     <g id="text_8">
      <!-- −20 -->
      <g transform="translate(29.495313 298.904971) scale(0.1 -0.1)">
       <defs>
        <path id="DejaVuSans-2212" d="M 678 2272 
L 4684 2272 
L 4684 1741 
L 678 1741 
L 678 2272 
z
" transform="scale(0.015625)"/>
       </defs>
       <use xlink:href="#DejaVuSans-2212"/>
       <use xlink:href="#DejaVuSans-32" x="83.789062"/>
       <use xlink:href="#DejaVuSans-30" x="147.412109"/>
      </g>
     </g>
    </g>
    <g id="ytick_2">
     <g id="line2d_8">
      <g>
       <use xlink:href="#m2ef61c585e" x="57.6" y="263.996173" style="stroke: #000000; stroke-width: 0.8"/>
      </g>
     </g>
     <g id="text_9">
      <!-- −15 -->
      <g transform="translate(29.495313 267.795392) scale(0.1 -0.1)">
       <defs>
        <path id="DejaVuSans-35" d="M 691 4666 
L 3169 4666 
L 3169 4134 
L 1269 4134 
L 1269 2991 
Q 1406 3038 1543 3061 
Q 1681 3084 1819 3084 
Q 2600 3084 3056 2656 
Q 3513 2228 3513 1497 
Q 3513 744 3044 326 
Q 2575 -91 1722 -91 
Q 1428 -91 1123 -41 
Q 819 9 494 109 
L 494 744 
Q 775 591 1075 516 
Q 1375 441 1709 441 
Q 2250 441 2565 725 
Q 2881 1009 2881 1497 
Q 2881 1984 2565 2268 
Q 2250 2553 1709 2553 
Q 1456 2553 1204 2497 
Q 953 2441 691 2322 
L 691 4666 
z
" transform="scale(0.015625)"/>
       </defs>
       <use xlink:href="#DejaVuSans-2212"/>
       <use xlink:href="#DejaVuSans-31" x="83.789062"/>
       <use xlink:href="#DejaVuSans-35" x="147.412109"/>
      </g>
     </g>
    </g>
    <g id="ytick_3">
     <g id="line2d_9">
      <g>
       <use xlink:href="#m2ef61c585e" x="57.6" y="232.886594" style="stroke: #000000; stroke-width: 0.8"/>
      </g>
     </g>
     <g id="text_10">
      <!-- −10 -->
      <g transform="translate(29.495313 236.685812) scale(0.1 -0.1)">
       <use xlink:href="#DejaVuSans-2212"/>
       <use xlink:href="#DejaVuSans-31" x="83.789062"/>
       <use xlink:href="#DejaVuSans-30" x="147.412109"/>
      </g>
     </g>
    </g>
    <g id="ytick_4">
     <g id="line2d_10">
      <g>
       <use xlink:href="#m2ef61c585e" x="57.6" y="201.777014" style="stroke: #000000; stroke-width: 0.8"/>
      </g>
     </g>
     <g id="text_11">
      <!-- −5 -->
      <g transform="translate(35.857813 205.576233) scale(0.1 -0.1)">
       <use xlink:href="#DejaVuSans-2212"/>
       <use xlink:href="#DejaVuSans-35" x="83.789062"/>
      </g>
     </g>
    </g>
    <g id="ytick_5">
     <g id="line2d_11">
      <g>
       <use xlink:href="#m2ef61c585e" x="57.6" y="170.667435" style="stroke: #000000; stroke-width: 0.8"/>
      </g>
     </g>
     <g id="text_12">
      <!-- 0 -->
      <g transform="translate(44.2375 174.466653) scale(0.1 -0.1)">
       <use xlink:href="#DejaVuSans-30"/>
      </g>
     </g>
    </g>
    <g id="ytick_6">
     <g id="line2d_12">
      <g>
       <use xlink:href="#m2ef61c585e" x="57.6" y="139.557855" style="stroke: #000000; stroke-width: 0.8"/>
      </g>
     </g>
     <g id="text_13">
      <!-- 5 -->
      <g transform="translate(44.2375 143.357074) scale(0.1 -0.1)">
       <use xlink:href="#DejaVuSans-35"/>
      </g>
     </g>
    </g>
    <g id="ytick_7">
     <g id="line2d_13">
      <g>
       <use xlink:href="#m2ef61c585e" x="57.6" y="108.448276" style="stroke: #000000; stroke-width: 0.8"/>
      </g>
     </g>
     <g id="text_14">
      <!-- 10 -->
      <g transform="translate(37.875 112.247495) scale(0.1 -0.1)">
       <use xlink:href="#DejaVuSans-31"/>
       <use xlink:href="#DejaVuSans-30" x="63.623047"/>
      </g>
     </g>
    </g>
    <g id="ytick_8">
     <g id="line2d_14">
      <g>
       <use xlink:href="#m2ef61c585e" x="57.6" y="77.338696" style="stroke: #000000; stroke-width: 0.8"/>
      </g>
     </g>
     <g id="text_15">
      <!-- 15 -->
      <g transform="translate(37.875 81.137915) scale(0.1 -0.1)">
       <use xlink:href="#DejaVuSans-31"/>
       <use xlink:href="#DejaVuSans-35" x="63.623047"/>
      </g>
     </g>
    </g>
    <g id="ytick_9">
     <g id="line2d_15">
      <g>
       <use xlink:href="#m2ef61c585e" x="57.6" y="46.229117" style="stroke: #000000; stroke-width: 0.8"/>
      </g>
     </g>
     <g id="text_16">
      <!-- 20 -->
      <g transform="translate(37.875 50.028336) scale(0.1 -0.1)">
       <use xlink:href="#DejaVuSans-32"/>
       <use xlink:href="#DejaVuSans-30" x="63.623047"/>
      </g>
     </g>
    </g>
    <g id="text_17">
     <!-- E*t -->
     <g transform="translate(23.415625 182.147531) rotate(-90) scale(0.1 -0.1)">
      <defs>
       <path id="DejaVuSans-45" d="M 628 4666 
L 3578 4666 
L 3578 4134 
L 1259 4134 
L 1259 2753 
L 3481 2753 
L 3481 2222 
L 1259 2222 
L 1259 531 
L 3634 531 
L 3634 0 
L 628 0 
L 628 4666 
z
" transform="scale(0.015625)"/>
       <path id="DejaVuSans-2a" d="M 3009 3897 
L 1888 3291 
L 3009 2681 
L 2828 2375 
L 1778 3009 
L 1778 1831 
L 1422 1831 
L 1422 3009 
L 372 2375 
L 191 2681 
L 1313 3291 
L 191 3897 
L 372 4206 
L 1422 3572 
L 1422 4750 
L 1778 4750 
L 1778 3572 
L 2828 4206 
L 3009 3897 
z
" transform="scale(0.015625)"/>
       <path id="DejaVuSans-74" d="M 1172 4494 
L 1172 3500 
L 2356 3500 
L 2356 3053 
L 1172 3053 
L 1172 1153 
Q 1172 725 1289 603 
Q 1406 481 1766 481 
L 2356 481 
L 2356 0 
L 1766 0 
Q 1100 0 847 248 
Q 594 497 594 1153 
L 594 3053 
L 172 3053 
L 172 3500 
L 594 3500 
L 594 4494 
L 1172 4494 
z
" transform="scale(0.015625)"/>
      </defs>
      <use xlink:href="#DejaVuSans-45"/>
      <use xlink:href="#DejaVuSans-2a" x="63.183594"/>
      <use xlink:href="#DejaVuSans-74" x="113.183594"/>
     </g>
    </g>
   </g>
   <g id="line2d_16">
    <path d="M 73.832727 295.488 
L 74.467438 277.78411 
L 74.784793 277.151554 
L 75.102149 275.438606 
L 75.419504 270.447616 
L 75.73686 269.610718 
L 76.054215 269.160777 
L 76.37157 268.945553 
L 76.688926 266.051596 
L 77.006281 264.906406 
L 77.323636 262.127415 
L 77.640992 260.66661 
L 78.275702 260.269802 
L 78.593058 259.46203 
L 78.910413 259.073627 
L 79.227769 257.085432 
L 79.862479 254.852189 
L 80.179835 254.733242 
L 80.49719 253.237125 
L 80.814545 253.117636 
L 81.766612 250.74934 
L 82.718678 250.350354 
L 83.036033 249.335535 
L 83.353388 249.047682 
L 83.988099 247.77445 
L 84.305455 247.382437 
L 84.62281 246.601769 
L 85.257521 244.731303 
L 85.574876 244.321798 
L 85.892231 244.166041 
L 86.209587 243.711872 
L 86.526942 243.479826 
L 86.844298 242.909416 
L 88.113719 241.923887 
L 88.431074 241.070641 
L 88.74843 241.052844 
L 90.017851 238.466322 
L 90.335207 238.377332 
L 90.652562 237.859174 
L 90.969917 237.783188 
L 91.287273 236.782699 
L 91.604628 236.470945 
L 92.239339 236.278307 
L 92.556694 235.679691 
L 93.50876 235.270677 
L 93.826116 234.695969 
L 94.460826 234.411505 
L 94.778182 233.353063 
L 95.095537 233.179863 
L 96.047603 232.262611 
L 96.364959 232.12543 
L 96.682314 231.373181 
L 96.999669 231.008447 
L 97.317025 230.889233 
L 98.903802 229.709116 
L 99.221157 229.556445 
L 100.490579 228.385609 
L 101.125289 228.225646 
L 101.442645 227.538612 
L 102.077355 226.974442 
L 103.029421 226.021513 
L 103.664132 225.801024 
L 103.981488 225.622827 
L 104.616198 224.771675 
L 105.250909 224.2325 
L 105.88562 224.115764 
L 106.202975 223.395261 
L 107.155041 223.056599 
L 108.424463 222.404161 
L 108.741818 221.897056 
L 109.059174 221.729128 
L 109.376529 221.081211 
L 110.328595 220.810177 
L 110.64595 220.376356 
L 112.550083 219.496775 
L 114.13686 218.39069 
L 114.77157 218.222262 
L 115.088926 217.79515 
L 115.723636 217.518836 
L 117.945124 216.300955 
L 118.579835 215.807677 
L 118.89719 215.763036 
L 119.214545 215.545086 
L 119.849256 215.314599 
L 121.753388 214.330875 
L 122.070744 214.18087 
L 123.02281 213.338737 
L 123.340165 213.305341 
L 123.657521 213.004772 
L 124.292231 212.844352 
L 124.609587 212.549805 
L 125.244298 212.175535 
L 126.196364 211.646898 
L 127.465785 210.971199 
L 128.100496 210.610863 
L 128.735207 210.253389 
L 132.226116 208.655661 
L 132.543471 208.372721 
L 132.860826 208.301181 
L 133.495537 207.901472 
L 134.447603 207.471163 
L 134.764959 207.205255 
L 135.717025 206.936166 
L 136.03438 206.709009 
L 136.351736 206.636538 
L 137.938512 205.670083 
L 138.573223 205.493269 
L 139.525289 205.099155 
L 140.16 204.849797 
L 140.477355 204.550567 
L 144.28562 203.072274 
L 144.602975 202.872843 
L 144.920331 202.815306 
L 145.555041 202.540454 
L 147.459174 201.925907 
L 148.093884 201.62716 
L 151.267438 199.963422 
L 152.219504 199.606943 
L 153.488926 199.092819 
L 154.758347 198.652454 
L 155.710413 198.324007 
L 158.883967 196.917136 
L 159.518678 196.548963 
L 159.836033 196.518788 
L 161.42281 195.737152 
L 163.644298 194.841652 
L 164.913719 194.448674 
L 165.231074 194.183104 
L 166.500496 193.786231 
L 167.769917 193.318873 
L 168.404628 193.112692 
L 169.356694 192.78851 
L 171.578182 191.807694 
L 173.164959 191.286233 
L 173.482314 191.052694 
L 174.117025 190.911788 
L 175.703802 190.225337 
L 176.021157 190.181085 
L 177.607934 189.483184 
L 178.877355 189.017396 
L 179.512066 188.784244 
L 180.146777 188.621565 
L 180.464132 188.366196 
L 183.637686 187.491767 
L 184.589752 187.051181 
L 185.541818 186.529405 
L 186.493884 186.134192 
L 188.715372 185.236516 
L 189.984793 184.911718 
L 199.505455 181.507051 
L 199.82281 181.484809 
L 202.679008 180.29824 
L 204.265785 179.921255 
L 206.169917 179.098402 
L 206.804628 178.753281 
L 208.70876 178.172876 
L 209.660826 177.990736 
L 210.612893 177.683237 
L 211.882314 177.348804 
L 212.517025 177.14481 
L 214.103802 176.633132 
L 214.421157 176.357916 
L 215.373223 176.112589 
L 216.325289 175.861209 
L 218.864132 175.059498 
L 220.133554 174.571086 
L 220.768264 174.437566 
L 222.355041 173.829581 
L 224.259174 173.289151 
L 224.893884 173.152513 
L 225.528595 172.937287 
L 226.480661 172.556582 
L 228.067438 172.149823 
L 232.510413 170.729237 
L 233.462479 170.329329 
L 234.731901 169.961616 
L 235.366612 169.77386 
L 236.318678 169.475945 
L 237.270744 169.068766 
L 237.588099 169.015525 
L 238.22281 168.760151 
L 246.791405 166.16147 
L 247.10876 166.113387 
L 247.426116 165.875127 
L 248.060826 165.700176 
L 249.012893 165.345957 
L 249.647603 165.183518 
L 253.773223 163.762309 
L 254.407934 163.656181 
L 255.36 163.328163 
L 255.677355 163.26698 
L 256.629421 162.748945 
L 257.264132 162.581864 
L 258.216198 162.24248 
L 260.755041 161.721377 
L 262.024463 161.286329 
L 264.563306 160.522366 
L 265.198017 160.24112 
L 265.832727 160.135653 
L 268.688926 159.179591 
L 269.323636 158.963255 
L 270.275702 158.600342 
L 271.862479 158.128489 
L 272.49719 157.864795 
L 274.401322 157.184741 
L 275.353388 156.920704 
L 278.209587 156.086594 
L 278.844298 156.003758 
L 279.479008 155.711192 
L 287.730248 152.881913 
L 288.364959 152.422738 
L 288.999669 152.123461 
L 289.951736 151.641786 
L 292.173223 150.849543 
L 292.807934 150.564403 
L 295.981488 149.509659 
L 297.568264 148.878493 
L 298.202975 148.736557 
L 300.741818 147.676998 
L 301.059174 147.401781 
L 301.693884 147.229089 
L 302.64595 146.942328 
L 309.310413 144.941255 
L 309.627769 144.748132 
L 309.945124 144.70554 
L 310.579835 144.451334 
L 310.89719 144.370168 
L 311.849256 143.849738 
L 313.118678 143.349301 
L 313.436033 143.185733 
L 313.753388 142.793144 
L 314.388099 142.559936 
L 315.02281 142.111822 
L 315.657521 141.928897 
L 318.196364 141.007837 
L 318.513719 140.751788 
L 319.465785 140.389855 
L 319.78314 140.174683 
L 320.417851 139.960734 
L 321.052562 139.644209 
L 321.369917 139.501209 
L 321.687273 139.224945 
L 322.321983 139.005902 
L 323.27405 138.642497 
L 323.591405 138.551593 
L 324.226116 138.22525 
L 324.860826 137.905163 
L 325.178182 137.65468 
L 325.812893 137.512745 
L 326.130248 137.289543 
L 326.764959 137.093001 
L 327.399669 136.770741 
L 328.351736 136.5017 
L 328.669091 136.182752 
L 330.890579 135.264389 
L 331.525289 134.937323 
L 332.794711 134.405581 
L 334.698843 133.59443 
L 340.728595 130.788298 
L 341.363306 130.573038 
L 342.950083 129.875939 
L 344.53686 129.29596 
L 345.17157 129.000244 
L 345.488926 128.857041 
L 345.806281 128.579564 
L 346.758347 128.253221 
L 347.393058 127.930829 
L 350.249256 126.346231 
L 351.518678 125.967261 
L 352.153388 125.307743 
L 353.105455 125.034535 
L 353.42281 124.77093 
L 353.740165 124.718271 
L 354.374876 124.470718 
L 355.009587 124.123625 
L 355.961653 123.475151 
L 356.279008 123.41541 
L 357.54843 122.604002 
L 358.18314 121.938542 
L 358.817851 121.688257 
L 359.452562 121.412188 
L 360.404628 120.824276 
L 361.356694 120.27021 
L 361.67405 119.967426 
L 362.626116 119.618694 
L 362.943471 119.082191 
L 363.578182 118.84484 
L 365.482314 117.976357 
L 366.751736 116.918558 
L 367.069091 116.867163 
L 367.703802 116.511571 
L 368.021157 116.191024 
L 368.338512 115.702259 
L 369.290579 115.25087 
L 369.925289 114.769293 
L 370.56 114.451645 
L 371.194711 113.983008 
L 371.829421 113.580553 
L 372.146777 113.363372 
L 373.098843 111.938167 
L 373.733554 111.742801 
L 375.002975 110.863711 
L 375.955041 110.235218 
L 376.272397 109.926048 
L 376.589752 109.848742 
L 377.224463 108.977034 
L 377.859174 107.918976 
L 378.176529 107.810729 
L 378.81124 107.158226 
L 379.128595 106.957031 
L 379.44595 105.686321 
L 379.763306 105.53979 
L 381.032727 104.478817 
L 381.667438 104.055894 
L 382.302149 103.274515 
L 382.93686 102.797028 
L 383.254215 102.432363 
L 384.206281 100.965982 
L 384.523636 99.874662 
L 385.793058 98.518608 
L 386.110413 97.662038 
L 386.427769 97.500463 
L 386.745124 97.206888 
L 387.062479 97.142703 
L 387.379835 96.738848 
L 388.331901 93.537235 
L 388.649256 93.15873 
L 388.966612 93.061032 
L 389.918678 91.712609 
L 390.236033 90.146664 
L 390.553388 89.889261 
L 390.870744 88.888018 
L 391.82281 87.3597 
L 392.140165 86.126257 
L 392.457521 85.403185 
L 392.774876 85.324983 
L 394.044298 82.12178 
L 394.361653 81.451439 
L 394.679008 80.008752 
L 394.996364 79.805262 
L 395.313719 78.486339 
L 395.631074 76.35227 
L 395.94843 73.164296 
L 396.265785 72.709321 
L 396.58314 71.068641 
L 396.900496 68.203876 
L 397.217851 67.769288 
L 397.535207 65.415742 
L 398.487273 53.568 
L 398.487273 53.568 
" clip-path="url(#p3993682ca5)" style="fill: none; stroke: #1f77b4; stroke-width: 1.5; stroke-linecap: square"/>
   </g>
   <g id="line2d_17">
    <path d="M 73.832727 197.174897 
L 74.150083 194.081762 
L 74.467438 194.081762 
L 74.784793 191.437761 
L 75.102149 190.888564 
L 75.73686 190.888564 
L 76.054215 189.899286 
L 76.37157 188.229246 
L 77.640992 187.868375 
L 78.910413 187.868375 
L 79.227769 186.926208 
L 79.545124 186.926208 
L 80.179835 186.374434 
L 80.49719 186.374434 
L 80.814545 185.332601 
L 81.131901 184.842201 
L 82.083967 184.833769 
L 82.401322 184.543529 
L 86.844298 184.52705 
L 87.161653 184.36813 
L 87.479008 183.61319 
L 88.431074 183.184948 
L 89.700496 183.184948 
L 90.017851 182.851017 
L 90.652562 182.851017 
L 90.969917 182.463106 
L 91.287273 182.463106 
L 91.604628 182.261035 
L 91.921983 181.741278 
L 99.221157 181.741278 
L 99.538512 181.431572 
L 101.76 181.358313 
L 102.077355 181.037295 
L 103.981488 180.964885 
L 104.298843 180.839715 
L 104.933554 180.839715 
L 105.250909 180.399481 
L 106.202975 180.377294 
L 106.520331 179.383759 
L 108.741818 179.056808 
L 109.376529 179.056808 
L 109.693884 178.554706 
L 110.01124 178.554706 
L 110.328595 178.000041 
L 129.369917 178.000018 
L 130.004628 177.503113 
L 130.639339 177.388374 
L 131.27405 177.369474 
L 131.591405 177.111628 
L 132.860826 177.052719 
L 133.178182 176.556348 
L 135.399669 176.452408 
L 135.717025 176.029113 
L 137.303802 175.852365 
L 163.009587 175.852365 
L 163.326942 175.413038 
L 167.769917 175.332749 
L 168.087273 174.789025 
L 168.404628 174.789025 
L 168.721983 174.643896 
L 169.67405 174.550241 
L 169.991405 174.325921 
L 171.895537 174.257987 
L 172.847603 174.100661 
L 180.146777 174.100661 
L 181.098843 173.871878 
L 182.68562 173.871878 
L 183.320331 172.815088 
L 186.493884 172.744288 
L 186.81124 172.651545 
L 187.128595 172.419138 
L 187.44595 172.419138 
L 187.763306 172.261732 
L 188.080661 172.261732 
L 188.398017 171.604601 
L 188.715372 170.667435 
L 283.604628 170.667435 
L 284.239339 169.073137 
L 284.556694 169.073137 
L 284.87405 168.915731 
L 285.191405 168.915731 
L 285.50876 168.683324 
L 286.143471 168.590582 
L 288.999669 168.519782 
L 289.63438 167.462991 
L 291.221157 167.462991 
L 292.173223 167.234209 
L 300.107107 167.167109 
L 301.059174 167.008948 
L 302.328595 167.008948 
L 302.963306 166.690974 
L 303.598017 166.690974 
L 303.915372 166.545844 
L 304.232727 166.545844 
L 304.550083 166.00212 
L 308.993058 165.921831 
L 309.310413 165.482505 
L 335.968264 165.458408 
L 336.602975 165.305757 
L 336.920331 164.882461 
L 339.141818 164.778522 
L 339.459174 164.282151 
L 340.728595 164.223241 
L 341.04595 163.965396 
L 342.315372 163.831757 
L 342.632727 163.650049 
L 342.950083 163.334852 
L 361.991405 163.334829 
L 362.30876 162.780163 
L 362.626116 162.780163 
L 362.943471 162.278061 
L 364.530248 162.278061 
L 364.847603 162.049279 
L 365.799669 161.95111 
L 366.117025 160.957575 
L 367.069091 160.935388 
L 367.386446 160.495154 
L 368.021157 160.495154 
L 368.655868 160.297575 
L 370.242645 160.297575 
L 370.56 159.976556 
L 372.781488 159.903297 
L 373.098843 159.593592 
L 380.398017 159.593592 
L 380.715372 159.073834 
L 381.032727 158.871763 
L 381.350083 158.871763 
L 381.667438 158.483853 
L 382.302149 158.483853 
L 382.619504 158.149922 
L 384.206281 158.149922 
L 384.840992 157.72168 
L 385.158347 156.966739 
L 385.475702 156.807819 
L 389.918678 156.79134 
L 390.236033 156.5011 
L 391.188099 156.492668 
L 391.505455 156.002269 
L 391.82281 154.960436 
L 392.140165 154.960436 
L 393.092231 154.408662 
L 393.409587 153.466494 
L 394.996364 153.466494 
L 395.313719 153.208085 
L 395.94843 153.105623 
L 396.265785 151.435584 
L 396.58314 150.446305 
L 397.217851 150.446305 
L 397.535207 149.897109 
L 397.852562 147.253108 
L 398.169917 147.253108 
L 398.487273 144.159972 
L 398.487273 144.159972 
" clip-path="url(#p3993682ca5)" style="fill: none; stroke: #ff7f0e; stroke-width: 1.5; stroke-linecap: square"/>
   </g>
   <g id="patch_3">
    <path d="M 57.6 307.584 
L 57.6 41.472 
" style="fill: none; stroke: #000000; stroke-width: 0.8; stroke-linejoin: miter; stroke-linecap: square"/>
   </g>
   <g id="patch_4">
    <path d="M 414.72 307.584 
L 414.72 41.472 
" style="fill: none; stroke: #000000; stroke-width: 0.8; stroke-linejoin: miter; stroke-linecap: square"/>
   </g>
   <g id="patch_5">
    <path d="M 57.6 307.584 
L 414.72 307.584 
" style="fill: none; stroke: #000000; stroke-width: 0.8; stroke-linejoin: miter; stroke-linecap: square"/>
   </g>
   <g id="patch_6">
    <path d="M 57.6 41.472 
L 414.72 41.472 
" style="fill: none; stroke: #000000; stroke-width: 0.8; stroke-linejoin: miter; stroke-linecap: square"/>
   </g>
   <g id="legend_1">
    <g id="patch_7">
     <path d="M 64.6 78.82825 
L 129.342187 78.82825 
Q 131.342187 78.82825 131.342187 76.82825 
L 131.342187 48.472 
Q 131.342187 46.472 129.342187 46.472 
L 64.6 46.472 
Q 62.6 46.472 62.6 48.472 
L 62.6 76.82825 
Q 62.6 78.82825 64.6 78.82825 
z
" style="fill: #ffffff; opacity: 0.8; stroke: #cccccc; stroke-linejoin: miter"/>
    </g>
    <g id="line2d_18">
     <path d="M 66.6 54.570437 
L 76.6 54.570437 
L 86.6 54.570437 
" style="fill: none; stroke: #1f77b4; stroke-width: 1.5; stroke-linecap: square"/>
    </g>
    <g id="text_18">
     <!-- qc -->
     <g transform="translate(94.6 58.070437) scale(0.1 -0.1)">
      <defs>
       <path id="DejaVuSans-71" d="M 947 1747 
Q 947 1113 1208 752 
Q 1469 391 1925 391 
Q 2381 391 2643 752 
Q 2906 1113 2906 1747 
Q 2906 2381 2643 2742 
Q 2381 3103 1925 3103 
Q 1469 3103 1208 2742 
Q 947 2381 947 1747 
z
M 2906 525 
Q 2725 213 2448 61 
Q 2172 -91 1784 -91 
Q 1150 -91 751 415 
Q 353 922 353 1747 
Q 353 2572 751 3078 
Q 1150 3584 1784 3584 
Q 2172 3584 2448 3432 
Q 2725 3281 2906 2969 
L 2906 3500 
L 3481 3500 
L 3481 -1331 
L 2906 -1331 
L 2906 525 
z
" transform="scale(0.015625)"/>
       <path id="DejaVuSans-63" d="M 3122 3366 
L 3122 2828 
Q 2878 2963 2633 3030 
Q 2388 3097 2138 3097 
Q 1578 3097 1268 2742 
Q 959 2388 959 1747 
Q 959 1106 1268 751 
Q 1578 397 2138 397 
Q 2388 397 2633 464 
Q 2878 531 3122 666 
L 3122 134 
Q 2881 22 2623 -34 
Q 2366 -91 2075 -91 
Q 1284 -91 818 406 
Q 353 903 353 1747 
Q 353 2603 823 3093 
Q 1294 3584 2113 3584 
Q 2378 3584 2631 3529 
Q 2884 3475 3122 3366 
z
" transform="scale(0.015625)"/>
      </defs>
      <use xlink:href="#DejaVuSans-71"/>
      <use xlink:href="#DejaVuSans-63" x="63.476562"/>
     </g>
    </g>
    <g id="line2d_19">
     <path d="M 66.6 69.248562 
L 76.6 69.248562 
L 86.6 69.248562 
" style="fill: none; stroke: #ff7f0e; stroke-width: 1.5; stroke-linecap: square"/>
    </g>
    <g id="text_19">
     <!-- Trotter -->
     <g transform="translate(94.6 72.748562) scale(0.1 -0.1)">
      <defs>
       <path id="DejaVuSans-54" d="M -19 4666 
L 3928 4666 
L 3928 4134 
L 2272 4134 
L 2272 0 
L 1638 0 
L 1638 4134 
L -19 4134 
L -19 4666 
z
" transform="scale(0.015625)"/>
       <path id="DejaVuSans-72" d="M 2631 2963 
Q 2534 3019 2420 3045 
Q 2306 3072 2169 3072 
Q 1681 3072 1420 2755 
Q 1159 2438 1159 1844 
L 1159 0 
L 581 0 
L 581 3500 
L 1159 3500 
L 1159 2956 
Q 1341 3275 1631 3429 
Q 1922 3584 2338 3584 
Q 2397 3584 2469 3576 
Q 2541 3569 2628 3553 
L 2631 2963 
z
" transform="scale(0.015625)"/>
       <path id="DejaVuSans-6f" d="M 1959 3097 
Q 1497 3097 1228 2736 
Q 959 2375 959 1747 
Q 959 1119 1226 758 
Q 1494 397 1959 397 
Q 2419 397 2687 759 
Q 2956 1122 2956 1747 
Q 2956 2369 2687 2733 
Q 2419 3097 1959 3097 
z
M 1959 3584 
Q 2709 3584 3137 3096 
Q 3566 2609 3566 1747 
Q 3566 888 3137 398 
Q 2709 -91 1959 -91 
Q 1206 -91 779 398 
Q 353 888 353 1747 
Q 353 2609 779 3096 
Q 1206 3584 1959 3584 
z
" transform="scale(0.015625)"/>
       <path id="DejaVuSans-65" d="M 3597 1894 
L 3597 1613 
L 953 1613 
Q 991 1019 1311 708 
Q 1631 397 2203 397 
Q 2534 397 2845 478 
Q 3156 559 3463 722 
L 3463 178 
Q 3153 47 2828 -22 
Q 2503 -91 2169 -91 
Q 1331 -91 842 396 
Q 353 884 353 1716 
Q 353 2575 817 3079 
Q 1281 3584 2069 3584 
Q 2775 3584 3186 3129 
Q 3597 2675 3597 1894 
z
M 3022 2063 
Q 3016 2534 2758 2815 
Q 2500 3097 2075 3097 
Q 1594 3097 1305 2825 
Q 1016 2553 972 2059 
L 3022 2063 
z
" transform="scale(0.015625)"/>
      </defs>
      <use xlink:href="#DejaVuSans-54"/>
      <use xlink:href="#DejaVuSans-72" x="46.333984"/>
      <use xlink:href="#DejaVuSans-6f" x="85.197266"/>
      <use xlink:href="#DejaVuSans-74" x="146.378906"/>
      <use xlink:href="#DejaVuSans-74" x="185.587891"/>
      <use xlink:href="#DejaVuSans-65" x="224.796875"/>
      <use xlink:href="#DejaVuSans-72" x="286.320312"/>
     </g>
    </g>
   </g>
  </g>
 </g>
 <defs>
  <clipPath id="p3993682ca5">
   <rect x="57.6" y="41.472" width="357.12" height="266.112"/>
  </clipPath>
 </defs>
</svg>
