<?xml version="1.0" encoding="utf-8" standalone="no"?>
<!DOCTYPE svg PUBLIC "-//W3C//DTD SVG 1.1//EN"
  "http://www.w3.org/Graphics/SVG/1.1/DTD/svg11.dtd">
<svg xmlns:xlink="http://www.w3.org/1999/xlink" width="460.8pt" height="345.6pt" viewBox="0 0 460.8 345.6" xmlns="http://www.w3.org/2000/svg" version="1.1">
 <metadata>
  <rdf:RDF xmlns:dc="http://purl.org/dc/elements/1.1/" xmlns:cc="http://creativecommons.org/ns#" xmlns:rdf="http://www.w3.org/1999/02/22-rdf-syntax-ns#">
   <cc:Work>
    <dc:type rdf:resource="http://purl.org/dc/dcmitype/StillImage"/>
    <dc:date>2024-07-08T15:40:35.827933</dc:date>
    <dc:format>image/svg+xml</dc:format>
    <dc:creator>
     <cc:Agent>
      <dc:title>Matplotlib v3.7.1, https://matplotlib.org/</dc:title>
     </cc:Agent>
    </dc:creator>
   </cc:Work>
  </rdf:RDF>
 </metadata>
 <defs>
  <style type="text/css">*{stroke-linejoin: round; stroke-linecap: butt}</style>
 </defs>
 <g id="figure_1">
  <g id="patch_1">
   <path d="M 0 345.6 
L 460.8 345.6 
L 460.8 0 
L 0 0 
z
" style="fill: #ffffff"/>
  </g>
  <g id="axes_1">
   <g id="patch_2">
    <path d="M 57.6 307.584 
L 414.72 307.584 
L 414.72 41.472 
L 57.6 41.472 
z
" style="fill: #ffffff"/>
   </g>
   <g id="matplotlib.axis_1">
    <g id="xtick_1">
     <g id="line2d_1">
      <defs>
       <path id="m19c426c6cb" d="M 0 0 
L 0 3.5 
" style="stroke: #000000; stroke-width: 0.8"/>
      </defs>
      <g>
       <use xlink:href="#m19c426c6cb" x="73.832727" y="307.584" style="stroke: #000000; stroke-width: 0.8"/>
      </g>
     </g>
     <g id="text_1">
      <!-- 0 -->
      <g transform="translate(70.651477 322.182437) scale(0.1 -0.1)">
       <defs>
        <path id="DejaVuSans-30" d="M 2034 4250 
Q 1547 4250 1301 3770 
Q 1056 3291 1056 2328 
Q 1056 1369 1301 889 
Q 1547 409 2034 409 
Q 2525 409 2770 889 
Q 3016 1369 3016 2328 
Q 3016 3291 2770 3770 
Q 2525 4250 2034 4250 
z
M 2034 4750 
Q 2819 4750 3233 4129 
Q 3647 3509 3647 2328 
Q 3647 1150 3233 529 
Q 2819 -91 2034 -91 
Q 1250 -91 836 529 
Q 422 1150 422 2328 
Q 422 3509 836 4129 
Q 1250 4750 2034 4750 
z
" transform="scale(0.015625)"/>
       </defs>
       <use xlink:href="#DejaVuSans-30"/>
      </g>
     </g>
    </g>
    <g id="xtick_2">
     <g id="line2d_2">
      <g>
       <use xlink:href="#m19c426c6cb" x="137.303802" y="307.584" style="stroke: #000000; stroke-width: 0.8"/>
      </g>
     </g>
     <g id="text_2">
      <!-- 200 -->
      <g transform="translate(127.760052 322.182437) scale(0.1 -0.1)">
       <defs>
        <path id="DejaVuSans-32" d="M 1228 531 
L 3431 531 
L 3431 0 
L 469 0 
L 469 531 
Q 828 903 1448 1529 
Q 2069 2156 2228 2338 
Q 2531 2678 2651 2914 
Q 2772 3150 2772 3378 
Q 2772 3750 2511 3984 
Q 2250 4219 1831 4219 
Q 1534 4219 1204 4116 
Q 875 4013 500 3803 
L 500 4441 
Q 881 4594 1212 4672 
Q 1544 4750 1819 4750 
Q 2544 4750 2975 4387 
Q 3406 4025 3406 3419 
Q 3406 3131 3298 2873 
Q 3191 2616 2906 2266 
Q 2828 2175 2409 1742 
Q 1991 1309 1228 531 
z
" transform="scale(0.015625)"/>
       </defs>
       <use xlink:href="#DejaVuSans-32"/>
       <use xlink:href="#DejaVuSans-30" x="63.623047"/>
       <use xlink:href="#DejaVuSans-30" x="127.246094"/>
      </g>
     </g>
    </g>
    <g id="xtick_3">
     <g id="line2d_3">
      <g>
       <use xlink:href="#m19c426c6cb" x="200.774876" y="307.584" style="stroke: #000000; stroke-width: 0.8"/>
      </g>
     </g>
     <g id="text_3">
      <!-- 400 -->
      <g transform="translate(191.231126 322.182437) scale(0.1 -0.1)">
       <defs>
        <path id="DejaVuSans-34" d="M 2419 4116 
L 825 1625 
L 2419 1625 
L 2419 4116 
z
M 2253 4666 
L 3047 4666 
L 3047 1625 
L 3713 1625 
L 3713 1100 
L 3047 1100 
L 3047 0 
L 2419 0 
L 2419 1100 
L 313 1100 
L 313 1709 
L 2253 4666 
z
" transform="scale(0.015625)"/>
       </defs>
       <use xlink:href="#DejaVuSans-34"/>
       <use xlink:href="#DejaVuSans-30" x="63.623047"/>
       <use xlink:href="#DejaVuSans-30" x="127.246094"/>
      </g>
     </g>
    </g>
    <g id="xtick_4">
     <g id="line2d_4">
      <g>
       <use xlink:href="#m19c426c6cb" x="264.24595" y="307.584" style="stroke: #000000; stroke-width: 0.8"/>
      </g>
     </g>
     <g id="text_4">
      <!-- 600 -->
      <g transform="translate(254.7022 322.182437) scale(0.1 -0.1)">
       <defs>
        <path id="DejaVuSans-36" d="M 2113 2584 
Q 1688 2584 1439 2293 
Q 1191 2003 1191 1497 
Q 1191 994 1439 701 
Q 1688 409 2113 409 
Q 2538 409 2786 701 
Q 3034 994 3034 1497 
Q 3034 2003 2786 2293 
Q 2538 2584 2113 2584 
z
M 3366 4563 
L 3366 3988 
Q 3128 4100 2886 4159 
Q 2644 4219 2406 4219 
Q 1781 4219 1451 3797 
Q 1122 3375 1075 2522 
Q 1259 2794 1537 2939 
Q 1816 3084 2150 3084 
Q 2853 3084 3261 2657 
Q 3669 2231 3669 1497 
Q 3669 778 3244 343 
Q 2819 -91 2113 -91 
Q 1303 -91 875 529 
Q 447 1150 447 2328 
Q 447 3434 972 4092 
Q 1497 4750 2381 4750 
Q 2619 4750 2861 4703 
Q 3103 4656 3366 4563 
z
" transform="scale(0.015625)"/>
       </defs>
       <use xlink:href="#DejaVuSans-36"/>
       <use xlink:href="#DejaVuSans-30" x="63.623047"/>
       <use xlink:href="#DejaVuSans-30" x="127.246094"/>
      </g>
     </g>
    </g>
    <g id="xtick_5">
     <g id="line2d_5">
      <g>
       <use xlink:href="#m19c426c6cb" x="327.717025" y="307.584" style="stroke: #000000; stroke-width: 0.8"/>
      </g>
     </g>
     <g id="text_5">
      <!-- 800 -->
      <g transform="translate(318.173275 322.182437) scale(0.1 -0.1)">
       <defs>
        <path id="DejaVuSans-38" d="M 2034 2216 
Q 1584 2216 1326 1975 
Q 1069 1734 1069 1313 
Q 1069 891 1326 650 
Q 1584 409 2034 409 
Q 2484 409 2743 651 
Q 3003 894 3003 1313 
Q 3003 1734 2745 1975 
Q 2488 2216 2034 2216 
z
M 1403 2484 
Q 997 2584 770 2862 
Q 544 3141 544 3541 
Q 544 4100 942 4425 
Q 1341 4750 2034 4750 
Q 2731 4750 3128 4425 
Q 3525 4100 3525 3541 
Q 3525 3141 3298 2862 
Q 3072 2584 2669 2484 
Q 3125 2378 3379 2068 
Q 3634 1759 3634 1313 
Q 3634 634 3220 271 
Q 2806 -91 2034 -91 
Q 1263 -91 848 271 
Q 434 634 434 1313 
Q 434 1759 690 2068 
Q 947 2378 1403 2484 
z
M 1172 3481 
Q 1172 3119 1398 2916 
Q 1625 2713 2034 2713 
Q 2441 2713 2670 2916 
Q 2900 3119 2900 3481 
Q 2900 3844 2670 4047 
Q 2441 4250 2034 4250 
Q 1625 4250 1398 4047 
Q 1172 3844 1172 3481 
z
" transform="scale(0.015625)"/>
       </defs>
       <use xlink:href="#DejaVuSans-38"/>
       <use xlink:href="#DejaVuSans-30" x="63.623047"/>
       <use xlink:href="#DejaVuSans-30" x="127.246094"/>
      </g>
     </g>
    </g>
    <g id="xtick_6">
     <g id="line2d_6">
      <g>
       <use xlink:href="#m19c426c6cb" x="391.188099" y="307.584" style="stroke: #000000; stroke-width: 0.8"/>
      </g>
     </g>
     <g id="text_6">
      <!-- 1000 -->
      <g transform="translate(378.463099 322.182437) scale(0.1 -0.1)">
       <defs>
        <path id="DejaVuSans-31" d="M 794 531 
L 1825 531 
L 1825 4091 
L 703 3866 
L 703 4441 
L 1819 4666 
L 2450 4666 
L 2450 531 
L 3481 531 
L 3481 0 
L 794 0 
L 794 531 
z
" transform="scale(0.015625)"/>
       </defs>
       <use xlink:href="#DejaVuSans-31"/>
       <use xlink:href="#DejaVuSans-30" x="63.623047"/>
       <use xlink:href="#DejaVuSans-30" x="127.246094"/>
       <use xlink:href="#DejaVuSans-30" x="190.869141"/>
      </g>
     </g>
    </g>
    <g id="text_7">
     <!-- n -->
     <g transform="translate(232.99125 335.860562) scale(0.1 -0.1)">
      <defs>
       <path id="DejaVuSans-6e" d="M 3513 2113 
L 3513 0 
L 2938 0 
L 2938 2094 
Q 2938 2591 2744 2837 
Q 2550 3084 2163 3084 
Q 1697 3084 1428 2787 
Q 1159 2491 1159 1978 
L 1159 0 
L 581 0 
L 581 3500 
L 1159 3500 
L 1159 2956 
Q 1366 3272 1645 3428 
Q 1925 3584 2291 3584 
Q 2894 3584 3203 3211 
Q 3513 2838 3513 2113 
z
" transform="scale(0.015625)"/>
      </defs>
      <use xlink:href="#DejaVuSans-6e"/>
     </g>
    </g>
   </g>
   <g id="matplotlib.axis_2">
    <g id="ytick_1">
     <g id="line2d_7">
      <defs>
       <path id="m3088e090d1" d="M 0 0 
L -3.5 0 
" style="stroke: #000000; stroke-width: 0.8"/>
      </defs>
      <g>
       <use xlink:href="#m3088e090d1" x="57.6" y="290.193162" style="stroke: #000000; stroke-width: 0.8"/>
      </g>
     </g>
     <g id="text_8">
      <!-- −3 -->
      <g transform="translate(35.857813 293.99238) scale(0.1 -0.1)">
       <defs>
        <path id="DejaVuSans-2212" d="M 678 2272 
L 4684 2272 
L 4684 1741 
L 678 1741 
L 678 2272 
z
" transform="scale(0.015625)"/>
        <path id="DejaVuSans-33" d="M 2597 2516 
Q 3050 2419 3304 2112 
Q 3559 1806 3559 1356 
Q 3559 666 3084 287 
Q 2609 -91 1734 -91 
Q 1441 -91 1130 -33 
Q 819 25 488 141 
L 488 750 
Q 750 597 1062 519 
Q 1375 441 1716 441 
Q 2309 441 2620 675 
Q 2931 909 2931 1356 
Q 2931 1769 2642 2001 
Q 2353 2234 1838 2234 
L 1294 2234 
L 1294 2753 
L 1863 2753 
Q 2328 2753 2575 2939 
Q 2822 3125 2822 3475 
Q 2822 3834 2567 4026 
Q 2313 4219 1838 4219 
Q 1578 4219 1281 4162 
Q 984 4106 628 3988 
L 628 4550 
Q 988 4650 1302 4700 
Q 1616 4750 1894 4750 
Q 2613 4750 3031 4423 
Q 3450 4097 3450 3541 
Q 3450 3153 3228 2886 
Q 3006 2619 2597 2516 
z
" transform="scale(0.015625)"/>
       </defs>
       <use xlink:href="#DejaVuSans-2212"/>
       <use xlink:href="#DejaVuSans-33" x="83.789062"/>
      </g>
     </g>
    </g>
    <g id="ytick_2">
     <g id="line2d_8">
      <g>
       <use xlink:href="#m3088e090d1" x="57.6" y="251.616393" style="stroke: #000000; stroke-width: 0.8"/>
      </g>
     </g>
     <g id="text_9">
      <!-- −2 -->
      <g transform="translate(35.857813 255.415612) scale(0.1 -0.1)">
       <use xlink:href="#DejaVuSans-2212"/>
       <use xlink:href="#DejaVuSans-32" x="83.789062"/>
      </g>
     </g>
    </g>
    <g id="ytick_3">
     <g id="line2d_9">
      <g>
       <use xlink:href="#m3088e090d1" x="57.6" y="213.039624" style="stroke: #000000; stroke-width: 0.8"/>
      </g>
     </g>
     <g id="text_10">
      <!-- −1 -->
      <g transform="translate(35.857813 216.838843) scale(0.1 -0.1)">
       <use xlink:href="#DejaVuSans-2212"/>
       <use xlink:href="#DejaVuSans-31" x="83.789062"/>
      </g>
     </g>
    </g>
    <g id="ytick_4">
     <g id="line2d_10">
      <g>
       <use xlink:href="#m3088e090d1" x="57.6" y="174.462855" style="stroke: #000000; stroke-width: 0.8"/>
      </g>
     </g>
     <g id="text_11">
      <!-- 0 -->
      <g transform="translate(44.2375 178.262074) scale(0.1 -0.1)">
       <use xlink:href="#DejaVuSans-30"/>
      </g>
     </g>
    </g>
    <g id="ytick_5">
     <g id="line2d_11">
      <g>
       <use xlink:href="#m3088e090d1" x="57.6" y="135.886086" style="stroke: #000000; stroke-width: 0.8"/>
      </g>
     </g>
     <g id="text_12">
      <!-- 1 -->
      <g transform="translate(44.2375 139.685305) scale(0.1 -0.1)">
       <use xlink:href="#DejaVuSans-31"/>
      </g>
     </g>
    </g>
    <g id="ytick_6">
     <g id="line2d_12">
      <g>
       <use xlink:href="#m3088e090d1" x="57.6" y="97.309317" style="stroke: #000000; stroke-width: 0.8"/>
      </g>
     </g>
     <g id="text_13">
      <!-- 2 -->
      <g transform="translate(44.2375 101.108536) scale(0.1 -0.1)">
       <use xlink:href="#DejaVuSans-32"/>
      </g>
     </g>
    </g>
    <g id="ytick_7">
     <g id="line2d_13">
      <g>
       <use xlink:href="#m3088e090d1" x="57.6" y="58.732548" style="stroke: #000000; stroke-width: 0.8"/>
      </g>
     </g>
     <g id="text_14">
      <!-- 3 -->
      <g transform="translate(44.2375 62.531767) scale(0.1 -0.1)">
       <use xlink:href="#DejaVuSans-33"/>
      </g>
     </g>
    </g>
    <g id="text_15">
     <!-- E*t -->
     <g transform="translate(29.778125 182.147531) rotate(-90) scale(0.1 -0.1)">
      <defs>
       <path id="DejaVuSans-45" d="M 628 4666 
L 3578 4666 
L 3578 4134 
L 1259 4134 
L 1259 2753 
L 3481 2753 
L 3481 2222 
L 1259 2222 
L 1259 531 
L 3634 531 
L 3634 0 
L 628 0 
L 628 4666 
z
" transform="scale(0.015625)"/>
       <path id="DejaVuSans-2a" d="M 3009 3897 
L 1888 3291 
L 3009 2681 
L 2828 2375 
L 1778 3009 
L 1778 1831 
L 1422 1831 
L 1422 3009 
L 372 2375 
L 191 2681 
L 1313 3291 
L 191 3897 
L 372 4206 
L 1422 3572 
L 1422 4750 
L 1778 4750 
L 1778 3572 
L 2828 4206 
L 3009 3897 
z
" transform="scale(0.015625)"/>
       <path id="DejaVuSans-74" d="M 1172 4494 
L 1172 3500 
L 2356 3500 
L 2356 3053 
L 1172 3053 
L 1172 1153 
Q 1172 725 1289 603 
Q 1406 481 1766 481 
L 2356 481 
L 2356 0 
L 1766 0 
Q 1100 0 847 248 
Q 594 497 594 1153 
L 594 3053 
L 172 3053 
L 172 3500 
L 594 3500 
L 594 4494 
L 1172 4494 
z
" transform="scale(0.015625)"/>
      </defs>
      <use xlink:href="#DejaVuSans-45"/>
      <use xlink:href="#DejaVuSans-2a" x="63.183594"/>
      <use xlink:href="#DejaVuSans-74" x="113.183594"/>
     </g>
    </g>
   </g>
   <g id="line2d_14">
    <path d="M 73.832727 295.488 
L 74.150083 295.051521 
L 74.467438 295.009505 
L 74.784793 294.298945 
L 75.102149 293.877712 
L 76.054215 293.625464 
L 76.37157 293.310309 
L 77.006281 293.119143 
L 77.323636 292.623544 
L 77.640992 292.541384 
L 77.958347 292.228867 
L 78.275702 292.227439 
L 79.227769 291.842488 
L 79.862479 291.646104 
L 80.49719 290.467534 
L 80.814545 289.325036 
L 81.131901 289.288421 
L 81.766612 288.586517 
L 82.401322 287.159837 
L 82.718678 286.850443 
L 83.988099 286.47217 
L 84.305455 286.369185 
L 84.62281 286.062345 
L 84.940165 286.021508 
L 85.574876 284.035264 
L 86.526942 283.567197 
L 86.844298 282.573753 
L 87.161653 282.555174 
L 87.479008 282.415187 
L 87.796364 282.40228 
L 88.113719 282.203232 
L 88.74843 282.150109 
L 89.700496 281.272613 
L 90.335207 281.044318 
L 90.969917 280.272233 
L 91.287273 280.265985 
L 91.604628 279.996312 
L 92.239339 279.888328 
L 92.556694 278.508341 
L 92.87405 278.402108 
L 93.50876 277.687141 
L 93.826116 277.503839 
L 94.460826 277.301859 
L 96.047603 276.677404 
L 96.364959 276.412114 
L 96.682314 276.354182 
L 97.317025 275.726587 
L 97.63438 275.294153 
L 97.951736 274.653006 
L 98.269091 274.265821 
L 98.586446 273.100303 
L 98.903802 273.013829 
L 99.538512 272.642508 
L 101.125289 272.231996 
L 101.442645 271.891484 
L 101.76 271.720567 
L 102.077355 271.159991 
L 102.394711 270.869354 
L 103.029421 270.63453 
L 103.981488 270.271377 
L 104.298843 270.225596 
L 104.616198 269.473602 
L 104.933554 269.089736 
L 105.250909 268.957057 
L 105.568264 268.156185 
L 105.88562 268.103122 
L 106.520331 267.390376 
L 107.155041 267.189536 
L 107.789752 267.094977 
L 108.107107 266.888714 
L 108.424463 266.255591 
L 109.376529 264.989903 
L 109.693884 264.479252 
L 110.64595 263.972194 
L 111.915372 263.652043 
L 112.550083 263.317227 
L 112.867438 263.279122 
L 113.502149 262.645054 
L 113.819504 261.612343 
L 114.13686 261.610059 
L 114.454215 261.343946 
L 115.088926 261.131041 
L 115.723636 260.727594 
L 116.675702 260.599988 
L 116.993058 260.566771 
L 117.945124 259.985994 
L 118.262479 258.909234 
L 118.89719 258.449743 
L 119.214545 257.782501 
L 120.166612 257.235874 
L 120.483967 256.900316 
L 120.801322 256.897278 
L 122.388099 256.12483 
L 122.705455 255.884661 
L 123.02281 255.812172 
L 123.340165 255.364316 
L 123.657521 255.353426 
L 123.974876 255.063456 
L 124.292231 254.981362 
L 124.609587 254.725935 
L 124.926942 253.833652 
L 125.244298 253.790169 
L 125.561653 253.173551 
L 125.879008 253.160976 
L 126.513719 252.656929 
L 127.14843 252.440736 
L 128.100496 251.357375 
L 128.735207 250.706387 
L 129.052562 250.660342 
L 129.369917 250.459971 
L 129.687273 250.031688 
L 130.321983 249.82781 
L 130.639339 249.565973 
L 130.956694 248.953116 
L 131.27405 248.798305 
L 131.591405 248.784488 
L 132.543471 247.453093 
L 132.860826 247.237535 
L 133.178182 247.229069 
L 133.495537 246.906431 
L 133.812893 246.33814 
L 134.447603 246.032687 
L 134.764959 246.006217 
L 135.717025 245.252324 
L 136.03438 245.189696 
L 136.351736 244.591298 
L 136.669091 244.384733 
L 136.986446 243.929086 
L 137.303802 243.857825 
L 137.938512 243.520579 
L 138.255868 242.799109 
L 139.207934 242.284983 
L 139.842645 242.182037 
L 140.16 241.991671 
L 140.477355 241.402108 
L 140.794711 241.400502 
L 141.429421 240.783451 
L 141.746777 240.743077 
L 142.381488 240.346639 
L 142.698843 240.339637 
L 143.016198 240.117138 
L 143.650909 239.968584 
L 143.968264 239.058756 
L 144.28562 238.977055 
L 145.237686 238.246348 
L 145.555041 238.243763 
L 146.189752 236.780364 
L 146.507107 236.501666 
L 146.824463 236.456568 
L 147.141818 236.241362 
L 147.459174 236.223206 
L 149.04595 235.526544 
L 149.363306 234.945258 
L 149.998017 234.573649 
L 150.315372 233.983147 
L 150.632727 233.832279 
L 150.950083 233.437543 
L 151.267438 233.429717 
L 151.584793 232.910583 
L 151.902149 232.666999 
L 152.219504 232.256443 
L 153.806281 231.823101 
L 154.123636 231.789789 
L 154.758347 231.560864 
L 155.075702 231.486174 
L 155.393058 230.880444 
L 155.710413 230.717395 
L 156.027769 229.997464 
L 156.662479 229.69611 
L 157.29719 229.532667 
L 157.614545 229.459147 
L 157.931901 229.028322 
L 158.249256 229.000354 
L 158.566612 228.531115 
L 158.883967 227.729376 
L 160.470744 227.46107 
L 160.788099 226.932993 
L 161.105455 226.696923 
L 161.740165 226.545234 
L 162.057521 226.198928 
L 163.009587 225.819521 
L 163.644298 224.906616 
L 163.961653 224.652773 
L 164.279008 224.643284 
L 164.913719 224.046867 
L 165.54843 223.923235 
L 166.18314 223.246144 
L 166.500496 222.22263 
L 167.135207 222.12057 
L 167.452562 221.477578 
L 170.626116 220.453019 
L 170.943471 220.448829 
L 171.260826 219.751477 
L 171.578182 219.493757 
L 172.212893 219.413962 
L 172.530248 219.301819 
L 173.164959 218.929547 
L 173.799669 218.769125 
L 174.117025 218.338036 
L 174.43438 218.307773 
L 175.386446 217.209032 
L 175.703802 217.203476 
L 176.021157 216.727967 
L 176.655868 216.189594 
L 176.973223 215.762982 
L 177.607934 215.446125 
L 178.242645 215.357727 
L 179.194711 214.960174 
L 179.512066 214.57275 
L 179.829421 213.56949 
L 180.146777 213.252245 
L 180.464132 213.221966 
L 181.416198 212.471899 
L 182.050909 212.375599 
L 183.002975 212.159958 
L 183.637686 211.171998 
L 184.272397 211.046323 
L 185.224463 210.674084 
L 186.176529 210.434343 
L 187.128595 209.616073 
L 187.44595 209.582698 
L 187.763306 208.863411 
L 188.080661 208.832057 
L 189.032727 208.098284 
L 189.350083 207.897392 
L 189.667438 207.199496 
L 190.619504 206.966227 
L 191.254215 206.202088 
L 191.57157 206.1779 
L 191.888926 205.587743 
L 193.158347 205.185343 
L 193.475702 204.62022 
L 194.427769 204.269621 
L 194.745124 203.888003 
L 196.331901 203.147193 
L 196.649256 202.894699 
L 197.283967 202.752945 
L 197.601322 202.088585 
L 198.236033 202.011182 
L 199.188099 201.230179 
L 200.140165 201.06473 
L 200.457521 200.765144 
L 200.774876 200.740562 
L 201.092231 200.395881 
L 201.726942 200.288142 
L 202.044298 199.977856 
L 202.361653 199.321053 
L 202.679008 199.245096 
L 202.996364 198.873534 
L 203.631074 198.741351 
L 206.169917 197.014371 
L 206.487273 196.853112 
L 207.121983 196.737287 
L 208.07405 196.119893 
L 209.026116 195.764044 
L 209.343471 195.454791 
L 209.978182 195.388008 
L 210.295537 194.953121 
L 210.612893 194.736214 
L 210.930248 194.69337 
L 211.247603 194.253968 
L 211.564959 193.613267 
L 211.882314 193.525317 
L 212.517025 192.980157 
L 213.151736 192.793815 
L 213.469091 191.975664 
L 213.786446 191.841472 
L 214.421157 191.318952 
L 215.690579 190.779517 
L 216.96 190.172661 
L 217.277355 190.133053 
L 217.594711 189.699645 
L 217.912066 189.667526 
L 218.229421 189.503925 
L 219.181488 189.340531 
L 219.816198 188.804685 
L 220.133554 188.779859 
L 220.450909 187.852035 
L 222.355041 186.509796 
L 222.672397 186.449122 
L 222.989752 186.039949 
L 224.576529 185.080587 
L 224.893884 184.610014 
L 226.163306 184.006537 
L 227.115372 183.827792 
L 228.067438 183.448674 
L 229.019504 182.859732 
L 229.654215 182.764881 
L 230.288926 182.457687 
L 230.923636 182.008932 
L 231.558347 181.702504 
L 232.510413 181.116562 
L 232.827769 180.512028 
L 233.145124 180.468557 
L 233.462479 179.786299 
L 234.09719 179.50902 
L 234.731901 178.695788 
L 235.049256 178.37922 
L 235.683967 178.238991 
L 236.318678 178.129445 
L 236.636033 177.751059 
L 236.953388 177.71334 
L 237.270744 177.515278 
L 237.588099 177.087671 
L 237.905455 176.988644 
L 238.22281 176.626929 
L 238.540165 176.580201 
L 238.857521 176.124673 
L 240.444298 175.09821 
L 240.761653 175.025776 
L 241.079008 174.765786 
L 241.396364 174.745142 
L 241.713719 174.446191 
L 242.665785 174.068878 
L 242.98314 173.776863 
L 243.617851 173.688019 
L 243.935207 173.330368 
L 244.569917 173.115011 
L 244.887273 173.055091 
L 245.204628 172.04937 
L 245.521983 171.753548 
L 246.156694 171.592276 
L 247.10876 170.212018 
L 248.060826 169.873748 
L 249.647603 169.602161 
L 249.964959 169.167386 
L 250.917025 168.759488 
L 251.869091 168.436575 
L 252.186446 167.989338 
L 253.455868 167.629471 
L 253.773223 167.365297 
L 255.042645 166.817475 
L 255.36 166.482742 
L 255.994711 166.441071 
L 256.312066 166.113587 
L 256.629421 166.091711 
L 258.216198 165.083006 
L 258.533554 165.038614 
L 258.850909 164.648435 
L 259.168264 164.616268 
L 259.48562 164.103324 
L 259.802975 163.970177 
L 260.120331 163.60364 
L 260.437686 163.42527 
L 261.389752 162.521317 
L 261.707107 162.397139 
L 262.024463 161.622993 
L 262.659174 161.487695 
L 263.293884 160.922233 
L 264.24595 160.616715 
L 265.198017 160.558132 
L 265.515372 160.39428 
L 265.832727 159.98031 
L 266.784793 159.762877 
L 267.102149 158.92556 
L 267.73686 158.76367 
L 268.054215 158.465836 
L 269.006281 158.133898 
L 269.323636 157.59461 
L 269.640992 157.47649 
L 269.958347 156.968626 
L 270.593058 156.804867 
L 270.910413 156.158098 
L 271.545124 156.047127 
L 271.862479 155.66251 
L 272.179835 155.639608 
L 272.814545 155.328127 
L 273.131901 154.754119 
L 273.766612 154.642152 
L 274.083967 154.568172 
L 274.718678 153.848019 
L 275.036033 153.839301 
L 275.353388 153.112715 
L 275.670744 152.846993 
L 275.988099 152.826088 
L 276.305455 152.570955 
L 278.526942 151.782586 
L 278.844298 151.349694 
L 279.161653 151.341792 
L 279.479008 151.058499 
L 279.796364 150.432234 
L 281.065785 150.310076 
L 281.700496 150.062178 
L 282.017851 149.945504 
L 282.652562 148.986971 
L 282.969917 148.975642 
L 283.287273 148.713272 
L 283.921983 148.654995 
L 284.556694 147.74135 
L 285.191405 147.571553 
L 285.50876 147.293737 
L 285.826116 147.229489 
L 286.143471 146.654247 
L 286.778182 146.459217 
L 288.047603 146.018771 
L 288.364959 145.41159 
L 288.999669 145.377537 
L 289.317025 145.120959 
L 289.63438 144.399179 
L 290.586446 144.109871 
L 291.221157 143.425993 
L 291.855868 143.287895 
L 292.173223 142.55453 
L 292.490579 142.466971 
L 292.807934 141.944141 
L 293.125289 141.807228 
L 293.442645 141.29755 
L 294.077355 141.252654 
L 294.394711 141.142783 
L 295.029421 140.583523 
L 295.346777 140.027652 
L 295.664132 139.977196 
L 295.981488 139.255484 
L 297.568264 138.248778 
L 297.88562 137.828841 
L 298.520331 137.717866 
L 298.837686 137.538136 
L 299.155041 137.229661 
L 299.472397 136.749335 
L 300.424463 136.372648 
L 300.741818 135.845707 
L 301.693884 135.655922 
L 303.280661 134.751412 
L 303.598017 134.283385 
L 303.915372 134.034761 
L 304.232727 133.576137 
L 304.550083 133.421024 
L 304.867438 133.405578 
L 305.502149 132.625213 
L 305.819504 132.187069 
L 306.13686 132.175731 
L 306.454215 131.738786 
L 307.088926 131.569324 
L 307.406281 131.220888 
L 308.040992 131.0607 
L 308.358347 130.964417 
L 308.675702 130.717703 
L 309.310413 130.425099 
L 309.627769 130.152462 
L 309.945124 130.069296 
L 310.262479 129.416742 
L 310.579835 129.341315 
L 310.89719 129.025091 
L 311.531901 128.758791 
L 311.849256 128.561855 
L 312.166612 128.558666 
L 312.801322 128.309454 
L 313.436033 127.962467 
L 313.753388 127.709762 
L 314.705455 127.5251 
L 315.02281 127.055242 
L 315.340165 126.884344 
L 315.657521 126.851136 
L 315.974876 126.290187 
L 316.609587 125.95609 
L 317.244298 124.579454 
L 317.561653 124.447631 
L 318.513719 123.548633 
L 319.14843 123.446607 
L 319.78314 122.803823 
L 321.052562 122.278376 
L 321.687273 121.631738 
L 322.004628 121.614694 
L 322.639339 120.633487 
L 322.956694 120.344729 
L 323.27405 119.333019 
L 323.90876 119.105433 
L 324.543471 118.167232 
L 324.860826 117.931741 
L 325.178182 117.468151 
L 326.130248 117.162237 
L 326.447603 116.942147 
L 327.082314 116.816182 
L 328.03438 116.610307 
L 328.351736 115.849201 
L 328.986446 115.765278 
L 329.938512 114.816182 
L 330.255868 114.597895 
L 330.573223 114.09482 
L 330.890579 114.052822 
L 331.207934 113.425087 
L 331.842645 113.26525 
L 332.16 112.868948 
L 332.477355 112.724145 
L 332.794711 112.450107 
L 333.112066 111.962386 
L 333.429421 111.907722 
L 335.016198 110.707056 
L 335.968264 110.213617 
L 336.28562 109.920793 
L 336.920331 109.786647 
L 337.872397 109.178092 
L 338.189752 108.594662 
L 338.507107 108.563022 
L 338.824463 108.148246 
L 339.459174 107.835249 
L 339.776529 107.221759 
L 340.093884 107.135605 
L 340.41124 106.829099 
L 340.728595 106.783874 
L 341.04595 106.036302 
L 341.363306 104.967219 
L 341.680661 104.884823 
L 341.998017 104.528634 
L 342.315372 103.148079 
L 342.632727 102.888498 
L 342.950083 102.837342 
L 343.584793 101.907195 
L 344.219504 101.144749 
L 344.53686 100.770967 
L 344.854215 100.745137 
L 345.17157 100.356884 
L 345.806281 99.922939 
L 346.123636 99.7475 
L 346.440992 99.721694 
L 348.027769 98.364716 
L 348.345124 97.169887 
L 348.662479 96.995557 
L 348.979835 96.669887 
L 349.614545 96.525029 
L 350.566612 96.33875 
L 350.883967 95.911195 
L 351.201322 95.876012 
L 351.518678 95.412922 
L 351.836033 95.345092 
L 352.470744 95.007284 
L 352.788099 94.974337 
L 353.42281 94.306156 
L 353.740165 93.740264 
L 354.374876 93.647962 
L 355.009587 93.366812 
L 355.326942 92.690292 
L 355.961653 92.61817 
L 356.596364 91.860054 
L 356.913719 91.844618 
L 357.231074 91.653071 
L 357.54843 91.624877 
L 357.865785 91.226477 
L 358.18314 89.733812 
L 358.500496 89.239868 
L 360.087273 88.281967 
L 361.039339 88.109451 
L 361.356694 86.783978 
L 361.991405 86.594461 
L 362.626116 85.628003 
L 362.943471 85.561851 
L 363.578182 85.069957 
L 363.895537 85.034747 
L 364.212893 84.303134 
L 364.530248 84.208469 
L 365.164959 82.859817 
L 365.482314 82.754763 
L 365.799669 82.002829 
L 366.117025 81.89384 
L 366.751736 81.233173 
L 367.069091 81.060401 
L 367.703802 80.167919 
L 368.338512 80.030794 
L 368.973223 79.540415 
L 369.290579 79.536542 
L 369.925289 79.098832 
L 370.242645 79.0042 
L 370.877355 78.653131 
L 371.194711 78.63829 
L 371.829421 78.321256 
L 372.146777 78.056981 
L 372.464132 77.980455 
L 373.416198 77.181433 
L 373.733554 77.015288 
L 374.050909 76.988146 
L 374.368264 76.241655 
L 374.68562 76.235569 
L 375.002975 75.490059 
L 375.637686 75.369458 
L 375.955041 75.160497 
L 376.589752 72.878808 
L 377.224463 72.608707 
L 377.859174 72.052233 
L 378.176529 71.535824 
L 378.493884 70.713557 
L 378.81124 70.473747 
L 379.44595 70.431384 
L 379.763306 69.750885 
L 380.080661 69.573504 
L 381.032727 68.30599 
L 381.667438 68.172659 
L 381.984793 67.402162 
L 382.619504 66.854556 
L 383.888926 66.678347 
L 384.206281 66.443817 
L 384.523636 66.385606 
L 385.158347 65.918972 
L 385.475702 65.918679 
L 386.427769 64.70782 
L 386.745124 64.593972 
L 387.062479 64.261929 
L 387.379835 64.137902 
L 387.69719 63.26601 
L 388.014545 63.074203 
L 388.649256 62.202365 
L 388.966612 62.199278 
L 389.283967 61.75126 
L 389.601322 61.694876 
L 389.918678 61.368107 
L 390.236033 61.248585 
L 390.553388 60.843365 
L 390.870744 60.085436 
L 391.82281 59.224764 
L 392.457521 59.015227 
L 392.774876 58.337531 
L 393.092231 58.05224 
L 393.726942 57.953251 
L 394.361653 56.679484 
L 396.265785 56.142444 
L 396.900496 55.398887 
L 397.217851 55.154979 
L 398.169917 53.701328 
L 398.487273 53.568 
L 398.487273 53.568 
" clip-path="url(#pbccc35b072)" style="fill: none; stroke: #1f77b4; stroke-width: 1.5; stroke-linecap: square"/>
   </g>
   <g id="line2d_15">
    <path d="M 73.832727 178.127648 
L 74.150083 177.74188 
L 74.784793 177.594529 
L 75.419504 177.356113 
L 80.814545 176.80305 
L 97.317025 176.182217 
L 103.029421 176.051459 
L 105.88562 175.973973 
L 114.77157 175.813042 
L 122.388099 175.702129 
L 147.141818 175.359546 
L 159.201322 175.212804 
L 205.217851 174.762853 
L 226.163306 174.571596 
L 252.503802 174.311247 
L 268.054215 174.176022 
L 276.62281 174.082446 
L 288.047603 173.975216 
L 300.424463 173.837111 
L 313.753388 173.696679 
L 339.776529 173.374021 
L 342.950083 173.329024 
L 382.619504 172.512757 
L 393.726942 171.959837 
L 397.852562 171.355855 
L 398.487273 171.044442 
L 398.487273 171.044442 
" clip-path="url(#pbccc35b072)" style="fill: none; stroke: #ff7f0e; stroke-width: 1.5; stroke-linecap: square"/>
   </g>
   <g id="patch_3">
    <path d="M 57.6 307.584 
L 57.6 41.472 
" style="fill: none; stroke: #000000; stroke-width: 0.8; stroke-linejoin: miter; stroke-linecap: square"/>
   </g>
   <g id="patch_4">
    <path d="M 414.72 307.584 
L 414.72 41.472 
" style="fill: none; stroke: #000000; stroke-width: 0.8; stroke-linejoin: miter; stroke-linecap: square"/>
   </g>
   <g id="patch_5">
    <path d="M 57.6 307.584 
L 414.72 307.584 
" style="fill: none; stroke: #000000; stroke-width: 0.8; stroke-linejoin: miter; stroke-linecap: square"/>
   </g>
   <g id="patch_6">
    <path d="M 57.6 41.472 
L 414.72 41.472 
" style="fill: none; stroke: #000000; stroke-width: 0.8; stroke-linejoin: miter; stroke-linecap: square"/>
   </g>
   <g id="legend_1">
    <g id="patch_7">
     <path d="M 64.6 78.82825 
L 129.342187 78.82825 
Q 131.342187 78.82825 131.342187 76.82825 
L 131.342187 48.472 
Q 131.342187 46.472 129.342187 46.472 
L 64.6 46.472 
Q 62.6 46.472 62.6 48.472 
L 62.6 76.82825 
Q 62.6 78.82825 64.6 78.82825 
z
" style="fill: #ffffff; opacity: 0.8; stroke: #cccccc; stroke-linejoin: miter"/>
    </g>
    <g id="line2d_16">
     <path d="M 66.6 54.570437 
L 76.6 54.570437 
L 86.6 54.570437 
" style="fill: none; stroke: #1f77b4; stroke-width: 1.5; stroke-linecap: square"/>
    </g>
    <g id="text_16">
     <!-- qc -->
     <g transform="translate(94.6 58.070437) scale(0.1 -0.1)">
      <defs>
       <path id="DejaVuSans-71" d="M 947 1747 
Q 947 1113 1208 752 
Q 1469 391 1925 391 
Q 2381 391 2643 752 
Q 2906 1113 2906 1747 
Q 2906 2381 2643 2742 
Q 2381 3103 1925 3103 
Q 1469 3103 1208 2742 
Q 947 2381 947 1747 
z
M 2906 525 
Q 2725 213 2448 61 
Q 2172 -91 1784 -91 
Q 1150 -91 751 415 
Q 353 922 353 1747 
Q 353 2572 751 3078 
Q 1150 3584 1784 3584 
Q 2172 3584 2448 3432 
Q 2725 3281 2906 2969 
L 2906 3500 
L 3481 3500 
L 3481 -1331 
L 2906 -1331 
L 2906 525 
z
" transform="scale(0.015625)"/>
       <path id="DejaVuSans-63" d="M 3122 3366 
L 3122 2828 
Q 2878 2963 2633 3030 
Q 2388 3097 2138 3097 
Q 1578 3097 1268 2742 
Q 959 2388 959 1747 
Q 959 1106 1268 751 
Q 1578 397 2138 397 
Q 2388 397 2633 464 
Q 2878 531 3122 666 
L 3122 134 
Q 2881 22 2623 -34 
Q 2366 -91 2075 -91 
Q 1284 -91 818 406 
Q 353 903 353 1747 
Q 353 2603 823 3093 
Q 1294 3584 2113 3584 
Q 2378 3584 2631 3529 
Q 2884 3475 3122 3366 
z
" transform="scale(0.015625)"/>
      </defs>
      <use xlink:href="#DejaVuSans-71"/>
      <use xlink:href="#DejaVuSans-63" x="63.476562"/>
     </g>
    </g>
    <g id="line2d_17">
     <path d="M 66.6 69.248562 
L 76.6 69.248562 
L 86.6 69.248562 
" style="fill: none; stroke: #ff7f0e; stroke-width: 1.5; stroke-linecap: square"/>
    </g>
    <g id="text_17">
     <!-- Trotter -->
     <g transform="translate(94.6 72.748562) scale(0.1 -0.1)">
      <defs>
       <path id="DejaVuSans-54" d="M -19 4666 
L 3928 4666 
L 3928 4134 
L 2272 4134 
L 2272 0 
L 1638 0 
L 1638 4134 
L -19 4134 
L -19 4666 
z
" transform="scale(0.015625)"/>
       <path id="DejaVuSans-72" d="M 2631 2963 
Q 2534 3019 2420 3045 
Q 2306 3072 2169 3072 
Q 1681 3072 1420 2755 
Q 1159 2438 1159 1844 
L 1159 0 
L 581 0 
L 581 3500 
L 1159 3500 
L 1159 2956 
Q 1341 3275 1631 3429 
Q 1922 3584 2338 3584 
Q 2397 3584 2469 3576 
Q 2541 3569 2628 3553 
L 2631 2963 
z
" transform="scale(0.015625)"/>
       <path id="DejaVuSans-6f" d="M 1959 3097 
Q 1497 3097 1228 2736 
Q 959 2375 959 1747 
Q 959 1119 1226 758 
Q 1494 397 1959 397 
Q 2419 397 2687 759 
Q 2956 1122 2956 1747 
Q 2956 2369 2687 2733 
Q 2419 3097 1959 3097 
z
M 1959 3584 
Q 2709 3584 3137 3096 
Q 3566 2609 3566 1747 
Q 3566 888 3137 398 
Q 2709 -91 1959 -91 
Q 1206 -91 779 398 
Q 353 888 353 1747 
Q 353 2609 779 3096 
Q 1206 3584 1959 3584 
z
" transform="scale(0.015625)"/>
       <path id="DejaVuSans-65" d="M 3597 1894 
L 3597 1613 
L 953 1613 
Q 991 1019 1311 708 
Q 1631 397 2203 397 
Q 2534 397 2845 478 
Q 3156 559 3463 722 
L 3463 178 
Q 3153 47 2828 -22 
Q 2503 -91 2169 -91 
Q 1331 -91 842 396 
Q 353 884 353 1716 
Q 353 2575 817 3079 
Q 1281 3584 2069 3584 
Q 2775 3584 3186 3129 
Q 3597 2675 3597 1894 
z
M 3022 2063 
Q 3016 2534 2758 2815 
Q 2500 3097 2075 3097 
Q 1594 3097 1305 2825 
Q 1016 2553 972 2059 
L 3022 2063 
z
" transform="scale(0.015625)"/>
      </defs>
      <use xlink:href="#DejaVuSans-54"/>
      <use xlink:href="#DejaVuSans-72" x="46.333984"/>
      <use xlink:href="#DejaVuSans-6f" x="85.197266"/>
      <use xlink:href="#DejaVuSans-74" x="146.378906"/>
      <use xlink:href="#DejaVuSans-74" x="185.587891"/>
      <use xlink:href="#DejaVuSans-65" x="224.796875"/>
      <use xlink:href="#DejaVuSans-72" x="286.320312"/>
     </g>
    </g>
   </g>
  </g>
 </g>
 <defs>
  <clipPath id="pbccc35b072">
   <rect x="57.6" y="41.472" width="357.12" height="266.112"/>
  </clipPath>
 </defs>
</svg>
