<?xml version="1.0" encoding="utf-8" standalone="no"?>
<!DOCTYPE svg PUBLIC "-//W3C//DTD SVG 1.1//EN"
  "http://www.w3.org/Graphics/SVG/1.1/DTD/svg11.dtd">
<svg xmlns:xlink="http://www.w3.org/1999/xlink" width="460.8pt" height="345.6pt" viewBox="0 0 460.8 345.6" xmlns="http://www.w3.org/2000/svg" version="1.1">
 <metadata>
  <rdf:RDF xmlns:dc="http://purl.org/dc/elements/1.1/" xmlns:cc="http://creativecommons.org/ns#" xmlns:rdf="http://www.w3.org/1999/02/22-rdf-syntax-ns#">
   <cc:Work>
    <dc:type rdf:resource="http://purl.org/dc/dcmitype/StillImage"/>
    <dc:date>2024-07-08T15:32:56.711370</dc:date>
    <dc:format>image/svg+xml</dc:format>
    <dc:creator>
     <cc:Agent>
      <dc:title>Matplotlib v3.7.1, https://matplotlib.org/</dc:title>
     </cc:Agent>
    </dc:creator>
   </cc:Work>
  </rdf:RDF>
 </metadata>
 <defs>
  <style type="text/css">*{stroke-linejoin: round; stroke-linecap: butt}</style>
 </defs>
 <g id="figure_1">
  <g id="patch_1">
   <path d="M 0 345.6 
L 460.8 345.6 
L 460.8 0 
L 0 0 
z
" style="fill: #ffffff"/>
  </g>
  <g id="axes_1">
   <g id="patch_2">
    <path d="M 57.6 307.584 
L 414.72 307.584 
L 414.72 41.472 
L 57.6 41.472 
z
" style="fill: #ffffff"/>
   </g>
   <g id="matplotlib.axis_1">
    <g id="xtick_1">
     <g id="line2d_1">
      <defs>
       <path id="m2711dfea98" d="M 0 0 
L 0 3.5 
" style="stroke: #000000; stroke-width: 0.8"/>
      </defs>
      <g>
       <use xlink:href="#m2711dfea98" x="73.832727" y="307.584" style="stroke: #000000; stroke-width: 0.8"/>
      </g>
     </g>
     <g id="text_1">
      <!-- 0 -->
      <g transform="translate(70.651477 322.182437) scale(0.1 -0.1)">
       <defs>
        <path id="DejaVuSans-30" d="M 2034 4250 
Q 1547 4250 1301 3770 
Q 1056 3291 1056 2328 
Q 1056 1369 1301 889 
Q 1547 409 2034 409 
Q 2525 409 2770 889 
Q 3016 1369 3016 2328 
Q 3016 3291 2770 3770 
Q 2525 4250 2034 4250 
z
M 2034 4750 
Q 2819 4750 3233 4129 
Q 3647 3509 3647 2328 
Q 3647 1150 3233 529 
Q 2819 -91 2034 -91 
Q 1250 -91 836 529 
Q 422 1150 422 2328 
Q 422 3509 836 4129 
Q 1250 4750 2034 4750 
z
" transform="scale(0.015625)"/>
       </defs>
       <use xlink:href="#DejaVuSans-30"/>
      </g>
     </g>
    </g>
    <g id="xtick_2">
     <g id="line2d_2">
      <g>
       <use xlink:href="#m2711dfea98" x="137.303802" y="307.584" style="stroke: #000000; stroke-width: 0.8"/>
      </g>
     </g>
     <g id="text_2">
      <!-- 200 -->
      <g transform="translate(127.760052 322.182437) scale(0.1 -0.1)">
       <defs>
        <path id="DejaVuSans-32" d="M 1228 531 
L 3431 531 
L 3431 0 
L 469 0 
L 469 531 
Q 828 903 1448 1529 
Q 2069 2156 2228 2338 
Q 2531 2678 2651 2914 
Q 2772 3150 2772 3378 
Q 2772 3750 2511 3984 
Q 2250 4219 1831 4219 
Q 1534 4219 1204 4116 
Q 875 4013 500 3803 
L 500 4441 
Q 881 4594 1212 4672 
Q 1544 4750 1819 4750 
Q 2544 4750 2975 4387 
Q 3406 4025 3406 3419 
Q 3406 3131 3298 2873 
Q 3191 2616 2906 2266 
Q 2828 2175 2409 1742 
Q 1991 1309 1228 531 
z
" transform="scale(0.015625)"/>
       </defs>
       <use xlink:href="#DejaVuSans-32"/>
       <use xlink:href="#DejaVuSans-30" x="63.623047"/>
       <use xlink:href="#DejaVuSans-30" x="127.246094"/>
      </g>
     </g>
    </g>
    <g id="xtick_3">
     <g id="line2d_3">
      <g>
       <use xlink:href="#m2711dfea98" x="200.774876" y="307.584" style="stroke: #000000; stroke-width: 0.8"/>
      </g>
     </g>
     <g id="text_3">
      <!-- 400 -->
      <g transform="translate(191.231126 322.182437) scale(0.1 -0.1)">
       <defs>
        <path id="DejaVuSans-34" d="M 2419 4116 
L 825 1625 
L 2419 1625 
L 2419 4116 
z
M 2253 4666 
L 3047 4666 
L 3047 1625 
L 3713 1625 
L 3713 1100 
L 3047 1100 
L 3047 0 
L 2419 0 
L 2419 1100 
L 313 1100 
L 313 1709 
L 2253 4666 
z
" transform="scale(0.015625)"/>
       </defs>
       <use xlink:href="#DejaVuSans-34"/>
       <use xlink:href="#DejaVuSans-30" x="63.623047"/>
       <use xlink:href="#DejaVuSans-30" x="127.246094"/>
      </g>
     </g>
    </g>
    <g id="xtick_4">
     <g id="line2d_4">
      <g>
       <use xlink:href="#m2711dfea98" x="264.24595" y="307.584" style="stroke: #000000; stroke-width: 0.8"/>
      </g>
     </g>
     <g id="text_4">
      <!-- 600 -->
      <g transform="translate(254.7022 322.182437) scale(0.1 -0.1)">
       <defs>
        <path id="DejaVuSans-36" d="M 2113 2584 
Q 1688 2584 1439 2293 
Q 1191 2003 1191 1497 
Q 1191 994 1439 701 
Q 1688 409 2113 409 
Q 2538 409 2786 701 
Q 3034 994 3034 1497 
Q 3034 2003 2786 2293 
Q 2538 2584 2113 2584 
z
M 3366 4563 
L 3366 3988 
Q 3128 4100 2886 4159 
Q 2644 4219 2406 4219 
Q 1781 4219 1451 3797 
Q 1122 3375 1075 2522 
Q 1259 2794 1537 2939 
Q 1816 3084 2150 3084 
Q 2853 3084 3261 2657 
Q 3669 2231 3669 1497 
Q 3669 778 3244 343 
Q 2819 -91 2113 -91 
Q 1303 -91 875 529 
Q 447 1150 447 2328 
Q 447 3434 972 4092 
Q 1497 4750 2381 4750 
Q 2619 4750 2861 4703 
Q 3103 4656 3366 4563 
z
" transform="scale(0.015625)"/>
       </defs>
       <use xlink:href="#DejaVuSans-36"/>
       <use xlink:href="#DejaVuSans-30" x="63.623047"/>
       <use xlink:href="#DejaVuSans-30" x="127.246094"/>
      </g>
     </g>
    </g>
    <g id="xtick_5">
     <g id="line2d_5">
      <g>
       <use xlink:href="#m2711dfea98" x="327.717025" y="307.584" style="stroke: #000000; stroke-width: 0.8"/>
      </g>
     </g>
     <g id="text_5">
      <!-- 800 -->
      <g transform="translate(318.173275 322.182437) scale(0.1 -0.1)">
       <defs>
        <path id="DejaVuSans-38" d="M 2034 2216 
Q 1584 2216 1326 1975 
Q 1069 1734 1069 1313 
Q 1069 891 1326 650 
Q 1584 409 2034 409 
Q 2484 409 2743 651 
Q 3003 894 3003 1313 
Q 3003 1734 2745 1975 
Q 2488 2216 2034 2216 
z
M 1403 2484 
Q 997 2584 770 2862 
Q 544 3141 544 3541 
Q 544 4100 942 4425 
Q 1341 4750 2034 4750 
Q 2731 4750 3128 4425 
Q 3525 4100 3525 3541 
Q 3525 3141 3298 2862 
Q 3072 2584 2669 2484 
Q 3125 2378 3379 2068 
Q 3634 1759 3634 1313 
Q 3634 634 3220 271 
Q 2806 -91 2034 -91 
Q 1263 -91 848 271 
Q 434 634 434 1313 
Q 434 1759 690 2068 
Q 947 2378 1403 2484 
z
M 1172 3481 
Q 1172 3119 1398 2916 
Q 1625 2713 2034 2713 
Q 2441 2713 2670 2916 
Q 2900 3119 2900 3481 
Q 2900 3844 2670 4047 
Q 2441 4250 2034 4250 
Q 1625 4250 1398 4047 
Q 1172 3844 1172 3481 
z
" transform="scale(0.015625)"/>
       </defs>
       <use xlink:href="#DejaVuSans-38"/>
       <use xlink:href="#DejaVuSans-30" x="63.623047"/>
       <use xlink:href="#DejaVuSans-30" x="127.246094"/>
      </g>
     </g>
    </g>
    <g id="xtick_6">
     <g id="line2d_6">
      <g>
       <use xlink:href="#m2711dfea98" x="391.188099" y="307.584" style="stroke: #000000; stroke-width: 0.8"/>
      </g>
     </g>
     <g id="text_6">
      <!-- 1000 -->
      <g transform="translate(378.463099 322.182437) scale(0.1 -0.1)">
       <defs>
        <path id="DejaVuSans-31" d="M 794 531 
L 1825 531 
L 1825 4091 
L 703 3866 
L 703 4441 
L 1819 4666 
L 2450 4666 
L 2450 531 
L 3481 531 
L 3481 0 
L 794 0 
L 794 531 
z
" transform="scale(0.015625)"/>
       </defs>
       <use xlink:href="#DejaVuSans-31"/>
       <use xlink:href="#DejaVuSans-30" x="63.623047"/>
       <use xlink:href="#DejaVuSans-30" x="127.246094"/>
       <use xlink:href="#DejaVuSans-30" x="190.869141"/>
      </g>
     </g>
    </g>
    <g id="text_7">
     <!-- n -->
     <g transform="translate(232.99125 335.860562) scale(0.1 -0.1)">
      <defs>
       <path id="DejaVuSans-6e" d="M 3513 2113 
L 3513 0 
L 2938 0 
L 2938 2094 
Q 2938 2591 2744 2837 
Q 2550 3084 2163 3084 
Q 1697 3084 1428 2787 
Q 1159 2491 1159 1978 
L 1159 0 
L 581 0 
L 581 3500 
L 1159 3500 
L 1159 2956 
Q 1366 3272 1645 3428 
Q 1925 3584 2291 3584 
Q 2894 3584 3203 3211 
Q 3513 2838 3513 2113 
z
" transform="scale(0.015625)"/>
      </defs>
      <use xlink:href="#DejaVuSans-6e"/>
     </g>
    </g>
   </g>
   <g id="matplotlib.axis_2">
    <g id="ytick_1">
     <g id="line2d_7">
      <defs>
       <path id="m45012a0b94" d="M 0 0 
L -3.5 0 
" style="stroke: #000000; stroke-width: 0.8"/>
      </defs>
      <g>
       <use xlink:href="#m45012a0b94" x="57.6" y="290.101363" style="stroke: #000000; stroke-width: 0.8"/>
      </g>
     </g>
     <g id="text_8">
      <!-- −3 -->
      <g transform="translate(35.857813 293.900581) scale(0.1 -0.1)">
       <defs>
        <path id="DejaVuSans-2212" d="M 678 2272 
L 4684 2272 
L 4684 1741 
L 678 1741 
L 678 2272 
z
" transform="scale(0.015625)"/>
        <path id="DejaVuSans-33" d="M 2597 2516 
Q 3050 2419 3304 2112 
Q 3559 1806 3559 1356 
Q 3559 666 3084 287 
Q 2609 -91 1734 -91 
Q 1441 -91 1130 -33 
Q 819 25 488 141 
L 488 750 
Q 750 597 1062 519 
Q 1375 441 1716 441 
Q 2309 441 2620 675 
Q 2931 909 2931 1356 
Q 2931 1769 2642 2001 
Q 2353 2234 1838 2234 
L 1294 2234 
L 1294 2753 
L 1863 2753 
Q 2328 2753 2575 2939 
Q 2822 3125 2822 3475 
Q 2822 3834 2567 4026 
Q 2313 4219 1838 4219 
Q 1578 4219 1281 4162 
Q 984 4106 628 3988 
L 628 4550 
Q 988 4650 1302 4700 
Q 1616 4750 1894 4750 
Q 2613 4750 3031 4423 
Q 3450 4097 3450 3541 
Q 3450 3153 3228 2886 
Q 3006 2619 2597 2516 
z
" transform="scale(0.015625)"/>
       </defs>
       <use xlink:href="#DejaVuSans-2212"/>
       <use xlink:href="#DejaVuSans-33" x="83.789062"/>
      </g>
     </g>
    </g>
    <g id="ytick_2">
     <g id="line2d_8">
      <g>
       <use xlink:href="#m45012a0b94" x="57.6" y="251.539937" style="stroke: #000000; stroke-width: 0.8"/>
      </g>
     </g>
     <g id="text_9">
      <!-- −2 -->
      <g transform="translate(35.857813 255.339156) scale(0.1 -0.1)">
       <use xlink:href="#DejaVuSans-2212"/>
       <use xlink:href="#DejaVuSans-32" x="83.789062"/>
      </g>
     </g>
    </g>
    <g id="ytick_3">
     <g id="line2d_9">
      <g>
       <use xlink:href="#m45012a0b94" x="57.6" y="212.978511" style="stroke: #000000; stroke-width: 0.8"/>
      </g>
     </g>
     <g id="text_10">
      <!-- −1 -->
      <g transform="translate(35.857813 216.77773) scale(0.1 -0.1)">
       <use xlink:href="#DejaVuSans-2212"/>
       <use xlink:href="#DejaVuSans-31" x="83.789062"/>
      </g>
     </g>
    </g>
    <g id="ytick_4">
     <g id="line2d_10">
      <g>
       <use xlink:href="#m45012a0b94" x="57.6" y="174.417085" style="stroke: #000000; stroke-width: 0.8"/>
      </g>
     </g>
     <g id="text_11">
      <!-- 0 -->
      <g transform="translate(44.2375 178.216304) scale(0.1 -0.1)">
       <use xlink:href="#DejaVuSans-30"/>
      </g>
     </g>
    </g>
    <g id="ytick_5">
     <g id="line2d_11">
      <g>
       <use xlink:href="#m45012a0b94" x="57.6" y="135.85566" style="stroke: #000000; stroke-width: 0.8"/>
      </g>
     </g>
     <g id="text_12">
      <!-- 1 -->
      <g transform="translate(44.2375 139.654878) scale(0.1 -0.1)">
       <use xlink:href="#DejaVuSans-31"/>
      </g>
     </g>
    </g>
    <g id="ytick_6">
     <g id="line2d_12">
      <g>
       <use xlink:href="#m45012a0b94" x="57.6" y="97.294234" style="stroke: #000000; stroke-width: 0.8"/>
      </g>
     </g>
     <g id="text_13">
      <!-- 2 -->
      <g transform="translate(44.2375 101.093453) scale(0.1 -0.1)">
       <use xlink:href="#DejaVuSans-32"/>
      </g>
     </g>
    </g>
    <g id="ytick_7">
     <g id="line2d_13">
      <g>
       <use xlink:href="#m45012a0b94" x="57.6" y="58.732808" style="stroke: #000000; stroke-width: 0.8"/>
      </g>
     </g>
     <g id="text_14">
      <!-- 3 -->
      <g transform="translate(44.2375 62.532027) scale(0.1 -0.1)">
       <use xlink:href="#DejaVuSans-33"/>
      </g>
     </g>
    </g>
    <g id="text_15">
     <!-- E*t -->
     <g transform="translate(29.778125 182.147531) rotate(-90) scale(0.1 -0.1)">
      <defs>
       <path id="DejaVuSans-45" d="M 628 4666 
L 3578 4666 
L 3578 4134 
L 1259 4134 
L 1259 2753 
L 3481 2753 
L 3481 2222 
L 1259 2222 
L 1259 531 
L 3634 531 
L 3634 0 
L 628 0 
L 628 4666 
z
" transform="scale(0.015625)"/>
       <path id="DejaVuSans-2a" d="M 3009 3897 
L 1888 3291 
L 3009 2681 
L 2828 2375 
L 1778 3009 
L 1778 1831 
L 1422 1831 
L 1422 3009 
L 372 2375 
L 191 2681 
L 1313 3291 
L 191 3897 
L 372 4206 
L 1422 3572 
L 1422 4750 
L 1778 4750 
L 1778 3572 
L 2828 4206 
L 3009 3897 
z
" transform="scale(0.015625)"/>
       <path id="DejaVuSans-74" d="M 1172 4494 
L 1172 3500 
L 2356 3500 
L 2356 3053 
L 1172 3053 
L 1172 1153 
Q 1172 725 1289 603 
Q 1406 481 1766 481 
L 2356 481 
L 2356 0 
L 1766 0 
Q 1100 0 847 248 
Q 594 497 594 1153 
L 594 3053 
L 172 3053 
L 172 3500 
L 594 3500 
L 594 4494 
L 1172 4494 
z
" transform="scale(0.015625)"/>
      </defs>
      <use xlink:href="#DejaVuSans-45"/>
      <use xlink:href="#DejaVuSans-2a" x="63.183594"/>
      <use xlink:href="#DejaVuSans-74" x="113.183594"/>
     </g>
    </g>
   </g>
   <g id="line2d_14">
    <path d="M 73.832727 295.488 
L 74.467438 295.124763 
L 75.73686 294.956787 
L 76.688926 294.476685 
L 77.006281 294.070983 
L 77.640992 293.801005 
L 77.958347 293.425438 
L 79.545124 292.764982 
L 79.862479 292.676079 
L 81.131901 291.640704 
L 81.449256 291.550083 
L 81.766612 291.277627 
L 82.083967 291.24747 
L 84.305455 289.978134 
L 84.62281 289.977471 
L 85.574876 289.432731 
L 85.892231 288.972723 
L 86.209587 288.748837 
L 86.844298 288.710462 
L 87.161653 288.329189 
L 87.479008 287.763435 
L 87.796364 287.646682 
L 88.113719 287.289229 
L 88.431074 286.306523 
L 88.74843 286.017453 
L 89.38314 285.95784 
L 89.700496 285.721198 
L 90.335207 285.585313 
L 90.652562 285.275522 
L 90.969917 284.725535 
L 91.604628 283.056731 
L 91.921983 282.99623 
L 92.239339 282.631443 
L 92.556694 282.608571 
L 92.87405 281.592891 
L 93.191405 281.585325 
L 93.50876 281.347103 
L 94.143471 281.241064 
L 94.460826 280.516135 
L 95.412893 279.534026 
L 96.364959 277.580393 
L 96.682314 277.211808 
L 97.63438 276.849591 
L 97.951736 276.020062 
L 98.903802 275.631779 
L 99.221157 275.432557 
L 99.855868 274.735378 
L 100.173223 273.790684 
L 100.490579 273.64818 
L 100.807934 273.162181 
L 101.442645 271.626143 
L 101.76 271.432422 
L 102.077355 269.950606 
L 102.712066 269.914024 
L 103.029421 269.750354 
L 103.346777 268.833506 
L 103.664132 268.803128 
L 104.616198 267.957654 
L 104.933554 267.373446 
L 105.88562 267.194105 
L 106.202975 266.77556 
L 106.520331 266.001253 
L 106.837686 265.752636 
L 107.155041 264.959693 
L 107.472397 264.892649 
L 107.789752 264.649925 
L 108.107107 263.954117 
L 108.424463 263.701326 
L 108.741818 263.280334 
L 109.059174 262.47736 
L 110.01124 262.433768 
L 110.963306 261.934355 
L 111.280661 260.82458 
L 111.598017 260.668148 
L 111.915372 259.782414 
L 112.550083 259.75106 
L 112.867438 259.435835 
L 113.502149 259.308895 
L 114.13686 258.560242 
L 114.454215 258.310288 
L 114.77157 258.305781 
L 115.406281 258.0849 
L 116.358347 257.249538 
L 116.675702 256.718016 
L 116.993058 255.108713 
L 117.627769 254.626424 
L 117.945124 254.613161 
L 118.262479 254.463627 
L 118.89719 254.447777 
L 119.214545 254.225639 
L 119.531901 253.613628 
L 120.166612 253.222845 
L 120.483967 253.219793 
L 121.753388 252.764344 
L 122.070744 251.916278 
L 123.340165 251.682707 
L 124.292231 250.829938 
L 124.926942 249.757796 
L 125.879008 249.678659 
L 126.513719 249.12133 
L 127.14843 248.986633 
L 127.465785 248.939625 
L 129.052562 248.079823 
L 130.004628 247.73062 
L 130.321983 247.26749 
L 130.956694 246.844689 
L 131.591405 246.685361 
L 132.226116 245.722476 
L 132.543471 245.585961 
L 132.860826 245.262793 
L 133.178182 245.219096 
L 134.130248 244.182554 
L 135.082314 243.984219 
L 135.717025 243.959659 
L 136.03438 243.686418 
L 136.669091 243.570098 
L 137.938512 242.960102 
L 138.890579 242.752221 
L 139.525289 242.28429 
L 139.842645 241.855725 
L 140.16 241.711708 
L 140.477355 241.193937 
L 141.112066 241.090971 
L 141.429421 239.770459 
L 141.746777 239.594128 
L 142.381488 239.505712 
L 142.698843 239.174719 
L 143.016198 239.173473 
L 143.650909 238.855176 
L 144.28562 238.701078 
L 144.602975 238.422948 
L 144.920331 238.36372 
L 145.237686 238.167957 
L 145.555041 237.474945 
L 145.872397 237.21615 
L 146.824463 237.052753 
L 147.141818 236.594335 
L 148.093884 236.339634 
L 148.41124 236.04682 
L 148.728595 235.991673 
L 149.04595 235.366209 
L 149.363306 235.334019 
L 150.315372 234.851148 
L 150.632727 234.709115 
L 150.950083 234.441867 
L 151.584793 234.210897 
L 151.902149 233.732082 
L 152.854215 233.250853 
L 154.123636 233.0387 
L 154.440992 232.817066 
L 154.758347 232.765856 
L 155.075702 232.409828 
L 155.710413 232.194467 
L 156.027769 232.164643 
L 156.662479 231.729045 
L 157.29719 231.628188 
L 157.614545 231.368111 
L 157.931901 230.777741 
L 159.201322 230.573394 
L 159.518678 230.317124 
L 159.836033 229.705299 
L 160.470744 229.345039 
L 161.105455 228.306655 
L 161.42281 228.272629 
L 161.740165 227.986015 
L 163.009587 227.566782 
L 163.326942 227.55831 
L 164.279008 227.14087 
L 164.596364 226.475196 
L 164.913719 226.274507 
L 165.54843 226.160185 
L 165.865785 225.916045 
L 166.500496 225.795325 
L 166.817851 225.768019 
L 167.135207 224.922585 
L 167.452562 224.404734 
L 168.087273 224.171825 
L 168.721983 223.622599 
L 169.356694 223.167504 
L 171.260826 221.953713 
L 171.578182 221.882164 
L 172.212893 221.554878 
L 172.847603 221.255639 
L 173.164959 220.952772 
L 173.799669 220.785235 
L 174.117025 219.080617 
L 174.43438 218.703956 
L 175.386446 218.548305 
L 175.703802 217.985172 
L 176.338512 217.66102 
L 176.973223 217.402116 
L 177.290579 216.745218 
L 177.607934 216.371862 
L 177.925289 215.734579 
L 178.56 215.563923 
L 178.877355 215.287156 
L 179.194711 215.185104 
L 179.512066 214.206295 
L 179.829421 213.931656 
L 180.146777 212.884397 
L 180.781488 212.524361 
L 181.098843 211.92693 
L 182.050909 211.431072 
L 182.368264 210.502005 
L 182.68562 210.457057 
L 183.320331 209.707503 
L 183.637686 209.538824 
L 183.955041 209.236254 
L 184.272397 209.203714 
L 184.589752 208.638435 
L 185.541818 208.297025 
L 186.176529 207.857544 
L 186.493884 207.114893 
L 187.44595 206.641938 
L 188.080661 206.533218 
L 188.398017 205.808744 
L 188.715372 204.50522 
L 189.032727 204.297715 
L 189.350083 204.246447 
L 189.984793 203.876876 
L 190.302149 203.812835 
L 190.619504 203.019069 
L 190.93686 203.016619 
L 191.888926 202.636654 
L 192.206281 202.632252 
L 192.840992 201.451523 
L 193.158347 201.408795 
L 193.475702 201.208605 
L 193.793058 200.45698 
L 194.110413 200.316026 
L 194.745124 200.214352 
L 196.331901 199.86069 
L 196.649256 199.386886 
L 196.966612 199.223729 
L 197.918678 199.09248 
L 198.553388 198.213372 
L 198.870744 197.892323 
L 199.188099 196.879543 
L 199.82281 196.424133 
L 200.457521 196.413683 
L 201.092231 196.004696 
L 201.409587 195.946698 
L 201.726942 195.422243 
L 202.361653 195.248152 
L 202.996364 195.164906 
L 204.58314 194.039787 
L 205.217851 193.738631 
L 205.852562 193.474213 
L 206.169917 193.430899 
L 206.487273 193.237639 
L 206.804628 193.211944 
L 208.391405 192.330657 
L 208.70876 191.759138 
L 209.026116 191.732112 
L 209.660826 191.310976 
L 210.930248 190.351938 
L 211.882314 189.947279 
L 212.199669 189.682721 
L 213.151736 189.538108 
L 213.469091 189.471577 
L 215.373223 187.987781 
L 215.690579 186.757913 
L 216.007934 186.287139 
L 216.325289 186.102585 
L 216.96 186.012274 
L 217.277355 185.641138 
L 218.546777 185.489011 
L 218.864132 184.987566 
L 219.816198 184.848022 
L 220.768264 184.717357 
L 221.08562 184.32387 
L 222.037686 184.18076 
L 222.355041 184.122083 
L 222.672397 183.574545 
L 223.941818 183.26867 
L 224.259174 181.85261 
L 224.893884 181.634441 
L 225.21124 181.63045 
L 225.528595 181.230309 
L 226.798017 180.708053 
L 227.115372 180.675109 
L 227.432727 180.277672 
L 228.067438 180.218478 
L 228.384793 179.977703 
L 228.702149 179.933137 
L 229.019504 179.726341 
L 229.33686 179.705984 
L 229.97157 179.330195 
L 230.288926 178.797383 
L 231.240992 177.874097 
L 233.145124 177.510932 
L 233.779835 176.731784 
L 234.09719 176.6895 
L 234.414545 176.332297 
L 234.731901 176.293956 
L 235.049256 175.878652 
L 235.683967 175.587422 
L 236.001322 175.280073 
L 238.857521 174.203732 
L 239.174876 173.836875 
L 240.761653 173.186309 
L 242.665785 172.292694 
L 242.98314 172.270548 
L 243.300496 172.059459 
L 243.935207 171.123786 
L 244.887273 170.719864 
L 245.204628 170.303767 
L 245.521983 170.250882 
L 245.839339 170.071961 
L 246.156694 170.044691 
L 247.10876 169.57088 
L 248.060826 169.445818 
L 248.378182 169.148534 
L 248.695537 168.504546 
L 249.012893 168.499296 
L 249.330248 168.128966 
L 250.917025 167.683227 
L 251.551736 167.480913 
L 251.869091 167.332735 
L 252.186446 167.001171 
L 252.503802 166.432544 
L 253.138512 166.134954 
L 253.455868 166.099478 
L 253.773223 165.864721 
L 254.725289 164.744602 
L 255.042645 164.52235 
L 255.677355 164.39485 
L 255.994711 164.215546 
L 256.946777 164.140821 
L 257.581488 163.89665 
L 257.898843 163.854932 
L 258.216198 163.40186 
L 258.850909 163.284875 
L 259.168264 163.137365 
L 259.48562 162.821198 
L 259.802975 162.747262 
L 260.120331 162.534456 
L 260.437686 162.003906 
L 261.389752 161.310877 
L 261.707107 160.422616 
L 262.024463 160.402661 
L 262.341818 160.106484 
L 262.659174 159.964109 
L 263.293884 159.000037 
L 264.24595 158.792367 
L 264.880661 158.438365 
L 265.198017 157.723724 
L 266.150083 157.061025 
L 266.467438 156.236004 
L 268.054215 154.546001 
L 268.37157 154.49728 
L 269.006281 154.080537 
L 269.323636 153.962231 
L 269.640992 153.440896 
L 269.958347 153.405478 
L 270.593058 151.861448 
L 271.227769 151.246314 
L 271.545124 150.780474 
L 272.49719 150.356976 
L 272.814545 150.037598 
L 273.131901 149.878196 
L 273.449256 148.869129 
L 273.766612 148.674657 
L 275.353388 148.544318 
L 276.305455 145.975851 
L 276.940165 145.58461 
L 277.574876 144.71006 
L 278.209587 144.610991 
L 278.526942 143.921138 
L 278.844298 143.654866 
L 279.161653 143.07534 
L 279.479008 142.97606 
L 279.796364 142.554741 
L 280.431074 142.400666 
L 281.38314 141.99348 
L 281.700496 141.850145 
L 282.017851 141.240856 
L 282.969917 141.124087 
L 283.287273 140.666493 
L 283.604628 140.481653 
L 283.921983 139.918655 
L 284.239339 139.69422 
L 284.87405 138.805692 
L 285.50876 138.698914 
L 286.143471 137.979041 
L 286.778182 137.912073 
L 287.095537 137.43188 
L 288.047603 136.994461 
L 288.364959 136.387499 
L 288.999669 136.277903 
L 289.317025 135.949336 
L 290.269091 135.838888 
L 290.903802 135.245847 
L 293.442645 134.476584 
L 293.76 133.770264 
L 294.394711 133.542148 
L 294.712066 133.300509 
L 295.029421 133.285139 
L 295.346777 133.139544 
L 295.664132 132.473698 
L 295.981488 132.325846 
L 296.298843 131.627006 
L 296.616198 131.213639 
L 296.933554 130.995317 
L 297.250909 130.97157 
L 297.568264 130.468004 
L 299.155041 129.575484 
L 299.472397 129.559787 
L 299.789752 128.746155 
L 300.107107 128.69629 
L 300.424463 128.202977 
L 301.376529 128.126656 
L 301.693884 128.075601 
L 302.64595 126.846236 
L 303.280661 126.611977 
L 303.915372 126.219309 
L 305.184793 125.735635 
L 305.819504 125.621433 
L 306.13686 125.511176 
L 306.454215 125.253394 
L 307.406281 124.892642 
L 308.993058 123.044431 
L 309.310413 123.000811 
L 309.627769 122.833533 
L 309.945124 122.392939 
L 311.214545 121.832423 
L 311.531901 121.829938 
L 312.166612 121.357486 
L 313.436033 121.057102 
L 314.388099 119.832305 
L 315.340165 119.674711 
L 315.657521 119.442161 
L 316.292231 119.339916 
L 316.609587 118.597406 
L 316.926942 118.588987 
L 317.244298 117.991847 
L 317.879008 117.900261 
L 318.196364 117.852351 
L 319.465785 117.010395 
L 320.100496 116.227879 
L 320.417851 116.209171 
L 321.369917 115.885668 
L 321.687273 115.768459 
L 322.321983 115.389181 
L 322.639339 115.325852 
L 322.956694 115.054756 
L 323.90876 114.848102 
L 324.226116 114.592957 
L 324.543471 113.880846 
L 324.860826 113.790153 
L 325.495537 113.295163 
L 325.812893 112.850369 
L 326.764959 112.584258 
L 327.082314 112.574431 
L 327.399669 112.284016 
L 328.03438 112.132961 
L 328.669091 111.986531 
L 329.621157 111.538269 
L 330.573223 111.308187 
L 330.890579 111.123613 
L 331.207934 111.111445 
L 331.525289 110.787296 
L 331.842645 110.13653 
L 332.477355 110.067398 
L 333.429421 109.340798 
L 334.698843 108.819489 
L 335.016198 108.129151 
L 335.333554 108.075124 
L 335.650909 107.887909 
L 335.968264 107.83029 
L 336.28562 107.395729 
L 336.602975 107.340377 
L 336.920331 106.807119 
L 337.237686 106.772412 
L 337.872397 106.459385 
L 338.189752 106.072782 
L 338.824463 105.863268 
L 339.459174 105.710787 
L 340.728595 104.664447 
L 341.04595 104.654719 
L 341.680661 104.402867 
L 341.998017 103.69816 
L 342.315372 103.611959 
L 342.950083 103.001405 
L 343.267438 102.398307 
L 343.902149 101.960835 
L 344.219504 100.995004 
L 344.53686 100.510625 
L 344.854215 100.357919 
L 345.806281 99.302468 
L 346.440992 98.984742 
L 346.758347 98.969098 
L 347.075702 98.778729 
L 347.393058 97.562555 
L 347.710413 97.441812 
L 348.345124 96.575711 
L 349.29719 95.543755 
L 349.614545 95.415304 
L 349.931901 94.746675 
L 350.249256 94.622924 
L 350.566612 94.312589 
L 350.883967 93.48027 
L 351.201322 92.979897 
L 351.836033 92.51466 
L 352.153388 91.876837 
L 352.788099 91.334072 
L 353.105455 90.834407 
L 353.42281 90.825745 
L 354.374876 90.523078 
L 354.692231 88.929505 
L 355.326942 88.24988 
L 355.644298 87.361867 
L 355.961653 87.13425 
L 356.596364 85.9626 
L 356.913719 85.924492 
L 357.54843 85.509195 
L 357.865785 84.662979 
L 358.18314 84.473092 
L 358.500496 84.087951 
L 358.817851 84.000358 
L 359.135207 83.202804 
L 359.769917 82.979249 
L 360.087273 82.829906 
L 360.404628 82.373824 
L 361.039339 80.706592 
L 361.67405 80.440621 
L 361.991405 79.942237 
L 362.30876 79.704208 
L 362.626116 79.287095 
L 362.943471 79.153623 
L 363.260826 78.324524 
L 363.895537 78.111204 
L 364.212893 77.865301 
L 364.530248 77.823719 
L 364.847603 76.829858 
L 366.117025 76.504929 
L 366.43438 76.264803 
L 366.751736 75.808417 
L 367.069091 75.549219 
L 368.655868 75.150437 
L 368.973223 74.192212 
L 369.290579 74.02478 
L 369.925289 72.987202 
L 370.56 72.895948 
L 371.194711 71.737334 
L 371.512066 70.773245 
L 372.146777 70.320718 
L 373.733554 69.91489 
L 374.050909 69.297955 
L 375.320331 69.076274 
L 375.637686 68.466316 
L 376.589752 67.650208 
L 376.907107 67.582828 
L 377.541818 67.136475 
L 377.859174 66.321559 
L 378.493884 66.113235 
L 379.44595 65.971903 
L 379.763306 65.793238 
L 380.080661 65.486759 
L 380.715372 65.380493 
L 381.350083 65.158906 
L 381.984793 64.165702 
L 382.619504 63.659429 
L 382.93686 63.552607 
L 383.254215 63.286408 
L 383.57157 63.283817 
L 384.840992 62.368598 
L 385.158347 61.820941 
L 385.793058 61.631732 
L 386.745124 61.350266 
L 387.379835 60.78212 
L 388.014545 60.551029 
L 388.331901 59.928436 
L 388.966612 59.839798 
L 389.918678 59.54329 
L 390.236033 59.139385 
L 390.553388 59.010548 
L 390.870744 58.586052 
L 391.505455 58.342325 
L 391.82281 57.642689 
L 392.457521 56.981105 
L 393.409587 56.838073 
L 393.726942 56.601819 
L 394.044298 56.565571 
L 394.679008 56.22886 
L 395.313719 55.353461 
L 395.94843 55.210892 
L 396.265785 55.122905 
L 396.900496 54.602607 
L 397.852562 54.313248 
L 398.487273 53.568 
L 398.487273 53.568 
" clip-path="url(#pa82a8a9d3d)" style="fill: none; stroke: #1f77b4; stroke-width: 1.5; stroke-linecap: square"/>
   </g>
   <g id="line2d_15">
    <path d="M 73.832727 178.080421 
L 74.150083 177.694807 
L 74.784793 177.547514 
L 75.419504 177.309192 
L 80.814545 176.75635 
L 97.317025 176.135764 
L 103.029421 176.005057 
L 105.88562 175.927602 
L 114.77157 175.766735 
L 122.388099 175.655867 
L 147.141818 175.31342 
L 159.201322 175.166737 
L 205.217851 174.716964 
L 226.163306 174.525783 
L 252.503802 174.265537 
L 268.054215 174.130367 
L 276.62281 174.036828 
L 288.047603 173.92964 
L 300.424463 173.79159 
L 313.753388 173.651214 
L 339.776529 173.328685 
L 342.950083 173.283706 
L 382.619504 172.467763 
L 393.726942 171.915063 
L 397.852562 171.311321 
L 398.487273 171.000032 
L 398.487273 171.000032 
" clip-path="url(#pa82a8a9d3d)" style="fill: none; stroke: #ff7f0e; stroke-width: 1.5; stroke-linecap: square"/>
   </g>
   <g id="patch_3">
    <path d="M 57.6 307.584 
L 57.6 41.472 
" style="fill: none; stroke: #000000; stroke-width: 0.8; stroke-linejoin: miter; stroke-linecap: square"/>
   </g>
   <g id="patch_4">
    <path d="M 414.72 307.584 
L 414.72 41.472 
" style="fill: none; stroke: #000000; stroke-width: 0.8; stroke-linejoin: miter; stroke-linecap: square"/>
   </g>
   <g id="patch_5">
    <path d="M 57.6 307.584 
L 414.72 307.584 
" style="fill: none; stroke: #000000; stroke-width: 0.8; stroke-linejoin: miter; stroke-linecap: square"/>
   </g>
   <g id="patch_6">
    <path d="M 57.6 41.472 
L 414.72 41.472 
" style="fill: none; stroke: #000000; stroke-width: 0.8; stroke-linejoin: miter; stroke-linecap: square"/>
   </g>
   <g id="legend_1">
    <g id="patch_7">
     <path d="M 64.6 78.82825 
L 129.342187 78.82825 
Q 131.342187 78.82825 131.342187 76.82825 
L 131.342187 48.472 
Q 131.342187 46.472 129.342187 46.472 
L 64.6 46.472 
Q 62.6 46.472 62.6 48.472 
L 62.6 76.82825 
Q 62.6 78.82825 64.6 78.82825 
z
" style="fill: #ffffff; opacity: 0.8; stroke: #cccccc; stroke-linejoin: miter"/>
    </g>
    <g id="line2d_16">
     <path d="M 66.6 54.570437 
L 76.6 54.570437 
L 86.6 54.570437 
" style="fill: none; stroke: #1f77b4; stroke-width: 1.5; stroke-linecap: square"/>
    </g>
    <g id="text_16">
     <!-- qc -->
     <g transform="translate(94.6 58.070437) scale(0.1 -0.1)">
      <defs>
       <path id="DejaVuSans-71" d="M 947 1747 
Q 947 1113 1208 752 
Q 1469 391 1925 391 
Q 2381 391 2643 752 
Q 2906 1113 2906 1747 
Q 2906 2381 2643 2742 
Q 2381 3103 1925 3103 
Q 1469 3103 1208 2742 
Q 947 2381 947 1747 
z
M 2906 525 
Q 2725 213 2448 61 
Q 2172 -91 1784 -91 
Q 1150 -91 751 415 
Q 353 922 353 1747 
Q 353 2572 751 3078 
Q 1150 3584 1784 3584 
Q 2172 3584 2448 3432 
Q 2725 3281 2906 2969 
L 2906 3500 
L 3481 3500 
L 3481 -1331 
L 2906 -1331 
L 2906 525 
z
" transform="scale(0.015625)"/>
       <path id="DejaVuSans-63" d="M 3122 3366 
L 3122 2828 
Q 2878 2963 2633 3030 
Q 2388 3097 2138 3097 
Q 1578 3097 1268 2742 
Q 959 2388 959 1747 
Q 959 1106 1268 751 
Q 1578 397 2138 397 
Q 2388 397 2633 464 
Q 2878 531 3122 666 
L 3122 134 
Q 2881 22 2623 -34 
Q 2366 -91 2075 -91 
Q 1284 -91 818 406 
Q 353 903 353 1747 
Q 353 2603 823 3093 
Q 1294 3584 2113 3584 
Q 2378 3584 2631 3529 
Q 2884 3475 3122 3366 
z
" transform="scale(0.015625)"/>
      </defs>
      <use xlink:href="#DejaVuSans-71"/>
      <use xlink:href="#DejaVuSans-63" x="63.476562"/>
     </g>
    </g>
    <g id="line2d_17">
     <path d="M 66.6 69.248562 
L 76.6 69.248562 
L 86.6 69.248562 
" style="fill: none; stroke: #ff7f0e; stroke-width: 1.5; stroke-linecap: square"/>
    </g>
    <g id="text_17">
     <!-- Trotter -->
     <g transform="translate(94.6 72.748562) scale(0.1 -0.1)">
      <defs>
       <path id="DejaVuSans-54" d="M -19 4666 
L 3928 4666 
L 3928 4134 
L 2272 4134 
L 2272 0 
L 1638 0 
L 1638 4134 
L -19 4134 
L -19 4666 
z
" transform="scale(0.015625)"/>
       <path id="DejaVuSans-72" d="M 2631 2963 
Q 2534 3019 2420 3045 
Q 2306 3072 2169 3072 
Q 1681 3072 1420 2755 
Q 1159 2438 1159 1844 
L 1159 0 
L 581 0 
L 581 3500 
L 1159 3500 
L 1159 2956 
Q 1341 3275 1631 3429 
Q 1922 3584 2338 3584 
Q 2397 3584 2469 3576 
Q 2541 3569 2628 3553 
L 2631 2963 
z
" transform="scale(0.015625)"/>
       <path id="DejaVuSans-6f" d="M 1959 3097 
Q 1497 3097 1228 2736 
Q 959 2375 959 1747 
Q 959 1119 1226 758 
Q 1494 397 1959 397 
Q 2419 397 2687 759 
Q 2956 1122 2956 1747 
Q 2956 2369 2687 2733 
Q 2419 3097 1959 3097 
z
M 1959 3584 
Q 2709 3584 3137 3096 
Q 3566 2609 3566 1747 
Q 3566 888 3137 398 
Q 2709 -91 1959 -91 
Q 1206 -91 779 398 
Q 353 888 353 1747 
Q 353 2609 779 3096 
Q 1206 3584 1959 3584 
z
" transform="scale(0.015625)"/>
       <path id="DejaVuSans-65" d="M 3597 1894 
L 3597 1613 
L 953 1613 
Q 991 1019 1311 708 
Q 1631 397 2203 397 
Q 2534 397 2845 478 
Q 3156 559 3463 722 
L 3463 178 
Q 3153 47 2828 -22 
Q 2503 -91 2169 -91 
Q 1331 -91 842 396 
Q 353 884 353 1716 
Q 353 2575 817 3079 
Q 1281 3584 2069 3584 
Q 2775 3584 3186 3129 
Q 3597 2675 3597 1894 
z
M 3022 2063 
Q 3016 2534 2758 2815 
Q 2500 3097 2075 3097 
Q 1594 3097 1305 2825 
Q 1016 2553 972 2059 
L 3022 2063 
z
" transform="scale(0.015625)"/>
      </defs>
      <use xlink:href="#DejaVuSans-54"/>
      <use xlink:href="#DejaVuSans-72" x="46.333984"/>
      <use xlink:href="#DejaVuSans-6f" x="85.197266"/>
      <use xlink:href="#DejaVuSans-74" x="146.378906"/>
      <use xlink:href="#DejaVuSans-74" x="185.587891"/>
      <use xlink:href="#DejaVuSans-65" x="224.796875"/>
      <use xlink:href="#DejaVuSans-72" x="286.320312"/>
     </g>
    </g>
   </g>
  </g>
 </g>
 <defs>
  <clipPath id="pa82a8a9d3d">
   <rect x="57.6" y="41.472" width="357.12" height="266.112"/>
  </clipPath>
 </defs>
</svg>
