<?xml version="1.0" encoding="utf-8" standalone="no"?>
<!DOCTYPE svg PUBLIC "-//W3C//DTD SVG 1.1//EN"
  "http://www.w3.org/Graphics/SVG/1.1/DTD/svg11.dtd">
<svg xmlns:xlink="http://www.w3.org/1999/xlink" width="460.8pt" height="345.6pt" viewBox="0 0 460.8 345.6" xmlns="http://www.w3.org/2000/svg" version="1.1">
 <metadata>
  <rdf:RDF xmlns:dc="http://purl.org/dc/elements/1.1/" xmlns:cc="http://creativecommons.org/ns#" xmlns:rdf="http://www.w3.org/1999/02/22-rdf-syntax-ns#">
   <cc:Work>
    <dc:type rdf:resource="http://purl.org/dc/dcmitype/StillImage"/>
    <dc:date>2024-06-07T10:00:45.789226</dc:date>
    <dc:format>image/svg+xml</dc:format>
    <dc:creator>
     <cc:Agent>
      <dc:title>Matplotlib v3.7.1, https://matplotlib.org/</dc:title>
     </cc:Agent>
    </dc:creator>
   </cc:Work>
  </rdf:RDF>
 </metadata>
 <defs>
  <style type="text/css">*{stroke-linejoin: round; stroke-linecap: butt}</style>
 </defs>
 <g id="figure_1">
  <g id="patch_1">
   <path d="M 0 345.6 
L 460.8 345.6 
L 460.8 0 
L 0 0 
z
" style="fill: #ffffff"/>
  </g>
  <g id="axes_1">
   <g id="patch_2">
    <path d="M 57.6 307.584 
L 414.72 307.584 
L 414.72 41.472 
L 57.6 41.472 
z
" style="fill: #ffffff"/>
   </g>
   <g id="matplotlib.axis_1">
    <g id="xtick_1">
     <g id="line2d_1">
      <defs>
       <path id="m1ac087b82f" d="M 0 0 
L 0 3.5 
" style="stroke: #000000; stroke-width: 0.8"/>
      </defs>
      <g>
       <use xlink:href="#m1ac087b82f" x="73.832727" y="307.584" style="stroke: #000000; stroke-width: 0.8"/>
      </g>
     </g>
     <g id="text_1">
      <!-- 0 -->
      <g transform="translate(70.651477 322.182437) scale(0.1 -0.1)">
       <defs>
        <path id="DejaVuSans-30" d="M 2034 4250 
Q 1547 4250 1301 3770 
Q 1056 3291 1056 2328 
Q 1056 1369 1301 889 
Q 1547 409 2034 409 
Q 2525 409 2770 889 
Q 3016 1369 3016 2328 
Q 3016 3291 2770 3770 
Q 2525 4250 2034 4250 
z
M 2034 4750 
Q 2819 4750 3233 4129 
Q 3647 3509 3647 2328 
Q 3647 1150 3233 529 
Q 2819 -91 2034 -91 
Q 1250 -91 836 529 
Q 422 1150 422 2328 
Q 422 3509 836 4129 
Q 1250 4750 2034 4750 
z
" transform="scale(0.015625)"/>
       </defs>
       <use xlink:href="#DejaVuSans-30"/>
      </g>
     </g>
    </g>
    <g id="xtick_2">
     <g id="line2d_2">
      <g>
       <use xlink:href="#m1ac087b82f" x="137.303802" y="307.584" style="stroke: #000000; stroke-width: 0.8"/>
      </g>
     </g>
     <g id="text_2">
      <!-- 200 -->
      <g transform="translate(127.760052 322.182437) scale(0.1 -0.1)">
       <defs>
        <path id="DejaVuSans-32" d="M 1228 531 
L 3431 531 
L 3431 0 
L 469 0 
L 469 531 
Q 828 903 1448 1529 
Q 2069 2156 2228 2338 
Q 2531 2678 2651 2914 
Q 2772 3150 2772 3378 
Q 2772 3750 2511 3984 
Q 2250 4219 1831 4219 
Q 1534 4219 1204 4116 
Q 875 4013 500 3803 
L 500 4441 
Q 881 4594 1212 4672 
Q 1544 4750 1819 4750 
Q 2544 4750 2975 4387 
Q 3406 4025 3406 3419 
Q 3406 3131 3298 2873 
Q 3191 2616 2906 2266 
Q 2828 2175 2409 1742 
Q 1991 1309 1228 531 
z
" transform="scale(0.015625)"/>
       </defs>
       <use xlink:href="#DejaVuSans-32"/>
       <use xlink:href="#DejaVuSans-30" x="63.623047"/>
       <use xlink:href="#DejaVuSans-30" x="127.246094"/>
      </g>
     </g>
    </g>
    <g id="xtick_3">
     <g id="line2d_3">
      <g>
       <use xlink:href="#m1ac087b82f" x="200.774876" y="307.584" style="stroke: #000000; stroke-width: 0.8"/>
      </g>
     </g>
     <g id="text_3">
      <!-- 400 -->
      <g transform="translate(191.231126 322.182437) scale(0.1 -0.1)">
       <defs>
        <path id="DejaVuSans-34" d="M 2419 4116 
L 825 1625 
L 2419 1625 
L 2419 4116 
z
M 2253 4666 
L 3047 4666 
L 3047 1625 
L 3713 1625 
L 3713 1100 
L 3047 1100 
L 3047 0 
L 2419 0 
L 2419 1100 
L 313 1100 
L 313 1709 
L 2253 4666 
z
" transform="scale(0.015625)"/>
       </defs>
       <use xlink:href="#DejaVuSans-34"/>
       <use xlink:href="#DejaVuSans-30" x="63.623047"/>
       <use xlink:href="#DejaVuSans-30" x="127.246094"/>
      </g>
     </g>
    </g>
    <g id="xtick_4">
     <g id="line2d_4">
      <g>
       <use xlink:href="#m1ac087b82f" x="264.24595" y="307.584" style="stroke: #000000; stroke-width: 0.8"/>
      </g>
     </g>
     <g id="text_4">
      <!-- 600 -->
      <g transform="translate(254.7022 322.182437) scale(0.1 -0.1)">
       <defs>
        <path id="DejaVuSans-36" d="M 2113 2584 
Q 1688 2584 1439 2293 
Q 1191 2003 1191 1497 
Q 1191 994 1439 701 
Q 1688 409 2113 409 
Q 2538 409 2786 701 
Q 3034 994 3034 1497 
Q 3034 2003 2786 2293 
Q 2538 2584 2113 2584 
z
M 3366 4563 
L 3366 3988 
Q 3128 4100 2886 4159 
Q 2644 4219 2406 4219 
Q 1781 4219 1451 3797 
Q 1122 3375 1075 2522 
Q 1259 2794 1537 2939 
Q 1816 3084 2150 3084 
Q 2853 3084 3261 2657 
Q 3669 2231 3669 1497 
Q 3669 778 3244 343 
Q 2819 -91 2113 -91 
Q 1303 -91 875 529 
Q 447 1150 447 2328 
Q 447 3434 972 4092 
Q 1497 4750 2381 4750 
Q 2619 4750 2861 4703 
Q 3103 4656 3366 4563 
z
" transform="scale(0.015625)"/>
       </defs>
       <use xlink:href="#DejaVuSans-36"/>
       <use xlink:href="#DejaVuSans-30" x="63.623047"/>
       <use xlink:href="#DejaVuSans-30" x="127.246094"/>
      </g>
     </g>
    </g>
    <g id="xtick_5">
     <g id="line2d_5">
      <g>
       <use xlink:href="#m1ac087b82f" x="327.717025" y="307.584" style="stroke: #000000; stroke-width: 0.8"/>
      </g>
     </g>
     <g id="text_5">
      <!-- 800 -->
      <g transform="translate(318.173275 322.182437) scale(0.1 -0.1)">
       <defs>
        <path id="DejaVuSans-38" d="M 2034 2216 
Q 1584 2216 1326 1975 
Q 1069 1734 1069 1313 
Q 1069 891 1326 650 
Q 1584 409 2034 409 
Q 2484 409 2743 651 
Q 3003 894 3003 1313 
Q 3003 1734 2745 1975 
Q 2488 2216 2034 2216 
z
M 1403 2484 
Q 997 2584 770 2862 
Q 544 3141 544 3541 
Q 544 4100 942 4425 
Q 1341 4750 2034 4750 
Q 2731 4750 3128 4425 
Q 3525 4100 3525 3541 
Q 3525 3141 3298 2862 
Q 3072 2584 2669 2484 
Q 3125 2378 3379 2068 
Q 3634 1759 3634 1313 
Q 3634 634 3220 271 
Q 2806 -91 2034 -91 
Q 1263 -91 848 271 
Q 434 634 434 1313 
Q 434 1759 690 2068 
Q 947 2378 1403 2484 
z
M 1172 3481 
Q 1172 3119 1398 2916 
Q 1625 2713 2034 2713 
Q 2441 2713 2670 2916 
Q 2900 3119 2900 3481 
Q 2900 3844 2670 4047 
Q 2441 4250 2034 4250 
Q 1625 4250 1398 4047 
Q 1172 3844 1172 3481 
z
" transform="scale(0.015625)"/>
       </defs>
       <use xlink:href="#DejaVuSans-38"/>
       <use xlink:href="#DejaVuSans-30" x="63.623047"/>
       <use xlink:href="#DejaVuSans-30" x="127.246094"/>
      </g>
     </g>
    </g>
    <g id="xtick_6">
     <g id="line2d_6">
      <g>
       <use xlink:href="#m1ac087b82f" x="391.188099" y="307.584" style="stroke: #000000; stroke-width: 0.8"/>
      </g>
     </g>
     <g id="text_6">
      <!-- 1000 -->
      <g transform="translate(378.463099 322.182437) scale(0.1 -0.1)">
       <defs>
        <path id="DejaVuSans-31" d="M 794 531 
L 1825 531 
L 1825 4091 
L 703 3866 
L 703 4441 
L 1819 4666 
L 2450 4666 
L 2450 531 
L 3481 531 
L 3481 0 
L 794 0 
L 794 531 
z
" transform="scale(0.015625)"/>
       </defs>
       <use xlink:href="#DejaVuSans-31"/>
       <use xlink:href="#DejaVuSans-30" x="63.623047"/>
       <use xlink:href="#DejaVuSans-30" x="127.246094"/>
       <use xlink:href="#DejaVuSans-30" x="190.869141"/>
      </g>
     </g>
    </g>
    <g id="text_7">
     <!-- n -->
     <g transform="translate(232.99125 335.860562) scale(0.1 -0.1)">
      <defs>
       <path id="DejaVuSans-6e" d="M 3513 2113 
L 3513 0 
L 2938 0 
L 2938 2094 
Q 2938 2591 2744 2837 
Q 2550 3084 2163 3084 
Q 1697 3084 1428 2787 
Q 1159 2491 1159 1978 
L 1159 0 
L 581 0 
L 581 3500 
L 1159 3500 
L 1159 2956 
Q 1366 3272 1645 3428 
Q 1925 3584 2291 3584 
Q 2894 3584 3203 3211 
Q 3513 2838 3513 2113 
z
" transform="scale(0.015625)"/>
      </defs>
      <use xlink:href="#DejaVuSans-6e"/>
     </g>
    </g>
   </g>
   <g id="matplotlib.axis_2">
    <g id="ytick_1">
     <g id="line2d_7">
      <defs>
       <path id="m7d14a42c47" d="M 0 0 
L -3.5 0 
" style="stroke: #000000; stroke-width: 0.8"/>
      </defs>
      <g>
       <use xlink:href="#m7d14a42c47" x="57.6" y="267.690977" style="stroke: #000000; stroke-width: 0.8"/>
      </g>
     </g>
     <g id="text_8">
      <!-- −0.4 -->
      <g transform="translate(26.317187 271.490195) scale(0.1 -0.1)">
       <defs>
        <path id="DejaVuSans-2212" d="M 678 2272 
L 4684 2272 
L 4684 1741 
L 678 1741 
L 678 2272 
z
" transform="scale(0.015625)"/>
        <path id="DejaVuSans-2e" d="M 684 794 
L 1344 794 
L 1344 0 
L 684 0 
L 684 794 
z
" transform="scale(0.015625)"/>
       </defs>
       <use xlink:href="#DejaVuSans-2212"/>
       <use xlink:href="#DejaVuSans-30" x="83.789062"/>
       <use xlink:href="#DejaVuSans-2e" x="147.412109"/>
       <use xlink:href="#DejaVuSans-34" x="179.199219"/>
      </g>
     </g>
    </g>
    <g id="ytick_2">
     <g id="line2d_8">
      <g>
       <use xlink:href="#m7d14a42c47" x="57.6" y="224.56144" style="stroke: #000000; stroke-width: 0.8"/>
      </g>
     </g>
     <g id="text_9">
      <!-- −0.2 -->
      <g transform="translate(26.317187 228.360658) scale(0.1 -0.1)">
       <use xlink:href="#DejaVuSans-2212"/>
       <use xlink:href="#DejaVuSans-30" x="83.789062"/>
       <use xlink:href="#DejaVuSans-2e" x="147.412109"/>
       <use xlink:href="#DejaVuSans-32" x="179.199219"/>
      </g>
     </g>
    </g>
    <g id="ytick_3">
     <g id="line2d_9">
      <g>
       <use xlink:href="#m7d14a42c47" x="57.6" y="181.431903" style="stroke: #000000; stroke-width: 0.8"/>
      </g>
     </g>
     <g id="text_10">
      <!-- 0.0 -->
      <g transform="translate(34.696875 185.231121) scale(0.1 -0.1)">
       <use xlink:href="#DejaVuSans-30"/>
       <use xlink:href="#DejaVuSans-2e" x="63.623047"/>
       <use xlink:href="#DejaVuSans-30" x="95.410156"/>
      </g>
     </g>
    </g>
    <g id="ytick_4">
     <g id="line2d_10">
      <g>
       <use xlink:href="#m7d14a42c47" x="57.6" y="138.302366" style="stroke: #000000; stroke-width: 0.8"/>
      </g>
     </g>
     <g id="text_11">
      <!-- 0.2 -->
      <g transform="translate(34.696875 142.101584) scale(0.1 -0.1)">
       <use xlink:href="#DejaVuSans-30"/>
       <use xlink:href="#DejaVuSans-2e" x="63.623047"/>
       <use xlink:href="#DejaVuSans-32" x="95.410156"/>
      </g>
     </g>
    </g>
    <g id="ytick_5">
     <g id="line2d_11">
      <g>
       <use xlink:href="#m7d14a42c47" x="57.6" y="95.172828" style="stroke: #000000; stroke-width: 0.8"/>
      </g>
     </g>
     <g id="text_12">
      <!-- 0.4 -->
      <g transform="translate(34.696875 98.972047) scale(0.1 -0.1)">
       <use xlink:href="#DejaVuSans-30"/>
       <use xlink:href="#DejaVuSans-2e" x="63.623047"/>
       <use xlink:href="#DejaVuSans-34" x="95.410156"/>
      </g>
     </g>
    </g>
    <g id="ytick_6">
     <g id="line2d_12">
      <g>
       <use xlink:href="#m7d14a42c47" x="57.6" y="52.043291" style="stroke: #000000; stroke-width: 0.8"/>
      </g>
     </g>
     <g id="text_13">
      <!-- 0.6 -->
      <g transform="translate(34.696875 55.84251) scale(0.1 -0.1)">
       <use xlink:href="#DejaVuSans-30"/>
       <use xlink:href="#DejaVuSans-2e" x="63.623047"/>
       <use xlink:href="#DejaVuSans-36" x="95.410156"/>
      </g>
     </g>
    </g>
    <g id="text_14">
     <!-- E*t -->
     <g transform="translate(20.2375 182.147531) rotate(-90) scale(0.1 -0.1)">
      <defs>
       <path id="DejaVuSans-45" d="M 628 4666 
L 3578 4666 
L 3578 4134 
L 1259 4134 
L 1259 2753 
L 3481 2753 
L 3481 2222 
L 1259 2222 
L 1259 531 
L 3634 531 
L 3634 0 
L 628 0 
L 628 4666 
z
" transform="scale(0.015625)"/>
       <path id="DejaVuSans-2a" d="M 3009 3897 
L 1888 3291 
L 3009 2681 
L 2828 2375 
L 1778 3009 
L 1778 1831 
L 1422 1831 
L 1422 3009 
L 372 2375 
L 191 2681 
L 1313 3291 
L 191 3897 
L 372 4206 
L 1422 3572 
L 1422 4750 
L 1778 4750 
L 1778 3572 
L 2828 4206 
L 3009 3897 
z
" transform="scale(0.015625)"/>
       <path id="DejaVuSans-74" d="M 1172 4494 
L 1172 3500 
L 2356 3500 
L 2356 3053 
L 1172 3053 
L 1172 1153 
Q 1172 725 1289 603 
Q 1406 481 1766 481 
L 2356 481 
L 2356 0 
L 1766 0 
Q 1100 0 847 248 
Q 594 497 594 1153 
L 594 3053 
L 172 3053 
L 172 3500 
L 594 3500 
L 594 4494 
L 1172 4494 
z
" transform="scale(0.015625)"/>
      </defs>
      <use xlink:href="#DejaVuSans-45"/>
      <use xlink:href="#DejaVuSans-2a" x="63.183594"/>
      <use xlink:href="#DejaVuSans-74" x="113.183594"/>
     </g>
    </g>
   </g>
   <g id="line2d_13">
    <path d="M 73.832727 295.488 
L 74.150083 291.885355 
L 74.467438 284.125316 
L 75.102149 280.325128 
L 75.419504 280.136187 
L 75.73686 279.574567 
L 76.054215 277.286397 
L 77.323636 274.328816 
L 77.640992 272.10255 
L 77.958347 271.51473 
L 78.275702 269.833963 
L 78.593058 268.905377 
L 78.910413 268.725411 
L 79.227769 267.348523 
L 79.545124 266.568116 
L 79.862479 266.54823 
L 80.49719 265.210316 
L 80.814545 264.98649 
L 81.131901 264.480304 
L 81.449256 264.465533 
L 81.766612 263.427556 
L 82.083967 263.118599 
L 82.401322 262.032016 
L 82.718678 262.013617 
L 83.353388 260.897771 
L 83.988099 260.410972 
L 84.305455 259.940606 
L 84.62281 259.790843 
L 84.940165 259.206582 
L 85.257521 259.059095 
L 85.574876 258.335678 
L 85.892231 257.248981 
L 86.844298 256.215364 
L 87.161653 254.932375 
L 87.479008 254.670568 
L 87.796364 254.55649 
L 88.113719 254.131741 
L 88.431074 253.979257 
L 89.065785 253.233023 
L 89.38314 252.238647 
L 90.017851 252.019344 
L 90.335207 251.413789 
L 90.652562 251.168925 
L 90.969917 250.54385 
L 91.287273 250.513758 
L 91.604628 249.996755 
L 91.921983 249.970428 
L 92.556694 249.257042 
L 92.87405 249.006797 
L 93.191405 248.916709 
L 93.50876 248.228485 
L 93.826116 248.218292 
L 94.778182 247.171172 
L 95.095537 246.742645 
L 95.412893 246.687233 
L 95.730248 246.09445 
L 96.047603 246.034761 
L 96.364959 245.609673 
L 96.999669 245.376624 
L 97.63438 244.955172 
L 97.951736 244.566253 
L 98.269091 244.420126 
L 98.586446 244.078587 
L 98.903802 243.964942 
L 99.221157 243.048514 
L 99.855868 242.443399 
L 100.173223 242.41091 
L 100.490579 242.006765 
L 100.807934 241.825104 
L 101.125289 241.333987 
L 101.442645 241.108158 
L 101.76 240.723983 
L 102.394711 239.739188 
L 102.712066 239.716987 
L 103.029421 239.345601 
L 104.616198 238.67031 
L 105.250909 238.021306 
L 105.568264 237.813383 
L 106.202975 237.092152 
L 106.837686 236.878112 
L 107.472397 236.013113 
L 107.789752 235.975771 
L 108.107107 235.305803 
L 108.424463 235.254132 
L 108.741818 234.857961 
L 109.059174 234.663952 
L 109.376529 234.289618 
L 109.693884 234.194898 
L 110.01124 233.783074 
L 110.64595 233.659101 
L 111.280661 232.972055 
L 111.598017 232.870008 
L 112.232727 232.471691 
L 112.867438 232.288118 
L 113.502149 231.582179 
L 114.13686 231.395836 
L 114.77157 230.696667 
L 115.088926 230.581158 
L 116.040992 229.850738 
L 116.675702 229.655292 
L 116.993058 229.553592 
L 117.310413 229.133511 
L 117.945124 228.849035 
L 118.262479 228.435461 
L 119.214545 227.918499 
L 119.531901 227.486197 
L 121.118678 226.611378 
L 121.436033 226.527242 
L 121.753388 226.150992 
L 122.388099 225.879765 
L 123.02281 225.215235 
L 123.657521 224.894562 
L 123.974876 224.396104 
L 124.292231 224.37823 
L 124.609587 223.979074 
L 125.244298 223.872421 
L 125.561653 223.387099 
L 125.879008 223.374231 
L 126.513719 223.055448 
L 126.831074 222.532524 
L 127.14843 222.491225 
L 127.465785 222.154636 
L 128.100496 222.06709 
L 128.417851 221.788575 
L 128.735207 221.67018 
L 129.052562 221.215295 
L 129.369917 221.063901 
L 129.687273 221.047726 
L 130.321983 220.344743 
L 130.639339 220.299806 
L 130.956694 220.014935 
L 131.27405 220.00767 
L 131.591405 219.645645 
L 132.226116 219.425962 
L 132.543471 219.065058 
L 133.178182 218.938434 
L 133.495537 218.521247 
L 134.130248 218.189009 
L 134.764959 218.048311 
L 135.717025 217.609245 
L 136.03438 217.340445 
L 136.351736 217.288489 
L 136.669091 217.035396 
L 137.303802 216.768656 
L 137.621157 216.367088 
L 138.573223 216.07699 
L 139.207934 215.372183 
L 139.525289 215.277706 
L 140.16 214.622208 
L 141.112066 214.494696 
L 142.698843 213.683678 
L 143.016198 213.273295 
L 144.602975 212.589296 
L 144.920331 212.555708 
L 145.872397 212.07978 
L 146.189752 212.038158 
L 146.507107 211.550132 
L 148.093884 211.290159 
L 148.41124 211.006564 
L 149.04595 210.861017 
L 149.680661 210.209812 
L 150.632727 209.837113 
L 150.950083 209.384116 
L 151.584793 209.05974 
L 151.902149 209.048048 
L 152.219504 208.685225 
L 152.854215 208.339211 
L 153.17157 208.245926 
L 153.806281 207.932832 
L 154.440992 207.783038 
L 154.758347 207.180121 
L 156.979835 206.333954 
L 157.614545 205.947188 
L 160.470744 204.684731 
L 160.788099 204.358961 
L 161.105455 204.297667 
L 162.057521 203.801503 
L 163.009587 203.528924 
L 164.279008 202.772842 
L 164.913719 202.673569 
L 166.500496 202.116078 
L 166.817851 201.754868 
L 169.356694 200.680079 
L 169.67405 200.646939 
L 169.991405 200.347919 
L 170.626116 200.211899 
L 171.578182 199.865398 
L 172.212893 199.56993 
L 172.530248 199.293027 
L 173.164959 199.133711 
L 173.482314 199.025872 
L 173.799669 198.705628 
L 174.751736 198.444918 
L 175.386446 198.301116 
L 175.703802 198.038556 
L 176.973223 197.481282 
L 177.607934 197.254867 
L 177.925289 197.246034 
L 178.242645 197.043986 
L 179.194711 196.812585 
L 179.829421 196.470482 
L 181.098843 196.055369 
L 182.050909 195.872055 
L 182.368264 195.729009 
L 182.68562 195.280144 
L 183.002975 195.187694 
L 183.320331 194.88052 
L 183.955041 194.725382 
L 184.589752 194.436683 
L 185.541818 194.051765 
L 185.859174 193.691328 
L 186.176529 193.635348 
L 186.493884 193.28797 
L 188.398017 192.723769 
L 189.032727 192.397336 
L 189.667438 192.081565 
L 190.93686 191.487001 
L 191.888926 191.209768 
L 192.206281 191.16777 
L 192.523636 190.925786 
L 193.158347 190.803828 
L 193.793058 190.590609 
L 194.110413 190.549922 
L 195.062479 190.097776 
L 195.379835 190.050035 
L 196.014545 189.768432 
L 196.966612 189.590999 
L 198.553388 188.927899 
L 199.82281 188.477794 
L 201.092231 187.983465 
L 202.044298 187.501515 
L 203.313719 187.270811 
L 203.631074 187.045994 
L 204.900496 186.781276 
L 205.217851 186.539371 
L 206.804628 186.033464 
L 207.439339 185.588571 
L 208.07405 185.364094 
L 209.343471 185.022637 
L 209.978182 184.754984 
L 214.103802 183.438223 
L 214.421157 183.086183 
L 218.546777 181.666272 
L 218.864132 181.342521 
L 223.307107 179.751733 
L 223.624463 179.556477 
L 225.21124 179.230748 
L 225.528595 179.015483 
L 226.163306 178.795621 
L 226.480661 178.570237 
L 227.115372 178.433335 
L 227.750083 178.126778 
L 229.33686 177.49608 
L 229.97157 177.338624 
L 230.606281 177.215202 
L 231.875702 176.836086 
L 235.683967 175.393165 
L 236.001322 175.319881 
L 236.318678 175.076852 
L 237.270744 174.889612 
L 238.540165 174.425672 
L 238.857521 174.12061 
L 240.761653 173.682907 
L 243.300496 172.878798 
L 243.935207 172.530594 
L 244.252562 172.445497 
L 244.887273 172.11967 
L 245.521983 171.928597 
L 246.791405 171.653562 
L 247.426116 171.393702 
L 248.060826 171.096207 
L 248.695537 170.844903 
L 249.012893 170.815728 
L 249.964959 170.494411 
L 250.917025 170.253946 
L 251.23438 170.001792 
L 251.869091 169.860065 
L 253.138512 169.432728 
L 255.36 168.794893 
L 255.677355 168.473441 
L 258.533554 167.684847 
L 259.168264 167.36913 
L 264.880661 165.631574 
L 265.198017 165.396165 
L 265.832727 165.241375 
L 266.150083 164.992519 
L 266.784793 164.780965 
L 267.102149 164.554559 
L 271.862479 163.176838 
L 272.49719 162.913484 
L 274.401322 162.195779 
L 275.988099 161.476854 
L 276.305455 161.460589 
L 276.62281 161.285335 
L 277.257521 161.127411 
L 277.574876 160.858729 
L 278.209587 160.66775 
L 278.526942 160.630141 
L 279.161653 160.290449 
L 281.700496 159.364995 
L 282.335207 159.109454 
L 283.287273 158.829815 
L 283.604628 158.513446 
L 284.239339 158.37725 
L 288.047603 157.353924 
L 288.682314 156.951424 
L 289.317025 156.772635 
L 290.269091 156.359152 
L 291.855868 155.803633 
L 292.490579 155.271135 
L 293.442645 155.083473 
L 294.712066 154.61039 
L 295.664132 154.420871 
L 296.616198 154.154146 
L 296.933554 154.124142 
L 297.568264 153.75972 
L 301.059174 152.431873 
L 305.184793 151.159541 
L 306.13686 150.787765 
L 307.088926 150.601873 
L 308.675702 149.961011 
L 310.262479 149.444231 
L 312.166612 148.40557 
L 312.483967 148.159536 
L 313.118678 147.945492 
L 314.705455 147.312657 
L 315.02281 146.959075 
L 315.657521 146.797551 
L 317.561653 146.07539 
L 317.879008 146.04419 
L 318.196364 145.881389 
L 318.831074 145.77042 
L 319.78314 145.412766 
L 320.417851 145.094477 
L 320.735207 145.064857 
L 322.956694 143.964345 
L 324.543471 143.391135 
L 324.860826 143.291443 
L 325.495537 142.921487 
L 326.130248 142.604821 
L 327.717025 142.075858 
L 328.351736 141.729109 
L 328.986446 141.459505 
L 329.621157 140.852042 
L 330.255868 140.597581 
L 332.16 139.654862 
L 333.112066 139.292005 
L 333.429421 139.093566 
L 334.064132 138.922609 
L 334.698843 138.565547 
L 336.28562 138.102575 
L 336.602975 137.887353 
L 336.920331 137.853495 
L 337.237686 137.691104 
L 337.872397 137.600869 
L 338.507107 137.355435 
L 338.824463 136.948322 
L 339.459174 136.737862 
L 340.41124 136.513839 
L 345.488926 134.10726 
L 345.806281 134.009097 
L 346.123636 133.787228 
L 346.758347 133.699911 
L 347.393058 133.504667 
L 347.710413 133.210407 
L 348.027769 133.129766 
L 348.662479 132.529911 
L 349.29719 132.172892 
L 349.614545 131.873518 
L 350.883967 131.201221 
L 351.518678 130.901796 
L 353.105455 130.253015 
L 353.740165 129.781818 
L 355.961653 128.931318 
L 356.596364 128.432246 
L 356.913719 128.41836 
L 357.231074 127.986302 
L 357.54843 127.330399 
L 357.865785 127.234183 
L 358.18314 126.897611 
L 358.817851 126.774683 
L 359.135207 126.426522 
L 359.452562 126.365631 
L 359.769917 125.560944 
L 360.404628 125.069611 
L 361.039339 124.721386 
L 361.991405 124.343337 
L 362.626116 124.219707 
L 362.943471 123.634195 
L 363.260826 123.58404 
L 364.847603 122.465736 
L 365.482314 122.245563 
L 365.799669 121.763597 
L 366.117025 121.725334 
L 366.751736 121.452478 
L 367.069091 121.339097 
L 368.021157 120.407771 
L 368.655868 120.111491 
L 368.973223 119.873467 
L 369.607934 119.648848 
L 369.925289 119.37007 
L 370.242645 118.924317 
L 371.194711 118.378103 
L 371.512066 118.360368 
L 372.146777 117.795064 
L 372.781488 117.440374 
L 373.416198 117.22103 
L 373.733554 117.111734 
L 374.050909 116.503241 
L 374.368264 116.391917 
L 374.68562 116.052999 
L 375.637686 115.492626 
L 375.955041 115.001945 
L 376.272397 114.889564 
L 376.907107 114.066967 
L 377.224463 113.935924 
L 377.541818 113.131775 
L 377.859174 113.087549 
L 378.176529 112.123301 
L 378.81124 111.713999 
L 379.128595 111.179355 
L 379.44595 111.098983 
L 380.080661 110.123611 
L 380.398017 109.94974 
L 380.715372 109.25764 
L 381.350083 108.778911 
L 382.302149 107.93935 
L 382.619504 107.013148 
L 382.93686 106.844094 
L 383.254215 106.489512 
L 383.888926 106.312402 
L 384.206281 106.232511 
L 385.158347 104.598903 
L 385.475702 104.420114 
L 386.745124 103.035412 
L 387.062479 102.375019 
L 387.379835 102.350228 
L 387.69719 101.838737 
L 388.014545 101.100837 
L 388.331901 101.037059 
L 388.966612 99.773594 
L 389.283967 98.539429 
L 389.601322 98.355141 
L 390.870744 95.811445 
L 391.188099 95.624355 
L 391.505455 94.996738 
L 391.82281 94.085552 
L 392.457521 93.02001 
L 392.774876 92.950846 
L 393.092231 92.237842 
L 393.409587 90.814194 
L 393.726942 88.879022 
L 394.044298 88.132196 
L 394.361653 87.682984 
L 394.679008 85.056302 
L 394.996364 84.994758 
L 396.265785 80.67413 
L 396.58314 79.447007 
L 396.900496 79.432853 
L 397.217851 71.555864 
L 397.535207 70.377955 
L 397.852562 67.192172 
L 398.169917 65.808975 
L 398.487273 53.568 
L 398.487273 53.568 
" clip-path="url(#pfcb65a518f)" style="fill: none; stroke: #1f77b4; stroke-width: 1.5; stroke-linecap: square"/>
   </g>
   <g id="line2d_14">
    <path d="M 73.832727 263.378023 
L 74.150083 254.752115 
L 74.467438 253.907742 
L 74.784793 251.457287 
L 75.102149 247.64063 
L 75.419504 246.126207 
L 76.054215 244.360352 
L 76.37157 242.831381 
L 76.688926 242.83138 
L 77.006281 242.072191 
L 77.323636 239.573118 
L 77.640992 239.014723 
L 78.275702 237.500302 
L 78.593058 237.500299 
L 78.910413 236.655928 
L 79.227769 236.626287 
L 80.179835 234.205474 
L 80.49719 234.205474 
L 81.131901 233.446283 
L 81.449256 233.211403 
L 82.718678 230.947211 
L 83.036033 230.494442 
L 83.670744 230.17264 
L 83.988099 229.519626 
L 84.305455 229.461163 
L 84.62281 228.874393 
L 84.940165 228.874391 
L 85.257521 228.503382 
L 85.574876 228.458004 
L 85.892231 228.030021 
L 86.209587 228.000378 
L 86.526942 227.80958 
L 86.844298 227.359972 
L 87.479008 226.77988 
L 88.431074 225.579567 
L 88.74843 225.579567 
L 89.065785 225.133622 
L 90.017851 224.689509 
L 90.335207 224.585498 
L 90.969917 223.543314 
L 91.604628 223.515542 
L 91.921983 223.399883 
L 92.87405 222.408468 
L 93.191405 222.321303 
L 93.50876 221.868533 
L 94.143471 221.546735 
L 94.460826 221.3849 
L 94.778182 221.092858 
L 95.412893 220.893716 
L 96.047603 220.758125 
L 96.364959 220.248485 
L 96.682314 220.248483 
L 96.999669 219.990969 
L 97.63438 219.832095 
L 97.951736 219.404114 
L 98.269091 219.37447 
L 98.586446 219.183673 
L 98.903802 219.179106 
L 99.221157 218.88976 
L 100.173223 218.657098 
L 100.490579 218.482633 
L 100.807934 218.153971 
L 101.442645 217.768438 
L 101.76 217.536274 
L 102.077355 217.464504 
L 102.394711 216.962326 
L 103.029421 216.95366 
L 103.346777 216.507713 
L 103.981488 216.194469 
L 104.616198 216.063603 
L 104.933554 215.959592 
L 105.250909 215.366362 
L 106.202975 215.007359 
L 106.837686 214.917404 
L 107.472397 214.773978 
L 107.789752 214.454739 
L 108.107107 214.414032 
L 109.376529 213.78256 
L 110.328595 213.669745 
L 110.64595 213.242624 
L 111.915372 212.75899 
L 112.232727 212.553362 
L 112.867438 212.466949 
L 113.502149 212.267808 
L 114.13686 212.13222 
L 114.454215 211.649958 
L 115.088926 211.622576 
L 115.406281 211.365063 
L 116.040992 211.206186 
L 116.358347 211.187294 
L 116.675702 210.778207 
L 116.993058 210.748562 
L 117.310413 210.557767 
L 117.627769 210.553199 
L 117.945124 210.263854 
L 119.531901 210.086898 
L 120.801322 209.856726 
L 121.436033 209.528062 
L 123.340165 208.840626 
L 123.657521 208.838598 
L 123.974876 208.336421 
L 124.926942 208.253629 
L 126.196364 207.707224 
L 127.14843 207.568563 
L 127.78314 207.437697 
L 128.100496 207.333687 
L 128.417851 206.740455 
L 129.369917 206.595151 
L 129.687273 206.291496 
L 130.321983 206.263733 
L 132.226116 205.618804 
L 132.543471 205.574353 
L 133.178182 205.330689 
L 133.812893 205.097902 
L 134.447603 205.043838 
L 134.764959 204.616716 
L 136.351736 204.276873 
L 137.303802 203.927453 
L 140.16 203.6419 
L 140.794711 203.506313 
L 141.112066 203.096301 
L 141.746777 202.99667 
L 142.064132 202.996669 
L 142.381488 202.744039 
L 143.016198 202.625665 
L 143.968264 202.507983 
L 144.28562 202.1523 
L 144.602975 202.122655 
L 144.920331 201.931861 
L 145.555041 201.837054 
L 145.872397 201.637949 
L 147.459174 201.46099 
L 149.680661 201.01585 
L 151.267438 200.516629 
L 151.584793 200.510825 
L 151.902149 200.284459 
L 153.17157 199.897418 
L 153.488926 199.710516 
L 154.758347 199.627721 
L 155.710413 199.27113 
L 156.027769 199.255896 
L 156.662479 198.975977 
L 157.931901 198.811792 
L 158.883967 198.707781 
L 159.201322 198.201047 
L 160.153388 198.028876 
L 161.740165 197.914406 
L 162.057521 197.665587 
L 162.692231 197.637827 
L 163.326942 197.460374 
L 163.644298 197.445369 
L 163.961653 197.207285 
L 164.596364 197.162218 
L 164.913719 197.016187 
L 165.54843 196.948446 
L 166.18314 196.765872 
L 168.087273 196.41793 
L 168.404628 195.990809 
L 170.30876 195.650969 
L 170.626116 195.308479 
L 172.530248 195.166901 
L 173.482314 195.029771 
L 174.43438 194.880407 
L 174.751736 194.831345 
L 175.069091 194.592301 
L 176.338512 194.370763 
L 176.655868 194.370762 
L 176.973223 194.118132 
L 177.607934 193.999758 
L 179.194711 193.805221 
L 179.512066 193.526393 
L 180.464132 193.456087 
L 180.781488 193.305954 
L 181.416198 193.211143 
L 181.733554 193.012043 
L 183.002975 192.835081 
L 188.398017 191.88492 
L 188.715372 191.658551 
L 189.350083 191.417022 
L 189.984793 191.196601 
L 194.427769 190.455411 
L 195.062479 190.31675 
L 196.966612 190.081875 
L 197.283967 189.575136 
L 197.601322 189.406149 
L 199.505455 189.265841 
L 200.457521 189.039678 
L 201.092231 188.896259 
L 201.726942 188.819458 
L 202.044298 188.58737 
L 203.313719 188.536311 
L 203.631074 188.390279 
L 204.265785 188.322539 
L 204.58314 188.191355 
L 205.852562 188.078874 
L 206.169917 188.047874 
L 206.804628 187.817678 
L 207.121983 187.792023 
L 207.439339 187.638465 
L 207.756694 187.3057 
L 209.343471 187.043119 
L 209.660826 186.682571 
L 212.199669 186.540997 
L 213.151736 186.403865 
L 214.103802 186.2545 
L 214.421157 186.205434 
L 214.738512 185.966396 
L 219.498843 185.040339 
L 219.816198 184.900486 
L 221.08562 184.830183 
L 221.720331 184.680047 
L 222.355041 184.585233 
L 222.672397 184.386136 
L 223.941818 184.209174 
L 226.798017 183.64412 
L 227.432727 183.477342 
L 229.019504 183.165272 
L 229.654215 182.99866 
L 229.97157 182.9629 
L 230.923636 182.570691 
L 235.366612 181.829505 
L 236.001322 181.697251 
L 237.905455 181.455969 
L 238.22281 180.949224 
L 238.540165 180.780243 
L 240.761653 180.639936 
L 241.713719 180.41377 
L 242.34843 180.208564 
L 242.665785 179.98583 
L 244.569917 179.741091 
L 247.426116 179.237669 
L 249.330248 178.845966 
L 249.964959 178.637897 
L 250.599669 178.555006 
L 252.186446 178.049732 
L 254.090579 177.915093 
L 255.042645 177.777958 
L 255.36 177.764179 
L 256.312066 177.320617 
L 258.533554 177.07996 
L 258.850909 176.866319 
L 259.48562 176.803226 
L 261.072397 176.259611 
L 262.024463 176.146043 
L 262.976529 176.05414 
L 263.61124 175.959324 
L 264.24595 175.624239 
L 266.150083 175.419453 
L 266.784793 175.277677 
L 267.73686 175.138128 
L 269.323636 174.646435 
L 270.593058 174.336993 
L 270.910413 173.944782 
L 275.353388 173.2036 
L 276.305455 172.934077 
L 278.209587 172.783545 
L 279.479008 172.09821 
L 280.74843 172.014031 
L 281.700496 171.787862 
L 282.017851 171.787862 
L 282.335207 171.662932 
L 282.652562 171.359917 
L 284.239339 171.138463 
L 286.143471 170.8193 
L 286.460826 170.796055 
L 287.095537 170.611767 
L 288.999669 170.220059 
L 289.63438 170.053885 
L 290.586446 169.929102 
L 291.221157 169.426071 
L 292.807934 169.289188 
L 294.077355 168.937329 
L 294.394711 168.694707 
L 296.298843 168.454049 
L 296.933554 168.240413 
L 297.568264 168.177316 
L 299.155041 167.633707 
L 299.789752 167.520142 
L 301.059174 167.333416 
L 301.693884 167.24723 
L 302.64595 166.867585 
L 303.598017 166.793548 
L 304.232727 166.651773 
L 304.867438 166.606342 
L 305.502149 166.267378 
L 308.358347 165.780828 
L 308.675702 165.711085 
L 309.310413 165.318873 
L 310.579835 165.075792 
L 310.89719 164.88801 
L 312.483967 164.577694 
L 313.118678 164.44543 
L 313.436033 164.436525 
L 314.070744 164.240566 
L 314.705455 164.157642 
L 315.340165 163.697403 
L 315.657521 163.4723 
L 316.926942 163.399229 
L 317.561653 163.161955 
L 318.196364 163.128422 
L 318.513719 162.734006 
L 320.100496 162.512556 
L 321.687273 162.193383 
L 322.004628 161.985864 
L 325.495537 161.373647 
L 325.812893 161.084857 
L 326.130248 161.05818 
L 326.447603 160.800163 
L 327.399669 160.663283 
L 328.03438 160.570935 
L 328.351736 160.311416 
L 329.303802 160.030992 
L 330.890579 159.862236 
L 331.525289 159.431853 
L 332.477355 159.301578 
L 332.794711 159.007803 
L 333.746777 158.894238 
L 334.381488 158.814132 
L 335.016198 158.698358 
L 335.650909 158.491026 
L 336.602975 158.157434 
L 337.237686 158.025868 
L 337.555041 157.641478 
L 338.824463 157.403914 
L 339.776529 157.085178 
L 340.093884 156.749548 
L 341.363306 156.492531 
L 341.680661 156.262107 
L 342.315372 156.218219 
L 342.632727 156.083724 
L 342.950083 156.079033 
L 343.584793 155.939086 
L 344.219504 155.819521 
L 344.53686 155.810621 
L 345.17157 155.614659 
L 345.806281 155.531737 
L 346.123636 155.346559 
L 346.440992 154.846389 
L 347.075702 154.840899 
L 347.710413 154.536047 
L 348.027769 154.502508 
L 348.345124 154.083726 
L 348.979835 153.886649 
L 349.931901 153.596294 
L 350.566612 153.567466 
L 350.883967 153.276288 
L 351.518678 153.134834 
L 352.470744 152.968245 
L 353.105455 152.747743 
L 353.42281 152.458952 
L 353.740165 152.432266 
L 354.057521 152.174254 
L 354.692231 152.085596 
L 355.009587 151.963824 
L 355.326942 151.685505 
L 355.961653 151.570433 
L 356.596364 151.405083 
L 357.54843 151.24698 
L 358.18314 150.79852 
L 358.500496 150.721073 
L 359.135207 150.188227 
L 359.769917 150.072447 
L 360.087273 149.99542 
L 360.404628 149.53152 
L 361.039339 149.440079 
L 361.356694 149.015577 
L 363.895537 148.340719 
L 364.530248 147.884465 
L 366.751736 147.193611 
L 367.069091 147.184717 
L 367.703802 146.951808 
L 368.021157 146.452895 
L 368.338512 146.22048 
L 368.655868 146.215677 
L 369.290579 145.457816 
L 369.925289 145.260743 
L 370.877355 144.970381 
L 371.512066 144.477844 
L 372.464132 144.217148 
L 373.098843 143.548346 
L 373.416198 143.320682 
L 373.733554 142.944522 
L 374.368264 142.779173 
L 375.320331 142.621062 
L 375.637686 142.172602 
L 375.955041 142.095164 
L 376.907107 141.562322 
L 377.541818 141.446537 
L 377.859174 140.905608 
L 378.493884 140.814171 
L 378.81124 140.243377 
L 379.128595 140.235379 
L 379.44595 139.71482 
L 380.398017 138.997094 
L 381.350083 138.586292 
L 381.667438 138.567703 
L 382.302149 138.325897 
L 383.254215 136.831905 
L 383.57157 136.822118 
L 384.840992 135.73446 
L 385.475702 135.591241 
L 386.110413 135.180438 
L 386.745124 134.337128 
L 387.379835 134.089398 
L 387.69719 133.995147 
L 388.014545 133.111844 
L 388.331901 132.820627 
L 388.649256 132.279695 
L 388.966612 132.197655 
L 389.283967 131.617467 
L 389.601322 131.609473 
L 390.553388 129.960384 
L 390.870744 129.941794 
L 391.188099 129.304013 
L 391.82281 129.201084 
L 392.140165 127.718557 
L 392.457521 127.079793 
L 393.409587 126.068856 
L 393.726942 125.463491 
L 394.361653 123.653784 
L 394.679008 122.991558 
L 394.996364 122.841437 
L 395.313719 122.246776 
L 395.631074 121.892027 
L 396.265785 119.092646 
L 396.58314 118.453885 
L 396.900496 118.149782 
L 397.217851 113.620855 
L 397.535207 113.266114 
L 397.852562 111.958243 
L 398.487273 104.994933 
L 398.487273 104.994933 
" clip-path="url(#pfcb65a518f)" style="fill: none; stroke: #ff7f0e; stroke-width: 1.5; stroke-linecap: square"/>
   </g>
   <g id="patch_3">
    <path d="M 57.6 307.584 
L 57.6 41.472 
" style="fill: none; stroke: #000000; stroke-width: 0.8; stroke-linejoin: miter; stroke-linecap: square"/>
   </g>
   <g id="patch_4">
    <path d="M 414.72 307.584 
L 414.72 41.472 
" style="fill: none; stroke: #000000; stroke-width: 0.8; stroke-linejoin: miter; stroke-linecap: square"/>
   </g>
   <g id="patch_5">
    <path d="M 57.6 307.584 
L 414.72 307.584 
" style="fill: none; stroke: #000000; stroke-width: 0.8; stroke-linejoin: miter; stroke-linecap: square"/>
   </g>
   <g id="patch_6">
    <path d="M 57.6 41.472 
L 414.72 41.472 
" style="fill: none; stroke: #000000; stroke-width: 0.8; stroke-linejoin: miter; stroke-linecap: square"/>
   </g>
   <g id="legend_1">
    <g id="patch_7">
     <path d="M 64.6 78.82825 
L 129.342187 78.82825 
Q 131.342187 78.82825 131.342187 76.82825 
L 131.342187 48.472 
Q 131.342187 46.472 129.342187 46.472 
L 64.6 46.472 
Q 62.6 46.472 62.6 48.472 
L 62.6 76.82825 
Q 62.6 78.82825 64.6 78.82825 
z
" style="fill: #ffffff; opacity: 0.8; stroke: #cccccc; stroke-linejoin: miter"/>
    </g>
    <g id="line2d_15">
     <path d="M 66.6 54.570437 
L 76.6 54.570437 
L 86.6 54.570437 
" style="fill: none; stroke: #1f77b4; stroke-width: 1.5; stroke-linecap: square"/>
    </g>
    <g id="text_15">
     <!-- qc -->
     <g transform="translate(94.6 58.070437) scale(0.1 -0.1)">
      <defs>
       <path id="DejaVuSans-71" d="M 947 1747 
Q 947 1113 1208 752 
Q 1469 391 1925 391 
Q 2381 391 2643 752 
Q 2906 1113 2906 1747 
Q 2906 2381 2643 2742 
Q 2381 3103 1925 3103 
Q 1469 3103 1208 2742 
Q 947 2381 947 1747 
z
M 2906 525 
Q 2725 213 2448 61 
Q 2172 -91 1784 -91 
Q 1150 -91 751 415 
Q 353 922 353 1747 
Q 353 2572 751 3078 
Q 1150 3584 1784 3584 
Q 2172 3584 2448 3432 
Q 2725 3281 2906 2969 
L 2906 3500 
L 3481 3500 
L 3481 -1331 
L 2906 -1331 
L 2906 525 
z
" transform="scale(0.015625)"/>
       <path id="DejaVuSans-63" d="M 3122 3366 
L 3122 2828 
Q 2878 2963 2633 3030 
Q 2388 3097 2138 3097 
Q 1578 3097 1268 2742 
Q 959 2388 959 1747 
Q 959 1106 1268 751 
Q 1578 397 2138 397 
Q 2388 397 2633 464 
Q 2878 531 3122 666 
L 3122 134 
Q 2881 22 2623 -34 
Q 2366 -91 2075 -91 
Q 1284 -91 818 406 
Q 353 903 353 1747 
Q 353 2603 823 3093 
Q 1294 3584 2113 3584 
Q 2378 3584 2631 3529 
Q 2884 3475 3122 3366 
z
" transform="scale(0.015625)"/>
      </defs>
      <use xlink:href="#DejaVuSans-71"/>
      <use xlink:href="#DejaVuSans-63" x="63.476562"/>
     </g>
    </g>
    <g id="line2d_16">
     <path d="M 66.6 69.248562 
L 76.6 69.248562 
L 86.6 69.248562 
" style="fill: none; stroke: #ff7f0e; stroke-width: 1.5; stroke-linecap: square"/>
    </g>
    <g id="text_16">
     <!-- Trotter -->
     <g transform="translate(94.6 72.748562) scale(0.1 -0.1)">
      <defs>
       <path id="DejaVuSans-54" d="M -19 4666 
L 3928 4666 
L 3928 4134 
L 2272 4134 
L 2272 0 
L 1638 0 
L 1638 4134 
L -19 4134 
L -19 4666 
z
" transform="scale(0.015625)"/>
       <path id="DejaVuSans-72" d="M 2631 2963 
Q 2534 3019 2420 3045 
Q 2306 3072 2169 3072 
Q 1681 3072 1420 2755 
Q 1159 2438 1159 1844 
L 1159 0 
L 581 0 
L 581 3500 
L 1159 3500 
L 1159 2956 
Q 1341 3275 1631 3429 
Q 1922 3584 2338 3584 
Q 2397 3584 2469 3576 
Q 2541 3569 2628 3553 
L 2631 2963 
z
" transform="scale(0.015625)"/>
       <path id="DejaVuSans-6f" d="M 1959 3097 
Q 1497 3097 1228 2736 
Q 959 2375 959 1747 
Q 959 1119 1226 758 
Q 1494 397 1959 397 
Q 2419 397 2687 759 
Q 2956 1122 2956 1747 
Q 2956 2369 2687 2733 
Q 2419 3097 1959 3097 
z
M 1959 3584 
Q 2709 3584 3137 3096 
Q 3566 2609 3566 1747 
Q 3566 888 3137 398 
Q 2709 -91 1959 -91 
Q 1206 -91 779 398 
Q 353 888 353 1747 
Q 353 2609 779 3096 
Q 1206 3584 1959 3584 
z
" transform="scale(0.015625)"/>
       <path id="DejaVuSans-65" d="M 3597 1894 
L 3597 1613 
L 953 1613 
Q 991 1019 1311 708 
Q 1631 397 2203 397 
Q 2534 397 2845 478 
Q 3156 559 3463 722 
L 3463 178 
Q 3153 47 2828 -22 
Q 2503 -91 2169 -91 
Q 1331 -91 842 396 
Q 353 884 353 1716 
Q 353 2575 817 3079 
Q 1281 3584 2069 3584 
Q 2775 3584 3186 3129 
Q 3597 2675 3597 1894 
z
M 3022 2063 
Q 3016 2534 2758 2815 
Q 2500 3097 2075 3097 
Q 1594 3097 1305 2825 
Q 1016 2553 972 2059 
L 3022 2063 
z
" transform="scale(0.015625)"/>
      </defs>
      <use xlink:href="#DejaVuSans-54"/>
      <use xlink:href="#DejaVuSans-72" x="46.333984"/>
      <use xlink:href="#DejaVuSans-6f" x="85.197266"/>
      <use xlink:href="#DejaVuSans-74" x="146.378906"/>
      <use xlink:href="#DejaVuSans-74" x="185.587891"/>
      <use xlink:href="#DejaVuSans-65" x="224.796875"/>
      <use xlink:href="#DejaVuSans-72" x="286.320312"/>
     </g>
    </g>
   </g>
  </g>
 </g>
 <defs>
  <clipPath id="pfcb65a518f">
   <rect x="57.6" y="41.472" width="357.12" height="266.112"/>
  </clipPath>
 </defs>
</svg>
