<?xml version="1.0" encoding="utf-8" standalone="no"?>
<!DOCTYPE svg PUBLIC "-//W3C//DTD SVG 1.1//EN"
  "http://www.w3.org/Graphics/SVG/1.1/DTD/svg11.dtd">
<svg xmlns:xlink="http://www.w3.org/1999/xlink" width="460.8pt" height="345.6pt" viewBox="0 0 460.8 345.6" xmlns="http://www.w3.org/2000/svg" version="1.1">
 <metadata>
  <rdf:RDF xmlns:dc="http://purl.org/dc/elements/1.1/" xmlns:cc="http://creativecommons.org/ns#" xmlns:rdf="http://www.w3.org/1999/02/22-rdf-syntax-ns#">
   <cc:Work>
    <dc:type rdf:resource="http://purl.org/dc/dcmitype/StillImage"/>
    <dc:date>2024-07-14T12:49:04.814034</dc:date>
    <dc:format>image/svg+xml</dc:format>
    <dc:creator>
     <cc:Agent>
      <dc:title>Matplotlib v3.7.1, https://matplotlib.org/</dc:title>
     </cc:Agent>
    </dc:creator>
   </cc:Work>
  </rdf:RDF>
 </metadata>
 <defs>
  <style type="text/css">*{stroke-linejoin: round; stroke-linecap: butt}</style>
 </defs>
 <g id="figure_1">
  <g id="patch_1">
   <path d="M 0 345.6 
L 460.8 345.6 
L 460.8 0 
L 0 0 
z
" style="fill: #ffffff"/>
  </g>
  <g id="axes_1">
   <g id="patch_2">
    <path d="M 57.6 307.584 
L 414.72 307.584 
L 414.72 41.472 
L 57.6 41.472 
z
" style="fill: #ffffff"/>
   </g>
   <g id="matplotlib.axis_1">
    <g id="xtick_1">
     <g id="line2d_1">
      <defs>
       <path id="m06d467133e" d="M 0 0 
L 0 3.5 
" style="stroke: #000000; stroke-width: 0.8"/>
      </defs>
      <g>
       <use xlink:href="#m06d467133e" x="73.832727" y="307.584" style="stroke: #000000; stroke-width: 0.8"/>
      </g>
     </g>
     <g id="text_1">
      <!-- 0 -->
      <g transform="translate(70.651477 322.182437) scale(0.1 -0.1)">
       <defs>
        <path id="DejaVuSans-30" d="M 2034 4250 
Q 1547 4250 1301 3770 
Q 1056 3291 1056 2328 
Q 1056 1369 1301 889 
Q 1547 409 2034 409 
Q 2525 409 2770 889 
Q 3016 1369 3016 2328 
Q 3016 3291 2770 3770 
Q 2525 4250 2034 4250 
z
M 2034 4750 
Q 2819 4750 3233 4129 
Q 3647 3509 3647 2328 
Q 3647 1150 3233 529 
Q 2819 -91 2034 -91 
Q 1250 -91 836 529 
Q 422 1150 422 2328 
Q 422 3509 836 4129 
Q 1250 4750 2034 4750 
z
" transform="scale(0.015625)"/>
       </defs>
       <use xlink:href="#DejaVuSans-30"/>
      </g>
     </g>
    </g>
    <g id="xtick_2">
     <g id="line2d_2">
      <g>
       <use xlink:href="#m06d467133e" x="137.303802" y="307.584" style="stroke: #000000; stroke-width: 0.8"/>
      </g>
     </g>
     <g id="text_2">
      <!-- 200 -->
      <g transform="translate(127.760052 322.182437) scale(0.1 -0.1)">
       <defs>
        <path id="DejaVuSans-32" d="M 1228 531 
L 3431 531 
L 3431 0 
L 469 0 
L 469 531 
Q 828 903 1448 1529 
Q 2069 2156 2228 2338 
Q 2531 2678 2651 2914 
Q 2772 3150 2772 3378 
Q 2772 3750 2511 3984 
Q 2250 4219 1831 4219 
Q 1534 4219 1204 4116 
Q 875 4013 500 3803 
L 500 4441 
Q 881 4594 1212 4672 
Q 1544 4750 1819 4750 
Q 2544 4750 2975 4387 
Q 3406 4025 3406 3419 
Q 3406 3131 3298 2873 
Q 3191 2616 2906 2266 
Q 2828 2175 2409 1742 
Q 1991 1309 1228 531 
z
" transform="scale(0.015625)"/>
       </defs>
       <use xlink:href="#DejaVuSans-32"/>
       <use xlink:href="#DejaVuSans-30" x="63.623047"/>
       <use xlink:href="#DejaVuSans-30" x="127.246094"/>
      </g>
     </g>
    </g>
    <g id="xtick_3">
     <g id="line2d_3">
      <g>
       <use xlink:href="#m06d467133e" x="200.774876" y="307.584" style="stroke: #000000; stroke-width: 0.8"/>
      </g>
     </g>
     <g id="text_3">
      <!-- 400 -->
      <g transform="translate(191.231126 322.182437) scale(0.1 -0.1)">
       <defs>
        <path id="DejaVuSans-34" d="M 2419 4116 
L 825 1625 
L 2419 1625 
L 2419 4116 
z
M 2253 4666 
L 3047 4666 
L 3047 1625 
L 3713 1625 
L 3713 1100 
L 3047 1100 
L 3047 0 
L 2419 0 
L 2419 1100 
L 313 1100 
L 313 1709 
L 2253 4666 
z
" transform="scale(0.015625)"/>
       </defs>
       <use xlink:href="#DejaVuSans-34"/>
       <use xlink:href="#DejaVuSans-30" x="63.623047"/>
       <use xlink:href="#DejaVuSans-30" x="127.246094"/>
      </g>
     </g>
    </g>
    <g id="xtick_4">
     <g id="line2d_4">
      <g>
       <use xlink:href="#m06d467133e" x="264.24595" y="307.584" style="stroke: #000000; stroke-width: 0.8"/>
      </g>
     </g>
     <g id="text_4">
      <!-- 600 -->
      <g transform="translate(254.7022 322.182437) scale(0.1 -0.1)">
       <defs>
        <path id="DejaVuSans-36" d="M 2113 2584 
Q 1688 2584 1439 2293 
Q 1191 2003 1191 1497 
Q 1191 994 1439 701 
Q 1688 409 2113 409 
Q 2538 409 2786 701 
Q 3034 994 3034 1497 
Q 3034 2003 2786 2293 
Q 2538 2584 2113 2584 
z
M 3366 4563 
L 3366 3988 
Q 3128 4100 2886 4159 
Q 2644 4219 2406 4219 
Q 1781 4219 1451 3797 
Q 1122 3375 1075 2522 
Q 1259 2794 1537 2939 
Q 1816 3084 2150 3084 
Q 2853 3084 3261 2657 
Q 3669 2231 3669 1497 
Q 3669 778 3244 343 
Q 2819 -91 2113 -91 
Q 1303 -91 875 529 
Q 447 1150 447 2328 
Q 447 3434 972 4092 
Q 1497 4750 2381 4750 
Q 2619 4750 2861 4703 
Q 3103 4656 3366 4563 
z
" transform="scale(0.015625)"/>
       </defs>
       <use xlink:href="#DejaVuSans-36"/>
       <use xlink:href="#DejaVuSans-30" x="63.623047"/>
       <use xlink:href="#DejaVuSans-30" x="127.246094"/>
      </g>
     </g>
    </g>
    <g id="xtick_5">
     <g id="line2d_5">
      <g>
       <use xlink:href="#m06d467133e" x="327.717025" y="307.584" style="stroke: #000000; stroke-width: 0.8"/>
      </g>
     </g>
     <g id="text_5">
      <!-- 800 -->
      <g transform="translate(318.173275 322.182437) scale(0.1 -0.1)">
       <defs>
        <path id="DejaVuSans-38" d="M 2034 2216 
Q 1584 2216 1326 1975 
Q 1069 1734 1069 1313 
Q 1069 891 1326 650 
Q 1584 409 2034 409 
Q 2484 409 2743 651 
Q 3003 894 3003 1313 
Q 3003 1734 2745 1975 
Q 2488 2216 2034 2216 
z
M 1403 2484 
Q 997 2584 770 2862 
Q 544 3141 544 3541 
Q 544 4100 942 4425 
Q 1341 4750 2034 4750 
Q 2731 4750 3128 4425 
Q 3525 4100 3525 3541 
Q 3525 3141 3298 2862 
Q 3072 2584 2669 2484 
Q 3125 2378 3379 2068 
Q 3634 1759 3634 1313 
Q 3634 634 3220 271 
Q 2806 -91 2034 -91 
Q 1263 -91 848 271 
Q 434 634 434 1313 
Q 434 1759 690 2068 
Q 947 2378 1403 2484 
z
M 1172 3481 
Q 1172 3119 1398 2916 
Q 1625 2713 2034 2713 
Q 2441 2713 2670 2916 
Q 2900 3119 2900 3481 
Q 2900 3844 2670 4047 
Q 2441 4250 2034 4250 
Q 1625 4250 1398 4047 
Q 1172 3844 1172 3481 
z
" transform="scale(0.015625)"/>
       </defs>
       <use xlink:href="#DejaVuSans-38"/>
       <use xlink:href="#DejaVuSans-30" x="63.623047"/>
       <use xlink:href="#DejaVuSans-30" x="127.246094"/>
      </g>
     </g>
    </g>
    <g id="xtick_6">
     <g id="line2d_6">
      <g>
       <use xlink:href="#m06d467133e" x="391.188099" y="307.584" style="stroke: #000000; stroke-width: 0.8"/>
      </g>
     </g>
     <g id="text_6">
      <!-- 1000 -->
      <g transform="translate(378.463099 322.182437) scale(0.1 -0.1)">
       <defs>
        <path id="DejaVuSans-31" d="M 794 531 
L 1825 531 
L 1825 4091 
L 703 3866 
L 703 4441 
L 1819 4666 
L 2450 4666 
L 2450 531 
L 3481 531 
L 3481 0 
L 794 0 
L 794 531 
z
" transform="scale(0.015625)"/>
       </defs>
       <use xlink:href="#DejaVuSans-31"/>
       <use xlink:href="#DejaVuSans-30" x="63.623047"/>
       <use xlink:href="#DejaVuSans-30" x="127.246094"/>
       <use xlink:href="#DejaVuSans-30" x="190.869141"/>
      </g>
     </g>
    </g>
    <g id="text_7">
     <!-- n -->
     <g transform="translate(232.99125 335.860562) scale(0.1 -0.1)">
      <defs>
       <path id="DejaVuSans-6e" d="M 3513 2113 
L 3513 0 
L 2938 0 
L 2938 2094 
Q 2938 2591 2744 2837 
Q 2550 3084 2163 3084 
Q 1697 3084 1428 2787 
Q 1159 2491 1159 1978 
L 1159 0 
L 581 0 
L 581 3500 
L 1159 3500 
L 1159 2956 
Q 1366 3272 1645 3428 
Q 1925 3584 2291 3584 
Q 2894 3584 3203 3211 
Q 3513 2838 3513 2113 
z
" transform="scale(0.015625)"/>
      </defs>
      <use xlink:href="#DejaVuSans-6e"/>
     </g>
    </g>
   </g>
   <g id="matplotlib.axis_2">
    <g id="ytick_1">
     <g id="line2d_7">
      <defs>
       <path id="mce1d4a543b" d="M 0 0 
L -3.5 0 
" style="stroke: #000000; stroke-width: 0.8"/>
      </defs>
      <g>
       <use xlink:href="#mce1d4a543b" x="57.6" y="292.495119" style="stroke: #000000; stroke-width: 0.8"/>
      </g>
     </g>
     <g id="text_8">
      <!-- −0.6 -->
      <g transform="translate(26.317187 296.294338) scale(0.1 -0.1)">
       <defs>
        <path id="DejaVuSans-2212" d="M 678 2272 
L 4684 2272 
L 4684 1741 
L 678 1741 
L 678 2272 
z
" transform="scale(0.015625)"/>
        <path id="DejaVuSans-2e" d="M 684 794 
L 1344 794 
L 1344 0 
L 684 0 
L 684 794 
z
" transform="scale(0.015625)"/>
       </defs>
       <use xlink:href="#DejaVuSans-2212"/>
       <use xlink:href="#DejaVuSans-30" x="83.789062"/>
       <use xlink:href="#DejaVuSans-2e" x="147.412109"/>
       <use xlink:href="#DejaVuSans-36" x="179.199219"/>
      </g>
     </g>
    </g>
    <g id="ytick_2">
     <g id="line2d_8">
      <g>
       <use xlink:href="#mce1d4a543b" x="57.6" y="252.175076" style="stroke: #000000; stroke-width: 0.8"/>
      </g>
     </g>
     <g id="text_9">
      <!-- −0.4 -->
      <g transform="translate(26.317187 255.974295) scale(0.1 -0.1)">
       <use xlink:href="#DejaVuSans-2212"/>
       <use xlink:href="#DejaVuSans-30" x="83.789062"/>
       <use xlink:href="#DejaVuSans-2e" x="147.412109"/>
       <use xlink:href="#DejaVuSans-34" x="179.199219"/>
      </g>
     </g>
    </g>
    <g id="ytick_3">
     <g id="line2d_9">
      <g>
       <use xlink:href="#mce1d4a543b" x="57.6" y="211.855033" style="stroke: #000000; stroke-width: 0.8"/>
      </g>
     </g>
     <g id="text_10">
      <!-- −0.2 -->
      <g transform="translate(26.317187 215.654251) scale(0.1 -0.1)">
       <use xlink:href="#DejaVuSans-2212"/>
       <use xlink:href="#DejaVuSans-30" x="83.789062"/>
       <use xlink:href="#DejaVuSans-2e" x="147.412109"/>
       <use xlink:href="#DejaVuSans-32" x="179.199219"/>
      </g>
     </g>
    </g>
    <g id="ytick_4">
     <g id="line2d_10">
      <g>
       <use xlink:href="#mce1d4a543b" x="57.6" y="171.534989" style="stroke: #000000; stroke-width: 0.8"/>
      </g>
     </g>
     <g id="text_11">
      <!-- 0.0 -->
      <g transform="translate(34.696875 175.334208) scale(0.1 -0.1)">
       <use xlink:href="#DejaVuSans-30"/>
       <use xlink:href="#DejaVuSans-2e" x="63.623047"/>
       <use xlink:href="#DejaVuSans-30" x="95.410156"/>
      </g>
     </g>
    </g>
    <g id="ytick_5">
     <g id="line2d_11">
      <g>
       <use xlink:href="#mce1d4a543b" x="57.6" y="131.214946" style="stroke: #000000; stroke-width: 0.8"/>
      </g>
     </g>
     <g id="text_12">
      <!-- 0.2 -->
      <g transform="translate(34.696875 135.014165) scale(0.1 -0.1)">
       <use xlink:href="#DejaVuSans-30"/>
       <use xlink:href="#DejaVuSans-2e" x="63.623047"/>
       <use xlink:href="#DejaVuSans-32" x="95.410156"/>
      </g>
     </g>
    </g>
    <g id="ytick_6">
     <g id="line2d_12">
      <g>
       <use xlink:href="#mce1d4a543b" x="57.6" y="90.894902" style="stroke: #000000; stroke-width: 0.8"/>
      </g>
     </g>
     <g id="text_13">
      <!-- 0.4 -->
      <g transform="translate(34.696875 94.694121) scale(0.1 -0.1)">
       <use xlink:href="#DejaVuSans-30"/>
       <use xlink:href="#DejaVuSans-2e" x="63.623047"/>
       <use xlink:href="#DejaVuSans-34" x="95.410156"/>
      </g>
     </g>
    </g>
    <g id="ytick_7">
     <g id="line2d_13">
      <g>
       <use xlink:href="#mce1d4a543b" x="57.6" y="50.574859" style="stroke: #000000; stroke-width: 0.8"/>
      </g>
     </g>
     <g id="text_14">
      <!-- 0.6 -->
      <g transform="translate(34.696875 54.374078) scale(0.1 -0.1)">
       <use xlink:href="#DejaVuSans-30"/>
       <use xlink:href="#DejaVuSans-2e" x="63.623047"/>
       <use xlink:href="#DejaVuSans-36" x="95.410156"/>
      </g>
     </g>
    </g>
    <g id="text_15">
     <!-- E*t -->
     <g transform="translate(20.2375 182.147531) rotate(-90) scale(0.1 -0.1)">
      <defs>
       <path id="DejaVuSans-45" d="M 628 4666 
L 3578 4666 
L 3578 4134 
L 1259 4134 
L 1259 2753 
L 3481 2753 
L 3481 2222 
L 1259 2222 
L 1259 531 
L 3634 531 
L 3634 0 
L 628 0 
L 628 4666 
z
" transform="scale(0.015625)"/>
       <path id="DejaVuSans-2a" d="M 3009 3897 
L 1888 3291 
L 3009 2681 
L 2828 2375 
L 1778 3009 
L 1778 1831 
L 1422 1831 
L 1422 3009 
L 372 2375 
L 191 2681 
L 1313 3291 
L 191 3897 
L 372 4206 
L 1422 3572 
L 1422 4750 
L 1778 4750 
L 1778 3572 
L 2828 4206 
L 3009 3897 
z
" transform="scale(0.015625)"/>
       <path id="DejaVuSans-74" d="M 1172 4494 
L 1172 3500 
L 2356 3500 
L 2356 3053 
L 1172 3053 
L 1172 1153 
Q 1172 725 1289 603 
Q 1406 481 1766 481 
L 2356 481 
L 2356 0 
L 1766 0 
Q 1100 0 847 248 
Q 594 497 594 1153 
L 594 3053 
L 172 3053 
L 172 3500 
L 594 3500 
L 594 4494 
L 1172 4494 
z
" transform="scale(0.015625)"/>
      </defs>
      <use xlink:href="#DejaVuSans-45"/>
      <use xlink:href="#DejaVuSans-2a" x="63.183594"/>
      <use xlink:href="#DejaVuSans-74" x="113.183594"/>
     </g>
    </g>
   </g>
   <g id="line2d_14">
    <path d="M 73.832727 295.488 
L 74.150083 290.734576 
L 74.467438 281.955599 
L 74.784793 281.249965 
L 75.102149 277.311884 
L 75.419504 277.192538 
L 75.73686 276.80471 
L 76.054215 273.208394 
L 76.37157 272.419398 
L 76.688926 272.010912 
L 77.006281 269.276902 
L 77.958347 266.540584 
L 78.593058 263.780477 
L 78.910413 263.396641 
L 79.545124 262.14928 
L 79.862479 260.450542 
L 80.179835 260.261085 
L 80.49719 258.814766 
L 80.814545 258.638448 
L 81.449256 256.290613 
L 81.766612 255.976989 
L 82.401322 255.096758 
L 82.718678 253.968315 
L 83.353388 253.311873 
L 83.670744 252.067826 
L 83.988099 251.487216 
L 84.62281 250.982002 
L 85.257521 249.884344 
L 85.574876 249.603094 
L 85.892231 249.143538 
L 86.209587 248.920308 
L 87.796364 246.453739 
L 88.113719 246.078499 
L 89.065785 244.342026 
L 89.700496 243.715313 
L 90.335207 243.295936 
L 91.287273 242.351927 
L 91.604628 242.133381 
L 91.921983 241.557297 
L 92.239339 241.217238 
L 92.556694 241.054322 
L 93.191405 240.348204 
L 93.50876 239.823444 
L 94.143471 239.270879 
L 94.778182 238.472836 
L 97.317025 236.191624 
L 98.903802 234.554867 
L 99.221157 234.343557 
L 99.538512 234.286749 
L 100.807934 233.35523 
L 101.76 232.859092 
L 102.077355 232.625007 
L 102.394711 232.151226 
L 103.346777 231.489473 
L 103.664132 230.975672 
L 103.981488 230.793103 
L 104.616198 230.19625 
L 105.568264 229.709055 
L 105.88562 229.445743 
L 106.202975 229.345937 
L 107.155041 228.512692 
L 107.472397 228.326173 
L 107.789752 227.909007 
L 108.741818 227.447501 
L 109.059174 227.385171 
L 109.693884 226.79945 
L 110.01124 226.699044 
L 111.598017 225.672918 
L 111.915372 225.497393 
L 112.232727 225.095088 
L 112.550083 224.98942 
L 113.502149 224.294309 
L 113.819504 224.129842 
L 114.454215 223.536717 
L 115.406281 223.043946 
L 115.723636 223.002445 
L 117.310413 222.130368 
L 118.89719 220.882168 
L 120.166612 220.063945 
L 120.801322 219.644445 
L 121.753388 219.152059 
L 122.705455 218.827798 
L 123.02281 218.399418 
L 125.561653 216.822441 
L 125.879008 216.389941 
L 126.196364 216.365274 
L 128.417851 215.156231 
L 128.735207 214.913445 
L 129.369917 214.727358 
L 132.543471 213.117033 
L 134.130248 212.393966 
L 135.399669 211.682878 
L 136.986446 210.810235 
L 137.621157 210.644113 
L 138.255868 210.234933 
L 139.842645 209.458795 
L 143.016198 208.104469 
L 143.333554 207.915524 
L 143.650909 207.856104 
L 144.602975 207.402572 
L 146.189752 206.619421 
L 147.141818 206.334152 
L 149.363306 205.114944 
L 149.998017 204.932529 
L 150.632727 204.661658 
L 150.950083 204.572384 
L 151.584793 204.28799 
L 153.806281 203.134874 
L 154.123636 202.905073 
L 155.393058 202.427323 
L 155.710413 202.219075 
L 156.345124 202.077497 
L 156.662479 201.982281 
L 157.614545 201.416064 
L 158.883967 200.934159 
L 160.788099 200.069748 
L 161.740165 199.757672 
L 162.374876 199.391697 
L 163.644298 198.904057 
L 164.279008 198.59329 
L 164.913719 198.321761 
L 170.943471 195.868436 
L 171.260826 195.824268 
L 171.895537 195.455204 
L 172.847603 195.190005 
L 173.482314 194.844785 
L 174.751736 194.427041 
L 175.703802 193.97221 
L 177.607934 193.14913 
L 180.146777 192.252481 
L 180.781488 192.029235 
L 181.098843 191.835625 
L 181.416198 191.800125 
L 182.050909 191.499333 
L 182.68562 191.298881 
L 183.637686 191.062678 
L 183.955041 190.75701 
L 184.589752 190.606689 
L 185.224463 190.337201 
L 185.541818 190.025636 
L 187.128595 189.448966 
L 187.44595 189.250849 
L 187.763306 189.211715 
L 188.398017 188.930241 
L 188.715372 188.918775 
L 189.350083 188.702456 
L 190.302149 188.357906 
L 190.619504 188.073477 
L 192.840992 187.234275 
L 193.475702 187.060557 
L 194.427769 186.639154 
L 195.379835 186.434626 
L 196.014545 186.137667 
L 198.870744 185.247453 
L 199.82281 184.802328 
L 200.774876 184.535822 
L 201.726942 184.177586 
L 202.044298 183.943058 
L 203.313719 183.617884 
L 206.804628 182.230095 
L 207.439339 182.079765 
L 208.07405 181.797063 
L 208.70876 181.59794 
L 209.660826 181.316478 
L 214.738512 179.450993 
L 215.373223 179.077949 
L 216.007934 178.960384 
L 216.325289 178.787631 
L 216.96 178.691899 
L 218.229421 178.105854 
L 219.181488 177.90088 
L 226.798017 175.326267 
L 227.432727 174.954179 
L 228.067438 174.820025 
L 229.019504 174.445698 
L 230.606281 173.818145 
L 231.558347 173.566499 
L 232.827769 172.977203 
L 233.779835 172.676198 
L 234.09719 172.49951 
L 234.414545 172.472149 
L 235.366612 172.109963 
L 236.001322 171.901747 
L 236.636033 171.560834 
L 237.270744 171.409938 
L 239.809587 170.528886 
L 240.126942 170.346383 
L 241.079008 170.086478 
L 242.031074 169.786842 
L 243.300496 169.219017 
L 243.617851 169.173208 
L 244.252562 168.871331 
L 244.887273 168.744201 
L 246.791405 168.107995 
L 249.012893 167.381892 
L 249.330248 167.151371 
L 249.964959 167.005632 
L 250.917025 166.675095 
L 252.821157 166.13873 
L 253.455868 165.894433 
L 254.090579 165.695004 
L 255.042645 165.437188 
L 255.677355 165.137047 
L 259.168264 163.905643 
L 260.755041 163.307193 
L 261.707107 162.975697 
L 262.659174 162.648231 
L 264.24595 162.122943 
L 264.563306 162.076223 
L 265.198017 161.794129 
L 270.593058 159.858693 
L 271.545124 159.469668 
L 272.814545 159.065524 
L 274.401322 158.43417 
L 275.353388 158.134478 
L 276.305455 157.872876 
L 276.62281 157.738387 
L 276.940165 157.467397 
L 277.574876 157.27049 
L 278.209587 157.052838 
L 280.431074 156.271234 
L 281.065785 156.004719 
L 284.239339 154.890208 
L 284.87405 154.586508 
L 285.50876 154.399082 
L 286.143471 154.143513 
L 287.095537 153.793731 
L 287.730248 153.530759 
L 288.047603 153.484364 
L 288.364959 153.210323 
L 289.63438 152.934585 
L 290.269091 152.596454 
L 292.490579 151.767951 
L 293.125289 151.47219 
L 302.328595 147.704048 
L 303.280661 147.367817 
L 305.502149 146.402909 
L 306.13686 146.237539 
L 307.088926 145.862667 
L 307.406281 145.788432 
L 308.358347 145.318318 
L 315.974876 142.337911 
L 316.292231 142.292036 
L 317.244298 141.756364 
L 318.196364 141.362973 
L 319.14843 140.780786 
L 319.78314 140.619609 
L 321.052562 140.01135 
L 323.591405 138.828166 
L 324.226116 138.640198 
L 324.860826 138.253065 
L 325.812893 137.796398 
L 326.447603 137.57497 
L 326.764959 137.332094 
L 328.669091 136.652695 
L 329.621157 136.141777 
L 332.794711 134.740697 
L 333.112066 134.648399 
L 333.429421 134.373386 
L 333.746777 134.320178 
L 335.333554 133.469183 
L 336.28562 133.096229 
L 337.237686 132.538605 
L 337.872397 132.310852 
L 338.189752 132.232256 
L 338.824463 131.83054 
L 339.141818 131.749809 
L 339.459174 131.5378 
L 339.776529 131.489115 
L 341.04595 130.793135 
L 343.584793 129.404899 
L 344.53686 128.968777 
L 345.17157 128.424795 
L 345.806281 128.076946 
L 346.440992 127.698206 
L 347.075702 127.256802 
L 347.710413 127.012149 
L 349.29719 126.011208 
L 349.614545 125.932008 
L 350.249256 125.632457 
L 351.201322 125.187685 
L 351.836033 124.560988 
L 352.153388 124.487433 
L 354.374876 123.020654 
L 355.009587 122.800326 
L 355.644298 122.498561 
L 356.596364 122.08471 
L 357.54843 121.325151 
L 359.452562 120.214595 
L 360.087273 119.802711 
L 360.404628 119.700801 
L 361.356694 118.915827 
L 361.67405 118.797882 
L 362.30876 118.126252 
L 362.943471 117.668474 
L 363.260826 117.604794 
L 365.482314 116.058738 
L 365.799669 115.55937 
L 366.117025 115.302009 
L 366.751736 114.994713 
L 368.655868 113.641733 
L 368.973223 113.501687 
L 369.607934 112.924006 
L 369.925289 112.838935 
L 372.146777 111.340411 
L 372.781488 110.436778 
L 373.098843 110.075743 
L 373.416198 109.937223 
L 374.050909 109.263191 
L 376.589752 106.801944 
L 376.907107 106.399541 
L 377.224463 106.265006 
L 377.541818 105.868259 
L 377.859174 105.741454 
L 378.493884 105.09802 
L 378.81124 105.032328 
L 379.763306 103.894666 
L 380.080661 103.398729 
L 381.032727 102.635098 
L 381.350083 102.136088 
L 381.667438 101.92503 
L 382.302149 101.180135 
L 382.93686 100.34211 
L 383.254215 100.081542 
L 383.57157 99.592897 
L 383.888926 99.50705 
L 384.206281 99.010552 
L 384.523636 98.738663 
L 384.840992 98.151693 
L 385.475702 97.575277 
L 386.745124 95.692103 
L 387.062479 95.296452 
L 387.379835 94.678935 
L 388.014545 94.04793 
L 388.966612 91.947358 
L 389.283967 91.640543 
L 389.918678 90.336245 
L 390.870744 89.167542 
L 391.188099 88.321229 
L 391.505455 87.833793 
L 391.82281 86.876843 
L 392.774876 85.41605 
L 393.409587 83.328091 
L 393.726942 81.918416 
L 394.044298 81.280189 
L 394.361653 81.066117 
L 394.679008 79.972385 
L 394.996364 78.364341 
L 395.631074 76.670882 
L 396.265785 74.327748 
L 397.535207 65.208059 
L 397.852562 63.600367 
L 398.169917 60.175314 
L 398.487273 53.77558 
L 398.487273 53.77558 
" clip-path="url(#p6b45546f3b)" style="fill: none; stroke: #1f77b4; stroke-width: 1.5; stroke-linecap: square"/>
   </g>
   <g id="line2d_15">
    <path d="M 73.832727 236.996988 
L 74.150083 236.996988 
L 74.467438 236.643585 
L 74.784793 236.643585 
L 75.102149 236.160124 
L 76.054215 236.068969 
L 76.37157 235.879984 
L 76.688926 234.93972 
L 77.006281 234.93972 
L 77.323636 234.549794 
L 77.640992 234.549794 
L 77.958347 233.768536 
L 78.275702 233.768536 
L 78.593058 233.488123 
L 78.910413 232.393055 
L 79.227769 232.393055 
L 79.545124 232.118898 
L 80.49719 232.059952 
L 80.814545 231.206314 
L 81.449256 231.100977 
L 81.766612 230.594613 
L 82.718678 230.581939 
L 83.036033 230.107807 
L 83.353388 230.107807 
L 83.670744 229.696414 
L 83.988099 229.530444 
L 84.305455 229.530444 
L 84.62281 229.346479 
L 84.940165 229.346479 
L 85.257521 229.132478 
L 85.574876 228.569692 
L 86.209587 228.507318 
L 86.526942 228.039302 
L 87.479008 227.979823 
L 87.796364 227.805919 
L 88.113719 227.805919 
L 88.74843 227.088487 
L 89.065785 227.088487 
L 89.38314 226.841767 
L 89.700496 226.275677 
L 90.017851 226.275677 
L 90.335207 225.825217 
L 90.969917 225.754271 
L 91.287273 225.298788 
L 92.556694 225.227419 
L 92.87405 224.498237 
L 93.826116 224.405879 
L 94.778182 224.120388 
L 95.095537 224.120388 
L 95.412893 223.376132 
L 95.730248 223.376132 
L 96.047603 223.199722 
L 97.317025 223.095274 
L 97.63438 222.975565 
L 97.951736 222.975565 
L 98.269091 222.774372 
L 98.586446 222.096075 
L 98.903802 222.096075 
L 99.221157 221.576246 
L 100.173223 221.491368 
L 100.490579 221.33434 
L 100.807934 221.33434 
L 101.125289 221.174898 
L 101.442645 221.174898 
L 102.077355 220.625807 
L 102.712066 220.616686 
L 103.029421 220.171682 
L 103.346777 220.171682 
L 104.298843 219.774353 
L 104.616198 219.452958 
L 104.933554 219.452958 
L 105.568264 218.94995 
L 105.88562 218.94995 
L 106.202975 218.794118 
L 106.520331 218.794118 
L 106.837686 217.928113 
L 108.107107 217.871588 
L 108.424463 217.564482 
L 109.059174 217.52462 
L 109.376529 217.207497 
L 109.693884 217.207497 
L 110.01124 216.796951 
L 110.328595 216.796951 
L 110.64595 216.527625 
L 111.280661 216.447378 
L 111.915372 216.33338 
L 112.867438 216.124069 
L 113.184793 215.559812 
L 114.13686 215.515249 
L 114.454215 215.212309 
L 115.406281 214.808134 
L 115.723636 214.808134 
L 116.040992 214.549167 
L 116.358347 214.549167 
L 116.675702 214.414718 
L 116.993058 214.414718 
L 117.310413 213.657844 
L 119.214545 213.56694 
L 119.849256 213.450562 
L 120.166612 212.910813 
L 120.483967 212.910813 
L 120.801322 212.40704 
L 121.118678 212.40704 
L 121.436033 212.152091 
L 122.388099 212.055767 
L 123.340165 211.048178 
L 124.926942 210.920283 
L 125.244298 210.526177 
L 125.561653 210.526177 
L 125.879008 210.170388 
L 126.196364 210.170388 
L 126.513719 209.608473 
L 127.14843 209.573411 
L 127.465785 208.906374 
L 129.052562 208.895281 
L 129.687273 208.495955 
L 131.27405 208.333231 
L 131.591405 208.050851 
L 132.860826 207.940917 
L 133.812893 207.762381 
L 134.130248 207.516073 
L 134.447603 207.516073 
L 134.764959 207.377617 
L 135.399669 207.358433 
L 135.717025 207.166766 
L 136.669091 207.163603 
L 136.986446 206.878012 
L 137.303802 206.878012 
L 137.621157 206.710123 
L 137.938512 206.310188 
L 138.573223 206.186505 
L 138.890579 206.186505 
L 139.207934 206.016432 
L 139.525289 206.016432 
L 139.842645 205.805614 
L 140.16 205.805614 
L 140.477355 205.238846 
L 141.429421 205.192241 
L 141.746777 205.079733 
L 142.064132 204.780676 
L 142.381488 204.780676 
L 142.698843 204.296459 
L 143.333554 204.295881 
L 143.650909 204.175866 
L 143.968264 204.175866 
L 144.602975 203.753517 
L 145.555041 203.686106 
L 146.189752 203.492362 
L 146.507107 203.492362 
L 146.824463 203.276397 
L 147.141818 203.276397 
L 147.776529 202.609582 
L 149.363306 202.529102 
L 149.680661 202.473946 
L 149.998017 200.892077 
L 150.315372 200.892077 
L 150.950083 200.571783 
L 151.267438 200.571783 
L 151.584793 200.291355 
L 152.219504 200.256331 
L 152.854215 199.977388 
L 153.17157 199.977388 
L 153.488926 199.676624 
L 154.440992 199.498426 
L 155.075702 199.38846 
L 155.710413 199.372095 
L 156.027769 199.118336 
L 158.249256 198.990438 
L 158.566612 198.450767 
L 159.201322 198.443333 
L 159.518678 197.593111 
L 160.153388 197.569255 
L 160.470744 197.318094 
L 160.788099 197.314509 
L 161.105455 197.11764 
L 162.057521 197.079479 
L 162.374876 196.864196 
L 163.326942 196.822548 
L 163.644298 196.59673 
L 163.961653 196.59673 
L 164.279008 196.419079 
L 164.596364 196.419079 
L 164.913719 196.304525 
L 165.231074 195.633686 
L 165.54843 195.633686 
L 165.865785 195.259966 
L 166.817851 195.178295 
L 167.135207 194.826955 
L 167.769917 194.748065 
L 168.087273 194.440149 
L 168.404628 194.440149 
L 169.039339 193.907879 
L 169.356694 193.907879 
L 169.67405 193.627145 
L 170.943471 193.603855 
L 171.260826 193.202366 
L 171.895537 193.087093 
L 172.212893 192.564622 
L 172.530248 192.564622 
L 172.847603 192.163686 
L 173.799669 192.088114 
L 175.069091 191.6589 
L 176.021157 191.615672 
L 176.338512 191.369076 
L 177.290579 191.32361 
L 177.925289 191.226416 
L 178.56 191.175111 
L 178.877355 190.865715 
L 179.512066 190.818864 
L 179.829421 190.695047 
L 180.146777 190.695047 
L 180.464132 190.468089 
L 180.781488 190.468089 
L 181.098843 190.198945 
L 181.733554 190.179072 
L 182.050909 189.70229 
L 183.002975 189.489738 
L 183.320331 189.489738 
L 183.955041 189.322896 
L 184.272397 189.322896 
L 184.589752 189.199563 
L 184.907107 189.199563 
L 185.224463 188.655954 
L 185.541818 188.655954 
L 186.176529 188.372253 
L 187.763306 188.26642 
L 188.080661 188.15112 
L 188.398017 187.819786 
L 188.715372 187.819786 
L 189.032727 187.612226 
L 189.667438 187.604241 
L 189.984793 187.272569 
L 190.302149 187.272569 
L 190.619504 186.487477 
L 191.254215 186.392635 
L 191.888926 186.353925 
L 192.206281 185.708179 
L 193.475702 185.671511 
L 193.793058 185.528749 
L 195.379835 185.432945 
L 196.649256 185.349879 
L 197.283967 185.187568 
L 197.601322 185.187568 
L 197.918678 185.015037 
L 198.236033 184.699654 
L 198.553388 184.699654 
L 199.188099 184.007156 
L 199.505455 184.007156 
L 200.457521 183.687402 
L 201.726942 183.591766 
L 202.044298 183.281311 
L 202.996364 183.246344 
L 203.94843 182.887738 
L 205.535207 182.622942 
L 205.852562 182.622942 
L 206.169917 182.399365 
L 206.487273 182.399365 
L 206.804628 182.214668 
L 207.121983 182.214668 
L 208.07405 181.769008 
L 208.391405 181.769008 
L 209.026116 181.451203 
L 209.343471 181.451203 
L 209.660826 181.131281 
L 210.295537 181.061897 
L 210.612893 180.928444 
L 210.930248 180.928444 
L 211.247603 180.710828 
L 214.421157 180.105235 
L 214.738512 179.762273 
L 216.007934 179.683503 
L 216.325289 179.445186 
L 216.642645 179.445186 
L 216.96 179.128084 
L 217.277355 179.128084 
L 217.912066 178.957631 
L 219.181488 178.837728 
L 219.498843 178.431164 
L 219.816198 177.770492 
L 220.133554 177.572597 
L 220.450909 177.572597 
L 221.402975 177.299891 
L 223.307107 177.086187 
L 223.624463 176.800384 
L 224.576529 176.752919 
L 227.432727 176.115102 
L 227.750083 175.861351 
L 229.019504 175.79192 
L 229.654215 175.693463 
L 229.97157 175.683874 
L 230.288926 175.505447 
L 230.606281 175.505447 
L 230.923636 175.257688 
L 231.558347 175.200816 
L 231.875702 175.076995 
L 232.510413 175.037645 
L 232.827769 174.848353 
L 234.414545 174.750057 
L 234.731901 174.380702 
L 235.683967 174.354836 
L 236.001322 174.092638 
L 236.636033 174.075274 
L 236.953388 173.798655 
L 237.588099 173.690317 
L 238.22281 173.645691 
L 238.540165 173.038125 
L 239.492231 172.872488 
L 240.444298 172.821157 
L 240.761653 172.61059 
L 241.079008 172.61059 
L 241.396364 172.37519 
L 242.98314 172.056767 
L 243.617851 171.894046 
L 243.935207 171.894046 
L 244.569917 171.777979 
L 245.204628 171.763187 
L 245.521983 171.530697 
L 246.156694 171.439612 
L 246.47405 171.421494 
L 246.791405 170.936705 
L 247.10876 170.696519 
L 247.426116 170.696519 
L 247.743471 170.574193 
L 248.060826 170.574193 
L 248.695537 170.274903 
L 249.012893 170.274903 
L 249.330248 170.156076 
L 249.647603 170.156076 
L 249.964959 169.990453 
L 251.23438 169.941946 
L 252.821157 169.34153 
L 253.138512 169.002794 
L 253.455868 169.002794 
L 254.090579 168.841954 
L 254.407934 168.841954 
L 254.725289 168.676396 
L 255.36 167.934666 
L 256.312066 167.879502 
L 256.629421 167.646429 
L 257.581488 167.61701 
L 258.533554 167.385147 
L 258.850909 167.385147 
L 259.802975 167.016328 
L 260.120331 167.016328 
L 260.437686 166.68432 
L 260.755041 166.68432 
L 262.024463 166.290839 
L 262.976529 166.258618 
L 263.293884 165.934271 
L 263.928595 165.932634 
L 264.24595 165.737877 
L 264.880661 165.733214 
L 265.198017 165.59283 
L 266.467438 165.517495 
L 266.784793 165.389298 
L 267.102149 165.099518 
L 268.054215 165.012555 
L 268.37157 164.693267 
L 268.688926 164.693267 
L 269.640992 164.21171 
L 270.910413 164.106291 
L 271.227769 163.841401 
L 272.179835 163.764541 
L 272.49719 163.438574 
L 273.449256 163.424362 
L 274.083967 163.114168 
L 275.036033 163.02189 
L 275.353388 162.960017 
L 275.670744 162.119671 
L 276.62281 162.034362 
L 277.574876 161.836764 
L 277.892231 161.836764 
L 278.844298 161.302755 
L 279.161653 161.302755 
L 279.479008 161.156591 
L 279.796364 161.156591 
L 280.113719 160.571784 
L 280.74843 160.52788 
L 281.38314 160.421193 
L 282.017851 160.320592 
L 282.335207 160.320592 
L 282.969917 159.85548 
L 283.287273 159.85548 
L 283.604628 159.729139 
L 284.239339 159.680476 
L 284.556694 158.745045 
L 285.826116 158.647444 
L 286.143471 158.580962 
L 286.460826 158.355811 
L 287.095537 158.255802 
L 287.412893 157.875361 
L 288.682314 157.820055 
L 288.999669 157.676928 
L 289.317025 157.676928 
L 289.951736 157.259407 
L 291.221157 157.216327 
L 291.538512 157.030926 
L 291.855868 157.030926 
L 292.173223 156.867565 
L 292.490579 156.867565 
L 292.807934 156.739297 
L 293.125289 156.739297 
L 293.442645 156.591356 
L 293.76 156.591356 
L 294.077355 156.356894 
L 295.029421 156.232578 
L 295.346777 155.77953 
L 295.981488 155.758912 
L 296.298843 155.35852 
L 297.250909 155.124863 
L 297.568264 154.565603 
L 297.88562 154.565603 
L 298.202975 154.367839 
L 299.155041 154.273933 
L 299.789752 154.11547 
L 300.107107 154.11547 
L 300.424463 153.81902 
L 301.376529 153.728516 
L 302.01124 153.635409 
L 302.328595 153.101106 
L 302.963306 152.836463 
L 303.280661 152.836463 
L 303.598017 152.588395 
L 303.915372 152.121977 
L 304.232727 152.121977 
L 304.550083 151.870485 
L 304.867438 151.870485 
L 305.184793 151.478581 
L 306.13686 151.377944 
L 307.088926 151.203922 
L 308.040992 151.155304 
L 308.358347 150.964106 
L 309.310413 150.854401 
L 309.627769 150.839531 
L 309.945124 150.708818 
L 310.262479 149.876145 
L 310.579835 149.72445 
L 311.531901 149.655143 
L 311.849256 149.23903 
L 312.166612 149.23903 
L 312.801322 148.267469 
L 314.070744 148.219784 
L 314.388099 147.843361 
L 315.02281 147.835854 
L 315.340165 147.674591 
L 316.609587 147.584026 
L 316.926942 147.336608 
L 318.831074 146.889601 
L 319.465785 145.928387 
L 319.78314 145.928387 
L 320.417851 145.297316 
L 320.735207 145.167877 
L 321.687273 145.156179 
L 322.004628 144.968694 
L 322.321983 144.353419 
L 322.639339 144.353419 
L 322.956694 144.044703 
L 323.591405 143.992308 
L 324.226116 143.352833 
L 324.543471 143.352833 
L 324.860826 143.20964 
L 325.178182 143.20964 
L 325.495537 143.010848 
L 325.812893 143.010848 
L 326.130248 142.836248 
L 326.447603 142.450219 
L 327.399669 142.379636 
L 328.351736 142.280682 
L 328.669091 141.850922 
L 328.986446 141.655822 
L 329.621157 141.638839 
L 329.938512 141.416545 
L 330.255868 141.416545 
L 330.573223 141.235405 
L 330.890579 141.235405 
L 331.207934 140.99756 
L 332.16 140.791864 
L 332.477355 140.271012 
L 333.112066 140.197226 
L 333.429421 139.816695 
L 333.746777 139.816695 
L 334.064132 138.917909 
L 334.381488 138.70346 
L 336.28562 138.57492 
L 338.189752 137.695466 
L 339.141818 137.685364 
L 339.459174 137.362601 
L 339.776529 137.362601 
L 340.093884 137.230665 
L 340.41124 136.909159 
L 340.728595 136.909159 
L 341.04595 136.747125 
L 341.363306 136.747125 
L 341.680661 135.449855 
L 341.998017 135.232774 
L 342.315372 135.232774 
L 342.632727 134.776823 
L 342.950083 134.776823 
L 343.267438 134.582907 
L 345.17157 134.197333 
L 345.488926 133.777798 
L 345.806281 133.777798 
L 346.123636 133.367393 
L 346.440992 133.224435 
L 346.758347 133.224435 
L 347.393058 132.629968 
L 348.345124 132.564883 
L 348.979835 132.45355 
L 349.29719 131.647396 
L 349.931901 131.544934 
L 350.566612 131.272456 
L 350.883967 131.272456 
L 351.201322 131.065053 
L 351.518678 131.065053 
L 352.470744 130.801911 
L 352.788099 130.362968 
L 353.42281 130.352764 
L 353.740165 130.225277 
L 354.057521 130.225277 
L 354.374876 129.846948 
L 354.692231 129.846948 
L 355.009587 129.064264 
L 355.644298 128.983046 
L 355.961653 128.890033 
L 356.279008 128.234903 
L 356.596364 128.234903 
L 356.913719 127.347472 
L 357.54843 127.283535 
L 357.865785 126.981138 
L 358.18314 126.981138 
L 358.500496 126.572119 
L 358.817851 126.572119 
L 359.769917 125.988802 
L 360.087273 125.867668 
L 360.404628 125.867668 
L 360.721983 125.616512 
L 361.039339 125.616512 
L 361.356694 125.464395 
L 362.626116 125.390326 
L 363.260826 124.422674 
L 363.578182 124.422674 
L 364.212893 123.886519 
L 364.530248 123.886519 
L 365.164959 122.770073 
L 365.482314 122.441534 
L 365.799669 122.441534 
L 366.117025 122.175575 
L 367.069091 121.941257 
L 367.386446 121.941257 
L 367.703802 121.502826 
L 368.973223 121.343469 
L 369.290579 120.871867 
L 369.607934 120.871867 
L 369.925289 120.354153 
L 370.242645 119.143023 
L 370.56 118.476333 
L 370.877355 118.476333 
L 371.194711 117.650127 
L 371.829421 117.597794 
L 372.146777 117.344136 
L 372.781488 117.289304 
L 373.098843 117.154298 
L 373.416198 116.568094 
L 373.733554 116.537918 
L 374.050909 116.361354 
L 374.368264 116.361354 
L 374.68562 115.73896 
L 375.002975 115.73896 
L 375.637686 114.884987 
L 375.955041 114.884987 
L 376.272397 114.258395 
L 376.589752 114.258395 
L 376.907107 113.696079 
L 377.224463 111.915608 
L 377.859174 111.820247 
L 378.176529 111.692862 
L 378.493884 111.692862 
L 378.81124 111.458025 
L 379.128595 111.458025 
L 379.44595 110.988946 
L 379.763306 109.405094 
L 380.080661 108.887305 
L 380.398017 108.887305 
L 380.715372 108.497379 
L 381.032727 107.51742 
L 381.667438 107.429322 
L 382.302149 107.344521 
L 382.93686 107.30538 
L 383.254215 106.694571 
L 383.888926 106.168932 
L 384.206281 106.168932 
L 384.523636 105.082003 
L 384.840992 105.082003 
L 385.158347 103.776691 
L 385.475702 103.776691 
L 385.793058 103.130906 
L 386.110413 101.775182 
L 386.427769 101.100935 
L 386.745124 101.100935 
L 387.062479 100.939107 
L 387.379835 99.397506 
L 387.69719 98.667206 
L 388.014545 98.667206 
L 388.331901 98.523187 
L 388.649256 97.76562 
L 388.966612 97.406162 
L 389.918678 97.352555 
L 390.553388 93.267879 
L 390.870744 93.267879 
L 391.188099 93.094412 
L 391.82281 90.967719 
L 392.140165 90.967719 
L 392.457521 89.528561 
L 392.774876 89.21529 
L 393.092231 89.21529 
L 393.409587 88.067292 
L 393.726942 88.067292 
L 394.044298 86.967791 
L 394.361653 84.20451 
L 394.679008 83.412299 
L 394.996364 83.412299 
L 395.313719 82.935125 
L 395.631074 82.737203 
L 395.94843 82.737203 
L 396.265785 76.611793 
L 396.58314 73.93368 
L 396.900496 72.916564 
L 397.217851 72.916564 
L 397.535207 62.429243 
L 397.852562 62.196876 
L 398.169917 62.196876 
L 398.487273 53.568 
L 398.487273 53.568 
" clip-path="url(#p6b45546f3b)" style="fill: none; stroke: #ff7f0e; stroke-width: 1.5; stroke-linecap: square"/>
   </g>
   <g id="patch_3">
    <path d="M 57.6 307.584 
L 57.6 41.472 
" style="fill: none; stroke: #000000; stroke-width: 0.8; stroke-linejoin: miter; stroke-linecap: square"/>
   </g>
   <g id="patch_4">
    <path d="M 414.72 307.584 
L 414.72 41.472 
" style="fill: none; stroke: #000000; stroke-width: 0.8; stroke-linejoin: miter; stroke-linecap: square"/>
   </g>
   <g id="patch_5">
    <path d="M 57.6 307.584 
L 414.72 307.584 
" style="fill: none; stroke: #000000; stroke-width: 0.8; stroke-linejoin: miter; stroke-linecap: square"/>
   </g>
   <g id="patch_6">
    <path d="M 57.6 41.472 
L 414.72 41.472 
" style="fill: none; stroke: #000000; stroke-width: 0.8; stroke-linejoin: miter; stroke-linecap: square"/>
   </g>
   <g id="legend_1">
    <g id="patch_7">
     <path d="M 64.6 78.82825 
L 129.342187 78.82825 
Q 131.342187 78.82825 131.342187 76.82825 
L 131.342187 48.472 
Q 131.342187 46.472 129.342187 46.472 
L 64.6 46.472 
Q 62.6 46.472 62.6 48.472 
L 62.6 76.82825 
Q 62.6 78.82825 64.6 78.82825 
z
" style="fill: #ffffff; opacity: 0.8; stroke: #cccccc; stroke-linejoin: miter"/>
    </g>
    <g id="line2d_16">
     <path d="M 66.6 54.570437 
L 76.6 54.570437 
L 86.6 54.570437 
" style="fill: none; stroke: #1f77b4; stroke-width: 1.5; stroke-linecap: square"/>
    </g>
    <g id="text_16">
     <!-- qc -->
     <g transform="translate(94.6 58.070437) scale(0.1 -0.1)">
      <defs>
       <path id="DejaVuSans-71" d="M 947 1747 
Q 947 1113 1208 752 
Q 1469 391 1925 391 
Q 2381 391 2643 752 
Q 2906 1113 2906 1747 
Q 2906 2381 2643 2742 
Q 2381 3103 1925 3103 
Q 1469 3103 1208 2742 
Q 947 2381 947 1747 
z
M 2906 525 
Q 2725 213 2448 61 
Q 2172 -91 1784 -91 
Q 1150 -91 751 415 
Q 353 922 353 1747 
Q 353 2572 751 3078 
Q 1150 3584 1784 3584 
Q 2172 3584 2448 3432 
Q 2725 3281 2906 2969 
L 2906 3500 
L 3481 3500 
L 3481 -1331 
L 2906 -1331 
L 2906 525 
z
" transform="scale(0.015625)"/>
       <path id="DejaVuSans-63" d="M 3122 3366 
L 3122 2828 
Q 2878 2963 2633 3030 
Q 2388 3097 2138 3097 
Q 1578 3097 1268 2742 
Q 959 2388 959 1747 
Q 959 1106 1268 751 
Q 1578 397 2138 397 
Q 2388 397 2633 464 
Q 2878 531 3122 666 
L 3122 134 
Q 2881 22 2623 -34 
Q 2366 -91 2075 -91 
Q 1284 -91 818 406 
Q 353 903 353 1747 
Q 353 2603 823 3093 
Q 1294 3584 2113 3584 
Q 2378 3584 2631 3529 
Q 2884 3475 3122 3366 
z
" transform="scale(0.015625)"/>
      </defs>
      <use xlink:href="#DejaVuSans-71"/>
      <use xlink:href="#DejaVuSans-63" x="63.476562"/>
     </g>
    </g>
    <g id="line2d_17">
     <path d="M 66.6 69.248562 
L 76.6 69.248562 
L 86.6 69.248562 
" style="fill: none; stroke: #ff7f0e; stroke-width: 1.5; stroke-linecap: square"/>
    </g>
    <g id="text_17">
     <!-- Trotter -->
     <g transform="translate(94.6 72.748562) scale(0.1 -0.1)">
      <defs>
       <path id="DejaVuSans-54" d="M -19 4666 
L 3928 4666 
L 3928 4134 
L 2272 4134 
L 2272 0 
L 1638 0 
L 1638 4134 
L -19 4134 
L -19 4666 
z
" transform="scale(0.015625)"/>
       <path id="DejaVuSans-72" d="M 2631 2963 
Q 2534 3019 2420 3045 
Q 2306 3072 2169 3072 
Q 1681 3072 1420 2755 
Q 1159 2438 1159 1844 
L 1159 0 
L 581 0 
L 581 3500 
L 1159 3500 
L 1159 2956 
Q 1341 3275 1631 3429 
Q 1922 3584 2338 3584 
Q 2397 3584 2469 3576 
Q 2541 3569 2628 3553 
L 2631 2963 
z
" transform="scale(0.015625)"/>
       <path id="DejaVuSans-6f" d="M 1959 3097 
Q 1497 3097 1228 2736 
Q 959 2375 959 1747 
Q 959 1119 1226 758 
Q 1494 397 1959 397 
Q 2419 397 2687 759 
Q 2956 1122 2956 1747 
Q 2956 2369 2687 2733 
Q 2419 3097 1959 3097 
z
M 1959 3584 
Q 2709 3584 3137 3096 
Q 3566 2609 3566 1747 
Q 3566 888 3137 398 
Q 2709 -91 1959 -91 
Q 1206 -91 779 398 
Q 353 888 353 1747 
Q 353 2609 779 3096 
Q 1206 3584 1959 3584 
z
" transform="scale(0.015625)"/>
       <path id="DejaVuSans-65" d="M 3597 1894 
L 3597 1613 
L 953 1613 
Q 991 1019 1311 708 
Q 1631 397 2203 397 
Q 2534 397 2845 478 
Q 3156 559 3463 722 
L 3463 178 
Q 3153 47 2828 -22 
Q 2503 -91 2169 -91 
Q 1331 -91 842 396 
Q 353 884 353 1716 
Q 353 2575 817 3079 
Q 1281 3584 2069 3584 
Q 2775 3584 3186 3129 
Q 3597 2675 3597 1894 
z
M 3022 2063 
Q 3016 2534 2758 2815 
Q 2500 3097 2075 3097 
Q 1594 3097 1305 2825 
Q 1016 2553 972 2059 
L 3022 2063 
z
" transform="scale(0.015625)"/>
      </defs>
      <use xlink:href="#DejaVuSans-54"/>
      <use xlink:href="#DejaVuSans-72" x="46.333984"/>
      <use xlink:href="#DejaVuSans-6f" x="85.197266"/>
      <use xlink:href="#DejaVuSans-74" x="146.378906"/>
      <use xlink:href="#DejaVuSans-74" x="185.587891"/>
      <use xlink:href="#DejaVuSans-65" x="224.796875"/>
      <use xlink:href="#DejaVuSans-72" x="286.320312"/>
     </g>
    </g>
   </g>
  </g>
 </g>
 <defs>
  <clipPath id="p6b45546f3b">
   <rect x="57.6" y="41.472" width="357.12" height="266.112"/>
  </clipPath>
 </defs>
</svg>
