<?xml version="1.0" encoding="utf-8" standalone="no"?>
<!DOCTYPE svg PUBLIC "-//W3C//DTD SVG 1.1//EN"
  "http://www.w3.org/Graphics/SVG/1.1/DTD/svg11.dtd">
<svg xmlns:xlink="http://www.w3.org/1999/xlink" width="460.8pt" height="345.6pt" viewBox="0 0 460.8 345.6" xmlns="http://www.w3.org/2000/svg" version="1.1">
 <metadata>
  <rdf:RDF xmlns:dc="http://purl.org/dc/elements/1.1/" xmlns:cc="http://creativecommons.org/ns#" xmlns:rdf="http://www.w3.org/1999/02/22-rdf-syntax-ns#">
   <cc:Work>
    <dc:type rdf:resource="http://purl.org/dc/dcmitype/StillImage"/>
    <dc:date>2024-07-14T11:33:35.956030</dc:date>
    <dc:format>image/svg+xml</dc:format>
    <dc:creator>
     <cc:Agent>
      <dc:title>Matplotlib v3.7.1, https://matplotlib.org/</dc:title>
     </cc:Agent>
    </dc:creator>
   </cc:Work>
  </rdf:RDF>
 </metadata>
 <defs>
  <style type="text/css">*{stroke-linejoin: round; stroke-linecap: butt}</style>
 </defs>
 <g id="figure_1">
  <g id="patch_1">
   <path d="M 0 345.6 
L 460.8 345.6 
L 460.8 0 
L 0 0 
z
" style="fill: #ffffff"/>
  </g>
  <g id="axes_1">
   <g id="patch_2">
    <path d="M 57.6 307.584 
L 414.72 307.584 
L 414.72 41.472 
L 57.6 41.472 
z
" style="fill: #ffffff"/>
   </g>
   <g id="matplotlib.axis_1">
    <g id="xtick_1">
     <g id="line2d_1">
      <defs>
       <path id="m49a5f42417" d="M 0 0 
L 0 3.5 
" style="stroke: #000000; stroke-width: 0.8"/>
      </defs>
      <g>
       <use xlink:href="#m49a5f42417" x="73.832727" y="307.584" style="stroke: #000000; stroke-width: 0.8"/>
      </g>
     </g>
     <g id="text_1">
      <!-- 0 -->
      <g transform="translate(70.651477 322.182437) scale(0.1 -0.1)">
       <defs>
        <path id="DejaVuSans-30" d="M 2034 4250 
Q 1547 4250 1301 3770 
Q 1056 3291 1056 2328 
Q 1056 1369 1301 889 
Q 1547 409 2034 409 
Q 2525 409 2770 889 
Q 3016 1369 3016 2328 
Q 3016 3291 2770 3770 
Q 2525 4250 2034 4250 
z
M 2034 4750 
Q 2819 4750 3233 4129 
Q 3647 3509 3647 2328 
Q 3647 1150 3233 529 
Q 2819 -91 2034 -91 
Q 1250 -91 836 529 
Q 422 1150 422 2328 
Q 422 3509 836 4129 
Q 1250 4750 2034 4750 
z
" transform="scale(0.015625)"/>
       </defs>
       <use xlink:href="#DejaVuSans-30"/>
      </g>
     </g>
    </g>
    <g id="xtick_2">
     <g id="line2d_2">
      <g>
       <use xlink:href="#m49a5f42417" x="137.303802" y="307.584" style="stroke: #000000; stroke-width: 0.8"/>
      </g>
     </g>
     <g id="text_2">
      <!-- 200 -->
      <g transform="translate(127.760052 322.182437) scale(0.1 -0.1)">
       <defs>
        <path id="DejaVuSans-32" d="M 1228 531 
L 3431 531 
L 3431 0 
L 469 0 
L 469 531 
Q 828 903 1448 1529 
Q 2069 2156 2228 2338 
Q 2531 2678 2651 2914 
Q 2772 3150 2772 3378 
Q 2772 3750 2511 3984 
Q 2250 4219 1831 4219 
Q 1534 4219 1204 4116 
Q 875 4013 500 3803 
L 500 4441 
Q 881 4594 1212 4672 
Q 1544 4750 1819 4750 
Q 2544 4750 2975 4387 
Q 3406 4025 3406 3419 
Q 3406 3131 3298 2873 
Q 3191 2616 2906 2266 
Q 2828 2175 2409 1742 
Q 1991 1309 1228 531 
z
" transform="scale(0.015625)"/>
       </defs>
       <use xlink:href="#DejaVuSans-32"/>
       <use xlink:href="#DejaVuSans-30" x="63.623047"/>
       <use xlink:href="#DejaVuSans-30" x="127.246094"/>
      </g>
     </g>
    </g>
    <g id="xtick_3">
     <g id="line2d_3">
      <g>
       <use xlink:href="#m49a5f42417" x="200.774876" y="307.584" style="stroke: #000000; stroke-width: 0.8"/>
      </g>
     </g>
     <g id="text_3">
      <!-- 400 -->
      <g transform="translate(191.231126 322.182437) scale(0.1 -0.1)">
       <defs>
        <path id="DejaVuSans-34" d="M 2419 4116 
L 825 1625 
L 2419 1625 
L 2419 4116 
z
M 2253 4666 
L 3047 4666 
L 3047 1625 
L 3713 1625 
L 3713 1100 
L 3047 1100 
L 3047 0 
L 2419 0 
L 2419 1100 
L 313 1100 
L 313 1709 
L 2253 4666 
z
" transform="scale(0.015625)"/>
       </defs>
       <use xlink:href="#DejaVuSans-34"/>
       <use xlink:href="#DejaVuSans-30" x="63.623047"/>
       <use xlink:href="#DejaVuSans-30" x="127.246094"/>
      </g>
     </g>
    </g>
    <g id="xtick_4">
     <g id="line2d_4">
      <g>
       <use xlink:href="#m49a5f42417" x="264.24595" y="307.584" style="stroke: #000000; stroke-width: 0.8"/>
      </g>
     </g>
     <g id="text_4">
      <!-- 600 -->
      <g transform="translate(254.7022 322.182437) scale(0.1 -0.1)">
       <defs>
        <path id="DejaVuSans-36" d="M 2113 2584 
Q 1688 2584 1439 2293 
Q 1191 2003 1191 1497 
Q 1191 994 1439 701 
Q 1688 409 2113 409 
Q 2538 409 2786 701 
Q 3034 994 3034 1497 
Q 3034 2003 2786 2293 
Q 2538 2584 2113 2584 
z
M 3366 4563 
L 3366 3988 
Q 3128 4100 2886 4159 
Q 2644 4219 2406 4219 
Q 1781 4219 1451 3797 
Q 1122 3375 1075 2522 
Q 1259 2794 1537 2939 
Q 1816 3084 2150 3084 
Q 2853 3084 3261 2657 
Q 3669 2231 3669 1497 
Q 3669 778 3244 343 
Q 2819 -91 2113 -91 
Q 1303 -91 875 529 
Q 447 1150 447 2328 
Q 447 3434 972 4092 
Q 1497 4750 2381 4750 
Q 2619 4750 2861 4703 
Q 3103 4656 3366 4563 
z
" transform="scale(0.015625)"/>
       </defs>
       <use xlink:href="#DejaVuSans-36"/>
       <use xlink:href="#DejaVuSans-30" x="63.623047"/>
       <use xlink:href="#DejaVuSans-30" x="127.246094"/>
      </g>
     </g>
    </g>
    <g id="xtick_5">
     <g id="line2d_5">
      <g>
       <use xlink:href="#m49a5f42417" x="327.717025" y="307.584" style="stroke: #000000; stroke-width: 0.8"/>
      </g>
     </g>
     <g id="text_5">
      <!-- 800 -->
      <g transform="translate(318.173275 322.182437) scale(0.1 -0.1)">
       <defs>
        <path id="DejaVuSans-38" d="M 2034 2216 
Q 1584 2216 1326 1975 
Q 1069 1734 1069 1313 
Q 1069 891 1326 650 
Q 1584 409 2034 409 
Q 2484 409 2743 651 
Q 3003 894 3003 1313 
Q 3003 1734 2745 1975 
Q 2488 2216 2034 2216 
z
M 1403 2484 
Q 997 2584 770 2862 
Q 544 3141 544 3541 
Q 544 4100 942 4425 
Q 1341 4750 2034 4750 
Q 2731 4750 3128 4425 
Q 3525 4100 3525 3541 
Q 3525 3141 3298 2862 
Q 3072 2584 2669 2484 
Q 3125 2378 3379 2068 
Q 3634 1759 3634 1313 
Q 3634 634 3220 271 
Q 2806 -91 2034 -91 
Q 1263 -91 848 271 
Q 434 634 434 1313 
Q 434 1759 690 2068 
Q 947 2378 1403 2484 
z
M 1172 3481 
Q 1172 3119 1398 2916 
Q 1625 2713 2034 2713 
Q 2441 2713 2670 2916 
Q 2900 3119 2900 3481 
Q 2900 3844 2670 4047 
Q 2441 4250 2034 4250 
Q 1625 4250 1398 4047 
Q 1172 3844 1172 3481 
z
" transform="scale(0.015625)"/>
       </defs>
       <use xlink:href="#DejaVuSans-38"/>
       <use xlink:href="#DejaVuSans-30" x="63.623047"/>
       <use xlink:href="#DejaVuSans-30" x="127.246094"/>
      </g>
     </g>
    </g>
    <g id="xtick_6">
     <g id="line2d_6">
      <g>
       <use xlink:href="#m49a5f42417" x="391.188099" y="307.584" style="stroke: #000000; stroke-width: 0.8"/>
      </g>
     </g>
     <g id="text_6">
      <!-- 1000 -->
      <g transform="translate(378.463099 322.182437) scale(0.1 -0.1)">
       <defs>
        <path id="DejaVuSans-31" d="M 794 531 
L 1825 531 
L 1825 4091 
L 703 3866 
L 703 4441 
L 1819 4666 
L 2450 4666 
L 2450 531 
L 3481 531 
L 3481 0 
L 794 0 
L 794 531 
z
" transform="scale(0.015625)"/>
       </defs>
       <use xlink:href="#DejaVuSans-31"/>
       <use xlink:href="#DejaVuSans-30" x="63.623047"/>
       <use xlink:href="#DejaVuSans-30" x="127.246094"/>
       <use xlink:href="#DejaVuSans-30" x="190.869141"/>
      </g>
     </g>
    </g>
    <g id="text_7">
     <!-- n -->
     <g transform="translate(232.99125 335.860562) scale(0.1 -0.1)">
      <defs>
       <path id="DejaVuSans-6e" d="M 3513 2113 
L 3513 0 
L 2938 0 
L 2938 2094 
Q 2938 2591 2744 2837 
Q 2550 3084 2163 3084 
Q 1697 3084 1428 2787 
Q 1159 2491 1159 1978 
L 1159 0 
L 581 0 
L 581 3500 
L 1159 3500 
L 1159 2956 
Q 1366 3272 1645 3428 
Q 1925 3584 2291 3584 
Q 2894 3584 3203 3211 
Q 3513 2838 3513 2113 
z
" transform="scale(0.015625)"/>
      </defs>
      <use xlink:href="#DejaVuSans-6e"/>
     </g>
    </g>
   </g>
   <g id="matplotlib.axis_2">
    <g id="ytick_1">
     <g id="line2d_7">
      <defs>
       <path id="mbc23e7825d" d="M 0 0 
L -3.5 0 
" style="stroke: #000000; stroke-width: 0.8"/>
      </defs>
      <g>
       <use xlink:href="#mbc23e7825d" x="57.6" y="303.401738" style="stroke: #000000; stroke-width: 0.8"/>
      </g>
     </g>
     <g id="text_8">
      <!-- −1.5 -->
      <g transform="translate(26.317187 307.200956) scale(0.1 -0.1)">
       <defs>
        <path id="DejaVuSans-2212" d="M 678 2272 
L 4684 2272 
L 4684 1741 
L 678 1741 
L 678 2272 
z
" transform="scale(0.015625)"/>
        <path id="DejaVuSans-2e" d="M 684 794 
L 1344 794 
L 1344 0 
L 684 0 
L 684 794 
z
" transform="scale(0.015625)"/>
        <path id="DejaVuSans-35" d="M 691 4666 
L 3169 4666 
L 3169 4134 
L 1269 4134 
L 1269 2991 
Q 1406 3038 1543 3061 
Q 1681 3084 1819 3084 
Q 2600 3084 3056 2656 
Q 3513 2228 3513 1497 
Q 3513 744 3044 326 
Q 2575 -91 1722 -91 
Q 1428 -91 1123 -41 
Q 819 9 494 109 
L 494 744 
Q 775 591 1075 516 
Q 1375 441 1709 441 
Q 2250 441 2565 725 
Q 2881 1009 2881 1497 
Q 2881 1984 2565 2268 
Q 2250 2553 1709 2553 
Q 1456 2553 1204 2497 
Q 953 2441 691 2322 
L 691 4666 
z
" transform="scale(0.015625)"/>
       </defs>
       <use xlink:href="#DejaVuSans-2212"/>
       <use xlink:href="#DejaVuSans-31" x="83.789062"/>
       <use xlink:href="#DejaVuSans-2e" x="147.412109"/>
       <use xlink:href="#DejaVuSans-35" x="179.199219"/>
      </g>
     </g>
    </g>
    <g id="ytick_2">
     <g id="line2d_8">
      <g>
       <use xlink:href="#mbc23e7825d" x="57.6" y="273.327738" style="stroke: #000000; stroke-width: 0.8"/>
      </g>
     </g>
     <g id="text_9">
      <!-- −1.0 -->
      <g transform="translate(26.317187 277.126957) scale(0.1 -0.1)">
       <use xlink:href="#DejaVuSans-2212"/>
       <use xlink:href="#DejaVuSans-31" x="83.789062"/>
       <use xlink:href="#DejaVuSans-2e" x="147.412109"/>
       <use xlink:href="#DejaVuSans-30" x="179.199219"/>
      </g>
     </g>
    </g>
    <g id="ytick_3">
     <g id="line2d_9">
      <g>
       <use xlink:href="#mbc23e7825d" x="57.6" y="243.253739" style="stroke: #000000; stroke-width: 0.8"/>
      </g>
     </g>
     <g id="text_10">
      <!-- −0.5 -->
      <g transform="translate(26.317187 247.052957) scale(0.1 -0.1)">
       <use xlink:href="#DejaVuSans-2212"/>
       <use xlink:href="#DejaVuSans-30" x="83.789062"/>
       <use xlink:href="#DejaVuSans-2e" x="147.412109"/>
       <use xlink:href="#DejaVuSans-35" x="179.199219"/>
      </g>
     </g>
    </g>
    <g id="ytick_4">
     <g id="line2d_10">
      <g>
       <use xlink:href="#mbc23e7825d" x="57.6" y="213.179739" style="stroke: #000000; stroke-width: 0.8"/>
      </g>
     </g>
     <g id="text_11">
      <!-- 0.0 -->
      <g transform="translate(34.696875 216.978958) scale(0.1 -0.1)">
       <use xlink:href="#DejaVuSans-30"/>
       <use xlink:href="#DejaVuSans-2e" x="63.623047"/>
       <use xlink:href="#DejaVuSans-30" x="95.410156"/>
      </g>
     </g>
    </g>
    <g id="ytick_5">
     <g id="line2d_11">
      <g>
       <use xlink:href="#mbc23e7825d" x="57.6" y="183.105739" style="stroke: #000000; stroke-width: 0.8"/>
      </g>
     </g>
     <g id="text_12">
      <!-- 0.5 -->
      <g transform="translate(34.696875 186.904958) scale(0.1 -0.1)">
       <use xlink:href="#DejaVuSans-30"/>
       <use xlink:href="#DejaVuSans-2e" x="63.623047"/>
       <use xlink:href="#DejaVuSans-35" x="95.410156"/>
      </g>
     </g>
    </g>
    <g id="ytick_6">
     <g id="line2d_12">
      <g>
       <use xlink:href="#mbc23e7825d" x="57.6" y="153.03174" style="stroke: #000000; stroke-width: 0.8"/>
      </g>
     </g>
     <g id="text_13">
      <!-- 1.0 -->
      <g transform="translate(34.696875 156.830959) scale(0.1 -0.1)">
       <use xlink:href="#DejaVuSans-31"/>
       <use xlink:href="#DejaVuSans-2e" x="63.623047"/>
       <use xlink:href="#DejaVuSans-30" x="95.410156"/>
      </g>
     </g>
    </g>
    <g id="ytick_7">
     <g id="line2d_13">
      <g>
       <use xlink:href="#mbc23e7825d" x="57.6" y="122.95774" style="stroke: #000000; stroke-width: 0.8"/>
      </g>
     </g>
     <g id="text_14">
      <!-- 1.5 -->
      <g transform="translate(34.696875 126.756959) scale(0.1 -0.1)">
       <use xlink:href="#DejaVuSans-31"/>
       <use xlink:href="#DejaVuSans-2e" x="63.623047"/>
       <use xlink:href="#DejaVuSans-35" x="95.410156"/>
      </g>
     </g>
    </g>
    <g id="ytick_8">
     <g id="line2d_14">
      <g>
       <use xlink:href="#mbc23e7825d" x="57.6" y="92.883741" style="stroke: #000000; stroke-width: 0.8"/>
      </g>
     </g>
     <g id="text_15">
      <!-- 2.0 -->
      <g transform="translate(34.696875 96.682959) scale(0.1 -0.1)">
       <use xlink:href="#DejaVuSans-32"/>
       <use xlink:href="#DejaVuSans-2e" x="63.623047"/>
       <use xlink:href="#DejaVuSans-30" x="95.410156"/>
      </g>
     </g>
    </g>
    <g id="ytick_9">
     <g id="line2d_15">
      <g>
       <use xlink:href="#mbc23e7825d" x="57.6" y="62.809741" style="stroke: #000000; stroke-width: 0.8"/>
      </g>
     </g>
     <g id="text_16">
      <!-- 2.5 -->
      <g transform="translate(34.696875 66.60896) scale(0.1 -0.1)">
       <use xlink:href="#DejaVuSans-32"/>
       <use xlink:href="#DejaVuSans-2e" x="63.623047"/>
       <use xlink:href="#DejaVuSans-35" x="95.410156"/>
      </g>
     </g>
    </g>
    <g id="text_17">
     <!-- E*t -->
     <g transform="translate(20.2375 182.147531) rotate(-90) scale(0.1 -0.1)">
      <defs>
       <path id="DejaVuSans-45" d="M 628 4666 
L 3578 4666 
L 3578 4134 
L 1259 4134 
L 1259 2753 
L 3481 2753 
L 3481 2222 
L 1259 2222 
L 1259 531 
L 3634 531 
L 3634 0 
L 628 0 
L 628 4666 
z
" transform="scale(0.015625)"/>
       <path id="DejaVuSans-2a" d="M 3009 3897 
L 1888 3291 
L 3009 2681 
L 2828 2375 
L 1778 3009 
L 1778 1831 
L 1422 1831 
L 1422 3009 
L 372 2375 
L 191 2681 
L 1313 3291 
L 191 3897 
L 372 4206 
L 1422 3572 
L 1422 4750 
L 1778 4750 
L 1778 3572 
L 2828 4206 
L 3009 3897 
z
" transform="scale(0.015625)"/>
       <path id="DejaVuSans-74" d="M 1172 4494 
L 1172 3500 
L 2356 3500 
L 2356 3053 
L 1172 3053 
L 1172 1153 
Q 1172 725 1289 603 
Q 1406 481 1766 481 
L 2356 481 
L 2356 0 
L 1766 0 
Q 1100 0 847 248 
Q 594 497 594 1153 
L 594 3053 
L 172 3053 
L 172 3500 
L 594 3500 
L 594 4494 
L 1172 4494 
z
" transform="scale(0.015625)"/>
      </defs>
      <use xlink:href="#DejaVuSans-45"/>
      <use xlink:href="#DejaVuSans-2a" x="63.183594"/>
      <use xlink:href="#DejaVuSans-74" x="113.183594"/>
     </g>
    </g>
   </g>
   <g id="line2d_16">
    <path d="M 73.832727 284.389878 
L 75.102149 283.342483 
L 75.419504 283.141614 
L 75.73686 283.095814 
L 76.37157 282.381823 
L 77.006281 281.421168 
L 77.323636 281.352945 
L 77.958347 280.264028 
L 78.275702 280.117157 
L 78.593058 279.458074 
L 78.910413 278.530247 
L 79.545124 278.147117 
L 80.49719 277.798207 
L 80.814545 277.01716 
L 82.083967 276.111452 
L 82.401322 276.04473 
L 82.718678 275.723213 
L 83.353388 275.35669 
L 83.670744 274.930596 
L 84.940165 274.423761 
L 86.209587 273.254762 
L 86.526942 273.005452 
L 87.796364 272.662606 
L 89.065785 271.541059 
L 89.38314 271.367025 
L 89.700496 270.676991 
L 90.335207 270.284128 
L 90.652562 269.938875 
L 90.969917 269.918315 
L 91.287273 269.563457 
L 92.556694 269.052055 
L 92.87405 268.547313 
L 93.50876 268.385712 
L 94.143471 268.120908 
L 94.460826 268.075127 
L 95.095537 267.698741 
L 95.412893 267.248796 
L 96.999669 266.624888 
L 97.951736 266.21525 
L 98.269091 266.091047 
L 98.586446 265.48248 
L 98.903802 265.285597 
L 99.221157 264.755353 
L 100.807934 264.433025 
L 101.76 263.785723 
L 103.029421 263.136413 
L 103.346777 262.859984 
L 103.664132 262.804581 
L 104.933554 261.956987 
L 105.250909 261.643945 
L 106.520331 261.118151 
L 106.837686 260.295763 
L 107.155041 260.271985 
L 108.107107 259.772775 
L 108.741818 259.607475 
L 109.693884 259.130734 
L 110.328595 258.701758 
L 110.963306 258.457558 
L 111.915372 258.084055 
L 112.232727 257.889355 
L 112.550083 257.841009 
L 113.502149 257.053546 
L 114.13686 256.89771 
L 114.454215 256.778304 
L 115.088926 256.386532 
L 116.040992 255.98126 
L 116.358347 255.750554 
L 116.993058 255.570639 
L 117.310413 255.109079 
L 117.627769 254.887382 
L 119.214545 254.583341 
L 119.531901 254.32078 
L 119.849256 254.220101 
L 120.483967 253.512949 
L 121.118678 253.089571 
L 122.070744 252.800218 
L 122.705455 252.288262 
L 123.02281 251.711402 
L 124.926942 251.154414 
L 125.244298 250.781054 
L 125.561653 250.642862 
L 125.879008 250.304183 
L 126.196364 250.250681 
L 126.831074 249.637958 
L 127.14843 249.490195 
L 127.465785 249.01549 
L 127.78314 248.949771 
L 128.100496 248.757912 
L 129.369917 248.541462 
L 130.321983 248.139165 
L 130.956694 248.00181 
L 132.226116 247.712752 
L 133.178182 247.456552 
L 133.495537 247.220252 
L 134.130248 247.16237 
L 134.447603 246.927619 
L 135.082314 246.82717 
L 135.717025 246.617656 
L 136.669091 246.438703 
L 138.255868 245.47515 
L 138.890579 245.268454 
L 139.842645 244.874409 
L 140.16 244.737593 
L 140.477355 244.417596 
L 141.112066 244.169074 
L 142.064132 243.681163 
L 142.698843 243.074747 
L 143.016198 243.053581 
L 143.333554 242.866639 
L 143.650909 242.81987 
L 144.920331 242.268801 
L 147.141818 241.626032 
L 147.459174 241.145469 
L 147.776529 240.884913 
L 148.41124 240.810557 
L 149.04595 240.67327 
L 149.680661 240.575325 
L 149.998017 238.859654 
L 150.632727 238.529949 
L 151.902149 237.9778 
L 152.219504 237.875292 
L 152.53686 237.605151 
L 153.17157 237.426841 
L 153.488926 237.249209 
L 153.806281 237.237871 
L 154.440992 236.991043 
L 156.662479 236.471399 
L 157.29719 236.287726 
L 157.931901 236.219328 
L 158.249256 236.053411 
L 158.566612 235.740893 
L 159.201322 235.459053 
L 159.518678 234.739405 
L 160.470744 234.256475 
L 161.105455 234.169932 
L 161.42281 233.891627 
L 162.374876 233.719563 
L 163.009587 233.505352 
L 163.961653 233.308914 
L 164.596364 232.876718 
L 164.913719 232.819544 
L 165.231074 232.288019 
L 165.865785 231.680421 
L 167.135207 231.189998 
L 167.769917 230.872392 
L 168.404628 230.536574 
L 168.721983 230.120565 
L 169.039339 230.069624 
L 169.356694 229.808721 
L 171.260826 229.307545 
L 172.530248 228.010071 
L 176.655868 226.836235 
L 178.242645 226.437236 
L 178.56 226.208473 
L 179.829421 225.994251 
L 180.464132 225.598347 
L 180.781488 225.548401 
L 181.416198 225.230962 
L 181.733554 225.173811 
L 182.050909 224.663784 
L 183.002975 224.380476 
L 184.589752 224.038164 
L 185.541818 223.321104 
L 186.176529 223.061032 
L 188.080661 222.604495 
L 188.398017 222.275189 
L 189.032727 222.164493 
L 189.350083 221.871192 
L 189.667438 221.831337 
L 189.984793 221.58521 
L 190.302149 221.507785 
L 190.619504 220.667746 
L 191.254215 220.504217 
L 191.888926 220.315639 
L 192.206281 219.867122 
L 193.158347 219.543116 
L 194.427769 219.343267 
L 195.69719 219.189726 
L 197.601322 218.877238 
L 197.918678 218.480299 
L 198.553388 218.205721 
L 198.870744 217.962419 
L 199.188099 217.537901 
L 207.121983 215.201 
L 208.07405 214.657229 
L 208.391405 214.584723 
L 208.70876 214.375901 
L 209.026116 214.341822 
L 210.930248 213.47466 
L 211.564959 213.339323 
L 211.882314 213.314017 
L 212.83438 212.967611 
L 213.786446 212.760801 
L 214.103802 212.478839 
L 214.421157 212.435873 
L 214.738512 212.211529 
L 216.642645 211.662703 
L 217.277355 211.296458 
L 217.912066 211.095739 
L 219.181488 210.876524 
L 219.498843 210.42415 
L 219.816198 209.603789 
L 222.037686 209.004801 
L 222.672397 208.861032 
L 223.307107 208.605695 
L 229.97157 206.86733 
L 231.240992 206.469516 
L 234.414545 205.628829 
L 235.049256 205.431806 
L 237.588099 204.536706 
L 238.22281 204.278819 
L 238.540165 203.753729 
L 241.079008 203.085672 
L 241.396364 202.880427 
L 242.665785 202.547824 
L 243.300496 202.394167 
L 245.521983 201.730924 
L 246.156694 201.649002 
L 246.47405 201.516764 
L 247.10876 200.779283 
L 248.060826 200.45868 
L 249.330248 200.106753 
L 249.647603 199.937969 
L 251.551736 199.62696 
L 252.186446 199.331643 
L 252.821157 199.023013 
L 253.138512 198.66995 
L 254.407934 198.264066 
L 254.725289 198.166123 
L 255.042645 197.585978 
L 255.36 197.326936 
L 256.312066 197.128376 
L 256.629421 196.941751 
L 257.898843 196.742035 
L 258.850909 196.403081 
L 259.48562 196.286236 
L 260.120331 196.046159 
L 260.755041 195.576429 
L 261.389752 195.404547 
L 262.024463 195.195211 
L 263.293884 194.850632 
L 264.563306 194.518098 
L 265.198017 194.467882 
L 265.832727 194.24747 
L 266.467438 194.100275 
L 267.419504 193.768206 
L 267.73686 193.493604 
L 268.37157 193.315345 
L 268.688926 193.172667 
L 269.006281 192.85059 
L 270.910413 192.355251 
L 271.545124 192.102265 
L 272.179835 191.970419 
L 272.49719 191.666575 
L 275.353388 190.849843 
L 275.670744 189.972014 
L 276.62281 189.801428 
L 277.257521 189.671178 
L 277.892231 189.532814 
L 278.526942 188.961086 
L 279.479008 188.852913 
L 279.796364 188.644265 
L 280.113719 188.172883 
L 282.335207 187.540493 
L 282.652562 187.184957 
L 283.604628 186.975996 
L 284.239339 186.811035 
L 284.556694 185.713036 
L 285.50876 185.5887 
L 286.460826 185.195485 
L 289.63438 184.1166 
L 290.269091 183.899851 
L 291.221157 183.745643 
L 291.855868 183.439066 
L 293.442645 183.14107 
L 293.76 182.898444 
L 295.029421 182.534763 
L 295.346777 182.075862 
L 297.250909 181.050329 
L 297.568264 180.591507 
L 298.202975 180.278195 
L 300.424463 179.598152 
L 301.059174 179.441187 
L 302.01124 179.125673 
L 302.328595 178.578863 
L 302.963306 178.216645 
L 303.280661 178.118199 
L 303.598017 177.863134 
L 303.915372 177.442497 
L 304.232727 177.371329 
L 304.550083 177.117155 
L 304.867438 177.011052 
L 305.184793 176.585576 
L 309.310413 175.741743 
L 309.945124 175.53829 
L 310.262479 174.759532 
L 310.579835 174.487691 
L 311.531901 174.191211 
L 311.849256 173.77611 
L 312.166612 173.690315 
L 312.801322 172.607584 
L 314.070744 172.395754 
L 314.388099 172.117148 
L 315.02281 171.957899 
L 316.609587 171.604262 
L 316.926942 171.339615 
L 317.561653 171.212016 
L 317.879008 170.900792 
L 318.831074 170.688654 
L 319.465785 169.728091 
L 319.78314 169.541928 
L 320.417851 168.846026 
L 321.052562 168.6698 
L 321.687273 168.562174 
L 322.004628 168.344719 
L 322.321983 167.739857 
L 323.591405 166.990438 
L 324.226116 166.382261 
L 324.860826 166.213771 
L 325.178182 166.167019 
L 325.812893 165.879213 
L 327.399669 165.092725 
L 328.03438 164.988298 
L 329.303802 164.175239 
L 330.573223 163.83182 
L 330.890579 163.497138 
L 331.842645 163.28202 
L 332.16 163.1308 
L 332.477355 162.60951 
L 333.112066 162.353349 
L 333.429421 161.977635 
L 333.746777 161.826828 
L 334.064132 160.758549 
L 336.602975 160.187258 
L 337.237686 159.830586 
L 338.189752 159.348911 
L 339.776529 158.8481 
L 341.04595 158.061583 
L 341.363306 157.903203 
L 341.680661 156.464512 
L 341.998017 156.320659 
L 343.267438 155.341861 
L 344.219504 155.150751 
L 344.53686 155.128982 
L 344.854215 154.875239 
L 345.17157 154.77022 
L 345.488926 154.347351 
L 345.806281 154.270924 
L 346.123636 153.843204 
L 346.758347 153.585506 
L 347.393058 152.964229 
L 348.662479 152.737243 
L 348.979835 152.520051 
L 349.29719 151.749257 
L 350.566612 151.232347 
L 351.201322 150.958672 
L 352.153388 150.597697 
L 353.105455 150.136792 
L 354.057521 149.702913 
L 354.374876 149.341397 
L 354.692231 149.248727 
L 355.009587 148.528198 
L 355.961653 148.135066 
L 356.279008 147.396226 
L 356.596364 147.23832 
L 356.913719 146.193043 
L 357.54843 146.166318 
L 357.865785 145.8801 
L 358.18314 145.810823 
L 358.500496 145.295362 
L 359.135207 145.08818 
L 360.087273 144.408636 
L 360.404628 144.334613 
L 361.039339 143.975598 
L 361.67405 143.858845 
L 362.626116 143.698679 
L 363.260826 142.565398 
L 363.578182 142.46093 
L 364.530248 141.881226 
L 365.164959 140.494271 
L 365.482314 140.128473 
L 365.799669 140.051845 
L 366.117025 139.750004 
L 367.386446 139.377675 
L 367.703802 138.930787 
L 368.338512 138.772589 
L 368.973223 138.553114 
L 369.607934 138.124828 
L 369.925289 137.37442 
L 370.56 135.145372 
L 370.877355 134.934577 
L 371.194711 134.12744 
L 371.829421 133.964448 
L 372.146777 133.683727 
L 373.098843 133.340456 
L 373.416198 132.77108 
L 374.368264 132.332992 
L 374.68562 131.664263 
L 375.002975 131.605796 
L 375.637686 130.619543 
L 375.955041 130.487158 
L 376.272397 129.783614 
L 376.589752 129.645483 
L 376.907107 129.074736 
L 377.224463 127.119884 
L 378.493884 126.462434 
L 379.128595 126.241167 
L 379.44595 125.555139 
L 379.763306 123.750951 
L 380.080661 123.137745 
L 380.398017 122.903699 
L 380.715372 122.465293 
L 381.032727 121.421396 
L 382.302149 121.051392 
L 382.619504 120.881124 
L 382.93686 120.859488 
L 383.57157 119.953198 
L 383.888926 119.666448 
L 384.206281 119.583447 
L 384.523636 118.327833 
L 384.840992 118.210982 
L 385.158347 116.746541 
L 385.475702 116.591933 
L 385.793058 115.649136 
L 386.110413 114.196603 
L 386.427769 113.37116 
L 387.062479 112.998256 
L 387.379835 111.108025 
L 387.69719 110.285391 
L 388.331901 109.958246 
L 388.649256 109.100222 
L 388.966612 108.761663 
L 389.918678 108.46978 
L 390.553388 103.528216 
L 391.188099 103.114988 
L 391.82281 100.623884 
L 392.140165 100.526394 
L 392.457521 98.728152 
L 392.774876 98.370958 
L 393.092231 98.196321 
L 393.409587 96.913941 
L 393.726942 96.762121 
L 394.044298 95.518935 
L 394.361653 92.052949 
L 394.679008 91.075683 
L 394.996364 90.950929 
L 395.313719 90.39994 
L 395.94843 90.083014 
L 396.265785 82.482465 
L 396.58314 79.121894 
L 396.900496 77.888156 
L 397.217851 77.740971 
L 397.535207 64.90821 
L 397.852562 64.409601 
L 398.169917 64.164744 
L 398.487273 53.568 
L 398.487273 53.568 
" clip-path="url(#p11466bf2e9)" style="fill: none; stroke: #1f77b4; stroke-width: 1.5; stroke-linecap: square"/>
   </g>
   <g id="line2d_17">
    <path d="M 73.832727 295.488 
L 74.150083 295.488 
L 74.467438 295.043651 
L 74.784793 295.043651 
L 75.102149 294.435775 
L 75.419504 294.435775 
L 76.37157 294.083542 
L 76.688926 292.901307 
L 77.006281 292.901307 
L 77.323636 292.411036 
L 77.640992 292.411036 
L 77.958347 291.428725 
L 78.275702 291.428725 
L 78.593058 291.076149 
L 78.910413 289.699272 
L 79.227769 289.699272 
L 79.545124 289.354562 
L 80.49719 289.280446 
L 80.814545 288.20713 
L 81.131901 288.074685 
L 81.449256 288.074685 
L 81.766612 287.438012 
L 82.718678 287.422076 
L 83.036033 286.825929 
L 83.353388 286.825929 
L 83.670744 286.308666 
L 83.988099 286.099984 
L 84.305455 286.099984 
L 84.62281 285.868678 
L 84.940165 285.868678 
L 85.257521 285.599605 
L 85.574876 284.891989 
L 86.209587 284.813564 
L 86.526942 284.225106 
L 87.479008 284.150321 
L 87.796364 283.931663 
L 88.113719 283.931663 
L 88.431074 283.358547 
L 88.74843 283.029604 
L 89.065785 283.029604 
L 89.38314 282.719393 
L 89.700496 282.007623 
L 90.017851 282.007623 
L 90.335207 281.44124 
L 90.969917 281.352036 
L 91.287273 280.779337 
L 92.556694 280.689602 
L 92.87405 279.772769 
L 93.826116 279.656644 
L 94.143471 279.517654 
L 94.460826 279.517654 
L 94.778182 279.297682 
L 95.095537 279.297682 
L 95.412893 278.361897 
L 95.730248 278.361897 
L 96.047603 278.140088 
L 96.999669 278.097977 
L 97.951736 277.858246 
L 98.269091 277.605278 
L 98.586446 276.752425 
L 98.903802 276.752425 
L 99.221157 276.098821 
L 100.173223 275.9921 
L 100.490579 275.794662 
L 100.807934 275.794662 
L 101.125289 275.594188 
L 101.442645 275.594188 
L 102.077355 274.903792 
L 102.712066 274.892324 
L 103.029421 274.3328 
L 103.346777 274.3328 
L 103.664132 274.192577 
L 103.981488 274.192577 
L 104.616198 273.429117 
L 104.933554 273.429117 
L 105.568264 272.796663 
L 105.88562 272.796663 
L 106.202975 272.600728 
L 106.520331 272.600728 
L 106.837686 271.511862 
L 107.789752 271.44079 
L 108.107107 271.44079 
L 108.424463 271.054653 
L 109.059174 271.004532 
L 109.376529 270.6058 
L 109.693884 270.6058 
L 110.01124 270.089602 
L 110.328595 270.089602 
L 110.64595 269.750967 
L 111.280661 269.650069 
L 111.598017 269.506733 
L 112.232727 269.412137 
L 112.550083 269.243558 
L 112.867438 269.243558 
L 113.184793 268.534093 
L 114.13686 268.478061 
L 114.454215 268.097162 
L 115.406281 267.588975 
L 115.723636 267.588975 
L 116.040992 267.263364 
L 116.358347 267.263364 
L 116.675702 267.094315 
L 116.993058 267.094315 
L 117.310413 266.142665 
L 118.579835 266.104283 
L 119.849256 265.882039 
L 120.166612 265.20339 
L 120.483967 265.20339 
L 120.801322 264.569973 
L 121.118678 264.569973 
L 121.436033 264.249415 
L 121.753388 264.249415 
L 122.070744 264.128302 
L 122.388099 264.128302 
L 123.340165 262.861416 
L 123.974876 262.848174 
L 124.292231 262.707203 
L 124.926942 262.700608 
L 125.244298 262.205081 
L 125.561653 262.205081 
L 125.879008 261.757731 
L 126.196364 261.757731 
L 126.513719 261.051212 
L 127.14843 261.007126 
L 127.465785 260.168431 
L 129.052562 260.154484 
L 129.687273 259.652393 
L 131.27405 259.447793 
L 131.591405 259.092744 
L 132.226116 259.005529 
L 133.178182 258.918018 
L 133.495537 258.918018 
L 134.764959 258.246257 
L 135.399669 258.222137 
L 135.717025 257.981145 
L 136.669091 257.977168 
L 136.986446 257.618083 
L 137.303802 257.618083 
L 137.621157 257.406988 
L 137.938512 256.904131 
L 138.573223 256.748619 
L 138.890579 256.748619 
L 139.207934 256.534779 
L 139.525289 256.534779 
L 139.842645 256.269709 
L 140.16 256.269709 
L 140.477355 255.557087 
L 141.429421 255.498487 
L 141.746777 255.357027 
L 142.064132 254.981009 
L 142.381488 254.981009 
L 142.698843 254.372182 
L 143.333554 254.371455 
L 143.650909 254.220555 
L 143.968264 254.220555 
L 144.28562 253.870985 
L 144.602975 253.689517 
L 145.555041 253.604758 
L 146.189752 253.361155 
L 146.507107 253.361155 
L 146.824463 253.089612 
L 147.141818 253.089612 
L 147.776529 252.251196 
L 149.363306 252.150005 
L 149.680661 252.080655 
L 149.998017 250.091702 
L 150.315372 250.091702 
L 150.950083 249.688982 
L 151.267438 249.688982 
L 151.584793 249.336387 
L 152.219504 249.29235 
L 152.854215 248.941623 
L 153.17157 248.941623 
L 153.488926 248.563459 
L 154.440992 248.339403 
L 154.758347 248.339403 
L 155.393058 248.180561 
L 155.710413 248.180561 
L 156.027769 247.861499 
L 158.249256 247.700688 
L 158.566612 247.022135 
L 159.201322 247.012788 
L 159.518678 245.943766 
L 160.153388 245.913771 
L 160.470744 245.597975 
L 160.788099 245.593468 
L 161.105455 245.345935 
L 162.057521 245.297954 
L 162.374876 245.027269 
L 163.326942 244.974903 
L 163.644298 244.690973 
L 163.961653 244.690973 
L 164.279008 244.467604 
L 164.596364 244.467604 
L 164.913719 244.32357 
L 165.231074 243.480094 
L 165.54843 243.480094 
L 165.865785 243.0102 
L 166.500496 242.93432 
L 166.817851 242.907512 
L 167.135207 242.465757 
L 167.769917 242.366564 
L 168.087273 241.979408 
L 168.404628 241.979408 
L 169.039339 241.310162 
L 169.356694 241.310162 
L 169.67405 240.957182 
L 170.943471 240.927898 
L 171.260826 240.423089 
L 171.578182 240.278151 
L 171.895537 240.278151 
L 172.212893 239.621225 
L 172.530248 239.621225 
L 172.847603 239.117111 
L 173.799669 239.022091 
L 174.117025 238.876527 
L 174.43438 238.876527 
L 175.386446 238.482421 
L 176.021157 238.428068 
L 176.338512 238.118012 
L 177.290579 238.060846 
L 177.607934 238.060846 
L 178.242645 237.874132 
L 178.56 237.874132 
L 178.877355 237.485114 
L 179.512066 237.426206 
L 179.829421 237.270526 
L 180.146777 237.270526 
L 180.464132 236.985162 
L 180.781488 236.985162 
L 181.098843 236.646755 
L 181.733554 236.621768 
L 182.050909 236.022288 
L 183.002975 235.755037 
L 183.320331 235.755037 
L 183.955041 235.545259 
L 184.272397 235.545259 
L 184.589752 235.390187 
L 184.907107 235.390187 
L 185.224463 234.706684 
L 185.541818 234.706684 
L 186.176529 234.349974 
L 187.44595 234.280858 
L 188.080661 234.071934 
L 188.398017 233.655333 
L 188.715372 233.655333 
L 189.032727 233.394359 
L 189.667438 233.384318 
L 189.984793 232.967293 
L 190.302149 232.967293 
L 190.619504 231.980162 
L 190.93686 231.980162 
L 191.57157 231.812242 
L 191.888926 231.812242 
L 192.206281 231.000316 
L 193.475702 230.954213 
L 193.793058 230.774711 
L 194.110413 230.774711 
L 194.745124 230.65524 
L 196.649256 230.54981 
L 196.966612 230.371655 
L 197.601322 230.345729 
L 197.918678 230.128799 
L 198.236033 229.732253 
L 198.553388 229.732253 
L 199.188099 228.861545 
L 199.505455 228.861545 
L 199.82281 228.719939 
L 200.140165 228.719939 
L 200.457521 228.459504 
L 201.092231 228.425967 
L 201.726942 228.339257 
L 202.044298 227.948908 
L 202.996364 227.904942 
L 203.94843 227.454051 
L 205.217851 227.149301 
L 205.852562 227.121112 
L 206.169917 226.839999 
L 206.487273 226.839999 
L 206.804628 226.607771 
L 207.121983 226.607771 
L 208.07405 226.047422 
L 208.391405 226.047422 
L 209.026116 225.647832 
L 209.343471 225.647832 
L 209.660826 225.24558 
L 210.295537 225.158341 
L 210.612893 224.990545 
L 210.930248 224.990545 
L 211.247603 224.716926 
L 214.421157 223.955487 
L 214.738512 223.524266 
L 216.007934 223.425226 
L 216.325289 223.125579 
L 216.642645 223.125579 
L 216.96 222.726872 
L 217.277355 222.726872 
L 217.594711 222.547296 
L 219.181488 222.361795 
L 219.498843 221.850604 
L 219.816198 221.019912 
L 220.133554 220.77109 
L 220.450909 220.77109 
L 220.768264 220.623436 
L 221.08562 220.623436 
L 221.402975 220.428205 
L 222.672397 220.298026 
L 222.989752 220.159505 
L 223.307107 220.159505 
L 223.624463 219.800152 
L 224.576529 219.740473 
L 225.528595 219.489841 
L 225.84595 219.489841 
L 226.480661 219.144501 
L 226.798017 219.144501 
L 227.115372 218.938517 
L 227.432727 218.938517 
L 227.750083 218.619464 
L 229.019504 218.532167 
L 229.33686 218.408372 
L 229.97157 218.396316 
L 230.288926 218.171972 
L 230.606281 218.171972 
L 230.923636 217.860452 
L 231.558347 217.788945 
L 231.875702 217.633259 
L 232.510413 217.583783 
L 232.827769 217.345778 
L 233.145124 217.345778 
L 233.779835 217.233795 
L 234.414545 217.222186 
L 234.731901 216.757779 
L 235.683967 216.725257 
L 236.001322 216.395584 
L 236.636033 216.373751 
L 236.953388 216.025945 
L 237.270744 215.889727 
L 238.22281 215.833617 
L 238.540165 215.069698 
L 239.174876 214.954232 
L 239.809587 214.861435 
L 240.444298 214.796894 
L 240.761653 214.532139 
L 241.079008 214.532139 
L 241.396364 214.236161 
L 242.665785 214.020908 
L 243.300496 213.661262 
L 245.204628 213.466662 
L 245.521983 213.174343 
L 246.156694 213.059817 
L 246.47405 213.037037 
L 246.791405 212.42749 
L 247.10876 212.125494 
L 247.426116 212.125494 
L 247.743471 211.971688 
L 248.060826 211.971688 
L 248.378182 211.708 
L 249.330248 211.445971 
L 249.647603 211.445971 
L 249.964959 211.237725 
L 251.23438 211.176736 
L 252.821157 210.421806 
L 253.138512 209.995898 
L 253.455868 209.995898 
L 254.090579 209.793667 
L 254.407934 209.793667 
L 254.725289 209.585504 
L 255.36 208.652893 
L 256.312066 208.583534 
L 256.629421 208.290481 
L 257.581488 208.253491 
L 258.533554 207.961959 
L 258.850909 207.961959 
L 259.48562 207.623353 
L 259.802975 207.498227 
L 260.120331 207.498227 
L 260.437686 207.080779 
L 260.755041 207.080779 
L 262.024463 206.586037 
L 262.976529 206.545525 
L 263.293884 206.137708 
L 263.928595 206.135651 
L 264.24595 205.890773 
L 264.880661 205.884911 
L 265.198017 205.7084 
L 266.467438 205.613677 
L 266.784793 205.452491 
L 267.102149 205.088138 
L 268.054215 204.978795 
L 268.37157 204.57734 
L 268.688926 204.57734 
L 269.323636 204.159581 
L 269.640992 203.971857 
L 270.593058 203.887505 
L 270.910413 203.839309 
L 271.227769 203.506251 
L 272.179835 203.409611 
L 272.49719 202.999759 
L 273.449256 202.981889 
L 273.766612 202.707737 
L 274.718678 202.475843 
L 275.353388 202.398048 
L 275.670744 201.341443 
L 276.62281 201.234181 
L 277.574876 200.985732 
L 277.892231 200.985732 
L 278.844298 200.314299 
L 279.161653 200.314299 
L 279.479008 200.130521 
L 279.796364 200.130521 
L 280.113719 199.395217 
L 280.74843 199.340015 
L 281.065785 199.205872 
L 281.700496 199.099784 
L 282.335207 199.079382 
L 282.969917 198.494577 
L 283.287273 198.494577 
L 283.604628 198.335723 
L 284.239339 198.274537 
L 284.556694 197.098377 
L 285.191405 196.9949 
L 286.143471 196.892069 
L 286.460826 196.608976 
L 286.778182 196.608976 
L 287.095537 196.483231 
L 287.412893 196.004885 
L 288.682314 195.935347 
L 288.999669 195.755387 
L 289.317025 195.755387 
L 289.951736 195.230419 
L 291.221157 195.176253 
L 291.538512 194.94314 
L 291.855868 194.94314 
L 292.173223 194.737739 
L 292.490579 194.737739 
L 292.807934 194.576462 
L 293.125289 194.576462 
L 293.442645 194.390449 
L 293.76 194.390449 
L 294.077355 194.09565 
L 295.029421 193.939341 
L 295.346777 193.369704 
L 295.981488 193.343781 
L 296.298843 192.840349 
L 297.250909 192.546563 
L 297.568264 191.84338 
L 297.88562 191.84338 
L 298.202975 191.594724 
L 298.520331 191.594724 
L 299.472397 191.302583 
L 300.107107 191.277408 
L 300.424463 190.904669 
L 301.059174 190.820285 
L 302.01124 190.673806 
L 302.328595 190.002004 
L 302.963306 189.669257 
L 303.280661 189.669257 
L 303.598017 189.357349 
L 303.915372 188.770901 
L 304.232727 188.770901 
L 304.550083 188.454689 
L 304.867438 188.454689 
L 305.184793 187.961931 
L 305.502149 187.961931 
L 305.819504 187.835396 
L 306.454215 187.728901 
L 307.088926 187.616591 
L 308.040992 187.555461 
L 308.358347 187.315059 
L 308.675702 187.315059 
L 308.993058 187.177123 
L 309.627769 187.158426 
L 309.945124 186.994075 
L 310.262479 185.947118 
L 310.579835 185.756385 
L 311.531901 185.669243 
L 311.849256 185.146045 
L 312.166612 185.146045 
L 312.801322 183.924459 
L 314.070744 183.864502 
L 314.388099 183.391208 
L 315.02281 183.38177 
L 315.340165 183.179007 
L 316.609587 183.065135 
L 316.926942 182.754045 
L 317.561653 182.637472 
L 317.879008 182.279109 
L 318.831074 182.192004 
L 319.465785 180.983428 
L 319.78314 180.983428 
L 320.417851 180.189954 
L 320.735207 180.027205 
L 321.687273 180.012496 
L 322.004628 179.776763 
L 322.321983 179.003151 
L 322.639339 179.003151 
L 322.956694 178.614989 
L 323.591405 178.54911 
L 324.226116 177.74507 
L 324.543471 177.74507 
L 324.860826 177.565026 
L 325.178182 177.565026 
L 325.495537 177.315077 
L 325.812893 177.315077 
L 326.130248 177.095544 
L 326.447603 176.610173 
L 327.399669 176.521427 
L 328.351736 176.397006 
L 328.669091 175.85665 
L 328.986446 175.611342 
L 329.621157 175.589989 
L 329.938512 175.310489 
L 330.255868 175.310489 
L 330.573223 175.082734 
L 330.890579 175.082734 
L 331.207934 174.783681 
L 332.16 174.52505 
L 332.477355 173.870161 
L 333.112066 173.777385 
L 333.429421 173.298928 
L 333.746777 173.298928 
L 334.064132 172.168844 
L 334.381488 171.899208 
L 336.28562 171.737588 
L 336.602975 171.556929 
L 336.920331 171.238277 
L 337.237686 171.238277 
L 337.555041 171.094166 
L 337.872397 170.700683 
L 338.507107 170.631812 
L 339.141818 170.61911 
L 339.459174 170.213287 
L 339.776529 170.213287 
L 340.093884 170.047398 
L 340.41124 169.643154 
L 340.728595 169.643154 
L 341.04595 169.439422 
L 341.363306 169.439422 
L 341.680661 167.808307 
L 341.998017 167.535362 
L 342.315372 167.535362 
L 342.632727 166.962074 
L 342.950083 166.962074 
L 343.267438 166.718254 
L 345.17157 166.233455 
L 345.488926 165.705956 
L 345.806281 165.705956 
L 346.123636 165.189935 
L 346.440992 165.010188 
L 346.758347 165.010188 
L 347.393058 164.262738 
L 348.345124 164.180903 
L 348.662479 164.04092 
L 348.979835 164.04092 
L 349.29719 163.027308 
L 349.614545 163.027308 
L 352.470744 161.964241 
L 352.788099 161.412339 
L 353.42281 161.399509 
L 353.740165 161.239214 
L 354.057521 161.239214 
L 354.374876 160.763524 
L 354.692231 160.763524 
L 355.009587 159.779421 
L 355.644298 159.677302 
L 355.961653 159.560353 
L 356.279008 158.736629 
L 356.596364 158.736629 
L 356.913719 157.620822 
L 357.54843 157.540432 
L 357.865785 157.160214 
L 358.18314 157.160214 
L 358.500496 156.645937 
L 358.817851 156.645937 
L 359.135207 156.359106 
L 359.452562 156.222856 
L 359.769917 155.912507 
L 360.087273 155.7602 
L 360.404628 155.7602 
L 360.721983 155.444411 
L 361.039339 155.444411 
L 361.356694 155.253147 
L 362.626116 155.160016 
L 363.260826 153.943345 
L 363.578182 153.943345 
L 364.212893 153.269214 
L 364.530248 153.269214 
L 365.164959 151.865457 
L 365.482314 151.452371 
L 365.799669 151.452371 
L 366.117025 151.117968 
L 366.43438 150.984873 
L 366.751736 150.984873 
L 367.069091 150.82335 
L 367.386446 150.82335 
L 367.703802 150.272091 
L 368.973223 150.071724 
L 369.290579 149.478759 
L 369.607934 149.478759 
L 369.925289 148.827814 
L 370.242645 147.305006 
L 370.56 146.466748 
L 370.877355 146.466748 
L 371.194711 145.427922 
L 371.829421 145.362122 
L 372.146777 145.043187 
L 372.781488 144.974243 
L 373.098843 144.804494 
L 373.416198 144.067435 
L 373.733554 144.029494 
L 374.050909 143.807491 
L 374.368264 143.807491 
L 374.68562 143.024927 
L 375.002975 143.024927 
L 375.637686 141.95119 
L 375.955041 141.95119 
L 376.272397 141.163349 
L 376.589752 141.163349 
L 376.907107 140.456323 
L 377.224463 138.217659 
L 377.541818 138.217659 
L 379.128595 137.64232 
L 379.44595 137.052525 
L 379.763306 135.061079 
L 380.080661 134.41004 
L 380.398017 134.41004 
L 380.715372 133.919768 
L 381.032727 132.687623 
L 381.667438 132.576854 
L 382.302149 132.470229 
L 382.93686 132.421015 
L 383.254215 131.653018 
L 383.888926 130.99211 
L 384.206281 130.99211 
L 384.523636 129.625465 
L 384.840992 129.625465 
L 385.158347 127.984239 
L 385.475702 127.984239 
L 385.793058 127.172265 
L 386.110413 125.467654 
L 386.427769 124.619893 
L 386.745124 124.619893 
L 387.062479 124.41642 
L 387.379835 122.478097 
L 387.69719 121.559858 
L 388.014545 121.559858 
L 388.331901 121.378776 
L 388.649256 120.426254 
L 388.966612 119.974291 
L 389.918678 119.90689 
L 390.553388 114.771046 
L 390.870744 114.771046 
L 391.188099 114.552938 
L 391.82281 111.878953 
L 392.140165 111.878953 
L 392.457521 110.069437 
L 392.774876 109.675547 
L 393.092231 109.675547 
L 393.409587 108.232118 
L 393.726942 108.232118 
L 394.044298 106.849667 
L 394.361653 103.375272 
L 394.679008 102.37919 
L 394.996364 102.37919 
L 395.313719 101.779218 
L 395.631074 101.530361 
L 395.94843 101.530361 
L 396.265785 93.828613 
L 396.58314 90.461304 
L 396.900496 89.182439 
L 397.217851 89.182439 
L 397.535207 75.996267 
L 397.852562 75.704101 
L 398.169917 75.704101 
L 398.487273 64.854635 
L 398.487273 64.854635 
" clip-path="url(#p11466bf2e9)" style="fill: none; stroke: #ff7f0e; stroke-width: 1.5; stroke-linecap: square"/>
   </g>
   <g id="patch_3">
    <path d="M 57.6 307.584 
L 57.6 41.472 
" style="fill: none; stroke: #000000; stroke-width: 0.8; stroke-linejoin: miter; stroke-linecap: square"/>
   </g>
   <g id="patch_4">
    <path d="M 414.72 307.584 
L 414.72 41.472 
" style="fill: none; stroke: #000000; stroke-width: 0.8; stroke-linejoin: miter; stroke-linecap: square"/>
   </g>
   <g id="patch_5">
    <path d="M 57.6 307.584 
L 414.72 307.584 
" style="fill: none; stroke: #000000; stroke-width: 0.8; stroke-linejoin: miter; stroke-linecap: square"/>
   </g>
   <g id="patch_6">
    <path d="M 57.6 41.472 
L 414.72 41.472 
" style="fill: none; stroke: #000000; stroke-width: 0.8; stroke-linejoin: miter; stroke-linecap: square"/>
   </g>
   <g id="legend_1">
    <g id="patch_7">
     <path d="M 64.6 78.82825 
L 129.342187 78.82825 
Q 131.342187 78.82825 131.342187 76.82825 
L 131.342187 48.472 
Q 131.342187 46.472 129.342187 46.472 
L 64.6 46.472 
Q 62.6 46.472 62.6 48.472 
L 62.6 76.82825 
Q 62.6 78.82825 64.6 78.82825 
z
" style="fill: #ffffff; opacity: 0.8; stroke: #cccccc; stroke-linejoin: miter"/>
    </g>
    <g id="line2d_18">
     <path d="M 66.6 54.570437 
L 76.6 54.570437 
L 86.6 54.570437 
" style="fill: none; stroke: #1f77b4; stroke-width: 1.5; stroke-linecap: square"/>
    </g>
    <g id="text_18">
     <!-- qc -->
     <g transform="translate(94.6 58.070437) scale(0.1 -0.1)">
      <defs>
       <path id="DejaVuSans-71" d="M 947 1747 
Q 947 1113 1208 752 
Q 1469 391 1925 391 
Q 2381 391 2643 752 
Q 2906 1113 2906 1747 
Q 2906 2381 2643 2742 
Q 2381 3103 1925 3103 
Q 1469 3103 1208 2742 
Q 947 2381 947 1747 
z
M 2906 525 
Q 2725 213 2448 61 
Q 2172 -91 1784 -91 
Q 1150 -91 751 415 
Q 353 922 353 1747 
Q 353 2572 751 3078 
Q 1150 3584 1784 3584 
Q 2172 3584 2448 3432 
Q 2725 3281 2906 2969 
L 2906 3500 
L 3481 3500 
L 3481 -1331 
L 2906 -1331 
L 2906 525 
z
" transform="scale(0.015625)"/>
       <path id="DejaVuSans-63" d="M 3122 3366 
L 3122 2828 
Q 2878 2963 2633 3030 
Q 2388 3097 2138 3097 
Q 1578 3097 1268 2742 
Q 959 2388 959 1747 
Q 959 1106 1268 751 
Q 1578 397 2138 397 
Q 2388 397 2633 464 
Q 2878 531 3122 666 
L 3122 134 
Q 2881 22 2623 -34 
Q 2366 -91 2075 -91 
Q 1284 -91 818 406 
Q 353 903 353 1747 
Q 353 2603 823 3093 
Q 1294 3584 2113 3584 
Q 2378 3584 2631 3529 
Q 2884 3475 3122 3366 
z
" transform="scale(0.015625)"/>
      </defs>
      <use xlink:href="#DejaVuSans-71"/>
      <use xlink:href="#DejaVuSans-63" x="63.476562"/>
     </g>
    </g>
    <g id="line2d_19">
     <path d="M 66.6 69.248562 
L 76.6 69.248562 
L 86.6 69.248562 
" style="fill: none; stroke: #ff7f0e; stroke-width: 1.5; stroke-linecap: square"/>
    </g>
    <g id="text_19">
     <!-- Trotter -->
     <g transform="translate(94.6 72.748562) scale(0.1 -0.1)">
      <defs>
       <path id="DejaVuSans-54" d="M -19 4666 
L 3928 4666 
L 3928 4134 
L 2272 4134 
L 2272 0 
L 1638 0 
L 1638 4134 
L -19 4134 
L -19 4666 
z
" transform="scale(0.015625)"/>
       <path id="DejaVuSans-72" d="M 2631 2963 
Q 2534 3019 2420 3045 
Q 2306 3072 2169 3072 
Q 1681 3072 1420 2755 
Q 1159 2438 1159 1844 
L 1159 0 
L 581 0 
L 581 3500 
L 1159 3500 
L 1159 2956 
Q 1341 3275 1631 3429 
Q 1922 3584 2338 3584 
Q 2397 3584 2469 3576 
Q 2541 3569 2628 3553 
L 2631 2963 
z
" transform="scale(0.015625)"/>
       <path id="DejaVuSans-6f" d="M 1959 3097 
Q 1497 3097 1228 2736 
Q 959 2375 959 1747 
Q 959 1119 1226 758 
Q 1494 397 1959 397 
Q 2419 397 2687 759 
Q 2956 1122 2956 1747 
Q 2956 2369 2687 2733 
Q 2419 3097 1959 3097 
z
M 1959 3584 
Q 2709 3584 3137 3096 
Q 3566 2609 3566 1747 
Q 3566 888 3137 398 
Q 2709 -91 1959 -91 
Q 1206 -91 779 398 
Q 353 888 353 1747 
Q 353 2609 779 3096 
Q 1206 3584 1959 3584 
z
" transform="scale(0.015625)"/>
       <path id="DejaVuSans-65" d="M 3597 1894 
L 3597 1613 
L 953 1613 
Q 991 1019 1311 708 
Q 1631 397 2203 397 
Q 2534 397 2845 478 
Q 3156 559 3463 722 
L 3463 178 
Q 3153 47 2828 -22 
Q 2503 -91 2169 -91 
Q 1331 -91 842 396 
Q 353 884 353 1716 
Q 353 2575 817 3079 
Q 1281 3584 2069 3584 
Q 2775 3584 3186 3129 
Q 3597 2675 3597 1894 
z
M 3022 2063 
Q 3016 2534 2758 2815 
Q 2500 3097 2075 3097 
Q 1594 3097 1305 2825 
Q 1016 2553 972 2059 
L 3022 2063 
z
" transform="scale(0.015625)"/>
      </defs>
      <use xlink:href="#DejaVuSans-54"/>
      <use xlink:href="#DejaVuSans-72" x="46.333984"/>
      <use xlink:href="#DejaVuSans-6f" x="85.197266"/>
      <use xlink:href="#DejaVuSans-74" x="146.378906"/>
      <use xlink:href="#DejaVuSans-74" x="185.587891"/>
      <use xlink:href="#DejaVuSans-65" x="224.796875"/>
      <use xlink:href="#DejaVuSans-72" x="286.320312"/>
     </g>
    </g>
   </g>
  </g>
 </g>
 <defs>
  <clipPath id="p11466bf2e9">
   <rect x="57.6" y="41.472" width="357.12" height="266.112"/>
  </clipPath>
 </defs>
</svg>
