<?xml version="1.0" encoding="utf-8" standalone="no"?>
<!DOCTYPE svg PUBLIC "-//W3C//DTD SVG 1.1//EN"
  "http://www.w3.org/Graphics/SVG/1.1/DTD/svg11.dtd">
<svg xmlns:xlink="http://www.w3.org/1999/xlink" width="460.8pt" height="345.6pt" viewBox="0 0 460.8 345.6" xmlns="http://www.w3.org/2000/svg" version="1.1">
 <metadata>
  <rdf:RDF xmlns:dc="http://purl.org/dc/elements/1.1/" xmlns:cc="http://creativecommons.org/ns#" xmlns:rdf="http://www.w3.org/1999/02/22-rdf-syntax-ns#">
   <cc:Work>
    <dc:type rdf:resource="http://purl.org/dc/dcmitype/StillImage"/>
    <dc:date>2024-06-07T01:52:03.601635</dc:date>
    <dc:format>image/svg+xml</dc:format>
    <dc:creator>
     <cc:Agent>
      <dc:title>Matplotlib v3.7.1, https://matplotlib.org/</dc:title>
     </cc:Agent>
    </dc:creator>
   </cc:Work>
  </rdf:RDF>
 </metadata>
 <defs>
  <style type="text/css">*{stroke-linejoin: round; stroke-linecap: butt}</style>
 </defs>
 <g id="figure_1">
  <g id="patch_1">
   <path d="M 0 345.6 
L 460.8 345.6 
L 460.8 0 
L 0 0 
z
" style="fill: #ffffff"/>
  </g>
  <g id="axes_1">
   <g id="patch_2">
    <path d="M 57.6 307.584 
L 414.72 307.584 
L 414.72 41.472 
L 57.6 41.472 
z
" style="fill: #ffffff"/>
   </g>
   <g id="matplotlib.axis_1">
    <g id="xtick_1">
     <g id="line2d_1">
      <defs>
       <path id="m43f9ab8225" d="M 0 0 
L 0 3.5 
" style="stroke: #000000; stroke-width: 0.8"/>
      </defs>
      <g>
       <use xlink:href="#m43f9ab8225" x="73.832727" y="307.584" style="stroke: #000000; stroke-width: 0.8"/>
      </g>
     </g>
     <g id="text_1">
      <!-- 0 -->
      <g transform="translate(70.651477 322.182437) scale(0.1 -0.1)">
       <defs>
        <path id="DejaVuSans-30" d="M 2034 4250 
Q 1547 4250 1301 3770 
Q 1056 3291 1056 2328 
Q 1056 1369 1301 889 
Q 1547 409 2034 409 
Q 2525 409 2770 889 
Q 3016 1369 3016 2328 
Q 3016 3291 2770 3770 
Q 2525 4250 2034 4250 
z
M 2034 4750 
Q 2819 4750 3233 4129 
Q 3647 3509 3647 2328 
Q 3647 1150 3233 529 
Q 2819 -91 2034 -91 
Q 1250 -91 836 529 
Q 422 1150 422 2328 
Q 422 3509 836 4129 
Q 1250 4750 2034 4750 
z
" transform="scale(0.015625)"/>
       </defs>
       <use xlink:href="#DejaVuSans-30"/>
      </g>
     </g>
    </g>
    <g id="xtick_2">
     <g id="line2d_2">
      <g>
       <use xlink:href="#m43f9ab8225" x="137.303802" y="307.584" style="stroke: #000000; stroke-width: 0.8"/>
      </g>
     </g>
     <g id="text_2">
      <!-- 200 -->
      <g transform="translate(127.760052 322.182437) scale(0.1 -0.1)">
       <defs>
        <path id="DejaVuSans-32" d="M 1228 531 
L 3431 531 
L 3431 0 
L 469 0 
L 469 531 
Q 828 903 1448 1529 
Q 2069 2156 2228 2338 
Q 2531 2678 2651 2914 
Q 2772 3150 2772 3378 
Q 2772 3750 2511 3984 
Q 2250 4219 1831 4219 
Q 1534 4219 1204 4116 
Q 875 4013 500 3803 
L 500 4441 
Q 881 4594 1212 4672 
Q 1544 4750 1819 4750 
Q 2544 4750 2975 4387 
Q 3406 4025 3406 3419 
Q 3406 3131 3298 2873 
Q 3191 2616 2906 2266 
Q 2828 2175 2409 1742 
Q 1991 1309 1228 531 
z
" transform="scale(0.015625)"/>
       </defs>
       <use xlink:href="#DejaVuSans-32"/>
       <use xlink:href="#DejaVuSans-30" x="63.623047"/>
       <use xlink:href="#DejaVuSans-30" x="127.246094"/>
      </g>
     </g>
    </g>
    <g id="xtick_3">
     <g id="line2d_3">
      <g>
       <use xlink:href="#m43f9ab8225" x="200.774876" y="307.584" style="stroke: #000000; stroke-width: 0.8"/>
      </g>
     </g>
     <g id="text_3">
      <!-- 400 -->
      <g transform="translate(191.231126 322.182437) scale(0.1 -0.1)">
       <defs>
        <path id="DejaVuSans-34" d="M 2419 4116 
L 825 1625 
L 2419 1625 
L 2419 4116 
z
M 2253 4666 
L 3047 4666 
L 3047 1625 
L 3713 1625 
L 3713 1100 
L 3047 1100 
L 3047 0 
L 2419 0 
L 2419 1100 
L 313 1100 
L 313 1709 
L 2253 4666 
z
" transform="scale(0.015625)"/>
       </defs>
       <use xlink:href="#DejaVuSans-34"/>
       <use xlink:href="#DejaVuSans-30" x="63.623047"/>
       <use xlink:href="#DejaVuSans-30" x="127.246094"/>
      </g>
     </g>
    </g>
    <g id="xtick_4">
     <g id="line2d_4">
      <g>
       <use xlink:href="#m43f9ab8225" x="264.24595" y="307.584" style="stroke: #000000; stroke-width: 0.8"/>
      </g>
     </g>
     <g id="text_4">
      <!-- 600 -->
      <g transform="translate(254.7022 322.182437) scale(0.1 -0.1)">
       <defs>
        <path id="DejaVuSans-36" d="M 2113 2584 
Q 1688 2584 1439 2293 
Q 1191 2003 1191 1497 
Q 1191 994 1439 701 
Q 1688 409 2113 409 
Q 2538 409 2786 701 
Q 3034 994 3034 1497 
Q 3034 2003 2786 2293 
Q 2538 2584 2113 2584 
z
M 3366 4563 
L 3366 3988 
Q 3128 4100 2886 4159 
Q 2644 4219 2406 4219 
Q 1781 4219 1451 3797 
Q 1122 3375 1075 2522 
Q 1259 2794 1537 2939 
Q 1816 3084 2150 3084 
Q 2853 3084 3261 2657 
Q 3669 2231 3669 1497 
Q 3669 778 3244 343 
Q 2819 -91 2113 -91 
Q 1303 -91 875 529 
Q 447 1150 447 2328 
Q 447 3434 972 4092 
Q 1497 4750 2381 4750 
Q 2619 4750 2861 4703 
Q 3103 4656 3366 4563 
z
" transform="scale(0.015625)"/>
       </defs>
       <use xlink:href="#DejaVuSans-36"/>
       <use xlink:href="#DejaVuSans-30" x="63.623047"/>
       <use xlink:href="#DejaVuSans-30" x="127.246094"/>
      </g>
     </g>
    </g>
    <g id="xtick_5">
     <g id="line2d_5">
      <g>
       <use xlink:href="#m43f9ab8225" x="327.717025" y="307.584" style="stroke: #000000; stroke-width: 0.8"/>
      </g>
     </g>
     <g id="text_5">
      <!-- 800 -->
      <g transform="translate(318.173275 322.182437) scale(0.1 -0.1)">
       <defs>
        <path id="DejaVuSans-38" d="M 2034 2216 
Q 1584 2216 1326 1975 
Q 1069 1734 1069 1313 
Q 1069 891 1326 650 
Q 1584 409 2034 409 
Q 2484 409 2743 651 
Q 3003 894 3003 1313 
Q 3003 1734 2745 1975 
Q 2488 2216 2034 2216 
z
M 1403 2484 
Q 997 2584 770 2862 
Q 544 3141 544 3541 
Q 544 4100 942 4425 
Q 1341 4750 2034 4750 
Q 2731 4750 3128 4425 
Q 3525 4100 3525 3541 
Q 3525 3141 3298 2862 
Q 3072 2584 2669 2484 
Q 3125 2378 3379 2068 
Q 3634 1759 3634 1313 
Q 3634 634 3220 271 
Q 2806 -91 2034 -91 
Q 1263 -91 848 271 
Q 434 634 434 1313 
Q 434 1759 690 2068 
Q 947 2378 1403 2484 
z
M 1172 3481 
Q 1172 3119 1398 2916 
Q 1625 2713 2034 2713 
Q 2441 2713 2670 2916 
Q 2900 3119 2900 3481 
Q 2900 3844 2670 4047 
Q 2441 4250 2034 4250 
Q 1625 4250 1398 4047 
Q 1172 3844 1172 3481 
z
" transform="scale(0.015625)"/>
       </defs>
       <use xlink:href="#DejaVuSans-38"/>
       <use xlink:href="#DejaVuSans-30" x="63.623047"/>
       <use xlink:href="#DejaVuSans-30" x="127.246094"/>
      </g>
     </g>
    </g>
    <g id="xtick_6">
     <g id="line2d_6">
      <g>
       <use xlink:href="#m43f9ab8225" x="391.188099" y="307.584" style="stroke: #000000; stroke-width: 0.8"/>
      </g>
     </g>
     <g id="text_6">
      <!-- 1000 -->
      <g transform="translate(378.463099 322.182437) scale(0.1 -0.1)">
       <defs>
        <path id="DejaVuSans-31" d="M 794 531 
L 1825 531 
L 1825 4091 
L 703 3866 
L 703 4441 
L 1819 4666 
L 2450 4666 
L 2450 531 
L 3481 531 
L 3481 0 
L 794 0 
L 794 531 
z
" transform="scale(0.015625)"/>
       </defs>
       <use xlink:href="#DejaVuSans-31"/>
       <use xlink:href="#DejaVuSans-30" x="63.623047"/>
       <use xlink:href="#DejaVuSans-30" x="127.246094"/>
       <use xlink:href="#DejaVuSans-30" x="190.869141"/>
      </g>
     </g>
    </g>
    <g id="text_7">
     <!-- n -->
     <g transform="translate(232.99125 335.860562) scale(0.1 -0.1)">
      <defs>
       <path id="DejaVuSans-6e" d="M 3513 2113 
L 3513 0 
L 2938 0 
L 2938 2094 
Q 2938 2591 2744 2837 
Q 2550 3084 2163 3084 
Q 1697 3084 1428 2787 
Q 1159 2491 1159 1978 
L 1159 0 
L 581 0 
L 581 3500 
L 1159 3500 
L 1159 2956 
Q 1366 3272 1645 3428 
Q 1925 3584 2291 3584 
Q 2894 3584 3203 3211 
Q 3513 2838 3513 2113 
z
" transform="scale(0.015625)"/>
      </defs>
      <use xlink:href="#DejaVuSans-6e"/>
     </g>
    </g>
   </g>
   <g id="matplotlib.axis_2">
    <g id="ytick_1">
     <g id="line2d_7">
      <defs>
       <path id="m0ac53e4e8d" d="M 0 0 
L -3.5 0 
" style="stroke: #000000; stroke-width: 0.8"/>
      </defs>
      <g>
       <use xlink:href="#m0ac53e4e8d" x="57.6" y="285.256721" style="stroke: #000000; stroke-width: 0.8"/>
      </g>
     </g>
     <g id="text_8">
      <!-- −0.4 -->
      <g transform="translate(26.317187 289.05594) scale(0.1 -0.1)">
       <defs>
        <path id="DejaVuSans-2212" d="M 678 2272 
L 4684 2272 
L 4684 1741 
L 678 1741 
L 678 2272 
z
" transform="scale(0.015625)"/>
        <path id="DejaVuSans-2e" d="M 684 794 
L 1344 794 
L 1344 0 
L 684 0 
L 684 794 
z
" transform="scale(0.015625)"/>
       </defs>
       <use xlink:href="#DejaVuSans-2212"/>
       <use xlink:href="#DejaVuSans-30" x="83.789062"/>
       <use xlink:href="#DejaVuSans-2e" x="147.412109"/>
       <use xlink:href="#DejaVuSans-34" x="179.199219"/>
      </g>
     </g>
    </g>
    <g id="ytick_2">
     <g id="line2d_8">
      <g>
       <use xlink:href="#m0ac53e4e8d" x="57.6" y="254.547224" style="stroke: #000000; stroke-width: 0.8"/>
      </g>
     </g>
     <g id="text_9">
      <!-- −0.3 -->
      <g transform="translate(26.317187 258.346443) scale(0.1 -0.1)">
       <defs>
        <path id="DejaVuSans-33" d="M 2597 2516 
Q 3050 2419 3304 2112 
Q 3559 1806 3559 1356 
Q 3559 666 3084 287 
Q 2609 -91 1734 -91 
Q 1441 -91 1130 -33 
Q 819 25 488 141 
L 488 750 
Q 750 597 1062 519 
Q 1375 441 1716 441 
Q 2309 441 2620 675 
Q 2931 909 2931 1356 
Q 2931 1769 2642 2001 
Q 2353 2234 1838 2234 
L 1294 2234 
L 1294 2753 
L 1863 2753 
Q 2328 2753 2575 2939 
Q 2822 3125 2822 3475 
Q 2822 3834 2567 4026 
Q 2313 4219 1838 4219 
Q 1578 4219 1281 4162 
Q 984 4106 628 3988 
L 628 4550 
Q 988 4650 1302 4700 
Q 1616 4750 1894 4750 
Q 2613 4750 3031 4423 
Q 3450 4097 3450 3541 
Q 3450 3153 3228 2886 
Q 3006 2619 2597 2516 
z
" transform="scale(0.015625)"/>
       </defs>
       <use xlink:href="#DejaVuSans-2212"/>
       <use xlink:href="#DejaVuSans-30" x="83.789062"/>
       <use xlink:href="#DejaVuSans-2e" x="147.412109"/>
       <use xlink:href="#DejaVuSans-33" x="179.199219"/>
      </g>
     </g>
    </g>
    <g id="ytick_3">
     <g id="line2d_9">
      <g>
       <use xlink:href="#m0ac53e4e8d" x="57.6" y="223.837727" style="stroke: #000000; stroke-width: 0.8"/>
      </g>
     </g>
     <g id="text_10">
      <!-- −0.2 -->
      <g transform="translate(26.317187 227.636946) scale(0.1 -0.1)">
       <use xlink:href="#DejaVuSans-2212"/>
       <use xlink:href="#DejaVuSans-30" x="83.789062"/>
       <use xlink:href="#DejaVuSans-2e" x="147.412109"/>
       <use xlink:href="#DejaVuSans-32" x="179.199219"/>
      </g>
     </g>
    </g>
    <g id="ytick_4">
     <g id="line2d_10">
      <g>
       <use xlink:href="#m0ac53e4e8d" x="57.6" y="193.128231" style="stroke: #000000; stroke-width: 0.8"/>
      </g>
     </g>
     <g id="text_11">
      <!-- −0.1 -->
      <g transform="translate(26.317187 196.927449) scale(0.1 -0.1)">
       <use xlink:href="#DejaVuSans-2212"/>
       <use xlink:href="#DejaVuSans-30" x="83.789062"/>
       <use xlink:href="#DejaVuSans-2e" x="147.412109"/>
       <use xlink:href="#DejaVuSans-31" x="179.199219"/>
      </g>
     </g>
    </g>
    <g id="ytick_5">
     <g id="line2d_11">
      <g>
       <use xlink:href="#m0ac53e4e8d" x="57.6" y="162.418734" style="stroke: #000000; stroke-width: 0.8"/>
      </g>
     </g>
     <g id="text_12">
      <!-- 0.0 -->
      <g transform="translate(34.696875 166.217952) scale(0.1 -0.1)">
       <use xlink:href="#DejaVuSans-30"/>
       <use xlink:href="#DejaVuSans-2e" x="63.623047"/>
       <use xlink:href="#DejaVuSans-30" x="95.410156"/>
      </g>
     </g>
    </g>
    <g id="ytick_6">
     <g id="line2d_12">
      <g>
       <use xlink:href="#m0ac53e4e8d" x="57.6" y="131.709237" style="stroke: #000000; stroke-width: 0.8"/>
      </g>
     </g>
     <g id="text_13">
      <!-- 0.1 -->
      <g transform="translate(34.696875 135.508456) scale(0.1 -0.1)">
       <use xlink:href="#DejaVuSans-30"/>
       <use xlink:href="#DejaVuSans-2e" x="63.623047"/>
       <use xlink:href="#DejaVuSans-31" x="95.410156"/>
      </g>
     </g>
    </g>
    <g id="ytick_7">
     <g id="line2d_13">
      <g>
       <use xlink:href="#m0ac53e4e8d" x="57.6" y="100.99974" style="stroke: #000000; stroke-width: 0.8"/>
      </g>
     </g>
     <g id="text_14">
      <!-- 0.2 -->
      <g transform="translate(34.696875 104.798959) scale(0.1 -0.1)">
       <use xlink:href="#DejaVuSans-30"/>
       <use xlink:href="#DejaVuSans-2e" x="63.623047"/>
       <use xlink:href="#DejaVuSans-32" x="95.410156"/>
      </g>
     </g>
    </g>
    <g id="ytick_8">
     <g id="line2d_14">
      <g>
       <use xlink:href="#m0ac53e4e8d" x="57.6" y="70.290243" style="stroke: #000000; stroke-width: 0.8"/>
      </g>
     </g>
     <g id="text_15">
      <!-- 0.3 -->
      <g transform="translate(34.696875 74.089462) scale(0.1 -0.1)">
       <use xlink:href="#DejaVuSans-30"/>
       <use xlink:href="#DejaVuSans-2e" x="63.623047"/>
       <use xlink:href="#DejaVuSans-33" x="95.410156"/>
      </g>
     </g>
    </g>
    <g id="text_16">
     <!-- E*t -->
     <g transform="translate(20.2375 182.147531) rotate(-90) scale(0.1 -0.1)">
      <defs>
       <path id="DejaVuSans-45" d="M 628 4666 
L 3578 4666 
L 3578 4134 
L 1259 4134 
L 1259 2753 
L 3481 2753 
L 3481 2222 
L 1259 2222 
L 1259 531 
L 3634 531 
L 3634 0 
L 628 0 
L 628 4666 
z
" transform="scale(0.015625)"/>
       <path id="DejaVuSans-2a" d="M 3009 3897 
L 1888 3291 
L 3009 2681 
L 2828 2375 
L 1778 3009 
L 1778 1831 
L 1422 1831 
L 1422 3009 
L 372 2375 
L 191 2681 
L 1313 3291 
L 191 3897 
L 372 4206 
L 1422 3572 
L 1422 4750 
L 1778 4750 
L 1778 3572 
L 2828 4206 
L 3009 3897 
z
" transform="scale(0.015625)"/>
       <path id="DejaVuSans-74" d="M 1172 4494 
L 1172 3500 
L 2356 3500 
L 2356 3053 
L 1172 3053 
L 1172 1153 
Q 1172 725 1289 603 
Q 1406 481 1766 481 
L 2356 481 
L 2356 0 
L 1766 0 
Q 1100 0 847 248 
Q 594 497 594 1153 
L 594 3053 
L 172 3053 
L 172 3500 
L 594 3500 
L 594 4494 
L 1172 4494 
z
" transform="scale(0.015625)"/>
      </defs>
      <use xlink:href="#DejaVuSans-45"/>
      <use xlink:href="#DejaVuSans-2a" x="63.183594"/>
      <use xlink:href="#DejaVuSans-74" x="113.183594"/>
     </g>
    </g>
   </g>
   <g id="line2d_15">
    <path d="M 73.832727 295.488 
L 74.467438 288.643271 
L 74.784793 287.468732 
L 75.419504 284.609955 
L 76.054215 282.798488 
L 76.37157 281.162498 
L 76.688926 280.364314 
L 77.006281 278.64548 
L 77.323636 277.959108 
L 77.640992 277.6613 
L 77.958347 276.313238 
L 78.275702 276.045979 
L 80.179835 272.475053 
L 80.814545 271.82801 
L 81.449256 270.952095 
L 81.766612 270.841378 
L 82.718678 269.020112 
L 83.036033 268.906792 
L 83.353388 268.638105 
L 84.62281 266.562554 
L 85.257521 266.072627 
L 85.892231 265.047419 
L 86.209587 264.786345 
L 86.526942 264.113936 
L 87.161653 263.782354 
L 87.479008 263.576795 
L 87.796364 263.071377 
L 88.431074 262.52391 
L 90.652562 260.45487 
L 90.969917 260.020117 
L 92.556694 258.706987 
L 93.826116 257.426023 
L 94.143471 256.986633 
L 95.412893 256.026437 
L 95.730248 255.69671 
L 96.682314 255.114913 
L 96.999669 254.761457 
L 97.317025 254.647704 
L 98.269091 253.742039 
L 98.586446 253.569151 
L 99.221157 252.959119 
L 100.173223 252.30156 
L 100.490579 251.917229 
L 100.807934 251.869295 
L 102.077355 251.050125 
L 102.712066 250.706972 
L 103.346777 250.347535 
L 103.664132 249.851701 
L 104.298843 249.611313 
L 104.616198 249.49281 
L 105.250909 248.760158 
L 105.88562 248.420837 
L 106.837686 247.83386 
L 107.155041 247.725076 
L 107.472397 247.368572 
L 108.741818 246.834859 
L 109.059174 246.451988 
L 111.280661 245.200177 
L 111.598017 245.125226 
L 111.915372 244.755426 
L 113.819504 243.820334 
L 114.13686 243.49066 
L 115.406281 242.888032 
L 116.358347 242.208699 
L 118.262479 241.056442 
L 118.89719 240.540359 
L 119.531901 240.280602 
L 120.483967 239.574567 
L 121.436033 239.149114 
L 123.02281 238.296756 
L 123.974876 237.732398 
L 124.926942 237.197699 
L 125.879008 236.886067 
L 126.831074 236.282218 
L 129.052562 234.96964 
L 129.687273 234.706059 
L 130.004628 234.470737 
L 130.639339 234.191237 
L 134.447603 232.175208 
L 135.082314 231.962898 
L 135.717025 231.515654 
L 136.03438 231.468331 
L 136.669091 230.948213 
L 137.621157 230.607384 
L 139.525289 229.52886 
L 140.16 229.255869 
L 141.746777 228.431 
L 143.650909 227.550392 
L 144.28562 227.317908 
L 144.920331 226.961166 
L 145.237686 226.921169 
L 146.189752 226.54578 
L 147.141818 226.133201 
L 147.776529 225.669792 
L 148.41124 225.428103 
L 149.998017 224.578225 
L 150.315372 224.461022 
L 150.950083 224.052548 
L 151.902149 223.59888 
L 152.53686 223.373883 
L 156.345124 221.365954 
L 156.979835 221.258586 
L 158.883967 220.370142 
L 159.201322 219.949084 
L 160.153388 219.559344 
L 160.470744 219.327988 
L 161.42281 219.027534 
L 162.692231 218.34908 
L 163.009587 218.259386 
L 163.961653 217.574825 
L 164.279008 217.523024 
L 164.913719 217.226945 
L 165.54843 217.01523 
L 167.135207 216.443551 
L 168.404628 215.727512 
L 168.721983 215.690186 
L 169.039339 215.448918 
L 169.991405 215.209388 
L 170.30876 215.016869 
L 170.626116 214.644749 
L 171.578182 214.37757 
L 174.751736 212.880901 
L 175.386446 212.741717 
L 176.655868 212.156208 
L 178.56 211.111238 
L 179.829421 210.708727 
L 180.464132 210.306576 
L 182.368264 209.567158 
L 183.002975 209.208723 
L 185.224463 208.339775 
L 185.859174 207.956505 
L 187.128595 207.653514 
L 187.44595 207.587239 
L 188.080661 207.112884 
L 189.032727 206.677542 
L 189.350083 206.429153 
L 189.984793 206.277043 
L 190.302149 206.081693 
L 191.254215 205.882939 
L 192.206281 205.403487 
L 192.523636 205.395653 
L 193.158347 204.944429 
L 193.793058 204.614259 
L 194.427769 204.389477 
L 194.745124 204.142791 
L 195.69719 203.993464 
L 196.014545 203.926428 
L 196.331901 203.708415 
L 196.966612 203.513824 
L 197.601322 203.208555 
L 198.553388 202.859216 
L 198.870744 202.571455 
L 199.188099 202.514699 
L 199.505455 202.311696 
L 200.457521 202.09596 
L 201.726942 201.460182 
L 202.044298 201.398958 
L 202.361653 201.202208 
L 203.631074 200.930072 
L 204.265785 200.741151 
L 204.900496 200.506201 
L 205.852562 199.94427 
L 206.169917 199.889102 
L 206.804628 199.555752 
L 207.756694 199.254432 
L 208.391405 198.858401 
L 208.70876 198.762937 
L 209.343471 198.329456 
L 209.978182 198.269816 
L 210.612893 197.872459 
L 211.564959 197.723425 
L 211.882314 197.444678 
L 212.199669 197.420749 
L 213.151736 196.989722 
L 214.738512 196.542386 
L 215.055868 196.340472 
L 215.373223 196.303983 
L 215.690579 196.014815 
L 216.325289 195.799327 
L 216.96 195.631416 
L 217.277355 195.602867 
L 217.912066 195.254971 
L 219.181488 194.747313 
L 219.816198 194.39363 
L 220.768264 194.010934 
L 221.402975 193.743681 
L 222.037686 193.605059 
L 222.355041 193.558302 
L 222.672397 193.369832 
L 222.989752 193.34665 
L 223.307107 193.082937 
L 224.576529 192.869607 
L 224.893884 192.724424 
L 225.21124 192.393345 
L 225.528595 192.289268 
L 225.84595 192.044127 
L 226.163306 192.015057 
L 226.480661 191.801861 
L 226.798017 191.723331 
L 227.115372 191.448623 
L 227.432727 191.423852 
L 227.750083 191.215119 
L 228.067438 191.163395 
L 228.702149 190.942402 
L 229.654215 190.752138 
L 229.97157 190.604683 
L 230.288926 190.292239 
L 231.240992 190.06364 
L 231.558347 189.824245 
L 232.510413 189.573468 
L 233.462479 189.322936 
L 234.09719 188.993917 
L 234.731901 188.885023 
L 235.366612 188.609729 
L 237.588099 187.802943 
L 238.22281 187.656017 
L 238.857521 187.362424 
L 240.444298 186.73179 
L 241.713719 186.242974 
L 242.34843 186.031172 
L 244.569917 185.078778 
L 245.521983 184.92107 
L 245.839339 184.547435 
L 247.10876 184.233982 
L 247.426116 183.978227 
L 248.378182 183.628074 
L 249.012893 183.386974 
L 249.330248 183.259822 
L 249.647603 182.996944 
L 250.599669 182.718007 
L 250.917025 182.512886 
L 251.869091 182.355708 
L 253.455868 181.614287 
L 254.090579 181.409727 
L 255.36 180.966978 
L 255.677355 180.690899 
L 256.629421 180.543227 
L 257.264132 180.18203 
L 258.533554 179.834822 
L 258.850909 179.534384 
L 259.802975 179.223313 
L 260.120331 179.184905 
L 260.755041 178.731224 
L 261.389752 178.542353 
L 261.707107 178.370988 
L 262.024463 178.340922 
L 262.659174 178.014289 
L 263.293884 177.9198 
L 263.61124 177.704856 
L 265.198017 177.255945 
L 265.515372 177.029759 
L 266.150083 176.951462 
L 267.102149 176.485398 
L 269.640992 175.454756 
L 269.958347 175.403053 
L 270.593058 175.114935 
L 271.227769 174.92526 
L 271.545124 174.852139 
L 272.814545 174.190891 
L 281.38314 170.839437 
L 281.700496 170.4878 
L 282.652562 170.242143 
L 284.87405 169.466105 
L 285.826116 169.16215 
L 287.095537 168.636488 
L 287.412893 168.322539 
L 288.047603 168.162663 
L 290.903802 167.095709 
L 291.221157 166.816718 
L 292.173223 166.583821 
L 293.125289 166.090199 
L 293.76 165.818496 
L 294.394711 165.521663 
L 294.712066 165.492124 
L 295.664132 164.986062 
L 298.202975 163.978001 
L 298.520331 163.747585 
L 299.472397 163.457838 
L 300.741818 163.105569 
L 301.693884 162.688562 
L 302.01124 162.304833 
L 305.502149 161.004095 
L 305.819504 160.743022 
L 306.77157 160.46468 
L 307.088926 160.23289 
L 307.723636 160.053874 
L 308.358347 159.769721 
L 308.675702 159.671248 
L 308.993058 159.407812 
L 309.627769 159.193751 
L 311.214545 158.6974 
L 312.166612 158.285444 
L 312.801322 158.1123 
L 313.118678 158.039561 
L 313.753388 157.57693 
L 314.388099 157.375402 
L 315.657521 156.885301 
L 317.561653 156.18165 
L 318.196364 155.84337 
L 319.78314 155.199716 
L 320.417851 154.868553 
L 321.052562 154.662002 
L 322.004628 154.034092 
L 322.639339 153.863574 
L 323.27405 153.543423 
L 326.447603 152.082278 
L 326.764959 152.034247 
L 327.399669 151.791447 
L 328.351736 151.395413 
L 328.986446 150.973237 
L 329.621157 150.67487 
L 333.429421 148.92083 
L 334.698843 148.357107 
L 335.650909 148.012078 
L 338.824463 146.504004 
L 339.141818 146.163103 
L 340.093884 145.833548 
L 340.728595 145.249752 
L 343.584793 144.039034 
L 344.219504 143.511593 
L 345.488926 143.060822 
L 346.758347 142.38355 
L 347.075702 142.096065 
L 348.345124 141.639107 
L 349.614545 140.845686 
L 350.566612 140.249747 
L 351.836033 139.482286 
L 352.470744 139.207908 
L 354.057521 137.814486 
L 355.009587 137.571895 
L 358.500496 135.440803 
L 359.135207 135.234382 
L 359.452562 135.068804 
L 359.769917 134.676346 
L 360.087273 134.601977 
L 361.039339 133.930637 
L 361.356694 133.801854 
L 361.67405 133.45995 
L 361.991405 133.33942 
L 362.943471 132.382786 
L 363.895537 131.730508 
L 364.847603 131.127366 
L 366.43438 129.758277 
L 366.751736 129.599176 
L 367.386446 129.477351 
L 367.703802 129.259359 
L 368.655868 128.22021 
L 370.56 126.966661 
L 371.194711 126.62634 
L 371.512066 125.985938 
L 371.829421 125.599995 
L 372.464132 125.220717 
L 373.098843 124.571245 
L 373.416198 124.435186 
L 374.368264 123.707057 
L 375.320331 123.048382 
L 375.637686 122.733789 
L 375.955041 122.223709 
L 376.272397 122.094113 
L 376.907107 121.143025 
L 377.541818 120.829062 
L 379.763306 119.243909 
L 380.080661 118.514277 
L 380.398017 118.30545 
L 381.667438 116.918556 
L 383.254215 115.357234 
L 383.888926 114.599937 
L 384.206281 114.451917 
L 384.523636 113.801114 
L 384.840992 113.484221 
L 385.475702 112.35633 
L 386.110413 111.786169 
L 386.427769 110.88464 
L 387.379835 109.782976 
L 388.014545 108.603168 
L 388.649256 107.944003 
L 388.966612 106.734632 
L 389.283967 106.560715 
L 389.918678 105.560127 
L 390.236033 104.370683 
L 390.553388 104.178057 
L 390.870744 103.38136 
L 391.188099 102.97401 
L 391.505455 101.781997 
L 391.82281 101.402263 
L 392.457521 99.259522 
L 392.774876 99.061127 
L 393.092231 98.007706 
L 393.409587 97.465446 
L 393.726942 96.683199 
L 394.044298 95.342068 
L 394.361653 95.186976 
L 394.679008 94.610922 
L 394.996364 93.476864 
L 395.313719 92.871095 
L 395.631074 92.577083 
L 396.265785 87.977313 
L 396.58314 86.783339 
L 396.900496 83.571497 
L 397.535207 80.287636 
L 398.169917 70.553691 
L 398.487273 66.098505 
L 398.487273 66.098505 
" clip-path="url(#pabdeb98439)" style="fill: none; stroke: #1f77b4; stroke-width: 1.5; stroke-linecap: square"/>
   </g>
   <g id="line2d_16">
    <path d="M 73.832727 279.114822 
L 74.150083 266.831022 
L 74.467438 265.628586 
L 74.784793 262.138994 
L 75.102149 256.703849 
L 75.419504 254.547222 
L 76.054215 252.032542 
L 76.37157 249.855197 
L 76.688926 249.855196 
L 77.006281 248.774065 
L 77.323636 245.215239 
L 77.640992 244.420052 
L 77.958347 243.099016 
L 78.275702 242.263427 
L 78.593058 242.263423 
L 78.910413 241.060989 
L 79.227769 241.018779 
L 80.179835 237.571398 
L 80.49719 237.571398 
L 81.131901 236.490267 
L 81.449256 236.155784 
L 82.718678 232.93144 
L 83.036033 232.286671 
L 83.353388 232.136254 
L 83.670744 231.828406 
L 83.988099 230.898475 
L 84.305455 230.815221 
L 84.62281 229.979627 
L 84.940165 229.979623 
L 85.257521 229.451285 
L 85.574876 229.386664 
L 85.892231 228.777191 
L 86.209587 228.734978 
L 86.526942 228.46327 
L 86.844298 227.823002 
L 87.479008 226.996917 
L 88.431074 225.287601 
L 88.74843 225.2876 
L 89.065785 224.652548 
L 89.700496 224.206469 
L 90.335207 223.871988 
L 90.969917 222.387857 
L 91.604628 222.348308 
L 91.921983 222.183603 
L 92.87405 220.771769 
L 93.191405 220.647642 
L 93.50876 220.00287 
L 93.826116 219.852457 
L 95.095537 218.70251 
L 96.047603 218.421585 
L 96.364959 217.695827 
L 96.682314 217.695824 
L 96.999669 217.329109 
L 97.63438 217.102862 
L 97.951736 216.493393 
L 98.269091 216.451178 
L 98.586446 216.179473 
L 98.903802 216.172969 
L 99.221157 215.760922 
L 100.173223 215.429599 
L 100.490579 215.18115 
L 100.807934 214.713115 
L 101.125289 214.523809 
L 101.76 213.833479 
L 102.077355 213.731275 
L 102.394711 213.016143 
L 103.029421 213.003802 
L 103.346777 212.368747 
L 103.981488 211.922671 
L 104.616198 211.736309 
L 104.933554 211.588192 
L 105.250909 210.743397 
L 105.88562 210.53647 
L 106.202975 210.232156 
L 106.520331 210.104055 
L 107.155041 210.064514 
L 107.472397 209.899807 
L 107.789752 209.445192 
L 108.107107 209.387223 
L 108.424463 209.146098 
L 108.741818 209.0828 
L 109.693884 208.404303 
L 110.328595 208.327314 
L 110.64595 207.71907 
L 110.963306 207.56866 
L 111.280661 207.260817 
L 111.598017 207.235106 
L 112.550083 206.707869 
L 114.13686 206.137788 
L 114.454215 205.451019 
L 115.088926 205.412026 
L 115.406281 205.045312 
L 116.040992 204.819061 
L 116.358347 204.792159 
L 116.675702 204.209595 
L 116.993058 204.167379 
L 117.310413 203.895675 
L 117.627769 203.889171 
L 117.945124 203.477126 
L 118.579835 203.394463 
L 119.214545 203.255399 
L 120.483967 203.029731 
L 120.801322 202.897352 
L 121.436033 202.429315 
L 121.753388 202.240014 
L 122.070744 202.182957 
L 122.705455 201.696848 
L 123.340165 201.450366 
L 123.657521 201.447477 
L 123.974876 200.732348 
L 124.926942 200.614447 
L 126.196364 199.836334 
L 126.513719 199.819069 
L 126.831074 199.659501 
L 127.465785 199.589088 
L 128.100496 199.304395 
L 128.417851 198.459599 
L 129.052562 198.329014 
L 129.369917 198.252677 
L 129.687273 197.820254 
L 130.321983 197.780718 
L 131.591405 197.161391 
L 131.90876 197.103424 
L 132.226116 196.862302 
L 132.543471 196.799001 
L 132.860826 196.539007 
L 133.178182 196.452009 
L 133.495537 196.204172 
L 134.447603 196.043516 
L 134.764959 195.43527 
L 135.717025 195.173246 
L 136.03438 194.977023 
L 136.351736 194.951313 
L 137.303802 194.453719 
L 138.890579 194.258715 
L 139.842645 194.066694 
L 140.477355 193.963833 
L 140.794711 193.853991 
L 141.112066 193.270109 
L 141.746777 193.128229 
L 142.064132 193.128228 
L 142.381488 192.768467 
L 142.698843 192.761516 
L 143.333554 192.535261 
L 143.968264 192.43231 
L 144.28562 191.925796 
L 144.602975 191.88358 
L 144.920331 191.611878 
L 145.237686 191.605373 
L 145.555041 191.476868 
L 145.872397 191.19333 
L 146.507107 191.110665 
L 147.141818 190.971598 
L 148.728595 190.745934 
L 149.998017 190.145516 
L 150.315372 189.956218 
L 150.632727 189.899158 
L 150.950083 189.607228 
L 151.584793 189.58824 
L 151.902149 189.265881 
L 152.854215 188.921933 
L 153.488926 188.448553 
L 154.758347 188.330648 
L 155.710413 187.822842 
L 156.027769 187.801147 
L 156.662479 187.402526 
L 157.614545 187.305292 
L 158.249256 187.083721 
L 158.883967 187.020599 
L 159.201322 186.298981 
L 159.836033 186.058327 
L 161.105455 185.968883 
L 161.740165 185.890786 
L 162.057521 185.536453 
L 162.692231 185.496922 
L 163.326942 185.244218 
L 163.644298 185.222851 
L 163.961653 184.883804 
L 164.596364 184.819626 
L 164.913719 184.61167 
L 165.54843 184.515203 
L 166.18314 184.255207 
L 168.087273 183.759717 
L 168.404628 183.151471 
L 170.30876 182.66752 
L 170.626116 182.179793 
L 171.578182 182.046862 
L 174.117025 181.680036 
L 174.751736 181.500327 
L 175.069091 181.159914 
L 176.338512 180.84443 
L 176.655868 180.84443 
L 176.973223 180.484669 
L 177.290579 180.47772 
L 177.925289 180.251462 
L 179.194711 180.039066 
L 179.512066 179.641998 
L 180.464132 179.541879 
L 180.781488 179.32808 
L 181.098843 179.321576 
L 181.416198 179.193064 
L 181.733554 178.909533 
L 182.050909 178.884767 
L 182.368264 178.715866 
L 184.272397 178.462141 
L 184.907107 178.22234 
L 185.859174 178.023626 
L 186.176529 177.870355 
L 186.81124 177.852853 
L 187.763306 177.323427 
L 188.398017 177.304444 
L 188.715372 176.982082 
L 189.032727 176.882765 
L 189.667438 176.430904 
L 190.619504 176.152412 
L 191.57157 176.046851 
L 191.888926 176.038812 
L 192.206281 175.881381 
L 192.840992 175.840002 
L 193.158347 175.618866 
L 194.110413 175.517348 
L 194.745124 175.091907 
L 195.379835 175.021496 
L 195.69719 174.884921 
L 196.966612 174.736802 
L 197.283967 174.015176 
L 197.601322 173.77453 
L 199.188099 173.606979 
L 199.505455 173.574722 
L 200.140165 173.252653 
L 200.774876 173.213125 
L 201.409587 172.960423 
L 201.726942 172.939046 
L 202.044298 172.60854 
L 203.313719 172.535828 
L 203.631074 172.32787 
L 204.265785 172.231404 
L 204.58314 172.044591 
L 205.535207 171.932097 
L 206.169917 171.840266 
L 206.804628 171.512453 
L 207.121983 171.475918 
L 207.439339 171.257243 
L 207.756694 170.783367 
L 209.343471 170.409436 
L 209.660826 169.895993 
L 211.564959 169.729227 
L 213.469091 169.479477 
L 214.421157 169.216523 
L 214.738512 168.876119 
L 215.373223 168.769702 
L 215.690579 168.750041 
L 216.007934 168.560632 
L 216.642645 168.505117 
L 216.96 168.437735 
L 217.277355 168.200872 
L 217.912066 168.111033 
L 218.546777 167.864719 
L 219.181488 167.755261 
L 219.816198 167.3582 
L 221.08562 167.258084 
L 221.402975 167.078311 
L 222.355041 166.909262 
L 222.672397 166.625736 
L 222.989752 166.60097 
L 223.307107 166.432073 
L 224.893884 166.221751 
L 225.21124 166.140447 
L 225.528595 165.938548 
L 226.480661 165.739827 
L 227.432727 165.33156 
L 227.750083 165.260996 
L 228.067438 165.039628 
L 229.019504 164.887154 
L 229.33686 164.698283 
L 229.97157 164.598965 
L 230.606281 164.147098 
L 231.558347 163.868615 
L 232.510413 163.763054 
L 233.145124 163.694262 
L 234.731901 163.255253 
L 235.049256 163.233549 
L 235.683967 162.808109 
L 236.318678 162.737701 
L 236.636033 162.601126 
L 237.905455 162.453005 
L 238.22281 161.731371 
L 238.540165 161.490733 
L 240.761653 161.290927 
L 241.396364 160.968853 
L 242.031074 160.896506 
L 242.98314 160.324736 
L 243.935207 160.252031 
L 244.252562 160.04407 
L 244.887273 159.947606 
L 245.204628 159.760805 
L 246.156694 159.648293 
L 246.791405 159.556463 
L 247.10876 159.352775 
L 248.695537 158.973444 
L 249.964959 158.439905 
L 250.599669 158.321864 
L 250.917025 158.145964 
L 251.23438 158.125642 
L 251.551736 157.750796 
L 251.869091 157.605524 
L 252.821157 157.57268 
L 253.455868 157.453182 
L 255.36 157.19568 
L 255.994711 156.592323 
L 257.264132 156.466247 
L 257.581488 156.276834 
L 258.533554 156.221312 
L 258.850909 155.917075 
L 259.48562 155.827227 
L 260.120331 155.536115 
L 260.437686 155.471457 
L 261.072397 155.053087 
L 261.707107 154.974288 
L 262.659174 154.777294 
L 263.61124 154.625461 
L 264.24595 154.14828 
L 265.832727 153.937954 
L 268.054215 153.285268 
L 268.37157 153.047761 
L 269.323636 152.755829 
L 270.593058 152.315165 
L 270.910413 151.756634 
L 275.353388 150.701147 
L 275.670744 150.524311 
L 275.988099 150.512802 
L 276.305455 150.317331 
L 277.574876 150.207373 
L 278.526942 149.83928 
L 279.161653 149.193812 
L 279.796364 149.120153 
L 280.74843 149.007131 
L 281.700496 148.685054 
L 282.017851 148.685053 
L 282.335207 148.507145 
L 282.652562 148.075635 
L 283.921983 147.968234 
L 284.556694 147.663809 
L 288.364959 146.689645 
L 289.317025 146.274136 
L 290.586446 146.03807 
L 291.221157 145.321724 
L 292.173223 145.169388 
L 293.76 144.931504 
L 294.394711 144.280219 
L 296.298843 143.937508 
L 296.933554 143.633278 
L 297.568264 143.543424 
L 298.202975 143.252313 
L 298.520331 143.187654 
L 299.155041 142.769293 
L 299.472397 142.76305 
L 300.107107 142.511984 
L 300.741818 142.470184 
L 301.376529 142.328636 
L 302.01124 142.033375 
L 302.64595 141.67829 
L 303.598017 141.572857 
L 304.232727 141.370961 
L 304.867438 141.306265 
L 305.502149 140.82356 
L 307.088926 140.472031 
L 307.723636 140.319555 
L 308.675702 140.031366 
L 308.993058 139.651936 
L 309.945124 139.21281 
L 310.579835 139.126672 
L 310.89719 138.859258 
L 312.166612 138.605238 
L 312.801322 138.255474 
L 313.436033 138.216318 
L 314.070744 137.937261 
L 314.705455 137.819172 
L 315.340165 137.163765 
L 315.657521 136.843204 
L 316.926942 136.739147 
L 317.561653 136.401255 
L 318.196364 136.353502 
L 318.513719 135.79183 
L 319.78314 135.672884 
L 320.417851 135.380011 
L 320.735207 135.303953 
L 321.052562 135.08069 
L 321.687273 135.021951 
L 322.004628 134.726433 
L 322.956694 134.607284 
L 323.90876 134.36156 
L 325.495537 133.8546 
L 325.812893 133.443345 
L 326.130248 133.405357 
L 326.447603 133.037924 
L 327.082314 132.911667 
L 328.03438 132.711491 
L 328.351736 132.341921 
L 329.303802 131.942581 
L 330.573223 131.851631 
L 330.890579 131.702262 
L 331.525289 131.08937 
L 332.16 130.96851 
L 332.477355 130.903852 
L 332.794711 130.485498 
L 333.429421 130.426623 
L 334.381488 130.2097 
L 334.698843 130.20068 
L 336.920331 129.144297 
L 337.237686 129.087166 
L 337.555041 128.539772 
L 338.824463 128.201467 
L 339.776529 127.747568 
L 340.093884 127.269611 
L 341.363306 126.903603 
L 341.680661 126.575466 
L 342.315372 126.512967 
L 342.632727 126.321438 
L 342.950083 126.314758 
L 343.267438 126.133555 
L 343.584793 126.115466 
L 344.219504 125.945198 
L 344.53686 125.932524 
L 345.17157 125.653462 
L 345.806281 125.535377 
L 346.123636 125.271673 
L 346.440992 124.559402 
L 347.075702 124.551583 
L 347.710413 124.117455 
L 348.027769 124.069695 
L 348.345124 123.473324 
L 348.979835 123.192675 
L 349.931901 122.779192 
L 350.566612 122.73814 
L 350.883967 122.323486 
L 351.201322 122.144177 
L 351.836033 122.077773 
L 352.153388 121.910469 
L 352.470744 121.884813 
L 353.105455 121.570806 
L 353.42281 121.15955 
L 353.740165 121.121548 
L 354.057521 120.754124 
L 354.692231 120.62787 
L 355.009587 120.454459 
L 355.326942 120.058116 
L 355.961653 119.894248 
L 356.596364 119.658779 
L 357.231074 119.567829 
L 357.54843 119.433631 
L 358.18314 118.794998 
L 358.500496 118.684709 
L 358.817851 118.201705 
L 359.135207 117.925904 
L 359.452562 117.916895 
L 360.087273 117.651336 
L 360.404628 116.990716 
L 361.039339 116.860499 
L 361.356694 116.255983 
L 363.895537 115.294944 
L 364.530248 114.645212 
L 366.43438 113.687869 
L 367.069091 113.64873 
L 367.703802 113.317054 
L 368.021157 112.606572 
L 368.338512 112.2756 
L 368.655868 112.26876 
L 369.290579 111.189521 
L 369.925289 110.908878 
L 370.877355 110.495385 
L 371.194711 110.039688 
L 371.829421 109.626681 
L 372.146777 109.601016 
L 372.464132 109.422737 
L 373.098843 108.470324 
L 373.416198 108.146117 
L 373.733554 107.610443 
L 374.368264 107.374977 
L 375.002975 107.284028 
L 375.320331 107.149818 
L 375.637686 106.511184 
L 375.955041 106.400907 
L 376.907107 105.642109 
L 377.224463 105.63311 
L 377.541818 105.477224 
L 377.859174 104.70691 
L 378.493884 104.576699 
L 378.81124 103.763855 
L 379.128595 103.752464 
L 379.44595 103.011158 
L 380.398017 101.989074 
L 381.350083 101.404068 
L 381.667438 101.377596 
L 382.302149 101.03325 
L 382.619504 100.322777 
L 382.93686 99.900874 
L 383.254215 98.905718 
L 383.57157 98.891781 
L 383.888926 98.452557 
L 384.206281 98.21158 
L 384.840992 97.342892 
L 385.158347 97.301937 
L 385.793058 96.868879 
L 386.110413 96.553932 
L 386.745124 95.353009 
L 387.062479 95.091176 
L 387.69719 94.866007 
L 388.014545 93.608133 
L 388.331901 93.193422 
L 388.649256 92.423104 
L 388.966612 92.306273 
L 389.283967 91.480052 
L 389.601322 91.468668 
L 390.553388 89.120268 
L 390.870744 89.093795 
L 391.188099 88.185557 
L 391.505455 88.051776 
L 391.82281 88.038981 
L 392.140165 85.927775 
L 392.457521 85.018138 
L 393.409587 83.578504 
L 393.726942 82.716429 
L 394.361653 80.139299 
L 394.679008 79.196251 
L 394.996364 78.98247 
L 395.313719 78.135638 
L 395.631074 77.630454 
L 396.265785 73.643971 
L 396.58314 72.734339 
L 396.900496 72.301277 
L 397.217851 65.851819 
L 397.535207 65.346647 
L 397.852562 63.484163 
L 398.487273 53.568 
L 398.487273 53.568 
" clip-path="url(#pabdeb98439)" style="fill: none; stroke: #ff7f0e; stroke-width: 1.5; stroke-linecap: square"/>
   </g>
   <g id="patch_3">
    <path d="M 57.6 307.584 
L 57.6 41.472 
" style="fill: none; stroke: #000000; stroke-width: 0.8; stroke-linejoin: miter; stroke-linecap: square"/>
   </g>
   <g id="patch_4">
    <path d="M 414.72 307.584 
L 414.72 41.472 
" style="fill: none; stroke: #000000; stroke-width: 0.8; stroke-linejoin: miter; stroke-linecap: square"/>
   </g>
   <g id="patch_5">
    <path d="M 57.6 307.584 
L 414.72 307.584 
" style="fill: none; stroke: #000000; stroke-width: 0.8; stroke-linejoin: miter; stroke-linecap: square"/>
   </g>
   <g id="patch_6">
    <path d="M 57.6 41.472 
L 414.72 41.472 
" style="fill: none; stroke: #000000; stroke-width: 0.8; stroke-linejoin: miter; stroke-linecap: square"/>
   </g>
   <g id="legend_1">
    <g id="patch_7">
     <path d="M 64.6 78.82825 
L 129.342187 78.82825 
Q 131.342187 78.82825 131.342187 76.82825 
L 131.342187 48.472 
Q 131.342187 46.472 129.342187 46.472 
L 64.6 46.472 
Q 62.6 46.472 62.6 48.472 
L 62.6 76.82825 
Q 62.6 78.82825 64.6 78.82825 
z
" style="fill: #ffffff; opacity: 0.8; stroke: #cccccc; stroke-linejoin: miter"/>
    </g>
    <g id="line2d_17">
     <path d="M 66.6 54.570437 
L 76.6 54.570437 
L 86.6 54.570437 
" style="fill: none; stroke: #1f77b4; stroke-width: 1.5; stroke-linecap: square"/>
    </g>
    <g id="text_17">
     <!-- qc -->
     <g transform="translate(94.6 58.070437) scale(0.1 -0.1)">
      <defs>
       <path id="DejaVuSans-71" d="M 947 1747 
Q 947 1113 1208 752 
Q 1469 391 1925 391 
Q 2381 391 2643 752 
Q 2906 1113 2906 1747 
Q 2906 2381 2643 2742 
Q 2381 3103 1925 3103 
Q 1469 3103 1208 2742 
Q 947 2381 947 1747 
z
M 2906 525 
Q 2725 213 2448 61 
Q 2172 -91 1784 -91 
Q 1150 -91 751 415 
Q 353 922 353 1747 
Q 353 2572 751 3078 
Q 1150 3584 1784 3584 
Q 2172 3584 2448 3432 
Q 2725 3281 2906 2969 
L 2906 3500 
L 3481 3500 
L 3481 -1331 
L 2906 -1331 
L 2906 525 
z
" transform="scale(0.015625)"/>
       <path id="DejaVuSans-63" d="M 3122 3366 
L 3122 2828 
Q 2878 2963 2633 3030 
Q 2388 3097 2138 3097 
Q 1578 3097 1268 2742 
Q 959 2388 959 1747 
Q 959 1106 1268 751 
Q 1578 397 2138 397 
Q 2388 397 2633 464 
Q 2878 531 3122 666 
L 3122 134 
Q 2881 22 2623 -34 
Q 2366 -91 2075 -91 
Q 1284 -91 818 406 
Q 353 903 353 1747 
Q 353 2603 823 3093 
Q 1294 3584 2113 3584 
Q 2378 3584 2631 3529 
Q 2884 3475 3122 3366 
z
" transform="scale(0.015625)"/>
      </defs>
      <use xlink:href="#DejaVuSans-71"/>
      <use xlink:href="#DejaVuSans-63" x="63.476562"/>
     </g>
    </g>
    <g id="line2d_18">
     <path d="M 66.6 69.248562 
L 76.6 69.248562 
L 86.6 69.248562 
" style="fill: none; stroke: #ff7f0e; stroke-width: 1.5; stroke-linecap: square"/>
    </g>
    <g id="text_18">
     <!-- Trotter -->
     <g transform="translate(94.6 72.748562) scale(0.1 -0.1)">
      <defs>
       <path id="DejaVuSans-54" d="M -19 4666 
L 3928 4666 
L 3928 4134 
L 2272 4134 
L 2272 0 
L 1638 0 
L 1638 4134 
L -19 4134 
L -19 4666 
z
" transform="scale(0.015625)"/>
       <path id="DejaVuSans-72" d="M 2631 2963 
Q 2534 3019 2420 3045 
Q 2306 3072 2169 3072 
Q 1681 3072 1420 2755 
Q 1159 2438 1159 1844 
L 1159 0 
L 581 0 
L 581 3500 
L 1159 3500 
L 1159 2956 
Q 1341 3275 1631 3429 
Q 1922 3584 2338 3584 
Q 2397 3584 2469 3576 
Q 2541 3569 2628 3553 
L 2631 2963 
z
" transform="scale(0.015625)"/>
       <path id="DejaVuSans-6f" d="M 1959 3097 
Q 1497 3097 1228 2736 
Q 959 2375 959 1747 
Q 959 1119 1226 758 
Q 1494 397 1959 397 
Q 2419 397 2687 759 
Q 2956 1122 2956 1747 
Q 2956 2369 2687 2733 
Q 2419 3097 1959 3097 
z
M 1959 3584 
Q 2709 3584 3137 3096 
Q 3566 2609 3566 1747 
Q 3566 888 3137 398 
Q 2709 -91 1959 -91 
Q 1206 -91 779 398 
Q 353 888 353 1747 
Q 353 2609 779 3096 
Q 1206 3584 1959 3584 
z
" transform="scale(0.015625)"/>
       <path id="DejaVuSans-65" d="M 3597 1894 
L 3597 1613 
L 953 1613 
Q 991 1019 1311 708 
Q 1631 397 2203 397 
Q 2534 397 2845 478 
Q 3156 559 3463 722 
L 3463 178 
Q 3153 47 2828 -22 
Q 2503 -91 2169 -91 
Q 1331 -91 842 396 
Q 353 884 353 1716 
Q 353 2575 817 3079 
Q 1281 3584 2069 3584 
Q 2775 3584 3186 3129 
Q 3597 2675 3597 1894 
z
M 3022 2063 
Q 3016 2534 2758 2815 
Q 2500 3097 2075 3097 
Q 1594 3097 1305 2825 
Q 1016 2553 972 2059 
L 3022 2063 
z
" transform="scale(0.015625)"/>
      </defs>
      <use xlink:href="#DejaVuSans-54"/>
      <use xlink:href="#DejaVuSans-72" x="46.333984"/>
      <use xlink:href="#DejaVuSans-6f" x="85.197266"/>
      <use xlink:href="#DejaVuSans-74" x="146.378906"/>
      <use xlink:href="#DejaVuSans-74" x="185.587891"/>
      <use xlink:href="#DejaVuSans-65" x="224.796875"/>
      <use xlink:href="#DejaVuSans-72" x="286.320312"/>
     </g>
    </g>
   </g>
  </g>
 </g>
 <defs>
  <clipPath id="pabdeb98439">
   <rect x="57.6" y="41.472" width="357.12" height="266.112"/>
  </clipPath>
 </defs>
</svg>
