<?xml version="1.0" encoding="utf-8" standalone="no"?>
<!DOCTYPE svg PUBLIC "-//W3C//DTD SVG 1.1//EN"
  "http://www.w3.org/Graphics/SVG/1.1/DTD/svg11.dtd">
<svg xmlns:xlink="http://www.w3.org/1999/xlink" width="460.8pt" height="345.6pt" viewBox="0 0 460.8 345.6" xmlns="http://www.w3.org/2000/svg" version="1.1">
 <metadata>
  <rdf:RDF xmlns:dc="http://purl.org/dc/elements/1.1/" xmlns:cc="http://creativecommons.org/ns#" xmlns:rdf="http://www.w3.org/1999/02/22-rdf-syntax-ns#">
   <cc:Work>
    <dc:type rdf:resource="http://purl.org/dc/dcmitype/StillImage"/>
    <dc:date>2024-05-31T10:43:53.968709</dc:date>
    <dc:format>image/svg+xml</dc:format>
    <dc:creator>
     <cc:Agent>
      <dc:title>Matplotlib v3.7.1, https://matplotlib.org/</dc:title>
     </cc:Agent>
    </dc:creator>
   </cc:Work>
  </rdf:RDF>
 </metadata>
 <defs>
  <style type="text/css">*{stroke-linejoin: round; stroke-linecap: butt}</style>
 </defs>
 <g id="figure_1">
  <g id="patch_1">
   <path d="M 0 345.6 
L 460.8 345.6 
L 460.8 0 
L 0 0 
z
" style="fill: #ffffff"/>
  </g>
  <g id="axes_1">
   <g id="patch_2">
    <path d="M 57.6 307.584 
L 414.72 307.584 
L 414.72 41.472 
L 57.6 41.472 
z
" style="fill: #ffffff"/>
   </g>
   <g id="matplotlib.axis_1">
    <g id="xtick_1">
     <g id="line2d_1">
      <defs>
       <path id="mb8401538a0" d="M 0 0 
L 0 3.5 
" style="stroke: #000000; stroke-width: 0.8"/>
      </defs>
      <g>
       <use xlink:href="#mb8401538a0" x="73.832727" y="307.584" style="stroke: #000000; stroke-width: 0.8"/>
      </g>
     </g>
     <g id="text_1">
      <!-- 0 -->
      <g transform="translate(70.651477 322.182437) scale(0.1 -0.1)">
       <defs>
        <path id="DejaVuSans-30" d="M 2034 4250 
Q 1547 4250 1301 3770 
Q 1056 3291 1056 2328 
Q 1056 1369 1301 889 
Q 1547 409 2034 409 
Q 2525 409 2770 889 
Q 3016 1369 3016 2328 
Q 3016 3291 2770 3770 
Q 2525 4250 2034 4250 
z
M 2034 4750 
Q 2819 4750 3233 4129 
Q 3647 3509 3647 2328 
Q 3647 1150 3233 529 
Q 2819 -91 2034 -91 
Q 1250 -91 836 529 
Q 422 1150 422 2328 
Q 422 3509 836 4129 
Q 1250 4750 2034 4750 
z
" transform="scale(0.015625)"/>
       </defs>
       <use xlink:href="#DejaVuSans-30"/>
      </g>
     </g>
    </g>
    <g id="xtick_2">
     <g id="line2d_2">
      <g>
       <use xlink:href="#mb8401538a0" x="137.303802" y="307.584" style="stroke: #000000; stroke-width: 0.8"/>
      </g>
     </g>
     <g id="text_2">
      <!-- 200 -->
      <g transform="translate(127.760052 322.182437) scale(0.1 -0.1)">
       <defs>
        <path id="DejaVuSans-32" d="M 1228 531 
L 3431 531 
L 3431 0 
L 469 0 
L 469 531 
Q 828 903 1448 1529 
Q 2069 2156 2228 2338 
Q 2531 2678 2651 2914 
Q 2772 3150 2772 3378 
Q 2772 3750 2511 3984 
Q 2250 4219 1831 4219 
Q 1534 4219 1204 4116 
Q 875 4013 500 3803 
L 500 4441 
Q 881 4594 1212 4672 
Q 1544 4750 1819 4750 
Q 2544 4750 2975 4387 
Q 3406 4025 3406 3419 
Q 3406 3131 3298 2873 
Q 3191 2616 2906 2266 
Q 2828 2175 2409 1742 
Q 1991 1309 1228 531 
z
" transform="scale(0.015625)"/>
       </defs>
       <use xlink:href="#DejaVuSans-32"/>
       <use xlink:href="#DejaVuSans-30" x="63.623047"/>
       <use xlink:href="#DejaVuSans-30" x="127.246094"/>
      </g>
     </g>
    </g>
    <g id="xtick_3">
     <g id="line2d_3">
      <g>
       <use xlink:href="#mb8401538a0" x="200.774876" y="307.584" style="stroke: #000000; stroke-width: 0.8"/>
      </g>
     </g>
     <g id="text_3">
      <!-- 400 -->
      <g transform="translate(191.231126 322.182437) scale(0.1 -0.1)">
       <defs>
        <path id="DejaVuSans-34" d="M 2419 4116 
L 825 1625 
L 2419 1625 
L 2419 4116 
z
M 2253 4666 
L 3047 4666 
L 3047 1625 
L 3713 1625 
L 3713 1100 
L 3047 1100 
L 3047 0 
L 2419 0 
L 2419 1100 
L 313 1100 
L 313 1709 
L 2253 4666 
z
" transform="scale(0.015625)"/>
       </defs>
       <use xlink:href="#DejaVuSans-34"/>
       <use xlink:href="#DejaVuSans-30" x="63.623047"/>
       <use xlink:href="#DejaVuSans-30" x="127.246094"/>
      </g>
     </g>
    </g>
    <g id="xtick_4">
     <g id="line2d_4">
      <g>
       <use xlink:href="#mb8401538a0" x="264.24595" y="307.584" style="stroke: #000000; stroke-width: 0.8"/>
      </g>
     </g>
     <g id="text_4">
      <!-- 600 -->
      <g transform="translate(254.7022 322.182437) scale(0.1 -0.1)">
       <defs>
        <path id="DejaVuSans-36" d="M 2113 2584 
Q 1688 2584 1439 2293 
Q 1191 2003 1191 1497 
Q 1191 994 1439 701 
Q 1688 409 2113 409 
Q 2538 409 2786 701 
Q 3034 994 3034 1497 
Q 3034 2003 2786 2293 
Q 2538 2584 2113 2584 
z
M 3366 4563 
L 3366 3988 
Q 3128 4100 2886 4159 
Q 2644 4219 2406 4219 
Q 1781 4219 1451 3797 
Q 1122 3375 1075 2522 
Q 1259 2794 1537 2939 
Q 1816 3084 2150 3084 
Q 2853 3084 3261 2657 
Q 3669 2231 3669 1497 
Q 3669 778 3244 343 
Q 2819 -91 2113 -91 
Q 1303 -91 875 529 
Q 447 1150 447 2328 
Q 447 3434 972 4092 
Q 1497 4750 2381 4750 
Q 2619 4750 2861 4703 
Q 3103 4656 3366 4563 
z
" transform="scale(0.015625)"/>
       </defs>
       <use xlink:href="#DejaVuSans-36"/>
       <use xlink:href="#DejaVuSans-30" x="63.623047"/>
       <use xlink:href="#DejaVuSans-30" x="127.246094"/>
      </g>
     </g>
    </g>
    <g id="xtick_5">
     <g id="line2d_5">
      <g>
       <use xlink:href="#mb8401538a0" x="327.717025" y="307.584" style="stroke: #000000; stroke-width: 0.8"/>
      </g>
     </g>
     <g id="text_5">
      <!-- 800 -->
      <g transform="translate(318.173275 322.182437) scale(0.1 -0.1)">
       <defs>
        <path id="DejaVuSans-38" d="M 2034 2216 
Q 1584 2216 1326 1975 
Q 1069 1734 1069 1313 
Q 1069 891 1326 650 
Q 1584 409 2034 409 
Q 2484 409 2743 651 
Q 3003 894 3003 1313 
Q 3003 1734 2745 1975 
Q 2488 2216 2034 2216 
z
M 1403 2484 
Q 997 2584 770 2862 
Q 544 3141 544 3541 
Q 544 4100 942 4425 
Q 1341 4750 2034 4750 
Q 2731 4750 3128 4425 
Q 3525 4100 3525 3541 
Q 3525 3141 3298 2862 
Q 3072 2584 2669 2484 
Q 3125 2378 3379 2068 
Q 3634 1759 3634 1313 
Q 3634 634 3220 271 
Q 2806 -91 2034 -91 
Q 1263 -91 848 271 
Q 434 634 434 1313 
Q 434 1759 690 2068 
Q 947 2378 1403 2484 
z
M 1172 3481 
Q 1172 3119 1398 2916 
Q 1625 2713 2034 2713 
Q 2441 2713 2670 2916 
Q 2900 3119 2900 3481 
Q 2900 3844 2670 4047 
Q 2441 4250 2034 4250 
Q 1625 4250 1398 4047 
Q 1172 3844 1172 3481 
z
" transform="scale(0.015625)"/>
       </defs>
       <use xlink:href="#DejaVuSans-38"/>
       <use xlink:href="#DejaVuSans-30" x="63.623047"/>
       <use xlink:href="#DejaVuSans-30" x="127.246094"/>
      </g>
     </g>
    </g>
    <g id="xtick_6">
     <g id="line2d_6">
      <g>
       <use xlink:href="#mb8401538a0" x="391.188099" y="307.584" style="stroke: #000000; stroke-width: 0.8"/>
      </g>
     </g>
     <g id="text_6">
      <!-- 1000 -->
      <g transform="translate(378.463099 322.182437) scale(0.1 -0.1)">
       <defs>
        <path id="DejaVuSans-31" d="M 794 531 
L 1825 531 
L 1825 4091 
L 703 3866 
L 703 4441 
L 1819 4666 
L 2450 4666 
L 2450 531 
L 3481 531 
L 3481 0 
L 794 0 
L 794 531 
z
" transform="scale(0.015625)"/>
       </defs>
       <use xlink:href="#DejaVuSans-31"/>
       <use xlink:href="#DejaVuSans-30" x="63.623047"/>
       <use xlink:href="#DejaVuSans-30" x="127.246094"/>
       <use xlink:href="#DejaVuSans-30" x="190.869141"/>
      </g>
     </g>
    </g>
    <g id="text_7">
     <!-- n -->
     <g transform="translate(232.99125 335.860562) scale(0.1 -0.1)">
      <defs>
       <path id="DejaVuSans-6e" d="M 3513 2113 
L 3513 0 
L 2938 0 
L 2938 2094 
Q 2938 2591 2744 2837 
Q 2550 3084 2163 3084 
Q 1697 3084 1428 2787 
Q 1159 2491 1159 1978 
L 1159 0 
L 581 0 
L 581 3500 
L 1159 3500 
L 1159 2956 
Q 1366 3272 1645 3428 
Q 1925 3584 2291 3584 
Q 2894 3584 3203 3211 
Q 3513 2838 3513 2113 
z
" transform="scale(0.015625)"/>
      </defs>
      <use xlink:href="#DejaVuSans-6e"/>
     </g>
    </g>
   </g>
   <g id="matplotlib.axis_2">
    <g id="ytick_1">
     <g id="line2d_7">
      <defs>
       <path id="mc363406d28" d="M 0 0 
L -3.5 0 
" style="stroke: #000000; stroke-width: 0.8"/>
      </defs>
      <g>
       <use xlink:href="#mc363406d28" x="57.6" y="277.299326" style="stroke: #000000; stroke-width: 0.8"/>
      </g>
     </g>
     <g id="text_8">
      <!-- −1.5 -->
      <g transform="translate(26.317187 281.098545) scale(0.1 -0.1)">
       <defs>
        <path id="DejaVuSans-2212" d="M 678 2272 
L 4684 2272 
L 4684 1741 
L 678 1741 
L 678 2272 
z
" transform="scale(0.015625)"/>
        <path id="DejaVuSans-2e" d="M 684 794 
L 1344 794 
L 1344 0 
L 684 0 
L 684 794 
z
" transform="scale(0.015625)"/>
        <path id="DejaVuSans-35" d="M 691 4666 
L 3169 4666 
L 3169 4134 
L 1269 4134 
L 1269 2991 
Q 1406 3038 1543 3061 
Q 1681 3084 1819 3084 
Q 2600 3084 3056 2656 
Q 3513 2228 3513 1497 
Q 3513 744 3044 326 
Q 2575 -91 1722 -91 
Q 1428 -91 1123 -41 
Q 819 9 494 109 
L 494 744 
Q 775 591 1075 516 
Q 1375 441 1709 441 
Q 2250 441 2565 725 
Q 2881 1009 2881 1497 
Q 2881 1984 2565 2268 
Q 2250 2553 1709 2553 
Q 1456 2553 1204 2497 
Q 953 2441 691 2322 
L 691 4666 
z
" transform="scale(0.015625)"/>
       </defs>
       <use xlink:href="#DejaVuSans-2212"/>
       <use xlink:href="#DejaVuSans-31" x="83.789062"/>
       <use xlink:href="#DejaVuSans-2e" x="147.412109"/>
       <use xlink:href="#DejaVuSans-35" x="179.199219"/>
      </g>
     </g>
    </g>
    <g id="ytick_2">
     <g id="line2d_8">
      <g>
       <use xlink:href="#mc363406d28" x="57.6" y="243.452907" style="stroke: #000000; stroke-width: 0.8"/>
      </g>
     </g>
     <g id="text_9">
      <!-- −1.0 -->
      <g transform="translate(26.317187 247.252126) scale(0.1 -0.1)">
       <use xlink:href="#DejaVuSans-2212"/>
       <use xlink:href="#DejaVuSans-31" x="83.789062"/>
       <use xlink:href="#DejaVuSans-2e" x="147.412109"/>
       <use xlink:href="#DejaVuSans-30" x="179.199219"/>
      </g>
     </g>
    </g>
    <g id="ytick_3">
     <g id="line2d_9">
      <g>
       <use xlink:href="#mc363406d28" x="57.6" y="209.606488" style="stroke: #000000; stroke-width: 0.8"/>
      </g>
     </g>
     <g id="text_10">
      <!-- −0.5 -->
      <g transform="translate(26.317187 213.405707) scale(0.1 -0.1)">
       <use xlink:href="#DejaVuSans-2212"/>
       <use xlink:href="#DejaVuSans-30" x="83.789062"/>
       <use xlink:href="#DejaVuSans-2e" x="147.412109"/>
       <use xlink:href="#DejaVuSans-35" x="179.199219"/>
      </g>
     </g>
    </g>
    <g id="ytick_4">
     <g id="line2d_10">
      <g>
       <use xlink:href="#mc363406d28" x="57.6" y="175.760069" style="stroke: #000000; stroke-width: 0.8"/>
      </g>
     </g>
     <g id="text_11">
      <!-- 0.0 -->
      <g transform="translate(34.696875 179.559288) scale(0.1 -0.1)">
       <use xlink:href="#DejaVuSans-30"/>
       <use xlink:href="#DejaVuSans-2e" x="63.623047"/>
       <use xlink:href="#DejaVuSans-30" x="95.410156"/>
      </g>
     </g>
    </g>
    <g id="ytick_5">
     <g id="line2d_11">
      <g>
       <use xlink:href="#mc363406d28" x="57.6" y="141.91365" style="stroke: #000000; stroke-width: 0.8"/>
      </g>
     </g>
     <g id="text_12">
      <!-- 0.5 -->
      <g transform="translate(34.696875 145.712869) scale(0.1 -0.1)">
       <use xlink:href="#DejaVuSans-30"/>
       <use xlink:href="#DejaVuSans-2e" x="63.623047"/>
       <use xlink:href="#DejaVuSans-35" x="95.410156"/>
      </g>
     </g>
    </g>
    <g id="ytick_6">
     <g id="line2d_12">
      <g>
       <use xlink:href="#mc363406d28" x="57.6" y="108.067231" style="stroke: #000000; stroke-width: 0.8"/>
      </g>
     </g>
     <g id="text_13">
      <!-- 1.0 -->
      <g transform="translate(34.696875 111.86645) scale(0.1 -0.1)">
       <use xlink:href="#DejaVuSans-31"/>
       <use xlink:href="#DejaVuSans-2e" x="63.623047"/>
       <use xlink:href="#DejaVuSans-30" x="95.410156"/>
      </g>
     </g>
    </g>
    <g id="ytick_7">
     <g id="line2d_13">
      <g>
       <use xlink:href="#mc363406d28" x="57.6" y="74.220812" style="stroke: #000000; stroke-width: 0.8"/>
      </g>
     </g>
     <g id="text_14">
      <!-- 1.5 -->
      <g transform="translate(34.696875 78.020031) scale(0.1 -0.1)">
       <use xlink:href="#DejaVuSans-31"/>
       <use xlink:href="#DejaVuSans-2e" x="63.623047"/>
       <use xlink:href="#DejaVuSans-35" x="95.410156"/>
      </g>
     </g>
    </g>
    <g id="text_15">
     <!-- E*t -->
     <g transform="translate(20.2375 182.147531) rotate(-90) scale(0.1 -0.1)">
      <defs>
       <path id="DejaVuSans-45" d="M 628 4666 
L 3578 4666 
L 3578 4134 
L 1259 4134 
L 1259 2753 
L 3481 2753 
L 3481 2222 
L 1259 2222 
L 1259 531 
L 3634 531 
L 3634 0 
L 628 0 
L 628 4666 
z
" transform="scale(0.015625)"/>
       <path id="DejaVuSans-2a" d="M 3009 3897 
L 1888 3291 
L 3009 2681 
L 2828 2375 
L 1778 3009 
L 1778 1831 
L 1422 1831 
L 1422 3009 
L 372 2375 
L 191 2681 
L 1313 3291 
L 191 3897 
L 372 4206 
L 1422 3572 
L 1422 4750 
L 1778 4750 
L 1778 3572 
L 2828 4206 
L 3009 3897 
z
" transform="scale(0.015625)"/>
       <path id="DejaVuSans-74" d="M 1172 4494 
L 1172 3500 
L 2356 3500 
L 2356 3053 
L 1172 3053 
L 1172 1153 
Q 1172 725 1289 603 
Q 1406 481 1766 481 
L 2356 481 
L 2356 0 
L 1766 0 
Q 1100 0 847 248 
Q 594 497 594 1153 
L 594 3053 
L 172 3053 
L 172 3500 
L 594 3500 
L 594 4494 
L 1172 4494 
z
" transform="scale(0.015625)"/>
      </defs>
      <use xlink:href="#DejaVuSans-45"/>
      <use xlink:href="#DejaVuSans-2a" x="63.183594"/>
      <use xlink:href="#DejaVuSans-74" x="113.183594"/>
     </g>
    </g>
   </g>
   <g id="line2d_14">
    <path d="M 73.832727 295.488 
L 74.150083 289.645909 
L 74.467438 281.601387 
L 74.784793 280.561524 
L 75.419504 276.78061 
L 75.73686 275.755742 
L 76.054215 273.458493 
L 76.37157 272.571598 
L 77.006281 268.635123 
L 77.323636 268.207326 
L 77.958347 266.66713 
L 78.275702 264.886451 
L 78.593058 263.980345 
L 79.227769 262.894461 
L 79.545124 262.805349 
L 79.862479 261.31857 
L 80.179835 261.14901 
L 80.49719 259.909701 
L 80.814545 259.369556 
L 81.131901 258.515362 
L 81.449256 258.389825 
L 81.766612 256.638985 
L 82.718678 255.574633 
L 83.036033 255.447879 
L 83.353388 254.716014 
L 83.670744 254.345241 
L 83.988099 253.709653 
L 84.305455 253.422149 
L 84.62281 251.957233 
L 85.257521 251.628974 
L 85.574876 250.699638 
L 85.892231 250.562387 
L 86.209587 250.132768 
L 86.844298 249.919578 
L 88.113719 247.881449 
L 88.74843 247.228126 
L 89.065785 246.43192 
L 89.700496 246.166784 
L 90.017851 245.739862 
L 90.335207 245.562168 
L 90.969917 244.400071 
L 91.921983 242.623294 
L 92.239339 242.484912 
L 92.87405 241.976443 
L 93.826116 241.477273 
L 94.143471 241.359985 
L 94.460826 241.000224 
L 95.095537 240.785053 
L 95.412893 239.564642 
L 95.730248 239.280325 
L 96.047603 239.165644 
L 96.682314 238.198813 
L 96.999669 237.893929 
L 97.63438 237.709749 
L 97.951736 237.339 
L 98.586446 237.052302 
L 98.903802 236.991588 
L 99.221157 236.736108 
L 99.538512 236.674601 
L 99.855868 236.106364 
L 100.490579 235.611769 
L 100.807934 235.125329 
L 101.442645 234.697191 
L 101.76 234.160441 
L 102.712066 233.609754 
L 103.664132 232.846367 
L 104.298843 232.218139 
L 104.616198 232.141332 
L 104.933554 231.743572 
L 105.88562 231.101922 
L 106.202975 230.561261 
L 106.520331 230.49051 
L 106.837686 230.055585 
L 107.155041 229.9761 
L 108.424463 228.91201 
L 108.741818 228.615337 
L 109.693884 228.250453 
L 110.01124 227.831814 
L 110.328595 227.738057 
L 110.64595 227.519626 
L 110.963306 227.442623 
L 111.598017 226.625061 
L 111.915372 226.580711 
L 112.550083 226.199302 
L 113.184793 225.602554 
L 113.819504 225.388519 
L 116.675702 223.901905 
L 116.993058 223.396301 
L 118.579835 222.539528 
L 118.89719 222.229882 
L 122.070744 220.751618 
L 122.705455 220.110422 
L 124.609587 219.371806 
L 125.561653 218.456239 
L 126.196364 218.017688 
L 126.831074 217.771702 
L 129.369917 216.484225 
L 129.687273 215.92029 
L 130.321983 215.775528 
L 131.27405 215.185132 
L 131.90876 214.917812 
L 132.543471 214.680649 
L 132.860826 214.591969 
L 133.495537 214.217504 
L 134.447603 213.851008 
L 135.399669 213.453815 
L 136.03438 212.990648 
L 136.351736 212.876734 
L 137.621157 211.940274 
L 143.016198 209.817081 
L 143.333554 209.346874 
L 146.507107 207.81887 
L 147.141818 207.570272 
L 148.093884 207.125739 
L 149.363306 206.706476 
L 149.680661 206.415295 
L 150.950083 205.832163 
L 151.902149 205.410571 
L 153.488926 204.886693 
L 155.393058 203.876768 
L 159.201322 202.022176 
L 159.836033 201.852076 
L 160.470744 201.573271 
L 161.42281 201.135534 
L 162.692231 200.659801 
L 165.865785 199.669765 
L 166.817851 198.770255 
L 168.404628 198.288213 
L 169.039339 198.039128 
L 170.30876 197.616832 
L 170.943471 197.307338 
L 171.578182 197.076747 
L 177.290579 194.662221 
L 177.925289 194.517072 
L 178.242645 194.314221 
L 179.512066 193.988399 
L 180.146777 193.722949 
L 181.098843 193.354575 
L 182.050909 193.093115 
L 182.368264 192.807741 
L 183.320331 192.495113 
L 184.272397 192.006557 
L 184.907107 191.705478 
L 185.859174 191.382039 
L 186.176529 191.312978 
L 186.81124 190.996089 
L 190.93686 189.443108 
L 193.158347 188.817496 
L 194.427769 188.30271 
L 194.745124 188.249863 
L 195.379835 187.969174 
L 201.092231 186.106484 
L 202.044298 185.820653 
L 202.679008 185.601978 
L 203.631074 185.251569 
L 204.265785 184.90102 
L 210.612893 182.677649 
L 211.564959 182.319599 
L 217.912066 180.29687 
L 218.229421 180.062305 
L 218.864132 179.824208 
L 219.498843 179.646906 
L 220.133554 179.479362 
L 220.450909 179.36821 
L 220.768264 179.136474 
L 223.941818 178.236635 
L 224.893884 177.71431 
L 226.163306 177.452461 
L 229.654215 176.04194 
L 230.923636 175.654997 
L 231.558347 175.459337 
L 233.779835 174.770387 
L 234.09719 174.506393 
L 234.731901 174.327701 
L 235.683967 173.971145 
L 236.001322 173.714448 
L 237.270744 173.433907 
L 238.22281 172.983104 
L 242.031074 171.615202 
L 242.665785 171.483176 
L 242.98314 171.252893 
L 245.204628 170.680091 
L 245.521983 170.499754 
L 246.156694 170.430152 
L 246.47405 170.218014 
L 247.743471 169.846811 
L 249.964959 169.146572 
L 252.186446 168.409575 
L 252.821157 168.094433 
L 253.455868 168.001648 
L 253.773223 167.706604 
L 255.677355 167.157737 
L 255.994711 166.912674 
L 256.629421 166.78967 
L 261.072397 165.203893 
L 261.389752 165.022 
L 262.341818 164.789668 
L 265.515372 163.663811 
L 266.150083 163.403497 
L 269.958347 162.034559 
L 270.593058 161.858793 
L 270.910413 161.68079 
L 271.227769 161.640441 
L 271.545124 161.450248 
L 272.49719 161.19147 
L 275.353388 160.155151 
L 275.988099 159.990959 
L 276.305455 159.799777 
L 277.257521 159.571021 
L 278.209587 159.259317 
L 278.526942 159.195264 
L 279.796364 158.440732 
L 280.431074 158.332812 
L 282.335207 157.655896 
L 283.604628 157.252898 
L 283.921983 156.981659 
L 284.556694 156.736917 
L 286.143471 156.176755 
L 286.778182 155.967939 
L 287.095537 155.771859 
L 287.412893 155.753286 
L 288.364959 155.262949 
L 288.999669 155.073587 
L 289.951736 154.670339 
L 290.269091 154.448507 
L 291.538512 154.141212 
L 293.442645 153.439212 
L 294.077355 153.332716 
L 294.394711 153.130055 
L 295.981488 152.685661 
L 297.250909 152.134412 
L 299.155041 151.388642 
L 299.789752 151.104921 
L 302.01124 150.278973 
L 302.64595 150.013592 
L 303.280661 149.86845 
L 303.598017 149.638804 
L 304.550083 149.319946 
L 305.184793 149.134586 
L 305.819504 148.856631 
L 306.454215 148.631111 
L 307.406281 148.296415 
L 307.723636 148.029755 
L 308.040992 148.006127 
L 308.358347 147.862915 
L 308.675702 147.583958 
L 309.310413 147.434786 
L 309.945124 147.09652 
L 311.214545 146.802626 
L 312.166612 146.348493 
L 312.483967 146.278346 
L 313.118678 145.936074 
L 313.436033 145.880233 
L 314.070744 145.596008 
L 314.388099 145.444842 
L 314.705455 145.13829 
L 315.340165 144.835987 
L 315.657521 144.653319 
L 316.292231 144.50786 
L 316.926942 144.168951 
L 317.879008 143.814996 
L 318.196364 143.779105 
L 318.831074 143.469033 
L 319.465785 143.313448 
L 321.369917 142.336553 
L 322.321983 141.930061 
L 324.226116 141.300792 
L 324.543471 140.949835 
L 328.669091 139.060967 
L 328.986446 139.029346 
L 330.255868 138.250647 
L 330.890579 138.097233 
L 332.16 137.438867 
L 332.794711 137.13238 
L 333.112066 136.852721 
L 334.064132 136.625838 
L 334.698843 136.244727 
L 336.28562 135.689118 
L 336.920331 135.325664 
L 337.555041 134.586578 
L 338.507107 134.316602 
L 338.824463 133.989698 
L 339.459174 133.727815 
L 340.728595 133.196788 
L 341.04595 132.897988 
L 342.315372 132.430357 
L 342.632727 132.302446 
L 343.267438 131.891161 
L 343.902149 131.569615 
L 344.219504 131.310821 
L 344.854215 131.082587 
L 345.17157 130.688209 
L 346.758347 129.910645 
L 347.075702 129.835268 
L 347.393058 129.574872 
L 347.710413 129.525146 
L 351.201322 127.206593 
L 352.153388 126.356843 
L 353.105455 126.090154 
L 353.740165 125.732298 
L 355.644298 124.597968 
L 356.596364 123.769219 
L 358.500496 122.806059 
L 358.817851 122.490699 
L 359.452562 122.178042 
L 360.087273 121.59328 
L 360.721983 121.262984 
L 361.991405 120.393373 
L 362.30876 119.835884 
L 362.626116 119.722734 
L 362.943471 119.242441 
L 364.212893 118.648412 
L 364.847603 118.279634 
L 366.117025 117.86281 
L 366.43438 117.61792 
L 367.069091 117.339679 
L 367.386446 116.773328 
L 368.021157 116.217189 
L 368.338512 116.042346 
L 368.973223 114.943912 
L 369.290579 114.900913 
L 369.925289 114.202238 
L 371.829421 112.872072 
L 372.146777 112.352048 
L 372.781488 112.217466 
L 373.098843 112.125904 
L 374.050909 110.968193 
L 374.368264 110.767007 
L 374.68562 110.432199 
L 375.002975 110.309102 
L 375.320331 110.055524 
L 375.955041 109.836998 
L 376.272397 109.611081 
L 376.589752 109.079442 
L 376.907107 108.101277 
L 377.224463 107.835116 
L 378.176529 107.509611 
L 378.81124 106.977609 
L 379.763306 105.726125 
L 380.080661 105.606132 
L 381.667438 103.565584 
L 383.254215 102.314034 
L 383.57157 102.24477 
L 383.888926 101.978997 
L 384.206281 101.502318 
L 384.523636 100.161305 
L 385.158347 99.771848 
L 385.475702 99.248381 
L 385.793058 99.126275 
L 386.427769 97.776151 
L 386.745124 97.292044 
L 387.379835 97.018733 
L 387.69719 96.231919 
L 388.966612 94.647769 
L 389.601322 92.758179 
L 389.918678 92.020541 
L 390.553388 91.751437 
L 390.870744 91.257521 
L 391.505455 88.141424 
L 391.82281 87.986896 
L 392.140165 87.173075 
L 392.457521 86.746692 
L 392.774876 85.790629 
L 393.092231 85.491161 
L 393.409587 84.23577 
L 393.726942 84.077765 
L 394.044298 81.427066 
L 394.361653 80.725095 
L 394.679008 80.612311 
L 394.996364 80.097291 
L 395.313719 76.915834 
L 395.94843 75.153563 
L 396.265785 72.519303 
L 396.58314 71.137011 
L 396.900496 70.319863 
L 397.217851 67.368623 
L 397.535207 66.491461 
L 397.852562 63.875112 
L 398.487273 53.568 
L 398.487273 53.568 
" clip-path="url(#p799e81a8f4)" style="fill: none; stroke: #1f77b4; stroke-width: 1.5; stroke-linecap: square"/>
   </g>
   <g id="line2d_15">
    <path d="M 73.832727 188.621708 
L 74.150083 187.267851 
L 74.467438 187.135325 
L 74.784793 186.75072 
L 75.102149 186.151687 
L 75.73686 185.781468 
L 77.006281 185.277707 
L 77.323636 184.885472 
L 81.131901 183.92385 
L 82.083967 183.723413 
L 82.718678 183.531615 
L 83.988099 183.307552 
L 84.940165 183.206281 
L 86.209587 183.069103 
L 87.796364 182.817031 
L 91.287273 182.369555 
L 92.239339 182.296939 
L 93.50876 182.106695 
L 96.682314 181.852424 
L 98.586446 181.6853 
L 100.490579 181.57527 
L 102.394711 181.336654 
L 103.664132 181.235997 
L 127.465785 179.856793 
L 134.447603 179.466019 
L 135.082314 179.38969 
L 142.064132 179.144711 
L 143.333554 179.079357 
L 145.555041 178.962706 
L 147.141818 178.907018 
L 151.584793 178.754552 
L 153.488926 178.628941 
L 157.614545 178.502937 
L 172.212893 177.91639 
L 175.703802 177.811729 
L 182.68562 177.553161 
L 188.398017 177.400695 
L 190.302149 177.285137 
L 220.768264 176.299819 
L 229.019504 176.032126 
L 232.510413 175.908233 
L 236.318678 175.795224 
L 245.521983 175.466702 
L 259.802975 175.014822 
L 274.718678 174.49841 
L 290.586446 173.954677 
L 292.490579 173.854819 
L 295.346777 173.750161 
L 299.155041 173.594409 
L 302.328595 173.49159 
L 307.088926 173.341217 
L 323.90876 172.667753 
L 341.363306 171.845775 
L 342.632727 171.781612 
L 346.123636 171.665912 
L 346.758347 171.586655 
L 348.027769 171.533436 
L 348.979835 171.436776 
L 370.877355 170.037346 
L 372.146777 169.938774 
L 373.416198 169.778422 
L 374.368264 169.693431 
L 375.955041 169.586074 
L 386.427769 168.424564 
L 387.379835 168.32955 
L 387.69719 168.314757 
L 388.331901 168.130413 
L 389.283967 167.941575 
L 389.918678 167.858618 
L 391.188099 167.578472 
L 391.82281 167.562318 
L 392.457521 167.229376 
L 393.726942 166.975693 
L 394.679008 166.587718 
L 395.631074 166.415144 
L 396.58314 165.875519 
L 396.900496 165.827789 
L 397.217851 165.116963 
L 397.535207 165.061286 
L 397.852562 164.856012 
L 398.487273 163.763104 
L 398.487273 163.763104 
" clip-path="url(#p799e81a8f4)" style="fill: none; stroke: #ff7f0e; stroke-width: 1.5; stroke-linecap: square"/>
   </g>
   <g id="patch_3">
    <path d="M 57.6 307.584 
L 57.6 41.472 
" style="fill: none; stroke: #000000; stroke-width: 0.8; stroke-linejoin: miter; stroke-linecap: square"/>
   </g>
   <g id="patch_4">
    <path d="M 414.72 307.584 
L 414.72 41.472 
" style="fill: none; stroke: #000000; stroke-width: 0.8; stroke-linejoin: miter; stroke-linecap: square"/>
   </g>
   <g id="patch_5">
    <path d="M 57.6 307.584 
L 414.72 307.584 
" style="fill: none; stroke: #000000; stroke-width: 0.8; stroke-linejoin: miter; stroke-linecap: square"/>
   </g>
   <g id="patch_6">
    <path d="M 57.6 41.472 
L 414.72 41.472 
" style="fill: none; stroke: #000000; stroke-width: 0.8; stroke-linejoin: miter; stroke-linecap: square"/>
   </g>
   <g id="legend_1">
    <g id="patch_7">
     <path d="M 64.6 78.82825 
L 129.342187 78.82825 
Q 131.342187 78.82825 131.342187 76.82825 
L 131.342187 48.472 
Q 131.342187 46.472 129.342187 46.472 
L 64.6 46.472 
Q 62.6 46.472 62.6 48.472 
L 62.6 76.82825 
Q 62.6 78.82825 64.6 78.82825 
z
" style="fill: #ffffff; opacity: 0.8; stroke: #cccccc; stroke-linejoin: miter"/>
    </g>
    <g id="line2d_16">
     <path d="M 66.6 54.570437 
L 76.6 54.570437 
L 86.6 54.570437 
" style="fill: none; stroke: #1f77b4; stroke-width: 1.5; stroke-linecap: square"/>
    </g>
    <g id="text_16">
     <!-- qc -->
     <g transform="translate(94.6 58.070437) scale(0.1 -0.1)">
      <defs>
       <path id="DejaVuSans-71" d="M 947 1747 
Q 947 1113 1208 752 
Q 1469 391 1925 391 
Q 2381 391 2643 752 
Q 2906 1113 2906 1747 
Q 2906 2381 2643 2742 
Q 2381 3103 1925 3103 
Q 1469 3103 1208 2742 
Q 947 2381 947 1747 
z
M 2906 525 
Q 2725 213 2448 61 
Q 2172 -91 1784 -91 
Q 1150 -91 751 415 
Q 353 922 353 1747 
Q 353 2572 751 3078 
Q 1150 3584 1784 3584 
Q 2172 3584 2448 3432 
Q 2725 3281 2906 2969 
L 2906 3500 
L 3481 3500 
L 3481 -1331 
L 2906 -1331 
L 2906 525 
z
" transform="scale(0.015625)"/>
       <path id="DejaVuSans-63" d="M 3122 3366 
L 3122 2828 
Q 2878 2963 2633 3030 
Q 2388 3097 2138 3097 
Q 1578 3097 1268 2742 
Q 959 2388 959 1747 
Q 959 1106 1268 751 
Q 1578 397 2138 397 
Q 2388 397 2633 464 
Q 2878 531 3122 666 
L 3122 134 
Q 2881 22 2623 -34 
Q 2366 -91 2075 -91 
Q 1284 -91 818 406 
Q 353 903 353 1747 
Q 353 2603 823 3093 
Q 1294 3584 2113 3584 
Q 2378 3584 2631 3529 
Q 2884 3475 3122 3366 
z
" transform="scale(0.015625)"/>
      </defs>
      <use xlink:href="#DejaVuSans-71"/>
      <use xlink:href="#DejaVuSans-63" x="63.476562"/>
     </g>
    </g>
    <g id="line2d_17">
     <path d="M 66.6 69.248562 
L 76.6 69.248562 
L 86.6 69.248562 
" style="fill: none; stroke: #ff7f0e; stroke-width: 1.5; stroke-linecap: square"/>
    </g>
    <g id="text_17">
     <!-- Trotter -->
     <g transform="translate(94.6 72.748562) scale(0.1 -0.1)">
      <defs>
       <path id="DejaVuSans-54" d="M -19 4666 
L 3928 4666 
L 3928 4134 
L 2272 4134 
L 2272 0 
L 1638 0 
L 1638 4134 
L -19 4134 
L -19 4666 
z
" transform="scale(0.015625)"/>
       <path id="DejaVuSans-72" d="M 2631 2963 
Q 2534 3019 2420 3045 
Q 2306 3072 2169 3072 
Q 1681 3072 1420 2755 
Q 1159 2438 1159 1844 
L 1159 0 
L 581 0 
L 581 3500 
L 1159 3500 
L 1159 2956 
Q 1341 3275 1631 3429 
Q 1922 3584 2338 3584 
Q 2397 3584 2469 3576 
Q 2541 3569 2628 3553 
L 2631 2963 
z
" transform="scale(0.015625)"/>
       <path id="DejaVuSans-6f" d="M 1959 3097 
Q 1497 3097 1228 2736 
Q 959 2375 959 1747 
Q 959 1119 1226 758 
Q 1494 397 1959 397 
Q 2419 397 2687 759 
Q 2956 1122 2956 1747 
Q 2956 2369 2687 2733 
Q 2419 3097 1959 3097 
z
M 1959 3584 
Q 2709 3584 3137 3096 
Q 3566 2609 3566 1747 
Q 3566 888 3137 398 
Q 2709 -91 1959 -91 
Q 1206 -91 779 398 
Q 353 888 353 1747 
Q 353 2609 779 3096 
Q 1206 3584 1959 3584 
z
" transform="scale(0.015625)"/>
       <path id="DejaVuSans-65" d="M 3597 1894 
L 3597 1613 
L 953 1613 
Q 991 1019 1311 708 
Q 1631 397 2203 397 
Q 2534 397 2845 478 
Q 3156 559 3463 722 
L 3463 178 
Q 3153 47 2828 -22 
Q 2503 -91 2169 -91 
Q 1331 -91 842 396 
Q 353 884 353 1716 
Q 353 2575 817 3079 
Q 1281 3584 2069 3584 
Q 2775 3584 3186 3129 
Q 3597 2675 3597 1894 
z
M 3022 2063 
Q 3016 2534 2758 2815 
Q 2500 3097 2075 3097 
Q 1594 3097 1305 2825 
Q 1016 2553 972 2059 
L 3022 2063 
z
" transform="scale(0.015625)"/>
      </defs>
      <use xlink:href="#DejaVuSans-54"/>
      <use xlink:href="#DejaVuSans-72" x="46.333984"/>
      <use xlink:href="#DejaVuSans-6f" x="85.197266"/>
      <use xlink:href="#DejaVuSans-74" x="146.378906"/>
      <use xlink:href="#DejaVuSans-74" x="185.587891"/>
      <use xlink:href="#DejaVuSans-65" x="224.796875"/>
      <use xlink:href="#DejaVuSans-72" x="286.320312"/>
     </g>
    </g>
   </g>
  </g>
 </g>
 <defs>
  <clipPath id="p799e81a8f4">
   <rect x="57.6" y="41.472" width="357.12" height="266.112"/>
  </clipPath>
 </defs>
</svg>
