<?xml version="1.0" encoding="utf-8" standalone="no"?>
<!DOCTYPE svg PUBLIC "-//W3C//DTD SVG 1.1//EN"
  "http://www.w3.org/Graphics/SVG/1.1/DTD/svg11.dtd">
<svg xmlns:xlink="http://www.w3.org/1999/xlink" width="460.8pt" height="345.6pt" viewBox="0 0 460.8 345.6" xmlns="http://www.w3.org/2000/svg" version="1.1">
 <metadata>
  <rdf:RDF xmlns:dc="http://purl.org/dc/elements/1.1/" xmlns:cc="http://creativecommons.org/ns#" xmlns:rdf="http://www.w3.org/1999/02/22-rdf-syntax-ns#">
   <cc:Work>
    <dc:type rdf:resource="http://purl.org/dc/dcmitype/StillImage"/>
    <dc:date>2024-05-31T10:41:57.856184</dc:date>
    <dc:format>image/svg+xml</dc:format>
    <dc:creator>
     <cc:Agent>
      <dc:title>Matplotlib v3.7.1, https://matplotlib.org/</dc:title>
     </cc:Agent>
    </dc:creator>
   </cc:Work>
  </rdf:RDF>
 </metadata>
 <defs>
  <style type="text/css">*{stroke-linejoin: round; stroke-linecap: butt}</style>
 </defs>
 <g id="figure_1">
  <g id="patch_1">
   <path d="M 0 345.6 
L 460.8 345.6 
L 460.8 0 
L 0 0 
z
" style="fill: #ffffff"/>
  </g>
  <g id="axes_1">
   <g id="patch_2">
    <path d="M 57.6 307.584 
L 414.72 307.584 
L 414.72 41.472 
L 57.6 41.472 
z
" style="fill: #ffffff"/>
   </g>
   <g id="matplotlib.axis_1">
    <g id="xtick_1">
     <g id="line2d_1">
      <defs>
       <path id="m80a658d2ea" d="M 0 0 
L 0 3.5 
" style="stroke: #000000; stroke-width: 0.8"/>
      </defs>
      <g>
       <use xlink:href="#m80a658d2ea" x="73.832727" y="307.584" style="stroke: #000000; stroke-width: 0.8"/>
      </g>
     </g>
     <g id="text_1">
      <!-- 0 -->
      <g transform="translate(70.651477 322.182437) scale(0.1 -0.1)">
       <defs>
        <path id="DejaVuSans-30" d="M 2034 4250 
Q 1547 4250 1301 3770 
Q 1056 3291 1056 2328 
Q 1056 1369 1301 889 
Q 1547 409 2034 409 
Q 2525 409 2770 889 
Q 3016 1369 3016 2328 
Q 3016 3291 2770 3770 
Q 2525 4250 2034 4250 
z
M 2034 4750 
Q 2819 4750 3233 4129 
Q 3647 3509 3647 2328 
Q 3647 1150 3233 529 
Q 2819 -91 2034 -91 
Q 1250 -91 836 529 
Q 422 1150 422 2328 
Q 422 3509 836 4129 
Q 1250 4750 2034 4750 
z
" transform="scale(0.015625)"/>
       </defs>
       <use xlink:href="#DejaVuSans-30"/>
      </g>
     </g>
    </g>
    <g id="xtick_2">
     <g id="line2d_2">
      <g>
       <use xlink:href="#m80a658d2ea" x="137.303802" y="307.584" style="stroke: #000000; stroke-width: 0.8"/>
      </g>
     </g>
     <g id="text_2">
      <!-- 200 -->
      <g transform="translate(127.760052 322.182437) scale(0.1 -0.1)">
       <defs>
        <path id="DejaVuSans-32" d="M 1228 531 
L 3431 531 
L 3431 0 
L 469 0 
L 469 531 
Q 828 903 1448 1529 
Q 2069 2156 2228 2338 
Q 2531 2678 2651 2914 
Q 2772 3150 2772 3378 
Q 2772 3750 2511 3984 
Q 2250 4219 1831 4219 
Q 1534 4219 1204 4116 
Q 875 4013 500 3803 
L 500 4441 
Q 881 4594 1212 4672 
Q 1544 4750 1819 4750 
Q 2544 4750 2975 4387 
Q 3406 4025 3406 3419 
Q 3406 3131 3298 2873 
Q 3191 2616 2906 2266 
Q 2828 2175 2409 1742 
Q 1991 1309 1228 531 
z
" transform="scale(0.015625)"/>
       </defs>
       <use xlink:href="#DejaVuSans-32"/>
       <use xlink:href="#DejaVuSans-30" x="63.623047"/>
       <use xlink:href="#DejaVuSans-30" x="127.246094"/>
      </g>
     </g>
    </g>
    <g id="xtick_3">
     <g id="line2d_3">
      <g>
       <use xlink:href="#m80a658d2ea" x="200.774876" y="307.584" style="stroke: #000000; stroke-width: 0.8"/>
      </g>
     </g>
     <g id="text_3">
      <!-- 400 -->
      <g transform="translate(191.231126 322.182437) scale(0.1 -0.1)">
       <defs>
        <path id="DejaVuSans-34" d="M 2419 4116 
L 825 1625 
L 2419 1625 
L 2419 4116 
z
M 2253 4666 
L 3047 4666 
L 3047 1625 
L 3713 1625 
L 3713 1100 
L 3047 1100 
L 3047 0 
L 2419 0 
L 2419 1100 
L 313 1100 
L 313 1709 
L 2253 4666 
z
" transform="scale(0.015625)"/>
       </defs>
       <use xlink:href="#DejaVuSans-34"/>
       <use xlink:href="#DejaVuSans-30" x="63.623047"/>
       <use xlink:href="#DejaVuSans-30" x="127.246094"/>
      </g>
     </g>
    </g>
    <g id="xtick_4">
     <g id="line2d_4">
      <g>
       <use xlink:href="#m80a658d2ea" x="264.24595" y="307.584" style="stroke: #000000; stroke-width: 0.8"/>
      </g>
     </g>
     <g id="text_4">
      <!-- 600 -->
      <g transform="translate(254.7022 322.182437) scale(0.1 -0.1)">
       <defs>
        <path id="DejaVuSans-36" d="M 2113 2584 
Q 1688 2584 1439 2293 
Q 1191 2003 1191 1497 
Q 1191 994 1439 701 
Q 1688 409 2113 409 
Q 2538 409 2786 701 
Q 3034 994 3034 1497 
Q 3034 2003 2786 2293 
Q 2538 2584 2113 2584 
z
M 3366 4563 
L 3366 3988 
Q 3128 4100 2886 4159 
Q 2644 4219 2406 4219 
Q 1781 4219 1451 3797 
Q 1122 3375 1075 2522 
Q 1259 2794 1537 2939 
Q 1816 3084 2150 3084 
Q 2853 3084 3261 2657 
Q 3669 2231 3669 1497 
Q 3669 778 3244 343 
Q 2819 -91 2113 -91 
Q 1303 -91 875 529 
Q 447 1150 447 2328 
Q 447 3434 972 4092 
Q 1497 4750 2381 4750 
Q 2619 4750 2861 4703 
Q 3103 4656 3366 4563 
z
" transform="scale(0.015625)"/>
       </defs>
       <use xlink:href="#DejaVuSans-36"/>
       <use xlink:href="#DejaVuSans-30" x="63.623047"/>
       <use xlink:href="#DejaVuSans-30" x="127.246094"/>
      </g>
     </g>
    </g>
    <g id="xtick_5">
     <g id="line2d_5">
      <g>
       <use xlink:href="#m80a658d2ea" x="327.717025" y="307.584" style="stroke: #000000; stroke-width: 0.8"/>
      </g>
     </g>
     <g id="text_5">
      <!-- 800 -->
      <g transform="translate(318.173275 322.182437) scale(0.1 -0.1)">
       <defs>
        <path id="DejaVuSans-38" d="M 2034 2216 
Q 1584 2216 1326 1975 
Q 1069 1734 1069 1313 
Q 1069 891 1326 650 
Q 1584 409 2034 409 
Q 2484 409 2743 651 
Q 3003 894 3003 1313 
Q 3003 1734 2745 1975 
Q 2488 2216 2034 2216 
z
M 1403 2484 
Q 997 2584 770 2862 
Q 544 3141 544 3541 
Q 544 4100 942 4425 
Q 1341 4750 2034 4750 
Q 2731 4750 3128 4425 
Q 3525 4100 3525 3541 
Q 3525 3141 3298 2862 
Q 3072 2584 2669 2484 
Q 3125 2378 3379 2068 
Q 3634 1759 3634 1313 
Q 3634 634 3220 271 
Q 2806 -91 2034 -91 
Q 1263 -91 848 271 
Q 434 634 434 1313 
Q 434 1759 690 2068 
Q 947 2378 1403 2484 
z
M 1172 3481 
Q 1172 3119 1398 2916 
Q 1625 2713 2034 2713 
Q 2441 2713 2670 2916 
Q 2900 3119 2900 3481 
Q 2900 3844 2670 4047 
Q 2441 4250 2034 4250 
Q 1625 4250 1398 4047 
Q 1172 3844 1172 3481 
z
" transform="scale(0.015625)"/>
       </defs>
       <use xlink:href="#DejaVuSans-38"/>
       <use xlink:href="#DejaVuSans-30" x="63.623047"/>
       <use xlink:href="#DejaVuSans-30" x="127.246094"/>
      </g>
     </g>
    </g>
    <g id="xtick_6">
     <g id="line2d_6">
      <g>
       <use xlink:href="#m80a658d2ea" x="391.188099" y="307.584" style="stroke: #000000; stroke-width: 0.8"/>
      </g>
     </g>
     <g id="text_6">
      <!-- 1000 -->
      <g transform="translate(378.463099 322.182437) scale(0.1 -0.1)">
       <defs>
        <path id="DejaVuSans-31" d="M 794 531 
L 1825 531 
L 1825 4091 
L 703 3866 
L 703 4441 
L 1819 4666 
L 2450 4666 
L 2450 531 
L 3481 531 
L 3481 0 
L 794 0 
L 794 531 
z
" transform="scale(0.015625)"/>
       </defs>
       <use xlink:href="#DejaVuSans-31"/>
       <use xlink:href="#DejaVuSans-30" x="63.623047"/>
       <use xlink:href="#DejaVuSans-30" x="127.246094"/>
       <use xlink:href="#DejaVuSans-30" x="190.869141"/>
      </g>
     </g>
    </g>
    <g id="text_7">
     <!-- n -->
     <g transform="translate(232.99125 335.860562) scale(0.1 -0.1)">
      <defs>
       <path id="DejaVuSans-6e" d="M 3513 2113 
L 3513 0 
L 2938 0 
L 2938 2094 
Q 2938 2591 2744 2837 
Q 2550 3084 2163 3084 
Q 1697 3084 1428 2787 
Q 1159 2491 1159 1978 
L 1159 0 
L 581 0 
L 581 3500 
L 1159 3500 
L 1159 2956 
Q 1366 3272 1645 3428 
Q 1925 3584 2291 3584 
Q 2894 3584 3203 3211 
Q 3513 2838 3513 2113 
z
" transform="scale(0.015625)"/>
      </defs>
      <use xlink:href="#DejaVuSans-6e"/>
     </g>
    </g>
   </g>
   <g id="matplotlib.axis_2">
    <g id="ytick_1">
     <g id="line2d_7">
      <defs>
       <path id="m45a3ab4482" d="M 0 0 
L -3.5 0 
" style="stroke: #000000; stroke-width: 0.8"/>
      </defs>
      <g>
       <use xlink:href="#m45a3ab4482" x="57.6" y="279.154072" style="stroke: #000000; stroke-width: 0.8"/>
      </g>
     </g>
     <g id="text_8">
      <!-- −2 -->
      <g transform="translate(35.857813 282.953291) scale(0.1 -0.1)">
       <defs>
        <path id="DejaVuSans-2212" d="M 678 2272 
L 4684 2272 
L 4684 1741 
L 678 1741 
L 678 2272 
z
" transform="scale(0.015625)"/>
       </defs>
       <use xlink:href="#DejaVuSans-2212"/>
       <use xlink:href="#DejaVuSans-32" x="83.789062"/>
      </g>
     </g>
    </g>
    <g id="ytick_2">
     <g id="line2d_8">
      <g>
       <use xlink:href="#m45a3ab4482" x="57.6" y="224.002902" style="stroke: #000000; stroke-width: 0.8"/>
      </g>
     </g>
     <g id="text_9">
      <!-- −1 -->
      <g transform="translate(35.857813 227.80212) scale(0.1 -0.1)">
       <use xlink:href="#DejaVuSans-2212"/>
       <use xlink:href="#DejaVuSans-31" x="83.789062"/>
      </g>
     </g>
    </g>
    <g id="ytick_3">
     <g id="line2d_9">
      <g>
       <use xlink:href="#m45a3ab4482" x="57.6" y="168.851731" style="stroke: #000000; stroke-width: 0.8"/>
      </g>
     </g>
     <g id="text_10">
      <!-- 0 -->
      <g transform="translate(44.2375 172.65095) scale(0.1 -0.1)">
       <use xlink:href="#DejaVuSans-30"/>
      </g>
     </g>
    </g>
    <g id="ytick_4">
     <g id="line2d_10">
      <g>
       <use xlink:href="#m45a3ab4482" x="57.6" y="113.70056" style="stroke: #000000; stroke-width: 0.8"/>
      </g>
     </g>
     <g id="text_11">
      <!-- 1 -->
      <g transform="translate(44.2375 117.499779) scale(0.1 -0.1)">
       <use xlink:href="#DejaVuSans-31"/>
      </g>
     </g>
    </g>
    <g id="ytick_5">
     <g id="line2d_11">
      <g>
       <use xlink:href="#m45a3ab4482" x="57.6" y="58.549389" style="stroke: #000000; stroke-width: 0.8"/>
      </g>
     </g>
     <g id="text_12">
      <!-- 2 -->
      <g transform="translate(44.2375 62.348608) scale(0.1 -0.1)">
       <use xlink:href="#DejaVuSans-32"/>
      </g>
     </g>
    </g>
    <g id="text_13">
     <!-- E*t -->
     <g transform="translate(29.778125 182.147531) rotate(-90) scale(0.1 -0.1)">
      <defs>
       <path id="DejaVuSans-45" d="M 628 4666 
L 3578 4666 
L 3578 4134 
L 1259 4134 
L 1259 2753 
L 3481 2753 
L 3481 2222 
L 1259 2222 
L 1259 531 
L 3634 531 
L 3634 0 
L 628 0 
L 628 4666 
z
" transform="scale(0.015625)"/>
       <path id="DejaVuSans-2a" d="M 3009 3897 
L 1888 3291 
L 3009 2681 
L 2828 2375 
L 1778 3009 
L 1778 1831 
L 1422 1831 
L 1422 3009 
L 372 2375 
L 191 2681 
L 1313 3291 
L 191 3897 
L 372 4206 
L 1422 3572 
L 1422 4750 
L 1778 4750 
L 1778 3572 
L 2828 4206 
L 3009 3897 
z
" transform="scale(0.015625)"/>
       <path id="DejaVuSans-74" d="M 1172 4494 
L 1172 3500 
L 2356 3500 
L 2356 3053 
L 1172 3053 
L 1172 1153 
Q 1172 725 1289 603 
Q 1406 481 1766 481 
L 2356 481 
L 2356 0 
L 1766 0 
Q 1100 0 847 248 
Q 594 497 594 1153 
L 594 3053 
L 172 3053 
L 172 3500 
L 594 3500 
L 594 4494 
L 1172 4494 
z
" transform="scale(0.015625)"/>
      </defs>
      <use xlink:href="#DejaVuSans-45"/>
      <use xlink:href="#DejaVuSans-2a" x="63.183594"/>
      <use xlink:href="#DejaVuSans-74" x="113.183594"/>
     </g>
    </g>
   </g>
   <g id="line2d_12">
    <path d="M 73.832727 295.488 
L 74.467438 283.585312 
L 75.102149 279.231401 
L 75.419504 276.104343 
L 76.054215 272.849664 
L 77.006281 269.25386 
L 77.323636 268.2578 
L 77.640992 265.771025 
L 78.593058 263.870958 
L 78.910413 261.675671 
L 79.227769 261.024375 
L 79.545124 260.774666 
L 79.862479 260.353418 
L 80.179835 259.417979 
L 80.49719 257.638566 
L 80.814545 257.132731 
L 81.131901 256.393271 
L 81.449256 256.205194 
L 81.766612 255.09974 
L 82.083967 254.85736 
L 82.401322 254.387433 
L 82.718678 253.416883 
L 83.036033 253.273958 
L 83.353388 252.440009 
L 83.988099 251.960892 
L 84.62281 250.821977 
L 85.574876 247.831998 
L 86.209587 247.461356 
L 86.844298 246.664071 
L 87.161653 245.867922 
L 87.479008 245.813631 
L 87.796364 245.529404 
L 89.700496 242.714378 
L 90.017851 241.893356 
L 90.969917 240.778656 
L 91.287273 240.660568 
L 91.921983 239.843429 
L 92.239339 239.300626 
L 92.556694 239.249573 
L 93.50876 238.420473 
L 94.143471 237.521186 
L 94.460826 237.454594 
L 94.778182 237.037239 
L 95.412893 236.675015 
L 95.730248 236.106728 
L 97.317025 234.83881 
L 99.855868 232.575964 
L 100.807934 231.753763 
L 101.125289 231.235697 
L 101.442645 230.968665 
L 101.76 230.519032 
L 102.394711 230.071994 
L 102.712066 229.650815 
L 103.664132 229.134693 
L 104.298843 228.776309 
L 104.616198 228.682798 
L 106.837686 227.133715 
L 107.155041 226.780605 
L 108.107107 226.220465 
L 108.741818 225.543576 
L 109.059174 225.437079 
L 109.376529 225.002463 
L 109.693884 224.86662 
L 110.64595 224.049512 
L 112.867438 222.887975 
L 113.819504 222.123058 
L 114.13686 221.733162 
L 114.77157 221.485696 
L 115.088926 220.906641 
L 115.406281 220.740393 
L 115.723636 220.386367 
L 116.040992 220.276029 
L 116.358347 219.934822 
L 117.310413 219.603578 
L 117.945124 219.250831 
L 118.89719 218.869956 
L 119.531901 218.532257 
L 119.849256 218.494554 
L 121.118678 217.50547 
L 121.753388 216.840995 
L 123.02281 216.122971 
L 124.292231 215.499712 
L 124.609587 215.438132 
L 124.926942 215.144221 
L 125.244298 215.056181 
L 125.879008 214.559784 
L 126.513719 214.253883 
L 126.831074 214.140429 
L 128.735207 212.882203 
L 130.639339 211.88286 
L 130.956694 211.726565 
L 131.27405 211.696517 
L 133.178182 210.735001 
L 134.447603 210.095362 
L 136.986446 208.792711 
L 137.621157 208.467086 
L 138.890579 207.900398 
L 139.207934 207.629662 
L 139.525289 207.548604 
L 140.477355 207.05756 
L 143.016198 205.895089 
L 143.333554 205.720664 
L 143.650909 205.680704 
L 146.507107 204.246065 
L 146.824463 204.165806 
L 147.459174 203.753247 
L 147.776529 203.689047 
L 148.093884 203.389533 
L 148.728595 203.057404 
L 149.04595 202.778011 
L 149.998017 202.451457 
L 150.950083 202.011422 
L 151.584793 201.817838 
L 152.53686 201.473463 
L 152.854215 201.378222 
L 153.17157 201.085945 
L 153.806281 200.89702 
L 154.440992 200.639077 
L 155.075702 200.337245 
L 156.662479 199.641554 
L 157.29719 199.424429 
L 157.931901 199.046596 
L 160.470744 198.082374 
L 162.057521 197.440929 
L 163.961653 196.842715 
L 164.913719 196.385807 
L 166.500496 195.777369 
L 167.452562 195.355828 
L 167.769917 195.29158 
L 168.087273 195.058509 
L 168.721983 194.908221 
L 170.626116 194.166648 
L 170.943471 194.144546 
L 172.847603 193.322202 
L 173.164959 193.29954 
L 173.799669 193.037298 
L 175.069091 192.44047 
L 175.386446 192.366527 
L 175.703802 192.106445 
L 177.925289 191.417111 
L 178.242645 191.183277 
L 179.829421 190.665239 
L 181.733554 189.891431 
L 182.050909 189.852391 
L 182.68562 189.430883 
L 192.523636 185.663014 
L 193.158347 185.29738 
L 194.110413 185.005603 
L 202.044298 182.205438 
L 205.852562 180.950462 
L 206.169917 180.765996 
L 206.804628 180.645295 
L 207.439339 180.34252 
L 210.612893 179.199447 
L 210.930248 178.983519 
L 211.564959 178.856914 
L 212.199669 178.544698 
L 214.738512 177.821757 
L 217.594711 176.65595 
L 218.546777 176.42128 
L 222.989752 174.930199 
L 223.941818 174.702949 
L 224.893884 174.37052 
L 226.798017 173.820331 
L 229.019504 173.033071 
L 230.923636 172.472201 
L 231.558347 172.194739 
L 233.779835 171.506364 
L 239.174876 169.665308 
L 239.809587 169.442624 
L 249.330248 165.833809 
L 251.551736 165.202434 
L 252.186446 164.948885 
L 253.138512 164.702986 
L 254.090579 164.184792 
L 255.994711 163.48231 
L 261.389752 161.670557 
L 261.707107 161.453827 
L 262.659174 161.275481 
L 262.976529 161.091277 
L 263.293884 161.05837 
L 265.515372 160.128103 
L 266.784793 159.83571 
L 269.006281 159.046163 
L 270.275702 158.708728 
L 278.844298 155.772032 
L 279.479008 155.527159 
L 281.38314 155.000512 
L 282.017851 154.746482 
L 283.287273 154.309774 
L 289.951736 151.685681 
L 290.586446 151.364311 
L 295.981488 149.307231 
L 296.298843 149.23051 
L 296.933554 148.917937 
L 298.837686 148.356868 
L 299.789752 147.913155 
L 300.741818 147.578501 
L 301.376529 147.324871 
L 303.598017 146.534005 
L 303.915372 146.302437 
L 304.550083 146.049405 
L 307.406281 144.833425 
L 308.675702 144.345475 
L 309.310413 144.140143 
L 309.627769 144.060779 
L 309.945124 143.830769 
L 310.89719 143.493013 
L 312.483967 142.804468 
L 313.753388 142.328395 
L 314.388099 142.006349 
L 315.02281 141.823708 
L 316.609587 141.171369 
L 317.244298 140.906782 
L 317.879008 140.755909 
L 318.513719 140.543058 
L 320.100496 139.739086 
L 322.321983 138.922178 
L 322.956694 138.615 
L 323.591405 138.45243 
L 324.226116 138.116616 
L 325.178182 137.853324 
L 326.130248 137.34345 
L 326.764959 137.120059 
L 328.669091 136.030176 
L 329.621157 135.671775 
L 329.938512 135.32366 
L 330.890579 135.049751 
L 331.525289 134.667757 
L 332.794711 134.15063 
L 333.429421 133.798486 
L 334.064132 133.495473 
L 338.189752 131.784925 
L 338.507107 131.46927 
L 343.267438 129.245169 
L 344.219504 128.645767 
L 344.53686 128.535657 
L 345.488926 127.756237 
L 346.440992 127.234753 
L 347.393058 126.677078 
L 348.979835 125.710997 
L 351.201322 124.892828 
L 351.518678 124.374151 
L 352.153388 124.227526 
L 355.326942 122.554517 
L 355.961653 122.092025 
L 356.913719 121.710283 
L 357.231074 121.413721 
L 358.18314 121.135105 
L 359.769917 120.017647 
L 360.404628 119.65711 
L 361.67405 118.681625 
L 363.260826 117.491919 
L 364.212893 116.928315 
L 364.530248 116.613142 
L 364.847603 116.48444 
L 365.799669 115.728397 
L 367.069091 114.909933 
L 367.703802 114.368438 
L 368.338512 113.621965 
L 368.655868 113.482418 
L 368.973223 113.11024 
L 369.290579 112.998157 
L 369.607934 112.673235 
L 369.925289 112.52758 
L 370.56 111.753691 
L 373.098843 109.986211 
L 373.416198 109.363823 
L 373.733554 108.995128 
L 374.050909 108.937799 
L 375.320331 107.808349 
L 375.955041 107.400007 
L 376.589752 106.905076 
L 376.907107 106.768246 
L 378.81124 105.056411 
L 379.44595 104.772556 
L 379.763306 103.994639 
L 380.080661 103.52231 
L 380.398017 103.291763 
L 381.350083 102.210467 
L 382.619504 101.157434 
L 382.93686 100.526601 
L 384.206281 99.545627 
L 385.475702 97.478257 
L 385.793058 96.215718 
L 386.110413 95.893979 
L 386.427769 95.757064 
L 386.745124 95.252508 
L 387.062479 95.023006 
L 387.379835 94.454757 
L 387.69719 94.32803 
L 388.014545 93.856361 
L 388.649256 92.131265 
L 389.283967 91.79122 
L 389.918678 90.211718 
L 390.236033 89.945719 
L 390.553388 89.047118 
L 390.870744 87.569452 
L 391.188099 87.379618 
L 391.505455 86.892928 
L 391.82281 86.155009 
L 392.140165 85.969663 
L 392.774876 84.133649 
L 393.092231 83.745101 
L 393.409587 83.066544 
L 393.726942 81.826438 
L 394.044298 81.037344 
L 394.361653 80.717622 
L 394.679008 78.958673 
L 395.631074 75.371322 
L 395.94843 73.051651 
L 396.265785 71.864101 
L 396.58314 71.212074 
L 396.900496 70.097909 
L 397.217851 65.818943 
L 397.535207 64.643278 
L 398.169917 59.075166 
L 398.487273 53.568 
L 398.487273 53.568 
" clip-path="url(#p0c094b9083)" style="fill: none; stroke: #1f77b4; stroke-width: 1.5; stroke-linecap: square"/>
   </g>
   <g id="line2d_13">
    <path d="M 73.832727 179.330453 
L 74.150083 178.22743 
L 74.467438 178.119457 
L 74.784793 177.806109 
L 75.102149 177.318061 
L 75.73686 177.016434 
L 77.006281 176.606006 
L 77.323636 176.286441 
L 81.131901 175.502982 
L 82.083967 175.33968 
L 82.718678 175.183418 
L 84.62281 174.91836 
L 85.892231 174.810387 
L 87.161653 174.692554 
L 91.287273 174.236657 
L 92.556694 174.121607 
L 97.317025 173.767894 
L 100.173223 173.61184 
L 113.184793 172.802708 
L 116.358347 172.656652 
L 117.310413 172.576152 
L 121.118678 172.459019 
L 140.16 171.691797 
L 145.555041 171.461005 
L 147.459174 171.412917 
L 156.345124 171.10862 
L 165.231074 170.841567 
L 170.30876 170.66997 
L 171.260826 170.622626 
L 282.335207 167.60254 
L 283.604628 167.557472 
L 290.586446 167.38083 
L 292.490579 167.299472 
L 296.298843 167.19221 
L 300.424463 167.062545 
L 305.184793 166.927755 
L 311.531901 166.730597 
L 337.237686 165.858724 
L 338.189752 165.797882 
L 346.123636 165.516111 
L 346.758347 165.451539 
L 348.662479 165.347064 
L 356.596364 165.012102 
L 358.500496 164.924635 
L 359.769917 164.841693 
L 363.895537 164.620251 
L 365.799669 164.507352 
L 373.416198 163.978323 
L 374.368264 163.909078 
L 376.272397 163.795134 
L 379.763306 163.482234 
L 381.350083 163.37292 
L 382.619504 163.275826 
L 387.379835 162.797888 
L 388.014545 162.672885 
L 390.870744 162.26752 
L 391.505455 162.173952 
L 391.82281 162.172803 
L 392.457521 161.901546 
L 393.726942 161.694864 
L 394.679008 161.37877 
L 395.631074 161.238169 
L 396.58314 160.798523 
L 396.900496 160.759636 
L 397.217851 160.180507 
L 397.535207 160.135145 
L 397.852562 159.967903 
L 398.487273 159.077482 
L 398.487273 159.077482 
" clip-path="url(#p0c094b9083)" style="fill: none; stroke: #ff7f0e; stroke-width: 1.5; stroke-linecap: square"/>
   </g>
   <g id="patch_3">
    <path d="M 57.6 307.584 
L 57.6 41.472 
" style="fill: none; stroke: #000000; stroke-width: 0.8; stroke-linejoin: miter; stroke-linecap: square"/>
   </g>
   <g id="patch_4">
    <path d="M 414.72 307.584 
L 414.72 41.472 
" style="fill: none; stroke: #000000; stroke-width: 0.8; stroke-linejoin: miter; stroke-linecap: square"/>
   </g>
   <g id="patch_5">
    <path d="M 57.6 307.584 
L 414.72 307.584 
" style="fill: none; stroke: #000000; stroke-width: 0.8; stroke-linejoin: miter; stroke-linecap: square"/>
   </g>
   <g id="patch_6">
    <path d="M 57.6 41.472 
L 414.72 41.472 
" style="fill: none; stroke: #000000; stroke-width: 0.8; stroke-linejoin: miter; stroke-linecap: square"/>
   </g>
   <g id="legend_1">
    <g id="patch_7">
     <path d="M 64.6 78.82825 
L 129.342187 78.82825 
Q 131.342187 78.82825 131.342187 76.82825 
L 131.342187 48.472 
Q 131.342187 46.472 129.342187 46.472 
L 64.6 46.472 
Q 62.6 46.472 62.6 48.472 
L 62.6 76.82825 
Q 62.6 78.82825 64.6 78.82825 
z
" style="fill: #ffffff; opacity: 0.8; stroke: #cccccc; stroke-linejoin: miter"/>
    </g>
    <g id="line2d_14">
     <path d="M 66.6 54.570437 
L 76.6 54.570437 
L 86.6 54.570437 
" style="fill: none; stroke: #1f77b4; stroke-width: 1.5; stroke-linecap: square"/>
    </g>
    <g id="text_14">
     <!-- qc -->
     <g transform="translate(94.6 58.070437) scale(0.1 -0.1)">
      <defs>
       <path id="DejaVuSans-71" d="M 947 1747 
Q 947 1113 1208 752 
Q 1469 391 1925 391 
Q 2381 391 2643 752 
Q 2906 1113 2906 1747 
Q 2906 2381 2643 2742 
Q 2381 3103 1925 3103 
Q 1469 3103 1208 2742 
Q 947 2381 947 1747 
z
M 2906 525 
Q 2725 213 2448 61 
Q 2172 -91 1784 -91 
Q 1150 -91 751 415 
Q 353 922 353 1747 
Q 353 2572 751 3078 
Q 1150 3584 1784 3584 
Q 2172 3584 2448 3432 
Q 2725 3281 2906 2969 
L 2906 3500 
L 3481 3500 
L 3481 -1331 
L 2906 -1331 
L 2906 525 
z
" transform="scale(0.015625)"/>
       <path id="DejaVuSans-63" d="M 3122 3366 
L 3122 2828 
Q 2878 2963 2633 3030 
Q 2388 3097 2138 3097 
Q 1578 3097 1268 2742 
Q 959 2388 959 1747 
Q 959 1106 1268 751 
Q 1578 397 2138 397 
Q 2388 397 2633 464 
Q 2878 531 3122 666 
L 3122 134 
Q 2881 22 2623 -34 
Q 2366 -91 2075 -91 
Q 1284 -91 818 406 
Q 353 903 353 1747 
Q 353 2603 823 3093 
Q 1294 3584 2113 3584 
Q 2378 3584 2631 3529 
Q 2884 3475 3122 3366 
z
" transform="scale(0.015625)"/>
      </defs>
      <use xlink:href="#DejaVuSans-71"/>
      <use xlink:href="#DejaVuSans-63" x="63.476562"/>
     </g>
    </g>
    <g id="line2d_15">
     <path d="M 66.6 69.248562 
L 76.6 69.248562 
L 86.6 69.248562 
" style="fill: none; stroke: #ff7f0e; stroke-width: 1.5; stroke-linecap: square"/>
    </g>
    <g id="text_15">
     <!-- Trotter -->
     <g transform="translate(94.6 72.748562) scale(0.1 -0.1)">
      <defs>
       <path id="DejaVuSans-54" d="M -19 4666 
L 3928 4666 
L 3928 4134 
L 2272 4134 
L 2272 0 
L 1638 0 
L 1638 4134 
L -19 4134 
L -19 4666 
z
" transform="scale(0.015625)"/>
       <path id="DejaVuSans-72" d="M 2631 2963 
Q 2534 3019 2420 3045 
Q 2306 3072 2169 3072 
Q 1681 3072 1420 2755 
Q 1159 2438 1159 1844 
L 1159 0 
L 581 0 
L 581 3500 
L 1159 3500 
L 1159 2956 
Q 1341 3275 1631 3429 
Q 1922 3584 2338 3584 
Q 2397 3584 2469 3576 
Q 2541 3569 2628 3553 
L 2631 2963 
z
" transform="scale(0.015625)"/>
       <path id="DejaVuSans-6f" d="M 1959 3097 
Q 1497 3097 1228 2736 
Q 959 2375 959 1747 
Q 959 1119 1226 758 
Q 1494 397 1959 397 
Q 2419 397 2687 759 
Q 2956 1122 2956 1747 
Q 2956 2369 2687 2733 
Q 2419 3097 1959 3097 
z
M 1959 3584 
Q 2709 3584 3137 3096 
Q 3566 2609 3566 1747 
Q 3566 888 3137 398 
Q 2709 -91 1959 -91 
Q 1206 -91 779 398 
Q 353 888 353 1747 
Q 353 2609 779 3096 
Q 1206 3584 1959 3584 
z
" transform="scale(0.015625)"/>
       <path id="DejaVuSans-65" d="M 3597 1894 
L 3597 1613 
L 953 1613 
Q 991 1019 1311 708 
Q 1631 397 2203 397 
Q 2534 397 2845 478 
Q 3156 559 3463 722 
L 3463 178 
Q 3153 47 2828 -22 
Q 2503 -91 2169 -91 
Q 1331 -91 842 396 
Q 353 884 353 1716 
Q 353 2575 817 3079 
Q 1281 3584 2069 3584 
Q 2775 3584 3186 3129 
Q 3597 2675 3597 1894 
z
M 3022 2063 
Q 3016 2534 2758 2815 
Q 2500 3097 2075 3097 
Q 1594 3097 1305 2825 
Q 1016 2553 972 2059 
L 3022 2063 
z
" transform="scale(0.015625)"/>
      </defs>
      <use xlink:href="#DejaVuSans-54"/>
      <use xlink:href="#DejaVuSans-72" x="46.333984"/>
      <use xlink:href="#DejaVuSans-6f" x="85.197266"/>
      <use xlink:href="#DejaVuSans-74" x="146.378906"/>
      <use xlink:href="#DejaVuSans-74" x="185.587891"/>
      <use xlink:href="#DejaVuSans-65" x="224.796875"/>
      <use xlink:href="#DejaVuSans-72" x="286.320312"/>
     </g>
    </g>
   </g>
  </g>
 </g>
 <defs>
  <clipPath id="p0c094b9083">
   <rect x="57.6" y="41.472" width="357.12" height="266.112"/>
  </clipPath>
 </defs>
</svg>
