<?xml version="1.0" encoding="utf-8" standalone="no"?>
<!DOCTYPE svg PUBLIC "-//W3C//DTD SVG 1.1//EN"
  "http://www.w3.org/Graphics/SVG/1.1/DTD/svg11.dtd">
<svg xmlns:xlink="http://www.w3.org/1999/xlink" width="460.8pt" height="345.6pt" viewBox="0 0 460.8 345.6" xmlns="http://www.w3.org/2000/svg" version="1.1">
 <metadata>
  <rdf:RDF xmlns:dc="http://purl.org/dc/elements/1.1/" xmlns:cc="http://creativecommons.org/ns#" xmlns:rdf="http://www.w3.org/1999/02/22-rdf-syntax-ns#">
   <cc:Work>
    <dc:type rdf:resource="http://purl.org/dc/dcmitype/StillImage"/>
    <dc:date>2024-07-14T13:50:37.718783</dc:date>
    <dc:format>image/svg+xml</dc:format>
    <dc:creator>
     <cc:Agent>
      <dc:title>Matplotlib v3.7.1, https://matplotlib.org/</dc:title>
     </cc:Agent>
    </dc:creator>
   </cc:Work>
  </rdf:RDF>
 </metadata>
 <defs>
  <style type="text/css">*{stroke-linejoin: round; stroke-linecap: butt}</style>
 </defs>
 <g id="figure_1">
  <g id="patch_1">
   <path d="M 0 345.6 
L 460.8 345.6 
L 460.8 0 
L 0 0 
z
" style="fill: #ffffff"/>
  </g>
  <g id="patch_2">
   <path d="M 103.104 307.584 
L 369.216 307.584 
L 369.216 41.472 
L 103.104 41.472 
z
" style="fill: #ffffff"/>
  </g>
  <g id="pane3d_1">
   <g id="patch_3">
    <path d="M 123.197291 241.969309 
L 211.076164 168.307495 
L 209.854564 62.073991 
L 117.770234 129.272941 
" style="fill: #f2f2f2; opacity: 0.5; stroke: #f2f2f2; stroke-linejoin: miter"/>
   </g>
  </g>
  <g id="pane3d_2">
   <g id="patch_4">
    <path d="M 211.076164 168.307495 
L 352.090401 209.294766 
L 357.122702 99.402171 
L 209.854564 62.073991 
" style="fill: #e6e6e6; opacity: 0.5; stroke: #e6e6e6; stroke-linejoin: miter"/>
   </g>
  </g>
  <g id="pane3d_3">
   <g id="patch_5">
    <path d="M 123.197291 241.969309 
L 272.679269 290.790123 
L 352.090401 209.294766 
L 211.076164 168.307495 
" style="fill: #ececec; opacity: 0.5; stroke: #ececec; stroke-linejoin: miter"/>
   </g>
  </g>
  <g id="axis3d_1">
   <g id="line2d_1">
    <path d="M 123.197291 241.969309 
L 272.679269 290.790123 
" style="fill: none; stroke: #000000; stroke-width: 0.8; stroke-linecap: square"/>
   </g>
   <g id="text_1">
    <!-- Sx -->
    <g transform="translate(173.542834 303.76759) scale(0.1 -0.1)">
     <defs>
      <path id="DejaVuSans-53" d="M 3425 4513 
L 3425 3897 
Q 3066 4069 2747 4153 
Q 2428 4238 2131 4238 
Q 1616 4238 1336 4038 
Q 1056 3838 1056 3469 
Q 1056 3159 1242 3001 
Q 1428 2844 1947 2747 
L 2328 2669 
Q 3034 2534 3370 2195 
Q 3706 1856 3706 1288 
Q 3706 609 3251 259 
Q 2797 -91 1919 -91 
Q 1588 -91 1214 -16 
Q 841 59 441 206 
L 441 856 
Q 825 641 1194 531 
Q 1563 422 1919 422 
Q 2459 422 2753 634 
Q 3047 847 3047 1241 
Q 3047 1584 2836 1778 
Q 2625 1972 2144 2069 
L 1759 2144 
Q 1053 2284 737 2584 
Q 422 2884 422 3419 
Q 422 4038 858 4394 
Q 1294 4750 2059 4750 
Q 2388 4750 2728 4690 
Q 3069 4631 3425 4513 
z
" transform="scale(0.015625)"/>
      <path id="DejaVuSans-78" d="M 3513 3500 
L 2247 1797 
L 3578 0 
L 2900 0 
L 1881 1375 
L 863 0 
L 184 0 
L 1544 1831 
L 300 3500 
L 978 3500 
L 1906 2253 
L 2834 3500 
L 3513 3500 
z
" transform="scale(0.015625)"/>
     </defs>
     <use xlink:href="#DejaVuSans-53"/>
     <use xlink:href="#DejaVuSans-78" x="63.476562"/>
    </g>
   </g>
   <g id="Line3DCollection_1">
    <path d="M 128.412736 243.672673 
L 216.017176 169.743652 
L 215.004205 63.379275 
" style="fill: none; stroke: #b0b0b0; stroke-width: 0.8"/>
    <path d="M 147.096949 249.774937 
L 233.705724 174.885015 
L 233.445877 68.053701 
" style="fill: none; stroke: #b0b0b0; stroke-width: 0.8"/>
    <path d="M 166.035344 255.960217 
L 251.614967 180.090524 
L 252.127586 72.78897 
" style="fill: none; stroke: #b0b0b0; stroke-width: 0.8"/>
    <path d="M 185.233142 262.230218 
L 269.74906 185.361389 
L 271.054049 77.586276 
" style="fill: none; stroke: #b0b0b0; stroke-width: 0.8"/>
    <path d="M 204.69571 268.586692 
L 288.112265 190.698848 
L 290.230108 82.446848 
" style="fill: none; stroke: #b0b0b0; stroke-width: 0.8"/>
    <path d="M 224.428563 275.031442 
L 306.708951 196.10417 
L 309.660732 87.371945 
" style="fill: none; stroke: #b0b0b0; stroke-width: 0.8"/>
    <path d="M 244.437371 281.566319 
L 325.5436 201.578659 
L 329.351025 92.36286 
" style="fill: none; stroke: #b0b0b0; stroke-width: 0.8"/>
    <path d="M 264.727964 288.193226 
L 344.620808 207.123651 
L 349.306226 97.420922 
" style="fill: none; stroke: #b0b0b0; stroke-width: 0.8"/>
   </g>
   <g id="xtick_1">
    <g id="line2d_2">
     <path d="M 129.175505 243.028976 
L 126.88393 244.962826 
" style="fill: none; stroke: #000000; stroke-width: 0.8; stroke-linecap: square"/>
    </g>
    <g id="text_2">
     <!-- 0.15 -->
     <g transform="translate(109.7471 266.955316) scale(0.1 -0.1)">
      <defs>
       <path id="DejaVuSans-30" d="M 2034 4250 
Q 1547 4250 1301 3770 
Q 1056 3291 1056 2328 
Q 1056 1369 1301 889 
Q 1547 409 2034 409 
Q 2525 409 2770 889 
Q 3016 1369 3016 2328 
Q 3016 3291 2770 3770 
Q 2525 4250 2034 4250 
z
M 2034 4750 
Q 2819 4750 3233 4129 
Q 3647 3509 3647 2328 
Q 3647 1150 3233 529 
Q 2819 -91 2034 -91 
Q 1250 -91 836 529 
Q 422 1150 422 2328 
Q 422 3509 836 4129 
Q 1250 4750 2034 4750 
z
" transform="scale(0.015625)"/>
       <path id="DejaVuSans-2e" d="M 684 794 
L 1344 794 
L 1344 0 
L 684 0 
L 684 794 
z
" transform="scale(0.015625)"/>
       <path id="DejaVuSans-31" d="M 794 531 
L 1825 531 
L 1825 4091 
L 703 3866 
L 703 4441 
L 1819 4666 
L 2450 4666 
L 2450 531 
L 3481 531 
L 3481 0 
L 794 0 
L 794 531 
z
" transform="scale(0.015625)"/>
       <path id="DejaVuSans-35" d="M 691 4666 
L 3169 4666 
L 3169 4134 
L 1269 4134 
L 1269 2991 
Q 1406 3038 1543 3061 
Q 1681 3084 1819 3084 
Q 2600 3084 3056 2656 
Q 3513 2228 3513 1497 
Q 3513 744 3044 326 
Q 2575 -91 1722 -91 
Q 1428 -91 1123 -41 
Q 819 9 494 109 
L 494 744 
Q 775 591 1075 516 
Q 1375 441 1709 441 
Q 2250 441 2565 725 
Q 2881 1009 2881 1497 
Q 2881 1984 2565 2268 
Q 2250 2553 1709 2553 
Q 1456 2553 1204 2497 
Q 953 2441 691 2322 
L 691 4666 
z
" transform="scale(0.015625)"/>
      </defs>
      <use xlink:href="#DejaVuSans-30"/>
      <use xlink:href="#DejaVuSans-2e" x="63.623047"/>
      <use xlink:href="#DejaVuSans-31" x="95.410156"/>
      <use xlink:href="#DejaVuSans-35" x="159.033203"/>
     </g>
    </g>
   </g>
   <g id="xtick_2">
    <g id="line2d_3">
     <path d="M 147.851462 249.122516 
L 145.584669 251.082594 
" style="fill: none; stroke: #000000; stroke-width: 0.8; stroke-linecap: square"/>
    </g>
    <g id="text_3">
     <!-- 0.20 -->
     <g transform="translate(128.450059 273.186745) scale(0.1 -0.1)">
      <defs>
       <path id="DejaVuSans-32" d="M 1228 531 
L 3431 531 
L 3431 0 
L 469 0 
L 469 531 
Q 828 903 1448 1529 
Q 2069 2156 2228 2338 
Q 2531 2678 2651 2914 
Q 2772 3150 2772 3378 
Q 2772 3750 2511 3984 
Q 2250 4219 1831 4219 
Q 1534 4219 1204 4116 
Q 875 4013 500 3803 
L 500 4441 
Q 881 4594 1212 4672 
Q 1544 4750 1819 4750 
Q 2544 4750 2975 4387 
Q 3406 4025 3406 3419 
Q 3406 3131 3298 2873 
Q 3191 2616 2906 2266 
Q 2828 2175 2409 1742 
Q 1991 1309 1228 531 
z
" transform="scale(0.015625)"/>
      </defs>
      <use xlink:href="#DejaVuSans-30"/>
      <use xlink:href="#DejaVuSans-2e" x="63.623047"/>
      <use xlink:href="#DejaVuSans-32" x="95.410156"/>
      <use xlink:href="#DejaVuSans-30" x="159.033203"/>
     </g>
    </g>
   </g>
   <g id="xtick_3">
    <g id="line2d_4">
     <path d="M 166.781305 255.298893 
L 164.540182 257.285737 
" style="fill: none; stroke: #000000; stroke-width: 0.8; stroke-linecap: square"/>
    </g>
    <g id="text_4">
     <!-- 0.25 -->
     <g transform="translate(147.408411 279.503266) scale(0.1 -0.1)">
      <use xlink:href="#DejaVuSans-30"/>
      <use xlink:href="#DejaVuSans-2e" x="63.623047"/>
      <use xlink:href="#DejaVuSans-32" x="95.410156"/>
      <use xlink:href="#DejaVuSans-35" x="159.033203"/>
     </g>
    </g>
   </g>
   <g id="xtick_4">
    <g id="line2d_5">
     <path d="M 185.970245 261.559808 
L 183.755711 263.573969 
" style="fill: none; stroke: #000000; stroke-width: 0.8; stroke-linecap: square"/>
    </g>
    <g id="text_5">
     <!-- 0.30 -->
     <g transform="translate(166.627424 285.906634) scale(0.1 -0.1)">
      <defs>
       <path id="DejaVuSans-33" d="M 2597 2516 
Q 3050 2419 3304 2112 
Q 3559 1806 3559 1356 
Q 3559 666 3084 287 
Q 2609 -91 1734 -91 
Q 1441 -91 1130 -33 
Q 819 25 488 141 
L 488 750 
Q 750 597 1062 519 
Q 1375 441 1716 441 
Q 2309 441 2620 675 
Q 2931 909 2931 1356 
Q 2931 1769 2642 2001 
Q 2353 2234 1838 2234 
L 1294 2234 
L 1294 2753 
L 1863 2753 
Q 2328 2753 2575 2939 
Q 2822 3125 2822 3475 
Q 2822 3834 2567 4026 
Q 2313 4219 1838 4219 
Q 1578 4219 1281 4162 
Q 984 4106 628 3988 
L 628 4550 
Q 988 4650 1302 4700 
Q 1616 4750 1894 4750 
Q 2613 4750 3031 4423 
Q 3450 4097 3450 3541 
Q 3450 3153 3228 2886 
Q 3006 2619 2597 2516 
z
" transform="scale(0.015625)"/>
      </defs>
      <use xlink:href="#DejaVuSans-30"/>
      <use xlink:href="#DejaVuSans-2e" x="63.623047"/>
      <use xlink:href="#DejaVuSans-33" x="95.410156"/>
      <use xlink:href="#DejaVuSans-30" x="159.033203"/>
     </g>
    </g>
   </g>
   <g id="xtick_5">
    <g id="line2d_6">
     <path d="M 205.42364 267.907008 
L 203.236643 269.949054 
" style="fill: none; stroke: #000000; stroke-width: 0.8; stroke-linecap: square"/>
    </g>
    <g id="text_6">
     <!-- 0.35 -->
     <g transform="translate(186.11251 292.398652) scale(0.1 -0.1)">
      <use xlink:href="#DejaVuSans-30"/>
      <use xlink:href="#DejaVuSans-2e" x="63.623047"/>
      <use xlink:href="#DejaVuSans-33" x="95.410156"/>
      <use xlink:href="#DejaVuSans-35" x="159.033203"/>
     </g>
    </g>
   </g>
   <g id="xtick_6">
    <g id="line2d_7">
     <path d="M 225.146993 274.342289 
L 222.988516 276.412803 
" style="fill: none; stroke: #000000; stroke-width: 0.8; stroke-linecap: square"/>
    </g>
    <g id="text_7">
     <!-- 0.40 -->
     <g transform="translate(205.869234 298.981174) scale(0.1 -0.1)">
      <defs>
       <path id="DejaVuSans-34" d="M 2419 4116 
L 825 1625 
L 2419 1625 
L 2419 4116 
z
M 2253 4666 
L 3047 4666 
L 3047 1625 
L 3713 1625 
L 3713 1100 
L 3047 1100 
L 3047 0 
L 2419 0 
L 2419 1100 
L 313 1100 
L 313 1709 
L 2253 4666 
z
" transform="scale(0.015625)"/>
      </defs>
      <use xlink:href="#DejaVuSans-30"/>
      <use xlink:href="#DejaVuSans-2e" x="63.623047"/>
      <use xlink:href="#DejaVuSans-34" x="95.410156"/>
      <use xlink:href="#DejaVuSans-30" x="159.033203"/>
     </g>
    </g>
   </g>
   <g id="xtick_7">
    <g id="line2d_8">
     <path d="M 245.145964 280.867499 
L 243.017021 282.96708 
" style="fill: none; stroke: #000000; stroke-width: 0.8; stroke-linecap: square"/>
    </g>
    <g id="text_8">
     <!-- 0.45 -->
     <g transform="translate(225.903316 305.656105) scale(0.1 -0.1)">
      <use xlink:href="#DejaVuSans-30"/>
      <use xlink:href="#DejaVuSans-2e" x="63.623047"/>
      <use xlink:href="#DejaVuSans-34" x="95.410156"/>
      <use xlink:href="#DejaVuSans-35" x="159.033203"/>
     </g>
    </g>
   </g>
   <g id="xtick_8">
    <g id="line2d_9">
     <path d="M 265.42637 287.484534 
L 263.328011 289.613799 
" style="fill: none; stroke: #000000; stroke-width: 0.8; stroke-linecap: square"/>
    </g>
    <g id="text_9">
     <!-- 0.50 -->
     <g transform="translate(246.220637 312.425406) scale(0.1 -0.1)">
      <use xlink:href="#DejaVuSans-30"/>
      <use xlink:href="#DejaVuSans-2e" x="63.623047"/>
      <use xlink:href="#DejaVuSans-35" x="95.410156"/>
      <use xlink:href="#DejaVuSans-30" x="159.033203"/>
     </g>
    </g>
   </g>
  </g>
  <g id="axis3d_2">
   <g id="line2d_10">
    <path d="M 352.090401 209.294766 
L 272.679269 290.790123 
" style="fill: none; stroke: #000000; stroke-width: 0.8; stroke-linecap: square"/>
   </g>
   <g id="text_10">
    <!-- Sy -->
    <g transform="translate(334.999188 278.988697) scale(0.1 -0.1)">
     <defs>
      <path id="DejaVuSans-79" d="M 2059 -325 
Q 1816 -950 1584 -1140 
Q 1353 -1331 966 -1331 
L 506 -1331 
L 506 -850 
L 844 -850 
Q 1081 -850 1212 -737 
Q 1344 -625 1503 -206 
L 1606 56 
L 191 3500 
L 800 3500 
L 1894 763 
L 2988 3500 
L 3597 3500 
L 2059 -325 
z
" transform="scale(0.015625)"/>
     </defs>
     <use xlink:href="#DejaVuSans-53"/>
     <use xlink:href="#DejaVuSans-79" x="63.476562"/>
    </g>
   </g>
   <g id="Line3DCollection_2">
    <path d="M 122.056777 126.144817 
L 127.273285 238.55273 
L 276.378051 286.994263 
" style="fill: none; stroke: #b0b0b0; stroke-width: 0.8"/>
    <path d="M 135.911659 116.034155 
L 140.457477 227.501479 
L 288.331726 274.726851 
" style="fill: none; stroke: #b0b0b0; stroke-width: 0.8"/>
    <path d="M 149.414492 106.180402 
L 153.321148 216.718895 
L 299.979522 262.773347 
" style="fill: none; stroke: #b0b0b0; stroke-width: 0.8"/>
    <path d="M 162.578526 96.57389 
L 165.875847 206.195298 
L 311.333032 251.121852 
" style="fill: none; stroke: #b0b0b0; stroke-width: 0.8"/>
    <path d="M 175.416353 87.205429 
L 178.132572 195.921467 
L 322.403269 239.761066 
" style="fill: none; stroke: #b0b0b0; stroke-width: 0.8"/>
    <path d="M 187.939951 78.066277 
L 190.101809 185.888615 
L 333.200705 228.680241 
" style="fill: none; stroke: #b0b0b0; stroke-width: 0.8"/>
    <path d="M 200.160717 69.148119 
L 201.793554 176.088363 
L 343.735299 217.869156 
" style="fill: none; stroke: #b0b0b0; stroke-width: 0.8"/>
   </g>
   <g id="xtick_9">
    <g id="line2d_11">
     <path d="M 275.121416 286.586004 
L 278.894576 287.811838 
" style="fill: none; stroke: #000000; stroke-width: 0.8; stroke-linecap: square"/>
    </g>
    <g id="text_11">
     <!-- −0.3 -->
     <g transform="translate(277.141345 308.043301) scale(0.1 -0.1)">
      <defs>
       <path id="DejaVuSans-2212" d="M 678 2272 
L 4684 2272 
L 4684 1741 
L 678 1741 
L 678 2272 
z
" transform="scale(0.015625)"/>
      </defs>
      <use xlink:href="#DejaVuSans-2212"/>
      <use xlink:href="#DejaVuSans-30" x="83.789062"/>
      <use xlink:href="#DejaVuSans-2e" x="147.412109"/>
      <use xlink:href="#DejaVuSans-33" x="179.199219"/>
     </g>
    </g>
   </g>
   <g id="xtick_10">
    <g id="line2d_12">
     <path d="M 287.086282 274.329104 
L 290.8258 275.523363 
" style="fill: none; stroke: #000000; stroke-width: 0.8; stroke-linecap: square"/>
    </g>
    <g id="text_12">
     <!-- −0.2 -->
     <g transform="translate(288.934752 295.5942) scale(0.1 -0.1)">
      <use xlink:href="#DejaVuSans-2212"/>
      <use xlink:href="#DejaVuSans-30" x="83.789062"/>
      <use xlink:href="#DejaVuSans-2e" x="147.412109"/>
      <use xlink:href="#DejaVuSans-32" x="179.199219"/>
     </g>
    </g>
   </g>
   <g id="xtick_11">
    <g id="line2d_13">
     <path d="M 298.745111 262.38571 
L 302.451462 263.549598 
" style="fill: none; stroke: #000000; stroke-width: 0.8; stroke-linecap: square"/>
    </g>
    <g id="text_13">
     <!-- −0.1 -->
     <g transform="translate(300.426206 283.463841) scale(0.1 -0.1)">
      <use xlink:href="#DejaVuSans-2212"/>
      <use xlink:href="#DejaVuSans-30" x="83.789062"/>
      <use xlink:href="#DejaVuSans-2e" x="147.412109"/>
      <use xlink:href="#DejaVuSans-31" x="179.199219"/>
     </g>
    </g>
   </g>
   <g id="xtick_12">
    <g id="line2d_14">
     <path d="M 310.109497 250.743946 
L 313.783154 251.878608 
" style="fill: none; stroke: #000000; stroke-width: 0.8; stroke-linecap: square"/>
    </g>
    <g id="text_14">
     <!-- 0.0 -->
     <g transform="translate(315.816999 271.640139) scale(0.1 -0.1)">
      <use xlink:href="#DejaVuSans-30"/>
      <use xlink:href="#DejaVuSans-2e" x="63.623047"/>
      <use xlink:href="#DejaVuSans-30" x="95.410156"/>
     </g>
    </g>
   </g>
   <g id="xtick_13">
    <g id="line2d_15">
     <path d="M 321.190455 239.392527 
L 324.831884 240.49905 
" style="fill: none; stroke: #000000; stroke-width: 0.8; stroke-linecap: square"/>
    </g>
    <g id="text_15">
     <!-- 0.1 -->
     <g transform="translate(326.738323 260.111608) scale(0.1 -0.1)">
      <use xlink:href="#DejaVuSans-30"/>
      <use xlink:href="#DejaVuSans-2e" x="63.623047"/>
      <use xlink:href="#DejaVuSans-31" x="95.410156"/>
     </g>
    </g>
   </g>
   <g id="xtick_14">
    <g id="line2d_16">
     <path d="M 331.998457 228.320727 
L 335.608123 229.400144 
" style="fill: none; stroke: #000000; stroke-width: 0.8; stroke-linecap: square"/>
    </g>
    <g id="text_16">
     <!-- 0.2 -->
     <g transform="translate(337.390363 248.867333) scale(0.1 -0.1)">
      <use xlink:href="#DejaVuSans-30"/>
      <use xlink:href="#DejaVuSans-2e" x="63.623047"/>
      <use xlink:href="#DejaVuSans-32" x="95.410156"/>
     </g>
    </g>
   </g>
   <g id="xtick_15">
    <g id="line2d_17">
     <path d="M 342.543467 217.518338 
L 346.121826 218.571634 
" style="fill: none; stroke: #000000; stroke-width: 0.8; stroke-linecap: square"/>
    </g>
    <g id="text_17">
     <!-- 0.3 -->
     <g transform="translate(347.782958 237.896928) scale(0.1 -0.1)">
      <use xlink:href="#DejaVuSans-30"/>
      <use xlink:href="#DejaVuSans-2e" x="63.623047"/>
      <use xlink:href="#DejaVuSans-33" x="95.410156"/>
     </g>
    </g>
   </g>
  </g>
  <g id="axis3d_3">
   <g id="line2d_18">
    <path d="M 352.090401 209.294766 
L 357.122702 99.402171 
" style="fill: none; stroke: #000000; stroke-width: 0.8; stroke-linecap: square"/>
   </g>
   <g id="text_18">
    <!-- Sz -->
    <g transform="translate(389.128792 152.902279) scale(0.1 -0.1)">
     <defs>
      <path id="DejaVuSans-7a" d="M 353 3500 
L 3084 3500 
L 3084 2975 
L 922 459 
L 3084 459 
L 3084 0 
L 275 0 
L 275 525 
L 2438 3041 
L 353 3041 
L 353 3500 
z
" transform="scale(0.015625)"/>
     </defs>
     <use xlink:href="#DejaVuSans-53"/>
     <use xlink:href="#DejaVuSans-7a" x="63.476562"/>
    </g>
   </g>
   <g id="Line3DCollection_3">
    <path d="M 353.000285 189.425204 
L 210.854906 149.066289 
L 122.217385 221.62093 
" style="fill: none; stroke: #b0b0b0; stroke-width: 0.8"/>
    <path d="M 354.100085 165.408398 
L 210.587691 125.828604 
L 121.032153 197.008807 
" style="fill: none; stroke: #b0b0b0; stroke-width: 0.8"/>
    <path d="M 355.221455 140.920527 
L 210.315489 102.157207 
L 119.822773 171.895263 
" style="fill: none; stroke: #b0b0b0; stroke-width: 0.8"/>
    <path d="M 356.365039 115.947594 
L 210.038158 78.039841 
L 118.588502 146.264816 
" style="fill: none; stroke: #b0b0b0; stroke-width: 0.8"/>
   </g>
   <g id="xtick_16">
    <g id="line2d_19">
     <path d="M 351.806842 189.086353 
L 355.390034 190.103718 
" style="fill: none; stroke: #000000; stroke-width: 0.8; stroke-linecap: square"/>
    </g>
    <g id="text_19">
     <!-- −0.2 -->
     <g transform="translate(359.252132 194.457663) scale(0.1 -0.1)">
      <use xlink:href="#DejaVuSans-2212"/>
      <use xlink:href="#DejaVuSans-30" x="83.789062"/>
      <use xlink:href="#DejaVuSans-2e" x="147.412109"/>
      <use xlink:href="#DejaVuSans-32" x="179.199219"/>
     </g>
    </g>
   </g>
   <g id="xtick_17">
    <g id="line2d_20">
     <path d="M 352.894612 165.075937 
L 356.513948 166.074126 
" style="fill: none; stroke: #000000; stroke-width: 0.8; stroke-linecap: square"/>
    </g>
    <g id="text_20">
     <!-- 0.0 -->
     <g transform="translate(364.716504 170.489305) scale(0.1 -0.1)">
      <use xlink:href="#DejaVuSans-30"/>
      <use xlink:href="#DejaVuSans-2e" x="63.623047"/>
      <use xlink:href="#DejaVuSans-30" x="95.410156"/>
     </g>
    </g>
   </g>
   <g id="xtick_18">
    <g id="line2d_21">
     <path d="M 354.00371 140.594772 
L 357.659924 141.572834 
" style="fill: none; stroke: #000000; stroke-width: 0.8; stroke-linecap: square"/>
    </g>
    <g id="text_21">
     <!-- 0.2 -->
     <g transform="translate(366.015954 146.05228) scale(0.1 -0.1)">
      <use xlink:href="#DejaVuSans-30"/>
      <use xlink:href="#DejaVuSans-2e" x="63.623047"/>
      <use xlink:href="#DejaVuSans-32" x="95.410156"/>
     </g>
    </g>
   </g>
   <g id="xtick_19">
    <g id="line2d_22">
     <path d="M 355.134767 115.628877 
L 358.828619 116.585815 
" style="fill: none; stroke: #000000; stroke-width: 0.8; stroke-linecap: square"/>
    </g>
    <g id="text_22">
     <!-- 0.4 -->
     <g transform="translate(367.341064 121.132707) scale(0.1 -0.1)">
      <use xlink:href="#DejaVuSans-30"/>
      <use xlink:href="#DejaVuSans-2e" x="63.623047"/>
      <use xlink:href="#DejaVuSans-34" x="95.410156"/>
     </g>
    </g>
   </g>
  </g>
  <g id="axes_1">
   <g id="Path3DCollection_1">
    <defs>
     <path id="C0_0_9d35a23792" d="M 0 2.236068 
C 0.593012 2.236068 1.161816 2.000462 1.581139 1.581139 
C 2.000462 1.161816 2.236068 0.593012 2.236068 -0 
C 2.236068 -0.593012 2.000462 -1.161816 1.581139 -1.581139 
C 1.161816 -2.000462 0.593012 -2.236068 0 -2.236068 
C -0.593012 -2.236068 -1.161816 -2.000462 -1.581139 -1.581139 
C -2.000462 -1.161816 -2.236068 -0.593012 -2.236068 0 
C -2.236068 0.593012 -2.000462 1.161816 -1.581139 1.581139 
C -1.161816 2.000462 -0.593012 2.236068 0 2.236068 
z
"/>
    </defs>
    <g clip-path="url(#pb2c664b56f)">
     <use xlink:href="#C0_0_9d35a23792" x="269.002413" y="171.617761" style="fill: #0000ff; fill-opacity: 0.3; stroke: #0000ff; stroke-opacity: 0.3"/>
    </g>
    <g clip-path="url(#pb2c664b56f)">
     <use xlink:href="#C0_0_9d35a23792" x="265.88626" y="179.518962" style="fill: #0000ff; fill-opacity: 0.329967; stroke: #0000ff; stroke-opacity: 0.329967"/>
    </g>
    <g clip-path="url(#pb2c664b56f)">
     <use xlink:href="#C0_0_9d35a23792" x="263.012135" y="187.657829" style="fill: #0000ff; fill-opacity: 0.389093; stroke: #0000ff; stroke-opacity: 0.389093"/>
    </g>
    <g clip-path="url(#pb2c664b56f)">
     <use xlink:href="#C0_0_9d35a23792" x="260.496758" y="195.641241" style="fill: #0000ff; fill-opacity: 0.475122; stroke: #0000ff; stroke-opacity: 0.475122"/>
    </g>
    <g clip-path="url(#pb2c664b56f)">
     <use xlink:href="#C0_0_9d35a23792" x="258.452565" y="203.083644" style="fill: #0000ff; fill-opacity: 0.584499; stroke: #0000ff; stroke-opacity: 0.584499"/>
    </g>
    <g clip-path="url(#pb2c664b56f)">
     <use xlink:href="#C0_0_9d35a23792" x="256.982144" y="209.624992" style="fill: #0000ff; fill-opacity: 0.712459; stroke: #0000ff; stroke-opacity: 0.712459"/>
    </g>
    <g clip-path="url(#pb2c664b56f)">
     <use xlink:href="#C0_0_9d35a23792" x="256.17219" y="214.94991" style="fill: #0000ff; fill-opacity: 0.853177; stroke: #0000ff; stroke-opacity: 0.853177"/>
    </g>
    <g clip-path="url(#pb2c664b56f)">
     <use xlink:href="#C0_0_9d35a23792" x="256.08749" y="218.807592" style="fill: #0000ff; stroke: #0000ff"/>
    </g>
   </g>
   <g id="text_23">
    <!-- Average magnetic moment -->
    <g transform="translate(154.3575 35.472) scale(0.12 -0.12)">
     <defs>
      <path id="DejaVuSans-41" d="M 2188 4044 
L 1331 1722 
L 3047 1722 
L 2188 4044 
z
M 1831 4666 
L 2547 4666 
L 4325 0 
L 3669 0 
L 3244 1197 
L 1141 1197 
L 716 0 
L 50 0 
L 1831 4666 
z
" transform="scale(0.015625)"/>
      <path id="DejaVuSans-76" d="M 191 3500 
L 800 3500 
L 1894 563 
L 2988 3500 
L 3597 3500 
L 2284 0 
L 1503 0 
L 191 3500 
z
" transform="scale(0.015625)"/>
      <path id="DejaVuSans-65" d="M 3597 1894 
L 3597 1613 
L 953 1613 
Q 991 1019 1311 708 
Q 1631 397 2203 397 
Q 2534 397 2845 478 
Q 3156 559 3463 722 
L 3463 178 
Q 3153 47 2828 -22 
Q 2503 -91 2169 -91 
Q 1331 -91 842 396 
Q 353 884 353 1716 
Q 353 2575 817 3079 
Q 1281 3584 2069 3584 
Q 2775 3584 3186 3129 
Q 3597 2675 3597 1894 
z
M 3022 2063 
Q 3016 2534 2758 2815 
Q 2500 3097 2075 3097 
Q 1594 3097 1305 2825 
Q 1016 2553 972 2059 
L 3022 2063 
z
" transform="scale(0.015625)"/>
      <path id="DejaVuSans-72" d="M 2631 2963 
Q 2534 3019 2420 3045 
Q 2306 3072 2169 3072 
Q 1681 3072 1420 2755 
Q 1159 2438 1159 1844 
L 1159 0 
L 581 0 
L 581 3500 
L 1159 3500 
L 1159 2956 
Q 1341 3275 1631 3429 
Q 1922 3584 2338 3584 
Q 2397 3584 2469 3576 
Q 2541 3569 2628 3553 
L 2631 2963 
z
" transform="scale(0.015625)"/>
      <path id="DejaVuSans-61" d="M 2194 1759 
Q 1497 1759 1228 1600 
Q 959 1441 959 1056 
Q 959 750 1161 570 
Q 1363 391 1709 391 
Q 2188 391 2477 730 
Q 2766 1069 2766 1631 
L 2766 1759 
L 2194 1759 
z
M 3341 1997 
L 3341 0 
L 2766 0 
L 2766 531 
Q 2569 213 2275 61 
Q 1981 -91 1556 -91 
Q 1019 -91 701 211 
Q 384 513 384 1019 
Q 384 1609 779 1909 
Q 1175 2209 1959 2209 
L 2766 2209 
L 2766 2266 
Q 2766 2663 2505 2880 
Q 2244 3097 1772 3097 
Q 1472 3097 1187 3025 
Q 903 2953 641 2809 
L 641 3341 
Q 956 3463 1253 3523 
Q 1550 3584 1831 3584 
Q 2591 3584 2966 3190 
Q 3341 2797 3341 1997 
z
" transform="scale(0.015625)"/>
      <path id="DejaVuSans-67" d="M 2906 1791 
Q 2906 2416 2648 2759 
Q 2391 3103 1925 3103 
Q 1463 3103 1205 2759 
Q 947 2416 947 1791 
Q 947 1169 1205 825 
Q 1463 481 1925 481 
Q 2391 481 2648 825 
Q 2906 1169 2906 1791 
z
M 3481 434 
Q 3481 -459 3084 -895 
Q 2688 -1331 1869 -1331 
Q 1566 -1331 1297 -1286 
Q 1028 -1241 775 -1147 
L 775 -588 
Q 1028 -725 1275 -790 
Q 1522 -856 1778 -856 
Q 2344 -856 2625 -561 
Q 2906 -266 2906 331 
L 2906 616 
Q 2728 306 2450 153 
Q 2172 0 1784 0 
Q 1141 0 747 490 
Q 353 981 353 1791 
Q 353 2603 747 3093 
Q 1141 3584 1784 3584 
Q 2172 3584 2450 3431 
Q 2728 3278 2906 2969 
L 2906 3500 
L 3481 3500 
L 3481 434 
z
" transform="scale(0.015625)"/>
      <path id="DejaVuSans-20" transform="scale(0.015625)"/>
      <path id="DejaVuSans-6d" d="M 3328 2828 
Q 3544 3216 3844 3400 
Q 4144 3584 4550 3584 
Q 5097 3584 5394 3201 
Q 5691 2819 5691 2113 
L 5691 0 
L 5113 0 
L 5113 2094 
Q 5113 2597 4934 2840 
Q 4756 3084 4391 3084 
Q 3944 3084 3684 2787 
Q 3425 2491 3425 1978 
L 3425 0 
L 2847 0 
L 2847 2094 
Q 2847 2600 2669 2842 
Q 2491 3084 2119 3084 
Q 1678 3084 1418 2786 
Q 1159 2488 1159 1978 
L 1159 0 
L 581 0 
L 581 3500 
L 1159 3500 
L 1159 2956 
Q 1356 3278 1631 3431 
Q 1906 3584 2284 3584 
Q 2666 3584 2933 3390 
Q 3200 3197 3328 2828 
z
" transform="scale(0.015625)"/>
      <path id="DejaVuSans-6e" d="M 3513 2113 
L 3513 0 
L 2938 0 
L 2938 2094 
Q 2938 2591 2744 2837 
Q 2550 3084 2163 3084 
Q 1697 3084 1428 2787 
Q 1159 2491 1159 1978 
L 1159 0 
L 581 0 
L 581 3500 
L 1159 3500 
L 1159 2956 
Q 1366 3272 1645 3428 
Q 1925 3584 2291 3584 
Q 2894 3584 3203 3211 
Q 3513 2838 3513 2113 
z
" transform="scale(0.015625)"/>
      <path id="DejaVuSans-74" d="M 1172 4494 
L 1172 3500 
L 2356 3500 
L 2356 3053 
L 1172 3053 
L 1172 1153 
Q 1172 725 1289 603 
Q 1406 481 1766 481 
L 2356 481 
L 2356 0 
L 1766 0 
Q 1100 0 847 248 
Q 594 497 594 1153 
L 594 3053 
L 172 3053 
L 172 3500 
L 594 3500 
L 594 4494 
L 1172 4494 
z
" transform="scale(0.015625)"/>
      <path id="DejaVuSans-69" d="M 603 3500 
L 1178 3500 
L 1178 0 
L 603 0 
L 603 3500 
z
M 603 4863 
L 1178 4863 
L 1178 4134 
L 603 4134 
L 603 4863 
z
" transform="scale(0.015625)"/>
      <path id="DejaVuSans-63" d="M 3122 3366 
L 3122 2828 
Q 2878 2963 2633 3030 
Q 2388 3097 2138 3097 
Q 1578 3097 1268 2742 
Q 959 2388 959 1747 
Q 959 1106 1268 751 
Q 1578 397 2138 397 
Q 2388 397 2633 464 
Q 2878 531 3122 666 
L 3122 134 
Q 2881 22 2623 -34 
Q 2366 -91 2075 -91 
Q 1284 -91 818 406 
Q 353 903 353 1747 
Q 353 2603 823 3093 
Q 1294 3584 2113 3584 
Q 2378 3584 2631 3529 
Q 2884 3475 3122 3366 
z
" transform="scale(0.015625)"/>
      <path id="DejaVuSans-6f" d="M 1959 3097 
Q 1497 3097 1228 2736 
Q 959 2375 959 1747 
Q 959 1119 1226 758 
Q 1494 397 1959 397 
Q 2419 397 2687 759 
Q 2956 1122 2956 1747 
Q 2956 2369 2687 2733 
Q 2419 3097 1959 3097 
z
M 1959 3584 
Q 2709 3584 3137 3096 
Q 3566 2609 3566 1747 
Q 3566 888 3137 398 
Q 2709 -91 1959 -91 
Q 1206 -91 779 398 
Q 353 888 353 1747 
Q 353 2609 779 3096 
Q 1206 3584 1959 3584 
z
" transform="scale(0.015625)"/>
     </defs>
     <use xlink:href="#DejaVuSans-41"/>
     <use xlink:href="#DejaVuSans-76" x="62.533203"/>
     <use xlink:href="#DejaVuSans-65" x="121.712891"/>
     <use xlink:href="#DejaVuSans-72" x="183.236328"/>
     <use xlink:href="#DejaVuSans-61" x="224.349609"/>
     <use xlink:href="#DejaVuSans-67" x="285.628906"/>
     <use xlink:href="#DejaVuSans-65" x="349.105469"/>
     <use xlink:href="#DejaVuSans-20" x="410.628906"/>
     <use xlink:href="#DejaVuSans-6d" x="442.416016"/>
     <use xlink:href="#DejaVuSans-61" x="539.828125"/>
     <use xlink:href="#DejaVuSans-67" x="601.107422"/>
     <use xlink:href="#DejaVuSans-6e" x="664.583984"/>
     <use xlink:href="#DejaVuSans-65" x="727.962891"/>
     <use xlink:href="#DejaVuSans-74" x="789.486328"/>
     <use xlink:href="#DejaVuSans-69" x="828.695312"/>
     <use xlink:href="#DejaVuSans-63" x="856.478516"/>
     <use xlink:href="#DejaVuSans-20" x="911.458984"/>
     <use xlink:href="#DejaVuSans-6d" x="943.246094"/>
     <use xlink:href="#DejaVuSans-6f" x="1040.658203"/>
     <use xlink:href="#DejaVuSans-6d" x="1101.839844"/>
     <use xlink:href="#DejaVuSans-65" x="1199.251953"/>
     <use xlink:href="#DejaVuSans-6e" x="1260.775391"/>
     <use xlink:href="#DejaVuSans-74" x="1324.154297"/>
    </g>
   </g>
   <g id="Path3DCollection_2">
    <defs>
     <path id="C1_0_bad174d553" d="M 0 2.236068 
C 0.593012 2.236068 1.161816 2.000462 1.581139 1.581139 
C 2.000462 1.161816 2.236068 0.593012 2.236068 -0 
C 2.236068 -0.593012 2.000462 -1.161816 1.581139 -1.581139 
C 1.161816 -2.000462 0.593012 -2.236068 0 -2.236068 
C -0.593012 -2.236068 -1.161816 -2.000462 -1.581139 -1.581139 
C -2.000462 -1.161816 -2.236068 -0.593012 -2.236068 0 
C -2.236068 0.593012 -2.000462 1.161816 -1.581139 1.581139 
C -1.161816 2.000462 -0.593012 2.236068 0 2.236068 
z
"/>
    </defs>
    <g clip-path="url(#pb2c664b56f)">
     <use xlink:href="#C1_0_bad174d553" x="294.054408" y="172.151642" style="fill: #00bfbf; fill-opacity: 0.3; stroke: #00bfbf; stroke-opacity: 0.3"/>
    </g>
    <g clip-path="url(#pb2c664b56f)">
     <use xlink:href="#C1_0_bad174d553" x="297.637134" y="169.413661" style="fill: #00bfbf; fill-opacity: 0.388833; stroke: #00bfbf; stroke-opacity: 0.388833"/>
    </g>
    <g clip-path="url(#pb2c664b56f)">
     <use xlink:href="#C1_0_bad174d553" x="300.834166" y="167.972096" style="fill: #00bfbf; fill-opacity: 0.497374; stroke: #00bfbf; stroke-opacity: 0.497374"/>
    </g>
    <g clip-path="url(#pb2c664b56f)">
     <use xlink:href="#C1_0_bad174d553" x="303.631283" y="167.797437" style="fill: #00bfbf; fill-opacity: 0.616187; stroke: #00bfbf; stroke-opacity: 0.616187"/>
    </g>
    <g clip-path="url(#pb2c664b56f)">
     <use xlink:href="#C1_0_bad174d553" x="306.010764" y="168.763995" style="fill: #00bfbf; fill-opacity: 0.73524; stroke: #00bfbf; stroke-opacity: 0.73524"/>
    </g>
    <g clip-path="url(#pb2c664b56f)">
     <use xlink:href="#C1_0_bad174d553" x="307.950588" y="170.656291" style="fill: #00bfbf; fill-opacity: 0.844617; stroke: #00bfbf; stroke-opacity: 0.844617"/>
    </g>
    <g clip-path="url(#pb2c664b56f)">
     <use xlink:href="#C1_0_bad174d553" x="309.426289" y="173.184056" style="fill: #00bfbf; fill-opacity: 0.935312; stroke: #00bfbf; stroke-opacity: 0.935312"/>
    </g>
    <g clip-path="url(#pb2c664b56f)">
     <use xlink:href="#C1_0_bad174d553" x="310.414939" y="176.005594" style="fill: #00bfbf; stroke: #00bfbf"/>
    </g>
   </g>
   <g id="Path3DCollection_3">
    <defs>
     <path id="C2_0_251d52e9b0" d="M 0 2.236068 
C 0.593012 2.236068 1.161816 2.000462 1.581139 1.581139 
C 2.000462 1.161816 2.236068 0.593012 2.236068 -0 
C 2.236068 -0.593012 2.000462 -1.161816 1.581139 -1.581139 
C 1.161816 -2.000462 0.593012 -2.236068 0 -2.236068 
C -0.593012 -2.236068 -1.161816 -2.000462 -1.581139 -1.581139 
C -2.000462 -1.161816 -2.236068 -0.593012 -2.236068 0 
C -2.236068 0.593012 -2.000462 1.161816 -1.581139 1.581139 
C -1.161816 2.000462 -0.593012 2.236068 0 2.236068 
z
"/>
    </defs>
    <g clip-path="url(#pb2c664b56f)">
     <use xlink:href="#C2_0_251d52e9b0" x="223.861652" y="108.027211" style="fill: #ffa500; fill-opacity: 0.3; stroke: #ffa500; stroke-opacity: 0.3"/>
    </g>
    <g clip-path="url(#pb2c664b56f)">
     <use xlink:href="#C2_0_251d52e9b0" x="211.725609" y="104.32468" style="fill: #ffa500; fill-opacity: 0.313901; stroke: #ffa500; stroke-opacity: 0.313901"/>
    </g>
    <g clip-path="url(#pb2c664b56f)">
     <use xlink:href="#C2_0_251d52e9b0" x="200.195089" y="102.128534" style="fill: #ffa500; fill-opacity: 0.364098; stroke: #ffa500; stroke-opacity: 0.364098"/>
    </g>
    <g clip-path="url(#pb2c664b56f)">
     <use xlink:href="#C2_0_251d52e9b0" x="189.824658" y="101.4825" style="fill: #ffa500; fill-opacity: 0.44772; stroke: #ffa500; stroke-opacity: 0.44772"/>
    </g>
    <g clip-path="url(#pb2c664b56f)">
     <use xlink:href="#C2_0_251d52e9b0" x="181.102034" y="102.338986" style="fill: #ffa500; fill-opacity: 0.560041; stroke: #ffa500; stroke-opacity: 0.560041"/>
    </g>
    <g clip-path="url(#pb2c664b56f)">
     <use xlink:href="#C2_0_251d52e9b0" x="174.412329" y="104.561068" style="fill: #ffa500; fill-opacity: 0.694724; stroke: #ffa500; stroke-opacity: 0.694724"/>
    </g>
    <g clip-path="url(#pb2c664b56f)">
     <use xlink:href="#C2_0_251d52e9b0" x="170.006573" y="107.93034" style="fill: #ffa500; fill-opacity: 0.844173; stroke: #ffa500; stroke-opacity: 0.844173"/>
    </g>
    <g clip-path="url(#pb2c664b56f)">
     <use xlink:href="#C2_0_251d52e9b0" x="167.977426" y="112.160897" style="fill: #ffa500; stroke: #ffa500"/>
    </g>
   </g>
   <g id="legend_1">
    <g id="patch_6">
     <path d="M 110.104 302.584 
L 169.705563 302.584 
Q 171.705563 302.584 171.705563 300.584 
L 171.705563 169.480875 
Q 171.705563 167.480875 169.705563 167.480875 
L 110.104 167.480875 
Q 108.104 167.480875 108.104 169.480875 
L 108.104 300.584 
Q 108.104 302.584 110.104 302.584 
z
" style="fill: #ffffff; opacity: 0.8; stroke: #cccccc; stroke-linejoin: miter"/>
    </g>
    <g id="Path3DCollection_4">
     <defs>
      <path id="me1f99f511b" d="M 0 2.236068 
C 0.593012 2.236068 1.161816 2.000462 1.581139 1.581139 
C 2.000462 1.161816 2.236068 0.593012 2.236068 0 
C 2.236068 -0.593012 2.000462 -1.161816 1.581139 -1.581139 
C 1.161816 -2.000462 0.593012 -2.236068 0 -2.236068 
C -0.593012 -2.236068 -1.161816 -2.000462 -1.581139 -1.581139 
C -2.000462 -1.161816 -2.236068 -0.593012 -2.236068 0 
C -2.236068 0.593012 -2.000462 1.161816 -1.581139 1.581139 
C -1.161816 2.000462 -0.593012 2.236068 0 2.236068 
z
" style="stroke: #ff0000"/>
     </defs>
     <g>
      <use xlink:href="#me1f99f511b" x="122.104" y="176.454313" style="fill: #ff0000; stroke: #ff0000"/>
     </g>
    </g>
    <g id="text_24">
     <!-- site 1 -->
     <g transform="translate(140.104 179.079313) scale(0.1 -0.1)">
      <defs>
       <path id="DejaVuSans-73" d="M 2834 3397 
L 2834 2853 
Q 2591 2978 2328 3040 
Q 2066 3103 1784 3103 
Q 1356 3103 1142 2972 
Q 928 2841 928 2578 
Q 928 2378 1081 2264 
Q 1234 2150 1697 2047 
L 1894 2003 
Q 2506 1872 2764 1633 
Q 3022 1394 3022 966 
Q 3022 478 2636 193 
Q 2250 -91 1575 -91 
Q 1294 -91 989 -36 
Q 684 19 347 128 
L 347 722 
Q 666 556 975 473 
Q 1284 391 1588 391 
Q 1994 391 2212 530 
Q 2431 669 2431 922 
Q 2431 1156 2273 1281 
Q 2116 1406 1581 1522 
L 1381 1569 
Q 847 1681 609 1914 
Q 372 2147 372 2553 
Q 372 3047 722 3315 
Q 1072 3584 1716 3584 
Q 2034 3584 2315 3537 
Q 2597 3491 2834 3397 
z
" transform="scale(0.015625)"/>
      </defs>
      <use xlink:href="#DejaVuSans-73"/>
      <use xlink:href="#DejaVuSans-69" x="52.099609"/>
      <use xlink:href="#DejaVuSans-74" x="79.882812"/>
      <use xlink:href="#DejaVuSans-65" x="119.091797"/>
      <use xlink:href="#DejaVuSans-20" x="180.615234"/>
      <use xlink:href="#DejaVuSans-31" x="212.402344"/>
     </g>
    </g>
    <g id="Path3DCollection_5">
     <defs>
      <path id="md75931022a" d="M 0 2.236068 
C 0.593012 2.236068 1.161816 2.000462 1.581139 1.581139 
C 2.000462 1.161816 2.236068 0.593012 2.236068 0 
C 2.236068 -0.593012 2.000462 -1.161816 1.581139 -1.581139 
C 1.161816 -2.000462 0.593012 -2.236068 0 -2.236068 
C -0.593012 -2.236068 -1.161816 -2.000462 -1.581139 -1.581139 
C -2.000462 -1.161816 -2.236068 -0.593012 -2.236068 0 
C -2.236068 0.593012 -2.000462 1.161816 -1.581139 1.581139 
C -1.161816 2.000462 -0.593012 2.236068 0 2.236068 
z
" style="stroke: #008000"/>
     </defs>
     <g>
      <use xlink:href="#md75931022a" x="122.104" y="191.132438" style="fill: #008000; stroke: #008000"/>
     </g>
    </g>
    <g id="text_25">
     <!-- site 2 -->
     <g transform="translate(140.104 193.757438) scale(0.1 -0.1)">
      <use xlink:href="#DejaVuSans-73"/>
      <use xlink:href="#DejaVuSans-69" x="52.099609"/>
      <use xlink:href="#DejaVuSans-74" x="79.882812"/>
      <use xlink:href="#DejaVuSans-65" x="119.091797"/>
      <use xlink:href="#DejaVuSans-20" x="180.615234"/>
      <use xlink:href="#DejaVuSans-32" x="212.402344"/>
     </g>
    </g>
    <g id="Path3DCollection_6">
     <defs>
      <path id="m7dd6378c38" d="M 0 2.236068 
C 0.593012 2.236068 1.161816 2.000462 1.581139 1.581139 
C 2.000462 1.161816 2.236068 0.593012 2.236068 0 
C 2.236068 -0.593012 2.000462 -1.161816 1.581139 -1.581139 
C 1.161816 -2.000462 0.593012 -2.236068 0 -2.236068 
C -0.593012 -2.236068 -1.161816 -2.000462 -1.581139 -1.581139 
C -2.000462 -1.161816 -2.236068 -0.593012 -2.236068 0 
C -2.236068 0.593012 -2.000462 1.161816 -1.581139 1.581139 
C -1.161816 2.000462 -0.593012 2.236068 0 2.236068 
z
" style="stroke: #0000ff"/>
     </defs>
     <g>
      <use xlink:href="#m7dd6378c38" x="122.104" y="205.810563" style="fill: #0000ff; stroke: #0000ff"/>
     </g>
    </g>
    <g id="text_26">
     <!-- site 3 -->
     <g transform="translate(140.104 208.435563) scale(0.1 -0.1)">
      <use xlink:href="#DejaVuSans-73"/>
      <use xlink:href="#DejaVuSans-69" x="52.099609"/>
      <use xlink:href="#DejaVuSans-74" x="79.882812"/>
      <use xlink:href="#DejaVuSans-65" x="119.091797"/>
      <use xlink:href="#DejaVuSans-20" x="180.615234"/>
      <use xlink:href="#DejaVuSans-33" x="212.402344"/>
     </g>
    </g>
    <g id="Path3DCollection_7">
     <defs>
      <path id="mca92c6490e" d="M 0 2.236068 
C 0.593012 2.236068 1.161816 2.000462 1.581139 1.581139 
C 2.000462 1.161816 2.236068 0.593012 2.236068 0 
C 2.236068 -0.593012 2.000462 -1.161816 1.581139 -1.581139 
C 1.161816 -2.000462 0.593012 -2.236068 0 -2.236068 
C -0.593012 -2.236068 -1.161816 -2.000462 -1.581139 -1.581139 
C -2.000462 -1.161816 -2.236068 -0.593012 -2.236068 0 
C -2.236068 0.593012 -2.000462 1.161816 -1.581139 1.581139 
C -1.161816 2.000462 -0.593012 2.236068 0 2.236068 
z
" style="stroke: #00bfbf"/>
     </defs>
     <g>
      <use xlink:href="#mca92c6490e" x="122.104" y="220.488688" style="fill: #00bfbf; stroke: #00bfbf"/>
     </g>
    </g>
    <g id="text_27">
     <!-- site 4 -->
     <g transform="translate(140.104 223.113688) scale(0.1 -0.1)">
      <use xlink:href="#DejaVuSans-73"/>
      <use xlink:href="#DejaVuSans-69" x="52.099609"/>
      <use xlink:href="#DejaVuSans-74" x="79.882812"/>
      <use xlink:href="#DejaVuSans-65" x="119.091797"/>
      <use xlink:href="#DejaVuSans-20" x="180.615234"/>
      <use xlink:href="#DejaVuSans-34" x="212.402344"/>
     </g>
    </g>
    <g id="Path3DCollection_8">
     <defs>
      <path id="m241336a382" d="M 0 2.236068 
C 0.593012 2.236068 1.161816 2.000462 1.581139 1.581139 
C 2.000462 1.161816 2.236068 0.593012 2.236068 0 
C 2.236068 -0.593012 2.000462 -1.161816 1.581139 -1.581139 
C 1.161816 -2.000462 0.593012 -2.236068 0 -2.236068 
C -0.593012 -2.236068 -1.161816 -2.000462 -1.581139 -1.581139 
C -2.000462 -1.161816 -2.236068 -0.593012 -2.236068 0 
C -2.236068 0.593012 -2.000462 1.161816 -1.581139 1.581139 
C -1.161816 2.000462 -0.593012 2.236068 0 2.236068 
z
" style="stroke: #bf00bf"/>
     </defs>
     <g>
      <use xlink:href="#m241336a382" x="122.104" y="235.166813" style="fill: #bf00bf; stroke: #bf00bf"/>
     </g>
    </g>
    <g id="text_28">
     <!-- site 5 -->
     <g transform="translate(140.104 237.791813) scale(0.1 -0.1)">
      <use xlink:href="#DejaVuSans-73"/>
      <use xlink:href="#DejaVuSans-69" x="52.099609"/>
      <use xlink:href="#DejaVuSans-74" x="79.882812"/>
      <use xlink:href="#DejaVuSans-65" x="119.091797"/>
      <use xlink:href="#DejaVuSans-20" x="180.615234"/>
      <use xlink:href="#DejaVuSans-35" x="212.402344"/>
     </g>
    </g>
    <g id="Path3DCollection_9">
     <defs>
      <path id="m0c718710a7" d="M 0 2.236068 
C 0.593012 2.236068 1.161816 2.000462 1.581139 1.581139 
C 2.000462 1.161816 2.236068 0.593012 2.236068 0 
C 2.236068 -0.593012 2.000462 -1.161816 1.581139 -1.581139 
C 1.161816 -2.000462 0.593012 -2.236068 0 -2.236068 
C -0.593012 -2.236068 -1.161816 -2.000462 -1.581139 -1.581139 
C -2.000462 -1.161816 -2.236068 -0.593012 -2.236068 0 
C -2.236068 0.593012 -2.000462 1.161816 -1.581139 1.581139 
C -1.161816 2.000462 -0.593012 2.236068 0 2.236068 
z
" style="stroke: #bfbf00"/>
     </defs>
     <g>
      <use xlink:href="#m0c718710a7" x="122.104" y="249.844938" style="fill: #bfbf00; stroke: #bfbf00"/>
     </g>
    </g>
    <g id="text_29">
     <!-- site 6 -->
     <g transform="translate(140.104 252.469938) scale(0.1 -0.1)">
      <defs>
       <path id="DejaVuSans-36" d="M 2113 2584 
Q 1688 2584 1439 2293 
Q 1191 2003 1191 1497 
Q 1191 994 1439 701 
Q 1688 409 2113 409 
Q 2538 409 2786 701 
Q 3034 994 3034 1497 
Q 3034 2003 2786 2293 
Q 2538 2584 2113 2584 
z
M 3366 4563 
L 3366 3988 
Q 3128 4100 2886 4159 
Q 2644 4219 2406 4219 
Q 1781 4219 1451 3797 
Q 1122 3375 1075 2522 
Q 1259 2794 1537 2939 
Q 1816 3084 2150 3084 
Q 2853 3084 3261 2657 
Q 3669 2231 3669 1497 
Q 3669 778 3244 343 
Q 2819 -91 2113 -91 
Q 1303 -91 875 529 
Q 447 1150 447 2328 
Q 447 3434 972 4092 
Q 1497 4750 2381 4750 
Q 2619 4750 2861 4703 
Q 3103 4656 3366 4563 
z
" transform="scale(0.015625)"/>
      </defs>
      <use xlink:href="#DejaVuSans-73"/>
      <use xlink:href="#DejaVuSans-69" x="52.099609"/>
      <use xlink:href="#DejaVuSans-74" x="79.882812"/>
      <use xlink:href="#DejaVuSans-65" x="119.091797"/>
      <use xlink:href="#DejaVuSans-20" x="180.615234"/>
      <use xlink:href="#DejaVuSans-36" x="212.402344"/>
     </g>
    </g>
    <g id="Path3DCollection_10">
     <defs>
      <path id="mb79a0ce047" d="M 0 2.236068 
C 0.593012 2.236068 1.161816 2.000462 1.581139 1.581139 
C 2.000462 1.161816 2.236068 0.593012 2.236068 0 
C 2.236068 -0.593012 2.000462 -1.161816 1.581139 -1.581139 
C 1.161816 -2.000462 0.593012 -2.236068 0 -2.236068 
C -0.593012 -2.236068 -1.161816 -2.000462 -1.581139 -1.581139 
C -2.000462 -1.161816 -2.236068 -0.593012 -2.236068 0 
C -2.236068 0.593012 -2.000462 1.161816 -1.581139 1.581139 
C -1.161816 2.000462 -0.593012 2.236068 0 2.236068 
z
" style="stroke: #000000"/>
     </defs>
     <g>
      <use xlink:href="#mb79a0ce047" x="122.104" y="264.523063" style="stroke: #000000"/>
     </g>
    </g>
    <g id="text_30">
     <!-- site 7 -->
     <g transform="translate(140.104 267.148063) scale(0.1 -0.1)">
      <defs>
       <path id="DejaVuSans-37" d="M 525 4666 
L 3525 4666 
L 3525 4397 
L 1831 0 
L 1172 0 
L 2766 4134 
L 525 4134 
L 525 4666 
z
" transform="scale(0.015625)"/>
      </defs>
      <use xlink:href="#DejaVuSans-73"/>
      <use xlink:href="#DejaVuSans-69" x="52.099609"/>
      <use xlink:href="#DejaVuSans-74" x="79.882812"/>
      <use xlink:href="#DejaVuSans-65" x="119.091797"/>
      <use xlink:href="#DejaVuSans-20" x="180.615234"/>
      <use xlink:href="#DejaVuSans-37" x="212.402344"/>
     </g>
    </g>
    <g id="Path3DCollection_11">
     <defs>
      <path id="m2e9d12e0cd" d="M 0 2.236068 
C 0.593012 2.236068 1.161816 2.000462 1.581139 1.581139 
C 2.000462 1.161816 2.236068 0.593012 2.236068 0 
C 2.236068 -0.593012 2.000462 -1.161816 1.581139 -1.581139 
C 1.161816 -2.000462 0.593012 -2.236068 0 -2.236068 
C -0.593012 -2.236068 -1.161816 -2.000462 -1.581139 -1.581139 
C -2.000462 -1.161816 -2.236068 -0.593012 -2.236068 0 
C -2.236068 0.593012 -2.000462 1.161816 -1.581139 1.581139 
C -1.161816 2.000462 -0.593012 2.236068 0 2.236068 
z
" style="stroke: #ffa500"/>
     </defs>
     <g>
      <use xlink:href="#m2e9d12e0cd" x="122.104" y="279.201188" style="fill: #ffa500; stroke: #ffa500"/>
     </g>
    </g>
    <g id="text_31">
     <!-- site 8 -->
     <g transform="translate(140.104 281.826188) scale(0.1 -0.1)">
      <defs>
       <path id="DejaVuSans-38" d="M 2034 2216 
Q 1584 2216 1326 1975 
Q 1069 1734 1069 1313 
Q 1069 891 1326 650 
Q 1584 409 2034 409 
Q 2484 409 2743 651 
Q 3003 894 3003 1313 
Q 3003 1734 2745 1975 
Q 2488 2216 2034 2216 
z
M 1403 2484 
Q 997 2584 770 2862 
Q 544 3141 544 3541 
Q 544 4100 942 4425 
Q 1341 4750 2034 4750 
Q 2731 4750 3128 4425 
Q 3525 4100 3525 3541 
Q 3525 3141 3298 2862 
Q 3072 2584 2669 2484 
Q 3125 2378 3379 2068 
Q 3634 1759 3634 1313 
Q 3634 634 3220 271 
Q 2806 -91 2034 -91 
Q 1263 -91 848 271 
Q 434 634 434 1313 
Q 434 1759 690 2068 
Q 947 2378 1403 2484 
z
M 1172 3481 
Q 1172 3119 1398 2916 
Q 1625 2713 2034 2713 
Q 2441 2713 2670 2916 
Q 2900 3119 2900 3481 
Q 2900 3844 2670 4047 
Q 2441 4250 2034 4250 
Q 1625 4250 1398 4047 
Q 1172 3844 1172 3481 
z
" transform="scale(0.015625)"/>
      </defs>
      <use xlink:href="#DejaVuSans-73"/>
      <use xlink:href="#DejaVuSans-69" x="52.099609"/>
      <use xlink:href="#DejaVuSans-74" x="79.882812"/>
      <use xlink:href="#DejaVuSans-65" x="119.091797"/>
      <use xlink:href="#DejaVuSans-20" x="180.615234"/>
      <use xlink:href="#DejaVuSans-38" x="212.402344"/>
     </g>
    </g>
    <g id="Path3DCollection_12">
     <defs>
      <path id="m654f98980c" d="M 0 2.236068 
C 0.593012 2.236068 1.161816 2.000462 1.581139 1.581139 
C 2.000462 1.161816 2.236068 0.593012 2.236068 0 
C 2.236068 -0.593012 2.000462 -1.161816 1.581139 -1.581139 
C 1.161816 -2.000462 0.593012 -2.236068 0 -2.236068 
C -0.593012 -2.236068 -1.161816 -2.000462 -1.581139 -1.581139 
C -2.000462 -1.161816 -2.236068 -0.593012 -2.236068 0 
C -2.236068 0.593012 -2.000462 1.161816 -1.581139 1.581139 
C -1.161816 2.000462 -0.593012 2.236068 0 2.236068 
z
" style="stroke: #800080"/>
     </defs>
     <g>
      <use xlink:href="#m654f98980c" x="122.104" y="293.879312" style="fill: #800080; stroke: #800080"/>
     </g>
    </g>
    <g id="text_32">
     <!-- site 9 -->
     <g transform="translate(140.104 296.504312) scale(0.1 -0.1)">
      <defs>
       <path id="DejaVuSans-39" d="M 703 97 
L 703 672 
Q 941 559 1184 500 
Q 1428 441 1663 441 
Q 2288 441 2617 861 
Q 2947 1281 2994 2138 
Q 2813 1869 2534 1725 
Q 2256 1581 1919 1581 
Q 1219 1581 811 2004 
Q 403 2428 403 3163 
Q 403 3881 828 4315 
Q 1253 4750 1959 4750 
Q 2769 4750 3195 4129 
Q 3622 3509 3622 2328 
Q 3622 1225 3098 567 
Q 2575 -91 1691 -91 
Q 1453 -91 1209 -44 
Q 966 3 703 97 
z
M 1959 2075 
Q 2384 2075 2632 2365 
Q 2881 2656 2881 3163 
Q 2881 3666 2632 3958 
Q 2384 4250 1959 4250 
Q 1534 4250 1286 3958 
Q 1038 3666 1038 3163 
Q 1038 2656 1286 2365 
Q 1534 2075 1959 2075 
z
" transform="scale(0.015625)"/>
      </defs>
      <use xlink:href="#DejaVuSans-73"/>
      <use xlink:href="#DejaVuSans-69" x="52.099609"/>
      <use xlink:href="#DejaVuSans-74" x="79.882812"/>
      <use xlink:href="#DejaVuSans-65" x="119.091797"/>
      <use xlink:href="#DejaVuSans-20" x="180.615234"/>
      <use xlink:href="#DejaVuSans-39" x="212.402344"/>
     </g>
    </g>
   </g>
   <g id="Path3DCollection_13">
    <defs>
     <path id="C3_0_880b462d1a" d="M 0 2.236068 
C 0.593012 2.236068 1.161816 2.000462 1.581139 1.581139 
C 2.000462 1.161816 2.236068 0.593012 2.236068 -0 
C 2.236068 -0.593012 2.000462 -1.161816 1.581139 -1.581139 
C 1.161816 -2.000462 0.593012 -2.236068 0 -2.236068 
C -0.593012 -2.236068 -1.161816 -2.000462 -1.581139 -1.581139 
C -2.000462 -1.161816 -2.236068 -0.593012 -2.236068 0 
C -2.236068 0.593012 -2.000462 1.161816 -1.581139 1.581139 
C -1.161816 2.000462 -0.593012 2.236068 0 2.236068 
z
"/>
    </defs>
    <g clip-path="url(#pb2c664b56f)">
     <use xlink:href="#C3_0_880b462d1a" x="305.638936" y="204.776174" style="fill: #ff0000; fill-opacity: 0.3; stroke: #ff0000; stroke-opacity: 0.3"/>
    </g>
    <g clip-path="url(#pb2c664b56f)">
     <use xlink:href="#C3_0_880b462d1a" x="302.632216" y="208.434867" style="fill: #ff0000; fill-opacity: 0.314232; stroke: #ff0000; stroke-opacity: 0.314232"/>
    </g>
    <g clip-path="url(#pb2c664b56f)">
     <use xlink:href="#C3_0_880b462d1a" x="308.169418" y="201.20423" style="fill: #ff0000; fill-opacity: 0.333649; stroke: #ff0000; stroke-opacity: 0.333649"/>
    </g>
    <g clip-path="url(#pb2c664b56f)">
     <use xlink:href="#C3_0_880b462d1a" x="299.256109" y="212.006132" style="fill: #ff0000; fill-opacity: 0.375448; stroke: #ff0000; stroke-opacity: 0.375448"/>
    </g>
    <g clip-path="url(#pb2c664b56f)">
     <use xlink:href="#C3_0_880b462d1a" x="295.624102" y="215.321085" style="fill: #ff0000; fill-opacity: 0.480587; stroke: #ff0000; stroke-opacity: 0.480587"/>
    </g>
    <g clip-path="url(#pb2c664b56f)">
     <use xlink:href="#C3_0_880b462d1a" x="291.853171" y="218.223313" style="fill: #ff0000; fill-opacity: 0.624568; stroke: #ff0000; stroke-opacity: 0.624568"/>
    </g>
    <g clip-path="url(#pb2c664b56f)">
     <use xlink:href="#C3_0_880b462d1a" x="288.060557" y="220.575683" style="fill: #ff0000; fill-opacity: 0.800506; stroke: #ff0000; stroke-opacity: 0.800506"/>
    </g>
    <g clip-path="url(#pb2c664b56f)">
     <use xlink:href="#C3_0_880b462d1a" x="284.360316" y="222.266498" style="fill: #ff0000; stroke: #ff0000"/>
    </g>
   </g>
   <g id="Path3DCollection_14">
    <defs>
     <path id="C4_0_c135c900ef" d="M 0 2.236068 
C 0.593012 2.236068 1.161816 2.000462 1.581139 1.581139 
C 2.000462 1.161816 2.236068 0.593012 2.236068 -0 
C 2.236068 -0.593012 2.000462 -1.161816 1.581139 -1.581139 
C 1.161816 -2.000462 0.593012 -2.236068 0 -2.236068 
C -0.593012 -2.236068 -1.161816 -2.000462 -1.581139 -1.581139 
C -2.000462 -1.161816 -2.236068 -0.593012 -2.236068 0 
C -2.236068 0.593012 -2.000462 1.161816 -1.581139 1.581139 
C -1.161816 2.000462 -0.593012 2.236068 0 2.236068 
z
"/>
    </defs>
    <g clip-path="url(#pb2c664b56f)">
     <use xlink:href="#C4_0_c135c900ef" x="249.945397" y="122.042287" style="fill-opacity: 0.3; stroke: #000000; stroke-opacity: 0.3"/>
    </g>
    <g clip-path="url(#pb2c664b56f)">
     <use xlink:href="#C4_0_c135c900ef" x="257.293936" y="127.377824" style="fill-opacity: 0.402473; stroke: #000000; stroke-opacity: 0.402473"/>
    </g>
    <g clip-path="url(#pb2c664b56f)">
     <use xlink:href="#C4_0_c135c900ef" x="262.680876" y="132.552503" style="fill-opacity: 0.519483; stroke: #000000; stroke-opacity: 0.519483"/>
    </g>
    <g clip-path="url(#pb2c664b56f)">
     <use xlink:href="#C4_0_c135c900ef" x="265.884586" y="137.186645" style="fill-opacity: 0.641881; stroke: #000000; stroke-opacity: 0.641881"/>
    </g>
    <g clip-path="url(#pb2c664b56f)">
     <use xlink:href="#C4_0_c135c900ef" x="266.846264" y="140.943175" style="fill-opacity: 0.759998; stroke: #000000; stroke-opacity: 0.759998"/>
    </g>
    <g clip-path="url(#pb2c664b56f)">
     <use xlink:href="#C4_0_c135c900ef" x="265.67852" y="143.556639" style="fill-opacity: 0.864385; stroke: #000000; stroke-opacity: 0.864385"/>
    </g>
    <g clip-path="url(#pb2c664b56f)">
     <use xlink:href="#C4_0_c135c900ef" x="262.658999" y="144.857987" style="fill-opacity: 0.946608; stroke: #000000; stroke-opacity: 0.946608"/>
    </g>
    <g clip-path="url(#pb2c664b56f)">
     <use xlink:href="#C4_0_c135c900ef" x="258.207944" y="144.791677" style="stroke: #000000"/>
    </g>
   </g>
   <g id="Path3DCollection_15">
    <defs>
     <path id="C5_0_bf01dd8624" d="M 0 2.236068 
C 0.593012 2.236068 1.161816 2.000462 1.581139 1.581139 
C 2.000462 1.161816 2.236068 0.593012 2.236068 -0 
C 2.236068 -0.593012 2.000462 -1.161816 1.581139 -1.581139 
C 1.161816 -2.000462 0.593012 -2.236068 0 -2.236068 
C -0.593012 -2.236068 -1.161816 -2.000462 -1.581139 -1.581139 
C -2.000462 -1.161816 -2.236068 -0.593012 -2.236068 0 
C -2.236068 0.593012 -2.000462 1.161816 -1.581139 1.581139 
C -1.161816 2.000462 -0.593012 2.236068 0 2.236068 
z
"/>
    </defs>
    <g clip-path="url(#pb2c664b56f)">
     <use xlink:href="#C5_0_bf01dd8624" x="312.387557" y="182.700021" style="fill: #bf00bf; fill-opacity: 0.3; stroke: #bf00bf; stroke-opacity: 0.3"/>
    </g>
    <g clip-path="url(#pb2c664b56f)">
     <use xlink:href="#C5_0_bf01dd8624" x="312.576936" y="186.297355" style="fill: #bf00bf; fill-opacity: 0.382385; stroke: #bf00bf; stroke-opacity: 0.382385"/>
    </g>
    <g clip-path="url(#pb2c664b56f)">
     <use xlink:href="#C5_0_bf01dd8624" x="312.353648" y="189.568598" style="fill: #bf00bf; fill-opacity: 0.482958; stroke: #bf00bf; stroke-opacity: 0.482958"/>
    </g>
    <g clip-path="url(#pb2c664b56f)">
     <use xlink:href="#C5_0_bf01dd8624" x="311.657485" y="192.219511" style="fill: #bf00bf; fill-opacity: 0.595394; stroke: #bf00bf; stroke-opacity: 0.595394"/>
    </g>
    <g clip-path="url(#pb2c664b56f)">
     <use xlink:href="#C5_0_bf01dd8624" x="310.467659" y="193.994182" style="fill: #bf00bf; fill-opacity: 0.71192; stroke: #bf00bf; stroke-opacity: 0.71192"/>
    </g>
    <g clip-path="url(#pb2c664b56f)">
     <use xlink:href="#C5_0_bf01dd8624" x="308.807833" y="194.700113" style="fill: #bf00bf; fill-opacity: 0.823919; stroke: #bf00bf; stroke-opacity: 0.823919"/>
    </g>
    <g clip-path="url(#pb2c664b56f)">
     <use xlink:href="#C5_0_bf01dd8624" x="306.747047" y="194.22991" style="fill: #bf00bf; fill-opacity: 0.92264; stroke: #bf00bf; stroke-opacity: 0.92264"/>
    </g>
    <g clip-path="url(#pb2c664b56f)">
     <use xlink:href="#C5_0_bf01dd8624" x="304.395992" y="192.576833" style="fill: #bf00bf; stroke: #bf00bf"/>
    </g>
   </g>
   <g id="Path3DCollection_16">
    <defs>
     <path id="C6_0_7ee673b2c0" d="M 0 2.236068 
C 0.593012 2.236068 1.161816 2.000462 1.581139 1.581139 
C 2.000462 1.161816 2.236068 0.593012 2.236068 -0 
C 2.236068 -0.593012 2.000462 -1.161816 1.581139 -1.581139 
C 1.161816 -2.000462 0.593012 -2.236068 0 -2.236068 
C -0.593012 -2.236068 -1.161816 -2.000462 -1.581139 -1.581139 
C -2.000462 -1.161816 -2.236068 -0.593012 -2.236068 0 
C -2.236068 0.593012 -2.000462 1.161816 -1.581139 1.581139 
C -1.161816 2.000462 -0.593012 2.236068 0 2.236068 
z
"/>
    </defs>
    <g clip-path="url(#pb2c664b56f)">
     <use xlink:href="#C6_0_7ee673b2c0" x="261.074224" y="140.940076" style="fill: #bfbf00; fill-opacity: 0.3; stroke: #bfbf00; stroke-opacity: 0.3"/>
    </g>
    <g clip-path="url(#pb2c664b56f)">
     <use xlink:href="#C6_0_7ee673b2c0" x="258.315582" y="142.196697" style="fill: #bfbf00; fill-opacity: 0.390941; stroke: #bfbf00; stroke-opacity: 0.390941"/>
    </g>
    <g clip-path="url(#pb2c664b56f)">
     <use xlink:href="#C6_0_7ee673b2c0" x="256.48127" y="144.59509" style="fill: #bfbf00; fill-opacity: 0.498576; stroke: #bfbf00; stroke-opacity: 0.498576"/>
    </g>
    <g clip-path="url(#pb2c664b56f)">
     <use xlink:href="#C6_0_7ee673b2c0" x="255.835921" y="148.099106" style="fill: #bfbf00; fill-opacity: 0.615786; stroke: #bfbf00; stroke-opacity: 0.615786"/>
    </g>
    <g clip-path="url(#pb2c664b56f)">
     <use xlink:href="#C6_0_7ee673b2c0" x="256.557733" y="152.570386" style="fill: #bfbf00; fill-opacity: 0.733943; stroke: #bfbf00; stroke-opacity: 0.733943"/>
    </g>
    <g clip-path="url(#pb2c664b56f)">
     <use xlink:href="#C6_0_7ee673b2c0" x="258.717582" y="157.773758" style="fill: #bfbf00; fill-opacity: 0.843571; stroke: #bfbf00; stroke-opacity: 0.843571"/>
    </g>
    <g clip-path="url(#pb2c664b56f)">
     <use xlink:href="#C6_0_7ee673b2c0" x="262.2657" y="163.391689" style="fill: #bfbf00; fill-opacity: 0.93515; stroke: #bfbf00; stroke-opacity: 0.93515"/>
    </g>
    <g clip-path="url(#pb2c664b56f)">
     <use xlink:href="#C6_0_7ee673b2c0" x="267.028832" y="169.048026" style="fill: #bfbf00; stroke: #bfbf00"/>
    </g>
   </g>
   <g id="Path3DCollection_17">
    <defs>
     <path id="C7_0_e1fdd0330c" d="M 0 2.236068 
C 0.593012 2.236068 1.161816 2.000462 1.581139 1.581139 
C 2.000462 1.161816 2.236068 0.593012 2.236068 -0 
C 2.236068 -0.593012 2.000462 -1.161816 1.581139 -1.581139 
C 1.161816 -2.000462 0.593012 -2.236068 0 -2.236068 
C -0.593012 -2.236068 -1.161816 -2.000462 -1.581139 -1.581139 
C -2.000462 -1.161816 -2.236068 -0.593012 -2.236068 0 
C -2.236068 0.593012 -2.000462 1.161816 -1.581139 1.581139 
C -1.161816 2.000462 -0.593012 2.236068 0 2.236068 
z
"/>
    </defs>
    <g clip-path="url(#pb2c664b56f)">
     <use xlink:href="#C7_0_e1fdd0330c" x="255.451289" y="170.475889" style="fill: #800080; fill-opacity: 0.3; stroke: #800080; stroke-opacity: 0.3"/>
    </g>
    <g clip-path="url(#pb2c664b56f)">
     <use xlink:href="#C7_0_e1fdd0330c" x="256.46868" y="173.712842" style="fill: #800080; fill-opacity: 0.437811; stroke: #800080; stroke-opacity: 0.437811"/>
    </g>
    <g clip-path="url(#pb2c664b56f)">
     <use xlink:href="#C7_0_e1fdd0330c" x="256.170566" y="176.847194" style="fill: #800080; fill-opacity: 0.579761; stroke: #800080; stroke-opacity: 0.579761"/>
    </g>
    <g clip-path="url(#pb2c664b56f)">
     <use xlink:href="#C7_0_e1fdd0330c" x="254.596376" y="179.658236" style="fill: #800080; fill-opacity: 0.714669; stroke: #800080; stroke-opacity: 0.714669"/>
    </g>
    <g clip-path="url(#pb2c664b56f)">
     <use xlink:href="#C7_0_e1fdd0330c" x="251.888846" y="181.959517" style="fill: #800080; fill-opacity: 0.831927; stroke: #800080; stroke-opacity: 0.831927"/>
    </g>
    <g clip-path="url(#pb2c664b56f)">
     <use xlink:href="#C7_0_e1fdd0330c" x="248.281843" y="183.614174" style="fill: #800080; fill-opacity: 0.922491; stroke: #800080; stroke-opacity: 0.922491"/>
    </g>
    <g clip-path="url(#pb2c664b56f)">
     <use xlink:href="#C7_0_e1fdd0330c" x="244.07967" y="184.546112" style="fill: #800080; fill-opacity: 0.979721; stroke: #800080; stroke-opacity: 0.979721"/>
    </g>
    <g clip-path="url(#pb2c664b56f)">
     <use xlink:href="#C7_0_e1fdd0330c" x="239.629651" y="184.745752" style="fill: #800080; stroke: #800080"/>
    </g>
   </g>
   <g id="Path3DCollection_18">
    <defs>
     <path id="C8_0_39d3ea8ce1" d="M 0 2.236068 
C 0.593012 2.236068 1.161816 2.000462 1.581139 1.581139 
C 2.000462 1.161816 2.236068 0.593012 2.236068 -0 
C 2.236068 -0.593012 2.000462 -1.161816 1.581139 -1.581139 
C 1.161816 -2.000462 0.593012 -2.236068 0 -2.236068 
C -0.593012 -2.236068 -1.161816 -2.000462 -1.581139 -1.581139 
C -2.000462 -1.161816 -2.236068 -0.593012 -2.236068 0 
C -2.236068 0.593012 -2.000462 1.161816 -1.581139 1.581139 
C -1.161816 2.000462 -0.593012 2.236068 0 2.236068 
z
"/>
    </defs>
    <g clip-path="url(#pb2c664b56f)">
     <use xlink:href="#C8_0_39d3ea8ce1" x="274.104581" y="166.148761" style="fill: #008000; fill-opacity: 0.3; stroke: #008000; stroke-opacity: 0.3"/>
    </g>
    <g clip-path="url(#pb2c664b56f)">
     <use xlink:href="#C8_0_39d3ea8ce1" x="269.029563" y="170.828766" style="fill: #008000; fill-opacity: 0.477904; stroke: #008000; stroke-opacity: 0.477904"/>
    </g>
    <g clip-path="url(#pb2c664b56f)">
     <use xlink:href="#C8_0_39d3ea8ce1" x="263.368654" y="177.129422" style="fill: #008000; fill-opacity: 0.642633; stroke: #008000; stroke-opacity: 0.642633"/>
    </g>
    <g clip-path="url(#pb2c664b56f)">
     <use xlink:href="#C8_0_39d3ea8ce1" x="257.31119" y="184.789822" style="fill: #008000; fill-opacity: 0.784996; stroke: #008000; stroke-opacity: 0.784996"/>
    </g>
    <g clip-path="url(#pb2c664b56f)">
     <use xlink:href="#C8_0_39d3ea8ce1" x="251.076092" y="193.445973" style="fill: #008000; fill-opacity: 0.896474; stroke: #008000; stroke-opacity: 0.896474"/>
    </g>
    <g clip-path="url(#pb2c664b56f)">
     <use xlink:href="#C8_0_39d3ea8ce1" x="244.901138" y="202.648125" style="fill: #008000; fill-opacity: 0.969884; stroke: #008000; stroke-opacity: 0.969884"/>
    </g>
    <g clip-path="url(#pb2c664b56f)">
     <use xlink:href="#C8_0_39d3ea8ce1" x="233.695203" y="220.637131" style="fill: #008000; fill-opacity: 0.984042; stroke: #008000; stroke-opacity: 0.984042"/>
    </g>
    <g clip-path="url(#pb2c664b56f)">
     <use xlink:href="#C8_0_39d3ea8ce1" x="239.029535" y="211.888469" style="fill: #008000; stroke: #008000"/>
    </g>
   </g>
  </g>
 </g>
 <defs>
  <clipPath id="pb2c664b56f">
   <rect x="103.104" y="41.472" width="266.112" height="266.112"/>
  </clipPath>
 </defs>
</svg>
