<?xml version="1.0" encoding="utf-8" standalone="no"?>
<!DOCTYPE svg PUBLIC "-//W3C//DTD SVG 1.1//EN"
  "http://www.w3.org/Graphics/SVG/1.1/DTD/svg11.dtd">
<svg xmlns:xlink="http://www.w3.org/1999/xlink" width="460.8pt" height="345.6pt" viewBox="0 0 460.8 345.6" xmlns="http://www.w3.org/2000/svg" version="1.1">
 <metadata>
  <rdf:RDF xmlns:dc="http://purl.org/dc/elements/1.1/" xmlns:cc="http://creativecommons.org/ns#" xmlns:rdf="http://www.w3.org/1999/02/22-rdf-syntax-ns#">
   <cc:Work>
    <dc:type rdf:resource="http://purl.org/dc/dcmitype/StillImage"/>
    <dc:date>2024-05-31T13:40:24.713974</dc:date>
    <dc:format>image/svg+xml</dc:format>
    <dc:creator>
     <cc:Agent>
      <dc:title>Matplotlib v3.7.1, https://matplotlib.org/</dc:title>
     </cc:Agent>
    </dc:creator>
   </cc:Work>
  </rdf:RDF>
 </metadata>
 <defs>
  <style type="text/css">*{stroke-linejoin: round; stroke-linecap: butt}</style>
 </defs>
 <g id="figure_1">
  <g id="patch_1">
   <path d="M 0 345.6 
L 460.8 345.6 
L 460.8 0 
L 0 0 
z
" style="fill: #ffffff"/>
  </g>
  <g id="axes_1">
   <g id="patch_2">
    <path d="M 57.6 307.584 
L 414.72 307.584 
L 414.72 41.472 
L 57.6 41.472 
z
" style="fill: #ffffff"/>
   </g>
   <g id="matplotlib.axis_1">
    <g id="xtick_1">
     <g id="line2d_1">
      <defs>
       <path id="m12b4421f08" d="M 0 0 
L 0 3.5 
" style="stroke: #000000; stroke-width: 0.8"/>
      </defs>
      <g>
       <use xlink:href="#m12b4421f08" x="73.832727" y="307.584" style="stroke: #000000; stroke-width: 0.8"/>
      </g>
     </g>
     <g id="text_1">
      <!-- 0 -->
      <g transform="translate(70.651477 322.182437) scale(0.1 -0.1)">
       <defs>
        <path id="DejaVuSans-30" d="M 2034 4250 
Q 1547 4250 1301 3770 
Q 1056 3291 1056 2328 
Q 1056 1369 1301 889 
Q 1547 409 2034 409 
Q 2525 409 2770 889 
Q 3016 1369 3016 2328 
Q 3016 3291 2770 3770 
Q 2525 4250 2034 4250 
z
M 2034 4750 
Q 2819 4750 3233 4129 
Q 3647 3509 3647 2328 
Q 3647 1150 3233 529 
Q 2819 -91 2034 -91 
Q 1250 -91 836 529 
Q 422 1150 422 2328 
Q 422 3509 836 4129 
Q 1250 4750 2034 4750 
z
" transform="scale(0.015625)"/>
       </defs>
       <use xlink:href="#DejaVuSans-30"/>
      </g>
     </g>
    </g>
    <g id="xtick_2">
     <g id="line2d_2">
      <g>
       <use xlink:href="#m12b4421f08" x="137.303802" y="307.584" style="stroke: #000000; stroke-width: 0.8"/>
      </g>
     </g>
     <g id="text_2">
      <!-- 200 -->
      <g transform="translate(127.760052 322.182437) scale(0.1 -0.1)">
       <defs>
        <path id="DejaVuSans-32" d="M 1228 531 
L 3431 531 
L 3431 0 
L 469 0 
L 469 531 
Q 828 903 1448 1529 
Q 2069 2156 2228 2338 
Q 2531 2678 2651 2914 
Q 2772 3150 2772 3378 
Q 2772 3750 2511 3984 
Q 2250 4219 1831 4219 
Q 1534 4219 1204 4116 
Q 875 4013 500 3803 
L 500 4441 
Q 881 4594 1212 4672 
Q 1544 4750 1819 4750 
Q 2544 4750 2975 4387 
Q 3406 4025 3406 3419 
Q 3406 3131 3298 2873 
Q 3191 2616 2906 2266 
Q 2828 2175 2409 1742 
Q 1991 1309 1228 531 
z
" transform="scale(0.015625)"/>
       </defs>
       <use xlink:href="#DejaVuSans-32"/>
       <use xlink:href="#DejaVuSans-30" x="63.623047"/>
       <use xlink:href="#DejaVuSans-30" x="127.246094"/>
      </g>
     </g>
    </g>
    <g id="xtick_3">
     <g id="line2d_3">
      <g>
       <use xlink:href="#m12b4421f08" x="200.774876" y="307.584" style="stroke: #000000; stroke-width: 0.8"/>
      </g>
     </g>
     <g id="text_3">
      <!-- 400 -->
      <g transform="translate(191.231126 322.182437) scale(0.1 -0.1)">
       <defs>
        <path id="DejaVuSans-34" d="M 2419 4116 
L 825 1625 
L 2419 1625 
L 2419 4116 
z
M 2253 4666 
L 3047 4666 
L 3047 1625 
L 3713 1625 
L 3713 1100 
L 3047 1100 
L 3047 0 
L 2419 0 
L 2419 1100 
L 313 1100 
L 313 1709 
L 2253 4666 
z
" transform="scale(0.015625)"/>
       </defs>
       <use xlink:href="#DejaVuSans-34"/>
       <use xlink:href="#DejaVuSans-30" x="63.623047"/>
       <use xlink:href="#DejaVuSans-30" x="127.246094"/>
      </g>
     </g>
    </g>
    <g id="xtick_4">
     <g id="line2d_4">
      <g>
       <use xlink:href="#m12b4421f08" x="264.24595" y="307.584" style="stroke: #000000; stroke-width: 0.8"/>
      </g>
     </g>
     <g id="text_4">
      <!-- 600 -->
      <g transform="translate(254.7022 322.182437) scale(0.1 -0.1)">
       <defs>
        <path id="DejaVuSans-36" d="M 2113 2584 
Q 1688 2584 1439 2293 
Q 1191 2003 1191 1497 
Q 1191 994 1439 701 
Q 1688 409 2113 409 
Q 2538 409 2786 701 
Q 3034 994 3034 1497 
Q 3034 2003 2786 2293 
Q 2538 2584 2113 2584 
z
M 3366 4563 
L 3366 3988 
Q 3128 4100 2886 4159 
Q 2644 4219 2406 4219 
Q 1781 4219 1451 3797 
Q 1122 3375 1075 2522 
Q 1259 2794 1537 2939 
Q 1816 3084 2150 3084 
Q 2853 3084 3261 2657 
Q 3669 2231 3669 1497 
Q 3669 778 3244 343 
Q 2819 -91 2113 -91 
Q 1303 -91 875 529 
Q 447 1150 447 2328 
Q 447 3434 972 4092 
Q 1497 4750 2381 4750 
Q 2619 4750 2861 4703 
Q 3103 4656 3366 4563 
z
" transform="scale(0.015625)"/>
       </defs>
       <use xlink:href="#DejaVuSans-36"/>
       <use xlink:href="#DejaVuSans-30" x="63.623047"/>
       <use xlink:href="#DejaVuSans-30" x="127.246094"/>
      </g>
     </g>
    </g>
    <g id="xtick_5">
     <g id="line2d_5">
      <g>
       <use xlink:href="#m12b4421f08" x="327.717025" y="307.584" style="stroke: #000000; stroke-width: 0.8"/>
      </g>
     </g>
     <g id="text_5">
      <!-- 800 -->
      <g transform="translate(318.173275 322.182437) scale(0.1 -0.1)">
       <defs>
        <path id="DejaVuSans-38" d="M 2034 2216 
Q 1584 2216 1326 1975 
Q 1069 1734 1069 1313 
Q 1069 891 1326 650 
Q 1584 409 2034 409 
Q 2484 409 2743 651 
Q 3003 894 3003 1313 
Q 3003 1734 2745 1975 
Q 2488 2216 2034 2216 
z
M 1403 2484 
Q 997 2584 770 2862 
Q 544 3141 544 3541 
Q 544 4100 942 4425 
Q 1341 4750 2034 4750 
Q 2731 4750 3128 4425 
Q 3525 4100 3525 3541 
Q 3525 3141 3298 2862 
Q 3072 2584 2669 2484 
Q 3125 2378 3379 2068 
Q 3634 1759 3634 1313 
Q 3634 634 3220 271 
Q 2806 -91 2034 -91 
Q 1263 -91 848 271 
Q 434 634 434 1313 
Q 434 1759 690 2068 
Q 947 2378 1403 2484 
z
M 1172 3481 
Q 1172 3119 1398 2916 
Q 1625 2713 2034 2713 
Q 2441 2713 2670 2916 
Q 2900 3119 2900 3481 
Q 2900 3844 2670 4047 
Q 2441 4250 2034 4250 
Q 1625 4250 1398 4047 
Q 1172 3844 1172 3481 
z
" transform="scale(0.015625)"/>
       </defs>
       <use xlink:href="#DejaVuSans-38"/>
       <use xlink:href="#DejaVuSans-30" x="63.623047"/>
       <use xlink:href="#DejaVuSans-30" x="127.246094"/>
      </g>
     </g>
    </g>
    <g id="xtick_6">
     <g id="line2d_6">
      <g>
       <use xlink:href="#m12b4421f08" x="391.188099" y="307.584" style="stroke: #000000; stroke-width: 0.8"/>
      </g>
     </g>
     <g id="text_6">
      <!-- 1000 -->
      <g transform="translate(378.463099 322.182437) scale(0.1 -0.1)">
       <defs>
        <path id="DejaVuSans-31" d="M 794 531 
L 1825 531 
L 1825 4091 
L 703 3866 
L 703 4441 
L 1819 4666 
L 2450 4666 
L 2450 531 
L 3481 531 
L 3481 0 
L 794 0 
L 794 531 
z
" transform="scale(0.015625)"/>
       </defs>
       <use xlink:href="#DejaVuSans-31"/>
       <use xlink:href="#DejaVuSans-30" x="63.623047"/>
       <use xlink:href="#DejaVuSans-30" x="127.246094"/>
       <use xlink:href="#DejaVuSans-30" x="190.869141"/>
      </g>
     </g>
    </g>
    <g id="text_7">
     <!-- n -->
     <g transform="translate(232.99125 335.860562) scale(0.1 -0.1)">
      <defs>
       <path id="DejaVuSans-6e" d="M 3513 2113 
L 3513 0 
L 2938 0 
L 2938 2094 
Q 2938 2591 2744 2837 
Q 2550 3084 2163 3084 
Q 1697 3084 1428 2787 
Q 1159 2491 1159 1978 
L 1159 0 
L 581 0 
L 581 3500 
L 1159 3500 
L 1159 2956 
Q 1366 3272 1645 3428 
Q 1925 3584 2291 3584 
Q 2894 3584 3203 3211 
Q 3513 2838 3513 2113 
z
" transform="scale(0.015625)"/>
      </defs>
      <use xlink:href="#DejaVuSans-6e"/>
     </g>
    </g>
   </g>
   <g id="matplotlib.axis_2">
    <g id="ytick_1">
     <g id="line2d_7">
      <defs>
       <path id="mdaac84f34f" d="M 0 0 
L -3.5 0 
" style="stroke: #000000; stroke-width: 0.8"/>
      </defs>
      <g>
       <use xlink:href="#mdaac84f34f" x="57.6" y="301.940922" style="stroke: #000000; stroke-width: 0.8"/>
      </g>
     </g>
     <g id="text_8">
      <!-- −1.00 -->
      <g transform="translate(19.954687 305.74014) scale(0.1 -0.1)">
       <defs>
        <path id="DejaVuSans-2212" d="M 678 2272 
L 4684 2272 
L 4684 1741 
L 678 1741 
L 678 2272 
z
" transform="scale(0.015625)"/>
        <path id="DejaVuSans-2e" d="M 684 794 
L 1344 794 
L 1344 0 
L 684 0 
L 684 794 
z
" transform="scale(0.015625)"/>
       </defs>
       <use xlink:href="#DejaVuSans-2212"/>
       <use xlink:href="#DejaVuSans-31" x="83.789062"/>
       <use xlink:href="#DejaVuSans-2e" x="147.412109"/>
       <use xlink:href="#DejaVuSans-30" x="179.199219"/>
       <use xlink:href="#DejaVuSans-30" x="242.822266"/>
      </g>
     </g>
    </g>
    <g id="ytick_2">
     <g id="line2d_8">
      <g>
       <use xlink:href="#mdaac84f34f" x="57.6" y="269.676313" style="stroke: #000000; stroke-width: 0.8"/>
      </g>
     </g>
     <g id="text_9">
      <!-- −0.75 -->
      <g transform="translate(19.954687 273.475532) scale(0.1 -0.1)">
       <defs>
        <path id="DejaVuSans-37" d="M 525 4666 
L 3525 4666 
L 3525 4397 
L 1831 0 
L 1172 0 
L 2766 4134 
L 525 4134 
L 525 4666 
z
" transform="scale(0.015625)"/>
        <path id="DejaVuSans-35" d="M 691 4666 
L 3169 4666 
L 3169 4134 
L 1269 4134 
L 1269 2991 
Q 1406 3038 1543 3061 
Q 1681 3084 1819 3084 
Q 2600 3084 3056 2656 
Q 3513 2228 3513 1497 
Q 3513 744 3044 326 
Q 2575 -91 1722 -91 
Q 1428 -91 1123 -41 
Q 819 9 494 109 
L 494 744 
Q 775 591 1075 516 
Q 1375 441 1709 441 
Q 2250 441 2565 725 
Q 2881 1009 2881 1497 
Q 2881 1984 2565 2268 
Q 2250 2553 1709 2553 
Q 1456 2553 1204 2497 
Q 953 2441 691 2322 
L 691 4666 
z
" transform="scale(0.015625)"/>
       </defs>
       <use xlink:href="#DejaVuSans-2212"/>
       <use xlink:href="#DejaVuSans-30" x="83.789062"/>
       <use xlink:href="#DejaVuSans-2e" x="147.412109"/>
       <use xlink:href="#DejaVuSans-37" x="179.199219"/>
       <use xlink:href="#DejaVuSans-35" x="242.822266"/>
      </g>
     </g>
    </g>
    <g id="ytick_3">
     <g id="line2d_9">
      <g>
       <use xlink:href="#mdaac84f34f" x="57.6" y="237.411704" style="stroke: #000000; stroke-width: 0.8"/>
      </g>
     </g>
     <g id="text_10">
      <!-- −0.50 -->
      <g transform="translate(19.954687 241.210923) scale(0.1 -0.1)">
       <use xlink:href="#DejaVuSans-2212"/>
       <use xlink:href="#DejaVuSans-30" x="83.789062"/>
       <use xlink:href="#DejaVuSans-2e" x="147.412109"/>
       <use xlink:href="#DejaVuSans-35" x="179.199219"/>
       <use xlink:href="#DejaVuSans-30" x="242.822266"/>
      </g>
     </g>
    </g>
    <g id="ytick_4">
     <g id="line2d_10">
      <g>
       <use xlink:href="#mdaac84f34f" x="57.6" y="205.147096" style="stroke: #000000; stroke-width: 0.8"/>
      </g>
     </g>
     <g id="text_11">
      <!-- −0.25 -->
      <g transform="translate(19.954687 208.946315) scale(0.1 -0.1)">
       <use xlink:href="#DejaVuSans-2212"/>
       <use xlink:href="#DejaVuSans-30" x="83.789062"/>
       <use xlink:href="#DejaVuSans-2e" x="147.412109"/>
       <use xlink:href="#DejaVuSans-32" x="179.199219"/>
       <use xlink:href="#DejaVuSans-35" x="242.822266"/>
      </g>
     </g>
    </g>
    <g id="ytick_5">
     <g id="line2d_11">
      <g>
       <use xlink:href="#mdaac84f34f" x="57.6" y="172.882487" style="stroke: #000000; stroke-width: 0.8"/>
      </g>
     </g>
     <g id="text_12">
      <!-- 0.00 -->
      <g transform="translate(28.334375 176.681706) scale(0.1 -0.1)">
       <use xlink:href="#DejaVuSans-30"/>
       <use xlink:href="#DejaVuSans-2e" x="63.623047"/>
       <use xlink:href="#DejaVuSans-30" x="95.410156"/>
       <use xlink:href="#DejaVuSans-30" x="159.033203"/>
      </g>
     </g>
    </g>
    <g id="ytick_6">
     <g id="line2d_12">
      <g>
       <use xlink:href="#mdaac84f34f" x="57.6" y="140.617879" style="stroke: #000000; stroke-width: 0.8"/>
      </g>
     </g>
     <g id="text_13">
      <!-- 0.25 -->
      <g transform="translate(28.334375 144.417097) scale(0.1 -0.1)">
       <use xlink:href="#DejaVuSans-30"/>
       <use xlink:href="#DejaVuSans-2e" x="63.623047"/>
       <use xlink:href="#DejaVuSans-32" x="95.410156"/>
       <use xlink:href="#DejaVuSans-35" x="159.033203"/>
      </g>
     </g>
    </g>
    <g id="ytick_7">
     <g id="line2d_13">
      <g>
       <use xlink:href="#mdaac84f34f" x="57.6" y="108.35327" style="stroke: #000000; stroke-width: 0.8"/>
      </g>
     </g>
     <g id="text_14">
      <!-- 0.50 -->
      <g transform="translate(28.334375 112.152489) scale(0.1 -0.1)">
       <use xlink:href="#DejaVuSans-30"/>
       <use xlink:href="#DejaVuSans-2e" x="63.623047"/>
       <use xlink:href="#DejaVuSans-35" x="95.410156"/>
       <use xlink:href="#DejaVuSans-30" x="159.033203"/>
      </g>
     </g>
    </g>
    <g id="ytick_8">
     <g id="line2d_14">
      <g>
       <use xlink:href="#mdaac84f34f" x="57.6" y="76.088661" style="stroke: #000000; stroke-width: 0.8"/>
      </g>
     </g>
     <g id="text_15">
      <!-- 0.75 -->
      <g transform="translate(28.334375 79.88788) scale(0.1 -0.1)">
       <use xlink:href="#DejaVuSans-30"/>
       <use xlink:href="#DejaVuSans-2e" x="63.623047"/>
       <use xlink:href="#DejaVuSans-37" x="95.410156"/>
       <use xlink:href="#DejaVuSans-35" x="159.033203"/>
      </g>
     </g>
    </g>
    <g id="ytick_9">
     <g id="line2d_15">
      <g>
       <use xlink:href="#mdaac84f34f" x="57.6" y="43.824053" style="stroke: #000000; stroke-width: 0.8"/>
      </g>
     </g>
     <g id="text_16">
      <!-- 1.00 -->
      <g transform="translate(28.334375 47.623272) scale(0.1 -0.1)">
       <use xlink:href="#DejaVuSans-31"/>
       <use xlink:href="#DejaVuSans-2e" x="63.623047"/>
       <use xlink:href="#DejaVuSans-30" x="95.410156"/>
       <use xlink:href="#DejaVuSans-30" x="159.033203"/>
      </g>
     </g>
    </g>
    <g id="text_17">
     <!-- E*t -->
     <g transform="translate(13.875 182.147531) rotate(-90) scale(0.1 -0.1)">
      <defs>
       <path id="DejaVuSans-45" d="M 628 4666 
L 3578 4666 
L 3578 4134 
L 1259 4134 
L 1259 2753 
L 3481 2753 
L 3481 2222 
L 1259 2222 
L 1259 531 
L 3634 531 
L 3634 0 
L 628 0 
L 628 4666 
z
" transform="scale(0.015625)"/>
       <path id="DejaVuSans-2a" d="M 3009 3897 
L 1888 3291 
L 3009 2681 
L 2828 2375 
L 1778 3009 
L 1778 1831 
L 1422 1831 
L 1422 3009 
L 372 2375 
L 191 2681 
L 1313 3291 
L 191 3897 
L 372 4206 
L 1422 3572 
L 1422 4750 
L 1778 4750 
L 1778 3572 
L 2828 4206 
L 3009 3897 
z
" transform="scale(0.015625)"/>
       <path id="DejaVuSans-74" d="M 1172 4494 
L 1172 3500 
L 2356 3500 
L 2356 3053 
L 1172 3053 
L 1172 1153 
Q 1172 725 1289 603 
Q 1406 481 1766 481 
L 2356 481 
L 2356 0 
L 1766 0 
Q 1100 0 847 248 
Q 594 497 594 1153 
L 594 3053 
L 172 3053 
L 172 3500 
L 594 3500 
L 594 4494 
L 1172 4494 
z
" transform="scale(0.015625)"/>
      </defs>
      <use xlink:href="#DejaVuSans-45"/>
      <use xlink:href="#DejaVuSans-2a" x="63.183594"/>
      <use xlink:href="#DejaVuSans-74" x="113.183594"/>
     </g>
    </g>
   </g>
   <g id="line2d_16">
    <path d="M 73.832727 272.293962 
L 74.467438 260.452176 
L 74.784793 258.937966 
L 75.102149 255.133545 
L 75.419504 253.129 
L 75.73686 251.969649 
L 76.37157 248.223601 
L 76.688926 246.632813 
L 77.323636 245.383424 
L 78.275702 242.620873 
L 78.593058 240.836558 
L 79.227769 239.532483 
L 79.545124 238.636536 
L 80.179835 237.767893 
L 80.49719 236.423845 
L 80.814545 235.781003 
L 81.131901 235.432309 
L 81.449256 234.894569 
L 81.766612 234.664321 
L 82.083967 233.778974 
L 83.988099 230.670754 
L 85.574876 228.703767 
L 85.892231 228.299527 
L 86.209587 228.094585 
L 86.844298 227.243216 
L 87.161653 227.023221 
L 87.479008 226.192441 
L 88.74843 224.989618 
L 90.335207 223.105024 
L 90.652562 222.924279 
L 91.287273 222.305701 
L 91.921983 221.927364 
L 92.87405 221.04179 
L 95.095537 218.993001 
L 96.047603 218.332296 
L 96.682314 217.57422 
L 99.221157 216.022174 
L 101.442645 214.239396 
L 102.712066 213.404692 
L 103.346777 212.891523 
L 103.981488 212.662195 
L 104.298843 212.291387 
L 104.616198 212.132394 
L 104.933554 211.82792 
L 105.568264 211.624759 
L 105.88562 211.44355 
L 106.202975 211.091793 
L 107.155041 210.719694 
L 107.789752 210.179927 
L 108.424463 209.904882 
L 109.059174 209.581692 
L 109.693884 209.260453 
L 110.328595 208.941394 
L 110.64595 208.725436 
L 110.963306 208.673675 
L 111.280661 208.373236 
L 111.598017 208.306584 
L 111.915372 208.013263 
L 112.867438 207.519741 
L 113.184793 207.323122 
L 113.502149 206.987242 
L 114.13686 206.730385 
L 114.454215 206.353722 
L 114.77157 206.268956 
L 115.406281 205.884272 
L 116.358347 205.363315 
L 117.310413 204.866361 
L 118.262479 204.320525 
L 118.579835 204.299725 
L 119.531901 203.704464 
L 120.166612 203.53428 
L 124.292231 201.539448 
L 124.609587 201.284492 
L 125.244298 201.093153 
L 126.831074 200.407082 
L 128.100496 199.925042 
L 129.687273 199.12747 
L 131.90876 198.354887 
L 132.543471 198.021893 
L 135.717025 196.726953 
L 136.03438 196.52289 
L 137.303802 196.20164 
L 137.938512 195.836201 
L 138.573223 195.645794 
L 138.890579 195.411628 
L 139.207934 195.383493 
L 140.477355 194.919334 
L 140.794711 194.844939 
L 142.064132 194.125537 
L 142.698843 193.926919 
L 143.016198 193.811206 
L 143.333554 193.567995 
L 144.28562 193.283704 
L 144.602975 193.060677 
L 146.189752 192.564643 
L 148.093884 191.726727 
L 152.53686 190.16995 
L 153.17157 190.019879 
L 154.123636 189.572451 
L 155.075702 189.211046 
L 155.393058 188.970368 
L 155.710413 188.917422 
L 156.027769 188.731257 
L 157.29719 188.408576 
L 158.249256 188.04129 
L 158.883967 187.859698 
L 159.836033 187.471671 
L 160.470744 187.346474 
L 163.644298 186.315571 
L 164.913719 185.976576 
L 165.865785 185.60112 
L 166.500496 185.460023 
L 169.039339 184.655312 
L 169.356694 184.603481 
L 169.67405 184.370986 
L 171.895537 183.682916 
L 174.43438 182.702377 
L 175.069091 182.575548 
L 175.703802 182.330817 
L 178.56 181.518705 
L 179.194711 181.283685 
L 180.464132 180.844641 
L 183.637686 179.813647 
L 183.955041 179.743837 
L 184.272397 179.499411 
L 185.859174 179.074428 
L 186.81124 178.730702 
L 187.44595 178.605332 
L 188.080661 178.411241 
L 188.715372 178.172884 
L 192.840992 176.891517 
L 193.475702 176.654313 
L 193.793058 176.579301 
L 194.110413 176.382855 
L 195.062479 176.18099 
L 195.69719 175.975196 
L 197.601322 175.505987 
L 197.918678 175.470165 
L 198.553388 175.2295 
L 201.726942 174.231082 
L 202.679008 173.863807 
L 203.94843 173.511435 
L 206.169917 172.820816 
L 207.121983 172.609296 
L 209.343471 172.026351 
L 209.660826 171.869995 
L 209.978182 171.863689 
L 210.295537 171.645925 
L 210.930248 171.481162 
L 211.564959 171.306516 
L 212.517025 171.093703 
L 213.469091 170.70363 
L 216.325289 169.81704 
L 217.277355 169.630548 
L 217.912066 169.3541 
L 218.546777 169.109371 
L 219.816198 168.74268 
L 221.402975 168.275037 
L 222.037686 168.057907 
L 223.307107 167.690279 
L 224.893884 167.150762 
L 225.21124 167.122841 
L 225.84595 166.930064 
L 230.606281 165.582587 
L 231.558347 165.302429 
L 233.145124 164.850995 
L 238.857521 163.108515 
L 239.174876 163.065727 
L 239.809587 162.809605 
L 240.444298 162.634605 
L 242.031074 162.220918 
L 249.012893 160.110179 
L 250.599669 159.629648 
L 252.821157 159.139666 
L 259.802975 156.782997 
L 261.389752 156.410889 
L 270.593058 153.544996 
L 271.227769 153.44248 
L 272.179835 153.134116 
L 275.988099 151.947276 
L 276.62281 151.699093 
L 277.574876 151.343703 
L 280.113719 150.398221 
L 280.74843 150.142554 
L 281.700496 149.736437 
L 282.652562 149.435556 
L 283.287273 149.237327 
L 284.239339 149.017669 
L 284.87405 148.895855 
L 285.826116 148.571696 
L 288.364959 147.865354 
L 288.999669 147.672703 
L 294.712066 145.836927 
L 295.346777 145.561969 
L 299.472397 144.152942 
L 300.107107 143.794309 
L 300.741818 143.573416 
L 301.376529 143.338703 
L 302.01124 143.209286 
L 302.328595 142.985262 
L 302.963306 142.801423 
L 304.232727 142.43156 
L 306.454215 141.655058 
L 306.77157 141.646002 
L 307.406281 141.36185 
L 307.723636 141.295121 
L 308.358347 140.993059 
L 310.262479 140.457524 
L 310.89719 140.245639 
L 311.214545 140.15685 
L 311.849256 139.784812 
L 313.118678 139.513155 
L 314.070744 139.109422 
L 316.292231 138.40135 
L 316.926942 137.958599 
L 318.196364 137.558903 
L 319.465785 137.087886 
L 319.78314 137.046603 
L 320.735207 136.581966 
L 321.369917 136.353819 
L 321.687273 136.252696 
L 322.004628 136.033418 
L 323.27405 135.603652 
L 324.543471 135.085883 
L 325.812893 134.414552 
L 326.447603 134.278205 
L 327.082314 134.055142 
L 327.399669 134.020505 
L 328.669091 133.479515 
L 328.986446 133.459575 
L 330.255868 132.905997 
L 330.890579 132.74383 
L 331.525289 132.475769 
L 332.16 132.286168 
L 334.698843 130.913874 
L 335.016198 130.880501 
L 335.333554 130.544948 
L 336.602975 130.171531 
L 337.555041 129.616058 
L 337.872397 129.296772 
L 338.507107 129.181337 
L 340.093884 128.519381 
L 345.806281 126.088241 
L 346.123636 125.756947 
L 346.758347 125.596817 
L 348.662479 124.584429 
L 349.931901 124.062273 
L 350.883967 123.609324 
L 351.518678 123.418458 
L 351.836033 123.264121 
L 352.153388 122.899208 
L 354.374876 121.827544 
L 354.692231 121.758998 
L 355.009587 121.353521 
L 357.865785 119.456238 
L 358.817851 119.018391 
L 359.135207 118.955625 
L 359.769917 118.552261 
L 360.404628 118.230326 
L 361.356694 117.831916 
L 361.67405 117.759275 
L 361.991405 117.33887 
L 362.30876 117.277244 
L 362.943471 116.588529 
L 363.260826 116.550216 
L 363.578182 116.13582 
L 364.847603 115.623953 
L 366.117025 114.468169 
L 367.069091 114.093921 
L 367.386446 113.659756 
L 368.655868 112.723249 
L 368.973223 112.231543 
L 369.607934 111.957809 
L 370.242645 111.456563 
L 373.098843 109.511815 
L 373.733554 109.321402 
L 374.050909 108.748765 
L 375.637686 107.57998 
L 375.955041 107.471695 
L 376.907107 106.382093 
L 377.859174 105.770971 
L 378.176529 104.852515 
L 378.81124 104.437592 
L 379.44595 104.139577 
L 379.763306 103.680422 
L 380.080661 103.502028 
L 380.398017 103.073862 
L 381.032727 102.680612 
L 381.667438 101.756068 
L 382.302149 101.431726 
L 382.619504 100.475445 
L 382.93686 100.150517 
L 383.254215 100.029729 
L 383.57157 99.749822 
L 383.888926 99.622354 
L 384.523636 99.044814 
L 384.840992 98.966603 
L 385.158347 98.107353 
L 385.475702 97.822947 
L 385.793058 97.189662 
L 386.110413 96.856398 
L 387.062479 95.20907 
L 387.379835 94.595278 
L 389.283967 92.835539 
L 389.601322 91.961576 
L 390.236033 91.42176 
L 390.553388 90.825859 
L 390.870744 89.861943 
L 391.188099 89.303806 
L 391.505455 87.680336 
L 392.457521 85.252887 
L 392.774876 84.66339 
L 393.409587 84.236884 
L 394.044298 82.203471 
L 394.361653 81.789748 
L 395.631074 75.666763 
L 395.94843 74.99666 
L 396.265785 74.831759 
L 396.58314 73.197764 
L 396.900496 72.790019 
L 397.217851 66.68001 
L 397.852562 63.78067 
L 398.169917 57.285391 
L 398.487273 53.568 
L 398.487273 53.568 
" clip-path="url(#p952ce85560)" style="fill: none; stroke: #1f77b4; stroke-width: 1.5; stroke-linecap: square"/>
   </g>
   <g id="line2d_17">
    <path d="M 73.832727 295.488 
L 74.150083 282.582155 
L 74.467438 281.318829 
L 74.784793 277.652525 
L 75.102149 271.942149 
L 75.419504 269.676311 
L 76.054215 267.034288 
L 76.37157 264.746684 
L 76.688926 264.746683 
L 77.006281 263.610805 
L 77.323636 259.871761 
L 77.640992 259.036306 
L 77.958347 257.648374 
L 78.275702 256.770471 
L 78.593058 256.770467 
L 78.910413 255.507143 
L 79.227769 255.462795 
L 80.179835 251.840841 
L 80.49719 251.840841 
L 81.131901 250.704961 
L 81.449256 250.35354 
L 82.718678 246.965918 
L 83.036033 246.288498 
L 83.353388 246.130464 
L 83.670744 245.807027 
L 83.988099 244.830005 
L 84.305455 244.742534 
L 84.62281 243.864626 
L 84.940165 243.864623 
L 85.257521 243.309529 
L 85.574876 243.241636 
L 85.892231 242.6013 
L 86.209587 242.556949 
L 86.526942 242.271482 
L 86.844298 241.598792 
L 87.479008 240.730874 
L 88.431074 238.934999 
L 88.74843 238.934998 
L 89.065785 238.267787 
L 89.700496 237.799118 
L 90.335207 237.4477 
L 90.969917 235.888413 
L 91.604628 235.846862 
L 91.921983 235.673816 
L 92.87405 234.190487 
L 93.191405 234.060075 
L 93.50876 233.382652 
L 93.826116 233.224622 
L 95.095537 232.016443 
L 96.047603 231.721291 
L 96.364959 230.958782 
L 96.682314 230.958779 
L 96.999669 230.573494 
L 97.63438 230.33579 
L 97.951736 229.695457 
L 98.269091 229.651105 
L 98.586446 229.36564 
L 98.903802 229.358807 
L 99.221157 228.925894 
L 100.173223 228.577793 
L 100.490579 228.316763 
L 100.807934 227.825027 
L 101.125289 227.626135 
L 101.76 226.900847 
L 102.077355 226.793467 
L 102.394711 226.042121 
L 103.029421 226.029155 
L 103.346777 225.361942 
L 103.981488 224.893276 
L 104.616198 224.697477 
L 104.933554 224.541859 
L 105.250909 223.654285 
L 105.88562 223.436879 
L 106.202975 223.117154 
L 106.520331 222.982567 
L 107.155041 222.941023 
L 107.472397 222.767975 
L 107.789752 222.290339 
L 108.107107 222.229435 
L 108.424463 221.976099 
L 108.741818 221.909595 
L 109.693884 221.19674 
L 110.328595 221.115853 
L 110.64595 220.476807 
L 110.963306 220.318781 
L 111.280661 219.995349 
L 111.598017 219.968336 
L 112.550083 219.414399 
L 114.13686 218.81545 
L 114.454215 218.093904 
L 115.088926 218.052936 
L 115.406281 217.667652 
L 116.040992 217.429944 
L 116.358347 217.401679 
L 116.675702 216.789614 
L 116.993058 216.745261 
L 117.310413 216.459798 
L 117.627769 216.452964 
L 117.945124 216.020054 
L 118.579835 215.933205 
L 119.214545 215.787099 
L 120.483967 215.550003 
L 120.801322 215.41092 
L 121.436033 214.919182 
L 121.753388 214.720295 
L 122.070744 214.660349 
L 122.705455 214.149623 
L 123.340165 213.89066 
L 123.657521 213.887624 
L 123.974876 213.136281 
L 124.926942 213.012411 
L 126.196364 212.194894 
L 126.513719 212.176755 
L 126.831074 212.009106 
L 127.465785 211.935128 
L 128.100496 211.636018 
L 128.417851 210.748442 
L 129.052562 210.611244 
L 129.369917 210.531042 
L 129.687273 210.076721 
L 130.321983 210.035183 
L 131.591405 209.384494 
L 131.90876 209.323591 
L 132.226116 209.070259 
L 132.543471 209.003752 
L 132.860826 208.730592 
L 133.178182 208.639189 
L 133.495537 208.378801 
L 134.447603 208.21001 
L 134.764959 207.570963 
L 135.717025 207.295669 
L 136.03438 207.08951 
L 136.351736 207.062499 
L 137.303802 206.539707 
L 138.890579 206.334828 
L 139.525289 206.204757 
L 140.794711 205.909609 
L 141.112066 205.296159 
L 141.746777 205.147094 
L 142.064132 205.147093 
L 142.381488 204.769114 
L 142.698843 204.761811 
L 143.333554 204.524099 
L 143.968264 204.415934 
L 144.28562 203.883771 
L 144.602975 203.839417 
L 144.920331 203.553956 
L 145.237686 203.547122 
L 145.555041 203.412109 
L 145.872397 203.114213 
L 146.507107 203.027361 
L 147.141818 202.881253 
L 148.728595 202.644162 
L 149.998017 202.013338 
L 150.315372 201.814454 
L 150.632727 201.754505 
L 150.950083 201.447791 
L 151.584793 201.427842 
L 151.902149 201.08916 
L 152.854215 200.727794 
L 153.488926 200.230442 
L 154.758347 200.106567 
L 155.710413 199.573045 
L 156.027769 199.550252 
L 156.662479 199.131445 
L 157.614545 199.029287 
L 158.249256 198.796495 
L 158.883967 198.730177 
L 159.201322 197.972017 
L 159.836033 197.719176 
L 161.105455 197.625203 
L 161.740165 197.543151 
L 162.057521 197.170875 
L 162.692231 197.129342 
L 163.326942 196.863841 
L 163.644298 196.841392 
L 163.961653 196.485177 
L 164.596364 196.417748 
L 164.913719 196.199262 
L 165.54843 196.097909 
L 166.18314 195.824747 
L 168.087273 195.304166 
L 168.404628 194.665119 
L 170.30876 194.15666 
L 170.626116 193.644235 
L 171.578182 193.504573 
L 174.117025 193.119171 
L 174.751736 192.930362 
L 175.069091 192.57271 
L 176.338512 192.241251 
L 176.655868 192.24125 
L 176.973223 191.863272 
L 177.290579 191.855971 
L 177.925289 191.618255 
L 179.194711 191.395103 
L 179.512066 190.977928 
L 180.464132 190.872739 
L 180.781488 190.648114 
L 181.098843 190.64128 
L 181.416198 190.506261 
L 181.733554 190.208372 
L 182.050909 190.182352 
L 182.368264 190.004897 
L 184.272397 189.738324 
L 184.907107 189.486379 
L 185.541818 189.42625 
L 186.176529 189.11657 
L 186.81124 189.098181 
L 187.128595 188.908613 
L 187.44595 188.848661 
L 187.763306 188.541946 
L 188.398017 188.522002 
L 188.715372 188.183316 
L 189.032727 188.078969 
L 189.667438 187.604226 
L 190.619504 187.311631 
L 191.57157 187.200724 
L 191.888926 187.192279 
L 192.206281 187.026875 
L 192.840992 186.983402 
L 193.158347 186.751067 
L 194.110413 186.644408 
L 194.745124 186.197423 
L 195.379835 186.123447 
L 195.69719 185.979956 
L 196.966612 185.824336 
L 197.283967 185.066167 
L 197.601322 184.813334 
L 199.188099 184.637299 
L 199.505455 184.603409 
L 200.140165 184.26503 
L 200.774876 184.2235 
L 201.409587 183.958002 
L 201.726942 183.935542 
L 202.044298 183.5883 
L 203.313719 183.511906 
L 203.631074 183.293417 
L 204.265785 183.192066 
L 204.58314 182.995792 
L 205.535207 182.877602 
L 206.169917 182.781121 
L 206.804628 182.436707 
L 207.121983 182.398323 
L 207.439339 182.168574 
L 207.756694 181.670701 
L 209.343471 181.277834 
L 209.660826 180.738391 
L 210.930248 180.598729 
L 213.469091 180.300783 
L 214.421157 180.024512 
L 214.738512 179.66687 
L 215.373223 179.555065 
L 215.690579 179.534409 
L 216.007934 179.335408 
L 216.642645 179.277082 
L 216.96 179.206287 
L 217.277355 178.95743 
L 217.912066 178.863041 
L 218.546777 178.604255 
L 219.181488 178.489253 
L 219.816198 178.072085 
L 221.08562 177.9669 
L 221.402975 177.778023 
L 222.355041 177.600414 
L 222.672397 177.30253 
L 222.989752 177.276509 
L 223.307107 177.09906 
L 224.893884 176.878088 
L 225.21124 176.792667 
L 225.528595 176.580543 
L 226.163306 176.520396 
L 228.067438 175.636102 
L 229.019504 175.475907 
L 229.33686 175.277472 
L 229.97157 175.173124 
L 230.606281 174.698374 
L 231.558347 174.40579 
L 232.510413 174.294883 
L 233.145124 174.222608 
L 234.731901 173.761368 
L 235.049256 173.738564 
L 235.683967 173.291581 
L 236.318678 173.217607 
L 236.636033 173.074116 
L 237.905455 172.918494 
L 238.22281 172.160317 
L 238.540165 171.907493 
L 240.444298 171.731449 
L 240.761653 171.697569 
L 241.396364 171.359186 
L 242.031074 171.283175 
L 242.98314 170.68245 
L 243.935207 170.606064 
L 244.252562 170.387572 
L 244.887273 170.286223 
L 245.204628 170.089962 
L 246.156694 169.971753 
L 246.791405 169.875273 
L 247.10876 169.661271 
L 248.695537 169.26273 
L 249.647603 168.764857 
L 250.599669 168.578155 
L 250.917025 168.393347 
L 251.23438 168.371996 
L 251.551736 167.978168 
L 251.869091 167.825539 
L 252.821157 167.791032 
L 253.455868 167.665483 
L 255.36 167.394941 
L 255.994711 166.76103 
L 257.264132 166.62857 
L 257.581488 166.429566 
L 258.533554 166.371232 
L 258.850909 166.051588 
L 259.48562 165.95719 
L 260.120331 165.651337 
L 260.437686 165.583404 
L 261.072397 165.143849 
L 261.707107 165.061059 
L 262.659174 164.854089 
L 263.61124 164.694568 
L 264.24595 164.193222 
L 265.832727 163.972246 
L 268.054215 163.286508 
L 268.37157 163.036974 
L 269.323636 162.730258 
L 269.640992 162.589262 
L 269.958347 162.570063 
L 270.593058 162.26728 
L 270.910413 161.680465 
L 275.353388 160.571529 
L 275.670744 160.385737 
L 275.988099 160.373646 
L 276.305455 160.168276 
L 277.574876 160.05275 
L 278.526942 159.666017 
L 279.161653 158.987863 
L 279.796364 158.910474 
L 280.431074 158.856405 
L 281.38314 158.622505 
L 281.700496 158.453341 
L 282.017851 158.453341 
L 282.335207 158.266424 
L 282.652562 157.813062 
L 283.921983 157.700222 
L 284.556694 157.380381 
L 288.364959 156.356887 
L 289.317025 155.920337 
L 290.586446 155.672315 
L 291.221157 154.919695 
L 291.855868 154.787042 
L 293.442645 154.576731 
L 293.76 154.509714 
L 294.394711 153.825448 
L 296.298843 153.465382 
L 296.933554 153.145747 
L 297.568264 153.051343 
L 298.202975 152.745489 
L 298.520331 152.677556 
L 299.155041 152.238009 
L 299.472397 152.231451 
L 300.107107 151.967671 
L 300.741818 151.923754 
L 301.059174 151.788723 
L 301.693884 151.659773 
L 302.64595 151.09176 
L 303.598017 150.980987 
L 304.232727 150.768867 
L 304.867438 150.700895 
L 305.502149 150.193746 
L 307.088926 149.824415 
L 307.406281 149.683424 
L 307.723636 149.664219 
L 308.675702 149.361436 
L 308.993058 148.962791 
L 309.945124 148.501428 
L 310.579835 148.410929 
L 310.89719 148.129973 
L 312.166612 147.86309 
L 312.801322 147.495613 
L 313.436033 147.454474 
L 314.070744 147.161286 
L 314.705455 147.037217 
L 315.340165 146.348621 
L 315.657521 146.011827 
L 316.926942 145.902501 
L 317.561653 145.547498 
L 318.196364 145.497327 
L 318.513719 144.907213 
L 319.78314 144.782243 
L 320.417851 144.474539 
L 320.735207 144.394629 
L 321.052562 144.16006 
L 321.687273 144.098347 
L 322.004628 143.787864 
L 322.639339 143.680791 
L 323.27405 143.611109 
L 323.90876 143.404514 
L 325.495537 142.871882 
L 325.812893 142.439801 
L 326.130248 142.399889 
L 326.447603 142.01385 
L 327.082314 141.881199 
L 328.03438 141.670887 
L 328.351736 141.282602 
L 329.303802 140.863039 
L 330.573223 140.767483 
L 330.890579 140.61055 
L 331.525289 139.966623 
L 332.16 139.839642 
L 332.477355 139.771709 
L 332.794711 139.332171 
L 333.429421 139.270314 
L 334.381488 139.042406 
L 334.698843 139.032929 
L 336.920331 137.923052 
L 337.237686 137.863028 
L 337.555041 137.287914 
L 338.824463 136.932477 
L 339.776529 136.455593 
L 340.093884 135.953433 
L 341.363306 135.56889 
L 341.680661 135.224137 
L 342.315372 135.158473 
L 342.632727 134.957245 
L 342.950083 134.950227 
L 343.267438 134.759848 
L 343.584793 134.740842 
L 343.902149 134.589766 
L 344.53686 134.548637 
L 345.17157 134.255443 
L 345.806281 134.131378 
L 346.123636 133.85432 
L 346.440992 133.10598 
L 347.075702 133.097765 
L 347.710413 132.641653 
L 348.027769 132.591474 
L 348.345124 131.964904 
L 348.662479 131.876387 
L 349.614545 131.254216 
L 350.566612 131.192491 
L 350.883967 130.756838 
L 351.201322 130.568449 
L 351.836033 130.498683 
L 352.153388 130.322906 
L 352.470744 130.295952 
L 353.105455 129.966044 
L 353.42281 129.533962 
L 353.740165 129.494035 
L 354.057521 129.108005 
L 354.692231 128.975357 
L 355.009587 128.793165 
L 355.326942 128.376752 
L 355.961653 128.204585 
L 356.279008 128.013754 
L 357.54843 127.720643 
L 358.18314 127.04967 
L 358.500496 126.933795 
L 358.817851 126.426333 
L 359.135207 126.136566 
L 359.452562 126.127101 
L 360.087273 125.848094 
L 360.404628 125.15402 
L 361.039339 125.017208 
L 361.356694 124.382081 
L 363.895537 123.372376 
L 364.530248 122.689741 
L 366.43438 121.683919 
L 367.069091 121.642797 
L 367.703802 121.294326 
L 368.021157 120.547866 
L 368.338512 120.200133 
L 368.655868 120.192947 
L 369.290579 119.059056 
L 369.607934 118.970535 
L 370.242645 118.582943 
L 370.56 118.525029 
L 370.877355 118.329769 
L 371.194711 117.850996 
L 371.829421 117.417075 
L 372.146777 117.39011 
L 372.464132 117.202803 
L 373.098843 116.20216 
L 373.416198 115.861536 
L 373.733554 115.298736 
L 374.050909 115.107908 
L 375.320331 114.814784 
L 375.637686 114.143811 
L 375.955041 114.027949 
L 376.907107 113.230726 
L 377.224463 113.221271 
L 377.541818 113.057492 
L 377.859174 112.248169 
L 378.493884 112.111364 
L 378.81124 111.257358 
L 379.128595 111.245391 
L 379.44595 110.466545 
L 380.398017 109.392703 
L 381.350083 108.778073 
L 381.667438 108.75026 
L 382.302149 108.388477 
L 382.619504 107.642026 
L 382.93686 107.198758 
L 383.254215 106.153208 
L 383.57157 106.138565 
L 383.888926 105.677099 
L 384.206281 105.423919 
L 384.840992 104.511241 
L 385.158347 104.468212 
L 385.793058 104.013224 
L 386.110413 103.682328 
L 386.745124 102.420592 
L 387.062479 102.1455 
L 387.69719 101.908928 
L 388.014545 100.587356 
L 388.331901 100.151644 
L 388.649256 99.342318 
L 388.966612 99.219571 
L 389.283967 98.35151 
L 389.601322 98.33955 
L 390.553388 95.872229 
L 390.870744 95.844415 
L 391.188099 94.890184 
L 391.505455 94.749629 
L 391.82281 94.736186 
L 392.140165 92.518069 
L 392.457521 91.562369 
L 393.409587 90.049832 
L 393.726942 89.144102 
L 394.361653 86.436468 
L 394.679008 85.445664 
L 394.996364 85.221058 
L 395.313719 84.331343 
L 395.631074 83.800577 
L 396.265785 79.61222 
L 396.58314 78.656525 
L 396.900496 78.201533 
L 397.217851 71.425478 
L 397.535207 70.894725 
L 397.852562 68.937925 
L 398.487273 58.519613 
L 398.487273 58.519613 
" clip-path="url(#p952ce85560)" style="fill: none; stroke: #ff7f0e; stroke-width: 1.5; stroke-linecap: square"/>
   </g>
   <g id="patch_3">
    <path d="M 57.6 307.584 
L 57.6 41.472 
" style="fill: none; stroke: #000000; stroke-width: 0.8; stroke-linejoin: miter; stroke-linecap: square"/>
   </g>
   <g id="patch_4">
    <path d="M 414.72 307.584 
L 414.72 41.472 
" style="fill: none; stroke: #000000; stroke-width: 0.8; stroke-linejoin: miter; stroke-linecap: square"/>
   </g>
   <g id="patch_5">
    <path d="M 57.6 307.584 
L 414.72 307.584 
" style="fill: none; stroke: #000000; stroke-width: 0.8; stroke-linejoin: miter; stroke-linecap: square"/>
   </g>
   <g id="patch_6">
    <path d="M 57.6 41.472 
L 414.72 41.472 
" style="fill: none; stroke: #000000; stroke-width: 0.8; stroke-linejoin: miter; stroke-linecap: square"/>
   </g>
   <g id="legend_1">
    <g id="patch_7">
     <path d="M 64.6 78.82825 
L 129.342187 78.82825 
Q 131.342187 78.82825 131.342187 76.82825 
L 131.342187 48.472 
Q 131.342187 46.472 129.342187 46.472 
L 64.6 46.472 
Q 62.6 46.472 62.6 48.472 
L 62.6 76.82825 
Q 62.6 78.82825 64.6 78.82825 
z
" style="fill: #ffffff; opacity: 0.8; stroke: #cccccc; stroke-linejoin: miter"/>
    </g>
    <g id="line2d_18">
     <path d="M 66.6 54.570437 
L 76.6 54.570437 
L 86.6 54.570437 
" style="fill: none; stroke: #1f77b4; stroke-width: 1.5; stroke-linecap: square"/>
    </g>
    <g id="text_18">
     <!-- qc -->
     <g transform="translate(94.6 58.070437) scale(0.1 -0.1)">
      <defs>
       <path id="DejaVuSans-71" d="M 947 1747 
Q 947 1113 1208 752 
Q 1469 391 1925 391 
Q 2381 391 2643 752 
Q 2906 1113 2906 1747 
Q 2906 2381 2643 2742 
Q 2381 3103 1925 3103 
Q 1469 3103 1208 2742 
Q 947 2381 947 1747 
z
M 2906 525 
Q 2725 213 2448 61 
Q 2172 -91 1784 -91 
Q 1150 -91 751 415 
Q 353 922 353 1747 
Q 353 2572 751 3078 
Q 1150 3584 1784 3584 
Q 2172 3584 2448 3432 
Q 2725 3281 2906 2969 
L 2906 3500 
L 3481 3500 
L 3481 -1331 
L 2906 -1331 
L 2906 525 
z
" transform="scale(0.015625)"/>
       <path id="DejaVuSans-63" d="M 3122 3366 
L 3122 2828 
Q 2878 2963 2633 3030 
Q 2388 3097 2138 3097 
Q 1578 3097 1268 2742 
Q 959 2388 959 1747 
Q 959 1106 1268 751 
Q 1578 397 2138 397 
Q 2388 397 2633 464 
Q 2878 531 3122 666 
L 3122 134 
Q 2881 22 2623 -34 
Q 2366 -91 2075 -91 
Q 1284 -91 818 406 
Q 353 903 353 1747 
Q 353 2603 823 3093 
Q 1294 3584 2113 3584 
Q 2378 3584 2631 3529 
Q 2884 3475 3122 3366 
z
" transform="scale(0.015625)"/>
      </defs>
      <use xlink:href="#DejaVuSans-71"/>
      <use xlink:href="#DejaVuSans-63" x="63.476562"/>
     </g>
    </g>
    <g id="line2d_19">
     <path d="M 66.6 69.248562 
L 76.6 69.248562 
L 86.6 69.248562 
" style="fill: none; stroke: #ff7f0e; stroke-width: 1.5; stroke-linecap: square"/>
    </g>
    <g id="text_19">
     <!-- Trotter -->
     <g transform="translate(94.6 72.748562) scale(0.1 -0.1)">
      <defs>
       <path id="DejaVuSans-54" d="M -19 4666 
L 3928 4666 
L 3928 4134 
L 2272 4134 
L 2272 0 
L 1638 0 
L 1638 4134 
L -19 4134 
L -19 4666 
z
" transform="scale(0.015625)"/>
       <path id="DejaVuSans-72" d="M 2631 2963 
Q 2534 3019 2420 3045 
Q 2306 3072 2169 3072 
Q 1681 3072 1420 2755 
Q 1159 2438 1159 1844 
L 1159 0 
L 581 0 
L 581 3500 
L 1159 3500 
L 1159 2956 
Q 1341 3275 1631 3429 
Q 1922 3584 2338 3584 
Q 2397 3584 2469 3576 
Q 2541 3569 2628 3553 
L 2631 2963 
z
" transform="scale(0.015625)"/>
       <path id="DejaVuSans-6f" d="M 1959 3097 
Q 1497 3097 1228 2736 
Q 959 2375 959 1747 
Q 959 1119 1226 758 
Q 1494 397 1959 397 
Q 2419 397 2687 759 
Q 2956 1122 2956 1747 
Q 2956 2369 2687 2733 
Q 2419 3097 1959 3097 
z
M 1959 3584 
Q 2709 3584 3137 3096 
Q 3566 2609 3566 1747 
Q 3566 888 3137 398 
Q 2709 -91 1959 -91 
Q 1206 -91 779 398 
Q 353 888 353 1747 
Q 353 2609 779 3096 
Q 1206 3584 1959 3584 
z
" transform="scale(0.015625)"/>
       <path id="DejaVuSans-65" d="M 3597 1894 
L 3597 1613 
L 953 1613 
Q 991 1019 1311 708 
Q 1631 397 2203 397 
Q 2534 397 2845 478 
Q 3156 559 3463 722 
L 3463 178 
Q 3153 47 2828 -22 
Q 2503 -91 2169 -91 
Q 1331 -91 842 396 
Q 353 884 353 1716 
Q 353 2575 817 3079 
Q 1281 3584 2069 3584 
Q 2775 3584 3186 3129 
Q 3597 2675 3597 1894 
z
M 3022 2063 
Q 3016 2534 2758 2815 
Q 2500 3097 2075 3097 
Q 1594 3097 1305 2825 
Q 1016 2553 972 2059 
L 3022 2063 
z
" transform="scale(0.015625)"/>
      </defs>
      <use xlink:href="#DejaVuSans-54"/>
      <use xlink:href="#DejaVuSans-72" x="46.333984"/>
      <use xlink:href="#DejaVuSans-6f" x="85.197266"/>
      <use xlink:href="#DejaVuSans-74" x="146.378906"/>
      <use xlink:href="#DejaVuSans-74" x="185.587891"/>
      <use xlink:href="#DejaVuSans-65" x="224.796875"/>
      <use xlink:href="#DejaVuSans-72" x="286.320312"/>
     </g>
    </g>
   </g>
  </g>
 </g>
 <defs>
  <clipPath id="p952ce85560">
   <rect x="57.6" y="41.472" width="357.12" height="266.112"/>
  </clipPath>
 </defs>
</svg>
