<?xml version="1.0" encoding="utf-8" standalone="no"?>
<!DOCTYPE svg PUBLIC "-//W3C//DTD SVG 1.1//EN"
  "http://www.w3.org/Graphics/SVG/1.1/DTD/svg11.dtd">
<svg xmlns:xlink="http://www.w3.org/1999/xlink" width="460.8pt" height="345.6pt" viewBox="0 0 460.8 345.6" xmlns="http://www.w3.org/2000/svg" version="1.1">
 <metadata>
  <rdf:RDF xmlns:dc="http://purl.org/dc/elements/1.1/" xmlns:cc="http://creativecommons.org/ns#" xmlns:rdf="http://www.w3.org/1999/02/22-rdf-syntax-ns#">
   <cc:Work>
    <dc:type rdf:resource="http://purl.org/dc/dcmitype/StillImage"/>
    <dc:date>2024-07-05T10:39:28.880515</dc:date>
    <dc:format>image/svg+xml</dc:format>
    <dc:creator>
     <cc:Agent>
      <dc:title>Matplotlib v3.7.1, https://matplotlib.org/</dc:title>
     </cc:Agent>
    </dc:creator>
   </cc:Work>
  </rdf:RDF>
 </metadata>
 <defs>
  <style type="text/css">*{stroke-linejoin: round; stroke-linecap: butt}</style>
 </defs>
 <g id="figure_1">
  <g id="patch_1">
   <path d="M 0 345.6 
L 460.8 345.6 
L 460.8 0 
L 0 0 
z
" style="fill: #ffffff"/>
  </g>
  <g id="axes_1">
   <g id="patch_2">
    <path d="M 57.6 307.584 
L 414.72 307.584 
L 414.72 41.472 
L 57.6 41.472 
z
" style="fill: #ffffff"/>
   </g>
   <g id="matplotlib.axis_1">
    <g id="xtick_1">
     <g id="line2d_1">
      <defs>
       <path id="m208d14eede" d="M 0 0 
L 0 3.5 
" style="stroke: #000000; stroke-width: 0.8"/>
      </defs>
      <g>
       <use xlink:href="#m208d14eede" x="73.832727" y="307.584" style="stroke: #000000; stroke-width: 0.8"/>
      </g>
     </g>
     <g id="text_1">
      <!-- 0 -->
      <g transform="translate(70.651477 322.182437) scale(0.1 -0.1)">
       <defs>
        <path id="DejaVuSans-30" d="M 2034 4250 
Q 1547 4250 1301 3770 
Q 1056 3291 1056 2328 
Q 1056 1369 1301 889 
Q 1547 409 2034 409 
Q 2525 409 2770 889 
Q 3016 1369 3016 2328 
Q 3016 3291 2770 3770 
Q 2525 4250 2034 4250 
z
M 2034 4750 
Q 2819 4750 3233 4129 
Q 3647 3509 3647 2328 
Q 3647 1150 3233 529 
Q 2819 -91 2034 -91 
Q 1250 -91 836 529 
Q 422 1150 422 2328 
Q 422 3509 836 4129 
Q 1250 4750 2034 4750 
z
" transform="scale(0.015625)"/>
       </defs>
       <use xlink:href="#DejaVuSans-30"/>
      </g>
     </g>
    </g>
    <g id="xtick_2">
     <g id="line2d_2">
      <g>
       <use xlink:href="#m208d14eede" x="137.303802" y="307.584" style="stroke: #000000; stroke-width: 0.8"/>
      </g>
     </g>
     <g id="text_2">
      <!-- 200 -->
      <g transform="translate(127.760052 322.182437) scale(0.1 -0.1)">
       <defs>
        <path id="DejaVuSans-32" d="M 1228 531 
L 3431 531 
L 3431 0 
L 469 0 
L 469 531 
Q 828 903 1448 1529 
Q 2069 2156 2228 2338 
Q 2531 2678 2651 2914 
Q 2772 3150 2772 3378 
Q 2772 3750 2511 3984 
Q 2250 4219 1831 4219 
Q 1534 4219 1204 4116 
Q 875 4013 500 3803 
L 500 4441 
Q 881 4594 1212 4672 
Q 1544 4750 1819 4750 
Q 2544 4750 2975 4387 
Q 3406 4025 3406 3419 
Q 3406 3131 3298 2873 
Q 3191 2616 2906 2266 
Q 2828 2175 2409 1742 
Q 1991 1309 1228 531 
z
" transform="scale(0.015625)"/>
       </defs>
       <use xlink:href="#DejaVuSans-32"/>
       <use xlink:href="#DejaVuSans-30" x="63.623047"/>
       <use xlink:href="#DejaVuSans-30" x="127.246094"/>
      </g>
     </g>
    </g>
    <g id="xtick_3">
     <g id="line2d_3">
      <g>
       <use xlink:href="#m208d14eede" x="200.774876" y="307.584" style="stroke: #000000; stroke-width: 0.8"/>
      </g>
     </g>
     <g id="text_3">
      <!-- 400 -->
      <g transform="translate(191.231126 322.182437) scale(0.1 -0.1)">
       <defs>
        <path id="DejaVuSans-34" d="M 2419 4116 
L 825 1625 
L 2419 1625 
L 2419 4116 
z
M 2253 4666 
L 3047 4666 
L 3047 1625 
L 3713 1625 
L 3713 1100 
L 3047 1100 
L 3047 0 
L 2419 0 
L 2419 1100 
L 313 1100 
L 313 1709 
L 2253 4666 
z
" transform="scale(0.015625)"/>
       </defs>
       <use xlink:href="#DejaVuSans-34"/>
       <use xlink:href="#DejaVuSans-30" x="63.623047"/>
       <use xlink:href="#DejaVuSans-30" x="127.246094"/>
      </g>
     </g>
    </g>
    <g id="xtick_4">
     <g id="line2d_4">
      <g>
       <use xlink:href="#m208d14eede" x="264.24595" y="307.584" style="stroke: #000000; stroke-width: 0.8"/>
      </g>
     </g>
     <g id="text_4">
      <!-- 600 -->
      <g transform="translate(254.7022 322.182437) scale(0.1 -0.1)">
       <defs>
        <path id="DejaVuSans-36" d="M 2113 2584 
Q 1688 2584 1439 2293 
Q 1191 2003 1191 1497 
Q 1191 994 1439 701 
Q 1688 409 2113 409 
Q 2538 409 2786 701 
Q 3034 994 3034 1497 
Q 3034 2003 2786 2293 
Q 2538 2584 2113 2584 
z
M 3366 4563 
L 3366 3988 
Q 3128 4100 2886 4159 
Q 2644 4219 2406 4219 
Q 1781 4219 1451 3797 
Q 1122 3375 1075 2522 
Q 1259 2794 1537 2939 
Q 1816 3084 2150 3084 
Q 2853 3084 3261 2657 
Q 3669 2231 3669 1497 
Q 3669 778 3244 343 
Q 2819 -91 2113 -91 
Q 1303 -91 875 529 
Q 447 1150 447 2328 
Q 447 3434 972 4092 
Q 1497 4750 2381 4750 
Q 2619 4750 2861 4703 
Q 3103 4656 3366 4563 
z
" transform="scale(0.015625)"/>
       </defs>
       <use xlink:href="#DejaVuSans-36"/>
       <use xlink:href="#DejaVuSans-30" x="63.623047"/>
       <use xlink:href="#DejaVuSans-30" x="127.246094"/>
      </g>
     </g>
    </g>
    <g id="xtick_5">
     <g id="line2d_5">
      <g>
       <use xlink:href="#m208d14eede" x="327.717025" y="307.584" style="stroke: #000000; stroke-width: 0.8"/>
      </g>
     </g>
     <g id="text_5">
      <!-- 800 -->
      <g transform="translate(318.173275 322.182437) scale(0.1 -0.1)">
       <defs>
        <path id="DejaVuSans-38" d="M 2034 2216 
Q 1584 2216 1326 1975 
Q 1069 1734 1069 1313 
Q 1069 891 1326 650 
Q 1584 409 2034 409 
Q 2484 409 2743 651 
Q 3003 894 3003 1313 
Q 3003 1734 2745 1975 
Q 2488 2216 2034 2216 
z
M 1403 2484 
Q 997 2584 770 2862 
Q 544 3141 544 3541 
Q 544 4100 942 4425 
Q 1341 4750 2034 4750 
Q 2731 4750 3128 4425 
Q 3525 4100 3525 3541 
Q 3525 3141 3298 2862 
Q 3072 2584 2669 2484 
Q 3125 2378 3379 2068 
Q 3634 1759 3634 1313 
Q 3634 634 3220 271 
Q 2806 -91 2034 -91 
Q 1263 -91 848 271 
Q 434 634 434 1313 
Q 434 1759 690 2068 
Q 947 2378 1403 2484 
z
M 1172 3481 
Q 1172 3119 1398 2916 
Q 1625 2713 2034 2713 
Q 2441 2713 2670 2916 
Q 2900 3119 2900 3481 
Q 2900 3844 2670 4047 
Q 2441 4250 2034 4250 
Q 1625 4250 1398 4047 
Q 1172 3844 1172 3481 
z
" transform="scale(0.015625)"/>
       </defs>
       <use xlink:href="#DejaVuSans-38"/>
       <use xlink:href="#DejaVuSans-30" x="63.623047"/>
       <use xlink:href="#DejaVuSans-30" x="127.246094"/>
      </g>
     </g>
    </g>
    <g id="xtick_6">
     <g id="line2d_6">
      <g>
       <use xlink:href="#m208d14eede" x="391.188099" y="307.584" style="stroke: #000000; stroke-width: 0.8"/>
      </g>
     </g>
     <g id="text_6">
      <!-- 1000 -->
      <g transform="translate(378.463099 322.182437) scale(0.1 -0.1)">
       <defs>
        <path id="DejaVuSans-31" d="M 794 531 
L 1825 531 
L 1825 4091 
L 703 3866 
L 703 4441 
L 1819 4666 
L 2450 4666 
L 2450 531 
L 3481 531 
L 3481 0 
L 794 0 
L 794 531 
z
" transform="scale(0.015625)"/>
       </defs>
       <use xlink:href="#DejaVuSans-31"/>
       <use xlink:href="#DejaVuSans-30" x="63.623047"/>
       <use xlink:href="#DejaVuSans-30" x="127.246094"/>
       <use xlink:href="#DejaVuSans-30" x="190.869141"/>
      </g>
     </g>
    </g>
    <g id="text_7">
     <!-- n -->
     <g transform="translate(232.99125 335.860562) scale(0.1 -0.1)">
      <defs>
       <path id="DejaVuSans-6e" d="M 3513 2113 
L 3513 0 
L 2938 0 
L 2938 2094 
Q 2938 2591 2744 2837 
Q 2550 3084 2163 3084 
Q 1697 3084 1428 2787 
Q 1159 2491 1159 1978 
L 1159 0 
L 581 0 
L 581 3500 
L 1159 3500 
L 1159 2956 
Q 1366 3272 1645 3428 
Q 1925 3584 2291 3584 
Q 2894 3584 3203 3211 
Q 3513 2838 3513 2113 
z
" transform="scale(0.015625)"/>
      </defs>
      <use xlink:href="#DejaVuSans-6e"/>
     </g>
    </g>
   </g>
   <g id="matplotlib.axis_2">
    <g id="ytick_1">
     <g id="line2d_7">
      <defs>
       <path id="m4f39d77e4d" d="M 0 0 
L -3.5 0 
" style="stroke: #000000; stroke-width: 0.8"/>
      </defs>
      <g>
       <use xlink:href="#m4f39d77e4d" x="57.6" y="286.134724" style="stroke: #000000; stroke-width: 0.8"/>
      </g>
     </g>
     <g id="text_8">
      <!-- −0.2 -->
      <g transform="translate(26.317187 289.933943) scale(0.1 -0.1)">
       <defs>
        <path id="DejaVuSans-2212" d="M 678 2272 
L 4684 2272 
L 4684 1741 
L 678 1741 
L 678 2272 
z
" transform="scale(0.015625)"/>
        <path id="DejaVuSans-2e" d="M 684 794 
L 1344 794 
L 1344 0 
L 684 0 
L 684 794 
z
" transform="scale(0.015625)"/>
       </defs>
       <use xlink:href="#DejaVuSans-2212"/>
       <use xlink:href="#DejaVuSans-30" x="83.789062"/>
       <use xlink:href="#DejaVuSans-2e" x="147.412109"/>
       <use xlink:href="#DejaVuSans-32" x="179.199219"/>
      </g>
     </g>
    </g>
    <g id="ytick_2">
     <g id="line2d_8">
      <g>
       <use xlink:href="#m4f39d77e4d" x="57.6" y="249.955224" style="stroke: #000000; stroke-width: 0.8"/>
      </g>
     </g>
     <g id="text_9">
      <!-- −0.1 -->
      <g transform="translate(26.317187 253.754443) scale(0.1 -0.1)">
       <use xlink:href="#DejaVuSans-2212"/>
       <use xlink:href="#DejaVuSans-30" x="83.789062"/>
       <use xlink:href="#DejaVuSans-2e" x="147.412109"/>
       <use xlink:href="#DejaVuSans-31" x="179.199219"/>
      </g>
     </g>
    </g>
    <g id="ytick_3">
     <g id="line2d_9">
      <g>
       <use xlink:href="#m4f39d77e4d" x="57.6" y="213.775724" style="stroke: #000000; stroke-width: 0.8"/>
      </g>
     </g>
     <g id="text_10">
      <!-- 0.0 -->
      <g transform="translate(34.696875 217.574943) scale(0.1 -0.1)">
       <use xlink:href="#DejaVuSans-30"/>
       <use xlink:href="#DejaVuSans-2e" x="63.623047"/>
       <use xlink:href="#DejaVuSans-30" x="95.410156"/>
      </g>
     </g>
    </g>
    <g id="ytick_4">
     <g id="line2d_10">
      <g>
       <use xlink:href="#m4f39d77e4d" x="57.6" y="177.596225" style="stroke: #000000; stroke-width: 0.8"/>
      </g>
     </g>
     <g id="text_11">
      <!-- 0.1 -->
      <g transform="translate(34.696875 181.395443) scale(0.1 -0.1)">
       <use xlink:href="#DejaVuSans-30"/>
       <use xlink:href="#DejaVuSans-2e" x="63.623047"/>
       <use xlink:href="#DejaVuSans-31" x="95.410156"/>
      </g>
     </g>
    </g>
    <g id="ytick_5">
     <g id="line2d_11">
      <g>
       <use xlink:href="#m4f39d77e4d" x="57.6" y="141.416725" style="stroke: #000000; stroke-width: 0.8"/>
      </g>
     </g>
     <g id="text_12">
      <!-- 0.2 -->
      <g transform="translate(34.696875 145.215944) scale(0.1 -0.1)">
       <use xlink:href="#DejaVuSans-30"/>
       <use xlink:href="#DejaVuSans-2e" x="63.623047"/>
       <use xlink:href="#DejaVuSans-32" x="95.410156"/>
      </g>
     </g>
    </g>
    <g id="ytick_6">
     <g id="line2d_12">
      <g>
       <use xlink:href="#m4f39d77e4d" x="57.6" y="105.237225" style="stroke: #000000; stroke-width: 0.8"/>
      </g>
     </g>
     <g id="text_13">
      <!-- 0.3 -->
      <g transform="translate(34.696875 109.036444) scale(0.1 -0.1)">
       <defs>
        <path id="DejaVuSans-33" d="M 2597 2516 
Q 3050 2419 3304 2112 
Q 3559 1806 3559 1356 
Q 3559 666 3084 287 
Q 2609 -91 1734 -91 
Q 1441 -91 1130 -33 
Q 819 25 488 141 
L 488 750 
Q 750 597 1062 519 
Q 1375 441 1716 441 
Q 2309 441 2620 675 
Q 2931 909 2931 1356 
Q 2931 1769 2642 2001 
Q 2353 2234 1838 2234 
L 1294 2234 
L 1294 2753 
L 1863 2753 
Q 2328 2753 2575 2939 
Q 2822 3125 2822 3475 
Q 2822 3834 2567 4026 
Q 2313 4219 1838 4219 
Q 1578 4219 1281 4162 
Q 984 4106 628 3988 
L 628 4550 
Q 988 4650 1302 4700 
Q 1616 4750 1894 4750 
Q 2613 4750 3031 4423 
Q 3450 4097 3450 3541 
Q 3450 3153 3228 2886 
Q 3006 2619 2597 2516 
z
" transform="scale(0.015625)"/>
       </defs>
       <use xlink:href="#DejaVuSans-30"/>
       <use xlink:href="#DejaVuSans-2e" x="63.623047"/>
       <use xlink:href="#DejaVuSans-33" x="95.410156"/>
      </g>
     </g>
    </g>
    <g id="ytick_7">
     <g id="line2d_13">
      <g>
       <use xlink:href="#m4f39d77e4d" x="57.6" y="69.057726" style="stroke: #000000; stroke-width: 0.8"/>
      </g>
     </g>
     <g id="text_14">
      <!-- 0.4 -->
      <g transform="translate(34.696875 72.856944) scale(0.1 -0.1)">
       <use xlink:href="#DejaVuSans-30"/>
       <use xlink:href="#DejaVuSans-2e" x="63.623047"/>
       <use xlink:href="#DejaVuSans-34" x="95.410156"/>
      </g>
     </g>
    </g>
    <g id="text_15">
     <!-- E*t -->
     <g transform="translate(20.2375 182.147531) rotate(-90) scale(0.1 -0.1)">
      <defs>
       <path id="DejaVuSans-45" d="M 628 4666 
L 3578 4666 
L 3578 4134 
L 1259 4134 
L 1259 2753 
L 3481 2753 
L 3481 2222 
L 1259 2222 
L 1259 531 
L 3634 531 
L 3634 0 
L 628 0 
L 628 4666 
z
" transform="scale(0.015625)"/>
       <path id="DejaVuSans-2a" d="M 3009 3897 
L 1888 3291 
L 3009 2681 
L 2828 2375 
L 1778 3009 
L 1778 1831 
L 1422 1831 
L 1422 3009 
L 372 2375 
L 191 2681 
L 1313 3291 
L 191 3897 
L 372 4206 
L 1422 3572 
L 1422 4750 
L 1778 4750 
L 1778 3572 
L 2828 4206 
L 3009 3897 
z
" transform="scale(0.015625)"/>
       <path id="DejaVuSans-74" d="M 1172 4494 
L 1172 3500 
L 2356 3500 
L 2356 3053 
L 1172 3053 
L 1172 1153 
Q 1172 725 1289 603 
Q 1406 481 1766 481 
L 2356 481 
L 2356 0 
L 1766 0 
Q 1100 0 847 248 
Q 594 497 594 1153 
L 594 3053 
L 172 3053 
L 172 3500 
L 594 3500 
L 594 4494 
L 1172 4494 
z
" transform="scale(0.015625)"/>
      </defs>
      <use xlink:href="#DejaVuSans-45"/>
      <use xlink:href="#DejaVuSans-2a" x="63.183594"/>
      <use xlink:href="#DejaVuSans-74" x="113.183594"/>
     </g>
    </g>
   </g>
   <g id="line2d_14">
    <path d="M 73.832727 293.446464 
L 74.150083 292.380255 
L 74.467438 291.825374 
L 74.784793 290.460666 
L 75.73686 288.811057 
L 76.054215 288.581958 
L 76.688926 287.264884 
L 77.323636 286.682165 
L 77.640992 285.909789 
L 78.593058 285.097665 
L 78.910413 284.516281 
L 79.545124 284.074699 
L 79.862479 283.507365 
L 80.179835 283.241776 
L 80.49719 282.802489 
L 80.814545 282.672391 
L 81.449256 281.932758 
L 81.766612 281.711952 
L 82.083967 281.158547 
L 82.401322 281.000186 
L 83.670744 279.665153 
L 83.988099 279.540481 
L 85.574876 278.055525 
L 85.892231 277.441093 
L 86.526942 277.046136 
L 87.161653 276.489554 
L 88.113719 275.932794 
L 88.431074 275.649494 
L 88.74843 275.212295 
L 90.017851 274.492737 
L 90.335207 274.101597 
L 90.969917 273.932615 
L 91.604628 273.382199 
L 92.239339 273.1368 
L 92.556694 272.870345 
L 92.87405 272.759474 
L 93.191405 272.429305 
L 93.826116 272.152782 
L 94.143471 271.744038 
L 95.095537 271.21674 
L 95.412893 271.155202 
L 95.730248 270.880129 
L 96.047603 270.788455 
L 96.364959 270.507224 
L 97.317025 270.144626 
L 97.951736 269.548703 
L 98.269091 269.280338 
L 98.903802 269.101088 
L 99.855868 268.318857 
L 100.173223 268.267858 
L 100.490579 267.904942 
L 100.807934 267.714822 
L 101.125289 267.662856 
L 101.442645 267.288761 
L 103.029421 266.507746 
L 103.346777 266.210397 
L 105.250909 265.31354 
L 112.550083 261.178415 
L 112.867438 261.138408 
L 114.454215 260.26119 
L 115.406281 259.602743 
L 116.040992 259.285089 
L 116.358347 259.034201 
L 116.993058 258.82232 
L 117.945124 258.110769 
L 120.801322 256.65927 
L 121.118678 256.618507 
L 121.436033 256.337963 
L 121.753388 256.234648 
L 123.02281 255.429266 
L 124.609587 254.64936 
L 124.926942 254.371197 
L 125.561653 254.199374 
L 126.196364 253.955012 
L 126.513719 253.675032 
L 127.14843 253.46485 
L 127.78314 253.146091 
L 128.100496 253.098085 
L 129.052562 252.618532 
L 130.321983 252.152287 
L 131.591405 251.542539 
L 132.226116 251.107348 
L 132.543471 251.076344 
L 135.082314 249.975848 
L 135.717025 249.728847 
L 136.03438 249.491468 
L 136.669091 249.224696 
L 137.621157 248.892553 
L 137.938512 248.544664 
L 138.890579 248.264695 
L 139.842645 247.740549 
L 140.477355 247.385623 
L 141.746777 246.735968 
L 143.016198 246.072274 
L 143.333554 246.023185 
L 143.650909 245.721752 
L 145.555041 244.787114 
L 146.189752 244.491681 
L 146.824463 244.16518 
L 147.141818 243.843961 
L 147.776529 243.534133 
L 151.902149 241.713201 
L 152.219504 241.677037 
L 152.53686 241.390551 
L 153.488926 241.001376 
L 154.123636 240.648286 
L 154.758347 240.464789 
L 157.614545 238.942277 
L 157.931901 238.820939 
L 158.249256 238.562534 
L 158.883967 238.367382 
L 160.153388 237.629881 
L 160.788099 237.355449 
L 161.105455 236.97838 
L 161.42281 236.873753 
L 162.057521 236.53884 
L 164.596364 235.475987 
L 165.54843 235.033971 
L 166.18314 234.749349 
L 167.452562 234.035585 
L 168.087273 233.857048 
L 173.482314 231.379878 
L 175.069091 230.832372 
L 175.703802 230.309589 
L 176.655868 230.0419 
L 177.925289 229.530622 
L 178.242645 229.228865 
L 179.829421 228.640641 
L 181.416198 228.049069 
L 181.733554 227.597068 
L 183.637686 226.750272 
L 184.272397 226.561946 
L 184.907107 226.265925 
L 186.176529 225.780407 
L 188.080661 225.047406 
L 188.398017 224.793945 
L 191.254215 223.740872 
L 191.57157 223.527661 
L 193.158347 223.054691 
L 193.793058 222.776066 
L 195.379835 222.124332 
L 195.69719 222.072736 
L 196.331901 221.75945 
L 196.966612 221.50961 
L 197.283967 221.332806 
L 198.236033 221.151734 
L 200.140165 220.483339 
L 200.774876 220.35437 
L 201.409587 220.085738 
L 201.726942 220.015932 
L 202.361653 219.650221 
L 208.70876 217.262622 
L 209.026116 217.188761 
L 209.660826 216.803794 
L 210.295537 216.637844 
L 210.930248 216.314133 
L 212.199669 215.849927 
L 217.277355 213.878689 
L 217.594711 213.840282 
L 218.229421 213.595994 
L 218.546777 213.570122 
L 219.181488 213.255981 
L 219.816198 213.110641 
L 221.08562 212.630052 
L 222.672397 212.225058 
L 222.989752 211.954023 
L 224.576529 211.503639 
L 225.21124 211.233872 
L 229.33686 209.856738 
L 230.288926 209.514318 
L 233.779835 208.214006 
L 234.09719 208.155351 
L 235.049256 207.74017 
L 236.953388 207.165261 
L 242.98314 204.949397 
L 246.156694 203.782179 
L 248.378182 202.903556 
L 252.186446 201.457162 
L 253.455868 201.096334 
L 266.467438 196.277463 
L 269.640992 195.091048 
L 269.958347 194.766962 
L 270.593058 194.558792 
L 270.910413 194.517701 
L 271.862479 194.053924 
L 273.449256 193.493873 
L 274.083967 193.180975 
L 274.401322 193.113129 
L 275.036033 192.804978 
L 276.305455 192.362564 
L 276.940165 192.111125 
L 278.209587 191.514157 
L 281.38314 190.144507 
L 283.921983 189.130735 
L 284.87405 188.690136 
L 285.50876 188.45809 
L 286.460826 188.028436 
L 286.778182 187.936817 
L 287.412893 187.467366 
L 288.047603 187.333797 
L 292.490579 185.359908 
L 292.807934 185.128286 
L 293.442645 184.908551 
L 294.712066 184.105075 
L 297.88562 182.718196 
L 299.155041 182.245816 
L 300.107107 181.823391 
L 300.741818 181.546588 
L 303.598017 180.11718 
L 304.232727 179.885989 
L 304.550083 179.826466 
L 305.502149 179.388207 
L 306.13686 179.019557 
L 306.77157 178.485815 
L 307.406281 178.304274 
L 307.723636 178.035742 
L 308.358347 177.807177 
L 308.993058 177.381897 
L 309.310413 177.279448 
L 309.627769 176.968746 
L 310.579835 176.684951 
L 311.214545 176.284829 
L 312.483967 175.857146 
L 312.801322 175.462272 
L 313.436033 175.195455 
L 314.705455 174.505171 
L 315.340165 174.151603 
L 318.831074 172.015601 
L 319.465785 171.772461 
L 326.130248 168.423033 
L 326.764959 167.709342 
L 327.399669 167.464889 
L 328.351736 166.622936 
L 328.986446 166.224969 
L 329.303802 165.988498 
L 329.938512 165.764997 
L 331.842645 164.665645 
L 332.477355 164.550262 
L 333.112066 163.948682 
L 334.381488 163.496645 
L 334.698843 163.434954 
L 335.016198 163.137883 
L 335.333554 163.052095 
L 335.650909 162.763403 
L 335.968264 162.719766 
L 336.920331 162.195468 
L 337.872397 161.305813 
L 338.507107 161.077876 
L 338.824463 160.633046 
L 339.776529 159.919248 
L 340.41124 159.456238 
L 341.04595 159.144749 
L 341.680661 158.915099 
L 342.315372 158.469747 
L 343.902149 157.213073 
L 344.53686 156.589102 
L 344.854215 156.518113 
L 348.345124 154.527025 
L 348.979835 154.36212 
L 349.29719 154.033904 
L 351.836033 152.761119 
L 352.470744 152.277386 
L 352.788099 152.225046 
L 353.42281 151.324095 
L 354.057521 150.792263 
L 354.374876 150.635436 
L 355.009587 149.948555 
L 355.644298 149.537592 
L 356.279008 149.185415 
L 356.913719 148.779716 
L 357.231074 148.742667 
L 358.500496 147.985191 
L 360.404628 146.790416 
L 360.721983 146.208379 
L 361.039339 146.014254 
L 361.67405 145.428208 
L 361.991405 145.078986 
L 362.30876 144.980071 
L 362.943471 144.534974 
L 363.260826 144.400235 
L 363.895537 143.301853 
L 364.530248 142.864597 
L 366.43438 141.723797 
L 367.069091 141.114657 
L 367.386446 140.684041 
L 368.338512 140.06318 
L 369.607934 138.608855 
L 369.925289 138.514434 
L 370.242645 137.735551 
L 370.56 137.464397 
L 370.877355 136.932411 
L 371.194711 136.791625 
L 371.512066 136.516042 
L 371.829421 136.399327 
L 372.781488 135.108232 
L 373.416198 134.720353 
L 373.733554 134.582962 
L 374.050909 133.617041 
L 374.368264 133.459013 
L 374.68562 132.986603 
L 375.002975 132.281923 
L 375.320331 132.103565 
L 375.955041 130.800009 
L 376.272397 130.661425 
L 376.589752 130.221806 
L 376.907107 129.447825 
L 377.541818 128.844741 
L 377.859174 128.708834 
L 378.176529 128.408205 
L 378.493884 127.511179 
L 378.81124 127.268753 
L 380.080661 125.30467 
L 380.715372 124.590661 
L 381.032727 123.939133 
L 381.350083 123.723681 
L 381.667438 122.977524 
L 381.984793 122.625738 
L 382.302149 122.465904 
L 382.619504 121.818343 
L 383.57157 120.694132 
L 384.523636 119.442958 
L 384.840992 118.877735 
L 385.158347 118.560134 
L 385.475702 117.293013 
L 385.793058 116.793279 
L 386.427769 114.943754 
L 387.062479 114.028888 
L 387.379835 113.05461 
L 387.69719 112.910671 
L 388.014545 112.125701 
L 388.331901 111.664977 
L 388.649256 110.532063 
L 388.966612 110.228512 
L 389.601322 108.157282 
L 389.918678 107.829902 
L 390.870744 105.395008 
L 391.188099 103.796658 
L 391.82281 103.094073 
L 392.140165 101.821096 
L 392.457521 101.307053 
L 392.774876 99.893793 
L 393.092231 99.372556 
L 393.409587 97.608002 
L 393.726942 96.781108 
L 394.044298 94.219119 
L 394.361653 93.460709 
L 394.679008 93.13383 
L 395.313719 91.75481 
L 395.631074 90.816629 
L 395.94843 88.209736 
L 396.265785 83.605524 
L 396.58314 80.694843 
L 396.900496 78.998238 
L 397.217851 76.019879 
L 397.535207 67.177876 
L 398.169917 62.678423 
L 398.487273 53.568 
L 398.487273 53.568 
" clip-path="url(#p6834238c53)" style="fill: none; stroke: #1f77b4; stroke-width: 1.5; stroke-linecap: square"/>
   </g>
   <g id="line2d_15">
    <path d="M 73.832727 295.488 
L 75.73686 295.393148 
L 76.054215 295.165577 
L 76.37157 295.165577 
L 76.688926 294.048989 
L 77.006281 294.048989 
L 77.323636 293.346805 
L 78.275702 293.342679 
L 78.593058 293.180639 
L 79.227769 293.116415 
L 79.545124 292.543618 
L 79.862479 292.543618 
L 80.179835 291.176312 
L 80.49719 291.176312 
L 80.814545 291.028384 
L 81.131901 291.028384 
L 82.083967 290.762447 
L 82.401322 288.851682 
L 83.353388 288.842499 
L 83.670744 288.737571 
L 83.988099 288.371713 
L 84.940165 288.337955 
L 85.257521 288.202662 
L 85.892231 288.101114 
L 86.209587 287.717727 
L 86.526942 287.717727 
L 86.844298 286.592819 
L 88.431074 286.422249 
L 88.74843 286.221581 
L 89.065785 286.221581 
L 89.38314 285.693366 
L 89.700496 285.693366 
L 90.017851 284.814528 
L 90.335207 284.608773 
L 90.652562 284.608773 
L 90.969917 284.127336 
L 91.287273 284.127336 
L 91.604628 283.839434 
L 91.921983 282.793383 
L 92.239339 282.60434 
L 92.556694 282.60434 
L 92.87405 281.551171 
L 93.826116 281.532406 
L 94.143471 281.402436 
L 94.460826 281.042121 
L 94.778182 281.042121 
L 95.412893 280.405766 
L 95.730248 280.405766 
L 96.047603 280.115415 
L 97.317025 280.068543 
L 97.63438 279.872073 
L 97.951736 279.872073 
L 98.269091 279.659625 
L 98.586446 279.659625 
L 98.903802 279.485949 
L 99.538512 279.448629 
L 99.855868 278.867183 
L 100.173223 278.867183 
L 100.490579 278.162249 
L 100.807934 278.162249 
L 101.125289 277.980565 
L 102.077355 277.969284 
L 102.394711 277.858136 
L 102.712066 276.217748 
L 105.250909 275.749169 
L 105.568264 275.749169 
L 105.88562 275.318001 
L 106.202975 275.159682 
L 106.520331 275.159682 
L 106.837686 274.737959 
L 107.155041 274.737959 
L 107.472397 274.503986 
L 107.789752 274.503986 
L 108.107107 273.715703 
L 108.741818 273.714212 
L 109.059174 272.912541 
L 109.376529 272.623431 
L 109.693884 272.623431 
L 110.01124 271.813215 
L 110.963306 271.757501 
L 111.598017 271.59108 
L 111.915372 271.59108 
L 112.550083 270.4615 
L 113.819504 270.291864 
L 114.13686 269.9991 
L 114.77157 269.923463 
L 115.406281 269.804912 
L 115.723636 269.373675 
L 116.358347 269.276072 
L 117.627769 268.905743 
L 117.945124 268.512491 
L 118.262479 268.512491 
L 118.579835 268.025812 
L 119.531901 267.954185 
L 120.483967 267.827484 
L 120.801322 266.370219 
L 121.118678 266.370219 
L 121.753388 265.844402 
L 122.070744 265.844402 
L 122.388099 265.606324 
L 122.705455 265.606324 
L 123.02281 265.431304 
L 123.657521 265.404592 
L 123.974876 265.13099 
L 124.609587 265.129155 
L 124.926942 264.120171 
L 126.196364 263.722526 
L 126.513719 263.273117 
L 127.465785 263.207852 
L 127.78314 263.069031 
L 128.100496 261.728722 
L 129.369917 261.65494 
L 129.687273 261.425507 
L 130.639339 261.385425 
L 130.956694 261.220611 
L 131.27405 260.708674 
L 131.90876 260.46482 
L 132.226116 260.46482 
L 132.860826 260.301586 
L 133.178182 260.301586 
L 133.495537 260.130424 
L 134.447603 260.050569 
L 134.764959 259.693311 
L 136.03438 259.586113 
L 136.351736 259.407508 
L 138.255868 259.105881 
L 138.573223 258.928056 
L 139.525289 258.852397 
L 140.16 258.783236 
L 140.477355 258.317044 
L 140.794711 258.317044 
L 141.112066 256.819781 
L 141.429421 256.819781 
L 141.746777 256.697441 
L 143.016198 256.648962 
L 143.333554 255.820344 
L 145.237686 255.722604 
L 145.555041 255.689822 
L 146.189752 255.353386 
L 146.507107 255.353386 
L 146.824463 255.225221 
L 147.141818 255.225221 
L 148.093884 254.835953 
L 148.41124 254.354994 
L 148.728595 254.354994 
L 149.04595 254.164547 
L 149.363306 254.164547 
L 149.680661 254.002411 
L 149.998017 251.625781 
L 150.315372 251.625781 
L 150.632727 251.421244 
L 150.950083 251.051356 
L 151.267438 251.051356 
L 151.902149 250.472832 
L 152.53686 250.354416 
L 153.488926 250.326777 
L 154.123636 250.223201 
L 154.440992 250.20072 
L 154.758347 250.00173 
L 155.710413 249.972341 
L 156.027769 248.839797 
L 156.345124 248.583847 
L 156.662479 248.583847 
L 156.979835 248.470102 
L 157.29719 248.220935 
L 159.201322 248.140238 
L 159.518678 247.939849 
L 159.836033 247.939849 
L 160.153388 247.266 
L 160.788099 247.203602 
L 161.105455 247.028808 
L 161.42281 247.028808 
L 162.057521 246.752293 
L 162.374876 246.752293 
L 163.009587 246.237295 
L 163.326942 246.237295 
L 163.644298 245.76748 
L 163.961653 245.76748 
L 164.279008 245.537709 
L 165.231074 245.433165 
L 166.18314 245.347718 
L 166.500496 245.086996 
L 166.817851 243.19257 
L 167.452562 243.069888 
L 167.769917 243.069888 
L 168.087273 242.87614 
L 168.404628 242.87614 
L 168.721983 242.736258 
L 169.356694 242.718099 
L 169.67405 242.572863 
L 170.943471 242.555634 
L 171.260826 242.076555 
L 171.578182 242.076555 
L 171.895537 240.784827 
L 173.164959 240.419602 
L 173.482314 240.003863 
L 174.43438 239.925915 
L 174.751736 239.752002 
L 175.069091 238.923219 
L 176.338512 238.861132 
L 176.655868 238.595234 
L 176.973223 238.595234 
L 177.290579 238.121452 
L 179.512066 237.951116 
L 179.829421 237.829846 
L 180.781488 237.822969 
L 182.68562 237.192584 
L 183.002975 237.192584 
L 183.637686 236.822113 
L 183.955041 236.822113 
L 184.589752 236.414166 
L 184.907107 236.414166 
L 185.224463 235.67455 
L 185.859174 235.622583 
L 186.176529 235.307287 
L 187.128595 235.197198 
L 188.080661 235.076123 
L 188.715372 234.681781 
L 189.032727 234.681781 
L 189.350083 234.412645 
L 189.667438 234.3562 
L 189.984793 233.9744 
L 190.93686 233.935607 
L 191.254215 233.38493 
L 191.57157 233.184009 
L 191.888926 233.184009 
L 192.206281 232.427821 
L 193.158347 232.331355 
L 194.427769 231.835817 
L 194.745124 230.829858 
L 195.379835 230.808503 
L 196.014545 230.373465 
L 196.331901 230.373465 
L 196.649256 230.060797 
L 198.553388 230.015843 
L 198.870744 229.827188 
L 199.188099 229.827188 
L 199.505455 229.301377 
L 200.140165 229.233564 
L 200.457521 229.088736 
L 201.726942 229.03529 
L 202.044298 228.769013 
L 202.361653 228.769013 
L 202.679008 228.439144 
L 204.58314 228.381822 
L 204.900496 228.095323 
L 205.217851 228.095323 
L 205.535207 227.943561 
L 205.852562 227.943561 
L 206.487273 227.122335 
L 206.804628 227.122335 
L 207.121983 226.978714 
L 208.391405 226.901276 
L 208.70876 226.361828 
L 209.026116 226.226783 
L 209.978182 226.167289 
L 210.295537 225.906905 
L 210.930248 225.829662 
L 211.247603 225.705653 
L 211.882314 225.606484 
L 212.199669 224.844399 
L 213.469091 224.678129 
L 214.421157 224.645052 
L 214.738512 224.382742 
L 215.690579 224.28302 
L 216.007934 224.142842 
L 216.325289 224.142842 
L 216.642645 223.977738 
L 217.277355 223.908267 
L 218.229421 223.707395 
L 218.546777 223.372904 
L 219.181488 223.327125 
L 219.816198 223.245924 
L 220.450909 221.632516 
L 221.402975 221.539021 
L 221.720331 221.473145 
L 222.037686 221.189262 
L 222.672397 221.08728 
L 222.989752 220.871784 
L 223.307107 220.871784 
L 223.624463 220.643167 
L 224.576529 220.498941 
L 224.893884 220.070217 
L 226.163306 220.014455 
L 228.067438 219.671155 
L 228.384793 219.671155 
L 228.702149 219.302802 
L 229.33686 219.214349 
L 229.654215 218.756884 
L 229.97157 218.756884 
L 230.288926 218.534757 
L 232.510413 218.43235 
L 233.145124 218.326633 
L 234.09719 218.075363 
L 234.414545 217.808381 
L 235.049256 217.803348 
L 235.366612 217.585577 
L 236.636033 217.515295 
L 236.953388 217.305414 
L 237.270744 217.305414 
L 237.588099 217.162764 
L 237.905455 217.162764 
L 238.540165 216.860936 
L 238.857521 216.860936 
L 239.174876 215.336635 
L 239.492231 215.336635 
L 239.809587 215.202682 
L 240.444298 215.191812 
L 240.761653 215.053757 
L 241.396364 214.968762 
L 242.34843 214.847245 
L 242.665785 214.459527 
L 243.935207 214.415801 
L 245.521983 214.100017 
L 246.156694 214.034653 
L 246.791405 213.912899 
L 247.10876 213.912899 
L 247.426116 213.042556 
L 248.060826 212.99373 
L 248.378182 212.620734 
L 248.695537 212.620734 
L 249.012893 212.180653 
L 249.964959 212.125099 
L 250.282314 211.849489 
L 250.599669 211.849489 
L 250.917025 211.298119 
L 251.23438 211.298119 
L 251.869091 211.021867 
L 252.186446 211.021867 
L 252.821157 210.874441 
L 253.138512 210.874441 
L 253.455868 210.762715 
L 253.773223 210.466946 
L 254.090579 210.466946 
L 254.725289 209.891397 
L 255.36 209.884179 
L 255.677355 209.551052 
L 256.629421 209.527217 
L 256.946777 209.302623 
L 257.898843 209.172415 
L 258.216198 209.034369 
L 258.533554 209.034369 
L 258.850909 208.252791 
L 259.48562 208.156983 
L 260.120331 207.532499 
L 260.437686 207.532499 
L 260.755041 207.027056 
L 261.389752 206.811037 
L 261.707107 206.811037 
L 262.024463 206.68068 
L 262.976529 206.58689 
L 263.928595 206.471991 
L 264.24595 206.350218 
L 264.563306 206.350218 
L 265.198017 206.135327 
L 265.515372 206.135327 
L 265.832727 205.54309 
L 268.054215 205.033533 
L 269.006281 204.896185 
L 269.323636 204.588785 
L 269.640992 204.588785 
L 269.958347 204.47001 
L 270.275702 204.186507 
L 270.593058 204.186507 
L 271.227769 203.781236 
L 272.49719 203.706018 
L 272.814545 203.423049 
L 274.401322 203.324325 
L 275.353388 203.157258 
L 276.940165 203.047254 
L 277.257521 201.941984 
L 277.574876 201.375608 
L 278.526942 201.281754 
L 278.844298 201.097788 
L 279.161653 200.781073 
L 279.479008 200.781073 
L 279.796364 200.513158 
L 280.113719 200.513158 
L 280.431074 200.355788 
L 280.74843 199.848112 
L 281.065785 199.703415 
L 281.38314 199.703415 
L 281.700496 199.45752 
L 282.017851 198.268253 
L 282.969917 198.232801 
L 283.287273 198.040789 
L 284.239339 197.948663 
L 284.556694 197.653181 
L 285.191405 197.639692 
L 285.50876 197.464662 
L 286.460826 197.410493 
L 286.778182 197.161125 
L 288.999669 196.986164 
L 289.63438 194.816081 
L 290.903802 194.672646 
L 292.173223 194.324633 
L 293.125289 194.262316 
L 294.712066 193.93058 
L 295.346777 193.399899 
L 295.981488 192.935621 
L 296.298843 192.935621 
L 296.616198 192.560788 
L 297.250909 192.45521 
L 297.568264 192.090013 
L 297.88562 192.090013 
L 298.202975 191.665082 
L 299.155041 191.399477 
L 299.472397 191.399477 
L 299.789752 191.066705 
L 300.741818 191.031674 
L 301.376529 190.938572 
L 302.963306 190.713068 
L 304.232727 190.628258 
L 304.550083 190.310853 
L 304.867438 188.752799 
L 305.184793 188.580469 
L 305.502149 188.580469 
L 305.819504 188.402287 
L 306.454215 188.308669 
L 307.088926 188.212189 
L 307.406281 187.067803 
L 307.723636 187.067803 
L 308.040992 186.903015 
L 308.675702 186.103968 
L 309.945124 185.908339 
L 310.262479 185.498933 
L 310.579835 185.498933 
L 311.214545 185.193195 
L 311.531901 185.193195 
L 311.849256 184.905061 
L 312.166612 184.905061 
L 312.483967 184.587208 
L 312.801322 184.587208 
L 313.436033 184.204119 
L 313.753388 184.204119 
L 314.070744 183.941221 
L 314.388099 183.513774 
L 314.705455 183.364936 
L 315.02281 183.364936 
L 315.340165 182.715551 
L 315.657521 182.65172 
L 315.974876 182.24151 
L 316.292231 182.24151 
L 316.609587 182.029903 
L 317.244298 182.004758 
L 317.561653 181.811019 
L 318.196364 181.749319 
L 318.513719 181.535818 
L 318.831074 181.535818 
L 319.14843 180.439392 
L 320.735207 180.024926 
L 321.052562 179.555096 
L 321.369917 179.347997 
L 322.321983 179.340508 
L 322.956694 179.139902 
L 323.27405 179.139902 
L 323.591405 178.748414 
L 323.90876 178.748414 
L 324.543471 177.963836 
L 324.860826 177.963836 
L 325.178182 177.654659 
L 325.812893 177.644499 
L 326.447603 176.985291 
L 326.764959 176.985291 
L 327.082314 176.128079 
L 328.03438 176.032555 
L 328.351736 175.995118 
L 328.669091 175.67913 
L 328.986446 175.018595 
L 330.255868 174.880934 
L 330.573223 174.495658 
L 330.890579 174.495658 
L 331.525289 173.815536 
L 331.842645 173.815536 
L 332.16 173.104841 
L 332.477355 172.716084 
L 333.112066 172.658407 
L 333.429421 172.390384 
L 333.746777 172.390384 
L 334.064132 171.771296 
L 334.698843 171.704826 
L 335.333554 170.888681 
L 335.650909 170.888681 
L 335.968264 170.754913 
L 336.920331 170.704156 
L 337.237686 170.611432 
L 337.555041 170.024609 
L 337.872397 169.820791 
L 338.824463 169.714355 
L 339.141818 169.714355 
L 339.459174 169.4271 
L 339.776529 169.4271 
L 340.41124 169.202705 
L 340.728595 169.202705 
L 341.04595 168.961792 
L 341.363306 168.961792 
L 341.680661 168.280772 
L 341.998017 168.280772 
L 342.315372 166.921968 
L 342.632727 166.560501 
L 343.267438 166.473777 
L 343.584793 166.301061 
L 343.902149 166.301061 
L 344.219504 166.163486 
L 344.854215 166.070886 
L 345.17157 164.738727 
L 347.075702 164.634895 
L 347.393058 164.510067 
L 347.710413 163.733747 
L 348.345124 163.313247 
L 348.662479 163.313247 
L 348.979835 163.189718 
L 349.29719 163.189718 
L 349.614545 162.664056 
L 349.931901 161.157534 
L 351.518678 160.858108 
L 351.836033 160.53928 
L 352.470744 160.434881 
L 353.42281 160.324563 
L 353.740165 160.097177 
L 355.326942 160.017898 
L 355.644298 159.864873 
L 355.961653 159.32195 
L 356.279008 159.32195 
L 356.596364 157.816443 
L 356.913719 157.576989 
L 357.231074 157.576989 
L 357.54843 156.668717 
L 357.865785 156.285783 
L 358.18314 156.285783 
L 358.500496 155.678993 
L 359.452562 155.568654 
L 359.769917 155.546266 
L 360.087273 155.053464 
L 360.721983 155.040718 
L 362.30876 154.526241 
L 362.626116 154.526241 
L 363.260826 154.252242 
L 363.578182 154.252242 
L 363.895537 153.680981 
L 364.212893 153.680981 
L 364.530248 151.870478 
L 365.164959 151.085728 
L 365.482314 151.085728 
L 365.799669 150.695612 
L 366.117025 150.695612 
L 366.43438 150.48055 
L 367.069091 149.830652 
L 367.386446 149.830652 
L 367.703802 148.768086 
L 368.338512 148.660116 
L 368.973223 148.613035 
L 369.290579 148.375817 
L 369.925289 148.341704 
L 370.242645 145.836062 
L 370.56 145.603345 
L 370.877355 145.603345 
L 371.194711 145.189847 
L 371.512066 145.189847 
L 371.829421 144.783932 
L 372.146777 144.662529 
L 372.464132 143.252815 
L 372.781488 142.951432 
L 373.733554 142.861908 
L 374.050909 142.666115 
L 374.368264 142.609652 
L 374.68562 142.394814 
L 375.002975 142.394814 
L 375.320331 141.905644 
L 375.637686 141.905644 
L 375.955041 141.685601 
L 376.272397 141.255423 
L 376.589752 141.255423 
L 376.907107 138.179133 
L 377.224463 136.425573 
L 377.541818 136.425573 
L 377.859174 136.17503 
L 378.176529 135.633091 
L 379.44595 135.470412 
L 379.763306 133.143622 
L 380.080661 132.947329 
L 380.398017 132.947329 
L 381.032727 132.339233 
L 381.984793 132.23841 
L 382.302149 131.160546 
L 382.619504 129.507061 
L 383.254215 129.421109 
L 383.888926 129.225394 
L 384.206281 129.225394 
L 384.523636 128.889569 
L 384.840992 128.889569 
L 385.158347 126.595602 
L 385.475702 126.595602 
L 385.793058 126.284157 
L 386.110413 122.834543 
L 386.427769 122.834543 
L 387.062479 122.522984 
L 387.379835 120.486605 
L 387.69719 119.76664 
L 388.331901 119.666024 
L 388.649256 119.187031 
L 388.966612 119.187031 
L 389.283967 116.804198 
L 389.601322 116.666075 
L 389.918678 116.666075 
L 390.236033 115.515937 
L 390.553388 112.861366 
L 390.870744 112.861366 
L 391.188099 112.703482 
L 391.505455 110.221531 
L 391.82281 109.826943 
L 392.140165 109.826943 
L 392.457521 107.569265 
L 392.774876 107.441267 
L 393.092231 107.441267 
L 393.409587 107.031111 
L 393.726942 107.031111 
L 394.044298 104.857683 
L 394.361653 100.224039 
L 394.996364 100.206669 
L 395.631074 99.519919 
L 395.94843 99.519919 
L 396.265785 91.360879 
L 396.58314 87.028209 
L 396.900496 86.619279 
L 397.217851 86.619279 
L 397.535207 72.39925 
L 398.169917 72.302544 
L 398.487273 60.699047 
L 398.487273 60.699047 
" clip-path="url(#p6834238c53)" style="fill: none; stroke: #ff7f0e; stroke-width: 1.5; stroke-linecap: square"/>
   </g>
   <g id="patch_3">
    <path d="M 57.6 307.584 
L 57.6 41.472 
" style="fill: none; stroke: #000000; stroke-width: 0.8; stroke-linejoin: miter; stroke-linecap: square"/>
   </g>
   <g id="patch_4">
    <path d="M 414.72 307.584 
L 414.72 41.472 
" style="fill: none; stroke: #000000; stroke-width: 0.8; stroke-linejoin: miter; stroke-linecap: square"/>
   </g>
   <g id="patch_5">
    <path d="M 57.6 307.584 
L 414.72 307.584 
" style="fill: none; stroke: #000000; stroke-width: 0.8; stroke-linejoin: miter; stroke-linecap: square"/>
   </g>
   <g id="patch_6">
    <path d="M 57.6 41.472 
L 414.72 41.472 
" style="fill: none; stroke: #000000; stroke-width: 0.8; stroke-linejoin: miter; stroke-linecap: square"/>
   </g>
   <g id="legend_1">
    <g id="patch_7">
     <path d="M 64.6 78.82825 
L 129.342187 78.82825 
Q 131.342187 78.82825 131.342187 76.82825 
L 131.342187 48.472 
Q 131.342187 46.472 129.342187 46.472 
L 64.6 46.472 
Q 62.6 46.472 62.6 48.472 
L 62.6 76.82825 
Q 62.6 78.82825 64.6 78.82825 
z
" style="fill: #ffffff; opacity: 0.8; stroke: #cccccc; stroke-linejoin: miter"/>
    </g>
    <g id="line2d_16">
     <path d="M 66.6 54.570437 
L 76.6 54.570437 
L 86.6 54.570437 
" style="fill: none; stroke: #1f77b4; stroke-width: 1.5; stroke-linecap: square"/>
    </g>
    <g id="text_16">
     <!-- qc -->
     <g transform="translate(94.6 58.070437) scale(0.1 -0.1)">
      <defs>
       <path id="DejaVuSans-71" d="M 947 1747 
Q 947 1113 1208 752 
Q 1469 391 1925 391 
Q 2381 391 2643 752 
Q 2906 1113 2906 1747 
Q 2906 2381 2643 2742 
Q 2381 3103 1925 3103 
Q 1469 3103 1208 2742 
Q 947 2381 947 1747 
z
M 2906 525 
Q 2725 213 2448 61 
Q 2172 -91 1784 -91 
Q 1150 -91 751 415 
Q 353 922 353 1747 
Q 353 2572 751 3078 
Q 1150 3584 1784 3584 
Q 2172 3584 2448 3432 
Q 2725 3281 2906 2969 
L 2906 3500 
L 3481 3500 
L 3481 -1331 
L 2906 -1331 
L 2906 525 
z
" transform="scale(0.015625)"/>
       <path id="DejaVuSans-63" d="M 3122 3366 
L 3122 2828 
Q 2878 2963 2633 3030 
Q 2388 3097 2138 3097 
Q 1578 3097 1268 2742 
Q 959 2388 959 1747 
Q 959 1106 1268 751 
Q 1578 397 2138 397 
Q 2388 397 2633 464 
Q 2878 531 3122 666 
L 3122 134 
Q 2881 22 2623 -34 
Q 2366 -91 2075 -91 
Q 1284 -91 818 406 
Q 353 903 353 1747 
Q 353 2603 823 3093 
Q 1294 3584 2113 3584 
Q 2378 3584 2631 3529 
Q 2884 3475 3122 3366 
z
" transform="scale(0.015625)"/>
      </defs>
      <use xlink:href="#DejaVuSans-71"/>
      <use xlink:href="#DejaVuSans-63" x="63.476562"/>
     </g>
    </g>
    <g id="line2d_17">
     <path d="M 66.6 69.248562 
L 76.6 69.248562 
L 86.6 69.248562 
" style="fill: none; stroke: #ff7f0e; stroke-width: 1.5; stroke-linecap: square"/>
    </g>
    <g id="text_17">
     <!-- Trotter -->
     <g transform="translate(94.6 72.748562) scale(0.1 -0.1)">
      <defs>
       <path id="DejaVuSans-54" d="M -19 4666 
L 3928 4666 
L 3928 4134 
L 2272 4134 
L 2272 0 
L 1638 0 
L 1638 4134 
L -19 4134 
L -19 4666 
z
" transform="scale(0.015625)"/>
       <path id="DejaVuSans-72" d="M 2631 2963 
Q 2534 3019 2420 3045 
Q 2306 3072 2169 3072 
Q 1681 3072 1420 2755 
Q 1159 2438 1159 1844 
L 1159 0 
L 581 0 
L 581 3500 
L 1159 3500 
L 1159 2956 
Q 1341 3275 1631 3429 
Q 1922 3584 2338 3584 
Q 2397 3584 2469 3576 
Q 2541 3569 2628 3553 
L 2631 2963 
z
" transform="scale(0.015625)"/>
       <path id="DejaVuSans-6f" d="M 1959 3097 
Q 1497 3097 1228 2736 
Q 959 2375 959 1747 
Q 959 1119 1226 758 
Q 1494 397 1959 397 
Q 2419 397 2687 759 
Q 2956 1122 2956 1747 
Q 2956 2369 2687 2733 
Q 2419 3097 1959 3097 
z
M 1959 3584 
Q 2709 3584 3137 3096 
Q 3566 2609 3566 1747 
Q 3566 888 3137 398 
Q 2709 -91 1959 -91 
Q 1206 -91 779 398 
Q 353 888 353 1747 
Q 353 2609 779 3096 
Q 1206 3584 1959 3584 
z
" transform="scale(0.015625)"/>
       <path id="DejaVuSans-65" d="M 3597 1894 
L 3597 1613 
L 953 1613 
Q 991 1019 1311 708 
Q 1631 397 2203 397 
Q 2534 397 2845 478 
Q 3156 559 3463 722 
L 3463 178 
Q 3153 47 2828 -22 
Q 2503 -91 2169 -91 
Q 1331 -91 842 396 
Q 353 884 353 1716 
Q 353 2575 817 3079 
Q 1281 3584 2069 3584 
Q 2775 3584 3186 3129 
Q 3597 2675 3597 1894 
z
M 3022 2063 
Q 3016 2534 2758 2815 
Q 2500 3097 2075 3097 
Q 1594 3097 1305 2825 
Q 1016 2553 972 2059 
L 3022 2063 
z
" transform="scale(0.015625)"/>
      </defs>
      <use xlink:href="#DejaVuSans-54"/>
      <use xlink:href="#DejaVuSans-72" x="46.333984"/>
      <use xlink:href="#DejaVuSans-6f" x="85.197266"/>
      <use xlink:href="#DejaVuSans-74" x="146.378906"/>
      <use xlink:href="#DejaVuSans-74" x="185.587891"/>
      <use xlink:href="#DejaVuSans-65" x="224.796875"/>
      <use xlink:href="#DejaVuSans-72" x="286.320312"/>
     </g>
    </g>
   </g>
  </g>
 </g>
 <defs>
  <clipPath id="p6834238c53">
   <rect x="57.6" y="41.472" width="357.12" height="266.112"/>
  </clipPath>
 </defs>
</svg>
