<?xml version="1.0" encoding="utf-8" standalone="no"?>
<!DOCTYPE svg PUBLIC "-//W3C//DTD SVG 1.1//EN"
  "http://www.w3.org/Graphics/SVG/1.1/DTD/svg11.dtd">
<svg xmlns:xlink="http://www.w3.org/1999/xlink" width="460.8pt" height="345.6pt" viewBox="0 0 460.8 345.6" xmlns="http://www.w3.org/2000/svg" version="1.1">
 <metadata>
  <rdf:RDF xmlns:dc="http://purl.org/dc/elements/1.1/" xmlns:cc="http://creativecommons.org/ns#" xmlns:rdf="http://www.w3.org/1999/02/22-rdf-syntax-ns#">
   <cc:Work>
    <dc:type rdf:resource="http://purl.org/dc/dcmitype/StillImage"/>
    <dc:date>2024-05-31T11:03:08.437805</dc:date>
    <dc:format>image/svg+xml</dc:format>
    <dc:creator>
     <cc:Agent>
      <dc:title>Matplotlib v3.7.1, https://matplotlib.org/</dc:title>
     </cc:Agent>
    </dc:creator>
   </cc:Work>
  </rdf:RDF>
 </metadata>
 <defs>
  <style type="text/css">*{stroke-linejoin: round; stroke-linecap: butt}</style>
 </defs>
 <g id="figure_1">
  <g id="patch_1">
   <path d="M 0 345.6 
L 460.8 345.6 
L 460.8 0 
L 0 0 
z
" style="fill: #ffffff"/>
  </g>
  <g id="axes_1">
   <g id="patch_2">
    <path d="M 57.6 307.584 
L 414.72 307.584 
L 414.72 41.472 
L 57.6 41.472 
z
" style="fill: #ffffff"/>
   </g>
   <g id="matplotlib.axis_1">
    <g id="xtick_1">
     <g id="line2d_1">
      <defs>
       <path id="mc1942c6ce3" d="M 0 0 
L 0 3.5 
" style="stroke: #000000; stroke-width: 0.8"/>
      </defs>
      <g>
       <use xlink:href="#mc1942c6ce3" x="73.832727" y="307.584" style="stroke: #000000; stroke-width: 0.8"/>
      </g>
     </g>
     <g id="text_1">
      <!-- 0 -->
      <g transform="translate(70.651477 322.182437) scale(0.1 -0.1)">
       <defs>
        <path id="DejaVuSans-30" d="M 2034 4250 
Q 1547 4250 1301 3770 
Q 1056 3291 1056 2328 
Q 1056 1369 1301 889 
Q 1547 409 2034 409 
Q 2525 409 2770 889 
Q 3016 1369 3016 2328 
Q 3016 3291 2770 3770 
Q 2525 4250 2034 4250 
z
M 2034 4750 
Q 2819 4750 3233 4129 
Q 3647 3509 3647 2328 
Q 3647 1150 3233 529 
Q 2819 -91 2034 -91 
Q 1250 -91 836 529 
Q 422 1150 422 2328 
Q 422 3509 836 4129 
Q 1250 4750 2034 4750 
z
" transform="scale(0.015625)"/>
       </defs>
       <use xlink:href="#DejaVuSans-30"/>
      </g>
     </g>
    </g>
    <g id="xtick_2">
     <g id="line2d_2">
      <g>
       <use xlink:href="#mc1942c6ce3" x="137.303802" y="307.584" style="stroke: #000000; stroke-width: 0.8"/>
      </g>
     </g>
     <g id="text_2">
      <!-- 200 -->
      <g transform="translate(127.760052 322.182437) scale(0.1 -0.1)">
       <defs>
        <path id="DejaVuSans-32" d="M 1228 531 
L 3431 531 
L 3431 0 
L 469 0 
L 469 531 
Q 828 903 1448 1529 
Q 2069 2156 2228 2338 
Q 2531 2678 2651 2914 
Q 2772 3150 2772 3378 
Q 2772 3750 2511 3984 
Q 2250 4219 1831 4219 
Q 1534 4219 1204 4116 
Q 875 4013 500 3803 
L 500 4441 
Q 881 4594 1212 4672 
Q 1544 4750 1819 4750 
Q 2544 4750 2975 4387 
Q 3406 4025 3406 3419 
Q 3406 3131 3298 2873 
Q 3191 2616 2906 2266 
Q 2828 2175 2409 1742 
Q 1991 1309 1228 531 
z
" transform="scale(0.015625)"/>
       </defs>
       <use xlink:href="#DejaVuSans-32"/>
       <use xlink:href="#DejaVuSans-30" x="63.623047"/>
       <use xlink:href="#DejaVuSans-30" x="127.246094"/>
      </g>
     </g>
    </g>
    <g id="xtick_3">
     <g id="line2d_3">
      <g>
       <use xlink:href="#mc1942c6ce3" x="200.774876" y="307.584" style="stroke: #000000; stroke-width: 0.8"/>
      </g>
     </g>
     <g id="text_3">
      <!-- 400 -->
      <g transform="translate(191.231126 322.182437) scale(0.1 -0.1)">
       <defs>
        <path id="DejaVuSans-34" d="M 2419 4116 
L 825 1625 
L 2419 1625 
L 2419 4116 
z
M 2253 4666 
L 3047 4666 
L 3047 1625 
L 3713 1625 
L 3713 1100 
L 3047 1100 
L 3047 0 
L 2419 0 
L 2419 1100 
L 313 1100 
L 313 1709 
L 2253 4666 
z
" transform="scale(0.015625)"/>
       </defs>
       <use xlink:href="#DejaVuSans-34"/>
       <use xlink:href="#DejaVuSans-30" x="63.623047"/>
       <use xlink:href="#DejaVuSans-30" x="127.246094"/>
      </g>
     </g>
    </g>
    <g id="xtick_4">
     <g id="line2d_4">
      <g>
       <use xlink:href="#mc1942c6ce3" x="264.24595" y="307.584" style="stroke: #000000; stroke-width: 0.8"/>
      </g>
     </g>
     <g id="text_4">
      <!-- 600 -->
      <g transform="translate(254.7022 322.182437) scale(0.1 -0.1)">
       <defs>
        <path id="DejaVuSans-36" d="M 2113 2584 
Q 1688 2584 1439 2293 
Q 1191 2003 1191 1497 
Q 1191 994 1439 701 
Q 1688 409 2113 409 
Q 2538 409 2786 701 
Q 3034 994 3034 1497 
Q 3034 2003 2786 2293 
Q 2538 2584 2113 2584 
z
M 3366 4563 
L 3366 3988 
Q 3128 4100 2886 4159 
Q 2644 4219 2406 4219 
Q 1781 4219 1451 3797 
Q 1122 3375 1075 2522 
Q 1259 2794 1537 2939 
Q 1816 3084 2150 3084 
Q 2853 3084 3261 2657 
Q 3669 2231 3669 1497 
Q 3669 778 3244 343 
Q 2819 -91 2113 -91 
Q 1303 -91 875 529 
Q 447 1150 447 2328 
Q 447 3434 972 4092 
Q 1497 4750 2381 4750 
Q 2619 4750 2861 4703 
Q 3103 4656 3366 4563 
z
" transform="scale(0.015625)"/>
       </defs>
       <use xlink:href="#DejaVuSans-36"/>
       <use xlink:href="#DejaVuSans-30" x="63.623047"/>
       <use xlink:href="#DejaVuSans-30" x="127.246094"/>
      </g>
     </g>
    </g>
    <g id="xtick_5">
     <g id="line2d_5">
      <g>
       <use xlink:href="#mc1942c6ce3" x="327.717025" y="307.584" style="stroke: #000000; stroke-width: 0.8"/>
      </g>
     </g>
     <g id="text_5">
      <!-- 800 -->
      <g transform="translate(318.173275 322.182437) scale(0.1 -0.1)">
       <defs>
        <path id="DejaVuSans-38" d="M 2034 2216 
Q 1584 2216 1326 1975 
Q 1069 1734 1069 1313 
Q 1069 891 1326 650 
Q 1584 409 2034 409 
Q 2484 409 2743 651 
Q 3003 894 3003 1313 
Q 3003 1734 2745 1975 
Q 2488 2216 2034 2216 
z
M 1403 2484 
Q 997 2584 770 2862 
Q 544 3141 544 3541 
Q 544 4100 942 4425 
Q 1341 4750 2034 4750 
Q 2731 4750 3128 4425 
Q 3525 4100 3525 3541 
Q 3525 3141 3298 2862 
Q 3072 2584 2669 2484 
Q 3125 2378 3379 2068 
Q 3634 1759 3634 1313 
Q 3634 634 3220 271 
Q 2806 -91 2034 -91 
Q 1263 -91 848 271 
Q 434 634 434 1313 
Q 434 1759 690 2068 
Q 947 2378 1403 2484 
z
M 1172 3481 
Q 1172 3119 1398 2916 
Q 1625 2713 2034 2713 
Q 2441 2713 2670 2916 
Q 2900 3119 2900 3481 
Q 2900 3844 2670 4047 
Q 2441 4250 2034 4250 
Q 1625 4250 1398 4047 
Q 1172 3844 1172 3481 
z
" transform="scale(0.015625)"/>
       </defs>
       <use xlink:href="#DejaVuSans-38"/>
       <use xlink:href="#DejaVuSans-30" x="63.623047"/>
       <use xlink:href="#DejaVuSans-30" x="127.246094"/>
      </g>
     </g>
    </g>
    <g id="xtick_6">
     <g id="line2d_6">
      <g>
       <use xlink:href="#mc1942c6ce3" x="391.188099" y="307.584" style="stroke: #000000; stroke-width: 0.8"/>
      </g>
     </g>
     <g id="text_6">
      <!-- 1000 -->
      <g transform="translate(378.463099 322.182437) scale(0.1 -0.1)">
       <defs>
        <path id="DejaVuSans-31" d="M 794 531 
L 1825 531 
L 1825 4091 
L 703 3866 
L 703 4441 
L 1819 4666 
L 2450 4666 
L 2450 531 
L 3481 531 
L 3481 0 
L 794 0 
L 794 531 
z
" transform="scale(0.015625)"/>
       </defs>
       <use xlink:href="#DejaVuSans-31"/>
       <use xlink:href="#DejaVuSans-30" x="63.623047"/>
       <use xlink:href="#DejaVuSans-30" x="127.246094"/>
       <use xlink:href="#DejaVuSans-30" x="190.869141"/>
      </g>
     </g>
    </g>
    <g id="text_7">
     <!-- n -->
     <g transform="translate(232.99125 335.860562) scale(0.1 -0.1)">
      <defs>
       <path id="DejaVuSans-6e" d="M 3513 2113 
L 3513 0 
L 2938 0 
L 2938 2094 
Q 2938 2591 2744 2837 
Q 2550 3084 2163 3084 
Q 1697 3084 1428 2787 
Q 1159 2491 1159 1978 
L 1159 0 
L 581 0 
L 581 3500 
L 1159 3500 
L 1159 2956 
Q 1366 3272 1645 3428 
Q 1925 3584 2291 3584 
Q 2894 3584 3203 3211 
Q 3513 2838 3513 2113 
z
" transform="scale(0.015625)"/>
      </defs>
      <use xlink:href="#DejaVuSans-6e"/>
     </g>
    </g>
   </g>
   <g id="matplotlib.axis_2">
    <g id="ytick_1">
     <g id="line2d_7">
      <defs>
       <path id="mb121af157b" d="M 0 0 
L -3.5 0 
" style="stroke: #000000; stroke-width: 0.8"/>
      </defs>
      <g>
       <use xlink:href="#mb121af157b" x="57.6" y="287.671171" style="stroke: #000000; stroke-width: 0.8"/>
      </g>
     </g>
     <g id="text_8">
      <!-- −0.3 -->
      <g transform="translate(26.317187 291.47039) scale(0.1 -0.1)">
       <defs>
        <path id="DejaVuSans-2212" d="M 678 2272 
L 4684 2272 
L 4684 1741 
L 678 1741 
L 678 2272 
z
" transform="scale(0.015625)"/>
        <path id="DejaVuSans-2e" d="M 684 794 
L 1344 794 
L 1344 0 
L 684 0 
L 684 794 
z
" transform="scale(0.015625)"/>
        <path id="DejaVuSans-33" d="M 2597 2516 
Q 3050 2419 3304 2112 
Q 3559 1806 3559 1356 
Q 3559 666 3084 287 
Q 2609 -91 1734 -91 
Q 1441 -91 1130 -33 
Q 819 25 488 141 
L 488 750 
Q 750 597 1062 519 
Q 1375 441 1716 441 
Q 2309 441 2620 675 
Q 2931 909 2931 1356 
Q 2931 1769 2642 2001 
Q 2353 2234 1838 2234 
L 1294 2234 
L 1294 2753 
L 1863 2753 
Q 2328 2753 2575 2939 
Q 2822 3125 2822 3475 
Q 2822 3834 2567 4026 
Q 2313 4219 1838 4219 
Q 1578 4219 1281 4162 
Q 984 4106 628 3988 
L 628 4550 
Q 988 4650 1302 4700 
Q 1616 4750 1894 4750 
Q 2613 4750 3031 4423 
Q 3450 4097 3450 3541 
Q 3450 3153 3228 2886 
Q 3006 2619 2597 2516 
z
" transform="scale(0.015625)"/>
       </defs>
       <use xlink:href="#DejaVuSans-2212"/>
       <use xlink:href="#DejaVuSans-30" x="83.789062"/>
       <use xlink:href="#DejaVuSans-2e" x="147.412109"/>
       <use xlink:href="#DejaVuSans-33" x="179.199219"/>
      </g>
     </g>
    </g>
    <g id="ytick_2">
     <g id="line2d_8">
      <g>
       <use xlink:href="#mb121af157b" x="57.6" y="246.298473" style="stroke: #000000; stroke-width: 0.8"/>
      </g>
     </g>
     <g id="text_9">
      <!-- −0.2 -->
      <g transform="translate(26.317187 250.097692) scale(0.1 -0.1)">
       <use xlink:href="#DejaVuSans-2212"/>
       <use xlink:href="#DejaVuSans-30" x="83.789062"/>
       <use xlink:href="#DejaVuSans-2e" x="147.412109"/>
       <use xlink:href="#DejaVuSans-32" x="179.199219"/>
      </g>
     </g>
    </g>
    <g id="ytick_3">
     <g id="line2d_9">
      <g>
       <use xlink:href="#mb121af157b" x="57.6" y="204.925776" style="stroke: #000000; stroke-width: 0.8"/>
      </g>
     </g>
     <g id="text_10">
      <!-- −0.1 -->
      <g transform="translate(26.317187 208.724994) scale(0.1 -0.1)">
       <use xlink:href="#DejaVuSans-2212"/>
       <use xlink:href="#DejaVuSans-30" x="83.789062"/>
       <use xlink:href="#DejaVuSans-2e" x="147.412109"/>
       <use xlink:href="#DejaVuSans-31" x="179.199219"/>
      </g>
     </g>
    </g>
    <g id="ytick_4">
     <g id="line2d_10">
      <g>
       <use xlink:href="#mb121af157b" x="57.6" y="163.553078" style="stroke: #000000; stroke-width: 0.8"/>
      </g>
     </g>
     <g id="text_11">
      <!-- 0.0 -->
      <g transform="translate(34.696875 167.352296) scale(0.1 -0.1)">
       <use xlink:href="#DejaVuSans-30"/>
       <use xlink:href="#DejaVuSans-2e" x="63.623047"/>
       <use xlink:href="#DejaVuSans-30" x="95.410156"/>
      </g>
     </g>
    </g>
    <g id="ytick_5">
     <g id="line2d_11">
      <g>
       <use xlink:href="#mb121af157b" x="57.6" y="122.18038" style="stroke: #000000; stroke-width: 0.8"/>
      </g>
     </g>
     <g id="text_12">
      <!-- 0.1 -->
      <g transform="translate(34.696875 125.979598) scale(0.1 -0.1)">
       <use xlink:href="#DejaVuSans-30"/>
       <use xlink:href="#DejaVuSans-2e" x="63.623047"/>
       <use xlink:href="#DejaVuSans-31" x="95.410156"/>
      </g>
     </g>
    </g>
    <g id="ytick_6">
     <g id="line2d_12">
      <g>
       <use xlink:href="#mb121af157b" x="57.6" y="80.807682" style="stroke: #000000; stroke-width: 0.8"/>
      </g>
     </g>
     <g id="text_13">
      <!-- 0.2 -->
      <g transform="translate(34.696875 84.6069) scale(0.1 -0.1)">
       <use xlink:href="#DejaVuSans-30"/>
       <use xlink:href="#DejaVuSans-2e" x="63.623047"/>
       <use xlink:href="#DejaVuSans-32" x="95.410156"/>
      </g>
     </g>
    </g>
    <g id="text_14">
     <!-- E*t -->
     <g transform="translate(20.2375 182.147531) rotate(-90) scale(0.1 -0.1)">
      <defs>
       <path id="DejaVuSans-45" d="M 628 4666 
L 3578 4666 
L 3578 4134 
L 1259 4134 
L 1259 2753 
L 3481 2753 
L 3481 2222 
L 1259 2222 
L 1259 531 
L 3634 531 
L 3634 0 
L 628 0 
L 628 4666 
z
" transform="scale(0.015625)"/>
       <path id="DejaVuSans-2a" d="M 3009 3897 
L 1888 3291 
L 3009 2681 
L 2828 2375 
L 1778 3009 
L 1778 1831 
L 1422 1831 
L 1422 3009 
L 372 2375 
L 191 2681 
L 1313 3291 
L 191 3897 
L 372 4206 
L 1422 3572 
L 1422 4750 
L 1778 4750 
L 1778 3572 
L 2828 4206 
L 3009 3897 
z
" transform="scale(0.015625)"/>
       <path id="DejaVuSans-74" d="M 1172 4494 
L 1172 3500 
L 2356 3500 
L 2356 3053 
L 1172 3053 
L 1172 1153 
Q 1172 725 1289 603 
Q 1406 481 1766 481 
L 2356 481 
L 2356 0 
L 1766 0 
Q 1100 0 847 248 
Q 594 497 594 1153 
L 594 3053 
L 172 3053 
L 172 3500 
L 594 3500 
L 594 4494 
L 1172 4494 
z
" transform="scale(0.015625)"/>
      </defs>
      <use xlink:href="#DejaVuSans-45"/>
      <use xlink:href="#DejaVuSans-2a" x="63.183594"/>
      <use xlink:href="#DejaVuSans-74" x="113.183594"/>
     </g>
    </g>
   </g>
   <g id="line2d_13">
    <path d="M 73.832727 295.488 
L 74.150083 283.785295 
L 74.467438 277.837303 
L 75.102149 273.011402 
L 75.419504 271.996046 
L 75.73686 266.729073 
L 76.054215 265.103209 
L 76.688926 261.202402 
L 77.323636 259.828233 
L 77.640992 258.289506 
L 78.910413 254.635935 
L 79.227769 254.089986 
L 79.545124 253.059682 
L 79.862479 251.279928 
L 80.49719 249.827293 
L 80.814545 249.432442 
L 81.131901 248.281805 
L 82.083967 246.440679 
L 82.401322 246.18643 
L 82.718678 244.91856 
L 83.036033 244.631727 
L 83.670744 243.216163 
L 83.988099 242.872 
L 84.305455 242.095883 
L 84.940165 241.622518 
L 85.257521 241.080831 
L 85.574876 240.841424 
L 85.892231 239.867379 
L 87.479008 238.157892 
L 87.796364 237.277911 
L 88.113719 237.083326 
L 88.431074 236.434732 
L 88.74843 236.275391 
L 89.065785 235.979359 
L 90.652562 233.779118 
L 91.287273 233.254413 
L 91.604628 232.563875 
L 92.239339 232.16167 
L 92.556694 231.59647 
L 93.191405 231.188901 
L 93.826116 230.476952 
L 94.460826 229.981721 
L 94.778182 229.807668 
L 95.095537 229.274276 
L 95.412893 229.116617 
L 96.364959 227.899295 
L 97.951736 226.584577 
L 98.269091 226.373131 
L 98.586446 225.73744 
L 99.538512 225.164602 
L 100.173223 224.783207 
L 100.807934 223.756722 
L 101.125289 223.700644 
L 102.077355 222.859309 
L 102.394711 222.642378 
L 103.029421 221.979847 
L 103.981488 221.319498 
L 104.298843 220.964285 
L 104.616198 220.897774 
L 105.568264 220.261213 
L 106.202975 219.775403 
L 106.520331 219.65112 
L 108.107107 218.40763 
L 108.741818 217.993129 
L 109.376529 217.469955 
L 110.01124 217.075653 
L 110.328595 216.666897 
L 111.598017 215.997914 
L 111.915372 215.611159 
L 114.13686 214.513601 
L 114.77157 213.967894 
L 115.088926 213.807421 
L 115.406281 213.448483 
L 116.040992 213.216315 
L 116.358347 212.901135 
L 116.993058 212.555777 
L 117.310413 212.200802 
L 118.262479 211.809857 
L 118.579835 211.576515 
L 118.89719 211.488774 
L 119.214545 211.091531 
L 119.531901 211.013863 
L 120.801322 210.130302 
L 121.436033 209.934984 
L 122.070744 209.517988 
L 122.388099 209.382478 
L 122.705455 209.105102 
L 123.340165 208.864474 
L 123.974876 208.367772 
L 124.609587 208.163086 
L 126.196364 207.399193 
L 126.831074 207.17088 
L 127.14843 206.835061 
L 128.417851 206.336553 
L 128.735207 206.032402 
L 129.369917 205.802274 
L 130.004628 205.37791 
L 130.321983 205.334079 
L 130.639339 205.07584 
L 131.591405 204.690775 
L 132.860826 204.011002 
L 134.130248 203.549741 
L 137.621157 201.760766 
L 138.890579 201.368991 
L 139.207934 201.104059 
L 140.16 200.725584 
L 140.794711 200.274079 
L 143.016198 199.29196 
L 143.968264 198.950922 
L 145.555041 198.315416 
L 145.872397 198.047174 
L 146.189752 198.012764 
L 146.824463 197.639477 
L 147.776529 197.248949 
L 148.728595 196.892838 
L 149.363306 196.567378 
L 149.680661 196.538705 
L 150.315372 196.234673 
L 155.393058 194.151557 
L 155.710413 194.078573 
L 156.345124 193.742027 
L 157.29719 193.38991 
L 159.201322 192.542795 
L 159.836033 192.329159 
L 165.231074 190.270576 
L 165.865785 190.111975 
L 166.500496 189.844157 
L 167.135207 189.666463 
L 167.452562 189.429658 
L 168.721983 189.116832 
L 169.039339 188.967414 
L 169.356694 188.947044 
L 169.991405 188.640638 
L 170.626116 188.363866 
L 171.578182 188.081244 
L 171.895537 187.868474 
L 172.530248 187.654441 
L 174.751736 186.969112 
L 175.703802 186.621462 
L 179.194711 185.229051 
L 180.464132 184.83263 
L 181.098843 184.559432 
L 182.050909 184.304023 
L 183.002975 183.982212 
L 183.955041 183.636826 
L 194.427769 180.045976 
L 195.062479 179.818313 
L 199.188099 178.35377 
L 199.505455 178.325392 
L 200.140165 178.008766 
L 201.092231 177.704515 
L 201.726942 177.47264 
L 207.756694 175.506594 
L 208.391405 175.341587 
L 209.026116 175.067971 
L 209.978182 174.851184 
L 210.612893 174.570271 
L 212.83438 173.90932 
L 213.469091 173.602409 
L 213.786446 173.576739 
L 214.421157 173.337149 
L 215.373223 173.106878 
L 216.007934 172.849172 
L 216.642645 172.636781 
L 217.277355 172.487166 
L 227.115372 169.199979 
L 227.750083 168.832493 
L 228.702149 168.619465 
L 229.33686 168.369766 
L 229.654215 168.341919 
L 230.288926 168.081921 
L 230.606281 168.057683 
L 231.240992 167.768193 
L 236.636033 166.121723 
L 238.22281 165.626941 
L 238.857521 165.421243 
L 239.492231 165.172263 
L 239.809587 165.120318 
L 240.444298 164.841789 
L 246.156694 163.087761 
L 246.791405 162.854617 
L 247.426116 162.667675 
L 248.060826 162.459769 
L 249.012893 162.189943 
L 251.869091 161.24696 
L 252.503802 161.166958 
L 253.773223 160.595393 
L 254.725289 160.309292 
L 257.264132 159.550779 
L 257.898843 159.33768 
L 258.533554 159.158359 
L 263.293884 157.475695 
L 263.928595 157.266289 
L 265.515372 156.70551 
L 266.150083 156.523574 
L 267.73686 155.98624 
L 271.862479 154.64552 
L 274.083967 153.84179 
L 274.401322 153.797015 
L 275.353388 153.386062 
L 276.305455 153.133179 
L 278.209587 152.447898 
L 279.161653 152.153418 
L 279.479008 151.913777 
L 280.74843 151.554635 
L 281.38314 151.291307 
L 290.586446 148.32029 
L 291.221157 148.086658 
L 291.538512 148.039353 
L 292.173223 147.809481 
L 292.807934 147.615837 
L 294.394711 147.056653 
L 295.346777 146.819189 
L 295.664132 146.660927 
L 295.981488 146.64112 
L 296.616198 146.357457 
L 299.789752 145.217522 
L 300.424463 144.980781 
L 303.280661 143.966789 
L 303.598017 143.743231 
L 304.232727 143.626012 
L 307.406281 142.476127 
L 308.993058 141.965644 
L 309.627769 141.700277 
L 312.483967 140.510342 
L 313.118678 140.242686 
L 313.753388 140.076196 
L 314.705455 139.651686 
L 315.02281 139.608988 
L 315.974876 139.189796 
L 316.609587 138.957658 
L 317.879008 138.522951 
L 318.196364 138.416939 
L 318.513719 138.184863 
L 319.14843 137.984641 
L 319.78314 137.787389 
L 320.417851 137.473559 
L 321.687273 136.956584 
L 323.591405 136.241025 
L 323.90876 136.015625 
L 324.543471 135.844085 
L 325.495537 135.470311 
L 333.429421 132.042076 
L 334.064132 131.817477 
L 335.650909 131.216856 
L 336.28562 130.887406 
L 336.602975 130.865983 
L 337.555041 130.361753 
L 337.872397 130.30172 
L 338.507107 129.956191 
L 339.459174 129.515226 
L 339.776529 129.337223 
L 340.093884 129.29396 
L 342.315372 128.098959 
L 343.267438 127.657986 
L 343.584793 127.589884 
L 344.53686 127.103395 
L 347.393058 125.836855 
L 348.027769 125.424887 
L 348.662479 125.04372 
L 349.931901 124.368606 
L 350.249256 124.323887 
L 351.201322 123.751412 
L 352.788099 122.914753 
L 353.42281 122.530249 
L 354.692231 121.70926 
L 355.009587 121.686305 
L 357.54843 120.22492 
L 357.865785 119.878401 
L 358.500496 119.612546 
L 359.452562 119.112624 
L 360.087273 118.681035 
L 360.721983 118.467948 
L 363.260826 116.548478 
L 363.578182 116.420277 
L 364.212893 115.847083 
L 364.847603 115.465141 
L 365.482314 114.993701 
L 368.021157 113.431183 
L 370.242645 112.002867 
L 370.56 111.468386 
L 370.877355 111.311852 
L 371.194711 110.838846 
L 371.512066 110.72499 
L 371.829421 110.312265 
L 372.146777 110.230825 
L 373.416198 109.31453 
L 373.733554 109.07991 
L 374.368264 108.323746 
L 375.002975 107.827545 
L 375.320331 107.712091 
L 375.955041 107.062223 
L 376.589752 106.74139 
L 377.224463 106.192338 
L 377.859174 105.567848 
L 378.176529 105.430164 
L 378.81124 104.702349 
L 380.080661 103.777028 
L 380.398017 103.298553 
L 381.032727 102.858879 
L 384.523636 99.037243 
L 384.840992 98.496623 
L 385.158347 98.257559 
L 385.475702 97.700725 
L 385.793058 97.555901 
L 386.427769 96.786246 
L 386.745124 96.146636 
L 387.062479 95.972072 
L 387.379835 95.372357 
L 387.69719 95.139377 
L 389.918678 91.480393 
L 390.236033 90.45083 
L 390.870744 89.990667 
L 391.505455 88.335904 
L 391.82281 87.921493 
L 392.140165 87.028241 
L 392.774876 86.158251 
L 393.409587 84.799329 
L 393.726942 83.039081 
L 394.679008 80.211627 
L 395.313719 78.824318 
L 395.631074 77.328814 
L 395.94843 76.44018 
L 396.265785 73.899194 
L 396.900496 71.703095 
L 397.217851 67.964299 
L 397.535207 66.414891 
L 397.852562 63.383408 
L 398.169917 56.9496 
L 398.487273 55.926619 
L 398.487273 55.926619 
" clip-path="url(#pbbb621239a)" style="fill: none; stroke: #1f77b4; stroke-width: 1.5; stroke-linecap: square"/>
   </g>
   <g id="line2d_14">
    <path d="M 73.832727 281.465267 
L 74.150083 269.053456 
L 74.467438 267.838489 
L 74.784793 264.312532 
L 75.102149 258.820747 
L 75.419504 256.641646 
L 76.054215 254.10076 
L 76.37157 251.900725 
L 76.688926 251.900723 
L 77.006281 250.808326 
L 77.323636 247.212413 
L 77.640992 246.408939 
L 77.958347 245.074137 
L 78.275702 244.22984 
L 78.593058 244.229836 
L 78.910413 243.014872 
L 79.227769 242.972221 
L 80.179835 239.488915 
L 80.49719 239.488915 
L 81.131901 238.396517 
L 81.449256 238.058548 
L 82.718678 234.800604 
L 83.036033 234.149115 
L 83.353388 233.997131 
L 83.670744 233.686075 
L 83.988099 232.746453 
L 84.305455 232.662331 
L 84.62281 231.818029 
L 84.940165 231.818026 
L 85.257521 231.284181 
L 85.574876 231.218887 
L 85.892231 230.603063 
L 86.209587 230.56041 
L 86.526942 230.28587 
L 86.844298 229.63893 
L 87.479008 228.804236 
L 88.431074 227.077107 
L 88.74843 227.077106 
L 89.065785 226.435437 
L 89.700496 225.984708 
L 90.335207 225.646742 
L 90.969917 224.147144 
L 91.604628 224.107184 
L 91.921983 223.940762 
L 92.87405 222.514215 
L 93.191405 222.388795 
L 93.50876 221.737303 
L 93.826116 221.585323 
L 95.095537 220.423393 
L 96.047603 220.13954 
L 96.364959 219.406219 
L 96.682314 219.406216 
L 96.999669 219.03568 
L 97.63438 218.807075 
L 97.951736 218.191254 
L 98.269091 218.1486 
L 98.586446 217.874062 
L 98.903802 217.867491 
L 99.221157 217.45115 
L 100.173223 217.116374 
L 100.490579 216.865336 
L 100.807934 216.392424 
L 101.125289 216.201145 
L 101.76 215.503621 
L 102.077355 215.400352 
L 102.394711 214.677767 
L 103.029421 214.665298 
L 103.346777 214.023625 
L 103.981488 213.5729 
L 104.616198 213.384596 
L 104.933554 213.234935 
L 105.250909 212.381337 
L 105.88562 212.172253 
L 106.202975 211.864768 
L 106.520331 211.735332 
L 107.155041 211.695379 
L 107.472397 211.528955 
L 107.789752 211.069603 
L 108.107107 211.01103 
L 108.424463 210.767392 
L 108.741818 210.703434 
L 109.693884 210.017867 
L 110.328595 209.940076 
L 110.64595 209.325493 
L 110.963306 209.173516 
L 111.280661 208.862465 
L 111.598017 208.836486 
L 112.550083 208.303754 
L 114.13686 207.727732 
L 114.454215 207.033807 
L 115.088926 206.994407 
L 115.406281 206.623872 
L 116.040992 206.395263 
L 116.358347 206.36808 
L 116.675702 205.779445 
L 116.993058 205.736789 
L 117.310413 205.462254 
L 117.627769 205.455682 
L 117.945124 205.039344 
L 118.579835 204.955819 
L 119.214545 204.815306 
L 120.483967 204.587286 
L 120.801322 204.453527 
L 121.436033 203.980613 
L 121.753388 203.789339 
L 122.070744 203.731688 
L 122.705455 203.240513 
L 123.340165 202.991462 
L 123.657521 202.988543 
L 123.974876 202.265961 
L 124.926942 202.146832 
L 126.196364 201.360611 
L 126.513719 201.343165 
L 126.831074 201.181934 
L 127.465785 201.110788 
L 128.100496 200.823128 
L 128.417851 199.969528 
L 129.052562 199.837582 
L 129.369917 199.76045 
L 129.687273 199.323521 
L 130.321983 199.283572 
L 131.591405 198.657792 
L 131.90876 198.599221 
L 132.226116 198.355586 
L 132.543471 198.291625 
L 132.860826 198.028921 
L 133.178182 197.941017 
L 133.495537 197.690597 
L 134.447603 197.528267 
L 134.764959 196.913683 
L 135.717025 196.648927 
L 136.03438 196.45066 
L 136.351736 196.424682 
L 137.303802 195.921903 
L 138.890579 195.724866 
L 139.842645 195.530844 
L 140.477355 195.426911 
L 140.794711 195.315925 
L 141.112066 194.725958 
L 141.746777 194.582599 
L 142.064132 194.582598 
L 142.381488 194.219089 
L 142.698843 194.212065 
L 143.333554 193.983452 
L 143.968264 193.879428 
L 144.28562 193.367636 
L 144.602975 193.32498 
L 144.920331 193.050446 
L 145.237686 193.043874 
L 145.555041 192.914029 
L 145.872397 192.627537 
L 146.507107 192.54401 
L 147.141818 192.403494 
L 148.728595 192.175479 
L 149.998017 191.568803 
L 150.315372 191.377533 
L 150.632727 191.319878 
L 150.950083 191.024905 
L 151.584793 191.00572 
L 151.902149 190.680002 
L 152.854215 190.332469 
L 153.488926 189.854156 
L 154.758347 189.735023 
L 155.710413 189.221924 
L 156.027769 189.200004 
L 156.662479 188.797229 
L 157.614545 188.698981 
L 158.249256 188.475101 
L 158.883967 188.411321 
L 159.201322 187.682183 
L 159.836033 187.439021 
L 161.105455 187.348646 
L 161.740165 187.269734 
L 162.057521 186.911709 
L 162.692231 186.871766 
L 163.326942 186.616428 
L 163.644298 186.594838 
L 163.961653 186.252259 
L 164.596364 186.187412 
L 164.913719 185.977289 
L 165.54843 185.879816 
L 166.18314 185.617111 
L 168.087273 185.116457 
L 168.404628 184.501873 
L 170.30876 184.012878 
L 170.626116 183.520069 
L 171.578182 183.385753 
L 174.117025 183.015104 
L 174.751736 182.833522 
L 175.069091 182.489561 
L 176.338512 182.17079 
L 176.655868 182.170789 
L 176.973223 181.80728 
L 177.290579 181.800258 
L 177.925289 181.571643 
L 179.194711 181.357033 
L 179.512066 180.955827 
L 180.464132 180.854664 
L 180.781488 180.638638 
L 181.098843 180.632066 
L 181.416198 180.502215 
L 181.733554 180.21573 
L 182.050909 180.190705 
L 182.368264 180.020043 
L 184.272397 179.763675 
L 184.907107 179.521374 
L 185.859174 179.32059 
L 186.176529 179.165722 
L 186.81124 179.148037 
L 187.763306 178.613094 
L 188.398017 178.593913 
L 188.715372 178.268192 
L 189.032727 178.16784 
L 189.667438 177.71127 
L 190.619504 177.429876 
L 191.57157 177.323214 
L 191.888926 177.315092 
L 192.206281 177.15602 
L 192.840992 177.114211 
L 193.158347 176.89077 
L 194.110413 176.788194 
L 194.745124 176.358319 
L 195.379835 176.287175 
L 195.69719 176.149177 
L 196.966612 175.999514 
L 197.283967 175.270367 
L 197.601322 175.027213 
L 199.188099 174.857916 
L 199.505455 174.825324 
L 200.140165 174.499898 
L 200.774876 174.459958 
L 201.409587 174.204623 
L 201.726942 174.183023 
L 202.044298 173.849073 
L 203.313719 173.775603 
L 203.631074 173.565478 
L 204.265785 173.468007 
L 204.58314 173.279246 
L 205.535207 173.16558 
L 206.169917 173.072793 
L 206.804628 172.741563 
L 207.121983 172.704648 
L 207.439339 172.483694 
L 207.756694 172.004879 
L 209.343471 171.627051 
L 209.660826 171.108258 
L 211.564959 170.939754 
L 213.469091 170.687402 
L 214.421157 170.421707 
L 214.738512 170.077755 
L 215.373223 169.970229 
L 215.690579 169.950364 
L 216.007934 169.758981 
L 216.642645 169.702888 
L 216.96 169.634803 
L 217.277355 169.395472 
L 217.912066 169.304697 
L 218.546777 169.055816 
L 219.181488 168.945217 
L 219.816198 168.544018 
L 221.08562 168.442859 
L 221.402975 168.261213 
L 222.355041 168.090402 
L 222.672397 167.803922 
L 222.989752 167.778897 
L 223.307107 167.60824 
L 224.893884 167.395727 
L 225.21124 167.313576 
L 225.528595 167.109572 
L 226.480661 166.908781 
L 227.432727 166.496259 
L 227.750083 166.424959 
L 228.067438 166.201284 
L 229.019504 166.047221 
L 229.33686 165.856382 
L 229.97157 165.756029 
L 230.606281 165.299453 
L 231.558347 165.018068 
L 232.510413 164.911407 
L 233.145124 164.841899 
L 234.731901 164.398314 
L 235.049256 164.376384 
L 235.683967 163.946511 
L 236.318678 163.875369 
L 236.636033 163.737371 
L 237.905455 163.587706 
L 238.22281 162.858552 
L 238.540165 162.615406 
L 240.761653 162.413518 
L 241.396364 162.088088 
L 242.031074 162.014987 
L 242.98314 161.437258 
L 243.935207 161.363795 
L 244.252562 161.153668 
L 244.887273 161.056198 
L 245.204628 160.86745 
L 246.156694 160.753766 
L 246.791405 160.660979 
L 247.10876 160.455169 
L 248.695537 160.071885 
L 249.964959 159.532785 
L 250.599669 159.413514 
L 250.917025 159.235781 
L 251.23438 159.215247 
L 251.551736 158.836495 
L 251.869091 158.689708 
L 252.821157 158.656523 
L 253.455868 158.535779 
L 255.36 158.275594 
L 255.994711 157.665949 
L 257.264132 157.538559 
L 257.581488 157.347173 
L 258.533554 157.291072 
L 258.850909 156.983664 
L 259.48562 156.89288 
L 260.120331 156.598735 
L 260.437686 156.533403 
L 261.072397 156.110673 
L 261.707107 156.031053 
L 262.659174 155.832006 
L 263.61124 155.67859 
L 264.24595 155.196436 
L 265.832727 154.983919 
L 268.054215 154.324431 
L 268.37157 154.08445 
L 269.323636 153.789475 
L 270.593058 153.344219 
L 270.910413 152.779867 
L 275.353388 151.713381 
L 275.670744 151.534702 
L 275.988099 151.523073 
L 276.305455 151.325565 
L 277.574876 151.214461 
L 278.526942 150.842532 
L 279.161653 150.190338 
L 279.796364 150.115911 
L 280.431074 150.063912 
L 281.38314 149.838965 
L 281.700496 149.676278 
L 282.017851 149.676277 
L 282.335207 149.496515 
L 282.652562 149.060508 
L 283.921983 148.951988 
L 284.556694 148.64439 
L 288.364959 147.660075 
L 289.317025 147.240236 
L 290.586446 147.001709 
L 291.221157 146.277898 
L 292.173223 146.123975 
L 293.76 145.883612 
L 294.394711 145.225539 
L 296.298843 144.879257 
L 296.933554 144.571857 
L 297.568264 144.481067 
L 298.202975 144.186921 
L 298.520331 144.121589 
L 299.155041 143.698868 
L 299.472397 143.69256 
L 300.107107 143.438878 
L 300.741818 143.396642 
L 301.376529 143.253619 
L 302.01124 142.955281 
L 302.64595 142.596496 
L 303.598017 142.489964 
L 304.232727 142.285964 
L 304.867438 142.220594 
L 305.502149 141.732859 
L 307.088926 141.377666 
L 307.723636 141.223602 
L 308.675702 140.932409 
L 308.993058 140.549025 
L 309.945124 140.105323 
L 310.579835 140.018287 
L 310.89719 139.748087 
L 312.166612 139.49142 
L 312.801322 139.13801 
L 313.436033 139.098446 
L 314.070744 138.816481 
L 314.705455 138.697161 
L 315.340165 138.034924 
L 315.657521 137.711023 
L 316.926942 137.605882 
L 317.561653 137.264468 
L 318.196364 137.216218 
L 318.513719 136.648693 
L 319.78314 136.528507 
L 320.417851 136.232582 
L 320.735207 136.155731 
L 321.052562 135.930141 
L 321.687273 135.870791 
L 322.004628 135.572193 
L 322.639339 135.469219 
L 323.27405 135.402204 
L 323.90876 135.203517 
L 325.495537 134.691274 
L 325.812893 134.275734 
L 326.130248 134.237349 
L 326.447603 133.866088 
L 327.082314 133.738515 
L 328.03438 133.536253 
L 328.351736 133.162832 
L 329.303802 132.75933 
L 330.573223 132.667432 
L 330.890579 132.516506 
L 331.525289 131.897228 
L 332.16 131.775108 
L 332.477355 131.709776 
L 332.794711 131.287063 
L 333.429421 131.227575 
L 334.381488 131.008391 
L 334.698843 130.999276 
L 336.920331 129.931885 
L 337.237686 129.874159 
L 337.555041 129.32106 
L 338.824463 128.979229 
L 339.776529 128.5206 
L 340.093884 128.037663 
L 341.363306 127.667841 
L 341.680661 127.336284 
L 342.315372 127.273134 
L 342.632727 127.079609 
L 342.950083 127.072859 
L 343.267438 126.889768 
L 343.584793 126.87149 
L 344.219504 126.699447 
L 344.53686 126.686642 
L 345.17157 126.404672 
L 345.806281 126.285356 
L 346.123636 126.018904 
L 346.440992 125.29921 
L 347.075702 125.29131 
L 347.710413 124.852658 
L 348.027769 124.8044 
L 348.345124 124.201814 
L 348.979835 123.918241 
L 349.931901 123.500448 
L 350.566612 123.458969 
L 350.883967 123.039993 
L 351.201322 122.858816 
L 351.836033 122.79172 
L 352.153388 122.622672 
L 352.470744 122.596749 
L 353.105455 122.27947 
L 353.42281 121.863928 
L 353.740165 121.82553 
L 354.057521 121.454277 
L 354.692231 121.326707 
L 355.009587 121.151489 
L 355.326942 120.751016 
L 355.961653 120.58544 
L 356.279008 120.401914 
L 357.54843 120.120023 
L 358.18314 119.474735 
L 358.500496 119.363296 
L 358.817851 118.875259 
L 359.135207 118.596584 
L 359.452562 118.587481 
L 360.087273 118.319155 
L 360.404628 117.65165 
L 361.039339 117.520076 
L 361.356694 116.90926 
L 363.895537 115.938207 
L 364.530248 115.281703 
L 366.43438 114.314384 
L 367.069091 114.274837 
L 367.703802 113.939705 
L 368.021157 113.221819 
L 368.338512 112.887397 
L 368.655868 112.880486 
L 369.290579 111.79 
L 369.925289 111.506433 
L 370.877355 111.088631 
L 371.194711 110.628185 
L 371.829421 110.210874 
L 372.146777 110.184942 
L 372.464132 110.004805 
L 373.098843 109.042466 
L 373.416198 108.714881 
L 373.733554 108.173625 
L 374.050909 107.990102 
L 375.320331 107.708199 
L 375.637686 107.06291 
L 375.955041 106.951484 
L 376.907107 106.184778 
L 377.224463 106.175685 
L 377.541818 106.018175 
L 377.859174 105.239833 
L 378.493884 105.108266 
L 378.81124 104.286951 
L 379.128595 104.275441 
L 379.44595 103.526409 
L 380.398017 102.493675 
L 381.350083 101.902573 
L 381.667438 101.875824 
L 382.302149 101.52789 
L 382.619504 100.810013 
L 382.93686 100.383713 
L 383.254215 99.378187 
L 383.57157 99.364105 
L 383.888926 98.920303 
L 384.206281 98.676815 
L 384.840992 97.799074 
L 385.158347 97.757692 
L 385.793058 97.320121 
L 386.110413 97.001892 
L 386.745124 95.788454 
L 387.062479 95.523893 
L 387.69719 95.296378 
L 388.014545 94.025395 
L 388.331901 93.606362 
L 388.649256 92.828017 
L 388.966612 92.709969 
L 389.283967 91.875137 
L 389.601322 91.863634 
L 390.553388 89.490762 
L 390.870744 89.464013 
L 391.188099 88.54631 
L 391.505455 88.411135 
L 391.82281 88.398207 
L 392.140165 86.264999 
L 392.457521 85.345883 
L 393.409587 83.891246 
L 393.726942 83.020187 
L 394.361653 80.416201 
L 394.679008 79.463325 
L 394.996364 79.247316 
L 395.313719 78.39166 
L 395.631074 77.881211 
L 396.265785 73.853185 
L 396.58314 72.934073 
L 396.900496 72.496498 
L 397.217851 65.97983 
L 397.535207 65.469394 
L 397.852562 63.5875 
L 398.487273 53.568 
L 398.487273 53.568 
" clip-path="url(#pbbb621239a)" style="fill: none; stroke: #ff7f0e; stroke-width: 1.5; stroke-linecap: square"/>
   </g>
   <g id="patch_3">
    <path d="M 57.6 307.584 
L 57.6 41.472 
" style="fill: none; stroke: #000000; stroke-width: 0.8; stroke-linejoin: miter; stroke-linecap: square"/>
   </g>
   <g id="patch_4">
    <path d="M 414.72 307.584 
L 414.72 41.472 
" style="fill: none; stroke: #000000; stroke-width: 0.8; stroke-linejoin: miter; stroke-linecap: square"/>
   </g>
   <g id="patch_5">
    <path d="M 57.6 307.584 
L 414.72 307.584 
" style="fill: none; stroke: #000000; stroke-width: 0.8; stroke-linejoin: miter; stroke-linecap: square"/>
   </g>
   <g id="patch_6">
    <path d="M 57.6 41.472 
L 414.72 41.472 
" style="fill: none; stroke: #000000; stroke-width: 0.8; stroke-linejoin: miter; stroke-linecap: square"/>
   </g>
   <g id="legend_1">
    <g id="patch_7">
     <path d="M 64.6 78.82825 
L 129.342187 78.82825 
Q 131.342187 78.82825 131.342187 76.82825 
L 131.342187 48.472 
Q 131.342187 46.472 129.342187 46.472 
L 64.6 46.472 
Q 62.6 46.472 62.6 48.472 
L 62.6 76.82825 
Q 62.6 78.82825 64.6 78.82825 
z
" style="fill: #ffffff; opacity: 0.8; stroke: #cccccc; stroke-linejoin: miter"/>
    </g>
    <g id="line2d_15">
     <path d="M 66.6 54.570437 
L 76.6 54.570437 
L 86.6 54.570437 
" style="fill: none; stroke: #1f77b4; stroke-width: 1.5; stroke-linecap: square"/>
    </g>
    <g id="text_15">
     <!-- qc -->
     <g transform="translate(94.6 58.070437) scale(0.1 -0.1)">
      <defs>
       <path id="DejaVuSans-71" d="M 947 1747 
Q 947 1113 1208 752 
Q 1469 391 1925 391 
Q 2381 391 2643 752 
Q 2906 1113 2906 1747 
Q 2906 2381 2643 2742 
Q 2381 3103 1925 3103 
Q 1469 3103 1208 2742 
Q 947 2381 947 1747 
z
M 2906 525 
Q 2725 213 2448 61 
Q 2172 -91 1784 -91 
Q 1150 -91 751 415 
Q 353 922 353 1747 
Q 353 2572 751 3078 
Q 1150 3584 1784 3584 
Q 2172 3584 2448 3432 
Q 2725 3281 2906 2969 
L 2906 3500 
L 3481 3500 
L 3481 -1331 
L 2906 -1331 
L 2906 525 
z
" transform="scale(0.015625)"/>
       <path id="DejaVuSans-63" d="M 3122 3366 
L 3122 2828 
Q 2878 2963 2633 3030 
Q 2388 3097 2138 3097 
Q 1578 3097 1268 2742 
Q 959 2388 959 1747 
Q 959 1106 1268 751 
Q 1578 397 2138 397 
Q 2388 397 2633 464 
Q 2878 531 3122 666 
L 3122 134 
Q 2881 22 2623 -34 
Q 2366 -91 2075 -91 
Q 1284 -91 818 406 
Q 353 903 353 1747 
Q 353 2603 823 3093 
Q 1294 3584 2113 3584 
Q 2378 3584 2631 3529 
Q 2884 3475 3122 3366 
z
" transform="scale(0.015625)"/>
      </defs>
      <use xlink:href="#DejaVuSans-71"/>
      <use xlink:href="#DejaVuSans-63" x="63.476562"/>
     </g>
    </g>
    <g id="line2d_16">
     <path d="M 66.6 69.248562 
L 76.6 69.248562 
L 86.6 69.248562 
" style="fill: none; stroke: #ff7f0e; stroke-width: 1.5; stroke-linecap: square"/>
    </g>
    <g id="text_16">
     <!-- Trotter -->
     <g transform="translate(94.6 72.748562) scale(0.1 -0.1)">
      <defs>
       <path id="DejaVuSans-54" d="M -19 4666 
L 3928 4666 
L 3928 4134 
L 2272 4134 
L 2272 0 
L 1638 0 
L 1638 4134 
L -19 4134 
L -19 4666 
z
" transform="scale(0.015625)"/>
       <path id="DejaVuSans-72" d="M 2631 2963 
Q 2534 3019 2420 3045 
Q 2306 3072 2169 3072 
Q 1681 3072 1420 2755 
Q 1159 2438 1159 1844 
L 1159 0 
L 581 0 
L 581 3500 
L 1159 3500 
L 1159 2956 
Q 1341 3275 1631 3429 
Q 1922 3584 2338 3584 
Q 2397 3584 2469 3576 
Q 2541 3569 2628 3553 
L 2631 2963 
z
" transform="scale(0.015625)"/>
       <path id="DejaVuSans-6f" d="M 1959 3097 
Q 1497 3097 1228 2736 
Q 959 2375 959 1747 
Q 959 1119 1226 758 
Q 1494 397 1959 397 
Q 2419 397 2687 759 
Q 2956 1122 2956 1747 
Q 2956 2369 2687 2733 
Q 2419 3097 1959 3097 
z
M 1959 3584 
Q 2709 3584 3137 3096 
Q 3566 2609 3566 1747 
Q 3566 888 3137 398 
Q 2709 -91 1959 -91 
Q 1206 -91 779 398 
Q 353 888 353 1747 
Q 353 2609 779 3096 
Q 1206 3584 1959 3584 
z
" transform="scale(0.015625)"/>
       <path id="DejaVuSans-65" d="M 3597 1894 
L 3597 1613 
L 953 1613 
Q 991 1019 1311 708 
Q 1631 397 2203 397 
Q 2534 397 2845 478 
Q 3156 559 3463 722 
L 3463 178 
Q 3153 47 2828 -22 
Q 2503 -91 2169 -91 
Q 1331 -91 842 396 
Q 353 884 353 1716 
Q 353 2575 817 3079 
Q 1281 3584 2069 3584 
Q 2775 3584 3186 3129 
Q 3597 2675 3597 1894 
z
M 3022 2063 
Q 3016 2534 2758 2815 
Q 2500 3097 2075 3097 
Q 1594 3097 1305 2825 
Q 1016 2553 972 2059 
L 3022 2063 
z
" transform="scale(0.015625)"/>
      </defs>
      <use xlink:href="#DejaVuSans-54"/>
      <use xlink:href="#DejaVuSans-72" x="46.333984"/>
      <use xlink:href="#DejaVuSans-6f" x="85.197266"/>
      <use xlink:href="#DejaVuSans-74" x="146.378906"/>
      <use xlink:href="#DejaVuSans-74" x="185.587891"/>
      <use xlink:href="#DejaVuSans-65" x="224.796875"/>
      <use xlink:href="#DejaVuSans-72" x="286.320312"/>
     </g>
    </g>
   </g>
  </g>
 </g>
 <defs>
  <clipPath id="pbbb621239a">
   <rect x="57.6" y="41.472" width="357.12" height="266.112"/>
  </clipPath>
 </defs>
</svg>
