<?xml version="1.0" encoding="utf-8" standalone="no"?>
<!DOCTYPE svg PUBLIC "-//W3C//DTD SVG 1.1//EN"
  "http://www.w3.org/Graphics/SVG/1.1/DTD/svg11.dtd">
<svg xmlns:xlink="http://www.w3.org/1999/xlink" width="460.8pt" height="345.6pt" viewBox="0 0 460.8 345.6" xmlns="http://www.w3.org/2000/svg" version="1.1">
 <metadata>
  <rdf:RDF xmlns:dc="http://purl.org/dc/elements/1.1/" xmlns:cc="http://creativecommons.org/ns#" xmlns:rdf="http://www.w3.org/1999/02/22-rdf-syntax-ns#">
   <cc:Work>
    <dc:type rdf:resource="http://purl.org/dc/dcmitype/StillImage"/>
    <dc:date>2024-05-31T10:56:55.928929</dc:date>
    <dc:format>image/svg+xml</dc:format>
    <dc:creator>
     <cc:Agent>
      <dc:title>Matplotlib v3.7.1, https://matplotlib.org/</dc:title>
     </cc:Agent>
    </dc:creator>
   </cc:Work>
  </rdf:RDF>
 </metadata>
 <defs>
  <style type="text/css">*{stroke-linejoin: round; stroke-linecap: butt}</style>
 </defs>
 <g id="figure_1">
  <g id="patch_1">
   <path d="M 0 345.6 
L 460.8 345.6 
L 460.8 0 
L 0 0 
z
" style="fill: #ffffff"/>
  </g>
  <g id="axes_1">
   <g id="patch_2">
    <path d="M 57.6 307.584 
L 414.72 307.584 
L 414.72 41.472 
L 57.6 41.472 
z
" style="fill: #ffffff"/>
   </g>
   <g id="matplotlib.axis_1">
    <g id="xtick_1">
     <g id="line2d_1">
      <defs>
       <path id="ma465f6de83" d="M 0 0 
L 0 3.5 
" style="stroke: #000000; stroke-width: 0.8"/>
      </defs>
      <g>
       <use xlink:href="#ma465f6de83" x="73.832727" y="307.584" style="stroke: #000000; stroke-width: 0.8"/>
      </g>
     </g>
     <g id="text_1">
      <!-- 0 -->
      <g transform="translate(70.651477 322.182437) scale(0.1 -0.1)">
       <defs>
        <path id="DejaVuSans-30" d="M 2034 4250 
Q 1547 4250 1301 3770 
Q 1056 3291 1056 2328 
Q 1056 1369 1301 889 
Q 1547 409 2034 409 
Q 2525 409 2770 889 
Q 3016 1369 3016 2328 
Q 3016 3291 2770 3770 
Q 2525 4250 2034 4250 
z
M 2034 4750 
Q 2819 4750 3233 4129 
Q 3647 3509 3647 2328 
Q 3647 1150 3233 529 
Q 2819 -91 2034 -91 
Q 1250 -91 836 529 
Q 422 1150 422 2328 
Q 422 3509 836 4129 
Q 1250 4750 2034 4750 
z
" transform="scale(0.015625)"/>
       </defs>
       <use xlink:href="#DejaVuSans-30"/>
      </g>
     </g>
    </g>
    <g id="xtick_2">
     <g id="line2d_2">
      <g>
       <use xlink:href="#ma465f6de83" x="137.303802" y="307.584" style="stroke: #000000; stroke-width: 0.8"/>
      </g>
     </g>
     <g id="text_2">
      <!-- 200 -->
      <g transform="translate(127.760052 322.182437) scale(0.1 -0.1)">
       <defs>
        <path id="DejaVuSans-32" d="M 1228 531 
L 3431 531 
L 3431 0 
L 469 0 
L 469 531 
Q 828 903 1448 1529 
Q 2069 2156 2228 2338 
Q 2531 2678 2651 2914 
Q 2772 3150 2772 3378 
Q 2772 3750 2511 3984 
Q 2250 4219 1831 4219 
Q 1534 4219 1204 4116 
Q 875 4013 500 3803 
L 500 4441 
Q 881 4594 1212 4672 
Q 1544 4750 1819 4750 
Q 2544 4750 2975 4387 
Q 3406 4025 3406 3419 
Q 3406 3131 3298 2873 
Q 3191 2616 2906 2266 
Q 2828 2175 2409 1742 
Q 1991 1309 1228 531 
z
" transform="scale(0.015625)"/>
       </defs>
       <use xlink:href="#DejaVuSans-32"/>
       <use xlink:href="#DejaVuSans-30" x="63.623047"/>
       <use xlink:href="#DejaVuSans-30" x="127.246094"/>
      </g>
     </g>
    </g>
    <g id="xtick_3">
     <g id="line2d_3">
      <g>
       <use xlink:href="#ma465f6de83" x="200.774876" y="307.584" style="stroke: #000000; stroke-width: 0.8"/>
      </g>
     </g>
     <g id="text_3">
      <!-- 400 -->
      <g transform="translate(191.231126 322.182437) scale(0.1 -0.1)">
       <defs>
        <path id="DejaVuSans-34" d="M 2419 4116 
L 825 1625 
L 2419 1625 
L 2419 4116 
z
M 2253 4666 
L 3047 4666 
L 3047 1625 
L 3713 1625 
L 3713 1100 
L 3047 1100 
L 3047 0 
L 2419 0 
L 2419 1100 
L 313 1100 
L 313 1709 
L 2253 4666 
z
" transform="scale(0.015625)"/>
       </defs>
       <use xlink:href="#DejaVuSans-34"/>
       <use xlink:href="#DejaVuSans-30" x="63.623047"/>
       <use xlink:href="#DejaVuSans-30" x="127.246094"/>
      </g>
     </g>
    </g>
    <g id="xtick_4">
     <g id="line2d_4">
      <g>
       <use xlink:href="#ma465f6de83" x="264.24595" y="307.584" style="stroke: #000000; stroke-width: 0.8"/>
      </g>
     </g>
     <g id="text_4">
      <!-- 600 -->
      <g transform="translate(254.7022 322.182437) scale(0.1 -0.1)">
       <defs>
        <path id="DejaVuSans-36" d="M 2113 2584 
Q 1688 2584 1439 2293 
Q 1191 2003 1191 1497 
Q 1191 994 1439 701 
Q 1688 409 2113 409 
Q 2538 409 2786 701 
Q 3034 994 3034 1497 
Q 3034 2003 2786 2293 
Q 2538 2584 2113 2584 
z
M 3366 4563 
L 3366 3988 
Q 3128 4100 2886 4159 
Q 2644 4219 2406 4219 
Q 1781 4219 1451 3797 
Q 1122 3375 1075 2522 
Q 1259 2794 1537 2939 
Q 1816 3084 2150 3084 
Q 2853 3084 3261 2657 
Q 3669 2231 3669 1497 
Q 3669 778 3244 343 
Q 2819 -91 2113 -91 
Q 1303 -91 875 529 
Q 447 1150 447 2328 
Q 447 3434 972 4092 
Q 1497 4750 2381 4750 
Q 2619 4750 2861 4703 
Q 3103 4656 3366 4563 
z
" transform="scale(0.015625)"/>
       </defs>
       <use xlink:href="#DejaVuSans-36"/>
       <use xlink:href="#DejaVuSans-30" x="63.623047"/>
       <use xlink:href="#DejaVuSans-30" x="127.246094"/>
      </g>
     </g>
    </g>
    <g id="xtick_5">
     <g id="line2d_5">
      <g>
       <use xlink:href="#ma465f6de83" x="327.717025" y="307.584" style="stroke: #000000; stroke-width: 0.8"/>
      </g>
     </g>
     <g id="text_5">
      <!-- 800 -->
      <g transform="translate(318.173275 322.182437) scale(0.1 -0.1)">
       <defs>
        <path id="DejaVuSans-38" d="M 2034 2216 
Q 1584 2216 1326 1975 
Q 1069 1734 1069 1313 
Q 1069 891 1326 650 
Q 1584 409 2034 409 
Q 2484 409 2743 651 
Q 3003 894 3003 1313 
Q 3003 1734 2745 1975 
Q 2488 2216 2034 2216 
z
M 1403 2484 
Q 997 2584 770 2862 
Q 544 3141 544 3541 
Q 544 4100 942 4425 
Q 1341 4750 2034 4750 
Q 2731 4750 3128 4425 
Q 3525 4100 3525 3541 
Q 3525 3141 3298 2862 
Q 3072 2584 2669 2484 
Q 3125 2378 3379 2068 
Q 3634 1759 3634 1313 
Q 3634 634 3220 271 
Q 2806 -91 2034 -91 
Q 1263 -91 848 271 
Q 434 634 434 1313 
Q 434 1759 690 2068 
Q 947 2378 1403 2484 
z
M 1172 3481 
Q 1172 3119 1398 2916 
Q 1625 2713 2034 2713 
Q 2441 2713 2670 2916 
Q 2900 3119 2900 3481 
Q 2900 3844 2670 4047 
Q 2441 4250 2034 4250 
Q 1625 4250 1398 4047 
Q 1172 3844 1172 3481 
z
" transform="scale(0.015625)"/>
       </defs>
       <use xlink:href="#DejaVuSans-38"/>
       <use xlink:href="#DejaVuSans-30" x="63.623047"/>
       <use xlink:href="#DejaVuSans-30" x="127.246094"/>
      </g>
     </g>
    </g>
    <g id="xtick_6">
     <g id="line2d_6">
      <g>
       <use xlink:href="#ma465f6de83" x="391.188099" y="307.584" style="stroke: #000000; stroke-width: 0.8"/>
      </g>
     </g>
     <g id="text_6">
      <!-- 1000 -->
      <g transform="translate(378.463099 322.182437) scale(0.1 -0.1)">
       <defs>
        <path id="DejaVuSans-31" d="M 794 531 
L 1825 531 
L 1825 4091 
L 703 3866 
L 703 4441 
L 1819 4666 
L 2450 4666 
L 2450 531 
L 3481 531 
L 3481 0 
L 794 0 
L 794 531 
z
" transform="scale(0.015625)"/>
       </defs>
       <use xlink:href="#DejaVuSans-31"/>
       <use xlink:href="#DejaVuSans-30" x="63.623047"/>
       <use xlink:href="#DejaVuSans-30" x="127.246094"/>
       <use xlink:href="#DejaVuSans-30" x="190.869141"/>
      </g>
     </g>
    </g>
    <g id="text_7">
     <!-- n -->
     <g transform="translate(232.99125 335.860562) scale(0.1 -0.1)">
      <defs>
       <path id="DejaVuSans-6e" d="M 3513 2113 
L 3513 0 
L 2938 0 
L 2938 2094 
Q 2938 2591 2744 2837 
Q 2550 3084 2163 3084 
Q 1697 3084 1428 2787 
Q 1159 2491 1159 1978 
L 1159 0 
L 581 0 
L 581 3500 
L 1159 3500 
L 1159 2956 
Q 1366 3272 1645 3428 
Q 1925 3584 2291 3584 
Q 2894 3584 3203 3211 
Q 3513 2838 3513 2113 
z
" transform="scale(0.015625)"/>
      </defs>
      <use xlink:href="#DejaVuSans-6e"/>
     </g>
    </g>
   </g>
   <g id="matplotlib.axis_2">
    <g id="ytick_1">
     <g id="line2d_7">
      <defs>
       <path id="ma764ce5a55" d="M 0 0 
L -3.5 0 
" style="stroke: #000000; stroke-width: 0.8"/>
      </defs>
      <g>
       <use xlink:href="#ma764ce5a55" x="57.6" y="285.280582" style="stroke: #000000; stroke-width: 0.8"/>
      </g>
     </g>
     <g id="text_8">
      <!-- −0.6 -->
      <g transform="translate(26.317187 289.0798) scale(0.1 -0.1)">
       <defs>
        <path id="DejaVuSans-2212" d="M 678 2272 
L 4684 2272 
L 4684 1741 
L 678 1741 
L 678 2272 
z
" transform="scale(0.015625)"/>
        <path id="DejaVuSans-2e" d="M 684 794 
L 1344 794 
L 1344 0 
L 684 0 
L 684 794 
z
" transform="scale(0.015625)"/>
       </defs>
       <use xlink:href="#DejaVuSans-2212"/>
       <use xlink:href="#DejaVuSans-30" x="83.789062"/>
       <use xlink:href="#DejaVuSans-2e" x="147.412109"/>
       <use xlink:href="#DejaVuSans-36" x="179.199219"/>
      </g>
     </g>
    </g>
    <g id="ytick_2">
     <g id="line2d_8">
      <g>
       <use xlink:href="#ma764ce5a55" x="57.6" y="249.150151" style="stroke: #000000; stroke-width: 0.8"/>
      </g>
     </g>
     <g id="text_9">
      <!-- −0.4 -->
      <g transform="translate(26.317187 252.94937) scale(0.1 -0.1)">
       <use xlink:href="#DejaVuSans-2212"/>
       <use xlink:href="#DejaVuSans-30" x="83.789062"/>
       <use xlink:href="#DejaVuSans-2e" x="147.412109"/>
       <use xlink:href="#DejaVuSans-34" x="179.199219"/>
      </g>
     </g>
    </g>
    <g id="ytick_3">
     <g id="line2d_9">
      <g>
       <use xlink:href="#ma764ce5a55" x="57.6" y="213.01972" style="stroke: #000000; stroke-width: 0.8"/>
      </g>
     </g>
     <g id="text_10">
      <!-- −0.2 -->
      <g transform="translate(26.317187 216.818939) scale(0.1 -0.1)">
       <use xlink:href="#DejaVuSans-2212"/>
       <use xlink:href="#DejaVuSans-30" x="83.789062"/>
       <use xlink:href="#DejaVuSans-2e" x="147.412109"/>
       <use xlink:href="#DejaVuSans-32" x="179.199219"/>
      </g>
     </g>
    </g>
    <g id="ytick_4">
     <g id="line2d_10">
      <g>
       <use xlink:href="#ma764ce5a55" x="57.6" y="176.889289" style="stroke: #000000; stroke-width: 0.8"/>
      </g>
     </g>
     <g id="text_11">
      <!-- 0.0 -->
      <g transform="translate(34.696875 180.688508) scale(0.1 -0.1)">
       <use xlink:href="#DejaVuSans-30"/>
       <use xlink:href="#DejaVuSans-2e" x="63.623047"/>
       <use xlink:href="#DejaVuSans-30" x="95.410156"/>
      </g>
     </g>
    </g>
    <g id="ytick_5">
     <g id="line2d_11">
      <g>
       <use xlink:href="#ma764ce5a55" x="57.6" y="140.758859" style="stroke: #000000; stroke-width: 0.8"/>
      </g>
     </g>
     <g id="text_12">
      <!-- 0.2 -->
      <g transform="translate(34.696875 144.558077) scale(0.1 -0.1)">
       <use xlink:href="#DejaVuSans-30"/>
       <use xlink:href="#DejaVuSans-2e" x="63.623047"/>
       <use xlink:href="#DejaVuSans-32" x="95.410156"/>
      </g>
     </g>
    </g>
    <g id="ytick_6">
     <g id="line2d_12">
      <g>
       <use xlink:href="#ma764ce5a55" x="57.6" y="104.628428" style="stroke: #000000; stroke-width: 0.8"/>
      </g>
     </g>
     <g id="text_13">
      <!-- 0.4 -->
      <g transform="translate(34.696875 108.427647) scale(0.1 -0.1)">
       <use xlink:href="#DejaVuSans-30"/>
       <use xlink:href="#DejaVuSans-2e" x="63.623047"/>
       <use xlink:href="#DejaVuSans-34" x="95.410156"/>
      </g>
     </g>
    </g>
    <g id="ytick_7">
     <g id="line2d_13">
      <g>
       <use xlink:href="#ma764ce5a55" x="57.6" y="68.497997" style="stroke: #000000; stroke-width: 0.8"/>
      </g>
     </g>
     <g id="text_14">
      <!-- 0.6 -->
      <g transform="translate(34.696875 72.297216) scale(0.1 -0.1)">
       <use xlink:href="#DejaVuSans-30"/>
       <use xlink:href="#DejaVuSans-2e" x="63.623047"/>
       <use xlink:href="#DejaVuSans-36" x="95.410156"/>
      </g>
     </g>
    </g>
    <g id="text_15">
     <!-- E*t -->
     <g transform="translate(20.2375 182.147531) rotate(-90) scale(0.1 -0.1)">
      <defs>
       <path id="DejaVuSans-45" d="M 628 4666 
L 3578 4666 
L 3578 4134 
L 1259 4134 
L 1259 2753 
L 3481 2753 
L 3481 2222 
L 1259 2222 
L 1259 531 
L 3634 531 
L 3634 0 
L 628 0 
L 628 4666 
z
" transform="scale(0.015625)"/>
       <path id="DejaVuSans-2a" d="M 3009 3897 
L 1888 3291 
L 3009 2681 
L 2828 2375 
L 1778 3009 
L 1778 1831 
L 1422 1831 
L 1422 3009 
L 372 2375 
L 191 2681 
L 1313 3291 
L 191 3897 
L 372 4206 
L 1422 3572 
L 1422 4750 
L 1778 4750 
L 1778 3572 
L 2828 4206 
L 3009 3897 
z
" transform="scale(0.015625)"/>
       <path id="DejaVuSans-74" d="M 1172 4494 
L 1172 3500 
L 2356 3500 
L 2356 3053 
L 1172 3053 
L 1172 1153 
Q 1172 725 1289 603 
Q 1406 481 1766 481 
L 2356 481 
L 2356 0 
L 1766 0 
Q 1100 0 847 248 
Q 594 497 594 1153 
L 594 3053 
L 172 3053 
L 172 3500 
L 594 3500 
L 594 4494 
L 1172 4494 
z
" transform="scale(0.015625)"/>
      </defs>
      <use xlink:href="#DejaVuSans-45"/>
      <use xlink:href="#DejaVuSans-2a" x="63.183594"/>
      <use xlink:href="#DejaVuSans-74" x="113.183594"/>
     </g>
    </g>
   </g>
   <g id="line2d_14">
    <path d="M 73.832727 295.488 
L 74.150083 287.362399 
L 74.467438 286.869543 
L 74.784793 286.152519 
L 75.102149 282.790349 
L 75.419504 281.56717 
L 75.73686 279.088691 
L 76.054215 278.42106 
L 76.37157 278.13088 
L 76.688926 277.067856 
L 77.006281 276.691735 
L 78.275702 271.51603 
L 78.910413 270.426236 
L 79.862479 268.418885 
L 80.49719 267.585318 
L 81.131901 266.086143 
L 81.766612 264.805025 
L 82.083967 264.507344 
L 82.718678 263.108378 
L 84.305455 261.19856 
L 84.62281 261.149198 
L 85.257521 260.068803 
L 86.209587 258.900477 
L 86.526942 258.16388 
L 86.844298 257.872479 
L 87.161653 257.208982 
L 91.604628 252.181452 
L 93.191405 250.928574 
L 93.50876 250.429764 
L 94.143471 249.908815 
L 94.778182 249.473955 
L 95.412893 249.09915 
L 97.63438 246.727106 
L 98.269091 246.436719 
L 98.903802 245.830174 
L 99.221157 245.647293 
L 100.173223 244.575186 
L 100.490579 244.319975 
L 101.125289 244.057866 
L 101.442645 243.584674 
L 102.394711 243.003613 
L 103.346777 242.396343 
L 103.981488 241.630971 
L 104.298843 241.46495 
L 104.616198 241.159544 
L 105.250909 240.802988 
L 105.88562 240.328767 
L 106.202975 240.20093 
L 106.837686 239.635745 
L 107.155041 239.44127 
L 107.472397 239.096752 
L 108.424463 238.581413 
L 108.741818 238.415795 
L 109.059174 238.060663 
L 109.376529 237.982092 
L 110.01124 237.416572 
L 110.963306 236.679137 
L 113.502149 234.798978 
L 113.819504 234.672172 
L 114.13686 234.331873 
L 114.454215 234.198856 
L 115.088926 233.690673 
L 115.406281 233.55326 
L 115.723636 233.140213 
L 116.358347 232.85875 
L 116.993058 232.365178 
L 117.627769 232.06699 
L 118.262479 231.579372 
L 118.89719 231.212236 
L 119.214545 231.078184 
L 119.531901 230.725698 
L 119.849256 230.59892 
L 120.483967 230.165914 
L 120.801322 230.047781 
L 122.070744 229.113182 
L 122.388099 229.084204 
L 123.340165 228.42635 
L 123.657521 228.383771 
L 125.561653 227.239879 
L 126.196364 226.720693 
L 126.831074 226.438218 
L 129.687273 224.732847 
L 130.004628 224.459113 
L 130.321983 224.41497 
L 132.543471 223.2051 
L 133.178182 222.860896 
L 134.130248 222.218997 
L 134.764959 221.858064 
L 136.03438 221.217923 
L 136.351736 220.964531 
L 136.986446 220.771814 
L 137.303802 220.426546 
L 140.477355 218.903689 
L 141.112066 218.614102 
L 141.746777 218.241249 
L 142.064132 218.103034 
L 142.381488 217.808835 
L 143.333554 217.477087 
L 143.968264 217.114467 
L 144.28562 217.04415 
L 144.920331 216.712925 
L 145.872397 216.202706 
L 146.189752 215.925919 
L 146.824463 215.68571 
L 148.728595 214.673024 
L 149.04595 214.645629 
L 149.680661 214.135582 
L 149.998017 213.93024 
L 150.950083 213.631644 
L 151.267438 213.54567 
L 151.584793 213.254703 
L 152.219504 213.078177 
L 154.440992 211.693954 
L 156.662479 210.63368 
L 157.614545 210.108922 
L 158.249256 209.86384 
L 159.201322 209.36344 
L 161.42281 208.306806 
L 161.740165 207.95249 
L 162.692231 207.594179 
L 163.009587 207.349939 
L 163.326942 207.322159 
L 163.961653 206.956496 
L 164.913719 206.651211 
L 165.231074 206.442276 
L 165.865785 206.210271 
L 168.404628 204.974932 
L 169.039339 204.52331 
L 170.626116 203.567057 
L 171.260826 203.344834 
L 173.482314 202.324036 
L 173.799669 202.054707 
L 174.43438 201.884438 
L 174.751736 201.636283 
L 175.386446 201.470871 
L 176.021157 201.037542 
L 176.655868 200.830755 
L 176.973223 200.594692 
L 177.290579 200.53302 
L 177.925289 200.251169 
L 180.146777 199.246148 
L 180.781488 199.028264 
L 182.050909 198.428384 
L 182.368264 198.307881 
L 182.68562 198.064731 
L 183.002975 198.012842 
L 183.955041 197.479006 
L 184.272397 197.460971 
L 185.541818 196.798108 
L 185.859174 196.768254 
L 189.032727 195.069549 
L 189.667438 194.835334 
L 190.302149 194.573984 
L 192.206281 193.665283 
L 192.840992 193.451675 
L 193.475702 193.190695 
L 194.427769 192.780314 
L 194.745124 192.484907 
L 195.062479 192.430607 
L 195.69719 192.177022 
L 196.966612 191.617634 
L 199.505455 190.482913 
L 200.140165 190.194276 
L 200.457521 190.110016 
L 200.774876 189.868505 
L 201.409587 189.737849 
L 201.726942 189.396162 
L 204.265785 188.371051 
L 204.900496 188.213991 
L 205.535207 187.939763 
L 206.487273 187.548306 
L 207.121983 187.168652 
L 208.07405 186.82034 
L 210.295537 185.909286 
L 211.247603 185.259451 
L 211.882314 184.988387 
L 212.199669 184.804046 
L 212.517025 184.752287 
L 213.151736 184.342624 
L 213.786446 184.142062 
L 219.816198 181.579813 
L 220.133554 181.38424 
L 220.450909 181.325073 
L 221.08562 181.028702 
L 221.720331 180.808404 
L 223.941818 179.985538 
L 224.576529 179.588562 
L 227.115372 178.616992 
L 227.432727 178.245089 
L 228.067438 178.073391 
L 229.654215 177.347188 
L 229.97157 177.111612 
L 230.606281 176.932547 
L 231.558347 176.468112 
L 232.193058 176.195439 
L 233.145124 175.913321 
L 234.09719 175.274903 
L 236.001322 174.626809 
L 236.636033 174.235747 
L 237.270744 173.920922 
L 238.22281 173.563617 
L 239.174876 173.113282 
L 239.492231 173.072496 
L 239.809587 172.884832 
L 240.126942 172.835082 
L 240.444298 172.596424 
L 241.079008 172.476242 
L 242.031074 172.15178 
L 242.34843 171.895295 
L 242.98314 171.623331 
L 243.300496 171.446379 
L 243.617851 171.401126 
L 244.569917 170.976313 
L 245.521983 170.670283 
L 247.10876 169.833039 
L 248.060826 169.543993 
L 249.012893 169.068707 
L 249.647603 168.878732 
L 250.599669 168.567872 
L 250.917025 168.349518 
L 251.23438 168.304118 
L 251.551736 168.125812 
L 252.186446 167.96486 
L 254.090579 167.115146 
L 254.725289 166.824519 
L 255.36 166.483251 
L 256.312066 166.241609 
L 257.264132 165.763023 
L 258.850909 165.215991 
L 260.755041 164.364946 
L 261.072397 164.316687 
L 262.024463 163.794543 
L 262.659174 163.638132 
L 263.61124 163.133687 
L 264.24595 162.90108 
L 267.102149 161.71568 
L 267.419504 161.689701 
L 268.054215 161.322918 
L 269.323636 160.838381 
L 270.593058 160.308385 
L 270.910413 160.227201 
L 271.227769 159.945524 
L 271.862479 159.751625 
L 273.131901 159.216688 
L 273.449256 159.131 
L 273.766612 158.858171 
L 276.940165 157.495332 
L 278.844298 156.584722 
L 279.479008 156.354965 
L 280.431074 156.003554 
L 281.38314 155.617677 
L 285.50876 153.792956 
L 285.826116 153.720017 
L 286.143471 153.442078 
L 287.095537 153.218298 
L 288.682314 152.527586 
L 289.317025 152.101932 
L 291.221157 151.432384 
L 291.855868 151.046208 
L 292.807934 150.621576 
L 294.077355 150.067673 
L 295.981488 149.309094 
L 296.298843 149.287195 
L 296.616198 149.003797 
L 298.520331 148.22196 
L 299.155041 147.988147 
L 299.789752 147.673071 
L 300.741818 147.16899 
L 301.376529 147.006038 
L 302.01124 146.743989 
L 302.328595 146.453536 
L 302.64595 146.375163 
L 302.963306 146.153319 
L 303.915372 145.939317 
L 304.550083 145.646857 
L 305.184793 145.150606 
L 306.454215 144.673248 
L 308.358347 143.637709 
L 308.675702 143.607688 
L 309.310413 143.221928 
L 310.262479 142.918455 
L 310.89719 142.633348 
L 315.974876 140.393612 
L 316.292231 140.206331 
L 316.609587 140.148874 
L 317.244298 139.767541 
L 318.196364 139.335527 
L 320.417851 138.203428 
L 321.052562 137.93126 
L 321.369917 137.716831 
L 322.004628 137.480977 
L 322.321983 137.279348 
L 322.639339 137.226574 
L 323.591405 136.725256 
L 326.130248 135.417017 
L 326.447603 135.325344 
L 326.764959 135.009901 
L 329.303802 133.707206 
L 329.938512 133.4341 
L 330.573223 133.13326 
L 331.207934 132.842009 
L 333.746777 131.618329 
L 334.064132 131.395623 
L 334.698843 131.127806 
L 335.333554 130.812335 
L 336.920331 130.158559 
L 337.555041 129.917035 
L 337.872397 129.589984 
L 338.189752 129.482976 
L 338.507107 129.2244 
L 339.776529 128.680037 
L 341.04595 128.054012 
L 341.363306 127.795862 
L 341.680661 127.705482 
L 341.998017 127.429365 
L 342.632727 127.145579 
L 343.584793 126.647664 
L 343.902149 126.580079 
L 346.440992 125.138872 
L 346.758347 125.011326 
L 348.027769 123.921445 
L 349.29719 123.391501 
L 349.931901 123.006811 
L 350.566612 122.710877 
L 350.883967 122.671353 
L 351.201322 122.326217 
L 352.470744 121.586415 
L 352.788099 121.274529 
L 353.42281 121.013785 
L 354.057521 120.435855 
L 354.374876 120.296129 
L 355.009587 119.852938 
L 355.326942 119.682711 
L 355.644298 119.314039 
L 356.279008 118.963673 
L 356.596364 118.687572 
L 357.231074 118.422696 
L 358.500496 117.526016 
L 358.817851 117.176375 
L 359.135207 117.086243 
L 360.087273 116.434246 
L 360.721983 116.083476 
L 361.039339 115.875948 
L 361.356694 115.507523 
L 361.67405 115.483714 
L 362.626116 114.666509 
L 362.943471 114.629134 
L 363.578182 113.970372 
L 365.482314 112.484523 
L 365.799669 112.432661 
L 366.117025 112.103809 
L 366.43438 112.002987 
L 367.069091 111.275833 
L 368.021157 110.751721 
L 368.338512 110.703464 
L 369.290579 110.082227 
L 369.607934 110.014829 
L 371.194711 108.611033 
L 371.829421 108.331156 
L 372.781488 107.430431 
L 374.050909 106.68004 
L 375.002975 105.574869 
L 376.589752 104.017699 
L 376.907107 103.912213 
L 377.859174 103.14191 
L 379.128595 101.51782 
L 379.44595 101.370865 
L 381.032727 99.775767 
L 381.350083 99.526764 
L 381.667438 99.00475 
L 381.984793 98.740311 
L 382.302149 98.092605 
L 383.254215 97.502767 
L 383.57157 97.159608 
L 383.888926 96.991652 
L 384.523636 95.505033 
L 384.840992 95.093989 
L 385.158347 94.91285 
L 385.475702 94.482228 
L 385.793058 93.813917 
L 386.110413 93.476451 
L 386.427769 92.723253 
L 386.745124 92.471729 
L 387.379835 91.458071 
L 388.014545 90.661001 
L 388.331901 90.461578 
L 389.283967 88.682424 
L 389.601322 88.412721 
L 389.918678 87.694832 
L 390.553388 86.741241 
L 390.870744 85.818329 
L 391.505455 84.990007 
L 391.82281 84.130241 
L 392.140165 83.844081 
L 392.774876 82.707871 
L 393.409587 80.784707 
L 393.726942 80.04549 
L 394.044298 79.681294 
L 394.361653 78.636506 
L 394.679008 78.067791 
L 394.996364 76.650652 
L 395.631074 75.665363 
L 395.94843 71.554607 
L 396.58314 70.703208 
L 397.217851 66.132421 
L 397.535207 65.31628 
L 397.852562 61.057332 
L 398.169917 58.37272 
L 398.487273 53.568 
L 398.487273 53.568 
" clip-path="url(#p852f101ea6)" style="fill: none; stroke: #1f77b4; stroke-width: 1.5; stroke-linecap: square"/>
   </g>
   <g id="line2d_15">
    <path d="M 73.832727 228.375153 
L 74.150083 222.955588 
L 74.467438 222.425078 
L 74.784793 220.885483 
L 75.102149 218.487519 
L 75.419504 217.536023 
L 76.054215 216.426556 
L 76.37157 215.46592 
L 76.688926 215.465919 
L 77.006281 214.988929 
L 77.323636 213.418788 
L 77.640992 213.067954 
L 78.275702 212.11646 
L 78.593058 212.116458 
L 78.910413 211.585949 
L 79.227769 211.567326 
L 80.179835 210.046355 
L 80.49719 210.046355 
L 81.131901 209.569364 
L 81.449256 209.421791 
L 83.036033 207.714754 
L 83.670744 207.512569 
L 83.988099 207.102287 
L 84.305455 207.065556 
L 84.62281 206.696895 
L 84.940165 206.696893 
L 85.257521 206.463792 
L 85.574876 206.435282 
L 85.892231 206.166385 
L 86.526942 206.027884 
L 87.161653 205.587428 
L 88.113719 204.947748 
L 88.431074 204.626791 
L 88.74843 204.626791 
L 89.065785 204.346608 
L 90.017851 204.067577 
L 90.335207 204.002228 
L 90.969917 203.347435 
L 91.921983 203.257319 
L 93.50876 202.295188 
L 94.460826 201.991327 
L 95.095537 201.721474 
L 96.047603 201.597531 
L 96.364959 201.27733 
L 96.682314 201.277329 
L 97.317025 201.044229 
L 97.63438 201.015716 
L 97.951736 200.74682 
L 98.903802 200.60545 
L 99.221157 200.423657 
L 100.490579 200.167864 
L 101.125289 199.877848 
L 101.76 199.573277 
L 102.077355 199.528185 
L 102.394711 199.212671 
L 103.029421 199.207227 
L 103.346777 198.927043 
L 103.981488 198.730235 
L 104.933554 198.582664 
L 105.250909 198.209945 
L 107.472397 197.837756 
L 107.789752 197.637181 
L 108.741818 197.477295 
L 109.693884 197.177945 
L 110.328595 197.143978 
L 110.64595 196.875623 
L 114.13686 196.177968 
L 114.454215 195.874968 
L 115.088926 195.857764 
L 115.723636 195.624665 
L 116.358347 195.584281 
L 116.675702 195.327256 
L 117.627769 195.185886 
L 117.945124 195.004094 
L 120.483967 194.806705 
L 121.436033 194.541803 
L 123.340165 194.109895 
L 123.657521 194.10862 
L 123.974876 193.793108 
L 124.926942 193.741091 
L 126.513719 193.390173 
L 127.465785 193.288706 
L 128.100496 193.163101 
L 128.417851 192.79038 
L 132.543471 192.057731 
L 133.495537 191.795294 
L 134.447603 191.724414 
L 134.764959 191.456058 
L 136.669091 191.152195 
L 136.986446 191.027359 
L 139.525289 190.882346 
L 140.794711 190.758404 
L 141.112066 190.500797 
L 143.968264 190.131163 
L 144.28562 189.907692 
L 145.237686 189.766322 
L 147.459174 189.473349 
L 149.998017 189.122239 
L 151.267438 188.880017 
L 151.584793 188.876371 
L 152.219504 188.690329 
L 152.854215 188.582399 
L 153.806281 188.368099 
L 154.758347 188.321526 
L 155.710413 188.097484 
L 156.345124 187.978227 
L 157.29719 187.891107 
L 158.883967 187.743537 
L 159.201322 187.425162 
L 160.470744 187.313201 
L 163.644298 186.950378 
L 163.961653 186.800792 
L 165.231074 186.666096 
L 166.500496 186.485074 
L 167.452562 186.338818 
L 168.087273 186.304849 
L 168.404628 186.036493 
L 170.30876 185.822976 
L 170.626116 185.607792 
L 173.164959 185.462782 
L 174.751736 185.308015 
L 175.386446 185.110878 
L 176.655868 185.018635 
L 176.973223 184.85991 
L 178.242645 184.745153 
L 179.194711 184.663312 
L 179.512066 184.488127 
L 181.098843 184.346758 
L 183.637686 184.001551 
L 184.589752 183.909171 
L 186.493884 183.702674 
L 187.44595 183.593982 
L 187.763306 183.465183 
L 188.398017 183.456807 
L 189.032727 183.270764 
L 189.984793 183.024344 
L 196.966612 182.323974 
L 197.283967 182.005595 
L 197.918678 181.893635 
L 201.726942 181.530811 
L 202.044298 181.384993 
L 203.631074 181.261162 
L 206.169917 181.046033 
L 208.07405 180.553413 
L 209.026116 180.453626 
L 209.343471 180.414756 
L 209.660826 180.188227 
L 212.83438 180.043218 
L 214.421157 179.888448 
L 215.055868 179.702028 
L 216.96 179.544849 
L 217.594711 179.437281 
L 219.498843 179.156431 
L 220.133554 179.059158 
L 221.402975 178.945077 
L 222.355041 178.870493 
L 222.989752 178.734476 
L 223.624463 178.647572 
L 225.21124 178.531295 
L 225.84595 178.428973 
L 226.480661 178.354543 
L 228.067438 178.045618 
L 229.019504 177.978347 
L 229.654215 177.873666 
L 230.288926 177.743266 
L 231.240992 177.574654 
L 232.510413 177.482398 
L 233.462479 177.409395 
L 234.414545 177.292446 
L 237.905455 176.90441 
L 238.22281 176.586028 
L 238.857521 176.47407 
L 242.34843 176.120679 
L 242.665785 175.980737 
L 244.887273 175.799038 
L 245.521983 175.714923 
L 249.330248 175.264574 
L 249.964959 175.133846 
L 250.599669 175.081767 
L 252.186446 174.764308 
L 254.725289 174.6217 
L 255.677355 174.468881 
L 255.994711 174.318699 
L 258.533554 174.155011 
L 258.850909 174.020783 
L 259.802975 173.906024 
L 262.659174 173.517916 
L 263.61124 173.450928 
L 264.24595 173.240397 
L 266.467438 173.047865 
L 268.054215 172.85964 
L 268.688926 172.72372 
L 270.593058 172.431634 
L 270.910413 172.185212 
L 275.988099 171.636438 
L 276.62281 171.545012 
L 278.209587 171.45562 
L 279.479008 171.025031 
L 281.38314 170.90108 
L 283.287273 170.534644 
L 284.239339 170.422032 
L 287.730248 170.046155 
L 288.364959 169.949676 
L 289.63438 169.740604 
L 290.903802 169.525025 
L 291.221157 169.346155 
L 293.442645 169.202134 
L 294.077355 169.039084 
L 294.394711 168.886647 
L 297.568264 168.561576 
L 299.789752 168.14868 
L 308.993058 166.844666 
L 310.262479 166.639716 
L 312.166612 166.382867 
L 313.118678 166.216872 
L 313.753388 166.125446 
L 315.02281 165.919716 
L 315.657521 165.605465 
L 317.244298 165.481517 
L 317.879008 165.410478 
L 318.196364 165.38941 
L 318.513719 165.141602 
L 320.735207 164.926353 
L 321.369917 164.806817 
L 321.687273 164.801935 
L 322.321983 164.637253 
L 323.90876 164.510573 
L 326.130248 164.088699 
L 326.447603 163.92659 
L 327.717025 163.794378 
L 328.03438 163.782569 
L 328.669091 163.547218 
L 329.303802 163.443328 
L 330.890579 163.3373 
L 331.525289 163.066895 
L 332.477355 162.985045 
L 332.794711 162.800469 
L 334.698843 162.674808 
L 337.237686 162.183531 
L 337.555041 161.942022 
L 339.141818 161.719653 
L 339.776529 161.592505 
L 340.093884 161.381632 
L 341.363306 161.220151 
L 341.680661 161.075378 
L 342.950083 160.960355 
L 343.902149 160.808986 
L 345.488926 160.645386 
L 346.123636 160.500149 
L 346.440992 160.185898 
L 347.075702 160.182449 
L 347.710413 159.990913 
L 348.027769 159.969841 
L 348.345124 159.706725 
L 349.29719 159.506788 
L 349.931901 159.400476 
L 350.566612 159.382365 
L 351.201322 159.12031 
L 352.470744 159.00588 
L 356.913719 158.012287 
L 357.54843 157.924428 
L 358.18314 157.642666 
L 358.500496 157.594006 
L 359.135207 157.259225 
L 360.087273 157.138087 
L 360.404628 156.846623 
L 361.039339 156.789172 
L 361.356694 156.522462 
L 364.212893 155.926516 
L 365.164959 155.655817 
L 365.799669 155.543737 
L 366.751736 155.37774 
L 367.386446 155.286315 
L 367.703802 155.225818 
L 368.021157 154.912356 
L 368.338512 154.766332 
L 368.655868 154.763315 
L 369.607934 154.249986 
L 372.464132 153.50766 
L 373.098843 153.087459 
L 374.368264 152.604196 
L 375.320331 152.504857 
L 375.637686 152.223094 
L 376.272397 152.044348 
L 377.541818 151.766915 
L 377.859174 151.427055 
L 378.493884 151.369607 
L 378.81124 151.010983 
L 379.128595 151.005958 
L 379.763306 150.506951 
L 380.398017 150.227957 
L 381.350083 149.969855 
L 381.984793 149.866749 
L 382.302149 149.806251 
L 383.254215 148.867592 
L 383.57157 148.861443 
L 384.840992 148.178079 
L 385.475702 148.088096 
L 386.110413 147.829993 
L 386.745124 147.30015 
L 387.379835 147.144505 
L 387.69719 147.085287 
L 388.014545 146.530318 
L 388.331901 146.347349 
L 388.649256 146.007488 
L 388.966612 145.955943 
L 389.283967 145.591417 
L 389.601322 145.586394 
L 390.553388 144.550289 
L 390.870744 144.53861 
L 391.188099 144.137898 
L 391.82281 144.07323 
L 392.140165 143.141774 
L 392.457521 142.740445 
L 393.409587 142.105284 
L 393.726942 141.72494 
L 394.361653 140.58792 
L 394.679008 140.171851 
L 394.996364 140.077532 
L 395.631074 139.481028 
L 396.58314 137.32088 
L 396.900496 137.129815 
L 397.217851 134.284339 
L 397.535207 134.06146 
L 397.852562 133.239738 
L 398.487273 128.864766 
L 398.487273 128.864766 
" clip-path="url(#p852f101ea6)" style="fill: none; stroke: #ff7f0e; stroke-width: 1.5; stroke-linecap: square"/>
   </g>
   <g id="patch_3">
    <path d="M 57.6 307.584 
L 57.6 41.472 
" style="fill: none; stroke: #000000; stroke-width: 0.8; stroke-linejoin: miter; stroke-linecap: square"/>
   </g>
   <g id="patch_4">
    <path d="M 414.72 307.584 
L 414.72 41.472 
" style="fill: none; stroke: #000000; stroke-width: 0.8; stroke-linejoin: miter; stroke-linecap: square"/>
   </g>
   <g id="patch_5">
    <path d="M 57.6 307.584 
L 414.72 307.584 
" style="fill: none; stroke: #000000; stroke-width: 0.8; stroke-linejoin: miter; stroke-linecap: square"/>
   </g>
   <g id="patch_6">
    <path d="M 57.6 41.472 
L 414.72 41.472 
" style="fill: none; stroke: #000000; stroke-width: 0.8; stroke-linejoin: miter; stroke-linecap: square"/>
   </g>
   <g id="legend_1">
    <g id="patch_7">
     <path d="M 64.6 78.82825 
L 129.342187 78.82825 
Q 131.342187 78.82825 131.342187 76.82825 
L 131.342187 48.472 
Q 131.342187 46.472 129.342187 46.472 
L 64.6 46.472 
Q 62.6 46.472 62.6 48.472 
L 62.6 76.82825 
Q 62.6 78.82825 64.6 78.82825 
z
" style="fill: #ffffff; opacity: 0.8; stroke: #cccccc; stroke-linejoin: miter"/>
    </g>
    <g id="line2d_16">
     <path d="M 66.6 54.570437 
L 76.6 54.570437 
L 86.6 54.570437 
" style="fill: none; stroke: #1f77b4; stroke-width: 1.5; stroke-linecap: square"/>
    </g>
    <g id="text_16">
     <!-- qc -->
     <g transform="translate(94.6 58.070437) scale(0.1 -0.1)">
      <defs>
       <path id="DejaVuSans-71" d="M 947 1747 
Q 947 1113 1208 752 
Q 1469 391 1925 391 
Q 2381 391 2643 752 
Q 2906 1113 2906 1747 
Q 2906 2381 2643 2742 
Q 2381 3103 1925 3103 
Q 1469 3103 1208 2742 
Q 947 2381 947 1747 
z
M 2906 525 
Q 2725 213 2448 61 
Q 2172 -91 1784 -91 
Q 1150 -91 751 415 
Q 353 922 353 1747 
Q 353 2572 751 3078 
Q 1150 3584 1784 3584 
Q 2172 3584 2448 3432 
Q 2725 3281 2906 2969 
L 2906 3500 
L 3481 3500 
L 3481 -1331 
L 2906 -1331 
L 2906 525 
z
" transform="scale(0.015625)"/>
       <path id="DejaVuSans-63" d="M 3122 3366 
L 3122 2828 
Q 2878 2963 2633 3030 
Q 2388 3097 2138 3097 
Q 1578 3097 1268 2742 
Q 959 2388 959 1747 
Q 959 1106 1268 751 
Q 1578 397 2138 397 
Q 2388 397 2633 464 
Q 2878 531 3122 666 
L 3122 134 
Q 2881 22 2623 -34 
Q 2366 -91 2075 -91 
Q 1284 -91 818 406 
Q 353 903 353 1747 
Q 353 2603 823 3093 
Q 1294 3584 2113 3584 
Q 2378 3584 2631 3529 
Q 2884 3475 3122 3366 
z
" transform="scale(0.015625)"/>
      </defs>
      <use xlink:href="#DejaVuSans-71"/>
      <use xlink:href="#DejaVuSans-63" x="63.476562"/>
     </g>
    </g>
    <g id="line2d_17">
     <path d="M 66.6 69.248562 
L 76.6 69.248562 
L 86.6 69.248562 
" style="fill: none; stroke: #ff7f0e; stroke-width: 1.5; stroke-linecap: square"/>
    </g>
    <g id="text_17">
     <!-- Trotter -->
     <g transform="translate(94.6 72.748562) scale(0.1 -0.1)">
      <defs>
       <path id="DejaVuSans-54" d="M -19 4666 
L 3928 4666 
L 3928 4134 
L 2272 4134 
L 2272 0 
L 1638 0 
L 1638 4134 
L -19 4134 
L -19 4666 
z
" transform="scale(0.015625)"/>
       <path id="DejaVuSans-72" d="M 2631 2963 
Q 2534 3019 2420 3045 
Q 2306 3072 2169 3072 
Q 1681 3072 1420 2755 
Q 1159 2438 1159 1844 
L 1159 0 
L 581 0 
L 581 3500 
L 1159 3500 
L 1159 2956 
Q 1341 3275 1631 3429 
Q 1922 3584 2338 3584 
Q 2397 3584 2469 3576 
Q 2541 3569 2628 3553 
L 2631 2963 
z
" transform="scale(0.015625)"/>
       <path id="DejaVuSans-6f" d="M 1959 3097 
Q 1497 3097 1228 2736 
Q 959 2375 959 1747 
Q 959 1119 1226 758 
Q 1494 397 1959 397 
Q 2419 397 2687 759 
Q 2956 1122 2956 1747 
Q 2956 2369 2687 2733 
Q 2419 3097 1959 3097 
z
M 1959 3584 
Q 2709 3584 3137 3096 
Q 3566 2609 3566 1747 
Q 3566 888 3137 398 
Q 2709 -91 1959 -91 
Q 1206 -91 779 398 
Q 353 888 353 1747 
Q 353 2609 779 3096 
Q 1206 3584 1959 3584 
z
" transform="scale(0.015625)"/>
       <path id="DejaVuSans-65" d="M 3597 1894 
L 3597 1613 
L 953 1613 
Q 991 1019 1311 708 
Q 1631 397 2203 397 
Q 2534 397 2845 478 
Q 3156 559 3463 722 
L 3463 178 
Q 3153 47 2828 -22 
Q 2503 -91 2169 -91 
Q 1331 -91 842 396 
Q 353 884 353 1716 
Q 353 2575 817 3079 
Q 1281 3584 2069 3584 
Q 2775 3584 3186 3129 
Q 3597 2675 3597 1894 
z
M 3022 2063 
Q 3016 2534 2758 2815 
Q 2500 3097 2075 3097 
Q 1594 3097 1305 2825 
Q 1016 2553 972 2059 
L 3022 2063 
z
" transform="scale(0.015625)"/>
      </defs>
      <use xlink:href="#DejaVuSans-54"/>
      <use xlink:href="#DejaVuSans-72" x="46.333984"/>
      <use xlink:href="#DejaVuSans-6f" x="85.197266"/>
      <use xlink:href="#DejaVuSans-74" x="146.378906"/>
      <use xlink:href="#DejaVuSans-74" x="185.587891"/>
      <use xlink:href="#DejaVuSans-65" x="224.796875"/>
      <use xlink:href="#DejaVuSans-72" x="286.320312"/>
     </g>
    </g>
   </g>
  </g>
 </g>
 <defs>
  <clipPath id="p852f101ea6">
   <rect x="57.6" y="41.472" width="357.12" height="266.112"/>
  </clipPath>
 </defs>
</svg>
