<?xml version="1.0" encoding="utf-8" standalone="no"?>
<!DOCTYPE svg PUBLIC "-//W3C//DTD SVG 1.1//EN"
  "http://www.w3.org/Graphics/SVG/1.1/DTD/svg11.dtd">
<svg xmlns:xlink="http://www.w3.org/1999/xlink" width="460.8pt" height="345.6pt" viewBox="0 0 460.8 345.6" xmlns="http://www.w3.org/2000/svg" version="1.1">
 <metadata>
  <rdf:RDF xmlns:dc="http://purl.org/dc/elements/1.1/" xmlns:cc="http://creativecommons.org/ns#" xmlns:rdf="http://www.w3.org/1999/02/22-rdf-syntax-ns#">
   <cc:Work>
    <dc:type rdf:resource="http://purl.org/dc/dcmitype/StillImage"/>
    <dc:date>2024-08-17T12:48:03.896041</dc:date>
    <dc:format>image/svg+xml</dc:format>
    <dc:creator>
     <cc:Agent>
      <dc:title>Matplotlib v3.7.1, https://matplotlib.org/</dc:title>
     </cc:Agent>
    </dc:creator>
   </cc:Work>
  </rdf:RDF>
 </metadata>
 <defs>
  <style type="text/css">*{stroke-linejoin: round; stroke-linecap: butt}</style>
 </defs>
 <g id="figure_1">
  <g id="patch_1">
   <path d="M 0 345.6 
L 460.8 345.6 
L 460.8 0 
L 0 0 
z
" style="fill: #ffffff"/>
  </g>
  <g id="axes_1">
   <g id="patch_2">
    <path d="M 57.6 307.584 
L 414.72 307.584 
L 414.72 41.472 
L 57.6 41.472 
z
" style="fill: #ffffff"/>
   </g>
   <g id="matplotlib.axis_1">
    <g id="xtick_1">
     <g id="line2d_1">
      <defs>
       <path id="meb503f28a9" d="M 0 0 
L 0 3.5 
" style="stroke: #000000; stroke-width: 0.8"/>
      </defs>
      <g>
       <use xlink:href="#meb503f28a9" x="73.832727" y="307.584" style="stroke: #000000; stroke-width: 0.8"/>
      </g>
     </g>
     <g id="text_1">
      <!-- 0 -->
      <g transform="translate(70.651477 322.182437) scale(0.1 -0.1)">
       <defs>
        <path id="DejaVuSans-30" d="M 2034 4250 
Q 1547 4250 1301 3770 
Q 1056 3291 1056 2328 
Q 1056 1369 1301 889 
Q 1547 409 2034 409 
Q 2525 409 2770 889 
Q 3016 1369 3016 2328 
Q 3016 3291 2770 3770 
Q 2525 4250 2034 4250 
z
M 2034 4750 
Q 2819 4750 3233 4129 
Q 3647 3509 3647 2328 
Q 3647 1150 3233 529 
Q 2819 -91 2034 -91 
Q 1250 -91 836 529 
Q 422 1150 422 2328 
Q 422 3509 836 4129 
Q 1250 4750 2034 4750 
z
" transform="scale(0.015625)"/>
       </defs>
       <use xlink:href="#DejaVuSans-30"/>
      </g>
     </g>
    </g>
    <g id="xtick_2">
     <g id="line2d_2">
      <g>
       <use xlink:href="#meb503f28a9" x="137.303802" y="307.584" style="stroke: #000000; stroke-width: 0.8"/>
      </g>
     </g>
     <g id="text_2">
      <!-- 200 -->
      <g transform="translate(127.760052 322.182437) scale(0.1 -0.1)">
       <defs>
        <path id="DejaVuSans-32" d="M 1228 531 
L 3431 531 
L 3431 0 
L 469 0 
L 469 531 
Q 828 903 1448 1529 
Q 2069 2156 2228 2338 
Q 2531 2678 2651 2914 
Q 2772 3150 2772 3378 
Q 2772 3750 2511 3984 
Q 2250 4219 1831 4219 
Q 1534 4219 1204 4116 
Q 875 4013 500 3803 
L 500 4441 
Q 881 4594 1212 4672 
Q 1544 4750 1819 4750 
Q 2544 4750 2975 4387 
Q 3406 4025 3406 3419 
Q 3406 3131 3298 2873 
Q 3191 2616 2906 2266 
Q 2828 2175 2409 1742 
Q 1991 1309 1228 531 
z
" transform="scale(0.015625)"/>
       </defs>
       <use xlink:href="#DejaVuSans-32"/>
       <use xlink:href="#DejaVuSans-30" x="63.623047"/>
       <use xlink:href="#DejaVuSans-30" x="127.246094"/>
      </g>
     </g>
    </g>
    <g id="xtick_3">
     <g id="line2d_3">
      <g>
       <use xlink:href="#meb503f28a9" x="200.774876" y="307.584" style="stroke: #000000; stroke-width: 0.8"/>
      </g>
     </g>
     <g id="text_3">
      <!-- 400 -->
      <g transform="translate(191.231126 322.182437) scale(0.1 -0.1)">
       <defs>
        <path id="DejaVuSans-34" d="M 2419 4116 
L 825 1625 
L 2419 1625 
L 2419 4116 
z
M 2253 4666 
L 3047 4666 
L 3047 1625 
L 3713 1625 
L 3713 1100 
L 3047 1100 
L 3047 0 
L 2419 0 
L 2419 1100 
L 313 1100 
L 313 1709 
L 2253 4666 
z
" transform="scale(0.015625)"/>
       </defs>
       <use xlink:href="#DejaVuSans-34"/>
       <use xlink:href="#DejaVuSans-30" x="63.623047"/>
       <use xlink:href="#DejaVuSans-30" x="127.246094"/>
      </g>
     </g>
    </g>
    <g id="xtick_4">
     <g id="line2d_4">
      <g>
       <use xlink:href="#meb503f28a9" x="264.24595" y="307.584" style="stroke: #000000; stroke-width: 0.8"/>
      </g>
     </g>
     <g id="text_4">
      <!-- 600 -->
      <g transform="translate(254.7022 322.182437) scale(0.1 -0.1)">
       <defs>
        <path id="DejaVuSans-36" d="M 2113 2584 
Q 1688 2584 1439 2293 
Q 1191 2003 1191 1497 
Q 1191 994 1439 701 
Q 1688 409 2113 409 
Q 2538 409 2786 701 
Q 3034 994 3034 1497 
Q 3034 2003 2786 2293 
Q 2538 2584 2113 2584 
z
M 3366 4563 
L 3366 3988 
Q 3128 4100 2886 4159 
Q 2644 4219 2406 4219 
Q 1781 4219 1451 3797 
Q 1122 3375 1075 2522 
Q 1259 2794 1537 2939 
Q 1816 3084 2150 3084 
Q 2853 3084 3261 2657 
Q 3669 2231 3669 1497 
Q 3669 778 3244 343 
Q 2819 -91 2113 -91 
Q 1303 -91 875 529 
Q 447 1150 447 2328 
Q 447 3434 972 4092 
Q 1497 4750 2381 4750 
Q 2619 4750 2861 4703 
Q 3103 4656 3366 4563 
z
" transform="scale(0.015625)"/>
       </defs>
       <use xlink:href="#DejaVuSans-36"/>
       <use xlink:href="#DejaVuSans-30" x="63.623047"/>
       <use xlink:href="#DejaVuSans-30" x="127.246094"/>
      </g>
     </g>
    </g>
    <g id="xtick_5">
     <g id="line2d_5">
      <g>
       <use xlink:href="#meb503f28a9" x="327.717025" y="307.584" style="stroke: #000000; stroke-width: 0.8"/>
      </g>
     </g>
     <g id="text_5">
      <!-- 800 -->
      <g transform="translate(318.173275 322.182437) scale(0.1 -0.1)">
       <defs>
        <path id="DejaVuSans-38" d="M 2034 2216 
Q 1584 2216 1326 1975 
Q 1069 1734 1069 1313 
Q 1069 891 1326 650 
Q 1584 409 2034 409 
Q 2484 409 2743 651 
Q 3003 894 3003 1313 
Q 3003 1734 2745 1975 
Q 2488 2216 2034 2216 
z
M 1403 2484 
Q 997 2584 770 2862 
Q 544 3141 544 3541 
Q 544 4100 942 4425 
Q 1341 4750 2034 4750 
Q 2731 4750 3128 4425 
Q 3525 4100 3525 3541 
Q 3525 3141 3298 2862 
Q 3072 2584 2669 2484 
Q 3125 2378 3379 2068 
Q 3634 1759 3634 1313 
Q 3634 634 3220 271 
Q 2806 -91 2034 -91 
Q 1263 -91 848 271 
Q 434 634 434 1313 
Q 434 1759 690 2068 
Q 947 2378 1403 2484 
z
M 1172 3481 
Q 1172 3119 1398 2916 
Q 1625 2713 2034 2713 
Q 2441 2713 2670 2916 
Q 2900 3119 2900 3481 
Q 2900 3844 2670 4047 
Q 2441 4250 2034 4250 
Q 1625 4250 1398 4047 
Q 1172 3844 1172 3481 
z
" transform="scale(0.015625)"/>
       </defs>
       <use xlink:href="#DejaVuSans-38"/>
       <use xlink:href="#DejaVuSans-30" x="63.623047"/>
       <use xlink:href="#DejaVuSans-30" x="127.246094"/>
      </g>
     </g>
    </g>
    <g id="xtick_6">
     <g id="line2d_6">
      <g>
       <use xlink:href="#meb503f28a9" x="391.188099" y="307.584" style="stroke: #000000; stroke-width: 0.8"/>
      </g>
     </g>
     <g id="text_6">
      <!-- 1000 -->
      <g transform="translate(378.463099 322.182437) scale(0.1 -0.1)">
       <defs>
        <path id="DejaVuSans-31" d="M 794 531 
L 1825 531 
L 1825 4091 
L 703 3866 
L 703 4441 
L 1819 4666 
L 2450 4666 
L 2450 531 
L 3481 531 
L 3481 0 
L 794 0 
L 794 531 
z
" transform="scale(0.015625)"/>
       </defs>
       <use xlink:href="#DejaVuSans-31"/>
       <use xlink:href="#DejaVuSans-30" x="63.623047"/>
       <use xlink:href="#DejaVuSans-30" x="127.246094"/>
       <use xlink:href="#DejaVuSans-30" x="190.869141"/>
      </g>
     </g>
    </g>
    <g id="text_7">
     <!-- n -->
     <g transform="translate(232.99125 335.860562) scale(0.1 -0.1)">
      <defs>
       <path id="DejaVuSans-6e" d="M 3513 2113 
L 3513 0 
L 2938 0 
L 2938 2094 
Q 2938 2591 2744 2837 
Q 2550 3084 2163 3084 
Q 1697 3084 1428 2787 
Q 1159 2491 1159 1978 
L 1159 0 
L 581 0 
L 581 3500 
L 1159 3500 
L 1159 2956 
Q 1366 3272 1645 3428 
Q 1925 3584 2291 3584 
Q 2894 3584 3203 3211 
Q 3513 2838 3513 2113 
z
" transform="scale(0.015625)"/>
      </defs>
      <use xlink:href="#DejaVuSans-6e"/>
     </g>
    </g>
   </g>
   <g id="matplotlib.axis_2">
    <g id="ytick_1">
     <g id="line2d_7">
      <defs>
       <path id="m810424de02" d="M 0 0 
L -3.5 0 
" style="stroke: #000000; stroke-width: 0.8"/>
      </defs>
      <g>
       <use xlink:href="#m810424de02" x="57.6" y="290.282425" style="stroke: #000000; stroke-width: 0.8"/>
      </g>
     </g>
     <g id="text_8">
      <!-- −3 -->
      <g transform="translate(35.857813 294.081643) scale(0.1 -0.1)">
       <defs>
        <path id="DejaVuSans-2212" d="M 678 2272 
L 4684 2272 
L 4684 1741 
L 678 1741 
L 678 2272 
z
" transform="scale(0.015625)"/>
        <path id="DejaVuSans-33" d="M 2597 2516 
Q 3050 2419 3304 2112 
Q 3559 1806 3559 1356 
Q 3559 666 3084 287 
Q 2609 -91 1734 -91 
Q 1441 -91 1130 -33 
Q 819 25 488 141 
L 488 750 
Q 750 597 1062 519 
Q 1375 441 1716 441 
Q 2309 441 2620 675 
Q 2931 909 2931 1356 
Q 2931 1769 2642 2001 
Q 2353 2234 1838 2234 
L 1294 2234 
L 1294 2753 
L 1863 2753 
Q 2328 2753 2575 2939 
Q 2822 3125 2822 3475 
Q 2822 3834 2567 4026 
Q 2313 4219 1838 4219 
Q 1578 4219 1281 4162 
Q 984 4106 628 3988 
L 628 4550 
Q 988 4650 1302 4700 
Q 1616 4750 1894 4750 
Q 2613 4750 3031 4423 
Q 3450 4097 3450 3541 
Q 3450 3153 3228 2886 
Q 3006 2619 2597 2516 
z
" transform="scale(0.015625)"/>
       </defs>
       <use xlink:href="#DejaVuSans-2212"/>
       <use xlink:href="#DejaVuSans-33" x="83.789062"/>
      </g>
     </g>
    </g>
    <g id="ytick_2">
     <g id="line2d_8">
      <g>
       <use xlink:href="#m810424de02" x="57.6" y="251.724463" style="stroke: #000000; stroke-width: 0.8"/>
      </g>
     </g>
     <g id="text_9">
      <!-- −2 -->
      <g transform="translate(35.857813 255.523681) scale(0.1 -0.1)">
       <use xlink:href="#DejaVuSans-2212"/>
       <use xlink:href="#DejaVuSans-32" x="83.789062"/>
      </g>
     </g>
    </g>
    <g id="ytick_3">
     <g id="line2d_9">
      <g>
       <use xlink:href="#m810424de02" x="57.6" y="213.166501" style="stroke: #000000; stroke-width: 0.8"/>
      </g>
     </g>
     <g id="text_10">
      <!-- −1 -->
      <g transform="translate(35.857813 216.96572) scale(0.1 -0.1)">
       <use xlink:href="#DejaVuSans-2212"/>
       <use xlink:href="#DejaVuSans-31" x="83.789062"/>
      </g>
     </g>
    </g>
    <g id="ytick_4">
     <g id="line2d_10">
      <g>
       <use xlink:href="#m810424de02" x="57.6" y="174.608539" style="stroke: #000000; stroke-width: 0.8"/>
      </g>
     </g>
     <g id="text_11">
      <!-- 0 -->
      <g transform="translate(44.2375 178.407758) scale(0.1 -0.1)">
       <use xlink:href="#DejaVuSans-30"/>
      </g>
     </g>
    </g>
    <g id="ytick_5">
     <g id="line2d_11">
      <g>
       <use xlink:href="#m810424de02" x="57.6" y="136.050577" style="stroke: #000000; stroke-width: 0.8"/>
      </g>
     </g>
     <g id="text_12">
      <!-- 1 -->
      <g transform="translate(44.2375 139.849796) scale(0.1 -0.1)">
       <use xlink:href="#DejaVuSans-31"/>
      </g>
     </g>
    </g>
    <g id="ytick_6">
     <g id="line2d_12">
      <g>
       <use xlink:href="#m810424de02" x="57.6" y="97.492615" style="stroke: #000000; stroke-width: 0.8"/>
      </g>
     </g>
     <g id="text_13">
      <!-- 2 -->
      <g transform="translate(44.2375 101.291834) scale(0.1 -0.1)">
       <use xlink:href="#DejaVuSans-32"/>
      </g>
     </g>
    </g>
    <g id="ytick_7">
     <g id="line2d_13">
      <g>
       <use xlink:href="#m810424de02" x="57.6" y="58.934653" style="stroke: #000000; stroke-width: 0.8"/>
      </g>
     </g>
     <g id="text_14">
      <!-- 3 -->
      <g transform="translate(44.2375 62.733872) scale(0.1 -0.1)">
       <use xlink:href="#DejaVuSans-33"/>
      </g>
     </g>
    </g>
    <g id="text_15">
     <!-- E*t -->
     <g transform="translate(29.778125 182.147531) rotate(-90) scale(0.1 -0.1)">
      <defs>
       <path id="DejaVuSans-45" d="M 628 4666 
L 3578 4666 
L 3578 4134 
L 1259 4134 
L 1259 2753 
L 3481 2753 
L 3481 2222 
L 1259 2222 
L 1259 531 
L 3634 531 
L 3634 0 
L 628 0 
L 628 4666 
z
" transform="scale(0.015625)"/>
       <path id="DejaVuSans-2a" d="M 3009 3897 
L 1888 3291 
L 3009 2681 
L 2828 2375 
L 1778 3009 
L 1778 1831 
L 1422 1831 
L 1422 3009 
L 372 2375 
L 191 2681 
L 1313 3291 
L 191 3897 
L 372 4206 
L 1422 3572 
L 1422 4750 
L 1778 4750 
L 1778 3572 
L 2828 4206 
L 3009 3897 
z
" transform="scale(0.015625)"/>
       <path id="DejaVuSans-74" d="M 1172 4494 
L 1172 3500 
L 2356 3500 
L 2356 3053 
L 1172 3053 
L 1172 1153 
Q 1172 725 1289 603 
Q 1406 481 1766 481 
L 2356 481 
L 2356 0 
L 1766 0 
Q 1100 0 847 248 
Q 594 497 594 1153 
L 594 3053 
L 172 3053 
L 172 3500 
L 594 3500 
L 594 4494 
L 1172 4494 
z
" transform="scale(0.015625)"/>
      </defs>
      <use xlink:href="#DejaVuSans-45"/>
      <use xlink:href="#DejaVuSans-2a" x="63.183594"/>
      <use xlink:href="#DejaVuSans-74" x="113.183594"/>
     </g>
    </g>
   </g>
   <g id="line2d_14">
    <path d="M 73.832727 295.488 
L 74.150083 294.003044 
L 74.467438 293.52472 
L 74.784793 292.481375 
L 75.102149 292.415658 
L 76.37157 290.209475 
L 76.688926 290.078012 
L 77.006281 288.880751 
L 77.323636 288.724066 
L 77.640992 288.253449 
L 77.958347 288.02514 
L 78.593058 286.166021 
L 78.910413 285.84148 
L 79.227769 285.188094 
L 79.545124 284.185386 
L 79.862479 283.984239 
L 80.179835 283.44546 
L 80.49719 283.371188 
L 80.814545 281.950348 
L 81.131901 281.894922 
L 81.449256 280.710145 
L 81.766612 280.691213 
L 82.083967 279.959478 
L 82.401322 279.743953 
L 82.718678 279.662887 
L 83.036033 278.831774 
L 83.353388 278.614978 
L 83.670744 278.53703 
L 83.988099 278.300704 
L 84.62281 277.363483 
L 85.257521 275.939445 
L 86.209587 273.396403 
L 86.526942 273.294033 
L 86.844298 272.27429 
L 87.479008 271.638487 
L 88.113719 271.102078 
L 88.431074 269.788984 
L 88.74843 268.980298 
L 89.38314 268.699133 
L 90.335207 267.757553 
L 90.652562 267.089785 
L 91.604628 266.065618 
L 91.921983 265.062247 
L 92.239339 264.888936 
L 92.556694 264.356766 
L 93.191405 264.044081 
L 93.826116 263.030965 
L 94.778182 262.499071 
L 95.095537 261.600871 
L 95.412893 261.579679 
L 95.730248 260.949644 
L 96.364959 260.531585 
L 96.682314 259.72963 
L 97.317025 259.219298 
L 97.63438 259.192923 
L 97.951736 258.426667 
L 98.269091 258.27147 
L 98.586446 258.248802 
L 99.221157 257.648517 
L 99.538512 256.810496 
L 99.855868 256.59195 
L 100.173223 255.942494 
L 100.490579 255.667815 
L 101.125289 255.381634 
L 101.442645 254.310289 
L 101.76 254.171527 
L 102.077355 254.163968 
L 102.394711 253.159481 
L 103.029421 252.53718 
L 103.346777 252.332179 
L 103.664132 252.272801 
L 103.981488 251.987593 
L 104.298843 250.728082 
L 104.933554 250.277159 
L 105.250909 249.907783 
L 105.88562 249.725454 
L 106.202975 249.579197 
L 107.155041 248.668079 
L 107.472397 248.626139 
L 109.059174 246.992231 
L 109.693884 246.939663 
L 110.01124 245.957181 
L 110.328595 245.807925 
L 110.64595 245.25688 
L 111.280661 244.888881 
L 111.598017 244.457033 
L 112.232727 244.374068 
L 112.550083 243.961532 
L 113.502149 243.379311 
L 113.819504 242.490347 
L 114.454215 242.423478 
L 114.77157 241.852595 
L 115.088926 241.585356 
L 115.723636 241.407518 
L 116.040992 240.616449 
L 116.993058 240.078036 
L 117.310413 239.431586 
L 119.214545 238.76787 
L 120.166612 238.468773 
L 120.801322 237.666988 
L 121.436033 237.450897 
L 121.753388 236.834674 
L 122.388099 236.477053 
L 123.02281 236.217244 
L 123.340165 235.220988 
L 123.657521 235.053898 
L 123.974876 235.049696 
L 124.609587 234.598811 
L 124.926942 234.092777 
L 125.244298 234.042898 
L 125.561653 233.789481 
L 125.879008 233.710343 
L 126.196364 233.475287 
L 126.513719 233.436371 
L 126.831074 233.217177 
L 127.14843 233.173766 
L 127.465785 232.862335 
L 127.78314 231.639596 
L 128.735207 231.125059 
L 129.369917 230.591237 
L 129.687273 230.476115 
L 130.956694 229.560445 
L 131.27405 229.522612 
L 132.226116 228.538632 
L 132.543471 228.536503 
L 133.178182 227.903061 
L 133.812893 227.827213 
L 134.130248 226.857591 
L 134.764959 226.754563 
L 135.082314 226.516781 
L 135.399669 226.137155 
L 135.717025 226.071095 
L 136.351736 225.481891 
L 139.842645 224.514835 
L 140.16 224.260816 
L 140.477355 223.382161 
L 141.429421 223.321503 
L 141.746777 222.79765 
L 142.064132 222.753998 
L 142.381488 222.47521 
L 143.333554 222.219092 
L 143.650909 221.500114 
L 144.920331 220.717164 
L 145.237686 220.305395 
L 146.189752 220.058519 
L 146.507107 220.033634 
L 148.093884 219.427736 
L 148.41124 219.374358 
L 149.04595 218.960394 
L 149.363306 218.495786 
L 149.998017 218.356126 
L 150.315372 217.886032 
L 151.902149 217.143878 
L 152.219504 216.808475 
L 152.53686 216.226265 
L 154.440992 215.516143 
L 154.758347 215.115062 
L 155.710413 214.672666 
L 156.027769 214.393231 
L 156.662479 214.235111 
L 157.29719 214.085991 
L 157.614545 213.986163 
L 157.931901 213.743083 
L 158.249256 213.730592 
L 158.566612 212.778839 
L 159.201322 212.417972 
L 161.42281 211.737953 
L 161.740165 211.456426 
L 162.057521 211.364535 
L 163.326942 210.495034 
L 163.961653 210.422548 
L 165.231074 209.491468 
L 165.865785 209.402599 
L 166.500496 208.906753 
L 167.135207 208.745396 
L 167.452562 208.721592 
L 167.769917 207.753521 
L 168.404628 207.723907 
L 169.039339 207.42421 
L 169.356694 206.988162 
L 169.67405 206.938117 
L 169.991405 206.33648 
L 170.943471 206.154859 
L 171.578182 205.974022 
L 172.847603 205.691218 
L 173.482314 205.354703 
L 174.117025 205.119758 
L 174.751736 204.527262 
L 175.069091 204.474004 
L 175.386446 204.304091 
L 176.021157 204.220677 
L 176.338512 203.702907 
L 176.655868 203.648184 
L 176.973223 203.370837 
L 178.56 202.903559 
L 178.877355 202.418688 
L 179.194711 202.398165 
L 179.512066 202.202566 
L 180.146777 202.001028 
L 180.781488 201.572087 
L 181.098843 201.182538 
L 181.733554 200.952675 
L 182.050909 200.939141 
L 183.002975 200.538708 
L 183.637686 200.373901 
L 185.224463 199.841779 
L 186.176529 199.310854 
L 186.81124 199.257749 
L 187.128595 198.770289 
L 187.44595 198.622229 
L 187.763306 198.610904 
L 188.080661 198.275851 
L 188.398017 198.164172 
L 188.715372 197.64205 
L 189.667438 197.026191 
L 189.984793 197.024157 
L 191.254215 196.624372 
L 191.888926 196.415142 
L 192.840992 196.005606 
L 193.793058 195.55955 
L 194.110413 195.298122 
L 194.427769 195.244197 
L 194.745124 195.039756 
L 195.69719 194.835968 
L 196.014545 194.632404 
L 196.331901 194.616919 
L 196.649256 193.639475 
L 196.966612 193.326252 
L 199.505455 192.643875 
L 199.82281 192.329382 
L 200.140165 192.293701 
L 201.726942 191.411717 
L 202.679008 191.310356 
L 203.313719 190.924294 
L 203.631074 190.827419 
L 203.94843 190.510049 
L 204.58314 190.346937 
L 205.852562 189.984696 
L 206.169917 189.656261 
L 206.487273 189.646539 
L 206.804628 189.440448 
L 207.121983 188.75792 
L 208.07405 188.325607 
L 208.70876 187.795946 
L 209.026116 187.232323 
L 210.295537 187.049469 
L 210.930248 186.927022 
L 212.199669 186.702663 
L 212.517025 186.580741 
L 213.151736 186.16793 
L 213.469091 186.120001 
L 214.738512 185.41639 
L 215.055868 185.375109 
L 215.690579 185.097433 
L 216.007934 185.084115 
L 216.325289 184.637973 
L 216.96 184.527806 
L 218.864132 183.601164 
L 219.181488 183.335653 
L 219.816198 183.235301 
L 220.133554 183.082264 
L 220.450909 183.071033 
L 221.720331 182.434472 
L 222.037686 182.073622 
L 222.672397 181.843818 
L 222.989752 181.821778 
L 223.624463 181.502138 
L 224.259174 181.360237 
L 224.893884 181.126141 
L 225.21124 180.946421 
L 225.528595 180.912546 
L 226.798017 180.160619 
L 227.115372 180.119513 
L 227.432727 179.662286 
L 229.33686 179.00782 
L 229.97157 178.26004 
L 230.288926 177.957444 
L 231.875702 177.611728 
L 232.827769 177.348387 
L 233.462479 177.037831 
L 234.414545 176.8163 
L 234.731901 176.447244 
L 235.683967 176.023302 
L 237.270744 175.391477 
L 237.588099 174.506994 
L 237.905455 174.195062 
L 239.809587 173.876068 
L 240.444298 173.57763 
L 240.761653 173.54567 
L 241.079008 173.212853 
L 241.396364 173.160253 
L 242.34843 172.43391 
L 244.252562 171.761404 
L 244.569917 171.382206 
L 245.521983 171.150513 
L 246.156694 170.882448 
L 246.47405 170.844801 
L 247.10876 170.559221 
L 247.426116 170.528993 
L 248.378182 169.979863 
L 248.695537 169.961247 
L 249.012893 169.806073 
L 249.647603 169.296994 
L 249.964959 169.211197 
L 250.599669 168.590021 
L 250.917025 168.199927 
L 251.869091 168.06619 
L 252.503802 167.949509 
L 253.773223 167.683529 
L 255.042645 166.995633 
L 255.677355 166.548708 
L 255.994711 166.51542 
L 256.312066 166.320253 
L 257.264132 166.072696 
L 258.850909 165.256171 
L 259.168264 165.046362 
L 259.48562 164.996873 
L 260.437686 164.213196 
L 262.659174 163.547899 
L 263.293884 162.992775 
L 263.61124 162.722809 
L 263.928595 162.69968 
L 264.563306 162.466428 
L 266.150083 162.065624 
L 266.467438 161.816963 
L 266.784793 161.767162 
L 267.73686 161.052696 
L 268.054215 161.015483 
L 268.37157 160.6987 
L 269.958347 159.940213 
L 270.275702 159.132837 
L 270.593058 158.781955 
L 272.179835 158.433279 
L 272.814545 158.092676 
L 274.401322 157.724781 
L 274.718678 157.335305 
L 275.353388 157.082297 
L 275.670744 157.030281 
L 275.988099 156.74641 
L 277.574876 156.353177 
L 277.892231 156.010847 
L 278.209587 155.384488 
L 278.526942 155.04326 
L 280.113719 154.724382 
L 280.431074 154.505272 
L 281.065785 154.373222 
L 281.700496 153.825359 
L 282.017851 153.384092 
L 283.287273 153.049705 
L 283.921983 152.622658 
L 284.239339 152.577262 
L 284.556694 152.251094 
L 285.191405 152.166283 
L 286.778182 151.504554 
L 287.730248 151.24258 
L 288.047603 150.91307 
L 288.682314 150.70618 
L 288.999669 150.369663 
L 289.951736 150.079953 
L 290.586446 149.109357 
L 293.125289 148.336769 
L 294.077355 147.397737 
L 294.712066 147.159363 
L 295.346777 146.985208 
L 296.298843 146.446489 
L 296.933554 146.104182 
L 299.472397 144.686557 
L 300.424463 144.439907 
L 301.376529 143.94496 
L 302.01124 143.359338 
L 303.598017 142.956602 
L 303.915372 142.640265 
L 304.550083 142.423892 
L 304.867438 142.074157 
L 305.184793 141.917733 
L 305.819504 141.773668 
L 306.13686 141.507513 
L 306.77157 141.350009 
L 307.406281 141.074268 
L 307.723636 140.883443 
L 308.040992 140.830334 
L 308.358347 140.207554 
L 308.675702 140.009317 
L 308.993058 139.652275 
L 309.945124 139.293767 
L 310.262479 138.94812 
L 310.89719 138.890533 
L 311.214545 138.633449 
L 311.531901 138.540838 
L 311.849256 138.286531 
L 312.166612 138.226497 
L 312.801322 137.947249 
L 313.118678 137.874784 
L 313.436033 137.570214 
L 314.070744 137.35208 
L 315.02281 135.944689 
L 315.657521 135.811327 
L 317.561653 135.070665 
L 317.879008 134.264664 
L 318.513719 134.143239 
L 321.052562 132.783638 
L 321.369917 132.461882 
L 322.639339 132.242103 
L 323.90876 131.716575 
L 324.226116 131.575128 
L 324.543471 131.160585 
L 324.860826 131.044486 
L 326.130248 129.900165 
L 327.399669 129.368681 
L 327.717025 128.864169 
L 328.351736 128.473944 
L 328.986446 128.268166 
L 329.621157 128.082056 
L 329.938512 128.068004 
L 330.255868 127.895231 
L 330.890579 126.935058 
L 331.842645 126.514366 
L 332.16 126.078958 
L 332.794711 125.893615 
L 333.429421 125.543874 
L 334.064132 125.455491 
L 335.016198 124.927851 
L 335.333554 124.444976 
L 336.28562 123.916728 
L 336.602975 123.677647 
L 336.920331 123.112823 
L 337.237686 122.780858 
L 337.872397 122.634814 
L 338.824463 121.951457 
L 339.141818 121.738536 
L 339.459174 121.089266 
L 339.776529 120.888642 
L 340.093884 120.550587 
L 340.728595 120.264477 
L 341.04595 119.893242 
L 341.998017 119.651803 
L 342.315372 119.511905 
L 342.632727 119.189215 
L 343.902149 118.854658 
L 344.219504 118.726685 
L 344.53686 118.356428 
L 345.17157 118.236926 
L 345.488926 117.767604 
L 345.806281 116.853973 
L 346.440992 116.690689 
L 347.075702 116.081821 
L 347.393058 116.010822 
L 347.710413 115.123534 
L 348.027769 114.85682 
L 348.345124 114.839163 
L 349.614545 114.056496 
L 350.249256 113.625149 
L 350.883967 113.124082 
L 351.518678 113.007694 
L 351.836033 112.630313 
L 352.470744 112.427319 
L 354.057521 110.797018 
L 354.374876 110.677873 
L 355.326942 109.629316 
L 355.961653 109.362501 
L 356.913719 108.986154 
L 357.231074 108.679724 
L 357.54843 108.077621 
L 358.18314 107.616109 
L 358.500496 106.887543 
L 359.135207 106.364849 
L 359.452562 106.305356 
L 359.769917 106.04097 
L 360.087273 105.168314 
L 360.721983 104.819833 
L 361.039339 104.072273 
L 361.356694 103.656347 
L 361.991405 103.312931 
L 362.626116 102.87491 
L 362.943471 102.78306 
L 363.578182 102.345575 
L 364.212893 101.340293 
L 364.530248 101.24926 
L 364.847603 100.76766 
L 365.164959 100.709967 
L 365.482314 100.511194 
L 365.799669 100.142787 
L 367.069091 99.57292 
L 367.386446 99.203301 
L 368.021157 97.736007 
L 368.338512 97.63952 
L 368.973223 96.021023 
L 369.290579 95.739951 
L 369.607934 95.731233 
L 370.242645 95.291753 
L 370.56 95.227575 
L 370.877355 95.048657 
L 371.194711 94.263171 
L 372.781488 93.281007 
L 373.416198 91.830535 
L 373.733554 91.556934 
L 374.050909 90.452593 
L 375.637686 89.552634 
L 375.955041 88.673117 
L 377.224463 87.830118 
L 377.541818 87.615083 
L 377.859174 87.201771 
L 378.176529 87.073047 
L 378.493884 86.039593 
L 379.128595 85.689416 
L 379.44595 84.692754 
L 379.763306 84.40532 
L 380.080661 83.306374 
L 380.715372 82.133382 
L 381.032727 81.67262 
L 381.350083 81.503724 
L 381.667438 80.964087 
L 381.984793 80.918259 
L 382.93686 80.081166 
L 383.254215 79.915007 
L 383.888926 78.589296 
L 384.206281 76.943744 
L 384.523636 76.873495 
L 384.840992 76.63809 
L 385.158347 76.129873 
L 385.475702 75.920138 
L 386.110413 74.734403 
L 386.427769 74.501174 
L 386.745124 74.417012 
L 387.69719 73.383091 
L 388.014545 72.640129 
L 388.331901 72.40411 
L 388.649256 71.465924 
L 388.966612 70.915721 
L 389.283967 70.842858 
L 389.601322 70.471587 
L 389.918678 69.301631 
L 390.236033 69.267402 
L 391.188099 67.576977 
L 391.505455 66.921473 
L 391.82281 66.764847 
L 392.140165 65.558592 
L 392.457521 65.356356 
L 393.409587 62.042073 
L 393.726942 61.858821 
L 394.044298 61.438953 
L 394.679008 60.394552 
L 395.313719 60.026605 
L 395.94843 57.550668 
L 396.265785 57.532882 
L 396.58314 56.790709 
L 396.900496 55.654158 
L 397.535207 55.39549 
L 398.487273 53.568 
L 398.487273 53.568 
" clip-path="url(#p74f1d3350e)" style="fill: none; stroke: #1f77b4; stroke-width: 1.5; stroke-linecap: square"/>
   </g>
   <g id="line2d_15">
    <path d="M 73.832727 295.450437 
L 74.150083 294.761547 
L 74.467438 294.375819 
L 74.784793 293.036352 
L 75.102149 292.508773 
L 75.419504 291.378453 
L 75.73686 291.378453 
L 77.323636 289.032088 
L 77.640992 287.866309 
L 78.593058 286.872922 
L 79.227769 285.133921 
L 79.545124 284.88216 
L 79.862479 284.169028 
L 80.179835 283.167205 
L 80.49719 282.933492 
L 80.814545 282.455167 
L 81.131901 282.240047 
L 81.449256 281.010269 
L 81.766612 280.88091 
L 82.083967 279.58259 
L 82.401322 279.582585 
L 82.718678 278.939845 
L 83.353388 278.661263 
L 83.670744 277.714283 
L 84.305455 277.526486 
L 84.940165 276.853608 
L 85.892231 274.948147 
L 86.844298 272.292264 
L 87.161653 272.292263 
L 87.479008 271.305538 
L 88.113719 270.612433 
L 88.74843 270.092727 
L 89.38314 267.78673 
L 90.017851 267.725281 
L 90.335207 267.469366 
L 90.652562 266.832637 
L 90.969917 266.763007 
L 91.287273 266.047717 
L 91.604628 265.795965 
L 91.921983 265.275702 
L 92.239339 265.082837 
L 92.556694 264.08101 
L 92.87405 263.847303 
L 93.191405 263.368982 
L 93.826116 263.010897 
L 94.143471 262.364706 
L 94.460826 262.060551 
L 95.412893 261.624058 
L 95.730248 260.496398 
L 96.047603 260.496394 
L 96.364959 259.926603 
L 96.682314 259.675482 
L 96.999669 259.575067 
L 97.317025 258.628092 
L 97.63438 258.5625 
L 97.951736 258.140332 
L 98.269091 258.130227 
L 98.586446 257.490001 
L 99.221157 257.145497 
L 99.538512 256.975201 
L 99.855868 256.589169 
L 100.173223 255.861951 
L 100.490579 255.567813 
L 101.125289 254.4952 
L 101.442645 254.336554 
L 101.76 254.336397 
L 102.077355 253.225247 
L 102.712066 253.206073 
L 103.029421 252.219344 
L 103.664132 251.526243 
L 103.981488 251.448888 
L 104.616198 251.00654 
L 104.933554 249.693925 
L 105.568264 249.372407 
L 105.88562 248.899573 
L 106.202975 248.700534 
L 106.837686 248.639096 
L 107.155041 248.383179 
L 107.472397 247.746415 
L 108.107107 247.586743 
L 108.424463 247.21209 
L 108.741818 247.113739 
L 109.693884 246.059511 
L 110.328595 245.939889 
L 110.64595 244.994817 
L 110.963306 244.761115 
L 111.280661 244.282798 
L 111.598017 244.242849 
L 112.550083 243.423643 
L 112.867438 243.278512 
L 113.184793 242.97436 
L 114.13686 242.53787 
L 114.454215 241.47079 
L 115.088926 241.410203 
L 115.406281 240.840415 
L 115.723636 240.589294 
L 116.358347 240.447072 
L 116.675702 239.541902 
L 116.993058 239.476308 
L 117.310413 239.054143 
L 117.627769 239.044037 
L 117.945124 238.403815 
L 118.579835 238.275375 
L 118.89719 238.102884 
L 120.166612 237.828303 
L 120.801322 237.502979 
L 121.118678 237.027329 
L 123.340165 235.254696 
L 123.657521 235.250208 
L 123.974876 234.139062 
L 124.609587 234.119884 
L 124.926942 233.955872 
L 126.196364 232.746863 
L 126.513719 232.720037 
L 126.831074 232.472105 
L 127.465785 232.3627 
L 128.100496 231.920353 
L 128.417851 230.607734 
L 128.735207 230.425207 
L 129.369917 230.286225 
L 129.687273 229.61434 
L 130.321983 229.55291 
L 130.956694 229.127081 
L 131.27405 228.600276 
L 131.90876 228.500552 
L 132.226116 228.125903 
L 132.543471 228.027548 
L 132.860826 227.623577 
L 133.178182 227.488402 
L 133.495537 227.10332 
L 134.130248 226.910458 
L 134.447603 226.853698 
L 134.764959 225.908624 
L 135.717025 225.501499 
L 136.03438 225.196614 
L 136.351736 225.156667 
L 136.986446 224.398866 
L 137.621157 224.337456 
L 138.255868 224.139754 
L 139.525289 223.88817 
L 140.794711 223.451681 
L 141.112066 222.544464 
L 141.746777 222.324014 
L 142.064132 222.324012 
L 142.381488 221.765028 
L 142.698843 221.754227 
L 143.016198 221.503106 
L 143.968264 221.242716 
L 144.28562 220.455711 
L 144.602975 220.390117 
L 144.920331 219.967954 
L 145.237686 219.957847 
L 145.555041 219.75818 
L 145.872397 219.317628 
L 146.507107 219.189184 
L 146.824463 219.016705 
L 148.41124 218.727452 
L 149.04595 218.416788 
L 149.998017 217.689565 
L 150.315372 217.395441 
L 150.632727 217.306782 
L 150.950083 216.85319 
L 151.584793 216.823688 
L 151.902149 216.322817 
L 152.219504 216.168502 
L 152.53686 216.164017 
L 153.488926 215.052876 
L 154.758347 214.86968 
L 155.393058 214.204686 
L 156.027769 214.046958 
L 156.662479 213.427593 
L 157.614545 213.276512 
L 158.249256 212.932242 
L 158.883967 212.834165 
L 159.201322 211.712937 
L 159.836033 211.339017 
L 161.105455 211.200042 
L 161.740165 211.078697 
L 162.057521 210.528145 
L 162.692231 210.466722 
L 163.326942 210.074079 
L 163.644298 210.040879 
L 163.961653 209.514079 
L 164.596364 209.414361 
L 164.913719 209.091245 
L 165.54843 208.941357 
L 165.865785 208.651069 
L 166.500496 208.40221 
L 166.817851 208.099296 
L 168.087273 207.767507 
L 168.404628 206.822433 
L 169.039339 206.598759 
L 169.356694 206.58874 
L 169.67405 206.415316 
L 169.991405 206.110431 
L 170.30876 206.070484 
L 170.626116 205.312669 
L 171.260826 205.251268 
L 171.895537 205.053554 
L 173.164959 204.801981 
L 174.751736 204.256935 
L 175.069091 203.728012 
L 175.386446 203.562673 
L 175.703802 203.532116 
L 176.021157 203.298401 
L 176.655868 203.237822 
L 176.973223 202.678838 
L 177.290579 202.66804 
L 177.607934 202.416917 
L 179.194711 201.986472 
L 179.512066 201.369521 
L 180.464132 201.213958 
L 180.781488 200.881765 
L 181.098843 200.871658 
L 181.416198 200.671981 
L 181.733554 200.23144 
L 182.050909 200.192959 
L 182.368264 199.930524 
L 183.955041 199.641256 
L 184.589752 199.330597 
L 185.224463 199.117062 
L 185.541818 199.074775 
L 186.176529 198.616796 
L 186.81124 198.589601 
L 187.128595 198.309253 
L 187.44595 198.22059 
L 187.763306 197.766996 
L 188.398017 197.737501 
L 188.715372 197.236625 
L 189.032727 197.082308 
L 189.667438 196.380221 
L 190.619504 195.947509 
L 190.93686 195.947507 
L 191.57157 195.78349 
L 191.888926 195.771 
L 192.206281 195.526388 
L 192.840992 195.462096 
L 193.158347 195.118502 
L 193.475702 195.114542 
L 194.110413 194.960765 
L 194.745124 194.299728 
L 195.379835 194.190326 
L 195.69719 193.97812 
L 196.331901 193.846068 
L 196.966612 193.747977 
L 197.283967 192.626736 
L 197.601322 192.252827 
L 198.553388 192.116467 
L 199.82281 191.692112 
L 200.140165 191.441952 
L 200.774876 191.380534 
L 201.409587 190.987894 
L 201.726942 190.954678 
L 202.044298 190.441149 
L 203.313719 190.328171 
L 203.631074 190.005052 
L 204.265785 189.855167 
L 204.58314 189.564901 
L 205.217851 189.451192 
L 206.169917 189.247428 
L 206.804628 188.738081 
L 207.121983 188.681316 
L 207.439339 188.341545 
L 207.756694 187.60525 
L 209.026116 187.161136 
L 209.343471 187.024247 
L 209.660826 186.226476 
L 210.612893 186.165079 
L 211.247603 185.979399 
L 212.199669 185.913222 
L 212.517025 185.750505 
L 213.469091 185.579306 
L 214.421157 185.170735 
L 214.738512 184.641826 
L 215.373223 184.476479 
L 215.690579 184.445931 
L 216.007934 184.151633 
L 216.642645 184.065376 
L 216.96 183.960679 
L 217.277355 183.592648 
L 217.594711 183.581854 
L 217.912066 183.45306 
L 218.229421 183.188503 
L 219.181488 182.900272 
L 219.816198 182.28333 
L 221.08562 182.127773 
L 221.402975 181.848447 
L 222.355041 181.585785 
L 222.672397 181.145251 
L 222.989752 181.106769 
L 223.307107 180.844343 
L 224.259174 180.630449 
L 225.21124 180.391224 
L 225.528595 180.077518 
L 226.163306 179.988568 
L 227.432727 179.134399 
L 227.750083 179.024759 
L 228.067438 178.680804 
L 228.384793 178.651314 
L 228.702149 178.472277 
L 229.019504 178.443895 
L 229.33686 178.150433 
L 229.97157 177.996115 
L 230.606281 177.294018 
L 231.558347 176.86132 
L 231.875702 176.861319 
L 232.510413 176.697303 
L 233.145124 176.590416 
L 234.731901 175.908297 
L 235.049256 175.874574 
L 235.683967 175.213539 
L 236.318678 175.104141 
L 236.636033 174.891935 
L 237.270744 174.759892 
L 237.905455 174.661789 
L 238.22281 173.540536 
L 238.540165 173.166639 
L 239.809587 173.03028 
L 241.079008 172.605925 
L 241.396364 172.355759 
L 241.713719 172.355758 
L 242.031074 172.243348 
L 242.98314 171.354949 
L 243.935207 171.241982 
L 244.252562 170.918859 
L 244.887273 170.768977 
L 245.204628 170.47873 
L 245.839339 170.365001 
L 246.791405 170.16123 
L 247.10876 169.844746 
L 248.378182 169.556606 
L 249.012893 169.000035 
L 249.330248 168.886744 
L 249.647603 168.519058 
L 250.599669 168.242949 
L 250.917025 167.96964 
L 251.23438 167.938064 
L 251.551736 167.35564 
L 251.869091 167.12992 
L 252.821157 167.078889 
L 253.455868 166.893216 
L 255.36 166.493117 
L 255.994711 165.55564 
L 257.264132 165.359747 
L 257.581488 165.065443 
L 258.533554 164.979174 
L 258.850909 164.50646 
L 259.168264 164.495669 
L 259.48562 164.366857 
L 260.120331 163.914537 
L 260.437686 163.814073 
L 261.072397 163.164023 
L 261.707107 163.041587 
L 262.659174 162.735503 
L 263.293884 162.69928 
L 263.61124 162.49959 
L 263.928595 162.02058 
L 264.24595 161.75816 
L 264.880661 161.667502 
L 265.198017 161.468865 
L 266.150083 161.305039 
L 266.784793 160.991336 
L 267.419504 160.902364 
L 268.054215 160.417239 
L 268.37157 160.048208 
L 269.006281 159.818736 
L 269.640992 159.386096 
L 269.958347 159.357702 
L 270.593058 158.909923 
L 270.910413 158.042094 
L 275.036033 156.694052 
L 275.670744 156.127348 
L 275.988099 156.109466 
L 276.305455 155.805749 
L 277.574876 155.634899 
L 277.892231 155.477036 
L 278.209587 155.472674 
L 278.526942 155.062968 
L 279.161653 154.06006 
L 279.796364 153.945611 
L 280.431074 153.865649 
L 281.38314 153.519739 
L 281.700496 153.269567 
L 282.017851 153.269566 
L 282.335207 152.993138 
L 282.652562 152.322671 
L 283.921983 152.155793 
L 284.239339 151.832668 
L 285.826116 151.14364 
L 286.460826 151.075035 
L 286.778182 150.758555 
L 288.047603 150.48215 
L 288.682314 149.913854 
L 288.999669 149.800552 
L 289.317025 149.523557 
L 290.586446 149.156763 
L 291.221157 148.043728 
L 291.538512 148.021399 
L 291.855868 147.847551 
L 293.442645 147.536525 
L 293.76 147.437416 
L 294.394711 146.425468 
L 296.298843 145.892974 
L 296.933554 145.420272 
L 297.250909 145.409484 
L 297.568264 145.280659 
L 298.202975 144.828339 
L 298.520331 144.727875 
L 299.155041 144.077837 
L 299.472397 144.068139 
L 300.107107 143.678039 
L 300.741818 143.613092 
L 301.059174 143.413397 
L 301.376529 143.393159 
L 302.01124 142.934391 
L 302.64595 142.382672 
L 303.598017 142.218852 
L 304.232727 141.905152 
L 304.867438 141.80463 
L 305.184793 141.31698 
L 305.502149 141.054618 
L 306.454215 140.71325 
L 306.77157 140.528996 
L 307.088926 140.508422 
L 307.406281 140.299913 
L 307.723636 140.271511 
L 308.358347 139.978048 
L 308.675702 139.823731 
L 308.993058 139.234184 
L 309.310413 138.955899 
L 309.627769 138.849805 
L 309.945124 138.551883 
L 310.579835 138.418045 
L 310.89719 138.002546 
L 312.166612 137.607857 
L 312.801322 137.064404 
L 313.436033 137.003564 
L 313.753388 136.701292 
L 314.705455 136.386491 
L 315.02281 135.976768 
L 315.657521 134.870063 
L 316.609587 134.77946 
L 316.926942 134.708382 
L 317.561653 134.183375 
L 318.196364 134.109179 
L 318.513719 133.23647 
L 319.78314 133.051655 
L 320.100496 132.746477 
L 320.735207 132.47842 
L 321.052562 132.131521 
L 321.687273 132.040256 
L 322.004628 131.581088 
L 322.639339 131.422741 
L 323.27405 131.319688 
L 323.591405 131.08297 
L 323.90876 131.01416 
L 325.178182 130.253961 
L 325.495537 130.226461 
L 325.812893 129.587466 
L 326.130248 129.52844 
L 326.447603 128.957535 
L 326.764959 128.935213 
L 327.717025 128.491924 
L 328.03438 128.450333 
L 328.351736 127.876106 
L 328.986446 127.339271 
L 329.621157 127.217903 
L 330.573223 127.114308 
L 330.890579 126.882223 
L 331.525289 125.929931 
L 331.842645 125.913529 
L 332.477355 125.641678 
L 332.794711 124.991653 
L 333.429421 124.900175 
L 334.064132 124.591856 
L 334.698843 124.549111 
L 336.920331 122.907736 
L 337.237686 122.818968 
L 337.555041 121.968443 
L 338.507107 121.62706 
L 339.459174 120.987373 
L 339.776529 120.73754 
L 340.093884 119.994906 
L 340.728595 119.763609 
L 341.04595 119.465691 
L 341.363306 119.426214 
L 341.680661 118.916365 
L 342.315372 118.819256 
L 342.632727 118.521664 
L 342.950083 118.511285 
L 343.267438 118.229737 
L 343.584793 118.20163 
L 343.902149 117.978207 
L 344.53686 117.917381 
L 344.854215 117.615096 
L 345.806281 117.300307 
L 346.123636 116.89057 
L 346.440992 115.783866 
L 347.075702 115.771717 
L 347.710413 115.097183 
L 348.027769 115.022974 
L 348.345124 114.096351 
L 348.662479 113.965446 
L 348.979835 113.660535 
L 349.29719 113.660288 
L 349.931901 113.045329 
L 350.883967 112.954045 
L 351.201322 112.309768 
L 351.518678 112.031163 
L 352.153388 111.927986 
L 352.470744 111.668034 
L 352.788099 111.628172 
L 353.42281 111.140277 
L 353.740165 110.50128 
L 354.057521 110.442233 
L 354.374876 109.871342 
L 354.692231 109.849026 
L 355.326942 109.405731 
L 355.644298 108.789906 
L 355.961653 108.729276 
L 356.913719 108.169427 
L 357.54843 108.028112 
L 357.865785 107.819599 
L 358.500496 106.827312 
L 358.817851 106.655947 
L 359.135207 105.90547 
L 359.452562 105.47694 
L 359.769917 105.462942 
L 360.404628 105.050325 
L 360.721983 104.023873 
L 361.039339 103.842321 
L 361.356694 103.821545 
L 361.67405 102.882267 
L 363.260826 101.901164 
L 363.578182 101.822212 
L 364.212893 101.389035 
L 364.847603 100.3795 
L 365.482314 99.830185 
L 365.799669 99.800991 
L 366.43438 99.115452 
L 366.751736 98.892011 
L 367.386446 98.831196 
L 368.021157 98.315849 
L 368.338512 97.211924 
L 368.655868 96.697669 
L 368.973223 96.687042 
L 369.607934 95.010153 
L 369.925289 94.879241 
L 370.242645 94.574342 
L 370.56 94.574099 
L 370.877355 94.30604 
L 371.194711 94.220392 
L 371.512066 93.931626 
L 371.829421 93.223578 
L 372.146777 92.841811 
L 373.416198 92.264979 
L 373.733554 91.356027 
L 375.002975 89.16688 
L 376.272397 88.733386 
L 376.589752 87.741097 
L 377.541818 87.111601 
L 378.176529 86.390754 
L 378.493884 86.376771 
L 378.81124 86.134561 
L 379.128595 84.93767 
L 379.44595 84.756131 
L 379.763306 84.735353 
L 380.080661 83.47238 
L 380.398017 83.454681 
L 380.715372 82.302862 
L 381.667438 80.71478 
L 382.302149 80.029271 
L 382.619504 79.805816 
L 382.93686 79.764683 
L 383.888926 78.839051 
L 384.523636 77.470199 
L 384.840992 75.923956 
L 385.158347 75.902301 
L 385.793058 75.219848 
L 386.110413 74.845425 
L 386.745124 73.619843 
L 387.69719 73.178789 
L 388.331901 72.269822 
L 388.649256 71.580916 
L 388.966612 71.195201 
L 389.283967 70.403865 
L 389.601322 69.997037 
L 390.236033 69.647176 
L 390.553388 68.197824 
L 390.870744 68.197822 
L 391.82281 66.517995 
L 392.140165 65.851468 
L 392.457521 65.66994 
L 392.774876 64.386182 
L 393.092231 64.368494 
L 394.044298 60.988399 
L 394.361653 60.719623 
L 394.679008 60.67849 
L 394.996364 59.752861 
L 395.313719 59.267297 
L 395.631074 59.059433 
L 395.94843 59.039552 
L 396.58314 56.401963 
L 396.900496 56.401957 
L 397.217851 55.759224 
L 397.535207 54.533653 
L 398.169917 54.345858 
L 398.487273 53.67298 
L 398.487273 53.67298 
" clip-path="url(#p74f1d3350e)" style="fill: none; stroke: #ff7f0e; stroke-width: 1.5; stroke-linecap: square"/>
   </g>
   <g id="patch_3">
    <path d="M 57.6 307.584 
L 57.6 41.472 
" style="fill: none; stroke: #000000; stroke-width: 0.8; stroke-linejoin: miter; stroke-linecap: square"/>
   </g>
   <g id="patch_4">
    <path d="M 414.72 307.584 
L 414.72 41.472 
" style="fill: none; stroke: #000000; stroke-width: 0.8; stroke-linejoin: miter; stroke-linecap: square"/>
   </g>
   <g id="patch_5">
    <path d="M 57.6 307.584 
L 414.72 307.584 
" style="fill: none; stroke: #000000; stroke-width: 0.8; stroke-linejoin: miter; stroke-linecap: square"/>
   </g>
   <g id="patch_6">
    <path d="M 57.6 41.472 
L 414.72 41.472 
" style="fill: none; stroke: #000000; stroke-width: 0.8; stroke-linejoin: miter; stroke-linecap: square"/>
   </g>
   <g id="legend_1">
    <g id="patch_7">
     <path d="M 64.6 78.82825 
L 129.342187 78.82825 
Q 131.342187 78.82825 131.342187 76.82825 
L 131.342187 48.472 
Q 131.342187 46.472 129.342187 46.472 
L 64.6 46.472 
Q 62.6 46.472 62.6 48.472 
L 62.6 76.82825 
Q 62.6 78.82825 64.6 78.82825 
z
" style="fill: #ffffff; opacity: 0.8; stroke: #cccccc; stroke-linejoin: miter"/>
    </g>
    <g id="line2d_16">
     <path d="M 66.6 54.570437 
L 76.6 54.570437 
L 86.6 54.570437 
" style="fill: none; stroke: #1f77b4; stroke-width: 1.5; stroke-linecap: square"/>
    </g>
    <g id="text_16">
     <!-- qc -->
     <g transform="translate(94.6 58.070437) scale(0.1 -0.1)">
      <defs>
       <path id="DejaVuSans-71" d="M 947 1747 
Q 947 1113 1208 752 
Q 1469 391 1925 391 
Q 2381 391 2643 752 
Q 2906 1113 2906 1747 
Q 2906 2381 2643 2742 
Q 2381 3103 1925 3103 
Q 1469 3103 1208 2742 
Q 947 2381 947 1747 
z
M 2906 525 
Q 2725 213 2448 61 
Q 2172 -91 1784 -91 
Q 1150 -91 751 415 
Q 353 922 353 1747 
Q 353 2572 751 3078 
Q 1150 3584 1784 3584 
Q 2172 3584 2448 3432 
Q 2725 3281 2906 2969 
L 2906 3500 
L 3481 3500 
L 3481 -1331 
L 2906 -1331 
L 2906 525 
z
" transform="scale(0.015625)"/>
       <path id="DejaVuSans-63" d="M 3122 3366 
L 3122 2828 
Q 2878 2963 2633 3030 
Q 2388 3097 2138 3097 
Q 1578 3097 1268 2742 
Q 959 2388 959 1747 
Q 959 1106 1268 751 
Q 1578 397 2138 397 
Q 2388 397 2633 464 
Q 2878 531 3122 666 
L 3122 134 
Q 2881 22 2623 -34 
Q 2366 -91 2075 -91 
Q 1284 -91 818 406 
Q 353 903 353 1747 
Q 353 2603 823 3093 
Q 1294 3584 2113 3584 
Q 2378 3584 2631 3529 
Q 2884 3475 3122 3366 
z
" transform="scale(0.015625)"/>
      </defs>
      <use xlink:href="#DejaVuSans-71"/>
      <use xlink:href="#DejaVuSans-63" x="63.476562"/>
     </g>
    </g>
    <g id="line2d_17">
     <path d="M 66.6 69.248562 
L 76.6 69.248562 
L 86.6 69.248562 
" style="fill: none; stroke: #ff7f0e; stroke-width: 1.5; stroke-linecap: square"/>
    </g>
    <g id="text_17">
     <!-- Trotter -->
     <g transform="translate(94.6 72.748562) scale(0.1 -0.1)">
      <defs>
       <path id="DejaVuSans-54" d="M -19 4666 
L 3928 4666 
L 3928 4134 
L 2272 4134 
L 2272 0 
L 1638 0 
L 1638 4134 
L -19 4134 
L -19 4666 
z
" transform="scale(0.015625)"/>
       <path id="DejaVuSans-72" d="M 2631 2963 
Q 2534 3019 2420 3045 
Q 2306 3072 2169 3072 
Q 1681 3072 1420 2755 
Q 1159 2438 1159 1844 
L 1159 0 
L 581 0 
L 581 3500 
L 1159 3500 
L 1159 2956 
Q 1341 3275 1631 3429 
Q 1922 3584 2338 3584 
Q 2397 3584 2469 3576 
Q 2541 3569 2628 3553 
L 2631 2963 
z
" transform="scale(0.015625)"/>
       <path id="DejaVuSans-6f" d="M 1959 3097 
Q 1497 3097 1228 2736 
Q 959 2375 959 1747 
Q 959 1119 1226 758 
Q 1494 397 1959 397 
Q 2419 397 2687 759 
Q 2956 1122 2956 1747 
Q 2956 2369 2687 2733 
Q 2419 3097 1959 3097 
z
M 1959 3584 
Q 2709 3584 3137 3096 
Q 3566 2609 3566 1747 
Q 3566 888 3137 398 
Q 2709 -91 1959 -91 
Q 1206 -91 779 398 
Q 353 888 353 1747 
Q 353 2609 779 3096 
Q 1206 3584 1959 3584 
z
" transform="scale(0.015625)"/>
       <path id="DejaVuSans-65" d="M 3597 1894 
L 3597 1613 
L 953 1613 
Q 991 1019 1311 708 
Q 1631 397 2203 397 
Q 2534 397 2845 478 
Q 3156 559 3463 722 
L 3463 178 
Q 3153 47 2828 -22 
Q 2503 -91 2169 -91 
Q 1331 -91 842 396 
Q 353 884 353 1716 
Q 353 2575 817 3079 
Q 1281 3584 2069 3584 
Q 2775 3584 3186 3129 
Q 3597 2675 3597 1894 
z
M 3022 2063 
Q 3016 2534 2758 2815 
Q 2500 3097 2075 3097 
Q 1594 3097 1305 2825 
Q 1016 2553 972 2059 
L 3022 2063 
z
" transform="scale(0.015625)"/>
      </defs>
      <use xlink:href="#DejaVuSans-54"/>
      <use xlink:href="#DejaVuSans-72" x="46.333984"/>
      <use xlink:href="#DejaVuSans-6f" x="85.197266"/>
      <use xlink:href="#DejaVuSans-74" x="146.378906"/>
      <use xlink:href="#DejaVuSans-74" x="185.587891"/>
      <use xlink:href="#DejaVuSans-65" x="224.796875"/>
      <use xlink:href="#DejaVuSans-72" x="286.320312"/>
     </g>
    </g>
   </g>
  </g>
 </g>
 <defs>
  <clipPath id="p74f1d3350e">
   <rect x="57.6" y="41.472" width="357.12" height="266.112"/>
  </clipPath>
 </defs>
</svg>
