<?xml version="1.0" encoding="utf-8" standalone="no"?>
<!DOCTYPE svg PUBLIC "-//W3C//DTD SVG 1.1//EN"
  "http://www.w3.org/Graphics/SVG/1.1/DTD/svg11.dtd">
<svg xmlns:xlink="http://www.w3.org/1999/xlink" width="460.8pt" height="345.6pt" viewBox="0 0 460.8 345.6" xmlns="http://www.w3.org/2000/svg" version="1.1">
 <metadata>
  <rdf:RDF xmlns:dc="http://purl.org/dc/elements/1.1/" xmlns:cc="http://creativecommons.org/ns#" xmlns:rdf="http://www.w3.org/1999/02/22-rdf-syntax-ns#">
   <cc:Work>
    <dc:type rdf:resource="http://purl.org/dc/dcmitype/StillImage"/>
    <dc:date>2024-08-16T17:37:51.668181</dc:date>
    <dc:format>image/svg+xml</dc:format>
    <dc:creator>
     <cc:Agent>
      <dc:title>Matplotlib v3.7.1, https://matplotlib.org/</dc:title>
     </cc:Agent>
    </dc:creator>
   </cc:Work>
  </rdf:RDF>
 </metadata>
 <defs>
  <style type="text/css">*{stroke-linejoin: round; stroke-linecap: butt}</style>
 </defs>
 <g id="figure_1">
  <g id="patch_1">
   <path d="M 0 345.6 
L 460.8 345.6 
L 460.8 0 
L 0 0 
z
" style="fill: #ffffff"/>
  </g>
  <g id="axes_1">
   <g id="patch_2">
    <path d="M 57.6 307.584 
L 414.72 307.584 
L 414.72 41.472 
L 57.6 41.472 
z
" style="fill: #ffffff"/>
   </g>
   <g id="matplotlib.axis_1">
    <g id="xtick_1">
     <g id="line2d_1">
      <defs>
       <path id="mf7d7aa8aef" d="M 0 0 
L 0 3.5 
" style="stroke: #000000; stroke-width: 0.8"/>
      </defs>
      <g>
       <use xlink:href="#mf7d7aa8aef" x="73.832727" y="307.584" style="stroke: #000000; stroke-width: 0.8"/>
      </g>
     </g>
     <g id="text_1">
      <!-- 0 -->
      <g transform="translate(70.651477 322.182437) scale(0.1 -0.1)">
       <defs>
        <path id="DejaVuSans-30" d="M 2034 4250 
Q 1547 4250 1301 3770 
Q 1056 3291 1056 2328 
Q 1056 1369 1301 889 
Q 1547 409 2034 409 
Q 2525 409 2770 889 
Q 3016 1369 3016 2328 
Q 3016 3291 2770 3770 
Q 2525 4250 2034 4250 
z
M 2034 4750 
Q 2819 4750 3233 4129 
Q 3647 3509 3647 2328 
Q 3647 1150 3233 529 
Q 2819 -91 2034 -91 
Q 1250 -91 836 529 
Q 422 1150 422 2328 
Q 422 3509 836 4129 
Q 1250 4750 2034 4750 
z
" transform="scale(0.015625)"/>
       </defs>
       <use xlink:href="#DejaVuSans-30"/>
      </g>
     </g>
    </g>
    <g id="xtick_2">
     <g id="line2d_2">
      <g>
       <use xlink:href="#mf7d7aa8aef" x="137.303802" y="307.584" style="stroke: #000000; stroke-width: 0.8"/>
      </g>
     </g>
     <g id="text_2">
      <!-- 200 -->
      <g transform="translate(127.760052 322.182437) scale(0.1 -0.1)">
       <defs>
        <path id="DejaVuSans-32" d="M 1228 531 
L 3431 531 
L 3431 0 
L 469 0 
L 469 531 
Q 828 903 1448 1529 
Q 2069 2156 2228 2338 
Q 2531 2678 2651 2914 
Q 2772 3150 2772 3378 
Q 2772 3750 2511 3984 
Q 2250 4219 1831 4219 
Q 1534 4219 1204 4116 
Q 875 4013 500 3803 
L 500 4441 
Q 881 4594 1212 4672 
Q 1544 4750 1819 4750 
Q 2544 4750 2975 4387 
Q 3406 4025 3406 3419 
Q 3406 3131 3298 2873 
Q 3191 2616 2906 2266 
Q 2828 2175 2409 1742 
Q 1991 1309 1228 531 
z
" transform="scale(0.015625)"/>
       </defs>
       <use xlink:href="#DejaVuSans-32"/>
       <use xlink:href="#DejaVuSans-30" x="63.623047"/>
       <use xlink:href="#DejaVuSans-30" x="127.246094"/>
      </g>
     </g>
    </g>
    <g id="xtick_3">
     <g id="line2d_3">
      <g>
       <use xlink:href="#mf7d7aa8aef" x="200.774876" y="307.584" style="stroke: #000000; stroke-width: 0.8"/>
      </g>
     </g>
     <g id="text_3">
      <!-- 400 -->
      <g transform="translate(191.231126 322.182437) scale(0.1 -0.1)">
       <defs>
        <path id="DejaVuSans-34" d="M 2419 4116 
L 825 1625 
L 2419 1625 
L 2419 4116 
z
M 2253 4666 
L 3047 4666 
L 3047 1625 
L 3713 1625 
L 3713 1100 
L 3047 1100 
L 3047 0 
L 2419 0 
L 2419 1100 
L 313 1100 
L 313 1709 
L 2253 4666 
z
" transform="scale(0.015625)"/>
       </defs>
       <use xlink:href="#DejaVuSans-34"/>
       <use xlink:href="#DejaVuSans-30" x="63.623047"/>
       <use xlink:href="#DejaVuSans-30" x="127.246094"/>
      </g>
     </g>
    </g>
    <g id="xtick_4">
     <g id="line2d_4">
      <g>
       <use xlink:href="#mf7d7aa8aef" x="264.24595" y="307.584" style="stroke: #000000; stroke-width: 0.8"/>
      </g>
     </g>
     <g id="text_4">
      <!-- 600 -->
      <g transform="translate(254.7022 322.182437) scale(0.1 -0.1)">
       <defs>
        <path id="DejaVuSans-36" d="M 2113 2584 
Q 1688 2584 1439 2293 
Q 1191 2003 1191 1497 
Q 1191 994 1439 701 
Q 1688 409 2113 409 
Q 2538 409 2786 701 
Q 3034 994 3034 1497 
Q 3034 2003 2786 2293 
Q 2538 2584 2113 2584 
z
M 3366 4563 
L 3366 3988 
Q 3128 4100 2886 4159 
Q 2644 4219 2406 4219 
Q 1781 4219 1451 3797 
Q 1122 3375 1075 2522 
Q 1259 2794 1537 2939 
Q 1816 3084 2150 3084 
Q 2853 3084 3261 2657 
Q 3669 2231 3669 1497 
Q 3669 778 3244 343 
Q 2819 -91 2113 -91 
Q 1303 -91 875 529 
Q 447 1150 447 2328 
Q 447 3434 972 4092 
Q 1497 4750 2381 4750 
Q 2619 4750 2861 4703 
Q 3103 4656 3366 4563 
z
" transform="scale(0.015625)"/>
       </defs>
       <use xlink:href="#DejaVuSans-36"/>
       <use xlink:href="#DejaVuSans-30" x="63.623047"/>
       <use xlink:href="#DejaVuSans-30" x="127.246094"/>
      </g>
     </g>
    </g>
    <g id="xtick_5">
     <g id="line2d_5">
      <g>
       <use xlink:href="#mf7d7aa8aef" x="327.717025" y="307.584" style="stroke: #000000; stroke-width: 0.8"/>
      </g>
     </g>
     <g id="text_5">
      <!-- 800 -->
      <g transform="translate(318.173275 322.182437) scale(0.1 -0.1)">
       <defs>
        <path id="DejaVuSans-38" d="M 2034 2216 
Q 1584 2216 1326 1975 
Q 1069 1734 1069 1313 
Q 1069 891 1326 650 
Q 1584 409 2034 409 
Q 2484 409 2743 651 
Q 3003 894 3003 1313 
Q 3003 1734 2745 1975 
Q 2488 2216 2034 2216 
z
M 1403 2484 
Q 997 2584 770 2862 
Q 544 3141 544 3541 
Q 544 4100 942 4425 
Q 1341 4750 2034 4750 
Q 2731 4750 3128 4425 
Q 3525 4100 3525 3541 
Q 3525 3141 3298 2862 
Q 3072 2584 2669 2484 
Q 3125 2378 3379 2068 
Q 3634 1759 3634 1313 
Q 3634 634 3220 271 
Q 2806 -91 2034 -91 
Q 1263 -91 848 271 
Q 434 634 434 1313 
Q 434 1759 690 2068 
Q 947 2378 1403 2484 
z
M 1172 3481 
Q 1172 3119 1398 2916 
Q 1625 2713 2034 2713 
Q 2441 2713 2670 2916 
Q 2900 3119 2900 3481 
Q 2900 3844 2670 4047 
Q 2441 4250 2034 4250 
Q 1625 4250 1398 4047 
Q 1172 3844 1172 3481 
z
" transform="scale(0.015625)"/>
       </defs>
       <use xlink:href="#DejaVuSans-38"/>
       <use xlink:href="#DejaVuSans-30" x="63.623047"/>
       <use xlink:href="#DejaVuSans-30" x="127.246094"/>
      </g>
     </g>
    </g>
    <g id="xtick_6">
     <g id="line2d_6">
      <g>
       <use xlink:href="#mf7d7aa8aef" x="391.188099" y="307.584" style="stroke: #000000; stroke-width: 0.8"/>
      </g>
     </g>
     <g id="text_6">
      <!-- 1000 -->
      <g transform="translate(378.463099 322.182437) scale(0.1 -0.1)">
       <defs>
        <path id="DejaVuSans-31" d="M 794 531 
L 1825 531 
L 1825 4091 
L 703 3866 
L 703 4441 
L 1819 4666 
L 2450 4666 
L 2450 531 
L 3481 531 
L 3481 0 
L 794 0 
L 794 531 
z
" transform="scale(0.015625)"/>
       </defs>
       <use xlink:href="#DejaVuSans-31"/>
       <use xlink:href="#DejaVuSans-30" x="63.623047"/>
       <use xlink:href="#DejaVuSans-30" x="127.246094"/>
       <use xlink:href="#DejaVuSans-30" x="190.869141"/>
      </g>
     </g>
    </g>
    <g id="text_7">
     <!-- n -->
     <g transform="translate(232.99125 335.860562) scale(0.1 -0.1)">
      <defs>
       <path id="DejaVuSans-6e" d="M 3513 2113 
L 3513 0 
L 2938 0 
L 2938 2094 
Q 2938 2591 2744 2837 
Q 2550 3084 2163 3084 
Q 1697 3084 1428 2787 
Q 1159 2491 1159 1978 
L 1159 0 
L 581 0 
L 581 3500 
L 1159 3500 
L 1159 2956 
Q 1366 3272 1645 3428 
Q 1925 3584 2291 3584 
Q 2894 3584 3203 3211 
Q 3513 2838 3513 2113 
z
" transform="scale(0.015625)"/>
      </defs>
      <use xlink:href="#DejaVuSans-6e"/>
     </g>
    </g>
   </g>
   <g id="matplotlib.axis_2">
    <g id="ytick_1">
     <g id="line2d_7">
      <defs>
       <path id="m16e098ac49" d="M 0 0 
L -3.5 0 
" style="stroke: #000000; stroke-width: 0.8"/>
      </defs>
      <g>
       <use xlink:href="#m16e098ac49" x="57.6" y="290.053919" style="stroke: #000000; stroke-width: 0.8"/>
      </g>
     </g>
     <g id="text_8">
      <!-- −3 -->
      <g transform="translate(35.857813 293.853138) scale(0.1 -0.1)">
       <defs>
        <path id="DejaVuSans-2212" d="M 678 2272 
L 4684 2272 
L 4684 1741 
L 678 1741 
L 678 2272 
z
" transform="scale(0.015625)"/>
        <path id="DejaVuSans-33" d="M 2597 2516 
Q 3050 2419 3304 2112 
Q 3559 1806 3559 1356 
Q 3559 666 3084 287 
Q 2609 -91 1734 -91 
Q 1441 -91 1130 -33 
Q 819 25 488 141 
L 488 750 
Q 750 597 1062 519 
Q 1375 441 1716 441 
Q 2309 441 2620 675 
Q 2931 909 2931 1356 
Q 2931 1769 2642 2001 
Q 2353 2234 1838 2234 
L 1294 2234 
L 1294 2753 
L 1863 2753 
Q 2328 2753 2575 2939 
Q 2822 3125 2822 3475 
Q 2822 3834 2567 4026 
Q 2313 4219 1838 4219 
Q 1578 4219 1281 4162 
Q 984 4106 628 3988 
L 628 4550 
Q 988 4650 1302 4700 
Q 1616 4750 1894 4750 
Q 2613 4750 3031 4423 
Q 3450 4097 3450 3541 
Q 3450 3153 3228 2886 
Q 3006 2619 2597 2516 
z
" transform="scale(0.015625)"/>
       </defs>
       <use xlink:href="#DejaVuSans-2212"/>
       <use xlink:href="#DejaVuSans-33" x="83.789062"/>
      </g>
     </g>
    </g>
    <g id="ytick_2">
     <g id="line2d_8">
      <g>
       <use xlink:href="#m16e098ac49" x="57.6" y="251.516087" style="stroke: #000000; stroke-width: 0.8"/>
      </g>
     </g>
     <g id="text_9">
      <!-- −2 -->
      <g transform="translate(35.857813 255.315306) scale(0.1 -0.1)">
       <use xlink:href="#DejaVuSans-2212"/>
       <use xlink:href="#DejaVuSans-32" x="83.789062"/>
      </g>
     </g>
    </g>
    <g id="ytick_3">
     <g id="line2d_9">
      <g>
       <use xlink:href="#m16e098ac49" x="57.6" y="212.978255" style="stroke: #000000; stroke-width: 0.8"/>
      </g>
     </g>
     <g id="text_10">
      <!-- −1 -->
      <g transform="translate(35.857813 216.777473) scale(0.1 -0.1)">
       <use xlink:href="#DejaVuSans-2212"/>
       <use xlink:href="#DejaVuSans-31" x="83.789062"/>
      </g>
     </g>
    </g>
    <g id="ytick_4">
     <g id="line2d_10">
      <g>
       <use xlink:href="#m16e098ac49" x="57.6" y="174.440422" style="stroke: #000000; stroke-width: 0.8"/>
      </g>
     </g>
     <g id="text_11">
      <!-- 0 -->
      <g transform="translate(44.2375 178.239641) scale(0.1 -0.1)">
       <use xlink:href="#DejaVuSans-30"/>
      </g>
     </g>
    </g>
    <g id="ytick_5">
     <g id="line2d_11">
      <g>
       <use xlink:href="#m16e098ac49" x="57.6" y="135.90259" style="stroke: #000000; stroke-width: 0.8"/>
      </g>
     </g>
     <g id="text_12">
      <!-- 1 -->
      <g transform="translate(44.2375 139.701809) scale(0.1 -0.1)">
       <use xlink:href="#DejaVuSans-31"/>
      </g>
     </g>
    </g>
    <g id="ytick_6">
     <g id="line2d_12">
      <g>
       <use xlink:href="#m16e098ac49" x="57.6" y="97.364758" style="stroke: #000000; stroke-width: 0.8"/>
      </g>
     </g>
     <g id="text_13">
      <!-- 2 -->
      <g transform="translate(44.2375 101.163977) scale(0.1 -0.1)">
       <use xlink:href="#DejaVuSans-32"/>
      </g>
     </g>
    </g>
    <g id="ytick_7">
     <g id="line2d_13">
      <g>
       <use xlink:href="#m16e098ac49" x="57.6" y="58.826926" style="stroke: #000000; stroke-width: 0.8"/>
      </g>
     </g>
     <g id="text_14">
      <!-- 3 -->
      <g transform="translate(44.2375 62.626145) scale(0.1 -0.1)">
       <use xlink:href="#DejaVuSans-33"/>
      </g>
     </g>
    </g>
    <g id="text_15">
     <!-- E*t -->
     <g transform="translate(29.778125 182.147531) rotate(-90) scale(0.1 -0.1)">
      <defs>
       <path id="DejaVuSans-45" d="M 628 4666 
L 3578 4666 
L 3578 4134 
L 1259 4134 
L 1259 2753 
L 3481 2753 
L 3481 2222 
L 1259 2222 
L 1259 531 
L 3634 531 
L 3634 0 
L 628 0 
L 628 4666 
z
" transform="scale(0.015625)"/>
       <path id="DejaVuSans-2a" d="M 3009 3897 
L 1888 3291 
L 3009 2681 
L 2828 2375 
L 1778 3009 
L 1778 1831 
L 1422 1831 
L 1422 3009 
L 372 2375 
L 191 2681 
L 1313 3291 
L 191 3897 
L 372 4206 
L 1422 3572 
L 1422 4750 
L 1778 4750 
L 1778 3572 
L 2828 4206 
L 3009 3897 
z
" transform="scale(0.015625)"/>
       <path id="DejaVuSans-74" d="M 1172 4494 
L 1172 3500 
L 2356 3500 
L 2356 3053 
L 1172 3053 
L 1172 1153 
Q 1172 725 1289 603 
Q 1406 481 1766 481 
L 2356 481 
L 2356 0 
L 1766 0 
Q 1100 0 847 248 
Q 594 497 594 1153 
L 594 3053 
L 172 3053 
L 172 3500 
L 594 3500 
L 594 4494 
L 1172 4494 
z
" transform="scale(0.015625)"/>
      </defs>
      <use xlink:href="#DejaVuSans-45"/>
      <use xlink:href="#DejaVuSans-2a" x="63.183594"/>
      <use xlink:href="#DejaVuSans-74" x="113.183594"/>
     </g>
    </g>
   </g>
   <g id="line2d_14">
    <path d="M 73.832727 295.488 
L 74.150083 294.399111 
L 74.467438 294.392928 
L 75.102149 292.014809 
L 75.419504 291.006929 
L 76.054215 290.839413 
L 76.688926 289.316225 
L 77.323636 288.686332 
L 77.640992 287.599103 
L 77.958347 287.47366 
L 78.275702 287.134906 
L 78.910413 286.039333 
L 79.545124 284.375911 
L 79.862479 283.786434 
L 80.179835 282.805023 
L 81.131901 281.980815 
L 81.449256 280.60213 
L 81.766612 280.47552 
L 82.083967 279.285127 
L 82.401322 279.232362 
L 82.718678 278.931553 
L 83.036033 278.299913 
L 83.353388 278.265651 
L 83.670744 277.523054 
L 83.988099 277.477045 
L 84.940165 276.808884 
L 85.257521 275.933971 
L 85.574876 275.445449 
L 86.844298 271.964703 
L 87.161653 271.898767 
L 87.479008 270.860304 
L 87.796364 270.497147 
L 88.113719 270.304274 
L 88.74843 269.687582 
L 89.38314 267.496552 
L 90.017851 267.260016 
L 90.335207 267.005867 
L 90.652562 266.906713 
L 91.287273 266.091335 
L 91.604628 265.293376 
L 91.921983 264.904443 
L 92.239339 264.728647 
L 92.556694 263.712537 
L 93.191405 263.207312 
L 93.826116 262.76547 
L 94.460826 261.600912 
L 95.095537 261.452705 
L 95.412893 261.095948 
L 95.730248 260.265093 
L 96.047603 260.183766 
L 96.364959 259.4755 
L 96.999669 259.184618 
L 97.317025 258.470959 
L 97.951736 257.829822 
L 98.269091 257.811127 
L 98.586446 257.014196 
L 99.221157 256.854337 
L 99.538512 256.540401 
L 99.855868 256.46421 
L 100.173223 255.481989 
L 100.490579 255.162174 
L 100.807934 254.626784 
L 101.125289 254.52891 
L 101.442645 254.212626 
L 101.76 254.122344 
L 102.077355 252.94329 
L 102.712066 252.836324 
L 103.029421 251.800282 
L 103.346777 251.643312 
L 103.981488 250.964308 
L 104.616198 250.684331 
L 104.933554 249.44991 
L 105.250909 249.141014 
L 105.568264 249.023684 
L 106.202975 248.433436 
L 106.837686 248.305761 
L 107.789752 247.366519 
L 108.107107 247.258138 
L 108.424463 246.88078 
L 108.741818 246.695606 
L 109.376529 245.895355 
L 109.693884 245.696262 
L 110.01124 245.661197 
L 110.328595 245.509877 
L 110.64595 244.679271 
L 110.963306 244.488129 
L 111.280661 243.91761 
L 111.915372 243.62046 
L 112.232727 243.103368 
L 112.867438 242.973995 
L 113.184793 242.610061 
L 113.819504 242.371482 
L 114.13686 242.064369 
L 114.454215 241.262555 
L 115.088926 241.086007 
L 115.406281 240.458163 
L 115.723636 240.397961 
L 116.040992 240.129869 
L 116.358347 240.060415 
L 116.675702 239.461371 
L 117.310413 238.813332 
L 117.627769 238.742958 
L 117.945124 238.059997 
L 118.579835 237.963525 
L 119.214545 237.715194 
L 119.849256 237.454066 
L 120.166612 237.449142 
L 120.801322 237.293326 
L 121.118678 236.701405 
L 121.753388 236.217633 
L 122.070744 236.090069 
L 122.388099 235.598193 
L 123.02281 235.161099 
L 123.657521 234.982194 
L 123.974876 233.941014 
L 124.609587 233.790361 
L 125.244298 233.294066 
L 125.561653 232.807613 
L 125.879008 232.762464 
L 128.100496 231.678454 
L 128.417851 230.457158 
L 128.735207 230.147253 
L 129.052562 230.11318 
L 129.369917 229.907214 
L 129.687273 229.385083 
L 130.321983 229.282005 
L 131.27405 228.444942 
L 131.90876 228.191455 
L 132.226116 227.77218 
L 132.543471 227.600718 
L 132.860826 227.217937 
L 133.178182 227.121127 
L 133.812893 226.717101 
L 134.130248 226.684711 
L 134.447603 226.524921 
L 134.764959 225.694135 
L 135.082314 225.496887 
L 135.399669 225.481451 
L 136.03438 224.911541 
L 136.351736 224.826695 
L 136.669091 224.576989 
L 136.986446 224.131463 
L 137.621157 224.037018 
L 138.255868 223.772432 
L 139.525289 223.614464 
L 140.16 223.358229 
L 140.477355 223.311015 
L 140.794711 223.054136 
L 141.112066 222.275595 
L 142.064132 222.054044 
L 142.381488 221.448953 
L 143.016198 221.370016 
L 143.333554 221.135878 
L 143.968264 220.927503 
L 144.602975 220.110928 
L 144.920331 219.809791 
L 145.237686 219.687083 
L 145.555041 219.44022 
L 145.872397 219.033528 
L 148.41124 218.391897 
L 149.04595 218.231832 
L 149.363306 217.802153 
L 149.680661 217.683476 
L 149.998017 217.362483 
L 150.632727 217.024517 
L 150.950083 216.583565 
L 151.584793 216.432508 
L 151.902149 216.124181 
L 152.53686 215.948275 
L 153.17157 214.9566 
L 153.806281 214.858046 
L 154.123636 214.854704 
L 154.758347 214.44459 
L 155.075702 214.354739 
L 155.393058 213.832477 
L 156.027769 213.75113 
L 156.345124 213.343417 
L 156.979835 213.165135 
L 157.614545 212.860939 
L 157.931901 212.826651 
L 158.566612 212.621358 
L 158.883967 212.524371 
L 159.201322 211.483532 
L 159.518678 211.427104 
L 159.836033 211.157845 
L 161.740165 210.78012 
L 162.057521 210.353202 
L 162.692231 210.236291 
L 163.326942 209.776146 
L 163.644298 209.589671 
L 163.961653 209.246024 
L 164.596364 209.146276 
L 164.913719 208.83196 
L 165.54843 208.575387 
L 165.865785 208.218278 
L 166.18314 208.208723 
L 167.452562 207.699925 
L 168.087273 207.528022 
L 168.404628 206.764136 
L 168.721983 206.530846 
L 169.356694 206.323806 
L 170.30876 205.7466 
L 170.626116 205.12513 
L 171.578182 204.837863 
L 172.212893 204.652189 
L 173.164959 204.545115 
L 174.751736 204.021192 
L 175.069091 203.42367 
L 175.703802 203.279675 
L 176.655868 203.118491 
L 176.973223 202.448717 
L 178.877355 201.894993 
L 179.829421 201.137251 
L 180.146777 201.090608 
L 180.464132 200.866034 
L 181.098843 200.652315 
L 181.733554 199.897938 
L 182.050909 199.889994 
L 182.368264 199.718358 
L 182.68562 199.710954 
L 183.320331 199.406848 
L 184.589752 199.267417 
L 184.907107 198.886661 
L 185.541818 198.797961 
L 187.44595 197.979793 
L 187.763306 197.586171 
L 188.398017 197.458505 
L 189.667438 196.058353 
L 190.93686 195.778228 
L 191.57157 195.417115 
L 192.206281 195.371942 
L 193.475702 194.805076 
L 194.110413 194.702925 
L 194.427769 194.284699 
L 195.062479 194.193848 
L 195.379835 193.893222 
L 196.649256 193.570732 
L 196.966612 193.482613 
L 197.283967 192.337072 
L 197.918678 191.990281 
L 198.870744 191.761932 
L 199.505455 191.66485 
L 199.82281 191.409429 
L 200.774876 191.211259 
L 201.092231 190.955681 
L 201.409587 190.859457 
L 202.044298 190.269016 
L 202.996364 190.113696 
L 203.313719 190.068785 
L 203.631074 189.763001 
L 204.265785 189.615397 
L 204.58314 189.296243 
L 206.804628 188.73967 
L 207.121983 188.522096 
L 207.439339 188.153528 
L 207.756694 187.590956 
L 209.343471 186.923839 
L 209.660826 186.103536 
L 210.612893 185.918683 
L 211.564959 185.698877 
L 213.786446 185.308477 
L 214.103802 185.024803 
L 214.421157 184.938355 
L 214.738512 184.467806 
L 216.007934 184.14702 
L 216.325289 184.126742 
L 216.96 183.523425 
L 217.594711 183.304007 
L 221.720331 181.640588 
L 222.037686 181.597227 
L 222.672397 180.874898 
L 222.989752 180.87029 
L 223.941818 180.533566 
L 225.21124 180.093894 
L 225.84595 179.80326 
L 226.480661 179.611225 
L 226.798017 179.199901 
L 227.115372 179.17568 
L 228.067438 178.495829 
L 228.702149 178.314135 
L 229.33686 178.104765 
L 229.654215 177.885848 
L 229.97157 177.840356 
L 230.606281 177.040657 
L 233.462479 176.236856 
L 233.779835 175.864303 
L 234.731901 175.755883 
L 235.049256 175.713613 
L 235.366612 175.23725 
L 235.683967 175.179204 
L 236.001322 174.957596 
L 236.636033 174.858185 
L 237.270744 174.614885 
L 237.905455 174.502279 
L 238.22281 173.285284 
L 238.857521 172.939893 
L 239.809587 172.812595 
L 241.396364 172.340531 
L 242.34843 171.838921 
L 242.665785 171.249049 
L 243.935207 171.018625 
L 244.252562 170.749419 
L 244.887273 170.652665 
L 245.204628 170.260042 
L 247.10876 169.83054 
L 247.426116 169.509734 
L 248.695537 169.115605 
L 249.012893 168.729141 
L 249.647603 168.678395 
L 250.282314 168.145814 
L 250.599669 168.122548 
L 251.23438 167.815408 
L 251.551736 167.054952 
L 252.821157 166.870842 
L 255.36 166.35265 
L 255.994711 165.442496 
L 257.581488 165.149583 
L 257.898843 165.079934 
L 259.48562 164.07433 
L 259.802975 164.006794 
L 261.072397 163.061742 
L 261.389752 162.92663 
L 261.707107 162.912937 
L 262.341818 162.660456 
L 262.976529 162.553227 
L 265.198017 161.297808 
L 266.150083 161.01824 
L 266.784793 160.866563 
L 267.73686 160.560425 
L 268.37157 159.95168 
L 269.640992 159.290378 
L 270.275702 159.080442 
L 270.593058 158.863723 
L 270.910413 157.974769 
L 271.227769 157.871096 
L 271.545124 157.593928 
L 275.036033 156.520601 
L 275.353388 156.235164 
L 277.574876 155.412936 
L 278.209587 155.199386 
L 279.161653 153.975444 
L 280.113719 153.780574 
L 280.74843 153.639869 
L 281.065785 153.409461 
L 282.017851 153.228679 
L 282.652562 152.203655 
L 283.921983 152.030364 
L 284.239339 151.683229 
L 284.556694 151.667059 
L 284.87405 151.262363 
L 286.460826 150.817199 
L 286.778182 150.800153 
L 287.412893 150.336633 
L 288.047603 150.218177 
L 288.364959 150.098446 
L 288.999669 149.619688 
L 289.317025 149.403643 
L 289.63438 149.390487 
L 289.951736 149.149772 
L 290.586446 149.09269 
L 290.903802 148.338961 
L 291.221157 147.907759 
L 292.807934 147.638962 
L 293.76 147.34144 
L 294.394711 146.41632 
L 295.029421 146.189397 
L 295.664132 146.084346 
L 298.202975 144.704871 
L 299.789752 143.702541 
L 300.107107 143.695393 
L 300.741818 143.336018 
L 301.376529 143.253159 
L 301.693884 142.992307 
L 302.328595 142.733562 
L 302.64595 142.344179 
L 303.915372 141.849555 
L 304.550083 141.728012 
L 305.502149 140.966735 
L 305.819504 140.944604 
L 306.77157 140.472243 
L 308.675702 139.849276 
L 308.993058 139.050042 
L 309.945124 138.485834 
L 310.262479 138.281488 
L 310.579835 138.214041 
L 310.89719 137.847673 
L 311.849256 137.678387 
L 313.118678 136.805588 
L 313.436033 136.793959 
L 314.388099 136.327624 
L 314.705455 136.295772 
L 315.657521 134.848984 
L 316.609587 134.702231 
L 316.926942 134.41705 
L 317.879008 134.268994 
L 318.196364 133.990014 
L 318.513719 133.188198 
L 319.465785 133.086812 
L 320.100496 132.699951 
L 320.417851 132.669876 
L 321.052562 132.051962 
L 321.687273 131.809604 
L 322.004628 131.475515 
L 324.226116 130.752745 
L 325.495537 130.130652 
L 325.812893 129.549717 
L 326.130248 129.314439 
L 326.447603 128.910712 
L 327.082314 128.86235 
L 328.03438 128.331391 
L 328.351736 127.711267 
L 329.303802 127.231975 
L 330.890579 126.873665 
L 331.525289 125.969364 
L 332.477355 125.543696 
L 332.794711 125.073974 
L 334.381488 124.372453 
L 335.016198 124.269214 
L 335.968264 123.765381 
L 336.28562 123.155436 
L 336.602975 123.148439 
L 336.920331 122.835906 
L 337.237686 122.774593 
L 337.555041 122.000388 
L 337.872397 121.967839 
L 339.459174 120.842305 
L 339.776529 120.831151 
L 340.093884 119.97676 
L 341.363306 119.335626 
L 341.680661 118.858636 
L 343.267438 118.331734 
L 343.584793 118.060911 
L 344.854215 117.595723 
L 345.17157 117.321651 
L 345.806281 117.209706 
L 346.123636 116.758621 
L 346.440992 115.844054 
L 347.075702 115.714174 
L 347.393058 115.432881 
L 347.710413 115.326018 
L 348.027769 114.887463 
L 348.345124 114.0807 
L 348.662479 113.775414 
L 348.979835 113.683635 
L 349.29719 113.375691 
L 350.883967 112.812631 
L 351.201322 112.201993 
L 353.105455 111.321904 
L 353.42281 111.059492 
L 353.740165 110.471424 
L 354.057521 110.330257 
L 354.374876 109.92821 
L 355.009587 109.868026 
L 355.326942 109.542638 
L 355.644298 108.739511 
L 356.596364 108.324841 
L 357.231074 108.044881 
L 357.54843 107.897451 
L 358.18314 107.366375 
L 358.500496 106.712611 
L 358.817851 106.675278 
L 359.452562 105.477613 
L 360.404628 105.053262 
L 360.721983 104.039414 
L 361.039339 103.839123 
L 361.356694 103.818147 
L 361.67405 103.0296 
L 362.626116 102.257396 
L 362.943471 102.184798 
L 363.260826 101.772883 
L 363.895537 101.517474 
L 365.164959 100.109437 
L 367.069091 98.790001 
L 367.386446 98.740789 
L 367.703802 98.561961 
L 368.021157 98.089774 
L 368.338512 97.221321 
L 368.655868 96.838699 
L 368.973223 96.708143 
L 369.607934 95.084054 
L 369.925289 94.741683 
L 370.242645 94.71342 
L 370.56 94.30273 
L 371.194711 94.196874 
L 371.512066 93.878205 
L 371.829421 93.218656 
L 372.146777 92.990672 
L 372.464132 92.595029 
L 372.781488 92.539177 
L 373.098843 92.32146 
L 373.416198 92.29425 
L 373.733554 91.404679 
L 374.368264 90.406456 
L 374.68562 89.392317 
L 375.955041 88.867667 
L 376.272397 88.520157 
L 376.589752 87.698332 
L 376.907107 87.644291 
L 377.224463 87.082075 
L 377.541818 87.009599 
L 377.859174 86.685139 
L 378.81124 86.195775 
L 379.128595 84.959183 
L 379.44595 84.79847 
L 379.763306 84.793948 
L 380.080661 83.579901 
L 380.398017 83.387597 
L 380.715372 82.233197 
L 381.032727 81.831628 
L 381.350083 81.022063 
L 381.667438 80.642214 
L 381.984793 80.535648 
L 382.302149 80.106421 
L 383.57157 79.118935 
L 384.523636 77.534069 
L 384.840992 76.106452 
L 385.158347 75.810807 
L 385.475702 75.236499 
L 385.793058 75.231146 
L 386.427769 74.290946 
L 386.745124 73.56983 
L 387.062479 73.357231 
L 387.69719 73.270392 
L 388.331901 72.360123 
L 388.649256 71.375062 
L 388.966612 71.16921 
L 389.283967 70.438631 
L 389.918678 69.869214 
L 390.236033 69.488604 
L 390.553388 67.929701 
L 390.870744 67.86336 
L 391.188099 67.659682 
L 391.505455 67.196972 
L 391.82281 66.201735 
L 392.140165 65.913905 
L 392.457521 65.83018 
L 392.774876 64.542389 
L 393.092231 64.455951 
L 394.044298 60.935882 
L 394.361653 60.754091 
L 394.679008 60.72621 
L 394.996364 59.451045 
L 395.631074 59.1794 
L 395.94843 59.117812 
L 396.265785 57.328245 
L 396.58314 56.182599 
L 396.900496 56.151105 
L 397.217851 55.776725 
L 397.535207 54.394687 
L 398.169917 54.204386 
L 398.487273 53.766068 
L 398.487273 53.766068 
" clip-path="url(#p3f657006d4)" style="fill: none; stroke: #1f77b4; stroke-width: 1.5; stroke-linecap: square"/>
   </g>
   <g id="line2d_15">
    <path d="M 73.832727 295.219233 
L 74.150083 294.530703 
L 74.467438 294.145176 
L 74.784793 292.806409 
L 75.102149 292.279105 
L 75.419504 291.149375 
L 75.73686 291.149375 
L 77.323636 288.804235 
L 77.640992 287.639065 
L 78.593058 286.646197 
L 79.227769 284.908103 
L 79.545124 284.656474 
L 79.862479 283.943714 
L 80.179835 282.942414 
L 80.49719 282.708823 
L 80.814545 282.230748 
L 81.131901 282.01574 
L 81.449256 280.786604 
L 81.766612 280.657313 
L 82.083967 279.359671 
L 82.401322 279.359665 
L 82.718678 278.717261 
L 83.353388 278.438824 
L 83.670744 277.492338 
L 84.305455 277.30464 
L 84.940165 276.632113 
L 85.892231 274.727647 
L 86.844298 272.07315 
L 87.161653 272.073149 
L 87.479008 271.08694 
L 88.113719 270.394197 
L 88.74843 269.874762 
L 89.38314 267.569968 
L 90.017851 267.508552 
L 90.335207 267.252771 
L 90.652562 266.616374 
L 90.969917 266.54678 
L 91.287273 265.831864 
L 91.604628 265.580243 
L 91.921983 265.060251 
L 92.239339 264.867488 
L 92.556694 263.866183 
L 92.87405 263.632599 
L 93.191405 263.154527 
L 93.826116 262.796629 
L 94.143471 262.150775 
L 94.460826 261.846779 
L 95.412893 261.410514 
L 95.730248 260.283442 
L 96.047603 260.283438 
L 96.364959 259.713945 
L 96.682314 259.462955 
L 96.999669 259.362593 
L 97.317025 258.416112 
L 97.63438 258.350555 
L 97.951736 257.928607 
L 98.269091 257.918507 
L 98.586446 257.278615 
L 99.221157 256.934291 
L 99.538512 256.764084 
L 99.855868 256.378254 
L 100.173223 255.651415 
L 100.490579 255.357431 
L 101.125289 254.285378 
L 101.442645 254.126815 
L 101.76 254.126658 
L 102.077355 253.016088 
L 102.712066 252.996924 
L 103.029421 252.01071 
L 103.664132 251.317971 
L 103.981488 251.240656 
L 104.616198 250.798539 
L 104.933554 249.486609 
L 105.568264 249.165259 
L 105.88562 248.692672 
L 106.202975 248.493737 
L 106.837686 248.432331 
L 107.155041 248.176548 
L 107.472397 247.540116 
L 108.107107 247.380527 
L 108.424463 247.00607 
L 108.741818 246.90777 
L 109.693884 245.854093 
L 110.328595 245.734533 
L 110.64595 244.789954 
L 110.963306 244.556374 
L 111.280661 244.078308 
L 111.598017 244.038379 
L 112.550083 243.219601 
L 112.867438 243.074545 
L 113.184793 242.770552 
L 114.13686 242.33429 
L 114.454215 241.267767 
L 115.088926 241.207212 
L 115.406281 240.637721 
L 115.723636 240.386731 
L 116.358347 240.244583 
L 116.675702 239.339886 
L 116.993058 239.274327 
L 117.310413 238.852382 
L 117.627769 238.842281 
L 117.945124 238.202393 
L 118.579835 238.074021 
L 118.89719 237.90162 
L 120.166612 237.627182 
L 120.801322 237.302028 
L 121.118678 236.826626 
L 123.340165 235.054919 
L 123.657521 235.050433 
L 123.974876 233.939867 
L 124.609587 233.920699 
L 124.926942 233.756772 
L 126.196364 232.548395 
L 126.513719 232.521583 
L 126.831074 232.27378 
L 127.465785 232.164432 
L 128.100496 231.722316 
L 128.417851 230.410382 
L 128.735207 230.227951 
L 129.369917 230.089042 
L 129.687273 229.417507 
L 130.321983 229.356109 
L 130.956694 228.930502 
L 131.27405 228.403972 
L 131.90876 228.3043 
L 132.226116 227.929847 
L 132.543471 227.831543 
L 132.860826 227.427783 
L 133.178182 227.292679 
L 133.495537 226.907798 
L 134.130248 226.715037 
L 134.447603 226.658306 
L 134.764959 225.713726 
L 135.717025 225.306813 
L 136.03438 225.002088 
L 136.351736 224.962161 
L 136.986446 224.204756 
L 137.621157 224.143378 
L 138.255868 223.945779 
L 139.525289 223.694326 
L 140.794711 223.258066 
L 141.112066 222.351322 
L 141.746777 222.130987 
L 142.064132 222.130985 
L 142.381488 221.572293 
L 142.698843 221.561498 
L 143.016198 221.310507 
L 143.968264 221.050253 
L 144.28562 220.26366 
L 144.602975 220.1981 
L 144.920331 219.776157 
L 145.237686 219.766056 
L 145.555041 219.566492 
L 145.872397 219.12617 
L 146.507107 218.997794 
L 146.824463 218.825404 
L 148.41124 218.536303 
L 149.04595 218.225801 
L 149.998017 217.498958 
L 150.315372 217.204987 
L 150.632727 217.116375 
L 150.950083 216.663019 
L 151.584793 216.633532 
L 151.902149 216.132923 
L 152.219504 215.978689 
L 152.53686 215.974206 
L 153.488926 214.863645 
L 154.758347 214.680545 
L 155.393058 214.015898 
L 156.027769 213.858252 
L 156.662479 213.23921 
L 157.614545 213.088209 
L 158.249256 212.744118 
L 158.883967 212.646092 
L 159.201322 211.52545 
L 159.836033 211.151725 
L 161.105455 211.012822 
L 161.740165 210.891541 
L 162.057521 210.341277 
L 162.692231 210.279886 
L 163.326942 209.887447 
L 163.644298 209.854265 
L 163.961653 209.32774 
L 164.596364 209.228074 
L 164.913719 208.905127 
L 165.54843 208.755317 
L 165.865785 208.46518 
L 166.500496 208.216452 
L 166.817851 207.913696 
L 168.087273 207.582079 
L 168.404628 206.637499 
L 169.039339 206.413941 
L 169.356694 206.403927 
L 169.67405 206.230595 
L 169.991405 205.925868 
L 170.30876 205.885942 
L 170.626116 205.128523 
L 171.260826 205.067154 
L 171.895537 204.869544 
L 173.164959 204.618102 
L 174.751736 204.07334 
L 175.069091 203.544693 
L 175.386446 203.379441 
L 175.703802 203.348899 
L 176.021157 203.115307 
L 176.655868 203.054759 
L 176.973223 202.496067 
L 177.290579 202.485275 
L 177.607934 202.234283 
L 179.194711 201.804063 
L 179.512066 201.187433 
L 180.464132 201.031952 
L 180.781488 200.699932 
L 181.098843 200.689831 
L 181.416198 200.490258 
L 181.733554 200.049947 
L 182.050909 200.011486 
L 182.368264 199.749188 
L 183.955041 199.460071 
L 184.589752 199.149575 
L 185.224463 198.93615 
L 185.541818 198.893886 
L 186.176529 198.436146 
L 186.81124 198.408965 
L 187.128595 198.128763 
L 187.44595 198.040147 
L 187.763306 197.58679 
L 188.398017 197.55731 
L 188.715372 197.056695 
L 189.032727 196.902459 
L 189.667438 196.200738 
L 190.619504 195.768252 
L 190.93686 195.76825 
L 191.57157 195.604319 
L 191.888926 195.591836 
L 192.206281 195.347351 
L 192.840992 195.283093 
L 193.158347 194.939678 
L 193.475702 194.93572 
L 194.110413 194.782024 
L 194.745124 194.121332 
L 195.379835 194.011987 
L 195.69719 193.799892 
L 196.331901 193.667908 
L 196.966612 193.569869 
L 197.283967 192.449213 
L 197.601322 192.0755 
L 198.553388 191.93921 
L 199.82281 191.515077 
L 200.140165 191.265047 
L 200.774876 191.203661 
L 201.409587 190.811227 
L 201.726942 190.778028 
L 202.044298 190.264767 
L 203.313719 190.151848 
L 203.631074 189.828898 
L 204.265785 189.679091 
L 204.58314 189.388977 
L 205.217851 189.275327 
L 206.169917 189.071669 
L 206.804628 188.562588 
L 207.121983 188.505852 
L 207.439339 188.166259 
L 207.756694 187.430349 
L 209.026116 186.986466 
L 209.343471 186.849649 
L 209.660826 186.052295 
L 210.612893 185.990929 
L 211.247603 185.805346 
L 212.199669 185.739204 
L 212.517025 185.576572 
L 213.469091 185.405462 
L 214.421157 184.997105 
L 214.738512 184.468472 
L 215.373223 184.303211 
L 215.690579 184.272679 
L 216.007934 183.978535 
L 216.642645 183.892322 
L 216.96 183.78768 
L 217.277355 183.419842 
L 217.594711 183.409053 
L 217.912066 183.280326 
L 218.229421 183.015907 
L 219.181488 182.727827 
L 219.816198 182.111207 
L 221.08562 181.955732 
L 221.402975 181.676551 
L 222.355041 181.414026 
L 222.672397 180.973722 
L 222.989752 180.93526 
L 223.307107 180.672971 
L 224.259174 180.459189 
L 225.21124 180.220089 
L 225.528595 179.906547 
L 226.163306 179.817643 
L 227.432727 178.96392 
L 227.750083 178.854337 
L 228.067438 178.510562 
L 228.384793 178.481087 
L 228.702149 178.302143 
L 229.019504 178.273776 
L 229.33686 177.980467 
L 229.97157 177.82623 
L 230.606281 177.124499 
L 231.558347 176.692028 
L 231.875702 176.692027 
L 232.510413 176.528096 
L 233.145124 176.421265 
L 234.731901 175.739502 
L 235.049256 175.705797 
L 235.683967 175.045107 
L 236.318678 174.935766 
L 236.636033 174.72367 
L 237.270744 174.591697 
L 237.905455 174.493645 
L 238.22281 173.372978 
L 238.540165 172.999276 
L 239.809587 172.862988 
L 241.079008 172.438854 
L 241.396364 172.188818 
L 241.713719 172.188818 
L 242.031074 172.076467 
L 242.98314 171.188531 
L 243.935207 171.075623 
L 244.252562 170.752669 
L 244.887273 170.602865 
L 245.204628 170.31277 
L 245.839339 170.1991 
L 246.791405 169.995436 
L 247.10876 169.679117 
L 248.378182 169.391127 
L 249.012893 168.834846 
L 249.330248 168.721615 
L 249.647603 168.354121 
L 250.599669 168.078155 
L 250.917025 167.80499 
L 251.23438 167.77343 
L 251.551736 167.19131 
L 251.869091 166.965708 
L 252.821157 166.914703 
L 253.455868 166.729128 
L 255.36 166.329237 
L 255.994711 165.392249 
L 257.264132 165.196459 
L 257.581488 164.902309 
L 258.533554 164.816085 
L 258.850909 164.343617 
L 259.168264 164.332832 
L 259.48562 164.204088 
L 260.120331 163.752003 
L 260.437686 163.651592 
L 261.072397 163.001881 
L 261.707107 162.879509 
L 262.659174 162.573586 
L 263.293884 162.537382 
L 263.61124 162.337795 
L 263.928595 161.859035 
L 264.24595 161.596753 
L 264.880661 161.506141 
L 265.198017 161.307609 
L 266.150083 161.143868 
L 266.784793 160.830329 
L 267.419504 160.741403 
L 268.054215 160.256532 
L 268.37157 159.887694 
L 269.006281 159.65834 
L 269.640992 159.225927 
L 269.958347 159.197548 
L 270.593058 158.750002 
L 270.910413 157.882626 
L 275.036033 156.535288 
L 275.670744 155.96888 
L 275.988099 155.951007 
L 276.305455 155.647449 
L 277.574876 155.476688 
L 277.892231 155.318907 
L 278.209587 155.314548 
L 278.526942 154.905056 
L 279.161653 153.902671 
L 279.796364 153.788282 
L 280.431074 153.708361 
L 281.38314 153.362632 
L 281.700496 153.112591 
L 282.017851 153.11259 
L 282.335207 152.836306 
L 282.652562 152.166189 
L 283.921983 151.999399 
L 284.239339 151.676442 
L 285.826116 150.987774 
L 286.460826 150.919204 
L 286.778182 150.60289 
L 288.047603 150.326629 
L 288.682314 149.75863 
L 288.999669 149.645387 
L 289.317025 149.368536 
L 290.586446 149.001934 
L 291.221157 147.88948 
L 291.538512 147.867162 
L 291.855868 147.693405 
L 293.442645 147.382542 
L 293.76 147.283485 
L 294.394711 146.272065 
L 296.298843 145.739849 
L 296.933554 145.267394 
L 297.250909 145.256612 
L 297.568264 145.127854 
L 298.202975 144.67577 
L 298.520331 144.575358 
L 299.155041 143.92566 
L 299.472397 143.915966 
L 300.107107 143.526071 
L 300.741818 143.461157 
L 301.059174 143.261566 
L 301.376529 143.241339 
L 302.01124 142.782811 
L 302.64595 142.231379 
L 303.598017 142.067645 
L 304.232727 141.754109 
L 304.867438 141.653639 
L 305.184793 141.166244 
L 305.502149 140.904019 
L 306.454215 140.56283 
L 306.77157 140.378672 
L 307.088926 140.358108 
L 307.406281 140.149708 
L 307.723636 140.12132 
L 308.358347 139.828011 
L 308.675702 139.673775 
L 308.993058 139.084535 
L 309.310413 138.806395 
L 309.627769 138.700357 
L 309.945124 138.402591 
L 310.579835 138.268822 
L 310.89719 137.85354 
L 312.166612 137.459058 
L 312.801322 136.915888 
L 313.436033 136.85508 
L 313.753388 136.552966 
L 314.705455 136.238329 
L 315.02281 135.82882 
L 315.657521 134.722692 
L 316.609587 134.632137 
L 316.926942 134.561096 
L 317.561653 134.036363 
L 318.196364 133.962206 
L 318.513719 133.089953 
L 319.78314 132.905234 
L 320.100496 132.600216 
L 320.735207 132.332298 
L 321.052562 131.985581 
L 321.687273 131.894363 
L 322.004628 131.435435 
L 322.639339 131.27717 
L 323.27405 131.174171 
L 323.591405 130.937577 
L 323.90876 130.868802 
L 325.178182 130.109 
L 325.495537 130.081515 
L 325.812893 129.442853 
L 326.130248 129.383858 
L 326.447603 128.813251 
L 326.764959 128.790941 
L 327.717025 128.347883 
L 328.03438 128.306315 
L 328.351736 127.732387 
L 328.986446 127.195833 
L 329.621157 127.074527 
L 330.573223 126.970987 
L 330.890579 126.739023 
L 331.525289 125.787228 
L 331.842645 125.770835 
L 332.477355 125.499125 
L 332.794711 124.84944 
L 333.429421 124.75801 
L 334.064132 124.449852 
L 334.698843 124.407129 
L 336.920331 122.766611 
L 337.237686 122.677889 
L 337.555041 121.827809 
L 338.507107 121.486603 
L 339.459174 120.847251 
L 339.776529 120.597548 
L 340.093884 119.855301 
L 340.728595 119.624125 
L 341.04595 119.326363 
L 341.363306 119.286907 
L 341.680661 118.777323 
L 342.315372 118.680265 
L 342.632727 118.382829 
L 342.950083 118.372455 
L 343.267438 118.091054 
L 343.584793 118.062962 
L 343.902149 117.839655 
L 344.53686 117.778862 
L 344.854215 117.476734 
L 345.806281 117.162109 
L 346.123636 116.752587 
L 346.440992 115.646459 
L 347.075702 115.634317 
L 347.710413 114.960135 
L 348.027769 114.885965 
L 348.345124 113.959826 
L 348.662479 113.828989 
L 348.979835 113.524237 
L 349.29719 113.52399 
L 349.931901 112.909352 
L 350.883967 112.818116 
L 351.201322 112.174175 
L 351.518678 111.895716 
L 352.153388 111.792593 
L 352.470744 111.532777 
L 352.788099 111.492935 
L 353.42281 111.005295 
L 353.740165 110.366632 
L 354.057521 110.307616 
L 354.374876 109.737022 
L 354.692231 109.714718 
L 355.326942 109.271655 
L 355.644298 108.656151 
L 355.961653 108.595553 
L 356.913719 108.035996 
L 357.54843 107.894755 
L 357.865785 107.686351 
L 358.500496 106.694582 
L 358.817851 106.523306 
L 359.135207 105.773221 
L 359.452562 105.344915 
L 359.769917 105.330924 
L 360.404628 104.918522 
L 360.721983 103.892606 
L 361.039339 103.71115 
L 361.356694 103.690384 
L 361.67405 102.751596 
L 363.260826 101.771006 
L 363.578182 101.692095 
L 364.212893 101.259144 
L 364.847603 100.250136 
L 365.482314 99.701107 
L 365.799669 99.671929 
L 366.43438 98.986748 
L 366.751736 98.763423 
L 367.386446 98.702641 
L 368.021157 98.187562 
L 368.338512 97.084214 
L 368.655868 96.570227 
L 368.973223 96.559606 
L 369.607934 94.883593 
L 369.925289 94.752748 
L 370.242645 94.448008 
L 370.56 94.447766 
L 370.877355 94.179846 
L 371.194711 94.094243 
L 371.512066 93.805629 
L 371.829421 93.09795 
L 372.146777 92.716382 
L 373.416198 92.139851 
L 373.733554 91.231374 
L 375.002975 89.04337 
L 376.272397 88.610102 
L 376.589752 87.618331 
L 377.541818 86.989164 
L 378.176529 86.268693 
L 378.493884 86.254717 
L 378.81124 86.012634 
L 379.128595 84.816368 
L 379.44595 84.634924 
L 379.763306 84.614156 
L 380.080661 83.351843 
L 380.398017 83.334153 
L 380.715372 82.182935 
L 381.667438 80.595682 
L 382.302149 79.910531 
L 382.619504 79.687193 
L 382.93686 79.646082 
L 383.888926 78.720932 
L 384.523636 77.352795 
L 384.840992 75.80736 
L 385.158347 75.785716 
L 385.793058 75.103619 
L 386.110413 74.729391 
L 386.745124 73.504449 
L 387.69719 73.063626 
L 388.331901 72.155133 
L 388.649256 71.466586 
L 388.966612 71.081073 
L 389.283967 70.29015 
L 389.601322 69.883535 
L 390.236033 69.533857 
L 390.553388 68.085261 
L 390.870744 68.085259 
L 391.82281 66.406309 
L 392.140165 65.74013 
L 392.457521 65.558697 
L 392.774876 64.275609 
L 393.092231 64.25793 
L 394.044298 60.879599 
L 394.361653 60.610964 
L 394.679008 60.569853 
L 394.996364 59.644707 
L 395.313719 59.159396 
L 395.631074 58.95164 
L 395.94843 58.93177 
L 396.58314 56.295558 
L 396.900496 56.295552 
L 397.217851 55.653155 
L 397.535207 54.428223 
L 398.169917 54.240527 
L 398.487273 53.568 
L 398.487273 53.568 
" clip-path="url(#p3f657006d4)" style="fill: none; stroke: #ff7f0e; stroke-width: 1.5; stroke-linecap: square"/>
   </g>
   <g id="patch_3">
    <path d="M 57.6 307.584 
L 57.6 41.472 
" style="fill: none; stroke: #000000; stroke-width: 0.8; stroke-linejoin: miter; stroke-linecap: square"/>
   </g>
   <g id="patch_4">
    <path d="M 414.72 307.584 
L 414.72 41.472 
" style="fill: none; stroke: #000000; stroke-width: 0.8; stroke-linejoin: miter; stroke-linecap: square"/>
   </g>
   <g id="patch_5">
    <path d="M 57.6 307.584 
L 414.72 307.584 
" style="fill: none; stroke: #000000; stroke-width: 0.8; stroke-linejoin: miter; stroke-linecap: square"/>
   </g>
   <g id="patch_6">
    <path d="M 57.6 41.472 
L 414.72 41.472 
" style="fill: none; stroke: #000000; stroke-width: 0.8; stroke-linejoin: miter; stroke-linecap: square"/>
   </g>
   <g id="legend_1">
    <g id="patch_7">
     <path d="M 64.6 78.82825 
L 129.342187 78.82825 
Q 131.342187 78.82825 131.342187 76.82825 
L 131.342187 48.472 
Q 131.342187 46.472 129.342187 46.472 
L 64.6 46.472 
Q 62.6 46.472 62.6 48.472 
L 62.6 76.82825 
Q 62.6 78.82825 64.6 78.82825 
z
" style="fill: #ffffff; opacity: 0.8; stroke: #cccccc; stroke-linejoin: miter"/>
    </g>
    <g id="line2d_16">
     <path d="M 66.6 54.570437 
L 76.6 54.570437 
L 86.6 54.570437 
" style="fill: none; stroke: #1f77b4; stroke-width: 1.5; stroke-linecap: square"/>
    </g>
    <g id="text_16">
     <!-- qc -->
     <g transform="translate(94.6 58.070437) scale(0.1 -0.1)">
      <defs>
       <path id="DejaVuSans-71" d="M 947 1747 
Q 947 1113 1208 752 
Q 1469 391 1925 391 
Q 2381 391 2643 752 
Q 2906 1113 2906 1747 
Q 2906 2381 2643 2742 
Q 2381 3103 1925 3103 
Q 1469 3103 1208 2742 
Q 947 2381 947 1747 
z
M 2906 525 
Q 2725 213 2448 61 
Q 2172 -91 1784 -91 
Q 1150 -91 751 415 
Q 353 922 353 1747 
Q 353 2572 751 3078 
Q 1150 3584 1784 3584 
Q 2172 3584 2448 3432 
Q 2725 3281 2906 2969 
L 2906 3500 
L 3481 3500 
L 3481 -1331 
L 2906 -1331 
L 2906 525 
z
" transform="scale(0.015625)"/>
       <path id="DejaVuSans-63" d="M 3122 3366 
L 3122 2828 
Q 2878 2963 2633 3030 
Q 2388 3097 2138 3097 
Q 1578 3097 1268 2742 
Q 959 2388 959 1747 
Q 959 1106 1268 751 
Q 1578 397 2138 397 
Q 2388 397 2633 464 
Q 2878 531 3122 666 
L 3122 134 
Q 2881 22 2623 -34 
Q 2366 -91 2075 -91 
Q 1284 -91 818 406 
Q 353 903 353 1747 
Q 353 2603 823 3093 
Q 1294 3584 2113 3584 
Q 2378 3584 2631 3529 
Q 2884 3475 3122 3366 
z
" transform="scale(0.015625)"/>
      </defs>
      <use xlink:href="#DejaVuSans-71"/>
      <use xlink:href="#DejaVuSans-63" x="63.476562"/>
     </g>
    </g>
    <g id="line2d_17">
     <path d="M 66.6 69.248562 
L 76.6 69.248562 
L 86.6 69.248562 
" style="fill: none; stroke: #ff7f0e; stroke-width: 1.5; stroke-linecap: square"/>
    </g>
    <g id="text_17">
     <!-- Trotter -->
     <g transform="translate(94.6 72.748562) scale(0.1 -0.1)">
      <defs>
       <path id="DejaVuSans-54" d="M -19 4666 
L 3928 4666 
L 3928 4134 
L 2272 4134 
L 2272 0 
L 1638 0 
L 1638 4134 
L -19 4134 
L -19 4666 
z
" transform="scale(0.015625)"/>
       <path id="DejaVuSans-72" d="M 2631 2963 
Q 2534 3019 2420 3045 
Q 2306 3072 2169 3072 
Q 1681 3072 1420 2755 
Q 1159 2438 1159 1844 
L 1159 0 
L 581 0 
L 581 3500 
L 1159 3500 
L 1159 2956 
Q 1341 3275 1631 3429 
Q 1922 3584 2338 3584 
Q 2397 3584 2469 3576 
Q 2541 3569 2628 3553 
L 2631 2963 
z
" transform="scale(0.015625)"/>
       <path id="DejaVuSans-6f" d="M 1959 3097 
Q 1497 3097 1228 2736 
Q 959 2375 959 1747 
Q 959 1119 1226 758 
Q 1494 397 1959 397 
Q 2419 397 2687 759 
Q 2956 1122 2956 1747 
Q 2956 2369 2687 2733 
Q 2419 3097 1959 3097 
z
M 1959 3584 
Q 2709 3584 3137 3096 
Q 3566 2609 3566 1747 
Q 3566 888 3137 398 
Q 2709 -91 1959 -91 
Q 1206 -91 779 398 
Q 353 888 353 1747 
Q 353 2609 779 3096 
Q 1206 3584 1959 3584 
z
" transform="scale(0.015625)"/>
       <path id="DejaVuSans-65" d="M 3597 1894 
L 3597 1613 
L 953 1613 
Q 991 1019 1311 708 
Q 1631 397 2203 397 
Q 2534 397 2845 478 
Q 3156 559 3463 722 
L 3463 178 
Q 3153 47 2828 -22 
Q 2503 -91 2169 -91 
Q 1331 -91 842 396 
Q 353 884 353 1716 
Q 353 2575 817 3079 
Q 1281 3584 2069 3584 
Q 2775 3584 3186 3129 
Q 3597 2675 3597 1894 
z
M 3022 2063 
Q 3016 2534 2758 2815 
Q 2500 3097 2075 3097 
Q 1594 3097 1305 2825 
Q 1016 2553 972 2059 
L 3022 2063 
z
" transform="scale(0.015625)"/>
      </defs>
      <use xlink:href="#DejaVuSans-54"/>
      <use xlink:href="#DejaVuSans-72" x="46.333984"/>
      <use xlink:href="#DejaVuSans-6f" x="85.197266"/>
      <use xlink:href="#DejaVuSans-74" x="146.378906"/>
      <use xlink:href="#DejaVuSans-74" x="185.587891"/>
      <use xlink:href="#DejaVuSans-65" x="224.796875"/>
      <use xlink:href="#DejaVuSans-72" x="286.320312"/>
     </g>
    </g>
   </g>
  </g>
 </g>
 <defs>
  <clipPath id="p3f657006d4">
   <rect x="57.6" y="41.472" width="357.12" height="266.112"/>
  </clipPath>
 </defs>
</svg>
