<?xml version="1.0" encoding="utf-8" standalone="no"?>
<!DOCTYPE svg PUBLIC "-//W3C//DTD SVG 1.1//EN"
  "http://www.w3.org/Graphics/SVG/1.1/DTD/svg11.dtd">
<svg xmlns:xlink="http://www.w3.org/1999/xlink" width="460.8pt" height="345.6pt" viewBox="0 0 460.8 345.6" xmlns="http://www.w3.org/2000/svg" version="1.1">
 <metadata>
  <rdf:RDF xmlns:dc="http://purl.org/dc/elements/1.1/" xmlns:cc="http://creativecommons.org/ns#" xmlns:rdf="http://www.w3.org/1999/02/22-rdf-syntax-ns#">
   <cc:Work>
    <dc:type rdf:resource="http://purl.org/dc/dcmitype/StillImage"/>
    <dc:date>2024-08-16T17:48:46.233005</dc:date>
    <dc:format>image/svg+xml</dc:format>
    <dc:creator>
     <cc:Agent>
      <dc:title>Matplotlib v3.7.1, https://matplotlib.org/</dc:title>
     </cc:Agent>
    </dc:creator>
   </cc:Work>
  </rdf:RDF>
 </metadata>
 <defs>
  <style type="text/css">*{stroke-linejoin: round; stroke-linecap: butt}</style>
 </defs>
 <g id="figure_1">
  <g id="patch_1">
   <path d="M 0 345.6 
L 460.8 345.6 
L 460.8 0 
L 0 0 
z
" style="fill: #ffffff"/>
  </g>
  <g id="axes_1">
   <g id="patch_2">
    <path d="M 57.6 307.584 
L 414.72 307.584 
L 414.72 41.472 
L 57.6 41.472 
z
" style="fill: #ffffff"/>
   </g>
   <g id="matplotlib.axis_1">
    <g id="xtick_1">
     <g id="line2d_1">
      <defs>
       <path id="mfb4d32b892" d="M 0 0 
L 0 3.5 
" style="stroke: #000000; stroke-width: 0.8"/>
      </defs>
      <g>
       <use xlink:href="#mfb4d32b892" x="73.832727" y="307.584" style="stroke: #000000; stroke-width: 0.8"/>
      </g>
     </g>
     <g id="text_1">
      <!-- 0 -->
      <g transform="translate(70.651477 322.182437) scale(0.1 -0.1)">
       <defs>
        <path id="DejaVuSans-30" d="M 2034 4250 
Q 1547 4250 1301 3770 
Q 1056 3291 1056 2328 
Q 1056 1369 1301 889 
Q 1547 409 2034 409 
Q 2525 409 2770 889 
Q 3016 1369 3016 2328 
Q 3016 3291 2770 3770 
Q 2525 4250 2034 4250 
z
M 2034 4750 
Q 2819 4750 3233 4129 
Q 3647 3509 3647 2328 
Q 3647 1150 3233 529 
Q 2819 -91 2034 -91 
Q 1250 -91 836 529 
Q 422 1150 422 2328 
Q 422 3509 836 4129 
Q 1250 4750 2034 4750 
z
" transform="scale(0.015625)"/>
       </defs>
       <use xlink:href="#DejaVuSans-30"/>
      </g>
     </g>
    </g>
    <g id="xtick_2">
     <g id="line2d_2">
      <g>
       <use xlink:href="#mfb4d32b892" x="137.303802" y="307.584" style="stroke: #000000; stroke-width: 0.8"/>
      </g>
     </g>
     <g id="text_2">
      <!-- 200 -->
      <g transform="translate(127.760052 322.182437) scale(0.1 -0.1)">
       <defs>
        <path id="DejaVuSans-32" d="M 1228 531 
L 3431 531 
L 3431 0 
L 469 0 
L 469 531 
Q 828 903 1448 1529 
Q 2069 2156 2228 2338 
Q 2531 2678 2651 2914 
Q 2772 3150 2772 3378 
Q 2772 3750 2511 3984 
Q 2250 4219 1831 4219 
Q 1534 4219 1204 4116 
Q 875 4013 500 3803 
L 500 4441 
Q 881 4594 1212 4672 
Q 1544 4750 1819 4750 
Q 2544 4750 2975 4387 
Q 3406 4025 3406 3419 
Q 3406 3131 3298 2873 
Q 3191 2616 2906 2266 
Q 2828 2175 2409 1742 
Q 1991 1309 1228 531 
z
" transform="scale(0.015625)"/>
       </defs>
       <use xlink:href="#DejaVuSans-32"/>
       <use xlink:href="#DejaVuSans-30" x="63.623047"/>
       <use xlink:href="#DejaVuSans-30" x="127.246094"/>
      </g>
     </g>
    </g>
    <g id="xtick_3">
     <g id="line2d_3">
      <g>
       <use xlink:href="#mfb4d32b892" x="200.774876" y="307.584" style="stroke: #000000; stroke-width: 0.8"/>
      </g>
     </g>
     <g id="text_3">
      <!-- 400 -->
      <g transform="translate(191.231126 322.182437) scale(0.1 -0.1)">
       <defs>
        <path id="DejaVuSans-34" d="M 2419 4116 
L 825 1625 
L 2419 1625 
L 2419 4116 
z
M 2253 4666 
L 3047 4666 
L 3047 1625 
L 3713 1625 
L 3713 1100 
L 3047 1100 
L 3047 0 
L 2419 0 
L 2419 1100 
L 313 1100 
L 313 1709 
L 2253 4666 
z
" transform="scale(0.015625)"/>
       </defs>
       <use xlink:href="#DejaVuSans-34"/>
       <use xlink:href="#DejaVuSans-30" x="63.623047"/>
       <use xlink:href="#DejaVuSans-30" x="127.246094"/>
      </g>
     </g>
    </g>
    <g id="xtick_4">
     <g id="line2d_4">
      <g>
       <use xlink:href="#mfb4d32b892" x="264.24595" y="307.584" style="stroke: #000000; stroke-width: 0.8"/>
      </g>
     </g>
     <g id="text_4">
      <!-- 600 -->
      <g transform="translate(254.7022 322.182437) scale(0.1 -0.1)">
       <defs>
        <path id="DejaVuSans-36" d="M 2113 2584 
Q 1688 2584 1439 2293 
Q 1191 2003 1191 1497 
Q 1191 994 1439 701 
Q 1688 409 2113 409 
Q 2538 409 2786 701 
Q 3034 994 3034 1497 
Q 3034 2003 2786 2293 
Q 2538 2584 2113 2584 
z
M 3366 4563 
L 3366 3988 
Q 3128 4100 2886 4159 
Q 2644 4219 2406 4219 
Q 1781 4219 1451 3797 
Q 1122 3375 1075 2522 
Q 1259 2794 1537 2939 
Q 1816 3084 2150 3084 
Q 2853 3084 3261 2657 
Q 3669 2231 3669 1497 
Q 3669 778 3244 343 
Q 2819 -91 2113 -91 
Q 1303 -91 875 529 
Q 447 1150 447 2328 
Q 447 3434 972 4092 
Q 1497 4750 2381 4750 
Q 2619 4750 2861 4703 
Q 3103 4656 3366 4563 
z
" transform="scale(0.015625)"/>
       </defs>
       <use xlink:href="#DejaVuSans-36"/>
       <use xlink:href="#DejaVuSans-30" x="63.623047"/>
       <use xlink:href="#DejaVuSans-30" x="127.246094"/>
      </g>
     </g>
    </g>
    <g id="xtick_5">
     <g id="line2d_5">
      <g>
       <use xlink:href="#mfb4d32b892" x="327.717025" y="307.584" style="stroke: #000000; stroke-width: 0.8"/>
      </g>
     </g>
     <g id="text_5">
      <!-- 800 -->
      <g transform="translate(318.173275 322.182437) scale(0.1 -0.1)">
       <defs>
        <path id="DejaVuSans-38" d="M 2034 2216 
Q 1584 2216 1326 1975 
Q 1069 1734 1069 1313 
Q 1069 891 1326 650 
Q 1584 409 2034 409 
Q 2484 409 2743 651 
Q 3003 894 3003 1313 
Q 3003 1734 2745 1975 
Q 2488 2216 2034 2216 
z
M 1403 2484 
Q 997 2584 770 2862 
Q 544 3141 544 3541 
Q 544 4100 942 4425 
Q 1341 4750 2034 4750 
Q 2731 4750 3128 4425 
Q 3525 4100 3525 3541 
Q 3525 3141 3298 2862 
Q 3072 2584 2669 2484 
Q 3125 2378 3379 2068 
Q 3634 1759 3634 1313 
Q 3634 634 3220 271 
Q 2806 -91 2034 -91 
Q 1263 -91 848 271 
Q 434 634 434 1313 
Q 434 1759 690 2068 
Q 947 2378 1403 2484 
z
M 1172 3481 
Q 1172 3119 1398 2916 
Q 1625 2713 2034 2713 
Q 2441 2713 2670 2916 
Q 2900 3119 2900 3481 
Q 2900 3844 2670 4047 
Q 2441 4250 2034 4250 
Q 1625 4250 1398 4047 
Q 1172 3844 1172 3481 
z
" transform="scale(0.015625)"/>
       </defs>
       <use xlink:href="#DejaVuSans-38"/>
       <use xlink:href="#DejaVuSans-30" x="63.623047"/>
       <use xlink:href="#DejaVuSans-30" x="127.246094"/>
      </g>
     </g>
    </g>
    <g id="xtick_6">
     <g id="line2d_6">
      <g>
       <use xlink:href="#mfb4d32b892" x="391.188099" y="307.584" style="stroke: #000000; stroke-width: 0.8"/>
      </g>
     </g>
     <g id="text_6">
      <!-- 1000 -->
      <g transform="translate(378.463099 322.182437) scale(0.1 -0.1)">
       <defs>
        <path id="DejaVuSans-31" d="M 794 531 
L 1825 531 
L 1825 4091 
L 703 3866 
L 703 4441 
L 1819 4666 
L 2450 4666 
L 2450 531 
L 3481 531 
L 3481 0 
L 794 0 
L 794 531 
z
" transform="scale(0.015625)"/>
       </defs>
       <use xlink:href="#DejaVuSans-31"/>
       <use xlink:href="#DejaVuSans-30" x="63.623047"/>
       <use xlink:href="#DejaVuSans-30" x="127.246094"/>
       <use xlink:href="#DejaVuSans-30" x="190.869141"/>
      </g>
     </g>
    </g>
    <g id="text_7">
     <!-- n -->
     <g transform="translate(232.99125 335.860562) scale(0.1 -0.1)">
      <defs>
       <path id="DejaVuSans-6e" d="M 3513 2113 
L 3513 0 
L 2938 0 
L 2938 2094 
Q 2938 2591 2744 2837 
Q 2550 3084 2163 3084 
Q 1697 3084 1428 2787 
Q 1159 2491 1159 1978 
L 1159 0 
L 581 0 
L 581 3500 
L 1159 3500 
L 1159 2956 
Q 1366 3272 1645 3428 
Q 1925 3584 2291 3584 
Q 2894 3584 3203 3211 
Q 3513 2838 3513 2113 
z
" transform="scale(0.015625)"/>
      </defs>
      <use xlink:href="#DejaVuSans-6e"/>
     </g>
    </g>
   </g>
   <g id="matplotlib.axis_2">
    <g id="ytick_1">
     <g id="line2d_7">
      <defs>
       <path id="m1af8a81c96" d="M 0 0 
L -3.5 0 
" style="stroke: #000000; stroke-width: 0.8"/>
      </defs>
      <g>
       <use xlink:href="#m1af8a81c96" x="57.6" y="290.044266" style="stroke: #000000; stroke-width: 0.8"/>
      </g>
     </g>
     <g id="text_8">
      <!-- −3 -->
      <g transform="translate(35.857813 293.843485) scale(0.1 -0.1)">
       <defs>
        <path id="DejaVuSans-2212" d="M 678 2272 
L 4684 2272 
L 4684 1741 
L 678 1741 
L 678 2272 
z
" transform="scale(0.015625)"/>
        <path id="DejaVuSans-33" d="M 2597 2516 
Q 3050 2419 3304 2112 
Q 3559 1806 3559 1356 
Q 3559 666 3084 287 
Q 2609 -91 1734 -91 
Q 1441 -91 1130 -33 
Q 819 25 488 141 
L 488 750 
Q 750 597 1062 519 
Q 1375 441 1716 441 
Q 2309 441 2620 675 
Q 2931 909 2931 1356 
Q 2931 1769 2642 2001 
Q 2353 2234 1838 2234 
L 1294 2234 
L 1294 2753 
L 1863 2753 
Q 2328 2753 2575 2939 
Q 2822 3125 2822 3475 
Q 2822 3834 2567 4026 
Q 2313 4219 1838 4219 
Q 1578 4219 1281 4162 
Q 984 4106 628 3988 
L 628 4550 
Q 988 4650 1302 4700 
Q 1616 4750 1894 4750 
Q 2613 4750 3031 4423 
Q 3450 4097 3450 3541 
Q 3450 3153 3228 2886 
Q 3006 2619 2597 2516 
z
" transform="scale(0.015625)"/>
       </defs>
       <use xlink:href="#DejaVuSans-2212"/>
       <use xlink:href="#DejaVuSans-33" x="83.789062"/>
      </g>
     </g>
    </g>
    <g id="ytick_2">
     <g id="line2d_8">
      <g>
       <use xlink:href="#m1af8a81c96" x="57.6" y="251.508007" style="stroke: #000000; stroke-width: 0.8"/>
      </g>
     </g>
     <g id="text_9">
      <!-- −2 -->
      <g transform="translate(35.857813 255.307226) scale(0.1 -0.1)">
       <use xlink:href="#DejaVuSans-2212"/>
       <use xlink:href="#DejaVuSans-32" x="83.789062"/>
      </g>
     </g>
    </g>
    <g id="ytick_3">
     <g id="line2d_9">
      <g>
       <use xlink:href="#m1af8a81c96" x="57.6" y="212.971748" style="stroke: #000000; stroke-width: 0.8"/>
      </g>
     </g>
     <g id="text_10">
      <!-- −1 -->
      <g transform="translate(35.857813 216.770966) scale(0.1 -0.1)">
       <use xlink:href="#DejaVuSans-2212"/>
       <use xlink:href="#DejaVuSans-31" x="83.789062"/>
      </g>
     </g>
    </g>
    <g id="ytick_4">
     <g id="line2d_10">
      <g>
       <use xlink:href="#m1af8a81c96" x="57.6" y="174.435489" style="stroke: #000000; stroke-width: 0.8"/>
      </g>
     </g>
     <g id="text_11">
      <!-- 0 -->
      <g transform="translate(44.2375 178.234707) scale(0.1 -0.1)">
       <use xlink:href="#DejaVuSans-30"/>
      </g>
     </g>
    </g>
    <g id="ytick_5">
     <g id="line2d_11">
      <g>
       <use xlink:href="#m1af8a81c96" x="57.6" y="135.899229" style="stroke: #000000; stroke-width: 0.8"/>
      </g>
     </g>
     <g id="text_12">
      <!-- 1 -->
      <g transform="translate(44.2375 139.698448) scale(0.1 -0.1)">
       <use xlink:href="#DejaVuSans-31"/>
      </g>
     </g>
    </g>
    <g id="ytick_6">
     <g id="line2d_12">
      <g>
       <use xlink:href="#m1af8a81c96" x="57.6" y="97.36297" style="stroke: #000000; stroke-width: 0.8"/>
      </g>
     </g>
     <g id="text_13">
      <!-- 2 -->
      <g transform="translate(44.2375 101.162189) scale(0.1 -0.1)">
       <use xlink:href="#DejaVuSans-32"/>
      </g>
     </g>
    </g>
    <g id="ytick_7">
     <g id="line2d_13">
      <g>
       <use xlink:href="#m1af8a81c96" x="57.6" y="58.826711" style="stroke: #000000; stroke-width: 0.8"/>
      </g>
     </g>
     <g id="text_14">
      <!-- 3 -->
      <g transform="translate(44.2375 62.62593) scale(0.1 -0.1)">
       <use xlink:href="#DejaVuSans-33"/>
      </g>
     </g>
    </g>
    <g id="text_15">
     <!-- E*t -->
     <g transform="translate(29.778125 182.147531) rotate(-90) scale(0.1 -0.1)">
      <defs>
       <path id="DejaVuSans-45" d="M 628 4666 
L 3578 4666 
L 3578 4134 
L 1259 4134 
L 1259 2753 
L 3481 2753 
L 3481 2222 
L 1259 2222 
L 1259 531 
L 3634 531 
L 3634 0 
L 628 0 
L 628 4666 
z
" transform="scale(0.015625)"/>
       <path id="DejaVuSans-2a" d="M 3009 3897 
L 1888 3291 
L 3009 2681 
L 2828 2375 
L 1778 3009 
L 1778 1831 
L 1422 1831 
L 1422 3009 
L 372 2375 
L 191 2681 
L 1313 3291 
L 191 3897 
L 372 4206 
L 1422 3572 
L 1422 4750 
L 1778 4750 
L 1778 3572 
L 2828 4206 
L 3009 3897 
z
" transform="scale(0.015625)"/>
       <path id="DejaVuSans-74" d="M 1172 4494 
L 1172 3500 
L 2356 3500 
L 2356 3053 
L 1172 3053 
L 1172 1153 
Q 1172 725 1289 603 
Q 1406 481 1766 481 
L 2356 481 
L 2356 0 
L 1766 0 
Q 1100 0 847 248 
Q 594 497 594 1153 
L 594 3053 
L 172 3053 
L 172 3500 
L 594 3500 
L 594 4494 
L 1172 4494 
z
" transform="scale(0.015625)"/>
      </defs>
      <use xlink:href="#DejaVuSans-45"/>
      <use xlink:href="#DejaVuSans-2a" x="63.183594"/>
      <use xlink:href="#DejaVuSans-74" x="113.183594"/>
     </g>
    </g>
   </g>
   <g id="line2d_14">
    <path d="M 73.832727 295.488 
L 74.784793 293.935117 
L 75.102149 292.262637 
L 75.419504 291.958728 
L 75.73686 290.902752 
L 76.054215 290.777685 
L 77.323636 288.636495 
L 77.640992 288.359277 
L 77.958347 287.258627 
L 78.593058 286.724879 
L 78.910413 286.430909 
L 79.862479 284.195224 
L 80.179835 283.550576 
L 80.49719 282.510089 
L 80.814545 282.379438 
L 81.131901 281.874147 
L 81.449256 281.82497 
L 81.766612 280.288646 
L 82.083967 280.227637 
L 82.401322 279.111251 
L 82.718678 279.070233 
L 83.036033 278.23142 
L 83.670744 277.983737 
L 83.988099 277.163919 
L 84.940165 276.712437 
L 85.574876 275.794267 
L 86.844298 272.796644 
L 87.161653 271.797206 
L 87.479008 271.662621 
L 87.796364 270.635717 
L 88.431074 269.986402 
L 89.065785 269.5065 
L 89.38314 268.124379 
L 89.700496 267.372271 
L 90.017851 267.330235 
L 90.335207 267.129812 
L 91.287273 266.088796 
L 91.604628 265.382617 
L 92.556694 264.448565 
L 92.87405 263.41718 
L 93.191405 263.267996 
L 93.50876 262.763857 
L 93.826116 262.645103 
L 95.095537 261.16044 
L 95.412893 261.150298 
L 95.730248 260.88878 
L 96.047603 260.013849 
L 96.364959 259.94153 
L 96.999669 259.011061 
L 97.317025 258.882274 
L 97.63438 258.036555 
L 98.586446 257.590961 
L 98.903802 256.712923 
L 99.538512 256.66324 
L 100.173223 255.933617 
L 100.490579 255.126055 
L 100.807934 255.022998 
L 101.125289 254.293095 
L 102.077355 253.649545 
L 102.394711 252.675804 
L 103.029421 252.492625 
L 103.346777 251.534217 
L 103.981488 250.858616 
L 104.933554 250.373444 
L 105.250909 248.996504 
L 105.568264 248.919489 
L 106.202975 248.290649 
L 106.837686 248.193533 
L 107.472397 247.639179 
L 108.107107 247.115329 
L 108.424463 246.96942 
L 109.693884 245.695185 
L 110.328595 245.387854 
L 110.64595 245.32836 
L 110.963306 244.298238 
L 111.280661 244.149084 
L 111.598017 243.639746 
L 111.915372 243.486776 
L 112.550083 242.914506 
L 113.184793 242.745801 
L 113.819504 242.058462 
L 114.13686 242.015863 
L 114.454215 241.754529 
L 114.77157 240.902 
L 115.406281 240.775752 
L 116.040992 239.891526 
L 116.675702 239.753049 
L 116.993058 238.897366 
L 117.945124 238.472283 
L 118.262479 237.878426 
L 118.579835 237.614632 
L 119.849256 237.407119 
L 120.483967 236.96891 
L 121.118678 236.797682 
L 122.070744 235.933033 
L 122.388099 235.88589 
L 122.705455 235.172885 
L 123.02281 234.921645 
L 123.657521 234.830748 
L 123.974876 234.515594 
L 124.292231 233.540326 
L 125.561653 233.014479 
L 125.879008 232.411313 
L 126.196364 232.379497 
L 126.831074 231.975212 
L 127.14843 231.967031 
L 127.78314 231.61422 
L 128.100496 231.570412 
L 128.417851 231.236305 
L 128.735207 229.870337 
L 129.369917 229.789813 
L 130.004628 229.193178 
L 130.321983 229.101646 
L 131.591405 228.006246 
L 132.226116 227.810563 
L 133.178182 227.035051 
L 133.812893 226.567186 
L 134.447603 226.219839 
L 134.764959 226.183905 
L 135.082314 225.24012 
L 136.03438 224.979131 
L 136.351736 224.498404 
L 136.669091 224.369392 
L 137.303802 223.772665 
L 138.255868 223.651867 
L 139.207934 223.292242 
L 140.16 223.187629 
L 140.477355 222.937165 
L 140.794711 222.867764 
L 141.112066 222.620199 
L 141.429421 221.777322 
L 142.064132 221.646479 
L 142.381488 221.642952 
L 142.698843 221.200877 
L 143.016198 221.167721 
L 143.333554 220.772064 
L 144.28562 220.594732 
L 144.602975 219.746533 
L 145.555041 219.339281 
L 146.824463 218.465847 
L 147.776529 218.290133 
L 149.998017 217.370002 
L 150.315372 216.849537 
L 150.950083 216.754308 
L 151.267438 216.316884 
L 152.53686 215.737268 
L 153.17157 215.176831 
L 153.488926 214.600042 
L 154.758347 214.23614 
L 155.075702 214.14025 
L 156.027769 213.2805 
L 156.345124 213.262897 
L 157.29719 212.60623 
L 157.931901 212.485311 
L 158.566612 212.436908 
L 158.883967 212.173432 
L 159.201322 212.094767 
L 159.518678 211.132255 
L 159.836033 210.841959 
L 160.788099 210.667874 
L 161.105455 210.638985 
L 161.740165 210.41594 
L 162.057521 210.327547 
L 163.009587 209.697891 
L 164.279008 208.924678 
L 164.913719 208.835875 
L 165.54843 208.415043 
L 166.18314 207.929792 
L 166.500496 207.886781 
L 167.769917 207.157156 
L 168.404628 207.038067 
L 168.721983 206.139976 
L 169.039339 205.972402 
L 169.991405 205.845583 
L 170.30876 205.335992 
L 170.626116 205.239885 
L 170.943471 204.634009 
L 172.530248 204.43006 
L 172.847603 204.346993 
L 173.164959 204.138415 
L 173.799669 204.047257 
L 174.117025 203.790512 
L 175.069091 203.485252 
L 176.338512 202.642283 
L 176.655868 202.483995 
L 176.973223 202.477728 
L 177.290579 202.105214 
L 177.607934 202.030234 
L 177.925289 201.726692 
L 179.512066 201.372802 
L 179.829421 200.880392 
L 180.146777 200.636017 
L 180.781488 200.495711 
L 182.050909 199.659126 
L 182.368264 199.37869 
L 183.320331 199.14686 
L 185.541818 198.451827 
L 185.859174 198.421397 
L 187.44595 197.64269 
L 187.763306 197.621646 
L 188.080661 197.206079 
L 189.350083 196.625963 
L 189.667438 196.063366 
L 190.302149 195.476852 
L 190.93686 195.389002 
L 191.57157 195.122684 
L 192.206281 195.009646 
L 192.523636 194.826492 
L 193.158347 194.718804 
L 193.475702 194.497691 
L 193.793058 194.454988 
L 194.110413 194.173231 
L 194.745124 193.950349 
L 195.379835 193.452372 
L 196.014545 193.324998 
L 196.649256 193.255656 
L 197.283967 192.949055 
L 197.601322 192.041373 
L 197.918678 191.742759 
L 200.140165 191.141156 
L 202.044298 190.093462 
L 203.94843 189.48199 
L 205.217851 188.808987 
L 206.169917 188.535836 
L 206.487273 188.483155 
L 207.439339 187.949081 
L 207.756694 187.86558 
L 208.07405 187.018522 
L 208.70876 186.780205 
L 209.026116 186.712931 
L 209.343471 186.505813 
L 210.295537 185.49865 
L 212.199669 185.318352 
L 212.517025 185.230181 
L 212.83438 185.013174 
L 213.469091 184.887299 
L 213.786446 184.61948 
L 214.738512 184.345307 
L 215.055868 184.112208 
L 215.373223 184.045953 
L 215.690579 183.837504 
L 216.007934 183.774704 
L 216.325289 183.521882 
L 216.642645 183.500092 
L 217.594711 182.994955 
L 219.816198 182.097449 
L 220.133554 181.772653 
L 220.450909 181.720507 
L 220.768264 181.450277 
L 221.402975 181.346544 
L 221.720331 181.179252 
L 222.355041 181.050034 
L 222.672397 180.880645 
L 223.307107 180.244618 
L 225.528595 179.710616 
L 226.163306 179.330374 
L 226.480661 179.274901 
L 227.115372 178.807863 
L 227.432727 178.619102 
L 228.067438 178.493917 
L 228.384793 178.077456 
L 229.019504 177.946683 
L 229.33686 177.890743 
L 229.654215 177.532291 
L 230.288926 177.415115 
L 230.606281 176.891136 
L 231.558347 176.275841 
L 231.875702 176.241401 
L 232.510413 175.979189 
L 233.462479 175.849331 
L 234.09719 175.548169 
L 235.049256 175.323109 
L 235.366612 174.930435 
L 236.318678 174.559965 
L 236.636033 174.249035 
L 237.588099 174.110242 
L 237.905455 173.858417 
L 238.22281 173.794461 
L 238.540165 172.921369 
L 238.857521 172.629347 
L 241.396364 172.040141 
L 242.98314 170.999329 
L 244.252562 170.595607 
L 245.521983 169.80137 
L 246.791405 169.416689 
L 247.426116 169.153436 
L 248.060826 168.973031 
L 249.012893 168.818287 
L 249.330248 168.491539 
L 249.647603 168.467968 
L 249.964959 167.875727 
L 251.23438 167.377283 
L 251.551736 166.929647 
L 252.186446 166.581758 
L 255.042645 166.02715 
L 255.36 165.841388 
L 255.677355 165.422255 
L 255.994711 165.381579 
L 258.216198 164.354997 
L 258.533554 164.341572 
L 259.48562 163.708661 
L 260.755041 163.162426 
L 262.024463 162.368668 
L 263.928595 161.732225 
L 264.563306 161.099982 
L 265.515372 160.816506 
L 266.150083 160.76316 
L 266.467438 160.58999 
L 266.784793 160.575141 
L 267.419504 160.151979 
L 267.73686 160.139942 
L 269.640992 158.935176 
L 270.275702 158.847371 
L 270.593058 158.392613 
L 270.910413 158.356218 
L 271.227769 157.544544 
L 271.545124 157.242541 
L 271.862479 157.145157 
L 272.179835 156.876519 
L 272.814545 156.840148 
L 273.449256 156.581731 
L 274.083967 156.436147 
L 275.036033 156.210889 
L 275.353388 156.187868 
L 275.670744 155.684105 
L 275.988099 155.65192 
L 276.62281 155.44257 
L 276.940165 155.070994 
L 278.526942 154.894527 
L 278.844298 154.439376 
L 279.161653 153.770851 
L 279.479008 153.503977 
L 281.38314 152.945266 
L 282.017851 152.657971 
L 282.335207 152.537064 
L 282.652562 152.288137 
L 282.969917 151.883359 
L 285.191405 151.004023 
L 285.50876 150.635734 
L 286.143471 150.528868 
L 286.778182 150.246579 
L 287.095537 150.020145 
L 287.730248 149.892114 
L 288.682314 149.682022 
L 288.999669 149.377513 
L 289.317025 149.357409 
L 289.63438 149.141751 
L 289.951736 148.709369 
L 290.586446 148.589629 
L 290.903802 148.44132 
L 291.538512 147.620627 
L 292.173223 147.150948 
L 293.125289 147.036374 
L 294.077355 146.724615 
L 294.712066 146.12132 
L 295.346777 145.666112 
L 296.298843 145.239525 
L 296.616198 145.208256 
L 297.88562 144.416157 
L 298.520331 144.22182 
L 300.107107 143.175248 
L 300.741818 143.11571 
L 301.059174 142.828308 
L 301.693884 142.711279 
L 302.01124 142.562881 
L 302.64595 141.943775 
L 303.280661 141.64301 
L 304.232727 141.45798 
L 304.867438 141.073833 
L 305.502149 140.889864 
L 306.13686 140.352971 
L 306.77157 140.232231 
L 307.088926 139.943662 
L 307.723636 139.758591 
L 308.358347 139.549683 
L 308.675702 139.250817 
L 308.993058 139.199395 
L 309.310413 138.551944 
L 309.627769 138.416214 
L 309.945124 138.086222 
L 310.262479 137.997567 
L 310.579835 137.712918 
L 310.89719 137.652327 
L 311.214545 137.394076 
L 312.483967 137.045855 
L 313.118678 136.537452 
L 313.436033 136.521182 
L 314.070744 136.368075 
L 314.388099 135.950875 
L 315.02281 135.842441 
L 315.974876 134.367273 
L 316.609587 134.260303 
L 316.926942 133.937569 
L 317.879008 133.667703 
L 318.513719 133.390425 
L 318.831074 132.751644 
L 321.052562 131.832525 
L 321.687273 131.367641 
L 322.004628 131.243331 
L 322.321983 130.903496 
L 322.639339 130.885229 
L 323.27405 130.687772 
L 324.226116 130.546768 
L 324.543471 130.234258 
L 324.860826 130.202698 
L 325.178182 130.031383 
L 325.495537 129.570486 
L 326.130248 129.293773 
L 326.764959 128.48634 
L 327.399669 127.965813 
L 328.03438 127.88084 
L 328.351736 127.735753 
L 328.986446 127.064561 
L 329.938512 126.729686 
L 330.255868 126.542952 
L 330.573223 126.536318 
L 330.890579 126.345053 
L 331.207934 126.31563 
L 331.525289 125.55078 
L 332.16 125.224665 
L 332.794711 124.827592 
L 333.112066 124.396457 
L 333.746777 124.351678 
L 334.064132 124.069866 
L 335.016198 123.958884 
L 335.333554 123.671518 
L 335.650909 123.615875 
L 335.968264 123.050696 
L 336.28562 122.77419 
L 336.602975 122.759171 
L 336.920331 122.629634 
L 337.555041 122.011723 
L 338.189752 121.214302 
L 339.141818 120.813982 
L 339.776529 120.456782 
L 341.04595 118.906566 
L 341.363306 118.83269 
L 341.998017 118.32404 
L 343.267438 118.055777 
L 343.902149 117.609406 
L 344.219504 117.402594 
L 345.17157 117.241426 
L 345.488926 116.838167 
L 346.123636 116.712225 
L 346.440992 116.1442 
L 346.758347 115.219577 
L 347.393058 115.104185 
L 347.710413 114.716084 
L 348.345124 114.2881 
L 348.662479 113.605168 
L 348.979835 113.325834 
L 349.29719 113.316509 
L 349.614545 112.940355 
L 350.249256 112.668409 
L 350.883967 112.185028 
L 351.201322 112.045158 
L 351.836033 111.533909 
L 352.470744 111.420776 
L 352.788099 111.139058 
L 353.105455 111.069232 
L 353.42281 110.883989 
L 354.692231 109.3482 
L 356.596364 107.937337 
L 357.865785 107.457123 
L 358.18314 107.184931 
L 358.500496 106.345999 
L 358.817851 106.336416 
L 359.135207 106.06043 
L 359.452562 105.252997 
L 360.087273 104.885759 
L 360.404628 104.779263 
L 360.721983 104.485123 
L 361.039339 103.660862 
L 361.356694 103.580058 
L 361.67405 103.200465 
L 361.991405 102.484062 
L 362.30876 102.073096 
L 362.626116 101.987559 
L 363.260826 101.497679 
L 363.578182 101.28112 
L 363.895537 101.246707 
L 364.530248 100.855148 
L 364.847603 100.102288 
L 365.164959 99.796829 
L 365.482314 99.650441 
L 365.799669 99.19942 
L 366.43438 99.008556 
L 367.069091 98.46302 
L 367.703802 98.165637 
L 368.021157 98.073978 
L 368.338512 97.69523 
L 368.973223 96.055232 
L 369.290579 95.986305 
L 369.607934 95.389283 
L 369.925289 94.445495 
L 371.194711 93.753994 
L 371.829421 93.560718 
L 372.146777 92.661587 
L 373.733554 91.713466 
L 374.368264 90.209678 
L 374.68562 90.107227 
L 375.002975 88.808487 
L 376.589752 88.091763 
L 376.907107 87.160113 
L 377.224463 86.88611 
L 377.541818 86.883947 
L 379.128595 85.543378 
L 379.44595 84.538125 
L 379.763306 84.407672 
L 380.080661 84.060813 
L 380.398017 83.185737 
L 380.715372 82.852897 
L 381.350083 80.917472 
L 381.667438 80.691254 
L 381.984793 80.019091 
L 382.302149 79.935235 
L 382.619504 79.47851 
L 383.57157 78.897358 
L 383.888926 78.539387 
L 384.206281 78.4403 
L 384.840992 77.153242 
L 385.158347 75.36311 
L 385.793058 75.159401 
L 386.110413 74.513136 
L 386.427769 74.430165 
L 386.745124 73.563379 
L 387.379835 73.076066 
L 387.69719 72.89189 
L 388.014545 72.535496 
L 388.331901 72.477926 
L 389.283967 71.004908 
L 389.601322 69.970212 
L 389.918678 69.317724 
L 390.236033 69.236756 
L 390.553388 68.935102 
L 390.870744 67.859089 
L 391.188099 67.759257 
L 392.140165 66.093357 
L 392.457521 65.39489 
L 392.774876 65.310743 
L 393.092231 64.078904 
L 393.409587 63.718733 
L 394.361653 60.505174 
L 395.94843 58.771784 
L 396.265785 58.55865 
L 396.900496 56.06333 
L 397.217851 56.055129 
L 397.535207 55.275141 
L 397.852562 54.150962 
L 398.487273 53.922527 
L 398.487273 53.922527 
" clip-path="url(#p94923f512a)" style="fill: none; stroke: #1f77b4; stroke-width: 1.5; stroke-linecap: square"/>
   </g>
   <g id="line2d_15">
    <path d="M 73.832727 295.209369 
L 74.150083 294.520867 
L 74.467438 294.135356 
L 74.784793 292.796644 
L 75.102149 292.269361 
L 75.419504 291.139677 
L 75.73686 291.139677 
L 77.323636 288.794632 
L 77.640992 287.62951 
L 78.593058 286.636682 
L 79.227769 284.89866 
L 79.545124 284.647041 
L 79.862479 283.93431 
L 80.179835 282.933051 
L 80.49719 282.69947 
L 80.814545 282.221414 
L 81.131901 282.006415 
L 81.449256 280.777329 
L 81.766612 280.648043 
L 82.083967 279.350454 
L 82.401322 279.350449 
L 82.718678 278.70807 
L 83.353388 278.429645 
L 83.670744 277.483198 
L 84.305455 277.295507 
L 84.940165 276.623008 
L 85.892231 274.71862 
L 86.844298 272.064231 
L 87.161653 272.06423 
L 87.479008 271.078061 
L 88.113719 270.385346 
L 88.74843 269.865932 
L 89.38314 267.561233 
L 90.017851 267.499819 
L 90.335207 267.244048 
L 90.652562 266.607677 
L 90.969917 266.538087 
L 91.287273 265.823199 
L 91.604628 265.571589 
L 91.921983 265.051618 
L 92.239339 264.858862 
L 92.556694 263.857599 
L 92.87405 263.624024 
L 93.191405 263.145972 
L 93.826116 262.788088 
L 94.143471 262.142261 
L 94.460826 261.838277 
L 95.412893 261.402029 
L 95.730248 260.275004 
L 96.047603 260.275 
L 96.364959 259.70553 
L 96.682314 259.45455 
L 96.999669 259.354192 
L 97.317025 258.40775 
L 97.63438 258.342196 
L 97.951736 257.920265 
L 98.269091 257.910165 
L 98.586446 257.2703 
L 99.221157 256.92599 
L 99.538512 256.75579 
L 99.855868 256.369975 
L 100.173223 255.643166 
L 100.490579 255.349194 
L 101.125289 254.277184 
L 101.442645 254.118628 
L 101.76 254.118471 
L 102.077355 253.007946 
L 102.712066 252.988783 
L 103.029421 252.00261 
L 103.664132 251.309899 
L 103.981488 251.232587 
L 104.616198 250.790488 
L 104.933554 249.478612 
L 105.568264 249.157275 
L 105.88562 248.684707 
L 106.202975 248.48578 
L 106.837686 248.424376 
L 107.155041 248.168604 
L 107.472397 247.532198 
L 108.107107 247.372616 
L 108.424463 246.998174 
L 108.741818 246.899878 
L 109.693884 245.846244 
L 110.328595 245.726689 
L 110.64595 244.782149 
L 110.963306 244.548578 
L 111.280661 244.070531 
L 111.598017 244.030604 
L 112.550083 243.21186 
L 112.867438 243.06681 
L 113.184793 242.762829 
L 114.13686 242.326585 
L 114.454215 241.260105 
L 115.088926 241.199552 
L 115.406281 240.630085 
L 115.723636 240.379106 
L 116.358347 240.236963 
L 116.675702 239.332303 
L 116.993058 239.266746 
L 117.310413 238.844819 
L 117.627769 238.834718 
L 117.945124 238.194857 
L 118.579835 238.066489 
L 118.89719 237.894095 
L 120.166612 237.619669 
L 120.801322 237.294528 
L 121.118678 236.819145 
L 123.340165 235.047511 
L 123.657521 235.043025 
L 123.974876 233.932504 
L 124.609587 233.913337 
L 124.926942 233.749417 
L 126.196364 232.541089 
L 126.513719 232.514278 
L 126.831074 232.266486 
L 127.465785 232.157142 
L 128.100496 231.715044 
L 128.417851 230.403164 
L 128.735207 230.22074 
L 129.369917 230.081836 
L 129.687273 229.410329 
L 130.321983 229.348933 
L 130.956694 228.923344 
L 131.27405 228.396836 
L 131.90876 228.297167 
L 132.226116 227.92273 
L 132.543471 227.82443 
L 132.860826 227.420686 
L 133.178182 227.285588 
L 133.495537 226.900723 
L 134.130248 226.707969 
L 134.447603 226.651241 
L 134.764959 225.706699 
L 135.717025 225.299803 
L 136.03438 224.99509 
L 136.351736 224.955165 
L 136.986446 224.19779 
L 137.621157 224.136415 
L 138.255868 223.938824 
L 139.525289 223.687382 
L 140.794711 223.251139 
L 141.112066 222.344432 
L 141.746777 222.124107 
L 142.064132 222.124105 
L 142.381488 221.565435 
L 142.698843 221.55464 
L 143.016198 221.30366 
L 143.968264 221.043417 
L 144.28562 220.256855 
L 144.602975 220.191298 
L 144.920331 219.769373 
L 145.237686 219.759272 
L 145.555041 219.559716 
L 145.872397 219.119412 
L 146.507107 218.991041 
L 146.824463 218.818659 
L 148.41124 218.529569 
L 149.04595 218.21908 
L 149.998017 217.492266 
L 150.315372 217.198307 
L 150.632727 217.109699 
L 150.950083 216.656362 
L 151.584793 216.626876 
L 151.902149 216.126287 
L 152.219504 215.972059 
L 152.53686 215.967577 
L 153.488926 214.857061 
L 154.758347 214.673968 
L 155.393058 214.009348 
L 156.027769 213.851709 
L 156.662479 213.232692 
L 157.614545 213.081697 
L 158.249256 212.73762 
L 158.883967 212.639599 
L 159.201322 211.519002 
L 159.836033 211.145292 
L 161.105455 211.006396 
L 161.740165 210.885119 
L 162.057521 210.334877 
L 162.692231 210.273489 
L 163.326942 209.881066 
L 163.644298 209.847885 
L 163.961653 209.321382 
L 164.596364 209.22172 
L 164.913719 208.898786 
L 165.54843 208.748982 
L 165.865785 208.458857 
L 166.500496 208.210139 
L 166.817851 207.907395 
L 168.087273 207.575793 
L 168.404628 206.631251 
L 169.039339 206.407702 
L 169.356694 206.397689 
L 169.67405 206.224363 
L 169.991405 205.919649 
L 170.30876 205.879724 
L 170.626116 205.122336 
L 171.260826 205.06097 
L 171.895537 204.863368 
L 173.164959 204.611936 
L 174.751736 204.067197 
L 175.069091 203.538571 
L 175.386446 203.373326 
L 175.703802 203.342785 
L 176.021157 203.109202 
L 176.655868 203.048657 
L 176.973223 202.489987 
L 177.290579 202.479196 
L 177.607934 202.228214 
L 179.194711 201.798012 
L 179.512066 201.181408 
L 180.464132 201.025933 
L 180.781488 200.693926 
L 181.098843 200.683825 
L 181.416198 200.484261 
L 181.733554 200.043967 
L 182.050909 200.005508 
L 182.368264 199.743221 
L 183.955041 199.454115 
L 184.589752 199.143632 
L 185.224463 198.930216 
L 185.541818 198.887954 
L 186.176529 198.430232 
L 186.81124 198.403053 
L 187.128595 198.122862 
L 187.44595 198.03425 
L 187.763306 197.580911 
L 188.398017 197.551432 
L 188.715372 197.050838 
L 189.032727 196.896608 
L 189.667438 196.194916 
L 190.619504 195.762447 
L 190.93686 195.762446 
L 191.57157 195.598521 
L 191.888926 195.586039 
L 192.206281 195.341564 
L 192.840992 195.277308 
L 193.158347 194.933907 
L 193.475702 194.92995 
L 194.110413 194.77626 
L 194.745124 194.115595 
L 195.379835 194.006254 
L 195.69719 193.794168 
L 196.331901 193.662189 
L 196.966612 193.564154 
L 197.283967 192.443544 
L 197.601322 192.069846 
L 198.553388 191.933562 
L 199.82281 191.509446 
L 200.140165 191.259426 
L 200.774876 191.198043 
L 201.409587 190.805624 
L 201.726942 190.772427 
L 202.044298 190.259187 
L 203.313719 190.146273 
L 203.631074 189.823335 
L 204.265785 189.673535 
L 204.58314 189.383433 
L 205.217851 189.269787 
L 206.169917 189.066138 
L 206.804628 188.557078 
L 207.121983 188.500344 
L 207.439339 188.160765 
L 207.756694 187.424884 
L 209.026116 186.98102 
L 209.343471 186.844209 
L 209.660826 186.046887 
L 210.612893 185.985524 
L 211.247603 185.799948 
L 212.199669 185.733809 
L 212.517025 185.571184 
L 213.469091 185.400081 
L 214.421157 184.99174 
L 214.738512 184.463128 
L 215.373223 184.297874 
L 215.690579 184.267343 
L 216.007934 183.973211 
L 216.642645 183.887002 
L 216.96 183.782364 
L 217.277355 183.414541 
L 217.594711 183.403753 
L 217.912066 183.275031 
L 218.229421 183.010623 
L 219.181488 182.722554 
L 219.816198 182.10596 
L 221.08562 181.950491 
L 221.402975 181.671322 
L 222.355041 181.408807 
L 222.672397 180.968521 
L 222.989752 180.930061 
L 223.307107 180.667783 
L 224.259174 180.45401 
L 225.21124 180.214919 
L 225.528595 179.901389 
L 226.163306 179.81249 
L 227.432727 178.958801 
L 227.750083 178.849223 
L 228.067438 178.505461 
L 228.384793 178.475988 
L 228.702149 178.297052 
L 229.019504 178.268686 
L 229.33686 177.975389 
L 229.97157 177.821158 
L 230.606281 177.119456 
L 231.558347 176.687002 
L 231.875702 176.687001 
L 232.510413 176.523077 
L 233.145124 176.416251 
L 234.731901 175.734515 
L 235.049256 175.700811 
L 235.683967 175.040148 
L 236.318678 174.930811 
L 236.636033 174.718725 
L 237.270744 174.586756 
L 237.905455 174.488709 
L 238.22281 173.368087 
L 238.540165 172.994401 
L 239.809587 172.858118 
L 241.079008 172.434002 
L 241.396364 172.183976 
L 241.713719 172.183976 
L 242.031074 172.071629 
L 242.98314 171.18373 
L 243.935207 171.070827 
L 244.252562 170.747886 
L 244.887273 170.598087 
L 245.204628 170.308004 
L 245.839339 170.194339 
L 246.791405 169.990683 
L 247.10876 169.674378 
L 248.378182 169.386399 
L 249.012893 168.830141 
L 249.330248 168.716914 
L 249.647603 168.349435 
L 250.599669 168.073481 
L 250.917025 167.800327 
L 251.23438 167.768769 
L 251.551736 167.186672 
L 251.869091 166.961079 
L 252.821157 166.910076 
L 253.455868 166.724509 
L 255.36 166.324634 
L 255.994711 165.387685 
L 257.264132 165.191902 
L 257.581488 164.897764 
L 258.533554 164.811544 
L 258.850909 164.339096 
L 259.168264 164.328311 
L 259.48562 164.199571 
L 260.120331 163.747506 
L 260.437686 163.647098 
L 261.072397 162.997414 
L 261.707107 162.875047 
L 262.659174 162.569136 
L 263.293884 162.532933 
L 263.61124 162.333355 
L 263.928595 161.854615 
L 264.24595 161.592343 
L 264.880661 161.501735 
L 265.198017 161.303211 
L 266.150083 161.139477 
L 266.784793 160.82595 
L 267.419504 160.737029 
L 268.054215 160.252177 
L 268.37157 159.883354 
L 269.006281 159.65401 
L 269.640992 159.221614 
L 269.958347 159.193236 
L 270.593058 158.745709 
L 270.910413 157.878368 
L 275.036033 156.531085 
L 275.670744 155.9647 
L 275.988099 155.946828 
L 276.305455 155.643282 
L 277.574876 155.472528 
L 277.892231 155.314754 
L 278.209587 155.310394 
L 278.526942 154.900919 
L 279.161653 153.898575 
L 279.796364 153.784191 
L 280.431074 153.704274 
L 281.38314 153.358558 
L 281.700496 153.108527 
L 282.017851 153.108527 
L 282.335207 152.832254 
L 282.652562 152.162164 
L 283.921983 151.995381 
L 284.239339 151.672437 
L 285.826116 150.983797 
L 286.460826 150.91523 
L 286.778182 150.598929 
L 288.047603 150.322679 
L 288.682314 149.754704 
L 288.999669 149.641466 
L 289.317025 149.364626 
L 290.586446 148.998039 
L 291.221157 147.88563 
L 291.538512 147.863313 
L 291.855868 147.689563 
L 293.442645 147.378713 
L 293.76 147.27966 
L 294.394711 146.268281 
L 296.298843 145.736087 
L 296.933554 145.263651 
L 297.250909 145.252869 
L 297.568264 145.124117 
L 298.202975 144.672051 
L 298.520331 144.571643 
L 299.155041 143.921972 
L 299.472397 143.912278 
L 300.107107 143.522399 
L 300.741818 143.457488 
L 301.059174 143.257905 
L 301.376529 143.237678 
L 302.01124 142.779169 
L 302.64595 142.22776 
L 303.598017 142.064033 
L 304.232727 141.75051 
L 304.867438 141.650044 
L 305.184793 141.162668 
L 305.502149 140.900454 
L 306.454215 140.559278 
L 306.77157 140.375128 
L 307.088926 140.354565 
L 307.406281 140.146174 
L 307.723636 140.117787 
L 308.358347 139.82449 
L 308.675702 139.67026 
L 308.993058 139.081044 
L 309.310413 138.802916 
L 309.627769 138.696882 
L 309.945124 138.399128 
L 310.579835 138.265365 
L 310.89719 137.8501 
L 312.166612 137.455633 
L 312.801322 136.912486 
L 313.436033 136.85168 
L 313.753388 136.549579 
L 314.705455 136.234955 
L 315.02281 135.825462 
L 315.657521 134.71938 
L 316.609587 134.628828 
L 316.926942 134.55779 
L 317.561653 134.033078 
L 318.196364 133.958924 
L 318.513719 133.086707 
L 319.78314 132.901995 
L 320.100496 132.59699 
L 320.735207 132.329083 
L 321.052562 131.98238 
L 321.687273 131.891165 
L 322.004628 131.432257 
L 322.639339 131.273998 
L 323.27405 131.171003 
L 323.591405 130.934418 
L 323.90876 130.865647 
L 325.178182 130.105876 
L 325.495537 130.078392 
L 325.812893 129.439756 
L 326.130248 129.380764 
L 326.447603 128.81018 
L 326.764959 128.78787 
L 327.717025 128.344831 
L 328.03438 128.303264 
L 328.351736 127.72936 
L 328.986446 127.192827 
L 329.621157 127.071527 
L 330.573223 126.967991 
L 330.890579 126.736036 
L 331.525289 125.78428 
L 331.842645 125.767887 
L 332.477355 125.496189 
L 332.794711 124.84653 
L 333.429421 124.755104 
L 334.064132 124.446958 
L 334.698843 124.404237 
L 336.920331 122.763786 
L 337.237686 122.675068 
L 337.555041 121.825022 
L 338.507107 121.483831 
L 339.459174 120.844504 
L 339.776529 120.594812 
L 340.093884 119.852596 
L 340.728595 119.621429 
L 341.04595 119.323679 
L 341.363306 119.284224 
L 341.680661 118.774661 
L 342.315372 118.677608 
L 342.632727 118.380183 
L 342.950083 118.36981 
L 343.267438 118.08842 
L 343.584793 118.060329 
L 343.902149 117.837031 
L 344.53686 117.77624 
L 344.854215 117.474126 
L 345.806281 117.159513 
L 346.123636 116.750007 
L 346.440992 115.643925 
L 347.075702 115.631784 
L 347.710413 114.957629 
L 348.027769 114.883462 
L 348.345124 113.957361 
L 348.662479 113.826529 
L 348.979835 113.52179 
L 349.29719 113.521543 
L 349.931901 112.90693 
L 350.883967 112.815698 
L 351.201322 112.171783 
L 351.518678 111.893335 
L 352.153388 111.790217 
L 352.470744 111.530411 
L 352.788099 111.490571 
L 353.42281 111.002951 
L 353.740165 110.364313 
L 354.057521 110.3053 
L 354.374876 109.734729 
L 354.692231 109.712426 
L 355.326942 109.269381 
L 355.644298 108.653902 
L 355.961653 108.593307 
L 356.913719 108.033773 
L 357.54843 107.892537 
L 357.865785 107.684142 
L 358.500496 106.692413 
L 358.817851 106.521144 
L 359.135207 105.77109 
L 359.452562 105.342801 
L 359.769917 105.328811 
L 360.404628 104.916426 
L 360.721983 103.890552 
L 361.039339 103.709103 
L 361.356694 103.688338 
L 361.67405 102.749589 
L 363.260826 101.769038 
L 363.578182 101.69013 
L 364.212893 101.257197 
L 364.847603 100.248231 
L 365.482314 99.699224 
L 365.799669 99.670047 
L 366.43438 98.984894 
L 366.751736 98.761578 
L 367.386446 98.700798 
L 368.021157 98.185741 
L 368.338512 97.082437 
L 368.655868 96.568472 
L 368.973223 96.557851 
L 369.607934 94.881906 
L 369.925289 94.751067 
L 370.242645 94.44634 
L 370.56 94.446097 
L 370.877355 94.178189 
L 371.194711 94.092589 
L 371.512066 93.803986 
L 371.829421 93.096336 
L 372.146777 92.714784 
L 373.416198 92.138276 
L 373.733554 91.229837 
L 375.002975 89.041921 
L 376.272397 88.608672 
L 376.589752 87.616941 
L 377.541818 86.9878 
L 378.176529 86.267358 
L 378.493884 86.253383 
L 378.81124 86.01131 
L 379.128595 84.815092 
L 379.44595 84.633655 
L 379.763306 84.612889 
L 380.080661 83.350627 
L 380.398017 83.332938 
L 380.715372 82.181767 
L 381.667438 80.594579 
L 382.302149 79.909456 
L 382.619504 79.686127 
L 382.93686 79.645017 
L 383.888926 78.719905 
L 384.523636 77.351824 
L 384.840992 75.806452 
L 385.158347 75.784809 
L 385.793058 75.10274 
L 386.110413 74.728527 
L 386.745124 73.503636 
L 387.69719 73.06283 
L 388.331901 72.154374 
L 388.649256 71.465856 
L 388.966612 71.080359 
L 389.283967 70.289467 
L 389.601322 69.882869 
L 390.236033 69.533205 
L 390.553388 68.084668 
L 390.870744 68.084666 
L 391.82281 66.405785 
L 392.140165 65.739633 
L 392.457521 65.558207 
L 392.774876 64.275172 
L 393.092231 64.257494 
L 394.044298 60.879301 
L 394.361653 60.610677 
L 394.679008 60.569567 
L 394.996364 59.644459 
L 395.313719 59.159168 
L 395.631074 58.951421 
L 395.94843 58.931551 
L 396.58314 56.295447 
L 396.900496 56.29544 
L 397.217851 55.65307 
L 397.535207 54.428188 
L 398.169917 54.240499 
L 398.487273 53.568 
L 398.487273 53.568 
" clip-path="url(#p94923f512a)" style="fill: none; stroke: #ff7f0e; stroke-width: 1.5; stroke-linecap: square"/>
   </g>
   <g id="patch_3">
    <path d="M 57.6 307.584 
L 57.6 41.472 
" style="fill: none; stroke: #000000; stroke-width: 0.8; stroke-linejoin: miter; stroke-linecap: square"/>
   </g>
   <g id="patch_4">
    <path d="M 414.72 307.584 
L 414.72 41.472 
" style="fill: none; stroke: #000000; stroke-width: 0.8; stroke-linejoin: miter; stroke-linecap: square"/>
   </g>
   <g id="patch_5">
    <path d="M 57.6 307.584 
L 414.72 307.584 
" style="fill: none; stroke: #000000; stroke-width: 0.8; stroke-linejoin: miter; stroke-linecap: square"/>
   </g>
   <g id="patch_6">
    <path d="M 57.6 41.472 
L 414.72 41.472 
" style="fill: none; stroke: #000000; stroke-width: 0.8; stroke-linejoin: miter; stroke-linecap: square"/>
   </g>
   <g id="legend_1">
    <g id="patch_7">
     <path d="M 64.6 78.82825 
L 129.342187 78.82825 
Q 131.342187 78.82825 131.342187 76.82825 
L 131.342187 48.472 
Q 131.342187 46.472 129.342187 46.472 
L 64.6 46.472 
Q 62.6 46.472 62.6 48.472 
L 62.6 76.82825 
Q 62.6 78.82825 64.6 78.82825 
z
" style="fill: #ffffff; opacity: 0.8; stroke: #cccccc; stroke-linejoin: miter"/>
    </g>
    <g id="line2d_16">
     <path d="M 66.6 54.570437 
L 76.6 54.570437 
L 86.6 54.570437 
" style="fill: none; stroke: #1f77b4; stroke-width: 1.5; stroke-linecap: square"/>
    </g>
    <g id="text_16">
     <!-- qc -->
     <g transform="translate(94.6 58.070437) scale(0.1 -0.1)">
      <defs>
       <path id="DejaVuSans-71" d="M 947 1747 
Q 947 1113 1208 752 
Q 1469 391 1925 391 
Q 2381 391 2643 752 
Q 2906 1113 2906 1747 
Q 2906 2381 2643 2742 
Q 2381 3103 1925 3103 
Q 1469 3103 1208 2742 
Q 947 2381 947 1747 
z
M 2906 525 
Q 2725 213 2448 61 
Q 2172 -91 1784 -91 
Q 1150 -91 751 415 
Q 353 922 353 1747 
Q 353 2572 751 3078 
Q 1150 3584 1784 3584 
Q 2172 3584 2448 3432 
Q 2725 3281 2906 2969 
L 2906 3500 
L 3481 3500 
L 3481 -1331 
L 2906 -1331 
L 2906 525 
z
" transform="scale(0.015625)"/>
       <path id="DejaVuSans-63" d="M 3122 3366 
L 3122 2828 
Q 2878 2963 2633 3030 
Q 2388 3097 2138 3097 
Q 1578 3097 1268 2742 
Q 959 2388 959 1747 
Q 959 1106 1268 751 
Q 1578 397 2138 397 
Q 2388 397 2633 464 
Q 2878 531 3122 666 
L 3122 134 
Q 2881 22 2623 -34 
Q 2366 -91 2075 -91 
Q 1284 -91 818 406 
Q 353 903 353 1747 
Q 353 2603 823 3093 
Q 1294 3584 2113 3584 
Q 2378 3584 2631 3529 
Q 2884 3475 3122 3366 
z
" transform="scale(0.015625)"/>
      </defs>
      <use xlink:href="#DejaVuSans-71"/>
      <use xlink:href="#DejaVuSans-63" x="63.476562"/>
     </g>
    </g>
    <g id="line2d_17">
     <path d="M 66.6 69.248562 
L 76.6 69.248562 
L 86.6 69.248562 
" style="fill: none; stroke: #ff7f0e; stroke-width: 1.5; stroke-linecap: square"/>
    </g>
    <g id="text_17">
     <!-- Trotter -->
     <g transform="translate(94.6 72.748562) scale(0.1 -0.1)">
      <defs>
       <path id="DejaVuSans-54" d="M -19 4666 
L 3928 4666 
L 3928 4134 
L 2272 4134 
L 2272 0 
L 1638 0 
L 1638 4134 
L -19 4134 
L -19 4666 
z
" transform="scale(0.015625)"/>
       <path id="DejaVuSans-72" d="M 2631 2963 
Q 2534 3019 2420 3045 
Q 2306 3072 2169 3072 
Q 1681 3072 1420 2755 
Q 1159 2438 1159 1844 
L 1159 0 
L 581 0 
L 581 3500 
L 1159 3500 
L 1159 2956 
Q 1341 3275 1631 3429 
Q 1922 3584 2338 3584 
Q 2397 3584 2469 3576 
Q 2541 3569 2628 3553 
L 2631 2963 
z
" transform="scale(0.015625)"/>
       <path id="DejaVuSans-6f" d="M 1959 3097 
Q 1497 3097 1228 2736 
Q 959 2375 959 1747 
Q 959 1119 1226 758 
Q 1494 397 1959 397 
Q 2419 397 2687 759 
Q 2956 1122 2956 1747 
Q 2956 2369 2687 2733 
Q 2419 3097 1959 3097 
z
M 1959 3584 
Q 2709 3584 3137 3096 
Q 3566 2609 3566 1747 
Q 3566 888 3137 398 
Q 2709 -91 1959 -91 
Q 1206 -91 779 398 
Q 353 888 353 1747 
Q 353 2609 779 3096 
Q 1206 3584 1959 3584 
z
" transform="scale(0.015625)"/>
       <path id="DejaVuSans-65" d="M 3597 1894 
L 3597 1613 
L 953 1613 
Q 991 1019 1311 708 
Q 1631 397 2203 397 
Q 2534 397 2845 478 
Q 3156 559 3463 722 
L 3463 178 
Q 3153 47 2828 -22 
Q 2503 -91 2169 -91 
Q 1331 -91 842 396 
Q 353 884 353 1716 
Q 353 2575 817 3079 
Q 1281 3584 2069 3584 
Q 2775 3584 3186 3129 
Q 3597 2675 3597 1894 
z
M 3022 2063 
Q 3016 2534 2758 2815 
Q 2500 3097 2075 3097 
Q 1594 3097 1305 2825 
Q 1016 2553 972 2059 
L 3022 2063 
z
" transform="scale(0.015625)"/>
      </defs>
      <use xlink:href="#DejaVuSans-54"/>
      <use xlink:href="#DejaVuSans-72" x="46.333984"/>
      <use xlink:href="#DejaVuSans-6f" x="85.197266"/>
      <use xlink:href="#DejaVuSans-74" x="146.378906"/>
      <use xlink:href="#DejaVuSans-74" x="185.587891"/>
      <use xlink:href="#DejaVuSans-65" x="224.796875"/>
      <use xlink:href="#DejaVuSans-72" x="286.320312"/>
     </g>
    </g>
   </g>
  </g>
 </g>
 <defs>
  <clipPath id="p94923f512a">
   <rect x="57.6" y="41.472" width="357.12" height="266.112"/>
  </clipPath>
 </defs>
</svg>
