<?xml version="1.0" encoding="utf-8" standalone="no"?>
<!DOCTYPE svg PUBLIC "-//W3C//DTD SVG 1.1//EN"
  "http://www.w3.org/Graphics/SVG/1.1/DTD/svg11.dtd">
<svg xmlns:xlink="http://www.w3.org/1999/xlink" width="460.8pt" height="345.6pt" viewBox="0 0 460.8 345.6" xmlns="http://www.w3.org/2000/svg" version="1.1">
 <metadata>
  <rdf:RDF xmlns:dc="http://purl.org/dc/elements/1.1/" xmlns:cc="http://creativecommons.org/ns#" xmlns:rdf="http://www.w3.org/1999/02/22-rdf-syntax-ns#">
   <cc:Work>
    <dc:type rdf:resource="http://purl.org/dc/dcmitype/StillImage"/>
    <dc:date>2024-08-16T17:56:37.937307</dc:date>
    <dc:format>image/svg+xml</dc:format>
    <dc:creator>
     <cc:Agent>
      <dc:title>Matplotlib v3.7.1, https://matplotlib.org/</dc:title>
     </cc:Agent>
    </dc:creator>
   </cc:Work>
  </rdf:RDF>
 </metadata>
 <defs>
  <style type="text/css">*{stroke-linejoin: round; stroke-linecap: butt}</style>
 </defs>
 <g id="figure_1">
  <g id="patch_1">
   <path d="M 0 345.6 
L 460.8 345.6 
L 460.8 0 
L 0 0 
z
" style="fill: #ffffff"/>
  </g>
  <g id="axes_1">
   <g id="patch_2">
    <path d="M 57.6 307.584 
L 414.72 307.584 
L 414.72 41.472 
L 57.6 41.472 
z
" style="fill: #ffffff"/>
   </g>
   <g id="matplotlib.axis_1">
    <g id="xtick_1">
     <g id="line2d_1">
      <defs>
       <path id="mcc9aa88369" d="M 0 0 
L 0 3.5 
" style="stroke: #000000; stroke-width: 0.8"/>
      </defs>
      <g>
       <use xlink:href="#mcc9aa88369" x="73.832727" y="307.584" style="stroke: #000000; stroke-width: 0.8"/>
      </g>
     </g>
     <g id="text_1">
      <!-- 0 -->
      <g transform="translate(70.651477 322.182437) scale(0.1 -0.1)">
       <defs>
        <path id="DejaVuSans-30" d="M 2034 4250 
Q 1547 4250 1301 3770 
Q 1056 3291 1056 2328 
Q 1056 1369 1301 889 
Q 1547 409 2034 409 
Q 2525 409 2770 889 
Q 3016 1369 3016 2328 
Q 3016 3291 2770 3770 
Q 2525 4250 2034 4250 
z
M 2034 4750 
Q 2819 4750 3233 4129 
Q 3647 3509 3647 2328 
Q 3647 1150 3233 529 
Q 2819 -91 2034 -91 
Q 1250 -91 836 529 
Q 422 1150 422 2328 
Q 422 3509 836 4129 
Q 1250 4750 2034 4750 
z
" transform="scale(0.015625)"/>
       </defs>
       <use xlink:href="#DejaVuSans-30"/>
      </g>
     </g>
    </g>
    <g id="xtick_2">
     <g id="line2d_2">
      <g>
       <use xlink:href="#mcc9aa88369" x="137.303802" y="307.584" style="stroke: #000000; stroke-width: 0.8"/>
      </g>
     </g>
     <g id="text_2">
      <!-- 200 -->
      <g transform="translate(127.760052 322.182437) scale(0.1 -0.1)">
       <defs>
        <path id="DejaVuSans-32" d="M 1228 531 
L 3431 531 
L 3431 0 
L 469 0 
L 469 531 
Q 828 903 1448 1529 
Q 2069 2156 2228 2338 
Q 2531 2678 2651 2914 
Q 2772 3150 2772 3378 
Q 2772 3750 2511 3984 
Q 2250 4219 1831 4219 
Q 1534 4219 1204 4116 
Q 875 4013 500 3803 
L 500 4441 
Q 881 4594 1212 4672 
Q 1544 4750 1819 4750 
Q 2544 4750 2975 4387 
Q 3406 4025 3406 3419 
Q 3406 3131 3298 2873 
Q 3191 2616 2906 2266 
Q 2828 2175 2409 1742 
Q 1991 1309 1228 531 
z
" transform="scale(0.015625)"/>
       </defs>
       <use xlink:href="#DejaVuSans-32"/>
       <use xlink:href="#DejaVuSans-30" x="63.623047"/>
       <use xlink:href="#DejaVuSans-30" x="127.246094"/>
      </g>
     </g>
    </g>
    <g id="xtick_3">
     <g id="line2d_3">
      <g>
       <use xlink:href="#mcc9aa88369" x="200.774876" y="307.584" style="stroke: #000000; stroke-width: 0.8"/>
      </g>
     </g>
     <g id="text_3">
      <!-- 400 -->
      <g transform="translate(191.231126 322.182437) scale(0.1 -0.1)">
       <defs>
        <path id="DejaVuSans-34" d="M 2419 4116 
L 825 1625 
L 2419 1625 
L 2419 4116 
z
M 2253 4666 
L 3047 4666 
L 3047 1625 
L 3713 1625 
L 3713 1100 
L 3047 1100 
L 3047 0 
L 2419 0 
L 2419 1100 
L 313 1100 
L 313 1709 
L 2253 4666 
z
" transform="scale(0.015625)"/>
       </defs>
       <use xlink:href="#DejaVuSans-34"/>
       <use xlink:href="#DejaVuSans-30" x="63.623047"/>
       <use xlink:href="#DejaVuSans-30" x="127.246094"/>
      </g>
     </g>
    </g>
    <g id="xtick_4">
     <g id="line2d_4">
      <g>
       <use xlink:href="#mcc9aa88369" x="264.24595" y="307.584" style="stroke: #000000; stroke-width: 0.8"/>
      </g>
     </g>
     <g id="text_4">
      <!-- 600 -->
      <g transform="translate(254.7022 322.182437) scale(0.1 -0.1)">
       <defs>
        <path id="DejaVuSans-36" d="M 2113 2584 
Q 1688 2584 1439 2293 
Q 1191 2003 1191 1497 
Q 1191 994 1439 701 
Q 1688 409 2113 409 
Q 2538 409 2786 701 
Q 3034 994 3034 1497 
Q 3034 2003 2786 2293 
Q 2538 2584 2113 2584 
z
M 3366 4563 
L 3366 3988 
Q 3128 4100 2886 4159 
Q 2644 4219 2406 4219 
Q 1781 4219 1451 3797 
Q 1122 3375 1075 2522 
Q 1259 2794 1537 2939 
Q 1816 3084 2150 3084 
Q 2853 3084 3261 2657 
Q 3669 2231 3669 1497 
Q 3669 778 3244 343 
Q 2819 -91 2113 -91 
Q 1303 -91 875 529 
Q 447 1150 447 2328 
Q 447 3434 972 4092 
Q 1497 4750 2381 4750 
Q 2619 4750 2861 4703 
Q 3103 4656 3366 4563 
z
" transform="scale(0.015625)"/>
       </defs>
       <use xlink:href="#DejaVuSans-36"/>
       <use xlink:href="#DejaVuSans-30" x="63.623047"/>
       <use xlink:href="#DejaVuSans-30" x="127.246094"/>
      </g>
     </g>
    </g>
    <g id="xtick_5">
     <g id="line2d_5">
      <g>
       <use xlink:href="#mcc9aa88369" x="327.717025" y="307.584" style="stroke: #000000; stroke-width: 0.8"/>
      </g>
     </g>
     <g id="text_5">
      <!-- 800 -->
      <g transform="translate(318.173275 322.182437) scale(0.1 -0.1)">
       <defs>
        <path id="DejaVuSans-38" d="M 2034 2216 
Q 1584 2216 1326 1975 
Q 1069 1734 1069 1313 
Q 1069 891 1326 650 
Q 1584 409 2034 409 
Q 2484 409 2743 651 
Q 3003 894 3003 1313 
Q 3003 1734 2745 1975 
Q 2488 2216 2034 2216 
z
M 1403 2484 
Q 997 2584 770 2862 
Q 544 3141 544 3541 
Q 544 4100 942 4425 
Q 1341 4750 2034 4750 
Q 2731 4750 3128 4425 
Q 3525 4100 3525 3541 
Q 3525 3141 3298 2862 
Q 3072 2584 2669 2484 
Q 3125 2378 3379 2068 
Q 3634 1759 3634 1313 
Q 3634 634 3220 271 
Q 2806 -91 2034 -91 
Q 1263 -91 848 271 
Q 434 634 434 1313 
Q 434 1759 690 2068 
Q 947 2378 1403 2484 
z
M 1172 3481 
Q 1172 3119 1398 2916 
Q 1625 2713 2034 2713 
Q 2441 2713 2670 2916 
Q 2900 3119 2900 3481 
Q 2900 3844 2670 4047 
Q 2441 4250 2034 4250 
Q 1625 4250 1398 4047 
Q 1172 3844 1172 3481 
z
" transform="scale(0.015625)"/>
       </defs>
       <use xlink:href="#DejaVuSans-38"/>
       <use xlink:href="#DejaVuSans-30" x="63.623047"/>
       <use xlink:href="#DejaVuSans-30" x="127.246094"/>
      </g>
     </g>
    </g>
    <g id="xtick_6">
     <g id="line2d_6">
      <g>
       <use xlink:href="#mcc9aa88369" x="391.188099" y="307.584" style="stroke: #000000; stroke-width: 0.8"/>
      </g>
     </g>
     <g id="text_6">
      <!-- 1000 -->
      <g transform="translate(378.463099 322.182437) scale(0.1 -0.1)">
       <defs>
        <path id="DejaVuSans-31" d="M 794 531 
L 1825 531 
L 1825 4091 
L 703 3866 
L 703 4441 
L 1819 4666 
L 2450 4666 
L 2450 531 
L 3481 531 
L 3481 0 
L 794 0 
L 794 531 
z
" transform="scale(0.015625)"/>
       </defs>
       <use xlink:href="#DejaVuSans-31"/>
       <use xlink:href="#DejaVuSans-30" x="63.623047"/>
       <use xlink:href="#DejaVuSans-30" x="127.246094"/>
       <use xlink:href="#DejaVuSans-30" x="190.869141"/>
      </g>
     </g>
    </g>
    <g id="text_7">
     <!-- n -->
     <g transform="translate(232.99125 335.860562) scale(0.1 -0.1)">
      <defs>
       <path id="DejaVuSans-6e" d="M 3513 2113 
L 3513 0 
L 2938 0 
L 2938 2094 
Q 2938 2591 2744 2837 
Q 2550 3084 2163 3084 
Q 1697 3084 1428 2787 
Q 1159 2491 1159 1978 
L 1159 0 
L 581 0 
L 581 3500 
L 1159 3500 
L 1159 2956 
Q 1366 3272 1645 3428 
Q 1925 3584 2291 3584 
Q 2894 3584 3203 3211 
Q 3513 2838 3513 2113 
z
" transform="scale(0.015625)"/>
      </defs>
      <use xlink:href="#DejaVuSans-6e"/>
     </g>
    </g>
   </g>
   <g id="matplotlib.axis_2">
    <g id="ytick_1">
     <g id="line2d_7">
      <defs>
       <path id="m70107a68ab" d="M 0 0 
L -3.5 0 
" style="stroke: #000000; stroke-width: 0.8"/>
      </defs>
      <g>
       <use xlink:href="#m70107a68ab" x="57.6" y="290.317411" style="stroke: #000000; stroke-width: 0.8"/>
      </g>
     </g>
     <g id="text_8">
      <!-- −3 -->
      <g transform="translate(35.857813 294.11663) scale(0.1 -0.1)">
       <defs>
        <path id="DejaVuSans-2212" d="M 678 2272 
L 4684 2272 
L 4684 1741 
L 678 1741 
L 678 2272 
z
" transform="scale(0.015625)"/>
        <path id="DejaVuSans-33" d="M 2597 2516 
Q 3050 2419 3304 2112 
Q 3559 1806 3559 1356 
Q 3559 666 3084 287 
Q 2609 -91 1734 -91 
Q 1441 -91 1130 -33 
Q 819 25 488 141 
L 488 750 
Q 750 597 1062 519 
Q 1375 441 1716 441 
Q 2309 441 2620 675 
Q 2931 909 2931 1356 
Q 2931 1769 2642 2001 
Q 2353 2234 1838 2234 
L 1294 2234 
L 1294 2753 
L 1863 2753 
Q 2328 2753 2575 2939 
Q 2822 3125 2822 3475 
Q 2822 3834 2567 4026 
Q 2313 4219 1838 4219 
Q 1578 4219 1281 4162 
Q 984 4106 628 3988 
L 628 4550 
Q 988 4650 1302 4700 
Q 1616 4750 1894 4750 
Q 2613 4750 3031 4423 
Q 3450 4097 3450 3541 
Q 3450 3153 3228 2886 
Q 3006 2619 2597 2516 
z
" transform="scale(0.015625)"/>
       </defs>
       <use xlink:href="#DejaVuSans-2212"/>
       <use xlink:href="#DejaVuSans-33" x="83.789062"/>
      </g>
     </g>
    </g>
    <g id="ytick_2">
     <g id="line2d_8">
      <g>
       <use xlink:href="#m70107a68ab" x="57.6" y="251.740225" style="stroke: #000000; stroke-width: 0.8"/>
      </g>
     </g>
     <g id="text_9">
      <!-- −2 -->
      <g transform="translate(35.857813 255.539444) scale(0.1 -0.1)">
       <use xlink:href="#DejaVuSans-2212"/>
       <use xlink:href="#DejaVuSans-32" x="83.789062"/>
      </g>
     </g>
    </g>
    <g id="ytick_3">
     <g id="line2d_9">
      <g>
       <use xlink:href="#m70107a68ab" x="57.6" y="213.163039" style="stroke: #000000; stroke-width: 0.8"/>
      </g>
     </g>
     <g id="text_10">
      <!-- −1 -->
      <g transform="translate(35.857813 216.962257) scale(0.1 -0.1)">
       <use xlink:href="#DejaVuSans-2212"/>
       <use xlink:href="#DejaVuSans-31" x="83.789062"/>
      </g>
     </g>
    </g>
    <g id="ytick_4">
     <g id="line2d_10">
      <g>
       <use xlink:href="#m70107a68ab" x="57.6" y="174.585852" style="stroke: #000000; stroke-width: 0.8"/>
      </g>
     </g>
     <g id="text_11">
      <!-- 0 -->
      <g transform="translate(44.2375 178.385071) scale(0.1 -0.1)">
       <use xlink:href="#DejaVuSans-30"/>
      </g>
     </g>
    </g>
    <g id="ytick_5">
     <g id="line2d_11">
      <g>
       <use xlink:href="#m70107a68ab" x="57.6" y="136.008666" style="stroke: #000000; stroke-width: 0.8"/>
      </g>
     </g>
     <g id="text_12">
      <!-- 1 -->
      <g transform="translate(44.2375 139.807884) scale(0.1 -0.1)">
       <use xlink:href="#DejaVuSans-31"/>
      </g>
     </g>
    </g>
    <g id="ytick_6">
     <g id="line2d_12">
      <g>
       <use xlink:href="#m70107a68ab" x="57.6" y="97.431479" style="stroke: #000000; stroke-width: 0.8"/>
      </g>
     </g>
     <g id="text_13">
      <!-- 2 -->
      <g transform="translate(44.2375 101.230698) scale(0.1 -0.1)">
       <use xlink:href="#DejaVuSans-32"/>
      </g>
     </g>
    </g>
    <g id="ytick_7">
     <g id="line2d_13">
      <g>
       <use xlink:href="#m70107a68ab" x="57.6" y="58.854293" style="stroke: #000000; stroke-width: 0.8"/>
      </g>
     </g>
     <g id="text_14">
      <!-- 3 -->
      <g transform="translate(44.2375 62.653512) scale(0.1 -0.1)">
       <use xlink:href="#DejaVuSans-33"/>
      </g>
     </g>
    </g>
    <g id="text_15">
     <!-- E*t -->
     <g transform="translate(29.778125 182.147531) rotate(-90) scale(0.1 -0.1)">
      <defs>
       <path id="DejaVuSans-45" d="M 628 4666 
L 3578 4666 
L 3578 4134 
L 1259 4134 
L 1259 2753 
L 3481 2753 
L 3481 2222 
L 1259 2222 
L 1259 531 
L 3634 531 
L 3634 0 
L 628 0 
L 628 4666 
z
" transform="scale(0.015625)"/>
       <path id="DejaVuSans-2a" d="M 3009 3897 
L 1888 3291 
L 3009 2681 
L 2828 2375 
L 1778 3009 
L 1778 1831 
L 1422 1831 
L 1422 3009 
L 372 2375 
L 191 2681 
L 1313 3291 
L 191 3897 
L 372 4206 
L 1422 3572 
L 1422 4750 
L 1778 4750 
L 1778 3572 
L 2828 4206 
L 3009 3897 
z
" transform="scale(0.015625)"/>
       <path id="DejaVuSans-74" d="M 1172 4494 
L 1172 3500 
L 2356 3500 
L 2356 3053 
L 1172 3053 
L 1172 1153 
Q 1172 725 1289 603 
Q 1406 481 1766 481 
L 2356 481 
L 2356 0 
L 1766 0 
Q 1100 0 847 248 
Q 594 497 594 1153 
L 594 3053 
L 172 3053 
L 172 3500 
L 594 3500 
L 594 4494 
L 1172 4494 
z
" transform="scale(0.015625)"/>
      </defs>
      <use xlink:href="#DejaVuSans-45"/>
      <use xlink:href="#DejaVuSans-2a" x="63.183594"/>
      <use xlink:href="#DejaVuSans-74" x="113.183594"/>
     </g>
    </g>
   </g>
   <g id="line2d_14">
    <path d="M 73.832727 294.676603 
L 74.467438 294.496505 
L 75.102149 293.429673 
L 75.419504 292.577195 
L 75.73686 292.489415 
L 76.054215 290.935997 
L 76.37157 290.244777 
L 76.688926 289.229247 
L 77.006281 289.18851 
L 77.323636 288.800158 
L 78.275702 286.95014 
L 78.593058 286.908595 
L 78.910413 285.631907 
L 79.227769 285.611915 
L 80.179835 284.087584 
L 80.49719 283.059032 
L 81.131901 281.95305 
L 81.449256 280.957243 
L 81.766612 280.739027 
L 82.083967 280.281426 
L 82.401322 280.231816 
L 82.718678 278.731166 
L 83.036033 278.652346 
L 83.353388 277.482004 
L 83.670744 277.472898 
L 83.988099 276.839054 
L 84.305455 276.457546 
L 84.62281 276.41375 
L 84.940165 275.602479 
L 86.209587 274.876336 
L 87.479008 271.800571 
L 87.796364 271.219258 
L 88.113719 270.143087 
L 88.431074 270.094335 
L 88.74843 269.01693 
L 89.065785 268.62842 
L 89.700496 268.163657 
L 90.017851 267.855438 
L 90.652562 265.686986 
L 90.969917 265.629676 
L 91.921983 264.948308 
L 92.556694 263.934628 
L 93.191405 263.087245 
L 93.50876 262.843186 
L 93.826116 261.819575 
L 94.143471 261.632701 
L 94.460826 261.17406 
L 94.778182 261.112997 
L 95.095537 260.833638 
L 95.730248 259.771312 
L 96.682314 259.223363 
L 96.999669 258.385484 
L 97.317025 258.373888 
L 97.63438 257.70235 
L 97.951736 257.426364 
L 98.269091 257.304785 
L 98.586446 256.512587 
L 99.538512 255.956143 
L 99.855868 255.123317 
L 100.490579 255.009581 
L 101.125289 254.45769 
L 101.442645 253.578273 
L 101.76 253.33671 
L 102.077355 252.715129 
L 102.394711 252.581117 
L 102.712066 252.274009 
L 103.029421 252.170783 
L 103.346777 251.060192 
L 103.981488 250.905221 
L 104.298843 249.904559 
L 104.933554 249.327114 
L 105.250909 249.113959 
L 105.568264 249.047845 
L 105.88562 248.784122 
L 106.202975 247.475152 
L 106.837686 247.093112 
L 107.155041 246.643997 
L 107.789752 246.544575 
L 108.107107 246.381231 
L 109.059174 245.419015 
L 109.376529 245.412882 
L 110.328595 244.3801 
L 110.963306 243.737064 
L 111.598017 243.708282 
L 111.915372 242.705062 
L 112.232727 242.532286 
L 112.550083 242.002454 
L 113.184793 241.631535 
L 113.502149 241.203451 
L 114.13686 241.135094 
L 114.454215 240.676183 
L 115.406281 240.168379 
L 115.723636 239.286072 
L 116.358347 239.158257 
L 116.675702 238.631888 
L 117.310413 238.211777 
L 117.627769 238.187623 
L 117.945124 237.408256 
L 118.89719 236.85099 
L 119.214545 236.174973 
L 120.483967 235.846898 
L 121.118678 235.53055 
L 121.753388 235.362044 
L 122.070744 235.350617 
L 122.705455 234.42014 
L 123.340165 234.214851 
L 123.657521 233.620154 
L 123.974876 233.339903 
L 124.926942 233.076354 
L 125.244298 231.973702 
L 126.196364 231.650979 
L 126.513719 231.36388 
L 126.831074 230.852147 
L 127.14843 230.793511 
L 127.465785 230.565639 
L 127.78314 230.543823 
L 128.100496 230.228432 
L 128.417851 230.19337 
L 128.735207 229.984816 
L 129.052562 229.932585 
L 129.369917 229.696275 
L 129.687273 228.391159 
L 130.639339 227.90109 
L 130.956694 227.508571 
L 131.591405 227.320102 
L 132.543471 226.357856 
L 133.178182 226.32411 
L 133.495537 225.87967 
L 133.812893 225.660892 
L 134.130248 225.28844 
L 134.447603 225.27612 
L 135.082314 224.719462 
L 135.717025 224.632715 
L 136.03438 223.619408 
L 136.669091 223.443903 
L 136.986446 223.275469 
L 137.303802 222.895218 
L 137.621157 222.808956 
L 138.255868 222.219034 
L 139.207934 222.033561 
L 139.525289 221.846089 
L 141.112066 221.499243 
L 142.064132 221.078664 
L 142.381488 220.183434 
L 143.333554 220.033838 
L 143.650909 219.562169 
L 143.968264 219.549466 
L 144.28562 219.257978 
L 145.237686 218.967994 
L 145.555041 218.293148 
L 147.459174 216.960918 
L 148.728595 216.626847 
L 149.363306 216.412136 
L 150.315372 216.223495 
L 151.267438 215.277681 
L 151.902149 215.120244 
L 152.219504 214.619556 
L 152.854215 214.505096 
L 153.17157 214.152325 
L 153.806281 213.957306 
L 154.123636 213.565584 
L 154.440992 212.944613 
L 156.027769 212.519284 
L 156.345124 212.354575 
L 156.662479 211.836773 
L 157.29719 211.694294 
L 157.931901 211.167634 
L 158.566612 210.972229 
L 159.836033 210.596541 
L 160.153388 210.565079 
L 160.470744 209.476798 
L 161.105455 209.15145 
L 162.374876 208.881426 
L 163.009587 208.771765 
L 163.326942 208.411436 
L 163.961653 208.219724 
L 164.279008 207.87222 
L 164.596364 207.785924 
L 165.231074 207.23583 
L 165.865785 207.224385 
L 166.500496 206.755352 
L 167.452562 206.193227 
L 167.769917 206.157465 
L 168.404628 205.658917 
L 169.356694 205.534572 
L 169.67405 204.562798 
L 170.943471 204.190318 
L 171.260826 203.78355 
L 171.578182 203.672317 
L 171.895537 203.096862 
L 172.847603 202.926911 
L 173.164959 202.743535 
L 173.799669 202.693488 
L 174.43438 202.48702 
L 174.751736 202.476645 
L 175.069091 202.243534 
L 175.386446 202.198018 
L 176.021157 201.949998 
L 176.338512 201.461234 
L 177.290579 201.079136 
L 177.925289 201.00831 
L 178.242645 200.457236 
L 178.56 200.452422 
L 178.877355 200.117788 
L 180.146777 199.946481 
L 180.464132 199.687534 
L 180.781488 199.174578 
L 181.098843 199.161568 
L 181.416198 198.959605 
L 181.733554 198.900405 
L 182.68562 198.396731 
L 183.002975 197.965376 
L 183.637686 197.726923 
L 184.272397 197.521704 
L 184.907107 197.311677 
L 186.493884 196.877533 
L 186.81124 196.850658 
L 187.44595 196.365519 
L 188.715372 196.02204 
L 189.032727 195.510864 
L 189.667438 195.388352 
L 189.984793 195.066922 
L 190.302149 194.980248 
L 190.619504 194.417619 
L 191.254215 193.828224 
L 192.523636 193.631861 
L 193.158347 193.399556 
L 194.110413 193.101292 
L 194.427769 192.842064 
L 195.379835 192.593788 
L 196.014545 192.10683 
L 196.331901 192.004464 
L 196.649256 191.768454 
L 197.601322 191.630471 
L 198.236033 191.439816 
L 198.553388 190.345663 
L 198.870744 190.032512 
L 199.82281 189.930083 
L 200.457521 189.694809 
L 200.774876 189.672787 
L 202.361653 188.795619 
L 202.679008 188.783656 
L 202.996364 188.433231 
L 203.631074 188.19945 
L 204.58314 188.109439 
L 205.217851 187.640742 
L 206.804628 187.039926 
L 207.439339 186.937283 
L 208.70876 186.195207 
L 209.026116 185.363338 
L 209.660826 185.222254 
L 210.295537 184.886444 
L 210.612893 184.662566 
L 210.930248 183.99122 
L 211.564959 183.909819 
L 212.199669 183.817101 
L 212.517025 183.675614 
L 213.786446 183.537968 
L 215.690579 182.769178 
L 216.007934 182.394547 
L 216.642645 182.276873 
L 217.912066 181.822429 
L 218.229421 181.469312 
L 220.450909 180.570957 
L 221.08562 180.080989 
L 221.720331 180.045076 
L 222.989752 179.545435 
L 223.307107 179.54141 
L 224.259174 178.641674 
L 224.893884 178.588219 
L 225.528595 178.285476 
L 226.480661 178.070198 
L 226.798017 177.836816 
L 227.432727 177.71413 
L 228.702149 176.922202 
L 229.019504 176.847978 
L 229.33686 176.413272 
L 230.288926 176.240341 
L 230.606281 175.963742 
L 231.240992 175.785499 
L 231.875702 175.013644 
L 232.193058 174.720483 
L 233.462479 174.532149 
L 233.779835 174.335504 
L 234.731901 174.177697 
L 235.366612 173.747184 
L 236.318678 173.553009 
L 236.636033 173.203355 
L 236.953388 173.025487 
L 237.270744 173.013221 
L 237.588099 172.680052 
L 238.540165 172.505411 
L 239.174876 172.321908 
L 239.492231 171.226148 
L 239.809587 170.936166 
L 241.079008 170.826299 
L 241.713719 170.603245 
L 242.34843 170.417358 
L 242.98314 170.12092 
L 243.617851 169.670567 
L 243.935207 169.218735 
L 244.569917 169.08941 
L 245.204628 168.99531 
L 245.839339 168.530102 
L 246.156694 168.470411 
L 246.47405 168.159665 
L 247.10876 168.002843 
L 249.964959 167.105846 
L 250.282314 166.777605 
L 250.599669 166.73259 
L 250.917025 166.313038 
L 251.23438 166.261337 
L 252.503802 165.531036 
L 252.821157 164.956218 
L 254.090579 164.771609 
L 256.312066 164.303328 
L 257.264132 163.481114 
L 257.581488 163.291472 
L 258.216198 163.194139 
L 258.850909 162.873079 
L 259.802975 162.762639 
L 260.120331 162.241191 
L 260.437686 162.238787 
L 261.072397 161.86904 
L 261.389752 161.784513 
L 262.024463 161.23303 
L 262.341818 160.997174 
L 262.659174 160.95098 
L 263.293884 160.65116 
L 264.563306 160.348742 
L 264.880661 160.1355 
L 265.515372 159.50464 
L 265.832727 159.492599 
L 266.467438 159.214698 
L 267.73686 158.849133 
L 269.006281 158.365702 
L 269.640992 157.820589 
L 269.958347 157.773528 
L 270.593058 157.318101 
L 271.227769 157.172625 
L 271.545124 156.840154 
L 271.862479 156.766203 
L 272.179835 155.894346 
L 272.49719 155.555498 
L 273.131901 155.473882 
L 273.449256 155.234033 
L 274.401322 155.044572 
L 274.718678 154.853667 
L 275.036033 154.83313 
L 275.670744 154.629608 
L 276.305455 154.511865 
L 276.62281 154.092238 
L 277.257521 153.875127 
L 278.526942 153.399295 
L 279.161653 153.290402 
L 279.479008 153.202924 
L 279.796364 152.76221 
L 280.113719 152.121951 
L 280.431074 151.828731 
L 281.38314 151.724782 
L 281.700496 151.546039 
L 282.017851 151.495703 
L 282.969917 151.09806 
L 283.287273 151.013595 
L 283.921983 150.127875 
L 284.87405 149.936468 
L 285.191405 149.879638 
L 285.826116 149.40812 
L 286.143471 149.316309 
L 286.460826 149.002986 
L 287.095537 148.92812 
L 288.999669 148.23894 
L 289.63438 148.013678 
L 289.951736 147.711029 
L 290.586446 147.448164 
L 290.903802 147.154219 
L 291.855868 146.885259 
L 292.490579 145.871677 
L 292.807934 145.796246 
L 293.442645 145.502668 
L 294.394711 145.38843 
L 295.029421 145.161322 
L 295.664132 144.393617 
L 295.981488 144.164113 
L 296.616198 143.919302 
L 297.88562 143.334861 
L 298.202975 143.136657 
L 298.520331 143.111816 
L 298.837686 142.845667 
L 299.472397 142.674883 
L 300.107107 142.135696 
L 300.424463 141.912197 
L 300.741818 141.846198 
L 301.376529 141.451197 
L 302.963306 140.977975 
L 303.915372 140.125478 
L 305.184793 139.780307 
L 306.77157 138.923445 
L 307.088926 138.714897 
L 307.406281 138.683629 
L 308.358347 138.251093 
L 309.945124 137.652503 
L 310.262479 136.939772 
L 310.579835 136.772706 
L 310.89719 136.42948 
L 311.214545 136.36758 
L 311.531901 136.10501 
L 311.849256 136.053613 
L 312.166612 135.744352 
L 312.801322 135.597168 
L 313.118678 135.421971 
L 313.436033 135.405752 
L 313.753388 134.987681 
L 314.070744 134.985678 
L 314.705455 134.731104 
L 315.02281 134.632735 
L 315.657521 134.230937 
L 315.974876 134.172214 
L 316.926942 132.715818 
L 317.561653 132.625572 
L 318.831074 131.987928 
L 319.465785 131.886972 
L 319.78314 131.025564 
L 320.417851 130.860544 
L 321.052562 130.751926 
L 321.687273 130.282432 
L 322.004628 130.244443 
L 322.321983 129.859858 
L 322.639339 129.820978 
L 322.956694 129.604244 
L 323.27405 129.197299 
L 324.860826 128.915521 
L 325.178182 128.849113 
L 325.812893 128.521467 
L 326.130248 128.339121 
L 326.447603 127.992418 
L 326.764959 127.828142 
L 327.717025 126.790744 
L 329.303802 126.147298 
L 329.621157 125.642636 
L 329.938512 125.385836 
L 330.255868 125.283906 
L 330.573223 125.051576 
L 331.842645 124.841066 
L 332.16 124.704411 
L 332.477355 124.027155 
L 332.794711 123.709105 
L 333.746777 123.274906 
L 334.064132 122.820087 
L 334.698843 122.67008 
L 335.016198 122.45133 
L 336.28562 122.078721 
L 336.920331 121.612426 
L 337.237686 121.248131 
L 338.507107 120.448764 
L 338.824463 119.882595 
L 339.141818 119.598746 
L 339.459174 119.575317 
L 341.04595 118.536056 
L 341.363306 117.87308 
L 343.267438 116.625015 
L 343.584793 116.588298 
L 343.902149 116.358307 
L 344.219504 116.292222 
L 344.53686 116.016351 
L 345.488926 115.711353 
L 345.806281 115.682166 
L 346.123636 115.522234 
L 346.440992 115.139206 
L 347.075702 115.084398 
L 347.393058 114.562486 
L 347.710413 113.604449 
L 348.345124 113.49982 
L 348.979835 112.829037 
L 349.29719 112.783598 
L 349.614545 111.915543 
L 350.249256 111.43269 
L 350.566612 111.411632 
L 351.518678 110.749603 
L 351.836033 110.691227 
L 352.153388 110.47299 
L 352.788099 109.835744 
L 353.42281 109.780646 
L 353.740165 109.472413 
L 354.057521 109.417128 
L 354.374876 109.224159 
L 355.961653 107.567828 
L 356.596364 107.176919 
L 356.913719 106.594884 
L 357.231074 106.49831 
L 357.54843 106.246969 
L 357.865785 106.164707 
L 358.18314 105.937116 
L 358.817851 105.837836 
L 359.135207 105.485179 
L 359.452562 104.904809 
L 359.769917 104.560934 
L 360.087273 104.442917 
L 360.404628 103.673077 
L 360.721983 103.327601 
L 361.67405 102.844166 
L 361.991405 101.946397 
L 362.626116 101.585475 
L 362.943471 100.811503 
L 363.578182 100.274691 
L 364.847603 99.516529 
L 365.164959 99.405556 
L 365.482314 99.120858 
L 366.117025 98.15149 
L 366.43438 97.992627 
L 366.751736 97.536938 
L 367.069091 97.49371 
L 368.338512 96.592382 
L 368.973223 96.406257 
L 369.290579 95.976988 
L 369.925289 94.480304 
L 370.242645 94.409443 
L 370.877355 92.802344 
L 371.512066 92.361876 
L 371.829421 92.299754 
L 372.146777 92.045933 
L 372.464132 92.038972 
L 372.781488 91.81646 
L 373.098843 90.976827 
L 374.050909 90.390388 
L 374.368264 90.305288 
L 374.68562 90.103359 
L 375.320331 88.574081 
L 375.637686 88.342015 
L 375.955041 87.140528 
L 376.272397 87.053341 
L 376.589752 86.817721 
L 377.224463 86.724153 
L 377.541818 86.360211 
L 377.859174 85.422486 
L 378.176529 85.325695 
L 378.493884 85.008435 
L 378.81124 84.931769 
L 379.44595 84.252831 
L 380.080661 83.978229 
L 380.398017 82.820636 
L 381.032727 82.447051 
L 381.350083 81.485503 
L 381.667438 81.16838 
L 382.302149 79.411396 
L 382.93686 78.376221 
L 383.57157 77.875801 
L 384.206281 77.473153 
L 384.523636 77.288748 
L 385.475702 75.985934 
L 385.793058 75.380413 
L 386.110413 73.691329 
L 386.427769 73.638756 
L 387.379835 72.692262 
L 388.014545 71.347835 
L 388.649256 71.239225 
L 389.283967 70.751051 
L 389.601322 70.164587 
L 389.918678 69.219365 
L 390.236033 69.216951 
L 390.553388 68.25139 
L 390.870744 67.69488 
L 391.188099 67.648231 
L 391.505455 67.241757 
L 391.82281 65.930715 
L 392.140165 65.874593 
L 392.457521 65.538002 
L 393.409587 63.692242 
L 393.726942 63.580734 
L 394.044298 62.375835 
L 394.361653 62.075059 
L 395.313719 58.677385 
L 395.94843 58.347805 
L 396.265785 57.459724 
L 396.58314 57.128433 
L 397.217851 56.890932 
L 397.852562 54.189728 
L 398.169917 54.171476 
L 398.487273 53.568 
L 398.487273 53.568 
" clip-path="url(#p1b5473acdf)" style="fill: none; stroke: #1f77b4; stroke-width: 1.5; stroke-linecap: square"/>
   </g>
   <g id="line2d_15">
    <path d="M 73.832727 295.488 
L 74.150083 294.798767 
L 74.467438 294.412847 
L 74.784793 293.072712 
L 75.102149 292.54487 
L 75.419504 291.413986 
L 75.73686 291.413986 
L 77.323636 289.066451 
L 77.640992 287.900091 
L 78.593058 286.906209 
L 79.227769 285.166341 
L 79.545124 284.914455 
L 79.862479 284.200966 
L 80.179835 283.198644 
L 80.49719 282.964815 
L 80.814545 282.486251 
L 81.131901 282.271024 
L 81.449256 281.040633 
L 81.766612 280.91121 
L 82.083967 279.612242 
L 82.401322 279.612237 
L 82.718678 278.969176 
L 83.353388 278.690455 
L 83.670744 277.743003 
L 84.305455 277.555113 
L 84.940165 276.8819 
L 85.892231 274.975489 
L 86.844298 272.318281 
L 87.161653 272.31828 
L 87.479008 271.331064 
L 88.113719 270.637613 
L 88.74843 270.117648 
L 89.38314 267.8105 
L 90.017851 267.749021 
L 90.335207 267.492979 
L 90.652562 266.855932 
L 90.969917 266.786267 
L 91.287273 266.070621 
L 91.604628 265.818743 
L 91.921983 265.298221 
L 92.239339 265.10526 
L 92.556694 264.102933 
L 92.87405 263.86911 
L 93.191405 263.390551 
L 93.826116 263.032286 
L 94.143471 262.385773 
L 94.460826 262.081467 
L 95.412893 261.644756 
L 95.730248 260.516534 
L 96.047603 260.516529 
L 96.364959 259.946455 
L 96.682314 259.695208 
L 96.999669 259.594744 
L 97.317025 258.647296 
L 97.63438 258.581672 
L 97.951736 258.159293 
L 98.269091 258.149183 
L 98.586446 257.508638 
L 99.221157 257.163962 
L 99.538512 256.993581 
L 99.855868 256.607357 
L 100.173223 255.879776 
L 100.490579 255.585492 
L 101.125289 254.512344 
L 101.442645 254.353619 
L 101.76 254.353462 
L 102.077355 253.241758 
L 102.712066 253.222574 
L 103.029421 252.235353 
L 103.664132 251.541907 
L 103.981488 251.464513 
L 104.616198 251.021944 
L 104.933554 249.708675 
L 105.568264 249.386996 
L 105.88562 248.913927 
L 106.202975 248.714789 
L 106.837686 248.65332 
L 107.155041 248.397276 
L 107.472397 247.760193 
L 108.107107 247.600442 
L 108.424463 247.225603 
L 108.741818 247.127202 
L 109.693884 246.072449 
L 110.328595 245.952767 
L 110.64595 245.007224 
L 110.963306 244.773405 
L 111.280661 244.29485 
L 111.598017 244.254881 
L 112.550083 243.435267 
L 112.867438 243.290063 
L 113.184793 242.985759 
L 114.13686 242.549052 
L 114.454215 241.48144 
L 115.088926 241.420822 
L 115.406281 240.85075 
L 115.723636 240.599504 
L 116.358347 240.457211 
L 116.675702 239.55159 
L 116.993058 239.485964 
L 117.310413 239.063588 
L 117.627769 239.053477 
L 117.945124 238.412936 
L 118.579835 238.284432 
L 118.89719 238.111855 
L 120.166612 237.837137 
L 120.801322 237.511651 
L 121.118678 237.035763 
L 123.340165 235.262247 
L 123.657521 235.257756 
L 123.974876 234.146056 
L 124.609587 234.126868 
L 124.926942 233.962775 
L 126.196364 232.753164 
L 126.513719 232.726324 
L 126.831074 232.478268 
L 127.465785 232.368809 
L 128.100496 231.926241 
L 128.417851 230.612968 
L 128.735207 230.43035 
L 129.369917 230.291299 
L 129.687273 229.619078 
L 130.321983 229.557617 
L 130.956694 229.131577 
L 131.27405 228.604509 
L 131.90876 228.504735 
L 132.226116 228.1299 
L 132.543471 228.031495 
L 132.860826 227.627322 
L 133.178182 227.492081 
L 133.495537 227.106807 
L 134.130248 226.913849 
L 134.447603 226.85706 
L 134.764959 225.911515 
L 135.717025 225.504187 
L 136.03438 225.19915 
L 136.351736 225.159183 
L 136.986446 224.401004 
L 137.621157 224.339564 
L 138.255868 224.141763 
L 139.525289 223.890053 
L 140.794711 223.453347 
L 141.112066 222.545677 
L 141.746777 222.325118 
L 142.064132 222.325116 
L 142.381488 221.765853 
L 142.698843 221.755047 
L 143.016198 221.5038 
L 143.968264 221.24328 
L 144.28562 220.455883 
L 144.602975 220.390256 
L 144.920331 219.967883 
L 145.237686 219.957771 
L 145.555041 219.758004 
L 145.872397 219.317232 
L 146.507107 219.188725 
L 146.824463 219.016159 
L 148.41124 218.726763 
L 149.04595 218.415944 
L 149.998017 217.688358 
L 150.315372 217.394087 
L 150.632727 217.305384 
L 150.950083 216.851566 
L 151.584793 216.822049 
L 151.902149 216.320928 
L 152.219504 216.166536 
L 152.53686 216.16205 
L 153.488926 215.050354 
L 154.758347 214.867067 
L 155.393058 214.201741 
L 156.027769 214.043934 
L 156.662479 213.424261 
L 157.614545 213.273105 
L 158.249256 212.928663 
L 158.883967 212.830537 
L 159.201322 211.70875 
L 159.836033 211.334643 
L 161.105455 211.195599 
L 161.740165 211.074193 
L 162.057521 210.523368 
L 162.692231 210.461914 
L 163.326942 210.069075 
L 163.644298 210.035858 
L 163.961653 209.508796 
L 164.596364 209.409028 
L 164.913719 209.085751 
L 165.54843 208.935788 
L 165.865785 208.645356 
L 166.500496 208.396373 
L 166.817851 208.093308 
L 168.087273 207.761353 
L 168.404628 206.815808 
L 169.039339 206.592022 
L 169.356694 206.581998 
L 169.67405 206.408488 
L 169.991405 206.103451 
L 170.30876 206.063483 
L 170.626116 205.305291 
L 171.260826 205.243859 
L 171.895537 205.046047 
L 173.164959 204.794348 
L 174.751736 204.249031 
L 175.069091 203.719844 
L 175.386446 203.554423 
L 175.703802 203.52385 
L 176.021157 203.290019 
L 176.655868 203.22941 
L 176.973223 202.670146 
L 177.290579 202.659344 
L 177.607934 202.408095 
L 179.194711 201.977436 
L 179.512066 201.360177 
L 180.464132 201.204537 
L 180.781488 200.872178 
L 181.098843 200.862066 
L 181.416198 200.662289 
L 181.733554 200.221528 
L 182.050909 200.183028 
L 182.368264 199.920463 
L 183.955041 199.63105 
L 184.589752 199.320237 
L 185.224463 199.106594 
L 185.541818 199.064287 
L 186.176529 198.606079 
L 186.81124 198.578871 
L 187.128595 198.298383 
L 187.44595 198.209676 
L 187.763306 197.755856 
L 188.398017 197.726346 
L 188.715372 197.22522 
L 189.032727 197.070827 
L 189.667438 196.368389 
L 190.619504 195.935461 
L 190.93686 195.93546 
L 191.57157 195.771361 
L 191.888926 195.758865 
L 192.206281 195.514131 
L 192.840992 195.449807 
L 193.158347 195.106041 
L 193.475702 195.10208 
L 194.110413 194.948226 
L 194.745124 194.28686 
L 195.379835 194.177403 
L 195.69719 193.965091 
L 196.331901 193.832972 
L 196.966612 193.734833 
L 197.283967 192.613033 
L 197.601322 192.238938 
L 198.553388 192.102509 
L 199.82281 191.677943 
L 200.140165 191.427658 
L 200.774876 191.366209 
L 201.409587 190.973374 
L 201.726942 190.940142 
L 202.044298 190.426356 
L 203.313719 190.313322 
L 203.631074 189.990042 
L 204.265785 189.840082 
L 204.58314 189.549672 
L 205.217851 189.435905 
L 206.169917 189.23204 
L 206.804628 188.722439 
L 207.121983 188.665646 
L 207.439339 188.325705 
L 207.756694 187.589043 
L 209.026116 187.144708 
L 209.343471 187.007751 
L 209.660826 186.209582 
L 210.612893 186.148154 
L 211.247603 185.962381 
L 212.199669 185.896172 
L 212.517025 185.733374 
L 213.469091 185.562089 
L 214.421157 185.153315 
L 214.738512 184.624142 
L 215.373223 184.458712 
L 215.690579 184.428149 
L 216.007934 184.133704 
L 216.642645 184.047404 
L 216.96 183.942655 
L 217.277355 183.574441 
L 217.594711 183.563641 
L 217.912066 183.434783 
L 218.229421 183.170094 
L 219.181488 182.881719 
L 219.816198 182.26447 
L 221.08562 182.108836 
L 221.402975 181.82937 
L 222.355041 181.566577 
L 222.672397 181.125823 
L 222.989752 181.087322 
L 223.307107 180.824765 
L 224.259174 180.610765 
L 225.21124 180.37142 
L 225.528595 180.057558 
L 226.163306 179.968564 
L 227.432727 179.113969 
L 227.750083 179.004274 
L 228.067438 178.660148 
L 228.384793 178.630643 
L 228.702149 178.451517 
L 229.019504 178.42312 
L 229.33686 178.129512 
L 229.97157 177.975117 
L 230.606281 177.27267 
L 231.558347 176.839757 
L 231.875702 176.839756 
L 232.510413 176.675657 
L 233.145124 176.568718 
L 234.731901 175.886259 
L 235.049256 175.852519 
L 235.683967 175.191154 
L 236.318678 175.081701 
L 236.636033 174.869389 
L 237.270744 174.737281 
L 237.905455 174.639129 
L 238.22281 173.517317 
L 238.540165 173.143234 
L 239.809587 173.006807 
L 241.079008 172.58224 
L 241.396364 172.331949 
L 241.713719 172.331949 
L 242.031074 172.219482 
L 242.98314 171.33064 
L 243.935207 171.217617 
L 244.252562 170.894333 
L 244.887273 170.744376 
L 245.204628 170.453984 
L 245.839339 170.340198 
L 246.791405 170.136326 
L 247.10876 169.819685 
L 248.378182 169.531401 
L 249.012893 168.974552 
L 249.330248 168.861204 
L 249.647603 168.493335 
L 250.599669 168.217088 
L 250.917025 167.943644 
L 251.23438 167.912052 
L 251.551736 167.329337 
L 251.869091 167.103504 
L 252.821157 167.052448 
L 253.455868 166.866683 
L 255.36 166.466384 
L 255.994711 165.528439 
L 257.264132 165.332449 
L 257.581488 165.037999 
L 258.533554 164.951687 
L 258.850909 164.478736 
L 259.168264 164.46794 
L 259.48562 164.339064 
L 260.120331 163.886518 
L 260.437686 163.786004 
L 261.072397 163.13563 
L 261.707107 163.013133 
L 262.659174 162.706897 
L 263.293884 162.670656 
L 263.61124 162.470866 
L 263.928595 161.991617 
L 264.24595 161.729066 
L 264.880661 161.638363 
L 265.198017 161.439627 
L 266.150083 161.27572 
L 266.784793 160.96186 
L 267.419504 160.872844 
L 268.054215 160.387477 
L 268.37157 160.018262 
L 269.006281 159.788675 
L 269.640992 159.35582 
L 269.958347 159.327412 
L 270.593058 158.879409 
L 270.910413 158.011148 
L 275.036033 156.662433 
L 275.670744 156.095447 
L 275.988099 156.077556 
L 276.305455 155.773688 
L 277.574876 155.602752 
L 277.892231 155.44481 
L 278.209587 155.440446 
L 278.526942 155.030536 
L 279.161653 154.027128 
L 279.796364 153.912622 
L 280.431074 153.83262 
L 281.38314 153.486537 
L 281.700496 153.236241 
L 282.017851 153.23624 
L 282.335207 152.959674 
L 282.652562 152.288873 
L 283.921983 152.121912 
L 284.239339 151.798625 
L 285.826116 151.109254 
L 286.460826 151.040614 
L 286.778182 150.723977 
L 288.047603 150.447434 
L 288.682314 149.878855 
L 288.999669 149.765497 
L 289.317025 149.488363 
L 290.586446 149.121387 
L 291.221157 148.007796 
L 291.538512 147.985456 
L 291.855868 147.811521 
L 293.442645 147.500341 
L 293.76 147.401182 
L 294.394711 146.38873 
L 296.298843 145.855971 
L 296.933554 145.383033 
L 297.250909 145.372239 
L 297.568264 145.24335 
L 298.202975 144.790805 
L 298.520331 144.69029 
L 299.155041 144.039929 
L 299.472397 144.030225 
L 300.107107 143.639931 
L 300.741818 143.574952 
L 301.059174 143.375157 
L 301.376529 143.354908 
L 302.01124 142.895912 
L 302.64595 142.343918 
L 303.598017 142.180017 
L 303.915372 141.954979 
L 304.867438 141.765588 
L 305.184793 141.277694 
L 305.502149 141.015202 
L 306.454215 140.673664 
L 306.77157 140.489318 
L 307.088926 140.468734 
L 307.406281 140.260121 
L 307.723636 140.231704 
L 308.358347 139.938095 
L 308.675702 139.783701 
L 308.993058 139.19386 
L 309.310413 138.915436 
L 309.627769 138.809289 
L 309.945124 138.511219 
L 310.579835 138.377314 
L 310.89719 137.961608 
L 312.166612 137.566723 
L 312.801322 137.022998 
L 313.436033 136.962128 
L 313.753388 136.659706 
L 314.705455 136.344748 
L 315.02281 135.93482 
L 315.657521 134.827563 
L 316.609587 134.736915 
L 316.926942 134.665802 
L 317.561653 134.140533 
L 318.196364 134.0663 
L 318.513719 133.193156 
L 319.78314 133.008248 
L 320.100496 132.702919 
L 320.735207 132.434728 
L 321.052562 132.087656 
L 321.687273 131.996345 
L 322.004628 131.536949 
L 322.639339 131.378522 
L 323.27405 131.275418 
L 323.591405 131.038582 
L 323.90876 130.969737 
L 325.178182 130.209159 
L 325.495537 130.181646 
L 325.812893 129.542332 
L 326.130248 129.483277 
L 326.447603 128.912087 
L 326.764959 128.889754 
L 327.717025 128.446244 
L 328.03438 128.404633 
L 328.351736 127.83012 
L 328.986446 127.293017 
L 329.621157 127.171588 
L 330.573223 127.067942 
L 330.890579 126.83574 
L 331.525289 125.882974 
L 331.842645 125.866564 
L 332.477355 125.594577 
L 332.794711 124.944228 
L 333.429421 124.852705 
L 334.064132 124.544232 
L 334.698843 124.501465 
L 336.920331 122.859272 
L 337.237686 122.77046 
L 337.555041 121.919511 
L 338.507107 121.577957 
L 339.459174 120.937952 
L 339.776529 120.687994 
L 340.093884 119.94499 
L 340.728595 119.713577 
L 341.04595 119.415511 
L 341.363306 119.376014 
L 341.680661 118.865911 
L 342.315372 118.768754 
L 342.632727 118.471013 
L 342.950083 118.460629 
L 343.267438 118.178941 
L 343.584793 118.15082 
L 343.902149 117.927285 
L 344.53686 117.866429 
L 344.854215 117.563994 
L 345.806281 117.249047 
L 346.123636 116.839106 
L 346.440992 115.73185 
L 347.075702 115.719695 
L 347.710413 115.044824 
L 348.027769 114.970579 
L 348.345124 114.043494 
L 348.662479 113.912523 
L 348.979835 113.60746 
L 349.29719 113.607213 
L 349.931901 112.991948 
L 350.883967 112.900618 
L 351.201322 112.25602 
L 351.518678 111.977276 
L 352.153388 111.874048 
L 352.470744 111.613966 
L 352.788099 111.574084 
L 353.42281 111.085946 
L 353.740165 110.44663 
L 354.057521 110.387554 
L 354.374876 109.816378 
L 354.692231 109.794051 
L 355.326942 109.350536 
L 355.644298 108.734403 
L 355.961653 108.673743 
L 356.913719 108.113615 
L 357.54843 107.972229 
L 357.865785 107.763612 
L 358.500496 106.77083 
L 358.817851 106.59938 
L 359.135207 105.848529 
L 359.452562 105.419785 
L 359.769917 105.405781 
L 360.404628 104.992957 
L 360.721983 103.965994 
L 361.039339 103.784352 
L 361.356694 103.763565 
L 361.67405 102.823819 
L 363.260826 101.842227 
L 363.578182 101.763235 
L 364.212893 101.329842 
L 364.847603 100.319804 
L 365.482314 99.770215 
L 365.799669 99.741006 
L 366.43438 99.055125 
L 366.751736 98.831573 
L 367.386446 98.770728 
L 368.021157 98.255124 
L 368.338512 97.150648 
L 368.655868 96.636137 
L 368.973223 96.625505 
L 369.607934 94.94778 
L 369.925289 94.816802 
L 370.242645 94.511751 
L 370.56 94.511508 
L 370.877355 94.243315 
L 371.194711 94.157625 
L 371.512066 93.868715 
L 371.829421 93.160314 
L 372.146777 92.778357 
L 373.416198 92.201237 
L 373.733554 91.291832 
L 375.002975 89.101593 
L 376.272397 88.667883 
L 376.589752 87.675099 
L 377.541818 87.04529 
L 378.176529 86.324083 
L 378.493884 86.310093 
L 378.81124 86.067763 
L 379.128595 84.870275 
L 379.44595 84.688645 
L 379.763306 84.667857 
L 380.080661 83.404254 
L 380.398017 83.386547 
L 380.715372 82.234153 
L 381.667438 80.645279 
L 382.302149 79.959429 
L 382.619504 79.735862 
L 382.93686 79.694709 
L 383.888926 78.768615 
L 384.523636 77.39908 
L 384.840992 75.852067 
L 385.158347 75.830401 
L 385.793058 75.147608 
L 386.110413 74.772997 
L 386.745124 73.546805 
L 387.69719 73.105531 
L 388.331901 72.19611 
L 388.649256 71.506861 
L 388.966612 71.120954 
L 389.283967 70.329223 
L 389.601322 69.922193 
L 390.236033 69.572157 
L 390.553388 68.122082 
L 390.870744 68.122081 
L 391.82281 66.441416 
L 392.140165 65.774557 
L 392.457521 65.592938 
L 392.774876 64.30854 
L 393.092231 64.290843 
L 394.044298 60.909063 
L 394.361653 60.640153 
L 394.679008 60.598999 
L 394.996364 59.672909 
L 395.313719 59.187103 
L 395.631074 58.979135 
L 395.94843 58.959244 
L 396.58314 56.32034 
L 396.900496 56.320334 
L 397.217851 55.677281 
L 397.535207 54.451098 
L 398.169917 54.26321 
L 398.487273 53.589997 
L 398.487273 53.589997 
" clip-path="url(#p1b5473acdf)" style="fill: none; stroke: #ff7f0e; stroke-width: 1.5; stroke-linecap: square"/>
   </g>
   <g id="patch_3">
    <path d="M 57.6 307.584 
L 57.6 41.472 
" style="fill: none; stroke: #000000; stroke-width: 0.8; stroke-linejoin: miter; stroke-linecap: square"/>
   </g>
   <g id="patch_4">
    <path d="M 414.72 307.584 
L 414.72 41.472 
" style="fill: none; stroke: #000000; stroke-width: 0.8; stroke-linejoin: miter; stroke-linecap: square"/>
   </g>
   <g id="patch_5">
    <path d="M 57.6 307.584 
L 414.72 307.584 
" style="fill: none; stroke: #000000; stroke-width: 0.8; stroke-linejoin: miter; stroke-linecap: square"/>
   </g>
   <g id="patch_6">
    <path d="M 57.6 41.472 
L 414.72 41.472 
" style="fill: none; stroke: #000000; stroke-width: 0.8; stroke-linejoin: miter; stroke-linecap: square"/>
   </g>
   <g id="legend_1">
    <g id="patch_7">
     <path d="M 64.6 78.82825 
L 129.342187 78.82825 
Q 131.342187 78.82825 131.342187 76.82825 
L 131.342187 48.472 
Q 131.342187 46.472 129.342187 46.472 
L 64.6 46.472 
Q 62.6 46.472 62.6 48.472 
L 62.6 76.82825 
Q 62.6 78.82825 64.6 78.82825 
z
" style="fill: #ffffff; opacity: 0.8; stroke: #cccccc; stroke-linejoin: miter"/>
    </g>
    <g id="line2d_16">
     <path d="M 66.6 54.570437 
L 76.6 54.570437 
L 86.6 54.570437 
" style="fill: none; stroke: #1f77b4; stroke-width: 1.5; stroke-linecap: square"/>
    </g>
    <g id="text_16">
     <!-- qc -->
     <g transform="translate(94.6 58.070437) scale(0.1 -0.1)">
      <defs>
       <path id="DejaVuSans-71" d="M 947 1747 
Q 947 1113 1208 752 
Q 1469 391 1925 391 
Q 2381 391 2643 752 
Q 2906 1113 2906 1747 
Q 2906 2381 2643 2742 
Q 2381 3103 1925 3103 
Q 1469 3103 1208 2742 
Q 947 2381 947 1747 
z
M 2906 525 
Q 2725 213 2448 61 
Q 2172 -91 1784 -91 
Q 1150 -91 751 415 
Q 353 922 353 1747 
Q 353 2572 751 3078 
Q 1150 3584 1784 3584 
Q 2172 3584 2448 3432 
Q 2725 3281 2906 2969 
L 2906 3500 
L 3481 3500 
L 3481 -1331 
L 2906 -1331 
L 2906 525 
z
" transform="scale(0.015625)"/>
       <path id="DejaVuSans-63" d="M 3122 3366 
L 3122 2828 
Q 2878 2963 2633 3030 
Q 2388 3097 2138 3097 
Q 1578 3097 1268 2742 
Q 959 2388 959 1747 
Q 959 1106 1268 751 
Q 1578 397 2138 397 
Q 2388 397 2633 464 
Q 2878 531 3122 666 
L 3122 134 
Q 2881 22 2623 -34 
Q 2366 -91 2075 -91 
Q 1284 -91 818 406 
Q 353 903 353 1747 
Q 353 2603 823 3093 
Q 1294 3584 2113 3584 
Q 2378 3584 2631 3529 
Q 2884 3475 3122 3366 
z
" transform="scale(0.015625)"/>
      </defs>
      <use xlink:href="#DejaVuSans-71"/>
      <use xlink:href="#DejaVuSans-63" x="63.476562"/>
     </g>
    </g>
    <g id="line2d_17">
     <path d="M 66.6 69.248562 
L 76.6 69.248562 
L 86.6 69.248562 
" style="fill: none; stroke: #ff7f0e; stroke-width: 1.5; stroke-linecap: square"/>
    </g>
    <g id="text_17">
     <!-- Trotter -->
     <g transform="translate(94.6 72.748562) scale(0.1 -0.1)">
      <defs>
       <path id="DejaVuSans-54" d="M -19 4666 
L 3928 4666 
L 3928 4134 
L 2272 4134 
L 2272 0 
L 1638 0 
L 1638 4134 
L -19 4134 
L -19 4666 
z
" transform="scale(0.015625)"/>
       <path id="DejaVuSans-72" d="M 2631 2963 
Q 2534 3019 2420 3045 
Q 2306 3072 2169 3072 
Q 1681 3072 1420 2755 
Q 1159 2438 1159 1844 
L 1159 0 
L 581 0 
L 581 3500 
L 1159 3500 
L 1159 2956 
Q 1341 3275 1631 3429 
Q 1922 3584 2338 3584 
Q 2397 3584 2469 3576 
Q 2541 3569 2628 3553 
L 2631 2963 
z
" transform="scale(0.015625)"/>
       <path id="DejaVuSans-6f" d="M 1959 3097 
Q 1497 3097 1228 2736 
Q 959 2375 959 1747 
Q 959 1119 1226 758 
Q 1494 397 1959 397 
Q 2419 397 2687 759 
Q 2956 1122 2956 1747 
Q 2956 2369 2687 2733 
Q 2419 3097 1959 3097 
z
M 1959 3584 
Q 2709 3584 3137 3096 
Q 3566 2609 3566 1747 
Q 3566 888 3137 398 
Q 2709 -91 1959 -91 
Q 1206 -91 779 398 
Q 353 888 353 1747 
Q 353 2609 779 3096 
Q 1206 3584 1959 3584 
z
" transform="scale(0.015625)"/>
       <path id="DejaVuSans-65" d="M 3597 1894 
L 3597 1613 
L 953 1613 
Q 991 1019 1311 708 
Q 1631 397 2203 397 
Q 2534 397 2845 478 
Q 3156 559 3463 722 
L 3463 178 
Q 3153 47 2828 -22 
Q 2503 -91 2169 -91 
Q 1331 -91 842 396 
Q 353 884 353 1716 
Q 353 2575 817 3079 
Q 1281 3584 2069 3584 
Q 2775 3584 3186 3129 
Q 3597 2675 3597 1894 
z
M 3022 2063 
Q 3016 2534 2758 2815 
Q 2500 3097 2075 3097 
Q 1594 3097 1305 2825 
Q 1016 2553 972 2059 
L 3022 2063 
z
" transform="scale(0.015625)"/>
      </defs>
      <use xlink:href="#DejaVuSans-54"/>
      <use xlink:href="#DejaVuSans-72" x="46.333984"/>
      <use xlink:href="#DejaVuSans-6f" x="85.197266"/>
      <use xlink:href="#DejaVuSans-74" x="146.378906"/>
      <use xlink:href="#DejaVuSans-74" x="185.587891"/>
      <use xlink:href="#DejaVuSans-65" x="224.796875"/>
      <use xlink:href="#DejaVuSans-72" x="286.320312"/>
     </g>
    </g>
   </g>
  </g>
 </g>
 <defs>
  <clipPath id="p1b5473acdf">
   <rect x="57.6" y="41.472" width="357.12" height="266.112"/>
  </clipPath>
 </defs>
</svg>
