<?xml version="1.0" encoding="utf-8" standalone="no"?>
<!DOCTYPE svg PUBLIC "-//W3C//DTD SVG 1.1//EN"
  "http://www.w3.org/Graphics/SVG/1.1/DTD/svg11.dtd">
<svg xmlns:xlink="http://www.w3.org/1999/xlink" width="460.8pt" height="345.6pt" viewBox="0 0 460.8 345.6" xmlns="http://www.w3.org/2000/svg" version="1.1">
 <metadata>
  <rdf:RDF xmlns:dc="http://purl.org/dc/elements/1.1/" xmlns:cc="http://creativecommons.org/ns#" xmlns:rdf="http://www.w3.org/1999/02/22-rdf-syntax-ns#">
   <cc:Work>
    <dc:type rdf:resource="http://purl.org/dc/dcmitype/StillImage"/>
    <dc:date>2024-06-07T01:27:02.515948</dc:date>
    <dc:format>image/svg+xml</dc:format>
    <dc:creator>
     <cc:Agent>
      <dc:title>Matplotlib v3.7.1, https://matplotlib.org/</dc:title>
     </cc:Agent>
    </dc:creator>
   </cc:Work>
  </rdf:RDF>
 </metadata>
 <defs>
  <style type="text/css">*{stroke-linejoin: round; stroke-linecap: butt}</style>
 </defs>
 <g id="figure_1">
  <g id="patch_1">
   <path d="M 0 345.6 
L 460.8 345.6 
L 460.8 0 
L 0 0 
z
" style="fill: #ffffff"/>
  </g>
  <g id="axes_1">
   <g id="patch_2">
    <path d="M 57.6 307.584 
L 414.72 307.584 
L 414.72 41.472 
L 57.6 41.472 
z
" style="fill: #ffffff"/>
   </g>
   <g id="matplotlib.axis_1">
    <g id="xtick_1">
     <g id="line2d_1">
      <defs>
       <path id="mab0e812eba" d="M 0 0 
L 0 3.5 
" style="stroke: #000000; stroke-width: 0.8"/>
      </defs>
      <g>
       <use xlink:href="#mab0e812eba" x="73.832727" y="307.584" style="stroke: #000000; stroke-width: 0.8"/>
      </g>
     </g>
     <g id="text_1">
      <!-- 0 -->
      <g transform="translate(70.651477 322.182437) scale(0.1 -0.1)">
       <defs>
        <path id="DejaVuSans-30" d="M 2034 4250 
Q 1547 4250 1301 3770 
Q 1056 3291 1056 2328 
Q 1056 1369 1301 889 
Q 1547 409 2034 409 
Q 2525 409 2770 889 
Q 3016 1369 3016 2328 
Q 3016 3291 2770 3770 
Q 2525 4250 2034 4250 
z
M 2034 4750 
Q 2819 4750 3233 4129 
Q 3647 3509 3647 2328 
Q 3647 1150 3233 529 
Q 2819 -91 2034 -91 
Q 1250 -91 836 529 
Q 422 1150 422 2328 
Q 422 3509 836 4129 
Q 1250 4750 2034 4750 
z
" transform="scale(0.015625)"/>
       </defs>
       <use xlink:href="#DejaVuSans-30"/>
      </g>
     </g>
    </g>
    <g id="xtick_2">
     <g id="line2d_2">
      <g>
       <use xlink:href="#mab0e812eba" x="137.303802" y="307.584" style="stroke: #000000; stroke-width: 0.8"/>
      </g>
     </g>
     <g id="text_2">
      <!-- 200 -->
      <g transform="translate(127.760052 322.182437) scale(0.1 -0.1)">
       <defs>
        <path id="DejaVuSans-32" d="M 1228 531 
L 3431 531 
L 3431 0 
L 469 0 
L 469 531 
Q 828 903 1448 1529 
Q 2069 2156 2228 2338 
Q 2531 2678 2651 2914 
Q 2772 3150 2772 3378 
Q 2772 3750 2511 3984 
Q 2250 4219 1831 4219 
Q 1534 4219 1204 4116 
Q 875 4013 500 3803 
L 500 4441 
Q 881 4594 1212 4672 
Q 1544 4750 1819 4750 
Q 2544 4750 2975 4387 
Q 3406 4025 3406 3419 
Q 3406 3131 3298 2873 
Q 3191 2616 2906 2266 
Q 2828 2175 2409 1742 
Q 1991 1309 1228 531 
z
" transform="scale(0.015625)"/>
       </defs>
       <use xlink:href="#DejaVuSans-32"/>
       <use xlink:href="#DejaVuSans-30" x="63.623047"/>
       <use xlink:href="#DejaVuSans-30" x="127.246094"/>
      </g>
     </g>
    </g>
    <g id="xtick_3">
     <g id="line2d_3">
      <g>
       <use xlink:href="#mab0e812eba" x="200.774876" y="307.584" style="stroke: #000000; stroke-width: 0.8"/>
      </g>
     </g>
     <g id="text_3">
      <!-- 400 -->
      <g transform="translate(191.231126 322.182437) scale(0.1 -0.1)">
       <defs>
        <path id="DejaVuSans-34" d="M 2419 4116 
L 825 1625 
L 2419 1625 
L 2419 4116 
z
M 2253 4666 
L 3047 4666 
L 3047 1625 
L 3713 1625 
L 3713 1100 
L 3047 1100 
L 3047 0 
L 2419 0 
L 2419 1100 
L 313 1100 
L 313 1709 
L 2253 4666 
z
" transform="scale(0.015625)"/>
       </defs>
       <use xlink:href="#DejaVuSans-34"/>
       <use xlink:href="#DejaVuSans-30" x="63.623047"/>
       <use xlink:href="#DejaVuSans-30" x="127.246094"/>
      </g>
     </g>
    </g>
    <g id="xtick_4">
     <g id="line2d_4">
      <g>
       <use xlink:href="#mab0e812eba" x="264.24595" y="307.584" style="stroke: #000000; stroke-width: 0.8"/>
      </g>
     </g>
     <g id="text_4">
      <!-- 600 -->
      <g transform="translate(254.7022 322.182437) scale(0.1 -0.1)">
       <defs>
        <path id="DejaVuSans-36" d="M 2113 2584 
Q 1688 2584 1439 2293 
Q 1191 2003 1191 1497 
Q 1191 994 1439 701 
Q 1688 409 2113 409 
Q 2538 409 2786 701 
Q 3034 994 3034 1497 
Q 3034 2003 2786 2293 
Q 2538 2584 2113 2584 
z
M 3366 4563 
L 3366 3988 
Q 3128 4100 2886 4159 
Q 2644 4219 2406 4219 
Q 1781 4219 1451 3797 
Q 1122 3375 1075 2522 
Q 1259 2794 1537 2939 
Q 1816 3084 2150 3084 
Q 2853 3084 3261 2657 
Q 3669 2231 3669 1497 
Q 3669 778 3244 343 
Q 2819 -91 2113 -91 
Q 1303 -91 875 529 
Q 447 1150 447 2328 
Q 447 3434 972 4092 
Q 1497 4750 2381 4750 
Q 2619 4750 2861 4703 
Q 3103 4656 3366 4563 
z
" transform="scale(0.015625)"/>
       </defs>
       <use xlink:href="#DejaVuSans-36"/>
       <use xlink:href="#DejaVuSans-30" x="63.623047"/>
       <use xlink:href="#DejaVuSans-30" x="127.246094"/>
      </g>
     </g>
    </g>
    <g id="xtick_5">
     <g id="line2d_5">
      <g>
       <use xlink:href="#mab0e812eba" x="327.717025" y="307.584" style="stroke: #000000; stroke-width: 0.8"/>
      </g>
     </g>
     <g id="text_5">
      <!-- 800 -->
      <g transform="translate(318.173275 322.182437) scale(0.1 -0.1)">
       <defs>
        <path id="DejaVuSans-38" d="M 2034 2216 
Q 1584 2216 1326 1975 
Q 1069 1734 1069 1313 
Q 1069 891 1326 650 
Q 1584 409 2034 409 
Q 2484 409 2743 651 
Q 3003 894 3003 1313 
Q 3003 1734 2745 1975 
Q 2488 2216 2034 2216 
z
M 1403 2484 
Q 997 2584 770 2862 
Q 544 3141 544 3541 
Q 544 4100 942 4425 
Q 1341 4750 2034 4750 
Q 2731 4750 3128 4425 
Q 3525 4100 3525 3541 
Q 3525 3141 3298 2862 
Q 3072 2584 2669 2484 
Q 3125 2378 3379 2068 
Q 3634 1759 3634 1313 
Q 3634 634 3220 271 
Q 2806 -91 2034 -91 
Q 1263 -91 848 271 
Q 434 634 434 1313 
Q 434 1759 690 2068 
Q 947 2378 1403 2484 
z
M 1172 3481 
Q 1172 3119 1398 2916 
Q 1625 2713 2034 2713 
Q 2441 2713 2670 2916 
Q 2900 3119 2900 3481 
Q 2900 3844 2670 4047 
Q 2441 4250 2034 4250 
Q 1625 4250 1398 4047 
Q 1172 3844 1172 3481 
z
" transform="scale(0.015625)"/>
       </defs>
       <use xlink:href="#DejaVuSans-38"/>
       <use xlink:href="#DejaVuSans-30" x="63.623047"/>
       <use xlink:href="#DejaVuSans-30" x="127.246094"/>
      </g>
     </g>
    </g>
    <g id="xtick_6">
     <g id="line2d_6">
      <g>
       <use xlink:href="#mab0e812eba" x="391.188099" y="307.584" style="stroke: #000000; stroke-width: 0.8"/>
      </g>
     </g>
     <g id="text_6">
      <!-- 1000 -->
      <g transform="translate(378.463099 322.182437) scale(0.1 -0.1)">
       <defs>
        <path id="DejaVuSans-31" d="M 794 531 
L 1825 531 
L 1825 4091 
L 703 3866 
L 703 4441 
L 1819 4666 
L 2450 4666 
L 2450 531 
L 3481 531 
L 3481 0 
L 794 0 
L 794 531 
z
" transform="scale(0.015625)"/>
       </defs>
       <use xlink:href="#DejaVuSans-31"/>
       <use xlink:href="#DejaVuSans-30" x="63.623047"/>
       <use xlink:href="#DejaVuSans-30" x="127.246094"/>
       <use xlink:href="#DejaVuSans-30" x="190.869141"/>
      </g>
     </g>
    </g>
    <g id="text_7">
     <!-- n -->
     <g transform="translate(232.99125 335.860562) scale(0.1 -0.1)">
      <defs>
       <path id="DejaVuSans-6e" d="M 3513 2113 
L 3513 0 
L 2938 0 
L 2938 2094 
Q 2938 2591 2744 2837 
Q 2550 3084 2163 3084 
Q 1697 3084 1428 2787 
Q 1159 2491 1159 1978 
L 1159 0 
L 581 0 
L 581 3500 
L 1159 3500 
L 1159 2956 
Q 1366 3272 1645 3428 
Q 1925 3584 2291 3584 
Q 2894 3584 3203 3211 
Q 3513 2838 3513 2113 
z
" transform="scale(0.015625)"/>
      </defs>
      <use xlink:href="#DejaVuSans-6e"/>
     </g>
    </g>
   </g>
   <g id="matplotlib.axis_2">
    <g id="ytick_1">
     <g id="line2d_7">
      <defs>
       <path id="m0adf930d60" d="M 0 0 
L -3.5 0 
" style="stroke: #000000; stroke-width: 0.8"/>
      </defs>
      <g>
       <use xlink:href="#m0adf930d60" x="57.6" y="286.272652" style="stroke: #000000; stroke-width: 0.8"/>
      </g>
     </g>
     <g id="text_8">
      <!-- −0.3 -->
      <g transform="translate(26.317187 290.071871) scale(0.1 -0.1)">
       <defs>
        <path id="DejaVuSans-2212" d="M 678 2272 
L 4684 2272 
L 4684 1741 
L 678 1741 
L 678 2272 
z
" transform="scale(0.015625)"/>
        <path id="DejaVuSans-2e" d="M 684 794 
L 1344 794 
L 1344 0 
L 684 0 
L 684 794 
z
" transform="scale(0.015625)"/>
        <path id="DejaVuSans-33" d="M 2597 2516 
Q 3050 2419 3304 2112 
Q 3559 1806 3559 1356 
Q 3559 666 3084 287 
Q 2609 -91 1734 -91 
Q 1441 -91 1130 -33 
Q 819 25 488 141 
L 488 750 
Q 750 597 1062 519 
Q 1375 441 1716 441 
Q 2309 441 2620 675 
Q 2931 909 2931 1356 
Q 2931 1769 2642 2001 
Q 2353 2234 1838 2234 
L 1294 2234 
L 1294 2753 
L 1863 2753 
Q 2328 2753 2575 2939 
Q 2822 3125 2822 3475 
Q 2822 3834 2567 4026 
Q 2313 4219 1838 4219 
Q 1578 4219 1281 4162 
Q 984 4106 628 3988 
L 628 4550 
Q 988 4650 1302 4700 
Q 1616 4750 1894 4750 
Q 2613 4750 3031 4423 
Q 3450 4097 3450 3541 
Q 3450 3153 3228 2886 
Q 3006 2619 2597 2516 
z
" transform="scale(0.015625)"/>
       </defs>
       <use xlink:href="#DejaVuSans-2212"/>
       <use xlink:href="#DejaVuSans-30" x="83.789062"/>
       <use xlink:href="#DejaVuSans-2e" x="147.412109"/>
       <use xlink:href="#DejaVuSans-33" x="179.199219"/>
      </g>
     </g>
    </g>
    <g id="ytick_2">
     <g id="line2d_8">
      <g>
       <use xlink:href="#m0adf930d60" x="57.6" y="253.034367" style="stroke: #000000; stroke-width: 0.8"/>
      </g>
     </g>
     <g id="text_9">
      <!-- −0.2 -->
      <g transform="translate(26.317187 256.833586) scale(0.1 -0.1)">
       <use xlink:href="#DejaVuSans-2212"/>
       <use xlink:href="#DejaVuSans-30" x="83.789062"/>
       <use xlink:href="#DejaVuSans-2e" x="147.412109"/>
       <use xlink:href="#DejaVuSans-32" x="179.199219"/>
      </g>
     </g>
    </g>
    <g id="ytick_3">
     <g id="line2d_9">
      <g>
       <use xlink:href="#m0adf930d60" x="57.6" y="219.796082" style="stroke: #000000; stroke-width: 0.8"/>
      </g>
     </g>
     <g id="text_10">
      <!-- −0.1 -->
      <g transform="translate(26.317187 223.595301) scale(0.1 -0.1)">
       <use xlink:href="#DejaVuSans-2212"/>
       <use xlink:href="#DejaVuSans-30" x="83.789062"/>
       <use xlink:href="#DejaVuSans-2e" x="147.412109"/>
       <use xlink:href="#DejaVuSans-31" x="179.199219"/>
      </g>
     </g>
    </g>
    <g id="ytick_4">
     <g id="line2d_10">
      <g>
       <use xlink:href="#m0adf930d60" x="57.6" y="186.557797" style="stroke: #000000; stroke-width: 0.8"/>
      </g>
     </g>
     <g id="text_11">
      <!-- 0.0 -->
      <g transform="translate(34.696875 190.357015) scale(0.1 -0.1)">
       <use xlink:href="#DejaVuSans-30"/>
       <use xlink:href="#DejaVuSans-2e" x="63.623047"/>
       <use xlink:href="#DejaVuSans-30" x="95.410156"/>
      </g>
     </g>
    </g>
    <g id="ytick_5">
     <g id="line2d_11">
      <g>
       <use xlink:href="#m0adf930d60" x="57.6" y="153.319511" style="stroke: #000000; stroke-width: 0.8"/>
      </g>
     </g>
     <g id="text_12">
      <!-- 0.1 -->
      <g transform="translate(34.696875 157.11873) scale(0.1 -0.1)">
       <use xlink:href="#DejaVuSans-30"/>
       <use xlink:href="#DejaVuSans-2e" x="63.623047"/>
       <use xlink:href="#DejaVuSans-31" x="95.410156"/>
      </g>
     </g>
    </g>
    <g id="ytick_6">
     <g id="line2d_12">
      <g>
       <use xlink:href="#m0adf930d60" x="57.6" y="120.081226" style="stroke: #000000; stroke-width: 0.8"/>
      </g>
     </g>
     <g id="text_13">
      <!-- 0.2 -->
      <g transform="translate(34.696875 123.880445) scale(0.1 -0.1)">
       <use xlink:href="#DejaVuSans-30"/>
       <use xlink:href="#DejaVuSans-2e" x="63.623047"/>
       <use xlink:href="#DejaVuSans-32" x="95.410156"/>
      </g>
     </g>
    </g>
    <g id="ytick_7">
     <g id="line2d_13">
      <g>
       <use xlink:href="#m0adf930d60" x="57.6" y="86.842941" style="stroke: #000000; stroke-width: 0.8"/>
      </g>
     </g>
     <g id="text_14">
      <!-- 0.3 -->
      <g transform="translate(34.696875 90.64216) scale(0.1 -0.1)">
       <use xlink:href="#DejaVuSans-30"/>
       <use xlink:href="#DejaVuSans-2e" x="63.623047"/>
       <use xlink:href="#DejaVuSans-33" x="95.410156"/>
      </g>
     </g>
    </g>
    <g id="ytick_8">
     <g id="line2d_14">
      <g>
       <use xlink:href="#m0adf930d60" x="57.6" y="53.604656" style="stroke: #000000; stroke-width: 0.8"/>
      </g>
     </g>
     <g id="text_15">
      <!-- 0.4 -->
      <g transform="translate(34.696875 57.403875) scale(0.1 -0.1)">
       <use xlink:href="#DejaVuSans-30"/>
       <use xlink:href="#DejaVuSans-2e" x="63.623047"/>
       <use xlink:href="#DejaVuSans-34" x="95.410156"/>
      </g>
     </g>
    </g>
    <g id="text_16">
     <!-- E*t -->
     <g transform="translate(20.2375 182.147531) rotate(-90) scale(0.1 -0.1)">
      <defs>
       <path id="DejaVuSans-45" d="M 628 4666 
L 3578 4666 
L 3578 4134 
L 1259 4134 
L 1259 2753 
L 3481 2753 
L 3481 2222 
L 1259 2222 
L 1259 531 
L 3634 531 
L 3634 0 
L 628 0 
L 628 4666 
z
" transform="scale(0.015625)"/>
       <path id="DejaVuSans-2a" d="M 3009 3897 
L 1888 3291 
L 3009 2681 
L 2828 2375 
L 1778 3009 
L 1778 1831 
L 1422 1831 
L 1422 3009 
L 372 2375 
L 191 2681 
L 1313 3291 
L 191 3897 
L 372 4206 
L 1422 3572 
L 1422 4750 
L 1778 4750 
L 1778 3572 
L 2828 4206 
L 3009 3897 
z
" transform="scale(0.015625)"/>
       <path id="DejaVuSans-74" d="M 1172 4494 
L 1172 3500 
L 2356 3500 
L 2356 3053 
L 1172 3053 
L 1172 1153 
Q 1172 725 1289 603 
Q 1406 481 1766 481 
L 2356 481 
L 2356 0 
L 1766 0 
Q 1100 0 847 248 
Q 594 497 594 1153 
L 594 3053 
L 172 3053 
L 172 3500 
L 594 3500 
L 594 4494 
L 1172 4494 
z
" transform="scale(0.015625)"/>
      </defs>
      <use xlink:href="#DejaVuSans-45"/>
      <use xlink:href="#DejaVuSans-2a" x="63.183594"/>
      <use xlink:href="#DejaVuSans-74" x="113.183594"/>
     </g>
    </g>
   </g>
   <g id="line2d_15">
    <path d="M 73.832727 295.488 
L 74.150083 287.748332 
L 74.784793 284.566151 
L 75.102149 280.067798 
L 75.419504 279.111754 
L 75.73686 277.012211 
L 76.054215 276.662006 
L 76.37157 275.220088 
L 76.688926 274.316258 
L 77.006281 274.109658 
L 77.323636 272.020554 
L 78.275702 269.465728 
L 78.593058 269.145592 
L 78.910413 268.476335 
L 79.227769 268.0673 
L 80.179835 265.531667 
L 81.131901 264.544524 
L 81.449256 263.57467 
L 81.766612 263.272919 
L 82.718678 261.843158 
L 83.353388 261.15708 
L 83.988099 259.979607 
L 84.305455 259.36992 
L 84.940165 258.595087 
L 85.892231 257.482642 
L 87.161653 256.141929 
L 87.479008 255.480988 
L 87.796364 255.218468 
L 88.113719 254.633662 
L 88.74843 254.157403 
L 89.38314 253.404206 
L 89.700496 253.220302 
L 91.287273 251.606396 
L 91.604628 251.047186 
L 92.87405 250.42791 
L 93.191405 249.950389 
L 93.50876 249.716212 
L 94.143471 249.023102 
L 94.460826 248.826995 
L 94.778182 248.395785 
L 95.095537 248.217208 
L 96.047603 247.057576 
L 97.317025 246.246728 
L 97.63438 245.864577 
L 97.951736 245.797744 
L 98.269091 245.593903 
L 98.903802 244.905671 
L 99.221157 244.653171 
L 99.538512 244.57508 
L 99.855868 244.120782 
L 100.490579 243.833211 
L 100.807934 243.445164 
L 101.125289 243.37765 
L 102.394711 242.491215 
L 102.712066 242.359979 
L 103.029421 242.079831 
L 103.664132 241.85518 
L 103.981488 241.483734 
L 104.616198 241.205059 
L 104.933554 240.962692 
L 105.250909 240.539177 
L 105.88562 240.238445 
L 106.837686 239.443233 
L 107.472397 239.118299 
L 108.107107 238.63503 
L 108.424463 238.274942 
L 109.059174 238.035328 
L 110.01124 237.333467 
L 110.328595 237.260774 
L 112.232727 236.177898 
L 116.040992 234.204292 
L 116.358347 234.158456 
L 118.579835 232.752003 
L 119.214545 232.097506 
L 120.483967 231.42065 
L 121.436033 230.882942 
L 122.070744 230.530596 
L 123.02281 230.008158 
L 123.340165 229.917945 
L 123.974876 229.566718 
L 126.196364 228.503147 
L 126.831074 228.161884 
L 129.052562 227.105488 
L 129.369917 227.096715 
L 130.639339 226.468463 
L 130.956694 226.398744 
L 131.591405 225.96947 
L 133.178182 225.323533 
L 133.812893 224.921185 
L 134.764959 224.462096 
L 135.082314 224.40151 
L 135.399669 224.100198 
L 136.351736 223.759964 
L 136.669091 223.437549 
L 136.986446 223.358024 
L 137.621157 223.032702 
L 138.573223 222.631376 
L 139.207934 222.196048 
L 141.746777 221.118994 
L 142.381488 220.829202 
L 143.333554 220.50189 
L 143.650909 220.315624 
L 143.968264 220.282593 
L 144.602975 219.944842 
L 146.824463 219.14083 
L 147.776529 218.5686 
L 149.04595 218.163593 
L 149.680661 217.824349 
L 150.315372 217.540204 
L 151.902149 216.925393 
L 154.440992 215.936587 
L 154.758347 215.688462 
L 155.075702 215.582676 
L 155.393058 215.359044 
L 155.710413 215.338215 
L 156.662479 215.02762 
L 157.29719 214.79236 
L 157.931901 214.360773 
L 158.566612 214.240562 
L 159.201322 213.994632 
L 159.518678 213.942233 
L 159.836033 213.626547 
L 161.42281 213.08243 
L 163.009587 212.452243 
L 168.087273 210.443714 
L 169.356694 209.961415 
L 169.991405 209.680314 
L 170.943471 209.441445 
L 174.43438 208.162024 
L 176.338512 207.399432 
L 177.925289 206.901235 
L 181.098843 205.717508 
L 181.416198 205.540313 
L 181.733554 205.495373 
L 182.68562 205.134001 
L 183.002975 205.050792 
L 183.637686 204.739952 
L 184.272397 204.5497 
L 185.859174 204.108702 
L 186.81124 203.72548 
L 187.44595 203.521691 
L 188.398017 203.253208 
L 191.254215 202.172868 
L 192.523636 201.820336 
L 193.475702 201.374932 
L 194.427769 200.996335 
L 200.140165 199.030018 
L 200.457521 198.840709 
L 201.092231 198.652945 
L 203.313719 197.926331 
L 203.94843 197.729235 
L 204.900496 197.280002 
L 205.217851 197.236283 
L 205.852562 196.987326 
L 207.756694 196.338027 
L 208.391405 196.145405 
L 209.026116 195.918008 
L 209.978182 195.688379 
L 210.295537 195.464866 
L 211.882314 194.991821 
L 212.83438 194.665446 
L 216.96 193.263547 
L 217.912066 192.951791 
L 222.355041 191.369678 
L 223.307107 191.103902 
L 224.259174 190.706321 
L 224.893884 190.512407 
L 225.84595 190.20017 
L 226.480661 189.922595 
L 229.019504 189.125166 
L 229.654215 188.978579 
L 230.288926 188.717428 
L 231.558347 188.316234 
L 231.875702 188.272839 
L 232.510413 187.865528 
L 233.145124 187.697046 
L 235.049256 186.971496 
L 235.366612 186.914943 
L 236.001322 186.602233 
L 238.22281 185.919085 
L 240.126942 185.160828 
L 240.444298 185.110697 
L 241.079008 184.784553 
L 243.617851 184.005197 
L 244.252562 183.775559 
L 245.204628 183.560695 
L 247.426116 182.828139 
L 247.743471 182.784222 
L 248.378182 182.505586 
L 251.869091 181.163937 
L 252.503802 180.916399 
L 254.090579 180.367354 
L 255.042645 179.975312 
L 255.677355 179.877631 
L 262.659174 177.11199 
L 262.976529 177.062493 
L 263.61124 176.80922 
L 269.323636 174.816597 
L 269.958347 174.567728 
L 271.227769 174.131476 
L 272.49719 173.7257 
L 273.449256 173.260636 
L 274.401322 173.001029 
L 275.036033 172.649959 
L 275.988099 172.443153 
L 276.305455 172.404346 
L 276.940165 172.100248 
L 277.574876 171.874755 
L 278.526942 171.410324 
L 280.431074 170.778291 
L 281.065785 170.535966 
L 281.700496 170.088804 
L 282.652562 169.799729 
L 284.239339 169.0281 
L 284.556694 168.984065 
L 284.87405 168.753292 
L 285.50876 168.566647 
L 286.778182 168.193506 
L 288.047603 167.642818 
L 288.682314 167.436395 
L 289.317025 167.140012 
L 291.221157 166.56869 
L 292.173223 166.252388 
L 294.077355 165.529873 
L 294.394711 165.276148 
L 295.664132 164.783624 
L 297.88562 163.781956 
L 298.837686 163.356031 
L 299.789752 163.111413 
L 300.741818 162.727063 
L 304.232727 161.461043 
L 304.867438 161.006671 
L 307.406281 160.037983 
L 307.723636 159.805858 
L 308.358347 159.652381 
L 308.675702 159.442265 
L 309.310413 159.267405 
L 309.945124 158.939758 
L 310.262479 158.90872 
L 310.89719 158.55204 
L 311.531901 158.326722 
L 312.166612 157.977426 
L 312.483967 157.942311 
L 313.436033 157.451139 
L 314.070744 157.238807 
L 314.388099 157.173708 
L 315.02281 156.882569 
L 316.292231 156.396905 
L 316.609587 156.217509 
L 317.244298 156.046941 
L 318.196364 155.5047 
L 320.100496 154.840212 
L 320.417851 154.505272 
L 321.052562 154.32092 
L 325.178182 152.564358 
L 326.130248 152.004402 
L 326.447603 151.789282 
L 327.082314 151.589606 
L 327.399669 151.399371 
L 328.03438 151.267518 
L 328.986446 150.718555 
L 330.890579 149.902194 
L 331.525289 149.544341 
L 333.112066 148.890335 
L 335.650909 147.740123 
L 336.28562 147.545688 
L 336.602975 147.257302 
L 337.237686 147.033658 
L 337.555041 146.906618 
L 338.189752 146.476468 
L 338.507107 146.272474 
L 338.824463 145.835942 
L 340.093884 145.343051 
L 341.04595 144.669439 
L 341.998017 144.409662 
L 342.315372 144.307851 
L 342.632727 144.041107 
L 343.267438 143.77506 
L 343.902149 143.405427 
L 344.854215 142.923938 
L 345.17157 142.835331 
L 345.488926 142.508717 
L 346.123636 142.151749 
L 349.931901 140.029883 
L 350.249256 139.967184 
L 351.518678 138.637294 
L 351.836033 138.500074 
L 352.153388 138.125572 
L 355.326942 136.46662 
L 355.644298 136.177482 
L 355.961653 136.10841 
L 358.500496 134.373201 
L 359.452562 133.314859 
L 360.087273 133.037113 
L 360.404628 132.738323 
L 360.721983 132.184627 
L 361.039339 132.129464 
L 362.943471 130.726819 
L 363.260826 130.42355 
L 364.530248 129.78119 
L 364.847603 129.152648 
L 365.482314 128.664546 
L 366.117025 128.164162 
L 366.43438 127.682653 
L 367.069091 127.330094 
L 368.021157 126.38531 
L 368.338512 126.32086 
L 368.973223 125.834551 
L 369.607934 125.52142 
L 369.925289 125.297249 
L 370.877355 124.200558 
L 371.194711 123.832684 
L 372.464132 123.077698 
L 372.781488 122.472173 
L 373.098843 122.127257 
L 373.416198 121.957853 
L 375.320331 119.789115 
L 375.637686 119.291293 
L 375.955041 119.023615 
L 376.589752 118.029273 
L 377.224463 117.774837 
L 377.541818 117.49952 
L 378.176529 116.543483 
L 378.493884 116.349345 
L 378.81124 115.909317 
L 379.128595 115.787558 
L 379.44595 115.28723 
L 380.080661 114.868231 
L 380.715372 113.822764 
L 381.032727 113.639454 
L 381.350083 112.975267 
L 381.667438 112.647941 
L 382.302149 111.706169 
L 383.254215 111.13345 
L 383.57157 110.756938 
L 383.888926 110.06959 
L 384.206281 109.764434 
L 384.840992 108.536656 
L 385.475702 107.967292 
L 385.793058 106.823975 
L 386.745124 105.379894 
L 387.379835 104.9353 
L 387.69719 104.687593 
L 389.283967 101.658077 
L 389.601322 101.166719 
L 389.918678 100.253522 
L 390.236033 99.939542 
L 390.553388 99.414054 
L 392.140165 95.41136 
L 392.457521 94.951781 
L 393.726942 91.321537 
L 394.044298 90.63611 
L 394.361653 88.316711 
L 395.313719 84.821016 
L 395.631074 82.509625 
L 395.94843 81.648952 
L 396.265785 78.811468 
L 396.58314 77.191107 
L 397.535207 68.936157 
L 398.487273 53.568 
L 398.487273 53.568 
" clip-path="url(#pd390d846a6)" style="fill: none; stroke: #1f77b4; stroke-width: 1.5; stroke-linecap: square"/>
   </g>
   <g id="line2d_16">
    <path d="M 73.832727 249.710538 
L 74.150083 243.062881 
L 74.467438 242.412155 
L 74.784793 240.523683 
L 75.102149 237.582331 
L 75.419504 236.415223 
L 76.054215 235.054347 
L 76.37157 233.876027 
L 76.688926 233.876027 
L 77.006281 233.290948 
L 77.323636 231.365008 
L 77.640992 230.934675 
L 78.275702 229.767568 
L 78.593058 229.767566 
L 78.910413 229.116842 
L 79.227769 229.093998 
L 80.179835 227.22837 
L 80.49719 227.22837 
L 81.131901 226.643291 
L 81.449256 226.462278 
L 83.036033 224.36842 
L 83.670744 224.120419 
L 83.988099 223.617166 
L 84.305455 223.572111 
L 84.62281 223.11991 
L 84.940165 223.119908 
L 85.257521 222.833986 
L 85.574876 222.799015 
L 85.892231 222.469185 
L 86.209587 222.44634 
L 86.526942 222.299299 
L 87.161653 221.759034 
L 88.113719 220.974401 
L 88.431074 220.580714 
L 88.74843 220.580713 
L 89.065785 220.237041 
L 90.017851 219.89478 
L 90.335207 219.814623 
L 90.969917 219.011451 
L 91.921983 218.900915 
L 92.87405 218.136869 
L 93.191405 218.069695 
L 93.50876 217.720761 
L 94.143471 217.472765 
L 95.730248 216.924456 
L 96.047603 216.865013 
L 96.364959 216.472253 
L 96.682314 216.472251 
L 97.317025 216.18633 
L 97.63438 216.151356 
L 97.951736 215.821528 
L 98.269091 215.798683 
L 98.586446 215.651643 
L 98.903802 215.648123 
L 99.221157 215.425135 
L 100.173223 215.245832 
L 101.125289 214.755643 
L 101.76 214.382055 
L 102.077355 214.326745 
L 102.394711 213.939735 
L 103.029421 213.933057 
L 103.346777 213.589382 
L 103.981488 213.347978 
L 104.933554 213.166967 
L 105.250909 212.709787 
L 107.472397 212.253259 
L 107.789752 212.007234 
L 108.741818 211.811117 
L 109.693884 211.443933 
L 110.328595 211.402269 
L 110.64595 211.073104 
L 111.915372 210.700385 
L 112.232727 210.541915 
L 112.867438 210.47532 
L 113.502149 210.32185 
L 114.13686 210.217357 
L 114.454215 209.845697 
L 115.088926 209.824594 
L 115.723636 209.538675 
L 116.358347 209.489139 
L 116.675702 209.173871 
L 116.993058 209.151025 
L 117.310413 209.003987 
L 117.627769 209.000467 
L 117.945124 208.77748 
L 120.166612 208.577031 
L 120.801322 208.463721 
L 121.436033 208.210432 
L 123.340165 207.680652 
L 123.657521 207.679089 
L 123.974876 207.29208 
L 124.926942 207.228276 
L 126.196364 206.807182 
L 127.465785 206.673379 
L 128.100496 206.519311 
L 128.417851 206.06213 
L 130.956694 205.546424 
L 131.27405 205.362939 
L 131.90876 205.328206 
L 132.860826 205.022758 
L 134.447603 204.754612 
L 134.764959 204.425446 
L 136.669091 204.052727 
L 136.986446 203.899602 
L 138.890579 203.788727 
L 140.16 203.674192 
L 140.794711 203.569701 
L 141.112066 203.25372 
L 143.968264 202.800326 
L 144.28562 202.526215 
L 144.602975 202.503368 
L 144.920331 202.35633 
L 145.555041 202.283267 
L 145.872397 202.129824 
L 148.41124 201.924268 
L 149.363306 201.741689 
L 151.267438 201.265666 
L 151.584793 201.261193 
L 152.219504 201.032994 
L 152.53686 201.031432 
L 153.488926 200.644425 
L 154.758347 200.580618 
L 155.710413 200.305807 
L 156.027769 200.294067 
L 156.662479 200.078344 
L 158.883967 199.871655 
L 159.201322 199.481135 
L 160.153388 199.34845 
L 161.740165 199.260232 
L 162.057521 199.068476 
L 163.009587 198.957947 
L 165.54843 198.515803 
L 166.817851 198.222516 
L 168.087273 198.106955 
L 168.404628 197.777789 
L 170.30876 197.515888 
L 170.626116 197.251943 
L 172.530248 197.142834 
L 173.799669 197.026535 
L 174.751736 196.884235 
L 175.386446 196.642426 
L 176.655868 196.529281 
L 176.973223 196.334588 
L 177.607934 196.243362 
L 179.194711 196.09344 
L 179.512066 195.878558 
L 181.098843 195.705154 
L 183.320331 195.302864 
L 185.541818 195.079306 
L 186.493884 194.915119 
L 187.128595 194.812677 
L 187.44595 194.781796 
L 187.763306 194.623811 
L 188.398017 194.613537 
L 189.032727 194.385336 
L 189.984793 194.083077 
L 194.427769 193.51187 
L 195.062479 193.405009 
L 196.966612 193.223999 
L 197.283967 192.833475 
L 197.601322 192.703244 
L 199.505455 192.595114 
L 200.457521 192.420818 
L 201.726942 192.251103 
L 202.044298 192.072242 
L 203.313719 192.032892 
L 203.94843 191.902407 
L 206.487273 191.546241 
L 207.439339 191.340957 
L 207.756694 191.084508 
L 209.343471 190.882147 
L 209.660826 190.604286 
L 212.199669 190.49518 
L 213.469091 190.378878 
L 214.421157 190.236575 
L 214.738512 190.052357 
L 222.989752 188.821109 
L 223.624463 188.714512 
L 225.21124 188.571887 
L 225.84595 188.446378 
L 226.480661 188.355082 
L 228.067438 187.976153 
L 229.019504 187.893638 
L 229.654215 187.765237 
L 230.288926 187.605287 
L 230.923636 187.435418 
L 235.366612 186.864214 
L 236.001322 186.76229 
L 237.905455 186.576343 
L 238.22281 186.185815 
L 238.540165 186.055588 
L 240.761653 185.947458 
L 241.713719 185.773161 
L 242.34843 185.615016 
L 242.665785 185.443364 
L 244.887273 185.22049 
L 245.521983 185.117314 
L 249.330248 184.564914 
L 249.964959 184.404563 
L 250.599669 184.340683 
L 252.186446 183.951287 
L 254.090579 183.847526 
L 257.898843 183.233968 
L 258.533554 183.203921 
L 258.850909 183.039276 
L 259.48562 182.990653 
L 261.072397 182.57171 
L 262.024463 182.484187 
L 262.976529 182.413361 
L 263.61124 182.34029 
L 264.24595 182.082052 
L 266.150083 181.924232 
L 267.102149 181.798722 
L 267.73686 181.707425 
L 269.640992 181.25587 
L 270.275702 181.143769 
L 270.593058 181.090021 
L 270.910413 180.787759 
L 275.353388 180.216558 
L 276.305455 180.008847 
L 278.209587 179.892838 
L 279.479008 179.364677 
L 280.74843 179.299803 
L 283.604628 178.757608 
L 284.239339 178.625036 
L 287.412893 178.177061 
L 288.364959 178.045643 
L 289.63438 177.789194 
L 290.586446 177.693028 
L 291.538512 177.297584 
L 292.490579 177.202707 
L 293.76 177.094185 
L 294.712066 176.712592 
L 296.298843 176.556261 
L 296.933554 176.39162 
L 297.568264 176.342994 
L 299.155041 175.924055 
L 299.789752 175.836534 
L 304.550083 175.151065 
L 304.867438 175.132304 
L 305.502149 174.871077 
L 308.675702 174.442364 
L 309.310413 174.1401 
L 310.579835 173.952768 
L 311.214545 173.775391 
L 312.166612 173.670582 
L 313.118678 173.466972 
L 313.753388 173.354828 
L 315.02281 173.102479 
L 315.657521 172.717017 
L 316.926942 172.660704 
L 317.879008 172.477846 
L 318.196364 172.452004 
L 318.513719 172.148042 
L 320.417851 171.925177 
L 321.687273 171.731405 
L 322.321983 171.529406 
L 323.90876 171.374019 
L 326.130248 170.856548 
L 326.447603 170.657703 
L 327.399669 170.552216 
L 328.351736 170.281046 
L 329.303802 170.064933 
L 330.890579 169.934879 
L 331.525289 169.603199 
L 332.477355 169.502801 
L 332.794711 169.2764 
L 333.746777 169.18888 
L 336.602975 168.621053 
L 337.237686 168.519661 
L 337.555041 168.223426 
L 339.141818 167.950667 
L 339.776529 167.794707 
L 340.093884 167.53605 
L 341.363306 167.337976 
L 341.680661 167.160397 
L 342.950083 167.019309 
L 343.902149 166.83364 
L 344.854215 166.70717 
L 346.123636 166.45482 
L 346.440992 166.069358 
L 347.075702 166.065127 
L 347.710413 165.830189 
L 348.027769 165.804342 
L 348.345124 165.481603 
L 349.29719 165.23636 
L 349.931901 165.105957 
L 350.566612 165.083741 
L 351.201322 164.762304 
L 352.470744 164.621944 
L 353.740165 164.208885 
L 354.057521 164.010046 
L 354.692231 163.94172 
L 355.009587 163.847875 
L 355.326942 163.633385 
L 355.961653 163.544704 
L 356.596364 163.417275 
L 357.54843 163.295431 
L 358.18314 162.94982 
L 358.500496 162.890134 
L 359.135207 162.47949 
L 359.769917 162.390263 
L 360.087273 162.330901 
L 360.404628 161.973392 
L 361.039339 161.902922 
L 361.356694 161.575774 
L 364.212893 160.844784 
L 365.164959 160.512744 
L 365.482314 160.502576 
L 366.43438 160.185981 
L 367.386446 160.059511 
L 367.703802 159.985306 
L 368.021157 159.600812 
L 368.338512 159.421699 
L 368.655868 159.417998 
L 369.290579 158.833943 
L 370.56 158.558872 
L 370.877355 158.458296 
L 371.512066 158.078717 
L 372.464132 157.877808 
L 373.098843 157.362388 
L 374.368264 156.769616 
L 375.320331 156.647766 
L 375.637686 156.302155 
L 376.272397 156.082904 
L 377.224463 155.826965 
L 377.541818 155.742604 
L 377.859174 155.325731 
L 378.493884 155.255264 
L 378.81124 154.815375 
L 379.128595 154.809211 
L 379.44595 154.408036 
L 380.398017 153.854912 
L 381.350083 153.538323 
L 381.984793 153.411854 
L 382.302149 153.337646 
L 383.254215 152.186284 
L 383.57157 152.178742 
L 384.840992 151.340525 
L 385.475702 151.230151 
L 386.110413 150.913561 
L 386.745124 150.263654 
L 387.379835 150.072739 
L 387.69719 150.000102 
L 388.014545 149.319375 
L 388.331901 149.094945 
L 388.649256 148.67807 
L 388.966612 148.614844 
L 389.283967 148.167716 
L 389.601322 148.161555 
L 390.553388 146.890665 
L 390.870744 146.876339 
L 391.188099 146.384825 
L 391.82281 146.305502 
L 392.140165 145.162975 
L 392.457521 144.670704 
L 393.409587 143.891613 
L 393.726942 143.425082 
L 394.361653 142.030409 
L 394.679008 141.520057 
L 394.996364 141.404365 
L 395.631074 140.672691 
L 396.265785 138.515315 
L 396.58314 138.023047 
L 396.900496 137.788686 
L 397.217851 134.298415 
L 397.535207 134.02503 
L 397.852562 133.017104 
L 398.487273 127.650747 
L 398.487273 127.650747 
" clip-path="url(#pd390d846a6)" style="fill: none; stroke: #ff7f0e; stroke-width: 1.5; stroke-linecap: square"/>
   </g>
   <g id="patch_3">
    <path d="M 57.6 307.584 
L 57.6 41.472 
" style="fill: none; stroke: #000000; stroke-width: 0.8; stroke-linejoin: miter; stroke-linecap: square"/>
   </g>
   <g id="patch_4">
    <path d="M 414.72 307.584 
L 414.72 41.472 
" style="fill: none; stroke: #000000; stroke-width: 0.8; stroke-linejoin: miter; stroke-linecap: square"/>
   </g>
   <g id="patch_5">
    <path d="M 57.6 307.584 
L 414.72 307.584 
" style="fill: none; stroke: #000000; stroke-width: 0.8; stroke-linejoin: miter; stroke-linecap: square"/>
   </g>
   <g id="patch_6">
    <path d="M 57.6 41.472 
L 414.72 41.472 
" style="fill: none; stroke: #000000; stroke-width: 0.8; stroke-linejoin: miter; stroke-linecap: square"/>
   </g>
   <g id="legend_1">
    <g id="patch_7">
     <path d="M 64.6 78.82825 
L 129.342187 78.82825 
Q 131.342187 78.82825 131.342187 76.82825 
L 131.342187 48.472 
Q 131.342187 46.472 129.342187 46.472 
L 64.6 46.472 
Q 62.6 46.472 62.6 48.472 
L 62.6 76.82825 
Q 62.6 78.82825 64.6 78.82825 
z
" style="fill: #ffffff; opacity: 0.8; stroke: #cccccc; stroke-linejoin: miter"/>
    </g>
    <g id="line2d_17">
     <path d="M 66.6 54.570437 
L 76.6 54.570437 
L 86.6 54.570437 
" style="fill: none; stroke: #1f77b4; stroke-width: 1.5; stroke-linecap: square"/>
    </g>
    <g id="text_17">
     <!-- qc -->
     <g transform="translate(94.6 58.070437) scale(0.1 -0.1)">
      <defs>
       <path id="DejaVuSans-71" d="M 947 1747 
Q 947 1113 1208 752 
Q 1469 391 1925 391 
Q 2381 391 2643 752 
Q 2906 1113 2906 1747 
Q 2906 2381 2643 2742 
Q 2381 3103 1925 3103 
Q 1469 3103 1208 2742 
Q 947 2381 947 1747 
z
M 2906 525 
Q 2725 213 2448 61 
Q 2172 -91 1784 -91 
Q 1150 -91 751 415 
Q 353 922 353 1747 
Q 353 2572 751 3078 
Q 1150 3584 1784 3584 
Q 2172 3584 2448 3432 
Q 2725 3281 2906 2969 
L 2906 3500 
L 3481 3500 
L 3481 -1331 
L 2906 -1331 
L 2906 525 
z
" transform="scale(0.015625)"/>
       <path id="DejaVuSans-63" d="M 3122 3366 
L 3122 2828 
Q 2878 2963 2633 3030 
Q 2388 3097 2138 3097 
Q 1578 3097 1268 2742 
Q 959 2388 959 1747 
Q 959 1106 1268 751 
Q 1578 397 2138 397 
Q 2388 397 2633 464 
Q 2878 531 3122 666 
L 3122 134 
Q 2881 22 2623 -34 
Q 2366 -91 2075 -91 
Q 1284 -91 818 406 
Q 353 903 353 1747 
Q 353 2603 823 3093 
Q 1294 3584 2113 3584 
Q 2378 3584 2631 3529 
Q 2884 3475 3122 3366 
z
" transform="scale(0.015625)"/>
      </defs>
      <use xlink:href="#DejaVuSans-71"/>
      <use xlink:href="#DejaVuSans-63" x="63.476562"/>
     </g>
    </g>
    <g id="line2d_18">
     <path d="M 66.6 69.248562 
L 76.6 69.248562 
L 86.6 69.248562 
" style="fill: none; stroke: #ff7f0e; stroke-width: 1.5; stroke-linecap: square"/>
    </g>
    <g id="text_18">
     <!-- Trotter -->
     <g transform="translate(94.6 72.748562) scale(0.1 -0.1)">
      <defs>
       <path id="DejaVuSans-54" d="M -19 4666 
L 3928 4666 
L 3928 4134 
L 2272 4134 
L 2272 0 
L 1638 0 
L 1638 4134 
L -19 4134 
L -19 4666 
z
" transform="scale(0.015625)"/>
       <path id="DejaVuSans-72" d="M 2631 2963 
Q 2534 3019 2420 3045 
Q 2306 3072 2169 3072 
Q 1681 3072 1420 2755 
Q 1159 2438 1159 1844 
L 1159 0 
L 581 0 
L 581 3500 
L 1159 3500 
L 1159 2956 
Q 1341 3275 1631 3429 
Q 1922 3584 2338 3584 
Q 2397 3584 2469 3576 
Q 2541 3569 2628 3553 
L 2631 2963 
z
" transform="scale(0.015625)"/>
       <path id="DejaVuSans-6f" d="M 1959 3097 
Q 1497 3097 1228 2736 
Q 959 2375 959 1747 
Q 959 1119 1226 758 
Q 1494 397 1959 397 
Q 2419 397 2687 759 
Q 2956 1122 2956 1747 
Q 2956 2369 2687 2733 
Q 2419 3097 1959 3097 
z
M 1959 3584 
Q 2709 3584 3137 3096 
Q 3566 2609 3566 1747 
Q 3566 888 3137 398 
Q 2709 -91 1959 -91 
Q 1206 -91 779 398 
Q 353 888 353 1747 
Q 353 2609 779 3096 
Q 1206 3584 1959 3584 
z
" transform="scale(0.015625)"/>
       <path id="DejaVuSans-65" d="M 3597 1894 
L 3597 1613 
L 953 1613 
Q 991 1019 1311 708 
Q 1631 397 2203 397 
Q 2534 397 2845 478 
Q 3156 559 3463 722 
L 3463 178 
Q 3153 47 2828 -22 
Q 2503 -91 2169 -91 
Q 1331 -91 842 396 
Q 353 884 353 1716 
Q 353 2575 817 3079 
Q 1281 3584 2069 3584 
Q 2775 3584 3186 3129 
Q 3597 2675 3597 1894 
z
M 3022 2063 
Q 3016 2534 2758 2815 
Q 2500 3097 2075 3097 
Q 1594 3097 1305 2825 
Q 1016 2553 972 2059 
L 3022 2063 
z
" transform="scale(0.015625)"/>
      </defs>
      <use xlink:href="#DejaVuSans-54"/>
      <use xlink:href="#DejaVuSans-72" x="46.333984"/>
      <use xlink:href="#DejaVuSans-6f" x="85.197266"/>
      <use xlink:href="#DejaVuSans-74" x="146.378906"/>
      <use xlink:href="#DejaVuSans-74" x="185.587891"/>
      <use xlink:href="#DejaVuSans-65" x="224.796875"/>
      <use xlink:href="#DejaVuSans-72" x="286.320312"/>
     </g>
    </g>
   </g>
  </g>
 </g>
 <defs>
  <clipPath id="pd390d846a6">
   <rect x="57.6" y="41.472" width="357.12" height="266.112"/>
  </clipPath>
 </defs>
</svg>
