<?xml version="1.0" encoding="utf-8" standalone="no"?>
<!DOCTYPE svg PUBLIC "-//W3C//DTD SVG 1.1//EN"
  "http://www.w3.org/Graphics/SVG/1.1/DTD/svg11.dtd">
<svg xmlns:xlink="http://www.w3.org/1999/xlink" width="720pt" height="504pt" viewBox="0 0 720 504" xmlns="http://www.w3.org/2000/svg" version="1.1">
 <metadata>
  <rdf:RDF xmlns:dc="http://purl.org/dc/elements/1.1/" xmlns:cc="http://creativecommons.org/ns#" xmlns:rdf="http://www.w3.org/1999/02/22-rdf-syntax-ns#">
   <cc:Work>
    <dc:type rdf:resource="http://purl.org/dc/dcmitype/StillImage"/>
    <dc:date>2024-07-12T09:23:47.478577</dc:date>
    <dc:format>image/svg+xml</dc:format>
    <dc:creator>
     <cc:Agent>
      <dc:title>Matplotlib v3.7.1, https://matplotlib.org/</dc:title>
     </cc:Agent>
    </dc:creator>
   </cc:Work>
  </rdf:RDF>
 </metadata>
 <defs>
  <style type="text/css">*{stroke-linejoin: round; stroke-linecap: butt}</style>
 </defs>
 <g id="figure_1">
  <g id="patch_1">
   <path d="M 0 504 
L 720 504 
L 720 0 
L 0 0 
z
" style="fill: #ffffff"/>
  </g>
  <g id="patch_2">
   <path d="M 174.96 448.56 
L 563.04 448.56 
L 563.04 60.48 
L 174.96 60.48 
z
" style="fill: #ffffff"/>
  </g>
  <g id="pane3d_1">
   <g id="patch_3">
    <path d="M 204.262716 352.871909 
L 332.419406 245.44843 
L 330.637906 90.52457 
L 196.348257 188.523039 
" style="fill: #f2f2f2; opacity: 0.5; stroke: #f2f2f2; stroke-linejoin: miter"/>
   </g>
  </g>
  <g id="pane3d_2">
   <g id="patch_4">
    <path d="M 332.419406 245.44843 
L 538.065167 305.221534 
L 545.40394 144.961499 
L 330.637906 90.52457 
" style="fill: #e6e6e6; opacity: 0.5; stroke: #e6e6e6; stroke-linejoin: miter"/>
   </g>
  </g>
  <g id="pane3d_3">
   <g id="patch_5">
    <path d="M 204.262716 352.871909 
L 422.257267 424.068929 
L 538.065167 305.221534 
L 332.419406 245.44843 
" style="fill: #ececec; opacity: 0.5; stroke: #ececec; stroke-linejoin: miter"/>
   </g>
  </g>
  <g id="axis3d_1">
   <g id="line2d_1">
    <path d="M 204.262716 352.871909 
L 422.257267 424.068929 
" style="fill: none; stroke: #000000; stroke-width: 0.8; stroke-linecap: square"/>
   </g>
   <g id="text_1">
    <!-- t -->
    <g transform="translate(292.177295 425.471519) scale(0.1 -0.1)">
     <defs>
      <path id="DejaVuSans-74" d="M 1172 4494 
L 1172 3500 
L 2356 3500 
L 2356 3053 
L 1172 3053 
L 1172 1153 
Q 1172 725 1289 603 
Q 1406 481 1766 481 
L 2356 481 
L 2356 0 
L 1766 0 
Q 1100 0 847 248 
Q 594 497 594 1153 
L 594 3053 
L 172 3053 
L 172 3500 
L 594 3500 
L 594 4494 
L 1172 4494 
z
" transform="scale(0.015625)"/>
     </defs>
     <use xlink:href="#DejaVuSans-74"/>
    </g>
   </g>
   <g id="Line3DCollection_1">
    <path d="M 227.947641 360.607405 
L 354.850726 251.968329 
L 354.020019 96.451254 
" style="fill: none; stroke: #b0b0b0; stroke-width: 0.8"/>
    <path d="M 255.696043 369.670033 
L 381.103043 259.598841 
L 381.398757 103.390966 
" style="fill: none; stroke: #b0b0b0; stroke-width: 0.8"/>
    <path d="M 283.827382 378.857729 
L 407.687512 267.325897 
L 409.138932 110.422292 
" style="fill: none; stroke: #b0b0b0; stroke-width: 0.8"/>
    <path d="M 312.34964 388.173098 
L 434.610476 275.151339 
L 437.24775 117.547058 
" style="fill: none; stroke: #b0b0b0; stroke-width: 0.8"/>
    <path d="M 341.271022 397.618821 
L 461.878442 283.077061 
L 465.732608 124.767139 
" style="fill: none; stroke: #b0b0b0; stroke-width: 0.8"/>
    <path d="M 370.599965 407.197654 
L 489.498085 291.105001 
L 494.601102 132.084461 
" style="fill: none; stroke: #b0b0b0; stroke-width: 0.8"/>
    <path d="M 400.345146 416.91243 
L 517.476252 299.237149 
L 523.861035 139.501001 
" style="fill: none; stroke: #b0b0b0; stroke-width: 0.8"/>
   </g>
   <g id="xtick_1">
    <g id="line2d_2">
     <path d="M 229.052939 359.661183 
L 225.73229 362.503921 
" style="fill: none; stroke: #000000; stroke-width: 0.8; stroke-linecap: square"/>
    </g>
    <g id="text_2">
     <!-- 0.10 -->
     <g transform="translate(209.301754 383.947792) scale(0.1 -0.1)">
      <defs>
       <path id="DejaVuSans-30" d="M 2034 4250 
Q 1547 4250 1301 3770 
Q 1056 3291 1056 2328 
Q 1056 1369 1301 889 
Q 1547 409 2034 409 
Q 2525 409 2770 889 
Q 3016 1369 3016 2328 
Q 3016 3291 2770 3770 
Q 2525 4250 2034 4250 
z
M 2034 4750 
Q 2819 4750 3233 4129 
Q 3647 3509 3647 2328 
Q 3647 1150 3233 529 
Q 2819 -91 2034 -91 
Q 1250 -91 836 529 
Q 422 1150 422 2328 
Q 422 3509 836 4129 
Q 1250 4750 2034 4750 
z
" transform="scale(0.015625)"/>
       <path id="DejaVuSans-2e" d="M 684 794 
L 1344 794 
L 1344 0 
L 684 0 
L 684 794 
z
" transform="scale(0.015625)"/>
       <path id="DejaVuSans-31" d="M 794 531 
L 1825 531 
L 1825 4091 
L 703 3866 
L 703 4441 
L 1819 4666 
L 2450 4666 
L 2450 531 
L 3481 531 
L 3481 0 
L 794 0 
L 794 531 
z
" transform="scale(0.015625)"/>
      </defs>
      <use xlink:href="#DejaVuSans-30"/>
      <use xlink:href="#DejaVuSans-2e" x="63.623047"/>
      <use xlink:href="#DejaVuSans-31" x="95.410156"/>
      <use xlink:href="#DejaVuSans-30" x="159.033203"/>
     </g>
    </g>
   </g>
   <g id="xtick_2">
    <g id="line2d_3">
     <path d="M 256.78892 368.710803 
L 253.505556 371.59265 
" style="fill: none; stroke: #000000; stroke-width: 0.8; stroke-linecap: square"/>
    </g>
    <g id="text_3">
     <!-- 0.15 -->
     <g transform="translate(237.069855 393.141868) scale(0.1 -0.1)">
      <defs>
       <path id="DejaVuSans-35" d="M 691 4666 
L 3169 4666 
L 3169 4134 
L 1269 4134 
L 1269 2991 
Q 1406 3038 1543 3061 
Q 1681 3084 1819 3084 
Q 2600 3084 3056 2656 
Q 3513 2228 3513 1497 
Q 3513 744 3044 326 
Q 2575 -91 1722 -91 
Q 1428 -91 1123 -41 
Q 819 9 494 109 
L 494 744 
Q 775 591 1075 516 
Q 1375 441 1709 441 
Q 2250 441 2565 725 
Q 2881 1009 2881 1497 
Q 2881 1984 2565 2268 
Q 2250 2553 1709 2553 
Q 1456 2553 1204 2497 
Q 953 2441 691 2322 
L 691 4666 
z
" transform="scale(0.015625)"/>
      </defs>
      <use xlink:href="#DejaVuSans-30"/>
      <use xlink:href="#DejaVuSans-2e" x="63.623047"/>
      <use xlink:href="#DejaVuSans-31" x="95.410156"/>
      <use xlink:href="#DejaVuSans-35" x="159.033203"/>
     </g>
    </g>
   </g>
   <g id="xtick_3">
    <g id="line2d_4">
     <path d="M 284.907389 377.885219 
L 281.662658 380.806989 
" style="fill: none; stroke: #000000; stroke-width: 0.8; stroke-linecap: square"/>
    </g>
    <g id="text_4">
     <!-- 0.20 -->
     <g transform="translate(265.222157 402.463153) scale(0.1 -0.1)">
      <defs>
       <path id="DejaVuSans-32" d="M 1228 531 
L 3431 531 
L 3431 0 
L 469 0 
L 469 531 
Q 828 903 1448 1529 
Q 2069 2156 2228 2338 
Q 2531 2678 2651 2914 
Q 2772 3150 2772 3378 
Q 2772 3750 2511 3984 
Q 2250 4219 1831 4219 
Q 1534 4219 1204 4116 
Q 875 4013 500 3803 
L 500 4441 
Q 881 4594 1212 4672 
Q 1544 4750 1819 4750 
Q 2544 4750 2975 4387 
Q 3406 4025 3406 3419 
Q 3406 3131 3298 2873 
Q 3191 2616 2906 2266 
Q 2828 2175 2409 1742 
Q 1991 1309 1228 531 
z
" transform="scale(0.015625)"/>
      </defs>
      <use xlink:href="#DejaVuSans-30"/>
      <use xlink:href="#DejaVuSans-2e" x="63.623047"/>
      <use xlink:href="#DejaVuSans-32" x="95.410156"/>
      <use xlink:href="#DejaVuSans-30" x="159.033203"/>
     </g>
    </g>
   </g>
   <g id="xtick_4">
    <g id="line2d_5">
     <path d="M 313.416312 387.187033 
L 310.21161 390.14956 
" style="fill: none; stroke: #000000; stroke-width: 0.8; stroke-linecap: square"/>
    </g>
    <g id="text_5">
     <!-- 0.25 -->
     <g transform="translate(293.766689 411.914305) scale(0.1 -0.1)">
      <use xlink:href="#DejaVuSans-30"/>
      <use xlink:href="#DejaVuSans-2e" x="63.623047"/>
      <use xlink:href="#DejaVuSans-32" x="95.410156"/>
      <use xlink:href="#DejaVuSans-35" x="159.033203"/>
     </g>
    </g>
   </g>
   <g id="xtick_5">
    <g id="line2d_6">
     <path d="M 342.32388 396.618914 
L 339.160649 399.623058 
" style="fill: none; stroke: #000000; stroke-width: 0.8; stroke-linecap: square"/>
    </g>
    <g id="text_6">
     <!-- 0.30 -->
     <g transform="translate(322.711705 421.49806) scale(0.1 -0.1)">
      <defs>
       <path id="DejaVuSans-33" d="M 2597 2516 
Q 3050 2419 3304 2112 
Q 3559 1806 3559 1356 
Q 3559 666 3084 287 
Q 2609 -91 1734 -91 
Q 1441 -91 1130 -33 
Q 819 25 488 141 
L 488 750 
Q 750 597 1062 519 
Q 1375 441 1716 441 
Q 2309 441 2620 675 
Q 2931 909 2931 1356 
Q 2931 1769 2642 2001 
Q 2353 2234 1838 2234 
L 1294 2234 
L 1294 2753 
L 1863 2753 
Q 2328 2753 2575 2939 
Q 2822 3125 2822 3475 
Q 2822 3834 2567 4026 
Q 2313 4219 1838 4219 
Q 1578 4219 1281 4162 
Q 984 4106 628 3988 
L 628 4550 
Q 988 4650 1302 4700 
Q 1616 4750 1894 4750 
Q 2613 4750 3031 4423 
Q 3450 4097 3450 3541 
Q 3450 3153 3228 2886 
Q 3006 2619 2597 2516 
z
" transform="scale(0.015625)"/>
      </defs>
      <use xlink:href="#DejaVuSans-30"/>
      <use xlink:href="#DejaVuSans-2e" x="63.623047"/>
      <use xlink:href="#DejaVuSans-33" x="95.410156"/>
      <use xlink:href="#DejaVuSans-30" x="159.033203"/>
     </g>
    </g>
   </g>
   <g id="xtick_6">
    <g id="line2d_7">
     <path d="M 371.638513 406.183612 
L 368.518245 409.230255 
" style="fill: none; stroke: #000000; stroke-width: 0.8; stroke-linecap: square"/>
    </g>
    <g id="text_7">
     <!-- 0.35 -->
     <g transform="translate(352.065693 431.217225) scale(0.1 -0.1)">
      <use xlink:href="#DejaVuSans-30"/>
      <use xlink:href="#DejaVuSans-2e" x="63.623047"/>
      <use xlink:href="#DejaVuSans-33" x="95.410156"/>
      <use xlink:href="#DejaVuSans-35" x="159.033203"/>
     </g>
    </g>
   </g>
   <g id="xtick_7">
    <g id="line2d_8">
     <path d="M 401.368869 415.883951 
L 398.293107 418.974002 
" style="fill: none; stroke: #000000; stroke-width: 0.8; stroke-linecap: square"/>
    </g>
    <g id="text_8">
     <!-- 0.40 -->
     <g transform="translate(381.837382 441.074693) scale(0.1 -0.1)">
      <defs>
       <path id="DejaVuSans-34" d="M 2419 4116 
L 825 1625 
L 2419 1625 
L 2419 4116 
z
M 2253 4666 
L 3047 4666 
L 3047 1625 
L 3713 1625 
L 3713 1100 
L 3047 1100 
L 3047 0 
L 2419 0 
L 2419 1100 
L 313 1100 
L 313 1709 
L 2253 4666 
z
" transform="scale(0.015625)"/>
      </defs>
      <use xlink:href="#DejaVuSans-30"/>
      <use xlink:href="#DejaVuSans-2e" x="63.623047"/>
      <use xlink:href="#DejaVuSans-34" x="95.410156"/>
      <use xlink:href="#DejaVuSans-30" x="159.033203"/>
     </g>
    </g>
   </g>
  </g>
  <g id="axis3d_2">
   <g id="line2d_9">
    <path d="M 538.065167 305.221534 
L 422.257267 424.068929 
" style="fill: none; stroke: #000000; stroke-width: 0.8; stroke-linecap: square"/>
   </g>
   <g id="text_9">
    <!-- si -->
    <g transform="translate(505.720053 392.74383) scale(0.1 -0.1)">
     <defs>
      <path id="DejaVuSans-73" d="M 2834 3397 
L 2834 2853 
Q 2591 2978 2328 3040 
Q 2066 3103 1784 3103 
Q 1356 3103 1142 2972 
Q 928 2841 928 2578 
Q 928 2378 1081 2264 
Q 1234 2150 1697 2047 
L 1894 2003 
Q 2506 1872 2764 1633 
Q 3022 1394 3022 966 
Q 3022 478 2636 193 
Q 2250 -91 1575 -91 
Q 1294 -91 989 -36 
Q 684 19 347 128 
L 347 722 
Q 666 556 975 473 
Q 1284 391 1588 391 
Q 1994 391 2212 530 
Q 2431 669 2431 922 
Q 2431 1156 2273 1281 
Q 2116 1406 1581 1522 
L 1381 1569 
Q 847 1681 609 1914 
Q 372 2147 372 2553 
Q 372 3047 722 3315 
Q 1072 3584 1716 3584 
Q 2034 3584 2315 3537 
Q 2597 3491 2834 3397 
z
" transform="scale(0.015625)"/>
      <path id="DejaVuSans-69" d="M 603 3500 
L 1178 3500 
L 1178 0 
L 603 0 
L 603 3500 
z
M 603 4863 
L 1178 4863 
L 1178 4134 
L 603 4134 
L 603 4863 
z
" transform="scale(0.015625)"/>
     </defs>
     <use xlink:href="#DejaVuSans-73"/>
     <use xlink:href="#DejaVuSans-69" x="52.099609"/>
    </g>
   </g>
   <g id="Line3DCollection_2">
    <path d="M 221.383322 170.253589 
L 228.080719 332.907187 
L 443.857711 401.90156 
" style="fill: none; stroke: #b0b0b0; stroke-width: 0.8"/>
    <path d="M 243.252413 154.294523 
L 248.914237 315.444119 
L 462.722456 382.541691 
" style="fill: none; stroke: #b0b0b0; stroke-width: 0.8"/>
    <path d="M 264.513504 138.779146 
L 269.193248 298.445849 
L 481.059088 363.723795 
" style="fill: none; stroke: #b0b0b0; stroke-width: 0.8"/>
    <path d="M 285.191604 123.689211 
L 288.939601 281.894065 
L 498.889478 345.425429 
" style="fill: none; stroke: #b0b0b0; stroke-width: 0.8"/>
    <path d="M 305.310368 109.007454 
L 308.174009 265.771403 
L 516.234305 327.625369 
" style="fill: none; stroke: #b0b0b0; stroke-width: 0.8"/>
    <path d="M 324.892186 94.717535 
L 326.916127 250.061388 
L 533.113138 310.303535 
" style="fill: none; stroke: #b0b0b0; stroke-width: 0.8"/>
   </g>
   <g id="xtick_8">
    <g id="line2d_10">
     <path d="M 442.040284 401.32044 
L 447.497217 403.065287 
" style="fill: none; stroke: #000000; stroke-width: 0.8; stroke-linecap: square"/>
    </g>
    <g id="text_10">
     <!-- −0.2 -->
     <g transform="translate(444.469639 422.779207) scale(0.1 -0.1)">
      <defs>
       <path id="DejaVuSans-2212" d="M 678 2272 
L 4684 2272 
L 4684 1741 
L 678 1741 
L 678 2272 
z
" transform="scale(0.015625)"/>
      </defs>
      <use xlink:href="#DejaVuSans-2212"/>
      <use xlink:href="#DejaVuSans-30" x="83.789062"/>
      <use xlink:href="#DejaVuSans-2e" x="147.412109"/>
      <use xlink:href="#DejaVuSans-32" x="179.199219"/>
     </g>
    </g>
   </g>
   <g id="xtick_9">
    <g id="line2d_11">
     <path d="M 460.922894 381.97695 
L 466.326121 383.672598 
" style="fill: none; stroke: #000000; stroke-width: 0.8; stroke-linecap: square"/>
    </g>
    <g id="text_11">
     <!-- −0.1 -->
     <g transform="translate(463.160822 403.222995) scale(0.1 -0.1)">
      <use xlink:href="#DejaVuSans-2212"/>
      <use xlink:href="#DejaVuSans-30" x="83.789062"/>
      <use xlink:href="#DejaVuSans-2e" x="147.412109"/>
      <use xlink:href="#DejaVuSans-31" x="179.199219"/>
     </g>
    </g>
   </g>
   <g id="xtick_10">
    <g id="line2d_12">
     <path d="M 479.27711 363.17475 
L 484.627479 364.823252 
" style="fill: none; stroke: #000000; stroke-width: 0.8; stroke-linecap: square"/>
    </g>
    <g id="text_12">
     <!-- 0.0 -->
     <g transform="translate(485.518387 384.21447) scale(0.1 -0.1)">
      <use xlink:href="#DejaVuSans-30"/>
      <use xlink:href="#DejaVuSans-2e" x="63.623047"/>
      <use xlink:href="#DejaVuSans-30" x="95.410156"/>
     </g>
    </g>
   </g>
   <g id="xtick_11">
    <g id="line2d_13">
     <path d="M 497.124805 344.891434 
L 502.423155 346.494728 
" style="fill: none; stroke: #000000; stroke-width: 0.8; stroke-linecap: square"/>
    </g>
    <g id="text_13">
     <!-- 0.1 -->
     <g transform="translate(503.184335 365.73094) scale(0.1 -0.1)">
      <use xlink:href="#DejaVuSans-30"/>
      <use xlink:href="#DejaVuSans-2e" x="63.623047"/>
      <use xlink:href="#DejaVuSans-31" x="95.410156"/>
     </g>
    </g>
   </g>
   <g id="xtick_12">
    <g id="line2d_14">
     <path d="M 514.486662 327.105815 
L 519.733822 328.665736 
" style="fill: none; stroke: #000000; stroke-width: 0.8; stroke-linecap: square"/>
    </g>
    <g id="text_14">
     <!-- 0.2 -->
     <g transform="translate(520.369013 347.750954) scale(0.1 -0.1)">
      <use xlink:href="#DejaVuSans-30"/>
      <use xlink:href="#DejaVuSans-2e" x="63.623047"/>
      <use xlink:href="#DejaVuSans-32" x="95.410156"/>
     </g>
    </g>
   </g>
   <g id="xtick_13">
    <g id="line2d_15">
     <path d="M 531.382252 309.797842 
L 536.579042 311.316127 
" style="fill: none; stroke: #000000; stroke-width: 0.8; stroke-linecap: square"/>
    </g>
    <g id="text_15">
     <!-- 0.3 -->
     <g transform="translate(537.091824 330.254209) scale(0.1 -0.1)">
      <use xlink:href="#DejaVuSans-30"/>
      <use xlink:href="#DejaVuSans-2e" x="63.623047"/>
      <use xlink:href="#DejaVuSans-33" x="95.410156"/>
     </g>
    </g>
   </g>
  </g>
  <g id="axis3d_3">
   <g id="line2d_16">
    <path d="M 538.065167 305.221534 
L 545.40394 144.961499 
" style="fill: none; stroke: #000000; stroke-width: 0.8; stroke-linecap: square"/>
   </g>
   <g id="Line3DCollection_3">
    <path d="M 538.745054 290.374556 
L 332.254046 231.068296 
L 203.530618 337.669407 
" style="fill: none; stroke: #b0b0b0; stroke-width: 0.8"/>
    <path d="M 539.683721 269.87646 
L 332.025853 211.223985 
L 202.519489 316.672664 
" style="fill: none; stroke: #b0b0b0; stroke-width: 0.8"/>
    <path d="M 540.633162 249.143091 
L 331.795165 191.162809 
L 201.496311 295.425715 
" style="fill: none; stroke: #b0b0b0; stroke-width: 0.8"/>
    <path d="M 541.593564 228.170375 
L 331.561943 170.881195 
L 200.460868 273.924058 
" style="fill: none; stroke: #b0b0b0; stroke-width: 0.8"/>
    <path d="M 542.565117 206.954142 
L 331.326144 150.37549 
L 199.412936 252.163088 
" style="fill: none; stroke: #b0b0b0; stroke-width: 0.8"/>
    <path d="M 543.548016 185.490128 
L 331.087724 129.641957 
L 198.35229 230.138084 
" style="fill: none; stroke: #b0b0b0; stroke-width: 0.8"/>
    <path d="M 544.542462 163.773966 
L 330.846642 108.67678 
L 197.278696 207.844211 
" style="fill: none; stroke: #b0b0b0; stroke-width: 0.8"/>
   </g>
   <g id="xtick_14">
    <g id="line2d_17">
     <path d="M 537.011689 289.876717 
L 542.215923 291.371424 
" style="fill: none; stroke: #000000; stroke-width: 0.8; stroke-linecap: square"/>
    </g>
    <g id="text_16">
     <!-- −0.3 -->
     <g transform="translate(544.943744 295.38542) scale(0.1 -0.1)">
      <use xlink:href="#DejaVuSans-2212"/>
      <use xlink:href="#DejaVuSans-30" x="83.789062"/>
      <use xlink:href="#DejaVuSans-2e" x="147.412109"/>
      <use xlink:href="#DejaVuSans-33" x="179.199219"/>
     </g>
    </g>
   </g>
   <g id="xtick_15">
    <g id="line2d_18">
     <path d="M 537.940094 269.383977 
L 543.175163 270.86261 
" style="fill: none; stroke: #000000; stroke-width: 0.8; stroke-linecap: square"/>
    </g>
    <g id="text_17">
     <!-- −0.2 -->
     <g transform="translate(545.984894 274.915188) scale(0.1 -0.1)">
      <use xlink:href="#DejaVuSans-2212"/>
      <use xlink:href="#DejaVuSans-30" x="83.789062"/>
      <use xlink:href="#DejaVuSans-2e" x="147.412109"/>
      <use xlink:href="#DejaVuSans-32" x="179.199219"/>
     </g>
    </g>
   </g>
   <g id="xtick_16">
    <g id="line2d_19">
     <path d="M 538.879151 248.65612 
L 544.145422 250.11821 
" style="fill: none; stroke: #000000; stroke-width: 0.8; stroke-linecap: square"/>
    </g>
    <g id="text_18">
     <!-- −0.1 -->
     <g transform="translate(547.03797 254.210493) scale(0.1 -0.1)">
      <use xlink:href="#DejaVuSans-2212"/>
      <use xlink:href="#DejaVuSans-30" x="83.789062"/>
      <use xlink:href="#DejaVuSans-2e" x="147.412109"/>
      <use xlink:href="#DejaVuSans-31" x="179.199219"/>
     </g>
    </g>
   </g>
   <g id="xtick_17">
    <g id="line2d_20">
     <path d="M 539.829044 227.689076 
L 545.126891 229.134141 
" style="fill: none; stroke: #000000; stroke-width: 0.8; stroke-linecap: square"/>
    </g>
    <g id="text_19">
     <!-- 0.0 -->
     <g transform="translate(552.293021 233.267285) scale(0.1 -0.1)">
      <use xlink:href="#DejaVuSans-30"/>
      <use xlink:href="#DejaVuSans-2e" x="63.623047"/>
      <use xlink:href="#DejaVuSans-30" x="95.410156"/>
     </g>
    </g>
   </g>
   <g id="xtick_18">
    <g id="line2d_21">
     <path d="M 540.789962 206.478681 
L 546.119764 207.906226 
" style="fill: none; stroke: #000000; stroke-width: 0.8; stroke-linecap: square"/>
    </g>
    <g id="text_20">
     <!-- 0.1 -->
     <g transform="translate(553.37057 212.081417) scale(0.1 -0.1)">
      <use xlink:href="#DejaVuSans-30"/>
      <use xlink:href="#DejaVuSans-2e" x="63.623047"/>
      <use xlink:href="#DejaVuSans-31" x="95.410156"/>
     </g>
    </g>
   </g>
   <g id="xtick_19">
    <g id="line2d_22">
     <path d="M 541.762097 185.020674 
L 547.124243 186.43019 
" style="fill: none; stroke: #000000; stroke-width: 0.8; stroke-linecap: square"/>
    </g>
    <g id="text_21">
     <!-- 0.2 -->
     <g transform="translate(554.460677 190.648648) scale(0.1 -0.1)">
      <use xlink:href="#DejaVuSans-30"/>
      <use xlink:href="#DejaVuSans-2e" x="63.623047"/>
      <use xlink:href="#DejaVuSans-32" x="95.410156"/>
     </g>
    </g>
   </g>
   <g id="xtick_20">
    <g id="line2d_23">
     <path d="M 542.745649 163.310693 
L 548.140532 164.701656 
" style="fill: none; stroke: #000000; stroke-width: 0.8; stroke-linecap: square"/>
    </g>
    <g id="text_22">
     <!-- 0.3 -->
     <g transform="translate(555.563562 168.964637) scale(0.1 -0.1)">
      <use xlink:href="#DejaVuSans-30"/>
      <use xlink:href="#DejaVuSans-2e" x="63.623047"/>
      <use xlink:href="#DejaVuSans-33" x="95.410156"/>
     </g>
    </g>
   </g>
  </g>
  <g id="axes_1">
   <g id="Path3DCollection_1">
    <defs>
     <path id="C0_0_b6b764ee90" d="M 0 2.236068 
C 0.593012 2.236068 1.161816 2.000462 1.581139 1.581139 
C 2.000462 1.161816 2.236068 0.593012 2.236068 -0 
C 2.236068 -0.593012 2.000462 -1.161816 1.581139 -1.581139 
C 1.161816 -2.000462 0.593012 -2.236068 0 -2.236068 
C -0.593012 -2.236068 -1.161816 -2.000462 -1.581139 -1.581139 
C -2.000462 -1.161816 -2.236068 -0.593012 -2.236068 0 
C -2.236068 0.593012 -2.000462 1.161816 -1.581139 1.581139 
C -1.161816 2.000462 -0.593012 2.236068 0 2.236068 
z
"/>
    </defs>
    <g clip-path="url(#p81bb6e58b0)">
     <use xlink:href="#C0_0_b6b764ee90" x="353.627087" y="256.453641" style="fill: #008000; fill-opacity: 0.3; stroke: #008000; stroke-opacity: 0.3"/>
    </g>
    <g clip-path="url(#p81bb6e58b0)">
     <use xlink:href="#C0_0_b6b764ee90" x="321.871475" y="281.060382" style="fill: #008000; fill-opacity: 0.340542; stroke: #008000; stroke-opacity: 0.340542"/>
    </g>
    <g clip-path="url(#p81bb6e58b0)">
     <use xlink:href="#C0_0_b6b764ee90" x="416.938056" y="247.525489" style="fill: #008000; fill-opacity: 0.376798; stroke: #008000; stroke-opacity: 0.376798"/>
    </g>
    <g clip-path="url(#p81bb6e58b0)">
     <use xlink:href="#C0_0_b6b764ee90" x="441.847286" y="241.533095" style="fill: #008000; fill-opacity: 0.382271; stroke: #008000; stroke-opacity: 0.382271"/>
    </g>
    <g clip-path="url(#p81bb6e58b0)">
     <use xlink:href="#C0_0_b6b764ee90" x="451.028376" y="247.497777" style="fill: #008000; fill-opacity: 0.40928; stroke: #008000; stroke-opacity: 0.40928"/>
    </g>
    <g clip-path="url(#p81bb6e58b0)">
     <use xlink:href="#C0_0_b6b764ee90" x="327.354251" y="302.621379" style="fill: #008000; fill-opacity: 0.418874; stroke: #008000; stroke-opacity: 0.418874"/>
    </g>
    <g clip-path="url(#p81bb6e58b0)">
     <use xlink:href="#C0_0_b6b764ee90" x="331.64942" y="306.409935" style="fill: #008000; fill-opacity: 0.440607; stroke: #008000; stroke-opacity: 0.440607"/>
    </g>
    <g clip-path="url(#p81bb6e58b0)">
     <use xlink:href="#C0_0_b6b764ee90" x="432.0676" y="169.041013" style="fill: #008000; fill-opacity: 0.44155; stroke: #008000; stroke-opacity: 0.44155"/>
    </g>
    <g clip-path="url(#p81bb6e58b0)">
     <use xlink:href="#C0_0_b6b764ee90" x="451.511304" y="280.053706" style="fill: #008000; fill-opacity: 0.472465; stroke: #008000; stroke-opacity: 0.472465"/>
    </g>
    <g clip-path="url(#p81bb6e58b0)">
     <use xlink:href="#C0_0_b6b764ee90" x="289.342867" y="306.535941" style="fill: #008000; fill-opacity: 0.475913; stroke: #008000; stroke-opacity: 0.475913"/>
    </g>
    <g clip-path="url(#p81bb6e58b0)">
     <use xlink:href="#C0_0_b6b764ee90" x="343.323909" y="318.064606" style="fill: #008000; fill-opacity: 0.483549; stroke: #008000; stroke-opacity: 0.483549"/>
    </g>
    <g clip-path="url(#p81bb6e58b0)">
     <use xlink:href="#C0_0_b6b764ee90" x="365.802553" y="315.805349" style="fill: #008000; fill-opacity: 0.489195; stroke: #008000; stroke-opacity: 0.489195"/>
    </g>
    <g clip-path="url(#p81bb6e58b0)">
     <use xlink:href="#C0_0_b6b764ee90" x="456.008832" y="269.189863" style="fill: #008000; fill-opacity: 0.492683; stroke: #008000; stroke-opacity: 0.492683"/>
    </g>
    <g clip-path="url(#p81bb6e58b0)">
     <use xlink:href="#C0_0_b6b764ee90" x="317.441382" y="312.030737" style="fill: #008000; fill-opacity: 0.509541; stroke: #008000; stroke-opacity: 0.509541"/>
    </g>
    <g clip-path="url(#p81bb6e58b0)">
     <use xlink:href="#C0_0_b6b764ee90" x="471.228495" y="225.568757" style="fill: #008000; fill-opacity: 0.514849; stroke: #008000; stroke-opacity: 0.514849"/>
    </g>
    <g clip-path="url(#p81bb6e58b0)">
     <use xlink:href="#C0_0_b6b764ee90" x="361.91421" y="322.882338" style="fill: #008000; fill-opacity: 0.517056; stroke: #008000; stroke-opacity: 0.517056"/>
    </g>
    <g clip-path="url(#p81bb6e58b0)">
     <use xlink:href="#C0_0_b6b764ee90" x="250.380316" y="292.463687" style="fill: #008000; fill-opacity: 0.525366; stroke: #008000; stroke-opacity: 0.525366"/>
    </g>
    <g clip-path="url(#p81bb6e58b0)">
     <use xlink:href="#C0_0_b6b764ee90" x="379.651562" y="321.407815" style="fill: #008000; fill-opacity: 0.58729; stroke: #008000; stroke-opacity: 0.58729"/>
    </g>
    <g clip-path="url(#p81bb6e58b0)">
     <use xlink:href="#C0_0_b6b764ee90" x="450.985378" y="294.350377" style="fill: #008000; fill-opacity: 0.591612; stroke: #008000; stroke-opacity: 0.591612"/>
    </g>
    <g clip-path="url(#p81bb6e58b0)">
     <use xlink:href="#C0_0_b6b764ee90" x="299.331091" y="313.242775" style="fill: #008000; fill-opacity: 0.593183; stroke: #008000; stroke-opacity: 0.593183"/>
    </g>
    <g clip-path="url(#p81bb6e58b0)">
     <use xlink:href="#C0_0_b6b764ee90" x="261.691554" y="286.168644" style="fill: #008000; fill-opacity: 0.617719; stroke: #008000; stroke-opacity: 0.617719"/>
    </g>
    <g clip-path="url(#p81bb6e58b0)">
     <use xlink:href="#C0_0_b6b764ee90" x="413.954874" y="286.451445" style="fill: #008000; fill-opacity: 0.625521; stroke: #008000; stroke-opacity: 0.625521"/>
    </g>
    <g clip-path="url(#p81bb6e58b0)">
     <use xlink:href="#C0_0_b6b764ee90" x="425.415637" y="280.971707" style="fill: #008000; fill-opacity: 0.645145; stroke: #008000; stroke-opacity: 0.645145"/>
    </g>
    <g clip-path="url(#p81bb6e58b0)">
     <use xlink:href="#C0_0_b6b764ee90" x="358.90451" y="318.773254" style="fill: #008000; fill-opacity: 0.652294; stroke: #008000; stroke-opacity: 0.652294"/>
    </g>
    <g clip-path="url(#p81bb6e58b0)">
     <use xlink:href="#C0_0_b6b764ee90" x="414.645397" y="292.866805" style="fill: #008000; fill-opacity: 0.653883; stroke: #008000; stroke-opacity: 0.653883"/>
    </g>
    <g clip-path="url(#p81bb6e58b0)">
     <use xlink:href="#C0_0_b6b764ee90" x="399.838777" y="278.44276" style="fill: #008000; fill-opacity: 0.666989; stroke: #008000; stroke-opacity: 0.666989"/>
    </g>
    <g clip-path="url(#p81bb6e58b0)">
     <use xlink:href="#C0_0_b6b764ee90" x="415.345468" y="288.717887" style="fill: #008000; fill-opacity: 0.674953; stroke: #008000; stroke-opacity: 0.674953"/>
    </g>
    <g clip-path="url(#p81bb6e58b0)">
     <use xlink:href="#C0_0_b6b764ee90" x="472.632784" y="262.888512" style="fill: #008000; fill-opacity: 0.676452; stroke: #008000; stroke-opacity: 0.676452"/>
    </g>
    <g clip-path="url(#p81bb6e58b0)">
     <use xlink:href="#C0_0_b6b764ee90" x="377.660764" y="322.457129" style="fill: #008000; fill-opacity: 0.679613; stroke: #008000; stroke-opacity: 0.679613"/>
    </g>
    <g clip-path="url(#p81bb6e58b0)">
     <use xlink:href="#C0_0_b6b764ee90" x="434.069303" y="290.845974" style="fill: #008000; fill-opacity: 0.684841; stroke: #008000; stroke-opacity: 0.684841"/>
    </g>
    <g clip-path="url(#p81bb6e58b0)">
     <use xlink:href="#C0_0_b6b764ee90" x="343.960585" y="313.628714" style="fill: #008000; fill-opacity: 0.692985; stroke: #008000; stroke-opacity: 0.692985"/>
    </g>
    <g clip-path="url(#p81bb6e58b0)">
     <use xlink:href="#C0_0_b6b764ee90" x="434.517272" y="287.68863" style="fill: #008000; fill-opacity: 0.694247; stroke: #008000; stroke-opacity: 0.694247"/>
    </g>
    <g clip-path="url(#p81bb6e58b0)">
     <use xlink:href="#C0_0_b6b764ee90" x="420.787015" y="275.743703" style="fill: #008000; fill-opacity: 0.695681; stroke: #008000; stroke-opacity: 0.695681"/>
    </g>
    <g clip-path="url(#p81bb6e58b0)">
     <use xlink:href="#C0_0_b6b764ee90" x="331.500949" y="300.225" style="fill: #008000; fill-opacity: 0.698975; stroke: #008000; stroke-opacity: 0.698975"/>
    </g>
    <g clip-path="url(#p81bb6e58b0)">
     <use xlink:href="#C0_0_b6b764ee90" x="435.116697" y="296.634138" style="fill: #008000; fill-opacity: 0.705308; stroke: #008000; stroke-opacity: 0.705308"/>
    </g>
    <g clip-path="url(#p81bb6e58b0)">
     <use xlink:href="#C0_0_b6b764ee90" x="383.179705" y="316.761733" style="fill: #008000; fill-opacity: 0.707129; stroke: #008000; stroke-opacity: 0.707129"/>
    </g>
    <g clip-path="url(#p81bb6e58b0)">
     <use xlink:href="#C0_0_b6b764ee90" x="380.020366" y="273.285598" style="fill: #008000; fill-opacity: 0.732732; stroke: #008000; stroke-opacity: 0.732732"/>
    </g>
    <g clip-path="url(#p81bb6e58b0)">
     <use xlink:href="#C0_0_b6b764ee90" x="339.808621" y="291.670642" style="fill: #008000; fill-opacity: 0.733232; stroke: #008000; stroke-opacity: 0.733232"/>
    </g>
    <g clip-path="url(#p81bb6e58b0)">
     <use xlink:href="#C0_0_b6b764ee90" x="408.404327" y="196.613146" style="fill: #008000; fill-opacity: 0.809332; stroke: #008000; stroke-opacity: 0.809332"/>
    </g>
    <g clip-path="url(#p81bb6e58b0)">
     <use xlink:href="#C0_0_b6b764ee90" x="416.950377" y="311.233671" style="fill: #008000; stroke: #008000"/>
    </g>
   </g>
   <g id="text_23">
    <!-- Average magnetic moment on site 5 -->
    <g transform="translate(259.349063 54.48) scale(0.12 -0.12)">
     <defs>
      <path id="DejaVuSans-41" d="M 2188 4044 
L 1331 1722 
L 3047 1722 
L 2188 4044 
z
M 1831 4666 
L 2547 4666 
L 4325 0 
L 3669 0 
L 3244 1197 
L 1141 1197 
L 716 0 
L 50 0 
L 1831 4666 
z
" transform="scale(0.015625)"/>
      <path id="DejaVuSans-76" d="M 191 3500 
L 800 3500 
L 1894 563 
L 2988 3500 
L 3597 3500 
L 2284 0 
L 1503 0 
L 191 3500 
z
" transform="scale(0.015625)"/>
      <path id="DejaVuSans-65" d="M 3597 1894 
L 3597 1613 
L 953 1613 
Q 991 1019 1311 708 
Q 1631 397 2203 397 
Q 2534 397 2845 478 
Q 3156 559 3463 722 
L 3463 178 
Q 3153 47 2828 -22 
Q 2503 -91 2169 -91 
Q 1331 -91 842 396 
Q 353 884 353 1716 
Q 353 2575 817 3079 
Q 1281 3584 2069 3584 
Q 2775 3584 3186 3129 
Q 3597 2675 3597 1894 
z
M 3022 2063 
Q 3016 2534 2758 2815 
Q 2500 3097 2075 3097 
Q 1594 3097 1305 2825 
Q 1016 2553 972 2059 
L 3022 2063 
z
" transform="scale(0.015625)"/>
      <path id="DejaVuSans-72" d="M 2631 2963 
Q 2534 3019 2420 3045 
Q 2306 3072 2169 3072 
Q 1681 3072 1420 2755 
Q 1159 2438 1159 1844 
L 1159 0 
L 581 0 
L 581 3500 
L 1159 3500 
L 1159 2956 
Q 1341 3275 1631 3429 
Q 1922 3584 2338 3584 
Q 2397 3584 2469 3576 
Q 2541 3569 2628 3553 
L 2631 2963 
z
" transform="scale(0.015625)"/>
      <path id="DejaVuSans-61" d="M 2194 1759 
Q 1497 1759 1228 1600 
Q 959 1441 959 1056 
Q 959 750 1161 570 
Q 1363 391 1709 391 
Q 2188 391 2477 730 
Q 2766 1069 2766 1631 
L 2766 1759 
L 2194 1759 
z
M 3341 1997 
L 3341 0 
L 2766 0 
L 2766 531 
Q 2569 213 2275 61 
Q 1981 -91 1556 -91 
Q 1019 -91 701 211 
Q 384 513 384 1019 
Q 384 1609 779 1909 
Q 1175 2209 1959 2209 
L 2766 2209 
L 2766 2266 
Q 2766 2663 2505 2880 
Q 2244 3097 1772 3097 
Q 1472 3097 1187 3025 
Q 903 2953 641 2809 
L 641 3341 
Q 956 3463 1253 3523 
Q 1550 3584 1831 3584 
Q 2591 3584 2966 3190 
Q 3341 2797 3341 1997 
z
" transform="scale(0.015625)"/>
      <path id="DejaVuSans-67" d="M 2906 1791 
Q 2906 2416 2648 2759 
Q 2391 3103 1925 3103 
Q 1463 3103 1205 2759 
Q 947 2416 947 1791 
Q 947 1169 1205 825 
Q 1463 481 1925 481 
Q 2391 481 2648 825 
Q 2906 1169 2906 1791 
z
M 3481 434 
Q 3481 -459 3084 -895 
Q 2688 -1331 1869 -1331 
Q 1566 -1331 1297 -1286 
Q 1028 -1241 775 -1147 
L 775 -588 
Q 1028 -725 1275 -790 
Q 1522 -856 1778 -856 
Q 2344 -856 2625 -561 
Q 2906 -266 2906 331 
L 2906 616 
Q 2728 306 2450 153 
Q 2172 0 1784 0 
Q 1141 0 747 490 
Q 353 981 353 1791 
Q 353 2603 747 3093 
Q 1141 3584 1784 3584 
Q 2172 3584 2450 3431 
Q 2728 3278 2906 2969 
L 2906 3500 
L 3481 3500 
L 3481 434 
z
" transform="scale(0.015625)"/>
      <path id="DejaVuSans-20" transform="scale(0.015625)"/>
      <path id="DejaVuSans-6d" d="M 3328 2828 
Q 3544 3216 3844 3400 
Q 4144 3584 4550 3584 
Q 5097 3584 5394 3201 
Q 5691 2819 5691 2113 
L 5691 0 
L 5113 0 
L 5113 2094 
Q 5113 2597 4934 2840 
Q 4756 3084 4391 3084 
Q 3944 3084 3684 2787 
Q 3425 2491 3425 1978 
L 3425 0 
L 2847 0 
L 2847 2094 
Q 2847 2600 2669 2842 
Q 2491 3084 2119 3084 
Q 1678 3084 1418 2786 
Q 1159 2488 1159 1978 
L 1159 0 
L 581 0 
L 581 3500 
L 1159 3500 
L 1159 2956 
Q 1356 3278 1631 3431 
Q 1906 3584 2284 3584 
Q 2666 3584 2933 3390 
Q 3200 3197 3328 2828 
z
" transform="scale(0.015625)"/>
      <path id="DejaVuSans-6e" d="M 3513 2113 
L 3513 0 
L 2938 0 
L 2938 2094 
Q 2938 2591 2744 2837 
Q 2550 3084 2163 3084 
Q 1697 3084 1428 2787 
Q 1159 2491 1159 1978 
L 1159 0 
L 581 0 
L 581 3500 
L 1159 3500 
L 1159 2956 
Q 1366 3272 1645 3428 
Q 1925 3584 2291 3584 
Q 2894 3584 3203 3211 
Q 3513 2838 3513 2113 
z
" transform="scale(0.015625)"/>
      <path id="DejaVuSans-63" d="M 3122 3366 
L 3122 2828 
Q 2878 2963 2633 3030 
Q 2388 3097 2138 3097 
Q 1578 3097 1268 2742 
Q 959 2388 959 1747 
Q 959 1106 1268 751 
Q 1578 397 2138 397 
Q 2388 397 2633 464 
Q 2878 531 3122 666 
L 3122 134 
Q 2881 22 2623 -34 
Q 2366 -91 2075 -91 
Q 1284 -91 818 406 
Q 353 903 353 1747 
Q 353 2603 823 3093 
Q 1294 3584 2113 3584 
Q 2378 3584 2631 3529 
Q 2884 3475 3122 3366 
z
" transform="scale(0.015625)"/>
      <path id="DejaVuSans-6f" d="M 1959 3097 
Q 1497 3097 1228 2736 
Q 959 2375 959 1747 
Q 959 1119 1226 758 
Q 1494 397 1959 397 
Q 2419 397 2687 759 
Q 2956 1122 2956 1747 
Q 2956 2369 2687 2733 
Q 2419 3097 1959 3097 
z
M 1959 3584 
Q 2709 3584 3137 3096 
Q 3566 2609 3566 1747 
Q 3566 888 3137 398 
Q 2709 -91 1959 -91 
Q 1206 -91 779 398 
Q 353 888 353 1747 
Q 353 2609 779 3096 
Q 1206 3584 1959 3584 
z
" transform="scale(0.015625)"/>
     </defs>
     <use xlink:href="#DejaVuSans-41"/>
     <use xlink:href="#DejaVuSans-76" x="62.533203"/>
     <use xlink:href="#DejaVuSans-65" x="121.712891"/>
     <use xlink:href="#DejaVuSans-72" x="183.236328"/>
     <use xlink:href="#DejaVuSans-61" x="224.349609"/>
     <use xlink:href="#DejaVuSans-67" x="285.628906"/>
     <use xlink:href="#DejaVuSans-65" x="349.105469"/>
     <use xlink:href="#DejaVuSans-20" x="410.628906"/>
     <use xlink:href="#DejaVuSans-6d" x="442.416016"/>
     <use xlink:href="#DejaVuSans-61" x="539.828125"/>
     <use xlink:href="#DejaVuSans-67" x="601.107422"/>
     <use xlink:href="#DejaVuSans-6e" x="664.583984"/>
     <use xlink:href="#DejaVuSans-65" x="727.962891"/>
     <use xlink:href="#DejaVuSans-74" x="789.486328"/>
     <use xlink:href="#DejaVuSans-69" x="828.695312"/>
     <use xlink:href="#DejaVuSans-63" x="856.478516"/>
     <use xlink:href="#DejaVuSans-20" x="911.458984"/>
     <use xlink:href="#DejaVuSans-6d" x="943.246094"/>
     <use xlink:href="#DejaVuSans-6f" x="1040.658203"/>
     <use xlink:href="#DejaVuSans-6d" x="1101.839844"/>
     <use xlink:href="#DejaVuSans-65" x="1199.251953"/>
     <use xlink:href="#DejaVuSans-6e" x="1260.775391"/>
     <use xlink:href="#DejaVuSans-74" x="1324.154297"/>
     <use xlink:href="#DejaVuSans-20" x="1363.363281"/>
     <use xlink:href="#DejaVuSans-6f" x="1395.150391"/>
     <use xlink:href="#DejaVuSans-6e" x="1456.332031"/>
     <use xlink:href="#DejaVuSans-20" x="1519.710938"/>
     <use xlink:href="#DejaVuSans-73" x="1551.498047"/>
     <use xlink:href="#DejaVuSans-69" x="1603.597656"/>
     <use xlink:href="#DejaVuSans-74" x="1631.380859"/>
     <use xlink:href="#DejaVuSans-65" x="1670.589844"/>
     <use xlink:href="#DejaVuSans-20" x="1732.113281"/>
     <use xlink:href="#DejaVuSans-35" x="1763.900391"/>
    </g>
   </g>
   <g id="legend_1">
    <g id="patch_6">
     <path d="M 552.04 73.48 
L 556.04 73.48 
Q 558.04 73.48 558.04 71.48 
L 558.04 67.48 
Q 558.04 65.48 556.04 65.48 
L 552.04 65.48 
Q 550.04 65.48 550.04 67.48 
L 550.04 71.48 
Q 550.04 73.48 552.04 73.48 
z
" style="fill: #ffffff; opacity: 0.8; stroke: #cccccc; stroke-linejoin: miter"/>
    </g>
   </g>
  </g>
 </g>
 <defs>
  <clipPath id="p81bb6e58b0">
   <rect x="174.96" y="60.48" width="388.08" height="388.08"/>
  </clipPath>
 </defs>
</svg>
