<?xml version="1.0" encoding="utf-8" standalone="no"?>
<!DOCTYPE svg PUBLIC "-//W3C//DTD SVG 1.1//EN"
  "http://www.w3.org/Graphics/SVG/1.1/DTD/svg11.dtd">
<svg xmlns:xlink="http://www.w3.org/1999/xlink" width="460.8pt" height="345.6pt" viewBox="0 0 460.8 345.6" xmlns="http://www.w3.org/2000/svg" version="1.1">
 <metadata>
  <rdf:RDF xmlns:dc="http://purl.org/dc/elements/1.1/" xmlns:cc="http://creativecommons.org/ns#" xmlns:rdf="http://www.w3.org/1999/02/22-rdf-syntax-ns#">
   <cc:Work>
    <dc:type rdf:resource="http://purl.org/dc/dcmitype/StillImage"/>
    <dc:date>2024-08-25T12:32:29.459696</dc:date>
    <dc:format>image/svg+xml</dc:format>
    <dc:creator>
     <cc:Agent>
      <dc:title>Matplotlib v3.7.1, https://matplotlib.org/</dc:title>
     </cc:Agent>
    </dc:creator>
   </cc:Work>
  </rdf:RDF>
 </metadata>
 <defs>
  <style type="text/css">*{stroke-linejoin: round; stroke-linecap: butt}</style>
 </defs>
 <g id="figure_1">
  <g id="patch_1">
   <path d="M 0 345.6 
L 460.8 345.6 
L 460.8 0 
L 0 0 
z
" style="fill: #ffffff"/>
  </g>
  <g id="axes_1">
   <g id="patch_2">
    <path d="M 57.6 307.584 
L 414.72 307.584 
L 414.72 41.472 
L 57.6 41.472 
z
" style="fill: #ffffff"/>
   </g>
   <g id="matplotlib.axis_1">
    <g id="xtick_1">
     <g id="line2d_1">
      <defs>
       <path id="m71ab828e3a" d="M 0 0 
L 0 3.5 
" style="stroke: #000000; stroke-width: 0.8"/>
      </defs>
      <g>
       <use xlink:href="#m71ab828e3a" x="73.832727" y="307.584" style="stroke: #000000; stroke-width: 0.8"/>
      </g>
     </g>
     <g id="text_1">
      <!-- 0 -->
      <g transform="translate(70.651477 322.182437) scale(0.1 -0.1)">
       <defs>
        <path id="DejaVuSans-30" d="M 2034 4250 
Q 1547 4250 1301 3770 
Q 1056 3291 1056 2328 
Q 1056 1369 1301 889 
Q 1547 409 2034 409 
Q 2525 409 2770 889 
Q 3016 1369 3016 2328 
Q 3016 3291 2770 3770 
Q 2525 4250 2034 4250 
z
M 2034 4750 
Q 2819 4750 3233 4129 
Q 3647 3509 3647 2328 
Q 3647 1150 3233 529 
Q 2819 -91 2034 -91 
Q 1250 -91 836 529 
Q 422 1150 422 2328 
Q 422 3509 836 4129 
Q 1250 4750 2034 4750 
z
" transform="scale(0.015625)"/>
       </defs>
       <use xlink:href="#DejaVuSans-30"/>
      </g>
     </g>
    </g>
    <g id="xtick_2">
     <g id="line2d_2">
      <g>
       <use xlink:href="#m71ab828e3a" x="137.303802" y="307.584" style="stroke: #000000; stroke-width: 0.8"/>
      </g>
     </g>
     <g id="text_2">
      <!-- 200 -->
      <g transform="translate(127.760052 322.182437) scale(0.1 -0.1)">
       <defs>
        <path id="DejaVuSans-32" d="M 1228 531 
L 3431 531 
L 3431 0 
L 469 0 
L 469 531 
Q 828 903 1448 1529 
Q 2069 2156 2228 2338 
Q 2531 2678 2651 2914 
Q 2772 3150 2772 3378 
Q 2772 3750 2511 3984 
Q 2250 4219 1831 4219 
Q 1534 4219 1204 4116 
Q 875 4013 500 3803 
L 500 4441 
Q 881 4594 1212 4672 
Q 1544 4750 1819 4750 
Q 2544 4750 2975 4387 
Q 3406 4025 3406 3419 
Q 3406 3131 3298 2873 
Q 3191 2616 2906 2266 
Q 2828 2175 2409 1742 
Q 1991 1309 1228 531 
z
" transform="scale(0.015625)"/>
       </defs>
       <use xlink:href="#DejaVuSans-32"/>
       <use xlink:href="#DejaVuSans-30" x="63.623047"/>
       <use xlink:href="#DejaVuSans-30" x="127.246094"/>
      </g>
     </g>
    </g>
    <g id="xtick_3">
     <g id="line2d_3">
      <g>
       <use xlink:href="#m71ab828e3a" x="200.774876" y="307.584" style="stroke: #000000; stroke-width: 0.8"/>
      </g>
     </g>
     <g id="text_3">
      <!-- 400 -->
      <g transform="translate(191.231126 322.182437) scale(0.1 -0.1)">
       <defs>
        <path id="DejaVuSans-34" d="M 2419 4116 
L 825 1625 
L 2419 1625 
L 2419 4116 
z
M 2253 4666 
L 3047 4666 
L 3047 1625 
L 3713 1625 
L 3713 1100 
L 3047 1100 
L 3047 0 
L 2419 0 
L 2419 1100 
L 313 1100 
L 313 1709 
L 2253 4666 
z
" transform="scale(0.015625)"/>
       </defs>
       <use xlink:href="#DejaVuSans-34"/>
       <use xlink:href="#DejaVuSans-30" x="63.623047"/>
       <use xlink:href="#DejaVuSans-30" x="127.246094"/>
      </g>
     </g>
    </g>
    <g id="xtick_4">
     <g id="line2d_4">
      <g>
       <use xlink:href="#m71ab828e3a" x="264.24595" y="307.584" style="stroke: #000000; stroke-width: 0.8"/>
      </g>
     </g>
     <g id="text_4">
      <!-- 600 -->
      <g transform="translate(254.7022 322.182437) scale(0.1 -0.1)">
       <defs>
        <path id="DejaVuSans-36" d="M 2113 2584 
Q 1688 2584 1439 2293 
Q 1191 2003 1191 1497 
Q 1191 994 1439 701 
Q 1688 409 2113 409 
Q 2538 409 2786 701 
Q 3034 994 3034 1497 
Q 3034 2003 2786 2293 
Q 2538 2584 2113 2584 
z
M 3366 4563 
L 3366 3988 
Q 3128 4100 2886 4159 
Q 2644 4219 2406 4219 
Q 1781 4219 1451 3797 
Q 1122 3375 1075 2522 
Q 1259 2794 1537 2939 
Q 1816 3084 2150 3084 
Q 2853 3084 3261 2657 
Q 3669 2231 3669 1497 
Q 3669 778 3244 343 
Q 2819 -91 2113 -91 
Q 1303 -91 875 529 
Q 447 1150 447 2328 
Q 447 3434 972 4092 
Q 1497 4750 2381 4750 
Q 2619 4750 2861 4703 
Q 3103 4656 3366 4563 
z
" transform="scale(0.015625)"/>
       </defs>
       <use xlink:href="#DejaVuSans-36"/>
       <use xlink:href="#DejaVuSans-30" x="63.623047"/>
       <use xlink:href="#DejaVuSans-30" x="127.246094"/>
      </g>
     </g>
    </g>
    <g id="xtick_5">
     <g id="line2d_5">
      <g>
       <use xlink:href="#m71ab828e3a" x="327.717025" y="307.584" style="stroke: #000000; stroke-width: 0.8"/>
      </g>
     </g>
     <g id="text_5">
      <!-- 800 -->
      <g transform="translate(318.173275 322.182437) scale(0.1 -0.1)">
       <defs>
        <path id="DejaVuSans-38" d="M 2034 2216 
Q 1584 2216 1326 1975 
Q 1069 1734 1069 1313 
Q 1069 891 1326 650 
Q 1584 409 2034 409 
Q 2484 409 2743 651 
Q 3003 894 3003 1313 
Q 3003 1734 2745 1975 
Q 2488 2216 2034 2216 
z
M 1403 2484 
Q 997 2584 770 2862 
Q 544 3141 544 3541 
Q 544 4100 942 4425 
Q 1341 4750 2034 4750 
Q 2731 4750 3128 4425 
Q 3525 4100 3525 3541 
Q 3525 3141 3298 2862 
Q 3072 2584 2669 2484 
Q 3125 2378 3379 2068 
Q 3634 1759 3634 1313 
Q 3634 634 3220 271 
Q 2806 -91 2034 -91 
Q 1263 -91 848 271 
Q 434 634 434 1313 
Q 434 1759 690 2068 
Q 947 2378 1403 2484 
z
M 1172 3481 
Q 1172 3119 1398 2916 
Q 1625 2713 2034 2713 
Q 2441 2713 2670 2916 
Q 2900 3119 2900 3481 
Q 2900 3844 2670 4047 
Q 2441 4250 2034 4250 
Q 1625 4250 1398 4047 
Q 1172 3844 1172 3481 
z
" transform="scale(0.015625)"/>
       </defs>
       <use xlink:href="#DejaVuSans-38"/>
       <use xlink:href="#DejaVuSans-30" x="63.623047"/>
       <use xlink:href="#DejaVuSans-30" x="127.246094"/>
      </g>
     </g>
    </g>
    <g id="xtick_6">
     <g id="line2d_6">
      <g>
       <use xlink:href="#m71ab828e3a" x="391.188099" y="307.584" style="stroke: #000000; stroke-width: 0.8"/>
      </g>
     </g>
     <g id="text_6">
      <!-- 1000 -->
      <g transform="translate(378.463099 322.182437) scale(0.1 -0.1)">
       <defs>
        <path id="DejaVuSans-31" d="M 794 531 
L 1825 531 
L 1825 4091 
L 703 3866 
L 703 4441 
L 1819 4666 
L 2450 4666 
L 2450 531 
L 3481 531 
L 3481 0 
L 794 0 
L 794 531 
z
" transform="scale(0.015625)"/>
       </defs>
       <use xlink:href="#DejaVuSans-31"/>
       <use xlink:href="#DejaVuSans-30" x="63.623047"/>
       <use xlink:href="#DejaVuSans-30" x="127.246094"/>
       <use xlink:href="#DejaVuSans-30" x="190.869141"/>
      </g>
     </g>
    </g>
    <g id="text_7">
     <!-- n -->
     <g transform="translate(232.99125 335.860562) scale(0.1 -0.1)">
      <defs>
       <path id="DejaVuSans-6e" d="M 3513 2113 
L 3513 0 
L 2938 0 
L 2938 2094 
Q 2938 2591 2744 2837 
Q 2550 3084 2163 3084 
Q 1697 3084 1428 2787 
Q 1159 2491 1159 1978 
L 1159 0 
L 581 0 
L 581 3500 
L 1159 3500 
L 1159 2956 
Q 1366 3272 1645 3428 
Q 1925 3584 2291 3584 
Q 2894 3584 3203 3211 
Q 3513 2838 3513 2113 
z
" transform="scale(0.015625)"/>
      </defs>
      <use xlink:href="#DejaVuSans-6e"/>
     </g>
    </g>
   </g>
   <g id="matplotlib.axis_2">
    <g id="ytick_1">
     <g id="line2d_7">
      <defs>
       <path id="mafb5faa6c9" d="M 0 0 
L -3.5 0 
" style="stroke: #000000; stroke-width: 0.8"/>
      </defs>
      <g>
       <use xlink:href="#mafb5faa6c9" x="57.6" y="264.043456" style="stroke: #000000; stroke-width: 0.8"/>
      </g>
     </g>
     <g id="text_8">
      <!-- −4 -->
      <g transform="translate(35.857813 267.842674) scale(0.1 -0.1)">
       <defs>
        <path id="DejaVuSans-2212" d="M 678 2272 
L 4684 2272 
L 4684 1741 
L 678 1741 
L 678 2272 
z
" transform="scale(0.015625)"/>
       </defs>
       <use xlink:href="#DejaVuSans-2212"/>
       <use xlink:href="#DejaVuSans-34" x="83.789062"/>
      </g>
     </g>
    </g>
    <g id="ytick_2">
     <g id="line2d_8">
      <g>
       <use xlink:href="#mafb5faa6c9" x="57.6" y="219.260107" style="stroke: #000000; stroke-width: 0.8"/>
      </g>
     </g>
     <g id="text_9">
      <!-- −2 -->
      <g transform="translate(35.857813 223.059326) scale(0.1 -0.1)">
       <use xlink:href="#DejaVuSans-2212"/>
       <use xlink:href="#DejaVuSans-32" x="83.789062"/>
      </g>
     </g>
    </g>
    <g id="ytick_3">
     <g id="line2d_9">
      <g>
       <use xlink:href="#mafb5faa6c9" x="57.6" y="174.476758" style="stroke: #000000; stroke-width: 0.8"/>
      </g>
     </g>
     <g id="text_10">
      <!-- 0 -->
      <g transform="translate(44.2375 178.275977) scale(0.1 -0.1)">
       <use xlink:href="#DejaVuSans-30"/>
      </g>
     </g>
    </g>
    <g id="ytick_4">
     <g id="line2d_10">
      <g>
       <use xlink:href="#mafb5faa6c9" x="57.6" y="129.693409" style="stroke: #000000; stroke-width: 0.8"/>
      </g>
     </g>
     <g id="text_11">
      <!-- 2 -->
      <g transform="translate(44.2375 133.492628) scale(0.1 -0.1)">
       <use xlink:href="#DejaVuSans-32"/>
      </g>
     </g>
    </g>
    <g id="ytick_5">
     <g id="line2d_11">
      <g>
       <use xlink:href="#mafb5faa6c9" x="57.6" y="84.91006" style="stroke: #000000; stroke-width: 0.8"/>
      </g>
     </g>
     <g id="text_12">
      <!-- 4 -->
      <g transform="translate(44.2375 88.709279) scale(0.1 -0.1)">
       <use xlink:href="#DejaVuSans-34"/>
      </g>
     </g>
    </g>
    <g id="text_13">
     <!-- E*t -->
     <g transform="translate(29.778125 182.147531) rotate(-90) scale(0.1 -0.1)">
      <defs>
       <path id="DejaVuSans-45" d="M 628 4666 
L 3578 4666 
L 3578 4134 
L 1259 4134 
L 1259 2753 
L 3481 2753 
L 3481 2222 
L 1259 2222 
L 1259 531 
L 3634 531 
L 3634 0 
L 628 0 
L 628 4666 
z
" transform="scale(0.015625)"/>
       <path id="DejaVuSans-2a" d="M 3009 3897 
L 1888 3291 
L 3009 2681 
L 2828 2375 
L 1778 3009 
L 1778 1831 
L 1422 1831 
L 1422 3009 
L 372 2375 
L 191 2681 
L 1313 3291 
L 191 3897 
L 372 4206 
L 1422 3572 
L 1422 4750 
L 1778 4750 
L 1778 3572 
L 2828 4206 
L 3009 3897 
z
" transform="scale(0.015625)"/>
       <path id="DejaVuSans-74" d="M 1172 4494 
L 1172 3500 
L 2356 3500 
L 2356 3053 
L 1172 3053 
L 1172 1153 
Q 1172 725 1289 603 
Q 1406 481 1766 481 
L 2356 481 
L 2356 0 
L 1766 0 
Q 1100 0 847 248 
Q 594 497 594 1153 
L 594 3053 
L 172 3053 
L 172 3500 
L 594 3500 
L 594 4494 
L 1172 4494 
z
" transform="scale(0.015625)"/>
      </defs>
      <use xlink:href="#DejaVuSans-45"/>
      <use xlink:href="#DejaVuSans-2a" x="63.183594"/>
      <use xlink:href="#DejaVuSans-74" x="113.183594"/>
     </g>
    </g>
   </g>
   <g id="line2d_12">
    <path d="M 73.832727 295.488 
L 74.150083 295.459395 
L 74.467438 295.170402 
L 74.784793 295.163735 
L 75.73686 294.561974 
L 76.37157 293.854083 
L 77.006281 293.761325 
L 77.640992 293.288301 
L 77.958347 292.5626 
L 78.275702 292.277421 
L 78.593058 292.197508 
L 78.910413 291.912656 
L 79.227769 291.399751 
L 79.545124 291.349237 
L 80.49719 290.436574 
L 80.814545 290.094404 
L 81.449256 289.961258 
L 81.766612 289.365203 
L 82.083967 288.478473 
L 82.401322 287.111245 
L 83.036033 287.053851 
L 83.353388 286.39237 
L 83.670744 286.293716 
L 83.988099 285.841782 
L 84.305455 285.788988 
L 84.940165 285.313506 
L 85.574876 285.076003 
L 86.209587 284.148679 
L 86.526942 284.10219 
L 86.844298 283.672514 
L 87.796364 283.352635 
L 88.113719 283.100412 
L 88.431074 282.364997 
L 88.74843 282.280724 
L 89.700496 281.246271 
L 90.335207 281.014304 
L 90.969917 280.396891 
L 91.287273 280.328214 
L 91.604628 279.739943 
L 92.556694 279.270064 
L 93.50876 278.513522 
L 93.826116 278.460235 
L 94.143471 277.906854 
L 95.412893 277.332461 
L 96.047603 275.947956 
L 96.682314 275.861298 
L 96.999669 275.197399 
L 97.63438 274.967433 
L 99.855868 272.508766 
L 100.807934 272.154248 
L 101.76 271.564428 
L 102.077355 271.137373 
L 102.712066 269.523933 
L 103.029421 269.43862 
L 103.346777 269.16404 
L 103.981488 269.03769 
L 104.616198 268.567161 
L 106.520331 267.68209 
L 106.837686 266.804128 
L 107.155041 266.726912 
L 107.789752 266.16946 
L 108.107107 265.617835 
L 108.741818 265.462956 
L 109.376529 265.341305 
L 110.01124 265.217204 
L 110.328595 264.911238 
L 110.963306 264.792419 
L 111.280661 263.903574 
L 111.598017 263.792384 
L 112.232727 263.101307 
L 112.550083 262.310415 
L 113.502149 261.78114 
L 114.13686 261.315596 
L 114.454215 261.297699 
L 114.77157 261.048659 
L 115.088926 260.990005 
L 115.406281 260.66843 
L 115.723636 260.55512 
L 116.040992 259.878417 
L 117.310413 258.77448 
L 117.945124 258.652381 
L 118.579835 257.874221 
L 119.214545 257.753316 
L 119.849256 257.248876 
L 120.801322 256.941794 
L 121.118678 256.145151 
L 121.436033 255.874747 
L 121.753388 255.81599 
L 122.070744 255.640352 
L 122.388099 255.140797 
L 122.705455 255.137999 
L 123.657521 253.9543 
L 124.292231 253.809916 
L 124.926942 252.77444 
L 125.244298 252.646664 
L 125.561653 252.318248 
L 125.879008 252.237632 
L 126.196364 251.701189 
L 126.513719 251.559163 
L 127.14843 250.957084 
L 127.465785 250.106739 
L 127.78314 249.811915 
L 128.417851 249.705475 
L 128.735207 249.343358 
L 129.369917 248.280101 
L 129.687273 247.885981 
L 130.639339 247.54956 
L 131.591405 247.418273 
L 132.860826 247.021452 
L 133.178182 246.991394 
L 133.495537 246.066133 
L 134.447603 245.799898 
L 134.764959 244.667515 
L 135.082314 244.278744 
L 135.717025 244.088752 
L 136.351736 243.867767 
L 137.303802 243.371862 
L 138.255868 243.18622 
L 138.573223 243.01461 
L 138.890579 242.007041 
L 140.16 241.52505 
L 140.794711 240.557969 
L 141.112066 240.504882 
L 141.429421 240.075749 
L 142.698843 239.519488 
L 143.016198 238.707114 
L 143.333554 238.584929 
L 143.650909 238.188361 
L 144.602975 237.801335 
L 144.920331 237.367703 
L 145.237686 237.13349 
L 145.555041 237.117519 
L 145.872397 236.758723 
L 146.189752 236.591546 
L 146.507107 235.954512 
L 147.459174 235.568887 
L 148.41124 234.43634 
L 148.728595 234.419249 
L 149.363306 234.030939 
L 149.680661 233.362855 
L 150.315372 233.04277 
L 151.267438 232.730079 
L 151.902149 232.202513 
L 152.219504 231.93483 
L 152.854215 231.693683 
L 153.17157 230.784536 
L 153.488926 230.387872 
L 154.123636 230.025171 
L 154.440992 230.017319 
L 155.075702 229.646461 
L 156.027769 229.394528 
L 156.345124 228.782607 
L 156.979835 228.680644 
L 157.614545 227.921141 
L 157.931901 227.025738 
L 158.566612 226.367798 
L 160.153388 226.156806 
L 160.788099 225.827468 
L 161.42281 225.144643 
L 162.057521 224.669413 
L 162.692231 224.130252 
L 163.326942 224.001996 
L 163.961653 223.480619 
L 164.596364 223.374967 
L 165.231074 222.856728 
L 165.54843 222.836048 
L 165.865785 222.521053 
L 166.18314 222.370772 
L 167.135207 221.526379 
L 167.769917 221.22842 
L 169.356694 220.31094 
L 170.30876 219.989714 
L 170.943471 219.544891 
L 171.895537 218.905614 
L 172.530248 218.567242 
L 173.164959 218.44237 
L 173.799669 218.395915 
L 174.117025 217.989672 
L 174.43438 217.971633 
L 174.751736 217.694754 
L 175.069091 217.577068 
L 175.386446 217.098258 
L 175.703802 217.090398 
L 176.021157 216.757922 
L 176.338512 216.694928 
L 177.290579 215.626069 
L 177.607934 215.53925 
L 177.925289 215.067179 
L 178.56 214.946362 
L 179.512066 214.790775 
L 179.829421 214.536773 
L 180.146777 213.908046 
L 181.098843 213.501791 
L 181.416198 212.852701 
L 182.368264 211.797558 
L 182.68562 211.682279 
L 183.320331 210.814398 
L 183.637686 210.657731 
L 184.589752 209.815594 
L 184.907107 209.097576 
L 185.224463 208.986374 
L 185.541818 208.756518 
L 185.859174 208.387817 
L 186.81124 208.081835 
L 187.128595 207.424861 
L 188.080661 207.175501 
L 188.398017 206.895894 
L 188.715372 206.209677 
L 189.667438 206.074512 
L 190.302149 206.032085 
L 190.619504 205.824373 
L 190.93686 205.787158 
L 191.57157 205.356 
L 191.888926 204.820068 
L 192.206281 204.572502 
L 192.523636 204.130685 
L 193.158347 203.819762 
L 193.793058 203.474555 
L 194.110413 203.45032 
L 194.427769 203.157267 
L 194.745124 202.333462 
L 195.379835 202.241408 
L 195.69719 201.411699 
L 196.331901 201.234658 
L 196.649256 200.282222 
L 197.283967 199.834217 
L 197.601322 199.786883 
L 197.918678 199.48729 
L 198.236033 199.436521 
L 198.553388 199.208316 
L 199.188099 199.14818 
L 200.140165 198.005671 
L 200.774876 197.804283 
L 201.092231 197.787098 
L 201.726942 197.192332 
L 202.361653 196.913893 
L 203.313719 196.281506 
L 203.631074 196.246163 
L 204.265785 196.022368 
L 204.58314 195.927889 
L 204.900496 195.651405 
L 205.852562 195.316812 
L 206.169917 194.997107 
L 207.121983 194.643139 
L 207.439339 194.477525 
L 207.756694 194.167906 
L 208.07405 194.064595 
L 208.391405 193.460642 
L 209.026116 193.275762 
L 209.343471 193.261333 
L 210.295537 192.433093 
L 210.930248 192.042661 
L 211.247603 191.838325 
L 211.564959 191.433019 
L 211.882314 191.210941 
L 212.199669 190.453613 
L 212.517025 190.247666 
L 212.83438 190.200478 
L 213.151736 189.990386 
L 213.469091 189.507035 
L 213.786446 188.7886 
L 214.421157 188.604484 
L 214.738512 188.172624 
L 216.007934 187.604511 
L 216.325289 187.385869 
L 216.642645 187.377499 
L 216.96 186.685347 
L 218.546777 186.250268 
L 218.864132 185.669943 
L 220.768264 184.784391 
L 221.08562 184.762035 
L 221.402975 184.393393 
L 222.037686 184.27846 
L 222.355041 183.586028 
L 222.989752 183.442412 
L 223.941818 183.003092 
L 224.576529 182.611833 
L 224.893884 182.448369 
L 225.21124 182.422615 
L 225.528595 182.176152 
L 225.84595 182.152394 
L 226.163306 181.525168 
L 226.798017 181.38657 
L 227.432727 181.052532 
L 227.750083 180.913918 
L 228.067438 180.639095 
L 229.019504 180.374993 
L 229.33686 179.663585 
L 229.97157 179.365432 
L 230.606281 179.187221 
L 231.558347 178.687472 
L 231.875702 178.627491 
L 232.510413 177.95535 
L 232.827769 177.222071 
L 233.145124 177.140149 
L 233.462479 176.858595 
L 233.779835 176.833456 
L 234.09719 176.615106 
L 234.414545 176.605026 
L 235.049256 176.395154 
L 235.366612 175.940671 
L 236.636033 175.450356 
L 237.270744 174.626525 
L 237.588099 174.519511 
L 237.905455 174.249768 
L 238.22281 173.066628 
L 238.540165 172.809076 
L 238.857521 172.398132 
L 239.809587 172.036785 
L 241.713719 170.628236 
L 242.34843 170.321516 
L 242.98314 169.875933 
L 243.300496 169.867027 
L 243.617851 169.545289 
L 243.935207 169.537504 
L 244.252562 169.184684 
L 244.887273 168.913439 
L 245.204628 168.324468 
L 245.839339 168.11877 
L 246.47405 167.519508 
L 247.426116 167.372591 
L 247.743471 166.991807 
L 248.060826 166.936204 
L 248.695537 166.706568 
L 249.330248 166.454806 
L 249.647603 166.435879 
L 249.964959 165.964389 
L 250.599669 165.925819 
L 252.503802 165.317434 
L 253.773223 164.291504 
L 254.407934 164.198343 
L 255.042645 163.14771 
L 255.36 163.075861 
L 255.677355 162.633109 
L 256.312066 162.595043 
L 256.629421 162.427183 
L 256.946777 162.086357 
L 257.264132 161.505604 
L 257.898843 161.419884 
L 258.850909 161.06073 
L 259.168264 160.771903 
L 259.802975 160.602933 
L 260.437686 160.470004 
L 260.755041 159.93098 
L 261.072397 159.639728 
L 261.389752 159.612058 
L 261.707107 159.042295 
L 262.341818 158.81963 
L 262.659174 158.360822 
L 262.976529 158.305184 
L 263.293884 157.887532 
L 263.928595 157.818693 
L 264.880661 157.435605 
L 265.198017 156.942743 
L 265.832727 156.848815 
L 266.467438 156.705583 
L 266.784793 156.406549 
L 267.73686 156.150362 
L 268.054215 156.101643 
L 268.37157 155.779949 
L 269.006281 155.678721 
L 269.958347 155.223834 
L 270.275702 154.630429 
L 271.545124 154.168007 
L 272.179835 153.683124 
L 272.814545 152.578106 
L 273.449256 152.423254 
L 273.766612 152.259369 
L 274.083967 151.765497 
L 274.718678 151.43729 
L 275.670744 150.939054 
L 275.988099 150.661205 
L 276.305455 150.651998 
L 276.62281 149.916603 
L 276.940165 149.569779 
L 277.892231 149.253758 
L 278.209587 149.119109 
L 278.526942 148.431015 
L 278.844298 148.103326 
L 279.161653 148.017275 
L 280.431074 147.12135 
L 280.74843 147.096361 
L 281.065785 146.841683 
L 281.38314 146.347721 
L 281.700496 146.272585 
L 282.017851 145.641361 
L 282.335207 145.486514 
L 282.652562 144.986418 
L 282.969917 144.789017 
L 283.287273 144.402522 
L 283.604628 144.385706 
L 284.87405 143.716496 
L 285.191405 143.341427 
L 285.50876 143.219048 
L 285.826116 142.953614 
L 286.143471 142.536728 
L 286.460826 142.393539 
L 286.778182 141.59951 
L 287.095537 141.518204 
L 288.364959 140.621465 
L 288.682314 140.609464 
L 289.63438 139.920252 
L 290.269091 139.814649 
L 290.586446 139.398707 
L 290.903802 139.326856 
L 291.221157 139.092088 
L 291.538512 138.351623 
L 291.855868 138.216564 
L 292.173223 138.216138 
L 293.125289 137.747618 
L 293.442645 137.341832 
L 293.76 137.243829 
L 294.077355 136.953313 
L 294.712066 136.84381 
L 296.616198 136.297574 
L 296.933554 135.952563 
L 297.88562 135.79769 
L 298.202975 135.634572 
L 298.520331 135.189889 
L 298.837686 135.145683 
L 299.155041 134.693338 
L 299.472397 134.48295 
L 299.789752 133.700026 
L 300.107107 133.676681 
L 300.424463 133.504758 
L 300.741818 133.056777 
L 301.059174 133.004304 
L 302.328595 132.273013 
L 302.64595 131.925388 
L 302.963306 131.791774 
L 303.280661 131.424638 
L 303.915372 131.325301 
L 304.232727 131.096222 
L 304.550083 130.447103 
L 304.867438 130.435894 
L 305.184793 130.169681 
L 305.502149 130.138593 
L 305.819504 129.569419 
L 306.454215 129.39667 
L 306.77157 128.548371 
L 307.088926 128.497944 
L 307.406281 128.084872 
L 308.040992 127.703441 
L 308.358347 126.920237 
L 308.675702 126.742835 
L 308.993058 126.369705 
L 309.310413 126.318215 
L 309.945124 125.782142 
L 310.579835 125.753058 
L 311.531901 125.375388 
L 311.849256 125.109832 
L 312.483967 124.205539 
L 312.801322 124.137896 
L 313.118678 123.751772 
L 314.070744 123.4238 
L 314.388099 123.336741 
L 314.705455 122.875181 
L 315.974876 122.296385 
L 316.292231 121.872005 
L 316.609587 121.843012 
L 316.926942 121.397193 
L 317.561653 121.277834 
L 317.879008 121.078046 
L 318.513719 120.483581 
L 320.100496 119.853715 
L 320.417851 119.467653 
L 320.735207 119.37839 
L 321.052562 119.034933 
L 321.369917 118.911113 
L 321.687273 118.62563 
L 322.321983 118.59708 
L 322.956694 118.08652 
L 323.27405 118.027112 
L 323.591405 117.629647 
L 323.90876 117.554823 
L 324.226116 117.327863 
L 324.860826 117.251418 
L 325.495537 116.631126 
L 326.764959 116.133472 
L 327.082314 115.923593 
L 328.03438 114.461403 
L 328.669091 114.28801 
L 328.986446 113.242693 
L 329.303802 113.096517 
L 329.938512 112.578025 
L 331.207934 112.241432 
L 331.842645 112.179866 
L 332.16 111.571034 
L 332.477355 109.880414 
L 333.429421 108.819151 
L 334.381488 108.509306 
L 334.698843 108.112992 
L 335.016198 108.077613 
L 335.333554 107.87545 
L 335.650909 107.85482 
L 335.968264 107.578335 
L 336.920331 107.176008 
L 337.555041 106.667674 
L 337.872397 106.354967 
L 338.189752 105.694858 
L 338.507107 105.689468 
L 338.824463 105.44097 
L 339.776529 105.284057 
L 340.41124 104.689219 
L 340.728595 104.687957 
L 341.04595 104.414084 
L 341.680661 104.327512 
L 342.632727 103.068229 
L 342.950083 102.482753 
L 343.584793 102.362981 
L 344.219504 102.080107 
L 344.53686 101.525093 
L 344.854215 101.502741 
L 345.806281 101.013571 
L 346.123636 100.626984 
L 346.440992 100.567003 
L 346.758347 100.111511 
L 347.075702 99.166144 
L 347.710413 98.663574 
L 348.027769 98.618352 
L 348.345124 98.178392 
L 348.662479 97.489155 
L 348.979835 97.424176 
L 349.29719 96.864233 
L 350.249256 96.422999 
L 350.566612 95.660272 
L 352.153388 94.93282 
L 352.470744 94.431179 
L 353.105455 94.277744 
L 353.42281 93.70432 
L 353.740165 93.427355 
L 354.057521 92.777373 
L 354.374876 92.513055 
L 354.692231 92.000774 
L 355.009587 91.706626 
L 356.279008 91.284369 
L 357.865785 91.007681 
L 358.18314 90.357244 
L 358.500496 90.303186 
L 358.817851 89.393772 
L 359.135207 89.34071 
L 360.087273 88.285955 
L 360.721983 87.922182 
L 361.039339 87.487276 
L 361.67405 87.239489 
L 361.991405 87.015353 
L 362.30876 86.247678 
L 363.260826 85.609007 
L 363.578182 85.432255 
L 364.212893 84.259691 
L 365.164959 83.877253 
L 365.482314 83.682123 
L 365.799669 82.205519 
L 366.117025 82.171962 
L 367.386446 81.128131 
L 367.703802 80.779 
L 368.973223 80.156432 
L 370.877355 78.700327 
L 371.512066 77.731195 
L 372.146777 77.10864 
L 372.464132 77.103496 
L 373.098843 76.620679 
L 373.416198 76.324617 
L 373.733554 75.326229 
L 374.368264 75.083615 
L 374.68562 75.043629 
L 375.002975 74.861248 
L 375.637686 73.876176 
L 376.272397 73.534097 
L 377.224463 73.277963 
L 378.176529 72.865804 
L 378.81124 71.361265 
L 379.128595 70.998599 
L 379.44595 70.081344 
L 379.763306 69.646347 
L 380.080661 69.586517 
L 380.398017 69.296437 
L 380.715372 69.291733 
L 381.032727 69.020177 
L 381.350083 68.113111 
L 381.667438 68.061363 
L 381.984793 66.685844 
L 382.302149 66.608092 
L 382.619504 66.260893 
L 382.93686 65.327356 
L 383.254215 65.190406 
L 383.888926 64.052264 
L 384.206281 63.757366 
L 384.523636 63.192499 
L 384.840992 62.885804 
L 386.427769 62.450562 
L 387.062479 62.39945 
L 387.379835 61.957245 
L 387.69719 61.795409 
L 388.014545 61.376007 
L 388.331901 60.65044 
L 389.283967 59.983552 
L 389.601322 59.251379 
L 390.553388 58.791897 
L 391.188099 58.699089 
L 391.505455 58.394948 
L 392.457521 58.190733 
L 394.361653 55.668496 
L 395.631074 55.079044 
L 395.94843 55.061334 
L 396.58314 54.61841 
L 396.900496 54.605068 
L 397.217851 54.194561 
L 397.535207 54.18138 
L 397.852562 53.796144 
L 398.169917 53.748031 
L 398.487273 53.568 
L 398.487273 53.568 
" clip-path="url(#pdf9fe4690d)" style="fill: none; stroke: #1f77b4; stroke-width: 1.5; stroke-linecap: square"/>
   </g>
   <g id="line2d_13">
    <path d="M 73.832727 286.978358 
L 74.150083 273.850632 
L 74.467438 273.850632 
L 74.784793 262.6291 
L 75.102149 260.298229 
L 75.73686 260.298229 
L 76.054215 256.099584 
L 76.37157 249.01169 
L 76.688926 248.576827 
L 77.006281 248.576827 
L 77.323636 247.480099 
L 78.910413 247.480099 
L 79.227769 243.481401 
L 79.545124 243.481401 
L 79.862479 242.033885 
L 80.179835 241.139589 
L 80.49719 241.139589 
L 80.814545 236.717896 
L 81.131901 234.636569 
L 82.083967 234.600782 
L 82.401322 233.36896 
L 86.844298 233.299022 
L 87.161653 232.62454 
L 87.479008 229.42046 
L 87.796364 228.712156 
L 88.113719 227.602938 
L 89.700496 227.602938 
L 90.017851 226.185686 
L 90.652562 226.185686 
L 90.969917 224.539337 
L 91.287273 224.539337 
L 91.604628 223.681718 
L 91.921983 221.47579 
L 99.221157 221.47579 
L 99.538512 220.161352 
L 99.855868 220.161352 
L 100.173223 219.850431 
L 101.76 219.850431 
L 102.077355 218.48798 
L 103.664132 218.48798 
L 103.981488 218.180662 
L 104.298843 217.649423 
L 104.933554 217.649423 
L 105.250909 215.781006 
L 106.202975 215.686842 
L 106.520331 211.47013 
L 107.155041 211.05349 
L 107.472397 211.05349 
L 107.789752 210.082503 
L 109.376529 210.082503 
L 109.693884 207.951506 
L 110.01124 207.951506 
L 110.328595 205.597424 
L 129.369917 205.597327 
L 129.687273 204.259582 
L 130.321983 203.001421 
L 131.27405 202.921206 
L 131.591405 201.826869 
L 131.90876 201.826869 
L 132.226116 201.57685 
L 132.860826 201.57685 
L 133.178182 199.470178 
L 133.495537 199.470178 
L 133.812893 199.029043 
L 135.399669 199.029043 
L 135.717025 197.232514 
L 136.03438 196.990262 
L 136.351736 196.584639 
L 136.986446 196.482369 
L 163.009587 196.482369 
L 163.326942 194.617802 
L 167.135207 194.617802 
L 167.452562 194.277043 
L 167.769917 194.277043 
L 168.087273 191.9694 
L 168.404628 191.9694 
L 168.721983 191.353447 
L 169.356694 191.353447 
L 169.67405 190.955963 
L 169.991405 190.003918 
L 171.578182 190.003918 
L 172.212893 189.332658 
L 172.530248 189.332658 
L 172.847603 189.047879 
L 180.146777 189.047879 
L 180.464132 188.557701 
L 180.781488 188.557701 
L 181.098843 188.076892 
L 182.68562 188.076892 
L 183.320331 183.591716 
L 185.541818 183.551818 
L 185.859174 183.291229 
L 186.493884 183.291229 
L 186.81124 182.897616 
L 187.128595 181.911248 
L 187.44595 181.911248 
L 187.763306 181.243192 
L 188.080661 181.243192 
L 188.398017 178.454232 
L 188.715372 174.476758 
L 283.604628 174.476758 
L 284.239339 167.710324 
L 284.556694 167.710324 
L 284.87405 167.042268 
L 285.191405 167.042268 
L 285.50876 166.0559 
L 285.826116 165.662287 
L 286.460826 165.662287 
L 286.778182 165.401698 
L 288.999669 165.3618 
L 289.63438 160.876624 
L 291.221157 160.876624 
L 291.538512 160.395816 
L 291.855868 160.395816 
L 292.173223 159.905637 
L 299.472397 159.905637 
L 299.789752 159.620858 
L 300.107107 159.620858 
L 300.741818 158.949598 
L 302.328595 158.949598 
L 302.64595 157.997553 
L 302.963306 157.600069 
L 303.598017 157.600069 
L 303.915372 156.984116 
L 304.232727 156.984116 
L 304.550083 154.676473 
L 304.867438 154.676473 
L 305.184793 154.335714 
L 308.993058 154.335714 
L 309.310413 152.471147 
L 335.968264 152.368877 
L 336.602975 151.721002 
L 336.920331 149.924473 
L 338.507107 149.924473 
L 338.824463 149.483338 
L 339.141818 149.483338 
L 339.459174 147.376666 
L 340.093884 147.376666 
L 340.41124 147.126647 
L 340.728595 147.126647 
L 341.04595 146.03231 
L 341.680661 145.952095 
L 341.998017 145.952095 
L 342.315372 145.465127 
L 342.632727 144.693934 
L 342.950083 143.356189 
L 361.991405 143.356092 
L 362.30876 141.00201 
L 362.626116 141.00201 
L 362.943471 138.871013 
L 364.530248 138.871013 
L 364.847603 137.900026 
L 365.164959 137.900026 
L 365.799669 137.483386 
L 366.117025 133.266674 
L 367.069091 133.17251 
L 367.386446 131.304093 
L 368.021157 131.304093 
L 368.338512 130.772854 
L 368.655868 130.465536 
L 370.242645 130.465536 
L 370.56 129.103085 
L 372.146777 129.103085 
L 372.464132 128.792164 
L 372.781488 128.792164 
L 373.098843 127.477727 
L 380.398017 127.477727 
L 380.715372 125.271798 
L 381.032727 124.414179 
L 381.350083 124.414179 
L 381.667438 122.76783 
L 382.302149 122.76783 
L 382.619504 121.350578 
L 384.206281 121.350578 
L 384.840992 119.533056 
L 385.158347 116.328976 
L 385.475702 115.654494 
L 389.918678 115.584556 
L 390.236033 114.352734 
L 391.188099 114.316947 
L 391.505455 112.23562 
L 391.82281 107.813927 
L 392.140165 107.813927 
L 392.457521 106.919631 
L 392.774876 105.472115 
L 393.092231 105.472115 
L 393.409587 101.473417 
L 394.996364 101.473417 
L 395.313719 100.376689 
L 395.631074 100.376689 
L 395.94843 99.941826 
L 396.265785 92.853932 
L 396.58314 88.655287 
L 397.217851 88.655287 
L 397.535207 86.324416 
L 397.852562 75.102884 
L 398.169917 75.102884 
L 398.487273 61.975158 
L 398.487273 61.975158 
" clip-path="url(#pdf9fe4690d)" style="fill: none; stroke: #ff7f0e; stroke-width: 1.5; stroke-linecap: square"/>
   </g>
   <g id="patch_3">
    <path d="M 57.6 307.584 
L 57.6 41.472 
" style="fill: none; stroke: #000000; stroke-width: 0.8; stroke-linejoin: miter; stroke-linecap: square"/>
   </g>
   <g id="patch_4">
    <path d="M 414.72 307.584 
L 414.72 41.472 
" style="fill: none; stroke: #000000; stroke-width: 0.8; stroke-linejoin: miter; stroke-linecap: square"/>
   </g>
   <g id="patch_5">
    <path d="M 57.6 307.584 
L 414.72 307.584 
" style="fill: none; stroke: #000000; stroke-width: 0.8; stroke-linejoin: miter; stroke-linecap: square"/>
   </g>
   <g id="patch_6">
    <path d="M 57.6 41.472 
L 414.72 41.472 
" style="fill: none; stroke: #000000; stroke-width: 0.8; stroke-linejoin: miter; stroke-linecap: square"/>
   </g>
   <g id="legend_1">
    <g id="patch_7">
     <path d="M 64.6 78.82825 
L 129.342187 78.82825 
Q 131.342187 78.82825 131.342187 76.82825 
L 131.342187 48.472 
Q 131.342187 46.472 129.342187 46.472 
L 64.6 46.472 
Q 62.6 46.472 62.6 48.472 
L 62.6 76.82825 
Q 62.6 78.82825 64.6 78.82825 
z
" style="fill: #ffffff; opacity: 0.8; stroke: #cccccc; stroke-linejoin: miter"/>
    </g>
    <g id="line2d_14">
     <path d="M 66.6 54.570437 
L 76.6 54.570437 
L 86.6 54.570437 
" style="fill: none; stroke: #1f77b4; stroke-width: 1.5; stroke-linecap: square"/>
    </g>
    <g id="text_14">
     <!-- qc -->
     <g transform="translate(94.6 58.070437) scale(0.1 -0.1)">
      <defs>
       <path id="DejaVuSans-71" d="M 947 1747 
Q 947 1113 1208 752 
Q 1469 391 1925 391 
Q 2381 391 2643 752 
Q 2906 1113 2906 1747 
Q 2906 2381 2643 2742 
Q 2381 3103 1925 3103 
Q 1469 3103 1208 2742 
Q 947 2381 947 1747 
z
M 2906 525 
Q 2725 213 2448 61 
Q 2172 -91 1784 -91 
Q 1150 -91 751 415 
Q 353 922 353 1747 
Q 353 2572 751 3078 
Q 1150 3584 1784 3584 
Q 2172 3584 2448 3432 
Q 2725 3281 2906 2969 
L 2906 3500 
L 3481 3500 
L 3481 -1331 
L 2906 -1331 
L 2906 525 
z
" transform="scale(0.015625)"/>
       <path id="DejaVuSans-63" d="M 3122 3366 
L 3122 2828 
Q 2878 2963 2633 3030 
Q 2388 3097 2138 3097 
Q 1578 3097 1268 2742 
Q 959 2388 959 1747 
Q 959 1106 1268 751 
Q 1578 397 2138 397 
Q 2388 397 2633 464 
Q 2878 531 3122 666 
L 3122 134 
Q 2881 22 2623 -34 
Q 2366 -91 2075 -91 
Q 1284 -91 818 406 
Q 353 903 353 1747 
Q 353 2603 823 3093 
Q 1294 3584 2113 3584 
Q 2378 3584 2631 3529 
Q 2884 3475 3122 3366 
z
" transform="scale(0.015625)"/>
      </defs>
      <use xlink:href="#DejaVuSans-71"/>
      <use xlink:href="#DejaVuSans-63" x="63.476562"/>
     </g>
    </g>
    <g id="line2d_15">
     <path d="M 66.6 69.248562 
L 76.6 69.248562 
L 86.6 69.248562 
" style="fill: none; stroke: #ff7f0e; stroke-width: 1.5; stroke-linecap: square"/>
    </g>
    <g id="text_15">
     <!-- Trotter -->
     <g transform="translate(94.6 72.748562) scale(0.1 -0.1)">
      <defs>
       <path id="DejaVuSans-54" d="M -19 4666 
L 3928 4666 
L 3928 4134 
L 2272 4134 
L 2272 0 
L 1638 0 
L 1638 4134 
L -19 4134 
L -19 4666 
z
" transform="scale(0.015625)"/>
       <path id="DejaVuSans-72" d="M 2631 2963 
Q 2534 3019 2420 3045 
Q 2306 3072 2169 3072 
Q 1681 3072 1420 2755 
Q 1159 2438 1159 1844 
L 1159 0 
L 581 0 
L 581 3500 
L 1159 3500 
L 1159 2956 
Q 1341 3275 1631 3429 
Q 1922 3584 2338 3584 
Q 2397 3584 2469 3576 
Q 2541 3569 2628 3553 
L 2631 2963 
z
" transform="scale(0.015625)"/>
       <path id="DejaVuSans-6f" d="M 1959 3097 
Q 1497 3097 1228 2736 
Q 959 2375 959 1747 
Q 959 1119 1226 758 
Q 1494 397 1959 397 
Q 2419 397 2687 759 
Q 2956 1122 2956 1747 
Q 2956 2369 2687 2733 
Q 2419 3097 1959 3097 
z
M 1959 3584 
Q 2709 3584 3137 3096 
Q 3566 2609 3566 1747 
Q 3566 888 3137 398 
Q 2709 -91 1959 -91 
Q 1206 -91 779 398 
Q 353 888 353 1747 
Q 353 2609 779 3096 
Q 1206 3584 1959 3584 
z
" transform="scale(0.015625)"/>
       <path id="DejaVuSans-65" d="M 3597 1894 
L 3597 1613 
L 953 1613 
Q 991 1019 1311 708 
Q 1631 397 2203 397 
Q 2534 397 2845 478 
Q 3156 559 3463 722 
L 3463 178 
Q 3153 47 2828 -22 
Q 2503 -91 2169 -91 
Q 1331 -91 842 396 
Q 353 884 353 1716 
Q 353 2575 817 3079 
Q 1281 3584 2069 3584 
Q 2775 3584 3186 3129 
Q 3597 2675 3597 1894 
z
M 3022 2063 
Q 3016 2534 2758 2815 
Q 2500 3097 2075 3097 
Q 1594 3097 1305 2825 
Q 1016 2553 972 2059 
L 3022 2063 
z
" transform="scale(0.015625)"/>
      </defs>
      <use xlink:href="#DejaVuSans-54"/>
      <use xlink:href="#DejaVuSans-72" x="46.333984"/>
      <use xlink:href="#DejaVuSans-6f" x="85.197266"/>
      <use xlink:href="#DejaVuSans-74" x="146.378906"/>
      <use xlink:href="#DejaVuSans-74" x="185.587891"/>
      <use xlink:href="#DejaVuSans-65" x="224.796875"/>
      <use xlink:href="#DejaVuSans-72" x="286.320312"/>
     </g>
    </g>
   </g>
  </g>
 </g>
 <defs>
  <clipPath id="pdf9fe4690d">
   <rect x="57.6" y="41.472" width="357.12" height="266.112"/>
  </clipPath>
 </defs>
</svg>
