<?xml version="1.0" encoding="utf-8" standalone="no"?>
<!DOCTYPE svg PUBLIC "-//W3C//DTD SVG 1.1//EN"
  "http://www.w3.org/Graphics/SVG/1.1/DTD/svg11.dtd">
<svg xmlns:xlink="http://www.w3.org/1999/xlink" width="460.8pt" height="345.6pt" viewBox="0 0 460.8 345.6" xmlns="http://www.w3.org/2000/svg" version="1.1">
 <metadata>
  <rdf:RDF xmlns:dc="http://purl.org/dc/elements/1.1/" xmlns:cc="http://creativecommons.org/ns#" xmlns:rdf="http://www.w3.org/1999/02/22-rdf-syntax-ns#">
   <cc:Work>
    <dc:type rdf:resource="http://purl.org/dc/dcmitype/StillImage"/>
    <dc:date>2024-07-12T15:38:06.549926</dc:date>
    <dc:format>image/svg+xml</dc:format>
    <dc:creator>
     <cc:Agent>
      <dc:title>Matplotlib v3.7.1, https://matplotlib.org/</dc:title>
     </cc:Agent>
    </dc:creator>
   </cc:Work>
  </rdf:RDF>
 </metadata>
 <defs>
  <style type="text/css">*{stroke-linejoin: round; stroke-linecap: butt}</style>
 </defs>
 <g id="figure_1">
  <g id="patch_1">
   <path d="M 0 345.6 
L 460.8 345.6 
L 460.8 0 
L 0 0 
z
" style="fill: #ffffff"/>
  </g>
  <g id="axes_1">
   <g id="patch_2">
    <path d="M 57.6 307.584 
L 414.72 307.584 
L 414.72 41.472 
L 57.6 41.472 
z
" style="fill: #ffffff"/>
   </g>
   <g id="matplotlib.axis_1">
    <g id="xtick_1">
     <g id="line2d_1">
      <defs>
       <path id="m2c51fc797c" d="M 0 0 
L 0 3.5 
" style="stroke: #000000; stroke-width: 0.8"/>
      </defs>
      <g>
       <use xlink:href="#m2c51fc797c" x="73.832727" y="307.584" style="stroke: #000000; stroke-width: 0.8"/>
      </g>
     </g>
     <g id="text_1">
      <!-- 0 -->
      <g transform="translate(70.651477 322.182437) scale(0.1 -0.1)">
       <defs>
        <path id="DejaVuSans-30" d="M 2034 4250 
Q 1547 4250 1301 3770 
Q 1056 3291 1056 2328 
Q 1056 1369 1301 889 
Q 1547 409 2034 409 
Q 2525 409 2770 889 
Q 3016 1369 3016 2328 
Q 3016 3291 2770 3770 
Q 2525 4250 2034 4250 
z
M 2034 4750 
Q 2819 4750 3233 4129 
Q 3647 3509 3647 2328 
Q 3647 1150 3233 529 
Q 2819 -91 2034 -91 
Q 1250 -91 836 529 
Q 422 1150 422 2328 
Q 422 3509 836 4129 
Q 1250 4750 2034 4750 
z
" transform="scale(0.015625)"/>
       </defs>
       <use xlink:href="#DejaVuSans-30"/>
      </g>
     </g>
    </g>
    <g id="xtick_2">
     <g id="line2d_2">
      <g>
       <use xlink:href="#m2c51fc797c" x="137.303802" y="307.584" style="stroke: #000000; stroke-width: 0.8"/>
      </g>
     </g>
     <g id="text_2">
      <!-- 200 -->
      <g transform="translate(127.760052 322.182437) scale(0.1 -0.1)">
       <defs>
        <path id="DejaVuSans-32" d="M 1228 531 
L 3431 531 
L 3431 0 
L 469 0 
L 469 531 
Q 828 903 1448 1529 
Q 2069 2156 2228 2338 
Q 2531 2678 2651 2914 
Q 2772 3150 2772 3378 
Q 2772 3750 2511 3984 
Q 2250 4219 1831 4219 
Q 1534 4219 1204 4116 
Q 875 4013 500 3803 
L 500 4441 
Q 881 4594 1212 4672 
Q 1544 4750 1819 4750 
Q 2544 4750 2975 4387 
Q 3406 4025 3406 3419 
Q 3406 3131 3298 2873 
Q 3191 2616 2906 2266 
Q 2828 2175 2409 1742 
Q 1991 1309 1228 531 
z
" transform="scale(0.015625)"/>
       </defs>
       <use xlink:href="#DejaVuSans-32"/>
       <use xlink:href="#DejaVuSans-30" x="63.623047"/>
       <use xlink:href="#DejaVuSans-30" x="127.246094"/>
      </g>
     </g>
    </g>
    <g id="xtick_3">
     <g id="line2d_3">
      <g>
       <use xlink:href="#m2c51fc797c" x="200.774876" y="307.584" style="stroke: #000000; stroke-width: 0.8"/>
      </g>
     </g>
     <g id="text_3">
      <!-- 400 -->
      <g transform="translate(191.231126 322.182437) scale(0.1 -0.1)">
       <defs>
        <path id="DejaVuSans-34" d="M 2419 4116 
L 825 1625 
L 2419 1625 
L 2419 4116 
z
M 2253 4666 
L 3047 4666 
L 3047 1625 
L 3713 1625 
L 3713 1100 
L 3047 1100 
L 3047 0 
L 2419 0 
L 2419 1100 
L 313 1100 
L 313 1709 
L 2253 4666 
z
" transform="scale(0.015625)"/>
       </defs>
       <use xlink:href="#DejaVuSans-34"/>
       <use xlink:href="#DejaVuSans-30" x="63.623047"/>
       <use xlink:href="#DejaVuSans-30" x="127.246094"/>
      </g>
     </g>
    </g>
    <g id="xtick_4">
     <g id="line2d_4">
      <g>
       <use xlink:href="#m2c51fc797c" x="264.24595" y="307.584" style="stroke: #000000; stroke-width: 0.8"/>
      </g>
     </g>
     <g id="text_4">
      <!-- 600 -->
      <g transform="translate(254.7022 322.182437) scale(0.1 -0.1)">
       <defs>
        <path id="DejaVuSans-36" d="M 2113 2584 
Q 1688 2584 1439 2293 
Q 1191 2003 1191 1497 
Q 1191 994 1439 701 
Q 1688 409 2113 409 
Q 2538 409 2786 701 
Q 3034 994 3034 1497 
Q 3034 2003 2786 2293 
Q 2538 2584 2113 2584 
z
M 3366 4563 
L 3366 3988 
Q 3128 4100 2886 4159 
Q 2644 4219 2406 4219 
Q 1781 4219 1451 3797 
Q 1122 3375 1075 2522 
Q 1259 2794 1537 2939 
Q 1816 3084 2150 3084 
Q 2853 3084 3261 2657 
Q 3669 2231 3669 1497 
Q 3669 778 3244 343 
Q 2819 -91 2113 -91 
Q 1303 -91 875 529 
Q 447 1150 447 2328 
Q 447 3434 972 4092 
Q 1497 4750 2381 4750 
Q 2619 4750 2861 4703 
Q 3103 4656 3366 4563 
z
" transform="scale(0.015625)"/>
       </defs>
       <use xlink:href="#DejaVuSans-36"/>
       <use xlink:href="#DejaVuSans-30" x="63.623047"/>
       <use xlink:href="#DejaVuSans-30" x="127.246094"/>
      </g>
     </g>
    </g>
    <g id="xtick_5">
     <g id="line2d_5">
      <g>
       <use xlink:href="#m2c51fc797c" x="327.717025" y="307.584" style="stroke: #000000; stroke-width: 0.8"/>
      </g>
     </g>
     <g id="text_5">
      <!-- 800 -->
      <g transform="translate(318.173275 322.182437) scale(0.1 -0.1)">
       <defs>
        <path id="DejaVuSans-38" d="M 2034 2216 
Q 1584 2216 1326 1975 
Q 1069 1734 1069 1313 
Q 1069 891 1326 650 
Q 1584 409 2034 409 
Q 2484 409 2743 651 
Q 3003 894 3003 1313 
Q 3003 1734 2745 1975 
Q 2488 2216 2034 2216 
z
M 1403 2484 
Q 997 2584 770 2862 
Q 544 3141 544 3541 
Q 544 4100 942 4425 
Q 1341 4750 2034 4750 
Q 2731 4750 3128 4425 
Q 3525 4100 3525 3541 
Q 3525 3141 3298 2862 
Q 3072 2584 2669 2484 
Q 3125 2378 3379 2068 
Q 3634 1759 3634 1313 
Q 3634 634 3220 271 
Q 2806 -91 2034 -91 
Q 1263 -91 848 271 
Q 434 634 434 1313 
Q 434 1759 690 2068 
Q 947 2378 1403 2484 
z
M 1172 3481 
Q 1172 3119 1398 2916 
Q 1625 2713 2034 2713 
Q 2441 2713 2670 2916 
Q 2900 3119 2900 3481 
Q 2900 3844 2670 4047 
Q 2441 4250 2034 4250 
Q 1625 4250 1398 4047 
Q 1172 3844 1172 3481 
z
" transform="scale(0.015625)"/>
       </defs>
       <use xlink:href="#DejaVuSans-38"/>
       <use xlink:href="#DejaVuSans-30" x="63.623047"/>
       <use xlink:href="#DejaVuSans-30" x="127.246094"/>
      </g>
     </g>
    </g>
    <g id="xtick_6">
     <g id="line2d_6">
      <g>
       <use xlink:href="#m2c51fc797c" x="391.188099" y="307.584" style="stroke: #000000; stroke-width: 0.8"/>
      </g>
     </g>
     <g id="text_6">
      <!-- 1000 -->
      <g transform="translate(378.463099 322.182437) scale(0.1 -0.1)">
       <defs>
        <path id="DejaVuSans-31" d="M 794 531 
L 1825 531 
L 1825 4091 
L 703 3866 
L 703 4441 
L 1819 4666 
L 2450 4666 
L 2450 531 
L 3481 531 
L 3481 0 
L 794 0 
L 794 531 
z
" transform="scale(0.015625)"/>
       </defs>
       <use xlink:href="#DejaVuSans-31"/>
       <use xlink:href="#DejaVuSans-30" x="63.623047"/>
       <use xlink:href="#DejaVuSans-30" x="127.246094"/>
       <use xlink:href="#DejaVuSans-30" x="190.869141"/>
      </g>
     </g>
    </g>
    <g id="text_7">
     <!-- n -->
     <g transform="translate(232.99125 335.860562) scale(0.1 -0.1)">
      <defs>
       <path id="DejaVuSans-6e" d="M 3513 2113 
L 3513 0 
L 2938 0 
L 2938 2094 
Q 2938 2591 2744 2837 
Q 2550 3084 2163 3084 
Q 1697 3084 1428 2787 
Q 1159 2491 1159 1978 
L 1159 0 
L 581 0 
L 581 3500 
L 1159 3500 
L 1159 2956 
Q 1366 3272 1645 3428 
Q 1925 3584 2291 3584 
Q 2894 3584 3203 3211 
Q 3513 2838 3513 2113 
z
" transform="scale(0.015625)"/>
      </defs>
      <use xlink:href="#DejaVuSans-6e"/>
     </g>
    </g>
   </g>
   <g id="matplotlib.axis_2">
    <g id="ytick_1">
     <g id="line2d_7">
      <defs>
       <path id="m1012eccef2" d="M 0 0 
L -3.5 0 
" style="stroke: #000000; stroke-width: 0.8"/>
      </defs>
      <g>
       <use xlink:href="#m1012eccef2" x="57.6" y="290.848253" style="stroke: #000000; stroke-width: 0.8"/>
      </g>
     </g>
     <g id="text_8">
      <!-- −3 -->
      <g transform="translate(35.857813 294.647472) scale(0.1 -0.1)">
       <defs>
        <path id="DejaVuSans-2212" d="M 678 2272 
L 4684 2272 
L 4684 1741 
L 678 1741 
L 678 2272 
z
" transform="scale(0.015625)"/>
        <path id="DejaVuSans-33" d="M 2597 2516 
Q 3050 2419 3304 2112 
Q 3559 1806 3559 1356 
Q 3559 666 3084 287 
Q 2609 -91 1734 -91 
Q 1441 -91 1130 -33 
Q 819 25 488 141 
L 488 750 
Q 750 597 1062 519 
Q 1375 441 1716 441 
Q 2309 441 2620 675 
Q 2931 909 2931 1356 
Q 2931 1769 2642 2001 
Q 2353 2234 1838 2234 
L 1294 2234 
L 1294 2753 
L 1863 2753 
Q 2328 2753 2575 2939 
Q 2822 3125 2822 3475 
Q 2822 3834 2567 4026 
Q 2313 4219 1838 4219 
Q 1578 4219 1281 4162 
Q 984 4106 628 3988 
L 628 4550 
Q 988 4650 1302 4700 
Q 1616 4750 1894 4750 
Q 2613 4750 3031 4423 
Q 3450 4097 3450 3541 
Q 3450 3153 3228 2886 
Q 3006 2619 2597 2516 
z
" transform="scale(0.015625)"/>
       </defs>
       <use xlink:href="#DejaVuSans-2212"/>
       <use xlink:href="#DejaVuSans-33" x="83.789062"/>
      </g>
     </g>
    </g>
    <g id="ytick_2">
     <g id="line2d_8">
      <g>
       <use xlink:href="#m1012eccef2" x="57.6" y="252.178866" style="stroke: #000000; stroke-width: 0.8"/>
      </g>
     </g>
     <g id="text_9">
      <!-- −2 -->
      <g transform="translate(35.857813 255.978085) scale(0.1 -0.1)">
       <use xlink:href="#DejaVuSans-2212"/>
       <use xlink:href="#DejaVuSans-32" x="83.789062"/>
      </g>
     </g>
    </g>
    <g id="ytick_3">
     <g id="line2d_9">
      <g>
       <use xlink:href="#m1012eccef2" x="57.6" y="213.509479" style="stroke: #000000; stroke-width: 0.8"/>
      </g>
     </g>
     <g id="text_10">
      <!-- −1 -->
      <g transform="translate(35.857813 217.308697) scale(0.1 -0.1)">
       <use xlink:href="#DejaVuSans-2212"/>
       <use xlink:href="#DejaVuSans-31" x="83.789062"/>
      </g>
     </g>
    </g>
    <g id="ytick_4">
     <g id="line2d_10">
      <g>
       <use xlink:href="#m1012eccef2" x="57.6" y="174.840091" style="stroke: #000000; stroke-width: 0.8"/>
      </g>
     </g>
     <g id="text_11">
      <!-- 0 -->
      <g transform="translate(44.2375 178.63931) scale(0.1 -0.1)">
       <use xlink:href="#DejaVuSans-30"/>
      </g>
     </g>
    </g>
    <g id="ytick_5">
     <g id="line2d_11">
      <g>
       <use xlink:href="#m1012eccef2" x="57.6" y="136.170704" style="stroke: #000000; stroke-width: 0.8"/>
      </g>
     </g>
     <g id="text_12">
      <!-- 1 -->
      <g transform="translate(44.2375 139.969923) scale(0.1 -0.1)">
       <use xlink:href="#DejaVuSans-31"/>
      </g>
     </g>
    </g>
    <g id="ytick_6">
     <g id="line2d_12">
      <g>
       <use xlink:href="#m1012eccef2" x="57.6" y="97.501317" style="stroke: #000000; stroke-width: 0.8"/>
      </g>
     </g>
     <g id="text_13">
      <!-- 2 -->
      <g transform="translate(44.2375 101.300536) scale(0.1 -0.1)">
       <use xlink:href="#DejaVuSans-32"/>
      </g>
     </g>
    </g>
    <g id="ytick_7">
     <g id="line2d_13">
      <g>
       <use xlink:href="#m1012eccef2" x="57.6" y="58.83193" style="stroke: #000000; stroke-width: 0.8"/>
      </g>
     </g>
     <g id="text_14">
      <!-- 3 -->
      <g transform="translate(44.2375 62.631149) scale(0.1 -0.1)">
       <use xlink:href="#DejaVuSans-33"/>
      </g>
     </g>
    </g>
    <g id="text_15">
     <!-- E*t -->
     <g transform="translate(29.778125 182.147531) rotate(-90) scale(0.1 -0.1)">
      <defs>
       <path id="DejaVuSans-45" d="M 628 4666 
L 3578 4666 
L 3578 4134 
L 1259 4134 
L 1259 2753 
L 3481 2753 
L 3481 2222 
L 1259 2222 
L 1259 531 
L 3634 531 
L 3634 0 
L 628 0 
L 628 4666 
z
" transform="scale(0.015625)"/>
       <path id="DejaVuSans-2a" d="M 3009 3897 
L 1888 3291 
L 3009 2681 
L 2828 2375 
L 1778 3009 
L 1778 1831 
L 1422 1831 
L 1422 3009 
L 372 2375 
L 191 2681 
L 1313 3291 
L 191 3897 
L 372 4206 
L 1422 3572 
L 1422 4750 
L 1778 4750 
L 1778 3572 
L 2828 4206 
L 3009 3897 
z
" transform="scale(0.015625)"/>
       <path id="DejaVuSans-74" d="M 1172 4494 
L 1172 3500 
L 2356 3500 
L 2356 3053 
L 1172 3053 
L 1172 1153 
Q 1172 725 1289 603 
Q 1406 481 1766 481 
L 2356 481 
L 2356 0 
L 1766 0 
Q 1100 0 847 248 
Q 594 497 594 1153 
L 594 3053 
L 172 3053 
L 172 3500 
L 594 3500 
L 594 4494 
L 1172 4494 
z
" transform="scale(0.015625)"/>
      </defs>
      <use xlink:href="#DejaVuSans-45"/>
      <use xlink:href="#DejaVuSans-2a" x="63.183594"/>
      <use xlink:href="#DejaVuSans-74" x="113.183594"/>
     </g>
    </g>
   </g>
   <g id="line2d_14">
    <path d="M 73.832727 294.79495 
L 74.150083 294.121226 
L 74.467438 293.96533 
L 74.784793 293.668051 
L 75.102149 293.212079 
L 75.419504 292.037977 
L 76.054215 290.990736 
L 76.37157 290.969418 
L 76.688926 290.315646 
L 77.640992 289.911459 
L 78.593058 288.646726 
L 79.545124 286.066982 
L 79.862479 285.921445 
L 81.449256 283.79528 
L 82.083967 283.326096 
L 82.401322 283.150748 
L 82.718678 282.832611 
L 83.036033 282.24806 
L 83.988099 281.607632 
L 84.305455 280.570977 
L 84.940165 280.257327 
L 85.257521 279.608458 
L 85.574876 279.229041 
L 86.526942 277.553663 
L 87.161653 276.93291 
L 87.479008 276.38669 
L 88.113719 276.140734 
L 89.065785 274.634292 
L 89.38314 274.342986 
L 89.700496 273.74236 
L 90.017851 273.51156 
L 90.335207 273.506569 
L 90.652562 273.217282 
L 90.969917 272.420982 
L 91.287273 272.165754 
L 92.239339 270.032441 
L 92.556694 269.704492 
L 92.87405 269.658411 
L 93.50876 269.125919 
L 93.826116 268.696143 
L 94.460826 268.298488 
L 95.730248 266.593818 
L 96.682314 265.120076 
L 96.999669 265.009458 
L 97.317025 264.67545 
L 97.63438 263.828165 
L 97.951736 263.391183 
L 98.586446 263.226848 
L 99.221157 262.581786 
L 99.538512 262.517097 
L 99.855868 262.227318 
L 100.173223 261.683656 
L 100.490579 261.6316 
L 101.125289 260.698005 
L 101.442645 260.0534 
L 101.76 259.999604 
L 102.077355 259.774071 
L 103.664132 257.811221 
L 103.981488 257.631012 
L 104.616198 256.741941 
L 104.933554 256.498274 
L 105.568264 255.187676 
L 105.88562 254.988248 
L 106.202975 254.452744 
L 106.520331 254.383413 
L 106.837686 254.023795 
L 107.472397 253.717332 
L 109.376529 252.090701 
L 110.01124 251.665109 
L 110.328595 251.189738 
L 110.64595 250.97948 
L 111.598017 249.978499 
L 111.915372 249.898841 
L 115.406281 247.10006 
L 116.040992 246.16084 
L 116.675702 245.847497 
L 116.993058 245.488762 
L 117.310413 245.37388 
L 117.945124 244.642718 
L 118.579835 244.288933 
L 119.214545 243.760913 
L 119.849256 243.367497 
L 128.100496 237.601115 
L 128.735207 237.289983 
L 129.052562 237.246731 
L 129.687273 236.706981 
L 134.130248 233.886541 
L 134.447603 233.865061 
L 135.717025 232.810279 
L 136.03438 232.676594 
L 136.986446 231.986136 
L 137.621157 231.799118 
L 137.938512 231.564701 
L 138.890579 230.58012 
L 140.477355 229.802521 
L 142.381488 228.200056 
L 142.698843 228.103979 
L 149.04595 223.815609 
L 149.363306 223.78942 
L 150.315372 223.124612 
L 150.950083 222.800909 
L 151.267438 222.786393 
L 151.584793 222.389071 
L 152.219504 222.099333 
L 152.53686 221.782004 
L 153.17157 221.454785 
L 153.806281 221.018003 
L 154.123636 220.912242 
L 154.440992 220.658906 
L 155.075702 220.494701 
L 156.027769 219.915184 
L 156.979835 219.162277 
L 157.29719 218.828984 
L 157.931901 218.509335 
L 159.836033 217.269255 
L 162.057521 216.2525 
L 162.374876 215.962667 
L 163.326942 215.712839 
L 163.644298 215.397692 
L 165.231074 214.73111 
L 166.500496 213.884035 
L 166.817851 213.820542 
L 167.135207 213.432345 
L 167.769917 213.110729 
L 168.404628 212.666804 
L 168.721983 212.51448 
L 169.039339 212.195276 
L 169.991405 211.781091 
L 170.626116 211.412298 
L 171.895537 210.587929 
L 172.530248 210.344881 
L 172.847603 210.152703 
L 173.164959 210.095714 
L 174.117025 209.531982 
L 174.43438 209.161982 
L 174.751736 209.127142 
L 175.386446 208.813557 
L 175.703802 208.736158 
L 177.607934 207.478964 
L 178.56 207.146247 
L 179.194711 206.877661 
L 179.512066 206.549886 
L 179.829421 206.524564 
L 180.146777 206.344573 
L 180.464132 206.311848 
L 181.098843 205.859912 
L 181.416198 205.818475 
L 181.733554 205.499274 
L 182.68562 205.229202 
L 183.320331 204.89022 
L 183.955041 204.638884 
L 184.272397 204.580959 
L 184.907107 204.118967 
L 185.541818 203.957004 
L 186.176529 203.303378 
L 187.128595 202.806507 
L 187.44595 202.523163 
L 188.080661 202.358565 
L 188.715372 201.955142 
L 189.667438 201.525073 
L 191.57157 200.539873 
L 193.793058 199.35309 
L 194.427769 199.125438 
L 199.82281 196.127674 
L 201.092231 195.629391 
L 206.804628 192.844328 
L 207.121983 192.796281 
L 207.439339 192.555529 
L 207.756694 192.527629 
L 209.978182 191.250355 
L 210.612893 191.010678 
L 212.199669 190.108222 
L 213.469091 189.565824 
L 215.373223 188.495517 
L 216.007934 188.264078 
L 216.642645 188.054219 
L 216.96 187.648821 
L 217.912066 187.23962 
L 218.229421 187.046896 
L 218.864132 186.942877 
L 221.720331 185.540584 
L 222.355041 185.306371 
L 223.941818 184.569083 
L 224.576529 184.359205 
L 226.798017 183.357234 
L 227.115372 183.277925 
L 227.750083 182.924936 
L 229.019504 182.412154 
L 229.33686 182.32134 
L 229.654215 182.065795 
L 230.923636 181.571181 
L 231.558347 181.330675 
L 232.827769 180.89664 
L 234.414545 180.040513 
L 234.731901 179.984134 
L 235.683967 179.460516 
L 236.318678 179.333049 
L 237.588099 178.588032 
L 237.905455 178.478019 
L 238.22281 178.219344 
L 238.540165 178.149657 
L 238.857521 177.904474 
L 239.492231 177.625611 
L 240.126942 177.114319 
L 240.444298 176.955472 
L 240.761653 176.643827 
L 241.713719 176.253882 
L 242.665785 175.598381 
L 242.98314 175.501065 
L 243.300496 175.223358 
L 243.617851 175.135118 
L 244.252562 174.785728 
L 245.521983 174.285733 
L 246.156694 173.843246 
L 246.791405 173.625315 
L 247.10876 173.399188 
L 247.743471 173.224029 
L 248.060826 173.129523 
L 248.378182 172.905422 
L 248.695537 172.861724 
L 249.330248 172.620606 
L 252.821157 171.060049 
L 253.138512 170.733694 
L 254.090579 170.38931 
L 255.042645 169.855483 
L 255.36 169.709422 
L 255.994711 169.207566 
L 256.946777 168.836883 
L 257.898843 168.417848 
L 258.533554 167.918533 
L 261.707107 166.55252 
L 262.024463 166.144621 
L 262.341818 166.116942 
L 262.659174 165.776704 
L 263.293884 165.517126 
L 263.928595 165.173023 
L 265.832727 164.625426 
L 266.150083 164.276625 
L 267.419504 163.731014 
L 268.054215 163.015058 
L 269.006281 162.480611 
L 269.323636 162.404819 
L 270.593058 161.506891 
L 271.862479 160.992001 
L 272.49719 160.508128 
L 273.131901 160.217569 
L 273.766612 159.982104 
L 274.083967 159.579195 
L 274.718678 159.383597 
L 275.353388 158.926537 
L 276.940165 158.214879 
L 277.892231 157.651879 
L 278.209587 157.619199 
L 278.844298 157.248545 
L 280.113719 156.659264 
L 281.38314 156.222344 
L 284.556694 154.306126 
L 285.191405 154.069981 
L 285.826116 153.519973 
L 286.460826 153.314158 
L 287.412893 152.936235 
L 288.682314 151.836008 
L 290.269091 150.958575 
L 290.586446 150.691053 
L 291.221157 150.477513 
L 291.855868 150.178492 
L 294.077355 149.268161 
L 295.981488 148.03387 
L 296.933554 147.535669 
L 297.568264 147.049093 
L 299.155041 145.827508 
L 300.107107 145.59985 
L 300.741818 145.208425 
L 302.01124 144.696799 
L 302.64595 144.26636 
L 302.963306 144.215894 
L 303.280661 143.92927 
L 303.915372 143.739543 
L 304.550083 143.182027 
L 305.502149 142.581138 
L 306.13686 142.22512 
L 306.454215 142.075973 
L 306.77157 141.671727 
L 307.088926 141.622811 
L 308.040992 141.137182 
L 308.675702 140.927954 
L 308.993058 140.667134 
L 309.945124 140.24961 
L 310.262479 140.049024 
L 310.579835 139.565125 
L 311.849256 138.994149 
L 312.166612 138.894721 
L 312.801322 138.368079 
L 313.436033 138.18118 
L 314.388099 137.729903 
L 314.705455 137.194572 
L 316.292231 136.584801 
L 316.609587 136.290908 
L 317.244298 136.078716 
L 317.879008 135.728272 
L 318.196364 135.537724 
L 318.831074 135.376896 
L 320.100496 134.808622 
L 320.735207 134.520469 
L 321.052562 134.135408 
L 322.956694 133.163201 
L 323.27405 132.483132 
L 323.90876 132.303349 
L 324.226116 132.043917 
L 324.860826 131.82528 
L 325.812893 131.083038 
L 328.03438 130.083427 
L 328.669091 129.313835 
L 328.986446 129.054102 
L 329.303802 128.949584 
L 329.621157 128.594243 
L 329.938512 128.455437 
L 330.890579 127.677616 
L 331.207934 127.533344 
L 331.525289 127.161986 
L 332.16 126.993987 
L 332.477355 126.873548 
L 333.429421 126.213129 
L 334.064132 126.032157 
L 334.698843 125.620458 
L 335.333554 124.937413 
L 335.968264 124.499146 
L 336.28562 123.860147 
L 338.189752 123.005028 
L 338.507107 122.51619 
L 340.093884 121.663775 
L 340.41124 120.857292 
L 341.04595 120.515421 
L 341.363306 120.26441 
L 341.998017 120.035595 
L 342.632727 119.485125 
L 343.267438 119.291605 
L 343.584793 118.620434 
L 344.53686 118.307422 
L 344.854215 117.53804 
L 347.075702 116.069329 
L 347.393058 115.622957 
L 347.710413 115.43532 
L 348.027769 115.077778 
L 348.345124 115.006346 
L 349.29719 114.366973 
L 349.614545 114.214292 
L 349.931901 113.742234 
L 350.566612 113.303364 
L 351.201322 112.93779 
L 352.153388 110.76118 
L 353.105455 110.274921 
L 354.374876 108.881595 
L 355.009587 108.602474 
L 355.326942 108.149348 
L 355.644298 108.096358 
L 356.596364 107.307574 
L 356.913719 106.873529 
L 357.231074 106.828248 
L 357.865785 106.230012 
L 358.18314 106.130251 
L 358.817851 104.796801 
L 359.452562 104.446911 
L 359.769917 104.278653 
L 360.404628 103.486671 
L 361.039339 102.403564 
L 361.356694 102.146084 
L 361.67405 102.091237 
L 362.626116 101.176831 
L 363.260826 100.834916 
L 363.578182 100.018469 
L 364.212893 99.734725 
L 364.530248 98.947992 
L 365.164959 98.442044 
L 365.482314 97.999883 
L 365.799669 97.897858 
L 366.117025 97.322005 
L 366.751736 96.968713 
L 367.069091 96.614025 
L 367.386446 96.506114 
L 368.021157 95.842348 
L 368.338512 95.103471 
L 368.655868 94.96459 
L 369.607934 94.143054 
L 369.925289 94.022006 
L 370.242645 93.094052 
L 370.877355 92.568488 
L 371.194711 92.137541 
L 371.829421 91.016975 
L 372.464132 90.760248 
L 372.781488 90.123099 
L 373.416198 90.005931 
L 374.368264 88.701001 
L 374.68562 88.552126 
L 375.002975 88.274801 
L 375.320331 88.203473 
L 376.907107 87.111786 
L 377.541818 86.320083 
L 377.859174 86.230269 
L 378.176529 85.792153 
L 378.493884 85.13007 
L 378.81124 84.169041 
L 379.763306 83.663427 
L 380.080661 82.474671 
L 380.398017 82.052848 
L 380.715372 81.396297 
L 381.032727 81.243133 
L 381.350083 80.719028 
L 381.667438 80.706226 
L 382.302149 79.603653 
L 382.619504 79.372224 
L 382.93686 78.86374 
L 383.254215 78.572968 
L 383.57157 77.749498 
L 383.888926 77.33065 
L 384.206281 77.220533 
L 385.158347 76.350119 
L 385.475702 75.990772 
L 386.110413 74.913889 
L 386.745124 74.321619 
L 387.062479 73.092308 
L 387.379835 72.520622 
L 388.014545 70.976088 
L 388.649256 70.411138 
L 388.966612 69.585058 
L 389.283967 69.24688 
L 389.601322 69.168621 
L 390.236033 68.376704 
L 390.553388 68.161444 
L 390.870744 67.148581 
L 391.188099 67.031683 
L 391.505455 65.680735 
L 391.82281 65.231177 
L 392.140165 64.553352 
L 392.457521 62.899656 
L 393.092231 61.844567 
L 394.044298 60.903061 
L 394.361653 60.689406 
L 394.679008 60.023362 
L 395.631074 58.961213 
L 396.265785 57.597885 
L 396.58314 57.22646 
L 396.900496 56.571336 
L 397.217851 55.319488 
L 397.852562 53.941387 
L 398.169917 53.889069 
L 398.487273 53.568 
L 398.487273 53.568 
" clip-path="url(#pe07eaeccdf)" style="fill: none; stroke: #1f77b4; stroke-width: 1.5; stroke-linecap: square"/>
   </g>
   <g id="line2d_15">
    <path d="M 73.832727 295.488 
L 74.467438 295.488 
L 74.784793 293.882367 
L 75.102149 289.585541 
L 75.419504 279.621372 
L 75.73686 279.010042 
L 76.054215 279.010042 
L 76.37157 278.107127 
L 76.688926 278.107127 
L 77.006281 277.46826 
L 78.593058 277.46826 
L 78.910413 271.846886 
L 79.227769 271.846886 
L 79.545124 269.811968 
L 79.862479 268.554765 
L 80.179835 268.554765 
L 80.49719 262.338744 
L 80.814545 259.652157 
L 81.131901 259.412813 
L 82.083967 259.362504 
L 82.401322 257.630808 
L 86.844298 257.532488 
L 87.161653 256.584301 
L 87.479008 252.080002 
L 87.796364 251.084267 
L 88.113719 249.524928 
L 89.700496 249.524928 
L 90.017851 247.532553 
L 90.652562 247.532553 
L 90.969917 245.218114 
L 91.287273 245.218114 
L 91.604628 244.012473 
L 91.921983 240.911376 
L 99.221157 240.911376 
L 99.538512 239.063539 
L 99.855868 239.063539 
L 100.173223 238.626446 
L 101.76 238.626446 
L 102.077355 236.711111 
L 103.664132 236.711111 
L 103.981488 236.279082 
L 104.298843 235.532267 
L 104.933554 235.532267 
L 105.250909 232.905644 
L 105.568264 232.905644 
L 105.88562 232.773268 
L 106.202975 232.773268 
L 106.520331 226.845411 
L 107.155041 226.259697 
L 107.472397 226.259697 
L 107.789752 224.894682 
L 109.376529 224.894682 
L 109.693884 221.898926 
L 110.01124 221.898926 
L 110.328595 218.589554 
L 129.369917 218.589418 
L 129.687273 216.708815 
L 130.004628 215.624671 
L 130.321983 214.940091 
L 130.956694 214.940091 
L 131.27405 214.827324 
L 131.591405 213.288905 
L 131.90876 213.288905 
L 132.226116 212.937428 
L 132.860826 212.937428 
L 133.178182 209.975867 
L 133.495537 209.975867 
L 133.812893 209.355718 
L 135.399669 209.355718 
L 135.717025 206.830155 
L 136.03438 206.489597 
L 136.351736 205.919372 
L 136.669091 205.775601 
L 163.009587 205.775601 
L 163.326942 203.154391 
L 167.135207 203.154391 
L 167.452562 202.675352 
L 167.769917 202.675352 
L 168.087273 199.431265 
L 168.404628 199.431265 
L 168.721983 198.565358 
L 169.356694 198.565358 
L 169.67405 198.006574 
L 169.991405 196.668188 
L 171.578182 196.668188 
L 172.212893 195.724531 
L 172.530248 195.724531 
L 172.847603 195.324187 
L 180.146777 195.324187 
L 180.464132 194.635094 
L 180.781488 194.635094 
L 181.098843 193.959173 
L 182.68562 193.959173 
L 183.320331 187.653908 
L 185.541818 187.59782 
L 185.859174 187.231484 
L 186.493884 187.231484 
L 186.81124 186.678143 
L 187.128595 185.291505 
L 187.44595 185.291505 
L 187.763306 184.352351 
L 188.080661 184.352351 
L 188.398017 180.431628 
L 188.715372 174.840091 
L 283.604628 174.840091 
L 284.239339 165.327832 
L 284.556694 165.327832 
L 284.87405 164.388678 
L 285.191405 164.388678 
L 285.50876 163.00204 
L 285.826116 162.448699 
L 286.460826 162.448699 
L 286.778182 162.082363 
L 288.999669 162.026275 
L 289.63438 155.72101 
L 291.221157 155.72101 
L 291.538512 155.045089 
L 291.855868 155.045089 
L 292.173223 154.355996 
L 299.472397 154.355996 
L 299.789752 153.955652 
L 300.107107 153.955652 
L 300.741818 153.011995 
L 302.328595 153.011995 
L 302.64595 151.673609 
L 302.963306 151.114825 
L 303.598017 151.114825 
L 303.915372 150.248918 
L 304.232727 150.248918 
L 304.550083 147.004831 
L 304.867438 147.004831 
L 305.184793 146.525792 
L 308.993058 146.525792 
L 309.310413 143.904582 
L 335.650909 143.904582 
L 335.968264 143.760811 
L 336.28562 143.190586 
L 336.602975 142.850027 
L 336.920331 140.324465 
L 338.507107 140.324465 
L 338.824463 139.704316 
L 339.141818 139.704316 
L 339.459174 136.742755 
L 340.093884 136.742755 
L 340.41124 136.391278 
L 340.728595 136.391278 
L 341.04595 134.852859 
L 341.680661 134.740092 
L 341.998017 134.740092 
L 342.315372 134.055511 
L 342.632727 132.971367 
L 342.950083 131.090765 
L 361.991405 131.090628 
L 362.30876 127.781257 
L 362.626116 127.781257 
L 362.943471 124.7855 
L 364.530248 124.7855 
L 364.847603 123.420486 
L 365.164959 123.420486 
L 365.799669 122.834772 
L 366.117025 116.906915 
L 366.43438 116.906915 
L 366.751736 116.774539 
L 367.069091 116.774539 
L 367.386446 114.147916 
L 368.021157 114.147916 
L 368.338512 113.401101 
L 368.655868 112.969072 
L 370.242645 112.969072 
L 370.56 111.053737 
L 372.146777 111.053737 
L 372.464132 110.616644 
L 372.781488 110.616644 
L 373.098843 108.768807 
L 380.398017 108.768807 
L 380.715372 105.66771 
L 381.032727 104.462069 
L 381.350083 104.462069 
L 381.667438 102.14763 
L 382.302149 102.14763 
L 382.619504 100.155255 
L 384.206281 100.155255 
L 384.523636 98.595916 
L 384.840992 97.600181 
L 385.158347 93.095882 
L 385.475702 92.147695 
L 389.918678 92.049375 
L 390.236033 90.317679 
L 391.505455 90.028026 
L 391.82281 87.341439 
L 392.140165 81.125418 
L 392.457521 81.125418 
L 392.774876 79.868215 
L 393.092231 77.833297 
L 393.409587 77.833297 
L 393.726942 72.211923 
L 395.313719 72.211923 
L 395.631074 71.573056 
L 395.94843 71.573056 
L 396.265785 70.670141 
L 396.58314 70.670141 
L 396.900496 70.05881 
L 397.217851 60.094642 
L 397.535207 55.797816 
L 397.852562 54.192183 
L 398.487273 54.192183 
L 398.487273 54.192183 
" clip-path="url(#pe07eaeccdf)" style="fill: none; stroke: #ff7f0e; stroke-width: 1.5; stroke-linecap: square"/>
   </g>
   <g id="patch_3">
    <path d="M 57.6 307.584 
L 57.6 41.472 
" style="fill: none; stroke: #000000; stroke-width: 0.8; stroke-linejoin: miter; stroke-linecap: square"/>
   </g>
   <g id="patch_4">
    <path d="M 414.72 307.584 
L 414.72 41.472 
" style="fill: none; stroke: #000000; stroke-width: 0.8; stroke-linejoin: miter; stroke-linecap: square"/>
   </g>
   <g id="patch_5">
    <path d="M 57.6 307.584 
L 414.72 307.584 
" style="fill: none; stroke: #000000; stroke-width: 0.8; stroke-linejoin: miter; stroke-linecap: square"/>
   </g>
   <g id="patch_6">
    <path d="M 57.6 41.472 
L 414.72 41.472 
" style="fill: none; stroke: #000000; stroke-width: 0.8; stroke-linejoin: miter; stroke-linecap: square"/>
   </g>
   <g id="legend_1">
    <g id="patch_7">
     <path d="M 64.6 78.82825 
L 129.342187 78.82825 
Q 131.342187 78.82825 131.342187 76.82825 
L 131.342187 48.472 
Q 131.342187 46.472 129.342187 46.472 
L 64.6 46.472 
Q 62.6 46.472 62.6 48.472 
L 62.6 76.82825 
Q 62.6 78.82825 64.6 78.82825 
z
" style="fill: #ffffff; opacity: 0.8; stroke: #cccccc; stroke-linejoin: miter"/>
    </g>
    <g id="line2d_16">
     <path d="M 66.6 54.570437 
L 76.6 54.570437 
L 86.6 54.570437 
" style="fill: none; stroke: #1f77b4; stroke-width: 1.5; stroke-linecap: square"/>
    </g>
    <g id="text_16">
     <!-- qc -->
     <g transform="translate(94.6 58.070437) scale(0.1 -0.1)">
      <defs>
       <path id="DejaVuSans-71" d="M 947 1747 
Q 947 1113 1208 752 
Q 1469 391 1925 391 
Q 2381 391 2643 752 
Q 2906 1113 2906 1747 
Q 2906 2381 2643 2742 
Q 2381 3103 1925 3103 
Q 1469 3103 1208 2742 
Q 947 2381 947 1747 
z
M 2906 525 
Q 2725 213 2448 61 
Q 2172 -91 1784 -91 
Q 1150 -91 751 415 
Q 353 922 353 1747 
Q 353 2572 751 3078 
Q 1150 3584 1784 3584 
Q 2172 3584 2448 3432 
Q 2725 3281 2906 2969 
L 2906 3500 
L 3481 3500 
L 3481 -1331 
L 2906 -1331 
L 2906 525 
z
" transform="scale(0.015625)"/>
       <path id="DejaVuSans-63" d="M 3122 3366 
L 3122 2828 
Q 2878 2963 2633 3030 
Q 2388 3097 2138 3097 
Q 1578 3097 1268 2742 
Q 959 2388 959 1747 
Q 959 1106 1268 751 
Q 1578 397 2138 397 
Q 2388 397 2633 464 
Q 2878 531 3122 666 
L 3122 134 
Q 2881 22 2623 -34 
Q 2366 -91 2075 -91 
Q 1284 -91 818 406 
Q 353 903 353 1747 
Q 353 2603 823 3093 
Q 1294 3584 2113 3584 
Q 2378 3584 2631 3529 
Q 2884 3475 3122 3366 
z
" transform="scale(0.015625)"/>
      </defs>
      <use xlink:href="#DejaVuSans-71"/>
      <use xlink:href="#DejaVuSans-63" x="63.476562"/>
     </g>
    </g>
    <g id="line2d_17">
     <path d="M 66.6 69.248562 
L 76.6 69.248562 
L 86.6 69.248562 
" style="fill: none; stroke: #ff7f0e; stroke-width: 1.5; stroke-linecap: square"/>
    </g>
    <g id="text_17">
     <!-- Trotter -->
     <g transform="translate(94.6 72.748562) scale(0.1 -0.1)">
      <defs>
       <path id="DejaVuSans-54" d="M -19 4666 
L 3928 4666 
L 3928 4134 
L 2272 4134 
L 2272 0 
L 1638 0 
L 1638 4134 
L -19 4134 
L -19 4666 
z
" transform="scale(0.015625)"/>
       <path id="DejaVuSans-72" d="M 2631 2963 
Q 2534 3019 2420 3045 
Q 2306 3072 2169 3072 
Q 1681 3072 1420 2755 
Q 1159 2438 1159 1844 
L 1159 0 
L 581 0 
L 581 3500 
L 1159 3500 
L 1159 2956 
Q 1341 3275 1631 3429 
Q 1922 3584 2338 3584 
Q 2397 3584 2469 3576 
Q 2541 3569 2628 3553 
L 2631 2963 
z
" transform="scale(0.015625)"/>
       <path id="DejaVuSans-6f" d="M 1959 3097 
Q 1497 3097 1228 2736 
Q 959 2375 959 1747 
Q 959 1119 1226 758 
Q 1494 397 1959 397 
Q 2419 397 2687 759 
Q 2956 1122 2956 1747 
Q 2956 2369 2687 2733 
Q 2419 3097 1959 3097 
z
M 1959 3584 
Q 2709 3584 3137 3096 
Q 3566 2609 3566 1747 
Q 3566 888 3137 398 
Q 2709 -91 1959 -91 
Q 1206 -91 779 398 
Q 353 888 353 1747 
Q 353 2609 779 3096 
Q 1206 3584 1959 3584 
z
" transform="scale(0.015625)"/>
       <path id="DejaVuSans-65" d="M 3597 1894 
L 3597 1613 
L 953 1613 
Q 991 1019 1311 708 
Q 1631 397 2203 397 
Q 2534 397 2845 478 
Q 3156 559 3463 722 
L 3463 178 
Q 3153 47 2828 -22 
Q 2503 -91 2169 -91 
Q 1331 -91 842 396 
Q 353 884 353 1716 
Q 353 2575 817 3079 
Q 1281 3584 2069 3584 
Q 2775 3584 3186 3129 
Q 3597 2675 3597 1894 
z
M 3022 2063 
Q 3016 2534 2758 2815 
Q 2500 3097 2075 3097 
Q 1594 3097 1305 2825 
Q 1016 2553 972 2059 
L 3022 2063 
z
" transform="scale(0.015625)"/>
      </defs>
      <use xlink:href="#DejaVuSans-54"/>
      <use xlink:href="#DejaVuSans-72" x="46.333984"/>
      <use xlink:href="#DejaVuSans-6f" x="85.197266"/>
      <use xlink:href="#DejaVuSans-74" x="146.378906"/>
      <use xlink:href="#DejaVuSans-74" x="185.587891"/>
      <use xlink:href="#DejaVuSans-65" x="224.796875"/>
      <use xlink:href="#DejaVuSans-72" x="286.320312"/>
     </g>
    </g>
   </g>
  </g>
 </g>
 <defs>
  <clipPath id="pe07eaeccdf">
   <rect x="57.6" y="41.472" width="357.12" height="266.112"/>
  </clipPath>
 </defs>
</svg>
