<?xml version="1.0" encoding="utf-8" standalone="no"?>
<!DOCTYPE svg PUBLIC "-//W3C//DTD SVG 1.1//EN"
  "http://www.w3.org/Graphics/SVG/1.1/DTD/svg11.dtd">
<svg xmlns:xlink="http://www.w3.org/1999/xlink" width="460.8pt" height="345.6pt" viewBox="0 0 460.8 345.6" xmlns="http://www.w3.org/2000/svg" version="1.1">
 <metadata>
  <rdf:RDF xmlns:dc="http://purl.org/dc/elements/1.1/" xmlns:cc="http://creativecommons.org/ns#" xmlns:rdf="http://www.w3.org/1999/02/22-rdf-syntax-ns#">
   <cc:Work>
    <dc:type rdf:resource="http://purl.org/dc/dcmitype/StillImage"/>
    <dc:date>2024-07-14T00:07:21.688861</dc:date>
    <dc:format>image/svg+xml</dc:format>
    <dc:creator>
     <cc:Agent>
      <dc:title>Matplotlib v3.7.1, https://matplotlib.org/</dc:title>
     </cc:Agent>
    </dc:creator>
   </cc:Work>
  </rdf:RDF>
 </metadata>
 <defs>
  <style type="text/css">*{stroke-linejoin: round; stroke-linecap: butt}</style>
 </defs>
 <g id="figure_1">
  <g id="patch_1">
   <path d="M 0 345.6 
L 460.8 345.6 
L 460.8 0 
L 0 0 
z
" style="fill: #ffffff"/>
  </g>
  <g id="axes_1">
   <g id="patch_2">
    <path d="M 57.6 307.584 
L 414.72 307.584 
L 414.72 41.472 
L 57.6 41.472 
z
" style="fill: #ffffff"/>
   </g>
   <g id="matplotlib.axis_1">
    <g id="xtick_1">
     <g id="line2d_1">
      <defs>
       <path id="m902d550ffd" d="M 0 0 
L 0 3.5 
" style="stroke: #000000; stroke-width: 0.8"/>
      </defs>
      <g>
       <use xlink:href="#m902d550ffd" x="73.832727" y="307.584" style="stroke: #000000; stroke-width: 0.8"/>
      </g>
     </g>
     <g id="text_1">
      <!-- 0 -->
      <g transform="translate(70.651477 322.182437) scale(0.1 -0.1)">
       <defs>
        <path id="DejaVuSans-30" d="M 2034 4250 
Q 1547 4250 1301 3770 
Q 1056 3291 1056 2328 
Q 1056 1369 1301 889 
Q 1547 409 2034 409 
Q 2525 409 2770 889 
Q 3016 1369 3016 2328 
Q 3016 3291 2770 3770 
Q 2525 4250 2034 4250 
z
M 2034 4750 
Q 2819 4750 3233 4129 
Q 3647 3509 3647 2328 
Q 3647 1150 3233 529 
Q 2819 -91 2034 -91 
Q 1250 -91 836 529 
Q 422 1150 422 2328 
Q 422 3509 836 4129 
Q 1250 4750 2034 4750 
z
" transform="scale(0.015625)"/>
       </defs>
       <use xlink:href="#DejaVuSans-30"/>
      </g>
     </g>
    </g>
    <g id="xtick_2">
     <g id="line2d_2">
      <g>
       <use xlink:href="#m902d550ffd" x="137.303802" y="307.584" style="stroke: #000000; stroke-width: 0.8"/>
      </g>
     </g>
     <g id="text_2">
      <!-- 200 -->
      <g transform="translate(127.760052 322.182437) scale(0.1 -0.1)">
       <defs>
        <path id="DejaVuSans-32" d="M 1228 531 
L 3431 531 
L 3431 0 
L 469 0 
L 469 531 
Q 828 903 1448 1529 
Q 2069 2156 2228 2338 
Q 2531 2678 2651 2914 
Q 2772 3150 2772 3378 
Q 2772 3750 2511 3984 
Q 2250 4219 1831 4219 
Q 1534 4219 1204 4116 
Q 875 4013 500 3803 
L 500 4441 
Q 881 4594 1212 4672 
Q 1544 4750 1819 4750 
Q 2544 4750 2975 4387 
Q 3406 4025 3406 3419 
Q 3406 3131 3298 2873 
Q 3191 2616 2906 2266 
Q 2828 2175 2409 1742 
Q 1991 1309 1228 531 
z
" transform="scale(0.015625)"/>
       </defs>
       <use xlink:href="#DejaVuSans-32"/>
       <use xlink:href="#DejaVuSans-30" x="63.623047"/>
       <use xlink:href="#DejaVuSans-30" x="127.246094"/>
      </g>
     </g>
    </g>
    <g id="xtick_3">
     <g id="line2d_3">
      <g>
       <use xlink:href="#m902d550ffd" x="200.774876" y="307.584" style="stroke: #000000; stroke-width: 0.8"/>
      </g>
     </g>
     <g id="text_3">
      <!-- 400 -->
      <g transform="translate(191.231126 322.182437) scale(0.1 -0.1)">
       <defs>
        <path id="DejaVuSans-34" d="M 2419 4116 
L 825 1625 
L 2419 1625 
L 2419 4116 
z
M 2253 4666 
L 3047 4666 
L 3047 1625 
L 3713 1625 
L 3713 1100 
L 3047 1100 
L 3047 0 
L 2419 0 
L 2419 1100 
L 313 1100 
L 313 1709 
L 2253 4666 
z
" transform="scale(0.015625)"/>
       </defs>
       <use xlink:href="#DejaVuSans-34"/>
       <use xlink:href="#DejaVuSans-30" x="63.623047"/>
       <use xlink:href="#DejaVuSans-30" x="127.246094"/>
      </g>
     </g>
    </g>
    <g id="xtick_4">
     <g id="line2d_4">
      <g>
       <use xlink:href="#m902d550ffd" x="264.24595" y="307.584" style="stroke: #000000; stroke-width: 0.8"/>
      </g>
     </g>
     <g id="text_4">
      <!-- 600 -->
      <g transform="translate(254.7022 322.182437) scale(0.1 -0.1)">
       <defs>
        <path id="DejaVuSans-36" d="M 2113 2584 
Q 1688 2584 1439 2293 
Q 1191 2003 1191 1497 
Q 1191 994 1439 701 
Q 1688 409 2113 409 
Q 2538 409 2786 701 
Q 3034 994 3034 1497 
Q 3034 2003 2786 2293 
Q 2538 2584 2113 2584 
z
M 3366 4563 
L 3366 3988 
Q 3128 4100 2886 4159 
Q 2644 4219 2406 4219 
Q 1781 4219 1451 3797 
Q 1122 3375 1075 2522 
Q 1259 2794 1537 2939 
Q 1816 3084 2150 3084 
Q 2853 3084 3261 2657 
Q 3669 2231 3669 1497 
Q 3669 778 3244 343 
Q 2819 -91 2113 -91 
Q 1303 -91 875 529 
Q 447 1150 447 2328 
Q 447 3434 972 4092 
Q 1497 4750 2381 4750 
Q 2619 4750 2861 4703 
Q 3103 4656 3366 4563 
z
" transform="scale(0.015625)"/>
       </defs>
       <use xlink:href="#DejaVuSans-36"/>
       <use xlink:href="#DejaVuSans-30" x="63.623047"/>
       <use xlink:href="#DejaVuSans-30" x="127.246094"/>
      </g>
     </g>
    </g>
    <g id="xtick_5">
     <g id="line2d_5">
      <g>
       <use xlink:href="#m902d550ffd" x="327.717025" y="307.584" style="stroke: #000000; stroke-width: 0.8"/>
      </g>
     </g>
     <g id="text_5">
      <!-- 800 -->
      <g transform="translate(318.173275 322.182437) scale(0.1 -0.1)">
       <defs>
        <path id="DejaVuSans-38" d="M 2034 2216 
Q 1584 2216 1326 1975 
Q 1069 1734 1069 1313 
Q 1069 891 1326 650 
Q 1584 409 2034 409 
Q 2484 409 2743 651 
Q 3003 894 3003 1313 
Q 3003 1734 2745 1975 
Q 2488 2216 2034 2216 
z
M 1403 2484 
Q 997 2584 770 2862 
Q 544 3141 544 3541 
Q 544 4100 942 4425 
Q 1341 4750 2034 4750 
Q 2731 4750 3128 4425 
Q 3525 4100 3525 3541 
Q 3525 3141 3298 2862 
Q 3072 2584 2669 2484 
Q 3125 2378 3379 2068 
Q 3634 1759 3634 1313 
Q 3634 634 3220 271 
Q 2806 -91 2034 -91 
Q 1263 -91 848 271 
Q 434 634 434 1313 
Q 434 1759 690 2068 
Q 947 2378 1403 2484 
z
M 1172 3481 
Q 1172 3119 1398 2916 
Q 1625 2713 2034 2713 
Q 2441 2713 2670 2916 
Q 2900 3119 2900 3481 
Q 2900 3844 2670 4047 
Q 2441 4250 2034 4250 
Q 1625 4250 1398 4047 
Q 1172 3844 1172 3481 
z
" transform="scale(0.015625)"/>
       </defs>
       <use xlink:href="#DejaVuSans-38"/>
       <use xlink:href="#DejaVuSans-30" x="63.623047"/>
       <use xlink:href="#DejaVuSans-30" x="127.246094"/>
      </g>
     </g>
    </g>
    <g id="xtick_6">
     <g id="line2d_6">
      <g>
       <use xlink:href="#m902d550ffd" x="391.188099" y="307.584" style="stroke: #000000; stroke-width: 0.8"/>
      </g>
     </g>
     <g id="text_6">
      <!-- 1000 -->
      <g transform="translate(378.463099 322.182437) scale(0.1 -0.1)">
       <defs>
        <path id="DejaVuSans-31" d="M 794 531 
L 1825 531 
L 1825 4091 
L 703 3866 
L 703 4441 
L 1819 4666 
L 2450 4666 
L 2450 531 
L 3481 531 
L 3481 0 
L 794 0 
L 794 531 
z
" transform="scale(0.015625)"/>
       </defs>
       <use xlink:href="#DejaVuSans-31"/>
       <use xlink:href="#DejaVuSans-30" x="63.623047"/>
       <use xlink:href="#DejaVuSans-30" x="127.246094"/>
       <use xlink:href="#DejaVuSans-30" x="190.869141"/>
      </g>
     </g>
    </g>
    <g id="text_7">
     <!-- n -->
     <g transform="translate(232.99125 335.860562) scale(0.1 -0.1)">
      <defs>
       <path id="DejaVuSans-6e" d="M 3513 2113 
L 3513 0 
L 2938 0 
L 2938 2094 
Q 2938 2591 2744 2837 
Q 2550 3084 2163 3084 
Q 1697 3084 1428 2787 
Q 1159 2491 1159 1978 
L 1159 0 
L 581 0 
L 581 3500 
L 1159 3500 
L 1159 2956 
Q 1366 3272 1645 3428 
Q 1925 3584 2291 3584 
Q 2894 3584 3203 3211 
Q 3513 2838 3513 2113 
z
" transform="scale(0.015625)"/>
      </defs>
      <use xlink:href="#DejaVuSans-6e"/>
     </g>
    </g>
   </g>
   <g id="matplotlib.axis_2">
    <g id="ytick_1">
     <g id="line2d_7">
      <defs>
       <path id="m90765026ab" d="M 0 0 
L -3.5 0 
" style="stroke: #000000; stroke-width: 0.8"/>
      </defs>
      <g>
       <use xlink:href="#m90765026ab" x="57.6" y="290.288484" style="stroke: #000000; stroke-width: 0.8"/>
      </g>
     </g>
     <g id="text_8">
      <!-- −3 -->
      <g transform="translate(35.857813 294.087703) scale(0.1 -0.1)">
       <defs>
        <path id="DejaVuSans-2212" d="M 678 2272 
L 4684 2272 
L 4684 1741 
L 678 1741 
L 678 2272 
z
" transform="scale(0.015625)"/>
        <path id="DejaVuSans-33" d="M 2597 2516 
Q 3050 2419 3304 2112 
Q 3559 1806 3559 1356 
Q 3559 666 3084 287 
Q 2609 -91 1734 -91 
Q 1441 -91 1130 -33 
Q 819 25 488 141 
L 488 750 
Q 750 597 1062 519 
Q 1375 441 1716 441 
Q 2309 441 2620 675 
Q 2931 909 2931 1356 
Q 2931 1769 2642 2001 
Q 2353 2234 1838 2234 
L 1294 2234 
L 1294 2753 
L 1863 2753 
Q 2328 2753 2575 2939 
Q 2822 3125 2822 3475 
Q 2822 3834 2567 4026 
Q 2313 4219 1838 4219 
Q 1578 4219 1281 4162 
Q 984 4106 628 3988 
L 628 4550 
Q 988 4650 1302 4700 
Q 1616 4750 1894 4750 
Q 2613 4750 3031 4423 
Q 3450 4097 3450 3541 
Q 3450 3153 3228 2886 
Q 3006 2619 2597 2516 
z
" transform="scale(0.015625)"/>
       </defs>
       <use xlink:href="#DejaVuSans-2212"/>
       <use xlink:href="#DejaVuSans-33" x="83.789062"/>
      </g>
     </g>
    </g>
    <g id="ytick_2">
     <g id="line2d_8">
      <g>
       <use xlink:href="#m90765026ab" x="57.6" y="251.608572" style="stroke: #000000; stroke-width: 0.8"/>
      </g>
     </g>
     <g id="text_9">
      <!-- −2 -->
      <g transform="translate(35.857813 255.40779) scale(0.1 -0.1)">
       <use xlink:href="#DejaVuSans-2212"/>
       <use xlink:href="#DejaVuSans-32" x="83.789062"/>
      </g>
     </g>
    </g>
    <g id="ytick_3">
     <g id="line2d_9">
      <g>
       <use xlink:href="#m90765026ab" x="57.6" y="212.928659" style="stroke: #000000; stroke-width: 0.8"/>
      </g>
     </g>
     <g id="text_10">
      <!-- −1 -->
      <g transform="translate(35.857813 216.727878) scale(0.1 -0.1)">
       <use xlink:href="#DejaVuSans-2212"/>
       <use xlink:href="#DejaVuSans-31" x="83.789062"/>
      </g>
     </g>
    </g>
    <g id="ytick_4">
     <g id="line2d_10">
      <g>
       <use xlink:href="#m90765026ab" x="57.6" y="174.248747" style="stroke: #000000; stroke-width: 0.8"/>
      </g>
     </g>
     <g id="text_11">
      <!-- 0 -->
      <g transform="translate(44.2375 178.047966) scale(0.1 -0.1)">
       <use xlink:href="#DejaVuSans-30"/>
      </g>
     </g>
    </g>
    <g id="ytick_5">
     <g id="line2d_11">
      <g>
       <use xlink:href="#m90765026ab" x="57.6" y="135.568835" style="stroke: #000000; stroke-width: 0.8"/>
      </g>
     </g>
     <g id="text_12">
      <!-- 1 -->
      <g transform="translate(44.2375 139.368053) scale(0.1 -0.1)">
       <use xlink:href="#DejaVuSans-31"/>
      </g>
     </g>
    </g>
    <g id="ytick_6">
     <g id="line2d_12">
      <g>
       <use xlink:href="#m90765026ab" x="57.6" y="96.888922" style="stroke: #000000; stroke-width: 0.8"/>
      </g>
     </g>
     <g id="text_13">
      <!-- 2 -->
      <g transform="translate(44.2375 100.688141) scale(0.1 -0.1)">
       <use xlink:href="#DejaVuSans-32"/>
      </g>
     </g>
    </g>
    <g id="ytick_7">
     <g id="line2d_13">
      <g>
       <use xlink:href="#m90765026ab" x="57.6" y="58.20901" style="stroke: #000000; stroke-width: 0.8"/>
      </g>
     </g>
     <g id="text_14">
      <!-- 3 -->
      <g transform="translate(44.2375 62.008229) scale(0.1 -0.1)">
       <use xlink:href="#DejaVuSans-33"/>
      </g>
     </g>
    </g>
    <g id="text_15">
     <!-- E*t -->
     <g transform="translate(29.778125 182.147531) rotate(-90) scale(0.1 -0.1)">
      <defs>
       <path id="DejaVuSans-45" d="M 628 4666 
L 3578 4666 
L 3578 4134 
L 1259 4134 
L 1259 2753 
L 3481 2753 
L 3481 2222 
L 1259 2222 
L 1259 531 
L 3634 531 
L 3634 0 
L 628 0 
L 628 4666 
z
" transform="scale(0.015625)"/>
       <path id="DejaVuSans-2a" d="M 3009 3897 
L 1888 3291 
L 3009 2681 
L 2828 2375 
L 1778 3009 
L 1778 1831 
L 1422 1831 
L 1422 3009 
L 372 2375 
L 191 2681 
L 1313 3291 
L 191 3897 
L 372 4206 
L 1422 3572 
L 1422 4750 
L 1778 4750 
L 1778 3572 
L 2828 4206 
L 3009 3897 
z
" transform="scale(0.015625)"/>
       <path id="DejaVuSans-74" d="M 1172 4494 
L 1172 3500 
L 2356 3500 
L 2356 3053 
L 1172 3053 
L 1172 1153 
Q 1172 725 1289 603 
Q 1406 481 1766 481 
L 2356 481 
L 2356 0 
L 1766 0 
Q 1100 0 847 248 
Q 594 497 594 1153 
L 594 3053 
L 172 3053 
L 172 3500 
L 594 3500 
L 594 4494 
L 1172 4494 
z
" transform="scale(0.015625)"/>
      </defs>
      <use xlink:href="#DejaVuSans-45"/>
      <use xlink:href="#DejaVuSans-2a" x="63.183594"/>
      <use xlink:href="#DejaVuSans-74" x="113.183594"/>
     </g>
    </g>
   </g>
   <g id="line2d_14">
    <path d="M 73.832727 295.488 
L 74.150083 295.345109 
L 74.467438 295.330909 
L 75.73686 293.105624 
L 76.054215 293.092653 
L 76.37157 292.253377 
L 76.688926 292.056923 
L 77.006281 290.30527 
L 77.323636 290.269272 
L 78.275702 289.596366 
L 79.227769 287.962744 
L 79.862479 287.694265 
L 80.49719 285.945444 
L 80.814545 285.832905 
L 81.131901 285.46149 
L 81.449256 285.359233 
L 81.766612 284.895865 
L 82.083967 283.883143 
L 83.036033 283.542861 
L 83.353388 283.141313 
L 83.670744 282.959206 
L 84.305455 281.755185 
L 84.62281 281.599536 
L 85.574876 280.415343 
L 85.892231 279.107474 
L 86.209587 278.325361 
L 86.526942 278.219704 
L 87.479008 277.371442 
L 87.796364 276.528735 
L 88.431074 275.633018 
L 89.38314 274.520669 
L 89.700496 273.580563 
L 90.335207 273.324918 
L 90.652562 273.201824 
L 90.969917 272.88207 
L 91.287273 272.374345 
L 91.921983 271.932159 
L 92.556694 271.181098 
L 93.191405 270.720795 
L 93.826116 270.298342 
L 94.460826 269.552401 
L 95.095537 268.73721 
L 95.412893 268.586422 
L 95.730248 268.2681 
L 96.047603 267.247599 
L 96.682314 266.776667 
L 96.999669 266.256207 
L 97.317025 266.225089 
L 97.63438 265.652877 
L 98.269091 264.989343 
L 98.586446 264.912494 
L 98.903802 264.617071 
L 99.221157 264.149562 
L 99.538512 263.462165 
L 99.855868 263.274535 
L 100.173223 262.880283 
L 101.76 261.916706 
L 102.077355 261.261801 
L 102.394711 260.973232 
L 103.029421 259.914451 
L 104.616198 258.5508 
L 104.933554 257.783105 
L 106.202975 256.577403 
L 106.837686 256.412862 
L 108.424463 254.4695 
L 108.741818 254.328808 
L 109.059174 253.984033 
L 110.328595 253.343071 
L 110.64595 252.66267 
L 110.963306 252.384854 
L 111.280661 252.255164 
L 111.915372 251.629088 
L 112.550083 250.856402 
L 114.77157 248.952495 
L 115.088926 248.603167 
L 115.723636 248.254622 
L 116.675702 247.21323 
L 117.310413 246.696839 
L 118.262479 245.950051 
L 121.118678 244.223511 
L 121.753388 243.439956 
L 122.070744 243.415016 
L 123.340165 242.677902 
L 123.974876 241.909747 
L 125.244298 241.112458 
L 126.196364 240.537046 
L 127.465785 239.450767 
L 127.78314 239.341133 
L 128.417851 238.86336 
L 128.735207 238.710403 
L 129.052562 238.209598 
L 129.687273 237.90797 
L 131.27405 236.694166 
L 131.90876 236.334939 
L 132.860826 235.27347 
L 133.178182 235.172419 
L 133.495537 234.84355 
L 133.812893 234.769916 
L 134.130248 234.394882 
L 134.447603 234.220495 
L 136.03438 232.830154 
L 136.351736 232.780685 
L 136.986446 232.144058 
L 137.303802 231.768526 
L 137.621157 231.738361 
L 138.255868 231.261749 
L 138.573223 231.161456 
L 139.207934 230.747935 
L 140.794711 229.689847 
L 141.112066 229.346795 
L 141.429421 229.296298 
L 141.746777 228.874415 
L 145.555041 226.680748 
L 145.872397 226.660515 
L 146.507107 226.146362 
L 147.776529 225.286592 
L 148.728595 224.822142 
L 149.04595 224.57043 
L 149.363306 224.494077 
L 149.680661 224.238505 
L 149.998017 224.218847 
L 150.950083 223.670264 
L 152.219504 223.022261 
L 153.17157 222.201739 
L 154.123636 221.610943 
L 154.440992 221.252299 
L 154.758347 221.172407 
L 158.566612 218.88009 
L 158.883967 218.747711 
L 159.836033 218.052396 
L 160.788099 217.652404 
L 161.42281 217.161747 
L 162.374876 216.530479 
L 165.54843 214.672088 
L 165.865785 214.597975 
L 166.18314 214.073341 
L 166.500496 214.005299 
L 168.404628 212.794125 
L 169.356694 212.348851 
L 169.67405 212.013475 
L 170.30876 211.703464 
L 170.626116 211.449892 
L 170.943471 211.36751 
L 171.260826 211.094071 
L 171.895537 210.891456 
L 172.212893 210.603621 
L 172.847603 210.28939 
L 173.799669 209.627108 
L 174.117025 209.489621 
L 174.43438 209.16741 
L 174.751736 209.114731 
L 175.386446 208.731278 
L 175.703802 208.69034 
L 176.655868 207.984391 
L 176.973223 207.947628 
L 178.56 207.027146 
L 179.194711 206.739506 
L 179.512066 206.439176 
L 180.781488 205.891641 
L 181.416198 205.440327 
L 182.050909 205.09098 
L 183.637686 204.295843 
L 186.176529 203.052721 
L 187.763306 202.159193 
L 188.398017 201.926298 
L 188.715372 201.641184 
L 189.667438 201.155141 
L 191.57157 200.07096 
L 192.206281 199.753217 
L 193.158347 199.170617 
L 193.793058 198.879754 
L 195.379835 198.127859 
L 195.69719 197.785223 
L 196.331901 197.609288 
L 196.966612 197.241687 
L 197.283967 197.150278 
L 197.918678 196.81942 
L 198.236033 196.749926 
L 198.870744 196.316947 
L 199.82281 195.814782 
L 200.140165 195.76282 
L 200.457521 195.370403 
L 202.044298 194.433256 
L 202.996364 194.079258 
L 203.631074 193.609857 
L 204.58314 193.270906 
L 204.900496 193.194888 
L 205.217851 192.809387 
L 206.487273 192.455789 
L 207.121983 191.890097 
L 208.391405 191.364036 
L 209.343471 190.979864 
L 209.660826 190.662513 
L 209.978182 190.52001 
L 210.295537 190.25123 
L 210.612893 190.199261 
L 211.247603 189.843351 
L 214.103802 188.421814 
L 216.96 186.690315 
L 217.594711 186.45636 
L 218.546777 185.989065 
L 219.181488 185.732682 
L 219.498843 185.394646 
L 222.355041 184.233201 
L 222.672397 184.184683 
L 223.624463 183.692129 
L 226.798017 181.985825 
L 227.115372 181.731273 
L 227.750083 181.487919 
L 229.019504 180.868025 
L 229.97157 180.196442 
L 230.606281 180.02154 
L 231.240992 179.673574 
L 231.875702 179.394674 
L 232.193058 179.203537 
L 232.510413 179.143148 
L 233.462479 178.641909 
L 237.270744 176.789897 
L 237.588099 176.704667 
L 238.857521 175.862307 
L 239.809587 175.357448 
L 240.444298 175.001904 
L 241.396364 174.688249 
L 241.713719 174.385753 
L 245.204628 172.756029 
L 245.521983 172.534201 
L 246.47405 172.32162 
L 247.10876 172.006995 
L 247.426116 171.719197 
L 247.743471 171.6643 
L 248.695537 171.037835 
L 249.330248 170.828398 
L 249.647603 170.526164 
L 249.964959 170.498011 
L 250.917025 169.80387 
L 251.551736 169.549542 
L 251.869091 169.384165 
L 252.503802 168.842827 
L 254.090579 168.028922 
L 254.407934 167.784727 
L 255.042645 167.530681 
L 255.36 167.318716 
L 255.677355 167.243881 
L 257.264132 166.380989 
L 257.581488 166.2718 
L 258.216198 165.933966 
L 258.533554 165.873724 
L 258.850909 165.572387 
L 259.48562 165.427333 
L 260.120331 165.079198 
L 264.563306 162.902256 
L 265.198017 162.685278 
L 265.515372 162.36343 
L 265.832727 162.25742 
L 266.467438 161.877586 
L 268.054215 161.214999 
L 269.323636 160.469618 
L 269.958347 160.189594 
L 270.275702 159.788265 
L 270.910413 159.55314 
L 273.131901 158.603976 
L 273.766612 158.208356 
L 274.718678 157.678797 
L 275.036033 157.604505 
L 275.988099 156.979492 
L 276.940165 156.470186 
L 277.892231 155.949575 
L 278.844298 155.567444 
L 279.796364 154.735598 
L 280.431074 154.326913 
L 281.38314 153.743026 
L 282.017851 153.591503 
L 282.335207 153.351768 
L 282.652562 153.307664 
L 284.239339 152.018294 
L 284.87405 151.623109 
L 285.191405 151.512652 
L 285.826116 151.037804 
L 286.778182 150.599284 
L 287.095537 150.449676 
L 287.730248 149.90188 
L 289.63438 148.856182 
L 289.951736 148.796772 
L 292.490579 147.359733 
L 293.125289 147.034719 
L 293.442645 146.771544 
L 294.077355 146.531408 
L 301.693884 142.342413 
L 302.01124 142.057582 
L 302.328595 141.986863 
L 303.915372 141.089648 
L 304.232727 140.963208 
L 305.502149 139.938072 
L 305.819504 139.803643 
L 306.13686 139.525562 
L 306.77157 139.293022 
L 307.406281 138.952329 
L 308.358347 138.631651 
L 308.675702 138.298219 
L 309.310413 137.970437 
L 309.627769 137.763277 
L 309.945124 137.700318 
L 310.579835 137.25309 
L 312.483967 136.102993 
L 312.801322 135.736877 
L 317.244298 133.034794 
L 317.561653 132.673594 
L 317.879008 132.604464 
L 318.513719 132.212676 
L 318.831074 132.149122 
L 322.639339 129.54728 
L 322.956694 129.144033 
L 323.27405 129.096664 
L 324.226116 128.345188 
L 326.447603 126.715066 
L 327.082314 126.569859 
L 327.399669 126.425266 
L 328.03438 125.812694 
L 328.351736 125.755758 
L 330.255868 124.306542 
L 330.890579 123.883668 
L 331.525289 123.417492 
L 332.794711 122.423797 
L 334.064132 121.787081 
L 334.381488 121.253257 
L 336.920331 119.554499 
L 337.237686 119.1881 
L 337.555041 119.066987 
L 337.872397 118.802666 
L 338.189752 118.706185 
L 338.824463 118.333926 
L 339.459174 118.063794 
L 340.093884 117.430358 
L 340.41124 117.365451 
L 342.632727 115.758554 
L 343.902149 115.0841 
L 344.854215 114.012735 
L 346.123636 113.100682 
L 348.027769 111.200864 
L 348.345124 110.811162 
L 348.662479 110.649253 
L 348.979835 110.244627 
L 349.29719 110.107847 
L 349.931901 109.45216 
L 351.201322 108.917248 
L 351.836033 108.028907 
L 352.153388 107.7538 
L 352.470744 107.705788 
L 353.105455 106.821876 
L 354.057521 106.201061 
L 354.374876 105.844471 
L 354.692231 105.777678 
L 355.009587 105.262035 
L 355.326942 104.993764 
L 355.644298 104.293523 
L 355.961653 104.130111 
L 357.231074 102.898175 
L 357.54843 102.791714 
L 357.865785 102.264987 
L 358.18314 102.043462 
L 358.500496 101.611379 
L 359.135207 101.160524 
L 359.452562 100.805036 
L 360.087273 100.487872 
L 360.404628 99.948714 
L 361.039339 99.647191 
L 361.356694 99.27715 
L 361.67405 99.210497 
L 361.991405 98.822178 
L 362.30876 98.703012 
L 362.943471 98.171371 
L 364.847603 96.796518 
L 365.482314 95.939579 
L 366.117025 95.364156 
L 366.43438 95.08469 
L 366.751736 94.200171 
L 367.069091 94.036584 
L 370.56 89.967031 
L 370.877355 89.915932 
L 371.512066 89.411277 
L 371.829421 88.616997 
L 372.146777 88.471686 
L 372.464132 88.156099 
L 373.416198 86.816431 
L 373.733554 86.747162 
L 374.050909 86.488704 
L 374.68562 85.375482 
L 376.272397 83.687194 
L 376.589752 82.813899 
L 377.224463 81.995615 
L 377.541818 81.749775 
L 378.493884 80.75062 
L 380.080661 79.144482 
L 380.715372 77.904341 
L 381.032727 77.747421 
L 381.350083 77.298762 
L 381.667438 77.140428 
L 381.984793 76.767382 
L 382.302149 76.143936 
L 382.619504 75.779205 
L 382.93686 75.048963 
L 383.254215 74.844312 
L 384.523636 72.848019 
L 384.840992 72.635438 
L 385.158347 72.067703 
L 385.475702 71.891374 
L 385.793058 71.33254 
L 386.110413 70.135634 
L 387.062479 69.007581 
L 387.379835 68.98762 
L 387.69719 68.49246 
L 388.014545 68.213677 
L 388.331901 67.780038 
L 388.649256 67.545299 
L 389.601322 66.175282 
L 389.918678 66.160484 
L 390.870744 63.714145 
L 391.188099 63.649044 
L 391.505455 62.927486 
L 391.82281 62.849484 
L 392.140165 62.179664 
L 392.457521 62.078088 
L 392.774876 61.693911 
L 393.092231 61.134968 
L 393.409587 60.241948 
L 394.044298 59.925343 
L 394.996364 58.591421 
L 395.313719 58.319263 
L 395.631074 57.780895 
L 395.94843 57.724187 
L 396.900496 56.145243 
L 397.217851 56.052961 
L 397.535207 55.082556 
L 398.169917 54.58208 
L 398.487273 53.849408 
L 398.487273 53.849408 
" clip-path="url(#p927db49ed8)" style="fill: none; stroke: #1f77b4; stroke-width: 1.5; stroke-linecap: square"/>
   </g>
   <g id="line2d_15">
    <path d="M 73.832727 294.929494 
L 74.467438 294.929494 
L 74.784793 293.323424 
L 75.102149 289.025428 
L 75.419504 279.058548 
L 75.73686 278.44705 
L 76.054215 278.44705 
L 76.37157 277.54389 
L 76.688926 277.54389 
L 77.006281 276.904849 
L 78.593058 276.904849 
L 78.910413 271.281945 
L 79.227769 271.281945 
L 79.545124 269.246473 
L 79.862479 267.988928 
L 80.179835 267.988928 
L 80.49719 261.771215 
L 80.814545 259.083896 
L 81.131901 258.844488 
L 82.083967 258.794165 
L 82.401322 257.061997 
L 86.844298 256.963651 
L 87.161653 256.015206 
L 87.479008 251.509681 
L 87.796364 250.513675 
L 88.113719 248.953911 
L 89.700496 248.953911 
L 90.017851 246.960994 
L 90.652562 246.960994 
L 90.969917 244.645925 
L 91.287273 244.645925 
L 91.604628 243.439956 
L 91.921983 240.338015 
L 99.221157 240.338015 
L 99.538512 238.489675 
L 99.855868 238.489675 
L 100.173223 238.052463 
L 101.76 238.052463 
L 102.077355 236.136607 
L 103.664132 236.136607 
L 103.981488 235.70446 
L 104.298843 234.957442 
L 104.933554 234.957442 
L 105.250909 232.330104 
L 105.568264 232.330104 
L 105.88562 232.197692 
L 106.202975 232.197692 
L 106.520331 226.268221 
L 107.155041 225.682348 
L 107.472397 225.682348 
L 107.789752 224.316962 
L 109.376529 224.316962 
L 109.693884 221.32039 
L 110.01124 221.32039 
L 110.328595 218.010118 
L 129.369917 218.009981 
L 129.687273 216.128867 
L 130.004628 215.044428 
L 130.321983 214.359661 
L 130.956694 214.359661 
L 131.27405 214.246863 
L 131.591405 212.708026 
L 131.90876 212.708026 
L 132.226116 212.356453 
L 132.860826 212.356453 
L 133.178182 209.394085 
L 133.495537 209.394085 
L 133.812893 208.773768 
L 135.399669 208.773768 
L 135.717025 206.247518 
L 136.03438 205.906867 
L 136.351736 205.336487 
L 136.669091 205.192677 
L 163.009587 205.192677 
L 163.326942 202.570753 
L 167.135207 202.570753 
L 167.452562 202.091584 
L 167.769917 202.091584 
L 168.087273 198.846613 
L 168.404628 198.846613 
L 168.721983 197.980471 
L 169.356694 197.980471 
L 169.67405 197.421535 
L 169.991405 196.082785 
L 171.578182 196.082785 
L 172.212893 195.13887 
L 172.530248 195.13887 
L 172.847603 194.738418 
L 180.146777 194.738418 
L 180.464132 194.049138 
L 180.781488 194.049138 
L 181.098843 193.373032 
L 182.68562 193.373032 
L 183.320331 187.066051 
L 185.541818 187.009948 
L 185.859174 186.643512 
L 186.493884 186.643512 
L 186.81124 186.09002 
L 187.128595 184.703006 
L 187.44595 184.703006 
L 187.763306 183.763596 
L 188.080661 183.763596 
L 188.398017 179.841805 
L 188.715372 174.248747 
L 283.604628 174.248747 
L 284.239339 164.733898 
L 284.556694 164.733898 
L 284.87405 163.794488 
L 285.191405 163.794488 
L 285.50876 162.407474 
L 285.826116 161.853982 
L 286.460826 161.853982 
L 286.778182 161.487546 
L 288.999669 161.431443 
L 289.63438 155.124462 
L 291.221157 155.124462 
L 291.538512 154.448356 
L 291.855868 154.448356 
L 292.173223 153.759076 
L 299.472397 153.759076 
L 299.789752 153.358623 
L 300.107107 153.358623 
L 300.741818 152.414709 
L 302.328595 152.414709 
L 302.64595 151.075959 
L 302.963306 150.517023 
L 303.598017 150.517023 
L 303.915372 149.65088 
L 304.232727 149.65088 
L 304.550083 146.40591 
L 304.867438 146.40591 
L 305.184793 145.92674 
L 308.993058 145.92674 
L 309.310413 143.304817 
L 335.650909 143.304817 
L 335.968264 143.161007 
L 336.28562 142.590627 
L 336.602975 142.249976 
L 336.920331 139.723726 
L 338.507107 139.723726 
L 338.824463 139.103408 
L 339.141818 139.103408 
L 339.459174 136.141041 
L 340.093884 136.141041 
L 340.41124 135.789468 
L 340.728595 135.789468 
L 341.04595 134.25063 
L 341.680661 134.137833 
L 341.998017 134.137833 
L 342.315372 133.453066 
L 342.632727 132.368627 
L 342.950083 130.487513 
L 361.991405 130.487376 
L 362.30876 127.177104 
L 362.626116 127.177104 
L 362.943471 124.180532 
L 364.530248 124.180532 
L 364.847603 122.815146 
L 365.164959 122.815146 
L 365.799669 122.229272 
L 366.117025 116.299802 
L 366.43438 116.299802 
L 366.751736 116.16739 
L 367.069091 116.16739 
L 367.386446 113.540052 
L 368.021157 113.540052 
L 368.338512 112.793033 
L 368.655868 112.360887 
L 370.242645 112.360887 
L 370.56 110.445031 
L 372.146777 110.445031 
L 372.464132 110.007819 
L 372.781488 110.007819 
L 373.098843 108.159478 
L 380.398017 108.159478 
L 380.715372 105.057538 
L 381.032727 103.851569 
L 381.350083 103.851569 
L 381.667438 101.536499 
L 382.302149 101.536499 
L 382.619504 99.543583 
L 384.206281 99.543583 
L 384.523636 97.983819 
L 384.840992 96.987813 
L 385.158347 92.482288 
L 385.475702 91.533843 
L 389.918678 91.435496 
L 390.236033 89.703329 
L 391.505455 89.413597 
L 391.82281 86.726279 
L 392.140165 80.508565 
L 392.457521 80.508565 
L 392.774876 79.251021 
L 393.092231 77.215549 
L 393.409587 77.215549 
L 393.726942 71.592645 
L 395.313719 71.592645 
L 395.631074 70.953604 
L 395.94843 70.953604 
L 396.265785 70.050443 
L 396.58314 70.050443 
L 396.900496 69.438946 
L 397.217851 59.472066 
L 397.535207 55.17407 
L 397.852562 53.568 
L 398.487273 53.568 
L 398.487273 53.568 
" clip-path="url(#p927db49ed8)" style="fill: none; stroke: #ff7f0e; stroke-width: 1.5; stroke-linecap: square"/>
   </g>
   <g id="patch_3">
    <path d="M 57.6 307.584 
L 57.6 41.472 
" style="fill: none; stroke: #000000; stroke-width: 0.8; stroke-linejoin: miter; stroke-linecap: square"/>
   </g>
   <g id="patch_4">
    <path d="M 414.72 307.584 
L 414.72 41.472 
" style="fill: none; stroke: #000000; stroke-width: 0.8; stroke-linejoin: miter; stroke-linecap: square"/>
   </g>
   <g id="patch_5">
    <path d="M 57.6 307.584 
L 414.72 307.584 
" style="fill: none; stroke: #000000; stroke-width: 0.8; stroke-linejoin: miter; stroke-linecap: square"/>
   </g>
   <g id="patch_6">
    <path d="M 57.6 41.472 
L 414.72 41.472 
" style="fill: none; stroke: #000000; stroke-width: 0.8; stroke-linejoin: miter; stroke-linecap: square"/>
   </g>
   <g id="legend_1">
    <g id="patch_7">
     <path d="M 64.6 78.82825 
L 129.342187 78.82825 
Q 131.342187 78.82825 131.342187 76.82825 
L 131.342187 48.472 
Q 131.342187 46.472 129.342187 46.472 
L 64.6 46.472 
Q 62.6 46.472 62.6 48.472 
L 62.6 76.82825 
Q 62.6 78.82825 64.6 78.82825 
z
" style="fill: #ffffff; opacity: 0.8; stroke: #cccccc; stroke-linejoin: miter"/>
    </g>
    <g id="line2d_16">
     <path d="M 66.6 54.570437 
L 76.6 54.570437 
L 86.6 54.570437 
" style="fill: none; stroke: #1f77b4; stroke-width: 1.5; stroke-linecap: square"/>
    </g>
    <g id="text_16">
     <!-- qc -->
     <g transform="translate(94.6 58.070437) scale(0.1 -0.1)">
      <defs>
       <path id="DejaVuSans-71" d="M 947 1747 
Q 947 1113 1208 752 
Q 1469 391 1925 391 
Q 2381 391 2643 752 
Q 2906 1113 2906 1747 
Q 2906 2381 2643 2742 
Q 2381 3103 1925 3103 
Q 1469 3103 1208 2742 
Q 947 2381 947 1747 
z
M 2906 525 
Q 2725 213 2448 61 
Q 2172 -91 1784 -91 
Q 1150 -91 751 415 
Q 353 922 353 1747 
Q 353 2572 751 3078 
Q 1150 3584 1784 3584 
Q 2172 3584 2448 3432 
Q 2725 3281 2906 2969 
L 2906 3500 
L 3481 3500 
L 3481 -1331 
L 2906 -1331 
L 2906 525 
z
" transform="scale(0.015625)"/>
       <path id="DejaVuSans-63" d="M 3122 3366 
L 3122 2828 
Q 2878 2963 2633 3030 
Q 2388 3097 2138 3097 
Q 1578 3097 1268 2742 
Q 959 2388 959 1747 
Q 959 1106 1268 751 
Q 1578 397 2138 397 
Q 2388 397 2633 464 
Q 2878 531 3122 666 
L 3122 134 
Q 2881 22 2623 -34 
Q 2366 -91 2075 -91 
Q 1284 -91 818 406 
Q 353 903 353 1747 
Q 353 2603 823 3093 
Q 1294 3584 2113 3584 
Q 2378 3584 2631 3529 
Q 2884 3475 3122 3366 
z
" transform="scale(0.015625)"/>
      </defs>
      <use xlink:href="#DejaVuSans-71"/>
      <use xlink:href="#DejaVuSans-63" x="63.476562"/>
     </g>
    </g>
    <g id="line2d_17">
     <path d="M 66.6 69.248562 
L 76.6 69.248562 
L 86.6 69.248562 
" style="fill: none; stroke: #ff7f0e; stroke-width: 1.5; stroke-linecap: square"/>
    </g>
    <g id="text_17">
     <!-- Trotter -->
     <g transform="translate(94.6 72.748562) scale(0.1 -0.1)">
      <defs>
       <path id="DejaVuSans-54" d="M -19 4666 
L 3928 4666 
L 3928 4134 
L 2272 4134 
L 2272 0 
L 1638 0 
L 1638 4134 
L -19 4134 
L -19 4666 
z
" transform="scale(0.015625)"/>
       <path id="DejaVuSans-72" d="M 2631 2963 
Q 2534 3019 2420 3045 
Q 2306 3072 2169 3072 
Q 1681 3072 1420 2755 
Q 1159 2438 1159 1844 
L 1159 0 
L 581 0 
L 581 3500 
L 1159 3500 
L 1159 2956 
Q 1341 3275 1631 3429 
Q 1922 3584 2338 3584 
Q 2397 3584 2469 3576 
Q 2541 3569 2628 3553 
L 2631 2963 
z
" transform="scale(0.015625)"/>
       <path id="DejaVuSans-6f" d="M 1959 3097 
Q 1497 3097 1228 2736 
Q 959 2375 959 1747 
Q 959 1119 1226 758 
Q 1494 397 1959 397 
Q 2419 397 2687 759 
Q 2956 1122 2956 1747 
Q 2956 2369 2687 2733 
Q 2419 3097 1959 3097 
z
M 1959 3584 
Q 2709 3584 3137 3096 
Q 3566 2609 3566 1747 
Q 3566 888 3137 398 
Q 2709 -91 1959 -91 
Q 1206 -91 779 398 
Q 353 888 353 1747 
Q 353 2609 779 3096 
Q 1206 3584 1959 3584 
z
" transform="scale(0.015625)"/>
       <path id="DejaVuSans-65" d="M 3597 1894 
L 3597 1613 
L 953 1613 
Q 991 1019 1311 708 
Q 1631 397 2203 397 
Q 2534 397 2845 478 
Q 3156 559 3463 722 
L 3463 178 
Q 3153 47 2828 -22 
Q 2503 -91 2169 -91 
Q 1331 -91 842 396 
Q 353 884 353 1716 
Q 353 2575 817 3079 
Q 1281 3584 2069 3584 
Q 2775 3584 3186 3129 
Q 3597 2675 3597 1894 
z
M 3022 2063 
Q 3016 2534 2758 2815 
Q 2500 3097 2075 3097 
Q 1594 3097 1305 2825 
Q 1016 2553 972 2059 
L 3022 2063 
z
" transform="scale(0.015625)"/>
      </defs>
      <use xlink:href="#DejaVuSans-54"/>
      <use xlink:href="#DejaVuSans-72" x="46.333984"/>
      <use xlink:href="#DejaVuSans-6f" x="85.197266"/>
      <use xlink:href="#DejaVuSans-74" x="146.378906"/>
      <use xlink:href="#DejaVuSans-74" x="185.587891"/>
      <use xlink:href="#DejaVuSans-65" x="224.796875"/>
      <use xlink:href="#DejaVuSans-72" x="286.320312"/>
     </g>
    </g>
   </g>
  </g>
 </g>
 <defs>
  <clipPath id="p927db49ed8">
   <rect x="57.6" y="41.472" width="357.12" height="266.112"/>
  </clipPath>
 </defs>
</svg>
