<?xml version="1.0" encoding="utf-8" standalone="no"?>
<!DOCTYPE svg PUBLIC "-//W3C//DTD SVG 1.1//EN"
  "http://www.w3.org/Graphics/SVG/1.1/DTD/svg11.dtd">
<svg xmlns:xlink="http://www.w3.org/1999/xlink" width="460.8pt" height="345.6pt" viewBox="0 0 460.8 345.6" xmlns="http://www.w3.org/2000/svg" version="1.1">
 <metadata>
  <rdf:RDF xmlns:dc="http://purl.org/dc/elements/1.1/" xmlns:cc="http://creativecommons.org/ns#" xmlns:rdf="http://www.w3.org/1999/02/22-rdf-syntax-ns#">
   <cc:Work>
    <dc:type rdf:resource="http://purl.org/dc/dcmitype/StillImage"/>
    <dc:date>2024-07-05T10:47:23.385453</dc:date>
    <dc:format>image/svg+xml</dc:format>
    <dc:creator>
     <cc:Agent>
      <dc:title>Matplotlib v3.7.1, https://matplotlib.org/</dc:title>
     </cc:Agent>
    </dc:creator>
   </cc:Work>
  </rdf:RDF>
 </metadata>
 <defs>
  <style type="text/css">*{stroke-linejoin: round; stroke-linecap: butt}</style>
 </defs>
 <g id="figure_1">
  <g id="patch_1">
   <path d="M 0 345.6 
L 460.8 345.6 
L 460.8 0 
L 0 0 
z
" style="fill: #ffffff"/>
  </g>
  <g id="axes_1">
   <g id="patch_2">
    <path d="M 57.6 307.584 
L 414.72 307.584 
L 414.72 41.472 
L 57.6 41.472 
z
" style="fill: #ffffff"/>
   </g>
   <g id="matplotlib.axis_1">
    <g id="xtick_1">
     <g id="line2d_1">
      <defs>
       <path id="md1f72bd4b7" d="M 0 0 
L 0 3.5 
" style="stroke: #000000; stroke-width: 0.8"/>
      </defs>
      <g>
       <use xlink:href="#md1f72bd4b7" x="73.832727" y="307.584" style="stroke: #000000; stroke-width: 0.8"/>
      </g>
     </g>
     <g id="text_1">
      <!-- 0 -->
      <g transform="translate(70.651477 322.182437) scale(0.1 -0.1)">
       <defs>
        <path id="DejaVuSans-30" d="M 2034 4250 
Q 1547 4250 1301 3770 
Q 1056 3291 1056 2328 
Q 1056 1369 1301 889 
Q 1547 409 2034 409 
Q 2525 409 2770 889 
Q 3016 1369 3016 2328 
Q 3016 3291 2770 3770 
Q 2525 4250 2034 4250 
z
M 2034 4750 
Q 2819 4750 3233 4129 
Q 3647 3509 3647 2328 
Q 3647 1150 3233 529 
Q 2819 -91 2034 -91 
Q 1250 -91 836 529 
Q 422 1150 422 2328 
Q 422 3509 836 4129 
Q 1250 4750 2034 4750 
z
" transform="scale(0.015625)"/>
       </defs>
       <use xlink:href="#DejaVuSans-30"/>
      </g>
     </g>
    </g>
    <g id="xtick_2">
     <g id="line2d_2">
      <g>
       <use xlink:href="#md1f72bd4b7" x="137.303802" y="307.584" style="stroke: #000000; stroke-width: 0.8"/>
      </g>
     </g>
     <g id="text_2">
      <!-- 200 -->
      <g transform="translate(127.760052 322.182437) scale(0.1 -0.1)">
       <defs>
        <path id="DejaVuSans-32" d="M 1228 531 
L 3431 531 
L 3431 0 
L 469 0 
L 469 531 
Q 828 903 1448 1529 
Q 2069 2156 2228 2338 
Q 2531 2678 2651 2914 
Q 2772 3150 2772 3378 
Q 2772 3750 2511 3984 
Q 2250 4219 1831 4219 
Q 1534 4219 1204 4116 
Q 875 4013 500 3803 
L 500 4441 
Q 881 4594 1212 4672 
Q 1544 4750 1819 4750 
Q 2544 4750 2975 4387 
Q 3406 4025 3406 3419 
Q 3406 3131 3298 2873 
Q 3191 2616 2906 2266 
Q 2828 2175 2409 1742 
Q 1991 1309 1228 531 
z
" transform="scale(0.015625)"/>
       </defs>
       <use xlink:href="#DejaVuSans-32"/>
       <use xlink:href="#DejaVuSans-30" x="63.623047"/>
       <use xlink:href="#DejaVuSans-30" x="127.246094"/>
      </g>
     </g>
    </g>
    <g id="xtick_3">
     <g id="line2d_3">
      <g>
       <use xlink:href="#md1f72bd4b7" x="200.774876" y="307.584" style="stroke: #000000; stroke-width: 0.8"/>
      </g>
     </g>
     <g id="text_3">
      <!-- 400 -->
      <g transform="translate(191.231126 322.182437) scale(0.1 -0.1)">
       <defs>
        <path id="DejaVuSans-34" d="M 2419 4116 
L 825 1625 
L 2419 1625 
L 2419 4116 
z
M 2253 4666 
L 3047 4666 
L 3047 1625 
L 3713 1625 
L 3713 1100 
L 3047 1100 
L 3047 0 
L 2419 0 
L 2419 1100 
L 313 1100 
L 313 1709 
L 2253 4666 
z
" transform="scale(0.015625)"/>
       </defs>
       <use xlink:href="#DejaVuSans-34"/>
       <use xlink:href="#DejaVuSans-30" x="63.623047"/>
       <use xlink:href="#DejaVuSans-30" x="127.246094"/>
      </g>
     </g>
    </g>
    <g id="xtick_4">
     <g id="line2d_4">
      <g>
       <use xlink:href="#md1f72bd4b7" x="264.24595" y="307.584" style="stroke: #000000; stroke-width: 0.8"/>
      </g>
     </g>
     <g id="text_4">
      <!-- 600 -->
      <g transform="translate(254.7022 322.182437) scale(0.1 -0.1)">
       <defs>
        <path id="DejaVuSans-36" d="M 2113 2584 
Q 1688 2584 1439 2293 
Q 1191 2003 1191 1497 
Q 1191 994 1439 701 
Q 1688 409 2113 409 
Q 2538 409 2786 701 
Q 3034 994 3034 1497 
Q 3034 2003 2786 2293 
Q 2538 2584 2113 2584 
z
M 3366 4563 
L 3366 3988 
Q 3128 4100 2886 4159 
Q 2644 4219 2406 4219 
Q 1781 4219 1451 3797 
Q 1122 3375 1075 2522 
Q 1259 2794 1537 2939 
Q 1816 3084 2150 3084 
Q 2853 3084 3261 2657 
Q 3669 2231 3669 1497 
Q 3669 778 3244 343 
Q 2819 -91 2113 -91 
Q 1303 -91 875 529 
Q 447 1150 447 2328 
Q 447 3434 972 4092 
Q 1497 4750 2381 4750 
Q 2619 4750 2861 4703 
Q 3103 4656 3366 4563 
z
" transform="scale(0.015625)"/>
       </defs>
       <use xlink:href="#DejaVuSans-36"/>
       <use xlink:href="#DejaVuSans-30" x="63.623047"/>
       <use xlink:href="#DejaVuSans-30" x="127.246094"/>
      </g>
     </g>
    </g>
    <g id="xtick_5">
     <g id="line2d_5">
      <g>
       <use xlink:href="#md1f72bd4b7" x="327.717025" y="307.584" style="stroke: #000000; stroke-width: 0.8"/>
      </g>
     </g>
     <g id="text_5">
      <!-- 800 -->
      <g transform="translate(318.173275 322.182437) scale(0.1 -0.1)">
       <defs>
        <path id="DejaVuSans-38" d="M 2034 2216 
Q 1584 2216 1326 1975 
Q 1069 1734 1069 1313 
Q 1069 891 1326 650 
Q 1584 409 2034 409 
Q 2484 409 2743 651 
Q 3003 894 3003 1313 
Q 3003 1734 2745 1975 
Q 2488 2216 2034 2216 
z
M 1403 2484 
Q 997 2584 770 2862 
Q 544 3141 544 3541 
Q 544 4100 942 4425 
Q 1341 4750 2034 4750 
Q 2731 4750 3128 4425 
Q 3525 4100 3525 3541 
Q 3525 3141 3298 2862 
Q 3072 2584 2669 2484 
Q 3125 2378 3379 2068 
Q 3634 1759 3634 1313 
Q 3634 634 3220 271 
Q 2806 -91 2034 -91 
Q 1263 -91 848 271 
Q 434 634 434 1313 
Q 434 1759 690 2068 
Q 947 2378 1403 2484 
z
M 1172 3481 
Q 1172 3119 1398 2916 
Q 1625 2713 2034 2713 
Q 2441 2713 2670 2916 
Q 2900 3119 2900 3481 
Q 2900 3844 2670 4047 
Q 2441 4250 2034 4250 
Q 1625 4250 1398 4047 
Q 1172 3844 1172 3481 
z
" transform="scale(0.015625)"/>
       </defs>
       <use xlink:href="#DejaVuSans-38"/>
       <use xlink:href="#DejaVuSans-30" x="63.623047"/>
       <use xlink:href="#DejaVuSans-30" x="127.246094"/>
      </g>
     </g>
    </g>
    <g id="xtick_6">
     <g id="line2d_6">
      <g>
       <use xlink:href="#md1f72bd4b7" x="391.188099" y="307.584" style="stroke: #000000; stroke-width: 0.8"/>
      </g>
     </g>
     <g id="text_6">
      <!-- 1000 -->
      <g transform="translate(378.463099 322.182437) scale(0.1 -0.1)">
       <defs>
        <path id="DejaVuSans-31" d="M 794 531 
L 1825 531 
L 1825 4091 
L 703 3866 
L 703 4441 
L 1819 4666 
L 2450 4666 
L 2450 531 
L 3481 531 
L 3481 0 
L 794 0 
L 794 531 
z
" transform="scale(0.015625)"/>
       </defs>
       <use xlink:href="#DejaVuSans-31"/>
       <use xlink:href="#DejaVuSans-30" x="63.623047"/>
       <use xlink:href="#DejaVuSans-30" x="127.246094"/>
       <use xlink:href="#DejaVuSans-30" x="190.869141"/>
      </g>
     </g>
    </g>
    <g id="text_7">
     <!-- n -->
     <g transform="translate(232.99125 335.860562) scale(0.1 -0.1)">
      <defs>
       <path id="DejaVuSans-6e" d="M 3513 2113 
L 3513 0 
L 2938 0 
L 2938 2094 
Q 2938 2591 2744 2837 
Q 2550 3084 2163 3084 
Q 1697 3084 1428 2787 
Q 1159 2491 1159 1978 
L 1159 0 
L 581 0 
L 581 3500 
L 1159 3500 
L 1159 2956 
Q 1366 3272 1645 3428 
Q 1925 3584 2291 3584 
Q 2894 3584 3203 3211 
Q 3513 2838 3513 2113 
z
" transform="scale(0.015625)"/>
      </defs>
      <use xlink:href="#DejaVuSans-6e"/>
     </g>
    </g>
   </g>
   <g id="matplotlib.axis_2">
    <g id="ytick_1">
     <g id="line2d_7">
      <defs>
       <path id="m8cd19a0ecc" d="M 0 0 
L -3.5 0 
" style="stroke: #000000; stroke-width: 0.8"/>
      </defs>
      <g>
       <use xlink:href="#m8cd19a0ecc" x="57.6" y="277.029109" style="stroke: #000000; stroke-width: 0.8"/>
      </g>
     </g>
     <g id="text_8">
      <!-- −0.6 -->
      <g transform="translate(26.317187 280.828328) scale(0.1 -0.1)">
       <defs>
        <path id="DejaVuSans-2212" d="M 678 2272 
L 4684 2272 
L 4684 1741 
L 678 1741 
L 678 2272 
z
" transform="scale(0.015625)"/>
        <path id="DejaVuSans-2e" d="M 684 794 
L 1344 794 
L 1344 0 
L 684 0 
L 684 794 
z
" transform="scale(0.015625)"/>
       </defs>
       <use xlink:href="#DejaVuSans-2212"/>
       <use xlink:href="#DejaVuSans-30" x="83.789062"/>
       <use xlink:href="#DejaVuSans-2e" x="147.412109"/>
       <use xlink:href="#DejaVuSans-36" x="179.199219"/>
      </g>
     </g>
    </g>
    <g id="ytick_2">
     <g id="line2d_8">
      <g>
       <use xlink:href="#m8cd19a0ecc" x="57.6" y="241.335729" style="stroke: #000000; stroke-width: 0.8"/>
      </g>
     </g>
     <g id="text_9">
      <!-- −0.4 -->
      <g transform="translate(26.317187 245.134948) scale(0.1 -0.1)">
       <use xlink:href="#DejaVuSans-2212"/>
       <use xlink:href="#DejaVuSans-30" x="83.789062"/>
       <use xlink:href="#DejaVuSans-2e" x="147.412109"/>
       <use xlink:href="#DejaVuSans-34" x="179.199219"/>
      </g>
     </g>
    </g>
    <g id="ytick_3">
     <g id="line2d_9">
      <g>
       <use xlink:href="#m8cd19a0ecc" x="57.6" y="205.642349" style="stroke: #000000; stroke-width: 0.8"/>
      </g>
     </g>
     <g id="text_10">
      <!-- −0.2 -->
      <g transform="translate(26.317187 209.441568) scale(0.1 -0.1)">
       <use xlink:href="#DejaVuSans-2212"/>
       <use xlink:href="#DejaVuSans-30" x="83.789062"/>
       <use xlink:href="#DejaVuSans-2e" x="147.412109"/>
       <use xlink:href="#DejaVuSans-32" x="179.199219"/>
      </g>
     </g>
    </g>
    <g id="ytick_4">
     <g id="line2d_10">
      <g>
       <use xlink:href="#m8cd19a0ecc" x="57.6" y="169.948969" style="stroke: #000000; stroke-width: 0.8"/>
      </g>
     </g>
     <g id="text_11">
      <!-- 0.0 -->
      <g transform="translate(34.696875 173.748188) scale(0.1 -0.1)">
       <use xlink:href="#DejaVuSans-30"/>
       <use xlink:href="#DejaVuSans-2e" x="63.623047"/>
       <use xlink:href="#DejaVuSans-30" x="95.410156"/>
      </g>
     </g>
    </g>
    <g id="ytick_5">
     <g id="line2d_11">
      <g>
       <use xlink:href="#m8cd19a0ecc" x="57.6" y="134.255589" style="stroke: #000000; stroke-width: 0.8"/>
      </g>
     </g>
     <g id="text_12">
      <!-- 0.2 -->
      <g transform="translate(34.696875 138.054808) scale(0.1 -0.1)">
       <use xlink:href="#DejaVuSans-30"/>
       <use xlink:href="#DejaVuSans-2e" x="63.623047"/>
       <use xlink:href="#DejaVuSans-32" x="95.410156"/>
      </g>
     </g>
    </g>
    <g id="ytick_6">
     <g id="line2d_12">
      <g>
       <use xlink:href="#m8cd19a0ecc" x="57.6" y="98.56221" style="stroke: #000000; stroke-width: 0.8"/>
      </g>
     </g>
     <g id="text_13">
      <!-- 0.4 -->
      <g transform="translate(34.696875 102.361428) scale(0.1 -0.1)">
       <use xlink:href="#DejaVuSans-30"/>
       <use xlink:href="#DejaVuSans-2e" x="63.623047"/>
       <use xlink:href="#DejaVuSans-34" x="95.410156"/>
      </g>
     </g>
    </g>
    <g id="ytick_7">
     <g id="line2d_13">
      <g>
       <use xlink:href="#m8cd19a0ecc" x="57.6" y="62.86883" style="stroke: #000000; stroke-width: 0.8"/>
      </g>
     </g>
     <g id="text_14">
      <!-- 0.6 -->
      <g transform="translate(34.696875 66.668049) scale(0.1 -0.1)">
       <use xlink:href="#DejaVuSans-30"/>
       <use xlink:href="#DejaVuSans-2e" x="63.623047"/>
       <use xlink:href="#DejaVuSans-36" x="95.410156"/>
      </g>
     </g>
    </g>
    <g id="text_15">
     <!-- E*t -->
     <g transform="translate(20.2375 182.147531) rotate(-90) scale(0.1 -0.1)">
      <defs>
       <path id="DejaVuSans-45" d="M 628 4666 
L 3578 4666 
L 3578 4134 
L 1259 4134 
L 1259 2753 
L 3481 2753 
L 3481 2222 
L 1259 2222 
L 1259 531 
L 3634 531 
L 3634 0 
L 628 0 
L 628 4666 
z
" transform="scale(0.015625)"/>
       <path id="DejaVuSans-2a" d="M 3009 3897 
L 1888 3291 
L 3009 2681 
L 2828 2375 
L 1778 3009 
L 1778 1831 
L 1422 1831 
L 1422 3009 
L 372 2375 
L 191 2681 
L 1313 3291 
L 191 3897 
L 372 4206 
L 1422 3572 
L 1422 4750 
L 1778 4750 
L 1778 3572 
L 2828 4206 
L 3009 3897 
z
" transform="scale(0.015625)"/>
       <path id="DejaVuSans-74" d="M 1172 4494 
L 1172 3500 
L 2356 3500 
L 2356 3053 
L 1172 3053 
L 1172 1153 
Q 1172 725 1289 603 
Q 1406 481 1766 481 
L 2356 481 
L 2356 0 
L 1766 0 
Q 1100 0 847 248 
Q 594 497 594 1153 
L 594 3053 
L 172 3053 
L 172 3500 
L 594 3500 
L 594 4494 
L 1172 4494 
z
" transform="scale(0.015625)"/>
      </defs>
      <use xlink:href="#DejaVuSans-45"/>
      <use xlink:href="#DejaVuSans-2a" x="63.183594"/>
      <use xlink:href="#DejaVuSans-74" x="113.183594"/>
     </g>
    </g>
   </g>
   <g id="line2d_14">
    <path d="M 73.832727 295.488 
L 74.150083 289.494763 
L 74.467438 288.209125 
L 74.784793 282.138919 
L 75.102149 280.485674 
L 75.419504 276.124932 
L 75.73686 274.496791 
L 76.054215 274.468445 
L 76.37157 273.206826 
L 76.688926 272.553744 
L 77.006281 269.785578 
L 77.323636 268.480089 
L 77.640992 267.708128 
L 77.958347 267.518915 
L 78.275702 267.189645 
L 78.593058 267.140875 
L 80.179835 261.526575 
L 80.49719 261.49914 
L 80.814545 261.124211 
L 81.131901 261.123031 
L 81.766612 260.240044 
L 82.083967 259.010612 
L 82.718678 257.691105 
L 83.036033 257.552161 
L 83.353388 256.955187 
L 83.670744 255.105887 
L 84.62281 254.170724 
L 84.940165 254.036652 
L 85.257521 252.961047 
L 85.574876 252.706573 
L 85.892231 251.535075 
L 86.209587 251.206875 
L 86.844298 251.018722 
L 87.796364 248.769336 
L 88.113719 248.630665 
L 89.065785 247.966807 
L 89.38314 246.689335 
L 89.700496 246.651746 
L 90.017851 246.498488 
L 90.652562 245.05091 
L 91.287273 244.200293 
L 91.604628 244.010673 
L 91.921983 243.272134 
L 92.239339 243.251144 
L 92.87405 242.692134 
L 93.191405 242.613512 
L 93.50876 241.954492 
L 93.826116 241.950265 
L 94.143471 241.817021 
L 94.460826 240.48175 
L 94.778182 239.81775 
L 95.730248 239.584206 
L 96.047603 239.036147 
L 96.364959 238.099131 
L 96.999669 237.959396 
L 97.317025 237.249764 
L 97.63438 237.234297 
L 97.951736 237.073685 
L 98.903802 236.018099 
L 99.538512 235.937654 
L 99.855868 235.663122 
L 100.807934 233.626809 
L 101.76 233.368078 
L 102.394711 232.776028 
L 102.712066 232.724733 
L 103.029421 231.942229 
L 103.346777 231.65337 
L 103.981488 230.283133 
L 104.616198 230.19006 
L 105.568264 229.719551 
L 106.202975 228.146464 
L 106.520331 227.933899 
L 107.155041 226.723028 
L 108.107107 226.323516 
L 108.424463 226.092583 
L 109.059174 225.986578 
L 109.376529 225.637221 
L 110.01124 225.308776 
L 110.64595 224.819527 
L 111.280661 223.238387 
L 111.598017 223.050216 
L 111.915372 222.583272 
L 112.867438 220.398268 
L 113.184793 220.280912 
L 113.502149 219.97972 
L 113.819504 219.426612 
L 114.13686 219.22595 
L 114.454215 218.847009 
L 115.406281 218.68147 
L 116.040992 218.012816 
L 116.358347 217.999463 
L 116.675702 217.412081 
L 116.993058 216.077829 
L 117.310413 215.438381 
L 118.579835 214.967028 
L 119.214545 213.864219 
L 119.849256 213.716313 
L 120.801322 212.891862 
L 121.118678 212.630276 
L 121.753388 211.849898 
L 122.388099 211.538295 
L 122.705455 211.390364 
L 123.02281 211.09401 
L 123.340165 211.036607 
L 123.974876 210.369441 
L 124.292231 210.300488 
L 124.609587 209.762463 
L 124.926942 209.593851 
L 125.244298 209.291713 
L 125.561653 209.221336 
L 126.513719 208.034711 
L 126.831074 207.966052 
L 127.14843 207.310066 
L 127.78314 206.694345 
L 129.687273 205.654181 
L 130.004628 205.600139 
L 130.321983 205.279507 
L 131.591405 204.859526 
L 132.226116 204.447896 
L 132.543471 203.757165 
L 132.860826 203.71111 
L 133.812893 203.083658 
L 134.764959 202.949236 
L 135.399669 202.433089 
L 136.986446 202.172649 
L 137.621157 201.724533 
L 137.938512 201.510601 
L 138.255868 201.012214 
L 139.207934 200.644444 
L 139.842645 200.204864 
L 140.16 199.832177 
L 140.477355 199.815438 
L 141.112066 199.262197 
L 141.429421 199.224117 
L 141.746777 198.940866 
L 143.333554 198.530983 
L 143.650909 198.125004 
L 143.968264 197.941578 
L 144.920331 197.763759 
L 145.555041 197.340626 
L 145.872397 196.993937 
L 146.507107 196.798879 
L 149.680661 195.889116 
L 150.632727 195.742042 
L 150.950083 195.485956 
L 151.902149 195.238453 
L 153.17157 194.735045 
L 153.488926 194.325081 
L 155.075702 193.922137 
L 155.710413 193.376079 
L 156.662479 193.086042 
L 156.979835 192.889555 
L 157.931901 192.703041 
L 158.566612 192.493367 
L 158.883967 192.159085 
L 159.836033 191.946719 
L 161.105455 191.665655 
L 163.326942 190.711703 
L 163.961653 190.640816 
L 164.279008 190.273982 
L 166.18314 189.880898 
L 166.500496 189.622734 
L 167.135207 189.449565 
L 167.452562 189.189165 
L 168.404628 188.961384 
L 169.039339 188.697796 
L 171.260826 188.260718 
L 171.895537 188.146149 
L 172.212893 187.897113 
L 172.847603 187.815204 
L 173.482314 187.489046 
L 174.117025 187.438665 
L 175.069091 186.906308 
L 175.386446 186.661548 
L 175.703802 186.566463 
L 176.021157 186.352958 
L 176.655868 186.261394 
L 177.290579 185.9949 
L 178.242645 185.731633 
L 178.56 185.537351 
L 179.194711 185.383485 
L 180.464132 185.052128 
L 180.781488 184.80201 
L 181.098843 184.763705 
L 181.416198 184.585932 
L 182.050909 184.45459 
L 183.320331 184.095471 
L 184.272397 183.964613 
L 185.859174 183.437187 
L 187.128595 183.169917 
L 189.667438 182.199801 
L 190.619504 182.047558 
L 191.254215 181.922797 
L 192.840992 181.549699 
L 193.793058 181.315782 
L 194.427769 181.179292 
L 195.69719 180.933818 
L 196.331901 180.757941 
L 197.283967 180.249039 
L 198.553388 179.984539 
L 198.870744 179.749312 
L 204.900496 177.99138 
L 205.217851 177.957111 
L 205.852562 177.710915 
L 210.930248 176.32524 
L 211.882314 175.934713 
L 214.421157 175.2531 
L 215.055868 175.041983 
L 219.498843 174.010723 
L 220.133554 173.892489 
L 221.402975 173.565558 
L 222.989752 173.286253 
L 223.624463 173.04018 
L 225.84595 172.342297 
L 226.798017 172.146806 
L 227.750083 171.797199 
L 229.33686 171.42801 
L 230.288926 171.18036 
L 231.240992 170.961448 
L 231.558347 170.696096 
L 233.779835 170.199255 
L 234.731901 170.056567 
L 235.366612 169.876299 
L 236.318678 169.629778 
L 238.22281 168.977558 
L 240.126942 168.533227 
L 241.079008 168.366567 
L 244.252562 167.724798 
L 244.569917 167.565977 
L 245.521983 167.386575 
L 246.47405 167.112018 
L 247.743471 166.764268 
L 251.869091 165.511552 
L 252.503802 165.353775 
L 253.138512 165.2114 
L 253.455868 165.165174 
L 254.090579 164.930438 
L 254.407934 164.901709 
L 255.042645 164.732146 
L 255.994711 164.458885 
L 256.946777 164.153757 
L 257.581488 164.030151 
L 258.850909 163.56935 
L 259.48562 163.406193 
L 260.437686 163.223392 
L 261.072397 163.089904 
L 264.24595 161.977934 
L 265.198017 161.737218 
L 265.832727 161.65763 
L 266.467438 161.516311 
L 267.102149 161.475618 
L 267.73686 161.260082 
L 269.006281 161.074349 
L 270.275702 160.655056 
L 274.718678 159.790219 
L 275.353388 159.523268 
L 276.62281 159.195659 
L 280.74843 158.285791 
L 284.239339 157.001852 
L 284.87405 156.814914 
L 285.191405 156.61175 
L 285.826116 156.45341 
L 286.460826 156.273885 
L 286.778182 156.265942 
L 287.412893 156.055653 
L 288.682314 155.805264 
L 289.63438 155.533508 
L 291.538512 154.990914 
L 291.855868 154.968709 
L 292.173223 154.766276 
L 294.077355 154.280251 
L 294.712066 154.028504 
L 295.346777 153.926971 
L 296.616198 153.499351 
L 296.933554 153.191433 
L 298.520331 152.65778 
L 298.837686 152.603663 
L 299.155041 152.381403 
L 299.472397 152.32365 
L 299.789752 152.02843 
L 304.232727 150.964552 
L 305.184793 150.801727 
L 306.13686 150.392864 
L 307.723636 149.948128 
L 308.358347 149.720211 
L 310.89719 149.107549 
L 311.531901 148.873057 
L 313.436033 148.251454 
L 313.753388 148.076925 
L 315.02281 147.81639 
L 315.340165 147.710711 
L 315.657521 147.45448 
L 315.974876 147.379274 
L 316.292231 147.020358 
L 320.100496 145.896502 
L 322.004628 145.242696 
L 322.956694 145.094993 
L 323.27405 144.720129 
L 324.226116 144.338347 
L 325.178182 143.967621 
L 325.812893 143.449862 
L 326.447603 143.255541 
L 327.399669 142.363811 
L 328.351736 142.215119 
L 328.669091 141.842366 
L 329.621157 141.421318 
L 329.938512 141.394172 
L 330.255868 141.164798 
L 330.573223 141.108803 
L 330.890579 140.871649 
L 331.525289 140.782186 
L 336.920331 138.363547 
L 337.237686 138.336812 
L 339.776529 137.08285 
L 340.093884 137.050166 
L 340.728595 136.735944 
L 341.04595 136.709953 
L 342.315372 135.862498 
L 342.632727 135.805015 
L 342.950083 135.334313 
L 343.584793 135.005927 
L 343.902149 134.962128 
L 344.219504 134.708773 
L 344.53686 134.665877 
L 344.854215 134.289601 
L 345.17157 134.094779 
L 345.488926 133.57445 
L 346.123636 133.497824 
L 346.440992 133.449559 
L 346.758347 133.273303 
L 347.075702 133.256418 
L 347.393058 132.62776 
L 347.710413 132.541529 
L 348.027769 132.235548 
L 349.29719 131.917658 
L 350.566612 130.869993 
L 350.883967 130.858704 
L 352.153388 130.131985 
L 352.470744 129.577503 
L 352.788099 129.305845 
L 353.42281 128.522963 
L 353.740165 128.447716 
L 354.374876 128.119596 
L 355.009587 128.007695 
L 355.644298 127.51536 
L 355.961653 127.493732 
L 357.865785 126.528488 
L 358.500496 125.70988 
L 359.135207 125.652435 
L 360.087273 124.876241 
L 360.721983 124.631213 
L 361.356694 124.467879 
L 361.991405 123.49764 
L 362.30876 123.368007 
L 362.626116 123.107179 
L 362.943471 122.276153 
L 363.260826 121.994371 
L 363.578182 121.533576 
L 363.895537 121.498277 
L 364.530248 121.135422 
L 364.847603 121.036831 
L 365.482314 120.388024 
L 366.43438 120.225526 
L 366.751736 119.709651 
L 367.069091 119.68675 
L 367.703802 118.901425 
L 368.973223 118.610887 
L 369.607934 117.510658 
L 370.877355 116.669518 
L 372.464132 116.012409 
L 372.781488 115.536329 
L 373.098843 115.480668 
L 373.416198 115.309087 
L 373.733554 114.667178 
L 374.050909 114.657874 
L 374.68562 114.28242 
L 375.002975 114.245991 
L 375.320331 113.796365 
L 375.637686 113.746369 
L 376.907107 112.478928 
L 377.224463 111.293065 
L 377.541818 111.27394 
L 377.859174 110.652525 
L 378.176529 110.470209 
L 378.81124 109.769215 
L 379.44595 109.478905 
L 379.763306 109.133175 
L 380.080661 109.078682 
L 380.715372 108.194241 
L 381.032727 108.082776 
L 381.350083 107.607545 
L 381.667438 107.409034 
L 381.984793 106.808435 
L 382.302149 106.73232 
L 382.619504 106.46087 
L 382.93686 106.391726 
L 383.254215 105.919484 
L 383.57157 105.839257 
L 383.888926 105.290072 
L 384.206281 105.104358 
L 384.523636 104.695855 
L 384.840992 104.47642 
L 385.158347 103.66462 
L 386.110413 103.175947 
L 386.745124 102.438203 
L 387.062479 102.314782 
L 387.379835 99.897697 
L 387.69719 99.838705 
L 388.014545 99.639161 
L 388.331901 99.093067 
L 388.649256 99.035396 
L 388.966612 98.841387 
L 389.283967 98.283732 
L 389.601322 98.029134 
L 389.918678 96.976107 
L 390.553388 96.724531 
L 390.870744 96.601878 
L 391.188099 93.843518 
L 391.82281 93.22895 
L 392.140165 93.063584 
L 392.457521 91.683036 
L 392.774876 91.224173 
L 393.092231 89.7858 
L 393.409587 89.275426 
L 393.726942 89.009478 
L 394.361653 86.382962 
L 394.679008 86.091605 
L 395.313719 81.222735 
L 395.631074 81.001149 
L 395.94843 79.15248 
L 396.265785 76.429489 
L 396.58314 75.768757 
L 396.900496 74.155168 
L 397.217851 71.017371 
L 397.535207 65.796027 
L 397.852562 64.201462 
L 398.169917 63.540959 
L 398.487273 53.568 
L 398.487273 53.568 
" clip-path="url(#pee3b77d89c)" style="fill: none; stroke: #1f77b4; stroke-width: 1.5; stroke-linecap: square"/>
   </g>
   <g id="line2d_15">
    <path d="M 73.832727 186.071842 
L 76.37157 186.008224 
L 76.688926 185.787907 
L 77.006281 185.787907 
L 77.323636 185.649357 
L 79.227769 185.603898 
L 80.49719 185.221091 
L 82.083967 185.13943 
L 82.401322 184.762412 
L 84.940165 184.661047 
L 86.526942 184.538668 
L 86.844298 184.316709 
L 89.065785 184.243459 
L 90.335207 183.925232 
L 91.287273 183.830238 
L 91.604628 183.773431 
L 91.921983 183.567032 
L 92.556694 183.529732 
L 92.87405 183.321928 
L 94.778182 183.221486 
L 96.047603 183.038635 
L 98.586446 182.948702 
L 102.394711 182.593245 
L 102.712066 182.269576 
L 106.520331 182.060806 
L 107.155041 181.977595 
L 109.693884 181.560371 
L 110.01124 181.400505 
L 111.915372 181.356675 
L 112.550083 181.133795 
L 115.406281 181.004241 
L 116.040992 180.919153 
L 118.262479 180.74923 
L 118.89719 180.653202 
L 120.483967 180.61407 
L 120.801322 180.326533 
L 122.070744 180.222782 
L 123.340165 180.136002 
L 124.609587 180.081655 
L 124.926942 179.88257 
L 127.78314 179.675166 
L 128.100496 179.410706 
L 130.956694 179.31045 
L 131.591405 179.181247 
L 137.303802 178.919221 
L 140.16 178.829524 
L 141.746777 178.41797 
L 143.016198 178.408405 
L 143.333554 178.244908 
L 146.507107 178.152771 
L 149.680661 177.886207 
L 149.998017 177.417267 
L 150.632727 177.37691 
L 151.902149 177.189776 
L 153.806281 177.14052 
L 155.710413 177.091023 
L 156.027769 176.867557 
L 157.29719 176.745448 
L 159.836033 176.689986 
L 160.153388 176.557027 
L 162.374876 176.455666 
L 164.913719 176.195385 
L 166.500496 176.127082 
L 166.817851 175.753288 
L 171.578182 175.533084 
L 171.895537 175.278209 
L 174.751736 175.07442 
L 175.069091 174.91089 
L 176.973223 174.846175 
L 177.607934 174.749079 
L 181.416198 174.672047 
L 183.637686 174.496315 
L 184.907107 174.415822 
L 185.224463 174.269887 
L 187.44595 174.1649 
L 189.667438 174.009759 
L 190.302149 173.934425 
L 191.254215 173.818115 
L 197.283967 173.159018 
L 200.140165 172.998998 
L 202.996364 172.842249 
L 205.852562 172.744464 
L 207.121983 172.554087 
L 208.391405 172.538808 
L 209.026116 172.405722 
L 211.564959 172.302896 
L 211.882314 172.283329 
L 212.199669 172.13296 
L 219.816198 171.81756 
L 220.768264 171.499214 
L 237.588099 170.617275 
L 238.857521 170.557721 
L 239.174876 170.256957 
L 242.34843 170.160394 
L 242.98314 170.083892 
L 247.10876 169.976036 
L 247.426116 169.804306 
L 248.695537 169.721075 
L 249.330248 169.634242 
L 250.599669 169.568898 
L 251.23438 169.460106 
L 252.821157 169.376509 
L 254.090579 169.296105 
L 255.677355 169.115388 
L 258.533554 169.01344 
L 258.850909 168.859224 
L 260.437686 168.717101 
L 261.072397 168.586543 
L 266.467438 168.307391 
L 267.419504 168.238118 
L 276.940165 167.832106 
L 277.574876 167.502268 
L 278.844298 167.447451 
L 279.796364 167.332096 
L 280.431074 167.301045 
L 281.065785 167.172324 
L 281.700496 167.123805 
L 282.017851 166.889148 
L 284.239339 166.826089 
L 284.87405 166.765125 
L 287.412893 166.665174 
L 288.999669 166.636175 
L 289.63438 166.20799 
L 294.712066 166.03327 
L 295.981488 165.836952 
L 297.250909 165.74216 
L 298.520331 165.567144 
L 300.741818 165.461279 
L 303.915372 165.381679 
L 304.550083 165.319051 
L 304.867438 165.011628 
L 306.77157 164.904958 
L 307.088926 164.904958 
L 307.406281 164.679156 
L 308.040992 164.646642 
L 308.993058 164.481893 
L 309.945124 164.450379 
L 310.579835 164.369598 
L 313.118678 164.144314 
L 315.02281 163.948534 
L 315.657521 163.807807 
L 316.292231 163.726867 
L 317.561653 163.641926 
L 318.831074 163.587625 
L 319.14843 163.371286 
L 324.226116 162.958325 
L 325.178182 162.821823 
L 326.130248 162.745561 
L 328.03438 162.501761 
L 328.669091 162.432026 
L 328.986446 162.301694 
L 330.890579 162.198512 
L 332.794711 161.835999 
L 333.746777 161.783115 
L 334.064132 161.660961 
L 335.016198 161.561805 
L 335.650909 161.48681 
L 341.998017 160.972236 
L 342.315372 160.704127 
L 342.950083 160.632805 
L 344.854215 160.536197 
L 345.17157 160.273345 
L 347.393058 160.228228 
L 348.027769 160.026009 
L 349.614545 159.863986 
L 349.931901 159.56673 
L 355.644298 159.311672 
L 357.865785 158.605472 
L 358.18314 158.605472 
L 358.500496 158.485745 
L 359.769917 158.459556 
L 360.404628 158.36232 
L 362.626116 158.258292 
L 364.212893 158.091511 
L 364.530248 157.734276 
L 365.799669 157.50246 
L 366.43438 157.460026 
L 368.338512 157.100831 
L 369.925289 157.038004 
L 370.242645 156.543609 
L 372.146777 156.312056 
L 372.464132 156.033901 
L 373.416198 155.95677 
L 375.002975 155.864607 
L 375.637686 155.768087 
L 376.589752 155.639791 
L 376.907107 155.032799 
L 377.224463 154.686799 
L 377.859174 154.637364 
L 378.493884 154.525187 
L 379.44595 154.498334 
L 379.763306 154.039229 
L 382.302149 153.647943 
L 382.619504 153.321689 
L 384.206281 153.266113 
L 384.840992 153.19985 
L 385.158347 152.747221 
L 385.793058 152.685769 
L 386.110413 152.005116 
L 387.062479 151.943642 
L 387.379835 151.541838 
L 387.69719 151.39978 
L 388.966612 151.285416 
L 389.283967 150.815252 
L 389.918678 150.787999 
L 390.236033 150.561062 
L 390.553388 150.037281 
L 391.188099 150.006129 
L 391.505455 149.516408 
L 392.140165 149.438551 
L 392.457521 148.993083 
L 393.726942 148.886898 
L 394.044298 148.458053 
L 394.361653 147.543776 
L 395.313719 147.476702 
L 395.94843 147.404844 
L 396.265785 145.794962 
L 396.58314 144.940071 
L 397.217851 144.859384 
L 397.535207 142.053591 
L 398.169917 142.034509 
L 398.487273 139.744992 
L 398.487273 139.744992 
" clip-path="url(#pee3b77d89c)" style="fill: none; stroke: #ff7f0e; stroke-width: 1.5; stroke-linecap: square"/>
   </g>
   <g id="patch_3">
    <path d="M 57.6 307.584 
L 57.6 41.472 
" style="fill: none; stroke: #000000; stroke-width: 0.8; stroke-linejoin: miter; stroke-linecap: square"/>
   </g>
   <g id="patch_4">
    <path d="M 414.72 307.584 
L 414.72 41.472 
" style="fill: none; stroke: #000000; stroke-width: 0.8; stroke-linejoin: miter; stroke-linecap: square"/>
   </g>
   <g id="patch_5">
    <path d="M 57.6 307.584 
L 414.72 307.584 
" style="fill: none; stroke: #000000; stroke-width: 0.8; stroke-linejoin: miter; stroke-linecap: square"/>
   </g>
   <g id="patch_6">
    <path d="M 57.6 41.472 
L 414.72 41.472 
" style="fill: none; stroke: #000000; stroke-width: 0.8; stroke-linejoin: miter; stroke-linecap: square"/>
   </g>
   <g id="legend_1">
    <g id="patch_7">
     <path d="M 64.6 78.82825 
L 129.342187 78.82825 
Q 131.342187 78.82825 131.342187 76.82825 
L 131.342187 48.472 
Q 131.342187 46.472 129.342187 46.472 
L 64.6 46.472 
Q 62.6 46.472 62.6 48.472 
L 62.6 76.82825 
Q 62.6 78.82825 64.6 78.82825 
z
" style="fill: #ffffff; opacity: 0.8; stroke: #cccccc; stroke-linejoin: miter"/>
    </g>
    <g id="line2d_16">
     <path d="M 66.6 54.570437 
L 76.6 54.570437 
L 86.6 54.570437 
" style="fill: none; stroke: #1f77b4; stroke-width: 1.5; stroke-linecap: square"/>
    </g>
    <g id="text_16">
     <!-- qc -->
     <g transform="translate(94.6 58.070437) scale(0.1 -0.1)">
      <defs>
       <path id="DejaVuSans-71" d="M 947 1747 
Q 947 1113 1208 752 
Q 1469 391 1925 391 
Q 2381 391 2643 752 
Q 2906 1113 2906 1747 
Q 2906 2381 2643 2742 
Q 2381 3103 1925 3103 
Q 1469 3103 1208 2742 
Q 947 2381 947 1747 
z
M 2906 525 
Q 2725 213 2448 61 
Q 2172 -91 1784 -91 
Q 1150 -91 751 415 
Q 353 922 353 1747 
Q 353 2572 751 3078 
Q 1150 3584 1784 3584 
Q 2172 3584 2448 3432 
Q 2725 3281 2906 2969 
L 2906 3500 
L 3481 3500 
L 3481 -1331 
L 2906 -1331 
L 2906 525 
z
" transform="scale(0.015625)"/>
       <path id="DejaVuSans-63" d="M 3122 3366 
L 3122 2828 
Q 2878 2963 2633 3030 
Q 2388 3097 2138 3097 
Q 1578 3097 1268 2742 
Q 959 2388 959 1747 
Q 959 1106 1268 751 
Q 1578 397 2138 397 
Q 2388 397 2633 464 
Q 2878 531 3122 666 
L 3122 134 
Q 2881 22 2623 -34 
Q 2366 -91 2075 -91 
Q 1284 -91 818 406 
Q 353 903 353 1747 
Q 353 2603 823 3093 
Q 1294 3584 2113 3584 
Q 2378 3584 2631 3529 
Q 2884 3475 3122 3366 
z
" transform="scale(0.015625)"/>
      </defs>
      <use xlink:href="#DejaVuSans-71"/>
      <use xlink:href="#DejaVuSans-63" x="63.476562"/>
     </g>
    </g>
    <g id="line2d_17">
     <path d="M 66.6 69.248562 
L 76.6 69.248562 
L 86.6 69.248562 
" style="fill: none; stroke: #ff7f0e; stroke-width: 1.5; stroke-linecap: square"/>
    </g>
    <g id="text_17">
     <!-- Trotter -->
     <g transform="translate(94.6 72.748562) scale(0.1 -0.1)">
      <defs>
       <path id="DejaVuSans-54" d="M -19 4666 
L 3928 4666 
L 3928 4134 
L 2272 4134 
L 2272 0 
L 1638 0 
L 1638 4134 
L -19 4134 
L -19 4666 
z
" transform="scale(0.015625)"/>
       <path id="DejaVuSans-72" d="M 2631 2963 
Q 2534 3019 2420 3045 
Q 2306 3072 2169 3072 
Q 1681 3072 1420 2755 
Q 1159 2438 1159 1844 
L 1159 0 
L 581 0 
L 581 3500 
L 1159 3500 
L 1159 2956 
Q 1341 3275 1631 3429 
Q 1922 3584 2338 3584 
Q 2397 3584 2469 3576 
Q 2541 3569 2628 3553 
L 2631 2963 
z
" transform="scale(0.015625)"/>
       <path id="DejaVuSans-6f" d="M 1959 3097 
Q 1497 3097 1228 2736 
Q 959 2375 959 1747 
Q 959 1119 1226 758 
Q 1494 397 1959 397 
Q 2419 397 2687 759 
Q 2956 1122 2956 1747 
Q 2956 2369 2687 2733 
Q 2419 3097 1959 3097 
z
M 1959 3584 
Q 2709 3584 3137 3096 
Q 3566 2609 3566 1747 
Q 3566 888 3137 398 
Q 2709 -91 1959 -91 
Q 1206 -91 779 398 
Q 353 888 353 1747 
Q 353 2609 779 3096 
Q 1206 3584 1959 3584 
z
" transform="scale(0.015625)"/>
       <path id="DejaVuSans-65" d="M 3597 1894 
L 3597 1613 
L 953 1613 
Q 991 1019 1311 708 
Q 1631 397 2203 397 
Q 2534 397 2845 478 
Q 3156 559 3463 722 
L 3463 178 
Q 3153 47 2828 -22 
Q 2503 -91 2169 -91 
Q 1331 -91 842 396 
Q 353 884 353 1716 
Q 353 2575 817 3079 
Q 1281 3584 2069 3584 
Q 2775 3584 3186 3129 
Q 3597 2675 3597 1894 
z
M 3022 2063 
Q 3016 2534 2758 2815 
Q 2500 3097 2075 3097 
Q 1594 3097 1305 2825 
Q 1016 2553 972 2059 
L 3022 2063 
z
" transform="scale(0.015625)"/>
      </defs>
      <use xlink:href="#DejaVuSans-54"/>
      <use xlink:href="#DejaVuSans-72" x="46.333984"/>
      <use xlink:href="#DejaVuSans-6f" x="85.197266"/>
      <use xlink:href="#DejaVuSans-74" x="146.378906"/>
      <use xlink:href="#DejaVuSans-74" x="185.587891"/>
      <use xlink:href="#DejaVuSans-65" x="224.796875"/>
      <use xlink:href="#DejaVuSans-72" x="286.320312"/>
     </g>
    </g>
   </g>
  </g>
 </g>
 <defs>
  <clipPath id="pee3b77d89c">
   <rect x="57.6" y="41.472" width="357.12" height="266.112"/>
  </clipPath>
 </defs>
</svg>
