<?xml version="1.0" encoding="utf-8" standalone="no"?>
<!DOCTYPE svg PUBLIC "-//W3C//DTD SVG 1.1//EN"
  "http://www.w3.org/Graphics/SVG/1.1/DTD/svg11.dtd">
<svg xmlns:xlink="http://www.w3.org/1999/xlink" width="460.8pt" height="345.6pt" viewBox="0 0 460.8 345.6" xmlns="http://www.w3.org/2000/svg" version="1.1">
 <metadata>
  <rdf:RDF xmlns:dc="http://purl.org/dc/elements/1.1/" xmlns:cc="http://creativecommons.org/ns#" xmlns:rdf="http://www.w3.org/1999/02/22-rdf-syntax-ns#">
   <cc:Work>
    <dc:type rdf:resource="http://purl.org/dc/dcmitype/StillImage"/>
    <dc:date>2024-07-05T10:57:10.227832</dc:date>
    <dc:format>image/svg+xml</dc:format>
    <dc:creator>
     <cc:Agent>
      <dc:title>Matplotlib v3.7.1, https://matplotlib.org/</dc:title>
     </cc:Agent>
    </dc:creator>
   </cc:Work>
  </rdf:RDF>
 </metadata>
 <defs>
  <style type="text/css">*{stroke-linejoin: round; stroke-linecap: butt}</style>
 </defs>
 <g id="figure_1">
  <g id="patch_1">
   <path d="M 0 345.6 
L 460.8 345.6 
L 460.8 0 
L 0 0 
z
" style="fill: #ffffff"/>
  </g>
  <g id="axes_1">
   <g id="patch_2">
    <path d="M 57.6 307.584 
L 414.72 307.584 
L 414.72 41.472 
L 57.6 41.472 
z
" style="fill: #ffffff"/>
   </g>
   <g id="matplotlib.axis_1">
    <g id="xtick_1">
     <g id="line2d_1">
      <defs>
       <path id="m3021a8b346" d="M 0 0 
L 0 3.5 
" style="stroke: #000000; stroke-width: 0.8"/>
      </defs>
      <g>
       <use xlink:href="#m3021a8b346" x="73.832727" y="307.584" style="stroke: #000000; stroke-width: 0.8"/>
      </g>
     </g>
     <g id="text_1">
      <!-- 0 -->
      <g transform="translate(70.651477 322.182437) scale(0.1 -0.1)">
       <defs>
        <path id="DejaVuSans-30" d="M 2034 4250 
Q 1547 4250 1301 3770 
Q 1056 3291 1056 2328 
Q 1056 1369 1301 889 
Q 1547 409 2034 409 
Q 2525 409 2770 889 
Q 3016 1369 3016 2328 
Q 3016 3291 2770 3770 
Q 2525 4250 2034 4250 
z
M 2034 4750 
Q 2819 4750 3233 4129 
Q 3647 3509 3647 2328 
Q 3647 1150 3233 529 
Q 2819 -91 2034 -91 
Q 1250 -91 836 529 
Q 422 1150 422 2328 
Q 422 3509 836 4129 
Q 1250 4750 2034 4750 
z
" transform="scale(0.015625)"/>
       </defs>
       <use xlink:href="#DejaVuSans-30"/>
      </g>
     </g>
    </g>
    <g id="xtick_2">
     <g id="line2d_2">
      <g>
       <use xlink:href="#m3021a8b346" x="137.303802" y="307.584" style="stroke: #000000; stroke-width: 0.8"/>
      </g>
     </g>
     <g id="text_2">
      <!-- 200 -->
      <g transform="translate(127.760052 322.182437) scale(0.1 -0.1)">
       <defs>
        <path id="DejaVuSans-32" d="M 1228 531 
L 3431 531 
L 3431 0 
L 469 0 
L 469 531 
Q 828 903 1448 1529 
Q 2069 2156 2228 2338 
Q 2531 2678 2651 2914 
Q 2772 3150 2772 3378 
Q 2772 3750 2511 3984 
Q 2250 4219 1831 4219 
Q 1534 4219 1204 4116 
Q 875 4013 500 3803 
L 500 4441 
Q 881 4594 1212 4672 
Q 1544 4750 1819 4750 
Q 2544 4750 2975 4387 
Q 3406 4025 3406 3419 
Q 3406 3131 3298 2873 
Q 3191 2616 2906 2266 
Q 2828 2175 2409 1742 
Q 1991 1309 1228 531 
z
" transform="scale(0.015625)"/>
       </defs>
       <use xlink:href="#DejaVuSans-32"/>
       <use xlink:href="#DejaVuSans-30" x="63.623047"/>
       <use xlink:href="#DejaVuSans-30" x="127.246094"/>
      </g>
     </g>
    </g>
    <g id="xtick_3">
     <g id="line2d_3">
      <g>
       <use xlink:href="#m3021a8b346" x="200.774876" y="307.584" style="stroke: #000000; stroke-width: 0.8"/>
      </g>
     </g>
     <g id="text_3">
      <!-- 400 -->
      <g transform="translate(191.231126 322.182437) scale(0.1 -0.1)">
       <defs>
        <path id="DejaVuSans-34" d="M 2419 4116 
L 825 1625 
L 2419 1625 
L 2419 4116 
z
M 2253 4666 
L 3047 4666 
L 3047 1625 
L 3713 1625 
L 3713 1100 
L 3047 1100 
L 3047 0 
L 2419 0 
L 2419 1100 
L 313 1100 
L 313 1709 
L 2253 4666 
z
" transform="scale(0.015625)"/>
       </defs>
       <use xlink:href="#DejaVuSans-34"/>
       <use xlink:href="#DejaVuSans-30" x="63.623047"/>
       <use xlink:href="#DejaVuSans-30" x="127.246094"/>
      </g>
     </g>
    </g>
    <g id="xtick_4">
     <g id="line2d_4">
      <g>
       <use xlink:href="#m3021a8b346" x="264.24595" y="307.584" style="stroke: #000000; stroke-width: 0.8"/>
      </g>
     </g>
     <g id="text_4">
      <!-- 600 -->
      <g transform="translate(254.7022 322.182437) scale(0.1 -0.1)">
       <defs>
        <path id="DejaVuSans-36" d="M 2113 2584 
Q 1688 2584 1439 2293 
Q 1191 2003 1191 1497 
Q 1191 994 1439 701 
Q 1688 409 2113 409 
Q 2538 409 2786 701 
Q 3034 994 3034 1497 
Q 3034 2003 2786 2293 
Q 2538 2584 2113 2584 
z
M 3366 4563 
L 3366 3988 
Q 3128 4100 2886 4159 
Q 2644 4219 2406 4219 
Q 1781 4219 1451 3797 
Q 1122 3375 1075 2522 
Q 1259 2794 1537 2939 
Q 1816 3084 2150 3084 
Q 2853 3084 3261 2657 
Q 3669 2231 3669 1497 
Q 3669 778 3244 343 
Q 2819 -91 2113 -91 
Q 1303 -91 875 529 
Q 447 1150 447 2328 
Q 447 3434 972 4092 
Q 1497 4750 2381 4750 
Q 2619 4750 2861 4703 
Q 3103 4656 3366 4563 
z
" transform="scale(0.015625)"/>
       </defs>
       <use xlink:href="#DejaVuSans-36"/>
       <use xlink:href="#DejaVuSans-30" x="63.623047"/>
       <use xlink:href="#DejaVuSans-30" x="127.246094"/>
      </g>
     </g>
    </g>
    <g id="xtick_5">
     <g id="line2d_5">
      <g>
       <use xlink:href="#m3021a8b346" x="327.717025" y="307.584" style="stroke: #000000; stroke-width: 0.8"/>
      </g>
     </g>
     <g id="text_5">
      <!-- 800 -->
      <g transform="translate(318.173275 322.182437) scale(0.1 -0.1)">
       <defs>
        <path id="DejaVuSans-38" d="M 2034 2216 
Q 1584 2216 1326 1975 
Q 1069 1734 1069 1313 
Q 1069 891 1326 650 
Q 1584 409 2034 409 
Q 2484 409 2743 651 
Q 3003 894 3003 1313 
Q 3003 1734 2745 1975 
Q 2488 2216 2034 2216 
z
M 1403 2484 
Q 997 2584 770 2862 
Q 544 3141 544 3541 
Q 544 4100 942 4425 
Q 1341 4750 2034 4750 
Q 2731 4750 3128 4425 
Q 3525 4100 3525 3541 
Q 3525 3141 3298 2862 
Q 3072 2584 2669 2484 
Q 3125 2378 3379 2068 
Q 3634 1759 3634 1313 
Q 3634 634 3220 271 
Q 2806 -91 2034 -91 
Q 1263 -91 848 271 
Q 434 634 434 1313 
Q 434 1759 690 2068 
Q 947 2378 1403 2484 
z
M 1172 3481 
Q 1172 3119 1398 2916 
Q 1625 2713 2034 2713 
Q 2441 2713 2670 2916 
Q 2900 3119 2900 3481 
Q 2900 3844 2670 4047 
Q 2441 4250 2034 4250 
Q 1625 4250 1398 4047 
Q 1172 3844 1172 3481 
z
" transform="scale(0.015625)"/>
       </defs>
       <use xlink:href="#DejaVuSans-38"/>
       <use xlink:href="#DejaVuSans-30" x="63.623047"/>
       <use xlink:href="#DejaVuSans-30" x="127.246094"/>
      </g>
     </g>
    </g>
    <g id="xtick_6">
     <g id="line2d_6">
      <g>
       <use xlink:href="#m3021a8b346" x="391.188099" y="307.584" style="stroke: #000000; stroke-width: 0.8"/>
      </g>
     </g>
     <g id="text_6">
      <!-- 1000 -->
      <g transform="translate(378.463099 322.182437) scale(0.1 -0.1)">
       <defs>
        <path id="DejaVuSans-31" d="M 794 531 
L 1825 531 
L 1825 4091 
L 703 3866 
L 703 4441 
L 1819 4666 
L 2450 4666 
L 2450 531 
L 3481 531 
L 3481 0 
L 794 0 
L 794 531 
z
" transform="scale(0.015625)"/>
       </defs>
       <use xlink:href="#DejaVuSans-31"/>
       <use xlink:href="#DejaVuSans-30" x="63.623047"/>
       <use xlink:href="#DejaVuSans-30" x="127.246094"/>
       <use xlink:href="#DejaVuSans-30" x="190.869141"/>
      </g>
     </g>
    </g>
    <g id="text_7">
     <!-- n -->
     <g transform="translate(232.99125 335.860562) scale(0.1 -0.1)">
      <defs>
       <path id="DejaVuSans-6e" d="M 3513 2113 
L 3513 0 
L 2938 0 
L 2938 2094 
Q 2938 2591 2744 2837 
Q 2550 3084 2163 3084 
Q 1697 3084 1428 2787 
Q 1159 2491 1159 1978 
L 1159 0 
L 581 0 
L 581 3500 
L 1159 3500 
L 1159 2956 
Q 1366 3272 1645 3428 
Q 1925 3584 2291 3584 
Q 2894 3584 3203 3211 
Q 3513 2838 3513 2113 
z
" transform="scale(0.015625)"/>
      </defs>
      <use xlink:href="#DejaVuSans-6e"/>
     </g>
    </g>
   </g>
   <g id="matplotlib.axis_2">
    <g id="ytick_1">
     <g id="line2d_7">
      <defs>
       <path id="m774e9bd53b" d="M 0 0 
L -3.5 0 
" style="stroke: #000000; stroke-width: 0.8"/>
      </defs>
      <g>
       <use xlink:href="#m774e9bd53b" x="57.6" y="292.915211" style="stroke: #000000; stroke-width: 0.8"/>
      </g>
     </g>
     <g id="text_8">
      <!-- −0.3 -->
      <g transform="translate(26.317187 296.71443) scale(0.1 -0.1)">
       <defs>
        <path id="DejaVuSans-2212" d="M 678 2272 
L 4684 2272 
L 4684 1741 
L 678 1741 
L 678 2272 
z
" transform="scale(0.015625)"/>
        <path id="DejaVuSans-2e" d="M 684 794 
L 1344 794 
L 1344 0 
L 684 0 
L 684 794 
z
" transform="scale(0.015625)"/>
        <path id="DejaVuSans-33" d="M 2597 2516 
Q 3050 2419 3304 2112 
Q 3559 1806 3559 1356 
Q 3559 666 3084 287 
Q 2609 -91 1734 -91 
Q 1441 -91 1130 -33 
Q 819 25 488 141 
L 488 750 
Q 750 597 1062 519 
Q 1375 441 1716 441 
Q 2309 441 2620 675 
Q 2931 909 2931 1356 
Q 2931 1769 2642 2001 
Q 2353 2234 1838 2234 
L 1294 2234 
L 1294 2753 
L 1863 2753 
Q 2328 2753 2575 2939 
Q 2822 3125 2822 3475 
Q 2822 3834 2567 4026 
Q 2313 4219 1838 4219 
Q 1578 4219 1281 4162 
Q 984 4106 628 3988 
L 628 4550 
Q 988 4650 1302 4700 
Q 1616 4750 1894 4750 
Q 2613 4750 3031 4423 
Q 3450 4097 3450 3541 
Q 3450 3153 3228 2886 
Q 3006 2619 2597 2516 
z
" transform="scale(0.015625)"/>
       </defs>
       <use xlink:href="#DejaVuSans-2212"/>
       <use xlink:href="#DejaVuSans-30" x="83.789062"/>
       <use xlink:href="#DejaVuSans-2e" x="147.412109"/>
       <use xlink:href="#DejaVuSans-33" x="179.199219"/>
      </g>
     </g>
    </g>
    <g id="ytick_2">
     <g id="line2d_8">
      <g>
       <use xlink:href="#m774e9bd53b" x="57.6" y="253.24852" style="stroke: #000000; stroke-width: 0.8"/>
      </g>
     </g>
     <g id="text_9">
      <!-- −0.2 -->
      <g transform="translate(26.317187 257.047739) scale(0.1 -0.1)">
       <use xlink:href="#DejaVuSans-2212"/>
       <use xlink:href="#DejaVuSans-30" x="83.789062"/>
       <use xlink:href="#DejaVuSans-2e" x="147.412109"/>
       <use xlink:href="#DejaVuSans-32" x="179.199219"/>
      </g>
     </g>
    </g>
    <g id="ytick_3">
     <g id="line2d_9">
      <g>
       <use xlink:href="#m774e9bd53b" x="57.6" y="213.58183" style="stroke: #000000; stroke-width: 0.8"/>
      </g>
     </g>
     <g id="text_10">
      <!-- −0.1 -->
      <g transform="translate(26.317187 217.381048) scale(0.1 -0.1)">
       <use xlink:href="#DejaVuSans-2212"/>
       <use xlink:href="#DejaVuSans-30" x="83.789062"/>
       <use xlink:href="#DejaVuSans-2e" x="147.412109"/>
       <use xlink:href="#DejaVuSans-31" x="179.199219"/>
      </g>
     </g>
    </g>
    <g id="ytick_4">
     <g id="line2d_10">
      <g>
       <use xlink:href="#m774e9bd53b" x="57.6" y="173.915139" style="stroke: #000000; stroke-width: 0.8"/>
      </g>
     </g>
     <g id="text_11">
      <!-- 0.0 -->
      <g transform="translate(34.696875 177.714358) scale(0.1 -0.1)">
       <use xlink:href="#DejaVuSans-30"/>
       <use xlink:href="#DejaVuSans-2e" x="63.623047"/>
       <use xlink:href="#DejaVuSans-30" x="95.410156"/>
      </g>
     </g>
    </g>
    <g id="ytick_5">
     <g id="line2d_11">
      <g>
       <use xlink:href="#m774e9bd53b" x="57.6" y="134.248449" style="stroke: #000000; stroke-width: 0.8"/>
      </g>
     </g>
     <g id="text_12">
      <!-- 0.1 -->
      <g transform="translate(34.696875 138.047667) scale(0.1 -0.1)">
       <use xlink:href="#DejaVuSans-30"/>
       <use xlink:href="#DejaVuSans-2e" x="63.623047"/>
       <use xlink:href="#DejaVuSans-31" x="95.410156"/>
      </g>
     </g>
    </g>
    <g id="ytick_6">
     <g id="line2d_12">
      <g>
       <use xlink:href="#m774e9bd53b" x="57.6" y="94.581758" style="stroke: #000000; stroke-width: 0.8"/>
      </g>
     </g>
     <g id="text_13">
      <!-- 0.2 -->
      <g transform="translate(34.696875 98.380977) scale(0.1 -0.1)">
       <use xlink:href="#DejaVuSans-30"/>
       <use xlink:href="#DejaVuSans-2e" x="63.623047"/>
       <use xlink:href="#DejaVuSans-32" x="95.410156"/>
      </g>
     </g>
    </g>
    <g id="ytick_7">
     <g id="line2d_13">
      <g>
       <use xlink:href="#m774e9bd53b" x="57.6" y="54.915068" style="stroke: #000000; stroke-width: 0.8"/>
      </g>
     </g>
     <g id="text_14">
      <!-- 0.3 -->
      <g transform="translate(34.696875 58.714286) scale(0.1 -0.1)">
       <use xlink:href="#DejaVuSans-30"/>
       <use xlink:href="#DejaVuSans-2e" x="63.623047"/>
       <use xlink:href="#DejaVuSans-33" x="95.410156"/>
      </g>
     </g>
    </g>
    <g id="text_15">
     <!-- E*t -->
     <g transform="translate(20.2375 182.147531) rotate(-90) scale(0.1 -0.1)">
      <defs>
       <path id="DejaVuSans-45" d="M 628 4666 
L 3578 4666 
L 3578 4134 
L 1259 4134 
L 1259 2753 
L 3481 2753 
L 3481 2222 
L 1259 2222 
L 1259 531 
L 3634 531 
L 3634 0 
L 628 0 
L 628 4666 
z
" transform="scale(0.015625)"/>
       <path id="DejaVuSans-2a" d="M 3009 3897 
L 1888 3291 
L 3009 2681 
L 2828 2375 
L 1778 3009 
L 1778 1831 
L 1422 1831 
L 1422 3009 
L 372 2375 
L 191 2681 
L 1313 3291 
L 191 3897 
L 372 4206 
L 1422 3572 
L 1422 4750 
L 1778 4750 
L 1778 3572 
L 2828 4206 
L 3009 3897 
z
" transform="scale(0.015625)"/>
       <path id="DejaVuSans-74" d="M 1172 4494 
L 1172 3500 
L 2356 3500 
L 2356 3053 
L 1172 3053 
L 1172 1153 
Q 1172 725 1289 603 
Q 1406 481 1766 481 
L 2356 481 
L 2356 0 
L 1766 0 
Q 1100 0 847 248 
Q 594 497 594 1153 
L 594 3053 
L 172 3053 
L 172 3500 
L 594 3500 
L 594 4494 
L 1172 4494 
z
" transform="scale(0.015625)"/>
      </defs>
      <use xlink:href="#DejaVuSans-45"/>
      <use xlink:href="#DejaVuSans-2a" x="63.183594"/>
      <use xlink:href="#DejaVuSans-74" x="113.183594"/>
     </g>
    </g>
   </g>
   <g id="line2d_14">
    <path d="M 73.832727 295.488 
L 74.150083 290.899927 
L 74.467438 289.195416 
L 75.419504 276.859497 
L 75.73686 274.100437 
L 76.054215 272.544503 
L 76.688926 270.589089 
L 77.006281 268.649084 
L 77.323636 268.066227 
L 78.593058 262.265327 
L 78.910413 261.978074 
L 79.545124 260.320965 
L 79.862479 258.811658 
L 80.49719 257.399909 
L 80.814545 256.236541 
L 81.449256 255.048267 
L 82.718678 253.562962 
L 83.353388 251.80693 
L 83.670744 251.598888 
L 83.988099 250.53603 
L 84.62281 249.567021 
L 84.940165 248.86916 
L 85.892231 248.16327 
L 86.209587 247.527558 
L 86.526942 247.198671 
L 86.844298 245.879925 
L 88.113719 244.332311 
L 88.74843 243.392699 
L 89.065785 243.055833 
L 89.38314 242.361642 
L 90.335207 241.480498 
L 90.652562 240.889641 
L 90.969917 240.787199 
L 91.287273 240.055728 
L 91.921983 239.474548 
L 92.239339 239.340955 
L 92.87405 238.173826 
L 93.50876 237.843823 
L 93.826116 237.289255 
L 94.143471 237.126856 
L 96.047603 235.210698 
L 96.364959 235.061224 
L 96.682314 234.573647 
L 97.317025 234.167575 
L 97.951736 233.438075 
L 99.221157 232.705094 
L 99.538512 232.173012 
L 99.855868 232.01941 
L 100.173223 231.458596 
L 100.490579 231.230415 
L 100.807934 230.718633 
L 101.125289 230.665936 
L 102.077355 229.970253 
L 102.712066 229.65109 
L 103.346777 228.757808 
L 103.664132 228.470024 
L 104.616198 227.980494 
L 107.155041 226.459111 
L 107.472397 225.914408 
L 108.741818 224.972172 
L 109.059174 224.948297 
L 109.693884 224.273759 
L 110.328595 223.890942 
L 110.64595 223.81518 
L 111.280661 223.107585 
L 111.598017 222.690783 
L 112.550083 222.119594 
L 114.13686 221.273634 
L 114.77157 220.962564 
L 116.040992 219.999019 
L 117.310413 219.235168 
L 118.579835 218.589921 
L 119.214545 218.137294 
L 121.753388 216.542091 
L 122.070744 216.208454 
L 123.340165 215.627717 
L 125.244298 214.617182 
L 127.465785 213.70008 
L 128.100496 213.176954 
L 128.735207 212.931689 
L 129.687273 212.313076 
L 130.639339 211.880547 
L 131.27405 211.427217 
L 131.591405 211.308512 
L 131.90876 210.921731 
L 132.543471 210.56858 
L 133.495537 210.010476 
L 133.812893 209.975944 
L 134.447603 209.586883 
L 135.082314 209.425634 
L 136.669091 208.631048 
L 137.621157 208.237121 
L 138.573223 207.756525 
L 140.16 207.070795 
L 140.477355 206.760062 
L 148.728595 202.905149 
L 149.363306 202.69836 
L 149.998017 202.327212 
L 150.632727 202.150701 
L 151.267438 201.813796 
L 157.931901 198.806672 
L 159.518678 198.232845 
L 162.374876 197.029974 
L 163.009587 196.838409 
L 168.087273 194.798774 
L 168.404628 194.54582 
L 169.356694 194.190515 
L 171.578182 193.226284 
L 171.895537 193.17785 
L 172.212893 192.984012 
L 172.530248 192.954206 
L 173.482314 192.54057 
L 179.512066 190.186175 
L 180.146777 189.931101 
L 181.416198 189.403021 
L 182.050909 189.216922 
L 182.68562 188.951504 
L 183.002975 188.923992 
L 183.955041 188.454886 
L 184.907107 188.245568 
L 185.224463 188.178071 
L 185.541818 187.877968 
L 186.493884 187.57959 
L 189.032727 186.728774 
L 190.619504 186.248838 
L 191.254215 185.999098 
L 191.888926 185.86398 
L 193.793058 185.001679 
L 195.062479 184.535547 
L 204.265785 181.376203 
L 204.58314 181.329602 
L 205.217851 181.000479 
L 207.121983 180.528282 
L 207.439339 180.205868 
L 210.295537 179.434185 
L 210.612893 179.201098 
L 211.247603 178.99142 
L 212.83438 178.438197 
L 222.989752 175.011847 
L 223.941818 174.623189 
L 225.84595 173.983376 
L 227.750083 173.265975 
L 228.384793 172.954998 
L 228.702149 172.918421 
L 229.654215 172.515729 
L 230.288926 172.337366 
L 235.366612 170.471933 
L 236.001322 170.365506 
L 236.953388 169.969251 
L 242.031074 168.219989 
L 242.98314 167.996637 
L 245.839339 166.996344 
L 248.378182 166.190683 
L 249.012893 165.951845 
L 250.599669 165.467517 
L 254.725289 163.968817 
L 255.677355 163.690778 
L 257.264132 163.047692 
L 257.581488 162.98699 
L 258.216198 162.682461 
L 259.168264 162.486431 
L 260.437686 161.989411 
L 261.389752 161.757229 
L 261.707107 161.480351 
L 262.659174 161.256406 
L 265.198017 160.409343 
L 267.73686 159.478563 
L 269.958347 158.811136 
L 273.449256 157.504537 
L 274.401322 157.241278 
L 278.844298 155.534582 
L 280.431074 155.033104 
L 281.38314 154.657828 
L 281.700496 154.644598 
L 282.335207 154.370701 
L 283.287273 154.12225 
L 283.604628 153.779738 
L 284.556694 153.513734 
L 289.63438 151.589514 
L 290.586446 151.351984 
L 292.173223 150.873647 
L 292.807934 150.558418 
L 294.712066 149.763505 
L 295.346777 149.547265 
L 296.298843 149.102975 
L 297.568264 148.795041 
L 297.88562 148.453794 
L 299.155041 148.125151 
L 299.789752 147.787718 
L 304.550083 146.010143 
L 305.184793 145.731521 
L 305.819504 145.480069 
L 306.454215 145.225768 
L 306.77157 145.124577 
L 307.088926 144.876853 
L 308.040992 144.657503 
L 309.310413 144.074302 
L 313.118678 142.715295 
L 313.436033 142.470745 
L 314.070744 142.317549 
L 315.340165 141.772481 
L 315.974876 141.570513 
L 316.926942 141.05238 
L 317.244298 140.978888 
L 317.879008 140.630951 
L 318.831074 140.447153 
L 319.465785 140.132779 
L 320.100496 139.947504 
L 320.417851 139.702073 
L 321.687273 139.293781 
L 323.27405 138.418786 
L 325.178182 137.618618 
L 325.495537 137.378681 
L 326.447603 137.09346 
L 327.399669 136.613797 
L 327.717025 136.574795 
L 328.669091 136.05761 
L 330.573223 135.256221 
L 331.207934 134.938996 
L 332.477355 134.346943 
L 335.650909 133.052259 
L 336.602975 132.576271 
L 338.824463 131.494245 
L 340.728595 130.45945 
L 341.998017 129.901236 
L 342.950083 129.505205 
L 343.902149 129.041847 
L 344.53686 128.791287 
L 344.854215 128.664034 
L 345.17157 128.396558 
L 345.488926 128.275367 
L 345.806281 127.961154 
L 347.075702 127.299715 
L 347.393058 126.980277 
L 348.027769 126.804093 
L 348.662479 126.348343 
L 348.979835 126.108994 
L 349.29719 126.041186 
L 349.931901 125.615891 
L 350.249256 125.453491 
L 350.566612 125.018022 
L 351.201322 124.705775 
L 353.42281 123.611507 
L 353.740165 123.255651 
L 354.692231 122.830407 
L 355.326942 122.397231 
L 357.54843 121.255392 
L 358.18314 120.919791 
L 358.817851 120.618451 
L 359.135207 120.508063 
L 359.769917 120.101703 
L 360.087273 119.992813 
L 360.721983 119.498423 
L 361.039339 119.275912 
L 361.356694 119.190333 
L 361.67405 118.823895 
L 361.991405 118.715963 
L 362.30876 118.330289 
L 362.626116 118.194378 
L 362.943471 117.864622 
L 363.260826 117.765376 
L 363.578182 117.455964 
L 363.895537 117.307323 
L 364.530248 116.702135 
L 365.164959 116.344166 
L 366.43438 115.674902 
L 366.751736 115.54322 
L 367.386446 114.976567 
L 367.703802 114.424773 
L 368.338512 114.219051 
L 368.655868 113.751736 
L 368.973223 113.649112 
L 369.290579 113.385692 
L 370.242645 113.018813 
L 372.464132 111.345908 
L 373.098843 111.017329 
L 373.416198 110.845481 
L 375.637686 108.750575 
L 375.955041 108.626832 
L 376.272397 108.186403 
L 376.589752 108.075885 
L 377.224463 107.520096 
L 377.859174 106.521521 
L 378.176529 106.193061 
L 378.493884 105.49431 
L 379.44595 104.792111 
L 380.080661 104.105 
L 380.398017 103.796647 
L 380.715372 103.260818 
L 381.032727 103.128612 
L 381.350083 102.545706 
L 381.667438 102.370884 
L 383.254215 100.328643 
L 383.888926 99.812058 
L 385.158347 97.322949 
L 385.793058 96.972854 
L 386.427769 96.039741 
L 386.745124 95.793029 
L 387.062479 94.869628 
L 388.014545 93.715303 
L 388.331901 93.153592 
L 388.966612 92.586164 
L 389.918678 90.237175 
L 390.236033 90.086909 
L 390.553388 89.773339 
L 390.870744 88.530285 
L 391.505455 87.451185 
L 391.82281 87.311637 
L 392.140165 86.442972 
L 392.457521 86.167988 
L 393.092231 84.235515 
L 393.409587 84.056475 
L 393.726942 83.515978 
L 394.044298 82.550859 
L 394.361653 82.164802 
L 394.996364 80.105473 
L 395.313719 79.540988 
L 395.631074 77.097601 
L 395.94843 76.263956 
L 396.265785 74.927923 
L 396.58314 74.090618 
L 396.900496 72.350723 
L 397.217851 67.540308 
L 397.535207 66.634714 
L 397.852562 64.057694 
L 398.169917 59.790914 
L 398.487273 53.568 
L 398.487273 53.568 
" clip-path="url(#p0fa9c61dca)" style="fill: none; stroke: #1f77b4; stroke-width: 1.5; stroke-linecap: square"/>
   </g>
   <g id="line2d_15">
    <path d="M 73.832727 209.750411 
L 75.73686 209.708814 
L 76.37157 209.609011 
L 76.688926 209.119327 
L 77.006281 209.119327 
L 77.323636 208.811381 
L 79.227769 208.710342 
L 79.545124 208.45914 
L 79.862479 208.45914 
L 80.179835 207.859502 
L 81.131901 207.794628 
L 82.083967 207.678 
L 82.401322 206.840026 
L 83.670744 206.789982 
L 83.988099 206.629533 
L 85.574876 206.555395 
L 85.892231 206.51086 
L 86.209587 206.342724 
L 86.526942 206.342724 
L 86.844298 205.849391 
L 89.065785 205.686583 
L 89.38314 205.454932 
L 89.700496 205.454932 
L 90.017851 205.069514 
L 91.604628 204.641883 
L 91.921983 204.183132 
L 92.556694 204.100227 
L 92.87405 203.638355 
L 94.143471 203.573126 
L 94.460826 203.415109 
L 94.778182 203.415109 
L 95.412893 203.136032 
L 95.730248 203.136032 
L 96.047603 203.008698 
L 97.951736 202.901979 
L 98.903802 202.732643 
L 99.538512 202.716276 
L 99.855868 202.46128 
L 100.173223 202.46128 
L 100.490579 202.152128 
L 102.077355 202.067503 
L 102.394711 202.018758 
L 102.712066 201.299359 
L 105.88562 200.904771 
L 107.789752 200.547781 
L 108.107107 200.202076 
L 108.741818 200.201423 
L 109.059174 199.849846 
L 109.376529 199.723056 
L 109.693884 199.723056 
L 110.01124 199.367732 
L 111.915372 199.270314 
L 112.550083 198.774932 
L 113.819504 198.700537 
L 114.13686 198.572144 
L 115.406281 198.486982 
L 115.723636 198.297861 
L 116.993058 198.21231 
L 117.310413 198.092648 
L 117.627769 198.092648 
L 117.945124 197.920185 
L 118.262479 197.920185 
L 118.579835 197.70675 
L 120.483967 197.619773 
L 120.801322 196.980682 
L 121.118678 196.980682 
L 121.753388 196.750083 
L 122.705455 196.645673 
L 123.340165 196.557203 
L 123.657521 196.557203 
L 123.974876 196.437213 
L 124.609587 196.436408 
L 124.926942 195.993914 
L 126.196364 195.819525 
L 126.513719 195.622435 
L 127.78314 195.532932 
L 128.100496 194.945134 
L 129.369917 194.912776 
L 130.004628 194.812158 
L 130.956694 194.7223 
L 131.27405 194.497787 
L 132.543471 194.338483 
L 134.447603 194.209172 
L 134.764959 194.052496 
L 136.03438 194.005484 
L 136.669091 193.91027 
L 137.621157 193.85274 
L 138.890579 193.71689 
L 140.16 193.653378 
L 140.477355 193.448928 
L 140.794711 193.448928 
L 141.112066 192.792296 
L 143.016198 192.717383 
L 143.333554 192.353989 
L 145.555041 192.296748 
L 146.824463 192.092995 
L 147.459174 192.019224 
L 149.04595 191.627832 
L 149.680661 191.556727 
L 149.998017 190.514445 
L 150.632727 190.424745 
L 150.950083 190.262529 
L 151.267438 190.262529 
L 151.902149 190.008814 
L 152.854215 189.955552 
L 154.440992 189.889479 
L 155.075702 189.802211 
L 155.710413 189.789322 
L 156.027769 189.29264 
L 156.662479 189.180392 
L 158.566612 188.993011 
L 159.836033 188.897964 
L 160.153388 188.602445 
L 161.42281 188.498423 
L 163.326942 188.151301 
L 163.644298 187.945262 
L 164.596364 187.844495 
L 165.865785 187.761174 
L 166.18314 187.761174 
L 166.500496 187.646833 
L 166.817851 186.816024 
L 169.991405 186.54385 
L 170.943471 186.536693 
L 171.260826 186.326591 
L 171.578182 186.326591 
L 171.895537 185.760098 
L 173.164959 185.599927 
L 173.482314 185.417603 
L 174.751736 185.307148 
L 175.069091 184.943682 
L 176.338512 184.916453 
L 177.290579 184.592064 
L 181.416198 184.412821 
L 182.68562 184.184705 
L 183.320331 184.103863 
L 184.589752 183.843326 
L 184.907107 183.843326 
L 185.224463 183.518964 
L 185.859174 183.496174 
L 186.176529 183.357899 
L 188.080661 183.256521 
L 188.715372 183.083581 
L 189.032727 183.083581 
L 189.984793 182.773356 
L 190.93686 182.756343 
L 191.254215 182.514841 
L 191.888926 182.426727 
L 192.206281 182.095097 
L 193.475702 181.994692 
L 194.427769 181.835471 
L 194.745124 181.394303 
L 195.69719 181.294826 
L 196.649256 181.057028 
L 199.188099 180.954578 
L 199.505455 180.723981 
L 201.092231 180.624005 
L 202.361653 180.490511 
L 202.679008 180.345845 
L 204.58314 180.320706 
L 204.900496 180.195061 
L 205.852562 180.128505 
L 206.804628 179.768353 
L 207.756694 179.679389 
L 208.391405 179.671407 
L 208.70876 179.434829 
L 209.660826 179.349513 
L 209.978182 179.349513 
L 210.612893 179.235321 
L 211.882314 179.10357 
L 212.199669 178.769355 
L 218.229421 178.270717 
L 218.546777 178.124024 
L 219.816198 178.068336 
L 220.450909 177.360769 
L 221.720331 177.290876 
L 222.037686 177.166378 
L 222.672397 177.121654 
L 223.624463 176.926886 
L 224.576529 176.863635 
L 224.893884 176.675616 
L 226.798017 176.618737 
L 227.432727 176.503557 
L 228.384793 176.500606 
L 228.702149 176.339063 
L 229.33686 176.300271 
L 229.654215 176.099648 
L 230.923636 175.996237 
L 232.193058 175.958643 
L 233.462479 175.875214 
L 234.731901 175.683678 
L 236.001322 175.581722 
L 238.857521 175.268172 
L 239.174876 174.599683 
L 240.444298 174.536171 
L 241.396364 174.438351 
L 242.34843 174.385059 
L 242.665785 174.215024 
L 244.569917 174.159669 
L 245.521983 174.057359 
L 247.10876 173.975298 
L 247.426116 173.593605 
L 248.060826 173.572192 
L 248.378182 173.408613 
L 248.695537 173.408613 
L 249.012893 173.215614 
L 249.964959 173.19125 
L 250.282314 173.07038 
L 250.599669 173.07038 
L 250.917025 172.828575 
L 251.551736 172.74272 
L 254.407934 172.353023 
L 254.725289 172.211651 
L 255.36 172.208485 
L 255.677355 172.062391 
L 256.946777 171.953441 
L 258.533554 171.835797 
L 258.850909 171.493033 
L 259.802975 171.276802 
L 261.389752 170.860745 
L 263.61124 170.752846 
L 265.515372 170.56441 
L 265.832727 170.304682 
L 270.910413 169.612806 
L 271.545124 169.532013 
L 273.131901 169.374929 
L 274.718678 169.294538 
L 276.940165 169.210122 
L 277.257521 168.725401 
L 277.574876 168.477014 
L 278.526942 168.435855 
L 281.700496 167.635829 
L 282.017851 167.114271 
L 283.604628 167.014515 
L 287.730248 166.583906 
L 288.999669 166.552005 
L 289.63438 165.600306 
L 291.855868 165.424458 
L 293.442645 165.329987 
L 294.077355 165.297433 
L 296.933554 164.564935 
L 297.250909 164.564935 
L 297.568264 164.404777 
L 297.88562 164.404777 
L 298.202975 164.218421 
L 301.376529 163.899807 
L 304.550083 163.624518 
L 304.867438 162.941227 
L 305.819504 162.787508 
L 307.088926 162.70414 
L 307.406281 162.202265 
L 308.040992 162.129996 
L 308.675702 161.779571 
L 309.945124 161.693777 
L 310.262479 161.51423 
L 310.89719 161.422969 
L 313.118678 161.013504 
L 315.02281 160.578356 
L 315.340165 160.293566 
L 315.657521 160.265572 
L 315.974876 160.085673 
L 317.244298 159.981844 
L 317.879008 159.896879 
L 318.831074 159.776189 
L 319.14843 159.295346 
L 320.735207 159.11358 
L 321.369917 158.81671 
L 323.27405 158.725449 
L 323.591405 158.553761 
L 323.90876 158.553761 
L 324.543471 158.209681 
L 324.860826 158.209681 
L 325.178182 158.07409 
L 325.812893 158.069634 
L 326.447603 157.780536 
L 326.764959 157.780536 
L 327.082314 157.404601 
L 328.351736 157.346291 
L 328.669091 157.207713 
L 328.986446 156.918032 
L 330.255868 156.85766 
L 330.573223 156.688696 
L 330.890579 156.688696 
L 331.525289 156.390426 
L 331.842645 156.390426 
L 332.477355 155.908256 
L 333.746777 155.765419 
L 334.064132 155.493915 
L 334.698843 155.464765 
L 335.333554 155.106841 
L 336.920331 155.025917 
L 337.237686 154.985252 
L 337.555041 154.727898 
L 338.189752 154.60963 
L 339.141818 154.591835 
L 339.459174 154.465858 
L 340.728595 154.367448 
L 341.998017 153.963131 
L 342.315372 153.367222 
L 342.632727 153.208699 
L 343.267438 153.170665 
L 344.219504 153.034586 
L 344.854215 152.993976 
L 345.17157 152.409752 
L 347.393058 152.309472 
L 347.710413 151.969013 
L 348.345124 151.784601 
L 349.29719 151.730427 
L 349.614545 151.499896 
L 349.931901 150.839204 
L 351.518678 150.707889 
L 352.153388 150.522281 
L 353.42281 150.473901 
L 354.057521 150.37418 
L 355.644298 150.272302 
L 355.961653 150.034201 
L 356.279008 150.034201 
L 356.596364 149.373954 
L 357.231074 149.26894 
L 357.54843 148.870614 
L 357.865785 148.702677 
L 358.18314 148.702677 
L 358.500496 148.436566 
L 359.769917 148.378358 
L 360.087273 148.162238 
L 361.356694 148.109121 
L 363.260826 147.810858 
L 363.578182 147.810858 
L 363.895537 147.56033 
L 364.212893 147.56033 
L 364.530248 146.766326 
L 365.164959 146.42217 
L 365.482314 146.42217 
L 365.799669 146.251083 
L 366.43438 146.156767 
L 367.069091 145.871751 
L 367.386446 145.871751 
L 367.703802 145.405758 
L 368.655868 145.33776 
L 369.607934 145.233727 
L 369.925289 145.218766 
L 370.242645 144.119906 
L 371.194711 143.836506 
L 371.512066 143.836506 
L 372.146777 143.605248 
L 372.464132 142.987012 
L 372.781488 142.854839 
L 373.733554 142.815578 
L 374.68562 142.610732 
L 375.002975 142.610732 
L 375.320331 142.396204 
L 375.955041 142.299703 
L 376.272397 142.111047 
L 376.589752 142.111047 
L 376.907107 140.761927 
L 377.224463 139.992895 
L 377.859174 139.883019 
L 378.176529 139.645349 
L 379.44595 139.574006 
L 379.763306 138.553582 
L 381.350083 138.200813 
L 381.984793 138.156597 
L 382.302149 137.683895 
L 382.619504 136.958752 
L 383.57157 136.855866 
L 384.840992 136.687948 
L 385.158347 135.681919 
L 385.475702 135.681919 
L 385.793058 135.545333 
L 386.110413 134.03249 
L 386.745124 133.982811 
L 387.062479 133.895855 
L 387.379835 133.002792 
L 387.69719 132.687048 
L 388.331901 132.642923 
L 388.649256 132.432858 
L 388.966612 132.432858 
L 389.283967 131.387856 
L 389.918678 131.327282 
L 390.236033 130.822884 
L 390.553388 129.658711 
L 391.188099 129.58947 
L 391.505455 128.500999 
L 391.82281 128.327951 
L 392.140165 128.327951 
L 392.457521 127.337837 
L 393.726942 127.101827 
L 394.044298 126.148661 
L 394.361653 124.116556 
L 394.996364 124.108938 
L 395.631074 123.807761 
L 395.94843 123.807761 
L 396.265785 120.229579 
L 396.58314 118.329468 
L 396.900496 118.15013 
L 397.217851 118.15013 
L 397.535207 111.913874 
L 398.169917 111.871464 
L 398.487273 106.7827 
L 398.487273 106.7827 
" clip-path="url(#p0fa9c61dca)" style="fill: none; stroke: #ff7f0e; stroke-width: 1.5; stroke-linecap: square"/>
   </g>
   <g id="patch_3">
    <path d="M 57.6 307.584 
L 57.6 41.472 
" style="fill: none; stroke: #000000; stroke-width: 0.8; stroke-linejoin: miter; stroke-linecap: square"/>
   </g>
   <g id="patch_4">
    <path d="M 414.72 307.584 
L 414.72 41.472 
" style="fill: none; stroke: #000000; stroke-width: 0.8; stroke-linejoin: miter; stroke-linecap: square"/>
   </g>
   <g id="patch_5">
    <path d="M 57.6 307.584 
L 414.72 307.584 
" style="fill: none; stroke: #000000; stroke-width: 0.8; stroke-linejoin: miter; stroke-linecap: square"/>
   </g>
   <g id="patch_6">
    <path d="M 57.6 41.472 
L 414.72 41.472 
" style="fill: none; stroke: #000000; stroke-width: 0.8; stroke-linejoin: miter; stroke-linecap: square"/>
   </g>
   <g id="legend_1">
    <g id="patch_7">
     <path d="M 64.6 78.82825 
L 129.342187 78.82825 
Q 131.342187 78.82825 131.342187 76.82825 
L 131.342187 48.472 
Q 131.342187 46.472 129.342187 46.472 
L 64.6 46.472 
Q 62.6 46.472 62.6 48.472 
L 62.6 76.82825 
Q 62.6 78.82825 64.6 78.82825 
z
" style="fill: #ffffff; opacity: 0.8; stroke: #cccccc; stroke-linejoin: miter"/>
    </g>
    <g id="line2d_16">
     <path d="M 66.6 54.570437 
L 76.6 54.570437 
L 86.6 54.570437 
" style="fill: none; stroke: #1f77b4; stroke-width: 1.5; stroke-linecap: square"/>
    </g>
    <g id="text_16">
     <!-- qc -->
     <g transform="translate(94.6 58.070437) scale(0.1 -0.1)">
      <defs>
       <path id="DejaVuSans-71" d="M 947 1747 
Q 947 1113 1208 752 
Q 1469 391 1925 391 
Q 2381 391 2643 752 
Q 2906 1113 2906 1747 
Q 2906 2381 2643 2742 
Q 2381 3103 1925 3103 
Q 1469 3103 1208 2742 
Q 947 2381 947 1747 
z
M 2906 525 
Q 2725 213 2448 61 
Q 2172 -91 1784 -91 
Q 1150 -91 751 415 
Q 353 922 353 1747 
Q 353 2572 751 3078 
Q 1150 3584 1784 3584 
Q 2172 3584 2448 3432 
Q 2725 3281 2906 2969 
L 2906 3500 
L 3481 3500 
L 3481 -1331 
L 2906 -1331 
L 2906 525 
z
" transform="scale(0.015625)"/>
       <path id="DejaVuSans-63" d="M 3122 3366 
L 3122 2828 
Q 2878 2963 2633 3030 
Q 2388 3097 2138 3097 
Q 1578 3097 1268 2742 
Q 959 2388 959 1747 
Q 959 1106 1268 751 
Q 1578 397 2138 397 
Q 2388 397 2633 464 
Q 2878 531 3122 666 
L 3122 134 
Q 2881 22 2623 -34 
Q 2366 -91 2075 -91 
Q 1284 -91 818 406 
Q 353 903 353 1747 
Q 353 2603 823 3093 
Q 1294 3584 2113 3584 
Q 2378 3584 2631 3529 
Q 2884 3475 3122 3366 
z
" transform="scale(0.015625)"/>
      </defs>
      <use xlink:href="#DejaVuSans-71"/>
      <use xlink:href="#DejaVuSans-63" x="63.476562"/>
     </g>
    </g>
    <g id="line2d_17">
     <path d="M 66.6 69.248562 
L 76.6 69.248562 
L 86.6 69.248562 
" style="fill: none; stroke: #ff7f0e; stroke-width: 1.5; stroke-linecap: square"/>
    </g>
    <g id="text_17">
     <!-- Trotter -->
     <g transform="translate(94.6 72.748562) scale(0.1 -0.1)">
      <defs>
       <path id="DejaVuSans-54" d="M -19 4666 
L 3928 4666 
L 3928 4134 
L 2272 4134 
L 2272 0 
L 1638 0 
L 1638 4134 
L -19 4134 
L -19 4666 
z
" transform="scale(0.015625)"/>
       <path id="DejaVuSans-72" d="M 2631 2963 
Q 2534 3019 2420 3045 
Q 2306 3072 2169 3072 
Q 1681 3072 1420 2755 
Q 1159 2438 1159 1844 
L 1159 0 
L 581 0 
L 581 3500 
L 1159 3500 
L 1159 2956 
Q 1341 3275 1631 3429 
Q 1922 3584 2338 3584 
Q 2397 3584 2469 3576 
Q 2541 3569 2628 3553 
L 2631 2963 
z
" transform="scale(0.015625)"/>
       <path id="DejaVuSans-6f" d="M 1959 3097 
Q 1497 3097 1228 2736 
Q 959 2375 959 1747 
Q 959 1119 1226 758 
Q 1494 397 1959 397 
Q 2419 397 2687 759 
Q 2956 1122 2956 1747 
Q 2956 2369 2687 2733 
Q 2419 3097 1959 3097 
z
M 1959 3584 
Q 2709 3584 3137 3096 
Q 3566 2609 3566 1747 
Q 3566 888 3137 398 
Q 2709 -91 1959 -91 
Q 1206 -91 779 398 
Q 353 888 353 1747 
Q 353 2609 779 3096 
Q 1206 3584 1959 3584 
z
" transform="scale(0.015625)"/>
       <path id="DejaVuSans-65" d="M 3597 1894 
L 3597 1613 
L 953 1613 
Q 991 1019 1311 708 
Q 1631 397 2203 397 
Q 2534 397 2845 478 
Q 3156 559 3463 722 
L 3463 178 
Q 3153 47 2828 -22 
Q 2503 -91 2169 -91 
Q 1331 -91 842 396 
Q 353 884 353 1716 
Q 353 2575 817 3079 
Q 1281 3584 2069 3584 
Q 2775 3584 3186 3129 
Q 3597 2675 3597 1894 
z
M 3022 2063 
Q 3016 2534 2758 2815 
Q 2500 3097 2075 3097 
Q 1594 3097 1305 2825 
Q 1016 2553 972 2059 
L 3022 2063 
z
" transform="scale(0.015625)"/>
      </defs>
      <use xlink:href="#DejaVuSans-54"/>
      <use xlink:href="#DejaVuSans-72" x="46.333984"/>
      <use xlink:href="#DejaVuSans-6f" x="85.197266"/>
      <use xlink:href="#DejaVuSans-74" x="146.378906"/>
      <use xlink:href="#DejaVuSans-74" x="185.587891"/>
      <use xlink:href="#DejaVuSans-65" x="224.796875"/>
      <use xlink:href="#DejaVuSans-72" x="286.320312"/>
     </g>
    </g>
   </g>
  </g>
 </g>
 <defs>
  <clipPath id="p0fa9c61dca">
   <rect x="57.6" y="41.472" width="357.12" height="266.112"/>
  </clipPath>
 </defs>
</svg>
