<?xml version="1.0" encoding="utf-8" standalone="no"?>
<!DOCTYPE svg PUBLIC "-//W3C//DTD SVG 1.1//EN"
  "http://www.w3.org/Graphics/SVG/1.1/DTD/svg11.dtd">
<svg xmlns:xlink="http://www.w3.org/1999/xlink" width="720pt" height="504pt" viewBox="0 0 720 504" xmlns="http://www.w3.org/2000/svg" version="1.1">
 <metadata>
  <rdf:RDF xmlns:dc="http://purl.org/dc/elements/1.1/" xmlns:cc="http://creativecommons.org/ns#" xmlns:rdf="http://www.w3.org/1999/02/22-rdf-syntax-ns#">
   <cc:Work>
    <dc:type rdf:resource="http://purl.org/dc/dcmitype/StillImage"/>
    <dc:date>2024-07-12T09:23:41.276471</dc:date>
    <dc:format>image/svg+xml</dc:format>
    <dc:creator>
     <cc:Agent>
      <dc:title>Matplotlib v3.7.1, https://matplotlib.org/</dc:title>
     </cc:Agent>
    </dc:creator>
   </cc:Work>
  </rdf:RDF>
 </metadata>
 <defs>
  <style type="text/css">*{stroke-linejoin: round; stroke-linecap: butt}</style>
 </defs>
 <g id="figure_1">
  <g id="patch_1">
   <path d="M 0 504 
L 720 504 
L 720 0 
L 0 0 
z
" style="fill: #ffffff"/>
  </g>
  <g id="patch_2">
   <path d="M 174.96 448.56 
L 563.04 448.56 
L 563.04 60.48 
L 174.96 60.48 
z
" style="fill: #ffffff"/>
  </g>
  <g id="pane3d_1">
   <g id="patch_3">
    <path d="M 204.262716 352.871909 
L 332.419406 245.44843 
L 330.637906 90.52457 
L 196.348257 188.523039 
" style="fill: #f2f2f2; opacity: 0.5; stroke: #f2f2f2; stroke-linejoin: miter"/>
   </g>
  </g>
  <g id="pane3d_2">
   <g id="patch_4">
    <path d="M 332.419406 245.44843 
L 538.065167 305.221534 
L 545.40394 144.961499 
L 330.637906 90.52457 
" style="fill: #e6e6e6; opacity: 0.5; stroke: #e6e6e6; stroke-linejoin: miter"/>
   </g>
  </g>
  <g id="pane3d_3">
   <g id="patch_5">
    <path d="M 204.262716 352.871909 
L 422.257267 424.068929 
L 538.065167 305.221534 
L 332.419406 245.44843 
" style="fill: #ececec; opacity: 0.5; stroke: #ececec; stroke-linejoin: miter"/>
   </g>
  </g>
  <g id="axis3d_1">
   <g id="line2d_1">
    <path d="M 204.262716 352.871909 
L 422.257267 424.068929 
" style="fill: none; stroke: #000000; stroke-width: 0.8; stroke-linecap: square"/>
   </g>
   <g id="text_1">
    <!-- t -->
    <g transform="translate(292.177295 425.471519) scale(0.1 -0.1)">
     <defs>
      <path id="DejaVuSans-74" d="M 1172 4494 
L 1172 3500 
L 2356 3500 
L 2356 3053 
L 1172 3053 
L 1172 1153 
Q 1172 725 1289 603 
Q 1406 481 1766 481 
L 2356 481 
L 2356 0 
L 1766 0 
Q 1100 0 847 248 
Q 594 497 594 1153 
L 594 3053 
L 172 3053 
L 172 3500 
L 594 3500 
L 594 4494 
L 1172 4494 
z
" transform="scale(0.015625)"/>
     </defs>
     <use xlink:href="#DejaVuSans-74"/>
    </g>
   </g>
   <g id="Line3DCollection_1">
    <path d="M 218.713635 357.591579 
L 346.108026 249.427171 
L 344.905463 94.14098 
" style="fill: none; stroke: #b0b0b0; stroke-width: 0.8"/>
    <path d="M 246.365151 366.622564 
L 372.278533 257.033905 
L 372.193964 101.057819 
" style="fill: none; stroke: #b0b0b0; stroke-width: 0.8"/>
    <path d="M 274.3978 375.778027 
L 398.779816 264.736781 
L 399.842306 108.065868 
" style="fill: none; stroke: #b0b0b0; stroke-width: 0.8"/>
    <path d="M 302.819518 385.06056 
L 425.618185 272.537636 
L 427.857655 115.166943 
" style="fill: none; stroke: #b0b0b0; stroke-width: 0.8"/>
    <path d="M 331.638459 394.472826 
L 452.800113 280.438349 
L 456.247368 122.362907 
" style="fill: none; stroke: #b0b0b0; stroke-width: 0.8"/>
    <path d="M 360.863012 404.017565 
L 480.332239 288.440851 
L 485.018997 129.655676 
" style="fill: none; stroke: #b0b0b0; stroke-width: 0.8"/>
    <path d="M 390.501799 413.697593 
L 508.221375 296.547122 
L 514.180303 137.047217 
" style="fill: none; stroke: #b0b0b0; stroke-width: 0.8"/>
   </g>
   <g id="xtick_1">
    <g id="line2d_2">
     <path d="M 219.823006 356.649666 
L 216.490131 359.479448 
" style="fill: none; stroke: #000000; stroke-width: 0.8; stroke-linecap: square"/>
    </g>
    <g id="text_2">
     <!-- 0.175 -->
     <g transform="translate(196.880157 380.888295) scale(0.1 -0.1)">
      <defs>
       <path id="DejaVuSans-30" d="M 2034 4250 
Q 1547 4250 1301 3770 
Q 1056 3291 1056 2328 
Q 1056 1369 1301 889 
Q 1547 409 2034 409 
Q 2525 409 2770 889 
Q 3016 1369 3016 2328 
Q 3016 3291 2770 3770 
Q 2525 4250 2034 4250 
z
M 2034 4750 
Q 2819 4750 3233 4129 
Q 3647 3509 3647 2328 
Q 3647 1150 3233 529 
Q 2819 -91 2034 -91 
Q 1250 -91 836 529 
Q 422 1150 422 2328 
Q 422 3509 836 4129 
Q 1250 4750 2034 4750 
z
" transform="scale(0.015625)"/>
       <path id="DejaVuSans-2e" d="M 684 794 
L 1344 794 
L 1344 0 
L 684 0 
L 684 794 
z
" transform="scale(0.015625)"/>
       <path id="DejaVuSans-31" d="M 794 531 
L 1825 531 
L 1825 4091 
L 703 3866 
L 703 4441 
L 1819 4666 
L 2450 4666 
L 2450 531 
L 3481 531 
L 3481 0 
L 794 0 
L 794 531 
z
" transform="scale(0.015625)"/>
       <path id="DejaVuSans-37" d="M 525 4666 
L 3525 4666 
L 3525 4397 
L 1831 0 
L 1172 0 
L 2766 4134 
L 525 4134 
L 525 4666 
z
" transform="scale(0.015625)"/>
       <path id="DejaVuSans-35" d="M 691 4666 
L 3169 4666 
L 3169 4134 
L 1269 4134 
L 1269 2991 
Q 1406 3038 1543 3061 
Q 1681 3084 1819 3084 
Q 2600 3084 3056 2656 
Q 3513 2228 3513 1497 
Q 3513 744 3044 326 
Q 2575 -91 1722 -91 
Q 1428 -91 1123 -41 
Q 819 9 494 109 
L 494 744 
Q 775 591 1075 516 
Q 1375 441 1709 441 
Q 2250 441 2565 725 
Q 2881 1009 2881 1497 
Q 2881 1984 2565 2268 
Q 2250 2553 1709 2553 
Q 1456 2553 1204 2497 
Q 953 2441 691 2322 
L 691 4666 
z
" transform="scale(0.015625)"/>
      </defs>
      <use xlink:href="#DejaVuSans-30"/>
      <use xlink:href="#DejaVuSans-2e" x="63.623047"/>
      <use xlink:href="#DejaVuSans-31" x="95.410156"/>
      <use xlink:href="#DejaVuSans-37" x="159.033203"/>
      <use xlink:href="#DejaVuSans-35" x="222.65625"/>
     </g>
    </g>
   </g>
   <g id="xtick_2">
    <g id="line2d_3">
     <path d="M 247.462235 365.667717 
L 244.166241 368.536384 
" style="fill: none; stroke: #000000; stroke-width: 0.8; stroke-linecap: square"/>
    </g>
    <g id="text_3">
     <!-- 0.200 -->
     <g transform="translate(224.55098 390.050161) scale(0.1 -0.1)">
      <defs>
       <path id="DejaVuSans-32" d="M 1228 531 
L 3431 531 
L 3431 0 
L 469 0 
L 469 531 
Q 828 903 1448 1529 
Q 2069 2156 2228 2338 
Q 2531 2678 2651 2914 
Q 2772 3150 2772 3378 
Q 2772 3750 2511 3984 
Q 2250 4219 1831 4219 
Q 1534 4219 1204 4116 
Q 875 4013 500 3803 
L 500 4441 
Q 881 4594 1212 4672 
Q 1544 4750 1819 4750 
Q 2544 4750 2975 4387 
Q 3406 4025 3406 3419 
Q 3406 3131 3298 2873 
Q 3191 2616 2906 2266 
Q 2828 2175 2409 1742 
Q 1991 1309 1228 531 
z
" transform="scale(0.015625)"/>
      </defs>
      <use xlink:href="#DejaVuSans-30"/>
      <use xlink:href="#DejaVuSans-2e" x="63.623047"/>
      <use xlink:href="#DejaVuSans-32" x="95.410156"/>
      <use xlink:href="#DejaVuSans-30" x="159.033203"/>
      <use xlink:href="#DejaVuSans-30" x="222.65625"/>
     </g>
    </g>
   </g>
   <g id="xtick_3">
    <g id="line2d_4">
     <path d="M 275.482152 374.809979 
L 272.224378 377.718336 
" style="fill: none; stroke: #000000; stroke-width: 0.8; stroke-linecap: square"/>
    </g>
    <g id="text_4">
     <!-- 0.225 -->
     <g transform="translate(252.604187 399.338635) scale(0.1 -0.1)">
      <use xlink:href="#DejaVuSans-30"/>
      <use xlink:href="#DejaVuSans-2e" x="63.623047"/>
      <use xlink:href="#DejaVuSans-32" x="95.410156"/>
      <use xlink:href="#DejaVuSans-32" x="159.033203"/>
      <use xlink:href="#DejaVuSans-35" x="222.65625"/>
     </g>
    </g>
   </g>
   <g id="xtick_4">
    <g id="line2d_5">
     <path d="M 303.890677 384.079035 
L 300.672504 387.027912 
" style="fill: none; stroke: #000000; stroke-width: 0.8; stroke-linecap: square"/>
    </g>
    <g id="text_5">
     <!-- 0.250 -->
     <g transform="translate(281.04776 408.75636) scale(0.1 -0.1)">
      <use xlink:href="#DejaVuSans-30"/>
      <use xlink:href="#DejaVuSans-2e" x="63.623047"/>
      <use xlink:href="#DejaVuSans-32" x="95.410156"/>
      <use xlink:href="#DejaVuSans-35" x="159.033203"/>
      <use xlink:href="#DejaVuSans-30" x="222.65625"/>
     </g>
    </g>
   </g>
   <g id="xtick_5">
    <g id="line2d_6">
     <path d="M 332.695951 393.47754 
L 329.518809 396.467791 
" style="fill: none; stroke: #000000; stroke-width: 0.8; stroke-linecap: square"/>
    </g>
    <g id="text_6">
     <!-- 0.275 -->
     <g transform="translate(309.889904 418.306053) scale(0.1 -0.1)">
      <use xlink:href="#DejaVuSans-30"/>
      <use xlink:href="#DejaVuSans-2e" x="63.623047"/>
      <use xlink:href="#DejaVuSans-32" x="95.410156"/>
      <use xlink:href="#DejaVuSans-37" x="159.033203"/>
      <use xlink:href="#DejaVuSans-35" x="222.65625"/>
     </g>
    </g>
   </g>
   <g id="xtick_6">
    <g id="line2d_7">
     <path d="M 361.906344 403.008227 
L 358.771712 406.040727 
" style="fill: none; stroke: #000000; stroke-width: 0.8; stroke-linecap: square"/>
    </g>
    <g id="text_7">
     <!-- 0.300 -->
     <g transform="translate(339.139055 427.990507) scale(0.1 -0.1)">
      <defs>
       <path id="DejaVuSans-33" d="M 2597 2516 
Q 3050 2419 3304 2112 
Q 3559 1806 3559 1356 
Q 3559 666 3084 287 
Q 2609 -91 1734 -91 
Q 1441 -91 1130 -33 
Q 819 25 488 141 
L 488 750 
Q 750 597 1062 519 
Q 1375 441 1716 441 
Q 2309 441 2620 675 
Q 2931 909 2931 1356 
Q 2931 1769 2642 2001 
Q 2353 2234 1838 2234 
L 1294 2234 
L 1294 2753 
L 1863 2753 
Q 2328 2753 2575 2939 
Q 2822 3125 2822 3475 
Q 2822 3834 2567 4026 
Q 2313 4219 1838 4219 
Q 1578 4219 1281 4162 
Q 984 4106 628 3988 
L 628 4550 
Q 988 4650 1302 4700 
Q 1616 4750 1894 4750 
Q 2613 4750 3031 4423 
Q 3450 4097 3450 3541 
Q 3450 3153 3228 2886 
Q 3006 2619 2597 2516 
z
" transform="scale(0.015625)"/>
      </defs>
      <use xlink:href="#DejaVuSans-30"/>
      <use xlink:href="#DejaVuSans-2e" x="63.623047"/>
      <use xlink:href="#DejaVuSans-33" x="95.410156"/>
      <use xlink:href="#DejaVuSans-30" x="159.033203"/>
      <use xlink:href="#DejaVuSans-30" x="222.65625"/>
     </g>
    </g>
   </g>
   <g id="xtick_7">
    <g id="line2d_8">
     <path d="M 391.530462 412.673903 
L 388.439869 415.749555 
" style="fill: none; stroke: #000000; stroke-width: 0.8; stroke-linecap: square"/>
    </g>
    <g id="text_8">
     <!-- 0.325 -->
     <g transform="translate(368.80389 437.812595) scale(0.1 -0.1)">
      <use xlink:href="#DejaVuSans-30"/>
      <use xlink:href="#DejaVuSans-2e" x="63.623047"/>
      <use xlink:href="#DejaVuSans-33" x="95.410156"/>
      <use xlink:href="#DejaVuSans-32" x="159.033203"/>
      <use xlink:href="#DejaVuSans-35" x="222.65625"/>
     </g>
    </g>
   </g>
  </g>
  <g id="axis3d_2">
   <g id="line2d_9">
    <path d="M 538.065167 305.221534 
L 422.257267 424.068929 
" style="fill: none; stroke: #000000; stroke-width: 0.8; stroke-linecap: square"/>
   </g>
   <g id="text_9">
    <!-- si -->
    <g transform="translate(505.720053 392.74383) scale(0.1 -0.1)">
     <defs>
      <path id="DejaVuSans-73" d="M 2834 3397 
L 2834 2853 
Q 2591 2978 2328 3040 
Q 2066 3103 1784 3103 
Q 1356 3103 1142 2972 
Q 928 2841 928 2578 
Q 928 2378 1081 2264 
Q 1234 2150 1697 2047 
L 1894 2003 
Q 2506 1872 2764 1633 
Q 3022 1394 3022 966 
Q 3022 478 2636 193 
Q 2250 -91 1575 -91 
Q 1294 -91 989 -36 
Q 684 19 347 128 
L 347 722 
Q 666 556 975 473 
Q 1284 391 1588 391 
Q 1994 391 2212 530 
Q 2431 669 2431 922 
Q 2431 1156 2273 1281 
Q 2116 1406 1581 1522 
L 1381 1569 
Q 847 1681 609 1914 
Q 372 2147 372 2553 
Q 372 3047 722 3315 
Q 1072 3584 1716 3584 
Q 2034 3584 2315 3537 
Q 2597 3491 2834 3397 
z
" transform="scale(0.015625)"/>
      <path id="DejaVuSans-69" d="M 603 3500 
L 1178 3500 
L 1178 0 
L 603 0 
L 603 3500 
z
M 603 4863 
L 1178 4863 
L 1178 4134 
L 603 4134 
L 603 4863 
z
" transform="scale(0.015625)"/>
     </defs>
     <use xlink:href="#DejaVuSans-73"/>
     <use xlink:href="#DejaVuSans-69" x="52.099609"/>
    </g>
   </g>
   <g id="Line3DCollection_2">
    <path d="M 218.784482 172.150104 
L 225.606652 334.980998 
L 441.615643 404.202473 
" style="fill: none; stroke: #b0b0b0; stroke-width: 0.8"/>
    <path d="M 247.309133 151.334113 
L 252.78169 312.202343 
L 466.221452 378.95086 
" style="fill: none; stroke: #b0b0b0; stroke-width: 0.8"/>
    <path d="M 274.805449 131.268554 
L 279.018554 290.210083 
L 489.934089 354.615861 
" style="fill: none; stroke: #b0b0b0; stroke-width: 0.8"/>
    <path d="M 301.328053 111.913566 
L 304.365005 268.964186 
L 512.801319 331.148457 
" style="fill: none; stroke: #b0b0b0; stroke-width: 0.8"/>
    <path d="M 326.927767 93.23206 
L 328.865612 248.427291 
L 534.867562 308.503064 
" style="fill: none; stroke: #b0b0b0; stroke-width: 0.8"/>
   </g>
   <g id="xtick_8">
    <g id="line2d_10">
     <path d="M 439.796108 403.619391 
L 445.259379 405.370132 
" style="fill: none; stroke: #000000; stroke-width: 0.8; stroke-linecap: square"/>
    </g>
    <g id="text_10">
     <!-- −0.15 -->
     <g transform="translate(439.066935 425.103471) scale(0.1 -0.1)">
      <defs>
       <path id="DejaVuSans-2212" d="M 678 2272 
L 4684 2272 
L 4684 1741 
L 678 1741 
L 678 2272 
z
" transform="scale(0.015625)"/>
      </defs>
      <use xlink:href="#DejaVuSans-2212"/>
      <use xlink:href="#DejaVuSans-30" x="83.789062"/>
      <use xlink:href="#DejaVuSans-2e" x="147.412109"/>
      <use xlink:href="#DejaVuSans-31" x="179.199219"/>
      <use xlink:href="#DejaVuSans-35" x="242.822266"/>
     </g>
    </g>
   </g>
   <g id="xtick_9">
    <g id="line2d_11">
     <path d="M 464.425228 378.389131 
L 469.818419 380.075731 
" style="fill: none; stroke: #000000; stroke-width: 0.8; stroke-linecap: square"/>
    </g>
    <g id="text_11">
     <!-- −0.10 -->
     <g transform="translate(463.446352 399.595772) scale(0.1 -0.1)">
      <use xlink:href="#DejaVuSans-2212"/>
      <use xlink:href="#DejaVuSans-30" x="83.789062"/>
      <use xlink:href="#DejaVuSans-2e" x="147.412109"/>
      <use xlink:href="#DejaVuSans-31" x="179.199219"/>
      <use xlink:href="#DejaVuSans-30" x="242.822266"/>
     </g>
    </g>
   </g>
   <g id="xtick_10">
    <g id="line2d_12">
     <path d="M 488.160698 354.074334 
L 493.485252 355.700255 
" style="fill: none; stroke: #000000; stroke-width: 0.8; stroke-linecap: square"/>
    </g>
    <g id="text_12">
     <!-- −0.05 -->
     <g transform="translate(486.940468 375.014346) scale(0.1 -0.1)">
      <use xlink:href="#DejaVuSans-2212"/>
      <use xlink:href="#DejaVuSans-30" x="83.789062"/>
      <use xlink:href="#DejaVuSans-2e" x="147.412109"/>
      <use xlink:href="#DejaVuSans-30" x="179.199219"/>
      <use xlink:href="#DejaVuSans-35" x="242.822266"/>
     </g>
    </g>
   </g>
   <g id="xtick_11">
    <g id="line2d_13">
     <path d="M 511.05029 330.626061 
L 516.307628 332.194519 
" style="fill: none; stroke: #000000; stroke-width: 0.8; stroke-linecap: square"/>
    </g>
    <g id="text_13">
     <!-- 0.00 -->
     <g transform="translate(513.786489 351.309639) scale(0.1 -0.1)">
      <use xlink:href="#DejaVuSans-30"/>
      <use xlink:href="#DejaVuSans-2e" x="63.623047"/>
      <use xlink:href="#DejaVuSans-30" x="95.410156"/>
      <use xlink:href="#DejaVuSans-30" x="159.033203"/>
     </g>
    </g>
   </g>
   <g id="xtick_12">
    <g id="line2d_14">
     <path d="M 533.138429 307.998801 
L 538.329952 309.512791 
" style="fill: none; stroke: #000000; stroke-width: 0.8; stroke-linecap: square"/>
    </g>
    <g id="text_14">
     <!-- 0.05 -->
     <g transform="translate(535.648771 328.435568) scale(0.1 -0.1)">
      <use xlink:href="#DejaVuSans-30"/>
      <use xlink:href="#DejaVuSans-2e" x="63.623047"/>
      <use xlink:href="#DejaVuSans-30" x="95.410156"/>
      <use xlink:href="#DejaVuSans-35" x="159.033203"/>
     </g>
    </g>
   </g>
  </g>
  <g id="axis3d_3">
   <g id="line2d_15">
    <path d="M 538.065167 305.221534 
L 545.40394 144.961499 
" style="fill: none; stroke: #000000; stroke-width: 0.8; stroke-linecap: square"/>
   </g>
   <g id="Line3DCollection_3">
    <path d="M 538.958137 285.721361 
L 332.202234 226.562573 
L 203.301123 332.90381 
" style="fill: none; stroke: #b0b0b0; stroke-width: 0.8"/>
    <path d="M 540.084928 261.115132 
L 331.928355 202.745368 
L 202.087178 307.695442 
" style="fill: none; stroke: #b0b0b0; stroke-width: 0.8"/>
    <path d="M 541.227241 236.169926 
L 331.650885 178.61582 
L 200.855867 282.12648 
" style="fill: none; stroke: #b0b0b0; stroke-width: 0.8"/>
    <path d="M 542.3854 210.87869 
L 331.369751 154.167742 
L 199.606816 256.189133 
" style="fill: none; stroke: #b0b0b0; stroke-width: 0.8"/>
    <path d="M 543.559737 185.234175 
L 331.084882 129.394786 
L 198.339639 229.875381 
" style="fill: none; stroke: #b0b0b0; stroke-width: 0.8"/>
    <path d="M 544.750593 159.228926 
L 330.796202 104.290433 
L 197.053939 203.17697 
" style="fill: none; stroke: #b0b0b0; stroke-width: 0.8"/>
   </g>
   <g id="xtick_13">
    <g id="line2d_16">
     <path d="M 537.222443 285.224729 
L 542.433676 286.715812 
" style="fill: none; stroke: #000000; stroke-width: 0.8; stroke-linecap: square"/>
    </g>
    <g id="text_15">
     <!-- 0.34 -->
     <g transform="translate(546.188687 290.738508) scale(0.1 -0.1)">
      <defs>
       <path id="DejaVuSans-34" d="M 2419 4116 
L 825 1625 
L 2419 1625 
L 2419 4116 
z
M 2253 4666 
L 3047 4666 
L 3047 1625 
L 3713 1625 
L 3713 1100 
L 3047 1100 
L 3047 0 
L 2419 0 
L 2419 1100 
L 313 1100 
L 313 1709 
L 2253 4666 
z
" transform="scale(0.015625)"/>
      </defs>
      <use xlink:href="#DejaVuSans-30"/>
      <use xlink:href="#DejaVuSans-2e" x="63.623047"/>
      <use xlink:href="#DejaVuSans-33" x="95.410156"/>
      <use xlink:href="#DejaVuSans-34" x="159.033203"/>
     </g>
    </g>
   </g>
   <g id="xtick_14">
    <g id="line2d_17">
     <path d="M 538.336913 260.624966 
L 543.585166 262.096643 
" style="fill: none; stroke: #000000; stroke-width: 0.8; stroke-linecap: square"/>
    </g>
    <g id="text_16">
     <!-- 0.36 -->
     <g transform="translate(547.438491 266.165916) scale(0.1 -0.1)">
      <defs>
       <path id="DejaVuSans-36" d="M 2113 2584 
Q 1688 2584 1439 2293 
Q 1191 2003 1191 1497 
Q 1191 994 1439 701 
Q 1688 409 2113 409 
Q 2538 409 2786 701 
Q 3034 994 3034 1497 
Q 3034 2003 2786 2293 
Q 2538 2584 2113 2584 
z
M 3366 4563 
L 3366 3988 
Q 3128 4100 2886 4159 
Q 2644 4219 2406 4219 
Q 1781 4219 1451 3797 
Q 1122 3375 1075 2522 
Q 1259 2794 1537 2939 
Q 1816 3084 2150 3084 
Q 2853 3084 3261 2657 
Q 3669 2231 3669 1497 
Q 3669 778 3244 343 
Q 2819 -91 2113 -91 
Q 1303 -91 875 529 
Q 447 1150 447 2328 
Q 447 3434 972 4092 
Q 1497 4750 2381 4750 
Q 2619 4750 2861 4703 
Q 3103 4656 3366 4563 
z
" transform="scale(0.015625)"/>
      </defs>
      <use xlink:href="#DejaVuSans-30"/>
      <use xlink:href="#DejaVuSans-2e" x="63.623047"/>
      <use xlink:href="#DejaVuSans-33" x="95.410156"/>
      <use xlink:href="#DejaVuSans-36" x="159.033203"/>
     </g>
    </g>
   </g>
   <g id="xtick_15">
    <g id="line2d_18">
     <path d="M 539.46673 235.686452 
L 544.752531 237.138045 
" style="fill: none; stroke: #000000; stroke-width: 0.8; stroke-linecap: square"/>
    </g>
    <g id="text_17">
     <!-- 0.38 -->
     <g transform="translate(548.705476 241.255521) scale(0.1 -0.1)">
      <defs>
       <path id="DejaVuSans-38" d="M 2034 2216 
Q 1584 2216 1326 1975 
Q 1069 1734 1069 1313 
Q 1069 891 1326 650 
Q 1584 409 2034 409 
Q 2484 409 2743 651 
Q 3003 894 3003 1313 
Q 3003 1734 2745 1975 
Q 2488 2216 2034 2216 
z
M 1403 2484 
Q 997 2584 770 2862 
Q 544 3141 544 3541 
Q 544 4100 942 4425 
Q 1341 4750 2034 4750 
Q 2731 4750 3128 4425 
Q 3525 4100 3525 3541 
Q 3525 3141 3298 2862 
Q 3072 2584 2669 2484 
Q 3125 2378 3379 2068 
Q 3634 1759 3634 1313 
Q 3634 634 3220 271 
Q 2806 -91 2034 -91 
Q 1263 -91 848 271 
Q 434 634 434 1313 
Q 434 1759 690 2068 
Q 947 2378 1403 2484 
z
M 1172 3481 
Q 1172 3119 1398 2916 
Q 1625 2713 2034 2713 
Q 2441 2713 2670 2916 
Q 2900 3119 2900 3481 
Q 2900 3844 2670 4047 
Q 2441 4250 2034 4250 
Q 1625 4250 1398 4047 
Q 1172 3844 1172 3481 
z
" transform="scale(0.015625)"/>
      </defs>
      <use xlink:href="#DejaVuSans-30"/>
      <use xlink:href="#DejaVuSans-2e" x="63.623047"/>
      <use xlink:href="#DejaVuSans-33" x="95.410156"/>
      <use xlink:href="#DejaVuSans-38" x="159.033203"/>
     </g>
    </g>
   </g>
   <g id="xtick_16">
    <g id="line2d_19">
     <path d="M 540.612213 210.402142 
L 545.936103 211.83295 
" style="fill: none; stroke: #000000; stroke-width: 0.8; stroke-linecap: square"/>
    </g>
    <g id="text_18">
     <!-- 0.40 -->
     <g transform="translate(549.989998 216.000309) scale(0.1 -0.1)">
      <use xlink:href="#DejaVuSans-30"/>
      <use xlink:href="#DejaVuSans-2e" x="63.623047"/>
      <use xlink:href="#DejaVuSans-34" x="95.410156"/>
      <use xlink:href="#DejaVuSans-30" x="159.033203"/>
     </g>
    </g>
   </g>
   <g id="xtick_17">
    <g id="line2d_20">
     <path d="M 541.77369 184.764794 
L 547.136222 186.174092 
" style="fill: none; stroke: #000000; stroke-width: 0.8; stroke-linecap: square"/>
    </g>
    <g id="text_19">
     <!-- 0.42 -->
     <g transform="translate(551.292426 190.393071) scale(0.1 -0.1)">
      <use xlink:href="#DejaVuSans-30"/>
      <use xlink:href="#DejaVuSans-2e" x="63.623047"/>
      <use xlink:href="#DejaVuSans-34" x="95.410156"/>
      <use xlink:href="#DejaVuSans-32" x="159.033203"/>
     </g>
    </g>
   </g>
   <g id="xtick_18">
    <g id="line2d_21">
     <path d="M 542.951498 158.76696 
L 548.353236 160.154 
" style="fill: none; stroke: #000000; stroke-width: 0.8; stroke-linecap: square"/>
    </g>
    <g id="text_20">
     <!-- 0.44 -->
     <g transform="translate(552.613135 164.426395) scale(0.1 -0.1)">
      <use xlink:href="#DejaVuSans-30"/>
      <use xlink:href="#DejaVuSans-2e" x="63.623047"/>
      <use xlink:href="#DejaVuSans-34" x="95.410156"/>
      <use xlink:href="#DejaVuSans-34" x="159.033203"/>
     </g>
    </g>
   </g>
  </g>
  <g id="axes_1">
   <g id="Path3DCollection_1">
    <defs>
     <path id="C0_0_688320fd5c" d="M 0 2.236068 
C 0.593012 2.236068 1.161816 2.000462 1.581139 1.581139 
C 2.000462 1.161816 2.236068 0.593012 2.236068 -0 
C 2.236068 -0.593012 2.000462 -1.161816 1.581139 -1.581139 
C 1.161816 -2.000462 0.593012 -2.236068 0 -2.236068 
C -0.593012 -2.236068 -1.161816 -2.000462 -1.581139 -1.581139 
C -2.000462 -1.161816 -2.236068 -0.593012 -2.236068 0 
C -2.236068 0.593012 -2.000462 1.161816 -1.581139 1.581139 
C -1.161816 2.000462 -0.593012 2.236068 0 2.236068 
z
"/>
    </defs>
    <g clip-path="url(#p76f037ecb2)">
     <use xlink:href="#C0_0_688320fd5c" x="517.938735" y="298.348229" style="fill: #008000; fill-opacity: 0.3; stroke: #008000; stroke-opacity: 0.3"/>
    </g>
    <g clip-path="url(#p76f037ecb2)">
     <use xlink:href="#C0_0_688320fd5c" x="515.194669" y="294.056726" style="fill: #008000; fill-opacity: 0.309075; stroke: #008000; stroke-opacity: 0.309075"/>
    </g>
    <g clip-path="url(#p76f037ecb2)">
     <use xlink:href="#C0_0_688320fd5c" x="512.353509" y="289.767965" style="fill: #008000; fill-opacity: 0.318301; stroke: #008000; stroke-opacity: 0.318301"/>
    </g>
    <g clip-path="url(#p76f037ecb2)">
     <use xlink:href="#C0_0_688320fd5c" x="509.414315" y="285.485933" style="fill: #008000; fill-opacity: 0.327681; stroke: #008000; stroke-opacity: 0.327681"/>
    </g>
    <g clip-path="url(#p76f037ecb2)">
     <use xlink:href="#C0_0_688320fd5c" x="506.37636" y="281.214954" style="fill: #008000; fill-opacity: 0.337214; stroke: #008000; stroke-opacity: 0.337214"/>
    </g>
    <g clip-path="url(#p76f037ecb2)">
     <use xlink:href="#C0_0_688320fd5c" x="503.238868" y="276.959316" style="fill: #008000; fill-opacity: 0.346903; stroke: #008000; stroke-opacity: 0.346903"/>
    </g>
    <g clip-path="url(#p76f037ecb2)">
     <use xlink:href="#C0_0_688320fd5c" x="500.001312" y="272.723589" style="fill: #008000; fill-opacity: 0.356747; stroke: #008000; stroke-opacity: 0.356747"/>
    </g>
    <g clip-path="url(#p76f037ecb2)">
     <use xlink:href="#C0_0_688320fd5c" x="496.663196" y="268.512247" style="fill: #008000; fill-opacity: 0.366748; stroke: #008000; stroke-opacity: 0.366748"/>
    </g>
    <g clip-path="url(#p76f037ecb2)">
     <use xlink:href="#C0_0_688320fd5c" x="493.22418" y="264.330086" style="fill: #008000; fill-opacity: 0.376905; stroke: #008000; stroke-opacity: 0.376905"/>
    </g>
    <g clip-path="url(#p76f037ecb2)">
     <use xlink:href="#C0_0_688320fd5c" x="489.684094" y="260.181779" style="fill: #008000; fill-opacity: 0.387217; stroke: #008000; stroke-opacity: 0.387217"/>
    </g>
    <g clip-path="url(#p76f037ecb2)">
     <use xlink:href="#C0_0_688320fd5c" x="486.042763" y="256.072192" style="fill: #008000; fill-opacity: 0.397686; stroke: #008000; stroke-opacity: 0.397686"/>
    </g>
    <g clip-path="url(#p76f037ecb2)">
     <use xlink:href="#C0_0_688320fd5c" x="482.300321" y="252.00633" style="fill: #008000; fill-opacity: 0.408308; stroke: #008000; stroke-opacity: 0.408308"/>
    </g>
    <g clip-path="url(#p76f037ecb2)">
     <use xlink:href="#C0_0_688320fd5c" x="478.456912" y="247.989166" style="fill: #008000; fill-opacity: 0.419084; stroke: #008000; stroke-opacity: 0.419084"/>
    </g>
    <g clip-path="url(#p76f037ecb2)">
     <use xlink:href="#C0_0_688320fd5c" x="474.512852" y="244.025926" style="fill: #008000; fill-opacity: 0.430012; stroke: #008000; stroke-opacity: 0.430012"/>
    </g>
    <g clip-path="url(#p76f037ecb2)">
     <use xlink:href="#C0_0_688320fd5c" x="470.468552" y="240.121525" style="fill: #008000; fill-opacity: 0.44109; stroke: #008000; stroke-opacity: 0.44109"/>
    </g>
    <g clip-path="url(#p76f037ecb2)">
     <use xlink:href="#C0_0_688320fd5c" x="466.324696" y="236.281451" style="fill: #008000; fill-opacity: 0.452315; stroke: #008000; stroke-opacity: 0.452315"/>
    </g>
    <g clip-path="url(#p76f037ecb2)">
     <use xlink:href="#C0_0_688320fd5c" x="462.081936" y="232.510702" style="fill: #008000; fill-opacity: 0.463685; stroke: #008000; stroke-opacity: 0.463685"/>
    </g>
    <g clip-path="url(#p76f037ecb2)">
     <use xlink:href="#C0_0_688320fd5c" x="457.741175" y="228.814834" style="fill: #008000; fill-opacity: 0.475197; stroke: #008000; stroke-opacity: 0.475197"/>
    </g>
    <g clip-path="url(#p76f037ecb2)">
     <use xlink:href="#C0_0_688320fd5c" x="453.303489" y="225.199044" style="fill: #008000; fill-opacity: 0.486848; stroke: #008000; stroke-opacity: 0.486848"/>
    </g>
    <g clip-path="url(#p76f037ecb2)">
     <use xlink:href="#C0_0_688320fd5c" x="448.770018" y="221.668659" style="fill: #008000; fill-opacity: 0.498635; stroke: #008000; stroke-opacity: 0.498635"/>
    </g>
    <g clip-path="url(#p76f037ecb2)">
     <use xlink:href="#C0_0_688320fd5c" x="444.142068" y="218.229166" style="fill: #008000; fill-opacity: 0.510553; stroke: #008000; stroke-opacity: 0.510553"/>
    </g>
    <g clip-path="url(#p76f037ecb2)">
     <use xlink:href="#C0_0_688320fd5c" x="439.421127" y="214.88599" style="fill: #008000; fill-opacity: 0.522598; stroke: #008000; stroke-opacity: 0.522598"/>
    </g>
    <g clip-path="url(#p76f037ecb2)">
     <use xlink:href="#C0_0_688320fd5c" x="434.608828" y="211.644403" style="fill: #008000; fill-opacity: 0.534765; stroke: #008000; stroke-opacity: 0.534765"/>
    </g>
    <g clip-path="url(#p76f037ecb2)">
     <use xlink:href="#C0_0_688320fd5c" x="429.70695" y="208.509826" style="fill: #008000; fill-opacity: 0.547049; stroke: #008000; stroke-opacity: 0.547049"/>
    </g>
    <g clip-path="url(#p76f037ecb2)">
     <use xlink:href="#C0_0_688320fd5c" x="424.71742" y="205.487761" style="fill: #008000; fill-opacity: 0.559446; stroke: #008000; stroke-opacity: 0.559446"/>
    </g>
    <g clip-path="url(#p76f037ecb2)">
     <use xlink:href="#C0_0_688320fd5c" x="419.642295" y="202.583389" style="fill: #008000; fill-opacity: 0.571948; stroke: #008000; stroke-opacity: 0.571948"/>
    </g>
    <g clip-path="url(#p76f037ecb2)">
     <use xlink:href="#C0_0_688320fd5c" x="414.483818" y="199.802055" style="fill: #008000; fill-opacity: 0.584551; stroke: #008000; stroke-opacity: 0.584551"/>
    </g>
    <g clip-path="url(#p76f037ecb2)">
     <use xlink:href="#C0_0_688320fd5c" x="409.244426" y="197.149186" style="fill: #008000; fill-opacity: 0.597248; stroke: #008000; stroke-opacity: 0.597248"/>
    </g>
    <g clip-path="url(#p76f037ecb2)">
     <use xlink:href="#C0_0_688320fd5c" x="403.926556" y="194.629775" style="fill: #008000; fill-opacity: 0.610032; stroke: #008000; stroke-opacity: 0.610032"/>
    </g>
    <g clip-path="url(#p76f037ecb2)">
     <use xlink:href="#C0_0_688320fd5c" x="398.532975" y="192.249168" style="fill: #008000; fill-opacity: 0.622895; stroke: #008000; stroke-opacity: 0.622895"/>
    </g>
    <g clip-path="url(#p76f037ecb2)">
     <use xlink:href="#C0_0_688320fd5c" x="393.066489" y="190.012357" style="fill: #008000; fill-opacity: 0.635831; stroke: #008000; stroke-opacity: 0.635831"/>
    </g>
    <g clip-path="url(#p76f037ecb2)">
     <use xlink:href="#C0_0_688320fd5c" x="387.530072" y="187.924408" style="fill: #008000; fill-opacity: 0.648833; stroke: #008000; stroke-opacity: 0.648833"/>
    </g>
    <g clip-path="url(#p76f037ecb2)">
     <use xlink:href="#C0_0_688320fd5c" x="381.926839" y="185.990215" style="fill: #008000; fill-opacity: 0.66189; stroke: #008000; stroke-opacity: 0.66189"/>
    </g>
    <g clip-path="url(#p76f037ecb2)">
     <use xlink:href="#C0_0_688320fd5c" x="376.260063" y="184.214506" style="fill: #008000; fill-opacity: 0.674997; stroke: #008000; stroke-opacity: 0.674997"/>
    </g>
    <g clip-path="url(#p76f037ecb2)">
     <use xlink:href="#C0_0_688320fd5c" x="370.533166" y="182.602064" style="fill: #008000; fill-opacity: 0.688143; stroke: #008000; stroke-opacity: 0.688143"/>
    </g>
    <g clip-path="url(#p76f037ecb2)">
     <use xlink:href="#C0_0_688320fd5c" x="364.74969" y="181.157496" style="fill: #008000; fill-opacity: 0.701321; stroke: #008000; stroke-opacity: 0.701321"/>
    </g>
    <g clip-path="url(#p76f037ecb2)">
     <use xlink:href="#C0_0_688320fd5c" x="358.913327" y="179.885232" style="fill: #008000; fill-opacity: 0.71452; stroke: #008000; stroke-opacity: 0.71452"/>
    </g>
    <g clip-path="url(#p76f037ecb2)">
     <use xlink:href="#C0_0_688320fd5c" x="353.027886" y="178.789587" style="fill: #008000; fill-opacity: 0.727731; stroke: #008000; stroke-opacity: 0.727731"/>
    </g>
    <g clip-path="url(#p76f037ecb2)">
     <use xlink:href="#C0_0_688320fd5c" x="347.097318" y="177.8747" style="fill: #008000; fill-opacity: 0.740946; stroke: #008000; stroke-opacity: 0.740946"/>
    </g>
    <g clip-path="url(#p76f037ecb2)">
     <use xlink:href="#C0_0_688320fd5c" x="341.125696" y="177.144593" style="fill: #008000; fill-opacity: 0.754153; stroke: #008000; stroke-opacity: 0.754153"/>
    </g>
    <g clip-path="url(#p76f037ecb2)">
     <use xlink:href="#C0_0_688320fd5c" x="335.117178" y="176.603175" style="fill: #008000; fill-opacity: 0.767342; stroke: #008000; stroke-opacity: 0.767342"/>
    </g>
    <g clip-path="url(#p76f037ecb2)">
     <use xlink:href="#C0_0_688320fd5c" x="329.076105" y="176.254005" style="fill: #008000; fill-opacity: 0.780504; stroke: #008000; stroke-opacity: 0.780504"/>
    </g>
    <g clip-path="url(#p76f037ecb2)">
     <use xlink:href="#C0_0_688320fd5c" x="323.006889" y="176.100596" style="fill: #008000; fill-opacity: 0.793627; stroke: #008000; stroke-opacity: 0.793627"/>
    </g>
    <g clip-path="url(#p76f037ecb2)">
     <use xlink:href="#C0_0_688320fd5c" x="316.914034" y="176.146263" style="fill: #008000; fill-opacity: 0.806701; stroke: #008000; stroke-opacity: 0.806701"/>
    </g>
    <g clip-path="url(#p76f037ecb2)">
     <use xlink:href="#C0_0_688320fd5c" x="310.802194" y="176.393964" style="fill: #008000; fill-opacity: 0.819715; stroke: #008000; stroke-opacity: 0.819715"/>
    </g>
    <g clip-path="url(#p76f037ecb2)">
     <use xlink:href="#C0_0_688320fd5c" x="304.676061" y="176.846742" style="fill: #008000; fill-opacity: 0.832657; stroke: #008000; stroke-opacity: 0.832657"/>
    </g>
    <g clip-path="url(#p76f037ecb2)">
     <use xlink:href="#C0_0_688320fd5c" x="298.540433" y="177.50705" style="fill: #008000; fill-opacity: 0.845518; stroke: #008000; stroke-opacity: 0.845518"/>
    </g>
    <g clip-path="url(#p76f037ecb2)">
     <use xlink:href="#C0_0_688320fd5c" x="292.400231" y="178.377364" style="fill: #008000; fill-opacity: 0.858284; stroke: #008000; stroke-opacity: 0.858284"/>
    </g>
    <g clip-path="url(#p76f037ecb2)">
     <use xlink:href="#C0_0_688320fd5c" x="286.260388" y="179.459851" style="fill: #008000; fill-opacity: 0.870946; stroke: #008000; stroke-opacity: 0.870946"/>
    </g>
    <g clip-path="url(#p76f037ecb2)">
     <use xlink:href="#C0_0_688320fd5c" x="280.125956" y="180.756388" style="fill: #008000; fill-opacity: 0.883491; stroke: #008000; stroke-opacity: 0.883491"/>
    </g>
    <g clip-path="url(#p76f037ecb2)">
     <use xlink:href="#C0_0_688320fd5c" x="274.00201" y="182.268772" style="fill: #008000; fill-opacity: 0.895908; stroke: #008000; stroke-opacity: 0.895908"/>
    </g>
    <g clip-path="url(#p76f037ecb2)">
     <use xlink:href="#C0_0_688320fd5c" x="267.893705" y="183.99827" style="fill: #008000; fill-opacity: 0.908185; stroke: #008000; stroke-opacity: 0.908185"/>
    </g>
    <g clip-path="url(#p76f037ecb2)">
     <use xlink:href="#C0_0_688320fd5c" x="261.80622" y="185.946058" style="fill: #008000; fill-opacity: 0.920311; stroke: #008000; stroke-opacity: 0.920311"/>
    </g>
    <g clip-path="url(#p76f037ecb2)">
     <use xlink:href="#C0_0_688320fd5c" x="255.744796" y="188.113012" style="fill: #008000; fill-opacity: 0.932275; stroke: #008000; stroke-opacity: 0.932275"/>
    </g>
    <g clip-path="url(#p76f037ecb2)">
     <use xlink:href="#C0_0_688320fd5c" x="249.714687" y="190.499772" style="fill: #008000; fill-opacity: 0.944064; stroke: #008000; stroke-opacity: 0.944064"/>
    </g>
    <g clip-path="url(#p76f037ecb2)">
     <use xlink:href="#C0_0_688320fd5c" x="243.721167" y="193.106483" style="fill: #008000; fill-opacity: 0.955668; stroke: #008000; stroke-opacity: 0.955668"/>
    </g>
    <g clip-path="url(#p76f037ecb2)">
     <use xlink:href="#C0_0_688320fd5c" x="237.769519" y="195.933394" style="fill: #008000; fill-opacity: 0.967074; stroke: #008000; stroke-opacity: 0.967074"/>
    </g>
    <g clip-path="url(#p76f037ecb2)">
     <use xlink:href="#C0_0_688320fd5c" x="231.865025" y="198.979998" style="fill: #008000; fill-opacity: 0.978273; stroke: #008000; stroke-opacity: 0.978273"/>
    </g>
    <g clip-path="url(#p76f037ecb2)">
     <use xlink:href="#C0_0_688320fd5c" x="226.012988" y="202.245893" style="fill: #008000; fill-opacity: 0.989252; stroke: #008000; stroke-opacity: 0.989252"/>
    </g>
    <g clip-path="url(#p76f037ecb2)">
     <use xlink:href="#C0_0_688320fd5c" x="220.218648" y="205.730171" style="fill: #008000; stroke: #008000"/>
    </g>
   </g>
   <g id="text_21">
    <!-- Average magnetic moment on site 2 -->
    <g transform="translate(259.349063 54.48) scale(0.12 -0.12)">
     <defs>
      <path id="DejaVuSans-41" d="M 2188 4044 
L 1331 1722 
L 3047 1722 
L 2188 4044 
z
M 1831 4666 
L 2547 4666 
L 4325 0 
L 3669 0 
L 3244 1197 
L 1141 1197 
L 716 0 
L 50 0 
L 1831 4666 
z
" transform="scale(0.015625)"/>
      <path id="DejaVuSans-76" d="M 191 3500 
L 800 3500 
L 1894 563 
L 2988 3500 
L 3597 3500 
L 2284 0 
L 1503 0 
L 191 3500 
z
" transform="scale(0.015625)"/>
      <path id="DejaVuSans-65" d="M 3597 1894 
L 3597 1613 
L 953 1613 
Q 991 1019 1311 708 
Q 1631 397 2203 397 
Q 2534 397 2845 478 
Q 3156 559 3463 722 
L 3463 178 
Q 3153 47 2828 -22 
Q 2503 -91 2169 -91 
Q 1331 -91 842 396 
Q 353 884 353 1716 
Q 353 2575 817 3079 
Q 1281 3584 2069 3584 
Q 2775 3584 3186 3129 
Q 3597 2675 3597 1894 
z
M 3022 2063 
Q 3016 2534 2758 2815 
Q 2500 3097 2075 3097 
Q 1594 3097 1305 2825 
Q 1016 2553 972 2059 
L 3022 2063 
z
" transform="scale(0.015625)"/>
      <path id="DejaVuSans-72" d="M 2631 2963 
Q 2534 3019 2420 3045 
Q 2306 3072 2169 3072 
Q 1681 3072 1420 2755 
Q 1159 2438 1159 1844 
L 1159 0 
L 581 0 
L 581 3500 
L 1159 3500 
L 1159 2956 
Q 1341 3275 1631 3429 
Q 1922 3584 2338 3584 
Q 2397 3584 2469 3576 
Q 2541 3569 2628 3553 
L 2631 2963 
z
" transform="scale(0.015625)"/>
      <path id="DejaVuSans-61" d="M 2194 1759 
Q 1497 1759 1228 1600 
Q 959 1441 959 1056 
Q 959 750 1161 570 
Q 1363 391 1709 391 
Q 2188 391 2477 730 
Q 2766 1069 2766 1631 
L 2766 1759 
L 2194 1759 
z
M 3341 1997 
L 3341 0 
L 2766 0 
L 2766 531 
Q 2569 213 2275 61 
Q 1981 -91 1556 -91 
Q 1019 -91 701 211 
Q 384 513 384 1019 
Q 384 1609 779 1909 
Q 1175 2209 1959 2209 
L 2766 2209 
L 2766 2266 
Q 2766 2663 2505 2880 
Q 2244 3097 1772 3097 
Q 1472 3097 1187 3025 
Q 903 2953 641 2809 
L 641 3341 
Q 956 3463 1253 3523 
Q 1550 3584 1831 3584 
Q 2591 3584 2966 3190 
Q 3341 2797 3341 1997 
z
" transform="scale(0.015625)"/>
      <path id="DejaVuSans-67" d="M 2906 1791 
Q 2906 2416 2648 2759 
Q 2391 3103 1925 3103 
Q 1463 3103 1205 2759 
Q 947 2416 947 1791 
Q 947 1169 1205 825 
Q 1463 481 1925 481 
Q 2391 481 2648 825 
Q 2906 1169 2906 1791 
z
M 3481 434 
Q 3481 -459 3084 -895 
Q 2688 -1331 1869 -1331 
Q 1566 -1331 1297 -1286 
Q 1028 -1241 775 -1147 
L 775 -588 
Q 1028 -725 1275 -790 
Q 1522 -856 1778 -856 
Q 2344 -856 2625 -561 
Q 2906 -266 2906 331 
L 2906 616 
Q 2728 306 2450 153 
Q 2172 0 1784 0 
Q 1141 0 747 490 
Q 353 981 353 1791 
Q 353 2603 747 3093 
Q 1141 3584 1784 3584 
Q 2172 3584 2450 3431 
Q 2728 3278 2906 2969 
L 2906 3500 
L 3481 3500 
L 3481 434 
z
" transform="scale(0.015625)"/>
      <path id="DejaVuSans-20" transform="scale(0.015625)"/>
      <path id="DejaVuSans-6d" d="M 3328 2828 
Q 3544 3216 3844 3400 
Q 4144 3584 4550 3584 
Q 5097 3584 5394 3201 
Q 5691 2819 5691 2113 
L 5691 0 
L 5113 0 
L 5113 2094 
Q 5113 2597 4934 2840 
Q 4756 3084 4391 3084 
Q 3944 3084 3684 2787 
Q 3425 2491 3425 1978 
L 3425 0 
L 2847 0 
L 2847 2094 
Q 2847 2600 2669 2842 
Q 2491 3084 2119 3084 
Q 1678 3084 1418 2786 
Q 1159 2488 1159 1978 
L 1159 0 
L 581 0 
L 581 3500 
L 1159 3500 
L 1159 2956 
Q 1356 3278 1631 3431 
Q 1906 3584 2284 3584 
Q 2666 3584 2933 3390 
Q 3200 3197 3328 2828 
z
" transform="scale(0.015625)"/>
      <path id="DejaVuSans-6e" d="M 3513 2113 
L 3513 0 
L 2938 0 
L 2938 2094 
Q 2938 2591 2744 2837 
Q 2550 3084 2163 3084 
Q 1697 3084 1428 2787 
Q 1159 2491 1159 1978 
L 1159 0 
L 581 0 
L 581 3500 
L 1159 3500 
L 1159 2956 
Q 1366 3272 1645 3428 
Q 1925 3584 2291 3584 
Q 2894 3584 3203 3211 
Q 3513 2838 3513 2113 
z
" transform="scale(0.015625)"/>
      <path id="DejaVuSans-63" d="M 3122 3366 
L 3122 2828 
Q 2878 2963 2633 3030 
Q 2388 3097 2138 3097 
Q 1578 3097 1268 2742 
Q 959 2388 959 1747 
Q 959 1106 1268 751 
Q 1578 397 2138 397 
Q 2388 397 2633 464 
Q 2878 531 3122 666 
L 3122 134 
Q 2881 22 2623 -34 
Q 2366 -91 2075 -91 
Q 1284 -91 818 406 
Q 353 903 353 1747 
Q 353 2603 823 3093 
Q 1294 3584 2113 3584 
Q 2378 3584 2631 3529 
Q 2884 3475 3122 3366 
z
" transform="scale(0.015625)"/>
      <path id="DejaVuSans-6f" d="M 1959 3097 
Q 1497 3097 1228 2736 
Q 959 2375 959 1747 
Q 959 1119 1226 758 
Q 1494 397 1959 397 
Q 2419 397 2687 759 
Q 2956 1122 2956 1747 
Q 2956 2369 2687 2733 
Q 2419 3097 1959 3097 
z
M 1959 3584 
Q 2709 3584 3137 3096 
Q 3566 2609 3566 1747 
Q 3566 888 3137 398 
Q 2709 -91 1959 -91 
Q 1206 -91 779 398 
Q 353 888 353 1747 
Q 353 2609 779 3096 
Q 1206 3584 1959 3584 
z
" transform="scale(0.015625)"/>
     </defs>
     <use xlink:href="#DejaVuSans-41"/>
     <use xlink:href="#DejaVuSans-76" x="62.533203"/>
     <use xlink:href="#DejaVuSans-65" x="121.712891"/>
     <use xlink:href="#DejaVuSans-72" x="183.236328"/>
     <use xlink:href="#DejaVuSans-61" x="224.349609"/>
     <use xlink:href="#DejaVuSans-67" x="285.628906"/>
     <use xlink:href="#DejaVuSans-65" x="349.105469"/>
     <use xlink:href="#DejaVuSans-20" x="410.628906"/>
     <use xlink:href="#DejaVuSans-6d" x="442.416016"/>
     <use xlink:href="#DejaVuSans-61" x="539.828125"/>
     <use xlink:href="#DejaVuSans-67" x="601.107422"/>
     <use xlink:href="#DejaVuSans-6e" x="664.583984"/>
     <use xlink:href="#DejaVuSans-65" x="727.962891"/>
     <use xlink:href="#DejaVuSans-74" x="789.486328"/>
     <use xlink:href="#DejaVuSans-69" x="828.695312"/>
     <use xlink:href="#DejaVuSans-63" x="856.478516"/>
     <use xlink:href="#DejaVuSans-20" x="911.458984"/>
     <use xlink:href="#DejaVuSans-6d" x="943.246094"/>
     <use xlink:href="#DejaVuSans-6f" x="1040.658203"/>
     <use xlink:href="#DejaVuSans-6d" x="1101.839844"/>
     <use xlink:href="#DejaVuSans-65" x="1199.251953"/>
     <use xlink:href="#DejaVuSans-6e" x="1260.775391"/>
     <use xlink:href="#DejaVuSans-74" x="1324.154297"/>
     <use xlink:href="#DejaVuSans-20" x="1363.363281"/>
     <use xlink:href="#DejaVuSans-6f" x="1395.150391"/>
     <use xlink:href="#DejaVuSans-6e" x="1456.332031"/>
     <use xlink:href="#DejaVuSans-20" x="1519.710938"/>
     <use xlink:href="#DejaVuSans-73" x="1551.498047"/>
     <use xlink:href="#DejaVuSans-69" x="1603.597656"/>
     <use xlink:href="#DejaVuSans-74" x="1631.380859"/>
     <use xlink:href="#DejaVuSans-65" x="1670.589844"/>
     <use xlink:href="#DejaVuSans-20" x="1732.113281"/>
     <use xlink:href="#DejaVuSans-32" x="1763.900391"/>
    </g>
   </g>
   <g id="legend_1">
    <g id="patch_6">
     <path d="M 552.04 73.48 
L 556.04 73.48 
Q 558.04 73.48 558.04 71.48 
L 558.04 67.48 
Q 558.04 65.48 556.04 65.48 
L 552.04 65.48 
Q 550.04 65.48 550.04 67.48 
L 550.04 71.48 
Q 550.04 73.48 552.04 73.48 
z
" style="fill: #ffffff; opacity: 0.8; stroke: #cccccc; stroke-linejoin: miter"/>
    </g>
   </g>
  </g>
 </g>
 <defs>
  <clipPath id="p76f037ecb2">
   <rect x="174.96" y="60.48" width="388.08" height="388.08"/>
  </clipPath>
 </defs>
</svg>
