<?xml version="1.0" encoding="utf-8" standalone="no"?>
<!DOCTYPE svg PUBLIC "-//W3C//DTD SVG 1.1//EN"
  "http://www.w3.org/Graphics/SVG/1.1/DTD/svg11.dtd">
<svg xmlns:xlink="http://www.w3.org/1999/xlink" width="720pt" height="504pt" viewBox="0 0 720 504" xmlns="http://www.w3.org/2000/svg" version="1.1">
 <metadata>
  <rdf:RDF xmlns:dc="http://purl.org/dc/elements/1.1/" xmlns:cc="http://creativecommons.org/ns#" xmlns:rdf="http://www.w3.org/1999/02/22-rdf-syntax-ns#">
   <cc:Work>
    <dc:type rdf:resource="http://purl.org/dc/dcmitype/StillImage"/>
    <dc:date>2024-07-12T09:23:42.387148</dc:date>
    <dc:format>image/svg+xml</dc:format>
    <dc:creator>
     <cc:Agent>
      <dc:title>Matplotlib v3.7.1, https://matplotlib.org/</dc:title>
     </cc:Agent>
    </dc:creator>
   </cc:Work>
  </rdf:RDF>
 </metadata>
 <defs>
  <style type="text/css">*{stroke-linejoin: round; stroke-linecap: butt}</style>
 </defs>
 <g id="figure_1">
  <g id="patch_1">
   <path d="M 0 504 
L 720 504 
L 720 0 
L 0 0 
z
" style="fill: #ffffff"/>
  </g>
  <g id="patch_2">
   <path d="M 174.96 448.56 
L 563.04 448.56 
L 563.04 60.48 
L 174.96 60.48 
z
" style="fill: #ffffff"/>
  </g>
  <g id="pane3d_1">
   <g id="patch_3">
    <path d="M 204.262716 352.871909 
L 332.419406 245.44843 
L 330.637906 90.52457 
L 196.348257 188.523039 
" style="fill: #f2f2f2; opacity: 0.5; stroke: #f2f2f2; stroke-linejoin: miter"/>
   </g>
  </g>
  <g id="pane3d_2">
   <g id="patch_4">
    <path d="M 332.419406 245.44843 
L 538.065167 305.221534 
L 545.40394 144.961499 
L 330.637906 90.52457 
" style="fill: #e6e6e6; opacity: 0.5; stroke: #e6e6e6; stroke-linejoin: miter"/>
   </g>
  </g>
  <g id="pane3d_3">
   <g id="patch_5">
    <path d="M 204.262716 352.871909 
L 422.257267 424.068929 
L 538.065167 305.221534 
L 332.419406 245.44843 
" style="fill: #ececec; opacity: 0.5; stroke: #ececec; stroke-linejoin: miter"/>
   </g>
  </g>
  <g id="axis3d_1">
   <g id="line2d_1">
    <path d="M 204.262716 352.871909 
L 422.257267 424.068929 
" style="fill: none; stroke: #000000; stroke-width: 0.8; stroke-linecap: square"/>
   </g>
   <g id="text_1">
    <!-- t -->
    <g transform="translate(292.177295 425.471519) scale(0.1 -0.1)">
     <defs>
      <path id="DejaVuSans-74" d="M 1172 4494 
L 1172 3500 
L 2356 3500 
L 2356 3053 
L 1172 3053 
L 1172 1153 
Q 1172 725 1289 603 
Q 1406 481 1766 481 
L 2356 481 
L 2356 0 
L 1766 0 
Q 1100 0 847 248 
Q 594 497 594 1153 
L 594 3053 
L 172 3053 
L 172 3500 
L 594 3500 
L 594 4494 
L 1172 4494 
z
" transform="scale(0.015625)"/>
     </defs>
     <use xlink:href="#DejaVuSans-74"/>
    </g>
   </g>
   <g id="Line3DCollection_1">
    <path d="M 242.236277 365.274074 
L 368.372665 255.898623 
L 368.120309 100.025267 
" style="fill: none; stroke: #b0b0b0; stroke-width: 0.8"/>
    <path d="M 285.121764 379.280474 
L 408.909989 267.681223 
L 410.414919 110.745717 
" style="fill: none; stroke: #b0b0b0; stroke-width: 0.8"/>
    <path d="M 328.922129 393.585673 
L 450.239433 279.69406 
L 453.572232 121.684838 
" style="fill: none; stroke: #b0b0b0; stroke-width: 0.8"/>
    <path d="M 373.666964 408.199336 
L 492.384445 291.943952 
L 497.618917 132.849389 
" style="fill: none; stroke: #b0b0b0; stroke-width: 0.8"/>
   </g>
   <g id="xtick_1">
    <g id="line2d_2">
     <path d="M 243.335213 364.321164 
L 240.033661 367.184008 
" style="fill: none; stroke: #000000; stroke-width: 0.8; stroke-linecap: square"/>
    </g>
    <g id="text_2">
     <!-- 0.35 -->
     <g transform="translate(223.600413 388.682107) scale(0.1 -0.1)">
      <defs>
       <path id="DejaVuSans-30" d="M 2034 4250 
Q 1547 4250 1301 3770 
Q 1056 3291 1056 2328 
Q 1056 1369 1301 889 
Q 1547 409 2034 409 
Q 2525 409 2770 889 
Q 3016 1369 3016 2328 
Q 3016 3291 2770 3770 
Q 2525 4250 2034 4250 
z
M 2034 4750 
Q 2819 4750 3233 4129 
Q 3647 3509 3647 2328 
Q 3647 1150 3233 529 
Q 2819 -91 2034 -91 
Q 1250 -91 836 529 
Q 422 1150 422 2328 
Q 422 3509 836 4129 
Q 1250 4750 2034 4750 
z
" transform="scale(0.015625)"/>
       <path id="DejaVuSans-2e" d="M 684 794 
L 1344 794 
L 1344 0 
L 684 0 
L 684 794 
z
" transform="scale(0.015625)"/>
       <path id="DejaVuSans-33" d="M 2597 2516 
Q 3050 2419 3304 2112 
Q 3559 1806 3559 1356 
Q 3559 666 3084 287 
Q 2609 -91 1734 -91 
Q 1441 -91 1130 -33 
Q 819 25 488 141 
L 488 750 
Q 750 597 1062 519 
Q 1375 441 1716 441 
Q 2309 441 2620 675 
Q 2931 909 2931 1356 
Q 2931 1769 2642 2001 
Q 2353 2234 1838 2234 
L 1294 2234 
L 1294 2753 
L 1863 2753 
Q 2328 2753 2575 2939 
Q 2822 3125 2822 3475 
Q 2822 3834 2567 4026 
Q 2313 4219 1838 4219 
Q 1578 4219 1281 4162 
Q 984 4106 628 3988 
L 628 4550 
Q 988 4650 1302 4700 
Q 1616 4750 1894 4750 
Q 2613 4750 3031 4423 
Q 3450 4097 3450 3541 
Q 3450 3153 3228 2886 
Q 3006 2619 2597 2516 
z
" transform="scale(0.015625)"/>
       <path id="DejaVuSans-35" d="M 691 4666 
L 3169 4666 
L 3169 4134 
L 1269 4134 
L 1269 2991 
Q 1406 3038 1543 3061 
Q 1681 3084 1819 3084 
Q 2600 3084 3056 2656 
Q 3513 2228 3513 1497 
Q 3513 744 3044 326 
Q 2575 -91 1722 -91 
Q 1428 -91 1123 -41 
Q 819 9 494 109 
L 494 744 
Q 775 591 1075 516 
Q 1375 441 1709 441 
Q 2250 441 2565 725 
Q 2881 1009 2881 1497 
Q 2881 1984 2565 2268 
Q 2250 2553 1709 2553 
Q 1456 2553 1204 2497 
Q 953 2441 691 2322 
L 691 4666 
z
" transform="scale(0.015625)"/>
      </defs>
      <use xlink:href="#DejaVuSans-30"/>
      <use xlink:href="#DejaVuSans-2e" x="63.623047"/>
      <use xlink:href="#DejaVuSans-33" x="95.410156"/>
      <use xlink:href="#DejaVuSans-35" x="159.033203"/>
     </g>
    </g>
   </g>
   <g id="xtick_2">
    <g id="line2d_3">
     <path d="M 286.201172 378.307351 
L 282.958239 381.230965 
" style="fill: none; stroke: #000000; stroke-width: 0.8; stroke-linecap: square"/>
    </g>
    <g id="text_3">
     <!-- 0.36 -->
     <g transform="translate(266.517528 402.892052) scale(0.1 -0.1)">
      <defs>
       <path id="DejaVuSans-36" d="M 2113 2584 
Q 1688 2584 1439 2293 
Q 1191 2003 1191 1497 
Q 1191 994 1439 701 
Q 1688 409 2113 409 
Q 2538 409 2786 701 
Q 3034 994 3034 1497 
Q 3034 2003 2786 2293 
Q 2538 2584 2113 2584 
z
M 3366 4563 
L 3366 3988 
Q 3128 4100 2886 4159 
Q 2644 4219 2406 4219 
Q 1781 4219 1451 3797 
Q 1122 3375 1075 2522 
Q 1259 2794 1537 2939 
Q 1816 3084 2150 3084 
Q 2853 3084 3261 2657 
Q 3669 2231 3669 1497 
Q 3669 778 3244 343 
Q 2819 -91 2113 -91 
Q 1303 -91 875 529 
Q 447 1150 447 2328 
Q 447 3434 972 4092 
Q 1497 4750 2381 4750 
Q 2619 4750 2861 4703 
Q 3103 4656 3366 4563 
z
" transform="scale(0.015625)"/>
      </defs>
      <use xlink:href="#DejaVuSans-30"/>
      <use xlink:href="#DejaVuSans-2e" x="63.623047"/>
      <use xlink:href="#DejaVuSans-33" x="95.410156"/>
      <use xlink:href="#DejaVuSans-36" x="159.033203"/>
     </g>
    </g>
   </g>
   <g id="xtick_3">
    <g id="line2d_4">
     <path d="M 329.980922 392.591688 
L 326.799875 395.578027 
" style="fill: none; stroke: #000000; stroke-width: 0.8; stroke-linecap: square"/>
    </g>
    <g id="text_4">
     <!-- 0.37 -->
     <g transform="translate(310.352592 417.405932) scale(0.1 -0.1)">
      <defs>
       <path id="DejaVuSans-37" d="M 525 4666 
L 3525 4666 
L 3525 4397 
L 1831 0 
L 1172 0 
L 2766 4134 
L 525 4134 
L 525 4666 
z
" transform="scale(0.015625)"/>
      </defs>
      <use xlink:href="#DejaVuSans-30"/>
      <use xlink:href="#DejaVuSans-2e" x="63.623047"/>
      <use xlink:href="#DejaVuSans-33" x="95.410156"/>
      <use xlink:href="#DejaVuSans-37" x="159.033203"/>
     </g>
    </g>
   </g>
   <g id="xtick_4">
    <g id="line2d_5">
     <path d="M 374.703997 407.18381 
L 371.588275 410.234915 
" style="fill: none; stroke: #000000; stroke-width: 0.8; stroke-linecap: square"/>
    </g>
    <g id="text_5">
     <!-- 0.38 -->
     <g transform="translate(355.135374 432.233603) scale(0.1 -0.1)">
      <defs>
       <path id="DejaVuSans-38" d="M 2034 2216 
Q 1584 2216 1326 1975 
Q 1069 1734 1069 1313 
Q 1069 891 1326 650 
Q 1584 409 2034 409 
Q 2484 409 2743 651 
Q 3003 894 3003 1313 
Q 3003 1734 2745 1975 
Q 2488 2216 2034 2216 
z
M 1403 2484 
Q 997 2584 770 2862 
Q 544 3141 544 3541 
Q 544 4100 942 4425 
Q 1341 4750 2034 4750 
Q 2731 4750 3128 4425 
Q 3525 4100 3525 3541 
Q 3525 3141 3298 2862 
Q 3072 2584 2669 2484 
Q 3125 2378 3379 2068 
Q 3634 1759 3634 1313 
Q 3634 634 3220 271 
Q 2806 -91 2034 -91 
Q 1263 -91 848 271 
Q 434 634 434 1313 
Q 434 1759 690 2068 
Q 947 2378 1403 2484 
z
M 1172 3481 
Q 1172 3119 1398 2916 
Q 1625 2713 2034 2713 
Q 2441 2713 2670 2916 
Q 2900 3119 2900 3481 
Q 2900 3844 2670 4047 
Q 2441 4250 2034 4250 
Q 1625 4250 1398 4047 
Q 1172 3844 1172 3481 
z
" transform="scale(0.015625)"/>
      </defs>
      <use xlink:href="#DejaVuSans-30"/>
      <use xlink:href="#DejaVuSans-2e" x="63.623047"/>
      <use xlink:href="#DejaVuSans-33" x="95.410156"/>
      <use xlink:href="#DejaVuSans-38" x="159.033203"/>
     </g>
    </g>
   </g>
  </g>
  <g id="axis3d_2">
   <g id="line2d_6">
    <path d="M 538.065167 305.221534 
L 422.257267 424.068929 
" style="fill: none; stroke: #000000; stroke-width: 0.8; stroke-linecap: square"/>
   </g>
   <g id="text_6">
    <!-- si -->
    <g transform="translate(505.720053 392.74383) scale(0.1 -0.1)">
     <defs>
      <path id="DejaVuSans-73" d="M 2834 3397 
L 2834 2853 
Q 2591 2978 2328 3040 
Q 2066 3103 1784 3103 
Q 1356 3103 1142 2972 
Q 928 2841 928 2578 
Q 928 2378 1081 2264 
Q 1234 2150 1697 2047 
L 1894 2003 
Q 2506 1872 2764 1633 
Q 3022 1394 3022 966 
Q 3022 478 2636 193 
Q 2250 -91 1575 -91 
Q 1294 -91 989 -36 
Q 684 19 347 128 
L 347 722 
Q 666 556 975 473 
Q 1284 391 1588 391 
Q 1994 391 2212 530 
Q 2431 669 2431 922 
Q 2431 1156 2273 1281 
Q 2116 1406 1581 1522 
L 1381 1569 
Q 847 1681 609 1914 
Q 372 2147 372 2553 
Q 372 3047 722 3315 
Q 1072 3584 1716 3584 
Q 2034 3584 2315 3537 
Q 2597 3491 2834 3397 
z
" transform="scale(0.015625)"/>
      <path id="DejaVuSans-69" d="M 603 3500 
L 1178 3500 
L 1178 0 
L 603 0 
L 603 3500 
z
M 603 4863 
L 1178 4863 
L 1178 4134 
L 603 4134 
L 603 4863 
z
" transform="scale(0.015625)"/>
     </defs>
     <use xlink:href="#DejaVuSans-73"/>
     <use xlink:href="#DejaVuSans-69" x="52.099609"/>
    </g>
   </g>
   <g id="Line3DCollection_2">
    <path d="M 206.780335 180.910184 
L 214.183554 344.556066 
L 431.258748 414.831195 
" style="fill: none; stroke: #b0b0b0; stroke-width: 0.8"/>
    <path d="M 225.381152 167.336155 
L 231.887316 329.716422 
L 447.306608 398.362143 
" style="fill: none; stroke: #b0b0b0; stroke-width: 0.8"/>
    <path d="M 243.545264 154.080813 
L 249.193396 315.210123 
L 462.97505 382.282467 
" style="fill: none; stroke: #b0b0b0; stroke-width: 0.8"/>
    <path d="M 261.287873 141.133065 
L 266.115045 301.026061 
L 478.277372 366.57852 
" style="fill: none; stroke: #b0b0b0; stroke-width: 0.8"/>
    <path d="M 278.623481 128.482328 
L 282.664931 287.153618 
L 493.226259 351.237284 
" style="fill: none; stroke: #b0b0b0; stroke-width: 0.8"/>
    <path d="M 295.565934 116.118497 
L 298.855174 273.582635 
L 507.833817 336.246337 
" style="fill: none; stroke: #b0b0b0; stroke-width: 0.8"/>
    <path d="M 312.128458 104.031922 
L 314.69737 260.303393 
L 522.111602 321.593817 
" style="fill: none; stroke: #b0b0b0; stroke-width: 0.8"/>
   </g>
   <g id="xtick_5">
    <g id="line2d_7">
     <path d="M 429.429517 414.239007 
L 434.921937 416.017103 
" style="fill: none; stroke: #000000; stroke-width: 0.8; stroke-linecap: square"/>
    </g>
    <g id="text_7">
     <!-- −0.20 -->
     <g transform="translate(428.805222 435.840097) scale(0.1 -0.1)">
      <defs>
       <path id="DejaVuSans-2212" d="M 678 2272 
L 4684 2272 
L 4684 1741 
L 678 1741 
L 678 2272 
z
" transform="scale(0.015625)"/>
       <path id="DejaVuSans-32" d="M 1228 531 
L 3431 531 
L 3431 0 
L 469 0 
L 469 531 
Q 828 903 1448 1529 
Q 2069 2156 2228 2338 
Q 2531 2678 2651 2914 
Q 2772 3150 2772 3378 
Q 2772 3750 2511 3984 
Q 2250 4219 1831 4219 
Q 1534 4219 1204 4116 
Q 875 4013 500 3803 
L 500 4441 
Q 881 4594 1212 4672 
Q 1544 4750 1819 4750 
Q 2544 4750 2975 4387 
Q 3406 4025 3406 3419 
Q 3406 3131 3298 2873 
Q 3191 2616 2906 2266 
Q 2828 2175 2409 1742 
Q 1991 1309 1228 531 
z
" transform="scale(0.015625)"/>
      </defs>
      <use xlink:href="#DejaVuSans-2212"/>
      <use xlink:href="#DejaVuSans-30" x="83.789062"/>
      <use xlink:href="#DejaVuSans-2e" x="147.412109"/>
      <use xlink:href="#DejaVuSans-32" x="179.199219"/>
      <use xlink:href="#DejaVuSans-30" x="242.822266"/>
     </g>
    </g>
   </g>
   <g id="xtick_6">
    <g id="line2d_8">
     <path d="M 445.49243 397.784035 
L 450.939596 399.519835 
" style="fill: none; stroke: #000000; stroke-width: 0.8; stroke-linecap: square"/>
    </g>
    <g id="text_8">
     <!-- −0.15 -->
     <g transform="translate(444.705571 419.203878) scale(0.1 -0.1)">
      <defs>
       <path id="DejaVuSans-31" d="M 794 531 
L 1825 531 
L 1825 4091 
L 703 3866 
L 703 4441 
L 1819 4666 
L 2450 4666 
L 2450 531 
L 3481 531 
L 3481 0 
L 794 0 
L 794 531 
z
" transform="scale(0.015625)"/>
      </defs>
      <use xlink:href="#DejaVuSans-2212"/>
      <use xlink:href="#DejaVuSans-30" x="83.789062"/>
      <use xlink:href="#DejaVuSans-2e" x="147.412109"/>
      <use xlink:href="#DejaVuSans-31" x="179.199219"/>
      <use xlink:href="#DejaVuSans-35" x="242.822266"/>
     </g>
    </g>
   </g>
   <g id="xtick_7">
    <g id="line2d_9">
     <path d="M 461.175729 381.717944 
L 466.578232 383.412938 
" style="fill: none; stroke: #000000; stroke-width: 0.8; stroke-linecap: square"/>
    </g>
    <g id="text_9">
     <!-- −0.10 -->
     <g transform="translate(460.22984 402.961144) scale(0.1 -0.1)">
      <use xlink:href="#DejaVuSans-2212"/>
      <use xlink:href="#DejaVuSans-30" x="83.789062"/>
      <use xlink:href="#DejaVuSans-2e" x="147.412109"/>
      <use xlink:href="#DejaVuSans-31" x="179.199219"/>
      <use xlink:href="#DejaVuSans-30" x="242.822266"/>
     </g>
    </g>
   </g>
   <g id="xtick_8">
    <g id="line2d_10">
     <path d="M 476.492713 366.027108 
L 481.851142 367.682719 
" style="fill: none; stroke: #000000; stroke-width: 0.8; stroke-linecap: square"/>
    </g>
    <g id="text_10">
     <!-- −0.05 -->
     <g transform="translate(475.391215 387.0981) scale(0.1 -0.1)">
      <use xlink:href="#DejaVuSans-2212"/>
      <use xlink:href="#DejaVuSans-30" x="83.789062"/>
      <use xlink:href="#DejaVuSans-2e" x="147.412109"/>
      <use xlink:href="#DejaVuSans-30" x="179.199219"/>
      <use xlink:href="#DejaVuSans-35" x="242.822266"/>
     </g>
    </g>
   </g>
   <g id="xtick_9">
    <g id="line2d_11">
     <path d="M 491.456068 350.698532 
L 496.771006 352.316116 
" style="fill: none; stroke: #000000; stroke-width: 0.8; stroke-linecap: square"/>
    </g>
    <g id="text_11">
     <!-- 0.00 -->
     <g transform="translate(494.392117 371.601584) scale(0.1 -0.1)">
      <use xlink:href="#DejaVuSans-30"/>
      <use xlink:href="#DejaVuSans-2e" x="63.623047"/>
      <use xlink:href="#DejaVuSans-30" x="95.410156"/>
      <use xlink:href="#DejaVuSans-30" x="159.033203"/>
     </g>
    </g>
   </g>
   <g id="xtick_10">
    <g id="line2d_12">
     <path d="M 506.077901 335.719814 
L 511.349926 337.300667 
" style="fill: none; stroke: #000000; stroke-width: 0.8; stroke-linecap: square"/>
    </g>
    <g id="text_12">
     <!-- 0.05 -->
     <g transform="translate(508.864861 356.45904) scale(0.1 -0.1)">
      <use xlink:href="#DejaVuSans-30"/>
      <use xlink:href="#DejaVuSans-2e" x="63.623047"/>
      <use xlink:href="#DejaVuSans-30" x="95.410156"/>
      <use xlink:href="#DejaVuSans-35" x="159.033203"/>
     </g>
    </g>
   </g>
   <g id="xtick_11">
    <g id="line2d_13">
     <path d="M 520.369773 321.07911 
L 525.599456 322.62447 
" style="fill: none; stroke: #000000; stroke-width: 0.8; stroke-linecap: square"/>
    </g>
    <g id="text_13">
     <!-- 0.10 -->
     <g transform="translate(523.010752 341.658476) scale(0.1 -0.1)">
      <use xlink:href="#DejaVuSans-30"/>
      <use xlink:href="#DejaVuSans-2e" x="63.623047"/>
      <use xlink:href="#DejaVuSans-31" x="95.410156"/>
      <use xlink:href="#DejaVuSans-30" x="159.033203"/>
     </g>
    </g>
   </g>
  </g>
  <g id="axis3d_3">
   <g id="line2d_14">
    <path d="M 538.065167 305.221534 
L 545.40394 144.961499 
" style="fill: none; stroke: #000000; stroke-width: 0.8; stroke-linecap: square"/>
   </g>
   <g id="Line3DCollection_3">
    <path d="M 538.271269 300.720813 
L 332.369272 241.088633 
L 204.040812 348.263915 
" style="fill: none; stroke: #b0b0b0; stroke-width: 0.8"/>
    <path d="M 539.492846 274.044682 
L 332.072245 215.258393 
L 202.725134 320.943017 
" style="fill: none; stroke: #b0b0b0; stroke-width: 0.8"/>
    <path d="M 540.732755 246.968233 
L 331.770974 189.059097 
L 201.388958 293.196447 
" style="fill: none; stroke: #b0b0b0; stroke-width: 0.8"/>
    <path d="M 541.991412 219.482387 
L 331.465368 162.482781 
L 200.031799 265.014177 
" style="fill: none; stroke: #b0b0b0; stroke-width: 0.8"/>
    <path d="M 543.269245 191.577788 
L 331.155332 135.521247 
L 198.653161 236.385864 
" style="fill: none; stroke: #b0b0b0; stroke-width: 0.8"/>
    <path d="M 544.566695 163.244793 
L 330.840769 108.166057 
L 197.252529 207.300834 
" style="fill: none; stroke: #b0b0b0; stroke-width: 0.8"/>
   </g>
   <g id="xtick_12">
    <g id="line2d_15">
     <path d="M 536.543082 300.220305 
L 541.731757 301.72302 
" style="fill: none; stroke: #000000; stroke-width: 0.8; stroke-linecap: square"/>
    </g>
    <g id="text_14">
     <!-- −0.36 -->
     <g transform="translate(541.236972 305.717795) scale(0.1 -0.1)">
      <use xlink:href="#DejaVuSans-2212"/>
      <use xlink:href="#DejaVuSans-30" x="83.789062"/>
      <use xlink:href="#DejaVuSans-2e" x="147.412109"/>
      <use xlink:href="#DejaVuSans-33" x="179.199219"/>
      <use xlink:href="#DejaVuSans-36" x="242.822266"/>
     </g>
    </g>
   </g>
   <g id="xtick_13">
    <g id="line2d_16">
     <path d="M 537.751306 273.551102 
L 542.980104 275.033026 
" style="fill: none; stroke: #000000; stroke-width: 0.8; stroke-linecap: square"/>
    </g>
    <g id="text_15">
     <!-- −0.34 -->
     <g transform="translate(542.591932 279.077704) scale(0.1 -0.1)">
      <defs>
       <path id="DejaVuSans-34" d="M 2419 4116 
L 825 1625 
L 2419 1625 
L 2419 4116 
z
M 2253 4666 
L 3047 4666 
L 3047 1625 
L 3713 1625 
L 3713 1100 
L 3047 1100 
L 3047 0 
L 2419 0 
L 2419 1100 
L 313 1100 
L 313 1709 
L 2253 4666 
z
" transform="scale(0.015625)"/>
      </defs>
      <use xlink:href="#DejaVuSans-2212"/>
      <use xlink:href="#DejaVuSans-30" x="83.789062"/>
      <use xlink:href="#DejaVuSans-2e" x="147.412109"/>
      <use xlink:href="#DejaVuSans-33" x="179.199219"/>
      <use xlink:href="#DejaVuSans-34" x="242.822266"/>
     </g>
    </g>
   </g>
   <g id="xtick_14">
    <g id="line2d_17">
     <path d="M 538.977654 246.481846 
L 544.247199 247.942184 
" style="fill: none; stroke: #000000; stroke-width: 0.8; stroke-linecap: square"/>
    </g>
    <g id="text_16">
     <!-- −0.32 -->
     <g transform="translate(543.967183 252.038672) scale(0.1 -0.1)">
      <use xlink:href="#DejaVuSans-2212"/>
      <use xlink:href="#DejaVuSans-30" x="83.789062"/>
      <use xlink:href="#DejaVuSans-2e" x="147.412109"/>
      <use xlink:href="#DejaVuSans-33" x="179.199219"/>
      <use xlink:href="#DejaVuSans-32" x="242.822266"/>
     </g>
    </g>
   </g>
   <g id="xtick_15">
    <g id="line2d_18">
     <path d="M 540.222538 219.003467 
L 545.533468 220.441394 
" style="fill: none; stroke: #000000; stroke-width: 0.8; stroke-linecap: square"/>
    </g>
    <g id="text_17">
     <!-- −0.30 -->
     <g transform="translate(545.363184 224.591669) scale(0.1 -0.1)">
      <use xlink:href="#DejaVuSans-2212"/>
      <use xlink:href="#DejaVuSans-30" x="83.789062"/>
      <use xlink:href="#DejaVuSans-2e" x="147.412109"/>
      <use xlink:href="#DejaVuSans-33" x="179.199219"/>
      <use xlink:href="#DejaVuSans-30" x="242.822266"/>
     </g>
    </g>
   </g>
   <g id="xtick_16">
    <g id="line2d_19">
     <path d="M 541.486379 191.106621 
L 546.83935 192.521281 
" style="fill: none; stroke: #000000; stroke-width: 0.8; stroke-linecap: square"/>
    </g>
    <g id="text_18">
     <!-- −0.28 -->
     <g transform="translate(546.780408 196.727393) scale(0.1 -0.1)">
      <use xlink:href="#DejaVuSans-2212"/>
      <use xlink:href="#DejaVuSans-30" x="83.789062"/>
      <use xlink:href="#DejaVuSans-2e" x="147.412109"/>
      <use xlink:href="#DejaVuSans-32" x="179.199219"/>
      <use xlink:href="#DejaVuSans-38" x="242.822266"/>
     </g>
    </g>
   </g>
   <g id="xtick_17">
    <g id="line2d_20">
     <path d="M 542.769615 162.781673 
L 548.165297 164.172179 
" style="fill: none; stroke: #000000; stroke-width: 0.8; stroke-linecap: square"/>
    </g>
    <g id="text_19">
     <!-- −0.26 -->
     <g transform="translate(548.219343 168.436255) scale(0.1 -0.1)">
      <use xlink:href="#DejaVuSans-2212"/>
      <use xlink:href="#DejaVuSans-30" x="83.789062"/>
      <use xlink:href="#DejaVuSans-2e" x="147.412109"/>
      <use xlink:href="#DejaVuSans-32" x="179.199219"/>
      <use xlink:href="#DejaVuSans-36" x="242.822266"/>
     </g>
    </g>
   </g>
  </g>
  <g id="axes_1">
   <g id="Path3DCollection_1">
    <defs>
     <path id="C0_0_eea67f1b8f" d="M 0 2.236068 
C 0.593012 2.236068 1.161816 2.000462 1.581139 1.581139 
C 2.000462 1.161816 2.236068 0.593012 2.236068 -0 
C 2.236068 -0.593012 2.000462 -1.161816 1.581139 -1.581139 
C 1.161816 -2.000462 0.593012 -2.236068 0 -2.236068 
C -0.593012 -2.236068 -1.161816 -2.000462 -1.581139 -1.581139 
C -2.000462 -1.161816 -2.236068 -0.593012 -2.236068 0 
C -2.236068 0.593012 -2.000462 1.161816 -1.581139 1.581139 
C -1.161816 2.000462 -0.593012 2.236068 0 2.236068 
z
"/>
    </defs>
    <g clip-path="url(#p12657bfd99)">
     <use xlink:href="#C0_0_eea67f1b8f" x="332.621194" y="278.516093" style="fill: #008000; fill-opacity: 0.3; stroke: #008000; stroke-opacity: 0.3"/>
    </g>
    <g clip-path="url(#p12657bfd99)">
     <use xlink:href="#C0_0_eea67f1b8f" x="326.558164" y="280.537763" style="fill: #008000; fill-opacity: 0.300169; stroke: #008000; stroke-opacity: 0.300169"/>
    </g>
    <g clip-path="url(#p12657bfd99)">
     <use xlink:href="#C0_0_eea67f1b8f" x="338.934735" y="276.345385" style="fill: #008000; fill-opacity: 0.300853; stroke: #008000; stroke-opacity: 0.300853"/>
    </g>
    <g clip-path="url(#p12657bfd99)">
     <use xlink:href="#C0_0_eea67f1b8f" x="320.749381" y="282.406332" style="fill: #008000; fill-opacity: 0.301364; stroke: #008000; stroke-opacity: 0.301364"/>
    </g>
    <g clip-path="url(#p12657bfd99)">
     <use xlink:href="#C0_0_eea67f1b8f" x="345.495073" y="274.029849" style="fill: #008000; fill-opacity: 0.302721; stroke: #008000; stroke-opacity: 0.302721"/>
    </g>
    <g clip-path="url(#p12657bfd99)">
     <use xlink:href="#C0_0_eea67f1b8f" x="315.198491" y="284.117678" style="fill: #008000; fill-opacity: 0.303591; stroke: #008000; stroke-opacity: 0.303591"/>
    </g>
    <g clip-path="url(#p12657bfd99)">
     <use xlink:href="#C0_0_eea67f1b8f" x="352.298386" y="271.573571" style="fill: #008000; fill-opacity: 0.305601; stroke: #008000; stroke-opacity: 0.305601"/>
    </g>
    <g clip-path="url(#p12657bfd99)">
     <use xlink:href="#C0_0_eea67f1b8f" x="309.909061" y="285.667619" style="fill: #008000; fill-opacity: 0.306853; stroke: #008000; stroke-opacity: 0.306853"/>
    </g>
    <g clip-path="url(#p12657bfd99)">
     <use xlink:href="#C0_0_eea67f1b8f" x="359.340476" y="268.980773" style="fill: #008000; fill-opacity: 0.309484; stroke: #008000; stroke-opacity: 0.309484"/>
    </g>
    <g clip-path="url(#p12657bfd99)">
     <use xlink:href="#C0_0_eea67f1b8f" x="304.884712" y="287.052093" style="fill: #008000; fill-opacity: 0.311155; stroke: #008000; stroke-opacity: 0.311155"/>
    </g>
    <g clip-path="url(#p12657bfd99)">
     <use xlink:href="#C0_0_eea67f1b8f" x="366.617501" y="266.255714" style="fill: #008000; fill-opacity: 0.314365; stroke: #008000; stroke-opacity: 0.314365"/>
    </g>
    <g clip-path="url(#p12657bfd99)">
     <use xlink:href="#C0_0_eea67f1b8f" x="300.128638" y="288.266935" style="fill: #008000; fill-opacity: 0.316501; stroke: #008000; stroke-opacity: 0.316501"/>
    </g>
    <g clip-path="url(#p12657bfd99)">
     <use xlink:href="#C0_0_eea67f1b8f" x="374.125341" y="263.402526" style="fill: #008000; fill-opacity: 0.320237; stroke: #008000; stroke-opacity: 0.320237"/>
    </g>
    <g clip-path="url(#p12657bfd99)">
     <use xlink:href="#C0_0_eea67f1b8f" x="295.644345" y="289.308085" style="fill: #008000; fill-opacity: 0.322894; stroke: #008000; stroke-opacity: 0.322894"/>
    </g>
    <g clip-path="url(#p12657bfd99)">
     <use xlink:href="#C0_0_eea67f1b8f" x="381.859463" y="260.425336" style="fill: #008000; fill-opacity: 0.327093; stroke: #008000; stroke-opacity: 0.327093"/>
    </g>
    <g clip-path="url(#p12657bfd99)">
     <use xlink:href="#C0_0_eea67f1b8f" x="291.435168" y="290.171363" style="fill: #008000; fill-opacity: 0.330338; stroke: #008000; stroke-opacity: 0.330338"/>
    </g>
    <g clip-path="url(#p12657bfd99)">
     <use xlink:href="#C0_0_eea67f1b8f" x="389.815636" y="257.328507" style="fill: #008000; fill-opacity: 0.334925; stroke: #008000; stroke-opacity: 0.334925"/>
    </g>
    <g clip-path="url(#p12657bfd99)">
     <use xlink:href="#C0_0_eea67f1b8f" x="287.504284" y="290.852775" style="fill: #008000; fill-opacity: 0.338834; stroke: #008000; stroke-opacity: 0.338834"/>
    </g>
    <g clip-path="url(#p12657bfd99)">
     <use xlink:href="#C0_0_eea67f1b8f" x="397.989439" y="254.116244" style="fill: #008000; fill-opacity: 0.343726; stroke: #008000; stroke-opacity: 0.343726"/>
    </g>
    <g clip-path="url(#p12657bfd99)">
     <use xlink:href="#C0_0_eea67f1b8f" x="283.854944" y="291.348036" style="fill: #008000; fill-opacity: 0.348386; stroke: #008000; stroke-opacity: 0.348386"/>
    </g>
    <g clip-path="url(#p12657bfd99)">
     <use xlink:href="#C0_0_eea67f1b8f" x="406.376092" y="250.79299" style="fill: #008000; fill-opacity: 0.353486; stroke: #008000; stroke-opacity: 0.353486"/>
    </g>
    <g clip-path="url(#p12657bfd99)">
     <use xlink:href="#C0_0_eea67f1b8f" x="280.490255" y="291.653199" style="fill: #008000; fill-opacity: 0.358995; stroke: #008000; stroke-opacity: 0.358995"/>
    </g>
    <g clip-path="url(#p12657bfd99)">
     <use xlink:href="#C0_0_eea67f1b8f" x="414.970838" y="247.36289" style="fill: #008000; fill-opacity: 0.364197; stroke: #008000; stroke-opacity: 0.364197"/>
    </g>
    <g clip-path="url(#p12657bfd99)">
     <use xlink:href="#C0_0_eea67f1b8f" x="277.413278" y="291.764063" style="fill: #008000; fill-opacity: 0.370664; stroke: #008000; stroke-opacity: 0.370664"/>
    </g>
    <g clip-path="url(#p12657bfd99)">
     <use xlink:href="#C0_0_eea67f1b8f" x="423.768783" y="243.830488" style="fill: #008000; fill-opacity: 0.37585; stroke: #008000; stroke-opacity: 0.37585"/>
    </g>
    <g clip-path="url(#p12657bfd99)">
     <use xlink:href="#C0_0_eea67f1b8f" x="274.627052" y="291.676564" style="fill: #008000; fill-opacity: 0.383393; stroke: #008000; stroke-opacity: 0.383393"/>
    </g>
    <g clip-path="url(#p12657bfd99)">
     <use xlink:href="#C0_0_eea67f1b8f" x="432.765009" y="240.200138" style="fill: #008000; fill-opacity: 0.388435; stroke: #008000; stroke-opacity: 0.388435"/>
    </g>
    <g clip-path="url(#p12657bfd99)">
     <use xlink:href="#C0_0_eea67f1b8f" x="272.13458" y="291.386614" style="fill: #008000; fill-opacity: 0.397183; stroke: #008000; stroke-opacity: 0.397183"/>
    </g>
    <g clip-path="url(#p12657bfd99)">
     <use xlink:href="#C0_0_eea67f1b8f" x="441.954046" y="236.476268" style="fill: #008000; fill-opacity: 0.401942; stroke: #008000; stroke-opacity: 0.401942"/>
    </g>
    <g clip-path="url(#p12657bfd99)">
     <use xlink:href="#C0_0_eea67f1b8f" x="269.938587" y="290.890111" style="fill: #008000; fill-opacity: 0.412035; stroke: #008000; stroke-opacity: 0.412035"/>
    </g>
    <g clip-path="url(#p12657bfd99)">
     <use xlink:href="#C0_0_eea67f1b8f" x="451.330616" y="232.663447" style="fill: #008000; fill-opacity: 0.416359; stroke: #008000; stroke-opacity: 0.416359"/>
    </g>
    <g clip-path="url(#p12657bfd99)">
     <use xlink:href="#C0_0_eea67f1b8f" x="268.042124" y="290.182965" style="fill: #008000; fill-opacity: 0.427948; stroke: #008000; stroke-opacity: 0.427948"/>
    </g>
    <g clip-path="url(#p12657bfd99)">
     <use xlink:href="#C0_0_eea67f1b8f" x="460.889227" y="228.766207" style="fill: #008000; fill-opacity: 0.431676; stroke: #008000; stroke-opacity: 0.431676"/>
    </g>
    <g clip-path="url(#p12657bfd99)">
     <use xlink:href="#C0_0_eea67f1b8f" x="266.447843" y="289.261194" style="fill: #008000; fill-opacity: 0.444923; stroke: #008000; stroke-opacity: 0.444923"/>
    </g>
    <g clip-path="url(#p12657bfd99)">
     <use xlink:href="#C0_0_eea67f1b8f" x="470.624027" y="224.789182" style="fill: #008000; fill-opacity: 0.447879; stroke: #008000; stroke-opacity: 0.447879"/>
    </g>
    <g clip-path="url(#p12657bfd99)">
     <use xlink:href="#C0_0_eea67f1b8f" x="265.158462" y="288.120678" style="fill: #008000; fill-opacity: 0.462957; stroke: #008000; stroke-opacity: 0.462957"/>
    </g>
    <g clip-path="url(#p12657bfd99)">
     <use xlink:href="#C0_0_eea67f1b8f" x="480.529166" y="220.736982" style="fill: #008000; fill-opacity: 0.464958; stroke: #008000; stroke-opacity: 0.464958"/>
    </g>
    <g clip-path="url(#p12657bfd99)">
     <use xlink:href="#C0_0_eea67f1b8f" x="264.176654" y="286.757528" style="fill: #008000; fill-opacity: 0.482049; stroke: #008000; stroke-opacity: 0.482049"/>
    </g>
    <g clip-path="url(#p12657bfd99)">
     <use xlink:href="#C0_0_eea67f1b8f" x="490.598394" y="216.614335" style="fill: #008000; fill-opacity: 0.482898; stroke: #008000; stroke-opacity: 0.482898"/>
    </g>
    <g clip-path="url(#p12657bfd99)">
     <use xlink:href="#C0_0_eea67f1b8f" x="500.825406" y="212.426142" style="fill: #008000; fill-opacity: 0.501686; stroke: #008000; stroke-opacity: 0.501686"/>
    </g>
    <g clip-path="url(#p12657bfd99)">
     <use xlink:href="#C0_0_eea67f1b8f" x="263.504778" y="285.167525" style="fill: #008000; fill-opacity: 0.502197; stroke: #008000; stroke-opacity: 0.502197"/>
    </g>
    <g clip-path="url(#p12657bfd99)">
     <use xlink:href="#C0_0_eea67f1b8f" x="511.203599" y="208.17706" style="fill: #008000; fill-opacity: 0.521306; stroke: #008000; stroke-opacity: 0.521306"/>
    </g>
    <g clip-path="url(#p12657bfd99)">
     <use xlink:href="#C0_0_eea67f1b8f" x="263.145376" y="283.347016" style="fill: #008000; fill-opacity: 0.523397; stroke: #008000; stroke-opacity: 0.523397"/>
    </g>
    <g clip-path="url(#p12657bfd99)">
     <use xlink:href="#C0_0_eea67f1b8f" x="521.726273" y="203.872187" style="fill: #008000; fill-opacity: 0.541744; stroke: #008000; stroke-opacity: 0.541744"/>
    </g>
    <g clip-path="url(#p12657bfd99)">
     <use xlink:href="#C0_0_eea67f1b8f" x="263.100782" y="281.2919" style="fill: #008000; fill-opacity: 0.545647; stroke: #008000; stroke-opacity: 0.545647"/>
    </g>
    <g clip-path="url(#p12657bfd99)">
     <use xlink:href="#C0_0_eea67f1b8f" x="263.373357" y="278.998466" style="fill: #008000; fill-opacity: 0.568941; stroke: #008000; stroke-opacity: 0.568941"/>
    </g>
    <g clip-path="url(#p12657bfd99)">
     <use xlink:href="#C0_0_eea67f1b8f" x="263.964987" y="276.462733" style="fill: #008000; fill-opacity: 0.593274; stroke: #008000; stroke-opacity: 0.593274"/>
    </g>
    <g clip-path="url(#p12657bfd99)">
     <use xlink:href="#C0_0_eea67f1b8f" x="264.877812" y="273.681202" style="fill: #008000; fill-opacity: 0.618641; stroke: #008000; stroke-opacity: 0.618641"/>
    </g>
    <g clip-path="url(#p12657bfd99)">
     <use xlink:href="#C0_0_eea67f1b8f" x="266.113572" y="270.650179" style="fill: #008000; fill-opacity: 0.645033; stroke: #008000; stroke-opacity: 0.645033"/>
    </g>
    <g clip-path="url(#p12657bfd99)">
     <use xlink:href="#C0_0_eea67f1b8f" x="267.674114" y="267.366008" style="fill: #008000; fill-opacity: 0.672444; stroke: #008000; stroke-opacity: 0.672444"/>
    </g>
    <g clip-path="url(#p12657bfd99)">
     <use xlink:href="#C0_0_eea67f1b8f" x="269.560969" y="263.825326" style="fill: #008000; fill-opacity: 0.700865; stroke: #008000; stroke-opacity: 0.700865"/>
    </g>
    <g clip-path="url(#p12657bfd99)">
     <use xlink:href="#C0_0_eea67f1b8f" x="271.775367" y="260.024887" style="fill: #008000; fill-opacity: 0.730284; stroke: #008000; stroke-opacity: 0.730284"/>
    </g>
    <g clip-path="url(#p12657bfd99)">
     <use xlink:href="#C0_0_eea67f1b8f" x="274.318669" y="255.961339" style="fill: #008000; fill-opacity: 0.760692; stroke: #008000; stroke-opacity: 0.760692"/>
    </g>
    <g clip-path="url(#p12657bfd99)">
     <use xlink:href="#C0_0_eea67f1b8f" x="277.191759" y="251.631783" style="fill: #008000; fill-opacity: 0.792075; stroke: #008000; stroke-opacity: 0.792075"/>
    </g>
    <g clip-path="url(#p12657bfd99)">
     <use xlink:href="#C0_0_eea67f1b8f" x="280.395365" y="247.033336" style="fill: #008000; fill-opacity: 0.82442; stroke: #008000; stroke-opacity: 0.82442"/>
    </g>
    <g clip-path="url(#p12657bfd99)">
     <use xlink:href="#C0_0_eea67f1b8f" x="283.93005" y="242.163134" style="fill: #008000; fill-opacity: 0.857713; stroke: #008000; stroke-opacity: 0.857713"/>
    </g>
    <g clip-path="url(#p12657bfd99)">
     <use xlink:href="#C0_0_eea67f1b8f" x="287.796065" y="237.018833" style="fill: #008000; fill-opacity: 0.891936; stroke: #008000; stroke-opacity: 0.891936"/>
    </g>
    <g clip-path="url(#p12657bfd99)">
     <use xlink:href="#C0_0_eea67f1b8f" x="291.99327" y="231.598053" style="fill: #008000; fill-opacity: 0.927071; stroke: #008000; stroke-opacity: 0.927071"/>
    </g>
    <g clip-path="url(#p12657bfd99)">
     <use xlink:href="#C0_0_eea67f1b8f" x="296.521433" y="225.898785" style="fill: #008000; fill-opacity: 0.9631; stroke: #008000; stroke-opacity: 0.9631"/>
    </g>
    <g clip-path="url(#p12657bfd99)">
     <use xlink:href="#C0_0_eea67f1b8f" x="301.379873" y="219.919208" style="fill: #008000; stroke: #008000"/>
    </g>
   </g>
   <g id="text_20">
    <!-- Average magnetic moment on site 8 -->
    <g transform="translate(259.349063 54.48) scale(0.12 -0.12)">
     <defs>
      <path id="DejaVuSans-41" d="M 2188 4044 
L 1331 1722 
L 3047 1722 
L 2188 4044 
z
M 1831 4666 
L 2547 4666 
L 4325 0 
L 3669 0 
L 3244 1197 
L 1141 1197 
L 716 0 
L 50 0 
L 1831 4666 
z
" transform="scale(0.015625)"/>
      <path id="DejaVuSans-76" d="M 191 3500 
L 800 3500 
L 1894 563 
L 2988 3500 
L 3597 3500 
L 2284 0 
L 1503 0 
L 191 3500 
z
" transform="scale(0.015625)"/>
      <path id="DejaVuSans-65" d="M 3597 1894 
L 3597 1613 
L 953 1613 
Q 991 1019 1311 708 
Q 1631 397 2203 397 
Q 2534 397 2845 478 
Q 3156 559 3463 722 
L 3463 178 
Q 3153 47 2828 -22 
Q 2503 -91 2169 -91 
Q 1331 -91 842 396 
Q 353 884 353 1716 
Q 353 2575 817 3079 
Q 1281 3584 2069 3584 
Q 2775 3584 3186 3129 
Q 3597 2675 3597 1894 
z
M 3022 2063 
Q 3016 2534 2758 2815 
Q 2500 3097 2075 3097 
Q 1594 3097 1305 2825 
Q 1016 2553 972 2059 
L 3022 2063 
z
" transform="scale(0.015625)"/>
      <path id="DejaVuSans-72" d="M 2631 2963 
Q 2534 3019 2420 3045 
Q 2306 3072 2169 3072 
Q 1681 3072 1420 2755 
Q 1159 2438 1159 1844 
L 1159 0 
L 581 0 
L 581 3500 
L 1159 3500 
L 1159 2956 
Q 1341 3275 1631 3429 
Q 1922 3584 2338 3584 
Q 2397 3584 2469 3576 
Q 2541 3569 2628 3553 
L 2631 2963 
z
" transform="scale(0.015625)"/>
      <path id="DejaVuSans-61" d="M 2194 1759 
Q 1497 1759 1228 1600 
Q 959 1441 959 1056 
Q 959 750 1161 570 
Q 1363 391 1709 391 
Q 2188 391 2477 730 
Q 2766 1069 2766 1631 
L 2766 1759 
L 2194 1759 
z
M 3341 1997 
L 3341 0 
L 2766 0 
L 2766 531 
Q 2569 213 2275 61 
Q 1981 -91 1556 -91 
Q 1019 -91 701 211 
Q 384 513 384 1019 
Q 384 1609 779 1909 
Q 1175 2209 1959 2209 
L 2766 2209 
L 2766 2266 
Q 2766 2663 2505 2880 
Q 2244 3097 1772 3097 
Q 1472 3097 1187 3025 
Q 903 2953 641 2809 
L 641 3341 
Q 956 3463 1253 3523 
Q 1550 3584 1831 3584 
Q 2591 3584 2966 3190 
Q 3341 2797 3341 1997 
z
" transform="scale(0.015625)"/>
      <path id="DejaVuSans-67" d="M 2906 1791 
Q 2906 2416 2648 2759 
Q 2391 3103 1925 3103 
Q 1463 3103 1205 2759 
Q 947 2416 947 1791 
Q 947 1169 1205 825 
Q 1463 481 1925 481 
Q 2391 481 2648 825 
Q 2906 1169 2906 1791 
z
M 3481 434 
Q 3481 -459 3084 -895 
Q 2688 -1331 1869 -1331 
Q 1566 -1331 1297 -1286 
Q 1028 -1241 775 -1147 
L 775 -588 
Q 1028 -725 1275 -790 
Q 1522 -856 1778 -856 
Q 2344 -856 2625 -561 
Q 2906 -266 2906 331 
L 2906 616 
Q 2728 306 2450 153 
Q 2172 0 1784 0 
Q 1141 0 747 490 
Q 353 981 353 1791 
Q 353 2603 747 3093 
Q 1141 3584 1784 3584 
Q 2172 3584 2450 3431 
Q 2728 3278 2906 2969 
L 2906 3500 
L 3481 3500 
L 3481 434 
z
" transform="scale(0.015625)"/>
      <path id="DejaVuSans-20" transform="scale(0.015625)"/>
      <path id="DejaVuSans-6d" d="M 3328 2828 
Q 3544 3216 3844 3400 
Q 4144 3584 4550 3584 
Q 5097 3584 5394 3201 
Q 5691 2819 5691 2113 
L 5691 0 
L 5113 0 
L 5113 2094 
Q 5113 2597 4934 2840 
Q 4756 3084 4391 3084 
Q 3944 3084 3684 2787 
Q 3425 2491 3425 1978 
L 3425 0 
L 2847 0 
L 2847 2094 
Q 2847 2600 2669 2842 
Q 2491 3084 2119 3084 
Q 1678 3084 1418 2786 
Q 1159 2488 1159 1978 
L 1159 0 
L 581 0 
L 581 3500 
L 1159 3500 
L 1159 2956 
Q 1356 3278 1631 3431 
Q 1906 3584 2284 3584 
Q 2666 3584 2933 3390 
Q 3200 3197 3328 2828 
z
" transform="scale(0.015625)"/>
      <path id="DejaVuSans-6e" d="M 3513 2113 
L 3513 0 
L 2938 0 
L 2938 2094 
Q 2938 2591 2744 2837 
Q 2550 3084 2163 3084 
Q 1697 3084 1428 2787 
Q 1159 2491 1159 1978 
L 1159 0 
L 581 0 
L 581 3500 
L 1159 3500 
L 1159 2956 
Q 1366 3272 1645 3428 
Q 1925 3584 2291 3584 
Q 2894 3584 3203 3211 
Q 3513 2838 3513 2113 
z
" transform="scale(0.015625)"/>
      <path id="DejaVuSans-63" d="M 3122 3366 
L 3122 2828 
Q 2878 2963 2633 3030 
Q 2388 3097 2138 3097 
Q 1578 3097 1268 2742 
Q 959 2388 959 1747 
Q 959 1106 1268 751 
Q 1578 397 2138 397 
Q 2388 397 2633 464 
Q 2878 531 3122 666 
L 3122 134 
Q 2881 22 2623 -34 
Q 2366 -91 2075 -91 
Q 1284 -91 818 406 
Q 353 903 353 1747 
Q 353 2603 823 3093 
Q 1294 3584 2113 3584 
Q 2378 3584 2631 3529 
Q 2884 3475 3122 3366 
z
" transform="scale(0.015625)"/>
      <path id="DejaVuSans-6f" d="M 1959 3097 
Q 1497 3097 1228 2736 
Q 959 2375 959 1747 
Q 959 1119 1226 758 
Q 1494 397 1959 397 
Q 2419 397 2687 759 
Q 2956 1122 2956 1747 
Q 2956 2369 2687 2733 
Q 2419 3097 1959 3097 
z
M 1959 3584 
Q 2709 3584 3137 3096 
Q 3566 2609 3566 1747 
Q 3566 888 3137 398 
Q 2709 -91 1959 -91 
Q 1206 -91 779 398 
Q 353 888 353 1747 
Q 353 2609 779 3096 
Q 1206 3584 1959 3584 
z
" transform="scale(0.015625)"/>
     </defs>
     <use xlink:href="#DejaVuSans-41"/>
     <use xlink:href="#DejaVuSans-76" x="62.533203"/>
     <use xlink:href="#DejaVuSans-65" x="121.712891"/>
     <use xlink:href="#DejaVuSans-72" x="183.236328"/>
     <use xlink:href="#DejaVuSans-61" x="224.349609"/>
     <use xlink:href="#DejaVuSans-67" x="285.628906"/>
     <use xlink:href="#DejaVuSans-65" x="349.105469"/>
     <use xlink:href="#DejaVuSans-20" x="410.628906"/>
     <use xlink:href="#DejaVuSans-6d" x="442.416016"/>
     <use xlink:href="#DejaVuSans-61" x="539.828125"/>
     <use xlink:href="#DejaVuSans-67" x="601.107422"/>
     <use xlink:href="#DejaVuSans-6e" x="664.583984"/>
     <use xlink:href="#DejaVuSans-65" x="727.962891"/>
     <use xlink:href="#DejaVuSans-74" x="789.486328"/>
     <use xlink:href="#DejaVuSans-69" x="828.695312"/>
     <use xlink:href="#DejaVuSans-63" x="856.478516"/>
     <use xlink:href="#DejaVuSans-20" x="911.458984"/>
     <use xlink:href="#DejaVuSans-6d" x="943.246094"/>
     <use xlink:href="#DejaVuSans-6f" x="1040.658203"/>
     <use xlink:href="#DejaVuSans-6d" x="1101.839844"/>
     <use xlink:href="#DejaVuSans-65" x="1199.251953"/>
     <use xlink:href="#DejaVuSans-6e" x="1260.775391"/>
     <use xlink:href="#DejaVuSans-74" x="1324.154297"/>
     <use xlink:href="#DejaVuSans-20" x="1363.363281"/>
     <use xlink:href="#DejaVuSans-6f" x="1395.150391"/>
     <use xlink:href="#DejaVuSans-6e" x="1456.332031"/>
     <use xlink:href="#DejaVuSans-20" x="1519.710938"/>
     <use xlink:href="#DejaVuSans-73" x="1551.498047"/>
     <use xlink:href="#DejaVuSans-69" x="1603.597656"/>
     <use xlink:href="#DejaVuSans-74" x="1631.380859"/>
     <use xlink:href="#DejaVuSans-65" x="1670.589844"/>
     <use xlink:href="#DejaVuSans-20" x="1732.113281"/>
     <use xlink:href="#DejaVuSans-38" x="1763.900391"/>
    </g>
   </g>
   <g id="legend_1">
    <g id="patch_6">
     <path d="M 552.04 73.48 
L 556.04 73.48 
Q 558.04 73.48 558.04 71.48 
L 558.04 67.48 
Q 558.04 65.48 556.04 65.48 
L 552.04 65.48 
Q 550.04 65.48 550.04 67.48 
L 550.04 71.48 
Q 550.04 73.48 552.04 73.48 
z
" style="fill: #ffffff; opacity: 0.8; stroke: #cccccc; stroke-linejoin: miter"/>
    </g>
   </g>
  </g>
 </g>
 <defs>
  <clipPath id="p12657bfd99">
   <rect x="174.96" y="60.48" width="388.08" height="388.08"/>
  </clipPath>
 </defs>
</svg>
