<?xml version="1.0" encoding="utf-8" standalone="no"?>
<!DOCTYPE svg PUBLIC "-//W3C//DTD SVG 1.1//EN"
  "http://www.w3.org/Graphics/SVG/1.1/DTD/svg11.dtd">
<svg xmlns:xlink="http://www.w3.org/1999/xlink" width="460.8pt" height="345.6pt" viewBox="0 0 460.8 345.6" xmlns="http://www.w3.org/2000/svg" version="1.1">
 <metadata>
  <rdf:RDF xmlns:dc="http://purl.org/dc/elements/1.1/" xmlns:cc="http://creativecommons.org/ns#" xmlns:rdf="http://www.w3.org/1999/02/22-rdf-syntax-ns#">
   <cc:Work>
    <dc:type rdf:resource="http://purl.org/dc/dcmitype/StillImage"/>
    <dc:date>2024-07-05T12:32:03.130237</dc:date>
    <dc:format>image/svg+xml</dc:format>
    <dc:creator>
     <cc:Agent>
      <dc:title>Matplotlib v3.7.1, https://matplotlib.org/</dc:title>
     </cc:Agent>
    </dc:creator>
   </cc:Work>
  </rdf:RDF>
 </metadata>
 <defs>
  <style type="text/css">*{stroke-linejoin: round; stroke-linecap: butt}</style>
 </defs>
 <g id="figure_1">
  <g id="patch_1">
   <path d="M 0 345.6 
L 460.8 345.6 
L 460.8 0 
L 0 0 
z
" style="fill: #ffffff"/>
  </g>
  <g id="axes_1">
   <g id="patch_2">
    <path d="M 57.6 307.584 
L 414.72 307.584 
L 414.72 41.472 
L 57.6 41.472 
z
" style="fill: #ffffff"/>
   </g>
   <g id="matplotlib.axis_1">
    <g id="xtick_1">
     <g id="line2d_1">
      <defs>
       <path id="mae24cbc3b2" d="M 0 0 
L 0 3.5 
" style="stroke: #000000; stroke-width: 0.8"/>
      </defs>
      <g>
       <use xlink:href="#mae24cbc3b2" x="73.832727" y="307.584" style="stroke: #000000; stroke-width: 0.8"/>
      </g>
     </g>
     <g id="text_1">
      <!-- 0 -->
      <g transform="translate(70.651477 322.182437) scale(0.1 -0.1)">
       <defs>
        <path id="DejaVuSans-30" d="M 2034 4250 
Q 1547 4250 1301 3770 
Q 1056 3291 1056 2328 
Q 1056 1369 1301 889 
Q 1547 409 2034 409 
Q 2525 409 2770 889 
Q 3016 1369 3016 2328 
Q 3016 3291 2770 3770 
Q 2525 4250 2034 4250 
z
M 2034 4750 
Q 2819 4750 3233 4129 
Q 3647 3509 3647 2328 
Q 3647 1150 3233 529 
Q 2819 -91 2034 -91 
Q 1250 -91 836 529 
Q 422 1150 422 2328 
Q 422 3509 836 4129 
Q 1250 4750 2034 4750 
z
" transform="scale(0.015625)"/>
       </defs>
       <use xlink:href="#DejaVuSans-30"/>
      </g>
     </g>
    </g>
    <g id="xtick_2">
     <g id="line2d_2">
      <g>
       <use xlink:href="#mae24cbc3b2" x="137.303802" y="307.584" style="stroke: #000000; stroke-width: 0.8"/>
      </g>
     </g>
     <g id="text_2">
      <!-- 200 -->
      <g transform="translate(127.760052 322.182437) scale(0.1 -0.1)">
       <defs>
        <path id="DejaVuSans-32" d="M 1228 531 
L 3431 531 
L 3431 0 
L 469 0 
L 469 531 
Q 828 903 1448 1529 
Q 2069 2156 2228 2338 
Q 2531 2678 2651 2914 
Q 2772 3150 2772 3378 
Q 2772 3750 2511 3984 
Q 2250 4219 1831 4219 
Q 1534 4219 1204 4116 
Q 875 4013 500 3803 
L 500 4441 
Q 881 4594 1212 4672 
Q 1544 4750 1819 4750 
Q 2544 4750 2975 4387 
Q 3406 4025 3406 3419 
Q 3406 3131 3298 2873 
Q 3191 2616 2906 2266 
Q 2828 2175 2409 1742 
Q 1991 1309 1228 531 
z
" transform="scale(0.015625)"/>
       </defs>
       <use xlink:href="#DejaVuSans-32"/>
       <use xlink:href="#DejaVuSans-30" x="63.623047"/>
       <use xlink:href="#DejaVuSans-30" x="127.246094"/>
      </g>
     </g>
    </g>
    <g id="xtick_3">
     <g id="line2d_3">
      <g>
       <use xlink:href="#mae24cbc3b2" x="200.774876" y="307.584" style="stroke: #000000; stroke-width: 0.8"/>
      </g>
     </g>
     <g id="text_3">
      <!-- 400 -->
      <g transform="translate(191.231126 322.182437) scale(0.1 -0.1)">
       <defs>
        <path id="DejaVuSans-34" d="M 2419 4116 
L 825 1625 
L 2419 1625 
L 2419 4116 
z
M 2253 4666 
L 3047 4666 
L 3047 1625 
L 3713 1625 
L 3713 1100 
L 3047 1100 
L 3047 0 
L 2419 0 
L 2419 1100 
L 313 1100 
L 313 1709 
L 2253 4666 
z
" transform="scale(0.015625)"/>
       </defs>
       <use xlink:href="#DejaVuSans-34"/>
       <use xlink:href="#DejaVuSans-30" x="63.623047"/>
       <use xlink:href="#DejaVuSans-30" x="127.246094"/>
      </g>
     </g>
    </g>
    <g id="xtick_4">
     <g id="line2d_4">
      <g>
       <use xlink:href="#mae24cbc3b2" x="264.24595" y="307.584" style="stroke: #000000; stroke-width: 0.8"/>
      </g>
     </g>
     <g id="text_4">
      <!-- 600 -->
      <g transform="translate(254.7022 322.182437) scale(0.1 -0.1)">
       <defs>
        <path id="DejaVuSans-36" d="M 2113 2584 
Q 1688 2584 1439 2293 
Q 1191 2003 1191 1497 
Q 1191 994 1439 701 
Q 1688 409 2113 409 
Q 2538 409 2786 701 
Q 3034 994 3034 1497 
Q 3034 2003 2786 2293 
Q 2538 2584 2113 2584 
z
M 3366 4563 
L 3366 3988 
Q 3128 4100 2886 4159 
Q 2644 4219 2406 4219 
Q 1781 4219 1451 3797 
Q 1122 3375 1075 2522 
Q 1259 2794 1537 2939 
Q 1816 3084 2150 3084 
Q 2853 3084 3261 2657 
Q 3669 2231 3669 1497 
Q 3669 778 3244 343 
Q 2819 -91 2113 -91 
Q 1303 -91 875 529 
Q 447 1150 447 2328 
Q 447 3434 972 4092 
Q 1497 4750 2381 4750 
Q 2619 4750 2861 4703 
Q 3103 4656 3366 4563 
z
" transform="scale(0.015625)"/>
       </defs>
       <use xlink:href="#DejaVuSans-36"/>
       <use xlink:href="#DejaVuSans-30" x="63.623047"/>
       <use xlink:href="#DejaVuSans-30" x="127.246094"/>
      </g>
     </g>
    </g>
    <g id="xtick_5">
     <g id="line2d_5">
      <g>
       <use xlink:href="#mae24cbc3b2" x="327.717025" y="307.584" style="stroke: #000000; stroke-width: 0.8"/>
      </g>
     </g>
     <g id="text_5">
      <!-- 800 -->
      <g transform="translate(318.173275 322.182437) scale(0.1 -0.1)">
       <defs>
        <path id="DejaVuSans-38" d="M 2034 2216 
Q 1584 2216 1326 1975 
Q 1069 1734 1069 1313 
Q 1069 891 1326 650 
Q 1584 409 2034 409 
Q 2484 409 2743 651 
Q 3003 894 3003 1313 
Q 3003 1734 2745 1975 
Q 2488 2216 2034 2216 
z
M 1403 2484 
Q 997 2584 770 2862 
Q 544 3141 544 3541 
Q 544 4100 942 4425 
Q 1341 4750 2034 4750 
Q 2731 4750 3128 4425 
Q 3525 4100 3525 3541 
Q 3525 3141 3298 2862 
Q 3072 2584 2669 2484 
Q 3125 2378 3379 2068 
Q 3634 1759 3634 1313 
Q 3634 634 3220 271 
Q 2806 -91 2034 -91 
Q 1263 -91 848 271 
Q 434 634 434 1313 
Q 434 1759 690 2068 
Q 947 2378 1403 2484 
z
M 1172 3481 
Q 1172 3119 1398 2916 
Q 1625 2713 2034 2713 
Q 2441 2713 2670 2916 
Q 2900 3119 2900 3481 
Q 2900 3844 2670 4047 
Q 2441 4250 2034 4250 
Q 1625 4250 1398 4047 
Q 1172 3844 1172 3481 
z
" transform="scale(0.015625)"/>
       </defs>
       <use xlink:href="#DejaVuSans-38"/>
       <use xlink:href="#DejaVuSans-30" x="63.623047"/>
       <use xlink:href="#DejaVuSans-30" x="127.246094"/>
      </g>
     </g>
    </g>
    <g id="xtick_6">
     <g id="line2d_6">
      <g>
       <use xlink:href="#mae24cbc3b2" x="391.188099" y="307.584" style="stroke: #000000; stroke-width: 0.8"/>
      </g>
     </g>
     <g id="text_6">
      <!-- 1000 -->
      <g transform="translate(378.463099 322.182437) scale(0.1 -0.1)">
       <defs>
        <path id="DejaVuSans-31" d="M 794 531 
L 1825 531 
L 1825 4091 
L 703 3866 
L 703 4441 
L 1819 4666 
L 2450 4666 
L 2450 531 
L 3481 531 
L 3481 0 
L 794 0 
L 794 531 
z
" transform="scale(0.015625)"/>
       </defs>
       <use xlink:href="#DejaVuSans-31"/>
       <use xlink:href="#DejaVuSans-30" x="63.623047"/>
       <use xlink:href="#DejaVuSans-30" x="127.246094"/>
       <use xlink:href="#DejaVuSans-30" x="190.869141"/>
      </g>
     </g>
    </g>
    <g id="text_7">
     <!-- n -->
     <g transform="translate(232.99125 335.860562) scale(0.1 -0.1)">
      <defs>
       <path id="DejaVuSans-6e" d="M 3513 2113 
L 3513 0 
L 2938 0 
L 2938 2094 
Q 2938 2591 2744 2837 
Q 2550 3084 2163 3084 
Q 1697 3084 1428 2787 
Q 1159 2491 1159 1978 
L 1159 0 
L 581 0 
L 581 3500 
L 1159 3500 
L 1159 2956 
Q 1366 3272 1645 3428 
Q 1925 3584 2291 3584 
Q 2894 3584 3203 3211 
Q 3513 2838 3513 2113 
z
" transform="scale(0.015625)"/>
      </defs>
      <use xlink:href="#DejaVuSans-6e"/>
     </g>
    </g>
   </g>
   <g id="matplotlib.axis_2">
    <g id="ytick_1">
     <g id="line2d_7">
      <defs>
       <path id="m510cc61386" d="M 0 0 
L -3.5 0 
" style="stroke: #000000; stroke-width: 0.8"/>
      </defs>
      <g>
       <use xlink:href="#m510cc61386" x="57.6" y="296.371116" style="stroke: #000000; stroke-width: 0.8"/>
      </g>
     </g>
     <g id="text_8">
      <!-- −3 -->
      <g transform="translate(35.857813 300.170335) scale(0.1 -0.1)">
       <defs>
        <path id="DejaVuSans-2212" d="M 678 2272 
L 4684 2272 
L 4684 1741 
L 678 1741 
L 678 2272 
z
" transform="scale(0.015625)"/>
        <path id="DejaVuSans-33" d="M 2597 2516 
Q 3050 2419 3304 2112 
Q 3559 1806 3559 1356 
Q 3559 666 3084 287 
Q 2609 -91 1734 -91 
Q 1441 -91 1130 -33 
Q 819 25 488 141 
L 488 750 
Q 750 597 1062 519 
Q 1375 441 1716 441 
Q 2309 441 2620 675 
Q 2931 909 2931 1356 
Q 2931 1769 2642 2001 
Q 2353 2234 1838 2234 
L 1294 2234 
L 1294 2753 
L 1863 2753 
Q 2328 2753 2575 2939 
Q 2822 3125 2822 3475 
Q 2822 3834 2567 4026 
Q 2313 4219 1838 4219 
Q 1578 4219 1281 4162 
Q 984 4106 628 3988 
L 628 4550 
Q 988 4650 1302 4700 
Q 1616 4750 1894 4750 
Q 2613 4750 3031 4423 
Q 3450 4097 3450 3541 
Q 3450 3153 3228 2886 
Q 3006 2619 2597 2516 
z
" transform="scale(0.015625)"/>
       </defs>
       <use xlink:href="#DejaVuSans-2212"/>
       <use xlink:href="#DejaVuSans-33" x="83.789062"/>
      </g>
     </g>
    </g>
    <g id="ytick_2">
     <g id="line2d_8">
      <g>
       <use xlink:href="#m510cc61386" x="57.6" y="256.682522" style="stroke: #000000; stroke-width: 0.8"/>
      </g>
     </g>
     <g id="text_9">
      <!-- −2 -->
      <g transform="translate(35.857813 260.481741) scale(0.1 -0.1)">
       <use xlink:href="#DejaVuSans-2212"/>
       <use xlink:href="#DejaVuSans-32" x="83.789062"/>
      </g>
     </g>
    </g>
    <g id="ytick_3">
     <g id="line2d_9">
      <g>
       <use xlink:href="#m510cc61386" x="57.6" y="216.993928" style="stroke: #000000; stroke-width: 0.8"/>
      </g>
     </g>
     <g id="text_10">
      <!-- −1 -->
      <g transform="translate(35.857813 220.793146) scale(0.1 -0.1)">
       <use xlink:href="#DejaVuSans-2212"/>
       <use xlink:href="#DejaVuSans-31" x="83.789062"/>
      </g>
     </g>
    </g>
    <g id="ytick_4">
     <g id="line2d_10">
      <g>
       <use xlink:href="#m510cc61386" x="57.6" y="177.305333" style="stroke: #000000; stroke-width: 0.8"/>
      </g>
     </g>
     <g id="text_11">
      <!-- 0 -->
      <g transform="translate(44.2375 181.104552) scale(0.1 -0.1)">
       <use xlink:href="#DejaVuSans-30"/>
      </g>
     </g>
    </g>
    <g id="ytick_5">
     <g id="line2d_11">
      <g>
       <use xlink:href="#m510cc61386" x="57.6" y="137.616739" style="stroke: #000000; stroke-width: 0.8"/>
      </g>
     </g>
     <g id="text_12">
      <!-- 1 -->
      <g transform="translate(44.2375 141.415958) scale(0.1 -0.1)">
       <use xlink:href="#DejaVuSans-31"/>
      </g>
     </g>
    </g>
    <g id="ytick_6">
     <g id="line2d_12">
      <g>
       <use xlink:href="#m510cc61386" x="57.6" y="97.928145" style="stroke: #000000; stroke-width: 0.8"/>
      </g>
     </g>
     <g id="text_13">
      <!-- 2 -->
      <g transform="translate(44.2375 101.727363) scale(0.1 -0.1)">
       <use xlink:href="#DejaVuSans-32"/>
      </g>
     </g>
    </g>
    <g id="ytick_7">
     <g id="line2d_13">
      <g>
       <use xlink:href="#m510cc61386" x="57.6" y="58.23955" style="stroke: #000000; stroke-width: 0.8"/>
      </g>
     </g>
     <g id="text_14">
      <!-- 3 -->
      <g transform="translate(44.2375 62.038769) scale(0.1 -0.1)">
       <use xlink:href="#DejaVuSans-33"/>
      </g>
     </g>
    </g>
    <g id="text_15">
     <!-- E*t -->
     <g transform="translate(29.778125 182.147531) rotate(-90) scale(0.1 -0.1)">
      <defs>
       <path id="DejaVuSans-45" d="M 628 4666 
L 3578 4666 
L 3578 4134 
L 1259 4134 
L 1259 2753 
L 3481 2753 
L 3481 2222 
L 1259 2222 
L 1259 531 
L 3634 531 
L 3634 0 
L 628 0 
L 628 4666 
z
" transform="scale(0.015625)"/>
       <path id="DejaVuSans-2a" d="M 3009 3897 
L 1888 3291 
L 3009 2681 
L 2828 2375 
L 1778 3009 
L 1778 1831 
L 1422 1831 
L 1422 3009 
L 372 2375 
L 191 2681 
L 1313 3291 
L 191 3897 
L 372 4206 
L 1422 3572 
L 1422 4750 
L 1778 4750 
L 1778 3572 
L 2828 4206 
L 3009 3897 
z
" transform="scale(0.015625)"/>
       <path id="DejaVuSans-74" d="M 1172 4494 
L 1172 3500 
L 2356 3500 
L 2356 3053 
L 1172 3053 
L 1172 1153 
Q 1172 725 1289 603 
Q 1406 481 1766 481 
L 2356 481 
L 2356 0 
L 1766 0 
Q 1100 0 847 248 
Q 594 497 594 1153 
L 594 3053 
L 172 3053 
L 172 3500 
L 594 3500 
L 594 4494 
L 1172 4494 
z
" transform="scale(0.015625)"/>
      </defs>
      <use xlink:href="#DejaVuSans-45"/>
      <use xlink:href="#DejaVuSans-2a" x="63.183594"/>
      <use xlink:href="#DejaVuSans-74" x="113.183594"/>
     </g>
    </g>
   </g>
   <g id="line2d_14">
    <path d="M 73.832727 293.910254 
L 74.150083 252.108286 
L 74.467438 251.442636 
L 74.784793 251.341669 
L 75.419504 250.33957 
L 76.054215 249.953028 
L 76.37157 249.774813 
L 76.688926 249.318585 
L 77.323636 249.16675 
L 78.593058 246.457537 
L 78.910413 246.064841 
L 79.227769 245.381489 
L 79.545124 245.101775 
L 79.862479 244.507915 
L 80.179835 244.271763 
L 80.49719 243.65989 
L 80.814545 243.527339 
L 81.131901 242.982326 
L 81.766612 242.833229 
L 82.718678 241.903134 
L 83.353388 241.498741 
L 83.670744 241.204857 
L 84.305455 241.046776 
L 84.62281 240.631816 
L 84.940165 240.547191 
L 85.257521 240.286211 
L 85.574876 239.747944 
L 87.479008 239.05122 
L 87.796364 238.647829 
L 88.113719 237.971309 
L 89.065785 237.36736 
L 89.38314 237.33159 
L 89.700496 237.062341 
L 90.017851 237.025853 
L 90.652562 236.675384 
L 91.921983 236.261598 
L 92.239339 235.92893 
L 92.87405 235.782405 
L 93.191405 235.334868 
L 93.50876 235.182352 
L 93.826116 234.734137 
L 94.143471 234.517277 
L 95.412893 234.324812 
L 96.364959 233.810893 
L 97.317025 233.484669 
L 97.951736 233.22629 
L 98.269091 232.777717 
L 98.903802 232.520568 
L 100.490579 231.76448 
L 100.807934 231.62999 
L 101.442645 230.964021 
L 102.077355 230.805239 
L 103.029421 230.256334 
L 103.664132 229.671144 
L 103.981488 229.603644 
L 104.298843 229.351916 
L 104.616198 229.298735 
L 104.933554 229.06287 
L 105.250909 228.62178 
L 105.88562 228.34791 
L 106.202975 228.286386 
L 106.520331 227.884237 
L 107.155041 227.500234 
L 107.472397 227.4637 
L 107.789752 227.306746 
L 108.107107 227.284459 
L 108.741818 227.052087 
L 110.64595 226.363515 
L 111.280661 226.227832 
L 112.867438 225.624315 
L 113.184793 225.562582 
L 113.502149 225.363233 
L 113.819504 225.310534 
L 114.77157 224.850556 
L 117.310413 223.583416 
L 118.89719 221.938609 
L 119.849256 221.85162 
L 120.483967 221.427247 
L 121.118678 221.262174 
L 122.070744 220.961745 
L 122.388099 220.466909 
L 123.340165 220.233893 
L 124.609587 219.56153 
L 124.926942 219.021982 
L 126.831074 218.449022 
L 127.465785 218.333935 
L 127.78314 218.253409 
L 128.100496 217.94095 
L 129.052562 217.705744 
L 130.321983 217.356809 
L 131.27405 217.172123 
L 132.226116 216.763246 
L 133.495537 216.358564 
L 133.812893 216.050469 
L 135.399669 215.408001 
L 136.669091 215.148462 
L 138.573223 214.636141 
L 139.207934 214.002808 
L 140.16 213.63535 
L 140.477355 213.393619 
L 140.794711 213.310722 
L 141.429421 212.801278 
L 142.064132 212.652021 
L 143.650909 212.211832 
L 144.28562 212.085192 
L 144.602975 211.830822 
L 144.920331 211.776389 
L 145.555041 211.312064 
L 145.872397 211.254482 
L 146.507107 210.917076 
L 146.824463 210.840957 
L 147.141818 210.269597 
L 147.776529 210.004936 
L 148.093884 209.738027 
L 148.728595 209.534669 
L 149.363306 209.01504 
L 149.680661 208.960315 
L 149.998017 208.694471 
L 150.315372 208.6229 
L 150.950083 208.367858 
L 152.854215 208.075939 
L 153.806281 207.884338 
L 154.440992 207.806951 
L 155.075702 207.39986 
L 155.393058 206.924504 
L 156.662479 206.687628 
L 156.979835 206.334206 
L 157.29719 206.273128 
L 157.614545 206.012331 
L 158.566612 205.856279 
L 159.201322 205.753419 
L 160.153388 205.360468 
L 161.42281 204.463483 
L 161.740165 204.401586 
L 162.057521 203.959763 
L 163.009587 203.724366 
L 163.644298 203.611934 
L 163.961653 203.278442 
L 165.54843 202.999484 
L 165.865785 202.623298 
L 166.500496 202.527217 
L 166.817851 202.344412 
L 167.452562 202.218152 
L 167.769917 201.98733 
L 168.404628 201.156794 
L 170.626116 200.378662 
L 171.895537 200.159197 
L 172.530248 199.931434 
L 173.799669 199.688435 
L 177.290579 197.954555 
L 178.242645 197.809398 
L 179.829421 197.400981 
L 180.146777 197.362848 
L 180.464132 197.131609 
L 181.098843 197.056703 
L 181.733554 196.783146 
L 182.368264 196.636797 
L 183.955041 195.749787 
L 184.272397 195.515508 
L 185.224463 195.331052 
L 185.859174 195.170665 
L 186.176529 194.804316 
L 187.44595 194.52882 
L 187.763306 193.93024 
L 190.302149 193.492691 
L 190.93686 193.337198 
L 191.57157 193.154144 
L 192.206281 192.898322 
L 193.475702 192.56769 
L 194.110413 192.284413 
L 194.427769 192.219618 
L 194.745124 191.953214 
L 195.062479 191.932255 
L 195.379835 191.601704 
L 196.966612 191.148679 
L 197.283967 190.827981 
L 197.918678 190.725214 
L 198.236033 190.538788 
L 199.188099 190.370226 
L 199.82281 190.169278 
L 200.140165 190.157904 
L 202.996364 188.891508 
L 203.631074 188.765392 
L 204.265785 188.636513 
L 204.900496 188.462767 
L 205.852562 188.316143 
L 206.487273 187.769679 
L 206.804628 187.536852 
L 207.439339 187.425773 
L 207.756694 187.230519 
L 208.391405 187.204953 
L 208.70876 187.006176 
L 209.343471 186.882349 
L 209.978182 186.630294 
L 211.247603 186.341701 
L 211.564959 186.168621 
L 211.882314 186.156704 
L 212.83438 185.796434 
L 214.103802 185.365434 
L 215.690579 184.634338 
L 216.007934 184.575097 
L 216.642645 184.193374 
L 217.912066 183.894871 
L 219.498843 183.553277 
L 220.768264 182.96494 
L 221.720331 182.552999 
L 223.307107 182.243163 
L 223.941818 181.9795 
L 224.576529 181.830921 
L 224.893884 181.804959 
L 225.21124 181.536631 
L 225.84595 181.491916 
L 226.480661 181.23578 
L 228.384793 180.789339 
L 229.019504 180.59249 
L 231.240992 180.103769 
L 231.558347 179.761459 
L 232.193058 179.632386 
L 232.510413 179.613862 
L 232.827769 179.191555 
L 235.683967 178.262468 
L 236.318678 178.212596 
L 237.905455 177.450722 
L 239.492231 177.043118 
L 240.126942 176.600863 
L 242.031074 176.06168 
L 242.665785 175.931723 
L 243.935207 175.635903 
L 244.569917 175.447961 
L 245.521983 175.263095 
L 247.426116 174.7638 
L 248.060826 174.693438 
L 249.012893 174.336057 
L 249.330248 174.316427 
L 249.647603 174.03092 
L 250.599669 173.797244 
L 250.917025 173.586907 
L 251.551736 173.432243 
L 252.503802 172.93746 
L 253.138512 172.823467 
L 254.090579 172.230172 
L 255.36 171.695117 
L 255.994711 171.654847 
L 257.264132 171.249393 
L 257.898843 171.172659 
L 258.533554 170.893092 
L 259.168264 170.80849 
L 259.48562 170.634554 
L 259.802975 170.237007 
L 261.389752 169.918799 
L 262.024463 169.755959 
L 262.976529 169.611106 
L 265.198017 168.970323 
L 265.515372 168.731913 
L 265.832727 168.699008 
L 266.467438 168.50206 
L 266.784793 168.419521 
L 267.419504 168.018904 
L 269.323636 167.68138 
L 270.593058 167.266719 
L 270.910413 167.227476 
L 271.227769 167.066552 
L 271.862479 166.975326 
L 272.49719 166.633958 
L 272.814545 166.270308 
L 273.449256 165.971099 
L 274.401322 165.842345 
L 274.718678 165.530138 
L 275.353388 165.367358 
L 275.988099 165.122821 
L 277.257521 164.859989 
L 277.892231 164.752277 
L 278.209587 164.560833 
L 278.526942 164.23205 
L 279.161653 164.014607 
L 279.479008 163.421534 
L 279.796364 163.351128 
L 280.113719 163.127805 
L 282.017851 162.7607 
L 282.335207 162.522694 
L 282.652562 162.465514 
L 283.287273 161.899749 
L 284.239339 161.747092 
L 284.87405 161.481612 
L 285.191405 161.460218 
L 285.826116 161.194066 
L 287.412893 160.912506 
L 288.999669 160.147538 
L 289.63438 159.987811 
L 289.951736 159.941064 
L 290.586446 159.693177 
L 291.221157 159.572083 
L 292.173223 159.223748 
L 292.807934 158.9407 
L 294.712066 158.258198 
L 295.029421 157.904333 
L 296.298843 157.516837 
L 296.933554 157.426091 
L 298.520331 156.891216 
L 299.472397 156.3388 
L 300.107107 155.988685 
L 300.424463 155.604903 
L 300.741818 155.598551 
L 301.059174 155.471848 
L 301.693884 154.851766 
L 304.867438 153.8454 
L 305.184793 153.631576 
L 305.819504 153.424489 
L 306.454215 153.146278 
L 307.088926 152.95646 
L 307.406281 152.900176 
L 307.723636 152.080127 
L 308.358347 151.66246 
L 308.993058 151.522707 
L 310.579835 151.108164 
L 310.89719 150.915061 
L 311.214545 150.889793 
L 311.531901 150.706168 
L 312.166612 150.666994 
L 312.483967 150.386495 
L 314.705455 149.832256 
L 315.02281 149.577513 
L 315.340165 149.543067 
L 315.657521 148.959203 
L 316.926942 148.523621 
L 318.196364 148.211445 
L 318.831074 147.302805 
L 320.100496 146.994532 
L 320.735207 146.46985 
L 321.052562 146.316771 
L 321.687273 145.854954 
L 322.639339 145.715429 
L 322.956694 145.450098 
L 323.591405 144.63542 
L 324.543471 144.238644 
L 325.178182 143.959459 
L 325.812893 143.715824 
L 326.447603 143.320745 
L 326.764959 143.284918 
L 327.399669 142.733569 
L 327.717025 142.560402 
L 328.03438 142.531688 
L 329.621157 141.673503 
L 329.938512 141.639019 
L 330.573223 141.37111 
L 331.525289 141.270967 
L 331.842645 141.056161 
L 332.477355 140.932147 
L 332.794711 140.535169 
L 333.429421 140.398818 
L 334.064132 140.06654 
L 335.650909 139.737932 
L 335.968264 139.630817 
L 336.920331 138.757063 
L 338.189752 138.158387 
L 338.507107 138.098795 
L 338.824463 137.642253 
L 340.093884 137.024446 
L 340.728595 136.493918 
L 341.04595 136.319377 
L 341.363306 135.673514 
L 342.315372 135.392846 
L 343.267438 135.258222 
L 343.584793 134.940383 
L 344.219504 133.760185 
L 344.854215 133.523266 
L 345.17157 133.165833 
L 346.123636 132.84216 
L 346.440992 132.422026 
L 349.931901 131.389576 
L 351.201322 130.933607 
L 351.518678 130.480654 
L 351.836033 130.40008 
L 352.470744 129.84591 
L 353.42281 129.612803 
L 353.740165 129.315468 
L 354.692231 129.01986 
L 355.326942 128.617011 
L 355.644298 127.652362 
L 355.961653 127.563214 
L 356.279008 127.234697 
L 356.913719 126.899514 
L 357.231074 126.499335 
L 357.54843 126.383751 
L 357.865785 126.020955 
L 358.18314 125.191262 
L 358.817851 125.080106 
L 359.452562 124.819286 
L 359.769917 124.073397 
L 360.721983 123.492888 
L 362.30876 123.130316 
L 363.578182 122.404417 
L 363.895537 122.330916 
L 364.212893 121.789753 
L 365.164959 121.330445 
L 366.117025 120.637146 
L 366.751736 120.539434 
L 367.386446 120.021702 
L 367.703802 119.739282 
L 368.021157 119.28347 
L 368.338512 119.171896 
L 368.655868 118.596118 
L 369.290579 118.347268 
L 369.607934 117.711533 
L 370.242645 117.601026 
L 370.877355 116.762525 
L 371.194711 116.537046 
L 371.512066 115.711569 
L 371.829421 115.42617 
L 372.146777 115.313977 
L 372.781488 114.562387 
L 373.098843 113.807959 
L 374.050909 113.589525 
L 374.368264 113.248652 
L 374.68562 113.072253 
L 375.002975 112.134278 
L 375.955041 111.974344 
L 376.272397 111.063654 
L 377.541818 110.039491 
L 378.176529 109.85258 
L 378.81124 109.693732 
L 379.128595 108.092421 
L 379.44595 107.907315 
L 380.398017 105.603476 
L 380.715372 105.410296 
L 381.032727 105.363738 
L 381.350083 105.17062 
L 381.984793 103.990016 
L 382.302149 103.872199 
L 382.619504 102.89882 
L 382.93686 102.775178 
L 383.254215 102.482768 
L 383.57157 102.474767 
L 384.206281 102.161456 
L 384.523636 101.860901 
L 384.840992 100.47435 
L 385.158347 100.236818 
L 385.475702 99.416194 
L 385.793058 99.206456 
L 386.427769 98.314693 
L 386.745124 96.838789 
L 387.379835 96.583168 
L 387.69719 95.092012 
L 388.014545 94.99245 
L 388.331901 94.435773 
L 388.649256 94.258032 
L 388.966612 93.881881 
L 389.283967 93.704656 
L 389.601322 93.352146 
L 389.918678 91.514981 
L 390.236033 91.260807 
L 390.553388 90.16694 
L 390.870744 87.972379 
L 391.505455 87.677124 
L 392.140165 85.428408 
L 392.457521 85.291438 
L 392.774876 84.175535 
L 393.092231 83.657045 
L 393.409587 83.421326 
L 393.726942 81.214948 
L 394.361653 80.642761 
L 394.996364 76.873835 
L 395.313719 76.742151 
L 395.631074 75.984726 
L 396.265785 75.647643 
L 396.58314 69.227897 
L 397.217851 65.229505 
L 397.535207 65.053644 
L 397.852562 54.147755 
L 398.169917 53.685829 
L 398.487273 53.568 
L 398.487273 53.568 
" clip-path="url(#p7317e91001)" style="fill: none; stroke: #1f77b4; stroke-width: 1.5; stroke-linecap: square"/>
   </g>
   <g id="line2d_15">
    <path d="M 73.832727 295.488 
L 74.150083 253.414118 
L 74.467438 253.414118 
L 74.784793 252.728514 
L 75.102149 252.728514 
L 75.419504 251.752883 
L 75.73686 251.752883 
L 76.054215 251.368276 
L 76.37157 251.368276 
L 76.688926 251.206152 
L 77.006281 251.206152 
L 77.323636 250.870252 
L 77.640992 249.916132 
L 77.958347 249.916132 
L 78.275702 248.253733 
L 78.593058 248.253733 
L 78.910413 247.781789 
L 79.227769 246.911209 
L 79.545124 246.911209 
L 79.862479 245.98864 
L 80.179835 245.98864 
L 80.49719 244.996285 
L 81.449256 244.919802 
L 81.766612 244.515956 
L 82.083967 243.783729 
L 83.036033 243.691287 
L 83.670744 242.762109 
L 83.988099 242.762109 
L 84.305455 242.557891 
L 84.62281 242.557891 
L 85.257521 241.992313 
L 85.574876 241.222482 
L 86.526942 241.180265 
L 86.844298 240.909935 
L 87.161653 240.909935 
L 87.479008 240.671641 
L 87.796364 240.671641 
L 88.113719 239.588717 
L 88.431074 239.444371 
L 88.74843 239.046251 
L 89.065785 239.046251 
L 89.38314 238.777257 
L 89.700496 238.777257 
L 90.017851 238.532721 
L 90.335207 238.532721 
L 90.652562 238.336601 
L 90.969917 238.336601 
L 91.287273 238.134387 
L 91.604628 238.134387 
L 92.239339 237.695732 
L 92.556694 237.578782 
L 92.87405 237.186127 
L 93.50876 237.132455 
L 93.826116 236.172323 
L 94.778182 236.158978 
L 95.095537 235.863607 
L 96.047603 235.844691 
L 96.682314 235.244285 
L 97.951736 235.141104 
L 98.269091 234.341821 
L 98.586446 234.341821 
L 98.903802 234.165838 
L 99.221157 234.165838 
L 99.538512 233.777801 
L 99.855868 233.777801 
L 100.173223 233.544064 
L 100.807934 233.460057 
L 101.125289 232.872321 
L 101.442645 232.872321 
L 101.76 232.606171 
L 102.077355 232.606171 
L 102.712066 231.996869 
L 103.346777 231.928226 
L 103.664132 231.329073 
L 103.981488 231.329073 
L 104.298843 230.991658 
L 104.616198 230.991658 
L 104.933554 230.460554 
L 105.250909 230.460554 
L 105.88562 230.018882 
L 106.202975 230.018882 
L 106.520331 229.378456 
L 107.155041 229.304973 
L 107.472397 228.977916 
L 108.424463 228.913058 
L 108.741818 228.584939 
L 109.376529 228.57363 
L 109.693884 228.426459 
L 110.01124 228.426459 
L 110.328595 228.308547 
L 110.64595 227.992215 
L 110.963306 227.992215 
L 111.915372 227.66371 
L 112.232727 227.66371 
L 112.550083 227.223495 
L 113.184793 227.213837 
L 113.502149 227.062024 
L 113.819504 227.062024 
L 114.13686 226.846636 
L 114.454215 226.846636 
L 115.406281 226.25692 
L 115.723636 226.25692 
L 116.040992 225.955262 
L 116.358347 225.955262 
L 116.993058 225.292501 
L 117.627769 225.208954 
L 117.945124 224.616807 
L 118.262479 224.616807 
L 118.579835 223.882282 
L 118.89719 223.882282 
L 119.214545 223.611541 
L 119.531901 223.611541 
L 119.849256 223.369586 
L 120.166612 223.369586 
L 120.483967 223.033582 
L 122.070744 222.928622 
L 122.388099 222.121278 
L 123.340165 221.96207 
L 123.657521 221.743936 
L 124.292231 221.687086 
L 124.926942 220.642296 
L 125.244298 220.642296 
L 125.561653 220.453872 
L 125.879008 220.453872 
L 126.196364 220.241355 
L 126.513719 220.241355 
L 126.831074 220.03554 
L 127.465785 219.994035 
L 127.78314 219.861762 
L 128.100496 219.861762 
L 128.735207 219.419264 
L 132.860826 218.407207 
L 133.178182 218.218151 
L 133.495537 217.878887 
L 133.812893 217.878887 
L 134.130248 217.439754 
L 134.447603 217.439754 
L 134.764959 217.299771 
L 135.082314 217.299771 
L 135.399669 217.157491 
L 136.03438 217.059844 
L 136.669091 216.934743 
L 136.986446 216.934743 
L 137.303802 216.610005 
L 138.573223 216.537022 
L 139.207934 215.62355 
L 140.16 215.391386 
L 140.477355 215.045872 
L 140.794711 215.045872 
L 141.112066 214.589586 
L 141.429421 214.589586 
L 141.746777 214.241134 
L 142.698843 214.183212 
L 143.016198 214.015207 
L 144.28562 213.900999 
L 144.602975 213.670809 
L 144.920331 213.670809 
L 145.555041 213.003668 
L 146.824463 212.627508 
L 147.141818 211.965412 
L 147.459174 211.874892 
L 147.776529 211.527643 
L 148.093884 211.527643 
L 148.41124 211.352396 
L 148.728595 211.352396 
L 149.04595 210.77293 
L 149.363306 210.77293 
L 149.680661 210.494874 
L 149.998017 210.494874 
L 150.315372 210.034334 
L 151.584793 209.981348 
L 152.854215 209.786045 
L 153.806281 209.69892 
L 154.123636 209.667793 
L 154.440992 209.431048 
L 154.758347 209.431048 
L 155.075702 209.109663 
L 155.393058 208.580214 
L 156.027769 208.525397 
L 156.345124 208.261635 
L 157.29719 208.178889 
L 157.614545 207.703553 
L 158.566612 207.670351 
L 158.883967 207.408687 
L 160.153388 207.361214 
L 160.788099 206.33852 
L 161.42281 206.270813 
L 161.740165 206.254049 
L 162.057521 205.641392 
L 163.009587 205.359893 
L 163.326942 205.359893 
L 163.644298 205.042783 
L 163.961653 205.042783 
L 164.279008 204.924024 
L 165.54843 204.846505 
L 165.865785 204.370978 
L 166.18314 204.118315 
L 167.135207 204.06624 
L 167.452562 203.847889 
L 167.769917 203.847889 
L 168.087273 202.953428 
L 168.721983 202.901566 
L 169.039339 202.567092 
L 169.67405 202.512514 
L 169.991405 202.111084 
L 170.626116 202.08344 
L 170.943471 201.906138 
L 171.895537 201.832812 
L 173.799669 201.403707 
L 174.117025 201.403707 
L 174.43438 200.82415 
L 175.386446 200.661399 
L 175.703802 200.325736 
L 176.021157 200.325736 
L 176.338512 200.035111 
L 176.655868 200.035111 
L 176.973223 199.680559 
L 177.607934 199.581635 
L 178.242645 199.472642 
L 180.146777 199.044446 
L 180.464132 198.757721 
L 181.416198 198.711953 
L 181.733554 198.461761 
L 182.050909 198.461761 
L 182.368264 198.329252 
L 182.68562 198.329252 
L 183.002975 197.858294 
L 183.320331 197.737192 
L 183.637686 197.737192 
L 183.955041 197.298956 
L 184.272397 197.298956 
L 184.589752 197.076316 
L 185.224463 197.072432 
L 187.128595 196.294302 
L 187.44595 196.294302 
L 187.763306 195.652742 
L 188.080661 195.437828 
L 188.398017 195.437828 
L 188.715372 195.280235 
L 190.302149 195.185752 
L 191.254215 195.116603 
L 191.57157 194.791698 
L 191.888926 194.791698 
L 192.206281 194.600366 
L 192.523636 194.600366 
L 192.840992 194.455327 
L 193.158347 194.455327 
L 193.475702 194.118655 
L 194.110413 194.044679 
L 194.427769 193.989093 
L 195.062479 193.460572 
L 195.379835 193.460572 
L 196.014545 193.203769 
L 196.649256 193.11389 
L 196.966612 192.644313 
L 197.283967 192.644313 
L 197.918678 192.399902 
L 198.236033 192.399902 
L 198.870744 191.974505 
L 199.82281 191.89751 
L 200.457521 191.861998 
L 201.092231 191.430221 
L 201.409587 191.430221 
L 201.726942 191.118988 
L 202.044298 191.118988 
L 202.361653 190.79281 
L 202.679008 190.79281 
L 202.996364 190.480455 
L 203.313719 190.480455 
L 203.631074 190.331335 
L 205.535207 190.22491 
L 205.852562 190.128599 
L 206.169917 189.461398 
L 206.804628 189.382431 
L 207.121983 189.100027 
L 208.07405 189.063145 
L 208.391405 188.817829 
L 208.70876 188.817829 
L 209.026116 188.499194 
L 209.978182 188.393579 
L 211.564959 187.895766 
L 211.882314 187.690673 
L 213.151736 187.569192 
L 213.786446 187.102598 
L 214.421157 187.067702 
L 214.738512 186.639272 
L 215.055868 186.639272 
L 215.690579 186.525871 
L 216.007934 186.129429 
L 216.325289 186.129429 
L 216.96 185.67357 
L 217.594711 185.598818 
L 219.181488 185.509066 
L 219.498843 185.157362 
L 219.816198 185.157362 
L 220.133554 184.901728 
L 220.768264 184.871016 
L 221.08562 184.467371 
L 221.402975 184.467371 
L 221.720331 184.179245 
L 222.672397 184.086164 
L 222.989752 183.864524 
L 224.259174 183.776825 
L 224.576529 183.456403 
L 226.163306 183.077618 
L 226.798017 182.866327 
L 227.115372 182.866327 
L 227.432727 182.695538 
L 227.750083 182.695538 
L 228.384793 182.323574 
L 229.654215 182.276604 
L 229.97157 182.002914 
L 230.923636 181.9169 
L 231.240992 181.853657 
L 231.558347 181.397836 
L 232.193058 181.370353 
L 232.510413 181.123102 
L 232.827769 181.123102 
L 233.145124 180.688928 
L 233.462479 180.688928 
L 233.779835 180.44126 
L 234.731901 180.423423 
L 235.049256 180.039739 
L 235.683967 179.967213 
L 237.270744 179.492765 
L 237.588099 179.060341 
L 238.540165 179.003054 
L 239.492231 178.805939 
L 240.126942 178.209561 
L 240.761653 178.093269 
L 242.665785 177.740288 
L 242.98314 177.588255 
L 243.300496 177.577869 
L 243.617851 177.309675 
L 243.935207 177.309675 
L 244.252562 177.181387 
L 245.521983 177.093035 
L 246.156694 176.991823 
L 246.47405 176.60524 
L 247.10876 176.506876 
L 248.695537 176.403283 
L 249.012893 176.015992 
L 249.330248 175.849192 
L 249.647603 175.849192 
L 249.964959 175.706101 
L 250.282314 175.706101 
L 250.599669 175.425177 
L 250.917025 175.425177 
L 251.23438 175.234068 
L 251.551736 175.199877 
L 251.869091 174.970297 
L 252.186446 174.970297 
L 252.503802 174.650234 
L 253.138512 174.604825 
L 253.455868 174.225371 
L 253.773223 174.225371 
L 254.090579 173.848209 
L 254.725289 173.804652 
L 255.042645 173.367106 
L 257.581488 173.012187 
L 257.898843 172.762128 
L 258.533554 172.756715 
L 258.850909 172.598394 
L 259.168264 172.598394 
L 259.48562 172.076876 
L 259.802975 172.076876 
L 260.437686 171.801807 
L 261.072397 171.736557 
L 262.024463 171.492492 
L 262.976529 171.388112 
L 263.293884 171.131146 
L 263.928595 171.119189 
L 264.24595 170.822595 
L 265.198017 170.644629 
L 265.515372 170.644629 
L 266.150083 170.190616 
L 266.467438 170.190616 
L 266.784793 170.005438 
L 267.102149 170.005438 
L 267.419504 169.622217 
L 268.688926 169.577016 
L 270.910413 169.052192 
L 271.227769 168.832844 
L 271.545124 168.832844 
L 272.49719 168.43284 
L 272.814545 167.885054 
L 273.131901 167.885054 
L 273.766612 167.652822 
L 274.083967 167.652822 
L 274.401322 167.428476 
L 274.718678 167.428476 
L 275.036033 167.194224 
L 275.353388 167.194224 
L 275.670744 166.880136 
L 276.305455 166.83646 
L 276.940165 166.657526 
L 277.257521 166.657526 
L 278.209587 166.377201 
L 278.526942 165.897369 
L 278.844298 165.767538 
L 279.161653 165.767538 
L 279.479008 164.971479 
L 280.431074 164.924043 
L 280.74843 164.77451 
L 281.38314 164.730448 
L 282.017851 164.624402 
L 282.652562 164.06423 
L 282.969917 164.06423 
L 283.287273 163.580716 
L 283.604628 163.36639 
L 285.50876 163.104347 
L 285.826116 162.978785 
L 286.778182 162.891802 
L 287.095537 162.662381 
L 287.412893 162.662381 
L 287.730248 162.354129 
L 288.047603 162.354129 
L 288.682314 161.878824 
L 288.999669 161.878824 
L 289.951736 161.642163 
L 290.586446 161.54532 
L 290.903802 161.206103 
L 291.221157 161.206103 
L 291.855868 161.082607 
L 292.173223 161.082607 
L 292.490579 160.648605 
L 293.125289 160.619016 
L 293.442645 160.270172 
L 294.394711 160.195296 
L 294.712066 160.066757 
L 295.346777 159.306178 
L 296.298843 159.283769 
L 296.933554 159.125358 
L 297.250909 159.125358 
L 297.568264 158.952754 
L 297.88562 158.952754 
L 298.202975 158.651866 
L 298.520331 158.651866 
L 299.155041 158.152785 
L 299.472397 158.024294 
L 299.789752 158.024294 
L 300.424463 157.364321 
L 301.059174 157.273383 
L 301.376529 156.757838 
L 301.693884 156.757838 
L 302.01124 156.480209 
L 302.328595 156.480209 
L 302.64595 156.21683 
L 303.598017 156.090959 
L 303.915372 155.720204 
L 304.550083 155.630378 
L 305.184793 155.593077 
L 305.819504 155.10256 
L 306.13686 155.10256 
L 306.454215 154.839356 
L 307.406281 154.617893 
L 307.723636 153.726172 
L 308.040992 153.726172 
L 308.358347 153.25607 
L 309.945124 153.137455 
L 310.262479 152.841068 
L 310.579835 152.841068 
L 310.89719 152.609233 
L 311.531901 152.524156 
L 312.483967 152.220615 
L 312.801322 151.903608 
L 313.753388 151.829435 
L 314.070744 151.590556 
L 314.388099 151.590556 
L 315.340165 151.24059 
L 315.657521 150.598038 
L 315.974876 150.598038 
L 316.609587 150.216312 
L 317.561653 150.153341 
L 317.879008 150.153341 
L 318.196364 149.975703 
L 318.831074 148.981951 
L 319.14843 148.981951 
L 319.465785 148.853204 
L 320.100496 148.85019 
L 320.735207 148.092632 
L 321.052562 148.092632 
L 321.687273 147.467184 
L 322.956694 147.393477 
L 323.27405 146.489653 
L 323.591405 146.489653 
L 324.226116 146.080144 
L 324.543471 146.080144 
L 324.860826 145.65879 
L 325.495537 145.656232 
L 325.812893 145.292417 
L 326.130248 145.292417 
L 326.447603 145.055336 
L 326.764959 145.002676 
L 327.399669 144.365621 
L 328.03438 144.278443 
L 328.351736 143.91755 
L 328.669091 143.91755 
L 328.986446 143.593315 
L 329.303802 143.593315 
L 329.621157 143.457381 
L 329.938512 143.457381 
L 330.255868 143.022511 
L 332.16 142.863195 
L 332.477355 142.746991 
L 332.794711 142.211517 
L 333.112066 142.211517 
L 333.429421 142.068663 
L 333.746777 141.734956 
L 334.698843 141.627165 
L 335.650909 141.602686 
L 335.968264 141.329129 
L 336.28562 140.8529 
L 336.602975 140.8529 
L 336.920331 140.559369 
L 337.237686 140.064638 
L 337.872397 140.032935 
L 338.189752 139.844933 
L 338.507107 139.844933 
L 338.824463 139.269699 
L 339.141818 139.269699 
L 339.459174 138.970704 
L 339.776529 138.830509 
L 340.093884 138.830509 
L 340.41124 138.288736 
L 341.04595 138.265498 
L 341.363306 137.287018 
L 341.680661 137.287018 
L 341.998017 137.1625 
L 342.632727 137.074322 
L 343.267438 136.982304 
L 343.584793 136.637054 
L 344.219504 135.377091 
L 344.854215 135.349101 
L 345.17157 134.843068 
L 345.488926 134.672805 
L 346.123636 134.650233 
L 346.440992 134.087176 
L 346.758347 133.89858 
L 347.710413 133.84377 
L 348.027769 133.630133 
L 348.662479 133.543975 
L 349.29719 133.371361 
L 349.614545 133.371361 
L 349.931901 132.926228 
L 351.201322 132.81911 
L 351.518678 132.210197 
L 351.836033 131.884185 
L 352.153388 131.884185 
L 352.470744 131.49029 
L 353.105455 131.476323 
L 353.42281 131.194943 
L 353.740165 131.194943 
L 354.057521 130.882963 
L 354.374876 130.882963 
L 354.692231 130.611274 
L 355.009587 130.611274 
L 355.326942 130.48113 
L 355.644298 129.327564 
L 355.961653 129.327564 
L 356.279008 128.868527 
L 356.596364 128.868527 
L 356.913719 128.663731 
L 357.231074 128.133661 
L 357.54843 128.133661 
L 357.865785 127.737959 
L 358.18314 126.865082 
L 359.135207 126.760643 
L 359.452562 126.55524 
L 359.769917 125.711247 
L 360.087273 125.711247 
L 360.404628 125.247538 
L 360.721983 125.247538 
L 361.356694 125.074892 
L 361.67405 125.074892 
L 361.991405 124.878685 
L 362.626116 124.87454 
L 362.943471 124.363966 
L 363.578182 124.330967 
L 363.895537 124.095835 
L 364.212893 123.324182 
L 364.847603 123.289261 
L 365.164959 122.906384 
L 365.482314 122.906384 
L 365.799669 122.476181 
L 366.117025 122.278244 
L 367.069091 122.179569 
L 367.386446 121.563018 
L 367.703802 121.563018 
L 368.021157 120.968369 
L 368.338512 120.968369 
L 368.655868 120.280129 
L 368.973223 120.280129 
L 369.290579 120.161335 
L 369.607934 119.403056 
L 369.925289 119.403056 
L 370.242645 119.285498 
L 370.56 118.90225 
L 370.877355 118.321916 
L 371.194711 118.321916 
L 371.512066 117.322929 
L 371.829421 117.322929 
L 372.781488 116.289119 
L 373.098843 115.502036 
L 374.050909 115.210692 
L 374.368264 115.210692 
L 374.68562 114.85745 
L 375.002975 113.857341 
L 375.955041 113.707039 
L 376.272397 112.616624 
L 376.589752 112.616624 
L 376.907107 111.86364 
L 377.224463 111.86364 
L 377.541818 111.629135 
L 378.81124 111.524752 
L 379.128595 109.701356 
L 379.44595 109.701356 
L 380.398017 107.15099 
L 380.715372 107.15099 
L 381.032727 106.971145 
L 381.350083 106.971145 
L 381.984793 105.60309 
L 382.302149 105.579829 
L 382.619504 104.612448 
L 382.93686 104.612448 
L 383.254215 104.192239 
L 383.888926 104.120504 
L 384.206281 103.76979 
L 384.523636 103.76979 
L 384.840992 102.033771 
L 385.158347 102.033771 
L 385.475702 101.041633 
L 385.793058 101.041633 
L 386.427769 100.029106 
L 386.745124 98.453835 
L 387.062479 98.453835 
L 387.379835 98.260019 
L 387.69719 96.80985 
L 388.014545 96.560114 
L 388.331901 95.989102 
L 388.649256 95.989102 
L 388.966612 95.460814 
L 389.283967 95.460814 
L 389.601322 95.122043 
L 389.918678 93.099921 
L 390.236033 93.099921 
L 390.553388 91.833396 
L 390.870744 89.63154 
L 391.188099 89.460163 
L 391.505455 89.460163 
L 392.140165 86.977653 
L 392.457521 86.977653 
L 392.774876 85.888521 
L 393.092231 85.290179 
L 393.409587 85.290179 
L 393.726942 82.830865 
L 394.044298 82.830865 
L 394.361653 82.337667 
L 394.996364 78.504748 
L 395.313719 78.504748 
L 395.631074 77.66185 
L 395.94843 77.410086 
L 396.265785 77.410086 
L 396.58314 70.950902 
L 397.217851 66.830656 
L 397.535207 66.830656 
L 397.852562 55.728518 
L 398.169917 55.281251 
L 398.487273 55.281251 
L 398.487273 55.281251 
" clip-path="url(#p7317e91001)" style="fill: none; stroke: #ff7f0e; stroke-width: 1.5; stroke-linecap: square"/>
   </g>
   <g id="patch_3">
    <path d="M 57.6 307.584 
L 57.6 41.472 
" style="fill: none; stroke: #000000; stroke-width: 0.8; stroke-linejoin: miter; stroke-linecap: square"/>
   </g>
   <g id="patch_4">
    <path d="M 414.72 307.584 
L 414.72 41.472 
" style="fill: none; stroke: #000000; stroke-width: 0.8; stroke-linejoin: miter; stroke-linecap: square"/>
   </g>
   <g id="patch_5">
    <path d="M 57.6 307.584 
L 414.72 307.584 
" style="fill: none; stroke: #000000; stroke-width: 0.8; stroke-linejoin: miter; stroke-linecap: square"/>
   </g>
   <g id="patch_6">
    <path d="M 57.6 41.472 
L 414.72 41.472 
" style="fill: none; stroke: #000000; stroke-width: 0.8; stroke-linejoin: miter; stroke-linecap: square"/>
   </g>
   <g id="legend_1">
    <g id="patch_7">
     <path d="M 64.6 78.82825 
L 129.342187 78.82825 
Q 131.342187 78.82825 131.342187 76.82825 
L 131.342187 48.472 
Q 131.342187 46.472 129.342187 46.472 
L 64.6 46.472 
Q 62.6 46.472 62.6 48.472 
L 62.6 76.82825 
Q 62.6 78.82825 64.6 78.82825 
z
" style="fill: #ffffff; opacity: 0.8; stroke: #cccccc; stroke-linejoin: miter"/>
    </g>
    <g id="line2d_16">
     <path d="M 66.6 54.570437 
L 76.6 54.570437 
L 86.6 54.570437 
" style="fill: none; stroke: #1f77b4; stroke-width: 1.5; stroke-linecap: square"/>
    </g>
    <g id="text_16">
     <!-- qc -->
     <g transform="translate(94.6 58.070437) scale(0.1 -0.1)">
      <defs>
       <path id="DejaVuSans-71" d="M 947 1747 
Q 947 1113 1208 752 
Q 1469 391 1925 391 
Q 2381 391 2643 752 
Q 2906 1113 2906 1747 
Q 2906 2381 2643 2742 
Q 2381 3103 1925 3103 
Q 1469 3103 1208 2742 
Q 947 2381 947 1747 
z
M 2906 525 
Q 2725 213 2448 61 
Q 2172 -91 1784 -91 
Q 1150 -91 751 415 
Q 353 922 353 1747 
Q 353 2572 751 3078 
Q 1150 3584 1784 3584 
Q 2172 3584 2448 3432 
Q 2725 3281 2906 2969 
L 2906 3500 
L 3481 3500 
L 3481 -1331 
L 2906 -1331 
L 2906 525 
z
" transform="scale(0.015625)"/>
       <path id="DejaVuSans-63" d="M 3122 3366 
L 3122 2828 
Q 2878 2963 2633 3030 
Q 2388 3097 2138 3097 
Q 1578 3097 1268 2742 
Q 959 2388 959 1747 
Q 959 1106 1268 751 
Q 1578 397 2138 397 
Q 2388 397 2633 464 
Q 2878 531 3122 666 
L 3122 134 
Q 2881 22 2623 -34 
Q 2366 -91 2075 -91 
Q 1284 -91 818 406 
Q 353 903 353 1747 
Q 353 2603 823 3093 
Q 1294 3584 2113 3584 
Q 2378 3584 2631 3529 
Q 2884 3475 3122 3366 
z
" transform="scale(0.015625)"/>
      </defs>
      <use xlink:href="#DejaVuSans-71"/>
      <use xlink:href="#DejaVuSans-63" x="63.476562"/>
     </g>
    </g>
    <g id="line2d_17">
     <path d="M 66.6 69.248562 
L 76.6 69.248562 
L 86.6 69.248562 
" style="fill: none; stroke: #ff7f0e; stroke-width: 1.5; stroke-linecap: square"/>
    </g>
    <g id="text_17">
     <!-- Trotter -->
     <g transform="translate(94.6 72.748562) scale(0.1 -0.1)">
      <defs>
       <path id="DejaVuSans-54" d="M -19 4666 
L 3928 4666 
L 3928 4134 
L 2272 4134 
L 2272 0 
L 1638 0 
L 1638 4134 
L -19 4134 
L -19 4666 
z
" transform="scale(0.015625)"/>
       <path id="DejaVuSans-72" d="M 2631 2963 
Q 2534 3019 2420 3045 
Q 2306 3072 2169 3072 
Q 1681 3072 1420 2755 
Q 1159 2438 1159 1844 
L 1159 0 
L 581 0 
L 581 3500 
L 1159 3500 
L 1159 2956 
Q 1341 3275 1631 3429 
Q 1922 3584 2338 3584 
Q 2397 3584 2469 3576 
Q 2541 3569 2628 3553 
L 2631 2963 
z
" transform="scale(0.015625)"/>
       <path id="DejaVuSans-6f" d="M 1959 3097 
Q 1497 3097 1228 2736 
Q 959 2375 959 1747 
Q 959 1119 1226 758 
Q 1494 397 1959 397 
Q 2419 397 2687 759 
Q 2956 1122 2956 1747 
Q 2956 2369 2687 2733 
Q 2419 3097 1959 3097 
z
M 1959 3584 
Q 2709 3584 3137 3096 
Q 3566 2609 3566 1747 
Q 3566 888 3137 398 
Q 2709 -91 1959 -91 
Q 1206 -91 779 398 
Q 353 888 353 1747 
Q 353 2609 779 3096 
Q 1206 3584 1959 3584 
z
" transform="scale(0.015625)"/>
       <path id="DejaVuSans-65" d="M 3597 1894 
L 3597 1613 
L 953 1613 
Q 991 1019 1311 708 
Q 1631 397 2203 397 
Q 2534 397 2845 478 
Q 3156 559 3463 722 
L 3463 178 
Q 3153 47 2828 -22 
Q 2503 -91 2169 -91 
Q 1331 -91 842 396 
Q 353 884 353 1716 
Q 353 2575 817 3079 
Q 1281 3584 2069 3584 
Q 2775 3584 3186 3129 
Q 3597 2675 3597 1894 
z
M 3022 2063 
Q 3016 2534 2758 2815 
Q 2500 3097 2075 3097 
Q 1594 3097 1305 2825 
Q 1016 2553 972 2059 
L 3022 2063 
z
" transform="scale(0.015625)"/>
      </defs>
      <use xlink:href="#DejaVuSans-54"/>
      <use xlink:href="#DejaVuSans-72" x="46.333984"/>
      <use xlink:href="#DejaVuSans-6f" x="85.197266"/>
      <use xlink:href="#DejaVuSans-74" x="146.378906"/>
      <use xlink:href="#DejaVuSans-74" x="185.587891"/>
      <use xlink:href="#DejaVuSans-65" x="224.796875"/>
      <use xlink:href="#DejaVuSans-72" x="286.320312"/>
     </g>
    </g>
   </g>
  </g>
 </g>
 <defs>
  <clipPath id="p7317e91001">
   <rect x="57.6" y="41.472" width="357.12" height="266.112"/>
  </clipPath>
 </defs>
</svg>
