<?xml version="1.0" encoding="utf-8" standalone="no"?>
<!DOCTYPE svg PUBLIC "-//W3C//DTD SVG 1.1//EN"
  "http://www.w3.org/Graphics/SVG/1.1/DTD/svg11.dtd">
<svg xmlns:xlink="http://www.w3.org/1999/xlink" width="460.8pt" height="345.6pt" viewBox="0 0 460.8 345.6" xmlns="http://www.w3.org/2000/svg" version="1.1">
 <metadata>
  <rdf:RDF xmlns:dc="http://purl.org/dc/elements/1.1/" xmlns:cc="http://creativecommons.org/ns#" xmlns:rdf="http://www.w3.org/1999/02/22-rdf-syntax-ns#">
   <cc:Work>
    <dc:type rdf:resource="http://purl.org/dc/dcmitype/StillImage"/>
    <dc:date>2024-07-05T12:25:47.552147</dc:date>
    <dc:format>image/svg+xml</dc:format>
    <dc:creator>
     <cc:Agent>
      <dc:title>Matplotlib v3.7.1, https://matplotlib.org/</dc:title>
     </cc:Agent>
    </dc:creator>
   </cc:Work>
  </rdf:RDF>
 </metadata>
 <defs>
  <style type="text/css">*{stroke-linejoin: round; stroke-linecap: butt}</style>
 </defs>
 <g id="figure_1">
  <g id="patch_1">
   <path d="M 0 345.6 
L 460.8 345.6 
L 460.8 0 
L 0 0 
z
" style="fill: #ffffff"/>
  </g>
  <g id="axes_1">
   <g id="patch_2">
    <path d="M 57.6 307.584 
L 414.72 307.584 
L 414.72 41.472 
L 57.6 41.472 
z
" style="fill: #ffffff"/>
   </g>
   <g id="matplotlib.axis_1">
    <g id="xtick_1">
     <g id="line2d_1">
      <defs>
       <path id="m7aaa472da2" d="M 0 0 
L 0 3.5 
" style="stroke: #000000; stroke-width: 0.8"/>
      </defs>
      <g>
       <use xlink:href="#m7aaa472da2" x="73.832727" y="307.584" style="stroke: #000000; stroke-width: 0.8"/>
      </g>
     </g>
     <g id="text_1">
      <!-- 0 -->
      <g transform="translate(70.651477 322.182437) scale(0.1 -0.1)">
       <defs>
        <path id="DejaVuSans-30" d="M 2034 4250 
Q 1547 4250 1301 3770 
Q 1056 3291 1056 2328 
Q 1056 1369 1301 889 
Q 1547 409 2034 409 
Q 2525 409 2770 889 
Q 3016 1369 3016 2328 
Q 3016 3291 2770 3770 
Q 2525 4250 2034 4250 
z
M 2034 4750 
Q 2819 4750 3233 4129 
Q 3647 3509 3647 2328 
Q 3647 1150 3233 529 
Q 2819 -91 2034 -91 
Q 1250 -91 836 529 
Q 422 1150 422 2328 
Q 422 3509 836 4129 
Q 1250 4750 2034 4750 
z
" transform="scale(0.015625)"/>
       </defs>
       <use xlink:href="#DejaVuSans-30"/>
      </g>
     </g>
    </g>
    <g id="xtick_2">
     <g id="line2d_2">
      <g>
       <use xlink:href="#m7aaa472da2" x="137.303802" y="307.584" style="stroke: #000000; stroke-width: 0.8"/>
      </g>
     </g>
     <g id="text_2">
      <!-- 200 -->
      <g transform="translate(127.760052 322.182437) scale(0.1 -0.1)">
       <defs>
        <path id="DejaVuSans-32" d="M 1228 531 
L 3431 531 
L 3431 0 
L 469 0 
L 469 531 
Q 828 903 1448 1529 
Q 2069 2156 2228 2338 
Q 2531 2678 2651 2914 
Q 2772 3150 2772 3378 
Q 2772 3750 2511 3984 
Q 2250 4219 1831 4219 
Q 1534 4219 1204 4116 
Q 875 4013 500 3803 
L 500 4441 
Q 881 4594 1212 4672 
Q 1544 4750 1819 4750 
Q 2544 4750 2975 4387 
Q 3406 4025 3406 3419 
Q 3406 3131 3298 2873 
Q 3191 2616 2906 2266 
Q 2828 2175 2409 1742 
Q 1991 1309 1228 531 
z
" transform="scale(0.015625)"/>
       </defs>
       <use xlink:href="#DejaVuSans-32"/>
       <use xlink:href="#DejaVuSans-30" x="63.623047"/>
       <use xlink:href="#DejaVuSans-30" x="127.246094"/>
      </g>
     </g>
    </g>
    <g id="xtick_3">
     <g id="line2d_3">
      <g>
       <use xlink:href="#m7aaa472da2" x="200.774876" y="307.584" style="stroke: #000000; stroke-width: 0.8"/>
      </g>
     </g>
     <g id="text_3">
      <!-- 400 -->
      <g transform="translate(191.231126 322.182437) scale(0.1 -0.1)">
       <defs>
        <path id="DejaVuSans-34" d="M 2419 4116 
L 825 1625 
L 2419 1625 
L 2419 4116 
z
M 2253 4666 
L 3047 4666 
L 3047 1625 
L 3713 1625 
L 3713 1100 
L 3047 1100 
L 3047 0 
L 2419 0 
L 2419 1100 
L 313 1100 
L 313 1709 
L 2253 4666 
z
" transform="scale(0.015625)"/>
       </defs>
       <use xlink:href="#DejaVuSans-34"/>
       <use xlink:href="#DejaVuSans-30" x="63.623047"/>
       <use xlink:href="#DejaVuSans-30" x="127.246094"/>
      </g>
     </g>
    </g>
    <g id="xtick_4">
     <g id="line2d_4">
      <g>
       <use xlink:href="#m7aaa472da2" x="264.24595" y="307.584" style="stroke: #000000; stroke-width: 0.8"/>
      </g>
     </g>
     <g id="text_4">
      <!-- 600 -->
      <g transform="translate(254.7022 322.182437) scale(0.1 -0.1)">
       <defs>
        <path id="DejaVuSans-36" d="M 2113 2584 
Q 1688 2584 1439 2293 
Q 1191 2003 1191 1497 
Q 1191 994 1439 701 
Q 1688 409 2113 409 
Q 2538 409 2786 701 
Q 3034 994 3034 1497 
Q 3034 2003 2786 2293 
Q 2538 2584 2113 2584 
z
M 3366 4563 
L 3366 3988 
Q 3128 4100 2886 4159 
Q 2644 4219 2406 4219 
Q 1781 4219 1451 3797 
Q 1122 3375 1075 2522 
Q 1259 2794 1537 2939 
Q 1816 3084 2150 3084 
Q 2853 3084 3261 2657 
Q 3669 2231 3669 1497 
Q 3669 778 3244 343 
Q 2819 -91 2113 -91 
Q 1303 -91 875 529 
Q 447 1150 447 2328 
Q 447 3434 972 4092 
Q 1497 4750 2381 4750 
Q 2619 4750 2861 4703 
Q 3103 4656 3366 4563 
z
" transform="scale(0.015625)"/>
       </defs>
       <use xlink:href="#DejaVuSans-36"/>
       <use xlink:href="#DejaVuSans-30" x="63.623047"/>
       <use xlink:href="#DejaVuSans-30" x="127.246094"/>
      </g>
     </g>
    </g>
    <g id="xtick_5">
     <g id="line2d_5">
      <g>
       <use xlink:href="#m7aaa472da2" x="327.717025" y="307.584" style="stroke: #000000; stroke-width: 0.8"/>
      </g>
     </g>
     <g id="text_5">
      <!-- 800 -->
      <g transform="translate(318.173275 322.182437) scale(0.1 -0.1)">
       <defs>
        <path id="DejaVuSans-38" d="M 2034 2216 
Q 1584 2216 1326 1975 
Q 1069 1734 1069 1313 
Q 1069 891 1326 650 
Q 1584 409 2034 409 
Q 2484 409 2743 651 
Q 3003 894 3003 1313 
Q 3003 1734 2745 1975 
Q 2488 2216 2034 2216 
z
M 1403 2484 
Q 997 2584 770 2862 
Q 544 3141 544 3541 
Q 544 4100 942 4425 
Q 1341 4750 2034 4750 
Q 2731 4750 3128 4425 
Q 3525 4100 3525 3541 
Q 3525 3141 3298 2862 
Q 3072 2584 2669 2484 
Q 3125 2378 3379 2068 
Q 3634 1759 3634 1313 
Q 3634 634 3220 271 
Q 2806 -91 2034 -91 
Q 1263 -91 848 271 
Q 434 634 434 1313 
Q 434 1759 690 2068 
Q 947 2378 1403 2484 
z
M 1172 3481 
Q 1172 3119 1398 2916 
Q 1625 2713 2034 2713 
Q 2441 2713 2670 2916 
Q 2900 3119 2900 3481 
Q 2900 3844 2670 4047 
Q 2441 4250 2034 4250 
Q 1625 4250 1398 4047 
Q 1172 3844 1172 3481 
z
" transform="scale(0.015625)"/>
       </defs>
       <use xlink:href="#DejaVuSans-38"/>
       <use xlink:href="#DejaVuSans-30" x="63.623047"/>
       <use xlink:href="#DejaVuSans-30" x="127.246094"/>
      </g>
     </g>
    </g>
    <g id="xtick_6">
     <g id="line2d_6">
      <g>
       <use xlink:href="#m7aaa472da2" x="391.188099" y="307.584" style="stroke: #000000; stroke-width: 0.8"/>
      </g>
     </g>
     <g id="text_6">
      <!-- 1000 -->
      <g transform="translate(378.463099 322.182437) scale(0.1 -0.1)">
       <defs>
        <path id="DejaVuSans-31" d="M 794 531 
L 1825 531 
L 1825 4091 
L 703 3866 
L 703 4441 
L 1819 4666 
L 2450 4666 
L 2450 531 
L 3481 531 
L 3481 0 
L 794 0 
L 794 531 
z
" transform="scale(0.015625)"/>
       </defs>
       <use xlink:href="#DejaVuSans-31"/>
       <use xlink:href="#DejaVuSans-30" x="63.623047"/>
       <use xlink:href="#DejaVuSans-30" x="127.246094"/>
       <use xlink:href="#DejaVuSans-30" x="190.869141"/>
      </g>
     </g>
    </g>
    <g id="text_7">
     <!-- n -->
     <g transform="translate(232.99125 335.860562) scale(0.1 -0.1)">
      <defs>
       <path id="DejaVuSans-6e" d="M 3513 2113 
L 3513 0 
L 2938 0 
L 2938 2094 
Q 2938 2591 2744 2837 
Q 2550 3084 2163 3084 
Q 1697 3084 1428 2787 
Q 1159 2491 1159 1978 
L 1159 0 
L 581 0 
L 581 3500 
L 1159 3500 
L 1159 2956 
Q 1366 3272 1645 3428 
Q 1925 3584 2291 3584 
Q 2894 3584 3203 3211 
Q 3513 2838 3513 2113 
z
" transform="scale(0.015625)"/>
      </defs>
      <use xlink:href="#DejaVuSans-6e"/>
     </g>
    </g>
   </g>
   <g id="matplotlib.axis_2">
    <g id="ytick_1">
     <g id="line2d_7">
      <defs>
       <path id="m670b518a25" d="M 0 0 
L -3.5 0 
" style="stroke: #000000; stroke-width: 0.8"/>
      </defs>
      <g>
       <use xlink:href="#m670b518a25" x="57.6" y="296.374758" style="stroke: #000000; stroke-width: 0.8"/>
      </g>
     </g>
     <g id="text_8">
      <!-- −3 -->
      <g transform="translate(35.857813 300.173976) scale(0.1 -0.1)">
       <defs>
        <path id="DejaVuSans-2212" d="M 678 2272 
L 4684 2272 
L 4684 1741 
L 678 1741 
L 678 2272 
z
" transform="scale(0.015625)"/>
        <path id="DejaVuSans-33" d="M 2597 2516 
Q 3050 2419 3304 2112 
Q 3559 1806 3559 1356 
Q 3559 666 3084 287 
Q 2609 -91 1734 -91 
Q 1441 -91 1130 -33 
Q 819 25 488 141 
L 488 750 
Q 750 597 1062 519 
Q 1375 441 1716 441 
Q 2309 441 2620 675 
Q 2931 909 2931 1356 
Q 2931 1769 2642 2001 
Q 2353 2234 1838 2234 
L 1294 2234 
L 1294 2753 
L 1863 2753 
Q 2328 2753 2575 2939 
Q 2822 3125 2822 3475 
Q 2822 3834 2567 4026 
Q 2313 4219 1838 4219 
Q 1578 4219 1281 4162 
Q 984 4106 628 3988 
L 628 4550 
Q 988 4650 1302 4700 
Q 1616 4750 1894 4750 
Q 2613 4750 3031 4423 
Q 3450 4097 3450 3541 
Q 3450 3153 3228 2886 
Q 3006 2619 2597 2516 
z
" transform="scale(0.015625)"/>
       </defs>
       <use xlink:href="#DejaVuSans-2212"/>
       <use xlink:href="#DejaVuSans-33" x="83.789062"/>
      </g>
     </g>
    </g>
    <g id="ytick_2">
     <g id="line2d_8">
      <g>
       <use xlink:href="#m670b518a25" x="57.6" y="256.522516" style="stroke: #000000; stroke-width: 0.8"/>
      </g>
     </g>
     <g id="text_9">
      <!-- −2 -->
      <g transform="translate(35.857813 260.321735) scale(0.1 -0.1)">
       <use xlink:href="#DejaVuSans-2212"/>
       <use xlink:href="#DejaVuSans-32" x="83.789062"/>
      </g>
     </g>
    </g>
    <g id="ytick_3">
     <g id="line2d_9">
      <g>
       <use xlink:href="#m670b518a25" x="57.6" y="216.670275" style="stroke: #000000; stroke-width: 0.8"/>
      </g>
     </g>
     <g id="text_10">
      <!-- −1 -->
      <g transform="translate(35.857813 220.469494) scale(0.1 -0.1)">
       <use xlink:href="#DejaVuSans-2212"/>
       <use xlink:href="#DejaVuSans-31" x="83.789062"/>
      </g>
     </g>
    </g>
    <g id="ytick_4">
     <g id="line2d_10">
      <g>
       <use xlink:href="#m670b518a25" x="57.6" y="176.818034" style="stroke: #000000; stroke-width: 0.8"/>
      </g>
     </g>
     <g id="text_11">
      <!-- 0 -->
      <g transform="translate(44.2375 180.617253) scale(0.1 -0.1)">
       <use xlink:href="#DejaVuSans-30"/>
      </g>
     </g>
    </g>
    <g id="ytick_5">
     <g id="line2d_11">
      <g>
       <use xlink:href="#m670b518a25" x="57.6" y="136.965793" style="stroke: #000000; stroke-width: 0.8"/>
      </g>
     </g>
     <g id="text_12">
      <!-- 1 -->
      <g transform="translate(44.2375 140.765012) scale(0.1 -0.1)">
       <use xlink:href="#DejaVuSans-31"/>
      </g>
     </g>
    </g>
    <g id="ytick_6">
     <g id="line2d_12">
      <g>
       <use xlink:href="#m670b518a25" x="57.6" y="97.113552" style="stroke: #000000; stroke-width: 0.8"/>
      </g>
     </g>
     <g id="text_13">
      <!-- 2 -->
      <g transform="translate(44.2375 100.912771) scale(0.1 -0.1)">
       <use xlink:href="#DejaVuSans-32"/>
      </g>
     </g>
    </g>
    <g id="ytick_7">
     <g id="line2d_13">
      <g>
       <use xlink:href="#m670b518a25" x="57.6" y="57.261311" style="stroke: #000000; stroke-width: 0.8"/>
      </g>
     </g>
     <g id="text_14">
      <!-- 3 -->
      <g transform="translate(44.2375 61.06053) scale(0.1 -0.1)">
       <use xlink:href="#DejaVuSans-33"/>
      </g>
     </g>
    </g>
    <g id="text_15">
     <!-- E*t -->
     <g transform="translate(29.778125 182.147531) rotate(-90) scale(0.1 -0.1)">
      <defs>
       <path id="DejaVuSans-45" d="M 628 4666 
L 3578 4666 
L 3578 4134 
L 1259 4134 
L 1259 2753 
L 3481 2753 
L 3481 2222 
L 1259 2222 
L 1259 531 
L 3634 531 
L 3634 0 
L 628 0 
L 628 4666 
z
" transform="scale(0.015625)"/>
       <path id="DejaVuSans-2a" d="M 3009 3897 
L 1888 3291 
L 3009 2681 
L 2828 2375 
L 1778 3009 
L 1778 1831 
L 1422 1831 
L 1422 3009 
L 372 2375 
L 191 2681 
L 1313 3291 
L 191 3897 
L 372 4206 
L 1422 3572 
L 1422 4750 
L 1778 4750 
L 1778 3572 
L 2828 4206 
L 3009 3897 
z
" transform="scale(0.015625)"/>
       <path id="DejaVuSans-74" d="M 1172 4494 
L 1172 3500 
L 2356 3500 
L 2356 3053 
L 1172 3053 
L 1172 1153 
Q 1172 725 1289 603 
Q 1406 481 1766 481 
L 2356 481 
L 2356 0 
L 1766 0 
Q 1100 0 847 248 
Q 594 497 594 1153 
L 594 3053 
L 172 3053 
L 172 3500 
L 594 3500 
L 594 4494 
L 1172 4494 
z
" transform="scale(0.015625)"/>
      </defs>
      <use xlink:href="#DejaVuSans-45"/>
      <use xlink:href="#DejaVuSans-2a" x="63.183594"/>
      <use xlink:href="#DejaVuSans-74" x="113.183594"/>
     </g>
    </g>
   </g>
   <g id="line2d_14">
    <path d="M 73.832727 294.876805 
L 74.150083 252.766766 
L 75.102149 251.715512 
L 75.419504 251.007043 
L 75.73686 250.675892 
L 76.054215 250.636258 
L 77.323636 249.92138 
L 77.640992 249.078801 
L 77.958347 248.904074 
L 78.275702 247.473135 
L 78.910413 246.850689 
L 79.227769 246.032311 
L 79.545124 245.877749 
L 79.862479 245.077477 
L 80.179835 245.002207 
L 80.49719 244.239258 
L 81.766612 243.56163 
L 82.083967 242.936431 
L 83.036033 242.645014 
L 83.670744 241.847505 
L 85.257521 241.044207 
L 85.574876 240.39177 
L 85.892231 240.195907 
L 86.844298 239.9882 
L 87.796364 239.567378 
L 88.113719 238.554037 
L 88.431074 238.403692 
L 88.74843 238.102279 
L 90.335207 237.425587 
L 90.652562 237.38604 
L 93.50876 236.041057 
L 93.826116 235.181415 
L 94.778182 235.112671 
L 95.730248 234.804608 
L 96.999669 234.206679 
L 97.951736 234.05349 
L 98.269091 233.40949 
L 98.903802 233.120528 
L 99.221157 233.095873 
L 99.855868 232.626128 
L 100.807934 232.287992 
L 101.125289 231.906858 
L 101.76 231.527124 
L 102.077355 231.462853 
L 102.712066 231.021219 
L 103.346777 230.867917 
L 103.664132 230.300385 
L 103.981488 230.218181 
L 104.298843 229.883868 
L 104.616198 229.864122 
L 105.250909 229.208125 
L 106.202975 228.890841 
L 106.520331 228.347904 
L 108.107107 227.813587 
L 108.741818 227.612161 
L 110.01124 227.237534 
L 110.328595 227.217609 
L 110.64595 226.938353 
L 111.280661 226.80981 
L 112.232727 226.502993 
L 112.550083 226.162021 
L 114.13686 225.813749 
L 115.406281 225.19417 
L 116.358347 224.752091 
L 116.993058 224.220172 
L 117.627769 223.998545 
L 117.945124 223.498833 
L 118.262479 223.417042 
L 118.579835 222.824679 
L 119.214545 222.525442 
L 119.849256 222.28142 
L 120.801322 221.879788 
L 122.070744 221.652271 
L 122.388099 220.985583 
L 123.340165 220.813348 
L 123.974876 220.545403 
L 124.292231 220.47005 
L 125.244298 219.483322 
L 125.879008 219.224381 
L 126.513719 219.055834 
L 127.14843 218.925385 
L 128.100496 218.626155 
L 128.417851 218.41279 
L 129.687273 218.097798 
L 130.004628 217.902523 
L 131.591405 217.613864 
L 132.860826 217.160935 
L 133.812893 216.651052 
L 134.130248 216.319989 
L 136.03438 215.869988 
L 138.573223 215.283726 
L 139.207934 214.525165 
L 140.16 214.243211 
L 140.477355 213.875751 
L 140.794711 213.748715 
L 141.112066 213.39112 
L 141.429421 213.371279 
L 141.746777 213.144758 
L 142.698843 212.954726 
L 143.333554 212.782663 
L 144.28562 212.63276 
L 144.920331 212.41033 
L 145.555041 211.797299 
L 146.189752 211.634813 
L 146.507107 211.410825 
L 146.824463 211.327236 
L 147.141818 210.744803 
L 147.459174 210.67221 
L 147.776529 210.398629 
L 148.093884 210.369048 
L 148.41124 210.116477 
L 148.728595 210.070096 
L 149.04595 209.664848 
L 149.680661 209.406608 
L 151.267438 208.795266 
L 154.123636 208.436814 
L 155.075702 207.936682 
L 155.393058 207.433938 
L 157.29719 206.96278 
L 157.614545 206.485957 
L 159.836033 206.067235 
L 160.153388 206.010665 
L 160.788099 205.2296 
L 161.42281 205.048377 
L 161.740165 204.975072 
L 162.057521 204.501473 
L 162.374876 204.272308 
L 163.644298 204.066841 
L 163.961653 203.729068 
L 164.913719 203.662918 
L 165.54843 203.563863 
L 165.865785 203.173223 
L 166.500496 202.933586 
L 167.769917 202.550187 
L 168.087273 201.862704 
L 168.404628 201.666009 
L 168.721983 201.631758 
L 169.039339 201.297106 
L 169.67405 201.25258 
L 169.991405 200.957113 
L 171.578182 200.640277 
L 172.847603 200.443579 
L 174.117025 200.10389 
L 174.43438 199.694602 
L 175.069091 199.574423 
L 176.338512 198.780246 
L 176.655868 198.749472 
L 176.973223 198.465891 
L 178.877355 198.137203 
L 179.512066 197.954773 
L 181.098843 197.401092 
L 182.050909 197.168857 
L 182.68562 196.962406 
L 183.002975 196.598142 
L 183.637686 196.445034 
L 183.955041 196.180991 
L 187.44595 194.968726 
L 187.763306 194.305272 
L 189.350083 194.072981 
L 189.984793 193.976086 
L 191.254215 193.750233 
L 191.57157 193.67358 
L 191.888926 193.466426 
L 193.475702 193.021401 
L 194.110413 192.79121 
L 194.427769 192.742403 
L 194.745124 192.41273 
L 195.062479 192.377122 
L 195.69719 192.037441 
L 196.331901 191.858314 
L 196.649256 191.823964 
L 196.966612 191.47849 
L 197.918678 191.079773 
L 198.236033 191.044575 
L 198.553388 190.856882 
L 199.505455 190.721639 
L 201.092231 190.287354 
L 202.679008 189.423641 
L 202.996364 189.401972 
L 203.313719 189.225642 
L 205.852562 188.848298 
L 206.169917 188.27408 
L 206.487273 188.240099 
L 207.121983 187.896825 
L 209.660826 187.26847 
L 209.978182 187.045072 
L 210.612893 187.004651 
L 211.882314 186.561821 
L 212.517025 186.390947 
L 213.469091 186.115645 
L 213.786446 185.874204 
L 214.421157 185.766124 
L 214.738512 185.424571 
L 215.690579 185.215437 
L 216.007934 184.855461 
L 216.325289 184.838065 
L 216.642645 184.600538 
L 217.912066 184.306187 
L 219.181488 184.218962 
L 220.133554 183.734166 
L 220.768264 183.553675 
L 221.08562 183.206987 
L 221.402975 183.162048 
L 222.037686 182.920831 
L 222.672397 182.818653 
L 223.624463 182.50287 
L 224.259174 182.431923 
L 224.576529 182.244456 
L 225.21124 182.059166 
L 226.163306 181.761536 
L 228.384793 181.166074 
L 231.240992 180.546278 
L 231.558347 180.139859 
L 232.510413 179.896626 
L 232.827769 179.78402 
L 233.462479 179.334279 
L 237.270744 178.163467 
L 237.588099 177.833869 
L 239.492231 177.514211 
L 240.126942 176.912319 
L 240.761653 176.792518 
L 242.031074 176.624337 
L 242.665785 176.345547 
L 246.156694 175.66338 
L 246.47405 175.417897 
L 247.743471 175.174847 
L 248.695537 175.00665 
L 249.012893 174.681284 
L 249.330248 174.647206 
L 249.647603 174.450041 
L 250.282314 174.364311 
L 250.599669 174.078411 
L 250.917025 174.068789 
L 251.869091 173.688411 
L 252.186446 173.608235 
L 252.503802 173.36751 
L 253.138512 173.227828 
L 253.455868 172.956126 
L 253.773223 172.891839 
L 254.090579 172.574533 
L 254.725289 172.428135 
L 255.042645 172.058803 
L 256.946777 171.859951 
L 259.168264 171.233357 
L 259.48562 170.846561 
L 260.120331 170.580912 
L 263.928595 169.666828 
L 264.563306 169.468396 
L 265.198017 169.316826 
L 265.832727 169.086763 
L 266.467438 168.787674 
L 268.054215 168.278531 
L 269.958347 167.913959 
L 270.593058 167.708625 
L 270.910413 167.693865 
L 271.545124 167.400662 
L 271.862479 167.351404 
L 272.49719 167.060162 
L 272.814545 166.621447 
L 273.766612 166.299551 
L 274.083967 166.292295 
L 276.940165 165.269721 
L 278.209587 164.931368 
L 278.526942 164.56716 
L 278.844298 164.40884 
L 279.161653 164.380333 
L 279.479008 163.645444 
L 280.431074 163.588828 
L 280.74843 163.408774 
L 282.017851 163.206982 
L 282.335207 162.878497 
L 282.969917 162.658459 
L 283.287273 162.266378 
L 284.556694 161.934186 
L 285.50876 161.655565 
L 286.778182 161.49681 
L 287.730248 161.079843 
L 288.364959 160.742569 
L 288.682314 160.539354 
L 289.63438 160.379451 
L 289.951736 160.21089 
L 290.586446 160.14331 
L 290.903802 159.942028 
L 291.855868 159.731077 
L 292.173223 159.592069 
L 292.490579 159.304562 
L 293.125289 159.222314 
L 293.442645 158.93291 
L 294.712066 158.676896 
L 295.346777 158.027839 
L 297.250909 157.728103 
L 297.568264 157.534668 
L 297.88562 157.479647 
L 299.472397 156.641221 
L 299.789752 156.548374 
L 300.107107 156.337639 
L 300.424463 155.98781 
L 301.059174 155.83284 
L 301.376529 155.391178 
L 301.693884 155.361444 
L 302.01124 155.094054 
L 302.328595 155.05647 
L 302.963306 154.836008 
L 305.502149 153.89973 
L 306.454215 153.448636 
L 307.088926 153.345084 
L 307.406281 153.19396 
L 307.723636 152.354286 
L 308.040992 152.276284 
L 308.358347 151.943906 
L 310.262479 151.611372 
L 310.579835 151.347979 
L 312.483967 150.794795 
L 313.118678 150.47442 
L 314.070744 150.306302 
L 315.340165 149.885726 
L 315.657521 149.250474 
L 317.561653 148.6906 
L 318.196364 148.538608 
L 318.831074 147.640933 
L 320.100496 147.33514 
L 320.735207 146.754713 
L 321.052562 146.638764 
L 321.687273 146.121904 
L 322.956694 145.935335 
L 323.27405 145.246881 
L 324.543471 144.610536 
L 324.860826 144.288516 
L 325.495537 144.2017 
L 326.130248 143.799951 
L 326.447603 143.600559 
L 326.764959 143.561151 
L 327.399669 143.020438 
L 328.03438 142.808919 
L 328.351736 142.489499 
L 328.669091 142.474724 
L 329.303802 142.079973 
L 329.938512 142.002766 
L 330.255868 141.682168 
L 332.477355 141.300148 
L 332.794711 140.792542 
L 333.429421 140.617084 
L 333.746777 140.395545 
L 335.968264 139.91332 
L 336.28562 139.438175 
L 336.602975 139.371327 
L 337.555041 138.658556 
L 337.872397 138.61079 
L 338.507107 138.392062 
L 338.824463 137.955043 
L 339.141818 137.864313 
L 339.776529 137.420218 
L 340.093884 137.364342 
L 340.41124 136.996354 
L 341.04595 136.781028 
L 341.363306 135.879814 
L 343.267438 135.515943 
L 343.584793 135.196099 
L 344.219504 133.96671 
L 344.854215 133.830723 
L 345.17157 133.418673 
L 345.806281 133.198701 
L 346.123636 133.177192 
L 346.440992 132.665115 
L 346.758347 132.497392 
L 348.027769 132.257437 
L 348.979835 131.968973 
L 349.614545 131.888161 
L 349.931901 131.588212 
L 351.201322 131.27155 
L 351.518678 130.759928 
L 352.153388 130.363183 
L 353.42281 129.771542 
L 353.740165 129.704107 
L 354.374876 129.382721 
L 355.326942 128.972348 
L 355.644298 127.925972 
L 355.961653 127.850256 
L 356.279008 127.416572 
L 356.596364 127.374765 
L 356.913719 127.203801 
L 357.231074 126.717707 
L 357.54843 126.613751 
L 357.865785 126.253746 
L 358.18314 125.446901 
L 358.817851 125.356744 
L 359.452562 125.055912 
L 359.769917 124.299332 
L 360.087273 124.178952 
L 360.404628 123.822301 
L 362.626116 123.369638 
L 362.943471 122.927011 
L 363.578182 122.846301 
L 363.895537 122.588037 
L 364.212893 121.975453 
L 365.482314 121.37185 
L 365.799669 121.003796 
L 366.43438 120.78148 
L 367.069091 120.645312 
L 367.386446 120.09196 
L 367.703802 120.029136 
L 368.021157 119.494941 
L 368.338512 119.445626 
L 368.655868 118.822292 
L 369.290579 118.617903 
L 369.607934 117.985249 
L 370.56 117.399435 
L 370.877355 116.885942 
L 371.194711 116.776846 
L 371.512066 115.89022 
L 372.146777 115.581366 
L 373.098843 114.065776 
L 374.368264 113.660667 
L 374.68562 113.336183 
L 375.002975 112.407694 
L 375.637686 112.246274 
L 375.955041 112.19638 
L 376.272397 111.158521 
L 376.589752 111.047061 
L 376.907107 110.557534 
L 377.541818 110.215783 
L 378.81124 109.863602 
L 379.128595 108.208082 
L 379.44595 108.136091 
L 380.398017 105.739764 
L 381.032727 105.471024 
L 381.350083 105.389056 
L 381.984793 104.171879 
L 382.302149 104.064261 
L 382.619504 103.076048 
L 382.93686 103.029347 
L 383.254215 102.65831 
L 383.888926 102.552334 
L 384.206281 102.233345 
L 384.523636 102.195727 
L 384.840992 100.593736 
L 385.158347 100.422457 
L 385.475702 99.517675 
L 385.793058 99.453962 
L 386.427769 98.457754 
L 386.745124 96.970359 
L 387.379835 96.724863 
L 387.69719 95.264901 
L 388.014545 94.996097 
L 388.331901 94.526732 
L 388.649256 94.464932 
L 388.966612 93.985307 
L 389.601322 93.516504 
L 389.918678 91.600481 
L 390.236033 91.465546 
L 390.553388 90.244565 
L 390.870744 88.093481 
L 391.188099 87.887272 
L 391.505455 87.844534 
L 392.140165 85.454195 
L 392.457521 85.34429 
L 392.774876 84.347488 
L 393.092231 83.843028 
L 393.409587 83.660571 
L 393.726942 81.346797 
L 394.044298 81.172432 
L 394.361653 80.721881 
L 394.996364 76.923901 
L 395.313719 76.85507 
L 395.631074 76.115405 
L 395.94843 75.797769 
L 396.265785 75.769494 
L 396.58314 69.325354 
L 397.217851 65.291845 
L 397.535207 65.175972 
L 397.852562 54.087872 
L 398.169917 53.728865 
L 398.487273 53.568 
L 398.487273 53.568 
" clip-path="url(#p2afd5ad942)" style="fill: none; stroke: #1f77b4; stroke-width: 1.5; stroke-linecap: square"/>
   </g>
   <g id="line2d_15">
    <path d="M 73.832727 295.488 
L 74.150083 253.240636 
L 74.467438 253.240636 
L 74.784793 252.552205 
L 75.102149 252.552205 
L 75.419504 251.572551 
L 75.73686 251.572551 
L 76.054215 251.186359 
L 76.37157 251.186359 
L 76.688926 251.023566 
L 77.006281 251.023566 
L 77.323636 250.686281 
L 77.640992 249.728227 
L 77.958347 249.728227 
L 78.275702 248.058973 
L 78.593058 248.058973 
L 78.910413 247.585083 
L 79.227769 246.710913 
L 79.545124 246.710913 
L 79.862479 245.784541 
L 80.179835 245.784541 
L 80.49719 244.788094 
L 81.449256 244.711295 
L 81.766612 244.305784 
L 82.083967 243.570538 
L 83.036033 243.477715 
L 83.670744 242.544706 
L 83.988099 242.544706 
L 84.305455 242.339645 
L 84.62281 242.339645 
L 85.257521 241.771736 
L 85.574876 240.998731 
L 86.526942 240.95634 
L 86.844298 240.684895 
L 87.161653 240.684895 
L 87.479008 240.445618 
L 87.796364 240.445618 
L 88.113719 239.358229 
L 88.431074 239.213288 
L 88.74843 238.813527 
L 89.065785 238.813527 
L 89.38314 238.543423 
L 89.700496 238.543423 
L 90.017851 238.297879 
L 90.335207 238.297879 
L 90.652562 238.100951 
L 90.969917 238.100951 
L 91.287273 237.897903 
L 91.604628 237.897903 
L 92.239339 237.457439 
L 92.556694 237.340006 
L 92.87405 236.945733 
L 93.50876 236.891839 
L 93.826116 235.927748 
L 94.778182 235.914348 
L 95.095537 235.617759 
L 96.047603 235.598765 
L 96.682314 234.995884 
L 97.951736 234.892278 
L 98.269091 234.089699 
L 98.586446 234.089699 
L 98.903802 233.91299 
L 99.221157 233.91299 
L 99.538512 233.523353 
L 99.855868 233.523353 
L 100.173223 233.288652 
L 100.807934 233.204299 
L 101.125289 232.614139 
L 101.442645 232.614139 
L 101.76 232.346892 
L 102.077355 232.346892 
L 102.712066 231.735078 
L 103.346777 231.666152 
L 103.664132 231.064529 
L 103.981488 231.064529 
L 104.298843 230.725722 
L 104.616198 230.725722 
L 104.933554 230.192429 
L 105.250909 230.192429 
L 105.88562 229.748935 
L 106.202975 229.748935 
L 106.520331 229.105869 
L 107.155041 229.032082 
L 107.472397 228.703677 
L 108.424463 228.638552 
L 108.741818 228.30908 
L 109.376529 228.297724 
L 109.693884 228.149946 
L 110.01124 228.149946 
L 110.328595 228.031548 
L 110.64595 227.713911 
L 110.963306 227.713911 
L 111.915372 227.384052 
L 112.232727 227.384052 
L 112.550083 226.942022 
L 113.184793 226.932324 
L 113.502149 226.779886 
L 113.819504 226.779886 
L 114.13686 226.563609 
L 114.454215 226.563609 
L 115.406281 225.971462 
L 115.723636 225.971462 
L 116.040992 225.66856 
L 116.358347 225.66856 
L 116.993058 225.003066 
L 117.627769 224.919175 
L 117.945124 224.324586 
L 118.262479 224.324586 
L 118.579835 223.587032 
L 118.89719 223.587032 
L 119.214545 223.315175 
L 119.531901 223.315175 
L 119.849256 223.072222 
L 120.166612 223.072222 
L 120.483967 222.734832 
L 122.070744 222.62944 
L 122.388099 221.818767 
L 123.340165 221.658902 
L 123.657521 221.439869 
L 124.292231 221.382785 
L 124.926942 220.333687 
L 125.244298 220.333687 
L 125.561653 220.144486 
L 125.879008 220.144486 
L 126.196364 219.931093 
L 126.513719 219.931093 
L 126.831074 219.724429 
L 127.465785 219.682753 
L 127.78314 219.549934 
L 128.100496 219.549934 
L 128.735207 219.105612 
L 132.860826 218.089383 
L 133.178182 217.899546 
L 133.495537 217.558884 
L 133.812893 217.558884 
L 134.130248 217.11794 
L 134.447603 217.11794 
L 134.764959 216.97738 
L 135.082314 216.97738 
L 135.399669 216.834513 
L 136.03438 216.736463 
L 136.669091 216.610847 
L 136.986446 216.610847 
L 137.303802 216.28477 
L 138.573223 216.211486 
L 139.207934 215.294247 
L 140.16 215.061126 
L 140.477355 214.714187 
L 140.794711 214.714187 
L 141.112066 214.25602 
L 141.429421 214.25602 
L 141.746777 213.906131 
L 142.698843 213.847971 
L 143.016198 213.679273 
L 144.28562 213.564594 
L 144.602975 213.333455 
L 144.920331 213.333455 
L 145.555041 212.663563 
L 146.824463 212.285851 
L 147.141818 211.621026 
L 147.459174 211.530133 
L 147.776529 211.181452 
L 148.093884 211.181452 
L 148.41124 211.005482 
L 148.728595 211.005482 
L 149.04595 210.423627 
L 149.363306 210.423627 
L 149.680661 210.144424 
L 149.998017 210.144424 
L 150.315372 209.681986 
L 151.584793 209.628781 
L 152.219504 209.532945 
L 153.17157 209.432672 
L 153.806281 209.345188 
L 154.123636 209.313933 
L 154.440992 209.076212 
L 154.758347 209.076212 
L 155.075702 208.753502 
L 155.393058 208.22187 
L 156.027769 208.166826 
L 156.345124 207.901977 
L 157.29719 207.81889 
L 157.614545 207.341594 
L 158.566612 207.308255 
L 158.883967 207.045512 
L 160.153388 206.997844 
L 160.788099 205.970933 
L 161.42281 205.902946 
L 161.740165 205.886113 
L 162.057521 205.27093 
L 163.009587 204.98827 
L 163.326942 204.98827 
L 163.644298 204.669853 
L 163.961653 204.669853 
L 164.279008 204.550605 
L 165.54843 204.472766 
L 165.865785 203.995278 
L 166.18314 203.741573 
L 167.135207 203.689284 
L 167.452562 203.470032 
L 167.769917 203.470032 
L 168.087273 202.571883 
L 168.721983 202.519807 
L 169.039339 202.183954 
L 169.67405 202.129151 
L 169.991405 201.726066 
L 170.626116 201.698308 
L 170.943471 201.520275 
L 171.895537 201.446646 
L 173.799669 201.015772 
L 174.117025 201.015772 
L 174.43438 200.433825 
L 175.386446 200.270403 
L 175.703802 199.933356 
L 176.021157 199.933356 
L 176.338512 199.641533 
L 176.655868 199.641533 
L 176.973223 199.285519 
L 177.607934 199.186188 
L 178.242645 199.076745 
L 180.146777 198.646783 
L 180.464132 198.358876 
L 181.416198 198.31292 
L 181.733554 198.061696 
L 182.050909 198.061696 
L 182.368264 197.92864 
L 182.68562 197.92864 
L 183.002975 197.45574 
L 183.320331 197.334139 
L 183.637686 197.334139 
L 183.955041 196.894096 
L 184.272397 196.894096 
L 184.589752 196.670538 
L 185.224463 196.666638 
L 187.128595 195.8853 
L 187.44595 195.8853 
L 187.763306 195.241094 
L 188.080661 195.025294 
L 188.398017 195.025294 
L 188.715372 194.867052 
L 190.302149 194.772179 
L 191.254215 194.702745 
L 191.57157 194.376501 
L 191.888926 194.376501 
L 192.206281 194.184379 
L 192.523636 194.184379 
L 192.840992 194.038742 
L 193.158347 194.038742 
L 193.475702 193.700682 
L 194.110413 193.626401 
L 194.427769 193.570586 
L 195.062479 193.039885 
L 195.379835 193.039885 
L 196.014545 192.782023 
L 196.649256 192.691774 
L 196.966612 192.220261 
L 197.283967 192.220261 
L 197.918678 191.974842 
L 198.236033 191.974842 
L 198.870744 191.547691 
L 199.82281 191.470379 
L 200.457521 191.43472 
L 201.092231 191.001163 
L 201.409587 191.001163 
L 201.726942 190.688646 
L 202.044298 190.688646 
L 202.361653 190.361124 
L 202.679008 190.361124 
L 202.996364 190.047481 
L 203.313719 190.047481 
L 203.631074 189.897746 
L 205.535207 189.790882 
L 205.852562 189.694174 
L 206.169917 189.024221 
L 206.804628 188.94493 
L 207.121983 188.66136 
L 208.07405 188.624327 
L 208.391405 188.377999 
L 208.70876 188.377999 
L 209.026116 188.05805 
L 209.978182 187.952 
L 211.564959 187.452134 
L 211.882314 187.246195 
L 213.151736 187.124214 
L 213.786446 186.655696 
L 214.421157 186.620656 
L 214.738512 186.190459 
L 215.055868 186.190459 
L 215.690579 186.076591 
L 216.007934 185.678514 
L 216.325289 185.678514 
L 216.96 185.220775 
L 217.594711 185.145716 
L 219.181488 185.055593 
L 219.498843 184.702439 
L 219.816198 184.702439 
L 220.133554 184.445751 
L 220.768264 184.414912 
L 221.08562 184.009603 
L 221.402975 184.009603 
L 221.720331 183.720289 
L 222.672397 183.626825 
L 222.989752 183.404271 
L 224.259174 183.316209 
L 224.576529 182.994466 
L 226.163306 182.61412 
L 226.798017 182.401957 
L 227.115372 182.401957 
L 227.432727 182.230464 
L 227.750083 182.230464 
L 228.384793 181.856966 
L 229.654215 181.809803 
L 229.97157 181.534984 
L 230.923636 181.448615 
L 231.240992 181.385112 
L 231.558347 180.927411 
L 232.193058 180.899816 
L 232.510413 180.651545 
L 232.827769 180.651545 
L 233.145124 180.21558 
L 233.462479 180.21558 
L 233.779835 179.966891 
L 234.731901 179.948981 
L 235.049256 179.563715 
L 235.683967 179.49089 
L 237.270744 179.014486 
L 237.588099 178.580278 
L 238.540165 178.522755 
L 239.492231 178.324828 
L 240.126942 177.725991 
L 240.761653 177.609219 
L 242.665785 177.254783 
L 242.98314 177.102122 
L 243.300496 177.091694 
L 243.617851 176.822394 
L 243.935207 176.822394 
L 244.252562 176.693577 
L 245.521983 176.60486 
L 246.156694 176.503232 
L 246.47405 176.115054 
L 247.10876 176.016285 
L 248.695537 175.912265 
L 249.012893 175.523377 
L 249.330248 175.355889 
L 249.647603 175.355889 
L 249.964959 175.212208 
L 250.282314 175.212208 
L 250.599669 174.930126 
L 250.917025 174.930126 
L 251.23438 174.738229 
L 251.551736 174.703897 
L 251.869091 174.47337 
L 252.186446 174.47337 
L 252.503802 174.151987 
L 253.138512 174.106391 
L 253.455868 173.725373 
L 253.773223 173.725373 
L 254.090579 173.346656 
L 254.725289 173.302918 
L 255.042645 172.863569 
L 257.581488 172.507187 
L 257.898843 172.256097 
L 258.533554 172.250661 
L 258.850909 172.091687 
L 259.168264 172.091687 
L 259.48562 171.568018 
L 259.802975 171.568018 
L 260.437686 171.291815 
L 261.072397 171.226296 
L 262.024463 170.981225 
L 262.976529 170.876414 
L 263.293884 170.618389 
L 263.928595 170.606383 
L 264.24595 170.308566 
L 265.198017 170.129866 
L 265.515372 170.129866 
L 266.150083 169.673982 
L 266.467438 169.673982 
L 266.784793 169.48804 
L 267.102149 169.48804 
L 267.419504 169.103238 
L 268.688926 169.057851 
L 270.910413 168.530863 
L 271.227769 168.310611 
L 271.545124 168.310611 
L 272.49719 167.908958 
L 272.814545 167.358913 
L 273.131901 167.358913 
L 273.766612 167.125723 
L 274.083967 167.125723 
L 274.401322 166.900452 
L 274.718678 166.900452 
L 275.036033 166.665234 
L 275.353388 166.665234 
L 275.670744 166.349852 
L 276.305455 166.305995 
L 276.940165 166.126324 
L 277.257521 166.126324 
L 278.209587 165.844842 
L 278.526942 165.363032 
L 278.844298 165.232666 
L 279.161653 165.232666 
L 279.479008 164.433324 
L 280.431074 164.385692 
L 280.74843 164.235543 
L 281.38314 164.191299 
L 282.017851 164.084816 
L 282.652562 163.522334 
L 282.969917 163.522334 
L 283.287273 163.036826 
L 283.604628 162.821617 
L 285.50876 162.558494 
L 285.826116 162.432414 
L 286.778182 162.345072 
L 287.095537 162.114705 
L 287.412893 162.114705 
L 287.730248 161.805182 
L 288.047603 161.805182 
L 288.682314 161.327917 
L 288.999669 161.327917 
L 289.951736 161.090281 
L 290.586446 160.993038 
L 290.903802 160.652423 
L 291.221157 160.652423 
L 291.855868 160.528417 
L 292.173223 160.528417 
L 292.490579 160.092626 
L 293.125289 160.062915 
L 293.442645 159.712633 
L 294.394711 159.637447 
L 294.712066 159.508379 
L 295.346777 158.744663 
L 296.298843 158.722163 
L 296.933554 158.563098 
L 297.250909 158.563098 
L 297.568264 158.389783 
L 297.88562 158.389783 
L 298.202975 158.087653 
L 298.520331 158.087653 
L 299.155041 157.586515 
L 299.472397 157.457494 
L 299.789752 157.457494 
L 300.424463 156.7948 
L 301.059174 156.703487 
L 301.376529 156.185816 
L 301.693884 156.185816 
L 302.01124 155.907042 
L 302.328595 155.907042 
L 302.64595 155.642578 
L 303.598017 155.516187 
L 303.915372 155.143903 
L 304.550083 155.053707 
L 305.184793 155.016253 
L 305.819504 154.523713 
L 306.13686 154.523713 
L 306.454215 154.259424 
L 307.406281 154.037048 
L 307.723636 153.14165 
L 308.040992 153.14165 
L 308.358347 152.66961 
L 309.945124 152.550506 
L 310.262479 152.252896 
L 310.579835 152.252896 
L 310.89719 152.020106 
L 311.531901 151.934678 
L 312.483967 151.629885 
L 312.801322 151.311571 
L 313.753388 151.237092 
L 314.070744 150.997229 
L 314.388099 150.997229 
L 315.340165 150.64582 
L 315.657521 150.000618 
L 315.974876 150.000618 
L 316.609587 149.617318 
L 317.561653 149.554087 
L 317.879008 149.554087 
L 318.196364 149.375716 
L 318.831074 148.377867 
L 319.14843 148.377867 
L 319.465785 148.24859 
L 320.100496 148.245563 
L 320.735207 147.484881 
L 321.052562 147.484881 
L 321.687273 146.856855 
L 322.956694 146.782843 
L 323.27405 145.875293 
L 323.591405 145.875293 
L 324.226116 145.464096 
L 324.543471 145.464096 
L 324.860826 145.041003 
L 325.495537 145.038435 
L 325.812893 144.67312 
L 326.130248 144.67312 
L 326.447603 144.435061 
L 326.764959 144.382185 
L 327.399669 143.742503 
L 328.03438 143.654965 
L 328.351736 143.292585 
L 328.669091 143.292585 
L 328.986446 142.967012 
L 329.303802 142.967012 
L 329.621157 142.830518 
L 329.938512 142.830518 
L 330.255868 142.393855 
L 332.16 142.233882 
L 332.477355 142.117199 
L 332.794711 141.579517 
L 333.112066 141.579517 
L 333.429421 141.436073 
L 333.746777 141.100991 
L 334.698843 140.992755 
L 335.650909 140.968176 
L 335.968264 140.69349 
L 336.28562 140.215298 
L 336.602975 140.215298 
L 336.920331 139.920556 
L 337.237686 139.423785 
L 337.872397 139.391952 
L 338.189752 139.203175 
L 338.507107 139.203175 
L 338.824463 138.625569 
L 339.141818 138.625569 
L 339.459174 138.325341 
L 339.776529 138.184568 
L 340.093884 138.184568 
L 340.41124 137.640561 
L 341.04595 137.617227 
L 341.363306 136.634713 
L 341.680661 136.634713 
L 341.998017 136.509682 
L 342.632727 136.42114 
L 343.267438 136.328742 
L 343.584793 135.982068 
L 344.219504 134.716911 
L 344.854215 134.688805 
L 345.17157 134.180686 
L 345.488926 134.009721 
L 346.123636 133.987055 
L 346.440992 133.421677 
L 346.758347 133.232303 
L 347.710413 133.177267 
L 348.027769 132.962749 
L 348.662479 132.876236 
L 349.29719 132.70291 
L 349.614545 132.70291 
L 349.931901 132.255942 
L 351.201322 132.148382 
L 351.518678 131.536959 
L 351.836033 131.209603 
L 352.153388 131.209603 
L 352.470744 130.814083 
L 353.105455 130.800059 
L 353.42281 130.517519 
L 353.740165 130.517519 
L 354.057521 130.204252 
L 354.374876 130.204252 
L 354.692231 129.931443 
L 355.009587 129.931443 
L 355.326942 129.800763 
L 355.644298 128.64244 
L 355.961653 128.64244 
L 356.279008 128.18151 
L 356.596364 128.18151 
L 356.913719 127.97587 
L 357.231074 127.443614 
L 357.54843 127.443614 
L 357.865785 127.046281 
L 358.18314 126.169804 
L 359.135207 126.064935 
L 359.452562 125.858685 
L 359.769917 125.011212 
L 360.087273 125.011212 
L 360.404628 124.545591 
L 360.721983 124.545591 
L 361.356694 124.372233 
L 361.67405 124.372233 
L 361.991405 124.175217 
L 362.626116 124.171055 
L 362.943471 123.658376 
L 363.578182 123.62524 
L 363.895537 123.389139 
L 364.212893 122.614305 
L 364.847603 122.579239 
L 365.164959 122.194784 
L 365.482314 122.194784 
L 365.799669 121.762806 
L 366.117025 121.564054 
L 367.069091 121.464972 
L 367.386446 120.845878 
L 367.703802 120.845878 
L 368.021157 120.248778 
L 368.338512 120.248778 
L 368.655868 119.5577 
L 368.973223 119.5577 
L 369.290579 119.438416 
L 369.607934 118.67701 
L 369.925289 118.67701 
L 370.242645 118.558968 
L 370.56 118.174139 
L 370.877355 117.591413 
L 371.194711 117.591413 
L 371.512066 116.588306 
L 371.829421 116.588306 
L 372.781488 115.550233 
L 373.098843 114.759906 
L 374.050909 114.46736 
L 374.368264 114.46736 
L 374.68562 114.112662 
L 375.002975 113.108429 
L 375.955041 112.957507 
L 376.272397 111.862596 
L 376.589752 111.862596 
L 376.907107 111.106507 
L 377.224463 111.106507 
L 377.541818 110.871035 
L 378.81124 110.766222 
L 379.128595 108.935308 
L 379.44595 108.935308 
L 380.398017 106.374426 
L 380.715372 106.374426 
L 381.032727 106.193839 
L 381.350083 106.193839 
L 381.984793 104.820143 
L 382.302149 104.796786 
L 382.619504 103.825417 
L 382.93686 103.825417 
L 383.254215 103.403475 
L 383.888926 103.331445 
L 384.206281 102.979285 
L 384.523636 102.979285 
L 384.840992 101.236107 
L 385.158347 101.236107 
L 385.475702 100.239879 
L 385.793058 100.239879 
L 386.427769 99.223176 
L 386.745124 97.64141 
L 387.062479 97.64141 
L 387.379835 97.446795 
L 387.69719 95.990646 
L 388.014545 95.739881 
L 388.331901 95.166514 
L 388.649256 95.166514 
L 388.966612 94.636048 
L 389.283967 94.636048 
L 389.601322 94.29588 
L 389.918678 92.265421 
L 390.236033 92.265421 
L 390.553388 90.993673 
L 390.870744 88.782738 
L 391.188099 88.610655 
L 391.505455 88.610655 
L 392.140165 86.117908 
L 392.457521 86.117908 
L 392.774876 85.024286 
L 393.092231 84.423476 
L 393.409587 84.423476 
L 393.726942 81.954022 
L 394.044298 81.954022 
L 394.361653 81.458791 
L 394.996364 77.610068 
L 395.313719 77.610068 
L 395.631074 76.763694 
L 395.94843 76.510892 
L 396.265785 76.510892 
L 396.58314 70.025075 
L 397.217851 65.88784 
L 397.535207 65.88784 
L 397.852562 54.739926 
L 398.169917 54.290814 
L 398.487273 54.290814 
L 398.487273 54.290814 
" clip-path="url(#p2afd5ad942)" style="fill: none; stroke: #ff7f0e; stroke-width: 1.5; stroke-linecap: square"/>
   </g>
   <g id="patch_3">
    <path d="M 57.6 307.584 
L 57.6 41.472 
" style="fill: none; stroke: #000000; stroke-width: 0.8; stroke-linejoin: miter; stroke-linecap: square"/>
   </g>
   <g id="patch_4">
    <path d="M 414.72 307.584 
L 414.72 41.472 
" style="fill: none; stroke: #000000; stroke-width: 0.8; stroke-linejoin: miter; stroke-linecap: square"/>
   </g>
   <g id="patch_5">
    <path d="M 57.6 307.584 
L 414.72 307.584 
" style="fill: none; stroke: #000000; stroke-width: 0.8; stroke-linejoin: miter; stroke-linecap: square"/>
   </g>
   <g id="patch_6">
    <path d="M 57.6 41.472 
L 414.72 41.472 
" style="fill: none; stroke: #000000; stroke-width: 0.8; stroke-linejoin: miter; stroke-linecap: square"/>
   </g>
   <g id="legend_1">
    <g id="patch_7">
     <path d="M 64.6 78.82825 
L 129.342187 78.82825 
Q 131.342187 78.82825 131.342187 76.82825 
L 131.342187 48.472 
Q 131.342187 46.472 129.342187 46.472 
L 64.6 46.472 
Q 62.6 46.472 62.6 48.472 
L 62.6 76.82825 
Q 62.6 78.82825 64.6 78.82825 
z
" style="fill: #ffffff; opacity: 0.8; stroke: #cccccc; stroke-linejoin: miter"/>
    </g>
    <g id="line2d_16">
     <path d="M 66.6 54.570437 
L 76.6 54.570437 
L 86.6 54.570437 
" style="fill: none; stroke: #1f77b4; stroke-width: 1.5; stroke-linecap: square"/>
    </g>
    <g id="text_16">
     <!-- qc -->
     <g transform="translate(94.6 58.070437) scale(0.1 -0.1)">
      <defs>
       <path id="DejaVuSans-71" d="M 947 1747 
Q 947 1113 1208 752 
Q 1469 391 1925 391 
Q 2381 391 2643 752 
Q 2906 1113 2906 1747 
Q 2906 2381 2643 2742 
Q 2381 3103 1925 3103 
Q 1469 3103 1208 2742 
Q 947 2381 947 1747 
z
M 2906 525 
Q 2725 213 2448 61 
Q 2172 -91 1784 -91 
Q 1150 -91 751 415 
Q 353 922 353 1747 
Q 353 2572 751 3078 
Q 1150 3584 1784 3584 
Q 2172 3584 2448 3432 
Q 2725 3281 2906 2969 
L 2906 3500 
L 3481 3500 
L 3481 -1331 
L 2906 -1331 
L 2906 525 
z
" transform="scale(0.015625)"/>
       <path id="DejaVuSans-63" d="M 3122 3366 
L 3122 2828 
Q 2878 2963 2633 3030 
Q 2388 3097 2138 3097 
Q 1578 3097 1268 2742 
Q 959 2388 959 1747 
Q 959 1106 1268 751 
Q 1578 397 2138 397 
Q 2388 397 2633 464 
Q 2878 531 3122 666 
L 3122 134 
Q 2881 22 2623 -34 
Q 2366 -91 2075 -91 
Q 1284 -91 818 406 
Q 353 903 353 1747 
Q 353 2603 823 3093 
Q 1294 3584 2113 3584 
Q 2378 3584 2631 3529 
Q 2884 3475 3122 3366 
z
" transform="scale(0.015625)"/>
      </defs>
      <use xlink:href="#DejaVuSans-71"/>
      <use xlink:href="#DejaVuSans-63" x="63.476562"/>
     </g>
    </g>
    <g id="line2d_17">
     <path d="M 66.6 69.248562 
L 76.6 69.248562 
L 86.6 69.248562 
" style="fill: none; stroke: #ff7f0e; stroke-width: 1.5; stroke-linecap: square"/>
    </g>
    <g id="text_17">
     <!-- Trotter -->
     <g transform="translate(94.6 72.748562) scale(0.1 -0.1)">
      <defs>
       <path id="DejaVuSans-54" d="M -19 4666 
L 3928 4666 
L 3928 4134 
L 2272 4134 
L 2272 0 
L 1638 0 
L 1638 4134 
L -19 4134 
L -19 4666 
z
" transform="scale(0.015625)"/>
       <path id="DejaVuSans-72" d="M 2631 2963 
Q 2534 3019 2420 3045 
Q 2306 3072 2169 3072 
Q 1681 3072 1420 2755 
Q 1159 2438 1159 1844 
L 1159 0 
L 581 0 
L 581 3500 
L 1159 3500 
L 1159 2956 
Q 1341 3275 1631 3429 
Q 1922 3584 2338 3584 
Q 2397 3584 2469 3576 
Q 2541 3569 2628 3553 
L 2631 2963 
z
" transform="scale(0.015625)"/>
       <path id="DejaVuSans-6f" d="M 1959 3097 
Q 1497 3097 1228 2736 
Q 959 2375 959 1747 
Q 959 1119 1226 758 
Q 1494 397 1959 397 
Q 2419 397 2687 759 
Q 2956 1122 2956 1747 
Q 2956 2369 2687 2733 
Q 2419 3097 1959 3097 
z
M 1959 3584 
Q 2709 3584 3137 3096 
Q 3566 2609 3566 1747 
Q 3566 888 3137 398 
Q 2709 -91 1959 -91 
Q 1206 -91 779 398 
Q 353 888 353 1747 
Q 353 2609 779 3096 
Q 1206 3584 1959 3584 
z
" transform="scale(0.015625)"/>
       <path id="DejaVuSans-65" d="M 3597 1894 
L 3597 1613 
L 953 1613 
Q 991 1019 1311 708 
Q 1631 397 2203 397 
Q 2534 397 2845 478 
Q 3156 559 3463 722 
L 3463 178 
Q 3153 47 2828 -22 
Q 2503 -91 2169 -91 
Q 1331 -91 842 396 
Q 353 884 353 1716 
Q 353 2575 817 3079 
Q 1281 3584 2069 3584 
Q 2775 3584 3186 3129 
Q 3597 2675 3597 1894 
z
M 3022 2063 
Q 3016 2534 2758 2815 
Q 2500 3097 2075 3097 
Q 1594 3097 1305 2825 
Q 1016 2553 972 2059 
L 3022 2063 
z
" transform="scale(0.015625)"/>
      </defs>
      <use xlink:href="#DejaVuSans-54"/>
      <use xlink:href="#DejaVuSans-72" x="46.333984"/>
      <use xlink:href="#DejaVuSans-6f" x="85.197266"/>
      <use xlink:href="#DejaVuSans-74" x="146.378906"/>
      <use xlink:href="#DejaVuSans-74" x="185.587891"/>
      <use xlink:href="#DejaVuSans-65" x="224.796875"/>
      <use xlink:href="#DejaVuSans-72" x="286.320312"/>
     </g>
    </g>
   </g>
  </g>
 </g>
 <defs>
  <clipPath id="p2afd5ad942">
   <rect x="57.6" y="41.472" width="357.12" height="266.112"/>
  </clipPath>
 </defs>
</svg>
