<?xml version="1.0" encoding="utf-8" standalone="no"?>
<!DOCTYPE svg PUBLIC "-//W3C//DTD SVG 1.1//EN"
  "http://www.w3.org/Graphics/SVG/1.1/DTD/svg11.dtd">
<svg xmlns:xlink="http://www.w3.org/1999/xlink" width="460.8pt" height="345.6pt" viewBox="0 0 460.8 345.6" xmlns="http://www.w3.org/2000/svg" version="1.1">
 <metadata>
  <rdf:RDF xmlns:dc="http://purl.org/dc/elements/1.1/" xmlns:cc="http://creativecommons.org/ns#" xmlns:rdf="http://www.w3.org/1999/02/22-rdf-syntax-ns#">
   <cc:Work>
    <dc:type rdf:resource="http://purl.org/dc/dcmitype/StillImage"/>
    <dc:date>2024-08-23T11:43:35.138178</dc:date>
    <dc:format>image/svg+xml</dc:format>
    <dc:creator>
     <cc:Agent>
      <dc:title>Matplotlib v3.7.1, https://matplotlib.org/</dc:title>
     </cc:Agent>
    </dc:creator>
   </cc:Work>
  </rdf:RDF>
 </metadata>
 <defs>
  <style type="text/css">*{stroke-linejoin: round; stroke-linecap: butt}</style>
 </defs>
 <g id="figure_1">
  <g id="patch_1">
   <path d="M 0 345.6 
L 460.8 345.6 
L 460.8 0 
L 0 0 
z
" style="fill: #ffffff"/>
  </g>
  <g id="axes_1">
   <g id="patch_2">
    <path d="M 57.6 307.584 
L 414.72 307.584 
L 414.72 41.472 
L 57.6 41.472 
z
" style="fill: #ffffff"/>
   </g>
   <g id="matplotlib.axis_1">
    <g id="xtick_1">
     <g id="line2d_1">
      <defs>
       <path id="m7b278780d1" d="M 0 0 
L 0 3.5 
" style="stroke: #000000; stroke-width: 0.8"/>
      </defs>
      <g>
       <use xlink:href="#m7b278780d1" x="73.832727" y="307.584" style="stroke: #000000; stroke-width: 0.8"/>
      </g>
     </g>
     <g id="text_1">
      <!-- 0 -->
      <g transform="translate(70.651477 322.182437) scale(0.1 -0.1)">
       <defs>
        <path id="DejaVuSans-30" d="M 2034 4250 
Q 1547 4250 1301 3770 
Q 1056 3291 1056 2328 
Q 1056 1369 1301 889 
Q 1547 409 2034 409 
Q 2525 409 2770 889 
Q 3016 1369 3016 2328 
Q 3016 3291 2770 3770 
Q 2525 4250 2034 4250 
z
M 2034 4750 
Q 2819 4750 3233 4129 
Q 3647 3509 3647 2328 
Q 3647 1150 3233 529 
Q 2819 -91 2034 -91 
Q 1250 -91 836 529 
Q 422 1150 422 2328 
Q 422 3509 836 4129 
Q 1250 4750 2034 4750 
z
" transform="scale(0.015625)"/>
       </defs>
       <use xlink:href="#DejaVuSans-30"/>
      </g>
     </g>
    </g>
    <g id="xtick_2">
     <g id="line2d_2">
      <g>
       <use xlink:href="#m7b278780d1" x="137.303802" y="307.584" style="stroke: #000000; stroke-width: 0.8"/>
      </g>
     </g>
     <g id="text_2">
      <!-- 200 -->
      <g transform="translate(127.760052 322.182437) scale(0.1 -0.1)">
       <defs>
        <path id="DejaVuSans-32" d="M 1228 531 
L 3431 531 
L 3431 0 
L 469 0 
L 469 531 
Q 828 903 1448 1529 
Q 2069 2156 2228 2338 
Q 2531 2678 2651 2914 
Q 2772 3150 2772 3378 
Q 2772 3750 2511 3984 
Q 2250 4219 1831 4219 
Q 1534 4219 1204 4116 
Q 875 4013 500 3803 
L 500 4441 
Q 881 4594 1212 4672 
Q 1544 4750 1819 4750 
Q 2544 4750 2975 4387 
Q 3406 4025 3406 3419 
Q 3406 3131 3298 2873 
Q 3191 2616 2906 2266 
Q 2828 2175 2409 1742 
Q 1991 1309 1228 531 
z
" transform="scale(0.015625)"/>
       </defs>
       <use xlink:href="#DejaVuSans-32"/>
       <use xlink:href="#DejaVuSans-30" x="63.623047"/>
       <use xlink:href="#DejaVuSans-30" x="127.246094"/>
      </g>
     </g>
    </g>
    <g id="xtick_3">
     <g id="line2d_3">
      <g>
       <use xlink:href="#m7b278780d1" x="200.774876" y="307.584" style="stroke: #000000; stroke-width: 0.8"/>
      </g>
     </g>
     <g id="text_3">
      <!-- 400 -->
      <g transform="translate(191.231126 322.182437) scale(0.1 -0.1)">
       <defs>
        <path id="DejaVuSans-34" d="M 2419 4116 
L 825 1625 
L 2419 1625 
L 2419 4116 
z
M 2253 4666 
L 3047 4666 
L 3047 1625 
L 3713 1625 
L 3713 1100 
L 3047 1100 
L 3047 0 
L 2419 0 
L 2419 1100 
L 313 1100 
L 313 1709 
L 2253 4666 
z
" transform="scale(0.015625)"/>
       </defs>
       <use xlink:href="#DejaVuSans-34"/>
       <use xlink:href="#DejaVuSans-30" x="63.623047"/>
       <use xlink:href="#DejaVuSans-30" x="127.246094"/>
      </g>
     </g>
    </g>
    <g id="xtick_4">
     <g id="line2d_4">
      <g>
       <use xlink:href="#m7b278780d1" x="264.24595" y="307.584" style="stroke: #000000; stroke-width: 0.8"/>
      </g>
     </g>
     <g id="text_4">
      <!-- 600 -->
      <g transform="translate(254.7022 322.182437) scale(0.1 -0.1)">
       <defs>
        <path id="DejaVuSans-36" d="M 2113 2584 
Q 1688 2584 1439 2293 
Q 1191 2003 1191 1497 
Q 1191 994 1439 701 
Q 1688 409 2113 409 
Q 2538 409 2786 701 
Q 3034 994 3034 1497 
Q 3034 2003 2786 2293 
Q 2538 2584 2113 2584 
z
M 3366 4563 
L 3366 3988 
Q 3128 4100 2886 4159 
Q 2644 4219 2406 4219 
Q 1781 4219 1451 3797 
Q 1122 3375 1075 2522 
Q 1259 2794 1537 2939 
Q 1816 3084 2150 3084 
Q 2853 3084 3261 2657 
Q 3669 2231 3669 1497 
Q 3669 778 3244 343 
Q 2819 -91 2113 -91 
Q 1303 -91 875 529 
Q 447 1150 447 2328 
Q 447 3434 972 4092 
Q 1497 4750 2381 4750 
Q 2619 4750 2861 4703 
Q 3103 4656 3366 4563 
z
" transform="scale(0.015625)"/>
       </defs>
       <use xlink:href="#DejaVuSans-36"/>
       <use xlink:href="#DejaVuSans-30" x="63.623047"/>
       <use xlink:href="#DejaVuSans-30" x="127.246094"/>
      </g>
     </g>
    </g>
    <g id="xtick_5">
     <g id="line2d_5">
      <g>
       <use xlink:href="#m7b278780d1" x="327.717025" y="307.584" style="stroke: #000000; stroke-width: 0.8"/>
      </g>
     </g>
     <g id="text_5">
      <!-- 800 -->
      <g transform="translate(318.173275 322.182437) scale(0.1 -0.1)">
       <defs>
        <path id="DejaVuSans-38" d="M 2034 2216 
Q 1584 2216 1326 1975 
Q 1069 1734 1069 1313 
Q 1069 891 1326 650 
Q 1584 409 2034 409 
Q 2484 409 2743 651 
Q 3003 894 3003 1313 
Q 3003 1734 2745 1975 
Q 2488 2216 2034 2216 
z
M 1403 2484 
Q 997 2584 770 2862 
Q 544 3141 544 3541 
Q 544 4100 942 4425 
Q 1341 4750 2034 4750 
Q 2731 4750 3128 4425 
Q 3525 4100 3525 3541 
Q 3525 3141 3298 2862 
Q 3072 2584 2669 2484 
Q 3125 2378 3379 2068 
Q 3634 1759 3634 1313 
Q 3634 634 3220 271 
Q 2806 -91 2034 -91 
Q 1263 -91 848 271 
Q 434 634 434 1313 
Q 434 1759 690 2068 
Q 947 2378 1403 2484 
z
M 1172 3481 
Q 1172 3119 1398 2916 
Q 1625 2713 2034 2713 
Q 2441 2713 2670 2916 
Q 2900 3119 2900 3481 
Q 2900 3844 2670 4047 
Q 2441 4250 2034 4250 
Q 1625 4250 1398 4047 
Q 1172 3844 1172 3481 
z
" transform="scale(0.015625)"/>
       </defs>
       <use xlink:href="#DejaVuSans-38"/>
       <use xlink:href="#DejaVuSans-30" x="63.623047"/>
       <use xlink:href="#DejaVuSans-30" x="127.246094"/>
      </g>
     </g>
    </g>
    <g id="xtick_6">
     <g id="line2d_6">
      <g>
       <use xlink:href="#m7b278780d1" x="391.188099" y="307.584" style="stroke: #000000; stroke-width: 0.8"/>
      </g>
     </g>
     <g id="text_6">
      <!-- 1000 -->
      <g transform="translate(378.463099 322.182437) scale(0.1 -0.1)">
       <defs>
        <path id="DejaVuSans-31" d="M 794 531 
L 1825 531 
L 1825 4091 
L 703 3866 
L 703 4441 
L 1819 4666 
L 2450 4666 
L 2450 531 
L 3481 531 
L 3481 0 
L 794 0 
L 794 531 
z
" transform="scale(0.015625)"/>
       </defs>
       <use xlink:href="#DejaVuSans-31"/>
       <use xlink:href="#DejaVuSans-30" x="63.623047"/>
       <use xlink:href="#DejaVuSans-30" x="127.246094"/>
       <use xlink:href="#DejaVuSans-30" x="190.869141"/>
      </g>
     </g>
    </g>
    <g id="text_7">
     <!-- n -->
     <g transform="translate(232.99125 335.860562) scale(0.1 -0.1)">
      <defs>
       <path id="DejaVuSans-6e" d="M 3513 2113 
L 3513 0 
L 2938 0 
L 2938 2094 
Q 2938 2591 2744 2837 
Q 2550 3084 2163 3084 
Q 1697 3084 1428 2787 
Q 1159 2491 1159 1978 
L 1159 0 
L 581 0 
L 581 3500 
L 1159 3500 
L 1159 2956 
Q 1366 3272 1645 3428 
Q 1925 3584 2291 3584 
Q 2894 3584 3203 3211 
Q 3513 2838 3513 2113 
z
" transform="scale(0.015625)"/>
      </defs>
      <use xlink:href="#DejaVuSans-6e"/>
     </g>
    </g>
   </g>
   <g id="matplotlib.axis_2">
    <g id="ytick_1">
     <g id="line2d_7">
      <defs>
       <path id="m81643826a8" d="M 0 0 
L -3.5 0 
" style="stroke: #000000; stroke-width: 0.8"/>
      </defs>
      <g>
       <use xlink:href="#m81643826a8" x="57.6" y="268.005412" style="stroke: #000000; stroke-width: 0.8"/>
      </g>
     </g>
     <g id="text_8">
      <!-- −4 -->
      <g transform="translate(35.857813 271.804631) scale(0.1 -0.1)">
       <defs>
        <path id="DejaVuSans-2212" d="M 678 2272 
L 4684 2272 
L 4684 1741 
L 678 1741 
L 678 2272 
z
" transform="scale(0.015625)"/>
       </defs>
       <use xlink:href="#DejaVuSans-2212"/>
       <use xlink:href="#DejaVuSans-34" x="83.789062"/>
      </g>
     </g>
    </g>
    <g id="ytick_2">
     <g id="line2d_8">
      <g>
       <use xlink:href="#m81643826a8" x="57.6" y="220.496229" style="stroke: #000000; stroke-width: 0.8"/>
      </g>
     </g>
     <g id="text_9">
      <!-- −2 -->
      <g transform="translate(35.857813 224.295448) scale(0.1 -0.1)">
       <use xlink:href="#DejaVuSans-2212"/>
       <use xlink:href="#DejaVuSans-32" x="83.789062"/>
      </g>
     </g>
    </g>
    <g id="ytick_3">
     <g id="line2d_9">
      <g>
       <use xlink:href="#m81643826a8" x="57.6" y="172.987046" style="stroke: #000000; stroke-width: 0.8"/>
      </g>
     </g>
     <g id="text_10">
      <!-- 0 -->
      <g transform="translate(44.2375 176.786264) scale(0.1 -0.1)">
       <use xlink:href="#DejaVuSans-30"/>
      </g>
     </g>
    </g>
    <g id="ytick_4">
     <g id="line2d_10">
      <g>
       <use xlink:href="#m81643826a8" x="57.6" y="125.477862" style="stroke: #000000; stroke-width: 0.8"/>
      </g>
     </g>
     <g id="text_11">
      <!-- 2 -->
      <g transform="translate(44.2375 129.277081) scale(0.1 -0.1)">
       <use xlink:href="#DejaVuSans-32"/>
      </g>
     </g>
    </g>
    <g id="ytick_5">
     <g id="line2d_11">
      <g>
       <use xlink:href="#m81643826a8" x="57.6" y="77.968679" style="stroke: #000000; stroke-width: 0.8"/>
      </g>
     </g>
     <g id="text_12">
      <!-- 4 -->
      <g transform="translate(44.2375 81.767898) scale(0.1 -0.1)">
       <use xlink:href="#DejaVuSans-34"/>
      </g>
     </g>
    </g>
    <g id="text_13">
     <!-- E*t -->
     <g transform="translate(29.778125 182.147531) rotate(-90) scale(0.1 -0.1)">
      <defs>
       <path id="DejaVuSans-45" d="M 628 4666 
L 3578 4666 
L 3578 4134 
L 1259 4134 
L 1259 2753 
L 3481 2753 
L 3481 2222 
L 1259 2222 
L 1259 531 
L 3634 531 
L 3634 0 
L 628 0 
L 628 4666 
z
" transform="scale(0.015625)"/>
       <path id="DejaVuSans-2a" d="M 3009 3897 
L 1888 3291 
L 3009 2681 
L 2828 2375 
L 1778 3009 
L 1778 1831 
L 1422 1831 
L 1422 3009 
L 372 2375 
L 191 2681 
L 1313 3291 
L 191 3897 
L 372 4206 
L 1422 3572 
L 1422 4750 
L 1778 4750 
L 1778 3572 
L 2828 4206 
L 3009 3897 
z
" transform="scale(0.015625)"/>
       <path id="DejaVuSans-74" d="M 1172 4494 
L 1172 3500 
L 2356 3500 
L 2356 3053 
L 1172 3053 
L 1172 1153 
Q 1172 725 1289 603 
Q 1406 481 1766 481 
L 2356 481 
L 2356 0 
L 1766 0 
Q 1100 0 847 248 
Q 594 497 594 1153 
L 594 3053 
L 172 3053 
L 172 3500 
L 594 3500 
L 594 4494 
L 1172 4494 
z
" transform="scale(0.015625)"/>
      </defs>
      <use xlink:href="#DejaVuSans-45"/>
      <use xlink:href="#DejaVuSans-2a" x="63.183594"/>
      <use xlink:href="#DejaVuSans-74" x="113.183594"/>
     </g>
    </g>
   </g>
   <g id="line2d_12">
    <path d="M 73.832727 295.488 
L 74.150083 281.821047 
L 74.467438 281.33267 
L 74.784793 269.722332 
L 75.102149 267.232656 
L 75.419504 266.846501 
L 75.73686 266.841688 
L 76.054215 263.160714 
L 76.37157 257.779971 
L 77.006281 255.400779 
L 77.323636 254.873296 
L 77.640992 254.808352 
L 77.958347 253.710641 
L 78.275702 253.538942 
L 78.593058 253.503588 
L 78.910413 252.983458 
L 79.227769 249.293288 
L 79.545124 249.068167 
L 79.862479 247.767225 
L 80.179835 247.310233 
L 80.49719 247.256577 
L 80.814545 242.605386 
L 81.131901 242.299591 
L 81.449256 241.437904 
L 81.766612 240.934224 
L 82.083967 240.898122 
L 82.718678 240.068943 
L 83.353388 239.314735 
L 83.988099 239.196752 
L 85.257521 238.608334 
L 85.574876 238.48852 
L 86.526942 237.57161 
L 86.844298 235.671647 
L 87.161653 235.194709 
L 88.113719 232.750469 
L 88.431074 232.563867 
L 89.065785 232.48717 
L 89.700496 232.2914 
L 90.335207 230.932739 
L 90.969917 229.815543 
L 91.287273 229.668518 
L 91.604628 229.292314 
L 92.239339 229.042582 
L 92.556694 228.951213 
L 92.87405 228.637273 
L 93.191405 227.928239 
L 93.826116 227.798168 
L 94.460826 227.048611 
L 94.778182 226.967408 
L 95.095537 226.58264 
L 95.412893 226.564633 
L 96.047603 226.135863 
L 96.682314 225.764356 
L 97.317025 225.595097 
L 97.63438 225.581134 
L 98.586446 224.897755 
L 99.221157 224.641511 
L 99.538512 224.430679 
L 99.855868 223.738688 
L 100.173223 223.667455 
L 100.490579 223.119603 
L 101.125289 223.028712 
L 101.76 222.755104 
L 102.394711 222.614356 
L 103.981488 222.139769 
L 104.298843 221.595369 
L 104.616198 221.498379 
L 104.933554 221.172239 
L 105.250909 219.968814 
L 106.202975 219.630266 
L 106.837686 216.607901 
L 107.472397 215.411915 
L 108.424463 214.596199 
L 108.741818 214.482947 
L 109.059174 213.776977 
L 109.376529 213.568471 
L 110.01124 213.321728 
L 110.64595 212.961026 
L 111.598017 212.464496 
L 112.232727 212.30695 
L 112.867438 212.073185 
L 113.819504 211.618241 
L 114.454215 211.454253 
L 114.77157 211.095069 
L 115.406281 210.90109 
L 115.723636 210.62109 
L 116.675702 210.376936 
L 117.627769 210.046839 
L 118.579835 209.839995 
L 119.214545 209.71277 
L 119.849256 209.45602 
L 121.436033 209.210366 
L 122.388099 208.953977 
L 123.657521 208.758338 
L 125.561653 208.003345 
L 126.196364 207.65095 
L 126.831074 206.784018 
L 128.100496 206.321601 
L 128.735207 206.17956 
L 130.004628 205.829688 
L 131.591405 205.398802 
L 132.226116 205.319397 
L 132.543471 205.038288 
L 132.860826 204.949958 
L 134.447603 203.898901 
L 135.082314 203.762449 
L 135.399669 203.517837 
L 136.351736 203.279019 
L 136.986446 202.966702 
L 137.303802 202.911813 
L 137.621157 202.546707 
L 138.255868 202.40965 
L 139.842645 202.256498 
L 142.381488 201.55541 
L 143.016198 201.040665 
L 147.459174 200.014474 
L 149.363306 199.826636 
L 150.315372 199.686374 
L 151.267438 199.548379 
L 151.902149 199.460444 
L 153.17157 199.339498 
L 154.758347 199.031634 
L 155.393058 198.844562 
L 156.662479 198.744992 
L 157.29719 198.589022 
L 157.931901 198.419659 
L 160.153388 197.869807 
L 161.105455 197.741347 
L 161.42281 197.323483 
L 162.057521 197.04307 
L 162.374876 196.694988 
L 163.009587 196.58439 
L 165.865785 195.80574 
L 166.817851 195.678722 
L 167.452562 195.413537 
L 168.404628 195.148362 
L 168.721983 194.951062 
L 169.039339 194.889238 
L 169.356694 194.62407 
L 169.991405 194.345087 
L 170.943471 194.034667 
L 171.260826 193.653645 
L 172.212893 193.484185 
L 172.530248 193.261655 
L 174.117025 192.893247 
L 174.43438 192.549327 
L 175.386446 192.192254 
L 175.703802 192.156721 
L 176.338512 191.917796 
L 177.290579 191.559954 
L 177.607934 191.269243 
L 179.194711 191.00942 
L 179.512066 190.86764 
L 179.829421 190.851033 
L 180.146777 190.671345 
L 180.464132 190.183959 
L 180.781488 189.90511 
L 181.098843 189.870921 
L 181.416198 188.824984 
L 181.733554 188.600569 
L 182.050909 188.518476 
L 183.002975 187.762355 
L 183.320331 186.534313 
L 183.955041 186.3762 
L 184.272397 186.258768 
L 185.859174 185.144814 
L 186.176529 184.937026 
L 186.81124 184.805933 
L 187.44595 183.747834 
L 187.763306 183.664649 
L 188.398017 183.248461 
L 188.715372 183.227175 
L 189.032727 182.690851 
L 189.350083 182.589444 
L 189.984793 181.975894 
L 190.302149 181.664711 
L 190.619504 181.591977 
L 190.93686 181.314508 
L 191.254215 181.263521 
L 191.888926 180.975111 
L 193.158347 180.737432 
L 196.966612 180.086776 
L 199.188099 179.726753 
L 203.313719 179.213251 
L 206.487273 178.919438 
L 207.439339 178.821933 
L 212.517025 178.221134 
L 226.480661 176.886563 
L 229.97157 176.656122 
L 233.462479 176.403655 
L 240.126942 176.011082 
L 255.042645 174.978005 
L 263.928595 173.940454 
L 278.526942 171.971139 
L 280.113719 171.524395 
L 281.065785 171.441481 
L 281.38314 171.287278 
L 281.700496 170.942509 
L 282.335207 170.774948 
L 282.652562 170.270418 
L 282.969917 170.107753 
L 283.287273 169.47855 
L 283.921983 169.365249 
L 284.556694 168.929917 
L 284.87405 168.777933 
L 285.191405 167.777502 
L 285.50876 167.166483 
L 286.460826 166.5776 
L 288.682314 166.024473 
L 289.317025 165.580159 
L 289.63438 164.461425 
L 290.269091 164.312538 
L 290.586446 163.865234 
L 290.903802 163.7106 
L 291.221157 163.091535 
L 292.490579 162.570358 
L 293.125289 162.204021 
L 293.442645 162.039391 
L 293.76 161.564998 
L 294.394711 161.401504 
L 296.616198 160.776042 
L 296.933554 160.350212 
L 298.837686 159.98404 
L 300.424463 159.142979 
L 300.741818 158.859739 
L 302.01124 158.492975 
L 302.328595 157.832181 
L 304.550083 157.384608 
L 305.184793 157.211761 
L 305.819504 157.061811 
L 306.77157 156.880057 
L 307.088926 156.610749 
L 309.627769 156.165564 
L 310.262479 156.080729 
L 311.214545 155.493335 
L 314.705455 154.741129 
L 315.340165 154.539585 
L 316.292231 154.353414 
L 316.926942 154.036016 
L 317.244298 153.801672 
L 320.735207 153.20514 
L 321.369917 153.169555 
L 322.004628 152.977568 
L 324.860826 152.387045 
L 325.495537 152.350924 
L 326.130248 152.041776 
L 327.399669 151.910376 
L 327.717025 151.717865 
L 328.986446 151.594121 
L 329.938512 151.25805 
L 330.255868 151.246817 
L 330.573223 151.020469 
L 331.207934 150.912897 
L 333.429421 150.337523 
L 334.381488 149.926808 
L 334.698843 149.859892 
L 335.016198 149.65982 
L 336.602975 149.379163 
L 336.920331 148.99799 
L 337.237686 148.837505 
L 337.872397 148.793855 
L 338.189752 148.596721 
L 338.507107 148.246213 
L 339.776529 147.682366 
L 341.363306 147.179756 
L 342.315372 146.618283 
L 345.17157 145.735817 
L 345.488926 145.720055 
L 345.806281 145.488523 
L 346.123636 145.412743 
L 346.758347 145.040522 
L 347.393058 144.723162 
L 347.710413 144.632981 
L 348.345124 144.223378 
L 349.614545 143.991681 
L 350.249256 143.674183 
L 350.566612 143.645883 
L 351.201322 143.406891 
L 353.42281 143.100253 
L 357.54843 142.119565 
L 357.865785 141.846824 
L 358.18314 141.806427 
L 358.500496 141.413978 
L 359.135207 141.313069 
L 359.769917 140.819057 
L 360.087273 140.685821 
L 360.404628 140.131641 
L 361.039339 140.001656 
L 362.30876 139.592119 
L 363.260826 139.14237 
L 363.578182 139.118838 
L 363.895537 138.934547 
L 364.530248 137.797283 
L 365.164959 137.354821 
L 365.482314 136.857675 
L 365.799669 135.810307 
L 366.117025 133.360215 
L 366.43438 133.185147 
L 366.751736 132.76008 
L 367.069091 132.102916 
L 367.386446 131.708128 
L 368.021157 130.634827 
L 368.338512 130.492411 
L 368.655868 129.952449 
L 369.925289 129.598864 
L 370.242645 129.236076 
L 370.877355 128.969191 
L 371.194711 128.668387 
L 373.416198 128.024536 
L 373.733554 127.549052 
L 374.368264 127.263331 
L 375.320331 127.128916 
L 375.637686 126.814128 
L 375.955041 126.785681 
L 376.589752 126.055396 
L 377.541818 125.860765 
L 377.859174 125.642955 
L 378.176529 124.885485 
L 379.44595 124.062938 
L 380.080661 123.329804 
L 380.398017 123.260745 
L 380.715372 122.648586 
L 381.032727 122.542743 
L 381.350083 121.90603 
L 381.667438 121.788557 
L 382.619504 120.257048 
L 382.93686 120.238262 
L 383.254215 119.985468 
L 383.888926 119.081929 
L 384.206281 118.708292 
L 384.523636 118.703901 
L 385.158347 117.869935 
L 385.475702 116.633782 
L 385.793058 116.441927 
L 386.110413 115.396319 
L 386.427769 115.162611 
L 387.062479 114.98069 
L 387.379835 114.842171 
L 387.69719 114.503752 
L 388.331901 114.1455 
L 389.283967 112.854672 
L 390.236033 111.452072 
L 391.188099 110.683101 
L 391.505455 109.836572 
L 391.82281 106.259255 
L 392.140165 105.893233 
L 392.457521 104.761042 
L 392.774876 103.133509 
L 393.409587 101.89749 
L 393.726942 101.567344 
L 394.044298 99.132316 
L 394.679008 98.874553 
L 395.313719 97.790466 
L 395.631074 97.521585 
L 395.94843 97.00449 
L 396.265785 89.965459 
L 396.58314 86.280741 
L 396.900496 85.157908 
L 397.217851 84.699911 
L 397.535207 82.148204 
L 397.852562 72.233907 
L 398.169917 70.878004 
L 398.487273 57.359662 
L 398.487273 57.359662 
" clip-path="url(#p962c4cb6b2)" style="fill: none; stroke: #1f77b4; stroke-width: 1.5; stroke-linecap: square"/>
   </g>
   <g id="line2d_13">
    <path d="M 73.832727 292.406091 
L 74.150083 278.471174 
L 74.467438 278.471174 
L 74.784793 266.559658 
L 75.102149 264.085467 
L 75.73686 264.085467 
L 76.054215 259.628658 
L 76.37157 252.104947 
L 76.688926 251.643345 
L 77.006281 251.643345 
L 77.323636 250.479181 
L 78.910413 250.479181 
L 79.227769 246.234613 
L 79.545124 246.234613 
L 79.862479 244.698094 
L 80.179835 243.74881 
L 80.49719 243.74881 
L 80.814545 239.055237 
L 81.131901 236.845935 
L 82.083967 236.807947 
L 82.401322 235.500384 
L 86.844298 235.426145 
L 87.161653 234.710191 
L 87.479008 231.3091 
L 87.796364 230.557244 
L 88.113719 229.379823 
L 89.700496 229.379823 
L 90.017851 227.875428 
L 90.652562 227.875428 
L 90.969917 226.127849 
L 91.287273 226.127849 
L 91.604628 225.217497 
L 91.921983 222.875932 
L 99.221157 222.875932 
L 99.538512 221.480673 
L 99.855868 221.480673 
L 100.173223 221.150634 
L 101.76 221.150634 
L 102.077355 219.704409 
L 103.664132 219.704409 
L 103.981488 219.378194 
L 104.298843 218.814291 
L 104.933554 218.814291 
L 105.250909 216.83099 
L 106.202975 216.731036 
L 106.520331 212.255049 
L 107.155041 211.81279 
L 107.472397 211.81279 
L 107.789752 210.7821 
L 109.376529 210.7821 
L 109.693884 208.520074 
L 110.01124 208.520074 
L 110.328595 206.021245 
L 129.369917 206.021141 
L 129.687273 204.601142 
L 130.321983 203.26562 
L 131.27405 203.180472 
L 131.591405 202.018848 
L 131.90876 202.018848 
L 132.226116 201.753456 
L 132.860826 201.753456 
L 133.178182 199.51725 
L 133.495537 199.51725 
L 133.812893 199.04899 
L 135.399669 199.04899 
L 135.717025 197.141997 
L 136.03438 196.884849 
L 136.351736 196.454285 
L 136.986446 196.345727 
L 163.009587 196.345727 
L 163.326942 194.366513 
L 167.135207 194.366513 
L 167.452562 194.004802 
L 167.769917 194.004802 
L 168.087273 191.555267 
L 168.404628 191.555267 
L 168.721983 190.901441 
L 169.356694 190.901441 
L 169.67405 190.479516 
L 169.991405 189.468932 
L 171.578182 189.468932 
L 172.212893 188.756398 
L 172.530248 188.756398 
L 172.847603 188.454109 
L 180.146777 188.454109 
L 180.464132 187.933791 
L 180.781488 187.933791 
L 181.098843 187.423418 
L 182.68562 187.423418 
L 183.320331 182.66246 
L 185.541818 182.620109 
L 185.859174 182.343497 
L 186.493884 182.343497 
L 186.81124 181.925682 
L 187.128595 180.878664 
L 187.44595 180.878664 
L 187.763306 180.169531 
L 188.080661 180.169531 
L 188.398017 177.209085 
L 188.715372 172.987046 
L 283.604628 172.987046 
L 284.239339 165.80456 
L 284.556694 165.80456 
L 284.87405 165.095427 
L 285.191405 165.095427 
L 285.50876 164.048409 
L 285.826116 163.630594 
L 286.460826 163.630594 
L 286.778182 163.353982 
L 288.999669 163.311632 
L 289.63438 158.550673 
L 291.221157 158.550673 
L 291.538512 158.040301 
L 291.855868 158.040301 
L 292.173223 157.519983 
L 299.472397 157.519983 
L 299.789752 157.217693 
L 300.107107 157.217693 
L 300.741818 156.505159 
L 302.328595 156.505159 
L 302.64595 155.494575 
L 302.963306 155.07265 
L 303.598017 155.07265 
L 303.915372 154.418824 
L 304.232727 154.418824 
L 304.550083 151.96929 
L 304.867438 151.96929 
L 305.184793 151.607578 
L 308.993058 151.607578 
L 309.310413 149.628364 
L 335.968264 149.519806 
L 336.602975 148.832095 
L 336.920331 146.925101 
L 338.507107 146.925101 
L 338.824463 146.456841 
L 339.141818 146.456841 
L 339.459174 144.220636 
L 340.093884 144.220636 
L 340.41124 143.955243 
L 340.728595 143.955243 
L 341.04595 142.793619 
L 341.680661 142.708471 
L 341.998017 142.708471 
L 342.315372 142.191561 
L 342.632727 141.372949 
L 342.950083 139.95295 
L 361.991405 139.952847 
L 362.30876 137.454018 
L 362.626116 137.454018 
L 362.943471 135.191992 
L 364.530248 135.191992 
L 364.847603 134.161301 
L 365.164959 134.161301 
L 365.799669 133.719042 
L 366.117025 129.243056 
L 367.069091 129.143102 
L 367.386446 127.1598 
L 368.021157 127.1598 
L 368.338512 126.595897 
L 368.655868 126.269682 
L 370.242645 126.269682 
L 370.56 124.823457 
L 372.146777 124.823457 
L 372.464132 124.493419 
L 372.781488 124.493419 
L 373.098843 123.09816 
L 380.398017 123.09816 
L 380.715372 120.756594 
L 381.032727 119.846243 
L 381.350083 119.846243 
L 381.667438 118.098663 
L 382.302149 118.098663 
L 382.619504 116.594268 
L 384.206281 116.594268 
L 384.840992 114.664991 
L 385.158347 111.2639 
L 385.475702 110.547946 
L 389.918678 110.473707 
L 390.236033 109.166144 
L 391.188099 109.128156 
L 391.505455 106.918854 
L 391.82281 102.225282 
L 392.140165 102.225282 
L 392.457521 101.275997 
L 392.774876 99.739478 
L 393.092231 99.739478 
L 393.409587 95.49491 
L 394.996364 95.49491 
L 395.313719 94.330746 
L 395.631074 94.330746 
L 395.94843 93.869145 
L 396.265785 86.345434 
L 396.58314 81.888624 
L 397.217851 81.888624 
L 397.535207 79.414434 
L 397.852562 67.502918 
L 398.169917 67.502918 
L 398.487273 53.568 
L 398.487273 53.568 
" clip-path="url(#p962c4cb6b2)" style="fill: none; stroke: #ff7f0e; stroke-width: 1.5; stroke-linecap: square"/>
   </g>
   <g id="patch_3">
    <path d="M 57.6 307.584 
L 57.6 41.472 
" style="fill: none; stroke: #000000; stroke-width: 0.8; stroke-linejoin: miter; stroke-linecap: square"/>
   </g>
   <g id="patch_4">
    <path d="M 414.72 307.584 
L 414.72 41.472 
" style="fill: none; stroke: #000000; stroke-width: 0.8; stroke-linejoin: miter; stroke-linecap: square"/>
   </g>
   <g id="patch_5">
    <path d="M 57.6 307.584 
L 414.72 307.584 
" style="fill: none; stroke: #000000; stroke-width: 0.8; stroke-linejoin: miter; stroke-linecap: square"/>
   </g>
   <g id="patch_6">
    <path d="M 57.6 41.472 
L 414.72 41.472 
" style="fill: none; stroke: #000000; stroke-width: 0.8; stroke-linejoin: miter; stroke-linecap: square"/>
   </g>
   <g id="legend_1">
    <g id="patch_7">
     <path d="M 64.6 78.82825 
L 129.342187 78.82825 
Q 131.342187 78.82825 131.342187 76.82825 
L 131.342187 48.472 
Q 131.342187 46.472 129.342187 46.472 
L 64.6 46.472 
Q 62.6 46.472 62.6 48.472 
L 62.6 76.82825 
Q 62.6 78.82825 64.6 78.82825 
z
" style="fill: #ffffff; opacity: 0.8; stroke: #cccccc; stroke-linejoin: miter"/>
    </g>
    <g id="line2d_14">
     <path d="M 66.6 54.570437 
L 76.6 54.570437 
L 86.6 54.570437 
" style="fill: none; stroke: #1f77b4; stroke-width: 1.5; stroke-linecap: square"/>
    </g>
    <g id="text_14">
     <!-- qc -->
     <g transform="translate(94.6 58.070437) scale(0.1 -0.1)">
      <defs>
       <path id="DejaVuSans-71" d="M 947 1747 
Q 947 1113 1208 752 
Q 1469 391 1925 391 
Q 2381 391 2643 752 
Q 2906 1113 2906 1747 
Q 2906 2381 2643 2742 
Q 2381 3103 1925 3103 
Q 1469 3103 1208 2742 
Q 947 2381 947 1747 
z
M 2906 525 
Q 2725 213 2448 61 
Q 2172 -91 1784 -91 
Q 1150 -91 751 415 
Q 353 922 353 1747 
Q 353 2572 751 3078 
Q 1150 3584 1784 3584 
Q 2172 3584 2448 3432 
Q 2725 3281 2906 2969 
L 2906 3500 
L 3481 3500 
L 3481 -1331 
L 2906 -1331 
L 2906 525 
z
" transform="scale(0.015625)"/>
       <path id="DejaVuSans-63" d="M 3122 3366 
L 3122 2828 
Q 2878 2963 2633 3030 
Q 2388 3097 2138 3097 
Q 1578 3097 1268 2742 
Q 959 2388 959 1747 
Q 959 1106 1268 751 
Q 1578 397 2138 397 
Q 2388 397 2633 464 
Q 2878 531 3122 666 
L 3122 134 
Q 2881 22 2623 -34 
Q 2366 -91 2075 -91 
Q 1284 -91 818 406 
Q 353 903 353 1747 
Q 353 2603 823 3093 
Q 1294 3584 2113 3584 
Q 2378 3584 2631 3529 
Q 2884 3475 3122 3366 
z
" transform="scale(0.015625)"/>
      </defs>
      <use xlink:href="#DejaVuSans-71"/>
      <use xlink:href="#DejaVuSans-63" x="63.476562"/>
     </g>
    </g>
    <g id="line2d_15">
     <path d="M 66.6 69.248562 
L 76.6 69.248562 
L 86.6 69.248562 
" style="fill: none; stroke: #ff7f0e; stroke-width: 1.5; stroke-linecap: square"/>
    </g>
    <g id="text_15">
     <!-- Trotter -->
     <g transform="translate(94.6 72.748562) scale(0.1 -0.1)">
      <defs>
       <path id="DejaVuSans-54" d="M -19 4666 
L 3928 4666 
L 3928 4134 
L 2272 4134 
L 2272 0 
L 1638 0 
L 1638 4134 
L -19 4134 
L -19 4666 
z
" transform="scale(0.015625)"/>
       <path id="DejaVuSans-72" d="M 2631 2963 
Q 2534 3019 2420 3045 
Q 2306 3072 2169 3072 
Q 1681 3072 1420 2755 
Q 1159 2438 1159 1844 
L 1159 0 
L 581 0 
L 581 3500 
L 1159 3500 
L 1159 2956 
Q 1341 3275 1631 3429 
Q 1922 3584 2338 3584 
Q 2397 3584 2469 3576 
Q 2541 3569 2628 3553 
L 2631 2963 
z
" transform="scale(0.015625)"/>
       <path id="DejaVuSans-6f" d="M 1959 3097 
Q 1497 3097 1228 2736 
Q 959 2375 959 1747 
Q 959 1119 1226 758 
Q 1494 397 1959 397 
Q 2419 397 2687 759 
Q 2956 1122 2956 1747 
Q 2956 2369 2687 2733 
Q 2419 3097 1959 3097 
z
M 1959 3584 
Q 2709 3584 3137 3096 
Q 3566 2609 3566 1747 
Q 3566 888 3137 398 
Q 2709 -91 1959 -91 
Q 1206 -91 779 398 
Q 353 888 353 1747 
Q 353 2609 779 3096 
Q 1206 3584 1959 3584 
z
" transform="scale(0.015625)"/>
       <path id="DejaVuSans-65" d="M 3597 1894 
L 3597 1613 
L 953 1613 
Q 991 1019 1311 708 
Q 1631 397 2203 397 
Q 2534 397 2845 478 
Q 3156 559 3463 722 
L 3463 178 
Q 3153 47 2828 -22 
Q 2503 -91 2169 -91 
Q 1331 -91 842 396 
Q 353 884 353 1716 
Q 353 2575 817 3079 
Q 1281 3584 2069 3584 
Q 2775 3584 3186 3129 
Q 3597 2675 3597 1894 
z
M 3022 2063 
Q 3016 2534 2758 2815 
Q 2500 3097 2075 3097 
Q 1594 3097 1305 2825 
Q 1016 2553 972 2059 
L 3022 2063 
z
" transform="scale(0.015625)"/>
      </defs>
      <use xlink:href="#DejaVuSans-54"/>
      <use xlink:href="#DejaVuSans-72" x="46.333984"/>
      <use xlink:href="#DejaVuSans-6f" x="85.197266"/>
      <use xlink:href="#DejaVuSans-74" x="146.378906"/>
      <use xlink:href="#DejaVuSans-74" x="185.587891"/>
      <use xlink:href="#DejaVuSans-65" x="224.796875"/>
      <use xlink:href="#DejaVuSans-72" x="286.320312"/>
     </g>
    </g>
   </g>
  </g>
 </g>
 <defs>
  <clipPath id="p962c4cb6b2">
   <rect x="57.6" y="41.472" width="357.12" height="266.112"/>
  </clipPath>
 </defs>
</svg>
