<?xml version="1.0" encoding="utf-8" standalone="no"?>
<!DOCTYPE svg PUBLIC "-//W3C//DTD SVG 1.1//EN"
  "http://www.w3.org/Graphics/SVG/1.1/DTD/svg11.dtd">
<svg xmlns:xlink="http://www.w3.org/1999/xlink" width="460.8pt" height="345.6pt" viewBox="0 0 460.8 345.6" xmlns="http://www.w3.org/2000/svg" version="1.1">
 <metadata>
  <rdf:RDF xmlns:dc="http://purl.org/dc/elements/1.1/" xmlns:cc="http://creativecommons.org/ns#" xmlns:rdf="http://www.w3.org/1999/02/22-rdf-syntax-ns#">
   <cc:Work>
    <dc:type rdf:resource="http://purl.org/dc/dcmitype/StillImage"/>
    <dc:date>2024-07-12T15:20:46.009359</dc:date>
    <dc:format>image/svg+xml</dc:format>
    <dc:creator>
     <cc:Agent>
      <dc:title>Matplotlib v3.7.1, https://matplotlib.org/</dc:title>
     </cc:Agent>
    </dc:creator>
   </cc:Work>
  </rdf:RDF>
 </metadata>
 <defs>
  <style type="text/css">*{stroke-linejoin: round; stroke-linecap: butt}</style>
 </defs>
 <g id="figure_1">
  <g id="patch_1">
   <path d="M 0 345.6 
L 460.8 345.6 
L 460.8 0 
L 0 0 
z
" style="fill: #ffffff"/>
  </g>
  <g id="axes_1">
   <g id="patch_2">
    <path d="M 57.6 307.584 
L 414.72 307.584 
L 414.72 41.472 
L 57.6 41.472 
z
" style="fill: #ffffff"/>
   </g>
   <g id="matplotlib.axis_1">
    <g id="xtick_1">
     <g id="line2d_1">
      <defs>
       <path id="mbc2d13bcb4" d="M 0 0 
L 0 3.5 
" style="stroke: #000000; stroke-width: 0.8"/>
      </defs>
      <g>
       <use xlink:href="#mbc2d13bcb4" x="73.832727" y="307.584" style="stroke: #000000; stroke-width: 0.8"/>
      </g>
     </g>
     <g id="text_1">
      <!-- 0 -->
      <g transform="translate(70.651477 322.182437) scale(0.1 -0.1)">
       <defs>
        <path id="DejaVuSans-30" d="M 2034 4250 
Q 1547 4250 1301 3770 
Q 1056 3291 1056 2328 
Q 1056 1369 1301 889 
Q 1547 409 2034 409 
Q 2525 409 2770 889 
Q 3016 1369 3016 2328 
Q 3016 3291 2770 3770 
Q 2525 4250 2034 4250 
z
M 2034 4750 
Q 2819 4750 3233 4129 
Q 3647 3509 3647 2328 
Q 3647 1150 3233 529 
Q 2819 -91 2034 -91 
Q 1250 -91 836 529 
Q 422 1150 422 2328 
Q 422 3509 836 4129 
Q 1250 4750 2034 4750 
z
" transform="scale(0.015625)"/>
       </defs>
       <use xlink:href="#DejaVuSans-30"/>
      </g>
     </g>
    </g>
    <g id="xtick_2">
     <g id="line2d_2">
      <g>
       <use xlink:href="#mbc2d13bcb4" x="137.303802" y="307.584" style="stroke: #000000; stroke-width: 0.8"/>
      </g>
     </g>
     <g id="text_2">
      <!-- 200 -->
      <g transform="translate(127.760052 322.182437) scale(0.1 -0.1)">
       <defs>
        <path id="DejaVuSans-32" d="M 1228 531 
L 3431 531 
L 3431 0 
L 469 0 
L 469 531 
Q 828 903 1448 1529 
Q 2069 2156 2228 2338 
Q 2531 2678 2651 2914 
Q 2772 3150 2772 3378 
Q 2772 3750 2511 3984 
Q 2250 4219 1831 4219 
Q 1534 4219 1204 4116 
Q 875 4013 500 3803 
L 500 4441 
Q 881 4594 1212 4672 
Q 1544 4750 1819 4750 
Q 2544 4750 2975 4387 
Q 3406 4025 3406 3419 
Q 3406 3131 3298 2873 
Q 3191 2616 2906 2266 
Q 2828 2175 2409 1742 
Q 1991 1309 1228 531 
z
" transform="scale(0.015625)"/>
       </defs>
       <use xlink:href="#DejaVuSans-32"/>
       <use xlink:href="#DejaVuSans-30" x="63.623047"/>
       <use xlink:href="#DejaVuSans-30" x="127.246094"/>
      </g>
     </g>
    </g>
    <g id="xtick_3">
     <g id="line2d_3">
      <g>
       <use xlink:href="#mbc2d13bcb4" x="200.774876" y="307.584" style="stroke: #000000; stroke-width: 0.8"/>
      </g>
     </g>
     <g id="text_3">
      <!-- 400 -->
      <g transform="translate(191.231126 322.182437) scale(0.1 -0.1)">
       <defs>
        <path id="DejaVuSans-34" d="M 2419 4116 
L 825 1625 
L 2419 1625 
L 2419 4116 
z
M 2253 4666 
L 3047 4666 
L 3047 1625 
L 3713 1625 
L 3713 1100 
L 3047 1100 
L 3047 0 
L 2419 0 
L 2419 1100 
L 313 1100 
L 313 1709 
L 2253 4666 
z
" transform="scale(0.015625)"/>
       </defs>
       <use xlink:href="#DejaVuSans-34"/>
       <use xlink:href="#DejaVuSans-30" x="63.623047"/>
       <use xlink:href="#DejaVuSans-30" x="127.246094"/>
      </g>
     </g>
    </g>
    <g id="xtick_4">
     <g id="line2d_4">
      <g>
       <use xlink:href="#mbc2d13bcb4" x="264.24595" y="307.584" style="stroke: #000000; stroke-width: 0.8"/>
      </g>
     </g>
     <g id="text_4">
      <!-- 600 -->
      <g transform="translate(254.7022 322.182437) scale(0.1 -0.1)">
       <defs>
        <path id="DejaVuSans-36" d="M 2113 2584 
Q 1688 2584 1439 2293 
Q 1191 2003 1191 1497 
Q 1191 994 1439 701 
Q 1688 409 2113 409 
Q 2538 409 2786 701 
Q 3034 994 3034 1497 
Q 3034 2003 2786 2293 
Q 2538 2584 2113 2584 
z
M 3366 4563 
L 3366 3988 
Q 3128 4100 2886 4159 
Q 2644 4219 2406 4219 
Q 1781 4219 1451 3797 
Q 1122 3375 1075 2522 
Q 1259 2794 1537 2939 
Q 1816 3084 2150 3084 
Q 2853 3084 3261 2657 
Q 3669 2231 3669 1497 
Q 3669 778 3244 343 
Q 2819 -91 2113 -91 
Q 1303 -91 875 529 
Q 447 1150 447 2328 
Q 447 3434 972 4092 
Q 1497 4750 2381 4750 
Q 2619 4750 2861 4703 
Q 3103 4656 3366 4563 
z
" transform="scale(0.015625)"/>
       </defs>
       <use xlink:href="#DejaVuSans-36"/>
       <use xlink:href="#DejaVuSans-30" x="63.623047"/>
       <use xlink:href="#DejaVuSans-30" x="127.246094"/>
      </g>
     </g>
    </g>
    <g id="xtick_5">
     <g id="line2d_5">
      <g>
       <use xlink:href="#mbc2d13bcb4" x="327.717025" y="307.584" style="stroke: #000000; stroke-width: 0.8"/>
      </g>
     </g>
     <g id="text_5">
      <!-- 800 -->
      <g transform="translate(318.173275 322.182437) scale(0.1 -0.1)">
       <defs>
        <path id="DejaVuSans-38" d="M 2034 2216 
Q 1584 2216 1326 1975 
Q 1069 1734 1069 1313 
Q 1069 891 1326 650 
Q 1584 409 2034 409 
Q 2484 409 2743 651 
Q 3003 894 3003 1313 
Q 3003 1734 2745 1975 
Q 2488 2216 2034 2216 
z
M 1403 2484 
Q 997 2584 770 2862 
Q 544 3141 544 3541 
Q 544 4100 942 4425 
Q 1341 4750 2034 4750 
Q 2731 4750 3128 4425 
Q 3525 4100 3525 3541 
Q 3525 3141 3298 2862 
Q 3072 2584 2669 2484 
Q 3125 2378 3379 2068 
Q 3634 1759 3634 1313 
Q 3634 634 3220 271 
Q 2806 -91 2034 -91 
Q 1263 -91 848 271 
Q 434 634 434 1313 
Q 434 1759 690 2068 
Q 947 2378 1403 2484 
z
M 1172 3481 
Q 1172 3119 1398 2916 
Q 1625 2713 2034 2713 
Q 2441 2713 2670 2916 
Q 2900 3119 2900 3481 
Q 2900 3844 2670 4047 
Q 2441 4250 2034 4250 
Q 1625 4250 1398 4047 
Q 1172 3844 1172 3481 
z
" transform="scale(0.015625)"/>
       </defs>
       <use xlink:href="#DejaVuSans-38"/>
       <use xlink:href="#DejaVuSans-30" x="63.623047"/>
       <use xlink:href="#DejaVuSans-30" x="127.246094"/>
      </g>
     </g>
    </g>
    <g id="xtick_6">
     <g id="line2d_6">
      <g>
       <use xlink:href="#mbc2d13bcb4" x="391.188099" y="307.584" style="stroke: #000000; stroke-width: 0.8"/>
      </g>
     </g>
     <g id="text_6">
      <!-- 1000 -->
      <g transform="translate(378.463099 322.182437) scale(0.1 -0.1)">
       <defs>
        <path id="DejaVuSans-31" d="M 794 531 
L 1825 531 
L 1825 4091 
L 703 3866 
L 703 4441 
L 1819 4666 
L 2450 4666 
L 2450 531 
L 3481 531 
L 3481 0 
L 794 0 
L 794 531 
z
" transform="scale(0.015625)"/>
       </defs>
       <use xlink:href="#DejaVuSans-31"/>
       <use xlink:href="#DejaVuSans-30" x="63.623047"/>
       <use xlink:href="#DejaVuSans-30" x="127.246094"/>
       <use xlink:href="#DejaVuSans-30" x="190.869141"/>
      </g>
     </g>
    </g>
    <g id="text_7">
     <!-- n -->
     <g transform="translate(232.99125 335.860562) scale(0.1 -0.1)">
      <defs>
       <path id="DejaVuSans-6e" d="M 3513 2113 
L 3513 0 
L 2938 0 
L 2938 2094 
Q 2938 2591 2744 2837 
Q 2550 3084 2163 3084 
Q 1697 3084 1428 2787 
Q 1159 2491 1159 1978 
L 1159 0 
L 581 0 
L 581 3500 
L 1159 3500 
L 1159 2956 
Q 1366 3272 1645 3428 
Q 1925 3584 2291 3584 
Q 2894 3584 3203 3211 
Q 3513 2838 3513 2113 
z
" transform="scale(0.015625)"/>
      </defs>
      <use xlink:href="#DejaVuSans-6e"/>
     </g>
    </g>
   </g>
   <g id="matplotlib.axis_2">
    <g id="ytick_1">
     <g id="line2d_7">
      <defs>
       <path id="mff5e160bfa" d="M 0 0 
L -3.5 0 
" style="stroke: #000000; stroke-width: 0.8"/>
      </defs>
      <g>
       <use xlink:href="#mff5e160bfa" x="57.6" y="294.833575" style="stroke: #000000; stroke-width: 0.8"/>
      </g>
     </g>
     <g id="text_8">
      <!-- −3 -->
      <g transform="translate(35.857813 298.632794) scale(0.1 -0.1)">
       <defs>
        <path id="DejaVuSans-2212" d="M 678 2272 
L 4684 2272 
L 4684 1741 
L 678 1741 
L 678 2272 
z
" transform="scale(0.015625)"/>
        <path id="DejaVuSans-33" d="M 2597 2516 
Q 3050 2419 3304 2112 
Q 3559 1806 3559 1356 
Q 3559 666 3084 287 
Q 2609 -91 1734 -91 
Q 1441 -91 1130 -33 
Q 819 25 488 141 
L 488 750 
Q 750 597 1062 519 
Q 1375 441 1716 441 
Q 2309 441 2620 675 
Q 2931 909 2931 1356 
Q 2931 1769 2642 2001 
Q 2353 2234 1838 2234 
L 1294 2234 
L 1294 2753 
L 1863 2753 
Q 2328 2753 2575 2939 
Q 2822 3125 2822 3475 
Q 2822 3834 2567 4026 
Q 2313 4219 1838 4219 
Q 1578 4219 1281 4162 
Q 984 4106 628 3988 
L 628 4550 
Q 988 4650 1302 4700 
Q 1616 4750 1894 4750 
Q 2613 4750 3031 4423 
Q 3450 4097 3450 3541 
Q 3450 3153 3228 2886 
Q 3006 2619 2597 2516 
z
" transform="scale(0.015625)"/>
       </defs>
       <use xlink:href="#DejaVuSans-2212"/>
       <use xlink:href="#DejaVuSans-33" x="83.789062"/>
      </g>
     </g>
    </g>
    <g id="ytick_2">
     <g id="line2d_8">
      <g>
       <use xlink:href="#mff5e160bfa" x="57.6" y="254.731717" style="stroke: #000000; stroke-width: 0.8"/>
      </g>
     </g>
     <g id="text_9">
      <!-- −2 -->
      <g transform="translate(35.857813 258.530936) scale(0.1 -0.1)">
       <use xlink:href="#DejaVuSans-2212"/>
       <use xlink:href="#DejaVuSans-32" x="83.789062"/>
      </g>
     </g>
    </g>
    <g id="ytick_3">
     <g id="line2d_9">
      <g>
       <use xlink:href="#mff5e160bfa" x="57.6" y="214.629858" style="stroke: #000000; stroke-width: 0.8"/>
      </g>
     </g>
     <g id="text_10">
      <!-- −1 -->
      <g transform="translate(35.857813 218.429077) scale(0.1 -0.1)">
       <use xlink:href="#DejaVuSans-2212"/>
       <use xlink:href="#DejaVuSans-31" x="83.789062"/>
      </g>
     </g>
    </g>
    <g id="ytick_4">
     <g id="line2d_10">
      <g>
       <use xlink:href="#mff5e160bfa" x="57.6" y="174.528" style="stroke: #000000; stroke-width: 0.8"/>
      </g>
     </g>
     <g id="text_11">
      <!-- 0 -->
      <g transform="translate(44.2375 178.327219) scale(0.1 -0.1)">
       <use xlink:href="#DejaVuSans-30"/>
      </g>
     </g>
    </g>
    <g id="ytick_5">
     <g id="line2d_11">
      <g>
       <use xlink:href="#mff5e160bfa" x="57.6" y="134.426142" style="stroke: #000000; stroke-width: 0.8"/>
      </g>
     </g>
     <g id="text_12">
      <!-- 1 -->
      <g transform="translate(44.2375 138.22536) scale(0.1 -0.1)">
       <use xlink:href="#DejaVuSans-31"/>
      </g>
     </g>
    </g>
    <g id="ytick_6">
     <g id="line2d_12">
      <g>
       <use xlink:href="#mff5e160bfa" x="57.6" y="94.324283" style="stroke: #000000; stroke-width: 0.8"/>
      </g>
     </g>
     <g id="text_13">
      <!-- 2 -->
      <g transform="translate(44.2375 98.123502) scale(0.1 -0.1)">
       <use xlink:href="#DejaVuSans-32"/>
      </g>
     </g>
    </g>
    <g id="ytick_7">
     <g id="line2d_13">
      <g>
       <use xlink:href="#mff5e160bfa" x="57.6" y="54.222425" style="stroke: #000000; stroke-width: 0.8"/>
      </g>
     </g>
     <g id="text_14">
      <!-- 3 -->
      <g transform="translate(44.2375 58.021643) scale(0.1 -0.1)">
       <use xlink:href="#DejaVuSans-33"/>
      </g>
     </g>
    </g>
    <g id="text_15">
     <!-- E*t -->
     <g transform="translate(29.778125 182.147531) rotate(-90) scale(0.1 -0.1)">
      <defs>
       <path id="DejaVuSans-45" d="M 628 4666 
L 3578 4666 
L 3578 4134 
L 1259 4134 
L 1259 2753 
L 3481 2753 
L 3481 2222 
L 1259 2222 
L 1259 531 
L 3634 531 
L 3634 0 
L 628 0 
L 628 4666 
z
" transform="scale(0.015625)"/>
       <path id="DejaVuSans-2a" d="M 3009 3897 
L 1888 3291 
L 3009 2681 
L 2828 2375 
L 1778 3009 
L 1778 1831 
L 1422 1831 
L 1422 3009 
L 372 2375 
L 191 2681 
L 1313 3291 
L 191 3897 
L 372 4206 
L 1422 3572 
L 1422 4750 
L 1778 4750 
L 1778 3572 
L 2828 4206 
L 3009 3897 
z
" transform="scale(0.015625)"/>
       <path id="DejaVuSans-74" d="M 1172 4494 
L 1172 3500 
L 2356 3500 
L 2356 3053 
L 1172 3053 
L 1172 1153 
Q 1172 725 1289 603 
Q 1406 481 1766 481 
L 2356 481 
L 2356 0 
L 1766 0 
Q 1100 0 847 248 
Q 594 497 594 1153 
L 594 3053 
L 172 3053 
L 172 3500 
L 594 3500 
L 594 4494 
L 1172 4494 
z
" transform="scale(0.015625)"/>
      </defs>
      <use xlink:href="#DejaVuSans-45"/>
      <use xlink:href="#DejaVuSans-2a" x="63.183594"/>
      <use xlink:href="#DejaVuSans-74" x="113.183594"/>
     </g>
    </g>
   </g>
   <g id="line2d_14">
    <path d="M 73.832727 291.17598 
L 74.150083 277.590338 
L 74.467438 277.136823 
L 74.784793 265.735825 
L 75.102149 263.382502 
L 75.419504 263.162143 
L 75.73686 262.778675 
L 76.054215 258.935279 
L 76.37157 251.834624 
L 76.688926 251.394489 
L 77.006281 251.22662 
L 77.958347 249.352666 
L 78.593058 248.581201 
L 78.910413 246.971457 
L 79.227769 246.374673 
L 79.545124 245.314368 
L 79.862479 243.446961 
L 80.49719 242.055273 
L 80.814545 239.556568 
L 81.131901 237.994004 
L 81.449256 237.802847 
L 81.766612 237.205534 
L 82.083967 237.138561 
L 82.718678 236.234474 
L 83.036033 236.155983 
L 83.353388 235.926094 
L 83.670744 235.552718 
L 83.988099 235.362927 
L 84.305455 234.762585 
L 84.940165 234.459328 
L 85.892231 233.522785 
L 86.209587 232.737718 
L 86.526942 232.628022 
L 86.844298 232.377603 
L 87.479008 229.78373 
L 88.113719 229.38489 
L 88.74843 228.29975 
L 89.38314 228.061156 
L 90.017851 227.539666 
L 90.969917 227.142103 
L 91.287273 226.75018 
L 91.604628 226.544201 
L 91.921983 225.534833 
L 92.239339 225.131718 
L 92.556694 225.02135 
L 93.191405 224.158776 
L 93.50876 223.988376 
L 94.143471 223.379459 
L 94.778182 223.177206 
L 95.095537 222.990004 
L 96.047603 222.008644 
L 97.63438 221.018211 
L 97.951736 220.78219 
L 98.269091 220.745327 
L 98.586446 220.439227 
L 99.855868 220.144381 
L 100.490579 219.562248 
L 101.125289 219.341051 
L 101.442645 219.115035 
L 101.76 218.581101 
L 102.712066 218.305314 
L 103.029421 218.159108 
L 103.346777 217.850006 
L 103.981488 217.734203 
L 104.298843 217.374198 
L 104.616198 217.357609 
L 104.933554 215.90239 
L 105.568264 215.088771 
L 105.88562 214.907648 
L 106.202975 214.38991 
L 106.520331 213.133686 
L 106.837686 212.744566 
L 107.155041 212.546151 
L 107.472397 211.830116 
L 108.424463 211.231918 
L 108.741818 210.706765 
L 110.328595 210.024814 
L 110.64595 209.476955 
L 111.598017 209.080935 
L 111.915372 208.761407 
L 112.232727 208.647377 
L 112.550083 208.146659 
L 114.13686 207.633842 
L 115.088926 207.278363 
L 115.723636 206.913726 
L 121.753388 204.487824 
L 122.705455 204.238346 
L 123.974876 203.813468 
L 124.292231 203.754818 
L 124.609587 203.536735 
L 125.879008 203.299936 
L 126.513719 203.053597 
L 128.735207 202.145439 
L 130.004628 201.917644 
L 130.321983 201.702089 
L 131.27405 201.49438 
L 132.543471 201.153163 
L 132.860826 201.126168 
L 135.399669 199.714875 
L 136.351736 199.537322 
L 136.986446 199.227547 
L 137.938512 198.931995 
L 139.207934 198.222022 
L 140.794711 197.926714 
L 141.746777 197.46711 
L 143.968264 196.867495 
L 144.602975 196.494767 
L 145.872397 196.133228 
L 146.507107 195.983685 
L 147.141818 195.737688 
L 148.093884 195.480804 
L 149.04595 195.319254 
L 151.267438 194.865425 
L 152.219504 194.656587 
L 152.854215 194.494787 
L 153.488926 194.304568 
L 155.393058 193.999975 
L 156.027769 193.845526 
L 160.470744 192.850986 
L 161.105455 192.602988 
L 162.374876 192.332493 
L 163.644298 192.114925 
L 167.769917 190.688963 
L 168.721983 190.43215 
L 172.530248 189.047351 
L 173.799669 188.354183 
L 175.069091 188.098505 
L 175.386446 187.851435 
L 175.703802 187.756461 
L 176.338512 187.443696 
L 178.56 186.518949 
L 178.877355 186.235959 
L 179.194711 186.132338 
L 180.146777 185.397023 
L 181.416198 184.853598 
L 181.733554 184.540765 
L 182.368264 184.171317 
L 182.68562 183.89779 
L 183.637686 183.657062 
L 184.272397 182.576533 
L 184.907107 182.044898 
L 185.541818 181.859085 
L 185.859174 181.563922 
L 188.398017 180.749982 
L 188.715372 180.565806 
L 189.032727 180.199729 
L 192.206281 179.176812 
L 193.475702 178.910033 
L 195.062479 178.436972 
L 197.601322 177.831135 
L 199.188099 177.398797 
L 200.457521 177.005156 
L 201.409587 176.835194 
L 202.996364 176.463291 
L 206.487273 175.841575 
L 208.70876 175.453913 
L 211.564959 175.030113 
L 212.83438 174.854515 
L 213.786446 174.714952 
L 215.055868 174.532207 
L 217.277355 174.194837 
L 220.768264 173.740135 
L 221.720331 173.600499 
L 223.624463 173.37297 
L 226.480661 173.067885 
L 228.384793 172.886294 
L 229.97157 172.729688 
L 231.240992 172.574067 
L 235.366612 172.087647 
L 243.935207 171.124349 
L 246.47405 170.8606 
L 248.695537 170.603528 
L 251.23438 170.337704 
L 256.629421 169.761899 
L 261.389752 169.200177 
L 262.341818 169.045132 
L 264.24595 168.767484 
L 266.150083 168.514622 
L 266.784793 168.365395 
L 272.179835 167.500347 
L 275.670744 166.56427 
L 280.431074 165.137657 
L 281.065785 165.043836 
L 282.652562 164.468917 
L 283.287273 163.917536 
L 283.921983 163.770412 
L 284.239339 163.147985 
L 284.87405 163.031078 
L 285.191405 162.914986 
L 285.50876 162.352711 
L 286.460826 162.065565 
L 287.095537 161.979475 
L 287.412893 161.530528 
L 288.047603 161.393632 
L 290.586446 160.138084 
L 291.221157 159.637143 
L 292.490579 158.803929 
L 292.807934 158.44995 
L 294.712066 157.405865 
L 295.664132 157.117989 
L 299.155041 155.597305 
L 299.789752 155.388012 
L 300.741818 155.161128 
L 301.059174 155.014482 
L 301.376529 154.991708 
L 302.01124 154.673541 
L 304.867438 153.714014 
L 305.184793 153.686335 
L 307.088926 152.760925 
L 307.723636 152.51274 
L 308.358347 152.193507 
L 310.262479 151.611348 
L 310.89719 151.462755 
L 313.118678 150.748632 
L 313.436033 150.677044 
L 313.753388 150.321004 
L 314.388099 150.185468 
L 315.657521 149.662997 
L 316.292231 149.52601 
L 316.926942 149.319406 
L 317.879008 149.081116 
L 319.14843 148.749491 
L 319.78314 148.62921 
L 320.417851 148.442023 
L 321.687273 148.158172 
L 322.004628 147.979017 
L 323.591405 147.689144 
L 325.812893 147.110439 
L 331.525289 145.762896 
L 332.16 145.626391 
L 334.064132 145.111146 
L 335.650909 144.765623 
L 336.28562 144.568175 
L 337.872397 144.246045 
L 338.189752 143.88829 
L 340.093884 143.365742 
L 341.363306 142.992756 
L 342.632727 142.624205 
L 343.267438 142.225541 
L 344.53686 141.857191 
L 345.806281 141.081172 
L 352.153388 138.7569 
L 352.470744 138.426621 
L 354.057521 138.036639 
L 355.326942 137.661855 
L 355.644298 137.383262 
L 355.961653 137.34604 
L 356.596364 137.020603 
L 357.54843 136.628314 
L 359.769917 135.913713 
L 360.087273 135.712184 
L 360.404628 135.653366 
L 361.67405 134.989014 
L 362.30876 134.784787 
L 362.943471 134.316276 
L 363.260826 134.23806 
L 363.895537 133.326498 
L 364.212893 133.29881 
L 364.530248 133.035542 
L 364.847603 132.37083 
L 365.164959 132.034007 
L 365.482314 131.513508 
L 365.799669 130.159896 
L 366.43438 129.233144 
L 367.069091 128.697798 
L 367.386446 127.466604 
L 368.021157 127.103804 
L 368.338512 126.645977 
L 369.290579 126.133265 
L 370.877355 125.302199 
L 371.512066 124.908084 
L 371.829421 124.505086 
L 372.781488 123.828268 
L 373.416198 123.671524 
L 373.733554 123.21312 
L 374.368264 122.948228 
L 374.68562 122.702734 
L 375.320331 122.480249 
L 375.955041 122.228568 
L 376.907107 121.755271 
L 379.44595 119.877424 
L 379.763306 119.766871 
L 380.080661 119.420768 
L 380.398017 118.852803 
L 380.715372 118.566831 
L 381.350083 117.804195 
L 381.667438 117.544303 
L 381.984793 117.495424 
L 382.302149 117.323739 
L 382.93686 115.241851 
L 383.254215 114.537187 
L 383.888926 114.281223 
L 384.206281 113.909449 
L 385.158347 113.260988 
L 385.793058 112.675279 
L 386.110413 111.930308 
L 386.427769 111.782979 
L 386.745124 111.190935 
L 387.062479 111.105893 
L 387.379835 110.297531 
L 387.69719 109.971214 
L 388.331901 109.703469 
L 388.649256 109.346226 
L 388.966612 109.261628 
L 389.283967 108.992562 
L 389.601322 107.968846 
L 390.236033 107.582629 
L 390.553388 106.977887 
L 390.870744 106.829247 
L 391.188099 105.081663 
L 391.505455 104.595817 
L 391.82281 102.190693 
L 392.140165 101.899027 
L 392.774876 97.748381 
L 393.726942 96.542279 
L 394.361653 95.420464 
L 394.996364 94.205671 
L 395.94843 91.808667 
L 396.265785 86.024598 
L 396.58314 82.987689 
L 396.900496 82.460802 
L 397.217851 81.488955 
L 397.535207 78.287581 
L 397.852562 67.61164 
L 398.169917 67.185328 
L 398.487273 53.837903 
L 398.487273 53.837903 
" clip-path="url(#pc2341247ee)" style="fill: none; stroke: #1f77b4; stroke-width: 1.5; stroke-linecap: square"/>
   </g>
   <g id="line2d_15">
    <path d="M 73.832727 295.488 
L 74.150083 281.37327 
L 74.467438 281.37327 
L 74.784793 269.30805 
L 75.102149 266.801933 
L 75.73686 266.801933 
L 76.054215 262.287614 
L 76.37157 254.666819 
L 76.688926 254.199261 
L 77.006281 254.199261 
L 77.323636 253.020075 
L 78.910413 253.020075 
L 79.227769 248.720737 
L 79.545124 248.720737 
L 79.862479 247.16439 
L 80.179835 246.202857 
L 80.49719 246.202857 
L 80.814545 241.448719 
L 81.131901 239.210909 
L 82.083967 239.172431 
L 82.401322 237.847995 
L 86.844298 237.772798 
L 87.161653 237.047606 
L 87.479008 233.602628 
L 87.796364 232.84107 
L 88.113719 231.648456 
L 89.700496 231.648456 
L 90.017851 230.124649 
L 90.652562 230.124649 
L 90.969917 228.354519 
L 91.287273 228.354519 
L 91.604628 227.432421 
L 91.921983 225.06064 
L 99.221157 225.06064 
L 99.538512 223.647377 
L 99.855868 223.647377 
L 100.173223 223.313079 
L 101.76 223.313079 
L 102.077355 221.848193 
L 103.664132 221.848193 
L 103.981488 221.517769 
L 104.298843 220.946589 
L 104.933554 220.946589 
L 105.250909 218.937696 
L 106.202975 218.836452 
L 106.520331 214.302708 
L 107.155041 213.854743 
L 107.472397 213.854743 
L 107.789752 212.810752 
L 109.376529 212.810752 
L 109.693884 210.519538 
L 110.01124 210.519538 
L 110.328595 207.988464 
L 129.369917 207.98836 
L 129.687273 206.550037 
L 130.321983 205.197282 
L 131.27405 205.111035 
L 131.591405 203.934421 
L 131.90876 203.934421 
L 132.226116 203.665605 
L 132.860826 203.665605 
L 133.178182 201.400543 
L 133.495537 201.400543 
L 133.812893 200.926241 
L 135.399669 200.926241 
L 135.717025 198.994641 
L 136.03438 198.734175 
L 136.351736 198.298055 
L 136.986446 198.188097 
L 163.009587 198.188097 
L 163.326942 196.183343 
L 167.135207 196.183343 
L 167.452562 195.816964 
L 167.769917 195.816964 
L 168.087273 193.335821 
L 168.404628 193.335821 
L 168.721983 192.673558 
L 169.356694 192.673558 
L 169.67405 192.246189 
L 169.991405 191.222565 
L 171.578182 191.222565 
L 172.212893 190.500837 
L 172.530248 190.500837 
L 172.847603 190.194646 
L 180.146777 190.194646 
L 180.464132 189.667614 
L 180.781488 189.667614 
L 181.098843 189.150656 
L 182.68562 189.150656 
L 183.320331 184.328263 
L 185.541818 184.285366 
L 185.859174 184.005185 
L 186.493884 184.005185 
L 186.81124 183.581978 
L 187.128595 182.52145 
L 187.44595 182.52145 
L 187.763306 181.803166 
L 188.080661 181.803166 
L 188.398017 178.804519 
L 188.715372 174.528 
L 283.604628 174.528 
L 284.239339 167.252834 
L 284.556694 167.252834 
L 284.87405 166.53455 
L 285.191405 166.53455 
L 285.50876 165.474022 
L 285.826116 165.050815 
L 286.460826 165.050815 
L 286.778182 164.770634 
L 288.999669 164.727737 
L 289.63438 159.905344 
L 291.221157 159.905344 
L 291.538512 159.388386 
L 291.855868 159.388386 
L 292.173223 158.861354 
L 299.472397 158.861354 
L 299.789752 158.555163 
L 300.107107 158.555163 
L 300.741818 157.833435 
L 302.328595 157.833435 
L 302.64595 156.809811 
L 302.963306 156.382442 
L 303.598017 156.382442 
L 303.915372 155.720179 
L 304.232727 155.720179 
L 304.550083 153.239036 
L 304.867438 153.239036 
L 305.184793 152.872657 
L 308.993058 152.872657 
L 309.310413 150.867903 
L 335.968264 150.757945 
L 336.602975 150.061359 
L 336.920331 148.129759 
L 338.507107 148.129759 
L 338.824463 147.655457 
L 339.141818 147.655457 
L 339.459174 145.390395 
L 340.093884 145.390395 
L 340.41124 145.121579 
L 340.728595 145.121579 
L 341.04595 143.944965 
L 341.680661 143.858718 
L 341.998017 143.858718 
L 342.315372 143.335138 
L 342.632727 142.505963 
L 342.950083 141.06764 
L 361.991405 141.067536 
L 362.30876 138.536462 
L 362.626116 138.536462 
L 362.943471 136.245248 
L 364.530248 136.245248 
L 364.847603 135.201257 
L 365.164959 135.201257 
L 365.799669 134.753292 
L 366.117025 130.219548 
L 367.069091 130.118304 
L 367.386446 128.109411 
L 368.021157 128.109411 
L 368.338512 127.538231 
L 368.655868 127.207807 
L 370.242645 127.207807 
L 370.56 125.742921 
L 372.146777 125.742921 
L 372.464132 125.408623 
L 372.781488 125.408623 
L 373.098843 123.99536 
L 380.398017 123.99536 
L 380.715372 121.623579 
L 381.032727 120.701481 
L 381.350083 120.701481 
L 381.667438 118.931351 
L 382.302149 118.931351 
L 382.619504 117.407544 
L 384.206281 117.407544 
L 384.840992 115.453372 
L 385.158347 112.008394 
L 385.475702 111.283202 
L 389.918678 111.208005 
L 390.236033 109.883569 
L 391.188099 109.845091 
L 391.505455 107.607281 
L 391.82281 102.853143 
L 392.140165 102.853143 
L 392.457521 101.89161 
L 392.774876 100.335263 
L 393.092231 100.335263 
L 393.409587 96.035925 
L 394.996364 96.035925 
L 395.313719 94.856739 
L 395.631074 94.856739 
L 395.94843 94.389181 
L 396.265785 86.768386 
L 396.58314 82.254067 
L 397.217851 82.254067 
L 397.535207 79.74795 
L 397.852562 67.68273 
L 398.169917 67.68273 
L 398.487273 53.568 
L 398.487273 53.568 
" clip-path="url(#pc2341247ee)" style="fill: none; stroke: #ff7f0e; stroke-width: 1.5; stroke-linecap: square"/>
   </g>
   <g id="patch_3">
    <path d="M 57.6 307.584 
L 57.6 41.472 
" style="fill: none; stroke: #000000; stroke-width: 0.8; stroke-linejoin: miter; stroke-linecap: square"/>
   </g>
   <g id="patch_4">
    <path d="M 414.72 307.584 
L 414.72 41.472 
" style="fill: none; stroke: #000000; stroke-width: 0.8; stroke-linejoin: miter; stroke-linecap: square"/>
   </g>
   <g id="patch_5">
    <path d="M 57.6 307.584 
L 414.72 307.584 
" style="fill: none; stroke: #000000; stroke-width: 0.8; stroke-linejoin: miter; stroke-linecap: square"/>
   </g>
   <g id="patch_6">
    <path d="M 57.6 41.472 
L 414.72 41.472 
" style="fill: none; stroke: #000000; stroke-width: 0.8; stroke-linejoin: miter; stroke-linecap: square"/>
   </g>
   <g id="legend_1">
    <g id="patch_7">
     <path d="M 64.6 78.82825 
L 129.342187 78.82825 
Q 131.342187 78.82825 131.342187 76.82825 
L 131.342187 48.472 
Q 131.342187 46.472 129.342187 46.472 
L 64.6 46.472 
Q 62.6 46.472 62.6 48.472 
L 62.6 76.82825 
Q 62.6 78.82825 64.6 78.82825 
z
" style="fill: #ffffff; opacity: 0.8; stroke: #cccccc; stroke-linejoin: miter"/>
    </g>
    <g id="line2d_16">
     <path d="M 66.6 54.570437 
L 76.6 54.570437 
L 86.6 54.570437 
" style="fill: none; stroke: #1f77b4; stroke-width: 1.5; stroke-linecap: square"/>
    </g>
    <g id="text_16">
     <!-- qc -->
     <g transform="translate(94.6 58.070437) scale(0.1 -0.1)">
      <defs>
       <path id="DejaVuSans-71" d="M 947 1747 
Q 947 1113 1208 752 
Q 1469 391 1925 391 
Q 2381 391 2643 752 
Q 2906 1113 2906 1747 
Q 2906 2381 2643 2742 
Q 2381 3103 1925 3103 
Q 1469 3103 1208 2742 
Q 947 2381 947 1747 
z
M 2906 525 
Q 2725 213 2448 61 
Q 2172 -91 1784 -91 
Q 1150 -91 751 415 
Q 353 922 353 1747 
Q 353 2572 751 3078 
Q 1150 3584 1784 3584 
Q 2172 3584 2448 3432 
Q 2725 3281 2906 2969 
L 2906 3500 
L 3481 3500 
L 3481 -1331 
L 2906 -1331 
L 2906 525 
z
" transform="scale(0.015625)"/>
       <path id="DejaVuSans-63" d="M 3122 3366 
L 3122 2828 
Q 2878 2963 2633 3030 
Q 2388 3097 2138 3097 
Q 1578 3097 1268 2742 
Q 959 2388 959 1747 
Q 959 1106 1268 751 
Q 1578 397 2138 397 
Q 2388 397 2633 464 
Q 2878 531 3122 666 
L 3122 134 
Q 2881 22 2623 -34 
Q 2366 -91 2075 -91 
Q 1284 -91 818 406 
Q 353 903 353 1747 
Q 353 2603 823 3093 
Q 1294 3584 2113 3584 
Q 2378 3584 2631 3529 
Q 2884 3475 3122 3366 
z
" transform="scale(0.015625)"/>
      </defs>
      <use xlink:href="#DejaVuSans-71"/>
      <use xlink:href="#DejaVuSans-63" x="63.476562"/>
     </g>
    </g>
    <g id="line2d_17">
     <path d="M 66.6 69.248562 
L 76.6 69.248562 
L 86.6 69.248562 
" style="fill: none; stroke: #ff7f0e; stroke-width: 1.5; stroke-linecap: square"/>
    </g>
    <g id="text_17">
     <!-- Trotter -->
     <g transform="translate(94.6 72.748562) scale(0.1 -0.1)">
      <defs>
       <path id="DejaVuSans-54" d="M -19 4666 
L 3928 4666 
L 3928 4134 
L 2272 4134 
L 2272 0 
L 1638 0 
L 1638 4134 
L -19 4134 
L -19 4666 
z
" transform="scale(0.015625)"/>
       <path id="DejaVuSans-72" d="M 2631 2963 
Q 2534 3019 2420 3045 
Q 2306 3072 2169 3072 
Q 1681 3072 1420 2755 
Q 1159 2438 1159 1844 
L 1159 0 
L 581 0 
L 581 3500 
L 1159 3500 
L 1159 2956 
Q 1341 3275 1631 3429 
Q 1922 3584 2338 3584 
Q 2397 3584 2469 3576 
Q 2541 3569 2628 3553 
L 2631 2963 
z
" transform="scale(0.015625)"/>
       <path id="DejaVuSans-6f" d="M 1959 3097 
Q 1497 3097 1228 2736 
Q 959 2375 959 1747 
Q 959 1119 1226 758 
Q 1494 397 1959 397 
Q 2419 397 2687 759 
Q 2956 1122 2956 1747 
Q 2956 2369 2687 2733 
Q 2419 3097 1959 3097 
z
M 1959 3584 
Q 2709 3584 3137 3096 
Q 3566 2609 3566 1747 
Q 3566 888 3137 398 
Q 2709 -91 1959 -91 
Q 1206 -91 779 398 
Q 353 888 353 1747 
Q 353 2609 779 3096 
Q 1206 3584 1959 3584 
z
" transform="scale(0.015625)"/>
       <path id="DejaVuSans-65" d="M 3597 1894 
L 3597 1613 
L 953 1613 
Q 991 1019 1311 708 
Q 1631 397 2203 397 
Q 2534 397 2845 478 
Q 3156 559 3463 722 
L 3463 178 
Q 3153 47 2828 -22 
Q 2503 -91 2169 -91 
Q 1331 -91 842 396 
Q 353 884 353 1716 
Q 353 2575 817 3079 
Q 1281 3584 2069 3584 
Q 2775 3584 3186 3129 
Q 3597 2675 3597 1894 
z
M 3022 2063 
Q 3016 2534 2758 2815 
Q 2500 3097 2075 3097 
Q 1594 3097 1305 2825 
Q 1016 2553 972 2059 
L 3022 2063 
z
" transform="scale(0.015625)"/>
      </defs>
      <use xlink:href="#DejaVuSans-54"/>
      <use xlink:href="#DejaVuSans-72" x="46.333984"/>
      <use xlink:href="#DejaVuSans-6f" x="85.197266"/>
      <use xlink:href="#DejaVuSans-74" x="146.378906"/>
      <use xlink:href="#DejaVuSans-74" x="185.587891"/>
      <use xlink:href="#DejaVuSans-65" x="224.796875"/>
      <use xlink:href="#DejaVuSans-72" x="286.320312"/>
     </g>
    </g>
   </g>
  </g>
 </g>
 <defs>
  <clipPath id="pc2341247ee">
   <rect x="57.6" y="41.472" width="357.12" height="266.112"/>
  </clipPath>
 </defs>
</svg>
