<?xml version="1.0" encoding="utf-8" standalone="no"?>
<!DOCTYPE svg PUBLIC "-//W3C//DTD SVG 1.1//EN"
  "http://www.w3.org/Graphics/SVG/1.1/DTD/svg11.dtd">
<svg xmlns:xlink="http://www.w3.org/1999/xlink" width="460.8pt" height="345.6pt" viewBox="0 0 460.8 345.6" xmlns="http://www.w3.org/2000/svg" version="1.1">
 <metadata>
  <rdf:RDF xmlns:dc="http://purl.org/dc/elements/1.1/" xmlns:cc="http://creativecommons.org/ns#" xmlns:rdf="http://www.w3.org/1999/02/22-rdf-syntax-ns#">
   <cc:Work>
    <dc:type rdf:resource="http://purl.org/dc/dcmitype/StillImage"/>
    <dc:date>2024-07-12T15:18:41.087034</dc:date>
    <dc:format>image/svg+xml</dc:format>
    <dc:creator>
     <cc:Agent>
      <dc:title>Matplotlib v3.7.1, https://matplotlib.org/</dc:title>
     </cc:Agent>
    </dc:creator>
   </cc:Work>
  </rdf:RDF>
 </metadata>
 <defs>
  <style type="text/css">*{stroke-linejoin: round; stroke-linecap: butt}</style>
 </defs>
 <g id="figure_1">
  <g id="patch_1">
   <path d="M 0 345.6 
L 460.8 345.6 
L 460.8 0 
L 0 0 
z
" style="fill: #ffffff"/>
  </g>
  <g id="axes_1">
   <g id="patch_2">
    <path d="M 57.6 307.584 
L 414.72 307.584 
L 414.72 41.472 
L 57.6 41.472 
z
" style="fill: #ffffff"/>
   </g>
   <g id="matplotlib.axis_1">
    <g id="xtick_1">
     <g id="line2d_1">
      <defs>
       <path id="m7b09b69e8a" d="M 0 0 
L 0 3.5 
" style="stroke: #000000; stroke-width: 0.8"/>
      </defs>
      <g>
       <use xlink:href="#m7b09b69e8a" x="73.832727" y="307.584" style="stroke: #000000; stroke-width: 0.8"/>
      </g>
     </g>
     <g id="text_1">
      <!-- 0 -->
      <g transform="translate(70.651477 322.182437) scale(0.1 -0.1)">
       <defs>
        <path id="DejaVuSans-30" d="M 2034 4250 
Q 1547 4250 1301 3770 
Q 1056 3291 1056 2328 
Q 1056 1369 1301 889 
Q 1547 409 2034 409 
Q 2525 409 2770 889 
Q 3016 1369 3016 2328 
Q 3016 3291 2770 3770 
Q 2525 4250 2034 4250 
z
M 2034 4750 
Q 2819 4750 3233 4129 
Q 3647 3509 3647 2328 
Q 3647 1150 3233 529 
Q 2819 -91 2034 -91 
Q 1250 -91 836 529 
Q 422 1150 422 2328 
Q 422 3509 836 4129 
Q 1250 4750 2034 4750 
z
" transform="scale(0.015625)"/>
       </defs>
       <use xlink:href="#DejaVuSans-30"/>
      </g>
     </g>
    </g>
    <g id="xtick_2">
     <g id="line2d_2">
      <g>
       <use xlink:href="#m7b09b69e8a" x="137.303802" y="307.584" style="stroke: #000000; stroke-width: 0.8"/>
      </g>
     </g>
     <g id="text_2">
      <!-- 200 -->
      <g transform="translate(127.760052 322.182437) scale(0.1 -0.1)">
       <defs>
        <path id="DejaVuSans-32" d="M 1228 531 
L 3431 531 
L 3431 0 
L 469 0 
L 469 531 
Q 828 903 1448 1529 
Q 2069 2156 2228 2338 
Q 2531 2678 2651 2914 
Q 2772 3150 2772 3378 
Q 2772 3750 2511 3984 
Q 2250 4219 1831 4219 
Q 1534 4219 1204 4116 
Q 875 4013 500 3803 
L 500 4441 
Q 881 4594 1212 4672 
Q 1544 4750 1819 4750 
Q 2544 4750 2975 4387 
Q 3406 4025 3406 3419 
Q 3406 3131 3298 2873 
Q 3191 2616 2906 2266 
Q 2828 2175 2409 1742 
Q 1991 1309 1228 531 
z
" transform="scale(0.015625)"/>
       </defs>
       <use xlink:href="#DejaVuSans-32"/>
       <use xlink:href="#DejaVuSans-30" x="63.623047"/>
       <use xlink:href="#DejaVuSans-30" x="127.246094"/>
      </g>
     </g>
    </g>
    <g id="xtick_3">
     <g id="line2d_3">
      <g>
       <use xlink:href="#m7b09b69e8a" x="200.774876" y="307.584" style="stroke: #000000; stroke-width: 0.8"/>
      </g>
     </g>
     <g id="text_3">
      <!-- 400 -->
      <g transform="translate(191.231126 322.182437) scale(0.1 -0.1)">
       <defs>
        <path id="DejaVuSans-34" d="M 2419 4116 
L 825 1625 
L 2419 1625 
L 2419 4116 
z
M 2253 4666 
L 3047 4666 
L 3047 1625 
L 3713 1625 
L 3713 1100 
L 3047 1100 
L 3047 0 
L 2419 0 
L 2419 1100 
L 313 1100 
L 313 1709 
L 2253 4666 
z
" transform="scale(0.015625)"/>
       </defs>
       <use xlink:href="#DejaVuSans-34"/>
       <use xlink:href="#DejaVuSans-30" x="63.623047"/>
       <use xlink:href="#DejaVuSans-30" x="127.246094"/>
      </g>
     </g>
    </g>
    <g id="xtick_4">
     <g id="line2d_4">
      <g>
       <use xlink:href="#m7b09b69e8a" x="264.24595" y="307.584" style="stroke: #000000; stroke-width: 0.8"/>
      </g>
     </g>
     <g id="text_4">
      <!-- 600 -->
      <g transform="translate(254.7022 322.182437) scale(0.1 -0.1)">
       <defs>
        <path id="DejaVuSans-36" d="M 2113 2584 
Q 1688 2584 1439 2293 
Q 1191 2003 1191 1497 
Q 1191 994 1439 701 
Q 1688 409 2113 409 
Q 2538 409 2786 701 
Q 3034 994 3034 1497 
Q 3034 2003 2786 2293 
Q 2538 2584 2113 2584 
z
M 3366 4563 
L 3366 3988 
Q 3128 4100 2886 4159 
Q 2644 4219 2406 4219 
Q 1781 4219 1451 3797 
Q 1122 3375 1075 2522 
Q 1259 2794 1537 2939 
Q 1816 3084 2150 3084 
Q 2853 3084 3261 2657 
Q 3669 2231 3669 1497 
Q 3669 778 3244 343 
Q 2819 -91 2113 -91 
Q 1303 -91 875 529 
Q 447 1150 447 2328 
Q 447 3434 972 4092 
Q 1497 4750 2381 4750 
Q 2619 4750 2861 4703 
Q 3103 4656 3366 4563 
z
" transform="scale(0.015625)"/>
       </defs>
       <use xlink:href="#DejaVuSans-36"/>
       <use xlink:href="#DejaVuSans-30" x="63.623047"/>
       <use xlink:href="#DejaVuSans-30" x="127.246094"/>
      </g>
     </g>
    </g>
    <g id="xtick_5">
     <g id="line2d_5">
      <g>
       <use xlink:href="#m7b09b69e8a" x="327.717025" y="307.584" style="stroke: #000000; stroke-width: 0.8"/>
      </g>
     </g>
     <g id="text_5">
      <!-- 800 -->
      <g transform="translate(318.173275 322.182437) scale(0.1 -0.1)">
       <defs>
        <path id="DejaVuSans-38" d="M 2034 2216 
Q 1584 2216 1326 1975 
Q 1069 1734 1069 1313 
Q 1069 891 1326 650 
Q 1584 409 2034 409 
Q 2484 409 2743 651 
Q 3003 894 3003 1313 
Q 3003 1734 2745 1975 
Q 2488 2216 2034 2216 
z
M 1403 2484 
Q 997 2584 770 2862 
Q 544 3141 544 3541 
Q 544 4100 942 4425 
Q 1341 4750 2034 4750 
Q 2731 4750 3128 4425 
Q 3525 4100 3525 3541 
Q 3525 3141 3298 2862 
Q 3072 2584 2669 2484 
Q 3125 2378 3379 2068 
Q 3634 1759 3634 1313 
Q 3634 634 3220 271 
Q 2806 -91 2034 -91 
Q 1263 -91 848 271 
Q 434 634 434 1313 
Q 434 1759 690 2068 
Q 947 2378 1403 2484 
z
M 1172 3481 
Q 1172 3119 1398 2916 
Q 1625 2713 2034 2713 
Q 2441 2713 2670 2916 
Q 2900 3119 2900 3481 
Q 2900 3844 2670 4047 
Q 2441 4250 2034 4250 
Q 1625 4250 1398 4047 
Q 1172 3844 1172 3481 
z
" transform="scale(0.015625)"/>
       </defs>
       <use xlink:href="#DejaVuSans-38"/>
       <use xlink:href="#DejaVuSans-30" x="63.623047"/>
       <use xlink:href="#DejaVuSans-30" x="127.246094"/>
      </g>
     </g>
    </g>
    <g id="xtick_6">
     <g id="line2d_6">
      <g>
       <use xlink:href="#m7b09b69e8a" x="391.188099" y="307.584" style="stroke: #000000; stroke-width: 0.8"/>
      </g>
     </g>
     <g id="text_6">
      <!-- 1000 -->
      <g transform="translate(378.463099 322.182437) scale(0.1 -0.1)">
       <defs>
        <path id="DejaVuSans-31" d="M 794 531 
L 1825 531 
L 1825 4091 
L 703 3866 
L 703 4441 
L 1819 4666 
L 2450 4666 
L 2450 531 
L 3481 531 
L 3481 0 
L 794 0 
L 794 531 
z
" transform="scale(0.015625)"/>
       </defs>
       <use xlink:href="#DejaVuSans-31"/>
       <use xlink:href="#DejaVuSans-30" x="63.623047"/>
       <use xlink:href="#DejaVuSans-30" x="127.246094"/>
       <use xlink:href="#DejaVuSans-30" x="190.869141"/>
      </g>
     </g>
    </g>
    <g id="text_7">
     <!-- n -->
     <g transform="translate(232.99125 335.860562) scale(0.1 -0.1)">
      <defs>
       <path id="DejaVuSans-6e" d="M 3513 2113 
L 3513 0 
L 2938 0 
L 2938 2094 
Q 2938 2591 2744 2837 
Q 2550 3084 2163 3084 
Q 1697 3084 1428 2787 
Q 1159 2491 1159 1978 
L 1159 0 
L 581 0 
L 581 3500 
L 1159 3500 
L 1159 2956 
Q 1366 3272 1645 3428 
Q 1925 3584 2291 3584 
Q 2894 3584 3203 3211 
Q 3513 2838 3513 2113 
z
" transform="scale(0.015625)"/>
      </defs>
      <use xlink:href="#DejaVuSans-6e"/>
     </g>
    </g>
   </g>
   <g id="matplotlib.axis_2">
    <g id="ytick_1">
     <g id="line2d_7">
      <defs>
       <path id="m0cc5e2cb4b" d="M 0 0 
L -3.5 0 
" style="stroke: #000000; stroke-width: 0.8"/>
      </defs>
      <g>
       <use xlink:href="#m0cc5e2cb4b" x="57.6" y="290.10827" style="stroke: #000000; stroke-width: 0.8"/>
      </g>
     </g>
     <g id="text_8">
      <!-- −3 -->
      <g transform="translate(35.857813 293.907488) scale(0.1 -0.1)">
       <defs>
        <path id="DejaVuSans-2212" d="M 678 2272 
L 4684 2272 
L 4684 1741 
L 678 1741 
L 678 2272 
z
" transform="scale(0.015625)"/>
        <path id="DejaVuSans-33" d="M 2597 2516 
Q 3050 2419 3304 2112 
Q 3559 1806 3559 1356 
Q 3559 666 3084 287 
Q 2609 -91 1734 -91 
Q 1441 -91 1130 -33 
Q 819 25 488 141 
L 488 750 
Q 750 597 1062 519 
Q 1375 441 1716 441 
Q 2309 441 2620 675 
Q 2931 909 2931 1356 
Q 2931 1769 2642 2001 
Q 2353 2234 1838 2234 
L 1294 2234 
L 1294 2753 
L 1863 2753 
Q 2328 2753 2575 2939 
Q 2822 3125 2822 3475 
Q 2822 3834 2567 4026 
Q 2313 4219 1838 4219 
Q 1578 4219 1281 4162 
Q 984 4106 628 3988 
L 628 4550 
Q 988 4650 1302 4700 
Q 1616 4750 1894 4750 
Q 2613 4750 3031 4423 
Q 3450 4097 3450 3541 
Q 3450 3153 3228 2886 
Q 3006 2619 2597 2516 
z
" transform="scale(0.015625)"/>
       </defs>
       <use xlink:href="#DejaVuSans-2212"/>
       <use xlink:href="#DejaVuSans-33" x="83.789062"/>
      </g>
     </g>
    </g>
    <g id="ytick_2">
     <g id="line2d_8">
      <g>
       <use xlink:href="#m0cc5e2cb4b" x="57.6" y="251.179034" style="stroke: #000000; stroke-width: 0.8"/>
      </g>
     </g>
     <g id="text_9">
      <!-- −2 -->
      <g transform="translate(35.857813 254.978252) scale(0.1 -0.1)">
       <use xlink:href="#DejaVuSans-2212"/>
       <use xlink:href="#DejaVuSans-32" x="83.789062"/>
      </g>
     </g>
    </g>
    <g id="ytick_3">
     <g id="line2d_9">
      <g>
       <use xlink:href="#m0cc5e2cb4b" x="57.6" y="212.249797" style="stroke: #000000; stroke-width: 0.8"/>
      </g>
     </g>
     <g id="text_10">
      <!-- −1 -->
      <g transform="translate(35.857813 216.049016) scale(0.1 -0.1)">
       <use xlink:href="#DejaVuSans-2212"/>
       <use xlink:href="#DejaVuSans-31" x="83.789062"/>
      </g>
     </g>
    </g>
    <g id="ytick_4">
     <g id="line2d_10">
      <g>
       <use xlink:href="#m0cc5e2cb4b" x="57.6" y="173.320561" style="stroke: #000000; stroke-width: 0.8"/>
      </g>
     </g>
     <g id="text_11">
      <!-- 0 -->
      <g transform="translate(44.2375 177.11978) scale(0.1 -0.1)">
       <use xlink:href="#DejaVuSans-30"/>
      </g>
     </g>
    </g>
    <g id="ytick_5">
     <g id="line2d_11">
      <g>
       <use xlink:href="#m0cc5e2cb4b" x="57.6" y="134.391325" style="stroke: #000000; stroke-width: 0.8"/>
      </g>
     </g>
     <g id="text_12">
      <!-- 1 -->
      <g transform="translate(44.2375 138.190544) scale(0.1 -0.1)">
       <use xlink:href="#DejaVuSans-31"/>
      </g>
     </g>
    </g>
    <g id="ytick_6">
     <g id="line2d_12">
      <g>
       <use xlink:href="#m0cc5e2cb4b" x="57.6" y="95.462089" style="stroke: #000000; stroke-width: 0.8"/>
      </g>
     </g>
     <g id="text_13">
      <!-- 2 -->
      <g transform="translate(44.2375 99.261308) scale(0.1 -0.1)">
       <use xlink:href="#DejaVuSans-32"/>
      </g>
     </g>
    </g>
    <g id="ytick_7">
     <g id="line2d_13">
      <g>
       <use xlink:href="#m0cc5e2cb4b" x="57.6" y="56.532853" style="stroke: #000000; stroke-width: 0.8"/>
      </g>
     </g>
     <g id="text_14">
      <!-- 3 -->
      <g transform="translate(44.2375 60.332072) scale(0.1 -0.1)">
       <use xlink:href="#DejaVuSans-33"/>
      </g>
     </g>
    </g>
    <g id="text_15">
     <!-- E*t -->
     <g transform="translate(29.778125 182.147531) rotate(-90) scale(0.1 -0.1)">
      <defs>
       <path id="DejaVuSans-45" d="M 628 4666 
L 3578 4666 
L 3578 4134 
L 1259 4134 
L 1259 2753 
L 3481 2753 
L 3481 2222 
L 1259 2222 
L 1259 531 
L 3634 531 
L 3634 0 
L 628 0 
L 628 4666 
z
" transform="scale(0.015625)"/>
       <path id="DejaVuSans-2a" d="M 3009 3897 
L 1888 3291 
L 3009 2681 
L 2828 2375 
L 1778 3009 
L 1778 1831 
L 1422 1831 
L 1422 3009 
L 372 2375 
L 191 2681 
L 1313 3291 
L 191 3897 
L 372 4206 
L 1422 3572 
L 1422 4750 
L 1778 4750 
L 1778 3572 
L 2828 4206 
L 3009 3897 
z
" transform="scale(0.015625)"/>
       <path id="DejaVuSans-74" d="M 1172 4494 
L 1172 3500 
L 2356 3500 
L 2356 3053 
L 1172 3053 
L 1172 1153 
Q 1172 725 1289 603 
Q 1406 481 1766 481 
L 2356 481 
L 2356 0 
L 1766 0 
Q 1100 0 847 248 
Q 594 497 594 1153 
L 594 3053 
L 172 3053 
L 172 3500 
L 594 3500 
L 594 4494 
L 1172 4494 
z
" transform="scale(0.015625)"/>
      </defs>
      <use xlink:href="#DejaVuSans-45"/>
      <use xlink:href="#DejaVuSans-2a" x="63.183594"/>
      <use xlink:href="#DejaVuSans-74" x="113.183594"/>
     </g>
    </g>
   </g>
   <g id="line2d_14">
    <path d="M 73.832727 295.488 
L 74.150083 294.619706 
L 74.467438 294.43729 
L 75.102149 291.637842 
L 75.419504 291.481923 
L 75.73686 282.167347 
L 76.688926 274.600191 
L 77.006281 268.465913 
L 77.323636 268.431168 
L 77.958347 260.813197 
L 78.275702 259.861364 
L 78.910413 254.583596 
L 79.545124 254.06839 
L 79.862479 251.147079 
L 80.179835 249.330479 
L 80.49719 248.779337 
L 81.131901 246.928798 
L 81.766612 245.336185 
L 82.083967 244.881591 
L 82.401322 243.980581 
L 82.718678 243.76548 
L 83.036033 243.132538 
L 83.670744 242.693969 
L 83.988099 242.147984 
L 84.305455 241.998982 
L 84.940165 239.471009 
L 85.257521 239.455049 
L 85.892231 237.810151 
L 86.209587 237.368971 
L 86.526942 237.169724 
L 86.844298 237.109162 
L 87.161653 236.058124 
L 87.796364 235.423912 
L 88.113719 234.288377 
L 88.431074 233.970909 
L 88.74843 233.860744 
L 89.065785 232.900156 
L 89.38314 232.875819 
L 90.652562 231.142546 
L 91.921983 230.523012 
L 92.556694 229.65356 
L 92.87405 228.720886 
L 93.191405 228.671552 
L 93.826116 228.227567 
L 94.143471 228.13333 
L 94.460826 227.619914 
L 95.095537 227.329207 
L 95.412893 226.262407 
L 95.730248 226.167741 
L 96.047603 225.901502 
L 96.364959 225.417976 
L 96.999669 225.084819 
L 97.317025 224.223372 
L 97.951736 224.105592 
L 98.269091 223.327619 
L 98.586446 223.043246 
L 98.903802 222.030877 
L 99.221157 221.485084 
L 99.538512 221.387646 
L 99.855868 220.777128 
L 100.173223 220.527778 
L 100.490579 220.041674 
L 101.442645 219.309422 
L 101.76 218.746746 
L 102.077355 218.671069 
L 103.029421 217.963155 
L 103.664132 217.672523 
L 103.981488 217.237574 
L 104.298843 217.142752 
L 104.616198 216.899126 
L 104.933554 216.340867 
L 105.250909 216.266106 
L 107.472397 214.691934 
L 107.789752 214.254843 
L 108.424463 214.071002 
L 108.741818 213.563676 
L 109.376529 213.388292 
L 110.01124 212.501401 
L 111.280661 211.885311 
L 112.232727 211.52211 
L 112.550083 211.429067 
L 112.867438 211.030129 
L 113.819504 210.471993 
L 114.13686 210.432404 
L 114.454215 210.185292 
L 114.77157 210.080641 
L 115.088926 209.743114 
L 116.358347 208.970969 
L 116.675702 208.617885 
L 117.627769 208.169791 
L 117.945124 207.851341 
L 118.262479 207.817904 
L 119.531901 206.947556 
L 119.849256 206.883815 
L 120.483967 206.444256 
L 120.801322 206.435279 
L 121.118678 206.254624 
L 121.753388 205.621632 
L 123.340165 204.969896 
L 123.657521 204.538222 
L 123.974876 204.449641 
L 124.609587 204.077036 
L 124.926942 204.032987 
L 125.244298 203.875075 
L 125.561653 203.4287 
L 126.513719 203.137396 
L 126.831074 202.859266 
L 127.465785 202.784168 
L 128.417851 202.375986 
L 128.735207 202.335108 
L 129.687273 201.802902 
L 130.004628 201.762469 
L 130.639339 201.395912 
L 131.27405 201.256943 
L 131.591405 201.013965 
L 132.226116 200.894998 
L 133.178182 200.324656 
L 133.495537 200.272034 
L 134.447603 199.850407 
L 135.399669 199.409888 
L 135.717025 199.126218 
L 136.669091 198.768142 
L 137.303802 198.421058 
L 137.621157 198.354743 
L 137.938512 198.072656 
L 138.573223 197.867701 
L 139.525289 197.40038 
L 140.794711 196.989056 
L 141.746777 196.710551 
L 142.381488 196.41471 
L 142.698843 196.350722 
L 143.016198 196.118683 
L 143.333554 196.026659 
L 143.968264 195.681148 
L 145.237686 195.286008 
L 145.555041 195.233971 
L 145.872397 194.956432 
L 146.507107 194.647499 
L 147.141818 194.334818 
L 148.728595 193.794989 
L 149.680661 193.249772 
L 150.632727 193.119135 
L 150.950083 192.734235 
L 151.584793 192.541767 
L 152.219504 192.089565 
L 152.854215 191.9655 
L 153.806281 191.384135 
L 154.123636 191.303933 
L 154.440992 191.003132 
L 154.758347 190.968779 
L 155.075702 190.746453 
L 156.027769 190.460461 
L 159.518678 188.798209 
L 160.153388 188.539519 
L 160.470744 188.41112 
L 161.105455 187.904293 
L 162.057521 187.601261 
L 163.961653 186.665558 
L 164.279008 186.415727 
L 164.596364 186.366487 
L 164.913719 186.141495 
L 165.54843 185.993014 
L 168.087273 185.123741 
L 168.721983 184.893894 
L 169.67405 184.535235 
L 175.069091 182.76905 
L 175.386446 182.756179 
L 175.703802 182.536985 
L 176.021157 182.469224 
L 176.655868 182.138071 
L 181.733554 180.586886 
L 182.68562 180.263272 
L 183.320331 180.080511 
L 183.955041 179.937638 
L 184.907107 179.642582 
L 185.224463 179.428219 
L 186.176529 179.215759 
L 189.032727 178.287811 
L 189.350083 178.254358 
L 189.667438 178.000541 
L 190.619504 177.639362 
L 190.93686 177.430234 
L 193.475702 176.792036 
L 194.110413 176.542976 
L 194.427769 176.259415 
L 196.014545 175.753326 
L 199.505455 174.745917 
L 200.457521 174.598575 
L 201.409587 174.259759 
L 203.94843 173.657567 
L 204.58314 173.449671 
L 204.900496 173.215003 
L 205.535207 173.015077 
L 205.852562 172.814837 
L 207.121983 172.607204 
L 207.756694 172.320406 
L 208.391405 172.13076 
L 215.373223 170.083325 
L 215.690579 169.778858 
L 216.96 169.244122 
L 217.594711 168.890962 
L 217.912066 168.838221 
L 218.546777 168.576703 
L 218.864132 168.556452 
L 219.498843 168.349053 
L 220.450909 168.10187 
L 228.384793 165.105253 
L 228.702149 164.803733 
L 229.97157 164.471543 
L 230.923636 164.205098 
L 231.558347 163.805126 
L 231.875702 163.748411 
L 232.193058 163.484657 
L 232.510413 163.419297 
L 232.827769 163.177101 
L 233.462479 163.013787 
L 233.779835 162.959806 
L 234.731901 162.508668 
L 235.366612 162.26795 
L 235.683967 162.200235 
L 236.001322 161.968623 
L 237.270744 161.594591 
L 237.905455 161.340174 
L 238.22281 161.235471 
L 238.540165 160.936321 
L 239.492231 160.637423 
L 240.126942 160.283174 
L 240.444298 160.203074 
L 240.761653 159.969439 
L 241.079008 159.901528 
L 241.396364 159.628455 
L 241.713719 159.574375 
L 242.031074 159.276853 
L 243.300496 158.820463 
L 243.617851 158.50804 
L 244.569917 158.17121 
L 244.887273 158.137431 
L 245.204628 157.841891 
L 246.156694 157.475075 
L 246.47405 157.189553 
L 247.426116 156.918742 
L 249.330248 156.285243 
L 251.23438 155.643372 
L 251.551736 155.356395 
L 252.186446 155.090823 
L 252.503802 154.972826 
L 252.821157 154.631139 
L 253.455868 154.445255 
L 255.042645 153.65815 
L 255.677355 153.476143 
L 256.629421 152.959587 
L 258.216198 152.388262 
L 259.802975 151.722757 
L 260.437686 151.595834 
L 262.024463 150.829723 
L 262.659174 150.673087 
L 262.976529 150.455578 
L 263.61124 150.262157 
L 264.24595 149.976418 
L 265.832727 149.439403 
L 266.467438 149.076986 
L 267.73686 148.618984 
L 268.688926 148.218349 
L 269.958347 147.539764 
L 270.593058 147.276508 
L 270.910413 147.237589 
L 272.814545 146.424264 
L 273.131901 146.374528 
L 274.718678 145.566724 
L 275.036033 145.502449 
L 275.670744 145.174213 
L 276.62281 144.963875 
L 277.892231 144.60873 
L 278.844298 144.240066 
L 279.479008 144.107114 
L 279.796364 143.800531 
L 281.065785 143.412831 
L 281.700496 143.146179 
L 282.652562 143.016861 
L 283.604628 142.487773 
L 284.87405 141.522011 
L 286.460826 140.903148 
L 287.730248 140.378749 
L 288.047603 140.091663 
L 288.364959 140.048261 
L 288.682314 139.890685 
L 288.999669 139.425504 
L 289.951736 139.186749 
L 290.586446 138.714585 
L 290.903802 138.661757 
L 291.221157 138.462057 
L 291.538512 138.447817 
L 291.855868 138.203823 
L 292.173223 138.17357 
L 293.442645 137.575553 
L 294.394711 137.325755 
L 294.712066 137.005639 
L 296.933554 136.429078 
L 297.568264 135.869428 
L 298.520331 135.446921 
L 299.472397 135.125817 
L 300.424463 134.338122 
L 301.376529 134.135129 
L 301.693884 133.853828 
L 302.01124 133.764604 
L 302.328595 133.409942 
L 302.963306 133.310175 
L 303.598017 132.940612 
L 303.915372 132.40698 
L 304.232727 132.181287 
L 304.550083 132.097478 
L 304.867438 131.847677 
L 305.184793 131.74245 
L 305.819504 131.231198 
L 307.723636 130.781648 
L 308.040992 130.749305 
L 308.358347 130.449131 
L 308.675702 130.403863 
L 311.849256 128.609679 
L 312.166612 128.380387 
L 313.436033 127.961314 
L 314.070744 127.520211 
L 314.388099 127.493611 
L 314.705455 127.108822 
L 315.340165 126.916004 
L 316.609587 126.332146 
L 317.244298 126.092277 
L 317.879008 125.79413 
L 318.513719 124.961047 
L 318.831074 124.908182 
L 319.465785 124.494236 
L 319.78314 124.357818 
L 320.417851 123.85869 
L 320.735207 123.798695 
L 322.004628 123.128204 
L 322.639339 123.032169 
L 323.27405 122.504955 
L 324.226116 121.863702 
L 324.860826 121.444923 
L 325.812893 121.023825 
L 326.764959 120.354809 
L 327.082314 120.219546 
L 327.399669 119.820623 
L 327.717025 119.76472 
L 328.351736 119.32302 
L 328.669091 119.047424 
L 329.303802 118.939066 
L 330.573223 118.32949 
L 330.890579 117.906149 
L 331.525289 117.716426 
L 331.842645 117.122136 
L 332.794711 116.884943 
L 333.112066 116.491123 
L 333.746777 116.229752 
L 334.064132 116.094922 
L 334.381488 115.786183 
L 335.333554 115.468219 
L 336.28562 114.819963 
L 337.872397 114.287426 
L 338.189752 113.916233 
L 338.507107 113.835555 
L 338.824463 113.531749 
L 339.141818 113.486182 
L 339.776529 112.978111 
L 340.093884 112.871509 
L 341.680661 111.824721 
L 342.632727 111.496827 
L 343.267438 110.877027 
L 343.584793 110.828849 
L 345.17157 110.117049 
L 345.488926 110.014876 
L 345.806281 109.665023 
L 347.393058 108.870567 
L 348.345124 108.678597 
L 348.662479 108.246991 
L 349.29719 107.789577 
L 349.614545 107.734412 
L 350.249256 107.41572 
L 350.566612 107.37269 
L 350.883967 107.083619 
L 351.201322 107.041301 
L 351.518678 106.693256 
L 353.105455 106.030532 
L 353.42281 105.862206 
L 353.740165 105.836768 
L 354.057521 105.506984 
L 354.374876 105.469918 
L 354.692231 105.009601 
L 356.913719 104.176946 
L 357.54843 103.609819 
L 358.18314 103.229936 
L 358.500496 102.93861 
L 358.817851 102.875268 
L 359.452562 102.338246 
L 360.087273 102.23979 
L 361.039339 101.736961 
L 361.67405 101.496455 
L 361.991405 101.142746 
L 362.30876 101.055797 
L 362.943471 100.644627 
L 363.578182 100.477516 
L 363.895537 100.115792 
L 364.212893 100.012433 
L 364.530248 99.563738 
L 365.164959 99.40714 
L 365.482314 99.287949 
L 366.117025 98.832623 
L 367.069091 98.498399 
L 368.338512 97.590697 
L 369.925289 96.225951 
L 370.242645 95.592604 
L 370.877355 95.289175 
L 371.512066 94.648767 
L 372.146777 94.154199 
L 372.464132 94.049968 
L 372.781488 93.386148 
L 373.098843 93.242128 
L 373.416198 92.605361 
L 374.050909 92.467814 
L 374.368264 92.012486 
L 374.68562 91.973069 
L 375.002975 91.803715 
L 375.320331 91.350443 
L 375.637686 91.129005 
L 375.955041 90.410711 
L 376.589752 90.255268 
L 377.224463 89.05312 
L 377.541818 88.892884 
L 377.859174 88.417339 
L 378.176529 88.354721 
L 378.493884 87.705533 
L 379.128595 87.408643 
L 379.763306 86.07432 
L 380.080661 85.996872 
L 380.398017 85.610524 
L 381.032727 85.338867 
L 381.350083 84.877299 
L 383.254215 83.231743 
L 384.206281 82.014653 
L 384.523636 81.338657 
L 384.840992 81.003626 
L 385.158347 80.957978 
L 385.475702 80.787081 
L 385.793058 79.729035 
L 386.110413 79.603987 
L 386.427769 78.633272 
L 386.745124 78.457973 
L 387.062479 78.016155 
L 387.379835 77.999981 
L 388.014545 76.70719 
L 388.331901 76.600171 
L 388.649256 76.148688 
L 388.966612 76.106722 
L 389.283967 75.760967 
L 389.601322 75.603624 
L 390.553388 74.621486 
L 391.188099 73.906337 
L 391.505455 73.812407 
L 391.82281 72.96149 
L 392.140165 72.746495 
L 392.457521 71.938016 
L 393.092231 71.753088 
L 394.044298 70.375506 
L 394.361653 69.108072 
L 394.996364 68.675595 
L 395.313719 66.753649 
L 395.631074 65.855805 
L 395.94843 63.96869 
L 396.265785 63.904572 
L 396.58314 60.898136 
L 396.900496 60.188601 
L 397.535207 56.405196 
L 397.852562 55.386154 
L 398.169917 53.62063 
L 398.487273 53.568 
L 398.487273 53.568 
" clip-path="url(#p839ef3a5be)" style="fill: none; stroke: #1f77b4; stroke-width: 1.5; stroke-linecap: square"/>
   </g>
   <g id="line2d_15">
    <path d="M 73.832727 290.743558 
L 74.150083 277.041558 
L 74.467438 277.041558 
L 74.784793 265.329139 
L 75.102149 262.896303 
L 75.73686 262.896303 
L 76.054215 258.513988 
L 76.37157 251.116033 
L 76.688926 250.662147 
L 77.006281 250.662147 
L 77.323636 249.517442 
L 78.910413 249.517442 
L 79.227769 245.343821 
L 79.545124 245.343821 
L 79.862479 243.832984 
L 80.179835 242.899567 
L 80.49719 242.899567 
L 80.814545 238.284445 
L 81.131901 236.112071 
L 82.083967 236.074718 
L 82.401322 234.78901 
L 86.844298 234.716012 
L 87.161653 234.012026 
L 87.479008 230.667783 
L 87.796364 229.928493 
L 88.113719 228.770753 
L 89.700496 228.770753 
L 90.017851 227.291503 
L 90.652562 227.291503 
L 90.969917 225.573134 
L 91.287273 225.573134 
L 91.604628 224.677998 
L 91.921983 222.375571 
L 99.221157 222.375571 
L 99.538512 221.003634 
L 99.855868 221.003634 
L 100.173223 220.679111 
L 101.76 220.679111 
L 102.077355 219.25706 
L 103.664132 219.25706 
L 103.981488 218.936298 
L 104.298843 218.38182 
L 104.933554 218.38182 
L 105.250909 216.431669 
L 106.202975 216.333385 
L 106.520331 211.932214 
L 107.155041 211.497347 
L 107.472397 211.497347 
L 107.789752 210.483884 
L 109.376529 210.483884 
L 109.693884 208.259667 
L 110.01124 208.259667 
L 110.328595 205.802605 
L 129.369917 205.802503 
L 129.687273 204.406239 
L 130.321983 203.09304 
L 131.27405 203.009315 
L 131.591405 201.867107 
L 131.90876 201.867107 
L 132.226116 201.606151 
L 132.860826 201.606151 
L 133.178182 199.407322 
L 133.495537 199.407322 
L 133.812893 198.946889 
L 135.399669 198.946889 
L 135.717025 197.071771 
L 136.03438 196.818921 
L 136.351736 196.395554 
L 136.986446 196.288811 
L 163.009587 196.288811 
L 163.326942 194.342678 
L 167.135207 194.342678 
L 167.452562 193.987013 
L 167.769917 193.987013 
L 168.087273 191.578421 
L 168.404628 191.578421 
L 168.721983 190.935523 
L 169.356694 190.935523 
L 169.67405 190.520651 
L 169.991405 189.526959 
L 171.578182 189.526959 
L 172.212893 188.826335 
L 172.530248 188.826335 
L 172.847603 188.529097 
L 180.146777 188.529097 
L 180.464132 188.017476 
L 180.781488 188.017476 
L 181.098843 187.515634 
L 182.68562 187.515634 
L 183.320331 182.834254 
L 185.541818 182.792611 
L 185.859174 182.520623 
L 186.493884 182.520623 
L 186.81124 182.109791 
L 187.128595 181.080274 
L 187.44595 181.080274 
L 187.763306 180.382994 
L 188.080661 180.382994 
L 188.398017 177.47203 
L 188.715372 173.320561 
L 283.604628 173.320561 
L 284.239339 166.258129 
L 284.556694 166.258129 
L 284.87405 165.560848 
L 285.191405 165.560848 
L 285.50876 164.531331 
L 285.826116 164.1205 
L 286.460826 164.1205 
L 286.778182 163.848511 
L 288.999669 163.806869 
L 289.63438 159.125488 
L 291.221157 159.125488 
L 291.538512 158.623646 
L 291.855868 158.623646 
L 292.173223 158.112025 
L 299.472397 158.112025 
L 299.789752 157.814788 
L 300.107107 157.814788 
L 300.741818 157.114164 
L 302.328595 157.114164 
L 302.64595 156.120472 
L 302.963306 155.705599 
L 303.598017 155.705599 
L 303.915372 155.062702 
L 304.232727 155.062702 
L 304.550083 152.65411 
L 304.867438 152.65411 
L 305.184793 152.298445 
L 308.993058 152.298445 
L 309.310413 150.352312 
L 335.968264 150.245569 
L 336.602975 149.569352 
L 336.920331 147.694233 
L 338.507107 147.694233 
L 338.824463 147.2338 
L 339.141818 147.2338 
L 339.459174 145.034972 
L 340.093884 145.034972 
L 340.41124 144.774016 
L 340.728595 144.774016 
L 341.04595 143.631808 
L 341.680661 143.548083 
L 341.998017 143.548083 
L 342.315372 143.039812 
L 342.632727 142.234883 
L 342.950083 140.838619 
L 361.991405 140.838518 
L 362.30876 138.381456 
L 362.626116 138.381456 
L 362.943471 136.157239 
L 364.530248 136.157239 
L 364.847603 135.143776 
L 365.164959 135.143776 
L 365.799669 134.708909 
L 366.117025 130.307737 
L 367.069091 130.209454 
L 367.386446 128.259302 
L 368.021157 128.259302 
L 368.338512 127.704825 
L 368.655868 127.384063 
L 370.242645 127.384063 
L 370.56 125.962011 
L 372.146777 125.962011 
L 372.464132 125.637489 
L 372.781488 125.637489 
L 373.098843 124.265551 
L 380.398017 124.265551 
L 380.715372 121.963124 
L 381.032727 121.067989 
L 381.350083 121.067989 
L 381.667438 119.34962 
L 382.302149 119.34962 
L 382.619504 117.87037 
L 384.206281 117.87037 
L 384.840992 115.97334 
L 385.158347 112.629097 
L 385.475702 111.92511 
L 389.918678 111.852112 
L 390.236033 110.566404 
L 391.188099 110.529052 
L 391.505455 108.356677 
L 391.82281 103.741556 
L 392.140165 103.741556 
L 392.457521 102.808139 
L 392.774876 101.297302 
L 393.092231 101.297302 
L 393.409587 97.12368 
L 394.996364 97.12368 
L 395.313719 95.978975 
L 395.631074 95.978975 
L 395.94843 95.525089 
L 396.265785 88.127134 
L 396.58314 83.744819 
L 397.217851 83.744819 
L 397.535207 81.311984 
L 397.852562 69.599565 
L 398.169917 69.599565 
L 398.487273 55.897565 
L 398.487273 55.897565 
" clip-path="url(#p839ef3a5be)" style="fill: none; stroke: #ff7f0e; stroke-width: 1.5; stroke-linecap: square"/>
   </g>
   <g id="patch_3">
    <path d="M 57.6 307.584 
L 57.6 41.472 
" style="fill: none; stroke: #000000; stroke-width: 0.8; stroke-linejoin: miter; stroke-linecap: square"/>
   </g>
   <g id="patch_4">
    <path d="M 414.72 307.584 
L 414.72 41.472 
" style="fill: none; stroke: #000000; stroke-width: 0.8; stroke-linejoin: miter; stroke-linecap: square"/>
   </g>
   <g id="patch_5">
    <path d="M 57.6 307.584 
L 414.72 307.584 
" style="fill: none; stroke: #000000; stroke-width: 0.8; stroke-linejoin: miter; stroke-linecap: square"/>
   </g>
   <g id="patch_6">
    <path d="M 57.6 41.472 
L 414.72 41.472 
" style="fill: none; stroke: #000000; stroke-width: 0.8; stroke-linejoin: miter; stroke-linecap: square"/>
   </g>
   <g id="legend_1">
    <g id="patch_7">
     <path d="M 64.6 78.82825 
L 129.342187 78.82825 
Q 131.342187 78.82825 131.342187 76.82825 
L 131.342187 48.472 
Q 131.342187 46.472 129.342187 46.472 
L 64.6 46.472 
Q 62.6 46.472 62.6 48.472 
L 62.6 76.82825 
Q 62.6 78.82825 64.6 78.82825 
z
" style="fill: #ffffff; opacity: 0.8; stroke: #cccccc; stroke-linejoin: miter"/>
    </g>
    <g id="line2d_16">
     <path d="M 66.6 54.570437 
L 76.6 54.570437 
L 86.6 54.570437 
" style="fill: none; stroke: #1f77b4; stroke-width: 1.5; stroke-linecap: square"/>
    </g>
    <g id="text_16">
     <!-- qc -->
     <g transform="translate(94.6 58.070437) scale(0.1 -0.1)">
      <defs>
       <path id="DejaVuSans-71" d="M 947 1747 
Q 947 1113 1208 752 
Q 1469 391 1925 391 
Q 2381 391 2643 752 
Q 2906 1113 2906 1747 
Q 2906 2381 2643 2742 
Q 2381 3103 1925 3103 
Q 1469 3103 1208 2742 
Q 947 2381 947 1747 
z
M 2906 525 
Q 2725 213 2448 61 
Q 2172 -91 1784 -91 
Q 1150 -91 751 415 
Q 353 922 353 1747 
Q 353 2572 751 3078 
Q 1150 3584 1784 3584 
Q 2172 3584 2448 3432 
Q 2725 3281 2906 2969 
L 2906 3500 
L 3481 3500 
L 3481 -1331 
L 2906 -1331 
L 2906 525 
z
" transform="scale(0.015625)"/>
       <path id="DejaVuSans-63" d="M 3122 3366 
L 3122 2828 
Q 2878 2963 2633 3030 
Q 2388 3097 2138 3097 
Q 1578 3097 1268 2742 
Q 959 2388 959 1747 
Q 959 1106 1268 751 
Q 1578 397 2138 397 
Q 2388 397 2633 464 
Q 2878 531 3122 666 
L 3122 134 
Q 2881 22 2623 -34 
Q 2366 -91 2075 -91 
Q 1284 -91 818 406 
Q 353 903 353 1747 
Q 353 2603 823 3093 
Q 1294 3584 2113 3584 
Q 2378 3584 2631 3529 
Q 2884 3475 3122 3366 
z
" transform="scale(0.015625)"/>
      </defs>
      <use xlink:href="#DejaVuSans-71"/>
      <use xlink:href="#DejaVuSans-63" x="63.476562"/>
     </g>
    </g>
    <g id="line2d_17">
     <path d="M 66.6 69.248562 
L 76.6 69.248562 
L 86.6 69.248562 
" style="fill: none; stroke: #ff7f0e; stroke-width: 1.5; stroke-linecap: square"/>
    </g>
    <g id="text_17">
     <!-- Trotter -->
     <g transform="translate(94.6 72.748562) scale(0.1 -0.1)">
      <defs>
       <path id="DejaVuSans-54" d="M -19 4666 
L 3928 4666 
L 3928 4134 
L 2272 4134 
L 2272 0 
L 1638 0 
L 1638 4134 
L -19 4134 
L -19 4666 
z
" transform="scale(0.015625)"/>
       <path id="DejaVuSans-72" d="M 2631 2963 
Q 2534 3019 2420 3045 
Q 2306 3072 2169 3072 
Q 1681 3072 1420 2755 
Q 1159 2438 1159 1844 
L 1159 0 
L 581 0 
L 581 3500 
L 1159 3500 
L 1159 2956 
Q 1341 3275 1631 3429 
Q 1922 3584 2338 3584 
Q 2397 3584 2469 3576 
Q 2541 3569 2628 3553 
L 2631 2963 
z
" transform="scale(0.015625)"/>
       <path id="DejaVuSans-6f" d="M 1959 3097 
Q 1497 3097 1228 2736 
Q 959 2375 959 1747 
Q 959 1119 1226 758 
Q 1494 397 1959 397 
Q 2419 397 2687 759 
Q 2956 1122 2956 1747 
Q 2956 2369 2687 2733 
Q 2419 3097 1959 3097 
z
M 1959 3584 
Q 2709 3584 3137 3096 
Q 3566 2609 3566 1747 
Q 3566 888 3137 398 
Q 2709 -91 1959 -91 
Q 1206 -91 779 398 
Q 353 888 353 1747 
Q 353 2609 779 3096 
Q 1206 3584 1959 3584 
z
" transform="scale(0.015625)"/>
       <path id="DejaVuSans-65" d="M 3597 1894 
L 3597 1613 
L 953 1613 
Q 991 1019 1311 708 
Q 1631 397 2203 397 
Q 2534 397 2845 478 
Q 3156 559 3463 722 
L 3463 178 
Q 3153 47 2828 -22 
Q 2503 -91 2169 -91 
Q 1331 -91 842 396 
Q 353 884 353 1716 
Q 353 2575 817 3079 
Q 1281 3584 2069 3584 
Q 2775 3584 3186 3129 
Q 3597 2675 3597 1894 
z
M 3022 2063 
Q 3016 2534 2758 2815 
Q 2500 3097 2075 3097 
Q 1594 3097 1305 2825 
Q 1016 2553 972 2059 
L 3022 2063 
z
" transform="scale(0.015625)"/>
      </defs>
      <use xlink:href="#DejaVuSans-54"/>
      <use xlink:href="#DejaVuSans-72" x="46.333984"/>
      <use xlink:href="#DejaVuSans-6f" x="85.197266"/>
      <use xlink:href="#DejaVuSans-74" x="146.378906"/>
      <use xlink:href="#DejaVuSans-74" x="185.587891"/>
      <use xlink:href="#DejaVuSans-65" x="224.796875"/>
      <use xlink:href="#DejaVuSans-72" x="286.320312"/>
     </g>
    </g>
   </g>
  </g>
 </g>
 <defs>
  <clipPath id="p839ef3a5be">
   <rect x="57.6" y="41.472" width="357.12" height="266.112"/>
  </clipPath>
 </defs>
</svg>
