<?xml version="1.0" encoding="utf-8" standalone="no"?>
<!DOCTYPE svg PUBLIC "-//W3C//DTD SVG 1.1//EN"
  "http://www.w3.org/Graphics/SVG/1.1/DTD/svg11.dtd">
<svg xmlns:xlink="http://www.w3.org/1999/xlink" width="460.8pt" height="345.6pt" viewBox="0 0 460.8 345.6" xmlns="http://www.w3.org/2000/svg" version="1.1">
 <metadata>
  <rdf:RDF xmlns:dc="http://purl.org/dc/elements/1.1/" xmlns:cc="http://creativecommons.org/ns#" xmlns:rdf="http://www.w3.org/1999/02/22-rdf-syntax-ns#">
   <cc:Work>
    <dc:type rdf:resource="http://purl.org/dc/dcmitype/StillImage"/>
    <dc:date>2024-07-05T11:55:42.222565</dc:date>
    <dc:format>image/svg+xml</dc:format>
    <dc:creator>
     <cc:Agent>
      <dc:title>Matplotlib v3.7.1, https://matplotlib.org/</dc:title>
     </cc:Agent>
    </dc:creator>
   </cc:Work>
  </rdf:RDF>
 </metadata>
 <defs>
  <style type="text/css">*{stroke-linejoin: round; stroke-linecap: butt}</style>
 </defs>
 <g id="figure_1">
  <g id="patch_1">
   <path d="M 0 345.6 
L 460.8 345.6 
L 460.8 0 
L 0 0 
z
" style="fill: #ffffff"/>
  </g>
  <g id="axes_1">
   <g id="patch_2">
    <path d="M 57.6 307.584 
L 414.72 307.584 
L 414.72 41.472 
L 57.6 41.472 
z
" style="fill: #ffffff"/>
   </g>
   <g id="matplotlib.axis_1">
    <g id="xtick_1">
     <g id="line2d_1">
      <defs>
       <path id="md226c7201a" d="M 0 0 
L 0 3.5 
" style="stroke: #000000; stroke-width: 0.8"/>
      </defs>
      <g>
       <use xlink:href="#md226c7201a" x="73.832727" y="307.584" style="stroke: #000000; stroke-width: 0.8"/>
      </g>
     </g>
     <g id="text_1">
      <!-- 0 -->
      <g transform="translate(70.651477 322.182437) scale(0.1 -0.1)">
       <defs>
        <path id="DejaVuSans-30" d="M 2034 4250 
Q 1547 4250 1301 3770 
Q 1056 3291 1056 2328 
Q 1056 1369 1301 889 
Q 1547 409 2034 409 
Q 2525 409 2770 889 
Q 3016 1369 3016 2328 
Q 3016 3291 2770 3770 
Q 2525 4250 2034 4250 
z
M 2034 4750 
Q 2819 4750 3233 4129 
Q 3647 3509 3647 2328 
Q 3647 1150 3233 529 
Q 2819 -91 2034 -91 
Q 1250 -91 836 529 
Q 422 1150 422 2328 
Q 422 3509 836 4129 
Q 1250 4750 2034 4750 
z
" transform="scale(0.015625)"/>
       </defs>
       <use xlink:href="#DejaVuSans-30"/>
      </g>
     </g>
    </g>
    <g id="xtick_2">
     <g id="line2d_2">
      <g>
       <use xlink:href="#md226c7201a" x="137.303802" y="307.584" style="stroke: #000000; stroke-width: 0.8"/>
      </g>
     </g>
     <g id="text_2">
      <!-- 200 -->
      <g transform="translate(127.760052 322.182437) scale(0.1 -0.1)">
       <defs>
        <path id="DejaVuSans-32" d="M 1228 531 
L 3431 531 
L 3431 0 
L 469 0 
L 469 531 
Q 828 903 1448 1529 
Q 2069 2156 2228 2338 
Q 2531 2678 2651 2914 
Q 2772 3150 2772 3378 
Q 2772 3750 2511 3984 
Q 2250 4219 1831 4219 
Q 1534 4219 1204 4116 
Q 875 4013 500 3803 
L 500 4441 
Q 881 4594 1212 4672 
Q 1544 4750 1819 4750 
Q 2544 4750 2975 4387 
Q 3406 4025 3406 3419 
Q 3406 3131 3298 2873 
Q 3191 2616 2906 2266 
Q 2828 2175 2409 1742 
Q 1991 1309 1228 531 
z
" transform="scale(0.015625)"/>
       </defs>
       <use xlink:href="#DejaVuSans-32"/>
       <use xlink:href="#DejaVuSans-30" x="63.623047"/>
       <use xlink:href="#DejaVuSans-30" x="127.246094"/>
      </g>
     </g>
    </g>
    <g id="xtick_3">
     <g id="line2d_3">
      <g>
       <use xlink:href="#md226c7201a" x="200.774876" y="307.584" style="stroke: #000000; stroke-width: 0.8"/>
      </g>
     </g>
     <g id="text_3">
      <!-- 400 -->
      <g transform="translate(191.231126 322.182437) scale(0.1 -0.1)">
       <defs>
        <path id="DejaVuSans-34" d="M 2419 4116 
L 825 1625 
L 2419 1625 
L 2419 4116 
z
M 2253 4666 
L 3047 4666 
L 3047 1625 
L 3713 1625 
L 3713 1100 
L 3047 1100 
L 3047 0 
L 2419 0 
L 2419 1100 
L 313 1100 
L 313 1709 
L 2253 4666 
z
" transform="scale(0.015625)"/>
       </defs>
       <use xlink:href="#DejaVuSans-34"/>
       <use xlink:href="#DejaVuSans-30" x="63.623047"/>
       <use xlink:href="#DejaVuSans-30" x="127.246094"/>
      </g>
     </g>
    </g>
    <g id="xtick_4">
     <g id="line2d_4">
      <g>
       <use xlink:href="#md226c7201a" x="264.24595" y="307.584" style="stroke: #000000; stroke-width: 0.8"/>
      </g>
     </g>
     <g id="text_4">
      <!-- 600 -->
      <g transform="translate(254.7022 322.182437) scale(0.1 -0.1)">
       <defs>
        <path id="DejaVuSans-36" d="M 2113 2584 
Q 1688 2584 1439 2293 
Q 1191 2003 1191 1497 
Q 1191 994 1439 701 
Q 1688 409 2113 409 
Q 2538 409 2786 701 
Q 3034 994 3034 1497 
Q 3034 2003 2786 2293 
Q 2538 2584 2113 2584 
z
M 3366 4563 
L 3366 3988 
Q 3128 4100 2886 4159 
Q 2644 4219 2406 4219 
Q 1781 4219 1451 3797 
Q 1122 3375 1075 2522 
Q 1259 2794 1537 2939 
Q 1816 3084 2150 3084 
Q 2853 3084 3261 2657 
Q 3669 2231 3669 1497 
Q 3669 778 3244 343 
Q 2819 -91 2113 -91 
Q 1303 -91 875 529 
Q 447 1150 447 2328 
Q 447 3434 972 4092 
Q 1497 4750 2381 4750 
Q 2619 4750 2861 4703 
Q 3103 4656 3366 4563 
z
" transform="scale(0.015625)"/>
       </defs>
       <use xlink:href="#DejaVuSans-36"/>
       <use xlink:href="#DejaVuSans-30" x="63.623047"/>
       <use xlink:href="#DejaVuSans-30" x="127.246094"/>
      </g>
     </g>
    </g>
    <g id="xtick_5">
     <g id="line2d_5">
      <g>
       <use xlink:href="#md226c7201a" x="327.717025" y="307.584" style="stroke: #000000; stroke-width: 0.8"/>
      </g>
     </g>
     <g id="text_5">
      <!-- 800 -->
      <g transform="translate(318.173275 322.182437) scale(0.1 -0.1)">
       <defs>
        <path id="DejaVuSans-38" d="M 2034 2216 
Q 1584 2216 1326 1975 
Q 1069 1734 1069 1313 
Q 1069 891 1326 650 
Q 1584 409 2034 409 
Q 2484 409 2743 651 
Q 3003 894 3003 1313 
Q 3003 1734 2745 1975 
Q 2488 2216 2034 2216 
z
M 1403 2484 
Q 997 2584 770 2862 
Q 544 3141 544 3541 
Q 544 4100 942 4425 
Q 1341 4750 2034 4750 
Q 2731 4750 3128 4425 
Q 3525 4100 3525 3541 
Q 3525 3141 3298 2862 
Q 3072 2584 2669 2484 
Q 3125 2378 3379 2068 
Q 3634 1759 3634 1313 
Q 3634 634 3220 271 
Q 2806 -91 2034 -91 
Q 1263 -91 848 271 
Q 434 634 434 1313 
Q 434 1759 690 2068 
Q 947 2378 1403 2484 
z
M 1172 3481 
Q 1172 3119 1398 2916 
Q 1625 2713 2034 2713 
Q 2441 2713 2670 2916 
Q 2900 3119 2900 3481 
Q 2900 3844 2670 4047 
Q 2441 4250 2034 4250 
Q 1625 4250 1398 4047 
Q 1172 3844 1172 3481 
z
" transform="scale(0.015625)"/>
       </defs>
       <use xlink:href="#DejaVuSans-38"/>
       <use xlink:href="#DejaVuSans-30" x="63.623047"/>
       <use xlink:href="#DejaVuSans-30" x="127.246094"/>
      </g>
     </g>
    </g>
    <g id="xtick_6">
     <g id="line2d_6">
      <g>
       <use xlink:href="#md226c7201a" x="391.188099" y="307.584" style="stroke: #000000; stroke-width: 0.8"/>
      </g>
     </g>
     <g id="text_6">
      <!-- 1000 -->
      <g transform="translate(378.463099 322.182437) scale(0.1 -0.1)">
       <defs>
        <path id="DejaVuSans-31" d="M 794 531 
L 1825 531 
L 1825 4091 
L 703 3866 
L 703 4441 
L 1819 4666 
L 2450 4666 
L 2450 531 
L 3481 531 
L 3481 0 
L 794 0 
L 794 531 
z
" transform="scale(0.015625)"/>
       </defs>
       <use xlink:href="#DejaVuSans-31"/>
       <use xlink:href="#DejaVuSans-30" x="63.623047"/>
       <use xlink:href="#DejaVuSans-30" x="127.246094"/>
       <use xlink:href="#DejaVuSans-30" x="190.869141"/>
      </g>
     </g>
    </g>
    <g id="text_7">
     <!-- n -->
     <g transform="translate(232.99125 335.860562) scale(0.1 -0.1)">
      <defs>
       <path id="DejaVuSans-6e" d="M 3513 2113 
L 3513 0 
L 2938 0 
L 2938 2094 
Q 2938 2591 2744 2837 
Q 2550 3084 2163 3084 
Q 1697 3084 1428 2787 
Q 1159 2491 1159 1978 
L 1159 0 
L 581 0 
L 581 3500 
L 1159 3500 
L 1159 2956 
Q 1366 3272 1645 3428 
Q 1925 3584 2291 3584 
Q 2894 3584 3203 3211 
Q 3513 2838 3513 2113 
z
" transform="scale(0.015625)"/>
      </defs>
      <use xlink:href="#DejaVuSans-6e"/>
     </g>
    </g>
   </g>
   <g id="matplotlib.axis_2">
    <g id="ytick_1">
     <g id="line2d_7">
      <defs>
       <path id="mcc32cd8353" d="M 0 0 
L -3.5 0 
" style="stroke: #000000; stroke-width: 0.8"/>
      </defs>
      <g>
       <use xlink:href="#mcc32cd8353" x="57.6" y="306.640609" style="stroke: #000000; stroke-width: 0.8"/>
      </g>
     </g>
     <g id="text_8">
      <!-- −0.20 -->
      <g transform="translate(19.954687 310.439828) scale(0.1 -0.1)">
       <defs>
        <path id="DejaVuSans-2212" d="M 678 2272 
L 4684 2272 
L 4684 1741 
L 678 1741 
L 678 2272 
z
" transform="scale(0.015625)"/>
        <path id="DejaVuSans-2e" d="M 684 794 
L 1344 794 
L 1344 0 
L 684 0 
L 684 794 
z
" transform="scale(0.015625)"/>
       </defs>
       <use xlink:href="#DejaVuSans-2212"/>
       <use xlink:href="#DejaVuSans-30" x="83.789062"/>
       <use xlink:href="#DejaVuSans-2e" x="147.412109"/>
       <use xlink:href="#DejaVuSans-32" x="179.199219"/>
       <use xlink:href="#DejaVuSans-30" x="242.822266"/>
      </g>
     </g>
    </g>
    <g id="ytick_2">
     <g id="line2d_8">
      <g>
       <use xlink:href="#mcc32cd8353" x="57.6" y="276.65272" style="stroke: #000000; stroke-width: 0.8"/>
      </g>
     </g>
     <g id="text_9">
      <!-- −0.15 -->
      <g transform="translate(19.954687 280.451939) scale(0.1 -0.1)">
       <defs>
        <path id="DejaVuSans-35" d="M 691 4666 
L 3169 4666 
L 3169 4134 
L 1269 4134 
L 1269 2991 
Q 1406 3038 1543 3061 
Q 1681 3084 1819 3084 
Q 2600 3084 3056 2656 
Q 3513 2228 3513 1497 
Q 3513 744 3044 326 
Q 2575 -91 1722 -91 
Q 1428 -91 1123 -41 
Q 819 9 494 109 
L 494 744 
Q 775 591 1075 516 
Q 1375 441 1709 441 
Q 2250 441 2565 725 
Q 2881 1009 2881 1497 
Q 2881 1984 2565 2268 
Q 2250 2553 1709 2553 
Q 1456 2553 1204 2497 
Q 953 2441 691 2322 
L 691 4666 
z
" transform="scale(0.015625)"/>
       </defs>
       <use xlink:href="#DejaVuSans-2212"/>
       <use xlink:href="#DejaVuSans-30" x="83.789062"/>
       <use xlink:href="#DejaVuSans-2e" x="147.412109"/>
       <use xlink:href="#DejaVuSans-31" x="179.199219"/>
       <use xlink:href="#DejaVuSans-35" x="242.822266"/>
      </g>
     </g>
    </g>
    <g id="ytick_3">
     <g id="line2d_9">
      <g>
       <use xlink:href="#mcc32cd8353" x="57.6" y="246.664831" style="stroke: #000000; stroke-width: 0.8"/>
      </g>
     </g>
     <g id="text_10">
      <!-- −0.10 -->
      <g transform="translate(19.954687 250.46405) scale(0.1 -0.1)">
       <use xlink:href="#DejaVuSans-2212"/>
       <use xlink:href="#DejaVuSans-30" x="83.789062"/>
       <use xlink:href="#DejaVuSans-2e" x="147.412109"/>
       <use xlink:href="#DejaVuSans-31" x="179.199219"/>
       <use xlink:href="#DejaVuSans-30" x="242.822266"/>
      </g>
     </g>
    </g>
    <g id="ytick_4">
     <g id="line2d_10">
      <g>
       <use xlink:href="#mcc32cd8353" x="57.6" y="216.676942" style="stroke: #000000; stroke-width: 0.8"/>
      </g>
     </g>
     <g id="text_11">
      <!-- −0.05 -->
      <g transform="translate(19.954687 220.476161) scale(0.1 -0.1)">
       <use xlink:href="#DejaVuSans-2212"/>
       <use xlink:href="#DejaVuSans-30" x="83.789062"/>
       <use xlink:href="#DejaVuSans-2e" x="147.412109"/>
       <use xlink:href="#DejaVuSans-30" x="179.199219"/>
       <use xlink:href="#DejaVuSans-35" x="242.822266"/>
      </g>
     </g>
    </g>
    <g id="ytick_5">
     <g id="line2d_11">
      <g>
       <use xlink:href="#mcc32cd8353" x="57.6" y="186.689053" style="stroke: #000000; stroke-width: 0.8"/>
      </g>
     </g>
     <g id="text_12">
      <!-- 0.00 -->
      <g transform="translate(28.334375 190.488272) scale(0.1 -0.1)">
       <use xlink:href="#DejaVuSans-30"/>
       <use xlink:href="#DejaVuSans-2e" x="63.623047"/>
       <use xlink:href="#DejaVuSans-30" x="95.410156"/>
       <use xlink:href="#DejaVuSans-30" x="159.033203"/>
      </g>
     </g>
    </g>
    <g id="ytick_6">
     <g id="line2d_12">
      <g>
       <use xlink:href="#mcc32cd8353" x="57.6" y="156.701164" style="stroke: #000000; stroke-width: 0.8"/>
      </g>
     </g>
     <g id="text_13">
      <!-- 0.05 -->
      <g transform="translate(28.334375 160.500383) scale(0.1 -0.1)">
       <use xlink:href="#DejaVuSans-30"/>
       <use xlink:href="#DejaVuSans-2e" x="63.623047"/>
       <use xlink:href="#DejaVuSans-30" x="95.410156"/>
       <use xlink:href="#DejaVuSans-35" x="159.033203"/>
      </g>
     </g>
    </g>
    <g id="ytick_7">
     <g id="line2d_13">
      <g>
       <use xlink:href="#mcc32cd8353" x="57.6" y="126.713276" style="stroke: #000000; stroke-width: 0.8"/>
      </g>
     </g>
     <g id="text_14">
      <!-- 0.10 -->
      <g transform="translate(28.334375 130.512494) scale(0.1 -0.1)">
       <use xlink:href="#DejaVuSans-30"/>
       <use xlink:href="#DejaVuSans-2e" x="63.623047"/>
       <use xlink:href="#DejaVuSans-31" x="95.410156"/>
       <use xlink:href="#DejaVuSans-30" x="159.033203"/>
      </g>
     </g>
    </g>
    <g id="ytick_8">
     <g id="line2d_14">
      <g>
       <use xlink:href="#mcc32cd8353" x="57.6" y="96.725387" style="stroke: #000000; stroke-width: 0.8"/>
      </g>
     </g>
     <g id="text_15">
      <!-- 0.15 -->
      <g transform="translate(28.334375 100.524605) scale(0.1 -0.1)">
       <use xlink:href="#DejaVuSans-30"/>
       <use xlink:href="#DejaVuSans-2e" x="63.623047"/>
       <use xlink:href="#DejaVuSans-31" x="95.410156"/>
       <use xlink:href="#DejaVuSans-35" x="159.033203"/>
      </g>
     </g>
    </g>
    <g id="ytick_9">
     <g id="line2d_15">
      <g>
       <use xlink:href="#mcc32cd8353" x="57.6" y="66.737498" style="stroke: #000000; stroke-width: 0.8"/>
      </g>
     </g>
     <g id="text_16">
      <!-- 0.20 -->
      <g transform="translate(28.334375 70.536717) scale(0.1 -0.1)">
       <use xlink:href="#DejaVuSans-30"/>
       <use xlink:href="#DejaVuSans-2e" x="63.623047"/>
       <use xlink:href="#DejaVuSans-32" x="95.410156"/>
       <use xlink:href="#DejaVuSans-30" x="159.033203"/>
      </g>
     </g>
    </g>
    <g id="text_17">
     <!-- E*t -->
     <g transform="translate(13.875 182.147531) rotate(-90) scale(0.1 -0.1)">
      <defs>
       <path id="DejaVuSans-45" d="M 628 4666 
L 3578 4666 
L 3578 4134 
L 1259 4134 
L 1259 2753 
L 3481 2753 
L 3481 2222 
L 1259 2222 
L 1259 531 
L 3634 531 
L 3634 0 
L 628 0 
L 628 4666 
z
" transform="scale(0.015625)"/>
       <path id="DejaVuSans-2a" d="M 3009 3897 
L 1888 3291 
L 3009 2681 
L 2828 2375 
L 1778 3009 
L 1778 1831 
L 1422 1831 
L 1422 3009 
L 372 2375 
L 191 2681 
L 1313 3291 
L 191 3897 
L 372 4206 
L 1422 3572 
L 1422 4750 
L 1778 4750 
L 1778 3572 
L 2828 4206 
L 3009 3897 
z
" transform="scale(0.015625)"/>
       <path id="DejaVuSans-74" d="M 1172 4494 
L 1172 3500 
L 2356 3500 
L 2356 3053 
L 1172 3053 
L 1172 1153 
Q 1172 725 1289 603 
Q 1406 481 1766 481 
L 2356 481 
L 2356 0 
L 1766 0 
Q 1100 0 847 248 
Q 594 497 594 1153 
L 594 3053 
L 172 3053 
L 172 3500 
L 594 3500 
L 594 4494 
L 1172 4494 
z
" transform="scale(0.015625)"/>
      </defs>
      <use xlink:href="#DejaVuSans-45"/>
      <use xlink:href="#DejaVuSans-2a" x="63.183594"/>
      <use xlink:href="#DejaVuSans-74" x="113.183594"/>
     </g>
    </g>
   </g>
   <g id="line2d_16">
    <path d="M 73.832727 295.488 
L 74.467438 283.805576 
L 74.784793 282.025472 
L 75.102149 281.58639 
L 76.054215 275.599111 
L 76.37157 275.119626 
L 77.640992 272.244227 
L 78.275702 270.97207 
L 78.593058 269.267833 
L 78.910413 268.737208 
L 79.227769 268.489278 
L 79.545124 268.020219 
L 79.862479 267.833608 
L 80.814545 266.008328 
L 81.131901 265.332391 
L 81.449256 264.938788 
L 82.083967 263.51891 
L 82.401322 263.324583 
L 83.036033 262.286294 
L 83.353388 262.054805 
L 83.670744 261.528827 
L 83.988099 261.340234 
L 84.62281 260.551283 
L 84.940165 260.532 
L 85.574876 259.43652 
L 87.796364 257.071538 
L 88.113719 256.957008 
L 89.065785 255.853462 
L 90.017851 254.924064 
L 91.921983 253.808395 
L 92.87405 252.726545 
L 93.826116 252.102995 
L 94.143471 251.668981 
L 94.460826 251.534678 
L 95.412893 250.892023 
L 96.364959 250.168863 
L 96.999669 249.617911 
L 97.317025 249.525434 
L 98.269091 248.831894 
L 98.586446 248.411745 
L 100.490579 247.167837 
L 100.807934 246.85528 
L 101.442645 246.563421 
L 102.394711 245.906618 
L 103.029421 245.556093 
L 105.250909 244.37362 
L 105.568264 244.011775 
L 106.202975 243.719911 
L 106.837686 243.358204 
L 108.424463 242.47852 
L 109.693884 241.747256 
L 110.64595 241.167835 
L 112.550083 239.89478 
L 113.184793 239.666241 
L 114.77157 238.869339 
L 115.088926 238.531345 
L 115.406281 238.392963 
L 115.723636 238.036977 
L 116.675702 237.712452 
L 117.310413 237.41172 
L 118.262479 236.952093 
L 118.579835 236.897394 
L 118.89719 236.51067 
L 120.166612 236.054686 
L 120.483967 235.745928 
L 121.118678 235.536854 
L 121.436033 235.250983 
L 122.070744 235.030364 
L 122.705455 234.668309 
L 123.340165 234.373658 
L 123.657521 234.312896 
L 124.292231 233.996463 
L 124.609587 233.926605 
L 125.244298 233.360347 
L 126.513719 232.732737 
L 128.735207 231.828534 
L 130.321983 230.862641 
L 130.956694 230.678549 
L 131.90876 230.238911 
L 132.543471 229.822439 
L 132.860826 229.76835 
L 133.178182 229.496801 
L 133.812893 229.313946 
L 134.447603 228.95813 
L 136.03438 228.278065 
L 137.621157 227.465026 
L 138.255868 227.292431 
L 138.890579 227.017238 
L 139.207934 226.991153 
L 141.112066 226.084646 
L 141.746777 225.716616 
L 144.602975 224.458763 
L 144.920331 224.438189 
L 145.555041 224.1244 
L 146.189752 223.880374 
L 147.141818 223.487825 
L 148.093884 223.081664 
L 149.363306 222.400874 
L 149.998017 222.26403 
L 150.315372 222.038814 
L 150.950083 221.824415 
L 151.584793 221.570382 
L 154.123636 220.544251 
L 155.075702 219.941295 
L 155.710413 219.845266 
L 157.614545 219.046242 
L 158.249256 218.8423 
L 163.644298 216.538858 
L 164.279008 216.391356 
L 166.817851 215.348313 
L 167.452562 215.120408 
L 167.769917 215.062569 
L 168.404628 214.690046 
L 168.721983 214.652215 
L 169.039339 214.459173 
L 169.67405 214.361442 
L 169.991405 214.101496 
L 170.943471 213.860305 
L 171.578182 213.606844 
L 176.973223 211.532768 
L 177.290579 211.276088 
L 178.242645 211.043128 
L 178.877355 210.634399 
L 181.416198 209.656464 
L 181.733554 209.636958 
L 182.368264 209.344667 
L 182.68562 209.289945 
L 183.002975 209.025694 
L 183.955041 208.770149 
L 184.589752 208.513488 
L 186.176529 207.945985 
L 190.93686 206.31303 
L 191.888926 205.916602 
L 192.206281 205.888113 
L 193.158347 205.51037 
L 193.475702 205.426771 
L 194.110413 205.143866 
L 196.014545 204.561059 
L 197.601322 203.927057 
L 198.553388 203.601974 
L 202.679008 202.107162 
L 202.996364 201.897592 
L 203.94843 201.619569 
L 204.900496 201.28013 
L 205.535207 201.051849 
L 206.487273 200.606908 
L 208.07405 200.106562 
L 218.229421 196.693926 
L 218.546777 196.641564 
L 218.864132 196.422586 
L 219.181488 196.37479 
L 219.498843 196.154767 
L 220.133554 195.992752 
L 221.08562 195.674586 
L 221.720331 195.471442 
L 222.989752 194.964122 
L 223.941818 194.671271 
L 224.893884 194.377366 
L 226.480661 193.853351 
L 227.115372 193.586212 
L 233.145124 191.427062 
L 233.779835 191.21243 
L 234.731901 190.789342 
L 235.683967 190.561569 
L 236.001322 190.359841 
L 236.636033 190.173397 
L 236.953388 189.978316 
L 237.270744 189.95814 
L 238.540165 189.498915 
L 239.492231 189.10079 
L 240.444298 188.741938 
L 241.079008 188.514066 
L 243.617851 187.687051 
L 244.252562 187.359669 
L 246.156694 186.892696 
L 246.791405 186.682825 
L 247.10876 186.483977 
L 248.060826 186.244738 
L 249.964959 185.382983 
L 250.599669 185.149201 
L 250.917025 185.121483 
L 252.503802 184.512458 
L 253.138512 184.33674 
L 254.090579 183.982901 
L 257.581488 182.767843 
L 258.216198 182.447937 
L 261.072397 181.522952 
L 261.389752 181.23057 
L 262.024463 181.037973 
L 262.659174 180.81652 
L 263.61124 180.525475 
L 265.832727 179.854611 
L 266.150083 179.618328 
L 267.102149 179.286121 
L 269.006281 178.71053 
L 271.862479 177.627374 
L 272.49719 177.311092 
L 274.083967 176.854364 
L 274.718678 176.479593 
L 275.670744 176.181392 
L 276.62281 175.836925 
L 276.940165 175.769583 
L 277.892231 175.33097 
L 278.526942 175.064679 
L 278.844298 174.868578 
L 279.479008 174.716181 
L 281.38314 173.94691 
L 282.017851 173.796736 
L 283.604628 173.096995 
L 284.556694 172.79259 
L 285.50876 172.35353 
L 285.826116 172.28491 
L 286.460826 171.951106 
L 288.682314 171.283606 
L 291.221157 170.010291 
L 291.855868 169.90956 
L 293.125289 169.314709 
L 294.077355 168.945729 
L 294.394711 168.749927 
L 295.029421 168.588039 
L 295.346777 168.380253 
L 295.981488 168.1722 
L 298.837686 166.945319 
L 299.155041 166.684145 
L 300.107107 166.310575 
L 300.424463 166.118541 
L 300.741818 166.07997 
L 302.328595 165.403203 
L 303.915372 164.73191 
L 304.232727 164.515144 
L 304.867438 164.380843 
L 306.77157 163.60673 
L 307.088926 163.538941 
L 308.040992 163.03951 
L 308.675702 162.819877 
L 309.627769 162.290656 
L 310.89719 161.737419 
L 312.483967 160.913039 
L 312.801322 160.827515 
L 313.118678 160.565584 
L 313.753388 160.383681 
L 314.070744 160.182836 
L 314.705455 159.941417 
L 315.974876 159.365035 
L 316.926942 158.874112 
L 317.561653 158.704557 
L 318.196364 158.35033 
L 318.513719 158.262907 
L 319.14843 157.852889 
L 322.321983 156.348137 
L 322.639339 156.137546 
L 323.27405 155.88457 
L 323.90876 155.551813 
L 324.543471 155.216831 
L 326.447603 154.47418 
L 328.986446 153.069787 
L 329.303802 152.719076 
L 330.573223 152.123636 
L 331.525289 151.591313 
L 331.842645 151.328037 
L 333.112066 150.921709 
L 333.429421 150.629478 
L 334.381488 150.394115 
L 337.237686 148.649371 
L 337.872397 148.368866 
L 338.824463 147.720837 
L 339.141818 147.690864 
L 339.459174 147.406329 
L 340.728595 146.873758 
L 341.04595 146.619859 
L 341.363306 146.577264 
L 341.680661 146.24759 
L 342.632727 145.766308 
L 342.950083 145.472378 
L 343.584793 145.23976 
L 344.854215 144.357039 
L 345.17157 144.141515 
L 345.806281 143.912814 
L 346.123636 143.817027 
L 347.075702 143.202611 
L 348.345124 142.690531 
L 349.614545 141.794562 
L 349.931901 141.697023 
L 350.566612 140.93996 
L 351.201322 140.800013 
L 351.518678 140.420185 
L 352.153388 140.09532 
L 354.692231 138.422209 
L 355.326942 138.20637 
L 355.644298 137.798554 
L 355.961653 137.712624 
L 356.596364 137.150007 
L 356.913719 137.09475 
L 357.54843 136.666904 
L 358.500496 136.097053 
L 359.135207 135.569672 
L 360.721983 134.245631 
L 361.356694 133.929623 
L 361.67405 133.850778 
L 365.482314 130.741997 
L 365.799669 130.046168 
L 366.117025 129.914537 
L 366.751736 129.318398 
L 367.069091 129.233319 
L 368.021157 128.336264 
L 370.56 126.606127 
L 370.877355 126.188933 
L 371.829421 125.507692 
L 372.146777 125.05339 
L 372.464132 124.836421 
L 372.781488 124.371067 
L 373.416198 123.951656 
L 373.733554 123.448977 
L 374.050909 123.323083 
L 374.368264 123.03668 
L 374.68562 122.428502 
L 375.320331 121.679207 
L 375.637686 121.191381 
L 375.955041 121.008245 
L 376.589752 120.057154 
L 376.907107 119.853011 
L 377.541818 118.847599 
L 377.859174 118.720618 
L 378.176529 118.316543 
L 378.493884 118.147399 
L 379.44595 117.041116 
L 379.763306 116.970795 
L 380.398017 116.052179 
L 380.715372 115.86589 
L 381.032727 115.155513 
L 381.350083 114.797602 
L 381.667438 114.637594 
L 382.302149 113.383498 
L 382.93686 112.554841 
L 383.254215 111.995582 
L 383.57157 111.778963 
L 384.523636 110.285745 
L 384.840992 109.297522 
L 385.158347 109.250873 
L 385.475702 108.868187 
L 385.793058 108.23231 
L 386.427769 107.588987 
L 387.379835 105.748829 
L 387.69719 104.664002 
L 388.331901 103.911709 
L 388.649256 103.080549 
L 388.966612 102.738301 
L 389.918678 100.954618 
L 390.236033 100.408408 
L 391.188099 97.22629 
L 391.82281 95.693374 
L 392.140165 94.661335 
L 392.457521 94.25721 
L 392.774876 93.573694 
L 393.092231 93.30581 
L 393.409587 91.555256 
L 393.726942 91.383953 
L 394.361653 89.158606 
L 394.679008 88.616341 
L 394.996364 87.630349 
L 395.313719 85.065668 
L 396.265785 80.323828 
L 396.58314 78.40228 
L 397.535207 68.926434 
L 397.852562 64.585851 
L 398.169917 63.213055 
L 398.487273 53.568 
L 398.487273 53.568 
" clip-path="url(#p2dfe1b5bf5)" style="fill: none; stroke: #1f77b4; stroke-width: 1.5; stroke-linecap: square"/>
   </g>
   <g id="line2d_17">
    <path d="M 73.832727 258.571852 
L 74.150083 258.571852 
L 74.467438 257.924317 
L 74.784793 257.924317 
L 75.102149 257.002858 
L 75.419504 257.002858 
L 75.73686 256.639606 
L 76.054215 256.639606 
L 76.37157 256.486484 
L 76.688926 256.486484 
L 77.006281 256.169235 
L 77.323636 255.268094 
L 77.640992 255.268094 
L 77.958347 253.698 
L 78.275702 253.698 
L 78.593058 253.252261 
L 78.910413 252.43002 
L 79.227769 252.43002 
L 79.545124 251.558678 
L 79.862479 251.558678 
L 80.179835 250.621424 
L 81.131901 250.549188 
L 81.449256 250.167765 
L 81.766612 249.476196 
L 82.718678 249.388886 
L 83.353388 248.511302 
L 83.670744 248.511302 
L 83.988099 248.318423 
L 84.305455 248.318423 
L 84.940165 247.784249 
L 85.257521 247.057164 
L 86.209587 247.017291 
L 86.526942 246.761971 
L 86.844298 246.761971 
L 87.161653 246.536908 
L 87.479008 246.536908 
L 87.796364 245.514115 
L 88.113719 245.377784 
L 88.431074 245.001769 
L 88.74843 245.001769 
L 89.065785 244.747711 
L 89.38314 244.747711 
L 89.700496 244.516754 
L 90.017851 244.516754 
L 90.335207 244.331523 
L 90.652562 244.331523 
L 90.969917 244.140537 
L 91.287273 244.140537 
L 91.921983 243.726239 
L 92.239339 243.615782 
L 92.556694 243.24493 
L 93.191405 243.194238 
L 93.50876 242.287418 
L 94.460826 242.274814 
L 94.778182 241.995843 
L 95.730248 241.977978 
L 96.364959 241.410909 
L 97.63438 241.313458 
L 97.951736 240.558556 
L 98.269091 240.558556 
L 98.586446 240.392344 
L 98.903802 240.392344 
L 99.221157 240.025853 
L 99.538512 240.025853 
L 99.855868 239.805094 
L 100.490579 239.725752 
L 100.807934 239.17065 
L 101.125289 239.17065 
L 101.442645 238.919278 
L 101.76 238.919278 
L 102.394711 238.343808 
L 103.029421 238.278977 
L 103.346777 237.713093 
L 103.664132 237.713093 
L 103.981488 237.394412 
L 104.298843 237.394412 
L 104.616198 236.892799 
L 104.933554 236.892799 
L 105.568264 236.475651 
L 105.88562 236.475651 
L 106.202975 235.870784 
L 106.837686 235.801381 
L 107.155041 235.492485 
L 108.107107 235.431228 
L 108.424463 235.121328 
L 109.059174 235.110647 
L 109.376529 234.971647 
L 109.693884 234.971647 
L 110.01124 234.860283 
L 110.328595 234.561515 
L 111.280661 234.455502 
L 111.598017 234.251251 
L 111.915372 234.251251 
L 112.232727 233.835479 
L 112.867438 233.826357 
L 113.184793 233.682974 
L 113.502149 233.682974 
L 113.819504 233.479545 
L 114.13686 233.479545 
L 115.088926 232.922574 
L 115.406281 232.922574 
L 115.723636 232.637666 
L 116.040992 232.637666 
L 116.675702 232.011704 
L 117.310413 231.932797 
L 117.627769 231.373529 
L 117.945124 231.373529 
L 118.262479 230.679788 
L 118.579835 230.679788 
L 118.89719 230.424081 
L 119.214545 230.424081 
L 119.531901 230.195561 
L 119.849256 230.195561 
L 120.166612 229.878213 
L 121.753388 229.779081 
L 122.070744 229.016565 
L 123.02281 228.866197 
L 123.340165 228.660176 
L 123.974876 228.606483 
L 124.609587 227.619705 
L 124.926942 227.619705 
L 125.244298 227.441743 
L 125.561653 227.441743 
L 125.879008 227.241027 
L 126.196364 227.241027 
L 126.513719 227.046639 
L 127.14843 227.007439 
L 127.465785 226.88251 
L 127.78314 226.88251 
L 128.417851 226.464583 
L 132.543471 225.508721 
L 132.860826 225.330162 
L 133.178182 225.009736 
L 133.495537 225.009736 
L 133.812893 224.594986 
L 134.130248 224.594986 
L 134.447603 224.462776 
L 134.764959 224.462776 
L 135.082314 224.328396 
L 135.717025 224.236171 
L 136.351736 224.118016 
L 136.669091 224.118016 
L 136.986446 223.811309 
L 138.255868 223.742379 
L 138.890579 222.879628 
L 139.842645 222.660355 
L 140.16 222.334026 
L 140.477355 222.334026 
L 140.794711 221.903075 
L 141.112066 221.903075 
L 141.429421 221.573971 
L 142.381488 221.519266 
L 142.698843 221.360589 
L 143.968264 221.252722 
L 144.28562 221.035314 
L 144.602975 221.035314 
L 145.237686 220.405216 
L 146.507107 220.049943 
L 146.824463 219.424611 
L 147.141818 219.339117 
L 147.459174 219.011149 
L 147.776529 219.011149 
L 148.093884 218.845632 
L 148.41124 218.845632 
L 148.728595 218.298342 
L 149.04595 218.298342 
L 149.363306 218.035725 
L 149.680661 218.035725 
L 149.998017 217.600757 
L 151.267438 217.550713 
L 152.53686 217.366254 
L 153.488926 217.283967 
L 153.806281 217.254568 
L 154.123636 217.030969 
L 154.440992 217.030969 
L 154.758347 216.727429 
L 155.075702 216.227378 
L 155.710413 216.175604 
L 156.027769 215.926487 
L 156.979835 215.848337 
L 157.29719 215.399394 
L 158.249256 215.368035 
L 158.566612 215.1209 
L 159.836033 215.076063 
L 160.470744 214.110155 
L 161.42281 214.030374 
L 161.740165 213.451735 
L 162.692231 213.185867 
L 163.009587 213.185867 
L 163.326942 212.886364 
L 163.644298 212.886364 
L 164.279008 212.7742 
L 165.231074 212.700985 
L 165.54843 212.251862 
L 165.865785 212.013228 
L 166.817851 211.964045 
L 167.135207 211.757818 
L 167.452562 211.757818 
L 167.769917 210.913022 
L 168.404628 210.864039 
L 168.721983 210.548138 
L 169.356694 210.49659 
L 169.67405 210.11745 
L 170.30876 210.091341 
L 170.626116 209.923884 
L 171.578182 209.854629 
L 173.482314 209.44935 
L 173.799669 209.44935 
L 174.117025 208.901973 
L 175.069091 208.748259 
L 175.386446 208.431234 
L 175.703802 208.431234 
L 176.021157 208.156746 
L 176.338512 208.156746 
L 176.655868 207.821881 
L 177.290579 207.72845 
L 177.925289 207.625509 
L 182.368264 206.545606 
L 182.68562 206.100798 
L 183.320331 205.986421 
L 183.637686 205.572518 
L 183.955041 205.572518 
L 184.272397 205.362241 
L 184.907107 205.358572 
L 186.81124 204.623648 
L 187.128595 204.623648 
L 187.44595 204.017711 
L 187.763306 203.81473 
L 188.080661 203.81473 
L 188.398017 203.665888 
L 189.984793 203.576651 
L 190.93686 203.511341 
L 191.254215 203.204478 
L 191.57157 203.204478 
L 191.888926 203.023769 
L 192.206281 203.023769 
L 192.523636 202.886783 
L 192.840992 202.886783 
L 193.158347 202.568805 
L 193.793058 202.498937 
L 194.110413 202.446438 
L 194.745124 201.947262 
L 195.062479 201.947262 
L 195.69719 201.704719 
L 196.331901 201.61983 
L 196.649256 201.176327 
L 196.966612 201.176327 
L 197.601322 200.945488 
L 197.918678 200.945488 
L 198.553388 200.543711 
L 200.140165 200.437451 
L 200.774876 200.029648 
L 201.092231 200.029648 
L 201.409587 199.735697 
L 201.726942 199.735697 
L 202.044298 199.42763 
L 202.361653 199.42763 
L 202.679008 199.132619 
L 202.996364 199.132619 
L 203.313719 198.991779 
L 205.217851 198.891263 
L 205.535207 198.8003 
L 205.852562 198.170145 
L 206.487273 198.095563 
L 206.804628 197.828839 
L 207.756694 197.794006 
L 208.07405 197.562311 
L 208.391405 197.562311 
L 208.70876 197.261368 
L 209.660826 197.161617 
L 211.247603 196.691446 
L 211.564959 196.497741 
L 212.83438 196.383005 
L 213.469091 195.942319 
L 214.103802 195.90936 
L 214.421157 195.504719 
L 215.373223 195.397616 
L 215.690579 195.023185 
L 216.007934 195.023185 
L 216.642645 194.592638 
L 217.277355 194.522038 
L 218.864132 194.437269 
L 219.181488 194.105094 
L 219.498843 194.105094 
L 219.816198 193.863654 
L 220.450909 193.834647 
L 220.768264 193.453415 
L 221.08562 193.453415 
L 221.402975 193.181287 
L 222.355041 193.093375 
L 222.672397 192.884042 
L 223.941818 192.801211 
L 224.259174 192.498581 
L 226.163306 192.014228 
L 227.750083 191.618582 
L 228.067438 191.428653 
L 229.33686 191.384292 
L 229.654215 191.125798 
L 230.606281 191.04456 
L 230.923636 190.984829 
L 231.240992 190.554317 
L 231.875702 190.528361 
L 232.193058 190.294839 
L 232.510413 190.294839 
L 232.827769 189.884772 
L 233.145124 189.884772 
L 233.462479 189.650856 
L 234.414545 189.63401 
L 234.731901 189.27163 
L 235.366612 189.203131 
L 236.953388 188.755027 
L 237.270744 188.346613 
L 238.22281 188.292507 
L 239.174876 188.106337 
L 239.809587 187.543074 
L 240.444298 187.433239 
L 242.34843 187.099857 
L 242.665785 186.956265 
L 242.98314 186.946457 
L 243.300496 186.693154 
L 243.617851 186.693154 
L 243.935207 186.571989 
L 245.204628 186.488543 
L 245.839339 186.392951 
L 246.156694 186.027833 
L 246.791405 185.934931 
L 248.378182 185.83709 
L 248.695537 185.471304 
L 249.012893 185.313765 
L 249.330248 185.313765 
L 249.647603 185.178619 
L 249.964959 185.178619 
L 250.282314 184.913294 
L 250.599669 184.913294 
L 250.917025 184.732797 
L 251.23438 184.700504 
L 251.551736 184.483671 
L 251.869091 184.483671 
L 252.186446 184.18138 
L 252.821157 184.138493 
L 253.138512 183.780108 
L 253.455868 183.780108 
L 253.773223 183.423888 
L 254.407934 183.382749 
L 254.725289 182.969499 
L 257.264132 182.634287 
L 257.581488 182.398113 
L 258.216198 182.393 
L 258.533554 182.243469 
L 258.850909 182.243469 
L 259.168264 181.750909 
L 259.48562 181.750909 
L 260.120331 181.491114 
L 260.755041 181.429487 
L 262.024463 181.160712 
L 262.659174 181.100389 
L 262.976529 180.857692 
L 263.61124 180.846398 
L 263.928595 180.566273 
L 264.880661 180.398189 
L 265.198017 180.398189 
L 265.832727 179.969386 
L 266.150083 179.969386 
L 266.467438 179.79449 
L 266.784793 179.79449 
L 267.102149 179.432546 
L 268.688926 179.322668 
L 269.006281 179.180543 
L 269.323636 179.180543 
L 269.640992 179.0372 
L 269.958347 179.0372 
L 270.275702 178.894173 
L 270.593058 178.894173 
L 270.910413 178.687004 
L 271.227769 178.687004 
L 272.179835 178.309211 
L 272.49719 177.791841 
L 272.814545 177.791841 
L 273.449256 177.572504 
L 273.766612 177.572504 
L 274.083967 177.360614 
L 274.401322 177.360614 
L 274.718678 177.139369 
L 275.036033 177.139369 
L 275.353388 176.842722 
L 275.988099 176.80147 
L 276.62281 176.632472 
L 276.940165 176.632472 
L 277.892231 176.367712 
L 278.209587 175.914523 
L 278.526942 175.791901 
L 278.844298 175.791901 
L 279.161653 175.040044 
L 280.113719 174.995241 
L 280.431074 174.854012 
L 281.065785 174.812396 
L 281.700496 174.712238 
L 282.335207 174.18317 
L 282.652562 174.18317 
L 282.969917 173.726504 
L 283.287273 173.524078 
L 285.191405 173.276585 
L 285.826116 173.157996 
L 287.095537 172.85916 
L 287.412893 172.568024 
L 287.730248 172.568024 
L 288.364959 172.11911 
L 288.999669 172.00897 
L 289.63438 171.89559 
L 290.269091 171.804124 
L 290.586446 171.483743 
L 290.903802 171.483743 
L 291.538512 171.367104 
L 291.855868 171.367104 
L 292.173223 170.9572 
L 292.807934 170.929254 
L 293.125289 170.59978 
L 294.077355 170.529061 
L 294.394711 170.407659 
L 295.029421 169.689312 
L 295.981488 169.668148 
L 296.616198 169.518532 
L 296.933554 169.518532 
L 297.250909 169.355512 
L 297.568264 169.355512 
L 297.88562 169.071331 
L 298.202975 169.071331 
L 298.837686 168.599962 
L 299.155041 168.478605 
L 299.472397 168.478605 
L 300.107107 167.855278 
L 300.741818 167.769389 
L 301.059174 167.28247 
L 301.376529 167.28247 
L 301.693884 167.020257 
L 302.01124 167.020257 
L 302.328595 166.771502 
L 303.280661 166.65262 
L 303.598017 166.302451 
L 304.232727 166.217613 
L 304.867438 166.182383 
L 305.502149 165.719102 
L 305.819504 165.719102 
L 306.13686 165.470513 
L 307.088926 165.261347 
L 307.406281 164.419139 
L 307.723636 164.419139 
L 308.040992 163.97514 
L 309.627769 163.863112 
L 309.945124 163.583181 
L 310.262479 163.583181 
L 310.579835 163.364219 
L 311.214545 163.283866 
L 313.118678 162.62772 
L 313.436033 162.62772 
L 313.753388 162.402105 
L 314.705455 162.293095 
L 315.02281 162.071571 
L 315.340165 161.464697 
L 315.657521 161.464697 
L 316.292231 161.104167 
L 317.244298 161.044692 
L 317.561653 161.044692 
L 317.879008 160.876917 
L 318.513719 159.938344 
L 318.831074 159.938344 
L 319.14843 159.816746 
L 319.78314 159.813899 
L 320.417851 159.098405 
L 320.735207 159.098405 
L 321.369917 158.507686 
L 322.639339 158.438071 
L 322.956694 157.584433 
L 323.27405 157.584433 
L 323.90876 157.197662 
L 324.226116 157.197662 
L 324.543471 156.799703 
L 325.178182 156.797288 
L 325.495537 156.453674 
L 325.812893 156.453674 
L 326.130248 156.229757 
L 326.447603 156.180021 
L 327.082314 155.578339 
L 327.717025 155.496001 
L 328.03438 155.155147 
L 328.351736 155.155147 
L 328.669091 154.848915 
L 328.986446 154.848915 
L 329.303802 154.720529 
L 329.621157 154.720529 
L 329.938512 154.309806 
L 331.842645 154.159336 
L 332.16 154.049584 
L 332.477355 153.543843 
L 332.794711 153.543843 
L 333.112066 153.40892 
L 333.429421 153.093743 
L 334.381488 152.991937 
L 335.333554 152.968817 
L 335.650909 152.71045 
L 335.968264 152.260664 
L 336.28562 152.260664 
L 336.602975 151.983431 
L 336.920331 151.51617 
L 337.555041 151.486227 
L 337.872397 151.308665 
L 338.189752 151.308665 
L 338.507107 150.76537 
L 338.824463 150.76537 
L 339.141818 150.482977 
L 339.459174 150.350567 
L 339.776529 150.350567 
L 340.093884 149.838876 
L 340.728595 149.816928 
L 341.04595 148.892779 
L 341.363306 148.892779 
L 341.998017 148.775176 
L 342.950083 148.604985 
L 343.267438 148.278904 
L 343.902149 147.088902 
L 344.53686 147.062466 
L 344.854215 146.584531 
L 345.17157 146.423722 
L 345.806281 146.402403 
L 346.123636 145.87061 
L 346.440992 145.692486 
L 347.393058 145.640719 
L 347.710413 145.438945 
L 348.345124 145.357571 
L 348.979835 145.194541 
L 349.29719 145.194541 
L 349.614545 144.774125 
L 350.883967 144.672955 
L 351.201322 144.097852 
L 351.518678 143.789942 
L 351.836033 143.789942 
L 352.153388 143.417918 
L 352.788099 143.404727 
L 353.105455 143.138971 
L 353.42281 143.138971 
L 353.740165 142.844313 
L 354.057521 142.844313 
L 354.374876 142.58771 
L 354.692231 142.58771 
L 355.009587 142.464793 
L 355.326942 141.375279 
L 355.644298 141.375279 
L 355.961653 140.94173 
L 356.279008 140.94173 
L 356.596364 140.748306 
L 356.913719 140.247668 
L 357.231074 140.247668 
L 357.54843 139.873938 
L 357.865785 139.049527 
L 358.817851 138.950888 
L 359.135207 138.75689 
L 359.452562 137.95976 
L 359.769917 137.95976 
L 360.087273 137.521799 
L 360.721983 137.411991 
L 362.30876 137.169512 
L 362.626116 136.687288 
L 363.260826 136.656121 
L 363.578182 136.434045 
L 363.895537 135.705239 
L 364.530248 135.672256 
L 364.847603 135.310639 
L 365.164959 135.310639 
L 365.482314 134.904323 
L 365.799669 134.717377 
L 366.751736 134.62418 
L 367.069091 134.041863 
L 367.386446 134.041863 
L 367.703802 133.480234 
L 368.021157 133.480234 
L 368.338512 132.830208 
L 368.655868 132.830208 
L 368.973223 132.71801 
L 369.290579 132.001835 
L 369.925289 131.890805 
L 370.242645 131.528836 
L 370.56 130.980726 
L 370.877355 130.980726 
L 371.194711 130.037208 
L 371.512066 130.037208 
L 372.464132 129.060801 
L 372.781488 128.317422 
L 374.050909 128.042255 
L 374.368264 127.708627 
L 374.68562 126.764049 
L 375.637686 126.622092 
L 375.955041 125.592223 
L 376.272397 125.592223 
L 376.589752 124.88105 
L 376.907107 124.88105 
L 377.224463 124.659565 
L 378.493884 124.560979 
L 378.81124 122.838828 
L 379.128595 122.838828 
L 380.080661 120.430072 
L 380.398017 120.430072 
L 380.715372 120.260213 
L 381.032727 120.260213 
L 381.667438 118.96812 
L 381.984793 118.946151 
L 382.302149 118.032485 
L 382.619504 118.032485 
L 382.93686 117.635608 
L 383.57157 117.567856 
L 383.888926 117.236616 
L 384.206281 117.236616 
L 384.523636 115.59699 
L 384.840992 115.59699 
L 385.158347 114.659941 
L 385.475702 114.659941 
L 386.110413 113.703635 
L 386.427769 112.215832 
L 386.745124 112.215832 
L 387.062479 112.032778 
L 387.379835 110.66313 
L 387.69719 110.427262 
L 388.014545 109.887955 
L 388.331901 109.887955 
L 388.649256 109.389001 
L 388.966612 109.389001 
L 389.283967 109.06904 
L 389.601322 107.159198 
L 389.918678 107.159198 
L 390.236033 105.962997 
L 390.553388 103.8834 
L 390.870744 103.721539 
L 391.188099 103.721539 
L 391.82281 101.376872 
L 392.140165 101.376872 
L 392.457521 100.348215 
L 392.774876 99.783096 
L 393.092231 99.783096 
L 393.409587 97.460337 
L 393.726942 97.460337 
L 394.044298 96.994524 
L 394.679008 93.374431 
L 394.996364 93.374431 
L 395.313719 92.578335 
L 395.631074 92.34055 
L 395.94843 92.34055 
L 396.265785 86.240017 
L 396.900496 82.348549 
L 397.217851 82.348549 
L 397.535207 71.862865 
L 397.852562 71.440432 
L 398.169917 71.440432 
L 398.487273 62.785227 
L 398.487273 62.785227 
" clip-path="url(#p2dfe1b5bf5)" style="fill: none; stroke: #ff7f0e; stroke-width: 1.5; stroke-linecap: square"/>
   </g>
   <g id="patch_3">
    <path d="M 57.6 307.584 
L 57.6 41.472 
" style="fill: none; stroke: #000000; stroke-width: 0.8; stroke-linejoin: miter; stroke-linecap: square"/>
   </g>
   <g id="patch_4">
    <path d="M 414.72 307.584 
L 414.72 41.472 
" style="fill: none; stroke: #000000; stroke-width: 0.8; stroke-linejoin: miter; stroke-linecap: square"/>
   </g>
   <g id="patch_5">
    <path d="M 57.6 307.584 
L 414.72 307.584 
" style="fill: none; stroke: #000000; stroke-width: 0.8; stroke-linejoin: miter; stroke-linecap: square"/>
   </g>
   <g id="patch_6">
    <path d="M 57.6 41.472 
L 414.72 41.472 
" style="fill: none; stroke: #000000; stroke-width: 0.8; stroke-linejoin: miter; stroke-linecap: square"/>
   </g>
   <g id="legend_1">
    <g id="patch_7">
     <path d="M 64.6 78.82825 
L 129.342187 78.82825 
Q 131.342187 78.82825 131.342187 76.82825 
L 131.342187 48.472 
Q 131.342187 46.472 129.342187 46.472 
L 64.6 46.472 
Q 62.6 46.472 62.6 48.472 
L 62.6 76.82825 
Q 62.6 78.82825 64.6 78.82825 
z
" style="fill: #ffffff; opacity: 0.8; stroke: #cccccc; stroke-linejoin: miter"/>
    </g>
    <g id="line2d_18">
     <path d="M 66.6 54.570437 
L 76.6 54.570437 
L 86.6 54.570437 
" style="fill: none; stroke: #1f77b4; stroke-width: 1.5; stroke-linecap: square"/>
    </g>
    <g id="text_18">
     <!-- qc -->
     <g transform="translate(94.6 58.070437) scale(0.1 -0.1)">
      <defs>
       <path id="DejaVuSans-71" d="M 947 1747 
Q 947 1113 1208 752 
Q 1469 391 1925 391 
Q 2381 391 2643 752 
Q 2906 1113 2906 1747 
Q 2906 2381 2643 2742 
Q 2381 3103 1925 3103 
Q 1469 3103 1208 2742 
Q 947 2381 947 1747 
z
M 2906 525 
Q 2725 213 2448 61 
Q 2172 -91 1784 -91 
Q 1150 -91 751 415 
Q 353 922 353 1747 
Q 353 2572 751 3078 
Q 1150 3584 1784 3584 
Q 2172 3584 2448 3432 
Q 2725 3281 2906 2969 
L 2906 3500 
L 3481 3500 
L 3481 -1331 
L 2906 -1331 
L 2906 525 
z
" transform="scale(0.015625)"/>
       <path id="DejaVuSans-63" d="M 3122 3366 
L 3122 2828 
Q 2878 2963 2633 3030 
Q 2388 3097 2138 3097 
Q 1578 3097 1268 2742 
Q 959 2388 959 1747 
Q 959 1106 1268 751 
Q 1578 397 2138 397 
Q 2388 397 2633 464 
Q 2878 531 3122 666 
L 3122 134 
Q 2881 22 2623 -34 
Q 2366 -91 2075 -91 
Q 1284 -91 818 406 
Q 353 903 353 1747 
Q 353 2603 823 3093 
Q 1294 3584 2113 3584 
Q 2378 3584 2631 3529 
Q 2884 3475 3122 3366 
z
" transform="scale(0.015625)"/>
      </defs>
      <use xlink:href="#DejaVuSans-71"/>
      <use xlink:href="#DejaVuSans-63" x="63.476562"/>
     </g>
    </g>
    <g id="line2d_19">
     <path d="M 66.6 69.248562 
L 76.6 69.248562 
L 86.6 69.248562 
" style="fill: none; stroke: #ff7f0e; stroke-width: 1.5; stroke-linecap: square"/>
    </g>
    <g id="text_19">
     <!-- Trotter -->
     <g transform="translate(94.6 72.748562) scale(0.1 -0.1)">
      <defs>
       <path id="DejaVuSans-54" d="M -19 4666 
L 3928 4666 
L 3928 4134 
L 2272 4134 
L 2272 0 
L 1638 0 
L 1638 4134 
L -19 4134 
L -19 4666 
z
" transform="scale(0.015625)"/>
       <path id="DejaVuSans-72" d="M 2631 2963 
Q 2534 3019 2420 3045 
Q 2306 3072 2169 3072 
Q 1681 3072 1420 2755 
Q 1159 2438 1159 1844 
L 1159 0 
L 581 0 
L 581 3500 
L 1159 3500 
L 1159 2956 
Q 1341 3275 1631 3429 
Q 1922 3584 2338 3584 
Q 2397 3584 2469 3576 
Q 2541 3569 2628 3553 
L 2631 2963 
z
" transform="scale(0.015625)"/>
       <path id="DejaVuSans-6f" d="M 1959 3097 
Q 1497 3097 1228 2736 
Q 959 2375 959 1747 
Q 959 1119 1226 758 
Q 1494 397 1959 397 
Q 2419 397 2687 759 
Q 2956 1122 2956 1747 
Q 2956 2369 2687 2733 
Q 2419 3097 1959 3097 
z
M 1959 3584 
Q 2709 3584 3137 3096 
Q 3566 2609 3566 1747 
Q 3566 888 3137 398 
Q 2709 -91 1959 -91 
Q 1206 -91 779 398 
Q 353 888 353 1747 
Q 353 2609 779 3096 
Q 1206 3584 1959 3584 
z
" transform="scale(0.015625)"/>
       <path id="DejaVuSans-65" d="M 3597 1894 
L 3597 1613 
L 953 1613 
Q 991 1019 1311 708 
Q 1631 397 2203 397 
Q 2534 397 2845 478 
Q 3156 559 3463 722 
L 3463 178 
Q 3153 47 2828 -22 
Q 2503 -91 2169 -91 
Q 1331 -91 842 396 
Q 353 884 353 1716 
Q 353 2575 817 3079 
Q 1281 3584 2069 3584 
Q 2775 3584 3186 3129 
Q 3597 2675 3597 1894 
z
M 3022 2063 
Q 3016 2534 2758 2815 
Q 2500 3097 2075 3097 
Q 1594 3097 1305 2825 
Q 1016 2553 972 2059 
L 3022 2063 
z
" transform="scale(0.015625)"/>
      </defs>
      <use xlink:href="#DejaVuSans-54"/>
      <use xlink:href="#DejaVuSans-72" x="46.333984"/>
      <use xlink:href="#DejaVuSans-6f" x="85.197266"/>
      <use xlink:href="#DejaVuSans-74" x="146.378906"/>
      <use xlink:href="#DejaVuSans-74" x="185.587891"/>
      <use xlink:href="#DejaVuSans-65" x="224.796875"/>
      <use xlink:href="#DejaVuSans-72" x="286.320312"/>
     </g>
    </g>
   </g>
  </g>
 </g>
 <defs>
  <clipPath id="p2dfe1b5bf5">
   <rect x="57.6" y="41.472" width="357.12" height="266.112"/>
  </clipPath>
 </defs>
</svg>
