<?xml version="1.0" encoding="utf-8" standalone="no"?>
<!DOCTYPE svg PUBLIC "-//W3C//DTD SVG 1.1//EN"
  "http://www.w3.org/Graphics/SVG/1.1/DTD/svg11.dtd">
<svg xmlns:xlink="http://www.w3.org/1999/xlink" width="460.8pt" height="345.6pt" viewBox="0 0 460.8 345.6" xmlns="http://www.w3.org/2000/svg" version="1.1">
 <metadata>
  <rdf:RDF xmlns:dc="http://purl.org/dc/elements/1.1/" xmlns:cc="http://creativecommons.org/ns#" xmlns:rdf="http://www.w3.org/1999/02/22-rdf-syntax-ns#">
   <cc:Work>
    <dc:type rdf:resource="http://purl.org/dc/dcmitype/StillImage"/>
    <dc:date>2024-07-14T02:21:12.690205</dc:date>
    <dc:format>image/svg+xml</dc:format>
    <dc:creator>
     <cc:Agent>
      <dc:title>Matplotlib v3.7.1, https://matplotlib.org/</dc:title>
     </cc:Agent>
    </dc:creator>
   </cc:Work>
  </rdf:RDF>
 </metadata>
 <defs>
  <style type="text/css">*{stroke-linejoin: round; stroke-linecap: butt}</style>
 </defs>
 <g id="figure_1">
  <g id="patch_1">
   <path d="M 0 345.6 
L 460.8 345.6 
L 460.8 0 
L 0 0 
z
" style="fill: #ffffff"/>
  </g>
  <g id="axes_1">
   <g id="patch_2">
    <path d="M 57.6 307.584 
L 414.72 307.584 
L 414.72 41.472 
L 57.6 41.472 
z
" style="fill: #ffffff"/>
   </g>
   <g id="matplotlib.axis_1">
    <g id="xtick_1">
     <g id="line2d_1">
      <defs>
       <path id="mc25754c0a8" d="M 0 0 
L 0 3.5 
" style="stroke: #000000; stroke-width: 0.8"/>
      </defs>
      <g>
       <use xlink:href="#mc25754c0a8" x="73.832727" y="307.584" style="stroke: #000000; stroke-width: 0.8"/>
      </g>
     </g>
     <g id="text_1">
      <!-- 0 -->
      <g transform="translate(70.651477 322.182437) scale(0.1 -0.1)">
       <defs>
        <path id="DejaVuSans-30" d="M 2034 4250 
Q 1547 4250 1301 3770 
Q 1056 3291 1056 2328 
Q 1056 1369 1301 889 
Q 1547 409 2034 409 
Q 2525 409 2770 889 
Q 3016 1369 3016 2328 
Q 3016 3291 2770 3770 
Q 2525 4250 2034 4250 
z
M 2034 4750 
Q 2819 4750 3233 4129 
Q 3647 3509 3647 2328 
Q 3647 1150 3233 529 
Q 2819 -91 2034 -91 
Q 1250 -91 836 529 
Q 422 1150 422 2328 
Q 422 3509 836 4129 
Q 1250 4750 2034 4750 
z
" transform="scale(0.015625)"/>
       </defs>
       <use xlink:href="#DejaVuSans-30"/>
      </g>
     </g>
    </g>
    <g id="xtick_2">
     <g id="line2d_2">
      <g>
       <use xlink:href="#mc25754c0a8" x="137.303802" y="307.584" style="stroke: #000000; stroke-width: 0.8"/>
      </g>
     </g>
     <g id="text_2">
      <!-- 200 -->
      <g transform="translate(127.760052 322.182437) scale(0.1 -0.1)">
       <defs>
        <path id="DejaVuSans-32" d="M 1228 531 
L 3431 531 
L 3431 0 
L 469 0 
L 469 531 
Q 828 903 1448 1529 
Q 2069 2156 2228 2338 
Q 2531 2678 2651 2914 
Q 2772 3150 2772 3378 
Q 2772 3750 2511 3984 
Q 2250 4219 1831 4219 
Q 1534 4219 1204 4116 
Q 875 4013 500 3803 
L 500 4441 
Q 881 4594 1212 4672 
Q 1544 4750 1819 4750 
Q 2544 4750 2975 4387 
Q 3406 4025 3406 3419 
Q 3406 3131 3298 2873 
Q 3191 2616 2906 2266 
Q 2828 2175 2409 1742 
Q 1991 1309 1228 531 
z
" transform="scale(0.015625)"/>
       </defs>
       <use xlink:href="#DejaVuSans-32"/>
       <use xlink:href="#DejaVuSans-30" x="63.623047"/>
       <use xlink:href="#DejaVuSans-30" x="127.246094"/>
      </g>
     </g>
    </g>
    <g id="xtick_3">
     <g id="line2d_3">
      <g>
       <use xlink:href="#mc25754c0a8" x="200.774876" y="307.584" style="stroke: #000000; stroke-width: 0.8"/>
      </g>
     </g>
     <g id="text_3">
      <!-- 400 -->
      <g transform="translate(191.231126 322.182437) scale(0.1 -0.1)">
       <defs>
        <path id="DejaVuSans-34" d="M 2419 4116 
L 825 1625 
L 2419 1625 
L 2419 4116 
z
M 2253 4666 
L 3047 4666 
L 3047 1625 
L 3713 1625 
L 3713 1100 
L 3047 1100 
L 3047 0 
L 2419 0 
L 2419 1100 
L 313 1100 
L 313 1709 
L 2253 4666 
z
" transform="scale(0.015625)"/>
       </defs>
       <use xlink:href="#DejaVuSans-34"/>
       <use xlink:href="#DejaVuSans-30" x="63.623047"/>
       <use xlink:href="#DejaVuSans-30" x="127.246094"/>
      </g>
     </g>
    </g>
    <g id="xtick_4">
     <g id="line2d_4">
      <g>
       <use xlink:href="#mc25754c0a8" x="264.24595" y="307.584" style="stroke: #000000; stroke-width: 0.8"/>
      </g>
     </g>
     <g id="text_4">
      <!-- 600 -->
      <g transform="translate(254.7022 322.182437) scale(0.1 -0.1)">
       <defs>
        <path id="DejaVuSans-36" d="M 2113 2584 
Q 1688 2584 1439 2293 
Q 1191 2003 1191 1497 
Q 1191 994 1439 701 
Q 1688 409 2113 409 
Q 2538 409 2786 701 
Q 3034 994 3034 1497 
Q 3034 2003 2786 2293 
Q 2538 2584 2113 2584 
z
M 3366 4563 
L 3366 3988 
Q 3128 4100 2886 4159 
Q 2644 4219 2406 4219 
Q 1781 4219 1451 3797 
Q 1122 3375 1075 2522 
Q 1259 2794 1537 2939 
Q 1816 3084 2150 3084 
Q 2853 3084 3261 2657 
Q 3669 2231 3669 1497 
Q 3669 778 3244 343 
Q 2819 -91 2113 -91 
Q 1303 -91 875 529 
Q 447 1150 447 2328 
Q 447 3434 972 4092 
Q 1497 4750 2381 4750 
Q 2619 4750 2861 4703 
Q 3103 4656 3366 4563 
z
" transform="scale(0.015625)"/>
       </defs>
       <use xlink:href="#DejaVuSans-36"/>
       <use xlink:href="#DejaVuSans-30" x="63.623047"/>
       <use xlink:href="#DejaVuSans-30" x="127.246094"/>
      </g>
     </g>
    </g>
    <g id="xtick_5">
     <g id="line2d_5">
      <g>
       <use xlink:href="#mc25754c0a8" x="327.717025" y="307.584" style="stroke: #000000; stroke-width: 0.8"/>
      </g>
     </g>
     <g id="text_5">
      <!-- 800 -->
      <g transform="translate(318.173275 322.182437) scale(0.1 -0.1)">
       <defs>
        <path id="DejaVuSans-38" d="M 2034 2216 
Q 1584 2216 1326 1975 
Q 1069 1734 1069 1313 
Q 1069 891 1326 650 
Q 1584 409 2034 409 
Q 2484 409 2743 651 
Q 3003 894 3003 1313 
Q 3003 1734 2745 1975 
Q 2488 2216 2034 2216 
z
M 1403 2484 
Q 997 2584 770 2862 
Q 544 3141 544 3541 
Q 544 4100 942 4425 
Q 1341 4750 2034 4750 
Q 2731 4750 3128 4425 
Q 3525 4100 3525 3541 
Q 3525 3141 3298 2862 
Q 3072 2584 2669 2484 
Q 3125 2378 3379 2068 
Q 3634 1759 3634 1313 
Q 3634 634 3220 271 
Q 2806 -91 2034 -91 
Q 1263 -91 848 271 
Q 434 634 434 1313 
Q 434 1759 690 2068 
Q 947 2378 1403 2484 
z
M 1172 3481 
Q 1172 3119 1398 2916 
Q 1625 2713 2034 2713 
Q 2441 2713 2670 2916 
Q 2900 3119 2900 3481 
Q 2900 3844 2670 4047 
Q 2441 4250 2034 4250 
Q 1625 4250 1398 4047 
Q 1172 3844 1172 3481 
z
" transform="scale(0.015625)"/>
       </defs>
       <use xlink:href="#DejaVuSans-38"/>
       <use xlink:href="#DejaVuSans-30" x="63.623047"/>
       <use xlink:href="#DejaVuSans-30" x="127.246094"/>
      </g>
     </g>
    </g>
    <g id="xtick_6">
     <g id="line2d_6">
      <g>
       <use xlink:href="#mc25754c0a8" x="391.188099" y="307.584" style="stroke: #000000; stroke-width: 0.8"/>
      </g>
     </g>
     <g id="text_6">
      <!-- 1000 -->
      <g transform="translate(378.463099 322.182437) scale(0.1 -0.1)">
       <defs>
        <path id="DejaVuSans-31" d="M 794 531 
L 1825 531 
L 1825 4091 
L 703 3866 
L 703 4441 
L 1819 4666 
L 2450 4666 
L 2450 531 
L 3481 531 
L 3481 0 
L 794 0 
L 794 531 
z
" transform="scale(0.015625)"/>
       </defs>
       <use xlink:href="#DejaVuSans-31"/>
       <use xlink:href="#DejaVuSans-30" x="63.623047"/>
       <use xlink:href="#DejaVuSans-30" x="127.246094"/>
       <use xlink:href="#DejaVuSans-30" x="190.869141"/>
      </g>
     </g>
    </g>
    <g id="text_7">
     <!-- n -->
     <g transform="translate(232.99125 335.860562) scale(0.1 -0.1)">
      <defs>
       <path id="DejaVuSans-6e" d="M 3513 2113 
L 3513 0 
L 2938 0 
L 2938 2094 
Q 2938 2591 2744 2837 
Q 2550 3084 2163 3084 
Q 1697 3084 1428 2787 
Q 1159 2491 1159 1978 
L 1159 0 
L 581 0 
L 581 3500 
L 1159 3500 
L 1159 2956 
Q 1366 3272 1645 3428 
Q 1925 3584 2291 3584 
Q 2894 3584 3203 3211 
Q 3513 2838 3513 2113 
z
" transform="scale(0.015625)"/>
      </defs>
      <use xlink:href="#DejaVuSans-6e"/>
     </g>
    </g>
   </g>
   <g id="matplotlib.axis_2">
    <g id="ytick_1">
     <g id="line2d_7">
      <defs>
       <path id="mdadfa0b788" d="M 0 0 
L -3.5 0 
" style="stroke: #000000; stroke-width: 0.8"/>
      </defs>
      <g>
       <use xlink:href="#mdadfa0b788" x="57.6" y="291.834562" style="stroke: #000000; stroke-width: 0.8"/>
      </g>
     </g>
     <g id="text_8">
      <!-- −3 -->
      <g transform="translate(35.857813 295.633781) scale(0.1 -0.1)">
       <defs>
        <path id="DejaVuSans-2212" d="M 678 2272 
L 4684 2272 
L 4684 1741 
L 678 1741 
L 678 2272 
z
" transform="scale(0.015625)"/>
        <path id="DejaVuSans-33" d="M 2597 2516 
Q 3050 2419 3304 2112 
Q 3559 1806 3559 1356 
Q 3559 666 3084 287 
Q 2609 -91 1734 -91 
Q 1441 -91 1130 -33 
Q 819 25 488 141 
L 488 750 
Q 750 597 1062 519 
Q 1375 441 1716 441 
Q 2309 441 2620 675 
Q 2931 909 2931 1356 
Q 2931 1769 2642 2001 
Q 2353 2234 1838 2234 
L 1294 2234 
L 1294 2753 
L 1863 2753 
Q 2328 2753 2575 2939 
Q 2822 3125 2822 3475 
Q 2822 3834 2567 4026 
Q 2313 4219 1838 4219 
Q 1578 4219 1281 4162 
Q 984 4106 628 3988 
L 628 4550 
Q 988 4650 1302 4700 
Q 1616 4750 1894 4750 
Q 2613 4750 3031 4423 
Q 3450 4097 3450 3541 
Q 3450 3153 3228 2886 
Q 3006 2619 2597 2516 
z
" transform="scale(0.015625)"/>
       </defs>
       <use xlink:href="#DejaVuSans-2212"/>
       <use xlink:href="#DejaVuSans-33" x="83.789062"/>
      </g>
     </g>
    </g>
    <g id="ytick_2">
     <g id="line2d_8">
      <g>
       <use xlink:href="#mdadfa0b788" x="57.6" y="252.889532" style="stroke: #000000; stroke-width: 0.8"/>
      </g>
     </g>
     <g id="text_9">
      <!-- −2 -->
      <g transform="translate(35.857813 256.68875) scale(0.1 -0.1)">
       <use xlink:href="#DejaVuSans-2212"/>
       <use xlink:href="#DejaVuSans-32" x="83.789062"/>
      </g>
     </g>
    </g>
    <g id="ytick_3">
     <g id="line2d_9">
      <g>
       <use xlink:href="#mdadfa0b788" x="57.6" y="213.944501" style="stroke: #000000; stroke-width: 0.8"/>
      </g>
     </g>
     <g id="text_10">
      <!-- −1 -->
      <g transform="translate(35.857813 217.74372) scale(0.1 -0.1)">
       <use xlink:href="#DejaVuSans-2212"/>
       <use xlink:href="#DejaVuSans-31" x="83.789062"/>
      </g>
     </g>
    </g>
    <g id="ytick_4">
     <g id="line2d_10">
      <g>
       <use xlink:href="#mdadfa0b788" x="57.6" y="174.999471" style="stroke: #000000; stroke-width: 0.8"/>
      </g>
     </g>
     <g id="text_11">
      <!-- 0 -->
      <g transform="translate(44.2375 178.79869) scale(0.1 -0.1)">
       <use xlink:href="#DejaVuSans-30"/>
      </g>
     </g>
    </g>
    <g id="ytick_5">
     <g id="line2d_11">
      <g>
       <use xlink:href="#mdadfa0b788" x="57.6" y="136.054441" style="stroke: #000000; stroke-width: 0.8"/>
      </g>
     </g>
     <g id="text_12">
      <!-- 1 -->
      <g transform="translate(44.2375 139.853659) scale(0.1 -0.1)">
       <use xlink:href="#DejaVuSans-31"/>
      </g>
     </g>
    </g>
    <g id="ytick_6">
     <g id="line2d_12">
      <g>
       <use xlink:href="#mdadfa0b788" x="57.6" y="97.10941" style="stroke: #000000; stroke-width: 0.8"/>
      </g>
     </g>
     <g id="text_13">
      <!-- 2 -->
      <g transform="translate(44.2375 100.908629) scale(0.1 -0.1)">
       <use xlink:href="#DejaVuSans-32"/>
      </g>
     </g>
    </g>
    <g id="ytick_7">
     <g id="line2d_13">
      <g>
       <use xlink:href="#mdadfa0b788" x="57.6" y="58.16438" style="stroke: #000000; stroke-width: 0.8"/>
      </g>
     </g>
     <g id="text_14">
      <!-- 3 -->
      <g transform="translate(44.2375 61.963599) scale(0.1 -0.1)">
       <use xlink:href="#DejaVuSans-33"/>
      </g>
     </g>
    </g>
    <g id="text_15">
     <!-- E*t -->
     <g transform="translate(29.778125 182.147531) rotate(-90) scale(0.1 -0.1)">
      <defs>
       <path id="DejaVuSans-45" d="M 628 4666 
L 3578 4666 
L 3578 4134 
L 1259 4134 
L 1259 2753 
L 3481 2753 
L 3481 2222 
L 1259 2222 
L 1259 531 
L 3634 531 
L 3634 0 
L 628 0 
L 628 4666 
z
" transform="scale(0.015625)"/>
       <path id="DejaVuSans-2a" d="M 3009 3897 
L 1888 3291 
L 3009 2681 
L 2828 2375 
L 1778 3009 
L 1778 1831 
L 1422 1831 
L 1422 3009 
L 372 2375 
L 191 2681 
L 1313 3291 
L 191 3897 
L 372 4206 
L 1422 3572 
L 1422 4750 
L 1778 4750 
L 1778 3572 
L 2828 4206 
L 3009 3897 
z
" transform="scale(0.015625)"/>
       <path id="DejaVuSans-74" d="M 1172 4494 
L 1172 3500 
L 2356 3500 
L 2356 3053 
L 1172 3053 
L 1172 1153 
Q 1172 725 1289 603 
Q 1406 481 1766 481 
L 2356 481 
L 2356 0 
L 1766 0 
Q 1100 0 847 248 
Q 594 497 594 1153 
L 594 3053 
L 172 3053 
L 172 3500 
L 594 3500 
L 594 4494 
L 1172 4494 
z
" transform="scale(0.015625)"/>
      </defs>
      <use xlink:href="#DejaVuSans-45"/>
      <use xlink:href="#DejaVuSans-2a" x="63.183594"/>
      <use xlink:href="#DejaVuSans-74" x="113.183594"/>
     </g>
    </g>
   </g>
   <g id="line2d_14">
    <path d="M 73.832727 295.488 
L 74.150083 295.359954 
L 74.467438 295.042852 
L 75.102149 294.668744 
L 75.419504 294.223595 
L 75.73686 292.250083 
L 76.37157 291.141555 
L 76.688926 290.665119 
L 77.006281 290.621888 
L 77.323636 290.210952 
L 77.958347 290.167311 
L 78.275702 289.874609 
L 78.593058 289.429461 
L 79.545124 287.71321 
L 79.862479 287.555193 
L 80.49719 286.695889 
L 80.814545 286.639727 
L 81.131901 286.056608 
L 81.449256 285.927018 
L 81.766612 285.481884 
L 82.401322 285.405973 
L 82.718678 284.960825 
L 83.036033 284.082804 
L 83.353388 283.970885 
L 83.670744 282.001054 
L 84.940165 279.275995 
L 85.257521 278.32243 
L 85.892231 274.274669 
L 86.844298 272.991145 
L 87.161653 272.130567 
L 87.479008 271.763669 
L 87.796364 270.389419 
L 88.113719 270.044844 
L 88.74843 269.944271 
L 89.38314 269.539921 
L 89.700496 269.512146 
L 90.017851 269.371531 
L 90.335207 269.066997 
L 91.287273 268.539679 
L 91.604628 268.296311 
L 92.556694 266.456907 
L 92.87405 265.637674 
L 93.191405 265.571806 
L 93.50876 265.295192 
L 94.143471 265.165355 
L 94.460826 264.845087 
L 95.412893 264.638386 
L 95.730248 264.222475 
L 96.047603 263.598496 
L 96.999669 263.149618 
L 97.317025 262.926297 
L 97.63438 262.555614 
L 97.951736 262.55258 
L 98.269091 262.347816 
L 98.586446 261.528559 
L 100.173223 260.673509 
L 101.125289 260.136555 
L 101.442645 259.442835 
L 101.76 259.127267 
L 103.981488 258.454784 
L 104.298843 258.446518 
L 104.616198 258.053783 
L 104.933554 257.936852 
L 105.568264 257.096838 
L 105.88562 256.821942 
L 106.520331 256.684257 
L 106.837686 256.374888 
L 107.155041 256.360795 
L 107.472397 255.443793 
L 107.789752 255.018175 
L 108.424463 254.989626 
L 110.328595 252.935331 
L 110.64595 252.932451 
L 110.963306 252.402078 
L 111.598017 252.127052 
L 112.867438 250.911679 
L 113.184793 250.317419 
L 113.502149 250.17993 
L 113.819504 249.286942 
L 114.454215 249.103027 
L 114.77157 248.885032 
L 115.723636 248.764497 
L 116.040992 248.430865 
L 116.358347 247.427369 
L 116.993058 247.326349 
L 117.310413 247.020676 
L 117.627769 246.960235 
L 117.945124 246.77882 
L 118.262479 245.661044 
L 118.579835 245.376785 
L 119.531901 245.206876 
L 119.849256 244.931636 
L 120.166612 244.841787 
L 120.483967 244.608598 
L 120.801322 244.589206 
L 121.118678 244.408193 
L 121.436033 244.38762 
L 121.753388 244.16345 
L 122.070744 244.144058 
L 122.388099 243.441099 
L 122.705455 243.13722 
L 123.02281 242.994221 
L 123.657521 242.565547 
L 123.974876 242.542693 
L 124.292231 242.325842 
L 124.926942 242.265341 
L 125.561653 241.358327 
L 125.879008 241.305575 
L 126.513719 241.054682 
L 127.14843 240.814655 
L 127.465785 240.495458 
L 128.417851 240.365303 
L 129.369917 240.047688 
L 129.687273 240.001145 
L 130.321983 239.078728 
L 130.639339 239.048762 
L 130.956694 238.838168 
L 131.27405 238.442387 
L 133.495537 237.988526 
L 134.447603 237.585679 
L 134.764959 237.257919 
L 135.082314 237.249236 
L 136.351736 236.35985 
L 136.669091 236.201156 
L 137.621157 236.119763 
L 137.938512 235.756007 
L 138.573223 235.579077 
L 139.207934 235.176456 
L 139.842645 235.12491 
L 140.16 234.55075 
L 140.477355 234.286348 
L 141.429421 233.974394 
L 142.064132 233.524561 
L 143.016198 233.293694 
L 143.650909 232.904828 
L 143.968264 232.547317 
L 144.28562 232.464467 
L 144.602975 232.102183 
L 145.555041 232.075418 
L 146.507107 231.048581 
L 146.824463 230.990248 
L 147.141818 230.740597 
L 147.776529 230.603446 
L 148.41124 230.096648 
L 149.998017 229.646666 
L 150.315372 229.279507 
L 150.632727 229.223537 
L 150.950083 228.995844 
L 152.219504 228.593852 
L 152.53686 227.978584 
L 152.854215 227.966338 
L 153.488926 227.514167 
L 154.123636 226.914095 
L 154.758347 226.433875 
L 155.075702 225.89286 
L 155.393058 225.884153 
L 156.027769 225.140388 
L 156.662479 224.447714 
L 157.29719 224.351103 
L 158.249256 223.812333 
L 159.201322 223.680649 
L 160.153388 223.29652 
L 161.105455 223.227379 
L 162.374876 222.71106 
L 163.009587 222.651818 
L 163.326942 222.340335 
L 164.596364 222.206629 
L 164.913719 222.076579 
L 165.231074 220.562464 
L 165.54843 220.291113 
L 166.817851 220.108297 
L 169.356694 218.993251 
L 169.67405 218.992317 
L 169.991405 218.667649 
L 171.895537 218.154685 
L 172.212893 218.118119 
L 172.530248 217.865531 
L 172.847603 217.833481 
L 173.164959 217.661937 
L 173.799669 217.564758 
L 174.43438 216.78416 
L 174.751736 216.673005 
L 175.069091 216.384168 
L 176.973223 216.069575 
L 178.242645 215.579166 
L 178.877355 215.482655 
L 179.512066 215.345516 
L 179.829421 214.936192 
L 180.146777 214.900366 
L 180.464132 214.733878 
L 180.781488 214.312496 
L 182.050909 214.26438 
L 182.68562 213.983851 
L 183.637686 213.867174 
L 184.589752 213.77681 
L 184.907107 213.499664 
L 185.224463 213.450706 
L 185.541818 213.078629 
L 185.859174 212.961422 
L 186.176529 212.629754 
L 186.493884 212.511317 
L 186.81124 212.236712 
L 187.128595 212.183865 
L 187.44595 211.898505 
L 187.763306 211.887951 
L 188.080661 211.694592 
L 188.398017 211.672702 
L 188.715372 211.468526 
L 189.984793 211.293506 
L 190.619504 210.472053 
L 191.57157 209.996711 
L 192.206281 209.84052 
L 192.523636 209.586419 
L 193.793058 209.363298 
L 194.427769 209.22617 
L 195.062479 209.17128 
L 195.69719 208.793122 
L 196.014545 208.744923 
L 196.331901 208.389922 
L 196.966612 208.284574 
L 197.918678 207.65756 
L 198.553388 207.306222 
L 199.505455 207.143246 
L 200.457521 206.873069 
L 201.092231 206.286338 
L 201.726942 205.922559 
L 202.044298 205.496458 
L 203.313719 205.330754 
L 205.217851 204.571301 
L 205.852562 203.84044 
L 206.169917 203.815963 
L 206.487273 203.61677 
L 208.07405 203.302192 
L 208.391405 203.10118 
L 208.70876 203.060971 
L 209.343471 202.50016 
L 209.660826 202.486534 
L 209.978182 202.055015 
L 210.612893 201.534622 
L 211.247603 201.427125 
L 211.882314 201.331861 
L 212.199669 201.077529 
L 213.786446 200.65306 
L 214.103802 199.933576 
L 215.055868 199.461823 
L 216.642645 199.236947 
L 217.277355 199.022219 
L 218.546777 198.921045 
L 218.864132 198.745244 
L 220.133554 198.530327 
L 220.768264 197.971431 
L 221.08562 197.965633 
L 223.307107 197.209583 
L 223.624463 197.15467 
L 224.576529 196.542248 
L 224.893884 195.888759 
L 225.528595 195.808122 
L 225.84595 195.578471 
L 226.798017 195.39206 
L 227.432727 195.192472 
L 228.067438 195.089906 
L 228.384793 194.783465 
L 229.33686 194.621575 
L 229.97157 194.329299 
L 230.606281 194.308089 
L 231.875702 193.723179 
L 233.145124 193.311053 
L 233.462479 193.309516 
L 234.414545 193.039073 
L 234.731901 193.007683 
L 235.683967 192.666446 
L 236.318678 192.535299 
L 236.636033 192.237448 
L 237.270744 192.148273 
L 237.905455 192.04856 
L 238.22281 191.641473 
L 238.857521 191.36231 
L 239.492231 191.311419 
L 239.809587 191.131877 
L 241.079008 190.9489 
L 242.031074 190.621161 
L 242.34843 190.584086 
L 242.98314 190.265967 
L 244.569917 189.808697 
L 244.887273 189.449636 
L 247.426116 189.150238 
L 248.378182 188.883445 
L 249.012893 188.801076 
L 249.647603 188.713258 
L 249.964959 188.706326 
L 250.282314 188.352198 
L 251.869091 188.063936 
L 252.503802 187.366971 
L 253.455868 187.20262 
L 253.773223 187.072539 
L 254.090579 187.066045 
L 254.725289 186.847282 
L 255.36 186.791099 
L 257.264132 186.097214 
L 257.898843 185.977661 
L 258.850909 185.903577 
L 260.120331 185.143195 
L 261.072397 184.918148 
L 264.24595 184.292943 
L 264.563306 184.021238 
L 264.880661 184.003384 
L 265.198017 183.843112 
L 265.515372 183.820992 
L 265.832727 183.682034 
L 266.150083 183.388543 
L 269.006281 182.765545 
L 269.640992 182.692029 
L 269.958347 182.448189 
L 270.910413 182.252162 
L 271.227769 181.997155 
L 272.179835 181.896013 
L 272.49719 181.485538 
L 272.814545 181.444567 
L 273.131901 181.239822 
L 273.766612 181.138556 
L 274.718678 180.935485 
L 275.988099 180.76074 
L 276.305455 180.609357 
L 276.62281 180.310083 
L 276.940165 180.23377 
L 277.574876 179.896315 
L 278.844298 179.434064 
L 279.796364 178.926765 
L 282.335207 178.493918 
L 282.652562 178.288486 
L 284.239339 178.16693 
L 284.556694 177.837223 
L 285.191405 177.709136 
L 286.143471 177.251859 
L 286.460826 177.14172 
L 286.778182 176.864097 
L 287.412893 176.80129 
L 288.047603 176.448699 
L 288.682314 176.411381 
L 288.999669 176.084579 
L 289.63438 175.904799 
L 289.951736 175.853014 
L 290.269091 175.511035 
L 291.221157 175.430543 
L 291.855868 175.39578 
L 292.807934 174.944311 
L 293.442645 174.762598 
L 293.76 174.759789 
L 294.394711 174.490984 
L 295.346777 174.362416 
L 297.88562 173.654342 
L 298.202975 173.405887 
L 298.837686 173.26588 
L 299.155041 173.065443 
L 299.789752 172.944711 
L 300.741818 172.614928 
L 301.693884 172.397747 
L 302.01124 172.200963 
L 302.328595 172.199211 
L 302.64595 172.007977 
L 302.963306 171.608712 
L 303.280661 171.557502 
L 303.598017 171.158289 
L 304.867438 170.768753 
L 305.819504 170.462212 
L 308.040992 170.083052 
L 308.358347 169.931413 
L 309.310413 169.860445 
L 309.945124 169.745982 
L 310.262479 169.408306 
L 311.214545 169.324045 
L 311.531901 169.288432 
L 312.483967 168.878441 
L 313.118678 168.837338 
L 313.753388 168.320025 
L 314.388099 168.287053 
L 315.02281 167.869773 
L 315.340165 167.84513 
L 315.657521 167.59105 
L 315.974876 167.568125 
L 316.292231 167.12299 
L 317.244298 167.033642 
L 317.879008 166.760713 
L 319.14843 166.58205 
L 319.465785 166.381789 
L 321.687273 166.092464 
L 322.321983 165.733188 
L 322.956694 165.595727 
L 323.27405 165.283387 
L 324.226116 165.145462 
L 324.543471 164.511864 
L 324.860826 164.455794 
L 325.178182 164.061965 
L 325.812893 164.005709 
L 326.130248 163.638533 
L 328.351736 162.846156 
L 328.986446 162.394704 
L 329.303802 162.385766 
L 329.938512 162.044517 
L 331.207934 161.759891 
L 331.842645 161.55225 
L 332.477355 161.406196 
L 332.794711 160.960375 
L 333.429421 160.89121 
L 333.746777 160.765446 
L 334.064132 160.490247 
L 334.698843 160.315951 
L 335.016198 159.902919 
L 335.333554 159.899002 
L 335.968264 159.493656 
L 336.28562 159.169102 
L 336.602975 159.043492 
L 336.920331 158.719255 
L 337.237686 158.598029 
L 337.555041 158.162788 
L 338.189752 158.040245 
L 338.824463 157.667001 
L 339.141818 157.589815 
L 340.093884 156.076505 
L 340.41124 155.797719 
L 340.728595 154.611033 
L 341.04595 154.349027 
L 341.363306 154.328566 
L 342.950083 153.595675 
L 343.267438 153.514823 
L 343.902149 152.876142 
L 344.53686 152.426294 
L 345.17157 151.601992 
L 346.440992 151.147824 
L 346.758347 150.991918 
L 347.075702 149.836481 
L 347.393058 149.412641 
L 347.710413 149.373128 
L 348.027769 148.990774 
L 348.345124 148.905635 
L 348.979835 148.056074 
L 349.29719 147.604944 
L 349.931901 147.405489 
L 350.249256 147.286846 
L 350.566612 147.033608 
L 350.883967 145.797905 
L 351.518678 145.371219 
L 351.836033 145.319207 
L 352.153388 144.947326 
L 352.470744 144.912858 
L 352.788099 144.170702 
L 353.105455 144.167057 
L 353.42281 143.719572 
L 353.740165 143.711622 
L 355.009587 143.21394 
L 355.326942 142.869094 
L 356.279008 142.686348 
L 356.596364 142.477755 
L 356.913719 142.434867 
L 357.865785 141.497482 
L 358.18314 141.448437 
L 358.500496 140.861908 
L 359.135207 140.600065 
L 359.452562 140.391473 
L 359.769917 140.350365 
L 360.404628 139.065283 
L 361.039339 138.835373 
L 361.67405 138.638415 
L 361.991405 138.462546 
L 362.30876 137.660379 
L 362.626116 137.203422 
L 363.260826 136.983167 
L 364.847603 136.333064 
L 365.164959 135.744444 
L 365.482314 135.574096 
L 365.799669 135.192462 
L 366.43438 135.039641 
L 366.751736 134.39455 
L 368.655868 133.944481 
L 369.607934 133.109427 
L 369.925289 132.308268 
L 371.829421 131.858201 
L 372.146777 131.290366 
L 372.464132 131.171979 
L 373.416198 130.31401 
L 374.050909 129.879342 
L 374.368264 128.446026 
L 375.002975 127.944994 
L 375.320331 127.942408 
L 375.955041 127.143969 
L 376.272397 126.719095 
L 376.589752 126.069201 
L 377.859174 125.469238 
L 378.493884 123.982919 
L 379.128595 123.081731 
L 380.715372 122.450848 
L 381.032727 120.426149 
L 381.350083 120.172145 
L 382.302149 118.755918 
L 382.619504 118.680326 
L 382.93686 118.339868 
L 383.254215 118.229971 
L 383.888926 117.081184 
L 384.206281 116.540774 
L 384.523636 114.693668 
L 385.158347 114.46084 
L 385.475702 114.454493 
L 386.110413 114.111894 
L 386.427769 114.010333 
L 386.745124 111.784082 
L 387.062479 111.334651 
L 387.379835 110.292266 
L 387.69719 109.841912 
L 388.014545 106.072775 
L 388.331901 105.622268 
L 388.649256 100.488067 
L 388.966612 100.042919 
L 389.283967 95.793233 
L 389.601322 95.348085 
L 389.918678 95.178553 
L 391.188099 86.790509 
L 391.505455 86.372653 
L 391.82281 84.704227 
L 392.140165 84.286372 
L 392.774876 80.348894 
L 393.409587 75.898309 
L 393.726942 74.497839 
L 394.361653 73.539747 
L 394.996364 69.802949 
L 395.631074 68.844912 
L 395.94843 67.347884 
L 396.265785 66.762141 
L 396.58314 65.26216 
L 397.217851 60.57191 
L 397.535207 60.567326 
L 397.852562 60.126762 
L 398.169917 54.013148 
L 398.487273 53.568 
L 398.487273 53.568 
" clip-path="url(#p164a9466f9)" style="fill: none; stroke: #1f77b4; stroke-width: 1.5; stroke-linecap: square"/>
   </g>
   <g id="line2d_15">
    <path d="M 73.832727 190.927693 
L 74.150083 189.069041 
L 74.467438 189.069041 
L 74.784793 187.480272 
L 75.102149 187.150262 
L 75.73686 187.150262 
L 76.054215 186.555809 
L 76.37157 185.552289 
L 77.958347 185.335443 
L 78.910413 185.335443 
L 79.227769 184.769299 
L 79.545124 184.769299 
L 80.179835 184.43774 
L 80.49719 184.43774 
L 80.814545 183.811707 
L 81.131901 183.517028 
L 82.083967 183.511961 
L 82.401322 183.337557 
L 87.161653 183.232161 
L 87.479008 182.77852 
L 88.431074 182.521191 
L 89.700496 182.521191 
L 90.017851 182.320534 
L 90.652562 182.320534 
L 90.969917 182.08744 
L 91.287273 182.08744 
L 91.604628 181.966016 
L 91.921983 181.653696 
L 99.221157 181.653696 
L 99.538512 181.467595 
L 101.76 181.423575 
L 102.077355 181.230676 
L 103.981488 181.187165 
L 104.616198 181.111951 
L 104.933554 181.111951 
L 105.250909 180.847416 
L 106.202975 180.834084 
L 106.520331 180.237073 
L 109.059174 180.04061 
L 109.376529 180.04061 
L 109.693884 179.738899 
L 110.01124 179.738899 
L 110.328595 179.405603 
L 129.369917 179.405589 
L 130.004628 179.107001 
L 130.639339 179.038055 
L 131.27405 179.026698 
L 131.591405 178.871759 
L 132.860826 178.836361 
L 133.178182 178.538094 
L 135.399669 178.475637 
L 135.717025 178.22128 
L 137.621157 178.115073 
L 163.009587 178.115073 
L 163.326942 177.851084 
L 167.769917 177.802839 
L 168.087273 177.476117 
L 169.356694 177.388909 
L 170.943471 177.19784 
L 172.530248 177.102802 
L 173.482314 177.062482 
L 180.781488 176.993081 
L 181.416198 176.925007 
L 182.68562 176.925007 
L 183.320331 176.289987 
L 186.81124 176.191714 
L 187.128595 176.052062 
L 188.080661 175.957477 
L 188.715372 174.999471 
L 283.604628 174.999471 
L 284.239339 174.041464 
L 285.191405 173.94688 
L 285.826116 173.751499 
L 288.999669 173.708955 
L 289.63438 173.073934 
L 291.855868 173.00586 
L 292.490579 172.93646 
L 300.424463 172.841923 
L 301.376529 172.801102 
L 302.328595 172.801102 
L 302.963306 172.610032 
L 304.232727 172.522824 
L 304.550083 172.196103 
L 308.993058 172.147858 
L 309.310413 171.883868 
L 336.602975 171.777661 
L 336.920331 171.523305 
L 339.141818 171.460848 
L 339.459174 171.162581 
L 340.728595 171.127182 
L 341.04595 170.972244 
L 342.315372 170.891941 
L 343.267438 170.593353 
L 361.991405 170.593339 
L 362.30876 170.260043 
L 362.626116 170.260043 
L 362.943471 169.958332 
L 364.530248 169.958332 
L 364.847603 169.820857 
L 365.799669 169.761869 
L 366.117025 169.164857 
L 367.069091 169.151525 
L 367.386446 168.886991 
L 368.338512 168.811777 
L 369.290579 168.768266 
L 370.242645 168.768266 
L 370.56 168.575367 
L 372.781488 168.531346 
L 373.098843 168.345245 
L 380.398017 168.345245 
L 380.715372 168.032925 
L 381.032727 167.911502 
L 381.350083 167.911502 
L 381.667438 167.678408 
L 382.302149 167.678408 
L 382.619504 167.47775 
L 384.206281 167.47775 
L 384.840992 167.220422 
L 385.158347 166.766781 
L 385.793058 166.671286 
L 389.601322 166.661384 
L 389.918678 166.661384 
L 390.236033 166.48698 
L 391.188099 166.481914 
L 391.505455 166.187235 
L 391.82281 165.561202 
L 392.140165 165.561202 
L 393.092231 165.229643 
L 393.409587 164.663499 
L 394.996364 164.663499 
L 395.313719 164.508221 
L 395.94843 164.446653 
L 396.265785 163.443133 
L 396.58314 162.84868 
L 397.217851 162.84868 
L 397.535207 162.51867 
L 397.852562 160.929901 
L 398.169917 160.929901 
L 398.487273 159.071249 
L 398.487273 159.071249 
" clip-path="url(#p164a9466f9)" style="fill: none; stroke: #ff7f0e; stroke-width: 1.5; stroke-linecap: square"/>
   </g>
   <g id="patch_3">
    <path d="M 57.6 307.584 
L 57.6 41.472 
" style="fill: none; stroke: #000000; stroke-width: 0.8; stroke-linejoin: miter; stroke-linecap: square"/>
   </g>
   <g id="patch_4">
    <path d="M 414.72 307.584 
L 414.72 41.472 
" style="fill: none; stroke: #000000; stroke-width: 0.8; stroke-linejoin: miter; stroke-linecap: square"/>
   </g>
   <g id="patch_5">
    <path d="M 57.6 307.584 
L 414.72 307.584 
" style="fill: none; stroke: #000000; stroke-width: 0.8; stroke-linejoin: miter; stroke-linecap: square"/>
   </g>
   <g id="patch_6">
    <path d="M 57.6 41.472 
L 414.72 41.472 
" style="fill: none; stroke: #000000; stroke-width: 0.8; stroke-linejoin: miter; stroke-linecap: square"/>
   </g>
   <g id="legend_1">
    <g id="patch_7">
     <path d="M 64.6 78.82825 
L 129.342187 78.82825 
Q 131.342187 78.82825 131.342187 76.82825 
L 131.342187 48.472 
Q 131.342187 46.472 129.342187 46.472 
L 64.6 46.472 
Q 62.6 46.472 62.6 48.472 
L 62.6 76.82825 
Q 62.6 78.82825 64.6 78.82825 
z
" style="fill: #ffffff; opacity: 0.8; stroke: #cccccc; stroke-linejoin: miter"/>
    </g>
    <g id="line2d_16">
     <path d="M 66.6 54.570437 
L 76.6 54.570437 
L 86.6 54.570437 
" style="fill: none; stroke: #1f77b4; stroke-width: 1.5; stroke-linecap: square"/>
    </g>
    <g id="text_16">
     <!-- qc -->
     <g transform="translate(94.6 58.070437) scale(0.1 -0.1)">
      <defs>
       <path id="DejaVuSans-71" d="M 947 1747 
Q 947 1113 1208 752 
Q 1469 391 1925 391 
Q 2381 391 2643 752 
Q 2906 1113 2906 1747 
Q 2906 2381 2643 2742 
Q 2381 3103 1925 3103 
Q 1469 3103 1208 2742 
Q 947 2381 947 1747 
z
M 2906 525 
Q 2725 213 2448 61 
Q 2172 -91 1784 -91 
Q 1150 -91 751 415 
Q 353 922 353 1747 
Q 353 2572 751 3078 
Q 1150 3584 1784 3584 
Q 2172 3584 2448 3432 
Q 2725 3281 2906 2969 
L 2906 3500 
L 3481 3500 
L 3481 -1331 
L 2906 -1331 
L 2906 525 
z
" transform="scale(0.015625)"/>
       <path id="DejaVuSans-63" d="M 3122 3366 
L 3122 2828 
Q 2878 2963 2633 3030 
Q 2388 3097 2138 3097 
Q 1578 3097 1268 2742 
Q 959 2388 959 1747 
Q 959 1106 1268 751 
Q 1578 397 2138 397 
Q 2388 397 2633 464 
Q 2878 531 3122 666 
L 3122 134 
Q 2881 22 2623 -34 
Q 2366 -91 2075 -91 
Q 1284 -91 818 406 
Q 353 903 353 1747 
Q 353 2603 823 3093 
Q 1294 3584 2113 3584 
Q 2378 3584 2631 3529 
Q 2884 3475 3122 3366 
z
" transform="scale(0.015625)"/>
      </defs>
      <use xlink:href="#DejaVuSans-71"/>
      <use xlink:href="#DejaVuSans-63" x="63.476562"/>
     </g>
    </g>
    <g id="line2d_17">
     <path d="M 66.6 69.248562 
L 76.6 69.248562 
L 86.6 69.248562 
" style="fill: none; stroke: #ff7f0e; stroke-width: 1.5; stroke-linecap: square"/>
    </g>
    <g id="text_17">
     <!-- Trotter -->
     <g transform="translate(94.6 72.748562) scale(0.1 -0.1)">
      <defs>
       <path id="DejaVuSans-54" d="M -19 4666 
L 3928 4666 
L 3928 4134 
L 2272 4134 
L 2272 0 
L 1638 0 
L 1638 4134 
L -19 4134 
L -19 4666 
z
" transform="scale(0.015625)"/>
       <path id="DejaVuSans-72" d="M 2631 2963 
Q 2534 3019 2420 3045 
Q 2306 3072 2169 3072 
Q 1681 3072 1420 2755 
Q 1159 2438 1159 1844 
L 1159 0 
L 581 0 
L 581 3500 
L 1159 3500 
L 1159 2956 
Q 1341 3275 1631 3429 
Q 1922 3584 2338 3584 
Q 2397 3584 2469 3576 
Q 2541 3569 2628 3553 
L 2631 2963 
z
" transform="scale(0.015625)"/>
       <path id="DejaVuSans-6f" d="M 1959 3097 
Q 1497 3097 1228 2736 
Q 959 2375 959 1747 
Q 959 1119 1226 758 
Q 1494 397 1959 397 
Q 2419 397 2687 759 
Q 2956 1122 2956 1747 
Q 2956 2369 2687 2733 
Q 2419 3097 1959 3097 
z
M 1959 3584 
Q 2709 3584 3137 3096 
Q 3566 2609 3566 1747 
Q 3566 888 3137 398 
Q 2709 -91 1959 -91 
Q 1206 -91 779 398 
Q 353 888 353 1747 
Q 353 2609 779 3096 
Q 1206 3584 1959 3584 
z
" transform="scale(0.015625)"/>
       <path id="DejaVuSans-65" d="M 3597 1894 
L 3597 1613 
L 953 1613 
Q 991 1019 1311 708 
Q 1631 397 2203 397 
Q 2534 397 2845 478 
Q 3156 559 3463 722 
L 3463 178 
Q 3153 47 2828 -22 
Q 2503 -91 2169 -91 
Q 1331 -91 842 396 
Q 353 884 353 1716 
Q 353 2575 817 3079 
Q 1281 3584 2069 3584 
Q 2775 3584 3186 3129 
Q 3597 2675 3597 1894 
z
M 3022 2063 
Q 3016 2534 2758 2815 
Q 2500 3097 2075 3097 
Q 1594 3097 1305 2825 
Q 1016 2553 972 2059 
L 3022 2063 
z
" transform="scale(0.015625)"/>
      </defs>
      <use xlink:href="#DejaVuSans-54"/>
      <use xlink:href="#DejaVuSans-72" x="46.333984"/>
      <use xlink:href="#DejaVuSans-6f" x="85.197266"/>
      <use xlink:href="#DejaVuSans-74" x="146.378906"/>
      <use xlink:href="#DejaVuSans-74" x="185.587891"/>
      <use xlink:href="#DejaVuSans-65" x="224.796875"/>
      <use xlink:href="#DejaVuSans-72" x="286.320312"/>
     </g>
    </g>
   </g>
  </g>
 </g>
 <defs>
  <clipPath id="p164a9466f9">
   <rect x="57.6" y="41.472" width="357.12" height="266.112"/>
  </clipPath>
 </defs>
</svg>
