<?xml version="1.0" encoding="utf-8" standalone="no"?>
<!DOCTYPE svg PUBLIC "-//W3C//DTD SVG 1.1//EN"
  "http://www.w3.org/Graphics/SVG/1.1/DTD/svg11.dtd">
<svg xmlns:xlink="http://www.w3.org/1999/xlink" width="460.8pt" height="345.6pt" viewBox="0 0 460.8 345.6" xmlns="http://www.w3.org/2000/svg" version="1.1">
 <metadata>
  <rdf:RDF xmlns:dc="http://purl.org/dc/elements/1.1/" xmlns:cc="http://creativecommons.org/ns#" xmlns:rdf="http://www.w3.org/1999/02/22-rdf-syntax-ns#">
   <cc:Work>
    <dc:type rdf:resource="http://purl.org/dc/dcmitype/StillImage"/>
    <dc:date>2024-07-12T12:55:13.219478</dc:date>
    <dc:format>image/svg+xml</dc:format>
    <dc:creator>
     <cc:Agent>
      <dc:title>Matplotlib v3.7.1, https://matplotlib.org/</dc:title>
     </cc:Agent>
    </dc:creator>
   </cc:Work>
  </rdf:RDF>
 </metadata>
 <defs>
  <style type="text/css">*{stroke-linejoin: round; stroke-linecap: butt}</style>
 </defs>
 <g id="figure_1">
  <g id="patch_1">
   <path d="M 0 345.6 
L 460.8 345.6 
L 460.8 0 
L 0 0 
z
" style="fill: #ffffff"/>
  </g>
  <g id="axes_1">
   <g id="patch_2">
    <path d="M 57.6 307.584 
L 414.72 307.584 
L 414.72 41.472 
L 57.6 41.472 
z
" style="fill: #ffffff"/>
   </g>
   <g id="matplotlib.axis_1">
    <g id="xtick_1">
     <g id="line2d_1">
      <defs>
       <path id="m3434b80284" d="M 0 0 
L 0 3.5 
" style="stroke: #000000; stroke-width: 0.8"/>
      </defs>
      <g>
       <use xlink:href="#m3434b80284" x="73.832727" y="307.584" style="stroke: #000000; stroke-width: 0.8"/>
      </g>
     </g>
     <g id="text_1">
      <!-- 0 -->
      <g transform="translate(70.651477 322.182437) scale(0.1 -0.1)">
       <defs>
        <path id="DejaVuSans-30" d="M 2034 4250 
Q 1547 4250 1301 3770 
Q 1056 3291 1056 2328 
Q 1056 1369 1301 889 
Q 1547 409 2034 409 
Q 2525 409 2770 889 
Q 3016 1369 3016 2328 
Q 3016 3291 2770 3770 
Q 2525 4250 2034 4250 
z
M 2034 4750 
Q 2819 4750 3233 4129 
Q 3647 3509 3647 2328 
Q 3647 1150 3233 529 
Q 2819 -91 2034 -91 
Q 1250 -91 836 529 
Q 422 1150 422 2328 
Q 422 3509 836 4129 
Q 1250 4750 2034 4750 
z
" transform="scale(0.015625)"/>
       </defs>
       <use xlink:href="#DejaVuSans-30"/>
      </g>
     </g>
    </g>
    <g id="xtick_2">
     <g id="line2d_2">
      <g>
       <use xlink:href="#m3434b80284" x="137.303802" y="307.584" style="stroke: #000000; stroke-width: 0.8"/>
      </g>
     </g>
     <g id="text_2">
      <!-- 200 -->
      <g transform="translate(127.760052 322.182437) scale(0.1 -0.1)">
       <defs>
        <path id="DejaVuSans-32" d="M 1228 531 
L 3431 531 
L 3431 0 
L 469 0 
L 469 531 
Q 828 903 1448 1529 
Q 2069 2156 2228 2338 
Q 2531 2678 2651 2914 
Q 2772 3150 2772 3378 
Q 2772 3750 2511 3984 
Q 2250 4219 1831 4219 
Q 1534 4219 1204 4116 
Q 875 4013 500 3803 
L 500 4441 
Q 881 4594 1212 4672 
Q 1544 4750 1819 4750 
Q 2544 4750 2975 4387 
Q 3406 4025 3406 3419 
Q 3406 3131 3298 2873 
Q 3191 2616 2906 2266 
Q 2828 2175 2409 1742 
Q 1991 1309 1228 531 
z
" transform="scale(0.015625)"/>
       </defs>
       <use xlink:href="#DejaVuSans-32"/>
       <use xlink:href="#DejaVuSans-30" x="63.623047"/>
       <use xlink:href="#DejaVuSans-30" x="127.246094"/>
      </g>
     </g>
    </g>
    <g id="xtick_3">
     <g id="line2d_3">
      <g>
       <use xlink:href="#m3434b80284" x="200.774876" y="307.584" style="stroke: #000000; stroke-width: 0.8"/>
      </g>
     </g>
     <g id="text_3">
      <!-- 400 -->
      <g transform="translate(191.231126 322.182437) scale(0.1 -0.1)">
       <defs>
        <path id="DejaVuSans-34" d="M 2419 4116 
L 825 1625 
L 2419 1625 
L 2419 4116 
z
M 2253 4666 
L 3047 4666 
L 3047 1625 
L 3713 1625 
L 3713 1100 
L 3047 1100 
L 3047 0 
L 2419 0 
L 2419 1100 
L 313 1100 
L 313 1709 
L 2253 4666 
z
" transform="scale(0.015625)"/>
       </defs>
       <use xlink:href="#DejaVuSans-34"/>
       <use xlink:href="#DejaVuSans-30" x="63.623047"/>
       <use xlink:href="#DejaVuSans-30" x="127.246094"/>
      </g>
     </g>
    </g>
    <g id="xtick_4">
     <g id="line2d_4">
      <g>
       <use xlink:href="#m3434b80284" x="264.24595" y="307.584" style="stroke: #000000; stroke-width: 0.8"/>
      </g>
     </g>
     <g id="text_4">
      <!-- 600 -->
      <g transform="translate(254.7022 322.182437) scale(0.1 -0.1)">
       <defs>
        <path id="DejaVuSans-36" d="M 2113 2584 
Q 1688 2584 1439 2293 
Q 1191 2003 1191 1497 
Q 1191 994 1439 701 
Q 1688 409 2113 409 
Q 2538 409 2786 701 
Q 3034 994 3034 1497 
Q 3034 2003 2786 2293 
Q 2538 2584 2113 2584 
z
M 3366 4563 
L 3366 3988 
Q 3128 4100 2886 4159 
Q 2644 4219 2406 4219 
Q 1781 4219 1451 3797 
Q 1122 3375 1075 2522 
Q 1259 2794 1537 2939 
Q 1816 3084 2150 3084 
Q 2853 3084 3261 2657 
Q 3669 2231 3669 1497 
Q 3669 778 3244 343 
Q 2819 -91 2113 -91 
Q 1303 -91 875 529 
Q 447 1150 447 2328 
Q 447 3434 972 4092 
Q 1497 4750 2381 4750 
Q 2619 4750 2861 4703 
Q 3103 4656 3366 4563 
z
" transform="scale(0.015625)"/>
       </defs>
       <use xlink:href="#DejaVuSans-36"/>
       <use xlink:href="#DejaVuSans-30" x="63.623047"/>
       <use xlink:href="#DejaVuSans-30" x="127.246094"/>
      </g>
     </g>
    </g>
    <g id="xtick_5">
     <g id="line2d_5">
      <g>
       <use xlink:href="#m3434b80284" x="327.717025" y="307.584" style="stroke: #000000; stroke-width: 0.8"/>
      </g>
     </g>
     <g id="text_5">
      <!-- 800 -->
      <g transform="translate(318.173275 322.182437) scale(0.1 -0.1)">
       <defs>
        <path id="DejaVuSans-38" d="M 2034 2216 
Q 1584 2216 1326 1975 
Q 1069 1734 1069 1313 
Q 1069 891 1326 650 
Q 1584 409 2034 409 
Q 2484 409 2743 651 
Q 3003 894 3003 1313 
Q 3003 1734 2745 1975 
Q 2488 2216 2034 2216 
z
M 1403 2484 
Q 997 2584 770 2862 
Q 544 3141 544 3541 
Q 544 4100 942 4425 
Q 1341 4750 2034 4750 
Q 2731 4750 3128 4425 
Q 3525 4100 3525 3541 
Q 3525 3141 3298 2862 
Q 3072 2584 2669 2484 
Q 3125 2378 3379 2068 
Q 3634 1759 3634 1313 
Q 3634 634 3220 271 
Q 2806 -91 2034 -91 
Q 1263 -91 848 271 
Q 434 634 434 1313 
Q 434 1759 690 2068 
Q 947 2378 1403 2484 
z
M 1172 3481 
Q 1172 3119 1398 2916 
Q 1625 2713 2034 2713 
Q 2441 2713 2670 2916 
Q 2900 3119 2900 3481 
Q 2900 3844 2670 4047 
Q 2441 4250 2034 4250 
Q 1625 4250 1398 4047 
Q 1172 3844 1172 3481 
z
" transform="scale(0.015625)"/>
       </defs>
       <use xlink:href="#DejaVuSans-38"/>
       <use xlink:href="#DejaVuSans-30" x="63.623047"/>
       <use xlink:href="#DejaVuSans-30" x="127.246094"/>
      </g>
     </g>
    </g>
    <g id="xtick_6">
     <g id="line2d_6">
      <g>
       <use xlink:href="#m3434b80284" x="391.188099" y="307.584" style="stroke: #000000; stroke-width: 0.8"/>
      </g>
     </g>
     <g id="text_6">
      <!-- 1000 -->
      <g transform="translate(378.463099 322.182437) scale(0.1 -0.1)">
       <defs>
        <path id="DejaVuSans-31" d="M 794 531 
L 1825 531 
L 1825 4091 
L 703 3866 
L 703 4441 
L 1819 4666 
L 2450 4666 
L 2450 531 
L 3481 531 
L 3481 0 
L 794 0 
L 794 531 
z
" transform="scale(0.015625)"/>
       </defs>
       <use xlink:href="#DejaVuSans-31"/>
       <use xlink:href="#DejaVuSans-30" x="63.623047"/>
       <use xlink:href="#DejaVuSans-30" x="127.246094"/>
       <use xlink:href="#DejaVuSans-30" x="190.869141"/>
      </g>
     </g>
    </g>
    <g id="text_7">
     <!-- n -->
     <g transform="translate(232.99125 335.860562) scale(0.1 -0.1)">
      <defs>
       <path id="DejaVuSans-6e" d="M 3513 2113 
L 3513 0 
L 2938 0 
L 2938 2094 
Q 2938 2591 2744 2837 
Q 2550 3084 2163 3084 
Q 1697 3084 1428 2787 
Q 1159 2491 1159 1978 
L 1159 0 
L 581 0 
L 581 3500 
L 1159 3500 
L 1159 2956 
Q 1366 3272 1645 3428 
Q 1925 3584 2291 3584 
Q 2894 3584 3203 3211 
Q 3513 2838 3513 2113 
z
" transform="scale(0.015625)"/>
      </defs>
      <use xlink:href="#DejaVuSans-6e"/>
     </g>
    </g>
   </g>
   <g id="matplotlib.axis_2">
    <g id="ytick_1">
     <g id="line2d_7">
      <defs>
       <path id="m006cf8d9ea" d="M 0 0 
L -3.5 0 
" style="stroke: #000000; stroke-width: 0.8"/>
      </defs>
      <g>
       <use xlink:href="#m006cf8d9ea" x="57.6" y="277.440973" style="stroke: #000000; stroke-width: 0.8"/>
      </g>
     </g>
     <g id="text_8">
      <!-- −1.5 -->
      <g transform="translate(26.317187 281.240192) scale(0.1 -0.1)">
       <defs>
        <path id="DejaVuSans-2212" d="M 678 2272 
L 4684 2272 
L 4684 1741 
L 678 1741 
L 678 2272 
z
" transform="scale(0.015625)"/>
        <path id="DejaVuSans-2e" d="M 684 794 
L 1344 794 
L 1344 0 
L 684 0 
L 684 794 
z
" transform="scale(0.015625)"/>
        <path id="DejaVuSans-35" d="M 691 4666 
L 3169 4666 
L 3169 4134 
L 1269 4134 
L 1269 2991 
Q 1406 3038 1543 3061 
Q 1681 3084 1819 3084 
Q 2600 3084 3056 2656 
Q 3513 2228 3513 1497 
Q 3513 744 3044 326 
Q 2575 -91 1722 -91 
Q 1428 -91 1123 -41 
Q 819 9 494 109 
L 494 744 
Q 775 591 1075 516 
Q 1375 441 1709 441 
Q 2250 441 2565 725 
Q 2881 1009 2881 1497 
Q 2881 1984 2565 2268 
Q 2250 2553 1709 2553 
Q 1456 2553 1204 2497 
Q 953 2441 691 2322 
L 691 4666 
z
" transform="scale(0.015625)"/>
       </defs>
       <use xlink:href="#DejaVuSans-2212"/>
       <use xlink:href="#DejaVuSans-31" x="83.789062"/>
       <use xlink:href="#DejaVuSans-2e" x="147.412109"/>
       <use xlink:href="#DejaVuSans-35" x="179.199219"/>
      </g>
     </g>
    </g>
    <g id="ytick_2">
     <g id="line2d_8">
      <g>
       <use xlink:href="#m006cf8d9ea" x="57.6" y="239.509659" style="stroke: #000000; stroke-width: 0.8"/>
      </g>
     </g>
     <g id="text_9">
      <!-- −1.0 -->
      <g transform="translate(26.317187 243.308878) scale(0.1 -0.1)">
       <use xlink:href="#DejaVuSans-2212"/>
       <use xlink:href="#DejaVuSans-31" x="83.789062"/>
       <use xlink:href="#DejaVuSans-2e" x="147.412109"/>
       <use xlink:href="#DejaVuSans-30" x="179.199219"/>
      </g>
     </g>
    </g>
    <g id="ytick_3">
     <g id="line2d_9">
      <g>
       <use xlink:href="#m006cf8d9ea" x="57.6" y="201.578345" style="stroke: #000000; stroke-width: 0.8"/>
      </g>
     </g>
     <g id="text_10">
      <!-- −0.5 -->
      <g transform="translate(26.317187 205.377564) scale(0.1 -0.1)">
       <use xlink:href="#DejaVuSans-2212"/>
       <use xlink:href="#DejaVuSans-30" x="83.789062"/>
       <use xlink:href="#DejaVuSans-2e" x="147.412109"/>
       <use xlink:href="#DejaVuSans-35" x="179.199219"/>
      </g>
     </g>
    </g>
    <g id="ytick_4">
     <g id="line2d_10">
      <g>
       <use xlink:href="#m006cf8d9ea" x="57.6" y="163.647031" style="stroke: #000000; stroke-width: 0.8"/>
      </g>
     </g>
     <g id="text_11">
      <!-- 0.0 -->
      <g transform="translate(34.696875 167.44625) scale(0.1 -0.1)">
       <use xlink:href="#DejaVuSans-30"/>
       <use xlink:href="#DejaVuSans-2e" x="63.623047"/>
       <use xlink:href="#DejaVuSans-30" x="95.410156"/>
      </g>
     </g>
    </g>
    <g id="ytick_5">
     <g id="line2d_11">
      <g>
       <use xlink:href="#m006cf8d9ea" x="57.6" y="125.715718" style="stroke: #000000; stroke-width: 0.8"/>
      </g>
     </g>
     <g id="text_12">
      <!-- 0.5 -->
      <g transform="translate(34.696875 129.514936) scale(0.1 -0.1)">
       <use xlink:href="#DejaVuSans-30"/>
       <use xlink:href="#DejaVuSans-2e" x="63.623047"/>
       <use xlink:href="#DejaVuSans-35" x="95.410156"/>
      </g>
     </g>
    </g>
    <g id="ytick_6">
     <g id="line2d_12">
      <g>
       <use xlink:href="#m006cf8d9ea" x="57.6" y="87.784404" style="stroke: #000000; stroke-width: 0.8"/>
      </g>
     </g>
     <g id="text_13">
      <!-- 1.0 -->
      <g transform="translate(34.696875 91.583622) scale(0.1 -0.1)">
       <use xlink:href="#DejaVuSans-31"/>
       <use xlink:href="#DejaVuSans-2e" x="63.623047"/>
       <use xlink:href="#DejaVuSans-30" x="95.410156"/>
      </g>
     </g>
    </g>
    <g id="ytick_7">
     <g id="line2d_13">
      <g>
       <use xlink:href="#m006cf8d9ea" x="57.6" y="49.85309" style="stroke: #000000; stroke-width: 0.8"/>
      </g>
     </g>
     <g id="text_14">
      <!-- 1.5 -->
      <g transform="translate(34.696875 53.652309) scale(0.1 -0.1)">
       <use xlink:href="#DejaVuSans-31"/>
       <use xlink:href="#DejaVuSans-2e" x="63.623047"/>
       <use xlink:href="#DejaVuSans-35" x="95.410156"/>
      </g>
     </g>
    </g>
    <g id="text_15">
     <!-- E*t -->
     <g transform="translate(20.2375 182.147531) rotate(-90) scale(0.1 -0.1)">
      <defs>
       <path id="DejaVuSans-45" d="M 628 4666 
L 3578 4666 
L 3578 4134 
L 1259 4134 
L 1259 2753 
L 3481 2753 
L 3481 2222 
L 1259 2222 
L 1259 531 
L 3634 531 
L 3634 0 
L 628 0 
L 628 4666 
z
" transform="scale(0.015625)"/>
       <path id="DejaVuSans-2a" d="M 3009 3897 
L 1888 3291 
L 3009 2681 
L 2828 2375 
L 1778 3009 
L 1778 1831 
L 1422 1831 
L 1422 3009 
L 372 2375 
L 191 2681 
L 1313 3291 
L 191 3897 
L 372 4206 
L 1422 3572 
L 1422 4750 
L 1778 4750 
L 1778 3572 
L 2828 4206 
L 3009 3897 
z
" transform="scale(0.015625)"/>
       <path id="DejaVuSans-74" d="M 1172 4494 
L 1172 3500 
L 2356 3500 
L 2356 3053 
L 1172 3053 
L 1172 1153 
Q 1172 725 1289 603 
Q 1406 481 1766 481 
L 2356 481 
L 2356 0 
L 1766 0 
Q 1100 0 847 248 
Q 594 497 594 1153 
L 594 3053 
L 172 3053 
L 172 3500 
L 594 3500 
L 594 4494 
L 1172 4494 
z
" transform="scale(0.015625)"/>
      </defs>
      <use xlink:href="#DejaVuSans-45"/>
      <use xlink:href="#DejaVuSans-2a" x="63.183594"/>
      <use xlink:href="#DejaVuSans-74" x="113.183594"/>
     </g>
    </g>
   </g>
   <g id="line2d_14">
    <path d="M 73.832727 295.488 
L 74.150083 288.808374 
L 74.467438 287.057445 
L 75.419504 275.553308 
L 76.054215 275.383001 
L 76.37157 273.144575 
L 76.688926 271.915422 
L 77.006281 269.057206 
L 77.323636 268.768528 
L 77.958347 267.017621 
L 78.275702 266.131803 
L 78.593058 266.044935 
L 79.227769 265.069305 
L 79.545124 262.831597 
L 80.179835 262.497408 
L 80.49719 261.824254 
L 80.814545 259.774174 
L 81.131901 259.642245 
L 81.449256 259.161583 
L 81.766612 257.996207 
L 82.083967 257.940296 
L 82.401322 257.100843 
L 82.718678 255.866021 
L 83.036033 255.513486 
L 83.353388 255.343141 
L 83.670744 254.747443 
L 83.988099 254.727434 
L 84.305455 253.285194 
L 84.940165 253.098971 
L 85.257521 251.8756 
L 85.574876 251.577673 
L 85.892231 250.939486 
L 86.209587 250.649883 
L 86.526942 249.73458 
L 87.161653 249.503422 
L 87.796364 248.684091 
L 88.113719 248.333866 
L 89.065785 246.330713 
L 89.38314 246.091978 
L 90.017851 245.999473 
L 91.921983 244.245703 
L 92.239339 243.241728 
L 92.556694 242.811555 
L 93.50876 242.656207 
L 94.143471 242.332386 
L 95.095537 240.55253 
L 95.412893 239.596726 
L 95.730248 239.257936 
L 96.047603 239.121764 
L 96.364959 238.796324 
L 96.999669 238.635418 
L 97.317025 237.956384 
L 97.63438 237.895893 
L 97.951736 237.717597 
L 98.269091 237.056451 
L 98.586446 236.756515 
L 98.903802 236.695904 
L 99.221157 235.994286 
L 99.538512 235.823087 
L 100.173223 235.718149 
L 100.807934 235.089233 
L 101.125289 234.707576 
L 101.442645 234.685055 
L 102.394711 233.836567 
L 102.712066 233.241714 
L 103.029421 233.180741 
L 103.346777 232.686902 
L 103.664132 232.400377 
L 104.616198 230.941228 
L 104.933554 230.899664 
L 106.202975 229.812756 
L 107.472397 229.250314 
L 107.789752 228.866157 
L 110.01124 228.03069 
L 110.328595 227.767909 
L 110.64595 227.01732 
L 110.963306 226.918457 
L 111.280661 226.449742 
L 113.502149 225.44654 
L 114.13686 224.597064 
L 114.77157 224.324329 
L 115.088926 224.200383 
L 115.406281 223.19889 
L 115.723636 222.824089 
L 116.675702 222.749724 
L 117.310413 222.647209 
L 118.579835 221.801704 
L 119.214545 221.18421 
L 120.166612 220.509334 
L 120.483967 219.862717 
L 120.801322 219.776701 
L 121.118678 219.274976 
L 121.436033 219.215429 
L 122.070744 218.751258 
L 122.705455 218.595512 
L 123.02281 218.254307 
L 123.340165 218.177677 
L 123.657521 217.673876 
L 123.974876 217.66902 
L 124.292231 217.546147 
L 124.609587 216.804342 
L 125.244298 216.656081 
L 125.561653 215.949016 
L 125.879008 215.772431 
L 126.513719 215.676056 
L 127.14843 215.514331 
L 128.735207 214.690127 
L 129.052562 214.676682 
L 129.369917 214.088937 
L 129.687273 213.807652 
L 130.004628 213.794255 
L 130.321983 213.405306 
L 130.956694 213.200455 
L 131.27405 212.357025 
L 131.591405 211.888466 
L 132.226116 211.760882 
L 132.543471 211.729873 
L 132.860826 211.486512 
L 133.495537 211.388076 
L 134.447603 210.493346 
L 135.082314 210.165303 
L 135.399669 210.126159 
L 136.03438 209.768582 
L 136.351736 209.207679 
L 136.669091 209.165273 
L 137.303802 208.889357 
L 138.255868 208.707935 
L 138.890579 208.183591 
L 139.207934 208.14755 
L 139.525289 207.98531 
L 139.842645 207.981514 
L 140.16 207.724369 
L 140.477355 207.683817 
L 140.794711 207.445396 
L 141.429421 206.787599 
L 142.698843 206.090668 
L 143.016198 206.055332 
L 143.650909 205.441794 
L 143.968264 205.400574 
L 144.28562 205.114213 
L 145.237686 204.793914 
L 145.555041 204.746387 
L 145.872397 204.284507 
L 146.507107 204.206913 
L 147.141818 203.22686 
L 147.459174 203.011165 
L 147.776529 202.956993 
L 148.093884 202.725804 
L 148.41124 202.697546 
L 149.04595 202.477901 
L 149.998017 202.312405 
L 150.315372 202.014707 
L 151.267438 201.756145 
L 151.584793 201.395453 
L 151.902149 201.376692 
L 152.854215 200.890189 
L 153.17157 200.435563 
L 153.806281 200.36178 
L 154.123636 199.819535 
L 155.710413 199.077737 
L 156.662479 198.864523 
L 156.979835 198.790524 
L 157.29719 198.212218 
L 158.249256 197.956885 
L 158.566612 197.626915 
L 158.883967 196.928069 
L 159.518678 196.728409 
L 160.470744 196.267361 
L 160.788099 195.769062 
L 161.42281 195.730226 
L 163.326942 194.83392 
L 164.596364 194.644617 
L 164.913719 193.967185 
L 166.18314 193.764861 
L 166.500496 193.362432 
L 167.769917 193.157231 
L 168.087273 192.823384 
L 168.404628 192.756093 
L 168.721983 192.226728 
L 169.67405 191.926152 
L 170.30876 191.453853 
L 171.260826 191.311034 
L 171.578182 191.143009 
L 171.895537 191.130857 
L 172.212893 190.90044 
L 172.530248 190.450401 
L 172.847603 190.41084 
L 173.482314 190.087204 
L 173.799669 190.079886 
L 175.386446 189.296047 
L 176.021157 189.049839 
L 177.290579 188.67003 
L 177.607934 188.391081 
L 178.877355 188.175414 
L 179.512066 187.597894 
L 180.464132 187.212309 
L 180.781488 186.807204 
L 183.637686 186.17696 
L 183.955041 186.011977 
L 184.272397 185.487663 
L 185.541818 184.992525 
L 185.859174 184.935613 
L 186.176529 184.586498 
L 186.81124 184.253886 
L 187.44595 184.201673 
L 188.398017 183.809029 
L 188.715372 183.801267 
L 189.032727 183.62946 
L 189.350083 183.327604 
L 189.667438 183.305524 
L 191.888926 182.326319 
L 192.206281 182.306122 
L 192.523636 182.042175 
L 193.158347 181.92257 
L 195.062479 181.385142 
L 195.379835 181.050278 
L 196.331901 180.892776 
L 196.649256 180.591779 
L 197.918678 180.100826 
L 198.236033 179.681279 
L 198.870744 179.608585 
L 199.188099 179.359002 
L 199.505455 179.312808 
L 200.140165 178.79102 
L 201.726942 178.439606 
L 203.94843 177.621112 
L 204.265785 177.548268 
L 204.900496 176.8787 
L 206.169917 176.090194 
L 207.121983 176.032623 
L 207.439339 175.779566 
L 207.756694 175.732854 
L 208.391405 175.277007 
L 208.70876 175.240455 
L 209.660826 174.659588 
L 210.612893 174.455195 
L 211.882314 173.899439 
L 212.83438 173.703377 
L 213.151736 173.322468 
L 213.786446 173.228932 
L 214.738512 173.012162 
L 215.055868 172.986465 
L 215.373223 172.719154 
L 216.007934 172.664159 
L 217.912066 171.777439 
L 218.546777 171.702777 
L 219.181488 171.270506 
L 219.816198 171.012332 
L 220.133554 170.99288 
L 222.672397 169.903467 
L 223.307107 169.786928 
L 226.163306 168.65568 
L 227.432727 168.37287 
L 229.019504 167.667334 
L 229.654215 167.657848 
L 229.97157 167.486344 
L 230.606281 166.840846 
L 231.240992 166.763121 
L 231.558347 166.347264 
L 232.193058 166.078411 
L 234.414545 165.721963 
L 234.731901 165.589095 
L 235.049256 165.58204 
L 235.366612 165.278665 
L 236.636033 165.141314 
L 236.953388 164.889407 
L 237.588099 164.78178 
L 238.22281 164.542692 
L 240.761653 164.039069 
L 242.031074 163.468163 
L 242.34843 162.926704 
L 243.300496 162.858151 
L 243.935207 162.71897 
L 244.252562 162.337452 
L 245.839339 161.924046 
L 246.47405 161.696904 
L 246.791405 161.688849 
L 247.10876 161.110266 
L 248.378182 160.566706 
L 251.869091 159.804987 
L 252.186446 159.667122 
L 252.503802 159.35883 
L 253.773223 158.972504 
L 254.090579 158.759535 
L 255.994711 158.220125 
L 256.946777 158.06481 
L 257.264132 158.018686 
L 258.850909 157.21437 
L 260.120331 157.035853 
L 260.437686 156.775182 
L 260.755041 156.71495 
L 261.072397 156.519973 
L 262.024463 156.308923 
L 262.659174 156.023731 
L 262.976529 155.758596 
L 263.293884 155.722875 
L 264.563306 155.043405 
L 265.832727 154.597322 
L 266.467438 154.56482 
L 267.102149 154.223699 
L 267.73686 154.115098 
L 268.37157 153.390242 
L 271.227769 152.390971 
L 272.179835 152.288693 
L 273.449256 151.665718 
L 275.353388 151.173887 
L 276.305455 151.102949 
L 276.62281 150.778867 
L 277.892231 150.635909 
L 278.526942 149.598339 
L 279.479008 149.395297 
L 281.065785 149.003163 
L 281.38314 148.815329 
L 281.700496 148.798491 
L 282.017851 148.543715 
L 283.604628 148.14342 
L 284.239339 147.852808 
L 285.50876 147.404547 
L 286.143471 146.946022 
L 286.778182 146.849656 
L 287.095537 146.482162 
L 287.412893 146.462553 
L 287.730248 146.293241 
L 288.364959 146.156182 
L 288.682314 145.666165 
L 289.317025 145.586639 
L 289.63438 145.323429 
L 290.269091 145.156293 
L 290.586446 145.122165 
L 291.221157 144.90269 
L 292.173223 144.567592 
L 292.490579 144.370341 
L 292.807934 144.33504 
L 293.125289 144.165501 
L 293.76 144.111824 
L 294.077355 143.914346 
L 295.029421 143.82916 
L 297.250909 143.039634 
L 300.107107 141.992053 
L 300.424463 141.94513 
L 300.741818 141.55802 
L 301.693884 141.425284 
L 302.01124 140.876301 
L 303.280661 140.4662 
L 303.598017 140.234807 
L 303.915372 140.219885 
L 304.232727 139.787267 
L 304.550083 139.559814 
L 305.819504 139.454911 
L 306.13686 139.254057 
L 306.77157 139.220165 
L 309.627769 138.280103 
L 310.262479 138.115673 
L 310.579835 137.855858 
L 311.531901 137.58401 
L 312.483967 137.191737 
L 312.801322 137.188575 
L 313.118678 136.841681 
L 313.436033 136.673717 
L 314.705455 136.534156 
L 315.02281 136.10269 
L 315.340165 136.102019 
L 316.926942 135.271252 
L 318.196364 135.05744 
L 319.14843 134.381232 
L 319.78314 133.82952 
L 320.417851 133.789376 
L 320.735207 133.471636 
L 321.052562 133.339809 
L 321.369917 133.061097 
L 322.004628 132.801087 
L 322.639339 132.585504 
L 323.591405 132.0552 
L 324.543471 131.865274 
L 324.860826 131.852604 
L 325.495537 131.366054 
L 326.130248 130.950832 
L 327.399669 130.825057 
L 328.03438 130.722147 
L 328.351736 130.459918 
L 328.986446 130.38938 
L 329.303802 130.07145 
L 329.938512 129.885442 
L 330.890579 129.635919 
L 331.207934 129.232222 
L 331.842645 128.973068 
L 332.16 128.961943 
L 332.794711 128.348967 
L 333.112066 127.932242 
L 333.429421 127.903293 
L 334.381488 127.226773 
L 335.016198 127.068031 
L 335.650909 126.815911 
L 336.602975 126.172751 
L 336.920331 126.131102 
L 337.872397 125.534307 
L 338.189752 125.512066 
L 338.507107 125.14615 
L 338.824463 124.994178 
L 339.459174 124.889488 
L 339.776529 124.842693 
L 340.093884 124.402991 
L 340.41124 124.338131 
L 341.04595 124.040784 
L 342.950083 123.440183 
L 343.902149 122.956248 
L 344.219504 122.747213 
L 344.854215 122.727549 
L 345.17157 122.585811 
L 345.488926 122.052911 
L 345.806281 121.861045 
L 346.758347 121.704137 
L 348.345124 120.538803 
L 348.662479 119.892011 
L 349.614545 119.333216 
L 350.249256 119.152136 
L 350.566612 119.115759 
L 351.201322 118.664472 
L 351.518678 118.171094 
L 352.153388 118.029988 
L 353.105455 117.858701 
L 353.740165 117.550056 
L 354.374876 117.48351 
L 354.692231 117.344513 
L 355.009587 117.327157 
L 355.326942 117.00689 
L 355.644298 116.867027 
L 355.961653 116.345813 
L 356.596364 116.226098 
L 356.913719 115.773182 
L 358.500496 115.050223 
L 358.817851 114.672637 
L 359.135207 114.529224 
L 359.452562 113.97238 
L 360.087273 113.461329 
L 360.721983 112.942204 
L 361.039339 112.906767 
L 361.356694 112.564598 
L 361.67405 112.488849 
L 361.991405 112.057859 
L 362.30876 112.013308 
L 362.626116 111.598551 
L 363.260826 111.395845 
L 363.578182 111.216848 
L 363.895537 110.393016 
L 364.530248 110.349613 
L 364.847603 110.125793 
L 365.164959 110.060487 
L 365.482314 109.742419 
L 366.43438 109.336336 
L 366.751736 109.113042 
L 367.069091 108.633236 
L 367.386446 108.411704 
L 367.703802 108.374164 
L 368.655868 107.575385 
L 369.290579 107.394698 
L 369.925289 106.653977 
L 370.242645 106.595227 
L 371.829421 104.984822 
L 373.098843 104.347097 
L 373.416198 103.62959 
L 373.733554 103.33753 
L 374.050909 103.25811 
L 374.368264 103.002683 
L 374.68562 102.977713 
L 375.320331 101.72409 
L 375.637686 101.684835 
L 375.955041 101.130599 
L 376.272397 100.821621 
L 376.907107 100.645572 
L 377.224463 100.210848 
L 377.859174 100.067029 
L 378.176529 99.3466 
L 379.128595 98.347682 
L 379.763306 97.839625 
L 380.080661 97.568809 
L 380.398017 97.528968 
L 381.032727 97.218537 
L 381.350083 97.15462 
L 382.619504 94.801322 
L 382.93686 94.343826 
L 383.57157 94.093295 
L 383.888926 93.643548 
L 384.206281 92.772951 
L 385.158347 92.160819 
L 385.793058 91.064401 
L 386.110413 90.020824 
L 386.427769 89.796126 
L 386.745124 89.034127 
L 387.062479 89.007214 
L 387.379835 88.783453 
L 387.69719 88.021914 
L 388.331901 87.642454 
L 388.649256 87.569372 
L 389.283967 86.703604 
L 389.918678 85.788995 
L 390.870744 82.929237 
L 391.188099 82.852201 
L 391.505455 81.355416 
L 391.82281 81.111273 
L 392.140165 80.492885 
L 392.457521 80.31593 
L 392.774876 79.849422 
L 393.092231 79.738256 
L 393.409587 79.358761 
L 393.726942 78.019849 
L 394.044298 77.825983 
L 394.679008 73.897707 
L 394.996364 73.896268 
L 395.313719 73.76407 
L 395.631074 72.444633 
L 395.94843 71.950624 
L 396.265785 68.705311 
L 396.58314 67.692532 
L 396.900496 67.240399 
L 397.217851 65.459605 
L 397.535207 62.523328 
L 398.169917 59.029019 
L 398.487273 53.568 
L 398.487273 53.568 
" clip-path="url(#p47296863f0)" style="fill: none; stroke: #1f77b4; stroke-width: 1.5; stroke-linecap: square"/>
   </g>
   <g id="line2d_15">
    <path d="M 73.832727 194.674271 
L 74.150083 191.053726 
L 74.467438 191.053726 
L 74.784793 187.958897 
L 75.102149 187.316058 
L 75.73686 187.316058 
L 76.054215 186.158098 
L 76.37157 184.203301 
L 76.688926 184.083368 
L 77.006281 184.083368 
L 77.323636 183.780897 
L 78.910413 183.780897 
L 79.227769 182.678081 
L 79.545124 182.678081 
L 80.179835 182.032224 
L 80.49719 182.032224 
L 80.814545 180.812749 
L 81.131901 180.238732 
L 82.083967 180.228862 
L 82.401322 179.889133 
L 86.844298 179.869845 
L 87.161653 179.683827 
L 87.479008 178.800162 
L 88.431074 178.2989 
L 89.700496 178.2989 
L 90.017851 177.908031 
L 90.652562 177.908031 
L 90.969917 177.453978 
L 91.287273 177.453978 
L 91.604628 177.217452 
L 91.921983 176.609071 
L 99.221157 176.609071 
L 99.538512 176.246557 
L 101.76 176.160807 
L 102.077355 175.785052 
L 103.981488 175.700295 
L 104.298843 175.553783 
L 104.933554 175.553783 
L 105.250909 175.038485 
L 106.202975 175.012515 
L 106.520331 173.849573 
L 108.741818 173.466874 
L 109.376529 173.466874 
L 109.693884 172.879158 
L 110.01124 172.879158 
L 110.328595 172.229917 
L 129.369917 172.22989 
L 130.004628 171.648258 
L 130.321983 171.513956 
L 131.27405 171.491833 
L 131.591405 171.190021 
L 132.860826 171.121068 
L 133.178182 170.540061 
L 133.495537 170.540061 
L 133.812893 170.418398 
L 135.399669 170.418398 
L 135.717025 169.922927 
L 136.986446 169.716042 
L 163.009587 169.716042 
L 163.326942 169.201806 
L 167.769917 169.107827 
L 168.087273 168.471393 
L 168.404628 168.471393 
L 168.721983 168.301517 
L 169.67405 168.191893 
L 169.991405 167.929325 
L 171.895537 167.849807 
L 172.530248 167.744196 
L 173.164959 167.665656 
L 180.146777 167.665656 
L 180.464132 167.530468 
L 180.781488 167.530468 
L 181.098843 167.397863 
L 182.68562 167.397863 
L 183.320331 166.16088 
L 186.493884 166.078008 
L 186.81124 165.969452 
L 187.128595 165.697418 
L 187.44595 165.697418 
L 187.763306 165.513172 
L 188.080661 165.513172 
L 188.398017 164.743994 
L 188.715372 163.647031 
L 283.604628 163.647031 
L 284.239339 161.780891 
L 284.556694 161.780891 
L 284.87405 161.596645 
L 285.191405 161.596645 
L 285.50876 161.324611 
L 286.143471 161.216055 
L 288.999669 161.133183 
L 289.63438 159.896199 
L 291.221157 159.896199 
L 291.538512 159.763595 
L 291.855868 159.763595 
L 292.173223 159.628407 
L 300.107107 159.549867 
L 300.741818 159.364738 
L 302.328595 159.364738 
L 302.64595 159.10217 
L 303.280661 158.992546 
L 303.598017 158.992546 
L 303.915372 158.82267 
L 304.232727 158.82267 
L 304.550083 158.186236 
L 308.993058 158.092257 
L 309.310413 157.578021 
L 335.968264 157.549816 
L 336.602975 157.371136 
L 336.920331 156.875664 
L 338.507107 156.875664 
L 338.824463 156.754002 
L 339.141818 156.754002 
L 339.459174 156.172995 
L 340.728595 156.104041 
L 341.04595 155.80223 
L 342.315372 155.645805 
L 342.632727 155.433114 
L 342.950083 155.064173 
L 361.991405 155.064146 
L 362.30876 154.414905 
L 362.626116 154.414905 
L 362.943471 153.827189 
L 364.530248 153.827189 
L 364.847603 153.559397 
L 365.482314 153.513218 
L 365.799669 153.44449 
L 366.117025 152.281547 
L 367.069091 152.255578 
L 367.386446 151.74028 
L 368.021157 151.74028 
L 368.655868 151.509011 
L 370.242645 151.509011 
L 370.56 151.133256 
L 372.781488 151.047505 
L 373.098843 150.684992 
L 380.398017 150.684992 
L 380.715372 150.076611 
L 381.032727 149.840085 
L 381.350083 149.840085 
L 381.667438 149.386032 
L 382.302149 149.386032 
L 382.619504 148.995163 
L 384.206281 148.995163 
L 384.840992 148.493901 
L 385.158347 147.610236 
L 385.475702 147.424218 
L 389.918678 147.40493 
L 390.236033 147.065201 
L 391.188099 147.055331 
L 391.505455 146.481314 
L 391.82281 145.261839 
L 392.140165 145.261839 
L 392.457521 145.015197 
L 392.774876 144.615982 
L 393.092231 144.615982 
L 393.409587 143.513166 
L 394.996364 143.513166 
L 395.313719 143.210695 
L 395.631074 143.210695 
L 395.94843 143.090762 
L 396.265785 141.135965 
L 396.58314 139.978005 
L 397.217851 139.978005 
L 397.535207 139.335166 
L 397.852562 136.240337 
L 398.169917 136.240337 
L 398.487273 132.619792 
L 398.487273 132.619792 
" clip-path="url(#p47296863f0)" style="fill: none; stroke: #ff7f0e; stroke-width: 1.5; stroke-linecap: square"/>
   </g>
   <g id="patch_3">
    <path d="M 57.6 307.584 
L 57.6 41.472 
" style="fill: none; stroke: #000000; stroke-width: 0.8; stroke-linejoin: miter; stroke-linecap: square"/>
   </g>
   <g id="patch_4">
    <path d="M 414.72 307.584 
L 414.72 41.472 
" style="fill: none; stroke: #000000; stroke-width: 0.8; stroke-linejoin: miter; stroke-linecap: square"/>
   </g>
   <g id="patch_5">
    <path d="M 57.6 307.584 
L 414.72 307.584 
" style="fill: none; stroke: #000000; stroke-width: 0.8; stroke-linejoin: miter; stroke-linecap: square"/>
   </g>
   <g id="patch_6">
    <path d="M 57.6 41.472 
L 414.72 41.472 
" style="fill: none; stroke: #000000; stroke-width: 0.8; stroke-linejoin: miter; stroke-linecap: square"/>
   </g>
   <g id="legend_1">
    <g id="patch_7">
     <path d="M 64.6 78.82825 
L 129.342187 78.82825 
Q 131.342187 78.82825 131.342187 76.82825 
L 131.342187 48.472 
Q 131.342187 46.472 129.342187 46.472 
L 64.6 46.472 
Q 62.6 46.472 62.6 48.472 
L 62.6 76.82825 
Q 62.6 78.82825 64.6 78.82825 
z
" style="fill: #ffffff; opacity: 0.8; stroke: #cccccc; stroke-linejoin: miter"/>
    </g>
    <g id="line2d_16">
     <path d="M 66.6 54.570437 
L 76.6 54.570437 
L 86.6 54.570437 
" style="fill: none; stroke: #1f77b4; stroke-width: 1.5; stroke-linecap: square"/>
    </g>
    <g id="text_16">
     <!-- qc -->
     <g transform="translate(94.6 58.070437) scale(0.1 -0.1)">
      <defs>
       <path id="DejaVuSans-71" d="M 947 1747 
Q 947 1113 1208 752 
Q 1469 391 1925 391 
Q 2381 391 2643 752 
Q 2906 1113 2906 1747 
Q 2906 2381 2643 2742 
Q 2381 3103 1925 3103 
Q 1469 3103 1208 2742 
Q 947 2381 947 1747 
z
M 2906 525 
Q 2725 213 2448 61 
Q 2172 -91 1784 -91 
Q 1150 -91 751 415 
Q 353 922 353 1747 
Q 353 2572 751 3078 
Q 1150 3584 1784 3584 
Q 2172 3584 2448 3432 
Q 2725 3281 2906 2969 
L 2906 3500 
L 3481 3500 
L 3481 -1331 
L 2906 -1331 
L 2906 525 
z
" transform="scale(0.015625)"/>
       <path id="DejaVuSans-63" d="M 3122 3366 
L 3122 2828 
Q 2878 2963 2633 3030 
Q 2388 3097 2138 3097 
Q 1578 3097 1268 2742 
Q 959 2388 959 1747 
Q 959 1106 1268 751 
Q 1578 397 2138 397 
Q 2388 397 2633 464 
Q 2878 531 3122 666 
L 3122 134 
Q 2881 22 2623 -34 
Q 2366 -91 2075 -91 
Q 1284 -91 818 406 
Q 353 903 353 1747 
Q 353 2603 823 3093 
Q 1294 3584 2113 3584 
Q 2378 3584 2631 3529 
Q 2884 3475 3122 3366 
z
" transform="scale(0.015625)"/>
      </defs>
      <use xlink:href="#DejaVuSans-71"/>
      <use xlink:href="#DejaVuSans-63" x="63.476562"/>
     </g>
    </g>
    <g id="line2d_17">
     <path d="M 66.6 69.248562 
L 76.6 69.248562 
L 86.6 69.248562 
" style="fill: none; stroke: #ff7f0e; stroke-width: 1.5; stroke-linecap: square"/>
    </g>
    <g id="text_17">
     <!-- Trotter -->
     <g transform="translate(94.6 72.748562) scale(0.1 -0.1)">
      <defs>
       <path id="DejaVuSans-54" d="M -19 4666 
L 3928 4666 
L 3928 4134 
L 2272 4134 
L 2272 0 
L 1638 0 
L 1638 4134 
L -19 4134 
L -19 4666 
z
" transform="scale(0.015625)"/>
       <path id="DejaVuSans-72" d="M 2631 2963 
Q 2534 3019 2420 3045 
Q 2306 3072 2169 3072 
Q 1681 3072 1420 2755 
Q 1159 2438 1159 1844 
L 1159 0 
L 581 0 
L 581 3500 
L 1159 3500 
L 1159 2956 
Q 1341 3275 1631 3429 
Q 1922 3584 2338 3584 
Q 2397 3584 2469 3576 
Q 2541 3569 2628 3553 
L 2631 2963 
z
" transform="scale(0.015625)"/>
       <path id="DejaVuSans-6f" d="M 1959 3097 
Q 1497 3097 1228 2736 
Q 959 2375 959 1747 
Q 959 1119 1226 758 
Q 1494 397 1959 397 
Q 2419 397 2687 759 
Q 2956 1122 2956 1747 
Q 2956 2369 2687 2733 
Q 2419 3097 1959 3097 
z
M 1959 3584 
Q 2709 3584 3137 3096 
Q 3566 2609 3566 1747 
Q 3566 888 3137 398 
Q 2709 -91 1959 -91 
Q 1206 -91 779 398 
Q 353 888 353 1747 
Q 353 2609 779 3096 
Q 1206 3584 1959 3584 
z
" transform="scale(0.015625)"/>
       <path id="DejaVuSans-65" d="M 3597 1894 
L 3597 1613 
L 953 1613 
Q 991 1019 1311 708 
Q 1631 397 2203 397 
Q 2534 397 2845 478 
Q 3156 559 3463 722 
L 3463 178 
Q 3153 47 2828 -22 
Q 2503 -91 2169 -91 
Q 1331 -91 842 396 
Q 353 884 353 1716 
Q 353 2575 817 3079 
Q 1281 3584 2069 3584 
Q 2775 3584 3186 3129 
Q 3597 2675 3597 1894 
z
M 3022 2063 
Q 3016 2534 2758 2815 
Q 2500 3097 2075 3097 
Q 1594 3097 1305 2825 
Q 1016 2553 972 2059 
L 3022 2063 
z
" transform="scale(0.015625)"/>
      </defs>
      <use xlink:href="#DejaVuSans-54"/>
      <use xlink:href="#DejaVuSans-72" x="46.333984"/>
      <use xlink:href="#DejaVuSans-6f" x="85.197266"/>
      <use xlink:href="#DejaVuSans-74" x="146.378906"/>
      <use xlink:href="#DejaVuSans-74" x="185.587891"/>
      <use xlink:href="#DejaVuSans-65" x="224.796875"/>
      <use xlink:href="#DejaVuSans-72" x="286.320312"/>
     </g>
    </g>
   </g>
  </g>
 </g>
 <defs>
  <clipPath id="p47296863f0">
   <rect x="57.6" y="41.472" width="357.12" height="266.112"/>
  </clipPath>
 </defs>
</svg>
