<?xml version="1.0" encoding="utf-8" standalone="no"?>
<!DOCTYPE svg PUBLIC "-//W3C//DTD SVG 1.1//EN"
  "http://www.w3.org/Graphics/SVG/1.1/DTD/svg11.dtd">
<svg xmlns:xlink="http://www.w3.org/1999/xlink" width="460.8pt" height="345.6pt" viewBox="0 0 460.8 345.6" xmlns="http://www.w3.org/2000/svg" version="1.1">
 <metadata>
  <rdf:RDF xmlns:dc="http://purl.org/dc/elements/1.1/" xmlns:cc="http://creativecommons.org/ns#" xmlns:rdf="http://www.w3.org/1999/02/22-rdf-syntax-ns#">
   <cc:Work>
    <dc:type rdf:resource="http://purl.org/dc/dcmitype/StillImage"/>
    <dc:date>2024-07-12T13:05:08.384050</dc:date>
    <dc:format>image/svg+xml</dc:format>
    <dc:creator>
     <cc:Agent>
      <dc:title>Matplotlib v3.7.1, https://matplotlib.org/</dc:title>
     </cc:Agent>
    </dc:creator>
   </cc:Work>
  </rdf:RDF>
 </metadata>
 <defs>
  <style type="text/css">*{stroke-linejoin: round; stroke-linecap: butt}</style>
 </defs>
 <g id="figure_1">
  <g id="patch_1">
   <path d="M 0 345.6 
L 460.8 345.6 
L 460.8 0 
L 0 0 
z
" style="fill: #ffffff"/>
  </g>
  <g id="axes_1">
   <g id="patch_2">
    <path d="M 57.6 307.584 
L 414.72 307.584 
L 414.72 41.472 
L 57.6 41.472 
z
" style="fill: #ffffff"/>
   </g>
   <g id="matplotlib.axis_1">
    <g id="xtick_1">
     <g id="line2d_1">
      <defs>
       <path id="mdc8f8983ba" d="M 0 0 
L 0 3.5 
" style="stroke: #000000; stroke-width: 0.8"/>
      </defs>
      <g>
       <use xlink:href="#mdc8f8983ba" x="73.832727" y="307.584" style="stroke: #000000; stroke-width: 0.8"/>
      </g>
     </g>
     <g id="text_1">
      <!-- 0 -->
      <g transform="translate(70.651477 322.182437) scale(0.1 -0.1)">
       <defs>
        <path id="DejaVuSans-30" d="M 2034 4250 
Q 1547 4250 1301 3770 
Q 1056 3291 1056 2328 
Q 1056 1369 1301 889 
Q 1547 409 2034 409 
Q 2525 409 2770 889 
Q 3016 1369 3016 2328 
Q 3016 3291 2770 3770 
Q 2525 4250 2034 4250 
z
M 2034 4750 
Q 2819 4750 3233 4129 
Q 3647 3509 3647 2328 
Q 3647 1150 3233 529 
Q 2819 -91 2034 -91 
Q 1250 -91 836 529 
Q 422 1150 422 2328 
Q 422 3509 836 4129 
Q 1250 4750 2034 4750 
z
" transform="scale(0.015625)"/>
       </defs>
       <use xlink:href="#DejaVuSans-30"/>
      </g>
     </g>
    </g>
    <g id="xtick_2">
     <g id="line2d_2">
      <g>
       <use xlink:href="#mdc8f8983ba" x="137.303802" y="307.584" style="stroke: #000000; stroke-width: 0.8"/>
      </g>
     </g>
     <g id="text_2">
      <!-- 200 -->
      <g transform="translate(127.760052 322.182437) scale(0.1 -0.1)">
       <defs>
        <path id="DejaVuSans-32" d="M 1228 531 
L 3431 531 
L 3431 0 
L 469 0 
L 469 531 
Q 828 903 1448 1529 
Q 2069 2156 2228 2338 
Q 2531 2678 2651 2914 
Q 2772 3150 2772 3378 
Q 2772 3750 2511 3984 
Q 2250 4219 1831 4219 
Q 1534 4219 1204 4116 
Q 875 4013 500 3803 
L 500 4441 
Q 881 4594 1212 4672 
Q 1544 4750 1819 4750 
Q 2544 4750 2975 4387 
Q 3406 4025 3406 3419 
Q 3406 3131 3298 2873 
Q 3191 2616 2906 2266 
Q 2828 2175 2409 1742 
Q 1991 1309 1228 531 
z
" transform="scale(0.015625)"/>
       </defs>
       <use xlink:href="#DejaVuSans-32"/>
       <use xlink:href="#DejaVuSans-30" x="63.623047"/>
       <use xlink:href="#DejaVuSans-30" x="127.246094"/>
      </g>
     </g>
    </g>
    <g id="xtick_3">
     <g id="line2d_3">
      <g>
       <use xlink:href="#mdc8f8983ba" x="200.774876" y="307.584" style="stroke: #000000; stroke-width: 0.8"/>
      </g>
     </g>
     <g id="text_3">
      <!-- 400 -->
      <g transform="translate(191.231126 322.182437) scale(0.1 -0.1)">
       <defs>
        <path id="DejaVuSans-34" d="M 2419 4116 
L 825 1625 
L 2419 1625 
L 2419 4116 
z
M 2253 4666 
L 3047 4666 
L 3047 1625 
L 3713 1625 
L 3713 1100 
L 3047 1100 
L 3047 0 
L 2419 0 
L 2419 1100 
L 313 1100 
L 313 1709 
L 2253 4666 
z
" transform="scale(0.015625)"/>
       </defs>
       <use xlink:href="#DejaVuSans-34"/>
       <use xlink:href="#DejaVuSans-30" x="63.623047"/>
       <use xlink:href="#DejaVuSans-30" x="127.246094"/>
      </g>
     </g>
    </g>
    <g id="xtick_4">
     <g id="line2d_4">
      <g>
       <use xlink:href="#mdc8f8983ba" x="264.24595" y="307.584" style="stroke: #000000; stroke-width: 0.8"/>
      </g>
     </g>
     <g id="text_4">
      <!-- 600 -->
      <g transform="translate(254.7022 322.182437) scale(0.1 -0.1)">
       <defs>
        <path id="DejaVuSans-36" d="M 2113 2584 
Q 1688 2584 1439 2293 
Q 1191 2003 1191 1497 
Q 1191 994 1439 701 
Q 1688 409 2113 409 
Q 2538 409 2786 701 
Q 3034 994 3034 1497 
Q 3034 2003 2786 2293 
Q 2538 2584 2113 2584 
z
M 3366 4563 
L 3366 3988 
Q 3128 4100 2886 4159 
Q 2644 4219 2406 4219 
Q 1781 4219 1451 3797 
Q 1122 3375 1075 2522 
Q 1259 2794 1537 2939 
Q 1816 3084 2150 3084 
Q 2853 3084 3261 2657 
Q 3669 2231 3669 1497 
Q 3669 778 3244 343 
Q 2819 -91 2113 -91 
Q 1303 -91 875 529 
Q 447 1150 447 2328 
Q 447 3434 972 4092 
Q 1497 4750 2381 4750 
Q 2619 4750 2861 4703 
Q 3103 4656 3366 4563 
z
" transform="scale(0.015625)"/>
       </defs>
       <use xlink:href="#DejaVuSans-36"/>
       <use xlink:href="#DejaVuSans-30" x="63.623047"/>
       <use xlink:href="#DejaVuSans-30" x="127.246094"/>
      </g>
     </g>
    </g>
    <g id="xtick_5">
     <g id="line2d_5">
      <g>
       <use xlink:href="#mdc8f8983ba" x="327.717025" y="307.584" style="stroke: #000000; stroke-width: 0.8"/>
      </g>
     </g>
     <g id="text_5">
      <!-- 800 -->
      <g transform="translate(318.173275 322.182437) scale(0.1 -0.1)">
       <defs>
        <path id="DejaVuSans-38" d="M 2034 2216 
Q 1584 2216 1326 1975 
Q 1069 1734 1069 1313 
Q 1069 891 1326 650 
Q 1584 409 2034 409 
Q 2484 409 2743 651 
Q 3003 894 3003 1313 
Q 3003 1734 2745 1975 
Q 2488 2216 2034 2216 
z
M 1403 2484 
Q 997 2584 770 2862 
Q 544 3141 544 3541 
Q 544 4100 942 4425 
Q 1341 4750 2034 4750 
Q 2731 4750 3128 4425 
Q 3525 4100 3525 3541 
Q 3525 3141 3298 2862 
Q 3072 2584 2669 2484 
Q 3125 2378 3379 2068 
Q 3634 1759 3634 1313 
Q 3634 634 3220 271 
Q 2806 -91 2034 -91 
Q 1263 -91 848 271 
Q 434 634 434 1313 
Q 434 1759 690 2068 
Q 947 2378 1403 2484 
z
M 1172 3481 
Q 1172 3119 1398 2916 
Q 1625 2713 2034 2713 
Q 2441 2713 2670 2916 
Q 2900 3119 2900 3481 
Q 2900 3844 2670 4047 
Q 2441 4250 2034 4250 
Q 1625 4250 1398 4047 
Q 1172 3844 1172 3481 
z
" transform="scale(0.015625)"/>
       </defs>
       <use xlink:href="#DejaVuSans-38"/>
       <use xlink:href="#DejaVuSans-30" x="63.623047"/>
       <use xlink:href="#DejaVuSans-30" x="127.246094"/>
      </g>
     </g>
    </g>
    <g id="xtick_6">
     <g id="line2d_6">
      <g>
       <use xlink:href="#mdc8f8983ba" x="391.188099" y="307.584" style="stroke: #000000; stroke-width: 0.8"/>
      </g>
     </g>
     <g id="text_6">
      <!-- 1000 -->
      <g transform="translate(378.463099 322.182437) scale(0.1 -0.1)">
       <defs>
        <path id="DejaVuSans-31" d="M 794 531 
L 1825 531 
L 1825 4091 
L 703 3866 
L 703 4441 
L 1819 4666 
L 2450 4666 
L 2450 531 
L 3481 531 
L 3481 0 
L 794 0 
L 794 531 
z
" transform="scale(0.015625)"/>
       </defs>
       <use xlink:href="#DejaVuSans-31"/>
       <use xlink:href="#DejaVuSans-30" x="63.623047"/>
       <use xlink:href="#DejaVuSans-30" x="127.246094"/>
       <use xlink:href="#DejaVuSans-30" x="190.869141"/>
      </g>
     </g>
    </g>
    <g id="text_7">
     <!-- n -->
     <g transform="translate(232.99125 335.860562) scale(0.1 -0.1)">
      <defs>
       <path id="DejaVuSans-6e" d="M 3513 2113 
L 3513 0 
L 2938 0 
L 2938 2094 
Q 2938 2591 2744 2837 
Q 2550 3084 2163 3084 
Q 1697 3084 1428 2787 
Q 1159 2491 1159 1978 
L 1159 0 
L 581 0 
L 581 3500 
L 1159 3500 
L 1159 2956 
Q 1366 3272 1645 3428 
Q 1925 3584 2291 3584 
Q 2894 3584 3203 3211 
Q 3513 2838 3513 2113 
z
" transform="scale(0.015625)"/>
      </defs>
      <use xlink:href="#DejaVuSans-6e"/>
     </g>
    </g>
   </g>
   <g id="matplotlib.axis_2">
    <g id="ytick_1">
     <g id="line2d_7">
      <defs>
       <path id="m2ea228afe4" d="M 0 0 
L -3.5 0 
" style="stroke: #000000; stroke-width: 0.8"/>
      </defs>
      <g>
       <use xlink:href="#m2ea228afe4" x="57.6" y="290.176787" style="stroke: #000000; stroke-width: 0.8"/>
      </g>
     </g>
     <g id="text_8">
      <!-- −3 -->
      <g transform="translate(35.857813 293.976005) scale(0.1 -0.1)">
       <defs>
        <path id="DejaVuSans-2212" d="M 678 2272 
L 4684 2272 
L 4684 1741 
L 678 1741 
L 678 2272 
z
" transform="scale(0.015625)"/>
        <path id="DejaVuSans-33" d="M 2597 2516 
Q 3050 2419 3304 2112 
Q 3559 1806 3559 1356 
Q 3559 666 3084 287 
Q 2609 -91 1734 -91 
Q 1441 -91 1130 -33 
Q 819 25 488 141 
L 488 750 
Q 750 597 1062 519 
Q 1375 441 1716 441 
Q 2309 441 2620 675 
Q 2931 909 2931 1356 
Q 2931 1769 2642 2001 
Q 2353 2234 1838 2234 
L 1294 2234 
L 1294 2753 
L 1863 2753 
Q 2328 2753 2575 2939 
Q 2822 3125 2822 3475 
Q 2822 3834 2567 4026 
Q 2313 4219 1838 4219 
Q 1578 4219 1281 4162 
Q 984 4106 628 3988 
L 628 4550 
Q 988 4650 1302 4700 
Q 1616 4750 1894 4750 
Q 2613 4750 3031 4423 
Q 3450 4097 3450 3541 
Q 3450 3153 3228 2886 
Q 3006 2619 2597 2516 
z
" transform="scale(0.015625)"/>
       </defs>
       <use xlink:href="#DejaVuSans-2212"/>
       <use xlink:href="#DejaVuSans-33" x="83.789062"/>
      </g>
     </g>
    </g>
    <g id="ytick_2">
     <g id="line2d_8">
      <g>
       <use xlink:href="#m2ea228afe4" x="57.6" y="251.616068" style="stroke: #000000; stroke-width: 0.8"/>
      </g>
     </g>
     <g id="text_9">
      <!-- −2 -->
      <g transform="translate(35.857813 255.415287) scale(0.1 -0.1)">
       <use xlink:href="#DejaVuSans-2212"/>
       <use xlink:href="#DejaVuSans-32" x="83.789062"/>
      </g>
     </g>
    </g>
    <g id="ytick_3">
     <g id="line2d_9">
      <g>
       <use xlink:href="#m2ea228afe4" x="57.6" y="213.055349" style="stroke: #000000; stroke-width: 0.8"/>
      </g>
     </g>
     <g id="text_10">
      <!-- −1 -->
      <g transform="translate(35.857813 216.854568) scale(0.1 -0.1)">
       <use xlink:href="#DejaVuSans-2212"/>
       <use xlink:href="#DejaVuSans-31" x="83.789062"/>
      </g>
     </g>
    </g>
    <g id="ytick_4">
     <g id="line2d_10">
      <g>
       <use xlink:href="#m2ea228afe4" x="57.6" y="174.49463" style="stroke: #000000; stroke-width: 0.8"/>
      </g>
     </g>
     <g id="text_11">
      <!-- 0 -->
      <g transform="translate(44.2375 178.293849) scale(0.1 -0.1)">
       <use xlink:href="#DejaVuSans-30"/>
      </g>
     </g>
    </g>
    <g id="ytick_5">
     <g id="line2d_11">
      <g>
       <use xlink:href="#m2ea228afe4" x="57.6" y="135.933911" style="stroke: #000000; stroke-width: 0.8"/>
      </g>
     </g>
     <g id="text_12">
      <!-- 1 -->
      <g transform="translate(44.2375 139.73313) scale(0.1 -0.1)">
       <use xlink:href="#DejaVuSans-31"/>
      </g>
     </g>
    </g>
    <g id="ytick_6">
     <g id="line2d_12">
      <g>
       <use xlink:href="#m2ea228afe4" x="57.6" y="97.373192" style="stroke: #000000; stroke-width: 0.8"/>
      </g>
     </g>
     <g id="text_13">
      <!-- 2 -->
      <g transform="translate(44.2375 101.172411) scale(0.1 -0.1)">
       <use xlink:href="#DejaVuSans-32"/>
      </g>
     </g>
    </g>
    <g id="ytick_7">
     <g id="line2d_13">
      <g>
       <use xlink:href="#m2ea228afe4" x="57.6" y="58.812473" style="stroke: #000000; stroke-width: 0.8"/>
      </g>
     </g>
     <g id="text_14">
      <!-- 3 -->
      <g transform="translate(44.2375 62.611692) scale(0.1 -0.1)">
       <use xlink:href="#DejaVuSans-33"/>
      </g>
     </g>
    </g>
    <g id="text_15">
     <!-- E*t -->
     <g transform="translate(29.778125 182.147531) rotate(-90) scale(0.1 -0.1)">
      <defs>
       <path id="DejaVuSans-45" d="M 628 4666 
L 3578 4666 
L 3578 4134 
L 1259 4134 
L 1259 2753 
L 3481 2753 
L 3481 2222 
L 1259 2222 
L 1259 531 
L 3634 531 
L 3634 0 
L 628 0 
L 628 4666 
z
" transform="scale(0.015625)"/>
       <path id="DejaVuSans-2a" d="M 3009 3897 
L 1888 3291 
L 3009 2681 
L 2828 2375 
L 1778 3009 
L 1778 1831 
L 1422 1831 
L 1422 3009 
L 372 2375 
L 191 2681 
L 1313 3291 
L 191 3897 
L 372 4206 
L 1422 3572 
L 1422 4750 
L 1778 4750 
L 1778 3572 
L 2828 4206 
L 3009 3897 
z
" transform="scale(0.015625)"/>
       <path id="DejaVuSans-74" d="M 1172 4494 
L 1172 3500 
L 2356 3500 
L 2356 3053 
L 1172 3053 
L 1172 1153 
Q 1172 725 1289 603 
Q 1406 481 1766 481 
L 2356 481 
L 2356 0 
L 1766 0 
Q 1100 0 847 248 
Q 594 497 594 1153 
L 594 3053 
L 172 3053 
L 172 3500 
L 594 3500 
L 594 4494 
L 1172 4494 
z
" transform="scale(0.015625)"/>
      </defs>
      <use xlink:href="#DejaVuSans-45"/>
      <use xlink:href="#DejaVuSans-2a" x="63.183594"/>
      <use xlink:href="#DejaVuSans-74" x="113.183594"/>
     </g>
    </g>
   </g>
   <g id="line2d_14">
    <path d="M 73.832727 295.488 
L 74.150083 295.408535 
L 74.784793 295.036595 
L 75.419504 294.849308 
L 76.688926 294.03325 
L 77.006281 293.829717 
L 77.323636 293.782177 
L 77.640992 293.410597 
L 79.545124 293.059209 
L 79.862479 293.058678 
L 80.49719 292.509335 
L 81.766612 291.804372 
L 82.083967 291.500519 
L 82.718678 291.32644 
L 83.036033 291.191791 
L 83.353388 290.515241 
L 83.670744 290.487115 
L 84.305455 289.47616 
L 84.62281 289.176828 
L 84.940165 289.135754 
L 85.257521 288.832439 
L 85.892231 288.633098 
L 86.526942 288.20979 
L 86.844298 288.127153 
L 87.161653 287.483882 
L 87.479008 287.414732 
L 87.796364 287.12126 
L 88.113719 286.997003 
L 88.431074 286.680719 
L 89.065785 285.336193 
L 89.38314 285.320349 
L 89.700496 284.677561 
L 90.335207 284.531296 
L 90.969917 282.93412 
L 91.287273 282.768985 
L 92.556694 281.543708 
L 93.191405 281.282222 
L 93.50876 280.690508 
L 93.826116 280.491184 
L 94.143471 280.479454 
L 94.778182 279.668485 
L 95.095537 278.915124 
L 95.412893 278.851497 
L 95.730248 278.330037 
L 96.047603 277.360122 
L 96.682314 277.275437 
L 96.999669 277.193067 
L 97.63438 276.634317 
L 97.951736 276.56772 
L 98.586446 274.925059 
L 98.903802 274.901901 
L 99.221157 274.489243 
L 100.173223 273.827872 
L 100.807934 272.752494 
L 101.125289 272.631471 
L 101.442645 271.782553 
L 102.077355 270.991803 
L 102.394711 270.990167 
L 102.712066 269.981232 
L 103.029421 269.817119 
L 103.346777 268.911697 
L 103.664132 268.705035 
L 103.981488 268.341545 
L 104.616198 268.250303 
L 105.250909 265.414256 
L 105.568264 265.229237 
L 105.88562 265.173157 
L 106.837686 263.152564 
L 107.155041 262.698987 
L 107.472397 261.903841 
L 108.741818 260.264154 
L 109.059174 259.663112 
L 109.376529 259.545744 
L 109.693884 259.167108 
L 110.01124 257.58644 
L 111.280661 256.131233 
L 111.915372 255.619307 
L 112.550083 255.541321 
L 112.867438 255.053364 
L 113.184793 254.317169 
L 113.502149 254.05456 
L 113.819504 254.034723 
L 114.13686 252.805837 
L 114.77157 251.614884 
L 115.088926 251.169879 
L 115.406281 251.126927 
L 116.040992 250.686963 
L 116.675702 250.404515 
L 117.310413 249.738405 
L 117.945124 249.530192 
L 118.262479 249.373798 
L 119.531901 247.595047 
L 119.849256 247.097817 
L 120.801322 246.639703 
L 121.118678 245.657651 
L 121.436033 245.603755 
L 121.753388 245.375318 
L 122.070744 243.135134 
L 122.388099 242.852686 
L 122.705455 242.108874 
L 123.340165 242.042899 
L 123.657521 241.826431 
L 123.974876 241.760563 
L 124.292231 241.14358 
L 124.609587 240.861139 
L 124.926942 240.209982 
L 125.244298 240.20872 
L 125.561653 239.926276 
L 125.879008 238.67923 
L 126.513719 238.548285 
L 127.465785 238.151287 
L 127.78314 236.835143 
L 128.100496 236.573964 
L 128.417851 236.552803 
L 128.735207 235.948046 
L 129.687273 235.562655 
L 130.004628 235.193073 
L 130.321983 235.002451 
L 130.639339 234.336332 
L 131.27405 234.024301 
L 131.90876 233.856621 
L 132.226116 233.741858 
L 132.543471 233.346188 
L 133.495537 233.134373 
L 134.447603 232.943755 
L 134.764959 232.394738 
L 135.082314 232.277636 
L 135.399669 231.979596 
L 135.717025 231.917917 
L 136.03438 231.413266 
L 136.351736 231.23775 
L 136.669091 231.21854 
L 137.303802 230.39233 
L 137.938512 230.019902 
L 138.890579 229.813631 
L 139.207934 229.737455 
L 139.525289 229.398492 
L 139.842645 229.354573 
L 140.477355 229.110201 
L 140.794711 228.695061 
L 141.112066 228.066327 
L 141.746777 227.783993 
L 142.064132 227.450573 
L 142.381488 226.732949 
L 142.698843 226.450621 
L 143.333554 226.36332 
L 144.28562 225.459349 
L 144.602975 225.39188 
L 144.920331 224.735377 
L 145.237686 224.524353 
L 146.189752 224.304345 
L 146.507107 223.400638 
L 146.824463 222.994801 
L 147.459174 222.751999 
L 147.776529 222.465649 
L 148.093884 222.336857 
L 148.41124 221.155364 
L 149.04595 220.805199 
L 149.363306 220.268208 
L 149.680661 220.160853 
L 149.998017 219.0964 
L 150.315372 218.454962 
L 151.584793 218.102143 
L 151.902149 217.6884 
L 152.854215 217.627141 
L 153.17157 216.520732 
L 154.123636 216.039895 
L 154.440992 215.60311 
L 154.758347 215.569084 
L 155.075702 215.04589 
L 155.393058 214.933452 
L 155.710413 214.485549 
L 156.027769 214.342459 
L 156.345124 214.335404 
L 156.662479 213.939351 
L 156.979835 213.23592 
L 157.614545 212.485692 
L 158.883967 212.276544 
L 159.518678 211.486725 
L 160.153388 211.327788 
L 160.788099 210.909475 
L 162.692231 209.695321 
L 163.009587 209.634585 
L 163.326942 209.217588 
L 163.961653 208.994799 
L 164.596364 208.935221 
L 164.913719 208.816316 
L 165.54843 208.297575 
L 166.18314 207.984429 
L 166.500496 207.125581 
L 167.135207 206.897039 
L 167.452562 206.877987 
L 168.404628 206.324236 
L 168.721983 205.998623 
L 169.356694 205.902815 
L 169.67405 205.199384 
L 169.991405 204.845684 
L 170.30876 204.845466 
L 171.260826 204.260769 
L 171.578182 203.98782 
L 171.895537 203.561833 
L 172.212893 203.335972 
L 172.530248 203.258199 
L 173.164959 202.7451 
L 174.751736 202.229532 
L 175.069091 201.754893 
L 175.386446 201.560585 
L 175.703802 200.309332 
L 176.021157 199.88679 
L 176.338512 199.066942 
L 177.290579 198.497174 
L 177.607934 198.466912 
L 177.925289 198.074815 
L 178.242645 197.985368 
L 178.56 197.690862 
L 178.877355 197.1343 
L 179.512066 197.106431 
L 180.146777 196.69377 
L 180.464132 196.114334 
L 181.098843 195.941034 
L 181.416198 195.64388 
L 181.733554 195.519811 
L 182.050909 195.222743 
L 182.368264 195.202746 
L 182.68562 194.795932 
L 183.637686 194.237785 
L 184.589752 194.154927 
L 184.907107 193.785165 
L 185.224463 193.77466 
L 185.859174 193.359695 
L 186.176529 192.811599 
L 186.493884 192.578333 
L 186.81124 192.498942 
L 187.128595 192.197739 
L 187.763306 192.166526 
L 188.080661 191.802152 
L 188.715372 191.778289 
L 189.032727 191.556699 
L 189.667438 191.356111 
L 190.619504 190.922494 
L 191.57157 190.761208 
L 191.888926 190.554292 
L 193.475702 190.364349 
L 194.110413 190.225582 
L 194.427769 190.177612 
L 194.745124 189.854992 
L 196.014545 189.435752 
L 196.331901 189.02547 
L 196.966612 188.874962 
L 197.601322 188.711394 
L 198.553388 187.991502 
L 199.188099 187.882794 
L 199.82281 187.592048 
L 200.140165 187.129222 
L 200.774876 186.989647 
L 201.092231 186.775427 
L 202.361653 186.502365 
L 202.996364 186.290112 
L 203.631074 186.206006 
L 203.94843 186.144543 
L 204.265785 185.933722 
L 205.217851 185.719763 
L 205.852562 185.552755 
L 206.169917 185.551955 
L 206.487273 185.33759 
L 206.804628 185.327159 
L 207.121983 185.163296 
L 208.07405 185.054778 
L 208.70876 184.925772 
L 209.978182 184.543513 
L 210.295537 184.355226 
L 210.930248 184.299734 
L 211.564959 183.875098 
L 212.517025 183.733772 
L 212.83438 183.385176 
L 213.151736 183.354127 
L 213.786446 183.042284 
L 215.690579 182.470556 
L 216.325289 182.39782 
L 216.642645 182.102383 
L 219.816198 181.430739 
L 220.133554 181.414945 
L 220.450909 181.22524 
L 221.720331 181.024148 
L 223.307107 180.63273 
L 223.941818 180.60958 
L 224.576529 180.405457 
L 226.163306 179.940716 
L 226.480661 179.884514 
L 226.798017 179.295997 
L 227.432727 178.954568 
L 230.288926 177.898596 
L 230.923636 177.862604 
L 231.875702 177.550561 
L 237.905455 176.290547 
L 238.540165 176.177376 
L 238.857521 176.089714 
L 239.174876 175.819896 
L 239.492231 175.808524 
L 239.809587 175.580164 
L 241.713719 175.065313 
L 242.031074 174.916987 
L 242.34843 174.892206 
L 242.665785 174.572775 
L 243.935207 174.307378 
L 244.569917 174.113494 
L 245.204628 174.008681 
L 245.839339 173.868577 
L 246.156694 173.653463 
L 247.10876 173.530663 
L 249.012893 172.981481 
L 249.964959 172.896041 
L 251.23438 172.537247 
L 251.869091 172.372932 
L 252.186446 172.332097 
L 252.503802 172.152751 
L 253.138512 172.082951 
L 253.455868 171.7826 
L 254.090579 171.638163 
L 255.677355 171.213508 
L 255.994711 170.890112 
L 257.264132 170.543565 
L 257.898843 170.336043 
L 258.850909 170.018678 
L 259.802975 169.866796 
L 260.437686 169.687687 
L 260.755041 169.41403 
L 261.707107 169.336027 
L 262.024463 169.177703 
L 263.293884 168.963077 
L 263.928595 168.759747 
L 264.880661 168.622654 
L 265.832727 168.424695 
L 266.467438 168.302457 
L 267.102149 167.86897 
L 267.419504 167.717043 
L 268.054215 167.605752 
L 268.688926 167.36269 
L 269.323636 167.000791 
L 269.958347 166.768987 
L 270.275702 166.706459 
L 270.593058 166.447389 
L 270.910413 166.415173 
L 272.179835 165.781665 
L 272.814545 165.57679 
L 274.718678 165.241933 
L 275.036033 165.086047 
L 275.353388 165.07015 
L 275.988099 164.858732 
L 277.574876 164.391092 
L 278.209587 164.122539 
L 279.161653 163.954595 
L 279.479008 163.930591 
L 279.796364 163.609872 
L 280.431074 163.441348 
L 282.017851 162.846367 
L 282.335207 162.71187 
L 282.652562 162.402862 
L 282.969917 161.894216 
L 283.604628 161.851943 
L 285.50876 161.24794 
L 286.143471 160.777213 
L 286.778182 160.59168 
L 288.364959 159.80508 
L 288.682314 159.737603 
L 288.999669 159.141916 
L 289.317025 158.86864 
L 289.63438 158.810035 
L 290.586446 157.779232 
L 291.221157 157.733566 
L 291.855868 156.858263 
L 293.125289 155.738731 
L 293.442645 155.17702 
L 293.76 154.944498 
L 294.077355 154.925793 
L 294.394711 154.247353 
L 294.712066 154.068829 
L 295.029421 153.33272 
L 295.664132 151.378517 
L 295.981488 147.850062 
L 296.616198 146.527245 
L 297.250909 144.887558 
L 297.568264 141.660484 
L 297.88562 140.961121 
L 298.202975 139.446247 
L 299.155041 138.46634 
L 299.472397 138.128604 
L 299.789752 137.429242 
L 300.107107 125.57181 
L 301.059174 124.856549 
L 301.376529 124.604444 
L 301.693884 124.574103 
L 302.01124 123.80927 
L 302.328595 123.761737 
L 303.280661 123.064276 
L 303.598017 123.001505 
L 303.915372 122.22204 
L 305.184793 121.012888 
L 305.502149 121.005581 
L 306.13686 120.309526 
L 306.454215 119.31757 
L 307.406281 118.329381 
L 307.723636 115.957599 
L 308.358347 115.258003 
L 308.675702 115.211113 
L 308.993058 114.928665 
L 309.310413 114.842861 
L 309.627769 114.167074 
L 309.945124 113.884745 
L 310.262479 111.922546 
L 310.579835 111.507407 
L 310.89719 110.565189 
L 311.531901 109.887445 
L 312.166612 109.236313 
L 312.801322 109.172108 
L 313.118678 108.301328 
L 314.388099 107.599432 
L 314.705455 107.143745 
L 315.02281 107.113408 
L 315.974876 105.615403 
L 316.292231 105.540736 
L 316.926942 104.48383 
L 317.244298 104.363915 
L 317.561653 104.081467 
L 317.879008 103.633513 
L 318.196364 103.556441 
L 318.831074 103.074888 
L 319.78314 102.853078 
L 320.100496 102.659748 
L 320.735207 101.766524 
L 321.052562 101.574794 
L 321.687273 100.897409 
L 322.004628 100.869042 
L 322.956694 100.083581 
L 323.27405 99.568082 
L 323.90876 99.383985 
L 324.543471 99.152942 
L 324.860826 99.039021 
L 325.495537 98.503915 
L 325.812893 98.487858 
L 326.130248 97.739391 
L 326.447603 97.467897 
L 326.764959 97.457063 
L 327.082314 97.154804 
L 327.399669 96.455749 
L 327.717025 96.428863 
L 328.03438 96.048266 
L 328.351736 96.037436 
L 331.207934 94.323669 
L 331.525289 94.260889 
L 331.842645 93.908529 
L 332.16 93.839425 
L 332.477355 93.533586 
L 332.794711 92.821973 
L 333.746777 91.804225 
L 334.064132 91.78043 
L 335.333554 90.105119 
L 335.650909 89.974491 
L 336.602975 88.852488 
L 336.920331 88.679395 
L 337.237686 88.671316 
L 337.555041 88.408326 
L 338.189752 88.307146 
L 338.824463 88.01172 
L 339.141818 87.70873 
L 339.459174 87.637748 
L 340.093884 87.304013 
L 340.41124 87.200608 
L 340.728595 86.620699 
L 341.04595 86.307383 
L 341.363306 85.635441 
L 341.680661 85.578754 
L 342.632727 84.80034 
L 342.950083 84.39051 
L 343.267438 84.37293 
L 343.584793 83.693806 
L 344.219504 83.558774 
L 344.53686 83.276451 
L 345.488926 82.956565 
L 345.806281 82.310043 
L 346.123636 82.077573 
L 347.393058 82.018649 
L 347.710413 81.591628 
L 348.027769 81.583199 
L 348.345124 81.32111 
L 349.29719 81.184348 
L 351.201322 80.289699 
L 351.518678 80.00118 
L 351.836033 79.86854 
L 352.153388 79.55598 
L 352.470744 79.449761 
L 353.105455 78.998232 
L 354.692231 78.270847 
L 355.009587 77.706463 
L 355.326942 77.587231 
L 355.644298 77.326218 
L 356.279008 77.250737 
L 356.913719 77.009122 
L 358.18314 76.628795 
L 358.500496 76.050615 
L 358.817851 76.014071 
L 359.135207 75.657263 
L 360.721983 75.312302 
L 361.039339 74.890497 
L 361.356694 74.708294 
L 361.991405 74.632047 
L 362.943471 73.326639 
L 364.212893 72.992163 
L 364.847603 72.422339 
L 365.164959 72.313139 
L 365.482314 72.085873 
L 365.799669 72.018466 
L 366.117025 71.65974 
L 366.751736 71.3815 
L 367.069091 71.293754 
L 367.386446 70.955363 
L 367.703802 70.933163 
L 368.973223 69.983395 
L 369.290579 69.956289 
L 369.607934 69.58217 
L 370.242645 69.176489 
L 370.56 68.750495 
L 370.877355 68.731012 
L 371.194711 68.482932 
L 371.512066 67.897289 
L 372.146777 67.785495 
L 372.464132 66.937793 
L 373.098843 66.773138 
L 374.368264 66.20368 
L 374.68562 65.91248 
L 375.320331 65.75661 
L 375.637686 65.34556 
L 376.272397 65.084726 
L 376.589752 64.571879 
L 377.224463 64.387282 
L 377.859174 63.853475 
L 378.493884 63.633346 
L 378.81124 62.807715 
L 379.128595 62.671771 
L 379.44595 62.10748 
L 380.080661 61.908075 
L 380.398017 61.531627 
L 380.715372 61.420099 
L 381.032727 61.14259 
L 382.302149 60.656078 
L 383.254215 60.083254 
L 384.840992 59.490369 
L 388.014545 58.296586 
L 388.649256 58.203228 
L 388.966612 57.90401 
L 389.601322 57.893047 
L 390.553388 57.500077 
L 391.188099 56.878596 
L 391.82281 56.305741 
L 393.726942 55.560375 
L 394.044298 55.523106 
L 395.631074 54.825355 
L 395.94843 54.788786 
L 396.900496 54.272287 
L 397.535207 53.837927 
L 397.852562 53.827505 
L 398.169917 53.631348 
L 398.487273 53.568 
L 398.487273 53.568 
" clip-path="url(#p0ddec49abb)" style="fill: none; stroke: #1f77b4; stroke-width: 1.5; stroke-linecap: square"/>
   </g>
   <g id="line2d_15">
    <path d="M 73.832727 190.265671 
L 74.150083 188.425361 
L 74.467438 188.425361 
L 74.784793 186.85227 
L 75.102149 186.525516 
L 75.73686 186.525516 
L 76.054215 185.936929 
L 76.37157 184.943313 
L 77.958347 184.728606 
L 78.910413 184.728606 
L 79.227769 184.168049 
L 79.545124 184.168049 
L 80.179835 183.839762 
L 80.49719 183.839762 
L 80.814545 183.219906 
L 81.131901 182.928136 
L 82.083967 182.923119 
L 82.401322 182.750436 
L 87.161653 182.646079 
L 87.479008 182.196915 
L 88.431074 181.942126 
L 89.700496 181.942126 
L 90.017851 181.743448 
L 90.652562 181.743448 
L 90.969917 181.512655 
L 91.287273 181.512655 
L 91.604628 181.392429 
L 91.921983 181.083191 
L 99.221157 181.083191 
L 99.538512 180.898927 
L 101.76 180.85534 
L 102.077355 180.664345 
L 103.981488 180.621263 
L 104.616198 180.546792 
L 104.933554 180.546792 
L 105.250909 180.284868 
L 106.202975 180.271667 
L 106.520331 179.680547 
L 109.059174 179.486023 
L 109.376529 179.486023 
L 109.693884 179.187289 
L 110.01124 179.187289 
L 110.328595 178.857282 
L 129.369917 178.857268 
L 130.004628 178.561627 
L 130.639339 178.493361 
L 131.27405 178.482116 
L 131.591405 178.328706 
L 132.860826 178.293657 
L 133.178182 177.998334 
L 135.399669 177.936493 
L 135.717025 177.684647 
L 137.621157 177.579487 
L 163.009587 177.579487 
L 163.326942 177.318103 
L 167.769917 177.270334 
L 168.087273 176.946837 
L 169.356694 176.860489 
L 170.943471 176.671305 
L 172.530248 176.577205 
L 173.482314 176.537283 
L 180.781488 176.468567 
L 181.416198 176.401165 
L 182.68562 176.401165 
L 183.320331 175.772411 
L 186.81124 175.675108 
L 187.128595 175.536834 
L 188.080661 175.443183 
L 188.715372 174.49463 
L 283.604628 174.49463 
L 284.239339 173.546077 
L 285.191405 173.452426 
L 285.826116 173.258973 
L 288.999669 173.216849 
L 289.63438 172.588095 
L 291.855868 172.520692 
L 292.490579 172.451977 
L 300.424463 172.358373 
L 301.376529 172.317954 
L 302.328595 172.317954 
L 302.963306 172.128771 
L 304.232727 172.042423 
L 304.550083 171.718926 
L 308.993058 171.671157 
L 309.310413 171.409772 
L 336.602975 171.304613 
L 336.920331 171.052767 
L 339.141818 170.990926 
L 339.459174 170.695602 
L 340.728595 170.660553 
L 341.04595 170.507144 
L 342.315372 170.427633 
L 343.267438 170.131992 
L 361.991405 170.131978 
L 362.30876 169.801971 
L 362.626116 169.801971 
L 362.943471 169.503237 
L 364.530248 169.503237 
L 364.847603 169.367119 
L 365.799669 169.308712 
L 366.117025 168.717593 
L 367.069091 168.704392 
L 367.386446 168.442468 
L 368.338512 168.367996 
L 369.290579 168.324915 
L 370.242645 168.324915 
L 370.56 168.13392 
L 372.781488 168.090333 
L 373.098843 167.906069 
L 380.398017 167.906069 
L 380.715372 167.596831 
L 381.032727 167.476605 
L 381.350083 167.476605 
L 381.667438 167.245812 
L 382.302149 167.245812 
L 382.619504 167.047134 
L 384.206281 167.047134 
L 384.840992 166.792345 
L 385.158347 166.343181 
L 385.793058 166.248628 
L 389.601322 166.238824 
L 389.918678 166.238824 
L 390.236033 166.066141 
L 391.188099 166.061124 
L 391.505455 165.769353 
L 391.82281 165.149498 
L 392.140165 165.149498 
L 393.092231 164.821211 
L 393.409587 164.260654 
L 394.996364 164.260654 
L 395.313719 164.106909 
L 395.94843 164.045947 
L 396.265785 163.052331 
L 396.58314 162.463743 
L 397.217851 162.463743 
L 397.535207 162.13699 
L 397.852562 160.563899 
L 398.169917 160.563899 
L 398.487273 158.723588 
L 398.487273 158.723588 
" clip-path="url(#p0ddec49abb)" style="fill: none; stroke: #ff7f0e; stroke-width: 1.5; stroke-linecap: square"/>
   </g>
   <g id="patch_3">
    <path d="M 57.6 307.584 
L 57.6 41.472 
" style="fill: none; stroke: #000000; stroke-width: 0.8; stroke-linejoin: miter; stroke-linecap: square"/>
   </g>
   <g id="patch_4">
    <path d="M 414.72 307.584 
L 414.72 41.472 
" style="fill: none; stroke: #000000; stroke-width: 0.8; stroke-linejoin: miter; stroke-linecap: square"/>
   </g>
   <g id="patch_5">
    <path d="M 57.6 307.584 
L 414.72 307.584 
" style="fill: none; stroke: #000000; stroke-width: 0.8; stroke-linejoin: miter; stroke-linecap: square"/>
   </g>
   <g id="patch_6">
    <path d="M 57.6 41.472 
L 414.72 41.472 
" style="fill: none; stroke: #000000; stroke-width: 0.8; stroke-linejoin: miter; stroke-linecap: square"/>
   </g>
   <g id="legend_1">
    <g id="patch_7">
     <path d="M 64.6 78.82825 
L 129.342187 78.82825 
Q 131.342187 78.82825 131.342187 76.82825 
L 131.342187 48.472 
Q 131.342187 46.472 129.342187 46.472 
L 64.6 46.472 
Q 62.6 46.472 62.6 48.472 
L 62.6 76.82825 
Q 62.6 78.82825 64.6 78.82825 
z
" style="fill: #ffffff; opacity: 0.8; stroke: #cccccc; stroke-linejoin: miter"/>
    </g>
    <g id="line2d_16">
     <path d="M 66.6 54.570437 
L 76.6 54.570437 
L 86.6 54.570437 
" style="fill: none; stroke: #1f77b4; stroke-width: 1.5; stroke-linecap: square"/>
    </g>
    <g id="text_16">
     <!-- qc -->
     <g transform="translate(94.6 58.070437) scale(0.1 -0.1)">
      <defs>
       <path id="DejaVuSans-71" d="M 947 1747 
Q 947 1113 1208 752 
Q 1469 391 1925 391 
Q 2381 391 2643 752 
Q 2906 1113 2906 1747 
Q 2906 2381 2643 2742 
Q 2381 3103 1925 3103 
Q 1469 3103 1208 2742 
Q 947 2381 947 1747 
z
M 2906 525 
Q 2725 213 2448 61 
Q 2172 -91 1784 -91 
Q 1150 -91 751 415 
Q 353 922 353 1747 
Q 353 2572 751 3078 
Q 1150 3584 1784 3584 
Q 2172 3584 2448 3432 
Q 2725 3281 2906 2969 
L 2906 3500 
L 3481 3500 
L 3481 -1331 
L 2906 -1331 
L 2906 525 
z
" transform="scale(0.015625)"/>
       <path id="DejaVuSans-63" d="M 3122 3366 
L 3122 2828 
Q 2878 2963 2633 3030 
Q 2388 3097 2138 3097 
Q 1578 3097 1268 2742 
Q 959 2388 959 1747 
Q 959 1106 1268 751 
Q 1578 397 2138 397 
Q 2388 397 2633 464 
Q 2878 531 3122 666 
L 3122 134 
Q 2881 22 2623 -34 
Q 2366 -91 2075 -91 
Q 1284 -91 818 406 
Q 353 903 353 1747 
Q 353 2603 823 3093 
Q 1294 3584 2113 3584 
Q 2378 3584 2631 3529 
Q 2884 3475 3122 3366 
z
" transform="scale(0.015625)"/>
      </defs>
      <use xlink:href="#DejaVuSans-71"/>
      <use xlink:href="#DejaVuSans-63" x="63.476562"/>
     </g>
    </g>
    <g id="line2d_17">
     <path d="M 66.6 69.248562 
L 76.6 69.248562 
L 86.6 69.248562 
" style="fill: none; stroke: #ff7f0e; stroke-width: 1.5; stroke-linecap: square"/>
    </g>
    <g id="text_17">
     <!-- Trotter -->
     <g transform="translate(94.6 72.748562) scale(0.1 -0.1)">
      <defs>
       <path id="DejaVuSans-54" d="M -19 4666 
L 3928 4666 
L 3928 4134 
L 2272 4134 
L 2272 0 
L 1638 0 
L 1638 4134 
L -19 4134 
L -19 4666 
z
" transform="scale(0.015625)"/>
       <path id="DejaVuSans-72" d="M 2631 2963 
Q 2534 3019 2420 3045 
Q 2306 3072 2169 3072 
Q 1681 3072 1420 2755 
Q 1159 2438 1159 1844 
L 1159 0 
L 581 0 
L 581 3500 
L 1159 3500 
L 1159 2956 
Q 1341 3275 1631 3429 
Q 1922 3584 2338 3584 
Q 2397 3584 2469 3576 
Q 2541 3569 2628 3553 
L 2631 2963 
z
" transform="scale(0.015625)"/>
       <path id="DejaVuSans-6f" d="M 1959 3097 
Q 1497 3097 1228 2736 
Q 959 2375 959 1747 
Q 959 1119 1226 758 
Q 1494 397 1959 397 
Q 2419 397 2687 759 
Q 2956 1122 2956 1747 
Q 2956 2369 2687 2733 
Q 2419 3097 1959 3097 
z
M 1959 3584 
Q 2709 3584 3137 3096 
Q 3566 2609 3566 1747 
Q 3566 888 3137 398 
Q 2709 -91 1959 -91 
Q 1206 -91 779 398 
Q 353 888 353 1747 
Q 353 2609 779 3096 
Q 1206 3584 1959 3584 
z
" transform="scale(0.015625)"/>
       <path id="DejaVuSans-65" d="M 3597 1894 
L 3597 1613 
L 953 1613 
Q 991 1019 1311 708 
Q 1631 397 2203 397 
Q 2534 397 2845 478 
Q 3156 559 3463 722 
L 3463 178 
Q 3153 47 2828 -22 
Q 2503 -91 2169 -91 
Q 1331 -91 842 396 
Q 353 884 353 1716 
Q 353 2575 817 3079 
Q 1281 3584 2069 3584 
Q 2775 3584 3186 3129 
Q 3597 2675 3597 1894 
z
M 3022 2063 
Q 3016 2534 2758 2815 
Q 2500 3097 2075 3097 
Q 1594 3097 1305 2825 
Q 1016 2553 972 2059 
L 3022 2063 
z
" transform="scale(0.015625)"/>
      </defs>
      <use xlink:href="#DejaVuSans-54"/>
      <use xlink:href="#DejaVuSans-72" x="46.333984"/>
      <use xlink:href="#DejaVuSans-6f" x="85.197266"/>
      <use xlink:href="#DejaVuSans-74" x="146.378906"/>
      <use xlink:href="#DejaVuSans-74" x="185.587891"/>
      <use xlink:href="#DejaVuSans-65" x="224.796875"/>
      <use xlink:href="#DejaVuSans-72" x="286.320312"/>
     </g>
    </g>
   </g>
  </g>
 </g>
 <defs>
  <clipPath id="p0ddec49abb">
   <rect x="57.6" y="41.472" width="357.12" height="266.112"/>
  </clipPath>
 </defs>
</svg>
