<?xml version="1.0" encoding="utf-8" standalone="no"?>
<!DOCTYPE svg PUBLIC "-//W3C//DTD SVG 1.1//EN"
  "http://www.w3.org/Graphics/SVG/1.1/DTD/svg11.dtd">
<svg xmlns:xlink="http://www.w3.org/1999/xlink" width="460.8pt" height="345.6pt" viewBox="0 0 460.8 345.6" xmlns="http://www.w3.org/2000/svg" version="1.1">
 <metadata>
  <rdf:RDF xmlns:dc="http://purl.org/dc/elements/1.1/" xmlns:cc="http://creativecommons.org/ns#" xmlns:rdf="http://www.w3.org/1999/02/22-rdf-syntax-ns#">
   <cc:Work>
    <dc:type rdf:resource="http://purl.org/dc/dcmitype/StillImage"/>
    <dc:date>2024-07-12T12:51:20.950839</dc:date>
    <dc:format>image/svg+xml</dc:format>
    <dc:creator>
     <cc:Agent>
      <dc:title>Matplotlib v3.7.1, https://matplotlib.org/</dc:title>
     </cc:Agent>
    </dc:creator>
   </cc:Work>
  </rdf:RDF>
 </metadata>
 <defs>
  <style type="text/css">*{stroke-linejoin: round; stroke-linecap: butt}</style>
 </defs>
 <g id="figure_1">
  <g id="patch_1">
   <path d="M 0 345.6 
L 460.8 345.6 
L 460.8 0 
L 0 0 
z
" style="fill: #ffffff"/>
  </g>
  <g id="axes_1">
   <g id="patch_2">
    <path d="M 57.6 307.584 
L 414.72 307.584 
L 414.72 41.472 
L 57.6 41.472 
z
" style="fill: #ffffff"/>
   </g>
   <g id="matplotlib.axis_1">
    <g id="xtick_1">
     <g id="line2d_1">
      <defs>
       <path id="me30cf85c44" d="M 0 0 
L 0 3.5 
" style="stroke: #000000; stroke-width: 0.8"/>
      </defs>
      <g>
       <use xlink:href="#me30cf85c44" x="73.832727" y="307.584" style="stroke: #000000; stroke-width: 0.8"/>
      </g>
     </g>
     <g id="text_1">
      <!-- 0 -->
      <g transform="translate(70.651477 322.182437) scale(0.1 -0.1)">
       <defs>
        <path id="DejaVuSans-30" d="M 2034 4250 
Q 1547 4250 1301 3770 
Q 1056 3291 1056 2328 
Q 1056 1369 1301 889 
Q 1547 409 2034 409 
Q 2525 409 2770 889 
Q 3016 1369 3016 2328 
Q 3016 3291 2770 3770 
Q 2525 4250 2034 4250 
z
M 2034 4750 
Q 2819 4750 3233 4129 
Q 3647 3509 3647 2328 
Q 3647 1150 3233 529 
Q 2819 -91 2034 -91 
Q 1250 -91 836 529 
Q 422 1150 422 2328 
Q 422 3509 836 4129 
Q 1250 4750 2034 4750 
z
" transform="scale(0.015625)"/>
       </defs>
       <use xlink:href="#DejaVuSans-30"/>
      </g>
     </g>
    </g>
    <g id="xtick_2">
     <g id="line2d_2">
      <g>
       <use xlink:href="#me30cf85c44" x="137.303802" y="307.584" style="stroke: #000000; stroke-width: 0.8"/>
      </g>
     </g>
     <g id="text_2">
      <!-- 200 -->
      <g transform="translate(127.760052 322.182437) scale(0.1 -0.1)">
       <defs>
        <path id="DejaVuSans-32" d="M 1228 531 
L 3431 531 
L 3431 0 
L 469 0 
L 469 531 
Q 828 903 1448 1529 
Q 2069 2156 2228 2338 
Q 2531 2678 2651 2914 
Q 2772 3150 2772 3378 
Q 2772 3750 2511 3984 
Q 2250 4219 1831 4219 
Q 1534 4219 1204 4116 
Q 875 4013 500 3803 
L 500 4441 
Q 881 4594 1212 4672 
Q 1544 4750 1819 4750 
Q 2544 4750 2975 4387 
Q 3406 4025 3406 3419 
Q 3406 3131 3298 2873 
Q 3191 2616 2906 2266 
Q 2828 2175 2409 1742 
Q 1991 1309 1228 531 
z
" transform="scale(0.015625)"/>
       </defs>
       <use xlink:href="#DejaVuSans-32"/>
       <use xlink:href="#DejaVuSans-30" x="63.623047"/>
       <use xlink:href="#DejaVuSans-30" x="127.246094"/>
      </g>
     </g>
    </g>
    <g id="xtick_3">
     <g id="line2d_3">
      <g>
       <use xlink:href="#me30cf85c44" x="200.774876" y="307.584" style="stroke: #000000; stroke-width: 0.8"/>
      </g>
     </g>
     <g id="text_3">
      <!-- 400 -->
      <g transform="translate(191.231126 322.182437) scale(0.1 -0.1)">
       <defs>
        <path id="DejaVuSans-34" d="M 2419 4116 
L 825 1625 
L 2419 1625 
L 2419 4116 
z
M 2253 4666 
L 3047 4666 
L 3047 1625 
L 3713 1625 
L 3713 1100 
L 3047 1100 
L 3047 0 
L 2419 0 
L 2419 1100 
L 313 1100 
L 313 1709 
L 2253 4666 
z
" transform="scale(0.015625)"/>
       </defs>
       <use xlink:href="#DejaVuSans-34"/>
       <use xlink:href="#DejaVuSans-30" x="63.623047"/>
       <use xlink:href="#DejaVuSans-30" x="127.246094"/>
      </g>
     </g>
    </g>
    <g id="xtick_4">
     <g id="line2d_4">
      <g>
       <use xlink:href="#me30cf85c44" x="264.24595" y="307.584" style="stroke: #000000; stroke-width: 0.8"/>
      </g>
     </g>
     <g id="text_4">
      <!-- 600 -->
      <g transform="translate(254.7022 322.182437) scale(0.1 -0.1)">
       <defs>
        <path id="DejaVuSans-36" d="M 2113 2584 
Q 1688 2584 1439 2293 
Q 1191 2003 1191 1497 
Q 1191 994 1439 701 
Q 1688 409 2113 409 
Q 2538 409 2786 701 
Q 3034 994 3034 1497 
Q 3034 2003 2786 2293 
Q 2538 2584 2113 2584 
z
M 3366 4563 
L 3366 3988 
Q 3128 4100 2886 4159 
Q 2644 4219 2406 4219 
Q 1781 4219 1451 3797 
Q 1122 3375 1075 2522 
Q 1259 2794 1537 2939 
Q 1816 3084 2150 3084 
Q 2853 3084 3261 2657 
Q 3669 2231 3669 1497 
Q 3669 778 3244 343 
Q 2819 -91 2113 -91 
Q 1303 -91 875 529 
Q 447 1150 447 2328 
Q 447 3434 972 4092 
Q 1497 4750 2381 4750 
Q 2619 4750 2861 4703 
Q 3103 4656 3366 4563 
z
" transform="scale(0.015625)"/>
       </defs>
       <use xlink:href="#DejaVuSans-36"/>
       <use xlink:href="#DejaVuSans-30" x="63.623047"/>
       <use xlink:href="#DejaVuSans-30" x="127.246094"/>
      </g>
     </g>
    </g>
    <g id="xtick_5">
     <g id="line2d_5">
      <g>
       <use xlink:href="#me30cf85c44" x="327.717025" y="307.584" style="stroke: #000000; stroke-width: 0.8"/>
      </g>
     </g>
     <g id="text_5">
      <!-- 800 -->
      <g transform="translate(318.173275 322.182437) scale(0.1 -0.1)">
       <defs>
        <path id="DejaVuSans-38" d="M 2034 2216 
Q 1584 2216 1326 1975 
Q 1069 1734 1069 1313 
Q 1069 891 1326 650 
Q 1584 409 2034 409 
Q 2484 409 2743 651 
Q 3003 894 3003 1313 
Q 3003 1734 2745 1975 
Q 2488 2216 2034 2216 
z
M 1403 2484 
Q 997 2584 770 2862 
Q 544 3141 544 3541 
Q 544 4100 942 4425 
Q 1341 4750 2034 4750 
Q 2731 4750 3128 4425 
Q 3525 4100 3525 3541 
Q 3525 3141 3298 2862 
Q 3072 2584 2669 2484 
Q 3125 2378 3379 2068 
Q 3634 1759 3634 1313 
Q 3634 634 3220 271 
Q 2806 -91 2034 -91 
Q 1263 -91 848 271 
Q 434 634 434 1313 
Q 434 1759 690 2068 
Q 947 2378 1403 2484 
z
M 1172 3481 
Q 1172 3119 1398 2916 
Q 1625 2713 2034 2713 
Q 2441 2713 2670 2916 
Q 2900 3119 2900 3481 
Q 2900 3844 2670 4047 
Q 2441 4250 2034 4250 
Q 1625 4250 1398 4047 
Q 1172 3844 1172 3481 
z
" transform="scale(0.015625)"/>
       </defs>
       <use xlink:href="#DejaVuSans-38"/>
       <use xlink:href="#DejaVuSans-30" x="63.623047"/>
       <use xlink:href="#DejaVuSans-30" x="127.246094"/>
      </g>
     </g>
    </g>
    <g id="xtick_6">
     <g id="line2d_6">
      <g>
       <use xlink:href="#me30cf85c44" x="391.188099" y="307.584" style="stroke: #000000; stroke-width: 0.8"/>
      </g>
     </g>
     <g id="text_6">
      <!-- 1000 -->
      <g transform="translate(378.463099 322.182437) scale(0.1 -0.1)">
       <defs>
        <path id="DejaVuSans-31" d="M 794 531 
L 1825 531 
L 1825 4091 
L 703 3866 
L 703 4441 
L 1819 4666 
L 2450 4666 
L 2450 531 
L 3481 531 
L 3481 0 
L 794 0 
L 794 531 
z
" transform="scale(0.015625)"/>
       </defs>
       <use xlink:href="#DejaVuSans-31"/>
       <use xlink:href="#DejaVuSans-30" x="63.623047"/>
       <use xlink:href="#DejaVuSans-30" x="127.246094"/>
       <use xlink:href="#DejaVuSans-30" x="190.869141"/>
      </g>
     </g>
    </g>
    <g id="text_7">
     <!-- n -->
     <g transform="translate(232.99125 335.860562) scale(0.1 -0.1)">
      <defs>
       <path id="DejaVuSans-6e" d="M 3513 2113 
L 3513 0 
L 2938 0 
L 2938 2094 
Q 2938 2591 2744 2837 
Q 2550 3084 2163 3084 
Q 1697 3084 1428 2787 
Q 1159 2491 1159 1978 
L 1159 0 
L 581 0 
L 581 3500 
L 1159 3500 
L 1159 2956 
Q 1366 3272 1645 3428 
Q 1925 3584 2291 3584 
Q 2894 3584 3203 3211 
Q 3513 2838 3513 2113 
z
" transform="scale(0.015625)"/>
      </defs>
      <use xlink:href="#DejaVuSans-6e"/>
     </g>
    </g>
   </g>
   <g id="matplotlib.axis_2">
    <g id="ytick_1">
     <g id="line2d_7">
      <defs>
       <path id="m8a2405fbe3" d="M 0 0 
L -3.5 0 
" style="stroke: #000000; stroke-width: 0.8"/>
      </defs>
      <g>
       <use xlink:href="#m8a2405fbe3" x="57.6" y="288.009737" style="stroke: #000000; stroke-width: 0.8"/>
      </g>
     </g>
     <g id="text_8">
      <!-- −2 -->
      <g transform="translate(35.857813 291.808956) scale(0.1 -0.1)">
       <defs>
        <path id="DejaVuSans-2212" d="M 678 2272 
L 4684 2272 
L 4684 1741 
L 678 1741 
L 678 2272 
z
" transform="scale(0.015625)"/>
       </defs>
       <use xlink:href="#DejaVuSans-2212"/>
       <use xlink:href="#DejaVuSans-32" x="83.789062"/>
      </g>
     </g>
    </g>
    <g id="ytick_2">
     <g id="line2d_8">
      <g>
       <use xlink:href="#m8a2405fbe3" x="57.6" y="236.441485" style="stroke: #000000; stroke-width: 0.8"/>
      </g>
     </g>
     <g id="text_9">
      <!-- −1 -->
      <g transform="translate(35.857813 240.240704) scale(0.1 -0.1)">
       <use xlink:href="#DejaVuSans-2212"/>
       <use xlink:href="#DejaVuSans-31" x="83.789062"/>
      </g>
     </g>
    </g>
    <g id="ytick_3">
     <g id="line2d_9">
      <g>
       <use xlink:href="#m8a2405fbe3" x="57.6" y="184.873232" style="stroke: #000000; stroke-width: 0.8"/>
      </g>
     </g>
     <g id="text_10">
      <!-- 0 -->
      <g transform="translate(44.2375 188.672451) scale(0.1 -0.1)">
       <use xlink:href="#DejaVuSans-30"/>
      </g>
     </g>
    </g>
    <g id="ytick_4">
     <g id="line2d_10">
      <g>
       <use xlink:href="#m8a2405fbe3" x="57.6" y="133.30498" style="stroke: #000000; stroke-width: 0.8"/>
      </g>
     </g>
     <g id="text_11">
      <!-- 1 -->
      <g transform="translate(44.2375 137.104199) scale(0.1 -0.1)">
       <use xlink:href="#DejaVuSans-31"/>
      </g>
     </g>
    </g>
    <g id="ytick_5">
     <g id="line2d_11">
      <g>
       <use xlink:href="#m8a2405fbe3" x="57.6" y="81.736727" style="stroke: #000000; stroke-width: 0.8"/>
      </g>
     </g>
     <g id="text_12">
      <!-- 2 -->
      <g transform="translate(44.2375 85.535946) scale(0.1 -0.1)">
       <use xlink:href="#DejaVuSans-32"/>
      </g>
     </g>
    </g>
    <g id="text_13">
     <!-- E*t -->
     <g transform="translate(29.778125 182.147531) rotate(-90) scale(0.1 -0.1)">
      <defs>
       <path id="DejaVuSans-45" d="M 628 4666 
L 3578 4666 
L 3578 4134 
L 1259 4134 
L 1259 2753 
L 3481 2753 
L 3481 2222 
L 1259 2222 
L 1259 531 
L 3634 531 
L 3634 0 
L 628 0 
L 628 4666 
z
" transform="scale(0.015625)"/>
       <path id="DejaVuSans-2a" d="M 3009 3897 
L 1888 3291 
L 3009 2681 
L 2828 2375 
L 1778 3009 
L 1778 1831 
L 1422 1831 
L 1422 3009 
L 372 2375 
L 191 2681 
L 1313 3291 
L 191 3897 
L 372 4206 
L 1422 3572 
L 1422 4750 
L 1778 4750 
L 1778 3572 
L 2828 4206 
L 3009 3897 
z
" transform="scale(0.015625)"/>
       <path id="DejaVuSans-74" d="M 1172 4494 
L 1172 3500 
L 2356 3500 
L 2356 3053 
L 1172 3053 
L 1172 1153 
Q 1172 725 1289 603 
Q 1406 481 1766 481 
L 2356 481 
L 2356 0 
L 1766 0 
Q 1100 0 847 248 
Q 594 497 594 1153 
L 594 3053 
L 172 3053 
L 172 3500 
L 594 3500 
L 594 4494 
L 1172 4494 
z
" transform="scale(0.015625)"/>
      </defs>
      <use xlink:href="#DejaVuSans-45"/>
      <use xlink:href="#DejaVuSans-2a" x="63.183594"/>
      <use xlink:href="#DejaVuSans-74" x="113.183594"/>
     </g>
    </g>
   </g>
   <g id="line2d_12">
    <path d="M 73.832727 295.488 
L 74.150083 288.287352 
L 74.467438 283.927322 
L 74.784793 282.451046 
L 75.102149 278.34717 
L 75.73686 275.250168 
L 76.054215 271.146523 
L 76.688926 270.890365 
L 77.006281 267.052933 
L 77.323636 266.718642 
L 77.640992 265.713456 
L 77.958347 265.309854 
L 78.275702 263.844137 
L 78.593058 263.689487 
L 78.910413 260.619528 
L 79.227769 259.517994 
L 79.862479 259.403078 
L 80.179835 258.108976 
L 80.49719 257.422048 
L 80.814545 255.492254 
L 81.131901 254.456764 
L 81.449256 254.152778 
L 82.083967 254.017387 
L 82.718678 253.41888 
L 83.353388 252.282284 
L 83.670744 252.202417 
L 83.988099 251.158425 
L 84.940165 249.912112 
L 85.257521 249.835183 
L 85.574876 248.572635 
L 85.892231 247.842258 
L 86.209587 247.581656 
L 87.161653 247.2558 
L 87.796364 246.480455 
L 88.431074 246.356437 
L 88.74843 245.860534 
L 89.065785 245.062748 
L 89.38314 243.957868 
L 89.700496 243.512969 
L 90.017851 243.275336 
L 90.652562 242.634531 
L 91.287273 242.552561 
L 92.239339 242.064192 
L 92.556694 241.271847 
L 93.191405 241.185735 
L 93.50876 240.641597 
L 93.826116 240.380779 
L 94.460826 240.290053 
L 95.095537 239.155631 
L 95.730248 238.303246 
L 96.047603 238.283583 
L 97.317025 237.676619 
L 97.951736 236.972041 
L 98.269091 236.944106 
L 98.586446 236.762036 
L 98.903802 236.136556 
L 99.221157 236.074682 
L 99.538512 235.757929 
L 100.173223 235.635959 
L 100.490579 235.193072 
L 101.76 234.453586 
L 102.077355 234.186293 
L 102.394711 233.448412 
L 102.712066 233.149825 
L 103.029421 232.396879 
L 103.981488 231.738754 
L 104.298843 231.102595 
L 105.88562 230.84499 
L 106.202975 230.613829 
L 106.837686 230.503518 
L 107.155041 230.475741 
L 107.472397 230.176336 
L 107.789752 230.0687 
L 108.107107 229.709998 
L 109.376529 229.561168 
L 109.693884 229.329919 
L 110.01124 229.299315 
L 110.64595 228.9359 
L 110.963306 228.72712 
L 111.280661 228.704476 
L 111.598017 227.723796 
L 111.915372 227.594585 
L 113.184793 226.247761 
L 113.502149 226.124478 
L 113.819504 225.836167 
L 114.13686 225.817775 
L 115.088926 225.381626 
L 115.723636 225.222854 
L 116.040992 224.924527 
L 117.310413 224.577946 
L 117.945124 224.482072 
L 118.579835 224.046272 
L 118.89719 224.007437 
L 119.849256 222.99723 
L 120.166612 222.975019 
L 120.801322 222.559683 
L 121.436033 222.471334 
L 122.070744 222.128592 
L 122.388099 222.088853 
L 122.705455 221.526352 
L 123.657521 221.383971 
L 124.292231 220.939076 
L 124.609587 220.410177 
L 124.926942 220.40617 
L 125.879008 219.525616 
L 127.465785 219.055642 
L 128.100496 218.635512 
L 128.735207 218.547835 
L 129.052562 218.454269 
L 129.369917 218.180656 
L 131.27405 217.827037 
L 131.90876 217.710245 
L 132.860826 217.498887 
L 133.495537 217.281409 
L 134.130248 216.676731 
L 134.447603 216.628085 
L 134.764959 216.295935 
L 135.082314 216.162297 
L 135.399669 215.796574 
L 136.03438 215.681227 
L 136.351736 215.359123 
L 136.986446 215.288614 
L 137.621157 214.563199 
L 138.255868 214.190425 
L 139.842645 213.835307 
L 140.477355 213.295977 
L 142.064132 212.86402 
L 142.698843 212.496774 
L 144.602975 212.169529 
L 144.920331 211.985532 
L 145.237686 211.572634 
L 146.824463 211.15517 
L 147.776529 210.5271 
L 148.093884 210.508976 
L 148.41124 209.868666 
L 149.363306 209.686806 
L 149.680661 209.385941 
L 150.950083 209.095377 
L 151.267438 208.936229 
L 151.584793 208.925733 
L 152.53686 208.529204 
L 153.488926 208.347399 
L 153.806281 208.141337 
L 155.075702 207.952687 
L 155.393058 207.702744 
L 155.710413 207.603071 
L 156.345124 207.211934 
L 157.29719 207.085618 
L 157.614545 206.989681 
L 157.931901 206.654424 
L 158.566612 206.394549 
L 159.836033 206.265173 
L 161.105455 205.782756 
L 161.740165 205.663366 
L 162.374876 205.232993 
L 163.009587 205.043909 
L 163.326942 205.013742 
L 163.644298 204.781959 
L 163.961653 204.779673 
L 164.279008 204.411415 
L 165.231074 204.158565 
L 165.54843 204.117379 
L 166.18314 203.682902 
L 166.500496 203.674271 
L 166.817851 203.305003 
L 167.135207 203.160803 
L 167.452562 202.738516 
L 167.769917 202.558085 
L 169.039339 202.488228 
L 169.991405 202.185159 
L 170.626116 202.014401 
L 171.260826 201.922926 
L 171.578182 201.66723 
L 172.530248 201.542429 
L 173.164959 201.267822 
L 174.117025 201.078006 
L 176.338512 200.61509 
L 176.655868 200.361543 
L 176.973223 200.270474 
L 177.290579 199.960227 
L 177.607934 199.918123 
L 178.56 199.462657 
L 179.512066 199.12517 
L 180.146777 198.931008 
L 180.781488 198.443629 
L 181.098843 198.362784 
L 181.416198 198.060094 
L 181.733554 197.570762 
L 182.368264 197.403066 
L 183.320331 197.289988 
L 183.637686 197.065698 
L 184.272397 196.9765 
L 186.176529 196.720691 
L 186.493884 196.685416 
L 187.128595 196.412157 
L 187.44595 196.377157 
L 187.763306 196.187616 
L 188.715372 196.075079 
L 189.984793 195.919854 
L 191.254215 195.633037 
L 192.206281 195.316412 
L 192.523636 195.041568 
L 193.158347 194.9685 
L 194.110413 194.736464 
L 194.427769 194.721953 
L 195.69719 194.17795 
L 197.283967 194.03361 
L 197.601322 193.877048 
L 197.918678 193.419346 
L 198.236033 193.224826 
L 198.870744 193.188942 
L 199.188099 192.84805 
L 200.140165 192.761774 
L 200.457521 192.344953 
L 201.409587 192.069093 
L 201.726942 191.78606 
L 202.044298 191.753389 
L 202.361653 191.422328 
L 204.265785 191.091116 
L 205.535207 190.743154 
L 205.852562 190.732895 
L 206.804628 190.383255 
L 207.121983 190.370108 
L 208.07405 190.003454 
L 208.391405 189.99027 
L 209.026116 189.77102 
L 211.564959 189.387805 
L 211.882314 189.161353 
L 212.83438 188.983966 
L 213.786446 188.406313 
L 214.103802 188.312397 
L 214.421157 188.093412 
L 215.055868 188.024832 
L 216.007934 187.586119 
L 216.325289 187.566979 
L 217.277355 187.185386 
L 217.594711 186.691138 
L 217.912066 186.521515 
L 218.546777 186.401068 
L 218.864132 186.071242 
L 219.181488 185.920343 
L 219.816198 185.808696 
L 220.450909 185.538944 
L 220.768264 185.52051 
L 221.402975 185.252899 
L 222.355041 185.185376 
L 222.672397 185.01562 
L 222.989752 184.993807 
L 223.307107 184.729302 
L 224.576529 184.560556 
L 228.702149 183.967461 
L 229.97157 183.642626 
L 230.288926 183.445997 
L 230.606281 183.415715 
L 231.240992 183.182283 
L 231.875702 183.09037 
L 232.827769 182.912334 
L 233.462479 182.74222 
L 234.09719 182.458929 
L 234.731901 181.814468 
L 235.366612 181.355699 
L 235.683967 181.024295 
L 236.318678 180.816076 
L 236.636033 180.467731 
L 236.953388 180.414099 
L 237.270744 180.15751 
L 238.22281 180.015726 
L 238.857521 179.750338 
L 240.761653 179.554581 
L 242.98314 178.874483 
L 243.617851 178.370315 
L 244.252562 178.304159 
L 245.204628 178.126001 
L 247.10876 177.794522 
L 247.426116 177.488864 
L 248.378182 177.309145 
L 249.012893 177.204603 
L 249.647603 176.766787 
L 249.964959 176.729215 
L 250.599669 176.427855 
L 250.917025 176.062551 
L 251.551736 175.850477 
L 252.186446 175.786174 
L 252.821157 175.06513 
L 253.455868 174.942171 
L 254.090579 174.845171 
L 255.994711 174.389657 
L 256.312066 174.058133 
L 256.946777 173.962241 
L 257.264132 173.896393 
L 257.898843 173.387069 
L 258.216198 173.386668 
L 258.533554 173.149593 
L 262.024463 172.480011 
L 262.341818 172.264731 
L 263.293884 172.207526 
L 264.24595 171.626469 
L 265.198017 171.469094 
L 266.150083 171.356816 
L 266.467438 171.107508 
L 267.73686 170.727712 
L 268.054215 170.045095 
L 269.006281 169.858531 
L 269.640992 169.771091 
L 269.958347 169.354888 
L 270.275702 169.344004 
L 270.593058 169.136886 
L 271.227769 168.9823 
L 271.545124 168.929624 
L 272.179835 168.559708 
L 272.49719 168.352465 
L 273.131901 168.172989 
L 273.449256 168.123557 
L 273.766612 167.831009 
L 274.718678 167.666768 
L 275.036033 167.472817 
L 275.670744 167.38965 
L 276.305455 167.247702 
L 276.62281 167.225924 
L 276.940165 167.021149 
L 278.209587 166.711025 
L 278.844298 166.577827 
L 280.113719 166.354741 
L 280.74843 165.95606 
L 281.065785 165.893103 
L 281.38314 165.264384 
L 281.700496 165.025964 
L 282.017851 165.015501 
L 282.335207 164.825303 
L 282.652562 164.822195 
L 282.969917 164.410873 
L 284.556694 163.939367 
L 285.191405 163.589203 
L 285.826116 163.448457 
L 286.460826 163.302397 
L 287.095537 162.882578 
L 287.730248 162.763146 
L 288.047603 162.585694 
L 288.364959 162.574761 
L 290.269091 161.861515 
L 290.586446 161.861121 
L 290.903802 161.578221 
L 292.490579 161.417965 
L 293.125289 161.100689 
L 293.76 160.978185 
L 294.394711 160.89645 
L 294.712066 160.716306 
L 295.346777 160.639987 
L 295.664132 160.047112 
L 296.298843 159.982857 
L 299.155041 159.10703 
L 299.472397 158.758779 
L 300.741818 158.243025 
L 301.376529 157.381272 
L 301.693884 156.953456 
L 304.232727 156.618975 
L 306.13686 156.04312 
L 307.406281 155.859072 
L 307.723636 155.585963 
L 308.358347 155.521926 
L 308.675702 155.390482 
L 308.993058 155.10635 
L 309.627769 155.037055 
L 310.262479 154.793454 
L 310.579835 154.787248 
L 310.89719 154.635598 
L 311.214545 154.615695 
L 311.531901 154.381289 
L 312.483967 154.159059 
L 313.118678 153.776669 
L 313.436033 153.739781 
L 314.070744 153.264127 
L 314.388099 153.260673 
L 314.705455 152.895817 
L 315.02281 152.221111 
L 315.340165 152.022191 
L 316.292231 151.854118 
L 316.926942 151.577157 
L 317.561653 151.460596 
L 318.831074 151.154611 
L 319.14843 150.965955 
L 319.465785 150.952073 
L 320.735207 150.350834 
L 323.90876 149.589997 
L 324.543471 149.272801 
L 325.495537 148.571151 
L 325.812893 148.534728 
L 326.447603 147.847369 
L 326.764959 147.629567 
L 327.082314 147.610694 
L 327.399669 147.209344 
L 327.717025 147.193457 
L 328.03438 147.012407 
L 328.351736 146.98103 
L 328.986446 146.565811 
L 329.621157 146.317626 
L 330.255868 145.770512 
L 330.890579 145.251703 
L 332.16 144.980122 
L 334.064132 144.384193 
L 335.016198 143.848674 
L 335.333554 143.808648 
L 335.968264 143.225551 
L 336.602975 143.02163 
L 337.237686 142.923464 
L 337.872397 142.665669 
L 339.141818 142.094683 
L 339.459174 141.731145 
L 340.728595 141.587434 
L 341.363306 140.713501 
L 341.680661 140.68162 
L 341.998017 140.440091 
L 342.315372 140.428998 
L 343.584793 139.805788 
L 344.219504 139.740952 
L 344.53686 139.456044 
L 344.854215 138.638946 
L 345.17157 138.475628 
L 346.123636 138.393385 
L 348.027769 137.397349 
L 348.979835 137.020405 
L 349.614545 136.674874 
L 349.931901 136.654897 
L 350.249256 136.442841 
L 350.566612 136.024577 
L 351.201322 135.895065 
L 351.518678 135.560839 
L 352.153388 135.551906 
L 352.470744 134.961931 
L 353.42281 134.867216 
L 353.740165 134.690162 
L 354.057521 134.676074 
L 354.374876 134.315508 
L 354.692231 134.185314 
L 355.326942 133.128311 
L 356.596364 132.463265 
L 357.54843 131.688727 
L 358.18314 131.582335 
L 358.500496 131.139532 
L 359.452562 130.939534 
L 359.769917 130.868807 
L 360.087273 130.344939 
L 360.721983 130.072135 
L 361.039339 130.0647 
L 361.356694 129.904356 
L 361.67405 129.884565 
L 361.991405 129.46909 
L 362.30876 129.31542 
L 362.943471 129.258866 
L 363.260826 128.711727 
L 363.578182 128.676606 
L 363.895537 128.168437 
L 364.212893 127.919987 
L 364.530248 127.903153 
L 364.847603 127.546441 
L 365.164959 127.416062 
L 365.482314 126.860387 
L 366.117025 126.79683 
L 366.43438 126.569026 
L 366.751736 126.48218 
L 367.069091 126.084362 
L 367.386446 124.850925 
L 367.703802 124.368928 
L 368.021157 124.272593 
L 368.338512 123.808791 
L 368.655868 123.549909 
L 368.973223 122.775671 
L 369.290579 122.769838 
L 369.607934 122.54523 
L 369.925289 122.489609 
L 370.242645 121.942547 
L 370.877355 121.771171 
L 371.512066 121.431055 
L 371.829421 120.890213 
L 372.146777 120.632051 
L 372.464132 120.080142 
L 372.781488 120.026233 
L 373.733554 119.197625 
L 374.050909 119.03567 
L 374.368264 118.275764 
L 374.68562 117.858386 
L 375.002975 117.823513 
L 375.320331 117.64738 
L 375.637686 117.309832 
L 376.589752 116.779349 
L 376.907107 116.433977 
L 377.224463 116.271644 
L 377.541818 116.268232 
L 377.859174 116.006596 
L 378.176529 116.000591 
L 378.81124 114.892739 
L 379.128595 114.882711 
L 379.44595 114.660451 
L 379.763306 114.007946 
L 380.715372 113.558613 
L 381.032727 112.630546 
L 381.350083 112.368209 
L 381.667438 112.265069 
L 381.984793 111.505163 
L 382.302149 111.053098 
L 382.93686 110.80778 
L 383.254215 109.758443 
L 383.57157 109.498998 
L 383.888926 108.7681 
L 384.206281 108.760752 
L 384.523636 108.404784 
L 385.158347 107.49618 
L 385.793058 107.024488 
L 386.745124 105.658622 
L 387.062479 105.599113 
L 387.379835 105.291274 
L 387.69719 104.81254 
L 388.331901 103.257927 
L 388.649256 102.989188 
L 389.283967 101.63418 
L 389.918678 99.617178 
L 390.236033 99.320951 
L 390.553388 98.520673 
L 390.870744 98.042126 
L 391.188099 97.797368 
L 391.505455 97.159712 
L 391.82281 96.988349 
L 392.140165 96.488693 
L 392.457521 95.595876 
L 392.774876 93.524039 
L 393.092231 92.847825 
L 393.726942 92.55186 
L 394.044298 91.027204 
L 394.361653 90.38911 
L 394.679008 90.217746 
L 394.996364 88.628555 
L 395.313719 84.124674 
L 395.631074 83.962443 
L 395.94843 81.859488 
L 396.265785 77.354072 
L 396.58314 77.19184 
L 396.900496 75.618135 
L 397.217851 73.349016 
L 397.535207 68.849069 
L 397.852562 66.578415 
L 398.487273 53.568 
L 398.487273 53.568 
" clip-path="url(#pe2f082cb80)" style="fill: none; stroke: #1f77b4; stroke-width: 1.5; stroke-linecap: square"/>
   </g>
   <g id="line2d_13">
    <path d="M 73.832727 205.964256 
L 74.150083 203.503161 
L 74.467438 203.503161 
L 74.784793 201.399426 
L 75.102149 200.96245 
L 75.73686 200.96245 
L 76.054215 200.175317 
L 76.37157 198.846527 
L 77.640992 198.559395 
L 78.910413 198.559395 
L 79.227769 197.809747 
L 79.545124 197.809747 
L 80.179835 197.37072 
L 80.49719 197.37072 
L 80.814545 196.541772 
L 81.131901 196.151579 
L 82.083967 196.14487 
L 82.401322 195.913936 
L 86.844298 195.900825 
L 87.161653 195.774378 
L 87.479008 195.173699 
L 88.431074 194.832962 
L 89.700496 194.832962 
L 90.017851 194.567266 
L 90.652562 194.567266 
L 90.969917 194.258619 
L 91.287273 194.258619 
L 91.604628 194.097839 
L 91.921983 193.684287 
L 99.221157 193.684287 
L 99.538512 193.437865 
L 101.76 193.379576 
L 102.077355 193.124153 
L 103.981488 193.066539 
L 104.616198 192.966946 
L 104.933554 192.966946 
L 105.250909 192.616668 
L 106.202975 192.599015 
L 106.520331 191.808495 
L 108.741818 191.548352 
L 109.376529 191.548352 
L 109.693884 191.148847 
L 110.01124 191.148847 
L 110.328595 190.70752 
L 129.369917 190.707502 
L 130.004628 190.312133 
L 130.639339 190.220839 
L 131.27405 190.205801 
L 131.591405 190.000643 
L 132.860826 189.953771 
L 133.178182 189.558826 
L 135.399669 189.476125 
L 135.717025 189.139325 
L 137.303802 188.998693 
L 163.009587 188.998693 
L 163.326942 188.649136 
L 167.769917 188.585253 
L 168.087273 188.152632 
L 168.404628 188.152632 
L 169.039339 188.037158 
L 169.67405 187.96264 
L 169.991405 187.784157 
L 171.895537 187.730104 
L 172.847603 187.604926 
L 180.781488 187.51303 
L 181.416198 187.422892 
L 182.68562 187.422892 
L 183.320331 186.582042 
L 186.493884 186.525709 
L 188.080661 186.141757 
L 188.398017 185.618902 
L 188.715372 184.873232 
L 283.604628 184.873232 
L 284.239339 183.604708 
L 284.556694 183.604708 
L 284.87405 183.479465 
L 285.191405 183.479465 
L 285.826116 183.220756 
L 288.999669 183.164423 
L 289.63438 182.323573 
L 291.855868 182.233434 
L 292.490579 182.141539 
L 300.107107 182.088151 
L 301.059174 181.962308 
L 302.328595 181.962308 
L 302.963306 181.709307 
L 303.598017 181.709307 
L 304.232727 181.593832 
L 304.550083 181.161211 
L 308.993058 181.097328 
L 309.310413 180.747772 
L 336.28562 180.652556 
L 336.602975 180.60714 
L 336.920331 180.270339 
L 339.141818 180.187638 
L 339.459174 179.792694 
L 340.728595 179.745822 
L 341.04595 179.540663 
L 342.315372 179.434332 
L 343.267438 179.038963 
L 361.991405 179.038944 
L 362.30876 178.597617 
L 362.626116 178.597617 
L 362.943471 178.198113 
L 364.530248 178.198113 
L 364.847603 178.016079 
L 365.799669 177.93797 
L 366.117025 177.14745 
L 367.069091 177.129797 
L 367.386446 176.779519 
L 368.338512 176.679926 
L 368.973223 176.622312 
L 370.242645 176.622312 
L 370.56 176.366889 
L 372.781488 176.3086 
L 373.098843 176.062178 
L 380.398017 176.062178 
L 380.715372 175.648626 
L 381.032727 175.487845 
L 381.350083 175.487845 
L 381.667438 175.179199 
L 382.302149 175.179199 
L 382.619504 174.913503 
L 384.206281 174.913503 
L 384.840992 174.572766 
L 385.158347 173.972087 
L 385.475702 173.84564 
L 389.918678 173.832528 
L 390.236033 173.601595 
L 391.188099 173.594886 
L 391.505455 173.204693 
L 391.82281 172.375744 
L 392.140165 172.375744 
L 393.092231 171.936718 
L 393.409587 171.18707 
L 394.996364 171.18707 
L 395.313719 170.981462 
L 395.94843 170.899937 
L 396.265785 169.571148 
L 396.58314 168.784015 
L 397.217851 168.784015 
L 397.535207 168.347039 
L 397.852562 166.243304 
L 398.169917 166.243304 
L 398.487273 163.782208 
L 398.487273 163.782208 
" clip-path="url(#pe2f082cb80)" style="fill: none; stroke: #ff7f0e; stroke-width: 1.5; stroke-linecap: square"/>
   </g>
   <g id="patch_3">
    <path d="M 57.6 307.584 
L 57.6 41.472 
" style="fill: none; stroke: #000000; stroke-width: 0.8; stroke-linejoin: miter; stroke-linecap: square"/>
   </g>
   <g id="patch_4">
    <path d="M 414.72 307.584 
L 414.72 41.472 
" style="fill: none; stroke: #000000; stroke-width: 0.8; stroke-linejoin: miter; stroke-linecap: square"/>
   </g>
   <g id="patch_5">
    <path d="M 57.6 307.584 
L 414.72 307.584 
" style="fill: none; stroke: #000000; stroke-width: 0.8; stroke-linejoin: miter; stroke-linecap: square"/>
   </g>
   <g id="patch_6">
    <path d="M 57.6 41.472 
L 414.72 41.472 
" style="fill: none; stroke: #000000; stroke-width: 0.8; stroke-linejoin: miter; stroke-linecap: square"/>
   </g>
   <g id="legend_1">
    <g id="patch_7">
     <path d="M 64.6 78.82825 
L 129.342187 78.82825 
Q 131.342187 78.82825 131.342187 76.82825 
L 131.342187 48.472 
Q 131.342187 46.472 129.342187 46.472 
L 64.6 46.472 
Q 62.6 46.472 62.6 48.472 
L 62.6 76.82825 
Q 62.6 78.82825 64.6 78.82825 
z
" style="fill: #ffffff; opacity: 0.8; stroke: #cccccc; stroke-linejoin: miter"/>
    </g>
    <g id="line2d_14">
     <path d="M 66.6 54.570437 
L 76.6 54.570437 
L 86.6 54.570437 
" style="fill: none; stroke: #1f77b4; stroke-width: 1.5; stroke-linecap: square"/>
    </g>
    <g id="text_14">
     <!-- qc -->
     <g transform="translate(94.6 58.070437) scale(0.1 -0.1)">
      <defs>
       <path id="DejaVuSans-71" d="M 947 1747 
Q 947 1113 1208 752 
Q 1469 391 1925 391 
Q 2381 391 2643 752 
Q 2906 1113 2906 1747 
Q 2906 2381 2643 2742 
Q 2381 3103 1925 3103 
Q 1469 3103 1208 2742 
Q 947 2381 947 1747 
z
M 2906 525 
Q 2725 213 2448 61 
Q 2172 -91 1784 -91 
Q 1150 -91 751 415 
Q 353 922 353 1747 
Q 353 2572 751 3078 
Q 1150 3584 1784 3584 
Q 2172 3584 2448 3432 
Q 2725 3281 2906 2969 
L 2906 3500 
L 3481 3500 
L 3481 -1331 
L 2906 -1331 
L 2906 525 
z
" transform="scale(0.015625)"/>
       <path id="DejaVuSans-63" d="M 3122 3366 
L 3122 2828 
Q 2878 2963 2633 3030 
Q 2388 3097 2138 3097 
Q 1578 3097 1268 2742 
Q 959 2388 959 1747 
Q 959 1106 1268 751 
Q 1578 397 2138 397 
Q 2388 397 2633 464 
Q 2878 531 3122 666 
L 3122 134 
Q 2881 22 2623 -34 
Q 2366 -91 2075 -91 
Q 1284 -91 818 406 
Q 353 903 353 1747 
Q 353 2603 823 3093 
Q 1294 3584 2113 3584 
Q 2378 3584 2631 3529 
Q 2884 3475 3122 3366 
z
" transform="scale(0.015625)"/>
      </defs>
      <use xlink:href="#DejaVuSans-71"/>
      <use xlink:href="#DejaVuSans-63" x="63.476562"/>
     </g>
    </g>
    <g id="line2d_15">
     <path d="M 66.6 69.248562 
L 76.6 69.248562 
L 86.6 69.248562 
" style="fill: none; stroke: #ff7f0e; stroke-width: 1.5; stroke-linecap: square"/>
    </g>
    <g id="text_15">
     <!-- Trotter -->
     <g transform="translate(94.6 72.748562) scale(0.1 -0.1)">
      <defs>
       <path id="DejaVuSans-54" d="M -19 4666 
L 3928 4666 
L 3928 4134 
L 2272 4134 
L 2272 0 
L 1638 0 
L 1638 4134 
L -19 4134 
L -19 4666 
z
" transform="scale(0.015625)"/>
       <path id="DejaVuSans-72" d="M 2631 2963 
Q 2534 3019 2420 3045 
Q 2306 3072 2169 3072 
Q 1681 3072 1420 2755 
Q 1159 2438 1159 1844 
L 1159 0 
L 581 0 
L 581 3500 
L 1159 3500 
L 1159 2956 
Q 1341 3275 1631 3429 
Q 1922 3584 2338 3584 
Q 2397 3584 2469 3576 
Q 2541 3569 2628 3553 
L 2631 2963 
z
" transform="scale(0.015625)"/>
       <path id="DejaVuSans-6f" d="M 1959 3097 
Q 1497 3097 1228 2736 
Q 959 2375 959 1747 
Q 959 1119 1226 758 
Q 1494 397 1959 397 
Q 2419 397 2687 759 
Q 2956 1122 2956 1747 
Q 2956 2369 2687 2733 
Q 2419 3097 1959 3097 
z
M 1959 3584 
Q 2709 3584 3137 3096 
Q 3566 2609 3566 1747 
Q 3566 888 3137 398 
Q 2709 -91 1959 -91 
Q 1206 -91 779 398 
Q 353 888 353 1747 
Q 353 2609 779 3096 
Q 1206 3584 1959 3584 
z
" transform="scale(0.015625)"/>
       <path id="DejaVuSans-65" d="M 3597 1894 
L 3597 1613 
L 953 1613 
Q 991 1019 1311 708 
Q 1631 397 2203 397 
Q 2534 397 2845 478 
Q 3156 559 3463 722 
L 3463 178 
Q 3153 47 2828 -22 
Q 2503 -91 2169 -91 
Q 1331 -91 842 396 
Q 353 884 353 1716 
Q 353 2575 817 3079 
Q 1281 3584 2069 3584 
Q 2775 3584 3186 3129 
Q 3597 2675 3597 1894 
z
M 3022 2063 
Q 3016 2534 2758 2815 
Q 2500 3097 2075 3097 
Q 1594 3097 1305 2825 
Q 1016 2553 972 2059 
L 3022 2063 
z
" transform="scale(0.015625)"/>
      </defs>
      <use xlink:href="#DejaVuSans-54"/>
      <use xlink:href="#DejaVuSans-72" x="46.333984"/>
      <use xlink:href="#DejaVuSans-6f" x="85.197266"/>
      <use xlink:href="#DejaVuSans-74" x="146.378906"/>
      <use xlink:href="#DejaVuSans-74" x="185.587891"/>
      <use xlink:href="#DejaVuSans-65" x="224.796875"/>
      <use xlink:href="#DejaVuSans-72" x="286.320312"/>
     </g>
    </g>
   </g>
  </g>
 </g>
 <defs>
  <clipPath id="pe2f082cb80">
   <rect x="57.6" y="41.472" width="357.12" height="266.112"/>
  </clipPath>
 </defs>
</svg>
