<?xml version="1.0" encoding="utf-8" standalone="no"?>
<!DOCTYPE svg PUBLIC "-//W3C//DTD SVG 1.1//EN"
  "http://www.w3.org/Graphics/SVG/1.1/DTD/svg11.dtd">
<svg xmlns:xlink="http://www.w3.org/1999/xlink" width="460.8pt" height="345.6pt" viewBox="0 0 460.8 345.6" xmlns="http://www.w3.org/2000/svg" version="1.1">
 <metadata>
  <rdf:RDF xmlns:dc="http://purl.org/dc/elements/1.1/" xmlns:cc="http://creativecommons.org/ns#" xmlns:rdf="http://www.w3.org/1999/02/22-rdf-syntax-ns#">
   <cc:Work>
    <dc:type rdf:resource="http://purl.org/dc/dcmitype/StillImage"/>
    <dc:date>2024-07-14T01:50:43.777162</dc:date>
    <dc:format>image/svg+xml</dc:format>
    <dc:creator>
     <cc:Agent>
      <dc:title>Matplotlib v3.7.1, https://matplotlib.org/</dc:title>
     </cc:Agent>
    </dc:creator>
   </cc:Work>
  </rdf:RDF>
 </metadata>
 <defs>
  <style type="text/css">*{stroke-linejoin: round; stroke-linecap: butt}</style>
 </defs>
 <g id="figure_1">
  <g id="patch_1">
   <path d="M 0 345.6 
L 460.8 345.6 
L 460.8 0 
L 0 0 
z
" style="fill: #ffffff"/>
  </g>
  <g id="axes_1">
   <g id="patch_2">
    <path d="M 57.6 307.584 
L 414.72 307.584 
L 414.72 41.472 
L 57.6 41.472 
z
" style="fill: #ffffff"/>
   </g>
   <g id="matplotlib.axis_1">
    <g id="xtick_1">
     <g id="line2d_1">
      <defs>
       <path id="m2346cef3cf" d="M 0 0 
L 0 3.5 
" style="stroke: #000000; stroke-width: 0.8"/>
      </defs>
      <g>
       <use xlink:href="#m2346cef3cf" x="73.832727" y="307.584" style="stroke: #000000; stroke-width: 0.8"/>
      </g>
     </g>
     <g id="text_1">
      <!-- 0 -->
      <g transform="translate(70.651477 322.182437) scale(0.1 -0.1)">
       <defs>
        <path id="DejaVuSans-30" d="M 2034 4250 
Q 1547 4250 1301 3770 
Q 1056 3291 1056 2328 
Q 1056 1369 1301 889 
Q 1547 409 2034 409 
Q 2525 409 2770 889 
Q 3016 1369 3016 2328 
Q 3016 3291 2770 3770 
Q 2525 4250 2034 4250 
z
M 2034 4750 
Q 2819 4750 3233 4129 
Q 3647 3509 3647 2328 
Q 3647 1150 3233 529 
Q 2819 -91 2034 -91 
Q 1250 -91 836 529 
Q 422 1150 422 2328 
Q 422 3509 836 4129 
Q 1250 4750 2034 4750 
z
" transform="scale(0.015625)"/>
       </defs>
       <use xlink:href="#DejaVuSans-30"/>
      </g>
     </g>
    </g>
    <g id="xtick_2">
     <g id="line2d_2">
      <g>
       <use xlink:href="#m2346cef3cf" x="137.303802" y="307.584" style="stroke: #000000; stroke-width: 0.8"/>
      </g>
     </g>
     <g id="text_2">
      <!-- 200 -->
      <g transform="translate(127.760052 322.182437) scale(0.1 -0.1)">
       <defs>
        <path id="DejaVuSans-32" d="M 1228 531 
L 3431 531 
L 3431 0 
L 469 0 
L 469 531 
Q 828 903 1448 1529 
Q 2069 2156 2228 2338 
Q 2531 2678 2651 2914 
Q 2772 3150 2772 3378 
Q 2772 3750 2511 3984 
Q 2250 4219 1831 4219 
Q 1534 4219 1204 4116 
Q 875 4013 500 3803 
L 500 4441 
Q 881 4594 1212 4672 
Q 1544 4750 1819 4750 
Q 2544 4750 2975 4387 
Q 3406 4025 3406 3419 
Q 3406 3131 3298 2873 
Q 3191 2616 2906 2266 
Q 2828 2175 2409 1742 
Q 1991 1309 1228 531 
z
" transform="scale(0.015625)"/>
       </defs>
       <use xlink:href="#DejaVuSans-32"/>
       <use xlink:href="#DejaVuSans-30" x="63.623047"/>
       <use xlink:href="#DejaVuSans-30" x="127.246094"/>
      </g>
     </g>
    </g>
    <g id="xtick_3">
     <g id="line2d_3">
      <g>
       <use xlink:href="#m2346cef3cf" x="200.774876" y="307.584" style="stroke: #000000; stroke-width: 0.8"/>
      </g>
     </g>
     <g id="text_3">
      <!-- 400 -->
      <g transform="translate(191.231126 322.182437) scale(0.1 -0.1)">
       <defs>
        <path id="DejaVuSans-34" d="M 2419 4116 
L 825 1625 
L 2419 1625 
L 2419 4116 
z
M 2253 4666 
L 3047 4666 
L 3047 1625 
L 3713 1625 
L 3713 1100 
L 3047 1100 
L 3047 0 
L 2419 0 
L 2419 1100 
L 313 1100 
L 313 1709 
L 2253 4666 
z
" transform="scale(0.015625)"/>
       </defs>
       <use xlink:href="#DejaVuSans-34"/>
       <use xlink:href="#DejaVuSans-30" x="63.623047"/>
       <use xlink:href="#DejaVuSans-30" x="127.246094"/>
      </g>
     </g>
    </g>
    <g id="xtick_4">
     <g id="line2d_4">
      <g>
       <use xlink:href="#m2346cef3cf" x="264.24595" y="307.584" style="stroke: #000000; stroke-width: 0.8"/>
      </g>
     </g>
     <g id="text_4">
      <!-- 600 -->
      <g transform="translate(254.7022 322.182437) scale(0.1 -0.1)">
       <defs>
        <path id="DejaVuSans-36" d="M 2113 2584 
Q 1688 2584 1439 2293 
Q 1191 2003 1191 1497 
Q 1191 994 1439 701 
Q 1688 409 2113 409 
Q 2538 409 2786 701 
Q 3034 994 3034 1497 
Q 3034 2003 2786 2293 
Q 2538 2584 2113 2584 
z
M 3366 4563 
L 3366 3988 
Q 3128 4100 2886 4159 
Q 2644 4219 2406 4219 
Q 1781 4219 1451 3797 
Q 1122 3375 1075 2522 
Q 1259 2794 1537 2939 
Q 1816 3084 2150 3084 
Q 2853 3084 3261 2657 
Q 3669 2231 3669 1497 
Q 3669 778 3244 343 
Q 2819 -91 2113 -91 
Q 1303 -91 875 529 
Q 447 1150 447 2328 
Q 447 3434 972 4092 
Q 1497 4750 2381 4750 
Q 2619 4750 2861 4703 
Q 3103 4656 3366 4563 
z
" transform="scale(0.015625)"/>
       </defs>
       <use xlink:href="#DejaVuSans-36"/>
       <use xlink:href="#DejaVuSans-30" x="63.623047"/>
       <use xlink:href="#DejaVuSans-30" x="127.246094"/>
      </g>
     </g>
    </g>
    <g id="xtick_5">
     <g id="line2d_5">
      <g>
       <use xlink:href="#m2346cef3cf" x="327.717025" y="307.584" style="stroke: #000000; stroke-width: 0.8"/>
      </g>
     </g>
     <g id="text_5">
      <!-- 800 -->
      <g transform="translate(318.173275 322.182437) scale(0.1 -0.1)">
       <defs>
        <path id="DejaVuSans-38" d="M 2034 2216 
Q 1584 2216 1326 1975 
Q 1069 1734 1069 1313 
Q 1069 891 1326 650 
Q 1584 409 2034 409 
Q 2484 409 2743 651 
Q 3003 894 3003 1313 
Q 3003 1734 2745 1975 
Q 2488 2216 2034 2216 
z
M 1403 2484 
Q 997 2584 770 2862 
Q 544 3141 544 3541 
Q 544 4100 942 4425 
Q 1341 4750 2034 4750 
Q 2731 4750 3128 4425 
Q 3525 4100 3525 3541 
Q 3525 3141 3298 2862 
Q 3072 2584 2669 2484 
Q 3125 2378 3379 2068 
Q 3634 1759 3634 1313 
Q 3634 634 3220 271 
Q 2806 -91 2034 -91 
Q 1263 -91 848 271 
Q 434 634 434 1313 
Q 434 1759 690 2068 
Q 947 2378 1403 2484 
z
M 1172 3481 
Q 1172 3119 1398 2916 
Q 1625 2713 2034 2713 
Q 2441 2713 2670 2916 
Q 2900 3119 2900 3481 
Q 2900 3844 2670 4047 
Q 2441 4250 2034 4250 
Q 1625 4250 1398 4047 
Q 1172 3844 1172 3481 
z
" transform="scale(0.015625)"/>
       </defs>
       <use xlink:href="#DejaVuSans-38"/>
       <use xlink:href="#DejaVuSans-30" x="63.623047"/>
       <use xlink:href="#DejaVuSans-30" x="127.246094"/>
      </g>
     </g>
    </g>
    <g id="xtick_6">
     <g id="line2d_6">
      <g>
       <use xlink:href="#m2346cef3cf" x="391.188099" y="307.584" style="stroke: #000000; stroke-width: 0.8"/>
      </g>
     </g>
     <g id="text_6">
      <!-- 1000 -->
      <g transform="translate(378.463099 322.182437) scale(0.1 -0.1)">
       <defs>
        <path id="DejaVuSans-31" d="M 794 531 
L 1825 531 
L 1825 4091 
L 703 3866 
L 703 4441 
L 1819 4666 
L 2450 4666 
L 2450 531 
L 3481 531 
L 3481 0 
L 794 0 
L 794 531 
z
" transform="scale(0.015625)"/>
       </defs>
       <use xlink:href="#DejaVuSans-31"/>
       <use xlink:href="#DejaVuSans-30" x="63.623047"/>
       <use xlink:href="#DejaVuSans-30" x="127.246094"/>
       <use xlink:href="#DejaVuSans-30" x="190.869141"/>
      </g>
     </g>
    </g>
    <g id="text_7">
     <!-- n -->
     <g transform="translate(232.99125 335.860562) scale(0.1 -0.1)">
      <defs>
       <path id="DejaVuSans-6e" d="M 3513 2113 
L 3513 0 
L 2938 0 
L 2938 2094 
Q 2938 2591 2744 2837 
Q 2550 3084 2163 3084 
Q 1697 3084 1428 2787 
Q 1159 2491 1159 1978 
L 1159 0 
L 581 0 
L 581 3500 
L 1159 3500 
L 1159 2956 
Q 1366 3272 1645 3428 
Q 1925 3584 2291 3584 
Q 2894 3584 3203 3211 
Q 3513 2838 3513 2113 
z
" transform="scale(0.015625)"/>
      </defs>
      <use xlink:href="#DejaVuSans-6e"/>
     </g>
    </g>
   </g>
   <g id="matplotlib.axis_2">
    <g id="ytick_1">
     <g id="line2d_7">
      <defs>
       <path id="m42df55a1c4" d="M 0 0 
L -3.5 0 
" style="stroke: #000000; stroke-width: 0.8"/>
      </defs>
      <g>
       <use xlink:href="#m42df55a1c4" x="57.6" y="305.053667" style="stroke: #000000; stroke-width: 0.8"/>
      </g>
     </g>
     <g id="text_8">
      <!-- −0.75 -->
      <g transform="translate(19.954687 308.852886) scale(0.1 -0.1)">
       <defs>
        <path id="DejaVuSans-2212" d="M 678 2272 
L 4684 2272 
L 4684 1741 
L 678 1741 
L 678 2272 
z
" transform="scale(0.015625)"/>
        <path id="DejaVuSans-2e" d="M 684 794 
L 1344 794 
L 1344 0 
L 684 0 
L 684 794 
z
" transform="scale(0.015625)"/>
        <path id="DejaVuSans-37" d="M 525 4666 
L 3525 4666 
L 3525 4397 
L 1831 0 
L 1172 0 
L 2766 4134 
L 525 4134 
L 525 4666 
z
" transform="scale(0.015625)"/>
        <path id="DejaVuSans-35" d="M 691 4666 
L 3169 4666 
L 3169 4134 
L 1269 4134 
L 1269 2991 
Q 1406 3038 1543 3061 
Q 1681 3084 1819 3084 
Q 2600 3084 3056 2656 
Q 3513 2228 3513 1497 
Q 3513 744 3044 326 
Q 2575 -91 1722 -91 
Q 1428 -91 1123 -41 
Q 819 9 494 109 
L 494 744 
Q 775 591 1075 516 
Q 1375 441 1709 441 
Q 2250 441 2565 725 
Q 2881 1009 2881 1497 
Q 2881 1984 2565 2268 
Q 2250 2553 1709 2553 
Q 1456 2553 1204 2497 
Q 953 2441 691 2322 
L 691 4666 
z
" transform="scale(0.015625)"/>
       </defs>
       <use xlink:href="#DejaVuSans-2212"/>
       <use xlink:href="#DejaVuSans-30" x="83.789062"/>
       <use xlink:href="#DejaVuSans-2e" x="147.412109"/>
       <use xlink:href="#DejaVuSans-37" x="179.199219"/>
       <use xlink:href="#DejaVuSans-35" x="242.822266"/>
      </g>
     </g>
    </g>
    <g id="ytick_2">
     <g id="line2d_8">
      <g>
       <use xlink:href="#m42df55a1c4" x="57.6" y="274.242322" style="stroke: #000000; stroke-width: 0.8"/>
      </g>
     </g>
     <g id="text_9">
      <!-- −0.50 -->
      <g transform="translate(19.954687 278.041541) scale(0.1 -0.1)">
       <use xlink:href="#DejaVuSans-2212"/>
       <use xlink:href="#DejaVuSans-30" x="83.789062"/>
       <use xlink:href="#DejaVuSans-2e" x="147.412109"/>
       <use xlink:href="#DejaVuSans-35" x="179.199219"/>
       <use xlink:href="#DejaVuSans-30" x="242.822266"/>
      </g>
     </g>
    </g>
    <g id="ytick_3">
     <g id="line2d_9">
      <g>
       <use xlink:href="#m42df55a1c4" x="57.6" y="243.430977" style="stroke: #000000; stroke-width: 0.8"/>
      </g>
     </g>
     <g id="text_10">
      <!-- −0.25 -->
      <g transform="translate(19.954687 247.230196) scale(0.1 -0.1)">
       <use xlink:href="#DejaVuSans-2212"/>
       <use xlink:href="#DejaVuSans-30" x="83.789062"/>
       <use xlink:href="#DejaVuSans-2e" x="147.412109"/>
       <use xlink:href="#DejaVuSans-32" x="179.199219"/>
       <use xlink:href="#DejaVuSans-35" x="242.822266"/>
      </g>
     </g>
    </g>
    <g id="ytick_4">
     <g id="line2d_10">
      <g>
       <use xlink:href="#m42df55a1c4" x="57.6" y="212.619632" style="stroke: #000000; stroke-width: 0.8"/>
      </g>
     </g>
     <g id="text_11">
      <!-- 0.00 -->
      <g transform="translate(28.334375 216.418851) scale(0.1 -0.1)">
       <use xlink:href="#DejaVuSans-30"/>
       <use xlink:href="#DejaVuSans-2e" x="63.623047"/>
       <use xlink:href="#DejaVuSans-30" x="95.410156"/>
       <use xlink:href="#DejaVuSans-30" x="159.033203"/>
      </g>
     </g>
    </g>
    <g id="ytick_5">
     <g id="line2d_11">
      <g>
       <use xlink:href="#m42df55a1c4" x="57.6" y="181.808287" style="stroke: #000000; stroke-width: 0.8"/>
      </g>
     </g>
     <g id="text_12">
      <!-- 0.25 -->
      <g transform="translate(28.334375 185.607505) scale(0.1 -0.1)">
       <use xlink:href="#DejaVuSans-30"/>
       <use xlink:href="#DejaVuSans-2e" x="63.623047"/>
       <use xlink:href="#DejaVuSans-32" x="95.410156"/>
       <use xlink:href="#DejaVuSans-35" x="159.033203"/>
      </g>
     </g>
    </g>
    <g id="ytick_6">
     <g id="line2d_12">
      <g>
       <use xlink:href="#m42df55a1c4" x="57.6" y="150.996942" style="stroke: #000000; stroke-width: 0.8"/>
      </g>
     </g>
     <g id="text_13">
      <!-- 0.50 -->
      <g transform="translate(28.334375 154.79616) scale(0.1 -0.1)">
       <use xlink:href="#DejaVuSans-30"/>
       <use xlink:href="#DejaVuSans-2e" x="63.623047"/>
       <use xlink:href="#DejaVuSans-35" x="95.410156"/>
       <use xlink:href="#DejaVuSans-30" x="159.033203"/>
      </g>
     </g>
    </g>
    <g id="ytick_7">
     <g id="line2d_13">
      <g>
       <use xlink:href="#m42df55a1c4" x="57.6" y="120.185596" style="stroke: #000000; stroke-width: 0.8"/>
      </g>
     </g>
     <g id="text_14">
      <!-- 0.75 -->
      <g transform="translate(28.334375 123.984815) scale(0.1 -0.1)">
       <use xlink:href="#DejaVuSans-30"/>
       <use xlink:href="#DejaVuSans-2e" x="63.623047"/>
       <use xlink:href="#DejaVuSans-37" x="95.410156"/>
       <use xlink:href="#DejaVuSans-35" x="159.033203"/>
      </g>
     </g>
    </g>
    <g id="ytick_8">
     <g id="line2d_14">
      <g>
       <use xlink:href="#m42df55a1c4" x="57.6" y="89.374251" style="stroke: #000000; stroke-width: 0.8"/>
      </g>
     </g>
     <g id="text_15">
      <!-- 1.00 -->
      <g transform="translate(28.334375 93.17347) scale(0.1 -0.1)">
       <use xlink:href="#DejaVuSans-31"/>
       <use xlink:href="#DejaVuSans-2e" x="63.623047"/>
       <use xlink:href="#DejaVuSans-30" x="95.410156"/>
       <use xlink:href="#DejaVuSans-30" x="159.033203"/>
      </g>
     </g>
    </g>
    <g id="ytick_9">
     <g id="line2d_15">
      <g>
       <use xlink:href="#m42df55a1c4" x="57.6" y="58.562906" style="stroke: #000000; stroke-width: 0.8"/>
      </g>
     </g>
     <g id="text_16">
      <!-- 1.25 -->
      <g transform="translate(28.334375 62.362125) scale(0.1 -0.1)">
       <use xlink:href="#DejaVuSans-31"/>
       <use xlink:href="#DejaVuSans-2e" x="63.623047"/>
       <use xlink:href="#DejaVuSans-32" x="95.410156"/>
       <use xlink:href="#DejaVuSans-35" x="159.033203"/>
      </g>
     </g>
    </g>
    <g id="text_17">
     <!-- E*t -->
     <g transform="translate(13.875 182.147531) rotate(-90) scale(0.1 -0.1)">
      <defs>
       <path id="DejaVuSans-45" d="M 628 4666 
L 3578 4666 
L 3578 4134 
L 1259 4134 
L 1259 2753 
L 3481 2753 
L 3481 2222 
L 1259 2222 
L 1259 531 
L 3634 531 
L 3634 0 
L 628 0 
L 628 4666 
z
" transform="scale(0.015625)"/>
       <path id="DejaVuSans-2a" d="M 3009 3897 
L 1888 3291 
L 3009 2681 
L 2828 2375 
L 1778 3009 
L 1778 1831 
L 1422 1831 
L 1422 3009 
L 372 2375 
L 191 2681 
L 1313 3291 
L 191 3897 
L 372 4206 
L 1422 3572 
L 1422 4750 
L 1778 4750 
L 1778 3572 
L 2828 4206 
L 3009 3897 
z
" transform="scale(0.015625)"/>
       <path id="DejaVuSans-74" d="M 1172 4494 
L 1172 3500 
L 2356 3500 
L 2356 3053 
L 1172 3053 
L 1172 1153 
Q 1172 725 1289 603 
Q 1406 481 1766 481 
L 2356 481 
L 2356 0 
L 1766 0 
Q 1100 0 847 248 
Q 594 497 594 1153 
L 594 3053 
L 172 3053 
L 172 3500 
L 594 3500 
L 594 4494 
L 1172 4494 
z
" transform="scale(0.015625)"/>
      </defs>
      <use xlink:href="#DejaVuSans-45"/>
      <use xlink:href="#DejaVuSans-2a" x="63.183594"/>
      <use xlink:href="#DejaVuSans-74" x="113.183594"/>
     </g>
    </g>
   </g>
   <g id="line2d_16">
    <path d="M 73.832727 295.488 
L 74.150083 293.395748 
L 74.467438 292.946205 
L 75.419504 287.195371 
L 75.73686 286.190224 
L 76.054215 284.653315 
L 76.37157 280.536132 
L 76.688926 280.356753 
L 77.006281 278.985895 
L 77.323636 278.44388 
L 77.640992 278.264501 
L 77.958347 277.262963 
L 78.275702 276.893643 
L 78.593058 275.278775 
L 78.910413 275.170711 
L 79.545124 273.780398 
L 79.862479 273.766256 
L 80.49719 273.373354 
L 81.131901 272.243489 
L 81.449256 272.229923 
L 81.766612 272.063972 
L 82.718678 270.93262 
L 83.353388 270.507137 
L 83.988099 269.192718 
L 84.305455 268.970229 
L 84.62281 268.105441 
L 84.940165 265.892157 
L 85.257521 265.563644 
L 85.574876 263.799906 
L 85.892231 263.134377 
L 86.209587 261.042124 
L 86.526942 260.309347 
L 86.844298 260.135676 
L 87.161653 259.413906 
L 89.065785 258.230234 
L 89.38314 258.217095 
L 89.700496 257.883286 
L 90.017851 257.861874 
L 90.969917 257.307226 
L 91.604628 257.160913 
L 92.87405 256.300826 
L 93.826116 255.977537 
L 94.143471 255.541189 
L 94.778182 255.319798 
L 95.095537 255.007439 
L 95.730248 254.841651 
L 96.364959 254.208888 
L 96.682314 253.969043 
L 96.999669 253.553382 
L 97.317025 253.530136 
L 97.951736 253.153572 
L 99.221157 252.873202 
L 99.538512 252.055504 
L 99.855868 252.016473 
L 100.173223 251.722673 
L 101.76 251.034475 
L 102.077355 250.441739 
L 102.712066 249.918775 
L 103.029421 249.880404 
L 103.346777 249.661918 
L 104.298843 249.329344 
L 104.616198 247.992807 
L 104.933554 247.867748 
L 105.250909 246.562631 
L 105.568264 246.08481 
L 105.88562 245.396207 
L 106.520331 244.796856 
L 107.155041 244.669517 
L 107.472397 244.244199 
L 108.424463 243.999901 
L 108.741818 243.742603 
L 109.059174 243.654193 
L 109.376529 243.315125 
L 110.01124 243.131174 
L 110.64595 242.816546 
L 111.598017 242.716244 
L 111.915372 242.263646 
L 112.232727 242.259968 
L 112.550083 242.086859 
L 112.867438 241.412605 
L 113.502149 241.222904 
L 113.819504 240.970795 
L 114.13686 240.90319 
L 114.454215 240.710002 
L 115.088926 240.624111 
L 115.723636 240.346518 
L 116.675702 239.636737 
L 116.993058 239.291158 
L 117.627769 239.052114 
L 118.262479 238.994851 
L 120.166612 238.471511 
L 121.118678 238.362279 
L 121.436033 238.274097 
L 122.070744 237.923287 
L 123.340165 237.722654 
L 124.926942 237.088659 
L 125.244298 237.077805 
L 125.561653 236.672201 
L 127.14843 236.481505 
L 127.465785 236.145846 
L 128.735207 235.832542 
L 129.369917 235.652341 
L 130.004628 235.234847 
L 130.639339 235.010273 
L 131.27405 234.593456 
L 131.591405 234.577379 
L 131.90876 234.411121 
L 132.226116 234.074156 
L 133.178182 233.952763 
L 133.495537 233.617661 
L 133.812893 232.998977 
L 134.130248 232.926786 
L 135.082314 232.378237 
L 135.399669 232.273146 
L 136.351736 231.596783 
L 136.669091 231.525424 
L 138.255868 230.355115 
L 139.207934 230.103651 
L 139.525289 230.085421 
L 139.842645 229.824829 
L 141.429421 229.501856 
L 141.746777 229.341646 
L 142.064132 228.947893 
L 142.698843 228.859189 
L 143.333554 228.482439 
L 144.28562 228.279594 
L 144.920331 228.227674 
L 145.237686 228.120793 
L 145.555041 227.803914 
L 146.507107 227.385374 
L 146.824463 226.864351 
L 147.459174 226.750575 
L 148.093884 226.578754 
L 148.41124 226.402267 
L 149.04595 226.346094 
L 149.363306 226.065504 
L 149.998017 225.836916 
L 150.315372 225.53365 
L 151.267438 225.376709 
L 151.584793 225.326713 
L 152.219504 224.816571 
L 152.53686 224.63707 
L 153.17157 224.618169 
L 153.806281 224.270691 
L 155.075702 223.980517 
L 155.710413 223.910194 
L 156.662479 223.41085 
L 156.979835 223.387823 
L 157.29719 222.995749 
L 157.614545 222.98635 
L 157.931901 222.792676 
L 158.883967 222.663634 
L 159.518678 222.429997 
L 159.836033 222.199093 
L 160.153388 222.179703 
L 160.470744 221.667421 
L 162.057521 221.318628 
L 162.374876 221.061423 
L 162.692231 220.994104 
L 163.009587 220.688606 
L 164.913719 220.461906 
L 165.54843 219.955207 
L 165.865785 219.421467 
L 166.817851 219.273232 
L 168.087273 218.986919 
L 168.721983 218.675723 
L 169.991405 218.556627 
L 170.626116 218.393958 
L 170.943471 217.997474 
L 171.895537 217.398338 
L 174.117025 217.202892 
L 174.43438 216.986962 
L 175.386446 216.766389 
L 176.338512 216.503158 
L 176.655868 216.440312 
L 177.290579 215.951314 
L 177.925289 215.903238 
L 178.56 215.692204 
L 178.877355 215.654741 
L 179.194711 215.397834 
L 180.146777 215.106821 
L 180.464132 214.715786 
L 181.416198 214.410907 
L 182.050909 214.348089 
L 182.368264 214.123589 
L 183.002975 214.079407 
L 183.320331 213.800222 
L 183.955041 213.657006 
L 184.589752 213.40975 
L 185.224463 213.32614 
L 185.859174 212.969393 
L 186.493884 212.449052 
L 187.44595 212.179914 
L 189.350083 211.60909 
L 190.93686 211.40259 
L 193.475702 210.814098 
L 194.110413 210.392021 
L 195.062479 210.272301 
L 196.649256 209.817172 
L 198.236033 209.534527 
L 198.553388 209.268233 
L 200.140165 208.92123 
L 200.774876 208.597072 
L 202.679008 208.136384 
L 203.313719 207.993361 
L 203.631074 207.549386 
L 203.94843 207.459293 
L 204.58314 207.023455 
L 204.900496 206.950411 
L 205.217851 206.685442 
L 206.169917 206.494419 
L 206.804628 206.38838 
L 207.121983 206.234859 
L 207.439339 205.901109 
L 208.391405 205.547954 
L 208.70876 205.103957 
L 209.978182 204.890586 
L 210.295537 204.82971 
L 210.612893 204.615295 
L 211.247603 204.588994 
L 212.83438 203.757497 
L 213.151736 203.347426 
L 213.469091 203.343942 
L 214.738512 202.917086 
L 216.96 202.576444 
L 218.229421 201.665275 
L 218.864132 201.565045 
L 220.133554 201.141064 
L 220.450909 201.082092 
L 220.768264 200.867889 
L 221.720331 200.798041 
L 223.307107 200.198869 
L 223.624463 199.736356 
L 224.576529 199.586063 
L 225.84595 199.134231 
L 226.798017 198.964308 
L 228.702149 198.204237 
L 229.019504 197.769697 
L 233.462479 196.76882 
L 233.779835 196.044507 
L 235.049256 195.877925 
L 235.366612 195.795205 
L 236.953388 194.781383 
L 240.126942 194.096291 
L 240.444298 193.939085 
L 240.761653 193.592608 
L 241.079008 193.525259 
L 241.713719 193.134251 
L 242.34843 193.084513 
L 242.98314 192.785538 
L 244.252562 192.565547 
L 244.887273 192.265134 
L 246.156694 191.987371 
L 247.426116 191.841394 
L 248.378182 191.50881 
L 249.012893 191.310291 
L 250.282314 190.997005 
L 251.23438 190.645953 
L 252.186446 190.411465 
L 253.455868 189.862991 
L 254.090579 189.634282 
L 254.725289 189.120595 
L 255.677355 189.057469 
L 256.629421 188.503062 
L 257.264132 188.376882 
L 257.898843 188.205588 
L 258.216198 187.860885 
L 258.850909 187.65514 
L 259.168264 187.291617 
L 259.48562 187.251527 
L 260.120331 186.93346 
L 260.755041 186.667633 
L 261.072397 186.611037 
L 261.707107 186.284643 
L 262.341818 186.179001 
L 262.659174 185.963292 
L 263.61124 185.749752 
L 263.928595 185.359199 
L 264.24595 185.193061 
L 264.880661 185.083569 
L 266.784793 184.513556 
L 267.102149 184.211504 
L 267.419504 184.100265 
L 267.73686 183.856009 
L 268.37157 183.755078 
L 269.323636 183.183739 
L 270.910413 182.881018 
L 271.545124 182.861973 
L 272.814545 181.800823 
L 274.718678 181.575753 
L 275.036033 181.32696 
L 276.305455 181.048376 
L 276.940165 180.787872 
L 278.209587 180.59427 
L 278.526942 180.460429 
L 279.161653 180.08829 
L 279.796364 179.993918 
L 280.113719 179.63238 
L 280.431074 179.554183 
L 281.065785 179.108405 
L 281.38314 179.08342 
L 281.700496 178.929525 
L 282.652562 178.803199 
L 282.969917 178.200115 
L 283.287273 177.972987 
L 283.921983 177.858632 
L 284.239339 177.689095 
L 284.87405 177.59979 
L 286.778182 177.100369 
L 287.412893 176.865399 
L 287.730248 176.840196 
L 288.047603 176.655695 
L 288.364959 176.645382 
L 288.999669 176.374648 
L 289.317025 176.337179 
L 289.63438 176.1632 
L 290.269091 175.992294 
L 291.538512 175.635972 
L 292.490579 175.563443 
L 292.807934 175.474748 
L 293.442645 175.096419 
L 295.029421 174.67569 
L 297.88562 173.998599 
L 298.202975 173.92408 
L 298.520331 173.563895 
L 299.472397 173.182904 
L 300.107107 172.80123 
L 300.424463 172.787227 
L 300.741818 172.659628 
L 301.376529 172.258376 
L 302.01124 172.037464 
L 302.963306 171.90873 
L 303.280661 171.593194 
L 303.598017 171.499161 
L 304.550083 170.879557 
L 304.867438 170.819311 
L 306.13686 170.07432 
L 307.088926 169.758223 
L 307.406281 168.790375 
L 308.358347 168.426004 
L 308.993058 167.783422 
L 309.310413 167.413655 
L 309.945124 167.130653 
L 311.214545 166.847891 
L 311.531901 166.654741 
L 311.849256 166.62023 
L 312.801322 165.947942 
L 313.436033 165.82004 
L 315.340165 165.109664 
L 315.974876 164.970146 
L 316.292231 164.266389 
L 317.561653 164.019216 
L 318.196364 163.656936 
L 318.513719 163.652749 
L 318.831074 163.519314 
L 319.14843 163.516584 
L 319.78314 163.269612 
L 320.735207 162.045035 
L 322.956694 161.303159 
L 325.178182 160.994106 
L 325.495537 160.244129 
L 325.812893 160.091208 
L 326.764959 158.979784 
L 328.03438 158.612645 
L 328.351736 158.007773 
L 329.303802 157.833458 
L 330.573223 157.302456 
L 330.890579 157.260087 
L 331.842645 156.473447 
L 332.794711 156.239052 
L 333.112066 156.118982 
L 333.429421 155.838764 
L 334.698843 155.72068 
L 335.333554 155.61756 
L 335.650909 155.497333 
L 335.968264 154.71591 
L 336.28562 154.661763 
L 336.602975 154.447774 
L 336.920331 154.402286 
L 337.237686 153.767129 
L 337.555041 153.652781 
L 338.189752 153.019087 
L 338.507107 152.804037 
L 338.824463 152.445277 
L 340.093884 152.171333 
L 340.41124 151.751538 
L 340.728595 151.527368 
L 341.680661 151.234361 
L 341.998017 150.87927 
L 342.315372 150.751113 
L 342.632727 150.123134 
L 343.267438 149.780589 
L 343.584793 149.086925 
L 345.17157 147.502415 
L 345.806281 147.415182 
L 346.440992 147.102652 
L 347.710413 146.229947 
L 348.027769 146.21991 
L 348.345124 146.028937 
L 348.979835 145.872116 
L 349.29719 145.457735 
L 350.566612 145.246342 
L 350.883967 144.948688 
L 351.836033 143.276789 
L 352.153388 142.787273 
L 352.470744 142.621243 
L 352.788099 142.297055 
L 353.42281 142.22372 
L 353.740165 141.961771 
L 354.692231 141.716328 
L 355.009587 141.3804 
L 355.644298 141.355042 
L 358.817851 139.883572 
L 359.135207 139.848801 
L 359.452562 139.449471 
L 359.769917 139.445073 
L 360.721983 138.990148 
L 361.039339 137.987262 
L 362.30876 137.378506 
L 362.626116 137.080597 
L 363.578182 136.858593 
L 363.895537 136.636419 
L 364.212893 136.108303 
L 364.847603 136.071102 
L 365.164959 135.866143 
L 365.482314 135.799287 
L 365.799669 135.123047 
L 366.117025 134.992558 
L 366.43438 134.56614 
L 366.751736 134.537102 
L 367.069091 133.846494 
L 367.386446 133.801855 
L 367.703802 133.165405 
L 368.338512 133.106088 
L 368.655868 132.699468 
L 368.973223 132.638981 
L 369.290579 132.143253 
L 369.925289 131.983154 
L 370.242645 131.612931 
L 370.56 131.581204 
L 370.877355 131.260976 
L 371.194711 130.589205 
L 371.512066 130.303492 
L 372.146777 130.111382 
L 372.464132 128.815978 
L 372.781488 128.239382 
L 373.098843 128.154708 
L 373.416198 127.820537 
L 373.733554 127.286865 
L 374.368264 127.172384 
L 374.68562 127.098496 
L 375.002975 126.596241 
L 375.320331 126.393919 
L 375.637686 126.352075 
L 375.955041 125.805501 
L 376.272397 123.926362 
L 376.907107 122.518523 
L 377.541818 122.320733 
L 377.859174 122.291227 
L 378.176529 121.862152 
L 379.128595 121.320911 
L 379.763306 120.855215 
L 380.398017 120.597175 
L 380.715372 118.161418 
L 381.032727 117.513135 
L 381.350083 117.439571 
L 381.667438 117.004111 
L 381.984793 116.769189 
L 382.302149 116.054112 
L 382.619504 115.718231 
L 382.93686 115.711913 
L 383.57157 114.854517 
L 383.888926 113.282238 
L 384.206281 112.841032 
L 384.840992 112.500781 
L 385.158347 111.867907 
L 385.475702 111.728188 
L 386.110413 111.17518 
L 386.427769 110.558313 
L 387.062479 107.125345 
L 387.379835 106.942569 
L 387.69719 105.679382 
L 388.014545 103.614645 
L 388.649256 102.459024 
L 389.283967 102.061396 
L 389.601322 101.994309 
L 389.918678 101.445819 
L 390.553388 98.382891 
L 390.870744 98.155539 
L 391.188099 98.117584 
L 391.505455 97.726522 
L 392.140165 97.379289 
L 392.774876 96.564645 
L 393.409587 96.349043 
L 393.726942 93.236422 
L 394.044298 92.868481 
L 394.361653 91.696283 
L 394.679008 91.582151 
L 394.996364 89.146608 
L 395.313719 87.592558 
L 395.631074 87.305828 
L 395.94843 86.817351 
L 396.58314 77.858679 
L 396.900496 77.70363 
L 397.852562 62.68172 
L 398.487273 53.568 
L 398.487273 53.568 
" clip-path="url(#p5cce19690f)" style="fill: none; stroke: #1f77b4; stroke-width: 1.5; stroke-linecap: square"/>
   </g>
   <g id="line2d_17">
    <path d="M 73.832727 263.026057 
L 74.150083 257.14417 
L 74.467438 257.14417 
L 74.784793 252.116354 
L 75.102149 251.072006 
L 75.73686 251.072006 
L 76.054215 249.1908 
L 76.37157 246.015064 
L 76.688926 245.820223 
L 77.006281 245.820223 
L 77.323636 245.328833 
L 78.910413 245.328833 
L 79.227769 243.537213 
L 79.545124 243.537213 
L 80.179835 242.487963 
L 80.49719 242.487963 
L 80.814545 240.50682 
L 81.131901 239.57428 
L 82.083967 239.558246 
L 82.401322 239.006327 
L 86.844298 238.974991 
L 87.161653 238.672789 
L 87.479008 237.237198 
L 87.796364 236.919842 
L 88.113719 236.422856 
L 89.700496 236.422856 
L 90.017851 235.787855 
L 90.652562 235.787855 
L 90.969917 235.050207 
L 91.287273 235.050207 
L 91.604628 234.665951 
L 91.921983 233.677583 
L 99.221157 233.677583 
L 99.538512 233.088648 
L 99.855868 233.088648 
L 100.173223 232.94934 
L 101.76 232.94934 
L 102.077355 232.338893 
L 103.664132 232.338893 
L 104.616198 231.963177 
L 104.933554 231.963177 
L 105.250909 231.126031 
L 106.202975 231.083841 
L 106.520331 229.19454 
L 107.155041 229.007864 
L 107.472397 229.007864 
L 107.789752 228.572812 
L 109.376529 228.572812 
L 109.693884 227.618018 
L 110.01124 227.618018 
L 110.328595 226.563269 
L 129.369917 226.563226 
L 129.687273 225.963848 
L 130.321983 225.400128 
L 131.27405 225.364188 
L 131.591405 224.87387 
L 131.90876 224.87387 
L 132.543471 224.761848 
L 132.860826 224.761848 
L 133.178182 223.817952 
L 133.495537 223.817952 
L 133.812893 223.620301 
L 135.399669 223.620301 
L 135.717025 222.815365 
L 136.986446 222.479262 
L 163.009587 222.479262 
L 163.326942 221.643842 
L 167.135207 221.643842 
L 167.452562 221.491164 
L 167.769917 221.491164 
L 168.087273 220.457223 
L 168.404628 220.457223 
L 168.721983 220.181245 
L 169.356694 220.181245 
L 169.67405 220.003152 
L 169.991405 219.576587 
L 171.578182 219.576587 
L 172.847603 219.148233 
L 180.146777 219.148233 
L 180.464132 218.928609 
L 180.781488 218.928609 
L 181.098843 218.713182 
L 182.68562 218.713182 
L 183.320331 216.703595 
L 185.541818 216.685719 
L 186.176529 216.568962 
L 186.493884 216.568962 
L 186.81124 216.392604 
L 187.128595 215.950661 
L 187.44595 215.950661 
L 187.763306 215.651338 
L 188.080661 215.651338 
L 188.398017 214.401742 
L 188.715372 212.619632 
L 283.604628 212.619632 
L 284.239339 209.587926 
L 284.556694 209.587926 
L 284.87405 209.288603 
L 285.191405 209.288603 
L 285.50876 208.84666 
L 285.826116 208.670301 
L 286.460826 208.670301 
L 287.095537 208.553544 
L 288.999669 208.535668 
L 289.63438 206.526082 
L 291.221157 206.526082 
L 291.538512 206.310655 
L 291.855868 206.310655 
L 292.173223 206.09103 
L 299.472397 206.09103 
L 299.789752 205.963435 
L 300.107107 205.963435 
L 300.741818 205.662676 
L 302.328595 205.662676 
L 302.64595 205.236112 
L 302.963306 205.058019 
L 303.598017 205.058019 
L 303.915372 204.782041 
L 304.232727 204.782041 
L 304.550083 203.748099 
L 304.867438 203.748099 
L 305.184793 203.595422 
L 308.993058 203.595422 
L 309.310413 202.760001 
L 335.968264 202.714179 
L 336.602975 202.423898 
L 336.920331 201.618962 
L 338.507107 201.618962 
L 338.824463 201.421311 
L 339.141818 201.421311 
L 339.459174 200.477415 
L 340.093884 200.477415 
L 340.728595 200.365394 
L 341.04595 199.875076 
L 342.315372 199.620949 
L 342.632727 199.275415 
L 342.950083 198.676038 
L 361.991405 198.675994 
L 362.30876 197.621246 
L 362.626116 197.621246 
L 362.943471 196.666451 
L 364.530248 196.666451 
L 364.847603 196.2314 
L 365.482314 196.156377 
L 365.799669 196.044724 
L 366.117025 194.155423 
L 367.069091 194.113233 
L 367.386446 193.276087 
L 368.021157 193.276087 
L 368.655868 192.900371 
L 370.242645 192.900371 
L 370.56 192.289924 
L 372.146777 192.289924 
L 372.464132 192.150615 
L 372.781488 192.150615 
L 373.098843 191.561681 
L 380.398017 191.561681 
L 380.715372 190.573313 
L 381.032727 190.189056 
L 381.350083 190.189056 
L 381.667438 189.451408 
L 382.302149 189.451408 
L 382.619504 188.816407 
L 384.206281 188.816407 
L 384.840992 188.002065 
L 385.158347 186.566475 
L 385.475702 186.264273 
L 389.918678 186.232937 
L 390.236033 185.681018 
L 391.188099 185.664984 
L 391.505455 184.732444 
L 391.82281 182.751301 
L 392.140165 182.751301 
L 392.457521 182.350611 
L 392.774876 181.70205 
L 393.092231 181.70205 
L 393.409587 179.910431 
L 394.996364 179.910431 
L 395.313719 179.419041 
L 395.631074 179.419041 
L 395.94843 179.2242 
L 396.265785 176.048464 
L 396.58314 174.167258 
L 397.217851 174.167258 
L 397.535207 173.122909 
L 397.852562 168.095094 
L 398.169917 168.095094 
L 398.487273 162.213206 
L 398.487273 162.213206 
" clip-path="url(#p5cce19690f)" style="fill: none; stroke: #ff7f0e; stroke-width: 1.5; stroke-linecap: square"/>
   </g>
   <g id="patch_3">
    <path d="M 57.6 307.584 
L 57.6 41.472 
" style="fill: none; stroke: #000000; stroke-width: 0.8; stroke-linejoin: miter; stroke-linecap: square"/>
   </g>
   <g id="patch_4">
    <path d="M 414.72 307.584 
L 414.72 41.472 
" style="fill: none; stroke: #000000; stroke-width: 0.8; stroke-linejoin: miter; stroke-linecap: square"/>
   </g>
   <g id="patch_5">
    <path d="M 57.6 307.584 
L 414.72 307.584 
" style="fill: none; stroke: #000000; stroke-width: 0.8; stroke-linejoin: miter; stroke-linecap: square"/>
   </g>
   <g id="patch_6">
    <path d="M 57.6 41.472 
L 414.72 41.472 
" style="fill: none; stroke: #000000; stroke-width: 0.8; stroke-linejoin: miter; stroke-linecap: square"/>
   </g>
   <g id="legend_1">
    <g id="patch_7">
     <path d="M 64.6 78.82825 
L 129.342187 78.82825 
Q 131.342187 78.82825 131.342187 76.82825 
L 131.342187 48.472 
Q 131.342187 46.472 129.342187 46.472 
L 64.6 46.472 
Q 62.6 46.472 62.6 48.472 
L 62.6 76.82825 
Q 62.6 78.82825 64.6 78.82825 
z
" style="fill: #ffffff; opacity: 0.8; stroke: #cccccc; stroke-linejoin: miter"/>
    </g>
    <g id="line2d_18">
     <path d="M 66.6 54.570437 
L 76.6 54.570437 
L 86.6 54.570437 
" style="fill: none; stroke: #1f77b4; stroke-width: 1.5; stroke-linecap: square"/>
    </g>
    <g id="text_18">
     <!-- qc -->
     <g transform="translate(94.6 58.070437) scale(0.1 -0.1)">
      <defs>
       <path id="DejaVuSans-71" d="M 947 1747 
Q 947 1113 1208 752 
Q 1469 391 1925 391 
Q 2381 391 2643 752 
Q 2906 1113 2906 1747 
Q 2906 2381 2643 2742 
Q 2381 3103 1925 3103 
Q 1469 3103 1208 2742 
Q 947 2381 947 1747 
z
M 2906 525 
Q 2725 213 2448 61 
Q 2172 -91 1784 -91 
Q 1150 -91 751 415 
Q 353 922 353 1747 
Q 353 2572 751 3078 
Q 1150 3584 1784 3584 
Q 2172 3584 2448 3432 
Q 2725 3281 2906 2969 
L 2906 3500 
L 3481 3500 
L 3481 -1331 
L 2906 -1331 
L 2906 525 
z
" transform="scale(0.015625)"/>
       <path id="DejaVuSans-63" d="M 3122 3366 
L 3122 2828 
Q 2878 2963 2633 3030 
Q 2388 3097 2138 3097 
Q 1578 3097 1268 2742 
Q 959 2388 959 1747 
Q 959 1106 1268 751 
Q 1578 397 2138 397 
Q 2388 397 2633 464 
Q 2878 531 3122 666 
L 3122 134 
Q 2881 22 2623 -34 
Q 2366 -91 2075 -91 
Q 1284 -91 818 406 
Q 353 903 353 1747 
Q 353 2603 823 3093 
Q 1294 3584 2113 3584 
Q 2378 3584 2631 3529 
Q 2884 3475 3122 3366 
z
" transform="scale(0.015625)"/>
      </defs>
      <use xlink:href="#DejaVuSans-71"/>
      <use xlink:href="#DejaVuSans-63" x="63.476562"/>
     </g>
    </g>
    <g id="line2d_19">
     <path d="M 66.6 69.248562 
L 76.6 69.248562 
L 86.6 69.248562 
" style="fill: none; stroke: #ff7f0e; stroke-width: 1.5; stroke-linecap: square"/>
    </g>
    <g id="text_19">
     <!-- Trotter -->
     <g transform="translate(94.6 72.748562) scale(0.1 -0.1)">
      <defs>
       <path id="DejaVuSans-54" d="M -19 4666 
L 3928 4666 
L 3928 4134 
L 2272 4134 
L 2272 0 
L 1638 0 
L 1638 4134 
L -19 4134 
L -19 4666 
z
" transform="scale(0.015625)"/>
       <path id="DejaVuSans-72" d="M 2631 2963 
Q 2534 3019 2420 3045 
Q 2306 3072 2169 3072 
Q 1681 3072 1420 2755 
Q 1159 2438 1159 1844 
L 1159 0 
L 581 0 
L 581 3500 
L 1159 3500 
L 1159 2956 
Q 1341 3275 1631 3429 
Q 1922 3584 2338 3584 
Q 2397 3584 2469 3576 
Q 2541 3569 2628 3553 
L 2631 2963 
z
" transform="scale(0.015625)"/>
       <path id="DejaVuSans-6f" d="M 1959 3097 
Q 1497 3097 1228 2736 
Q 959 2375 959 1747 
Q 959 1119 1226 758 
Q 1494 397 1959 397 
Q 2419 397 2687 759 
Q 2956 1122 2956 1747 
Q 2956 2369 2687 2733 
Q 2419 3097 1959 3097 
z
M 1959 3584 
Q 2709 3584 3137 3096 
Q 3566 2609 3566 1747 
Q 3566 888 3137 398 
Q 2709 -91 1959 -91 
Q 1206 -91 779 398 
Q 353 888 353 1747 
Q 353 2609 779 3096 
Q 1206 3584 1959 3584 
z
" transform="scale(0.015625)"/>
       <path id="DejaVuSans-65" d="M 3597 1894 
L 3597 1613 
L 953 1613 
Q 991 1019 1311 708 
Q 1631 397 2203 397 
Q 2534 397 2845 478 
Q 3156 559 3463 722 
L 3463 178 
Q 3153 47 2828 -22 
Q 2503 -91 2169 -91 
Q 1331 -91 842 396 
Q 353 884 353 1716 
Q 353 2575 817 3079 
Q 1281 3584 2069 3584 
Q 2775 3584 3186 3129 
Q 3597 2675 3597 1894 
z
M 3022 2063 
Q 3016 2534 2758 2815 
Q 2500 3097 2075 3097 
Q 1594 3097 1305 2825 
Q 1016 2553 972 2059 
L 3022 2063 
z
" transform="scale(0.015625)"/>
      </defs>
      <use xlink:href="#DejaVuSans-54"/>
      <use xlink:href="#DejaVuSans-72" x="46.333984"/>
      <use xlink:href="#DejaVuSans-6f" x="85.197266"/>
      <use xlink:href="#DejaVuSans-74" x="146.378906"/>
      <use xlink:href="#DejaVuSans-74" x="185.587891"/>
      <use xlink:href="#DejaVuSans-65" x="224.796875"/>
      <use xlink:href="#DejaVuSans-72" x="286.320312"/>
     </g>
    </g>
   </g>
  </g>
 </g>
 <defs>
  <clipPath id="p5cce19690f">
   <rect x="57.6" y="41.472" width="357.12" height="266.112"/>
  </clipPath>
 </defs>
</svg>
