<?xml version="1.0" encoding="utf-8" standalone="no"?>
<!DOCTYPE svg PUBLIC "-//W3C//DTD SVG 1.1//EN"
  "http://www.w3.org/Graphics/SVG/1.1/DTD/svg11.dtd">
<svg xmlns:xlink="http://www.w3.org/1999/xlink" width="460.8pt" height="345.6pt" viewBox="0 0 460.8 345.6" xmlns="http://www.w3.org/2000/svg" version="1.1">
 <metadata>
  <rdf:RDF xmlns:dc="http://purl.org/dc/elements/1.1/" xmlns:cc="http://creativecommons.org/ns#" xmlns:rdf="http://www.w3.org/1999/02/22-rdf-syntax-ns#">
   <cc:Work>
    <dc:type rdf:resource="http://purl.org/dc/dcmitype/StillImage"/>
    <dc:date>2024-08-23T14:56:03.171236</dc:date>
    <dc:format>image/svg+xml</dc:format>
    <dc:creator>
     <cc:Agent>
      <dc:title>Matplotlib v3.7.1, https://matplotlib.org/</dc:title>
     </cc:Agent>
    </dc:creator>
   </cc:Work>
  </rdf:RDF>
 </metadata>
 <defs>
  <style type="text/css">*{stroke-linejoin: round; stroke-linecap: butt}</style>
 </defs>
 <g id="figure_1">
  <g id="patch_1">
   <path d="M 0 345.6 
L 460.8 345.6 
L 460.8 0 
L 0 0 
z
" style="fill: #ffffff"/>
  </g>
  <g id="axes_1">
   <g id="patch_2">
    <path d="M 57.6 307.584 
L 414.72 307.584 
L 414.72 41.472 
L 57.6 41.472 
z
" style="fill: #ffffff"/>
   </g>
   <g id="matplotlib.axis_1">
    <g id="xtick_1">
     <g id="line2d_1">
      <defs>
       <path id="m57b30f03f6" d="M 0 0 
L 0 3.5 
" style="stroke: #000000; stroke-width: 0.8"/>
      </defs>
      <g>
       <use xlink:href="#m57b30f03f6" x="73.832727" y="307.584" style="stroke: #000000; stroke-width: 0.8"/>
      </g>
     </g>
     <g id="text_1">
      <!-- 0 -->
      <g transform="translate(70.651477 322.182437) scale(0.1 -0.1)">
       <defs>
        <path id="DejaVuSans-30" d="M 2034 4250 
Q 1547 4250 1301 3770 
Q 1056 3291 1056 2328 
Q 1056 1369 1301 889 
Q 1547 409 2034 409 
Q 2525 409 2770 889 
Q 3016 1369 3016 2328 
Q 3016 3291 2770 3770 
Q 2525 4250 2034 4250 
z
M 2034 4750 
Q 2819 4750 3233 4129 
Q 3647 3509 3647 2328 
Q 3647 1150 3233 529 
Q 2819 -91 2034 -91 
Q 1250 -91 836 529 
Q 422 1150 422 2328 
Q 422 3509 836 4129 
Q 1250 4750 2034 4750 
z
" transform="scale(0.015625)"/>
       </defs>
       <use xlink:href="#DejaVuSans-30"/>
      </g>
     </g>
    </g>
    <g id="xtick_2">
     <g id="line2d_2">
      <g>
       <use xlink:href="#m57b30f03f6" x="137.303802" y="307.584" style="stroke: #000000; stroke-width: 0.8"/>
      </g>
     </g>
     <g id="text_2">
      <!-- 200 -->
      <g transform="translate(127.760052 322.182437) scale(0.1 -0.1)">
       <defs>
        <path id="DejaVuSans-32" d="M 1228 531 
L 3431 531 
L 3431 0 
L 469 0 
L 469 531 
Q 828 903 1448 1529 
Q 2069 2156 2228 2338 
Q 2531 2678 2651 2914 
Q 2772 3150 2772 3378 
Q 2772 3750 2511 3984 
Q 2250 4219 1831 4219 
Q 1534 4219 1204 4116 
Q 875 4013 500 3803 
L 500 4441 
Q 881 4594 1212 4672 
Q 1544 4750 1819 4750 
Q 2544 4750 2975 4387 
Q 3406 4025 3406 3419 
Q 3406 3131 3298 2873 
Q 3191 2616 2906 2266 
Q 2828 2175 2409 1742 
Q 1991 1309 1228 531 
z
" transform="scale(0.015625)"/>
       </defs>
       <use xlink:href="#DejaVuSans-32"/>
       <use xlink:href="#DejaVuSans-30" x="63.623047"/>
       <use xlink:href="#DejaVuSans-30" x="127.246094"/>
      </g>
     </g>
    </g>
    <g id="xtick_3">
     <g id="line2d_3">
      <g>
       <use xlink:href="#m57b30f03f6" x="200.774876" y="307.584" style="stroke: #000000; stroke-width: 0.8"/>
      </g>
     </g>
     <g id="text_3">
      <!-- 400 -->
      <g transform="translate(191.231126 322.182437) scale(0.1 -0.1)">
       <defs>
        <path id="DejaVuSans-34" d="M 2419 4116 
L 825 1625 
L 2419 1625 
L 2419 4116 
z
M 2253 4666 
L 3047 4666 
L 3047 1625 
L 3713 1625 
L 3713 1100 
L 3047 1100 
L 3047 0 
L 2419 0 
L 2419 1100 
L 313 1100 
L 313 1709 
L 2253 4666 
z
" transform="scale(0.015625)"/>
       </defs>
       <use xlink:href="#DejaVuSans-34"/>
       <use xlink:href="#DejaVuSans-30" x="63.623047"/>
       <use xlink:href="#DejaVuSans-30" x="127.246094"/>
      </g>
     </g>
    </g>
    <g id="xtick_4">
     <g id="line2d_4">
      <g>
       <use xlink:href="#m57b30f03f6" x="264.24595" y="307.584" style="stroke: #000000; stroke-width: 0.8"/>
      </g>
     </g>
     <g id="text_4">
      <!-- 600 -->
      <g transform="translate(254.7022 322.182437) scale(0.1 -0.1)">
       <defs>
        <path id="DejaVuSans-36" d="M 2113 2584 
Q 1688 2584 1439 2293 
Q 1191 2003 1191 1497 
Q 1191 994 1439 701 
Q 1688 409 2113 409 
Q 2538 409 2786 701 
Q 3034 994 3034 1497 
Q 3034 2003 2786 2293 
Q 2538 2584 2113 2584 
z
M 3366 4563 
L 3366 3988 
Q 3128 4100 2886 4159 
Q 2644 4219 2406 4219 
Q 1781 4219 1451 3797 
Q 1122 3375 1075 2522 
Q 1259 2794 1537 2939 
Q 1816 3084 2150 3084 
Q 2853 3084 3261 2657 
Q 3669 2231 3669 1497 
Q 3669 778 3244 343 
Q 2819 -91 2113 -91 
Q 1303 -91 875 529 
Q 447 1150 447 2328 
Q 447 3434 972 4092 
Q 1497 4750 2381 4750 
Q 2619 4750 2861 4703 
Q 3103 4656 3366 4563 
z
" transform="scale(0.015625)"/>
       </defs>
       <use xlink:href="#DejaVuSans-36"/>
       <use xlink:href="#DejaVuSans-30" x="63.623047"/>
       <use xlink:href="#DejaVuSans-30" x="127.246094"/>
      </g>
     </g>
    </g>
    <g id="xtick_5">
     <g id="line2d_5">
      <g>
       <use xlink:href="#m57b30f03f6" x="327.717025" y="307.584" style="stroke: #000000; stroke-width: 0.8"/>
      </g>
     </g>
     <g id="text_5">
      <!-- 800 -->
      <g transform="translate(318.173275 322.182437) scale(0.1 -0.1)">
       <defs>
        <path id="DejaVuSans-38" d="M 2034 2216 
Q 1584 2216 1326 1975 
Q 1069 1734 1069 1313 
Q 1069 891 1326 650 
Q 1584 409 2034 409 
Q 2484 409 2743 651 
Q 3003 894 3003 1313 
Q 3003 1734 2745 1975 
Q 2488 2216 2034 2216 
z
M 1403 2484 
Q 997 2584 770 2862 
Q 544 3141 544 3541 
Q 544 4100 942 4425 
Q 1341 4750 2034 4750 
Q 2731 4750 3128 4425 
Q 3525 4100 3525 3541 
Q 3525 3141 3298 2862 
Q 3072 2584 2669 2484 
Q 3125 2378 3379 2068 
Q 3634 1759 3634 1313 
Q 3634 634 3220 271 
Q 2806 -91 2034 -91 
Q 1263 -91 848 271 
Q 434 634 434 1313 
Q 434 1759 690 2068 
Q 947 2378 1403 2484 
z
M 1172 3481 
Q 1172 3119 1398 2916 
Q 1625 2713 2034 2713 
Q 2441 2713 2670 2916 
Q 2900 3119 2900 3481 
Q 2900 3844 2670 4047 
Q 2441 4250 2034 4250 
Q 1625 4250 1398 4047 
Q 1172 3844 1172 3481 
z
" transform="scale(0.015625)"/>
       </defs>
       <use xlink:href="#DejaVuSans-38"/>
       <use xlink:href="#DejaVuSans-30" x="63.623047"/>
       <use xlink:href="#DejaVuSans-30" x="127.246094"/>
      </g>
     </g>
    </g>
    <g id="xtick_6">
     <g id="line2d_6">
      <g>
       <use xlink:href="#m57b30f03f6" x="391.188099" y="307.584" style="stroke: #000000; stroke-width: 0.8"/>
      </g>
     </g>
     <g id="text_6">
      <!-- 1000 -->
      <g transform="translate(378.463099 322.182437) scale(0.1 -0.1)">
       <defs>
        <path id="DejaVuSans-31" d="M 794 531 
L 1825 531 
L 1825 4091 
L 703 3866 
L 703 4441 
L 1819 4666 
L 2450 4666 
L 2450 531 
L 3481 531 
L 3481 0 
L 794 0 
L 794 531 
z
" transform="scale(0.015625)"/>
       </defs>
       <use xlink:href="#DejaVuSans-31"/>
       <use xlink:href="#DejaVuSans-30" x="63.623047"/>
       <use xlink:href="#DejaVuSans-30" x="127.246094"/>
       <use xlink:href="#DejaVuSans-30" x="190.869141"/>
      </g>
     </g>
    </g>
    <g id="text_7">
     <!-- n -->
     <g transform="translate(232.99125 335.860562) scale(0.1 -0.1)">
      <defs>
       <path id="DejaVuSans-6e" d="M 3513 2113 
L 3513 0 
L 2938 0 
L 2938 2094 
Q 2938 2591 2744 2837 
Q 2550 3084 2163 3084 
Q 1697 3084 1428 2787 
Q 1159 2491 1159 1978 
L 1159 0 
L 581 0 
L 581 3500 
L 1159 3500 
L 1159 2956 
Q 1366 3272 1645 3428 
Q 1925 3584 2291 3584 
Q 2894 3584 3203 3211 
Q 3513 2838 3513 2113 
z
" transform="scale(0.015625)"/>
      </defs>
      <use xlink:href="#DejaVuSans-6e"/>
     </g>
    </g>
   </g>
   <g id="matplotlib.axis_2">
    <g id="ytick_1">
     <g id="line2d_7">
      <defs>
       <path id="m2637c86981" d="M 0 0 
L -3.5 0 
" style="stroke: #000000; stroke-width: 0.8"/>
      </defs>
      <g>
       <use xlink:href="#m2637c86981" x="57.6" y="298.580521" style="stroke: #000000; stroke-width: 0.8"/>
      </g>
     </g>
     <g id="text_8">
      <!-- −4 -->
      <g transform="translate(35.857813 302.37974) scale(0.1 -0.1)">
       <defs>
        <path id="DejaVuSans-2212" d="M 678 2272 
L 4684 2272 
L 4684 1741 
L 678 1741 
L 678 2272 
z
" transform="scale(0.015625)"/>
       </defs>
       <use xlink:href="#DejaVuSans-2212"/>
       <use xlink:href="#DejaVuSans-34" x="83.789062"/>
      </g>
     </g>
    </g>
    <g id="ytick_2">
     <g id="line2d_8">
      <g>
       <use xlink:href="#m2637c86981" x="57.6" y="267.661099" style="stroke: #000000; stroke-width: 0.8"/>
      </g>
     </g>
     <g id="text_9">
      <!-- −3 -->
      <g transform="translate(35.857813 271.460317) scale(0.1 -0.1)">
       <defs>
        <path id="DejaVuSans-33" d="M 2597 2516 
Q 3050 2419 3304 2112 
Q 3559 1806 3559 1356 
Q 3559 666 3084 287 
Q 2609 -91 1734 -91 
Q 1441 -91 1130 -33 
Q 819 25 488 141 
L 488 750 
Q 750 597 1062 519 
Q 1375 441 1716 441 
Q 2309 441 2620 675 
Q 2931 909 2931 1356 
Q 2931 1769 2642 2001 
Q 2353 2234 1838 2234 
L 1294 2234 
L 1294 2753 
L 1863 2753 
Q 2328 2753 2575 2939 
Q 2822 3125 2822 3475 
Q 2822 3834 2567 4026 
Q 2313 4219 1838 4219 
Q 1578 4219 1281 4162 
Q 984 4106 628 3988 
L 628 4550 
Q 988 4650 1302 4700 
Q 1616 4750 1894 4750 
Q 2613 4750 3031 4423 
Q 3450 4097 3450 3541 
Q 3450 3153 3228 2886 
Q 3006 2619 2597 2516 
z
" transform="scale(0.015625)"/>
       </defs>
       <use xlink:href="#DejaVuSans-2212"/>
       <use xlink:href="#DejaVuSans-33" x="83.789062"/>
      </g>
     </g>
    </g>
    <g id="ytick_3">
     <g id="line2d_9">
      <g>
       <use xlink:href="#m2637c86981" x="57.6" y="236.741676" style="stroke: #000000; stroke-width: 0.8"/>
      </g>
     </g>
     <g id="text_10">
      <!-- −2 -->
      <g transform="translate(35.857813 240.540895) scale(0.1 -0.1)">
       <use xlink:href="#DejaVuSans-2212"/>
       <use xlink:href="#DejaVuSans-32" x="83.789062"/>
      </g>
     </g>
    </g>
    <g id="ytick_4">
     <g id="line2d_10">
      <g>
       <use xlink:href="#m2637c86981" x="57.6" y="205.822253" style="stroke: #000000; stroke-width: 0.8"/>
      </g>
     </g>
     <g id="text_11">
      <!-- −1 -->
      <g transform="translate(35.857813 209.621472) scale(0.1 -0.1)">
       <use xlink:href="#DejaVuSans-2212"/>
       <use xlink:href="#DejaVuSans-31" x="83.789062"/>
      </g>
     </g>
    </g>
    <g id="ytick_5">
     <g id="line2d_11">
      <g>
       <use xlink:href="#m2637c86981" x="57.6" y="174.90283" style="stroke: #000000; stroke-width: 0.8"/>
      </g>
     </g>
     <g id="text_12">
      <!-- 0 -->
      <g transform="translate(44.2375 178.702049) scale(0.1 -0.1)">
       <use xlink:href="#DejaVuSans-30"/>
      </g>
     </g>
    </g>
    <g id="ytick_6">
     <g id="line2d_12">
      <g>
       <use xlink:href="#m2637c86981" x="57.6" y="143.983407" style="stroke: #000000; stroke-width: 0.8"/>
      </g>
     </g>
     <g id="text_13">
      <!-- 1 -->
      <g transform="translate(44.2375 147.782626) scale(0.1 -0.1)">
       <use xlink:href="#DejaVuSans-31"/>
      </g>
     </g>
    </g>
    <g id="ytick_7">
     <g id="line2d_13">
      <g>
       <use xlink:href="#m2637c86981" x="57.6" y="113.063985" style="stroke: #000000; stroke-width: 0.8"/>
      </g>
     </g>
     <g id="text_14">
      <!-- 2 -->
      <g transform="translate(44.2375 116.863203) scale(0.1 -0.1)">
       <use xlink:href="#DejaVuSans-32"/>
      </g>
     </g>
    </g>
    <g id="ytick_8">
     <g id="line2d_14">
      <g>
       <use xlink:href="#m2637c86981" x="57.6" y="82.144562" style="stroke: #000000; stroke-width: 0.8"/>
      </g>
     </g>
     <g id="text_15">
      <!-- 3 -->
      <g transform="translate(44.2375 85.943781) scale(0.1 -0.1)">
       <use xlink:href="#DejaVuSans-33"/>
      </g>
     </g>
    </g>
    <g id="ytick_9">
     <g id="line2d_15">
      <g>
       <use xlink:href="#m2637c86981" x="57.6" y="51.225139" style="stroke: #000000; stroke-width: 0.8"/>
      </g>
     </g>
     <g id="text_16">
      <!-- 4 -->
      <g transform="translate(44.2375 55.024358) scale(0.1 -0.1)">
       <use xlink:href="#DejaVuSans-34"/>
      </g>
     </g>
    </g>
    <g id="text_17">
     <!-- E*t -->
     <g transform="translate(29.778125 182.147531) rotate(-90) scale(0.1 -0.1)">
      <defs>
       <path id="DejaVuSans-45" d="M 628 4666 
L 3578 4666 
L 3578 4134 
L 1259 4134 
L 1259 2753 
L 3481 2753 
L 3481 2222 
L 1259 2222 
L 1259 531 
L 3634 531 
L 3634 0 
L 628 0 
L 628 4666 
z
" transform="scale(0.015625)"/>
       <path id="DejaVuSans-2a" d="M 3009 3897 
L 1888 3291 
L 3009 2681 
L 2828 2375 
L 1778 3009 
L 1778 1831 
L 1422 1831 
L 1422 3009 
L 372 2375 
L 191 2681 
L 1313 3291 
L 191 3897 
L 372 4206 
L 1422 3572 
L 1422 4750 
L 1778 4750 
L 1778 3572 
L 2828 4206 
L 3009 3897 
z
" transform="scale(0.015625)"/>
       <path id="DejaVuSans-74" d="M 1172 4494 
L 1172 3500 
L 2356 3500 
L 2356 3053 
L 1172 3053 
L 1172 1153 
Q 1172 725 1289 603 
Q 1406 481 1766 481 
L 2356 481 
L 2356 0 
L 1766 0 
Q 1100 0 847 248 
Q 594 497 594 1153 
L 594 3053 
L 172 3053 
L 172 3500 
L 594 3500 
L 594 4494 
L 1172 4494 
z
" transform="scale(0.015625)"/>
      </defs>
      <use xlink:href="#DejaVuSans-45"/>
      <use xlink:href="#DejaVuSans-2a" x="63.183594"/>
      <use xlink:href="#DejaVuSans-74" x="113.183594"/>
     </g>
    </g>
   </g>
   <g id="line2d_16">
    <path d="M 73.832727 295.070679 
L 74.467438 293.630483 
L 74.784793 293.592828 
L 75.73686 292.773031 
L 76.054215 292.760784 
L 76.37157 292.157477 
L 76.688926 292.036841 
L 77.323636 290.176188 
L 77.640992 289.890401 
L 77.958347 289.164071 
L 78.275702 288.963031 
L 78.910413 287.410595 
L 80.179835 286.116494 
L 80.49719 284.950178 
L 80.814545 284.672149 
L 81.131901 284.667557 
L 82.083967 282.879335 
L 82.718678 282.039247 
L 83.036033 281.140684 
L 83.670744 280.64938 
L 84.305455 279.335629 
L 84.940165 279.206885 
L 85.257521 278.550974 
L 85.574876 278.298469 
L 85.892231 277.254897 
L 86.526942 277.0828 
L 86.844298 276.973974 
L 87.479008 274.616785 
L 88.431074 274.118675 
L 88.74843 272.876755 
L 89.065785 272.798221 
L 89.700496 272.460972 
L 90.335207 272.214805 
L 90.652562 271.196021 
L 90.969917 270.772355 
L 91.287273 270.549828 
L 91.604628 270.121099 
L 91.921983 269.903559 
L 92.239339 269.504678 
L 92.556694 269.320544 
L 92.87405 268.993974 
L 93.191405 268.439237 
L 93.50876 268.289347 
L 93.826116 268.267327 
L 94.460826 266.600951 
L 94.778182 265.941653 
L 95.095537 265.843434 
L 95.412893 265.365572 
L 95.730248 265.339696 
L 96.047603 264.84856 
L 96.999669 264.127224 
L 97.317025 263.24899 
L 97.63438 263.229882 
L 98.269091 262.822508 
L 98.586446 262.4445 
L 98.903802 262.318716 
L 99.538512 261.361147 
L 99.855868 261.326252 
L 100.173223 261.158877 
L 100.490579 260.548661 
L 100.807934 260.50008 
L 101.125289 260.203139 
L 101.442645 259.365876 
L 102.712066 258.588009 
L 103.346777 257.710194 
L 103.664132 257.342283 
L 104.616198 256.821145 
L 105.568264 255.956132 
L 106.202975 255.436553 
L 106.520331 254.840889 
L 106.837686 254.822243 
L 107.789752 254.085362 
L 108.741818 252.751585 
L 109.376529 252.64141 
L 109.693884 252.235932 
L 110.328595 251.147029 
L 110.64595 251.033137 
L 110.963306 250.752995 
L 111.598017 250.454531 
L 112.232727 250.0437 
L 112.550083 249.916514 
L 113.502149 248.817676 
L 114.13686 248.70096 
L 114.454215 248.519216 
L 114.77157 248.187339 
L 115.406281 248.080558 
L 115.723636 247.919563 
L 116.040992 247.564306 
L 116.358347 247.485954 
L 116.675702 247.002787 
L 117.945124 245.997674 
L 118.262479 245.87454 
L 118.579835 245.419545 
L 119.849256 244.49461 
L 120.166612 244.089988 
L 120.801322 243.684138 
L 121.118678 243.333083 
L 122.070744 242.882035 
L 122.388099 242.080749 
L 123.340165 241.395714 
L 123.657521 240.981563 
L 123.974876 240.754973 
L 124.292231 240.665099 
L 124.609587 240.446727 
L 125.879008 240.154814 
L 126.196364 239.809492 
L 126.513719 239.686924 
L 126.831074 239.217807 
L 127.78314 238.801625 
L 128.417851 237.989594 
L 129.052562 237.821084 
L 129.369917 237.553783 
L 129.687273 237.443071 
L 130.004628 237.14241 
L 130.321983 236.553838 
L 131.591405 235.934977 
L 133.495537 234.968422 
L 134.447603 234.567562 
L 136.03438 232.950162 
L 136.351736 232.88523 
L 136.669091 232.353434 
L 137.303802 231.877409 
L 137.621157 231.844757 
L 138.255868 231.581298 
L 138.890579 231.34766 
L 139.525289 231.023194 
L 139.842645 230.636422 
L 140.794711 230.333057 
L 141.746777 230.04923 
L 143.333554 229.086734 
L 143.968264 228.087786 
L 146.189752 226.800753 
L 146.824463 225.533494 
L 147.459174 225.362207 
L 148.41124 224.835759 
L 149.363306 224.180616 
L 150.315372 223.879131 
L 151.267438 223.316246 
L 151.902149 223.165247 
L 152.219504 222.747975 
L 153.17157 222.523546 
L 154.758347 221.846389 
L 155.393058 221.071891 
L 155.710413 221.033061 
L 156.662479 220.375258 
L 157.29719 220.159535 
L 157.614545 219.738696 
L 157.931901 219.701697 
L 158.249256 219.320336 
L 159.201322 219.041032 
L 159.836033 218.539836 
L 160.153388 218.162583 
L 160.470744 218.03874 
L 161.105455 217.512671 
L 163.326942 216.42357 
L 163.644298 216.052703 
L 164.596364 215.721229 
L 164.913719 215.676646 
L 165.54843 215.257294 
L 166.18314 215.015398 
L 166.817851 214.681715 
L 167.135207 214.655815 
L 167.452562 214.420688 
L 168.087273 214.277163 
L 168.721983 213.938847 
L 169.039339 213.528587 
L 169.991405 213.018082 
L 170.30876 212.960893 
L 170.626116 212.736369 
L 171.260826 212.61586 
L 171.578182 212.262796 
L 173.799669 211.544527 
L 174.117025 211.475823 
L 174.43438 210.874796 
L 175.069091 210.540094 
L 175.703802 210.050144 
L 176.338512 209.932411 
L 176.655868 209.59711 
L 178.877355 208.410811 
L 179.512066 207.740805 
L 180.781488 207.418702 
L 181.098843 207.075358 
L 182.368264 206.825232 
L 183.320331 206.375519 
L 183.637686 205.777482 
L 184.589752 205.452341 
L 184.907107 205.259619 
L 185.224463 204.883468 
L 185.541818 204.733003 
L 185.859174 204.327981 
L 186.81124 204.126144 
L 187.763306 203.679914 
L 188.398017 203.513305 
L 189.984793 202.705919 
L 191.57157 202.284648 
L 192.206281 202.052259 
L 192.523636 201.736848 
L 192.840992 201.261958 
L 200.140165 197.76026 
L 200.774876 197.111897 
L 201.092231 197.071218 
L 201.726942 196.780023 
L 202.361653 196.711105 
L 203.631074 195.87822 
L 204.265785 195.838077 
L 205.217851 195.188032 
L 205.535207 195.158995 
L 207.121983 194.524851 
L 207.756694 194.315774 
L 208.391405 193.598924 
L 210.612893 192.883655 
L 211.247603 192.447607 
L 211.882314 192.280529 
L 212.199669 191.999466 
L 212.83438 191.859917 
L 213.469091 191.589615 
L 213.786446 191.515164 
L 214.103802 191.102117 
L 214.421157 191.043567 
L 215.373223 190.411182 
L 215.690579 190.308864 
L 216.007934 190.045964 
L 216.96 189.896984 
L 218.546777 189.223562 
L 218.864132 188.845532 
L 219.181488 188.764385 
L 219.498843 188.568389 
L 221.08562 188.200897 
L 221.720331 187.915184 
L 222.037686 187.634927 
L 222.989752 187.342227 
L 223.624463 187.151452 
L 224.259174 187.050041 
L 225.84595 186.338837 
L 228.384793 185.368795 
L 229.654215 184.590184 
L 231.558347 184.000138 
L 232.193058 183.72518 
L 232.510413 183.319079 
L 232.827769 182.689026 
L 234.09719 182.192711 
L 235.366612 181.597103 
L 235.683967 181.542707 
L 236.001322 181.285561 
L 237.905455 180.711875 
L 238.857521 180.3969 
L 239.174876 180.371276 
L 239.492231 179.918975 
L 242.665785 178.857649 
L 242.98314 178.648002 
L 243.300496 178.608136 
L 243.617851 178.211628 
L 243.935207 178.189455 
L 244.252562 177.813134 
L 245.839339 177.054923 
L 246.47405 176.600775 
L 246.791405 176.556303 
L 247.10876 176.347871 
L 247.426116 176.32075 
L 247.743471 175.809864 
L 248.378182 175.480447 
L 249.012893 175.261417 
L 249.964959 174.807781 
L 250.282314 174.512809 
L 251.23438 174.233738 
L 251.551736 173.83706 
L 252.821157 173.327747 
L 253.138512 172.971197 
L 253.455868 172.938442 
L 253.773223 172.619111 
L 254.407934 172.480311 
L 255.042645 172.275127 
L 255.677355 171.757814 
L 255.994711 171.698865 
L 256.312066 171.518107 
L 257.581488 171.219084 
L 257.898843 170.8905 
L 258.533554 170.733658 
L 258.850909 170.604468 
L 259.168264 170.353804 
L 259.802975 170.235668 
L 260.120331 169.886763 
L 260.755041 169.737666 
L 261.389752 169.499456 
L 262.659174 168.591088 
L 262.976529 168.53023 
L 263.61124 168.171355 
L 264.24595 167.951526 
L 264.563306 167.542967 
L 264.880661 167.454546 
L 265.198017 167.111762 
L 267.102149 166.489834 
L 267.419504 165.977021 
L 268.688926 165.417188 
L 269.006281 165.385811 
L 270.275702 164.691119 
L 271.545124 164.196003 
L 272.814545 163.272886 
L 273.131901 163.246157 
L 273.449256 162.942919 
L 274.718678 162.526881 
L 275.036033 162.261367 
L 275.353388 162.189355 
L 276.305455 161.56834 
L 276.62281 161.524753 
L 278.526942 160.598806 
L 278.844298 160.44374 
L 279.161653 160.00563 
L 280.431074 159.615031 
L 280.74843 159.350642 
L 281.700496 159.174785 
L 282.017851 158.977089 
L 282.652562 158.350618 
L 284.556694 157.705323 
L 285.191405 157.620456 
L 285.50876 157.303145 
L 285.826116 157.286398 
L 286.143471 156.966577 
L 287.412893 156.532637 
L 288.047603 156.230527 
L 288.682314 156.035613 
L 289.317025 155.394784 
L 291.221157 154.490005 
L 291.538512 154.039405 
L 292.490579 153.713894 
L 293.76 153.178478 
L 294.077355 152.889734 
L 294.712066 152.670547 
L 295.346777 152.18532 
L 295.664132 151.824632 
L 296.933554 151.465562 
L 297.250909 151.235808 
L 297.88562 151.084978 
L 299.155041 150.424314 
L 299.472397 150.184353 
L 300.424463 149.949332 
L 301.376529 149.242516 
L 301.693884 149.214777 
L 302.01124 148.936069 
L 302.64595 148.716816 
L 302.963306 148.022306 
L 305.819504 147.026049 
L 308.675702 145.09644 
L 308.993058 144.85807 
L 309.310413 144.766663 
L 309.627769 144.382393 
L 310.262479 144.265605 
L 310.579835 144.164619 
L 311.214545 143.782344 
L 312.166612 143.390295 
L 312.483967 143.100609 
L 313.118678 142.87913 
L 313.753388 142.518702 
L 314.388099 142.294034 
L 315.02281 141.571428 
L 315.340165 141.167149 
L 316.926942 140.613046 
L 318.513719 139.744667 
L 318.831074 139.73255 
L 319.14843 139.487083 
L 319.78314 139.294731 
L 320.100496 138.656133 
L 321.052562 138.179504 
L 321.369917 137.883216 
L 321.687273 137.833667 
L 322.321983 137.474303 
L 322.956694 136.842615 
L 323.27405 136.77571 
L 324.860826 135.672993 
L 325.812893 135.379747 
L 326.447603 134.995285 
L 326.764959 134.811576 
L 327.082314 134.465709 
L 327.399669 134.399288 
L 328.351736 133.669278 
L 328.669091 133.555524 
L 329.621157 132.872377 
L 329.938512 132.808902 
L 330.573223 132.486704 
L 330.890579 132.414005 
L 331.207934 132.093905 
L 331.525289 131.510725 
L 331.842645 131.478485 
L 332.16 130.832246 
L 332.477355 130.57695 
L 332.794711 130.085584 
L 333.112066 130.019536 
L 333.429421 129.748529 
L 334.064132 129.519907 
L 334.698843 129.233854 
L 335.333554 129.049395 
L 335.650909 128.667382 
L 336.602975 128.227843 
L 336.920331 128.15378 
L 337.555041 127.187401 
L 338.507107 126.789993 
L 338.824463 126.46805 
L 339.141818 126.387231 
L 339.776529 125.813434 
L 341.04595 125.246427 
L 341.363306 124.759978 
L 341.680661 124.735996 
L 341.998017 124.064336 
L 342.315372 124.01207 
L 342.632727 123.271771 
L 343.902149 122.354476 
L 344.53686 122.18777 
L 345.17157 121.560616 
L 346.123636 121.359212 
L 346.440992 120.837031 
L 346.758347 120.819843 
L 347.710413 119.712118 
L 348.027769 119.620482 
L 349.29719 118.791226 
L 349.931901 118.451362 
L 350.249256 118.104868 
L 350.566612 117.998147 
L 351.201322 116.782678 
L 351.518678 116.467273 
L 351.836033 115.595511 
L 353.105455 115.086645 
L 353.42281 114.769303 
L 353.740165 114.708692 
L 354.692231 112.893682 
L 355.961653 112.282071 
L 356.596364 111.877329 
L 356.913719 111.869193 
L 357.54843 111.536271 
L 357.865785 110.977184 
L 358.18314 110.778298 
L 358.500496 110.4372 
L 358.817851 110.404086 
L 359.135207 110.139077 
L 359.452562 109.51466 
L 359.769917 109.389208 
L 360.087273 108.740221 
L 360.404628 108.371181 
L 360.721983 108.257058 
L 361.039339 107.984978 
L 361.991405 107.635161 
L 362.30876 107.036347 
L 363.260826 106.394293 
L 363.578182 105.96166 
L 364.847603 105.386179 
L 365.164959 104.991716 
L 365.482314 104.843563 
L 365.799669 102.64534 
L 366.117025 102.605255 
L 366.751736 101.366647 
L 367.069091 101.016664 
L 367.703802 100.831551 
L 368.021157 100.104185 
L 369.290579 99.429215 
L 369.607934 99.313028 
L 370.56 97.611386 
L 370.877355 97.340156 
L 371.512066 96.348474 
L 371.829421 95.338969 
L 372.464132 95.0188 
L 372.781488 94.448426 
L 373.416198 94.247374 
L 373.733554 93.878827 
L 374.050909 93.832958 
L 374.368264 92.977655 
L 374.68562 92.914457 
L 375.002975 92.638972 
L 375.320331 92.183147 
L 376.589752 91.304362 
L 377.224463 90.096174 
L 377.859174 87.823832 
L 378.81124 87.218243 
L 379.128595 86.59064 
L 380.080661 85.632762 
L 380.398017 85.37429 
L 381.032727 84.453625 
L 381.350083 84.073035 
L 381.667438 83.20205 
L 381.984793 82.932085 
L 382.302149 82.441208 
L 382.619504 82.312634 
L 382.93686 80.142979 
L 383.254215 79.699022 
L 383.888926 79.601821 
L 384.206281 79.343276 
L 384.523636 78.902885 
L 384.840992 77.688039 
L 385.475702 77.248116 
L 385.793058 76.776246 
L 386.427769 76.433115 
L 386.745124 75.109664 
L 387.062479 74.400897 
L 387.379835 73.108113 
L 387.69719 72.515347 
L 388.014545 72.478305 
L 388.331901 72.219922 
L 388.649256 70.90502 
L 389.601322 70.015648 
L 389.918678 68.117279 
L 390.236033 67.897662 
L 390.553388 67.864468 
L 390.870744 67.52937 
L 391.188099 66.403981 
L 391.82281 65.43211 
L 392.140165 64.241328 
L 392.457521 64.23833 
L 392.774876 64.022373 
L 393.092231 63.506774 
L 393.409587 62.573466 
L 393.726942 62.197206 
L 394.044298 60.626685 
L 394.679008 60.345003 
L 394.996364 59.765064 
L 395.313719 59.736007 
L 395.631074 58.062164 
L 395.94843 57.839252 
L 396.265785 57.262206 
L 396.58314 56.972676 
L 396.900496 56.132866 
L 397.217851 55.829186 
L 397.535207 55.744764 
L 397.852562 55.251922 
L 398.487273 53.568 
L 398.487273 53.568 
" clip-path="url(#p1572883a76)" style="fill: none; stroke: #1f77b4; stroke-width: 1.5; stroke-linecap: square"/>
   </g>
   <g id="line2d_17">
    <path d="M 73.832727 295.488 
L 74.467438 295.488 
L 74.784793 293.883202 
L 75.102149 289.58861 
L 75.419504 279.629623 
L 75.73686 279.01861 
L 76.054215 279.01861 
L 76.37157 278.116165 
L 76.688926 278.116165 
L 77.006281 277.47763 
L 78.593058 277.47763 
L 78.910413 271.85918 
L 79.227769 271.85918 
L 79.545124 269.82532 
L 79.862479 268.568771 
L 80.179835 268.568771 
L 80.49719 262.355982 
L 80.814545 259.670792 
L 81.131901 259.431573 
L 82.083967 259.38129 
L 82.401322 257.650494 
L 86.844298 257.552225 
L 87.161653 256.604532 
L 87.479008 252.102575 
L 87.796364 251.107358 
L 88.113719 249.548829 
L 89.700496 249.548829 
L 90.017851 247.557491 
L 90.652562 247.557491 
L 90.969917 245.244255 
L 91.287273 245.244255 
L 91.604628 244.039241 
L 91.921983 240.939757 
L 99.221157 240.939757 
L 99.538512 239.092881 
L 99.855868 239.092881 
L 100.173223 238.656015 
L 101.76 238.656015 
L 102.077355 236.741676 
L 103.664132 236.741676 
L 103.981488 236.309872 
L 104.298843 235.563445 
L 104.933554 235.563445 
L 105.250909 232.938188 
L 105.568264 232.938188 
L 105.88562 232.805881 
L 106.202975 232.805881 
L 106.520331 226.881106 
L 107.155041 226.295697 
L 107.472397 226.295697 
L 107.789752 224.931392 
L 109.376529 224.931392 
L 109.693884 221.937193 
L 110.01124 221.937193 
L 110.328595 218.629543 
L 129.369917 218.629406 
L 129.687273 216.749782 
L 130.004628 215.666202 
L 130.321983 214.981977 
L 130.956694 214.981977 
L 131.27405 214.869269 
L 131.591405 213.33165 
L 131.90876 213.33165 
L 132.226116 212.980356 
L 132.860826 212.980356 
L 133.178182 210.020334 
L 133.495537 210.020334 
L 133.812893 209.400508 
L 135.399669 209.400508 
L 135.717025 206.876259 
L 136.03438 206.535878 
L 136.351736 205.965949 
L 136.669091 205.822253 
L 163.009587 205.822253 
L 163.326942 203.202406 
L 167.135207 203.202406 
L 167.452562 202.723616 
L 167.769917 202.723616 
L 168.087273 199.481216 
L 168.404628 199.481216 
L 168.721983 198.615759 
L 169.356694 198.615759 
L 169.67405 198.057266 
L 169.991405 196.719576 
L 171.578182 196.719576 
L 172.212893 195.776409 
L 172.530248 195.776409 
L 172.847603 195.376274 
L 180.146777 195.376274 
L 180.464132 194.687539 
L 180.781488 194.687539 
L 181.098843 194.011969 
L 182.68562 194.011969 
L 183.320331 187.709983 
L 185.541818 187.653925 
L 185.859174 187.287779 
L 186.493884 187.287779 
L 186.81124 186.734725 
L 187.128595 185.348809 
L 187.44595 185.348809 
L 187.763306 184.410143 
L 188.080661 184.410143 
L 188.398017 180.491459 
L 188.715372 174.90283 
L 283.604628 174.90283 
L 284.239339 165.395517 
L 284.556694 165.395517 
L 284.87405 164.456851 
L 285.191405 164.456851 
L 285.50876 163.070935 
L 285.826116 162.517881 
L 286.460826 162.517881 
L 286.778182 162.151736 
L 288.999669 162.095677 
L 289.63438 155.793691 
L 291.221157 155.793691 
L 291.538512 155.118121 
L 291.855868 155.118121 
L 292.173223 154.429387 
L 299.472397 154.429387 
L 299.789752 154.029251 
L 300.107107 154.029251 
L 300.741818 153.086085 
L 302.328595 153.086085 
L 302.64595 151.748395 
L 302.963306 151.189901 
L 303.598017 151.189901 
L 303.915372 150.324445 
L 304.232727 150.324445 
L 304.550083 147.082044 
L 304.867438 147.082044 
L 305.184793 146.603254 
L 308.993058 146.603254 
L 309.310413 143.983407 
L 335.650909 143.983407 
L 335.968264 143.839711 
L 336.28562 143.269783 
L 336.602975 142.929402 
L 336.920331 140.405152 
L 338.507107 140.405152 
L 338.824463 139.785326 
L 339.141818 139.785326 
L 339.459174 136.825305 
L 340.093884 136.825305 
L 340.41124 136.474011 
L 340.728595 136.474011 
L 341.04595 134.936391 
L 341.680661 134.823683 
L 341.998017 134.823683 
L 342.315372 134.139459 
L 342.632727 133.055879 
L 342.950083 131.176254 
L 361.991405 131.176118 
L 362.30876 127.868467 
L 362.626116 127.868467 
L 362.943471 124.874268 
L 364.530248 124.874268 
L 364.847603 123.509964 
L 365.164959 123.509964 
L 365.799669 122.924554 
L 366.117025 116.99978 
L 366.43438 116.99978 
L 366.751736 116.867473 
L 367.069091 116.867473 
L 367.386446 114.242216 
L 368.021157 114.242216 
L 368.338512 113.495789 
L 368.655868 113.063985 
L 370.242645 113.063985 
L 370.56 111.149646 
L 372.146777 111.149646 
L 372.464132 110.71278 
L 372.781488 110.71278 
L 373.098843 108.865903 
L 380.398017 108.865903 
L 380.715372 105.76642 
L 381.032727 104.561406 
L 381.350083 104.561406 
L 381.667438 102.24817 
L 382.302149 102.24817 
L 382.619504 100.256831 
L 384.206281 100.256831 
L 384.523636 98.698303 
L 384.840992 97.703085 
L 385.158347 93.201129 
L 385.475702 92.253435 
L 389.918678 92.155167 
L 390.236033 90.424371 
L 391.505455 90.134869 
L 391.82281 87.449678 
L 392.140165 81.236889 
L 392.457521 81.236889 
L 392.774876 79.980341 
L 393.092231 77.946481 
L 393.409587 77.946481 
L 393.726942 72.32803 
L 395.313719 72.32803 
L 395.631074 71.689495 
L 395.94843 71.689495 
L 396.265785 70.78705 
L 396.58314 70.78705 
L 396.900496 70.176037 
L 397.217851 60.21705 
L 397.535207 55.922458 
L 397.852562 54.317661 
L 398.487273 54.317661 
L 398.487273 54.317661 
" clip-path="url(#p1572883a76)" style="fill: none; stroke: #ff7f0e; stroke-width: 1.5; stroke-linecap: square"/>
   </g>
   <g id="patch_3">
    <path d="M 57.6 307.584 
L 57.6 41.472 
" style="fill: none; stroke: #000000; stroke-width: 0.8; stroke-linejoin: miter; stroke-linecap: square"/>
   </g>
   <g id="patch_4">
    <path d="M 414.72 307.584 
L 414.72 41.472 
" style="fill: none; stroke: #000000; stroke-width: 0.8; stroke-linejoin: miter; stroke-linecap: square"/>
   </g>
   <g id="patch_5">
    <path d="M 57.6 307.584 
L 414.72 307.584 
" style="fill: none; stroke: #000000; stroke-width: 0.8; stroke-linejoin: miter; stroke-linecap: square"/>
   </g>
   <g id="patch_6">
    <path d="M 57.6 41.472 
L 414.72 41.472 
" style="fill: none; stroke: #000000; stroke-width: 0.8; stroke-linejoin: miter; stroke-linecap: square"/>
   </g>
   <g id="legend_1">
    <g id="patch_7">
     <path d="M 64.6 78.82825 
L 129.342187 78.82825 
Q 131.342187 78.82825 131.342187 76.82825 
L 131.342187 48.472 
Q 131.342187 46.472 129.342187 46.472 
L 64.6 46.472 
Q 62.6 46.472 62.6 48.472 
L 62.6 76.82825 
Q 62.6 78.82825 64.6 78.82825 
z
" style="fill: #ffffff; opacity: 0.8; stroke: #cccccc; stroke-linejoin: miter"/>
    </g>
    <g id="line2d_18">
     <path d="M 66.6 54.570437 
L 76.6 54.570437 
L 86.6 54.570437 
" style="fill: none; stroke: #1f77b4; stroke-width: 1.5; stroke-linecap: square"/>
    </g>
    <g id="text_18">
     <!-- qc -->
     <g transform="translate(94.6 58.070437) scale(0.1 -0.1)">
      <defs>
       <path id="DejaVuSans-71" d="M 947 1747 
Q 947 1113 1208 752 
Q 1469 391 1925 391 
Q 2381 391 2643 752 
Q 2906 1113 2906 1747 
Q 2906 2381 2643 2742 
Q 2381 3103 1925 3103 
Q 1469 3103 1208 2742 
Q 947 2381 947 1747 
z
M 2906 525 
Q 2725 213 2448 61 
Q 2172 -91 1784 -91 
Q 1150 -91 751 415 
Q 353 922 353 1747 
Q 353 2572 751 3078 
Q 1150 3584 1784 3584 
Q 2172 3584 2448 3432 
Q 2725 3281 2906 2969 
L 2906 3500 
L 3481 3500 
L 3481 -1331 
L 2906 -1331 
L 2906 525 
z
" transform="scale(0.015625)"/>
       <path id="DejaVuSans-63" d="M 3122 3366 
L 3122 2828 
Q 2878 2963 2633 3030 
Q 2388 3097 2138 3097 
Q 1578 3097 1268 2742 
Q 959 2388 959 1747 
Q 959 1106 1268 751 
Q 1578 397 2138 397 
Q 2388 397 2633 464 
Q 2878 531 3122 666 
L 3122 134 
Q 2881 22 2623 -34 
Q 2366 -91 2075 -91 
Q 1284 -91 818 406 
Q 353 903 353 1747 
Q 353 2603 823 3093 
Q 1294 3584 2113 3584 
Q 2378 3584 2631 3529 
Q 2884 3475 3122 3366 
z
" transform="scale(0.015625)"/>
      </defs>
      <use xlink:href="#DejaVuSans-71"/>
      <use xlink:href="#DejaVuSans-63" x="63.476562"/>
     </g>
    </g>
    <g id="line2d_19">
     <path d="M 66.6 69.248562 
L 76.6 69.248562 
L 86.6 69.248562 
" style="fill: none; stroke: #ff7f0e; stroke-width: 1.5; stroke-linecap: square"/>
    </g>
    <g id="text_19">
     <!-- Trotter -->
     <g transform="translate(94.6 72.748562) scale(0.1 -0.1)">
      <defs>
       <path id="DejaVuSans-54" d="M -19 4666 
L 3928 4666 
L 3928 4134 
L 2272 4134 
L 2272 0 
L 1638 0 
L 1638 4134 
L -19 4134 
L -19 4666 
z
" transform="scale(0.015625)"/>
       <path id="DejaVuSans-72" d="M 2631 2963 
Q 2534 3019 2420 3045 
Q 2306 3072 2169 3072 
Q 1681 3072 1420 2755 
Q 1159 2438 1159 1844 
L 1159 0 
L 581 0 
L 581 3500 
L 1159 3500 
L 1159 2956 
Q 1341 3275 1631 3429 
Q 1922 3584 2338 3584 
Q 2397 3584 2469 3576 
Q 2541 3569 2628 3553 
L 2631 2963 
z
" transform="scale(0.015625)"/>
       <path id="DejaVuSans-6f" d="M 1959 3097 
Q 1497 3097 1228 2736 
Q 959 2375 959 1747 
Q 959 1119 1226 758 
Q 1494 397 1959 397 
Q 2419 397 2687 759 
Q 2956 1122 2956 1747 
Q 2956 2369 2687 2733 
Q 2419 3097 1959 3097 
z
M 1959 3584 
Q 2709 3584 3137 3096 
Q 3566 2609 3566 1747 
Q 3566 888 3137 398 
Q 2709 -91 1959 -91 
Q 1206 -91 779 398 
Q 353 888 353 1747 
Q 353 2609 779 3096 
Q 1206 3584 1959 3584 
z
" transform="scale(0.015625)"/>
       <path id="DejaVuSans-65" d="M 3597 1894 
L 3597 1613 
L 953 1613 
Q 991 1019 1311 708 
Q 1631 397 2203 397 
Q 2534 397 2845 478 
Q 3156 559 3463 722 
L 3463 178 
Q 3153 47 2828 -22 
Q 2503 -91 2169 -91 
Q 1331 -91 842 396 
Q 353 884 353 1716 
Q 353 2575 817 3079 
Q 1281 3584 2069 3584 
Q 2775 3584 3186 3129 
Q 3597 2675 3597 1894 
z
M 3022 2063 
Q 3016 2534 2758 2815 
Q 2500 3097 2075 3097 
Q 1594 3097 1305 2825 
Q 1016 2553 972 2059 
L 3022 2063 
z
" transform="scale(0.015625)"/>
      </defs>
      <use xlink:href="#DejaVuSans-54"/>
      <use xlink:href="#DejaVuSans-72" x="46.333984"/>
      <use xlink:href="#DejaVuSans-6f" x="85.197266"/>
      <use xlink:href="#DejaVuSans-74" x="146.378906"/>
      <use xlink:href="#DejaVuSans-74" x="185.587891"/>
      <use xlink:href="#DejaVuSans-65" x="224.796875"/>
      <use xlink:href="#DejaVuSans-72" x="286.320312"/>
     </g>
    </g>
   </g>
  </g>
 </g>
 <defs>
  <clipPath id="p1572883a76">
   <rect x="57.6" y="41.472" width="357.12" height="266.112"/>
  </clipPath>
 </defs>
</svg>
