<?xml version="1.0" encoding="utf-8" standalone="no"?>
<!DOCTYPE svg PUBLIC "-//W3C//DTD SVG 1.1//EN"
  "http://www.w3.org/Graphics/SVG/1.1/DTD/svg11.dtd">
<svg xmlns:xlink="http://www.w3.org/1999/xlink" width="460.8pt" height="345.6pt" viewBox="0 0 460.8 345.6" xmlns="http://www.w3.org/2000/svg" version="1.1">
 <metadata>
  <rdf:RDF xmlns:dc="http://purl.org/dc/elements/1.1/" xmlns:cc="http://creativecommons.org/ns#" xmlns:rdf="http://www.w3.org/1999/02/22-rdf-syntax-ns#">
   <cc:Work>
    <dc:type rdf:resource="http://purl.org/dc/dcmitype/StillImage"/>
    <dc:date>2024-07-14T13:50:44.979449</dc:date>
    <dc:format>image/svg+xml</dc:format>
    <dc:creator>
     <cc:Agent>
      <dc:title>Matplotlib v3.7.1, https://matplotlib.org/</dc:title>
     </cc:Agent>
    </dc:creator>
   </cc:Work>
  </rdf:RDF>
 </metadata>
 <defs>
  <style type="text/css">*{stroke-linejoin: round; stroke-linecap: butt}</style>
 </defs>
 <g id="figure_1">
  <g id="patch_1">
   <path d="M 0 345.6 
L 460.8 345.6 
L 460.8 0 
L 0 0 
z
" style="fill: #ffffff"/>
  </g>
  <g id="patch_2">
   <path d="M 103.104 307.584 
L 369.216 307.584 
L 369.216 41.472 
L 103.104 41.472 
z
" style="fill: #ffffff"/>
  </g>
  <g id="pane3d_1">
   <g id="patch_3">
    <path d="M 123.197291 241.969309 
L 211.076164 168.307495 
L 209.854564 62.073991 
L 117.770234 129.272941 
" style="fill: #f2f2f2; opacity: 0.5; stroke: #f2f2f2; stroke-linejoin: miter"/>
   </g>
  </g>
  <g id="pane3d_2">
   <g id="patch_4">
    <path d="M 211.076164 168.307495 
L 352.090401 209.294766 
L 357.122702 99.402171 
L 209.854564 62.073991 
" style="fill: #e6e6e6; opacity: 0.5; stroke: #e6e6e6; stroke-linejoin: miter"/>
   </g>
  </g>
  <g id="pane3d_3">
   <g id="patch_5">
    <path d="M 123.197291 241.969309 
L 272.679269 290.790123 
L 352.090401 209.294766 
L 211.076164 168.307495 
" style="fill: #ececec; opacity: 0.5; stroke: #ececec; stroke-linejoin: miter"/>
   </g>
  </g>
  <g id="axis3d_1">
   <g id="line2d_1">
    <path d="M 123.197291 241.969309 
L 272.679269 290.790123 
" style="fill: none; stroke: #000000; stroke-width: 0.8; stroke-linecap: square"/>
   </g>
   <g id="text_1">
    <!-- Sx -->
    <g transform="translate(173.542834 303.76759) scale(0.1 -0.1)">
     <defs>
      <path id="DejaVuSans-53" d="M 3425 4513 
L 3425 3897 
Q 3066 4069 2747 4153 
Q 2428 4238 2131 4238 
Q 1616 4238 1336 4038 
Q 1056 3838 1056 3469 
Q 1056 3159 1242 3001 
Q 1428 2844 1947 2747 
L 2328 2669 
Q 3034 2534 3370 2195 
Q 3706 1856 3706 1288 
Q 3706 609 3251 259 
Q 2797 -91 1919 -91 
Q 1588 -91 1214 -16 
Q 841 59 441 206 
L 441 856 
Q 825 641 1194 531 
Q 1563 422 1919 422 
Q 2459 422 2753 634 
Q 3047 847 3047 1241 
Q 3047 1584 2836 1778 
Q 2625 1972 2144 2069 
L 1759 2144 
Q 1053 2284 737 2584 
Q 422 2884 422 3419 
Q 422 4038 858 4394 
Q 1294 4750 2059 4750 
Q 2388 4750 2728 4690 
Q 3069 4631 3425 4513 
z
" transform="scale(0.015625)"/>
      <path id="DejaVuSans-78" d="M 3513 3500 
L 2247 1797 
L 3578 0 
L 2900 0 
L 1881 1375 
L 863 0 
L 184 0 
L 1544 1831 
L 300 3500 
L 978 3500 
L 1906 2253 
L 2834 3500 
L 3513 3500 
z
" transform="scale(0.015625)"/>
     </defs>
     <use xlink:href="#DejaVuSans-53"/>
     <use xlink:href="#DejaVuSans-78" x="63.476562"/>
    </g>
   </g>
   <g id="Line3DCollection_1">
    <path d="M 140.891234 247.748151 
L 227.832875 173.178009 
L 227.321898 66.501451 
" style="fill: none; stroke: #b0b0b0; stroke-width: 0.8"/>
    <path d="M 170.739551 257.496611 
L 256.060429 181.382645 
L 256.766342 73.964759 
" style="fill: none; stroke: #b0b0b0; stroke-width: 0.8"/>
    <path d="M 201.236242 267.45683 
L 284.849752 189.750564 
L 286.822408 81.583096 
" style="fill: none; stroke: #b0b0b0; stroke-width: 0.8"/>
    <path d="M 232.402666 277.635784 
L 314.217782 198.286691 
L 317.509352 89.361341 
" style="fill: none; stroke: #b0b0b0; stroke-width: 0.8"/>
    <path d="M 264.261128 288.040758 
L 344.182146 206.996149 
L 348.847248 97.304585 
" style="fill: none; stroke: #b0b0b0; stroke-width: 0.8"/>
   </g>
   <g id="xtick_1">
    <g id="line2d_2">
     <path d="M 141.648509 247.098633 
L 139.373424 249.049981 
" style="fill: none; stroke: #000000; stroke-width: 0.8; stroke-linecap: square"/>
    </g>
    <g id="text_2">
     <!-- 0.1 -->
     <g transform="translate(125.419263 271.117023) scale(0.1 -0.1)">
      <defs>
       <path id="DejaVuSans-30" d="M 2034 4250 
Q 1547 4250 1301 3770 
Q 1056 3291 1056 2328 
Q 1056 1369 1301 889 
Q 1547 409 2034 409 
Q 2525 409 2770 889 
Q 3016 1369 3016 2328 
Q 3016 3291 2770 3770 
Q 2525 4250 2034 4250 
z
M 2034 4750 
Q 2819 4750 3233 4129 
Q 3647 3509 3647 2328 
Q 3647 1150 3233 529 
Q 2819 -91 2034 -91 
Q 1250 -91 836 529 
Q 422 1150 422 2328 
Q 422 3509 836 4129 
Q 1250 4750 2034 4750 
z
" transform="scale(0.015625)"/>
       <path id="DejaVuSans-2e" d="M 684 794 
L 1344 794 
L 1344 0 
L 684 0 
L 684 794 
z
" transform="scale(0.015625)"/>
       <path id="DejaVuSans-31" d="M 794 531 
L 1825 531 
L 1825 4091 
L 703 3866 
L 703 4441 
L 1819 4666 
L 2450 4666 
L 2450 531 
L 3481 531 
L 3481 0 
L 794 0 
L 794 531 
z
" transform="scale(0.015625)"/>
      </defs>
      <use xlink:href="#DejaVuSans-30"/>
      <use xlink:href="#DejaVuSans-2e" x="63.623047"/>
      <use xlink:href="#DejaVuSans-31" x="95.410156"/>
     </g>
    </g>
   </g>
   <g id="xtick_2">
    <g id="line2d_3">
     <path d="M 171.483359 256.833067 
L 169.248698 258.826587 
" style="fill: none; stroke: #000000; stroke-width: 0.8; stroke-linecap: square"/>
    </g>
    <g id="text_3">
     <!-- 0.2 -->
     <g transform="translate(155.298975 281.07231) scale(0.1 -0.1)">
      <defs>
       <path id="DejaVuSans-32" d="M 1228 531 
L 3431 531 
L 3431 0 
L 469 0 
L 469 531 
Q 828 903 1448 1529 
Q 2069 2156 2228 2338 
Q 2531 2678 2651 2914 
Q 2772 3150 2772 3378 
Q 2772 3750 2511 3984 
Q 2250 4219 1831 4219 
Q 1534 4219 1204 4116 
Q 875 4013 500 3803 
L 500 4441 
Q 881 4594 1212 4672 
Q 1544 4750 1819 4750 
Q 2544 4750 2975 4387 
Q 3406 4025 3406 3419 
Q 3406 3131 3298 2873 
Q 3191 2616 2906 2266 
Q 2828 2175 2409 1742 
Q 1991 1309 1228 531 
z
" transform="scale(0.015625)"/>
      </defs>
      <use xlink:href="#DejaVuSans-30"/>
      <use xlink:href="#DejaVuSans-2e" x="63.623047"/>
      <use xlink:href="#DejaVuSans-32" x="95.410156"/>
     </g>
    </g>
   </g>
   <g id="xtick_3">
    <g id="line2d_4">
     <path d="M 201.965817 266.778799 
L 199.773883 268.815875 
" style="fill: none; stroke: #000000; stroke-width: 0.8; stroke-linecap: square"/>
    </g>
    <g id="text_4">
     <!-- 0.3 -->
     <g transform="translate(185.830216 291.244672) scale(0.1 -0.1)">
      <defs>
       <path id="DejaVuSans-33" d="M 2597 2516 
Q 3050 2419 3304 2112 
Q 3559 1806 3559 1356 
Q 3559 666 3084 287 
Q 2609 -91 1734 -91 
Q 1441 -91 1130 -33 
Q 819 25 488 141 
L 488 750 
Q 750 597 1062 519 
Q 1375 441 1716 441 
Q 2309 441 2620 675 
Q 2931 909 2931 1356 
Q 2931 1769 2642 2001 
Q 2353 2234 1838 2234 
L 1294 2234 
L 1294 2753 
L 1863 2753 
Q 2328 2753 2575 2939 
Q 2822 3125 2822 3475 
Q 2822 3834 2567 4026 
Q 2313 4219 1838 4219 
Q 1578 4219 1281 4162 
Q 984 4106 628 3988 
L 628 4550 
Q 988 4650 1302 4700 
Q 1616 4750 1894 4750 
Q 2613 4750 3031 4423 
Q 3450 4097 3450 3541 
Q 3450 3153 3228 2886 
Q 3006 2619 2597 2516 
z
" transform="scale(0.015625)"/>
      </defs>
      <use xlink:href="#DejaVuSans-30"/>
      <use xlink:href="#DejaVuSans-2e" x="63.623047"/>
      <use xlink:href="#DejaVuSans-33" x="95.410156"/>
     </g>
    </g>
   </g>
   <g id="xtick_4">
    <g id="line2d_5">
     <path d="M 233.1172 276.942787 
L 230.97042 279.02486 
" style="fill: none; stroke: #000000; stroke-width: 0.8; stroke-linecap: square"/>
    </g>
    <g id="text_5">
     <!-- 0.4 -->
     <g transform="translate(217.03453 301.641289) scale(0.1 -0.1)">
      <defs>
       <path id="DejaVuSans-34" d="M 2419 4116 
L 825 1625 
L 2419 1625 
L 2419 4116 
z
M 2253 4666 
L 3047 4666 
L 3047 1625 
L 3713 1625 
L 3713 1100 
L 3047 1100 
L 3047 0 
L 2419 0 
L 2419 1100 
L 313 1100 
L 313 1709 
L 2253 4666 
z
" transform="scale(0.015625)"/>
      </defs>
      <use xlink:href="#DejaVuSans-30"/>
      <use xlink:href="#DejaVuSans-2e" x="63.623047"/>
      <use xlink:href="#DejaVuSans-34" x="95.410156"/>
     </g>
    </g>
   </g>
   <g id="xtick_5">
    <g id="line2d_6">
     <path d="M 264.959771 287.332293 
L 262.860702 289.460873 
" style="fill: none; stroke: #000000; stroke-width: 0.8; stroke-linecap: square"/>
    </g>
    <g id="text_6">
     <!-- 0.5 -->
     <g transform="translate(248.934424 312.269657) scale(0.1 -0.1)">
      <defs>
       <path id="DejaVuSans-35" d="M 691 4666 
L 3169 4666 
L 3169 4134 
L 1269 4134 
L 1269 2991 
Q 1406 3038 1543 3061 
Q 1681 3084 1819 3084 
Q 2600 3084 3056 2656 
Q 3513 2228 3513 1497 
Q 3513 744 3044 326 
Q 2575 -91 1722 -91 
Q 1428 -91 1123 -41 
Q 819 9 494 109 
L 494 744 
Q 775 591 1075 516 
Q 1375 441 1709 441 
Q 2250 441 2565 725 
Q 2881 1009 2881 1497 
Q 2881 1984 2565 2268 
Q 2250 2553 1709 2553 
Q 1456 2553 1204 2497 
Q 953 2441 691 2322 
L 691 4666 
z
" transform="scale(0.015625)"/>
      </defs>
      <use xlink:href="#DejaVuSans-30"/>
      <use xlink:href="#DejaVuSans-2e" x="63.623047"/>
      <use xlink:href="#DejaVuSans-35" x="95.410156"/>
     </g>
    </g>
   </g>
  </g>
  <g id="axis3d_2">
   <g id="line2d_7">
    <path d="M 352.090401 209.294766 
L 272.679269 290.790123 
" style="fill: none; stroke: #000000; stroke-width: 0.8; stroke-linecap: square"/>
   </g>
   <g id="text_7">
    <!-- Sy -->
    <g transform="translate(334.999188 278.988697) scale(0.1 -0.1)">
     <defs>
      <path id="DejaVuSans-79" d="M 2059 -325 
Q 1816 -950 1584 -1140 
Q 1353 -1331 966 -1331 
L 506 -1331 
L 506 -850 
L 844 -850 
Q 1081 -850 1212 -737 
Q 1344 -625 1503 -206 
L 1606 56 
L 191 3500 
L 800 3500 
L 1894 763 
L 2988 3500 
L 3597 3500 
L 2059 -325 
z
" transform="scale(0.015625)"/>
     </defs>
     <use xlink:href="#DejaVuSans-53"/>
     <use xlink:href="#DejaVuSans-79" x="63.476562"/>
    </g>
   </g>
   <g id="Line3DCollection_2">
    <path d="M 122.83334 125.578116 
L 128.011858 237.933644 
L 277.048111 286.306616 
" style="fill: none; stroke: #b0b0b0; stroke-width: 0.8"/>
    <path d="M 135.056202 116.658429 
L 139.642995 228.184194 
L 287.593722 275.484225 
" style="fill: none; stroke: #b0b0b0; stroke-width: 0.8"/>
    <path d="M 147.004462 107.939133 
L 151.024148 218.644286 
L 297.90074 264.906689 
" style="fill: none; stroke: #b0b0b0; stroke-width: 0.8"/>
    <path d="M 158.68727 99.413551 
L 162.163291 209.307236 
L 307.977172 254.565791 
" style="fill: none; stroke: #b0b0b0; stroke-width: 0.8"/>
    <path d="M 170.113377 91.075299 
L 173.068061 200.166641 
L 317.830671 244.453677 
" style="fill: none; stroke: #b0b0b0; stroke-width: 0.8"/>
    <path d="M 181.29115 82.918269 
L 183.74578 191.216365 
L 327.468553 234.562839 
" style="fill: none; stroke: #b0b0b0; stroke-width: 0.8"/>
    <path d="M 192.228599 74.936617 
L 194.203464 182.450527 
L 336.89782 224.886092 
" style="fill: none; stroke: #b0b0b0; stroke-width: 0.8"/>
    <path d="M 202.933392 67.124747 
L 204.447847 173.863482 
L 346.125172 215.416559 
" style="fill: none; stroke: #b0b0b0; stroke-width: 0.8"/>
   </g>
   <g id="xtick_6">
    <g id="line2d_8">
     <path d="M 275.7921 285.898951 
L 279.563384 287.123003 
" style="fill: none; stroke: #000000; stroke-width: 0.8; stroke-linecap: square"/>
    </g>
    <g id="text_8">
     <!-- −0.5 -->
     <g transform="translate(277.802425 307.345465) scale(0.1 -0.1)">
      <defs>
       <path id="DejaVuSans-2212" d="M 678 2272 
L 4684 2272 
L 4684 1741 
L 678 1741 
L 678 2272 
z
" transform="scale(0.015625)"/>
      </defs>
      <use xlink:href="#DejaVuSans-2212"/>
      <use xlink:href="#DejaVuSans-30" x="83.789062"/>
      <use xlink:href="#DejaVuSans-2e" x="147.412109"/>
      <use xlink:href="#DejaVuSans-35" x="179.199219"/>
     </g>
    </g>
   </g>
   <g id="xtick_7">
    <g id="line2d_9">
     <path d="M 286.347583 275.085833 
L 290.089189 276.282029 
" style="fill: none; stroke: #000000; stroke-width: 0.8; stroke-linecap: square"/>
    </g>
    <g id="text_9">
     <!-- −0.4 -->
     <g transform="translate(288.206648 296.362786) scale(0.1 -0.1)">
      <use xlink:href="#DejaVuSans-2212"/>
      <use xlink:href="#DejaVuSans-30" x="83.789062"/>
      <use xlink:href="#DejaVuSans-2e" x="147.412109"/>
      <use xlink:href="#DejaVuSans-34" x="179.199219"/>
     </g>
    </g>
   </g>
   <g id="xtick_8">
    <g id="line2d_10">
     <path d="M 296.66435 264.517257 
L 300.376649 265.686537 
" style="fill: none; stroke: #000000; stroke-width: 0.8; stroke-linecap: square"/>
    </g>
    <g id="text_10">
     <!-- −0.3 -->
     <g transform="translate(298.375339 285.628733) scale(0.1 -0.1)">
      <use xlink:href="#DejaVuSans-2212"/>
      <use xlink:href="#DejaVuSans-30" x="83.789062"/>
      <use xlink:href="#DejaVuSans-2e" x="147.412109"/>
      <use xlink:href="#DejaVuSans-33" x="179.199219"/>
     </g>
    </g>
   </g>
   <g id="xtick_9">
    <g id="line2d_11">
     <path d="M 306.750409 254.185021 
L 310.433768 255.328283 
" style="fill: none; stroke: #000000; stroke-width: 0.8; stroke-linecap: square"/>
    </g>
    <g id="text_11">
     <!-- −0.2 -->
     <g transform="translate(308.316406 275.13496) scale(0.1 -0.1)">
      <use xlink:href="#DejaVuSans-2212"/>
      <use xlink:href="#DejaVuSans-30" x="83.789062"/>
      <use xlink:href="#DejaVuSans-2e" x="147.412109"/>
      <use xlink:href="#DejaVuSans-32" x="179.199219"/>
     </g>
    </g>
   </g>
   <g id="xtick_10">
    <g id="line2d_12">
     <path d="M 316.613414 244.081283 
L 320.268197 245.199386 
" style="fill: none; stroke: #000000; stroke-width: 0.8; stroke-linecap: square"/>
    </g>
    <g id="text_12">
     <!-- −0.1 -->
     <g transform="translate(318.037409 264.873486) scale(0.1 -0.1)">
      <use xlink:href="#DejaVuSans-2212"/>
      <use xlink:href="#DejaVuSans-30" x="83.789062"/>
      <use xlink:href="#DejaVuSans-2e" x="147.412109"/>
      <use xlink:href="#DejaVuSans-31" x="179.199219"/>
     </g>
    </g>
   </g>
   <g id="xtick_11">
    <g id="line2d_13">
     <path d="M 326.260682 234.198548 
L 329.887251 235.292313 
" style="fill: none; stroke: #000000; stroke-width: 0.8; stroke-linecap: square"/>
    </g>
    <g id="text_13">
     <!-- 0.0 -->
     <g transform="translate(331.735418 254.836683) scale(0.1 -0.1)">
      <use xlink:href="#DejaVuSans-30"/>
      <use xlink:href="#DejaVuSans-2e" x="63.623047"/>
      <use xlink:href="#DejaVuSans-30" x="95.410156"/>
     </g>
    </g>
   </g>
   <g id="xtick_12">
    <g id="line2d_14">
     <path d="M 335.699216 224.529641 
L 339.29793 225.599855 
" style="fill: none; stroke: #000000; stroke-width: 0.8; stroke-linecap: square"/>
    </g>
    <g id="text_14">
     <!-- 0.1 -->
     <g transform="translate(341.037659 245.017253) scale(0.1 -0.1)">
      <use xlink:href="#DejaVuSans-30"/>
      <use xlink:href="#DejaVuSans-2e" x="63.623047"/>
      <use xlink:href="#DejaVuSans-31" x="95.410156"/>
     </g>
    </g>
   </g>
   <g id="xtick_13">
    <g id="line2d_15">
     <path d="M 344.935717 215.067699 
L 348.50693 216.115114 
" style="fill: none; stroke: #000000; stroke-width: 0.8; stroke-linecap: square"/>
    </g>
    <g id="text_15">
     <!-- 0.2 -->
     <g transform="translate(350.140596 235.408209) scale(0.1 -0.1)">
      <use xlink:href="#DejaVuSans-30"/>
      <use xlink:href="#DejaVuSans-2e" x="63.623047"/>
      <use xlink:href="#DejaVuSans-32" x="95.410156"/>
     </g>
    </g>
   </g>
  </g>
  <g id="axis3d_3">
   <g id="line2d_16">
    <path d="M 352.090401 209.294766 
L 357.122702 99.402171 
" style="fill: none; stroke: #000000; stroke-width: 0.8; stroke-linecap: square"/>
   </g>
   <g id="text_16">
    <!-- Sz -->
    <g transform="translate(389.128792 152.902279) scale(0.1 -0.1)">
     <defs>
      <path id="DejaVuSans-7a" d="M 353 3500 
L 3084 3500 
L 3084 2975 
L 922 459 
L 3084 459 
L 3084 0 
L 275 0 
L 275 525 
L 2438 3041 
L 353 3041 
L 353 3500 
z
" transform="scale(0.015625)"/>
     </defs>
     <use xlink:href="#DejaVuSans-53"/>
     <use xlink:href="#DejaVuSans-7a" x="63.476562"/>
    </g>
   </g>
   <g id="Line3DCollection_3">
    <path d="M 352.246047 205.895849 
L 211.038304 165.015023 
L 123.029709 238.489364 
" style="fill: none; stroke: #b0b0b0; stroke-width: 0.8"/>
    <path d="M 353.404467 180.598913 
L 210.756675 140.523835 
L 121.781908 212.577964 
" style="fill: none; stroke: #b0b0b0; stroke-width: 0.8"/>
    <path d="M 354.586994 154.775541 
L 210.469467 115.547531 
L 120.507141 186.106595 
" style="fill: none; stroke: #b0b0b0; stroke-width: 0.8"/>
    <path d="M 355.794389 128.409126 
L 210.176514 90.071553 
L 119.204524 159.056905 
" style="fill: none; stroke: #b0b0b0; stroke-width: 0.8"/>
   </g>
   <g id="xtick_14">
    <g id="line2d_17">
     <path d="M 351.060848 205.552724 
L 354.619267 206.582916 
" style="fill: none; stroke: #000000; stroke-width: 0.8; stroke-linecap: square"/>
    </g>
    <g id="text_17">
     <!-- −0.4 -->
     <g transform="translate(358.378021 210.895895) scale(0.1 -0.1)">
      <use xlink:href="#DejaVuSans-2212"/>
      <use xlink:href="#DejaVuSans-30" x="83.789062"/>
      <use xlink:href="#DejaVuSans-2e" x="147.412109"/>
      <use xlink:href="#DejaVuSans-34" x="179.199219"/>
     </g>
    </g>
   </g>
   <g id="xtick_15">
    <g id="line2d_18">
     <path d="M 352.206604 180.262389 
L 355.803075 181.272771 
" style="fill: none; stroke: #000000; stroke-width: 0.8; stroke-linecap: square"/>
    </g>
    <g id="text_18">
     <!-- −0.2 -->
     <g transform="translate(359.720536 185.649013) scale(0.1 -0.1)">
      <use xlink:href="#DejaVuSans-2212"/>
      <use xlink:href="#DejaVuSans-30" x="83.789062"/>
      <use xlink:href="#DejaVuSans-2e" x="147.412109"/>
      <use xlink:href="#DejaVuSans-32" x="179.199219"/>
     </g>
    </g>
   </g>
   <g id="xtick_16">
    <g id="line2d_19">
     <path d="M 353.376194 154.445967 
L 357.011539 155.435488 
" style="fill: none; stroke: #000000; stroke-width: 0.8; stroke-linecap: square"/>
    </g>
    <g id="text_19">
     <!-- 0.0 -->
     <g transform="translate(365.280747 159.878345) scale(0.1 -0.1)">
      <use xlink:href="#DejaVuSans-30"/>
      <use xlink:href="#DejaVuSans-2e" x="63.623047"/>
      <use xlink:href="#DejaVuSans-30" x="95.410156"/>
     </g>
    </g>
   </g>
   <g id="xtick_17">
    <g id="line2d_20">
     <path d="M 354.570369 128.086872 
L 358.245436 129.054426 
" style="fill: none; stroke: #000000; stroke-width: 0.8; stroke-linecap: square"/>
    </g>
    <g id="text_20">
     <!-- 0.2 -->
     <g transform="translate(366.679843 133.567422) scale(0.1 -0.1)">
      <use xlink:href="#DejaVuSans-30"/>
      <use xlink:href="#DejaVuSans-2e" x="63.623047"/>
      <use xlink:href="#DejaVuSans-32" x="95.410156"/>
     </g>
    </g>
   </g>
  </g>
  <g id="axes_1">
   <g id="Path3DCollection_1">
    <defs>
     <path id="C0_0_81c0067844" d="M 0 2.236068 
C 0.593012 2.236068 1.161816 2.000462 1.581139 1.581139 
C 2.000462 1.161816 2.236068 0.593012 2.236068 -0 
C 2.236068 -0.593012 2.000462 -1.161816 1.581139 -1.581139 
C 1.161816 -2.000462 0.593012 -2.236068 0 -2.236068 
C -0.593012 -2.236068 -1.161816 -2.000462 -1.581139 -1.581139 
C -2.000462 -1.161816 -2.236068 -0.593012 -2.236068 0 
C -2.236068 0.593012 -2.000462 1.161816 -1.581139 1.581139 
C -1.161816 2.000462 -0.593012 2.236068 0 2.236068 
z
"/>
    </defs>
    <g clip-path="url(#p581c0c53f0)">
     <use xlink:href="#C0_0_81c0067844" x="221.582101" y="222.824959" style="fill: #ff0000; fill-opacity: 0.3; stroke: #ff0000; stroke-opacity: 0.3"/>
    </g>
    <g clip-path="url(#p581c0c53f0)">
     <use xlink:href="#C0_0_81c0067844" x="210.125937" y="221.817575" style="fill: #ff0000; fill-opacity: 0.304935; stroke: #ff0000; stroke-opacity: 0.304935"/>
    </g>
    <g clip-path="url(#p581c0c53f0)">
     <use xlink:href="#C0_0_81c0067844" x="232.960499" y="222.644939" style="fill: #ff0000; fill-opacity: 0.335752; stroke: #ff0000; stroke-opacity: 0.335752"/>
    </g>
    <g clip-path="url(#p581c0c53f0)">
     <use xlink:href="#C0_0_81c0067844" x="199.046082" y="219.729792" style="fill: #ff0000; fill-opacity: 0.349181; stroke: #ff0000; stroke-opacity: 0.349181"/>
    </g>
    <g clip-path="url(#p581c0c53f0)">
     <use xlink:href="#C0_0_81c0067844" x="188.750035" y="216.723656" style="fill: #ff0000; fill-opacity: 0.42959; stroke: #ff0000; stroke-opacity: 0.42959"/>
    </g>
    <g clip-path="url(#p581c0c53f0)">
     <use xlink:href="#C0_0_81c0067844" x="179.578667" y="213.003729" style="fill: #ff0000; fill-opacity: 0.541421; stroke: #ff0000; stroke-opacity: 0.541421"/>
    </g>
    <g clip-path="url(#p581c0c53f0)">
     <use xlink:href="#C0_0_81c0067844" x="171.790159" y="208.801919" style="fill: #ff0000; fill-opacity: 0.678593; stroke: #ff0000; stroke-opacity: 0.678593"/>
    </g>
    <g clip-path="url(#p581c0c53f0)">
     <use xlink:href="#C0_0_81c0067844" x="165.548864" y="204.360651" style="fill: #ff0000; fill-opacity: 0.834016; stroke: #ff0000; stroke-opacity: 0.834016"/>
    </g>
    <g clip-path="url(#p581c0c53f0)">
     <use xlink:href="#C0_0_81c0067844" x="160.920144" y="199.915276" style="fill: #ff0000; stroke: #ff0000"/>
    </g>
   </g>
   <g id="text_21">
    <!-- Average magnetic moment -->
    <g transform="translate(154.3575 35.472) scale(0.12 -0.12)">
     <defs>
      <path id="DejaVuSans-41" d="M 2188 4044 
L 1331 1722 
L 3047 1722 
L 2188 4044 
z
M 1831 4666 
L 2547 4666 
L 4325 0 
L 3669 0 
L 3244 1197 
L 1141 1197 
L 716 0 
L 50 0 
L 1831 4666 
z
" transform="scale(0.015625)"/>
      <path id="DejaVuSans-76" d="M 191 3500 
L 800 3500 
L 1894 563 
L 2988 3500 
L 3597 3500 
L 2284 0 
L 1503 0 
L 191 3500 
z
" transform="scale(0.015625)"/>
      <path id="DejaVuSans-65" d="M 3597 1894 
L 3597 1613 
L 953 1613 
Q 991 1019 1311 708 
Q 1631 397 2203 397 
Q 2534 397 2845 478 
Q 3156 559 3463 722 
L 3463 178 
Q 3153 47 2828 -22 
Q 2503 -91 2169 -91 
Q 1331 -91 842 396 
Q 353 884 353 1716 
Q 353 2575 817 3079 
Q 1281 3584 2069 3584 
Q 2775 3584 3186 3129 
Q 3597 2675 3597 1894 
z
M 3022 2063 
Q 3016 2534 2758 2815 
Q 2500 3097 2075 3097 
Q 1594 3097 1305 2825 
Q 1016 2553 972 2059 
L 3022 2063 
z
" transform="scale(0.015625)"/>
      <path id="DejaVuSans-72" d="M 2631 2963 
Q 2534 3019 2420 3045 
Q 2306 3072 2169 3072 
Q 1681 3072 1420 2755 
Q 1159 2438 1159 1844 
L 1159 0 
L 581 0 
L 581 3500 
L 1159 3500 
L 1159 2956 
Q 1341 3275 1631 3429 
Q 1922 3584 2338 3584 
Q 2397 3584 2469 3576 
Q 2541 3569 2628 3553 
L 2631 2963 
z
" transform="scale(0.015625)"/>
      <path id="DejaVuSans-61" d="M 2194 1759 
Q 1497 1759 1228 1600 
Q 959 1441 959 1056 
Q 959 750 1161 570 
Q 1363 391 1709 391 
Q 2188 391 2477 730 
Q 2766 1069 2766 1631 
L 2766 1759 
L 2194 1759 
z
M 3341 1997 
L 3341 0 
L 2766 0 
L 2766 531 
Q 2569 213 2275 61 
Q 1981 -91 1556 -91 
Q 1019 -91 701 211 
Q 384 513 384 1019 
Q 384 1609 779 1909 
Q 1175 2209 1959 2209 
L 2766 2209 
L 2766 2266 
Q 2766 2663 2505 2880 
Q 2244 3097 1772 3097 
Q 1472 3097 1187 3025 
Q 903 2953 641 2809 
L 641 3341 
Q 956 3463 1253 3523 
Q 1550 3584 1831 3584 
Q 2591 3584 2966 3190 
Q 3341 2797 3341 1997 
z
" transform="scale(0.015625)"/>
      <path id="DejaVuSans-67" d="M 2906 1791 
Q 2906 2416 2648 2759 
Q 2391 3103 1925 3103 
Q 1463 3103 1205 2759 
Q 947 2416 947 1791 
Q 947 1169 1205 825 
Q 1463 481 1925 481 
Q 2391 481 2648 825 
Q 2906 1169 2906 1791 
z
M 3481 434 
Q 3481 -459 3084 -895 
Q 2688 -1331 1869 -1331 
Q 1566 -1331 1297 -1286 
Q 1028 -1241 775 -1147 
L 775 -588 
Q 1028 -725 1275 -790 
Q 1522 -856 1778 -856 
Q 2344 -856 2625 -561 
Q 2906 -266 2906 331 
L 2906 616 
Q 2728 306 2450 153 
Q 2172 0 1784 0 
Q 1141 0 747 490 
Q 353 981 353 1791 
Q 353 2603 747 3093 
Q 1141 3584 1784 3584 
Q 2172 3584 2450 3431 
Q 2728 3278 2906 2969 
L 2906 3500 
L 3481 3500 
L 3481 434 
z
" transform="scale(0.015625)"/>
      <path id="DejaVuSans-20" transform="scale(0.015625)"/>
      <path id="DejaVuSans-6d" d="M 3328 2828 
Q 3544 3216 3844 3400 
Q 4144 3584 4550 3584 
Q 5097 3584 5394 3201 
Q 5691 2819 5691 2113 
L 5691 0 
L 5113 0 
L 5113 2094 
Q 5113 2597 4934 2840 
Q 4756 3084 4391 3084 
Q 3944 3084 3684 2787 
Q 3425 2491 3425 1978 
L 3425 0 
L 2847 0 
L 2847 2094 
Q 2847 2600 2669 2842 
Q 2491 3084 2119 3084 
Q 1678 3084 1418 2786 
Q 1159 2488 1159 1978 
L 1159 0 
L 581 0 
L 581 3500 
L 1159 3500 
L 1159 2956 
Q 1356 3278 1631 3431 
Q 1906 3584 2284 3584 
Q 2666 3584 2933 3390 
Q 3200 3197 3328 2828 
z
" transform="scale(0.015625)"/>
      <path id="DejaVuSans-6e" d="M 3513 2113 
L 3513 0 
L 2938 0 
L 2938 2094 
Q 2938 2591 2744 2837 
Q 2550 3084 2163 3084 
Q 1697 3084 1428 2787 
Q 1159 2491 1159 1978 
L 1159 0 
L 581 0 
L 581 3500 
L 1159 3500 
L 1159 2956 
Q 1366 3272 1645 3428 
Q 1925 3584 2291 3584 
Q 2894 3584 3203 3211 
Q 3513 2838 3513 2113 
z
" transform="scale(0.015625)"/>
      <path id="DejaVuSans-74" d="M 1172 4494 
L 1172 3500 
L 2356 3500 
L 2356 3053 
L 1172 3053 
L 1172 1153 
Q 1172 725 1289 603 
Q 1406 481 1766 481 
L 2356 481 
L 2356 0 
L 1766 0 
Q 1100 0 847 248 
Q 594 497 594 1153 
L 594 3053 
L 172 3053 
L 172 3500 
L 594 3500 
L 594 4494 
L 1172 4494 
z
" transform="scale(0.015625)"/>
      <path id="DejaVuSans-69" d="M 603 3500 
L 1178 3500 
L 1178 0 
L 603 0 
L 603 3500 
z
M 603 4863 
L 1178 4863 
L 1178 4134 
L 603 4134 
L 603 4863 
z
" transform="scale(0.015625)"/>
      <path id="DejaVuSans-63" d="M 3122 3366 
L 3122 2828 
Q 2878 2963 2633 3030 
Q 2388 3097 2138 3097 
Q 1578 3097 1268 2742 
Q 959 2388 959 1747 
Q 959 1106 1268 751 
Q 1578 397 2138 397 
Q 2388 397 2633 464 
Q 2878 531 3122 666 
L 3122 134 
Q 2881 22 2623 -34 
Q 2366 -91 2075 -91 
Q 1284 -91 818 406 
Q 353 903 353 1747 
Q 353 2603 823 3093 
Q 1294 3584 2113 3584 
Q 2378 3584 2631 3529 
Q 2884 3475 3122 3366 
z
" transform="scale(0.015625)"/>
      <path id="DejaVuSans-6f" d="M 1959 3097 
Q 1497 3097 1228 2736 
Q 959 2375 959 1747 
Q 959 1119 1226 758 
Q 1494 397 1959 397 
Q 2419 397 2687 759 
Q 2956 1122 2956 1747 
Q 2956 2369 2687 2733 
Q 2419 3097 1959 3097 
z
M 1959 3584 
Q 2709 3584 3137 3096 
Q 3566 2609 3566 1747 
Q 3566 888 3137 398 
Q 2709 -91 1959 -91 
Q 1206 -91 779 398 
Q 353 888 353 1747 
Q 353 2609 779 3096 
Q 1206 3584 1959 3584 
z
" transform="scale(0.015625)"/>
     </defs>
     <use xlink:href="#DejaVuSans-41"/>
     <use xlink:href="#DejaVuSans-76" x="62.533203"/>
     <use xlink:href="#DejaVuSans-65" x="121.712891"/>
     <use xlink:href="#DejaVuSans-72" x="183.236328"/>
     <use xlink:href="#DejaVuSans-61" x="224.349609"/>
     <use xlink:href="#DejaVuSans-67" x="285.628906"/>
     <use xlink:href="#DejaVuSans-65" x="349.105469"/>
     <use xlink:href="#DejaVuSans-20" x="410.628906"/>
     <use xlink:href="#DejaVuSans-6d" x="442.416016"/>
     <use xlink:href="#DejaVuSans-61" x="539.828125"/>
     <use xlink:href="#DejaVuSans-67" x="601.107422"/>
     <use xlink:href="#DejaVuSans-6e" x="664.583984"/>
     <use xlink:href="#DejaVuSans-65" x="727.962891"/>
     <use xlink:href="#DejaVuSans-74" x="789.486328"/>
     <use xlink:href="#DejaVuSans-69" x="828.695312"/>
     <use xlink:href="#DejaVuSans-63" x="856.478516"/>
     <use xlink:href="#DejaVuSans-20" x="911.458984"/>
     <use xlink:href="#DejaVuSans-6d" x="943.246094"/>
     <use xlink:href="#DejaVuSans-6f" x="1040.658203"/>
     <use xlink:href="#DejaVuSans-6d" x="1101.839844"/>
     <use xlink:href="#DejaVuSans-65" x="1199.251953"/>
     <use xlink:href="#DejaVuSans-6e" x="1260.775391"/>
     <use xlink:href="#DejaVuSans-74" x="1324.154297"/>
    </g>
   </g>
   <g id="Path3DCollection_2">
    <defs>
     <path id="C1_0_53b07302fc" d="M 0 2.236068 
C 0.593012 2.236068 1.161816 2.000462 1.581139 1.581139 
C 2.000462 1.161816 2.236068 0.593012 2.236068 -0 
C 2.236068 -0.593012 2.000462 -1.161816 1.581139 -1.581139 
C 1.161816 -2.000462 0.593012 -2.236068 0 -2.236068 
C -0.593012 -2.236068 -1.161816 -2.000462 -1.581139 -1.581139 
C -2.000462 -1.161816 -2.236068 -0.593012 -2.236068 0 
C -2.236068 0.593012 -2.000462 1.161816 -1.581139 1.581139 
C -1.161816 2.000462 -0.593012 2.236068 0 2.236068 
z
"/>
    </defs>
    <g clip-path="url(#p581c0c53f0)">
     <use xlink:href="#C1_0_53b07302fc" x="309.770147" y="192.250733" style="fill: #bf00bf; fill-opacity: 0.3; stroke: #bf00bf; stroke-opacity: 0.3"/>
    </g>
    <g clip-path="url(#p581c0c53f0)">
     <use xlink:href="#C1_0_53b07302fc" x="296.941954" y="199.30194" style="fill: #bf00bf; fill-opacity: 0.312879; stroke: #bf00bf; stroke-opacity: 0.312879"/>
    </g>
    <g clip-path="url(#p581c0c53f0)">
     <use xlink:href="#C1_0_53b07302fc" x="319.333543" y="183.721554" style="fill: #bf00bf; fill-opacity: 0.363912; stroke: #bf00bf; stroke-opacity: 0.363912"/>
    </g>
    <g clip-path="url(#p581c0c53f0)">
     <use xlink:href="#C1_0_53b07302fc" x="282.001061" y="204.395651" style="fill: #bf00bf; fill-opacity: 0.399632; stroke: #bf00bf; stroke-opacity: 0.399632"/>
    </g>
    <g clip-path="url(#p581c0c53f0)">
     <use xlink:href="#C1_0_53b07302fc" x="324.733695" y="174.354042" style="fill: #bf00bf; fill-opacity: 0.501841; stroke: #bf00bf; stroke-opacity: 0.501841"/>
    </g>
    <g clip-path="url(#p581c0c53f0)">
     <use xlink:href="#C1_0_53b07302fc" x="266.241248" y="207.247952" style="fill: #bf00bf; fill-opacity: 0.55207; stroke: #bf00bf; stroke-opacity: 0.55207"/>
    </g>
    <g clip-path="url(#p581c0c53f0)">
     <use xlink:href="#C1_0_53b07302fc" x="325.419797" y="164.896227" style="fill: #bf00bf; fill-opacity: 0.705295; stroke: #bf00bf; stroke-opacity: 0.705295"/>
    </g>
    <g clip-path="url(#p581c0c53f0)">
     <use xlink:href="#C1_0_53b07302fc" x="250.976024" y="207.787908" style="fill: #bf00bf; fill-opacity: 0.757526; stroke: #bf00bf; stroke-opacity: 0.757526"/>
    </g>
    <g clip-path="url(#p581c0c53f0)">
     <use xlink:href="#C1_0_53b07302fc" x="237.415569" y="206.155497" style="fill: #bf00bf; stroke: #bf00bf"/>
    </g>
   </g>
   <g id="Path3DCollection_3">
    <defs>
     <path id="C2_0_9e3c3ad7ed" d="M 0 2.236068 
C 0.593012 2.236068 1.161816 2.000462 1.581139 1.581139 
C 2.000462 1.161816 2.236068 0.593012 2.236068 -0 
C 2.236068 -0.593012 2.000462 -1.161816 1.581139 -1.581139 
C 1.161816 -2.000462 0.593012 -2.236068 0 -2.236068 
C -0.593012 -2.236068 -1.161816 -2.000462 -1.581139 -1.581139 
C -2.000462 -1.161816 -2.236068 -0.593012 -2.236068 0 
C -2.236068 0.593012 -2.000462 1.161816 -1.581139 1.581139 
C -1.161816 2.000462 -0.593012 2.236068 0 2.236068 
z
"/>
    </defs>
    <g clip-path="url(#p581c0c53f0)">
     <use xlink:href="#C2_0_9e3c3ad7ed" x="305.168298" y="131.583813" style="fill: #ffa500; fill-opacity: 0.3; stroke: #ffa500; stroke-opacity: 0.3"/>
    </g>
    <g clip-path="url(#p581c0c53f0)">
     <use xlink:href="#C2_0_9e3c3ad7ed" x="300.583647" y="125.407041" style="fill: #ffa500; fill-opacity: 0.300103; stroke: #ffa500; stroke-opacity: 0.300103"/>
    </g>
    <g clip-path="url(#p581c0c53f0)">
     <use xlink:href="#C2_0_9e3c3ad7ed" x="308.234883" y="138.700527" style="fill: #ffa500; fill-opacity: 0.35611; stroke: #ffa500; stroke-opacity: 0.35611"/>
    </g>
    <g clip-path="url(#p581c0c53f0)">
     <use xlink:href="#C2_0_9e3c3ad7ed" x="294.969392" y="120.519089" style="fill: #ffa500; fill-opacity: 0.356852; stroke: #ffa500; stroke-opacity: 0.356852"/>
    </g>
    <g clip-path="url(#p581c0c53f0)">
     <use xlink:href="#C2_0_9e3c3ad7ed" x="309.384361" y="146.290053" style="fill: #ffa500; fill-opacity: 0.462582; stroke: #ffa500; stroke-opacity: 0.462582"/>
    </g>
    <g clip-path="url(#p581c0c53f0)">
     <use xlink:href="#C2_0_9e3c3ad7ed" x="288.835284" y="117.134141" style="fill: #ffa500; fill-opacity: 0.465549; stroke: #ffa500; stroke-opacity: 0.465549"/>
    </g>
    <g clip-path="url(#p581c0c53f0)">
     <use xlink:href="#C2_0_9e3c3ad7ed" x="282.656722" y="115.331309" style="fill: #ffa500; fill-opacity: 0.617218; stroke: #ffa500; stroke-opacity: 0.617218"/>
    </g>
    <g clip-path="url(#p581c0c53f0)">
     <use xlink:href="#C2_0_9e3c3ad7ed" x="276.834595" y="115.067084" style="fill: #ffa500; fill-opacity: 0.799878; stroke: #ffa500; stroke-opacity: 0.799878"/>
    </g>
    <g clip-path="url(#p581c0c53f0)">
     <use xlink:href="#C2_0_9e3c3ad7ed" x="271.670437" y="116.197272" style="fill: #ffa500; stroke: #ffa500"/>
    </g>
   </g>
   <g id="legend_1">
    <g id="patch_6">
     <path d="M 302.614438 302.584 
L 362.216 302.584 
Q 364.216 302.584 364.216 300.584 
L 364.216 169.480875 
Q 364.216 167.480875 362.216 167.480875 
L 302.614438 167.480875 
Q 300.614438 167.480875 300.614438 169.480875 
L 300.614438 300.584 
Q 300.614438 302.584 302.614438 302.584 
z
" style="fill: #ffffff; opacity: 0.8; stroke: #cccccc; stroke-linejoin: miter"/>
    </g>
    <g id="Path3DCollection_4">
     <defs>
      <path id="m25b79bbcd4" d="M 0 2.236068 
C 0.593012 2.236068 1.161816 2.000462 1.581139 1.581139 
C 2.000462 1.161816 2.236068 0.593012 2.236068 0 
C 2.236068 -0.593012 2.000462 -1.161816 1.581139 -1.581139 
C 1.161816 -2.000462 0.593012 -2.236068 0 -2.236068 
C -0.593012 -2.236068 -1.161816 -2.000462 -1.581139 -1.581139 
C -2.000462 -1.161816 -2.236068 -0.593012 -2.236068 0 
C -2.236068 0.593012 -2.000462 1.161816 -1.581139 1.581139 
C -1.161816 2.000462 -0.593012 2.236068 0 2.236068 
z
" style="stroke: #ff0000"/>
     </defs>
     <g>
      <use xlink:href="#m25b79bbcd4" x="314.614438" y="176.454313" style="fill: #ff0000; stroke: #ff0000"/>
     </g>
    </g>
    <g id="text_22">
     <!-- site 1 -->
     <g transform="translate(332.614438 179.079313) scale(0.1 -0.1)">
      <defs>
       <path id="DejaVuSans-73" d="M 2834 3397 
L 2834 2853 
Q 2591 2978 2328 3040 
Q 2066 3103 1784 3103 
Q 1356 3103 1142 2972 
Q 928 2841 928 2578 
Q 928 2378 1081 2264 
Q 1234 2150 1697 2047 
L 1894 2003 
Q 2506 1872 2764 1633 
Q 3022 1394 3022 966 
Q 3022 478 2636 193 
Q 2250 -91 1575 -91 
Q 1294 -91 989 -36 
Q 684 19 347 128 
L 347 722 
Q 666 556 975 473 
Q 1284 391 1588 391 
Q 1994 391 2212 530 
Q 2431 669 2431 922 
Q 2431 1156 2273 1281 
Q 2116 1406 1581 1522 
L 1381 1569 
Q 847 1681 609 1914 
Q 372 2147 372 2553 
Q 372 3047 722 3315 
Q 1072 3584 1716 3584 
Q 2034 3584 2315 3537 
Q 2597 3491 2834 3397 
z
" transform="scale(0.015625)"/>
      </defs>
      <use xlink:href="#DejaVuSans-73"/>
      <use xlink:href="#DejaVuSans-69" x="52.099609"/>
      <use xlink:href="#DejaVuSans-74" x="79.882812"/>
      <use xlink:href="#DejaVuSans-65" x="119.091797"/>
      <use xlink:href="#DejaVuSans-20" x="180.615234"/>
      <use xlink:href="#DejaVuSans-31" x="212.402344"/>
     </g>
    </g>
    <g id="Path3DCollection_5">
     <defs>
      <path id="mea13edaac1" d="M 0 2.236068 
C 0.593012 2.236068 1.161816 2.000462 1.581139 1.581139 
C 2.000462 1.161816 2.236068 0.593012 2.236068 0 
C 2.236068 -0.593012 2.000462 -1.161816 1.581139 -1.581139 
C 1.161816 -2.000462 0.593012 -2.236068 0 -2.236068 
C -0.593012 -2.236068 -1.161816 -2.000462 -1.581139 -1.581139 
C -2.000462 -1.161816 -2.236068 -0.593012 -2.236068 0 
C -2.236068 0.593012 -2.000462 1.161816 -1.581139 1.581139 
C -1.161816 2.000462 -0.593012 2.236068 0 2.236068 
z
" style="stroke: #008000"/>
     </defs>
     <g>
      <use xlink:href="#mea13edaac1" x="314.614438" y="191.132438" style="fill: #008000; stroke: #008000"/>
     </g>
    </g>
    <g id="text_23">
     <!-- site 2 -->
     <g transform="translate(332.614438 193.757438) scale(0.1 -0.1)">
      <use xlink:href="#DejaVuSans-73"/>
      <use xlink:href="#DejaVuSans-69" x="52.099609"/>
      <use xlink:href="#DejaVuSans-74" x="79.882812"/>
      <use xlink:href="#DejaVuSans-65" x="119.091797"/>
      <use xlink:href="#DejaVuSans-20" x="180.615234"/>
      <use xlink:href="#DejaVuSans-32" x="212.402344"/>
     </g>
    </g>
    <g id="Path3DCollection_6">
     <defs>
      <path id="mab47f08f87" d="M 0 2.236068 
C 0.593012 2.236068 1.161816 2.000462 1.581139 1.581139 
C 2.000462 1.161816 2.236068 0.593012 2.236068 0 
C 2.236068 -0.593012 2.000462 -1.161816 1.581139 -1.581139 
C 1.161816 -2.000462 0.593012 -2.236068 0 -2.236068 
C -0.593012 -2.236068 -1.161816 -2.000462 -1.581139 -1.581139 
C -2.000462 -1.161816 -2.236068 -0.593012 -2.236068 0 
C -2.236068 0.593012 -2.000462 1.161816 -1.581139 1.581139 
C -1.161816 2.000462 -0.593012 2.236068 0 2.236068 
z
" style="stroke: #0000ff"/>
     </defs>
     <g>
      <use xlink:href="#mab47f08f87" x="314.614438" y="205.810563" style="fill: #0000ff; stroke: #0000ff"/>
     </g>
    </g>
    <g id="text_24">
     <!-- site 3 -->
     <g transform="translate(332.614438 208.435563) scale(0.1 -0.1)">
      <use xlink:href="#DejaVuSans-73"/>
      <use xlink:href="#DejaVuSans-69" x="52.099609"/>
      <use xlink:href="#DejaVuSans-74" x="79.882812"/>
      <use xlink:href="#DejaVuSans-65" x="119.091797"/>
      <use xlink:href="#DejaVuSans-20" x="180.615234"/>
      <use xlink:href="#DejaVuSans-33" x="212.402344"/>
     </g>
    </g>
    <g id="Path3DCollection_7">
     <defs>
      <path id="m2ee6e5a501" d="M 0 2.236068 
C 0.593012 2.236068 1.161816 2.000462 1.581139 1.581139 
C 2.000462 1.161816 2.236068 0.593012 2.236068 0 
C 2.236068 -0.593012 2.000462 -1.161816 1.581139 -1.581139 
C 1.161816 -2.000462 0.593012 -2.236068 0 -2.236068 
C -0.593012 -2.236068 -1.161816 -2.000462 -1.581139 -1.581139 
C -2.000462 -1.161816 -2.236068 -0.593012 -2.236068 0 
C -2.236068 0.593012 -2.000462 1.161816 -1.581139 1.581139 
C -1.161816 2.000462 -0.593012 2.236068 0 2.236068 
z
" style="stroke: #00bfbf"/>
     </defs>
     <g>
      <use xlink:href="#m2ee6e5a501" x="314.614438" y="220.488688" style="fill: #00bfbf; stroke: #00bfbf"/>
     </g>
    </g>
    <g id="text_25">
     <!-- site 4 -->
     <g transform="translate(332.614438 223.113688) scale(0.1 -0.1)">
      <use xlink:href="#DejaVuSans-73"/>
      <use xlink:href="#DejaVuSans-69" x="52.099609"/>
      <use xlink:href="#DejaVuSans-74" x="79.882812"/>
      <use xlink:href="#DejaVuSans-65" x="119.091797"/>
      <use xlink:href="#DejaVuSans-20" x="180.615234"/>
      <use xlink:href="#DejaVuSans-34" x="212.402344"/>
     </g>
    </g>
    <g id="Path3DCollection_8">
     <defs>
      <path id="m29d9c922ec" d="M 0 2.236068 
C 0.593012 2.236068 1.161816 2.000462 1.581139 1.581139 
C 2.000462 1.161816 2.236068 0.593012 2.236068 0 
C 2.236068 -0.593012 2.000462 -1.161816 1.581139 -1.581139 
C 1.161816 -2.000462 0.593012 -2.236068 0 -2.236068 
C -0.593012 -2.236068 -1.161816 -2.000462 -1.581139 -1.581139 
C -2.000462 -1.161816 -2.236068 -0.593012 -2.236068 0 
C -2.236068 0.593012 -2.000462 1.161816 -1.581139 1.581139 
C -1.161816 2.000462 -0.593012 2.236068 0 2.236068 
z
" style="stroke: #bf00bf"/>
     </defs>
     <g>
      <use xlink:href="#m29d9c922ec" x="314.614438" y="235.166813" style="fill: #bf00bf; stroke: #bf00bf"/>
     </g>
    </g>
    <g id="text_26">
     <!-- site 5 -->
     <g transform="translate(332.614438 237.791813) scale(0.1 -0.1)">
      <use xlink:href="#DejaVuSans-73"/>
      <use xlink:href="#DejaVuSans-69" x="52.099609"/>
      <use xlink:href="#DejaVuSans-74" x="79.882812"/>
      <use xlink:href="#DejaVuSans-65" x="119.091797"/>
      <use xlink:href="#DejaVuSans-20" x="180.615234"/>
      <use xlink:href="#DejaVuSans-35" x="212.402344"/>
     </g>
    </g>
    <g id="Path3DCollection_9">
     <defs>
      <path id="mc1b0092b24" d="M 0 2.236068 
C 0.593012 2.236068 1.161816 2.000462 1.581139 1.581139 
C 2.000462 1.161816 2.236068 0.593012 2.236068 0 
C 2.236068 -0.593012 2.000462 -1.161816 1.581139 -1.581139 
C 1.161816 -2.000462 0.593012 -2.236068 0 -2.236068 
C -0.593012 -2.236068 -1.161816 -2.000462 -1.581139 -1.581139 
C -2.000462 -1.161816 -2.236068 -0.593012 -2.236068 0 
C -2.236068 0.593012 -2.000462 1.161816 -1.581139 1.581139 
C -1.161816 2.000462 -0.593012 2.236068 0 2.236068 
z
" style="stroke: #bfbf00"/>
     </defs>
     <g>
      <use xlink:href="#mc1b0092b24" x="314.614438" y="249.844938" style="fill: #bfbf00; stroke: #bfbf00"/>
     </g>
    </g>
    <g id="text_27">
     <!-- site 6 -->
     <g transform="translate(332.614438 252.469938) scale(0.1 -0.1)">
      <defs>
       <path id="DejaVuSans-36" d="M 2113 2584 
Q 1688 2584 1439 2293 
Q 1191 2003 1191 1497 
Q 1191 994 1439 701 
Q 1688 409 2113 409 
Q 2538 409 2786 701 
Q 3034 994 3034 1497 
Q 3034 2003 2786 2293 
Q 2538 2584 2113 2584 
z
M 3366 4563 
L 3366 3988 
Q 3128 4100 2886 4159 
Q 2644 4219 2406 4219 
Q 1781 4219 1451 3797 
Q 1122 3375 1075 2522 
Q 1259 2794 1537 2939 
Q 1816 3084 2150 3084 
Q 2853 3084 3261 2657 
Q 3669 2231 3669 1497 
Q 3669 778 3244 343 
Q 2819 -91 2113 -91 
Q 1303 -91 875 529 
Q 447 1150 447 2328 
Q 447 3434 972 4092 
Q 1497 4750 2381 4750 
Q 2619 4750 2861 4703 
Q 3103 4656 3366 4563 
z
" transform="scale(0.015625)"/>
      </defs>
      <use xlink:href="#DejaVuSans-73"/>
      <use xlink:href="#DejaVuSans-69" x="52.099609"/>
      <use xlink:href="#DejaVuSans-74" x="79.882812"/>
      <use xlink:href="#DejaVuSans-65" x="119.091797"/>
      <use xlink:href="#DejaVuSans-20" x="180.615234"/>
      <use xlink:href="#DejaVuSans-36" x="212.402344"/>
     </g>
    </g>
    <g id="Path3DCollection_10">
     <defs>
      <path id="ma2ede4776d" d="M 0 2.236068 
C 0.593012 2.236068 1.161816 2.000462 1.581139 1.581139 
C 2.000462 1.161816 2.236068 0.593012 2.236068 0 
C 2.236068 -0.593012 2.000462 -1.161816 1.581139 -1.581139 
C 1.161816 -2.000462 0.593012 -2.236068 0 -2.236068 
C -0.593012 -2.236068 -1.161816 -2.000462 -1.581139 -1.581139 
C -2.000462 -1.161816 -2.236068 -0.593012 -2.236068 0 
C -2.236068 0.593012 -2.000462 1.161816 -1.581139 1.581139 
C -1.161816 2.000462 -0.593012 2.236068 0 2.236068 
z
" style="stroke: #000000"/>
     </defs>
     <g>
      <use xlink:href="#ma2ede4776d" x="314.614438" y="264.523063" style="stroke: #000000"/>
     </g>
    </g>
    <g id="text_28">
     <!-- site 7 -->
     <g transform="translate(332.614438 267.148063) scale(0.1 -0.1)">
      <defs>
       <path id="DejaVuSans-37" d="M 525 4666 
L 3525 4666 
L 3525 4397 
L 1831 0 
L 1172 0 
L 2766 4134 
L 525 4134 
L 525 4666 
z
" transform="scale(0.015625)"/>
      </defs>
      <use xlink:href="#DejaVuSans-73"/>
      <use xlink:href="#DejaVuSans-69" x="52.099609"/>
      <use xlink:href="#DejaVuSans-74" x="79.882812"/>
      <use xlink:href="#DejaVuSans-65" x="119.091797"/>
      <use xlink:href="#DejaVuSans-20" x="180.615234"/>
      <use xlink:href="#DejaVuSans-37" x="212.402344"/>
     </g>
    </g>
    <g id="Path3DCollection_11">
     <defs>
      <path id="m3db734bd1d" d="M 0 2.236068 
C 0.593012 2.236068 1.161816 2.000462 1.581139 1.581139 
C 2.000462 1.161816 2.236068 0.593012 2.236068 0 
C 2.236068 -0.593012 2.000462 -1.161816 1.581139 -1.581139 
C 1.161816 -2.000462 0.593012 -2.236068 0 -2.236068 
C -0.593012 -2.236068 -1.161816 -2.000462 -1.581139 -1.581139 
C -2.000462 -1.161816 -2.236068 -0.593012 -2.236068 0 
C -2.236068 0.593012 -2.000462 1.161816 -1.581139 1.581139 
C -1.161816 2.000462 -0.593012 2.236068 0 2.236068 
z
" style="stroke: #ffa500"/>
     </defs>
     <g>
      <use xlink:href="#m3db734bd1d" x="314.614438" y="279.201188" style="fill: #ffa500; stroke: #ffa500"/>
     </g>
    </g>
    <g id="text_29">
     <!-- site 8 -->
     <g transform="translate(332.614438 281.826188) scale(0.1 -0.1)">
      <defs>
       <path id="DejaVuSans-38" d="M 2034 2216 
Q 1584 2216 1326 1975 
Q 1069 1734 1069 1313 
Q 1069 891 1326 650 
Q 1584 409 2034 409 
Q 2484 409 2743 651 
Q 3003 894 3003 1313 
Q 3003 1734 2745 1975 
Q 2488 2216 2034 2216 
z
M 1403 2484 
Q 997 2584 770 2862 
Q 544 3141 544 3541 
Q 544 4100 942 4425 
Q 1341 4750 2034 4750 
Q 2731 4750 3128 4425 
Q 3525 4100 3525 3541 
Q 3525 3141 3298 2862 
Q 3072 2584 2669 2484 
Q 3125 2378 3379 2068 
Q 3634 1759 3634 1313 
Q 3634 634 3220 271 
Q 2806 -91 2034 -91 
Q 1263 -91 848 271 
Q 434 634 434 1313 
Q 434 1759 690 2068 
Q 947 2378 1403 2484 
z
M 1172 3481 
Q 1172 3119 1398 2916 
Q 1625 2713 2034 2713 
Q 2441 2713 2670 2916 
Q 2900 3119 2900 3481 
Q 2900 3844 2670 4047 
Q 2441 4250 2034 4250 
Q 1625 4250 1398 4047 
Q 1172 3844 1172 3481 
z
" transform="scale(0.015625)"/>
      </defs>
      <use xlink:href="#DejaVuSans-73"/>
      <use xlink:href="#DejaVuSans-69" x="52.099609"/>
      <use xlink:href="#DejaVuSans-74" x="79.882812"/>
      <use xlink:href="#DejaVuSans-65" x="119.091797"/>
      <use xlink:href="#DejaVuSans-20" x="180.615234"/>
      <use xlink:href="#DejaVuSans-38" x="212.402344"/>
     </g>
    </g>
    <g id="Path3DCollection_12">
     <defs>
      <path id="mc635ea64a1" d="M 0 2.236068 
C 0.593012 2.236068 1.161816 2.000462 1.581139 1.581139 
C 2.000462 1.161816 2.236068 0.593012 2.236068 0 
C 2.236068 -0.593012 2.000462 -1.161816 1.581139 -1.581139 
C 1.161816 -2.000462 0.593012 -2.236068 0 -2.236068 
C -0.593012 -2.236068 -1.161816 -2.000462 -1.581139 -1.581139 
C -2.000462 -1.161816 -2.236068 -0.593012 -2.236068 0 
C -2.236068 0.593012 -2.000462 1.161816 -1.581139 1.581139 
C -1.161816 2.000462 -0.593012 2.236068 0 2.236068 
z
" style="stroke: #800080"/>
     </defs>
     <g>
      <use xlink:href="#mc635ea64a1" x="314.614438" y="293.879312" style="fill: #800080; stroke: #800080"/>
     </g>
    </g>
    <g id="text_30">
     <!-- site 9 -->
     <g transform="translate(332.614438 296.504312) scale(0.1 -0.1)">
      <defs>
       <path id="DejaVuSans-39" d="M 703 97 
L 703 672 
Q 941 559 1184 500 
Q 1428 441 1663 441 
Q 2288 441 2617 861 
Q 2947 1281 2994 2138 
Q 2813 1869 2534 1725 
Q 2256 1581 1919 1581 
Q 1219 1581 811 2004 
Q 403 2428 403 3163 
Q 403 3881 828 4315 
Q 1253 4750 1959 4750 
Q 2769 4750 3195 4129 
Q 3622 3509 3622 2328 
Q 3622 1225 3098 567 
Q 2575 -91 1691 -91 
Q 1453 -91 1209 -44 
Q 966 3 703 97 
z
M 1959 2075 
Q 2384 2075 2632 2365 
Q 2881 2656 2881 3163 
Q 2881 3666 2632 3958 
Q 2384 4250 1959 4250 
Q 1534 4250 1286 3958 
Q 1038 3666 1038 3163 
Q 1038 2656 1286 2365 
Q 1534 2075 1959 2075 
z
" transform="scale(0.015625)"/>
      </defs>
      <use xlink:href="#DejaVuSans-73"/>
      <use xlink:href="#DejaVuSans-69" x="52.099609"/>
      <use xlink:href="#DejaVuSans-74" x="79.882812"/>
      <use xlink:href="#DejaVuSans-65" x="119.091797"/>
      <use xlink:href="#DejaVuSans-20" x="180.615234"/>
      <use xlink:href="#DejaVuSans-39" x="212.402344"/>
     </g>
    </g>
   </g>
   <g id="Path3DCollection_13">
    <defs>
     <path id="C3_0_a2b86c70e8" d="M 0 2.236068 
C 0.593012 2.236068 1.161816 2.000462 1.581139 1.581139 
C 2.000462 1.161816 2.236068 0.593012 2.236068 -0 
C 2.236068 -0.593012 2.000462 -1.161816 1.581139 -1.581139 
C 1.161816 -2.000462 0.593012 -2.236068 0 -2.236068 
C -0.593012 -2.236068 -1.161816 -2.000462 -1.581139 -1.581139 
C -2.000462 -1.161816 -2.236068 -0.593012 -2.236068 0 
C -2.236068 0.593012 -2.000462 1.161816 -1.581139 1.581139 
C -1.161816 2.000462 -0.593012 2.236068 0 2.236068 
z
"/>
    </defs>
    <g clip-path="url(#p581c0c53f0)">
     <use xlink:href="#C3_0_a2b86c70e8" x="319.88078" y="131.751723" style="fill-opacity: 0.3; stroke: #000000; stroke-opacity: 0.3"/>
    </g>
    <g clip-path="url(#p581c0c53f0)">
     <use xlink:href="#C3_0_a2b86c70e8" x="324.380048" y="143.277635" style="fill-opacity: 0.355313; stroke: #000000; stroke-opacity: 0.355313"/>
    </g>
    <g clip-path="url(#p581c0c53f0)">
     <use xlink:href="#C3_0_a2b86c70e8" x="324.456524" y="154.955975" style="fill-opacity: 0.432676; stroke: #000000; stroke-opacity: 0.432676"/>
    </g>
    <g clip-path="url(#p581c0c53f0)">
     <use xlink:href="#C3_0_a2b86c70e8" x="320.137769" y="165.848338" style="fill-opacity: 0.526778; stroke: #000000; stroke-opacity: 0.526778"/>
    </g>
    <g clip-path="url(#p581c0c53f0)">
     <use xlink:href="#C3_0_a2b86c70e8" x="311.863854" y="175.070874" style="fill-opacity: 0.631021; stroke: #000000; stroke-opacity: 0.631021"/>
    </g>
    <g clip-path="url(#p581c0c53f0)">
     <use xlink:href="#C3_0_a2b86c70e8" x="300.461925" y="181.878368" style="fill-opacity: 0.737965; stroke: #000000; stroke-opacity: 0.737965"/>
    </g>
    <g clip-path="url(#p581c0c53f0)">
     <use xlink:href="#C3_0_a2b86c70e8" x="287.076303" y="185.742608" style="fill-opacity: 0.83988; stroke: #000000; stroke-opacity: 0.83988"/>
    </g>
    <g clip-path="url(#p581c0c53f0)">
     <use xlink:href="#C3_0_a2b86c70e8" x="273.055344" y="186.414315" style="fill-opacity: 0.929368; stroke: #000000; stroke-opacity: 0.929368"/>
    </g>
    <g clip-path="url(#p581c0c53f0)">
     <use xlink:href="#C3_0_a2b86c70e8" x="259.804625" y="183.957833" style="stroke: #000000"/>
    </g>
   </g>
   <g id="Path3DCollection_14">
    <defs>
     <path id="C4_0_a0b2e33f5d" d="M 0 2.236068 
C 0.593012 2.236068 1.161816 2.000462 1.581139 1.581139 
C 2.000462 1.161816 2.236068 0.593012 2.236068 -0 
C 2.236068 -0.593012 2.000462 -1.161816 1.581139 -1.581139 
C 1.161816 -2.000462 0.593012 -2.236068 0 -2.236068 
C -0.593012 -2.236068 -1.161816 -2.000462 -1.581139 -1.581139 
C -2.000462 -1.161816 -2.236068 -0.593012 -2.236068 0 
C -2.236068 0.593012 -2.000462 1.161816 -1.581139 1.581139 
C -1.161816 2.000462 -0.593012 2.236068 0 2.236068 
z
"/>
    </defs>
    <g clip-path="url(#p581c0c53f0)">
     <use xlink:href="#C4_0_a0b2e33f5d" x="265.354904" y="120.490975" style="fill: #bfbf00; fill-opacity: 0.3; stroke: #bfbf00; stroke-opacity: 0.3"/>
    </g>
    <g clip-path="url(#p581c0c53f0)">
     <use xlink:href="#C4_0_a0b2e33f5d" x="243.509441" y="118.321177" style="fill: #bfbf00; fill-opacity: 0.449943; stroke: #bfbf00; stroke-opacity: 0.449943"/>
    </g>
    <g clip-path="url(#p581c0c53f0)">
     <use xlink:href="#C4_0_a0b2e33f5d" x="220.154531" y="119.801422" style="fill: #bfbf00; fill-opacity: 0.604936; stroke: #bfbf00; stroke-opacity: 0.604936"/>
    </g>
    <g clip-path="url(#p581c0c53f0)">
     <use xlink:href="#C4_0_a0b2e33f5d" x="197.125946" y="124.993651" style="fill: #bfbf00; fill-opacity: 0.750857; stroke: #bfbf00; stroke-opacity: 0.750857"/>
    </g>
    <g clip-path="url(#p581c0c53f0)">
     <use xlink:href="#C4_0_a0b2e33f5d" x="176.34847" y="133.602891" style="fill: #bfbf00; fill-opacity: 0.873493; stroke: #bfbf00; stroke-opacity: 0.873493"/>
    </g>
    <g clip-path="url(#p581c0c53f0)">
     <use xlink:href="#C4_0_a0b2e33f5d" x="146.315921" y="185.102535" style="fill: #bfbf00; fill-opacity: 0.920821; stroke: #bfbf00; stroke-opacity: 0.920821"/>
    </g>
    <g clip-path="url(#p581c0c53f0)">
     <use xlink:href="#C4_0_a0b2e33f5d" x="159.637843" y="144.977893" style="fill: #bfbf00; fill-opacity: 0.959937; stroke: #bfbf00; stroke-opacity: 0.959937"/>
    </g>
    <g clip-path="url(#p581c0c53f0)">
     <use xlink:href="#C4_0_a0b2e33f5d" x="143.927772" y="171.9576" style="fill: #bfbf00; fill-opacity: 0.987447; stroke: #bfbf00; stroke-opacity: 0.987447"/>
    </g>
    <g clip-path="url(#p581c0c53f0)">
     <use xlink:href="#C4_0_a0b2e33f5d" x="148.495718" y="158.156866" style="fill: #bfbf00; stroke: #bfbf00"/>
    </g>
   </g>
   <g id="Path3DCollection_15">
    <defs>
     <path id="C5_0_b265d94662" d="M 0 2.236068 
C 0.593012 2.236068 1.161816 2.000462 1.581139 1.581139 
C 2.000462 1.161816 2.236068 0.593012 2.236068 -0 
C 2.236068 -0.593012 2.000462 -1.161816 1.581139 -1.581139 
C 1.161816 -2.000462 0.593012 -2.236068 0 -2.236068 
C -0.593012 -2.236068 -1.161816 -2.000462 -1.581139 -1.581139 
C -2.000462 -1.161816 -2.236068 -0.593012 -2.236068 0 
C -2.236068 0.593012 -2.000462 1.161816 -1.581139 1.581139 
C -1.161816 2.000462 -0.593012 2.236068 0 2.236068 
z
"/>
    </defs>
    <g clip-path="url(#p581c0c53f0)">
     <use xlink:href="#C5_0_b265d94662" x="160.221634" y="201.176911" style="fill: #0000ff; fill-opacity: 0.3; stroke: #0000ff; stroke-opacity: 0.3"/>
    </g>
    <g clip-path="url(#p581c0c53f0)">
     <use xlink:href="#C5_0_b265d94662" x="149.948061" y="194.647158" style="fill: #0000ff; fill-opacity: 0.352243; stroke: #0000ff; stroke-opacity: 0.352243"/>
    </g>
    <g clip-path="url(#p581c0c53f0)">
     <use xlink:href="#C5_0_b265d94662" x="142.097843" y="186.545227" style="fill: #0000ff; fill-opacity: 0.448549; stroke: #0000ff; stroke-opacity: 0.448549"/>
    </g>
    <g clip-path="url(#p581c0c53f0)">
     <use xlink:href="#C5_0_b265d94662" x="137.576433" y="177.245402" style="fill: #0000ff; fill-opacity: 0.57653; stroke: #0000ff; stroke-opacity: 0.57653"/>
    </g>
    <g clip-path="url(#p581c0c53f0)">
     <use xlink:href="#C5_0_b265d94662" x="137.090797" y="167.265038" style="fill: #0000ff; fill-opacity: 0.718224; stroke: #0000ff; stroke-opacity: 0.718224"/>
    </g>
    <g clip-path="url(#p581c0c53f0)">
     <use xlink:href="#C5_0_b265d94662" x="141.06611" y="157.231748" style="fill: #0000ff; fill-opacity: 0.851653; stroke: #0000ff; stroke-opacity: 0.851653"/>
    </g>
    <g clip-path="url(#p581c0c53f0)">
     <use xlink:href="#C5_0_b265d94662" x="149.583303" y="147.836634" style="fill: #0000ff; fill-opacity: 0.953123; stroke: #0000ff; stroke-opacity: 0.953123"/>
    </g>
    <g clip-path="url(#p581c0c53f0)">
     <use xlink:href="#C5_0_b265d94662" x="178.686873" y="133.68548" style="fill: #0000ff; fill-opacity: 0.973552; stroke: #0000ff; stroke-opacity: 0.973552"/>
    </g>
    <g clip-path="url(#p581c0c53f0)">
     <use xlink:href="#C5_0_b265d94662" x="162.346435" y="139.775945" style="fill: #0000ff; stroke: #0000ff"/>
    </g>
   </g>
   <g id="Path3DCollection_16">
    <defs>
     <path id="C6_0_593c38c1bb" d="M 0 2.236068 
C 0.593012 2.236068 1.161816 2.000462 1.581139 1.581139 
C 2.000462 1.161816 2.236068 0.593012 2.236068 -0 
C 2.236068 -0.593012 2.000462 -1.161816 1.581139 -1.581139 
C 1.161816 -2.000462 0.593012 -2.236068 0 -2.236068 
C -0.593012 -2.236068 -1.161816 -2.000462 -1.581139 -1.581139 
C -2.000462 -1.161816 -2.236068 -0.593012 -2.236068 0 
C -2.236068 0.593012 -2.000462 1.161816 -1.581139 1.581139 
C -1.161816 2.000462 -0.593012 2.236068 0 2.236068 
z
"/>
    </defs>
    <g clip-path="url(#p581c0c53f0)">
     <use xlink:href="#C6_0_593c38c1bb" x="256.637779" y="205.795585" style="fill: #00bfbf; fill-opacity: 0.3; stroke: #00bfbf; stroke-opacity: 0.3"/>
    </g>
    <g clip-path="url(#p581c0c53f0)">
     <use xlink:href="#C6_0_593c38c1bb" x="265.03554" y="204.608422" style="fill: #00bfbf; fill-opacity: 0.404039; stroke: #00bfbf; stroke-opacity: 0.404039"/>
    </g>
    <g clip-path="url(#p581c0c53f0)">
     <use xlink:href="#C6_0_593c38c1bb" x="271.206118" y="202.722988" style="fill: #00bfbf; fill-opacity: 0.517709; stroke: #00bfbf; stroke-opacity: 0.517709"/>
    </g>
    <g clip-path="url(#p581c0c53f0)">
     <use xlink:href="#C6_0_593c38c1bb" x="275.106056" y="200.520894" style="fill: #00bfbf; fill-opacity: 0.632579; stroke: #00bfbf; stroke-opacity: 0.632579"/>
    </g>
    <g clip-path="url(#p581c0c53f0)">
     <use xlink:href="#C6_0_593c38c1bb" x="276.953377" y="198.354505" style="fill: #00bfbf; fill-opacity: 0.740686; stroke: #00bfbf; stroke-opacity: 0.740686"/>
    </g>
    <g clip-path="url(#p581c0c53f0)">
     <use xlink:href="#C6_0_593c38c1bb" x="277.179063" y="196.501281" style="fill: #00bfbf; fill-opacity: 0.835316; stroke: #00bfbf; stroke-opacity: 0.835316"/>
    </g>
    <g clip-path="url(#p581c0c53f0)">
     <use xlink:href="#C6_0_593c38c1bb" x="276.351724" y="195.128665" style="fill: #00bfbf; fill-opacity: 0.911557; stroke: #00bfbf; stroke-opacity: 0.911557"/>
    </g>
    <g clip-path="url(#p581c0c53f0)">
     <use xlink:href="#C6_0_593c38c1bb" x="275.086129" y="194.275136" style="fill: #00bfbf; fill-opacity: 0.966629; stroke: #00bfbf; stroke-opacity: 0.966629"/>
    </g>
    <g clip-path="url(#p581c0c53f0)">
     <use xlink:href="#C6_0_593c38c1bb" x="273.948586" y="193.850761" style="fill: #00bfbf; stroke: #00bfbf"/>
    </g>
   </g>
   <g id="Path3DCollection_17">
    <defs>
     <path id="C7_0_206499e6f3" d="M 0 2.236068 
C 0.593012 2.236068 1.161816 2.000462 1.581139 1.581139 
C 2.000462 1.161816 2.236068 0.593012 2.236068 -0 
C 2.236068 -0.593012 2.000462 -1.161816 1.581139 -1.581139 
C 1.161816 -2.000462 0.593012 -2.236068 0 -2.236068 
C -0.593012 -2.236068 -1.161816 -2.000462 -1.581139 -1.581139 
C -2.000462 -1.161816 -2.236068 -0.593012 -2.236068 0 
C -2.236068 0.593012 -2.000462 1.161816 -1.581139 1.581139 
C -1.161816 2.000462 -0.593012 2.236068 0 2.236068 
z
"/>
    </defs>
    <g clip-path="url(#p581c0c53f0)">
     <use xlink:href="#C7_0_206499e6f3" x="270.161454" y="191.767803" style="fill: #008000; fill-opacity: 0.3; stroke: #008000; stroke-opacity: 0.3"/>
    </g>
    <g clip-path="url(#p581c0c53f0)">
     <use xlink:href="#C7_0_206499e6f3" x="272.826873" y="183.710553" style="fill: #008000; fill-opacity: 0.471935; stroke: #008000; stroke-opacity: 0.471935"/>
    </g>
    <g clip-path="url(#p581c0c53f0)">
     <use xlink:href="#C7_0_206499e6f3" x="271.193255" y="174.527823" style="fill: #008000; fill-opacity: 0.640417; stroke: #008000; stroke-opacity: 0.640417"/>
    </g>
    <g clip-path="url(#p581c0c53f0)">
     <use xlink:href="#C7_0_206499e6f3" x="264.937284" y="164.808752" style="fill: #008000; fill-opacity: 0.790605; stroke: #008000; stroke-opacity: 0.790605"/>
    </g>
    <g clip-path="url(#p581c0c53f0)">
     <use xlink:href="#C7_0_206499e6f3" x="178.284753" y="131.880947" style="fill: #008000; fill-opacity: 0.857426; stroke: #008000; stroke-opacity: 0.857426"/>
    </g>
    <g clip-path="url(#p581c0c53f0)">
     <use xlink:href="#C7_0_206499e6f3" x="254.094122" y="155.23681" style="fill: #008000; fill-opacity: 0.90831; stroke: #008000; stroke-opacity: 0.90831"/>
    </g>
    <g clip-path="url(#p581c0c53f0)">
     <use xlink:href="#C7_0_206499e6f3" x="199.976453" y="134.349858" style="fill: #008000; fill-opacity: 0.959136; stroke: #008000; stroke-opacity: 0.959136"/>
    </g>
    <g clip-path="url(#p581c0c53f0)">
     <use xlink:href="#C7_0_206499e6f3" x="239.080315" y="146.530195" style="fill: #008000; fill-opacity: 0.98122; stroke: #008000; stroke-opacity: 0.98122"/>
    </g>
    <g clip-path="url(#p581c0c53f0)">
     <use xlink:href="#C7_0_206499e6f3" x="220.677595" y="139.373598" style="fill: #008000; stroke: #008000"/>
    </g>
   </g>
   <g id="Path3DCollection_18">
    <defs>
     <path id="C8_0_bab1031f0b" d="M 0 2.236068 
C 0.593012 2.236068 1.161816 2.000462 1.581139 1.581139 
C 2.000462 1.161816 2.236068 0.593012 2.236068 -0 
C 2.236068 -0.593012 2.000462 -1.161816 1.581139 -1.581139 
C 1.161816 -2.000462 0.593012 -2.236068 0 -2.236068 
C -0.593012 -2.236068 -1.161816 -2.000462 -1.581139 -1.581139 
C -2.000462 -1.161816 -2.236068 -0.593012 -2.236068 0 
C -2.236068 0.593012 -2.000462 1.161816 -1.581139 1.581139 
C -1.161816 2.000462 -0.593012 2.236068 0 2.236068 
z
"/>
    </defs>
    <g clip-path="url(#p581c0c53f0)">
     <use xlink:href="#C8_0_bab1031f0b" x="254.517845" y="115.670139" style="fill: #800080; fill-opacity: 0.3; stroke: #800080; stroke-opacity: 0.3"/>
    </g>
    <g clip-path="url(#p581c0c53f0)">
     <use xlink:href="#C8_0_bab1031f0b" x="245.747694" y="119.377426" style="fill: #800080; fill-opacity: 0.457582; stroke: #800080; stroke-opacity: 0.457582"/>
    </g>
    <g clip-path="url(#p581c0c53f0)">
     <use xlink:href="#C8_0_bab1031f0b" x="238.80968" y="125.225115" style="fill: #800080; fill-opacity: 0.606214; stroke: #800080; stroke-opacity: 0.606214"/>
    </g>
    <g clip-path="url(#p581c0c53f0)">
     <use xlink:href="#C8_0_bab1031f0b" x="234.133676" y="132.795075" style="fill: #800080; fill-opacity: 0.738387; stroke: #800080; stroke-opacity: 0.738387"/>
    </g>
    <g clip-path="url(#p581c0c53f0)">
     <use xlink:href="#C8_0_bab1031f0b" x="231.971565" y="141.580627" style="fill: #800080; fill-opacity: 0.84773; stroke: #800080; stroke-opacity: 0.84773"/>
    </g>
    <g clip-path="url(#p581c0c53f0)">
     <use xlink:href="#C8_0_bab1031f0b" x="232.395291" y="151.025204" style="fill: #800080; fill-opacity: 0.929437; stroke: #800080; stroke-opacity: 0.929437"/>
    </g>
    <g clip-path="url(#p581c0c53f0)">
     <use xlink:href="#C8_0_bab1031f0b" x="235.308769" y="160.562228" style="fill: #800080; fill-opacity: 0.980536; stroke: #800080; stroke-opacity: 0.980536"/>
    </g>
    <g clip-path="url(#p581c0c53f0)">
     <use xlink:href="#C8_0_bab1031f0b" x="247.523908" y="177.816201" style="fill: #800080; fill-opacity: 0.988686; stroke: #800080; stroke-opacity: 0.988686"/>
    </g>
    <g clip-path="url(#p581c0c53f0)">
     <use xlink:href="#C8_0_bab1031f0b" x="240.470598" y="169.6525" style="fill: #800080; stroke: #800080"/>
    </g>
   </g>
  </g>
 </g>
 <defs>
  <clipPath id="p581c0c53f0">
   <rect x="103.104" y="41.472" width="266.112" height="266.112"/>
  </clipPath>
 </defs>
</svg>
