<?xml version="1.0" encoding="utf-8" standalone="no"?>
<!DOCTYPE svg PUBLIC "-//W3C//DTD SVG 1.1//EN"
  "http://www.w3.org/Graphics/SVG/1.1/DTD/svg11.dtd">
<svg xmlns:xlink="http://www.w3.org/1999/xlink" width="460.8pt" height="345.6pt" viewBox="0 0 460.8 345.6" xmlns="http://www.w3.org/2000/svg" version="1.1">
 <metadata>
  <rdf:RDF xmlns:dc="http://purl.org/dc/elements/1.1/" xmlns:cc="http://creativecommons.org/ns#" xmlns:rdf="http://www.w3.org/1999/02/22-rdf-syntax-ns#">
   <cc:Work>
    <dc:type rdf:resource="http://purl.org/dc/dcmitype/StillImage"/>
    <dc:date>2024-08-31T17:01:46.987447</dc:date>
    <dc:format>image/svg+xml</dc:format>
    <dc:creator>
     <cc:Agent>
      <dc:title>Matplotlib v3.7.1, https://matplotlib.org/</dc:title>
     </cc:Agent>
    </dc:creator>
   </cc:Work>
  </rdf:RDF>
 </metadata>
 <defs>
  <style type="text/css">*{stroke-linejoin: round; stroke-linecap: butt}</style>
 </defs>
 <g id="figure_1">
  <g id="patch_1">
   <path d="M 0 345.6 
L 460.8 345.6 
L 460.8 0 
L 0 0 
z
" style="fill: #ffffff"/>
  </g>
  <g id="axes_1">
   <g id="patch_2">
    <path d="M 57.6 307.584 
L 414.72 307.584 
L 414.72 41.472 
L 57.6 41.472 
z
" style="fill: #ffffff"/>
   </g>
   <g id="matplotlib.axis_1">
    <g id="xtick_1">
     <g id="line2d_1">
      <defs>
       <path id="mff2b3f0534" d="M 0 0 
L 0 3.5 
" style="stroke: #000000; stroke-width: 0.8"/>
      </defs>
      <g>
       <use xlink:href="#mff2b3f0534" x="73.832727" y="307.584" style="stroke: #000000; stroke-width: 0.8"/>
      </g>
     </g>
     <g id="text_1">
      <!-- 0 -->
      <g transform="translate(70.651477 322.182437) scale(0.1 -0.1)">
       <defs>
        <path id="DejaVuSans-30" d="M 2034 4250 
Q 1547 4250 1301 3770 
Q 1056 3291 1056 2328 
Q 1056 1369 1301 889 
Q 1547 409 2034 409 
Q 2525 409 2770 889 
Q 3016 1369 3016 2328 
Q 3016 3291 2770 3770 
Q 2525 4250 2034 4250 
z
M 2034 4750 
Q 2819 4750 3233 4129 
Q 3647 3509 3647 2328 
Q 3647 1150 3233 529 
Q 2819 -91 2034 -91 
Q 1250 -91 836 529 
Q 422 1150 422 2328 
Q 422 3509 836 4129 
Q 1250 4750 2034 4750 
z
" transform="scale(0.015625)"/>
       </defs>
       <use xlink:href="#DejaVuSans-30"/>
      </g>
     </g>
    </g>
    <g id="xtick_2">
     <g id="line2d_2">
      <g>
       <use xlink:href="#mff2b3f0534" x="137.303802" y="307.584" style="stroke: #000000; stroke-width: 0.8"/>
      </g>
     </g>
     <g id="text_2">
      <!-- 200 -->
      <g transform="translate(127.760052 322.182437) scale(0.1 -0.1)">
       <defs>
        <path id="DejaVuSans-32" d="M 1228 531 
L 3431 531 
L 3431 0 
L 469 0 
L 469 531 
Q 828 903 1448 1529 
Q 2069 2156 2228 2338 
Q 2531 2678 2651 2914 
Q 2772 3150 2772 3378 
Q 2772 3750 2511 3984 
Q 2250 4219 1831 4219 
Q 1534 4219 1204 4116 
Q 875 4013 500 3803 
L 500 4441 
Q 881 4594 1212 4672 
Q 1544 4750 1819 4750 
Q 2544 4750 2975 4387 
Q 3406 4025 3406 3419 
Q 3406 3131 3298 2873 
Q 3191 2616 2906 2266 
Q 2828 2175 2409 1742 
Q 1991 1309 1228 531 
z
" transform="scale(0.015625)"/>
       </defs>
       <use xlink:href="#DejaVuSans-32"/>
       <use xlink:href="#DejaVuSans-30" x="63.623047"/>
       <use xlink:href="#DejaVuSans-30" x="127.246094"/>
      </g>
     </g>
    </g>
    <g id="xtick_3">
     <g id="line2d_3">
      <g>
       <use xlink:href="#mff2b3f0534" x="200.774876" y="307.584" style="stroke: #000000; stroke-width: 0.8"/>
      </g>
     </g>
     <g id="text_3">
      <!-- 400 -->
      <g transform="translate(191.231126 322.182437) scale(0.1 -0.1)">
       <defs>
        <path id="DejaVuSans-34" d="M 2419 4116 
L 825 1625 
L 2419 1625 
L 2419 4116 
z
M 2253 4666 
L 3047 4666 
L 3047 1625 
L 3713 1625 
L 3713 1100 
L 3047 1100 
L 3047 0 
L 2419 0 
L 2419 1100 
L 313 1100 
L 313 1709 
L 2253 4666 
z
" transform="scale(0.015625)"/>
       </defs>
       <use xlink:href="#DejaVuSans-34"/>
       <use xlink:href="#DejaVuSans-30" x="63.623047"/>
       <use xlink:href="#DejaVuSans-30" x="127.246094"/>
      </g>
     </g>
    </g>
    <g id="xtick_4">
     <g id="line2d_4">
      <g>
       <use xlink:href="#mff2b3f0534" x="264.24595" y="307.584" style="stroke: #000000; stroke-width: 0.8"/>
      </g>
     </g>
     <g id="text_4">
      <!-- 600 -->
      <g transform="translate(254.7022 322.182437) scale(0.1 -0.1)">
       <defs>
        <path id="DejaVuSans-36" d="M 2113 2584 
Q 1688 2584 1439 2293 
Q 1191 2003 1191 1497 
Q 1191 994 1439 701 
Q 1688 409 2113 409 
Q 2538 409 2786 701 
Q 3034 994 3034 1497 
Q 3034 2003 2786 2293 
Q 2538 2584 2113 2584 
z
M 3366 4563 
L 3366 3988 
Q 3128 4100 2886 4159 
Q 2644 4219 2406 4219 
Q 1781 4219 1451 3797 
Q 1122 3375 1075 2522 
Q 1259 2794 1537 2939 
Q 1816 3084 2150 3084 
Q 2853 3084 3261 2657 
Q 3669 2231 3669 1497 
Q 3669 778 3244 343 
Q 2819 -91 2113 -91 
Q 1303 -91 875 529 
Q 447 1150 447 2328 
Q 447 3434 972 4092 
Q 1497 4750 2381 4750 
Q 2619 4750 2861 4703 
Q 3103 4656 3366 4563 
z
" transform="scale(0.015625)"/>
       </defs>
       <use xlink:href="#DejaVuSans-36"/>
       <use xlink:href="#DejaVuSans-30" x="63.623047"/>
       <use xlink:href="#DejaVuSans-30" x="127.246094"/>
      </g>
     </g>
    </g>
    <g id="xtick_5">
     <g id="line2d_5">
      <g>
       <use xlink:href="#mff2b3f0534" x="327.717025" y="307.584" style="stroke: #000000; stroke-width: 0.8"/>
      </g>
     </g>
     <g id="text_5">
      <!-- 800 -->
      <g transform="translate(318.173275 322.182437) scale(0.1 -0.1)">
       <defs>
        <path id="DejaVuSans-38" d="M 2034 2216 
Q 1584 2216 1326 1975 
Q 1069 1734 1069 1313 
Q 1069 891 1326 650 
Q 1584 409 2034 409 
Q 2484 409 2743 651 
Q 3003 894 3003 1313 
Q 3003 1734 2745 1975 
Q 2488 2216 2034 2216 
z
M 1403 2484 
Q 997 2584 770 2862 
Q 544 3141 544 3541 
Q 544 4100 942 4425 
Q 1341 4750 2034 4750 
Q 2731 4750 3128 4425 
Q 3525 4100 3525 3541 
Q 3525 3141 3298 2862 
Q 3072 2584 2669 2484 
Q 3125 2378 3379 2068 
Q 3634 1759 3634 1313 
Q 3634 634 3220 271 
Q 2806 -91 2034 -91 
Q 1263 -91 848 271 
Q 434 634 434 1313 
Q 434 1759 690 2068 
Q 947 2378 1403 2484 
z
M 1172 3481 
Q 1172 3119 1398 2916 
Q 1625 2713 2034 2713 
Q 2441 2713 2670 2916 
Q 2900 3119 2900 3481 
Q 2900 3844 2670 4047 
Q 2441 4250 2034 4250 
Q 1625 4250 1398 4047 
Q 1172 3844 1172 3481 
z
" transform="scale(0.015625)"/>
       </defs>
       <use xlink:href="#DejaVuSans-38"/>
       <use xlink:href="#DejaVuSans-30" x="63.623047"/>
       <use xlink:href="#DejaVuSans-30" x="127.246094"/>
      </g>
     </g>
    </g>
    <g id="xtick_6">
     <g id="line2d_6">
      <g>
       <use xlink:href="#mff2b3f0534" x="391.188099" y="307.584" style="stroke: #000000; stroke-width: 0.8"/>
      </g>
     </g>
     <g id="text_6">
      <!-- 1000 -->
      <g transform="translate(378.463099 322.182437) scale(0.1 -0.1)">
       <defs>
        <path id="DejaVuSans-31" d="M 794 531 
L 1825 531 
L 1825 4091 
L 703 3866 
L 703 4441 
L 1819 4666 
L 2450 4666 
L 2450 531 
L 3481 531 
L 3481 0 
L 794 0 
L 794 531 
z
" transform="scale(0.015625)"/>
       </defs>
       <use xlink:href="#DejaVuSans-31"/>
       <use xlink:href="#DejaVuSans-30" x="63.623047"/>
       <use xlink:href="#DejaVuSans-30" x="127.246094"/>
       <use xlink:href="#DejaVuSans-30" x="190.869141"/>
      </g>
     </g>
    </g>
    <g id="text_7">
     <!-- n -->
     <g transform="translate(232.99125 335.860562) scale(0.1 -0.1)">
      <defs>
       <path id="DejaVuSans-6e" d="M 3513 2113 
L 3513 0 
L 2938 0 
L 2938 2094 
Q 2938 2591 2744 2837 
Q 2550 3084 2163 3084 
Q 1697 3084 1428 2787 
Q 1159 2491 1159 1978 
L 1159 0 
L 581 0 
L 581 3500 
L 1159 3500 
L 1159 2956 
Q 1366 3272 1645 3428 
Q 1925 3584 2291 3584 
Q 2894 3584 3203 3211 
Q 3513 2838 3513 2113 
z
" transform="scale(0.015625)"/>
      </defs>
      <use xlink:href="#DejaVuSans-6e"/>
     </g>
    </g>
   </g>
   <g id="matplotlib.axis_2">
    <g id="ytick_1">
     <g id="line2d_7">
      <defs>
       <path id="m64515510f5" d="M 0 0 
L -3.5 0 
" style="stroke: #000000; stroke-width: 0.8"/>
      </defs>
      <g>
       <use xlink:href="#m64515510f5" x="57.6" y="293.04586" style="stroke: #000000; stroke-width: 0.8"/>
      </g>
     </g>
     <g id="text_8">
      <!-- −6 -->
      <g transform="translate(35.857813 296.845079) scale(0.1 -0.1)">
       <defs>
        <path id="DejaVuSans-2212" d="M 678 2272 
L 4684 2272 
L 4684 1741 
L 678 1741 
L 678 2272 
z
" transform="scale(0.015625)"/>
       </defs>
       <use xlink:href="#DejaVuSans-2212"/>
       <use xlink:href="#DejaVuSans-36" x="83.789062"/>
      </g>
     </g>
    </g>
    <g id="ytick_2">
     <g id="line2d_8">
      <g>
       <use xlink:href="#m64515510f5" x="57.6" y="260.137327" style="stroke: #000000; stroke-width: 0.8"/>
      </g>
     </g>
     <g id="text_9">
      <!-- −4 -->
      <g transform="translate(35.857813 263.936545) scale(0.1 -0.1)">
       <use xlink:href="#DejaVuSans-2212"/>
       <use xlink:href="#DejaVuSans-34" x="83.789062"/>
      </g>
     </g>
    </g>
    <g id="ytick_3">
     <g id="line2d_9">
      <g>
       <use xlink:href="#m64515510f5" x="57.6" y="227.228793" style="stroke: #000000; stroke-width: 0.8"/>
      </g>
     </g>
     <g id="text_10">
      <!-- −2 -->
      <g transform="translate(35.857813 231.028012) scale(0.1 -0.1)">
       <use xlink:href="#DejaVuSans-2212"/>
       <use xlink:href="#DejaVuSans-32" x="83.789062"/>
      </g>
     </g>
    </g>
    <g id="ytick_4">
     <g id="line2d_10">
      <g>
       <use xlink:href="#m64515510f5" x="57.6" y="194.32026" style="stroke: #000000; stroke-width: 0.8"/>
      </g>
     </g>
     <g id="text_11">
      <!-- 0 -->
      <g transform="translate(44.2375 198.119479) scale(0.1 -0.1)">
       <use xlink:href="#DejaVuSans-30"/>
      </g>
     </g>
    </g>
    <g id="ytick_5">
     <g id="line2d_11">
      <g>
       <use xlink:href="#m64515510f5" x="57.6" y="161.411727" style="stroke: #000000; stroke-width: 0.8"/>
      </g>
     </g>
     <g id="text_12">
      <!-- 2 -->
      <g transform="translate(44.2375 165.210946) scale(0.1 -0.1)">
       <use xlink:href="#DejaVuSans-32"/>
      </g>
     </g>
    </g>
    <g id="ytick_6">
     <g id="line2d_12">
      <g>
       <use xlink:href="#m64515510f5" x="57.6" y="128.503194" style="stroke: #000000; stroke-width: 0.8"/>
      </g>
     </g>
     <g id="text_13">
      <!-- 4 -->
      <g transform="translate(44.2375 132.302413) scale(0.1 -0.1)">
       <use xlink:href="#DejaVuSans-34"/>
      </g>
     </g>
    </g>
    <g id="ytick_7">
     <g id="line2d_13">
      <g>
       <use xlink:href="#m64515510f5" x="57.6" y="95.594661" style="stroke: #000000; stroke-width: 0.8"/>
      </g>
     </g>
     <g id="text_14">
      <!-- 6 -->
      <g transform="translate(44.2375 99.393879) scale(0.1 -0.1)">
       <use xlink:href="#DejaVuSans-36"/>
      </g>
     </g>
    </g>
    <g id="ytick_8">
     <g id="line2d_14">
      <g>
       <use xlink:href="#m64515510f5" x="57.6" y="62.686128" style="stroke: #000000; stroke-width: 0.8"/>
      </g>
     </g>
     <g id="text_15">
      <!-- 8 -->
      <g transform="translate(44.2375 66.485346) scale(0.1 -0.1)">
       <use xlink:href="#DejaVuSans-38"/>
      </g>
     </g>
    </g>
    <g id="text_16">
     <!-- E*t -->
     <g transform="translate(29.778125 182.147531) rotate(-90) scale(0.1 -0.1)">
      <defs>
       <path id="DejaVuSans-45" d="M 628 4666 
L 3578 4666 
L 3578 4134 
L 1259 4134 
L 1259 2753 
L 3481 2753 
L 3481 2222 
L 1259 2222 
L 1259 531 
L 3634 531 
L 3634 0 
L 628 0 
L 628 4666 
z
" transform="scale(0.015625)"/>
       <path id="DejaVuSans-2a" d="M 3009 3897 
L 1888 3291 
L 3009 2681 
L 2828 2375 
L 1778 3009 
L 1778 1831 
L 1422 1831 
L 1422 3009 
L 372 2375 
L 191 2681 
L 1313 3291 
L 191 3897 
L 372 4206 
L 1422 3572 
L 1422 4750 
L 1778 4750 
L 1778 3572 
L 2828 4206 
L 3009 3897 
z
" transform="scale(0.015625)"/>
       <path id="DejaVuSans-74" d="M 1172 4494 
L 1172 3500 
L 2356 3500 
L 2356 3053 
L 1172 3053 
L 1172 1153 
Q 1172 725 1289 603 
Q 1406 481 1766 481 
L 2356 481 
L 2356 0 
L 1766 0 
Q 1100 0 847 248 
Q 594 497 594 1153 
L 594 3053 
L 172 3053 
L 172 3500 
L 594 3500 
L 594 4494 
L 1172 4494 
z
" transform="scale(0.015625)"/>
      </defs>
      <use xlink:href="#DejaVuSans-45"/>
      <use xlink:href="#DejaVuSans-2a" x="63.183594"/>
      <use xlink:href="#DejaVuSans-74" x="113.183594"/>
     </g>
    </g>
   </g>
   <g id="line2d_15">
    <path d="M 73.832727 295.488 
L 74.467438 281.523064 
L 74.784793 280.853674 
L 75.419504 276.334197 
L 75.73686 274.991112 
L 76.37157 273.832692 
L 77.006281 269.784602 
L 77.323636 269.277537 
L 77.640992 267.544057 
L 78.275702 266.86454 
L 80.814545 260.758134 
L 81.766612 259.726625 
L 82.083967 259.132007 
L 82.401322 259.017169 
L 82.718678 258.696964 
L 83.353388 257.668698 
L 83.670744 257.34075 
L 84.305455 256.253915 
L 84.62281 255.331506 
L 84.940165 255.039599 
L 85.257521 254.96429 
L 85.574876 254.554528 
L 85.892231 253.945335 
L 86.209587 253.833493 
L 87.479008 252.369481 
L 90.017851 249.977437 
L 90.652562 249.164192 
L 90.969917 248.719973 
L 91.287273 248.541082 
L 93.50876 246.112963 
L 94.460826 245.365812 
L 99.221157 241.716083 
L 99.538512 241.653372 
L 100.173223 241.167641 
L 100.807934 240.982503 
L 101.125289 240.649597 
L 102.077355 240.083835 
L 103.029421 239.301208 
L 103.664132 238.999718 
L 103.981488 238.683478 
L 104.298843 238.645929 
L 104.616198 238.325398 
L 104.933554 238.237449 
L 107.155041 236.731977 
L 108.107107 236.212867 
L 108.424463 236.157149 
L 109.376529 235.5053 
L 109.693884 235.154185 
L 110.328595 234.941695 
L 110.64595 234.532552 
L 111.280661 234.158201 
L 113.819504 232.747207 
L 114.454215 232.310741 
L 115.088926 232.061764 
L 116.993058 230.910704 
L 118.262479 230.343294 
L 119.849256 229.578955 
L 120.166612 229.217855 
L 123.657521 227.653986 
L 124.292231 227.345445 
L 125.561653 226.577112 
L 125.879008 226.35359 
L 126.513719 226.161649 
L 127.465785 225.750103 
L 128.100496 225.408863 
L 128.417851 225.38154 
L 131.591405 223.849558 
L 133.178182 223.286356 
L 134.130248 222.684655 
L 134.764959 222.495017 
L 135.082314 222.385712 
L 135.717025 221.967184 
L 136.351736 221.833995 
L 137.303802 221.357872 
L 139.525289 220.407451 
L 140.16 220.071576 
L 140.794711 219.781991 
L 141.429421 219.440025 
L 142.381488 219.181869 
L 144.602975 218.115199 
L 145.555041 217.969805 
L 145.872397 217.663689 
L 147.776529 217.075047 
L 148.41124 216.898597 
L 149.04595 216.614466 
L 150.315372 216.135521 
L 153.806281 214.82569 
L 154.440992 214.620503 
L 156.345124 213.927713 
L 157.614545 213.520238 
L 157.931901 213.347857 
L 158.249256 213.309142 
L 158.883967 212.967223 
L 159.836033 212.714603 
L 162.374876 211.609103 
L 163.644298 211.017482 
L 163.961653 210.797674 
L 164.279008 210.763647 
L 165.231074 210.380085 
L 166.817851 210.034517 
L 170.943471 208.545282 
L 172.530248 208.026524 
L 172.847603 207.8335 
L 174.117025 207.53251 
L 174.43438 207.262 
L 175.069091 207.075557 
L 175.703802 206.836498 
L 176.021157 206.822392 
L 178.56 205.903267 
L 181.733554 204.855469 
L 182.050909 204.667146 
L 182.68562 204.522025 
L 183.637686 204.143583 
L 184.272397 203.970766 
L 186.493884 203.288267 
L 187.44595 202.928893 
L 190.302149 201.980856 
L 190.619504 201.728428 
L 192.523636 201.18339 
L 192.840992 201.040508 
L 193.475702 200.89438 
L 193.793058 200.866501 
L 194.427769 200.633027 
L 198.553388 199.225407 
L 199.188099 199.0151 
L 200.457521 198.615021 
L 202.996364 197.843061 
L 203.94843 197.493305 
L 204.900496 197.252849 
L 205.535207 196.974216 
L 206.169917 196.825884 
L 206.487273 196.642707 
L 207.121983 196.525296 
L 207.439339 196.285265 
L 209.660826 195.579223 
L 210.612893 195.251371 
L 210.930248 195.178499 
L 211.564959 194.923697 
L 213.469091 194.289545 
L 214.738512 193.963115 
L 216.325289 193.479365 
L 216.96 193.284537 
L 217.912066 193.053834 
L 218.864132 192.764977 
L 219.816198 192.420739 
L 221.720331 191.836411 
L 222.355041 191.678016 
L 226.480661 190.368491 
L 227.115372 190.16889 
L 228.067438 189.778984 
L 228.702149 189.594008 
L 229.654215 189.267595 
L 229.97157 189.228746 
L 230.606281 188.97508 
L 232.827769 188.29275 
L 233.462479 188.033499 
L 234.414545 187.702275 
L 235.049256 187.506934 
L 236.318678 187.079634 
L 236.636033 187.041697 
L 237.588099 186.650535 
L 243.300496 184.822553 
L 243.617851 184.641505 
L 244.252562 184.448262 
L 245.204628 184.236557 
L 245.521983 184.219205 
L 247.10876 183.664042 
L 248.695537 183.139205 
L 249.964959 182.72221 
L 250.599669 182.581262 
L 250.917025 182.441861 
L 251.869091 182.303302 
L 252.186446 182.231464 
L 252.821157 181.958349 
L 253.773223 181.480984 
L 254.407934 181.281938 
L 256.312066 180.719392 
L 257.264132 180.422931 
L 264.880661 178.084389 
L 265.515372 177.800673 
L 266.150083 177.589589 
L 267.73686 177.086996 
L 268.054215 176.899905 
L 269.006281 176.721347 
L 270.275702 176.268414 
L 272.179835 175.594706 
L 273.449256 175.129509 
L 273.766612 174.896482 
L 275.036033 174.603133 
L 276.305455 174.202433 
L 276.940165 174.025933 
L 277.574876 173.626967 
L 279.161653 173.179856 
L 279.796364 172.915528 
L 286.460826 170.605206 
L 287.730248 170.287154 
L 297.250909 166.982872 
L 298.837686 166.283865 
L 299.155041 166.2341 
L 299.789752 165.965578 
L 308.675702 162.532621 
L 309.310413 162.175302 
L 309.945124 161.937204 
L 310.89719 161.417221 
L 311.849256 161.107073 
L 312.483967 160.877437 
L 312.801322 160.802484 
L 313.118678 160.556872 
L 315.340165 159.836697 
L 316.292231 159.309904 
L 320.417851 157.49991 
L 321.369917 157.258049 
L 321.687273 157.033523 
L 322.956694 156.677595 
L 323.90876 156.195054 
L 324.226116 156.13482 
L 324.543471 155.94261 
L 325.178182 155.772985 
L 325.495537 155.530441 
L 326.130248 155.372981 
L 326.764959 155.054362 
L 329.303802 154.114261 
L 329.621157 153.790527 
L 329.938512 153.728206 
L 330.255868 153.380069 
L 330.573223 153.223885 
L 330.890579 152.932861 
L 331.207934 152.87906 
L 331.525289 152.512983 
L 332.477355 152.185369 
L 333.746777 151.379718 
L 334.064132 151.321985 
L 335.333554 150.662278 
L 335.650909 150.591105 
L 335.968264 150.351674 
L 337.237686 149.983703 
L 337.872397 149.440199 
L 338.189752 149.368282 
L 339.141818 148.86013 
L 340.41124 148.431299 
L 341.04595 148.07751 
L 341.680661 147.859275 
L 343.584793 146.769335 
L 352.153388 142.350092 
L 352.470744 141.870979 
L 354.057521 141.127506 
L 354.692231 140.64454 
L 355.009587 140.534584 
L 355.326942 140.25685 
L 355.644298 139.82496 
L 355.961653 139.753024 
L 356.279008 139.473136 
L 357.231074 139.049474 
L 359.135207 137.945823 
L 360.087273 137.591013 
L 360.404628 137.447892 
L 361.356694 136.550778 
L 362.30876 136.231444 
L 362.943471 135.720745 
L 363.578182 135.4479 
L 363.895537 135.102191 
L 364.212893 135.054706 
L 364.530248 134.685797 
L 365.482314 134.195554 
L 365.799669 133.810313 
L 366.43438 133.4057 
L 367.386446 132.666248 
L 368.021157 132.257531 
L 368.338512 131.836318 
L 368.655868 131.710916 
L 369.607934 130.818057 
L 370.242645 130.470862 
L 370.56 130.066086 
L 370.877355 129.886367 
L 371.194711 129.537108 
L 371.829421 129.205811 
L 372.146777 128.599203 
L 372.464132 128.395136 
L 373.098843 127.603201 
L 373.416198 127.151254 
L 374.68562 126.440686 
L 375.320331 125.910843 
L 375.955041 125.082619 
L 376.272397 124.890215 
L 376.589752 124.527921 
L 377.224463 124.289559 
L 377.859174 123.746734 
L 378.176529 122.858046 
L 378.493884 122.394331 
L 378.81124 122.361719 
L 379.763306 121.310305 
L 380.080661 121.078232 
L 380.715372 120.12316 
L 381.032727 119.178507 
L 381.350083 118.961986 
L 381.667438 118.24326 
L 382.302149 117.648584 
L 382.619504 117.157709 
L 382.93686 117.037801 
L 383.254215 116.413489 
L 383.57157 115.369142 
L 384.840992 113.195381 
L 385.475702 112.869813 
L 386.427769 111.655826 
L 386.745124 111.409837 
L 387.062479 109.774681 
L 387.379835 109.436429 
L 388.649256 107.196504 
L 389.918678 104.620484 
L 390.236033 103.523728 
L 390.553388 103.094389 
L 391.188099 101.478954 
L 391.505455 101.42809 
L 391.82281 101.091405 
L 392.140165 99.807128 
L 393.092231 98.264429 
L 393.726942 96.461349 
L 394.044298 95.957322 
L 394.361653 95.74259 
L 394.679008 92.428166 
L 394.996364 92.179803 
L 395.94843 88.589572 
L 396.265785 88.546794 
L 396.58314 87.683923 
L 397.535207 74.135058 
L 397.852562 64.775236 
L 398.169917 62.928051 
L 398.487273 53.568 
L 398.487273 53.568 
" clip-path="url(#paace14abcd)" style="fill: none; stroke: #1f77b4; stroke-width: 1.5; stroke-linecap: square"/>
   </g>
   <g id="line2d_16">
    <path d="M 73.832727 278.441138 
L 74.150083 268.625137 
L 74.467438 268.625137 
L 74.784793 260.234455 
L 75.102149 258.491592 
L 75.73686 258.491592 
L 76.054215 255.352137 
L 76.37157 250.052302 
L 76.688926 249.727142 
L 77.006281 249.727142 
L 77.323636 248.907085 
L 78.910413 248.907085 
L 79.227769 245.917136 
L 79.545124 245.917136 
L 79.862479 244.834785 
L 80.179835 244.166093 
L 80.49719 244.166093 
L 80.814545 240.859857 
L 81.131901 239.303586 
L 82.083967 239.276827 
L 82.401322 238.355756 
L 86.844298 238.303461 
L 87.161653 237.799131 
L 87.479008 235.403342 
L 87.796364 234.873721 
L 88.113719 234.044325 
L 89.700496 234.044325 
L 90.017851 232.984603 
L 90.652562 232.984603 
L 90.969917 231.753577 
L 91.287273 231.753577 
L 91.604628 231.11231 
L 91.921983 229.46287 
L 99.221157 229.46287 
L 99.538512 228.480025 
L 99.855868 228.480025 
L 100.173223 228.24754 
L 101.76 228.24754 
L 102.077355 227.228793 
L 103.664132 227.228793 
L 103.981488 226.999002 
L 104.298843 226.601779 
L 104.933554 226.601779 
L 105.250909 225.204706 
L 106.202975 225.134297 
L 106.520331 221.981333 
L 107.155041 221.669798 
L 107.472397 221.669798 
L 107.789752 220.943762 
L 109.376529 220.943762 
L 109.693884 219.350351 
L 110.01124 219.350351 
L 110.328595 217.590132 
L 129.369917 217.590059 
L 129.687273 216.589787 
L 130.321983 215.649021 
L 131.27405 215.589041 
L 131.591405 214.770773 
L 131.90876 214.770773 
L 132.226116 214.583826 
L 132.860826 214.583826 
L 133.178182 213.008603 
L 133.495537 213.008603 
L 133.812893 212.678753 
L 135.399669 212.678753 
L 135.717025 211.335433 
L 136.669091 210.774527 
L 163.009587 210.774527 
L 163.326942 209.380333 
L 167.135207 209.380333 
L 167.452562 209.125538 
L 167.769917 209.125538 
L 168.087273 207.400042 
L 168.404628 207.400042 
L 168.721983 206.939476 
L 169.356694 206.939476 
L 169.67405 206.642264 
L 169.991405 205.930391 
L 171.578182 205.930391 
L 172.212893 205.42847 
L 172.530248 205.42847 
L 172.847603 205.215532 
L 180.146777 205.215532 
L 180.464132 204.84901 
L 180.781488 204.84901 
L 181.098843 204.489495 
L 182.68562 204.489495 
L 183.320331 201.135792 
L 185.541818 201.10596 
L 185.859174 200.911109 
L 186.493884 200.911109 
L 186.81124 200.616793 
L 187.128595 199.879256 
L 187.44595 199.879256 
L 187.763306 199.379729 
L 188.080661 199.379729 
L 188.398017 197.294339 
L 188.715372 194.32026 
L 283.604628 194.32026 
L 284.239339 189.260791 
L 284.556694 189.260791 
L 284.87405 188.761265 
L 285.191405 188.761265 
L 285.50876 188.023728 
L 285.826116 187.729411 
L 286.460826 187.729411 
L 286.778182 187.534561 
L 288.999669 187.504728 
L 289.63438 184.151026 
L 291.221157 184.151026 
L 291.538512 183.79151 
L 291.855868 183.79151 
L 292.173223 183.424989 
L 299.472397 183.424989 
L 299.789752 183.212051 
L 300.107107 183.212051 
L 300.741818 182.710129 
L 302.328595 182.710129 
L 302.64595 181.998256 
L 302.963306 181.701045 
L 303.598017 181.701045 
L 303.915372 181.240478 
L 304.232727 181.240478 
L 304.550083 179.514983 
L 304.867438 179.514983 
L 305.184793 179.260187 
L 308.993058 179.260187 
L 309.310413 177.865994 
L 335.968264 177.789524 
L 336.602975 177.305088 
L 336.920331 175.961768 
L 338.507107 175.961768 
L 338.824463 175.631917 
L 339.141818 175.631917 
L 339.459174 174.056695 
L 340.093884 174.056695 
L 340.41124 173.869748 
L 340.728595 173.869748 
L 341.04595 173.051479 
L 341.680661 172.9915 
L 341.998017 172.9915 
L 342.315372 172.627379 
L 342.632727 172.050734 
L 342.950083 171.050462 
L 361.991405 171.050389 
L 362.30876 169.29017 
L 362.626116 169.29017 
L 362.943471 167.696759 
L 364.530248 167.696759 
L 364.847603 166.970722 
L 365.164959 166.970722 
L 365.799669 166.659187 
L 366.117025 163.506224 
L 367.069091 163.435814 
L 367.386446 162.038742 
L 368.021157 162.038742 
L 368.655868 161.411727 
L 370.242645 161.411727 
L 370.56 160.392981 
L 372.146777 160.392981 
L 372.464132 160.160496 
L 372.781488 160.160496 
L 373.098843 159.177651 
L 380.398017 159.177651 
L 380.715372 157.528211 
L 381.032727 156.886943 
L 381.350083 156.886943 
L 381.667438 155.655918 
L 382.302149 155.655918 
L 382.619504 154.596195 
L 384.206281 154.596195 
L 384.840992 153.237178 
L 385.158347 150.84139 
L 385.475702 150.33706 
L 389.918678 150.284764 
L 390.236033 149.363694 
L 391.188099 149.336935 
L 391.505455 147.780663 
L 391.82281 144.474428 
L 392.140165 144.474428 
L 392.457521 143.805736 
L 392.774876 142.723384 
L 393.092231 142.723384 
L 393.409587 139.733436 
L 394.996364 139.733436 
L 395.313719 138.913379 
L 395.631074 138.913379 
L 395.94843 138.588218 
L 396.265785 133.288384 
L 396.58314 130.148929 
L 397.217851 130.148929 
L 397.535207 128.406065 
L 397.852562 120.015384 
L 398.169917 120.015384 
L 398.487273 110.199383 
L 398.487273 110.199383 
" clip-path="url(#paace14abcd)" style="fill: none; stroke: #ff7f0e; stroke-width: 1.5; stroke-linecap: square"/>
   </g>
   <g id="patch_3">
    <path d="M 57.6 307.584 
L 57.6 41.472 
" style="fill: none; stroke: #000000; stroke-width: 0.8; stroke-linejoin: miter; stroke-linecap: square"/>
   </g>
   <g id="patch_4">
    <path d="M 414.72 307.584 
L 414.72 41.472 
" style="fill: none; stroke: #000000; stroke-width: 0.8; stroke-linejoin: miter; stroke-linecap: square"/>
   </g>
   <g id="patch_5">
    <path d="M 57.6 307.584 
L 414.72 307.584 
" style="fill: none; stroke: #000000; stroke-width: 0.8; stroke-linejoin: miter; stroke-linecap: square"/>
   </g>
   <g id="patch_6">
    <path d="M 57.6 41.472 
L 414.72 41.472 
" style="fill: none; stroke: #000000; stroke-width: 0.8; stroke-linejoin: miter; stroke-linecap: square"/>
   </g>
   <g id="legend_1">
    <g id="patch_7">
     <path d="M 64.6 78.82825 
L 129.342187 78.82825 
Q 131.342187 78.82825 131.342187 76.82825 
L 131.342187 48.472 
Q 131.342187 46.472 129.342187 46.472 
L 64.6 46.472 
Q 62.6 46.472 62.6 48.472 
L 62.6 76.82825 
Q 62.6 78.82825 64.6 78.82825 
z
" style="fill: #ffffff; opacity: 0.8; stroke: #cccccc; stroke-linejoin: miter"/>
    </g>
    <g id="line2d_17">
     <path d="M 66.6 54.570437 
L 76.6 54.570437 
L 86.6 54.570437 
" style="fill: none; stroke: #1f77b4; stroke-width: 1.5; stroke-linecap: square"/>
    </g>
    <g id="text_17">
     <!-- qc -->
     <g transform="translate(94.6 58.070437) scale(0.1 -0.1)">
      <defs>
       <path id="DejaVuSans-71" d="M 947 1747 
Q 947 1113 1208 752 
Q 1469 391 1925 391 
Q 2381 391 2643 752 
Q 2906 1113 2906 1747 
Q 2906 2381 2643 2742 
Q 2381 3103 1925 3103 
Q 1469 3103 1208 2742 
Q 947 2381 947 1747 
z
M 2906 525 
Q 2725 213 2448 61 
Q 2172 -91 1784 -91 
Q 1150 -91 751 415 
Q 353 922 353 1747 
Q 353 2572 751 3078 
Q 1150 3584 1784 3584 
Q 2172 3584 2448 3432 
Q 2725 3281 2906 2969 
L 2906 3500 
L 3481 3500 
L 3481 -1331 
L 2906 -1331 
L 2906 525 
z
" transform="scale(0.015625)"/>
       <path id="DejaVuSans-63" d="M 3122 3366 
L 3122 2828 
Q 2878 2963 2633 3030 
Q 2388 3097 2138 3097 
Q 1578 3097 1268 2742 
Q 959 2388 959 1747 
Q 959 1106 1268 751 
Q 1578 397 2138 397 
Q 2388 397 2633 464 
Q 2878 531 3122 666 
L 3122 134 
Q 2881 22 2623 -34 
Q 2366 -91 2075 -91 
Q 1284 -91 818 406 
Q 353 903 353 1747 
Q 353 2603 823 3093 
Q 1294 3584 2113 3584 
Q 2378 3584 2631 3529 
Q 2884 3475 3122 3366 
z
" transform="scale(0.015625)"/>
      </defs>
      <use xlink:href="#DejaVuSans-71"/>
      <use xlink:href="#DejaVuSans-63" x="63.476562"/>
     </g>
    </g>
    <g id="line2d_18">
     <path d="M 66.6 69.248562 
L 76.6 69.248562 
L 86.6 69.248562 
" style="fill: none; stroke: #ff7f0e; stroke-width: 1.5; stroke-linecap: square"/>
    </g>
    <g id="text_18">
     <!-- Trotter -->
     <g transform="translate(94.6 72.748562) scale(0.1 -0.1)">
      <defs>
       <path id="DejaVuSans-54" d="M -19 4666 
L 3928 4666 
L 3928 4134 
L 2272 4134 
L 2272 0 
L 1638 0 
L 1638 4134 
L -19 4134 
L -19 4666 
z
" transform="scale(0.015625)"/>
       <path id="DejaVuSans-72" d="M 2631 2963 
Q 2534 3019 2420 3045 
Q 2306 3072 2169 3072 
Q 1681 3072 1420 2755 
Q 1159 2438 1159 1844 
L 1159 0 
L 581 0 
L 581 3500 
L 1159 3500 
L 1159 2956 
Q 1341 3275 1631 3429 
Q 1922 3584 2338 3584 
Q 2397 3584 2469 3576 
Q 2541 3569 2628 3553 
L 2631 2963 
z
" transform="scale(0.015625)"/>
       <path id="DejaVuSans-6f" d="M 1959 3097 
Q 1497 3097 1228 2736 
Q 959 2375 959 1747 
Q 959 1119 1226 758 
Q 1494 397 1959 397 
Q 2419 397 2687 759 
Q 2956 1122 2956 1747 
Q 2956 2369 2687 2733 
Q 2419 3097 1959 3097 
z
M 1959 3584 
Q 2709 3584 3137 3096 
Q 3566 2609 3566 1747 
Q 3566 888 3137 398 
Q 2709 -91 1959 -91 
Q 1206 -91 779 398 
Q 353 888 353 1747 
Q 353 2609 779 3096 
Q 1206 3584 1959 3584 
z
" transform="scale(0.015625)"/>
       <path id="DejaVuSans-65" d="M 3597 1894 
L 3597 1613 
L 953 1613 
Q 991 1019 1311 708 
Q 1631 397 2203 397 
Q 2534 397 2845 478 
Q 3156 559 3463 722 
L 3463 178 
Q 3153 47 2828 -22 
Q 2503 -91 2169 -91 
Q 1331 -91 842 396 
Q 353 884 353 1716 
Q 353 2575 817 3079 
Q 1281 3584 2069 3584 
Q 2775 3584 3186 3129 
Q 3597 2675 3597 1894 
z
M 3022 2063 
Q 3016 2534 2758 2815 
Q 2500 3097 2075 3097 
Q 1594 3097 1305 2825 
Q 1016 2553 972 2059 
L 3022 2063 
z
" transform="scale(0.015625)"/>
      </defs>
      <use xlink:href="#DejaVuSans-54"/>
      <use xlink:href="#DejaVuSans-72" x="46.333984"/>
      <use xlink:href="#DejaVuSans-6f" x="85.197266"/>
      <use xlink:href="#DejaVuSans-74" x="146.378906"/>
      <use xlink:href="#DejaVuSans-74" x="185.587891"/>
      <use xlink:href="#DejaVuSans-65" x="224.796875"/>
      <use xlink:href="#DejaVuSans-72" x="286.320312"/>
     </g>
    </g>
   </g>
  </g>
 </g>
 <defs>
  <clipPath id="paace14abcd">
   <rect x="57.6" y="41.472" width="357.12" height="266.112"/>
  </clipPath>
 </defs>
</svg>
