<?xml version="1.0" encoding="utf-8" standalone="no"?>
<!DOCTYPE svg PUBLIC "-//W3C//DTD SVG 1.1//EN"
  "http://www.w3.org/Graphics/SVG/1.1/DTD/svg11.dtd">
<svg xmlns:xlink="http://www.w3.org/1999/xlink" width="460.8pt" height="345.6pt" viewBox="0 0 460.8 345.6" xmlns="http://www.w3.org/2000/svg" version="1.1">
 <metadata>
  <rdf:RDF xmlns:dc="http://purl.org/dc/elements/1.1/" xmlns:cc="http://creativecommons.org/ns#" xmlns:rdf="http://www.w3.org/1999/02/22-rdf-syntax-ns#">
   <cc:Work>
    <dc:type rdf:resource="http://purl.org/dc/dcmitype/StillImage"/>
    <dc:date>2024-05-31T13:41:03.749392</dc:date>
    <dc:format>image/svg+xml</dc:format>
    <dc:creator>
     <cc:Agent>
      <dc:title>Matplotlib v3.7.1, https://matplotlib.org/</dc:title>
     </cc:Agent>
    </dc:creator>
   </cc:Work>
  </rdf:RDF>
 </metadata>
 <defs>
  <style type="text/css">*{stroke-linejoin: round; stroke-linecap: butt}</style>
 </defs>
 <g id="figure_1">
  <g id="patch_1">
   <path d="M 0 345.6 
L 460.8 345.6 
L 460.8 0 
L 0 0 
z
" style="fill: #ffffff"/>
  </g>
  <g id="axes_1">
   <g id="patch_2">
    <path d="M 57.6 307.584 
L 414.72 307.584 
L 414.72 41.472 
L 57.6 41.472 
z
" style="fill: #ffffff"/>
   </g>
   <g id="matplotlib.axis_1">
    <g id="xtick_1">
     <g id="line2d_1">
      <defs>
       <path id="m7e109cfbaf" d="M 0 0 
L 0 3.5 
" style="stroke: #000000; stroke-width: 0.8"/>
      </defs>
      <g>
       <use xlink:href="#m7e109cfbaf" x="73.832727" y="307.584" style="stroke: #000000; stroke-width: 0.8"/>
      </g>
     </g>
     <g id="text_1">
      <!-- 0 -->
      <g transform="translate(70.651477 322.182437) scale(0.1 -0.1)">
       <defs>
        <path id="DejaVuSans-30" d="M 2034 4250 
Q 1547 4250 1301 3770 
Q 1056 3291 1056 2328 
Q 1056 1369 1301 889 
Q 1547 409 2034 409 
Q 2525 409 2770 889 
Q 3016 1369 3016 2328 
Q 3016 3291 2770 3770 
Q 2525 4250 2034 4250 
z
M 2034 4750 
Q 2819 4750 3233 4129 
Q 3647 3509 3647 2328 
Q 3647 1150 3233 529 
Q 2819 -91 2034 -91 
Q 1250 -91 836 529 
Q 422 1150 422 2328 
Q 422 3509 836 4129 
Q 1250 4750 2034 4750 
z
" transform="scale(0.015625)"/>
       </defs>
       <use xlink:href="#DejaVuSans-30"/>
      </g>
     </g>
    </g>
    <g id="xtick_2">
     <g id="line2d_2">
      <g>
       <use xlink:href="#m7e109cfbaf" x="137.303802" y="307.584" style="stroke: #000000; stroke-width: 0.8"/>
      </g>
     </g>
     <g id="text_2">
      <!-- 200 -->
      <g transform="translate(127.760052 322.182437) scale(0.1 -0.1)">
       <defs>
        <path id="DejaVuSans-32" d="M 1228 531 
L 3431 531 
L 3431 0 
L 469 0 
L 469 531 
Q 828 903 1448 1529 
Q 2069 2156 2228 2338 
Q 2531 2678 2651 2914 
Q 2772 3150 2772 3378 
Q 2772 3750 2511 3984 
Q 2250 4219 1831 4219 
Q 1534 4219 1204 4116 
Q 875 4013 500 3803 
L 500 4441 
Q 881 4594 1212 4672 
Q 1544 4750 1819 4750 
Q 2544 4750 2975 4387 
Q 3406 4025 3406 3419 
Q 3406 3131 3298 2873 
Q 3191 2616 2906 2266 
Q 2828 2175 2409 1742 
Q 1991 1309 1228 531 
z
" transform="scale(0.015625)"/>
       </defs>
       <use xlink:href="#DejaVuSans-32"/>
       <use xlink:href="#DejaVuSans-30" x="63.623047"/>
       <use xlink:href="#DejaVuSans-30" x="127.246094"/>
      </g>
     </g>
    </g>
    <g id="xtick_3">
     <g id="line2d_3">
      <g>
       <use xlink:href="#m7e109cfbaf" x="200.774876" y="307.584" style="stroke: #000000; stroke-width: 0.8"/>
      </g>
     </g>
     <g id="text_3">
      <!-- 400 -->
      <g transform="translate(191.231126 322.182437) scale(0.1 -0.1)">
       <defs>
        <path id="DejaVuSans-34" d="M 2419 4116 
L 825 1625 
L 2419 1625 
L 2419 4116 
z
M 2253 4666 
L 3047 4666 
L 3047 1625 
L 3713 1625 
L 3713 1100 
L 3047 1100 
L 3047 0 
L 2419 0 
L 2419 1100 
L 313 1100 
L 313 1709 
L 2253 4666 
z
" transform="scale(0.015625)"/>
       </defs>
       <use xlink:href="#DejaVuSans-34"/>
       <use xlink:href="#DejaVuSans-30" x="63.623047"/>
       <use xlink:href="#DejaVuSans-30" x="127.246094"/>
      </g>
     </g>
    </g>
    <g id="xtick_4">
     <g id="line2d_4">
      <g>
       <use xlink:href="#m7e109cfbaf" x="264.24595" y="307.584" style="stroke: #000000; stroke-width: 0.8"/>
      </g>
     </g>
     <g id="text_4">
      <!-- 600 -->
      <g transform="translate(254.7022 322.182437) scale(0.1 -0.1)">
       <defs>
        <path id="DejaVuSans-36" d="M 2113 2584 
Q 1688 2584 1439 2293 
Q 1191 2003 1191 1497 
Q 1191 994 1439 701 
Q 1688 409 2113 409 
Q 2538 409 2786 701 
Q 3034 994 3034 1497 
Q 3034 2003 2786 2293 
Q 2538 2584 2113 2584 
z
M 3366 4563 
L 3366 3988 
Q 3128 4100 2886 4159 
Q 2644 4219 2406 4219 
Q 1781 4219 1451 3797 
Q 1122 3375 1075 2522 
Q 1259 2794 1537 2939 
Q 1816 3084 2150 3084 
Q 2853 3084 3261 2657 
Q 3669 2231 3669 1497 
Q 3669 778 3244 343 
Q 2819 -91 2113 -91 
Q 1303 -91 875 529 
Q 447 1150 447 2328 
Q 447 3434 972 4092 
Q 1497 4750 2381 4750 
Q 2619 4750 2861 4703 
Q 3103 4656 3366 4563 
z
" transform="scale(0.015625)"/>
       </defs>
       <use xlink:href="#DejaVuSans-36"/>
       <use xlink:href="#DejaVuSans-30" x="63.623047"/>
       <use xlink:href="#DejaVuSans-30" x="127.246094"/>
      </g>
     </g>
    </g>
    <g id="xtick_5">
     <g id="line2d_5">
      <g>
       <use xlink:href="#m7e109cfbaf" x="327.717025" y="307.584" style="stroke: #000000; stroke-width: 0.8"/>
      </g>
     </g>
     <g id="text_5">
      <!-- 800 -->
      <g transform="translate(318.173275 322.182437) scale(0.1 -0.1)">
       <defs>
        <path id="DejaVuSans-38" d="M 2034 2216 
Q 1584 2216 1326 1975 
Q 1069 1734 1069 1313 
Q 1069 891 1326 650 
Q 1584 409 2034 409 
Q 2484 409 2743 651 
Q 3003 894 3003 1313 
Q 3003 1734 2745 1975 
Q 2488 2216 2034 2216 
z
M 1403 2484 
Q 997 2584 770 2862 
Q 544 3141 544 3541 
Q 544 4100 942 4425 
Q 1341 4750 2034 4750 
Q 2731 4750 3128 4425 
Q 3525 4100 3525 3541 
Q 3525 3141 3298 2862 
Q 3072 2584 2669 2484 
Q 3125 2378 3379 2068 
Q 3634 1759 3634 1313 
Q 3634 634 3220 271 
Q 2806 -91 2034 -91 
Q 1263 -91 848 271 
Q 434 634 434 1313 
Q 434 1759 690 2068 
Q 947 2378 1403 2484 
z
M 1172 3481 
Q 1172 3119 1398 2916 
Q 1625 2713 2034 2713 
Q 2441 2713 2670 2916 
Q 2900 3119 2900 3481 
Q 2900 3844 2670 4047 
Q 2441 4250 2034 4250 
Q 1625 4250 1398 4047 
Q 1172 3844 1172 3481 
z
" transform="scale(0.015625)"/>
       </defs>
       <use xlink:href="#DejaVuSans-38"/>
       <use xlink:href="#DejaVuSans-30" x="63.623047"/>
       <use xlink:href="#DejaVuSans-30" x="127.246094"/>
      </g>
     </g>
    </g>
    <g id="xtick_6">
     <g id="line2d_6">
      <g>
       <use xlink:href="#m7e109cfbaf" x="391.188099" y="307.584" style="stroke: #000000; stroke-width: 0.8"/>
      </g>
     </g>
     <g id="text_6">
      <!-- 1000 -->
      <g transform="translate(378.463099 322.182437) scale(0.1 -0.1)">
       <defs>
        <path id="DejaVuSans-31" d="M 794 531 
L 1825 531 
L 1825 4091 
L 703 3866 
L 703 4441 
L 1819 4666 
L 2450 4666 
L 2450 531 
L 3481 531 
L 3481 0 
L 794 0 
L 794 531 
z
" transform="scale(0.015625)"/>
       </defs>
       <use xlink:href="#DejaVuSans-31"/>
       <use xlink:href="#DejaVuSans-30" x="63.623047"/>
       <use xlink:href="#DejaVuSans-30" x="127.246094"/>
       <use xlink:href="#DejaVuSans-30" x="190.869141"/>
      </g>
     </g>
    </g>
    <g id="text_7">
     <!-- n -->
     <g transform="translate(232.99125 335.860562) scale(0.1 -0.1)">
      <defs>
       <path id="DejaVuSans-6e" d="M 3513 2113 
L 3513 0 
L 2938 0 
L 2938 2094 
Q 2938 2591 2744 2837 
Q 2550 3084 2163 3084 
Q 1697 3084 1428 2787 
Q 1159 2491 1159 1978 
L 1159 0 
L 581 0 
L 581 3500 
L 1159 3500 
L 1159 2956 
Q 1366 3272 1645 3428 
Q 1925 3584 2291 3584 
Q 2894 3584 3203 3211 
Q 3513 2838 3513 2113 
z
" transform="scale(0.015625)"/>
      </defs>
      <use xlink:href="#DejaVuSans-6e"/>
     </g>
    </g>
   </g>
   <g id="matplotlib.axis_2">
    <g id="ytick_1">
     <g id="line2d_7">
      <defs>
       <path id="mb6080863fc" d="M 0 0 
L -3.5 0 
" style="stroke: #000000; stroke-width: 0.8"/>
      </defs>
      <g>
       <use xlink:href="#mb6080863fc" x="57.6" y="300.021305" style="stroke: #000000; stroke-width: 0.8"/>
      </g>
     </g>
     <g id="text_8">
      <!-- −0.5 -->
      <g transform="translate(26.317187 303.820524) scale(0.1 -0.1)">
       <defs>
        <path id="DejaVuSans-2212" d="M 678 2272 
L 4684 2272 
L 4684 1741 
L 678 1741 
L 678 2272 
z
" transform="scale(0.015625)"/>
        <path id="DejaVuSans-2e" d="M 684 794 
L 1344 794 
L 1344 0 
L 684 0 
L 684 794 
z
" transform="scale(0.015625)"/>
        <path id="DejaVuSans-35" d="M 691 4666 
L 3169 4666 
L 3169 4134 
L 1269 4134 
L 1269 2991 
Q 1406 3038 1543 3061 
Q 1681 3084 1819 3084 
Q 2600 3084 3056 2656 
Q 3513 2228 3513 1497 
Q 3513 744 3044 326 
Q 2575 -91 1722 -91 
Q 1428 -91 1123 -41 
Q 819 9 494 109 
L 494 744 
Q 775 591 1075 516 
Q 1375 441 1709 441 
Q 2250 441 2565 725 
Q 2881 1009 2881 1497 
Q 2881 1984 2565 2268 
Q 2250 2553 1709 2553 
Q 1456 2553 1204 2497 
Q 953 2441 691 2322 
L 691 4666 
z
" transform="scale(0.015625)"/>
       </defs>
       <use xlink:href="#DejaVuSans-2212"/>
       <use xlink:href="#DejaVuSans-30" x="83.789062"/>
       <use xlink:href="#DejaVuSans-2e" x="147.412109"/>
       <use xlink:href="#DejaVuSans-35" x="179.199219"/>
      </g>
     </g>
    </g>
    <g id="ytick_2">
     <g id="line2d_8">
      <g>
       <use xlink:href="#mb6080863fc" x="57.6" y="270.032399" style="stroke: #000000; stroke-width: 0.8"/>
      </g>
     </g>
     <g id="text_9">
      <!-- −0.4 -->
      <g transform="translate(26.317187 273.831618) scale(0.1 -0.1)">
       <use xlink:href="#DejaVuSans-2212"/>
       <use xlink:href="#DejaVuSans-30" x="83.789062"/>
       <use xlink:href="#DejaVuSans-2e" x="147.412109"/>
       <use xlink:href="#DejaVuSans-34" x="179.199219"/>
      </g>
     </g>
    </g>
    <g id="ytick_3">
     <g id="line2d_9">
      <g>
       <use xlink:href="#mb6080863fc" x="57.6" y="240.043493" style="stroke: #000000; stroke-width: 0.8"/>
      </g>
     </g>
     <g id="text_10">
      <!-- −0.3 -->
      <g transform="translate(26.317187 243.842712) scale(0.1 -0.1)">
       <defs>
        <path id="DejaVuSans-33" d="M 2597 2516 
Q 3050 2419 3304 2112 
Q 3559 1806 3559 1356 
Q 3559 666 3084 287 
Q 2609 -91 1734 -91 
Q 1441 -91 1130 -33 
Q 819 25 488 141 
L 488 750 
Q 750 597 1062 519 
Q 1375 441 1716 441 
Q 2309 441 2620 675 
Q 2931 909 2931 1356 
Q 2931 1769 2642 2001 
Q 2353 2234 1838 2234 
L 1294 2234 
L 1294 2753 
L 1863 2753 
Q 2328 2753 2575 2939 
Q 2822 3125 2822 3475 
Q 2822 3834 2567 4026 
Q 2313 4219 1838 4219 
Q 1578 4219 1281 4162 
Q 984 4106 628 3988 
L 628 4550 
Q 988 4650 1302 4700 
Q 1616 4750 1894 4750 
Q 2613 4750 3031 4423 
Q 3450 4097 3450 3541 
Q 3450 3153 3228 2886 
Q 3006 2619 2597 2516 
z
" transform="scale(0.015625)"/>
       </defs>
       <use xlink:href="#DejaVuSans-2212"/>
       <use xlink:href="#DejaVuSans-30" x="83.789062"/>
       <use xlink:href="#DejaVuSans-2e" x="147.412109"/>
       <use xlink:href="#DejaVuSans-33" x="179.199219"/>
      </g>
     </g>
    </g>
    <g id="ytick_4">
     <g id="line2d_10">
      <g>
       <use xlink:href="#mb6080863fc" x="57.6" y="210.054587" style="stroke: #000000; stroke-width: 0.8"/>
      </g>
     </g>
     <g id="text_11">
      <!-- −0.2 -->
      <g transform="translate(26.317187 213.853806) scale(0.1 -0.1)">
       <use xlink:href="#DejaVuSans-2212"/>
       <use xlink:href="#DejaVuSans-30" x="83.789062"/>
       <use xlink:href="#DejaVuSans-2e" x="147.412109"/>
       <use xlink:href="#DejaVuSans-32" x="179.199219"/>
      </g>
     </g>
    </g>
    <g id="ytick_5">
     <g id="line2d_11">
      <g>
       <use xlink:href="#mb6080863fc" x="57.6" y="180.065681" style="stroke: #000000; stroke-width: 0.8"/>
      </g>
     </g>
     <g id="text_12">
      <!-- −0.1 -->
      <g transform="translate(26.317187 183.8649) scale(0.1 -0.1)">
       <use xlink:href="#DejaVuSans-2212"/>
       <use xlink:href="#DejaVuSans-30" x="83.789062"/>
       <use xlink:href="#DejaVuSans-2e" x="147.412109"/>
       <use xlink:href="#DejaVuSans-31" x="179.199219"/>
      </g>
     </g>
    </g>
    <g id="ytick_6">
     <g id="line2d_12">
      <g>
       <use xlink:href="#mb6080863fc" x="57.6" y="150.076775" style="stroke: #000000; stroke-width: 0.8"/>
      </g>
     </g>
     <g id="text_13">
      <!-- 0.0 -->
      <g transform="translate(34.696875 153.875994) scale(0.1 -0.1)">
       <use xlink:href="#DejaVuSans-30"/>
       <use xlink:href="#DejaVuSans-2e" x="63.623047"/>
       <use xlink:href="#DejaVuSans-30" x="95.410156"/>
      </g>
     </g>
    </g>
    <g id="ytick_7">
     <g id="line2d_13">
      <g>
       <use xlink:href="#mb6080863fc" x="57.6" y="120.087869" style="stroke: #000000; stroke-width: 0.8"/>
      </g>
     </g>
     <g id="text_14">
      <!-- 0.1 -->
      <g transform="translate(34.696875 123.887088) scale(0.1 -0.1)">
       <use xlink:href="#DejaVuSans-30"/>
       <use xlink:href="#DejaVuSans-2e" x="63.623047"/>
       <use xlink:href="#DejaVuSans-31" x="95.410156"/>
      </g>
     </g>
    </g>
    <g id="ytick_8">
     <g id="line2d_14">
      <g>
       <use xlink:href="#mb6080863fc" x="57.6" y="90.098963" style="stroke: #000000; stroke-width: 0.8"/>
      </g>
     </g>
     <g id="text_15">
      <!-- 0.2 -->
      <g transform="translate(34.696875 93.898182) scale(0.1 -0.1)">
       <use xlink:href="#DejaVuSans-30"/>
       <use xlink:href="#DejaVuSans-2e" x="63.623047"/>
       <use xlink:href="#DejaVuSans-32" x="95.410156"/>
      </g>
     </g>
    </g>
    <g id="ytick_9">
     <g id="line2d_15">
      <g>
       <use xlink:href="#mb6080863fc" x="57.6" y="60.110057" style="stroke: #000000; stroke-width: 0.8"/>
      </g>
     </g>
     <g id="text_16">
      <!-- 0.3 -->
      <g transform="translate(34.696875 63.909276) scale(0.1 -0.1)">
       <use xlink:href="#DejaVuSans-30"/>
       <use xlink:href="#DejaVuSans-2e" x="63.623047"/>
       <use xlink:href="#DejaVuSans-33" x="95.410156"/>
      </g>
     </g>
    </g>
    <g id="text_17">
     <!-- E*t -->
     <g transform="translate(20.2375 182.147531) rotate(-90) scale(0.1 -0.1)">
      <defs>
       <path id="DejaVuSans-45" d="M 628 4666 
L 3578 4666 
L 3578 4134 
L 1259 4134 
L 1259 2753 
L 3481 2753 
L 3481 2222 
L 1259 2222 
L 1259 531 
L 3634 531 
L 3634 0 
L 628 0 
L 628 4666 
z
" transform="scale(0.015625)"/>
       <path id="DejaVuSans-2a" d="M 3009 3897 
L 1888 3291 
L 3009 2681 
L 2828 2375 
L 1778 3009 
L 1778 1831 
L 1422 1831 
L 1422 3009 
L 372 2375 
L 191 2681 
L 1313 3291 
L 191 3897 
L 372 4206 
L 1422 3572 
L 1422 4750 
L 1778 4750 
L 1778 3572 
L 2828 4206 
L 3009 3897 
z
" transform="scale(0.015625)"/>
       <path id="DejaVuSans-74" d="M 1172 4494 
L 1172 3500 
L 2356 3500 
L 2356 3053 
L 1172 3053 
L 1172 1153 
Q 1172 725 1289 603 
Q 1406 481 1766 481 
L 2356 481 
L 2356 0 
L 1766 0 
Q 1100 0 847 248 
Q 594 497 594 1153 
L 594 3053 
L 172 3053 
L 172 3500 
L 594 3500 
L 594 4494 
L 1172 4494 
z
" transform="scale(0.015625)"/>
      </defs>
      <use xlink:href="#DejaVuSans-45"/>
      <use xlink:href="#DejaVuSans-2a" x="63.183594"/>
      <use xlink:href="#DejaVuSans-74" x="113.183594"/>
     </g>
    </g>
   </g>
   <g id="line2d_16">
    <path d="M 73.832727 295.488 
L 74.150083 286.746784 
L 74.467438 285.826288 
L 74.784793 280.253086 
L 75.419504 277.084512 
L 75.73686 276.898599 
L 76.054215 273.584825 
L 76.37157 271.484724 
L 77.006281 268.72879 
L 77.323636 268.408322 
L 77.640992 267.272757 
L 77.958347 267.164766 
L 78.275702 266.331855 
L 78.910413 263.291396 
L 79.227769 263.081172 
L 79.862479 260.550352 
L 80.179835 260.50913 
L 81.449256 256.788544 
L 82.083967 256.518267 
L 82.401322 255.221014 
L 83.036033 254.910543 
L 83.353388 254.339779 
L 83.670744 251.46152 
L 83.988099 251.441588 
L 84.62281 250.170776 
L 85.574876 249.897235 
L 85.892231 249.093373 
L 86.526942 248.260497 
L 86.844298 248.223871 
L 87.161653 248.008528 
L 87.479008 245.998248 
L 87.796364 245.51977 
L 88.113719 245.461548 
L 88.431074 245.255834 
L 89.065785 244.510395 
L 89.38314 244.382186 
L 90.017851 243.377322 
L 90.335207 241.998325 
L 90.652562 241.430305 
L 90.969917 241.355905 
L 91.287273 241.152804 
L 91.604628 240.768938 
L 91.921983 240.130427 
L 92.87405 239.618104 
L 93.191405 239.503951 
L 93.50876 239.265612 
L 93.826116 238.546716 
L 94.143471 238.453746 
L 94.778182 237.853084 
L 95.095537 237.135233 
L 96.047603 235.738703 
L 96.682314 233.969352 
L 97.317025 233.605937 
L 97.63438 233.161228 
L 98.269091 232.989991 
L 98.586446 232.579881 
L 99.221157 232.442771 
L 99.538512 232.268077 
L 99.855868 231.91621 
L 101.125289 231.463166 
L 101.442645 231.218414 
L 102.077355 230.440103 
L 102.394711 230.212382 
L 103.664132 228.405286 
L 103.981488 228.188038 
L 104.616198 228.107027 
L 105.88562 227.069287 
L 106.202975 226.824092 
L 107.155041 226.424279 
L 107.472397 226.196552 
L 107.789752 225.773346 
L 108.107107 225.680486 
L 108.424463 225.132181 
L 109.059174 224.85682 
L 109.693884 224.214818 
L 110.01124 223.879977 
L 110.64595 223.58069 
L 111.280661 223.021904 
L 112.550083 222.55036 
L 112.867438 222.128432 
L 113.502149 221.921778 
L 113.819504 221.253269 
L 114.77157 220.872221 
L 115.723636 220.151569 
L 116.358347 219.523298 
L 116.993058 219.10456 
L 117.310413 218.983979 
L 117.627769 218.352604 
L 118.262479 218.004961 
L 118.579835 217.478376 
L 122.070744 215.728009 
L 122.388099 215.367325 
L 123.02281 215.17859 
L 123.657521 215.06367 
L 124.609587 214.522577 
L 125.561653 214.167249 
L 126.196364 213.657717 
L 127.14843 213.22207 
L 129.052562 211.640064 
L 130.321983 210.716794 
L 132.226116 209.82605 
L 133.495537 209.53528 
L 134.130248 209.145053 
L 136.986446 207.704358 
L 137.621157 207.414474 
L 138.573223 206.974487 
L 140.477355 206.183175 
L 140.794711 205.732172 
L 143.333554 204.748056 
L 143.968264 204.404197 
L 144.602975 204.227253 
L 144.920331 203.895845 
L 146.189752 203.464635 
L 146.507107 203.192034 
L 148.728595 202.37439 
L 149.680661 201.746293 
L 149.998017 201.394663 
L 153.488926 199.823601 
L 154.123636 199.474297 
L 155.075702 199.139186 
L 155.393058 199.078373 
L 156.345124 198.6316 
L 158.249256 198.033928 
L 158.883967 197.558837 
L 159.518678 197.239559 
L 160.153388 197.09921 
L 162.692231 195.964365 
L 163.326942 195.745135 
L 169.356694 193.156814 
L 170.30876 192.962915 
L 170.943471 192.761311 
L 171.260826 192.544181 
L 172.212893 192.263059 
L 172.530248 192.032633 
L 173.164959 191.909761 
L 175.069091 191.32376 
L 175.703802 190.851513 
L 176.338512 190.635306 
L 184.272397 187.668207 
L 184.589752 187.438104 
L 185.859174 187.154047 
L 188.398017 186.039956 
L 189.032727 185.828356 
L 192.523636 184.788812 
L 195.062479 183.829271 
L 196.014545 183.418972 
L 199.82281 182.149272 
L 204.58314 180.66995 
L 204.900496 180.440543 
L 206.169917 180.011285 
L 209.026116 179.065264 
L 210.295537 178.57565 
L 211.882314 178.193327 
L 213.469091 177.720944 
L 215.055868 177.072929 
L 216.325289 176.648795 
L 218.546777 175.819663 
L 219.498843 175.377293 
L 220.133554 175.159913 
L 220.450909 175.095108 
L 220.768264 174.901552 
L 221.08562 174.88958 
L 221.402975 174.612479 
L 222.989752 174.104328 
L 223.307107 174.058761 
L 223.624463 173.868952 
L 224.893884 173.572962 
L 225.21124 173.514743 
L 225.528595 173.331794 
L 225.84595 173.318382 
L 226.480661 173.067872 
L 227.115372 172.902524 
L 228.384793 172.459405 
L 229.019504 172.307301 
L 229.97157 172.022935 
L 230.923636 171.570891 
L 231.558347 171.360619 
L 232.510413 170.959755 
L 233.462479 170.704353 
L 234.09719 170.427398 
L 238.540165 169.043235 
L 239.492231 168.678289 
L 239.809587 168.603443 
L 240.126942 168.364474 
L 241.079008 168.149015 
L 242.665785 167.428618 
L 243.935207 167.071597 
L 244.887273 166.695681 
L 248.695537 165.226857 
L 249.330248 165.081466 
L 249.647603 164.858663 
L 251.869091 164.234696 
L 253.455868 163.577098 
L 254.407934 163.197097 
L 255.042645 163.007849 
L 256.312066 162.497306 
L 256.946777 162.309484 
L 258.533554 161.76359 
L 259.48562 161.469911 
L 260.755041 161.057379 
L 262.341818 160.69757 
L 263.61124 160.203806 
L 265.515372 159.553333 
L 266.467438 159.043686 
L 267.419504 158.646095 
L 268.054215 158.397589 
L 269.958347 157.79877 
L 272.814545 156.665934 
L 273.766612 156.287752 
L 275.988099 155.45126 
L 278.526942 154.311786 
L 279.161653 154.056061 
L 279.796364 153.80161 
L 280.113719 153.764035 
L 281.065785 153.337371 
L 281.700496 153.073462 
L 282.969917 152.571306 
L 283.604628 152.340541 
L 284.87405 151.827763 
L 285.826116 151.553154 
L 286.460826 151.298731 
L 286.778182 151.255859 
L 288.364959 150.402391 
L 288.999669 150.051684 
L 289.63438 149.729296 
L 291.221157 149.214916 
L 292.173223 148.756351 
L 292.807934 148.522897 
L 296.933554 146.873302 
L 297.250909 146.523574 
L 303.598017 143.885912 
L 303.915372 143.532711 
L 305.819504 142.847831 
L 310.579835 140.737402 
L 311.214545 140.55418 
L 312.166612 140.148622 
L 312.483967 139.978726 
L 313.118678 139.468919 
L 316.926942 137.848153 
L 317.561653 137.35042 
L 317.879008 137.247322 
L 318.513719 136.887933 
L 319.465785 136.483031 
L 322.004628 135.184744 
L 324.860826 134.003682 
L 325.495537 133.499241 
L 326.764959 132.906247 
L 327.082314 132.483044 
L 327.399669 132.411556 
L 328.03438 131.950406 
L 328.669091 131.745337 
L 328.986446 131.431658 
L 329.303802 131.382151 
L 329.938512 130.830755 
L 330.255868 130.813008 
L 332.16 129.813738 
L 332.477355 129.785281 
L 333.112066 129.383923 
L 333.746777 129.110533 
L 334.064132 128.905424 
L 334.698843 128.73338 
L 335.333554 128.313459 
L 335.968264 127.919369 
L 337.872397 126.600568 
L 338.189752 126.503269 
L 338.507107 126.209109 
L 339.459174 125.777487 
L 339.776529 125.532015 
L 340.41124 125.344038 
L 341.04595 124.874227 
L 341.363306 124.646118 
L 341.680661 124.194693 
L 342.315372 123.818889 
L 344.854215 122.535895 
L 345.488926 122.076415 
L 345.806281 121.88374 
L 346.123636 121.495747 
L 346.758347 120.998175 
L 347.075702 120.744548 
L 347.393058 120.64613 
L 348.027769 120.213509 
L 348.662479 119.859387 
L 348.979835 119.68585 
L 349.614545 119.011132 
L 349.931901 118.714799 
L 350.249256 118.627116 
L 350.883967 118.202746 
L 351.201322 118.149038 
L 351.836033 117.80574 
L 353.105455 117.063221 
L 353.42281 116.889959 
L 353.740165 116.470163 
L 354.057521 116.383952 
L 354.374876 115.968553 
L 355.009587 115.780272 
L 355.961653 115.34372 
L 356.279008 114.796294 
L 356.596364 114.65085 
L 357.54843 113.745098 
L 357.865785 113.607903 
L 358.817851 112.850053 
L 359.135207 112.698068 
L 359.452562 112.27945 
L 359.769917 112.159084 
L 361.039339 111.129861 
L 361.67405 110.933076 
L 361.991405 110.635209 
L 362.30876 110.496635 
L 362.943471 109.995399 
L 363.260826 109.927489 
L 363.578182 109.676652 
L 363.895537 109.638124 
L 365.482314 108.688351 
L 366.117025 108.001668 
L 366.751736 107.327614 
L 367.069091 107.25896 
L 367.703802 106.342017 
L 368.655868 106.082917 
L 368.973223 105.714787 
L 369.290579 105.668209 
L 369.607934 105.234942 
L 369.925289 105.113658 
L 370.56 104.14255 
L 370.877355 103.878724 
L 371.194711 103.818371 
L 371.512066 103.455375 
L 372.146777 103.136385 
L 372.464132 102.80676 
L 372.781488 102.785186 
L 373.098843 102.535547 
L 373.733554 101.556241 
L 374.050909 101.41625 
L 374.368264 101.056563 
L 374.68562 100.952296 
L 375.002975 100.715983 
L 375.320331 100.142247 
L 376.272397 99.429491 
L 376.589752 98.737558 
L 376.907107 98.656843 
L 377.541818 98.053658 
L 378.176529 97.394559 
L 378.493884 96.957669 
L 378.81124 96.8271 
L 379.44595 95.726274 
L 379.763306 95.636644 
L 380.080661 94.990599 
L 380.398017 94.807257 
L 380.715372 94.454544 
L 381.350083 94.097257 
L 381.667438 93.223521 
L 381.984793 93.173172 
L 382.302149 92.832647 
L 383.254215 92.379079 
L 383.57157 91.540692 
L 383.888926 91.08576 
L 384.206281 90.852316 
L 384.840992 90.0588 
L 385.793058 89.28095 
L 386.110413 88.72135 
L 386.427769 87.815002 
L 386.745124 87.730126 
L 387.062479 87.370311 
L 387.69719 86.496667 
L 388.014545 86.283623 
L 388.649256 85.559704 
L 388.966612 85.4546 
L 390.236033 83.788887 
L 390.553388 83.540889 
L 390.870744 82.277314 
L 391.82281 80.362344 
L 392.457521 79.510866 
L 392.774876 78.845097 
L 393.092231 77.690423 
L 393.409587 77.517436 
L 394.044298 76.378636 
L 394.361653 75.655594 
L 394.679008 75.316363 
L 394.996364 72.224589 
L 395.313719 71.743565 
L 396.265785 68.944569 
L 396.58314 66.969983 
L 396.900496 66.649383 
L 397.217851 62.666584 
L 397.535207 62.628712 
L 397.852562 60.759972 
L 398.169917 57.727865 
L 398.487273 53.568 
L 398.487273 53.568 
" clip-path="url(#p14e1eeeb15)" style="fill: none; stroke: #1f77b4; stroke-width: 1.5; stroke-linecap: square"/>
   </g>
   <g id="line2d_17">
    <path d="M 73.832727 207.055697 
L 74.150083 201.057915 
L 74.467438 200.470804 
L 74.784793 198.766949 
L 75.102149 196.113144 
L 75.419504 195.060133 
L 76.054215 193.832296 
L 76.37157 192.769169 
L 76.688926 192.769169 
L 77.006281 192.241288 
L 77.323636 190.503628 
L 77.640992 190.115364 
L 78.275702 189.062354 
L 78.593058 189.062351 
L 78.910413 188.475242 
L 79.227769 188.454632 
L 80.179835 186.771388 
L 80.49719 186.771388 
L 81.131901 186.243506 
L 81.449256 186.080189 
L 83.036033 184.191027 
L 83.670744 183.967271 
L 83.988099 183.513216 
L 84.305455 183.472565 
L 84.62281 183.064572 
L 84.940165 183.06457 
L 85.257521 182.806599 
L 85.574876 182.775047 
L 85.892231 182.477461 
L 86.209587 182.45685 
L 86.526942 182.324184 
L 87.161653 181.836735 
L 88.113719 181.128808 
L 88.431074 180.773607 
L 88.74843 180.773607 
L 89.065785 180.463532 
L 90.017851 180.15473 
L 90.335207 180.082409 
L 90.969917 179.357756 
L 91.921983 179.258026 
L 92.87405 178.568673 
L 93.191405 178.508066 
L 93.50876 178.193244 
L 94.143471 177.969492 
L 95.730248 177.474785 
L 96.047603 177.421154 
L 96.364959 177.06679 
L 96.682314 177.066789 
L 97.317025 176.80882 
L 97.63438 176.777265 
L 97.951736 176.47968 
L 98.269091 176.459068 
L 98.586446 176.326403 
L 98.903802 176.323228 
L 99.221157 176.122039 
L 100.173223 175.960264 
L 101.125289 175.517997 
L 101.76 175.180931 
L 102.077355 175.131028 
L 102.394711 174.781852 
L 103.029421 174.775826 
L 103.346777 174.46575 
L 103.981488 174.247945 
L 104.933554 174.084629 
L 105.250909 173.672144 
L 107.472397 173.260246 
L 107.789752 173.038272 
L 108.741818 172.861328 
L 109.693884 172.53004 
L 110.328595 172.492449 
L 110.64595 172.195462 
L 114.13686 171.423374 
L 114.454215 171.088047 
L 115.088926 171.069008 
L 115.723636 170.811039 
L 116.358347 170.766347 
L 116.675702 170.481899 
L 116.993058 170.461287 
L 117.310413 170.328623 
L 117.627769 170.325447 
L 117.945124 170.124259 
L 120.166612 169.943406 
L 120.801322 169.841174 
L 121.436033 169.612646 
L 123.340165 169.134657 
L 123.657521 169.133247 
L 123.974876 168.784072 
L 124.926942 168.726505 
L 126.196364 168.346578 
L 127.465785 168.225856 
L 128.100496 168.086849 
L 128.417851 167.674363 
L 130.956694 167.209072 
L 131.27405 167.043525 
L 131.90876 167.012187 
L 132.860826 166.7366 
L 134.447603 166.494668 
L 134.764959 166.197681 
L 136.669091 165.861399 
L 136.986446 165.723243 
L 138.890579 165.623207 
L 140.794711 165.425594 
L 141.112066 165.140503 
L 143.968264 164.731432 
L 144.28562 164.484118 
L 144.602975 164.463506 
L 144.920331 164.330842 
L 145.555041 164.264921 
L 145.872397 164.126479 
L 148.728595 163.90803 
L 153.17157 162.91625 
L 153.488926 162.786293 
L 154.758347 162.728724 
L 155.710413 162.480779 
L 156.345124 162.348798 
L 156.979835 162.262456 
L 158.566612 162.107702 
L 158.883967 162.089069 
L 159.201322 161.736727 
L 160.153388 161.617012 
L 161.740165 161.537418 
L 162.057521 161.364409 
L 163.009587 161.264685 
L 166.500496 160.69634 
L 167.135207 160.575329 
L 168.087273 160.496886 
L 168.404628 160.1999 
L 170.30876 159.963602 
L 170.626116 159.72546 
L 172.530248 159.627018 
L 174.43438 159.427813 
L 174.751736 159.393699 
L 175.386446 159.175529 
L 176.655868 159.073446 
L 176.973223 158.897787 
L 177.925289 158.783919 
L 179.194711 158.680213 
L 179.512066 158.486337 
L 181.098843 158.329886 
L 183.320331 157.966923 
L 185.541818 157.76522 
L 186.493884 157.617084 
L 187.44595 157.496795 
L 187.763306 157.354254 
L 188.398017 157.344986 
L 189.032727 157.139093 
L 189.984793 156.866383 
L 196.966612 156.091289 
L 197.283967 155.738942 
L 197.918678 155.615037 
L 201.726942 155.213503 
L 202.044298 155.052128 
L 203.313719 155.016625 
L 203.94843 154.898896 
L 207.121983 154.499105 
L 207.439339 154.392333 
L 207.756694 154.160955 
L 209.343471 153.978376 
L 209.660826 153.727679 
L 212.517025 153.578106 
L 214.103802 153.430032 
L 214.421157 153.395915 
L 214.738512 153.229707 
L 226.798017 151.614978 
L 228.067438 151.356473 
L 229.019504 151.282025 
L 229.654215 151.166176 
L 230.288926 151.021863 
L 230.923636 150.8686 
L 237.905455 150.093509 
L 238.22281 149.741158 
L 238.857521 149.617256 
L 242.34843 149.226161 
L 242.665785 149.071289 
L 244.887273 148.870204 
L 245.521983 148.777114 
L 249.330248 148.278717 
L 249.964959 148.134042 
L 250.599669 148.076407 
L 252.186446 147.725078 
L 254.407934 147.580324 
L 255.36 147.526527 
L 256.312066 147.218109 
L 259.48562 146.858356 
L 261.072397 146.480368 
L 262.024463 146.401402 
L 262.976529 146.3375 
L 263.61124 146.271572 
L 264.24595 146.03858 
L 266.150083 145.896188 
L 267.102149 145.782948 
L 267.73686 145.700577 
L 269.640992 145.293166 
L 270.275702 145.192024 
L 270.593058 145.14353 
L 270.910413 144.870817 
L 275.988099 144.263494 
L 276.62281 144.162314 
L 278.209587 144.063384 
L 279.479008 143.586855 
L 281.065785 143.466046 
L 282.017851 143.371064 
L 282.335207 143.284197 
L 282.652562 143.073505 
L 284.556694 142.872423 
L 288.999669 142.280936 
L 289.63438 142.165392 
L 290.586446 142.078627 
L 291.538512 141.721842 
L 292.490579 141.63624 
L 293.76 141.538327 
L 294.712066 141.194039 
L 296.298843 141.052991 
L 296.933554 140.904446 
L 297.568264 140.860573 
L 299.155041 140.482589 
L 299.789752 140.403625 
L 308.993058 138.960485 
L 309.945124 138.746074 
L 310.579835 138.704016 
L 311.214545 138.543979 
L 312.166612 138.449416 
L 313.118678 138.265711 
L 313.753388 138.164531 
L 315.02281 137.936851 
L 315.657521 137.589072 
L 316.926942 137.538264 
L 317.879008 137.373282 
L 318.196364 137.349967 
L 318.513719 137.07572 
L 320.417851 136.874642 
L 321.687273 136.699813 
L 322.321983 136.517562 
L 323.90876 136.377366 
L 326.130248 135.910483 
L 326.447603 135.731077 
L 327.399669 135.635902 
L 328.351736 135.391241 
L 329.621157 135.184403 
L 330.890579 135.078916 
L 331.525289 134.779661 
L 332.477355 134.689079 
L 332.794711 134.48481 
L 333.746777 134.405847 
L 337.237686 133.80205 
L 337.555041 133.534775 
L 339.141818 133.288681 
L 339.776529 133.147967 
L 340.093884 132.914597 
L 341.363306 132.735887 
L 341.680661 132.575668 
L 342.950083 132.448373 
L 343.902149 132.280855 
L 345.17157 132.125483 
L 346.123636 131.939068 
L 346.440992 131.591289 
L 347.075702 131.587471 
L 347.710413 131.375501 
L 348.027769 131.352181 
L 348.345124 131.060993 
L 349.29719 130.839725 
L 349.931901 130.72207 
L 350.566612 130.702026 
L 351.201322 130.412013 
L 352.470744 130.285374 
L 353.740165 129.912696 
L 354.057521 129.733295 
L 354.692231 129.671649 
L 356.913719 129.185774 
L 357.54843 129.088541 
L 358.18314 128.776718 
L 358.500496 128.722867 
L 359.135207 128.352367 
L 359.769917 128.271863 
L 360.087273 128.218305 
L 360.404628 127.895745 
L 361.039339 127.832164 
L 361.356694 127.536999 
L 364.212893 126.87747 
L 365.164959 126.57789 
L 365.799669 126.453853 
L 366.43438 126.283072 
L 367.386446 126.168966 
L 367.703802 126.102015 
L 368.021157 125.755109 
L 368.338512 125.593506 
L 368.655868 125.590167 
L 369.290579 125.063209 
L 370.56 124.815029 
L 370.877355 124.724285 
L 371.512066 124.381814 
L 372.464132 124.200546 
L 373.098843 123.735513 
L 374.368264 123.200691 
L 375.320331 123.090753 
L 375.637686 122.778929 
L 376.272397 122.581112 
L 377.541818 122.27408 
L 377.859174 121.89796 
L 378.493884 121.834382 
L 378.81124 121.437497 
L 379.128595 121.431935 
L 379.44595 121.069979 
L 380.398017 120.570929 
L 381.350083 120.28529 
L 381.984793 120.171184 
L 382.302149 120.104231 
L 383.254215 119.065426 
L 383.57157 119.058621 
L 384.840992 118.302349 
L 385.475702 118.202765 
L 386.110413 117.917125 
L 386.745124 117.330753 
L 387.379835 117.158501 
L 387.69719 117.092966 
L 388.014545 116.478787 
L 388.331901 116.276297 
L 388.649256 115.900176 
L 388.966612 115.843131 
L 389.283967 115.439714 
L 389.601322 115.434155 
L 390.553388 114.287508 
L 390.870744 114.274582 
L 391.188099 113.831119 
L 391.82281 113.75955 
L 392.140165 112.728717 
L 392.457521 112.28457 
L 393.409587 111.581644 
L 393.726942 111.16072 
L 394.361653 109.902391 
L 394.679008 109.441931 
L 394.996364 109.337549 
L 395.631074 108.677404 
L 396.265785 106.730933 
L 396.58314 106.286789 
L 396.900496 106.075339 
L 397.217851 102.926277 
L 397.535207 102.679618 
L 397.852562 101.770227 
L 398.487273 96.928486 
L 398.487273 96.928486 
" clip-path="url(#p14e1eeeb15)" style="fill: none; stroke: #ff7f0e; stroke-width: 1.5; stroke-linecap: square"/>
   </g>
   <g id="patch_3">
    <path d="M 57.6 307.584 
L 57.6 41.472 
" style="fill: none; stroke: #000000; stroke-width: 0.8; stroke-linejoin: miter; stroke-linecap: square"/>
   </g>
   <g id="patch_4">
    <path d="M 414.72 307.584 
L 414.72 41.472 
" style="fill: none; stroke: #000000; stroke-width: 0.8; stroke-linejoin: miter; stroke-linecap: square"/>
   </g>
   <g id="patch_5">
    <path d="M 57.6 307.584 
L 414.72 307.584 
" style="fill: none; stroke: #000000; stroke-width: 0.8; stroke-linejoin: miter; stroke-linecap: square"/>
   </g>
   <g id="patch_6">
    <path d="M 57.6 41.472 
L 414.72 41.472 
" style="fill: none; stroke: #000000; stroke-width: 0.8; stroke-linejoin: miter; stroke-linecap: square"/>
   </g>
   <g id="legend_1">
    <g id="patch_7">
     <path d="M 64.6 78.82825 
L 129.342187 78.82825 
Q 131.342187 78.82825 131.342187 76.82825 
L 131.342187 48.472 
Q 131.342187 46.472 129.342187 46.472 
L 64.6 46.472 
Q 62.6 46.472 62.6 48.472 
L 62.6 76.82825 
Q 62.6 78.82825 64.6 78.82825 
z
" style="fill: #ffffff; opacity: 0.8; stroke: #cccccc; stroke-linejoin: miter"/>
    </g>
    <g id="line2d_18">
     <path d="M 66.6 54.570437 
L 76.6 54.570437 
L 86.6 54.570437 
" style="fill: none; stroke: #1f77b4; stroke-width: 1.5; stroke-linecap: square"/>
    </g>
    <g id="text_18">
     <!-- qc -->
     <g transform="translate(94.6 58.070437) scale(0.1 -0.1)">
      <defs>
       <path id="DejaVuSans-71" d="M 947 1747 
Q 947 1113 1208 752 
Q 1469 391 1925 391 
Q 2381 391 2643 752 
Q 2906 1113 2906 1747 
Q 2906 2381 2643 2742 
Q 2381 3103 1925 3103 
Q 1469 3103 1208 2742 
Q 947 2381 947 1747 
z
M 2906 525 
Q 2725 213 2448 61 
Q 2172 -91 1784 -91 
Q 1150 -91 751 415 
Q 353 922 353 1747 
Q 353 2572 751 3078 
Q 1150 3584 1784 3584 
Q 2172 3584 2448 3432 
Q 2725 3281 2906 2969 
L 2906 3500 
L 3481 3500 
L 3481 -1331 
L 2906 -1331 
L 2906 525 
z
" transform="scale(0.015625)"/>
       <path id="DejaVuSans-63" d="M 3122 3366 
L 3122 2828 
Q 2878 2963 2633 3030 
Q 2388 3097 2138 3097 
Q 1578 3097 1268 2742 
Q 959 2388 959 1747 
Q 959 1106 1268 751 
Q 1578 397 2138 397 
Q 2388 397 2633 464 
Q 2878 531 3122 666 
L 3122 134 
Q 2881 22 2623 -34 
Q 2366 -91 2075 -91 
Q 1284 -91 818 406 
Q 353 903 353 1747 
Q 353 2603 823 3093 
Q 1294 3584 2113 3584 
Q 2378 3584 2631 3529 
Q 2884 3475 3122 3366 
z
" transform="scale(0.015625)"/>
      </defs>
      <use xlink:href="#DejaVuSans-71"/>
      <use xlink:href="#DejaVuSans-63" x="63.476562"/>
     </g>
    </g>
    <g id="line2d_19">
     <path d="M 66.6 69.248562 
L 76.6 69.248562 
L 86.6 69.248562 
" style="fill: none; stroke: #ff7f0e; stroke-width: 1.5; stroke-linecap: square"/>
    </g>
    <g id="text_19">
     <!-- Trotter -->
     <g transform="translate(94.6 72.748562) scale(0.1 -0.1)">
      <defs>
       <path id="DejaVuSans-54" d="M -19 4666 
L 3928 4666 
L 3928 4134 
L 2272 4134 
L 2272 0 
L 1638 0 
L 1638 4134 
L -19 4134 
L -19 4666 
z
" transform="scale(0.015625)"/>
       <path id="DejaVuSans-72" d="M 2631 2963 
Q 2534 3019 2420 3045 
Q 2306 3072 2169 3072 
Q 1681 3072 1420 2755 
Q 1159 2438 1159 1844 
L 1159 0 
L 581 0 
L 581 3500 
L 1159 3500 
L 1159 2956 
Q 1341 3275 1631 3429 
Q 1922 3584 2338 3584 
Q 2397 3584 2469 3576 
Q 2541 3569 2628 3553 
L 2631 2963 
z
" transform="scale(0.015625)"/>
       <path id="DejaVuSans-6f" d="M 1959 3097 
Q 1497 3097 1228 2736 
Q 959 2375 959 1747 
Q 959 1119 1226 758 
Q 1494 397 1959 397 
Q 2419 397 2687 759 
Q 2956 1122 2956 1747 
Q 2956 2369 2687 2733 
Q 2419 3097 1959 3097 
z
M 1959 3584 
Q 2709 3584 3137 3096 
Q 3566 2609 3566 1747 
Q 3566 888 3137 398 
Q 2709 -91 1959 -91 
Q 1206 -91 779 398 
Q 353 888 353 1747 
Q 353 2609 779 3096 
Q 1206 3584 1959 3584 
z
" transform="scale(0.015625)"/>
       <path id="DejaVuSans-65" d="M 3597 1894 
L 3597 1613 
L 953 1613 
Q 991 1019 1311 708 
Q 1631 397 2203 397 
Q 2534 397 2845 478 
Q 3156 559 3463 722 
L 3463 178 
Q 3153 47 2828 -22 
Q 2503 -91 2169 -91 
Q 1331 -91 842 396 
Q 353 884 353 1716 
Q 353 2575 817 3079 
Q 1281 3584 2069 3584 
Q 2775 3584 3186 3129 
Q 3597 2675 3597 1894 
z
M 3022 2063 
Q 3016 2534 2758 2815 
Q 2500 3097 2075 3097 
Q 1594 3097 1305 2825 
Q 1016 2553 972 2059 
L 3022 2063 
z
" transform="scale(0.015625)"/>
      </defs>
      <use xlink:href="#DejaVuSans-54"/>
      <use xlink:href="#DejaVuSans-72" x="46.333984"/>
      <use xlink:href="#DejaVuSans-6f" x="85.197266"/>
      <use xlink:href="#DejaVuSans-74" x="146.378906"/>
      <use xlink:href="#DejaVuSans-74" x="185.587891"/>
      <use xlink:href="#DejaVuSans-65" x="224.796875"/>
      <use xlink:href="#DejaVuSans-72" x="286.320312"/>
     </g>
    </g>
   </g>
  </g>
 </g>
 <defs>
  <clipPath id="p14e1eeeb15">
   <rect x="57.6" y="41.472" width="357.12" height="266.112"/>
  </clipPath>
 </defs>
</svg>
