<?xml version="1.0" encoding="utf-8" standalone="no"?>
<!DOCTYPE svg PUBLIC "-//W3C//DTD SVG 1.1//EN"
  "http://www.w3.org/Graphics/SVG/1.1/DTD/svg11.dtd">
<svg xmlns:xlink="http://www.w3.org/1999/xlink" width="460.8pt" height="345.6pt" viewBox="0 0 460.8 345.6" xmlns="http://www.w3.org/2000/svg" version="1.1">
 <metadata>
  <rdf:RDF xmlns:dc="http://purl.org/dc/elements/1.1/" xmlns:cc="http://creativecommons.org/ns#" xmlns:rdf="http://www.w3.org/1999/02/22-rdf-syntax-ns#">
   <cc:Work>
    <dc:type rdf:resource="http://purl.org/dc/dcmitype/StillImage"/>
    <dc:date>2024-08-25T12:25:46.645435</dc:date>
    <dc:format>image/svg+xml</dc:format>
    <dc:creator>
     <cc:Agent>
      <dc:title>Matplotlib v3.7.1, https://matplotlib.org/</dc:title>
     </cc:Agent>
    </dc:creator>
   </cc:Work>
  </rdf:RDF>
 </metadata>
 <defs>
  <style type="text/css">*{stroke-linejoin: round; stroke-linecap: butt}</style>
 </defs>
 <g id="figure_1">
  <g id="patch_1">
   <path d="M 0 345.6 
L 460.8 345.6 
L 460.8 0 
L 0 0 
z
" style="fill: #ffffff"/>
  </g>
  <g id="axes_1">
   <g id="patch_2">
    <path d="M 57.6 307.584 
L 414.72 307.584 
L 414.72 41.472 
L 57.6 41.472 
z
" style="fill: #ffffff"/>
   </g>
   <g id="matplotlib.axis_1">
    <g id="xtick_1">
     <g id="line2d_1">
      <defs>
       <path id="me56447937e" d="M 0 0 
L 0 3.5 
" style="stroke: #000000; stroke-width: 0.8"/>
      </defs>
      <g>
       <use xlink:href="#me56447937e" x="73.832727" y="307.584" style="stroke: #000000; stroke-width: 0.8"/>
      </g>
     </g>
     <g id="text_1">
      <!-- 0 -->
      <g transform="translate(70.651477 322.182437) scale(0.1 -0.1)">
       <defs>
        <path id="DejaVuSans-30" d="M 2034 4250 
Q 1547 4250 1301 3770 
Q 1056 3291 1056 2328 
Q 1056 1369 1301 889 
Q 1547 409 2034 409 
Q 2525 409 2770 889 
Q 3016 1369 3016 2328 
Q 3016 3291 2770 3770 
Q 2525 4250 2034 4250 
z
M 2034 4750 
Q 2819 4750 3233 4129 
Q 3647 3509 3647 2328 
Q 3647 1150 3233 529 
Q 2819 -91 2034 -91 
Q 1250 -91 836 529 
Q 422 1150 422 2328 
Q 422 3509 836 4129 
Q 1250 4750 2034 4750 
z
" transform="scale(0.015625)"/>
       </defs>
       <use xlink:href="#DejaVuSans-30"/>
      </g>
     </g>
    </g>
    <g id="xtick_2">
     <g id="line2d_2">
      <g>
       <use xlink:href="#me56447937e" x="137.303802" y="307.584" style="stroke: #000000; stroke-width: 0.8"/>
      </g>
     </g>
     <g id="text_2">
      <!-- 200 -->
      <g transform="translate(127.760052 322.182437) scale(0.1 -0.1)">
       <defs>
        <path id="DejaVuSans-32" d="M 1228 531 
L 3431 531 
L 3431 0 
L 469 0 
L 469 531 
Q 828 903 1448 1529 
Q 2069 2156 2228 2338 
Q 2531 2678 2651 2914 
Q 2772 3150 2772 3378 
Q 2772 3750 2511 3984 
Q 2250 4219 1831 4219 
Q 1534 4219 1204 4116 
Q 875 4013 500 3803 
L 500 4441 
Q 881 4594 1212 4672 
Q 1544 4750 1819 4750 
Q 2544 4750 2975 4387 
Q 3406 4025 3406 3419 
Q 3406 3131 3298 2873 
Q 3191 2616 2906 2266 
Q 2828 2175 2409 1742 
Q 1991 1309 1228 531 
z
" transform="scale(0.015625)"/>
       </defs>
       <use xlink:href="#DejaVuSans-32"/>
       <use xlink:href="#DejaVuSans-30" x="63.623047"/>
       <use xlink:href="#DejaVuSans-30" x="127.246094"/>
      </g>
     </g>
    </g>
    <g id="xtick_3">
     <g id="line2d_3">
      <g>
       <use xlink:href="#me56447937e" x="200.774876" y="307.584" style="stroke: #000000; stroke-width: 0.8"/>
      </g>
     </g>
     <g id="text_3">
      <!-- 400 -->
      <g transform="translate(191.231126 322.182437) scale(0.1 -0.1)">
       <defs>
        <path id="DejaVuSans-34" d="M 2419 4116 
L 825 1625 
L 2419 1625 
L 2419 4116 
z
M 2253 4666 
L 3047 4666 
L 3047 1625 
L 3713 1625 
L 3713 1100 
L 3047 1100 
L 3047 0 
L 2419 0 
L 2419 1100 
L 313 1100 
L 313 1709 
L 2253 4666 
z
" transform="scale(0.015625)"/>
       </defs>
       <use xlink:href="#DejaVuSans-34"/>
       <use xlink:href="#DejaVuSans-30" x="63.623047"/>
       <use xlink:href="#DejaVuSans-30" x="127.246094"/>
      </g>
     </g>
    </g>
    <g id="xtick_4">
     <g id="line2d_4">
      <g>
       <use xlink:href="#me56447937e" x="264.24595" y="307.584" style="stroke: #000000; stroke-width: 0.8"/>
      </g>
     </g>
     <g id="text_4">
      <!-- 600 -->
      <g transform="translate(254.7022 322.182437) scale(0.1 -0.1)">
       <defs>
        <path id="DejaVuSans-36" d="M 2113 2584 
Q 1688 2584 1439 2293 
Q 1191 2003 1191 1497 
Q 1191 994 1439 701 
Q 1688 409 2113 409 
Q 2538 409 2786 701 
Q 3034 994 3034 1497 
Q 3034 2003 2786 2293 
Q 2538 2584 2113 2584 
z
M 3366 4563 
L 3366 3988 
Q 3128 4100 2886 4159 
Q 2644 4219 2406 4219 
Q 1781 4219 1451 3797 
Q 1122 3375 1075 2522 
Q 1259 2794 1537 2939 
Q 1816 3084 2150 3084 
Q 2853 3084 3261 2657 
Q 3669 2231 3669 1497 
Q 3669 778 3244 343 
Q 2819 -91 2113 -91 
Q 1303 -91 875 529 
Q 447 1150 447 2328 
Q 447 3434 972 4092 
Q 1497 4750 2381 4750 
Q 2619 4750 2861 4703 
Q 3103 4656 3366 4563 
z
" transform="scale(0.015625)"/>
       </defs>
       <use xlink:href="#DejaVuSans-36"/>
       <use xlink:href="#DejaVuSans-30" x="63.623047"/>
       <use xlink:href="#DejaVuSans-30" x="127.246094"/>
      </g>
     </g>
    </g>
    <g id="xtick_5">
     <g id="line2d_5">
      <g>
       <use xlink:href="#me56447937e" x="327.717025" y="307.584" style="stroke: #000000; stroke-width: 0.8"/>
      </g>
     </g>
     <g id="text_5">
      <!-- 800 -->
      <g transform="translate(318.173275 322.182437) scale(0.1 -0.1)">
       <defs>
        <path id="DejaVuSans-38" d="M 2034 2216 
Q 1584 2216 1326 1975 
Q 1069 1734 1069 1313 
Q 1069 891 1326 650 
Q 1584 409 2034 409 
Q 2484 409 2743 651 
Q 3003 894 3003 1313 
Q 3003 1734 2745 1975 
Q 2488 2216 2034 2216 
z
M 1403 2484 
Q 997 2584 770 2862 
Q 544 3141 544 3541 
Q 544 4100 942 4425 
Q 1341 4750 2034 4750 
Q 2731 4750 3128 4425 
Q 3525 4100 3525 3541 
Q 3525 3141 3298 2862 
Q 3072 2584 2669 2484 
Q 3125 2378 3379 2068 
Q 3634 1759 3634 1313 
Q 3634 634 3220 271 
Q 2806 -91 2034 -91 
Q 1263 -91 848 271 
Q 434 634 434 1313 
Q 434 1759 690 2068 
Q 947 2378 1403 2484 
z
M 1172 3481 
Q 1172 3119 1398 2916 
Q 1625 2713 2034 2713 
Q 2441 2713 2670 2916 
Q 2900 3119 2900 3481 
Q 2900 3844 2670 4047 
Q 2441 4250 2034 4250 
Q 1625 4250 1398 4047 
Q 1172 3844 1172 3481 
z
" transform="scale(0.015625)"/>
       </defs>
       <use xlink:href="#DejaVuSans-38"/>
       <use xlink:href="#DejaVuSans-30" x="63.623047"/>
       <use xlink:href="#DejaVuSans-30" x="127.246094"/>
      </g>
     </g>
    </g>
    <g id="xtick_6">
     <g id="line2d_6">
      <g>
       <use xlink:href="#me56447937e" x="391.188099" y="307.584" style="stroke: #000000; stroke-width: 0.8"/>
      </g>
     </g>
     <g id="text_6">
      <!-- 1000 -->
      <g transform="translate(378.463099 322.182437) scale(0.1 -0.1)">
       <defs>
        <path id="DejaVuSans-31" d="M 794 531 
L 1825 531 
L 1825 4091 
L 703 3866 
L 703 4441 
L 1819 4666 
L 2450 4666 
L 2450 531 
L 3481 531 
L 3481 0 
L 794 0 
L 794 531 
z
" transform="scale(0.015625)"/>
       </defs>
       <use xlink:href="#DejaVuSans-31"/>
       <use xlink:href="#DejaVuSans-30" x="63.623047"/>
       <use xlink:href="#DejaVuSans-30" x="127.246094"/>
       <use xlink:href="#DejaVuSans-30" x="190.869141"/>
      </g>
     </g>
    </g>
    <g id="text_7">
     <!-- n -->
     <g transform="translate(232.99125 335.860562) scale(0.1 -0.1)">
      <defs>
       <path id="DejaVuSans-6e" d="M 3513 2113 
L 3513 0 
L 2938 0 
L 2938 2094 
Q 2938 2591 2744 2837 
Q 2550 3084 2163 3084 
Q 1697 3084 1428 2787 
Q 1159 2491 1159 1978 
L 1159 0 
L 581 0 
L 581 3500 
L 1159 3500 
L 1159 2956 
Q 1366 3272 1645 3428 
Q 1925 3584 2291 3584 
Q 2894 3584 3203 3211 
Q 3513 2838 3513 2113 
z
" transform="scale(0.015625)"/>
      </defs>
      <use xlink:href="#DejaVuSans-6e"/>
     </g>
    </g>
   </g>
   <g id="matplotlib.axis_2">
    <g id="ytick_1">
     <g id="line2d_7">
      <defs>
       <path id="m70dce28adb" d="M 0 0 
L -3.5 0 
" style="stroke: #000000; stroke-width: 0.8"/>
      </defs>
      <g>
       <use xlink:href="#m70dce28adb" x="57.6" y="279.349638" style="stroke: #000000; stroke-width: 0.8"/>
      </g>
     </g>
     <g id="text_8">
      <!-- −4 -->
      <g transform="translate(35.857813 283.148857) scale(0.1 -0.1)">
       <defs>
        <path id="DejaVuSans-2212" d="M 678 2272 
L 4684 2272 
L 4684 1741 
L 678 1741 
L 678 2272 
z
" transform="scale(0.015625)"/>
       </defs>
       <use xlink:href="#DejaVuSans-2212"/>
       <use xlink:href="#DejaVuSans-34" x="83.789062"/>
      </g>
     </g>
    </g>
    <g id="ytick_2">
     <g id="line2d_8">
      <g>
       <use xlink:href="#m70dce28adb" x="57.6" y="226.931523" style="stroke: #000000; stroke-width: 0.8"/>
      </g>
     </g>
     <g id="text_9">
      <!-- −2 -->
      <g transform="translate(35.857813 230.730742) scale(0.1 -0.1)">
       <use xlink:href="#DejaVuSans-2212"/>
       <use xlink:href="#DejaVuSans-32" x="83.789062"/>
      </g>
     </g>
    </g>
    <g id="ytick_3">
     <g id="line2d_9">
      <g>
       <use xlink:href="#m70dce28adb" x="57.6" y="174.513408" style="stroke: #000000; stroke-width: 0.8"/>
      </g>
     </g>
     <g id="text_10">
      <!-- 0 -->
      <g transform="translate(44.2375 178.312627) scale(0.1 -0.1)">
       <use xlink:href="#DejaVuSans-30"/>
      </g>
     </g>
    </g>
    <g id="ytick_4">
     <g id="line2d_10">
      <g>
       <use xlink:href="#m70dce28adb" x="57.6" y="122.095293" style="stroke: #000000; stroke-width: 0.8"/>
      </g>
     </g>
     <g id="text_11">
      <!-- 2 -->
      <g transform="translate(44.2375 125.894512) scale(0.1 -0.1)">
       <use xlink:href="#DejaVuSans-32"/>
      </g>
     </g>
    </g>
    <g id="ytick_5">
     <g id="line2d_11">
      <g>
       <use xlink:href="#m70dce28adb" x="57.6" y="69.677178" style="stroke: #000000; stroke-width: 0.8"/>
      </g>
     </g>
     <g id="text_12">
      <!-- 4 -->
      <g transform="translate(44.2375 73.476397) scale(0.1 -0.1)">
       <use xlink:href="#DejaVuSans-34"/>
      </g>
     </g>
    </g>
    <g id="text_13">
     <!-- E*t -->
     <g transform="translate(29.778125 182.147531) rotate(-90) scale(0.1 -0.1)">
      <defs>
       <path id="DejaVuSans-45" d="M 628 4666 
L 3578 4666 
L 3578 4134 
L 1259 4134 
L 1259 2753 
L 3481 2753 
L 3481 2222 
L 1259 2222 
L 1259 531 
L 3634 531 
L 3634 0 
L 628 0 
L 628 4666 
z
" transform="scale(0.015625)"/>
       <path id="DejaVuSans-2a" d="M 3009 3897 
L 1888 3291 
L 3009 2681 
L 2828 2375 
L 1778 3009 
L 1778 1831 
L 1422 1831 
L 1422 3009 
L 372 2375 
L 191 2681 
L 1313 3291 
L 191 3897 
L 372 4206 
L 1422 3572 
L 1422 4750 
L 1778 4750 
L 1778 3572 
L 2828 4206 
L 3009 3897 
z
" transform="scale(0.015625)"/>
       <path id="DejaVuSans-74" d="M 1172 4494 
L 1172 3500 
L 2356 3500 
L 2356 3053 
L 1172 3053 
L 1172 1153 
Q 1172 725 1289 603 
Q 1406 481 1766 481 
L 2356 481 
L 2356 0 
L 1766 0 
Q 1100 0 847 248 
Q 594 497 594 1153 
L 594 3053 
L 172 3053 
L 172 3500 
L 594 3500 
L 594 4494 
L 1172 4494 
z
" transform="scale(0.015625)"/>
      </defs>
      <use xlink:href="#DejaVuSans-45"/>
      <use xlink:href="#DejaVuSans-2a" x="63.183594"/>
      <use xlink:href="#DejaVuSans-74" x="113.183594"/>
     </g>
    </g>
   </g>
   <g id="line2d_12">
    <path d="M 73.832727 295.488 
L 74.150083 295.015844 
L 74.467438 294.945686 
L 74.784793 294.66745 
L 75.102149 294.055006 
L 76.688926 292.972736 
L 77.006281 292.542554 
L 77.640992 292.172082 
L 77.958347 292.134619 
L 78.910413 289.537726 
L 79.227769 289.496351 
L 79.545124 289.233848 
L 80.179835 288.414572 
L 80.49719 288.39462 
L 81.131901 286.94429 
L 81.449256 286.343975 
L 81.766612 286.319137 
L 82.083967 286.173175 
L 83.036033 285.083148 
L 83.670744 284.937669 
L 83.988099 284.269283 
L 84.62281 284.164475 
L 84.940165 283.526099 
L 85.257521 283.509271 
L 86.209587 282.851696 
L 86.526942 282.796191 
L 87.161653 282.431904 
L 87.479008 282.345419 
L 87.796364 281.962433 
L 88.431074 281.676484 
L 89.065785 280.148098 
L 89.38314 279.919023 
L 90.017851 279.137706 
L 90.335207 278.998961 
L 90.969917 278.381713 
L 91.921983 278.231632 
L 92.239339 278.029585 
L 92.556694 277.211565 
L 92.87405 277.15157 
L 93.191405 276.775763 
L 93.826116 275.235316 
L 94.460826 274.727152 
L 94.778182 274.008634 
L 95.412893 273.736315 
L 95.730248 273.193717 
L 96.047603 273.111467 
L 96.364959 271.052021 
L 96.682314 269.79843 
L 97.317025 269.705309 
L 97.63438 269.12538 
L 98.269091 269.011051 
L 98.903802 268.923959 
L 99.221157 267.958344 
L 99.538512 267.641883 
L 99.855868 267.492856 
L 101.125289 265.709765 
L 102.394711 265.343286 
L 103.029421 264.998236 
L 103.346777 264.551506 
L 104.298843 264.388839 
L 104.933554 263.756529 
L 105.88562 263.453819 
L 106.520331 262.874702 
L 106.837686 262.786929 
L 107.155041 262.320023 
L 107.472397 261.58133 
L 108.107107 260.966406 
L 109.059174 260.389122 
L 110.328595 259.910826 
L 110.64595 259.468314 
L 111.915372 258.87315 
L 112.232727 258.49004 
L 112.867438 258.311121 
L 113.502149 258.106967 
L 113.819504 257.558738 
L 114.13686 257.53116 
L 114.454215 257.301142 
L 115.088926 257.179755 
L 116.040992 256.433679 
L 116.675702 256.078886 
L 117.310413 255.451638 
L 118.262479 255.245607 
L 118.89719 254.50644 
L 119.214545 254.195682 
L 119.531901 253.672763 
L 119.849256 253.392081 
L 120.166612 252.910889 
L 120.483967 252.850704 
L 121.118678 252.306615 
L 121.753388 252.094303 
L 123.02281 251.656451 
L 123.974876 251.427869 
L 124.926942 250.872571 
L 125.561653 250.769255 
L 125.879008 250.123586 
L 126.513719 249.847182 
L 126.831074 249.325345 
L 127.14843 249.133631 
L 127.465785 248.530528 
L 128.100496 248.085556 
L 128.735207 247.707454 
L 129.369917 247.570452 
L 129.687273 247.03798 
L 130.321983 246.447428 
L 130.639339 246.391409 
L 131.27405 245.60421 
L 131.90876 245.442296 
L 132.543471 244.90055 
L 133.495537 244.624773 
L 133.812893 244.077652 
L 134.447603 243.631802 
L 135.082314 243.139725 
L 135.399669 242.537046 
L 135.717025 242.274488 
L 136.03438 241.828033 
L 136.351736 241.794627 
L 136.986446 241.277113 
L 137.303802 240.997991 
L 137.938512 240.810488 
L 138.255868 240.468835 
L 138.890579 240.287084 
L 140.477355 239.219878 
L 141.112066 238.435264 
L 141.746777 238.32119 
L 142.064132 237.666979 
L 142.698843 237.59655 
L 144.28562 236.674219 
L 144.602975 236.608965 
L 145.237686 236.098277 
L 145.555041 236.07705 
L 145.872397 235.744048 
L 146.189752 235.726582 
L 147.141818 235.008629 
L 148.093884 234.67362 
L 148.41124 234.328438 
L 149.04595 234.134834 
L 150.315372 233.191366 
L 150.632727 232.455291 
L 150.950083 232.326787 
L 151.267438 231.432461 
L 152.53686 231.263685 
L 152.854215 230.918536 
L 153.17157 230.808855 
L 153.488926 230.499203 
L 153.806281 230.447945 
L 154.123636 229.989401 
L 154.440992 228.819352 
L 154.758347 228.166533 
L 155.393058 227.962273 
L 155.710413 227.332125 
L 156.027769 227.204958 
L 156.345124 226.638695 
L 156.979835 226.09325 
L 157.29719 226.059014 
L 158.566612 225.411851 
L 159.201322 225.239489 
L 159.518678 224.290986 
L 159.836033 224.140713 
L 160.153388 223.520034 
L 160.788099 223.309223 
L 161.105455 222.471773 
L 161.42281 222.226486 
L 161.740165 222.182898 
L 162.057521 221.899074 
L 162.374876 221.360399 
L 163.326942 221.080277 
L 163.644298 221.031507 
L 164.913719 220.219657 
L 166.18314 219.785386 
L 166.500496 219.511834 
L 166.817851 218.979814 
L 169.991405 217.251727 
L 170.30876 216.670974 
L 171.260826 215.799075 
L 171.578182 215.277829 
L 172.212893 215.252386 
L 172.530248 215.043128 
L 172.847603 214.495657 
L 173.482314 214.414382 
L 173.799669 214.136263 
L 174.117025 214.101948 
L 174.43438 213.641897 
L 174.751736 213.611305 
L 175.069091 213.386771 
L 175.386446 213.315658 
L 176.655868 212.566968 
L 176.973223 212.545271 
L 177.290579 212.381668 
L 177.607934 211.845876 
L 178.56 211.522283 
L 178.877355 211.074815 
L 180.146777 210.241448 
L 180.464132 210.182975 
L 180.781488 209.726067 
L 181.098843 209.503002 
L 182.050909 209.332644 
L 182.68562 208.554097 
L 183.320331 208.463225 
L 183.637686 208.134222 
L 184.272397 208.073232 
L 184.589752 207.740991 
L 185.859174 207.268376 
L 186.493884 206.773199 
L 187.128595 206.535723 
L 187.44595 206.327006 
L 187.763306 205.970594 
L 188.398017 205.915209 
L 189.032727 205.539864 
L 189.350083 205.16007 
L 190.302149 204.949332 
L 190.93686 204.699548 
L 191.57157 204.522749 
L 192.206281 203.96952 
L 193.158347 203.776635 
L 193.793058 203.689041 
L 194.110413 203.112938 
L 194.427769 202.913709 
L 195.062479 201.641187 
L 195.69719 201.493999 
L 196.014545 200.806938 
L 196.331901 200.774401 
L 196.649256 200.275076 
L 196.966612 200.01371 
L 197.283967 199.956189 
L 197.601322 199.195152 
L 197.918678 199.13808 
L 198.236033 198.742716 
L 198.553388 198.123142 
L 198.870744 198.109501 
L 199.188099 197.935717 
L 199.505455 197.36169 
L 199.82281 197.165788 
L 200.140165 196.381302 
L 201.092231 195.80152 
L 201.409587 195.144344 
L 202.044298 194.852265 
L 202.679008 194.704848 
L 203.313719 193.967769 
L 203.631074 193.821177 
L 204.58314 192.757153 
L 204.900496 192.69669 
L 205.217851 191.506903 
L 205.535207 191.435337 
L 205.852562 191.193869 
L 206.169917 190.480754 
L 206.804628 190.320934 
L 207.121983 190.046113 
L 207.439339 189.976737 
L 208.07405 189.285831 
L 209.026116 189.036796 
L 209.343471 188.216116 
L 209.660826 187.950317 
L 209.978182 187.875298 
L 210.612893 187.051087 
L 214.103802 185.220888 
L 214.421157 184.536479 
L 215.055868 184.404918 
L 215.373223 184.036246 
L 216.007934 183.694645 
L 217.277355 182.89686 
L 217.594711 182.888469 
L 217.912066 182.490625 
L 218.546777 182.373262 
L 218.864132 182.132588 
L 219.181488 181.668633 
L 220.133554 181.099587 
L 220.450909 180.485194 
L 221.720331 179.48755 
L 222.037686 178.79102 
L 222.355041 178.717504 
L 222.989752 178.264582 
L 223.307107 177.901983 
L 223.624463 177.894784 
L 224.576529 177.0222 
L 224.893884 176.934608 
L 225.528595 176.303154 
L 226.163306 176.122306 
L 226.798017 175.443841 
L 227.432727 175.285888 
L 227.750083 175.115786 
L 228.384793 174.476527 
L 228.702149 174.277535 
L 229.33686 174.180545 
L 230.288926 173.610248 
L 231.558347 173.358051 
L 231.875702 173.021767 
L 232.193058 173.016435 
L 232.510413 172.43787 
L 232.827769 172.162085 
L 233.462479 171.96426 
L 233.779835 171.883633 
L 234.09719 171.68035 
L 234.414545 171.623866 
L 234.731901 171.345684 
L 235.366612 171.145266 
L 236.318678 170.825877 
L 236.953388 170.150978 
L 237.270744 170.139634 
L 237.905455 169.942695 
L 238.22281 169.607392 
L 238.540165 169.533231 
L 238.857521 168.754486 
L 239.174876 168.714872 
L 239.492231 168.078918 
L 239.809587 167.765868 
L 240.126942 167.282296 
L 240.761653 167.115112 
L 241.079008 166.804488 
L 241.396364 166.670773 
L 241.713719 166.398653 
L 243.300496 165.99747 
L 243.935207 165.798114 
L 244.252562 165.525859 
L 244.887273 165.382573 
L 245.521983 164.968246 
L 245.839339 164.966594 
L 247.426116 163.567307 
L 247.743471 163.198988 
L 249.012893 162.583237 
L 249.330248 162.120482 
L 249.964959 162.066507 
L 250.282314 161.973081 
L 250.599669 161.559787 
L 250.917025 161.338669 
L 251.23438 161.293489 
L 251.551736 160.619828 
L 252.503802 160.12624 
L 252.821157 159.668271 
L 253.455868 159.607945 
L 254.090579 159.331763 
L 254.407934 159.266862 
L 254.725289 158.682773 
L 255.042645 158.618048 
L 257.264132 157.322023 
L 257.898843 157.169459 
L 258.216198 156.948275 
L 258.533554 156.428204 
L 259.168264 156.044906 
L 259.48562 155.512304 
L 259.802975 155.27019 
L 260.437686 155.114731 
L 261.072397 154.532421 
L 262.024463 154.384544 
L 262.341818 154.008396 
L 262.976529 153.89851 
L 263.928595 153.065522 
L 264.24595 152.974679 
L 264.880661 152.594462 
L 265.198017 152.439856 
L 265.515372 152.421239 
L 266.150083 152.141331 
L 266.467438 152.105293 
L 268.054215 151.118489 
L 268.688926 150.509578 
L 269.006281 150.487193 
L 269.323636 149.950554 
L 269.958347 149.703842 
L 270.910413 149.513575 
L 271.227769 149.202658 
L 272.49719 148.929791 
L 273.131901 148.378194 
L 273.449256 148.368176 
L 274.401322 147.85719 
L 274.718678 147.557937 
L 276.62281 147.147021 
L 277.574876 146.865802 
L 277.892231 146.65354 
L 278.844298 146.540914 
L 279.479008 146.155459 
L 280.113719 146.08166 
L 280.431074 145.797111 
L 280.74843 145.322539 
L 281.065785 145.284298 
L 281.38314 145.041143 
L 281.700496 144.542425 
L 282.017851 144.465201 
L 283.604628 143.541134 
L 284.239339 143.449114 
L 284.556694 143.227911 
L 284.87405 143.18095 
L 285.50876 142.887377 
L 285.826116 142.880185 
L 286.143471 142.668809 
L 286.460826 142.619219 
L 286.778182 142.15967 
L 288.364959 141.625691 
L 288.999669 141.157859 
L 289.317025 141.126764 
L 289.63438 140.842138 
L 289.951736 140.338115 
L 291.855868 139.228925 
L 292.173223 139.133274 
L 292.490579 138.672799 
L 293.125289 138.29116 
L 293.442645 137.894928 
L 293.76 137.852379 
L 294.077355 137.32857 
L 294.394711 137.089891 
L 294.712066 137.062122 
L 295.981488 135.956995 
L 296.616198 135.731876 
L 297.250909 134.971961 
L 297.568264 134.808215 
L 297.88562 134.422174 
L 298.837686 133.936041 
L 299.472397 133.856146 
L 299.789752 133.640592 
L 300.107107 133.613787 
L 301.059174 133.063758 
L 301.693884 132.926105 
L 302.01124 132.858498 
L 302.328595 132.383499 
L 303.915372 131.87117 
L 304.550083 131.531133 
L 304.867438 131.456948 
L 305.184793 131.266368 
L 305.819504 130.637933 
L 307.088926 130.062327 
L 307.723636 129.446116 
L 308.040992 128.519607 
L 308.358347 128.462008 
L 308.993058 128.197493 
L 309.310413 128.171226 
L 309.627769 127.733795 
L 310.262479 127.359527 
L 311.531901 126.683636 
L 312.166612 126.159471 
L 313.753388 125.849028 
L 314.070744 125.392304 
L 314.705455 125.11003 
L 315.02281 125.090283 
L 315.974876 124.606674 
L 316.609587 124.548419 
L 316.926942 124.237004 
L 317.244298 124.08614 
L 317.879008 124.002861 
L 318.513719 123.483379 
L 318.831074 122.739024 
L 319.14843 122.56721 
L 319.465785 122.523066 
L 319.78314 122.204321 
L 320.100496 121.174555 
L 320.417851 120.826779 
L 321.052562 120.58901 
L 321.369917 120.062165 
L 321.687273 119.879006 
L 322.004628 119.153762 
L 322.321983 119.114653 
L 322.639339 118.802093 
L 323.27405 117.833879 
L 324.226116 117.228559 
L 324.543471 116.928198 
L 325.178182 116.753468 
L 325.495537 116.314012 
L 326.130248 116.104163 
L 326.447603 115.783172 
L 326.764959 115.745911 
L 327.082314 115.497421 
L 327.399669 115.400054 
L 327.717025 114.859443 
L 328.03438 114.75095 
L 328.669091 114.256422 
L 329.303802 114.025739 
L 330.255868 113.405246 
L 331.525289 113.022737 
L 331.842645 112.750918 
L 332.16 112.686494 
L 332.477355 112.427077 
L 332.794711 112.390782 
L 333.112066 111.926078 
L 333.429421 111.813411 
L 334.064132 111.189616 
L 335.650909 110.229207 
L 335.968264 109.921422 
L 337.237686 109.446481 
L 337.872397 108.628807 
L 338.189752 107.75479 
L 338.507107 107.720258 
L 339.459174 106.810532 
L 340.41124 106.131609 
L 341.04595 105.871343 
L 341.363306 105.3545 
L 341.680661 105.20705 
L 341.998017 104.344614 
L 342.315372 104.243086 
L 342.950083 102.728508 
L 343.267438 102.468072 
L 343.584793 101.839854 
L 344.219504 101.659072 
L 344.53686 101.024818 
L 345.488926 100.704463 
L 345.806281 100.281961 
L 346.123636 100.272528 
L 346.440992 99.875627 
L 347.393058 99.437709 
L 348.027769 98.852604 
L 348.345124 97.844669 
L 348.662479 97.759999 
L 349.931901 96.902069 
L 350.566612 96.762846 
L 351.201322 96.469735 
L 352.153388 96.070664 
L 352.470744 96.031469 
L 352.788099 95.734012 
L 353.42281 95.709692 
L 354.692231 95.230875 
L 355.009587 94.908532 
L 355.961653 94.467471 
L 356.913719 94.425381 
L 357.54843 93.678656 
L 358.18314 93.585413 
L 358.500496 93.243621 
L 359.135207 92.298187 
L 359.452562 91.948329 
L 359.769917 91.812197 
L 360.087273 91.406801 
L 361.039339 91.210584 
L 362.30876 90.707557 
L 362.943471 90.29591 
L 363.895537 90.165004 
L 364.530248 89.882707 
L 364.847603 89.806447 
L 366.117025 86.889209 
L 366.43438 86.680675 
L 367.069091 85.861293 
L 367.386446 85.778738 
L 367.703802 85.391566 
L 368.021157 85.243342 
L 368.973223 84.420356 
L 369.290579 83.370907 
L 369.607934 83.176746 
L 369.925289 82.843349 
L 370.56 81.461496 
L 370.877355 81.007641 
L 371.194711 79.967677 
L 371.512066 79.963057 
L 372.146777 79.634556 
L 372.464132 79.15099 
L 372.781488 79.110267 
L 373.098843 78.819157 
L 373.416198 78.707092 
L 373.733554 78.062299 
L 374.368264 77.593387 
L 374.68562 77.590186 
L 375.002975 77.195002 
L 375.320331 77.184336 
L 375.637686 76.959169 
L 376.272397 75.953847 
L 376.907107 75.429238 
L 377.224463 74.61363 
L 378.493884 73.775619 
L 379.128595 72.688917 
L 379.44595 72.538352 
L 380.398017 70.693525 
L 380.715372 70.38108 
L 381.032727 69.830862 
L 381.350083 69.624609 
L 381.667438 69.014371 
L 381.984793 68.905274 
L 382.302149 68.547238 
L 382.619504 67.899992 
L 383.254215 67.707658 
L 383.57157 66.998566 
L 384.206281 66.746921 
L 384.840992 65.928679 
L 385.158347 65.924567 
L 385.475702 65.628816 
L 386.110413 65.541338 
L 386.427769 65.390374 
L 387.379835 63.006796 
L 388.014545 62.607885 
L 388.649256 62.503016 
L 388.966612 62.219088 
L 389.283967 62.170151 
L 389.918678 61.729849 
L 390.236033 61.133729 
L 390.553388 61.078951 
L 390.870744 60.853378 
L 391.188099 60.24344 
L 391.505455 59.231687 
L 391.82281 59.202319 
L 392.140165 58.414184 
L 392.457521 57.931345 
L 393.409587 57.669323 
L 394.044298 57.272429 
L 394.679008 57.090387 
L 395.313719 56.834618 
L 395.631074 56.438647 
L 395.94843 56.226678 
L 396.265785 56.195733 
L 396.58314 55.385267 
L 397.217851 54.794576 
L 397.852562 53.72361 
L 398.487273 53.568 
L 398.487273 53.568 
" clip-path="url(#pb23f04be41)" style="fill: none; stroke: #1f77b4; stroke-width: 1.5; stroke-linecap: square"/>
   </g>
   <g id="line2d_13">
    <path d="M 73.832727 292.869384 
L 74.150083 292.869384 
L 74.467438 282.693212 
L 75.102149 276.728241 
L 75.73686 276.728241 
L 76.054215 271.727584 
L 76.37157 263.285781 
L 76.688926 262.767852 
L 77.006281 262.767852 
L 77.323636 261.46163 
L 78.910413 261.46163 
L 79.227769 256.699112 
L 79.545124 256.699112 
L 79.862479 254.975097 
L 80.179835 253.909975 
L 80.49719 253.909975 
L 80.814545 248.643663 
L 81.131901 246.164767 
L 82.083967 246.122144 
L 82.401322 244.655024 
L 86.844298 244.571726 
L 87.161653 243.768407 
L 87.479008 239.952293 
L 87.796364 239.10869 
L 88.113719 237.787593 
L 89.700496 237.787593 
L 90.017851 236.099622 
L 90.652562 236.099622 
L 90.969917 234.138792 
L 91.287273 234.138792 
L 91.604628 233.117353 
L 91.921983 230.490055 
L 99.221157 230.490055 
L 99.538512 228.924538 
L 99.855868 228.924538 
L 100.173223 228.554225 
L 101.76 228.554225 
L 102.077355 226.931523 
L 103.664132 226.931523 
L 103.981488 226.565501 
L 104.298843 225.932787 
L 104.933554 225.932787 
L 105.250909 223.707471 
L 105.568264 223.707471 
L 106.202975 223.59532 
L 106.520331 218.573145 
L 107.155041 218.076918 
L 107.472397 218.076918 
L 107.789752 216.920456 
L 109.376529 216.920456 
L 109.693884 214.382403 
L 110.01124 214.382403 
L 110.328595 211.578651 
L 129.369917 211.578535 
L 129.687273 209.985259 
L 130.321983 208.486768 
L 131.27405 208.39123 
L 131.591405 207.087856 
L 131.90876 207.087856 
L 132.226116 206.79008 
L 132.860826 206.79008 
L 133.178182 204.280997 
L 133.495537 204.280997 
L 133.812893 203.755598 
L 135.399669 203.755598 
L 135.717025 201.615901 
L 136.03438 201.327374 
L 136.351736 200.844271 
L 136.669091 200.722466 
L 163.009587 200.722466 
L 163.326942 198.501735 
L 167.135207 198.501735 
L 167.452562 198.095885 
L 167.769917 198.095885 
L 168.087273 195.347443 
L 168.404628 195.347443 
L 168.721983 194.613832 
L 169.356694 194.613832 
L 169.67405 194.140422 
L 169.991405 193.00652 
L 171.578182 193.00652 
L 172.212893 192.207038 
L 172.530248 192.207038 
L 172.847603 191.867861 
L 180.146777 191.867861 
L 180.464132 191.28405 
L 180.781488 191.28405 
L 181.098843 190.711399 
L 182.68562 190.711399 
L 183.320331 185.369478 
L 185.541818 185.321959 
L 185.859174 185.011594 
L 186.493884 185.011594 
L 186.81124 184.542794 
L 187.128595 183.368013 
L 187.44595 183.368013 
L 187.763306 182.572346 
L 188.080661 182.572346 
L 188.398017 179.250647 
L 188.715372 174.513408 
L 283.604628 174.513408 
L 284.239339 166.45447 
L 284.556694 166.45447 
L 284.87405 165.658804 
L 285.191405 165.658804 
L 285.50876 164.484022 
L 285.826116 164.015223 
L 286.460826 164.015223 
L 286.778182 163.704857 
L 288.999669 163.657338 
L 289.63438 158.315418 
L 291.221157 158.315418 
L 291.538512 157.742766 
L 291.855868 157.742766 
L 292.173223 157.158955 
L 299.472397 157.158955 
L 299.789752 156.819778 
L 300.107107 156.819778 
L 300.741818 156.020297 
L 302.328595 156.020297 
L 302.64595 154.886395 
L 302.963306 154.412984 
L 303.598017 154.412984 
L 303.915372 153.679374 
L 304.232727 153.679374 
L 304.550083 150.930931 
L 304.867438 150.930931 
L 305.184793 150.525082 
L 308.993058 150.525082 
L 309.310413 148.304351 
L 335.650909 148.304351 
L 335.968264 148.182546 
L 336.602975 147.410916 
L 336.920331 145.271219 
L 338.507107 145.271219 
L 338.824463 144.745819 
L 339.141818 144.745819 
L 339.459174 142.236737 
L 340.093884 142.236737 
L 340.41124 141.93896 
L 340.728595 141.93896 
L 341.04595 140.635587 
L 341.680661 140.540049 
L 341.998017 140.540049 
L 342.315372 139.960061 
L 342.632727 139.041557 
L 342.950083 137.448281 
L 361.991405 137.448165 
L 362.30876 134.644413 
L 362.626116 134.644413 
L 362.943471 132.10636 
L 364.530248 132.10636 
L 364.847603 130.949898 
L 365.164959 130.949898 
L 365.799669 130.453672 
L 366.117025 125.431497 
L 366.43438 125.431497 
L 367.069091 125.319346 
L 367.386446 123.094029 
L 368.021157 123.094029 
L 368.338512 122.461315 
L 368.655868 122.095293 
L 370.242645 122.095293 
L 370.56 120.472591 
L 372.146777 120.472591 
L 372.464132 120.102279 
L 372.781488 120.102279 
L 373.098843 118.536761 
L 380.398017 118.536761 
L 380.715372 115.909463 
L 381.032727 114.888025 
L 381.350083 114.888025 
L 381.667438 112.927195 
L 382.302149 112.927195 
L 382.619504 111.239223 
L 384.206281 111.239223 
L 384.523636 109.918126 
L 384.840992 109.074523 
L 385.158347 105.258409 
L 385.475702 104.455091 
L 389.918678 104.371792 
L 390.236033 102.904672 
L 391.188099 102.862049 
L 391.505455 100.383154 
L 391.82281 95.116841 
L 392.140165 95.116841 
L 392.457521 94.051719 
L 392.774876 92.327704 
L 393.092231 92.327704 
L 393.409587 87.565187 
L 394.996364 87.565187 
L 395.313719 86.258964 
L 395.631074 86.258964 
L 395.94843 85.741035 
L 396.265785 77.299233 
L 396.58314 72.298575 
L 397.217851 72.298575 
L 397.852562 66.333605 
L 398.169917 56.157432 
L 398.487273 56.157432 
L 398.487273 56.157432 
" clip-path="url(#pb23f04be41)" style="fill: none; stroke: #ff7f0e; stroke-width: 1.5; stroke-linecap: square"/>
   </g>
   <g id="patch_3">
    <path d="M 57.6 307.584 
L 57.6 41.472 
" style="fill: none; stroke: #000000; stroke-width: 0.8; stroke-linejoin: miter; stroke-linecap: square"/>
   </g>
   <g id="patch_4">
    <path d="M 414.72 307.584 
L 414.72 41.472 
" style="fill: none; stroke: #000000; stroke-width: 0.8; stroke-linejoin: miter; stroke-linecap: square"/>
   </g>
   <g id="patch_5">
    <path d="M 57.6 307.584 
L 414.72 307.584 
" style="fill: none; stroke: #000000; stroke-width: 0.8; stroke-linejoin: miter; stroke-linecap: square"/>
   </g>
   <g id="patch_6">
    <path d="M 57.6 41.472 
L 414.72 41.472 
" style="fill: none; stroke: #000000; stroke-width: 0.8; stroke-linejoin: miter; stroke-linecap: square"/>
   </g>
   <g id="legend_1">
    <g id="patch_7">
     <path d="M 64.6 78.82825 
L 129.342187 78.82825 
Q 131.342187 78.82825 131.342187 76.82825 
L 131.342187 48.472 
Q 131.342187 46.472 129.342187 46.472 
L 64.6 46.472 
Q 62.6 46.472 62.6 48.472 
L 62.6 76.82825 
Q 62.6 78.82825 64.6 78.82825 
z
" style="fill: #ffffff; opacity: 0.8; stroke: #cccccc; stroke-linejoin: miter"/>
    </g>
    <g id="line2d_14">
     <path d="M 66.6 54.570437 
L 76.6 54.570437 
L 86.6 54.570437 
" style="fill: none; stroke: #1f77b4; stroke-width: 1.5; stroke-linecap: square"/>
    </g>
    <g id="text_14">
     <!-- qc -->
     <g transform="translate(94.6 58.070437) scale(0.1 -0.1)">
      <defs>
       <path id="DejaVuSans-71" d="M 947 1747 
Q 947 1113 1208 752 
Q 1469 391 1925 391 
Q 2381 391 2643 752 
Q 2906 1113 2906 1747 
Q 2906 2381 2643 2742 
Q 2381 3103 1925 3103 
Q 1469 3103 1208 2742 
Q 947 2381 947 1747 
z
M 2906 525 
Q 2725 213 2448 61 
Q 2172 -91 1784 -91 
Q 1150 -91 751 415 
Q 353 922 353 1747 
Q 353 2572 751 3078 
Q 1150 3584 1784 3584 
Q 2172 3584 2448 3432 
Q 2725 3281 2906 2969 
L 2906 3500 
L 3481 3500 
L 3481 -1331 
L 2906 -1331 
L 2906 525 
z
" transform="scale(0.015625)"/>
       <path id="DejaVuSans-63" d="M 3122 3366 
L 3122 2828 
Q 2878 2963 2633 3030 
Q 2388 3097 2138 3097 
Q 1578 3097 1268 2742 
Q 959 2388 959 1747 
Q 959 1106 1268 751 
Q 1578 397 2138 397 
Q 2388 397 2633 464 
Q 2878 531 3122 666 
L 3122 134 
Q 2881 22 2623 -34 
Q 2366 -91 2075 -91 
Q 1284 -91 818 406 
Q 353 903 353 1747 
Q 353 2603 823 3093 
Q 1294 3584 2113 3584 
Q 2378 3584 2631 3529 
Q 2884 3475 3122 3366 
z
" transform="scale(0.015625)"/>
      </defs>
      <use xlink:href="#DejaVuSans-71"/>
      <use xlink:href="#DejaVuSans-63" x="63.476562"/>
     </g>
    </g>
    <g id="line2d_15">
     <path d="M 66.6 69.248562 
L 76.6 69.248562 
L 86.6 69.248562 
" style="fill: none; stroke: #ff7f0e; stroke-width: 1.5; stroke-linecap: square"/>
    </g>
    <g id="text_15">
     <!-- Trotter -->
     <g transform="translate(94.6 72.748562) scale(0.1 -0.1)">
      <defs>
       <path id="DejaVuSans-54" d="M -19 4666 
L 3928 4666 
L 3928 4134 
L 2272 4134 
L 2272 0 
L 1638 0 
L 1638 4134 
L -19 4134 
L -19 4666 
z
" transform="scale(0.015625)"/>
       <path id="DejaVuSans-72" d="M 2631 2963 
Q 2534 3019 2420 3045 
Q 2306 3072 2169 3072 
Q 1681 3072 1420 2755 
Q 1159 2438 1159 1844 
L 1159 0 
L 581 0 
L 581 3500 
L 1159 3500 
L 1159 2956 
Q 1341 3275 1631 3429 
Q 1922 3584 2338 3584 
Q 2397 3584 2469 3576 
Q 2541 3569 2628 3553 
L 2631 2963 
z
" transform="scale(0.015625)"/>
       <path id="DejaVuSans-6f" d="M 1959 3097 
Q 1497 3097 1228 2736 
Q 959 2375 959 1747 
Q 959 1119 1226 758 
Q 1494 397 1959 397 
Q 2419 397 2687 759 
Q 2956 1122 2956 1747 
Q 2956 2369 2687 2733 
Q 2419 3097 1959 3097 
z
M 1959 3584 
Q 2709 3584 3137 3096 
Q 3566 2609 3566 1747 
Q 3566 888 3137 398 
Q 2709 -91 1959 -91 
Q 1206 -91 779 398 
Q 353 888 353 1747 
Q 353 2609 779 3096 
Q 1206 3584 1959 3584 
z
" transform="scale(0.015625)"/>
       <path id="DejaVuSans-65" d="M 3597 1894 
L 3597 1613 
L 953 1613 
Q 991 1019 1311 708 
Q 1631 397 2203 397 
Q 2534 397 2845 478 
Q 3156 559 3463 722 
L 3463 178 
Q 3153 47 2828 -22 
Q 2503 -91 2169 -91 
Q 1331 -91 842 396 
Q 353 884 353 1716 
Q 353 2575 817 3079 
Q 1281 3584 2069 3584 
Q 2775 3584 3186 3129 
Q 3597 2675 3597 1894 
z
M 3022 2063 
Q 3016 2534 2758 2815 
Q 2500 3097 2075 3097 
Q 1594 3097 1305 2825 
Q 1016 2553 972 2059 
L 3022 2063 
z
" transform="scale(0.015625)"/>
      </defs>
      <use xlink:href="#DejaVuSans-54"/>
      <use xlink:href="#DejaVuSans-72" x="46.333984"/>
      <use xlink:href="#DejaVuSans-6f" x="85.197266"/>
      <use xlink:href="#DejaVuSans-74" x="146.378906"/>
      <use xlink:href="#DejaVuSans-74" x="185.587891"/>
      <use xlink:href="#DejaVuSans-65" x="224.796875"/>
      <use xlink:href="#DejaVuSans-72" x="286.320312"/>
     </g>
    </g>
   </g>
  </g>
 </g>
 <defs>
  <clipPath id="pb23f04be41">
   <rect x="57.6" y="41.472" width="357.12" height="266.112"/>
  </clipPath>
 </defs>
</svg>
