<?xml version="1.0" encoding="utf-8" standalone="no"?>
<!DOCTYPE svg PUBLIC "-//W3C//DTD SVG 1.1//EN"
  "http://www.w3.org/Graphics/SVG/1.1/DTD/svg11.dtd">
<svg xmlns:xlink="http://www.w3.org/1999/xlink" width="460.8pt" height="345.6pt" viewBox="0 0 460.8 345.6" xmlns="http://www.w3.org/2000/svg" version="1.1">
 <metadata>
  <rdf:RDF xmlns:dc="http://purl.org/dc/elements/1.1/" xmlns:cc="http://creativecommons.org/ns#" xmlns:rdf="http://www.w3.org/1999/02/22-rdf-syntax-ns#">
   <cc:Work>
    <dc:type rdf:resource="http://purl.org/dc/dcmitype/StillImage"/>
    <dc:date>2024-07-05T02:02:16.893468</dc:date>
    <dc:format>image/svg+xml</dc:format>
    <dc:creator>
     <cc:Agent>
      <dc:title>Matplotlib v3.7.1, https://matplotlib.org/</dc:title>
     </cc:Agent>
    </dc:creator>
   </cc:Work>
  </rdf:RDF>
 </metadata>
 <defs>
  <style type="text/css">*{stroke-linejoin: round; stroke-linecap: butt}</style>
 </defs>
 <g id="figure_1">
  <g id="patch_1">
   <path d="M 0 345.6 
L 460.8 345.6 
L 460.8 0 
L 0 0 
z
" style="fill: #ffffff"/>
  </g>
  <g id="axes_1">
   <g id="patch_2">
    <path d="M 57.6 307.584 
L 414.72 307.584 
L 414.72 41.472 
L 57.6 41.472 
z
" style="fill: #ffffff"/>
   </g>
   <g id="matplotlib.axis_1">
    <g id="xtick_1">
     <g id="line2d_1">
      <defs>
       <path id="m2fbc41ef30" d="M 0 0 
L 0 3.5 
" style="stroke: #000000; stroke-width: 0.8"/>
      </defs>
      <g>
       <use xlink:href="#m2fbc41ef30" x="73.832727" y="307.584" style="stroke: #000000; stroke-width: 0.8"/>
      </g>
     </g>
     <g id="text_1">
      <!-- 0 -->
      <g transform="translate(70.651477 322.182437) scale(0.1 -0.1)">
       <defs>
        <path id="DejaVuSans-30" d="M 2034 4250 
Q 1547 4250 1301 3770 
Q 1056 3291 1056 2328 
Q 1056 1369 1301 889 
Q 1547 409 2034 409 
Q 2525 409 2770 889 
Q 3016 1369 3016 2328 
Q 3016 3291 2770 3770 
Q 2525 4250 2034 4250 
z
M 2034 4750 
Q 2819 4750 3233 4129 
Q 3647 3509 3647 2328 
Q 3647 1150 3233 529 
Q 2819 -91 2034 -91 
Q 1250 -91 836 529 
Q 422 1150 422 2328 
Q 422 3509 836 4129 
Q 1250 4750 2034 4750 
z
" transform="scale(0.015625)"/>
       </defs>
       <use xlink:href="#DejaVuSans-30"/>
      </g>
     </g>
    </g>
    <g id="xtick_2">
     <g id="line2d_2">
      <g>
       <use xlink:href="#m2fbc41ef30" x="137.303802" y="307.584" style="stroke: #000000; stroke-width: 0.8"/>
      </g>
     </g>
     <g id="text_2">
      <!-- 200 -->
      <g transform="translate(127.760052 322.182437) scale(0.1 -0.1)">
       <defs>
        <path id="DejaVuSans-32" d="M 1228 531 
L 3431 531 
L 3431 0 
L 469 0 
L 469 531 
Q 828 903 1448 1529 
Q 2069 2156 2228 2338 
Q 2531 2678 2651 2914 
Q 2772 3150 2772 3378 
Q 2772 3750 2511 3984 
Q 2250 4219 1831 4219 
Q 1534 4219 1204 4116 
Q 875 4013 500 3803 
L 500 4441 
Q 881 4594 1212 4672 
Q 1544 4750 1819 4750 
Q 2544 4750 2975 4387 
Q 3406 4025 3406 3419 
Q 3406 3131 3298 2873 
Q 3191 2616 2906 2266 
Q 2828 2175 2409 1742 
Q 1991 1309 1228 531 
z
" transform="scale(0.015625)"/>
       </defs>
       <use xlink:href="#DejaVuSans-32"/>
       <use xlink:href="#DejaVuSans-30" x="63.623047"/>
       <use xlink:href="#DejaVuSans-30" x="127.246094"/>
      </g>
     </g>
    </g>
    <g id="xtick_3">
     <g id="line2d_3">
      <g>
       <use xlink:href="#m2fbc41ef30" x="200.774876" y="307.584" style="stroke: #000000; stroke-width: 0.8"/>
      </g>
     </g>
     <g id="text_3">
      <!-- 400 -->
      <g transform="translate(191.231126 322.182437) scale(0.1 -0.1)">
       <defs>
        <path id="DejaVuSans-34" d="M 2419 4116 
L 825 1625 
L 2419 1625 
L 2419 4116 
z
M 2253 4666 
L 3047 4666 
L 3047 1625 
L 3713 1625 
L 3713 1100 
L 3047 1100 
L 3047 0 
L 2419 0 
L 2419 1100 
L 313 1100 
L 313 1709 
L 2253 4666 
z
" transform="scale(0.015625)"/>
       </defs>
       <use xlink:href="#DejaVuSans-34"/>
       <use xlink:href="#DejaVuSans-30" x="63.623047"/>
       <use xlink:href="#DejaVuSans-30" x="127.246094"/>
      </g>
     </g>
    </g>
    <g id="xtick_4">
     <g id="line2d_4">
      <g>
       <use xlink:href="#m2fbc41ef30" x="264.24595" y="307.584" style="stroke: #000000; stroke-width: 0.8"/>
      </g>
     </g>
     <g id="text_4">
      <!-- 600 -->
      <g transform="translate(254.7022 322.182437) scale(0.1 -0.1)">
       <defs>
        <path id="DejaVuSans-36" d="M 2113 2584 
Q 1688 2584 1439 2293 
Q 1191 2003 1191 1497 
Q 1191 994 1439 701 
Q 1688 409 2113 409 
Q 2538 409 2786 701 
Q 3034 994 3034 1497 
Q 3034 2003 2786 2293 
Q 2538 2584 2113 2584 
z
M 3366 4563 
L 3366 3988 
Q 3128 4100 2886 4159 
Q 2644 4219 2406 4219 
Q 1781 4219 1451 3797 
Q 1122 3375 1075 2522 
Q 1259 2794 1537 2939 
Q 1816 3084 2150 3084 
Q 2853 3084 3261 2657 
Q 3669 2231 3669 1497 
Q 3669 778 3244 343 
Q 2819 -91 2113 -91 
Q 1303 -91 875 529 
Q 447 1150 447 2328 
Q 447 3434 972 4092 
Q 1497 4750 2381 4750 
Q 2619 4750 2861 4703 
Q 3103 4656 3366 4563 
z
" transform="scale(0.015625)"/>
       </defs>
       <use xlink:href="#DejaVuSans-36"/>
       <use xlink:href="#DejaVuSans-30" x="63.623047"/>
       <use xlink:href="#DejaVuSans-30" x="127.246094"/>
      </g>
     </g>
    </g>
    <g id="xtick_5">
     <g id="line2d_5">
      <g>
       <use xlink:href="#m2fbc41ef30" x="327.717025" y="307.584" style="stroke: #000000; stroke-width: 0.8"/>
      </g>
     </g>
     <g id="text_5">
      <!-- 800 -->
      <g transform="translate(318.173275 322.182437) scale(0.1 -0.1)">
       <defs>
        <path id="DejaVuSans-38" d="M 2034 2216 
Q 1584 2216 1326 1975 
Q 1069 1734 1069 1313 
Q 1069 891 1326 650 
Q 1584 409 2034 409 
Q 2484 409 2743 651 
Q 3003 894 3003 1313 
Q 3003 1734 2745 1975 
Q 2488 2216 2034 2216 
z
M 1403 2484 
Q 997 2584 770 2862 
Q 544 3141 544 3541 
Q 544 4100 942 4425 
Q 1341 4750 2034 4750 
Q 2731 4750 3128 4425 
Q 3525 4100 3525 3541 
Q 3525 3141 3298 2862 
Q 3072 2584 2669 2484 
Q 3125 2378 3379 2068 
Q 3634 1759 3634 1313 
Q 3634 634 3220 271 
Q 2806 -91 2034 -91 
Q 1263 -91 848 271 
Q 434 634 434 1313 
Q 434 1759 690 2068 
Q 947 2378 1403 2484 
z
M 1172 3481 
Q 1172 3119 1398 2916 
Q 1625 2713 2034 2713 
Q 2441 2713 2670 2916 
Q 2900 3119 2900 3481 
Q 2900 3844 2670 4047 
Q 2441 4250 2034 4250 
Q 1625 4250 1398 4047 
Q 1172 3844 1172 3481 
z
" transform="scale(0.015625)"/>
       </defs>
       <use xlink:href="#DejaVuSans-38"/>
       <use xlink:href="#DejaVuSans-30" x="63.623047"/>
       <use xlink:href="#DejaVuSans-30" x="127.246094"/>
      </g>
     </g>
    </g>
    <g id="xtick_6">
     <g id="line2d_6">
      <g>
       <use xlink:href="#m2fbc41ef30" x="391.188099" y="307.584" style="stroke: #000000; stroke-width: 0.8"/>
      </g>
     </g>
     <g id="text_6">
      <!-- 1000 -->
      <g transform="translate(378.463099 322.182437) scale(0.1 -0.1)">
       <defs>
        <path id="DejaVuSans-31" d="M 794 531 
L 1825 531 
L 1825 4091 
L 703 3866 
L 703 4441 
L 1819 4666 
L 2450 4666 
L 2450 531 
L 3481 531 
L 3481 0 
L 794 0 
L 794 531 
z
" transform="scale(0.015625)"/>
       </defs>
       <use xlink:href="#DejaVuSans-31"/>
       <use xlink:href="#DejaVuSans-30" x="63.623047"/>
       <use xlink:href="#DejaVuSans-30" x="127.246094"/>
       <use xlink:href="#DejaVuSans-30" x="190.869141"/>
      </g>
     </g>
    </g>
    <g id="text_7">
     <!-- n -->
     <g transform="translate(232.99125 335.860562) scale(0.1 -0.1)">
      <defs>
       <path id="DejaVuSans-6e" d="M 3513 2113 
L 3513 0 
L 2938 0 
L 2938 2094 
Q 2938 2591 2744 2837 
Q 2550 3084 2163 3084 
Q 1697 3084 1428 2787 
Q 1159 2491 1159 1978 
L 1159 0 
L 581 0 
L 581 3500 
L 1159 3500 
L 1159 2956 
Q 1366 3272 1645 3428 
Q 1925 3584 2291 3584 
Q 2894 3584 3203 3211 
Q 3513 2838 3513 2113 
z
" transform="scale(0.015625)"/>
      </defs>
      <use xlink:href="#DejaVuSans-6e"/>
     </g>
    </g>
   </g>
   <g id="matplotlib.axis_2">
    <g id="ytick_1">
     <g id="line2d_7">
      <defs>
       <path id="mb187d74451" d="M 0 0 
L -3.5 0 
" style="stroke: #000000; stroke-width: 0.8"/>
      </defs>
      <g>
       <use xlink:href="#mb187d74451" x="57.6" y="304.444912" style="stroke: #000000; stroke-width: 0.8"/>
      </g>
     </g>
     <g id="text_8">
      <!-- −1.0 -->
      <g transform="translate(26.317187 308.244131) scale(0.1 -0.1)">
       <defs>
        <path id="DejaVuSans-2212" d="M 678 2272 
L 4684 2272 
L 4684 1741 
L 678 1741 
L 678 2272 
z
" transform="scale(0.015625)"/>
        <path id="DejaVuSans-2e" d="M 684 794 
L 1344 794 
L 1344 0 
L 684 0 
L 684 794 
z
" transform="scale(0.015625)"/>
       </defs>
       <use xlink:href="#DejaVuSans-2212"/>
       <use xlink:href="#DejaVuSans-31" x="83.789062"/>
       <use xlink:href="#DejaVuSans-2e" x="147.412109"/>
       <use xlink:href="#DejaVuSans-30" x="179.199219"/>
      </g>
     </g>
    </g>
    <g id="ytick_2">
     <g id="line2d_8">
      <g>
       <use xlink:href="#mb187d74451" x="57.6" y="259.660352" style="stroke: #000000; stroke-width: 0.8"/>
      </g>
     </g>
     <g id="text_9">
      <!-- −0.5 -->
      <g transform="translate(26.317187 263.459571) scale(0.1 -0.1)">
       <defs>
        <path id="DejaVuSans-35" d="M 691 4666 
L 3169 4666 
L 3169 4134 
L 1269 4134 
L 1269 2991 
Q 1406 3038 1543 3061 
Q 1681 3084 1819 3084 
Q 2600 3084 3056 2656 
Q 3513 2228 3513 1497 
Q 3513 744 3044 326 
Q 2575 -91 1722 -91 
Q 1428 -91 1123 -41 
Q 819 9 494 109 
L 494 744 
Q 775 591 1075 516 
Q 1375 441 1709 441 
Q 2250 441 2565 725 
Q 2881 1009 2881 1497 
Q 2881 1984 2565 2268 
Q 2250 2553 1709 2553 
Q 1456 2553 1204 2497 
Q 953 2441 691 2322 
L 691 4666 
z
" transform="scale(0.015625)"/>
       </defs>
       <use xlink:href="#DejaVuSans-2212"/>
       <use xlink:href="#DejaVuSans-30" x="83.789062"/>
       <use xlink:href="#DejaVuSans-2e" x="147.412109"/>
       <use xlink:href="#DejaVuSans-35" x="179.199219"/>
      </g>
     </g>
    </g>
    <g id="ytick_3">
     <g id="line2d_9">
      <g>
       <use xlink:href="#mb187d74451" x="57.6" y="214.875792" style="stroke: #000000; stroke-width: 0.8"/>
      </g>
     </g>
     <g id="text_10">
      <!-- 0.0 -->
      <g transform="translate(34.696875 218.67501) scale(0.1 -0.1)">
       <use xlink:href="#DejaVuSans-30"/>
       <use xlink:href="#DejaVuSans-2e" x="63.623047"/>
       <use xlink:href="#DejaVuSans-30" x="95.410156"/>
      </g>
     </g>
    </g>
    <g id="ytick_4">
     <g id="line2d_10">
      <g>
       <use xlink:href="#mb187d74451" x="57.6" y="170.091231" style="stroke: #000000; stroke-width: 0.8"/>
      </g>
     </g>
     <g id="text_11">
      <!-- 0.5 -->
      <g transform="translate(34.696875 173.89045) scale(0.1 -0.1)">
       <use xlink:href="#DejaVuSans-30"/>
       <use xlink:href="#DejaVuSans-2e" x="63.623047"/>
       <use xlink:href="#DejaVuSans-35" x="95.410156"/>
      </g>
     </g>
    </g>
    <g id="ytick_5">
     <g id="line2d_11">
      <g>
       <use xlink:href="#mb187d74451" x="57.6" y="125.306671" style="stroke: #000000; stroke-width: 0.8"/>
      </g>
     </g>
     <g id="text_12">
      <!-- 1.0 -->
      <g transform="translate(34.696875 129.10589) scale(0.1 -0.1)">
       <use xlink:href="#DejaVuSans-31"/>
       <use xlink:href="#DejaVuSans-2e" x="63.623047"/>
       <use xlink:href="#DejaVuSans-30" x="95.410156"/>
      </g>
     </g>
    </g>
    <g id="ytick_6">
     <g id="line2d_12">
      <g>
       <use xlink:href="#mb187d74451" x="57.6" y="80.522111" style="stroke: #000000; stroke-width: 0.8"/>
      </g>
     </g>
     <g id="text_13">
      <!-- 1.5 -->
      <g transform="translate(34.696875 84.321329) scale(0.1 -0.1)">
       <use xlink:href="#DejaVuSans-31"/>
       <use xlink:href="#DejaVuSans-2e" x="63.623047"/>
       <use xlink:href="#DejaVuSans-35" x="95.410156"/>
      </g>
     </g>
    </g>
    <g id="text_14">
     <!-- E*t -->
     <g transform="translate(20.2375 182.147531) rotate(-90) scale(0.1 -0.1)">
      <defs>
       <path id="DejaVuSans-45" d="M 628 4666 
L 3578 4666 
L 3578 4134 
L 1259 4134 
L 1259 2753 
L 3481 2753 
L 3481 2222 
L 1259 2222 
L 1259 531 
L 3634 531 
L 3634 0 
L 628 0 
L 628 4666 
z
" transform="scale(0.015625)"/>
       <path id="DejaVuSans-2a" d="M 3009 3897 
L 1888 3291 
L 3009 2681 
L 2828 2375 
L 1778 3009 
L 1778 1831 
L 1422 1831 
L 1422 3009 
L 372 2375 
L 191 2681 
L 1313 3291 
L 191 3897 
L 372 4206 
L 1422 3572 
L 1422 4750 
L 1778 4750 
L 1778 3572 
L 2828 4206 
L 3009 3897 
z
" transform="scale(0.015625)"/>
       <path id="DejaVuSans-74" d="M 1172 4494 
L 1172 3500 
L 2356 3500 
L 2356 3053 
L 1172 3053 
L 1172 1153 
Q 1172 725 1289 603 
Q 1406 481 1766 481 
L 2356 481 
L 2356 0 
L 1766 0 
Q 1100 0 847 248 
Q 594 497 594 1153 
L 594 3053 
L 172 3053 
L 172 3500 
L 594 3500 
L 594 4494 
L 1172 4494 
z
" transform="scale(0.015625)"/>
      </defs>
      <use xlink:href="#DejaVuSans-45"/>
      <use xlink:href="#DejaVuSans-2a" x="63.183594"/>
      <use xlink:href="#DejaVuSans-74" x="113.183594"/>
     </g>
    </g>
   </g>
   <g id="line2d_13">
    <path d="M 73.832727 287.738295 
L 75.73686 286.17892 
L 76.688926 285.611191 
L 77.006281 285.240726 
L 77.640992 284.997724 
L 78.275702 284.796365 
L 79.545124 284.031967 
L 79.862479 283.761342 
L 80.179835 282.975777 
L 80.814545 282.715086 
L 81.449256 282.601974 
L 82.083967 282.07436 
L 82.401322 280.776094 
L 83.036033 280.515866 
L 83.670744 280.387116 
L 83.988099 280.19589 
L 84.305455 280.182687 
L 86.526942 278.500405 
L 87.161653 278.40269 
L 88.431074 277.789621 
L 89.700496 277.341277 
L 90.017851 276.432515 
L 90.652562 276.083276 
L 91.287273 275.903554 
L 91.604628 275.351627 
L 91.921983 274.520176 
L 92.239339 274.101453 
L 92.556694 274.059775 
L 92.87405 273.367547 
L 93.50876 272.856715 
L 93.826116 272.842825 
L 94.460826 272.560775 
L 95.730248 272.214708 
L 96.364959 271.960275 
L 97.951736 271.383397 
L 98.586446 271.207923 
L 98.903802 271.144397 
L 100.173223 270.196372 
L 101.76 269.487215 
L 102.394711 268.88429 
L 103.029421 267.867057 
L 105.568264 267.139007 
L 107.472397 266.164889 
L 107.789752 265.764562 
L 109.059174 265.079918 
L 109.693884 264.014804 
L 110.01124 263.657633 
L 111.915372 262.825057 
L 112.867438 262.503257 
L 113.819504 261.72781 
L 114.13686 261.721932 
L 114.454215 261.499775 
L 114.77157 261.496882 
L 115.088926 261.319498 
L 115.723636 261.234344 
L 116.675702 260.757868 
L 116.993058 260.534844 
L 117.627769 260.419095 
L 118.579835 259.874483 
L 118.89719 259.737745 
L 119.214545 259.725204 
L 119.849256 259.39251 
L 120.483967 258.84084 
L 121.436033 257.728962 
L 122.070744 257.397702 
L 123.02281 257.106475 
L 124.292231 256.782236 
L 124.609587 256.466049 
L 124.926942 256.436722 
L 125.561653 255.711973 
L 126.196364 255.209006 
L 128.100496 254.191436 
L 129.052562 253.43569 
L 130.004628 253.111003 
L 130.639339 252.948865 
L 131.27405 252.614612 
L 131.90876 252.243905 
L 133.178182 251.966755 
L 134.130248 251.688861 
L 134.764959 251.609875 
L 135.082314 251.599752 
L 135.399669 251.446464 
L 136.351736 251.285592 
L 137.303802 250.957588 
L 137.621157 250.750485 
L 138.255868 250.659347 
L 139.842645 250.18012 
L 140.16 250.154795 
L 140.794711 249.543635 
L 141.112066 248.791833 
L 142.064132 248.374254 
L 143.016198 247.962845 
L 143.650909 247.84239 
L 144.28562 247.665853 
L 144.602975 247.627407 
L 144.920331 247.34504 
L 145.555041 247.166438 
L 146.189752 247.072592 
L 147.141818 246.866004 
L 147.459174 246.823379 
L 148.41124 246.058585 
L 149.363306 245.789655 
L 149.680661 245.519433 
L 149.998017 243.395097 
L 150.950083 242.908703 
L 151.902149 242.725125 
L 152.219504 242.504815 
L 152.854215 242.399667 
L 153.17157 242.175431 
L 154.440992 241.749741 
L 155.710413 240.999268 
L 156.027769 240.597601 
L 157.931901 239.95796 
L 158.566612 239.818642 
L 160.470744 238.968773 
L 161.105455 238.877587 
L 162.057521 238.563573 
L 163.326942 238.033286 
L 163.644298 237.624829 
L 164.279008 237.44105 
L 165.54843 236.97345 
L 166.500496 236.584656 
L 166.817851 235.264 
L 167.769917 234.71522 
L 169.991405 234.331375 
L 170.626116 234.130493 
L 170.943471 234.078728 
L 171.578182 233.703505 
L 171.895537 232.981592 
L 173.164959 231.899819 
L 175.069091 231.286225 
L 176.021157 230.45155 
L 176.655868 230.348156 
L 179.829421 229.519237 
L 181.098843 229.359172 
L 181.733554 229.18513 
L 183.320331 228.672432 
L 183.955041 228.516542 
L 184.907107 228.127027 
L 185.224463 227.486651 
L 186.493884 227.308791 
L 188.398017 226.603055 
L 189.032727 226.483627 
L 189.984793 226.242336 
L 190.302149 225.814355 
L 190.619504 225.765852 
L 190.93686 225.394383 
L 191.254215 225.341677 
L 191.888926 224.645375 
L 192.206281 224.445963 
L 192.523636 224.41004 
L 193.475702 224.053813 
L 193.793058 223.974886 
L 195.062479 222.725976 
L 195.379835 222.68287 
L 195.69719 222.39766 
L 196.966612 222.116233 
L 197.601322 221.901784 
L 197.918678 221.854959 
L 198.553388 221.52249 
L 199.82281 221.321889 
L 200.140165 221.094432 
L 201.092231 221.022985 
L 202.044298 220.566524 
L 203.631074 220.303588 
L 203.94843 220.119335 
L 204.265785 220.101993 
L 204.900496 219.829665 
L 205.535207 219.774532 
L 205.852562 219.508982 
L 207.439339 219.037509 
L 209.026116 218.162267 
L 210.295537 217.867389 
L 211.882314 217.504423 
L 212.517025 217.237976 
L 214.103802 216.467755 
L 216.007934 216.148673 
L 216.642645 216.041717 
L 217.277355 215.798931 
L 217.912066 215.730046 
L 219.816198 215.008087 
L 220.133554 214.39908 
L 220.450909 214.368042 
L 221.720331 213.592862 
L 222.355041 213.085366 
L 222.989752 213.012726 
L 223.624463 212.7254 
L 224.893884 212.46432 
L 225.84595 212.008361 
L 226.798017 211.76408 
L 227.432727 211.539573 
L 227.750083 211.506126 
L 228.384793 211.290525 
L 229.654215 210.971153 
L 230.288926 210.85012 
L 230.923636 210.80676 
L 232.510413 210.342752 
L 233.145124 210.245621 
L 233.462479 210.037115 
L 234.414545 209.904495 
L 235.049256 209.711696 
L 235.683967 209.568198 
L 236.953388 209.183118 
L 237.270744 209.170556 
L 237.588099 208.962948 
L 237.905455 208.952529 
L 238.857521 208.403288 
L 239.174876 207.668473 
L 239.492231 207.63206 
L 239.809587 207.416235 
L 240.761653 207.26915 
L 243.935207 206.570703 
L 244.252562 206.342235 
L 244.569917 206.327771 
L 245.204628 206.079992 
L 245.521983 206.051921 
L 245.839339 205.834124 
L 246.156694 205.788258 
L 246.47405 205.498496 
L 247.10876 205.412454 
L 248.378182 204.711937 
L 249.964959 204.137451 
L 250.917025 203.943371 
L 252.186446 202.984545 
L 253.455868 202.62634 
L 253.773223 202.623206 
L 254.725289 202.272142 
L 255.042645 202.244582 
L 255.36 201.966159 
L 255.677355 201.90008 
L 255.994711 201.67879 
L 256.312066 201.669017 
L 257.264132 201.29124 
L 258.216198 201.065807 
L 260.755041 199.056769 
L 261.389752 198.982696 
L 262.976529 198.512583 
L 264.563306 198.21547 
L 267.102149 197.39032 
L 267.419504 197.386706 
L 268.054215 197.115527 
L 269.323636 196.691955 
L 269.958347 196.52715 
L 270.910413 196.410915 
L 271.545124 196.125315 
L 272.49719 195.878544 
L 272.814545 195.710286 
L 273.449256 195.619131 
L 273.766612 195.427803 
L 276.62281 194.939301 
L 276.940165 194.756176 
L 277.257521 193.860342 
L 278.526942 193.333993 
L 278.844298 193.307739 
L 279.161653 193.051183 
L 280.113719 192.725133 
L 280.74843 191.908649 
L 281.065785 191.656206 
L 281.38314 191.599192 
L 281.700496 191.399143 
L 282.335207 190.715367 
L 284.239339 190.045082 
L 284.87405 189.871064 
L 287.412893 189.408211 
L 288.047603 189.203082 
L 288.999669 188.913113 
L 289.63438 187.019764 
L 290.586446 186.699158 
L 292.173223 186.407479 
L 293.125289 186.241023 
L 294.712066 185.919157 
L 295.029421 185.607828 
L 295.346777 185.575347 
L 295.981488 185.14834 
L 296.298843 184.911405 
L 297.568264 184.615164 
L 298.520331 184.132481 
L 299.789752 183.535887 
L 300.424463 183.408476 
L 300.741818 183.204984 
L 301.693884 183.085281 
L 302.64595 182.820678 
L 303.598017 182.689909 
L 304.232727 182.617187 
L 304.550083 182.40338 
L 304.867438 181.304531 
L 305.502149 180.858009 
L 305.819504 180.834374 
L 306.454215 180.419865 
L 307.088926 180.008838 
L 307.406281 179.126458 
L 307.723636 179.050331 
L 308.358347 178.595342 
L 308.675702 178.586878 
L 309.627769 177.914038 
L 310.262479 177.805409 
L 310.579835 177.628213 
L 310.89719 177.60451 
L 311.531901 177.329917 
L 311.849256 177.26582 
L 312.166612 177.024841 
L 313.753388 176.553211 
L 314.388099 175.617061 
L 314.705455 175.593639 
L 315.02281 175.395661 
L 315.340165 174.884232 
L 315.974876 174.543872 
L 316.926942 174.089387 
L 317.879008 173.816574 
L 318.831074 173.31953 
L 319.14843 173.262222 
L 319.78314 172.568252 
L 320.100496 172.554263 
L 320.417851 172.311659 
L 321.052562 172.165298 
L 321.369917 171.957132 
L 321.687273 171.925954 
L 322.004628 171.590504 
L 323.27405 171.350691 
L 323.591405 171.196426 
L 323.90876 170.61915 
L 324.226116 170.613645 
L 324.543471 170.166351 
L 325.178182 170.055002 
L 325.812893 169.622608 
L 326.447603 169.48218 
L 329.938512 167.059371 
L 330.255868 166.994128 
L 330.890579 166.493436 
L 331.207934 166.118306 
L 331.842645 165.795758 
L 332.16 165.282541 
L 332.477355 165.200262 
L 333.746777 164.288092 
L 334.698843 164.098718 
L 335.016198 163.876527 
L 335.333554 163.481801 
L 336.28562 163.108379 
L 337.237686 162.794953 
L 337.555041 162.181998 
L 338.189752 162.012353 
L 338.507107 161.870149 
L 339.141818 161.821678 
L 339.776529 161.561197 
L 341.363306 161.300893 
L 341.680661 161.077604 
L 341.998017 160.639724 
L 342.315372 159.633775 
L 342.632727 159.234833 
L 342.950083 159.105243 
L 343.584793 158.661429 
L 344.53686 158.426346 
L 344.854215 158.133285 
L 345.17157 157.664265 
L 347.075702 156.574323 
L 348.027769 155.877179 
L 348.979835 155.611641 
L 349.29719 155.282406 
L 349.614545 154.636948 
L 349.931901 153.715841 
L 351.201322 153.27407 
L 351.836033 153.165857 
L 352.153388 152.928364 
L 352.788099 152.867132 
L 353.42281 152.70411 
L 354.374876 152.524719 
L 355.961653 152.01203 
L 356.279008 151.642206 
L 356.596364 150.096257 
L 357.231074 149.90324 
L 357.54843 149.298078 
L 357.865785 148.98142 
L 358.817851 148.56825 
L 361.356694 147.215181 
L 362.30876 147.063883 
L 362.626116 146.775219 
L 363.260826 146.699736 
L 364.212893 145.925842 
L 364.530248 144.072611 
L 364.847603 144.06178 
L 365.482314 143.699878 
L 366.117025 143.447194 
L 366.43438 143.131463 
L 366.751736 142.491982 
L 367.069091 142.404158 
L 367.386446 142.132004 
L 367.703802 141.43563 
L 368.021157 141.169714 
L 369.290579 140.744197 
L 369.607934 140.521226 
L 369.925289 140.471983 
L 370.242645 138.984271 
L 370.877355 138.256924 
L 371.194711 137.97298 
L 371.512066 137.519334 
L 372.146777 137.268004 
L 372.464132 136.025167 
L 373.098843 135.449088 
L 374.050909 135.157036 
L 374.368264 134.950936 
L 374.68562 134.904063 
L 376.589752 133.943658 
L 376.907107 130.543145 
L 377.224463 129.288056 
L 377.859174 128.553831 
L 378.176529 127.996731 
L 379.44595 127.712957 
L 379.763306 126.196501 
L 380.398017 125.730056 
L 380.715372 125.421672 
L 381.032727 125.349299 
L 381.350083 125.157085 
L 381.667438 124.82851 
L 381.984793 124.664046 
L 382.302149 123.774059 
L 382.619504 122.157083 
L 383.254215 121.780916 
L 384.523636 121.591911 
L 384.840992 121.39737 
L 385.158347 119.742983 
L 385.793058 118.78234 
L 386.110413 115.678458 
L 387.062479 114.848795 
L 387.379835 113.24327 
L 388.014545 112.508061 
L 388.649256 112.12064 
L 388.966612 111.709779 
L 389.283967 109.045995 
L 389.918678 108.96782 
L 390.236033 108.161434 
L 390.553388 105.968942 
L 391.188099 105.238591 
L 391.505455 102.767358 
L 392.140165 102.350016 
L 392.457521 100.553506 
L 393.726942 99.864354 
L 394.044298 97.708797 
L 394.361653 93.325835 
L 395.631074 92.492943 
L 395.94843 92.071984 
L 396.265785 84.337694 
L 396.58314 79.873036 
L 396.900496 79.728403 
L 397.217851 79.442096 
L 397.535207 65.343095 
L 398.169917 65.155806 
L 398.487273 53.568 
L 398.487273 53.568 
" clip-path="url(#p23514ec478)" style="fill: none; stroke: #1f77b4; stroke-width: 1.5; stroke-linecap: square"/>
   </g>
   <g id="line2d_14">
    <path d="M 73.832727 295.488 
L 77.006281 295.488 
L 77.323636 293.734457 
L 79.862479 293.734457 
L 80.179835 291.820773 
L 82.083967 291.820773 
L 82.401322 289.706378 
L 83.670744 289.706378 
L 83.988099 288.645486 
L 86.526942 288.645486 
L 86.844298 287.331622 
L 87.479008 287.331622 
L 87.796364 287.068839 
L 89.700496 287.068839 
L 90.017851 285.34907 
L 91.287273 285.34907 
L 91.604628 284.603511 
L 91.921983 283.455858 
L 92.556694 283.455858 
L 92.87405 281.878898 
L 94.778182 281.878898 
L 95.095537 280.938605 
L 96.364959 280.938605 
L 96.682314 280.719258 
L 99.221157 280.719258 
L 99.538512 279.934219 
L 100.173223 279.934219 
L 100.490579 278.792757 
L 102.394711 278.792757 
L 102.712066 276.803688 
L 105.568264 276.709438 
L 105.88562 275.75907 
L 107.789752 275.75907 
L 108.107107 274.631902 
L 108.741818 274.631902 
L 109.059174 273.224401 
L 110.328595 273.224401 
L 110.64595 272.423753 
L 111.915372 272.423753 
L 112.232727 272.156221 
L 112.550083 270.749662 
L 116.040992 270.731662 
L 116.358347 269.80554 
L 118.262479 269.80554 
L 118.579835 268.667235 
L 120.483967 268.667235 
L 120.801322 267.133485 
L 121.436033 267.133485 
L 121.753388 266.445211 
L 123.02281 266.445211 
L 123.340165 266.205014 
L 124.609587 266.205014 
L 124.926942 264.634391 
L 126.831074 264.634391 
L 127.14843 264.024077 
L 127.78314 264.024077 
L 128.100496 262.356502 
L 130.956694 262.319009 
L 131.27405 261.308972 
L 131.591405 261.128429 
L 132.860826 261.128429 
L 133.178182 261.000334 
L 135.082314 261.000334 
L 135.399669 260.718752 
L 136.669091 260.718752 
L 136.986446 259.86726 
L 137.303802 259.717211 
L 140.794711 259.660352 
L 141.112066 257.44901 
L 143.016198 257.44901 
L 143.333554 256.838632 
L 144.602975 256.838632 
L 144.920331 256.35545 
L 147.141818 256.298475 
L 147.776529 256.186183 
L 148.093884 256.186183 
L 148.41124 255.034512 
L 149.680661 255.034512 
L 149.998017 252.362241 
L 150.632727 252.362241 
L 150.950083 252.039752 
L 151.584793 252.039752 
L 151.902149 251.310392 
L 152.219504 251.168592 
L 153.488926 251.168592 
L 153.806281 250.969419 
L 155.710413 250.969419 
L 156.027769 249.350106 
L 157.614545 249.343501 
L 157.931901 248.589041 
L 160.470744 248.589041 
L 160.788099 248.131707 
L 161.42281 248.131707 
L 161.740165 247.637264 
L 162.374876 247.637264 
L 162.692231 247.192043 
L 163.961653 247.192043 
L 164.279008 246.309386 
L 164.913719 246.232263 
L 166.500496 246.232263 
L 166.817851 243.693926 
L 170.626116 243.636294 
L 170.943471 243.450729 
L 171.578182 243.450729 
L 171.895537 241.211742 
L 173.799669 241.211742 
L 174.117025 240.731651 
L 174.751736 240.731651 
L 175.069091 239.525702 
L 176.973223 239.525702 
L 177.290579 238.642375 
L 183.002975 238.557306 
L 183.320331 237.632865 
L 184.589752 237.632865 
L 184.907107 237.409344 
L 185.224463 236.584059 
L 185.859174 236.584059 
L 186.176529 236.11395 
L 188.080661 236.11395 
L 188.398017 235.612354 
L 189.032727 235.612354 
L 189.350083 235.310154 
L 189.984793 235.310154 
L 190.302149 234.750077 
L 191.57157 234.750077 
L 191.888926 234.471342 
L 192.206281 233.357452 
L 193.475702 233.357452 
L 193.793058 232.931657 
L 194.427769 232.931657 
L 194.745124 231.417152 
L 196.014545 231.417152 
L 196.331901 231.191939 
L 196.966612 231.191939 
L 197.283967 230.675217 
L 199.82281 230.675217 
L 200.140165 230.249047 
L 200.774876 230.249047 
L 201.092231 229.629847 
L 202.996364 229.629847 
L 203.313719 229.185898 
L 205.217851 229.185898 
L 205.535207 228.913461 
L 206.169917 228.913461 
L 206.487273 228.084151 
L 208.391405 228.084151 
L 208.70876 227.074182 
L 209.978182 227.074182 
L 210.295537 226.815023 
L 211.564959 226.815023 
L 211.882314 226.657347 
L 212.199669 225.586247 
L 216.325289 225.493752 
L 216.642645 225.201298 
L 217.912066 225.201298 
L 218.229421 224.789207 
L 218.864132 224.789207 
L 219.181488 224.292784 
L 219.816198 224.292784 
L 220.450909 222.928734 
L 222.355041 222.928734 
L 222.672397 221.933159 
L 223.307107 221.933159 
L 223.941818 221.424462 
L 225.21124 221.424462 
L 225.528595 220.974871 
L 227.432727 220.974871 
L 227.750083 220.457049 
L 229.019504 220.457049 
L 229.33686 219.965062 
L 231.558347 219.925354 
L 231.875702 219.470005 
L 232.510413 219.470005 
L 232.827769 219.123652 
L 234.731901 219.123652 
L 235.049256 218.69792 
L 236.318678 218.69792 
L 236.636033 218.129551 
L 237.270744 218.055285 
L 238.857521 218.055285 
L 239.174876 216.594948 
L 239.809587 216.594948 
L 240.126942 216.208386 
L 240.761653 216.208386 
L 241.396364 216.095711 
L 242.34843 216.095711 
L 242.665785 215.701515 
L 244.569917 215.701515 
L 244.887273 215.124215 
L 245.521983 215.124215 
L 245.839339 214.981423 
L 247.10876 214.981423 
L 247.426116 213.873392 
L 248.695537 213.873392 
L 249.012893 213.320857 
L 251.23438 213.231077 
L 251.551736 212.655885 
L 251.869091 211.784979 
L 254.090579 211.769986 
L 254.407934 210.994043 
L 255.042645 210.994043 
L 255.36 210.766045 
L 258.216198 210.701661 
L 258.533554 210.134172 
L 258.850909 209.07335 
L 260.120331 209.07335 
L 261.072397 207.634381 
L 263.293884 207.572268 
L 263.61124 207.419536 
L 265.515372 207.419536 
L 265.832727 206.223772 
L 268.688926 206.195103 
L 269.006281 205.837907 
L 269.640992 205.837907 
L 269.958347 205.394235 
L 271.862479 205.394235 
L 272.179835 205.263208 
L 272.814545 205.263208 
L 273.131901 204.744376 
L 274.401322 204.744376 
L 274.718678 204.45578 
L 275.353388 204.45578 
L 275.670744 204.125151 
L 276.940165 204.125151 
L 277.257521 202.508021 
L 277.892231 202.508021 
L 278.526942 202.389456 
L 278.844298 202.389456 
L 279.161653 202.095024 
L 280.431074 202.095024 
L 280.74843 200.994451 
L 281.065785 200.588383 
L 281.700496 200.588383 
L 282.017851 199.227366 
L 283.287273 199.227366 
L 283.604628 198.947738 
L 287.095537 198.910694 
L 287.730248 198.822115 
L 288.047603 198.822115 
L 288.364959 198.344122 
L 288.999669 198.344122 
L 289.63438 195.492075 
L 293.125289 195.480655 
L 293.442645 195.131251 
L 294.394711 195.082366 
L 295.029421 195.082366 
L 295.664132 193.958828 
L 296.298843 193.958828 
L 296.616198 193.498928 
L 298.520331 193.498928 
L 298.837686 192.921752 
L 300.107107 192.921752 
L 300.424463 192.405113 
L 301.059174 192.405113 
L 301.693884 192.29174 
L 302.01124 192.29174 
L 302.328595 191.937597 
L 303.598017 191.937597 
L 303.915372 191.697973 
L 304.550083 191.697973 
L 304.867438 189.921763 
L 306.13686 189.921763 
L 306.454215 189.466672 
L 307.088926 189.466672 
L 307.406281 187.994873 
L 308.040992 187.994873 
L 308.358347 187.633105 
L 308.675702 186.924837 
L 310.579835 186.924837 
L 310.89719 186.220434 
L 312.166612 186.220434 
L 312.483967 185.984588 
L 313.118678 185.984588 
L 313.436033 185.845195 
L 314.070744 185.845195 
L 314.388099 184.606524 
L 315.02281 184.606524 
L 315.974876 183.193097 
L 317.244298 183.193097 
L 317.561653 182.647908 
L 318.831074 182.647908 
L 319.14843 181.674302 
L 319.465785 181.413112 
L 321.369917 181.413112 
L 321.687273 180.518318 
L 323.90876 180.42719 
L 324.226116 179.173741 
L 324.860826 179.173741 
L 325.178182 179.001526 
L 325.812893 179.001526 
L 326.130248 178.616973 
L 326.764959 178.616973 
L 327.082314 177.568258 
L 328.351736 177.568258 
L 328.669091 177.426499 
L 328.986446 175.994389 
L 330.890579 175.994389 
L 331.207934 174.922257 
L 331.842645 174.922257 
L 332.477355 173.677807 
L 333.746777 173.677807 
L 334.064132 173.219876 
L 334.698843 173.219876 
L 335.016198 172.620135 
L 335.650909 172.620135 
L 335.968264 172.028893 
L 337.237686 172.028893 
L 337.555041 171.013891 
L 338.189752 171.013891 
L 338.507107 170.510029 
L 341.998017 170.431525 
L 342.315372 168.220758 
L 342.632727 167.904412 
L 343.902149 167.904412 
L 344.219504 167.503999 
L 344.854215 167.503999 
L 345.17157 166.350704 
L 346.440992 166.350704 
L 346.758347 165.469102 
L 347.393058 165.469102 
L 347.710413 164.975747 
L 348.345124 164.975747 
L 348.662479 164.548298 
L 349.29719 164.548298 
L 349.614545 163.616789 
L 349.931901 162.234044 
L 351.518678 162.224303 
L 351.836033 161.685366 
L 354.692231 161.666881 
L 355.009587 161.383162 
L 356.279008 161.383162 
L 356.596364 158.950261 
L 357.231074 158.950261 
L 357.54843 157.957693 
L 358.18314 157.957693 
L 358.500496 157.419688 
L 359.769917 157.419688 
L 360.087273 156.403715 
L 361.356694 156.403715 
L 361.67405 156.142223 
L 362.30876 156.04538 
L 362.626116 156.04538 
L 362.943471 155.503998 
L 364.212893 155.503998 
L 364.530248 153.04315 
L 364.847603 152.861086 
L 365.482314 152.861086 
L 365.799669 152.479764 
L 366.43438 152.479764 
L 366.751736 151.258016 
L 367.386446 151.258016 
L 367.703802 149.977451 
L 368.338512 149.977451 
L 368.655868 149.750145 
L 369.925289 149.750145 
L 370.242645 147.234872 
L 371.512066 147.234872 
L 371.829421 146.560357 
L 372.146777 146.355262 
L 372.464132 144.663288 
L 373.098843 144.663288 
L 373.416198 144.019853 
L 374.050909 144.019853 
L 374.368264 143.810141 
L 375.637686 143.810141 
L 375.955041 143.269372 
L 376.589752 143.269372 
L 376.907107 139.425473 
L 377.224463 137.887588 
L 377.859174 137.887588 
L 378.176529 136.737051 
L 379.44595 136.737051 
L 379.763306 134.471232 
L 381.032727 134.471232 
L 381.350083 134.275511 
L 381.984793 134.275511 
L 382.619504 130.712943 
L 383.888926 130.712943 
L 384.206281 130.542552 
L 384.840992 130.542552 
L 385.158347 128.239977 
L 385.793058 128.239977 
L 386.110413 124.319431 
L 386.745124 124.319431 
L 387.062479 123.704156 
L 387.69719 121.240613 
L 388.966612 121.240613 
L 389.283967 117.814599 
L 389.918678 117.814599 
L 390.236033 117.071872 
L 390.553388 114.527269 
L 391.188099 114.527269 
L 391.505455 111.423825 
L 392.140165 111.423825 
L 392.457521 109.140391 
L 393.726942 109.140391 
L 394.044298 106.619368 
L 394.361653 102.000228 
L 394.996364 102.000228 
L 395.313719 101.368682 
L 395.94843 101.368682 
L 396.265785 93.198236 
L 396.58314 88.510434 
L 397.217851 88.510434 
L 397.535207 74.04942 
L 398.169917 74.04942 
L 398.487273 62.320906 
L 398.487273 62.320906 
" clip-path="url(#p23514ec478)" style="fill: none; stroke: #ff7f0e; stroke-width: 1.5; stroke-linecap: square"/>
   </g>
   <g id="patch_3">
    <path d="M 57.6 307.584 
L 57.6 41.472 
" style="fill: none; stroke: #000000; stroke-width: 0.8; stroke-linejoin: miter; stroke-linecap: square"/>
   </g>
   <g id="patch_4">
    <path d="M 414.72 307.584 
L 414.72 41.472 
" style="fill: none; stroke: #000000; stroke-width: 0.8; stroke-linejoin: miter; stroke-linecap: square"/>
   </g>
   <g id="patch_5">
    <path d="M 57.6 307.584 
L 414.72 307.584 
" style="fill: none; stroke: #000000; stroke-width: 0.8; stroke-linejoin: miter; stroke-linecap: square"/>
   </g>
   <g id="patch_6">
    <path d="M 57.6 41.472 
L 414.72 41.472 
" style="fill: none; stroke: #000000; stroke-width: 0.8; stroke-linejoin: miter; stroke-linecap: square"/>
   </g>
   <g id="legend_1">
    <g id="patch_7">
     <path d="M 64.6 78.82825 
L 129.342187 78.82825 
Q 131.342187 78.82825 131.342187 76.82825 
L 131.342187 48.472 
Q 131.342187 46.472 129.342187 46.472 
L 64.6 46.472 
Q 62.6 46.472 62.6 48.472 
L 62.6 76.82825 
Q 62.6 78.82825 64.6 78.82825 
z
" style="fill: #ffffff; opacity: 0.8; stroke: #cccccc; stroke-linejoin: miter"/>
    </g>
    <g id="line2d_15">
     <path d="M 66.6 54.570437 
L 76.6 54.570437 
L 86.6 54.570437 
" style="fill: none; stroke: #1f77b4; stroke-width: 1.5; stroke-linecap: square"/>
    </g>
    <g id="text_15">
     <!-- qc -->
     <g transform="translate(94.6 58.070437) scale(0.1 -0.1)">
      <defs>
       <path id="DejaVuSans-71" d="M 947 1747 
Q 947 1113 1208 752 
Q 1469 391 1925 391 
Q 2381 391 2643 752 
Q 2906 1113 2906 1747 
Q 2906 2381 2643 2742 
Q 2381 3103 1925 3103 
Q 1469 3103 1208 2742 
Q 947 2381 947 1747 
z
M 2906 525 
Q 2725 213 2448 61 
Q 2172 -91 1784 -91 
Q 1150 -91 751 415 
Q 353 922 353 1747 
Q 353 2572 751 3078 
Q 1150 3584 1784 3584 
Q 2172 3584 2448 3432 
Q 2725 3281 2906 2969 
L 2906 3500 
L 3481 3500 
L 3481 -1331 
L 2906 -1331 
L 2906 525 
z
" transform="scale(0.015625)"/>
       <path id="DejaVuSans-63" d="M 3122 3366 
L 3122 2828 
Q 2878 2963 2633 3030 
Q 2388 3097 2138 3097 
Q 1578 3097 1268 2742 
Q 959 2388 959 1747 
Q 959 1106 1268 751 
Q 1578 397 2138 397 
Q 2388 397 2633 464 
Q 2878 531 3122 666 
L 3122 134 
Q 2881 22 2623 -34 
Q 2366 -91 2075 -91 
Q 1284 -91 818 406 
Q 353 903 353 1747 
Q 353 2603 823 3093 
Q 1294 3584 2113 3584 
Q 2378 3584 2631 3529 
Q 2884 3475 3122 3366 
z
" transform="scale(0.015625)"/>
      </defs>
      <use xlink:href="#DejaVuSans-71"/>
      <use xlink:href="#DejaVuSans-63" x="63.476562"/>
     </g>
    </g>
    <g id="line2d_16">
     <path d="M 66.6 69.248562 
L 76.6 69.248562 
L 86.6 69.248562 
" style="fill: none; stroke: #ff7f0e; stroke-width: 1.5; stroke-linecap: square"/>
    </g>
    <g id="text_16">
     <!-- Trotter -->
     <g transform="translate(94.6 72.748562) scale(0.1 -0.1)">
      <defs>
       <path id="DejaVuSans-54" d="M -19 4666 
L 3928 4666 
L 3928 4134 
L 2272 4134 
L 2272 0 
L 1638 0 
L 1638 4134 
L -19 4134 
L -19 4666 
z
" transform="scale(0.015625)"/>
       <path id="DejaVuSans-72" d="M 2631 2963 
Q 2534 3019 2420 3045 
Q 2306 3072 2169 3072 
Q 1681 3072 1420 2755 
Q 1159 2438 1159 1844 
L 1159 0 
L 581 0 
L 581 3500 
L 1159 3500 
L 1159 2956 
Q 1341 3275 1631 3429 
Q 1922 3584 2338 3584 
Q 2397 3584 2469 3576 
Q 2541 3569 2628 3553 
L 2631 2963 
z
" transform="scale(0.015625)"/>
       <path id="DejaVuSans-6f" d="M 1959 3097 
Q 1497 3097 1228 2736 
Q 959 2375 959 1747 
Q 959 1119 1226 758 
Q 1494 397 1959 397 
Q 2419 397 2687 759 
Q 2956 1122 2956 1747 
Q 2956 2369 2687 2733 
Q 2419 3097 1959 3097 
z
M 1959 3584 
Q 2709 3584 3137 3096 
Q 3566 2609 3566 1747 
Q 3566 888 3137 398 
Q 2709 -91 1959 -91 
Q 1206 -91 779 398 
Q 353 888 353 1747 
Q 353 2609 779 3096 
Q 1206 3584 1959 3584 
z
" transform="scale(0.015625)"/>
       <path id="DejaVuSans-65" d="M 3597 1894 
L 3597 1613 
L 953 1613 
Q 991 1019 1311 708 
Q 1631 397 2203 397 
Q 2534 397 2845 478 
Q 3156 559 3463 722 
L 3463 178 
Q 3153 47 2828 -22 
Q 2503 -91 2169 -91 
Q 1331 -91 842 396 
Q 353 884 353 1716 
Q 353 2575 817 3079 
Q 1281 3584 2069 3584 
Q 2775 3584 3186 3129 
Q 3597 2675 3597 1894 
z
M 3022 2063 
Q 3016 2534 2758 2815 
Q 2500 3097 2075 3097 
Q 1594 3097 1305 2825 
Q 1016 2553 972 2059 
L 3022 2063 
z
" transform="scale(0.015625)"/>
      </defs>
      <use xlink:href="#DejaVuSans-54"/>
      <use xlink:href="#DejaVuSans-72" x="46.333984"/>
      <use xlink:href="#DejaVuSans-6f" x="85.197266"/>
      <use xlink:href="#DejaVuSans-74" x="146.378906"/>
      <use xlink:href="#DejaVuSans-74" x="185.587891"/>
      <use xlink:href="#DejaVuSans-65" x="224.796875"/>
      <use xlink:href="#DejaVuSans-72" x="286.320312"/>
     </g>
    </g>
   </g>
  </g>
 </g>
 <defs>
  <clipPath id="p23514ec478">
   <rect x="57.6" y="41.472" width="357.12" height="266.112"/>
  </clipPath>
 </defs>
</svg>
